<svg xmlns:rdf="http://www.w3.org/1999/02/22-rdf-syntax-ns#" xmlns="http://www.w3.org/2000/svg" height="24" width="24" version="1.0" xmlns:cc="http://creativecommons.org/ns#" xmlns:xlink="http://www.w3.org/1999/xlink" xmlns:dc="http://purl.org/dc/elements/1.1/">
<defs>
<linearGradient id="aaaaaa" x1="11" spreadMethod="reflect" gradientUnits="userSpaceOnUse" y1="19.5" gradientTransform="translate(1,-1)" x2="21" y2="19.5">
<stop stop-color="#e5e5e5" offset="0"/>
<stop stop-color="#e5e5e5" stop-opacity=".49804" offset=".75"/>
<stop stop-color="#e5e5e5" stop-opacity="0" offset="1"/>
</linearGradient>
<linearGradient id="cccccc" y2="6.123" gradientUnits="userSpaceOnUse" y1="24.123" gradientTransform="translate(-.74004 -4.123)" x2="10.872" x1="10.872">
<stop stop-color="#76b749" offset="0"/>
<stop stop-color="#a6d08a" offset="1"/>
</linearGradient>
<linearGradient id="bbbbb" y2="-11" gradientUnits="userSpaceOnUse" x2="11.375" gradientTransform="translate(1,3)" y1="20" x1="11.375">
<stop offset="0"/>
<stop stop-opacity="0" offset="1"/>
</linearGradient>
<linearGradient id="dddddd" y2="16" gradientUnits="userSpaceOnUse" x2="10" gradientTransform="translate(1,-1)" y1="5" x1="10">
<stop stop-color="#fff" offset="0"/>
<stop stop-color="#fff" stop-opacity="0" offset="1"/>
</linearGradient>
</defs>
<g transform="translate(0,2)">
<g>
<path opacity=".3" d="m4.5 1.5c-1.097 0-2 0.903-2 2v0.5c-0.61148 0.45491-1 1.1759-1 2v14.5c0 1.385 1.115 2.5 2.5 2.5h16c1.385 0 2.5-1.115 2.5-2.5v-14.5c0-0.8656-0.429-1.6141-1.094-2.0625-0.246-0.8263-1.004-1.4375-1.906-1.4375h-7.375c-0.35-0.5678-0.912-1-1.625-1h-6z" transform="translate(0,-2)" fill="url(#bbbbb)"/>
<g>
<rect opacity=".4" rx="2" ry="2" height="16" width="20" y="5" x="2"/>
<path style="color:#000000" d="m4.5 0c-0.831 0-1.5 0.669-1.5 1.5v1 1 2c0 0.831 0.669 1.5 1.5 1.5h15c0.831 0 1.5-0.669 1.5-1.5v-3c0-0.831-0.669-1.5-1.5-1.5h-7.594c-0.203-0.58702-0.748-1-1.406-1h-6z" fill="#80bc57"/>
<path opacity=".1" style="color:#000000" d="m4 1c-0.3511 0-0.6825 0.0924-0.9688 0.25-0.0129 0.0795-0.0312 0.1667-0.0312 0.25v1 1 2c0 0.831 0.669 1.5 1.5 1.5h15c0.831 0 1.5-0.669 1.5-1.5v-3c0-0.831-0.669-1.5-1.5-1.5h-7.594-7.906z"/>
</g>
</g>
<rect rx="2" ry="2" height="18" width="20" y="2" x="2" fill="url(#cccccc)"/>
<path opacity=".2" d="m4 2c-1.108 0-2 0.892-2 2v14c0 1.108 0.892 2 2 2h16c1.108 0 2-0.892 2-2v-14c0-1.108-0.892-2-2-2zm0 1.0312h16c0.5497 0 0.96875 0.41905 0.96875 0.96875v14c0 0.5497-0.41905 0.96875-0.96875 0.96875h-16c-0.5497 0-0.9688-0.419-0.9688-0.969v-14c0-0.5497 0.4191-0.9688 0.9688-0.9688z" fill-rule="evenodd" fill="url(#dddddd)"/>
<path opacity=".2" d="m4 20c-1.108 0-2-0.892-2-2v-1c0 1.108 0.892 2 2 2h16c1.108 0 2-0.892 2-2v1c0 1.108-0.892 2-2 2z" fill-rule="evenodd" fill="url(#aaaaaa)"/>
</g>

<g transform="translate(0,2)">
<path d="m9 7v2h6v-2h-6zm0 3v2h-2l2.5 2.5 2.5 2.5 2.5-2.5 2.5-2.5h-2v-2h-6z" fill="#6A9E47"/>
<path opacity=".2" d="m9 7v2h6v-2h-6zm0.4375 0.4375h5.125v1.125h-5.125v-1.125zm-0.4375 2.5625v2h-2l2.5 2.5 2.5 2.5 2.5-2.5 2.5-2.5h-2v-2h-6zm0.4375 0.4375h5.125v1.5625a0.43624 0.43624 0 0 0 0.438 0.438h0.9375l-1.75 1.75-2.188 2.187-2.1875-2.187-1.75-1.75h0.9375a0.43624 0.43624 0 0 0 0.4375 -0.438v-1.5625z"/>
<path opacity=".2" d="m9 7v1h6v-1h-6zm0 3v1h6v-1h-6zm-2 2 1 1h1v-1h-2zm8 0v1h1l1-1h-2z"/>
<path opacity=".15" d="m8.8125 6.0313a0.96747 0.96747 0 0 0 -0.78125 0.96875v2a0.96747 0.96747 0 0 0 0.125 0.5 0.96747 0.96747 0 0 0 -0.125 0.5v1.0312h-1.0312a0.96747 0.96747 0 0 0 -0.6875 1.657l2.5 2.5 2.5 2.5a0.96747 0.96747 0 0 0 1.375 0l2.5-2.5 2.5-2.5a0.96747 0.96747 0 0 0 -0.687 -1.657h-1.0312v-1.0312a0.96747 0.96747 0 0 0 -0.125 -0.46875 0.96747 0.96747 0 0 0 0 -0.03125 0.96747 0.96747 0 0 0 0.125 -0.5v-2a0.96747 0.96747 0 0 0 -0.969 -0.9685h-6a0.96747 0.96747 0 0 0 -0.09375 0 0.96747 0.96747 0 0 0 -0.09375 0zm0.1875 0.9687h6v2h-6v-2zm0 3h6v2h2l-2.5 2.5-2.5 2.5-2.5-2.5-2.5-2.5h2v-2z" fill="#fff"/>
<path opacity=".15" d="m9 9v1h6v-1h-6zm-2 4 2.5 2.5 2.5 2.5 2.5-2.5 2.5-2.5h-1l-1.5 1.5-2.5 2.5-2.5-2.5-1.5-1.5h-1z" fill="#fff"/>
</g></svg>