<svg xmlns:rdf="http://www.w3.org/1999/02/22-rdf-syntax-ns#" xmlns="http://www.w3.org/2000/svg" height="24" width="24" version="1.0" xmlns:cc="http://creativecommons.org/ns#" xmlns:xlink="http://www.w3.org/1999/xlink" xmlns:dc="http://purl.org/dc/elements/1.1/">
<defs>
<linearGradient id="b" y2="9.123" gradientUnits="userSpaceOnUse" x2="10.872" gradientTransform="translate(-.74004 -4.123)" y1="24.123" x1="10.872">
<stop stop-color="#76b749" offset="0"/>
<stop stop-color="#a6d08a" offset="1"/>
</linearGradient>
<linearGradient id="e" y2="16" gradientUnits="userSpaceOnUse" y1="6" gradientTransform="translate(1,-1)" x2="10" x1="10">
<stop stop-color="#fff" offset="0"/>
<stop stop-color="#fff" stop-opacity="0" offset="1"/>
</linearGradient>
<linearGradient id="a" y2="19.5" spreadMethod="reflect" gradientUnits="userSpaceOnUse" x2="21" gradientTransform="translate(1,-1)" y1="19.5" x1="11">
<stop stop-color="#fff" offset="0"/>
<stop stop-color="#fff" stop-opacity=".49804" offset=".75"/>
<stop stop-color="#fff" stop-opacity="0" offset="1"/>
</linearGradient>
<linearGradient id="d" y2="6" gradientUnits="userSpaceOnUse" x2="6" gradientTransform="translate(41,-3)" y1="8" x1="6">
<stop offset="0"/>
<stop stop-opacity=".34109" offset=".5"/>
<stop stop-opacity="0" offset="1"/>
</linearGradient>
<linearGradient id="c" y2="-8" gradientUnits="userSpaceOnUse" y1="23" gradientTransform="translate(0,-2)" x2="10" x1="10">
<stop offset="0"/>
<stop stop-opacity="0" offset="1"/>
</linearGradient>
</defs>
<g transform="translate(0,2)">
<g>
<path opacity=".3" style="color:#000000" d="m4.5-0.5c-1.097 0-2 0.903-2 2v1 1 1.5625c-0.5842 0.4519-0.9688 1.1434-0.9688 1.9375v11.5c0 1.3614 1.1074 2.4688 2.4688 2.4688h16c1.3614 0 2.4688-1.1074 2.4688-2.4688v-11.5c0-0.7941-0.385-1.4856-0.969-1.9375v-2.5625c0-1.097-0.903-2-2-2h-7.375c-0.34968-0.56782-0.91215-1-1.625-1h-6z" fill="url(#c)"/>
<rect opacity=".4" rx="2" ry="2" height="16" width="20" y="5" x="2"/>
<path style="color:#000000" d="m4.5 0c-0.831 0-1.5 0.669-1.5 1.5v1 1 2c0 0.831 0.669 1.5 1.5 1.5h15c0.831 0 1.5-0.669 1.5-1.5v-3c0-0.831-0.669-1.5-1.5-1.5h-7.594c-0.203-0.58702-0.748-1-1.406-1h-6z" fill="#80bc57"/>
<path opacity=".1" style="color:#000000" d="m4 1c-0.3511 0-0.6825 0.0924-0.9688 0.25-0.0129 0.0795-0.0312 0.1667-0.0312 0.25v1 1 2c0 0.831 0.669 1.5 1.5 1.5h15c0.831 0 1.5-0.669 1.5-1.5v-3c0-0.831-0.669-1.5-1.5-1.5h-7.594-7.906z"/>
</g>
<g transform="translate(-40)">
<rect rx="2" ry="2" height="9" width="18" y="2" x="43" fill="#f9f9f9"/>
<path opacity=".3" d="m43.281 3c-0.17 0.2946-0.281 0.6339-0.281 1v3h18v-3c0-0.3661-0.111-0.7054-0.281-1h-17.438z" fill="url(#d)"/>
</g>
<rect rx="2" ry="2" height="15" width="20" y="5" x="2" fill="url(#b)"/>
<path opacity=".2" d="m4 5c-1.108 0-2 0.892-2 2v11c0 1.108 0.892 2 2 2h16c1.108 0 2-0.892 2-2v-11c0-1.108-0.892-2-2-2zm0 1.0312h16c0.5497 0 0.96875 0.41905 0.96875 0.96875v11c0 0.5497-0.41905 0.96875-0.96875 0.96875h-16c-0.5497 0-0.9688-0.419-0.9688-0.969v-11c0-0.5497 0.4191-0.9688 0.9688-0.9688z" fill-rule="evenodd" fill="url(#e)"/>
<path opacity=".2" d="m4 20c-1.108 0-2-0.892-2-2v-1c0 1.108 0.892 2 2 2h16c1.108 0 2-0.892 2-2v1c0 1.108-0.892 2-2 2z" fill-rule="evenodd" fill="url(#a)"/>
</g>
</svg>
