<svg xmlns:rdf="http://www.w3.org/1999/02/22-rdf-syntax-ns#" xmlns="http://www.w3.org/2000/svg" height="24" width="24" version="1.0" xmlns:cc="http://creativecommons.org/ns#" xmlns:xlink="http://www.w3.org/1999/xlink" xmlns:dc="http://purl.org/dc/elements/1.1/">
<defs>
<linearGradient id="aaaaaa" x1="11" spreadMethod="reflect" gradientUnits="userSpaceOnUse" y1="19.5" gradientTransform="translate(1,-1)" x2="21" y2="19.5">
<stop stop-color="#e5e5e5" offset="0"/>
<stop stop-color="#e5e5e5" stop-opacity=".49804" offset=".75"/>
<stop stop-color="#e5e5e5" stop-opacity="0" offset="1"/>
</linearGradient>
<linearGradient id="cccccc" y2="6.123" gradientUnits="userSpaceOnUse" y1="24.123" gradientTransform="translate(-.74004 -4.123)" x2="10.872" x1="10.872">
<stop stop-color="#76b749" offset="0"/>
<stop stop-color="#a6d08a" offset="1"/>
</linearGradient>
<linearGradient id="bbbbb" y2="-11" gradientUnits="userSpaceOnUse" x2="11.375" gradientTransform="translate(1,3)" y1="20" x1="11.375">
<stop offset="0"/>
<stop stop-opacity="0" offset="1"/>
</linearGradient>
<linearGradient id="dddddd" y2="16" gradientUnits="userSpaceOnUse" x2="10" gradientTransform="translate(1,-1)" y1="5" x1="10">
<stop stop-color="#fff" offset="0"/>
<stop stop-color="#fff" stop-opacity="0" offset="1"/>
</linearGradient>
</defs>
<g transform="translate(0,2)">
<g>
<path opacity=".3" d="m4.5 1.5c-1.097 0-2 0.903-2 2v0.5c-0.61148 0.45491-1 1.1759-1 2v14.5c0 1.385 1.115 2.5 2.5 2.5h16c1.385 0 2.5-1.115 2.5-2.5v-14.5c0-0.8656-0.429-1.6141-1.094-2.0625-0.246-0.8263-1.004-1.4375-1.906-1.4375h-7.375c-0.35-0.5678-0.912-1-1.625-1h-6z" transform="translate(0,-2)" fill="url(#bbbbb)"/>
<g>
<rect opacity=".4" rx="2" ry="2" height="16" width="20" y="5" x="2"/>
<path style="color:#000000" d="m4.5 0c-0.831 0-1.5 0.669-1.5 1.5v1 1 2c0 0.831 0.669 1.5 1.5 1.5h15c0.831 0 1.5-0.669 1.5-1.5v-3c0-0.831-0.669-1.5-1.5-1.5h-7.594c-0.203-0.58702-0.748-1-1.406-1h-6z" fill="#80bc57"/>
<path opacity=".1" style="color:#000000" d="m4 1c-0.3511 0-0.6825 0.0924-0.9688 0.25-0.0129 0.0795-0.0312 0.1667-0.0312 0.25v1 1 2c0 0.831 0.669 1.5 1.5 1.5h15c0.831 0 1.5-0.669 1.5-1.5v-3c0-0.831-0.669-1.5-1.5-1.5h-7.594-7.906z"/>
</g>
</g>
<rect rx="2" ry="2" height="18" width="20" y="2" x="2" fill="url(#cccccc)"/>
<path opacity=".2" d="m4 2c-1.108 0-2 0.892-2 2v14c0 1.108 0.892 2 2 2h16c1.108 0 2-0.892 2-2v-14c0-1.108-0.892-2-2-2zm0 1.0312h16c0.5497 0 0.96875 0.41905 0.96875 0.96875v14c0 0.5497-0.41905 0.96875-0.96875 0.96875h-16c-0.5497 0-0.9688-0.419-0.9688-0.969v-14c0-0.5497 0.4191-0.9688 0.9688-0.9688z" fill-rule="evenodd" fill="url(#dddddd)"/>
<path opacity=".2" d="m4 20c-1.108 0-2-0.892-2-2v-1c0 1.108 0.892 2 2 2h16c1.108 0 2-0.892 2-2v1c0 1.108-0.892 2-2 2z" fill-rule="evenodd" fill="url(#aaaaaa)"/>
</g>

<g transform="translate(0,2)">
<path opacity=".15" d="m12 4c-1.647 0-3 1.3531-3 3 0 0.377 0.1809 0.7116 0.3125 1.0625l-0.375 1.9375h-0.9375a1.0036 1.0036 0 0 0 -1 1v1a1.0036 1.0036 0 0 0 1 1h0.375l-0.0625 0.28125v0.0625c-0.25863 1.0019-0.37344 1.923-0.28125 2.7188 0.04714 0.40693 0.1499 0.7866 0.375 1.1562 0.2251 0.369 0.6869 0.741 1.2188 0.781a1.0036 1.0036 0 0 0 1.0312 -0.75l1.156-4.25h0.375l1.1562 4.25a1.0036 1.0036 0 0 0 1.845 0.25c0.813-1.395 0.774-2.97 0.562-4.5h0.25a1.0036 1.0036 0 0 0 1 -1v-1a1.0036 1.0036 0 0 0 -1 -1h-0.84375c-0.182-0.6652-0.343-1.3275-0.5-1.9062 0.147-0.3506 0.344-0.6861 0.344-1.0938 0-1.6469-1.353-3-3-3zm0 1c1.1046 0 2 0.89543 2 2 0 0.4304-0.14369 0.82996-0.375 1.1562 0.23249 0.87431 0.52846 1.8484 0.78125 2.8438h1.594v1h-1.375c0.3745 1.799 0.50607 3.5962-0.3125 5l-1.3438-5h-1.9375l-1.3438 5c-0.725-0.054-0.8998-1.601-0.4057-3.469l0.3126-1.531h-1.5938v-1h1.7812l0.5628-2.8438c-0.224-0.323-0.344-0.7334-0.344-1.1562 0-1.1046 0.895-2 2-2zm0 1.0312c-0.53019 0-0.96875 0.43856-0.96875 0.96875s0.43856 0.96875 0.96875 0.96875 0.96875-0.43856 0.96875-0.96875-0.43856-0.96875-0.96875-0.96875zm0 0.9375c0.02317 0 0.03125 0.00808 0.03125 0.03125s-0.0081 0.03125-0.03125 0.03125c-0.02317 0-0.03125-0.0081-0.03125-0.03125 0-0.023168 0.0081-0.03125 0.03125-0.03125zm-0.156 2.0313l-0.5625 2h1.4375l-0.5625-2c-0.052 0.004-0.103 0-0.156 0s-0.104 0.004-0.156 0z" fill="#fff"/>
<path d="m12 5c-1.1046 0-2 0.89543-2 2 0 0.42278 0.11987 0.83323 0.34375 1.1562l-0.5628 2.8438h-1.7812v1h1.5938l-0.3125 1.5312c-0.4942 1.868-0.3194 3.415 0.4062 3.469l1.3438-5h1.9375l1.3438 5c0.81857-1.4038 0.687-3.201 0.3125-5h1.374v-1h-1.594c-0.253-0.995-0.549-1.9694-0.781-2.8438 0.231-0.3262 0.375-0.7258 0.375-1.1562 0-1.1046-0.895-2-2-2zm0 1.0312c0.53019 0 0.96875 0.43856 0.96875 0.96875s-0.43856 0.96875-0.96875 0.96875c-0.53 0.0001-0.969-0.4385-0.969-0.9687s0.439-0.9688 0.969-0.9688zm-0.156 2.9688c0.052 0.004 0.103 0 0.156 0 0.05279 0 0.10449 0.004 0.15625 0l0.5625 2h-1.4375l0.5625-2z" fill="#6A9E47"/>
<path opacity=".2" d="m12 5c-1.1046 0-2 0.89543-2 2 0 0.42278 0.11987 0.83323 0.34375 1.1562l-0.5628 2.8438h-1.7812v1h1.5938l-0.3125 1.5312c-0.4942 1.868-0.3194 3.415 0.4062 3.469l1.3438-5h1.9375l1.3438 5c0.81857-1.4038 0.687-3.201 0.3125-5h1.374v-1h-1.594c-0.253-0.995-0.549-1.9694-0.781-2.8438 0.231-0.3262 0.375-0.7258 0.375-1.1562 0-1.1046-0.895-2-2-2zm0 0.46875c0.84829 0 1.5312 0.68296 1.5312 1.5312 0 0.32486-0.10198 0.62212-0.28125 0.875a0.47424 0.47424 0 0 0 -0.09375 0.40625c0.2357 0.88637 0.53203 1.8624 0.78125 2.8438a0.47424 0.47424 0 0 0 0.46875 0.34375h1.125v0.0625h-0.90625a0.47424 0.47424 0 0 0 -0.46875 0.5625c0.23891 1.1477 0.36149 2.2428 0.21875 3.2188l-0.937-3.438a0.47424 0.47424 0 0 0 -0.46875 -0.34375h-1.9375a0.47424 0.47424 0 0 0 -0.47 0.344l-1.062 3.906c-0.04526-0.53671 0.02766-1.2844 0.25-2.125a0.47424 0.47424 0 0 0 0 -0.03125l0.3125-1.5312a0.47424 0.47424 0 0 0 -0.46875 -0.5625h-1.125v-0.0625h1.3125a0.47424 0.47424 0 0 0 0.4693 -0.376l0.562-2.844a0.47424 0.47424 0 0 0 -0.093 -0.375c-0.162-0.2336-0.25-0.5418-0.25-0.875 0-0.8483 0.683-1.5312 1.531-1.5312zm0 0.09375c-0.79169 0-1.4375 0.64581-1.4375 1.4375s0.64581 1.4375 1.4375 1.4375 1.4375-0.64581 1.4375-1.4375-0.64581-1.4375-1.4375-1.4375zm0 0.46875c0.53019 0 0.96875 0.43856 0.96875 0.96875s-0.43856 0.96875-0.96875 0.96875-0.96875-0.43856-0.96875-0.96875 0.43856-0.96875 0.96875-0.96875zm-0.3125 2.5a0.47424 0.47424 0 0 0 -0.313 0.3436l-0.5625 2a0.47424 0.47424 0 0 0 0.46875 0.59375h1.4375a0.47424 0.47424 0 0 0 0.47 -0.594l-0.5625-2a0.47424 0.47424 0 0 0 -0.5 -0.34375c-0.0034 0.00026-0.04826 0-0.125 0-0.07675 0-0.12164 0.00026-0.125 0a0.47424 0.47424 0 0 0 -0.15625 0 0.47424 0.47424 0 0 0 -0.03125 0zm0.156 0.4686c0.052 0.004 0.103 0 0.156 0 0.05279 0 0.10449 0.004 0.15625 0l0.5625 2h-1.4375l0.5625-2z"/>
<path opacity=".2" d="m12 5c-1.1046 0-2 0.89543-2 2 0 0.15816 0.02978 0.31798 0.0625 0.46875 0.232-0.8482 1.016-1.4688 1.938-1.4688 0.932 0 1.716 0.6373 1.938 1.5 0.042-0.1592 0.062-0.3283 0.062-0.5 0-1.1046-0.895-2-2-2zm-0.8125 2.5c-0.09372 0.14888-0.15625 0.31319-0.15625 0.5 0 0.53019 0.43856 0.96875 0.96875 0.96875s0.96875-0.43856 0.96875-0.96875c0-0.18681-0.06253-0.35112-0.15625-0.5-0.173 0.2737-0.47 0.4688-0.813 0.4688s-0.64-0.1951-0.812-0.4688zm2.625 1.3125c-0.055 0.1203-0.113 0.2375-0.188 0.3437 0.232 0.8748 0.528 1.8488 0.781 2.8438h0.219 1.375v-1h-1.594c-0.194-0.765-0.397-1.4833-0.594-2.1875zm-3.594 0.0625-0.4378 2.125h-1.7812v1h1.5938 0.1875l0.5625-2.8438c-0.059-0.0846-0.081-0.1859-0.125-0.2812zm1.343 2.125l-0.28125 1h1.4375l-0.28125-1h-0.875zm-2.187 2-0.0938 0.531c-0.23552 0.89041-0.30563 1.695-0.25 2.3125 0.04176-0.40853 0.12647-0.84549 0.25-1.3125l0.3126-1.531h-0.2188zm5.25 0c0.15156 0.72806 0.22489 1.4548 0.25 2.1562 0.071-0.686 0.014-1.417-0.094-2.156h-0.156z"/>
<path opacity=".15" d="m12 8.0312c-0.53 0-0.969 0.4386-0.969 0.9688 0 0.1868 0.063 0.3511 0.157 0.5 0.172-0.2737 0.469-0.4688 0.812-0.4688s0.64 0.1951 0.812 0.4688c0.094-0.1489 0.157-0.3132 0.157-0.5 0-0.5302-0.439-0.9688-0.969-0.9688zm-1.938 1.4376c-0.046 0.1683-0.062 0.3483-0.062 0.5312 0 0.312 0.095 0.607 0.219 0.875l0.125-0.719c-0.14-0.2019-0.227-0.435-0.282-0.6872zm3.876 0.0312c-0.064 0.2398-0.174 0.4602-0.313 0.656 0.054 0.203 0.128 0.444 0.187 0.656 0.114-0.249 0.188-0.522 0.188-0.812 0-0.1726-0.021-0.3402-0.062-0.5zm-2.094 1.5l-0.563 2h0.281l0.282-1c0.052 0.004 0.103 0 0.156 0s0.104 0.004 0.156 0l0.282 1h0.281l-0.563-2c-0.052 0.004-0.103 0-0.156 0s-0.104 0.004-0.156 0zm-3.844 3v1h1.375l0.2188-1h-1.5938zm3.031 0l-1.3435 5c-0.3628-0.027-0.5836-0.436-0.6563-1.062-0.1036 1.175 0.1264 2.022 0.6563 2.062l1.3435-5h1.938l1.343 5c0.468-0.802 0.584-1.733 0.563-2.719-0.077 0.617-0.256 1.193-0.563 1.719l-1.343-5h-0.25-1.438-0.25zm3.594 0c0.07 0.334 0.108 0.668 0.156 1h1.219v-1h-1.375z" transform="translate(0,-2)" fill="#fff"/>
</g></svg>