<svg xmlns:rdf="http://www.w3.org/1999/02/22-rdf-syntax-ns#" xmlns="http://www.w3.org/2000/svg" height="24" width="24" version="1.0" xmlns:cc="http://creativecommons.org/ns#" xmlns:xlink="http://www.w3.org/1999/xlink" xmlns:dc="http://purl.org/dc/elements/1.1/">
<defs>
<linearGradient id="aaaaaa" x1="11" spreadMethod="reflect" gradientUnits="userSpaceOnUse" y1="19.5" gradientTransform="translate(1,-1)" x2="21" y2="19.5">
<stop stop-color="#e5e5e5" offset="0"/>
<stop stop-color="#e5e5e5" stop-opacity=".49804" offset=".75"/>
<stop stop-color="#e5e5e5" stop-opacity="0" offset="1"/>
</linearGradient>
<linearGradient id="cccccc" y2="6.123" gradientUnits="userSpaceOnUse" y1="24.123" gradientTransform="translate(-.74004 -4.123)" x2="10.872" x1="10.872">
<stop stop-color="#76b749" offset="0"/>
<stop stop-color="#a6d08a" offset="1"/>
</linearGradient>
<linearGradient id="bbbbb" y2="-11" gradientUnits="userSpaceOnUse" x2="11.375" gradientTransform="translate(1,3)" y1="20" x1="11.375">
<stop offset="0"/>
<stop stop-opacity="0" offset="1"/>
</linearGradient>
<linearGradient id="dddddd" y2="16" gradientUnits="userSpaceOnUse" x2="10" gradientTransform="translate(1,-1)" y1="5" x1="10">
<stop stop-color="#fff" offset="0"/>
<stop stop-color="#fff" stop-opacity="0" offset="1"/>
</linearGradient>
</defs>
<g transform="translate(0,2)">
<g>
<path opacity=".3" d="m4.5 1.5c-1.097 0-2 0.903-2 2v0.5c-0.61148 0.45491-1 1.1759-1 2v14.5c0 1.385 1.115 2.5 2.5 2.5h16c1.385 0 2.5-1.115 2.5-2.5v-14.5c0-0.8656-0.429-1.6141-1.094-2.0625-0.246-0.8263-1.004-1.4375-1.906-1.4375h-7.375c-0.35-0.5678-0.912-1-1.625-1h-6z" transform="translate(0,-2)" fill="url(#bbbbb)"/>
<g>
<rect opacity=".4" rx="2" ry="2" height="16" width="20" y="5" x="2"/>
<path style="color:#000000" d="m4.5 0c-0.831 0-1.5 0.669-1.5 1.5v1 1 2c0 0.831 0.669 1.5 1.5 1.5h15c0.831 0 1.5-0.669 1.5-1.5v-3c0-0.831-0.669-1.5-1.5-1.5h-7.594c-0.203-0.58702-0.748-1-1.406-1h-6z" fill="#80bc57"/>
<path opacity=".1" style="color:#000000" d="m4 1c-0.3511 0-0.6825 0.0924-0.9688 0.25-0.0129 0.0795-0.0312 0.1667-0.0312 0.25v1 1 2c0 0.831 0.669 1.5 1.5 1.5h15c0.831 0 1.5-0.669 1.5-1.5v-3c0-0.831-0.669-1.5-1.5-1.5h-7.594-7.906z"/>
</g>
</g>
<rect rx="2" ry="2" height="18" width="20" y="2" x="2" fill="url(#cccccc)"/>
<path opacity=".2" d="m4 2c-1.108 0-2 0.892-2 2v14c0 1.108 0.892 2 2 2h16c1.108 0 2-0.892 2-2v-14c0-1.108-0.892-2-2-2zm0 1.0312h16c0.5497 0 0.96875 0.41905 0.96875 0.96875v14c0 0.5497-0.41905 0.96875-0.96875 0.96875h-16c-0.5497 0-0.9688-0.419-0.9688-0.969v-14c0-0.5497 0.4191-0.9688 0.9688-0.9688z" fill-rule="evenodd" fill="url(#dddddd)"/>
<path opacity=".2" d="m4 20c-1.108 0-2-0.892-2-2v-1c0 1.108 0.892 2 2 2h16c1.108 0 2-0.892 2-2v1c0 1.108-0.892 2-2 2z" fill-rule="evenodd" fill="url(#aaaaaa)"/>
</g>

<g transform="translate(0,2)">
<path opacity=".15" d="m11.875 5.0313c-0.21348 0.028854-0.41133 0.12778-0.5625 0.28125l-6 6.0312c-0.275 0.278-0.3684 0.701-0.2182 1.062 0.1501 0.362 0.5145 0.592 0.9062 0.594h1v3c0.00198 0.5342 0.43455 0.96676 0.96875 0.96875h8.0312c0.534-0.002 0.967-0.435 0.969-0.969v-3.0312h1.0938c0.39166-0.0015 0.7561-0.23201 0.90625-0.59375 0.15016-0.36174 0.05672-0.78408-0.21875-1.0625l-2.75-2.7505v-1.5625c-0.002-0.5342-0.435-0.9668-0.969-0.9687h-1.0312c-0.1643 0.00139-0.32557 0.044399-0.46875 0.125l-0.843-0.8438c-0.213-0.2149-0.513-0.3188-0.813-0.2812zm0.125 0.9687 2 2v-1h1.0312v1.9687l3.031 3.0313h-2.062v4h-8.0312v-3.9688h-1.9688l6-6.0312z" fill="#ead7b4"/>
<path d="m12 6-6.0134 6.0361h1.99v3.9639h8.0234v-4h2.059l-3.036-3.0308 0.009-1.9692-1.0325 0.0084v0.97852l-2-1.9869z" fill="#6A9E47"/>
<path opacity=".2" d="m12 6-6 6.0312h1.9688v3.9688h8.0312v-4h2.062l-3.031-3.0312v-1.9688h-1.031v1l-2-2zm0 0.6875 1.6562 1.6562a0.48089 0.48089 0 0 0 0.813 -0.3437v-0.53125h0.09375v1.5a0.48089 0.48089 0 0 0 0.125 0.34375l2.2188 2.2188h-0.90625a0.48089 0.48089 0 0 0 -0.47 0.469v3.5312h-7.0938v-3.5a0.48089 0.48089 0 0 0 -0.4684 -0.469h-0.8125l4.8437-4.8745z"/>
<path opacity=".2" d="m12 6-6 6.0312h1l5-5.031 2 2v-1l-2-2zm2 2h1.0312v-1h-1.031v1zm1.0312 0.96875v1l2.031 2.0312h1l-3.0312-3.0312z"/>
<path opacity=".15" d="m16 14v1h2.062l-1-1h-1.062zm-9 0.031l-1 1h1.9688v-1h-0.9688zm0.9688 3.969v1h8.0312v-1h-8.0312z" transform="translate(0,-2)" fill="#fff"/>
</g></svg>