<svg width="16" height="16" version="1.1" xmlns="http://www.w3.org/2000/svg">
	<path d="m10.708 1c-0.65158 1.4487-1.1453 2.9389-1.4729 4.4406-0.17004 0.13666-0.34282 0.26434-0.51986 0.39375-2.0197 1.4764-4.4425 2.4411-6.7148 2.3844v1.0938c2.0107 0.1917 3.3483 0.53535 4.2589 1.7583 0.9006 1.2096 1.4049 2.4056 1.4049 3.9292h0.69314c0-1.519-0.65262-3.3234-1.5348-4.3448-0.87182-1.0094-1.9729-1.477-3.4575-1.824 1.9853-0.26843 3.9565-1.1599 5.6534-2.3844-0.4894 2.8701-0.40963 5.7847 0.19495 8.5531h4.787c-2.392-2.1902-3.4267-6.1162-3.4224-9.8219 1.3488-1.268 2.397-2.7219 2.9458-4.1781h-0.73646c-0.45635 1.0667-1.2212 2.1614-2.1877 3.1719 0.058848-1.1165 0.23521-2.1852 0.47654-3.1719z" fill="#bebebe"/>
</svg>
