<svg width="16" height="16" version="1.1" xmlns="http://www.w3.org/2000/svg">
	<path d="m1.8574 1c-0.47486 0-0.85742 0.38267-0.85742 0.85742v4.2852c0 0.47484 0.38256 0.85742 0.85742 0.85742h4.2852c0.47486 0 0.85742-0.38258 0.85742-0.85742v-4.2852c0-0.47476-0.38256-0.85742-0.85742-0.85742h-4.2852zm2.0078 1c0.98411 0 1.4375 0.51175 1.4375 1.1777 0 0.80732-0.79054 1.5385-1.5625 2.3281h1.6445v0.63672h-2.8105v-0.45312c0.21804-0.20625 0.46506-0.41801 0.77148-0.73633 0.58929-0.61859 1.2324-1.21 1.2324-1.7285 0-0.32997-0.19432-0.53516-0.71289-0.53516-0.4125 0-0.7422 0.16513-1.084 0.3125l-0.21289-0.63086c0.28286-0.14729 0.74295-0.37109 1.2969-0.37109zm-2.0078 6c-0.47486 0-0.85742 0.38258-0.85742 0.85742v4.2852c0 0.47493 0.38256 0.85742 0.85742 0.85742h4.2852c0.47486 0 0.85742-0.38249 0.85742-0.85742v-4.2852c0-0.47484-0.38256-0.85742-0.85742-0.85742h-4.2852zm7 0c-0.47486 0-0.85742 0.38258-0.85742 0.85742v4.2852c0 0.47476 0.38256 0.85742 0.85742 0.85742h4.2852c0.47486 0 0.85742-0.38267 0.85742-0.85742v-4.2852c0-0.47484-0.38257-0.85742-0.85742-0.85742h-4.2852zm2.0879 1c1.0077 0 1.4668 0.41244 1.4668 1.0547 0 0.3241-0.17603 0.565-0.47656 0.80078 0.48911 0.26505 0.70703 0.64812 0.70703 1.0605 0 0.63655-0.55819 1.2852-1.6602 1.2852-0.97232 0-1.6934-0.50168-1.6934-1.2324 0-0.43029 0.28473-0.8424 0.70312-1.0957-0.38893-0.26514-0.47266-0.62391-0.47266-0.83008 0-0.57162 0.51239-1.043 1.4258-1.043zm-6.916 0.052734h0.97852v2.5703h0.71289v0.64844h-0.71289v0.87109h-0.72461v-0.87109h-1.9629v-0.51367l1.709-2.7051zm6.916 0.5957c-0.40071 0-0.67188 0.22926-0.67187 0.45312 0 0.33593 0.49025 0.48402 0.83203 0.57813 0.38893-0.21791 0.56445-0.35432 0.56445-0.54883 0-0.32419-0.34157-0.48242-0.72461-0.48242zm-6.6621 0.19531-0.082031 0.17578-1.0137 1.6035h1.0957v-1.6035-0.17578zm6.5859 1.2129c-0.53036 0.1472-0.83594 0.48246-0.83594 0.80078 0 0.3418 0.35977 0.67188 0.97852 0.67188 0.55982 0 0.88281-0.30068 0.88281-0.64844 0-0.4713-0.47146-0.68289-1.0254-0.82422z" color="#000000" color-rendering="auto" fill="#bebebe" image-rendering="auto" shape-rendering="auto" solid-color="#000000" style="isolation:auto;mix-blend-mode:normal"/>
</svg>
