<svg width="16" height="16" version="1.1" xmlns="http://www.w3.org/2000/svg" xmlns:xlink="http://www.w3.org/1999/xlink">
	<path d="m9.7937 1.0001c-0.65802 1.4486-1.1567 2.9389-1.4875 4.4406-0.17172 0.13666-0.34621 0.26434-0.525 0.39375-2.0397 1.4764-4.4865 2.4411-6.7812 2.3844v1.0937c2.0306 0.1917 3.3814 0.53534 4.301 1.7583 0.90951 1.2096 1.4187 2.4056 1.4187 3.9291h0.7c0-1.519-0.65908-3.3233-1.55-4.3448-0.88044-1.0094-1.9924-1.477-3.4916-1.8239 2.0049-0.26843 3.9956-1.1599 5.7093-2.3844-0.49424 2.8701-0.41368 5.7847 0.19687 8.5531h4.8343c-2.4156-2.1902-3.4606-6.1162-3.4562-9.8218 1.3621-1.268 2.4207-2.7218 2.975-4.1781h-0.74374c-0.46086 1.0667-1.2333 2.1614-2.2094 3.1719 0.059428-1.1165 0.23754-2.1851 0.48125-3.1719z" fill="#bebebe"/>
</svg>
