<svg width="16" height="16" version="1.1" xmlns="http://www.w3.org/2000/svg">
	<path d="m8 1c-3.878 0-7 3.122-7 7s3.122 7 7 7 7-3.122 7-7-3.122-7-7-7zm0 2a5 5 0 0 1 5 5 5 5 0 0 1-3.0996 4.6211 2 2 0 0 1-1.9004 1.3789 2 2 0 0 1-1.8984-1.377 5 5 0 0 1-3.1016-4.623 5 5 0 0 1 5-5zm-3.3535 5.002c-0.19852-0.00694-0.39861 0.00954-0.59375 0.050781-0.1649 0.7805 0.055909 1.6266 0.66211 2.2324 0.6062 0.607 1.4519 0.82711 2.2324 0.66211 0.16497-0.7805-0.055939-1.6263-0.66211-2.2324-0.45457-0.45463-1.0431-0.69207-1.6387-0.71289zm6.707 0c-0.59557 0.020822-1.1841 0.25826-1.6387 0.71289-0.60617 0.60617-0.82708 1.4519-0.66211 2.2324 0.78055 0.16496 1.6263-0.05594 2.2324-0.66211 0.60617-0.60619 0.82706-1.4519 0.66211-2.2324-0.19514-0.04124-0.39523-0.057722-0.59375-0.050781z" fill="#bebebe"/>
</svg>
