<svg width="16" height="16" version="1.1" xmlns="http://www.w3.org/2000/svg">
	<path d="m4.1875 5.1875c-0.096 0.0532-0.1157 0.21646-0.0625 0.3125l0.9375 1.6875c-1.8217 0.9479-3.06 2.7451-3.0625 4.8125h12c-2e-3 -2.0674-1.2408-3.8646-3.0625-4.8125l0.9375-1.6875c0.0532-0.0962 0.0337-0.2592-0.0625-0.3125-0.036-0.02-0.0886-3e-3 -0.125 0-0.0606 6e-3 -0.0918 0.065-0.125 0.125l-1 1.6875c-0.78466-0.34806-1.6337-0.5625-2.5625-0.5625-0.92876 0-1.8403 0.2144-2.625 0.5625l-0.9375-1.6875c-0.0334-0.06-0.0642-0.1204-0.125-0.125-0.01-6.4e-4 -0.0535-6.4e-4 -0.0625 0 0.028 0-0.0355-0.0156-0.0625 0zm1.3125 3.5625c0.41421 0 0.75 0.33579 0.75 0.75s-0.33579 0.75-0.75 0.75-0.75-0.33579-0.75-0.75 0.33579-0.75 0.75-0.75zm5 0c0.41421 0 0.75 0.33579 0.75 0.75s-0.33579 0.75-0.75 0.75-0.75-0.33579-0.75-0.75 0.33579-0.75 0.75-0.75zm-8.5 4.25v2h12v-2z" fill="#bebebe"/>
</svg>
