<svg width="16" height="16" version="1.1" xmlns="http://www.w3.org/2000/svg">
	<path d="m5.0332 1-0.025391 0.65234c-0.017916 0.35485-0.0011434 0.66186 0.033203 0.94141-1.3198 0.4965-2.3074 1.4141-2.9688 2.5586-1.0165 1.7592-1.285 4.0341-0.91016 6.0957a0.076306 0.076306 0 0 0 0 0.001953s0.42694 1.9485 2.6133 2.6504a0.076306 0.076306 0 0 0 0.091797-0.10547c-2.013-4.1949-1.6113-7.1807-0.2168-9.0234 0.43912-0.58025 0.98437-1.0346 1.5801-1.3906 0.030907 0.07903 0.059358 0.16191 0.095703 0.23242 0.23558 0.45702 0.57341 0.71847 0.92773 0.8457 0.68248 0.20944 1.269-0.13203 1.8164-0.30859 0.52203 0.1916 0.66077 0.27133 1.5547 0.69727l-0.023438 0.43555v0.24023l0.21875 0.074219s1.9284 0.72421 3.4199 2.0547c-0.06176 0.10336-0.17303 0.19059-0.21875 0.29102-0.02855 0.062726-0.026908 0.066033-0.048828 0.12109-1.4659-0.75779-2.6495-0.86026-3.4687-0.67773-0.68466 0.15254-0.90905 0.39753-1.0762 0.5332-0.095369-0.073479-0.41018-0.2969-0.63477-0.67773-0.12891-0.2186-0.20001-0.43992-0.16992-0.6543 0.030092-0.21438 0.14311-0.45799 0.51172-0.72461l0.44141-0.31445-0.49023-0.21875c-0.3122-0.13742-0.95117-0.45898-0.95117-0.45898l-0.2207-0.12109-0.14648 0.16992c-0.54608 0.61093-0.78196 1.233-0.75781 1.7891 0.02415 0.55604 0.27784 1.0275 0.58594 1.4043 0.61619 0.7536 1.4902 1.1855 1.4902 1.1855l0.14648 0.072266 0.17188-0.097656c2.1576-1.3737 5.0078 0.46094 5.0078 0.46094l0.39062 0.26562 0.074219-0.45898c0.247-1.3105 0.90234-1.9609 0.90234-1.9609l0.2207-0.2168-0.19531-0.21875c-0.6361-0.73998-1.6089-1.3729-2.418-1.8379-0.68582-0.39414-1.0853-0.556-1.2461-0.62891l0.023437-0.26562 0.025391-0.14648-0.12305-0.12109c-0.60104-0.54014-1.62-0.85853-2.6875-1.2578-0.26018-0.097312-0.50884-0.21155-0.76758-0.31641 0.6289-0.076211 1.261-0.067479 1.8594 0.050781a0.076306 0.076306 0 0 0 0.033203-0.14844c-0.72353-0.166-1.4171-0.27462-2.0469-0.2832-0.23564-0.0032124-0.45755 0.015958-0.67969 0.033203-0.48521-0.23418-0.92438-0.49206-1.2559-0.78711l-0.48828-0.43555zm-0.9707 5.8457a0.076306 0.076306 0 0 0-0.041016 0.027344s-0.12363 0.14714-0.25 0.44922c-0.12637 0.30208-0.26039 0.76344-0.29688 1.4043-0.072965 1.2817 0.24624 3.2801 1.7891 6.168a0.076306 0.076306 0 0 0 0.048828 0.039063s0.40248 0.10117 0.82422 0.054687c0.21087-0.023239 0.42862-0.082416 0.60352-0.21875 0.1749-0.13633 0.30133-0.35068 0.32227-0.6543a0.076306 0.076306 0 0 0-0.029297-0.066406c-2.0357-1.5855-2.7514-3.3605-2.9629-4.7422-0.21147-1.3817 0.082031-2.3633 0.082031-2.3633a0.076306 0.076306 0 0 0-0.082031-0.097656 0.076306 0.076306 0 0 0-0.0078125 0z" fill="#bebebe"/>
</svg>
