<svg width="16" height="16" version="1" xmlns="http://www.w3.org/2000/svg">
	<path d="m6.5578 1.9958c-0.69942 1.632-0.16849 2.6228 0.0198 3.3131l1.1058-0.1473c-0.23385-0.8574-0.63726-1.843-0.0703-3.1658zm8.4422 2.7437c-1.8291 0-3.588 0.35176-5.8392 1.196l0.77387 0.70351c1.1256-0.5628 2.9548-1.196 5.0653-1.196zm-14 0.63316v0.91458c0.70351 0.21105 2.2513 0.4221 3.6583 0.4221l0.14071-0.77386c-1.4022-0.0547-2.4623-0.21106-3.799-0.56282zm8.2378 2.4513-0.92117 0.85522c2.4623 1.196 4.4322 2.8844 5.5578 5.1357l0.84422-1.1256c-1.1146-1.6719-2.8141-3.3769-5.4808-4.8653zm-3.8584 0.33198c-0.14134 4e-3 -0.28683 0.0138-0.4397 0.0308-0.43217 0.048-0.7629 0.14721-1.1256 0.2814-0.2459 0.091-0.42524 0.17918-0.70352 0.35176-0.27827 0.17258-0.56281 0.4221-0.56281 0.4221l0.84422 0.84423s0.40418-0.29726 0.63317-0.42211c0.22897-0.12484 0.5364-0.17773 0.76288-0.20446 0.58423-0.069 1.1475 0.0489 1.418 0.27481 0.2885 0.24087 0.40801 0.41172 0.42211 1.0553-0.26008-0.0106-0.51642 8e-3 -0.80905 0.0154-0.2615 7e-3 -0.80154 0.0195-1.0201 0.055-0.58223 0.0945-1.2046 0.18511-1.8116 0.5804-0.3234 0.21062-0.5928 0.53706-0.73209 0.89698-0.15682 0.40519-0.19475 0.88523-0.0704 1.3015 0.1295 0.43338 0.41977 0.85502 0.80465 1.0926 0.73959 0.29284 1.7144 0.36494 2.4161 0.12091 0.39128-0.1412 0.6952-0.26691 1.0487-0.67713 0.0572-0.0665 0.10205-0.17257 0.17368-0.2902v0.98492h1.4774v-4.01c-0.0164-0.87539-0.36464-1.663-0.98492-2.1809-0.60445-0.40787-1.1288-0.53735-1.7412-0.52324zm1.1014 3.733c0.0281 2.1e-4 0.0518-4.2e-4 0.0792 0-6.4e-4 9e-3 -2e-3 0.0169-2e-3 0.0264 0 0 0.0793 1.1475-0.55183 1.5433-0.63109 0.39585-0.9058 0.40222-1.3675 0.32318-0.32199-0.0551-0.69426-0.23023-0.82443-0.52984-0.10448-0.24047-0.022-0.56821 0.1407-0.77387 0.25404-0.32123 0.72611-0.40235 1.1256-0.49246 0.36619-0.0826 0.92918-0.0998 1.4004-0.0967z" color="#000000" fill="#bebebe" style="text-decoration-line:none;text-indent:0;text-transform:none"/>
</svg>
