<svg width="16" height="16" version="1.1" xmlns="http://www.w3.org/2000/svg">
	<path d="M 8.4414062 3 C 8.3879063 3 8.2029037 3.3364431 7.9960938 3.8144531 C 7.5635537 4.8142011 7.51455 4.8847656 7.21875 4.8847656 C 6.92176 4.8847656 6.8740525 4.9504687 6.4453125 5.9804688 C 6.1141025 6.7761288 5.8488337 7.1697981 5.6835938 7.1113281 C 5.5484937 7.0635281 5.3865044 6.53805 5.1152344 5.28125 C 4.8273544 3.94742 4.7196775 3.6523438 4.5234375 3.6523438 C 4.3640975 3.6523438 4.2774712 3.8258219 3.8945312 4.9199219 C 3.3637213 6.4366219 3.0772794 6.9469594 2.5996094 7.2246094 C 2.3668094 7.3599694 1.7760981 7.5370836 1.3300781 7.6035156 C 1.1300481 7.6333156 1 7.6870065 1 7.7421875 C 1 7.8058765 1.1845512 7.8475193 1.6132812 7.8789062 C 2.3777413 7.9348763 3.0255125 8.1377113 3.2578125 8.3945312 C 3.4594625 8.6174313 3.548235 8.9206244 3.671875 9.8027344 C 3.854855 11.108174 4.2042525 11.700358 4.5390625 11.273438 C 4.5962925 11.200437 4.8408612 10.643333 5.0820312 10.033203 C 5.6032912 8.7145531 5.8574231 8.2337861 6.0644531 8.1738281 C 6.3710731 8.0850281 6.4884 8.4320844 6.5625 9.6464844 C 6.6044 10.333484 6.705485 10.602499 6.828125 10.349609 C 6.928505 10.142639 7.0731406 10.286062 7.2128906 10.732422 C 7.3968206 11.319892 7.4239469 11.361656 7.6542969 11.416016 C 7.7664669 11.442486 7.8836625 11.492234 7.9140625 11.527344 C 7.9444925 11.562464 8.0097469 11.841938 8.0605469 12.148438 C 8.1113669 12.454937 8.1849563 12.772276 8.2226562 12.853516 C 8.3222263 13.068216 8.5265219 13.041574 8.6074219 12.802734 C 8.6445419 12.693134 8.7001687 11.980473 8.7304688 11.220703 C 8.7873688 9.7948631 8.8498787 9.4239556 9.1054688 9.0097656 C 9.1780088 8.8922056 9.32794 8.7424584 9.4375 8.6777344 C 9.54705 8.6130144 9.7311463 8.4647963 9.8476562 8.3476562 C 9.9901163 8.2044363 10.080447 8.1578623 10.123047 8.2070312 C 10.157947 8.2472412 10.210734 8.6007875 10.240234 8.9921875 C 10.328724 10.166248 10.368583 10.314884 10.533203 10.083984 C 10.568723 10.034154 10.660328 9.6509919 10.736328 9.2324219 C 10.879118 8.4461819 10.990942 8.1464844 11.138672 8.1464844 C 11.185712 8.1464844 11.315817 8.3904731 11.429688 8.6894531 C 11.681817 9.3515031 11.794119 9.3885037 11.980469 8.8710938 C 12.134049 8.4446438 12.267481 8.4062587 12.369141 8.7617188 C 12.512171 9.2617887 12.745212 9.2179238 12.951172 8.6523438 C 13.154072 8.0952537 13.476055 7.9404106 14.453125 7.9316406 C 14.930215 7.9273806 15.089542 7.8510763 14.951172 7.6914062 C 14.913312 7.6477213 14.546836 7.5883078 14.134766 7.5585938 C 13.068056 7.4816937 12.767102 7.2818581 12.232422 6.2988281 C 12.047952 5.9596781 11.857994 5.6644571 11.808594 5.6425781 C 11.664134 5.5786081 11.56866 5.7542556 11.4375 6.3222656 C 11.36986 6.6151956 11.284647 6.8894186 11.248047 6.9316406 C 11.142187 7.0538006 11.015398 6.8835731 10.861328 6.4082031 C 10.714558 5.9553231 10.555682 5.728667 10.445312 5.8125 C 10.408603 5.84038 10.305797 6.0470575 10.216797 6.2734375 C 9.9794669 6.8770075 9.5782744 7.0845437 9.3027344 6.7460938 C 9.0573144 6.4445937 8.8267194 5.3955156 8.6933594 3.9785156 C 8.6330194 3.3375056 8.5458063 3 8.4414062 3 z" fill="#bebebe"/>
</svg>
