<svg width="16" height="16" version="1.1" xmlns="http://www.w3.org/2000/svg">
	<path d="m3 1c-0.554 0-1 0.446-1 1v1h12c0-0.554-0.446-1-1-1h-6c0-0.554-0.446-1-1-1h-3zm-0.5 3c-0.831 0-1.5 0.669-1.5 1.5v4.5 1.5c0 0.831 0.669 1.5 1.5 1.5h3.9238a5 5 0 0 1-0.42383-2 5 5 0 0 1 5-5 5 5 0 0 1 4 2.0098v-2.5098c0-0.831-0.669-1.5-1.5-1.5h-11zm8.5723 3a4 4 0 0 0-3.3984 1.7773 4 4 0 0 0 0.15234 4.6582 4 4 0 0 0 4.459 1.3516 4 4 0 0 0 2.7148-3.7871h-4l1.0352-3.8633a4 4 0 0 0-0.96289-0.13672z" fill="#bebebe"/>
</svg>
