<svg height="16" width="16" xmlns="http://www.w3.org/2000/svg">
	<path d="m8.5859 2.0059c-.25562-.0000001-.51116.0971-.70703.29297-.39174.39174-.40299 1.0339 0 1.4141l1.3652 1.2871h-5.2441c-.277.0000002-.52628.11027-.70703.29102s-.29297.43198-.29297.70898c.0000002.554.446 1 1 1h2.0078l-.0039063.0078125c-.086482.045793-.17419.090022-.24609.16406l-4.4648 4.5957c-.38596.39743-.39174 1.0223 0 1.4141.39174.39174 1.0332.40234 1.4141 0l2.3496-2.4805c.15033 1.0723.64418 2.0668 1.4082 2.834 1.9526 1.9526 5.1177 1.9526 7.0703 0 1.9513-1.9528 1.9501-5.1163-.001953-7.0684l-4.2422-4.166c-.19587-.19587-.44946-.29492-.70508-.29492zm1.4141 4.4941a3.5 3.5 0 0 1 3.5 3.5 3.5 3.5 0 0 1 -3.5 3.5 3.5 3.5 0 0 1 -3.5-3.5 3.5 3.5 0 0 1 3.5-3.5zm0 1.5a2 2 0 0 0 -2 2 2 2 0 0 0 2 2 2 2 0 0 0 2-2 2 2 0 0 0 -2-2z" fill="#bebebe"/>
</svg>
