<svg width="16" height="16" version="1.1" xmlns="http://www.w3.org/2000/svg">
	<path d="m8 1c-0.554 0-1 0.446-1 1v5c0 0.554 0.446 1 1 1s1-0.446 1-1v-5c0-0.554-0.446-1-1-1zm-3.0625 0.78125c-0.15536 0.0169-0.30656 0.0709-0.4375 0.15625-1.0599 0.61135-1.948 1.5044-2.5625 2.5625-1.9357 3.3328-0.77031 7.6268 2.5625 9.5625s7.6268 0.77031 9.5625-2.5625c0.28926-0.45976 0.11195-1.1471-0.36328-1.4102-0.47523-0.26308-1.1507-0.047844-1.3867 0.44141-1.3928 2.3981-4.4456 3.1741-6.8438 1.7812s-3.1741-4.4456-1.7812-6.8438c0.43899-0.75585 1.0553-1.3758 1.8125-1.8125 0.3994-0.21732 0.61112-0.73051 0.48047-1.166-0.13066-0.43552-0.5899-0.7474-1.043-0.70898zm6.1875 0.03125c-0.38673-0.048-0.79289 0.14128-1 0.5-0.27614 0.47829-0.10329 1.0676 0.375 1.3438s1.0989 0.13454 1.375-0.34375 0.10329-1.0989-0.375-1.375c-0.11957-0.069-0.24609-0.109-0.375-0.125zm1.9375 2.1875c-0.12891 0.016-0.25543 0.056-0.375 0.125-0.47829 0.27614-0.61989 0.89671-0.34375 1.375s0.86546 0.65114 1.3438 0.375 0.65114-0.89671 0.375-1.375c-0.20711-0.35872-0.61327-0.54799-1-0.5zm0.9375 3c-0.55228 0-1 0.44772-1 1s0.44772 1 1 1 1-0.44772 1-1-0.44772-1-1-1z" fill="#bebebe"/>
</svg>
