<svg width="16" height="16" version="1.1" xmlns="http://www.w3.org/2000/svg">
	<path d="m3.2052 14.372s0.84356 0.24233 1.9664 0.38086c0.45474 0.05611 2.1849 0.25219 3.5115 0.24704 0 0 1.6156 0.0019 2.5075-0.12352 0.93315-0.13114 1.4618-0.29851 1.756-0.63251 0.0077-0.07963 0.14201-0.33923-0.22071-0.58957-0.92734-0.64002-2.1262-0.8152-4.4548-1.3623-2.575-0.6405-3.3445-1.2538-3.729-1.6977-0.36448-0.44485 0.068416-1.3687 2.1433-1.8219 1.0505-0.25292 4.9632-0.29939 4.9632-0.29939-1.1225-0.88172-3.2299-2.4603-3.6607-2.796-0.3778-0.29443-0.98661-0.74625-1.0521-1.15-0.088285-0.39304 0.53706-0.58229 0.86813-0.60412 1.0668-0.072787 2.5235 0.05095 3.8183 0.3057 0.65086 0.12805 0.76513 0.10918 0.76513 0.10918 0.92699 0.043672 1.648-0.43672 1.6112-1.4484-0.0073-1.0263-1.0445-1.8492-2.1924-1.8852-1.081-0.033851-3.7447 0.15285-3.7447 0.15285 3.1047 0.63324 3.6122 0.79484 3.7742 1.1646 0.095641 0.21836-0.15976 0.43546-1.0153 0.39304-0.93138-0.046179-2.8398-0.26931-2.8398-0.26931-1.8172-0.27659-3.0826-0.53862-3.6344 0.17469-0.36048 0.46601 0.051498 1.0336 0.21335 1.3684 0.72099 1.2446 1.9677 2.0986 2.7589 2.7004 0.29768 0.22643 1.2066 0.72786 1.2066 0.72786-2.8251-0.76425-5.0764-0.33482-6.5036 0.4076-1.6406 0.96077-1.36 2.5821 1.2433 4.0978 1.5376 0.89527 2.3032 1.3253 4.8208 1.6311 1.4716 0.23214 1.6908 0.32712 1.6796 0.4483-0.01575 0.17061-1.7417 0.23526-2.2161 0.26763-1.2069 0.08235-4.3282 0.10294-4.3438 0.10294z" fill="#bebebe"/>
</svg>
