<svg width="16" height="16" version="1.1" xmlns="http://www.w3.org/2000/svg">
	<path d="m2 1c-0.55404 0-1 0.44641-1 1.002v8.9961c0 0.55557 0.44593 1.002 1 1.002h4a1.0001 1.0001 0 0 1 0.013672-0.16211c0.11516-0.69027 0.41175-1.3029 0.81445-1.8379h-3.8281v-2l3-4 2 3 1-1 2 2.002h0.001953c1.5894 0.0017647 3.0582 0.67549 3.998 1.7715v-7.7715c0-0.55557-0.44593-1.002-1-1.002h-12zm9.5 1.9961c0.82806 0 1.5 0.67321 1.5 1.5039s-0.67195 1.5039-1.5 1.5039c-0.82805 0-1.5-0.67321-1.5-1.5039 0-0.83074 0.67195-1.5039 1.5-1.5039zm-0.5 6.0059a4.0454 3.5 0 0 0-4 3 4.0454 3.5 0 0 0 4 3 4.0454 3.5 0 0 0 4-2.998 4.0454 3.5 0 0 1 0-0.001953 4.0454 3.5 0 0 0 0-0.001953 4.0454 3.5 0 0 0-4-2.998zm0 1a2 2 0 0 1 2 2 2 2 0 0 1-2 2 2 2 0 0 1-2-2 2 2 0 0 1 2-2zm0 1a1 1 0 0 0-1 1 1 1 0 0 0 1 1 1 1 0 0 0 1-1 1 1 0 0 0-1-1z" fill="#bebebe"/>
</svg>
