<svg width="16" height="16" version="1.1" xmlns="http://www.w3.org/2000/svg">
	<path d="M 5.5605469 5.0019531 C 5.2500869 5.0040531 5.0008794 5.0533387 4.7246094 5.1679688 C 4.4528094 5.2807187 3.7936756 5.6693381 3.2285156 6.0488281 C 2.1582756 6.7673981 1.8886856 6.9039625 1.2285156 7.0703125 C 1.1030056 7.1019425 1 7.1380906 1 7.1503906 C 1 7.2179706 1.147605 7.541795 1.265625 7.734375 C 1.713825 8.465875 2.5045875 9.2349206 3.3671875 9.7753906 C 4.5541875 10.519061 6.0172719 10.936146 7.6386719 10.994141 C 8.6575719 11.030601 9.8021562 10.893653 10.722656 10.626953 C 12.330156 10.161253 13.771357 9.1701438 14.591797 7.9648438 C 14.761897 7.7149738 14.955212 7.3418075 14.982422 7.2109375 L 15 7.1289062 L 14.798828 7.0820312 C 14.198728 6.9439413 13.825096 6.7533437 12.978516 6.1523438 C 12.518416 5.8256838 11.945264 5.4890325 11.458984 5.2578125 C 10.858284 4.9722025 10.268868 4.9244813 9.6796875 5.1132812 C 9.4606775 5.1834612 9.0076925 5.3986194 8.7265625 5.5683594 C 8.5417925 5.6799194 8.3385175 5.7714641 8.2109375 5.7988281 C 8.0268275 5.8382981 7.8716156 5.7884194 7.1972656 5.4746094 C 6.3722956 5.0907144 6.0519369 4.9986031 5.5605469 5.0019531 z M 8.0117188 7.2695312 C 9.0480187 7.2712512 9.5270406 7.3392538 10.681641 7.6523438 C 10.993531 7.7369117 11.296466 7.8142587 11.353516 7.8242188 C 11.410516 7.8341748 11.457031 7.8507791 11.457031 7.8613281 C 11.457031 7.8866481 10.809463 8.1840863 10.533203 8.2851562 C 10.046403 8.4632462 9.5113669 8.594547 8.9667969 8.671875 C 8.6885969 8.711262 7.7078625 8.7433031 7.4453125 8.7207031 C 6.7787125 8.6633931 6.0717013 8.5037281 5.4257812 8.2675781 C 5.0774412 8.1402181 4.5410156 7.8991826 4.5410156 7.8691406 C 4.5410156 7.8559986 4.6178046 7.836825 4.7128906 7.828125 C 4.8079806 7.819465 5.1684319 7.73535 5.5136719 7.640625 C 6.6305719 7.334145 7.0791787 7.2679013 8.0117188 7.2695312 z " fill="#bebebe"/>
</svg>
