<svg width="16" height="16" version="1.1" xmlns="http://www.w3.org/2000/svg">
	<path d="m1.0025 1.0028c-0.023488 0.023526 0.11938 0.31226 0.31638 0.63993 0.19701 0.32767 0.41274 0.87331 0.48043 1.2133 0.067684 0.34002 0.19488 0.97757 0.28123 1.4169 0.34009 1.7302 0.89429 2.6495 1.7264 2.8611 0.21972 0.05587 0.76823 0.13509 1.2186 0.17417 0.86967 0.075479 1.7342 0.41508 1.7342 0.68299 0 0.27842-0.85541 0.6248-1.7284 0.7006-0.45351 0.039378-1.0155 0.12073-1.2479 0.18004-0.82086 0.20943-1.3613 1.117-1.703 2.8552-0.086343 0.43929-0.21354 1.0768-0.28123 1.4169-0.067684 0.34002-0.28342 0.88761-0.48043 1.2153-0.197 0.32768-0.33987 0.61445-0.31638 0.63798 0.023488 0.02353 0.27408-0.10432 0.55659-0.28376 0.59016-0.37485 0.89854-0.47275 2.2225-0.70452 1.0899-0.1908 2.0769-0.49853 2.574-0.80432 0.56647-0.3485 0.77613-0.81446 0.8925-1.9785 0.11037-1.104 0.43985-2 0.73431-2 0.0057 0 0.011777 0.00515 0.017577 0.00587 0.00575-7.251e-4 0.011876-0.00587 0.017577-0.00587 0.29446 0 0.62395 0.89607 0.73431 2 0.11638 1.1641 0.32604 1.63 0.8925 1.9785 0.49706 0.3058 1.4841 0.61353 2.574 0.80432 1.3239 0.23177 1.6323 0.32966 2.2225 0.70452 0.28252 0.17945 0.53311 0.30729 0.5566 0.28376 0.02349-0.02353-0.11938-0.3103-0.31638-0.63798-0.19701-0.32768-0.41275-0.87526-0.48043-1.2153-0.06769-0.34002-0.19488-0.97757-0.28123-1.4169-0.34168-1.7383-0.88212-2.6458-1.703-2.8552-0.23249-0.059317-0.79443-0.14066-1.2479-0.18004-0.87296-0.075802-1.7284-0.42219-1.7284-0.7006 0-0.26791 0.86456-0.60751 1.7342-0.68299 0.45043-0.039091 0.99893-0.1183 1.2186-0.17417 0.83213-0.2116 1.3863-1.131 1.7264-2.8611 0.08634-0.43929 0.21354-1.0768 0.28123-1.4169 0.06768-0.34002 0.28342-0.88566 0.48043-1.2133 0.197-0.32767 0.33987-0.61641 0.31638-0.63993-0.02349-0.023525-0.27408 0.10432-0.5566 0.28376-0.5876 0.37323-0.90068 0.4739-2.1951 0.7006-1.8588 0.32554-2.8823 0.78378-3.2243 1.4462-0.092662 0.17947-0.21493 0.79054-0.27146 1.3562-0.10778 1.0784-0.43763 1.9863-0.7226 1.9863-0.00883 0-0.018389-0.00809-0.027342-0.00979-0.00895 0.0017-0.018542 0.00979-0.027342 0.00979-0.28496 0-0.61481-0.90793-0.7226-1.9863-0.056533-0.56565-0.1788-1.1767-0.27146-1.3562-0.34202-0.66243-1.3655-1.1207-3.2243-1.4462-1.2945-0.2267-1.6075-0.32737-2.1951-0.7006-0.28252-0.17945-0.53311-0.30729-0.55659-0.28376z" fill="#bebebe"/>
</svg>
