<svg width="16" height="16" version="1.1" xmlns="http://www.w3.org/2000/svg">
	<path d="m9.5423 2.8788c0.34439 0.065799 0.63419 0.14233 0.87125 0.24593 0.36632 0.1568 0.59965 0.36819 0.71072 0.60712-0.33926-0.060199-0.62905-0.045732-0.90065 0.056465 1.9376 0.73825 2.8475 1.6207 2.7397 2.6357-0.14046-0.2114-0.33179-0.35746-0.56885-0.42652 0.29726 1.112 0.32246 2.0253 0.08587 2.7491-0.16426-0.48299-0.32246-0.76018-0.45406-0.86238 0.18573 1.491-0.0658 2.5904-0.76018 3.3086 0.13486-0.43912 0.18246-0.79845 0.15306-1.0808-0.81665 1.1811-1.7462 1.7901-2.7873 1.8302-0.41019-0.0056-0.80218-0.05646-1.1666-0.17126-0.53759-0.17313-1.0192-0.47926-1.4508-0.90065 0.67245 0.05273 1.287-0.05833 1.8302-0.32246l0.8913-0.5596c0.0182-0.0126 0.038266-0.0182 0.056465-0.027533 0.00933-0.0056 0.018199-0.0056 0.029399-0.00933 0.082132-0.029399 0.1568-0.0182 0.23706 0.0182 0.0182-0.00187 0.029399-0.0056 0.047599-0.00933 0.00187 0 0.0056-0.00187 0.00933 0 0.025666-0.0056 0.054599-0.010733 0.074665-0.020066 0.090998-0.025666 0.1806-0.090998 0.12413-0.27346-0.1003-0.1205-0.2459-0.2553-0.503-0.3701-0.4429-0.2226-0.9114-0.2371-1.3925 0.104-0.4611 0.2516-0.897 0.239-1.3272-0.0294-0.2842-0.1857-0.5614-0.4428-0.826-0.7583l-0.094731-0.14233v-0.00933c0.0126-0.31173 0.133-0.47412 0.39012-0.51239 0.28979 0.025666 0.63092 0.085865 1.0042 0.18946 0.062065-0.34626-0.020066-0.70745-0.24593-1.0808v-0.036399c0.021933-0.021933 0.043866-0.038266 0.065799-0.058332 0.00373 0.00933 0.0056 0.021933 0.00933 0.029399 0.2408-0.244 0.5269-0.4377 0.8349-0.6253 0.00187-0.00373-0.00187-0.00747 0-0.00933 0.00373-0.00373 0.0056-0.00747 0.00933-0.010733l0.00933 0.010733c0.074665-0.048999 0.16426-0.096598 0.20066-0.26599 0.0056-0.0126 0.010733-0.016333 0.027533-0.0182 0.063932-0.126 0.00187-0.1694-0.074665-0.22773-0.1988 0.00187-0.35746-0.00187-0.59779-0.029399-0.025666-0.0056-0.052732-0.00373-0.076532-0.00933-0.0056-0.00187-0.0126-0.00747-0.0182-0.00933-0.0891-0.0293-0.1969-0.1021-0.3317-0.2276l-0.3701-0.3519-0.1129-0.084c-0.00747 0.0182-0.0056 0.038266-0.010733 0.056465l-0.0276-0.0294-0.104-0.133 0.0093-0.0476c0.0439-0.2992 0.1913-0.5376 0.3117-0.7677 0.133-0.2095 0.3864-0.441 0.7583-0.6818-0.6906 0.0822-1.3108 0.3846-1.8666 0.9007-0.461-0.1624-1.0117-0.1274-1.6408 0.104-0.3901-0.1787-0.3737-0.419-0.5011-1.2324-2.3207 2.4808-2.352 6.207-0.5124 8.8995 1.3925 1.7406 3.1443 2.6651 5.2518 2.7892 4.898 0.21886 8.1063-4.0048 7.319-8.2869-0.0182-0.33926-0.43586-1.8102-1.2049-2.8046 0.13673 0.51426 0.14746 1.0808 0.15306 1.3743-0.288-0.9757-1.089-1.7848-2.248-2.1241-0.571-0.1657-1.254-0.2534-2.0378-0.2753" fill="#bebebe"/>
</svg>
