<svg width="16" height="16" version="1.1" xmlns="http://www.w3.org/2000/svg">
	<path d="m3.5 1c-0.831 0-1.5 0.669-1.5 1.5v1.5h2v-0.5c0-0.277 0.223-0.5 0.5-0.5h7c0.277 0 0.5 0.223 0.5 0.5v9c0 0.277-0.223 0.5-0.5 0.5h-9.5v0.5c0 0.831 0.669 1.5 1.5 1.5h9c0.831 0 1.5-0.669 1.5-1.5v-11c0-0.831-0.669-1.5-1.5-1.5zm-2 4c-0.277 0-0.5 0.223-0.5 0.5s0.223 0.5 0.5 0.5h2c0.277 0 0.5-0.223 0.5-0.5s-0.223-0.5-0.5-0.5zm6.5 0.29102c-0.84617 0-1.5234 0.63797-1.5234 1.4277 0.00186 0.084099 0.0076 0.20615 0.015625 0.30859-0.1447 0.061414-0.15603 0.34341-0.033203 0.63281 0.048704 0.11476 0.11205 0.2026 0.17969 0.27539 0.016432 0.081334 0.010937 0.11797 0.03125 0.21094 0.056674 0.17003 0.27997 0.50223 0.48633 0.77734 0.020235 0.21128 0.041227 0.42565 0 0.66602-0.59461 0.49332-2.1253 0.70413-2.123 1.2148l-0.033203 0.19531h6l-0.0332-0.19531c-0.002448-0.4371-1.5357-0.70413-2.123-1.2148-0.023762-0.1955-0.029655-0.39143-0.017578-0.58398 0.18804-0.29018 0.44078-0.66999 0.50391-0.85938 0.02269-0.095901 0.031118-0.16156 0.048828-0.24414 0.05635-0.068252 0.10302-0.14439 0.14453-0.24219 0.11668-0.27493 0.10974-0.53836-0.015626-0.61719 0.007501-0.11077 0.012375-0.22854 0.015626-0.32422 0-0.78976-0.67726-1.4277-1.5234-1.4277zm-6.5 1.709c-0.277 0-0.5 0.223-0.5 0.5s0.223 0.5 0.5 0.5h2c0.277 0 0.5-0.223 0.5-0.5s-0.223-0.5-0.5-0.5zm0 2c-0.277 0-0.5 0.223-0.5 0.5s0.223 0.5 0.5 0.5h2c0.277 0 0.5-0.223 0.5-0.5s-0.223-0.5-0.5-0.5zm0 2c-0.277 0-0.5 0.223-0.5 0.5s0.223 0.5 0.5 0.5h2c0.277 0 0.5-0.223 0.5-0.5s-0.223-0.5-0.5-0.5z" fill="#bebebe"/>
</svg>
