<svg width="16" height="16" version="1.1" xmlns="http://www.w3.org/2000/svg">
	<path d="m13.421 14.084c-0.78439 0.25775-1.5992 0.47481-2.4444 0.65116-0.84524 0.17636-1.7547 0.26454-2.7284 0.26454-1.0751 0-2.0455-0.14584-2.911-0.4375-0.85874-0.29844-1.5924-0.73594-2.201-1.3125-0.60856-0.58333-1.0751-1.3023-1.3997-2.157-0.32458-0.85466-0.48685-1.8416-0.48685-2.9608 0-2.3876 0.59504-4.1715 1.7851-5.3518 1.1968-1.187 2.9482-1.7805 5.2539-1.7805 0.87903 2e-5 1.7141 0.0542 2.5053 0.16279 0.7979 0.10854 1.5552 0.25776 2.272 0.44767v2.9302h-0.67957l-0.27384-1.689c-0.46657-0.33235-1.0278-0.58671-1.6837-0.76307-0.64914-0.18313-1.3355-0.2747-2.059-0.27472-0.79114 2e-5 -1.4978 0.11193-2.1198 0.33576-0.61532 0.21707-1.136 0.57317-1.562 1.0683-0.42599 0.49517-0.75396 1.1463-0.98385 1.9535-0.22314 0.8004-0.33472 1.7805-0.33472 2.9404 0 1.1734 0.13186 2.1536 0.39558 2.9404 0.26371 0.78004 0.6187 1.4041 1.065 1.8721 0.45304 0.46803 0.9737 0.80039 1.562 0.99711 0.59503 0.1967 1.2205 0.29506 1.8764 0.29506 0.33133 0 0.65927-0.0204 0.98386-0.0611 0.33132-0.0474 0.63898-0.10514 0.92298-0.17297 0.29075-0.0678 0.5477-0.14245 0.77085-0.22383 0.22312-0.0814 0.39894-0.1594 0.52742-0.23402v-3.7107l-1.7446-0.26454v-0.54941h5.0207v0.54941l-1.3287 0.26454v4.2703" fill="#bebebe"/>
</svg>
