<svg width="16" height="16" version="1.1" xmlns="http://www.w3.org/2000/svg">
 <path fill="#bebebe" d="m8 1a7 7 0 0 0 -7 7 7 7 0 0 0 7 7 7 7 0 0 0 7 -7 7 7 0 0 0 -7 -7zm0 2a5 5 0 0 1 2.2344 0.5332l-0.89258 1.7832a3 3 0 0 0 -1.3418 -0.31641 3 3 0 0 0 -1.3398 0.32031l-0.89453-1.791a5 5 0 0 1 2.2344 -0.5293zm-4.4668 2.7656 1.7832 0.89258a3 3 0 0 0 -0.31641 1.3418 3 3 0 0 0 0.32031 1.3398l-1.791 0.89453a5 5 0 0 1 -0.5293 -2.2344 5 5 0 0 1 0.5332 -2.2344zm8.9375 0a5 5 0 0 1 0.5293 2.2344 5 5 0 0 1 -0.5332 2.2344l-1.7832-0.89258a3 3 0 0 0 0.31641 -1.3418 3 3 0 0 0 -0.32031 -1.3398zm-4.4707 0.23438a2 2 0 0 1 2 2 2 2 0 0 1 -2 2 2 2 0 0 1 -2 -2 2 2 0 0 1 2 -2zm1.3398 4.6797 0.89453 1.791a5 5 0 0 1 -2.2344 0.5293 5 5 0 0 1 -2.2344 -0.5332l0.89258-1.7832a3 3 0 0 0 1.3418 0.31641 3 3 0 0 0 1.3398 -0.32031z"/>
</svg>
