<svg width="16" height="16" version="1.1" xmlns="http://www.w3.org/2000/svg">
	<path d="m5 1-4 11h2l2.1816-6h1l-2.1816 6h2l2.3809-6.5488 0.10352-0.45117c0-0.554-0.446-1-1-1h-1.5762l1.0918-3h-2zm5 3-4 11h2l1.0918-3h0.42383 1.4844 1c0.37175 0 0.68115-0.21024 0.85352-0.50977l0.007812 0.001954c4e-3 -0.009803 0.007699-0.017614 0.011719-0.027344 0.03288-0.06169 0.052778-0.12668 0.072265-0.19531 0.95144-2.3832 1.4092-4.1996 2.0547-6.2695 0-0.554-0.446-1-1-1h-2-0.48438-1.5156zm1.2734 2h0.24219 1.2871l-1.4414 4h-1.543l1.4551-4z" fill="#bebebe"/>
</svg>
