<svg width="16" height="16" version="1.1" xmlns="http://www.w3.org/2000/svg">
	<path d="m8 1c-0.25562 0-0.51116 0.099053-0.70703 0.29492l-2.293 2.293v5.9727l5.9863-5.9863-2.2793-2.2793c-0.19587-0.19587-0.45141-0.29492-0.70703-0.29492zm4.4004 3.9883-2.9785 2.9785 3.0117 3.0117 2.2715-2.2715c0.39174-0.39174 0.39174-1.0223 0-1.4141l-2.3047-2.3047zm-9.4004 0.59961-1.7051 1.7051c-0.39174 0.39174-0.39174 1.0223 0 1.4141l1.7051 1.7051v-4.8242zm5.0078 3.7949-3.0078 3.0059v0.023437l2.293 2.293c0.39174 0.39174 1.0223 0.39174 1.4141 0l2.3125-2.3125-3.0117-3.0098z" fill="#bebebe"/>
</svg>
