<svg width="16" height="16" version="1.1" xmlns="http://www.w3.org/2000/svg">
	<path d="m10.34 13.863c0-0.12988 0.04661-0.26665 0.10359-0.30393 0.23025-0.15066 0.07892-0.27422-0.33665-0.27488-0.38028-5.4e-4 -0.46428-0.04541-0.6167-0.32902-0.12178-0.22659-0.2563-0.32833-0.43413-0.32833-0.14172 0-0.28658-0.04953-0.32192-0.11008-0.03534-0.06054-0.16628-0.08306-0.29098-0.05004-0.14758 0.03909-0.35126-0.03734-0.5835-0.21894-0.43104-0.33706-0.5237-0.34713-0.5237-0.05693 0 0.1413-0.10353 0.26374-0.28467 0.33665-0.40685 0.16377-0.62608 0.40393-0.70175 0.76874-0.08668 0.41782-0.34186 0.41033-0.72926-0.02142-0.16733-0.18648-0.47752-0.43343-0.68929-0.54876-0.21883-0.11917-0.36355-0.26904-0.33523-0.34716 0.0274-0.07561-0.05189-0.18647-0.1762-0.24637-0.33037-0.15919-0.4974-0.55932-0.57094-1.3677-0.03436-0.37768-0.0031-0.52332 0.13555-0.63062 0.16602-0.12853 0.16233-0.13953-0.04675-0.13953-0.12483 0-0.22697-0.066385-0.22697-0.14751 0-0.19093-0.33425-0.51053-0.53393-0.51053-0.24441 0-0.60552-0.4784-0.60552-0.8022 0-0.37807 0.33593-0.73323 0.69354-0.73323 0.16095 0 0.40065 0.12321 0.56598 0.2909 0.24334 0.24683 0.31159 0.26911 0.4505 0.14705 0.13677-0.12018 0.22688-0.1094 0.54757 0.065538 0.21112 0.11517 0.57031 0.20939 0.7982 0.20939h0.41434l-0.03337-0.45061c-0.03216-0.43424 0.16558-1.0703 0.71454-2.2984 0.10962-0.24525 0.19931-0.54582 0.19931-0.66794 0-0.12212 0.13595-0.5137 0.30211-0.87018 0.16616-0.35648 0.37498-0.83686 0.46405-1.0675 0.14074-0.3645 0.19271-0.40828 0.3971-0.33466 0.12934 0.046586 0.33432 0.080509 0.45551 0.075373 0.32086-0.013594 0.81986-0.30146 0.7889-0.4551-0.02901-0.14397 0.50019-0.054685 0.59785 0.10086 0.02932 0.046702 0.14294 0.076115 0.2525 0.065368 0.1415-0.01388 0.22718 0.080996 0.2958 0.32756 0.05827 0.20935 0.18416 0.37197 0.31722 0.40978 0.40486 0.11503 0.77906 0.067539 0.87334-0.11084 0.08575-0.16224 0.09847-0.16224 0.15727 0 0.08723 0.24068 0.34129 0.22157 0.70558-0.053076 0.42482-0.32027 0.64999-0.20668 0.56304 0.28405-0.03715 0.20964-0.01785 0.47946 0.04288 0.5996 0.09399 0.18594 0.1794 0.20843 0.57414 0.15114l0.46373-0.067295v0.40421c0 0.22232 0.06948 0.54646 0.15439 0.72032 0.21775 0.44582 0.67139 1.9822 0.67297 2.2792 7.55e-4 0.13654-0.0548 0.3434-0.1234 0.4597-0.09793 0.16603-0.09522 0.33333 0.01264 0.77886 0.13407 0.55384 0.13111 0.57302-0.12361 0.80154-0.18079 0.1622-0.27781 0.38283-0.3158 0.71817-0.07755 0.68445-0.35471 1.0312-0.90342 1.1304-0.58441 0.10563-0.81676 0.3356-0.64067 0.63413 0.0701 0.11885 0.12746 0.26249 0.12746 0.3192 0 0.17759-0.34985 0.19676-0.65857 0.03607-0.16281-0.08474-0.40753-0.12444-0.54383-0.08822-0.20181 0.05363-0.24781 0.02355-0.24781-0.16206 0-0.12535 0.04662-0.19741 0.10359-0.16013 0.05697 0.03728 0.10742 0.0032 0.1121-0.07579 0.0047-0.07896 0.02984-0.28126 0.05589-0.44956 0.03052-0.19712-0.0278-0.41777-0.1639-0.62013-0.26535-0.39454-0.27248-0.53743-0.01449-0.29023 0.18768 0.17983 0.21147 0.17336 0.51401-0.13976 0.2032-0.21031 0.27209-0.3477 0.19166-0.38225-0.06906-0.02967-0.02232-0.05783 0.10386-0.06259 0.23408-0.00879 0.44388-0.29511 0.44388-0.60569 0-0.095024-0.18469-0.30801-0.41041-0.47332l-0.41041-0.30056-0.0039-1.1895c-0.0034-1.0299 0.02474-1.2321 0.20979-1.5073 0.23932-0.35583 0.19315-0.53863-0.13604-0.53863-0.21644 0-0.21683-0.00318-0.01978-0.16102 0.11326-0.090705 0.14453-0.16254 0.07159-0.16451-0.07122-0.00191-0.12948-0.055755-0.12948-0.11963 0-0.063886 0.04661-0.085644 0.10358-0.048364 0.05697 0.037279 0.10359-0.010715 0.10359-0.10664 0-0.095935-0.06992-0.20283-0.15538-0.23755-0.08546-0.034727-0.15538-0.13188-0.15538-0.21591 0-0.084024-0.04661-0.15278-0.10359-0.15278-0.05697 0-0.19598-0.097819-0.3089-0.21738-0.16595-0.17571-0.25661-0.19673-0.47288-0.10967-0.14716 0.059238-0.5496 0.10771-0.89431 0.10771-0.59847 0-0.64374 0.019683-1.0035 0.43642-0.32333 0.37451-2.36 3.6654-2.6908 4.348-0.18685 0.38546-0.08507 1.0269 0.19912 1.255 0.24654 0.19785 0.25219 0.19714 0.31836-0.040043 0.04621-0.16564 0.07061-0.18366 0.07769-0.057385 0.02185 0.3896 0.2975 0.50943 1.3543 0.58876 0.56931 0.04273 1.1101 0.13577 1.2018 0.20674 0.09167 0.07097 0.20954 0.37196 0.26193 0.66887 0.11727 0.66461 0.25567 0.81907 0.8036 0.89688 0.25052 0.03557 0.4286 0.11949 0.4286 0.20196 0 0.07761 0.03037 0.22491 0.0675 0.32734 0.05665 0.15631 0.03495 0.16779-0.13506 0.07146-0.11938-0.06765-0.26238-0.07564-0.34824-0.01945-0.12318 0.0806-0.11978 0.126 0.02204 0.29395 0.15614 0.18491 0.14692 0.22484-0.1336 0.57834-0.26649 0.33582-0.30132 0.35241-0.30132 0.14356zm-9.1966-3.2377c-0.10905-0.14047-0.16014-0.36221-0.13839-0.60068 0.0067-0.074008 0.12881-0.21541 0.27124-0.31422 0.23989-0.16642 0.27804-0.16642 0.51793 0 0.28216 0.19574 0.35418 0.68796 0.13466 0.92038-0.16279 0.17235-0.65003 0.16895-0.78544-0.0055zm7.8279-2.0954c-0.21886-0.23172-0.13826-0.51583 0.29086-1.0253l0.35064-0.41626 0.20824 0.25891c0.11453 0.1424 0.20824 0.32412 0.20824 0.40381 0 0.079693 0.14343 0.25303 0.31874 0.38519 0.41308 0.31142 0.29572 0.42115-0.53868 0.50364-0.53815 0.053203-0.70446 0.031371-0.83802-0.11004zm-0.49582-6.3254c0-0.14136 0.29512-0.26902 0.38992-0.16865 0.03862 0.04089 0.0017 0.12026-0.08216 0.17638-0.20052 0.13426-0.30776 0.13157-0.30776-0.00773z" fill="#bebebe"/>
</svg>
