<svg width="16" height="16" version="1.1" xmlns="http://www.w3.org/2000/svg">
	<path d="m3.5 1c-0.831 0-1.5 0.669-1.5 1.5v11c0 0.831 0.669 1.5 1.5 1.5h9c0.831 0 1.5-0.669 1.5-1.5v-5.5l-7-7h-3.5zm5.5 0 5 5v-3.5c0-0.831-0.669-1.5-1.5-1.5h-3.5zm-4.5 2h2.5l2.0664 2.0664a3 1 0 0 0-1.0664-0.066406 3 1 0 0 0-3 1v1a3 1 0 0 0 3 1 3 1 0 0 0 3-1l1 1v4.5c0 0.277-0.223 0.5-0.5 0.5h-7c-0.277 0-0.5-0.223-0.5-0.5v-9c0-0.277 0.223-0.5 0.5-0.5zm0.5 5v1a3 1 0 0 0 3 1 3 1 0 0 0 3-1v-1a3 1 0 0 1-3 1 3 1 0 0 1-3-1zm0 2v1a3 1 0 0 0 3 1 3 1 0 0 0 3-1v-1a3 1 0 0 1-3 1 3 1 0 0 1-3-1z" fill="#bebebe"/>
</svg>
