<svg width="16" height="16" version="1.1" xmlns="http://www.w3.org/2000/svg">
	<path d="m8.1211 1-0.59961 0.064453c-3.5605 0.38628-6.1251 2.874-6.4824 6.2871-0.23088 2.2052 0.57873 4.3056 2.2539 5.8477 0.95966 0.88341 2.4153 1.5708 3.709 1.752 0.74086 0.10372 2.0061 0.034819 2.7363-0.14844 1.9114-0.47971 3.6808-1.9254 4.6113-3.7676 0.71258-1.4107 0.85526-3.4828 0.34961-5.0449-0.36914-1.1404-0.93332-2.068-1.75-2.873l-0.66602-0.65625-0.027344 0.625c-0.026764 0.60425-0.013339 0.64378 0.39062 1.2305 1.5555 2.259 1.171 5.1774-0.89453 6.8008-1.0371 0.8151-1.9439 1.1211-3.3262 1.1211-1.0443 0-1.6445-0.13612-2.498-0.56445-2.3074-1.1579-3.4601-3.8097-2.6719-6.1445 0.53039-1.571 1.5745-2.6081 3.2305-3.209 0.76405-0.27725 0.87143-0.35881 1.457-1.0977l0.17773-0.22266zm1.7168 1.002c-0.080673-0.076671-2.8012 3.0319-3.3965 3.8809-0.85189 1.2148-0.43573 2.5264 0.94922 2.9961 0.44853 0.15213 0.73528 0.1591 1.2324 0.029297 0.51116-0.13346 1.1621-0.77539 1.3125-1.2949 0.1316-0.45474 0.044074-5.4766-0.097656-5.6113z" fill="#bebebe"/>
</svg>
