<svg width="16" height="16" version="1.1" xmlns="http://www.w3.org/2000/svg">
	<path d="m1.3684 1c-0.20337 0-0.36842 0.16505-0.36842 0.36842v8.7658c0.42663 0.4841 1.1452 1.0565 1.7111 1.4334 1.1008 0.73279 2.4153 1.2194 3.7166 1.2002 1.3013-0.01916 2.7809-0.47586 3.6338-1.8479 0.85326-1.3366 0.50673-3.1969-0.39001-3.8619-0.88089-0.66058-1.9099 0.2165-1.6716 0.94192 0.21626-0.50068 1.005-0.74267 1.229 0.13528 0.16689 1.2257-0.64493 2.1482-1.7881 2.2731-1.9305 0.21074-3.6286-1.3939-3.7439-3.5237-0.18568-3.437 1.9809-5.4702 4.303-5.8847zm6.6316 7c-0.14626 0.518-0.90078 0.49512-1.075-0.33604-0.16689-1.2257 0.64205-2.0986 1.7853-2.2235 1.9305-0.21074 3.4377 1.7034 3.5921 3.5079 0.21442 2.8508-1.4901 5.1538-4.0749 6.0516h6.4042c0.20337 0 0.36842-0.16505 0.36842-0.36842v-8.9342c-0.42663-0.4841-0.99414-1.0389-1.56-1.4154-1.1008-0.73316-2.4096-1.2727-3.7108-1.2535-1.3013 0.01916-2.7095 0.30545-3.6338 1.6874-1.0121 1.5135-0.52607 3.4217 0.52025 3.9519 0.99547 0.56405 1.618-0.12655 1.3845-0.66776z" fill="#bebebe"/>
</svg>
