<svg width="16" height="16" version="1.1" xmlns="http://www.w3.org/2000/svg">
	<path d="m5.1162 4.0002c-0.30656 0.0049648-0.61923 0.084757-0.92297 0.23939-0.90556 0.461-1.2769 1.4521-0.99601 2.6332 0.1343 0.56466 0.18074 1.3277 0.099601 1.6347-0.115 0.43504-0.46784 0.66285-1.0359 0.66344-0.56112 5.884e-4 -1.1128 0.44443-1.2218 0.9849-0.11143 0.55289 0.01596 1.0538 0.3652 1.4158 0.41066 0.42562 0.98045 0.54561 1.4741 0.30778 0.71472-0.34434 0.94889-1.0637 0.64409-1.963-0.14693-0.43347-0.15365-0.49167-0.079677-0.76603 0.31311-1.1614 2.8852-1.2465 3.3068-0.10943 0.099654 0.26878 0.083207 0.45267-0.0996 0.92335-0.1119 0.28811-0.1255 0.38847-0.10624 0.69764 0.035183 0.56475 0.29799 0.96048 0.81673 1.2038 0.31565 0.14804 0.97188 0.14738 1.2815 0 0.76107-0.36225 1.0468-1.1478 0.71049-1.9424-0.28885-0.68259-0.14288-1.1361 0.46481-1.45 0.76443-0.39485 1.8688-0.30475 2.4236 0.19835 0.39701 0.35997 0.45636 0.67157 0.24568 1.2927-0.27961 0.82436-0.05557 1.5374 0.59097 1.8946 0.27911 0.15418 0.89643 0.15425 1.1753 0 0.25254-0.13969 0.53766-0.44678 0.63081-0.67712 0.27171-0.67189 0.04953-1.5173-0.48472-1.8399-0.18455-0.1114-0.32382-0.14538-0.69721-0.17783-0.30363-0.026391-0.51613-0.075787-0.61753-0.13679-0.20268-0.12193-0.36438-0.42397-0.40505-0.7592-0.037012-0.30513 0.045556-1.0658 0.15936-1.4705 0.11766-0.41836 0.070676-1.203-0.092962-1.5731-0.50137-1.134-1.9177-1.5781-2.9216-0.90967-0.15746 0.10483-0.35945 0.29102-0.45152 0.41038-0.32279 0.41843-0.8427 0.9546-1.0027 1.0328-0.40249 0.19673-0.81565 0.03552-1.2683-0.49245-0.68416-0.79807-0.78429-0.8988-1.089-1.0533-0.28625-0.14515-0.58985-0.21695-0.89641-0.21203zm2.8951 2.3255c0.92671-0.0015245 1.5566 0.87109 1.2948 1.7988-0.11419 0.40459-0.48881 0.79648-0.86321 0.90967-0.32032 0.096842-0.58461 0.10163-0.88313 0.0068395-0.51901-0.16476-0.90664-0.73443-0.90305-1.3337 0.00233-0.40109 0.089428-0.62943 0.35856-0.93019 0.28107-0.31408 0.5853-0.45072 0.99601-0.45141z" fill="#bebebe"/>
</svg>
