<svg width="16" height="16" version="1.1" xmlns="http://www.w3.org/2000/svg">
	<path d="M 7.7519531 1.0039062 L 1.6503906 1.0214844 L 1.4414062 1.1523438 C 1.3206763 1.2253038 1.1873806 1.3778944 1.1191406 1.5214844 C 1.0054506 1.7560844 1 1.8521375 1 4.1484375 C 1 5.6485475 1.0179475 6.5332031 1.0546875 6.5332031 C 1.0843875 6.5332031 1.7081031 6.3632862 2.4394531 6.1601562 L 3.7734375 5.7871094 L 4.6816406 6.1640625 C 5.1785406 6.3718625 5.5994844 6.529055 5.6152344 6.515625 C 5.6292344 6.499865 5.2383337 6.2888631 4.7460938 6.0332031 C 3.7050138 5.5060831 3.1133075 5.1404488 2.8671875 4.6367188 C 2.7231275 4.3425287 2.7196331 4.3070881 2.7832031 4.0175781 C 2.8520231 3.7169681 3.1743037 3.4808506 3.4023438 3.2753906 C 3.5160437 3.1750006 3.7052719 3.0765537 5.2636719 3.2773438 C 6.1542019 3.3911638 6.9190256 3.431175 6.9785156 3.421875 C 7.0310056 3.408445 6.6734937 3.3293413 6.1835938 3.2382812 C 5.6394538 3.1378913 5.3220744 3.0598306 5.3652344 3.0253906 C 5.5244844 2.9249906 6.0292444 2.8041062 6.5214844 2.7539062 C 7.6587844 2.6348362 10.469809 3.0011406 11.324219 3.4003906 C 11.581999 3.5171306 11.639858 3.5781894 11.767578 3.8496094 C 12.091268 4.5273094 12.409148 5.8077544 12.361328 6.3027344 C 12.324588 6.6879744 12.249538 6.7560806 11.898438 6.7128906 C 11.504137 6.6626906 10.732226 6.5455569 10.103516 6.4042969 C 9.5797856 6.2852239 9.3530506 6.2787581 9.7128906 6.3925781 C 10.348891 6.5929981 10.809149 6.77998 11.386719 7.125 L 11.554688 7.5 C 11.855628 8.4375 11.969909 9.0740556 11.974609 9.9472656 C 11.979269 10.663416 11.902793 11.278731 11.789062 11.488281 C 11.693462 11.663981 10.340854 10.423926 9.6777344 9.6347656 C 9.4409544 9.3522556 9.2480469 9.1560288 9.2480469 9.1992188 C 9.2480469 9.3294188 9.8562594 10.257338 10.193359 10.642578 C 10.562579 11.064588 10.977859 11.554547 11.380859 11.773438 L 11.662109 11.929688 L 11.494141 12.351562 C 11.295851 12.848332 10.920187 13.588068 10.810547 13.736328 C 10.739947 13.832028 10.737566 13.763741 8.0722656 12.619141 C 6.5139656 11.949011 5.206285 11.396019 5.171875 11.386719 C 5.1097726 11.372786 2.2287783 14.838652 2.2011719 14.957031 C 2.2081944 14.979756 4.910345 15 8.21875 15 C 14.1944 15 14.243302 14.997019 14.482422 14.880859 C 14.623562 14.811979 14.776333 14.677848 14.851562 14.554688 L 14.980469 14.347656 L 14.996094 8.1210938 C 15.005424 3.9878938 14.991615 1.815465 14.953125 1.671875 C 14.864475 1.341495 14.528137 1.0670134 14.154297 1.0214844 C 13.992097 1.0033894 11.105453 0.99456625 7.7519531 1.0039062 z M 2.2011719 14.957031 C 2.2011628 14.957002 2.1933594 14.957061 2.1933594 14.957031 L 2.1875 14.974609 C 2.1875 14.974197 2.2010396 14.957599 2.2011719 14.957031 z" fill="#bebebe"/>
</svg>
