<svg id="svg4" width="16" height="16" version="1.1" xmlns="http://www.w3.org/2000/svg">
	<path id="path13" d="m1.9456 1.0035c-.81658-.073466-1.2262 1.0204-.73034 1.5992.46321.65651 1.0056 1.2797 1.1591 2.0916.054837.88569 1.1144 1.507.80426 2.3572-.35999 1.1994-.3797 2.6317.37267 3.6899.33911.7133 1.3995.55734 1.468-.25425.02201-.30641.00644-.7454.18939-.19686.38357.82512 1.195 1.3198 1.8168 1.9486-.051266.18648.68609.11696.28066-.17932-.91437-.82746-1.4574-1.9715-1.9641-3.0723-.094876-.16825-.13273-.70378-.42022-.63102-.54096.507-.71836 1.2603-.73449 1.9745-.33529-.022968-.51699-1.009-.5628-1.4407-.089122-.76151.13681-1.5034.37566-2.2127.018716-.75851-.82752-1.1696-.86958-1.9265-.23228-.87576-.62875-1.7089-1.2452-2.3805-.58673-.65201.3449-.68803.72912-.35305.51934.21573.89271.81852 1.5198.69058 1.1913.063569 2.1873.83299 3.0523 1.5855.96558.88439 1.6839 2.0174 2.1289 3.2441.4142.81582.68714 1.7104 1.2192 2.4616.6351.46171 1.5642.46338 2.0936 1.0323.2198.2025 1.3599.69316.50756.62455-.56356.04913-1.2076.12991-1.6434.51382.05938.69596.74035 1.1935 1.2951 1.5399.74691.34785 1.4314.79203 2.0803 1.2903.26764-.000477.05902-.39108-.02331-.50764-.55078-.62769-1.1167-1.2793-1.8859-1.6442-.78542-.42988.28132-.44018.6329-.51548.29619-.07887.73822-.04081.94372-.29597-.08034-.50391-.6041-.81293-.95095-1.1524-.70723-.58787-1.4997-1.0843-2.3675-1.3974-.69634-1.0768-1.092-2.3125-1.6537-3.4598-.91487-1.6524-2.3703-3.005-4.0677-3.8278-.63952-.32996-1.4578-.053812-1.9777-.59613-.46813-.31511-1.0011-.56652-1.5724-.59963zm2.1237 2.4092c-.098296.0040737-.40873.072048-.28329.23495.31596.19567.31813.71147.6172.88187.63106-.23007.32266-1.2538-.33391-1.1168z" fill="#bebebe" stroke-width=".98636"/>
</svg>
