<svg width="16" height="16" version="1.1" xmlns="http://www.w3.org/2000/svg">
	<path d="m1 1-1e-7 3h1.3291c0-2.3853 0.95506-1.7742 3.4564-1.6875 0 0-4.7855 3.0625-4.7855 6.5625 0 4.6343 4.6421 6.0327 6.7024 6.1113 0.089345 0.0078 0.18587 0.01176 0.2991 0.01372 0.094904-0.0024 0.18112-0.0069 0.25831-0.01372 2.0603-0.07862 6.7402-1.477 6.7402-6.1113 0-3.5-4.8233-6.5625-4.8233-6.5625 2.5013-0.086744 3.4804-0.69782 3.4804 1.6875h1.3429v-3h-5.6933v1.3125c4.2264 3.5997 4.3445 11.355-1.3051 11.392-0.011589-1e-3 -0.03027 8.2e-5 -0.040798 0-5.6496-0.03717-5.5315-7.7928-1.3051-11.392l4.2e-6 -1.3125z" fill="#bebebe"/>
	<path d="m7 5v1h-2v1h2v5h0.5v-5h1v5h0.5v-5h2v-1h-2v-1h-0.5v1h-1v-1h-0.5z" fill="#bebebe" opacity=".45"/>
</svg>
