<svg width="16" height="16" version="1.1" xmlns="http://www.w3.org/2000/svg">
	<path d="m2 1c-0.554 0-1 0.446-1 1v2h3.5c0.277 0 0.5-0.223 0.5-0.5v-2c0-0.277-0.223-0.5-0.5-0.5h-2.5zm4.5 0c-0.277 0-0.5 0.223-0.5 0.5v2c0 0.277 0.223 0.5 0.5 0.5h5c0.277 0 0.5-0.223 0.5-0.5v-2c0-0.277-0.223-0.5-0.5-0.5h-5zm7 0c-0.277 0-0.5 0.223-0.5 0.5v2c0 0.277 0.223 0.5 0.5 0.5h1.5v-2c0-0.554-0.446-1-1-1h-0.5zm-12.5 4v3h1.5c0.277 0 0.5-0.223 0.5-0.5v-2c0-0.277-0.223-0.5-0.5-0.5h-1.5zm3.5 0c-0.277 0-0.5 0.223-0.5 0.5v2c0 0.277 0.223 0.5 0.5 0.5h5c0.277 0 0.5-0.223 0.5-0.5v-2c0-0.277-0.223-0.5-0.5-0.5h-5zm7 0c-0.277 0-0.5 0.223-0.5 0.5v2c0 0.277 0.223 0.5 0.5 0.5h3.5v-3h-3.5zm-10.5 4v3h3.5c0.277 0 0.5-0.223 0.5-0.5v-2c0-0.277-0.223-0.5-0.5-0.5h-3.5zm5.5 0c-0.277 0-0.5 0.223-0.5 0.5v2c0 0.277 0.223 0.5 0.5 0.5h5c0.277 0 0.5-0.223 0.5-0.5v-2c0-0.277-0.223-0.5-0.5-0.5h-5zm7 0c-0.277 0-0.5 0.223-0.5 0.5v2c0 0.277 0.223 0.5 0.5 0.5h1.5v-3h-1.5zm-12.5 4v1c0 0.554 0.446 1 1 1h1v-1.5c0-0.277-0.223-0.5-0.5-0.5h-1.5zm3.5 0c-0.277 0-0.5 0.223-0.5 0.5v1.5h6v-1.5c0-0.277-0.223-0.5-0.5-0.5h-5zm7 0c-0.277 0-0.5 0.223-0.5 0.5v1.5h3c0.554 0 1-0.446 1-1v-1h-3.5z" fill="#bebebe"/>
</svg>
