<svg width="16" height="16" version="1.1" xmlns="http://www.w3.org/2000/svg">
	<path d="m10 2-2 2h1v6c0 1.6569 1.3431 3 3 3s3-1.3431 3-3-1.3431-3-3-3c-0.3409 0.00135-0.67908 0.060796-1 0.17578v-3.1758h1l-2-2zm-6 1c-1.6569 0-3 1.3431-3 3s1.3431 3 3 3c0.3409-0.00135 0.67908-0.060796 1-0.17578v3.1758h-1l2 2 2-2h-1v-6c0-1.6569-1.3431-3-3-3zm0 1.5c0.82843 0 1.5 0.67157 1.5 1.5s-0.67157 1.5-1.5 1.5-1.5-0.67157-1.5-1.5 0.67157-1.5 1.5-1.5zm8 4c0.82843 0 1.5 0.67157 1.5 1.5s-0.67157 1.5-1.5 1.5-1.5-0.67157-1.5-1.5 0.67157-1.5 1.5-1.5z" fill="#bebebe"/>
</svg>
