<svg width="16" height="16" version="1.1" xmlns="http://www.w3.org/2000/svg">
	<path d="m8 1c-0.554 0-1 0.446-1 1v1.2812c-0.5969 0.34604-1 0.97915-1 1.7188 0 0.65798 0.32209 1.2293 0.8125 1.5938l-0.8125 0.40625-1.3438 3h-2.2188c-0.25103 0-0.4375 0.18647-0.4375 0.4375v0.125c0 0.25103 0.18647 0.4375 0.4375 0.4375h1.9062l-0.34375 1 1 3 1.5-4h3l1.5 4 1-3-0.34375-1h1.9062c0.25103 0 0.4375-0.18647 0.4375-0.4375v-0.125c0-0.25103 0-0.4375-0.4375-0.4375h-2.2188l-1.3438-3-0.8125-0.40625c0.49041-0.36449 0.8125-0.93577 0.8125-1.5938 0-0.7396-0.4031-1.3727-1-1.7188v-1.2812c0-0.554-0.446-1-1-1zm0 3c0.55228 0 1 0.44772 1 1s-0.44772 1-1 1-1-0.44772-1-1 0.44772-1 1-1zm0 3 1.1875 3h-2.375z" fill="#bebebe"/>
</svg>
