<svg width="16" height="16" version="1.1" xmlns="http://www.w3.org/2000/svg">
	<path d="m12.658 1c-1.7173 0.025793-4.9879 0.74832-5.8672 1.9668-0.61945 1.0559-0.43453 5.0054-0.27344 4.75 1.3278-2.1046 4.6735-4.824 6.7012-5.9668 0.93989-0.52973 0.46981-0.76548-0.56055-0.75zm-7.4082 2.3496c-0.3638-0.0074216-2.331 1.2626-1.8965 3.6133 0.39828 1.1587 2.947 2.6995 2.8594 2.4102-0.7247-2.393-0.98786-3.9396-0.90625-5.9805 0.00113-0.02833-0.019006-0.0422-0.056641-0.042969zm5.7598 1.4941c-1.2157 0.088228-3.3532 2.1648-3.0527 2.1543 2.4854-0.087144 4.0373 0.056458 5.9766 0.66211 0.28715 0.089677-0.3087-2.6134-2.9238-2.8164zm-8.7715 2.4121c-0.23453-0.030202-0.78436 2.5368 1.4004 3.8418 1.1288 0.46254 3.9596-0.44784 3.6855-0.57226-2.2667-1.0292-3.5944-1.8508-5.0664-3.2578-0.006811-0.0065105-0.011966-0.010744-0.019531-0.011719zm6.959 0.14844c-0.064182 0.00332-0.089839 0.021712-0.068359 0.052734 1.4213 2.0528 2.145 3.441 2.6914 5.4082 0.08091 0.29128 2.017-1.6802 0.76758-4-0.64164-0.85691-2.9414-1.4842-3.3906-1.4609zm0.53125 1.8633c-0.014139-0.00366-0.026719 0.0047195-0.029297 0.023438-0.42935 3.1192-1.186 3.9526-2.3398 5.5703-0.17527 0.24574 2.5821 0.44888 3.5234-2.0137 0.24717-1.1222-0.9422-3.5252-1.1543-3.5801zm-0.85156 1.1406c-0.00578-0.0014-0.014962-1.94e-4 -0.023438 0.003906-2.2435 1.0794-3.722 1.5721-5.7402 1.7969-0.29884 0.03328 1.3211 2.2738 3.7988 1.4082 1.0455-0.55198 2.144-3.1649 1.9648-3.209z" fill="#bebebe"/>
</svg>
