<svg width="16" height="16" version="1.1" xmlns="http://www.w3.org/2000/svg">
	<path d="m12 1c-1.6569 0-3 1.3431-3 3-0.015069 0.24748 0.073053 0.54486 0.11133 0.79688l0.75781 5.2871a2.5 2.5 0 0 0-1.0645 0.58398l-2.8652-1.6367a2.5 2.5 0 0 0 0.060547-0.53125 2.5 2.5 0 0 0-2.5-2.5 2.5 2.5 0 0 0-2.5 2.5 2.5 2.5 0 0 0 2.5 2.5 2.5 2.5 0 0 0 1.6953-0.66797l2.8633 1.6367a2.5 2.5 0 0 0-0.058594 0.53125 2.5 2.5 0 0 0 2.5 2.5 2.5 2.5 0 0 0 2.5-2.5 2.5 2.5 0 0 0-0.83203-1.8594l2.3047-4.9453h-0.001953c0.34354-0.49873 0.52802-1.0897 0.5293-1.6953 0-1.6569-1.3431-3-3-3zm0 1c1.1046 0 2 0.89543 2 2s-0.89543 2-2 2-2-0.89543-2-2 0.89543-2 2-2zm0 1c-0.55228 0-1 0.44772-1 1s0.44772 1 1 1 1-0.44772 1-1-0.44772-1-1-1zm-8.5 4a1.5 1.5 0 0 1 1.5 1.4941l-1.1289-0.64453a0.75008 0.75008 0 0 0-0.35547-0.10547 0.75008 0.75008 0 0 0-0.38867 1.4062l1.127 0.64453a1.5 1.5 0 0 1-0.75391 0.20508 1.5 1.5 0 0 1-1.5-1.5 1.5 1.5 0 0 1 1.5-1.5zm7 4a1.5 1.5 0 0 1 1.5 1.5 1.5 1.5 0 0 1-1.5 1.5 1.5 1.5 0 0 1-1.5-1.4941l1.127 0.64453a0.75008 0.75008 0 1 0 0.74609-1.3008l-1.127-0.64453a1.5 1.5 0 0 1 0.75391-0.20508z" fill="#bebebe"/>
</svg>
