<svg width="16" height="16" version="1.1" xmlns="http://www.w3.org/2000/svg">
	<path d="m7.3164 1v1.5762c-2.2406 0.27925-4.0595 1.9128-4.6113 4.0566h1.418c0.58138-1.5474 2.1205-2.7535 3.8027-2.7422 0.040791-0.0010807 0.082332-0.0021966 0.12305-0.0019531 0.61077 0.0036435 1.2097 0.15587 1.7539 0.42773 0.98016 0.44124 1.7088 1.3124 2.0645 2.3164h1.4277c-0.55178-2.1438-2.3707-3.7774-4.6113-4.0566v-1.5762h-1.3672zm0.68555 3.9902c-1.6623 0-3.0117 1.3408-3.0117 3.0098 0 0-0.018106 0.28231 0.068359 0.60156h4.6211c-0.12479 0.34857-0.3484 0.66236-0.65234 0.87109-0.69924 0.55206-1.7579 0.34985-2.3535-0.26953h-1.4316c0.46466 1.0626 1.5259 1.8066 2.7598 1.8066 1.6623 0 3.0098-1.3474 3.0098-3.0098 0 0-6.87e-4 -0.30892-0.060547-0.60156h-4.625c0.26021-0.65774 0.88136-1.1911 1.6035-1.1973 0.036137-0.001742 0.073342-0.0026868 0.10938-0.0019531 0.48407 0.0098161 0.95272 0.24092 1.2793 0.59766h1.4414c-0.46466-1.0626-1.5239-1.8066-2.7578-1.8066zm-5.2969 4.377c0.55178 2.1438 2.3707 3.7774 4.6113 4.0566v1.5762h1.3672v-1.5762c2.2406-0.27925 4.0595-1.9128 4.6113-4.0566h-1.4082c-0.55255 1.6301-2.2596 2.8027-3.9863 2.7422-1.6811 0.008495-3.2068-1.193-3.7754-2.7422h-1.4199z" fill="#bebebe"/>
</svg>
