<svg width="16" height="16" version="1.1" xmlns="http://www.w3.org/2000/svg">
	<path d="m11.555 1c0.002496 0.037456-0.64517 1.3124-1.4668 2.8848-0.82892 1.5863-1.6102 3.1677-1.7344 3.5137-0.44835 1.2491-0.35996 2.6289 0.22656 3.5938 1.4848 2.4427 4.978 2.2491 6.1504-0.3418 0.25044-0.55345 0.26953-0.66377 0.26953-1.5215 0-0.85675-0.020631-0.96952-0.26953-1.5195-0.15352-0.33924-0.44311-0.77402-0.67578-1.0176-0.73483-0.76922-2.0938-1.2852-2.4629-0.93555-0.32858 0.31128-0.15797 0.78162 0.31641 0.87305 1.5564 0.29997 2.5219 1.8628 2.0762 3.3594-0.11867 0.3984-0.26073 0.62703-0.62109 1.0059-0.55324 0.58158-1.0351 0.78516-1.8555 0.78516-1.0143 0-1.982-0.69896-2.3086-1.668-0.16504-0.48966-0.16222-1.4286 0.0058593-2.0332 0.13687-0.49233 3.1168-6.2499 3.2988-6.3789a7.9267 8.2977 0 0 0-0.94922-0.59961zm-7.1172 4.0801c-3.4346 0-3.4375-0.0013476-3.4375 0.41992 0 0.26331 1.2547 2.4698 1.4395 2.5312 0.074821 0.024876 0.23375 0.0074314 0.35547-0.041016 0.33239-0.13229 0.2896-0.48989-0.15625-1.2793-0.20811-0.36847-0.37891-0.68813-0.37891-0.71094s0.98906-0.041016 2.1953-0.041016c1.4095 0 2.1821 0.031916 2.1641 0.087891-0.015415 0.047902-0.97276 1.9261-2.1289 4.1738l-2.0996 4.0781 0.78516 0.70117c1.6211-3.0717 3.2445-6.3116 4.8027-9.4648 0-0.090057-0.067766-0.23043-0.15234-0.31055-0.13747-0.13023-0.49666-0.14453-3.3887-0.14453z" fill="#bebebe"/>
</svg>
