<svg width="16" height="16" version="1.1" xmlns="http://www.w3.org/2000/svg">
	<path d="m9.4766 1-0.76953 0.033203c-1.0032 0.043633-2.1638 0.25801-2.8672 0.5293l-0.56445 0.2168-0.13867 0.56445c-0.27154 1.103-0.82617 3.827-0.82617 3.8574-0.086081 0.14576-0.23236 0.22784-0.30078 0.29492-0.6343 0.47091-1.0087 1.2139-1.0098 2.0039 0 1.3807 1.1193 2.5 2.5 2.5s2.5-1.1193 2.5-2.5c-0.0013697-0.62714-0.23743-1.2302-0.63672-1.6387-0.39929-0.40844-0.41899-0.95833-0.38867-3.3398l0.025391-1.9844 0.54492-0.16406c0.29971-0.0903 0.85707-0.21215 1.2383-0.26953l0.69336-0.10352zm-1.4766 1v1.8398 1.8398l0.49023 0.35742c1.8817 1.3747 2.81 3.2907 2.5234 5.2109-0.20545 1.3767-0.77818 2.4222-1.8496 3.3711l-0.42969 0.38086h0.85742c0.51589 0 1.0305-0.043511 1.293-0.10938h0.001953c0.45703-0.11576 0.96297-0.50803 0.96289-0.74609-2.9e-5 -0.06841-0.075588-0.29728-0.16992-0.50781-0.15424-0.34429-0.15937-0.40648-0.050782-0.62695 0.06637-0.1348 0.19058-0.2822 0.27734-0.32617 0.15287-0.07756 0.15294-0.082537-0.003906-0.18555-0.0889-0.05855-0.20372-0.12206-0.25586-0.14062-0.05212-0.01853 0.038444-0.13202 0.20312-0.25195l0.30078-0.2168-0.15039-0.2168c-0.21522-0.31014-0.19579-0.70103 0.041016-0.8418 0.10454-0.06207 0.2873-0.11465 0.40625-0.11523 0.28991-8.8e-4 0.4006-0.07028 0.51172-0.31836 0.11518-0.25714 0.034062-0.40364-0.92969-1.6367-0.87295-1.117-0.88972-1.1692-0.48438-1.5215l0.3125-0.27344-0.18164-0.50195c-0.10039-0.27598-0.26064-0.71505-0.35547-0.97461-0.50464-1.3813-1.8162-2.8324-3.043-3.3672l-0.27734-0.12109zm-2.5 5c0.82843 0 1.5 0.67157 1.5 1.5s-0.67157 1.5-1.5 1.5-1.5-0.67157-1.5-1.5 0.67157-1.5 1.5-1.5zm0 0.75a0.75 0.75 0 0 0-0.75 0.75 0.75 0.75 0 0 0 0.75 0.75 0.75 0.75 0 0 0 0.75-0.75 0.75 0.75 0 0 0-0.75-0.75z" fill="#bebebe"/>
</svg>
