<svg width="16" height="16" version="1.1" xmlns="http://www.w3.org/2000/svg">
	<path d="m6.3205 1c0.49192 1.1864-0.22485 1.5217-0.73245 1.9369-1.9989 1.5423-4.5881 3.4644-4.5881 6.0746 0 2.8098 1.5169 5.8768 6.2112 5.9886-1.7324-1.0065-3.2602-2.2686-3.6017-4.2647-0.10019-0.58568-0.08944-1.2318 0.033204-1.9369 0.1267-1.0041 0.53587-2.0555 1.1329-3.1057 0.047268-0.089809 0.10406-0.18415 0.1543-0.27558 0.037685-0.062989 0.070493-0.12668 0.10938-0.18959 0.65476-1.1596 1.5262-2.4365 2.6935-3.8777 0.00119-0.031296 0.00189-0.062644 0.00391-0.093815zm1.9591 0.35376c0.15352 1.7805 1.3958 3.6674 2.0704 5.8263 0.47023 1.505 0.60439 3.1612-0.14649 4.9781-0.23985 0.63805-0.57943 1.2503-1.0254 1.8177-0.03316 0.04568-0.065215 0.09094-0.099613 0.13681-0.040961 0.04951-0.082346 0.09787-0.125 0.14659-0.18514 0.2388-0.38537 0.48113-0.60549 0.72512 3.9584-0.089212 8.4705-4.1513 5.8967-8.4942-0.7298-1.2457-2.3865-2.1807-4.3537-3.3226-0.44406-0.23716-1.0185-1.2794-0.95511-1.6945zm-0.61916 0.90688c-3.0203 3.8819-3.875 6.5305-3.5568 8.3906 0.025121 0.14684 0.068168 0.28358 0.10743 0.42217 0.34573 0.92748 1.0467 1.8122 2.2735 2.8516 0.27067 0.19036 0.5411 0.38176 0.83597 0.55703-1.1534-1.7215-1.4357-3.3603-1.3106-4.9488 1.542e-4 -0.00263-1.577e-4 -0.00518 0-0.00782 7.886e-4 -0.013174-8.765e-4 -0.025894 0-0.039089 0.014535-0.21884 0.052037-0.44181 0.085941-0.66453 0.00488-0.032441 0.00656-0.065323 0.011719-0.097724 0.028238-0.17294 0.06196-0.34699 0.099613-0.52185 0.017064-0.083932 0.030243-0.16843 0.04883-0.25213 0.021764-0.098004 0.050848-0.19535 0.074221-0.29317 0.011131-0.043022 0.021677-0.085892 0.033204-0.129 0.42741-1.7401 1.0676-3.4579 1.2969-5.2673zm0.42384 0.61566c-0.30828 1.8263-0.97075 3.5211-1.3399 5.1833-0.28631 1.2893-0.39454 2.5512-0.058596 3.8621 0.025492 0.08807 0.046296 0.1802 0.074221 0.26581 0.014447 0.04778 0.03508 0.0967 0.050783 0.14463 0.076301 0.21933 0.15654 0.43542 0.2461 0.63325 0.14429 0.31869 0.31561 0.61774 0.48049 0.92056 0.14543 0.23667 0.29668 0.47512 0.47853 0.7173 2.5456-2.8403 2.5246-5.1332 1.8555-7.2746-0.48242-1.544-1.323-2.9933-1.7872-4.4523z" fill="#bebebe"/>
</svg>
