<svg width="16" height="16" version="1.1" xmlns="http://www.w3.org/2000/svg">
	<path d="m1.3828 1c-0.277 0-0.4391 0.20098-0.36328 0.45117l3.9688 13.098c0.075815 0.2502 0.35972 0.45117 0.63672 0.45117h3.75c0.277 0 0.5609-0.20098 0.63672-0.45117l0.26367-0.87109c-0.1764-0.18548-0.27497-0.43153-0.27539-0.6875 8.75e-4 -0.17964 0.05013-0.35574 0.14258-0.50976-0.04723 0.0067-0.09488 0.0099-0.14258 0.0098-0.55228 0-1-0.44772-1-1s0.44772-1 1-1c0.04775 4.97e-4 0.09539 0.0044 0.14258 0.01172-0.09279-0.15464-0.14206-0.33145-0.14258-0.51175 0-0.55228 0.44772-1 1-1 0.17964 8.745e-4 0.35574 0.050126 0.50977 0.14258-0.0067-0.047232-0.0099-0.09488-0.0098-0.14258 2.23e-4 -0.33578 0.16896-0.64904 0.44922-0.83398l2.0312-6.7051c0.075848-0.25019-0.086247-0.45117-0.36325-0.45117h-2.9922c-0.277 0-0.56286 0.20098-0.63867 0.45117l-2.4863 8.2109-2.4883-8.2109c-0.075815-0.25019-0.35972-0.45117-0.63672-0.45117z" fill="#bebebe"/>
</svg>
