<svg width="16" height="16" version="1.1" xmlns="http://www.w3.org/2000/svg">
	<path d="m9.3545 6.2848c0.048805 0.0523 0.1781 0.16853 0.38813 0.34857 2.948 2.791 4.365 4.3537 4.251 4.6882-0.08197 0.24602-0.31819 0.45463-0.7087 0.62585-0.38988 0.16124-0.74113 0.23436-1.0537 0.21935-0.24751-0.0118-1.4227-1.1881-3.5256-3.5286-0.42431-0.49026-0.67352-0.76717-0.74764-0.83073-0.3081 0.30515-0.76864 0.93291-1.3816 1.8833-0.59931 0.94104-1.0155 1.6859-1.2485 2.2346 0.40759-0.23038 0.74165-0.33931 1.0022-0.32681 0.13025 6e-3 0.21673 0.0804 0.25943 0.22241 0.056362 0.13269 0.059721 0.27782 0.00945 0.43539-0.046496 0.10775-0.36088 0.31261-0.94319 0.61458-0.41928 0.20983-0.68405 0.35708-0.7943 0.44177-0.34113 0.21357-0.57691 0.51219-0.70735 0.89585-0.18162 0.56116-0.64367 0.82392-1.3862 0.78828-0.39079-0.0188-0.63088-0.14028-0.72029-0.36452-0.089423-0.22425-0.052793-0.57242 0.10969-1.0445 0.31206-0.94481 1.8128-3.2373 4.5022-6.8774-0.015219-0.16069-0.40065-0.74408-1.1561-1.7502-0.75542-1.006-1.3551-1.7047-1.7992-2.096-0.48112-0.42301-0.68138-0.74756-0.60077-0.97366 0.18162-0.56115 0.75439-0.81859 1.7183-0.77233 0.46894 0.0225 1.3047 0.90249 2.5074 2.6399 0.51371 0.71453 0.85019 1.1506 1.0095 1.3082 0.27733-0.23662 0.67266-0.67254 1.186-1.3078 0.51399-0.64517 0.86944-1.168 1.0664-1.5685 0.19487-0.37055 0.5023-0.66573 0.92227-0.88553 0.41992-0.21978 0.81878-0.3206 1.1966-0.30248 0.58615 0.0281 0.79831 0.2733 0.63646 0.73541-0.18163 0.56118-1.2385 1.7952-3.1706 3.702-0.50392 0.49571-0.77776 0.7775-0.82154 0.84537" fill="#bebebe"/>
</svg>
