<svg width="16" height="16" version="1.1" xmlns="http://www.w3.org/2000/svg">
	<path d="m5.5 1c-0.277 0-0.5 0.223-0.5 0.5s0.223 0.5 0.5 0.5h0.5v2.6719c-2.3301 0.78153-4 2.8924-4 5.375 0 2.1291 1.2384 3.9766 3.0625 4.9531h5.875c1.8241-0.97654 3.0625-2.824 3.0625-4.9531 0-2.4766-1.6719-4.586-4-5.375v-2.6719h0.5c0.277 0 0.5-0.223 0.5-0.5s-0.223-0.5-0.5-0.5h-5zm1.5 1h2v2.6719a1.0001 1.0001 0 0 0 0.67969 0.94727c1.9528 0.66181 3.3203 2.4012 3.3203 4.4277 0 1.6801-0.96833 3.1176-2.4062 3.9531h-5.1875c-1.4379-0.83551-2.4062-2.273-2.4062-3.9531 0-2.0342 1.3664-3.773 3.3184-4.4277a1.0001 1.0001 0 0 0 0.68164-0.94727v-2.6719zm-2.3301 6c-0.42287 0.58862-0.66992 1.2913-0.66992 2.0469 0 1.2336 0.70022 2.2713 1.7461 2.9531h4.5078c1.0459-0.68184 1.7461-1.7195 1.7461-2.9531 0-0.75363-0.24937-1.4565-0.67578-2.0469h-6.6543z" fill="#bebebe"/>
</svg>
