<?xml version="1.0" encoding="UTF-8" standalone="no"?>
<!-- Created with Inkscape (http://www.inkscape.org/) -->

<svg
   xmlns:dc="http://purl.org/dc/elements/1.1/"
   xmlns:cc="http://creativecommons.org/ns#"
   xmlns:rdf="http://www.w3.org/1999/02/22-rdf-syntax-ns#"
   xmlns:svg="http://www.w3.org/2000/svg"
   xmlns="http://www.w3.org/2000/svg"
   xmlns:xlink="http://www.w3.org/1999/xlink"
   xmlns:sodipodi="http://sodipodi.sourceforge.net/DTD/sodipodi-0.dtd"
   xmlns:inkscape="http://www.inkscape.org/namespaces/inkscape"
   width="96"
   height="96"
   id="svg2408"
   sodipodi:version="0.32"
   inkscape:version="0.48.3.1 r9886"
   version="1.0"
   sodipodi:docname="folder-music.svg"
   inkscape:output_extension="org.inkscape.output.svg.inkscape"
   style="display:inline">
  <defs
     id="defs2410">
    <linearGradient
       id="linearGradient4164">
      <stop
         id="stop4166"
         offset="0"
         style="stop-color:#5178b3;stop-opacity:0.78431374;" />
      <stop
         id="stop4168"
         offset="1"
         style="stop-color:#5178b3;stop-opacity:0.39215687;" />
    </linearGradient>
    <linearGradient
       id="linearGradient4075">
      <stop
         id="stop4077"
         offset="0"
         style="stop-color:#5e83b2;stop-opacity:1" />
      <stop
         id="stop4079"
         offset="1"
         style="stop-color:#95b6d9;stop-opacity:1" />
    </linearGradient>
    <linearGradient
       id="linearGradient4008">
      <stop
         id="stop4010"
         offset="0"
         style="stop-color:#9cb9db;stop-opacity:1" />
      <stop
         style="stop-color:#6d91be;stop-opacity:1"
         offset="0.71691591"
         id="stop4012" />
      <stop
         id="stop4014"
         offset="1"
         style="stop-color:#4b709e;stop-opacity:1" />
    </linearGradient>
    <linearGradient
       gradientUnits="userSpaceOnUse"
       y2="20.137329"
       x2="11.794092"
       y1="3.2126782"
       x1="11.794092"
       gradientTransform="scale(1.0598527,0.9435274)"
       id="linearGradient3317">
      <stop
         id="stop3319"
         offset="0"
         style="stop-color:#c6953a;stop-opacity:1" />
      <stop
         id="stop3321"
         offset="1"
         style="stop-color:#ab7a1f;stop-opacity:1" />
    </linearGradient>
    <linearGradient
       id="ButtonShadow"
       gradientTransform="matrix(1.0058652,0,0,0.994169,0,12)"
       x1="45.447727"
       y1="80.471962"
       x2="45.447727"
       y2="7.0165396"
       gradientUnits="userSpaceOnUse">
      <stop
         style="stop-color:#000000;stop-opacity:1;"
         offset="0"
         id="stop3750" />
      <stop
         style="stop-color:#000000;stop-opacity:0.58823532;"
         offset="1"
         id="stop3752" />
    </linearGradient>
    <linearGradient
       id="linearGradient3892">
      <stop
         style="stop-color:#000000;stop-opacity:0.58823532;"
         offset="0"
         id="stop3894" />
      <stop
         id="stop3896"
         offset="0.11780351"
         style="stop-color:#000000;stop-opacity:0.47058824;" />
      <stop
         style="stop-color:#000000;stop-opacity:0.39215687;"
         offset="0.23809524"
         id="stop3898" />
      <stop
         style="stop-color:#000000;stop-opacity:0.3137255;"
         offset="1"
         id="stop3900" />
    </linearGradient>
    <linearGradient
       id="linearGradient4384">
      <stop
         style="stop-color:#ffffff;stop-opacity:1;"
         offset="0"
         id="stop4386" />
      <stop
         style="stop-color:#ffffff;stop-opacity:0;"
         offset="1"
         id="stop4388" />
    </linearGradient>
    <linearGradient
       inkscape:collect="always"
       xlink:href="#linearGradient4164"
       id="linearGradient4323"
       gradientUnits="userSpaceOnUse"
       gradientTransform="translate(0,-4)"
       x1="41.018513"
       y1="75.720016"
       x2="41.018513"
       y2="31.847706" />
    <linearGradient
       inkscape:collect="always"
       xlink:href="#linearGradient4164"
       id="linearGradient4310"
       gradientUnits="userSpaceOnUse"
       gradientTransform="translate(0,-4)"
       x1="41.018513"
       y1="75.720016"
       x2="41.018513"
       y2="31.847706" />
    <linearGradient
       inkscape:collect="always"
       xlink:href="#linearGradient4164"
       id="linearGradient4297"
       gradientUnits="userSpaceOnUse"
       gradientTransform="translate(0,-4)"
       x1="41.018513"
       y1="75.720016"
       x2="41.018513"
       y2="31.847706" />
    <linearGradient
       y2="31.847706"
       x2="41.018513"
       y1="75.720016"
       x1="41.018513"
       gradientUnits="userSpaceOnUse"
       id="linearGradient3089"
       xlink:href="#linearGradient4164"
       inkscape:collect="always"
       gradientTransform="translate(0,-4)" />
    <linearGradient
       y2="31.847706"
       x2="41.018513"
       y1="75.720016"
       x1="41.018513"
       gradientTransform="translate(0,-4)"
       gradientUnits="userSpaceOnUse"
       id="linearGradient3132"
       xlink:href="#linearGradient4164"
       inkscape:collect="always" />
    <linearGradient
       inkscape:collect="always"
       xlink:href="#linearGradient3874-9"
       id="linearGradient3123-5"
       gradientUnits="userSpaceOnUse"
       x1="48.021698"
       y1="22.933374"
       x2="48.021698"
       y2="81.481377" />
    <linearGradient
       inkscape:collect="always"
       id="linearGradient3874-9">
      <stop
         style="stop-color:#ffffff;stop-opacity:1;"
         offset="0"
         id="stop3876-7" />
      <stop
         style="stop-color:#ffffff;stop-opacity:0;"
         offset="1"
         id="stop3878-5" />
    </linearGradient>
    <clipPath
       clipPathUnits="userSpaceOnUse"
       id="clipPath3860">
      <rect
         ry="6"
         rx="6"
         y="18"
         x="6"
         height="72"
         width="84"
         id="rect3862"
         style="fill:#ff00ff;fill-opacity:1;fill-rule:nonzero;stroke:none" />
    </clipPath>
    <linearGradient
       inkscape:collect="always"
       xlink:href="#linearGradient3892-3"
       id="linearGradient4086-8"
       gradientUnits="userSpaceOnUse"
       gradientTransform="translate(0,10)"
       spreadMethod="reflect"
       x1="90"
       y1="88"
       x2="48"
       y2="88" />
    <linearGradient
       id="linearGradient3892-3">
      <stop
         style="stop-color:#000000;stop-opacity:0.58823532;"
         offset="0"
         id="stop3894-1" />
      <stop
         id="stop3896-8"
         offset="0.11780351"
         style="stop-color:#000000;stop-opacity:0.47058824;" />
      <stop
         style="stop-color:#000000;stop-opacity:0.39215687;"
         offset="0.23809524"
         id="stop3898-9" />
      <stop
         style="stop-color:#000000;stop-opacity:0.3137255;"
         offset="1"
         id="stop3900-6" />
    </linearGradient>
    <linearGradient
       y2="-40"
       x2="48"
       y1="75.08329"
       x1="48"
       gradientTransform="matrix(1,0,0,-1,0,92)"
       gradientUnits="userSpaceOnUse"
       id="linearGradient3094-4"
       xlink:href="#linearGradient4384-3"
       inkscape:collect="always" />
    <linearGradient
       id="linearGradient4384-3">
      <stop
         style="stop-color:#ffffff;stop-opacity:1;"
         offset="0"
         id="stop4386-3" />
      <stop
         style="stop-color:#ffffff;stop-opacity:0;"
         offset="1"
         id="stop4388-3" />
    </linearGradient>
    <linearGradient
       inkscape:collect="always"
       xlink:href="#linearGradient4075-6"
       id="linearGradient3706-8"
       x1="48"
       y1="78"
       x2="48"
       y2="5.9877172"
       gradientUnits="userSpaceOnUse"
       gradientTransform="translate(0,7.9999996)" />
    <linearGradient
       id="linearGradient4075-6">
      <stop
         id="stop4077-0"
         offset="0"
         style="stop-color:#72a0c2;stop-opacity:1;" />
      <stop
         id="stop4079-4"
         offset="1"
         style="stop-color:#afcbde;stop-opacity:1;" />
    </linearGradient>
    <linearGradient
       inkscape:collect="always"
       xlink:href="#linearGradient4008-8"
       id="linearGradient3105-8"
       gradientUnits="userSpaceOnUse"
       gradientTransform="matrix(0.72,0,0,0.72,1.92,-5.5200004)"
       x1="34.85965"
       y1="16.275133"
       x2="34.85965"
       y2="26.986736" />
    <linearGradient
       id="linearGradient4008-8">
      <stop
         id="stop4010-8"
         offset="0"
         style="stop-color:#9bbbd5;stop-opacity:1;" />
      <stop
         style="stop-color:#80a9c9;stop-opacity:1;"
         offset="0.75"
         id="stop3895" />
      <stop
         id="stop4014-9"
         offset="1"
         style="stop-color:#5b91b9;stop-opacity:1;" />
    </linearGradient>
    <linearGradient
       inkscape:collect="always"
       xlink:href="#linearGradient3317-7"
       id="linearGradient3361-7"
       x1="48.035713"
       y1="25.910715"
       x2="48.035713"
       y2="85.821426"
       gradientUnits="userSpaceOnUse" />
    <linearGradient
       gradientUnits="userSpaceOnUse"
       y2="20.137329"
       x2="11.794092"
       y1="3.2126782"
       x1="11.794092"
       gradientTransform="scale(1.0598527,0.9435274)"
       id="linearGradient3317-7">
      <stop
         id="stop3319-6"
         offset="0"
         style="stop-color:#c6953a;stop-opacity:1" />
      <stop
         id="stop3321-4"
         offset="1"
         style="stop-color:#ab7a1f;stop-opacity:1" />
    </linearGradient>
    <linearGradient
       inkscape:collect="always"
       xlink:href="#ButtonShadow-0"
       id="linearGradient3952-3"
       x1="43"
       y1="91"
       x2="43"
       y2="7"
       gradientUnits="userSpaceOnUse" />
    <linearGradient
       id="ButtonShadow-0"
       gradientTransform="matrix(1.0058652,0,0,0.994169,0,12)"
       x1="45.447727"
       y1="80.471962"
       x2="45.447727"
       y2="7.0165396"
       gradientUnits="userSpaceOnUse">
      <stop
         style="stop-color:#000000;stop-opacity:1;"
         offset="0"
         id="stop3750-3" />
      <stop
         style="stop-color:#000000;stop-opacity:0.58823532;"
         offset="1"
         id="stop3752-0" />
    </linearGradient>
    <linearGradient
       inkscape:collect="always"
       xlink:href="#ButtonShadow-0"
       id="linearGradient3961-9"
       x1="45"
       y1="92"
       x2="45"
       y2="7"
       gradientUnits="userSpaceOnUse" />
    <linearGradient
       id="linearGradient3943"
       gradientTransform="matrix(1.0058652,0,0,0.994169,0,12)"
       x1="45.447727"
       y1="80.471962"
       x2="45.447727"
       y2="7.0165396"
       gradientUnits="userSpaceOnUse">
      <stop
         style="stop-color:#000000;stop-opacity:1;"
         offset="0"
         id="stop3945" />
      <stop
         style="stop-color:#000000;stop-opacity:0.58823532;"
         offset="1"
         id="stop3947" />
    </linearGradient>
    <linearGradient
       inkscape:collect="always"
       xlink:href="#ButtonShadow-0"
       id="linearGradient3969-2"
       gradientUnits="userSpaceOnUse"
       x1="45"
       y1="92"
       x2="45"
       y2="7" />
    <linearGradient
       id="linearGradient3950"
       gradientTransform="matrix(1.0058652,0,0,0.994169,0,12)"
       x1="45.447727"
       y1="80.471962"
       x2="45.447727"
       y2="7.0165396"
       gradientUnits="userSpaceOnUse">
      <stop
         style="stop-color:#000000;stop-opacity:1;"
         offset="0"
         id="stop3952" />
      <stop
         style="stop-color:#000000;stop-opacity:0.58823532;"
         offset="1"
         id="stop3954" />
    </linearGradient>
    <linearGradient
       inkscape:collect="always"
       xlink:href="#ButtonShadow-0"
       id="linearGradient3977-5"
       gradientUnits="userSpaceOnUse"
       x1="45"
       y1="92"
       x2="45"
       y2="7" />
    <linearGradient
       id="linearGradient3957"
       gradientTransform="matrix(1.0058652,0,0,0.994169,0,12)"
       x1="45.447727"
       y1="80.471962"
       x2="45.447727"
       y2="7.0165396"
       gradientUnits="userSpaceOnUse">
      <stop
         style="stop-color:#000000;stop-opacity:1;"
         offset="0"
         id="stop3959" />
      <stop
         style="stop-color:#000000;stop-opacity:0.58823532;"
         offset="1"
         id="stop3961" />
    </linearGradient>
    <linearGradient
       inkscape:collect="always"
       xlink:href="#ButtonShadow-0"
       id="linearGradient3986-4"
       gradientUnits="userSpaceOnUse"
       x1="45"
       y1="92"
       x2="45"
       y2="7" />
    <linearGradient
       id="linearGradient3964"
       gradientTransform="matrix(1.0058652,0,0,0.994169,0,12)"
       x1="45.447727"
       y1="80.471962"
       x2="45.447727"
       y2="7.0165396"
       gradientUnits="userSpaceOnUse">
      <stop
         style="stop-color:#000000;stop-opacity:1;"
         offset="0"
         id="stop3966" />
      <stop
         style="stop-color:#000000;stop-opacity:0.58823532;"
         offset="1"
         id="stop3968" />
    </linearGradient>
    <linearGradient
       y2="7"
       x2="45"
       y1="92"
       x1="45"
       gradientUnits="userSpaceOnUse"
       id="linearGradient3987"
       xlink:href="#ButtonShadow-0"
       inkscape:collect="always" />
    <linearGradient
       inkscape:collect="always"
       xlink:href="#linearGradient3874"
       id="linearGradient3123"
       gradientUnits="userSpaceOnUse"
       x1="48.021698"
       y1="22.933374"
       x2="48.021698"
       y2="81.481377" />
    <linearGradient
       inkscape:collect="always"
       id="linearGradient3874">
      <stop
         style="stop-color:#ffffff;stop-opacity:1;"
         offset="0"
         id="stop3876" />
      <stop
         style="stop-color:#ffffff;stop-opacity:0;"
         offset="1"
         id="stop3878" />
    </linearGradient>
    <clipPath
       clipPathUnits="userSpaceOnUse"
       id="clipPath3860-9">
      <rect
         ry="6"
         rx="6"
         y="18"
         x="6"
         height="72"
         width="84"
         id="rect3862-0"
         style="fill:#ff00ff;fill-opacity:1;fill-rule:nonzero;stroke:none" />
    </clipPath>
    <filter
       color-interpolation-filters="sRGB"
       inkscape:collect="always"
       id="filter3870"
       x="-0.16558799"
       width="1.331176"
       y="-0.19715989"
       height="1.3943198">
      <feGaussianBlur
         inkscape:collect="always"
         stdDeviation="5.1703125"
         id="feGaussianBlur3872" />
    </filter>
    <linearGradient
       inkscape:collect="always"
       xlink:href="#linearGradient3892-6"
       id="linearGradient4086"
       gradientUnits="userSpaceOnUse"
       spreadMethod="reflect"
       x1="90"
       y1="88"
       x2="48"
       y2="88"
       gradientTransform="translate(0,10)" />
    <linearGradient
       id="linearGradient3892-6">
      <stop
         style="stop-color:#000000;stop-opacity:0.58823532;"
         offset="0"
         id="stop3894-3" />
      <stop
         id="stop3896-1"
         offset="0.11780351"
         style="stop-color:#000000;stop-opacity:0.47058824;" />
      <stop
         style="stop-color:#000000;stop-opacity:0.39215687;"
         offset="0.23809524"
         id="stop3898-98" />
      <stop
         style="stop-color:#000000;stop-opacity:0.3137255;"
         offset="1"
         id="stop3900-7" />
    </linearGradient>
    <linearGradient
       y2="-40"
       x2="48"
       y1="75.08329"
       x1="48"
       gradientTransform="matrix(1,0,0,-1,0,92)"
       gradientUnits="userSpaceOnUse"
       id="linearGradient3094"
       xlink:href="#linearGradient4384-1"
       inkscape:collect="always" />
    <linearGradient
       id="linearGradient4384-1">
      <stop
         style="stop-color:#ffffff;stop-opacity:1;"
         offset="0"
         id="stop4386-2" />
      <stop
         style="stop-color:#ffffff;stop-opacity:0;"
         offset="1"
         id="stop4388-8" />
    </linearGradient>
    <linearGradient
       inkscape:collect="always"
       xlink:href="#linearGradient4075-4"
       id="linearGradient3706"
       x1="48"
       y1="78"
       x2="48"
       y2="5.9877172"
       gradientUnits="userSpaceOnUse"
       gradientTransform="translate(0,7.9999996)" />
    <linearGradient
       id="linearGradient4075-4">
      <stop
         id="stop4077-4"
         offset="0"
         style="stop-color:#6e92c6;stop-opacity:1;" />
      <stop
         id="stop4079-9"
         offset="1"
         style="stop-color:#afc2df;stop-opacity:1;" />
    </linearGradient>
    <linearGradient
       inkscape:collect="always"
       xlink:href="#linearGradient4008-0"
       id="linearGradient3105"
       gradientUnits="userSpaceOnUse"
       gradientTransform="matrix(0.72,0,0,0.72,1.92,-5.5200004)"
       x1="34.85965"
       y1="16.275133"
       x2="34.85965"
       y2="26.986736" />
    <linearGradient
       id="linearGradient4008-0">
      <stop
         id="stop4010-0"
         offset="0"
         style="stop-color:#99b2d7;stop-opacity:1;" />
      <stop
         style="stop-color:#7e9dcc;stop-opacity:1;"
         offset="0.75"
         id="stop3895-8" />
      <stop
         id="stop4014-0"
         offset="1"
         style="stop-color:#5880bc;stop-opacity:1;" />
    </linearGradient>
    <linearGradient
       inkscape:collect="always"
       xlink:href="#linearGradient3317-1"
       id="linearGradient3361"
       x1="48.035713"
       y1="25.910715"
       x2="48.035713"
       y2="85.821426"
       gradientUnits="userSpaceOnUse" />
    <linearGradient
       gradientUnits="userSpaceOnUse"
       y2="20.137329"
       x2="11.794092"
       y1="3.2126782"
       x1="11.794092"
       gradientTransform="scale(1.0598527,0.9435274)"
       id="linearGradient3317-1">
      <stop
         id="stop3319-9"
         offset="0"
         style="stop-color:#c6953a;stop-opacity:1" />
      <stop
         id="stop3321-6"
         offset="1"
         style="stop-color:#ab7a1f;stop-opacity:1" />
    </linearGradient>
    <linearGradient
       inkscape:collect="always"
       xlink:href="#ButtonShadow-4"
       id="linearGradient3952"
       x1="43"
       y1="91"
       x2="43"
       y2="7"
       gradientUnits="userSpaceOnUse" />
    <linearGradient
       id="ButtonShadow-4"
       gradientTransform="matrix(1.0058652,0,0,0.994169,0,12)"
       x1="45.447727"
       y1="80.471962"
       x2="45.447727"
       y2="7.0165396"
       gradientUnits="userSpaceOnUse">
      <stop
         style="stop-color:#000000;stop-opacity:1;"
         offset="0"
         id="stop3750-5" />
      <stop
         style="stop-color:#000000;stop-opacity:0.58823532;"
         offset="1"
         id="stop3752-1" />
    </linearGradient>
    <linearGradient
       inkscape:collect="always"
       xlink:href="#ButtonShadow-4"
       id="linearGradient3961"
       x1="45"
       y1="92"
       x2="45"
       y2="7"
       gradientUnits="userSpaceOnUse" />
    <linearGradient
       id="linearGradient3158"
       gradientTransform="matrix(1.0058652,0,0,0.994169,0,12)"
       x1="45.447727"
       y1="80.471962"
       x2="45.447727"
       y2="7.0165396"
       gradientUnits="userSpaceOnUse">
      <stop
         style="stop-color:#000000;stop-opacity:1;"
         offset="0"
         id="stop3160" />
      <stop
         style="stop-color:#000000;stop-opacity:0.58823532;"
         offset="1"
         id="stop3162" />
    </linearGradient>
    <linearGradient
       inkscape:collect="always"
       xlink:href="#ButtonShadow-4"
       id="linearGradient3969"
       gradientUnits="userSpaceOnUse"
       x1="45"
       y1="92"
       x2="45"
       y2="7" />
    <linearGradient
       id="linearGradient3165"
       gradientTransform="matrix(1.0058652,0,0,0.994169,0,12)"
       x1="45.447727"
       y1="80.471962"
       x2="45.447727"
       y2="7.0165396"
       gradientUnits="userSpaceOnUse">
      <stop
         style="stop-color:#000000;stop-opacity:1;"
         offset="0"
         id="stop3167" />
      <stop
         style="stop-color:#000000;stop-opacity:0.58823532;"
         offset="1"
         id="stop3169" />
    </linearGradient>
    <linearGradient
       inkscape:collect="always"
       xlink:href="#ButtonShadow-4"
       id="linearGradient3977"
       gradientUnits="userSpaceOnUse"
       x1="45"
       y1="92"
       x2="45"
       y2="7" />
    <linearGradient
       id="linearGradient3172"
       gradientTransform="matrix(1.0058652,0,0,0.994169,0,12)"
       x1="45.447727"
       y1="80.471962"
       x2="45.447727"
       y2="7.0165396"
       gradientUnits="userSpaceOnUse">
      <stop
         style="stop-color:#000000;stop-opacity:1;"
         offset="0"
         id="stop3174" />
      <stop
         style="stop-color:#000000;stop-opacity:0.58823532;"
         offset="1"
         id="stop3176" />
    </linearGradient>
    <linearGradient
       inkscape:collect="always"
       xlink:href="#ButtonShadow-4"
       id="linearGradient3986"
       gradientUnits="userSpaceOnUse"
       x1="45"
       y1="92"
       x2="45"
       y2="7" />
    <linearGradient
       id="linearGradient3179"
       gradientTransform="matrix(1.0058652,0,0,0.994169,0,12)"
       x1="45.447727"
       y1="80.471962"
       x2="45.447727"
       y2="7.0165396"
       gradientUnits="userSpaceOnUse">
      <stop
         style="stop-color:#000000;stop-opacity:1;"
         offset="0"
         id="stop3181" />
      <stop
         style="stop-color:#000000;stop-opacity:0.58823532;"
         offset="1"
         id="stop3183" />
    </linearGradient>
    <linearGradient
       y2="7"
       x2="45"
       y1="92"
       x1="45"
       gradientUnits="userSpaceOnUse"
       id="linearGradient3202"
       xlink:href="#ButtonShadow-4"
       inkscape:collect="always" />
  </defs>
  <sodipodi:namedview
     id="base"
     pagecolor="#818181"
     bordercolor="#cc0000"
     borderopacity="1"
     inkscape:pageopacity="1"
     inkscape:pageshadow="2"
     inkscape:zoom="10.589622"
     inkscape:cx="9.3697885"
     inkscape:cy="12.288014"
     inkscape:document-units="px"
     inkscape:current-layer="layer6"
     showgrid="true"
     showborder="true"
     inkscape:showpageshadow="false"
     inkscape:window-width="1920"
     inkscape:window-height="1029"
     inkscape:window-x="0"
     inkscape:window-y="24"
     inkscape:window-maximized="1"
     inkscape:snap-global="true"
     showguides="true"
     inkscape:guide-bbox="true">
    <inkscape:grid
       type="xygrid"
       id="grid3732"
       visible="true"
       enabled="true"
       empspacing="8"
       snapvisiblegridlinesonly="true" />
    <sodipodi:guide
       orientation="0,1"
       position="60,68"
       id="guide4088" />
    <sodipodi:guide
       orientation="0,1"
       position="76,22"
       id="guide4090" />
  </sodipodi:namedview>
  <metadata
     id="metadata2413">
    <rdf:RDF>
      <cc:Work
         rdf:about="">
        <dc:format>image/svg+xml</dc:format>
        <dc:type
           rdf:resource="http://purl.org/dc/dcmitype/StillImage" />
        <dc:title />
      </cc:Work>
    </rdf:RDF>
  </metadata>
  <g
     inkscape:groupmode="layer"
     id="layer7"
     inkscape:label="Folder"
     sodipodi:insensitive="true">
    <path
       sodipodi:type="inkscape:offset"
       inkscape:radius="0.92770815"
       inkscape:original="M 14.125 4.9375 C 10.184407 4.9375 6.9375 8.0807925 6.9375 12 L 6.9375 14.59375 C 4.5548901 16.215826 2.9375 18.887678 2.9375 22 L 2.9375 85 C 2.9375 90.001444 6.9985559 94.0625 12 94.0625 L 84 94.0625 C 89.001444 94.0625 93.0625 90.001444 93.0625 85 L 93.0625 22 C 93.0625 18.739154 91.28931 15.960259 88.71875 14.375 C 87.957559 11.279325 85.241489 8.9375 81.875 8.9375 L 42.0625 8.9375 C 40.465021 7.3963057 39.290438 6.2599842 38.21875 5.65625 C 36.945571 4.9390059 35.771277 4.9685784 34.84375 4.9375 A 1.043776 1.043776 0 0 0 34.8125 4.9375 L 34.78125 4.9375 L 14.125 4.9375 z "
       style="opacity:0.07999998;fill:url(#linearGradient3202);fill-opacity:1;fill-rule:nonzero;stroke:none;display:inline"
       id="path3984"
       d="M 14.125,4 C 9.6910704,4 6,7.568413 6,12 l 0,2.15625 C 3.6235961,15.958367 2,18.759045 2,22 l 0,63 c 0,5.503629 4.496371,10 10,10 l 72,0 c 5.503629,0 10,-4.496371 10,-10 L 94,22 C 94,18.516601 92.146607,15.546894 89.46875,13.78125 88.481551,10.491738 85.526024,8 81.875,8 l -39.5,0 C 40.972352,6.645177 39.835329,5.4903784 38.6875,4.84375 37.192287,4.0014231 35.756649,4.0295412 34.875,4 a 0.92780092,0.92780092 0 0 0 -0.03125,0 c -0.0012,-1.73e-5 -0.03009,-1.73e-5 -0.03125,0 L 34.78125,4 14.125,4 z" />
    <path
       sodipodi:type="inkscape:offset"
       inkscape:radius="1.0436716"
       inkscape:original="M 14.125 5.96875 C 10.736326 5.96875 7.96875 8.6567706 7.96875 12 L 7.96875 15.125 C 5.5936068 16.519016 3.96875 19.045462 3.96875 22 L 3.96875 85 C 3.96875 89.438141 7.5618586 93.03125 12 93.03125 L 84 93.03125 C 88.438141 93.03125 92.03125 89.438141 92.03125 85 L 92.03125 22 C 92.03125 18.968008 90.319005 16.395638 87.84375 15.03125 C 87.351857 12.17163 84.915107 9.96875 81.875 9.96875 L 41.6875 9.96875 C 39.852667 8.1939079 38.678863 7.1033787 37.71875 6.5625 C 36.681475 5.9781523 35.778304 6.0011109 34.8125 5.96875 A 1.043776 1.043776 0 0 0 34.78125 5.96875 L 14.125 5.96875 z "
       style="opacity:0.1;fill:url(#linearGradient3977);fill-opacity:1;fill-rule:nonzero;stroke:none;display:inline"
       id="path3975"
       d="M 14.125,4.9375 C 10.184407,4.9375 6.9375,8.0807925 6.9375,12 l 0,2.59375 c -2.3826099,1.622076 -4,4.293928 -4,7.40625 l 0,63 c 0,5.001444 4.0610559,9.0625 9.0625,9.0625 l 72,0 c 5.001444,0 9.0625,-4.061056 9.0625,-9.0625 l 0,-63 c 0,-3.260846 -1.77319,-6.039741 -4.34375,-7.625 C 87.957559,11.279325 85.241489,8.9375 81.875,8.9375 l -39.8125,0 C 40.465021,7.3963057 39.290438,6.2599842 38.21875,5.65625 36.945571,4.9390059 35.771277,4.9685784 34.84375,4.9375 a 1.043776,1.043776 0 0 0 -0.03125,0 c -10e-7,0 -0.03125,0 -0.03125,0 l -20.65625,0 z" />
    <path
       sodipodi:type="inkscape:offset"
       inkscape:radius="1.0436716"
       inkscape:original="M 14.125 7 C 11.282105 7 9 9.23 9 12 L 9 15.6875 C 6.6359408 16.808884 5 19.200342 5 22 L 5 85 C 5 88.878 8.122 92 12 92 L 84 92 C 87.878 92 91 88.878 91 85 L 91 22 C 91 19.190264 89.346632 16.803629 86.96875 15.6875 C 86.799101 13.069075 84.606585 11 81.875 11 L 41.28125 11 C 37.060722 6.8876898 36.778482 7.0669206 34.78125 7 L 14.125 7 z "
       style="opacity:0.2;fill:url(#linearGradient3969);fill-opacity:1;fill-rule:nonzero;stroke:none;display:inline"
       id="path3967"
       d="M 14.125,5.96875 C 10.736326,5.96875 7.96875,8.6567706 7.96875,12 l 0,3.125 c -2.3751432,1.394016 -4,3.920462 -4,6.875 l 0,63 c 0,4.438141 3.5931086,8.03125 8.03125,8.03125 l 72,0 c 4.438141,0 8.03125,-3.593109 8.03125,-8.03125 l 0,-63 c 0,-3.031992 -1.712245,-5.604362 -4.1875,-6.96875 -0.491893,-2.85962 -2.928643,-5.0625 -5.96875,-5.0625 l -40.1875,0 C 39.852667,8.1939079 38.678863,7.1033787 37.71875,6.5625 36.681475,5.9781523 35.778304,6.0011109 34.8125,5.96875 a 1.043776,1.043776 0 0 0 -0.03125,0 l -20.65625,0 z" />
    <path
       style="opacity:0.3;fill:url(#linearGradient3961);fill-opacity:1;fill-rule:nonzero;stroke:none;display:inline"
       d="M 14.125,6.9999996 C 11.282105,6.9999996 9,9.2299996 9,12 l 0,3.6875 C 6.6359408,16.808884 5,19.200342 5,22 l 0,63 c 0,3.878 3.122,7 7,7 l 72,0 c 3.878,0 7,-3.122 7,-7 L 91,22 C 91,19.190264 89.346632,16.803629 86.96875,15.6875 86.799101,13.069075 84.606585,11 81.875,11 l -40.59375,0 c -4.220528,-4.1123106 -4.502768,-3.9330798 -6.5,-4.0000004 l -20.65625,0 z"
       id="path3908-1"
       inkscape:connector-curvature="0" />
    <path
       style="opacity:0.45;fill:url(#linearGradient3952);fill-opacity:1;fill-rule:nonzero;stroke:none;display:inline"
       d="m 15,6.9999996 c -2.77,0 -5,2.23 -5,5.0000004 l 0,3.34375 C 7.6664933,16.164656 6,18.378887 6,21 l 0,64 c 0,3.324 2.676,6 6,6 l 72,0 c 3.324,0 6,-2.676 6,-6 L 90,21 C 90,18.358112 88.300137,16.148775 85.9375,15.34375 85.611464,12.893448 83.542274,11 81,11 L 40.46875,11 C 36.35644,6.8876894 36.102271,7.0669202 34.15625,6.9999996 l -19.15625,0 z"
       id="path3941"
       inkscape:connector-curvature="0" />
    <rect
       style="fill:url(#linearGradient3361);fill-opacity:1;fill-rule:nonzero;stroke:none;display:inline"
       id="rect3352"
       width="75"
       height="62.678574"
       x="10.535714"
       y="23.142857"
       rx="6"
       ry="6" />
    <path
       style="fill:url(#linearGradient3105);fill-opacity:1;fill-rule:nonzero;stroke:none;display:inline"
       d="m 15,5.9999996 c -2.77,0 -5,2.23 -5,5.0000004 l 0,59.8125 c 0,2.39328 1.91922,4.3125 4.3125,4.3125 l 67.375,0 C 84.08078,75.125 86,73.20578 86,70.8125 L 86,15 C 86,12.23 83.77,9.9999996 81,9.9999996 l -40.53125,0 c -4.11231,-4.1123102 -4.366479,-3.9330794 -6.3125,-4 z"
       id="path3908"
       inkscape:connector-curvature="0"
       sodipodi:nodetypes="cccsscccccc" />
    <path
       style="opacity:0.15;fill:#ffffff;fill-opacity:1;fill-rule:nonzero;stroke:none;display:inline"
       d="m 15,5.9999996 c -2.77,0 -5,2.23 -5,5.0000004 l 0,59.8125 c 0,2.39328 1.91922,4.3125 4.3125,4.3125 l 67.375,0 C 84.08078,75.125 86,73.20578 86,70.8125 L 86,15 C 86,12.23 83.77,9.9999996 81,9.9999996 l -40.53125,0 c -4.11231,-4.1123102 -4.366479,-3.9330794 -6.3125,-4 l -19.15625,0 z m 0,1.03125 19.125,0 0.03125,0 c 0.964976,0.031157 1.192535,-0.016972 1.8125,0.34375 0.630289,0.366729 1.706808,1.3318077 3.75,3.3750004 a 1.043776,1.043776 0 0 0 0.75,0.28125 l 40.53125,0 c 2.209859,0 3.96875,1.758891 3.96875,3.96875 l 0,55.8125 c 0,1.835319 -1.445931,3.28125 -3.28125,3.28125 l -67.375,0 c -1.835319,0 -3.28125,-1.445931 -3.28125,-3.28125 l 0,-59.8125 c 0,-2.209859 1.758891,-3.9687504 3.96875,-3.9687504 z"
       id="path3108"
       inkscape:connector-curvature="0" />
    <rect
       style="fill:url(#linearGradient3706);fill-opacity:1;fill-rule:nonzero;stroke:none;display:inline"
       id="rect2419"
       width="84"
       height="76"
       x="6"
       y="14"
       rx="6"
       ry="6" />
    <path
       style="opacity:0.35;fill:url(#linearGradient3094);fill-opacity:1;fill-rule:nonzero;stroke:none;display:inline"
       d="M 12,86 C 8.676,86 6,83.324 6,80 L 6,20 c 0,-3.324 2.676,-6 6,-6 l 72,0 c 3.324,0 6,2.676 6,6 l 0,60 c 0,3.324 -2.676,6 -6,6 z m 0,-0.96875 72,0 c 2.80489,0 5.03125,-2.22636 5.03125,-5.03125 l 0,-60 c 0,-2.80489 -2.22636,-5.03125 -5.03125,-5.03125 l -72,0 c -2.8048898,0 -5.03125,2.22636 -5.03125,5.03125 l 0,60 c 0,2.80489 2.2263602,5.03125 5.03125,5.03125 z"
       id="rect4377"
       inkscape:connector-curvature="0"
       sodipodi:nodetypes="ssssssssssssssssss" />
    <path
       style="opacity:0.1;fill:#ffffff;fill-opacity:1;fill-rule:nonzero;stroke:none;display:inline"
       d="m 6,78 0,2 c 0,3.324 2.676,6 6,6 l 72,0 c 3.324,0 6,-2.676 6,-6 l 0,-2 c 0,3.324 -2.676,6 -6,6 L 12,84 C 8.676,84 6,81.324 6,78 z"
       id="rect3841"
       inkscape:connector-curvature="0" />
    <path
       style="fill:#6287c0;fill-opacity:1;fill-rule:nonzero;stroke:none;display:inline"
       d="m 6,80 0,4 c 0,3.324 2.676,6 6,6 l 72,0 c 3.324,0 6,-2.676 6,-6 l 0,-4 c 0,3.324 -2.676,6 -6,6 L 12,86 C 8.676,86 6,83.324 6,80 z"
       id="path3067"
       inkscape:connector-curvature="0" />
    <g
       style="display:inline"
       id="g4081"
       transform="translate(0,-10)">
      <path
         style="opacity:0.5;fill:url(#linearGradient4086);fill-opacity:1;fill-rule:nonzero;stroke:none;display:inline"
         d="m 6,90 0,4 c 0,3.324 2.676,6 6,6 l 72,0 c 3.324,0 6,-2.676 6,-6 l 0,-4 c 0,3.324 -2.676,6 -6,6 L 12,96 C 8.676,96 6,93.324 6,90 z"
         id="path3888"
         inkscape:connector-curvature="0" />
      <path
         inkscape:connector-curvature="0"
         id="rect4345"
         d="m 6,92 0,2 c 0,3.324 2.676,6 6,6 l 72,0 c 3.324,0 6,-2.676 6,-6 l 0,-2 c 0,3.324 -2.676,6 -6,6 L 12,98 C 8.676,98 6,95.324 6,92 z"
         style="opacity:0.1;color:#000000;fill:#000000;fill-opacity:1;fill-rule:nonzero;stroke:none;stroke-width:1.5;marker:none;visibility:visible;display:inline;overflow:visible;enable-background:accumulate" />
      <path
         inkscape:connector-curvature="0"
         id="rect4336"
         d="m 6,93 0,1 c 0,3.324 2.676,6 6,6 l 72,0 c 3.324,0 6,-2.676 6,-6 l 0,-1 c 0,3.324 -2.676,6 -6,6 L 12,99 C 8.676,99 6,96.324 6,93 z"
         style="opacity:0.15;color:#000000;fill:#000000;fill-opacity:1;fill-rule:nonzero;stroke:none;stroke-width:1.5;marker:none;visibility:visible;display:inline;overflow:visible;enable-background:accumulate" />
    </g>
    <path
       style="opacity:0.1;fill:url(#linearGradient3123);fill-opacity:1;fill-rule:nonzero;stroke:none;display:inline;filter:url(#filter3870)"
       clip-path="url(#clipPath3860-9)"
       d="m 15.96875,22.53125 c -2.845903,0.0043 -5.433244,2.591597 -5.4375,5.4375 l 0,48.0625 c 0.0043,2.845903 2.591597,5.433244 5.4375,5.4375 l 64.0625,0 c 2.845903,-0.0043 5.433244,-2.591597 5.4375,-5.4375 l 0,-48.0625 c -0.0043,-2.845903 -2.591597,-5.433244 -5.4375,-5.4375 z"
       id="path3850"
       inkscape:connector-curvature="0"
       sodipodi:nodetypes="ccccccccc" />
  </g>
  <g
     inkscape:groupmode="layer"
     id="layer6"
     inkscape:label="Symbol">
    <path
       inkscape:connector-curvature="0"
       style="opacity:0.05;fill:#ffffff;fill-opacity:1;stroke:none;display:inline"
       d="M 39.71875,26.03125 A 2.1288862,2.1288862 0 0 0 37.75,28.156251 l 0,23.781249 c -1.653973,-0.177503 -3.394983,-0.141161 -5.1875,0.34375 -2.697267,0.729661 -4.971509,2.110848 -6.5625,3.90625 -1.590991,1.795402 -2.540101,4.174255 -1.90625,6.5625 0.63337,2.386434 2.633204,4.014612 4.90625,4.78125 2.273046,0.766638 4.953208,0.824973 7.65625,0.09375 C 40.884944,66.481063 44.182423,63.756116 45,60.1875 a 2.1288862,2.1288862 0 0 0 0.3125,-1.09375 l 0,-16.9375 12.375,1.5625 0,14.28125 c -1.65959,-0.188001 -3.4136,-0.175828 -5.21875,0.3125 -2.701542,0.730818 -4.973147,2.102859 -6.5625,3.90625 -1.589353,1.803391 -2.540556,4.203787 -1.90625,6.59375 0.63337,2.386434 2.633204,4.014612 4.90625,4.78125 2.273046,0.766638 4.953208,0.824973 7.65625,0.09375 4.237977,-1.146449 7.527553,-3.89737 8.34375,-7.46875 a 2.1288862,2.1288862 0 0 0 0.3125,-1.09375 l 0,-33.843749 a 2.1288862,2.1288862 0 0 0 -1.84375,-2.125 L 40.15625,26.03125 a 2.1288862,2.1288862 0 0 0 -0.4375,0 z m 0.15625,2.125001 23.21875,3.125 0,33.843749 -0.03125,0 c -0.262771,2.690288 -3.100788,5.428286 -7.0625,6.5 -4.663064,1.261445 -9.115954,-0.2483 -9.9375,-3.34375 -0.821545,-3.095448 2.305688,-6.644804 6.96875,-7.90625 2.495083,-0.674968 4.931046,-0.537065 6.78125,0.1875 l 0,-18.75 -16.625,-2.09375 0,19.375 -0.03125,0 c -0.262771,2.690287 -3.100789,5.397037 -7.0625,6.46875 -4.663064,1.261445 -9.115954,-0.2483 -9.9375,-3.34375 -0.821545,-3.095444 2.305685,-6.613554 6.96875,-7.875 2.495081,-0.674968 4.899795,-0.568315 6.75,0.15625 l 0,-26.343749 z m 3.3125,6.34375 0,2.406249 16.625,2.09375 0,-2.125 -16.625,-2.374999 z"
       id="path4352" />
    <path
       inkscape:connector-curvature="0"
       style="opacity:0.1;fill:#ffffff;fill-opacity:1;stroke:none;display:inline"
       d="m 39.6875,26.96875 a 1.1793655,1.1793655 0 0 0 -1,1.187501 l 0,24.937499 c -1.806314,-0.377479 -3.788512,-0.439436 -5.875,0.125 -2.534143,0.685533 -4.680746,1.963938 -6.125,3.59375 -1.444254,1.629812 -2.190604,3.705393 -1.65625,5.71875 0.534088,2.012355 2.219726,3.429703 4.28125,4.125 2.061524,0.695297 4.556408,0.717648 7.09375,0.03125 4.087414,-1.105718 7.181577,-3.767636 7.78125,-6.96875 a 1.1793655,1.1793655 0 0 0 0.15625,-0.4375 1.1793655,1.1793655 0 0 0 0,-0.0625 1.1793655,1.1793655 0 0 0 0.03125,-0.125 l 0,-18.0625 14.25,1.8125 0,16.28125 c -1.810242,-0.385478 -3.812355,-0.441439 -5.90625,0.125 -2.536511,0.686174 -4.681653,1.987278 -6.125,3.625 -1.443347,1.637722 -2.190856,3.704441 -1.65625,5.71875 0.534088,2.012355 2.219726,3.429703 4.28125,4.125 2.061524,0.695297 4.556408,0.717648 7.09375,0.03125 4.092707,-1.10715 7.182143,-3.796812 7.78125,-7 a 1.1793655,1.1793655 0 0 0 0.15625,-0.4375 1.1793655,1.1793655 0 0 0 0,-0.0625 1.1793655,1.1793655 0 0 0 0.03125,-0.125 l 0,-33.843749 A 1.1793655,1.1793655 0 0 0 63.25,30.125001 L 40.03125,27 a 1.1793655,1.1793655 0 0 0 -0.21875,-0.03125 1.1793655,1.1793655 0 0 0 -0.125,0 z m 0.1875,1.187501 23.21875,3.125 0,33.843749 -0.03125,0 c -0.262771,2.690288 -3.100788,5.428286 -7.0625,6.5 -4.663064,1.261445 -9.115954,-0.2483 -9.9375,-3.34375 -0.821545,-3.095448 2.305688,-6.644804 6.96875,-7.90625 2.495083,-0.674968 4.931046,-0.537065 6.78125,0.1875 l 0,-18.75 -16.625,-2.09375 0,19.375 -0.03125,0 c -0.262771,2.690287 -3.100789,5.397037 -7.0625,6.46875 -4.663064,1.261445 -9.115954,-0.2483 -9.9375,-3.34375 -0.821545,-3.095444 2.305685,-6.613554 6.96875,-7.875 2.495081,-0.674968 4.899795,-0.568315 6.75,0.15625 l 0,-26.343749 z m 3.3125,6.34375 0,2.406249 16.625,2.09375 0,-2.125 -16.625,-2.374999 z m 1.1875,1.34375 1.875,0.281249 -1.875,-0.249999 0,-0.03125 z"
       id="path4341" />
    <path
       style="opacity:0.9;fill:url(#linearGradient3089);fill-opacity:1;stroke:none;display:inline"
       d="m 39.88072,28.163526 -2e-6,26.345596 c -1.850205,-0.724565 -4.268014,-0.848381 -6.763095,-0.173413 -4.663065,1.261446 -7.789585,4.802715 -6.96804,7.898159 0.821546,3.09545 5.268755,4.587818 9.931819,3.326373 3.961711,-1.071713 6.799858,-3.789045 7.062629,-6.479332 l 0.03153,0 0,-19.374929 16.631556,2.096716 0,18.760107 c -1.850204,-0.724565 -4.268014,-0.848381 -6.763097,-0.173413 -4.663062,1.261446 -7.789584,4.80271 -6.968039,7.898158 0.821546,3.09545 5.268757,4.587819 9.931821,3.326374 3.961712,-1.071714 6.799857,-3.789045 7.062628,-6.479333 l 0.03153,0 0,-33.849634 -23.22124,-3.121429 z m 3.29484,6.340072 16.631556,2.380483 0,2.128248 -16.631556,-2.096719 0,-2.412012 z"
       id="path3261"
       sodipodi:nodetypes="ccssscccccsssccccccccc"
       inkscape:connector-curvature="0" />
    <path
       inkscape:connector-curvature="0"
       style="opacity:0.25;fill:url(#linearGradient3132);fill-opacity:1;stroke:none;display:inline"
       d="m 39.875,28.156251 0,26.343749 c -1.850205,-0.724565 -4.254919,-0.831218 -6.75,-0.15625 -4.663065,1.261446 -7.790295,4.779556 -6.96875,7.875 0.821546,3.09545 5.274436,4.605195 9.9375,3.34375 3.961711,-1.071713 6.799729,-3.778463 7.0625,-6.46875 l 0.03125,0 0,-19.375 16.625,2.09375 0,18.75 c -1.850204,-0.724565 -4.286167,-0.862468 -6.78125,-0.1875 -4.663062,1.261446 -7.790295,4.810802 -6.96875,7.90625 0.821546,3.09545 5.274436,4.605195 9.9375,3.34375 3.961712,-1.071714 6.799729,-3.809712 7.0625,-6.5 l 0.03125,0 0,-33.843749 -23.21875,-3.125 z m 1.75,1.96875 19.71875,2.65625 0,3.281249 A 1.7488761,1.7488761 0 0 0 60.0625,35.156251 l -16.625,-2.375 a 1.7488761,1.7488761 0 0 0 -1.8125,0.9375 l 0,-3.59375 z m 1.5625,4.375 16.625,2.374999 0,2.125 -16.625,-2.09375 0,-2.406249 z M 41.625,37.65625 a 1.7488761,1.7488761 0 0 0 0.53125,0.65625 1.7488761,1.7488761 0 0 0 -0.53125,0.625 l 0,-1.28125 z m 19.71875,2.1875 0,1.15625 a 1.7488761,1.7488761 0 0 0 -0.5,-0.59375 1.7488761,1.7488761 0 0 0 0.5,-0.5625 z m -19.90625,15.4375 0,3.46875 a 1.7488761,1.7488761 0 0 0 -0.03125,0.1875 c -0.15538,1.590805 -2.332772,4.004625 -5.78125,4.9375 -2.026337,0.548162 -3.965795,0.475287 -5.375,0 -1.409205,-0.475287 -2.17834,-1.235023 -2.40625,-2.09375 -0.227514,-0.857234 0.07077,-1.912103 1.0625,-3.03125 0.99173,-1.119147 2.656418,-2.169304 4.6875,-2.71875 2.176862,-0.588883 4.230838,-0.464461 5.65625,0.09375 a 1.7488761,1.7488761 0 0 0 2.1875,-0.84375 z m 19.90625,6.125 0,3.375 a 1.7488761,1.7488761 0 0 0 -0.03125,0.1875 c -0.155508,1.592111 -2.341041,4.038112 -5.78125,4.96875 -2.026337,0.548162 -3.965795,0.475287 -5.375,0 -1.409205,-0.475287 -2.17834,-1.235023 -2.40625,-2.09375 -0.22714,-0.855826 0.06942,-1.935687 1.0625,-3.0625 0.993076,-1.126813 2.659932,-2.170255 4.6875,-2.71875 2.160178,-0.58437 4.252417,-0.436998 5.6875,0.125 a 1.7488761,1.7488761 0 0 0 2.15625,-0.78125 z"
       id="path4313" />
    <path
       inkscape:connector-curvature="0"
       style="fill:url(#linearGradient4297);fill-opacity:1;stroke:none;display:inline"
       d="m 39.875,28.156251 0,1 23.21875,3.125 0,-1 -23.21875,-3.125 z m 3.3125,8.749999 0,1 16.625,2.09375 0,-1 -16.625,-2.09375 z m -7.3125,17 c -0.888065,0.0389 -1.814345,0.184387 -2.75,0.4375 -4.436769,1.200229 -7.484981,4.457212 -7.0625,7.4375 0.288886,-2.678279 3.120453,-5.371103 7.0625,-6.4375 2.495081,-0.674968 4.899795,-0.568315 6.75,0.15625 l 0,-1 c -1.156378,-0.452853 -2.519891,-0.65858 -4,-0.59375 z m 20.78125,6.03125 c -1.147613,-0.03715 -2.377459,0.100016 -3.625,0.4375 -4.371621,1.182606 -7.378866,4.368255 -7.0625,7.3125 0.379238,-2.626803 3.196311,-5.266623 7.0625,-6.3125 2.495083,-0.674968 4.931046,-0.537065 6.78125,0.1875 l 0,-1 c -0.925102,-0.362282 -2.008637,-0.587846 -3.15625,-0.625 z"
       id="path4291" />
    <path
       inkscape:connector-curvature="0"
       style="opacity:0.5;fill:url(#linearGradient4310);fill-opacity:1;stroke:none;display:inline"
       d="m 39.875,28.156251 0,26.343749 c -1.850205,-0.724565 -4.254919,-0.831218 -6.75,-0.15625 -4.663065,1.261446 -7.790295,4.779556 -6.96875,7.875 0.821546,3.09545 5.274436,4.605195 9.9375,3.34375 3.961711,-1.071713 6.799729,-3.778463 7.0625,-6.46875 l 0.03125,0 0,-19.375 16.625,2.09375 0,18.75 c -1.850204,-0.724565 -4.286167,-0.862468 -6.78125,-0.1875 -4.663062,1.261446 -7.790295,4.810802 -6.96875,7.90625 0.821546,3.09545 5.274436,4.605195 9.9375,3.34375 3.961712,-1.071714 6.799729,-3.809712 7.0625,-6.5 l 0.03125,0 0,-33.843749 -23.21875,-3.125 z m 0.78125,0.90625 21.65625,2.90625 0,32.937499 a 0.79106295,0.79106295 0 0 0 -0.03125,0.15625 c -0.214253,2.193554 -2.774178,4.804598 -6.5,5.8125 -2.193484,0.593378 -4.314925,0.516001 -5.9375,-0.03125 -1.622575,-0.547251 -2.703191,-1.513927 -3.03125,-2.75 -0.327711,-1.23476 0.140893,-2.643571 1.28125,-3.9375 1.140357,-1.293929 2.96221,-2.437721 5.15625,-3.03125 2.343597,-0.633988 4.618816,-0.463532 6.28125,0.1875 a 0.79106295,0.79106295 0 0 0 1.0625,-0.75 l 0,-18.75 a 0.79106295,0.79106295 0 0 0 -0.6875,-0.78125 l -16.625,-2.09375 a 0.79106295,0.79106295 0 0 0 -0.875,0.78125 l 0,19.15625 A 0.79106295,0.79106295 0 0 0 42.375,59.03125 c -0.214195,2.192962 -2.770438,4.772337 -6.5,5.78125 -2.193484,0.593378 -4.314925,0.516001 -5.9375,-0.03125 -1.622575,-0.547251 -2.703191,-1.513927 -3.03125,-2.75 -0.32788,-1.235396 0.141502,-2.620067 1.28125,-3.90625 1.139748,-1.286183 2.960619,-2.437291 5.15625,-3.03125 2.351142,-0.63603 4.59194,-0.493068 6.25,0.15625 a 0.79106295,0.79106295 0 0 0 1.0625,-0.75 l 0,-25.437499 z m 2.40625,4.65625 a 0.79106295,0.79106295 0 0 0 -0.65625,0.78125 l 0,2.406249 a 0.79106295,0.79106295 0 0 0 0.6875,0.78125 l 16.625,2.09375 A 0.79106295,0.79106295 0 0 0 60.59375,39 l 0,-2.125 A 0.79106295,0.79106295 0 0 0 59.9375,36.09375 l -16.625,-2.374999 a 0.79106295,0.79106295 0 0 0 -0.25,0 z m 0.125,0.78125 16.625,2.374999 0,2.125 -16.625,-2.09375 0,-2.406249 z"
       id="path4300" />
    <path
       inkscape:connector-curvature="0"
       style="opacity:0.2;fill:#ffffff;fill-opacity:1;stroke:none;display:inline"
       d="m 43.1875,34.500001 0,1 16.625,2.374999 0,-1 -16.625,-2.374999 z m 0,5.218749 0,1 16.625,2.09375 0,-1 -16.625,-2.09375 z m -0.03125,19.375 c -0.262771,2.690287 -3.100789,5.397037 -7.0625,6.46875 -4.663064,1.261445 -9.115954,-0.2483 -9.9375,-3.34375 -0.03987,-0.15022 -0.0722,-0.285492 -0.09375,-0.4375 -0.05284,0.489869 -0.03328,0.958872 0.09375,1.4375 0.821546,3.09545 5.274436,4.605195 9.9375,3.34375 3.961711,-1.071713 6.799729,-3.778463 7.0625,-6.46875 l 0.03125,0 0,-1 -0.03125,0 z M 63.0625,65.125 c -0.262771,2.690288 -3.100788,5.428286 -7.0625,6.5 -4.663064,1.261445 -9.115954,-0.2483 -9.9375,-3.34375 -0.04607,-0.173596 -0.07209,-0.35533 -0.09375,-0.53125 -0.06761,0.520827 -0.0413,1.022409 0.09375,1.53125 0.821546,3.09545 5.274436,4.605195 9.9375,3.34375 3.961712,-1.071714 6.799729,-3.809712 7.0625,-6.5 l 0.03125,0 0,-1 -0.03125,0 z"
       id="path4326" />
    <path
       inkscape:connector-curvature="0"
       id="path4346"
       d="m 39.875,28.156251 0,26.343749 c -1.850205,-0.724565 -4.254919,-0.831218 -6.75,-0.15625 -4.663065,1.261446 -7.790295,4.779556 -6.96875,7.875 0.821546,3.09545 5.274436,4.605195 9.9375,3.34375 3.961711,-1.071713 6.799729,-3.778463 7.0625,-6.46875 l 0.03125,0 0,-19.375 16.625,2.09375 0,18.75 c -1.850204,-0.724565 -4.286167,-0.862468 -6.78125,-0.1875 -4.663062,1.261446 -7.790295,4.810802 -6.96875,7.90625 0.821546,3.09545 5.274436,4.605195 9.9375,3.34375 3.961712,-1.071714 6.799729,-3.809712 7.0625,-6.5 l 0.03125,0 0,-33.843749 -23.21875,-3.125 z m 1.75,1.96875 19.71875,2.65625 0,3.281249 A 1.7488761,1.7488761 0 0 0 60.0625,35.156251 l -16.625,-2.375 a 1.7488761,1.7488761 0 0 0 -1.8125,0.9375 l 0,-3.59375 z m 1.5625,4.375 16.625,2.374999 0,2.125 -16.625,-2.09375 0,-2.406249 z M 41.625,37.65625 a 1.7488761,1.7488761 0 0 0 0.53125,0.65625 1.7488761,1.7488761 0 0 0 -0.53125,0.625 l 0,-1.28125 z m 19.71875,2.1875 0,1.15625 a 1.7488761,1.7488761 0 0 0 -0.5,-0.59375 1.7488761,1.7488761 0 0 0 0.5,-0.5625 z m -19.90625,15.4375 0,3.46875 a 1.7488761,1.7488761 0 0 0 -0.03125,0.1875 c -0.15538,1.590805 -2.332772,4.004625 -5.78125,4.9375 -2.026337,0.548162 -3.965795,0.475287 -5.375,0 -1.409205,-0.475287 -2.17834,-1.235023 -2.40625,-2.09375 -0.227514,-0.857234 0.07077,-1.912103 1.0625,-3.03125 0.99173,-1.119147 2.656418,-2.169304 4.6875,-2.71875 2.176862,-0.588883 4.230838,-0.464461 5.65625,0.09375 a 1.7488761,1.7488761 0 0 0 2.1875,-0.84375 z m 19.90625,6.125 0,3.375 a 1.7488761,1.7488761 0 0 0 -0.03125,0.1875 c -0.155508,1.592111 -2.341041,4.038112 -5.78125,4.96875 -2.026337,0.548162 -3.965795,0.475287 -5.375,0 -1.409205,-0.475287 -2.17834,-1.235023 -2.40625,-2.09375 -0.22714,-0.855826 0.06942,-1.935687 1.0625,-3.0625 0.993076,-1.126813 2.659932,-2.170255 4.6875,-2.71875 2.160178,-0.58437 4.252417,-0.436998 5.6875,0.125 a 1.7488761,1.7488761 0 0 0 2.15625,-0.78125 z"
       style="opacity:0.25;fill:url(#linearGradient4323);fill-opacity:1;stroke:none;display:inline" />
  </g>
</svg>
