<?xml version="1.0" encoding="UTF-8" standalone="no"?>
<!-- Created with Inkscape (http://www.inkscape.org/) -->

<svg
   xmlns:dc="http://purl.org/dc/elements/1.1/"
   xmlns:cc="http://creativecommons.org/ns#"
   xmlns:rdf="http://www.w3.org/1999/02/22-rdf-syntax-ns#"
   xmlns:svg="http://www.w3.org/2000/svg"
   xmlns="http://www.w3.org/2000/svg"
   xmlns:xlink="http://www.w3.org/1999/xlink"
   xmlns:sodipodi="http://sodipodi.sourceforge.net/DTD/sodipodi-0.dtd"
   xmlns:inkscape="http://www.inkscape.org/namespaces/inkscape"
   width="96"
   height="96"
   id="svg2408"
   sodipodi:version="0.32"
   inkscape:version="0.48.3.1 r9886"
   version="1.0"
   sodipodi:docname="user-home.svg"
   inkscape:output_extension="org.inkscape.output.svg.inkscape"
   style="display:inline">
  <defs
     id="defs2410">
    <linearGradient
       id="linearGradient4164">
      <stop
         id="stop4166"
         offset="0"
         style="stop-color:#5178b3;stop-opacity:0.78431374;" />
      <stop
         id="stop4168"
         offset="1"
         style="stop-color:#5178b3;stop-opacity:0.39215687;" />
    </linearGradient>
    <linearGradient
       id="linearGradient4075">
      <stop
         id="stop4077"
         offset="0"
         style="stop-color:#5e83b2;stop-opacity:1" />
      <stop
         id="stop4079"
         offset="1"
         style="stop-color:#95b6d9;stop-opacity:1" />
    </linearGradient>
    <linearGradient
       id="linearGradient4008">
      <stop
         id="stop4010"
         offset="0"
         style="stop-color:#9cb9db;stop-opacity:1" />
      <stop
         style="stop-color:#6d91be;stop-opacity:1"
         offset="0.71691591"
         id="stop4012" />
      <stop
         id="stop4014"
         offset="1"
         style="stop-color:#4b709e;stop-opacity:1" />
    </linearGradient>
    <linearGradient
       gradientUnits="userSpaceOnUse"
       y2="20.137329"
       x2="11.794092"
       y1="3.2126782"
       x1="11.794092"
       gradientTransform="scale(1.0598527,0.9435274)"
       id="linearGradient3317">
      <stop
         id="stop3319"
         offset="0"
         style="stop-color:#c6953a;stop-opacity:1" />
      <stop
         id="stop3321"
         offset="1"
         style="stop-color:#ab7a1f;stop-opacity:1" />
    </linearGradient>
    <linearGradient
       id="ButtonShadow"
       gradientTransform="matrix(1.0058652,0,0,0.994169,0,12)"
       x1="45.447727"
       y1="80.471962"
       x2="45.447727"
       y2="7.0165396"
       gradientUnits="userSpaceOnUse">
      <stop
         style="stop-color:#000000;stop-opacity:1;"
         offset="0"
         id="stop3750" />
      <stop
         style="stop-color:#000000;stop-opacity:0.58823532;"
         offset="1"
         id="stop3752" />
    </linearGradient>
    <linearGradient
       id="linearGradient3892">
      <stop
         style="stop-color:#000000;stop-opacity:0.58823532;"
         offset="0"
         id="stop3894" />
      <stop
         id="stop3896"
         offset="0.11780351"
         style="stop-color:#000000;stop-opacity:0.47058824;" />
      <stop
         style="stop-color:#000000;stop-opacity:0.39215687;"
         offset="0.23809524"
         id="stop3898" />
      <stop
         style="stop-color:#000000;stop-opacity:0.3137255;"
         offset="1"
         id="stop3900" />
    </linearGradient>
    <linearGradient
       id="linearGradient4384">
      <stop
         style="stop-color:#ffffff;stop-opacity:1;"
         offset="0"
         id="stop4386" />
      <stop
         style="stop-color:#ffffff;stop-opacity:0;"
         offset="1"
         id="stop4388" />
    </linearGradient>
    <linearGradient
       inkscape:collect="always"
       xlink:href="#linearGradient4164"
       id="linearGradient3965"
       gradientUnits="userSpaceOnUse"
       gradientTransform="translate(0,-4)"
       x1="47"
       y1="76"
       x2="47"
       y2="33.086185" />
    <linearGradient
       inkscape:collect="always"
       xlink:href="#linearGradient4164"
       id="linearGradient3956"
       gradientUnits="userSpaceOnUse"
       gradientTransform="translate(0,-4)"
       x1="47"
       y1="76"
       x2="47"
       y2="33.086185" />
    <linearGradient
       inkscape:collect="always"
       xlink:href="#linearGradient4164"
       id="linearGradient3947"
       gradientUnits="userSpaceOnUse"
       gradientTransform="translate(0,-4)"
       x1="47"
       y1="76"
       x2="47"
       y2="33.086185" />
    <linearGradient
       y2="33.086185"
       x2="47"
       y1="76"
       x1="47"
       gradientUnits="userSpaceOnUse"
       id="linearGradient3078"
       xlink:href="#linearGradient4164"
       inkscape:collect="always"
       gradientTransform="translate(0,-4)" />
    <linearGradient
       inkscape:collect="always"
       xlink:href="#linearGradient3874-8"
       id="linearGradient3123-1"
       gradientUnits="userSpaceOnUse"
       x1="48.021698"
       y1="22.933374"
       x2="48.021698"
       y2="81.481377" />
    <linearGradient
       inkscape:collect="always"
       id="linearGradient3874-8">
      <stop
         style="stop-color:#ffffff;stop-opacity:1;"
         offset="0"
         id="stop3876-5" />
      <stop
         style="stop-color:#ffffff;stop-opacity:0;"
         offset="1"
         id="stop3878-9" />
    </linearGradient>
    <clipPath
       clipPathUnits="userSpaceOnUse"
       id="clipPath3860">
      <rect
         ry="6"
         rx="6"
         y="18"
         x="6"
         height="72"
         width="84"
         id="rect3862"
         style="fill:#ff00ff;fill-opacity:1;fill-rule:nonzero;stroke:none" />
    </clipPath>
    <linearGradient
       inkscape:collect="always"
       xlink:href="#linearGradient3892-8"
       id="linearGradient4086-3"
       gradientUnits="userSpaceOnUse"
       gradientTransform="translate(0,10)"
       spreadMethod="reflect"
       x1="90"
       y1="88"
       x2="48"
       y2="88" />
    <linearGradient
       id="linearGradient3892-8">
      <stop
         style="stop-color:#000000;stop-opacity:0.58823532;"
         offset="0"
         id="stop3894-8" />
      <stop
         id="stop3896-3"
         offset="0.11780351"
         style="stop-color:#000000;stop-opacity:0.47058824;" />
      <stop
         style="stop-color:#000000;stop-opacity:0.39215687;"
         offset="0.23809524"
         id="stop3898-1" />
      <stop
         style="stop-color:#000000;stop-opacity:0.3137255;"
         offset="1"
         id="stop3900-8" />
    </linearGradient>
    <linearGradient
       y2="-40"
       x2="48"
       y1="75.08329"
       x1="48"
       gradientTransform="matrix(1,0,0,-1,0,92)"
       gradientUnits="userSpaceOnUse"
       id="linearGradient3094-9"
       xlink:href="#linearGradient4384-6"
       inkscape:collect="always" />
    <linearGradient
       id="linearGradient4384-6">
      <stop
         style="stop-color:#ffffff;stop-opacity:1;"
         offset="0"
         id="stop4386-4" />
      <stop
         style="stop-color:#ffffff;stop-opacity:0;"
         offset="1"
         id="stop4388-3" />
    </linearGradient>
    <linearGradient
       inkscape:collect="always"
       xlink:href="#linearGradient4075-3"
       id="linearGradient3706-3"
       x1="48"
       y1="78"
       x2="48"
       y2="5.9877172"
       gradientUnits="userSpaceOnUse"
       gradientTransform="translate(0,7.9999996)" />
    <linearGradient
       id="linearGradient4075-3">
      <stop
         id="stop4077-8"
         offset="0"
         style="stop-color:#72a0c2;stop-opacity:1;" />
      <stop
         id="stop4079-6"
         offset="1"
         style="stop-color:#afcbde;stop-opacity:1;" />
    </linearGradient>
    <linearGradient
       inkscape:collect="always"
       xlink:href="#linearGradient4008-4"
       id="linearGradient3105-0"
       gradientUnits="userSpaceOnUse"
       gradientTransform="matrix(0.72,0,0,0.72,1.92,-5.5200004)"
       x1="34.85965"
       y1="16.275133"
       x2="34.85965"
       y2="26.986736" />
    <linearGradient
       id="linearGradient4008-4">
      <stop
         id="stop4010-8"
         offset="0"
         style="stop-color:#9bbbd5;stop-opacity:1;" />
      <stop
         style="stop-color:#80a9c9;stop-opacity:1;"
         offset="0.75"
         id="stop3895" />
      <stop
         id="stop4014-8"
         offset="1"
         style="stop-color:#5b91b9;stop-opacity:1;" />
    </linearGradient>
    <linearGradient
       inkscape:collect="always"
       xlink:href="#linearGradient3317-9"
       id="linearGradient3361-8"
       x1="48.035713"
       y1="25.910715"
       x2="48.035713"
       y2="85.821426"
       gradientUnits="userSpaceOnUse" />
    <linearGradient
       gradientUnits="userSpaceOnUse"
       y2="20.137329"
       x2="11.794092"
       y1="3.2126782"
       x1="11.794092"
       gradientTransform="scale(1.0598527,0.9435274)"
       id="linearGradient3317-9">
      <stop
         id="stop3319-7"
         offset="0"
         style="stop-color:#c6953a;stop-opacity:1" />
      <stop
         id="stop3321-7"
         offset="1"
         style="stop-color:#ab7a1f;stop-opacity:1" />
    </linearGradient>
    <linearGradient
       inkscape:collect="always"
       xlink:href="#ButtonShadow-4"
       id="linearGradient3952-6"
       x1="43"
       y1="91"
       x2="43"
       y2="7"
       gradientUnits="userSpaceOnUse" />
    <linearGradient
       id="ButtonShadow-4"
       gradientTransform="matrix(1.0058652,0,0,0.994169,0,12)"
       x1="45.447727"
       y1="80.471962"
       x2="45.447727"
       y2="7.0165396"
       gradientUnits="userSpaceOnUse">
      <stop
         style="stop-color:#000000;stop-opacity:1;"
         offset="0"
         id="stop3750-3" />
      <stop
         style="stop-color:#000000;stop-opacity:0.58823532;"
         offset="1"
         id="stop3752-0" />
    </linearGradient>
    <linearGradient
       inkscape:collect="always"
       xlink:href="#ButtonShadow-4"
       id="linearGradient3961-3"
       x1="45"
       y1="92"
       x2="45"
       y2="7"
       gradientUnits="userSpaceOnUse" />
    <linearGradient
       id="linearGradient3943"
       gradientTransform="matrix(1.0058652,0,0,0.994169,0,12)"
       x1="45.447727"
       y1="80.471962"
       x2="45.447727"
       y2="7.0165396"
       gradientUnits="userSpaceOnUse">
      <stop
         style="stop-color:#000000;stop-opacity:1;"
         offset="0"
         id="stop3945" />
      <stop
         style="stop-color:#000000;stop-opacity:0.58823532;"
         offset="1"
         id="stop3947" />
    </linearGradient>
    <linearGradient
       inkscape:collect="always"
       xlink:href="#ButtonShadow-4"
       id="linearGradient3969-0"
       gradientUnits="userSpaceOnUse"
       x1="45"
       y1="92"
       x2="45"
       y2="7" />
    <linearGradient
       id="linearGradient3950"
       gradientTransform="matrix(1.0058652,0,0,0.994169,0,12)"
       x1="45.447727"
       y1="80.471962"
       x2="45.447727"
       y2="7.0165396"
       gradientUnits="userSpaceOnUse">
      <stop
         style="stop-color:#000000;stop-opacity:1;"
         offset="0"
         id="stop3952" />
      <stop
         style="stop-color:#000000;stop-opacity:0.58823532;"
         offset="1"
         id="stop3954" />
    </linearGradient>
    <linearGradient
       inkscape:collect="always"
       xlink:href="#ButtonShadow-4"
       id="linearGradient3977-9"
       gradientUnits="userSpaceOnUse"
       x1="45"
       y1="92"
       x2="45"
       y2="7" />
    <linearGradient
       id="linearGradient3957"
       gradientTransform="matrix(1.0058652,0,0,0.994169,0,12)"
       x1="45.447727"
       y1="80.471962"
       x2="45.447727"
       y2="7.0165396"
       gradientUnits="userSpaceOnUse">
      <stop
         style="stop-color:#000000;stop-opacity:1;"
         offset="0"
         id="stop3959" />
      <stop
         style="stop-color:#000000;stop-opacity:0.58823532;"
         offset="1"
         id="stop3961" />
    </linearGradient>
    <linearGradient
       inkscape:collect="always"
       xlink:href="#ButtonShadow-4"
       id="linearGradient3986-2"
       gradientUnits="userSpaceOnUse"
       x1="45"
       y1="92"
       x2="45"
       y2="7" />
    <linearGradient
       id="linearGradient3964"
       gradientTransform="matrix(1.0058652,0,0,0.994169,0,12)"
       x1="45.447727"
       y1="80.471962"
       x2="45.447727"
       y2="7.0165396"
       gradientUnits="userSpaceOnUse">
      <stop
         style="stop-color:#000000;stop-opacity:1;"
         offset="0"
         id="stop3966" />
      <stop
         style="stop-color:#000000;stop-opacity:0.58823532;"
         offset="1"
         id="stop3968" />
    </linearGradient>
    <linearGradient
       y2="7"
       x2="45"
       y1="92"
       x1="45"
       gradientUnits="userSpaceOnUse"
       id="linearGradient3987"
       xlink:href="#ButtonShadow-4"
       inkscape:collect="always" />
    <linearGradient
       inkscape:collect="always"
       xlink:href="#linearGradient3874"
       id="linearGradient3123"
       gradientUnits="userSpaceOnUse"
       x1="48.021698"
       y1="22.933374"
       x2="48.021698"
       y2="81.481377" />
    <linearGradient
       inkscape:collect="always"
       id="linearGradient3874">
      <stop
         style="stop-color:#ffffff;stop-opacity:1;"
         offset="0"
         id="stop3876" />
      <stop
         style="stop-color:#ffffff;stop-opacity:0;"
         offset="1"
         id="stop3878" />
    </linearGradient>
    <clipPath
       clipPathUnits="userSpaceOnUse"
       id="clipPath3860-6">
      <rect
         ry="6"
         rx="6"
         y="18"
         x="6"
         height="72"
         width="84"
         id="rect3862-9"
         style="fill:#ff00ff;fill-opacity:1;fill-rule:nonzero;stroke:none" />
    </clipPath>
    <filter
       color-interpolation-filters="sRGB"
       inkscape:collect="always"
       id="filter3870"
       x="-0.16558799"
       width="1.331176"
       y="-0.19715989"
       height="1.3943198">
      <feGaussianBlur
         inkscape:collect="always"
         stdDeviation="5.1703125"
         id="feGaussianBlur3872" />
    </filter>
    <linearGradient
       inkscape:collect="always"
       xlink:href="#linearGradient3892-7"
       id="linearGradient4086"
       gradientUnits="userSpaceOnUse"
       spreadMethod="reflect"
       x1="90"
       y1="88"
       x2="48"
       y2="88"
       gradientTransform="translate(0,10)" />
    <linearGradient
       id="linearGradient3892-7">
      <stop
         style="stop-color:#000000;stop-opacity:0.58823532;"
         offset="0"
         id="stop3894-3" />
      <stop
         id="stop3896-8"
         offset="0.11780351"
         style="stop-color:#000000;stop-opacity:0.47058824;" />
      <stop
         style="stop-color:#000000;stop-opacity:0.39215687;"
         offset="0.23809524"
         id="stop3898-0" />
      <stop
         style="stop-color:#000000;stop-opacity:0.3137255;"
         offset="1"
         id="stop3900-2" />
    </linearGradient>
    <linearGradient
       y2="-40"
       x2="48"
       y1="75.08329"
       x1="48"
       gradientTransform="matrix(1,0,0,-1,0,92)"
       gradientUnits="userSpaceOnUse"
       id="linearGradient3094"
       xlink:href="#linearGradient4384-7"
       inkscape:collect="always" />
    <linearGradient
       id="linearGradient4384-7">
      <stop
         style="stop-color:#ffffff;stop-opacity:1;"
         offset="0"
         id="stop4386-8" />
      <stop
         style="stop-color:#ffffff;stop-opacity:0;"
         offset="1"
         id="stop4388-8" />
    </linearGradient>
    <linearGradient
       inkscape:collect="always"
       xlink:href="#linearGradient4075-2"
       id="linearGradient3706"
       x1="48"
       y1="78"
       x2="48"
       y2="5.9877172"
       gradientUnits="userSpaceOnUse"
       gradientTransform="translate(0,7.9999996)" />
    <linearGradient
       id="linearGradient4075-2">
      <stop
         id="stop4077-3"
         offset="0"
         style="stop-color:#6e92c6;stop-opacity:1;" />
      <stop
         id="stop4079-7"
         offset="1"
         style="stop-color:#afc2df;stop-opacity:1;" />
    </linearGradient>
    <linearGradient
       inkscape:collect="always"
       xlink:href="#linearGradient4008-9"
       id="linearGradient3105"
       gradientUnits="userSpaceOnUse"
       gradientTransform="matrix(0.72,0,0,0.72,1.92,-5.5200004)"
       x1="34.85965"
       y1="16.275133"
       x2="34.85965"
       y2="26.986736" />
    <linearGradient
       id="linearGradient4008-9">
      <stop
         id="stop4010-1"
         offset="0"
         style="stop-color:#99b2d7;stop-opacity:1;" />
      <stop
         style="stop-color:#7e9dcc;stop-opacity:1;"
         offset="0.75"
         id="stop3895-4" />
      <stop
         id="stop4014-9"
         offset="1"
         style="stop-color:#5880bc;stop-opacity:1;" />
    </linearGradient>
    <linearGradient
       inkscape:collect="always"
       xlink:href="#linearGradient3317-5"
       id="linearGradient3361"
       x1="48.035713"
       y1="25.910715"
       x2="48.035713"
       y2="85.821426"
       gradientUnits="userSpaceOnUse" />
    <linearGradient
       gradientUnits="userSpaceOnUse"
       y2="20.137329"
       x2="11.794092"
       y1="3.2126782"
       x1="11.794092"
       gradientTransform="scale(1.0598527,0.9435274)"
       id="linearGradient3317-5">
      <stop
         id="stop3319-1"
         offset="0"
         style="stop-color:#c6953a;stop-opacity:1" />
      <stop
         id="stop3321-2"
         offset="1"
         style="stop-color:#ab7a1f;stop-opacity:1" />
    </linearGradient>
    <linearGradient
       inkscape:collect="always"
       xlink:href="#ButtonShadow-3"
       id="linearGradient3952"
       x1="43"
       y1="91"
       x2="43"
       y2="7"
       gradientUnits="userSpaceOnUse" />
    <linearGradient
       id="ButtonShadow-3"
       gradientTransform="matrix(1.0058652,0,0,0.994169,0,12)"
       x1="45.447727"
       y1="80.471962"
       x2="45.447727"
       y2="7.0165396"
       gradientUnits="userSpaceOnUse">
      <stop
         style="stop-color:#000000;stop-opacity:1;"
         offset="0"
         id="stop3750-4" />
      <stop
         style="stop-color:#000000;stop-opacity:0.58823532;"
         offset="1"
         id="stop3752-1" />
    </linearGradient>
    <linearGradient
       inkscape:collect="always"
       xlink:href="#ButtonShadow-3"
       id="linearGradient3961"
       x1="45"
       y1="92"
       x2="45"
       y2="7"
       gradientUnits="userSpaceOnUse" />
    <linearGradient
       id="linearGradient3158"
       gradientTransform="matrix(1.0058652,0,0,0.994169,0,12)"
       x1="45.447727"
       y1="80.471962"
       x2="45.447727"
       y2="7.0165396"
       gradientUnits="userSpaceOnUse">
      <stop
         style="stop-color:#000000;stop-opacity:1;"
         offset="0"
         id="stop3160" />
      <stop
         style="stop-color:#000000;stop-opacity:0.58823532;"
         offset="1"
         id="stop3162" />
    </linearGradient>
    <linearGradient
       inkscape:collect="always"
       xlink:href="#ButtonShadow-3"
       id="linearGradient3969"
       gradientUnits="userSpaceOnUse"
       x1="45"
       y1="92"
       x2="45"
       y2="7" />
    <linearGradient
       id="linearGradient3165"
       gradientTransform="matrix(1.0058652,0,0,0.994169,0,12)"
       x1="45.447727"
       y1="80.471962"
       x2="45.447727"
       y2="7.0165396"
       gradientUnits="userSpaceOnUse">
      <stop
         style="stop-color:#000000;stop-opacity:1;"
         offset="0"
         id="stop3167" />
      <stop
         style="stop-color:#000000;stop-opacity:0.58823532;"
         offset="1"
         id="stop3169" />
    </linearGradient>
    <linearGradient
       inkscape:collect="always"
       xlink:href="#ButtonShadow-3"
       id="linearGradient3977"
       gradientUnits="userSpaceOnUse"
       x1="45"
       y1="92"
       x2="45"
       y2="7" />
    <linearGradient
       id="linearGradient3172"
       gradientTransform="matrix(1.0058652,0,0,0.994169,0,12)"
       x1="45.447727"
       y1="80.471962"
       x2="45.447727"
       y2="7.0165396"
       gradientUnits="userSpaceOnUse">
      <stop
         style="stop-color:#000000;stop-opacity:1;"
         offset="0"
         id="stop3174" />
      <stop
         style="stop-color:#000000;stop-opacity:0.58823532;"
         offset="1"
         id="stop3176" />
    </linearGradient>
    <linearGradient
       inkscape:collect="always"
       xlink:href="#ButtonShadow-3"
       id="linearGradient3986"
       gradientUnits="userSpaceOnUse"
       x1="45"
       y1="92"
       x2="45"
       y2="7" />
    <linearGradient
       id="linearGradient3179"
       gradientTransform="matrix(1.0058652,0,0,0.994169,0,12)"
       x1="45.447727"
       y1="80.471962"
       x2="45.447727"
       y2="7.0165396"
       gradientUnits="userSpaceOnUse">
      <stop
         style="stop-color:#000000;stop-opacity:1;"
         offset="0"
         id="stop3181" />
      <stop
         style="stop-color:#000000;stop-opacity:0.58823532;"
         offset="1"
         id="stop3183" />
    </linearGradient>
    <linearGradient
       y2="7"
       x2="45"
       y1="92"
       x1="45"
       gradientUnits="userSpaceOnUse"
       id="linearGradient3202"
       xlink:href="#ButtonShadow-3"
       inkscape:collect="always" />
  </defs>
  <sodipodi:namedview
     id="base"
     pagecolor="#818181"
     bordercolor="#cc0000"
     borderopacity="1"
     inkscape:pageopacity="1"
     inkscape:pageshadow="2"
     inkscape:zoom="8.6234019"
     inkscape:cx="-16.797418"
     inkscape:cy="47.17893"
     inkscape:document-units="px"
     inkscape:current-layer="layer1"
     showgrid="true"
     showborder="true"
     inkscape:showpageshadow="false"
     inkscape:window-width="1920"
     inkscape:window-height="1029"
     inkscape:window-x="0"
     inkscape:window-y="24"
     inkscape:window-maximized="1"
     inkscape:snap-global="true"
     showguides="true"
     inkscape:guide-bbox="true">
    <inkscape:grid
       type="xygrid"
       id="grid3732"
       visible="true"
       enabled="true"
       empspacing="8"
       snapvisiblegridlinesonly="true" />
    <sodipodi:guide
       orientation="0,1"
       position="60,68"
       id="guide4088" />
    <sodipodi:guide
       orientation="0,1"
       position="76,22"
       id="guide4090" />
  </sodipodi:namedview>
  <metadata
     id="metadata2413">
    <rdf:RDF>
      <cc:Work
         rdf:about="">
        <dc:format>image/svg+xml</dc:format>
        <dc:type
           rdf:resource="http://purl.org/dc/dcmitype/StillImage" />
        <dc:title />
      </cc:Work>
    </rdf:RDF>
  </metadata>
  <g
     inkscape:groupmode="layer"
     id="layer1"
     inkscape:label="Folder"
     sodipodi:insensitive="true">
    <path
       sodipodi:type="inkscape:offset"
       inkscape:radius="0.92770815"
       inkscape:original="M 14.125 4.9375 C 10.184407 4.9375 6.9375 8.0807925 6.9375 12 L 6.9375 14.59375 C 4.5548901 16.215826 2.9375 18.887678 2.9375 22 L 2.9375 85 C 2.9375 90.001444 6.9985559 94.0625 12 94.0625 L 84 94.0625 C 89.001444 94.0625 93.0625 90.001444 93.0625 85 L 93.0625 22 C 93.0625 18.739154 91.28931 15.960259 88.71875 14.375 C 87.957559 11.279325 85.241489 8.9375 81.875 8.9375 L 42.0625 8.9375 C 40.465021 7.3963057 39.290438 6.2599842 38.21875 5.65625 C 36.945571 4.9390059 35.771277 4.9685784 34.84375 4.9375 A 1.043776 1.043776 0 0 0 34.8125 4.9375 L 34.78125 4.9375 L 14.125 4.9375 z "
       style="opacity:0.07999998;fill:url(#linearGradient3202);fill-opacity:1;fill-rule:nonzero;stroke:none;display:inline"
       id="path3984"
       d="M 14.125,4 C 9.6910704,4 6,7.568413 6,12 l 0,2.15625 C 3.6235961,15.958367 2,18.759045 2,22 l 0,63 c 0,5.503629 4.496371,10 10,10 l 72,0 c 5.503629,0 10,-4.496371 10,-10 L 94,22 C 94,18.516601 92.146607,15.546894 89.46875,13.78125 88.481551,10.491738 85.526024,8 81.875,8 l -39.5,0 C 40.972352,6.645177 39.835329,5.4903784 38.6875,4.84375 37.192287,4.0014231 35.756649,4.0295412 34.875,4 a 0.92780092,0.92780092 0 0 0 -0.03125,0 c -0.0012,-1.73e-5 -0.03009,-1.73e-5 -0.03125,0 L 34.78125,4 14.125,4 z" />
    <path
       sodipodi:type="inkscape:offset"
       inkscape:radius="1.0436716"
       inkscape:original="M 14.125 5.96875 C 10.736326 5.96875 7.96875 8.6567706 7.96875 12 L 7.96875 15.125 C 5.5936068 16.519016 3.96875 19.045462 3.96875 22 L 3.96875 85 C 3.96875 89.438141 7.5618586 93.03125 12 93.03125 L 84 93.03125 C 88.438141 93.03125 92.03125 89.438141 92.03125 85 L 92.03125 22 C 92.03125 18.968008 90.319005 16.395638 87.84375 15.03125 C 87.351857 12.17163 84.915107 9.96875 81.875 9.96875 L 41.6875 9.96875 C 39.852667 8.1939079 38.678863 7.1033787 37.71875 6.5625 C 36.681475 5.9781523 35.778304 6.0011109 34.8125 5.96875 A 1.043776 1.043776 0 0 0 34.78125 5.96875 L 14.125 5.96875 z "
       style="opacity:0.1;fill:url(#linearGradient3977);fill-opacity:1;fill-rule:nonzero;stroke:none;display:inline"
       id="path3975"
       d="M 14.125,4.9375 C 10.184407,4.9375 6.9375,8.0807925 6.9375,12 l 0,2.59375 c -2.3826099,1.622076 -4,4.293928 -4,7.40625 l 0,63 c 0,5.001444 4.0610559,9.0625 9.0625,9.0625 l 72,0 c 5.001444,0 9.0625,-4.061056 9.0625,-9.0625 l 0,-63 c 0,-3.260846 -1.77319,-6.039741 -4.34375,-7.625 C 87.957559,11.279325 85.241489,8.9375 81.875,8.9375 l -39.8125,0 C 40.465021,7.3963057 39.290438,6.2599842 38.21875,5.65625 36.945571,4.9390059 35.771277,4.9685784 34.84375,4.9375 a 1.043776,1.043776 0 0 0 -0.03125,0 c -10e-7,0 -0.03125,0 -0.03125,0 l -20.65625,0 z" />
    <path
       sodipodi:type="inkscape:offset"
       inkscape:radius="1.0436716"
       inkscape:original="M 14.125 7 C 11.282105 7 9 9.23 9 12 L 9 15.6875 C 6.6359408 16.808884 5 19.200342 5 22 L 5 85 C 5 88.878 8.122 92 12 92 L 84 92 C 87.878 92 91 88.878 91 85 L 91 22 C 91 19.190264 89.346632 16.803629 86.96875 15.6875 C 86.799101 13.069075 84.606585 11 81.875 11 L 41.28125 11 C 37.060722 6.8876898 36.778482 7.0669206 34.78125 7 L 14.125 7 z "
       style="opacity:0.2;fill:url(#linearGradient3969);fill-opacity:1;fill-rule:nonzero;stroke:none;display:inline"
       id="path3967"
       d="M 14.125,5.96875 C 10.736326,5.96875 7.96875,8.6567706 7.96875,12 l 0,3.125 c -2.3751432,1.394016 -4,3.920462 -4,6.875 l 0,63 c 0,4.438141 3.5931086,8.03125 8.03125,8.03125 l 72,0 c 4.438141,0 8.03125,-3.593109 8.03125,-8.03125 l 0,-63 c 0,-3.031992 -1.712245,-5.604362 -4.1875,-6.96875 -0.491893,-2.85962 -2.928643,-5.0625 -5.96875,-5.0625 l -40.1875,0 C 39.852667,8.1939079 38.678863,7.1033787 37.71875,6.5625 36.681475,5.9781523 35.778304,6.0011109 34.8125,5.96875 a 1.043776,1.043776 0 0 0 -0.03125,0 l -20.65625,0 z" />
    <path
       style="opacity:0.3;fill:url(#linearGradient3961);fill-opacity:1;fill-rule:nonzero;stroke:none;display:inline"
       d="M 14.125,6.9999996 C 11.282105,6.9999996 9,9.2299996 9,12 l 0,3.6875 C 6.6359408,16.808884 5,19.200342 5,22 l 0,63 c 0,3.878 3.122,7 7,7 l 72,0 c 3.878,0 7,-3.122 7,-7 L 91,22 C 91,19.190264 89.346632,16.803629 86.96875,15.6875 86.799101,13.069075 84.606585,11 81.875,11 l -40.59375,0 c -4.220528,-4.1123106 -4.502768,-3.9330798 -6.5,-4.0000004 l -20.65625,0 z"
       id="path3908-1"
       inkscape:connector-curvature="0" />
    <path
       style="opacity:0.45;fill:url(#linearGradient3952);fill-opacity:1;fill-rule:nonzero;stroke:none;display:inline"
       d="m 15,6.9999996 c -2.77,0 -5,2.23 -5,5.0000004 l 0,3.34375 C 7.6664933,16.164656 6,18.378887 6,21 l 0,64 c 0,3.324 2.676,6 6,6 l 72,0 c 3.324,0 6,-2.676 6,-6 L 90,21 C 90,18.358112 88.300137,16.148775 85.9375,15.34375 85.611464,12.893448 83.542274,11 81,11 L 40.46875,11 C 36.35644,6.8876894 36.102271,7.0669202 34.15625,6.9999996 l -19.15625,0 z"
       id="path3941"
       inkscape:connector-curvature="0" />
    <rect
       style="fill:url(#linearGradient3361);fill-opacity:1;fill-rule:nonzero;stroke:none;display:inline"
       id="rect3352"
       width="75"
       height="62.678574"
       x="10.535714"
       y="23.142857"
       rx="6"
       ry="6" />
    <path
       style="fill:url(#linearGradient3105);fill-opacity:1;fill-rule:nonzero;stroke:none;display:inline"
       d="m 15,5.9999996 c -2.77,0 -5,2.23 -5,5.0000004 l 0,59.8125 c 0,2.39328 1.91922,4.3125 4.3125,4.3125 l 67.375,0 C 84.08078,75.125 86,73.20578 86,70.8125 L 86,15 C 86,12.23 83.77,9.9999996 81,9.9999996 l -40.53125,0 c -4.11231,-4.1123102 -4.366479,-3.9330794 -6.3125,-4 z"
       id="path3908"
       inkscape:connector-curvature="0"
       sodipodi:nodetypes="cccsscccccc" />
    <path
       style="opacity:0.15;fill:#ffffff;fill-opacity:1;fill-rule:nonzero;stroke:none;display:inline"
       d="m 15,5.9999996 c -2.77,0 -5,2.23 -5,5.0000004 l 0,59.8125 c 0,2.39328 1.91922,4.3125 4.3125,4.3125 l 67.375,0 C 84.08078,75.125 86,73.20578 86,70.8125 L 86,15 C 86,12.23 83.77,9.9999996 81,9.9999996 l -40.53125,0 c -4.11231,-4.1123102 -4.366479,-3.9330794 -6.3125,-4 l -19.15625,0 z m 0,1.03125 19.125,0 0.03125,0 c 0.964976,0.031157 1.192535,-0.016972 1.8125,0.34375 0.630289,0.366729 1.706808,1.3318077 3.75,3.3750004 a 1.043776,1.043776 0 0 0 0.75,0.28125 l 40.53125,0 c 2.209859,0 3.96875,1.758891 3.96875,3.96875 l 0,55.8125 c 0,1.835319 -1.445931,3.28125 -3.28125,3.28125 l -67.375,0 c -1.835319,0 -3.28125,-1.445931 -3.28125,-3.28125 l 0,-59.8125 c 0,-2.209859 1.758891,-3.9687504 3.96875,-3.9687504 z"
       id="path3108"
       inkscape:connector-curvature="0" />
    <rect
       style="fill:url(#linearGradient3706);fill-opacity:1;fill-rule:nonzero;stroke:none;display:inline"
       id="rect2419"
       width="84"
       height="76"
       x="6"
       y="14"
       rx="6"
       ry="6" />
    <path
       style="opacity:0.35;fill:url(#linearGradient3094);fill-opacity:1;fill-rule:nonzero;stroke:none;display:inline"
       d="M 12,86 C 8.676,86 6,83.324 6,80 L 6,20 c 0,-3.324 2.676,-6 6,-6 l 72,0 c 3.324,0 6,2.676 6,6 l 0,60 c 0,3.324 -2.676,6 -6,6 z m 0,-0.96875 72,0 c 2.80489,0 5.03125,-2.22636 5.03125,-5.03125 l 0,-60 c 0,-2.80489 -2.22636,-5.03125 -5.03125,-5.03125 l -72,0 c -2.8048898,0 -5.03125,2.22636 -5.03125,5.03125 l 0,60 c 0,2.80489 2.2263602,5.03125 5.03125,5.03125 z"
       id="rect4377"
       inkscape:connector-curvature="0"
       sodipodi:nodetypes="ssssssssssssssssss" />
    <path
       style="opacity:0.1;fill:#ffffff;fill-opacity:1;fill-rule:nonzero;stroke:none;display:inline"
       d="m 6,78 0,2 c 0,3.324 2.676,6 6,6 l 72,0 c 3.324,0 6,-2.676 6,-6 l 0,-2 c 0,3.324 -2.676,6 -6,6 L 12,84 C 8.676,84 6,81.324 6,78 z"
       id="rect3841"
       inkscape:connector-curvature="0" />
    <path
       style="fill:#6287c0;fill-opacity:1;fill-rule:nonzero;stroke:none;display:inline"
       d="m 6,80 0,4 c 0,3.324 2.676,6 6,6 l 72,0 c 3.324,0 6,-2.676 6,-6 l 0,-4 c 0,3.324 -2.676,6 -6,6 L 12,86 C 8.676,86 6,83.324 6,80 z"
       id="path3067"
       inkscape:connector-curvature="0" />
    <g
       style="display:inline"
       id="g4081"
       transform="translate(0,-10)">
      <path
         style="opacity:0.5;fill:url(#linearGradient4086);fill-opacity:1;fill-rule:nonzero;stroke:none;display:inline"
         d="m 6,90 0,4 c 0,3.324 2.676,6 6,6 l 72,0 c 3.324,0 6,-2.676 6,-6 l 0,-4 c 0,3.324 -2.676,6 -6,6 L 12,96 C 8.676,96 6,93.324 6,90 z"
         id="path3888"
         inkscape:connector-curvature="0" />
      <path
         inkscape:connector-curvature="0"
         id="rect4345"
         d="m 6,92 0,2 c 0,3.324 2.676,6 6,6 l 72,0 c 3.324,0 6,-2.676 6,-6 l 0,-2 c 0,3.324 -2.676,6 -6,6 L 12,98 C 8.676,98 6,95.324 6,92 z"
         style="opacity:0.1;color:#000000;fill:#000000;fill-opacity:1;fill-rule:nonzero;stroke:none;stroke-width:1.5;marker:none;visibility:visible;display:inline;overflow:visible;enable-background:accumulate" />
      <path
         inkscape:connector-curvature="0"
         id="rect4336"
         d="m 6,93 0,1 c 0,3.324 2.676,6 6,6 l 72,0 c 3.324,0 6,-2.676 6,-6 l 0,-1 c 0,3.324 -2.676,6 -6,6 L 12,99 C 8.676,99 6,96.324 6,93 z"
         style="opacity:0.15;color:#000000;fill:#000000;fill-opacity:1;fill-rule:nonzero;stroke:none;stroke-width:1.5;marker:none;visibility:visible;display:inline;overflow:visible;enable-background:accumulate" />
    </g>
    <path
       style="opacity:0.1;fill:url(#linearGradient3123);fill-opacity:1;fill-rule:nonzero;stroke:none;display:inline;filter:url(#filter3870)"
       clip-path="url(#clipPath3860-6)"
       d="m 15.96875,22.53125 c -2.845903,0.0043 -5.433244,2.591597 -5.4375,5.4375 l 0,48.0625 c 0.0043,2.845903 2.591597,5.433244 5.4375,5.4375 l 64.0625,0 c 2.845903,-0.0043 5.433244,-2.591597 5.4375,-5.4375 l 0,-48.0625 c -0.0043,-2.845903 -2.591597,-5.433244 -5.4375,-5.4375 z"
       id="path3850"
       inkscape:connector-curvature="0"
       sodipodi:nodetypes="ccccccccc" />
  </g>
  <g
     inkscape:groupmode="layer"
     id="layer6"
     inkscape:label="Symbol">
    <path
       inkscape:connector-curvature="0"
       style="opacity:0.05;fill:#ffffff;fill-opacity:1;stroke:none;display:inline"
       d="m 47.78125,27.3125 a 1.9817835,1.9817835 0 0 0 -1.1875,0.5625 l -24,24.0625 A 1.9817835,1.9817835 0 0 0 24,55.3125 l 3.9375,0 0,16.6875 a 1.9817835,1.9817835 0 0 0 1.96875,1.96875 l 36.21875,0 A 1.9817835,1.9817835 0 0 0 68.09375,72 l 0,-16.75 3.90625,0 a 1.9817835,1.9817835 0 0 0 1.40625,-3.375 l -9.96875,-10.0625 0,-7.281251 a 1.9817835,1.9817835 0 0 0 -1.96875,-1.96875 l -5.34375,0 a 1.9817835,1.9817835 0 0 0 -1.40625,0.59375 L 49.40625,27.875 a 1.9817835,1.9817835 0 0 0 -1.625,-0.5625 z M 48,29.281249 56.125,37.375 l 0,-2.843751 5.34375,0 0,8.125001 10.53125,10.625 -5.875,0 0,18.71875 -36.21875,0 0,-18.65625 -5.90625,0 24,-24.062501 z"
       id="path3994" />
    <path
       inkscape:connector-curvature="0"
       style="opacity:0.1;fill:#ffffff;fill-opacity:1;stroke:none;display:inline"
       d="m 47.875,28.25 a 1.037313,1.037313 0 0 0 -0.59375,0.312499 l -24,24.062501 A 1.037313,1.037313 0 0 0 24,54.375 l 4.875,0 0,17.625 a 1.037313,1.037313 0 0 0 1.03125,1.03125 l 36.21875,0 A 1.037313,1.037313 0 0 0 67.15625,72 l 0,-17.6875 4.84375,0 a 1.037313,1.037313 0 0 0 0.75,-1.75 L 62.5,42.21875 l 0,-7.687501 a 1.037313,1.037313 0 0 0 -1.03125,-1.03125 l -5.34375,0 a 1.037313,1.037313 0 0 0 -1.03125,1.03125 l 0,0.34375 -6.375,-6.34375 A 1.037313,1.037313 0 0 0 47.875,28.25 z M 48,29.281249 56.125,37.375 l 0,-2.843751 5.34375,0 0,8.125001 10.53125,10.625 -5.875,0 0,18.71875 -36.21875,0 0,-18.65625 -5.90625,0 24,-24.062501 z"
       id="path3983" />
    <path
       inkscape:connector-curvature="0"
       sodipodi:nodetypes="cccccccccccc"
       id="path3347"
       d="m 48,29.268291 -24.000001,24.083625 5.920127,0 0,18.648084 36.200725,0 0,-18.731707 5.879149,0 -10.536585,-10.620209 0,-8.111501 -5.351916,0 0,2.843207 L 48,29.268291 z"
       style="opacity:0.9;fill:url(#linearGradient3078);fill-opacity:1;stroke:none;display:inline" />
    <path
       inkscape:connector-curvature="0"
       style="opacity:0.25;fill:url(#linearGradient3947);fill-opacity:1;stroke:none;display:inline"
       d="m 48,29.281249 -24,24.062501 5.90625,0 0,18.65625 36.21875,0 0,-18.71875 5.875,0 -10.53125,-10.625 0,-8.125001 -5.34375,0 0,2.843751 L 48,29.281249 z m 0,2.78125 6.75,6.718751 A 1.9653886,1.9653886 0 0 0 58.09375,37.375 l 0,-0.875001 1.40625,0 0,6.156251 a 1.9653886,1.9653886 0 0 0 0.5625,1.375 l 7.21875,7.28125 -1.15625,0 a 1.9653886,1.9653886 0 0 0 -1.96875,1.96875 l 0,16.75 -32.28125,0 0,-16.6875 A 1.9653886,1.9653886 0 0 0 29.90625,51.375 L 28.75,51.375 48,32.062499 z"
       id="path3935" />
    <path
       inkscape:connector-curvature="0"
       style="opacity:0.5;fill:url(#linearGradient3956);fill-opacity:1;stroke:none;display:inline"
       d="m 48,29.281249 -24,24.062501 5.90625,0 0,18.65625 36.21875,0 0,-18.71875 5.875,0 -10.53125,-10.625 0,-8.125001 -5.34375,0 0,2.843751 L 48,29.281249 z m 0,1.5 7.375,7.343751 a 1.064701,1.064701 0 0 0 1.8125,-0.75 l 0,-1.781251 3.21875,0 0,7.062501 a 1.064701,1.064701 0 0 0 0.3125,0.75 l 8.75,8.8125 -3.34375,0 a 1.064701,1.064701 0 0 0 -1.0625,1.0625 l 0,17.65625 -34.09375,0 0,-17.59375 a 1.064701,1.064701 0 0 0 -1.0625,-1.0625 l -3.34375,0 L 48,30.781249 z"
       id="path3931" />
    <path
       inkscape:connector-curvature="0"
       style="fill:url(#linearGradient3965);fill-opacity:1;stroke:none;display:inline"
       d="m 48,29.281249 -24,24.062501 1,0 23,-23.062501 8.125,8.093751 0,-1 L 48,29.281249 z m 8.125,5.25 0,1 5.34375,0 0,-1 -5.34375,0 z m 5.34375,8.125001 0,1 9.53125,9.625 1,0 -10.53125,-10.625 z"
       id="path3959" />
    <path
       inkscape:connector-curvature="0"
       style="opacity:0.15;fill:#ffffff;fill-opacity:1;stroke:none;display:inline"
       d="m 66.125,53.28125 0,1 5.875,0 -1,-1 -4.875,0 z M 25,53.34375 l -1,1 5.90625,0 0,-1 -4.90625,0 z M 29.90625,72 l 0,1 36.21875,0 0,-1 -36.21875,0 z"
       id="path3968" />
  </g>
</svg>
