<?xml version="1.0" encoding="UTF-8" standalone="no"?>
<svg
   xmlns:dc="http://purl.org/dc/elements/1.1/"
   xmlns:cc="http://creativecommons.org/ns#"
   xmlns:rdf="http://www.w3.org/1999/02/22-rdf-syntax-ns#"
   xmlns:svg="http://www.w3.org/2000/svg"
   xmlns="http://www.w3.org/2000/svg"
   xmlns:sodipodi="http://sodipodi.sourceforge.net/DTD/sodipodi-0.dtd"
   xmlns:inkscape="http://www.inkscape.org/namespaces/inkscape"
   id="svg2"
   width="16"
   height="16"
   version="1.0"
   sodipodi:docname="2048.svg"
   inkscape:version="0.92.2 5c3e80d, 2017-08-06">
  <metadata
     id="metadata31">
    <rdf:RDF>
      <cc:Work
         rdf:about="">
        <dc:format>image/svg+xml</dc:format>
        <dc:type
           rdf:resource="http://purl.org/dc/dcmitype/StillImage" />
      </cc:Work>
    </rdf:RDF>
  </metadata>
  <sodipodi:namedview
     pagecolor="#ffffff"
     bordercolor="#666666"
     borderopacity="1"
     objecttolerance="10"
     gridtolerance="10"
     guidetolerance="10"
     inkscape:pageopacity="0"
     inkscape:pageshadow="2"
     inkscape:window-width="1366"
     inkscape:window-height="743"
     id="namedview29"
     showgrid="false"
     inkscape:zoom="29.5"
     inkscape:cx="6.5605327"
     inkscape:cy="7.4260376"
     inkscape:window-x="0"
     inkscape:window-y="25"
     inkscape:window-maximized="1"
     inkscape:current-layer="svg2" />
  <defs
     id="defs4">
    <linearGradient
       id="linearGradient3204"
       x1="1"
       x2="15"
       y1="9"
       y2="9"
       gradientTransform="translate(-17,-2)"
       gradientUnits="userSpaceOnUse">
      <stop
         id="stop3189"
         stop-color="#d2d2d2"
         offset="0" />
      <stop
         id="stop3191"
         stop-color="#f5f5f5"
         offset="1" />
    </linearGradient>
    <linearGradient
       id="linearGradient3629"
       x2="29.017"
       y1="8"
       y2="8"
       gradientTransform="matrix(0,-1,1,0,0,16)"
       gradientUnits="userSpaceOnUse">
      <stop
         id="stop3330"
         offset="0" />
      <stop
         id="stop3333"
         stop-opacity="0"
         offset="1" />
    </linearGradient>
  </defs>
  <g
     id="layer1">
    <rect
       id="rect3196"
       transform="rotate(-90)"
       x="-16"
       width="16"
       height="16"
       rx="2"
       ry="2"
       fill="url(#linearGradient3204)" />
    <path
       id="rect2835"
       d="m0 14c0 1.108 0.892 2 2 2h12c1.108 0 2-0.892 2-2v-12c0-1.108-0.892-2-2-2h-12c-1.108 0-2 0.892-2 2v12zm0.96875 0v-12c0-0.5832 0.44805-1.0312 1.0312-1.0312h12c0.5832 0 1.0312 0.44805 1.0312 1.0312v12c0 0.5832-0.44805 1.0312-1.0312 1.0312h-12c-0.5832 0-1.0312-0.44805-1.0312-1.0312z"
       fill="url(#linearGradient3629)"
       opacity=".4" />
    <path
       id="path2843"
       d="m2 0.96875c-0.5832 0-1.0312 0.44805-1.0312 1.0312v1c0-0.5832 0.44805-1.0312 1.0312-1.0312h12c0.5832 0 1.0312 0.44805 1.0312 1.0312v-1c0-0.5832-0.44805-1.0312-1.0312-1.0312h-12z"
       fill="#fff"
       opacity=".35" />
  </g>
  <defs
     id="defs21">
    <filter
       id="w">
      <feGaussianBlur
         stdDeviation="0.26998568"
         id="feGaussianBlur13" />
    </filter>
    <linearGradient
       id="a"
       gradientUnits="userSpaceOnUse"
       x1="8"
       y1="1"
       x2="8"
       y2="14.00004"
       gradientTransform="matrix(0.99999714,0,0,0.99999714,2.2859943e-5,2.9001144e-6)">
      <stop
         stop-color="#ff9201"
         offset="0"
         id="stop16" />
      <stop
         stop-color="#ff9201"
         offset="1"
         id="stop18" />
    </linearGradient>
  </defs>
  <path
     inkscape:connector-curvature="0"
     id="base"
     style="color:#000000;isolation:auto;mix-blend-mode:normal;solid-color:#000000;fill:#007800;fill-opacity:1;stroke-width:1.07691979;color-rendering:auto;image-rendering:auto;shape-rendering:auto"
     d="M 1.9233725,1 C 1.4119864,1 1,1.4121049 1,1.9233726 V 6.538189 C 1,7.0495537 1.4119864,7.4615616 1.9233725,7.4615616 H 6.538189 c 0.5113861,0 0.9233725,-0.4120079 0.9233725,-0.9233726 V 1.9233726 C 7.4615615,1.4120941 7.0495751,1 6.538189,1 Z M 4.085612,2.0769198 c 1.0598075,0 1.5480721,0.5511137 1.5480721,1.2682884 0,0.8694188 -0.851348,1.656841 -1.682687,2.5071769 H 5.7219916 V 6.5380814 H 2.6953086 V 6.0501075 C 2.9301202,5.8279928 3.1961409,5.5999443 3.5261307,5.2571392 4.1607487,4.5909674 4.8533266,3.9540663 4.8533266,3.3956834 c 0,-0.3553512 -0.2092671,-0.5763244 -0.7677254,-0.5763244 -0.4442293,0 -0.7992898,0.1778318 -1.167381,0.3365374 L 2.6889548,2.4765108 C 2.9935723,2.3178913 3.4890523,2.0768767 4.085612,2.0768767 Z M 1.9233725,8.5384383 C 1.4119864,8.5384383 1,8.9504462 1,9.4618108 V 14.076627 C 1,14.588089 1.4119864,15 1.9233725,15 H 6.538189 c 0.5113861,0 0.9233725,-0.411911 0.9233725,-0.923373 V 9.4618108 c 0,-0.5113646 -0.4119864,-0.9233725 -0.9233725,-0.9233725 z m 7.5384382,0 c -0.511386,0 -0.9233724,0.4120079 -0.9233724,0.9233725 V 14.076627 C 8.5384383,14.587906 8.9504247,15 9.4618107,15 H 14.076627 C 14.588013,15 15,14.587895 15,14.076627 V 9.4618108 C 15,8.9504462 14.588003,8.5384383 14.076627,8.5384383 Z m 2.2485013,1.0769198 c 1.085212,0 1.579625,0.4441649 1.579625,1.1358269 0,0.34903 -0.18957,0.60846 -0.513216,0.862376 0.526731,0.285438 0.761414,0.697973 0.761414,1.142074 0,0.685513 -0.601126,1.384057 -1.787903,1.384057 -1.04711,0 -1.823655,-0.540269 -1.823655,-1.327196 0,-0.463388 0.306631,-0.907197 0.757204,-1.179981 -0.418847,-0.285534 -0.509017,-0.671901 -0.509017,-0.89393 0,-0.615589 0.551803,-1.1232269 1.535473,-1.1232269 z m -7.4479775,0.05679 H 5.316122 v 2.7680079 h 0.7677254 v 0.698317 H 5.316122 v 0.938094 H 4.5357752 V 13.138473 H 2.4218894 V 12.585291 L 4.2623453,9.672116 Z m 7.4479775,0.6415209 c -0.431533,0 -0.723562,0.246895 -0.723551,0.487974 0,0.36177 0.52796,0.521251 0.89603,0.6226 0.418846,-0.234672 0.607867,-0.381575 0.607867,-0.591046 0,-0.349127 -0.367844,-0.519528 -0.780346,-0.519528 z m -7.1745476,0.210334 -0.088341,0.1893 -1.0916735,1.726842 h 1.179981 v -1.726842 -0.1893 z m 7.0924856,1.306195 c -0.571155,0.158523 -0.90024,0.519571 -0.90024,0.862376 0,0.368092 0.387443,0.723561 1.053787,0.723561 0.602882,0 0.950716,-0.323808 0.950716,-0.698318 0,-0.507552 -0.507725,-0.735417 -1.104273,-0.887619 z" />
</svg>
