<?xml version="1.0" encoding="UTF-8" standalone="no"?>
<svg
   xmlns:dc="http://purl.org/dc/elements/1.1/"
   xmlns:cc="http://creativecommons.org/ns#"
   xmlns:rdf="http://www.w3.org/1999/02/22-rdf-syntax-ns#"
   xmlns:svg="http://www.w3.org/2000/svg"
   xmlns="http://www.w3.org/2000/svg"
   xmlns:sodipodi="http://sodipodi.sourceforge.net/DTD/sodipodi-0.dtd"
   xmlns:inkscape="http://www.inkscape.org/namespaces/inkscape"
   id="svg2"
   width="16"
   height="16"
   version="1.0"
   sodipodi:docname="bitcoin.svg"
   inkscape:version="0.92.2 5c3e80d, 2017-08-06">
  <metadata
     id="metadata31">
    <rdf:RDF>
      <cc:Work
         rdf:about="">
        <dc:format>image/svg+xml</dc:format>
        <dc:type
           rdf:resource="http://purl.org/dc/dcmitype/StillImage" />
      </cc:Work>
    </rdf:RDF>
  </metadata>
  <sodipodi:namedview
     pagecolor="#ffffff"
     bordercolor="#666666"
     borderopacity="1"
     objecttolerance="10"
     gridtolerance="10"
     guidetolerance="10"
     inkscape:pageopacity="0"
     inkscape:pageshadow="2"
     inkscape:window-width="640"
     inkscape:window-height="480"
     id="namedview29"
     showgrid="false"
     inkscape:zoom="14.75"
     inkscape:cx="8"
     inkscape:cy="8"
     inkscape:window-x="0"
     inkscape:window-y="25"
     inkscape:window-maximized="0"
     inkscape:current-layer="svg2" />
  <defs
     id="defs4">
    <linearGradient
       id="linearGradient3204"
       x1="1"
       x2="15"
       y1="9"
       y2="9"
       gradientTransform="translate(-17,-2)"
       gradientUnits="userSpaceOnUse">
      <stop
         id="stop3189"
         stop-color="#ef7410"
         offset="0" />
      <stop
         id="stop3191"
         stop-color="#f7931a"
         offset="1" />
    </linearGradient>
    <linearGradient
       id="linearGradient3629"
       x2="29.017"
       y1="8"
       y2="8"
       gradientTransform="matrix(0,-1,1,0,0,16)"
       gradientUnits="userSpaceOnUse">
      <stop
         id="stop3330"
         offset="0" />
      <stop
         id="stop3333"
         stop-opacity="0"
         offset="1" />
    </linearGradient>
  </defs>
  <g
     id="layer1">
    <rect
       id="rect3196"
       transform="rotate(-90)"
       x="-16"
       width="16"
       height="16"
       rx="2"
       ry="2"
       fill="url(#linearGradient3204)" />
    <path
       id="rect2835"
       d="m0 14c0 1.108 0.892 2 2 2h12c1.108 0 2-0.892 2-2v-12c0-1.108-0.892-2-2-2h-12c-1.108 0-2 0.892-2 2v12zm0.96875 0v-12c0-0.5832 0.44805-1.0312 1.0312-1.0312h12c0.5832 0 1.0312 0.44805 1.0312 1.0312v12c0 0.5832-0.44805 1.0312-1.0312 1.0312h-12c-0.5832 0-1.0312-0.44805-1.0312-1.0312z"
       fill="url(#linearGradient3629)"
       opacity=".4" />
    <path
       id="path2843"
       d="m2 0.96875c-0.5832 0-1.0312 0.44805-1.0312 1.0312v1c0-0.5832 0.44805-1.0312 1.0312-1.0312h12c0.5832 0 1.0312 0.44805 1.0312 1.0312v-1c0-0.5832-0.44805-1.0312-1.0312-1.0312h-12z"
       fill="#fff"
       opacity=".35" />
  </g>
  <defs
     id="defs21">
    <filter
       id="w">
      <feGaussianBlur
         stdDeviation="0.26998568"
         id="feGaussianBlur13" />
    </filter>
    <linearGradient
       id="a"
       gradientUnits="userSpaceOnUse"
       x1="8"
       y1="0.99992"
       x2="8"
       y2="14.999913">
      <stop
         stop-color="#ffffff"
         offset="0"
         id="stop16" />
      <stop
         stop-color="#ffffff"
         offset="1"
         id="stop18" />
    </linearGradient>
  </defs>
  <g
     id="main"
     transform="translate(1,1) scale(0.85714)">
    <path
       style="opacity:0.3;fill:#000000"
       inkscape:connector-curvature="0"
       id="path23"
       d="M 13.223,7.6281 C 13.44147,6.1571 12.32955,5.3663 10.8092,4.8387 L 11.3024,2.846 10.0982,2.54372 9.61804,4.48392 C 9.30148,4.404472 8.97633,4.32948 8.65325,4.25521 l 0.4836,-1.953 -1.2035,-0.30229 -0.49353,1.992 C 7.17779,3.931838 6.92056,3.87239 6.67088,3.80985 L 6.67204,3.80402 5.01134,3.38635 4.691,4.68185 c 0,0 0.89344,0.20625 0.87458,0.21903 0.48771,0.12265 0.57585,0.44774 0.5611,0.70546 L 5.56489,7.87644 C 5.598478,7.88461 5.642027,7.897556 5.69007,7.916806 5.649996,7.906306 5.607142,7.89569 5.56283,7.885073 l -0.78747,3.1801 c -0.059647,0.14925 -0.21092,0.37312 -0.55185,0.28813 0.012045,0.01762 -0.87527,-0.22006 -0.87527,-0.22006 l -0.59779,1.3885 1.567,0.39349 c 0.29152,0.07362 0.57722,0.15064 0.85846,0.22318 l -0.49834,2.0155 1.2028,0.30229 0.49354,-1.9941 c 0.32856,0.08983 0.64753,0.17273 0.95964,0.25082 l -0.49183,1.9847 1.2042,0.30229 0.49833,-2.0117 c 2.0534,0.39143 3.5975,0.23355 4.2474,-1.6372 0.52372,-1.5063 -0.02606,-2.3751 -1.1064,-2.9417 0.78679,-0.18276 1.3794,-0.70408 1.5375,-1.7809 z m -2.7513,3.8862 c -0.37213,1.5063 -2.8899,0.69198 -3.7062,0.48781 l 0.66124,-2.6702 c 0.81629,0.20521 3.4339,0.61149 3.0449,2.1824 z m 0.37247,-3.908 c -0.33954,1.3702 -2.4351,0.67403 -3.1149,0.50336 l 0.59952,-2.4218 c 0.67977,0.17067 2.869,0.4892 2.5154,1.9184 z" />
    <path
       d="m13.223 6.6281c0.21847-1.471-0.89345-2.2618-2.4138-2.7894l0.4932-1.9927-1.2042-0.30228-0.48016 1.9402c-0.31656-0.079448-0.64171-0.15444-0.96479-0.22871l0.4836-1.953-1.2035-0.30229-0.49353 1.992c-0.26203-0.060082-0.51926-0.11953-0.76894-0.18207l0.00116-0.00583-1.6607-0.41767-0.32034 1.2955s0.89344 0.20625 0.87458 0.21903c0.48771 0.12265 0.57585 0.44774 0.5611 0.70546l-0.56179 2.2701c0.033588 0.00817 0.077137 0.021116 0.12518 0.040366-0.040074-0.0105-0.082928-0.021116-0.12724-0.031733l-0.78747 3.1801c-0.059647 0.14925-0.21092 0.37312-0.55185 0.28813 0.012045 0.017617-0.87527-0.22006-0.87527-0.22006l-0.59779 1.3885 1.567 0.39349c0.29152 0.07362 0.57722 0.15064 0.85846 0.22318l-0.49834 2.0155 1.2028 0.30229 0.49354-1.9941c0.32856 0.08983 0.64753 0.17273 0.95964 0.25082l-0.49183 1.9847 1.2042 0.30229 0.49833-2.0117c2.0534 0.39143 3.5975 0.23355 4.2474-1.6372 0.52372-1.5063-0.02606-2.3751-1.1064-2.9417 0.78679-0.18276 1.3794-0.70408 1.5375-1.7809zm-2.7513 3.8862c-0.37213 1.5063-2.8899 0.69198-3.7062 0.48781l0.66124-2.6702c0.81629 0.20521 3.4339 0.61149 3.0449 2.1824zm0.37247-3.908c-0.33954 1.3702-2.4351 0.67403-3.1149 0.50336l0.59952-2.4218c0.67977 0.17067 2.869 0.4892 2.5154 1.9184z"
       fill="url(#a)"
       id="base" />
  </g>
</svg>
