<?xml version="1.0" encoding="UTF-8" standalone="no"?>
<!-- Created with Inkscape (http://www.inkscape.org/) -->

<svg
   xmlns:dc="http://purl.org/dc/elements/1.1/"
   xmlns:cc="http://creativecommons.org/ns#"
   xmlns:rdf="http://www.w3.org/1999/02/22-rdf-syntax-ns#"
   xmlns:svg="http://www.w3.org/2000/svg"
   xmlns="http://www.w3.org/2000/svg"
   xmlns:xlink="http://www.w3.org/1999/xlink"
   xmlns:sodipodi="http://sodipodi.sourceforge.net/DTD/sodipodi-0.dtd"
   xmlns:inkscape="http://www.inkscape.org/namespaces/inkscape"
   width="16"
   height="16"
   id="svg2"
   sodipodi:version="0.32"
   inkscape:version="0.48.2 r9819"
   version="1.0"
   sodipodi:docname="evernote.svg"
   inkscape:output_extension="org.inkscape.output.svg.inkscape"
   style="display:inline">
  <defs
     id="defs4">
    <inkscape:perspective
       sodipodi:type="inkscape:persp3d"
       inkscape:vp_x="0 : 8 : 1"
       inkscape:vp_y="0 : 1000 : 0"
       inkscape:vp_z="16 : 8 : 1"
       inkscape:persp3d-origin="8 : 5.3333333 : 1"
       id="perspective35" />
    <linearGradient
       inkscape:collect="always"
       id="linearGradient3327">
      <stop
         style="stop-color:#000000;stop-opacity:1;"
         offset="0"
         id="stop3330" />
      <stop
         style="stop-color:#000000;stop-opacity:0;"
         offset="1"
         id="stop3333" />
    </linearGradient>
    <linearGradient
       id="ButtonColor"
       x1="10.31979"
       y1="21"
       x2="10.31979"
       y2="0.99929649"
       gradientUnits="userSpaceOnUse">
      <stop
         style="stop-color:#29669f;stop-opacity:1;"
         offset="0"
         id="stop3189" />
      <stop
         style="stop-color:#88b6e0;stop-opacity:1;"
         offset="1"
         id="stop3191" />
    </linearGradient>
    <linearGradient
       inkscape:collect="always"
       xlink:href="#ButtonColor"
       id="linearGradient3204"
       x1="1"
       y1="9"
       x2="15"
       y2="9"
       gradientUnits="userSpaceOnUse"
       gradientTransform="translate(-17,-2)" />
    <linearGradient
       inkscape:collect="always"
       xlink:href="#linearGradient3327"
       id="linearGradient3629"
       x1="0"
       y1="8"
       x2="29.017237"
       y2="8"
       gradientUnits="userSpaceOnUse"
       gradientTransform="matrix(0,-1,1,0,0,16)" />
    <linearGradient
       inkscape:collect="always"
       xlink:href="#SVGID_1_-4"
       id="linearGradient3765"
       gradientUnits="userSpaceOnUse"
       gradientTransform="matrix(0.09341072,0,0,0.04108075,-26.756456,8.0246654)"
       x1="383.28857"
       y1="0"
       x2="383.28857"
       y2="218.48047" />
    <linearGradient
       id="SVGID_1_-4"
       gradientUnits="userSpaceOnUse"
       x1="383.28857"
       y1="0"
       x2="383.28857"
       y2="218.48047">
      <stop
         offset="0.005618"
         style="stop-color:#ED2828"
         id="stop3143-2" />
      <stop
         offset="0.5"
         style="stop-color:#EF3B39"
         id="stop3145-1" />
      <stop
         offset="0.994382"
         style="stop-color:#C02126"
         id="stop3147-3" />
    </linearGradient>
    <linearGradient
       y2="180.6748"
       x2="175.30762"
       y1="73.254395"
       x1="175.30762"
       gradientUnits="userSpaceOnUse"
       id="linearGradient3749-5">
      <stop
         id="stop3751-8"
         style="stop-color:#000000;stop-opacity:1;"
         offset="0" />
      <stop
         id="stop3753-7"
         style="stop-color:#000000;stop-opacity:0.4728682;"
         offset="0.99438202" />
    </linearGradient>
    <linearGradient
       inkscape:collect="always"
       xlink:href="#linearGradient3749-5"
       id="linearGradient3754"
       gradientUnits="userSpaceOnUse"
       gradientTransform="matrix(0.04164302,0,0,0.03408859,1.9444673,0.78644322)"
       x1="175.30762"
       y1="73.254395"
       x2="175.30762"
       y2="180.6748" />
    <linearGradient
       inkscape:collect="always"
       xlink:href="#linearGradient3749-5"
       id="linearGradient3756"
       gradientUnits="userSpaceOnUse"
       gradientTransform="matrix(0.04998763,0,0,0.03408859,2.4795353,0.78644322)"
       x1="175.30762"
       y1="73.254395"
       x2="175.30762"
       y2="180.6748" />
    <linearGradient
       y2="180.6748"
       x2="175.30762"
       y1="73.254395"
       x1="175.30762"
       gradientTransform="matrix(0.04859283,0,0,0.03408859,3.115962,0.78644322)"
       gradientUnits="userSpaceOnUse"
       id="linearGradient3809"
       xlink:href="#linearGradient3749-5"
       inkscape:collect="always" />
    <inkscape:perspective
       id="perspective3729"
       inkscape:persp3d-origin="0.5 : 0.33333333 : 1"
       inkscape:vp_z="1 : 0.5 : 1"
       inkscape:vp_y="0 : 1000 : 0"
       inkscape:vp_x="0 : 0.5 : 1"
       sodipodi:type="inkscape:persp3d" />
    <linearGradient
       inkscape:collect="always"
       xlink:href="#linearGradient3696"
       id="linearGradient4163"
       x1="6"
       y1="48"
       x2="90"
       y2="48"
       gradientUnits="userSpaceOnUse"
       gradientTransform="translate(-96,0)" />
    <linearGradient
       id="linearGradient3696">
      <stop
         id="stop3698"
         offset="0"
         style="stop-color:#2458a6;stop-opacity:1;" />
      <stop
         id="stop3700"
         offset="1"
         style="stop-color:#598ad4;stop-opacity:1;" />
    </linearGradient>
    <linearGradient
       y2="48"
       x2="90"
       y1="48"
       x1="6"
       gradientTransform="translate(-52.867199,-57.252856)"
       gradientUnits="userSpaceOnUse"
       id="linearGradient3738"
       xlink:href="#linearGradient3696"
       inkscape:collect="always" />
    <inkscape:perspective
       id="perspective3703"
       inkscape:persp3d-origin="0.5 : 0.33333333 : 1"
       inkscape:vp_z="1 : 0.5 : 1"
       inkscape:vp_y="0 : 1000 : 0"
       inkscape:vp_x="0 : 0.5 : 1"
       sodipodi:type="inkscape:persp3d" />
    <linearGradient
       gradientTransform="matrix(0.19388162,0,0,0.19388162,-1.4007219,-1.9461429)"
       inkscape:collect="always"
       xlink:href="#linearGradient4099"
       id="linearGradient4113"
       x1="22.111456"
       y1="62.983868"
       x2="40"
       y2="32"
       gradientUnits="userSpaceOnUse" />
    <linearGradient
       id="linearGradient4099">
      <stop
         style="stop-color:#9ede27;stop-opacity:1;"
         offset="0"
         id="stop4101" />
      <stop
         style="stop-color:#c8f16b;stop-opacity:1;"
         offset="1"
         id="stop4103" />
    </linearGradient>
    <linearGradient
       gradientTransform="matrix(0.19388162,0,0,0.19388162,-1.5256152,-1.9461429)"
       inkscape:collect="always"
       xlink:href="#linearGradient4099"
       id="linearGradient4105"
       x1="38"
       y1="74"
       x2="70"
       y2="49"
       gradientUnits="userSpaceOnUse" />
    <linearGradient
       id="linearGradient3712">
      <stop
         style="stop-color:#9ede27;stop-opacity:1;"
         offset="0"
         id="stop3714" />
      <stop
         style="stop-color:#c8f16b;stop-opacity:1;"
         offset="1"
         id="stop3716" />
    </linearGradient>
    <linearGradient
       inkscape:collect="always"
       xlink:href="#linearGradient3799-3"
       id="linearGradient3746"
       gradientUnits="userSpaceOnUse"
       x1="56.037025"
       y1="49.333305"
       x2="56.037025"
       y2="13.593002"
       gradientTransform="matrix(0.26518093,0,0,0.26518093,-0.34872536,-3.7081516)" />
    <linearGradient
       id="linearGradient3799-3">
      <stop
         style="stop-color:#1a1a1a;stop-opacity:1;"
         offset="0"
         id="stop3801-3" />
      <stop
         style="stop-color:#000000;stop-opacity:1;"
         offset="1"
         id="stop3803-2" />
    </linearGradient>
    <linearGradient
       y2="13.593002"
       x2="56.037025"
       y1="49.333305"
       x1="56.037025"
       gradientTransform="matrix(0.19388162,0,0,0.19388162,-1.3401963,-1.8843368)"
       gradientUnits="userSpaceOnUse"
       id="linearGradient3726"
       xlink:href="#linearGradient3799-3"
       inkscape:collect="always" />
    <inkscape:perspective
       id="perspective3736"
       inkscape:persp3d-origin="0.5 : 0.33333333 : 1"
       inkscape:vp_z="1 : 0.5 : 1"
       inkscape:vp_y="0 : 1000 : 0"
       inkscape:vp_x="0 : 0.5 : 1"
       sodipodi:type="inkscape:persp3d" />
    <radialGradient
       inkscape:collect="always"
       xlink:href="#linearGradient3784-2"
       id="radialGradient3758"
       gradientUnits="userSpaceOnUse"
       gradientTransform="matrix(1.0456205,0.08243661,-0.05194947,0.90987799,0.84943041,1.3399685)"
       cx="49.580967"
       cy="67.04126"
       fx="49.580967"
       fy="67.04126"
       r="10" />
    <linearGradient
       id="linearGradient3784-2">
      <stop
         id="stop3786-4"
         offset="0"
         style="stop-color:#a0a0a0;stop-opacity:1;" />
      <stop
         id="stop3790-2"
         offset="1"
         style="stop-color:#1a1a1a;stop-opacity:1;" />
    </linearGradient>
    <radialGradient
       r="10"
       fy="67.04126"
       fx="49.580967"
       cy="67.04126"
       cx="49.580967"
       gradientTransform="matrix(1.0456205,0.08243661,-0.05194947,0.90987799,0.84943041,1.3399685)"
       gradientUnits="userSpaceOnUse"
       id="radialGradient3745"
       xlink:href="#linearGradient3784-2"
       inkscape:collect="always" />
    <radialGradient
       inkscape:collect="always"
       xlink:href="#linearGradient3784-2"
       id="radialGradient3698"
       cx="10.116978"
       cy="6.5340972"
       fx="10.116978"
       fy="6.5340972"
       r="2.6487656"
       gradientTransform="matrix(0.60548597,-0.18291744,0.13322228,0.44098703,0.81853832,7.6996387)"
       gradientUnits="userSpaceOnUse" />
    <linearGradient
       inkscape:collect="always"
       xlink:href="#linearGradient3831"
       id="linearGradient3845"
       x1="11"
       y1="19.5"
       x2="21"
       y2="19.5"
       gradientUnits="userSpaceOnUse"
       spreadMethod="reflect"
       gradientTransform="translate(31,-7)" />
    <linearGradient
       id="linearGradient3831">
      <stop
         style="stop-color:#ffffff;stop-opacity:1;"
         offset="0"
         id="stop3833" />
      <stop
         id="stop3821"
         offset="0.75"
         style="stop-color:#ffffff;stop-opacity:0.49803922;" />
      <stop
         style="stop-color:#ffffff;stop-opacity:0;"
         offset="1"
         id="stop3835" />
    </linearGradient>
    <linearGradient
       y2="16"
       x2="10"
       y1="1"
       x1="10"
       gradientTransform="translate(31,-7)"
       gradientUnits="userSpaceOnUse"
       id="linearGradient3961"
       xlink:href="#linearGradient3823"
       inkscape:collect="always" />
    <linearGradient
       id="linearGradient3823">
      <stop
         id="stop3825"
         offset="0"
         style="stop-color:#ffffff;stop-opacity:1;" />
      <stop
         id="stop3829"
         offset="1"
         style="stop-color:#ffffff;stop-opacity:0;" />
    </linearGradient>
    <linearGradient
       inkscape:collect="always"
       xlink:href="#linearGradient3700"
       id="linearGradient3904"
       gradientUnits="userSpaceOnUse"
       gradientTransform="matrix(0.23809655,0,0,0.23809655,26.571421,-5.4286899)"
       x1="48"
       y1="90"
       x2="48"
       y2="5.9877172" />
    <linearGradient
       id="linearGradient3700">
      <stop
         style="stop-color:#5eb71f;stop-opacity:1"
         offset="0"
         id="stop3702" />
      <stop
         style="stop-color:#4e9425;stop-opacity:1"
         offset="1"
         id="stop3704" />
    </linearGradient>
    <radialGradient
       inkscape:collect="always"
       xlink:href="#linearGradient4129"
       id="radialGradient3906"
       gradientUnits="userSpaceOnUse"
       gradientTransform="matrix(0.27211037,0,0,0.27211035,24.938757,-7.0613518)"
       cx="48"
       cy="48"
       fx="48"
       fy="48"
       r="42" />
    <linearGradient
       id="linearGradient4129">
      <stop
         style="stop-color:#effac2;stop-opacity:1;"
         offset="0"
         id="stop4131" />
      <stop
         id="stop4179"
         offset="0.5"
         style="stop-color:#effac2;stop-opacity:0.79389316;" />
      <stop
         style="stop-color:#effac2;stop-opacity:0;"
         offset="1"
         id="stop4133" />
    </linearGradient>
    <linearGradient
       inkscape:collect="always"
       xlink:href="#linearGradient4155"
       id="linearGradient3908"
       gradientUnits="userSpaceOnUse"
       x1="6"
       y1="88"
       x2="120"
       y2="88" />
    <linearGradient
       inkscape:collect="always"
       id="linearGradient4155">
      <stop
         style="stop-color:#36681f;stop-opacity:1;"
         offset="0"
         id="stop4157" />
      <stop
         style="stop-color:#36681f;stop-opacity:0;"
         offset="1"
         id="stop4159" />
    </linearGradient>
    <clipPath
       clipPathUnits="userSpaceOnUse"
       id="clipPath3893">
      <rect
         ry="8.3999538"
         rx="8.3999538"
         y="6.0004644"
         x="-130"
         height="83.999535"
         width="83.999535"
         id="rect3895"
         style="fill:#ff00ff;fill-opacity:1;fill-rule:evenodd;stroke:none;display:inline"
         transform="matrix(0,-1,1,0,0,0)" />
    </clipPath>
    <filter
       color-interpolation-filters="sRGB"
       inkscape:collect="always"
       id="filter4167">
      <feGaussianBlur
         inkscape:collect="always"
         stdDeviation="1.68"
         id="feGaussianBlur4169" />
    </filter>
    <linearGradient
       inkscape:collect="always"
       xlink:href="#linearGradient3327-2"
       id="linearGradient3335"
       x1="11.375"
       y1="22"
       x2="11.375"
       y2="-9.817296"
       gradientUnits="userSpaceOnUse" />
    <linearGradient
       inkscape:collect="always"
       id="linearGradient3327-2">
      <stop
         style="stop-color:#000000;stop-opacity:1;"
         offset="0"
         id="stop3330-5" />
      <stop
         style="stop-color:#000000;stop-opacity:0;"
         offset="1"
         id="stop3333-4" />
    </linearGradient>
    <linearGradient
       inkscape:collect="always"
       xlink:href="#linearGradient3700"
       id="linearGradient3140"
       gradientUnits="userSpaceOnUse"
       gradientTransform="matrix(0.23809655,0,0,0.23809655,26.571421,-5.4286899)"
       x1="48"
       y1="90"
       x2="48"
       y2="5.9877172" />
    <radialGradient
       inkscape:collect="always"
       xlink:href="#linearGradient4129"
       id="radialGradient3142"
       gradientUnits="userSpaceOnUse"
       gradientTransform="matrix(0.27211037,0,0,0.27211035,24.938757,-7.0613518)"
       cx="48"
       cy="48"
       fx="48"
       fy="48"
       r="42" />
    <linearGradient
       inkscape:collect="always"
       xlink:href="#linearGradient4155"
       id="linearGradient3144"
       gradientUnits="userSpaceOnUse"
       x1="6"
       y1="88"
       x2="120"
       y2="88" />
    <radialGradient
       inkscape:collect="always"
       xlink:href="#linearGradient4129"
       id="radialGradient3148"
       gradientUnits="userSpaceOnUse"
       gradientTransform="matrix(0.2176883,0,0,0.21768828,29.551006,-4.4490814)"
       cx="48"
       cy="48"
       fx="48"
       fy="48"
       r="42" />
    <linearGradient
       inkscape:collect="always"
       xlink:href="#linearGradient3700"
       id="linearGradient3151"
       gradientUnits="userSpaceOnUse"
       gradientTransform="matrix(0.19047724,0,0,0.19047724,30.857137,-3.1429519)"
       x1="48"
       y1="90"
       x2="48"
       y2="5.9877172" />
    <linearGradient
       inkscape:collect="always"
       xlink:href="#ButtonColor"
       id="linearGradient3155"
       gradientUnits="userSpaceOnUse"
       gradientTransform="translate(-15,30)"
       x1="1"
       y1="9"
       x2="15"
       y2="9" />
    <radialGradient
       inkscape:collect="always"
       xlink:href="#linearGradient4129"
       id="radialGradient3161"
       gradientUnits="userSpaceOnUse"
       gradientTransform="matrix(0.2176883,0,0,0.21768828,-2.448994,-2.4490814)"
       cx="48"
       cy="48"
       fx="48"
       fy="48"
       r="42" />
    <linearGradient
       inkscape:collect="always"
       xlink:href="#linearGradient3700"
       id="linearGradient3163"
       gradientUnits="userSpaceOnUse"
       gradientTransform="matrix(0.19047724,0,0,0.19047724,-1.142863,-1.1429519)"
       x1="48"
       y1="90"
       x2="48"
       y2="5.9877172" />
    <radialGradient
       inkscape:collect="always"
       xlink:href="#linearGradient4171"
       id="radialGradient3944"
       gradientUnits="userSpaceOnUse"
       gradientTransform="matrix(0.39833355,0,0,0.32364602,-8.307707,-5.551484)"
       cx="56"
       cy="50.518402"
       fx="56"
       fy="50.518402"
       r="30.119238" />
    <linearGradient
       inkscape:collect="always"
       id="linearGradient4171">
      <stop
         style="stop-color:#8c8c8c;stop-opacity:1;"
         offset="0"
         id="stop4173" />
      <stop
         style="stop-color:#303032;stop-opacity:1"
         offset="1"
         id="stop4175" />
    </linearGradient>
    <radialGradient
       r="30.119238"
       fy="50.518402"
       fx="56"
       cy="50.518402"
       cx="56"
       gradientTransform="matrix(0.2655557,0,0,0.21576401,-5.5384652,-2.4093226)"
       gradientUnits="userSpaceOnUse"
       id="radialGradient4056"
       xlink:href="#linearGradient4171"
       inkscape:collect="always" />
  </defs>
  <sodipodi:namedview
     id="base"
     pagecolor="#ffffff"
     bordercolor="#e7e7e7"
     borderopacity="1"
     inkscape:pageopacity="0.0"
     inkscape:pageshadow="2"
     inkscape:zoom="26.212949"
     inkscape:cx="18.56602"
     inkscape:cy="9.8687027"
     inkscape:document-units="px"
     inkscape:current-layer="layer1"
     showgrid="true"
     inkscape:showpageshadow="false"
     showguides="false"
     inkscape:guide-bbox="true"
     inkscape:window-width="1920"
     inkscape:window-height="1030"
     inkscape:window-x="0"
     inkscape:window-y="22"
     inkscape:window-maximized="1"
     inkscape:snap-global="false">
    <sodipodi:guide
       orientation="1,0"
       position="0,112"
       id="guide2383" />
    <sodipodi:guide
       orientation="0,1"
       position="26.278146,128"
       id="guide2385" />
    <sodipodi:guide
       orientation="1,0"
       position="128,54.082119"
       id="guide2387" />
    <sodipodi:guide
       orientation="0,1"
       position="78.156291,0"
       id="guide2389" />
    <sodipodi:guide
       orientation="0,1"
       position="60.863576,64.084768"
       id="guide2391" />
    <inkscape:grid
       type="xygrid"
       id="grid3672"
       visible="true"
       enabled="true" />
  </sodipodi:namedview>
  <metadata
     id="metadata7">
    <rdf:RDF>
      <cc:Work
         rdf:about="">
        <dc:format>image/svg+xml</dc:format>
        <dc:type
           rdf:resource="http://purl.org/dc/dcmitype/StillImage" />
        <dc:title></dc:title>
      </cc:Work>
    </rdf:RDF>
  </metadata>
  <g
     inkscape:label="Button"
     inkscape:groupmode="layer"
     id="layer1">
    <path
       style="fill:url(#linearGradient3163);fill-opacity:1;fill-rule:nonzero;stroke:none"
       d="M 2,0 C 0.892,0 0,0.892 0,2 l 0,12 c 0,1.108 0.892,2 2,2 l 12,0 c 1.108,0 2,-0.892 2,-2 L 16,2 C 16,0.892 15.108,0 14,0 L 2,0 z"
       id="rect2419"
       inkscape:connector-curvature="0" />
    <path
       style="fill:url(#radialGradient3161);fill-opacity:1;fill-rule:nonzero;stroke:none"
       d="M 2,0 C 0.892,0 0,0.892 0,2 l 0,12 c 0,1.108 0.892,2 2,2 l 12,0 c 1.108,0 2,-0.892 2,-2 L 16,2 C 16,0.892 15.108,0 14,0 L 2,0 z"
       id="rect3359"
       inkscape:connector-curvature="0" />
    <path
       style="opacity:0.4;fill:url(#linearGradient3629);fill-opacity:1;fill-rule:nonzero;stroke:none"
       d="m 0,14 c 0,1.108 0.892,2 2,2 l 12,0 c 1.108,0 2,-0.892 2,-2 L 16,2 C 16,0.892 15.108,0 14,0 L 2,0 C 0.892,0 0,0.892 0,2 l 0,12 z m 0.96875,0 0,-12 C 0.96875,1.416801 1.4168007,0.96875 2,0.96875 l 12,0 c 0.583199,0 1.03125,0.448051 1.03125,1.03125 l 0,12 c 0,0.583199 -0.448051,1.03125 -1.03125,1.03125 l -12,0 C 1.4168007,15.03125 0.96875,14.583199 0.96875,14 z"
       id="rect2835" />
    <path
       style="fill:#ffffff;fill-opacity:1;fill-rule:nonzero;stroke:none;opacity:0.2"
       d="M 2 0.96875 C 1.4168007 0.96875 0.96875 1.4168007 0.96875 2 L 0.96875 3 C 0.96875 2.4168007 1.4168007 1.96875 2 1.96875 L 14 1.96875 C 14.583199 1.96875 15.03125 2.4168007 15.03125 3 L 15.03125 2 C 15.03125 1.4168007 14.583199 0.96875 14 0.96875 L 2 0.96875 z "
       id="path2843" />
    <path
       inkscape:connector-curvature="0"
       id="path3950"
       d="M 6.9216975,2.5024971 C 6.6560691,2.5109383 6.4418131,2.5412345 6.3384857,2.5701913 6.1195478,2.6313834 5.8745264,2.7570665 5.7396518,2.9503205 5.6491977,3.0794042 5.5943037,3.2452166 5.593849,3.4762527 c 0,0.1307591 0.00187,0.4345084 0.0052,0.708186 0.00333,0.2745258 0.0052,0.5242579 0.0052,0.5259322 -1.56e-4,0.2444163 -0.1971253,0.4423063 -0.4426166,0.4426163 l -1.124766,0 c -0.240216,0 -0.4221727,0.04045 -0.5623827,0.104145 C 3.3340614,5.3208882 3.2324007,5.4053967 3.156836,5.5070801 3.0064301,5.7089989 2.979168,5.9557783 2.9797894,6.2100588 c 0,0 0.002,0.2122728 0.052073,0.6144554 0.041626,0.3111914 0.3824414,2.4840211 0.7029787,3.1451788 0.1242867,0.257237 0.2036554,0.36568 0.4478233,0.479067 0.5440254,0.232918 1.7868894,0.488184 2.3692987,0.562383 0.5813531,0.07438 0.9489738,0.232018 1.1664238,-0.223911 7.333e-4,-0.0011 0.04002,-0.111249 0.098937,-0.275985 0.1887875,-0.572069 0.2187043,-1.080299 0.2187043,-1.4476156 0,-0.037346 0.052071,-0.039067 0.052071,0 0,0.2593259 -0.047511,1.1753846 0.6456985,1.4215796 0.2736583,0.09705 0.8395475,0.182345 1.4163713,0.249948 0.521567,0.05993 0.900854,0.265719 0.900854,1.603832 0,0.814107 -0.173577,0.926891 -1.0674856,0.926891 -0.7246222,0 -0.9997917,0.01852 -0.9997917,-0.557176 0,-0.465278 0.4608643,-0.41658 0.801916,-0.41658 0.1523297,0 0.041657,-0.1139 0.041657,-0.400958 0,-0.285548 0.1793213,-0.448854 0.010414,-0.453031 -1.1793331,-0.03244 -1.8746088,-0.0013 -1.8746088,1.473652 0,1.338962 0.5132537,1.588211 2.1870441,1.588211 1.312347,0 1.77535,-0.04226 2.317227,-1.723599 0.107265,-0.331912 0.368992,-1.345526 0.525931,-3.046242 C 13.09258,8.6548248 12.896296,5.4097771 12.74339,4.5906042 12.653948,4.1118234 12.370675,3.8710435 12.113313,3.7782733 11.835645,3.6779139 11.274178,3.5752557 10.56676,3.4918746 9.9976295,3.424851 9.325336,3.4325185 8.9212686,3.4450093 8.8727758,3.1128488 8.6404052,2.8106338 8.3797155,2.7055798 7.9456052,2.5308476 7.3643996,2.4884293 6.9216855,2.502497 z M 5.3803517,2.8253466 c -0.00434,7.333e-4 -0.01134,9e-4 -0.01562,0.0052 L 3.1776871,5.0019763 c -0.00427,0.00352 -0.00919,0.00572 -0.010413,0.010414 0.045247,-0.022397 0.1110192,-0.053433 0.1197666,-0.05728 0.1905247,-0.085966 0.4212208,-0.1301806 0.6977721,-0.1301806 l 1.1247653,0 c 0.06452,0 0.1144354,-0.050534 0.1145601,-0.1145594 0,-4.166e-4 -0.010413,-0.9657557 -0.010413,-1.2341182 l 0,-0.0052 c 0,-0.2204065 0.044407,-0.4117632 0.124974,-0.5727975 l 0.04166,-0.072902 z m 5.1864203,4.6604883 c 0.02756,-0.00212 0.05832,-0.00106 0.08852,0 0.53499,0.018405 0.607346,0.5219031 0.609249,0.8644035 C 11.038968,8.2496513 10.761579,8.1838831 10.45742,8.1731919 10.295289,8.1675262 10.139397,8.1810691 9.9939755,8.2044348 10.032341,7.8945662 10.153416,7.5176129 10.566772,7.4858343 z"
       style="fill:#ffffff;fill-opacity:1;display:inline;opacity:0.4" />
    <path
       style="fill:url(#radialGradient4056);fill-opacity:1;display:inline"
       d="M 6.9216975,2.0024971 C 6.6560691,2.0109383 6.4418131,2.0412345 6.3384857,2.0701913 6.1195478,2.1313834 5.8745264,2.2570665 5.7396518,2.4503205 5.6491977,2.5794042 5.5943037,2.7452166 5.593849,2.9762527 c 0,0.1307591 0.00187,0.4345084 0.0052,0.708186 0.00333,0.2745258 0.0052,0.5242579 0.0052,0.5259322 -1.56e-4,0.2444163 -0.1971253,0.4423063 -0.4426166,0.4426163 l -1.124766,0 c -0.240216,0 -0.4221727,0.04045 -0.5623827,0.104145 C 3.3340614,4.8208882 3.2324007,4.9053967 3.156836,5.0070801 3.0064301,5.2089989 2.979168,5.4557783 2.9797894,5.7100588 c 0,0 0.002,0.2122728 0.052073,0.6144554 0.041626,0.3111914 0.3824414,2.4840211 0.7029787,3.1451788 0.1242867,0.257237 0.2036554,0.36568 0.4478233,0.479067 0.5440254,0.232918 1.7868894,0.488184 2.3692987,0.562383 0.5813531,0.07438 0.9489738,0.232018 1.1664238,-0.223911 7.333e-4,-0.0011 0.04002,-0.111249 0.098937,-0.275985 0.1887875,-0.572069 0.2187043,-1.080299 0.2187043,-1.4476156 0,-0.037346 0.052071,-0.039067 0.052071,0 0,0.2593259 -0.047511,1.1753846 0.6456985,1.4215796 0.2736583,0.09705 0.8395475,0.182345 1.4163713,0.249948 0.521567,0.05993 0.900854,0.265719 0.900854,1.603832 0,0.814107 -0.173577,0.926891 -1.0674856,0.926891 -0.7246222,0 -0.9997917,0.01852 -0.9997917,-0.557176 0,-0.465278 0.4608643,-0.41658 0.801916,-0.41658 0.1523297,0 0.041657,-0.1139 0.041657,-0.400958 0,-0.285548 0.1793213,-0.448854 0.010414,-0.453031 -1.1793331,-0.03244 -1.8746088,-0.0013 -1.8746088,1.473652 0,1.338962 0.5132537,1.588211 2.1870441,1.588211 1.312347,0 1.77535,-0.04226 2.317227,-1.723599 0.107265,-0.331912 0.368992,-1.345526 0.525931,-3.046242 C 13.09258,8.1548248 12.896296,4.9097771 12.74339,4.0906042 12.653948,3.6118234 12.370675,3.3710435 12.113313,3.2782733 11.835645,3.1779139 11.274178,3.0752557 10.56676,2.9918746 9.9976295,2.924851 9.325336,2.9325185 8.9212686,2.9450093 8.8727758,2.6128488 8.6404052,2.3106338 8.3797155,2.2055798 7.9456052,2.0308476 7.3643996,1.9884293 6.9216855,2.002497 z M 5.3803517,2.3253466 c -0.00434,7.333e-4 -0.01134,9e-4 -0.01562,0.0052 L 3.1776871,4.5019763 c -0.00427,0.00352 -0.00919,0.00572 -0.010413,0.010414 0.045247,-0.022397 0.1110192,-0.053433 0.1197666,-0.05728 0.1905247,-0.085966 0.4212208,-0.1301806 0.6977721,-0.1301806 l 1.1247653,0 c 0.06452,0 0.1144354,-0.050534 0.1145601,-0.1145594 0,-4.166e-4 -0.010413,-0.9657557 -0.010413,-1.2341182 l 0,-0.0052 c 0,-0.2204065 0.044407,-0.4117632 0.124974,-0.5727975 l 0.04166,-0.072902 z m 5.1864203,4.6604883 c 0.02756,-0.00212 0.05832,-0.00106 0.08852,0 0.53499,0.018405 0.607346,0.5219031 0.609249,0.8644035 C 11.038968,7.7496513 10.761579,7.6838831 10.45742,7.6731919 10.295289,7.6675262 10.139397,7.6810691 9.9939755,7.7044348 10.032341,7.3945662 10.153416,7.0176129 10.566772,6.9858343 z"
       id="path4183"
       inkscape:connector-curvature="0" />
  </g>
</svg>
