<?xml version="1.0" encoding="UTF-8" standalone="no"?>
<svg
   xmlns:dc="http://purl.org/dc/elements/1.1/"
   xmlns:cc="http://creativecommons.org/ns#"
   xmlns:rdf="http://www.w3.org/1999/02/22-rdf-syntax-ns#"
   xmlns:svg="http://www.w3.org/2000/svg"
   xmlns="http://www.w3.org/2000/svg"
   xmlns:sodipodi="http://sodipodi.sourceforge.net/DTD/sodipodi-0.dtd"
   xmlns:inkscape="http://www.inkscape.org/namespaces/inkscape"
   id="svg2"
   width="16"
   height="16"
   version="1.0"
   sodipodi:docname="exfalso.svg"
   inkscape:version="0.92.2 5c3e80d, 2017-08-06">
  <metadata
     id="metadata31">
    <rdf:RDF>
      <cc:Work
         rdf:about="">
        <dc:format>image/svg+xml</dc:format>
        <dc:type
           rdf:resource="http://purl.org/dc/dcmitype/StillImage" />
      </cc:Work>
    </rdf:RDF>
  </metadata>
  <sodipodi:namedview
     pagecolor="#ffffff"
     bordercolor="#666666"
     borderopacity="1"
     objecttolerance="10"
     gridtolerance="10"
     guidetolerance="10"
     inkscape:pageopacity="0"
     inkscape:pageshadow="2"
     inkscape:window-width="640"
     inkscape:window-height="480"
     id="namedview29"
     showgrid="false"
     inkscape:zoom="14.75"
     inkscape:cx="8"
     inkscape:cy="8"
     inkscape:window-x="0"
     inkscape:window-y="25"
     inkscape:window-maximized="0"
     inkscape:current-layer="svg2" />
  <defs
     id="defs4">
    <linearGradient
       id="linearGradient3204"
       x1="1"
       x2="15"
       y1="9"
       y2="9"
       gradientTransform="translate(-17,-2)"
       gradientUnits="userSpaceOnUse">
      <stop
         id="stop3189"
         stop-color="#141414"
         offset="0" />
      <stop
         id="stop3191"
         stop-color="#25556e"
         offset="1" />
    </linearGradient>
    <linearGradient
       id="linearGradient3629"
       x2="29.017"
       y1="8"
       y2="8"
       gradientTransform="matrix(0,-1,1,0,0,16)"
       gradientUnits="userSpaceOnUse">
      <stop
         id="stop3330"
         offset="0" />
      <stop
         id="stop3333"
         stop-opacity="0"
         offset="1" />
    </linearGradient>
  </defs>
  <g
     id="layer1">
    <rect
       id="rect3196"
       transform="rotate(-90)"
       x="-16"
       width="16"
       height="16"
       rx="2"
       ry="2"
       fill="url(#linearGradient3204)" />
    <path
       id="rect2835"
       d="m0 14c0 1.108 0.892 2 2 2h12c1.108 0 2-0.892 2-2v-12c0-1.108-0.892-2-2-2h-12c-1.108 0-2 0.892-2 2v12zm0.96875 0v-12c0-0.5832 0.44805-1.0312 1.0312-1.0312h12c0.5832 0 1.0312 0.44805 1.0312 1.0312v12c0 0.5832-0.44805 1.0312-1.0312 1.0312h-12c-0.5832 0-1.0312-0.44805-1.0312-1.0312z"
       fill="url(#linearGradient3629)"
       opacity=".4" />
    <path
       id="path2843"
       d="m2 0.96875c-0.5832 0-1.0312 0.44805-1.0312 1.0312v1c0-0.5832 0.44805-1.0312 1.0312-1.0312h12c0.5832 0 1.0312 0.44805 1.0312 1.0312v-1c0-0.5832-0.44805-1.0312-1.0312-1.0312h-12z"
       fill="#fff"
       opacity=".35" />
  </g>
  <defs
     id="defs21">
    <filter
       id="w">
      <feGaussianBlur
         stdDeviation="0.26998568"
         id="feGaussianBlur13" />
    </filter>
    <linearGradient
       id="a"
       gradientUnits="userSpaceOnUse"
       x1="8"
       y1="1.000008"
       x2="8"
       y2="15.000002">
      <stop
         stop-color="#ffffff"
         offset="0"
         id="stop16" />
      <stop
         stop-color="#ffffff"
         offset="1"
         id="stop18" />
    </linearGradient>
  </defs>
  <g
     id="main"
     transform="translate(1,1) scale(0.85714)">
    <path
       style="opacity:0.3;fill:#000000"
       inkscape:connector-curvature="0"
       id="path23"
       d="m 1.0025,2.0028 c -0.023488,0.023526 0.11938,0.31226 0.31638,0.63993 0.19701,0.32767 0.41274,0.87331 0.48043,1.2133 0.067684,0.34002 0.19488,0.97757 0.28123,1.4169 0.34009,1.7302 0.89429,2.6495 1.7264,2.8611 0.21972,0.05587 0.76823,0.13509 1.2186,0.17417 0.86967,0.075479 1.7342,0.41508 1.7342,0.68299 0,0.27842 -0.85541,0.6248 -1.7284,0.7006 -0.45351,0.039378 -1.0155,0.12073 -1.2479,0.18004 -0.82086,0.20943 -1.3613,1.117 -1.703,2.8552 -0.086343,0.43929 -0.21354,1.0768 -0.28123,1.4169 -0.067684,0.34002 -0.28342,0.88761 -0.48043,1.2153 -0.197,0.32768 -0.33987,0.61445 -0.31638,0.63798 0.023488,0.02353 0.27408,-0.10432 0.55659,-0.28376 0.59016,-0.37485 0.89854,-0.47275 2.2225,-0.70452 1.0899,-0.1908 2.0769,-0.49853 2.574,-0.80432 0.56647,-0.3485 0.77613,-0.81446 0.8925,-1.9785 0.11037,-1.104 0.43985,-2 0.73431,-2 0.0057,0 0.011777,0.0052 0.017577,0.0059 0.00575,-7.25e-4 0.011876,-0.0059 0.017577,-0.0059 0.29446,0 0.62395,0.89607 0.73431,2 0.11638,1.1641 0.32604,1.63 0.8925,1.9785 0.49706,0.3058 1.4841,0.61353 2.574,0.80432 1.3239,0.23177 1.6323,0.32966 2.2225,0.70452 0.28252,0.17945 0.53311,0.30729 0.5566,0.28376 0.02349,-0.02353 -0.11938,-0.3103 -0.31638,-0.63798 -0.19701,-0.32768 -0.41275,-0.87526 -0.48043,-1.2153 -0.06769,-0.34002 -0.19488,-0.97757 -0.28123,-1.4169 -0.34168,-1.7383 -0.88212,-2.6458 -1.703,-2.8552 -0.23249,-0.059317 -0.79443,-0.14066 -1.2479,-0.18004 -0.87296,-0.075802 -1.7284,-0.42219 -1.7284,-0.7006 0,-0.26791 0.86456,-0.60751 1.7342,-0.68299 0.45043,-0.039091 0.99893,-0.1183 1.2186,-0.17417 0.83213,-0.2116 1.3863,-1.131 1.7264,-2.8611 0.08634,-0.43929 0.21354,-1.0768 0.28123,-1.4169 0.06768,-0.34002 0.28342,-0.88566 0.48043,-1.2133 0.197,-0.32767 0.33987,-0.61641 0.31638,-0.63993 -0.02349,-0.023525 -0.27408,0.10432 -0.5566,0.28376 -0.5876,0.37323 -0.90068,0.4739 -2.1951,0.7006 -1.8588,0.32554 -2.8823,0.78378 -3.2243,1.4462 -0.092662,0.17947 -0.21493,0.79054 -0.27146,1.3562 -0.10778,1.0784 -0.43763,1.9863 -0.7226,1.9863 -0.00883,0 -0.018389,-0.00809 -0.027342,-0.00979 C 7.990912,7.76777 7.98132,7.77586 7.97252,7.77586 7.68756,7.77586 7.35771,6.86793 7.24992,5.78956 7.193387,5.22391 7.07112,4.61286 6.97846,4.43336 6.63644,3.77093 5.61296,3.31266 3.75416,2.98716 2.45966,2.76046 2.14666,2.65979 1.55906,2.28656 1.27654,2.10711 1.02595,1.97927 1.00247,2.0028 Z" />
    <path
       d="m1.0025 1.0028c-0.023488 0.023526 0.11938 0.31226 0.31638 0.63993 0.19701 0.32767 0.41274 0.87331 0.48043 1.2133 0.067684 0.34002 0.19488 0.97757 0.28123 1.4169 0.34009 1.7302 0.89429 2.6495 1.7264 2.8611 0.21972 0.05587 0.76823 0.13509 1.2186 0.17417 0.86967 0.075479 1.7342 0.41508 1.7342 0.68299 0 0.27842-0.85541 0.6248-1.7284 0.7006-0.45351 0.039378-1.0155 0.12073-1.2479 0.18004-0.82086 0.20943-1.3613 1.117-1.703 2.8552-0.086343 0.43929-0.21354 1.0768-0.28123 1.4169-0.067684 0.34002-0.28342 0.88761-0.48043 1.2153-0.197 0.32768-0.33987 0.61445-0.31638 0.63798 0.023488 0.02353 0.27408-0.10432 0.55659-0.28376 0.59016-0.37485 0.89854-0.47275 2.2225-0.70452 1.0899-0.1908 2.0769-0.49853 2.574-0.80432 0.56647-0.3485 0.77613-0.81446 0.8925-1.9785 0.11037-1.104 0.43985-2 0.73431-2 0.0057 0 0.011777 0.00515 0.017577 0.00587 0.00575-7.251e-4 0.011876-0.00587 0.017577-0.00587 0.29446 0 0.62395 0.89607 0.73431 2 0.11638 1.1641 0.32604 1.63 0.8925 1.9785 0.49706 0.3058 1.4841 0.61353 2.574 0.80432 1.3239 0.23177 1.6323 0.32966 2.2225 0.70452 0.28252 0.17945 0.53311 0.30729 0.5566 0.28376 0.02349-0.02353-0.11938-0.3103-0.31638-0.63798-0.19701-0.32768-0.41275-0.87526-0.48043-1.2153-0.06769-0.34002-0.19488-0.97757-0.28123-1.4169-0.34168-1.7383-0.88212-2.6458-1.703-2.8552-0.23249-0.059317-0.79443-0.14066-1.2479-0.18004-0.87296-0.075802-1.7284-0.42219-1.7284-0.7006 0-0.26791 0.86456-0.60751 1.7342-0.68299 0.45043-0.039091 0.99893-0.1183 1.2186-0.17417 0.83213-0.2116 1.3863-1.131 1.7264-2.8611 0.08634-0.43929 0.21354-1.0768 0.28123-1.4169 0.06768-0.34002 0.28342-0.88566 0.48043-1.2133 0.197-0.32767 0.33987-0.61641 0.31638-0.63993-0.02349-0.023525-0.27408 0.10432-0.5566 0.28376-0.5876 0.37323-0.90068 0.4739-2.1951 0.7006-1.8588 0.32554-2.8823 0.78378-3.2243 1.4462-0.092662 0.17947-0.21493 0.79054-0.27146 1.3562-0.10778 1.0784-0.43763 1.9863-0.7226 1.9863-0.00883 0-0.018389-0.00809-0.027342-0.00979-0.00895 0.0017-0.018542 0.00979-0.027342 0.00979-0.28496 0-0.61481-0.90793-0.7226-1.9863-0.056533-0.56565-0.1788-1.1767-0.27146-1.3562-0.34202-0.66243-1.3655-1.1207-3.2243-1.4462-1.2945-0.2267-1.6075-0.32737-2.1951-0.7006-0.28252-0.17945-0.53311-0.30729-0.55659-0.28376z"
       fill="url(#a)"
       id="base" />
  </g>
</svg>
