<?xml version="1.0" encoding="UTF-8" standalone="no"?>
<svg
   xmlns:dc="http://purl.org/dc/elements/1.1/"
   xmlns:cc="http://creativecommons.org/ns#"
   xmlns:rdf="http://www.w3.org/1999/02/22-rdf-syntax-ns#"
   xmlns:svg="http://www.w3.org/2000/svg"
   xmlns="http://www.w3.org/2000/svg"
   xmlns:sodipodi="http://sodipodi.sourceforge.net/DTD/sodipodi-0.dtd"
   xmlns:inkscape="http://www.inkscape.org/namespaces/inkscape"
   id="svg2"
   width="16"
   height="16"
   version="1.0"
   sodipodi:docname="geogebra.svg"
   inkscape:version="0.92.2 5c3e80d, 2017-08-06">
  <metadata
     id="metadata31">
    <rdf:RDF>
      <cc:Work
         rdf:about="">
        <dc:format>image/svg+xml</dc:format>
        <dc:type
           rdf:resource="http://purl.org/dc/dcmitype/StillImage" />
      </cc:Work>
    </rdf:RDF>
  </metadata>
  <sodipodi:namedview
     pagecolor="#ffffff"
     bordercolor="#666666"
     borderopacity="1"
     objecttolerance="10"
     gridtolerance="10"
     guidetolerance="10"
     inkscape:pageopacity="0"
     inkscape:pageshadow="2"
     inkscape:window-width="640"
     inkscape:window-height="480"
     id="namedview29"
     showgrid="false"
     inkscape:zoom="14.75"
     inkscape:cx="8"
     inkscape:cy="8"
     inkscape:window-x="0"
     inkscape:window-y="25"
     inkscape:window-maximized="0"
     inkscape:current-layer="svg2" />
  <defs
     id="defs4">
    <linearGradient
       id="linearGradient3204"
       x1="1"
       x2="15"
       y1="9"
       y2="9"
       gradientTransform="translate(-17,-2)"
       gradientUnits="userSpaceOnUse">
      <stop
         id="stop3189"
         stop-color="#9999ff"
         offset="0" />
      <stop
         id="stop3191"
         stop-color="#bfbfff"
         offset="1" />
    </linearGradient>
    <linearGradient
       id="linearGradient3629"
       x2="29.017"
       y1="8"
       y2="8"
       gradientTransform="matrix(0,-1,1,0,0,16)"
       gradientUnits="userSpaceOnUse">
      <stop
         id="stop3330"
         offset="0" />
      <stop
         id="stop3333"
         stop-opacity="0"
         offset="1" />
    </linearGradient>
  </defs>
  <g
     id="layer1">
    <rect
       id="rect3196"
       transform="rotate(-90)"
       x="-16"
       width="16"
       height="16"
       rx="2"
       ry="2"
       fill="url(#linearGradient3204)" />
    <path
       id="rect2835"
       d="m0 14c0 1.108 0.892 2 2 2h12c1.108 0 2-0.892 2-2v-12c0-1.108-0.892-2-2-2h-12c-1.108 0-2 0.892-2 2v12zm0.96875 0v-12c0-0.5832 0.44805-1.0312 1.0312-1.0312h12c0.5832 0 1.0312 0.44805 1.0312 1.0312v12c0 0.5832-0.44805 1.0312-1.0312 1.0312h-12c-0.5832 0-1.0312-0.44805-1.0312-1.0312z"
       fill="url(#linearGradient3629)"
       opacity=".4" />
    <path
       id="path2843"
       d="m2 0.96875c-0.5832 0-1.0312 0.44805-1.0312 1.0312v1c0-0.5832 0.44805-1.0312 1.0312-1.0312h12c0.5832 0 1.0312 0.44805 1.0312 1.0312v-1c0-0.5832-0.44805-1.0312-1.0312-1.0312h-12z"
       fill="#fff"
       opacity=".35" />
  </g>
  <defs
     id="defs21">
    <filter
       id="w">
      <feGaussianBlur
         stdDeviation="0.26998568"
         id="feGaussianBlur13" />
    </filter>
    <linearGradient
       id="a"
       gradientUnits="userSpaceOnUse"
       x1="8"
       y1="0.99999"
       x2="8"
       y2="14.99994">
      <stop
         stop-color="#ffffff"
         offset="0"
         id="stop16" />
      <stop
         stop-color="#ffffff"
         offset="1"
         id="stop18" />
    </linearGradient>
  </defs>
  <g
     id="main"
     transform="translate(1,1) scale(0.85714)">
    <path
       style="opacity:0.3;fill:#000000"
       inkscape:connector-curvature="0"
       id="path23"
       d="M 7.7623,2 C 7.1162,2 6.5707,2.44813 6.3953,3.0627 4.326,3.63797 2.6811,5.1636 2.0764,7.1156 1.45778,7.27837 1,7.86306 1,8.559 c 0,0.63475 0.38158,1.1761 0.91792,1.39 0.25307,1.6079 1.0267,3.0222 2.2271,3.9306 -0.0862,0.1917 -0.13372,0.40637 -0.13372,0.63214 0,0.8219 0.63863,1.4882 1.4264,1.4882 0.65576,0 1.2085,-0.46151 1.3752,-1.0903 0.20411,0.02087 0.41431,0.03109 0.62901,0.03109 1.6255,0 3.2879,-0.61329 4.6028,-1.6036 0.17669,0.0818 0.37207,0.12746 0.57783,0.12746 0.78779,0 1.4264,-0.66629 1.4264,-1.4882 0,-0.24304 -0.0561,-0.47258 -0.15519,-0.6752 0.45576,-0.77756 0.72146,-1.6351 0.72146,-2.5268 0,-0.59956 -0.0953,-1.1769 -0.27075,-1.7207 0.39389,-0.26488 0.65542,-0.72526 0.65542,-1.2505 0,-0.82191 -0.63862,-1.4882 -1.4264,-1.4882 -0.30181,0 -0.58175,0.098384 -0.81226,0.26526 C 11.78446,3.66269 10.49272,3.04065 9.05812,2.86465 8.83211,2.35401 8.33664,1.99999 7.76212,1.99999 Z m 1.4,1.7689 c 1.2082,0.18786 2.276,0.7307 3.079,1.5037 -0.0605,0.16498 -0.0941,0.34336 -0.0941,0.53051 0,0.80614 0.61495,1.4616 1.3818,1.4865 0.1573,0.47083 0.24269,0.96936 0.24269,1.4848 0,0.65119 -0.17855,1.2886 -0.49033,1.8809 -0.19694,-0.10709 -0.42128,-0.16709 -0.65873,-0.16709 -0.78779,0 -1.4264,0.66629 -1.4264,1.4882 0,0.27894 0.0734,0.53991 0.20141,0.76303 -1.1415,0.81045 -2.5623,1.3177 -3.9557,1.3177 -0.22718,0 -0.44695,-0.01356 -0.65873,-0.03954 -0.19544,-0.57873 -0.72394,-0.99384 -1.3455,-0.99384 -0.2631,0 -0.50986,0.07366 -0.72146,0.20325 -1.0306,-0.7396 -1.6852,-1.9071 -1.9332,-3.2261 0.61528,-0.16516 1.0698,-0.7482 1.0698,-1.4417 0,-0.6282 -0.37382,-1.1647 -0.90141,-1.3831 0.54171,-1.4935 1.822,-2.6903 3.4604,-3.2055 0.19203,0.58521 0.72447,1.0059 1.3505,1.0059 0.69575,0 1.2741,-0.51982 1.4,-1.2074 z" />
    <path
       d="m7.7623 1c-0.6461 0-1.1916 0.44813-1.367 1.0627-2.0693 0.57527-3.7142 2.1009-4.3189 4.0529-0.61862 0.16277-1.0764 0.74746-1.0764 1.4434 0 0.63475 0.38158 1.1761 0.91792 1.39 0.25307 1.6079 1.0267 3.0222 2.2271 3.9306-0.0862 0.1917-0.13372 0.40637-0.13372 0.63214 0 0.8219 0.63863 1.4882 1.4264 1.4882 0.65576 0 1.2085-0.46151 1.3752-1.0903 0.20411 0.02087 0.41431 0.03109 0.62901 0.03109 1.6255 0 3.2879-0.61329 4.6028-1.6036 0.17669 0.0818 0.37207 0.12746 0.57783 0.12746 0.78779 0 1.4264-0.66629 1.4264-1.4882 0-0.24304-0.0561-0.47258-0.15519-0.6752 0.45576-0.77756 0.72146-1.6351 0.72146-2.5268 0-0.59956-0.0953-1.1769-0.27075-1.7207 0.39389-0.26488 0.65542-0.72526 0.65542-1.2505 0-0.82191-0.63862-1.4882-1.4264-1.4882-0.30181 0-0.58175 0.098384-0.81226 0.26526-0.97676-0.91756-2.2685-1.5396-3.7031-1.7156-0.22601-0.51064-0.72148-0.86466-1.296-0.86466zm1.4 1.7689c1.2082 0.18786 2.276 0.7307 3.079 1.5037-0.0605 0.16498-0.0941 0.34336-0.0941 0.53051 0 0.80614 0.61495 1.4616 1.3818 1.4865 0.1573 0.47083 0.24269 0.96936 0.24269 1.4848 0 0.65119-0.17855 1.2886-0.49033 1.8809-0.19694-0.10709-0.42128-0.16709-0.65873-0.16709-0.78779 0-1.4264 0.66629-1.4264 1.4882 0 0.27894 0.0734 0.53991 0.20141 0.76303-1.1415 0.81045-2.5623 1.3177-3.9557 1.3177-0.22718 0-0.44695-0.01356-0.65873-0.03954-0.19544-0.57873-0.72394-0.99384-1.3455-0.99384-0.2631 0-0.50986 0.07366-0.72146 0.20325-1.0306-0.7396-1.6852-1.9071-1.9332-3.2261 0.61528-0.16516 1.0698-0.7482 1.0698-1.4417 0-0.6282-0.37382-1.1647-0.90141-1.3831 0.54171-1.4935 1.822-2.6903 3.4604-3.2055 0.19203 0.58521 0.72447 1.0059 1.3505 1.0059 0.69575 0 1.2741-0.51982 1.4-1.2074z"
       fill="url(#a)"
       id="base" />
  </g>
</svg>
