<?xml version="1.0" encoding="UTF-8" standalone="no"?>
<svg
   xmlns:dc="http://purl.org/dc/elements/1.1/"
   xmlns:cc="http://creativecommons.org/ns#"
   xmlns:rdf="http://www.w3.org/1999/02/22-rdf-syntax-ns#"
   xmlns:svg="http://www.w3.org/2000/svg"
   xmlns="http://www.w3.org/2000/svg"
   xmlns:sodipodi="http://sodipodi.sourceforge.net/DTD/sodipodi-0.dtd"
   xmlns:inkscape="http://www.inkscape.org/namespaces/inkscape"
   id="svg2"
   width="16"
   height="16"
   version="1.0"
   sodipodi:docname="half-life2.svg"
   inkscape:version="0.92.2 5c3e80d, 2017-08-06">
  <metadata
     id="metadata31">
    <rdf:RDF>
      <cc:Work
         rdf:about="">
        <dc:format>image/svg+xml</dc:format>
        <dc:type
           rdf:resource="http://purl.org/dc/dcmitype/StillImage" />
      </cc:Work>
    </rdf:RDF>
  </metadata>
  <sodipodi:namedview
     pagecolor="#ffffff"
     bordercolor="#666666"
     borderopacity="1"
     objecttolerance="10"
     gridtolerance="10"
     guidetolerance="10"
     inkscape:pageopacity="0"
     inkscape:pageshadow="2"
     inkscape:window-width="640"
     inkscape:window-height="480"
     id="namedview29"
     showgrid="false"
     inkscape:zoom="14.75"
     inkscape:cx="8"
     inkscape:cy="8"
     inkscape:window-x="0"
     inkscape:window-y="25"
     inkscape:window-maximized="0"
     inkscape:current-layer="svg2" />
  <defs
     id="defs4">
    <linearGradient
       id="linearGradient3204"
       x1="1"
       x2="15"
       y1="9"
       y2="9"
       gradientTransform="translate(-17,-2)"
       gradientUnits="userSpaceOnUse">
      <stop
         id="stop3189"
         stop-color="#323232"
         offset="0" />
      <stop
         id="stop3191"
         stop-color="#505050"
         offset="1" />
    </linearGradient>
    <linearGradient
       id="linearGradient3629"
       x2="29.017"
       y1="8"
       y2="8"
       gradientTransform="matrix(0,-1,1,0,0,16)"
       gradientUnits="userSpaceOnUse">
      <stop
         id="stop3330"
         offset="0" />
      <stop
         id="stop3333"
         stop-opacity="0"
         offset="1" />
    </linearGradient>
  </defs>
  <g
     id="layer1">
    <rect
       id="rect3196"
       transform="rotate(-90)"
       x="-16"
       width="16"
       height="16"
       rx="2"
       ry="2"
       fill="url(#linearGradient3204)" />
    <path
       id="rect2835"
       d="m0 14c0 1.108 0.892 2 2 2h12c1.108 0 2-0.892 2-2v-12c0-1.108-0.892-2-2-2h-12c-1.108 0-2 0.892-2 2v12zm0.96875 0v-12c0-0.5832 0.44805-1.0312 1.0312-1.0312h12c0.5832 0 1.0312 0.44805 1.0312 1.0312v12c0 0.5832-0.44805 1.0312-1.0312 1.0312h-12c-0.5832 0-1.0312-0.44805-1.0312-1.0312z"
       fill="url(#linearGradient3629)"
       opacity=".4" />
    <path
       id="path2843"
       d="m2 0.96875c-0.5832 0-1.0312 0.44805-1.0312 1.0312v1c0-0.5832 0.44805-1.0312 1.0312-1.0312h12c0.5832 0 1.0312 0.44805 1.0312 1.0312v-1c0-0.5832-0.44805-1.0312-1.0312-1.0312h-12z"
       fill="#fff"
       opacity=".35" />
  </g>
  <defs
     id="defs21">
    <filter
       id="w">
      <feGaussianBlur
         stdDeviation="0.26998568"
         id="feGaussianBlur13" />
    </filter>
    <linearGradient
       id="a"
       gradientUnits="userSpaceOnUse"
       x1="8"
       y1="1.9995662"
       x2="8"
       y2="13.9996572">
      <stop
         stop-color="#ff9616"
         offset="0"
         id="stop16" />
      <stop
         stop-color="#ff8c00"
         offset="1"
         id="stop18" />
    </linearGradient>
  </defs>
  <g
     id="main"
     transform="translate(1,1) scale(0.85714)">
    <path
       style="opacity:0.3;fill:#000000"
       inkscape:connector-curvature="0"
       id="path23"
       d="M 12.18,2.9997 C 11.54656,3.0017 10.8693,3.044703 10.285,3.044703 8.981,3.044703 7.7017,2.9985 6.57,3.082205 4.8216,3.211485 3.5249,3.975165 2.6287,4.939805 1.71322,5.925275 1,7.320705 1,9.032605 c 0,1.7846 0.69259,3.1182 1.6287,4.0928 0.89061,0.9271 2.2091,1.7464 3.8663,1.8576 3.0564,0.20485 5.0907,-1.5067 5.9875,-3.6765 0.58232,-1.409 1.2863,-3.1029 1.895,-4.5853 0.18392,-0.44787 0.54553,-1.0171 0.60625,-1.5539 0.12096,-1.0697 -0.4512,-1.6865 -1.175,-1.9714 -0.4063,-0.15993 -0.99531,-0.19834 -1.6288,-0.19626 z m 0.54125,0.68254 c 0.42863,-0.018401 0.8768,0.27398 0.8225,0.84005 -0.0617,0.6436 -0.70476,1.0939 -0.98499,1.5164 h 0.98499 c 0.0592,0.086905 0.0592,0.36814 0,0.45503 -0.49452,-0.048603 -1.0464,-0.040402 -1.5912,-0.038702 -0.23196,-0.85074 1.2052,-1.4213 1.06,-2.1214 -0.0685,-0.33018 -0.53915,-0.34089 -0.45374,0.15126 h -0.56876 c -0.01,-0.52781 0.35305,-0.78629 0.73125,-0.80255 z m -5.69,0.50253 c 1.4594,0.005 2.5132,0.583 3.2537,1.2476 0.92941,0.83402 1.7894,2.5331 1.4775,4.3965 -0.2546,1.5212 -1.1091,2.7305 -2.5013,3.4865 -1.5149,0.82277 -3.4172,0.69981 -4.775,-0.11376 -1.3103,-0.78514 -2.5436,-2.307 -2.35,-4.7003 0.10297,-1.2726 0.65625,-2.1561 1.365,-2.8802 0.66041,-0.67472 1.5884,-1.2632 2.88,-1.4013 C 6.60653,4.195709 6.82267,4.184108 7.03116,4.184808 Z m -1.6738,1.2851 v 1.0238 h 0.87251 c 0.0836,0.29534 0.23697,0.5203 0.30249,0.8338 -0.74767,1.2762 -1.6044,2.6673 -2.3488,3.9028 -0.0963,0.15985 -0.23938,0.35135 -0.2275,0.53128 h 1.2875 c 0.65612,-0.93562 1.2204,-1.963 1.895,-2.8802 0.37468,1.0655 0.82128,2.0587 1.175,3.1452 0.7174,-0.17941 1.442,-0.35117 2.0462,-0.64379 -0.17043,-0.28438 -0.19743,-0.71289 -0.37875,-0.98631 -0.28592,0.11829 -0.58228,0.22728 -0.91,0.30377 -0.61252,-1.7877 -1.3574,-3.4427 -1.97,-5.2303 z" />
    <path
       d="m12.18 1.9997c-0.63344 2e-3 -1.3107 0.045003-1.895 0.045003-1.304 0-2.5833-0.046203-3.715 0.037502-1.7484 0.12928-3.0451 0.89296-3.9413 1.8576-0.91548 0.98547-1.6287 2.3809-1.6287 4.0928 0 1.7846 0.69259 3.1182 1.6287 4.0928 0.89061 0.9271 2.2091 1.7464 3.8663 1.8576 3.0564 0.20485 5.0907-1.5067 5.9875-3.6765 0.58232-1.409 1.2863-3.1029 1.895-4.5853 0.18392-0.44787 0.54553-1.0171 0.60625-1.5539 0.12096-1.0697-0.4512-1.6865-1.175-1.9714-0.4063-0.15993-0.99531-0.19834-1.6288-0.19626zm0.54125 0.68254c0.42863-0.018401 0.8768 0.27398 0.8225 0.84005-0.0617 0.6436-0.70476 1.0939-0.98499 1.5164h0.98499c0.0592 0.086905 0.0592 0.36814 0 0.45503-0.49452-0.048603-1.0464-0.040402-1.5912-0.038702-0.23196-0.85074 1.2052-1.4213 1.06-2.1214-0.0685-0.33018-0.53915-0.34089-0.45374 0.15126h-0.56876c-0.01-0.52781 0.35305-0.78629 0.73125-0.80255zm-5.69 0.50253c1.4594 5e-3 2.5132 0.583 3.2537 1.2476 0.92941 0.83402 1.7894 2.5331 1.4775 4.3965-0.2546 1.5212-1.1091 2.7305-2.5013 3.4865-1.5149 0.82277-3.4172 0.69981-4.775-0.11376-1.3103-0.78514-2.5436-2.307-2.35-4.7003 0.10297-1.2726 0.65625-2.1561 1.365-2.8802 0.66041-0.67472 1.5884-1.2632 2.88-1.4013 0.22538-0.024101 0.44152-0.035702 0.65001-0.035002zm-1.6738 1.2851v1.0238h0.87251c0.0836 0.29534 0.23697 0.5203 0.30249 0.8338-0.74767 1.2762-1.6044 2.6673-2.3488 3.9028-0.0963 0.15985-0.23938 0.35135-0.2275 0.53128h1.2875c0.65612-0.93562 1.2204-1.963 1.895-2.8802 0.37468 1.0655 0.82128 2.0587 1.175 3.1452 0.7174-0.17941 1.442-0.35117 2.0462-0.64379-0.17043-0.28438-0.19743-0.71289-0.37875-0.98631-0.28592 0.11829-0.58228 0.22728-0.91 0.30377-0.61252-1.7877-1.3574-3.4427-1.97-5.2303z"
       fill="url(#a)"
       id="base" />
  </g>
</svg>
