<?xml version="1.0" encoding="UTF-8" standalone="no"?>
<svg
   xmlns:dc="http://purl.org/dc/elements/1.1/"
   xmlns:cc="http://creativecommons.org/ns#"
   xmlns:rdf="http://www.w3.org/1999/02/22-rdf-syntax-ns#"
   xmlns:svg="http://www.w3.org/2000/svg"
   xmlns="http://www.w3.org/2000/svg"
   xmlns:xlink="http://www.w3.org/1999/xlink"
   xmlns:sodipodi="http://sodipodi.sourceforge.net/DTD/sodipodi-0.dtd"
   xmlns:inkscape="http://www.inkscape.org/namespaces/inkscape"
   id="svg2"
   width="16"
   height="16"
   version="1.0"
   sodipodi:docname="kvantum.svg"
   inkscape:version="0.92.2 5c3e80d, 2017-08-06">
  <metadata
     id="metadata31">
    <rdf:RDF>
      <cc:Work
         rdf:about="">
        <dc:format>image/svg+xml</dc:format>
        <dc:type
           rdf:resource="http://purl.org/dc/dcmitype/StillImage" />
      </cc:Work>
    </rdf:RDF>
  </metadata>
  <sodipodi:namedview
     pagecolor="#ffffff"
     bordercolor="#666666"
     borderopacity="1"
     objecttolerance="10"
     gridtolerance="10"
     guidetolerance="10"
     inkscape:pageopacity="0"
     inkscape:pageshadow="2"
     inkscape:window-width="1366"
     inkscape:window-height="743"
     id="namedview29"
     showgrid="true"
     inkscape:zoom="20.85965"
     inkscape:cx="2.0499853"
     inkscape:cy="8.0198572"
     inkscape:window-x="0"
     inkscape:window-y="25"
     inkscape:window-maximized="1"
     inkscape:current-layer="svg2">
    <inkscape:grid
       type="xygrid"
       id="grid852" />
  </sodipodi:namedview>
  <defs
     id="defs4">
    <linearGradient
       id="linearGradient3204"
       x1="1"
       x2="15"
       y1="9"
       y2="9"
       gradientTransform="translate(-17,-2)"
       gradientUnits="userSpaceOnUse">
      <stop
         id="stop3189"
         stop-color="#8500db"
         offset="0" />
      <stop
         id="stop3191"
         stop-color="#a60e07"
         offset="1" />
    </linearGradient>
    <linearGradient
       id="linearGradient3629"
       x2="29.017"
       y1="8"
       y2="8"
       gradientTransform="rotate(-90,8,8)"
       gradientUnits="userSpaceOnUse">
      <stop
         id="stop3330"
         offset="0" />
      <stop
         id="stop3333"
         stop-opacity="0"
         offset="1" />
    </linearGradient>
    <linearGradient
       id="linearGradient4143">
      <stop
         offset="0"
         style="stop-color:#9c0008"
         id="stop4145" />
      <stop
         offset="0.41728804"
         style="stop-color:#e35e00"
         id="stop4151" />
      <stop
         offset="0.59519094"
         style="stop-color:#797d00"
         id="stop4169" />
      <stop
         offset="0.75742298"
         style="stop-color:#00a535"
         id="stop4157" />
      <stop
         offset="0.86629128"
         style="stop-color:#008ec8"
         id="stop4153" />
      <stop
         offset="1"
         style="stop-color:#8500db"
         id="stop4147" />
    </linearGradient>
    <radialGradient
       inkscape:collect="always"
       xlink:href="#linearGradient4143"
       id="radialGradient857"
       cx="0"
       cy="0"
       fx="0"
       fy="0"
       r="8"
       gradientUnits="userSpaceOnUse"
       gradientTransform="scale(-2)" />
  </defs>
  <rect
     y="0"
     style="fill:url(#radialGradient857);fill-opacity:1.0"
     ry="2"
     rx="2"
     height="16"
     width="16"
     x="-16"
     transform="rotate(-90)"
     id="rect3196" />
  <path
     inkscape:connector-curvature="0"
     style="opacity:0.4;fill:url(#linearGradient3629)"
     d="m 0,14 c 0,1.108 0.892,2 2,2 h 12 c 1.108,0 2,-0.892 2,-2 V 2 C 16,0.892 15.108,0 14,0 H 2 C 0.892,0 0,0.892 0,2 Z m 0.96875,0 V 2 c 0,-0.5832 0.44805,-1.0312 1.0312,-1.0312 h 12 c 0.5832,0 1.0312,0.44805 1.0312,1.0312 v 12 c 0,0.5832 -0.44805,1.0312 -1.0312,1.0312 h -12 c -0.5832,0 -1.0312,-0.44805 -1.0312,-1.0312 z"
     id="rect2835" />
  <path
     style="opacity:0.35;fill:#ffffff"
     inkscape:connector-curvature="0"
     d="m 2,0.96875 c -0.5832,0 -1.0312,0.44805 -1.0312,1.0312 v 1 c 0,-0.5832 0.44805,-1.0312 1.0312,-1.0312 h 12 c 0.5832,0 1.0312,0.44805 1.0312,1.0312 v -1 c 0,-0.5832 -0.44805,-1.0312 -1.0312,-1.0312 z"
     id="path2843" />
  <defs
     id="defs21">
    <filter
       id="w">
      <feGaussianBlur
         stdDeviation="0.26998568"
         id="feGaussianBlur13" />
    </filter>
    <linearGradient
       id="a"
       gradientUnits="userSpaceOnUse"
       x1="8"
       y1="2.999818"
       x2="8"
       y2="12.999968">
      <stop
         stop-color="#ffffff"
         offset="0"
         id="stop16" />
      <stop
         stop-color="#ffffff"
         offset="1"
         id="stop18" />
    </linearGradient>
  </defs>
  <g
     id="main"
     transform="matrix(1.0000044,0,0,1.0000044,-5.4211548e-6,-2.9599859e-5)"
     style="stroke-width:0.85713619">
    <path
       style="opacity:0.3;fill:#000000;stroke-width:0.85713619"
       inkscape:connector-curvature="0"
       id="path23"
       d="m 2.5289,4.0001 9.13e-5,0.69323 0.8918,0.070205 0.14441,0.21059 -1.4355,8.0167 -0.22083,0.21942 -0.90887,0.07018 v 0.71948 l 3.9753,6.3e-5 1.218e-4,-0.71942 -0.88352,-0.06156 -0.1529,-0.22816 0.58608,-3.4275 h 0.90038 l 1.2911,2.8079 c 0.5277,1.1197 0.89789,1.5998 2.0386,1.6147 0.328,0.0044 0.45995,0.02923 1.3447999,0 3.0519,-2.6322 4.6098,-4.6386 4.8559,-5.5458 0.14907,-0.54942 -0.0876,-0.8864 -0.59474,-0.8864 -0.24738,0 -0.5306,0.10762 -0.84928,0.32484 l -0.22936,1.8865 c -0.62462,0.8433 -1.4573,1.7619 -2.4718,2.7202 l 0.67102,-3.6241 c 0.13925,-0.74115 0.18516,-1.1366 -0.28036,-1.2899 l -2.0809999,0.47393 -0.1103,0.40357 0.9597,0.15805 c 0.06672,0.25552 -0.0072,0.81104 -0.1529,1.6672 l -0.46717,2.6587 c -0.0073,0.02736 -0.01199,0.05734 -0.01699,0.08775 -0.30293,-0.16814 -0.49389,-0.46755 -0.71351,-0.9213 l -1.8262,-3.7733 3.3381999,-3.4924 1.1382,-0.11407 -1.52e-4,-0.71958 -3.5673999,3.1e-5 1.522e-4,0.71964 0.88325,0.070113 0.08494,0.23693 -3.5761,3.8083 h -0.42471 l 0.70502,-3.8609 0.18687,-0.21059 0.94284,-0.070175 -9.13e-5,-0.69329 z" />
    <path
       d="m 2.5289,3.0001 9.13e-5,0.69323 0.8918,0.070205 0.14441,0.21059 -1.4355,8.0167 -0.22083,0.21942 -0.90887,0.07018 v 0.71948 l 3.9753,6.3e-5 1.218e-4,-0.71942 -0.88352,-0.06156 -0.1529,-0.22816 0.58608,-3.4275 h 0.90038 l 1.2911,2.8079 c 0.5277,1.1197 0.89789,1.5998 2.0386,1.6147 0.328,0.0044 0.45995,0.02923 1.3447999,0 3.0519,-2.6322 4.6098,-4.6386 4.8559,-5.5458 0.14907,-0.54942 -0.0876,-0.8864 -0.59474,-0.8864 -0.24738,0 -0.5306,0.10762 -0.84928,0.32484 l -0.22936,1.8865 c -0.62462,0.8433 -1.4573,1.7619 -2.4718,2.7202 l 0.67102,-3.6241 c 0.13925,-0.74115 0.18516,-1.1366 -0.28036,-1.2899 l -2.0809999,0.47393 -0.1103,0.40357 0.9597,0.15805 c 0.06672,0.25552 -0.0072,0.81104 -0.1529,1.6672 l -0.46717,2.6587 c -0.0073,0.02736 -0.01199,0.05734 -0.01699,0.08775 -0.30293,-0.16814 -0.49389,-0.46755 -0.71351,-0.9213 l -1.8262,-3.7733 3.3381999,-3.4924 1.1382,-0.11407 -1.52e-4,-0.71958 -3.5673999,3.1e-5 1.522e-4,0.71964 0.88325,0.070113 0.08494,0.23693 -3.5761,3.8083 h -0.42471 l 0.70502,-3.8609 0.18687,-0.21059 0.94284,-0.070175 -9.13e-5,-0.69329 z"
       id="base"
       inkscape:connector-curvature="0"
       style="fill:url(#a);stroke-width:0.73468244" />
  </g>
</svg>
