<?xml version="1.0" encoding="UTF-8" standalone="no"?>
<svg xmlns:dc="http://purl.org/dc/elements/1.1/" xmlns:cc="http://creativecommons.org/ns#" xmlns:rdf="http://www.w3.org/1999/02/22-rdf-syntax-ns#" xmlns:svg="http://www.w3.org/2000/svg" xmlns="http://www.w3.org/2000/svg" xmlns:sodipodi="http://sodipodi.sourceforge.net/DTD/sodipodi-0.dtd" xmlns:inkscape="http://www.inkscape.org/namespaces/inkscape" id="svg2" width="16" height="16" version="1.0" sodipodi:docname="mate.svg" inkscape:version="0.92.2 5c3e80d, 2017-08-06">
  <metadata id="metadata31">
    <rdf:RDF>
      <cc:Work rdf:about="">
        <dc:format>image/svg+xml</dc:format>
        <dc:type rdf:resource="http://purl.org/dc/dcmitype/StillImage" />
      </cc:Work>
    </rdf:RDF>
  </metadata>
  <sodipodi:namedview pagecolor="#ffffff" bordercolor="#666666" borderopacity="1" objecttolerance="10" gridtolerance="10" guidetolerance="10" inkscape:pageopacity="0" inkscape:pageshadow="2" inkscape:window-width="640" inkscape:window-height="480" id="namedview29" showgrid="false" inkscape:zoom="14.75" inkscape:cx="8" inkscape:cy="8" inkscape:current-layer="svg2" />
  <defs id="defs4">
    <linearGradient id="linearGradient3204" x1="1" x2="15" y1="9" y2="9" gradientTransform="translate(-17,-2)" gradientUnits="userSpaceOnUse">
      <stop id="stop3189" stop-color="#3b8132" offset="0" />
      <stop id="stop3191" stop-color="#55c845" offset="1" />
    </linearGradient>
    <linearGradient id="linearGradient3629" x2="29.017" y1="8" y2="8" gradientTransform="matrix(0,-1,1,0,0,16)" gradientUnits="userSpaceOnUse">
      <stop id="stop3330" offset="0" />
      <stop id="stop3333" stop-opacity="0" offset="1" />
    </linearGradient>
  </defs>
  <g id="layer1">
    <rect id="rect3196" transform="rotate(-90)" x="-16" width="16" height="16" rx="2" ry="2" fill="url(#linearGradient3204)" />
    <path id="rect2835" d="m0 14c0 1.108 0.892 2 2 2h12c1.108 0 2-0.892 2-2v-12c0-1.108-0.892-2-2-2h-12c-1.108 0-2 0.892-2 2v12zm0.96875 0v-12c0-0.5832 0.44805-1.0312 1.0312-1.0312h12c0.5832 0 1.0312 0.44805 1.0312 1.0312v12c0 0.5832-0.44805 1.0312-1.0312 1.0312h-12c-0.5832 0-1.0312-0.44805-1.0312-1.0312z" fill="url(#linearGradient3629)" opacity=".4" />
    <path id="path2843" d="m2 0.96875c-0.5832 0-1.0312 0.44805-1.0312 1.0312v1c0-0.5832 0.44805-1.0312 1.0312-1.0312h12c0.5832 0 1.0312 0.44805 1.0312 1.0312v-1c0-0.5832-0.44805-1.0312-1.0312-1.0312h-12z" fill="#fff" opacity=".35" />
  </g>
  <defs id="defs21">
    <filter id="w">
      <feGaussianBlur stdDeviation="0.26998568" id="feGaussianBlur13" />
    </filter>
    <linearGradient id="a" gradientUnits="userSpaceOnUse" x1="8" y1="1" x2="8" y2="15">
      <stop stop-color="#fafafa" offset="0" id="stop16" />
      <stop stop-color="#ebebeb" offset="1" id="stop18" />
    </linearGradient>
  </defs>
  <g id="main">
    <path style="opacity:0.4;fill:#000000;filter:url(#w)" inkscape:connector-curvature="0" id="path23" d="M 8,1 A 7,7 0 0 0 2.8145,3.3086 L 4.1504,4.0723 A 5.5,5.5 0 0 1 8,2.5 5.5,5.5 0 0 1 13.5,8 5.5,5.5 0 0 1 8,13.5 5.5,5.5 0 0 1 4.1543,11.926 L 2.8145,12.691 A 7,7 0 0 0 8,15 7,7 0 0 0 15,8 7,7 0 0 0 8,1 Z M 1,4 v 8 L 8,8 Z M 8,4 A 4,4 0 0 0 5.5293,4.8613 L 7.0117,5.707 A 2.5,2.5 0 0 1 8,5.5 2.5,2.5 0 0 1 10.5,8 2.5,2.5 0 0 1 8,10.5 2.5,2.5 0 0 1 7.0098,10.295 L 5.5254,11.143 A 4,4 0 0 0 8,12 4,4 0 0 0 12,8 4,4 0 0 0 8,4 Z" />
    <path d="m8 1a7 7 0 0 0 -5.1855 2.3086l1.3359.7637a5.5 5.5 0 0 1 3.8496 -1.5723 5.5 5.5 0 0 1 5.5 5.5 5.5 5.5 0 0 1 -5.5 5.5 5.5 5.5 0 0 1 -3.8457 -1.574l-1.3398.765a7 7 0 0 0 5.1855 2.309 7 7 0 0 0 7 -7 7 7 0 0 0 -7 -7zm-7 3v8l7-4-7-4zm7 0a4 4 0 0 0 -2.4707 .8613l1.4824.8457a2.5 2.5 0 0 1 .9883 -.2070 2.5 2.5 0 0 1 2.5 2.5 2.5 2.5 0 0 1 -2.5 2.5 2.5 2.5 0 0 1 -.9902 -.205l-1.4844.848a4 4 0 0 0 2.4746 .857 4 4 0 0 0 4 -4 4 4 0 0 0 -4 -4z" fill="#fff" id="base" />
  </g>
</svg>
