<?xml version="1.0" encoding="UTF-8" standalone="no"?>
<svg xmlns:dc="http://purl.org/dc/elements/1.1/" xmlns:cc="http://creativecommons.org/ns#" xmlns:rdf="http://www.w3.org/1999/02/22-rdf-syntax-ns#" xmlns:svg="http://www.w3.org/2000/svg" xmlns="http://www.w3.org/2000/svg" xmlns:sodipodi="http://sodipodi.sourceforge.net/DTD/sodipodi-0.dtd" xmlns:inkscape="http://www.inkscape.org/namespaces/inkscape" id="svg2" width="16" height="16" version="1.0" sodipodi:docname="mysqlworkbench.svg" inkscape:version="0.92.2 5c3e80d, 2017-08-06">
  <metadata id="metadata30">
    <rdf:RDF>
      <cc:Work rdf:about="">
        <dc:format>image/svg+xml</dc:format>
        <dc:type rdf:resource="http://purl.org/dc/dcmitype/StillImage" />
      </cc:Work>
    </rdf:RDF>
  </metadata>
  <sodipodi:namedview pagecolor="#ffffff" bordercolor="#666666" borderopacity="1" objecttolerance="10" gridtolerance="10" guidetolerance="10" inkscape:pageopacity="0" inkscape:pageshadow="2" inkscape:window-width="640" inkscape:window-height="480" id="namedview28" showgrid="false" inkscape:zoom="14.75" inkscape:cx="8" inkscape:cy="8" inkscape:current-layer="svg2" />
  <defs id="defs4">
    <linearGradient id="linearGradient3204" x1="1" x2="15" y1="9" y2="9" gradientTransform="translate(-17,-2)" gradientUnits="userSpaceOnUse">
      <stop id="stop3189" stop-color="#233d65" offset="0" />
      <stop id="stop3191" stop-color="#396aa1" offset="1" />
    </linearGradient>
    <linearGradient id="linearGradient3629" x2="29.017" y1="8" y2="8" gradientTransform="matrix(0,-1,1,0,0,16)" gradientUnits="userSpaceOnUse">
      <stop id="stop3330" offset="0" />
      <stop id="stop3333" stop-opacity="0" offset="1" />
    </linearGradient>
  </defs>
  <g id="layer1">
    <rect id="rect3196" transform="rotate(-90)" x="-16" width="16" height="16" rx="2" ry="2" fill="url(#linearGradient3204)" />
    <path id="rect2835" d="m0 14c0 1.108 0.892 2 2 2h12c1.108 0 2-0.892 2-2v-12c0-1.108-0.892-2-2-2h-12c-1.108 0-2 0.892-2 2v12zm0.96875 0v-12c0-0.5832 0.44805-1.0312 1.0312-1.0312h12c0.5832 0 1.0312 0.44805 1.0312 1.0312v12c0 0.5832-0.44805 1.0312-1.0312 1.0312h-12c-0.5832 0-1.0312-0.44805-1.0312-1.0312z" fill="url(#linearGradient3629)" opacity=".4" />
    <path id="path2843" d="m2 0.96875c-0.5832 0-1.0312 0.44805-1.0312 1.0312v1c0-0.5832 0.44805-1.0312 1.0312-1.0312h12c0.5832 0 1.0312 0.44805 1.0312 1.0312v-1c0-0.5832-0.44805-1.0312-1.0312-1.0312h-12z" fill="#fff" opacity=".35" />
  </g>
  <defs id="defs21">
    <filter id="w">
      <feGaussianBlur stdDeviation="0.26998568" id="feGaussianBlur13" />
    </filter>
    <linearGradient id="a" gradientUnits="userSpaceOnUse" x1="8" y1="0.99997802" x2="8" y2="14.99995002">
      <stop stop-color="#fafafa" offset="0" id="stop16" />
      <stop stop-color="#ebebeb" offset="1" id="stop18" />
    </linearGradient>
  </defs>
  <g id="main">
    <path style="opacity:0.4;fill:#000000;stroke-width:0.98636001;filter:url(#w)" inkscape:connector-curvature="0" d="M 1.9456,1.0035 C 1.12902,0.930034 0.7194,2.0239 1.21526,2.6027 c 0.46321,0.65651 1.0056,1.2797 1.1591,2.0916 0.054837,0.88569 1.1144,1.507 0.80426,2.3572 -0.35999,1.1994 -0.3797,2.6317 0.37267,3.6899 0.33911,0.7133 1.3995,0.55734 1.468,-0.25425 0.02201,-0.30641 0.00644,-0.7454 0.18939,-0.19686 0.38357,0.82512 1.195,1.3198 1.8168,1.9486 -0.051266,0.18648 0.68609,0.11696 0.28066,-0.17932 C 6.39177,11.23211 5.84874,10.08807 5.34204,8.98727 5.247164,8.81902 5.20931,8.28349 4.92182,8.35625 4.38086,8.86325 4.20346,9.61655 4.18733,10.33075 3.85204,10.307782 3.67034,9.32175 3.62453,8.89005 3.535408,8.12854 3.76134,7.38665 4.00019,6.67735 4.018906,5.91884 3.17267,5.50775 3.13061,4.75085 2.89833,3.87509 2.50186,3.04195 1.88541,2.37035 1.29868,1.71834 2.23031,1.68232 2.61453,2.0173 c 0.51934,0.21573 0.89271,0.81852 1.5198,0.69058 1.1913,0.063569 2.1873,0.83299 3.0523,1.5855 0.96558,0.88439 1.6839,2.0174 2.1289,3.2441 0.4142,0.81582 0.68714,1.7104 1.2192,2.4616 0.6351,0.46171 1.5642,0.46338 2.0936,1.0323 0.2198,0.2025 1.3599,0.69316 0.50756,0.62455 -0.56356,0.04913 -1.2076,0.12991 -1.6434,0.51382 0.05938,0.69596 0.74035,1.1935 1.2951,1.5399 0.74691,0.34785 1.4314,0.79203 2.0803,1.2903 0.26764,-4.77e-4 0.05902,-0.39108 -0.02331,-0.50764 -0.55078,-0.62769 -1.1167,-1.2793 -1.8859,-1.6442 -0.78542,-0.42988 0.28132,-0.44018 0.6329,-0.51548 0.29619,-0.07887 0.73822,-0.04081 0.94372,-0.29597 -0.08034,-0.50391 -0.6041,-0.81293 -0.95095,-1.1524 -0.70723,-0.58787 -1.4997,-1.0843 -2.3675,-1.3974 -0.69634,-1.0768 -1.092,-2.3125 -1.6537,-3.4598 C 8.64828,4.37466 7.19285,3.02206 5.49545,2.19926 4.85593,1.8693 4.03765,2.145448 3.51775,1.60313 3.04962,1.28802 2.51665,1.03661 1.94535,1.0035 Z M 4.0693,3.4127 C 3.971004,3.4167737 3.66057,3.484748 3.78601,3.64765 4.10197,3.84332 4.10414,4.35912 4.40321,4.52952 5.03427,4.29945 4.72587,3.27572 4.0693,3.41272 Z" id="path13" />
    <path id="base" d="m1.9456 1.0035c-.81658-.073466-1.2262 1.0204-.73034 1.5992.46321.65651 1.0056 1.2797 1.1591 2.0916.054837.88569 1.1144 1.507.80426 2.3572-.35999 1.1994-.3797 2.6317.37267 3.6899.33911.7133 1.3995.55734 1.468-.25425.02201-.30641.00644-.7454.18939-.19686.38357.82512 1.195 1.3198 1.8168 1.9486-.051266.18648.68609.11696.28066-.17932-.91437-.82746-1.4574-1.9715-1.9641-3.0723-.094876-.16825-.13273-.70378-.42022-.63102-.54096.507-.71836 1.2603-.73449 1.9745-.33529-.022968-.51699-1.009-.5628-1.4407-.089122-.76151.13681-1.5034.37566-2.2127.018716-.75851-.82752-1.1696-.86958-1.9265-.23228-.87576-.62875-1.7089-1.2452-2.3805-.58673-.65201.3449-.68803.72912-.35305.51934.21573.89271.81852 1.5198.69058 1.1913.063569 2.1873.83299 3.0523 1.5855.96558.88439 1.6839 2.0174 2.1289 3.2441.4142.81582.68714 1.7104 1.2192 2.4616.6351.46171 1.5642.46338 2.0936 1.0323.2198.2025 1.3599.69316.50756.62455-.56356.04913-1.2076.12991-1.6434.51382.05938.69596.74035 1.1935 1.2951 1.5399.74691.34785 1.4314.79203 2.0803 1.2903.26764-.000477.05902-.39108-.02331-.50764-.55078-.62769-1.1167-1.2793-1.8859-1.6442-.78542-.42988.28132-.44018.6329-.51548.29619-.07887.73822-.04081.94372-.29597-.08034-.50391-.6041-.81293-.95095-1.1524-.70723-.58787-1.4997-1.0843-2.3675-1.3974-.69634-1.0768-1.092-2.3125-1.6537-3.4598-.91487-1.6524-2.3703-3.005-4.0677-3.8278-.63952-.32996-1.4578-.053812-1.9777-.59613-.46813-.31511-1.0011-.56652-1.5724-.59963zm2.1237 2.4092c-.098296.0040737-.40873.072048-.28329.23495.31596.19567.31813.71147.6172.88187.63106-.23007.32266-1.2538-.33391-1.1168z" fill="#fff" stroke-width=".98636" />
  </g>
</svg>
