<?xml version="1.0" encoding="UTF-8" standalone="no"?>
<svg
   xmlns:dc="http://purl.org/dc/elements/1.1/"
   xmlns:cc="http://creativecommons.org/ns#"
   xmlns:rdf="http://www.w3.org/1999/02/22-rdf-syntax-ns#"
   xmlns:svg="http://www.w3.org/2000/svg"
   xmlns="http://www.w3.org/2000/svg"
   xmlns:sodipodi="http://sodipodi.sourceforge.net/DTD/sodipodi-0.dtd"
   xmlns:inkscape="http://www.inkscape.org/namespaces/inkscape"
   id="svg2"
   width="16"
   height="16"
   version="1.0"
   sodipodi:docname="peek.svg"
   inkscape:version="0.92.2 5c3e80d, 2017-08-06">
  <metadata
     id="metadata31">
    <rdf:RDF>
      <cc:Work
         rdf:about="">
        <dc:format>image/svg+xml</dc:format>
        <dc:type
           rdf:resource="http://purl.org/dc/dcmitype/StillImage" />
      </cc:Work>
    </rdf:RDF>
  </metadata>
  <sodipodi:namedview
     pagecolor="#ffffff"
     bordercolor="#666666"
     borderopacity="1"
     objecttolerance="10"
     gridtolerance="10"
     guidetolerance="10"
     inkscape:pageopacity="0"
     inkscape:pageshadow="2"
     inkscape:window-width="640"
     inkscape:window-height="480"
     id="namedview29"
     showgrid="false"
     inkscape:zoom="14.75"
     inkscape:cx="8"
     inkscape:cy="8"
     inkscape:window-x="0"
     inkscape:window-y="25"
     inkscape:window-maximized="0"
     inkscape:current-layer="svg2" />
  <defs
     id="defs4">
    <linearGradient
       id="linearGradient3204"
       x1="1"
       x2="15"
       y1="9"
       y2="9"
       gradientTransform="translate(-17,-2)"
       gradientUnits="userSpaceOnUse">
      <stop
         id="stop3189"
         stop-color="#e97300"
         offset="0" />
      <stop
         id="stop3191"
         stop-color="#ff8209"
         offset="1" />
    </linearGradient>
    <linearGradient
       id="linearGradient3629"
       x2="29.017"
       y1="8"
       y2="8"
       gradientTransform="matrix(0,-1,1,0,0,16)"
       gradientUnits="userSpaceOnUse">
      <stop
         id="stop3330"
         offset="0" />
      <stop
         id="stop3333"
         stop-opacity="0"
         offset="1" />
    </linearGradient>
  </defs>
  <g
     id="layer1">
    <rect
       id="rect3196"
       transform="rotate(-90)"
       x="-16"
       width="16"
       height="16"
       rx="2"
       ry="2"
       fill="url(#linearGradient3204)" />
    <path
       id="rect2835"
       d="m0 14c0 1.108 0.892 2 2 2h12c1.108 0 2-0.892 2-2v-12c0-1.108-0.892-2-2-2h-12c-1.108 0-2 0.892-2 2v12zm0.96875 0v-12c0-0.5832 0.44805-1.0312 1.0312-1.0312h12c0.5832 0 1.0312 0.44805 1.0312 1.0312v12c0 0.5832-0.44805 1.0312-1.0312 1.0312h-12c-0.5832 0-1.0312-0.44805-1.0312-1.0312z"
       fill="url(#linearGradient3629)"
       opacity=".4" />
    <path
       id="path2843"
       d="m2 0.96875c-0.5832 0-1.0312 0.44805-1.0312 1.0312v1c0-0.5832 0.44805-1.0312 1.0312-1.0312h12c0.5832 0 1.0312 0.44805 1.0312 1.0312v-1c0-0.5832-0.44805-1.0312-1.0312-1.0312h-12z"
       fill="#fff"
       opacity=".35" />
  </g>
  <defs
     id="defs21">
    <filter
       id="w">
      <feGaussianBlur
         stdDeviation="0.26998568"
         id="feGaussianBlur13" />
    </filter>
    <linearGradient
       id="a"
       gradientUnits="userSpaceOnUse"
       x1="8"
       y1="1.8186"
       x2="8"
       y2="15.00008">
      <stop
         stop-color="#fafafa"
         offset="0"
         id="stop16" />
      <stop
         stop-color="#ebebeb"
         offset="1"
         id="stop18" />
    </linearGradient>
  </defs>
  <g
     id="main"
     transform="translate(1,1) scale(0.85714)">
    <path
       style="opacity:0.3;fill:#000000"
       inkscape:connector-curvature="0"
       id="path23"
       d="m 4.7239,2.8186 c -2.4826,8.7876 -1.2413,4.3938 0,0 z m 0,0 C 2.4343,4.0312 1.0017,6.4092 1,9 c 7.017e-4,1.6362 0.57454,3.2204 1.6218,4.4775 z m 8.5258,3.3821 c 0,1.5917 -0.73044,2.4465 -1.7466,3.2317 -1.0161,0.7852 -1.8564,1.1017 -2.9634,1.2527 -0.95669,0.13045 -1.8763,0.10748 -2.625,0.06494 l -0.81006,4.6143 c 0.90856,0.41613 1.8957,0.6329 2.895,0.63574 3.866,0 7,-3.134 7,-7 -0.0031,-1.7942 -0.69496,-3.5188 -1.9329,-4.8176 0.12492,0.66761 0.14544,1.3518 0.18296,2.0182 z M 7.9928,3.7449 C 7.70765,3.732474 7.41738,3.729848 7.12464,3.750027 l -0.875,5.25 c 0.5327,0.017759 1.1295,-0.00261 1.7124,-0.092285 0.82528,-0.12696 1.5664,-0.4528 1.9978,-0.82886 0.43138,-0.37605 0.6648,-0.89789 0.6648,-1.8748 0,-1.0717 -0.23306,-1.4971 -0.50928,-1.7996 C 9.83914,4.102032 9.39279,3.891132 8.83016,3.797792 8.55793,3.77947 8.27791,3.75724 7.99276,3.744813 Z" />
    <path
       d="m4.7239 1.8186c-2.4826 8.7876-1.2413 4.3938 0 0zc-2.2896 1.2126-3.7222 3.5906-3.7239 6.1814 7.017e-4 1.6362 0.57454 3.2204 1.6218 4.4775zm8.5258 3.3821c0 1.5917-0.73044 2.4465-1.7466 3.2317-1.0161 0.7852-1.8564 1.1017-2.9634 1.2527-0.95669 0.13045-1.8763 0.10748-2.625 0.06494l-0.81006 4.6143c0.90856 0.41613 1.8957 0.6329 2.895 0.63574 3.866 0 7-3.134 7-7-0.0031-1.7942-0.69496-3.5188-1.9329-4.8176 0.12492 0.66761 0.14544 1.3518 0.18296 2.0182zm-5.2569-2.4558c-0.28515-0.012426-0.57542-0.015052-0.86816 0.005127l-0.875 5.25c0.5327 0.017759 1.1295-0.00261 1.7124-0.092285 0.82528-0.12696 1.5664-0.4528 1.9978-0.82886 0.43138-0.37605 0.6648-0.89789 0.6648-1.8748 0-1.0717-0.23306-1.4971-0.50928-1.7996-0.27622-0.30245-0.72257-0.51335-1.2852-0.60669-0.27223-0.018322-0.55225-0.040552-0.8374-0.052979z"
       fill="#ffffff"
       id="base" />
  </g>
</svg>
