<?xml version="1.0" encoding="UTF-8" standalone="no"?>
<svg
   xmlns:dc="http://purl.org/dc/elements/1.1/"
   xmlns:cc="http://creativecommons.org/ns#"
   xmlns:rdf="http://www.w3.org/1999/02/22-rdf-syntax-ns#"
   xmlns:svg="http://www.w3.org/2000/svg"
   xmlns="http://www.w3.org/2000/svg"
   xmlns:sodipodi="http://sodipodi.sourceforge.net/DTD/sodipodi-0.dtd"
   xmlns:inkscape="http://www.inkscape.org/namespaces/inkscape"
   id="svg2"
   width="16"
   height="16"
   version="1.0"
   sodipodi:docname="psensor.svg"
   inkscape:version="0.92.2 5c3e80d, 2017-08-06">
  <metadata
     id="metadata31">
    <rdf:RDF>
      <cc:Work
         rdf:about="">
        <dc:format>image/svg+xml</dc:format>
        <dc:type
           rdf:resource="http://purl.org/dc/dcmitype/StillImage" />
      </cc:Work>
    </rdf:RDF>
  </metadata>
  <sodipodi:namedview
     pagecolor="#ffffff"
     bordercolor="#666666"
     borderopacity="1"
     objecttolerance="10"
     gridtolerance="10"
     guidetolerance="10"
     inkscape:pageopacity="0"
     inkscape:pageshadow="2"
     inkscape:window-width="640"
     inkscape:window-height="480"
     id="namedview29"
     showgrid="false"
     inkscape:zoom="14.75"
     inkscape:cx="8"
     inkscape:cy="8"
     inkscape:window-x="0"
     inkscape:window-y="25"
     inkscape:window-maximized="0"
     inkscape:current-layer="svg2" />
  <defs
     id="defs4">
    <linearGradient
       id="linearGradient3204"
       x1="1"
       x2="15"
       y1="9"
       y2="9"
       gradientTransform="translate(-17,-2)"
       gradientUnits="userSpaceOnUse">
      <stop
         id="stop3189"
         stop-color="#e34345"
         offset="0" />
      <stop
         id="stop3191"
         stop-color="#a6afe2"
         offset="1" />
    </linearGradient>
    <linearGradient
       id="linearGradient3629"
       x2="29.017"
       y1="8"
       y2="8"
       gradientTransform="matrix(0,-1,1,0,0,16)"
       gradientUnits="userSpaceOnUse">
      <stop
         id="stop3330"
         offset="0" />
      <stop
         id="stop3333"
         stop-opacity="0"
         offset="1" />
    </linearGradient>
  </defs>
  <g
     id="layer1">
    <rect
       id="rect3196"
       transform="rotate(-90)"
       x="-16"
       width="16"
       height="16"
       rx="2"
       ry="2"
       fill="url(#linearGradient3204)" />
    <path
       id="rect2835"
       d="m0 14c0 1.108 0.892 2 2 2h12c1.108 0 2-0.892 2-2v-12c0-1.108-0.892-2-2-2h-12c-1.108 0-2 0.892-2 2v12zm0.96875 0v-12c0-0.5832 0.44805-1.0312 1.0312-1.0312h12c0.5832 0 1.0312 0.44805 1.0312 1.0312v12c0 0.5832-0.44805 1.0312-1.0312 1.0312h-12c-0.5832 0-1.0312-0.44805-1.0312-1.0312z"
       fill="url(#linearGradient3629)"
       opacity=".4" />
    <path
       id="path2843"
       d="m2 0.96875c-0.5832 0-1.0312 0.44805-1.0312 1.0312v1c0-0.5832 0.44805-1.0312 1.0312-1.0312h12c0.5832 0 1.0312 0.44805 1.0312 1.0312v-1c0-0.5832-0.44805-1.0312-1.0312-1.0312h-12z"
       fill="#fff"
       opacity=".35" />
  </g>
  <defs
     id="defs21">
    <filter
       id="w">
      <feGaussianBlur
         stdDeviation="0.26998568"
         id="feGaussianBlur13" />
    </filter>
    <linearGradient
       id="a"
       gradientUnits="userSpaceOnUse"
       x1="8"
       y1="1"
       x2="8"
       y2="14.999981">
      <stop
         stop-color="#ffffff"
         offset="0"
         id="stop16" />
      <stop
         stop-color="#ffffff"
         offset="1"
         id="stop18" />
    </linearGradient>
  </defs>
  <g
     id="main"
     transform="translate(1,1) scale(0.85714)">
    <path
       style="opacity:0.3;fill:#000000"
       inkscape:connector-curvature="0"
       id="path23"
       d="M 6.5,2 C 5.115,2 4,3.115 4,4.5 v 5.5527 C 3.38292,10.68314 3,11.544 3,12.5 c 0,1.7656 1.2988,3.2036 2.9941,3.4492 0.16304,0.03319 0.33273,0.05078 0.50586,0.05078 0.17313,0 0.34282,-0.01759 0.50586,-0.05078 1.6954,-0.24564 2.9941,-1.6836 2.9941,-3.4492 0,-0.95596 -0.38292,-1.8168 -1,-2.4473 V 4.5 c 0,-1.385 -1.115,-2.5 -2.5,-2.5 z m 0,1 C 7.331,3 8,3.669 8,4.5 v 6.0078 c 0.60499,0.45545 1,1.1732 1,1.9922 0,1.2814 -0.95766,2.3187 -2.1973,2.4688 -0.097822,0.01992 -0.19886,0.03125 -0.30273,0.03125 -0.10387,0 -0.20491,-0.01133 -0.30273,-0.03125 -1.2396,-0.15 -2.1973,-1.1874 -2.1973,-2.4688 0,-0.81895 0.39501,-1.5367 1,-1.9922 V 4.5 c 0,-0.831 0.669,-1.5 1.5,-1.5 z M 10,3 v 1 h 3 V 3 Z M 6.5,4 C 6.223,4 6,4.223 6,4.5 v 6.5918 C 5.41808,11.29781 5,11.84576 5,12.5 5,13.331 5.669,14 6.5,14 7.331,14 8,13.331 8,12.5 8,11.84576 7.58192,11.2978 7,11.0918 V 4.5 C 7,4.223 6.777,4 6.5,4 Z M 10,5 v 1 h 3 V 5 Z m 0,2 v 1 h 3 V 7 Z" />
    <path
       d="m6.5 1c-1.385 0-2.5 1.115-2.5 2.5v5.5527c-0.61708 0.63044-1 1.4913-1 2.4473 0 1.7656 1.2988 3.2036 2.9941 3.4492 0.16304 0.033193 0.33273 0.050781 0.50586 0.050781s0.34282-0.017588 0.50586-0.050781c1.6954-0.24564 2.9941-1.6836 2.9941-3.4492 0-0.95596-0.38292-1.8168-1-2.4473v-5.5527c0-1.385-1.115-2.5-2.5-2.5zm0 1c0.831 0 1.5 0.669 1.5 1.5v6.0078c0.60499 0.45545 1 1.1732 1 1.9922 0 1.2814-0.95766 2.3187-2.1973 2.4688-0.097822 0.019916-0.19886 0.03125-0.30273 0.03125s-0.20491-0.011334-0.30273-0.03125c-1.2396-0.15-2.1973-1.1874-2.1973-2.4688 0-0.81895 0.39501-1.5367 1-1.9922v-6.0078c0-0.831 0.669-1.5 1.5-1.5zm3.5 0v1h3v-1h-3zm-3.5 1c-0.277 0-0.5 0.223-0.5 0.5v6.5918c-0.58192 0.20601-1 0.75396-1 1.4082 0 0.831 0.669 1.5 1.5 1.5s1.5-0.669 1.5-1.5c0-0.65424-0.41808-1.2022-1-1.4082v-6.5918c0-0.277-0.223-0.5-0.5-0.5zm3.5 1v1h3v-1h-3zm0 2v1h3v-1h-3z"
       fill="url(#a)"
       id="base" />
  </g>
</svg>
