<?xml version="1.0" encoding="UTF-8" standalone="no"?>
<!-- Created with Inkscape (http://www.inkscape.org/) -->

<svg
   xmlns:dc="http://purl.org/dc/elements/1.1/"
   xmlns:cc="http://creativecommons.org/ns#"
   xmlns:rdf="http://www.w3.org/1999/02/22-rdf-syntax-ns#"
   xmlns:svg="http://www.w3.org/2000/svg"
   xmlns="http://www.w3.org/2000/svg"
   xmlns:xlink="http://www.w3.org/1999/xlink"
   xmlns:sodipodi="http://sodipodi.sourceforge.net/DTD/sodipodi-0.dtd"
   xmlns:inkscape="http://www.inkscape.org/namespaces/inkscape"
   width="16"
   height="16"
   id="svg2"
   sodipodi:version="0.32"
   inkscape:version="0.48.2 r9819"
   version="1.0"
   sodipodi:docname="rpm.svg"
   inkscape:output_extension="org.inkscape.output.svg.inkscape"
   style="display:inline">
  <defs
     id="defs4">
    <inkscape:perspective
       sodipodi:type="inkscape:persp3d"
       inkscape:vp_x="0 : 8 : 1"
       inkscape:vp_y="0 : 1000 : 0"
       inkscape:vp_z="16 : 8 : 1"
       inkscape:persp3d-origin="8 : 5.3333333 : 1"
       id="perspective35" />
    <linearGradient
       inkscape:collect="always"
       id="linearGradient3327">
      <stop
         style="stop-color:#000000;stop-opacity:1;"
         offset="0"
         id="stop3330" />
      <stop
         style="stop-color:#000000;stop-opacity:0;"
         offset="1"
         id="stop3333" />
    </linearGradient>
    <linearGradient
       id="ButtonColor"
       x1="10.31979"
       y1="21"
       x2="10.31979"
       y2="0.99929649"
       gradientUnits="userSpaceOnUse">
      <stop
         style="stop-color:#29669f;stop-opacity:1;"
         offset="0"
         id="stop3189" />
      <stop
         style="stop-color:#88b6e0;stop-opacity:1;"
         offset="1"
         id="stop3191" />
    </linearGradient>
    <linearGradient
       inkscape:collect="always"
       xlink:href="#linearGradient3700"
       id="linearGradient3204"
       x1="1"
       y1="9"
       x2="15"
       y2="9"
       gradientUnits="userSpaceOnUse"
       gradientTransform="translate(-17,-2)" />
    <linearGradient
       inkscape:collect="always"
       xlink:href="#linearGradient3327"
       id="linearGradient3629"
       x1="0"
       y1="8"
       x2="29.017237"
       y2="8"
       gradientUnits="userSpaceOnUse"
       gradientTransform="matrix(0,-1,1,0,0,16)" />
    <linearGradient
       inkscape:collect="always"
       xlink:href="#SVGID_1_-4"
       id="linearGradient3765"
       gradientUnits="userSpaceOnUse"
       gradientTransform="matrix(0.09341072,0,0,0.04108075,-26.756456,8.0246654)"
       x1="383.28857"
       y1="0"
       x2="383.28857"
       y2="218.48047" />
    <linearGradient
       id="SVGID_1_-4"
       gradientUnits="userSpaceOnUse"
       x1="383.28857"
       y1="0"
       x2="383.28857"
       y2="218.48047">
      <stop
         offset="0.005618"
         style="stop-color:#ED2828"
         id="stop3143-2" />
      <stop
         offset="0.5"
         style="stop-color:#EF3B39"
         id="stop3145-1" />
      <stop
         offset="0.994382"
         style="stop-color:#C02126"
         id="stop3147-3" />
    </linearGradient>
    <linearGradient
       y2="180.6748"
       x2="175.30762"
       y1="73.254395"
       x1="175.30762"
       gradientUnits="userSpaceOnUse"
       id="linearGradient3749-5">
      <stop
         id="stop3751-8"
         style="stop-color:#000000;stop-opacity:1;"
         offset="0" />
      <stop
         id="stop3753-7"
         style="stop-color:#000000;stop-opacity:0.4728682;"
         offset="0.99438202" />
    </linearGradient>
    <linearGradient
       inkscape:collect="always"
       xlink:href="#linearGradient3749-5"
       id="linearGradient3754"
       gradientUnits="userSpaceOnUse"
       gradientTransform="matrix(0.04164302,0,0,0.03408859,1.9444673,0.78644322)"
       x1="175.30762"
       y1="73.254395"
       x2="175.30762"
       y2="180.6748" />
    <linearGradient
       inkscape:collect="always"
       xlink:href="#linearGradient3749-5"
       id="linearGradient3756"
       gradientUnits="userSpaceOnUse"
       gradientTransform="matrix(0.04998763,0,0,0.03408859,2.4795353,0.78644322)"
       x1="175.30762"
       y1="73.254395"
       x2="175.30762"
       y2="180.6748" />
    <linearGradient
       y2="180.6748"
       x2="175.30762"
       y1="73.254395"
       x1="175.30762"
       gradientTransform="matrix(0.04859283,0,0,0.03408859,3.115962,0.78644322)"
       gradientUnits="userSpaceOnUse"
       id="linearGradient3809"
       xlink:href="#linearGradient3749-5"
       inkscape:collect="always" />
    <inkscape:perspective
       id="perspective3729"
       inkscape:persp3d-origin="0.5 : 0.33333333 : 1"
       inkscape:vp_z="1 : 0.5 : 1"
       inkscape:vp_y="0 : 1000 : 0"
       inkscape:vp_x="0 : 0.5 : 1"
       sodipodi:type="inkscape:persp3d" />
    <linearGradient
       inkscape:collect="always"
       xlink:href="#linearGradient3696"
       id="linearGradient4163"
       x1="6"
       y1="48"
       x2="90"
       y2="48"
       gradientUnits="userSpaceOnUse"
       gradientTransform="translate(-96,0)" />
    <linearGradient
       id="linearGradient3696">
      <stop
         id="stop3698"
         offset="0"
         style="stop-color:#2458a6;stop-opacity:1;" />
      <stop
         id="stop3700"
         offset="1"
         style="stop-color:#598ad4;stop-opacity:1;" />
    </linearGradient>
    <linearGradient
       y2="48"
       x2="90"
       y1="48"
       x1="6"
       gradientTransform="translate(-52.867199,-57.252856)"
       gradientUnits="userSpaceOnUse"
       id="linearGradient3738"
       xlink:href="#linearGradient3696"
       inkscape:collect="always" />
    <inkscape:perspective
       id="perspective3703"
       inkscape:persp3d-origin="0.5 : 0.33333333 : 1"
       inkscape:vp_z="1 : 0.5 : 1"
       inkscape:vp_y="0 : 1000 : 0"
       inkscape:vp_x="0 : 0.5 : 1"
       sodipodi:type="inkscape:persp3d" />
    <linearGradient
       gradientTransform="matrix(0.19388162,0,0,0.19388162,-1.4007219,-1.9461429)"
       inkscape:collect="always"
       xlink:href="#linearGradient4099"
       id="linearGradient4113"
       x1="22.111456"
       y1="62.983868"
       x2="40"
       y2="32"
       gradientUnits="userSpaceOnUse" />
    <linearGradient
       id="linearGradient4099">
      <stop
         style="stop-color:#9ede27;stop-opacity:1;"
         offset="0"
         id="stop4101" />
      <stop
         style="stop-color:#c8f16b;stop-opacity:1;"
         offset="1"
         id="stop4103" />
    </linearGradient>
    <linearGradient
       gradientTransform="matrix(0.19388162,0,0,0.19388162,-1.5256152,-1.9461429)"
       inkscape:collect="always"
       xlink:href="#linearGradient4099"
       id="linearGradient4105"
       x1="38"
       y1="74"
       x2="70"
       y2="49"
       gradientUnits="userSpaceOnUse" />
    <linearGradient
       id="linearGradient3712">
      <stop
         style="stop-color:#9ede27;stop-opacity:1;"
         offset="0"
         id="stop3714" />
      <stop
         style="stop-color:#c8f16b;stop-opacity:1;"
         offset="1"
         id="stop3716" />
    </linearGradient>
    <linearGradient
       inkscape:collect="always"
       xlink:href="#linearGradient3799-3"
       id="linearGradient3746"
       gradientUnits="userSpaceOnUse"
       x1="56.037025"
       y1="49.333305"
       x2="56.037025"
       y2="13.593002"
       gradientTransform="matrix(0.26518093,0,0,0.26518093,-0.34872536,-3.7081516)" />
    <linearGradient
       id="linearGradient3799-3">
      <stop
         style="stop-color:#1a1a1a;stop-opacity:1;"
         offset="0"
         id="stop3801-3" />
      <stop
         style="stop-color:#000000;stop-opacity:1;"
         offset="1"
         id="stop3803-2" />
    </linearGradient>
    <linearGradient
       y2="13.593002"
       x2="56.037025"
       y1="49.333305"
       x1="56.037025"
       gradientTransform="matrix(0.19388162,0,0,0.19388162,-1.3401963,-1.8843368)"
       gradientUnits="userSpaceOnUse"
       id="linearGradient3726"
       xlink:href="#linearGradient3799-3"
       inkscape:collect="always" />
    <inkscape:perspective
       id="perspective3736"
       inkscape:persp3d-origin="0.5 : 0.33333333 : 1"
       inkscape:vp_z="1 : 0.5 : 1"
       inkscape:vp_y="0 : 1000 : 0"
       inkscape:vp_x="0 : 0.5 : 1"
       sodipodi:type="inkscape:persp3d" />
    <radialGradient
       inkscape:collect="always"
       xlink:href="#linearGradient3784-2"
       id="radialGradient3758"
       gradientUnits="userSpaceOnUse"
       gradientTransform="matrix(1.0456205,0.08243661,-0.05194947,0.90987799,0.84943041,1.3399685)"
       cx="49.580967"
       cy="67.04126"
       fx="49.580967"
       fy="67.04126"
       r="10" />
    <linearGradient
       id="linearGradient3784-2">
      <stop
         id="stop3786-4"
         offset="0"
         style="stop-color:#a0a0a0;stop-opacity:1;" />
      <stop
         id="stop3790-2"
         offset="1"
         style="stop-color:#1a1a1a;stop-opacity:1;" />
    </linearGradient>
    <radialGradient
       r="10"
       fy="67.04126"
       fx="49.580967"
       cy="67.04126"
       cx="49.580967"
       gradientTransform="matrix(1.0456205,0.08243661,-0.05194947,0.90987799,0.84943041,1.3399685)"
       gradientUnits="userSpaceOnUse"
       id="radialGradient3745"
       xlink:href="#linearGradient3784-2"
       inkscape:collect="always" />
    <radialGradient
       inkscape:collect="always"
       xlink:href="#linearGradient3784-2"
       id="radialGradient3698"
       cx="10.116978"
       cy="6.5340972"
       fx="10.116978"
       fy="6.5340972"
       r="2.6487656"
       gradientTransform="matrix(0.60548597,-0.18291744,0.13322228,0.44098703,0.81853832,7.6996387)"
       gradientUnits="userSpaceOnUse" />
    <linearGradient
       inkscape:collect="always"
       xlink:href="#linearGradient3700"
       id="linearGradient3181"
       x1="-3.0607977"
       y1="27.258198"
       x2="-3.0607977"
       y2="7.2536583"
       gradientUnits="userSpaceOnUse"
       gradientTransform="translate(12.119372,-7.2581977)" />
    <linearGradient
       id="linearGradient3700">
      <stop
         style="stop-color:#a16331;stop-opacity:1"
         offset="0"
         id="stop3702" />
      <stop
         style="stop-color:#d2aa57;stop-opacity:1"
         offset="1"
         id="stop3704" />
    </linearGradient>
    <linearGradient
       inkscape:collect="always"
       xlink:href="#linearGradient4152"
       id="linearGradient4158"
       x1="34"
       y1="20"
       x2="38"
       y2="24"
       gradientUnits="userSpaceOnUse"
       gradientTransform="matrix(0.23076922,0,0,0.25000004,0.23076927,-8)" />
    <linearGradient
       id="linearGradient4152">
      <stop
         style="stop-color:#ffffff;stop-opacity:1;"
         offset="0"
         id="stop4154" />
      <stop
         style="stop-color:#ebebeb;stop-opacity:1;"
         offset="1"
         id="stop4156" />
    </linearGradient>
    <linearGradient
       y2="23.999996"
       x2="36.50185"
       y1="20"
       x1="34"
       gradientTransform="matrix(0.23076922,0,0,0.25000004,-0.7692307,-8)"
       gradientUnits="userSpaceOnUse"
       id="linearGradient3286"
       xlink:href="#linearGradient4152"
       inkscape:collect="always" />
    <linearGradient
       y2="9.4000015"
       x2="70"
       y1="77.800003"
       x1="70"
       gradientTransform="matrix(0.55555554,0,0,0.55555554,-24.444446,-26.222223)"
       gradientUnits="userSpaceOnUse"
       id="linearGradient3360"
       xlink:href="#linearGradient4142"
       inkscape:collect="always" />
    <linearGradient
       inkscape:collect="always"
       id="linearGradient4142">
      <stop
         style="stop-color:#402a1a;stop-opacity:1;"
         offset="0"
         id="stop4144" />
      <stop
         style="stop-color:#402a1a;stop-opacity:0;"
         offset="1"
         id="stop4146" />
    </linearGradient>
    <linearGradient
       y2="9.4000015"
       x2="70"
       y1="77.800003"
       x1="70"
       gradientTransform="matrix(0.44444443,0,0,0.44444443,-21.555557,-19.777778)"
       gradientUnits="userSpaceOnUse"
       id="linearGradient3303"
       xlink:href="#linearGradient4142"
       inkscape:collect="always" />
  </defs>
  <sodipodi:namedview
     id="base"
     pagecolor="#ffffff"
     bordercolor="#e7e7e7"
     borderopacity="1"
     inkscape:pageopacity="0.0"
     inkscape:pageshadow="2"
     inkscape:zoom="13.184925"
     inkscape:cx="0.25185674"
     inkscape:cy="19.548642"
     inkscape:document-units="px"
     inkscape:current-layer="layer1"
     showgrid="true"
     inkscape:showpageshadow="false"
     showguides="false"
     inkscape:guide-bbox="true"
     inkscape:window-width="1920"
     inkscape:window-height="1030"
     inkscape:window-x="0"
     inkscape:window-y="22"
     inkscape:window-maximized="1"
     inkscape:snap-global="true">
    <sodipodi:guide
       orientation="1,0"
       position="0,112"
       id="guide2383" />
    <sodipodi:guide
       orientation="0,1"
       position="26.278146,128"
       id="guide2385" />
    <sodipodi:guide
       orientation="1,0"
       position="128,54.082119"
       id="guide2387" />
    <sodipodi:guide
       orientation="0,1"
       position="78.156291,0"
       id="guide2389" />
    <sodipodi:guide
       orientation="0,1"
       position="60.863576,64.084768"
       id="guide2391" />
    <inkscape:grid
       type="xygrid"
       id="grid3672"
       visible="true"
       enabled="true" />
  </sodipodi:namedview>
  <metadata
     id="metadata7">
    <rdf:RDF>
      <cc:Work
         rdf:about="">
        <dc:format>image/svg+xml</dc:format>
        <dc:type
           rdf:resource="http://purl.org/dc/dcmitype/StillImage" />
        <dc:title></dc:title>
      </cc:Work>
    </rdf:RDF>
  </metadata>
  <g
     inkscape:label="Button"
     inkscape:groupmode="layer"
     id="layer1">
    <rect
       ry="2"
       rx="2"
       y="0"
       x="-16"
       height="16"
       width="16"
       id="rect3196"
       style="fill:url(#linearGradient3204);fill-opacity:1.0;fill-rule:nonzero;stroke:none"
       transform="matrix(0,-1,1,0,0,0)" />
    <path
       sodipodi:type="inkscape:offset"
       inkscape:radius="0.57223624"
       inkscape:original="M 2.5 -5 C 2.223 -5 2 -4.777 2 -4.5 L 2 -2.5 C 2 -2.223 2.223 -2 2.5 -2 L 6.5 -2 C 6.777 -2 7 -2.223 7 -2.5 L 7 -4.5 C 7 -4.777 6.777 -5 6.5 -5 L 2.5 -5 z "
       style="color:#000000;fill:#000000;fill-opacity:1;fill-rule:nonzero;stroke:none;stroke-width:2;marker:none;visibility:visible;display:inline;overflow:visible;enable-background:accumulate;opacity:0.1"
       id="path3947"
       d="m 2.5,-5.5625 c -0.5841208,0 -1.0625,0.4783792 -1.0625,1.0625 l 0,2 c 0,0.5841208 0.4783792,1.0625 1.0625,1.0625 l 4,0 c 0.5841208,0 1.0625,-0.4783792 1.0625,-1.0625 l 0,-2 c 0,-0.5841208 -0.4783792,-1.0625 -1.0625,-1.0625 l -4,0 z"
       transform="scale(1,-1)" />
    <path
       style="opacity:0.4;fill:url(#linearGradient3629);fill-opacity:1;fill-rule:nonzero;stroke:none"
       d="m 0,14 c 0,1.108 0.892,2 2,2 l 12,0 c 1.108,0 2,-0.892 2,-2 L 16,2 C 16,0.892 15.108,0 14,0 L 2,0 C 0.892,0 0,0.892 0,2 l 0,12 z m 0.96875,0 0,-12 C 0.96875,1.416801 1.4168007,0.96875 2,0.96875 l 12,0 c 0.583199,0 1.03125,0.448051 1.03125,1.03125 l 0,12 c 0,0.583199 -0.448051,1.03125 -1.03125,1.03125 l -12,0 C 1.4168007,15.03125 0.96875,14.583199 0.96875,14 z"
       id="rect2835" />
    <path
       style="fill:#ffffff;fill-opacity:1;fill-rule:nonzero;stroke:none;opacity:0.2"
       d="M 2 0.96875 C 1.4168007 0.96875 0.96875 1.4168007 0.96875 2 L 0.96875 3 C 0.96875 2.4168007 1.4168007 1.96875 2 1.96875 L 14 1.96875 C 14.583199 1.96875 15.03125 2.4168007 15.03125 3 L 15.03125 2 C 15.03125 1.4168007 14.583199 0.96875 14 0.96875 L 2 0.96875 z "
       id="path2843" />
    <rect
       style="color:#000000;fill:url(#linearGradient3286);fill-opacity:1;fill-rule:nonzero;stroke:none;stroke-width:2;marker:none;visibility:visible;display:inline;overflow:visible;enable-background:accumulate"
       id="rect4150"
       width="5"
       height="2.9999993"
       x="2"
       y="-5"
       rx="0.5"
       transform="scale(1,-1)" />
    <rect
       style="color:#000000;fill:#d72123;fill-opacity:1;fill-rule:nonzero;stroke:none;stroke-width:2;marker:none;visibility:visible;display:inline;overflow:visible;enable-background:accumulate"
       id="rect4213"
       width="3"
       height="1"
       x="3"
       y="3" />
    <g
       transform="matrix(0.19214147,0,0,0.19214147,-0.3056966,-0.3115275)"
       style="font-size:3.20626998px;font-style:normal;font-variant:normal;font-weight:normal;font-stretch:normal;text-align:start;line-height:125%;letter-spacing:0px;word-spacing:0px;writing-mode:lr-tb;text-anchor:start;fill:#724d28;fill-opacity:1;stroke:none;display:inline;font-family:Ubuntu;-inkscape-font-specification:Ubuntu"
       id="text4208">
      <path
         inkscape:connector-curvature="0"
         d="m 12.817599,35.706155 c 0.331314,3e-6 0.585678,0.05878 0.763093,0.176345 0.177411,0.115428 0.266118,0.305666 0.26612,0.570716 -2e-6,0.267191 -0.08978,0.460635 -0.269327,0.580335 -0.179552,0.117564 -0.436054,0.176346 -0.769504,0.176345 l -0.157108,0 0,0.743855 -0.500178,0 0,-2.189883 c 0.109013,-0.02137 0.224439,-0.03634 0.346277,-0.04489 0.121838,-0.0085 0.228713,-0.01282 0.320627,-0.01282 m 0.03206,0.426434 c -0.03634,2e-6 -0.07268,0.0011 -0.109013,0.0032 -0.0342,0.0021 -0.06413,0.0043 -0.08978,0.0064 l 0,0.641254 0.157108,0 c 0.173137,1e-6 0.303525,-0.02351 0.391165,-0.07054 0.08764,-0.04702 0.131455,-0.134662 0.131457,-0.262914 -2e-6,-0.06199 -0.01176,-0.113287 -0.03527,-0.153901 -0.02138,-0.04061 -0.05344,-0.07267 -0.09619,-0.09619 -0.04061,-0.02565 -0.09085,-0.04275 -0.150695,-0.0513 -0.05985,-0.01069 -0.126114,-0.01603 -0.198789,-0.01603"
         style="font-weight:bold;fill:#724d28;-inkscape-font-specification:Ubuntu Bold"
         id="path4452" />
      <path
         inkscape:connector-curvature="0"
         d="m 15.485767,37.953751 c -0.02351,-0.07695 -0.05023,-0.156039 -0.08016,-0.237264 -0.02779,-0.08123 -0.05558,-0.162451 -0.08336,-0.243677 l -0.865693,0 c -0.02779,0.08123 -0.05664,0.162451 -0.08657,0.243677 -0.02779,0.08122 -0.05344,0.160313 -0.07695,0.237264 l -0.519416,0 c 0.08336,-0.239402 0.162451,-0.460634 0.237264,-0.663698 0.07481,-0.203063 0.147488,-0.39437 0.218026,-0.573923 0.07268,-0.179549 0.143213,-0.349481 0.211614,-0.509797 0.07054,-0.162449 0.143213,-0.320624 0.218027,-0.474527 l 0.477734,0 c 0.07267,0.153903 0.14428,0.312078 0.21482,0.474527 0.07054,0.160316 0.141074,0.330248 0.211614,0.509797 0.07267,0.179553 0.146417,0.37086 0.221232,0.573923 0.07481,0.203064 0.153899,0.424296 0.237264,0.663698 l -0.535447,0 M 14.886195,36.23519 c -0.01069,0.03206 -0.02672,0.07588 -0.04809,0.131457 -0.02138,0.05558 -0.04596,0.119702 -0.07375,0.192376 -0.02779,0.07268 -0.05878,0.152834 -0.09298,0.24047 -0.03206,0.08764 -0.06519,0.179553 -0.09939,0.27574 l 0.631635,0 c -0.0342,-0.09619 -0.06733,-0.1881 -0.09939,-0.27574 -0.03206,-0.08764 -0.06306,-0.167793 -0.09298,-0.24047 -0.02779,-0.07267 -0.05237,-0.136799 -0.07374,-0.192376 -0.02138,-0.05557 -0.03848,-0.09939 -0.0513,-0.131457"
         style="font-weight:bold;fill:#724d28;-inkscape-font-specification:Ubuntu Bold"
         id="path4454" />
      <path
         inkscape:connector-curvature="0"
         d="m 17.240599,37.998638 c -0.361241,0 -0.63698,-0.100463 -0.827218,-0.301389 -0.188101,-0.200926 -0.282152,-0.486284 -0.282152,-0.856074 0,-0.183825 0.02886,-0.347345 0.08657,-0.490559 0.05771,-0.14535 0.1368,-0.267188 0.237264,-0.365515 0.100462,-0.100461 0.220163,-0.176343 0.359102,-0.227645 0.138937,-0.0513 0.289632,-0.07695 0.452084,-0.07695 0.09405,2e-6 0.17955,0.0075 0.256501,0.02244 0.07695,0.01283 0.144281,0.02886 0.201995,0.04809 0.05771,0.0171 0.105806,0.03527 0.144283,0.05451 0.03847,0.01924 0.06626,0.0342 0.08336,0.04489 l -0.144283,0.40399 c -0.0684,-0.03634 -0.148558,-0.06733 -0.24047,-0.09298 -0.08978,-0.02565 -0.192377,-0.03847 -0.307802,-0.03848 -0.07695,2e-6 -0.152833,0.01283 -0.227645,0.03848 -0.07268,0.02565 -0.13787,0.06733 -0.195582,0.125044 -0.05558,0.05558 -0.100464,0.128253 -0.134664,0.218027 -0.0342,0.08978 -0.0513,0.19879 -0.0513,0.327039 -1e-6,0.102602 0.01069,0.19879 0.03206,0.288564 0.02351,0.08764 0.05985,0.163521 0.109013,0.227646 0.0513,0.06413 0.117562,0.115426 0.198789,0.153901 0.08122,0.03634 0.17955,0.05451 0.294976,0.05451 0.07268,1e-6 0.137869,-0.0043 0.195583,-0.01282 0.05771,-0.0085 0.109012,-0.01817 0.153901,-0.02886 0.04489,-0.01282 0.08443,-0.02672 0.118632,-0.04168 0.0342,-0.01496 0.06519,-0.02886 0.09298,-0.04168 l 0.137869,0.400783 c -0.07054,0.04275 -0.169934,0.08123 -0.298183,0.115426 -0.128252,0.0342 -0.276809,0.0513 -0.445671,0.0513"
         style="font-weight:bold;fill:#724d28;-inkscape-font-specification:Ubuntu Bold"
         id="path4456" />
      <path
         inkscape:connector-curvature="0"
         d="m 19.617848,37.953751 c -0.04489,-0.07268 -0.09833,-0.150695 -0.160314,-0.234058 -0.05985,-0.0855 -0.126114,-0.169932 -0.198789,-0.253295 -0.07054,-0.0855 -0.144283,-0.166726 -0.221232,-0.243677 -0.07695,-0.07909 -0.153902,-0.148556 -0.230852,-0.208407 l 0,0.939437 -0.500178,0 0,-2.221945 0.500178,0 0,0.840042 c 0.130388,-0.136799 0.260776,-0.278944 0.391165,-0.426434 0.132525,-0.149624 0.255432,-0.287493 0.368721,-0.413608 l 0.59316,0 c -0.151765,0.179553 -0.304597,0.352691 -0.458496,0.519415 -0.151765,0.166728 -0.312079,0.334522 -0.480941,0.503385 0.177412,0.147489 0.348413,0.322765 0.513003,0.525828 0.166725,0.203064 0.325969,0.427503 0.477735,0.673317 l -0.59316,0"
         style="font-weight:bold;fill:#724d28;-inkscape-font-specification:Ubuntu Bold"
         id="path4458" />
      <path
         inkscape:connector-curvature="0"
         d="m 22.067388,37.953751 c -0.02351,-0.07695 -0.05023,-0.156039 -0.08016,-0.237264 -0.02779,-0.08123 -0.05558,-0.162451 -0.08336,-0.243677 l -0.865692,0 c -0.02779,0.08123 -0.05664,0.162451 -0.08657,0.243677 -0.02779,0.08122 -0.05344,0.160313 -0.07695,0.237264 l -0.519416,0 c 0.08336,-0.239402 0.162451,-0.460634 0.237264,-0.663698 0.07481,-0.203063 0.147488,-0.39437 0.218026,-0.573923 0.07268,-0.179549 0.143213,-0.349481 0.211614,-0.509797 0.07054,-0.162449 0.143213,-0.320624 0.218027,-0.474527 l 0.477734,0 c 0.07267,0.153903 0.14428,0.312078 0.21482,0.474527 0.07054,0.160316 0.141074,0.330248 0.211614,0.509797 0.07267,0.179553 0.146417,0.37086 0.221232,0.573923 0.07481,0.203064 0.153899,0.424296 0.237264,0.663698 l -0.535447,0 M 21.467816,36.23519 c -0.01069,0.03206 -0.02672,0.07588 -0.04809,0.131457 -0.02138,0.05558 -0.04596,0.119702 -0.07374,0.192376 -0.02779,0.07268 -0.05878,0.152834 -0.09298,0.24047 -0.03206,0.08764 -0.06519,0.179553 -0.0994,0.27574 l 0.631635,0 c -0.0342,-0.09619 -0.06733,-0.1881 -0.09939,-0.27574 -0.03206,-0.08764 -0.06306,-0.167793 -0.09298,-0.24047 -0.02779,-0.07267 -0.05237,-0.136799 -0.07374,-0.192376 -0.02138,-0.05557 -0.03848,-0.09939 -0.0513,-0.131457"
         style="font-weight:bold;fill:#724d28;-inkscape-font-specification:Ubuntu Bold"
         id="path4460" />
      <path
         inkscape:connector-curvature="0"
         d="m 23.892758,36.116558 c -0.23299,2e-6 -0.401854,0.0652 -0.506591,0.195582 -0.102601,0.128253 -0.153901,0.304597 -0.153901,0.529035 0,0.109014 0.01282,0.208408 0.03848,0.298183 0.02565,0.08764 0.06413,0.16352 0.115426,0.227645 0.0513,0.06413 0.115425,0.114358 0.192376,0.150695 0.07695,0.0342 0.166725,0.0513 0.269327,0.0513 0.05557,10e-7 0.102599,-0.0011 0.141076,-0.0032 0.04061,-0.0021 0.07588,-0.0064 0.105807,-0.01282 l 0,-0.772711 0.500178,0 0,1.09975 c -0.05985,0.02351 -0.15604,0.04809 -0.288564,0.07374 -0.132528,0.02779 -0.296047,0.04168 -0.49056,0.04168 -0.166727,0 -0.31849,-0.02565 -0.45529,-0.07695 -0.134664,-0.0513 -0.25009,-0.126113 -0.346277,-0.224439 -0.09619,-0.09833 -0.171002,-0.219095 -0.224439,-0.362309 -0.0513,-0.143212 -0.07695,-0.306732 -0.07695,-0.490559 0,-0.185962 0.02886,-0.350551 0.08657,-0.493766 0.05771,-0.143211 0.1368,-0.263981 0.237264,-0.362308 0.100462,-0.100461 0.218025,-0.176343 0.352689,-0.227645 0.1368,-0.0513 0.282151,-0.07695 0.436053,-0.07695 0.104737,2e-6 0.198787,0.0075 0.282152,0.02244 0.0855,0.01283 0.158174,0.02886 0.218026,0.04809 0.06199,0.0171 0.112218,0.03527 0.150695,0.05451 0.04061,0.01924 0.06947,0.0342 0.08657,0.04489 l -0.144282,0.400783 c -0.0684,-0.03634 -0.14749,-0.06733 -0.237264,-0.09298 -0.08764,-0.02779 -0.183827,-0.04168 -0.288564,-0.04168"
         style="font-weight:bold;fill:#724d28;-inkscape-font-specification:Ubuntu Bold"
         id="path4462" />
      <path
         inkscape:connector-curvature="0"
         d="m 25.057185,37.953751 0,-2.221945 1.500534,0 0,0.420021 -1.000356,0 0,0.436053 0.888137,0 0,0.410402 -0.888137,0 0,0.535447 1.0741,0 0,0.420022 -1.574278,0"
         style="font-weight:bold;fill:#724d28;-inkscape-font-specification:Ubuntu Bold"
         id="path4464" />
      <path
         inkscape:connector-curvature="0"
         d="m 27.768737,35.731806 0.500178,0 0,2.221945 -0.500178,0 0,-2.221945"
         style="font-weight:bold;fill:#724d28;-inkscape-font-specification:Ubuntu Bold"
         id="path4466" />
      <path
         inkscape:connector-curvature="0"
         d="m 30.274137,37.953751 c -0.143215,-0.254364 -0.298184,-0.505522 -0.464909,-0.753474 -0.166727,-0.24795 -0.344141,-0.482008 -0.532241,-0.702173 l 0,1.455647 -0.493765,0 0,-2.221945 0.407196,0 c 0.07054,0.07054 0.148556,0.157109 0.234058,0.259707 0.0855,0.102603 0.172068,0.212685 0.259708,0.330246 0.08977,0.115427 0.178481,0.236197 0.26612,0.362309 0.08764,0.123977 0.169931,0.243677 0.246883,0.359102 l 0,-1.311364 0.496972,0 0,2.221945 -0.420022,0"
         style="font-weight:bold;fill:#724d28;-inkscape-font-specification:Ubuntu Bold"
         id="path4468" />
      <path
         inkscape:connector-curvature="0"
         d="m 31.812695,37.572204 c 0.07054,10e-7 0.12825,-0.0053 0.173139,-0.01603 0.04702,-0.01282 0.08443,-0.02886 0.112219,-0.04809 0.02779,-0.02137 0.04702,-0.04596 0.05771,-0.07374 0.01069,-0.02779 0.01603,-0.05878 0.01603,-0.09298 -2e-6,-0.07267 -0.0342,-0.132525 -0.102601,-0.179551 -0.0684,-0.04916 -0.185965,-0.101531 -0.35269,-0.157107 -0.07268,-0.02565 -0.145351,-0.05451 -0.218026,-0.08657 -0.07268,-0.0342 -0.13787,-0.07588 -0.195583,-0.125044 -0.05771,-0.0513 -0.104738,-0.112218 -0.141076,-0.182758 -0.03634,-0.07267 -0.05451,-0.160312 -0.05451,-0.262914 0,-0.102599 0.01924,-0.194512 0.05771,-0.275739 0.03847,-0.08336 0.09298,-0.153899 0.16352,-0.211614 0.07054,-0.05771 0.156037,-0.101529 0.256501,-0.131457 0.100463,-0.03206 0.213751,-0.04809 0.339865,-0.04809 0.149625,2e-6 0.278944,0.01603 0.387958,0.04809 0.109012,0.03206 0.198788,0.06733 0.269327,0.105807 l -0.144282,0.394371 c -0.06199,-0.03206 -0.131458,-0.05985 -0.208408,-0.08336 -0.07481,-0.02565 -0.165658,-0.03847 -0.272533,-0.03848 -0.119701,2e-6 -0.20627,0.0171 -0.259707,0.0513 -0.0513,0.03206 -0.07695,0.0823 -0.07695,0.150695 -1e-6,0.04061 0.0096,0.07482 0.02886,0.102601 0.01924,0.02779 0.04595,0.05344 0.08016,0.07695 0.03634,0.02138 0.07695,0.04168 0.121839,0.06092 0.04702,0.0171 0.09832,0.03527 0.1539,0.05451 0.115425,0.04275 0.215888,0.0855 0.30139,0.128251 0.0855,0.04061 0.156037,0.08871 0.211614,0.144282 0.05771,0.05558 0.100461,0.12077 0.12825,0.195582 0.02779,0.07481 0.04168,0.165658 0.04168,0.272533 -2e-6,0.20734 -0.07268,0.368722 -0.218026,0.484147 -0.145353,0.113288 -0.364448,0.169932 -0.657286,0.169932 -0.09833,0 -0.187033,-0.0064 -0.26612,-0.01924 -0.07909,-0.01069 -0.149626,-0.02458 -0.211614,-0.04168 -0.05985,-0.0171 -0.11222,-0.03527 -0.157107,-0.05451 -0.04275,-0.01924 -0.07909,-0.03741 -0.109013,-0.05451 l 0.141076,-0.397577 c 0.06626,0.03634 0.147488,0.06947 0.243676,0.09939 0.09832,0.02779 0.218026,0.04168 0.359102,0.04168"
         style="font-weight:bold;fill:#724d28;-inkscape-font-specification:Ubuntu Bold"
         id="path4470" />
      <path
         inkscape:connector-curvature="0"
         d="m 33.07286,35.731806 0.500178,0 0,2.221945 -0.500178,0 0,-2.221945"
         style="font-weight:bold;fill:#724d28;-inkscape-font-specification:Ubuntu Bold"
         id="path4472" />
      <path
         inkscape:connector-curvature="0"
         d="m 34.587521,37.546554 c 0.02351,0.0021 0.05023,0.0043 0.08016,0.0064 0.03206,0 0.06947,0 0.112219,0 0.250088,0 0.434983,-0.06306 0.554685,-0.18917 0.121836,-0.126113 0.182755,-0.30032 0.182757,-0.522622 -2e-6,-0.232988 -0.05771,-0.409332 -0.173139,-0.529035 -0.115427,-0.119699 -0.298184,-0.179549 -0.548272,-0.179551 -0.0342,2e-6 -0.06947,0.0011 -0.105807,0.0032 -0.03634,10e-7 -0.07054,0.0021 -0.1026,0.0064 l 0,1.404346 m 1.446028,-0.705379 c -3e-6,0.192377 -0.02993,0.360172 -0.08978,0.503384 -0.05985,0.143214 -0.145353,0.261846 -0.256502,0.355896 -0.109015,0.09405 -0.242609,0.164589 -0.400783,0.211614 -0.158178,0.04702 -0.335591,0.07054 -0.532241,0.07054 -0.08978,0 -0.194515,-0.0043 -0.314215,-0.01282 -0.119701,-0.0064 -0.237264,-0.02137 -0.352689,-0.04489 l 0,-2.164232 c 0.115425,-0.02137 0.235126,-0.03527 0.359102,-0.04168 0.126112,-0.0085 0.234057,-0.01282 0.323833,-0.01282 0.190238,3e-6 0.362307,0.02138 0.51621,0.06413 0.156036,0.04275 0.289631,0.110084 0.400783,0.201995 0.111149,0.09192 0.19665,0.209478 0.256502,0.352689 0.05985,0.143215 0.08977,0.315285 0.08978,0.51621"
         style="font-weight:bold;fill:#724d28;-inkscape-font-specification:Ubuntu Bold"
         id="path4474" />
      <path
         inkscape:connector-curvature="0"
         d="m 36.448209,37.953751 0,-2.221945 1.500535,0 0,0.420021 -1.000357,0 0,0.436053 0.888137,0 0,0.410402 -0.888137,0 0,0.535447 1.074101,0 0,0.420022 -1.574279,0"
         style="font-weight:bold;fill:#724d28;-inkscape-font-specification:Ubuntu Bold"
         id="path4476" />
      <path
         inkscape:connector-curvature="0"
         d="m 12.686142,41.740355 c 0.324901,10e-7 0.487352,-0.11115 0.487353,-0.333452 -1e-6,-0.0684 -0.01496,-0.126112 -0.04489,-0.173138 -0.02779,-0.04916 -0.06626,-0.09084 -0.115426,-0.125045 -0.04916,-0.03634 -0.105808,-0.06733 -0.169932,-0.09298 -0.06199,-0.02565 -0.128252,-0.0513 -0.198789,-0.07695 -0.08123,-0.02779 -0.158177,-0.05878 -0.230852,-0.09298 -0.07268,-0.03634 -0.135732,-0.07802 -0.18917,-0.125044 -0.05344,-0.04916 -0.09619,-0.106875 -0.12825,-0.173139 -0.02993,-0.06626 -0.04489,-0.146418 -0.04489,-0.24047 0,-0.194512 0.06626,-0.346275 0.198789,-0.455291 0.132525,-0.109011 0.315282,-0.163517 0.548272,-0.163519 0.134662,2e-6 0.2565,0.01496 0.365515,0.04489 0.111149,0.02779 0.192374,0.05878 0.243676,0.09298 l -0.09939,0.253296 c -0.04489,-0.02779 -0.112221,-0.0545 -0.201995,-0.08016 -0.08764,-0.02779 -0.19024,-0.04168 -0.307802,-0.04168 -0.05985,2e-6 -0.115427,0.0064 -0.166726,0.01924 -0.0513,0.01283 -0.09619,0.03207 -0.134664,0.05771 -0.03848,0.02565 -0.06947,0.05878 -0.09298,0.09939 -0.02138,0.03848 -0.03206,0.08443 -0.03206,0.13787 -10e-7,0.05985 0.01176,0.110083 0.03527,0.150694 0.02351,0.04061 0.05664,0.07695 0.09939,0.109014 0.04275,0.02993 0.09191,0.05771 0.147489,0.08336 0.05771,0.02565 0.120768,0.0513 0.18917,0.07695 0.09619,0.03848 0.183825,0.07695 0.262914,0.115426 0.08122,0.03848 0.150693,0.08443 0.208407,0.13787 0.05985,0.05344 0.105806,0.117564 0.13787,0.192376 0.03206,0.07268 0.04809,0.161383 0.04809,0.26612 -2e-6,0.194514 -0.07161,0.34414 -0.21482,0.448878 -0.141077,0.104738 -0.340935,0.157107 -0.599573,0.157107 -0.08764,0 -0.168864,-0.0064 -0.243676,-0.01924 -0.07268,-0.01069 -0.13787,-0.02351 -0.195583,-0.03848 -0.05771,-0.0171 -0.107944,-0.0342 -0.150694,-0.0513 -0.04061,-0.01924 -0.07268,-0.03527 -0.09619,-0.04809 l 0.09298,-0.256502 c 0.04916,0.02779 0.123976,0.05878 0.224439,0.09298 0.100463,0.0342 0.22337,0.0513 0.368721,0.0513"
         id="path4478" />
      <path
         inkscape:connector-curvature="0"
         d="m 13.854026,41.961588 0,-2.436765 0.298183,-0.0513 0,0.852867 c 0.05558,-0.02137 0.114357,-0.0374 0.176345,-0.04809 0.06412,-0.01282 0.127181,-0.01924 0.18917,-0.01924 0.132525,1e-6 0.242607,0.01924 0.330246,0.05771 0.08764,0.03634 0.157106,0.08871 0.208407,0.157107 0.05344,0.06626 0.09084,0.146421 0.11222,0.24047 0.02137,0.09405 0.03206,0.197721 0.03206,0.311008 l 0,0.936231 -0.298184,0 0,-0.872105 c -1e-6,-0.1026 -0.0075,-0.190238 -0.02244,-0.262914 -0.01283,-0.07267 -0.03527,-0.131456 -0.06733,-0.176345 -0.03206,-0.04489 -0.07481,-0.07695 -0.128251,-0.09619 -0.05344,-0.02137 -0.119702,-0.03206 -0.198789,-0.03206 -0.03206,1e-6 -0.0652,0.0021 -0.09939,0.0064 -0.0342,0.0043 -0.06733,0.0096 -0.09939,0.01603 -0.02993,0.0043 -0.05771,0.0096 -0.08336,0.01603 -0.02351,0.0064 -0.04061,0.01176 -0.0513,0.01603 l 0,1.385109 -0.298183,0"
         id="path4480" />
      <path
         inkscape:connector-curvature="0"
         d="m 15.980785,41.961588 -0.298183,0 0,-1.66726 0.298183,0 0,1.66726 m -0.150695,-1.96865 c -0.05344,2e-6 -0.09939,-0.0171 -0.137869,-0.0513 -0.03634,-0.03634 -0.05451,-0.08443 -0.05451,-0.144282 0,-0.05985 0.01817,-0.106874 0.05451,-0.141076 0.03848,-0.03634 0.08443,-0.0545 0.137869,-0.05451 0.05344,3e-6 0.09832,0.01817 0.134664,0.05451 0.03847,0.0342 0.05771,0.08123 0.05771,0.141076 0,0.05985 -0.01924,0.107946 -0.05771,0.144282 -0.03634,0.0342 -0.08123,0.0513 -0.134664,0.0513"
         id="path4482" />
      <path
         inkscape:connector-curvature="0"
         d="m 17.654157,41.131164 c -1e-6,-0.194513 -0.04809,-0.344138 -0.144282,-0.448878 -0.09619,-0.104736 -0.22444,-0.157105 -0.384752,-0.157107 -0.08978,2e-6 -0.160314,0.0032 -0.211614,0.0096 -0.04916,0.0064 -0.08871,0.01389 -0.118632,0.02244 l 0,1.051656 c 0.03634,0.02993 0.08871,0.05878 0.157107,0.08657 0.0684,0.02779 0.143213,0.04168 0.224439,0.04168 0.0855,0 0.158175,-0.01496 0.218027,-0.04489 0.06199,-0.03206 0.112218,-0.07481 0.150694,-0.12825 0.03847,-0.05557 0.06626,-0.119701 0.08336,-0.192377 0.0171,-0.07481 0.02565,-0.154969 0.02565,-0.24047 m 0.311009,0 c -2e-6,0.126114 -0.0171,0.242609 -0.0513,0.349484 -0.03206,0.106876 -0.08016,0.198789 -0.144282,0.275739 -0.06413,0.07695 -0.143215,0.136801 -0.237264,0.179551 -0.09191,0.04275 -0.197721,0.06412 -0.317421,0.06412 -0.09619,0 -0.181689,-0.01282 -0.256501,-0.03847 -0.07268,-0.02565 -0.127183,-0.05023 -0.16352,-0.07374 l 0,0.666904 -0.298183,0 0,-2.20912 c 0.07054,-0.0171 0.158176,-0.03527 0.262914,-0.05451 0.106875,-0.02137 0.229782,-0.03206 0.368721,-0.03206 0.12825,10e-7 0.243676,0.02031 0.346277,0.06092 0.1026,0.04061 0.190238,0.09833 0.262914,0.173138 0.07267,0.07482 0.12825,0.166728 0.166727,0.27574 0.04061,0.106876 0.06092,0.227646 0.06092,0.362308"
         id="path4484" />
      <path
         inkscape:connector-curvature="0"
         d="m 19.405783,40.294328 0.631635,0 0,0.250089 -0.631635,0 0,0.769505 c -1e-6,0.08336 0.0064,0.152832 0.01924,0.208407 0.01282,0.05344 0.03206,0.09619 0.05771,0.128251 0.02565,0.02992 0.05771,0.0513 0.09619,0.06413 0.03847,0.01283 0.08336,0.01924 0.134664,0.01924 0.08977,0 0.161381,-0.0096 0.21482,-0.02886 0.05557,-0.02137 0.09405,-0.03634 0.115425,-0.04489 l 0.05771,0.246882 c -0.02993,0.01496 -0.08229,0.03313 -0.157107,0.05451 -0.07481,0.02351 -0.160314,0.03527 -0.256502,0.03527 -0.113288,0 -0.207339,-0.01389 -0.282151,-0.04168 -0.07268,-0.02993 -0.131458,-0.07375 -0.176345,-0.131458 -0.04489,-0.05771 -0.07695,-0.12825 -0.09619,-0.211613 -0.0171,-0.0855 -0.02565,-0.183826 -0.02565,-0.294977 l 0,-1.487709 0.298183,-0.0513 0,0.51621"
         id="path4486" />
      <path
         inkscape:connector-curvature="0"
         d="m 21.844702,41.127958 c -1e-6,0.132526 -0.01924,0.252227 -0.05771,0.359102 -0.03848,0.106876 -0.09298,0.198789 -0.163519,0.275739 -0.0684,0.07695 -0.150696,0.136801 -0.246883,0.179551 -0.09619,0.04061 -0.200927,0.06092 -0.314215,0.06092 -0.113289,0 -0.218027,-0.02031 -0.314214,-0.06092 -0.09619,-0.04275 -0.179552,-0.1026 -0.250089,-0.179551 -0.0684,-0.07695 -0.121839,-0.168863 -0.160314,-0.275739 -0.03848,-0.106875 -0.05771,-0.226576 -0.05771,-0.359102 -1e-6,-0.130387 0.01924,-0.249019 0.05771,-0.355896 0.03847,-0.109012 0.09191,-0.201994 0.160314,-0.278946 0.07054,-0.07695 0.1539,-0.13573 0.250089,-0.176344 0.09619,-0.04275 0.200925,-0.06412 0.314214,-0.06413 0.113288,2e-6 0.218026,0.02138 0.314215,0.06413 0.09619,0.04061 0.178481,0.0994 0.246883,0.176344 0.07054,0.07695 0.125043,0.169934 0.163519,0.278946 0.03847,0.106877 0.05771,0.225509 0.05771,0.355896 m -0.311008,0 c -1e-6,-0.1881 -0.04275,-0.336657 -0.128251,-0.445672 -0.08336,-0.111149 -0.197721,-0.166724 -0.343071,-0.166726 -0.145351,2e-6 -0.260777,0.05558 -0.346277,0.166726 -0.08336,0.109015 -0.125045,0.257572 -0.125044,0.445672 -1e-6,0.188102 0.04168,0.337727 0.125044,0.448878 0.0855,0.109013 0.200926,0.16352 0.346277,0.163519 0.14535,10e-7 0.259707,-0.05451 0.343071,-0.163519 0.0855,-0.111151 0.12825,-0.260776 0.128251,-0.448878"
         id="path4488" />
      <path
         inkscape:connector-curvature="0"
         d="m 22.616912,41.78845 c 0,0.05771 -0.01924,0.107944 -0.05771,0.150694 -0.03847,0.04275 -0.09084,0.06413 -0.157107,0.06413 -0.06626,0 -0.118632,-0.02138 -0.157107,-0.06413 -0.03848,-0.04275 -0.05771,-0.09298 -0.05771,-0.150694 0,-0.05771 0.01924,-0.107945 0.05771,-0.150695 0.03848,-0.04275 0.09084,-0.06412 0.157107,-0.06413 0.06626,10e-7 0.118632,0.02138 0.157107,0.06413 0.03848,0.04275 0.05771,0.09298 0.05771,0.150695 m 0,-1.279302 c 0,0.05771 -0.01924,0.107946 -0.05771,0.150694 -0.03847,0.04275 -0.09084,0.06413 -0.157107,0.06413 -0.06626,10e-7 -0.118632,-0.02137 -0.157107,-0.06413 -0.03848,-0.04275 -0.05771,-0.09298 -0.05771,-0.150694 0,-0.05771 0.01924,-0.107943 0.05771,-0.150695 0.03848,-0.04275 0.09084,-0.06412 0.157107,-0.06412 0.06626,10e-7 0.118632,0.02138 0.157107,0.06412 0.03848,0.04275 0.05771,0.09298 0.05771,0.150695"
         id="path4490" />
    </g>
  </g>
</svg>
