<?xml version="1.0" encoding="UTF-8" standalone="no"?>
<svg
   xmlns:dc="http://purl.org/dc/elements/1.1/"
   xmlns:cc="http://creativecommons.org/ns#"
   xmlns:rdf="http://www.w3.org/1999/02/22-rdf-syntax-ns#"
   xmlns:svg="http://www.w3.org/2000/svg"
   xmlns="http://www.w3.org/2000/svg"
   xmlns:sodipodi="http://sodipodi.sourceforge.net/DTD/sodipodi-0.dtd"
   xmlns:inkscape="http://www.inkscape.org/namespaces/inkscape"
   id="svg2"
   width="16"
   height="16"
   version="1.0"
   sodipodi:docname="sigil.svg"
   inkscape:version="0.92.2 5c3e80d, 2017-08-06">
  <metadata
     id="metadata31">
    <rdf:RDF>
      <cc:Work
         rdf:about="">
        <dc:format>image/svg+xml</dc:format>
        <dc:type
           rdf:resource="http://purl.org/dc/dcmitype/StillImage" />
      </cc:Work>
    </rdf:RDF>
  </metadata>
  <sodipodi:namedview
     pagecolor="#ffffff"
     bordercolor="#666666"
     borderopacity="1"
     objecttolerance="10"
     gridtolerance="10"
     guidetolerance="10"
     inkscape:pageopacity="0"
     inkscape:pageshadow="2"
     inkscape:window-width="640"
     inkscape:window-height="480"
     id="namedview29"
     showgrid="false"
     inkscape:zoom="14.75"
     inkscape:cx="8"
     inkscape:cy="8"
     inkscape:window-x="0"
     inkscape:window-y="25"
     inkscape:window-maximized="0"
     inkscape:current-layer="svg2" />
  <defs
     id="defs4">
    <linearGradient
       id="linearGradient3204"
       x1="1"
       x2="15"
       y1="9"
       y2="9"
       gradientTransform="translate(-17,-2)"
       gradientUnits="userSpaceOnUse">
      <stop
         id="stop3189"
         stop-color="#1d0100"
         offset="0" />
      <stop
         id="stop3191"
         stop-color="#4a2826"
         offset="1" />
    </linearGradient>
    <linearGradient
       id="linearGradient3629"
       x2="29.017"
       y1="8"
       y2="8"
       gradientTransform="matrix(0,-1,1,0,0,16)"
       gradientUnits="userSpaceOnUse">
      <stop
         id="stop3330"
         offset="0" />
      <stop
         id="stop3333"
         stop-opacity="0"
         offset="1" />
    </linearGradient>
  </defs>
  <g
     id="layer1">
    <rect
       id="rect3196"
       transform="rotate(-90)"
       x="-16"
       width="16"
       height="16"
       rx="2"
       ry="2"
       fill="url(#linearGradient3204)" />
    <path
       id="rect2835"
       d="m0 14c0 1.108 0.892 2 2 2h12c1.108 0 2-0.892 2-2v-12c0-1.108-0.892-2-2-2h-12c-1.108 0-2 0.892-2 2v12zm0.96875 0v-12c0-0.5832 0.44805-1.0312 1.0312-1.0312h12c0.5832 0 1.0312 0.44805 1.0312 1.0312v12c0 0.5832-0.44805 1.0312-1.0312 1.0312h-12c-0.5832 0-1.0312-0.44805-1.0312-1.0312z"
       fill="url(#linearGradient3629)"
       opacity=".4" />
    <path
       id="path2843"
       d="m2 0.96875c-0.5832 0-1.0312 0.44805-1.0312 1.0312v1c0-0.5832 0.44805-1.0312 1.0312-1.0312h12c0.5832 0 1.0312 0.44805 1.0312 1.0312v-1c0-0.5832-0.44805-1.0312-1.0312-1.0312h-12z"
       fill="#fff"
       opacity=".35" />
  </g>
  <defs
     id="defs21">
    <filter
       id="w">
      <feGaussianBlur
         stdDeviation="0.26998568"
         id="feGaussianBlur13" />
    </filter>
    <linearGradient
       id="a"
       gradientUnits="userSpaceOnUse"
       x1="8"
       y1="0.99929207"
       x2="8"
       y2="15.00002307">
      <stop
         stop-color="#ffffff"
         offset="0"
         id="stop16" />
      <stop
         stop-color="#ffffff"
         offset="1"
         id="stop18" />
    </linearGradient>
  </defs>
  <g
     id="main"
     transform="translate(1,1) scale(0.85714)">
    <path
       style="opacity:0.3;fill:#000000"
       inkscape:connector-curvature="0"
       id="path23"
       d="M 8.2851562,2.0175781 C 6.3347461,1.8653234 4.5482806,2.6707563 3.8925781,4.1757812 c -0.266473,0.6118001 -0.2409456,1.7565163 0.052734,2.3476563 0.5039,1.0142 1.2643781,1.4996094 4.2675781,2.7246094 1.9408008,0.7917001 2.6896878,1.3325711 3.1484378,2.2753911 0.47692,0.980099 0.273373,1.968202 -0.591797,2.882812 -0.6274,0.66327 -1.3153408,0.928269 -2.5566408,0.980469 -1.2839,0.05399 -1.9693831,-0.171228 -2.8144531,-0.923828 -0.82121,-0.7313 -1.1738281,-1.470039 -1.1738281,-2.455079 0,-0.74191 0.00929,-0.766891 0.390625,-1.107421 0.7283,-0.65037 1.877685,-0.700331 2.765625,-0.119141 0.443247,0.2901 0.6931637,0.921664 0.5273437,1.333984 l -0.1132812,0.28125 -0.3144531,-0.30664 c -0.4222001,-0.41132 -0.877405,-0.412656 -1.296875,-0.0039 -0.3563,0.34719 -0.3815126,0.531146 -0.1328126,0.941406 0.21351,0.35214 0.5526432,0.517578 1.0644532,0.517578 0.50741,0 1.0351093,-0.537374 1.2558594,-1.277344 0.2714,-0.9099 -0.1055282,-1.64821 -1.1113282,-2.18164 -1.4414,-0.7644005 -3.0395294,-0.2907443 -3.9121094,1.160156 -0.36609,0.6087 -0.4608756,1.904354 -0.1972656,2.677734 0.09525,0.27944 0.2093673,0.787073 0.2539063,1.126953 l 0.080078,0.617188 0.7539062,-0.0332 c 0.4549601,-0.0199 0.982335,0.0299 1.328125,0.125 0.3151601,0.08665 0.715185,0.178878 0.890625,0.205078 0.6571,0.09832 2.8749238,-0.02398 3.4023438,-0.1875 2.4413805,-0.757 3.5907265,-2.670538 2.9785165,-4.960938 C 12.383591,9.1166063 11.622478,8.4854188 8.7050781,7.3867188 5.7512781,6.2742187 4.9925069,5.5868063 5.2480469,4.2539062 c 0.1889,-0.9853299 1.1050406,-1.5819374 2.4316406,-1.5859374 0.65899,-0.00182 0.9102331,0.048999 1.4394531,0.2929687 0.69049,0.31828 1.2327474,0.7832731 1.4980474,1.2832031 0.12571,0.2368 0.158469,0.5510532 0.130859,1.2832032 -0.02012,0.53331 -0.01362,0.9735156 0.01563,0.9785156 0.23757,0.04223 0.6953,-0.1987038 1,-0.5273438 0.46171,-0.4979 0.581459,-1.1298081 0.380859,-2.0175781 -0.07736,-0.34235 -0.132693,-0.7987519 -0.121093,-1.0136719 0.02606,-0.48255 -0.109875,-0.5478143 -0.833985,-0.3964844 -0.44453,0.0929 -0.610607,0.083466 -0.935547,-0.052734 C 9.6033812,2.2253469 8.935293,2.0683297 8.2851562,2.0175781 Z" />
    <path
       d="M 8.2851562 1.0175781 C 6.3347461 0.86532344 4.5482806 1.6707563 3.8925781 3.1757812 C 3.6261051 3.7875813 3.6516325 4.9322975 3.9453125 5.5234375 C 4.4492125 6.5376375 5.2096906 7.0230469 8.2128906 8.2480469 C 10.153691 9.0397469 10.902578 9.5806175 11.361328 10.523438 C 11.838248 11.503537 11.634701 12.49164 10.769531 13.40625 C 10.142131 14.06952 9.4541906 14.334519 8.2128906 14.386719 C 6.9289906 14.440709 6.2435075 14.215491 5.3984375 13.462891 C 4.5772275 12.731591 4.2246094 11.992852 4.2246094 11.007812 C 4.2246094 10.265902 4.2339044 10.240921 4.6152344 9.9003906 C 5.3435344 9.2500206 6.4929194 9.20006 7.3808594 9.78125 C 7.8241064 10.07135 8.0740231 10.702914 7.9082031 11.115234 L 7.7949219 11.396484 L 7.4804688 11.089844 C 7.0582687 10.678524 6.6030638 10.677188 6.1835938 11.085938 C 5.8272938 11.433128 5.8020812 11.617084 6.0507812 12.027344 C 6.2642912 12.379484 6.6034244 12.544922 7.1152344 12.544922 C 7.6226444 12.544922 8.1503437 12.007548 8.3710938 11.267578 C 8.6424938 10.357678 8.2655656 9.6193675 7.2597656 9.0859375 C 5.8183656 8.3215375 4.2202362 8.7951937 3.3476562 10.246094 C 2.9815662 10.854794 2.8867806 12.150448 3.1503906 12.923828 C 3.2456406 13.203268 3.3597579 13.710901 3.4042969 14.050781 L 3.484375 14.667969 L 4.2382812 14.634766 C 4.6932413 14.614866 5.2206162 14.664666 5.5664062 14.759766 C 5.8815663 14.846416 6.2815912 14.938644 6.4570312 14.964844 C 7.1141312 15.063164 9.331955 14.940864 9.859375 14.777344 C 12.300755 14.020344 13.450101 12.106806 12.837891 9.8164062 C 12.383591 8.1166063 11.622478 7.4854188 8.7050781 6.3867188 C 5.7512781 5.2742187 4.9925069 4.5868063 5.2480469 3.2539062 C 5.4369469 2.2685763 6.3530875 1.6719688 7.6796875 1.6679688 C 8.3386775 1.6661487 8.5899206 1.7169675 9.1191406 1.9609375 C 9.8096306 2.2792175 10.351888 2.7442106 10.617188 3.2441406 C 10.742898 3.4809406 10.775657 3.7951938 10.748047 4.5273438 C 10.727927 5.0606538 10.734422 5.5008594 10.763672 5.5058594 C 11.001242 5.5480894 11.458972 5.3071556 11.763672 4.9785156 C 12.225382 4.4806156 12.345131 3.8487075 12.144531 2.9609375 C 12.067171 2.6185875 12.011838 2.1621856 12.023438 1.9472656 C 12.049498 1.4647156 11.913563 1.3994513 11.189453 1.5507812 C 10.744923 1.6436812 10.578846 1.6342469 10.253906 1.4980469 C 9.6033812 1.2253469 8.935293 1.0683297 8.2851562 1.0175781 z "
       fill="url(#a)"
       id="base" />
  </g>
</svg>
