<?xml version="1.0" encoding="UTF-8" standalone="no"?>
<svg
   xmlns:dc="http://purl.org/dc/elements/1.1/"
   xmlns:cc="http://creativecommons.org/ns#"
   xmlns:rdf="http://www.w3.org/1999/02/22-rdf-syntax-ns#"
   xmlns:svg="http://www.w3.org/2000/svg"
   xmlns="http://www.w3.org/2000/svg"
   xmlns:sodipodi="http://sodipodi.sourceforge.net/DTD/sodipodi-0.dtd"
   xmlns:inkscape="http://www.inkscape.org/namespaces/inkscape"
   id="svg2"
   width="16"
   height="16"
   version="1.0"
   sodipodi:docname="sparkleshare.svg"
   inkscape:version="0.92.2 5c3e80d, 2017-08-06">
  <metadata
     id="metadata31">
    <rdf:RDF>
      <cc:Work
         rdf:about="">
        <dc:format>image/svg+xml</dc:format>
        <dc:type
           rdf:resource="http://purl.org/dc/dcmitype/StillImage" />
      </cc:Work>
    </rdf:RDF>
  </metadata>
  <sodipodi:namedview
     pagecolor="#ffffff"
     bordercolor="#666666"
     borderopacity="1"
     objecttolerance="10"
     gridtolerance="10"
     guidetolerance="10"
     inkscape:pageopacity="0"
     inkscape:pageshadow="2"
     inkscape:window-width="640"
     inkscape:window-height="480"
     id="namedview29"
     showgrid="false"
     inkscape:zoom="14.75"
     inkscape:cx="8"
     inkscape:cy="8"
     inkscape:window-x="0"
     inkscape:window-y="25"
     inkscape:window-maximized="0"
     inkscape:current-layer="svg2" />
  <defs
     id="defs4">
    <linearGradient
       id="linearGradient3204"
       x1="1"
       x2="15"
       y1="9"
       y2="9"
       gradientTransform="translate(-17,-2)"
       gradientUnits="userSpaceOnUse">
      <stop
         id="stop3189"
         stop-color="#fe5f00"
         offset="0" />
      <stop
         id="stop3191"
         stop-color="#ffa100"
         offset="1" />
    </linearGradient>
    <linearGradient
       id="linearGradient3629"
       x2="29.017"
       y1="8"
       y2="8"
       gradientTransform="matrix(0,-1,1,0,0,16)"
       gradientUnits="userSpaceOnUse">
      <stop
         id="stop3330"
         offset="0" />
      <stop
         id="stop3333"
         stop-opacity="0"
         offset="1" />
    </linearGradient>
  </defs>
  <g
     id="layer1">
    <rect
       id="rect3196"
       transform="rotate(-90)"
       x="-16"
       width="16"
       height="16"
       rx="2"
       ry="2"
       fill="url(#linearGradient3204)" />
    <path
       id="rect2835"
       d="m0 14c0 1.108 0.892 2 2 2h12c1.108 0 2-0.892 2-2v-12c0-1.108-0.892-2-2-2h-12c-1.108 0-2 0.892-2 2v12zm0.96875 0v-12c0-0.5832 0.44805-1.0312 1.0312-1.0312h12c0.5832 0 1.0312 0.44805 1.0312 1.0312v12c0 0.5832-0.44805 1.0312-1.0312 1.0312h-12c-0.5832 0-1.0312-0.44805-1.0312-1.0312z"
       fill="url(#linearGradient3629)"
       opacity=".4" />
    <path
       id="path2843"
       d="m2 0.96875c-0.5832 0-1.0312 0.44805-1.0312 1.0312v1c0-0.5832 0.44805-1.0312 1.0312-1.0312h12c0.5832 0 1.0312 0.44805 1.0312 1.0312v-1c0-0.5832-0.44805-1.0312-1.0312-1.0312h-12z"
       fill="#fff"
       opacity=".35" />
  </g>
  <defs
     id="defs21">
    <filter
       id="w">
      <feGaussianBlur
         stdDeviation="0.26998568"
         id="feGaussianBlur13" />
    </filter>
    <linearGradient
       id="a"
       gradientUnits="userSpaceOnUse"
       x1="8"
       y1="0.9993503"
       x2="8"
       y2="15.0000073">
      <stop
         stop-color="#ffffff"
         offset="0"
         id="stop16" />
      <stop
         stop-color="#ffffff"
         offset="1"
         id="stop18" />
    </linearGradient>
  </defs>
  <g
     id="main"
     transform="translate(1,1) scale(0.85714)">
    <path
       inkscape:connector-curvature="0"
       id="path23"
       style="color:#000000;font-variant-ligatures:normal;font-variant-position:normal;font-variant-caps:normal;font-variant-numeric:normal;font-variant-alternates:normal;font-feature-settings:normal;text-indent:0;text-decoration:none;text-decoration-line:none;text-decoration-style:solid;text-decoration-color:#000000;text-transform:none;text-orientation:mixed;dominant-baseline:auto;white-space:normal;shape-padding:0;opacity:0.3;isolation:auto;mix-blend-mode:normal;solid-color:#000000;fill:#000000;color-rendering:auto;image-rendering:auto;shape-rendering:auto"
       dominant-baseline="auto"
       d="M 8.0249,1.99942 C 7.64235,1.9975764 7.43618,2.22483 7.29834,2.39494 7.1605,2.56505 7.06038,2.7473 6.96045,2.95152 6.7606,3.35996 6.57762,3.85548 6.39796,4.35622 6.2183,4.85697 6.04371,5.35962 5.89211,5.74262 5.816306,5.93409 5.74526,6.09756 5.69094,6.20134 5.636624,6.30512 5.56807,6.34624 5.671409,6.268619 5.774748,6.190998 5.714577,6.2458 5.60305,6.2665803 c -0.11153,0.02078 -0.28245,0.040867 -0.48046,0.055047 -0.39602,0.028359 -0.90797,0.040439 -1.4199,0.059124 -0.51194,0.018686 -1.0206,0.042089 -1.4551,0.11009 -0.21725,0.034002 -0.41496,0.074617 -0.61328,0.15699 -0.19832,0.082368 -0.46799,0.21406 -0.58788,0.59328 -0.1199,0.37922 0.022374,0.65464 0.13476,0.84405 0.11239,0.18941 0.24715,0.34534 0.40234,0.50765 0.31037,0.32462 0.70474,0.65978 1.1055,0.99288 0.40072,0.3331 0.80731,0.6608297 1.1094,0.9296797 0.15103,0.13442 0.27574,0.25448 0.35351,0.34047 0.077769,0.08599 0.095422,0.16735 0.05664,0.04078 -0.038782,-0.12658 -0.00791,-0.04782 -0.023437,0.06932 -0.015531,0.11714 -0.051339,0.29038 -0.099608,0.49134 -0.09654,0.40192 -0.24359,0.91516 -0.38476,1.4292 -0.14117,0.51401 -0.27729,1.0257 -0.34961,1.4781 -0.036156,0.22619 -0.058684,0.43618 -0.044921,0.65852 0.013762,0.22234 0.050917,0.53036 0.35937,0.76658 0.30845,0.23621 0.60129,0.17945 0.80859,0.1264 0.2073,-0.05305 0.3901,-0.13871 0.58593,-0.24261 0.39167,-0.20782 0.82072,-0.49616 1.248,-0.79104 0.42732,-0.29489 0.85115,-0.59668 1.1894,-0.81347 0.16914,-0.1084 0.31754,-0.19402 0.41992,-0.24465 0.10238,-0.05063 0.182,-0.04424 0.054687,-0.04485 -0.12731,-6.14e-4 -0.047241,-0.0068 0.054687,0.04485 0.10193,0.05162 0.24979,0.13871 0.41796,0.24873 0.33636,0.22004 0.75889,0.52671 1.1836,0.8257 0.42469,0.29899 0.84845,0.59169 1.2383,0.80327 0.19491,0.10579 0.37911,0.19369 0.58593,0.24873 0.20682,0.05504 0.50001,0.11294 0.81054,-0.12029 0.31053,-0.23323 0.3495,-0.5403 0.36523,-0.7625 0.01573,-0.22219 -0.0069,-0.43199 -0.04101,-0.65852 -0.06831,-0.45306 -0.19931,-0.96683 -0.33593,-1.4822 -0.13662,-0.51535 -0.28006,-1.0304 -0.37304,-1.4333 -0.04649,-0.20142 -0.07926,-0.3761 -0.09375,-0.49338 -0.01449,-0.11729 0.01646,-0.19348 -0.02344,-0.06728 -0.0399,0.126201 -0.01993,0.04446 0.05859,-0.04078 0.07853,-0.08524 0.20326,-0.20343 0.35547,-0.3364 0.30442,-0.26593 0.71353,-0.59026 1.1172,-0.91948 0.40365,-0.32923 0.80199,-0.66107 1.1152,-0.98269 0.15662,-0.16081 0.29218,-0.31526 0.40624,-0.50358 0.11406,-0.18832 0.25911,-0.46165 0.14258,-0.84201 -0.11654,-0.38036 -0.3864,-0.51512 -0.58398,-0.5994 -0.19758,-0.084276 -0.39438,-0.12701 -0.61132,-0.1631 -0.43389,-0.072189 -0.94136,-0.10075 -1.4531,-0.12436 -0.51174,-0.02361 -1.0242,-0.039182 -1.4199,-0.071357 -0.19788,-0.016087 -0.36717,-0.03727 -0.47851,-0.059124 -0.11134,-0.021854 -0.17296,-0.078609 -0.07031,0 0.10265,0.078609 0.03387,0.03702 -0.01953,-0.067279 -0.0534,-0.1043 -0.12316,-0.26856 -0.19727,-0.46076 C 9.974368,5.37856 9.805618,4.87294 9.630398,4.37045 9.455178,3.86799 9.275848,3.37201 9.079618,2.96165 8.981504,2.75647 8.883918,2.57242 8.747588,2.40099 8.611258,2.22956 8.407488,2.0012 8.024938,1.99935 Z m -0.00781,1.7105 c 0.135,0.30496 0.28248,0.68341 0.43164,1.1111 0.17101,0.49038 0.34123,1.0012 0.50781,1.4333 0.083287,0.216 0.16392,0.41139 0.2539,0.58716 0.089988,0.17577 0.15684,0.33515 0.38476,0.50969 0.22792,0.17454 0.39439,0.19355 0.58202,0.23038 0.18764,0.03683 0.39089,0.059393 0.61328,0.077473 0.44477,0.03616 0.96147,0.050344 1.4609,0.073396 0.437,0.020169 0.82888,0.05272 1.1484,0.095822 -0.23631,0.22875 -0.53594,0.49137 -0.88085,0.77269 -0.39394,0.32131 -0.80825,0.64916 -1.1504,0.94803 -0.17106,0.14943 -0.32469,0.2906 -0.45703,0.43426 -0.13234,0.14365 -0.25515,0.25802 -0.34375,0.53823 -0.08859,0.28021 -0.05568,0.45067 -0.03125,0.64833 0.02443,0.19766 0.06689,0.40565 0.11914,0.63202 0.1045,0.45273 0.25142,0.9731 0.38476,1.4761 0.11643,0.43919 0.20608,0.83588 0.26562,1.1662 -0.28118,-0.1639 -0.61242,-0.37907 -0.9746,-0.63406 -0.41448,-0.2918 -0.84072,-0.60083 -1.2187,-0.84813 -0.18901,-0.12365 -0.36533,-0.2331 -0.5371,-0.32009 -0.17178,-0.08699 -0.31497,-0.17397 -0.59765,-0.17533 -0.28268,-0.0014 -0.42706,0.08592 -0.5996,0.17126 -0.17254,0.08533 -0.34896,0.19011 -0.53906,0.31193 -0.38019,0.24364 -0.80755,0.55014 -1.2246,0.83793 -0.36481,0.25175 -0.69965,0.46471 -0.98241,0.6259 0.062407,-0.32993 0.15682,-0.72736 0.27734,-1.1662 0.13778,-0.50165 0.28798,-1.0182 0.39648,-1.47 0.054249,-0.22585 0.098824,-0.4346 0.125,-0.63202 0.026174,-0.19742 0.060721,-0.36727 -0.02539,-0.64833 C 5.319639,10.215911 5.19697,10.099571 5.06591,9.954651 4.93485,9.809731 4.78252,9.667391 4.61279,9.516321 4.27332,9.214171 3.86326,8.883191 3.47219,8.558101 3.13014,8.273771 2.83338,8.008141 2.59915,7.777251 2.91888,7.737354 3.30918,7.707553 3.74565,7.691623 4.24528,7.673387 4.76345,7.662331 5.20855,7.63046 5.43109,7.614524 5.63582,7.594123 5.82378,7.559103 6.01173,7.524083 6.17635,7.507178 6.40581,7.334843 c 0.22946,-0.17234 0.29713,-0.33072 0.38867,-0.50561 0.09154,-0.17489 0.17457,-0.36993 0.25976,-0.58513 0.17039,-0.43038 0.34614,-0.93842 0.52148,-1.4271 0.15306,-0.42661 0.30362,-0.80333 0.4414,-1.1071 z" />
    <path
       d="m8.0249 0.99942c-0.38255-0.0018436-0.58872 0.22541-0.72656 0.39552-0.13784 0.17011-0.23796 0.35236-0.33789 0.55658-0.19985 0.40844-0.38283 0.90396-0.56249 1.4047-0.17966 0.50075-0.35425 1.0034-0.50585 1.3864-0.075804 0.19147-0.14685 0.35494-0.20117 0.45872-0.054316 0.10378-0.12287 0.1449-0.019531 0.067279s0.043168-0.022819-0.068359-0.0020387c-0.11153 0.02078-0.28245 0.040867-0.48046 0.055047-0.39602 0.028359-0.90797 0.040439-1.4199 0.059124-0.51194 0.018686-1.0206 0.042089-1.4551 0.11009-0.21725 0.034002-0.41496 0.074617-0.61328 0.15699-0.19832 0.082368-0.46799 0.21406-0.58788 0.59328-0.1199 0.37922 0.022374 0.65464 0.13476 0.84405 0.11239 0.18941 0.24715 0.34534 0.40234 0.50765 0.31037 0.32462 0.70474 0.65978 1.1055 0.99288 0.40072 0.3331 0.80731 0.66083 1.1094 0.92968 0.15103 0.13442 0.27574 0.25448 0.35351 0.34047 0.077769 0.085994 0.095422 0.16735 0.05664 0.040775-0.038782-0.12658-0.00791-0.047824-0.023437 0.069318-0.015531 0.11714-0.051339 0.29038-0.099608 0.49134-0.09654 0.40192-0.24359 0.91516-0.38476 1.4292-0.14117 0.51401-0.27729 1.0257-0.34961 1.4781-0.036156 0.22619-0.058684 0.43618-0.044921 0.65852 0.013762 0.22234 0.050917 0.53036 0.35937 0.76658 0.30845 0.23621 0.60129 0.17945 0.80859 0.1264 0.2073-0.05305 0.3901-0.13871 0.58593-0.24261 0.39167-0.20782 0.82072-0.49616 1.248-0.79104 0.42732-0.29489 0.85115-0.59668 1.1894-0.81347 0.16914-0.1084 0.31754-0.19402 0.41992-0.24465 0.10238-0.05063 0.182-0.04424 0.054687-0.04485-0.12731-6.14e-4 -0.047241-0.0068 0.054687 0.04485 0.10193 0.05162 0.24979 0.13871 0.41796 0.24873 0.33636 0.22004 0.75889 0.52671 1.1836 0.8257 0.42469 0.29899 0.84845 0.59169 1.2383 0.80327 0.19491 0.10579 0.37911 0.19369 0.58593 0.24873 0.20682 0.05504 0.50001 0.11294 0.81054-0.12029s0.3495-0.5403 0.36523-0.7625c0.01573-0.22219-0.0069-0.43199-0.04101-0.65852-0.06831-0.45306-0.19931-0.96683-0.33593-1.4822-0.13662-0.51535-0.28006-1.0304-0.37304-1.4333-0.04649-0.20142-0.07926-0.3761-0.09375-0.49338-0.01449-0.11729 0.01646-0.19348-0.02344-0.067279s-0.01993 0.044465 0.05859-0.040775c0.07853-0.08524 0.20326-0.20343 0.35547-0.3364 0.30442-0.26593 0.71353-0.59026 1.1172-0.91948 0.40365-0.32923 0.80199-0.66107 1.1152-0.98269 0.15662-0.16081 0.29218-0.31526 0.40624-0.50358 0.11406-0.18832 0.25911-0.46165 0.14258-0.84201-0.11654-0.38036-0.3864-0.51512-0.58398-0.5994-0.19758-0.084276-0.39438-0.12701-0.61132-0.1631-0.43389-0.072189-0.94136-0.10075-1.4531-0.12436s-1.0242-0.039182-1.4199-0.071357c-0.19788-0.016087-0.36717-0.03727-0.47851-0.059124-0.11134-0.021854-0.17296-0.078609-0.07031 0 0.10265 0.078609 0.03387 0.03702-0.01953-0.067279-0.0534-0.1043-0.12316-0.26856-0.19727-0.46076-0.14821-0.38439-0.31696-0.89001-0.49218-1.3925-0.17522-0.50246-0.35455-0.99844-0.55078-1.4088-0.098114-0.20518-0.1957-0.38923-0.33203-0.56066-0.13633-0.17143-0.3401-0.39979-0.72265-0.40164zm-0.00781 1.7105c0.135 0.30496 0.28248 0.68341 0.43164 1.1111 0.17101 0.49038 0.34123 1.0012 0.50781 1.4333 0.083287 0.216 0.16392 0.41139 0.2539 0.58716 0.089988 0.17577 0.15684 0.33515 0.38476 0.50969s0.39439 0.19355 0.58202 0.23038c0.18764 0.03683 0.39089 0.059393 0.61328 0.077473 0.44477 0.03616 0.96147 0.050344 1.4609 0.073396 0.437 0.020169 0.82888 0.05272 1.1484 0.095822-0.23631 0.22875-0.53594 0.49137-0.88085 0.77269-0.39394 0.32131-0.80825 0.64916-1.1504 0.94803-0.17106 0.14943-0.32469 0.2906-0.45703 0.43426-0.13234 0.14365-0.25515 0.25802-0.34375 0.53823-0.08859 0.28021-0.05568 0.45067-0.03125 0.64833 0.02443 0.19766 0.06689 0.40565 0.11914 0.63202 0.1045 0.45273 0.25142 0.9731 0.38476 1.4761 0.11643 0.43919 0.20608 0.83588 0.26562 1.1662-0.28118-0.1639-0.61242-0.37907-0.9746-0.63406-0.41448-0.2918-0.84072-0.60083-1.2187-0.84813-0.18901-0.12365-0.36533-0.2331-0.5371-0.32009-0.17178-0.08699-0.31497-0.17397-0.59765-0.17533-0.28268-0.0014-0.42706 0.08592-0.5996 0.17126-0.17254 0.08533-0.34896 0.19011-0.53906 0.31193-0.38019 0.24364-0.80755 0.55014-1.2246 0.83793-0.36481 0.25175-0.69965 0.46471-0.98241 0.6259 0.062407-0.32993 0.15682-0.72736 0.27734-1.1662 0.13778-0.50165 0.28798-1.0182 0.39648-1.47 0.054249-0.22585 0.098824-0.4346 0.125-0.63202 0.026174-0.19742 0.060721-0.36727-0.02539-0.64833-0.086111-0.28105-0.20878-0.39739-0.33984-0.54231-0.13106-0.14492-0.28339-0.28726-0.45312-0.43833-0.33947-0.30215-0.74953-0.63313-1.1406-0.95822-0.34205-0.28433-0.63881-0.54996-0.87304-0.78085 0.31973-0.039897 0.71003-0.069698 1.1465-0.085628 0.49963-0.018236 1.0178-0.029292 1.4629-0.061163 0.22254-0.015936 0.42727-0.036337 0.61523-0.071357 0.18795-0.03502 0.35257-0.051925 0.58203-0.22426 0.22946-0.17234 0.29713-0.33072 0.38867-0.50561s0.17457-0.36993 0.25976-0.58513c0.17039-0.43038 0.34614-0.93842 0.52148-1.4271 0.15306-0.42661 0.30362-0.80333 0.4414-1.1071z"
       color="#000000"
       color-rendering="auto"
       dominant-baseline="auto"
       fill="url(#a)"
       image-rendering="auto"
       shape-rendering="auto"
       solid-color="#000000"
       style="font-feature-settings:normal;font-variant-alternates:normal;font-variant-caps:normal;font-variant-ligatures:normal;font-variant-numeric:normal;font-variant-position:normal;isolation:auto;mix-blend-mode:normal;shape-padding:0;text-decoration-color:#000000;text-decoration-line:none;text-decoration-style:solid;text-indent:0;text-orientation:mixed;text-transform:none;white-space:normal"
       id="base" />
  </g>
</svg>
