<?xml version="1.0" encoding="UTF-8" standalone="no"?>
<svg
   xmlns:dc="http://purl.org/dc/elements/1.1/"
   xmlns:cc="http://creativecommons.org/ns#"
   xmlns:rdf="http://www.w3.org/1999/02/22-rdf-syntax-ns#"
   xmlns:svg="http://www.w3.org/2000/svg"
   xmlns="http://www.w3.org/2000/svg"
   xmlns:sodipodi="http://sodipodi.sourceforge.net/DTD/sodipodi-0.dtd"
   xmlns:inkscape="http://www.inkscape.org/namespaces/inkscape"
   id="svg2"
   width="16"
   height="16"
   version="1.0"
   sodipodi:docname="syncthing.svg"
   inkscape:version="0.92.2 5c3e80d, 2017-08-06">
  <metadata
     id="metadata31">
    <rdf:RDF>
      <cc:Work
         rdf:about="">
        <dc:format>image/svg+xml</dc:format>
        <dc:type
           rdf:resource="http://purl.org/dc/dcmitype/StillImage" />
      </cc:Work>
    </rdf:RDF>
  </metadata>
  <sodipodi:namedview
     pagecolor="#ffffff"
     bordercolor="#666666"
     borderopacity="1"
     objecttolerance="10"
     gridtolerance="10"
     guidetolerance="10"
     inkscape:pageopacity="0"
     inkscape:pageshadow="2"
     inkscape:window-width="640"
     inkscape:window-height="480"
     id="namedview29"
     showgrid="false"
     inkscape:zoom="14.75"
     inkscape:cx="8"
     inkscape:cy="8"
     inkscape:window-x="0"
     inkscape:window-y="25"
     inkscape:window-maximized="0"
     inkscape:current-layer="svg2" />
  <defs
     id="defs4">
    <linearGradient
       id="linearGradient3204"
       x1="1"
       x2="15"
       y1="9"
       y2="9"
       gradientTransform="translate(-17,-2)"
       gradientUnits="userSpaceOnUse">
      <stop
         id="stop3189"
         stop-color="#0882c8"
         offset="0" />
      <stop
         id="stop3191"
         stop-color="#26b6db"
         offset="1" />
    </linearGradient>
    <linearGradient
       id="linearGradient3629"
       x2="29.017"
       y1="8"
       y2="8"
       gradientTransform="matrix(0,-1,1,0,0,16)"
       gradientUnits="userSpaceOnUse">
      <stop
         id="stop3330"
         offset="0" />
      <stop
         id="stop3333"
         stop-opacity="0"
         offset="1" />
    </linearGradient>
  </defs>
  <g
     id="layer1">
    <rect
       id="rect3196"
       transform="rotate(-90)"
       x="-16"
       width="16"
       height="16"
       rx="2"
       ry="2"
       fill="url(#linearGradient3204)" />
    <path
       id="rect2835"
       d="m0 14c0 1.108 0.892 2 2 2h12c1.108 0 2-0.892 2-2v-12c0-1.108-0.892-2-2-2h-12c-1.108 0-2 0.892-2 2v12zm0.96875 0v-12c0-0.5832 0.44805-1.0312 1.0312-1.0312h12c0.5832 0 1.0312 0.44805 1.0312 1.0312v12c0 0.5832-0.44805 1.0312-1.0312 1.0312h-12c-0.5832 0-1.0312-0.44805-1.0312-1.0312z"
       fill="url(#linearGradient3629)"
       opacity=".4" />
    <path
       id="path2843"
       d="m2 0.96875c-0.5832 0-1.0312 0.44805-1.0312 1.0312v1c0-0.5832 0.44805-1.0312 1.0312-1.0312h12c0.5832 0 1.0312 0.44805 1.0312 1.0312v-1c0-0.5832-0.44805-1.0312-1.0312-1.0312h-12z"
       fill="#fff"
       opacity=".35" />
  </g>
  <defs
     id="defs21">
    <filter
       id="w">
      <feGaussianBlur
         stdDeviation="0.26998568"
         id="feGaussianBlur13" />
    </filter>
    <linearGradient
       id="a"
       gradientUnits="userSpaceOnUse"
       x1="8"
       y1="0.99993"
       x2="8"
       y2="13.99995">
      <stop
         stop-color="#ffffff"
         offset="0"
         id="stop16" />
      <stop
         stop-color="#ffffff"
         offset="1"
         id="stop18" />
    </linearGradient>
  </defs>
  <g
     id="main"
     transform="translate(1,1) scale(0.85714)">
    <path
       style="opacity:0.3;fill:#000000"
       inkscape:connector-curvature="0"
       id="path23"
       d="M 8.2247,2 C 4.5875,2 1.6301,4.915 1.6301,8.5 c 0,0.13592 0.013755,0.26876 0.022045,0.40262 -0.18748,0.10368 -0.35474,0.24931 -0.47288,0.44434 -0.35909,0.59448 -0.16195,1.3651 0.44161,1.7193 0.19804,0.11658 0.41594,0.16722 0.63113,0.17049 1.0505,2.2187 3.3285,3.7632 5.9727,3.7632 1.169,0 2.2652,-0.3047 3.2182,-0.83245 0.17524,0.12006 0.37965,0.20285 0.60721,0.22307 0.69965,0.06175 1.3194,-0.4478 1.3818,-1.1371 0.02026,-0.22307 -0.02647,-0.43524 -0.11408,-0.6257 0.9385,-1.1231 1.5015,-2.5622 1.5015,-4.1278 0,-0.60098 -0.08922,-1.1811 -0.24472,-1.7338 0.15532,-0.13734 0.28198,-0.31056 0.35512,-0.51869 0.22964,-0.65382 -0.12222,-1.3681 -0.78569,-1.5942 -0.21614,-0.073822 -0.43784,-0.082272 -0.64769,-0.04355 -1.2039,-1.5812 -3.1155,-2.6098 -5.2716,-2.6098 z m 0,0.83608 c 1.8485,0 3.487,0.85841 4.5375,2.1909 -0.10012,0.11569 -0.18389,0.24841 -0.23737,0.40081 -0.09966,0.28427 -0.083,0.57782 0.0147,0.8397 l -2.4196,1.9859 C 9.71801,8.01959 9.20242,8.00819 8.78403,8.275118 8.50391,8.453948 8.32286,8.724858 8.24675,9.020518 l -4.819,0.44252 C 3.32398,9.240858 3.15298,9.046318 2.92359,8.911698 2.7866,8.831284 2.6395,8.783078 2.49118,8.757538 2.48741,8.671645 2.478273,8.586908 2.478273,8.500008 c 0,-3.1334 2.5674,-5.6639 5.7464,-5.6639 z m 4.8503,4.0788 c 0.07367,0.043365 0.15305,0.078278 0.23736,0.107 0.15674,0.053486 0.31669,0.0741 0.47288,0.067136 0.11731,0.45171 0.18585,0.92271 0.18585,1.411 0,1.3325 -0.46733,2.554 -1.2457,3.5202 -0.13675,-0.06658 -0.28613,-0.11269 -0.44712,-0.12696 -0.1559,-0.01374 -0.30643,0.0046 -0.44897,0.04355 l -1.323,-1.8789 c 0.24344,-0.33463 0.30647,-0.77134 0.15823,-1.1643 z m -4.7491,2.9381 c 0.024871,0.052836 0.047952,0.10569 0.080926,0.15597 0.30805,0.46947 0.88025,0.66194 1.4003,0.52232 l 1.3285,1.8843 c -0.12827,0.17603 -0.21644,0.38327 -0.23736,0.61482 -0.0146,0.16004 0.0047,0.31513 0.04786,0.46066 -0.80968,0.42899 -1.736,0.67285 -2.7214,0.67285 -2.2786,0 -4.2368,-1.3035 -5.1668,-3.1938 0.11857,-0.0923 0.2254,-0.2036 0.30728,-0.33915 0.064722,-0.107 0.1048,-0.22065 0.13432,-0.33552 z" />
    <path
       d="m8.2247 1c-3.6372 0-6.5946 2.915-6.5946 6.5 0 0.13592 0.013755 0.26876 0.022045 0.40262-0.18748 0.10368-0.35474 0.24931-0.47288 0.44434-0.35909 0.59448-0.16195 1.3651 0.44161 1.7193 0.19804 0.11658 0.41594 0.16722 0.63113 0.17049 1.0505 2.2187 3.3285 3.7632 5.9727 3.7632 1.169 0 2.2652-0.3047 3.2182-0.83245 0.17524 0.12006 0.37965 0.20285 0.60721 0.22307 0.69965 0.06175 1.3194-0.4478 1.3818-1.1371 0.02026-0.22307-0.02647-0.43524-0.11408-0.6257 0.9385-1.1231 1.5015-2.5622 1.5015-4.1278 0-0.60098-0.08922-1.1811-0.24472-1.7338 0.15532-0.13734 0.28198-0.31056 0.35512-0.51869 0.22964-0.65382-0.12222-1.3681-0.78569-1.5942-0.21614-0.073822-0.43784-0.082272-0.64769-0.04355-1.2039-1.5812-3.1155-2.6098-5.2716-2.6098zm0 0.83608c1.8485 0 3.487 0.85841 4.5375 2.1909-0.10012 0.11569-0.18389 0.24841-0.23737 0.40081-0.09966 0.28427-0.083 0.57782 0.0147 0.8397l-2.4196 1.9859c-0.40192-0.2338-0.91751-0.2452-1.3359 0.021728-0.28012 0.17883-0.46117 0.44974-0.53728 0.7454l-4.819 0.44252c-0.10377-0.22218-0.27477-0.41672-0.50416-0.55134-0.13699-0.080414-0.28409-0.12862-0.43241-0.15416-0.00377-0.085893-0.012907-0.17063-0.012907-0.25753 0-3.1334 2.5674-5.6639 5.7464-5.6639zm4.8503 4.0788c0.07367 0.043365 0.15305 0.078278 0.23736 0.107 0.15674 0.053486 0.31669 0.0741 0.47288 0.067136 0.11731 0.45171 0.18585 0.92271 0.18585 1.411 0 1.3325-0.46733 2.554-1.2457 3.5202-0.13675-0.06658-0.28613-0.11269-0.44712-0.12696-0.1559-0.01374-0.30643 0.0046-0.44897 0.04355l-1.323-1.8789c0.24344-0.33463 0.30647-0.77134 0.15823-1.1643zm-4.7491 2.9381c0.024871 0.052836 0.047952 0.10569 0.080926 0.15597 0.30805 0.46947 0.88025 0.66194 1.4003 0.52232l1.3285 1.8843c-0.12827 0.17603-0.21644 0.38327-0.23736 0.61482-0.0146 0.16004 0.0047 0.31513 0.04786 0.46066-0.80968 0.42899-1.736 0.67285-2.7214 0.67285-2.2786 0-4.2368-1.3035-5.1668-3.1938 0.11857-0.0923 0.2254-0.2036 0.30728-0.33915 0.064722-0.107 0.1048-0.22065 0.13432-0.33552z"
       fill="url(#a)"
       id="base" />
  </g>
</svg>
