
<svg width="22" height="22" version="1.1" xmlns="http://www.w3.org/2000/svg">
	<path d="m8 4-4 4h-2.5c-0.277 0-0.5 0.223-0.5 0.5v5c0 0.277 0.223 0.5 0.5 0.5h2.5l4 4v-14zm3.375 2.6562-1.75 1.2188c0.74774 0.7462 1.25 1.7672 1.25 2.9062 0 1.1226-0.48993 2.1002-1.2188 2.8438l1.75 1.2188c0.94962-1.0891 1.5312-2.5052 1.5312-4.0625 0-1.5721-0.59658-3.032-1.5625-4.125z" fill="#bebebe"/>
	<path opacity=".45" fill="#bebebe" d="m17.75 2.2812l-1.688 1.1563c1.88 1.863 3.032 4.4889 3.032 7.3435 0 2.838-1.14 5.421-3 7.281l1.687 1.157c2.087-2.214 3.407-5.157 3.407-8.438 0-3.2958-1.333-6.2826-3.438-8.4998zm-3.188 2.1876l-1.687 1.1562-0.031 0.0312c1.325 1.309 2.156 3.1172 2.156 5.1248 0 1.992-0.819 3.756-2.125 5.063l0.031 0.031 1.719 1.156c1.506-1.651 2.437-3.841 2.437-6.25 0-2.4326-0.966-4.6572-2.5-6.3122z"/>
</svg>
