
<svg width="22" height="22" version="1.1" xmlns="http://www.w3.org/2000/svg">
 <path fill="#bebebe" d="m10.375 8.0625c-0.7177 0.592-1.4501 0.9094-2.1875 0.9687-0.0195-0.004-0.0426 0.001-0.0625 0-0.8485-0.055-1.73 0.0653-2.375 0.6563-0.4384 0.4015-0.6528 0.9135-0.7188 1.4375-0.0154 0.123-0.0364 0.251-0.0312 0.375-0.001 0.0309 0 0.06295 0 0.09375 0.008 0.093 0.01185 0.18941 0.03125 0.28125 0.066 0.5236 0.28039 1.0358 0.71875 1.4375 0.645 0.59095 1.5735 0.64913 2.375 0.625 0.0214-0.00065 0.0411-0.002 0.0625 0 0.73741 0.05931 1.4698 0.40797 2.1875 1a4.5 4.5 0.78778 0 0 0.90625 -1.0312c-0.77616-0.77274-1.25-1.5657-1.25-2.4062 0-0.88192 0.12801-1.4339 1.2188-2.4688a4.5 4.5 0.78778 0 0 -0.562 -0.7195 4.5 4.5 0.78778 0 0 -0.313 -0.25z"/>
 <path opacity=".45" fill="#bebebe" d="m14.375 3c-0.676 0-1.445 0.1942-1.906 0.7188-1.415 1.6073-0.258 2.7029-1.844 4.1562-0.079 0.0727-0.17 0.1217-0.25 0.1875a4.5 4.5 0.013749 0 1 0.313 0.25 4.5 4.5 0.013749 0 1 0.562 0.7187c0.048-0.0459 0.073-0.0769 0.125-0.125 1.234-1.1304 3.232-0.3044 4.844-1.7812 1.032-0.9455 1.032-2.4607 0-3.4062-0.516-0.4728-1.168-0.7188-1.844-0.7188zm-4.375 5.3438c-0.2008 0.1389-0.391 0.2466-0.5938 0.3437 0.1963-0.0945 0.3993-0.2101 0.5938-0.3437zm0.25 1.9372c-0.094 0.201-0.157 0.39-0.188 0.594 0.029-0.196 0.098-0.4 0.188-0.594zm1.031 3.657a4.5 4.5 0.013749 0 1 -0.906 1c0.08 0.065 0.171 0.114 0.25 0.187 1.586 1.453 0.32 2.611 1.844 4.156 0.982 0.996 2.718 0.946 3.75 0 1.032-0.945 1.032-2.492 0-3.437-1.612-1.477-3.167-0.297-4.719-1.719-0.074-0.068-0.149-0.119-0.219-0.187zm-1.6248 0.5c0.1172 0.066 0.2273 0.138 0.3438 0.218-0.1142-0.08-0.2289-0.151-0.3438-0.218z"/>
</svg>
