
<svg width="22" height="22" version="1.1" xmlns="http://www.w3.org/2000/svg">
	<path d="M 3.5,5 C 2.669,5 2,5.669 2,6.5 l 0,9 C 2,16.331 2.669,17 3.5,17 l 15,0 c 0.831,0 1.5,-0.669 1.5,-1.5 l 0,-9 C 20,5.669 19.331,5 18.5,5 l -15,0 z m 0,1.03125 0.53125,0 6.9375,6.9375 6.9375,-6.9375 0.59375,0 c 0.262593,0 0.441967,0.159457 0.46875,0.40625 l -8,7.96875 L 3.03125,6.4375 C 3.05803,6.190707 3.237407,6.03125 3.5,6.03125 z m 11.65625,5.8125 3.78125,3.78125 c -0.04947,0.206734 -0.200008,0.34375 -0.4375,0.34375 l -0.65625,0 -3.40625,-3.40625 0.71875,-0.71875 z M 6.75,11.90625 7.46875,12.625 l -3.375,3.34375 -0.59375,0 c -0.249077,0 -0.397701,-0.150076 -0.4375,-0.375 L 6.75,11.90625 z" fill="#bebebe" opacity=".45"/>

</svg>
