
<svg width="22" height="22" version="1.1" xmlns="http://www.w3.org/2000/svg">
	<path d="M 10 2 C 10 2 9.753978 2.8114999 8.71875 3.53125 C 7.6624479 4.2656521 5.0668681 5.2286434 5.03125 9.09375 C 6.0589885 6.1147467 8.1722551 5.4240791 10 6 L 10 16.5 L 10 17 L 10.03125 17 C 10.271341 18.699001 11.734735 20 13.5 20 C 15.432997 20 17 18.432997 17 16.5 C 17 14.567003 15.432997 13 13.5 13 C 12.517465 13 11.635691 13.410505 11 14.0625 L 11 2 L 10 2 z " fill="#bebebe"/>
	<path d="M 13.5 11 L 13.5 12 C 15.985281 12 18 14.014719 18 16.5 C 18 18.985281 15.985281 21 13.5 21 C 11.014719 21 9 18.985281 9 16.5 L 8 16.5 C 8 19.537566 10.462434 22 13.5 22 C 16.537566 22 19 19.537566 19 16.5 C 19 13.462434 16.537566 11 13.5 11 z " fill="#bebebe" opacity=".45"/>

</svg>
