
<svg width="22" height="22" version="1.1" xmlns="http://www.w3.org/2000/svg">
	<path fill="#bebebe" d="m4 13c-0.554 0-1 0.3-1 0.688v3.624c0 0.388 0.446 0.688 1 0.688h1c0.554 0 1-0.3 1-0.688v-3.624c0-0.388-0.446-0.688-1-0.688h-1zm12.5 0c-0.277 0-0.5 0.223-0.5 0.5v2.5h-0.5c-0.277 0-0.5 0.223-0.5 0.5v4c0 0.277 0.223 0.5 0.5 0.5h5c0.277 0 0.5-0.223 0.5-0.5v-4c0-0.277-0.223-0.5-0.5-0.5h-0.5v-2.5c0-0.277-0.223-0.5-0.5-0.5h-3zm0.5 1h2v2h-2v-2z"/>
	<path opacity=".45" fill="#bebebe" d="m16 4c-0.554 0-1 0.446-1 1v8.5c0-0.814 0.686-1.5 1.5-1.5h1.5v-7c0-0.554-0.446-1-1-1h-1zm-4 3c-0.554 0-1 0.4231-1 0.9375v9.1245c0 0.516 0.446 0.938 1 0.938h1c0.554 0 1-0.422 1-0.938v-0.562-8.5625c0-0.5144-0.446-0.9375-1-0.9375h-1zm-4 3c-0.554 0-1 0.382-1 0.844v6.312c0 0.462 0.446 0.844 1 0.844h1c0.554 0 1-0.382 1-0.844v-6.312c0-0.462-0.446-0.844-1-0.844h-1z"/>
</svg>
