
<svg width="22" height="22" version="1.1" xmlns="http://www.w3.org/2000/svg">
	<path fill="#bebebe" d="m5 18c-0.554 0-1-0.3-1-0.688v-3.625c0-0.387 0.446-0.687 1-0.687h1c0.554 0 1 0.2997 1 0.6875v3.625c0 0.387-0.446 0.687-1 0.687h-1z"/>
	<path opacity=".45" d="m17 4c-0.554 0-1 0.446-1 1v12c0 0.554 0.446 1 1 1h1c0.554 0 1-0.446 1-1v-12c0-0.554-0.446-1-1-1h-1zm-4 3c-0.554 0-1 0.4231-1 0.9375v9.1245c0 0.515 0.446 0.938 1 0.938h1c0.554 0 1-0.423 1-0.938v-9.1245c0-0.5144-0.446-0.9375-1-0.9375h-1zm-4 3c-0.554 0-1 0.382-1 0.844v6.312c0 0.462 0.446 0.844 1 0.844h1c0.554 0 1-0.382 1-0.844v-6.312c0-0.462-0.446-0.844-1-0.844h-1z" fill="#bebebe"/>
</svg>
