
<svg width="22" height="22" version="1.1" xmlns="http://www.w3.org/2000/svg">
	<path fill="#d40000" d="m14.165 15.953 1.7177-1.7177 1.6913 1.6649 1.6649-1.6649 1.7706 1.7706-1.6649 1.612 1.6649 1.612l-1.771 1.77-1.665-1.665-1.691 1.665-1.718-1.718 1.665-1.665-1.665-1.664z"/>
	<path opacity=".45" d="m19.943 1.0137c-0.264 0-0.528 0.0974-0.726 0.2949l-1.783 1.7676h-2.024c-0.377 0.0085-0.749 0.1708-1.012 0.4414l-2.021 2.0156c-0.519 0.5338-0.519 1.4838 0 2.0176l2.021 2.0156c0.299 0.3101 0.741 0.4766 1.17 0.4416 0.324-0.046 0.63-0.2045 0.854-0.4416l2.023-2.0156c0.272-0.2616 0.433-0.6336 0.442-1.0098v-2.0156-0.0313l1.783-1.7363c0.396-0.395 0.396-1.0542 0-1.4492-0.198-0.1975-0.462-0.2949-0.727-0.2949zm-13.556 11.004c-0.3233 0.045-0.6297 0.204-0.8535 0.441l-2.0234 2.016c-0.2713 0.261-0.4329 0.633-0.4414 1.009v2.016c-0.0002 0.01-0.0002 0.021 0 0.031l-1.7832 1.737c-0.39619 0.395-0.39619 1.054 0 1.449 0.3961 0.395 1.0569 0.395 1.4531 0l1.7832-1.768h2.0215c0.3773-0.008 0.7493-0.171 1.0117-0.441l2.0234-2.016c0.5189-0.534 0.5189-1.484 0-2.017l-2.0234-2.016c-0.2981-0.31-0.7387-0.477-1.168-0.441z" fill="#bebebe"/>
</svg>
