
<svg width="22" height="22" version="1.1" xmlns="http://www.w3.org/2000/svg">
	<path d="M 4.5 1.625 A 1.0001 1.0001 0 0 0 4.03125 1.84375 A 1.0001 1.0001 0 0 0 3.9375 1.9375 C 0.04063345 5.8343665 0.04063345 12.165634 3.9375 16.0625 A 1.0001 1.0001 0 0 0 4.4375 16.34375 A 1.0001 1.0001 0 0 0 4.625 16.34375 A 1.0001 1.0001 0 0 0 4.84375 16.34375 A 1.0001 1.0001 0 0 0 5.125 16.25 A 1.0001 1.0001 0 0 0 5.4375 15.96875 A 1.0001 1.0001 0 0 0 5.625 15.5625 A 1.0001 1.0001 0 0 0 5.4375 14.78125 A 1.0001 1.0001 0 0 0 5.34375 14.65625 C 2.2111793 11.523679 2.2111803 6.4763198 5.34375 3.34375 A 1.0001 1.0001 0 0 0 5.625 2.84375 A 1.0001 1.0001 0 0 0 5.625 2.625 A 1.0001 1.0001 0 0 0 5.625 2.4375 A 1.0001 1.0001 0 0 0 5.625 2.25 A 1.0001 1.0001 0 0 0 5.53125 2.125 A 1.0001 1.0001 0 0 0 5.21875 1.84375 A 1.0001 1.0001 0 0 0 4.84375 1.65625 A 1.0001 1.0001 0 0 0 4.5 1.625 z M 17.21875 1.625 A 1.0001 1.0001 0 0 0 17.15625 1.65625 A 1.0001 1.0001 0 0 0 16.78125 1.84375 A 1.0001 1.0001 0 0 0 16.46875 2.125 A 1.0001 1.0001 0 0 0 16.375 2.25 A 1.0001 1.0001 0 0 0 16.375 2.4375 A 1.0001 1.0001 0 0 0 16.375 2.625 A 1.0001 1.0001 0 0 0 16.375 2.84375 A 1.0001 1.0001 0 0 0 16.65625 3.34375 C 19.78882 6.4763198 19.78882 11.523679 16.65625 14.65625 A 1.0001 1.0001 0 0 0 16.5625 14.78125 A 1.0001 1.0001 0 0 0 16.375 15.5625 A 1.0001 1.0001 0 0 0 16.5625 15.96875 A 1.0001 1.0001 0 0 0 16.875 16.25 A 1.0001 1.0001 0 0 0 17.15625 16.34375 A 1.0001 1.0001 0 0 0 17.375 16.34375 A 1.0001 1.0001 0 0 0 17.5625 16.34375 A 1.0001 1.0001 0 0 0 18.0625 16.0625 C 21.959367 12.165634 21.959367 5.8343665 18.0625 1.9375 A 1.0001 1.0001 0 0 0 17.96875 1.84375 A 1.0001 1.0001 0 0 0 17.21875 1.625 z M 7.46875 4.40625 A 1.0001001 1.0001001 0 0 0 6.75 4.75 C 4.4152288 7.0847712 4.4152288 10.915229 6.75 13.25 A 1.015625 1.015625 0 0 0 8.1875 11.8125 C 6.6170282 10.242028 6.6170275 7.7579726 8.1875 6.1875 A 1.0001001 1.0001001 0 0 0 8.34375 4.90625 A 1.0001001 1.0001001 0 0 0 7.46875 4.40625 z M 14.4375 4.40625 A 1.0001001 1.0001001 0 0 0 13.65625 4.90625 A 1.0001001 1.0001001 0 0 0 13.8125 6.1875 C 15.382972 7.7579726 15.382971 10.242028 13.8125 11.8125 A 1.015625 1.015625 0 1 0 15.25 13.25 C 17.584772 10.915229 17.584772 7.0847712 15.25 4.75 A 1.0001001 1.0001001 0 0 0 14.4375 4.40625 z M 11 7 C 9.8954305 7 9 7.8954305 9 9 C 9 10.104569 9.8954305 11 11 11 C 12.104569 11 13 10.104569 13 9 C 13 7.8954305 12.104569 7 11 7 z M 11 13 C 10.446 13 10 13.446 10 14 L 10 19 C 10 19.554 10.446 20 11 20 C 11.554 20 12 19.554 12 19 L 12 14 C 12 13.446 11.554 13 11 13 z " fill="#bebebe"/>

</svg>
