
<svg width="22" height="22" version="1.1" xmlns="http://www.w3.org/2000/svg">
	<path d="m 11.001421,6.700125 c -2.374755,0 -4.299875,1.915618 -4.299875,4.299875 0,0 -0.0285,0.403904 0.09502,0.859975 l 6.603386,0 c -0.178269,0.497955 -0.498014,0.944718 -0.9322,1.242932 -0.998905,0.788631 -2.511728,0.501867 -3.362638,-0.382957 l -2.04412,0 c 0.663814,1.517945 2.177708,2.579925 3.940432,2.579925 2.374756,0 4.299874,-1.92512 4.299874,-4.299875 0,0 0,-0.441911 -0.08551,-0.859975 l -6.606166,0 c 0.371731,-0.93961 1.259405,-1.701033 2.291029,-1.709873 0.05162,-0.0025 0.103052,-0.0027 0.154526,-0.0017 0.69154,0.01402 1.362564,0.341967 1.829126,0.851576 l 2.057557,0 C 14.27804,7.762114 12.764146,6.700135 11.001421,6.700135 z M 10.023668,1 l 0,2.25037 C 6.822827,3.649305 4.223618,5.984699 3.43534,9.047337 l 2.025124,0 c 0.830527,-2.210654 3.029524,-3.934769 5.432752,-3.918674 0.05827,-0.0015 0.117267,-0.0023 0.175433,-0.0019 0.872515,0.0052 1.730165,0.22183 2.50757,0.610207 1.400265,0.630336 2.44,1.876039 2.948062,3.310374 l 2.04038,0 C 17.776382,5.984699 15.177174,3.649305 11.976333,3.25037 l 0,-2.25037 z M 3.43534,12.952663 c 0.788278,3.062639 3.387487,5.398032 6.588328,5.796967 l 0,2.25037 1.952665,0 0,-2.25037 c 3.200842,-0.398935 5.800049,-2.734328 6.588329,-5.796967 l -2.011778,0 c -0.789376,2.328661 -3.229181,4.003268 -5.695902,3.916767 -2.40168,0.01214 -4.580385,-1.703555 -5.392704,-3.916767 z" fill="#bebebe"/>

</svg>
