
<svg width="22" height="22" version="1.1" xmlns="http://www.w3.org/2000/svg">
	<path d="M 9.90625 3 C 9.591411 3 9.3125 3.2735291 9.3125 3.59375 L 9.3125 4.71875 C 8.749548 4.8687432 8.210912 5.0887631 7.71875 5.375 L 6.9375 4.5625 C 6.711073 4.3360712 6.347624 4.33987 6.125 4.5625 L 4.5625 6.125 C 4.339878 6.3476254 4.3361 6.7110723 4.5625 6.9375 L 5.375 7.71875 C 5.088763 8.2109116 4.868742 8.7495468 4.71875 9.3125 L 3.59375 9.3125 C 3.273533 9.312497 3 9.591411 3 9.90625 L 3 12.09375 C 3 12.408587 3.273533 12.6875 3.59375 12.6875 L 4.71875 12.6875 C 4.868742 13.250451 5.088763 13.789086 5.375 14.28125 L 4.5625 15.0625 C 4.336072 15.288929 4.339848 15.652376 4.5625 15.875 L 6.125 17.4375 C 6.347628 17.660122 6.71107 17.6639 6.9375 17.4375 L 7.71875 16.625 C 8.210913 16.911239 8.749548 17.131257 9.3125 17.28125 L 9.3125 18.40625 C 9.3125 18.726472 9.591413 19 9.90625 19 L 12.09375 19 C 12.40859 19 12.6875 18.72647 12.6875 18.40625 L 12.6875 17.28125 C 13.250452 17.131258 13.789086 16.911238 14.28125 16.625 L 15.0625 17.4375 C 15.175712 17.550711 15.322238 17.59251 15.46875 17.59375 C 15.615262 17.59505 15.763688 17.5488 15.875 17.4375 L 17.4375 15.875 C 17.660123 15.652376 17.663923 15.28893 17.4375 15.0625 L 16.625 14.28125 C 16.91124 13.789088 17.131254 13.250452 17.28125 12.6875 L 18.40625 12.6875 C 18.726474 12.6875 19 12.408588 19 12.09375 L 19 9.90625 C 19 9.591412 18.726471 9.3125 18.40625 9.3125 L 17.28125 9.3125 C 17.131251 8.7495459 16.911237 8.2109116 16.625 7.71875 L 17.4375 6.9375 C 17.663929 6.7110701 17.660141 6.3476242 17.4375 6.125 L 15.875 4.5625 C 15.652377 4.3398757 15.28893 4.3360769 15.0625 4.5625 L 14.28125 5.375 C 13.789086 5.0887631 13.250452 4.8687432 12.6875 4.71875 L 12.6875 3.59375 C 12.6875 3.2735291 12.40859 3 12.09375 3 L 9.90625 3 z M 11 8 C 12.656854 8 14 9.3431458 14 11 C 14 12.656854 12.656854 14 11 14 C 9.3431458 14 8 12.656854 8 11 C 8 9.3431458 9.3431458 8 11 8 z " fill="#bebebe"/>

</svg>
