
<svg width="22" height="22" version="1.1" xmlns="http://www.w3.org/2000/svg">
	<path d="M 5,3 C 4.446,3 4,3.446 4,4 L 4,5 18,5 C 18,4.446 17.554,4 17,4 L 10,4 C 10,3.446 9.554,3 9,3 z M 4.5,6 C 3.669,6 3,6.669 3,7.5 L 3,14 3,15.5 C 3,16.331 3.669,17 4.5,17 L 8,17 8,17.5 C 8,18.331 8.669,19 9.5,19 l 6,0 c 0.831,0 1.5,-0.669 1.5,-1.5 l 0,-0.4375 0.03125,0 0.75,-0.0625 C 18.584769,17.000004 19,16.37896 19,15.5 L 19,14 19,7.5 C 19,6.669 18.331,6 17.5,6 l -1,0 -7,0 z m 6,3 4,0 C 14.777,9 15,9.223 15,9.5 l 0,7 c 0,0.277 -0.223,0.5 -0.5,0.5 l -4,0 C 10.223,17 10,16.777 10,16.5 l 0,-7 C 10,9.223 10.223,9 10.5,9 z" fill="#bebebe"/>

</svg>
