
<svg width="22" height="22" version="1.1" xmlns="http://www.w3.org/2000/svg">
	<path fill="#bebebe" d="m11 2c-2.2091 0-4 1.7909-4 4-1.6569 0-3 1.3431-3 3 0 0.6615 0.1998 1.285 0.5625 1.781 0.8063-1.6696 2.4642-2.8435 4.4375-2.8435 1.7499 0 3.1521 1.0103 4.0625 2.375 0.32027-0.12484 0.56267-0.375 0.9375-0.375 1.2895 0 2.2178 0.91806 2.6562 2.0625h1.344c1.6569 0 3-1.3431 3-3s-1.343-3-3-3c0-1.1046-0.895-2-2-2-0.495 0-0.932 0.2019-1.281 0.5-0.592-1.4693-2.038-2.5-3.719-2.5zm-2 7c-2.2091 0-4 1.7909-4 4-1.6569 0-3 1.3431-3 3s1.3431 3 3 3h11c1.6569 0 3-1.3431 3-3s-1.3431-3-3-3c0-1.1046-0.89543-2-2-2-0.49515 0-0.93197 0.20195-1.2812 0.5-0.592-1.469-2.038-2.5-3.719-2.5z"/>
</svg>
