
<svg width="22" height="22" version="1.1" xmlns="http://www.w3.org/2000/svg">
	<path d="m10 3c-2.2091 0-4 1.7909-4 4-1.6569 0-3 1.3431-3 3 0 1.657 1.3431 3 3 3h4.15l2.258-4.0488-0.053 0.1113c0.038-0.0917 0.082-0.1807 0.133-0.2656a1.0001 1.0001 0 0 1 0.073 -0.1055c0.283-0.3576 0.704-0.6085 1.16-0.6797a1.0001 1.0001 0 0 1 0.025 -0.0039c0.047-0.0062 0.095-0.0093 0.143-0.0117a1.0001 1.0001 0 0 0 0.002 0c0.688-0.0336 1.372 0.3613 1.701 0.9551l2.191 3.9318c1.275-0.346 2.217-1.499 2.217-2.883 0-1.6569-1.343-3-3-3 0-1.1046-0.895-2-2-2-0.495 0-0.932 0.2019-1.281 0.5-0.592-1.4693-2.038-2.5-3.719-2.5zm3.939 5.9941a0.85022 0.87815 0 0 0 -0.064 0.0059 0.85022 0.87815 0 0 0 -0.531 0.3125 0.85022 0.87815 0 0 0 -0.063 0.125l-5.156 9.2505a0.85022 0.87815 0 0 0 0.7188 1.312h10.312a0.85022 0.87815 0 0 0 0.719 -1.312l-5.156-9.2505a0.85022 0.87815 0 0 0 -0.78 -0.4434zm-0.939 3.0059h2v4h-2v-4zm0 5h2v2h-2v-2z" fill="#bebebe"/>
	<path d="m13.875 9a0.85022 0.87815 0 0 0 -0.53125 0.3125 0.85022 0.87815 0 0 0 -0.0625 0.125l-5.156 9.2505a0.85022 0.87815 0 0 0 0.7188 1.312h10.312a0.85022 0.87815 0 0 0 0.719 -1.312l-5.1562-9.25a0.85022 0.87815 0 0 0 -0.844 -0.438zm-0.875 3h2v4h-2v-4zm0 5h2v2h-2v-2z" fill="#d40000"/>
</svg>
