
<svg width="22" height="22" version="1.1" xmlns="http://www.w3.org/2000/svg">
	<path fill="#bebebe" d="m11 2c-4.9706 0-9 4.0294-9 9s4.0294 9 9 9 9-4.0294 9-9-4.0294-9-9-9zm0 2c3.866 0 7 3.134 7 7s-3.134 7-7 7c-1.8396 0-3.5007-0.71461-4.75-1.875 0.40284-0.05663 1.0428-0.06293 1.875 0.03125 1.2172 0.13776 1.8848 0.18568 2.6875 0.125 1.8279-0.13819 3.0353-0.43878 4.375-1.0938 0.70015-0.34231 0.84856-0.49695 1-0.90625 0.14439-0.39025 0.19862-0.75 0.125-0.75-0.02605 0-0.25652 0.08891-0.53125 0.21875-1.0309 0.48716-1.9329 0.72948-2.7188 0.6875-0.8169-0.04369-2.1309-0.51774-3.7188-1.2812l-0.7498-0.344-0.5626-1.406 0.5313 0.344c0.90663 0.60203 2.3876 1.3111 3.2812 1.5938 1.3652 0.43174 2.4319 0.37248 3.5312-0.1875 0.38747-0.19738 1.125-0.68103 1.125-0.75 0-0.13-0.37737-1.3953-0.59375-1.9688-0.541-1.4346-0.921-1.9189-1.812-2.3442-0.99-0.4723-2.088-0.7928-4.094-1.25-0.9591-0.2037-1.9016-0.4099-2.875-0.5313l-0.0312 1.1875c-0.6366-0.198-1.2413-0.3503-1.8438-0.5 1.2655-1.8095 3.3744-3 5.75-3zm1.6562 5.0625c0.65542-0.01389 1.2798 0.41729 1.4688 1.1562 0.0952 0.37228 0.06513 0.63629-0.125 1.0312-0.27796 0.57736-0.89307 0.8907-1.5625 0.78125-0.47207-0.07717-0.88012-0.38159-1.0938-0.84375-0.2602-0.56289-0.13839-1.3107 0.3125-1.7188 0.29531-0.26728 0.65668-0.39907 1-0.40625zm0.344 0.7813c-0.52304 0-0.85162 0.38414-0.5625 0.65625 0.23451 0.22071 0.62594 0.25298 0.9375 0.09375 0.20177-0.10312 0.27084-0.26086 0.21875-0.46875-0.039-0.153-0.339-0.2812-0.594-0.2812z"/>
</svg>
