
<svg width="22" height="22" version="1.1" xmlns="http://www.w3.org/2000/svg">
	<path fill="#bebebe" d="m3.0312 4.0938v4.0625h1.0312c0.5413-0.0004 1.0317 0.49 1.0314 1.0312v1.6875 3c0 2.2789 1.7836 4.0938 4.0625 4.0938h4.7188 5.0938v-4.0938-5.7188c0-2.2789-1.8149-4.0625-4.0938-4.0625h-2.5938-2.0625-6.1562-1.0312zm3.9688 1.9062h0.96875v7.875 0.25c0 0.53694 0.45068 0.96875 1 0.96875h6.0625c0.55 0 0.969-0.432 0.969-0.969v-0.25-0.875-2-1c0-0.5523-0.448-1-1-1s-1 0.4477-1 1v1 2h-1v-2-1c0-0.5523-0.448-1-1-1s-1 0.4477-1 1v3h-1v-3c0-1.1046 0.89543-2 2-2 0.60085 0 1.1334 0.26805 1.5 0.6875 0.367-0.4194 0.899-0.6875 1.5-0.6875 1.1046 0 2 0.89543 2 2v1 2 0.875 0.25c0 1.0739-0.8701 1.9375-1.9688 1.9375h-6.0625c-1.0984 0-1.9685-0.863-1.9685-1.937v-0.25-7.875z"/>
</svg>
