<svg width="22" height="22" version="1.1" xmlns="http://www.w3.org/2000/svg">
	<path fill="#bebebe" d="m1.1291 5.0026c-.0437.0892-.0872.1779-.1291.2670.6631.3846 2.5742 1.3867 3.4814 1.9805 1.1465.7328 2.6962 2.2276 2.8182 2.4793-1.1925 2.1676-.6514 4.0856-.7923 4.2896-.1013.171-1.0386 1.245-.7368 1.404.29945.15627.77573-.0892.84764-.13720.14973-.09597.30417-.23563.23932.0406-.12673.56478-.70205 1.9225.091956 1.6341.096671-.05784 1.3746-1.5282 1.5291-1.5787 2.5424.69213 5.3859.37468 5.9123.11751.27410.01908 1.0498.52848 1.492.77149.44209.24055 1.6464.84348 1.2897-.25223-.11081-.34637-.90247-1.2305-.77396-1.2883.28294-.11751.98323.30515 1.2526.38452.80579.23563.91426-.09104.40555-.80964-.50222-.71859-.57768-.60784-.73683-.93944-.12437-.26701 0-.56232.09196-.63429.16328-.12981 2.5695-1.524 3.1335-2.0574.83586-.79303 0-1.7829-.20514-1.9225-1.735-1.3027-3.515-1.024-3.538-1.2307-.012-.2356-.008-.9155-.038-1.1511-.172-1.596-.879-1.1942-.976-1.1942-.707.1157-.447 1.2446-.147 2.3071.023.2714-.247.1514-.406-.1347-.543-1.5214-.771-1.495-.921-1.5404-.145-.0339-.656.2910-.647.9062.002.1753.203 1.012.203 1.2692-.334.3048-.350.9969-0.7 1.2492-1.02.2207-3.4707-.5261-3.7766-0.56-1.0592-.2067-1.5219.6227-1.6924.4233-1.3745-1.6438-3.4748-2.8645-4.3843-3.0761-.3526-.0794-1.5427-.6275-1.9713-.9038-.0688-.0430-.1473-.0743-.2233-.1156m18.904 1.4421c-.33187.37222-.27410 1.7638-.20514 1.7521.33835-.071983.30652-1.8642.20514-1.7521m.96023.21163c-.0389-.11320-.9119 1.1658-.75746 1.6365.06897.20425.87476-1.2784.75746-1.6365m-4.533 2.1748c.01186-.012295.02534.00493.0389.019078.10138.35068.21397.68475.88183.76903.0784.00987-.37077.28361-.67906.11566-.282-.1778-.307-.8244-.242-.9038m1.7318 1.7664c.0619-.0099.10610-.0073.14973 0 .16328.04306-1.1848.77641-1.2897.67551-.06426-.06461.71856-.59369 1.1424-.67551m.35014.46388c.14030.0123-.78044 1.0071-.88419.90376-.07604-.07199.59653-.92776.88419-.90376"/>
</svg>
