<svg width="22" height="22" version="1.1" xmlns="http://www.w3.org/2000/svg">
	<path d="m11 1a10 10 0 0 0-7.3633 3.25l2.1973 1.3184a7.5 7.5 0 0 1 5.166-2.0684 7.5 7.5 0 0 1 7.5 7.5 7.5 7.5 0 0 1-7.5 7.5 7.5 7.5 0 0 1-5.1621-2.0703l-2.1992 1.3203a10 10 0 0 0 7.3613 3.25 10 10 0 0 0 10-10 10 10 0 0 0-10-10zm-10 4v12l10-6-10-6zm10 1a5 5 0 0 0-2.8965 0.92969l2.6426 1.5859a2.5 2.5 0 0 1 0.25391-0.015625 2.5 2.5 0 0 1 2.5 2.5 2.5 2.5 0 0 1-2.5 2.5 2.5 2.5 0 0 1-0.25781-0.013672l-2.6367 1.582a5 5 0 0 0 2.8945 0.93164 5 5 0 0 0 5-5 5 5 0 0 0-5-5z" fill="#bebebe"/>
</svg>
