
<svg width="22" height="22" version="1.1" xmlns="http://www.w3.org/2000/svg">
	<path fill="#bebebe" d="m4.875 4c-0.4848 0-0.875 0.3902-0.875 0.875v12.25c0 0.485 0.3902 0.875 0.875 0.875h12.25c0.485 0 0.875-0.39 0.875-0.875v-12.25c0-0.4848-0.39-0.875-0.875-0.875h-12.25zm9.125 3v2h-4v1h3v2h-3v3h-2v-8h6z"/>
	<path opacity=".45" fill="#bebebe" d="m5.125 0c-0.4436 0.061232-0.8139 0.41385-0.9375 0.875l-4.1562 15.531c-0.1648 0.615 0.22883 1.242 0.8437 1.406l15.531 4.157c0.615 0.165 1.242-0.229 1.406-0.844l4.157-15.531c0.165-0.6151-0.229-1.2417-0.844-1.4065l-15.531-4.1562c-0.154-0.041238-0.3211-0.051711-0.469-0.0313zm-0.25 4h12.25c0.485 0 0.875 0.3902 0.875 0.875v12.25c0 0.485-0.39 0.875-0.875 0.875h-12.25c-0.4848 0-0.875-0.39-0.875-0.875v-12.25c0-0.4848 0.3902-0.875 0.875-0.875z"/>
</svg>
