<?xml version="1.0" encoding="UTF-8" standalone="no"?>
<!-- Created with Inkscape (http://www.inkscape.org/) -->

<svg
   xmlns:dc="http://purl.org/dc/elements/1.1/"
   xmlns:cc="http://creativecommons.org/ns#"
   xmlns:rdf="http://www.w3.org/1999/02/22-rdf-syntax-ns#"
   xmlns:svg="http://www.w3.org/2000/svg"
   xmlns="http://www.w3.org/2000/svg"
   xmlns:xlink="http://www.w3.org/1999/xlink"
   xmlns:sodipodi="http://sodipodi.sourceforge.net/DTD/sodipodi-0.dtd"
   xmlns:inkscape="http://www.inkscape.org/namespaces/inkscape"
   width="24"
   height="24"
   id="svg2"
   sodipodi:version="0.32"
   inkscape:version="0.48.3.1 r9886"
   version="1.0"
   sodipodi:docname="folder-dropbox.svg"
   inkscape:output_extension="org.inkscape.output.svg.inkscape"
   style="display:inline">
  <defs
     id="defs4">
    <linearGradient
       inkscape:collect="always"
       xlink:href="#linearGradient3831-1"
       id="linearGradient3845-9"
       x1="11"
       y1="19.5"
       x2="21"
       y2="19.5"
       gradientUnits="userSpaceOnUse"
       spreadMethod="reflect"
       gradientTransform="translate(1,1)" />
    <linearGradient
       id="linearGradient3831-1">
      <stop
         style="stop-color:#ffffff;stop-opacity:1;"
         offset="0"
         id="stop3833-2" />
      <stop
         id="stop3821-4"
         offset="0.75"
         style="stop-color:#ffffff;stop-opacity:0.49803922;" />
      <stop
         style="stop-color:#ffffff;stop-opacity:0;"
         offset="1"
         id="stop3835-9" />
    </linearGradient>
    <linearGradient
       y2="16"
       x2="10"
       y1="5"
       x1="10"
       gradientUnits="userSpaceOnUse"
       id="linearGradient3078-0"
       xlink:href="#linearGradient3823-1"
       inkscape:collect="always"
       gradientTransform="translate(1,1)" />
    <linearGradient
       id="linearGradient3823-1">
      <stop
         id="stop3825-4"
         offset="0"
         style="stop-color:#ffffff;stop-opacity:1;" />
      <stop
         id="stop3829-4"
         offset="1"
         style="stop-color:#ffffff;stop-opacity:0;" />
    </linearGradient>
    <linearGradient
       inkscape:collect="always"
       xlink:href="#linearGradient4075"
       id="linearGradient3668-3"
       x1="10.871767"
       y1="24.123091"
       x2="10.871767"
       y2="6.1230297"
       gradientUnits="userSpaceOnUse"
       gradientTransform="translate(-0.740039,-2.1230297)" />
    <linearGradient
       id="linearGradient4075">
      <stop
         id="stop4077"
         offset="0"
         style="stop-color:#72a0c2;stop-opacity:1;" />
      <stop
         id="stop4079"
         offset="1"
         style="stop-color:#afcbde;stop-opacity:1;" />
    </linearGradient>
    <linearGradient
       y2="-11"
       x2="11.375"
       y1="20"
       x1="11.375"
       gradientTransform="translate(1,3)"
       gradientUnits="userSpaceOnUse"
       id="linearGradient3842"
       xlink:href="#linearGradient3327"
       inkscape:collect="always" />
    <linearGradient
       inkscape:collect="always"
       id="linearGradient3327">
      <stop
         style="stop-color:#000000;stop-opacity:1;"
         offset="0"
         id="stop3330" />
      <stop
         style="stop-color:#000000;stop-opacity:0;"
         offset="1"
         id="stop3333" />
    </linearGradient>
    <linearGradient
       y2="-11"
       x2="11.375"
       y1="20"
       x1="11.375"
       gradientTransform="translate(1,3)"
       gradientUnits="userSpaceOnUse"
       id="linearGradient3827"
       xlink:href="#linearGradient3327"
       inkscape:collect="always" />
    <linearGradient
       inkscape:collect="always"
       xlink:href="#linearGradient3831-1-4"
       id="linearGradient3845-9-8"
       x1="11"
       y1="19.5"
       x2="21"
       y2="19.5"
       gradientUnits="userSpaceOnUse"
       spreadMethod="reflect"
       gradientTransform="translate(1,1)" />
    <linearGradient
       id="linearGradient3831-1-4">
      <stop
         style="stop-color:#ffffff;stop-opacity:1;"
         offset="0"
         id="stop3833-2-1" />
      <stop
         id="stop3821-4-1"
         offset="0.75"
         style="stop-color:#ffffff;stop-opacity:0.49803922;" />
      <stop
         style="stop-color:#ffffff;stop-opacity:0;"
         offset="1"
         id="stop3835-9-7" />
    </linearGradient>
    <linearGradient
       y2="16"
       x2="10"
       y1="5"
       x1="10"
       gradientUnits="userSpaceOnUse"
       id="linearGradient3078-0-7"
       xlink:href="#linearGradient3823-1-1"
       inkscape:collect="always"
       gradientTransform="translate(1,1)" />
    <linearGradient
       id="linearGradient3823-1-1">
      <stop
         id="stop3825-4-3"
         offset="0"
         style="stop-color:#ffffff;stop-opacity:1;" />
      <stop
         id="stop3829-4-5"
         offset="1"
         style="stop-color:#ffffff;stop-opacity:0;" />
    </linearGradient>
    <linearGradient
       inkscape:collect="always"
       xlink:href="#linearGradient4075-4"
       id="linearGradient3668-3-3"
       x1="10.871767"
       y1="24.123091"
       x2="10.871767"
       y2="6.1230297"
       gradientUnits="userSpaceOnUse"
       gradientTransform="translate(-0.740039,-2.1230297)" />
    <linearGradient
       id="linearGradient4075-4">
      <stop
         id="stop4077-9"
         offset="0"
         style="stop-color:#6e92c6;stop-opacity:1;" />
      <stop
         id="stop4079-7"
         offset="1"
         style="stop-color:#afc2df;stop-opacity:1;" />
    </linearGradient>
    <linearGradient
       y2="-11"
       x2="11.375"
       y1="20"
       x1="11.375"
       gradientTransform="translate(1,3)"
       gradientUnits="userSpaceOnUse"
       id="linearGradient3842-1"
       xlink:href="#linearGradient3327-0"
       inkscape:collect="always" />
    <linearGradient
       inkscape:collect="always"
       id="linearGradient3327-0">
      <stop
         style="stop-color:#000000;stop-opacity:1;"
         offset="0"
         id="stop3330-2" />
      <stop
         style="stop-color:#000000;stop-opacity:0;"
         offset="1"
         id="stop3333-0" />
    </linearGradient>
    <linearGradient
       y2="-11"
       x2="11.375"
       y1="20"
       x1="11.375"
       gradientTransform="translate(1,3)"
       gradientUnits="userSpaceOnUse"
       id="linearGradient3888"
       xlink:href="#linearGradient3327-0"
       inkscape:collect="always" />
  </defs>
  <sodipodi:namedview
     id="base"
     pagecolor="#7e7e7e"
     bordercolor="#dc0000"
     borderopacity="1"
     inkscape:pageopacity="1"
     inkscape:pageshadow="2"
     inkscape:zoom="18.602289"
     inkscape:cx="-15.594253"
     inkscape:cy="3.3983591"
     inkscape:document-units="px"
     inkscape:current-layer="layer4"
     showgrid="true"
     inkscape:showpageshadow="false"
     showguides="true"
     inkscape:guide-bbox="true"
     inkscape:window-width="1920"
     inkscape:window-height="1029"
     inkscape:window-x="0"
     inkscape:window-y="24"
     inkscape:window-maximized="1"
     borderlayer="true">
    <sodipodi:guide
       orientation="1,0"
       position="0,112"
       id="guide2383" />
    <sodipodi:guide
       orientation="0,1"
       position="26.278146,128"
       id="guide2385" />
    <sodipodi:guide
       orientation="1,0"
       position="128,54.082119"
       id="guide2387" />
    <sodipodi:guide
       orientation="0,1"
       position="78.156291,0"
       id="guide2389" />
    <inkscape:grid
       type="xygrid"
       id="grid3672"
       visible="true"
       enabled="true"
       empspacing="8"
       snapvisiblegridlinesonly="true" />
  </sodipodi:namedview>
  <metadata
     id="metadata7">
    <rdf:RDF>
      <cc:Work
         rdf:about="">
        <dc:format>image/svg+xml</dc:format>
        <dc:type
           rdf:resource="http://purl.org/dc/dcmitype/StillImage" />
        <dc:title />
      </cc:Work>
    </rdf:RDF>
  </metadata>
  <g
     inkscape:groupmode="layer"
     id="layer2"
     inkscape:label="Button"
     sodipodi:insensitive="true">
    <path
       style="opacity:0.3;fill:url(#linearGradient3888);fill-opacity:1;stroke:none;display:inline"
       d="m 4.5,1.5 c -1.0969971,0 -2,0.9030029 -2,2 l 0,0.5 c -0.6114808,0.4549066 -1,1.175925 -1,2 l 0,14.5 C 1.5,21.885 2.615,23 4,23 l 16,0 c 1.385,0 2.5,-1.115 2.5,-2.5 L 22.5,6 C 22.5,5.134375 22.071045,4.3858887 21.40625,3.9375 21.160346,3.1111944 20.401594,2.5 19.5,2.5 l -7.375,0 C 11.775318,1.9321758 11.212848,1.5 10.5,1.5 l -6,0 z"
       id="rect3371"
       inkscape:connector-curvature="0" />
    <rect
       ry="2"
       rx="2"
       y="7"
       x="2"
       height="16"
       width="20"
       id="rect5478"
       style="opacity:0.4;fill:#000000;fill-opacity:1;fill-rule:nonzero;stroke:none;display:inline" />
    <path
       inkscape:connector-curvature="0"
       style="color:#000000;fill:#7c9ccb;fill-opacity:1;fill-rule:nonzero;stroke:none;stroke-width:2;marker:none;visibility:visible;display:inline;overflow:visible;enable-background:accumulate"
       d="M 4.5,2 C 3.669,2 3,2.669 3,3.5 l 0,1 0,1 0,2 C 3,8.331 3.669,9 4.5,9 l 15,0 C 20.331,9 21,8.331 21,7.5 l 0,-3 C 21,3.669 20.331,3 19.5,3 L 11.90625,3 C 11.702994,2.4129833 11.157875,2 10.5,2 l -6,0 z"
       id="rect3043" />
    <path
       style="opacity:0.1;color:#000000;fill:#000000;fill-opacity:1;fill-rule:nonzero;stroke:none;stroke-width:2;marker:none;visibility:visible;display:inline;overflow:visible;enable-background:accumulate"
       d="M 4,3 C 3.648898,3 3.317465,3.0923738 3.03125,3.25 3.018314,3.3295389 3,3.4166943 3,3.5 l 0,1 0,1 0,2 C 3,8.331 3.669,9 4.5,9 l 15,0 C 20.331,9 21,8.331 21,7.5 l 0,-3 C 21,3.669 20.331,3 19.5,3 L 11.90625,3 4,3 z"
       id="path3050"
       inkscape:connector-curvature="0" />
    <rect
       style="fill:url(#linearGradient3668-3-3);fill-opacity:1;fill-rule:nonzero;stroke:none;display:inline"
       id="rect3660"
       width="20"
       height="17.999996"
       x="2"
       y="4"
       rx="2"
       ry="2" />
    <path
       style="opacity:0.2;fill:url(#linearGradient3078-0-7);fill-opacity:1;fill-rule:evenodd;stroke:none;display:inline"
       d="M 4,4 C 2.892,4 2,4.892 2,6 l 0,14 c 0,1.108 0.892,2 2,2 l 16,0 c 1.108,0 2,-0.892 2,-2 L 22,6 C 22,4.892 21.108,4 20,4 z m 0,1.03125 16,0 c 0.5497,0 0.96875,0.4190495 0.96875,0.96875 l 0,14 c 0,0.5497 -0.41905,0.96875 -0.96875,0.96875 l -16,0 C 3.4502995,20.96875 3.03125,20.5497 3.03125,20 l 0,-14 C 3.03125,5.4502995 3.4502995,5.03125 4,5.03125 z"
       id="rect3050"
       inkscape:connector-curvature="0"
       sodipodi:nodetypes="ssssssssssssssssss" />
    <path
       id="path3235"
       d="M 4,22 C 2.892,22 2,21.108 2,20 l 0,-1 c 0,1.108 0.892,2 2,2 l 16,0 c 1.108,0 2,-0.892 2,-2 l 0,1 c 0,1.108 -0.892,2 -2,2 z"
       style="opacity:0.2;fill:url(#linearGradient3845-9-8);fill-opacity:1;fill-rule:evenodd;stroke:none;display:inline"
       inkscape:connector-curvature="0"
       sodipodi:nodetypes="sscsscsss" />
  </g>
  <g
     inkscape:groupmode="layer"
     id="layer4"
     inkscape:label="Symbol"
     transform="translate(0,2)">
    <path
       sodipodi:type="inkscape:offset"
       inkscape:radius="1.0331334"
       inkscape:original="M 8 7.03125 L 5 9.28125 L 8 11.53125 L 5 13.78125 L 11 18.28125 L 17 13.78125 L 14 11.53125 L 17 9.28125 L 14 7.03125 L 11 9.28125 L 8 7.03125 z "
       style="opacity:0.15;fill:#ffffff;fill-opacity:1;stroke:none;display:inline"
       id="path3700"
       d="M 7.84375,6 A 1.0332367,1.0332367 0 0 0 7.375,6.21875 l -3,2.25 a 1.0332367,1.0332367 0 0 0 0,1.625 l 1.90625,1.4375 -1.90625,1.4375 a 1.0332367,1.0332367 0 0 0 0,1.625 l 6,4.5 a 1.0332367,1.0332367 0 0 0 1.25,0 l 6,-4.5 a 1.0332367,1.0332367 0 0 0 0,-1.625 l -1.90625,-1.4375 1.90625,-1.4375 a 1.0332367,1.0332367 0 0 0 0,-1.625 l -3,-2.25 a 1.0332367,1.0332367 0 0 0 -1.25,0 L 11,8 8.625,6.21875 A 1.0332367,1.0332367 0 0 0 7.84375,6 z"
       transform="translate(0.99999997,-1.0000003)" />
    <path
       style="fill:#6588bd;fill-opacity:1;stroke:none;display:inline"
       d="m 12.000001,17.281878 -6.0000008,-4.5 3.0000003,-2.25 -3.0000003,-2.2500015 3.0000003,-2.2500002 3.0000015,2.2500002 3,-2.2500002 L 18,8.2818765 15.000002,10.531878 18,12.781878 l -5.999998,4.5 z"
       id="path2928"
       sodipodi:nodetypes="ccccccccccc"
       inkscape:connector-curvature="0" />
    <path
       style="opacity:0.2;fill:#000000;fill-opacity:1;stroke:none;display:inline"
       d="m 9,6.0312491 -3,2.25 3,2.2500009 -3,2.25 6,4.5 6,-4.5 -3,-2.25 3,-2.2500009 -3,-2.25 -3,2.25 -3,-2.25 z m 0,0.53125 2.75,2.0625 a 0.41329469,0.41329469 0 0 0 0.5,0 l 2.75,-2.0625 2.28125,1.71875 L 14.75,10.1875 a 0.41329469,0.41329469 0 0 0 0,0.6875 L 17.28125,12.78125 12,16.75 6.71875,12.78125 9.25,10.875 a 0.41329469,0.41329469 0 0 0 0,-0.6875 L 6.71875,8.2812491 9,6.5624991 z"
       id="path3691"
       inkscape:connector-curvature="0" />
    <path
       style="opacity:0.2;fill:#000000;fill-opacity:1;stroke:none;display:inline"
       d="m 9,6.0312491 -3,2.25 0.65625,0.5 2.34375,-1.75 3,2.2500006 3,-2.2500006 2.34375,1.75 0.65625,-0.5 -3,-2.25 -3,2.25 -3,-2.25 z M 8.34375,11.03125 6,12.78125 l 0.65625,0.5 2.34375,-1.75 -0.65625,-0.5 z m 7.3125,0 -0.65625,0.5 2.34375,1.75 0.65625,-0.5 -2.34375,-1.75 z"
       id="path3685"
       inkscape:connector-curvature="0" />
    <path
       inkscape:connector-curvature="0"
       style="opacity:0.15;fill:#ffffff;fill-opacity:1;stroke:none;display:inline"
       d="M 6.65625,8.7812497 6,9.2812497 8.34375,11.03125 9,10.53125 6.65625,8.7812497 z m 10.6875,0 L 15,10.53125 l 0.65625,0.5 L 18,9.2812497 l -0.65625,-0.5 z M 6.65625,13.28125 6,13.78125 l 6,4.5 6,-4.5 -0.65625,-0.5 -5.34375,4 -5.34375,-4 z"
       id="path4015" />
  </g>
</svg>
