<?xml version="1.0" encoding="UTF-8" standalone="no"?>
<svg
   xmlns:dc="http://purl.org/dc/elements/1.1/"
   xmlns:cc="http://creativecommons.org/ns#"
   xmlns:rdf="http://www.w3.org/1999/02/22-rdf-syntax-ns#"
   xmlns:svg="http://www.w3.org/2000/svg"
   xmlns="http://www.w3.org/2000/svg"
   xmlns:sodipodi="http://sodipodi.sourceforge.net/DTD/sodipodi-0.dtd"
   xmlns:inkscape="http://www.inkscape.org/namespaces/inkscape"
   id="svg2"
   width="24"
   height="24"
   version="1.0"
   sodipodi:docname="1cestart.svg"
   inkscape:version="0.92.2 5c3e80d, 2017-08-06">
  <metadata
     id="metadata58">
    <rdf:RDF>
      <cc:Work
         rdf:about="">
        <dc:format>image/svg+xml</dc:format>
        <dc:type
           rdf:resource="http://purl.org/dc/dcmitype/StillImage" />
      </cc:Work>
    </rdf:RDF>
  </metadata>
  <sodipodi:namedview
     pagecolor="#ffffff"
     bordercolor="#666666"
     borderopacity="1"
     objecttolerance="10"
     gridtolerance="10"
     guidetolerance="10"
     inkscape:pageopacity="0"
     inkscape:pageshadow="2"
     inkscape:window-width="640"
     inkscape:window-height="480"
     id="namedview56"
     showgrid="false"
     inkscape:zoom="9.8333333"
     inkscape:cx="12"
     inkscape:cy="12"
     inkscape:window-x="0"
     inkscape:window-y="25"
     inkscape:window-maximized="0"
     inkscape:current-layer="svg2" />
  <defs
     id="defs4">
    <linearGradient
       id="linearGradient3335"
       x1="11.375"
       x2="11.375"
       y1="22"
       y2="-9.8173"
       gradientUnits="userSpaceOnUse">
      <stop
         id="stop3330"
         offset="0" />
      <stop
         id="stop3333"
         stop-opacity="0"
         offset="1" />
    </linearGradient>
    <linearGradient
       id="linearGradient3181"
       x1="-3.0608"
       x2="-3.0608"
       y1="27.258"
       y2="7.2537"
       gradientTransform="translate(12.119 -7.2582)"
       gradientUnits="userSpaceOnUse">
      <stop
         id="stop3189"
         stop-color="#D8AF31"
         offset="0" />
      <stop
         id="stop3191"
         stop-color="#FFD34E"
         offset="1" />
    </linearGradient>
    <filter
       id="filter3194"
       x="-.18"
       y="-.18"
       width="1.36"
       height="1.36"
       color-interpolation-filters="sRGB">
      <feGaussianBlur
         id="feGaussianBlur3196"
         stdDeviation="1.2" />
    </filter>
    <clipPath
       id="clipPath2849">
      <rect
         id="rect2851"
         x="1"
         y="1"
         width="20"
         height="20"
         rx="2"
         ry="2"
         fill="#fff"
         fill-rule="evenodd" />
    </clipPath>
    <linearGradient
       id="linearGradient3845"
       x1="11"
       x2="21"
       y1="19.5"
       y2="19.5"
       gradientTransform="translate(1,-1)"
       gradientUnits="userSpaceOnUse"
       spreadMethod="reflect">
      <stop
         id="stop3833"
         stop-color="#fff"
         offset="0" />
      <stop
         id="stop3821"
         stop-color="#fff"
         stop-opacity=".49804"
         offset=".75" />
      <stop
         id="stop3835"
         stop-color="#fff"
         stop-opacity="0"
         offset="1" />
    </linearGradient>
    <linearGradient
       id="linearGradient3961"
       x1="10"
       x2="10"
       y1="1"
       y2="16"
       gradientTransform="translate(1,-1)"
       gradientUnits="userSpaceOnUse">
      <stop
         id="stop3825"
         stop-color="#fff"
         offset="0" />
      <stop
         id="stop3829"
         stop-color="#fff"
         stop-opacity="0"
         offset="1" />
    </linearGradient>
  </defs>
  <g
     id="layer1"
     transform="translate(0,2)">
    <g
       id="g3337"
       transform="translate(1,-1)">
      <rect
         id="rect3371"
         x=".5"
         y=".5"
         width="21"
         height="21.5"
         rx="2.5"
         ry="2.5"
         fill="url(#linearGradient3335)"
         opacity=".3" />
      <rect
         id="rect2553"
         x="1"
         y="2"
         width="20"
         height="20"
         rx="2.381"
         ry="2.3256"
         opacity=".5" />
    </g>
    <rect
       id="rect3173"
       x="2"
       width="20"
       height="20"
       rx="2"
       ry="2"
       fill="url(#linearGradient3181)"
       fill-rule="evenodd" />
    <path
       id="rect3050"
       d="m4 0c-1.108 0-2 0.892-2 2v16c0 1.108 0.892 2 2 2h16c1.108 0 2-0.892 2-2v-16c0-1.108-0.892-2-2-2h-16zm0 1.0312h16c0.5497 0 0.96875 0.41905 0.96875 0.96875v16c0 0.5497-0.41905 0.96875-0.96875 0.96875h-16c-0.5497 0-0.96875-0.41905-0.96875-0.96875v-16c0-0.5497 0.41905-0.96875 0.96875-0.96875z"
       fill="url(#linearGradient3961)"
       fill-rule="evenodd"
       opacity=".35" />
    <path
       id="path3235"
       d="m4 20c-1.108 0-2-0.892-2-2v-1c0 1.108 0.892 2 2 2h16c1.108 0 2-0.892 2-2v1c0 1.108-0.892 2-2 2h-16z"
       fill="url(#linearGradient3845)"
       fill-rule="evenodd"
       opacity=".2" />
  </g>
  <g
     id="layer2"
     transform="translate(0,2)">
    <rect
       id="rect2410"
       transform="translate(1,-1)"
       x="3"
       y="3"
       width="16"
       height="16"
       rx="2"
       ry="2"
       clip-path="url(#clipPath2849)"
       fill="#fff"
       filter="url(#filter3194)"
       opacity=".15" />
  </g>
  <defs
     id="defs37">
    <filter
       id="w">
      <feGaussianBlur
         stdDeviation="0.26998568"
         id="feGaussianBlur29" />
    </filter>
    <linearGradient
       id="a"
       gradientUnits="userSpaceOnUse"
       x1="8"
       y1="5"
       x2="8"
       y2="12">
      <stop
         stop-color="#CA160E"
         offset="0"
         id="stop32" />
      <stop
         stop-color="#CA160E"
         offset="1"
         id="stop34" />
    </linearGradient>
  </defs>
  <path
     d="m2 5v1.5h1.5v5.5h1.5v-7h-3zm8 0a3.5 3.5 0 0 0-3.5 3.5 3.5 3.5 0 0 0 3.5 3.5h5v-1.5h-2.1328-2.8672a2 2 0 0 1-2-2 2 2 0 0 1 2-2 2 2 0 0 1 1.9355 1.5h1.5234a3.5 3.5 0 0 0-3.459-3z"
     fill="url(#a)"
     id="base"
     transform="translate(4,4)" />
  <path
     style="opacity:0.3;fill:#000000"
     d="M 6 9 L 6 10 L 9 10 L 9 9 L 6 9 z M 14 9 A 3.5 3.5 0 0 0 10.5 12.5 A 3.5 3.5 0 0 0 10.539062 12.994141 A 3.5 3.5 0 0 1 14 10 A 3.5 3.5 0 0 1 17.15625 12 L 17.458984 12 A 3.5 3.5 0 0 0 14 9 z M 12.064453 13.003906 A 2 2 0 0 0 12 13.5 A 2 2 0 0 0 14 15.5 L 16.867188 15.5 L 19 15.5 L 19 14.5 L 16.867188 14.5 L 14 14.5 A 2 2 0 0 1 12.064453 13.003906 z "
     id="path40" />
  <path
     style="opacity:0.3;fill:#000000"
     d="M 6 9 L 6 10.5 L 7.5 10.5 L 7.5 16 L 9 16 L 9 9 L 6 9 z M 14 9 A 3.5 3.5 0 0 0 10.5 12.5 A 3.5 3.5 0 0 0 14 16 L 19 16 L 19 14.5 L 16.867188 14.5 L 14 14.5 A 2 2 0 0 1 13.507812 14.435547 A 0.50005 0.50005 0 0 0 14 15 L 16.867188 15 L 18.5 15 L 18.5 15.5 L 14 15.5 C 13.214602 15.5 12.434267 15.176454 11.878906 14.621094 C 11.323546 14.065733 11 13.285398 11 12.5 C 11 11.714602 11.323546 10.934267 11.878906 10.378906 C 12.434267 9.8235459 13.214602 9.5 14 9.5 C 14.001934 9.5000028 14.003925 9.4999933 14.005859 9.5 C 14.716901 9.5024667 15.423764 9.7684838 15.960938 10.234375 C 16.346947 10.569163 16.599268 11.019856 16.773438 11.5 L 15.935547 11.5 A 0.50005 0.50005 0 0 0 15.748047 11.537109 A 2 2 0 0 1 15.935547 12 L 17.458984 12 A 3.5 3.5 0 0 0 14 9 z M 6.5 9.5 L 8.5 9.5 L 8.5 15.5 L 8 15.5 L 8 10.5 A 0.50005 0.50005 0 0 0 7.5 10 L 6.5 10 L 6.5 9.5 z "
     id="path45" />
  <path
     style="opacity:0.3;fill:#ffffff"
     d="M 6 10.5 L 6 11.5 L 7.5 11.5 L 7.5 10.5 L 6 10.5 z M 14 10.5 A 2 2 0 0 0 12 12.5 A 2 2 0 0 0 12.064453 13.003906 A 2 2 0 0 1 14 11.5 A 2 2 0 0 1 15.935547 13 L 17.458984 13 A 3.5 3.5 0 0 0 17.15625 12 L 15.935547 12 A 2 2 0 0 0 14 10.5 z M 10.539062 12.994141 A 3.5 3.5 0 0 0 10.5 13.5 A 3.5 3.5 0 0 0 14 17 L 19 17 L 19 16 L 14 16 A 3.5 3.5 0 0 1 10.539062 12.994141 z M 7.5 16 L 7.5 17 L 9 17 L 9 16 L 7.5 16 z "
     id="path50" />
</svg>
