<?xml version="1.0" encoding="UTF-8" standalone="no"?>
<svg
   xmlns:dc="http://purl.org/dc/elements/1.1/"
   xmlns:cc="http://creativecommons.org/ns#"
   xmlns:rdf="http://www.w3.org/1999/02/22-rdf-syntax-ns#"
   xmlns:svg="http://www.w3.org/2000/svg"
   xmlns="http://www.w3.org/2000/svg"
   xmlns:sodipodi="http://sodipodi.sourceforge.net/DTD/sodipodi-0.dtd"
   xmlns:inkscape="http://www.inkscape.org/namespaces/inkscape"
   id="svg2"
   width="24"
   height="24"
   version="1.0"
   sodipodi:docname="android-studio.svg"
   inkscape:version="0.92.2 5c3e80d, 2017-08-06">
  <metadata
     id="metadata58">
    <rdf:RDF>
      <cc:Work
         rdf:about="">
        <dc:format>image/svg+xml</dc:format>
        <dc:type
           rdf:resource="http://purl.org/dc/dcmitype/StillImage" />
      </cc:Work>
    </rdf:RDF>
  </metadata>
  <sodipodi:namedview
     pagecolor="#ffffff"
     bordercolor="#666666"
     borderopacity="1"
     objecttolerance="10"
     gridtolerance="10"
     guidetolerance="10"
     inkscape:pageopacity="0"
     inkscape:pageshadow="2"
     inkscape:window-width="640"
     inkscape:window-height="480"
     id="namedview56"
     showgrid="false"
     inkscape:zoom="9.8333333"
     inkscape:cx="12"
     inkscape:cy="12"
     inkscape:window-x="0"
     inkscape:window-y="25"
     inkscape:window-maximized="0"
     inkscape:current-layer="svg2" />
  <defs
     id="defs4">
    <linearGradient
       id="linearGradient3335"
       x1="11.375"
       x2="11.375"
       y1="22"
       y2="-9.8173"
       gradientUnits="userSpaceOnUse">
      <stop
         id="stop3330"
         offset="0" />
      <stop
         id="stop3333"
         stop-opacity="0"
         offset="1" />
    </linearGradient>
    <linearGradient
       id="linearGradient3181"
       x1="-3.0608"
       x2="-3.0608"
       y1="27.258"
       y2="7.2537"
       gradientTransform="translate(12.119 -7.2582)"
       gradientUnits="userSpaceOnUse">
      <stop
         id="stop3189"
         stop-color="#202020"
         offset="0" />
      <stop
         id="stop3191"
         stop-color="#363636"
         offset="1" />
    </linearGradient>
    <filter
       id="filter3194"
       x="-.18"
       y="-.18"
       width="1.36"
       height="1.36"
       color-interpolation-filters="sRGB">
      <feGaussianBlur
         id="feGaussianBlur3196"
         stdDeviation="1.2" />
    </filter>
    <clipPath
       id="clipPath2849">
      <rect
         id="rect2851"
         x="1"
         y="1"
         width="20"
         height="20"
         rx="2"
         ry="2"
         fill="#fff"
         fill-rule="evenodd" />
    </clipPath>
    <linearGradient
       id="linearGradient3845"
       x1="11"
       x2="21"
       y1="19.5"
       y2="19.5"
       gradientTransform="translate(1,-1)"
       gradientUnits="userSpaceOnUse"
       spreadMethod="reflect">
      <stop
         id="stop3833"
         stop-color="#fff"
         offset="0" />
      <stop
         id="stop3821"
         stop-color="#fff"
         stop-opacity=".49804"
         offset=".75" />
      <stop
         id="stop3835"
         stop-color="#fff"
         stop-opacity="0"
         offset="1" />
    </linearGradient>
    <linearGradient
       id="linearGradient3961"
       x1="10"
       x2="10"
       y1="1"
       y2="16"
       gradientTransform="translate(1,-1)"
       gradientUnits="userSpaceOnUse">
      <stop
         id="stop3825"
         stop-color="#fff"
         offset="0" />
      <stop
         id="stop3829"
         stop-color="#fff"
         stop-opacity="0"
         offset="1" />
    </linearGradient>
  </defs>
  <g
     id="layer1"
     transform="translate(0,2)">
    <g
       id="g3337"
       transform="translate(1,-1)">
      <rect
         id="rect3371"
         x=".5"
         y=".5"
         width="21"
         height="21.5"
         rx="2.5"
         ry="2.5"
         fill="url(#linearGradient3335)"
         opacity=".3" />
      <rect
         id="rect2553"
         x="1"
         y="2"
         width="20"
         height="20"
         rx="2.381"
         ry="2.3256"
         opacity=".5" />
    </g>
    <rect
       id="rect3173"
       x="2"
       width="20"
       height="20"
       rx="2"
       ry="2"
       fill="url(#linearGradient3181)"
       fill-rule="evenodd" />
    <path
       id="rect3050"
       d="m4 0c-1.108 0-2 0.892-2 2v16c0 1.108 0.892 2 2 2h16c1.108 0 2-0.892 2-2v-16c0-1.108-0.892-2-2-2h-16zm0 1.0312h16c0.5497 0 0.96875 0.41905 0.96875 0.96875v16c0 0.5497-0.41905 0.96875-0.96875 0.96875h-16c-0.5497 0-0.96875-0.41905-0.96875-0.96875v-16c0-0.5497 0.41905-0.96875 0.96875-0.96875z"
       fill="url(#linearGradient3961)"
       fill-rule="evenodd"
       opacity=".35" />
    <path
       id="path3235"
       d="m4 20c-1.108 0-2-0.892-2-2v-1c0 1.108 0.892 2 2 2h16c1.108 0 2-0.892 2-2v1c0 1.108-0.892 2-2 2h-16z"
       fill="url(#linearGradient3845)"
       fill-rule="evenodd"
       opacity=".2" />
  </g>
  <g
     id="layer2"
     transform="translate(0,2)">
    <rect
       id="rect2410"
       transform="translate(1,-1)"
       x="3"
       y="3"
       width="16"
       height="16"
       rx="2"
       ry="2"
       clip-path="url(#clipPath2849)"
       fill="#fff"
       filter="url(#filter3194)"
       opacity=".15" />
  </g>
  <defs
     id="defs37">
    <filter
       id="w">
      <feGaussianBlur
         stdDeviation="0.26998568"
         id="feGaussianBlur29" />
    </filter>
    <linearGradient
       id="a"
       gradientUnits="userSpaceOnUse"
       x1="8"
       y1="5.1779061"
       x2="8"
       y2="15">
      <stop
         stop-color="#a4c639"
         offset="0"
         id="stop32" />
      <stop
         stop-color="#a4c639"
         offset="1"
         id="stop34" />
    </linearGradient>
  </defs>
  <path
     d="m4.1875 5.1875c-0.096 0.0532-0.1157 0.21646-0.0625 0.3125l0.9375 1.6875c-1.8217 0.9479-3.06 2.7451-3.0625 4.8125h12c-2e-3 -2.0674-1.2408-3.8646-3.0625-4.8125l0.9375-1.6875c0.0532-0.0962 0.0337-0.2592-0.0625-0.3125-0.036-0.02-0.0886-3e-3 -0.125 0-0.0606 6e-3 -0.0918 0.065-0.125 0.125l-1 1.6875c-0.78466-0.34806-1.6337-0.5625-2.5625-0.5625-0.92876 0-1.8403 0.2144-2.625 0.5625l-0.9375-1.6875c-0.0334-0.06-0.0642-0.1204-0.125-0.125-0.01-6.4e-4 -0.0535-6.4e-4 -0.0625 0 0.028 0-0.0355-0.0156-0.0625 0zm1.3125 3.5625c0.41421 0 0.75 0.33579 0.75 0.75s-0.33579 0.75-0.75 0.75-0.75-0.33579-0.75-0.75 0.33579-0.75 0.75-0.75zm5 0c0.41421 0 0.75 0.33579 0.75 0.75s-0.33579 0.75-0.75 0.75-0.75-0.33579-0.75-0.75 0.33579-0.75 0.75-0.75zm-8.5 4.25v2h12v-2z"
     fill="url(#a)"
     id="base"
     transform="translate(4,4)" />
  <path
     style="opacity:0.2;fill:#000000"
     d="M 8.1875 8.1875 C 8.0915 8.2407 8.0718 8.40396 8.125 8.5 L 9.0625 10.1875 C 9.0264613 10.206252 8.9945614 10.230587 8.9589844 10.25 L 9.375 11 C 10.1597 10.6519 11.07124 10.4375 12 10.4375 C 12.9288 10.4375 13.77784 10.65194 14.5625 11 L 15.015625 10.234375 C 14.988733 10.21987 14.964654 10.201629 14.9375 10.1875 L 15.875 8.5 C 15.9282 8.4038 15.9087 8.2408 15.8125 8.1875 C 15.7765 8.1675 15.7239 8.1845 15.6875 8.1875 C 15.6269 8.1935 15.5957 8.2525 15.5625 8.3125 L 14.5625 10 C 13.77784 9.65194 12.9288 9.4375 12 9.4375 C 11.07124 9.4375 10.1597 9.6519 9.375 10 L 8.4375 8.3125 C 8.4041 8.2525 8.3733 8.1921 8.3125 8.1875 C 8.3025 8.18686 8.259 8.18686 8.25 8.1875 C 8.278 8.1875 8.2145 8.1719 8.1875 8.1875 z M 8.6464844 10.4375 C 7.0585182 11.430938 6.0023015 13.096763 6 15 L 6.1113281 15 C 6.4404481 13.363653 7.5430184 11.978144 9.0625 11.1875 L 8.6464844 10.4375 z M 15.353516 10.4375 L 14.9375 11.1875 C 16.456982 11.978144 17.559727 13.363653 17.888672 15 L 18 15 C 17.998159 13.096763 16.941546 11.430938 15.353516 10.4375 z M 8.9472656 13 C 8.8269373 13.133035 8.75 13.306495 8.75 13.5 C 8.75 13.91421 9.08579 14.25 9.5 14.25 C 9.91421 14.25 10.25 13.91421 10.25 13.5 C 10.25 13.306495 10.173063 13.133035 10.052734 13 C 9.9154924 13.151735 9.7207048 13.25 9.5 13.25 C 9.2792952 13.25 9.0845076 13.151735 8.9472656 13 z M 13.947266 13 C 13.826937 13.133035 13.75 13.306495 13.75 13.5 C 13.75 13.91421 14.08579 14.25 14.5 14.25 C 14.91421 14.25 15.25 13.91421 15.25 13.5 C 15.25 13.306495 15.173063 13.133035 15.052734 13 C 14.915492 13.151735 14.720705 13.25 14.5 13.25 C 14.279295 13.25 14.084508 13.151735 13.947266 13 z M 6 16 L 6 17 L 18 17 L 18 16 L 6 16 z "
     id="path40" />
  <path
     style="opacity:0.1;fill:#000000"
     d="M 8.2675781 9.1875 L 8.2832031 9.6542969 C 8.2723263 9.6528704 8.2423855 9.6688608 8.234375 9.6660156 C 8.2238947 9.6634046 8.221316 9.6575092 8.2109375 9.6542969 L 9.0625 11.1875 C 7.2408 12.1354 6.0025 13.9326 6 16 L 18 16 C 17.998 13.9326 16.7592 12.1354 14.9375 11.1875 L 15.875 9.5 C 15.9282 9.4038 15.9087 9.2408 15.8125 9.1875 C 15.7765 9.1675 15.7239 9.1845 15.6875 9.1875 C 15.6269 9.1935 15.5957 9.2525 15.5625 9.3125 L 14.5625 11 C 13.77784 10.65194 12.9288 10.4375 12 10.4375 C 11.07124 10.4375 10.1597 10.6519 9.375 11 L 8.4375 9.3125 C 8.4041 9.2525 8.3733 9.1921 8.3125 9.1875 C 8.3053125 9.18704 8.284129 9.1872988 8.2675781 9.1875 z M 12 10.9375 C 12.85184 10.9375 13.627338 11.132314 14.359375 11.457031 A 0.50005 0.50005 0 0 0 14.546875 11.498047 A 0.50005 0.50005 0 0 0 14.707031 11.630859 C 16.226209 12.421345 17.240824 13.849368 17.425781 15.5 L 6.5742188 15.5 C 6.759449 13.849257 7.7738214 12.42133 9.2929688 11.630859 A 0.50005 0.50005 0 0 0 9.4589844 11.492188 A 0.50005 0.50005 0 0 0 9.578125 11.457031 C 10.30119 11.136273 11.148188 10.9375 12 10.9375 z M 9.5 12.25 C 8.8155648 12.25 8.25 12.815565 8.25 13.5 C 8.25 14.184435 8.8155648 14.75 9.5 14.75 C 10.184435 14.75 10.75 14.184435 10.75 13.5 C 10.75 12.815565 10.184435 12.25 9.5 12.25 z M 14.5 12.25 C 13.815565 12.25 13.25 12.815565 13.25 13.5 C 13.25 14.184435 13.815565 14.75 14.5 14.75 C 15.184435 14.75 15.75 14.184435 15.75 13.5 C 15.75 12.815565 15.184435 12.25 14.5 12.25 z M 9.5 12.75 C 9.91421 12.75 10.25 13.08579 10.25 13.5 C 10.25 13.91421 9.91421 14.25 9.5 14.25 C 9.08579 14.25 8.75 13.91421 8.75 13.5 C 8.75 13.08579 9.08579 12.75 9.5 12.75 z M 14.5 12.75 C 14.91421 12.75 15.25 13.08579 15.25 13.5 C 15.25 13.91421 14.91421 14.25 14.5 14.25 C 14.08579 14.25 13.75 13.91421 13.75 13.5 C 13.75 13.08579 14.08579 12.75 14.5 12.75 z M 6 17 L 6 19 L 18 19 L 18 17 L 6 17 z M 6.5 17.5 L 17.5 17.5 L 17.5 18.5 L 6.5 18.5 L 6.5 17.5 z "
     id="path45" />
  <path
     style="opacity:0.1;fill:#ffffff"
     d="M 8.1875 10.1875 C 8.0915 10.2407 8.0718 10.40396 8.125 10.5 L 8.6464844 11.4375 C 8.7493297 11.37316 8.8517612 11.308506 8.9589844 11.25 L 8.4375 10.3125 C 8.4041 10.2525 8.3733 10.1921 8.3125 10.1875 C 8.3025 10.18686 8.259 10.18686 8.25 10.1875 C 8.278 10.1875 8.2145 10.1719 8.1875 10.1875 z M 15.6875 10.1875 C 15.6269 10.1935 15.5957 10.2525 15.5625 10.3125 L 15.015625 11.234375 C 15.131995 11.297139 15.242253 11.367896 15.353516 11.4375 L 15.875 10.5 C 15.9282 10.4038 15.9087 10.2408 15.8125 10.1875 C 15.7765 10.1675 15.7239 10.1845 15.6875 10.1875 z M 9.5 12.75 C 9.08579 12.75 8.75 13.08579 8.75 13.5 C 8.75 13.693505 8.8269373 13.866965 8.9472656 14 C 9.0845076 13.848265 9.2792952 13.75 9.5 13.75 C 9.7207048 13.75 9.9154924 13.848265 10.052734 14 C 10.173063 13.866965 10.25 13.693505 10.25 13.5 C 10.25 13.08579 9.91421 12.75 9.5 12.75 z M 14.5 12.75 C 14.08579 12.75 13.75 13.08579 13.75 13.5 C 13.75 13.693505 13.826937 13.866965 13.947266 14 C 14.084508 13.848265 14.279295 13.75 14.5 13.75 C 14.720705 13.75 14.915492 13.848265 15.052734 14 C 15.173063 13.866965 15.25 13.693505 15.25 13.5 C 15.25 13.08579 14.91421 12.75 14.5 12.75 z M 6.1113281 16 C 6.0458676 16.325463 6.0004147 16.65702 6 17 L 18 17 C 17.999668 16.65702 17.954098 16.325463 17.888672 16 L 6.1113281 16 z M 6 19 L 6 20 L 18 20 L 18 19 L 6 19 z "
     id="path50" />
</svg>
