<?xml version="1.0" encoding="UTF-8" standalone="no"?>
<svg
   xmlns:dc="http://purl.org/dc/elements/1.1/"
   xmlns:cc="http://creativecommons.org/ns#"
   xmlns:rdf="http://www.w3.org/1999/02/22-rdf-syntax-ns#"
   xmlns:svg="http://www.w3.org/2000/svg"
   xmlns="http://www.w3.org/2000/svg"
   xmlns:sodipodi="http://sodipodi.sourceforge.net/DTD/sodipodi-0.dtd"
   xmlns:inkscape="http://www.inkscape.org/namespaces/inkscape"
   id="svg2"
   width="24"
   height="24"
   version="1.0"
   sodipodi:docname="authy.svg"
   inkscape:version="0.92.2 5c3e80d, 2017-08-06">
  <metadata
     id="metadata49">
    <rdf:RDF>
      <cc:Work
         rdf:about="">
        <dc:format>image/svg+xml</dc:format>
        <dc:type
           rdf:resource="http://purl.org/dc/dcmitype/StillImage" />
      </cc:Work>
    </rdf:RDF>
  </metadata>
  <sodipodi:namedview
     pagecolor="#ffffff"
     bordercolor="#666666"
     borderopacity="1"
     objecttolerance="10"
     gridtolerance="10"
     guidetolerance="10"
     inkscape:pageopacity="0"
     inkscape:pageshadow="2"
     inkscape:window-width="640"
     inkscape:window-height="480"
     id="namedview47"
     showgrid="false"
     inkscape:zoom="9.8333333"
     inkscape:cx="12"
     inkscape:cy="12"
     inkscape:window-x="0"
     inkscape:window-y="25"
     inkscape:window-maximized="0"
     inkscape:current-layer="svg2" />
  <defs
     id="defs4">
    <linearGradient
       id="linearGradient3335"
       x1="11.375"
       x2="11.375"
       y1="22"
       y2="-9.8173"
       gradientUnits="userSpaceOnUse">
      <stop
         id="stop3330"
         offset="0" />
      <stop
         id="stop3333"
         stop-opacity="0"
         offset="1" />
    </linearGradient>
    <linearGradient
       id="linearGradient3181"
       x1="-3.0608"
       x2="-3.0608"
       y1="27.258"
       y2="7.2537"
       gradientTransform="translate(12.119 -7.2582)"
       gradientUnits="userSpaceOnUse">
      <stop
         id="stop3189"
         stop-color="#bc211a"
         offset="0" />
      <stop
         id="stop3191"
         stop-color="#ff4746"
         offset="1" />
    </linearGradient>
    <filter
       id="filter3194"
       x="-.18"
       y="-.18"
       width="1.36"
       height="1.36"
       color-interpolation-filters="sRGB">
      <feGaussianBlur
         id="feGaussianBlur3196"
         stdDeviation="1.2" />
    </filter>
    <clipPath
       id="clipPath2849">
      <rect
         id="rect2851"
         x="1"
         y="1"
         width="20"
         height="20"
         rx="2"
         ry="2"
         fill="#fff"
         fill-rule="evenodd" />
    </clipPath>
    <linearGradient
       id="linearGradient3845"
       x1="11"
       x2="21"
       y1="19.5"
       y2="19.5"
       gradientTransform="translate(1,-1)"
       gradientUnits="userSpaceOnUse"
       spreadMethod="reflect">
      <stop
         id="stop3833"
         stop-color="#fff"
         offset="0" />
      <stop
         id="stop3821"
         stop-color="#fff"
         stop-opacity=".49804"
         offset=".75" />
      <stop
         id="stop3835"
         stop-color="#fff"
         stop-opacity="0"
         offset="1" />
    </linearGradient>
    <linearGradient
       id="linearGradient3961"
       x1="10"
       x2="10"
       y1="1"
       y2="16"
       gradientTransform="translate(1,-1)"
       gradientUnits="userSpaceOnUse">
      <stop
         id="stop3825"
         stop-color="#fff"
         offset="0" />
      <stop
         id="stop3829"
         stop-color="#fff"
         stop-opacity="0"
         offset="1" />
    </linearGradient>
  </defs>
  <g
     id="layer1"
     transform="translate(0,2)">
    <g
       id="g3337"
       transform="translate(1,-1)">
      <rect
         id="rect3371"
         x=".5"
         y=".5"
         width="21"
         height="21.5"
         rx="2.5"
         ry="2.5"
         fill="url(#linearGradient3335)"
         opacity=".3" />
      <rect
         id="rect2553"
         x="1"
         y="2"
         width="20"
         height="20"
         rx="2.381"
         ry="2.3256"
         opacity=".5" />
    </g>
    <rect
       id="rect3173"
       x="2"
       width="20"
       height="20"
       rx="2"
       ry="2"
       fill="url(#linearGradient3181)"
       fill-rule="evenodd" />
    <path
       id="rect3050"
       d="m4 0c-1.108 0-2 0.892-2 2v16c0 1.108 0.892 2 2 2h16c1.108 0 2-0.892 2-2v-16c0-1.108-0.892-2-2-2h-16zm0 1.0312h16c0.5497 0 0.96875 0.41905 0.96875 0.96875v16c0 0.5497-0.41905 0.96875-0.96875 0.96875h-16c-0.5497 0-0.96875-0.41905-0.96875-0.96875v-16c0-0.5497 0.41905-0.96875 0.96875-0.96875z"
       fill="url(#linearGradient3961)"
       fill-rule="evenodd"
       opacity=".35" />
    <path
       id="path3235"
       d="m4 20c-1.108 0-2-0.892-2-2v-1c0 1.108 0.892 2 2 2h16c1.108 0 2-0.892 2-2v1c0 1.108-0.892 2-2 2h-16z"
       fill="url(#linearGradient3845)"
       fill-rule="evenodd"
       opacity=".2" />
  </g>
  <g
     id="layer2"
     transform="translate(0,2)">
    <rect
       id="rect2410"
       transform="translate(1,-1)"
       x="3"
       y="3"
       width="16"
       height="16"
       rx="2"
       ry="2"
       clip-path="url(#clipPath2849)"
       fill="#fff"
       filter="url(#filter3194)"
       opacity=".15" />
  </g>
  <defs
     id="defs37">
    <filter
       id="w">
      <feGaussianBlur
         stdDeviation="0.20998568"
         id="feGaussianBlur29" />
    </filter>
    <linearGradient
       id="a"
       gradientUnits="userSpaceOnUse"
       x1="8"
       y1="3"
       x2="8"
       y2="14.000075">
      <stop
         stop-color="#fafafa"
         offset="0"
         id="stop32" />
      <stop
         stop-color="#ebebeb"
         offset="1"
         id="stop34" />
    </linearGradient>
  </defs>
  <g
     id="main">
    <path
       style="opacity:0.3;fill:#000000"
       d="M 13.785156 8.453125 C 13.545107 8.8217018 13.571664 9.304938 13.902344 9.6269531 L 15.976562 11.648438 L 16.322266 11.984375 C 16.669275 12.322278 16.886807 12.734917 16.982422 13.167969 C 17.151443 12.405062 16.933671 11.579736 16.322266 10.984375 L 15.976562 10.648438 L 13.902344 8.6269531 C 13.849833 8.5758182 13.823275 8.5116547 13.785156 8.453125 z M 9.40625 9.9492188 C 8.781535 9.9492188 8.1567244 10.182018 7.6777344 10.648438 C 7.0663288 11.243773 6.8485566 12.069117 7.0175781 12.832031 C 7.1131928 12.398984 7.3307248 11.986326 7.6777344 11.648438 C 8.6357144 10.715597 10.176866 10.715597 11.134766 11.648438 L 11.480469 11.984375 L 13.556641 14.005859 C 13.939831 14.378999 14.556303 14.378999 14.939453 14.005859 C 15.269633 13.684339 15.297421 13.200429 15.058594 12.832031 C 15.020351 12.890899 14.992239 12.954458 14.939453 13.005859 C 14.556303 13.378999 13.939831 13.378999 13.556641 13.005859 L 11.480469 10.984375 L 11.134766 10.648438 C 10.655816 10.182017 10.030965 9.9492188 9.40625 9.9492188 z M 5.0507812 12.832031 C 4.8989463 14.088309 5.299055 15.395478 6.2929688 16.363281 L 6.6386719 16.699219 L 8.7148438 18.720703 C 9.0980338 19.093843 9.7145062 19.093843 10.097656 18.720703 C 10.42799 18.399033 10.456 17.91533 10.216797 17.546875 C 10.178622 17.605556 10.150291 17.669449 10.097656 17.720703 C 9.7145062 18.093843 9.0980338 18.093843 8.7148438 17.720703 L 6.6386719 15.699219 L 6.2929688 15.363281 C 5.5624825 14.651985 5.1623738 13.755344 5.0507812 12.832031 z M 8.9414062 13.167969 C 8.702579 13.53636 8.7303666 14.020268 9.0605469 14.341797 L 11.134766 16.363281 L 11.480469 16.699219 C 13.204869 18.378319 15.982731 18.378319 17.707031 16.699219 C 18.700868 15.731434 19.102963 14.424224 18.951172 13.167969 C 18.839586 14.091308 18.437495 14.987903 17.707031 15.699219 C 15.982731 17.378319 13.204869 17.378319 11.480469 15.699219 L 11.134766 15.363281 L 9.0605469 13.341797 C 9.0077613 13.290394 8.9796491 13.226838 8.9414062 13.167969 z "
       id="path39" />
    <path
       d="m10.594 3c-0.25004 0-0.49978 0.092714-0.69137 0.27928-0.38319 0.37314-0.38319 0.97445 0 1.3476l2.0741 2.0214 0.34569 0.33592c0.95798 0.93284 0.95798 2.4342 0 3.367-0.95798 0.93284-2.4989 0.93284-3.4568 0l-0.34568-0.33592-2.0761-2.0214c-0.38319-0.37314-0.99955-0.37314-1.3827 0-0.38319 0.37314-0.38319 0.97445 0 1.3476l2.0741 2.0214 0.34568 0.33592c1.7244 1.6791 4.5019 1.6791 6.2262 0s1.7244-4.3831 0-6.0622l-0.34568-0.33592-2.0761-2.0214c-0.1916-0.18657-0.44133-0.27928-0.69137-0.27928zm-5.1872 1.041c-1.1252 0-2.2509 0.42014-3.1131 1.2597-1.7244 1.6791-1.7244 4.3831 0 6.0622l0.34568 0.33592 2.0761 2.0214c0.38319 0.37314 0.99955 0.37314 1.3827 0 0.38319-0.37314 0.38319-0.97445 0-1.3476l-2.0741-2.0214-0.34568-0.33592c-0.95798-0.93284-0.95798-2.4342 0-3.367 0.95798-0.93284 2.4989-0.93284 3.4568 0l0.34568 0.33592 2.0761 2.0214c0.38319 0.37314 0.99955 0.37314 1.3827 0 0.38319-0.37314 0.38319-0.97445 0-1.3476l-2.0741-2.0214-0.34568-0.33592c-0.86218-0.83956-1.9879-1.2597-3.1131-1.2597z"
       fill="#fff"
       id="base"
       transform="translate(4,4)" />
  </g>
</svg>
