<?xml version="1.0" encoding="UTF-8" standalone="no"?>
<svg
   xmlns:dc="http://purl.org/dc/elements/1.1/"
   xmlns:cc="http://creativecommons.org/ns#"
   xmlns:rdf="http://www.w3.org/1999/02/22-rdf-syntax-ns#"
   xmlns:svg="http://www.w3.org/2000/svg"
   xmlns="http://www.w3.org/2000/svg"
   xmlns:sodipodi="http://sodipodi.sourceforge.net/DTD/sodipodi-0.dtd"
   xmlns:inkscape="http://www.inkscape.org/namespaces/inkscape"
   id="svg2"
   width="24"
   height="24"
   version="1.0"
   sodipodi:docname="bitdefender.svg"
   inkscape:version="0.92.2 5c3e80d, 2017-08-06">
  <metadata
     id="metadata49">
    <rdf:RDF>
      <cc:Work
         rdf:about="">
        <dc:format>image/svg+xml</dc:format>
        <dc:type
           rdf:resource="http://purl.org/dc/dcmitype/StillImage" />
      </cc:Work>
    </rdf:RDF>
  </metadata>
  <sodipodi:namedview
     pagecolor="#ffffff"
     bordercolor="#666666"
     borderopacity="1"
     objecttolerance="10"
     gridtolerance="10"
     guidetolerance="10"
     inkscape:pageopacity="0"
     inkscape:pageshadow="2"
     inkscape:window-width="640"
     inkscape:window-height="480"
     id="namedview47"
     showgrid="false"
     inkscape:zoom="9.8333333"
     inkscape:cx="12"
     inkscape:cy="12"
     inkscape:window-x="0"
     inkscape:window-y="25"
     inkscape:window-maximized="0"
     inkscape:current-layer="svg2" />
  <defs
     id="defs4">
    <linearGradient
       id="linearGradient3335"
       x1="11.375"
       x2="11.375"
       y1="22"
       y2="-9.8173"
       gradientUnits="userSpaceOnUse">
      <stop
         id="stop3330"
         offset="0" />
      <stop
         id="stop3333"
         stop-opacity="0"
         offset="1" />
    </linearGradient>
    <linearGradient
       id="linearGradient3181"
       x1="-3.0608"
       x2="-3.0608"
       y1="27.258"
       y2="7.2537"
       gradientTransform="translate(12.119 -7.2582)"
       gradientUnits="userSpaceOnUse">
      <stop
         id="stop3189"
         stop-color="#ca211b"
         offset="0" />
      <stop
         id="stop3191"
         stop-color="#eb140c"
         offset="1" />
    </linearGradient>
    <filter
       id="filter3194"
       x="-.18"
       y="-.18"
       width="1.36"
       height="1.36"
       color-interpolation-filters="sRGB">
      <feGaussianBlur
         id="feGaussianBlur3196"
         stdDeviation="1.2" />
    </filter>
    <clipPath
       id="clipPath2849">
      <rect
         id="rect2851"
         x="1"
         y="1"
         width="20"
         height="20"
         rx="2"
         ry="2"
         fill="#fff"
         fill-rule="evenodd" />
    </clipPath>
    <linearGradient
       id="linearGradient3845"
       x1="11"
       x2="21"
       y1="19.5"
       y2="19.5"
       gradientTransform="translate(1,-1)"
       gradientUnits="userSpaceOnUse"
       spreadMethod="reflect">
      <stop
         id="stop3833"
         stop-color="#fff"
         offset="0" />
      <stop
         id="stop3821"
         stop-color="#fff"
         stop-opacity=".49804"
         offset=".75" />
      <stop
         id="stop3835"
         stop-color="#fff"
         stop-opacity="0"
         offset="1" />
    </linearGradient>
    <linearGradient
       id="linearGradient3961"
       x1="10"
       x2="10"
       y1="1"
       y2="16"
       gradientTransform="translate(1,-1)"
       gradientUnits="userSpaceOnUse">
      <stop
         id="stop3825"
         stop-color="#fff"
         offset="0" />
      <stop
         id="stop3829"
         stop-color="#fff"
         stop-opacity="0"
         offset="1" />
    </linearGradient>
  </defs>
  <g
     id="layer1"
     transform="translate(0,2)">
    <g
       id="g3337"
       transform="translate(1,-1)">
      <rect
         id="rect3371"
         x=".5"
         y=".5"
         width="21"
         height="21.5"
         rx="2.5"
         ry="2.5"
         fill="url(#linearGradient3335)"
         opacity=".3" />
      <rect
         id="rect2553"
         x="1"
         y="2"
         width="20"
         height="20"
         rx="2.381"
         ry="2.3256"
         opacity=".5" />
    </g>
    <rect
       id="rect3173"
       x="2"
       width="20"
       height="20"
       rx="2"
       ry="2"
       fill="url(#linearGradient3181)"
       fill-rule="evenodd" />
    <path
       id="rect3050"
       d="m4 0c-1.108 0-2 0.892-2 2v16c0 1.108 0.892 2 2 2h16c1.108 0 2-0.892 2-2v-16c0-1.108-0.892-2-2-2h-16zm0 1.0312h16c0.5497 0 0.96875 0.41905 0.96875 0.96875v16c0 0.5497-0.41905 0.96875-0.96875 0.96875h-16c-0.5497 0-0.96875-0.41905-0.96875-0.96875v-16c0-0.5497 0.41905-0.96875 0.96875-0.96875z"
       fill="url(#linearGradient3961)"
       fill-rule="evenodd"
       opacity=".35" />
    <path
       id="path3235"
       d="m4 20c-1.108 0-2-0.892-2-2v-1c0 1.108 0.892 2 2 2h16c1.108 0 2-0.892 2-2v1c0 1.108-0.892 2-2 2h-16z"
       fill="url(#linearGradient3845)"
       fill-rule="evenodd"
       opacity=".2" />
  </g>
  <g
     id="layer2"
     transform="translate(0,2)">
    <rect
       id="rect2410"
       transform="translate(1,-1)"
       x="3"
       y="3"
       width="16"
       height="16"
       rx="2"
       ry="2"
       clip-path="url(#clipPath2849)"
       fill="#fff"
       filter="url(#filter3194)"
       opacity=".15" />
  </g>
  <defs
     id="defs37">
    <filter
       id="w">
      <feGaussianBlur
         stdDeviation="0.20998568"
         id="feGaussianBlur29" />
    </filter>
    <linearGradient
       id="a"
       gradientUnits="userSpaceOnUse"
       x1="8"
       y1="1.2910156"
       x2="8"
       y2="14.9992626">
      <stop
         stop-color="#fafafa"
         offset="0"
         id="stop32" />
      <stop
         stop-color="#ebebeb"
         offset="1"
         id="stop34" />
    </linearGradient>
  </defs>
  <g
     id="main">
    <path
       style="opacity:0.3;fill:#000000"
       d="M 12.207031 6.2910156 L 11.666016 7.4882812 L 10.912109 10.542969 L 11.134766 10.642578 L 12.207031 6.2910156 z M 14.570312 6.7070312 L 14.240234 7.3105469 L 13.859375 9.1542969 L 14.037109 9.2949219 L 14.570312 6.7070312 z M 9.2402344 6.8515625 C 9.149027 6.890083 9.0657542 6.9421957 8.9765625 6.984375 L 7.1015625 15.072266 L 7.3339844 15.072266 L 9.2402344 6.8515625 z M 15.5 9.0546875 L 15.248047 9.8203125 L 18.701172 13.023438 L 18.931641 13.208984 L 18.863281 13.173828 L 18.992188 13.294922 C 19.009683 12.940098 18.987925 12.593469 18.945312 12.251953 L 15.5 9.0546875 z M 12.703125 10.115234 L 12.271484 10.902344 L 16.931641 13.214844 L 18.636719 13.972656 L 15.630859 11.570312 L 12.703125 10.115234 z M 5.0292969 12.744141 C 5.0236128 12.837592 5.0037592 12.927055 5.0019531 13.021484 C 4.9300531 16.793984 8.0116815 19.928047 11.863281 19.998047 C 14.691881 20.050047 17.169953 18.428266 18.314453 16.072266 L 17.705078 16.072266 C 16.411112 17.870541 14.268275 19.042259 11.863281 18.998047 C 8.2607186 18.932573 5.3341598 16.186011 5.0292969 12.744141 z M 9.2519531 12.820312 L 8.8242188 13.765625 L 18.767578 15.03125 L 15.611328 13.628906 L 9.2519531 12.820312 z M 18.505859 13.998047 L 18.931641 14.208984 L 18.699219 14.021484 L 18.505859 13.998047 z "
       id="path39" />
    <path
       d="M 8.2070312 1.2910156 L 4.8242188 8.765625 L 14.767578 10.03125 L 6.9121094 6.5429688 L 8.2070312 1.2910156 z M 10.570312 1.7070312 L 8.2714844 5.9023438 L 14.931641 9.2089844 L 9.859375 5.1542969 L 10.570312 1.7070312 z M 5.2402344 1.8515625 C 2.7943344 2.8845625 1.0549531 5.2504844 1.0019531 8.0214844 C 0.93005312 11.793984 4.0116813 14.928047 7.8632812 14.998047 C 10.691881 15.050047 13.169953 13.428266 14.314453 11.072266 L 3.1015625 11.072266 L 5.2402344 1.8515625 z M 12.007812 2.5214844 L 11.248047 4.8203125 L 14.992188 8.2949219 C 15.115597 5.7920219 13.641713 3.5533844 12.007812 2.5214844 z "
       fill="#fff"
       id="base"
       transform="translate(4,4)" />
  </g>
</svg>
