<?xml version="1.0" encoding="UTF-8" standalone="no"?>
<svg
   xmlns:dc="http://purl.org/dc/elements/1.1/"
   xmlns:cc="http://creativecommons.org/ns#"
   xmlns:rdf="http://www.w3.org/1999/02/22-rdf-syntax-ns#"
   xmlns:svg="http://www.w3.org/2000/svg"
   xmlns="http://www.w3.org/2000/svg"
   xmlns:sodipodi="http://sodipodi.sourceforge.net/DTD/sodipodi-0.dtd"
   xmlns:inkscape="http://www.inkscape.org/namespaces/inkscape"
   id="svg2"
   width="24"
   height="24"
   version="1.0"
   sodipodi:docname="bitwig.svg"
   inkscape:version="0.92.2 5c3e80d, 2017-08-06">
  <metadata
     id="metadata49">
    <rdf:RDF>
      <cc:Work
         rdf:about="">
        <dc:format>image/svg+xml</dc:format>
        <dc:type
           rdf:resource="http://purl.org/dc/dcmitype/StillImage" />
      </cc:Work>
    </rdf:RDF>
  </metadata>
  <sodipodi:namedview
     pagecolor="#ffffff"
     bordercolor="#666666"
     borderopacity="1"
     objecttolerance="10"
     gridtolerance="10"
     guidetolerance="10"
     inkscape:pageopacity="0"
     inkscape:pageshadow="2"
     inkscape:window-width="640"
     inkscape:window-height="480"
     id="namedview47"
     showgrid="false"
     inkscape:zoom="9.8333333"
     inkscape:cx="12"
     inkscape:cy="12"
     inkscape:window-x="0"
     inkscape:window-y="25"
     inkscape:window-maximized="0"
     inkscape:current-layer="svg2" />
  <defs
     id="defs4">
    <linearGradient
       id="linearGradient3335"
       x1="11.375"
       x2="11.375"
       y1="22"
       y2="-9.8173"
       gradientUnits="userSpaceOnUse">
      <stop
         id="stop3330"
         offset="0" />
      <stop
         id="stop3333"
         stop-opacity="0"
         offset="1" />
    </linearGradient>
    <linearGradient
       id="linearGradient3181"
       x1="-3.0608"
       x2="-3.0608"
       y1="27.258"
       y2="7.2537"
       gradientTransform="translate(12.119 -7.2582)"
       gradientUnits="userSpaceOnUse">
      <stop
         id="stop3189"
         stop-color="#e51f38"
         offset="0" />
      <stop
         id="stop3191"
         stop-color="#fb4158"
         offset="1" />
    </linearGradient>
    <filter
       id="filter3194"
       x="-.18"
       y="-.18"
       width="1.36"
       height="1.36"
       color-interpolation-filters="sRGB">
      <feGaussianBlur
         id="feGaussianBlur3196"
         stdDeviation="1.2" />
    </filter>
    <clipPath
       id="clipPath2849">
      <rect
         id="rect2851"
         x="1"
         y="1"
         width="20"
         height="20"
         rx="2"
         ry="2"
         fill="#fff"
         fill-rule="evenodd" />
    </clipPath>
    <linearGradient
       id="linearGradient3845"
       x1="11"
       x2="21"
       y1="19.5"
       y2="19.5"
       gradientTransform="translate(1,-1)"
       gradientUnits="userSpaceOnUse"
       spreadMethod="reflect">
      <stop
         id="stop3833"
         stop-color="#fff"
         offset="0" />
      <stop
         id="stop3821"
         stop-color="#fff"
         stop-opacity=".49804"
         offset=".75" />
      <stop
         id="stop3835"
         stop-color="#fff"
         stop-opacity="0"
         offset="1" />
    </linearGradient>
    <linearGradient
       id="linearGradient3961"
       x1="10"
       x2="10"
       y1="1"
       y2="16"
       gradientTransform="translate(1,-1)"
       gradientUnits="userSpaceOnUse">
      <stop
         id="stop3825"
         stop-color="#fff"
         offset="0" />
      <stop
         id="stop3829"
         stop-color="#fff"
         stop-opacity="0"
         offset="1" />
    </linearGradient>
  </defs>
  <g
     id="layer1"
     transform="translate(0,2)">
    <g
       id="g3337"
       transform="translate(1,-1)">
      <rect
         id="rect3371"
         x=".5"
         y=".5"
         width="21"
         height="21.5"
         rx="2.5"
         ry="2.5"
         fill="url(#linearGradient3335)"
         opacity=".3" />
      <rect
         id="rect2553"
         x="1"
         y="2"
         width="20"
         height="20"
         rx="2.381"
         ry="2.3256"
         opacity=".5" />
    </g>
    <rect
       id="rect3173"
       x="2"
       width="20"
       height="20"
       rx="2"
       ry="2"
       fill="url(#linearGradient3181)"
       fill-rule="evenodd" />
    <path
       id="rect3050"
       d="m4 0c-1.108 0-2 0.892-2 2v16c0 1.108 0.892 2 2 2h16c1.108 0 2-0.892 2-2v-16c0-1.108-0.892-2-2-2h-16zm0 1.0312h16c0.5497 0 0.96875 0.41905 0.96875 0.96875v16c0 0.5497-0.41905 0.96875-0.96875 0.96875h-16c-0.5497 0-0.96875-0.41905-0.96875-0.96875v-16c0-0.5497 0.41905-0.96875 0.96875-0.96875z"
       fill="url(#linearGradient3961)"
       fill-rule="evenodd"
       opacity=".35" />
    <path
       id="path3235"
       d="m4 20c-1.108 0-2-0.892-2-2v-1c0 1.108 0.892 2 2 2h16c1.108 0 2-0.892 2-2v1c0 1.108-0.892 2-2 2h-16z"
       fill="url(#linearGradient3845)"
       fill-rule="evenodd"
       opacity=".2" />
  </g>
  <g
     id="layer2"
     transform="translate(0,2)">
    <rect
       id="rect2410"
       transform="translate(1,-1)"
       x="3"
       y="3"
       width="16"
       height="16"
       rx="2"
       ry="2"
       clip-path="url(#clipPath2849)"
       fill="#fff"
       filter="url(#filter3194)"
       opacity=".15" />
  </g>
  <defs
     id="defs37">
    <filter
       id="w">
      <feGaussianBlur
         stdDeviation="0.20998568"
         id="feGaussianBlur29" />
    </filter>
    <linearGradient
       id="a"
       gradientUnits="userSpaceOnUse"
       x1="8"
       y1="4.6522994"
       x2="8"
       y2="11.3475705">
      <stop
         stop-color="#fafafa"
         offset="0"
         id="stop32" />
      <stop
         stop-color="#ebebeb"
         offset="1"
         id="stop34" />
    </linearGradient>
  </defs>
  <g
     id="main">
    <path
       style="opacity:0.3;fill:#000000"
       d="M 7.5839844 10.064453 A 0.91305 0.91305 0 0 0 7.4355469 10.564453 A 0.91305 0.91305 0 0 0 7.7851562 11.283203 A 0.91305 0.91305 0 0 1 8.3476562 11.087891 A 0.91305 0.91305 0 0 1 8.9121094 11.28125 A 0.91305 0.91305 0 0 0 9.2617188 10.564453 A 0.91305 0.91305 0 0 0 9.1132812 10.066406 A 0.91305 0.91305 0 0 1 8.3476562 10.478516 A 0.91305 0.91305 0 0 1 7.5839844 10.064453 z M 10.017578 10.064453 A 0.91305 0.91305 0 0 0 9.8691406 10.564453 A 0.91305 0.91305 0 0 0 10.21875 11.283203 A 0.91305 0.91305 0 0 1 10.783203 11.087891 A 0.91305 0.91305 0 0 1 11.345703 11.283203 A 0.91305 0.91305 0 0 0 11.695312 10.564453 A 0.91305 0.91305 0 0 0 11.544922 10.066406 A 0.91305 0.91305 0 0 1 10.783203 10.478516 A 0.91305 0.91305 0 0 1 10.017578 10.064453 z M 12.453125 10.064453 A 0.91305 0.91305 0 0 0 12.304688 10.564453 A 0.91305 0.91305 0 0 0 12.654297 11.283203 A 0.91305 0.91305 0 0 1 13.216797 11.087891 A 0.91305 0.91305 0 0 1 13.78125 11.28125 A 0.91305 0.91305 0 0 0 14.130859 10.564453 A 0.91305 0.91305 0 0 0 13.982422 10.066406 A 0.91305 0.91305 0 0 1 13.216797 10.478516 A 0.91305 0.91305 0 0 1 12.453125 10.064453 z M 14.888672 10.064453 A 0.91305 0.91305 0 0 0 14.740234 10.564453 A 0.91305 0.91305 0 0 0 15.089844 11.283203 A 0.91305 0.91305 0 0 1 15.652344 11.087891 A 0.91305 0.91305 0 0 1 16.216797 11.28125 A 0.91305 0.91305 0 0 0 16.566406 10.564453 A 0.91305 0.91305 0 0 0 16.417969 10.066406 A 0.91305 0.91305 0 0 1 15.652344 10.478516 A 0.91305 0.91305 0 0 1 14.888672 10.064453 z M 5.1484375 12.5 A 0.91305 0.91305 0 0 0 5 13 A 0.91305 0.91305 0 0 0 5.3496094 13.71875 A 0.91305 0.91305 0 0 1 5.9140625 13.521484 A 0.91305 0.91305 0 0 1 6.4765625 13.71875 A 0.91305 0.91305 0 0 0 6.8261719 13 A 0.91305 0.91305 0 0 0 6.6757812 12.501953 A 0.91305 0.91305 0 0 1 5.9140625 12.914062 A 0.91305 0.91305 0 0 1 5.1484375 12.5 z M 7.5839844 12.5 A 0.91305 0.91305 0 0 0 7.4355469 13 A 0.91305 0.91305 0 0 0 7.7832031 13.71875 A 0.91305 0.91305 0 0 1 8.3476562 13.521484 A 0.91305 0.91305 0 0 1 8.9121094 13.716797 A 0.91305 0.91305 0 0 0 9.2617188 13 A 0.91305 0.91305 0 0 0 9.1113281 12.501953 A 0.91305 0.91305 0 0 1 8.3476562 12.914062 A 0.91305 0.91305 0 0 1 7.5839844 12.5 z M 10.017578 12.5 A 0.91305 0.91305 0 0 0 9.8691406 13 A 0.91305 0.91305 0 0 0 10.783203 13.914062 A 0.91305 0.91305 0 0 0 11.695312 13 A 0.91305 0.91305 0 0 0 11.544922 12.501953 A 0.91305 0.91305 0 0 1 10.783203 12.914062 A 0.91305 0.91305 0 0 1 10.017578 12.5 z M 12.453125 12.5 A 0.91305 0.91305 0 0 0 12.304688 13 A 0.91305 0.91305 0 0 0 13.216797 13.914062 A 0.91305 0.91305 0 0 0 14.130859 13 A 0.91305 0.91305 0 0 0 13.980469 12.501953 A 0.91305 0.91305 0 0 1 13.216797 12.914062 A 0.91305 0.91305 0 0 1 12.453125 12.5 z M 14.888672 12.5 A 0.91305 0.91305 0 0 0 14.740234 13 A 0.91305 0.91305 0 0 0 15.087891 13.71875 A 0.91305 0.91305 0 0 1 15.652344 13.521484 A 0.91305 0.91305 0 0 1 16.216797 13.716797 A 0.91305 0.91305 0 0 0 16.566406 13 A 0.91305 0.91305 0 0 0 16.416016 12.501953 A 0.91305 0.91305 0 0 1 15.652344 12.914062 A 0.91305 0.91305 0 0 1 14.888672 12.5 z M 17.322266 12.5 A 0.91305 0.91305 0 0 0 17.173828 13 A 0.91305 0.91305 0 0 0 17.523438 13.71875 A 0.91305 0.91305 0 0 1 18.087891 13.521484 A 0.91305 0.91305 0 0 1 18.650391 13.71875 A 0.91305 0.91305 0 0 0 19 13 A 0.91305 0.91305 0 0 0 18.849609 12.501953 A 0.91305 0.91305 0 0 1 18.087891 12.914062 A 0.91305 0.91305 0 0 1 17.322266 12.5 z M 5.1484375 14.933594 A 0.91305 0.91305 0 0 0 5 15.435547 A 0.91305 0.91305 0 0 0 5.9140625 16.347656 A 0.91305 0.91305 0 0 0 6.8261719 15.435547 A 0.91305 0.91305 0 0 0 6.6757812 14.935547 A 0.91305 0.91305 0 0 1 5.9140625 15.347656 A 0.91305 0.91305 0 0 1 5.1484375 14.933594 z M 7.5859375 14.933594 A 0.91305 0.91305 0 0 0 7.4355469 15.435547 A 0.91305 0.91305 0 0 0 8.3476562 16.347656 A 0.91305 0.91305 0 0 0 9.2617188 15.435547 A 0.91305 0.91305 0 0 0 9.1113281 14.933594 A 0.91305 0.91305 0 0 1 8.3476562 15.347656 A 0.91305 0.91305 0 0 1 7.5859375 14.933594 z M 14.890625 14.933594 A 0.91305 0.91305 0 0 0 14.740234 15.435547 A 0.91305 0.91305 0 0 0 15.652344 16.347656 A 0.91305 0.91305 0 0 0 16.566406 15.435547 A 0.91305 0.91305 0 0 0 16.416016 14.933594 A 0.91305 0.91305 0 0 1 15.652344 15.347656 A 0.91305 0.91305 0 0 1 14.890625 14.933594 z M 17.322266 14.933594 A 0.91305 0.91305 0 0 0 17.173828 15.435547 A 0.91305 0.91305 0 0 0 18.087891 16.347656 A 0.91305 0.91305 0 0 0 19 15.435547 A 0.91305 0.91305 0 0 0 18.849609 14.935547 A 0.91305 0.91305 0 0 1 18.087891 15.347656 A 0.91305 0.91305 0 0 1 17.322266 14.933594 z "
       id="path39" />
    <path
       d="m4.3477 4.6523a0.91305 0.91305 0 0 0-0.91211 0.91211 0.91305 0.91305 0 0 0 0.91211 0.91406 0.91305 0.91305 0 0 0 0.91406-0.91406 0.91305 0.91305 0 0 0-0.91406-0.91211zm2.4355 0a0.91305 0.91305 0 0 0-0.91406 0.91211 0.91305 0.91305 0 0 0 0.91406 0.91406 0.91305 0.91305 0 0 0 0.91211-0.91406 0.91305 0.91305 0 0 0-0.91211-0.91211zm2.4336 0a0.91305 0.91305 0 0 0-0.91211 0.91211 0.91305 0.91305 0 0 0 0.91211 0.91406 0.91305 0.91305 0 0 0 0.91406-0.91406 0.91305 0.91305 0 0 0-0.91406-0.91211zm2.4355 0a0.91305 0.91305 0 0 0-0.91211 0.91211 0.91305 0.91305 0 0 0 0.91211 0.91406 0.91305 0.91305 0 0 0 0.91406-0.91406 0.91305 0.91305 0 0 0-0.91406-0.91211zm-9.7383 2.4355a0.91305 0.91305 0 0 0-0.91406 0.91211 0.91305 0.91305 0 0 0 0.91406 0.91406 0.91305 0.91305 0 0 0 0.91211-0.91406 0.91305 0.91305 0 0 0-0.91211-0.91211zm2.4336 0a0.91305 0.91305 0 0 0-0.91211 0.91211 0.91305 0.91305 0 0 0 0.91211 0.91406 0.91305 0.91305 0 0 0 0.91406-0.91406 0.91305 0.91305 0 0 0-0.91406-0.91211zm2.4355 0a0.91305 0.91305 0 0 0-0.91406 0.91211 0.91305 0.91305 0 0 0 0.91406 0.91406 0.91305 0.91305 0 0 0 0.91211-0.91406 0.91305 0.91305 0 0 0-0.91211-0.91211zm2.4336 0a0.91305 0.91305 0 0 0-0.91211 0.91211 0.91305 0.91305 0 0 0 0.91211 0.91406 0.91305 0.91305 0 0 0 0.91406-0.91406 0.91305 0.91305 0 0 0-0.91406-0.91211zm2.4355 0a0.91305 0.91305 0 0 0-0.91211 0.91211 0.91305 0.91305 0 0 0 0.91211 0.91406 0.91305 0.91305 0 0 0 0.91406-0.91406 0.91305 0.91305 0 0 0-0.91406-0.91211zm2.4355 0a0.91305 0.91305 0 0 0-0.91406 0.91211 0.91305 0.91305 0 0 0 0.91406 0.91406 0.91305 0.91305 0 0 0 0.91211-0.91406 0.91305 0.91305 0 0 0-0.91211-0.91211zm-12.174 2.4336a0.91305 0.91305 0 0 0-0.91406 0.91406 0.91305 0.91305 0 0 0 0.91406 0.91211 0.91305 0.91305 0 0 0 0.91211-0.91211 0.91305 0.91305 0 0 0-0.91211-0.91406zm2.4336 0a0.91305 0.91305 0 0 0-0.91211 0.91406 0.91305 0.91305 0 0 0 0.91211 0.91211 0.91305 0.91305 0 0 0 0.91406-0.91211 0.91305 0.91305 0 0 0-0.91406-0.91406zm7.3047 0a0.91305 0.91305 0 0 0-0.91211 0.91406 0.91305 0.91305 0 0 0 0.91211 0.91211 0.91305 0.91305 0 0 0 0.91406-0.91211 0.91305 0.91305 0 0 0-0.91406-0.91406zm2.4355 0a0.91305 0.91305 0 0 0-0.91406 0.91406 0.91305 0.91305 0 0 0 0.91406 0.91211 0.91305 0.91305 0 0 0 0.91211-0.91211 0.91305 0.91305 0 0 0-0.91211-0.91406z"
       fill="#fff"
       id="base"
       transform="translate(4,4)" />
  </g>
</svg>
