<?xml version="1.0" encoding="UTF-8" standalone="no"?>
<svg
   xmlns:dc="http://purl.org/dc/elements/1.1/"
   xmlns:cc="http://creativecommons.org/ns#"
   xmlns:rdf="http://www.w3.org/1999/02/22-rdf-syntax-ns#"
   xmlns:svg="http://www.w3.org/2000/svg"
   xmlns="http://www.w3.org/2000/svg"
   xmlns:sodipodi="http://sodipodi.sourceforge.net/DTD/sodipodi-0.dtd"
   xmlns:inkscape="http://www.inkscape.org/namespaces/inkscape"
   id="svg2"
   width="24"
   height="24"
   version="1.0"
   sodipodi:docname="cherrytree.svg"
   inkscape:version="0.92.2 5c3e80d, 2017-08-06">
  <metadata
     id="metadata49">
    <rdf:RDF>
      <cc:Work
         rdf:about="">
        <dc:format>image/svg+xml</dc:format>
        <dc:type
           rdf:resource="http://purl.org/dc/dcmitype/StillImage" />
      </cc:Work>
    </rdf:RDF>
  </metadata>
  <sodipodi:namedview
     pagecolor="#ffffff"
     bordercolor="#666666"
     borderopacity="1"
     objecttolerance="10"
     gridtolerance="10"
     guidetolerance="10"
     inkscape:pageopacity="0"
     inkscape:pageshadow="2"
     inkscape:window-width="640"
     inkscape:window-height="480"
     id="namedview47"
     showgrid="false"
     inkscape:zoom="9.8333333"
     inkscape:cx="12"
     inkscape:cy="12"
     inkscape:window-x="0"
     inkscape:window-y="25"
     inkscape:window-maximized="0"
     inkscape:current-layer="svg2" />
  <defs
     id="defs4">
    <linearGradient
       id="linearGradient3335"
       x1="11.375"
       x2="11.375"
       y1="22"
       y2="-9.8173"
       gradientUnits="userSpaceOnUse">
      <stop
         id="stop3330"
         offset="0" />
      <stop
         id="stop3333"
         stop-opacity="0"
         offset="1" />
    </linearGradient>
    <linearGradient
       id="linearGradient3181"
       x1="-3.0608"
       x2="-3.0608"
       y1="27.258"
       y2="7.2537"
       gradientTransform="translate(12.119 -7.2582)"
       gradientUnits="userSpaceOnUse">
      <stop
         id="stop3189"
         stop-color="#860000"
         offset="0" />
      <stop
         id="stop3191"
         stop-color="#b90909"
         offset="1" />
    </linearGradient>
    <filter
       id="filter3194"
       x="-.18"
       y="-.18"
       width="1.36"
       height="1.36"
       color-interpolation-filters="sRGB">
      <feGaussianBlur
         id="feGaussianBlur3196"
         stdDeviation="1.2" />
    </filter>
    <clipPath
       id="clipPath2849">
      <rect
         id="rect2851"
         x="1"
         y="1"
         width="20"
         height="20"
         rx="2"
         ry="2"
         fill="#fff"
         fill-rule="evenodd" />
    </clipPath>
    <linearGradient
       id="linearGradient3845"
       x1="11"
       x2="21"
       y1="19.5"
       y2="19.5"
       gradientTransform="translate(1,-1)"
       gradientUnits="userSpaceOnUse"
       spreadMethod="reflect">
      <stop
         id="stop3833"
         stop-color="#fff"
         offset="0" />
      <stop
         id="stop3821"
         stop-color="#fff"
         stop-opacity=".49804"
         offset=".75" />
      <stop
         id="stop3835"
         stop-color="#fff"
         stop-opacity="0"
         offset="1" />
    </linearGradient>
    <linearGradient
       id="linearGradient3961"
       x1="10"
       x2="10"
       y1="1"
       y2="16"
       gradientTransform="translate(1,-1)"
       gradientUnits="userSpaceOnUse">
      <stop
         id="stop3825"
         stop-color="#fff"
         offset="0" />
      <stop
         id="stop3829"
         stop-color="#fff"
         stop-opacity="0"
         offset="1" />
    </linearGradient>
  </defs>
  <g
     id="layer1"
     transform="translate(0,2)">
    <g
       id="g3337"
       transform="translate(1,-1)">
      <rect
         id="rect3371"
         x=".5"
         y=".5"
         width="21"
         height="21.5"
         rx="2.5"
         ry="2.5"
         fill="url(#linearGradient3335)"
         opacity=".3" />
      <rect
         id="rect2553"
         x="1"
         y="2"
         width="20"
         height="20"
         rx="2.381"
         ry="2.3256"
         opacity=".5" />
    </g>
    <rect
       id="rect3173"
       x="2"
       width="20"
       height="20"
       rx="2"
       ry="2"
       fill="url(#linearGradient3181)"
       fill-rule="evenodd" />
    <path
       id="rect3050"
       d="m4 0c-1.108 0-2 0.892-2 2v16c0 1.108 0.892 2 2 2h16c1.108 0 2-0.892 2-2v-16c0-1.108-0.892-2-2-2h-16zm0 1.0312h16c0.5497 0 0.96875 0.41905 0.96875 0.96875v16c0 0.5497-0.41905 0.96875-0.96875 0.96875h-16c-0.5497 0-0.96875-0.41905-0.96875-0.96875v-16c0-0.5497 0.41905-0.96875 0.96875-0.96875z"
       fill="url(#linearGradient3961)"
       fill-rule="evenodd"
       opacity=".35" />
    <path
       id="path3235"
       d="m4 20c-1.108 0-2-0.892-2-2v-1c0 1.108 0.892 2 2 2h16c1.108 0 2-0.892 2-2v1c0 1.108-0.892 2-2 2h-16z"
       fill="url(#linearGradient3845)"
       fill-rule="evenodd"
       opacity=".2" />
  </g>
  <g
     id="layer2"
     transform="translate(0,2)">
    <rect
       id="rect2410"
       transform="translate(1,-1)"
       x="3"
       y="3"
       width="16"
       height="16"
       rx="2"
       ry="2"
       clip-path="url(#clipPath2849)"
       fill="#fff"
       filter="url(#filter3194)"
       opacity=".15" />
  </g>
  <defs
     id="defs37">
    <filter
       id="w">
      <feGaussianBlur
         stdDeviation="0.20998568"
         id="feGaussianBlur29" />
    </filter>
    <linearGradient
       id="a"
       gradientUnits="userSpaceOnUse"
       x1="8"
       y1="1"
       x2="8"
       y2="15">
      <stop
         stop-color="#fafafa"
         offset="0"
         id="stop32" />
      <stop
         stop-color="#ebebeb"
         offset="1"
         id="stop34" />
    </linearGradient>
  </defs>
  <g
     id="main">
    <path
       style="opacity:0.3;fill:#000000"
       d="M 11.408203 6.2011719 C 11.40712 6.4234079 11.417543 6.5885481 11.427734 6.7792969 C 11.433284 6.6901513 11.432542 6.5406546 11.441406 6.4960938 C 11.469156 6.3573632 11.467094 6.3026094 11.433594 6.2246094 C 11.429453 6.2149645 11.413705 6.2103274 11.408203 6.2011719 z M 10.285156 6.3417969 C 10.201241 6.5044809 10.188118 6.725779 10.238281 6.9902344 C 10.307265 6.7773513 10.314766 6.5637729 10.285156 6.3417969 z M 10.601562 8.8125 C 10.588712 8.795 10.056316 9.1540469 9.8164062 9.3417969 C 8.8564664 10.092997 8.2911 11.160362 8.1875 12.414062 L 8.1660156 12.673828 L 8.0390625 12.746094 C 7.8285425 12.8661 7.5846856 12.92071 7.3222656 12.90625 C 7.1936556 12.89925 7.04881 12.877022 7 12.857422 L 6.9941406 12.855469 C 6.9660108 13.033268 6.9356383 13.209515 6.9277344 13.398438 L 6.9199219 13.587891 C 6.9654157 13.587074 6.9841484 13.584176 7.0429688 13.583984 C 7.3476988 13.582984 7.5135714 13.596319 7.6757812 13.636719 L 7.8945312 13.691406 L 8.0371094 13.597656 C 8.0739982 13.572966 8.1320232 13.548838 8.1777344 13.523438 L 8.1875 13.414062 C 8.2911 12.160362 8.8564664 11.092997 9.8164062 10.341797 C 10.056316 10.154047 10.588712 9.795 10.601562 9.8125 C 10.605562 9.81794 10.789106 10.145506 11.009766 10.541016 C 11.586616 11.574916 12.015766 12.252574 12.460938 12.833984 C 12.684207 13.125584 13.192079 13.660231 13.349609 13.769531 C 13.380974 13.791293 13.521804 13.823372 13.638672 13.853516 C 13.903074 13.740586 14.228489 13.66846 14.548828 13.660156 C 14.574308 13.6256 14.626953 13.575824 14.626953 13.558594 C 14.626953 13.483294 14.555973 13.411401 14.080078 12.994141 C 14.06115 12.977543 14.042365 12.956468 14.023438 12.939453 C 13.946468 12.926073 13.904663 12.920234 13.792969 12.898438 C 13.586569 12.85814 13.397719 12.802911 13.349609 12.769531 C 13.192079 12.660231 12.684207 12.125584 12.460938 11.833984 C 12.015766 11.252574 11.586616 10.574916 11.009766 9.5410156 C 10.789106 9.1455056 10.605562 8.81794 10.601562 8.8125 z M 18.953125 16.304688 C 18.849151 16.987052 18.534732 17.591317 17.996094 18.095703 C 17.577714 18.487503 17.097744 18.746185 16.521484 18.890625 C 16.224872 18.965015 15.58493 18.996182 15.285156 18.951172 C 13.881019 18.738401 12.801306 17.709023 12.546875 16.355469 C 12.494896 16.651393 12.476376 16.961888 12.53125 17.291016 C 12.76235 18.677116 13.858256 19.734952 15.285156 19.951172 C 15.58493 19.996182 16.224872 19.965015 16.521484 19.890625 C 17.097744 19.746185 17.577714 19.487503 17.996094 19.095703 C 18.661184 18.472906 19 17.703443 19 16.814453 C 19 16.641272 18.979994 16.471786 18.953125 16.304688 z M 11.476562 16.341797 C 11.465162 16.459451 11.444475 16.545852 11.404297 16.675781 C 11.232677 17.228451 10.992633 17.633076 10.595703 18.035156 C 9.9798132 18.659016 9.2446219 18.975417 8.3574219 18.998047 C 8.1303419 19.004047 7.8626487 18.995669 7.7617188 18.980469 C 6.3718826 18.770662 5.2950651 17.68656 5.0566406 16.380859 C 5.0409833 16.48193 5.0098605 16.571562 5.0039062 16.679688 C 4.9156062 18.283386 6.1282187 19.733879 7.7617188 19.980469 C 7.8626487 19.995669 8.1303419 20.004047 8.3574219 19.998047 C 9.2446219 19.975417 9.9798132 19.659016 10.595703 19.035156 C 10.992633 18.633076 11.232677 18.228451 11.404297 17.675781 C 11.481097 17.427421 11.489204 17.369895 11.490234 16.859375 C 11.491076 16.600809 11.487671 16.455662 11.476562 16.341797 z "
       id="path39" />
    <path
       d="M 6.9375 1 C 6.3267 1 6.0705862 1.4179644 6.2539062 2.1152344 C 6.4125462 2.7186344 6.2628594 3.2071569 5.7246094 3.8417969 C 5.6413494 3.9399669 5.2792219 4.3183637 4.9199219 4.6835938 C 4.5606119 5.0488138 4.1751531 5.4579769 4.0644531 5.5917969 C 3.3188831 6.4929969 2.9716294 7.3492375 2.9277344 8.3984375 L 2.9101562 8.8222656 L 3 8.8574219 C 3.04881 8.8770219 3.1936556 8.89925 3.3222656 8.90625 C 3.5846856 8.92071 3.8285425 8.8661038 4.0390625 8.7460938 L 4.1660156 8.6738281 L 4.1875 8.4140625 C 4.2911 7.1603625 4.8564663 6.0929969 5.8164062 5.3417969 C 6.0563162 5.1540469 6.5887125 4.795 6.6015625 4.8125 C 6.6055425 4.81794 6.7891056 5.1455056 7.0097656 5.5410156 C 7.5866156 6.5749156 8.0157675 7.2525744 8.4609375 7.8339844 C 8.6842075 8.1255844 9.1920794 8.6602313 9.3496094 8.7695312 C 9.3977194 8.8029113 9.5865688 8.8581375 9.7929688 8.8984375 C 9.9907688 8.9370375 10.174442 8.9697031 10.201172 8.9707031 C 10.280892 8.9745131 10.626953 8.6394937 10.626953 8.5585938 C 10.626953 8.4832937 10.555978 8.4114006 10.080078 7.9941406 C 9.4212781 7.4164406 8.7594237 6.5819256 8.3085938 5.7597656 C 7.8716037 4.9627656 7.5612262 4.0105663 7.4414062 3.0976562 C 7.3939112 2.7338562 7.3942213 1.7333238 7.4414062 1.4960938 C 7.4691583 1.3573637 7.4671057 1.3026094 7.4335938 1.2246094 C 7.3752838 1.0887794 7.17868 1 6.9375 1 z M 12.757812 9.0664062 C 12.262456 9.0510013 11.753347 9.2285144 11.294922 9.5996094 L 11.154297 9.7128906 L 10.943359 9.6816406 C 10.466039 9.6088806 9.8571756 9.709195 9.4785156 9.921875 C 8.7315756 10.341375 8.36099 11.269816 8.53125 12.291016 C 8.76235 13.677116 9.8582563 14.734952 11.285156 14.951172 C 11.58493 14.99618 12.224872 14.965008 12.521484 14.890625 C 13.097744 14.746185 13.577714 14.487503 13.996094 14.095703 C 14.661184 13.472903 15 12.703443 15 11.814453 C 15 10.991553 14.688291 10.21646 14.144531 9.6875 C 13.735281 9.289425 13.253169 9.0818112 12.757812 9.0664062 z M 5.7089844 9.2441406 C 5.4825144 9.1975406 5.0503025 9.2031594 4.8203125 9.2558594 C 4.5924125 9.3081294 4.2369594 9.4638962 4.0371094 9.5976562 L 3.8945312 9.6914062 L 3.6757812 9.6367188 C 3.5135713 9.5963187 3.3476988 9.5829844 3.0429688 9.5839844 C 2.6750587 9.5851844 2.602605 9.5942156 2.390625 9.6660156 C 1.549925 9.9508156 1.0599323 10.662287 1.0039062 11.679688 C 0.91560625 13.283387 2.1282187 14.733879 3.7617188 14.980469 C 3.8626488 14.995669 4.1303419 15.004047 4.3574219 14.998047 C 5.2446219 14.975417 5.9798131 14.659016 6.5957031 14.035156 C 6.9926331 13.633076 7.2326769 13.228451 7.4042969 12.675781 C 7.4810919 12.427421 7.4892044 12.369895 7.4902344 11.859375 C 7.4918794 11.367855 7.4846849 11.280518 7.4199219 11.054688 C 7.1472219 10.104037 6.4847044 9.4037806 5.7089844 9.2441406 z "
       fill="#fff"
       id="base"
       transform="translate(4,4)" />
  </g>
</svg>
