<?xml version="1.0" encoding="UTF-8" standalone="no"?>
<svg
   xmlns:dc="http://purl.org/dc/elements/1.1/"
   xmlns:cc="http://creativecommons.org/ns#"
   xmlns:rdf="http://www.w3.org/1999/02/22-rdf-syntax-ns#"
   xmlns:svg="http://www.w3.org/2000/svg"
   xmlns="http://www.w3.org/2000/svg"
   xmlns:sodipodi="http://sodipodi.sourceforge.net/DTD/sodipodi-0.dtd"
   xmlns:inkscape="http://www.inkscape.org/namespaces/inkscape"
   id="svg2"
   width="24"
   height="24"
   version="1.0"
   sodipodi:docname="clinica.svg"
   inkscape:version="0.92.2 5c3e80d, 2017-08-06">
  <metadata
     id="metadata49">
    <rdf:RDF>
      <cc:Work
         rdf:about="">
        <dc:format>image/svg+xml</dc:format>
        <dc:type
           rdf:resource="http://purl.org/dc/dcmitype/StillImage" />
      </cc:Work>
    </rdf:RDF>
  </metadata>
  <sodipodi:namedview
     pagecolor="#ffffff"
     bordercolor="#666666"
     borderopacity="1"
     objecttolerance="10"
     gridtolerance="10"
     guidetolerance="10"
     inkscape:pageopacity="0"
     inkscape:pageshadow="2"
     inkscape:window-width="640"
     inkscape:window-height="480"
     id="namedview47"
     showgrid="false"
     inkscape:zoom="9.8333333"
     inkscape:cx="12"
     inkscape:cy="12"
     inkscape:window-x="0"
     inkscape:window-y="25"
     inkscape:window-maximized="0"
     inkscape:current-layer="svg2" />
  <defs
     id="defs4">
    <linearGradient
       id="linearGradient3335"
       x1="11.375"
       x2="11.375"
       y1="22"
       y2="-9.8173"
       gradientUnits="userSpaceOnUse">
      <stop
         id="stop3330"
         offset="0" />
      <stop
         id="stop3333"
         stop-opacity="0"
         offset="1" />
    </linearGradient>
    <linearGradient
       id="linearGradient3181"
       x1="-3.0608"
       x2="-3.0608"
       y1="27.258"
       y2="7.2537"
       gradientTransform="translate(12.119 -7.2582)"
       gradientUnits="userSpaceOnUse">
      <stop
         id="stop3189"
         stop-color="#207487"
         offset="0" />
      <stop
         id="stop3191"
         stop-color="#3495a4"
         offset="1" />
    </linearGradient>
    <filter
       id="filter3194"
       x="-.18"
       y="-.18"
       width="1.36"
       height="1.36"
       color-interpolation-filters="sRGB">
      <feGaussianBlur
         id="feGaussianBlur3196"
         stdDeviation="1.2" />
    </filter>
    <clipPath
       id="clipPath2849">
      <rect
         id="rect2851"
         x="1"
         y="1"
         width="20"
         height="20"
         rx="2"
         ry="2"
         fill="#fff"
         fill-rule="evenodd" />
    </clipPath>
    <linearGradient
       id="linearGradient3845"
       x1="11"
       x2="21"
       y1="19.5"
       y2="19.5"
       gradientTransform="translate(1,-1)"
       gradientUnits="userSpaceOnUse"
       spreadMethod="reflect">
      <stop
         id="stop3833"
         stop-color="#fff"
         offset="0" />
      <stop
         id="stop3821"
         stop-color="#fff"
         stop-opacity=".49804"
         offset=".75" />
      <stop
         id="stop3835"
         stop-color="#fff"
         stop-opacity="0"
         offset="1" />
    </linearGradient>
    <linearGradient
       id="linearGradient3961"
       x1="10"
       x2="10"
       y1="1"
       y2="16"
       gradientTransform="translate(1,-1)"
       gradientUnits="userSpaceOnUse">
      <stop
         id="stop3825"
         stop-color="#fff"
         offset="0" />
      <stop
         id="stop3829"
         stop-color="#fff"
         stop-opacity="0"
         offset="1" />
    </linearGradient>
  </defs>
  <g
     id="layer1"
     transform="translate(0,2)">
    <g
       id="g3337"
       transform="translate(1,-1)">
      <rect
         id="rect3371"
         x=".5"
         y=".5"
         width="21"
         height="21.5"
         rx="2.5"
         ry="2.5"
         fill="url(#linearGradient3335)"
         opacity=".3" />
      <rect
         id="rect2553"
         x="1"
         y="2"
         width="20"
         height="20"
         rx="2.381"
         ry="2.3256"
         opacity=".5" />
    </g>
    <rect
       id="rect3173"
       x="2"
       width="20"
       height="20"
       rx="2"
       ry="2"
       fill="url(#linearGradient3181)"
       fill-rule="evenodd" />
    <path
       id="rect3050"
       d="m4 0c-1.108 0-2 0.892-2 2v16c0 1.108 0.892 2 2 2h16c1.108 0 2-0.892 2-2v-16c0-1.108-0.892-2-2-2h-16zm0 1.0312h16c0.5497 0 0.96875 0.41905 0.96875 0.96875v16c0 0.5497-0.41905 0.96875-0.96875 0.96875h-16c-0.5497 0-0.96875-0.41905-0.96875-0.96875v-16c0-0.5497 0.41905-0.96875 0.96875-0.96875z"
       fill="url(#linearGradient3961)"
       fill-rule="evenodd"
       opacity=".35" />
    <path
       id="path3235"
       d="m4 20c-1.108 0-2-0.892-2-2v-1c0 1.108 0.892 2 2 2h16c1.108 0 2-0.892 2-2v1c0 1.108-0.892 2-2 2h-16z"
       fill="url(#linearGradient3845)"
       fill-rule="evenodd"
       opacity=".2" />
  </g>
  <g
     id="layer2"
     transform="translate(0,2)">
    <rect
       id="rect2410"
       transform="translate(1,-1)"
       x="3"
       y="3"
       width="16"
       height="16"
       rx="2"
       ry="2"
       clip-path="url(#clipPath2849)"
       fill="#fff"
       filter="url(#filter3194)"
       opacity=".15" />
  </g>
  <defs
     id="defs37">
    <filter
       id="w">
      <feGaussianBlur
         stdDeviation="0.20998568"
         id="feGaussianBlur29" />
    </filter>
    <linearGradient
       id="a"
       gradientUnits="userSpaceOnUse"
       x1="8"
       y1="1.00005"
       x2="8"
       y2="15.00009">
      <stop
         stop-color="#fafafa"
         offset="0"
         id="stop32" />
      <stop
         stop-color="#ebebeb"
         offset="1"
         id="stop34" />
    </linearGradient>
  </defs>
  <g
     id="main">
    <path
       style="opacity:0.3;fill:#000000"
       d="M 8.8046875 6 C 8.6859272 6.3923857 8.6113281 6.8067897 8.6113281 7.2441406 C 8.6113281 7.3991637 8.6428481 7.5433926 8.6582031 7.6933594 C 8.6968639 7.3919986 8.754975 7.0982719 8.8515625 6.8222656 L 10.316406 6.8222656 L 10.316406 6 L 8.8046875 6 z M 13.482422 6 L 13.482422 6.8222656 L 15.158203 6.8222656 C 15.253084 7.0965656 15.312342 7.3914373 15.351562 7.6933594 C 15.366919 7.5433939 15.398438 7.3991539 15.398438 7.2441406 C 15.398438 6.8068158 15.322573 6.3911255 15.205078 6 L 13.482422 6 z M 7.8105469 7.7304688 C 7.7937522 7.8988736 7.7832031 8.0707187 7.7832031 8.2441406 C 7.7832031 9.0197706 7.9510831 9.7537437 8.2519531 10.402344 C 8.0946231 10.664564 8.0893244 11.00798 8.2714844 11.28125 C 8.9118544 12.25009 9.8819719 12.977547 11.013672 13.248047 L 11.013672 13.355469 C 11.010672 13.733619 11.042927 14.161906 11.216797 14.603516 C 11.390697 15.045156 11.674519 15.461765 12.099609 15.953125 C 12.262469 16.140825 12.491603 16.238281 12.720703 16.238281 C 12.781403 16.238281 12.842431 16.228944 12.900391 16.214844 C 12.994191 16.314244 13.097428 16.416934 13.205078 16.527344 C 13.541778 16.862281 13.750388 17.221582 13.865234 17.556641 C 13.929872 17.42164 13.970985 17.270213 13.972656 17.091797 C 13.975416 16.641797 13.732288 16.051794 13.205078 15.527344 C 13.097428 15.416934 12.994191 15.314244 12.900391 15.214844 C 12.842431 15.228944 12.781403 15.238281 12.720703 15.238281 C 12.491603 15.238281 12.262469 15.140825 12.099609 14.953125 C 11.674519 14.461765 11.390697 14.045156 11.216797 13.603516 C 11.042927 13.161906 11.010672 12.733619 11.013672 12.355469 L 11.013672 12.248047 C 9.8819719 11.977547 8.9118544 11.25009 8.2714844 10.28125 C 8.0893244 10.00798 8.0946231 9.6645637 8.2519531 9.4023438 C 8.0150108 8.8915557 7.8656183 8.325879 7.8105469 7.7304688 z M 16.189453 7.7304688 C 16.135205 8.3251695 15.986714 8.8895553 15.751953 9.4003906 C 15.909323 9.6626106 15.916555 10.004084 15.734375 10.277344 C 15.030475 11.340034 13.934609 12.111 12.662109 12.3125 L 12.662109 12.353516 C 12.662109 12.665426 12.680153 12.814253 12.751953 13.001953 C 12.778676 13.071828 12.835537 13.166092 12.892578 13.261719 C 14.065255 13.007761 15.073941 12.274412 15.734375 11.277344 C 15.916555 11.004084 15.909323 10.662611 15.751953 10.400391 C 16.050053 9.7517306 16.216797 9.0198406 16.216797 8.2441406 C 16.216797 8.0707065 16.206209 7.8988753 16.189453 7.7304688 z M 9.8867188 15.533203 C 9.6313247 15.533203 9.390113 15.587976 9.1699219 15.683594 C 9.008489 15.859422 8.9042969 16.089638 8.9042969 16.347656 C 8.9042969 16.534164 8.9702242 16.698794 9.0605469 16.847656 C 9.233386 16.561105 9.5329167 16.359375 9.8925781 16.359375 C 10.250566 16.359375 10.551206 16.560915 10.724609 16.847656 C 10.814411 16.698774 10.880859 16.534525 10.880859 16.347656 C 10.880859 16.093685 10.776451 15.868237 10.619141 15.693359 C 10.39482 15.593455 10.147794 15.533203 9.8867188 15.533203 z M 8.1582031 16.84375 C 8.1118028 17.004048 8.078125 17.168549 8.078125 17.34375 C 8.078125 18.34294 8.8902387 19.152344 9.8867188 19.152344 C 10.148949 19.152344 10.400613 19.098234 10.626953 18.996094 C 10.679353 19.056794 10.732249 19.116197 10.792969 19.179688 C 11.168369 19.568887 11.758571 19.99724 12.550781 20 L 12.556641 20 C 13.243951 20 13.809631 19.812294 14.207031 19.458984 C 14.604511 19.108424 14.799625 18.603264 14.796875 18.089844 C 14.796162 17.916047 14.774321 17.74003 14.734375 17.564453 C 14.650455 17.903172 14.479689 18.218512 14.207031 18.458984 C 14.065799 18.584547 13.896524 18.680934 13.714844 18.763672 C 13.691954 18.789007 13.682501 18.822215 13.65625 18.845703 C 13.44647 19.033403 13.097351 19.177734 12.550781 19.177734 C 12.144498 19.180302 11.799015 18.982591 11.521484 18.736328 C 11.225477 18.580024 10.981792 18.375452 10.792969 18.179688 C 10.732249 18.116197 10.679353 18.056794 10.626953 17.996094 C 10.626395 17.996346 10.625559 17.995842 10.625 17.996094 C 10.444069 18.200669 10.18774 18.335938 9.8925781 18.335938 C 9.5989846 18.334326 9.3429606 18.200592 9.1621094 17.998047 C 8.6755667 17.784357 8.3079993 17.361455 8.1582031 16.84375 z M 11.619141 16.847656 C 11.548926 17.088502 11.436941 17.310875 11.28125 17.498047 C 11.31437 17.536717 11.346913 17.575428 11.382812 17.611328 C 11.456655 17.687236 11.53683 17.76061 11.623047 17.828125 C 11.666336 17.673273 11.697266 17.512318 11.697266 17.34375 C 11.697266 17.170538 11.664906 17.006538 11.619141 16.847656 z "
       id="path39" />
    <path
       d="m12.216 3.2441c0-0.71215-0.1463-1.3856-0.39747-1.9901l-0.1049-0.25395h-2.2303v0.82256h1.6755c0.15181 0.43888 0.24014 0.91916 0.24014 1.4215 0 0.63486-0.1325 1.2311-0.36712 1.7583-0.25947 5e-3 -0.51342 0.13249-0.66521 0.36711-0.56861 0.8474-1.4215 1.3525-2.36 1.3525-0.93848 0-1.7914-0.50513-2.36-1.3525-0.15459-0.23186-0.40853-0.36159-0.668-0.36711-0.23463-0.52721-0.36711-1.1234-0.36711-1.7583 0-0.50237 0.0856-0.97989 0.24014-1.4215h1.4657v-0.82256h-2.0288l-0.10489 0.25395c-0.25394 0.60449-0.40023 1.278-0.40023 1.9901 0 0.77563 0.16837 1.5099 0.46924 2.1585-0.15733 0.26222-0.16286 0.60449 0.0193 0.87776 0.64037 0.96884 1.6092 1.6976 2.7409 1.9681v0.10765c-3e-3 0.37815 0.0304 0.80599 0.20427 1.2476 0.1739 0.44164 0.45819 0.85844 0.88328 1.3498 0.16286 0.1877 0.39196 0.28431 0.62106 0.28431 0.0607 0 0.12145-8e-3 0.17941-0.0221 0.0938 0.0994 0.19598 0.2015 0.30363 0.31191 0.52721 0.52445 0.77011 1.1151 0.76735 1.5651-3e-3 0.32019-0.10489 0.56585-0.31467 0.75355s-0.56033 0.33123-1.1069 0.33123c-0.47476 3e-3 -0.87223-0.26222-1.1676-0.56585-0.0359-0.0359-0.069-0.0745-0.10212-0.11317 0.25945-0.31191 0.41678-0.71491 0.41678-1.1538 0-0.99645-0.81151-1.8107-1.8107-1.8107s-1.808 0.81151-1.808 1.8107 0.81152 1.808 1.808 1.808c0.26223 0 0.51342-0.0552 0.73976-0.15734 0.0524 0.0607 0.10489 0.12145 0.16561 0.18494 0.3754 0.3892 0.96609 0.81704 1.7583 0.8198h6e-3c0.68731 0 1.2532-0.1877 1.6506-0.54101 0.39748-0.35056 0.59346-0.85568 0.59071-1.3691-3e-3 -0.73147-0.3616-1.4961-1.0075-2.1475-0.0994-0.0994-0.19322-0.19321-0.28154-0.2843 0.0828-0.26223 0.0304-0.56033-0.16285-0.78391-0.3616-0.4168-0.52168-0.68455-0.59346-0.87224-0.0718-0.1877-0.0911-0.33675-0.0911-0.64866v-0.0414c1.2725-0.2015 2.3683-0.97161 3.0722-2.0343 0.18218-0.27326 0.17667-0.61554 0.0193-0.87776 0.2981-0.64866 0.46372-1.3801 0.46372-2.1558zm-7.3119 9.1033c0-0.54653 0.44164-0.98817 0.98817-0.98817 0.54377 0 0.98818 0.44164 0.98818 0.98817s-0.44164 0.98817-0.98818 0.98817c-0.54653-3e-3 -0.98817-0.4444-0.98817-0.98817z"
       fill="#fff"
       id="base"
       transform="translate(4,4)" />
  </g>
</svg>
