<?xml version="1.0" encoding="UTF-8" standalone="no"?>
<svg
   xmlns:dc="http://purl.org/dc/elements/1.1/"
   xmlns:cc="http://creativecommons.org/ns#"
   xmlns:rdf="http://www.w3.org/1999/02/22-rdf-syntax-ns#"
   xmlns:svg="http://www.w3.org/2000/svg"
   xmlns="http://www.w3.org/2000/svg"
   xmlns:sodipodi="http://sodipodi.sourceforge.net/DTD/sodipodi-0.dtd"
   xmlns:inkscape="http://www.inkscape.org/namespaces/inkscape"
   id="svg2"
   width="24"
   height="24"
   version="1.0"
   sodipodi:docname="freemind.svg"
   inkscape:version="0.92.2 5c3e80d, 2017-08-06">
  <metadata
     id="metadata49">
    <rdf:RDF>
      <cc:Work
         rdf:about="">
        <dc:format>image/svg+xml</dc:format>
        <dc:type
           rdf:resource="http://purl.org/dc/dcmitype/StillImage" />
      </cc:Work>
    </rdf:RDF>
  </metadata>
  <sodipodi:namedview
     pagecolor="#ffffff"
     bordercolor="#666666"
     borderopacity="1"
     objecttolerance="10"
     gridtolerance="10"
     guidetolerance="10"
     inkscape:pageopacity="0"
     inkscape:pageshadow="2"
     inkscape:window-width="640"
     inkscape:window-height="480"
     id="namedview47"
     showgrid="false"
     inkscape:zoom="9.8333333"
     inkscape:cx="12"
     inkscape:cy="12"
     inkscape:window-x="0"
     inkscape:window-y="25"
     inkscape:window-maximized="0"
     inkscape:current-layer="svg2" />
  <defs
     id="defs4">
    <linearGradient
       id="linearGradient3335"
       x1="11.375"
       x2="11.375"
       y1="22"
       y2="-9.8173"
       gradientUnits="userSpaceOnUse">
      <stop
         id="stop3330"
         offset="0" />
      <stop
         id="stop3333"
         stop-opacity="0"
         offset="1" />
    </linearGradient>
    <linearGradient
       id="linearGradient3181"
       x1="-3.0608"
       x2="-3.0608"
       y1="27.258"
       y2="7.2537"
       gradientTransform="translate(12.119 -7.2582)"
       gradientUnits="userSpaceOnUse">
      <stop
         id="stop3189"
         stop-color="#4e703b"
         offset="0" />
      <stop
         id="stop3191"
         stop-color="#59a231"
         offset="1" />
    </linearGradient>
    <filter
       id="filter3194"
       x="-.18"
       y="-.18"
       width="1.36"
       height="1.36"
       color-interpolation-filters="sRGB">
      <feGaussianBlur
         id="feGaussianBlur3196"
         stdDeviation="1.2" />
    </filter>
    <clipPath
       id="clipPath2849">
      <rect
         id="rect2851"
         x="1"
         y="1"
         width="20"
         height="20"
         rx="2"
         ry="2"
         fill="#fff"
         fill-rule="evenodd" />
    </clipPath>
    <linearGradient
       id="linearGradient3845"
       x1="11"
       x2="21"
       y1="19.5"
       y2="19.5"
       gradientTransform="translate(1,-1)"
       gradientUnits="userSpaceOnUse"
       spreadMethod="reflect">
      <stop
         id="stop3833"
         stop-color="#fff"
         offset="0" />
      <stop
         id="stop3821"
         stop-color="#fff"
         stop-opacity=".49804"
         offset=".75" />
      <stop
         id="stop3835"
         stop-color="#fff"
         stop-opacity="0"
         offset="1" />
    </linearGradient>
    <linearGradient
       id="linearGradient3961"
       x1="10"
       x2="10"
       y1="1"
       y2="16"
       gradientTransform="translate(1,-1)"
       gradientUnits="userSpaceOnUse">
      <stop
         id="stop3825"
         stop-color="#fff"
         offset="0" />
      <stop
         id="stop3829"
         stop-color="#fff"
         stop-opacity="0"
         offset="1" />
    </linearGradient>
  </defs>
  <g
     id="layer1"
     transform="translate(0,2)">
    <g
       id="g3337"
       transform="translate(1,-1)">
      <rect
         id="rect3371"
         x=".5"
         y=".5"
         width="21"
         height="21.5"
         rx="2.5"
         ry="2.5"
         fill="url(#linearGradient3335)"
         opacity=".3" />
      <rect
         id="rect2553"
         x="1"
         y="2"
         width="20"
         height="20"
         rx="2.381"
         ry="2.3256"
         opacity=".5" />
    </g>
    <rect
       id="rect3173"
       x="2"
       width="20"
       height="20"
       rx="2"
       ry="2"
       fill="url(#linearGradient3181)"
       fill-rule="evenodd" />
    <path
       id="rect3050"
       d="m4 0c-1.108 0-2 0.892-2 2v16c0 1.108 0.892 2 2 2h16c1.108 0 2-0.892 2-2v-16c0-1.108-0.892-2-2-2h-16zm0 1.0312h16c0.5497 0 0.96875 0.41905 0.96875 0.96875v16c0 0.5497-0.41905 0.96875-0.96875 0.96875h-16c-0.5497 0-0.96875-0.41905-0.96875-0.96875v-16c0-0.5497 0.41905-0.96875 0.96875-0.96875z"
       fill="url(#linearGradient3961)"
       fill-rule="evenodd"
       opacity=".35" />
    <path
       id="path3235"
       d="m4 20c-1.108 0-2-0.892-2-2v-1c0 1.108 0.892 2 2 2h16c1.108 0 2-0.892 2-2v1c0 1.108-0.892 2-2 2h-16z"
       fill="url(#linearGradient3845)"
       fill-rule="evenodd"
       opacity=".2" />
  </g>
  <g
     id="layer2"
     transform="translate(0,2)">
    <rect
       id="rect2410"
       transform="translate(1,-1)"
       x="3"
       y="3"
       width="16"
       height="16"
       rx="2"
       ry="2"
       clip-path="url(#clipPath2849)"
       fill="#fff"
       filter="url(#filter3194)"
       opacity=".15" />
  </g>
  <defs
     id="defs37">
    <filter
       id="w">
      <feGaussianBlur
         stdDeviation="0.20998568"
         id="feGaussianBlur29" />
    </filter>
    <linearGradient
       id="a"
       gradientUnits="userSpaceOnUse"
       x1="8"
       y1="0.99998707"
       x2="8"
       y2="15.00003007">
      <stop
         stop-color="#fafafa"
         offset="0"
         id="stop32" />
      <stop
         stop-color="#ebebeb"
         offset="1"
         id="stop34" />
    </linearGradient>
  </defs>
  <g
     id="main">
    <path
       style="opacity:0.3;fill:#000000"
       d="M 14.664062 6.0058594 C 14.629228 6.0027621 14.593707 6.0105365 14.558594 6.0097656 C 14.260086 6.1401005 14.009082 6.2784954 13.980469 6.3671875 C 13.926129 6.5353675 14.020526 6.5468694 14.378906 6.4121094 C 14.687468 6.2960738 15.000469 6.2544129 15.316406 6.2597656 C 15.126347 6.114515 14.903219 6.0271232 14.664062 6.0058594 z M 9.3339844 6.0117188 C 9.0864023 6.0288767 8.8542932 6.1168208 8.6601562 6.2695312 C 8.810228 6.2823702 8.9759381 6.3075377 9.1835938 6.3496094 C 10.165684 6.5485789 10.210465 6.3301349 9.4707031 6.0195312 C 9.4250889 6.018729 9.3791826 6.0085864 9.3339844 6.0117188 z M 13.3125 6.9355469 C 13.262587 6.9355469 13.201646 6.9739776 13.138672 7.0273438 C 13.139202 7.0846528 13.127398 7.139423 13.142578 7.1992188 C 13.190226 7.3869411 13.205655 7.4777679 13.1875 7.5136719 C 13.197174 7.5030589 13.202669 7.4886257 13.212891 7.4785156 C 13.658261 7.0380456 13.67751 6.9355469 13.3125 6.9355469 z M 10.558594 6.9765625 C 10.371528 6.9800992 10.392194 7.1509169 10.677734 7.3574219 C 10.727365 7.3933185 10.769811 7.4413346 10.808594 7.4941406 C 10.809518 7.453602 10.812045 7.4118772 10.853516 7.2636719 C 10.87281 7.1947097 10.86146 7.1305893 10.861328 7.0644531 C 10.84462 7.0555759 10.829833 7.0397812 10.8125 7.0332031 C 10.705597 6.9926306 10.620949 6.9753836 10.558594 6.9765625 z M 11.056641 7.2363281 C 11.037688 7.2683263 11.032479 7.3097704 11.009766 7.3378906 C 10.904816 7.4675664 10.865249 7.5037612 10.833984 7.5234375 C 10.939994 7.685274 10.984237 7.9199828 11 8.1660156 C 11.147953 8.3161012 11.25449 8.5634376 11.316406 8.8515625 C 11.436686 8.2456584 11.324396 7.5775501 11.056641 7.2363281 z M 15.46875 7.2539062 C 15.100249 7.2249487 14.737206 7.2773694 14.378906 7.4121094 C 14.07239 7.5273674 13.966844 7.5288125 13.974609 7.4238281 C 13.883259 7.4891662 13.804695 7.556701 13.765625 7.6289062 C 13.530637 8.0631 13.538124 8.4660549 13.707031 8.7753906 C 13.728054 8.7261468 13.738542 8.6789483 13.765625 8.6289062 C 13.808832 8.549055 13.89773 8.4735305 14.003906 8.4023438 C 13.881613 7.8460982 14.536036 7.4589844 15.638672 7.4589844 C 15.865545 7.4589844 16.034612 7.4413434 16.181641 7.4199219 C 15.941401 7.3348692 15.703618 7.2723626 15.46875 7.2539062 z M 8.3320312 7.265625 C 8.1581247 7.2819746 7.9809673 7.3383875 7.7792969 7.4179688 C 7.9335499 7.4422361 8.123915 7.4589844 8.3710938 7.4589844 C 9.1076938 7.4589844 9.4294056 7.5436638 9.6972656 7.8085938 C 9.9872745 8.0954172 10.077115 8.2383232 10.017578 8.4238281 C 10.108685 8.4890666 10.185617 8.5568285 10.224609 8.6289062 C 10.251688 8.6789507 10.262184 8.7261447 10.283203 8.7753906 C 10.452369 8.4659998 10.459677 8.0633406 10.224609 7.6289062 C 10.179424 7.545381 10.086235 7.4664835 9.9726562 7.3925781 C 9.8873679 7.4424943 9.6296273 7.4399749 9.1835938 7.3496094 C 8.8144237 7.2748144 8.56576 7.2436513 8.3320312 7.265625 z M 12.90625 7.3417969 C 12.861996 7.4148373 12.810746 7.4729495 12.775391 7.5566406 C 12.595181 7.9832069 12.578157 8.4743033 12.677734 8.9277344 C 12.705353 8.8019211 12.725752 8.6741387 12.775391 8.5566406 C 12.819973 8.4511085 12.881868 8.3724274 12.939453 8.2851562 C 12.939591 7.9897796 13.008257 7.7201003 13.173828 7.5292969 C 13.144004 7.5416466 13.082886 7.504181 12.970703 7.4121094 C 12.944631 7.3907074 12.927338 7.3655028 12.90625 7.3417969 z M 17.449219 8.2832031 C 17.284418 8.4440347 16.940839 8.5420788 16.111328 8.6972656 C 15.002671 8.90467 14.509616 8.9480452 14.253906 8.796875 C 14.131372 8.8893649 14.050838 8.9988714 14.013672 9.1210938 C 14.286244 9.3063824 14.671353 9.3911989 15.132812 9.3203125 C 16.53826 9.1044019 17.183488 9.0224203 17.566406 9.0898438 C 17.570705 9.0762828 17.580326 9.0671479 17.583984 9.0527344 C 17.653005 8.7807517 17.604001 8.5237064 17.449219 8.2832031 z M 6.5527344 8.3046875 C 6.405409 8.5417262 6.3401422 8.7921507 6.4042969 9.0449219 C 6.4088673 9.0629267 6.4186769 9.0731774 6.4238281 9.0898438 C 6.8067461 9.0224213 7.4539218 9.1024546 8.859375 9.3183594 C 9.3117291 9.3878574 9.6932244 9.310464 9.9648438 9.1328125 C 9.9116894 9.042387 9.8336604 8.9434904 9.6972656 8.8085938 C 9.6965941 8.8079296 9.6959847 8.8073025 9.6953125 8.8066406 C 9.4359708 8.9212162 8.9631544 8.8820943 7.8828125 8.6953125 C 7.0484654 8.5510519 6.7158711 8.4634348 6.5527344 8.3046875 z M 13.017578 8.7910156 C 12.917926 9.0366065 12.918712 9.3379924 12.984375 9.6523438 C 13.011191 9.6912421 13.026989 9.7391733 13.056641 9.7753906 C 13.239777 9.99908 13.289901 10.102747 13.207031 10.246094 C 13.262942 10.349549 13.305569 10.45731 13.378906 10.554688 C 13.420781 10.610287 13.461638 10.644573 13.501953 10.6875 C 13.862581 10.564093 14.369713 10.488629 15.070312 10.433594 C 16.150153 10.34877 16.638688 10.263386 16.832031 10.099609 C 16.430373 10.134274 15.930211 10.197813 15.132812 10.320312 C 14.500397 10.41746 14.012736 10.221665 13.763672 9.8730469 C 13.610823 9.8033792 13.497005 9.7114953 13.378906 9.5546875 C 13.198393 9.3150011 13.091255 9.0518554 13.017578 8.7910156 z M 10.945312 8.7929688 C 10.885775 9.0539048 10.797082 9.3059468 10.646484 9.5058594 C 10.506852 9.6911808 10.389009 9.7972326 10.226562 9.8730469 C 9.9774687 10.221569 9.4916761 10.415504 8.859375 10.318359 C 8.0619734 10.195863 7.5598638 10.134273 7.1582031 10.099609 C 7.3515483 10.263386 7.8420419 10.34877 8.921875 10.433594 C 9.6224706 10.488633 10.127653 10.564091 10.488281 10.6875 C 10.540019 10.63288 10.589385 10.581643 10.646484 10.505859 C 10.701942 10.432241 10.749809 10.351017 10.792969 10.265625 C 10.6849 10.113814 10.704757 10.023545 10.847656 9.90625 C 10.879105 9.8804334 10.917733 9.8021095 10.953125 9.7519531 C 11.023768 9.4138072 11.02885 9.0697102 10.945312 8.7929688 z M 12.929688 10.558594 C 12.902564 10.583954 12.890272 10.598408 12.859375 10.626953 C 12.448915 11.006183 12.348901 11.244362 12.349609 11.857422 C 12.349777 11.995221 12.385978 12.150474 12.412109 12.302734 C 12.461605 12.112264 12.554999 11.949798 12.707031 11.785156 C 12.718561 11.36466 12.835899 11.076625 13.128906 10.875 C 13.103309 10.841632 13.089958 10.816085 13.056641 10.775391 C 13.004436 10.711627 12.97306 10.630337 12.929688 10.558594 z M 11.074219 10.572266 C 11.003566 10.710404 10.931132 10.816034 10.867188 10.876953 C 11.157932 11.078758 11.272011 11.367321 11.283203 11.787109 C 11.436914 11.954377 11.531017 12.116563 11.580078 12.306641 C 11.606618 12.153097 11.640474 11.996368 11.640625 11.857422 C 11.641385 11.238132 11.543321 11.006695 11.113281 10.609375 C 11.096806 10.594154 11.089604 10.58666 11.074219 10.572266 z M 5.7070312 10.664062 C 5.4643496 11.016584 5.4182144 11.263309 5.6074219 11.546875 C 5.6935166 11.539389 5.7862125 11.5519 5.8964844 11.59375 C 6.0451423 11.650172 6.0922214 11.836436 6.0917969 12.048828 C 6.1938661 12.124034 6.2993344 12.184513 6.4238281 12.222656 C 6.4262777 12.212947 6.4208494 12.198741 6.4238281 12.189453 C 6.5213081 11.885583 6.6871788 11.830078 7.5117188 11.830078 C 8.7681588 11.830078 9.1660156 12.04427 9.1660156 12.71875 C 9.1660156 12.72179 9.1660265 12.723551 9.1660156 12.726562 C 9.3879764 12.860345 9.5540894 13.020524 9.6582031 13.205078 C 9.6745543 13.168924 9.6959219 13.144531 9.7109375 13.105469 C 10.107838 12.073059 9.0842938 11.306641 7.3085938 11.306641 C 6.4973937 11.306641 6.2456619 11.230033 5.8886719 10.876953 C 5.8087452 10.797902 5.7634972 10.733138 5.7070312 10.664062 z M 18.283203 10.666016 C 18.226975 10.734654 18.182872 10.798466 18.103516 10.876953 C 17.746516 11.230043 17.494814 11.306641 16.683594 11.306641 C 14.973644 11.306641 13.969267 11.975742 14.216797 12.951172 C 14.23975 13.041614 14.283634 13.110567 14.318359 13.189453 C 14.42528 13.001709 14.596008 12.839891 14.826172 12.707031 C 14.832058 12.044348 15.233352 11.830078 16.480469 11.830078 C 17.304969 11.830078 17.468836 11.885553 17.566406 12.189453 C 17.569387 12.198741 17.563954 12.212947 17.566406 12.222656 C 17.670338 12.190813 17.761398 12.148855 17.847656 12.091797 C 17.855099 11.862648 17.927893 11.657511 18.111328 11.587891 C 18.197398 11.555048 18.293602 11.54357 18.382812 11.546875 C 18.571828 11.263638 18.525058 11.01781 18.283203 10.666016 z M 12.769531 12.373047 C 12.728065 12.513578 12.703125 12.668865 12.703125 12.855469 C 12.703125 13.002861 12.71101 13.126126 12.728516 13.236328 C 12.843571 13.426961 12.911647 13.555826 12.90625 13.666016 C 12.98819 13.788916 13.103285 13.921291 13.263672 14.072266 C 13.443557 13.89399 13.633463 13.753906 13.791016 13.753906 C 13.911676 13.753906 13.714799 13.487629 13.355469 13.162109 C 13.002002 12.841885 12.845169 12.635503 12.769531 12.373047 z M 11.222656 12.375 C 11.146765 12.636578 10.987427 12.842621 10.634766 13.162109 C 10.275446 13.487629 10.080522 13.753906 10.201172 13.753906 C 10.346254 13.753906 10.538155 13.895931 10.722656 14.074219 C 10.884907 13.921717 11.003429 13.789868 11.085938 13.666016 C 11.080997 13.556325 11.14618 13.42691 11.263672 13.232422 C 11.280772 13.123069 11.289062 13.001358 11.289062 12.855469 C 11.289062 12.669777 11.263691 12.515051 11.222656 12.375 z M 5.9570312 12.636719 C 5.8848786 12.775113 5.7896059 12.899396 5.6738281 12.986328 C 5.5039981 13.113848 5.3125218 13.221609 5.2460938 13.224609 C 5.1859919 13.227382 5.1354012 13.183337 5.0957031 13.111328 C 5.0923649 13.119804 5.0892726 13.124132 5.0859375 13.132812 C 4.9169475 13.572423 5.0141848 14.235309 5.2460938 14.224609 C 5.2651908 14.223747 5.3326571 14.172307 5.3691406 14.15625 C 5.3751287 14.114436 5.3660986 14.075979 5.3769531 14.033203 C 5.4898311 13.588471 5.8196969 13.223995 6.0957031 13.148438 C 6.1178606 12.925753 6.0802042 12.72926 5.9570312 12.636719 z M 17.988281 12.667969 C 17.883639 12.768381 17.845212 12.935065 17.84375 13.113281 C 18.067826 13.130639 18.321231 13.413784 18.533203 13.919922 C 18.567345 14.001439 18.566468 14.073493 18.583984 14.150391 C 18.802141 14.250663 18.884623 14.178595 18.972656 13.904297 L 18.972656 13.902344 C 19.035002 13.708049 18.983867 13.388395 18.884766 13.105469 C 18.78004 13.270028 18.630745 13.215005 18.228516 12.9375 C 18.128903 12.868787 18.051386 12.773181 17.988281 12.667969 z M 6.5859375 12.962891 C 6.5120393 13.016341 6.4574313 13.084703 6.4238281 13.189453 C 6.4196229 13.202566 6.4269816 13.222388 6.4238281 13.236328 C 6.7504059 13.532863 6.869641 13.395957 6.5917969 12.976562 C 6.5890051 12.972343 6.5886747 12.967149 6.5859375 12.962891 z M 17.404297 12.962891 C 17.401556 12.967149 17.401233 12.972343 17.398438 12.976562 C 17.120569 13.396015 17.238971 13.535676 17.566406 13.236328 C 17.563249 13.222388 17.570614 13.202566 17.566406 13.189453 C 17.532501 13.083848 17.479321 13.016421 17.404297 12.962891 z M 9.0253906 13.214844 C 8.9381726 13.314844 8.8062163 13.397041 8.5917969 13.486328 L 8.0175781 13.724609 L 8.5058594 13.845703 C 8.754506 13.90757 8.9712429 13.879786 9.1601562 13.785156 C 9.1610021 13.761154 9.1660156 13.744787 9.1660156 13.71875 C 9.1660156 13.505192 9.1200203 13.34396 9.0253906 13.214844 z M 14.964844 13.216797 C 14.871133 13.345663 14.824219 13.508141 14.824219 13.720703 C 14.824219 13.736909 14.827806 13.746312 14.828125 13.761719 C 15.024782 13.860926 15.243956 13.906501 15.480469 13.847656 L 15.972656 13.724609 L 15.398438 13.486328 C 15.18413 13.397091 15.05207 13.316726 14.964844 13.216797 z M 11.326172 14.115234 C 11.322067 14.122231 11.320554 14.135854 11.316406 14.142578 C 11.19659 14.336824 11.137185 14.453034 11.109375 14.556641 C 11.211779 14.730247 11.289062 14.901806 11.289062 15.037109 C 11.289062 15.045187 11.28526 15.048701 11.285156 15.056641 C 11.301747 15.079291 11.309384 15.091992 11.328125 15.117188 C 11.450961 15.282341 11.530952 15.482978 11.587891 15.689453 C 11.751878 15.246399 11.659851 14.563192 11.328125 14.117188 C 11.327439 14.116265 11.326855 14.116153 11.326172 14.115234 z M 12.664062 14.115234 C 12.655968 14.126156 12.653044 14.131135 12.644531 14.142578 C 12.308123 14.594736 12.220294 15.236593 12.388672 15.673828 C 12.445895 15.48476 12.526412 15.301339 12.644531 15.142578 C 12.682557 15.091467 12.700761 15.061214 12.730469 15.019531 C 12.750386 14.877534 12.801337 14.728996 12.884766 14.574219 C 12.86114 14.466483 12.799529 14.346331 12.673828 14.142578 C 12.669676 14.135846 12.668172 14.122239 12.664062 14.115234 z M 5.4785156 14.796875 C 5.4428419 14.875226 5.3985617 14.948067 5.3769531 15.033203 C 5.2634991 15.480306 5.4189604 15.876406 5.8085938 16.173828 C 5.8096494 15.891126 5.9026919 15.862637 6.5117188 15.958984 C 7.2792987 16.080384 8.1054688 15.709067 8.1054688 15.242188 C 8.1054688 15.041807 7.9814031 15.062017 7.5019531 15.341797 C 6.9462031 15.666077 6.8495269 15.67314 6.2792969 15.4375 C 5.8915172 15.277269 5.626523 15.057018 5.4785156 14.796875 z M 18.494141 14.845703 C 18.349106 15.078339 18.097402 15.280556 17.712891 15.439453 C 17.142681 15.675133 17.044041 15.666117 16.488281 15.341797 C 16.008831 15.062007 15.884766 15.041797 15.884766 15.242188 C 15.884766 15.709067 16.710926 16.080384 17.478516 15.958984 C 18.087551 15.862651 18.182549 15.893019 18.183594 16.175781 C 18.624444 15.853334 18.748362 15.43364 18.533203 14.919922 C 18.520969 14.89071 18.506633 14.873456 18.494141 14.845703 z M 9.3554688 15.171875 C 9.1339938 15.156609 8.96161 15.238331 8.8125 15.416016 C 8.62663 15.637606 8.6630819 15.677734 9.0449219 15.677734 C 9.8014119 15.677734 10.386902 15.990107 10.757812 16.591797 C 10.788334 16.641309 10.797873 16.681124 10.824219 16.728516 C 11.045146 16.726024 11.178544 16.574887 11.240234 16.322266 C 11.24181 16.297354 11.246638 16.273031 11.251953 16.25 C 11.26402 16.178691 11.289062 16.124783 11.289062 16.037109 C 11.289062 15.91164 11.224672 15.754335 11.134766 15.59375 C 10.958415 15.79551 10.637293 15.774692 10.201172 15.511719 C 9.8491819 15.299499 9.5769437 15.187141 9.3554688 15.171875 z M 14.353516 15.242188 C 14.079549 15.279291 13.797744 15.403047 13.568359 15.607422 C 13.299861 15.846646 13.031578 15.810139 12.865234 15.607422 C 12.771815 15.788949 12.703125 15.971054 12.703125 16.126953 C 12.703125 16.143151 12.710307 16.152286 12.710938 16.167969 C 12.738023 16.226214 12.750372 16.291243 12.75 16.361328 C 12.807931 16.587263 12.929273 16.744228 13.099609 16.775391 C 13.44743 16.146051 14.172042 15.681221 14.96875 15.671875 C 15.43062 15.666465 15.433894 15.659734 15.089844 15.402344 C 14.893694 15.255604 14.627482 15.205084 14.353516 15.242188 z M 6.1445312 16.912109 C 5.8602887 16.892739 5.8085938 16.962282 5.8085938 17.177734 C 5.8085938 17.687698 6.2089017 17.871741 7.6074219 18.019531 C 7.5324314 17.936276 7.4402908 17.852446 7.3964844 17.771484 C 7.2242844 17.453214 7.2672694 17.425781 7.9121094 17.425781 C 8.8687994 17.425781 9.5830281 17.711236 9.4550781 18.041016 C 9.3934981 18.199746 9.4571506 18.300781 9.6191406 18.300781 C 10.011721 18.300781 10.139209 17.788113 9.8242188 17.476562 C 9.6441187 17.298423 8.990775 17.154241 7.921875 17.056641 C 7.5904067 17.026391 7.3456836 16.993229 7.1054688 16.958984 C 6.9132245 16.987254 6.7116298 16.990602 6.5117188 16.958984 C 6.3585888 16.934759 6.2392788 16.918566 6.1445312 16.912109 z M 17.847656 16.912109 C 17.752908 16.918567 17.631638 16.934764 17.478516 16.958984 C 17.279933 16.990392 17.07979 16.986716 16.888672 16.958984 C 16.651899 16.992772 16.411492 17.02693 16.085938 17.056641 C 15.200898 17.137411 14.356734 17.302548 14.208984 17.423828 C 13.816524 17.746008 13.867382 18.300781 14.289062 18.300781 C 14.524352 18.300781 14.603306 18.216686 14.535156 18.041016 C 14.407256 17.711226 15.123408 17.425781 16.080078 17.425781 C 16.724928 17.425781 16.76595 17.455217 16.59375 17.773438 C 16.549842 17.8546 16.458065 17.938018 16.382812 18.021484 C 17.780284 17.87461 18.183594 17.690681 18.183594 17.179688 C 18.183594 16.964227 18.1319 16.892737 17.847656 16.912109 z M 11.373047 17.029297 C 11.208199 17.218709 11.196224 17.389206 11.326172 17.757812 C 11.354507 17.83822 11.364158 17.967312 11.380859 18.080078 C 11.386906 18.038051 11.386754 18.010971 11.394531 17.962891 C 11.441299 17.673642 11.422754 17.320448 11.373047 17.029297 z M 12.619141 17.03125 C 12.569583 17.318353 12.54684 17.663286 12.591797 17.941406 C 12.605032 18.023247 12.59311 18.077787 12.597656 18.150391 C 12.615067 18.008011 12.631142 17.856763 12.666016 17.757812 C 12.795323 17.390937 12.782416 17.220616 12.619141 17.03125 z M 13.001953 17.990234 C 12.929232 18.176005 12.881202 18.369584 12.880859 18.570312 C 12.880151 19.193873 13.794226 20 14.503906 20 C 15.152076 20 16.29185 19.331487 16.59375 18.773438 C 16.76595 18.455217 16.724928 18.425781 16.080078 18.425781 C 16.013965 18.425781 15.960092 18.436813 15.896484 18.439453 C 15.450832 18.745152 14.918141 18.984586 14.53125 18.994141 C 14.533558 19.009863 14.528966 19.025055 14.535156 19.041016 C 14.603306 19.216686 14.524352 19.300781 14.289062 19.300781 C 14.036308 19.300781 13.935354 19.098256 13.964844 18.869141 C 13.563623 18.688654 13.187032 18.344422 13.001953 17.990234 z M 10.962891 18.011719 C 10.880663 18.169105 10.760859 18.324938 10.595703 18.488281 C 10.387867 18.693841 10.190733 18.824283 9.984375 18.904297 C 9.9755589 19.116216 9.8524229 19.300781 9.6191406 19.300781 C 9.4571506 19.300781 9.3934981 19.199746 9.4550781 19.041016 C 9.4612706 19.025055 9.4566738 19.009863 9.4589844 18.994141 C 9.071848 18.984549 8.539529 18.74542 8.09375 18.439453 C 8.030595 18.436852 7.9777304 18.425781 7.9121094 18.425781 C 7.2672694 18.425781 7.2242844 18.453214 7.3964844 18.771484 C 7.6984844 19.329634 8.8381281 20 9.4863281 20 C 9.9041781 20 10.230533 19.849451 10.595703 19.488281 C 11.084809 19.004544 11.18997 18.572955 10.962891 18.011719 z M 12.578125 18.589844 C 12.47584 18.949077 12.178104 19.05876 11.722656 18.853516 C 11.55534 18.778114 11.464792 18.711302 11.410156 18.619141 C 11.406556 18.736793 11.411089 18.860484 11.394531 18.962891 C 11.294431 19.581711 11.329716 19.676436 11.722656 19.853516 C 12.388216 20.153446 12.729837 19.795016 12.591797 18.941406 C 12.575023 18.837639 12.580776 18.710482 12.578125 18.589844 z "
       id="path39" />
    <path
       d="m6.5949 14.489c0.60587-0.59922 0.64938-1.1076 0.16245-1.8975-0.37091-0.60169-0.95541-0.91363-1.7119-0.91363-0.38184 0-0.41791-0.0407-0.23204-0.26229 0.29822-0.35537 0.68302-0.32884 1.387 0.0956 0.6839 0.41238 1.0881 0.23604 1.0881-0.47472 0-0.44406-0.71067-1.2821-1.0873-1.2821-0.12065 0 0.074617-0.26634 0.43394-0.59186 0.5493-0.49763 0.65332-0.70578 0.65332-1.3074 0-0.98124-0.48721-1.2738-2.3673-1.4215-1.4897-0.11702-1.8757-0.23181-1.8757-0.55782 0-0.12283 0.084323-0.11673 0.24842 0.018 0.15547 0.12762 0.76049 0.1847 1.617 0.15255 1.2642-0.0474 1.3966-0.0886 1.7365-0.53972 0.48381-0.64224 0.50077-1.8101 0.031242-2.1497-0.38072-0.27534-0.29356-0.48546 0.13405-0.32317 0.45758 0.17366 0.70231 1.1677 0.48448 1.9677-0.10338 0.37974-0.30567 0.78704-0.44951 0.90512-0.22514 0.1848-0.18804 0.28261 0.26646 0.70252 0.43004 0.39732 0.52782 0.62891 0.52706 1.2482-4.651e-4 0.42776-0.14247 0.98988-0.32449 1.285-0.31446 0.5098-0.31413 0.53727 0.011931 0.97562 0.4144 0.55716 0.46074 1.4891 0.09221 1.8537-0.218 0.21561-0.23783 0.38043-0.094637 0.7866 0.099591 0.28261 0.13078 0.82511 0.069259 1.2056-0.1001 0.61882-0.065518 0.7126 0.32742 0.88968 0.66556 0.29993 1.0076-0.0591 0.86956-0.91271-0.059451-0.36778-0.026591-0.89992 0.073-1.1825 0.14346-0.40703 0.12332-0.571-0.096962-0.78883-0.38438-0.38017-0.34793-1.257 0.075932-1.8267 0.34539-0.46425 0.34613-0.48851 0.030332-1.0004-0.18201-0.29509-0.32398-0.85721-0.3245-1.285-7.077e-4 -0.61306 0.097771-0.85157 0.50823-1.2308 0.49435-0.45673 0.5001-0.48148 0.19762-0.85094-0.46859-0.57234-0.58528-1.497-0.28009-2.2194 0.14434-0.34167 0.38584-0.62121 0.53664-0.62121 0.36501 0 0.34608 0.10378-0.099287 0.54425-0.44432 0.43945-0.37041 1.362 0.16619 2.0745 0.29792 0.39557 0.47396 0.44655 1.7009 0.4926 0.85651 0.0322 1.4615-0.0249 1.617-0.15255 0.16411-0.1347 0.24843-0.1408 0.24843-0.018 0 0.32601-0.38599 0.4408-1.8757 0.55782-1.8801 0.14769-2.3673 0.44024-2.3673 1.4215 0 0.60161 0.10402 0.80976 0.65332 1.3074 0.35933 0.32552 0.5546 0.59186 0.43394 0.59186-0.41743 0-1.0873 0.84537-1.0873 1.3722 0 0.60571 0.4469 0.85444 0.86533 0.48163 0.45877-0.40875 1.1291-0.49953 1.5214-0.20605 0.34405 0.25739 0.34079 0.26467-0.12108 0.27008-1.1082 0.013-2.0865 0.90254-2.0882 1.8987-7.078e-4 0.62356 0.91452 1.4291 1.6242 1.4291 0.64817 0 1.7876-0.66925 2.0895-1.2273 0.1722-0.31822 0.13039-0.34638-0.51446-0.34638-0.95667 0-1.6719 0.28464-1.544 0.61443 0.06815 0.17567-0.01193 0.25985-0.24722 0.25985-0.42168 0-0.47193-0.55491-0.07947-0.87709 0.14775-0.12128 0.99276-0.28659 1.8778-0.36736 1.6822-0.15352 2.0966-0.32692 2.0966-0.87729 0-0.28728-0.09191-0.31584-0.7044-0.21896-0.76759 0.1214-1.5939-0.25052-1.5939-0.7174 0-0.20039 0.12435-0.17979 0.6038 0.1 0.55576 0.32432 0.65309 0.33198 1.2233 0.0963 0.82249-0.33989 1.0997-0.85322 0.82056-1.5197-0.29054-0.69374-0.65762-0.97899-0.92259-0.71692-0.36531 0.36131-0.5033 0.21393-0.21176-0.22616 0.16715-0.25231 0.23664-0.57593 0.16896-0.78685-0.09757-0.3039-0.2625-0.35827-1.087-0.35827-1.2564 0-1.656 0.21447-1.656 0.88887 0 0.42875 0.10699 0.57141 0.57457 0.76611l0.57457 0.23926-0.4933 0.12274c-0.57568 0.14323-1.0921-0.22349-1.263-0.89688-0.24753-0.97543 0.75585-1.6447 2.4658-1.6447 0.81122 0 1.063-0.0761 1.42-0.42919 0.53342-0.52758 0.54267-0.78577 0.05035-1.4048-0.40752-0.51241-0.61301-0.52281-3.0209-0.1529-1.2094 0.18578-1.9112-0.68285-1.3658-1.6906 0.22665-0.41887 1.459-0.75674 2.235-0.61275 0.91841 0.17041 0.69543 0.44345-0.36215 0.44345-1.1447 0-1.8145 0.41424-1.6249 1.005 0.1603 0.49953 0.4803 0.53503 2.0968 0.23262 1.1612-0.21724 1.3908-0.31752 1.4736-0.64378 0.14239-0.5611-0.20032-1.0683-0.99161-1.4676-0.76479-0.3859-1.4981-0.44352-2.2147-0.17404-0.35838 0.13476-0.45196 0.12448-0.39762-0.0437 0.03903-0.12098 0.4449-0.34439 0.90182-0.49648 0.79332-0.26406 0.81606-0.28966 0.50479-0.56828-0.80505-0.72057-2.4859-0.0506-2.2458 0.89517 0.1006 0.39634 0.080987 0.42102-0.17053 0.21459-0.19651-0.16131-0.25058-0.38448-0.1753-0.7235 0.093625-0.42144 0.045094-0.50608-0.34572-0.60309-0.25003-0.0621-0.66124-0.0615-0.91381 1e-3 -0.37224 0.0924-0.43993 0.19-0.35738 0.51525 0.059754 0.23572-0.010111 0.53916-0.16872 0.73553-0.25985 0.32107-0.26602 0.31815-0.15629-0.074 0.26785-0.95737-1.4397-1.6866-2.2504-0.96106-0.31127 0.27861-0.28853 0.30422 0.50479 0.56828 1.1624 0.38691 1.2133 0.70794 0.075628 0.47745-0.73834-0.14959-0.99297-0.12565-1.6152 0.15185-0.87633 0.39084-1.3112 0.96728-1.1648 1.5441 0.091704 0.36126 0.27738 0.44299 1.478 0.65058 1.4737 0.25479 1.8298 0.24197 2.0334-0.0733 0.19886-0.30787 0.165-0.43402-0.21828-0.81309-0.26786-0.26493-0.5893-0.34971-1.3259-0.34971-1.0736 0-1.3075-0.27168-0.38173-0.44346 0.776-0.14398 2.0084 0.19389 2.235 0.61276 0.54531 1.0078-0.15645 1.8764-1.3658 1.6906-2.4079-0.3699-2.6134-0.3595-3.0209 0.1529-0.49232 0.61903-0.48306 0.87723 0.050351 1.4048 0.35699 0.35308 0.6088 0.42919 1.42 0.42919 1.7757 0 2.8 0.76699 2.4031 1.7994-0.24025 0.62499-0.65244 0.8784-1.2051 0.74089l-0.48848-0.12154 0.57457-0.23925c0.46759-0.19471 0.57457-0.33736 0.57457-0.76611 0-0.67448-0.39956-0.88894-1.656-0.88894-0.82454 0-0.98952 0.0544-1.087 0.35827-0.067641 0.21092 0.00202 0.53454 0.16896 0.78685 0.29282 0.442 0.15299 0.5869-0.21507 0.22288-0.26695-0.26402-0.84363 0.21688-1.0003 0.83415-0.15158 0.59735 0.17405 1.1051 0.90154 1.4057 0.57023 0.23564 0.66755 0.22798 1.2233-0.0963 0.47945-0.27978 0.60379-0.30038 0.60379-0.1 0 0.46688-0.82632 0.8388-1.5939 0.7174-0.61252-0.0969-0.70438-0.0683-0.70438 0.21897 0 0.55136 0.41498 0.72382 2.1151 0.87897 1.0689 0.0976 1.7219 0.24168 1.902 0.41982 0.31499 0.31155 0.18762 0.82295-0.20496 0.82295-0.16199 0-0.22595-0.10113-0.16437-0.25986 0.12795-0.32978-0.58731-0.61442-1.544-0.61442-0.64484 0-0.68665 0.0281-0.51445 0.34637 0.302 0.55815 1.4414 1.2274 2.0896 1.2274 0.41785 0 0.74293-0.14995 1.1081-0.51112zm-4.9202-5.5021c0.45504-0.34167 0.60022-1.2503 0.22266-1.3936-0.3882-0.14733-0.60261-5e-3 -0.81203 0.54005-0.16899 0.43961-0.071989 1.1016 0.15992 1.0909 0.066428-3e-3 0.25962-0.10989 0.42945-0.23741zm13.297-0.0836c0.11391-0.35499-0.13182-1.1494-0.4077-1.3181-0.09443-0.0577-0.29827-0.057-0.45289 2e-3 -0.42847 0.16262-0.35393 1.0256 0.11664 1.3502 0.52228 0.36033 0.61888 0.35593 0.74396-0.0338z"
       fill="#fff"
       id="base"
       transform="translate(4,4)" />
  </g>
</svg>
