<?xml version="1.0" encoding="UTF-8" standalone="no"?>
<!-- Created with Inkscape (http://www.inkscape.org/) -->

<svg
   xmlns:dc="http://purl.org/dc/elements/1.1/"
   xmlns:cc="http://creativecommons.org/ns#"
   xmlns:rdf="http://www.w3.org/1999/02/22-rdf-syntax-ns#"
   xmlns:svg="http://www.w3.org/2000/svg"
   xmlns="http://www.w3.org/2000/svg"
   xmlns:xlink="http://www.w3.org/1999/xlink"
   xmlns:sodipodi="http://sodipodi.sourceforge.net/DTD/sodipodi-0.dtd"
   xmlns:inkscape="http://www.inkscape.org/namespaces/inkscape"
   width="24"
   height="24"
   id="svg2"
   sodipodi:version="0.32"
   inkscape:version="0.92.2 5c3e80d, 2017-08-06"
   version="1.0"
   sodipodi:docname="gcolor2.svg"
   inkscape:output_extension="org.inkscape.output.svg.inkscape"
   style="display:inline">
  <defs
     id="defs4">
    <pattern
       inkscape:collect="always"
       xlink:href="#pattern1637"
       id="pattern1642"
       patternTransform="translate(-31,-3)" />
    <linearGradient
       id="linearGradient3934">
      <stop
         style="stop-color:#282828;stop-opacity:1"
         offset="0"
         id="stop3936" />
      <stop
         style="stop-color:#595959;stop-opacity:1"
         offset="1"
         id="stop3938" />
    </linearGradient>
    <linearGradient
       id="linearGradient3907">
      <stop
         style="stop-color:#000000;stop-opacity:1"
         offset="0"
         id="stop3909" />
      <stop
         style="stop-color:#000000;stop-opacity:0"
         offset="1"
         id="stop3911" />
    </linearGradient>
    <linearGradient
       inkscape:collect="always"
       id="linearGradient3327">
      <stop
         style="stop-color:#000000;stop-opacity:1"
         offset="0"
         id="stop3330" />
      <stop
         style="stop-color:#000000;stop-opacity:0"
         offset="1"
         id="stop3333" />
    </linearGradient>
    <linearGradient
       inkscape:collect="always"
       xlink:href="#linearGradient3327"
       id="linearGradient3335"
       x1="11.375"
       y1="22"
       x2="11.375"
       y2="-9.817296"
       gradientUnits="userSpaceOnUse" />
    <linearGradient
       inkscape:collect="always"
       xlink:href="#ButtonColor"
       id="linearGradient3181"
       x1="-3.0607977"
       y1="27.258198"
       x2="-3.0607977"
       y2="7.2536583"
       gradientUnits="userSpaceOnUse"
       gradientTransform="translate(12.119372,-7.2581977)" />
    <inkscape:perspective
       sodipodi:type="inkscape:persp3d"
       inkscape:vp_x="0 : 11 : 1"
       inkscape:vp_y="0 : 1000 : 0"
       inkscape:vp_z="22 : 11 : 1"
       inkscape:persp3d-origin="11 : 7.3333333 : 1"
       id="perspective2531" />
    <linearGradient
       id="ButtonShadow"
       gradientTransform="scale(0.9883037,1.0118347)"
       x1="9.3550024"
       y1="21.742682"
       x2="9.3550024"
       y2="0.49362123"
       gradientUnits="userSpaceOnUse">
      <stop
         id="stop3277"
         offset="0"
         style="stop-color:#000000;stop-opacity:0.70588237" />
      <stop
         id="stop3279"
         offset="1"
         style="stop-color:#000000;stop-opacity:0.15686275" />
    </linearGradient>
    <linearGradient
       inkscape:collect="always"
       id="linearGradient3232">
      <stop
         style="stop-color:#000000;stop-opacity:1"
         offset="0"
         id="stop3234" />
      <stop
         style="stop-color:#000000;stop-opacity:0"
         offset="1"
         id="stop3236" />
    </linearGradient>
    <linearGradient
       gradientUnits="userSpaceOnUse"
       y2="-6.0004225"
       x2="11"
       y1="14.805666"
       x1="11"
       id="linearGradient3221"
       xlink:href="#linearGradient3232"
       inkscape:collect="always" />
    <linearGradient
       id="ButtonColor"
       x1="10.31979"
       y1="21"
       x2="10.31979"
       y2="0.99929649"
       gradientUnits="userSpaceOnUse">
      <stop
         style="stop-color:#dcdcdc;stop-opacity:1"
         offset="0"
         id="stop3189" />
      <stop
         style="stop-color:#f0f0f0;stop-opacity:1"
         offset="1"
         id="stop3191" />
    </linearGradient>
    <linearGradient
       inkscape:collect="always"
       xlink:href="#ButtonShadow"
       id="linearGradient38042"
       gradientUnits="userSpaceOnUse"
       gradientTransform="scale(0.9883037,1.0118347)"
       x1="9.3550024"
       y1="21.742682"
       x2="9.3550024"
       y2="0.49362123" />
    <filter
       inkscape:collect="always"
       id="filter3194"
       x="-0.18000001"
       width="1.36"
       y="-0.18000001"
       height="1.36"
       color-interpolation-filters="sRGB">
      <feGaussianBlur
         inkscape:collect="always"
         stdDeviation="1.2"
         id="feGaussianBlur3196" />
    </filter>
    <clipPath
       clipPathUnits="userSpaceOnUse"
       id="clipPath2849">
      <rect
         ry="2"
         rx="2"
         y="1"
         x="1"
         height="20"
         width="20"
         id="rect2851"
         style="fill:#ffffff;fill-opacity:1;fill-rule:evenodd;stroke:none;display:inline" />
    </clipPath>
    <linearGradient
       inkscape:collect="always"
       xlink:href="#linearGradient3825"
       id="linearGradient3831"
       x1="15"
       y1="48"
       x2="15"
       y2="8"
       gradientUnits="userSpaceOnUse"
       spreadMethod="reflect"
       gradientTransform="translate(3,0)" />
    <linearGradient
       id="linearGradient3825">
      <stop
         style="stop-color:#000000;stop-opacity:1"
         offset="0"
         id="stop3827" />
      <stop
         id="stop3833"
         offset="0.60000002"
         style="stop-color:#000000;stop-opacity:1" />
      <stop
         style="stop-color:#000000;stop-opacity:0"
         offset="1"
         id="stop3829" />
    </linearGradient>
    <linearGradient
       y2="8"
       x2="15"
       y1="48"
       x1="15"
       spreadMethod="reflect"
       gradientTransform="translate(-58,-54)"
       gradientUnits="userSpaceOnUse"
       id="linearGradient3978"
       xlink:href="#linearGradient3825"
       inkscape:collect="always" />
    <linearGradient
       inkscape:collect="always"
       xlink:href="#linearGradient3825"
       id="linearGradient3850"
       gradientUnits="userSpaceOnUse"
       gradientTransform="matrix(1,0,0,0.225,1,-0.8)"
       spreadMethod="reflect"
       x1="15"
       y1="48"
       x2="15"
       y2="8" />
    <linearGradient
       y2="16"
       x2="10"
       y1="1"
       x1="10"
       gradientUnits="userSpaceOnUse"
       id="linearGradient3078"
       xlink:href="#linearGradient3823"
       inkscape:collect="always"
       gradientTransform="translate(1,-1)" />
    <linearGradient
       id="linearGradient3823">
      <stop
         id="stop3825"
         offset="0"
         style="stop-color:#ffffff;stop-opacity:1" />
      <stop
         id="stop3829-6"
         offset="1"
         style="stop-color:#ffffff;stop-opacity:0" />
    </linearGradient>
    <linearGradient
       inkscape:collect="always"
       xlink:href="#linearGradient3831-4"
       id="linearGradient3845"
       x1="11"
       y1="19.5"
       x2="21"
       y2="19.5"
       gradientUnits="userSpaceOnUse"
       spreadMethod="reflect"
       gradientTransform="translate(1,-1)" />
    <linearGradient
       id="linearGradient3831-4">
      <stop
         style="stop-color:#ffffff;stop-opacity:1"
         offset="0"
         id="stop3833-0" />
      <stop
         id="stop3821"
         offset="0.75"
         style="stop-color:#ffffff;stop-opacity:0.49803922" />
      <stop
         style="stop-color:#ffffff;stop-opacity:0"
         offset="1"
         id="stop3835" />
    </linearGradient>
    <linearGradient
       y2="16"
       x2="10"
       y1="1"
       x1="10"
       gradientTransform="translate(1,-1)"
       gradientUnits="userSpaceOnUse"
       id="linearGradient3892"
       xlink:href="#linearGradient3823"
       inkscape:collect="always" />
    <pattern
       inkscape:collect="always"
       xlink:href="#pattern2722"
       id="pattern2779"
       patternTransform="matrix(0.21007045,0,0,0.21007045,1.05e-6,-10e-8)" />
    <pattern
       patternUnits="userSpaceOnUse"
       width="123.768"
       height="123.768"
       patternTransform="translate(-13.883999,-15.883999)"
       id="pattern2722">
      <g
         transform="matrix(1.265625,0,0,1.265625,1.1339986,3.6652488)"
         id="g985"
         style="display:inline;stroke-width:0.79012346;filter:url(#filter2718)">
        <path
           style="opacity:1;fill:#ffff00;fill-opacity:1;stroke-width:0.78818166"
           d="M 34.564971,14.180194 61,13.999999 48,46 Z"
           id="path916"
           inkscape:connector-curvature="0"
           sodipodi:nodetypes="cccc"
           transform="matrix(1.0024455,0.0060198,-0.0060198,1.0024455,0.1595268,-0.40144291)" />
        <path
           sodipodi:nodetypes="cccc"
           inkscape:connector-curvature="0"
           id="path919"
           d="M 61.224425,14.000001 79.978497,32.723664 48,46 Z"
           style="opacity:1;fill:#00ff00;fill-opacity:1;stroke-width:0.7901234" />
        <path
           style="opacity:1;fill:#008000;fill-opacity:1;stroke-width:0.7901234"
           d="m 79.978497,32.723665 0.0215,26.50076 L 48,46 Z"
           id="path929"
           inkscape:connector-curvature="0"
           sodipodi:nodetypes="cccc" />
        <path
           sodipodi:nodetypes="cccc"
           inkscape:connector-curvature="0"
           id="path935"
           d="M 80.000001,59.224425 61.276338,77.978497 48.000002,46 Z"
           style="opacity:1;fill:#0000ff;fill-opacity:1;stroke-width:0.7901234" />
        <path
           style="opacity:1;fill:#000080;fill-opacity:1;stroke-width:0.7901234"
           d="m 61.276335,77.978497 -26.50076,0.0215 L 48,46 Z"
           id="path941"
           inkscape:connector-curvature="0"
           sodipodi:nodetypes="cccc" />
        <path
           sodipodi:nodetypes="cccc"
           inkscape:connector-curvature="0"
           id="path947"
           d="M 34.775575,78.000001 16.021503,59.276338 48,46.000002 Z"
           style="opacity:1;fill:#800080;fill-opacity:1;stroke-width:0.7901234" />
        <path
           style="opacity:1;fill:#ff0000;fill-opacity:1;stroke-width:0.7901234"
           d="m 16.021503,59.276335 -0.0215,-26.50076 32,13.224425 z"
           id="path953"
           inkscape:connector-curvature="0"
           sodipodi:nodetypes="cccc" />
        <path
           sodipodi:nodetypes="cccc"
           inkscape:connector-curvature="0"
           id="path959"
           d="M 16.000001,32.775575 34.723664,14.021503 48,46 Z"
           style="opacity:1;fill:#ff6600;fill-opacity:1;stroke-width:0.7901234" />
      </g>
    </pattern>
    <filter
       inkscape:collect="always"
       style="color-interpolation-filters:sRGB"
       id="filter2718"
       x="-0.264"
       width="1.528"
       y="-0.264"
       height="1.528">
      <feGaussianBlur
         inkscape:collect="always"
         stdDeviation="7.04"
         id="feGaussianBlur2720" />
    </filter>
    <pattern
       patternUnits="userSpaceOnUse"
       width="26"
       height="26"
       patternTransform="translate(-1,-3)"
       id="pattern1637">
      <rect
         id="rect2733"
         y="0"
         x="0"
         height="26"
         width="26"
         style="display:inline;fill:url(#pattern2779);stroke:none;stroke-width:1" />
    </pattern>
  </defs>
  <sodipodi:namedview
     id="base"
     pagecolor="#ffffff"
     bordercolor="#e7e7e7"
     borderopacity="1"
     inkscape:pageopacity="0.0"
     inkscape:pageshadow="2"
     inkscape:zoom="21.28762"
     inkscape:cx="4.9561923"
     inkscape:cy="10.907391"
     inkscape:document-units="px"
     inkscape:current-layer="layer3"
     showgrid="true"
     inkscape:showpageshadow="false"
     showguides="true"
     inkscape:guide-bbox="true"
     inkscape:window-width="1366"
     inkscape:window-height="743"
     inkscape:window-x="0"
     inkscape:window-y="25"
     inkscape:window-maximized="1">
    <sodipodi:guide
       orientation="0,1"
       position="26.278146,128"
       id="guide2385"
       inkscape:locked="false" />
    <sodipodi:guide
       orientation="1,0"
       position="128,54.082119"
       id="guide2387"
       inkscape:locked="false" />
    <sodipodi:guide
       orientation="0,1"
       position="78.156291,0"
       id="guide2389"
       inkscape:locked="false" />
    <sodipodi:guide
       orientation="0,1"
       position="60.863576,64.084768"
       id="guide2391"
       inkscape:locked="false" />
    <inkscape:grid
       type="xygrid"
       id="grid3672"
       visible="true"
       enabled="true"
       empspacing="8"
       snapvisiblegridlinesonly="true" />
  </sodipodi:namedview>
  <metadata
     id="metadata7">
    <rdf:RDF>
      <cc:Work
         rdf:about="">
        <dc:format>image/svg+xml</dc:format>
        <dc:type
           rdf:resource="http://purl.org/dc/dcmitype/StillImage" />
        <dc:title />
      </cc:Work>
    </rdf:RDF>
  </metadata>
  <g
     inkscape:label="Button"
     inkscape:groupmode="layer"
     id="layer1"
     transform="translate(0,2)"
     style="display:inline"
     sodipodi:insensitive="true">
    <g
       style="display:inline"
       id="g3337"
       transform="translate(1,-1)">
      <rect
         ry="2.5"
         rx="2.5"
         y="0.5"
         x="0.5"
         height="21.5"
         width="21"
         id="rect3371"
         style="display:inline;opacity:0.3;fill:url(#linearGradient3335);fill-opacity:1;stroke:none" />
      <rect
         style="display:inline;opacity:0.5;fill:#000000;fill-opacity:1;stroke:none"
         id="rect2553"
         width="20"
         height="20"
         x="1"
         y="2"
         rx="2.3809524"
         ry="2.3255813" />
    </g>
    <rect
       style="display:inline;fill:url(#linearGradient3181);fill-opacity:1;fill-rule:evenodd;stroke:none"
       id="rect3173"
       width="20"
       height="20"
       x="2"
       y="0"
       rx="2"
       ry="2" />
    <path
       style="display:inline;opacity:0.6;fill:url(#linearGradient3892);fill-opacity:1;fill-rule:evenodd;stroke:none"
       d="M 4,0 C 2.892,0 2,0.892 2,2 v 16 c 0,1.108 0.892,2 2,2 h 16 c 1.108,0 2,-0.892 2,-2 V 2 C 22,0.892 21.108,0 20,0 Z m 0,1.03125 h 16 c 0.5497,0 0.96875,0.4190495 0.96875,0.96875 v 16 c 0,0.5497 -0.41905,0.96875 -0.96875,0.96875 H 4 C 3.4502995,18.96875 3.03125,18.5497 3.03125,18 V 2 C 3.03125,1.4502995 3.4502995,1.03125 4,1.03125 Z"
       id="rect3050"
       inkscape:connector-curvature="0" />
    <path
       id="path3235"
       d="M 4,20 C 2.892,20 2,19.108 2,18 v -1 c 0,1.108 0.892,2 2,2 h 16 c 1.108,0 2,-0.892 2,-2 v 1 c 0,1.108 -0.892,2 -2,2 z"
       style="display:inline;opacity:0.35;fill:url(#linearGradient3845);fill-opacity:1;fill-rule:evenodd;stroke:none"
       inkscape:connector-curvature="0" />
  </g>
  <g
     inkscape:groupmode="layer"
     id="layer2"
     inkscape:label="Highlight"
     transform="translate(0,2)"
     style="display:inline"
     sodipodi:insensitive="true">
    <rect
       style="display:inline;opacity:0.15;fill:#ffffff;fill-opacity:1;fill-rule:nonzero;stroke:none;filter:url(#filter3194)"
       id="rect2410"
       width="16"
       height="16"
       x="3"
       y="3"
       rx="2"
       ry="2"
       clip-path="url(#clipPath2849)"
       transform="translate(1,-1)" />
  </g>
  <g
     inkscape:groupmode="layer"
     id="layer3"
     inkscape:label="Symbol"
     transform="translate(0,2)"
     style="display:inline">
    <circle
       style="opacity:1;fill:url(#pattern1637);fill-opacity:1.0;stroke-width:1"
       id="path1630"
       cx="12"
       cy="10"
       r="7" />
    <rect
       style="fill:url(#pattern1642);stroke:none"
       width="26"
       height="26"
       x="-31"
       y="-3"
       id="rect1640" />
    <path
       style="opacity:0.2;fill:#000000;fill-opacity:1;stroke-width:1"
       d="M 12 5 A 7 7 0 0 0 5 12 A 7 7 0 0 0 12 19 A 7 7 0 0 0 19 12 A 7 7 0 0 0 12 5 z M 12 6 A 6 6 0 0 1 18 12 A 6 6 0 0 1 12 18 A 6 6 0 0 1 6 12 A 6 6 0 0 1 12 6 z "
       transform="translate(0,-2)"
       id="circle1644" />
    <path
       style="opacity:0.5;fill:#000000;fill-opacity:1;stroke-width:1"
       d="M 12 5 A 7 7 0 0 0 5 12 A 7 7 0 0 0 5.0097656 12.292969 A 7 7 0 0 1 12 5.5 A 7 7 0 0 1 18.990234 12.207031 A 7 7 0 0 0 19 12 A 7 7 0 0 0 12 5 z "
       transform="translate(0,-2)"
       id="circle1646" />
    <path
       style="opacity:0.5;fill:#ffffff;fill-opacity:1;stroke-width:1"
       d="M 18.990234 11.707031 A 7 7 0 0 1 12 18.5 A 7 7 0 0 1 5.0097656 11.792969 A 7 7 0 0 0 5 12 A 7 7 0 0 0 12 19 A 7 7 0 0 0 19 12 A 7 7 0 0 0 18.990234 11.707031 z "
       transform="translate(0,-2)"
       id="circle1652" />
    <path
       id="path1660"
       d="M 18.990234,10.207031 A 7,7 0 0 1 12,17 7,7 0 0 1 5.0097656,10.292969 7,7 0 0 0 5,10.5 a 7,7 0 0 0 7,7 7,7 0 0 0 7,-7 7,7 0 0 0 -0.0098,-0.292969 z"
       style="opacity:1;fill:#ffffff;fill-opacity:1;stroke-width:1"
       inkscape:connector-curvature="0" />
  </g>
</svg>
