<?xml version="1.0" encoding="UTF-8" standalone="no"?>
<svg
   xmlns:dc="http://purl.org/dc/elements/1.1/"
   xmlns:cc="http://creativecommons.org/ns#"
   xmlns:rdf="http://www.w3.org/1999/02/22-rdf-syntax-ns#"
   xmlns:svg="http://www.w3.org/2000/svg"
   xmlns="http://www.w3.org/2000/svg"
   xmlns:sodipodi="http://sodipodi.sourceforge.net/DTD/sodipodi-0.dtd"
   xmlns:inkscape="http://www.inkscape.org/namespaces/inkscape"
   id="svg2"
   width="24"
   height="24"
   version="1.0"
   sodipodi:docname="gnupg.svg"
   inkscape:version="0.92.2 5c3e80d, 2017-08-06">
  <metadata
     id="metadata49">
    <rdf:RDF>
      <cc:Work
         rdf:about="">
        <dc:format>image/svg+xml</dc:format>
        <dc:type
           rdf:resource="http://purl.org/dc/dcmitype/StillImage" />
      </cc:Work>
    </rdf:RDF>
  </metadata>
  <sodipodi:namedview
     pagecolor="#ffffff"
     bordercolor="#666666"
     borderopacity="1"
     objecttolerance="10"
     gridtolerance="10"
     guidetolerance="10"
     inkscape:pageopacity="0"
     inkscape:pageshadow="2"
     inkscape:window-width="640"
     inkscape:window-height="480"
     id="namedview47"
     showgrid="false"
     inkscape:zoom="9.8333333"
     inkscape:cx="12"
     inkscape:cy="12"
     inkscape:window-x="0"
     inkscape:window-y="25"
     inkscape:window-maximized="0"
     inkscape:current-layer="svg2" />
  <defs
     id="defs4">
    <linearGradient
       id="linearGradient3335"
       x1="11.375"
       x2="11.375"
       y1="22"
       y2="-9.8173"
       gradientUnits="userSpaceOnUse">
      <stop
         id="stop3330"
         offset="0" />
      <stop
         id="stop3333"
         stop-opacity="0"
         offset="1" />
    </linearGradient>
    <linearGradient
       id="linearGradient3181"
       x1="-3.0608"
       x2="-3.0608"
       y1="27.258"
       y2="7.2537"
       gradientTransform="translate(12.119 -7.2582)"
       gradientUnits="userSpaceOnUse">
      <stop
         id="stop3189"
         stop-color="#1fa8b7"
         offset="0" />
      <stop
         id="stop3191"
         stop-color="#2ad4e6"
         offset="1" />
    </linearGradient>
    <filter
       id="filter3194"
       x="-.18"
       y="-.18"
       width="1.36"
       height="1.36"
       color-interpolation-filters="sRGB">
      <feGaussianBlur
         id="feGaussianBlur3196"
         stdDeviation="1.2" />
    </filter>
    <clipPath
       id="clipPath2849">
      <rect
         id="rect2851"
         x="1"
         y="1"
         width="20"
         height="20"
         rx="2"
         ry="2"
         fill="#fff"
         fill-rule="evenodd" />
    </clipPath>
    <linearGradient
       id="linearGradient3845"
       x1="11"
       x2="21"
       y1="19.5"
       y2="19.5"
       gradientTransform="translate(1,-1)"
       gradientUnits="userSpaceOnUse"
       spreadMethod="reflect">
      <stop
         id="stop3833"
         stop-color="#fff"
         offset="0" />
      <stop
         id="stop3821"
         stop-color="#fff"
         stop-opacity=".49804"
         offset=".75" />
      <stop
         id="stop3835"
         stop-color="#fff"
         stop-opacity="0"
         offset="1" />
    </linearGradient>
    <linearGradient
       id="linearGradient3961"
       x1="10"
       x2="10"
       y1="1"
       y2="16"
       gradientTransform="translate(1,-1)"
       gradientUnits="userSpaceOnUse">
      <stop
         id="stop3825"
         stop-color="#fff"
         offset="0" />
      <stop
         id="stop3829"
         stop-color="#fff"
         stop-opacity="0"
         offset="1" />
    </linearGradient>
  </defs>
  <g
     id="layer1"
     transform="translate(0,2)">
    <g
       id="g3337"
       transform="translate(1,-1)">
      <rect
         id="rect3371"
         x=".5"
         y=".5"
         width="21"
         height="21.5"
         rx="2.5"
         ry="2.5"
         fill="url(#linearGradient3335)"
         opacity=".3" />
      <rect
         id="rect2553"
         x="1"
         y="2"
         width="20"
         height="20"
         rx="2.381"
         ry="2.3256"
         opacity=".5" />
    </g>
    <rect
       id="rect3173"
       x="2"
       width="20"
       height="20"
       rx="2"
       ry="2"
       fill="url(#linearGradient3181)"
       fill-rule="evenodd" />
    <path
       id="rect3050"
       d="m4 0c-1.108 0-2 0.892-2 2v16c0 1.108 0.892 2 2 2h16c1.108 0 2-0.892 2-2v-16c0-1.108-0.892-2-2-2h-16zm0 1.0312h16c0.5497 0 0.96875 0.41905 0.96875 0.96875v16c0 0.5497-0.41905 0.96875-0.96875 0.96875h-16c-0.5497 0-0.96875-0.41905-0.96875-0.96875v-16c0-0.5497 0.41905-0.96875 0.96875-0.96875z"
       fill="url(#linearGradient3961)"
       fill-rule="evenodd"
       opacity=".35" />
    <path
       id="path3235"
       d="m4 20c-1.108 0-2-0.892-2-2v-1c0 1.108 0.892 2 2 2h16c1.108 0 2-0.892 2-2v1c0 1.108-0.892 2-2 2h-16z"
       fill="url(#linearGradient3845)"
       fill-rule="evenodd"
       opacity=".2" />
  </g>
  <g
     id="layer2"
     transform="translate(0,2)">
    <rect
       id="rect2410"
       transform="translate(1,-1)"
       x="3"
       y="3"
       width="16"
       height="16"
       rx="2"
       ry="2"
       clip-path="url(#clipPath2849)"
       fill="#fff"
       filter="url(#filter3194)"
       opacity=".15" />
  </g>
  <defs
     id="defs37">
    <filter
       id="w">
      <feGaussianBlur
         stdDeviation="0.20998568"
         id="feGaussianBlur29" />
    </filter>
    <linearGradient
       id="a"
       gradientUnits="userSpaceOnUse"
       x1="8"
       y1="1"
       x2="8"
       y2="15.00006">
      <stop
         stop-color="#fafafa"
         offset="0"
         id="stop32" />
      <stop
         stop-color="#ebebeb"
         offset="1"
         id="stop34" />
    </linearGradient>
  </defs>
  <g
     id="main">
    <path
       style="opacity:0.3;fill:#000000"
       d="M 10.197266 6.3496094 C 9.6972661 6.5746632 9.30429 6.9006726 8.9824219 7.2753906 C 8.6586432 7.8754937 8.4941406 8.4199219 8.4941406 8.4199219 C 8.4941406 8.4199219 9.1759677 7.0805091 10.197266 6.3496094 z M 12.042969 6.875 C 10.226289 6.875 9.7265625 8.5380919 9.7265625 9.0136719 L 9.7265625 10.013672 C 9.7265625 9.5380919 10.226289 7.875 12.042969 7.875 C 13.869069 7.875 14.271538 9.6853719 14.273438 10.013672 L 14.283203 12.009766 L 14.287109 12.009766 L 14.273438 9.0136719 C 14.271538 8.6853719 13.869069 6.875 12.042969 6.875 z M 16.091797 11.990234 C 16.091797 11.990234 15.30787 12.336655 14.285156 12.644531 L 14.287109 13.009766 L 12.736328 13.009766 C 12.411737 13.058054 12.087536 13.094768 11.767578 13.097656 C 8.5584781 13.123256 7 15.117188 7 15.117188 L 7 16.117188 C 7 16.117188 8.5584781 14.123256 11.767578 14.097656 C 13.780178 14.079486 16.091797 12.990234 16.091797 12.990234 L 16.091797 11.990234 z M 16.902344 13.824219 C 16.902344 13.824219 16.675787 13.961433 16.349609 14.132812 C 14.451142 15.713004 12.987922 16.073091 12.285156 16.140625 C 13.504221 16.093157 14.483422 15.862967 15.232422 15.609375 C 15.871471 15.170681 16.45966 14.595406 16.902344 13.824219 z M 15.759766 16.589844 C 15.759766 16.589844 15.353247 16.747269 14.765625 16.900391 C 12.742233 18.044482 10.425781 17.953125 10.425781 17.953125 C 11.534672 18.191688 12.510538 18.212122 13.324219 18.146484 C 13.962791 17.887071 14.792296 17.433223 15.759766 16.589844 z M 13.666016 19 C 12.651634 19.483282 12.025391 19.482422 12.025391 19.482422 C 10.778491 19.482422 9.5577469 19.30828 8.4355469 20 L 17 20 L 17 19 L 13.666016 19 z "
       id="path39" />
    <path
       d="m7.9066 1c-2.9957 0-3.9975 2.568-3.9975 4.2325v2.7584h-0.90909v3.1267s1.5575-1.9951 4.7666-2.0207c2.0126-0.018167 4.3244-1.106 4.3244-1.106v-3.0257c0-1.1776-0.93561-3.9652-4.1843-3.9652zm0.076364 0.45016c0.59135-0.0038 1.1845 0.12683 1.7742 0.36326 0 0-1.8408-0.53817-3.3786 0.40414-1.1246 0.6891-1.8846 2.2023-1.8846 2.2023s0.56967-1.9318 1.7317-2.5338c0.57973-0.29546 1.1659-0.43238 1.7572-0.43591zm0.059454 1.4258c1.8261 0 2.2284 1.8086 2.2303 2.1369l0.015 2.9962h-4.5605v-2.9962c0-0.47558 0.49852-2.1369 2.3152-2.1369zm4.9576 5.6897c-2.2159 2.0775-3.9341 2.4996-4.7156 2.5747 2.9845-0.11621 4.618-1.3168 4.618-1.3168-1.9075 3.323-6.4771 3.1286-6.4771 3.1286 3.1678 0.68151 5.3353-0.36326 5.3353-0.36326-2.1877 1.9071-3.7351 1.8935-3.7351 1.8935-1.2469 0-2.4686-0.17406-3.5908 0.51766h8.5654zm-4.7156 2.5747c-0.15199 0.0057-0.30367 0.0095-0.46265 0.0095 0 0 0.16468 0.01959 0.46265-0.0095z"
       fill="#fff"
       id="base"
       transform="translate(4,4)" />
  </g>
</svg>
