<?xml version="1.0" encoding="UTF-8" standalone="no"?>
<svg
   xmlns:dc="http://purl.org/dc/elements/1.1/"
   xmlns:cc="http://creativecommons.org/ns#"
   xmlns:rdf="http://www.w3.org/1999/02/22-rdf-syntax-ns#"
   xmlns:svg="http://www.w3.org/2000/svg"
   xmlns="http://www.w3.org/2000/svg"
   xmlns:sodipodi="http://sodipodi.sourceforge.net/DTD/sodipodi-0.dtd"
   xmlns:inkscape="http://www.inkscape.org/namespaces/inkscape"
   id="svg2"
   width="24"
   height="24"
   version="1.0"
   sodipodi:docname="ibus-pinyin.svg"
   inkscape:version="0.92.2 5c3e80d, 2017-08-06">
  <metadata
     id="metadata49">
    <rdf:RDF>
      <cc:Work
         rdf:about="">
        <dc:format>image/svg+xml</dc:format>
        <dc:type
           rdf:resource="http://purl.org/dc/dcmitype/StillImage" />
      </cc:Work>
    </rdf:RDF>
  </metadata>
  <sodipodi:namedview
     pagecolor="#ffffff"
     bordercolor="#666666"
     borderopacity="1"
     objecttolerance="10"
     gridtolerance="10"
     guidetolerance="10"
     inkscape:pageopacity="0"
     inkscape:pageshadow="2"
     inkscape:window-width="640"
     inkscape:window-height="480"
     id="namedview47"
     showgrid="false"
     inkscape:zoom="9.8333333"
     inkscape:cx="12"
     inkscape:cy="12"
     inkscape:window-x="0"
     inkscape:window-y="25"
     inkscape:window-maximized="0"
     inkscape:current-layer="svg2" />
  <defs
     id="defs4">
    <linearGradient
       id="linearGradient3335"
       x1="11.375"
       x2="11.375"
       y1="22"
       y2="-9.8173"
       gradientUnits="userSpaceOnUse">
      <stop
         id="stop3330"
         offset="0" />
      <stop
         id="stop3333"
         stop-opacity="0"
         offset="1" />
    </linearGradient>
    <linearGradient
       id="linearGradient3181"
       x1="-3.0608"
       x2="-3.0608"
       y1="27.258"
       y2="7.2537"
       gradientTransform="translate(12.119 -7.2582)"
       gradientUnits="userSpaceOnUse">
      <stop
         id="stop3189"
         stop-color="#1217b4"
         offset="0" />
      <stop
         id="stop3191"
         stop-color="#3e44eb"
         offset="1" />
    </linearGradient>
    <filter
       id="filter3194"
       x="-.18"
       y="-.18"
       width="1.36"
       height="1.36"
       color-interpolation-filters="sRGB">
      <feGaussianBlur
         id="feGaussianBlur3196"
         stdDeviation="1.2" />
    </filter>
    <clipPath
       id="clipPath2849">
      <rect
         id="rect2851"
         x="1"
         y="1"
         width="20"
         height="20"
         rx="2"
         ry="2"
         fill="#fff"
         fill-rule="evenodd" />
    </clipPath>
    <linearGradient
       id="linearGradient3845"
       x1="11"
       x2="21"
       y1="19.5"
       y2="19.5"
       gradientTransform="translate(1,-1)"
       gradientUnits="userSpaceOnUse"
       spreadMethod="reflect">
      <stop
         id="stop3833"
         stop-color="#fff"
         offset="0" />
      <stop
         id="stop3821"
         stop-color="#fff"
         stop-opacity=".49804"
         offset=".75" />
      <stop
         id="stop3835"
         stop-color="#fff"
         stop-opacity="0"
         offset="1" />
    </linearGradient>
    <linearGradient
       id="linearGradient3961"
       x1="10"
       x2="10"
       y1="1"
       y2="16"
       gradientTransform="translate(1,-1)"
       gradientUnits="userSpaceOnUse">
      <stop
         id="stop3825"
         stop-color="#fff"
         offset="0" />
      <stop
         id="stop3829"
         stop-color="#fff"
         stop-opacity="0"
         offset="1" />
    </linearGradient>
  </defs>
  <g
     id="layer1"
     transform="translate(0,2)">
    <g
       id="g3337"
       transform="translate(1,-1)">
      <rect
         id="rect3371"
         x=".5"
         y=".5"
         width="21"
         height="21.5"
         rx="2.5"
         ry="2.5"
         fill="url(#linearGradient3335)"
         opacity=".3" />
      <rect
         id="rect2553"
         x="1"
         y="2"
         width="20"
         height="20"
         rx="2.381"
         ry="2.3256"
         opacity=".5" />
    </g>
    <rect
       id="rect3173"
       x="2"
       width="20"
       height="20"
       rx="2"
       ry="2"
       fill="url(#linearGradient3181)"
       fill-rule="evenodd" />
    <path
       id="rect3050"
       d="m4 0c-1.108 0-2 0.892-2 2v16c0 1.108 0.892 2 2 2h16c1.108 0 2-0.892 2-2v-16c0-1.108-0.892-2-2-2h-16zm0 1.0312h16c0.5497 0 0.96875 0.41905 0.96875 0.96875v16c0 0.5497-0.41905 0.96875-0.96875 0.96875h-16c-0.5497 0-0.96875-0.41905-0.96875-0.96875v-16c0-0.5497 0.41905-0.96875 0.96875-0.96875z"
       fill="url(#linearGradient3961)"
       fill-rule="evenodd"
       opacity=".35" />
    <path
       id="path3235"
       d="m4 20c-1.108 0-2-0.892-2-2v-1c0 1.108 0.892 2 2 2h16c1.108 0 2-0.892 2-2v1c0 1.108-0.892 2-2 2h-16z"
       fill="url(#linearGradient3845)"
       fill-rule="evenodd"
       opacity=".2" />
  </g>
  <g
     id="layer2"
     transform="translate(0,2)">
    <rect
       id="rect2410"
       transform="translate(1,-1)"
       x="3"
       y="3"
       width="16"
       height="16"
       rx="2"
       ry="2"
       clip-path="url(#clipPath2849)"
       fill="#fff"
       filter="url(#filter3194)"
       opacity=".15" />
  </g>
  <defs
     id="defs37">
    <filter
       id="w">
      <feGaussianBlur
         stdDeviation="0.20998568"
         id="feGaussianBlur29" />
    </filter>
    <linearGradient
       id="a"
       gradientUnits="userSpaceOnUse"
       x1="8"
       y1="1.21875"
       x2="8"
       y2="14.865234">
      <stop
         stop-color="#fafafa"
         offset="0"
         id="stop32" />
      <stop
         stop-color="#ebebeb"
         offset="1"
         id="stop34" />
    </linearGradient>
  </defs>
  <g
     id="main">
    <path
       style="opacity:0.3;fill:#000000"
       d="M 16.882812 6.4472656 C 16.604201 6.9594543 16.325714 7.4460138 16.046875 7.8769531 L 16.648438 7.8769531 C 16.880517 7.4692921 17.113418 7.03879 17.345703 6.5742188 L 16.882812 6.4472656 z M 11.865234 6.5878906 L 11.320312 6.7519531 C 11.588664 7.0935494 11.805338 7.4754267 11.998047 7.8769531 L 13.402344 7.8769531 C 13.327394 7.7030295 13.255985 7.5267974 13.164062 7.3613281 L 12.324219 7.640625 C 12.199587 7.2667404 12.044565 6.9175239 11.865234 6.5878906 z M 5.4726562 8.8222656 L 5.4726562 9.8222656 L 7.421875 9.8222656 L 7.421875 8.8222656 L 5.4726562 8.8222656 z M 8.6035156 8.8222656 L 8.6035156 9.8222656 L 10.257812 9.8222656 L 10.257812 8.8222656 L 8.6035156 8.8222656 z M 10.494141 9 L 10.494141 10 L 12.029297 10 L 12.029297 9 L 10.494141 9 z M 13.210938 9 L 13.210938 10 L 15.691406 10 L 15.691406 9 L 13.210938 9 z M 16.873047 9 L 16.873047 10 L 18.527344 10 L 18.527344 9 L 16.873047 9 z M 13.210938 11.363281 C 13.210937 11.638951 13.191714 11.913793 13.152344 12.189453 L 13.210938 12.189453 L 13.210938 11.363281 z M 10.164062 11.742188 L 8.6035156 12.603516 L 8.6035156 13.603516 L 10.021484 12.820312 L 10.021484 12.189453 L 10.238281 12.189453 L 10.164062 11.742188 z M 7.421875 13.193359 C 6.791775 13.469029 6.1228625 13.745814 5.4140625 14.021484 L 5.2949219 13.666016 C 5.1911575 13.704389 5.1055172 13.742881 5 13.78125 L 5.4140625 15.021484 C 6.1228625 14.745814 6.791775 14.469029 7.421875 14.193359 L 7.421875 13.193359 z M 10.021484 13.3125 L 10.021484 14.3125 L 11.677734 14.3125 C 11.74956 13.992179 11.811903 13.662802 11.851562 13.3125 L 10.021484 13.3125 z M 13.091797 13.3125 C 12.816117 15.8329 11.872412 17.683834 10.257812 18.865234 L 9.9511719 18.537109 C 9.7869782 18.693395 9.61439 18.841305 9.4296875 18.978516 L 10.257812 19.865234 C 11.872412 18.683834 12.816117 16.8329 13.091797 14.3125 L 15.691406 14.3125 L 15.691406 13.3125 L 13.091797 13.3125 z M 16.873047 13.3125 L 16.873047 14.3125 L 19 14.3125 L 19 13.3125 L 16.873047 13.3125 z M 8.6035156 17.210938 C 8.6035119 17.801656 8.5054977 18.214872 8.3085938 18.451172 C 8.1116838 18.687462 7.7772375 18.806641 7.3046875 18.806641 C 6.7533475 18.806641 6.2401781 18.747046 5.7675781 18.628906 L 5.7304688 18.433594 C 5.6647187 18.416111 5.5963406 18.408699 5.53125 18.388672 L 5.7675781 19.628906 C 6.2401781 19.747046 6.7533475 19.806641 7.3046875 19.806641 C 7.7772375 19.806641 8.1116838 19.687462 8.3085938 19.451172 C 8.5054977 19.214872 8.6035119 18.801656 8.6035156 18.210938 L 8.6035156 17.210938 z M 15.691406 18.806641 L 15.691406 19.806641 L 16.873047 19.806641 L 16.873047 18.806641 L 15.691406 18.806641 z "
       id="path39" />
    <path
       d="M 3.421875 1.21875 L 3.421875 3.7011719 L 1.4726562 3.7011719 L 1.4726562 4.8222656 L 3.421875 4.8222656 L 3.421875 7.8359375 C 2.673675 8.1509975 1.86638 8.46621 1 8.78125 L 1.4140625 10.021484 C 2.1228625 9.7458144 2.791775 9.4690294 3.421875 9.1933594 L 3.421875 12.916016 C 3.421875 13.388586 3.3238531 13.625 3.1269531 13.625 C 2.5756531 13.625 2.0432 13.546192 1.53125 13.388672 L 1.7675781 14.628906 C 2.2401781 14.747046 2.7533475 14.806641 3.3046875 14.806641 C 3.7772375 14.806641 4.1116838 14.687462 4.3085938 14.451172 C 4.5054977 14.214872 4.6035119 13.801657 4.6035156 13.210938 L 4.6035156 8.6035156 L 6.3164062 7.6582031 L 6.1386719 6.5957031 C 5.6266719 6.8319931 5.1154656 7.0876212 4.6035156 7.3632812 L 4.6035156 4.8222656 L 6.2578125 4.8222656 L 6.2578125 3.7011719 L 4.6035156 3.7011719 L 4.6035156 1.21875 L 3.421875 1.21875 z M 12.046875 1.21875 C 11.692435 2.16385 11.279201 3.0499631 10.806641 3.8769531 L 6.4941406 3.8769531 L 6.4941406 5 L 8.0292969 5 L 8.0292969 7.1855469 C 8.0292899 7.5399669 8.0100761 7.8744131 7.9707031 8.1894531 L 6.0214844 8.1894531 L 6.0214844 9.3125 L 7.8515625 9.3125 C 7.6152625 11.3997 6.8079875 12.954616 5.4296875 13.978516 L 6.2578125 14.865234 C 7.8724125 13.683834 8.8161169 11.8329 9.0917969 9.3125 L 11.691406 9.3125 L 11.691406 14.806641 L 12.873047 14.806641 L 12.873047 9.3125 L 15 9.3125 L 15 8.1894531 L 12.873047 8.1894531 L 12.873047 5 L 14.527344 5 L 14.527344 3.8769531 L 12.046875 3.8769531 C 12.480075 3.2074531 12.912503 2.4406188 13.345703 1.5742188 L 12.046875 1.21875 z M 8.5019531 1.3964844 L 7.3203125 1.7519531 C 7.7534825 2.3033531 8.0879287 2.931775 8.3242188 3.640625 L 9.5644531 3.2285156 C 9.3281431 2.5591156 8.9745131 1.9478344 8.5019531 1.3964844 z M 9.2109375 5 L 11.691406 5 L 11.691406 8.1894531 L 9.1523438 8.1894531 C 9.1917168 7.9137931 9.2109291 7.6389512 9.2109375 7.3632812 L 9.2109375 5 z "
       fill="#fff"
       id="base"
       transform="translate(4,4)" />
  </g>
</svg>
