<?xml version="1.0" encoding="UTF-8" standalone="no"?>
<svg
   xmlns:dc="http://purl.org/dc/elements/1.1/"
   xmlns:cc="http://creativecommons.org/ns#"
   xmlns:rdf="http://www.w3.org/1999/02/22-rdf-syntax-ns#"
   xmlns:svg="http://www.w3.org/2000/svg"
   xmlns="http://www.w3.org/2000/svg"
   xmlns:sodipodi="http://sodipodi.sourceforge.net/DTD/sodipodi-0.dtd"
   xmlns:inkscape="http://www.inkscape.org/namespaces/inkscape"
   id="svg2"
   width="24"
   height="24"
   version="1.0"
   sodipodi:docname="intel-linux-graphics.svg"
   inkscape:version="0.92.2 5c3e80d, 2017-08-06">
  <metadata
     id="metadata49">
    <rdf:RDF>
      <cc:Work
         rdf:about="">
        <dc:format>image/svg+xml</dc:format>
        <dc:type
           rdf:resource="http://purl.org/dc/dcmitype/StillImage" />
      </cc:Work>
    </rdf:RDF>
  </metadata>
  <sodipodi:namedview
     pagecolor="#ffffff"
     bordercolor="#666666"
     borderopacity="1"
     objecttolerance="10"
     gridtolerance="10"
     guidetolerance="10"
     inkscape:pageopacity="0"
     inkscape:pageshadow="2"
     inkscape:window-width="640"
     inkscape:window-height="480"
     id="namedview47"
     showgrid="false"
     inkscape:zoom="9.8333333"
     inkscape:cx="12"
     inkscape:cy="12"
     inkscape:window-x="0"
     inkscape:window-y="25"
     inkscape:window-maximized="0"
     inkscape:current-layer="svg2" />
  <defs
     id="defs4">
    <linearGradient
       id="linearGradient3335"
       x1="11.375"
       x2="11.375"
       y1="22"
       y2="-9.8173"
       gradientUnits="userSpaceOnUse">
      <stop
         id="stop3330"
         offset="0" />
      <stop
         id="stop3333"
         stop-opacity="0"
         offset="1" />
    </linearGradient>
    <linearGradient
       id="linearGradient3181"
       x1="-3.0608"
       x2="-3.0608"
       y1="27.258"
       y2="7.2537"
       gradientTransform="translate(12.119 -7.2582)"
       gradientUnits="userSpaceOnUse">
      <stop
         id="stop3189"
         stop-color="#127cc1"
         offset="0" />
      <stop
         id="stop3191"
         stop-color="#3399dc"
         offset="1" />
    </linearGradient>
    <filter
       id="filter3194"
       x="-.18"
       y="-.18"
       width="1.36"
       height="1.36"
       color-interpolation-filters="sRGB">
      <feGaussianBlur
         id="feGaussianBlur3196"
         stdDeviation="1.2" />
    </filter>
    <clipPath
       id="clipPath2849">
      <rect
         id="rect2851"
         x="1"
         y="1"
         width="20"
         height="20"
         rx="2"
         ry="2"
         fill="#fff"
         fill-rule="evenodd" />
    </clipPath>
    <linearGradient
       id="linearGradient3845"
       x1="11"
       x2="21"
       y1="19.5"
       y2="19.5"
       gradientTransform="translate(1,-1)"
       gradientUnits="userSpaceOnUse"
       spreadMethod="reflect">
      <stop
         id="stop3833"
         stop-color="#fff"
         offset="0" />
      <stop
         id="stop3821"
         stop-color="#fff"
         stop-opacity=".49804"
         offset=".75" />
      <stop
         id="stop3835"
         stop-color="#fff"
         stop-opacity="0"
         offset="1" />
    </linearGradient>
    <linearGradient
       id="linearGradient3961"
       x1="10"
       x2="10"
       y1="1"
       y2="16"
       gradientTransform="translate(1,-1)"
       gradientUnits="userSpaceOnUse">
      <stop
         id="stop3825"
         stop-color="#fff"
         offset="0" />
      <stop
         id="stop3829"
         stop-color="#fff"
         stop-opacity="0"
         offset="1" />
    </linearGradient>
  </defs>
  <g
     id="layer1"
     transform="translate(0,2)">
    <g
       id="g3337"
       transform="translate(1,-1)">
      <rect
         id="rect3371"
         x=".5"
         y=".5"
         width="21"
         height="21.5"
         rx="2.5"
         ry="2.5"
         fill="url(#linearGradient3335)"
         opacity=".3" />
      <rect
         id="rect2553"
         x="1"
         y="2"
         width="20"
         height="20"
         rx="2.381"
         ry="2.3256"
         opacity=".5" />
    </g>
    <rect
       id="rect3173"
       x="2"
       width="20"
       height="20"
       rx="2"
       ry="2"
       fill="url(#linearGradient3181)"
       fill-rule="evenodd" />
    <path
       id="rect3050"
       d="m4 0c-1.108 0-2 0.892-2 2v16c0 1.108 0.892 2 2 2h16c1.108 0 2-0.892 2-2v-16c0-1.108-0.892-2-2-2h-16zm0 1.0312h16c0.5497 0 0.96875 0.41905 0.96875 0.96875v16c0 0.5497-0.41905 0.96875-0.96875 0.96875h-16c-0.5497 0-0.96875-0.41905-0.96875-0.96875v-16c0-0.5497 0.41905-0.96875 0.96875-0.96875z"
       fill="url(#linearGradient3961)"
       fill-rule="evenodd"
       opacity=".35" />
    <path
       id="path3235"
       d="m4 20c-1.108 0-2-0.892-2-2v-1c0 1.108 0.892 2 2 2h16c1.108 0 2-0.892 2-2v1c0 1.108-0.892 2-2 2h-16z"
       fill="url(#linearGradient3845)"
       fill-rule="evenodd"
       opacity=".2" />
  </g>
  <g
     id="layer2"
     transform="translate(0,2)">
    <rect
       id="rect2410"
       transform="translate(1,-1)"
       x="3"
       y="3"
       width="16"
       height="16"
       rx="2"
       ry="2"
       clip-path="url(#clipPath2849)"
       fill="#fff"
       filter="url(#filter3194)"
       opacity=".15" />
  </g>
  <defs
     id="defs37">
    <filter
       id="w">
      <feGaussianBlur
         stdDeviation="0.20998568"
         id="feGaussianBlur29" />
    </filter>
    <linearGradient
       id="a"
       gradientUnits="userSpaceOnUse"
       x1="8"
       y1="3.7391684"
       x2="8"
       y2="13.0000162">
      <stop
         stop-color="#fafafa"
         offset="0"
         id="stop32" />
      <stop
         stop-color="#ebebeb"
         offset="1"
         id="stop34" />
    </linearGradient>
  </defs>
  <g
     id="main">
    <path
       style="opacity:0.3;fill:#000000"
       d="M 13.931641 8.7402344 C 11.982741 8.7662194 9.8062344 9.3292906 8.0527344 10.400391 L 8.0527344 10.671875 C 11.074872 9.1119183 15.050945 8.7380333 17.041016 9.921875 C 17.049136 9.9210812 17.05609 9.9160156 17.064453 9.9160156 C 17.107303 9.9160156 17.148437 9.9260766 17.185547 9.9472656 C 17.222877 9.9682376 17.252228 9.9970991 17.273438 10.033203 C 17.285451 10.053655 17.285964 10.077256 17.291016 10.099609 C 17.759038 10.443769 18.08406 10.892116 18.214844 11.455078 C 18.284208 11.167451 18.304015 10.871266 18.251953 10.578125 C 18.204276 10.304951 18.099003 10.065443 17.96875 9.8417969 C 17.038694 9.0850086 15.571273 8.7183796 13.931641 8.7402344 z M 17.082031 9.9511719 C 17.142575 9.9884547 17.195331 10.031992 17.251953 10.072266 C 17.24871 10.064826 17.250356 10.05598 17.246094 10.048828 C 17.227544 10.017476 17.202392 9.9929874 17.169922 9.9746094 C 17.142999 9.9592702 17.112826 9.9536555 17.082031 9.9511719 z M 17.064453 10.916016 C 17.021813 10.916016 16.982423 10.926296 16.945312 10.947266 C 16.908203 10.968236 16.878852 10.996873 16.857422 11.033203 C 16.835992 11.069523 16.826172 11.108661 16.826172 11.150391 C 16.826172 11.191251 16.834969 11.229525 16.855469 11.265625 C 16.876239 11.301515 16.906029 11.329723 16.943359 11.351562 C 16.980919 11.373183 17.020943 11.384766 17.064453 11.384766 C 17.107093 11.384766 17.146484 11.374276 17.183594 11.353516 C 17.220924 11.332546 17.250274 11.303908 17.271484 11.267578 C 17.292914 11.231038 17.304688 11.192121 17.304688 11.150391 C 17.304686 11.108441 17.294647 11.069313 17.273438 11.033203 C 17.252228 10.997093 17.222877 10.968246 17.185547 10.947266 C 17.148437 10.926076 17.107303 10.916016 17.064453 10.916016 z M 17.064453 10.947266 C 17.102003 10.947266 17.137672 10.956269 17.169922 10.974609 C 17.202392 10.992989 17.227544 11.017478 17.246094 11.048828 C 17.264654 11.079968 17.273438 11.113851 17.273438 11.150391 C 17.273438 11.186931 17.264634 11.220393 17.246094 11.251953 C 17.227534 11.283523 17.202392 11.308012 17.169922 11.326172 C 17.137452 11.344332 17.101793 11.353516 17.064453 11.353516 C 17.027123 11.353516 16.992977 11.344312 16.960938 11.326172 C 16.928908 11.308012 16.903546 11.283523 16.884766 11.251953 C 16.866206 11.220383 16.857422 11.186931 16.857422 11.150391 C 16.857422 11.114281 16.866226 11.080388 16.884766 11.048828 C 16.903326 11.017258 16.928687 10.992769 16.960938 10.974609 C 16.993188 10.956229 17.027333 10.947266 17.064453 10.947266 z M 7.0410156 11.003906 L 7.0410156 11.089844 L 7.765625 11.089844 L 7.765625 11.003906 L 7.0410156 11.003906 z M 16.970703 11.015625 L 16.970703 11.285156 L 17.011719 11.285156 L 17.011719 11.175781 L 17.066406 11.175781 L 17.130859 11.285156 L 17.179688 11.285156 L 17.105469 11.171875 C 17.124249 11.167775 17.140864 11.159674 17.152344 11.146484 C 17.163834 11.133074 17.169922 11.1158 17.169922 11.09375 C 17.169922 11.06975 17.161321 11.050729 17.144531 11.037109 C 17.127961 11.023489 17.103626 11.015625 17.072266 11.015625 L 16.970703 11.015625 z M 17.011719 11.048828 L 17.068359 11.048828 C 17.086249 11.048828 17.100948 11.052727 17.111328 11.060547 C 17.121928 11.068347 17.126953 11.07883 17.126953 11.09375 C 17.126953 11.10997 17.122551 11.123512 17.113281 11.132812 C 17.103981 11.141913 17.089936 11.146484 17.072266 11.146484 L 17.011719 11.146484 L 17.011719 11.048828 z M 6.5292969 11.396484 C 6.2047605 11.682139 5.9266715 11.991206 5.6953125 12.318359 C 5.5716303 12.759904 5.5140477 13.223441 5.5996094 13.679688 C 5.6015194 13.689959 5.6054011 13.698792 5.6074219 13.708984 C 5.7236493 12.967523 6.0804148 12.264297 6.5292969 11.773438 L 6.5292969 11.396484 z M 18.947266 11.460938 C 18.80141 12.314742 18.297133 13.026578 17.683594 13.490234 C 17.46854 13.748142 17.206111 13.980111 16.894531 14.166016 L 16.894531 14.933594 C 18.056876 14.507103 19.236217 13.141515 18.947266 11.460938 z M 14.048828 12.042969 C 13.82961 12.042969 13.628171 12.091596 13.449219 12.177734 C 13.44642 12.202484 13.435358 12.219194 13.433594 12.248047 L 14.542969 12.248047 C 14.541058 12.210463 14.531109 12.175357 14.525391 12.138672 C 14.384532 12.077859 14.225722 12.042969 14.048828 12.042969 z M 9.125 12.089844 L 9.125 12.673828 L 9.7207031 12.673828 C 9.9316031 12.673828 10.017578 12.777726 10.017578 12.947266 L 10.017578 12.113281 C 9.9725671 12.107841 9.9407624 12.089844 9.890625 12.089844 L 9.125 12.089844 z M 11.992188 12.089844 L 11.992188 12.673828 L 12.535156 12.673828 L 12.535156 12.089844 L 11.992188 12.089844 z M 13.433594 12.740234 C 13.433594 12.840382 13.453514 12.931397 13.486328 13.013672 C 13.494444 12.990074 13.492259 12.962982 13.503906 12.9375 C 13.540276 12.858374 13.605963 12.792253 13.683594 12.740234 L 13.433594 12.740234 z M 14.3125 12.740234 C 14.460441 12.852416 14.532547 13.043056 14.542969 13.248047 C 14.607003 13.207445 14.669677 13.171423 14.732422 13.109375 L 15.175781 13.537109 C 15.097722 13.614174 15.018001 13.681085 14.933594 13.740234 L 15.257812 13.740234 L 15.257812 13.480469 C 15.257813 13.199499 15.187831 12.957614 15.087891 12.740234 L 14.3125 12.740234 z M 12.785156 13.029297 C 12.746726 13.177039 12.71875 13.335822 12.71875 13.513672 C 12.71875 14.612472 13.378186 14.988281 14.066406 14.988281 C 14.593776 14.988281 14.890971 14.818289 15.175781 14.537109 L 14.732422 14.109375 C 14.547832 14.291915 14.389433 14.380859 14.070312 14.380859 C 13.712219 14.380859 13.500519 14.164441 13.453125 13.861328 C 13.143494 13.724862 12.895168 13.461837 12.785156 13.029297 z M 11.275391 13.125 L 11.275391 14.125 C 11.275391 14.52977 11.523378 14.939453 12.111328 14.939453 L 12.535156 14.939453 L 12.535156 14.337891 L 12.244141 14.337891 C 12.072811 14.337891 11.992188 14.247581 11.992188 14.082031 L 11.992188 13.917969 C 11.499093 13.861031 11.275391 13.497982 11.275391 13.125 z M 15.679688 13.148438 L 15.679688 14.148438 C 15.679688 14.414441 15.777359 14.651188 16.015625 14.791016 C 16.148073 14.727146 16.283548 14.664217 16.404297 14.597656 L 16.404297 13.914062 C 15.861187 13.861532 15.679688 13.529417 15.679688 13.148438 z M 7.0410156 13.208984 L 7.0410156 14.208984 C 7.0410156 14.590104 7.222465 14.922099 7.765625 14.974609 L 7.765625 13.974609 C 7.222465 13.922099 7.0410156 13.590104 7.0410156 13.208984 z M 13.673828 13.248047 C 13.777338 13.326551 13.904683 13.380859 14.070312 13.380859 C 14.280228 13.380859 14.416986 13.326341 14.541016 13.248047 L 13.673828 13.248047 z M 5.0488281 13.888672 C 4.9847174 14.315097 4.9908194 14.762036 5.1035156 15.234375 C 5.5675756 17.191575 8.0404063 18.298587 11.816406 17.929688 C 13.311506 17.785348 15.2671 17.302184 16.625 16.552734 L 16.625 15.552734 C 16.001744 15.896721 15.24933 16.177556 14.476562 16.402344 C 13.551167 16.694528 12.556379 16.912244 11.650391 16.996094 C 9.465125 17.198353 7.212589 16.984967 6.1621094 15.818359 C 5.6263621 15.386927 5.2518454 14.859965 5.1035156 14.234375 C 5.0754715 14.116835 5.0652842 14.003419 5.0488281 13.888672 z M 8.40625 13.943359 L 8.40625 14.943359 L 9.125 14.943359 L 9.125 13.943359 L 8.40625 13.943359 z M 10.017578 13.943359 L 10.017578 14.943359 L 10.738281 14.943359 L 10.738281 13.943359 L 10.017578 13.943359 z "
       id="path39" />
    <path
       d="m9.9316 3.7401c-1.9489 0.025985-4.1254 0.5891-5.8789 1.6602v0.27148c4.0027-2.0661 9.6824-2.0537 10.199 0.90625 0.17415 0.98057-0.37391 2.0011-1.3574 2.5879v0.76758c1.1839-0.4344 2.3936-1.841 2.043-3.5645-0.3708-1.8075-2.5001-2.6623-5.0059-2.6289zm1.748 2.1641v3.2441c0 0.38098 0.1815 0.71309 0.72461 0.76562v-4.0098zm1.3848 0.011719c-0.04264 0-0.08203 0.010277-0.11914 0.03125-0.03711 0.020973-0.06646 0.049613-0.08789 0.085937s-0.03125 0.075458-0.03125 0.11719c0 0.040865 0.0088 0.079126 0.0293 0.11523 0.02077 0.035892 0.05056 0.0641 0.08789 0.085938 0.03756 0.021622 0.07758 0.033203 0.12109 0.033203 0.04264 0 0.08203-0.010493 0.11914-0.03125 0.03733-0.020973 0.06668-0.049613 0.08789-0.085937 0.02143-0.036541 0.0332-0.075458 0.0332-0.11719-1e-6 -0.041946-0.01004-0.08108-0.03125-0.11719-0.02121-0.036108-0.05056-0.064965-0.08789-0.085937-0.03711-0.021189-0.07824-0.03125-0.12109-0.03125zm0 0.03125c0.03755 0 0.07322 0.00897 0.10547 0.027344 0.03247 0.018378 0.05762 0.042867 0.07617 0.074219 0.01856 0.031135 0.02734 0.065022 0.02734 0.10156 0 0.03654-0.0088 0.069995-0.02734 0.10156-0.01856 0.031567-0.0437 0.056057-0.07617 0.074219s-0.06813 0.027344-0.10547 0.027344c-0.03733 0-0.07148-0.00918-0.10352-0.027344-0.03203-0.018162-0.05739-0.042651-0.07617-0.074219-0.01856-0.031568-0.02734-0.065022-0.02734-0.10156 0-0.036108 0.0088-0.069995 0.02734-0.10156 0.01856-0.031568 0.04392-0.056057 0.07617-0.074219 0.03225-0.018378 0.0664-0.027344 0.10352-0.027344zm-10.023 0.05664v0.68945h0.72461v-0.68945zm9.9297 0.011719v0.26953h0.04102v-0.10938h0.05469l0.06445 0.10938h0.04883l-0.07422-0.11328c0.01878-0.00411 0.03539-0.012201 0.04687-0.025391 0.01149-0.013405 0.01758-0.03068 0.01758-0.052734 0-0.024-0.0086-0.043019-0.02539-0.056641-0.01657-0.013622-0.0409-0.021484-0.07226-0.021484zm0.04102 0.033203h0.05664c0.01789 0 0.03259 0.00393 0.04297 0.011719 0.0106 0.00778 0.01563 0.018284 0.01563 0.033203 0 0.016216-0.0044 0.029765-0.01367 0.039063-0.0093 0.00908-0.02334 0.013672-0.04101 0.013672h-0.06055zm-5.7363 0.26172v2.8145c0 0.40477 0.24799 0.81445 0.83594 0.81445h0.42383v-0.60156h-0.29102c-0.17133 0-0.25195-0.090312-0.25195-0.25586v-1.4082h0.54297v-0.58398h-0.54297v-0.7793zm-4.7461 0.085938c-1.1602 1.0212-1.7897 2.3127-1.4258 3.8379 0.46406 1.9572 2.9369 3.0642 6.7129 2.6953 1.4951-0.14434 3.4507-0.62755 4.8086-1.377v-1.0645c-1.234 0.73898-3.2739 1.3504-4.9746 1.5078-2.766 0.25601-5.6473-0.14651-6.0508-2.3164-0.20038-1.0685 0.28626-2.2026 0.92969-2.9062zm7.5195 0.64648c-0.75679 0-1.3301 0.53101-1.3301 1.4707 0 1.0988 0.65948 1.4746 1.3477 1.4746 0.52737 0 0.82459-0.16999 1.1094-0.45117l-0.44336-0.42773c-0.18459 0.18254-0.34299 0.27148-0.66211 0.27148-0.40609 0-0.63672-0.27128-0.63672-0.64062h1.8242v-0.25977c1e-6 -0.81622-0.44167-1.4375-1.209-1.4375zm-7.0078 0.046875v2.1191c0 0.38112 0.18145 0.71312 0.72461 0.76563v-2.8848zm1.3652 0v2.8535h0.71875v-2.2695h0.5957c0.2109 0 0.29688 0.1039 0.29688 0.27344v1.9961h0.7207v-1.998c0-0.40614-0.21748-0.85547-0.84766-0.85547zm5.6113 0.54883c0.36917 0 0.50955 0.29782 0.52539 0.60938h-1.1094c0.00782-0.12755 0.022867-0.20676 0.070312-0.31055 0.079146-0.1722 0.26851-0.29883 0.51367-0.29883z"
       fill="#fff"
       id="base"
       transform="translate(4,4)" />
  </g>
</svg>
