<?xml version="1.0" encoding="UTF-8" standalone="no"?>
<svg
   xmlns:dc="http://purl.org/dc/elements/1.1/"
   xmlns:cc="http://creativecommons.org/ns#"
   xmlns:rdf="http://www.w3.org/1999/02/22-rdf-syntax-ns#"
   xmlns:svg="http://www.w3.org/2000/svg"
   xmlns="http://www.w3.org/2000/svg"
   xmlns:sodipodi="http://sodipodi.sourceforge.net/DTD/sodipodi-0.dtd"
   xmlns:inkscape="http://www.inkscape.org/namespaces/inkscape"
   id="svg2"
   width="24"
   height="24"
   version="1.0"
   sodipodi:docname="love.svg"
   inkscape:version="0.92.2 5c3e80d, 2017-08-06">
  <metadata
     id="metadata47">
    <rdf:RDF>
      <cc:Work
         rdf:about="">
        <dc:format>image/svg+xml</dc:format>
        <dc:type
           rdf:resource="http://purl.org/dc/dcmitype/StillImage" />
      </cc:Work>
    </rdf:RDF>
  </metadata>
  <sodipodi:namedview
     pagecolor="#ffffff"
     bordercolor="#666666"
     borderopacity="1"
     objecttolerance="10"
     gridtolerance="10"
     guidetolerance="10"
     inkscape:pageopacity="0"
     inkscape:pageshadow="2"
     inkscape:window-width="1366"
     inkscape:window-height="743"
     id="namedview45"
     showgrid="true"
     inkscape:zoom="13.906434"
     inkscape:cx="3.1904586"
     inkscape:cy="14.768516"
     inkscape:window-x="0"
     inkscape:window-y="25"
     inkscape:window-maximized="1"
     inkscape:current-layer="svg2">
    <inkscape:grid
       type="xygrid"
       id="grid846" />
  </sodipodi:namedview>
  <defs
     id="defs4">
    <linearGradient
       id="linearGradient3335"
       x1="11.375"
       x2="11.375"
       y1="22"
       y2="-9.8173"
       gradientUnits="userSpaceOnUse"
       gradientTransform="translate(1,1)">
      <stop
         id="stop3330"
         offset="0" />
      <stop
         id="stop3333"
         stop-opacity="0"
         offset="1" />
    </linearGradient>
    <linearGradient
       id="linearGradient3181"
       x1="-3.0608"
       x2="-3.0608"
       y1="27.258"
       y2="7.2537"
       gradientTransform="translate(12.119,-5.2582)"
       gradientUnits="userSpaceOnUse">
      <stop
         id="stop3189"
         stop-color="#27aae1"
         offset="0" />
      <stop
         id="stop3191"
         stop-color="#e74a99"
         offset="1" />
    </linearGradient>
    <filter
       id="filter3194"
       x="-.18"
       y="-.18"
       width="1.36"
       height="1.36"
       color-interpolation-filters="sRGB">
      <feGaussianBlur
         id="feGaussianBlur3196"
         stdDeviation="1.2" />
    </filter>
    <clipPath
       id="clipPath2849">
      <rect
         id="rect2851"
         x="1"
         y="1"
         width="20"
         height="20"
         rx="2"
         ry="2"
         fill="#fff"
         fill-rule="evenodd" />
    </clipPath>
    <linearGradient
       id="linearGradient3845"
       x1="11"
       x2="21"
       y1="19.5"
       y2="19.5"
       gradientTransform="translate(1,1)"
       gradientUnits="userSpaceOnUse"
       spreadMethod="reflect">
      <stop
         id="stop3833"
         stop-color="#fff"
         offset="0" />
      <stop
         id="stop3821"
         stop-color="#fff"
         stop-opacity=".49804"
         offset=".75" />
      <stop
         id="stop3835"
         stop-color="#fff"
         stop-opacity="0"
         offset="1" />
    </linearGradient>
    <linearGradient
       id="linearGradient3961"
       x1="10"
       x2="10"
       y1="1"
       y2="16"
       gradientTransform="translate(1,1)"
       gradientUnits="userSpaceOnUse">
      <stop
         id="stop3825"
         stop-color="#fff"
         offset="0" />
      <stop
         id="stop3829"
         stop-color="#fff"
         stop-opacity="0"
         offset="1" />
    </linearGradient>
  </defs>
  <rect
     id="rect3371"
     x="1.5"
     y="1.5"
     width="21"
     height="21.5"
     rx="2.5"
     ry="2.5"
     style="opacity:0.3;fill:url(#linearGradient3335)" />
  <rect
     id="rect2553"
     x="2"
     y="3"
     width="20"
     height="20"
     rx="2.381"
     ry="2.3255999"
     style="opacity:0.5" />
  <path
     style="fill:#e74a99;fill-rule:evenodd;fill-opacity:1"
     d="M 4 2 C 2.892 2 2 2.892 2 4 L 2 20 C 2 20.554 2.2224844 21.054516 2.5839844 21.416016 L 21.416016 2.5839844 C 21.054516 2.2224844 20.554 2 20 2 L 4 2 z "
     id="rect856" />
  <path
     style="fill:#27aae1;fill-rule:evenodd;fill-opacity:1"
     d="M 21.416016 2.5839844 L 2.5839844 21.416016 C 2.9454844 21.777516 3.446 22 4 22 L 20 22 C 21.108 22 22 21.108 22 20 L 22 4 C 22 3.446 21.777516 2.9454844 21.416016 2.5839844 z "
     id="rect3173" />
  <path
     inkscape:connector-curvature="0"
     style="opacity:0.35;fill:url(#linearGradient3961);fill-rule:evenodd"
     d="M 4,2 C 2.892,2 2,2.892 2,4 v 16 c 0,1.108 0.892,2 2,2 h 16 c 1.108,0 2,-0.892 2,-2 V 4 C 22,2.892 21.108,2 20,2 Z m 0,1.0312 h 16 c 0.5497,0 0.96875,0.41905 0.96875,0.96875 v 16 c 0,0.5497 -0.41905,0.96875 -0.96875,0.96875 H 4 c -0.5497,0 -0.96875,-0.41905 -0.96875,-0.96875 v -16 C 3.03125,3.45025 3.4503,3.0312 4,3.0312 Z"
     id="rect3050" />
  <path
     inkscape:connector-curvature="0"
     style="opacity:0.2;fill:url(#linearGradient3845);fill-rule:evenodd"
     d="M 4,22 C 2.892,22 2,21.108 2,20 v -1 c 0,1.108 0.892,2 2,2 h 16 c 1.108,0 2,-0.892 2,-2 v 1 c 0,1.108 -0.892,2 -2,2 z"
     id="path3235" />
  <g
     id="layer2"
     transform="translate(0,2)">
    <rect
       id="rect2410"
       transform="translate(1,-1)"
       x="3"
       y="3"
       width="16"
       height="16"
       rx="2"
       ry="2"
       clip-path="url(#clipPath2849)"
       style="opacity:0.15;fill:#ffffff;filter:url(#filter3194)" />
  </g>
  <defs
     id="defs37">
    <filter
       id="w">
      <feGaussianBlur
         stdDeviation="0.26998568"
         id="feGaussianBlur29" />
    </filter>
    <linearGradient
       id="a"
       gradientUnits="userSpaceOnUse"
       x1="8"
       y1="2"
       x2="8"
       y2="14">
      <stop
         stop-color="#fafafa"
         offset="0"
         id="stop32" />
      <stop
         stop-color="#ebebeb"
         offset="1"
         id="stop34" />
    </linearGradient>
  </defs>
  <g
     id="main">
    <path
       style="opacity:0.6;fill:#000000;filter:url(#w)"
       inkscape:connector-curvature="0"
       id="path39"
       d="m 8.78,6.5 c -2.0818,0 -3.7812,1.675 -3.7812,3.75 0,1.0797 0.45574,2.0647 1.1875,2.75 L 12,18.5 17.811,13 c 0.732,-0.6852 1.188,-1.6702 1.188,-2.75 0,-2.075 -1.7,-3.75 -3.781,-3.75 C 13.8463,6.5 12.6595,7.2212 12,8.3125 11.3406,7.2211 10.1514,6.5 8.78,6.5 Z" />
    <path
       fill="#fff"
       d="m4.78 2c-2.0818 0-3.7812 1.675-3.7812 3.75 0 1.0797 0.45574 2.0647 1.1875 2.75l5.8137 5.5 5.811-5.5c0.732-0.6852 1.188-1.6702 1.188-2.75 0-2.075-1.7-3.75-3.781-3.75-1.3717 0-2.5585 0.7212-3.218 1.8125-0.6594-1.0914-1.8486-1.8125-3.22-1.8125z"
       id="base"
       transform="translate(4,4)" />
  </g>
</svg>
