<?xml version="1.0" encoding="UTF-8" standalone="no"?>
<svg
   xmlns:dc="http://purl.org/dc/elements/1.1/"
   xmlns:cc="http://creativecommons.org/ns#"
   xmlns:rdf="http://www.w3.org/1999/02/22-rdf-syntax-ns#"
   xmlns:svg="http://www.w3.org/2000/svg"
   xmlns="http://www.w3.org/2000/svg"
   xmlns:sodipodi="http://sodipodi.sourceforge.net/DTD/sodipodi-0.dtd"
   xmlns:inkscape="http://www.inkscape.org/namespaces/inkscape"
   id="svg2"
   width="24"
   height="24"
   version="1.0"
   sodipodi:docname="ms-excel.svg"
   inkscape:version="0.92.2 5c3e80d, 2017-08-06">
  <metadata
     id="metadata48">
    <rdf:RDF>
      <cc:Work
         rdf:about="">
        <dc:format>image/svg+xml</dc:format>
        <dc:type
           rdf:resource="http://purl.org/dc/dcmitype/StillImage" />
      </cc:Work>
    </rdf:RDF>
  </metadata>
  <sodipodi:namedview
     pagecolor="#ffffff"
     bordercolor="#666666"
     borderopacity="1"
     objecttolerance="10"
     gridtolerance="10"
     guidetolerance="10"
     inkscape:pageopacity="0"
     inkscape:pageshadow="2"
     inkscape:window-width="640"
     inkscape:window-height="480"
     id="namedview46"
     showgrid="false"
     inkscape:zoom="9.8333333"
     inkscape:cx="12"
     inkscape:cy="12"
     inkscape:window-x="0"
     inkscape:window-y="25"
     inkscape:window-maximized="0"
     inkscape:current-layer="svg2" />
  <defs
     id="defs4">
    <linearGradient
       id="linearGradient3335"
       x1="11.375"
       x2="11.375"
       y1="22"
       y2="-9.8173"
       gradientUnits="userSpaceOnUse">
      <stop
         id="stop3330"
         offset="0" />
      <stop
         id="stop3333"
         stop-opacity="0"
         offset="1" />
    </linearGradient>
    <linearGradient
       id="linearGradient3181"
       x1="-3.0608"
       x2="-3.0608"
       y1="27.258"
       y2="7.2537"
       gradientTransform="translate(12.119 -7.2582)"
       gradientUnits="userSpaceOnUse">
      <stop
         id="stop3189"
         stop-color="#006e33"
         offset="0" />
      <stop
         id="stop3191"
         stop-color="#11aa4d"
         offset="1" />
    </linearGradient>
    <filter
       id="filter3194"
       x="-.18"
       y="-.18"
       width="1.36"
       height="1.36"
       color-interpolation-filters="sRGB">
      <feGaussianBlur
         id="feGaussianBlur3196"
         stdDeviation="1.2" />
    </filter>
    <clipPath
       id="clipPath2849">
      <rect
         id="rect2851"
         x="1"
         y="1"
         width="20"
         height="20"
         rx="2"
         ry="2"
         fill="#fff"
         fill-rule="evenodd" />
    </clipPath>
    <linearGradient
       id="linearGradient3845"
       x1="11"
       x2="21"
       y1="19.5"
       y2="19.5"
       gradientTransform="translate(1,-1)"
       gradientUnits="userSpaceOnUse"
       spreadMethod="reflect">
      <stop
         id="stop3833"
         stop-color="#fff"
         offset="0" />
      <stop
         id="stop3821"
         stop-color="#fff"
         stop-opacity=".49804"
         offset=".75" />
      <stop
         id="stop3835"
         stop-color="#fff"
         stop-opacity="0"
         offset="1" />
    </linearGradient>
    <linearGradient
       id="linearGradient3961"
       x1="10"
       x2="10"
       y1="1"
       y2="16"
       gradientTransform="translate(1,-1)"
       gradientUnits="userSpaceOnUse">
      <stop
         id="stop3825"
         stop-color="#fff"
         offset="0" />
      <stop
         id="stop3829"
         stop-color="#fff"
         stop-opacity="0"
         offset="1" />
    </linearGradient>
  </defs>
  <g
     id="layer1"
     transform="translate(0,2)">
    <g
       id="g3337"
       transform="translate(1,-1)">
      <rect
         id="rect3371"
         x=".5"
         y=".5"
         width="21"
         height="21.5"
         rx="2.5"
         ry="2.5"
         fill="url(#linearGradient3335)"
         opacity=".3" />
      <rect
         id="rect2553"
         x="1"
         y="2"
         width="20"
         height="20"
         rx="2.381"
         ry="2.3256"
         opacity=".5" />
    </g>
    <rect
       id="rect3173"
       x="2"
       width="20"
       height="20"
       rx="2"
       ry="2"
       fill="url(#linearGradient3181)"
       fill-rule="evenodd" />
    <path
       id="rect3050"
       d="m4 0c-1.108 0-2 0.892-2 2v16c0 1.108 0.892 2 2 2h16c1.108 0 2-0.892 2-2v-16c0-1.108-0.892-2-2-2h-16zm0 1.0312h16c0.5497 0 0.96875 0.41905 0.96875 0.96875v16c0 0.5497-0.41905 0.96875-0.96875 0.96875h-16c-0.5497 0-0.96875-0.41905-0.96875-0.96875v-16c0-0.5497 0.41905-0.96875 0.96875-0.96875z"
       fill="url(#linearGradient3961)"
       fill-rule="evenodd"
       opacity=".35" />
    <path
       id="path3235"
       d="m4 20c-1.108 0-2-0.892-2-2v-1c0 1.108 0.892 2 2 2h16c1.108 0 2-0.892 2-2v1c0 1.108-0.892 2-2 2h-16z"
       fill="url(#linearGradient3845)"
       fill-rule="evenodd"
       opacity=".2" />
  </g>
  <g
     id="layer2"
     transform="translate(0,2)">
    <rect
       id="rect2410"
       transform="translate(1,-1)"
       x="3"
       y="3"
       width="16"
       height="16"
       rx="2"
       ry="2"
       clip-path="url(#clipPath2849)"
       fill="#fff"
       filter="url(#filter3194)"
       opacity=".15" />
  </g>
  <defs
     id="defs37">
    <filter
       id="w">
      <feGaussianBlur
         stdDeviation="0.20998568"
         id="feGaussianBlur29" />
    </filter>
    <linearGradient
       id="a"
       gradientUnits="userSpaceOnUse"
       x1="8"
       y1="1"
       x2="8"
       y2="15">
      <stop
         stop-color="#fafafa"
         offset="0"
         id="stop32" />
      <stop
         stop-color="#ebebeb"
         offset="1"
         id="stop34" />
    </linearGradient>
  </defs>
  <g
     id="main">
    <path
       style="opacity:0.3;fill:#000000"
       d="M 14 8 L 14 8.5 L 14 9 L 15 9 L 15 8 L 14 8 z M 16 8 L 16 9 L 18 9 L 18 8 L 16 8 z M 10.720703 9.0039062 C 10.575683 8.9914652 10.284169 9.010225 10.074219 9.046875 L 9.6933594 9.1152344 L 9.3105469 10.0625 C 9.1004569 10.58399 8.9037359 10.980923 8.8730469 10.945312 C 8.8423669 10.909712 8.7558185 10.710623 8.6796875 10.501953 C 8.6035375 10.293293 8.4582419 9.9006894 8.3574219 9.6308594 L 8.1738281 9.140625 L 7.6054688 9.1992188 C 7.2926387 9.2313247 7.0250206 9.268064 7.0097656 9.28125 C 6.9988218 9.2907165 7.2150134 9.7906464 7.4023438 10.226562 C 7.4902614 10.21566 7.4988434 10.210163 7.6054688 10.199219 L 8.1738281 10.140625 L 8.3574219 10.630859 C 8.4582419 10.900689 8.6035375 11.293293 8.6796875 11.501953 C 8.7558185 11.710623 8.8423669 11.909712 8.8730469 11.945312 C 8.9037359 11.980923 9.1004569 11.58399 9.3105469 11.0625 L 9.6933594 10.115234 L 10.074219 10.046875 C 10.217567 10.021851 10.36882 10.021685 10.515625 10.017578 L 10.984375 9.0253906 L 10.720703 9.0039062 z M 14 10 L 14 11 L 15 11 L 15 10 L 14 10 z M 16 10 L 16 11 L 18 11 L 18 10 L 16 10 z M 14 12 L 14 13 L 15 13 L 15 12 L 14 12 z M 16 12 L 16 13 L 18 13 L 18 12 L 16 12 z M 7.9179688 12.466797 C 7.8088878 12.720786 7.73646 12.905378 7.5136719 13.367188 C 6.9269361 14.583372 6.8668003 14.757244 7.3164062 14.785156 C 7.3818305 14.646821 7.4261405 14.548622 7.5136719 14.367188 C 7.8552619 13.659118 8.1333625 13.037828 8.1328125 12.986328 C 8.1326254 12.967043 7.9801027 12.621075 7.9179688 12.466797 z M 9.828125 12.470703 L 9.5898438 12.974609 L 10.310547 14.478516 C 10.440686 14.750669 10.434048 14.756342 10.537109 14.978516 C 10.743647 14.989361 10.988745 15.003799 11 14.998047 C 11.01625 14.989747 10.706137 14.305796 10.310547 13.478516 L 9.828125 12.470703 z M 14 14 L 14 15 L 15 15 L 15 14 L 14 14 z M 16 14 L 16 15 L 18 15 L 18 14 L 16 14 z M 19 16.5 C 19 16.777 18.777 17 18.5 17 L 14.5 17 L 14 17 L 14 17.5 L 14 18 L 14.5 18 L 18.5 18 C 18.777 18 19 17.777 19 17.5 L 19 16.5 z M 5 17 L 5 18 L 13 20 L 13 19 L 5 17 z "
       id="rect825" />
    <path
       id="base"
       d="m9 1-8 2v10l8 2v-14zm1 2v.5.5h1v1h-1v1h1v1h-1v1h1v1h-1v1h1v1h-1v1.5.5h.5 4c.277 0 .5-.223.5-.5v-9c0-.277-.223-.5-.5-.5h-4-.5zm2 1h2v1h-2v-1zm-5.2793 1.0039.26367.021484-1.3945 2.9492.7207 1.5039c.39559.82728.7057 1.5112.68945 1.5195-.01624.00829-.31766-.004164-.66797-.027344l-.63672-.042969-.37305-.92773c-.20608-.51007-.40315-.95491-.4375-.99023-.034357-.035328-.23465.353-.44336.86328l-.37891.92773-.4707-.001953c-.77657-.001113-.77444.011722-.078125-1.4316.34159-.70807.61969-1.3294.61914-1.3809-.0004998-.051513-.25966-.67529-.57617-1.3867-.3165-.71143-.56214-1.3052-.54688-1.3184.015255-.013186.28287-.049925.5957-.082031l.56836-.058594.18359.49023c.10082.26983.24612.66243.32227.87109.076131.20867.16268.40776.19336.44336.030689.035608.22741-.36132.4375-.88281l.38281-.94727.38086-.068359c.20995-.03665.50146-.05541.64648-.042969zm5.2793.99609h2v1h-2v-1zm0 2h2v1h-2v-1zm0 2h2v1h-2v-1z"
       fill="#fff"
       transform="translate(4,4)" />
  </g>
</svg>
