<?xml version="1.0" encoding="UTF-8" standalone="no"?>
<!-- Created with Inkscape (http://www.inkscape.org/) -->

<svg
   xmlns:dc="http://purl.org/dc/elements/1.1/"
   xmlns:cc="http://creativecommons.org/ns#"
   xmlns:rdf="http://www.w3.org/1999/02/22-rdf-syntax-ns#"
   xmlns:svg="http://www.w3.org/2000/svg"
   xmlns="http://www.w3.org/2000/svg"
   xmlns:xlink="http://www.w3.org/1999/xlink"
   xmlns:sodipodi="http://sodipodi.sourceforge.net/DTD/sodipodi-0.dtd"
   xmlns:inkscape="http://www.inkscape.org/namespaces/inkscape"
   width="24"
   height="24"
   id="svg2"
   sodipodi:version="0.32"
   inkscape:version="0.48.1 r9760"
   version="1.0"
   sodipodi:docname="palimpsest.svg"
   inkscape:output_extension="org.inkscape.output.svg.inkscape"
   style="display:inline">
  <defs
     id="defs4">
    <linearGradient
       inkscape:collect="always"
       id="linearGradient3865">
      <stop
         style="stop-color:#ffffff;stop-opacity:1;"
         offset="0"
         id="stop3867" />
      <stop
         style="stop-color:#ffffff;stop-opacity:0;"
         offset="1"
         id="stop3869" />
    </linearGradient>
    <linearGradient
       id="linearGradient3313">
      <stop
         style="stop-color:#8ad4ff;stop-opacity:1;"
         offset="0"
         id="stop3315" />
      <stop
         id="stop4186"
         offset="0.67213112"
         style="stop-color:#1379ff;stop-opacity:0.902439;" />
      <stop
         style="stop-color:#0066ff;stop-opacity:0;"
         offset="1"
         id="stop3317" />
    </linearGradient>
    <radialGradient
       inkscape:collect="always"
       xlink:href="#linearGradient3313"
       id="radialGradient4138"
       gradientUnits="userSpaceOnUse"
       gradientTransform="matrix(0.3,0,0,0.03480565,-2.4000004,15.076323)"
       cx="47.777802"
       cy="76.852455"
       fx="47.777802"
       fy="76.852455"
       r="30" />
    <linearGradient
       id="linearGradient4327">
      <stop
         style="stop-color:#f0f0f0;stop-opacity:1;"
         offset="0"
         id="stop4329" />
      <stop
         id="stop4331"
         offset="1"
         style="stop-color:#b4b4b4;stop-opacity:1;" />
    </linearGradient>
    <linearGradient
       inkscape:collect="always"
       id="linearGradient3327">
      <stop
         style="stop-color:#000000;stop-opacity:1;"
         offset="0"
         id="stop3330" />
      <stop
         style="stop-color:#000000;stop-opacity:0;"
         offset="1"
         id="stop3333" />
    </linearGradient>
    <linearGradient
       inkscape:collect="always"
       xlink:href="#linearGradient4327"
       id="linearGradient3181"
       x1="-3.0607977"
       y1="27.258198"
       x2="-3.0607977"
       y2="7.2536583"
       gradientUnits="userSpaceOnUse"
       gradientTransform="translate(12.119372,-27.258198)" />
    <linearGradient
       inkscape:collect="always"
       xlink:href="#linearGradient3327"
       id="linearGradient2464"
       gradientUnits="userSpaceOnUse"
       x1="11.375"
       y1="22"
       x2="11.375"
       y2="-9.817296"
       gradientTransform="translate(1,-1)" />
    <linearGradient
       inkscape:collect="always"
       xlink:href="#linearGradient3865"
       id="linearGradient3871"
       x1="10.854259"
       y1="0.92329043"
       x2="10.854259"
       y2="55"
       gradientUnits="userSpaceOnUse"
       gradientTransform="translate(1,-1)" />
    <linearGradient
       id="linearGradient3892-6">
      <stop
         style="stop-color:#000000;stop-opacity:0.58823532;"
         offset="0"
         id="stop3894-4" />
      <stop
         id="stop3896-3"
         offset="0.11780351"
         style="stop-color:#000000;stop-opacity:0.47058824;" />
      <stop
         style="stop-color:#000000;stop-opacity:0.39215687;"
         offset="0.23809524"
         id="stop3898-3" />
      <stop
         style="stop-color:#000000;stop-opacity:0.3137255;"
         offset="1"
         id="stop3900-6" />
    </linearGradient>
    <linearGradient
       inkscape:collect="always"
       xlink:href="#linearGradient3892-6"
       id="linearGradient3902"
       x1="1"
       y1="-13.5"
       x2="11.045877"
       y2="-13.5"
       gradientUnits="userSpaceOnUse"
       spreadMethod="reflect"
       gradientTransform="translate(1,1)" />
    <linearGradient
       inkscape:collect="always"
       xlink:href="#linearGradient3865"
       id="linearGradient3930"
       gradientUnits="userSpaceOnUse"
       gradientTransform="matrix(1,0,0,-1,12.119372,27.258198)"
       x1="-0.119372"
       y1="13.258198"
       x2="-10.119372"
       y2="13.258198"
       spreadMethod="reflect" />
    <linearGradient
       id="linearGradient3767-0">
      <stop
         style="stop-color:#4d4d4d;stop-opacity:0.70731705;"
         offset="0"
         id="stop3769-4" />
      <stop
         style="stop-color:#4d4d4d;stop-opacity:0.3137255;"
         offset="1"
         id="stop3771-1" />
    </linearGradient>
    <linearGradient
       inkscape:collect="always"
       xlink:href="#linearGradient3767-0"
       id="linearGradient4164"
       gradientUnits="userSpaceOnUse"
       gradientTransform="matrix(0.2592593,0,0,0.2592593,-0.4361446,-3.1011626)"
       x1="48"
       y1="62"
       x2="48"
       y2="21.554564" />
    <linearGradient
       y2="60.21579"
       x2="24.778135"
       y1="60.21579"
       x1="107.11776"
       gradientTransform="matrix(0,0.1458287,-0.1715765,0,23.273103,-1.6208438)"
       gradientUnits="userSpaceOnUse"
       id="linearGradient3094"
       xlink:href="#linearGradient3767-0"
       inkscape:collect="always" />
    <linearGradient
       inkscape:collect="always"
       xlink:href="#linearGradient3767-0"
       id="linearGradient4206"
       gradientUnits="userSpaceOnUse"
       gradientTransform="matrix(0,0.1458287,-0.1715765,0,23.273103,-1.6208438)"
       x1="107.11776"
       y1="60.21579"
       x2="24.778135"
       y2="60.21579" />
    <radialGradient
       inkscape:collect="always"
       xlink:href="#linearGradient3313-6"
       id="radialGradient4138-0"
       gradientUnits="userSpaceOnUse"
       gradientTransform="matrix(0.3,0,0,0.03480565,-3.4000004,15.076323)"
       cx="47.791782"
       cy="78.616005"
       fx="47.791782"
       fy="78.616005"
       r="30" />
    <linearGradient
       id="linearGradient3313-6">
      <stop
         style="stop-color:#ffd02d;stop-opacity:1;"
         offset="0"
         id="stop3315-1" />
      <stop
         id="stop4186-5"
         offset="0.67213112"
         style="stop-color:#ef0000;stop-opacity:0.90196079;" />
      <stop
         style="stop-color:#ff0000;stop-opacity:0;"
         offset="1"
         id="stop3317-9" />
    </linearGradient>
    <radialGradient
       r="30"
       fy="78.616005"
       fx="47.791782"
       cy="78.616005"
       cx="47.791782"
       gradientTransform="matrix(0.3,0,0,0.03480565,-2.4000004,15.076323)"
       gradientUnits="userSpaceOnUse"
       id="radialGradient3098"
       xlink:href="#linearGradient3313-6"
       inkscape:collect="always" />
    <linearGradient
       inkscape:collect="always"
       xlink:href="#linearGradient3767-2"
       id="linearGradient3709"
       x1="11"
       y1="11"
       x2="11"
       y2="3"
       gradientUnits="userSpaceOnUse"
       gradientTransform="translate(0,1)" />
    <linearGradient
       id="linearGradient3767-2">
      <stop
         style="stop-color:#4d4d4d;stop-opacity:0.70731705;"
         offset="0"
         id="stop3769-0" />
      <stop
         style="stop-color:#4d4d4d;stop-opacity:0.25203252;"
         offset="1"
         id="stop3771-6" />
    </linearGradient>
    <linearGradient
       y2="3"
       x2="11"
       y1="11"
       x1="11"
       gradientTransform="matrix(1.2509033,0,0,1.2509033,-1.7563231,-0.75271081)"
       gradientUnits="userSpaceOnUse"
       id="linearGradient3110"
       xlink:href="#linearGradient3767-0"
       inkscape:collect="always" />
    <linearGradient
       inkscape:collect="always"
       xlink:href="#linearGradient3767-0"
       id="linearGradient3850"
       gradientUnits="userSpaceOnUse"
       gradientTransform="matrix(1.2509033,0,0,1.2509033,-1.7563231,-0.25993756)"
       x1="11"
       y1="11"
       x2="11"
       y2="3" />
    <linearGradient
       inkscape:collect="always"
       xlink:href="#linearGradient3767-0"
       id="linearGradient3852"
       gradientUnits="userSpaceOnUse"
       gradientTransform="matrix(1.2509033,0,0,1.2509033,-1.7563231,1.2472892)"
       x1="11"
       y1="11"
       x2="11"
       y2="3" />
    <linearGradient
       inkscape:collect="always"
       xlink:href="#linearGradient3767-0"
       id="linearGradient3859"
       gradientUnits="userSpaceOnUse"
       gradientTransform="matrix(1.2509033,0,0,1.2509033,-1.7563231,-0.75271081)"
       x1="11"
       y1="11"
       x2="11"
       y2="3" />
  </defs>
  <sodipodi:namedview
     id="base"
     pagecolor="#ffffff"
     bordercolor="#e7e7e7"
     borderopacity="1"
     inkscape:pageopacity="0.0"
     inkscape:pageshadow="2"
     inkscape:zoom="24.411791"
     inkscape:cx="-6.0927128"
     inkscape:cy="9.9535917"
     inkscape:document-units="px"
     inkscape:current-layer="layer5"
     showgrid="true"
     inkscape:showpageshadow="false"
     showguides="false"
     inkscape:guide-bbox="true"
     inkscape:window-width="1920"
     inkscape:window-height="1030"
     inkscape:window-x="0"
     inkscape:window-y="25"
     inkscape:snap-global="false"
     inkscape:window-maximized="1">
    <sodipodi:guide
       orientation="1,0"
       position="0,112"
       id="guide2383" />
    <sodipodi:guide
       orientation="0,1"
       position="26.278146,128"
       id="guide2385" />
    <sodipodi:guide
       orientation="1,0"
       position="128,54.082119"
       id="guide2387" />
    <sodipodi:guide
       orientation="0,1"
       position="78.156291,0"
       id="guide2389" />
    <sodipodi:guide
       orientation="0,1"
       position="60.863576,64.084768"
       id="guide2391" />
    <inkscape:grid
       type="xygrid"
       id="grid3672"
       visible="true"
       enabled="true"
       empspacing="8"
       snapvisiblegridlinesonly="true" />
  </sodipodi:namedview>
  <metadata
     id="metadata7">
    <rdf:RDF>
      <cc:Work
         rdf:about="">
        <dc:format>image/svg+xml</dc:format>
        <dc:type
           rdf:resource="http://purl.org/dc/dcmitype/StillImage" />
        <dc:title></dc:title>
      </cc:Work>
    </rdf:RDF>
  </metadata>
  <g
     inkscape:groupmode="layer"
     id="layer3"
     inkscape:label="Shadow"
     transform="translate(0,2)"
     sodipodi:insensitive="true">
    <rect
       style="opacity:0.5;fill:url(#linearGradient2464);fill-opacity:1;stroke:none;display:inline"
       id="rect3371"
       width="21"
       height="21.5"
       x="1.5"
       y="-0.5"
       rx="2.5"
       ry="2.5" />
    <rect
       ry="2.3255813"
       rx="2.3809524"
       y="1"
       x="2"
       height="20"
       width="20"
       id="rect2553"
       style="opacity:0.4;fill:#000000;fill-opacity:1;stroke:none;display:inline" />
  </g>
  <g
     inkscape:groupmode="layer"
     id="layer2"
     inkscape:label="Facade"
     transform="translate(0,2)"
     sodipodi:insensitive="true">
    <rect
       transform="scale(1,-1)"
       ry="2"
       rx="2"
       y="-20"
       x="2"
       height="15"
       width="20"
       id="rect4177"
       style="fill:#cacaca;fill-opacity:1;fill-rule:evenodd;stroke:none;display:inline" />
    <path
       style="fill:#282828;fill-opacity:1;fill-rule:evenodd;stroke:none;display:inline"
       d="m 3.9999999,18.999999 c -1.108,0 -2,-0.891999 -2,-1.999999 l 0,-2 c 0,1.108 0.892,2 2,2 L 20,17 c 1.108,0 2,-0.892 2,-2 l 0,2 c 0,1.108 -0.892,1.999999 -2,1.999999 l -16.0000001,0 z"
       id="path4182"
       sodipodi:nodetypes="ccccccccc"
       inkscape:connector-curvature="0" />
    <path
       sodipodi:nodetypes="ccccccccc"
       id="path4203"
       d="m 3.9999999,17.999999 c -1.108,0 -2,-0.891999 -2,-1.999999 l 0,-1 c 0,1.108 0.892,2 2,2 L 20,17 c 1.108,0 2,-0.892 2,-2 l 0,1 c 0,1.108 -0.892,1.999999 -2,1.999999 l -16.0000001,0 z"
       style="fill:#000000;fill-opacity:1;fill-rule:evenodd;stroke:none;display:inline"
       inkscape:connector-curvature="0" />
    <rect
       style="opacity:0.6;fill:url(#linearGradient3902);fill-opacity:1;fill-rule:evenodd;stroke:none;display:inline"
       id="rect3894"
       width="20"
       height="15"
       x="2"
       y="-20"
       rx="2"
       ry="2"
       transform="scale(1,-1)" />
  </g>
  <g
     inkscape:label="Top"
     inkscape:groupmode="layer"
     id="layer1"
     transform="translate(0,2)"
     sodipodi:insensitive="true">
    <rect
       style="fill:url(#linearGradient3181);fill-opacity:1;fill-rule:evenodd;stroke:none;display:inline"
       id="rect3173"
       width="20"
       height="15.924147"
       x="2"
       y="-15.924143"
       rx="2"
       ry="2"
       transform="scale(1,-1)" />
    <path
       style="opacity:0.25;fill:#ffffff;fill-opacity:1;fill-rule:evenodd;stroke:none;display:inline"
       d="m 3.9999999,-1.8e-7 c -1.108,0 -2,0.89199998 -2,1.99999998 l 0,1 c 0,-1.108 0.892,-2 2,-2 l 16.0000001,0 c 1.108,0 2,0.892 2,2 l 0,-1 C 22,0.8919998 21.108,-1.8e-7 20,-1.8e-7 l -16.0000001,0 z"
       id="rect3183"
       inkscape:connector-curvature="0" />
    <path
       style="opacity:0.6;fill:url(#linearGradient3871);fill-opacity:1;fill-rule:evenodd;stroke:none;display:inline"
       d="M 4,0 C 2.892,0 2,0.892 2,2 l 0,11.971731 c 0,1.108 0.892,2 2,2 l 16,0 c 1.108,0 2,-0.892 2,-2 L 22,2 C 22,0.892 21.108,0 20,0 z m 0,1 16,0 c 0.571596,0 1,0.4284045 1,1 l 0,11.971731 c 0,0.571596 -0.428404,1 -1,1 l -16,0 c -0.5715955,0 -1,-0.428404 -1,-1 L 3,2 C 3,1.4284045 3.4284045,1 4,1 z"
       id="path4188"
       sodipodi:nodetypes="cccccccccccccccccc"
       inkscape:connector-curvature="0" />
    <path
       style="opacity:0.2;fill:url(#linearGradient3930);fill-opacity:1;fill-rule:evenodd;stroke:none;display:inline"
       d="m 2,11.9375 0,2 c 0,1.108 0.892,2 2,2 l 16,0 c 1.108,0 2,-0.892 2,-2 l 0,-2 c 0,1.108 -0.892,2 -2,2 l -16,0 c -1.108,0 -2,-0.892 -2,-2 z"
       id="rect3921"
       inkscape:connector-curvature="0" />
  </g>
  <g
     inkscape:groupmode="layer"
     id="layer4"
     inkscape:label="Light"
     style="display:inline"
     transform="translate(0,2)">
    <rect
       style="fill:url(#radialGradient3098);fill-opacity:1;fill-rule:nonzero;stroke:none;display:inline"
       id="rect3311"
       width="18"
       height="2.0883393"
       x="3"
       y="16.95583"
       rx="1.6363636"
       ry="2.0883393" />
  </g>
  <g
     inkscape:groupmode="layer"
     id="layer5"
     inkscape:label="Symbol"
     transform="translate(0,2)">
    <path
       sodipodi:type="inkscape:offset"
       inkscape:radius="1.0133888"
       inkscape:original="M 9.28125 3.09375 L 11.15625 4.96875 L 8.96875 7.15625 L 7.09375 5.28125 C 6.8220733 6.3024234 7.1052702 7.4177786 7.90625 8.21875 C 9.1024578 9.414955 11.022545 9.414955 12.21875 8.21875 C 13.414955 7.0225432 13.414955 5.1024557 12.21875 3.90625 C 11.41778 3.1052796 10.302423 2.8220728 9.28125 3.09375 z M 13.625 7.46875 C 13.438249 7.9446736 13.165862 8.3966393 12.78125 8.78125 C 12.396639 9.165861 11.944674 9.438249 11.46875 9.625 L 14.40625 12.5625 C 15.006209 13.162461 15.962539 13.162461 16.5625 12.5625 C 17.16246 11.962541 17.16246 11.006211 16.5625 10.40625 L 13.625 7.46875 z M 14.9375 10.9375 C 15.236552 10.638448 15.732198 10.638448 16.03125 10.9375 C 16.330303 11.236551 16.330303 11.732198 16.03125 12.03125 C 15.732201 12.330302 15.236552 12.330302 14.9375 12.03125 C 14.638449 11.732198 14.638449 11.236551 14.9375 10.9375 z "
       style="opacity:0.4;fill:#ffffff;fill-opacity:1;stroke:none;display:inline"
       id="path3861"
       d="M 9.03125,2.125 A 1.0134901,1.0134901 0 0 0 8.5625,3.8125 l 1.15625,1.15625 -0.75,0.75 L 7.8125,4.5625 A 1.0134901,1.0134901 0 0 0 6.125,5.03125 c -0.3637988,1.3674404 0.01336,2.8571207 1.0625,3.90625 0.9105969,0.9105947 2.1497411,1.233015 3.34375,1.09375 a 1.0134901,1.0134901 0 0 0 0.21875,0.3125 l 2.9375,2.9375 c 0.980696,0.980699 2.613052,0.980698 3.59375,0 0.980698,-0.980697 0.980696,-2.613052 0,-3.59375 L 14.34375,6.75 A 1.0134901,1.0134901 0 0 0 14.03125,6.53125 C 14.170515,5.3372409 13.848095,4.0980959 12.9375,3.1875 11.888374,2.1383732 10.398697,1.7611987 9.03125,2.125 z m 6.28125,9.1875 c 0.09684,-0.09684 0.246919,-0.09683 0.34375,0 0.09683,0.09683 0.09683,0.246918 0,0.34375 -0.09683,0.09683 -0.246921,0.09683 -0.34375,0 -0.09683,-0.09683 -0.09683,-0.246921 0,-0.34375 z" />
    <path
       id="path3753"
       d="M 7.1039031,5.2698278 C 6.8322264,6.2910012 7.0925825,7.4244386 7.8935623,8.22541 c 1.1962078,1.196205 3.1356417,1.196205 4.3318467,0 1.196205,-1.1962068 1.196205,-3.1356403 0,-4.331846 C 11.424439,3.0925936 10.291001,2.8322276 9.2698281,3.1039048 L 11.142447,4.976526 8.9765243,7.142449 7.1039031,5.2698278 z m 4.3544079,4.3544072 2.933021,2.933021 c 0.599959,0.599961 1.565963,0.599961 2.165924,0 0.59996,-0.599959 0.59996,-1.565962 0,-2.165923 L 13.624235,7.4583121 C 13.437484,7.9342357 13.1515,8.3822803 12.766888,8.766891 12.382277,9.151502 11.934235,9.437484 11.458311,9.624235 z m 3.474502,1.308579 c 0.299052,-0.299052 0.783908,-0.299052 1.08296,0 0.299053,0.299051 0.299053,0.783909 0,1.082961 -0.299049,0.299052 -0.783908,0.299052 -1.08296,0 -0.299051,-0.299052 -0.299051,-0.78391 0,-1.082961 z"
       style="fill:url(#linearGradient3110);fill-opacity:1;stroke:none;display:inline;opacity:0.9"
       inkscape:connector-curvature="0" />
    <path
       style="fill:#000000;fill-opacity:1;stroke:none;display:inline;opacity:0.2"
       d="M 10.0625 5 C 9.8001226 5.0012801 9.5365432 5.0258307 9.28125 5.09375 L 9.71875 5.53125 C 10.612543 5.4301311 11.533214 5.6894636 12.21875 6.375 C 12.753765 6.9100153 13.037317 7.6131257 13.09375 8.3125 C 13.163492 7.448189 12.87994 6.5674404 12.21875 5.90625 C 11.618023 5.3055222 10.849632 4.9961596 10.0625 5 z M 10.90625 7.21875 L 8.96875 9.15625 L 7.09375 7.28125 C 7.003113 7.6219346 7.0031345 7.963339 7.03125 8.3125 C 7.0459822 8.1274763 7.0457382 7.930466 7.09375 7.75 L 8.96875 9.625 L 11.15625 7.46875 L 10.90625 7.21875 z M 13.625 9.46875 C 13.438249 9.9446736 13.165862 10.396639 12.78125 10.78125 C 12.396639 11.165861 11.944674 11.438249 11.46875 11.625 L 11.78125 11.9375 C 12.135104 11.758778 12.486055 11.545195 12.78125 11.25 C 13.165862 10.865389 13.438249 10.413424 13.625 9.9375 L 16.5625 12.875 C 16.787485 13.099985 16.912504 13.398171 16.96875 13.6875 C 17.030734 13.230531 16.915199 12.75895 16.5625 12.40625 L 13.625 9.46875 z M 14.75 13.75 C 14.668877 14.012621 14.729623 14.292122 14.9375 14.5 C 15.236552 14.799052 15.732201 14.799052 16.03125 14.5 C 16.239708 14.291543 16.269657 14.013156 16.1875 13.75 C 16.150118 13.842182 16.106013 13.956487 16.03125 14.03125 C 15.732201 14.330302 15.236552 14.330302 14.9375 14.03125 C 14.862737 13.956487 14.787381 13.842182 14.75 13.75 z "
       transform="translate(0,-2)"
       id="path3846" />
  </g>
</svg>
