<?xml version="1.0" encoding="UTF-8" standalone="no"?>
<svg
   xmlns:dc="http://purl.org/dc/elements/1.1/"
   xmlns:cc="http://creativecommons.org/ns#"
   xmlns:rdf="http://www.w3.org/1999/02/22-rdf-syntax-ns#"
   xmlns:svg="http://www.w3.org/2000/svg"
   xmlns="http://www.w3.org/2000/svg"
   xmlns:sodipodi="http://sodipodi.sourceforge.net/DTD/sodipodi-0.dtd"
   xmlns:inkscape="http://www.inkscape.org/namespaces/inkscape"
   id="svg2"
   width="24"
   height="24"
   version="1.0"
   sodipodi:docname="rygel.svg"
   inkscape:version="0.92.2 5c3e80d, 2017-08-06">
  <metadata
     id="metadata49">
    <rdf:RDF>
      <cc:Work
         rdf:about="">
        <dc:format>image/svg+xml</dc:format>
        <dc:type
           rdf:resource="http://purl.org/dc/dcmitype/StillImage" />
      </cc:Work>
    </rdf:RDF>
  </metadata>
  <sodipodi:namedview
     pagecolor="#ffffff"
     bordercolor="#666666"
     borderopacity="1"
     objecttolerance="10"
     gridtolerance="10"
     guidetolerance="10"
     inkscape:pageopacity="0"
     inkscape:pageshadow="2"
     inkscape:window-width="640"
     inkscape:window-height="480"
     id="namedview47"
     showgrid="false"
     inkscape:zoom="9.8333333"
     inkscape:cx="12"
     inkscape:cy="12"
     inkscape:window-x="0"
     inkscape:window-y="25"
     inkscape:window-maximized="0"
     inkscape:current-layer="svg2" />
  <defs
     id="defs4">
    <linearGradient
       id="linearGradient3335"
       x1="11.375"
       x2="11.375"
       y1="22"
       y2="-9.8173"
       gradientUnits="userSpaceOnUse">
      <stop
         id="stop3330"
         offset="0" />
      <stop
         id="stop3333"
         stop-opacity="0"
         offset="1" />
    </linearGradient>
    <linearGradient
       id="linearGradient3181"
       x1="-3.0608"
       x2="-3.0608"
       y1="27.258"
       y2="7.2537"
       gradientTransform="translate(12.119 -7.2582)"
       gradientUnits="userSpaceOnUse">
      <stop
         id="stop3189"
         stop-color="#800000"
         offset="0" />
      <stop
         id="stop3191"
         stop-color="#cd2e24"
         offset="1" />
    </linearGradient>
    <filter
       id="filter3194"
       x="-.18"
       y="-.18"
       width="1.36"
       height="1.36"
       color-interpolation-filters="sRGB">
      <feGaussianBlur
         id="feGaussianBlur3196"
         stdDeviation="1.2" />
    </filter>
    <clipPath
       id="clipPath2849">
      <rect
         id="rect2851"
         x="1"
         y="1"
         width="20"
         height="20"
         rx="2"
         ry="2"
         fill="#fff"
         fill-rule="evenodd" />
    </clipPath>
    <linearGradient
       id="linearGradient3845"
       x1="11"
       x2="21"
       y1="19.5"
       y2="19.5"
       gradientTransform="translate(1,-1)"
       gradientUnits="userSpaceOnUse"
       spreadMethod="reflect">
      <stop
         id="stop3833"
         stop-color="#fff"
         offset="0" />
      <stop
         id="stop3821"
         stop-color="#fff"
         stop-opacity=".49804"
         offset=".75" />
      <stop
         id="stop3835"
         stop-color="#fff"
         stop-opacity="0"
         offset="1" />
    </linearGradient>
    <linearGradient
       id="linearGradient3961"
       x1="10"
       x2="10"
       y1="1"
       y2="16"
       gradientTransform="translate(1,-1)"
       gradientUnits="userSpaceOnUse">
      <stop
         id="stop3825"
         stop-color="#fff"
         offset="0" />
      <stop
         id="stop3829"
         stop-color="#fff"
         stop-opacity="0"
         offset="1" />
    </linearGradient>
  </defs>
  <g
     id="layer1"
     transform="translate(0,2)">
    <g
       id="g3337"
       transform="translate(1,-1)">
      <rect
         id="rect3371"
         x=".5"
         y=".5"
         width="21"
         height="21.5"
         rx="2.5"
         ry="2.5"
         fill="url(#linearGradient3335)"
         opacity=".3" />
      <rect
         id="rect2553"
         x="1"
         y="2"
         width="20"
         height="20"
         rx="2.381"
         ry="2.3256"
         opacity=".5" />
    </g>
    <rect
       id="rect3173"
       x="2"
       width="20"
       height="20"
       rx="2"
       ry="2"
       fill="url(#linearGradient3181)"
       fill-rule="evenodd" />
    <path
       id="rect3050"
       d="m4 0c-1.108 0-2 0.892-2 2v16c0 1.108 0.892 2 2 2h16c1.108 0 2-0.892 2-2v-16c0-1.108-0.892-2-2-2h-16zm0 1.0312h16c0.5497 0 0.96875 0.41905 0.96875 0.96875v16c0 0.5497-0.41905 0.96875-0.96875 0.96875h-16c-0.5497 0-0.96875-0.41905-0.96875-0.96875v-16c0-0.5497 0.41905-0.96875 0.96875-0.96875z"
       fill="url(#linearGradient3961)"
       fill-rule="evenodd"
       opacity=".35" />
    <path
       id="path3235"
       d="m4 20c-1.108 0-2-0.892-2-2v-1c0 1.108 0.892 2 2 2h16c1.108 0 2-0.892 2-2v1c0 1.108-0.892 2-2 2h-16z"
       fill="url(#linearGradient3845)"
       fill-rule="evenodd"
       opacity=".2" />
  </g>
  <g
     id="layer2"
     transform="translate(0,2)">
    <rect
       id="rect2410"
       transform="translate(1,-1)"
       x="3"
       y="3"
       width="16"
       height="16"
       rx="2"
       ry="2"
       clip-path="url(#clipPath2849)"
       fill="#fff"
       filter="url(#filter3194)"
       opacity=".15" />
  </g>
  <defs
     id="defs37">
    <filter
       id="w">
      <feGaussianBlur
         stdDeviation="0.20998568"
         id="feGaussianBlur29" />
    </filter>
    <linearGradient
       id="a"
       gradientUnits="userSpaceOnUse"
       x1="8"
       y1="0.9998777"
       x2="8"
       y2="15.0000117">
      <stop
         stop-color="#fafafa"
         offset="0"
         id="stop32" />
      <stop
         stop-color="#ebebeb"
         offset="1"
         id="stop34" />
    </linearGradient>
  </defs>
  <g
     id="main">
    <path
       style="opacity:0.3;fill:#000000"
       d="M 9.1542969 6 L 9.2832031 6.3808594 L 9.2792969 6.3828125 C 9.3023869 6.4473855 9.3268978 6.5100856 9.3554688 6.5722656 C 9.3929737 6.6538816 9.4361789 6.7337069 9.4824219 6.8105469 C 9.5286679 6.8873929 9.5787585 6.9621031 9.6328125 7.0332031 C 9.6868645 7.1042811 9.7457106 7.1720081 9.8066406 7.2363281 C 9.8675636 7.3006521 9.9311969 7.3613987 9.9980469 7.4179688 C 10.064914 7.4745387 10.135191 7.5283519 10.207031 7.5761719 C 10.278881 7.6239779 10.351824 7.6670051 10.427734 7.7050781 C 10.503644 7.7431701 10.581136 7.7754044 10.660156 7.8027344 L 10.646484 7.8066406 C 10.728554 7.8330846 10.810292 7.8648956 10.888672 7.9003906 C 10.967042 7.9358606 11.043358 7.9753832 11.117188 8.0195312 C 11.191007 8.0636543 11.263601 8.1116585 11.332031 8.1640625 C 11.400461 8.2164505 11.465144 8.2736844 11.527344 8.3339844 C 11.589524 8.3942884 11.648045 8.4575706 11.703125 8.5253906 C 11.758225 8.5931976 11.808329 8.6652944 11.855469 8.7402344 C 11.902609 8.8151704 11.946025 8.8928994 11.984375 8.9746094 C 12.022715 9.0563124 12.057248 9.1404256 12.085938 9.2285156 C 12.104425 9.2852554 12.118791 9.3430133 12.132812 9.4003906 C 12.154663 9.3028054 12.178918 9.2054963 12.1875 9.1054688 C 12.19981 8.9617388 12.198281 8.8165519 12.181641 8.6699219 C 12.173331 8.5966119 12.162404 8.5225318 12.146484 8.4492188 C 12.130574 8.3758787 12.109687 8.3014046 12.085938 8.2285156 C 12.057248 8.1404256 12.022715 8.0563124 11.984375 7.9746094 C 11.946025 7.8928994 11.902609 7.8151704 11.855469 7.7402344 C 11.808329 7.6652944 11.758225 7.5931976 11.703125 7.5253906 C 11.648045 7.4575706 11.589524 7.3942884 11.527344 7.3339844 C 11.465144 7.2736844 11.400461 7.2164505 11.332031 7.1640625 C 11.263601 7.1116585 11.191007 7.0636542 11.117188 7.0195312 C 11.043358 6.9753832 10.967042 6.9358606 10.888672 6.9003906 C 10.810292 6.8648956 10.728554 6.8330846 10.646484 6.8066406 L 10.660156 6.8027344 C 10.581136 6.7754044 10.503644 6.7431701 10.427734 6.7050781 C 10.351824 6.6670051 10.278881 6.6239779 10.207031 6.5761719 C 10.135191 6.5283519 10.064914 6.4745387 9.9980469 6.4179688 C 9.9311969 6.3613988 9.8675636 6.3006521 9.8066406 6.2363281 C 9.7457106 6.1720081 9.6868645 6.1042811 9.6328125 6.0332031 C 9.6248579 6.0227401 9.6191114 6.0106149 9.6113281 6 L 9.1542969 6 z M 8.4882812 6.8476562 C 8.4838839 6.8696416 8.4817192 6.8923461 8.4765625 6.9140625 C 8.4564125 6.9989825 8.4317477 7.0832455 8.4023438 7.1640625 C 8.3729457 7.2448725 8.3393073 7.3230765 8.3007812 7.3984375 C 8.2622503 7.4737875 8.2174639 7.5447023 8.1699219 7.6132812 L 8.1796875 7.6113281 C 8.1291745 7.6809781 8.0832416 7.753351 8.0410156 7.828125 C 7.9987716 7.902895 7.9612344 7.9794998 7.9277344 8.0585938 C 7.8942454 8.1376938 7.8641308 8.2181662 7.8398438 8.3007812 C 7.8155588 8.3833913 7.7978161 8.4673984 7.7832031 8.5527344 C 7.7685761 8.6380544 7.7583763 8.7272311 7.7539062 8.8144531 C 7.7494162 8.9016731 7.7497294 8.9878519 7.7558594 9.0761719 C 7.7619634 9.1644819 7.7738426 9.2531769 7.7910156 9.3417969 C 7.7963599 9.369379 7.8060957 9.3964769 7.8125 9.4238281 C 7.8216332 9.382849 7.8279902 9.3411034 7.8398438 9.3007812 C 7.8641308 9.2181662 7.8942454 9.1376938 7.9277344 9.0585938 C 7.9612344 8.9794998 7.9987716 8.902895 8.0410156 8.828125 C 8.0832416 8.753351 8.1291745 8.6809781 8.1796875 8.6113281 L 8.1699219 8.6132812 C 8.2174529 8.5447702 8.2622503 8.4737875 8.3007812 8.3984375 C 8.3393073 8.3230765 8.3729457 8.2448725 8.4023438 8.1640625 C 8.4317477 8.0832455 8.4564125 7.9989825 8.4765625 7.9140625 C 8.4967225 7.8291635 8.5106954 7.7419869 8.5214844 7.6542969 C 8.5322964 7.5666139 8.5396916 7.479745 8.5410156 7.390625 C 8.5424056 7.301506 8.53948 7.2122569 8.53125 7.1230469 C 8.52299 7.0338529 8.5082304 6.9434387 8.4902344 6.8554688 C 8.4896981 6.8528496 8.4888255 6.850276 8.4882812 6.8476562 z M 14.339844 8.8847656 C 14.252594 8.8810156 14.164422 8.883755 14.076172 8.890625 C 13.987902 8.897542 13.898977 8.9097434 13.810547 8.9277344 C 13.722097 8.9457134 13.634695 8.9665907 13.546875 8.9960938 C 13.474205 9.0205027 13.402344 9.0490901 13.333984 9.0800781 C 13.265644 9.1110701 13.200509 9.1465247 13.136719 9.1835938 C 13.009119 9.2577437 12.891193 9.341839 12.783203 9.4375 C 12.675203 9.53318 12.576754 9.6404763 12.490234 9.7539062 C 12.403714 9.8673263 12.326862 9.9878444 12.263672 10.115234 C 12.200502 10.242614 12.151271 10.376112 12.113281 10.513672 C 12.075311 10.651232 12.049983 10.79356 12.039062 10.9375 C 12.028192 11.08145 12.030818 11.226497 12.048828 11.373047 C 12.057848 11.446317 12.069347 11.52054 12.085938 11.59375 C 12.088148 11.603507 12.09137 11.613303 12.09375 11.623047 C 12.101838 11.586945 12.103477 11.549192 12.113281 11.513672 C 12.151271 11.376112 12.200502 11.242614 12.263672 11.115234 C 12.326862 10.987844 12.403714 10.867326 12.490234 10.753906 C 12.576754 10.640476 12.675203 10.53318 12.783203 10.4375 C 12.891193 10.34184 13.009119 10.257744 13.136719 10.183594 C 13.200509 10.146524 13.265644 10.111068 13.333984 10.080078 C 13.402344 10.049088 13.474205 10.020498 13.546875 9.9960938 C 13.634695 9.9665907 13.722097 9.9457134 13.810547 9.9277344 C 13.898977 9.9097434 13.987902 9.897542 14.076172 9.890625 C 14.164422 9.883755 14.252594 9.8810156 14.339844 9.8847656 C 14.427104 9.8883856 14.512206 9.8982634 14.597656 9.9121094 C 14.683106 9.9259554 14.768732 9.9432609 14.851562 9.9667969 C 14.934392 9.9903319 15.01435 10.01802 15.09375 10.050781 C 15.17316 10.083551 15.251012 10.120559 15.326172 10.162109 C 15.401322 10.203649 15.474802 10.250901 15.544922 10.300781 L 15.542969 10.291016 C 15.611979 10.337926 15.682113 10.382082 15.757812 10.419922 C 15.833512 10.457752 15.913071 10.488908 15.994141 10.517578 C 16.075211 10.546248 16.159041 10.570464 16.244141 10.589844 C 16.329241 10.609204 16.416126 10.624776 16.503906 10.634766 C 16.591686 10.644766 16.680401 10.649901 16.769531 10.650391 C 16.858651 10.650825 16.947969 10.645789 17.037109 10.636719 C 17.126239 10.627619 17.214934 10.614493 17.302734 10.595703 C 17.328509 10.590185 17.353319 10.580723 17.378906 10.574219 C 17.448726 10.532408 17.519894 10.493754 17.59375 10.458984 C 17.65518 10.430074 17.71739 10.404409 17.78125 10.380859 L 17.783203 10.382812 C 18.186623 10.300083 18.554107 10.304688 18.998047 10.304688 L 18.998047 10.417969 C 18.998679 10.417969 18.999367 10.417969 19 10.417969 L 18.998047 9.4179688 C 18.564522 9.4179718 18.118121 9.4190838 17.585938 9.5214844 L 17.583984 9.5175781 L 17.5625 9.5234375 C 17.47737 9.5520405 17.390544 9.5769001 17.302734 9.5957031 C 17.214934 9.6144931 17.126239 9.6276088 17.037109 9.6367188 C 16.947969 9.6458107 16.858651 9.6508251 16.769531 9.6503906 C 16.680401 9.6499036 16.591686 9.6447556 16.503906 9.6347656 C 16.416126 9.6247776 16.329241 9.6092088 16.244141 9.5898438 C 16.159041 9.5704668 16.075211 9.5462441 15.994141 9.5175781 C 15.913071 9.4889121 15.833512 9.4577519 15.757812 9.4199219 C 15.682113 9.3820779 15.611979 9.3379226 15.542969 9.2910156 L 15.544922 9.3007812 C 15.474802 9.2509062 15.401322 9.2036474 15.326172 9.1621094 C 15.251012 9.1205564 15.17316 9.0835552 15.09375 9.0507812 C 15.01435 9.0180202 14.934392 8.9903319 14.851562 8.9667969 C 14.768732 8.9432609 14.683106 8.9259554 14.597656 8.9121094 C 14.512206 8.8982634 14.427104 8.8883856 14.339844 8.8847656 z M 7.9316406 11.021484 C 7.7878106 11.010514 7.6445169 11.01328 7.4980469 11.03125 C 7.4248169 11.04022 7.3505237 11.053743 7.2773438 11.070312 C 7.2041637 11.086892 7.1312748 11.108413 7.0585938 11.132812 C 6.9707738 11.162322 6.8860425 11.195285 6.8046875 11.234375 C 6.7233275 11.273465 6.6448175 11.317394 6.5703125 11.365234 C 6.4957925 11.413064 6.426675 11.463821 6.359375 11.519531 C 6.292065 11.575241 6.2276938 11.636479 6.1679688 11.699219 C 6.1082387 11.761959 6.051776 11.827564 6 11.896484 C 5.94822 11.965384 5.9008719 12.037108 5.8574219 12.111328 C 5.8139639 12.185568 5.7749824 12.261134 5.7402344 12.339844 C 5.7054564 12.418534 5.6741285 12.499701 5.6484375 12.582031 L 5.6445312 12.570312 C 5.6179192 12.649583 5.5862071 12.726484 5.5488281 12.802734 C 5.5114481 12.878994 5.469034 12.955054 5.421875 13.027344 C 5.374715 13.099624 5.3235371 13.170911 5.2675781 13.238281 C 5.2116181 13.305651 5.1497195 13.368158 5.0859375 13.429688 C 5.0577175 13.456888 5.029451 13.483606 5 13.509766 L 5 14.509766 C 5.029451 14.483606 5.0577175 14.456888 5.0859375 14.429688 C 5.1497195 14.368158 5.2116181 14.305651 5.2675781 14.238281 C 5.3235371 14.170911 5.374715 14.099624 5.421875 14.027344 C 5.469034 13.955054 5.5114481 13.878994 5.5488281 13.802734 C 5.5862071 13.726484 5.6179192 13.649583 5.6445312 13.570312 L 5.6484375 13.582031 C 5.6741285 13.499701 5.7054564 13.418534 5.7402344 13.339844 C 5.7749824 13.261134 5.8139639 13.185568 5.8574219 13.111328 C 5.9008719 13.037108 5.94822 12.965384 6 12.896484 C 6.051776 12.827564 6.1082387 12.761959 6.1679688 12.699219 C 6.2276938 12.636479 6.292065 12.575241 6.359375 12.519531 C 6.426675 12.463821 6.4957925 12.413064 6.5703125 12.365234 C 6.6448175 12.317394 6.7233275 12.273465 6.8046875 12.234375 C 6.8860425 12.195285 6.9707738 12.162322 7.0585938 12.132812 C 7.1312748 12.108413 7.2041637 12.086892 7.2773438 12.070312 C 7.3505237 12.053743 7.4248169 12.04022 7.4980469 12.03125 C 7.6445169 12.01328 7.7878106 12.010514 7.9316406 12.021484 C 8.0754706 12.032474 8.2180387 12.057593 8.3554688 12.095703 C 8.4928888 12.133823 8.6266463 12.18667 8.7539062 12.25 C 8.8811463 12.31332 9.0019344 12.387959 9.1152344 12.474609 C 9.2285544 12.561259 9.3341075 12.657525 9.4296875 12.765625 C 9.5252525 12.873735 9.6114569 12.993444 9.6855469 13.121094 C 9.7225869 13.184904 9.7580905 13.249989 9.7890625 13.318359 C 9.8200385 13.386719 9.8466867 13.456627 9.8710938 13.529297 C 9.8922983 13.592354 9.9102923 13.656846 9.9257812 13.720703 C 9.9491884 13.617096 9.9723381 13.513494 9.9804688 13.40625 C 9.9913808 13.2623 9.9887181 13.1153 9.9707031 12.96875 C 9.9616801 12.89547 9.9502087 12.8232 9.9335938 12.75 C 9.9170037 12.67677 9.8955277 12.601957 9.8710938 12.529297 C 9.8466867 12.456627 9.8200385 12.386719 9.7890625 12.318359 C 9.7580905 12.249989 9.7225869 12.184904 9.6855469 12.121094 C 9.683434 12.117453 9.6798669 12.114955 9.6777344 12.111328 C 9.5716721 12.096822 9.465582 12.081981 9.3632812 12.052734 C 9.2260912 12.013494 9.0916438 11.962778 8.9648438 11.898438 C 8.8380438 11.834088 8.7180787 11.757482 8.6054688 11.669922 C 8.4928287 11.582362 8.3876488 11.48386 8.2929688 11.375 C 8.2049747 11.273818 8.1278868 11.161109 8.0585938 11.042969 C 8.0158837 11.03718 7.9746803 11.024773 7.9316406 11.021484 z M 12.234375 13.212891 C 12.090535 13.200631 11.945528 13.200107 11.798828 13.216797 C 11.725478 13.225137 11.651485 13.237986 11.578125 13.253906 C 11.504765 13.269836 11.432275 13.290693 11.359375 13.314453 C 11.286485 13.338193 11.215124 13.364181 11.146484 13.394531 C 11.077844 13.424871 11.011426 13.459634 10.947266 13.496094 C 10.818946 13.569014 10.700767 13.653457 10.591797 13.748047 C 10.482827 13.842637 10.382602 13.946094 10.294922 14.058594 C 10.207232 14.171094 10.130896 14.293262 10.066406 14.419922 C 10.001928 14.546582 9.9495262 14.679336 9.9101562 14.816406 C 9.8707953 14.953486 9.8443563 15.094561 9.8320312 15.238281 C 9.8196832 15.382011 9.8212746 15.527208 9.8378906 15.673828 C 9.8461986 15.747138 9.859104 15.821201 9.875 15.894531 C 9.8782609 15.909566 9.8831873 15.924477 9.8867188 15.939453 C 9.8959776 15.898786 9.8986651 15.856426 9.9101562 15.816406 C 9.9495262 15.679336 10.001928 15.546582 10.066406 15.419922 C 10.130896 15.293262 10.207232 15.171094 10.294922 15.058594 C 10.382602 14.946094 10.482827 14.842637 10.591797 14.748047 C 10.700767 14.653457 10.818946 14.569014 10.947266 14.496094 C 11.011426 14.459634 11.077844 14.424871 11.146484 14.394531 C 11.215124 14.364181 11.286485 14.338193 11.359375 14.314453 C 11.432275 14.290693 11.504765 14.269836 11.578125 14.253906 C 11.651485 14.237986 11.725478 14.225137 11.798828 14.216797 C 11.945528 14.200107 12.090535 14.200631 12.234375 14.212891 C 12.378215 14.225131 12.520993 14.249822 12.658203 14.289062 C 12.795403 14.328302 12.927898 14.380973 13.054688 14.445312 C 13.181487 14.509662 13.301432 14.586268 13.414062 14.673828 C 13.526692 14.761388 13.631883 14.85989 13.726562 14.96875 C 13.821243 15.07761 13.905546 15.195949 13.978516 15.324219 C 14.015006 15.388359 14.049728 15.456771 14.080078 15.525391 C 14.110438 15.594021 14.136406 15.663438 14.160156 15.736328 C 14.179983 15.797177 14.192839 15.858648 14.207031 15.919922 C 14.216693 15.876144 14.228792 15.833043 14.236328 15.789062 C 14.250948 15.703743 14.261125 15.61847 14.265625 15.53125 C 14.270125 15.44404 14.269772 15.355888 14.263672 15.267578 C 14.257562 15.179268 14.245686 15.090563 14.228516 15.001953 C 14.211356 14.913353 14.188856 14.824408 14.160156 14.736328 C 14.136406 14.663438 14.110438 14.594021 14.080078 14.525391 C 14.049728 14.456771 14.015006 14.388359 13.978516 14.324219 C 13.973344 14.315128 13.966223 14.307819 13.960938 14.298828 C 13.861 14.284697 13.760292 14.272772 13.664062 14.246094 C 13.526642 14.207964 13.392885 14.159013 13.265625 14.095703 C 13.138395 14.032373 13.017597 13.955791 12.904297 13.869141 C 12.790997 13.782491 12.685424 13.684262 12.589844 13.576172 C 12.496749 13.470883 12.412618 13.356253 12.339844 13.232422 C 12.304217 13.227796 12.270203 13.215939 12.234375 13.212891 z M 5 18 L 5 19 C 5 19.554 5.446 20 6 20 L 12.748047 20 L 12.734375 19.960938 L 12.740234 19.960938 C 12.717144 19.896428 12.692593 19.831641 12.664062 19.769531 C 12.626563 19.687911 12.583349 19.60809 12.537109 19.53125 C 12.490869 19.4544 12.442732 19.381627 12.388672 19.310547 C 12.334652 19.239487 12.273811 19.171742 12.212891 19.107422 C 12.176843 19.069368 12.137655 19.035428 12.099609 19 L 6 19 C 5.446 19 5 18.554 5 18 z M 18.992188 18.035156 C 18.972658 18.571696 18.54148 19 18 19 L 13.677734 19 L 13.599609 18.773438 L 13.603516 18.771484 L 13.597656 18.748047 C 13.57067 18.665217 13.548967 18.581336 13.53125 18.496094 C 13.518458 18.560057 13.506077 18.624193 13.498047 18.689453 C 13.487247 18.777133 13.479836 18.865958 13.478516 18.955078 C 13.477216 19.044198 13.479981 19.133436 13.488281 19.222656 C 13.496581 19.311876 13.511307 19.400321 13.529297 19.488281 C 13.547287 19.576251 13.569836 19.662657 13.597656 19.748047 L 13.603516 19.771484 L 13.599609 19.773438 L 13.677734 20 L 18 20 C 18.54148 20 18.972658 19.571696 18.992188 19.035156 L 18.992188 18.035156 z "
       id="path39" />
    <path
       d="m2 1c-0.554 0-1 0.446-1 1v7.5098c0.029451-0.02616 0.057718-0.052878 0.085938-0.080078 0.063782-0.061529 0.12568-0.12404 0.18164-0.19141 0.055959-0.06737 0.10714-0.13866 0.1543-0.21094 0.047159-0.072289 0.08957-0.14835 0.12695-0.22461 0.037379-0.076247 0.069091-0.15315 0.095703-0.23242l0.0039063 0.011719c0.025691-0.082327 0.057019-0.1635 0.091797-0.24219 0.034748-0.078707 0.073732-0.15428 0.11719-0.22852 0.04345-0.074224 0.0908-0.14594 0.14258-0.21484 0.051776-0.068918 0.10824-0.13453 0.16797-0.19727 0.059725-0.062738 0.1241-0.12398 0.19141-0.17969 0.0673-0.055709 0.13642-0.10647 0.21094-0.1543 0.074505-0.047843 0.15302-0.09177 0.23438-0.13086 0.081355-0.039091 0.16609-0.072048 0.25391-0.10156 0.072681-0.024396 0.14557-0.04592 0.21875-0.0625 0.07318-0.016568 0.14747-0.030086 0.2207-0.039062 0.14647-0.017966 0.28976-0.020766 0.43359-0.0097656 0.14383 0.010987 0.2864 0.036114 0.42383 0.074219 0.13742 0.038117 0.27118 0.090971 0.39844 0.1543 0.12724 0.063325 0.24803 0.13796 0.36133 0.22461 0.11332 0.086647 0.21887 0.18292 0.31445 0.29102 0.095565 0.10811 0.18177 0.22782 0.25586 0.35547 0.03704 0.063812 0.072548 0.1289 0.10352 0.19727 0.030976 0.068356 0.057624 0.13827 0.082031 0.21094 0.024434 0.072664 0.04591 0.14747 0.0625 0.2207 0.016615 0.073201 0.028086 0.14547 0.037109 0.21875 0.018015 0.14655 0.020682 0.29355 0.0097657 0.4375-0.010912 0.14393-0.036246 0.28432-0.074219 0.42188-0.037977 0.13756-0.087212 0.27302-0.15039 0.40039-0.063188 0.12739-0.13808 0.24791-0.22461 0.36133-0.086507 0.11343-0.18498 0.21878-0.29297 0.31445-0.10799 0.09565-0.22788 0.18172-0.35547 0.25586-0.063795 0.03707-0.12893 0.070577-0.19727 0.10156-0.068365 0.03098-0.14023 0.059574-0.21289 0.083984-0.087833 0.02951-0.17522 0.052333-0.26367 0.070313-0.088441 0.01799-0.17737 0.030189-0.26562 0.037109-0.088253 0.0069-0.17446 0.009459-0.26172 0.005859-0.087263-0.0036-0.17626-0.013493-0.26172-0.027343-0.085447-0.01385-0.16912-0.031158-0.25195-0.054688-0.082828-0.02353-0.16278-0.053177-0.24219-0.085937-0.079398-0.03277-0.1553-0.069773-0.23047-0.11133-0.075145-0.04154-0.15059-0.086847-0.2207-0.13672l0.0039062 0.009765c-0.069007-0.04689-0.14109-0.089116-0.2168-0.12695-0.075706-0.03782-0.15526-0.070949-0.23633-0.099609-0.08107-0.02867-0.1649-0.052876-0.25-0.072266-0.085099-0.01936-0.17199-0.032978-0.25977-0.042968-0.087798-0.01-0.17649-0.015145-0.26562-0.015626-0.083377-4.34e-4 -0.16656 0.002056-0.25 0.009766v3.2949c0 0.554 0.446 1 1 1h6.748l-0.013672-0.039062h0.0058594c-0.02309-0.064511-0.047642-0.1293-0.076172-0.19141-0.0375-0.08162-0.080714-0.16144-0.12695-0.23828-0.04624-0.07685-0.09438-0.14962-0.14844-0.2207-0.054019-0.071063-0.11486-0.1388-0.17578-0.20312-0.060925-0.064324-0.12456-0.12507-0.19141-0.18164-0.066853-0.05657-0.13714-0.11038-0.20898-0.1582-0.071847-0.047818-0.1448-0.090829-0.2207-0.12891-0.075909-0.03808-0.1534-0.070326-0.23242-0.097656l0.013672-0.003907c-0.08207-0.02646-0.16382-0.05827-0.24219-0.09375-0.07837-0.03547-0.15468-0.076955-0.22852-0.12109-0.073825-0.04411-0.14446-0.090166-0.21289-0.14258-0.068435-0.052401-0.13508-0.10963-0.19727-0.16992-0.062185-0.0603-0.12069-0.12554-0.17578-0.19336-0.05509-0.06781-0.1052-0.13794-0.15234-0.21289-0.047143-0.07495-0.090562-0.15462-0.12891-0.23633-0.038343-0.081721-0.072861-0.16582-0.10156-0.25391-0.023742-0.07289-0.042687-0.14541-0.058594-0.21875-0.015896-0.07333-0.028801-0.14739-0.037109-0.2207-0.016616-0.14662-0.018208-0.29182-0.0058594-0.43555 0.012325-0.14372 0.038764-0.2848 0.078125-0.42188 0.03937-0.13707 0.091772-0.26982 0.15625-0.39648 0.064488-0.12666 0.14083-0.24883 0.22852-0.36133 0.087681-0.1125 0.18791-0.21596 0.29688-0.31055 0.10897-0.09459 0.22715-0.17903 0.35547-0.25195 0.064164-0.03646 0.13058-0.071224 0.19922-0.10156 0.068644-0.030351 0.14-0.056343 0.21289-0.080078 0.072902-0.023759 0.14539-0.044616 0.21875-0.060547 0.073364-0.015919 0.14735-0.028769 0.2207-0.037109 0.1467-0.016693 0.29171-0.016157 0.43555-0.0039063 0.14384 0.012236 0.28662 0.036931 0.42383 0.076172 0.1372 0.039241 0.26969 0.091914 0.39648 0.15625 0.1268 0.06435 0.24675 0.14096 0.35938 0.22852 0.11263 0.08756 0.21782 0.18606 0.3125 0.29492 0.09468 0.10886 0.17898 0.2272 0.25195 0.35547 0.03649 0.06414 0.071211 0.13255 0.10156 0.20117 0.03036 0.06863 0.056328 0.13805 0.080078 0.21094 0.0287 0.08808 0.0512 0.17702 0.06836 0.26562 0.01717 0.08861 0.029046 0.17731 0.035156 0.26562 0.0061 0.08831 0.006453 0.17646 0.001953 0.26367-0.0045 0.08722-0.014677 0.17249-0.029297 0.25781-0.01462 0.08532-0.032351 0.17129-0.05664 0.25391-0.02428 0.08261-0.054401 0.16114-0.087891 0.24023-0.03349 0.07909-0.071044 0.15766-0.11328 0.23242-0.04223 0.07477-0.088158 0.1491-0.13867 0.21875l0.0097656-0.005859c-0.04754 0.06857-0.092329 0.14144-0.13086 0.2168-0.03852 0.075351-0.07021 0.15357-0.099609 0.23438-0.0294 0.080819-0.056012 0.16509-0.076172 0.25-0.02015 0.08491-0.034132 0.17207-0.044922 0.25976-0.0108 0.08768-0.018211 0.1765-0.019531 0.26562-0.0013 0.08912 0.0014756 0.17836 0.0097656 0.26758 0.0083001 0.08922 0.023026 0.17766 0.041016 0.26562 0.01799 0.08797 0.040539 0.17438 0.068359 0.25977l0.0058594 0.023437-0.0039062 0.001954 0.078125 0.22656h4.3223c0.54148 0 0.97266-0.4283 0.99219-0.96484l0.005859-7.7305c-0.44394 0-0.81138-0.004588-1.2148 0.078125l-0.001953-0.0019531c-0.06386 0.023547-0.12607 0.049221-0.1875 0.078125-0.08127 0.038255-0.15991 0.080007-0.23633 0.12695-0.07642 0.046944-0.15207 0.097638-0.22266 0.15234-0.07059 0.054698-0.13742 0.11427-0.20117 0.17578-0.06377 0.061515-0.12373 0.12599-0.17969 0.19336-0.05596 0.06737-0.10713 0.1367-0.1543 0.20898-0.04716 0.072289-0.091525 0.14835-0.12891 0.22461-0.03738 0.076247-0.069093 0.1512-0.095703 0.23047l-0.003906-0.0097656c-0.02571 0.082315-0.057037 0.16155-0.091797 0.24023-0.03475 0.078694-0.073728 0.15624-0.11719 0.23047-0.04346 0.074224-0.088843 0.14594-0.14062 0.21484-0.05178 0.068918-0.1102 0.13648-0.16992 0.19922-0.05973 0.062738-0.12215 0.12008-0.18945 0.17578-0.06729 0.055709-0.13838 0.10842-0.21289 0.15625-0.07451 0.047831-0.15302 0.08982-0.23438 0.12891-0.08135 0.039091-0.16609 0.074013-0.25391 0.10352-0.072661 0.024409-0.14556 0.04592-0.21875 0.0625-0.073181 0.016568-0.14552 0.030074-0.21875 0.039062-0.14644 0.017966-0.29172 0.02082-0.43555 0.0097656-0.14383-0.010986-0.2864-0.038067-0.42383-0.076172-0.13742-0.038132-0.27118-0.087078-0.39844-0.15039-0.12723-0.06333-0.24803-0.13991-0.36133-0.22656-0.1133-0.08665-0.21887-0.18488-0.31445-0.29297-0.095581-0.1081-0.18177-0.22587-0.25586-0.35352-0.037047-0.063824-0.072556-0.12891-0.10352-0.19727-0.030983-0.068356-0.057622-0.14022-0.082031-0.21289-0.024418-0.072676-0.045908-0.14553-0.0625-0.21875-0.016592-0.073213-0.028094-0.14743-0.037109-0.2207-0.018014-0.14655-0.020674-0.2916-0.0097656-0.43555 0.010912-0.14394 0.036244-0.28627 0.074219-0.42383 0.037992-0.13756 0.087215-0.27106 0.15039-0.39844 0.063188-0.12739 0.14004-0.24791 0.22656-0.36133 0.08652-0.11343 0.18497-0.22073 0.29297-0.31641 0.10799-0.095661 0.22592-0.17976 0.35352-0.25391 0.06379-0.037069 0.12893-0.072528 0.19727-0.10352 0.06836-0.030988 0.14022-0.059575 0.21289-0.083984 0.08782-0.029503 0.17522-0.05038 0.26367-0.068359 0.08843-0.017991 0.17736-0.030192 0.26563-0.037109 0.08825-0.00687 0.17642-0.0096094 0.26367-0.0058594 0.08726 0.00362 0.17236 0.013498 0.25781 0.027344s0.17108 0.031152 0.25391 0.054688c0.08283 0.023535 0.16279 0.051223 0.24219 0.083984 0.07941 0.032774 0.15726 0.069777 0.23242 0.11133 0.07515 0.041538 0.14863 0.088795 0.21875 0.13867l-0.001953-0.0097656c0.06901 0.046907 0.13914 0.091066 0.21484 0.12891 0.0757 0.03783 0.15526 0.06899 0.23633 0.097656 0.08107 0.028666 0.1649 0.052889 0.25 0.072266 0.0851 0.019365 0.17198 0.034934 0.25976 0.044922 0.08778 0.00999 0.17649 0.015138 0.26562 0.015625 0.08912 4.345e-4 0.17844-0.0045818 0.26758-0.013672 0.08913-0.00911 0.17782-0.022226 0.26562-0.041016 0.08781-0.018803 0.17464-0.043663 0.25977-0.072266l0.021484-0.0058594 0.001954 0.0039063c0.53296-0.10255 0.97998-0.10352 1.4141-0.10352l-0.005859-3.4512c-0.018322-0.53766-0.45186-0.9668-0.99414-0.9668h-8.8457l0.12891 0.38086-0.0039062 0.0019531c0.02309 0.064573 0.047601 0.12727 0.076172 0.18945 0.037505 0.081616 0.080707 0.16144 0.12695 0.23828 0.046246 0.076846 0.096336 0.15156 0.15039 0.22266 0.054052 0.071078 0.1129 0.1388 0.17383 0.20312 0.060923 0.064324 0.12456 0.12507 0.19141 0.18164 0.066867 0.05657 0.13714 0.11038 0.20898 0.1582 0.071852 0.047806 0.14479 0.090837 0.2207 0.12891 0.075905 0.038092 0.1534 0.070326 0.23242 0.097656l-0.013672 0.0039062c0.08207 0.026444 0.16381 0.058255 0.24219 0.09375 0.078372 0.03547 0.15469 0.074992 0.22852 0.11914 0.073822 0.044123 0.14641 0.092126 0.21484 0.14453 0.068435 0.052388 0.13311 0.10962 0.19531 0.16992 0.06218 0.060304 0.1207 0.12359 0.17578 0.19141 0.055098 0.067807 0.1052 0.1399 0.15234 0.21484 0.04714 0.074936 0.090561 0.15267 0.12891 0.23438 0.038343 0.081703 0.072866 0.16582 0.10156 0.25391 0.023751 0.072889 0.044637 0.14736 0.060547 0.2207 0.015916 0.073313 0.026852 0.14739 0.035156 0.2207 0.016639 0.14663 0.018208 0.29182 0.0058594 0.43555-0.012325 0.14372-0.038759 0.28676-0.078125 0.42383-0.039374 0.13707-0.091768 0.26982-0.15625 0.39648-0.064488 0.12664-0.14083 0.24492-0.22852 0.35742-0.087682 0.1125-0.18597 0.21791-0.29492 0.3125-0.10898 0.094588-0.22715 0.17903-0.35547 0.25195-0.064166 0.036444-0.13058 0.071224-0.19922 0.10156-0.068639 0.030352-0.14001 0.056331-0.21289 0.080078-0.072902 0.023759-0.14733 0.044616-0.2207 0.060547-0.073351 0.015919-0.14735 0.026816-0.2207 0.035156-0.1467 0.01668-0.29171 0.01811-0.43555 0.0058594-0.14384-0.012232-0.28466-0.038896-0.42188-0.078125-0.13719-0.039241-0.27164-0.089962-0.39844-0.1543-0.1268-0.064349-0.24677-0.14096-0.35938-0.22852-0.11264-0.087559-0.21782-0.18606-0.3125-0.29492-0.09468-0.10887-0.17899-0.22916-0.25195-0.35742-0.036494-0.064136-0.069258-0.12865-0.099609-0.19727-0.030359-0.068631-0.058282-0.14195-0.082031-0.21484-0.028688-0.088083-0.051192-0.17507-0.068359-0.26367-0.017173-0.08862-0.029052-0.17731-0.035156-0.26562-0.00613-0.08832-0.0064431-0.1745-0.0019532-0.26172 0.00447-0.087222 0.01467-0.1764 0.029297-0.26172 0.014613-0.085336 0.032356-0.16934 0.056641-0.25195 0.024287-0.082615 0.054402-0.16309 0.087891-0.24219 0.0335-0.079094 0.071036-0.1557 0.11328-0.23047 0.042226-0.074774 0.088157-0.14715 0.13867-0.2168l-0.0097656 0.0019531c0.047542-0.068579 0.092329-0.13949 0.13086-0.21484 0.038526-0.075361 0.072162-0.15357 0.10156-0.23438 0.029404-0.080817 0.054069-0.16508 0.074219-0.25 0.02016-0.084899 0.034133-0.17208 0.044922-0.25977 0.010812-0.087683 0.018207-0.17455 0.019531-0.26367 0.00139-0.089119-0.0015376-0.17837-0.0097656-0.26758-0.00826-0.089194-0.02302-0.17961-0.041016-0.26758-0.018014-0.087983-0.04054-0.17633-0.068359-0.26172l-0.0058594-0.021484h0.0039063l-0.10938-0.32422s-0.051025-0.19257-0.068359-0.24805h-2.2422z"
       fill="#fff"
       id="base"
       transform="translate(4,4)" />
  </g>
</svg>
