<?xml version="1.0" encoding="UTF-8" standalone="no"?>
<svg xmlns:dc="http://purl.org/dc/elements/1.1/" xmlns:cc="http://creativecommons.org/ns#" xmlns:rdf="http://www.w3.org/1999/02/22-rdf-syntax-ns#" xmlns:svg="http://www.w3.org/2000/svg" xmlns="http://www.w3.org/2000/svg" xmlns:sodipodi="http://sodipodi.sourceforge.net/DTD/sodipodi-0.dtd" xmlns:inkscape="http://www.inkscape.org/namespaces/inkscape" id="svg2" width="24" height="24" version="1.0" sodipodi:docname="telegram.svg" inkscape:version="0.92.2 5c3e80d, 2017-08-06">
  <metadata id="metadata47">
    <rdf:RDF>
      <cc:Work rdf:about="">
        <dc:format>image/svg+xml</dc:format>
        <dc:type rdf:resource="http://purl.org/dc/dcmitype/StillImage" />
      </cc:Work>
    </rdf:RDF>
  </metadata>
  <sodipodi:namedview pagecolor="#ffffff" bordercolor="#666666" borderopacity="1" objecttolerance="10" gridtolerance="10" guidetolerance="10" inkscape:pageopacity="0" inkscape:pageshadow="2" inkscape:window-width="640" inkscape:window-height="480" id="namedview45" showgrid="false" inkscape:zoom="9.8333333" inkscape:cx="12" inkscape:cy="12" inkscape:current-layer="svg2" />
  <defs id="defs4">
    <linearGradient id="linearGradient3335" x1="11.375" x2="11.375" y1="22" y2="-9.8173" gradientUnits="userSpaceOnUse">
      <stop id="stop3330" offset="0" />
      <stop id="stop3333" stop-opacity="0" offset="1" />
    </linearGradient>
    <linearGradient id="linearGradient3181" x1="-3.0608" x2="-3.0608" y1="27.258" y2="7.2537" gradientTransform="translate(12.119 -7.2582)" gradientUnits="userSpaceOnUse">
      <stop id="stop3189" stop-color="#2770aa" offset="0" />
      <stop id="stop3191" stop-color="#37a0f2" offset="1" />
    </linearGradient>
    <filter id="filter3194" x="-.18" y="-.18" width="1.36" height="1.36" color-interpolation-filters="sRGB">
      <feGaussianBlur id="feGaussianBlur3196" stdDeviation="1.2" />
    </filter>
    <clipPath id="clipPath2849">
      <rect id="rect2851" x="1" y="1" width="20" height="20" rx="2" ry="2" fill="#fff" fill-rule="evenodd" />
    </clipPath>
    <linearGradient id="linearGradient3845" x1="11" x2="21" y1="19.5" y2="19.5" gradientTransform="translate(1,-1)" gradientUnits="userSpaceOnUse" spreadMethod="reflect">
      <stop id="stop3833" stop-color="#fff" offset="0" />
      <stop id="stop3821" stop-color="#fff" stop-opacity=".49804" offset=".75" />
      <stop id="stop3835" stop-color="#fff" stop-opacity="0" offset="1" />
    </linearGradient>
    <linearGradient id="linearGradient3961" x1="10" x2="10" y1="1" y2="16" gradientTransform="translate(1,-1)" gradientUnits="userSpaceOnUse">
      <stop id="stop3825" stop-color="#fff" offset="0" />
      <stop id="stop3829" stop-color="#fff" stop-opacity="0" offset="1" />
    </linearGradient>
  </defs>
  <g id="layer1" transform="translate(0,2)">
    <g id="g3337" transform="translate(1,-1)">
      <rect id="rect3371" x=".5" y=".5" width="21" height="21.5" rx="2.5" ry="2.5" fill="url(#linearGradient3335)" opacity=".3" />
      <rect id="rect2553" x="1" y="2" width="20" height="20" rx="2.381" ry="2.3256" opacity=".5" />
    </g>
    <rect id="rect3173" x="2" width="20" height="20" rx="2" ry="2" fill="url(#linearGradient3181)" fill-rule="evenodd" />
    <path id="rect3050" d="m4 0c-1.108 0-2 0.892-2 2v16c0 1.108 0.892 2 2 2h16c1.108 0 2-0.892 2-2v-16c0-1.108-0.892-2-2-2h-16zm0 1.0312h16c0.5497 0 0.96875 0.41905 0.96875 0.96875v16c0 0.5497-0.41905 0.96875-0.96875 0.96875h-16c-0.5497 0-0.96875-0.41905-0.96875-0.96875v-16c0-0.5497 0.41905-0.96875 0.96875-0.96875z" fill="url(#linearGradient3961)" fill-rule="evenodd" opacity=".35" />
    <path id="path3235" d="m4 20c-1.108 0-2-0.892-2-2v-1c0 1.108 0.892 2 2 2h16c1.108 0 2-0.892 2-2v1c0 1.108-0.892 2-2 2h-16z" fill="url(#linearGradient3845)" fill-rule="evenodd" opacity=".2" />
  </g>
  <g id="layer2" transform="translate(0,2)">
    <rect id="rect2410" transform="translate(1,-1)" x="3" y="3" width="16" height="16" rx="2" ry="2" clip-path="url(#clipPath2849)" fill="#fff" filter="url(#filter3194)" opacity=".15" />
  </g>
  <defs id="defs37">
    <filter id="w">
      <feGaussianBlur stdDeviation="0.26998568" id="feGaussianBlur29" />
    </filter>
    <linearGradient id="a" gradientUnits="userSpaceOnUse" x1="8" y1="1.9998919" x2="8" y2="13.9999719">
      <stop stop-color="#fafafa" offset="0" id="stop32" />
      <stop stop-color="#ebebeb" offset="1" id="stop34" />
    </linearGradient>
  </defs>
  <g id="main">
    <path style="opacity:0.6;fill:#000000;filter:url(#w)" inkscape:connector-curvature="0" d="M 18.465,6.5039 C 18.33748,6.489342 18.19644,6.514376 18.05484,6.580072 l -12.4,4.8867 c -0.84649,0.34698 -0.84156,0.82987 -0.1543,1.0449 l 3.4995,0.98833 7.0493,-4.7246 c 0.34781,-0.21554 0.66825,-0.098956 0.40625,0.13867 l -6.4551,5.5859 v 4 l 2.3867,-2.3867 3.2871,2.2227 c 0.59206,0.33384 1.0185,0.16218 1.166,-0.56055 l 2.1113,-10.172 c 0.16217,-0.66443 -0.10376,-1.0559 -0.48633,-1.0996 z" id="path20" />
    <path id="base" d="m14.465 2.0039c-0.12752-0.014558-0.26856 0.010476-0.41016 0.076172l-12.4 4.8867c-0.84649 0.34698-0.84156 0.82987-0.1543 1.0449l3.4995 0.98833 7.0493-4.7246c0.34781-0.21554 0.66825-0.098956 0.40625 0.13867l-6.4551 5.5859v4l2.3867-2.3867 3.2871 2.2227c0.59206 0.33384 1.0185 0.16218 1.166-0.56055l2.1113-10.172c0.16217-0.66443-0.10376-1.0559-0.48633-1.0996z" fill="#fff" transform="translate(4,4)" />
    <path id="path18" d="m12.297 4.1719c-0.074858 0.015668-0.16109 0.049631-0.24805 0.10352l-7.0488 4.7246 1 5v-4l6.4551-5.5859c0.1965-0.17822 0.066372-0.28919-0.1582-0.24219z" fill="#fff" opacity=".45" transform="translate(4,4)" />
  </g>
</svg>
