<?xml version="1.0" encoding="UTF-8" standalone="no"?>
<!-- Created with Inkscape (http://www.inkscape.org/) -->

<svg
   xmlns:dc="http://purl.org/dc/elements/1.1/"
   xmlns:cc="http://creativecommons.org/ns#"
   xmlns:rdf="http://www.w3.org/1999/02/22-rdf-syntax-ns#"
   xmlns:svg="http://www.w3.org/2000/svg"
   xmlns="http://www.w3.org/2000/svg"
   xmlns:xlink="http://www.w3.org/1999/xlink"
   xmlns:sodipodi="http://sodipodi.sourceforge.net/DTD/sodipodi-0.dtd"
   xmlns:inkscape="http://www.inkscape.org/namespaces/inkscape"
   width="24"
   height="24"
   id="svg2"
   sodipodi:version="0.32"
   inkscape:version="0.48.3.1 r9886"
   version="1.0"
   sodipodi:docname="time-admin.svg"
   inkscape:output_extension="org.inkscape.output.svg.inkscape"
   style="display:inline">
  <defs
     id="defs4">
    <linearGradient
       id="linearGradient3873">
      <stop
         style="stop-color:#868686;stop-opacity:1;"
         offset="0"
         id="stop3875" />
      <stop
         style="stop-color:#5a5a5a;stop-opacity:1;"
         offset="1"
         id="stop3877" />
    </linearGradient>
    <linearGradient
       inkscape:collect="always"
       id="linearGradient3744">
      <stop
         style="stop-color:#ff0000;stop-opacity:1;"
         offset="0"
         id="stop3746" />
      <stop
         style="stop-color:#ff0000;stop-opacity:0;"
         offset="1"
         id="stop3748" />
    </linearGradient>
    <linearGradient
       id="linearGradient3724">
      <stop
         style="stop-color:#c1c1c1;stop-opacity:1;"
         offset="0"
         id="stop3726" />
      <stop
         style="stop-color:#b9b9b9;stop-opacity:0;"
         offset="1"
         id="stop3728" />
    </linearGradient>
    <linearGradient
       inkscape:collect="always"
       id="linearGradient3327">
      <stop
         style="stop-color:#000000;stop-opacity:1;"
         offset="0"
         id="stop3330" />
      <stop
         style="stop-color:#000000;stop-opacity:0;"
         offset="1"
         id="stop3333" />
    </linearGradient>
    <linearGradient
       inkscape:collect="always"
       xlink:href="#linearGradient3327"
       id="linearGradient3335"
       x1="11.375"
       y1="22"
       x2="11.375"
       y2="-9.817296"
       gradientUnits="userSpaceOnUse" />
    <linearGradient
       inkscape:collect="always"
       xlink:href="#linearGradient3893"
       id="linearGradient3181"
       x1="-3.0607977"
       y1="27.258198"
       x2="-3.0607977"
       y2="7.2536583"
       gradientUnits="userSpaceOnUse"
       gradientTransform="translate(12.119372,-27.258198)" />
    <inkscape:perspective
       sodipodi:type="inkscape:persp3d"
       inkscape:vp_x="0 : 11 : 1"
       inkscape:vp_y="0 : 1000 : 0"
       inkscape:vp_z="22 : 11 : 1"
       inkscape:persp3d-origin="11 : 7.3333333 : 1"
       id="perspective2531" />
    <linearGradient
       id="ButtonShadow"
       gradientTransform="scale(0.9883037,1.0118347)"
       x1="9.3550024"
       y1="21.742682"
       x2="9.3550024"
       y2="0.49362123"
       gradientUnits="userSpaceOnUse">
      <stop
         id="stop3277"
         offset="0"
         style="stop-color:#000000;stop-opacity:0.70588237;" />
      <stop
         id="stop3279"
         offset="1"
         style="stop-color:#000000;stop-opacity:0.15686275;" />
    </linearGradient>
    <linearGradient
       inkscape:collect="always"
       id="linearGradient3232">
      <stop
         style="stop-color:#000000;stop-opacity:1;"
         offset="0"
         id="stop3234" />
      <stop
         style="stop-color:#000000;stop-opacity:0;"
         offset="1"
         id="stop3236" />
    </linearGradient>
    <linearGradient
       gradientUnits="userSpaceOnUse"
       y2="-6.0004225"
       x2="11"
       y1="14.805666"
       x1="11"
       id="linearGradient3221"
       xlink:href="#linearGradient3232"
       inkscape:collect="always" />
    <linearGradient
       id="ButtonColor"
       x1="10.31979"
       y1="21"
       x2="10.31979"
       y2="0.99929649"
       gradientUnits="userSpaceOnUse">
      <stop
         style="stop-color:#29669f;stop-opacity:1;"
         offset="0"
         id="stop3189" />
      <stop
         style="stop-color:#88b6e0;stop-opacity:1;"
         offset="1"
         id="stop3191" />
    </linearGradient>
    <linearGradient
       inkscape:collect="always"
       xlink:href="#ButtonShadow"
       id="linearGradient38042"
       gradientUnits="userSpaceOnUse"
       gradientTransform="scale(0.9883037,1.0118347)"
       x1="9.3550024"
       y1="21.742682"
       x2="9.3550024"
       y2="0.49362123" />
    <filter
       inkscape:collect="always"
       id="filter3194"
       x="-0.18000001"
       width="1.36"
       y="-0.18000001"
       height="1.36"
       color-interpolation-filters="sRGB">
      <feGaussianBlur
         inkscape:collect="always"
         stdDeviation="1.2"
         id="feGaussianBlur3196" />
    </filter>
    <clipPath
       clipPathUnits="userSpaceOnUse"
       id="clipPath2849">
      <rect
         ry="2"
         rx="2"
         y="1"
         x="1"
         height="20"
         width="20"
         id="rect2851"
         style="fill:#ffffff;fill-opacity:1;fill-rule:evenodd;stroke:none;display:inline" />
    </clipPath>
    <inkscape:perspective
       id="perspective3956"
       inkscape:persp3d-origin="0.5 : 0.33333333 : 1"
       inkscape:vp_z="1 : 0.5 : 1"
       inkscape:vp_y="0 : 1000 : 0"
       inkscape:vp_x="0 : 0.5 : 1"
       sodipodi:type="inkscape:persp3d" />
    <linearGradient
       inkscape:collect="always"
       xlink:href="#linearGradient3700"
       id="linearGradient3926"
       gradientUnits="userSpaceOnUse"
       x1="48"
       y1="90"
       x2="48"
       y2="5.9877172" />
    <linearGradient
       id="linearGradient3700">
      <stop
         style="stop-color:#6bc72e;stop-opacity:1;"
         offset="0"
         id="stop3702" />
      <stop
         style="stop-color:#b5f48b;stop-opacity:1;"
         offset="1"
         id="stop3704" />
    </linearGradient>
    <linearGradient
       gradientTransform="translate(-70,-37)"
       y2="5.9877172"
       x2="48"
       y1="90"
       x1="48"
       gradientUnits="userSpaceOnUse"
       id="linearGradient3965"
       xlink:href="#linearGradient3700"
       inkscape:collect="always" />
    <inkscape:perspective
       id="perspective3975"
       inkscape:persp3d-origin="0.5 : 0.33333333 : 1"
       inkscape:vp_z="1 : 0.5 : 1"
       inkscape:vp_y="0 : 1000 : 0"
       inkscape:vp_x="0 : 0.5 : 1"
       sodipodi:type="inkscape:persp3d" />
    <radialGradient
       inkscape:collect="always"
       xlink:href="#linearGradient3674"
       id="radialGradient3682"
       cx="48"
       cy="48"
       fx="48"
       fy="48"
       r="32"
       gradientUnits="userSpaceOnUse" />
    <linearGradient
       id="linearGradient3674">
      <stop
         style="stop-color:#ffffff;stop-opacity:1;"
         offset="0"
         id="stop3676" />
      <stop
         id="stop3684"
         offset="0.89999998"
         style="stop-color:#ffffff;stop-opacity:1;" />
      <stop
         style="stop-color:#e5e5e5;stop-opacity:1;"
         offset="1"
         id="stop3678" />
    </linearGradient>
    <radialGradient
       r="32"
       fy="48"
       fx="48"
       cy="48"
       cx="48"
       gradientUnits="userSpaceOnUse"
       id="radialGradient3985"
       xlink:href="#linearGradient3674-92"
       inkscape:collect="always" />
    <linearGradient
       inkscape:collect="always"
       xlink:href="#linearGradient3724"
       id="linearGradient3730"
       x1="15.556349"
       y1="-4.2426405"
       x2="15.556349"
       y2="-8.485281"
       gradientUnits="userSpaceOnUse" />
    <linearGradient
       inkscape:collect="always"
       xlink:href="#linearGradient3724"
       id="linearGradient3738"
       x1="-2.7942286"
       y1="13.160254"
       x2="-2.2942286"
       y2="10.420729"
       gradientUnits="userSpaceOnUse" />
    <linearGradient
       inkscape:collect="always"
       xlink:href="#linearGradient3744"
       id="linearGradient3750"
       x1="9.0029192"
       y1="12.765087"
       x2="9.0029192"
       y2="5.4849768"
       gradientUnits="userSpaceOnUse"
       gradientTransform="translate(-6.3426653,-28.157392)" />
    <linearGradient
       y2="16"
       x2="10"
       y1="1"
       x1="10"
       gradientUnits="userSpaceOnUse"
       id="linearGradient3078"
       xlink:href="#linearGradient3823"
       inkscape:collect="always"
       gradientTransform="translate(1,-1)" />
    <linearGradient
       id="linearGradient3823">
      <stop
         id="stop3825"
         offset="0"
         style="stop-color:#ffffff;stop-opacity:1;" />
      <stop
         id="stop3829"
         offset="1"
         style="stop-color:#ffffff;stop-opacity:0;" />
    </linearGradient>
    <linearGradient
       inkscape:collect="always"
       xlink:href="#linearGradient3831"
       id="linearGradient3845"
       x1="11"
       y1="19.5"
       x2="21"
       y2="19.5"
       gradientUnits="userSpaceOnUse"
       spreadMethod="reflect"
       gradientTransform="translate(1,-1)" />
    <linearGradient
       id="linearGradient3831">
      <stop
         style="stop-color:#ffffff;stop-opacity:1;"
         offset="0"
         id="stop3833" />
      <stop
         id="stop3821"
         offset="0.75"
         style="stop-color:#ffffff;stop-opacity:0.49803922;" />
      <stop
         style="stop-color:#ffffff;stop-opacity:0;"
         offset="1"
         id="stop3835" />
    </linearGradient>
    <linearGradient
       y2="16"
       x2="10"
       y1="1"
       x1="10"
       gradientTransform="translate(1,-1)"
       gradientUnits="userSpaceOnUse"
       id="linearGradient3892"
       xlink:href="#linearGradient3823"
       inkscape:collect="always" />
    <linearGradient
       inkscape:collect="always"
       xlink:href="#linearGradient3700-8"
       id="linearGradient3926-8"
       gradientUnits="userSpaceOnUse"
       x1="48"
       y1="90"
       x2="48"
       y2="5.9877172" />
    <linearGradient
       id="linearGradient3700-8">
      <stop
         style="stop-color:#1f1f1f;stop-opacity:1;"
         offset="0"
         id="stop3702-5" />
      <stop
         style="stop-color:#2f2f2f;stop-opacity:1;"
         offset="1"
         id="stop3704-0" />
    </linearGradient>
    <radialGradient
       inkscape:collect="always"
       xlink:href="#linearGradient3674-9"
       id="radialGradient3682-9"
       cx="48"
       cy="48"
       fx="48"
       fy="48"
       r="32"
       gradientUnits="userSpaceOnUse" />
    <linearGradient
       id="linearGradient3674-9">
      <stop
         style="stop-color:#ffffff;stop-opacity:1;"
         offset="0"
         id="stop3676-6" />
      <stop
         id="stop3684-0"
         offset="0.30000001"
         style="stop-color:#ffffff;stop-opacity:1;" />
      <stop
         style="stop-color:#f0f0f0;stop-opacity:1;"
         offset="0.89999998"
         id="stop3925" />
      <stop
         style="stop-color:#d2d2d2;stop-opacity:1;"
         offset="1"
         id="stop3678-6" />
    </linearGradient>
    <radialGradient
       inkscape:collect="always"
       xlink:href="#linearGradient3674-8"
       id="radialGradient3979"
       cx="48"
       cy="60"
       fx="48"
       fy="60"
       r="5"
       gradientUnits="userSpaceOnUse" />
    <linearGradient
       id="linearGradient3674-8">
      <stop
         style="stop-color:#ffffff;stop-opacity:1;"
         offset="0"
         id="stop3676-1" />
      <stop
         id="stop3684-6"
         offset="0.30000001"
         style="stop-color:#ffffff;stop-opacity:1;" />
      <stop
         style="stop-color:#f0f0f0;stop-opacity:1;"
         offset="0.89999998"
         id="stop3925-3" />
      <stop
         style="stop-color:#d2d2d2;stop-opacity:1;"
         offset="1"
         id="stop3678-9" />
    </linearGradient>
    <linearGradient
       inkscape:collect="always"
       xlink:href="#linearGradient3327"
       id="linearGradient3923"
       x1="43"
       y1="60"
       x2="53"
       y2="60"
       gradientUnits="userSpaceOnUse" />
    <linearGradient
       y2="5.9877172"
       x2="48"
       y1="90"
       x1="48"
       gradientUnits="userSpaceOnUse"
       id="linearGradient3138"
       xlink:href="#linearGradient3893"
       inkscape:collect="always"
       gradientTransform="translate(0,-96)" />
    <linearGradient
       id="linearGradient3893">
      <stop
         style="stop-color:#e1e1e1;stop-opacity:1;"
         offset="0"
         id="stop3895" />
      <stop
         style="stop-color:#a2a2a2;stop-opacity:1;"
         offset="1"
         id="stop3897" />
    </linearGradient>
    <radialGradient
       inkscape:collect="always"
       xlink:href="#linearGradient3674-92"
       id="radialGradient3682-1"
       cx="48"
       cy="48"
       fx="48"
       fy="48"
       r="32"
       gradientUnits="userSpaceOnUse" />
    <linearGradient
       id="linearGradient3674-92">
      <stop
         style="stop-color:#444444;stop-opacity:1;"
         offset="0"
         id="stop3676-3" />
      <stop
         style="stop-color:#222222;stop-opacity:1;"
         offset="0.89999998"
         id="stop3925-30" />
      <stop
         style="stop-color:#000000;stop-opacity:1;"
         offset="1"
         id="stop3678-2" />
    </linearGradient>
    <radialGradient
       r="32"
       fy="48"
       fx="48"
       cy="48"
       cx="48"
       gradientUnits="userSpaceOnUse"
       id="radialGradient4027"
       xlink:href="#linearGradient3674-92"
       inkscape:collect="always" />
    <radialGradient
       inkscape:collect="always"
       xlink:href="#linearGradient3823"
       id="radialGradient3895"
       gradientUnits="userSpaceOnUse"
       cx="60"
       cy="48"
       fx="60"
       fy="48"
       r="32"
       gradientTransform="matrix(0.875,0,0,0.875,7.5,6)" />
  </defs>
  <sodipodi:namedview
     id="base"
     pagecolor="#ffffff"
     bordercolor="#e7e7e7"
     borderopacity="1"
     inkscape:pageopacity="0.0"
     inkscape:pageshadow="2"
     inkscape:zoom="15.483712"
     inkscape:cx="5.5325515"
     inkscape:cy="9.4625399"
     inkscape:document-units="px"
     inkscape:current-layer="layer3"
     showgrid="true"
     inkscape:showpageshadow="false"
     showguides="false"
     inkscape:guide-bbox="true"
     inkscape:window-width="1920"
     inkscape:window-height="1029"
     inkscape:window-x="0"
     inkscape:window-y="24"
     inkscape:window-maximized="1">
    <sodipodi:guide
       orientation="1,0"
       position="0,112"
       id="guide2383" />
    <sodipodi:guide
       orientation="0,1"
       position="26.278146,128"
       id="guide2385" />
    <sodipodi:guide
       orientation="1,0"
       position="128,54.082119"
       id="guide2387" />
    <sodipodi:guide
       orientation="0,1"
       position="78.156291,0"
       id="guide2389" />
    <sodipodi:guide
       orientation="0,1"
       position="60.863576,64.084768"
       id="guide2391" />
    <inkscape:grid
       type="xygrid"
       id="grid3672"
       visible="true"
       enabled="true"
       empspacing="8"
       snapvisiblegridlinesonly="true" />
  </sodipodi:namedview>
  <metadata
     id="metadata7">
    <rdf:RDF>
      <cc:Work
         rdf:about="">
        <dc:format>image/svg+xml</dc:format>
        <dc:type
           rdf:resource="http://purl.org/dc/dcmitype/StillImage" />
        <dc:title />
      </cc:Work>
    </rdf:RDF>
  </metadata>
  <g
     inkscape:label="Button"
     inkscape:groupmode="layer"
     id="layer1"
     transform="translate(0,2)">
    <g
       style="display:inline"
       id="g3337"
       transform="translate(1,-1)">
      <rect
         ry="2.5"
         rx="2.5"
         y="0.5"
         x="0.5"
         height="21.5"
         width="21"
         id="rect3371"
         style="opacity:0.3;fill:url(#linearGradient3335);fill-opacity:1;stroke:none;display:inline" />
      <rect
         style="opacity:0.5;fill:#000000;fill-opacity:1;stroke:none;display:inline"
         id="rect2553"
         width="20"
         height="20"
         x="1"
         y="2"
         rx="2.3809524"
         ry="2.3255813" />
    </g>
    <rect
       style="fill:url(#linearGradient3181);fill-opacity:1;fill-rule:evenodd;stroke:none;display:inline"
       id="rect3173"
       width="20"
       height="20"
       x="2"
       y="-20"
       rx="2"
       ry="2"
       transform="scale(1,-1)" />
  </g>
  <g
     inkscape:groupmode="layer"
     id="layer2"
     inkscape:label="Highlight"
     transform="translate(0,2)"
     sodipodi:insensitive="true">
    <rect
       style="opacity:0.15;fill:#ffffff;fill-opacity:1;fill-rule:nonzero;stroke:none;display:inline;filter:url(#filter3194)"
       id="rect2410"
       width="16"
       height="16"
       x="3"
       y="3"
       rx="2"
       ry="2"
       clip-path="url(#clipPath2849)"
       transform="translate(1,-1)" />
  </g>
  <g
     inkscape:groupmode="layer"
     id="layer3"
     inkscape:label="Clock"
     transform="translate(0,2)">
    <path
       transform="matrix(0,0.28125,-0.28125,0,25.5,-3.5)"
       d="M 80,48 C 80,65.673112 65.673112,80 48,80 30.326888,80 16,65.673112 16,48 16,30.326888 30.326888,16 48,16 65.673112,16 80,30.326888 80,48 z"
       sodipodi:ry="32"
       sodipodi:rx="32"
       sodipodi:cy="48"
       sodipodi:cx="48"
       id="path3680"
       style="color:#000000;fill:#ffffff;fill-opacity:1;fill-rule:nonzero;stroke:none;stroke-width:1;marker:none;visibility:visible;display:inline;overflow:visible;enable-background:accumulate;opacity:0.20000000000000001"
       sodipodi:type="arc" />
    <path
       sodipodi:type="arc"
       style="color:#000000;fill:url(#radialGradient3985);fill-opacity:1.0;fill-rule:nonzero;stroke:none;stroke-width:1;marker:none;visibility:visible;display:inline;overflow:visible;enable-background:accumulate"
       id="path3647"
       sodipodi:cx="48"
       sodipodi:cy="48"
       sodipodi:rx="32"
       sodipodi:ry="32"
       d="M 80,48 C 80,65.673112 65.673112,80 48,80 30.326888,80 16,65.673112 16,48 16,30.326888 30.326888,16 48,16 65.673112,16 80,30.326888 80,48 z"
       transform="matrix(0,0.25,-0.25,0,24,-2)" />
    <path
       transform="matrix(0,0.25,-0.25,0,24,-2)"
       d="M 80,48 C 80,65.673112 65.673112,80 48,80 30.326888,80 16,65.673112 16,48 16,30.326888 30.326888,16 48,16 65.673112,16 80,30.326888 80,48 z"
       sodipodi:ry="32"
       sodipodi:rx="32"
       sodipodi:cy="48"
       sodipodi:cx="48"
       id="path3893"
       style="color:#000000;fill:url(#radialGradient3895);fill-opacity:1;fill-rule:nonzero;stroke:none;stroke-width:1;marker:none;visibility:visible;display:inline;overflow:visible;enable-background:accumulate;opacity:0.20000000000000001"
       sodipodi:type="arc" />
    <path
       sodipodi:type="arc"
       style="opacity:0.6;color:#000000;fill:#ffffff;fill-opacity:1;fill-rule:nonzero;stroke:none;stroke-width:1;marker:none;visibility:visible;display:inline;overflow:visible;enable-background:accumulate"
       id="path3692"
       sodipodi:cx="11.5"
       sodipodi:cy="5.5"
       sodipodi:rx="0.5"
       sodipodi:ry="0.5"
       d="M 12,5.5 C 12,5.7761424 11.776142,6 11.5,6 11.223858,6 11,5.7761424 11,5.5 11,5.2238576 11.223858,5 11.5,5 11.776142,5 12,5.2238576 12,5.5 z"
       transform="translate(0,-2)"
       inkscape:transform-center-x="0.5"
       inkscape:transform-center-y="-6.5" />
    <path
       style="opacity:0.35;color:#000000;fill:#ffffff;fill-opacity:1;fill-rule:nonzero;stroke:none;stroke-width:1;marker:none;visibility:visible;display:inline;overflow:visible;enable-background:accumulate"
       d="M 14.6875 5.625 C 14.563899 5.6581188 14.444036 5.7554268 14.375 5.875 C 14.236929 6.1141463 14.323354 6.4244288 14.5625 6.5625 C 14.801646 6.7005712 15.111929 6.6141463 15.25 6.375 C 15.388071 6.1358537 15.301646 5.8255712 15.0625 5.6875 C 14.942927 5.6184644 14.811101 5.5918812 14.6875 5.625 z M 8.25 6.125 C 8.1855444 6.132998 8.1222866 6.1529822 8.0625 6.1875 C 7.8233537 6.3255712 7.7369288 6.6358537 7.875 6.875 C 8.0130712 7.1141463 8.3233537 7.2005712 8.5625 7.0625 C 8.8016463 6.9244288 8.8880712 6.6141463 8.75 6.375 C 8.6464466 6.1956403 8.4433668 6.1010061 8.25 6.125 z M 17.3125 7.8125 C 17.248044 7.820498 17.184787 7.8404822 17.125 7.875 C 16.885854 8.0130712 16.799429 8.3233537 16.9375 8.5625 C 17.075571 8.8016463 17.385854 8.8880712 17.625 8.75 C 17.864146 8.6119288 17.950571 8.3016463 17.8125 8.0625 C 17.708947 7.8831403 17.505867 7.7885061 17.3125 7.8125 z M 6 8.6875 C 5.876399 8.7206188 5.7565356 8.8179268 5.6875 8.9375 C 5.5494288 9.1766463 5.6358537 9.4869288 5.875 9.625 C 6.1141463 9.7630712 6.4244288 9.6766463 6.5625 9.4375 C 6.7005712 9.1983537 6.6141463 8.8880712 6.375 8.75 C 6.2554268 8.6809644 6.123601 8.6543812 6 8.6875 z M 17.9375 14.3125 C 17.744133 14.288506 17.541053 14.38314 17.4375 14.5625 C 17.299429 14.801646 17.385854 15.111929 17.625 15.25 C 17.864146 15.388071 18.174429 15.301646 18.3125 15.0625 C 18.450571 14.823354 18.364146 14.513071 18.125 14.375 C 18.065213 14.340482 18.001956 14.320498 17.9375 14.3125 z M 6.5625 15.1875 C 6.4980444 15.195498 6.4347866 15.215482 6.375 15.25 C 6.1358537 15.388071 6.0494288 15.698354 6.1875 15.9375 C 6.3255712 16.176646 6.6358537 16.263071 6.875 16.125 C 7.1141463 15.986929 7.2005712 15.676646 7.0625 15.4375 C 6.9589466 15.25814 6.7558668 15.163506 6.5625 15.1875 z M 15.625 16.875 C 15.560544 16.882998 15.497287 16.902982 15.4375 16.9375 C 15.198354 17.075571 15.111929 17.385854 15.25 17.625 C 15.388071 17.864146 15.698354 17.950571 15.9375 17.8125 C 16.176646 17.674429 16.263071 17.364146 16.125 17.125 C 16.021447 16.94564 15.818367 16.851006 15.625 16.875 z M 9.25 17.375 C 9.0566332 17.351006 8.8535534 17.44564 8.75 17.625 C 8.6119288 17.864146 8.6983537 18.174429 8.9375 18.3125 C 9.1766463 18.450571 9.4869288 18.364146 9.625 18.125 C 9.7630712 17.885854 9.6766463 17.575571 9.4375 17.4375 C 9.3777134 17.402982 9.3144556 17.382998 9.25 17.375 z "
       transform="translate(0,-2)"
       id="path3694" />
    <path
       inkscape:transform-center-y="-0.4999999"
       inkscape:transform-center-x="-6.5"
       transform="matrix(0,1,-1,0,24,-1.9999999)"
       d="M 12,5.5 C 12,5.7761424 11.776142,6 11.5,6 11.223858,6 11,5.7761424 11,5.5 11,5.2238576 11.223858,5 11.5,5 11.776142,5 12,5.2238576 12,5.5 z"
       sodipodi:ry="0.5"
       sodipodi:rx="0.5"
       sodipodi:cy="5.5"
       sodipodi:cx="11.5"
       id="path3698"
       style="opacity:0.6;color:#000000;fill:#ffffff;fill-opacity:1;fill-rule:nonzero;stroke:none;stroke-width:1;marker:none;visibility:visible;display:inline;overflow:visible;enable-background:accumulate"
       sodipodi:type="arc" />
    <path
       sodipodi:type="arc"
       style="opacity:0.6;color:#000000;fill:#ffffff;fill-opacity:1;fill-rule:nonzero;stroke:none;stroke-width:1;marker:none;visibility:visible;display:inline;overflow:visible;enable-background:accumulate"
       id="path3704"
       sodipodi:cx="11.5"
       sodipodi:cy="5.5"
       sodipodi:rx="0.5"
       sodipodi:ry="0.5"
       d="M 12,5.5 C 12,5.7761424 11.776142,6 11.5,6 11.223858,6 11,5.7761424 11,5.5 11,5.2238576 11.223858,5 11.5,5 11.776142,5 12,5.2238576 12,5.5 z"
       transform="matrix(-1,0,0,-1,24,22)"
       inkscape:transform-center-x="-0.5"
       inkscape:transform-center-y="6.5" />
    <path
       inkscape:transform-center-y="0.5"
       inkscape:transform-center-x="6.5"
       transform="matrix(0,-1,1,0,-3.7964328e-8,22)"
       d="M 12,5.5 C 12,5.7761424 11.776142,6 11.5,6 11.223858,6 11,5.7761424 11,5.5 11,5.2238576 11.223858,5 11.5,5 11.776142,5 12,5.2238576 12,5.5 z"
       sodipodi:ry="0.5"
       sodipodi:rx="0.5"
       sodipodi:cy="5.5"
       sodipodi:cx="11.5"
       id="path3710"
       style="opacity:0.6;color:#000000;fill:#ffffff;fill-opacity:1;fill-rule:nonzero;stroke:none;stroke-width:1;marker:none;visibility:visible;display:inline;overflow:visible;enable-background:accumulate"
       sodipodi:type="arc" />
    <path
       sodipodi:type="arc"
       style="opacity:1;color:#000000;fill:#000000;fill-opacity:1;fill-rule:nonzero;stroke:none;stroke-width:1;marker:none;visibility:visible;display:inline;overflow:visible;enable-background:accumulate"
       id="path3716"
       sodipodi:cx="12"
       sodipodi:cy="12"
       sodipodi:rx="1"
       sodipodi:ry="1"
       d="m 13,12 c 0,0.552285 -0.447715,1 -1,1 -0.552285,0 -1,-0.447715 -1,-1 0,-0.552285 0.447715,-1 1,-1 0.552285,0 1,0.447715 1,1 z"
       transform="translate(0,-2)" />
    <rect
       style="color:#000000;fill:url(#linearGradient3738);fill-opacity:1;fill-rule:nonzero;stroke:none;stroke-width:1;marker:none;visibility:visible;display:inline;overflow:visible;enable-background:accumulate"
       id="rect3718"
       width="1"
       height="5"
       x="-3.160254"
       y="10.392304"
       inkscape:transform-center-y="-1.2500003"
       transform="matrix(0.5,-0.8660254,0.8660254,0.5,0,0)"
       inkscape:transform-center-x="2.1650639" />
    <rect
       y="-8.4142132"
       x="15.056349"
       height="7"
       width="1"
       id="rect3720"
       style="color:#000000;fill:url(#linearGradient3730);fill-opacity:1;fill-rule:nonzero;stroke:none;stroke-width:1;marker:none;visibility:visible;display:inline;overflow:visible;enable-background:accumulate"
       inkscape:transform-center-y="-2.4748737"
       transform="matrix(0.70710678,0.70710678,-0.70710678,0.70710678,0,0)"
       inkscape:transform-center-x="-2.4748732" />
    <rect
       inkscape:transform-center-x="-3.0310895"
       transform="matrix(-0.5,0.86602541,-0.86602541,-0.5,0,0)"
       inkscape:transform-center-y="1.7500003"
       style="color:#000000;fill:url(#linearGradient3750);fill-opacity:1;fill-rule:nonzero;stroke:none;stroke-width:1;marker:none;visibility:visible;display:inline;overflow:visible;enable-background:accumulate"
       id="rect3740"
       width="1"
       height="7"
       x="2.160254"
       y="-22.392305" />
    <path
       style="opacity:0.4;fill:url(#linearGradient3892);fill-opacity:1;fill-rule:evenodd;stroke:none;display:inline"
       d="M 4,0 C 2.892,0 2,0.892 2,2 l 0,16 c 0,1.108 0.892,2 2,2 l 16,0 c 1.108,0 2,-0.892 2,-2 L 22,2 C 22,0.892 21.108,0 20,0 L 4,0 z m 0,1.03125 16,0 c 0.5497,0 0.96875,0.4190495 0.96875,0.96875 l 0,16 c 0,0.5497 -0.41905,0.96875 -0.96875,0.96875 l -16,0 C 3.4502995,18.96875 3.03125,18.5497 3.03125,18 l 0,-16 C 3.03125,1.4502995 3.4502995,1.03125 4,1.03125 z"
       id="rect3050"
       inkscape:connector-curvature="0" />
    <path
       id="path3235"
       d="M 4,20 C 2.892,20 2,19.108 2,18 l 0,-1 c 0,1.108 0.892,2 2,2 l 16,0 c 1.108,0 2,-0.892 2,-2 l 0,1 c 0,1.108 -0.892,2 -2,2 L 4,20 z"
       style="opacity:0.15;fill:url(#linearGradient3845);fill-opacity:1;fill-rule:evenodd;stroke:none;display:inline"
       inkscape:connector-curvature="0" />
    <path
       transform="matrix(0,0.3,0.3,0,-6,-1.4)"
       d="m 53,60 c 0,2.761424 -2.238576,5 -5,5 -2.761424,0 -5,-2.238576 -5,-5 0,-2.761424 2.238576,-5 5,-5 2.761424,0 5,2.238576 5,5 z"
       sodipodi:ry="5"
       sodipodi:rx="5"
       sodipodi:cy="60"
       sodipodi:cx="48"
       id="path3975"
       style="opacity:0.4;color:#000000;fill:url(#linearGradient3923);fill-opacity:1;fill-rule:nonzero;stroke:none;stroke-width:1.50000000000000000;marker:none;visibility:visible;display:inline;overflow:visible;enable-background:accumulate"
       sodipodi:type="arc" />
  </g>
</svg>
