<?xml version="1.0" encoding="UTF-8" standalone="no"?>
<svg
   xmlns:dc="http://purl.org/dc/elements/1.1/"
   xmlns:cc="http://creativecommons.org/ns#"
   xmlns:rdf="http://www.w3.org/1999/02/22-rdf-syntax-ns#"
   xmlns:svg="http://www.w3.org/2000/svg"
   xmlns="http://www.w3.org/2000/svg"
   xmlns:sodipodi="http://sodipodi.sourceforge.net/DTD/sodipodi-0.dtd"
   xmlns:inkscape="http://www.inkscape.org/namespaces/inkscape"
   id="svg2"
   width="24"
   height="24"
   version="1.0"
   sodipodi:docname="tor-browser.svg"
   inkscape:version="0.92.2 5c3e80d, 2017-08-06">
  <metadata
     id="metadata49">
    <rdf:RDF>
      <cc:Work
         rdf:about="">
        <dc:format>image/svg+xml</dc:format>
        <dc:type
           rdf:resource="http://purl.org/dc/dcmitype/StillImage" />
      </cc:Work>
    </rdf:RDF>
  </metadata>
  <sodipodi:namedview
     pagecolor="#ffffff"
     bordercolor="#666666"
     borderopacity="1"
     objecttolerance="10"
     gridtolerance="10"
     guidetolerance="10"
     inkscape:pageopacity="0"
     inkscape:pageshadow="2"
     inkscape:window-width="640"
     inkscape:window-height="480"
     id="namedview47"
     showgrid="false"
     inkscape:zoom="9.8333333"
     inkscape:cx="12"
     inkscape:cy="12"
     inkscape:window-x="0"
     inkscape:window-y="25"
     inkscape:window-maximized="0"
     inkscape:current-layer="svg2" />
  <defs
     id="defs4">
    <linearGradient
       id="linearGradient3335"
       x1="11.375"
       x2="11.375"
       y1="22"
       y2="-9.8173"
       gradientUnits="userSpaceOnUse">
      <stop
         id="stop3330"
         offset="0" />
      <stop
         id="stop3333"
         stop-opacity="0"
         offset="1" />
    </linearGradient>
    <linearGradient
       id="linearGradient3181"
       x1="-3.0608"
       x2="-3.0608"
       y1="27.258"
       y2="7.2537"
       gradientTransform="translate(12.119 -7.2582)"
       gradientUnits="userSpaceOnUse">
      <stop
         id="stop3189"
         stop-color="#572584"
         offset="0" />
      <stop
         id="stop3191"
         stop-color="#c171e8"
         offset="1" />
    </linearGradient>
    <filter
       id="filter3194"
       x="-.18"
       y="-.18"
       width="1.36"
       height="1.36"
       color-interpolation-filters="sRGB">
      <feGaussianBlur
         id="feGaussianBlur3196"
         stdDeviation="1.2" />
    </filter>
    <clipPath
       id="clipPath2849">
      <rect
         id="rect2851"
         x="1"
         y="1"
         width="20"
         height="20"
         rx="2"
         ry="2"
         fill="#fff"
         fill-rule="evenodd" />
    </clipPath>
    <linearGradient
       id="linearGradient3845"
       x1="11"
       x2="21"
       y1="19.5"
       y2="19.5"
       gradientTransform="translate(1,-1)"
       gradientUnits="userSpaceOnUse"
       spreadMethod="reflect">
      <stop
         id="stop3833"
         stop-color="#fff"
         offset="0" />
      <stop
         id="stop3821"
         stop-color="#fff"
         stop-opacity=".49804"
         offset=".75" />
      <stop
         id="stop3835"
         stop-color="#fff"
         stop-opacity="0"
         offset="1" />
    </linearGradient>
    <linearGradient
       id="linearGradient3961"
       x1="10"
       x2="10"
       y1="1"
       y2="16"
       gradientTransform="translate(1,-1)"
       gradientUnits="userSpaceOnUse">
      <stop
         id="stop3825"
         stop-color="#fff"
         offset="0" />
      <stop
         id="stop3829"
         stop-color="#fff"
         stop-opacity="0"
         offset="1" />
    </linearGradient>
  </defs>
  <g
     id="layer1"
     transform="translate(0,2)">
    <g
       id="g3337"
       transform="translate(1,-1)">
      <rect
         id="rect3371"
         x=".5"
         y=".5"
         width="21"
         height="21.5"
         rx="2.5"
         ry="2.5"
         fill="url(#linearGradient3335)"
         opacity=".3" />
      <rect
         id="rect2553"
         x="1"
         y="2"
         width="20"
         height="20"
         rx="2.381"
         ry="2.3256"
         opacity=".5" />
    </g>
    <rect
       id="rect3173"
       x="2"
       width="20"
       height="20"
       rx="2"
       ry="2"
       fill="url(#linearGradient3181)"
       fill-rule="evenodd" />
    <path
       id="rect3050"
       d="m4 0c-1.108 0-2 0.892-2 2v16c0 1.108 0.892 2 2 2h16c1.108 0 2-0.892 2-2v-16c0-1.108-0.892-2-2-2h-16zm0 1.0312h16c0.5497 0 0.96875 0.41905 0.96875 0.96875v16c0 0.5497-0.41905 0.96875-0.96875 0.96875h-16c-0.5497 0-0.96875-0.41905-0.96875-0.96875v-16c0-0.5497 0.41905-0.96875 0.96875-0.96875z"
       fill="url(#linearGradient3961)"
       fill-rule="evenodd"
       opacity=".35" />
    <path
       id="path3235"
       d="m4 20c-1.108 0-2-0.892-2-2v-1c0 1.108 0.892 2 2 2h16c1.108 0 2-0.892 2-2v1c0 1.108-0.892 2-2 2h-16z"
       fill="url(#linearGradient3845)"
       fill-rule="evenodd"
       opacity=".2" />
  </g>
  <g
     id="layer2"
     transform="translate(0,2)">
    <rect
       id="rect2410"
       transform="translate(1,-1)"
       x="3"
       y="3"
       width="16"
       height="16"
       rx="2"
       ry="2"
       clip-path="url(#clipPath2849)"
       fill="#fff"
       filter="url(#filter3194)"
       opacity=".15" />
  </g>
  <defs
     id="defs37">
    <filter
       id="w">
      <feGaussianBlur
         stdDeviation="0.20998568"
         id="feGaussianBlur29" />
    </filter>
    <linearGradient
       id="a"
       gradientUnits="userSpaceOnUse"
       x1="8"
       y1="1"
       x2="8"
       y2="15.0001">
      <stop
         stop-color="#fafafa"
         offset="0"
         id="stop32" />
      <stop
         stop-color="#ebebeb"
         offset="1"
         id="stop34" />
    </linearGradient>
  </defs>
  <g
     id="main">
    <path
       style="opacity:0.3;fill:#000000"
       d="M 10.320312 6 C 10.34514 6.0598784 10.354195 6.1084004 10.373047 6.1640625 C 10.396561 6.1175913 10.423214 6.0734008 10.439453 6.0214844 L 10.320312 6 z M 11.132812 6.1464844 C 10.876383 6.4816492 10.609198 6.8231158 10.384766 7.140625 C 10.33348 7.2490216 10.255478 7.3356408 10.175781 7.421875 C 9.7384029 8.0559166 9.3617249 8.6570706 9.0390625 9.2285156 C 9.0001755 9.2914256 8.9673725 9.3549798 8.9296875 9.4179688 C 8.8794475 9.5093988 8.8226586 9.6035504 8.7753906 9.6933594 C 8.1783606 10.743559 7.7692781 11.794728 7.6425781 12.798828 C 7.5428838 13.371987 7.5363195 13.896195 7.5839844 14.390625 C 7.6007397 14.194875 7.6067748 14.004667 7.6425781 13.798828 C 7.7692781 12.794728 8.1783606 11.743559 8.7753906 10.693359 C 8.8226586 10.603549 8.8794475 10.509399 8.9296875 10.417969 C 8.9673725 10.354979 9.0001755 10.291426 9.0390625 10.228516 C 9.180815 9.9774677 9.3371324 9.7175987 9.5 9.4550781 C 10.045576 8.4912417 10.742954 7.4386175 11.660156 6.2597656 C 11.649729 6.3420485 11.629256 6.4219915 11.617188 6.5039062 C 11.66027 6.4501482 11.688506 6.40383 11.732422 6.3496094 C 11.733622 6.3183134 11.734328 6.2870304 11.736328 6.2558594 L 11.132812 6.1464844 z M 12.279297 6.3535156 C 12.432817 8.1340156 13.675009 10.020787 14.349609 12.179688 C 14.532473 12.764954 14.662006 13.374302 14.710938 14.005859 C 14.780284 13.01056 14.627079 12.067745 14.349609 11.179688 C 13.804146 9.4340593 12.89647 7.8681336 12.484375 6.390625 L 12.279297 6.3535156 z M 11.660156 7.2597656 C 11.574735 7.3695551 11.507761 7.4683454 11.425781 7.5761719 C 11.128916 8.9130043 10.685852 10.21407 10.363281 11.527344 C 10.351761 11.570454 10.341208 11.61323 10.330078 11.65625 C 10.306708 11.75407 10.277619 11.851219 10.255859 11.949219 C 10.237269 12.032919 10.224091 12.119195 10.207031 12.203125 C 10.169381 12.377985 10.135662 12.551669 10.107422 12.724609 C 10.102302 12.757009 10.100603 12.789826 10.095703 12.822266 C 10.061803 13.044986 10.024306 13.267488 10.009766 13.486328 C 10.00889 13.499528 10.010555 13.512221 10.009766 13.525391 C 10.009608 13.527991 10.00992 13.530603 10.009766 13.533203 C 9.9766859 13.953244 9.975347 14.377013 10.007812 14.804688 C 10.012196 14.714604 10.002697 14.622959 10.009766 14.533203 C 10.00992 14.530603 10.009608 14.527991 10.009766 14.525391 C 10.010555 14.512221 10.00889 14.499528 10.009766 14.486328 C 10.024306 14.267488 10.061803 14.044986 10.095703 13.822266 C 10.100603 13.789826 10.102302 13.757009 10.107422 13.724609 C 10.135662 13.551669 10.169381 13.377985 10.207031 13.203125 C 10.224091 13.119195 10.237269 13.032919 10.255859 12.949219 C 10.277619 12.851219 10.306708 12.75407 10.330078 12.65625 C 10.341208 12.61323 10.351761 12.570454 10.363281 12.527344 C 10.790691 10.787244 11.430856 9.0691656 11.660156 7.2597656 z M 5.0351562 13.501953 C 5.0133874 13.668796 5 13.838934 5 14.011719 C 5 16.821519 6.5166375 19.8882 11.210938 20 C 10.590348 19.639446 9.9995129 19.243067 9.4765625 18.794922 C 6.361235 18.105905 5.1812921 15.783309 5.0351562 13.501953 z M 18.964844 13.644531 C 18.628054 16.325969 15.93304 18.451201 13.232422 18.894531 C 13.212174 18.921066 13.19844 18.950219 13.177734 18.976562 C 13.144574 19.022243 13.112515 19.067411 13.078125 19.113281 C 13.037165 19.162791 12.995775 19.211046 12.953125 19.259766 C 12.767985 19.498566 12.567776 19.740385 12.347656 19.984375 C 15.638084 19.910219 19.297246 17.088402 18.964844 13.644531 z M 14.224609 14.039062 C 14.121961 15.423338 13.528294 16.915728 12.015625 18.603516 C 11.833775 18.361336 11.682539 18.123389 11.537109 17.886719 C 11.372229 17.583899 11.200931 17.283534 11.056641 16.964844 C 10.967081 16.767014 10.886847 16.551361 10.810547 16.332031 C 10.794847 16.284101 10.774216 16.23528 10.759766 16.1875 C 10.731846 16.10189 10.711037 16.009945 10.685547 15.921875 C 10.58116 15.514538 10.532457 15.113057 10.505859 14.712891 C 10.457893 15.442745 10.493973 16.17432 10.685547 16.921875 C 10.711037 17.009945 10.731846 17.10189 10.759766 17.1875 C 10.774216 17.23528 10.794847 17.284101 10.810547 17.332031 C 10.886847 17.551361 10.967081 17.767014 11.056641 17.964844 C 11.200931 18.283534 11.372229 18.583899 11.537109 18.886719 C 11.682539 19.123389 11.833775 19.361336 12.015625 19.603516 C 12.209479 19.38722 12.360458 19.178872 12.525391 18.96875 C 12.466368 18.971817 12.406459 18.98305 12.347656 18.984375 C 12.567776 18.740385 12.767985 18.498566 12.953125 18.259766 C 12.995775 18.211046 13.037165 18.162791 13.078125 18.113281 C 13.112515 18.067411 13.144574 18.022243 13.177734 17.976562 C 13.309023 17.809527 13.412373 17.631355 13.525391 17.457031 C 14.152418 16.232884 14.320391 15.106044 14.224609 14.039062 z M 8.0800781 14.375 C 8.0358142 14.834221 8.0373189 15.263425 8.1035156 15.650391 C 8.1286366 15.797231 8.1716755 15.935629 8.2109375 16.074219 C 8.3363912 16.41077 8.5287048 16.741448 8.7558594 17.076172 C 9.3421462 17.753182 10.09727 18.309045 10.910156 18.804688 C 10.75118 18.514551 10.621924 18.227136 10.507812 17.941406 C 10.500221 17.936066 10.491967 17.93112 10.484375 17.925781 C 9.257575 16.886381 8.5566675 16.001699 8.2109375 15.074219 C 8.1716755 14.935629 8.1286366 14.797231 8.1035156 14.650391 C 8.0886 14.563198 8.0897372 14.465703 8.0800781 14.375 z M 10.529297 18.955078 C 10.785556 19.135332 11.041188 19.316511 11.320312 19.482422 C 11.209358 19.316818 11.112823 19.152384 11.017578 18.988281 C 10.851035 18.981199 10.687664 18.969623 10.529297 18.955078 z "
       id="path39" />
    <path
       d="m6.3205 1c0.49192 1.1864-0.22485 1.5217-0.73245 1.9369-1.9989 1.5423-4.5881 3.4644-4.5881 6.0746 0 2.8098 1.5169 5.8768 6.2112 5.9886-1.7324-1.0065-3.2602-2.2686-3.6017-4.2647-0.10019-0.58568-0.08944-1.2318 0.033204-1.9369 0.1267-1.0041 0.53587-2.0555 1.1329-3.1057 0.047268-0.089809 0.10406-0.18415 0.1543-0.27558 0.037685-0.062989 0.070493-0.12668 0.10938-0.18959 0.65476-1.1596 1.5262-2.4365 2.6935-3.8777 0.00119-0.031296 0.00189-0.062644 0.00391-0.093815zm1.9591 0.35376c0.15352 1.7805 1.3958 3.6674 2.0704 5.8263 0.47023 1.505 0.60439 3.1612-0.14649 4.9781-0.23985 0.63805-0.57943 1.2503-1.0254 1.8177-0.03316 0.04568-0.065215 0.09094-0.099613 0.13681-0.040961 0.04951-0.082346 0.09787-0.125 0.14659-0.18514 0.2388-0.38537 0.48113-0.60549 0.72512 3.9584-0.089212 8.4705-4.1513 5.8967-8.4942-0.7298-1.2457-2.3865-2.1807-4.3537-3.3226-0.44406-0.23716-1.0185-1.2794-0.95511-1.6945zm-0.61916 0.90688c-3.0203 3.8819-3.875 6.5305-3.5568 8.3906 0.025121 0.14684 0.068168 0.28358 0.10743 0.42217 0.34573 0.92748 1.0467 1.8122 2.2735 2.8516 0.27067 0.19036 0.5411 0.38176 0.83597 0.55703-1.1534-1.7215-1.4357-3.3603-1.3106-4.9488 1.542e-4 -0.00263-1.577e-4 -0.00518 0-0.00782 7.886e-4 -0.013174-8.765e-4 -0.025894 0-0.039089 0.014535-0.21884 0.052037-0.44181 0.085941-0.66453 0.00488-0.032441 0.00656-0.065323 0.011719-0.097724 0.028238-0.17294 0.06196-0.34699 0.099613-0.52185 0.017064-0.083932 0.030243-0.16843 0.04883-0.25213 0.021764-0.098004 0.050848-0.19535 0.074221-0.29317 0.011131-0.043022 0.021677-0.085892 0.033204-0.129 0.42741-1.7401 1.0676-3.4579 1.2969-5.2673zm0.42384 0.61566c-0.30828 1.8263-0.97075 3.5211-1.3399 5.1833-0.28631 1.2893-0.39454 2.5512-0.058596 3.8621 0.025492 0.08807 0.046296 0.1802 0.074221 0.26581 0.014447 0.04778 0.03508 0.0967 0.050783 0.14463 0.076301 0.21933 0.15654 0.43542 0.2461 0.63325 0.14429 0.31869 0.31561 0.61774 0.48049 0.92056 0.14543 0.23667 0.29668 0.47512 0.47853 0.7173 2.5456-2.8403 2.5246-5.1332 1.8555-7.2746-0.48242-1.544-1.323-2.9933-1.7872-4.4523z"
       fill="#fff"
       id="base"
       transform="translate(4,4)" />
  </g>
</svg>
