<?xml version="1.0" encoding="UTF-8" standalone="no"?>
<!-- Created with Inkscape (http://www.inkscape.org/) -->

<svg
   xmlns:dc="http://purl.org/dc/elements/1.1/"
   xmlns:cc="http://creativecommons.org/ns#"
   xmlns:rdf="http://www.w3.org/1999/02/22-rdf-syntax-ns#"
   xmlns:svg="http://www.w3.org/2000/svg"
   xmlns="http://www.w3.org/2000/svg"
   xmlns:xlink="http://www.w3.org/1999/xlink"
   xmlns:sodipodi="http://sodipodi.sourceforge.net/DTD/sodipodi-0.dtd"
   xmlns:inkscape="http://www.inkscape.org/namespaces/inkscape"
   width="24"
   height="24"
   id="svg2"
   sodipodi:version="0.32"
   inkscape:version="0.48.1 r9760"
   version="1.0"
   sodipodi:docname="user-trash-full.svg"
   inkscape:output_extension="org.inkscape.output.svg.inkscape"
   style="display:inline">
  <defs
     id="defs4">
    <linearGradient
       inkscape:collect="always"
       xlink:href="#linearGradient4368"
       id="linearGradient3669"
       gradientUnits="userSpaceOnUse"
       x1="60.413662"
       y1="106.16137"
       x2="46.921165"
       y2="110.65887" />
    <linearGradient
       inkscape:collect="always"
       xlink:href="#linearGradient4360"
       id="linearGradient3667"
       gradientUnits="userSpaceOnUse"
       x1="43.245415"
       y1="104.21532"
       x2="48.193569"
       y2="93.471298" />
    <linearGradient
       inkscape:collect="always"
       xlink:href="#linearGradient4360"
       id="linearGradient3665"
       gradientUnits="userSpaceOnUse"
       x1="66.740204"
       y1="63.588692"
       x2="75.281227"
       y2="80.814972" />
    <linearGradient
       inkscape:collect="always"
       xlink:href="#linearGradient4368"
       id="linearGradient3663"
       gradientUnits="userSpaceOnUse"
       x1="52.105541"
       y1="76.541229"
       x2="61.130371"
       y2="68.295815" />
    <linearGradient
       id="linearGradient4368">
      <stop
         style="stop-color:#828282;stop-opacity:1;"
         offset="0"
         id="stop4370" />
      <stop
         style="stop-color:#5a5a5a;stop-opacity:1;"
         offset="1"
         id="stop4372" />
    </linearGradient>
    <linearGradient
       inkscape:collect="always"
       xlink:href="#linearGradient4368"
       id="linearGradient3661"
       gradientUnits="userSpaceOnUse"
       x1="82.855774"
       y1="87.433334"
       x2="86.748848"
       y2="97.972473" />
    <linearGradient
       id="linearGradient4360">
      <stop
         style="stop-color:#6e6e6e;stop-opacity:1;"
         offset="0"
         id="stop4362" />
      <stop
         style="stop-color:#8c8c8c;stop-opacity:1;"
         offset="1"
         id="stop4364" />
    </linearGradient>
    <linearGradient
       inkscape:collect="always"
       xlink:href="#linearGradient4360"
       id="linearGradient3659"
       gradientUnits="userSpaceOnUse"
       x1="87.228699"
       y1="103.55167"
       x2="69.920662"
       y2="103.55167" />
    <linearGradient
       id="linearGradient7105">
      <stop
         style="stop-color:#515151;stop-opacity:1;"
         offset="0"
         id="stop7107" />
      <stop
         id="stop7113"
         offset="1"
         style="stop-color:#1b1b1b;stop-opacity:1;" />
    </linearGradient>
    <linearGradient
       id="linearGradient7097">
      <stop
         style="stop-color:#919191;stop-opacity:1;"
         offset="0"
         id="stop7099" />
      <stop
         style="stop-color:#ffffff;stop-opacity:1;"
         offset="1"
         id="stop7101" />
    </linearGradient>
    <linearGradient
       id="linearGradient7175">
      <stop
         id="stop7177"
         offset="0"
         style="stop-color:#000000;stop-opacity:1;" />
      <stop
         id="stop7179"
         offset="1"
         style="stop-color:#000000;stop-opacity:0;" />
    </linearGradient>
    <linearGradient
       id="linearGradient7155">
      <stop
         style="stop-color:#ffffff;stop-opacity:1;"
         offset="0"
         id="stop7157" />
      <stop
         style="stop-color:#ffffff;stop-opacity:0;"
         offset="1"
         id="stop7159" />
    </linearGradient>
    <linearGradient
       id="linearGradient3172">
      <stop
         style="stop-color:#a0a0a0;stop-opacity:1;"
         offset="0"
         id="stop3174" />
      <stop
         id="stop3188"
         offset="0.1362071"
         style="stop-color:#dcdcdc;stop-opacity:1;" />
      <stop
         id="stop3180"
         offset="0.3023597"
         style="stop-color:#f5f5f5;stop-opacity:1;" />
      <stop
         style="stop-color:#dcdcdc;stop-opacity:1;"
         offset="0.61225069"
         id="stop3190" />
      <stop
         style="stop-color:#b4b4b4;stop-opacity:1;"
         offset="1"
         id="stop3176" />
    </linearGradient>
    <linearGradient
       inkscape:collect="always"
       id="linearGradient3327">
      <stop
         style="stop-color:#000000;stop-opacity:1;"
         offset="0"
         id="stop3330" />
      <stop
         style="stop-color:#000000;stop-opacity:0;"
         offset="1"
         id="stop3333" />
    </linearGradient>
    <linearGradient
       inkscape:collect="always"
       xlink:href="#linearGradient3327"
       id="linearGradient3335"
       x1="11.375"
       y1="22"
       x2="11.375"
       y2="-9.817296"
       gradientUnits="userSpaceOnUse" />
    <linearGradient
       inkscape:collect="always"
       xlink:href="#linearGradient3172"
       id="linearGradient3181"
       x1="-3.0607977"
       y1="27.258198"
       x2="-3.0607977"
       y2="7.2536583"
       gradientUnits="userSpaceOnUse"
       gradientTransform="matrix(0,1,-1,0,29.258198,10.119372)" />
    <inkscape:perspective
       sodipodi:type="inkscape:persp3d"
       inkscape:vp_x="0 : 11 : 1"
       inkscape:vp_y="0 : 1000 : 0"
       inkscape:vp_z="22 : 11 : 1"
       inkscape:persp3d-origin="11 : 7.3333333 : 1"
       id="perspective2531" />
    <linearGradient
       id="ButtonShadow"
       gradientTransform="scale(0.9883037,1.0118347)"
       x1="9.3550024"
       y1="21.742682"
       x2="9.3550024"
       y2="0.49362123"
       gradientUnits="userSpaceOnUse">
      <stop
         id="stop3277"
         offset="0"
         style="stop-color:#000000;stop-opacity:0.70588237;" />
      <stop
         id="stop3279"
         offset="1"
         style="stop-color:#000000;stop-opacity:0.15686275;" />
    </linearGradient>
    <linearGradient
       inkscape:collect="always"
       id="linearGradient3232">
      <stop
         style="stop-color:#000000;stop-opacity:1;"
         offset="0"
         id="stop3234" />
      <stop
         style="stop-color:#000000;stop-opacity:0;"
         offset="1"
         id="stop3236" />
    </linearGradient>
    <linearGradient
       gradientUnits="userSpaceOnUse"
       y2="-6.0004225"
       x2="11"
       y1="14.805666"
       x1="11"
       id="linearGradient3221"
       xlink:href="#linearGradient3232"
       inkscape:collect="always" />
    <linearGradient
       id="ButtonColor"
       x1="10.31979"
       y1="21"
       x2="10.31979"
       y2="0.99929649"
       gradientUnits="userSpaceOnUse">
      <stop
         style="stop-color:#000000;stop-opacity:0.15294118;"
         offset="0"
         id="stop3189" />
      <stop
         style="stop-color:#ffffff;stop-opacity:0;"
         offset="1"
         id="stop3191" />
    </linearGradient>
    <linearGradient
       inkscape:collect="always"
       xlink:href="#ButtonShadow"
       id="linearGradient38042"
       gradientUnits="userSpaceOnUse"
       gradientTransform="scale(0.9883037,1.0118347)"
       x1="9.3550024"
       y1="21.742682"
       x2="9.3550024"
       y2="0.49362123" />
    <linearGradient
       inkscape:collect="always"
       xlink:href="#ButtonColor"
       id="linearGradient4303"
       gradientUnits="userSpaceOnUse"
       gradientTransform="translate(12.119372,-7.258198)"
       x1="-3.0607977"
       y1="27.258198"
       x2="-3.0607977"
       y2="7.2536583" />
    <linearGradient
       inkscape:collect="always"
       xlink:href="#linearGradient4360"
       id="linearGradient4457"
       gradientUnits="userSpaceOnUse"
       x1="87.228699"
       y1="103.55167"
       x2="69.920662"
       y2="103.55167" />
    <linearGradient
       inkscape:collect="always"
       xlink:href="#linearGradient4368"
       id="linearGradient4459"
       gradientUnits="userSpaceOnUse"
       x1="82.855774"
       y1="87.433334"
       x2="86.748848"
       y2="97.972473" />
    <linearGradient
       inkscape:collect="always"
       xlink:href="#linearGradient4368"
       id="linearGradient4461"
       gradientUnits="userSpaceOnUse"
       x1="52.105541"
       y1="76.541229"
       x2="61.130371"
       y2="68.295815" />
    <linearGradient
       inkscape:collect="always"
       xlink:href="#linearGradient4360"
       id="linearGradient4463"
       gradientUnits="userSpaceOnUse"
       x1="66.740204"
       y1="63.588692"
       x2="75.281227"
       y2="80.814972" />
    <linearGradient
       inkscape:collect="always"
       xlink:href="#linearGradient4360"
       id="linearGradient4465"
       gradientUnits="userSpaceOnUse"
       x1="43.245415"
       y1="104.21532"
       x2="48.193569"
       y2="93.471298" />
    <linearGradient
       inkscape:collect="always"
       xlink:href="#linearGradient4368"
       id="linearGradient4467"
       gradientUnits="userSpaceOnUse"
       x1="60.413662"
       y1="106.16137"
       x2="46.921165"
       y2="110.65887" />
    <linearGradient
       inkscape:collect="always"
       xlink:href="#linearGradient3831"
       id="linearGradient3845"
       x1="11"
       y1="19.5"
       x2="21"
       y2="19.5"
       gradientUnits="userSpaceOnUse"
       spreadMethod="reflect"
       gradientTransform="translate(1,-1)" />
    <linearGradient
       id="linearGradient3831">
      <stop
         style="stop-color:#ffffff;stop-opacity:1;"
         offset="0"
         id="stop3833" />
      <stop
         id="stop3821"
         offset="0.75"
         style="stop-color:#ffffff;stop-opacity:0.49803922;" />
      <stop
         style="stop-color:#ffffff;stop-opacity:0;"
         offset="1"
         id="stop3835" />
    </linearGradient>
    <linearGradient
       y2="16"
       x2="10"
       y1="1"
       x1="10"
       gradientUnits="userSpaceOnUse"
       id="linearGradient3084"
       xlink:href="#linearGradient3823"
       inkscape:collect="always" />
    <linearGradient
       id="linearGradient3823">
      <stop
         id="stop3825"
         offset="0"
         style="stop-color:#ffffff;stop-opacity:1;" />
      <stop
         id="stop3829"
         offset="1"
         style="stop-color:#ffffff;stop-opacity:0;" />
    </linearGradient>
    <linearGradient
       y2="16"
       x2="10"
       y1="1"
       x1="10"
       gradientUnits="userSpaceOnUse"
       id="linearGradient3101"
       xlink:href="#linearGradient3823"
       inkscape:collect="always"
       gradientTransform="translate(1,-1)" />
    <linearGradient
       inkscape:collect="always"
       xlink:href="#linearGradient7155"
       id="linearGradient3159"
       gradientUnits="userSpaceOnUse"
       gradientTransform="matrix(0.1689854,0,0,0.1689854,40.851396,0.1550765)"
       x1="26.98472"
       y1="5"
       x2="26.98472"
       y2="110.74494" />
    <linearGradient
       inkscape:collect="always"
       xlink:href="#linearGradient7155"
       id="linearGradient3161"
       gradientUnits="userSpaceOnUse"
       gradientTransform="matrix(0.06836166,0,0,-0.1689854,37.834332,21.785214)"
       spreadMethod="reflect"
       x1="26.98472"
       y1="54.295403"
       x2="26.98472"
       y2="96.039551" />
    <linearGradient
       inkscape:collect="always"
       xlink:href="#linearGradient7155"
       id="linearGradient3163"
       gradientUnits="userSpaceOnUse"
       gradientTransform="matrix(0.08408413,0,0,-0.1689854,31.700387,21.785214)"
       x1="26.98472"
       y1="5"
       x2="26.98472"
       y2="68.695473" />
    <linearGradient
       inkscape:collect="always"
       xlink:href="#linearGradient7175"
       id="linearGradient3165"
       gradientUnits="userSpaceOnUse"
       gradientTransform="matrix(0.2287308,0,0,-0.1689854,30.730201,21.785214)"
       x1="26.98472"
       y1="5"
       x2="26.98472"
       y2="70.167" />
    <linearGradient
       inkscape:collect="always"
       xlink:href="#linearGradient7175"
       id="linearGradient3167"
       gradientUnits="userSpaceOnUse"
       gradientTransform="matrix(0.1847079,0,0,-0.1689854,37.053393,21.844927)"
       x1="26.98472"
       y1="5"
       x2="26.98472"
       y2="120.63893" />
    <linearGradient
       inkscape:collect="always"
       xlink:href="#linearGradient7155"
       id="linearGradient3169"
       gradientUnits="userSpaceOnUse"
       gradientTransform="matrix(0.03377223,0,0,0.1689854,47.747234,0.1550765)"
       x1="26.98472"
       y1="5"
       x2="26.98472"
       y2="68.695473" />
    <linearGradient
       inkscape:collect="always"
       xlink:href="#linearGradient7175"
       id="linearGradient3171"
       gradientUnits="userSpaceOnUse"
       gradientTransform="matrix(0.0668628,0,0,0.1689854,45.83057,0.2147903)"
       x1="26.98472"
       y1="5"
       x2="26.98472"
       y2="176.64893" />
    <linearGradient
       inkscape:collect="always"
       xlink:href="#linearGradient7155"
       id="linearGradient3173"
       gradientUnits="userSpaceOnUse"
       gradientTransform="matrix(0.02119426,0,0,0.1689854,31.983469,0.1550765)"
       x1="26.98472"
       y1="5"
       x2="26.98472"
       y2="110.67213" />
    <linearGradient
       inkscape:collect="always"
       xlink:href="#linearGradient7155"
       id="linearGradient3957"
       x1="11"
       y1="5.5"
       x2="22"
       y2="5.5"
       gradientUnits="userSpaceOnUse"
       spreadMethod="reflect" />
    <linearGradient
       inkscape:collect="always"
       xlink:href="#linearGradient7155"
       id="linearGradient3961"
       gradientUnits="userSpaceOnUse"
       spreadMethod="reflect"
       x1="11"
       y1="5.5"
       x2="22"
       y2="5.5"
       gradientTransform="translate(0,-2)" />
    <radialGradient
       inkscape:collect="always"
       xlink:href="#linearGradient3535"
       id="radialGradient4366"
       gradientUnits="userSpaceOnUse"
       gradientTransform="matrix(1.2330155,-6.0718862e-8,4.8575091e-8,0.98641236,-30.908876,-34.115839)"
       cx="63.997692"
       cy="82.090881"
       fx="63.997692"
       fy="82.090881"
       r="28.997686" />
    <linearGradient
       id="linearGradient3535">
      <stop
         style="stop-color:#828282;stop-opacity:1;"
         offset="0"
         id="stop3537" />
      <stop
         style="stop-color:#5a5a5a;stop-opacity:1;"
         offset="1"
         id="stop3539" />
    </linearGradient>
    <radialGradient
       r="28.997686"
       fy="82.090881"
       fx="63.997692"
       cy="82.090881"
       cx="63.997692"
       gradientTransform="matrix(0.31068406,-1.5299388e-8,0,0.24854725,-8.0243999,-9.1501086)"
       gradientUnits="userSpaceOnUse"
       id="radialGradient3212"
       xlink:href="#linearGradient3535"
       inkscape:collect="always" />
    <radialGradient
       inkscape:collect="always"
       xlink:href="#linearGradient3535"
       id="radialGradient3982"
       gradientUnits="userSpaceOnUse"
       gradientTransform="matrix(0.31068406,-1.5299388e-8,0,0.24854725,-8.0243999,-9.1501086)"
       cx="63.997692"
       cy="82.090881"
       fx="63.997692"
       fy="82.090881"
       r="28.997686" />
    <radialGradient
       inkscape:collect="always"
       xlink:href="#linearGradient3535"
       id="radialGradient3986"
       gradientUnits="userSpaceOnUse"
       gradientTransform="matrix(0.31068406,-1.5299388e-8,0,0.24854725,-8.0243999,-7.1501086)"
       cx="63.997692"
       cy="82.090881"
       fx="63.997692"
       fy="82.090881"
       r="28.997686" />
    <linearGradient
       id="linearGradient3179-8">
      <stop
         id="stop3181"
         offset="0"
         style="stop-color:#000000;stop-opacity:0.56910568;" />
      <stop
         style="stop-color:#000000;stop-opacity:0;"
         offset="0.07017544"
         id="stop3187" />
      <stop
         id="stop3194"
         offset="0.20271669"
         style="stop-color:#750202;stop-opacity:0.09019608;" />
      <stop
         style="stop-color:#e47b04;stop-opacity:0.13725491;"
         offset="0.26648945"
         id="stop3200" />
      <stop
         id="stop3190-2"
         offset="0.35024518"
         style="stop-color:#ffc906;stop-opacity:0.18431373;" />
      <stop
         style="stop-color:#b76403;stop-opacity:0.1372549;"
         offset="0.43899667"
         id="stop3198" />
      <stop
         style="stop-color:#700000;stop-opacity:0.09019608;"
         offset="0.49777371"
         id="stop3192" />
      <stop
         id="stop3196"
         offset="0.65896344"
         style="stop-color:#fda100;stop-opacity:0.19215687;" />
      <stop
         id="stop3183"
         offset="1"
         style="stop-color:#7c0000;stop-opacity:0.60975611;" />
    </linearGradient>
    <linearGradient
       inkscape:collect="always"
       xlink:href="#linearGradient3179-8-7"
       id="linearGradient3131-7"
       gradientUnits="userSpaceOnUse"
       gradientTransform="matrix(-0.14714099,0,0,0.16300757,13.415161,4.9757523)"
       x1="45.5"
       y1="0.48100731"
       x2="45.5"
       y2="65.79747" />
    <linearGradient
       id="linearGradient3179-8-7">
      <stop
         id="stop3181-6"
         offset="0"
         style="stop-color:#000000;stop-opacity:0.56910568;" />
      <stop
         style="stop-color:#000000;stop-opacity:0;"
         offset="0.07017544"
         id="stop3187-7" />
      <stop
         id="stop3194-3"
         offset="0.20271669"
         style="stop-color:#750202;stop-opacity:0.09019608;" />
      <stop
         style="stop-color:#e47b04;stop-opacity:0.13725491;"
         offset="0.26648945"
         id="stop3200-6" />
      <stop
         id="stop3190-2-5"
         offset="0.35024518"
         style="stop-color:#ffc906;stop-opacity:0.18431373;" />
      <stop
         style="stop-color:#b76403;stop-opacity:0.1372549;"
         offset="0.43899667"
         id="stop3198-6" />
      <stop
         style="stop-color:#700000;stop-opacity:0.09019608;"
         offset="0.49777371"
         id="stop3192-3" />
      <stop
         id="stop3196-9"
         offset="0.65896344"
         style="stop-color:#fda100;stop-opacity:0.19215687;" />
      <stop
         id="stop3183-4"
         offset="1"
         style="stop-color:#7c0000;stop-opacity:0.60975611;" />
    </linearGradient>
    <linearGradient
       inkscape:collect="always"
       xlink:href="#linearGradient4821"
       id="linearGradient4802"
       x1="29"
       y1="22"
       x2="29"
       y2="38"
       gradientUnits="userSpaceOnUse"
       gradientTransform="matrix(0.3428571,0,0,0.3428571,2.1428589,-1.5428565)" />
    <linearGradient
       id="linearGradient4821">
      <stop
         id="stop4823"
         offset="0"
         style="stop-color:#dbdbdb;stop-opacity:1" />
      <stop
         style="stop-color:#ffffff;stop-opacity:1"
         offset="0.04557295"
         id="stop4825" />
      <stop
         id="stop4829"
         offset="0.6875"
         style="stop-color:#ededed;stop-opacity:1;" />
      <stop
         id="stop4827"
         offset="1"
         style="stop-color:#ffffff;stop-opacity:1;" />
    </linearGradient>
  </defs>
  <sodipodi:namedview
     id="base"
     pagecolor="#ffffff"
     bordercolor="#e7e7e7"
     borderopacity="1"
     inkscape:pageopacity="0.0"
     inkscape:pageshadow="2"
     inkscape:zoom="11.353828"
     inkscape:cx="5.606303"
     inkscape:cy="16.519225"
     inkscape:document-units="px"
     inkscape:current-layer="layer3"
     showgrid="true"
     inkscape:showpageshadow="false"
     showguides="false"
     inkscape:guide-bbox="true"
     inkscape:window-width="1920"
     inkscape:window-height="1030"
     inkscape:window-x="0"
     inkscape:window-y="25"
     inkscape:window-maximized="1"
     inkscape:snap-global="true">
    <sodipodi:guide
       orientation="1,0"
       position="0,112"
       id="guide2383" />
    <sodipodi:guide
       orientation="0,1"
       position="26.278146,128"
       id="guide2385" />
    <sodipodi:guide
       orientation="1,0"
       position="128,54.082119"
       id="guide2387" />
    <sodipodi:guide
       orientation="0,1"
       position="78.156291,0"
       id="guide2389" />
    <sodipodi:guide
       orientation="0,1"
       position="60.863576,64.084768"
       id="guide2391" />
    <inkscape:grid
       type="xygrid"
       id="grid3672"
       visible="true"
       enabled="true"
       empspacing="8"
       snapvisiblegridlinesonly="true" />
  </sodipodi:namedview>
  <metadata
     id="metadata7">
    <rdf:RDF>
      <cc:Work
         rdf:about="">
        <dc:format>image/svg+xml</dc:format>
        <dc:type
           rdf:resource="http://purl.org/dc/dcmitype/StillImage" />
        <dc:title />
      </cc:Work>
    </rdf:RDF>
  </metadata>
  <g
     inkscape:groupmode="layer"
     id="layer2"
     inkscape:label="Shadow"
     style="display:inline"
     transform="translate(0,2)"
     sodipodi:insensitive="true">
    <g
       style="display:inline"
       id="g3337"
       transform="translate(1,-1)">
      <rect
         ry="2.5"
         rx="2.5"
         y="0.5"
         x="0.5"
         height="21.5"
         width="21"
         id="rect3371"
         style="opacity:0.3;fill:url(#linearGradient3335);fill-opacity:1;stroke:none;display:inline" />
      <rect
         style="opacity:0.5;fill:#000000;fill-opacity:1;stroke:none;display:inline"
         id="rect2553"
         width="20"
         height="20"
         x="1"
         y="2"
         rx="2.3809524"
         ry="2.3255813" />
    </g>
  </g>
  <g
     inkscape:label="Button"
     inkscape:groupmode="layer"
     id="layer1"
     transform="translate(0,2)"
     sodipodi:insensitive="true">
    <path
       style="fill:url(#linearGradient3181);fill-opacity:1;fill-rule:evenodd;stroke:none;display:inline"
       d="M 4,0 C 2.892,0 2,0.892 2,2 l 0,16 c 0,1.108 0.892,2 2,2 l 16,0 c 1.108,0 2,-0.892 2,-2 L 22,2 C 22,0.892 21.108,0 20,0 z"
       id="rect3173"
       inkscape:connector-curvature="0"
       sodipodi:nodetypes="sssssssss" />
    <path
       style="fill:url(#linearGradient4303);fill-opacity:1;fill-rule:evenodd;stroke:none;display:inline"
       d="M 4,0 C 2.892,0 2,0.892 2,2 l 0,16 c 0,1.108 0.892,2 2,2 l 16,0 c 1.108,0 2,-0.892 2,-2 L 22,2 C 22,0.892 21.108,0 20,0 z"
       id="rect4237"
       inkscape:connector-curvature="0"
       sodipodi:nodetypes="sssssssss" />
    <path
       id="path3235"
       d="M 4,20 C 2.892,20 2,19.108 2,18 l 0,-1 c 0,1.108 0.892,2 2,2 l 16,0 c 1.108,0 2,-0.892 2,-2 l 0,1 c 0,1.108 -0.892,2 -2,2 L 4,20 z"
       style="opacity:0.3;fill:url(#linearGradient3845);fill-opacity:1;fill-rule:evenodd;stroke:none;display:inline"
       inkscape:connector-curvature="0" />
    <rect
       style="color:#000000;fill:#7c7c7c;fill-opacity:1;fill-rule:nonzero;stroke:none;stroke-width:1;marker:none;visibility:visible;display:inline;overflow:visible;enable-background:accumulate"
       id="rect3175"
       width="20"
       height="1"
       x="2"
       y="4" />
    <rect
       y="5"
       x="2"
       height="1"
       width="20"
       id="rect3949"
       style="opacity:0.8;color:#000000;fill:url(#linearGradient3957);fill-opacity:1;fill-rule:nonzero;stroke:none;stroke-width:1;marker:none;visibility:visible;display:inline;overflow:visible;enable-background:accumulate" />
    <rect
       style="opacity:0.6;color:#000000;fill:url(#linearGradient3961);fill-opacity:1;fill-rule:nonzero;stroke:none;stroke-width:1;marker:none;visibility:visible;display:inline;overflow:visible;enable-background:accumulate"
       id="rect3959"
       width="20"
       height="1"
       x="2"
       y="3" />
    <g
       id="g3149"
       transform="translate(-29,-1)">
      <path
         id="rect7153"
         d="m 43.8125,1 0,1.75 0,5.875 0,4.6875 0,5.875 0,1.75 3.21875,0 0,-2.75 0,-3.625 0,-7.1875 0,-3.625 0,-2.75 -3.21875,0 z"
         style="opacity:0.6;fill:url(#linearGradient3159);fill-opacity:1;fill-rule:evenodd;stroke:none"
         inkscape:connector-curvature="0" />
      <path
         id="rect7163"
         d="m 39.03125,1 0,1.625 0,6.25 0,4.1875 0,6.25 0,1.625 1.3125,0 0,-1.53125 0,-6.40625 0,-4.0625 0,-6.40625 0,-1.53125 -1.3125,0 z"
         style="opacity:0.3;fill:url(#linearGradient3161);fill-opacity:1;fill-rule:evenodd;stroke:none"
         inkscape:connector-curvature="0" />
      <path
         id="rect7167"
         d="m 33.1875,1 0,4.375 0,0.78125 0,9.625 0,0.78125 0,4.375 1.5625,0 0,-2.75 0,-4 0,-6.4375 0,-4 0,-2.75 -1.5625,0 z"
         style="opacity:0.4;fill:url(#linearGradient3163);fill-opacity:1;fill-rule:evenodd;stroke:none"
         inkscape:connector-curvature="0" />
      <path
         id="rect7171"
         d="m 34.71875,1 0,2.875 0,3.25 0,7.6875 0,3.25 0,2.875 4.34375,0 0,-1.625 0,-5.75 0,-5.1875 0,-5.75 0,-1.625 -4.34375,0 z"
         style="opacity:0.15;fill:url(#linearGradient3165);fill-opacity:1;fill-rule:evenodd;stroke:none"
         inkscape:connector-curvature="0" />
      <path
         id="rect7185"
         d="m 40.28125,1.0625 0,1.46875 0,5.9375 0,5.125 0,5.9375 0,1.46875 3.5,0 0,-1.65625 0,-5.5625 0,-5.5 0,-5.5625 0,-1.65625 -3.5,0 z"
         style="opacity:0.1;fill:url(#linearGradient3167);fill-opacity:1;fill-rule:evenodd;stroke:none"
         inkscape:connector-curvature="0" />
      <path
         id="rect7189"
         d="m 48.34375,1 0,19.9375 0.625,0 0,-19.9375 -0.625,0 z"
         style="opacity:0.4;fill:url(#linearGradient3169);fill-opacity:1;fill-rule:evenodd;stroke:none"
         inkscape:connector-curvature="0" />
      <path
         id="rect7193"
         d="m 47,1.0625 0,2.65625 0,3.5625 0,7.5 0,3.5625 0,2.65625 1.28125,0 0,-3.75 0,-1.375 0,-9.6875 0,-1.375 0,-3.75 -1.28125,0 z"
         style="opacity:0.1;fill:url(#linearGradient3171);fill-opacity:1;fill-rule:evenodd;stroke:none"
         inkscape:connector-curvature="0" />
      <rect
         style="opacity:0.4;fill:url(#linearGradient3173);fill-opacity:1;fill-rule:evenodd;stroke:none"
         id="rect7197"
         width="0.4024671"
         height="19.940283"
         x="32.354156"
         y="1.0000038" />
    </g>
    <path
       style="opacity:0.5;fill:url(#linearGradient3101);fill-opacity:1;fill-rule:evenodd;stroke:none;display:inline"
       d="M 4,0 C 2.892,0 2,0.892 2,2 l 0,16 c 0,1.108 0.892,2 2,2 l 16,0 c 1.108,0 2,-0.892 2,-2 L 22,2 C 22,0.892 21.108,0 20,0 L 4,0 z m 0,1.03125 16,0 c 0.5497,0 0.96875,0.4190495 0.96875,0.96875 l 0,16 c 0,0.5497 -0.41905,0.96875 -0.96875,0.96875 l -16,0 C 3.4502995,18.96875 3.03125,18.5497 3.03125,18 l 0,-16 C 3.03125,1.4502995 3.4502995,1.03125 4,1.03125 z"
       id="rect3050"
       inkscape:connector-curvature="0" />
  </g>
  <g
     inkscape:groupmode="layer"
     id="layer4"
     inkscape:label="Logo"
     transform="translate(0,2)"
     sodipodi:insensitive="true"
     style="opacity:0.6">
    <path
       style="opacity:0.20000000000000001;fill:#ffffff;fill-opacity:1;stroke:none;display:inline"
       d="M 10.5625,8 A 1.0169625,1.0169625 0 0 0 10,8.25 C 9.8914644,8.2342022 9.8356603,8.1585798 9.71875,8.15625 9.371401,8.149217 9.0135442,8.2419482 8.65625,8.375 a 1.0169625,1.0169625 0 0 0 -0.5,0.375 l -1.34375,2 A 1.0169625,1.0169625 0 0 0 7.125,12.1875 L 7.34375,12.34375 5.375,12.4375 A 1.0169625,1.0169625 0 0 0 5,14.34375 L 5.03125,14.375 C 4.6025823,15.468453 4.6272672,16.593993 5.0625,17.4375 5.543689,18.370073 6.2630456,19.079162 6.96875,20 a 1.0169625,1.0169625 0 0 0 0.6875,0.375 1.0169625,1.0169625 0 0 0 0.09375,0.03125 c 0.1683696,0.192311 0.3232389,0.403963 0.625,0.53125 a 1.0169625,1.0169625 0 0 0 0.40625,0.09375 l 2.84375,0 a 1.0169625,1.0169625 0 0 0 0.8125,-0.4375 L 13,21.625 a 1.0169625,1.0169625 0 0 0 1.90625,-0.5 l 0,-0.09375 c 1.168308,-0.105961 2.156802,-0.609215 2.71875,-1.375 0.62238,-0.848137 0.927623,-1.832176 1.4375,-2.875 a 1.0169625,1.0169625 0 0 0 0.03125,-0.8125 c 0.110586,-0.246448 0.209652,-0.493038 0.1875,-0.84375 A 1.0169625,1.0169625 0 0 0 19.1875,14.71875 L 17.90625,12.1875 A 1.0169625,1.0169625 0 0 0 16.9375,11.65625 L 17.40625,10.8125 A 1.0169625,1.0169625 0 0 0 16.125,9.375 c -0.362882,-0.5456235 -1.020999,-1.2558741 -2,-1.34375 A 1.0169625,1.0169625 0 0 0 14.03125,8 l -3.375,0 A 1.0169625,1.0169625 0 0 0 10.5625,8 z m 0.09375,1.03125 3.375,0 c 0.611571,0.054895 0.92566,0.4185771 1.25,0.90625 l 0.46875,0.84375 0.78125,-0.46875 -1.4375,2.53125 -3.0625,0 0.96875,-0.5 C 12.729198,11.705431 12.358709,10.947348 11.90625,10.3125 11.501167,9.7441292 11.027035,9.2528029 10.65625,9.03125 z M 9.6875,9.1875 c 0.901354,0.017962 1.487094,0.8060745 1.875,1.34375 L 10.28125,12.96875 7.65625,11.3125 9,9.3125 C 9.2448545,9.2213193 9.4794955,9.1832884 9.6875,9.1875 z M 17,12.65625 18.28125,15.1875 c 0.03862,0.611391 -0.949713,1.47535 -1.5625,1.46875 l -1.03125,0 L 14.375,14.25 17,12.65625 z m -8.71875,0.625 1.625,2.375 L 9.09375,15.25 7.75,17.90625 C 7.5645487,18.403853 7.5694508,18.894877 7.78125,19.375 6.2990968,17.441013 5.0417337,16.487562 6.03125,14.5 L 6.34375,13.875 5.4375,13.4375 8.28125,13.28125 z m 2.90625,0.15625 a 1.0169625,1.0169625 0 0 0 0.84375,0.4375 l 1.40625,0 a 1.0169625,1.0169625 0 0 0 0.03125,0.875 l 0.1875,0.375 A 1.0169625,1.0169625 0 0 0 13,15.625 l -0.46875,0.8125 A 1.0169625,1.0169625 0 0 0 11.625,15.90625 L 10.90625,15.9375 A 1.0169625,1.0169625 0 0 0 10.75,15.09375 l -0.8125,-1.1875 a 1.0169625,1.0169625 0 0 0 1.25,-0.46875 z m 2.6875,2.6875 0,0.90625 2.96875,0 c 0.52816,-0.05597 0.977162,-0.283832 1.3125,-0.6875 -1.070242,2.188909 -1.373192,3.749068 -3.59375,3.75 l -0.6875,0 0,1.03125 -1.40625,-2.5 1.40625,-2.5 z M 11.65625,16.9375 11.625,20 8.78125,20 C 8.2167205,19.761874 7.8770264,18.514174 8.15625,17.96875 l 0.5,-0.9375 3,-0.09375 z"
       transform="translate(0,-2)"
       id="path3984"
       inkscape:connector-curvature="0" />
    <path
       style="opacity:0.80000000000000004;fill:url(#radialGradient3212);fill-opacity:1;stroke:none;display:inline"
       d="m 14.040559,7.0303284 -3.399533,0.00702 c 0.370785,0.2215529 0.854786,0.7196522 1.259869,1.288023 0.452459,0.6348479 0.820145,1.3676179 1.090947,2.0059366 l -0.964258,0.520843 3.068731,-0.007 1.428791,-2.5338664 -0.760145,0.4786095 -0.485647,-0.8586807 C 14.954974,7.4435405 14.65213,7.0852081 14.040559,7.030313 z M 9.690845,7.1851728 C 9.4828405,7.1809612 9.2600156,7.213643 9.0151611,7.3048237 L 7.6708318,9.3248377 10.289107,10.964779 11.556014,8.5295019 C 11.168108,7.9918264 10.592199,7.2031352 9.690845,7.1851728 z m 7.319908,3.4628792 -2.632351,1.597711 1.302099,2.400085 1.048717,0.01408 c 0.612787,0.0066 1.601136,-0.845552 1.562519,-1.456943 l -1.280984,-2.55493 z M 8.2761318,11.26743 5.4255901,11.422273 6.3405787,11.879769 6.0379286,12.492107 C 5.0484123,14.479669 6.2942539,15.44979 7.7764071,17.383777 7.5646079,16.903654 7.5768807,16.389245 7.762332,15.891642 L 9.0785081,13.245213 9.9019985,13.653438 8.2761333,11.26743 z m 5.5955072,2.850542 -1.407675,2.519737 1.407675,2.477508 0.007,-1.020566 0.682723,0 c 2.220558,-9.32e-4 2.526374,-1.548467 3.596616,-3.737376 -0.335338,0.403668 -0.795054,0.61971 -1.323214,0.675684 l -2.956117,0.007 -0.007,-0.922026 z m -2.217089,0.823489 -3.0053843,0.0915 -0.4786095,0.929064 c -0.2792236,0.545424 0.047809,1.810041 0.6123385,2.048167 l 2.8505403,0 0.02112,-3.06873 z"
       id="path3292-0"
       inkscape:connector-curvature="0" />
  </g>
  <g
     inkscape:groupmode="layer"
     id="layer3"
     inkscape:label="Waste">
    <path
       sodipodi:type="inkscape:offset"
       inkscape:radius="0.50222528"
       inkscape:original="M 3.875 5.96875 A 0.53740022 0.53740022 0 0 0 3.5 6.5 L 3.46875 13.25 L 3.46875 16.03125 L 3.46875 16.5 A 0.53740022 0.53740022 0 0 0 4.40625 16.84375 L 6.5 14.34375 L 8.59375 16.84375 A 0.53740022 0.53740022 0 0 0 9.53125 16.5 L 9.53125 13.25 L 9.53125 7.59375 A 0.53740022 0.53740022 0 0 0 9.5625 7.40625 L 9.5625 6.5 A 0.53740022 0.53740022 0 0 0 9.03125 5.96875 L 4.03125 5.96875 A 0.53740022 0.53740022 0 0 0 3.9375 5.96875 A 0.53740022 0.53740022 0 0 0 3.875 5.96875 z "
       style="opacity:0.05;fill:#000000;fill-opacity:1;stroke:none;display:inline"
       id="path3966"
       d="M 3.75,5.46875 A 0.5022755,0.5022755 0 0 0 3.71875,5.5 c -4.54e-4,1.436e-4 -0.030802,-1.619e-4 -0.03125,0 -4.478e-4,1.619e-4 -0.030809,0.03107 -0.03125,0.03125 -4.409e-4,1.8e-4 -0.062067,-1.977e-4 -0.0625,0 -4.332e-4,1.977e-4 -0.030825,0.031035 -0.03125,0.03125 -4.248e-4,2.151e-4 -0.030834,-2.322e-4 -0.03125,0 C 3.5308343,5.5627322 3.5004059,5.5935011 3.5,5.59375 3.4995941,5.5939989 3.4691455,5.6247348 3.46875,5.625 3.4683545,5.6252652 3.4378844,5.655969 3.4375,5.65625 c -3.844e-4,2.81e-4 -0.062127,-2.964e-4 -0.0625,0 -3.727e-4,2.964e-4 -0.03089,0.030939 -0.03125,0.03125 -3.603e-4,3.113e-4 -0.030903,0.030924 -0.03125,0.03125 -3.474e-4,3.256e-4 -0.030916,0.030911 -0.03125,0.03125 -3.339e-4,3.395e-4 3.198e-4,0.030897 0,0.03125 -3.198e-4,3.528e-4 -0.030945,0.030884 -0.03125,0.03125 -3.053e-4,3.655e-4 -0.03096,0.030873 -0.03125,0.03125 -2.902e-4,3.775e-4 -0.030975,0.030861 -0.03125,0.03125 -2.746e-4,3.89e-4 -0.030991,0.03085 -0.03125,0.03125 -2.586e-4,3.998e-4 2.421e-4,0.03084 0,0.03125 C 3.1560079,5.93791 3.1252253,5.9995805 3.125,6 c -2.253e-4,4.195e-4 -0.031042,0.030822 -0.03125,0.03125 -2.081e-4,4.283e-4 1.905e-4,0.030814 0,0.03125 -1.905e-4,4.364e-4 -0.031077,0.030806 -0.03125,0.03125 -1.726e-4,4.438e-4 1.545e-4,0.06205 0,0.0625 -1.545e-4,4.504e-4 -0.031114,0.030794 -0.03125,0.03125 -1.361e-4,4.563e-4 1.174e-4,0.030788 0,0.03125 -1.174e-4,4.615e-4 9.86e-5,0.062034 0,0.0625 -9.86e-5,4.659e-4 -0.03117,0.03078 -0.03125,0.03125 -7.96e-5,4.695e-4 6.05e-5,0.030778 0,0.03125 -6.05e-5,4.723e-4 4.12e-5,0.062026 0,0.0625 -4.12e-5,4.744e-4 2.19e-5,0.030774 0,0.03125 -2.19e-5,4.757e-4 2.6e-6,0.030774 0,0.03125 -1.3e-6,2.381e-4 -1.546e-4,0.020816 0,0.03125 1.546e-4,0.010434 -8.4e-6,0.031012 0,0.03125 L 2.96875,13.25 l 0,2.78125 0,0.46875 c 1.2e-5,4.37e-4 -2.83e-5,0.06206 0,0.0625 2.83e-5,4.36e-4 -4.45e-5,0.03082 0,0.03125 4.45e-5,4.34e-4 -6.06e-5,0.03082 0,0.03125 6.06e-5,4.32e-4 -7.67e-5,0.03082 0,0.03125 7.67e-5,4.3e-4 0.031157,0.06207 0.03125,0.0625 9.26e-5,4.27e-4 -1.085e-4,0.03083 0,0.03125 1.085e-4,4.23e-4 -1.241e-4,0.03083 0,0.03125 1.241e-4,4.19e-4 0.03111,0.03084 0.03125,0.03125 1.396e-4,4.14e-4 -1.55e-4,0.03084 0,0.03125 1.55e-4,4.08e-4 0.03108,0.03085 0.03125,0.03125 1.7e-4,4.02e-4 -1.849e-4,0.0621 0,0.0625 1.849e-4,3.96e-4 0.031051,0.03086 0.03125,0.03125 1.995e-4,3.88e-4 -2.138e-4,0.03087 0,0.03125 2.138e-4,3.81e-4 0.031022,0.03088 0.03125,0.03125 2.279e-4,3.73e-4 -2.416e-4,0.03089 0,0.03125 2.416e-4,3.64e-4 0.030995,0.0309 0.03125,0.03125 2.55e-4,3.55e-4 0.030982,0.03091 0.03125,0.03125 2.68e-4,3.45e-4 0.030969,0.03092 0.03125,0.03125 2.806e-4,3.35e-4 0.030957,0.03093 0.03125,0.03125 2.929e-4,3.24e-4 -3.048e-4,0.03094 0,0.03125 3.048e-4,3.13e-4 0.030934,0.03095 0.03125,0.03125 3.162e-4,3.01e-4 0.030923,-2.89e-4 0.03125,0 3.272e-4,2.89e-4 0.030912,0.03097 0.03125,0.03125 3.377e-4,2.77e-4 0.030902,0.03099 0.03125,0.03125 3.478e-4,2.64e-4 0.030893,0.031 0.03125,0.03125 3.574e-4,2.51e-4 0.030883,-2.37e-4 0.03125,0 3.665e-4,2.37e-4 0.030875,0.03103 0.03125,0.03125 3.751e-4,2.24e-4 0.030867,0.03104 0.03125,0.03125 3.831e-4,2.1e-4 0.030859,-1.95e-4 0.03125,0 3.907e-4,1.95e-4 0.030852,0.03107 0.03125,0.03125 3.977e-4,1.8e-4 0.062096,-1.65e-4 0.0625,0 4.041e-4,1.65e-4 0.03084,0.0311 0.03125,0.03125 4.1e-4,1.5e-4 0.030835,-1.35e-4 0.03125,0 4.153e-4,1.35e-4 0.03083,0.03113 0.03125,0.03125 4.2e-4,1.19e-4 0.030826,-1.04e-4 0.03125,0 4.242e-4,1.04e-4 0.062072,-8.8e-5 0.0625,0 4.278e-4,8.8e-5 0.030819,-7.2e-5 0.03125,0 4.307e-4,7.2e-5 0.030817,0.03119 0.03125,0.03125 4.331e-4,5.6e-5 0.030815,-4e-5 0.03125,0 4.349e-4,4e-5 0.030814,-2.3e-5 0.03125,0 4.361e-4,2.3e-5 0.062063,-7e-6 0.0625,0 4.366e-4,7e-6 0.030813,9e-6 0.03125,0 4.366e-4,-9e-6 0.030814,2.5e-5 0.03125,0 4.359e-4,-2.5e-5 0.030815,4.2e-5 0.03125,0 4.347e-4,-4.2e-5 0.062067,5.8e-5 0.0625,0 4.328e-4,-5.8e-5 0.03082,-0.03118 0.03125,-0.03125 4.304e-4,-7.4e-5 0.030823,9e-5 0.03125,0 4.273e-4,-9e-5 0.030826,1.06e-4 0.03125,0 4.237e-4,-1.06e-4 0.030831,-0.03113 0.03125,-0.03125 4.195e-4,-1.21e-4 0.062085,1.37e-4 0.0625,0 4.147e-4,-1.37e-4 0.030841,1.52e-4 0.03125,0 4.093e-4,-1.52e-4 0.030847,-0.03108 0.03125,-0.03125 4.033e-4,-1.67e-4 0.030853,1.82e-4 0.03125,0 3.968e-4,-1.82e-4 0.03086,-0.03105 0.03125,-0.03125 3.897e-4,-1.97e-4 0.030868,2.11e-4 0.03125,0 3.821e-4,-2.11e-4 0.030876,-0.03102 0.03125,-0.03125 3.74e-4,-2.25e-4 0.030885,-0.03101 0.03125,-0.03125 3.654e-4,-2.39e-4 0.030894,2.53e-4 0.03125,0 3.562e-4,-2.53e-4 0.030903,-0.03098 0.03125,-0.03125 3.465e-4,-2.66e-4 0.030914,-0.03097 0.03125,-0.03125 3.364e-4,-2.78e-4 0.030924,-0.03096 0.03125,-0.03125 3.258e-4,-2.91e-4 0.030935,3.03e-4 0.03125,0 3.148e-4,-3.03e-4 0.030947,-0.03094 0.03125,-0.03125 3.033e-4,-3.14e-4 0.030959,-0.03092 0.03125,-0.03125 a 0.5022755,0.5022755 0 0 0 0,-0.03125 L 6.5,15.09375 l 1.71875,2.0625 a 0.5022755,0.5022755 0 0 0 0,0.03125 c 2.914e-4,3.25e-4 0.030947,0.03094 0.03125,0.03125 3.033e-4,3.14e-4 0.030935,0.03095 0.03125,0.03125 3.148e-4,3.03e-4 0.030924,-2.91e-4 0.03125,0 3.258e-4,2.91e-4 0.030914,0.03097 0.03125,0.03125 3.364e-4,2.78e-4 0.030904,0.03098 0.03125,0.03125 3.465e-4,2.66e-4 0.030894,0.031 0.03125,0.03125 3.562e-4,2.53e-4 0.030885,-2.39e-4 0.03125,0 3.654e-4,2.39e-4 0.030876,0.03102 0.03125,0.03125 3.74e-4,2.25e-4 0.030868,0.03104 0.03125,0.03125 3.821e-4,2.11e-4 0.03086,-1.97e-4 0.03125,0 3.897e-4,1.97e-4 0.030853,0.03107 0.03125,0.03125 3.968e-4,1.82e-4 0.030847,-1.67e-4 0.03125,0 4.033e-4,1.67e-4 0.030841,0.0311 0.03125,0.03125 4.093e-4,1.52e-4 0.030835,-1.37e-4 0.03125,0 4.147e-4,1.37e-4 0.062081,-1.21e-4 0.0625,0 4.195e-4,1.21e-4 0.030826,0.03114 0.03125,0.03125 4.237e-4,1.06e-4 0.030823,-9e-5 0.03125,0 4.273e-4,9e-5 0.03082,-7.4e-5 0.03125,0 4.304e-4,7.4e-5 0.030817,0.03119 0.03125,0.03125 4.328e-4,5.8e-5 0.062065,-4.2e-5 0.0625,0 4.347e-4,4.2e-5 0.030814,-2.5e-5 0.03125,0 4.359e-4,2.5e-5 0.030813,-9e-6 0.03125,0 4.366e-4,9e-6 0.030813,7e-6 0.03125,0 4.366e-4,-7e-6 0.062064,2.3e-5 0.0625,0 4.361e-4,-2.3e-5 0.030815,4e-5 0.03125,0 4.349e-4,-4e-5 0.030817,5.6e-5 0.03125,0 4.331e-4,-5.6e-5 0.030819,-0.03118 0.03125,-0.03125 4.307e-4,-7.2e-5 0.030822,8.8e-5 0.03125,0 4.278e-4,-8.8e-5 0.062076,1.04e-4 0.0625,0 4.242e-4,-1.04e-4 0.03083,1.19e-4 0.03125,0 4.2e-4,-1.19e-4 0.030835,-0.03111 0.03125,-0.03125 4.153e-4,-1.35e-4 0.03084,1.5e-4 0.03125,0 4.1e-4,-1.5e-4 0.030846,-0.03109 0.03125,-0.03125 4.041e-4,-1.65e-4 0.062102,1.8e-4 0.0625,0 3.977e-4,-1.8e-4 0.030859,-0.03105 0.03125,-0.03125 3.907e-4,-1.95e-4 0.030867,2.1e-4 0.03125,0 3.831e-4,-2.1e-4 0.030875,-0.03103 0.03125,-0.03125 3.751e-4,-2.24e-4 0.030883,-0.03101 0.03125,-0.03125 3.665e-4,-2.37e-4 0.030893,2.51e-4 0.03125,0 3.574e-4,-2.51e-4 0.030902,-0.03099 0.03125,-0.03125 3.478e-4,-2.64e-4 0.030912,-0.03097 0.03125,-0.03125 3.377e-4,-2.77e-4 0.030923,-0.03096 0.03125,-0.03125 3.272e-4,-2.89e-4 0.030934,3.01e-4 0.03125,0 3.162e-4,-3.01e-4 0.030945,-0.03094 0.03125,-0.03125 3.048e-4,-3.13e-4 -2.929e-4,-0.03093 0,-0.03125 2.929e-4,-3.24e-4 0.030969,-0.03092 0.03125,-0.03125 2.806e-4,-3.35e-4 0.030982,-0.03091 0.03125,-0.03125 2.68e-4,-3.45e-4 0.030995,-0.0309 0.03125,-0.03125 2.55e-4,-3.55e-4 0.031008,-0.03089 0.03125,-0.03125 2.416e-4,-3.64e-4 -2.279e-4,-0.03088 0,-0.03125 2.279e-4,-3.73e-4 0.031036,-0.03087 0.03125,-0.03125 2.138e-4,-3.81e-4 -1.995e-4,-0.03086 0,-0.03125 1.995e-4,-3.88e-4 0.031065,-0.03085 0.03125,-0.03125 1.849e-4,-3.96e-4 -1.7e-4,-0.0621 0,-0.0625 1.7e-4,-4.02e-4 0.031095,-0.03084 0.03125,-0.03125 1.55e-4,-4.08e-4 -1.396e-4,-0.03084 0,-0.03125 1.396e-4,-4.14e-4 0.031126,-0.03083 0.03125,-0.03125 1.24e-4,-4.19e-4 -1.085e-4,-0.03083 0,-0.03125 1.08e-4,-4.23e-4 -9.26e-5,-0.03082 0,-0.03125 9.3e-5,-4.27e-4 0.03117,-0.06207 0.03125,-0.0625 7.7e-5,-4.3e-4 -6.1e-5,-0.03082 0,-0.03125 6.1e-5,-4.32e-4 -4.4e-5,-0.03082 0,-0.03125 4.4e-5,-4.34e-4 -2.8e-5,-0.03081 0,-0.03125 2.8e-5,-4.36e-4 -1.2e-5,-0.06206 0,-0.0625 l 0,-3.25 0,-5.53125 c 1.53e-4,-4.981e-4 -1.31e-4,-0.030746 0,-0.03125 1.31e-4,-5.044e-4 -1.08e-4,-0.06199 0,-0.0625 5.4e-5,-2.549e-4 -0.0021,-0.020029 0,-0.03125 0.0021,-0.011221 0.03121,2.57e-4 0.03125,0 8.6e-5,-5.141e-4 -6.3e-5,-0.061983 0,-0.0625 6.3e-5,-5.174e-4 -4e-5,-0.03073 0,-0.03125 4e-5,-5.196e-4 -1.7e-5,-0.061979 0,-0.0625 1.7e-5,-5.209e-4 7e-6,-0.030729 0,-0.03125 l 0,-0.90625 c -6e-6,-5.672e-4 3.4e-5,-0.061934 0,-0.0625 -3.4e-5,-5.662e-4 6.1e-5,-0.030686 0,-0.03125 -6.1e-5,-5.639e-4 8.8e-5,-0.06194 0,-0.0625 -8.8e-5,-5.603e-4 -0.03114,-0.061945 -0.03125,-0.0625 -1.15e-4,-5.553e-4 1.42e-4,-0.030701 0,-0.03125 -1.42e-4,-5.491e-4 1.69e-4,-0.061958 0,-0.0625 C 10.031081,6.1869584 10.000195,6.1567828 10,6.15625 9.9998055,6.1557172 9.96897,6.0942728 9.96875,6.09375 c -2.2e-4,-5.228e-4 2.451e-4,-0.030739 0,-0.03125 C 9.9685049,6.0619885 9.9377695,6.0004991 9.9375,6 9.9372305,5.9995009 9.9065433,5.9692355 9.90625,5.96875 9.9059567,5.9682645 9.8753165,5.9379707 9.875,5.9375 9.8746835,5.9370293 9.8440889,5.8754549 9.84375,5.875 9.8434111,5.8745451 9.8128605,5.8441879 9.8125,5.84375 9.8121395,5.8433121 9.7816312,5.81292 9.78125,5.8125 9.7808688,5.81208 9.7504011,5.7816511 9.75,5.78125 9.7495989,5.7808489 9.71917,5.7503812 9.71875,5.75 9.71833,5.7496188 9.6879379,5.7191105 9.6875,5.71875 9.6870621,5.7183895 9.6567049,5.6878389 9.65625,5.6875 9.6557951,5.6871611 9.5942207,5.6565665 9.59375,5.65625 9.5932793,5.6559335 9.5629855,5.6252933 9.5625,5.625 9.5620145,5.6247067 9.5317491,5.5940195 9.53125,5.59375 9.5307509,5.5934805 9.4692615,5.5627451 9.46875,5.5625 9.4682385,5.5622549 9.4380228,5.56272 9.4375,5.5625 9.4369772,5.56228 9.3755328,5.5314445 9.375,5.53125 9.3744672,5.5310555 9.3442916,5.5001685 9.34375,5.5 c -5.416e-4,-1.685e-4 -0.061951,1.421e-4 -0.0625,0 -5.491e-4,-1.421e-4 -0.030695,1.154e-4 -0.03125,0 -5.553e-4,-1.154e-4 -0.06194,-0.031162 -0.0625,-0.03125 -5.603e-4,-8.84e-5 -0.061936,6.12e-5 -0.0625,0 -5.639e-4,-6.12e-5 -0.030684,3.39e-5 -0.03125,0 -5.662e-4,-3.39e-5 -0.061933,6.5e-6 -0.0625,0 l -4.96875,0 c -5.101e-4,-4.47e-5 -0.030739,2.24e-5 -0.03125,0 -5.115e-4,-2.24e-5 -0.030738,0 -0.03125,0 -2.56e-4,0 -0.020032,-2.45e-4 -0.03125,0 -3.405e-4,-1.98e-5 -0.016307,4.348e-4 -0.03125,0 -5.115e-4,2.24e-5 -0.03074,-4.47e-5 -0.03125,0 -6.822e-4,0 -0.061819,-3.97e-5 -0.0625,0 a 0.5022755,0.5022755 0 0 0 -0.09375,0 z" />
    <path
       sodipodi:type="inkscape:offset"
       inkscape:radius="0.53734648"
       inkscape:original="M 4.03125 6.5 L 4 13.25 L 4 16.03125 L 4 16.5 L 6.5 13.53125 L 9 16.5 L 9 13.25 L 9 7.40625 L 9.03125 7.40625 L 9.03125 6.5 L 4.03125 6.5 z "
       style="opacity:0.15;fill:#000000;fill-opacity:1;stroke:none;display:inline"
       id="path3962"
       d="M 3.9375,5.96875 A 0.53740022,0.53740022 0 0 0 3.5,6.5 l -0.03125,6.75 0,2.78125 0,0.46875 a 0.53740022,0.53740022 0 0 0 0.9375,0.34375 l 2.09375,-2.5 2.09375,2.5 A 0.53740022,0.53740022 0 0 0 9.53125,16.5 l 0,-3.25 0,-5.65625 A 0.53740022,0.53740022 0 0 0 9.5625,7.40625 L 9.5625,6.5 A 0.53740022,0.53740022 0 0 0 9.03125,5.96875 l -5,0 a 0.53740022,0.53740022 0 0 0 -0.09375,0 z" />
    <path
       inkscape:connector-curvature="0"
       id="path3958"
       d="M 4.0173612,6.5 4,13.237658 4,16.015973 4,16.5 6.5,13.518393 9,16.5 9,13.237658 9,7.4196515 l 0.017363,0 0,-0.9196515 -5,0 z"
       style="fill:#000000;fill-opacity:1;stroke:none;display:inline;opacity:0.3" />
    <path
       style="fill:#c50000;fill-opacity:1;stroke:none;display:inline"
       d="M 4.0173612,6 4,16 6.5,13.018393 9,16 9.0173625,6 l -5,0 z"
       id="rect3204"
       inkscape:connector-curvature="0" />
    <path
       style="fill:url(#linearGradient3131-7);fill-opacity:1;stroke:none;display:inline"
       d="M 4.017361,6 4,12.737658 4,15.515973 4,16 6.5,13.018393 9,16 9,12.737658 9,6.9196515 l 0.01736,0 0,-0.9196515 -5,0 z"
       id="path3177"
       inkscape:connector-curvature="0" />
    <rect
       style="opacity:0.4;color:#000000;fill:#000000;fill-opacity:1;fill-rule:nonzero;stroke:none;stroke-width:1;marker:none;visibility:visible;display:inline;overflow:visible;enable-background:accumulate"
       id="rect3188"
       width="5"
       height="1"
       x="4"
       y="6" />
    <path
       style="opacity:0.1;fill:#000000;fill-opacity:1;stroke:none"
       d="m 9.000001,6 c 1.090909,0 4,8 4,8 0,0 4.727272,-3.294118 7.999999,-8 0,0 -8.363636,0 -11.999999,0 z"
       id="path4819"
       inkscape:connector-curvature="0"
       sodipodi:nodetypes="cccc" />
    <path
       sodipodi:nodetypes="cccc"
       inkscape:connector-curvature="0"
       id="path4815"
       d="m 9.3428582,6 c 1.0285718,0 3.7714278,7 3.7714278,7 0,0 4.457143,-2.882353 7.542857,-7 0,0 -7.885714,0 -11.3142848,0 z"
       style="opacity:0.2;fill:#000000;fill-opacity:1;stroke:none" />
    <path
       style="fill:url(#linearGradient4802);fill-opacity:1;stroke:none"
       d="m 9.3428582,6 c 1.0285718,0 3.7714278,5.828571 3.7714278,5.828571 0,0 4.457143,-2.4 7.542857,-5.828571 0,0 -7.885714,0 -11.3142848,0 z"
       id="path4794"
       inkscape:connector-curvature="0"
       sodipodi:nodetypes="cccc" />
    <path
       style="opacity:0.6;fill:#ffffff;fill-opacity:1;stroke:none"
       d="m 9.3428582,6 c 1.0285718,0 3.7714278,5.828571 3.7714278,5.828571 0,0 4.457143,-2.4 7.542857,-5.828571 l -0.321429,0 c -3.064388,3.2429695 -7.221428,5.485714 -7.221428,5.485714 0,0 -2.000461,-4.2475501 -3.2249993,-5.485714 L 9.3428582,6 z"
       id="path4806"
       inkscape:connector-curvature="0" />
    <path
       style="opacity:0.2;color:#000000;fill:#000000;fill-opacity:1;fill-rule:nonzero;stroke:none;stroke-width:1;marker:none;visibility:visible;display:inline;overflow:visible;enable-background:accumulate"
       d="M 9.34375 6 C 9.6137501 6 10.01187 6.4076032 10.4375 7 L 19.6875 7 C 20.016591 6.6800157 20.348643 6.341786 20.65625 6 L 9.34375 6 z "
       id="rect3993" />
  </g>
</svg>
