<?xml version="1.0" encoding="UTF-8" standalone="no"?>
<svg
   xmlns:dc="http://purl.org/dc/elements/1.1/"
   xmlns:cc="http://creativecommons.org/ns#"
   xmlns:rdf="http://www.w3.org/1999/02/22-rdf-syntax-ns#"
   xmlns:svg="http://www.w3.org/2000/svg"
   xmlns="http://www.w3.org/2000/svg"
   xmlns:sodipodi="http://sodipodi.sourceforge.net/DTD/sodipodi-0.dtd"
   xmlns:inkscape="http://www.inkscape.org/namespaces/inkscape"
   id="svg2"
   width="24"
   height="24"
   version="1.0"
   sodipodi:docname="vivaldi.svg"
   inkscape:version="0.92.2 5c3e80d, 2017-08-06">
  <metadata
     id="metadata49">
    <rdf:RDF>
      <cc:Work
         rdf:about="">
        <dc:format>image/svg+xml</dc:format>
        <dc:type
           rdf:resource="http://purl.org/dc/dcmitype/StillImage" />
      </cc:Work>
    </rdf:RDF>
  </metadata>
  <sodipodi:namedview
     pagecolor="#ffffff"
     bordercolor="#666666"
     borderopacity="1"
     objecttolerance="10"
     gridtolerance="10"
     guidetolerance="10"
     inkscape:pageopacity="0"
     inkscape:pageshadow="2"
     inkscape:window-width="640"
     inkscape:window-height="480"
     id="namedview47"
     showgrid="false"
     inkscape:zoom="9.8333333"
     inkscape:cx="12"
     inkscape:cy="12"
     inkscape:window-x="0"
     inkscape:window-y="25"
     inkscape:window-maximized="0"
     inkscape:current-layer="svg2" />
  <defs
     id="defs4">
    <linearGradient
       id="linearGradient3335"
       x1="11.375"
       x2="11.375"
       y1="22"
       y2="-9.8173"
       gradientUnits="userSpaceOnUse">
      <stop
         id="stop3330"
         offset="0" />
      <stop
         id="stop3333"
         stop-opacity="0"
         offset="1" />
    </linearGradient>
    <linearGradient
       id="linearGradient3181"
       x1="-3.0608"
       x2="-3.0608"
       y1="27.258"
       y2="7.2537"
       gradientTransform="translate(12.119 -7.2582)"
       gradientUnits="userSpaceOnUse">
      <stop
         id="stop3189"
         stop-color="#e21838"
         offset="0" />
      <stop
         id="stop3191"
         stop-color="#f51d30"
         offset="1" />
    </linearGradient>
    <filter
       id="filter3194"
       x="-.18"
       y="-.18"
       width="1.36"
       height="1.36"
       color-interpolation-filters="sRGB">
      <feGaussianBlur
         id="feGaussianBlur3196"
         stdDeviation="1.2" />
    </filter>
    <clipPath
       id="clipPath2849">
      <rect
         id="rect2851"
         x="1"
         y="1"
         width="20"
         height="20"
         rx="2"
         ry="2"
         fill="#fff"
         fill-rule="evenodd" />
    </clipPath>
    <linearGradient
       id="linearGradient3845"
       x1="11"
       x2="21"
       y1="19.5"
       y2="19.5"
       gradientTransform="translate(1,-1)"
       gradientUnits="userSpaceOnUse"
       spreadMethod="reflect">
      <stop
         id="stop3833"
         stop-color="#fff"
         offset="0" />
      <stop
         id="stop3821"
         stop-color="#fff"
         stop-opacity=".49804"
         offset=".75" />
      <stop
         id="stop3835"
         stop-color="#fff"
         stop-opacity="0"
         offset="1" />
    </linearGradient>
    <linearGradient
       id="linearGradient3961"
       x1="10"
       x2="10"
       y1="1"
       y2="16"
       gradientTransform="translate(1,-1)"
       gradientUnits="userSpaceOnUse">
      <stop
         id="stop3825"
         stop-color="#fff"
         offset="0" />
      <stop
         id="stop3829"
         stop-color="#fff"
         stop-opacity="0"
         offset="1" />
    </linearGradient>
  </defs>
  <g
     id="layer1"
     transform="translate(0,2)">
    <g
       id="g3337"
       transform="translate(1,-1)">
      <rect
         id="rect3371"
         x=".5"
         y=".5"
         width="21"
         height="21.5"
         rx="2.5"
         ry="2.5"
         fill="url(#linearGradient3335)"
         opacity=".3" />
      <rect
         id="rect2553"
         x="1"
         y="2"
         width="20"
         height="20"
         rx="2.381"
         ry="2.3256"
         opacity=".5" />
    </g>
    <rect
       id="rect3173"
       x="2"
       width="20"
       height="20"
       rx="2"
       ry="2"
       fill="url(#linearGradient3181)"
       fill-rule="evenodd" />
    <path
       id="rect3050"
       d="m4 0c-1.108 0-2 0.892-2 2v16c0 1.108 0.892 2 2 2h16c1.108 0 2-0.892 2-2v-16c0-1.108-0.892-2-2-2h-16zm0 1.0312h16c0.5497 0 0.96875 0.41905 0.96875 0.96875v16c0 0.5497-0.41905 0.96875-0.96875 0.96875h-16c-0.5497 0-0.96875-0.41905-0.96875-0.96875v-16c0-0.5497 0.41905-0.96875 0.96875-0.96875z"
       fill="url(#linearGradient3961)"
       fill-rule="evenodd"
       opacity=".35" />
    <path
       id="path3235"
       d="m4 20c-1.108 0-2-0.892-2-2v-1c0 1.108 0.892 2 2 2h16c1.108 0 2-0.892 2-2v1c0 1.108-0.892 2-2 2h-16z"
       fill="url(#linearGradient3845)"
       fill-rule="evenodd"
       opacity=".2" />
  </g>
  <g
     id="layer2"
     transform="translate(0,2)">
    <rect
       id="rect2410"
       transform="translate(1,-1)"
       x="3"
       y="3"
       width="16"
       height="16"
       rx="2"
       ry="2"
       clip-path="url(#clipPath2849)"
       fill="#fff"
       filter="url(#filter3194)"
       opacity=".15" />
  </g>
  <defs
     id="defs37">
    <filter
       id="w">
      <feGaussianBlur
         stdDeviation="0.20998568"
         id="feGaussianBlur29" />
    </filter>
    <linearGradient
       id="a"
       gradientUnits="userSpaceOnUse"
       x1="8"
       y1="1.9992907"
       x2="8"
       y2="15.0001787">
      <stop
         stop-color="#fafafa"
         offset="0"
         id="stop32" />
      <stop
         stop-color="#ebebeb"
         offset="1"
         id="stop34" />
    </linearGradient>
  </defs>
  <g
     id="main">
    <path
       style="opacity:0.3;fill:#000000"
       d="M 18.925781 8.1660156 C 18.754423 8.7866489 18.169626 9.8874431 16.308594 13.197266 C 13.785594 17.684466 13.297091 18.500319 13.025391 18.699219 C 12.704891 18.933709 12.063427 19.056999 11.591797 18.974609 C 10.857577 18.846349 11.001759 19.0569 7.9804688 13.681641 C 5.8461807 9.884577 5.2405303 8.774452 5.0703125 8.1816406 C 5.0280773 8.3415391 5 8.5126946 5 8.7167969 C 5 9.3368969 5.1930688 9.7226402 7.9804688 14.681641 C 11.001759 20.0569 10.857577 19.846349 11.591797 19.974609 C 12.063427 20.056999 12.704891 19.933709 13.025391 19.699219 C 13.297091 19.500319 13.785594 18.684466 16.308594 14.197266 C 18.685614 9.9697652 19 9.3262338 19 8.7148438 C 19 8.5046996 18.970756 8.3293613 18.925781 8.1660156 z M 15.761719 8.1777344 C 15.652919 8.5955223 15.692902 9.1241236 15.890625 9.7929688 C 15.954787 10.010033 15.991059 10.220573 16.019531 10.429688 C 16.092271 9.9241296 16.062124 9.3731632 15.890625 8.7929688 C 15.823861 8.5671241 15.793851 8.3733162 15.761719 8.1777344 z "
       id="path39" />
    <path
       d="M 13.460938 2 C 13.116335 1.989138 12.75309 2.1030269 12.375 2.3417969 C 11.67686 2.7826969 11.524295 3.5537687 11.890625 4.7929688 C 12.507725 6.8806688 11.432544 8.6697412 9.4648438 8.8320312 C 8.6330438 8.9006413 7.9493944 8.6724625 7.3652344 8.1328125 C 7.0052344 7.8002125 6.607075 7.189675 5.640625 5.484375 C 4.171815 2.892575 3.967275 2.5706856 3.640625 2.3222656 C 3.049925 1.8730846 2.1430194 1.90941 1.5683594 2.40625 C 1.1596394 2.75963 1 3.1289669 1 3.7167969 C 1 4.3368969 1.1930688 4.7226406 3.9804688 9.6816406 C 7.0017588 15.0569 6.8575769 14.846349 7.5917969 14.974609 C 8.0634269 15.056999 8.7048906 14.933709 9.0253906 14.699219 C 9.2970906 14.500319 9.7855938 13.684466 12.308594 9.1972656 C 14.685614 4.9697656 15 4.3262338 15 3.7148438 C 15 3.1274638 14.840251 2.75953 14.431641 2.40625 C 14.130741 2.146082 13.80554 2.010862 13.460938 2 z"
       fill="#fff"
       id="base"
       transform="translate(4,4)" />
  </g>
</svg>
