<?xml version="1.0" encoding="UTF-8" standalone="no"?>
<svg
   xmlns:dc="http://purl.org/dc/elements/1.1/"
   xmlns:cc="http://creativecommons.org/ns#"
   xmlns:rdf="http://www.w3.org/1999/02/22-rdf-syntax-ns#"
   xmlns:svg="http://www.w3.org/2000/svg"
   xmlns="http://www.w3.org/2000/svg"
   xmlns:sodipodi="http://sodipodi.sourceforge.net/DTD/sodipodi-0.dtd"
   xmlns:inkscape="http://www.inkscape.org/namespaces/inkscape"
   id="svg2"
   width="24"
   height="24"
   version="1.0"
   sodipodi:docname="arduino.svg"
   inkscape:version="0.92.2 5c3e80d, 2017-08-06">
  <metadata
     id="metadata49">
    <rdf:RDF>
      <cc:Work
         rdf:about="">
        <dc:format>image/svg+xml</dc:format>
        <dc:type
           rdf:resource="http://purl.org/dc/dcmitype/StillImage" />
      </cc:Work>
    </rdf:RDF>
  </metadata>
  <sodipodi:namedview
     pagecolor="#ffffff"
     bordercolor="#666666"
     borderopacity="1"
     objecttolerance="10"
     gridtolerance="10"
     guidetolerance="10"
     inkscape:pageopacity="0"
     inkscape:pageshadow="2"
     inkscape:window-width="640"
     inkscape:window-height="480"
     id="namedview47"
     showgrid="false"
     inkscape:zoom="9.8333333"
     inkscape:cx="12"
     inkscape:cy="12"
     inkscape:window-x="0"
     inkscape:window-y="25"
     inkscape:window-maximized="0"
     inkscape:current-layer="svg2" />
  <defs
     id="defs4">
    <linearGradient
       id="linearGradient3335"
       x1="11.375"
       x2="11.375"
       y1="22"
       y2="-9.8173"
       gradientUnits="userSpaceOnUse">
      <stop
         id="stop3330"
         offset="0" />
      <stop
         id="stop3333"
         stop-opacity="0"
         offset="1" />
    </linearGradient>
    <linearGradient
       id="linearGradient3181"
       x1="-3.0608"
       x2="-3.0608"
       y1="27.258"
       y2="7.2537"
       gradientTransform="translate(12.119 -7.2582)"
       gradientUnits="userSpaceOnUse">
      <stop
         id="stop3189"
         stop-color="#02797e"
         offset="0" />
      <stop
         id="stop3191"
         stop-color="#00aab0"
         offset="1" />
    </linearGradient>
    <filter
       id="filter3194"
       x="-.18"
       y="-.18"
       width="1.36"
       height="1.36"
       color-interpolation-filters="sRGB">
      <feGaussianBlur
         id="feGaussianBlur3196"
         stdDeviation="1.2" />
    </filter>
    <clipPath
       id="clipPath2849">
      <rect
         id="rect2851"
         x="1"
         y="1"
         width="20"
         height="20"
         rx="2"
         ry="2"
         fill="#fff"
         fill-rule="evenodd" />
    </clipPath>
    <linearGradient
       id="linearGradient3845"
       x1="11"
       x2="21"
       y1="19.5"
       y2="19.5"
       gradientTransform="translate(1,-1)"
       gradientUnits="userSpaceOnUse"
       spreadMethod="reflect">
      <stop
         id="stop3833"
         stop-color="#fff"
         offset="0" />
      <stop
         id="stop3821"
         stop-color="#fff"
         stop-opacity=".49804"
         offset=".75" />
      <stop
         id="stop3835"
         stop-color="#fff"
         stop-opacity="0"
         offset="1" />
    </linearGradient>
    <linearGradient
       id="linearGradient3961"
       x1="10"
       x2="10"
       y1="1"
       y2="16"
       gradientTransform="translate(1,-1)"
       gradientUnits="userSpaceOnUse">
      <stop
         id="stop3825"
         stop-color="#fff"
         offset="0" />
      <stop
         id="stop3829"
         stop-color="#fff"
         stop-opacity="0"
         offset="1" />
    </linearGradient>
  </defs>
  <g
     id="layer1"
     transform="translate(0,2)">
    <g
       id="g3337"
       transform="translate(1,-1)">
      <rect
         id="rect3371"
         x=".5"
         y=".5"
         width="21"
         height="21.5"
         rx="2.5"
         ry="2.5"
         fill="url(#linearGradient3335)"
         opacity=".3" />
      <rect
         id="rect2553"
         x="1"
         y="2"
         width="20"
         height="20"
         rx="2.381"
         ry="2.3256"
         opacity=".5" />
    </g>
    <rect
       id="rect3173"
       x="2"
       width="20"
       height="20"
       rx="2"
       ry="2"
       fill="url(#linearGradient3181)"
       fill-rule="evenodd" />
    <path
       id="rect3050"
       d="m4 0c-1.108 0-2 0.892-2 2v16c0 1.108 0.892 2 2 2h16c1.108 0 2-0.892 2-2v-16c0-1.108-0.892-2-2-2h-16zm0 1.0312h16c0.5497 0 0.96875 0.41905 0.96875 0.96875v16c0 0.5497-0.41905 0.96875-0.96875 0.96875h-16c-0.5497 0-0.96875-0.41905-0.96875-0.96875v-16c0-0.5497 0.41905-0.96875 0.96875-0.96875z"
       fill="url(#linearGradient3961)"
       fill-rule="evenodd"
       opacity=".35" />
    <path
       id="path3235"
       d="m4 20c-1.108 0-2-0.892-2-2v-1c0 1.108 0.892 2 2 2h16c1.108 0 2-0.892 2-2v1c0 1.108-0.892 2-2 2h-16z"
       fill="url(#linearGradient3845)"
       fill-rule="evenodd"
       opacity=".2" />
  </g>
  <g
     id="layer2"
     transform="translate(0,2)">
    <rect
       id="rect2410"
       transform="translate(1,-1)"
       x="3"
       y="3"
       width="16"
       height="16"
       rx="2"
       ry="2"
       clip-path="url(#clipPath2849)"
       fill="#fff"
       filter="url(#filter3194)"
       opacity=".15" />
  </g>
  <defs
     id="defs37">
    <filter
       id="w">
      <feGaussianBlur
         stdDeviation="0.20998568"
         id="feGaussianBlur29" />
    </filter>
    <linearGradient
       id="a"
       gradientUnits="userSpaceOnUse"
       x1="8"
       y1="3.99999"
       x2="8"
       y2="11.0008611">
      <stop
         stop-color="#fafafa"
         offset="0"
         id="stop32" />
      <stop
         stop-color="#ebebeb"
         offset="1"
         id="stop34" />
    </linearGradient>
  </defs>
  <g
     id="main">
    <path
       style="color:#000000;font-variant-ligatures:normal;font-variant-position:normal;font-variant-caps:normal;font-variant-numeric:normal;font-variant-alternates:normal;font-feature-settings:normal;text-indent:0;text-decoration:none;text-decoration-line:none;text-decoration-style:solid;text-decoration-color:#000000;text-transform:none;text-orientation:mixed;dominant-baseline:auto;white-space:normal;shape-padding:0;opacity:0.3;isolation:auto;mix-blend-mode:normal;solid-color:#000000;fill:#000000;color-rendering:auto;image-rendering:auto;shape-rendering:auto"
       d="M 8.359375 9 C 8.3504979 9.0000072 8.3428334 9.0018863 8.3339844 9.0019531 C 8.1387462 9.0034286 7.9563377 9.0314184 7.7753906 9.0605469 C 7.2644169 9.1697933 6.885261 9.4223058 6.5976562 9.7617188 C 6.2093962 10.219919 6 10.858353 6 11.501953 C 6 11.67043 6.0169523 11.837649 6.0449219 12.001953 C 6.1243001 11.537659 6.3110137 11.099996 6.5976562 10.761719 C 6.9859162 10.303519 7.5387081 10.00067 8.3613281 10 L 8.359375 9 z M 8.3613281 10 C 9.2134181 10 9.7696438 10.307309 10.277344 10.818359 C 10.579745 11.122734 10.842234 11.538675 11.099609 11.972656 C 11.198341 11.804418 11.297367 11.645576 11.396484 11.470703 C 11.041934 10.856803 10.695734 10.239479 10.277344 9.8183594 C 9.9034402 9.4419887 9.5018987 9.1784437 8.9765625 9.0644531 C 8.7782993 9.0312446 8.5780821 9 8.3613281 9 L 8.3613281 10 z M 15.638672 9 C 15.421918 9 15.221703 9.0312452 15.023438 9.0644531 C 14.498107 9.178446 14.096582 9.441996 13.722656 9.8183594 C 13.304306 10.239459 12.958106 10.856723 12.603516 11.470703 C 12.702641 11.645576 12.801655 11.80442 12.900391 11.972656 C 13.157779 11.538663 13.420284 11.12272 13.722656 10.818359 C 14.090609 10.448007 14.486969 10.189202 15 10.072266 L 15 10 L 15.638672 10 L 16 10 L 16 10.035156 C 16.622392 10.113393 17.077802 10.37635 17.404297 10.761719 C 17.690939 11.099996 17.876259 11.537659 17.955078 12.001953 C 17.983049 11.837648 18 11.67043 18 11.501953 C 18 10.858353 17.792557 10.219919 17.404297 9.7617188 C 17.116737 9.4223058 16.736134 9.169793 16.224609 9.0605469 C 16.043659 9.031425 15.861254 9.0034145 15.666016 9.0019531 C 15.656222 9.0018584 15.648542 9.000008 15.638672 9 z M 7 12 L 7 13 L 10 13 L 10 12 L 7 12 z M 14 12 L 14 13 L 15 13 L 15 12 L 14 12 z M 15 13 L 15 13.957031 C 15.18529 13.992526 15.384267 14.010632 15.611328 13.998047 L 15.625 13.998047 L 15.640625 13.998047 C 15.770681 13.998151 15.883008 13.977381 16 13.962891 L 16 13 L 15 13 z M 16 13 L 17 13 L 17 12 L 16 12 L 16 13 z M 5.0390625 12.001953 C 5.0184054 12.16801 5 12.334983 5 12.501953 C 5 13.357753 5.2684344 14.220219 5.8339844 14.886719 C 6.3961244 15.549209 7.26815 15.991594 8.34375 15.996094 C 9.40915 16.051254 10.2571 15.62065 10.875 15 C 11.34425 14.52867 11.66477 13.932416 12 13.353516 C 12.33508 13.932026 12.65601 14.5289 13.125 15 C 13.74291 15.62066 14.59085 16.051304 15.65625 15.996094 C 16.73185 15.991594 17.603816 15.549239 18.166016 14.886719 C 18.731576 14.220199 19 13.357753 19 12.501953 C 19 12.334983 18.981598 12.168007 18.960938 12.001953 C 18.875753 12.686672 18.621232 13.35024 18.166016 13.886719 C 17.710396 14.42364 17.044317 14.801739 16.238281 14.933594 C 16.060708 14.972385 15.867955 14.995184 15.65625 14.996094 C 15.650606 14.996118 15.646294 14.998051 15.640625 14.998047 L 15.625 14.998047 L 15.611328 14.998047 C 15.38583 15.010545 15.188163 14.991967 15.003906 14.957031 C 14.241722 14.846995 13.609927 14.487085 13.125 14 C 12.65601 13.5289 12.33508 12.932026 12 12.353516 C 11.66477 12.932416 11.34425 13.52867 10.875 14 C 10.390081 14.487078 9.7582804 14.846982 8.9960938 14.957031 C 8.8118445 14.991967 8.6141585 15.010545 8.3886719 14.998047 L 8.375 14.998047 L 8.359375 14.998047 C 8.3537059 14.998051 8.3493935 14.996118 8.34375 14.996094 C 8.1320532 14.995186 7.9392869 14.972385 7.7617188 14.933594 C 6.9556699 14.801732 6.2895552 14.423615 5.8339844 13.886719 C 5.3787757 13.350256 5.1242493 12.686677 5.0390625 12.001953 z "
       id="path39" />
    <path
       d="m4.3594 4c-1.0846 8.804e-4 -1.96 0.44805-2.5254 1.1152s-0.83398 1.5309-0.83398 2.3867 0.26843 1.7183 0.83398 2.3848c0.56214 0.66249 1.4342 1.1049 2.5098 1.1094 1.0654 0.05516 1.9133-0.37544 2.5312-0.99609 0.46925-0.47133 0.78977-1.0676 1.125-1.6465 0.33508 0.57851 0.65601 1.1754 1.125 1.6465 0.61791 0.62066 1.4658 1.0513 2.5312 0.99609 1.0756-0.0045 1.9476-0.44688 2.5098-1.1094 0.56556-0.66652 0.83398-1.529 0.83398-2.3848s-0.26864-1.7195-0.83398-2.3867c-0.56534-0.66718-1.4408-1.1144-2.5254-1.1152h-0.001953c-1.1149 0-1.9833 0.46736-2.625 1.1133-0.42683 0.42962-0.7058 0.96443-1.0137 1.4766-0.30802-0.51246-0.58657-1.0467-1.0137-1.4766-0.64174-0.64593-1.5101-1.1133-2.625-1.1133v1c0.85209 0 1.4083 0.30731 1.916 0.81836 0.41839 0.42112 0.76455 1.0384 1.1191 1.6523-0.39829 0.7027-0.78453 1.3763-1.2305 1.8242-0.47987 0.482-0.98023 0.7473-1.7773 0.70312h-0.013672-0.015625c-0.82259 6.676e-4 -1.3756-0.30245-1.7637-0.75977-0.38805-0.45732-0.5957-1.0927-0.5957-1.7363s0.2094-1.282 0.59766-1.7402c0.38826-0.4582 0.94108-0.76105 1.7637-0.76172l-0.0019531-1zm7.2793 1c0.82259 6.677e-4 1.3774 0.30352 1.7656 0.76172 0.38826 0.4582 0.5957 1.0966 0.5957 1.7402s-0.20766 1.279-0.5957 1.7363c-0.38805 0.45732-0.94108 0.76043-1.7637 0.75977h-0.015625-0.013672c-0.79711 0.044176-1.2975-0.22112-1.7773-0.70312-0.44594-0.44793-0.83218-1.1215-1.2305-1.8242 0.35459-0.61398 0.70075-1.2312 1.1191-1.6523 0.50773-0.51104 1.0639-0.81836 1.916-0.81836zm-0.63867 1v1h-1v1h1v1h1v-1h1v-1h-1v-1h-1zm-8 1v1h3v-1h-3z"
       color="#000000"
       color-rendering="auto"
       dominant-baseline="auto"
       fill="#fff"
       image-rendering="auto"
       shape-rendering="auto"
       solid-color="#000000"
       style="font-feature-settings:normal;font-variant-alternates:normal;font-variant-caps:normal;font-variant-ligatures:normal;font-variant-numeric:normal;font-variant-position:normal;isolation:auto;mix-blend-mode:normal;shape-padding:0;text-decoration-color:#000000;text-decoration-line:none;text-decoration-style:solid;text-indent:0;text-orientation:mixed;text-transform:none;white-space:normal"
       id="base"
       transform="translate(4,4)" />
  </g>
</svg>
