<?xml version="1.0" encoding="UTF-8" standalone="no"?>
<svg
   xmlns:dc="http://purl.org/dc/elements/1.1/"
   xmlns:cc="http://creativecommons.org/ns#"
   xmlns:rdf="http://www.w3.org/1999/02/22-rdf-syntax-ns#"
   xmlns:svg="http://www.w3.org/2000/svg"
   xmlns="http://www.w3.org/2000/svg"
   xmlns:sodipodi="http://sodipodi.sourceforge.net/DTD/sodipodi-0.dtd"
   xmlns:inkscape="http://www.inkscape.org/namespaces/inkscape"
   id="svg2"
   width="24"
   height="24"
   version="1.0"
   sodipodi:docname="battlenet.svg"
   inkscape:version="0.92.2 5c3e80d, 2017-08-06">
  <metadata
     id="metadata58">
    <rdf:RDF>
      <cc:Work
         rdf:about="">
        <dc:format>image/svg+xml</dc:format>
        <dc:type
           rdf:resource="http://purl.org/dc/dcmitype/StillImage" />
      </cc:Work>
    </rdf:RDF>
  </metadata>
  <sodipodi:namedview
     pagecolor="#ffffff"
     bordercolor="#666666"
     borderopacity="1"
     objecttolerance="10"
     gridtolerance="10"
     guidetolerance="10"
     inkscape:pageopacity="0"
     inkscape:pageshadow="2"
     inkscape:window-width="640"
     inkscape:window-height="480"
     id="namedview56"
     showgrid="false"
     inkscape:zoom="9.8333333"
     inkscape:cx="12"
     inkscape:cy="12"
     inkscape:window-x="0"
     inkscape:window-y="25"
     inkscape:window-maximized="0"
     inkscape:current-layer="svg2" />
  <defs
     id="defs4">
    <linearGradient
       id="linearGradient3335"
       x1="11.375"
       x2="11.375"
       y1="22"
       y2="-9.8173"
       gradientUnits="userSpaceOnUse">
      <stop
         id="stop3330"
         offset="0" />
      <stop
         id="stop3333"
         stop-opacity="0"
         offset="1" />
    </linearGradient>
    <linearGradient
       id="linearGradient3181"
       x1="-3.0608"
       x2="-3.0608"
       y1="27.258"
       y2="7.2537"
       gradientTransform="translate(12.119 -7.2582)"
       gradientUnits="userSpaceOnUse">
      <stop
         id="stop3189"
         stop-color="#202020"
         offset="0" />
      <stop
         id="stop3191"
         stop-color="#363636"
         offset="1" />
    </linearGradient>
    <filter
       id="filter3194"
       x="-.18"
       y="-.18"
       width="1.36"
       height="1.36"
       color-interpolation-filters="sRGB">
      <feGaussianBlur
         id="feGaussianBlur3196"
         stdDeviation="1.2" />
    </filter>
    <clipPath
       id="clipPath2849">
      <rect
         id="rect2851"
         x="1"
         y="1"
         width="20"
         height="20"
         rx="2"
         ry="2"
         fill="#fff"
         fill-rule="evenodd" />
    </clipPath>
    <linearGradient
       id="linearGradient3845"
       x1="11"
       x2="21"
       y1="19.5"
       y2="19.5"
       gradientTransform="translate(1,-1)"
       gradientUnits="userSpaceOnUse"
       spreadMethod="reflect">
      <stop
         id="stop3833"
         stop-color="#fff"
         offset="0" />
      <stop
         id="stop3821"
         stop-color="#fff"
         stop-opacity=".49804"
         offset=".75" />
      <stop
         id="stop3835"
         stop-color="#fff"
         stop-opacity="0"
         offset="1" />
    </linearGradient>
    <linearGradient
       id="linearGradient3961"
       x1="10"
       x2="10"
       y1="1"
       y2="16"
       gradientTransform="translate(1,-1)"
       gradientUnits="userSpaceOnUse">
      <stop
         id="stop3825"
         stop-color="#fff"
         offset="0" />
      <stop
         id="stop3829"
         stop-color="#fff"
         stop-opacity="0"
         offset="1" />
    </linearGradient>
  </defs>
  <g
     id="layer1"
     transform="translate(0,2)">
    <g
       id="g3337"
       transform="translate(1,-1)">
      <rect
         id="rect3371"
         x=".5"
         y=".5"
         width="21"
         height="21.5"
         rx="2.5"
         ry="2.5"
         fill="url(#linearGradient3335)"
         opacity=".3" />
      <rect
         id="rect2553"
         x="1"
         y="2"
         width="20"
         height="20"
         rx="2.381"
         ry="2.3256"
         opacity=".5" />
    </g>
    <rect
       id="rect3173"
       x="2"
       width="20"
       height="20"
       rx="2"
       ry="2"
       fill="url(#linearGradient3181)"
       fill-rule="evenodd" />
    <path
       id="rect3050"
       d="m4 0c-1.108 0-2 0.892-2 2v16c0 1.108 0.892 2 2 2h16c1.108 0 2-0.892 2-2v-16c0-1.108-0.892-2-2-2h-16zm0 1.0312h16c0.5497 0 0.96875 0.41905 0.96875 0.96875v16c0 0.5497-0.41905 0.96875-0.96875 0.96875h-16c-0.5497 0-0.96875-0.41905-0.96875-0.96875v-16c0-0.5497 0.41905-0.96875 0.96875-0.96875z"
       fill="url(#linearGradient3961)"
       fill-rule="evenodd"
       opacity=".35" />
    <path
       id="path3235"
       d="m4 20c-1.108 0-2-0.892-2-2v-1c0 1.108 0.892 2 2 2h16c1.108 0 2-0.892 2-2v1c0 1.108-0.892 2-2 2h-16z"
       fill="url(#linearGradient3845)"
       fill-rule="evenodd"
       opacity=".2" />
  </g>
  <g
     id="layer2"
     transform="translate(0,2)">
    <rect
       id="rect2410"
       transform="translate(1,-1)"
       x="3"
       y="3"
       width="16"
       height="16"
       rx="2"
       ry="2"
       clip-path="url(#clipPath2849)"
       fill="#fff"
       filter="url(#filter3194)"
       opacity=".15" />
  </g>
  <defs
     id="defs37">
    <filter
       id="w">
      <feGaussianBlur
         stdDeviation="0.26998568"
         id="feGaussianBlur29" />
    </filter>
    <linearGradient
       id="a"
       gradientUnits="userSpaceOnUse"
       x1="8"
       y1="0.99937315"
       x2="8"
       y2="15.00001215">
      <stop
         stop-color="#009bd8"
         offset="0"
         id="stop32" />
      <stop
         stop-color="#009bd8"
         offset="1"
         id="stop34" />
    </linearGradient>
  </defs>
  <path
     d="m7.2031 1.0039c-0.77495-0.076604-1.1757 0.83669-1.3066 1.4004-0.094074 0.40486-0.13549 0.8457-0.14062 1.3047-0.18825-0.35523-0.50203-0.79699-0.9668-0.77734-0.05058 0.00214-0.10452 0.011269-0.1582 0.025391-0.13678 0.035984-0.68091 0.23742-0.75586 1.793-0.0050297 0.10439 0.010348 0.23655 0.015625 0.35547-1.4203 0.069729-2.5826 0.26366-2.8906 0.49805 0.13701-0.0513 1.0759-0.17554 2.3574-0.18945 0.16319-0.0017713 0.36711 0.018708 0.54688 0.025391 0.086839 0.7643 0.3467 1.7182 0.76367 2.6211-0.45986 0.65086-1.805 2.7739-1.2871 3.9141 0.32083 0.70638 1.3133 0.59471 1.8691 0.42578 0.38602-0.11731 0.77733-0.2969 1.166-0.51172-0.20019 0.33769-0.38313 0.79163-0.15039 1.1562 0.027151 0.04254 0.062438 0.083835 0.10156 0.12305 0.099696 0.09993 0.54675 0.46902 1.9375-0.24414 0.098607-0.050564 0.21146-0.13262 0.31836-0.20117 0.77893 1.2078 1.5409 2.1275 1.9023 2.2773-0.11314-0.09247-0.69286-0.83773-1.3457-1.9355-0.090082-0.15148-0.18038-0.35238-0.27148-0.52539 0.61674-0.45727 1.3078-1.1504 1.8789-1.9531 0.79615 0.07102 3.3158 0.1689 4.0488-0.84766 0.45412-0.62978-0.13759-1.4314-0.5625-1.8262-0.2849-0.26469-0.62445-0.5033-0.99024-0.72461 0.39395 0.0038147 0.8811-0.064134 1.082-0.44727 0.02343-0.044675 0.042091-0.0951 0.056641-0.14844 0.037087-0.13591 0.1322-0.70644-1.1836-1.5488-0.099992-0.064016-0.2348-0.1237-0.35742-0.18555 0.65071-1.261 1.0636-2.363 1.0137-2.7461-0.02388 0.14377-0.38308 1.0172-1.0117 2.1289-0.081431 0.14401-0.20319 0.31241-0.30078 0.4668-0.7041-0.29923-1.6425-0.54457-2.6172-0.63477-0.33629-0.72188-1.5109-2.9447-2.7617-3.0684zm0.51367 1.5547c0.46632-0.057363 1.2477 0.79107 1.584 1.4766-0.92171-0.013868-1.8313 0.13058-2.5566 0.51758 0.048025-1.1075 0.33978-1.9163 0.97266-1.9941zm-2.5527 1.2324c0.23288-0.044728 0.41491 0.16156 0.60156 0.36328 0.012198 0.31258 0.038345 0.62977 0.078125 0.95117-0.41139-0.019352-0.82305-0.039737-1.2168-0.035156 0.019273-0.71326 0.19774-1.2141 0.53711-1.2793zm3.375 0.66016c1.372 0.021103 2.7133 0.39598 3.6504 0.86328-0.19426 0.2776-0.40651 0.55321-0.62305 0.83398-0.27064-0.41928-0.67422-0.82508-1.2383-1.1895 0.49264 0.37865 0.88758 0.81899 1.1133 1.3496-0.7517-0.28479-1.5333-0.51543-2.2637-0.70508-0.64989-0.19613-1.3741-0.33262-2.1152-0.41797l-0.060547 0.60547c0.67735 0.12345 1.3007 0.26358 1.7715 0.40039 1.0274 0.29856 2.0596 0.71488 2.877 1.1797-0.002483 0.61704-0.18209 1.2983-0.48047 1.7949-0.70975 1.1812-1.7159 2.1542-2.5957 2.7266-0.14157-0.3021-0.27299-0.62194-0.40625-0.94336 0.49217-0.028299 1.0382-0.17284 1.625-0.4707-0.56725 0.23191-1.1389 0.34934-1.7051 0.28516-0.0023343-0.005757-0.0035292-0.01182-0.0058594-0.017578 0.61645-0.50146 1.1999-1.0527 1.7246-1.582 0.49557-0.46221 0.97706-1.019 1.4219-1.6152l-0.49805-0.35547c-0.44608 0.52222-0.87996 0.98871-1.2344 1.3262-0.77345 0.73646-1.6499 1.4184-2.4629 1.8906-0.53556-0.31066-1.0394-0.80696-1.3223-1.3125-0.67855-1.2128-1.0228-2.5769-1.0762-3.625 0.35618 0.030087 0.72081 0.077491 1.0918 0.12695-0.23553 0.44625-0.39223 1.0028-0.42773 1.6816 0.083093-0.61403 0.26842-1.1749 0.61719-1.6348 0.1281 0.79044 0.31736 1.5782 0.51758 2.3027 0.15432 0.65834 0.39899 1.3516 0.69531 2.0332l0.55664-0.25c-0.23128-0.64568-0.42073-1.2542-0.53711-1.7285-0.25397-1.035-0.40781-2.1313-0.41211-3.0684 0.53804-0.30638 1.2215-0.49331 1.8027-0.48438zm4.0039 1.0586c0.6353 0.37961 1.0021 0.79304 0.88672 1.125-0.071355 0.20537-0.30826 0.2669-0.55469 0.32227-0.30306-0.16162-0.61998-0.31098-0.94922-0.44922 0.21432-0.33361 0.43063-0.66768 0.61719-0.99805zm-0.56445 2.0586c0.93945 0.59514 1.4987 1.2514 1.25 1.8359-0.18325 0.43069-1.3117 0.67981-2.0762 0.62695 0.47292-0.78768 0.80016-1.644 0.82617-2.4629zm-7.0117 1.082c0.44879 0.80155 1.0292 1.5115 1.7285 1.9434-0.98747 0.51233-1.8365 0.66683-2.2207 0.16016-0.28306-0.37333 0.063966-1.4709 0.49219-2.1035zm2.6973 2.416c0.18307 0.35352 0.36787 0.70691 0.5625 1.0352-0.63906 0.34895-1.1736 0.45216-1.4023 0.18945-0.14444-0.16587-0.076031-0.40377 0-0.64648 0.2835-0.17725 0.56337-0.36901 0.83984-0.57812z"
     fill="url(#a)"
     id="base"
     transform="translate(4,4)" />
  <path
     style="opacity:0.2;fill:#000000"
     d="M 11.203125 4.0039062 C 10.428175 3.9273023 10.027384 4.8405869 9.8964844 5.4042969 C 9.8024104 5.8091569 9.7609894 6.2499844 9.7558594 6.7089844 C 9.5676094 6.3537544 9.2538325 5.9119906 8.7890625 5.9316406 C 8.7384825 5.9337806 8.6845394 5.9429093 8.6308594 5.9570312 C 8.4940794 5.9930153 7.94995 6.19442 7.875 7.75 C 7.86997 7.85439 7.885348 7.9865488 7.890625 8.1054688 C 6.470325 8.1751978 5.308 8.3691256 5 8.6035156 C 5.13701 8.5522156 6.0759219 8.4279725 7.3574219 8.4140625 C 7.5206119 8.4122925 7.7245269 8.4327701 7.9042969 8.4394531 C 8.0338257 7.1801828 8.5042617 6.9903365 8.6308594 6.9570312 C 8.6845394 6.9429093 8.7384825 6.9337806 8.7890625 6.9316406 C 8.8351566 6.9296918 8.8728669 6.9504378 8.9160156 6.9570312 C 8.9868073 6.872292 9.0669715 6.8096688 9.1640625 6.7910156 C 9.3969425 6.7462876 9.578975 6.9525769 9.765625 7.1542969 C 9.7675779 7.2043397 9.7746771 7.2563631 9.7773438 7.3066406 C 9.7971884 6.9937972 9.830575 6.6879465 9.8964844 6.4042969 C 10.027384 5.8405869 10.428175 4.9273023 11.203125 5.0039062 C 12.243131 5.1067594 13.198754 6.6207917 13.695312 7.5566406 C 14.640943 7.7008804 15.520133 7.980686 16.189453 8.3144531 C 16.144915 8.3780982 16.093139 8.4423374 16.046875 8.5058594 C 16.189866 8.5535957 16.321185 8.6061136 16.451172 8.6582031 C 16.480131 8.6089173 16.515222 8.5589015 16.542969 8.5097656 C 16.586205 8.5356008 16.617521 8.5617785 16.658203 8.5878906 C 16.737 8.4693535 16.822119 8.3475725 16.882812 8.2402344 C 16.949028 8.1231337 16.97695 8.0506921 17.037109 7.9394531 C 16.98265 7.912635 16.934593 7.8845251 16.880859 7.8574219 C 17.531569 6.5964219 17.944431 5.4944281 17.894531 5.1113281 C 17.870651 5.2550981 17.511433 6.1285344 16.882812 7.2402344 C 16.801382 7.3842444 16.679621 7.5526412 16.582031 7.7070312 C 15.877931 7.4078013 14.939544 7.1624656 13.964844 7.0722656 C 13.628554 6.3503856 12.453925 4.1276063 11.203125 4.0039062 z M 12.591797 7.0605469 C 11.990679 7.1095804 11.420264 7.2453878 10.919922 7.4785156 C 10.880617 7.6109219 10.841611 7.7420327 10.816406 7.8964844 C 11.341702 7.6152985 11.985105 7.4426605 12.539062 7.4511719 C 12.679273 7.4533285 12.815907 7.4731548 12.955078 7.4824219 C 12.843434 7.3320636 12.718625 7.1892157 12.591797 7.0605469 z M 14.328125 7.9589844 C 14.407368 8.0198914 14.478845 8.0861723 14.552734 8.1503906 C 14.559788 8.151497 14.567174 8.1512227 14.574219 8.1523438 C 14.488063 8.0886461 14.423283 8.0204607 14.328125 7.9589844 z M 17.265625 8.0625 C 17.161215 8.2894725 17.048393 8.5252952 16.923828 8.7695312 C 17.032274 8.8533275 17.118391 8.9381132 17.195312 9.0214844 C 17.20815 9.0290079 17.226355 9.035333 17.238281 9.0429688 C 17.779383 9.3893756 18.046839 9.6748232 18.212891 9.9179688 C 18.269571 9.866061 18.326827 9.8134817 18.365234 9.7402344 C 18.388664 9.6955594 18.407325 9.6451369 18.421875 9.5917969 C 18.458669 9.4569729 18.548634 8.8938087 17.265625 8.0625 z M 8.84375 8.0761719 C 8.7820274 8.1854927 8.7318787 8.3178283 8.6972656 8.4804688 C 9.0339421 8.5106553 9.3768311 8.5529845 9.7265625 8.5996094 C 9.6490071 8.7465507 9.5941046 8.9244165 9.5351562 9.0957031 C 9.5720496 9.0973397 9.607581 9.0979018 9.6445312 9.0996094 C 9.6957989 8.9953362 9.754833 8.8956953 9.8183594 8.7988281 C 9.7973832 8.5829149 9.7738904 8.3661012 9.765625 8.1542969 C 9.7476147 8.1348324 9.7289116 8.1208824 9.7109375 8.1015625 C 9.4178569 8.0878306 9.128508 8.0786589 8.84375 8.0761719 z M 11.0625 8.1855469 L 11.039062 8.4277344 C 11.19344 8.3622656 11.35153 8.3033547 11.517578 8.2558594 C 11.365099 8.2335497 11.216966 8.2033363 11.0625 8.1855469 z M 10.767578 8.3417969 C 10.761945 8.4149376 10.74744 8.4766326 10.744141 8.5527344 C 10.755794 8.5465167 10.769503 8.5432022 10.78125 8.5371094 C 10.777187 8.4724603 10.770442 8.405409 10.767578 8.3417969 z M 12.539062 8.4511719 C 12.055891 8.4437481 11.507605 8.5774758 11.025391 8.796875 C 11.692298 8.9191175 12.308899 9.0564156 12.773438 9.1914062 C 13.711549 9.4640194 14.635124 9.8415635 15.414062 10.257812 C 15.18502 9.7508231 14.80424 9.324933 14.328125 8.9589844 C 14.892205 9.3234044 15.295766 9.7291575 15.566406 10.148438 C 15.722007 9.9466832 15.867585 9.7479066 16.013672 9.5488281 C 15.983476 9.5358701 15.956189 9.5205799 15.925781 9.5078125 C 15.977848 9.4267651 16.024325 9.3466671 16.076172 9.265625 C 15.934741 9.1982717 15.780038 9.1363814 15.623047 9.0742188 C 15.603707 9.0993202 15.585825 9.1232582 15.566406 9.1484375 C 15.533031 9.0967322 15.478876 9.0473368 15.441406 8.9960938 C 15.379249 8.973303 15.310151 8.955364 15.246094 8.9335938 C 15.32101 9.0535911 15.385896 9.1781024 15.441406 9.3085938 C 14.689706 9.0238038 13.908134 8.7931656 13.177734 8.6035156 C 12.981802 8.5443854 12.768415 8.5016464 12.560547 8.453125 C 12.553299 8.4529938 12.546312 8.4512834 12.539062 8.4511719 z M 8.6601562 8.6992188 C 8.6452042 8.8170572 8.6305853 8.9358905 8.6269531 9.0703125 C 8.6515997 9.0700258 8.6783426 9.0723631 8.703125 9.0722656 C 8.6854415 8.9446726 8.6704989 8.8204076 8.6601562 8.6992188 z M 10.808594 8.9003906 C 10.785345 8.9129111 10.759076 8.9225936 10.736328 8.9355469 C 10.740628 9.8726469 10.894467 10.968906 11.148438 12.003906 C 11.205755 12.2375 11.323077 12.568358 11.412109 12.855469 L 11.685547 12.732422 C 11.454267 12.086742 11.264817 11.478206 11.148438 11.003906 C 10.97625 10.302193 10.873331 9.5897408 10.808594 8.9003906 z M 8.6347656 9.4726562 C 8.6735211 10.233323 8.8706611 11.161252 9.2324219 12.076172 C 9.6379266 12.697985 10.12439 13.241138 10.695312 13.59375 C 10.53899 13.674855 10.394183 13.729049 10.246094 13.791016 C 10.482329 14.030802 10.752149 14.247126 11.033203 14.410156 C 11.673155 14.038465 12.341117 13.520742 12.978516 12.964844 C 12.981282 12.962287 12.983564 12.959589 12.986328 12.957031 C 13.27185 12.692868 13.546806 12.426175 13.806641 12.164062 C 14.007273 11.976936 14.203918 11.765251 14.398438 11.550781 C 14.45845 11.483553 14.507368 11.437101 14.568359 11.367188 C 14.671025 11.249094 14.767171 11.119779 14.867188 10.996094 C 14.660133 10.899365 14.473738 10.794135 14.253906 10.705078 C 13.991929 10.992624 13.713734 11.312299 13.496094 11.519531 C 12.86384 12.121548 12.167268 12.657195 11.488281 13.101562 C 11.560061 13.322711 11.601089 13.496636 11.685547 13.732422 L 11.128906 13.982422 C 11.029271 13.753239 10.94586 13.523018 10.859375 13.292969 C 10.391328 12.982063 9.9625572 12.547299 9.7109375 12.097656 C 9.556668 11.821924 9.4249085 11.537835 9.3046875 11.251953 C 9.3032736 11.261967 9.3001871 11.271208 9.2988281 11.28125 C 9.2994239 11.269858 9.3020706 11.261323 9.3027344 11.25 C 9.0526731 10.654874 8.880838 10.053926 8.7714844 9.4882812 C 8.7266316 9.4840016 8.6793576 9.476423 8.6347656 9.4726562 z M 9.40625 9.5625 C 9.3585883 9.7894515 9.3125797 10.018305 9.2988281 10.28125 C 9.332459 10.032729 9.387801 9.7962938 9.4589844 9.5683594 C 9.4412325 9.5660648 9.4239696 9.5647659 9.40625 9.5625 z M 16.404297 9.734375 C 16.250574 9.991556 16.09189 10.249247 15.925781 10.507812 C 16.255021 10.646052 16.57194 10.795411 16.875 10.957031 C 17.12143 10.901661 17.358328 10.840136 17.429688 10.634766 C 17.473073 10.509942 17.429263 10.372202 17.347656 10.230469 C 17.325336 10.216707 17.305729 10.201129 17.283203 10.1875 C 17.295752 10.187621 17.30954 10.185579 17.322266 10.185547 C 17.260418 10.091016 17.175661 9.9953491 17.068359 9.8984375 C 17.004088 9.9180195 16.944235 9.941475 16.875 9.9570312 C 16.72473 9.8768932 16.561194 9.8086235 16.404297 9.734375 z M 18.240234 10.884766 C 18.003085 11.130091 17.615675 11.190707 17.283203 11.1875 C 17.648993 11.40881 17.988537 11.647419 18.273438 11.912109 C 18.476075 12.100387 18.712389 12.382798 18.859375 12.693359 C 19.255924 12.070743 18.688441 11.297705 18.273438 10.912109 C 18.263221 10.902617 18.250591 10.894191 18.240234 10.884766 z M 15.521484 11.310547 C 15.438944 11.621415 15.319704 11.91673 15.169922 12.166016 C 14.509811 13.264603 13.596454 14.168345 12.763672 14.751953 C 13.10689 14.710108 13.450791 14.618409 13.792969 14.478516 C 13.368332 14.694061 12.974633 14.80598 12.597656 14.875 C 12.589997 14.880031 12.581859 14.887607 12.574219 14.892578 C 12.572169 14.888203 12.570405 14.883289 12.568359 14.878906 C 12.434633 14.902262 12.294769 14.941928 12.167969 14.949219 C 12.28579 15.233401 12.404112 15.51266 12.527344 15.783203 C 12.560017 15.76137 12.5909 15.74327 12.623047 15.722656 C 12.643718 15.754709 12.662953 15.780862 12.683594 15.8125 C 12.770397 15.753515 12.858771 15.681527 12.947266 15.615234 C 12.934111 15.589257 12.92139 15.564106 12.908203 15.539062 C 13.524943 15.081793 14.216009 14.388638 14.787109 13.585938 C 14.807773 13.587781 14.854029 13.587984 14.876953 13.589844 C 14.974664 13.448368 15.080733 13.314448 15.169922 13.166016 C 15.19527 13.123829 15.214684 13.073996 15.238281 13.029297 C 15.211021 13.028186 15.178787 13.033078 15.152344 13.03125 C 15.285873 12.808848 15.402966 12.580568 15.509766 12.349609 C 15.598495 12.029256 15.649092 11.691681 15.650391 11.371094 C 15.611789 11.349142 15.561021 11.332275 15.521484 11.310547 z M 8.4160156 11.451172 C 7.8843481 12.273253 7.04901 13.800458 7.3398438 14.804688 C 7.5720301 13.734019 8.340235 12.524403 8.6679688 12.060547 C 8.5750711 11.859388 8.4931407 11.654733 8.4160156 11.451172 z M 17.097656 12.570312 C 16.819637 12.821103 16.21502 12.978092 15.646484 13.019531 C 15.567822 13.219598 15.478063 13.417597 15.376953 13.613281 C 15.880213 13.631748 16.504825 13.623814 17.142578 13.521484 C 17.176572 13.483494 17.210874 13.44576 17.228516 13.404297 C 17.342132 13.137272 17.280502 12.854621 17.097656 12.570312 z M 13.792969 13.478516 C 13.64359 13.539587 13.493559 13.569314 13.34375 13.613281 C 13.317766 13.638348 13.291832 13.662432 13.265625 13.6875 C 13.43987 13.623402 13.61044 13.571167 13.792969 13.478516 z M 8.4707031 13.748047 C 8.3538042 14.167448 8.3271667 14.559443 8.4746094 14.753906 C 8.8588094 15.260576 9.7078425 15.10608 10.695312 14.59375 C 10.408896 14.416854 10.147997 14.183154 9.9023438 13.925781 C 9.2697785 14.130088 8.7499142 14.116969 8.4746094 13.753906 C 8.4733068 13.752188 8.4719791 13.749795 8.4707031 13.748047 z M 12.394531 14.474609 C 12.289369 14.564531 12.189329 14.658811 12.082031 14.746094 C 12.084431 14.751854 12.085591 14.757872 12.087891 14.763672 C 12.23336 14.780161 12.379368 14.783692 12.525391 14.777344 C 12.48067 14.679029 12.437857 14.575642 12.394531 14.474609 z M 11.792969 15.302734 C 11.539549 15.401661 11.324467 15.440374 11.146484 15.423828 C 11.038931 15.496149 10.932825 15.576629 10.824219 15.644531 C 10.748189 15.887241 10.679779 16.125146 10.824219 16.291016 C 10.846984 16.317166 10.885436 16.324733 10.914062 16.34375 C 11.189522 16.347364 11.587279 16.26548 12.164062 15.988281 C 12.036643 15.767608 11.914906 15.535751 11.792969 15.302734 z M 10.416016 15.888672 C 10.357559 15.920981 10.298783 15.945939 10.240234 15.976562 C 10.251255 15.998932 10.251723 16.023146 10.265625 16.044922 C 10.276944 16.062657 10.294758 16.078461 10.308594 16.095703 C 10.342755 16.02427 10.377836 15.953075 10.416016 15.888672 z M 13.287109 16.230469 C 13.217979 16.289644 13.150086 16.342402 13.082031 16.396484 C 13.687736 17.255606 14.236165 17.880116 14.525391 18 C 14.419219 17.913226 13.889884 17.218802 13.287109 16.230469 z "
     id="path40" />
  <path
     style="opacity:0.1;fill:#000000"
     d="M 11.203125 5.0039062 C 10.428175 4.9273023 10.027384 5.8405869 9.8964844 6.4042969 C 9.8024104 6.8091569 9.7609894 7.2499844 9.7558594 7.7089844 C 9.5676094 7.3537544 9.2538325 6.9119906 8.7890625 6.9316406 C 8.7384825 6.9337806 8.6845394 6.9429093 8.6308594 6.9570312 C 8.4940794 6.9930153 7.94995 7.19442 7.875 8.75 C 7.86997 8.85439 7.885348 8.9865488 7.890625 9.1054688 C 6.470325 9.1751978 5.308 9.3691256 5 9.6035156 C 5.13701 9.5522156 6.0759219 9.4279725 7.3574219 9.4140625 C 7.5206119 9.4122925 7.7245269 9.4327701 7.9042969 9.4394531 C 7.9911359 10.203753 8.2509987 11.157647 8.6679688 12.060547 C 8.2081087 12.711407 6.8629594 14.834409 7.3808594 15.974609 C 7.7016894 16.680989 8.6942 16.569321 9.25 16.400391 C 9.63602 16.283081 10.027346 16.103492 10.416016 15.888672 C 10.215826 16.226362 10.032885 16.680352 10.265625 17.044922 C 10.292775 17.087462 10.328068 17.128759 10.367188 17.167969 C 10.466888 17.267899 10.913938 17.636988 12.304688 16.923828 C 12.403298 16.873268 12.516147 16.791206 12.623047 16.722656 C 13.401977 17.930456 14.163991 18.8502 14.525391 19 C 14.412251 18.90753 13.832527 18.162223 13.179688 17.064453 C 13.089607 16.912973 12.999303 16.712073 12.908203 16.539062 C 13.524943 16.081792 14.216009 15.388637 14.787109 14.585938 C 15.583259 14.656958 18.102938 14.754841 18.835938 13.738281 C 19.290057 13.108501 18.698348 12.306909 18.273438 11.912109 C 17.988537 11.647419 17.648993 11.40881 17.283203 11.1875 C 17.677153 11.1913 18.164334 11.123374 18.365234 10.740234 C 18.388664 10.695564 18.407325 10.645137 18.421875 10.591797 C 18.458965 10.455887 18.554081 9.8853287 17.238281 9.0429688 C 17.138291 8.9789527 17.003479 8.9192719 16.880859 8.8574219 C 17.531569 7.5964219 17.944431 6.4944281 17.894531 6.1113281 C 17.870651 6.2550981 17.511433 7.1285344 16.882812 8.2402344 C 16.801382 8.3842444 16.679621 8.5526413 16.582031 8.7070312 C 15.877931 8.4078013 14.939544 8.1624656 13.964844 8.0722656 C 13.628554 7.3503856 12.453925 5.1276062 11.203125 5.0039062 z M 11.154297 5.5019531 C 11.399975 5.5262499 11.748324 5.8017724 12.095703 6.1542969 C 11.956212 6.1102621 11.830788 6.0410297 11.65625 6.0625 A 0.50005 0.50005 0 0 0 11.378906 6.1894531 C 11.01518 6.3386336 10.713782 6.61217 10.554688 6.9648438 C 10.378547 7.3553043 10.319108 7.8337026 10.283203 8.3398438 C 10.27923 8.2721585 10.268245 8.2019185 10.265625 8.1347656 A 0.50005 0.50005 0 0 0 10.207031 7.921875 A 0.50005 0.50005 0 0 0 10.255859 7.7148438 C 10.260693 7.2823376 10.299527 6.8760103 10.382812 6.5175781 C 10.43629 6.2872803 10.559359 5.9671285 10.710938 5.7617188 C 10.862516 5.5563088 10.968794 5.4836161 11.154297 5.5019531 z M 11.716797 6.5585938 C 12.183117 6.5012308 12.964481 7.3496263 13.300781 8.0351562 C 12.379071 8.0212882 11.469441 8.1657344 10.744141 8.5527344 C 10.792161 7.4452344 11.083917 6.6363938 11.716797 6.5585938 z M 8.8105469 7.4316406 C 8.8142516 7.431484 8.8186374 7.4375123 8.8222656 7.4375 C 8.7813492 7.4613281 8.7336666 7.4746356 8.6972656 7.5039062 C 8.716122 7.4881895 8.7555392 7.4420044 8.7578125 7.4414062 C 8.7830647 7.434763 8.8049682 7.4318767 8.8105469 7.4316406 z M 9.1640625 7.7910156 C 9.3969425 7.7462876 9.578975 7.9525769 9.765625 8.1542969 C 9.777823 8.4668769 9.80397 8.7840688 9.84375 9.1054688 C 9.43236 9.0861168 9.0207031 9.0657315 8.6269531 9.0703125 C 8.6462261 8.3570525 8.8246925 7.8562156 9.1640625 7.7910156 z M 12.539062 8.4511719 C 13.911062 8.4722749 15.252353 8.8471531 16.189453 9.3144531 C 15.995193 9.5920531 15.782946 9.8676675 15.566406 10.148438 C 15.295766 9.7291575 14.892205 9.3234044 14.328125 8.9589844 C 14.820765 9.3376344 15.215686 9.7779837 15.441406 10.308594 C 14.689706 10.023804 13.908134 9.7931656 13.177734 9.6035156 C 12.527844 9.4073856 11.8036 9.2708969 11.0625 9.1855469 L 11.001953 9.7910156 C 11.679303 9.9144656 12.302638 10.054596 12.773438 10.191406 C 13.800838 10.489966 14.832991 10.906274 15.650391 11.371094 C 15.647891 11.988134 15.468302 12.669416 15.169922 13.166016 C 14.460172 14.347216 13.454019 15.320178 12.574219 15.892578 C 12.432649 15.590478 12.301229 15.270639 12.167969 14.949219 C 12.660139 14.920919 13.206169 14.776376 13.792969 14.478516 C 13.225719 14.710426 12.654091 14.827852 12.087891 14.763672 C 12.085591 14.757872 12.084431 14.751854 12.082031 14.746094 C 12.698481 14.244634 13.281941 13.693362 13.806641 13.164062 C 14.302211 12.701852 14.783676 12.145028 15.228516 11.548828 L 14.730469 11.193359 C 14.284389 11.715579 13.850534 12.182041 13.496094 12.519531 C 12.722644 13.255991 11.846203 13.937956 11.033203 14.410156 C 10.497643 14.099496 9.9938375 13.603196 9.7109375 13.097656 C 9.0323875 11.884856 8.6881656 10.520756 8.6347656 9.4726562 C 8.9909456 9.5027432 9.3555725 9.5501504 9.7265625 9.5996094 C 9.4910325 10.045859 9.3343281 10.60245 9.2988281 11.28125 C 9.3819211 10.66722 9.5672456 10.106384 9.9160156 9.6464844 C 10.044116 10.436924 10.233374 11.224719 10.433594 11.949219 C 10.587914 12.607559 10.832586 13.300822 11.128906 13.982422 L 11.685547 13.732422 C 11.454267 13.086742 11.264817 12.478206 11.148438 12.003906 C 10.894467 10.968906 10.740628 9.8726469 10.736328 8.9355469 C 11.274368 8.6291669 11.957862 8.4422419 12.539062 8.4511719 z M 16.542969 9.5097656 C 17.178269 9.8893756 17.545067 10.302806 17.429688 10.634766 C 17.358328 10.840136 17.12143 10.901661 16.875 10.957031 C 16.57194 10.795411 16.255021 10.646052 15.925781 10.507812 C 16.140101 10.174202 16.356409 9.8401356 16.542969 9.5097656 z M 17.908203 10.361328 C 17.921751 10.404511 17.939681 10.460102 17.939453 10.460938 C 17.932413 10.486747 17.924147 10.50348 17.921875 10.507812 C 17.919329 10.512669 17.908994 10.514996 17.90625 10.519531 C 17.90615 10.466492 17.917096 10.412785 17.908203 10.361328 z M 16.410156 11.289062 C 16.485216 11.326705 16.567446 11.359412 16.640625 11.398438 A 0.50005 0.50005 0 0 0 16.863281 11.457031 A 0.50005 0.50005 0 0 0 17.023438 11.615234 C 17.370292 11.825088 17.684051 12.047456 17.933594 12.279297 C 18.107211 12.440611 18.323507 12.70465 18.425781 12.9375 C 18.528055 13.17035 18.537627 13.29562 18.429688 13.445312 C 18.286453 13.643957 17.872028 13.80799 17.390625 13.931641 C 17.497554 13.833573 17.621052 13.760373 17.689453 13.599609 C 17.893063 13.121082 17.740023 12.592455 17.453125 12.197266 C 17.205194 11.855752 16.823655 11.569047 16.410156 11.289062 z M 15.978516 11.568359 C 16.917966 12.163499 17.477216 12.819797 17.228516 13.404297 C 17.045266 13.834987 15.916844 14.08411 15.152344 14.03125 C 15.625264 13.24357 15.952506 12.387259 15.978516 11.568359 z M 8.9667969 12.650391 C 9.4155869 13.451941 9.9960125 14.16185 10.695312 14.59375 C 9.7078425 15.10608 8.8588094 15.260576 8.4746094 14.753906 C 8.1915494 14.380576 8.5385729 13.282991 8.9667969 12.650391 z M 11.605469 14.595703 A 0.50005 0.50005 0 0 0 11.619141 14.933594 C 11.597982 14.88131 11.599058 14.887192 11.625 14.951172 A 0.50005 0.50005 0 0 0 11.679688 15.048828 A 0.50005 0.50005 0 0 0 11.693359 15.105469 L 11.6875 15.109375 C 11.863115 15.448156 12.040018 15.786911 12.226562 16.101562 C 11.587502 16.450512 11.052919 16.553726 10.824219 16.291016 C 10.679779 16.125146 10.748189 15.887241 10.824219 15.644531 C 10.977716 15.548562 11.127892 15.436959 11.279297 15.332031 L 11.347656 14.794922 C 11.434691 14.743495 11.517823 14.65106 11.605469 14.595703 z M 7.9355469 14.626953 C 7.9670071 14.770517 7.9691781 14.915526 8.0761719 15.056641 C 8.3901981 15.470768 8.9241214 15.602555 9.4101562 15.552734 C 9.8330004 15.509391 10.275164 15.322302 10.728516 15.103516 C 10.671462 15.140646 10.615993 15.184816 10.558594 15.220703 A 0.50005 0.50005 0 0 0 10.394531 15.388672 A 0.50005 0.50005 0 0 0 10.173828 15.451172 C 9.8062531 15.654333 9.4455989 15.818511 9.1054688 15.921875 C 8.8774665 15.991174 8.5358492 16.047478 8.28125 16.019531 C 8.0266508 15.991584 7.9119736 15.934989 7.8359375 15.767578 C 7.7346428 15.544569 7.8015808 15.104432 7.9355469 14.626953 z M 10.685547 16.761719 C 10.726489 16.785287 10.763262 16.817087 10.806641 16.833984 C 10.784191 16.825639 10.722499 16.816253 10.720703 16.814453 C 10.699363 16.793063 10.6879 16.776017 10.6875 16.775391 C 10.685362 16.772041 10.687486 16.765055 10.685547 16.761719 z "
     id="path45" />
  <path
     style="opacity:0.1;fill:#ffffff"
     d="M 11.716797 6.5585938 C 11.083917 6.6363938 10.792161 7.4452344 10.744141 8.5527344 C 10.799362 8.5232696 10.86264 8.5052055 10.919922 8.4785156 C 11.072708 7.9638291 11.321016 7.6072471 11.716797 7.5585938 C 11.959981 7.5286791 12.285053 7.749352 12.591797 8.0605469 C 12.82576 8.0414624 13.062208 8.0315667 13.300781 8.0351562 C 12.964481 7.3496263 12.183117 6.5012308 11.716797 6.5585938 z M 17.894531 7.1113281 C 17.873167 7.2399541 17.54808 7.9946405 17.037109 8.9394531 C 17.106927 8.9738345 17.182108 9.0070051 17.238281 9.0429688 C 17.248796 9.0497001 17.25529 9.0558035 17.265625 9.0625 C 17.68384 8.1533631 17.933493 7.4104478 17.894531 7.1113281 z M 8.9160156 7.9570312 C 8.7393635 8.1684879 8.6407123 8.5611104 8.6269531 9.0703125 C 8.6971038 9.0694963 8.7725651 9.0755502 8.84375 9.0761719 C 8.9278244 8.9272623 9.0295042 8.8168671 9.1640625 8.7910156 C 9.3744714 8.7506035 9.5426367 8.9206605 9.7109375 9.1015625 C 9.7558239 9.1036656 9.7988464 9.1033565 9.84375 9.1054688 C 9.8103386 8.8355237 9.7913334 8.5704089 9.7773438 8.3066406 C 9.7688637 8.4403262 9.7573952 8.5715651 9.7558594 8.7089844 C 9.5862793 8.3889847 9.3079381 8.0169201 8.9160156 7.9570312 z M 12.955078 8.4824219 C 13.091192 8.6657355 13.212374 8.8549431 13.300781 9.0351562 C 12.68177 9.0258426 12.073505 9.0968455 11.517578 9.2558594 C 11.876108 9.3083169 12.222641 9.3742497 12.560547 9.453125 C 13.51639 9.4704308 14.448371 9.6624831 15.246094 9.9335938 C 15.065384 9.6441388 14.825235 9.387225 14.552734 9.1503906 C 14.35866 9.1199506 14.163616 9.0906603 13.964844 9.0722656 C 13.90817 8.9506092 13.795958 8.7463234 13.695312 8.5566406 C 13.452287 8.5195713 13.205054 8.4990672 12.955078 8.4824219 z M 10.816406 8.8964844 C 10.790573 8.9103126 10.761548 8.9211859 10.736328 8.9355469 C 10.736911 9.0626237 10.761618 9.2094148 10.767578 9.3417969 C 10.779468 9.1874131 10.793682 9.0357317 10.816406 8.8964844 z M 14.574219 9.1523438 C 14.935795 9.4196696 15.226287 9.7019043 15.441406 9.9960938 C 15.506761 10.020057 15.559941 10.049231 15.623047 10.074219 C 15.769923 9.883591 15.909446 9.6945539 16.046875 9.5058594 C 15.602428 9.3574846 15.100001 9.2360106 14.574219 9.1523438 z M 11.039062 9.4277344 C 10.953061 9.4642059 10.862958 9.4947313 10.78125 9.5371094 C 10.78881 9.6574044 10.797016 9.7771094 10.808594 9.9003906 C 10.878093 9.8629619 10.95208 9.8302301 11.025391 9.796875 C 11.016402 9.7952274 11.010961 9.7926573 11.001953 9.7910156 L 11.039062 9.4277344 z M 7.9042969 9.4394531 C 7.8938788 9.540737 7.8805795 9.6341978 7.875 9.75 C 7.86997 9.85439 7.885348 9.9865488 7.890625 10.105469 C 6.470325 10.175199 5.308 10.369126 5 10.603516 C 5.13701 10.552216 6.0759219 10.427972 7.3574219 10.414062 C 7.5206119 10.412263 7.7245269 10.432773 7.9042969 10.439453 C 7.9717888 11.033473 8.1469659 11.741051 8.4160156 12.451172 C 8.5031299 12.316473 8.6061642 12.148022 8.6679688 12.060547 C 8.2509987 11.157647 7.9911359 10.203753 7.9042969 9.4394531 z M 8.6347656 9.4726562 C 8.6383745 9.5434897 8.6538771 9.625643 8.6601562 9.6992188 C 8.669991 9.6217101 8.6825252 9.5497311 8.6972656 9.4804688 C 8.6768006 9.4786338 8.6551756 9.4743803 8.6347656 9.4726562 z M 16.658203 9.5878906 C 16.631282 9.6283887 16.606882 9.6677161 16.582031 9.7070312 C 16.541522 9.6898157 16.493194 9.6750427 16.451172 9.6582031 C 16.332726 9.8597905 16.205998 10.062694 16.076172 10.265625 C 16.111639 10.282516 16.155056 10.297301 16.189453 10.314453 C 16.134784 10.392577 16.070886 10.47086 16.013672 10.548828 C 16.148311 10.606605 16.273992 10.672711 16.404297 10.734375 C 16.448913 10.659732 16.501002 10.584082 16.542969 10.509766 C 16.756128 10.637134 16.923725 10.767809 17.068359 10.898438 C 17.232849 10.848321 17.378376 10.782437 17.429688 10.634766 C 17.49421 10.449127 17.395002 10.237916 17.195312 10.021484 C 17.100522 9.9659328 16.988853 9.9118945 16.880859 9.8574219 C 16.896661 9.8268003 16.90831 9.7999572 16.923828 9.7695312 C 16.844635 9.7083389 16.752236 9.6482463 16.658203 9.5878906 z M 9.9160156 9.6464844 C 9.8794304 9.6947269 9.8514183 9.7484188 9.8183594 9.7988281 C 9.8283398 9.9015587 9.8309249 10.00185 9.84375 10.105469 C 9.7763946 10.102301 9.7118213 10.102719 9.6445312 10.099609 C 9.5710804 10.249001 9.5097759 10.405721 9.4589844 10.568359 C 9.5491172 10.58001 9.6356348 10.587487 9.7265625 10.599609 C 9.4949851 11.03837 9.3416265 11.586623 9.3027344 12.25 C 9.3030681 12.250794 9.3043535 12.251159 9.3046875 12.251953 C 9.3897269 11.649688 9.5729496 11.098863 9.9160156 10.646484 C 10.044116 11.436924 10.233374 12.224719 10.433594 12.949219 C 10.536025 13.386197 10.68865 13.838843 10.859375 14.292969 C 10.917561 14.331619 10.973986 14.375807 11.033203 14.410156 C 11.181619 14.323955 11.336649 14.200799 11.488281 14.101562 C 11.460306 14.015371 11.437838 13.938439 11.412109 13.855469 L 11.128906 13.982422 C 10.832586 13.300822 10.587914 12.607559 10.433594 11.949219 C 10.233374 11.224719 10.044116 10.436924 9.9160156 9.6464844 z M 8.703125 10.072266 C 8.7221648 10.209644 8.7437902 10.34503 8.7714844 10.488281 C 8.9797922 10.508158 9.1928165 10.535208 9.40625 10.5625 C 9.4411137 10.396489 9.48443 10.243099 9.5351562 10.095703 C 9.2545646 10.083255 8.9738454 10.071202 8.703125 10.072266 z M 11.0625 10.185547 L 11.001953 10.791016 C 11.679303 10.914466 12.302638 11.054596 12.773438 11.191406 C 13.274494 11.337012 13.776039 11.511489 14.253906 11.705078 C 14.418575 11.524338 14.558299 11.394916 14.730469 11.193359 L 15.228516 11.548828 C 15.112408 11.704442 14.987887 11.846831 14.867188 11.996094 C 15.089354 12.099882 15.319948 12.199792 15.521484 12.310547 C 15.603372 12.002137 15.649146 11.678389 15.650391 11.371094 C 15.579353 11.330698 15.488201 11.29743 15.414062 11.257812 C 15.422012 11.275409 15.433835 11.290795 15.441406 11.308594 C 14.689706 11.023804 13.908134 10.793166 13.177734 10.603516 C 12.527844 10.407386 11.8036 10.270897 11.0625 10.185547 z M 18.212891 10.917969 C 17.982535 11.128929 17.632667 11.184757 17.322266 11.185547 C 17.332088 11.20056 17.339077 11.215568 17.347656 11.230469 C 17.674788 11.432167 17.979591 11.647546 18.240234 11.884766 C 18.284086 11.839402 18.333883 11.800025 18.365234 11.740234 C 18.388664 11.695564 18.407325 11.645137 18.421875 11.591797 C 18.443712 11.511778 18.450627 11.266082 18.212891 10.917969 z M 15.978516 11.568359 C 15.95985 12.156043 15.781219 12.762582 15.509766 13.349609 C 15.442224 13.593465 15.34814 13.821198 15.238281 14.029297 C 15.36777 14.034573 15.505597 14.0298 15.646484 14.019531 C 15.83635 13.536635 15.963317 13.046863 15.978516 12.568359 C 16.488785 12.891614 16.880264 13.232288 17.097656 13.570312 C 17.155557 13.518083 17.203212 13.463767 17.228516 13.404297 C 17.477216 12.819797 16.917966 12.163499 15.978516 11.568359 z M 14.730469 12.193359 C 14.671946 12.261871 14.62631 12.30076 14.568359 12.367188 C 14.512415 12.431539 14.455064 12.488347 14.398438 12.550781 C 14.080837 12.90657 13.755094 13.272917 13.496094 13.519531 C 13.33412 13.673759 13.155808 13.809011 12.986328 13.957031 C 12.983564 13.959589 12.981282 13.962287 12.978516 13.964844 C 12.690009 14.231499 12.390256 14.495364 12.082031 14.746094 C 12.084431 14.751854 12.085591 14.757872 12.087891 14.763672 C 12.504988 14.810951 12.924675 14.736275 13.34375 14.613281 C 13.499294 14.463229 13.659742 14.312249 13.806641 14.164062 C 14.302211 13.701852 14.783676 13.145028 15.228516 12.548828 L 14.730469 12.193359 z M 8.9667969 12.650391 C 8.5405435 13.280079 8.1947066 14.369825 8.4707031 14.748047 C 8.5782264 14.362283 8.7616298 13.953477 8.9667969 13.650391 C 9.2317732 14.123645 9.548222 14.554766 9.9023438 14.925781 C 10.012803 14.890105 10.129042 14.839995 10.246094 14.791016 C 10.032173 14.57388 9.8453755 14.337896 9.7109375 14.097656 C 9.5248504 13.765055 9.3691205 13.421893 9.2324219 13.076172 C 9.1412399 12.936351 9.049186 12.79754 8.9667969 12.650391 z M 18.859375 13.693359 C 18.849909 13.708221 18.846525 13.723599 18.835938 13.738281 C 18.515681 14.182429 17.852193 14.407625 17.142578 14.521484 C 16.823464 14.878108 15.843244 15.079021 15.152344 15.03125 C 15.234436 14.894519 15.304453 14.753594 15.376953 14.613281 C 15.191799 14.606487 15.004553 14.600194 14.876953 14.589844 C 14.304241 15.419071 13.615011 16.115013 12.947266 16.615234 C 13.024991 16.768721 13.102647 16.9349 13.179688 17.064453 C 13.219899 17.13207 13.247545 17.165597 13.287109 17.230469 C 13.797804 16.793313 14.330487 16.227736 14.787109 15.585938 C 15.583259 15.656958 18.102938 15.754841 18.835938 14.738281 C 19.07349 14.40884 19.020604 14.034014 18.859375 13.693359 z M 13.265625 14.6875 C 12.879701 14.829467 12.507045 14.929722 12.167969 14.949219 C 12.242202 15.128267 12.319368 15.299335 12.394531 15.474609 C 12.696142 15.216712 12.985899 14.955064 13.265625 14.6875 z M 11.664062 15.066406 C 11.387592 15.275516 11.107719 15.467281 10.824219 15.644531 C 10.748189 15.887241 10.679779 16.125146 10.824219 16.291016 C 10.898478 16.376318 11.014626 16.41157 11.146484 16.423828 C 11.319684 16.307365 11.493505 16.195408 11.664062 16.066406 C 11.705894 16.147185 11.75086 16.222267 11.792969 16.302734 C 11.93001 16.249238 12.075098 16.184268 12.226562 16.101562 C 12.031933 15.773273 11.847133 15.419926 11.664062 15.066406 z M 12.763672 15.751953 C 12.684098 15.761655 12.604877 15.773888 12.525391 15.777344 C 12.540344 15.810217 12.553191 15.846417 12.568359 15.878906 C 12.578075 15.877209 12.587906 15.876785 12.597656 15.875 C 12.651681 15.839512 12.708824 15.79039 12.763672 15.751953 z M 7.3398438 15.804688 C 7.2462375 16.236329 7.2320571 16.647009 7.3808594 16.974609 C 7.7016894 17.680989 8.6942 17.569321 9.25 17.400391 C 9.5779623 17.300724 9.9094984 17.14955 10.240234 16.976562 C 10.066751 16.62442 10.227783 16.206191 10.416016 15.888672 C 10.027346 16.103492 9.63602 16.283081 9.25 16.400391 C 8.6942 16.569321 7.7016894 16.680989 7.3808594 15.974609 C 7.3573716 15.922899 7.3559241 15.860212 7.3398438 15.804688 z M 12.527344 16.783203 C 12.451365 16.833975 12.373644 16.888472 12.304688 16.923828 C 12.253576 16.950038 12.212655 16.964928 12.164062 16.988281 C 12.18521 17.024905 12.205189 17.065511 12.226562 17.101562 C 11.651115 17.415778 11.173028 17.515786 10.914062 17.34375 C 10.581278 17.339384 10.419731 17.220633 10.367188 17.167969 C 10.344377 17.145106 10.327946 17.119819 10.308594 17.095703 C 10.163636 17.398822 10.077272 17.749881 10.265625 18.044922 C 10.292775 18.087462 10.328068 18.128759 10.367188 18.167969 C 10.466888 18.267899 10.913938 18.636988 12.304688 17.923828 C 12.403298 17.873268 12.516147 17.791206 12.623047 17.722656 C 13.401977 18.930456 14.163991 19.8502 14.525391 20 C 14.412251 19.90753 13.832527 19.162223 13.179688 18.064453 C 13.089607 17.912973 12.999303 17.712073 12.908203 17.539062 C 12.965079 17.496893 13.024044 17.442567 13.082031 17.396484 C 12.950966 17.210584 12.818279 17.018949 12.683594 16.8125 C 12.647861 16.836781 12.609571 16.869578 12.574219 16.892578 C 12.557817 16.857578 12.543491 16.818654 12.527344 16.783203 z "
     id="path50" />
</svg>
