<?xml version="1.0" encoding="UTF-8" standalone="no"?>
<svg
   xmlns:dc="http://purl.org/dc/elements/1.1/"
   xmlns:cc="http://creativecommons.org/ns#"
   xmlns:rdf="http://www.w3.org/1999/02/22-rdf-syntax-ns#"
   xmlns:svg="http://www.w3.org/2000/svg"
   xmlns="http://www.w3.org/2000/svg"
   xmlns:sodipodi="http://sodipodi.sourceforge.net/DTD/sodipodi-0.dtd"
   xmlns:inkscape="http://www.inkscape.org/namespaces/inkscape"
   id="svg2"
   width="24"
   height="24"
   version="1.0"
   sodipodi:docname="bittorrentsync.svg"
   inkscape:version="0.92.2 5c3e80d, 2017-08-06">
  <metadata
     id="metadata49">
    <rdf:RDF>
      <cc:Work
         rdf:about="">
        <dc:format>image/svg+xml</dc:format>
        <dc:type
           rdf:resource="http://purl.org/dc/dcmitype/StillImage" />
      </cc:Work>
    </rdf:RDF>
  </metadata>
  <sodipodi:namedview
     pagecolor="#ffffff"
     bordercolor="#666666"
     borderopacity="1"
     objecttolerance="10"
     gridtolerance="10"
     guidetolerance="10"
     inkscape:pageopacity="0"
     inkscape:pageshadow="2"
     inkscape:window-width="640"
     inkscape:window-height="480"
     id="namedview47"
     showgrid="false"
     inkscape:zoom="9.8333333"
     inkscape:cx="12"
     inkscape:cy="12"
     inkscape:window-x="0"
     inkscape:window-y="25"
     inkscape:window-maximized="0"
     inkscape:current-layer="svg2" />
  <defs
     id="defs4">
    <linearGradient
       id="linearGradient3335"
       x1="11.375"
       x2="11.375"
       y1="22"
       y2="-9.8173"
       gradientUnits="userSpaceOnUse">
      <stop
         id="stop3330"
         offset="0" />
      <stop
         id="stop3333"
         stop-opacity="0"
         offset="1" />
    </linearGradient>
    <linearGradient
       id="linearGradient3181"
       x1="-3.0608"
       x2="-3.0608"
       y1="27.258"
       y2="7.2537"
       gradientTransform="translate(12.119 -7.2582)"
       gradientUnits="userSpaceOnUse">
      <stop
         id="stop3189"
         stop-color="#005fbe"
         offset="0" />
      <stop
         id="stop3191"
         stop-color="#147be2"
         offset="1" />
    </linearGradient>
    <filter
       id="filter3194"
       x="-.18"
       y="-.18"
       width="1.36"
       height="1.36"
       color-interpolation-filters="sRGB">
      <feGaussianBlur
         id="feGaussianBlur3196"
         stdDeviation="1.2" />
    </filter>
    <clipPath
       id="clipPath2849">
      <rect
         id="rect2851"
         x="1"
         y="1"
         width="20"
         height="20"
         rx="2"
         ry="2"
         fill="#fff"
         fill-rule="evenodd" />
    </clipPath>
    <linearGradient
       id="linearGradient3845"
       x1="11"
       x2="21"
       y1="19.5"
       y2="19.5"
       gradientTransform="translate(1,-1)"
       gradientUnits="userSpaceOnUse"
       spreadMethod="reflect">
      <stop
         id="stop3833"
         stop-color="#fff"
         offset="0" />
      <stop
         id="stop3821"
         stop-color="#fff"
         stop-opacity=".49804"
         offset=".75" />
      <stop
         id="stop3835"
         stop-color="#fff"
         stop-opacity="0"
         offset="1" />
    </linearGradient>
    <linearGradient
       id="linearGradient3961"
       x1="10"
       x2="10"
       y1="1"
       y2="16"
       gradientTransform="translate(1,-1)"
       gradientUnits="userSpaceOnUse">
      <stop
         id="stop3825"
         stop-color="#fff"
         offset="0" />
      <stop
         id="stop3829"
         stop-color="#fff"
         stop-opacity="0"
         offset="1" />
    </linearGradient>
  </defs>
  <g
     id="layer1"
     transform="translate(0,2)">
    <g
       id="g3337"
       transform="translate(1,-1)">
      <rect
         id="rect3371"
         x=".5"
         y=".5"
         width="21"
         height="21.5"
         rx="2.5"
         ry="2.5"
         fill="url(#linearGradient3335)"
         opacity=".3" />
      <rect
         id="rect2553"
         x="1"
         y="2"
         width="20"
         height="20"
         rx="2.381"
         ry="2.3256"
         opacity=".5" />
    </g>
    <rect
       id="rect3173"
       x="2"
       width="20"
       height="20"
       rx="2"
       ry="2"
       fill="url(#linearGradient3181)"
       fill-rule="evenodd" />
    <path
       id="rect3050"
       d="m4 0c-1.108 0-2 0.892-2 2v16c0 1.108 0.892 2 2 2h16c1.108 0 2-0.892 2-2v-16c0-1.108-0.892-2-2-2h-16zm0 1.0312h16c0.5497 0 0.96875 0.41905 0.96875 0.96875v16c0 0.5497-0.41905 0.96875-0.96875 0.96875h-16c-0.5497 0-0.96875-0.41905-0.96875-0.96875v-16c0-0.5497 0.41905-0.96875 0.96875-0.96875z"
       fill="url(#linearGradient3961)"
       fill-rule="evenodd"
       opacity=".35" />
    <path
       id="path3235"
       d="m4 20c-1.108 0-2-0.892-2-2v-1c0 1.108 0.892 2 2 2h16c1.108 0 2-0.892 2-2v1c0 1.108-0.892 2-2 2h-16z"
       fill="url(#linearGradient3845)"
       fill-rule="evenodd"
       opacity=".2" />
  </g>
  <g
     id="layer2"
     transform="translate(0,2)">
    <rect
       id="rect2410"
       transform="translate(1,-1)"
       x="3"
       y="3"
       width="16"
       height="16"
       rx="2"
       ry="2"
       clip-path="url(#clipPath2849)"
       fill="#fff"
       filter="url(#filter3194)"
       opacity=".15" />
  </g>
  <defs
     id="defs37">
    <filter
       id="w">
      <feGaussianBlur
         stdDeviation="0.20998568"
         id="feGaussianBlur29" />
    </filter>
    <linearGradient
       id="a"
       gradientUnits="userSpaceOnUse"
       x1="8"
       y1="1"
       x2="8"
       y2="14.99999">
      <stop
         stop-color="#fafafa"
         offset="0"
         id="stop32" />
      <stop
         stop-color="#ebebeb"
         offset="1"
         id="stop34" />
    </linearGradient>
  </defs>
  <g
     id="main">
    <path
       style="opacity:0.3;fill:#000000"
       d="M 12 6.5 C 9.7999 6.5004 7.8117425 7.8116844 6.9453125 9.8339844 L 5.9980469 9.4277344 C 5.8419672 9.6903984 5.6966199 9.9600611 5.5742188 10.246094 L 6.9453125 10.833984 C 7.8117425 8.8116844 9.7999 7.5004 12 7.5 C 14.272486 7.5009409 16.250429 8.8985962 17.078125 10.931641 L 17.419922 11.078125 C 16.970622 8.435125 14.681 6.50111 12 6.5 z M 14.171875 11.242188 C 13.866291 11.592815 13.903227 12.212345 14.439453 12.433594 L 17.939453 13.933594 C 18.470623 14.174304 19.061241 13.743353 18.994141 13.164062 C 18.996741 13.109402 18.9986 13.05471 19 13 C 19 12.807898 18.987838 12.619833 18.972656 12.431641 C 18.864865 12.863885 18.383746 13.134934 17.939453 12.933594 L 14.439453 11.433594 C 14.326072 11.386812 14.242659 11.318726 14.171875 11.242188 z M 5.0292969 12.582031 C 5.010688 12.66286 4.9954358 12.745974 5.0058594 12.835938 C 5.0032594 12.890598 5.0014 12.94529 5 13 C 5 16.866 8.134 20 12 20 C 14.798 19.9961 17.324981 18.326306 18.425781 15.753906 L 18.001953 15.572266 C 16.754349 17.671839 14.486882 18.996534 12 19 C 8.3307441 19 5.3261431 16.17467 5.0292969 12.582031 z M 6.5800781 12.921875 C 6.6485397 13.324599 6.773084 13.702888 6.921875 14.068359 L 8.9707031 14.945312 C 9.0624231 14.986042 9.1613788 15.007966 9.2617188 15.009766 C 9.9674891 15.021804 10.235474 14.19828 9.828125 13.757812 C 9.6972558 13.907972 9.5101149 14.014002 9.2617188 14.009766 C 9.1613788 14.007966 9.0624231 13.986042 8.9707031 13.945312 L 6.5800781 12.921875 z "
       id="path39" />
    <path
       d="m8 1c-2.798 0.0038965-5.325 1.6737-6.4258 4.2461l1.3711 0.58789c0.86643-2.0223 2.8546-3.3336 5.0547-3.334 2.681 0.00111 4.9706 1.9351 5.4199 4.5781l-2.3906-1.0234c-0.091717-0.040736-0.19068-0.062653-0.29102-0.064453-0.82841-0.014127-1.0647 1.1274-0.29883 1.4434l3.5 1.5c0.53117 0.24071 1.1218-0.19024 1.0547-0.76953 0.002594-0.054663 0.004547-0.10935 0.005859-0.16406 0-3.866-3.134-7-7-7zm-6.3379 6.0039c-0.38706 0.04681-0.70659 0.39756-0.65625 0.83203-0.0026 0.054663-0.0044594 0.10935-0.0058594 0.16406 0 3.866 3.134 7 7 7 2.798-0.0039 5.325-1.6737 6.4258-4.2461l-1.3711-0.58789c-0.86643 2.0223-2.8546 3.3336-5.0547 3.334-2.681-0.0011-4.9706-1.9351-5.4199-4.5781l2.3906 1.0234c0.09172 0.04073 0.19068 0.062654 0.29102 0.064454 0.82841 0.01413 1.0647-1.1274 0.29883-1.4434l-3.5-1.5c-0.13279-0.060176-0.26942-0.078103-0.39844-0.0625z"
       fill="#fff"
       id="base"
       transform="translate(4,4)" />
  </g>
</svg>
