<?xml version="1.0" encoding="UTF-8" standalone="no"?>
<svg
   xmlns:dc="http://purl.org/dc/elements/1.1/"
   xmlns:cc="http://creativecommons.org/ns#"
   xmlns:rdf="http://www.w3.org/1999/02/22-rdf-syntax-ns#"
   xmlns:svg="http://www.w3.org/2000/svg"
   xmlns="http://www.w3.org/2000/svg"
   xmlns:sodipodi="http://sodipodi.sourceforge.net/DTD/sodipodi-0.dtd"
   xmlns:inkscape="http://www.inkscape.org/namespaces/inkscape"
   id="svg2"
   width="24"
   height="24"
   version="1.0"
   sodipodi:docname="brave.svg"
   inkscape:version="0.92.2 5c3e80d, 2017-08-06">
  <metadata
     id="metadata49">
    <rdf:RDF>
      <cc:Work
         rdf:about="">
        <dc:format>image/svg+xml</dc:format>
        <dc:type
           rdf:resource="http://purl.org/dc/dcmitype/StillImage" />
      </cc:Work>
    </rdf:RDF>
  </metadata>
  <sodipodi:namedview
     pagecolor="#ffffff"
     bordercolor="#666666"
     borderopacity="1"
     objecttolerance="10"
     gridtolerance="10"
     guidetolerance="10"
     inkscape:pageopacity="0"
     inkscape:pageshadow="2"
     inkscape:window-width="640"
     inkscape:window-height="480"
     id="namedview47"
     showgrid="false"
     inkscape:zoom="9.8333333"
     inkscape:cx="12"
     inkscape:cy="12"
     inkscape:window-x="0"
     inkscape:window-y="25"
     inkscape:window-maximized="0"
     inkscape:current-layer="svg2" />
  <defs
     id="defs4">
    <linearGradient
       id="linearGradient3335"
       x1="11.375"
       x2="11.375"
       y1="22"
       y2="-9.8173"
       gradientUnits="userSpaceOnUse">
      <stop
         id="stop3330"
         offset="0" />
      <stop
         id="stop3333"
         stop-opacity="0"
         offset="1" />
    </linearGradient>
    <linearGradient
       id="linearGradient3181"
       x1="-3.0608"
       x2="-3.0608"
       y1="27.258"
       y2="7.2537"
       gradientTransform="translate(12.119 -7.2582)"
       gradientUnits="userSpaceOnUse">
      <stop
         id="stop3189"
         stop-color="#fd5d38"
         offset="0" />
      <stop
         id="stop3191"
         stop-color="#f69d31"
         offset="1" />
    </linearGradient>
    <filter
       id="filter3194"
       x="-.18"
       y="-.18"
       width="1.36"
       height="1.36"
       color-interpolation-filters="sRGB">
      <feGaussianBlur
         id="feGaussianBlur3196"
         stdDeviation="1.2" />
    </filter>
    <clipPath
       id="clipPath2849">
      <rect
         id="rect2851"
         x="1"
         y="1"
         width="20"
         height="20"
         rx="2"
         ry="2"
         fill="#fff"
         fill-rule="evenodd" />
    </clipPath>
    <linearGradient
       id="linearGradient3845"
       x1="11"
       x2="21"
       y1="19.5"
       y2="19.5"
       gradientTransform="translate(1,-1)"
       gradientUnits="userSpaceOnUse"
       spreadMethod="reflect">
      <stop
         id="stop3833"
         stop-color="#fff"
         offset="0" />
      <stop
         id="stop3821"
         stop-color="#fff"
         stop-opacity=".49804"
         offset=".75" />
      <stop
         id="stop3835"
         stop-color="#fff"
         stop-opacity="0"
         offset="1" />
    </linearGradient>
    <linearGradient
       id="linearGradient3961"
       x1="10"
       x2="10"
       y1="1"
       y2="16"
       gradientTransform="translate(1,-1)"
       gradientUnits="userSpaceOnUse">
      <stop
         id="stop3825"
         stop-color="#fff"
         offset="0" />
      <stop
         id="stop3829"
         stop-color="#fff"
         stop-opacity="0"
         offset="1" />
    </linearGradient>
  </defs>
  <g
     id="layer1"
     transform="translate(0,2)">
    <g
       id="g3337"
       transform="translate(1,-1)">
      <rect
         id="rect3371"
         x=".5"
         y=".5"
         width="21"
         height="21.5"
         rx="2.5"
         ry="2.5"
         fill="url(#linearGradient3335)"
         opacity=".3" />
      <rect
         id="rect2553"
         x="1"
         y="2"
         width="20"
         height="20"
         rx="2.381"
         ry="2.3256"
         opacity=".5" />
    </g>
    <rect
       id="rect3173"
       x="2"
       width="20"
       height="20"
       rx="2"
       ry="2"
       fill="url(#linearGradient3181)"
       fill-rule="evenodd" />
    <path
       id="rect3050"
       d="m4 0c-1.108 0-2 0.892-2 2v16c0 1.108 0.892 2 2 2h16c1.108 0 2-0.892 2-2v-16c0-1.108-0.892-2-2-2h-16zm0 1.0312h16c0.5497 0 0.96875 0.41905 0.96875 0.96875v16c0 0.5497-0.41905 0.96875-0.96875 0.96875h-16c-0.5497 0-0.96875-0.41905-0.96875-0.96875v-16c0-0.5497 0.41905-0.96875 0.96875-0.96875z"
       fill="url(#linearGradient3961)"
       fill-rule="evenodd"
       opacity=".35" />
    <path
       id="path3235"
       d="m4 20c-1.108 0-2-0.892-2-2v-1c0 1.108 0.892 2 2 2h16c1.108 0 2-0.892 2-2v1c0 1.108-0.892 2-2 2h-16z"
       fill="url(#linearGradient3845)"
       fill-rule="evenodd"
       opacity=".2" />
  </g>
  <g
     id="layer2"
     transform="translate(0,2)">
    <rect
       id="rect2410"
       transform="translate(1,-1)"
       x="3"
       y="3"
       width="16"
       height="16"
       rx="2"
       ry="2"
       clip-path="url(#clipPath2849)"
       fill="#fff"
       filter="url(#filter3194)"
       opacity=".15" />
  </g>
  <defs
     id="defs37">
    <filter
       id="w">
      <feGaussianBlur
         stdDeviation="0.20998568"
         id="feGaussianBlur29" />
    </filter>
    <linearGradient
       id="a"
       gradientUnits="userSpaceOnUse"
       x1="8"
       y1="2"
       x2="8"
       y2="14.999973">
      <stop
         stop-color="#fafafa"
         offset="0"
         id="stop32" />
      <stop
         stop-color="#ebebeb"
         offset="1"
         id="stop34" />
    </linearGradient>
  </defs>
  <g
     id="main">
    <path
       style="opacity:0.3;fill:#000000"
       d="M 8.7480469 8.1425781 C 8.600408 8.149219 8.424445 8.16586 8.1875 8.1875 C 7.74555 8.227813 7.3673031 8.2779411 7.3457031 8.2988281 C 7.3226031 8.3213211 7.3484562 8.3531541 7.4101562 8.3769531 C 7.4673562 8.3992031 8.077655 8.6331475 8.765625 8.8984375 C 9.3869711 9.1380615 9.8678744 9.3442604 10.039062 9.4316406 C 10.084738 9.448037 10.107786 9.4545239 10.158203 9.4726562 C 10.635918 9.6444666 10.78581 9.7159011 10.871094 9.7851562 C 10.930217 9.514588 11.027092 9.0849996 11.027344 9.0625 C 11.027844 9.01964 11.001397 8.9304613 10.966797 8.8632812 C 10.912247 8.7573413 10.805193 8.7053462 10.158203 8.4726562 C 9.3759456 8.19132 9.1909636 8.1226555 8.7480469 8.1425781 z M 14.759766 8.1445312 L 13.927734 8.4433594 C 13.201254 8.7041594 13.087703 8.7574412 13.033203 8.8632812 C 12.998803 8.9299913 12.970233 9.019622 12.970703 9.0625 C 12.970972 9.08514 13.069429 9.5159196 13.128906 9.7890625 C 13.217098 9.7165822 13.378854 9.6404025 13.927734 9.4433594 L 14.023438 9.4101562 C 14.230906 9.3103459 14.662714 9.1249571 15.298828 8.8808594 C 16.046728 8.5938694 16.653437 8.3397032 16.648438 8.3164062 C 16.636437 8.2633462 15.811641 8.171413 15.212891 8.15625 L 14.759766 8.1445312 z M 18.839844 10.289062 C 18.649319 10.556315 18.239842 10.951796 17.318359 11.810547 C 16.757049 12.333647 16.287337 12.791475 16.273438 12.828125 C 16.211272 12.990786 16.262605 13.236896 16.441406 13.664062 C 16.568546 13.527272 16.84741 13.249437 17.318359 12.810547 C 18.987059 11.255447 19.047975 11.181181 18.984375 10.738281 C 18.961308 10.577468 18.932921 10.46418 18.839844 10.289062 z M 5.15625 10.308594 C 5.0162431 10.596681 4.9634705 10.879555 5.0351562 11.097656 C 5.1063563 11.314466 5.3155344 11.532514 6.6152344 12.746094 C 7.1192671 13.216732 7.4213127 13.51671 7.5527344 13.658203 C 7.7374344 13.225683 7.7866094 12.988322 7.7246094 12.826172 C 7.7104094 12.788872 7.2118744 12.303204 6.6152344 11.746094 C 5.6780771 10.871034 5.3162522 10.520937 5.15625 10.308594 z M 10.333984 10.660156 C 10.288577 10.783641 10.253862 10.884117 10.175781 11.076172 C 10.004631 11.497132 9.8652344 11.881488 9.8652344 11.929688 C 9.8652344 12.034545 9.9304309 12.144868 10.089844 12.314453 C 10.130312 12.209289 10.128049 12.193573 10.175781 12.076172 C 10.421291 11.472292 10.487348 11.26481 10.486328 11.09375 C 10.48501 10.915374 10.423255 10.778577 10.333984 10.660156 z M 13.664062 10.660156 C 13.575398 10.779341 13.514718 10.917099 13.513672 11.095703 C 13.512972 11.268633 13.577778 11.477762 13.830078 12.101562 C 13.868818 12.197332 13.884158 12.242539 13.916016 12.320312 C 14.222303 11.984137 14.118673 11.815003 13.830078 11.101562 C 13.74725 10.896773 13.710965 10.788916 13.664062 10.660156 z M 10.636719 11.859375 C 10.549858 12.246511 10.479591 12.570482 10.474609 12.669922 C 10.555912 12.743234 10.595537 12.787168 10.703125 12.880859 C 10.96768 12.978672 11.511204 13.10824 11.849609 13.134766 C 12.131856 13.156891 12.884009 13.028418 13.265625 12.912109 C 13.373094 12.819437 13.441206 12.756892 13.525391 12.683594 C 13.523392 12.589721 13.451731 12.265234 13.363281 11.871094 C 13.055739 11.994838 12.166545 12.15961 11.849609 12.134766 C 11.486259 12.106285 10.859606 11.956811 10.636719 11.859375 z M 11.34375 14.480469 C 11.140562 14.680944 10.883466 14.916487 10.619141 15.138672 C 10.388041 15.332892 8.9879119 16.043528 8.7636719 16.080078 C 8.5758719 16.110698 8.375335 16.012242 8.046875 15.732422 C 7.7646854 15.492026 7.5935587 15.24035 7.4648438 14.933594 C 7.3411717 15.287957 7.3055635 15.533889 7.4023438 15.810547 C 7.5328437 16.183527 7.724805 16.458052 8.046875 16.732422 C 8.375335 17.012242 8.5758719 17.110698 8.7636719 17.080078 C 8.8201707 17.070869 9.0622249 16.948649 9.2304688 16.873047 C 9.1193784 16.766734 9.0738645 16.690076 9.1171875 16.621094 C 9.1741875 16.530274 10.580916 15.817372 11.253906 15.539062 C 11.271427 15.531817 11.280112 15.530323 11.296875 15.523438 C 11.538395 15.287981 11.719562 15.092446 11.730469 15.035156 C 11.742069 14.974406 11.720041 14.867035 11.681641 14.796875 C 11.667126 14.770275 11.445234 14.5792 11.34375 14.480469 z M 12.660156 14.480469 C 12.537896 14.598954 12.290297 14.815138 12.279297 14.841797 C 12.212598 15.003394 12.337111 15.174624 12.705078 15.525391 C 12.712267 15.528383 12.715329 15.530146 12.722656 15.533203 C 13.338356 15.790103 14.723594 16.494115 14.839844 16.609375 C 14.920828 16.689664 14.881587 16.777396 14.779297 16.882812 C 14.983268 16.970378 15.246591 17.090778 15.287109 17.089844 C 15.471429 17.085844 15.591907 17.022971 15.904297 16.769531 C 16.240227 16.496971 16.46256 16.181456 16.59375 15.791016 C 16.690946 15.501771 16.659797 15.287172 16.527344 14.923828 C 16.392442 15.249818 16.19842 15.530892 15.904297 15.769531 C 15.591907 16.022971 15.471429 16.085844 15.287109 16.089844 C 15.221159 16.091364 14.848667 15.939323 14.460938 15.751953 C 13.616047 15.343633 13.491573 15.259955 12.845703 14.671875 C 12.747958 14.582869 12.730744 14.549247 12.660156 14.480469 z M 9.7324219 17.275391 C 9.4505348 17.424028 9.1381153 17.587749 9.1171875 17.621094 C 9.0458875 17.734624 9.1140512 17.815699 9.5507812 18.136719 C 10.326371 18.707319 10.572566 18.904272 11.197266 19.451172 C 12.030446 20.180632 11.966927 20.18044 12.779297 19.46875 C 13.342387 18.97544 13.974356 18.480345 14.597656 18.046875 C 14.900186 17.836455 14.959884 17.728385 14.839844 17.609375 C 14.801654 17.571511 14.507367 17.419265 14.267578 17.291016 C 13.754403 17.663636 13.242655 18.062813 12.779297 18.46875 C 11.966927 19.18044 12.030446 19.180632 11.197266 18.451172 C 10.637294 17.960939 10.338066 17.724448 9.7324219 17.275391 z "
       id="path39" />
    <path
       d="m7.9996 2c-0.22177 0-0.59352 0.097305-1.7389 0.45447-0.26824 0.083648-0.53956 0.15157-0.60344 0.15148-0.0639-8.03e-5 -0.56938-0.087263-1.1225-0.19435-0.55311-0.10712-1.0395-0.19533-1.0818-0.19533-0.14983 0-1.839 2.242-2.2639 3.0049-0.17761 0.31891-0.23296 0.63632-0.15384 0.87704 0.0712 0.21681 0.2794 0.43392 1.5791 1.6475 0.59664 0.55711 1.0964 1.0431 1.1106 1.0804 0.062 0.16215 0.013 0.39968-0.1717 0.8322-0.24207 0.56683-0.27324 0.80329-0.15087 1.1531 0.1305 0.37298 0.32307 0.64752 0.64514 0.92189 0.32846 0.27982 0.52878 0.37645 0.71658 0.34583 0.22424-0.03655 1.6239-0.74561 1.855-0.93983 0.55029-0.46256 1.0908-1.0003 1.1106-1.1043 0.0116-0.060752-0.0103-0.16704-0.0487-0.2372-0.0383-0.070192-0.43819-0.44715-0.88927-0.83717-0.78512-0.67883-0.92699-0.83621-0.92699-1.0315 0-0.048201 0.13949-0.43215 0.31064-0.85311 0.24551-0.60388 0.31167-0.81164 0.31065-0.9827-2e-3 -0.27057-0.1021-0.46709-0.30965-0.60496-0.0883-0.058744-0.72335-0.32372-1.4113-0.58903-0.68797-0.26529-1.2985-0.50098-1.3557-0.52323-0.0617-0.023799-0.0877-0.05523-0.0646-0.077723 0.0216-0.020887 0.40068-0.071297 0.84263-0.11161 0.94778-0.08656 0.92709-0.090075 1.9701 0.28504 0.64699 0.23269 0.75434 0.28474 0.80889 0.39068 0.0346 0.06718 0.062 0.15746 0.0615 0.20032-4.8e-4 0.042878-0.13548 0.6627-0.29974 1.3774-0.28131 1.224-0.29437 1.303-0.22529 1.3734 0.0854 0.087062 0.93168 0.28945 1.3458 0.32191 0.36255 0.028418 1.5241-0.19559 1.6426-0.31693 0.0746-0.076418 0.0659-0.12659-0.22133-1.3784-0.16398-0.71466-0.29823-1.3345-0.29874-1.3774-4.7e-4 -0.042878 0.0271-0.13261 0.0615-0.19932 0.0545-0.10584 0.16874-0.15979 0.89522-0.42059l0.83171-0.29899 0.45358 0.01195c0.59875 0.015163 1.4232 0.10741 1.4352 0.16047 5e-3 0.023297-0.6019 0.2771-1.3498 0.56409-0.74789 0.28699-1.4228 0.56696-1.4997 0.62192-0.18953 0.13551-0.28431 0.33171-0.28584 0.593-7e-4 0.17293 0.0653 0.3818 0.3176 1.0056 0.42494 1.0505 0.47164 0.91391-0.64512 1.8817-0.4725 0.40943-0.87998 0.79567-0.90615 0.85909-0.0773 0.18728 0.0228 0.33483 0.56571 0.8292 0.64587 0.58808 0.77191 0.67208 1.6168 1.0804 0.38773 0.18737 0.75882 0.33938 0.82477 0.33786 0.18432-4e-3 0.30595-0.06648 0.61834-0.31992 0.33593-0.27256 0.55759-0.58826 0.68878-0.9787 0.12065-0.35904 0.0991-0.52356-0.15086-1.1182-0.18202-0.43298-0.23233-0.68032-0.16971-0.84417 0.0139-0.036652 0.48479-0.4945 1.0461-1.0176 1.6687-1.5551 1.729-1.6301 1.6654-2.073-0.0454-0.31651-0.10145-0.42348-0.66001-1.2548-0.47499-0.70693-1.5718-2.1503-1.7011-2.2385-0.0325-0.022192-0.476 0.04318-1.1037 0.16246-0.57693 0.10973-1.1036 0.20032-1.1711 0.20032-0.0675 0-0.34214-0.068786-0.61039-0.15248-1.1453-0.35721-1.5171-0.45447-1.7389-0.45447zm-3e-3 9.3186c-0.19292 8.84e-4 -0.38846 0.07391-0.7424 0.22027-0.67299 0.27831-2.0808 0.99048-2.1378 1.0813-0.0713 0.11353-3e-3 0.19525 0.43373 0.51627 0.77559 0.5706 1.0219 0.7677 1.6466 1.3146 0.83318 0.72946 0.77063 0.72866 1.583 0.01697 0.56309-0.49331 1.194-0.98673 1.8173-1.4202 0.30253-0.21042 0.3632-0.3195 0.24316-0.43851-0.11625-0.11526-1.5013-0.8195-2.117-1.0764-0.34333-0.14325-0.5336-0.21514-0.7265-0.21428z"
       fill="#fff"
       id="base"
       transform="translate(4,4)" />
  </g>
</svg>
