<?xml version="1.0" encoding="UTF-8" standalone="no"?>
<svg
   xmlns:dc="http://purl.org/dc/elements/1.1/"
   xmlns:cc="http://creativecommons.org/ns#"
   xmlns:rdf="http://www.w3.org/1999/02/22-rdf-syntax-ns#"
   xmlns:svg="http://www.w3.org/2000/svg"
   xmlns="http://www.w3.org/2000/svg"
   xmlns:sodipodi="http://sodipodi.sourceforge.net/DTD/sodipodi-0.dtd"
   xmlns:inkscape="http://www.inkscape.org/namespaces/inkscape"
   id="svg2"
   width="24"
   height="24"
   version="1.0"
   sodipodi:docname="geogebra.svg"
   inkscape:version="0.92.2 5c3e80d, 2017-08-06">
  <metadata
     id="metadata49">
    <rdf:RDF>
      <cc:Work
         rdf:about="">
        <dc:format>image/svg+xml</dc:format>
        <dc:type
           rdf:resource="http://purl.org/dc/dcmitype/StillImage" />
      </cc:Work>
    </rdf:RDF>
  </metadata>
  <sodipodi:namedview
     pagecolor="#ffffff"
     bordercolor="#666666"
     borderopacity="1"
     objecttolerance="10"
     gridtolerance="10"
     guidetolerance="10"
     inkscape:pageopacity="0"
     inkscape:pageshadow="2"
     inkscape:window-width="640"
     inkscape:window-height="480"
     id="namedview47"
     showgrid="false"
     inkscape:zoom="9.8333333"
     inkscape:cx="12"
     inkscape:cy="12"
     inkscape:window-x="0"
     inkscape:window-y="25"
     inkscape:window-maximized="0"
     inkscape:current-layer="svg2" />
  <defs
     id="defs4">
    <linearGradient
       id="linearGradient3335"
       x1="11.375"
       x2="11.375"
       y1="22"
       y2="-9.8173"
       gradientUnits="userSpaceOnUse">
      <stop
         id="stop3330"
         offset="0" />
      <stop
         id="stop3333"
         stop-opacity="0"
         offset="1" />
    </linearGradient>
    <linearGradient
       id="linearGradient3181"
       x1="-3.0608"
       x2="-3.0608"
       y1="27.258"
       y2="7.2537"
       gradientTransform="translate(12.119 -7.2582)"
       gradientUnits="userSpaceOnUse">
      <stop
         id="stop3189"
         stop-color="#9999ff"
         offset="0" />
      <stop
         id="stop3191"
         stop-color="#bfbfff"
         offset="1" />
    </linearGradient>
    <filter
       id="filter3194"
       x="-.18"
       y="-.18"
       width="1.36"
       height="1.36"
       color-interpolation-filters="sRGB">
      <feGaussianBlur
         id="feGaussianBlur3196"
         stdDeviation="1.2" />
    </filter>
    <clipPath
       id="clipPath2849">
      <rect
         id="rect2851"
         x="1"
         y="1"
         width="20"
         height="20"
         rx="2"
         ry="2"
         fill="#fff"
         fill-rule="evenodd" />
    </clipPath>
    <linearGradient
       id="linearGradient3845"
       x1="11"
       x2="21"
       y1="19.5"
       y2="19.5"
       gradientTransform="translate(1,-1)"
       gradientUnits="userSpaceOnUse"
       spreadMethod="reflect">
      <stop
         id="stop3833"
         stop-color="#fff"
         offset="0" />
      <stop
         id="stop3821"
         stop-color="#fff"
         stop-opacity=".49804"
         offset=".75" />
      <stop
         id="stop3835"
         stop-color="#fff"
         stop-opacity="0"
         offset="1" />
    </linearGradient>
    <linearGradient
       id="linearGradient3961"
       x1="10"
       x2="10"
       y1="1"
       y2="16"
       gradientTransform="translate(1,-1)"
       gradientUnits="userSpaceOnUse">
      <stop
         id="stop3825"
         stop-color="#fff"
         offset="0" />
      <stop
         id="stop3829"
         stop-color="#fff"
         stop-opacity="0"
         offset="1" />
    </linearGradient>
  </defs>
  <g
     id="layer1"
     transform="translate(0,2)">
    <g
       id="g3337"
       transform="translate(1,-1)">
      <rect
         id="rect3371"
         x=".5"
         y=".5"
         width="21"
         height="21.5"
         rx="2.5"
         ry="2.5"
         fill="url(#linearGradient3335)"
         opacity=".3" />
      <rect
         id="rect2553"
         x="1"
         y="2"
         width="20"
         height="20"
         rx="2.381"
         ry="2.3256"
         opacity=".5" />
    </g>
    <rect
       id="rect3173"
       x="2"
       width="20"
       height="20"
       rx="2"
       ry="2"
       fill="url(#linearGradient3181)"
       fill-rule="evenodd" />
    <path
       id="rect3050"
       d="m4 0c-1.108 0-2 0.892-2 2v16c0 1.108 0.892 2 2 2h16c1.108 0 2-0.892 2-2v-16c0-1.108-0.892-2-2-2h-16zm0 1.0312h16c0.5497 0 0.96875 0.41905 0.96875 0.96875v16c0 0.5497-0.41905 0.96875-0.96875 0.96875h-16c-0.5497 0-0.96875-0.41905-0.96875-0.96875v-16c0-0.5497 0.41905-0.96875 0.96875-0.96875z"
       fill="url(#linearGradient3961)"
       fill-rule="evenodd"
       opacity=".35" />
    <path
       id="path3235"
       d="m4 20c-1.108 0-2-0.892-2-2v-1c0 1.108 0.892 2 2 2h16c1.108 0 2-0.892 2-2v1c0 1.108-0.892 2-2 2h-16z"
       fill="url(#linearGradient3845)"
       fill-rule="evenodd"
       opacity=".2" />
  </g>
  <g
     id="layer2"
     transform="translate(0,2)">
    <rect
       id="rect2410"
       transform="translate(1,-1)"
       x="3"
       y="3"
       width="16"
       height="16"
       rx="2"
       ry="2"
       clip-path="url(#clipPath2849)"
       fill="#fff"
       filter="url(#filter3194)"
       opacity=".15" />
  </g>
  <defs
     id="defs37">
    <filter
       id="w">
      <feGaussianBlur
         stdDeviation="0.20998568"
         id="feGaussianBlur29" />
    </filter>
    <linearGradient
       id="a"
       gradientUnits="userSpaceOnUse"
       x1="8"
       y1="0.99999"
       x2="8"
       y2="14.99994">
      <stop
         stop-color="#fafafa"
         offset="0"
         id="stop32" />
      <stop
         stop-color="#ebebeb"
         offset="1"
         id="stop34" />
    </linearGradient>
  </defs>
  <g
     id="main">
    <path
       style="opacity:0.3;fill:#000000"
       d="M 13.123047 6.8789062 C 12.956691 7.5081498 12.41779 7.9765625 11.761719 7.9765625 C 11.14566 7.9765625 10.625362 7.5667615 10.425781 6.9960938 C 10.417808 7.0195972 10.401389 7.0384708 10.394531 7.0625 C 9.9349105 7.1902756 9.5008413 7.3720855 9.0898438 7.5878906 C 8.0972656 8.2113661 7.3356553 9.1157566 6.9511719 10.175781 C 7.0860717 10.231624 7.2091974 10.310645 7.3203125 10.404297 C 7.9724526 9.2775517 9.0687151 8.3931377 10.412109 7.9707031 C 10.604139 8.5559131 11.135689 8.9765625 11.761719 8.9765625 C 12.457469 8.9765625 13.036209 8.4571113 13.162109 7.7695312 C 14.36134 7.9559967 15.421722 8.4939494 16.222656 9.2578125 C 16.177942 9.1136034 16.146484 8.9625201 16.146484 8.8027344 C 16.146484 8.6155844 16.181687 8.4384175 16.242188 8.2734375 C 15.995363 8.0358339 15.715125 7.8291588 15.421875 7.6386719 C 14.723772 7.2593555 13.952688 6.9889631 13.123047 6.8789062 z M 18.910156 9.2949219 C 18.80375 9.6077883 18.607122 9.8756242 18.34375 10.052734 C 18.430271 10.320903 18.497247 10.597735 18.542969 10.880859 C 18.820579 10.609664 19 10.230899 19 9.8027344 C 19 9.623204 18.965995 9.4542803 18.910156 9.2949219 z M 16.236328 9.3046875 C 16.182418 9.4613909 16.146484 9.6266468 16.146484 9.8027344 C 16.146484 10.608874 16.762447 11.264162 17.529297 11.289062 C 17.636736 11.610649 17.696372 11.948975 17.732422 12.292969 C 17.757077 12.12145 17.771484 11.947524 17.771484 11.773438 C 17.771484 11.257998 17.686597 10.759892 17.529297 10.289062 C 16.930872 10.269631 16.429695 9.8640571 16.236328 9.3046875 z M 5.0878906 12.052734 C 5.0329091 12.211052 5 12.380499 5 12.558594 C 5 13.193344 5.3816288 13.735319 5.9179688 13.949219 C 6.1632496 15.50763 6.9011574 16.878725 8.0390625 17.789062 C 8.0228402 17.699237 8.0117188 17.606462 8.0117188 17.511719 C 8.0117188 17.285949 8.0583313 17.070606 8.1445312 16.878906 C 6.9441313 15.970506 6.1710388 14.557119 5.9179688 12.949219 C 5.5289843 12.794086 5.22754 12.463057 5.0878906 12.052734 z M 7.765625 12.064453 C 7.606831 12.523407 7.2410099 12.877111 6.7832031 13 C 6.840643 13.305497 6.9247073 13.60091 7.0253906 13.886719 C 7.5086426 13.648343 7.8535156 13.15331 7.8535156 12.558594 C 7.8535156 12.383641 7.8188598 12.220291 7.765625 12.064453 z M 18.576172 12.292969 C 18.494712 12.997538 18.260878 13.675768 17.894531 14.300781 C 17.993621 14.503401 18.048828 14.733522 18.048828 14.976562 C 18.048828 14.985939 18.047041 14.994571 18.046875 15.003906 C 18.403546 14.30624 18.615234 13.554253 18.615234 12.773438 C 18.615234 12.609902 18.590045 12.452968 18.576172 12.292969 z M 15.287109 15.470703 C 15.244804 15.592359 15.21753 15.721392 15.207031 15.855469 C 15.268877 15.814359 15.338107 15.783068 15.398438 15.740234 C 15.350747 15.65711 15.318669 15.563306 15.287109 15.470703 z M 17.958984 15.484375 C 17.759534 16.055262 17.23923 16.464844 16.623047 16.464844 C 16.417287 16.464844 16.221612 16.419691 16.044922 16.337891 C 15.672387 16.618463 15.267236 16.857592 14.847656 17.072266 C 13.813786 17.677189 12.622816 18.056641 11.441406 18.056641 C 11.214226 18.056641 10.994983 18.043558 10.783203 18.017578 C 10.780822 18.010528 10.775917 18.005048 10.773438 17.998047 C 10.578841 18.578369 10.060172 19 9.4375 19 C 8.8190812 19 8.2974026 18.587837 8.0996094 18.013672 C 8.0461897 18.170366 8.0117188 18.335973 8.0117188 18.511719 C 8.0117188 19.333619 8.64973 20 9.4375 20 C 10.09326 20 10.6458 19.538946 10.8125 18.910156 C 11.01661 18.931026 11.226706 18.941406 11.441406 18.941406 C 13.066906 18.941406 14.730022 18.328201 16.044922 17.337891 C 16.221612 17.419691 16.417287 17.464844 16.623047 17.464844 C 17.410837 17.464844 18.048828 16.798472 18.048828 15.976562 C 18.048828 15.802742 18.011579 15.639475 17.958984 15.484375 z "
       id="path39" />
    <path
       d="m7.7623 1c-0.6461 0-1.1916 0.44813-1.367 1.0627-2.0693 0.57527-3.7142 2.1009-4.3189 4.0529-0.61862 0.16277-1.0764 0.74746-1.0764 1.4434 0 0.63475 0.38158 1.1761 0.91792 1.39 0.25307 1.6079 1.0267 3.0222 2.2271 3.9306-0.0862 0.1917-0.13372 0.40637-0.13372 0.63214 0 0.8219 0.63863 1.4882 1.4264 1.4882 0.65576 0 1.2085-0.46151 1.3752-1.0903 0.20411 0.02087 0.41431 0.03109 0.62901 0.03109 1.6255 0 3.2879-0.61329 4.6028-1.6036 0.17669 0.0818 0.37207 0.12746 0.57783 0.12746 0.78779 0 1.4264-0.66629 1.4264-1.4882 0-0.24304-0.0561-0.47258-0.15519-0.6752 0.45576-0.77756 0.72146-1.6351 0.72146-2.5268 0-0.59956-0.0953-1.1769-0.27075-1.7207 0.39389-0.26488 0.65542-0.72526 0.65542-1.2505 0-0.82191-0.63862-1.4882-1.4264-1.4882-0.30181 0-0.58175 0.098384-0.81226 0.26526-0.97676-0.91756-2.2685-1.5396-3.7031-1.7156-0.22601-0.51064-0.72148-0.86466-1.296-0.86466zm1.4 1.7689c1.2082 0.18786 2.276 0.7307 3.079 1.5037-0.0605 0.16498-0.0941 0.34336-0.0941 0.53051 0 0.80614 0.61495 1.4616 1.3818 1.4865 0.1573 0.47083 0.24269 0.96936 0.24269 1.4848 0 0.65119-0.17855 1.2886-0.49033 1.8809-0.19694-0.10709-0.42128-0.16709-0.65873-0.16709-0.78779 0-1.4264 0.66629-1.4264 1.4882 0 0.27894 0.0734 0.53991 0.20141 0.76303-1.1415 0.81045-2.5623 1.3177-3.9557 1.3177-0.22718 0-0.44695-0.01356-0.65873-0.03954-0.19544-0.57873-0.72394-0.99384-1.3455-0.99384-0.2631 0-0.50986 0.07366-0.72146 0.20325-1.0306-0.7396-1.6852-1.9071-1.9332-3.2261 0.61528-0.16516 1.0698-0.7482 1.0698-1.4417 0-0.6282-0.37382-1.1647-0.90141-1.3831 0.54171-1.4935 1.822-2.6903 3.4604-3.2055 0.19203 0.58521 0.72447 1.0059 1.3505 1.0059 0.69575 0 1.2741-0.51982 1.4-1.2074z"
       fill="#fff"
       id="base"
       transform="translate(4,4)" />
  </g>
</svg>
