<?xml version="1.0" encoding="UTF-8" standalone="no"?>
<svg
   xmlns:dc="http://purl.org/dc/elements/1.1/"
   xmlns:cc="http://creativecommons.org/ns#"
   xmlns:rdf="http://www.w3.org/1999/02/22-rdf-syntax-ns#"
   xmlns:svg="http://www.w3.org/2000/svg"
   xmlns="http://www.w3.org/2000/svg"
   xmlns:sodipodi="http://sodipodi.sourceforge.net/DTD/sodipodi-0.dtd"
   xmlns:inkscape="http://www.inkscape.org/namespaces/inkscape"
   id="svg2"
   width="24"
   height="24"
   version="1.0"
   sodipodi:docname="half-life.svg"
   inkscape:version="0.92.2 5c3e80d, 2017-08-06">
  <metadata
     id="metadata58">
    <rdf:RDF>
      <cc:Work
         rdf:about="">
        <dc:format>image/svg+xml</dc:format>
        <dc:type
           rdf:resource="http://purl.org/dc/dcmitype/StillImage" />
      </cc:Work>
    </rdf:RDF>
  </metadata>
  <sodipodi:namedview
     pagecolor="#ffffff"
     bordercolor="#666666"
     borderopacity="1"
     objecttolerance="10"
     gridtolerance="10"
     guidetolerance="10"
     inkscape:pageopacity="0"
     inkscape:pageshadow="2"
     inkscape:window-width="640"
     inkscape:window-height="480"
     id="namedview56"
     showgrid="false"
     inkscape:zoom="9.8333333"
     inkscape:cx="12"
     inkscape:cy="12"
     inkscape:window-x="0"
     inkscape:window-y="25"
     inkscape:window-maximized="0"
     inkscape:current-layer="svg2" />
  <defs
     id="defs4">
    <linearGradient
       id="linearGradient3335"
       x1="11.375"
       x2="11.375"
       y1="22"
       y2="-9.8173"
       gradientUnits="userSpaceOnUse">
      <stop
         id="stop3330"
         offset="0" />
      <stop
         id="stop3333"
         stop-opacity="0"
         offset="1" />
    </linearGradient>
    <linearGradient
       id="linearGradient3181"
       x1="-3.0608"
       x2="-3.0608"
       y1="27.258"
       y2="7.2537"
       gradientTransform="translate(12.119 -7.2582)"
       gradientUnits="userSpaceOnUse">
      <stop
         id="stop3189"
         stop-color="#323232"
         offset="0" />
      <stop
         id="stop3191"
         stop-color="#505050"
         offset="1" />
    </linearGradient>
    <filter
       id="filter3194"
       x="-.18"
       y="-.18"
       width="1.36"
       height="1.36"
       color-interpolation-filters="sRGB">
      <feGaussianBlur
         id="feGaussianBlur3196"
         stdDeviation="1.2" />
    </filter>
    <clipPath
       id="clipPath2849">
      <rect
         id="rect2851"
         x="1"
         y="1"
         width="20"
         height="20"
         rx="2"
         ry="2"
         fill="#fff"
         fill-rule="evenodd" />
    </clipPath>
    <linearGradient
       id="linearGradient3845"
       x1="11"
       x2="21"
       y1="19.5"
       y2="19.5"
       gradientTransform="translate(1,-1)"
       gradientUnits="userSpaceOnUse"
       spreadMethod="reflect">
      <stop
         id="stop3833"
         stop-color="#fff"
         offset="0" />
      <stop
         id="stop3821"
         stop-color="#fff"
         stop-opacity=".49804"
         offset=".75" />
      <stop
         id="stop3835"
         stop-color="#fff"
         stop-opacity="0"
         offset="1" />
    </linearGradient>
    <linearGradient
       id="linearGradient3961"
       x1="10"
       x2="10"
       y1="1"
       y2="16"
       gradientTransform="translate(1,-1)"
       gradientUnits="userSpaceOnUse">
      <stop
         id="stop3825"
         stop-color="#fff"
         offset="0" />
      <stop
         id="stop3829"
         stop-color="#fff"
         stop-opacity="0"
         offset="1" />
    </linearGradient>
  </defs>
  <g
     id="layer1"
     transform="translate(0,2)">
    <g
       id="g3337"
       transform="translate(1,-1)">
      <rect
         id="rect3371"
         x=".5"
         y=".5"
         width="21"
         height="21.5"
         rx="2.5"
         ry="2.5"
         fill="url(#linearGradient3335)"
         opacity=".3" />
      <rect
         id="rect2553"
         x="1"
         y="2"
         width="20"
         height="20"
         rx="2.381"
         ry="2.3256"
         opacity=".5" />
    </g>
    <rect
       id="rect3173"
       x="2"
       width="20"
       height="20"
       rx="2"
       ry="2"
       fill="url(#linearGradient3181)"
       fill-rule="evenodd" />
    <path
       id="rect3050"
       d="m4 0c-1.108 0-2 0.892-2 2v16c0 1.108 0.892 2 2 2h16c1.108 0 2-0.892 2-2v-16c0-1.108-0.892-2-2-2h-16zm0 1.0312h16c0.5497 0 0.96875 0.41905 0.96875 0.96875v16c0 0.5497-0.41905 0.96875-0.96875 0.96875h-16c-0.5497 0-0.96875-0.41905-0.96875-0.96875v-16c0-0.5497 0.41905-0.96875 0.96875-0.96875z"
       fill="url(#linearGradient3961)"
       fill-rule="evenodd"
       opacity=".35" />
    <path
       id="path3235"
       d="m4 20c-1.108 0-2-0.892-2-2v-1c0 1.108 0.892 2 2 2h16c1.108 0 2-0.892 2-2v1c0 1.108-0.892 2-2 2h-16z"
       fill="url(#linearGradient3845)"
       fill-rule="evenodd"
       opacity=".2" />
  </g>
  <g
     id="layer2"
     transform="translate(0,2)">
    <rect
       id="rect2410"
       transform="translate(1,-1)"
       x="3"
       y="3"
       width="16"
       height="16"
       rx="2"
       ry="2"
       clip-path="url(#clipPath2849)"
       fill="#fff"
       filter="url(#filter3194)"
       opacity=".15" />
  </g>
  <defs
     id="defs37">
    <filter
       id="w">
      <feGaussianBlur
         stdDeviation="0.26998568"
         id="feGaussianBlur29" />
    </filter>
    <linearGradient
       id="a"
       gradientUnits="userSpaceOnUse"
       x1="8"
       y1="1"
       x2="8"
       y2="15">
      <stop
         stop-color="#ff9616"
         offset="0"
         id="stop32" />
      <stop
         stop-color="#ff8c00"
         offset="1"
         id="stop34" />
    </linearGradient>
  </defs>
  <path
     d="m8 1a7 7 0 0 0-7 7 7 7 0 0 0 7 7 7 7 0 0 0 7-7 7 7 0 0 0-7-7zm0 1.5a5.5 5.5 0 0 1 5.5 5.5 5.5 5.5 0 0 1-5.5 5.5 5.5 5.5 0 0 1-5.5-5.5 5.5 5.5 0 0 1 5.5-5.5zm-2.0137 1.5039 0.013672 0.99609 0.98633 0.017578 0.17578 0.49023 0.17773 0.49219-0.68945 1.1387c-0.3783 0.62637-0.75592 1.2589-0.83984 1.4043-0.083914 0.1454-0.5379 0.83457-0.80469 1.2734-0.80276 1.3205-0.80182 1.1849-0.0058594 1.1836l0.68555-0.001953 1.1738-1.752c0.5536-0.84751 1.0354-1.541 1.0703-1.541 0.072981 0 0.038002-0.1511 0.66602 1.5176 0.26448 0.70274 0.52387 1.3882 0.57617 1.5215 0.052299 0.13328 0.1416 0.24219 0.19727 0.24219 0.15572 0 1.3266-0.33489 1.7148-0.49023l0.3457-0.13867-0.16406-0.44531c-0.089677-0.24534-0.17488-0.45809-0.18945-0.47266-0.014569-0.014566-0.24372 0.047912-0.50977 0.13867-0.45165 0.15408-0.4876 0.15512-0.54688 0.015625-0.034915-0.082167-0.27739-0.65663-0.53906-1.3594-0.26167-0.70274-0.72983-1.9412-1.0391-2.752l-0.56055-1.4746-1.8945-0.0039063z"
     fill="url(#a)"
     id="base"
     transform="translate(4,4)" />
  <path
     style="opacity:0.2;fill:#000000"
     d="M 12 4 A 7 7 0 0 0 5 11 A 7 7 0 0 0 5.0234375 11.458984 A 7 7 0 0 1 12 5 A 7 7 0 0 1 18.976562 11.541016 A 7 7 0 0 0 19 11 A 7 7 0 0 0 12 4 z M 9.9863281 7.0039062 L 10 8 L 10.25 8.0039062 L 11.880859 8.0078125 L 12.441406 9.4824219 C 12.750676 10.293222 13.218799 11.531635 13.480469 12.234375 C 13.742139 12.937145 13.984621 13.51158 14.019531 13.59375 C 14.078811 13.73324 14.114756 13.732205 14.566406 13.578125 C 14.832456 13.487365 15.061602 13.424883 15.076172 13.439453 C 15.077749 13.441031 15.094507 13.484221 15.097656 13.490234 L 15.429688 13.357422 L 15.265625 12.912109 C 15.175945 12.666769 15.090742 12.454023 15.076172 12.439453 C 15.061602 12.424883 14.832456 12.487365 14.566406 12.578125 C 14.114756 12.732205 14.078811 12.73324 14.019531 12.59375 C 13.984621 12.51158 13.742139 11.937145 13.480469 11.234375 C 13.218799 10.531635 12.750676 9.2932219 12.441406 8.4824219 L 11.880859 7.0078125 L 9.9863281 7.0039062 z M 11.113281 9.3730469 L 10.650391 10.138672 C 10.272091 10.765042 9.8944669 11.397569 9.8105469 11.542969 C 9.7266329 11.688369 9.2726494 12.377576 9.0058594 12.816406 C 8.2504228 14.059062 8.2337306 14.010923 8.8945312 14 C 8.9380052 13.92914 8.9562483 13.898014 9.0058594 13.816406 C 9.2726494 13.377576 9.7266329 12.688369 9.8105469 12.542969 C 9.8944669 12.397569 10.272091 11.765042 10.650391 11.138672 L 11.339844 10 L 11.162109 9.5078125 L 11.113281 9.3730469 z M 6.5253906 11.486328 A 5.5 5.5 0 0 0 6.5 12 A 5.5 5.5 0 0 0 12 17.5 A 5.5 5.5 0 0 0 17.5 12 A 5.5 5.5 0 0 0 17.474609 11.513672 A 5.5 5.5 0 0 1 12 16.5 A 5.5 5.5 0 0 1 6.5253906 11.486328 z "
     id="path40" />
  <path
     style="opacity:0.1;fill:#000000"
     d="M 12 5 A 7 7 0 0 0 5 12 A 7 7 0 0 0 12 19 A 7 7 0 0 0 19 12 A 7 7 0 0 0 12 5 z M 12 5.5 C 13.701696 5.5 15.392422 6.2010161 16.595703 7.4042969 C 17.798984 8.6075777 18.5 10.298304 18.5 12 C 18.5 13.701696 17.798984 15.392422 16.595703 16.595703 C 15.392422 17.798984 13.701696 18.5 12 18.5 C 10.298304 18.5 8.6075777 17.798984 7.4042969 16.595703 C 6.2010161 15.392422 5.5 13.701696 5.5 12 C 5.5 10.298304 6.2010161 8.6075777 7.4042969 7.4042969 C 8.6075777 6.2010161 10.298304 5.5 12 5.5 z M 9.9863281 8.0039062 L 10 9 L 10.986328 9.0175781 L 11.162109 9.5078125 L 11.339844 10 L 10.650391 11.138672 C 10.272091 11.765042 9.8944669 12.397569 9.8105469 12.542969 C 9.7266329 12.688369 9.2726494 13.377576 9.0058594 13.816406 C 8.2030994 15.136906 8.20404 15.0013 9 15 L 9.6855469 14.998047 L 10.859375 13.246094 C 11.412975 12.398584 11.894787 11.705078 11.929688 11.705078 C 12.002667 11.705078 11.967683 11.553956 12.595703 13.222656 C 12.860183 13.925396 13.119575 14.610841 13.171875 14.744141 C 13.224175 14.877421 13.313471 14.986328 13.369141 14.986328 C 13.524861 14.986328 14.695784 14.651434 15.083984 14.496094 L 15.429688 14.357422 L 15.265625 13.912109 C 15.175945 13.666769 15.090742 13.454023 15.076172 13.439453 C 15.061602 13.424883 14.832456 13.487365 14.566406 13.578125 C 14.114756 13.732205 14.078811 13.73324 14.019531 13.59375 C 13.984621 13.51158 13.742139 12.937145 13.480469 12.234375 C 13.218799 11.531635 12.750676 10.293222 12.441406 9.4824219 L 11.880859 8.0078125 L 9.9863281 8.0039062 z M 10.494141 8.5058594 L 11.535156 8.5078125 L 11.974609 9.6601562 C 12.283338 10.469536 12.751068 11.7082 13.011719 12.408203 C 13.277543 13.12213 13.521488 13.70174 13.558594 13.789062 C 13.580616 13.840884 13.610105 13.93303 13.728516 14.041016 C 13.846927 14.149001 14.043086 14.198661 14.160156 14.195312 C 14.394298 14.188618 14.499179 14.129019 14.728516 14.050781 C 14.747679 14.044244 14.758661 14.041354 14.777344 14.035156 C 14.781661 14.046811 14.784707 14.054547 14.789062 14.066406 C 14.609583 14.131747 14.31063 14.230098 14.001953 14.318359 C 13.847942 14.362397 13.708698 14.399158 13.587891 14.429688 C 13.513825 14.237225 13.305917 13.688459 13.064453 13.046875 C 12.74977 12.210733 12.604863 11.839065 12.507812 11.628906 C 12.459288 11.523827 12.471998 11.445136 12.265625 11.298828 C 12.166781 11.228753 11.989757 11.203677 11.910156 11.208984 C 11.877969 11.215697 11.727252 11.247743 11.726562 11.248047 C 11.7258 11.248383 11.661257 11.282119 11.642578 11.294922 C 11.60522 11.320528 11.588558 11.336028 11.574219 11.349609 C 11.54554 11.376772 11.530793 11.394336 11.515625 11.412109 C 11.48529 11.447655 11.458522 11.483714 11.425781 11.527344 C 11.3603 11.614602 11.276749 11.730499 11.177734 11.873047 C 10.979704 12.158142 10.720378 12.545577 10.441406 12.972656 L 10.443359 12.966797 L 9.4179688 14.498047 L 9.1757812 14.5 C 9.2571793 14.366945 9.316456 14.268857 9.4335938 14.076172 C 9.5619468 13.86505 9.7414482 13.584627 9.8984375 13.339844 C 10.055427 13.095061 10.178008 12.907559 10.244141 12.792969 C 10.317201 12.666384 10.701087 12.022734 11.078125 11.398438 L 11.767578 10.259766 A 0.50005 0.50005 0 0 0 11.810547 9.8300781 L 11.632812 9.3378906 L 11.457031 8.8496094 A 0.50005 0.50005 0 0 0 10.996094 8.5175781 L 10.494141 8.5078125 L 10.494141 8.5058594 z "
     id="path45" />
  <path
     style="opacity:0.1;fill:#ffffff"
     d="M 12 6.5 A 5.5 5.5 0 0 0 6.5 12 A 5.5 5.5 0 0 0 6.5253906 12.486328 A 5.5 5.5 0 0 1 12 7.5 A 5.5 5.5 0 0 1 17.474609 12.513672 A 5.5 5.5 0 0 0 17.5 12 A 5.5 5.5 0 0 0 12 6.5 z M 9.9863281 9.0039062 L 10 10 L 10.986328 10.017578 L 11.113281 10.373047 L 11.339844 10 L 11.162109 9.5078125 L 10.986328 9.0175781 L 10.25 9.0039062 L 9.9863281 9.0039062 z M 11.929688 11.705078 C 11.894787 11.705078 11.412975 12.398584 10.859375 13.246094 L 9.6855469 14.998047 L 9 15 C 8.9530775 15.000077 8.9359263 14.999316 8.8945312 15 C 8.2345503 16.075738 8.2532308 16.00122 9 16 L 9.6855469 15.998047 L 10.859375 14.246094 C 11.412975 13.398584 11.894787 12.705078 11.929688 12.705078 C 12.002667 12.705078 11.967683 12.553956 12.595703 14.222656 C 12.860183 14.925396 13.119575 15.610841 13.171875 15.744141 C 13.224175 15.877421 13.313471 15.986328 13.369141 15.986328 C 13.524861 15.986328 14.695784 15.651434 15.083984 15.496094 L 15.429688 15.357422 L 15.265625 14.912109 C 15.185654 14.693331 15.123595 14.539762 15.097656 14.490234 L 15.083984 14.496094 C 14.695784 14.651434 13.524861 14.986328 13.369141 14.986328 C 13.313471 14.986328 13.224175 14.877421 13.171875 14.744141 C 13.119575 14.610841 12.860183 13.925396 12.595703 13.222656 C 11.967683 11.553956 12.002667 11.705078 11.929688 11.705078 z M 5.0234375 12.458984 A 7 7 0 0 0 5 13 A 7 7 0 0 0 12 20 A 7 7 0 0 0 19 13 A 7 7 0 0 0 18.976562 12.541016 A 7 7 0 0 1 12 19 A 7 7 0 0 1 5.0234375 12.458984 z "
     id="path50" />
</svg>
