<?xml version="1.0" encoding="UTF-8" standalone="no"?>
<svg
   xmlns:dc="http://purl.org/dc/elements/1.1/"
   xmlns:cc="http://creativecommons.org/ns#"
   xmlns:rdf="http://www.w3.org/1999/02/22-rdf-syntax-ns#"
   xmlns:svg="http://www.w3.org/2000/svg"
   xmlns="http://www.w3.org/2000/svg"
   xmlns:sodipodi="http://sodipodi.sourceforge.net/DTD/sodipodi-0.dtd"
   xmlns:inkscape="http://www.inkscape.org/namespaces/inkscape"
   id="svg2"
   width="24"
   height="24"
   version="1.0"
   sodipodi:docname="hugin.svg"
   inkscape:version="0.92.2 5c3e80d, 2017-08-06">
  <metadata
     id="metadata49">
    <rdf:RDF>
      <cc:Work
         rdf:about="">
        <dc:format>image/svg+xml</dc:format>
        <dc:type
           rdf:resource="http://purl.org/dc/dcmitype/StillImage" />
      </cc:Work>
    </rdf:RDF>
  </metadata>
  <sodipodi:namedview
     pagecolor="#ffffff"
     bordercolor="#666666"
     borderopacity="1"
     objecttolerance="10"
     gridtolerance="10"
     guidetolerance="10"
     inkscape:pageopacity="0"
     inkscape:pageshadow="2"
     inkscape:window-width="640"
     inkscape:window-height="480"
     id="namedview47"
     showgrid="false"
     inkscape:zoom="9.8333333"
     inkscape:cx="12"
     inkscape:cy="12"
     inkscape:window-x="0"
     inkscape:window-y="25"
     inkscape:window-maximized="0"
     inkscape:current-layer="svg2" />
  <defs
     id="defs4">
    <linearGradient
       id="linearGradient3335"
       x1="11.375"
       x2="11.375"
       y1="22"
       y2="-9.8173"
       gradientUnits="userSpaceOnUse">
      <stop
         id="stop3330"
         offset="0" />
      <stop
         id="stop3333"
         stop-opacity="0"
         offset="1" />
    </linearGradient>
    <linearGradient
       id="linearGradient3181"
       x1="-3.0608"
       x2="-3.0608"
       y1="27.258"
       y2="7.2537"
       gradientTransform="translate(12.119 -7.2582)"
       gradientUnits="userSpaceOnUse">
      <stop
         id="stop3189"
         stop-color="#03a025"
         offset="0" />
      <stop
         id="stop3191"
         stop-color="#2bc84f"
         offset="1" />
    </linearGradient>
    <filter
       id="filter3194"
       x="-.18"
       y="-.18"
       width="1.36"
       height="1.36"
       color-interpolation-filters="sRGB">
      <feGaussianBlur
         id="feGaussianBlur3196"
         stdDeviation="1.2" />
    </filter>
    <clipPath
       id="clipPath2849">
      <rect
         id="rect2851"
         x="1"
         y="1"
         width="20"
         height="20"
         rx="2"
         ry="2"
         fill="#fff"
         fill-rule="evenodd" />
    </clipPath>
    <linearGradient
       id="linearGradient3845"
       x1="11"
       x2="21"
       y1="19.5"
       y2="19.5"
       gradientTransform="translate(1,-1)"
       gradientUnits="userSpaceOnUse"
       spreadMethod="reflect">
      <stop
         id="stop3833"
         stop-color="#fff"
         offset="0" />
      <stop
         id="stop3821"
         stop-color="#fff"
         stop-opacity=".49804"
         offset=".75" />
      <stop
         id="stop3835"
         stop-color="#fff"
         stop-opacity="0"
         offset="1" />
    </linearGradient>
    <linearGradient
       id="linearGradient3961"
       x1="10"
       x2="10"
       y1="1"
       y2="16"
       gradientTransform="translate(1,-1)"
       gradientUnits="userSpaceOnUse">
      <stop
         id="stop3825"
         stop-color="#fff"
         offset="0" />
      <stop
         id="stop3829"
         stop-color="#fff"
         stop-opacity="0"
         offset="1" />
    </linearGradient>
  </defs>
  <g
     id="layer1"
     transform="translate(0,2)">
    <g
       id="g3337"
       transform="translate(1,-1)">
      <rect
         id="rect3371"
         x=".5"
         y=".5"
         width="21"
         height="21.5"
         rx="2.5"
         ry="2.5"
         fill="url(#linearGradient3335)"
         opacity=".3" />
      <rect
         id="rect2553"
         x="1"
         y="2"
         width="20"
         height="20"
         rx="2.381"
         ry="2.3256"
         opacity=".5" />
    </g>
    <rect
       id="rect3173"
       x="2"
       width="20"
       height="20"
       rx="2"
       ry="2"
       fill="url(#linearGradient3181)"
       fill-rule="evenodd" />
    <path
       id="rect3050"
       d="m4 0c-1.108 0-2 0.892-2 2v16c0 1.108 0.892 2 2 2h16c1.108 0 2-0.892 2-2v-16c0-1.108-0.892-2-2-2h-16zm0 1.0312h16c0.5497 0 0.96875 0.41905 0.96875 0.96875v16c0 0.5497-0.41905 0.96875-0.96875 0.96875h-16c-0.5497 0-0.96875-0.41905-0.96875-0.96875v-16c0-0.5497 0.41905-0.96875 0.96875-0.96875z"
       fill="url(#linearGradient3961)"
       fill-rule="evenodd"
       opacity=".35" />
    <path
       id="path3235"
       d="m4 20c-1.108 0-2-0.892-2-2v-1c0 1.108 0.892 2 2 2h16c1.108 0 2-0.892 2-2v1c0 1.108-0.892 2-2 2h-16z"
       fill="url(#linearGradient3845)"
       fill-rule="evenodd"
       opacity=".2" />
  </g>
  <g
     id="layer2"
     transform="translate(0,2)">
    <rect
       id="rect2410"
       transform="translate(1,-1)"
       x="3"
       y="3"
       width="16"
       height="16"
       rx="2"
       ry="2"
       clip-path="url(#clipPath2849)"
       fill="#fff"
       filter="url(#filter3194)"
       opacity=".15" />
  </g>
  <defs
     id="defs37">
    <filter
       id="w">
      <feGaussianBlur
         stdDeviation="0.20998568"
         id="feGaussianBlur29" />
    </filter>
    <linearGradient
       id="a"
       gradientUnits="userSpaceOnUse"
       x1="8"
       y1="2.75"
       x2="8"
       y2="13.25">
      <stop
         stop-color="#fafafa"
         offset="0"
         id="stop32" />
      <stop
         stop-color="#ebebeb"
         offset="1"
         id="stop34" />
    </linearGradient>
  </defs>
  <g
     id="main">
    <path
       style="opacity:0.3;fill:#000000"
       d="M 6 8.15625 L 6 9.15625 C 6.37623 9.28278 7.0397 9.4895056 8 9.6660156 L 8 8.6660156 C 7.0397 8.4895056 6.37623 8.28278 6 8.15625 z M 18 8.15625 C 17.6238 8.28278 16.96035 8.4895056 16 8.6660156 L 16 9.6660156 C 16.96035 9.4895056 17.6238 9.28278 18 9.15625 L 18 8.15625 z M 9 8.8027344 L 9 9.8027344 C 9.84567 9.9129244 10.802 10 12 10 C 13.198 10 14.1543 9.9129264 15 9.8027344 L 15 8.8027344 C 14.94804 8.8095045 14.884856 8.8137317 14.832031 8.8203125 C 14.586124 8.851545 14.321448 8.8760362 14.052734 8.9003906 C 13.879504 8.9163644 13.715947 8.9347825 13.53125 8.9472656 C 13.049284 8.9793085 12.542691 9 12 9 C 11.457309 9 10.950716 8.9793085 10.46875 8.9472656 C 10.284051 8.9347824 10.120496 8.9163644 9.9472656 8.9003906 C 9.6785522 8.8760362 9.4138759 8.851545 9.1679688 8.8203125 C 9.1151451 8.8137318 9.0519578 8.8095044 9 8.8027344 z M 12 16 C 11.438263 16 10.93772 16.021038 10.46875 16.052734 C 10.28621 16.06487 10.120635 16.083896 9.9472656 16.099609 C 9.6799195 16.124262 9.4130051 16.149162 9.1679688 16.179688 C 6.968144 16.459086 5.6875 16.96875 5.6875 16.96875 L 5 17.25 L 5 17.5 L 5 18.25 L 5.6875 17.96875 C 5.6875 17.96875 8.0833 17 12 17 C 15.9167 17 18.3125 17.96875 18.3125 17.96875 L 19 18.25 L 19 17.5 L 19 17.25 L 18.3125 16.96875 C 18.3125 16.96875 17.031856 16.459086 14.832031 16.179688 C 14.587001 16.149162 14.320081 16.124262 14.052734 16.099609 C 13.879365 16.083896 13.71379 16.06487 13.53125 16.052734 C 13.062276 16.021038 12.561737 16 12 16 z "
       id="path39" />
    <path
       d="m1 2.75v0.75 9 0.75l0.6875-0.28125s2.3958-0.96875 6.3125-0.96875 6.3125 0.96875 6.3125 0.96875l0.6875 0.28125v-0.75-9-0.75l-0.6875 0.28125s-2.3958 0.96875-6.3125 0.96875-6.3125-0.96875-6.3125-0.96875l-0.6875-0.28125zm1 1.4062c0.37623 0.12653 1.0397 0.33326 2 0.50977v6.668c-0.96035 0.17651-1.6238 0.38324-2 0.50977v-7.6875zm12 0v7.6875c-0.37622-0.12653-1.0397-0.33326-2-0.50977v-6.668c0.96035-0.17651 1.6238-0.38324 2-0.50977zm-9 0.64648c0.84567 0.11019 1.802 0.19727 3 0.19727 1.198 0 2.1543-0.087078 3-0.19727v6.3945c-0.84567-0.11019-1.802-0.19727-3-0.19727-1.198 0-2.1543 0.087078-3 0.19727v-6.3945z"
       fill="#fff"
       id="base"
       transform="translate(4,4)" />
  </g>
</svg>
