<?xml version="1.0" encoding="UTF-8" standalone="no"?>
<svg
   xmlns:dc="http://purl.org/dc/elements/1.1/"
   xmlns:cc="http://creativecommons.org/ns#"
   xmlns:rdf="http://www.w3.org/1999/02/22-rdf-syntax-ns#"
   xmlns:svg="http://www.w3.org/2000/svg"
   xmlns="http://www.w3.org/2000/svg"
   xmlns:sodipodi="http://sodipodi.sourceforge.net/DTD/sodipodi-0.dtd"
   xmlns:inkscape="http://www.inkscape.org/namespaces/inkscape"
   id="svg2"
   width="24"
   height="24"
   version="1.0"
   sodipodi:docname="nexuiz.svg"
   inkscape:version="0.92.2 5c3e80d, 2017-08-06">
  <metadata
     id="metadata58">
    <rdf:RDF>
      <cc:Work
         rdf:about="">
        <dc:format>image/svg+xml</dc:format>
        <dc:type
           rdf:resource="http://purl.org/dc/dcmitype/StillImage" />
      </cc:Work>
    </rdf:RDF>
  </metadata>
  <sodipodi:namedview
     pagecolor="#ffffff"
     bordercolor="#666666"
     borderopacity="1"
     objecttolerance="10"
     gridtolerance="10"
     guidetolerance="10"
     inkscape:pageopacity="0"
     inkscape:pageshadow="2"
     inkscape:window-width="640"
     inkscape:window-height="480"
     id="namedview56"
     showgrid="false"
     inkscape:zoom="9.8333333"
     inkscape:cx="12"
     inkscape:cy="12"
     inkscape:window-x="0"
     inkscape:window-y="25"
     inkscape:window-maximized="0"
     inkscape:current-layer="svg2" />
  <defs
     id="defs4">
    <linearGradient
       id="linearGradient3335"
       x1="11.375"
       x2="11.375"
       y1="22"
       y2="-9.8173"
       gradientUnits="userSpaceOnUse">
      <stop
         id="stop3330"
         offset="0" />
      <stop
         id="stop3333"
         stop-opacity="0"
         offset="1" />
    </linearGradient>
    <linearGradient
       id="linearGradient3181"
       x1="-3.0608"
       x2="-3.0608"
       y1="27.258"
       y2="7.2537"
       gradientTransform="translate(12.119 -7.2582)"
       gradientUnits="userSpaceOnUse">
      <stop
         id="stop3189"
         stop-color="#252534"
         offset="0" />
      <stop
         id="stop3191"
         stop-color="#3e3f4d"
         offset="1" />
    </linearGradient>
    <filter
       id="filter3194"
       x="-.18"
       y="-.18"
       width="1.36"
       height="1.36"
       color-interpolation-filters="sRGB">
      <feGaussianBlur
         id="feGaussianBlur3196"
         stdDeviation="1.2" />
    </filter>
    <clipPath
       id="clipPath2849">
      <rect
         id="rect2851"
         x="1"
         y="1"
         width="20"
         height="20"
         rx="2"
         ry="2"
         fill="#fff"
         fill-rule="evenodd" />
    </clipPath>
    <linearGradient
       id="linearGradient3845"
       x1="11"
       x2="21"
       y1="19.5"
       y2="19.5"
       gradientTransform="translate(1,-1)"
       gradientUnits="userSpaceOnUse"
       spreadMethod="reflect">
      <stop
         id="stop3833"
         stop-color="#fff"
         offset="0" />
      <stop
         id="stop3821"
         stop-color="#fff"
         stop-opacity=".49804"
         offset=".75" />
      <stop
         id="stop3835"
         stop-color="#fff"
         stop-opacity="0"
         offset="1" />
    </linearGradient>
    <linearGradient
       id="linearGradient3961"
       x1="10"
       x2="10"
       y1="1"
       y2="16"
       gradientTransform="translate(1,-1)"
       gradientUnits="userSpaceOnUse">
      <stop
         id="stop3825"
         stop-color="#fff"
         offset="0" />
      <stop
         id="stop3829"
         stop-color="#fff"
         stop-opacity="0"
         offset="1" />
    </linearGradient>
  </defs>
  <g
     id="layer1"
     transform="translate(0,2)">
    <g
       id="g3337"
       transform="translate(1,-1)">
      <rect
         id="rect3371"
         x=".5"
         y=".5"
         width="21"
         height="21.5"
         rx="2.5"
         ry="2.5"
         fill="url(#linearGradient3335)"
         opacity=".3" />
      <rect
         id="rect2553"
         x="1"
         y="2"
         width="20"
         height="20"
         rx="2.381"
         ry="2.3256"
         opacity=".5" />
    </g>
    <rect
       id="rect3173"
       x="2"
       width="20"
       height="20"
       rx="2"
       ry="2"
       fill="url(#linearGradient3181)"
       fill-rule="evenodd" />
    <path
       id="rect3050"
       d="m4 0c-1.108 0-2 0.892-2 2v16c0 1.108 0.892 2 2 2h16c1.108 0 2-0.892 2-2v-16c0-1.108-0.892-2-2-2h-16zm0 1.0312h16c0.5497 0 0.96875 0.41905 0.96875 0.96875v16c0 0.5497-0.41905 0.96875-0.96875 0.96875h-16c-0.5497 0-0.96875-0.41905-0.96875-0.96875v-16c0-0.5497 0.41905-0.96875 0.96875-0.96875z"
       fill="url(#linearGradient3961)"
       fill-rule="evenodd"
       opacity=".35" />
    <path
       id="path3235"
       d="m4 20c-1.108 0-2-0.892-2-2v-1c0 1.108 0.892 2 2 2h16c1.108 0 2-0.892 2-2v1c0 1.108-0.892 2-2 2h-16z"
       fill="url(#linearGradient3845)"
       fill-rule="evenodd"
       opacity=".2" />
  </g>
  <g
     id="layer2"
     transform="translate(0,2)">
    <rect
       id="rect2410"
       transform="translate(1,-1)"
       x="3"
       y="3"
       width="16"
       height="16"
       rx="2"
       ry="2"
       clip-path="url(#clipPath2849)"
       fill="#fff"
       filter="url(#filter3194)"
       opacity=".15" />
  </g>
  <defs
     id="defs37">
    <filter
       id="w">
      <feGaussianBlur
         stdDeviation="0.26998568"
         id="feGaussianBlur29" />
    </filter>
    <linearGradient
       id="a"
       gradientUnits="userSpaceOnUse"
       x1="8"
       y1="1"
       x2="8"
       y2="14.99828">
      <stop
         stop-color="#00f4ff"
         offset="0"
         id="stop32" />
      <stop
         stop-color="#1fa9d5"
         offset="1"
         id="stop34" />
    </linearGradient>
  </defs>
  <path
     d="m6.0182 1c-0.56659 0.38393 0.4814 1.0393 0.34146 1.6105-0.032668 0.41864-0.1489 0.82655-0.22016 1.2402-1.187 0.29598-2.3952 0.58471-3.5177 1.0637-0.35681 0.63528 0.82341 0.7621 1.2425 0.97312 0.58362 0.18149 1.1825 0.31806 1.79 0.38842-0.32027 1.5688-0.65997 3.1746-1.5439 4.5397-0.41557 0.65026-0.7892 1.3504-1.3273 1.9071-0.59835 0.44598 0.12647 0.6347 0.48812 0.26234 1.187-0.64779 2.0897-1.7117 2.8622-2.8011 0.54328-0.8452 0.72289-1.8568 1.0495-2.7997 0.13741-0.44035 0.27481-0.8807 0.41222-1.3211 1.0378-0.25529 2.0756-0.51058 3.1133-0.76586-0.23092 1.7068-0.32351 3.4351-0.72743 5.1137-0.22239 0.89304-0.44843 1.851-1.0921 2.545-0.30261-0.24025-0.99579-0.27165-0.64907 0.30036 0.24259 0.60287 0.53171 1.2046 0.89167 1.7419 0.55107-0.34391 0.90375-1.0375 1.2939-1.5743 0.9115-1.412 1.5254-2.9975 1.8757-4.6376 0.38987-1.6116 0.81731-3.2149 1.1809-4.8323-0.036936-0.64288-1.0294-0.63015-1.5013-0.8648-0.66516-0.20896-1.3564-0.43299-2.029-0.11569-0.51601 0.12217-1.032 0.24435-1.548 0.36652 0.28419-0.63791 0.072501-1.4789-0.59158-1.7781-0.58154-0.22191-1.1761-0.46852-1.794-0.562z"
     fill="url(#a)"
     id="base"
     transform="translate(4,4)" />
  <path
     style="opacity:0.2;fill:#000000"
     d="M 10.017578 4 C 9.6317703 4.2614293 9.9882205 4.6499119 10.214844 5.0507812 C 10.761487 5.1618425 11.293885 5.3646017 11.8125 5.5625 C 12.114985 5.6987838 12.317079 5.9495278 12.427734 6.2402344 C 12.651458 5.6164791 12.443799 4.8469308 11.8125 4.5625 C 11.23096 4.34059 10.635478 4.09348 10.017578 4 z M 14.458984 5.828125 C 14.289203 5.8484775 14.119322 5.8933313 13.951172 5.9726562 C 13.45469 6.0902028 12.959362 6.2086246 12.462891 6.3261719 C 12.562666 6.6531011 12.546125 7.0214885 12.404297 7.3398438 C 12.920297 7.2176738 13.435162 7.0948262 13.951172 6.9726562 C 14.623772 6.6553562 15.315309 6.8808837 15.980469 7.0898438 C 16.345141 7.2711755 17.017047 7.3067865 17.322266 7.609375 C 17.373721 7.3902844 17.433066 7.1726792 17.482422 6.953125 C 17.445482 6.310245 16.452369 6.3244937 15.980469 6.0898438 C 15.481599 5.9331238 14.968328 5.7670675 14.458984 5.828125 z M 10.275391 6.15625 C 10.229785 6.3877352 10.178671 6.6193731 10.138672 6.8515625 C 8.9516719 7.1475425 7.7435938 7.4350725 6.6210938 7.9140625 C 6.3825039 8.3388582 6.8109716 8.5226229 7.2597656 8.6699219 C 8.196073 8.3322958 9.1728496 8.0923916 10.138672 7.8515625 C 10.209932 7.4379125 10.326705 7.0299681 10.359375 6.6113281 C 10.395631 6.4633388 10.349875 6.3093547 10.275391 6.15625 z M 14.708984 9.296875 C 14.669273 9.3066441 14.629555 9.3164027 14.589844 9.3261719 C 14.435083 10.69559 14.303457 12.067891 13.980469 13.410156 C 13.758079 14.303196 13.532342 15.261078 12.888672 15.955078 C 12.586062 15.714828 11.893514 15.683849 12.240234 16.255859 C 12.315557 16.443047 12.405212 16.627426 12.490234 16.8125 C 12.631792 16.827699 12.781545 16.870028 12.888672 16.955078 C 13.532342 16.261078 13.758079 15.303196 13.980469 14.410156 C 14.384389 12.731556 14.478064 11.003675 14.708984 9.296875 z M 9.4472656 10.240234 C 9.1687118 11.490995 8.8144839 12.730485 8.1113281 13.816406 C 7.6957581 14.466666 7.3213031 15.165956 6.7832031 15.722656 C 6.1848531 16.168636 6.9098344 16.356735 7.2714844 15.984375 C 7.3341852 15.950157 7.3880818 15.90367 7.4492188 15.867188 C 7.6779327 15.521778 7.8900032 15.162723 8.1113281 14.816406 C 8.9952581 13.451306 9.3340269 11.844191 9.6542969 10.275391 C 9.5847405 10.267335 9.516586 10.249994 9.4472656 10.240234 z "
     id="path40" />
  <path
     style="opacity:0.1;fill:#000000"
     d="M 10.017578 5 C 9.4509881 5.38393 10.499315 6.0401281 10.359375 6.6113281 C 10.326705 7.0299681 10.209932 7.4379125 10.138672 7.8515625 C 8.9516719 8.1475425 7.7435938 8.4350725 6.6210938 8.9140625 C 6.2642837 9.5493425 7.4461444 9.6756988 7.8652344 9.8867188 C 8.4488544 10.068209 9.0467969 10.205031 9.6542969 10.275391 C 9.3340269 11.844191 8.9952581 13.451306 8.1113281 14.816406 C 7.6957581 15.466666 7.3213031 16.165956 6.7832031 16.722656 C 6.1848531 17.168636 6.9098344 17.356735 7.2714844 16.984375 C 8.4584844 16.336585 9.3603125 15.272994 10.132812 14.183594 C 10.676092 13.338394 10.856984 12.327666 11.183594 11.384766 C 11.321004 10.944416 11.458293 10.5029 11.595703 10.0625 C 12.633503 9.80721 13.671284 9.552155 14.708984 9.296875 C 14.478064 11.003675 14.384389 12.731556 13.980469 14.410156 C 13.758079 15.303196 13.532342 16.261078 12.888672 16.955078 C 12.586062 16.714828 11.893514 16.683849 12.240234 17.255859 C 12.482824 17.858729 12.770899 18.460747 13.130859 18.998047 C 13.681929 18.654137 14.035631 17.960628 14.425781 17.423828 C 15.337281 16.011828 15.950481 14.427209 16.300781 12.787109 C 16.690651 11.175509 17.118832 9.570525 17.482422 7.953125 C 17.445482 7.310245 16.452369 7.3244937 15.980469 7.0898438 C 15.315309 6.8808837 14.623772 6.6553562 13.951172 6.9726562 C 13.435162 7.0948262 12.920297 7.2176738 12.404297 7.3398438 C 12.688487 6.7019338 12.47658 5.8617 11.8125 5.5625 C 11.23096 5.34059 10.635478 5.09348 10.017578 5 z M 10.585938 5.6972656 C 10.923572 5.8010771 11.253667 5.8847995 11.611328 6.0214844 C 11.987867 6.1954538 12.126603 6.7341676 11.947266 7.1367188 A 0.50005 0.50005 0 0 0 12.519531 7.8261719 C 13.035539 7.7040001 13.550405 7.5831054 14.066406 7.4609375 A 0.50005 0.50005 0 0 0 14.164062 7.4257812 C 14.634974 7.2036285 15.161926 7.3565063 15.830078 7.5664062 L 15.757812 7.5371094 C 16.122118 7.7182583 16.483772 7.7568382 16.732422 7.8417969 C 16.855512 7.8838543 16.939308 7.9314071 16.966797 7.9550781 C 16.611495 9.5224499 16.1971 11.086226 15.814453 12.667969 A 0.50005 0.50005 0 0 0 15.8125 12.681641 C 15.473804 14.267411 14.880481 15.793101 14.007812 17.146484 C 14.006709 17.148197 14.006964 17.150632 14.005859 17.152344 C 13.723294 17.543702 13.483215 17.820588 13.236328 18.113281 C 13.119473 17.896786 13.001897 17.683776 12.900391 17.455078 A 0.50005 0.50005 0 0 0 13.255859 17.296875 C 14.015843 16.477467 14.24547 15.420021 14.466797 14.53125 A 0.50005 0.50005 0 0 0 14.466797 14.527344 C 14.884914 12.789743 14.975837 11.045191 15.203125 9.3652344 A 0.50005 0.50005 0 0 0 14.589844 8.8125 C 13.552148 9.0677789 12.514363 9.322835 11.476562 9.578125 A 0.50005 0.50005 0 0 0 11.117188 9.9140625 C 10.979779 10.354459 10.842486 10.794032 10.705078 11.234375 L 10.710938 11.220703 C 10.368234 12.210065 10.184325 13.168884 9.7167969 13.902344 C 9.2339954 14.582421 8.6824556 15.189198 8.0839844 15.724609 C 8.2170125 15.508677 8.4007255 15.289222 8.5292969 15.087891 C 9.4786931 13.621687 9.8237768 11.946174 10.144531 10.375 A 0.50005 0.50005 0 0 0 9.7109375 9.7792969 C 9.1395848 9.7131234 8.5725935 9.5839658 8.0136719 9.4101562 C 7.7963952 9.3112267 7.5975393 9.2566222 7.4101562 9.1972656 C 8.3256628 8.8634934 9.274133 8.5817063 10.259766 8.3359375 A 0.50005 0.50005 0 0 0 10.632812 7.9355469 C 10.694299 7.5786313 10.799411 7.1720409 10.84375 6.7207031 C 10.914243 6.4202332 10.83112 6.1557557 10.738281 5.9589844 C 10.687653 5.8516784 10.638645 5.782572 10.585938 5.6972656 z "
     id="path45" />
  <path
     style="opacity:0.1;fill:#ffffff"
     d="M 10.017578 6 C 9.597783 6.2844595 10.062384 6.7184106 10.275391 7.15625 C 10.311033 6.9753398 10.345043 6.7949777 10.359375 6.6113281 C 10.404026 6.4290751 10.321035 6.238621 10.214844 6.0507812 C 10.148518 6.0373058 10.084438 6.010115 10.017578 6 z M 12.427734 7.2402344 C 12.416117 7.2726231 12.418325 7.3083551 12.404297 7.3398438 C 12.423825 7.3352203 12.443363 7.3307954 12.462891 7.3261719 C 12.453805 7.2964006 12.438775 7.2692391 12.427734 7.2402344 z M 17.322266 8.609375 C 16.994665 10.004269 16.637728 11.394276 16.300781 12.787109 C 15.950481 14.427209 15.337281 16.011828 14.425781 17.423828 C 14.035631 17.960628 13.681929 18.654137 13.130859 18.998047 C 12.882665 18.627576 12.67904 18.223487 12.490234 17.8125 C 12.231921 17.784765 12.016256 17.886346 12.240234 18.255859 C 12.482824 18.858729 12.770899 19.460747 13.130859 19.998047 C 13.681929 19.654137 14.035631 18.960628 14.425781 18.423828 C 15.337281 17.011828 15.950481 15.427209 16.300781 13.787109 C 16.690651 12.175509 17.118832 10.570525 17.482422 8.953125 C 17.474028 8.8070468 17.412011 8.6983473 17.322266 8.609375 z M 14.708984 9.296875 C 13.671284 9.552155 12.633503 9.80721 11.595703 10.0625 C 11.458293 10.5029 11.321004 10.944416 11.183594 11.384766 C 10.856984 12.327666 10.676092 13.338394 10.132812 14.183594 C 9.4011182 15.215448 8.5454766 16.213009 7.4492188 16.867188 C 7.2484888 17.170335 7.0347209 17.462444 6.7832031 17.722656 C 6.1848531 18.168636 6.9098344 18.356735 7.2714844 17.984375 C 8.4584844 17.336585 9.3603125 16.272994 10.132812 15.183594 C 10.676092 14.338394 10.856984 13.327666 11.183594 12.384766 C 11.321004 11.944416 11.458293 11.5029 11.595703 11.0625 C 12.593788 10.81698 13.591848 10.571683 14.589844 10.326172 C 14.628622 9.9830329 14.662716 9.6388604 14.708984 9.296875 z M 7.2597656 9.6699219 C 7.045347 9.7472398 6.8302529 9.8248107 6.6210938 9.9140625 C 6.2642837 10.549342 7.4461444 10.675699 7.8652344 10.886719 C 8.3820322 11.047429 8.911147 11.164752 9.4472656 11.240234 C 9.518879 10.918676 9.5887978 10.596229 9.6542969 10.275391 C 9.0467969 10.205031 8.4488544 10.068209 7.8652344 9.8867188 C 7.7263793 9.8168025 7.482141 9.7429078 7.2597656 9.6699219 z "
     id="path50" />
</svg>
