<?xml version="1.0" encoding="UTF-8" standalone="no"?>
<svg
   xmlns:dc="http://purl.org/dc/elements/1.1/"
   xmlns:cc="http://creativecommons.org/ns#"
   xmlns:rdf="http://www.w3.org/1999/02/22-rdf-syntax-ns#"
   xmlns:svg="http://www.w3.org/2000/svg"
   xmlns="http://www.w3.org/2000/svg"
   xmlns:sodipodi="http://sodipodi.sourceforge.net/DTD/sodipodi-0.dtd"
   xmlns:inkscape="http://www.inkscape.org/namespaces/inkscape"
   id="svg2"
   width="24"
   height="24"
   version="1.0"
   sodipodi:docname="qcad.svg"
   inkscape:version="0.92.2 5c3e80d, 2017-08-06">
  <metadata
     id="metadata49">
    <rdf:RDF>
      <cc:Work
         rdf:about="">
        <dc:format>image/svg+xml</dc:format>
        <dc:type
           rdf:resource="http://purl.org/dc/dcmitype/StillImage" />
      </cc:Work>
    </rdf:RDF>
  </metadata>
  <sodipodi:namedview
     pagecolor="#ffffff"
     bordercolor="#666666"
     borderopacity="1"
     objecttolerance="10"
     gridtolerance="10"
     guidetolerance="10"
     inkscape:pageopacity="0"
     inkscape:pageshadow="2"
     inkscape:window-width="640"
     inkscape:window-height="480"
     id="namedview47"
     showgrid="false"
     inkscape:zoom="9.8333333"
     inkscape:cx="12"
     inkscape:cy="12"
     inkscape:window-x="0"
     inkscape:window-y="25"
     inkscape:window-maximized="0"
     inkscape:current-layer="svg2" />
  <defs
     id="defs4">
    <linearGradient
       id="linearGradient3335"
       x1="11.375"
       x2="11.375"
       y1="22"
       y2="-9.8173"
       gradientUnits="userSpaceOnUse">
      <stop
         id="stop3330"
         offset="0" />
      <stop
         id="stop3333"
         stop-opacity="0"
         offset="1" />
    </linearGradient>
    <linearGradient
       id="linearGradient3181"
       x1="-3.0608"
       x2="-3.0608"
       y1="27.258"
       y2="7.2537"
       gradientTransform="translate(12.119 -7.2582)"
       gradientUnits="userSpaceOnUse">
      <stop
         id="stop3189"
         stop-color="#5f709b"
         offset="0" />
      <stop
         id="stop3191"
         stop-color="#8b98ba"
         offset="1" />
    </linearGradient>
    <filter
       id="filter3194"
       x="-.18"
       y="-.18"
       width="1.36"
       height="1.36"
       color-interpolation-filters="sRGB">
      <feGaussianBlur
         id="feGaussianBlur3196"
         stdDeviation="1.2" />
    </filter>
    <clipPath
       id="clipPath2849">
      <rect
         id="rect2851"
         x="1"
         y="1"
         width="20"
         height="20"
         rx="2"
         ry="2"
         fill="#fff"
         fill-rule="evenodd" />
    </clipPath>
    <linearGradient
       id="linearGradient3845"
       x1="11"
       x2="21"
       y1="19.5"
       y2="19.5"
       gradientTransform="translate(1,-1)"
       gradientUnits="userSpaceOnUse"
       spreadMethod="reflect">
      <stop
         id="stop3833"
         stop-color="#fff"
         offset="0" />
      <stop
         id="stop3821"
         stop-color="#fff"
         stop-opacity=".49804"
         offset=".75" />
      <stop
         id="stop3835"
         stop-color="#fff"
         stop-opacity="0"
         offset="1" />
    </linearGradient>
    <linearGradient
       id="linearGradient3961"
       x1="10"
       x2="10"
       y1="1"
       y2="16"
       gradientTransform="translate(1,-1)"
       gradientUnits="userSpaceOnUse">
      <stop
         id="stop3825"
         stop-color="#fff"
         offset="0" />
      <stop
         id="stop3829"
         stop-color="#fff"
         stop-opacity="0"
         offset="1" />
    </linearGradient>
  </defs>
  <g
     id="layer1"
     transform="translate(0,2)">
    <g
       id="g3337"
       transform="translate(1,-1)">
      <rect
         id="rect3371"
         x=".5"
         y=".5"
         width="21"
         height="21.5"
         rx="2.5"
         ry="2.5"
         fill="url(#linearGradient3335)"
         opacity=".3" />
      <rect
         id="rect2553"
         x="1"
         y="2"
         width="20"
         height="20"
         rx="2.381"
         ry="2.3256"
         opacity=".5" />
    </g>
    <rect
       id="rect3173"
       x="2"
       width="20"
       height="20"
       rx="2"
       ry="2"
       fill="url(#linearGradient3181)"
       fill-rule="evenodd" />
    <path
       id="rect3050"
       d="m4 0c-1.108 0-2 0.892-2 2v16c0 1.108 0.892 2 2 2h16c1.108 0 2-0.892 2-2v-16c0-1.108-0.892-2-2-2h-16zm0 1.0312h16c0.5497 0 0.96875 0.41905 0.96875 0.96875v16c0 0.5497-0.41905 0.96875-0.96875 0.96875h-16c-0.5497 0-0.96875-0.41905-0.96875-0.96875v-16c0-0.5497 0.41905-0.96875 0.96875-0.96875z"
       fill="url(#linearGradient3961)"
       fill-rule="evenodd"
       opacity=".35" />
    <path
       id="path3235"
       d="m4 20c-1.108 0-2-0.892-2-2v-1c0 1.108 0.892 2 2 2h16c1.108 0 2-0.892 2-2v1c0 1.108-0.892 2-2 2h-16z"
       fill="url(#linearGradient3845)"
       fill-rule="evenodd"
       opacity=".2" />
  </g>
  <g
     id="layer2"
     transform="translate(0,2)">
    <rect
       id="rect2410"
       transform="translate(1,-1)"
       x="3"
       y="3"
       width="16"
       height="16"
       rx="2"
       ry="2"
       clip-path="url(#clipPath2849)"
       fill="#fff"
       filter="url(#filter3194)"
       opacity=".15" />
  </g>
  <defs
     id="defs37">
    <filter
       id="w">
      <feGaussianBlur
         stdDeviation="0.20998568"
         id="feGaussianBlur29" />
    </filter>
    <linearGradient
       id="a"
       gradientUnits="userSpaceOnUse"
       x1="8"
       y1="1"
       x2="8"
       y2="15.00005">
      <stop
         stop-color="#fafafa"
         offset="0"
         id="stop32" />
      <stop
         stop-color="#ebebeb"
         offset="1"
         id="stop34" />
    </linearGradient>
  </defs>
  <g
     id="main">
    <path
       style="opacity:0.3;fill:#000000"
       d="M 12 8 C 11.44772 8 11 8.44772 11 9 C 11 9.186169 11.063739 9.3507379 11.152344 9.5 C 11.32659 9.2064683 11.633889 9 12 9 C 12.366111 9 12.67341 9.2064683 12.847656 9.5 C 12.936261 9.3507379 13 9.186169 13 9 C 13 8.44772 12.55228 8 12 8 z M 10.068359 9.5 C 10.026444 9.6599 10 9.8259487 10 10 C 10 10.323045 10.079717 10.623578 10.216797 10.890625 L 10.8125 10.59375 C 10.451915 10.325743 10.185824 9.9438664 10.068359 9.5 z M 13.931641 9.5 C 13.814176 9.9438743 13.548085 10.325751 13.1875 10.59375 L 13.783203 10.890625 C 13.920283 10.623583 14 10.32307 14 10 C 14 9.8259604 13.973556 9.659893 13.931641 9.5 z M 12 11 L 10.8125 14 L 11.208984 14 L 12 12 L 12.791016 14 L 13.1875 14 L 12 11 z M 6.4375 15 C 6.18647 15 6 15.18647 6 15.4375 L 6 15.5625 C 6 15.81353 6.18647 16 6.4375 16 L 8 16 L 8.34375 15 L 6.4375 15 z M 10.5 15 L 9 19 L 8.1699219 16.507812 L 8 17 L 9 20 L 10.5 16 L 13.5 16 L 15 20 L 16 17 L 15.830078 16.507812 L 15 19 L 13.5 15 L 13.1875 15 L 10.8125 15 L 10.5 15 z M 15.65625 15 L 16 16 L 17.5625 16 C 17.81353 16 18 15.81353 18 15.5625 L 18 15.4375 C 18 15.18647 18 15 17.5625 15 L 15.65625 15 z "
       id="path39" />
    <path
       d="m8 1c-0.554 0-1 0.446-1 1v1.2812c-0.5969 0.34604-1 0.97915-1 1.7188 0 0.65798 0.32209 1.2293 0.8125 1.5938l-0.8125 0.40625-1.3438 3h-2.2188c-0.25103 0-0.4375 0.18647-0.4375 0.4375v0.125c0 0.25103 0.18647 0.4375 0.4375 0.4375h1.9062l-0.34375 1 1 3 1.5-4h3l1.5 4 1-3-0.34375-1h1.9062c0.25103 0 0.4375-0.18647 0.4375-0.4375v-0.125c0-0.25103 0-0.4375-0.4375-0.4375h-2.2188l-1.3438-3-0.8125-0.40625c0.49041-0.36449 0.8125-0.93577 0.8125-1.5938 0-0.7396-0.4031-1.3727-1-1.7188v-1.2812c0-0.554-0.446-1-1-1zm0 3c0.55228 0 1 0.44772 1 1s-0.44772 1-1 1-1-0.44772-1-1 0.44772-1 1-1zm0 3 1.1875 3h-2.375z"
       fill="#fff"
       id="base"
       transform="translate(4,4)" />
  </g>
</svg>
