<?xml version="1.0" encoding="UTF-8" standalone="no"?>
<svg
   xmlns:dc="http://purl.org/dc/elements/1.1/"
   xmlns:cc="http://creativecommons.org/ns#"
   xmlns:rdf="http://www.w3.org/1999/02/22-rdf-syntax-ns#"
   xmlns:svg="http://www.w3.org/2000/svg"
   xmlns="http://www.w3.org/2000/svg"
   xmlns:sodipodi="http://sodipodi.sourceforge.net/DTD/sodipodi-0.dtd"
   xmlns:inkscape="http://www.inkscape.org/namespaces/inkscape"
   id="svg2"
   width="24"
   height="24"
   version="1.0"
   sodipodi:docname="quodlibet.svg"
   inkscape:version="0.92.2 5c3e80d, 2017-08-06">
  <metadata
     id="metadata49">
    <rdf:RDF>
      <cc:Work
         rdf:about="">
        <dc:format>image/svg+xml</dc:format>
        <dc:type
           rdf:resource="http://purl.org/dc/dcmitype/StillImage" />
      </cc:Work>
    </rdf:RDF>
  </metadata>
  <sodipodi:namedview
     pagecolor="#ffffff"
     bordercolor="#666666"
     borderopacity="1"
     objecttolerance="10"
     gridtolerance="10"
     guidetolerance="10"
     inkscape:pageopacity="0"
     inkscape:pageshadow="2"
     inkscape:window-width="640"
     inkscape:window-height="480"
     id="namedview47"
     showgrid="false"
     inkscape:zoom="9.8333333"
     inkscape:cx="12"
     inkscape:cy="12"
     inkscape:window-x="0"
     inkscape:window-y="25"
     inkscape:window-maximized="0"
     inkscape:current-layer="svg2" />
  <defs
     id="defs4">
    <linearGradient
       id="linearGradient3335"
       x1="11.375"
       x2="11.375"
       y1="22"
       y2="-9.8173"
       gradientUnits="userSpaceOnUse">
      <stop
         id="stop3330"
         offset="0" />
      <stop
         id="stop3333"
         stop-opacity="0"
         offset="1" />
    </linearGradient>
    <linearGradient
       id="linearGradient3181"
       x1="-3.0608"
       x2="-3.0608"
       y1="27.258"
       y2="7.2537"
       gradientTransform="translate(12.119 -7.2582)"
       gradientUnits="userSpaceOnUse">
      <stop
         id="stop3189"
         stop-color="#141414"
         offset="0" />
      <stop
         id="stop3191"
         stop-color="#25556e"
         offset="1" />
    </linearGradient>
    <filter
       id="filter3194"
       x="-.18"
       y="-.18"
       width="1.36"
       height="1.36"
       color-interpolation-filters="sRGB">
      <feGaussianBlur
         id="feGaussianBlur3196"
         stdDeviation="1.2" />
    </filter>
    <clipPath
       id="clipPath2849">
      <rect
         id="rect2851"
         x="1"
         y="1"
         width="20"
         height="20"
         rx="2"
         ry="2"
         fill="#fff"
         fill-rule="evenodd" />
    </clipPath>
    <linearGradient
       id="linearGradient3845"
       x1="11"
       x2="21"
       y1="19.5"
       y2="19.5"
       gradientTransform="translate(1,-1)"
       gradientUnits="userSpaceOnUse"
       spreadMethod="reflect">
      <stop
         id="stop3833"
         stop-color="#fff"
         offset="0" />
      <stop
         id="stop3821"
         stop-color="#fff"
         stop-opacity=".49804"
         offset=".75" />
      <stop
         id="stop3835"
         stop-color="#fff"
         stop-opacity="0"
         offset="1" />
    </linearGradient>
    <linearGradient
       id="linearGradient3961"
       x1="10"
       x2="10"
       y1="1"
       y2="16"
       gradientTransform="translate(1,-1)"
       gradientUnits="userSpaceOnUse">
      <stop
         id="stop3825"
         stop-color="#fff"
         offset="0" />
      <stop
         id="stop3829"
         stop-color="#fff"
         stop-opacity="0"
         offset="1" />
    </linearGradient>
  </defs>
  <g
     id="layer1"
     transform="translate(0,2)">
    <g
       id="g3337"
       transform="translate(1,-1)">
      <rect
         id="rect3371"
         x=".5"
         y=".5"
         width="21"
         height="21.5"
         rx="2.5"
         ry="2.5"
         fill="url(#linearGradient3335)"
         opacity=".3" />
      <rect
         id="rect2553"
         x="1"
         y="2"
         width="20"
         height="20"
         rx="2.381"
         ry="2.3256"
         opacity=".5" />
    </g>
    <rect
       id="rect3173"
       x="2"
       width="20"
       height="20"
       rx="2"
       ry="2"
       fill="url(#linearGradient3181)"
       fill-rule="evenodd" />
    <path
       id="rect3050"
       d="m4 0c-1.108 0-2 0.892-2 2v16c0 1.108 0.892 2 2 2h16c1.108 0 2-0.892 2-2v-16c0-1.108-0.892-2-2-2h-16zm0 1.0312h16c0.5497 0 0.96875 0.41905 0.96875 0.96875v16c0 0.5497-0.41905 0.96875-0.96875 0.96875h-16c-0.5497 0-0.96875-0.41905-0.96875-0.96875v-16c0-0.5497 0.41905-0.96875 0.96875-0.96875z"
       fill="url(#linearGradient3961)"
       fill-rule="evenodd"
       opacity=".35" />
    <path
       id="path3235"
       d="m4 20c-1.108 0-2-0.892-2-2v-1c0 1.108 0.892 2 2 2h16c1.108 0 2-0.892 2-2v1c0 1.108-0.892 2-2 2h-16z"
       fill="url(#linearGradient3845)"
       fill-rule="evenodd"
       opacity=".2" />
  </g>
  <g
     id="layer2"
     transform="translate(0,2)">
    <rect
       id="rect2410"
       transform="translate(1,-1)"
       x="3"
       y="3"
       width="16"
       height="16"
       rx="2"
       ry="2"
       clip-path="url(#clipPath2849)"
       fill="#fff"
       filter="url(#filter3194)"
       opacity=".15" />
  </g>
  <defs
     id="defs37">
    <filter
       id="w">
      <feGaussianBlur
         stdDeviation="0.20998568"
         id="feGaussianBlur29" />
    </filter>
    <linearGradient
       id="a"
       gradientUnits="userSpaceOnUse"
       x1="8"
       y1="1.0001512"
       x2="8"
       y2="15.0000892">
      <stop
         stop-color="#fafafa"
         offset="0"
         id="stop32" />
      <stop
         stop-color="#ebebeb"
         offset="1"
         id="stop34" />
    </linearGradient>
  </defs>
  <g
     id="main">
    <path
       style="opacity:0.3;fill:#000000"
       d="M 9.9902344 6 C 9.9114166 6.0191656 9.8238137 6.0255368 9.7578125 6.0605469 C 9.5903525 6.1506369 9.5183788 6.2501281 9.4804688 6.3613281 C 9.4424958 6.4727181 9.4434122 6.611245 9.4882812 6.765625 C 9.5233711 6.8863633 9.5935351 7.0078469 9.6757812 7.1230469 C 9.7038714 7.1025075 9.7211544 7.0802682 9.7578125 7.0605469 C 9.8825225 6.9943949 10.036886 6.9570256 10.197266 6.9472656 C 10.614656 6.9280706 11.110348 7.0898713 11.460938 7.3632812 C 11.576844 7.4536687 11.666329 7.5562148 11.744141 7.6621094 C 11.838332 7.5877548 11.912279 7.4926644 11.955078 7.3574219 C 11.990038 6.9705619 11.803487 6.6304112 11.460938 6.3632812 C 11.38165 6.3014486 11.292744 6.2469174 11.201172 6.1972656 C 10.833321 6.0658904 10.444614 5.9922307 10.058594 6.0019531 C 10.035308 6.0009554 10.013266 6.000006 9.9902344 6 z M 8.53125 7.0644531 C 8.37791 7.5170877 8.419863 8.0468569 8.7617188 8.46875 C 9.1380487 9.0317 9.7420094 9.4634756 10.412109 9.6660156 C 10.920179 9.8195756 11.476428 9.8376577 11.986328 9.6523438 C 11.987628 12.896744 12 16.466375 12 19.671875 A 0.31105 0.31774 0 0 0 12.232422 19.980469 C 12.465442 20.042199 12.748499 19.95943 12.880859 19.78125 C 13.013219 19.60307 13.032635 19.419391 13.046875 19.244141 C 13.061125 19.068891 13.057307 18.894487 13.060547 18.748047 C 13.063747 18.601597 13.083624 18.479051 13.089844 18.462891 A 0.31105 0.31774 0 0 0 13.105469 18.410156 C 13.235579 17.768516 13.619457 17.270356 14.117188 16.785156 C 14.614888 16.299916 15.218644 15.844833 15.714844 15.289062 C 16.304916 14.630302 16.535178 13.734532 16.384766 12.890625 C 16.293439 13.400683 16.07281 13.889426 15.714844 14.289062 C 15.218644 14.844832 14.614888 15.299916 14.117188 15.785156 C 13.619457 16.270356 13.235579 16.768516 13.105469 17.410156 A 0.31105 0.31774 0 0 1 13.089844 17.462891 C 13.083624 17.479051 13.063747 17.601597 13.060547 17.748047 C 13.057307 17.894487 13.061125 18.068891 13.046875 18.244141 C 13.032635 18.419391 13.013219 18.60307 12.880859 18.78125 C 12.748499 18.95943 12.465442 19.042199 12.232422 18.980469 A 0.31105 0.31774 0 0 1 12 18.671875 C 12 15.466375 11.987628 11.896744 11.986328 8.6523438 C 11.853836 8.7004956 11.717199 8.7340079 11.580078 8.7558594 C 11.487686 8.7931224 11.386697 8.8206259 11.265625 8.8320312 C 10.987006 8.8582705 10.682626 8.7804031 10.425781 8.6699219 C 10.421248 8.6685757 10.416635 8.6673833 10.412109 8.6660156 C 9.7420094 8.4634756 9.1380487 8.0317 8.7617188 7.46875 C 8.6592623 7.3423059 8.5842835 7.2058917 8.53125 7.0644531 z M 9.8359375 9.09375 C 9.8440675 9.09929 9.8550433 9.1000378 9.8632812 9.1054688 C 9.8691713 9.1083088 9.8729742 9.1163666 9.8789062 9.1191406 L 9.8359375 9.09375 z M 14.939453 10.472656 C 14.906133 10.481017 14.812551 10.505834 14.8125 10.505859 C 14.812438 10.505892 14.697306 10.615164 14.697266 10.615234 C 14.697224 10.615302 14.65627 10.712791 14.65625 10.712891 C 14.656228 10.712994 14.648938 10.759401 14.648438 10.775391 C 14.647338 10.807371 14.650144 10.825944 14.652344 10.839844 C 14.670394 10.951074 14.676997 10.924109 14.685547 10.943359 A 0.31105 0.31774 0 0 0 14.689453 10.951172 C 14.953451 11.498496 15.216249 12.051252 15.335938 12.589844 C 15.343271 12.566527 15.354833 12.545164 15.361328 12.521484 C 15.529103 11.868829 15.26614 11.171074 14.939453 10.472656 z "
       id="path39" />
    <path
       d="m5.9408 1.0008c-0.58596 0.018851-1.0725 0.36427-1.3214 0.82681-0.26443 0.49148-0.25952 1.1441 0.14287 1.6407 0.37633 0.56295 0.9788 0.99436 1.6489 1.1969 0.50807 0.15356 1.0646 0.17191 1.5745-0.013404 0.00127 3.2444 0.014093 6.8145 0.014093 10.02a0.31105 0.31774 0 0 0 0.23278 0.30779c0.23302 0.06173 0.51642-0.0194 0.64878-0.19758 0.13236-0.17818 0.15147-0.36288 0.16571-0.53813 0.014254-0.17525 0.010846-0.34949 0.014093-0.49593 0.00325-0.14645 0.022944-0.26879 0.029159-0.28495a0.31105 0.31774 0 0 0 0.015065-0.05213c0.13011-0.64164 0.51507-1.1411 1.0128-1.6263 0.4977-0.48524 1.0997-0.93953 1.5959-1.4953 0.86232-0.9627 0.97728-2.435 0.2182-3.5053-0.06985-0.0985-0.28139-0.4531-0.44711-0.73522-0.08286-0.14107-0.15687-0.26702-0.20752-0.34998-0.02533-0.041485-0.032-0.058244-0.06999-0.10673-0.0095-0.012122 0.01223-0.020275-0.09234-0.081911-0.01307-0.0077-0.05336-0.024786-0.05346-0.024821-9.9e-5 -3.51e-5 -0.09906-0.017871-0.09914-0.017871-7.9e-5 -8e-7 -0.1501 0.037695-0.15016 0.037729-6.2e-5 3.35e-5 -0.11562 0.10964-0.11566 0.10971-4.2e-5 6.81e-5 -0.0408 0.09819-0.04082 0.098293-2.2e-5 1.029e-4 -0.0072 0.046063-0.0077 0.062054-0.0011 0.031981 0.0017 0.050135 0.0039 0.06404 0.01805 0.11123 0.0245 0.084014 0.03305 0.10326a0.31105 0.31774 0 0 0 0.0044 0.00943c0.41931 0.86932 0.88166 1.7549 0.6721 2.5701-0.2709 0.98761-1.2784 1.6611-2.3473 1.8433-0.00466-0.04956-0.00467-0.06229-0.014678-0.21346v-7.2156a0.31105 0.31774 0 0 0-0.023334-0.12113c-0.45773-1.134-1.7103-1.8439-2.9173-1.8135-0.039906-0.0017071-0.079516-0.0020013-0.11858-7.447e-4zm0.25563 0.94645c0.41739-0.019195 0.91341 0.14309 1.264 0.4165 0.34255 0.26713 0.53018 0.606 0.49522 0.99286-0.097731 0.30882-0.33267 0.44241-0.69009 0.47608-0.36832 0.034687-0.8196-0.087304-1.0842-0.26758a0.31105 0.31774 0 0 0-0.043253-0.024821c-0.27725-0.12958-0.56002-0.46615-0.64976-0.77493-0.044869-0.15438-0.045263-0.2932-0.0072892-0.40459 0.03791-0.1112 0.10907-0.20926 0.27653-0.29935 2.736e-4 -1.525e-4 1.866e-4 -3.177e-4 4.852e-4 -4.956e-4 0.12471-0.066152 0.27797-0.10392 0.43835-0.11368zm-0.36059 2.1466c0.00813 0.00554 0.019463 0.00698 0.027701 0.012411 0.00589 0.00284 0.00962 0.00914 0.015552 0.011914z"
       fill="#fff"
       id="base"
       transform="translate(4,4)" />
  </g>
</svg>
