<?xml version="1.0" encoding="UTF-8" standalone="no"?>
<svg
   xmlns:dc="http://purl.org/dc/elements/1.1/"
   xmlns:cc="http://creativecommons.org/ns#"
   xmlns:rdf="http://www.w3.org/1999/02/22-rdf-syntax-ns#"
   xmlns:svg="http://www.w3.org/2000/svg"
   xmlns="http://www.w3.org/2000/svg"
   xmlns:sodipodi="http://sodipodi.sourceforge.net/DTD/sodipodi-0.dtd"
   xmlns:inkscape="http://www.inkscape.org/namespaces/inkscape"
   id="svg2"
   width="24"
   height="24"
   version="1.0"
   sodipodi:docname="redshift.svg"
   inkscape:version="0.92.2 5c3e80d, 2017-08-06">
  <metadata
     id="metadata49">
    <rdf:RDF>
      <cc:Work
         rdf:about="">
        <dc:format>image/svg+xml</dc:format>
        <dc:type
           rdf:resource="http://purl.org/dc/dcmitype/StillImage" />
      </cc:Work>
    </rdf:RDF>
  </metadata>
  <sodipodi:namedview
     pagecolor="#ffffff"
     bordercolor="#666666"
     borderopacity="1"
     objecttolerance="10"
     gridtolerance="10"
     guidetolerance="10"
     inkscape:pageopacity="0"
     inkscape:pageshadow="2"
     inkscape:window-width="640"
     inkscape:window-height="480"
     id="namedview47"
     showgrid="false"
     inkscape:zoom="9.8333333"
     inkscape:cx="12"
     inkscape:cy="12"
     inkscape:window-x="0"
     inkscape:window-y="25"
     inkscape:window-maximized="0"
     inkscape:current-layer="svg2" />
  <defs
     id="defs4">
    <linearGradient
       id="linearGradient3335"
       x1="11.375"
       x2="11.375"
       y1="22"
       y2="-9.8173"
       gradientUnits="userSpaceOnUse">
      <stop
         id="stop3330"
         offset="0" />
      <stop
         id="stop3333"
         stop-opacity="0"
         offset="1" />
    </linearGradient>
    <linearGradient
       id="linearGradient3181"
       x1="-3.0608"
       x2="-3.0608"
       y1="27.258"
       y2="7.2537"
       gradientTransform="translate(12.119 -7.2582)"
       gradientUnits="userSpaceOnUse">
      <stop
         id="stop3189"
         stop-color="#a41b1b"
         offset="0" />
      <stop
         id="stop3191"
         stop-color="#c52020"
         offset="1" />
    </linearGradient>
    <filter
       id="filter3194"
       x="-.18"
       y="-.18"
       width="1.36"
       height="1.36"
       color-interpolation-filters="sRGB">
      <feGaussianBlur
         id="feGaussianBlur3196"
         stdDeviation="1.2" />
    </filter>
    <clipPath
       id="clipPath2849">
      <rect
         id="rect2851"
         x="1"
         y="1"
         width="20"
         height="20"
         rx="2"
         ry="2"
         fill="#fff"
         fill-rule="evenodd" />
    </clipPath>
    <linearGradient
       id="linearGradient3845"
       x1="11"
       x2="21"
       y1="19.5"
       y2="19.5"
       gradientTransform="translate(1,-1)"
       gradientUnits="userSpaceOnUse"
       spreadMethod="reflect">
      <stop
         id="stop3833"
         stop-color="#fff"
         offset="0" />
      <stop
         id="stop3821"
         stop-color="#fff"
         stop-opacity=".49804"
         offset=".75" />
      <stop
         id="stop3835"
         stop-color="#fff"
         stop-opacity="0"
         offset="1" />
    </linearGradient>
    <linearGradient
       id="linearGradient3961"
       x1="10"
       x2="10"
       y1="1"
       y2="16"
       gradientTransform="translate(1,-1)"
       gradientUnits="userSpaceOnUse">
      <stop
         id="stop3825"
         stop-color="#fff"
         offset="0" />
      <stop
         id="stop3829"
         stop-color="#fff"
         stop-opacity="0"
         offset="1" />
    </linearGradient>
  </defs>
  <g
     id="layer1"
     transform="translate(0,2)">
    <g
       id="g3337"
       transform="translate(1,-1)">
      <rect
         id="rect3371"
         x=".5"
         y=".5"
         width="21"
         height="21.5"
         rx="2.5"
         ry="2.5"
         fill="url(#linearGradient3335)"
         opacity=".3" />
      <rect
         id="rect2553"
         x="1"
         y="2"
         width="20"
         height="20"
         rx="2.381"
         ry="2.3256"
         opacity=".5" />
    </g>
    <rect
       id="rect3173"
       x="2"
       width="20"
       height="20"
       rx="2"
       ry="2"
       fill="url(#linearGradient3181)"
       fill-rule="evenodd" />
    <path
       id="rect3050"
       d="m4 0c-1.108 0-2 0.892-2 2v16c0 1.108 0.892 2 2 2h16c1.108 0 2-0.892 2-2v-16c0-1.108-0.892-2-2-2h-16zm0 1.0312h16c0.5497 0 0.96875 0.41905 0.96875 0.96875v16c0 0.5497-0.41905 0.96875-0.96875 0.96875h-16c-0.5497 0-0.96875-0.41905-0.96875-0.96875v-16c0-0.5497 0.41905-0.96875 0.96875-0.96875z"
       fill="url(#linearGradient3961)"
       fill-rule="evenodd"
       opacity=".35" />
    <path
       id="path3235"
       d="m4 20c-1.108 0-2-0.892-2-2v-1c0 1.108 0.892 2 2 2h16c1.108 0 2-0.892 2-2v1c0 1.108-0.892 2-2 2h-16z"
       fill="url(#linearGradient3845)"
       fill-rule="evenodd"
       opacity=".2" />
  </g>
  <g
     id="layer2"
     transform="translate(0,2)">
    <rect
       id="rect2410"
       transform="translate(1,-1)"
       x="3"
       y="3"
       width="16"
       height="16"
       rx="2"
       ry="2"
       clip-path="url(#clipPath2849)"
       fill="#fff"
       filter="url(#filter3194)"
       opacity=".15" />
  </g>
  <defs
     id="defs37">
    <filter
       id="w">
      <feGaussianBlur
         stdDeviation="0.20998568"
         id="feGaussianBlur29" />
    </filter>
    <linearGradient
       id="a"
       gradientUnits="userSpaceOnUse"
       x1="8"
       y1="0.99827332"
       x2="8"
       y2="15.00000032">
      <stop
         stop-color="#fafafa"
         offset="0"
         id="stop32" />
      <stop
         stop-color="#ebebeb"
         offset="1"
         id="stop34" />
    </linearGradient>
  </defs>
  <g
     id="main">
    <path
       style="opacity:0.3;fill:#000000"
       d="M 12 7 C 10.713264 6.9666941 9.7340746 8.289271 10.076172 9.5039062 C 10.306207 8.664229 11.070175 7.9759324 12 8 C 12.915845 7.9651373 13.692907 8.6663133 13.925781 9.5097656 C 14.284545 8.3061089 13.267865 6.9517372 12 7 z M 8.0390625 9.4921875 C 7.9945376 9.8360984 7.9817007 10.184806 8.0429688 10.537109 C 8.0968697 12.011809 9.4946125 12.759378 9.9453125 14.017578 C 9.9930444 14.324222 9.9998225 14.633059 10 14.943359 C 9.986526 14.300839 10.044319 13.653628 9.9453125 13.017578 C 9.4946125 11.759378 8.0968697 11.011809 8.0429688 9.5371094 C 8.0403684 9.5221571 8.0414592 9.5071393 8.0390625 9.4921875 z M 15.964844 9.4941406 C 15.906364 10.929418 14.632151 11.710566 14.089844 12.888672 C 13.94369 13.527128 14.008585 14.1877 14 14.839844 C 14.002892 14.520209 14.018266 14.201354 14.089844 13.888672 C 14.633714 12.707172 15.915197 11.925622 15.966797 10.482422 C 16.016807 10.147954 16.006378 9.8185507 15.964844 9.4941406 z M 10.003906 15 C 10.002768 15.333311 9.9907306 15.667547 10 16 L 14 16 C 14.011786 15.668213 13.998084 15.333322 13.996094 15 L 10.003906 15 z M 10 17 L 10 18 L 11 18 L 13 18 L 14 18 L 14 17 L 10 17 z M 11 19 L 11 20 L 13 20 L 13 19 L 11 19 z "
       id="path39" />
    <path
       d="m8 1c-2.3343-0.07384-4.3577 2.233-3.957 4.5371 0.053901 1.4747 1.4512 2.2214 1.9019 3.4796 0.10191 0.6547 0.036716 1.3223 0.055146 1.9833h4c0.025-0.70375-0.067991-1.4199 0.0901-2.1105 0.54387-1.1815 1.8251-1.9639 1.8767-3.4071 0.34526-2.3091-1.6338-4.5382-3.9668-4.4824zm0 2c1.2964-0.049349 2.3407 1.3679 1.9095 2.5909-0.49487 1.1725-1.8411 1.9769-1.9095 3.4091 0.0074126-1.4993-1.3347-2.1912-1.8954-3.3657-0.4549-1.2482 0.56253-2.6688 1.8954-2.6343zm-2 9v1h4v-1zm1 2v1h2v-1z"
       fill="#fff"
       id="base"
       transform="translate(4,4)" />
  </g>
</svg>
