<?xml version="1.0" encoding="UTF-8" standalone="no"?>
<svg
   xmlns:dc="http://purl.org/dc/elements/1.1/"
   xmlns:cc="http://creativecommons.org/ns#"
   xmlns:rdf="http://www.w3.org/1999/02/22-rdf-syntax-ns#"
   xmlns:svg="http://www.w3.org/2000/svg"
   xmlns="http://www.w3.org/2000/svg"
   xmlns:sodipodi="http://sodipodi.sourceforge.net/DTD/sodipodi-0.dtd"
   xmlns:inkscape="http://www.inkscape.org/namespaces/inkscape"
   id="svg2"
   width="24"
   height="24"
   version="1.0"
   sodipodi:docname="sparkleshare.svg"
   inkscape:version="0.92.2 5c3e80d, 2017-08-06">
  <metadata
     id="metadata49">
    <rdf:RDF>
      <cc:Work
         rdf:about="">
        <dc:format>image/svg+xml</dc:format>
        <dc:type
           rdf:resource="http://purl.org/dc/dcmitype/StillImage" />
      </cc:Work>
    </rdf:RDF>
  </metadata>
  <sodipodi:namedview
     pagecolor="#ffffff"
     bordercolor="#666666"
     borderopacity="1"
     objecttolerance="10"
     gridtolerance="10"
     guidetolerance="10"
     inkscape:pageopacity="0"
     inkscape:pageshadow="2"
     inkscape:window-width="640"
     inkscape:window-height="480"
     id="namedview47"
     showgrid="false"
     inkscape:zoom="9.8333333"
     inkscape:cx="12"
     inkscape:cy="12"
     inkscape:window-x="0"
     inkscape:window-y="25"
     inkscape:window-maximized="0"
     inkscape:current-layer="svg2" />
  <defs
     id="defs4">
    <linearGradient
       id="linearGradient3335"
       x1="11.375"
       x2="11.375"
       y1="22"
       y2="-9.8173"
       gradientUnits="userSpaceOnUse">
      <stop
         id="stop3330"
         offset="0" />
      <stop
         id="stop3333"
         stop-opacity="0"
         offset="1" />
    </linearGradient>
    <linearGradient
       id="linearGradient3181"
       x1="-3.0608"
       x2="-3.0608"
       y1="27.258"
       y2="7.2537"
       gradientTransform="translate(12.119 -7.2582)"
       gradientUnits="userSpaceOnUse">
      <stop
         id="stop3189"
         stop-color="#fe5f00"
         offset="0" />
      <stop
         id="stop3191"
         stop-color="#ffa100"
         offset="1" />
    </linearGradient>
    <filter
       id="filter3194"
       x="-.18"
       y="-.18"
       width="1.36"
       height="1.36"
       color-interpolation-filters="sRGB">
      <feGaussianBlur
         id="feGaussianBlur3196"
         stdDeviation="1.2" />
    </filter>
    <clipPath
       id="clipPath2849">
      <rect
         id="rect2851"
         x="1"
         y="1"
         width="20"
         height="20"
         rx="2"
         ry="2"
         fill="#fff"
         fill-rule="evenodd" />
    </clipPath>
    <linearGradient
       id="linearGradient3845"
       x1="11"
       x2="21"
       y1="19.5"
       y2="19.5"
       gradientTransform="translate(1,-1)"
       gradientUnits="userSpaceOnUse"
       spreadMethod="reflect">
      <stop
         id="stop3833"
         stop-color="#fff"
         offset="0" />
      <stop
         id="stop3821"
         stop-color="#fff"
         stop-opacity=".49804"
         offset=".75" />
      <stop
         id="stop3835"
         stop-color="#fff"
         stop-opacity="0"
         offset="1" />
    </linearGradient>
    <linearGradient
       id="linearGradient3961"
       x1="10"
       x2="10"
       y1="1"
       y2="16"
       gradientTransform="translate(1,-1)"
       gradientUnits="userSpaceOnUse">
      <stop
         id="stop3825"
         stop-color="#fff"
         offset="0" />
      <stop
         id="stop3829"
         stop-color="#fff"
         stop-opacity="0"
         offset="1" />
    </linearGradient>
  </defs>
  <g
     id="layer1"
     transform="translate(0,2)">
    <g
       id="g3337"
       transform="translate(1,-1)">
      <rect
         id="rect3371"
         x=".5"
         y=".5"
         width="21"
         height="21.5"
         rx="2.5"
         ry="2.5"
         fill="url(#linearGradient3335)"
         opacity=".3" />
      <rect
         id="rect2553"
         x="1"
         y="2"
         width="20"
         height="20"
         rx="2.381"
         ry="2.3256"
         opacity=".5" />
    </g>
    <rect
       id="rect3173"
       x="2"
       width="20"
       height="20"
       rx="2"
       ry="2"
       fill="url(#linearGradient3181)"
       fill-rule="evenodd" />
    <path
       id="rect3050"
       d="m4 0c-1.108 0-2 0.892-2 2v16c0 1.108 0.892 2 2 2h16c1.108 0 2-0.892 2-2v-16c0-1.108-0.892-2-2-2h-16zm0 1.0312h16c0.5497 0 0.96875 0.41905 0.96875 0.96875v16c0 0.5497-0.41905 0.96875-0.96875 0.96875h-16c-0.5497 0-0.96875-0.41905-0.96875-0.96875v-16c0-0.5497 0.41905-0.96875 0.96875-0.96875z"
       fill="url(#linearGradient3961)"
       fill-rule="evenodd"
       opacity=".35" />
    <path
       id="path3235"
       d="m4 20c-1.108 0-2-0.892-2-2v-1c0 1.108 0.892 2 2 2h16c1.108 0 2-0.892 2-2v1c0 1.108-0.892 2-2 2h-16z"
       fill="url(#linearGradient3845)"
       fill-rule="evenodd"
       opacity=".2" />
  </g>
  <g
     id="layer2"
     transform="translate(0,2)">
    <rect
       id="rect2410"
       transform="translate(1,-1)"
       x="3"
       y="3"
       width="16"
       height="16"
       rx="2"
       ry="2"
       clip-path="url(#clipPath2849)"
       fill="#fff"
       filter="url(#filter3194)"
       opacity=".15" />
  </g>
  <defs
     id="defs37">
    <filter
       id="w">
      <feGaussianBlur
         stdDeviation="0.20998568"
         id="feGaussianBlur29" />
    </filter>
    <linearGradient
       id="a"
       gradientUnits="userSpaceOnUse"
       x1="8"
       y1="0.9993503"
       x2="8"
       y2="15.0000073">
      <stop
         stop-color="#fafafa"
         offset="0"
         id="stop32" />
      <stop
         stop-color="#ebebeb"
         offset="1"
         id="stop34" />
    </linearGradient>
  </defs>
  <g
     id="main">
    <path
       style="color:#000000;font-variant-ligatures:normal;font-variant-position:normal;font-variant-caps:normal;font-variant-numeric:normal;font-variant-alternates:normal;font-feature-settings:normal;text-indent:0;text-decoration:none;text-decoration-line:none;text-decoration-style:solid;text-decoration-color:#000000;text-transform:none;text-orientation:mixed;dominant-baseline:auto;white-space:normal;shape-padding:0;opacity:0.3;isolation:auto;mix-blend-mode:normal;solid-color:#000000;fill:#000000;color-rendering:auto;image-rendering:auto;shape-rendering:auto"
       d="M 12.017578 6.7089844 C 11.879798 7.0127544 11.729232 7.3897962 11.576172 7.8164062 C 11.400832 8.3050862 11.225077 8.8137606 11.054688 9.2441406 C 10.969497 9.4593406 10.886462 9.6551881 10.794922 9.8300781 C 10.703382 10.004968 10.63571 10.161644 10.40625 10.333984 C 10.17679 10.506314 10.012169 10.523574 9.8242188 10.558594 C 9.6362587 10.593614 9.4315244 10.614919 9.2089844 10.630859 C 8.7638844 10.662729 8.2457237 10.673166 7.7460938 10.691406 C 7.3096238 10.707336 6.9193394 10.737444 6.5996094 10.777344 C 6.8338394 11.008234 7.1306062 11.274264 7.4726562 11.558594 C 7.5301934 11.606423 7.582551 11.651245 7.640625 11.699219 C 7.6799743 11.697522 7.7059441 11.692872 7.7460938 11.691406 C 8.2457237 11.673166 8.7638844 11.662729 9.2089844 11.630859 C 9.4315244 11.614919 9.6362587 11.593614 9.8242188 11.558594 C 10.012169 11.523574 10.17679 11.506314 10.40625 11.333984 C 10.63571 11.161644 10.703382 11.004968 10.794922 10.830078 C 10.886462 10.655188 10.969497 10.459341 11.054688 10.244141 C 11.225077 9.8137606 11.400832 9.3050862 11.576172 8.8164062 C 11.729232 8.3897962 11.879798 8.0127544 12.017578 7.7089844 C 12.152578 8.0139444 12.300059 8.3926225 12.449219 8.8203125 C 12.620229 9.3106925 12.790451 9.8218062 12.957031 10.253906 C 13.040321 10.469906 13.120958 10.666027 13.210938 10.841797 C 13.300928 11.017567 13.367783 11.177022 13.595703 11.351562 C 13.823623 11.526103 13.990104 11.545201 14.177734 11.582031 C 14.365374 11.618861 14.568626 11.640123 14.791016 11.658203 C 15.235786 11.694363 15.752523 11.709362 16.251953 11.732422 C 16.289841 11.734171 16.314371 11.738301 16.351562 11.740234 C 16.409724 11.693102 16.461951 11.648527 16.519531 11.601562 C 16.864441 11.320242 17.164081 11.056875 17.400391 10.828125 C 17.080871 10.785025 16.688953 10.752592 16.251953 10.732422 C 15.752523 10.709362 15.235786 10.694363 14.791016 10.658203 C 14.568626 10.640123 14.365374 10.618861 14.177734 10.582031 C 13.990104 10.545201 13.823623 10.526103 13.595703 10.351562 C 13.367783 10.177023 13.300928 10.017567 13.210938 9.8417969 C 13.120958 9.6660269 13.040321 9.4699062 12.957031 9.2539062 C 12.790451 8.8218062 12.620229 8.3106925 12.449219 7.8203125 C 12.300059 7.3926225 12.152578 7.0139444 12.017578 6.7089844 z M 5.1523438 11.017578 C 5.1111897 11.081368 5.0746773 11.152294 5.046875 11.240234 C 4.926975 11.619454 5.0692546 11.896528 5.1816406 12.085938 C 5.2940306 12.275348 5.4287944 12.43144 5.5839844 12.59375 C 5.8943544 12.91837 6.2886931 13.252838 6.6894531 13.585938 C 7.0901731 13.919037 7.4967381 14.246775 7.7988281 14.515625 C 7.8907203 14.597411 7.9459112 14.655942 8.0136719 14.722656 C 8.0347512 14.640941 8.0679879 14.53176 8.0859375 14.457031 C 8.1342065 14.256071 8.1700159 14.083937 8.1855469 13.966797 C 8.1894892 13.937055 8.1876405 13.924405 8.1875 13.902344 C 8.175751 13.885142 8.1708555 13.875937 8.1523438 13.855469 C 8.0745737 13.769479 7.9498581 13.650045 7.7988281 13.515625 C 7.4967381 13.246775 7.0901731 12.919037 6.6894531 12.585938 C 6.2886931 12.252837 5.8943544 11.91837 5.5839844 11.59375 C 5.4287944 11.43144 5.2940306 11.275348 5.1816406 11.085938 C 5.1707557 11.067593 5.1635241 11.037553 5.1523438 11.017578 z M 18.847656 11.076172 C 18.835225 11.098057 18.826537 11.13044 18.814453 11.150391 C 18.700393 11.338711 18.564823 11.493487 18.408203 11.654297 C 18.094993 11.975917 17.696619 12.307489 17.292969 12.636719 C 16.889299 12.965939 16.480201 13.290711 16.175781 13.556641 C 16.023571 13.689611 15.898843 13.807338 15.820312 13.892578 C 15.801299 13.913219 15.797285 13.924079 15.785156 13.941406 C 15.785058 13.962301 15.781761 13.972517 15.785156 14 C 15.799646 14.11728 15.832416 14.292721 15.878906 14.494141 C 15.896777 14.571578 15.92998 14.684602 15.951172 14.769531 C 16.020735 14.701833 16.079472 14.640776 16.175781 14.556641 C 16.480201 14.290711 16.889299 13.965939 17.292969 13.636719 C 17.696619 13.307489 18.094993 12.975917 18.408203 12.654297 C 18.564823 12.493487 18.700393 12.338711 18.814453 12.150391 C 18.928513 11.962071 19.073561 11.688954 18.957031 11.308594 C 18.929041 11.217238 18.89021 11.141895 18.847656 11.076172 z M 9.375 14.431641 C 9.3525601 14.54576 9.3362778 14.653958 9.3066406 14.777344 C 9.1981406 15.229144 9.0479362 15.746397 8.9101562 16.248047 C 8.7896363 16.686887 8.6952195 17.084132 8.6328125 17.414062 C 8.713788 17.367902 8.825064 17.288722 8.9140625 17.234375 C 9.0507815 16.737139 9.1991533 16.224927 9.3066406 15.777344 C 9.3608896 15.551494 9.4054646 15.341951 9.4316406 15.144531 C 9.4578146 14.947111 9.492361 14.777154 9.40625 14.496094 C 9.3976186 14.467922 9.3843377 14.456697 9.375 14.431641 z M 14.59375 14.46875 C 14.586008 14.489676 14.575652 14.49842 14.568359 14.521484 C 14.479769 14.801694 14.512679 14.972262 14.537109 15.169922 C 14.561539 15.367582 14.604 15.576364 14.65625 15.802734 C 14.760198 16.253072 14.906286 16.769009 15.039062 17.269531 C 15.123425 17.322031 15.229431 17.398354 15.306641 17.443359 C 15.247101 17.113039 15.157446 16.716534 15.041016 16.277344 C 14.907676 15.774344 14.76075 15.255464 14.65625 14.802734 C 14.628679 14.683286 14.614658 14.579146 14.59375 14.46875 z M 11.972656 16.804688 C 11.953205 16.811162 11.942642 16.812017 11.917969 16.824219 C 11.815589 16.874849 11.667187 16.959959 11.498047 17.068359 C 11.159797 17.285149 10.735914 17.587923 10.308594 17.882812 C 9.8813138 18.177692 9.4522169 18.466008 9.0605469 18.673828 C 8.8647169 18.777728 8.6819094 18.862966 8.4746094 18.916016 C 8.2673094 18.969066 7.9744656 19.025272 7.6660156 18.789062 C 7.4798607 18.646501 7.4043486 18.482514 7.3613281 18.322266 C 7.3590379 18.335985 7.3537388 18.35162 7.3515625 18.365234 C 7.3154065 18.591424 7.2928776 18.801098 7.3066406 19.023438 C 7.3204026 19.245777 7.3575626 19.552842 7.6660156 19.789062 C 7.9744656 20.025272 8.2673094 19.969066 8.4746094 19.916016 C 8.6819094 19.862966 8.8647169 19.777728 9.0605469 19.673828 C 9.4522169 19.466008 9.8813138 19.177692 10.308594 18.882812 C 10.735914 18.587923 11.159797 18.285149 11.498047 18.068359 C 11.667187 17.959959 11.815589 17.874849 11.917969 17.824219 C 11.942642 17.812017 11.953205 17.811162 11.972656 17.804688 C 11.992085 17.811304 12.002779 17.811771 12.027344 17.824219 C 12.129274 17.875839 12.277143 17.962246 12.445312 18.072266 C 12.781673 18.292306 13.204196 18.599448 13.628906 18.898438 C 14.053596 19.197427 14.477337 19.489592 14.867188 19.701172 C 15.062098 19.806962 15.246305 19.896132 15.453125 19.951172 C 15.659945 20.006212 15.953142 20.063308 16.263672 19.830078 C 16.574202 19.596848 16.613176 19.290559 16.628906 19.068359 C 16.644636 18.846169 16.622001 18.636686 16.587891 18.410156 C 16.584927 18.390499 16.579367 18.367537 16.576172 18.347656 C 16.53399 18.513459 16.459223 18.683206 16.263672 18.830078 C 15.953142 19.063308 15.659945 19.006212 15.453125 18.951172 C 15.246305 18.896132 15.062098 18.806962 14.867188 18.701172 C 14.477337 18.489592 14.053596 18.197427 13.628906 17.898438 C 13.204196 17.599448 12.781673 17.292306 12.445312 17.072266 C 12.277143 16.962246 12.129274 16.875839 12.027344 16.824219 C 12.002779 16.811771 11.992085 16.811304 11.972656 16.804688 z "
       id="path39" />
    <path
       d="m8.0249 0.99942c-0.38255-0.0018436-0.58872 0.22541-0.72656 0.39552-0.13784 0.17011-0.23796 0.35236-0.33789 0.55658-0.19985 0.40844-0.38283 0.90396-0.56249 1.4047-0.17966 0.50075-0.35425 1.0034-0.50585 1.3864-0.075804 0.19147-0.14685 0.35494-0.20117 0.45872-0.054316 0.10378-0.12287 0.1449-0.019531 0.067279s0.043168-0.022819-0.068359-0.0020387c-0.11153 0.02078-0.28245 0.040867-0.48046 0.055047-0.39602 0.028359-0.90797 0.040439-1.4199 0.059124-0.51194 0.018686-1.0206 0.042089-1.4551 0.11009-0.21725 0.034002-0.41496 0.074617-0.61328 0.15699-0.19832 0.082368-0.46799 0.21406-0.58788 0.59328-0.1199 0.37922 0.022374 0.65464 0.13476 0.84405 0.11239 0.18941 0.24715 0.34534 0.40234 0.50765 0.31037 0.32462 0.70474 0.65978 1.1055 0.99288 0.40072 0.3331 0.80731 0.66083 1.1094 0.92968 0.15103 0.13442 0.27574 0.25448 0.35351 0.34047 0.077769 0.085994 0.095422 0.16735 0.05664 0.040775-0.038782-0.12658-0.00791-0.047824-0.023437 0.069318-0.015531 0.11714-0.051339 0.29038-0.099608 0.49134-0.09654 0.40192-0.24359 0.91516-0.38476 1.4292-0.14117 0.51401-0.27729 1.0257-0.34961 1.4781-0.036156 0.22619-0.058684 0.43618-0.044921 0.65852 0.013762 0.22234 0.050917 0.53036 0.35937 0.76658 0.30845 0.23621 0.60129 0.17945 0.80859 0.1264 0.2073-0.05305 0.3901-0.13871 0.58593-0.24261 0.39167-0.20782 0.82072-0.49616 1.248-0.79104 0.42732-0.29489 0.85115-0.59668 1.1894-0.81347 0.16914-0.1084 0.31754-0.19402 0.41992-0.24465 0.10238-0.05063 0.182-0.04424 0.054687-0.04485-0.12731-6.14e-4 -0.047241-0.0068 0.054687 0.04485 0.10193 0.05162 0.24979 0.13871 0.41796 0.24873 0.33636 0.22004 0.75889 0.52671 1.1836 0.8257 0.42469 0.29899 0.84845 0.59169 1.2383 0.80327 0.19491 0.10579 0.37911 0.19369 0.58593 0.24873 0.20682 0.05504 0.50001 0.11294 0.81054-0.12029s0.3495-0.5403 0.36523-0.7625c0.01573-0.22219-0.0069-0.43199-0.04101-0.65852-0.06831-0.45306-0.19931-0.96683-0.33593-1.4822-0.13662-0.51535-0.28006-1.0304-0.37304-1.4333-0.04649-0.20142-0.07926-0.3761-0.09375-0.49338-0.01449-0.11729 0.01646-0.19348-0.02344-0.067279s-0.01993 0.044465 0.05859-0.040775c0.07853-0.08524 0.20326-0.20343 0.35547-0.3364 0.30442-0.26593 0.71353-0.59026 1.1172-0.91948 0.40365-0.32923 0.80199-0.66107 1.1152-0.98269 0.15662-0.16081 0.29218-0.31526 0.40624-0.50358 0.11406-0.18832 0.25911-0.46165 0.14258-0.84201-0.11654-0.38036-0.3864-0.51512-0.58398-0.5994-0.19758-0.084276-0.39438-0.12701-0.61132-0.1631-0.43389-0.072189-0.94136-0.10075-1.4531-0.12436s-1.0242-0.039182-1.4199-0.071357c-0.19788-0.016087-0.36717-0.03727-0.47851-0.059124-0.11134-0.021854-0.17296-0.078609-0.07031 0 0.10265 0.078609 0.03387 0.03702-0.01953-0.067279-0.0534-0.1043-0.12316-0.26856-0.19727-0.46076-0.14821-0.38439-0.31696-0.89001-0.49218-1.3925-0.17522-0.50246-0.35455-0.99844-0.55078-1.4088-0.098114-0.20518-0.1957-0.38923-0.33203-0.56066-0.13633-0.17143-0.3401-0.39979-0.72265-0.40164zm-0.00781 1.7105c0.135 0.30496 0.28248 0.68341 0.43164 1.1111 0.17101 0.49038 0.34123 1.0012 0.50781 1.4333 0.083287 0.216 0.16392 0.41139 0.2539 0.58716 0.089988 0.17577 0.15684 0.33515 0.38476 0.50969s0.39439 0.19355 0.58202 0.23038c0.18764 0.03683 0.39089 0.059393 0.61328 0.077473 0.44477 0.03616 0.96147 0.050344 1.4609 0.073396 0.437 0.020169 0.82888 0.05272 1.1484 0.095822-0.23631 0.22875-0.53594 0.49137-0.88085 0.77269-0.39394 0.32131-0.80825 0.64916-1.1504 0.94803-0.17106 0.14943-0.32469 0.2906-0.45703 0.43426-0.13234 0.14365-0.25515 0.25802-0.34375 0.53823-0.08859 0.28021-0.05568 0.45067-0.03125 0.64833 0.02443 0.19766 0.06689 0.40565 0.11914 0.63202 0.1045 0.45273 0.25142 0.9731 0.38476 1.4761 0.11643 0.43919 0.20608 0.83588 0.26562 1.1662-0.28118-0.1639-0.61242-0.37907-0.9746-0.63406-0.41448-0.2918-0.84072-0.60083-1.2187-0.84813-0.18901-0.12365-0.36533-0.2331-0.5371-0.32009-0.17178-0.08699-0.31497-0.17397-0.59765-0.17533-0.28268-0.0014-0.42706 0.08592-0.5996 0.17126-0.17254 0.08533-0.34896 0.19011-0.53906 0.31193-0.38019 0.24364-0.80755 0.55014-1.2246 0.83793-0.36481 0.25175-0.69965 0.46471-0.98241 0.6259 0.062407-0.32993 0.15682-0.72736 0.27734-1.1662 0.13778-0.50165 0.28798-1.0182 0.39648-1.47 0.054249-0.22585 0.098824-0.4346 0.125-0.63202 0.026174-0.19742 0.060721-0.36727-0.02539-0.64833-0.086111-0.28105-0.20878-0.39739-0.33984-0.54231-0.13106-0.14492-0.28339-0.28726-0.45312-0.43833-0.33947-0.30215-0.74953-0.63313-1.1406-0.95822-0.34205-0.28433-0.63881-0.54996-0.87304-0.78085 0.31973-0.039897 0.71003-0.069698 1.1465-0.085628 0.49963-0.018236 1.0178-0.029292 1.4629-0.061163 0.22254-0.015936 0.42727-0.036337 0.61523-0.071357 0.18795-0.03502 0.35257-0.051925 0.58203-0.22426 0.22946-0.17234 0.29713-0.33072 0.38867-0.50561s0.17457-0.36993 0.25976-0.58513c0.17039-0.43038 0.34614-0.93842 0.52148-1.4271 0.15306-0.42661 0.30362-0.80333 0.4414-1.1071z"
       color="#000000"
       color-rendering="auto"
       dominant-baseline="auto"
       fill="#fff"
       image-rendering="auto"
       shape-rendering="auto"
       solid-color="#000000"
       style="font-feature-settings:normal;font-variant-alternates:normal;font-variant-caps:normal;font-variant-ligatures:normal;font-variant-numeric:normal;font-variant-position:normal;isolation:auto;mix-blend-mode:normal;shape-padding:0;text-decoration-color:#000000;text-decoration-line:none;text-decoration-style:solid;text-indent:0;text-orientation:mixed;text-transform:none;white-space:normal"
       id="base"
       transform="translate(4,4)" />
  </g>
</svg>
