<?xml version="1.0" encoding="UTF-8" standalone="no"?>
<svg
   xmlns:dc="http://purl.org/dc/elements/1.1/"
   xmlns:cc="http://creativecommons.org/ns#"
   xmlns:rdf="http://www.w3.org/1999/02/22-rdf-syntax-ns#"
   xmlns:svg="http://www.w3.org/2000/svg"
   xmlns="http://www.w3.org/2000/svg"
   xmlns:sodipodi="http://sodipodi.sourceforge.net/DTD/sodipodi-0.dtd"
   xmlns:inkscape="http://www.inkscape.org/namespaces/inkscape"
   id="svg2"
   width="24"
   height="24"
   version="1.0"
   sodipodi:docname="typecather.svg"
   inkscape:version="0.92.2 5c3e80d, 2017-08-06">
  <metadata
     id="metadata49">
    <rdf:RDF>
      <cc:Work
         rdf:about="">
        <dc:format>image/svg+xml</dc:format>
        <dc:type
           rdf:resource="http://purl.org/dc/dcmitype/StillImage" />
      </cc:Work>
    </rdf:RDF>
  </metadata>
  <sodipodi:namedview
     pagecolor="#ffffff"
     bordercolor="#666666"
     borderopacity="1"
     objecttolerance="10"
     gridtolerance="10"
     guidetolerance="10"
     inkscape:pageopacity="0"
     inkscape:pageshadow="2"
     inkscape:window-width="640"
     inkscape:window-height="480"
     id="namedview47"
     showgrid="false"
     inkscape:zoom="9.8333333"
     inkscape:cx="12"
     inkscape:cy="12"
     inkscape:window-x="0"
     inkscape:window-y="25"
     inkscape:window-maximized="0"
     inkscape:current-layer="svg2" />
  <defs
     id="defs4">
    <linearGradient
       id="linearGradient3335"
       x1="11.375"
       x2="11.375"
       y1="22"
       y2="-9.8173"
       gradientUnits="userSpaceOnUse">
      <stop
         id="stop3330"
         offset="0" />
      <stop
         id="stop3333"
         stop-opacity="0"
         offset="1" />
    </linearGradient>
    <linearGradient
       id="linearGradient3181"
       x1="-3.0608"
       x2="-3.0608"
       y1="27.258"
       y2="7.2537"
       gradientTransform="translate(12.119 -7.2582)"
       gradientUnits="userSpaceOnUse">
      <stop
         id="stop3189"
         stop-color="#3c3c3c"
         offset="0" />
      <stop
         id="stop3191"
         stop-color="#505050"
         offset="1" />
    </linearGradient>
    <filter
       id="filter3194"
       x="-.18"
       y="-.18"
       width="1.36"
       height="1.36"
       color-interpolation-filters="sRGB">
      <feGaussianBlur
         id="feGaussianBlur3196"
         stdDeviation="1.2" />
    </filter>
    <clipPath
       id="clipPath2849">
      <rect
         id="rect2851"
         x="1"
         y="1"
         width="20"
         height="20"
         rx="2"
         ry="2"
         fill="#fff"
         fill-rule="evenodd" />
    </clipPath>
    <linearGradient
       id="linearGradient3845"
       x1="11"
       x2="21"
       y1="19.5"
       y2="19.5"
       gradientTransform="translate(1,-1)"
       gradientUnits="userSpaceOnUse"
       spreadMethod="reflect">
      <stop
         id="stop3833"
         stop-color="#fff"
         offset="0" />
      <stop
         id="stop3821"
         stop-color="#fff"
         stop-opacity=".49804"
         offset=".75" />
      <stop
         id="stop3835"
         stop-color="#fff"
         stop-opacity="0"
         offset="1" />
    </linearGradient>
    <linearGradient
       id="linearGradient3961"
       x1="10"
       x2="10"
       y1="1"
       y2="16"
       gradientTransform="translate(1,-1)"
       gradientUnits="userSpaceOnUse">
      <stop
         id="stop3825"
         stop-color="#fff"
         offset="0" />
      <stop
         id="stop3829"
         stop-color="#fff"
         stop-opacity="0"
         offset="1" />
    </linearGradient>
  </defs>
  <g
     id="layer1"
     transform="translate(0,2)">
    <g
       id="g3337"
       transform="translate(1,-1)">
      <rect
         id="rect3371"
         x=".5"
         y=".5"
         width="21"
         height="21.5"
         rx="2.5"
         ry="2.5"
         fill="url(#linearGradient3335)"
         opacity=".3" />
      <rect
         id="rect2553"
         x="1"
         y="2"
         width="20"
         height="20"
         rx="2.381"
         ry="2.3256"
         opacity=".5" />
    </g>
    <rect
       id="rect3173"
       x="2"
       width="20"
       height="20"
       rx="2"
       ry="2"
       fill="url(#linearGradient3181)"
       fill-rule="evenodd" />
    <path
       id="rect3050"
       d="m4 0c-1.108 0-2 0.892-2 2v16c0 1.108 0.892 2 2 2h16c1.108 0 2-0.892 2-2v-16c0-1.108-0.892-2-2-2h-16zm0 1.0312h16c0.5497 0 0.96875 0.41905 0.96875 0.96875v16c0 0.5497-0.41905 0.96875-0.96875 0.96875h-16c-0.5497 0-0.96875-0.41905-0.96875-0.96875v-16c0-0.5497 0.41905-0.96875 0.96875-0.96875z"
       fill="url(#linearGradient3961)"
       fill-rule="evenodd"
       opacity=".35" />
    <path
       id="path3235"
       d="m4 20c-1.108 0-2-0.892-2-2v-1c0 1.108 0.892 2 2 2h16c1.108 0 2-0.892 2-2v1c0 1.108-0.892 2-2 2h-16z"
       fill="url(#linearGradient3845)"
       fill-rule="evenodd"
       opacity=".2" />
  </g>
  <g
     id="layer2"
     transform="translate(0,2)">
    <rect
       id="rect2410"
       transform="translate(1,-1)"
       x="3"
       y="3"
       width="16"
       height="16"
       rx="2"
       ry="2"
       clip-path="url(#clipPath2849)"
       fill="#fff"
       filter="url(#filter3194)"
       opacity=".15" />
  </g>
  <defs
     id="defs37">
    <filter
       id="w">
      <feGaussianBlur
         stdDeviation="0.20998568"
         id="feGaussianBlur29" />
    </filter>
    <linearGradient
       id="a"
       gradientUnits="userSpaceOnUse"
       x1="8"
       y1="2"
       x2="8"
       y2="13.99997">
      <stop
         stop-color="#fafafa"
         offset="0"
         id="stop32" />
      <stop
         stop-color="#ebebeb"
         offset="1"
         id="stop34" />
    </linearGradient>
  </defs>
  <g
     id="main">
    <path
       style="opacity:0.3;fill:#000000"
       d="M 12.191406 9 C 11.857046 9.4853 11.534361 9.9799475 11.212891 10.492188 C 10.891391 10.997687 10.553661 11.535412 10.212891 12.101562 C 9.8785606 12.667763 9.5344688 13.26596 9.1679688 13.90625 C 8.8078588 14.54655 8.41793 15.24513 8 16 L 8.5585938 16 C 8.7626696 15.634095 8.979907 15.240636 9.1679688 14.90625 C 9.5344688 14.26596 9.8785606 13.667763 10.212891 13.101562 C 10.553661 12.535412 10.891391 11.997687 11.212891 11.492188 C 11.534361 10.979947 11.857046 10.4853 12.191406 10 L 13.529297 10 C 13.632127 10.48526 13.732236 11.027994 13.822266 11.621094 C 13.918626 12.207484 14.006824 12.807734 14.083984 13.427734 C 14.167514 14.041054 14.236461 14.653437 14.300781 15.273438 C 14.330538 15.531546 14.35598 15.755475 14.384766 16 L 14.5 16 C 14.44213 15.4608 14.371491 14.886778 14.300781 14.273438 C 14.236461 13.653437 14.167514 13.041054 14.083984 12.427734 C 14.006824 11.807734 13.918626 11.207484 13.822266 10.621094 C 13.732236 10.027994 13.632127 9.48526 13.529297 9 L 12.191406 9 z M 16.574219 10.259766 C 16.567108 10.314333 16.569815 10.371923 16.560547 10.425781 C 16.571267 10.429681 16.581122 10.435447 16.591797 10.439453 C 16.587352 10.379136 16.581272 10.319251 16.574219 10.259766 z M 6.5488281 10.660156 C 6.5311962 10.747451 6.5268997 10.839324 6.5175781 10.929688 C 6.5384689 10.913623 6.5569095 10.894488 6.578125 10.878906 C 6.5613842 10.809148 6.5618005 10.732215 6.5488281 10.660156 z M 11.537109 13.246094 C 11.351126 13.575789 11.16549 13.905061 10.986328 14.246094 L 12.792969 14.246094 C 12.768534 13.933336 12.738621 13.590129 12.708984 13.246094 L 11.537109 13.246094 z M 5.0410156 14.548828 C 5.0166155 14.732502 5 14.918254 5 15.109375 C 5 17.264975 6.5926656 19 8.5722656 19 L 15.427734 19 C 17.407234 19 19 17.264975 19 15.109375 C 19 14.920859 18.982678 14.737704 18.958984 14.556641 C 18.753987 16.496931 17.266286 18 15.427734 18 L 8.5722656 18 C 6.7311801 18 5.2428151 16.492873 5.0410156 14.548828 z "
       id="path39" />
    <path
       d="m9.1914 2c-1.3256 0-2.472 0.82749-3.041 2.0273-0.36884-0.25522-0.80798-0.40039-1.2773-0.40039-1.3156 0-2.3828 1.1592-2.3828 2.5918 0 0.22778 0.037375 0.44966 0.087891 0.66016-0.95013 0.69784-1.5781 1.8832-1.5781 3.2305 0 2.1556 1.5927 3.8906 3.5723 3.8906h6.8555c1.9795 0 3.5723-1.735 3.5723-3.8906 0-1.7213-1.022-3.1679-2.4395-3.6836 0.0385-0.22372 0.058594-0.45357 0.058594-0.68945 0-2.0594-1.5365-3.7363-3.4277-3.7363zm-1 3h1.3379c0.10283 0.48526 0.20294 1.028 0.29297 1.6211 0.096357 0.58639 0.18456 1.1866 0.26172 1.8066 0.083535 0.61332 0.15248 1.2257 0.2168 1.8457 0.070705 0.61334 0.14135 1.1874 0.19922 1.7266h-1.5176c-0.012825-0.26285-0.02758-0.51041-0.046875-0.75977-0.012825-0.2561-0.02758-0.51038-0.046875-0.75976h-2.5059c-0.12859 0.24938-0.26285 0.50366-0.4043 0.75976-0.14146 0.24938-0.27765 0.49692-0.40625 0.75977h-1.5723c0.41793-0.75487 0.80789-1.4535 1.168-2.0938 0.3665-0.64029 0.71057-1.2385 1.0449-1.8047 0.34077-0.56615 0.6785-1.1039 1-1.6094 0.32147-0.51224 0.64416-1.0069 0.97852-1.4922zm0.34961 1.5312c-0.27006 0.45158-0.53913 0.90673-0.80273 1.3516-0.2572 0.44483-0.50762 0.89822-0.75195 1.3633h1.8066c-0.032119-0.41113-0.07274-0.84939-0.11133-1.3145-0.032119-0.46503-0.076308-0.93533-0.14062-1.4004z"
       fill="#fff"
       id="base"
       transform="translate(4,4)" />
  </g>
</svg>
