<?xml version="1.0" encoding="UTF-8" standalone="no"?>
<svg
   xmlns:dc="http://purl.org/dc/elements/1.1/"
   xmlns:cc="http://creativecommons.org/ns#"
   xmlns:rdf="http://www.w3.org/1999/02/22-rdf-syntax-ns#"
   xmlns:svg="http://www.w3.org/2000/svg"
   xmlns="http://www.w3.org/2000/svg"
   xmlns:sodipodi="http://sodipodi.sourceforge.net/DTD/sodipodi-0.dtd"
   xmlns:inkscape="http://www.inkscape.org/namespaces/inkscape"
   id="svg2"
   width="24"
   height="24"
   version="1.0"
   sodipodi:docname="y-ppa-manager.svg"
   inkscape:version="0.92.2 5c3e80d, 2017-08-06">
  <metadata
     id="metadata49">
    <rdf:RDF>
      <cc:Work
         rdf:about="">
        <dc:format>image/svg+xml</dc:format>
        <dc:type
           rdf:resource="http://purl.org/dc/dcmitype/StillImage" />
      </cc:Work>
    </rdf:RDF>
  </metadata>
  <sodipodi:namedview
     pagecolor="#ffffff"
     bordercolor="#666666"
     borderopacity="1"
     objecttolerance="10"
     gridtolerance="10"
     guidetolerance="10"
     inkscape:pageopacity="0"
     inkscape:pageshadow="2"
     inkscape:window-width="640"
     inkscape:window-height="480"
     id="namedview47"
     showgrid="false"
     inkscape:zoom="9.8333333"
     inkscape:cx="12"
     inkscape:cy="12"
     inkscape:window-x="0"
     inkscape:window-y="25"
     inkscape:window-maximized="0"
     inkscape:current-layer="svg2" />
  <defs
     id="defs4">
    <linearGradient
       id="linearGradient3335"
       x1="11.375"
       x2="11.375"
       y1="22"
       y2="-9.8173"
       gradientUnits="userSpaceOnUse">
      <stop
         id="stop3330"
         offset="0" />
      <stop
         id="stop3333"
         stop-opacity="0"
         offset="1" />
    </linearGradient>
    <linearGradient
       id="linearGradient3181"
       x1="-3.0608"
       x2="-3.0608"
       y1="27.258"
       y2="7.2537"
       gradientTransform="translate(12.119 -7.2582)"
       gradientUnits="userSpaceOnUse">
      <stop
         id="stop3189"
         stop-color="#204a87"
         offset="0" />
      <stop
         id="stop3191"
         stop-color="#729fcf"
         offset="1" />
    </linearGradient>
    <filter
       id="filter3194"
       x="-.18"
       y="-.18"
       width="1.36"
       height="1.36"
       color-interpolation-filters="sRGB">
      <feGaussianBlur
         id="feGaussianBlur3196"
         stdDeviation="1.2" />
    </filter>
    <clipPath
       id="clipPath2849">
      <rect
         id="rect2851"
         x="1"
         y="1"
         width="20"
         height="20"
         rx="2"
         ry="2"
         fill="#fff"
         fill-rule="evenodd" />
    </clipPath>
    <linearGradient
       id="linearGradient3845"
       x1="11"
       x2="21"
       y1="19.5"
       y2="19.5"
       gradientTransform="translate(1,-1)"
       gradientUnits="userSpaceOnUse"
       spreadMethod="reflect">
      <stop
         id="stop3833"
         stop-color="#fff"
         offset="0" />
      <stop
         id="stop3821"
         stop-color="#fff"
         stop-opacity=".49804"
         offset=".75" />
      <stop
         id="stop3835"
         stop-color="#fff"
         stop-opacity="0"
         offset="1" />
    </linearGradient>
    <linearGradient
       id="linearGradient3961"
       x1="10"
       x2="10"
       y1="1"
       y2="16"
       gradientTransform="translate(1,-1)"
       gradientUnits="userSpaceOnUse">
      <stop
         id="stop3825"
         stop-color="#fff"
         offset="0" />
      <stop
         id="stop3829"
         stop-color="#fff"
         stop-opacity="0"
         offset="1" />
    </linearGradient>
  </defs>
  <g
     id="layer1"
     transform="translate(0,2)">
    <g
       id="g3337"
       transform="translate(1,-1)">
      <rect
         id="rect3371"
         x=".5"
         y=".5"
         width="21"
         height="21.5"
         rx="2.5"
         ry="2.5"
         fill="url(#linearGradient3335)"
         opacity=".3" />
      <rect
         id="rect2553"
         x="1"
         y="2"
         width="20"
         height="20"
         rx="2.381"
         ry="2.3256"
         opacity=".5" />
    </g>
    <rect
       id="rect3173"
       x="2"
       width="20"
       height="20"
       rx="2"
       ry="2"
       fill="url(#linearGradient3181)"
       fill-rule="evenodd" />
    <path
       id="rect3050"
       d="m4 0c-1.108 0-2 0.892-2 2v16c0 1.108 0.892 2 2 2h16c1.108 0 2-0.892 2-2v-16c0-1.108-0.892-2-2-2h-16zm0 1.0312h16c0.5497 0 0.96875 0.41905 0.96875 0.96875v16c0 0.5497-0.41905 0.96875-0.96875 0.96875h-16c-0.5497 0-0.96875-0.41905-0.96875-0.96875v-16c0-0.5497 0.41905-0.96875 0.96875-0.96875z"
       fill="url(#linearGradient3961)"
       fill-rule="evenodd"
       opacity=".35" />
    <path
       id="path3235"
       d="m4 20c-1.108 0-2-0.892-2-2v-1c0 1.108 0.892 2 2 2h16c1.108 0 2-0.892 2-2v1c0 1.108-0.892 2-2 2h-16z"
       fill="url(#linearGradient3845)"
       fill-rule="evenodd"
       opacity=".2" />
  </g>
  <g
     id="layer2"
     transform="translate(0,2)">
    <rect
       id="rect2410"
       transform="translate(1,-1)"
       x="3"
       y="3"
       width="16"
       height="16"
       rx="2"
       ry="2"
       clip-path="url(#clipPath2849)"
       fill="#fff"
       filter="url(#filter3194)"
       opacity=".15" />
  </g>
  <defs
     id="defs37">
    <filter
       id="w">
      <feGaussianBlur
         stdDeviation="0.20998568"
         id="feGaussianBlur29" />
    </filter>
    <linearGradient
       id="a"
       gradientUnits="userSpaceOnUse"
       x1="8"
       y1="1"
       x2="8"
       y2="14.999984">
      <stop
         stop-color="#fafafa"
         offset="0"
         id="stop32" />
      <stop
         stop-color="#ebebeb"
         offset="1"
         id="stop34" />
    </linearGradient>
  </defs>
  <g
     id="main">
    <path
       style="opacity:0.3;fill:#000000"
       d="M 6.5097656 6.0859375 C 6.494626 6.0876606 6.4820361 6.0880571 6.4667969 6.0898438 C 6.2239269 6.1108437 5.9734538 6.1366156 5.7148438 6.1660156 C 5.4639938 6.1954156 5.22726 6.2264944 5 6.2558594 L 5.0429688 6.8398438 C 5.3720887 6.8398613 5.6497281 6.8563286 5.8613281 6.8847656 C 6.0728881 6.9141656 6.2456762 6.9549049 6.3789062 7.0136719 C 6.5198362 7.0652099 6.6285038 7.1257187 6.7148438 7.1992188 C 6.8011437 7.2654568 6.8768956 7.3430981 6.9472656 7.4238281 C 7.2215256 7.7765381 7.5360519 8.2121825 7.8886719 8.7265625 C 8.2491519 9.2409225 8.6218969 9.7978906 8.9980469 10.400391 C 9.3741969 11.002931 9.7391594 11.620566 10.099609 12.259766 C 10.460069 12.891676 10.786222 13.504409 11.076172 14.099609 L 11.076172 13.099609 C 10.786222 12.504409 10.460069 11.891676 10.099609 11.259766 C 9.7391594 10.620566 9.3741969 10.002931 8.9980469 9.4003906 C 8.6218969 8.7978906 8.2491519 8.2409225 7.8886719 7.7265625 C 7.5360519 7.2121825 7.2215256 6.7765381 6.9472656 6.4238281 C 6.8768956 6.3430981 6.8011437 6.2654568 6.7148438 6.1992188 C 6.662135 6.1543485 6.5812733 6.1221621 6.5097656 6.0859375 z M 14.265625 6.109375 L 14.265625 6.6933594 C 14.74986 6.7523458 15.059971 6.8254816 15.275391 6.9082031 L 15.564453 6.4238281 C 15.638783 6.3030655 15.642541 6.1988623 15.591797 6.109375 L 14.265625 6.109375 z M 17.554688 6.109375 C 17.40154 6.1973852 17.272568 6.2976787 17.197266 6.4238281 L 13.308594 13.09375 L 13.308594 14.09375 L 17.197266 7.4238281 C 17.306886 7.2401881 17.499158 7.0970106 17.773438 6.9941406 C 18.055537 6.8912406 18.46716 6.7889794 19 6.6933594 L 19 6.109375 L 17.554688 6.109375 z M 10.632812 19 C 10.355599 19.137108 9.8717347 19.278994 9.171875 19.416016 L 9.171875 20 L 15.228516 20 L 15.228516 19.416016 C 14.860206 19.350046 14.545672 19.278578 14.294922 19.205078 C 14.067454 19.136239 13.892625 19.068553 13.748047 19 L 10.632812 19 z "
       id="path39" />
    <path
       d="m3.7504 1c-0.16457 1.75e-5 -0.35694 0.011638-0.57634 0.025638-0.2195 0.014-0.45691 0.034738-0.70767 0.064138-0.24287 0.021-0.49284 0.0476-0.75145 0.077-0.25085 0.0294-0.48769 0.060463-0.71495 0.089828l0.043797 0.58359c0.32912 1.75e-5 0.60548 0.016363 0.81708 0.0448 0.21156 0.0294 0.38477 0.069563 0.518 0.12833 0.14093 0.051538 0.24924 0.11247 0.33558 0.18597 0.0863 0.066238 0.16296 0.14373 0.23333 0.22446 0.27426 0.35271 0.58849 0.78752 0.94111 1.3019 0.36048 0.51436 0.73275 1.0713 1.1089 1.6738 0.37615 0.60254 0.74115 1.2206 1.1016 1.8598 0.36046 0.63191 0.68764 1.2454 0.97759 1.8406v4.5213c0 0.10291-0.14095 0.22494-0.42313 0.37196-0.27431 0.13954-0.76787 0.28367-1.481 0.42329v0.58358h6.0553v-0.58358c-0.36831-0.06597-0.68307-0.13814-0.93382-0.21164-0.24287-0.0735-0.43476-0.14443-0.58364-0.21793-0.14095-0.0735-0.24367-0.14-0.30642-0.1988-0.06271-0.06597-0.09476-0.12274-0.09476-0.16684v-4.5277l3.8885-6.6697c0.10962-0.18364 0.30206-0.32681 0.57634-0.42968 0.2821-0.1029 0.69276-0.2058 1.2256-0.30142v-0.58361h-4.7348v0.58361c0.60338 0.0735 0.99378 0.16543 1.1819 0.27578 0.19589 0.11014 0.23437 0.2643 0.11679 0.45533l-3.0203 5.0792c-0.27428-0.52904-0.56875-1.0705-0.89006-1.6289-0.31344-0.56579-0.64062-1.1127-0.97758-1.6418-0.32913-0.53639-0.65576-1.0423-0.9849-1.5199-0.32912-0.47759-0.63656-0.89691-0.92652-1.257-0.13326-0.147-0.29398-0.25998-0.4742-0.33348-0.17254-0.080763-0.35181-0.12179-0.53987-0.12179z"
       fill="#fff"
       id="base"
       transform="translate(4,4)" />
  </g>
</svg>
