<svg width="16" height="16" version="1.1" xmlns="http://www.w3.org/2000/svg">
	<path d="m8 1l-1 3h2l-1-3zm-4.9961 1.998l1.4141 2.8301 1.414-1.416-2.8281-1.4141zm10.002 0l-2.828 1.4141 1.414 1.416 1.414-2.8301zm-5.006 2.002a3 3 0 0 0 -3 3 3 3 0 0 0 3 3 3 3 0 0 0 3 -3 3 3 0 0 0 -3 -3zm0 1.25a1.75 1.75 0 0 1 1.75 1.75 1.75 1.75 0 0 1 -1.75 1.75 1.75 1.75 0 0 1 -1.75 -1.75 1.75 1.75 0 0 1 1.75 -1.75zm-4 .75l-3 1 3 1v-2zm8 0v2l3-1-3-1zm-7.5859 3.172l-1.4141 2.828 2.8281-1.414-1.414-1.414zm7.1719 0l-1.414 1.414 2.828 1.414-1.414-2.828zm-4.586 1.828l1 3 1-3h-2z"
 fill="#bebebe"/>
</svg>
