<svg width="16" height="16" version="1.1" xmlns="http://www.w3.org/2000/svg">
	<path fill="#bebebe" d="m11.36 1.5769c-0.359-0.3634-0.856-0.5769-1.4042-0.5769-1.0969 0-1.9749 0.8878-1.9749 1.9968 0 1.1118-0.2102 1.4262-0.8557 2.1522-0.6455 0.7259-1.1943 0.8052-2.0846 0.8209-1.1349 0-2.0406 1.0679-2.0406 2.0634 0 0.99547 0.87798 1.9968 1.9748 1.9968 0.85072 0 1.5183 0.34266 2.0582 0.89992 0.53997 0.55726 1.0137 1.0022 1.0137 2.0731 0 1.1091 0.87798 1.9968 1.9748 1.9968 0.54841 0 1.0449-0.21345 1.4043-0.57687 0.35939-0.36339 0.5705-0.86542 0.5705-1.42 0-1.1091-0.87799-1.9968-1.9748-1.9968-0.82768 0-1.4295-0.23868-2.2723-1.1-0.84276-0.8613-0.91243-2.871 0.07797-3.784 0.99045-0.91304 1.4096-1.1287 2.1284-1.1287 1.0968 0 1.9748-0.88776 1.9748-1.9968-0.00003-0.55449-0.21114-1.0565-0.57054-1.4199l-0.00001-0.00004z"/>
</svg>
