<svg width="16" height="16" version="1.1" xmlns="http://www.w3.org/2000/svg">
	<path d="m11 1c-2.2091 0-4 1.7909-4 4 0 0.34595 0.073685 0.67984 0.15625 1l-6.1565 6.1562v2.8438h2.8438l1.6875-1.7188v-1.4062h1.4062l0.71875-0.71875v-1.4062h1.4062l0.93775-0.90625c0.32016 0.082565 0.65405 0.15625 1 0.15625 2.2091 0 4-1.7909 4-4s-1.7909-4-4-4zm1 2c0.55228 0 1 0.44772 1 1s-0.44772 1-1 1-1-0.44772-1-1 0.44772-1 1-1z" fill="#bebebe"/>
	<path d="m1 1v2l3.8711 3.8711 1.2266-1.2266c-0.037741-0.21387-0.097656-0.39288-0.097656-0.64453 0-0.3118 0.032567-0.6157 0.087891-0.91211l-3.0879-3.0879h-2zm9.3438 8.9023l-0.58594 0.56641a1.0001 1.0001 0 0 1 -0.69531 0.28125h-0.3125l4.25 4.25h2v-2l-3.0879-3.0879c-0.29641 0.055324-0.60031 0.087891-0.91211 0.087891-0.25613 0-0.43927-0.05884-0.65625-0.097656z" fill="#bebebe" opacity=".45"/>
</svg>
