<svg width="16" height="16" version="1.1" xmlns="http://www.w3.org/2000/svg">
	<path d="M 6.0175781 1 C 6.0175781 1 5.7162881 1.7728427 4.5800781 2.625 C 3.5288821 3.4133967 2.3106201 5.0273965 2.9863281 7.5625 C 2.8281591 6.3363402 3.3715211 4.1552435 6.0175781 4.03125 L 6.0175781 11.5 C 6.0175781 12.880712 7.1368661 14 8.5175781 14 C 9.8982901 14 11.017578 12.880712 11.017578 11.5 C 11.017578 10.119288 9.8982901 9 8.5175781 9 C 7.9583901 9 7.4340181 9.1898056 7.0175781 9.5 L 7.0175781 1 L 6.0175781 1 z " fill="#bebebe"/>
	<path d="m 8.517644,7 c 2.485282,0 4.5,2.0147186 4.5,4.5 0,2.485281 -2.014718,4.5 -4.5,4.5 -2.4852807,0 -4.4999997,-2.014719 -4.4999997,-4.5 0,-1.063054 0.383614,-2.0424813 1,-2.8125 l 0,2.3125 0.03125,0 c -0.022813,0.161436 -0.03125,0.332268 -0.03125,0.5 0,1.932997 1.567003,3.5 3.4999997,3.5 1.932997,0 3.5,-1.567003 3.5,-3.5 0,-1.9329966 -1.567003,-3.5 -3.5,-3.5 -0.167732,0 -0.338564,0.00844 -0.5,0.03125 l 0,-0.96875 C 8.184415,7.0437602 8.345867,7 8.517644,7 z" fill="#bebebe" opacity=".45"/>

</svg>
