<svg width="16" height="16" version="1.1" xmlns="http://www.w3.org/2000/svg">
	<path d="m7 1c-1.1436 0-2 0.46875-2 1.2344s0.5 0.76562 0.5 1.7656h-3c-0.831 0-1.5 0.669-1.5 1.5v2c1 0 1-0.5 1.7656-0.5s1.2344 0.85637 1.2344 2c0 1.1436-0.46875 2-1.2344 2s-0.76562-0.5-1.7656-0.5v3c0 0.831 0.669 1.5 1.5 1.5h3c0-1-0.5-1-0.5-1.7656s0.85637-1.2344 2-1.2344 2 0.46875 2 1.2344-0.5 0.76562-0.5 1.7656h2c0.831 0 1.5-0.669 1.5-1.5v-3c1 0 1 0.5 1.7656 0.5s1.2344-0.85637 1.2344-2c0-1.1436-0.46875-2-1.2344-2s-0.76562 0.5-1.7656 0.5v-2c0-0.831-0.669-1.5-1.5-1.5h-2c0-1 0.5-1 0.5-1.7656s-0.85637-1.2344-2-1.2344z" fill="#bebebe"/>
</svg>
