<svg width="16" height="16" version="1.1" xmlns="http://www.w3.org/2000/svg">
	<path d="m12.908 2.0094c-.358-.0198-.779-.0064-1.238.0225-1.8386.1157-4.2391.6207-5.0441 1.5555-.7233 1.0228-.8058 5.0258-.6191 4.7792 1.5388-2.0319 5.2292-4.5352 7.4282-5.5457 1.02-.4684.547-.7523-.527-.8115zm-2.407 3.3139c-1.2726.0893-3.5018 2.1974-3.1873 2.1867 2.6009-.0883 4.2293.0629 6.2593.6763 0.3.0908-.336-2.6574-3.072-2.863zm-1.3761 2.1867c-.06716.00339-.091259.036214-.068782.067631 1.4874 2.079 2.2482 3.4858 2.82 5.4781.08467.295 2.1099-1.7084.80245-4.0578-.671-.8679-3.0829-1.5115-3.5531-1.4879zm.77953 1.6682c-.014798-.00368-.01796.00404-.022927.022544-.6569 2.4513-1.269 3.9413-2.4532 5.6583-.1753.255 2.7067.443 3.6917-2.051.258-1.137-.994-3.5742-1.2155-3.6298zm-.7565 1.5778c-2.3478 1.093-3.8949 1.599-6.007 1.826-.3127.034 1.3965 2.297 3.9894 1.421 1.1294-.578 2.3014-3.379 2.0176-3.247z" fill="#bebebe"/>
	<path opacity=".45" d="m5.2969 4.2871c-.4746.0787-2.3648 1.3518-1.9258 3.6504.4168 1.1735 3.0721 2.7515 2.9805 2.4585-.7584-2.4231-1.0268-3.997-.9414-6.064.0016-.0382-.0455-.0561-.1133-.0449zm-3.0723 3.6289c-.2548.1307-.7223 2.598 1.4902 3.877 1.1813.468 4.1384-.460 3.8516-.586-2.372-1.042-3.7565-1.866-5.2969-3.291-.0142-.0132-.0279-.0087-.0449 0z" fill="#bebebe"/>
</svg>
