<svg width="16" height="16" enable-background="new" version="1.1" xmlns="http://www.w3.org/2000/svg">
	<title>Paper Symbolic Icon Theme</title>
	<path d="m4.5 1c-0.831 0-1.5 0.669-1.5 1.5v1.5h10v-1.5c0-0.831-0.669-1.5-1.5-1.5h-7zm-1.5 4-2 2h14l-2-2h-10zm1 3a3 3 0 0 0-3 3 3 3 0 0 0 3 3 3 3 0 0 0 3-3h2a3 3 0 0 0 3 3 3 3 0 0 0 3-3 3 3 0 0 0-3-3 3 3 0 0 0-2.8262 2h-2.3496a3 3 0 0 0-2.8242-2zm0 1.5a1.5 1.5 0 0 1 1.5 1.5 1.5 1.5 0 0 1-1.5 1.5 1.5 1.5 0 0 1-1.5-1.5 1.5 1.5 0 0 1 1.5-1.5zm8 0a1.5 1.5 0 0 1 1.5 1.5 1.5 1.5 0 0 1-1.5 1.5 1.5 1.5 0 0 1-1.5-1.5 1.5 1.5 0 0 1 1.5-1.5z" fill="#bebebe"/>
</svg>
