<svg width="16" height="16" version="1.1" xmlns="http://www.w3.org/2000/svg">
	<path fill-rule="evenodd" fill="#bebebe" d="m8 1.0039a1.1964 0.67134 0 0 0 -1.1738 0.5488 1.1964 0.67134 0 0 0 -0.002 0l-0.0019 0.0118a1.1964 0.67134 0 0 0 -0.0176 0.0839l-0.5332 2.6817c0.8272 0.6122 2.6298 0.6122 3.457 0l-0.5351-2.6856a1.1964 0.67134 0 0 0 -0.0176 -0.0918 1.1964 0.67134 0 0 0 -1.1758 -0.5488zm-2.4355 5.7754l-0.5586 2.2012h-0.9063c-0.242 0-0.4595 0.1489-0.5527 0.3769l-1.5 4.7946c-0.1647 0.404 0.1247 0.848 0.5527 0.848h10.8c0.428 0 0.718-0.444 0.553-0.848l-1.5-4.7926c-0.093-0.228-0.311-0.377-0.553-0.377h-0.906l-0.556-2.2031c-1.6502 0.6696-3.0364 0.8417-4.8735 0zm5.5155 2.4961l0.494 1.4276c0.077 0.266-0.028 0.551-0.26 0.695-0.941 0.59-2.1422 0.879-3.3374 0.891-1.1956 0.011-2.3958-0.254-3.3204-0.912-0.2116-0.15-0.3036-0.422-0.2304-0.674l0.4707-1.3495c0.646 0.3866 3.5724 1.5355 6.1835-0.0781z"/>
</svg>
