<svg xmlns:rdf="http://www.w3.org/1999/02/22-rdf-syntax-ns#" xmlns="http://www.w3.org/2000/svg" height="16" width="16" version="1.0" xmlns:cc="http://creativecommons.org/ns#" xmlns:dc="http://purl.org/dc/elements/1.1/">
<defs>
<linearGradient id="bbbbbb" y2="16" gradientUnits="userSpaceOnUse" x2="3" y1="2" x1="3">
<stop stop-color="#78b351" offset="0"/>
<stop stop-color="#3f5f29" offset="1"/>
</linearGradient>
<linearGradient id="aaaaaa" y2="2" gradientUnits="userSpaceOnUse" x2="6" y1="15" x1="6">
<stop stop-color="#76b749" offset="0"/>
<stop stop-color="#a6d08a" offset="1"/>
</linearGradient>
</defs>
<g>
<rect rx="2" ry="2" height="14.5" width="16" y="1.5" x="0" fill="url(#bbbbbb)"/>
<path d="m2.05 0c-0.5817 0-1.05 0.4683-1.05 1.05v2.5277c0 0.5817 0.4683 1.05 1.05 1.05h11.876c0.5817 0 1.05-0.4683 1.05-1.05v-1.4592c0-0.5817-0.4683-1.05-1.05-1.05h-6.4644l-0.186-0.0185c-0.5788-0.05783-0.4683-1.05-1.0499-1.05h-4.1757z" fill="#5b8a3c"/>
<path d="m2.0382 1.0277c-0.01345 0 0-0.01913 0 0.03125v4.5313h11.875c0.05038 0 0.03125 0.01345 0.03125 0v-3.4688c0-0.01345-0.0178-0.03125-0.03125-0.03125h-6.625c-0.03123 0.0014-0.06252 0.0014-0.09375 0-0.4413-0.0441-0.8373-0.3498-1.031-0.5937-0.1607-0.2023-0.2252-0.3447-0.2813-0.4688h-3.8438z" fill="#80bc57"/>
<rect rx="1" ry="1" height="13" width="14" y="2" x="1" fill="url(#aaaaaa)"/>
<path opacity=".2" d="m2 2c-0.554 0-1 0.446-1 1v1c0-0.554 0.446-1 1-1h12c0.554 0 1 0.446 1 1v-1c0-0.554-0.446-1-1-1h-12z" fill="#fff"/>
</g>

<g>
<path opacity=".15" d="m5.4375 4.0625a0.93444 0.93444 0 0 0 -0.4063 0.1875l-2.4062 1.8125a0.93444 0.93444 0 0 0 0 1.5l1.4062 1.0313-1.4062 1.0624a0.93444 0.93444 0 0 0 0 1.5l4.8125 3.625a0.93444 0.93444 0 0 0 1.125 0l4.8125-3.625a0.93444 0.93444 0 0 0 0 -1.5l-1.406-1.0622 1.406-1.0313a0.93444 0.93444 0 0 0 0 -1.5l-2.406-1.8125a0.93444 0.93444 0 0 0 -1.125 0l-1.844 1.375-1.8438-1.375a0.93444 0.93444 0 0 0 -0.7187 -0.1875z" transform="translate(3.0338e-8 -1)" fill="#fff"/>
<path d="m8 13.022-4.8143-3.611 2.4071-1.8054-2.4071-1.8053 2.4071-1.8054 2.4072 1.8054 2.407-1.8054l2.4072 1.8054-2.4072 1.8054 2.4072 1.8054-4.8143 3.6107z" fill="#6A9E47"/>
<path opacity=".2" d="m5.5938 4-2.4063 1.8125 2.4063 1.7813-2.4063 1.8125 4.8125 3.6247 4.812-3.6247-2.406-1.8125 2.406-1.7813-2.406-1.8125-2.406 1.8125-2.4062-1.8125zm0 0.59375 2.125 1.5938a0.47747 0.47747 0 0 0 0.5625 0l2.125-1.5938 1.625 1.2188-1.9062 1.4062a0.47747 0.47747 0 0 0 0 0.75l1.906 1.4375-4.031 3.0317-4.0312-3.0317 1.9062-1.4375a0.47747 0.47747 0 0 0 0 -0.75l-1.9062-1.4062 1.625-1.2188z"/>
<path opacity=".2" d="m5.5938 4-2.4062 1.8125 0.65625 0.5 1.75-1.3125 2.4062 1.8125 2.4062-1.8125 1.75 1.3125 0.65625-0.5l-2.406-1.8125-2.406 1.8125-2.4062-1.8125zm-0.65625 4.0938-1.75 1.3125 0.65625 0.5 1.75-1.3125-0.65625-0.5zm6.125 0-0.65625 0.5 1.75 1.3125 0.65625-0.5-1.75-1.3125z"/>
<path opacity=".15" d="m3.8438 6.3125-0.65625 0.5 1.75 1.2812 0.65625-0.5-1.75-1.2812zm8.3125 0-1.75 1.2812 0.65625 0.5 1.75-1.2812-0.65625-0.5zm-8.3122 3.5938-0.6563 0.4997 4.8125 3.625 4.812-3.625-0.656-0.4997-4.156 3.1247-4.1562-3.1247z" fill="#fff"/>
</g></svg>