<svg xmlns:rdf="http://www.w3.org/1999/02/22-rdf-syntax-ns#" xmlns="http://www.w3.org/2000/svg" height="16" width="16" version="1.0" xmlns:cc="http://creativecommons.org/ns#" xmlns:dc="http://purl.org/dc/elements/1.1/">
<defs>
<linearGradient id="bbbbbb" y2="16" gradientUnits="userSpaceOnUse" x2="3" y1="2" x1="3">
<stop stop-color="#78b351" offset="0"/>
<stop stop-color="#3f5f29" offset="1"/>
</linearGradient>
<linearGradient id="aaaaaa" y2="2" gradientUnits="userSpaceOnUse" x2="6" y1="15" x1="6">
<stop stop-color="#76b749" offset="0"/>
<stop stop-color="#a6d08a" offset="1"/>
</linearGradient>
</defs>
<g>
<rect rx="2" ry="2" height="14.5" width="16" y="1.5" x="0" fill="url(#bbbbbb)"/>
<path d="m2.05 0c-0.5817 0-1.05 0.4683-1.05 1.05v2.5277c0 0.5817 0.4683 1.05 1.05 1.05h11.876c0.5817 0 1.05-0.4683 1.05-1.05v-1.4592c0-0.5817-0.4683-1.05-1.05-1.05h-6.4644l-0.186-0.0185c-0.5788-0.05783-0.4683-1.05-1.0499-1.05h-4.1757z" fill="#5b8a3c"/>
<path d="m2.0382 1.0277c-0.01345 0 0-0.01913 0 0.03125v4.5313h11.875c0.05038 0 0.03125 0.01345 0.03125 0v-3.4688c0-0.01345-0.0178-0.03125-0.03125-0.03125h-6.625c-0.03123 0.0014-0.06252 0.0014-0.09375 0-0.4413-0.0441-0.8373-0.3498-1.031-0.5937-0.1607-0.2023-0.2252-0.3447-0.2813-0.4688h-3.8438z" fill="#80bc57"/>
<rect rx="1" ry="1" height="13" width="14" y="2" x="1" fill="url(#aaaaaa)"/>
<path opacity=".2" d="m2 2c-0.554 0-1 0.446-1 1v1c0-0.554 0.446-1 1-1h12c0.554 0 1 0.446 1 1v-1c0-0.554-0.446-1-1-1h-12z" fill="#fff"/>
</g>

<g>
<path d="m6.0312 5v4.125c-0.3421-0.1166-0.725-0.1384-1.125-0.0312-0.9372 0.2511-1.5233 1.0882-1.3124 1.8752 0.2108 0.787 1.1252 1.22 2.0624 0.969 0.3937-0.106 0.7315-0.328 0.9688-0.594 0.0397-0.037 0.0595-0.086 0.0938-0.125 0.0086-0.012 0.0229-0.02 0.0312-0.031 0.0651-0.079 0.115-0.167 0.1562-0.25 0.0407-0.093 0.0737-0.185 0.0938-0.282 0.0018-0.012 0.0301-0.019 0.0312-0.031v-0.28125-3.5625l2.9688 0.3751v2.9687c-0.3408-0.115-0.7273-0.1378-1.125-0.031-0.93724 0.25113-1.5234 1.0881-1.3125 1.875 0.08144 0.30394 0.27614 0.53919 0.53125 0.71875 0.055212 0.05067 0.11769 0.08552 0.1875 0.125 0.013491 0.0068 0.017513 0.02484 0.03125 0.03125 0.22229 0.10374 0.4827 0.15171 0.75 0.15625 0.16515 0.0028 0.32903-0.02213 0.5-0.0625 0.020605-0.0049 0.041881 0.0055 0.0625 0 0.020998-0.0051 0.041444 0.0057 0.0625 0 0.10189-0.02756 0.18825-0.08636 0.28125-0.125 0.10094-0.04194 0.19261-0.10336 0.28125-0.15625 0.40899-0.24403 0.6849-0.55976 0.71875-0.90625v-0.09375c0.03015-0.14511 0.02112-0.28914 0-0.4375v-5.6562l-4.9375-0.5625z" fill="#6A9E47"/>
<path opacity=".15" d="m5.8438 4a0.99907 0.99907 0 0 0 -0.8125 1v3.125c-0.13032 0.016874-0.24481-0.034883-0.375 0-1.3727 0.3678-2.4078 1.6887-2.0313 3.094 0.37402 1.3959 1.9098 2.055 3.2812 1.6875 0.32867-0.08807 0.54972-0.3246 0.8125-0.5 0.1599 0.40024 0.42296 0.73412 0.71875 0.96875l-0.03125 0.0625c0.050371 0.04623 0.080466 0.03 0.125 0.0625 0.1002 0.07313 0.20379 0.16136 0.25 0.1875a0.99907 0.99907 0 0 0 0.0625 0.03125c0.022983 0.0127 0.00535 0.01916 0.03125 0.03125 0.38627 0.18026 0.78049 0.24362 1.1562 0.25 0.27684 0.0047 0.5296-0.04171 0.75-0.09375 0.04583-0.0059 0.037662 0.01496 0.09375 0 0.033176-0.0057 0.025358 0.01005 0.0625 0 0.31027-0.08392 0.44251-0.17132 0.40625-0.15625 0.22216-0.09231 0.3496-0.2162 0.40625-0.25 0.55416-0.33065 1.0923-0.84017 1.1875-1.625 0.0018-0.01508 0.02976-0.01596 0.03125-0.03125a0.99907 0.99907 0 0 0 0 -0.09375v-0.09375h-0.03125c0.01216-0.1552 0.04422-0.31626 0.03125-0.4375-0.0046-0.04318 0.0054-0.11816 0-0.15625v-5.5a0.99907 0.99907 0 0 0 -0.875 -1l-4.9375-0.5625a0.99907 0.99907 0 0 0 -0.21875 0 0.99907 0.99907 0 0 0 -0.09375 0zm0.1875 1 4.9375 0.5625v5.6562c0.02112 0.14836 0.03015 0.29239 0 0.4375v0.09375c-0.03385 0.34649-0.30976 0.66222-0.71875 0.90625-0.08864 0.05289-0.18031 0.11431-0.28125 0.15625-0.093002 0.03864-0.17936 0.09744-0.28125 0.125-0.021056 0.0057-0.041502-0.0051-0.0625 0-0.020619 0.0055-0.041895-0.0049-0.0625 0-0.1713 0.04-0.3351 0.065-0.5003 0.062-0.2673-0.004-0.5277-0.053-0.75-0.156-0.0137-0.007-0.0178-0.025-0.0313-0.032-0.0698-0.039-0.1322-0.074-0.1874-0.124-0.2552-0.18-0.4499-0.415-0.5313-0.719-0.2109-0.787 0.3753-1.624 1.3125-1.875 0.3977-0.1068 0.7842-0.084 1.125 0.031v-2.9687l-2.9688-0.375v3.5625 0.28125c-0.0012 0.012-0.0294 0.019-0.0312 0.031-0.0201 0.097-0.0531 0.189-0.0938 0.282-0.0412 0.083-0.0911 0.171-0.1562 0.25-0.0083 0.011-0.0226 0.019-0.0312 0.031-0.0343 0.039-0.0541 0.088-0.0938 0.125-0.2373 0.266-0.5751 0.488-0.9688 0.594-0.9372 0.251-1.8516-0.182-2.0624-0.969-0.2109-0.787 0.3752-1.6241 1.3124-1.8752 0.39994-0.10716 0.78286-0.085361 1.125 0.03125v-4.125zm2 2.9375 0.96875 0.09375v1.0938c-0.13033 0.016803-0.24437-0.035002-0.375 0-0.24137 0.064675-0.37972 0.28711-0.59375 0.40625v-1.5938z" fill="#fff"/>
<path opacity=".2" d="m6.0312 5v4.125c-0.3421-0.1166-0.725-0.1384-1.125-0.0312-0.9372 0.2511-1.5233 1.0882-1.3124 1.8752 0.2108 0.787 1.1252 1.22 2.0624 0.969 0.3937-0.106 0.7315-0.328 0.9688-0.594 0.0397-0.037 0.0595-0.086 0.0938-0.125 0.0086-0.012 0.0229-0.02 0.0312-0.031 0.0651-0.079 0.115-0.167 0.1562-0.25 0.0407-0.093 0.0737-0.185 0.0938-0.282 0.0018-0.012 0.0301-0.019 0.0312-0.031v-0.28125-3.5625l2.9688 0.3751v2.9687c-0.3408-0.115-0.7273-0.1378-1.125-0.031-0.93724 0.25113-1.5234 1.0881-1.3125 1.875 0.08144 0.30394 0.27614 0.53919 0.53125 0.71875 0.055212 0.05067 0.11769 0.08552 0.1875 0.125 0.013491 0.0068 0.017513 0.02484 0.03125 0.03125 0.22229 0.10374 0.4827 0.15171 0.75 0.15625 0.16515 0.0028 0.32903-0.02213 0.5-0.0625 0.020605-0.0049 0.041881 0.0055 0.0625 0 0.020998-0.0051 0.041444 0.0057 0.0625 0 0.10189-0.02756 0.18825-0.08636 0.28125-0.125 0.10094-0.04194 0.19261-0.10336 0.28125-0.15625 0.40899-0.24403 0.6849-0.55976 0.71875-0.90625v-0.09375c0.03015-0.14511 0.02112-0.28914 0-0.4375v-5.6562l-4.9375-0.5625zm0.5 0.53125 3.9375 0.4375v1.0312a0.48474 0.48474 0 0 0 -0.40625 -0.3125l-2.9688-0.375a0.48474 0.48474 0 0 0 -0.5625 0.375v-1.1562zm0 3.6875v1.125 0.21875c-0.00178 0.0077 0.0000262 0.03107 0 0.03125v0.03125c-0.00918 0.03167-0.047062 0.05647-0.0625 0.09375-0.00421 0.01017 0.00471 0.02057 0 0.03125-0.02738 0.05244-0.068506 0.09456-0.09375 0.125-0.010833 0.01322-0.014931 0.0079-0.03125 0.03125-0.00774 0.01114 0.00999 0.01774 0 0.03125-0.0495 0.059-0.1079 0.104-0.0625 0.062a0.48474 0.48474 0 0 0 -0.0312 0.031c-0.1745 0.196-0.4226 0.358-0.7188 0.438-0.7265 0.194-1.337-0.134-1.4687-0.625-0.1305-0.487 0.2428-1.087 0.9687-1.2815 0.3094-0.0829 0.5887-0.0557 0.8438 0.0313a0.48474 0.48474 0 0 0 0.65625 -0.375zm3.9375 1.0625v0.9375a0.48474 0.48474 0 0 0 0.031 0.063c0.01767 0.1241 0.01323 0.21756 0 0.28125a0.48474 0.48474 0 0 0 -0.03125 0.09375v0.0625 0.03125c-0.032 0.125-0.165 0.319-0.469 0.5-0.1042 0.062-0.1766 0.107-0.2188 0.125-0.1557 0.065-0.2179 0.094-0.2187 0.094-0.034749-0.0024-0.055332-0.01657-0.125 0-0.147 0.034-0.264 0.033-0.375 0.031-0.2147-0.004-0.3885-0.027-0.5313-0.094-0.0197-0.013-0.0054-0.018-0.0312-0.031-0.0387-0.023-0.0918-0.029-0.0938-0.031a0.48474 0.48474 0 0 0 -0.0312 -0.063c-0.1871-0.131-0.2961-0.259-0.3438-0.437-0.1305-0.487 0.2428-1.087 0.9688-1.282 0.305-0.081 0.5894-0.054 0.8438 0.032a0.48474 0.48474 0 0 0 0.625 -0.3125z"/>
<path opacity=".2" d="m6.0312 5v1l4.9375 0.5625v-1l-4.9375-0.5625zm-0.5312 4.0313c-0.18849-0.00663-0.39378 0.00892-0.59375 0.0625-0.93724 0.25113-1.5234 1.0881-1.3125 1.875 0.011956 0.04462 0.046145 0.08272 0.0625 0.125 0.20261-0.45939 0.66423-0.84304 1.25-1 0.39994-0.10716 0.78286-0.08536 1.125 0.03125v-1c-0.1711-0.0583-0.3428-0.0871-0.5313-0.0937zm3.9688 0.9997c-0.18894-0.0068-0.39491 0.0092-0.59375 0.0625-0.93724 0.25113-1.5234 1.0881-1.3125 1.875 0.012713 0.04744 0.044469 0.08085 0.0625 0.125 0.20261-0.45939 0.66423-0.84304 1.25-1 0.3976-0.107 0.7841-0.084 1.1249 0.031v-1c-0.1704-0.057-0.3423-0.087-0.5312-0.094z"/>
<path opacity=".15" d="m7.0312 6.7812v1l2.9688 0.375v-1l-2.9688-0.375zm0 3.8438c-0.0012 0.012-0.0294 0.019-0.0312 0.031-0.0201 0.097-0.0531 0.189-0.0938 0.282-0.0412 0.083-0.0911 0.171-0.1562 0.25-0.0083 0.011-0.0226 0.019-0.0312 0.031-0.0343 0.039-0.0541 0.088-0.0938 0.125-0.2373 0.266-0.5751 0.488-0.9688 0.594-0.88409 0.23689-1.7279-0.14031-2-0.84375-0.12157 0.27563-0.14157 0.5799-0.0625 0.875 0.21086 0.78692 1.1253 1.2199 2.0625 0.96875 0.3937-0.106 0.7315-0.328 0.9688-0.594 0.0397-0.037 0.0595-0.086 0.0938-0.125 0.0086-0.012 0.0229-0.02 0.0312-0.031 0.0651-0.079 0.115-0.167 0.1562-0.25 0.0407-0.093 0.0737-0.185 0.0938-0.282 0.0018-0.012 0.0301-0.019 0.0312-0.031v-0.28125-0.71875zm3.9375 1.125c-0.03385 0.34649-0.30976 0.66222-0.71875 0.90625-0.08864 0.05289-0.18031 0.11431-0.28125 0.15625-0.093002 0.03864-0.17936 0.09744-0.28125 0.125-0.021056 0.0057-0.041502-0.0051-0.0625 0-0.020619 0.0055-0.041895-0.0049-0.0625 0-0.1713 0.04-0.3351 0.065-0.5003 0.062-0.2673-0.005-0.5277-0.053-0.75-0.156-0.0137-0.007-0.0178-0.025-0.0313-0.032-0.0698-0.039-0.1322-0.074-0.1874-0.124-0.2153-0.152-0.3713-0.356-0.4688-0.594-0.12157 0.27563-0.14157 0.5799-0.0625 0.875 0.08144 0.30394 0.27614 0.53919 0.53125 0.71875 0.055212 0.05067 0.11769 0.08552 0.1875 0.125 0.013491 0.0068 0.017513 0.02484 0.03125 0.03125 0.22229 0.10374 0.4827 0.15171 0.75 0.15625 0.16515 0.0028 0.32903-0.02213 0.5-0.0625 0.020605-0.0049 0.041881 0.0055 0.0625 0 0.020998-0.0051 0.041444 0.0057 0.0625 0 0.10189-0.02756 0.18825-0.08636 0.28125-0.125 0.10094-0.04194 0.19261-0.10336 0.28125-0.15625 0.40899-0.24403 0.6849-0.55976 0.71875-0.90625v-0.09375c0.03015-0.14511 0.02112-0.28914 0-0.4375v-0.46875z" fill="#fff"/>
</g></svg>