<svg xmlns:rdf="http://www.w3.org/1999/02/22-rdf-syntax-ns#" xmlns="http://www.w3.org/2000/svg" height="96" width="96" version="1.0" xmlns:cc="http://creativecommons.org/ns#" xmlns:xlink="http://www.w3.org/1999/xlink" xmlns:dc="http://purl.org/dc/elements/1.1/">
<defs>
<linearGradient id="ButtonShadow" x1="45.448" gradientUnits="userSpaceOnUse" y1="80.472" gradientTransform="matrix(1.0059 0 0 .99417 0 12)" x2="45.448" y2="7.0165">
<stop offset="0"/>
<stop stop-opacity=".58824" offset="1"/>
</linearGradient>
<linearGradient id="dddddd" x1="48" gradientUnits="userSpaceOnUse" y1="78" gradientTransform="translate(0,8)" x2="48" y2="5.9877">
<stop stop-color="#76b749" offset="0"/>
<stop stop-color="#a6d08a" offset="1"/>
</linearGradient>
<clipPath id="llllll" clipPathUnits="userSpaceOnUse">
<rect rx="6" ry="6" height="72" width="84" y="18" x="6" fill="#f0f"/>
</clipPath>
<filter id="jjjjjj" y="-.19716" width="1.3312" x="-.16559" height="1.3943">
<feGaussianBlur stdDeviation="5.1703125"/>
</filter>
<linearGradient id="iiiiii" x1="48" gradientUnits="userSpaceOnUse" x2="48" gradientTransform="matrix(1,0,0,-1,0,92)" y1="75.083" y2="-40">
<stop stop-color="#fff" offset="0"/>
<stop stop-color="#fff" stop-opacity="0" offset="1"/>
</linearGradient>
<linearGradient id="ggggg" y2="81.481" gradientUnits="userSpaceOnUse" y1="22.933" x2="48.022" x1="48.022">
<stop stop-color="#fff" offset="0"/>
<stop stop-color="#fff" stop-opacity="0" offset="1"/>
</linearGradient>
<linearGradient id="hhhhhh" x1="34.86" gradientUnits="userSpaceOnUse" y1="16.275" gradientTransform="matrix(.72 0 0 .72 1.92 -5.52)" x2="34.86" y2="26.987">
<stop stop-color="#96c874" offset="0"/>
<stop stop-color="#81bd59" offset=".75"/>
<stop stop-color="#66a040" offset="1"/>
</linearGradient>
<linearGradient id="cccccc" x1="43" xlink:href="#ButtonShadow" gradientUnits="userSpaceOnUse" x2="43" y1="91" y2="7"/>
<linearGradient id="bbbbbb" x1="45" xlink:href="#ButtonShadow" gradientUnits="userSpaceOnUse" x2="45" y1="92" y2="7"/>
<linearGradient id="aaaaaa" x1="90" spreadMethod="reflect" gradientUnits="userSpaceOnUse" y1="88" gradientTransform="translate(0,10)" x2="48" y2="88">
<stop stop-opacity=".58824" offset="0"/>
<stop stop-opacity=".47059" offset=".1178"/>
<stop stop-opacity=".39216" offset=".2381"/>
<stop stop-opacity=".31373" offset="1"/>
</linearGradient>
</defs>
<g fill="url(#bbbbbb)">
<path opacity=".08" d="m14.125 4c-4.4339 0-8.125 3.5684-8.125 8v2.1562c-2.3764 1.802-4 4.603-4 7.844v63c0 5.5036 4.4964 10 10 10h72c5.5036 0 10-4.4964 10-10v-63c0-3.483-1.853-6.453-4.531-8.219-0.987-3.289-3.943-5.781-7.594-5.781h-39.5c-1.403-1.3548-2.54-2.5096-3.687-3.1562-1.496-0.8424-2.931-0.8143-3.813-0.8438a0.9278 0.9278 0 0 0 -0.03125 0c-0.0012-0.0000173-0.03009-0.0000173-0.03125 0h-20.688z"/>
<path opacity=".1" d="m14.125 4.9375c-3.941 0-7.1875 3.1433-7.1875 7.0625v2.5938c-2.3826 1.6221-4 4.2939-4 7.4062v63c0 5.0014 4.0611 9.0625 9.0625 9.0625h72c5.0014 0 9.0625-4.0611 9.0625-9.0625v-63c0-3.2608-1.7732-6.0397-4.3438-7.625-0.76-3.096-3.477-5.4375-6.843-5.4375h-39.812c-1.598-1.5412-2.773-2.6775-3.844-3.2813-1.273-0.7172-2.448-0.6876-3.375-0.7187a1.0438 1.0438 0 0 0 -0.03125 0h-20.687z"/>
<path opacity=".2" d="m14.125 5.9688c-3.389 0-6.1562 2.688-6.1562 6.0312v3.125c-2.3751 1.394-4 3.9205-4 6.875v63c0 4.4381 3.5931 8.0312 8.0312 8.0312h72c4.4381 0 8.0312-3.5931 8.0312-8.0312v-63c0-3.032-1.7122-5.6044-4.1875-6.9688-0.49189-2.8596-2.9286-5.0625-5.9688-5.0625h-40.188c-1.834-1.7751-3.008-2.8656-3.968-3.4065-1.038-0.5843-1.941-0.5614-2.907-0.5937a1.0438 1.0438 0 0 0 -0.03125 0h-20.656z"/>
<path opacity=".3" d="m14.125 7c-2.843 0-5.125 2.23-5.125 5v3.6875c-2.3641 1.121-4 3.512-4 6.312v63c0 3.878 3.122 7 7 7h72c3.878 0 7-3.122 7-7v-63c0-2.81-1.653-5.196-4.031-6.312-0.17-2.619-2.362-4.688-5.094-4.688h-40.594c-4.2205-4.1123-4.5028-3.9331-6.5-4h-20.656z"/>
</g>
<path opacity=".45" fill="url(#cccccc)" d="m15 7c-2.77 0-5 2.23-5 5v3.3438c-2.3335 0.821-4 3.035-4 5.656v64c0 3.324 2.676 6 6 6h72c3.324 0 6-2.676 6-6v-64c0-2.642-1.7-4.851-4.062-5.656-0.327-2.451-2.396-4.344-4.938-4.344h-40.531c-4.113-4.1123-4.367-3.9331-6.313-4h-19.156z"/>
<path fill="url(#hhhhhh)" d="m15 6c-2.77 0-5 2.23-5 5v59.812c0 2.3933 1.9192 4.3125 4.3125 4.3125h67.375c2.394 0.001 4.313-1.918 4.313-4.312v-55.812c0-2.77-2.23-5-5-5h-40.531c-4.113-4.1123-4.367-3.9331-6.313-4z"/>
<path opacity=".15" fill="#fff" d="m15 6c-2.77 0-5 2.23-5 5v59.812c0 2.3933 1.9192 4.3125 4.3125 4.3125h67.375c2.394 0.001 4.313-1.918 4.313-4.312v-55.812c0-2.77-2.23-5-5-5h-40.531c-4.113-4.1123-4.367-3.9331-6.313-4h-19.156zm0 1.0312h19.156c0.96498 0.031157 1.1925-0.016972 1.8125 0.34375 0.63029 0.36673 1.7068 1.3318 3.75 3.375a1.0438 1.0438 0 0 0 0.75 0.28125h40.531c2.2099 0 3.9688 1.7589 3.9688 3.9688v55.812c0 1.8353-1.4459 3.2812-3.2812 3.2812h-67.375c-1.8353 0-3.2812-1.4459-3.2812-3.2812v-59.812c0-2.2099 1.7589-3.9688 3.9688-3.9688z"/>
<rect rx="6" ry="6" height="76" width="84" y="14" x="6" fill="url(#dddddd)"/>
<path opacity=".35" fill="url(#iiiiii)" d="m12 86c-3.324 0-6-2.676-6-6v-60c0-3.324 2.676-6 6-6h72c3.324 0 6 2.676 6 6v60c0 3.324-2.676 6-6 6zm0-0.96875h72c2.8049 0 5.0312-2.2264 5.0312-5.0312v-60c0-2.8049-2.2264-5.0312-5.0312-5.0312h-72c-2.8049 0-5.0312 2.2264-5.0312 5.0312v60c0 2.8049 2.2264 5.0312 5.0312 5.0312z"/>
<path opacity=".1" fill="#fff" d="m6 78v2c0 3.324 2.676 6 6 6h72c3.324 0 6-2.676 6-6v-2c0 3.324-2.676 6-6 6h-72c-3.324 0-6-2.676-6-6z"/>
<path fill="#6caa44" d="m6 80v4c0 3.324 2.676 6 6 6h72c3.324 0 6-2.676 6-6v-4c0 3.324-2.676 6-6 6h-72c-3.324 0-6-2.676-6-6z"/>
<g transform="translate(0,-10)">
<path opacity=".5" fill="url(#aaaaaa)" d="m6 90v4c0 3.324 2.676 6 6 6h72c3.324 0 6-2.676 6-6v-4c0 3.324-2.676 6-6 6h-72c-3.324 0-6-2.676-6-6z"/>
<path opacity=".1" style="color:#000000" d="m6 92v2c0 3.324 2.676 6 6 6h72c3.324 0 6-2.676 6-6v-2c0 3.324-2.676 6-6 6h-72c-3.324 0-6-2.676-6-6z"/>
<path opacity=".15" style="color:#000000" d="m6 93v1c0 3.324 2.676 6 6 6h72c3.324 0 6-2.676 6-6v-1c0 3.324-2.676 6-6 6h-72c-3.324 0-6-2.676-6-6z"/>
</g>
<path opacity=".1" d="m15.969 22.531c-2.8459 0.0043-5.4332 2.5916-5.4375 5.4375v48.062c0.0043 2.8459 2.5916 5.4332 5.4375 5.4375h64.062c2.8459-0.0043 5.4332-2.5916 5.4375-5.4375v-48.062c-0.006-2.845-2.593-5.433-5.439-5.437z" clip-path="url(#llllll)" filter="url(#jjjjjj)" fill="url(#ggggg)"/>

<defs>
<linearGradient id="a">
<stop stop-color="#527838" stop-opacity=".78431" offset="0"/>
<stop stop-color="#527838" stop-opacity=".39216" offset="1"/>
</linearGradient>
<linearGradient id="b" y2="32.185" xlink:href="#a" gradientUnits="userSpaceOnUse" y1="75.815" gradientTransform="matrix(1.0742 0 0 1.0741 -3.2634 -8.1046)" x2="45.765" x1="45.765"/>
</defs>
<path opacity=".05" d="m58.156 24.375c-2.803 0-5.222 1.742-6.25 4.187-0.068-0.016-0.083-0.081-0.156-0.093-1.242-0.215-2.473-0.344-3.688-0.344-3.281 0-6.544 0.821-9.5 2.281-0.783 0.389-1.107 0.99-1.25 1.5-0.03 0.109 0.072 0.315 0.063 0.469-0.172-0.078-0.305-0.179-0.531-0.219-0.204-0.036-0.524-0.078-0.969 0.032-0.097 0.023-0.356 0.045-0.875 0.437h-0.031v-0.031c-3.437 2.647-5.978 6.333-7.281 10.437-0.678-0.224-1.377-0.406-2.126-0.406-3.791 0-6.906 3.117-6.906 6.906s3.115 6.907 6.906 6.907c0.772 0 1.493-0.2 2.188-0.438 1.31 4.009 3.809 7.614 7.156 10.219v-0.031h0.032c0.292 0.223 0.957 0.649 1.812 0.5 0.231-0.04 0.357-0.141 0.531-0.219 0.008 0.151-0.091 0.365-0.062 0.469 0.145 0.525 0.439 1.111 1.219 1.5 2.995 1.499 6.325 2.281 9.624 2.281 1.214 0 2.463-0.125 3.719-0.344 0.761 2.977 3.359 5.25 6.563 5.25 3.782 0 6.906-3.094 6.906-6.875 0-1.744-0.723-3.292-1.812-4.5 3.34-3.435 5.43-7.939 5.906-12.688 0.064-0.629-0.214-1.359-0.625-1.812-0.128-0.141-0.346-0.113-0.5-0.219 0.172-0.103 0.342-0.138 0.5-0.312 0.414-0.457 0.682-1.198 0.625-1.813-0.436-4.477-2.32-8.793-5.344-12.156-0.123-0.137-0.3-0.116-0.438-0.219 0.806-1.115 1.376-2.407 1.376-3.875 0-3.72-3.059-6.781-6.782-6.781zm0 2c2.644 0 4.782 2.139 4.782 4.781s-2.138 4.782-4.782 4.782-4.781-2.14-4.781-4.782 2.137-4.781 4.781-4.781zm-10.094 3.75c1.075 0 2.192 0.113 3.344 0.313 0.181 0.031 0.313 0.223 0.313 0.406v0.125c0 3.663 3.001 6.656 6.687 6.656 1.264 0 2.493-0.383 3.594-1.094 0.156-0.1 0.377-0.075 0.5 0.063 2.73 3.036 4.45 6.958 4.844 11 0.01 0.106-0.022 0.202-0.094 0.281s-0.175 0.094-0.281 0.094h-7.313c-0.185 0-0.314-0.13-0.344-0.313-0.868-5.447-5.709-9.531-11.25-9.531-1.506 0-3 0.299-4.437 0.906-0.17 0.072-0.37 0-0.469-0.156l-3.875-6.156c-0.056-0.091-0.06-0.179-0.031-0.281 0.029-0.103 0.092-0.203 0.188-0.25 2.69-1.33 5.674-2.063 8.624-2.063zm-11.718 4c0.05-0.012 0.104-0.009 0.156 0 0.104 0.018 0.193 0.098 0.25 0.187l3.875 6.126c0.099 0.157 0.046 0.377-0.094 0.5-2.478 2.158-3.875 5.245-3.875 8.5 0 3.23 1.391 6.31 3.844 8.468 0.14 0.123 0.162 0.344 0.062 0.5l-3.906 6.125c-0.057 0.089-0.145 0.17-0.25 0.188s-0.197-0.029-0.281-0.094c-3.125-2.432-5.479-5.836-6.625-9.594-0.045-0.148 0.004-0.31 0.125-0.406 1.59-1.259 2.531-3.199 2.531-5.187 0-1.989-0.941-3.929-2.531-5.188-0.122-0.096-0.17-0.258-0.125-0.406 1.155-3.789 3.523-7.22 6.688-9.656 0.041-0.033 0.105-0.051 0.156-0.063zm11.718 6c4.558 0 8.571 3.384 9.282 7.844 0.089 0.562 0.515 1.075 1.062 1.469-0.544 0.349-0.981 0.838-1.094 1.531-0.72 4.423-4.712 7.812-9.25 7.812-1.247 0-2.506-0.262-3.718-0.781-0.537-0.228-1.16-0.184-1.75 0.031-0.032-0.597-0.26-1.166-0.782-1.625-2.025-1.782-3.156-4.313-3.156-6.968 0-2.682 1.141-5.218 3.188-7 0.488-0.427 0.702-0.998 0.75-1.626 0.562 0.243 1.18 0.329 1.812 0.063 1.195-0.505 2.415-0.75 3.656-0.75zm-22.5 4.5c2.706 0 4.907 2.202 4.907 4.906s-2.201 4.907-4.907 4.907c-2.705 0-4.906-2.203-4.906-4.907s2.201-4.906 4.906-4.906zm34.094 6.344h7.313c0.106-0.001 0.209 0.046 0.281 0.125s0.104 0.175 0.094 0.281c-0.433 4.319-2.351 8.415-5.406 11.531-0.117 0.119-0.291 0.14-0.438 0.063-0.969-0.505-2.046-0.75-3.094-0.75-3.38 0-6.236 2.517-6.625 5.875-0.019 0.165-0.117 0.284-0.281 0.312-1.167 0.207-2.33 0.313-3.438 0.313-2.984 0-6.007-0.705-8.718-2.063-0.096-0.047-0.159-0.147-0.188-0.25-0.028-0.103-0.026-0.191 0.032-0.281l3.906-6.156c0.1-0.155 0.299-0.198 0.468-0.125 1.453 0.622 2.977 0.937 4.5 0.937 5.526 0 10.339-4.093 11.219-9.5 0.03-0.181 0.191-0.312 0.375-0.312zm-1.812 12.937c0.164-0.016 0.331 0 0.5 0 2.706 0 4.906 2.154 4.906 4.844s-2.2 4.875-4.906 4.875-4.906-2.185-4.906-4.875c0-2.522 1.935-4.595 4.406-4.844z" fill="#fff"/>
<path opacity=".1" d="m58.156 25.344c-2.856 0-5.145 2.122-5.625 4.844-0.176-0.364-0.431-0.663-0.937-0.75-1.199-0.208-2.385-0.344-3.532-0.344-3.121 0-6.267 0.759-9.093 2.156-0.45 0.223-0.632 0.594-0.719 0.906-0.078 0.274-0.05 0.796 0.156 1.125l3.875 6.157c0.359 0.568 1.088 0.809 1.75 0.531 1.313-0.555 2.661-0.813 4.031-0.813 5.035 0 9.432 3.718 10.219 8.656 0.092 0.578 0.709 1.188 1.375 1.188h7.313c0.202 0 0.671-0.041 1.031-0.438 0.248-0.273 0.409-0.694 0.375-1.062-0.414-4.258-2.253-8.361-5.125-11.562-0.006-0.007 0.006-0.026 0-0.032-0.41-0.441-0.978-0.507-1.5-0.312 1.315-1.068 2.219-2.621 2.219-4.438 0-3.197-2.613-5.812-5.813-5.812zm0 1.031c2.644 0 4.782 2.139 4.782 4.781s-2.138 4.782-4.782 4.782-4.781-2.14-4.781-4.782 2.137-4.781 4.781-4.781zm-10.094 3.75c1.075 0 2.192 0.113 3.344 0.313 0.181 0.031 0.313 0.223 0.313 0.406v0.125c0 3.663 3.001 6.656 6.687 6.656 1.264 0 2.493-0.383 3.594-1.094 0.156-0.1 0.377-0.075 0.5 0.063 2.73 3.036 4.45 6.958 4.844 11 0.01 0.106-0.022 0.202-0.094 0.281s-0.175 0.094-0.281 0.094h-7.313c-0.185 0-0.314-0.13-0.344-0.313-0.868-5.447-5.709-9.531-11.25-9.531-1.506 0-3 0.299-4.437 0.906-0.17 0.072-0.37 0-0.469-0.156l-3.875-6.156c-0.056-0.091-0.06-0.179-0.031-0.281 0.029-0.103 0.092-0.203 0.188-0.25 2.69-1.33 5.674-2.063 8.624-2.063zm-11.624 2.969c-0.101-0.005-0.217 0-0.344 0.031-0.076 0.019-0.228 0.014-0.532 0.25-3.337 2.57-5.843 6.157-7.062 10.156-0.132 0.434 0.133 0.861 0.406 1.219-0.964-0.678-2.082-1.156-3.344-1.156-3.264 0-5.937 2.675-5.937 5.937 0 3.263 2.673 5.938 5.937 5.938 1.228 0 2.301-0.48 3.25-1.125-0.165 0.322-0.42 0.645-0.312 1 1.21 3.967 3.705 7.53 7 10.094 0.187 0.145 0.595 0.368 1.094 0.281 0.514-0.089 0.771-0.365 0.937-0.625l3.907-6.125c0.374-0.586 0.307-1.354-0.25-1.844-2.233-1.964-3.5-4.753-3.5-7.687 0-2.96 1.275-5.754 3.531-7.719 0.505-0.442 0.7-1.179 0.281-1.844l-3.875-6.125c-0.169-0.268-0.432-0.536-0.937-0.625-0.066-0.011-0.15-0.026-0.25-0.031zm-0.094 1.031c0.05-0.012 0.104-0.009 0.156 0 0.104 0.018 0.193 0.098 0.25 0.187l3.875 6.126c0.099 0.157 0.046 0.377-0.094 0.5-2.478 2.158-3.875 5.245-3.875 8.5 0 3.23 1.391 6.31 3.844 8.468 0.14 0.123 0.162 0.344 0.062 0.5l-3.906 6.125c-0.057 0.089-0.145 0.17-0.25 0.188s-0.197-0.029-0.281-0.094c-3.125-2.432-5.479-5.836-6.625-9.594-0.045-0.148 0.004-0.31 0.125-0.406 1.59-1.259 2.531-3.199 2.531-5.187 0-1.989-0.941-3.929-2.531-5.188-0.122-0.096-0.17-0.258-0.125-0.406 1.155-3.789 3.523-7.22 6.688-9.656 0.041-0.033 0.105-0.051 0.156-0.063zm-10.782 10.5c2.706 0 4.907 2.202 4.907 4.906s-2.201 4.907-4.907 4.907c-2.705 0-4.906-2.203-4.906-4.907s2.201-4.906 4.906-4.906zm34.094 5.313c-0.67 0.001-1.294 0.495-1.406 1.187-0.798 4.901-5.171 8.625-10.188 8.625-1.381 0-2.764-0.275-4.093-0.844-0.57-0.242-1.359-0.106-1.75 0.5l-3.907 6.156c-0.212 0.336-0.228 0.862-0.156 1.126 0.089 0.32 0.271 0.652 0.719 0.874 2.858 1.431 6.04 2.188 9.187 2.188 1.173 0 2.402-0.127 3.626-0.344 0.285-0.05 0.547-0.212 0.75-0.437 0.122 3.145 2.723 5.687 5.906 5.687 3.26 0 5.937-2.655 5.937-5.906 0-2.023-1.088-3.725-2.656-4.781 0.383 0.014 0.781-0.057 1.063-0.344 3.22-3.284 5.23-7.601 5.687-12.156 0.038-0.376-0.128-0.791-0.375-1.063-0.267-0.293-0.625-0.47-1.031-0.468h-7.313zm0 1.031h7.313c0.106-0.001 0.209 0.046 0.281 0.125s0.104 0.175 0.094 0.281c-0.433 4.319-2.351 8.415-5.406 11.531-0.117 0.119-0.291 0.14-0.438 0.063-0.969-0.505-2.046-0.75-3.094-0.75-3.38 0-6.236 2.517-6.625 5.875-0.019 0.165-0.117 0.284-0.281 0.312-1.167 0.207-2.33 0.313-3.438 0.313-2.984 0-6.007-0.705-8.718-2.063-0.096-0.047-0.159-0.147-0.188-0.25-0.028-0.103-0.026-0.191 0.032-0.281l3.906-6.156c0.1-0.155 0.299-0.198 0.468-0.125 1.453 0.622 2.977 0.937 4.5 0.937 5.526 0 10.339-4.093 11.219-9.5 0.03-0.181 0.191-0.312 0.375-0.312zm-1.812 12.937c0.164-0.016 0.331 0 0.5 0 2.706 0 4.906 2.154 4.906 4.844s-2.2 4.875-4.906 4.875-4.906-2.185-4.906-4.875c0-2.522 1.935-4.595 4.406-4.844z" fill="#fff"/>
<g fill="url(#b)">
<path opacity=".9" d="m58.161 26.369c-2.644 0-4.7849 2.143-4.7849 4.7848s2.1409 4.7848 4.7849 4.7848 4.7849-2.143 4.7849-4.7848-2.1409-4.7848-4.7849-4.7848zm-10.105 3.7475c-2.9509 0.000382-5.9426 0.74512-8.6329 2.0745-0.09567 0.04746-0.15533 0.13166-0.18403 0.23422-0.02909 0.10256-0.02318 0.21083 0.03346 0.30114l3.8815 6.1399c0.09835 0.15613 0.29816 0.22213 0.46845 0.15057 1.4366-0.6073 2.9273-0.90342 4.4336-0.90342 5.5405 0 10.374 4.1055 11.243 9.5529 0.02908 0.18292 0.18323 0.31787 0.36807 0.31787h7.2945c0.10638 0 0.21286-0.03828 0.28442-0.11711s0.11033-0.17803 0.10038-0.28441c-0.3934-4.0418-2.1214-7.9551-4.8518-10.992-0.12322-0.13776-0.32943-0.15083-0.48518-0.0502-1.101 0.71101-2.3502 1.0875-3.6138 1.0875-3.6864 0-6.6751-2.9948-6.6754-6.6586 0.000383-0.0019 0-0.12772 0-0.13384 0-0.18254-0.13687-0.35341-0.31788-0.38479-1.1526-0.19975-2.2715-0.3346-3.3461-0.3346zm-11.711 4.0152c-0.05051 0.01239-0.10905 0.03459-0.15057 0.06692-3.164 2.4369-5.5368 5.864-6.6922 9.6533-0.04516 0.1481-0.0049 0.30509 0.11711 0.40152 1.59 1.2594 2.543 3.1979 2.543 5.1863s-0.95259 3.9269-2.543 5.1863c-0.12131 0.09605-0.16227 0.25304-0.11711 0.40152 1.1461 3.7575 3.5003 7.1715 6.6252 9.6031 0.08381 0.06544 0.17956 0.10202 0.28442 0.08365 0.10447-0.01799 0.19394-0.09487 0.25096-0.18403l3.9149-6.1232c0.09988-0.15651 0.07275-0.36233-0.06692-0.48517-2.4526-2.1579-3.8647-5.252-3.8647-8.4822 0-3.2543 1.4199-6.3569 3.8982-8.5156 0.13968-0.12207 0.18277-0.32789 0.08366-0.48517l-3.8815-6.1399c-0.05664-0.08955-0.14648-0.14893-0.25096-0.1673-0.05224-0.0092-0.10006-0.01239-0.15057 0zm-10.791 10.507c-2.7059 0-4.902 2.198-4.902 4.9019 0 2.704 2.1961 4.8852 4.902 4.8852s4.902-2.1812 4.902-4.8852-2.1961-4.9019-4.902-4.9019zm41.408 6.324-7.2945 0.01673c-0.18407 0.000383-0.35533 0.13648-0.3848 0.31787-0.88055 5.4068-5.7009 9.486-11.226 9.486-1.5238 0-3.0311-0.31466-4.4838-0.93688-0.16991-0.07232-0.36857-0.02114-0.46845 0.13384l-3.9149 6.1399c-0.05702 0.08993-0.06179 0.1982-0.03346 0.30114 0.02832 0.10256 0.08875 0.18677 0.18404 0.23422 2.7113 1.3573 5.7316 2.0745 8.7165 2.0745 1.1071 0 2.2629-0.11084 3.4297-0.31787 0.16379-0.0287 0.28163-0.15294 0.30115-0.31787 0.3888-3.358 3.2287-5.889 6.6085-5.889 1.0478 0 2.1262 0.26445 3.0951 0.76958 0.14733 0.07692 0.31827 0.05209 0.43499-0.06692 3.0557-3.1161 4.9875-7.2245 5.4207-11.544 0.01074-0.10601-0.02843-0.2052-0.10038-0.28441-0.07195-0.07922-0.17803-0.11749-0.28442-0.11711zm-8.617 12.932c-2.7059 0-4.902 2.1784-4.902 4.8685 0 2.69 2.1961 4.8685 4.902 4.8685s4.902-2.1784 4.902-4.8685c0-2.69-2.1961-4.8685-4.902-4.8685z"/>
<g>
<path opacity=".25" d="m58.156 26.375c-2.644 0-4.781 2.139-4.781 4.781s2.137 4.782 4.781 4.782 4.782-2.14 4.782-4.782-2.138-4.781-4.782-4.781zm0 1.969c1.582 0 2.813 1.233 2.813 2.812 0 1.58-1.231 2.813-2.813 2.813-1.581 0-2.812-1.233-2.812-2.813 0-1.579 1.231-2.812 2.812-2.812zm-10.094 1.781c-2.95 0-5.934 0.733-8.624 2.063-0.096 0.047-0.159 0.147-0.188 0.25-0.029 0.102-0.025 0.19 0.031 0.281l3.875 6.156c0.099 0.156 0.299 0.228 0.469 0.156 1.437-0.607 2.931-0.906 4.437-0.906 5.541 0 10.382 4.084 11.25 9.531 0.03 0.183 0.159 0.313 0.344 0.313h7.313c0.106 0 0.209-0.015 0.281-0.094s0.104-0.175 0.094-0.281c-0.394-4.042-2.114-7.964-4.844-11-0.123-0.138-0.344-0.163-0.5-0.063-1.101 0.711-2.33 1.094-3.594 1.094-3.686 0-6.687-2.993-6.687-6.656v-0.125c0-0.183-0.132-0.375-0.313-0.406-1.152-0.2-2.269-0.313-3.344-0.313zm0 1.969c0.615 0 1.298 0.106 1.969 0.187 0.287 1.762 0.964 3.387 2.157 4.625-1.318-0.434-2.684-0.75-4.126-0.75-1.31 0-2.603 0.267-3.874 0.656l-2.188-3.468c1.971-0.743 4.019-1.25 6.062-1.25zm-11.718 2.031c-0.051 0.012-0.115 0.03-0.156 0.063-3.165 2.436-5.533 5.867-6.688 9.656-0.045 0.148 0.003 0.31 0.125 0.406 1.59 1.259 2.531 3.199 2.531 5.188 0 1.988-0.941 3.928-2.531 5.187-0.121 0.096-0.17 0.258-0.125 0.406 1.146 3.758 3.5 7.162 6.625 9.594 0.084 0.065 0.176 0.112 0.281 0.094s0.193-0.099 0.25-0.188l3.906-6.125c0.1-0.156 0.078-0.377-0.062-0.5-2.453-2.158-3.844-5.238-3.844-8.468 0-3.255 1.397-6.342 3.875-8.5 0.14-0.123 0.193-0.343 0.094-0.5l-3.875-6.126c-0.057-0.089-0.146-0.169-0.25-0.187-0.052-0.009-0.106-0.012-0.156 0zm-0.188 2.906l2.156 3.438c-2.274 2.446-3.624 5.617-3.624 8.969 0 3.332 1.309 6.495 3.562 8.937l-2.156 3.375c-1.952-1.883-3.516-4.126-4.406-6.656 1.444-1.576 2.437-3.507 2.437-5.656 0-2.15-0.993-4.081-2.437-5.657 0.904-2.572 2.477-4.852 4.468-6.75zm25.469 1.813c1.648 2.099 2.735 4.552 3.281 7.156h-4.125c-0.749-2.713-2.196-5.099-4.312-6.812 0.644 0.154 1.248 0.406 1.937 0.406 1.125 0 2.193-0.32 3.219-0.75zm-36.063 5.781c-2.705 0-4.906 2.202-4.906 4.906s2.201 4.907 4.906 4.907c2.706 0 4.907-2.203 4.907-4.907s-2.201-4.906-4.907-4.906zm0 1.969c1.638 0 2.938 1.302 2.938 2.937s-1.3 2.938-2.938 2.938c-1.637 0-2.937-1.303-2.937-2.938s1.3-2.937 2.937-2.937zm34.094 4.375c-0.184 0-0.345 0.131-0.375 0.312-0.88 5.407-5.693 9.5-11.219 9.5-1.523 0-3.047-0.315-4.5-0.937-0.169-0.073-0.368-0.03-0.468 0.125l-3.906 6.156c-0.058 0.09-0.06 0.178-0.032 0.281 0.029 0.103 0.092 0.203 0.188 0.25 2.711 1.358 5.734 2.063 8.718 2.063 1.108 0 2.271-0.106 3.438-0.313 0.164-0.028 0.262-0.147 0.281-0.312 0.389-3.358 3.245-5.875 6.625-5.875 1.048 0 2.125 0.245 3.094 0.75 0.147 0.077 0.321 0.056 0.438-0.063 3.055-3.116 4.973-7.212 5.406-11.531 0.01-0.106-0.022-0.202-0.094-0.281s-0.175-0.126-0.281-0.125h-7.313zm1.094 1.969h4.156c-0.608 2.884-1.859 5.579-3.812 7.812-0.887-0.289-1.783-0.5-2.688-0.5-3.886 0-7.145 2.67-8.187 6.312-0.731 0.092-1.472 0.188-2.157 0.188-2.088 0-4.168-0.5-6.156-1.25l2.188-3.438c1.296 0.408 2.627 0.688 3.968 0.688 6.007 0 11.106-4.16 12.688-9.812zm-2.906 10.968c-2.471 0.249-4.406 2.322-4.406 4.844 0 2.69 2.2 4.875 4.906 4.875s4.906-2.185 4.906-4.875-2.2-4.844-4.906-4.844c-0.169 0-0.336-0.016-0.5 0zm0.5 1.969c1.66 0 2.937 1.259 2.937 2.875s-1.292 2.906-2.937 2.906c-1.646 0-2.938-1.29-2.938-2.906s1.277-2.875 2.938-2.875z"/>
<path opacity=".5" d="m58.156 26.375c-2.644 0-4.781 2.139-4.781 4.781s2.137 4.782 4.781 4.782 4.782-2.14 4.782-4.782-2.138-4.781-4.782-4.781zm0 0.969c2.115 0 3.813 1.699 3.813 3.812s-1.698 3.813-3.813 3.813-3.812-1.7-3.812-3.813 1.697-3.812 3.812-3.812zm-10.094 2.781c-2.95 0-5.934 0.733-8.624 2.063-0.096 0.047-0.159 0.147-0.188 0.25-0.029 0.102-0.025 0.19 0.031 0.281l3.875 6.156c0.099 0.156 0.299 0.228 0.469 0.156 1.437-0.607 2.931-0.906 4.437-0.906 5.541 0 10.382 4.084 11.25 9.531 0.03 0.183 0.159 0.313 0.344 0.313h7.313c0.106 0 0.209-0.015 0.281-0.094s0.104-0.175 0.094-0.281c-0.394-4.042-2.114-7.964-4.844-11-0.123-0.138-0.344-0.163-0.5-0.063-1.101 0.711-2.33 1.094-3.594 1.094-3.686 0-6.687-2.993-6.687-6.656v-0.125c0-0.183-0.132-0.375-0.313-0.406-1.152-0.2-2.269-0.313-3.344-0.313zm0 0.969c0.879 0 1.825 0.133 2.782 0.281 0.226 4.001 3.49 7.219 7.562 7.219 1.265 0 2.478-0.389 3.594-1 2.275 2.651 3.711 5.963 4.188 9.406h-6.094c-1.169-5.659-6.193-9.844-12.032-9.844-1.463 0-2.907 0.287-4.312 0.813l-3.219-5.157c2.39-1.073 4.973-1.718 7.531-1.718zm-11.718 3.031c-0.051 0.012-0.115 0.03-0.156 0.063-3.165 2.436-5.533 5.867-6.688 9.656-0.045 0.148 0.003 0.31 0.125 0.406 1.59 1.259 2.531 3.199 2.531 5.188 0 1.988-0.941 3.928-2.531 5.187-0.121 0.096-0.17 0.258-0.125 0.406 1.146 3.758 3.5 7.162 6.625 9.594 0.084 0.065 0.176 0.112 0.281 0.094s0.193-0.099 0.25-0.188l3.906-6.125c0.1-0.156 0.078-0.377-0.062-0.5-2.453-2.158-3.844-5.238-3.844-8.468 0-3.255 1.397-6.342 3.875-8.5 0.14-0.123 0.193-0.343 0.094-0.5l-3.875-6.126c-0.057-0.089-0.146-0.169-0.25-0.187-0.052-0.009-0.106-0.012-0.156 0zm-0.032 1.344l3.219 5.093c-2.451 2.322-3.843 5.511-3.843 8.876 0 3.342 1.385 6.523 3.812 8.843l-3.25 5.063c-2.625-2.21-4.644-5.108-5.688-8.344 1.576-1.44 2.563-3.443 2.563-5.562 0-2.12-0.987-4.123-2.563-5.563 1.054-3.267 3.092-6.19 5.75-8.406zm-10.75 9.156c-2.705 0-4.906 2.202-4.906 4.906s2.201 4.907 4.906 4.907c2.706 0 4.907-2.203 4.907-4.907s-2.201-4.906-4.907-4.906zm0 0.969c2.174 0 3.938 1.765 3.938 3.937s-1.764 3.938-3.938 3.938c-2.173 0-3.937-1.766-3.937-3.938s1.764-3.937 3.937-3.937zm34.094 5.375c-0.184 0-0.345 0.131-0.375 0.312-0.88 5.407-5.693 9.5-11.219 9.5-1.523 0-3.047-0.315-4.5-0.937-0.169-0.073-0.368-0.03-0.468 0.125l-3.906 6.156c-0.058 0.09-0.06 0.178-0.032 0.281 0.029 0.103 0.092 0.203 0.188 0.25 2.711 1.358 5.734 2.063 8.718 2.063 1.108 0 2.271-0.106 3.438-0.313 0.164-0.028 0.262-0.147 0.281-0.312 0.389-3.358 3.245-5.875 6.625-5.875 1.048 0 2.125 0.245 3.094 0.75 0.147 0.077 0.321 0.056 0.438-0.063 3.055-3.116 4.973-7.212 5.406-11.531 0.01-0.106-0.022-0.202-0.094-0.281s-0.175-0.126-0.281-0.125h-7.313zm0.406 0.969h6.188c-0.517 3.74-2.171 7.269-4.781 10.031-0.985-0.428-2.031-0.719-3.063-0.719-3.684 0-6.762 2.642-7.437 6.219-0.984 0.155-1.981 0.281-2.907 0.281-2.612 0-5.241-0.65-7.656-1.75l3.25-5.094c1.431 0.549 2.91 0.844 4.406 0.844 5.826 0 10.821-4.194 12-9.812zm-2.218 11.968c-2.471 0.249-4.406 2.322-4.406 4.844 0 2.69 2.2 4.875 4.906 4.875s4.906-2.185 4.906-4.875-2.2-4.844-4.906-4.844c-0.169 0-0.336-0.016-0.5 0zm0.5 0.969c2.185 0 3.937 1.72 3.937 3.875s-1.759 3.906-3.937 3.906-3.938-1.751-3.938-3.906 1.752-3.875 3.938-3.875zm-18.313 1.719c-0.009 0.022 0.012 0.044 0 0.062h-0.031l0.031-0.062z"/>
<path d="m58.156 26.375c-2.644 0-4.781 2.139-4.781 4.781 0 0.171 0.045 0.334 0.063 0.5 0.252-2.404 2.245-4.281 4.718-4.281s4.466 1.877 4.719 4.281c0.017-0.166 0.063-0.329 0.063-0.5 0-2.642-2.138-4.781-4.782-4.781zm-10.094 3.75c-2.95 0-5.934 0.733-8.624 2.063-0.096 0.047-0.159 0.147-0.188 0.25-0.029 0.102-0.025 0.19 0.031 0.281l0.25 0.406c2.664-1.298 5.618-2 8.531-2 1.075 0 2.192 0.113 3.344 0.313 0.181 0.031 0.313 0.223 0.313 0.406v0.125c0 3.663 3.001 6.656 6.687 6.656 1.264 0 2.493-0.383 3.594-1.094 0.156-0.1 0.377-0.075 0.5 0.063 2.571 2.858 4.234 6.493 4.75 10.281 0.072-0.079 0.104-0.175 0.094-0.281-0.394-4.042-2.114-7.964-4.844-11-0.123-0.138-0.344-0.163-0.5-0.063-1.101 0.711-2.33 1.094-3.594 1.094-3.686 0-6.687-2.993-6.687-6.656v-0.125c0-0.183-0.132-0.375-0.313-0.406-1.152-0.2-2.269-0.313-3.344-0.313zm-11.718 4c-0.051 0.012-0.115 0.03-0.156 0.063-3.165 2.436-5.533 5.867-6.688 9.656-0.045 0.148 0.003 0.31 0.125 0.406 0.023 0.018 0.039 0.044 0.063 0.062 1.209-3.576 3.485-6.803 6.5-9.124 0.041-0.033 0.105-0.051 0.156-0.063 0.05-0.012 0.104-0.009 0.156 0 0.104 0.018 0.193 0.098 0.25 0.187l3.656 5.75c0.045-0.039 0.08-0.085 0.125-0.124 0.14-0.123 0.193-0.343 0.094-0.5l-3.875-6.126c-0.057-0.089-0.146-0.169-0.25-0.187-0.052-0.009-0.106-0.012-0.156 0zm-10.782 10.5c-2.705 0-4.906 2.202-4.906 4.906 0 0.169 0.015 0.336 0.032 0.5 0.251-2.469 2.338-4.406 4.874-4.406 2.537 0 4.624 1.937 4.876 4.406 0.016-0.164 0.031-0.331 0.031-0.5 0-2.704-2.201-4.906-4.907-4.906zm6.563 5.313c-0.144 1.81-1.042 3.533-2.5 4.687-0.121 0.096-0.17 0.258-0.125 0.406 0.055 0.181 0.127 0.352 0.188 0.531 1.548-1.26 2.468-3.165 2.468-5.124 0-0.166-0.018-0.336-0.031-0.5zm4.563 0c-0.008 0.166-0.032 0.333-0.032 0.5 0 3.156 1.337 6.162 3.688 8.312l0.218-0.344c0.1-0.156 0.078-0.377-0.062-0.5-2.327-2.047-3.676-4.919-3.812-7.968zm22.968 1.031c-0.184 0-0.345 0.131-0.375 0.312-0.88 5.407-5.693 9.5-11.219 9.5-1.523 0-3.047-0.315-4.5-0.937-0.169-0.073-0.368-0.03-0.468 0.125l-3.906 6.156c-0.058 0.09-0.06 0.178-0.032 0.281 0.029 0.103 0.092 0.203 0.188 0.25 0.042 0.021 0.083 0.042 0.125 0.063l3.625-5.75c0.1-0.155 0.299-0.198 0.468-0.125 1.453 0.622 2.977 0.937 4.5 0.937 5.526 0 10.339-4.093 11.219-9.5 0.03-0.181 0.191-0.312 0.375-0.312h7.313c0.106-0.001 0.209 0.046 0.281 0.125 0.034-0.242 0.069-0.476 0.094-0.719 0.01-0.106-0.022-0.202-0.094-0.281s-0.175-0.126-0.281-0.125h-7.313zm-1.812 12.937c-2.471 0.249-4.406 2.322-4.406 4.844 0 0.168 0.014 0.336 0.031 0.5 0.251-2.456 2.338-4.344 4.875-4.344s4.624 1.888 4.875 4.344c0.016-0.164 0.031-0.332 0.031-0.5 0-2.69-2.2-4.844-4.906-4.844-0.169 0-0.336-0.016-0.5 0z"/>
</g>
</g>
<path opacity=".2" d="m53.438 31.656c-0.018 0.167-0.063 0.329-0.063 0.5 0 2.642 2.137 4.782 4.781 4.782s4.782-2.14 4.782-4.782c0-0.171-0.046-0.333-0.063-0.5-0.253 2.404-2.246 4.282-4.719 4.282s-4.466-1.878-4.718-4.282zm-13.907 1.469c-0.034 0.017-0.06 0.046-0.093 0.063-0.096 0.047-0.159 0.147-0.188 0.25-0.029 0.102-0.025 0.19 0.031 0.281l3.875 6.156c0.099 0.156 0.299 0.228 0.469 0.156 1.437-0.607 2.931-0.906 4.437-0.906 5.541 0 10.382 4.084 11.25 9.531 0.03 0.183 0.159 0.313 0.344 0.313h7.313c0.106 0 0.209-0.015 0.281-0.094s0.104-0.175 0.094-0.281c-0.023-0.237-0.062-0.483-0.094-0.719-0.072 0.079-0.175 0.094-0.281 0.094h-7.313c-0.185 0-0.314-0.13-0.344-0.313-0.868-5.447-5.709-9.531-11.25-9.531-1.506 0-3 0.299-4.437 0.906-0.17 0.072-0.37 0-0.469-0.156l-3.625-5.75zm0.875 7.937c-2.395 2.153-3.75 5.18-3.75 8.376 0 0.165 0.024 0.335 0.032 0.5 0.137-3.071 1.492-5.953 3.843-8 0.14-0.123 0.193-0.343 0.094-0.5l-0.219-0.376zm-10.718 3.25c-0.06 0.178-0.133 0.353-0.188 0.532-0.045 0.148 0.003 0.31 0.125 0.406 1.457 1.154 2.356 2.877 2.5 4.688 0.013-0.165 0.031-0.335 0.031-0.5 0-1.96-0.92-3.865-2.468-5.126zm-9 5.719c-0.017 0.165-0.032 0.331-0.032 0.5 0 2.704 2.201 4.907 4.906 4.907 2.706 0 4.907-2.203 4.907-4.907 0-0.169-0.015-0.335-0.031-0.5-0.252 2.468-2.339 4.407-4.876 4.407-2.536 0-4.623-1.939-4.874-4.407zm46.562 2.063c-0.567 4.051-2.429 7.872-5.312 10.812-0.117 0.119-0.291 0.14-0.438 0.063-0.969-0.505-2.046-0.75-3.094-0.75-3.38 0-6.236 2.517-6.625 5.875-0.019 0.165-0.117 0.284-0.281 0.312-1.167 0.207-2.33 0.313-3.438 0.313-2.938 0-5.914-0.683-8.593-2l-0.281 0.406c-0.058 0.09-0.06 0.178-0.032 0.281 0.029 0.103 0.092 0.203 0.188 0.25 2.711 1.358 5.734 2.063 8.718 2.063 1.108 0 2.271-0.106 3.438-0.313 0.164-0.028 0.262-0.147 0.281-0.312 0.389-3.358 3.245-5.875 6.625-5.875 1.048 0 2.125 0.245 3.094 0.75 0.147 0.077 0.321 0.056 0.438-0.063 3.055-3.116 4.973-7.212 5.406-11.531 0.01-0.106-0.022-0.202-0.094-0.281zm-37.562 3.468c-0.024 0.019-0.04 0.045-0.063 0.063-0.121 0.096-0.17 0.258-0.125 0.406 1.146 3.758 3.5 7.162 6.625 9.594 0.084 0.065 0.176 0.112 0.281 0.094s0.193-0.099 0.25-0.188l3.906-6.125c0.1-0.156 0.078-0.377-0.062-0.5-0.056-0.049-0.102-0.106-0.156-0.156l-3.688 5.781c-0.057 0.089-0.145 0.17-0.25 0.188s-0.197-0.029-0.281-0.094c-2.975-2.314-5.237-5.519-6.437-9.063zm23.781 13.688c-0.017 0.164-0.031 0.332-0.031 0.5 0 2.69 2.2 4.875 4.906 4.875s4.906-2.185 4.906-4.875c0-0.168-0.015-0.336-0.031-0.5-0.251 2.456-2.338 4.375-4.875 4.375s-4.624-1.919-4.875-4.375z" fill="#fff"/></svg>