<svg xmlns:rdf="http://www.w3.org/1999/02/22-rdf-syntax-ns#" xmlns="http://www.w3.org/2000/svg" height="96" width="96" version="1.0" xmlns:cc="http://creativecommons.org/ns#" xmlns:xlink="http://www.w3.org/1999/xlink" xmlns:dc="http://purl.org/dc/elements/1.1/">
<defs>
<linearGradient id="ButtonShadow" x1="45.448" gradientUnits="userSpaceOnUse" y1="80.472" gradientTransform="matrix(1.0059 0 0 .99417 0 12)" x2="45.448" y2="7.0165">
<stop offset="0"/>
<stop stop-opacity=".58824" offset="1"/>
</linearGradient>
<linearGradient id="dddddd" x1="48" gradientUnits="userSpaceOnUse" y1="78" gradientTransform="translate(0,8)" x2="48" y2="5.9877">
<stop stop-color="#76b749" offset="0"/>
<stop stop-color="#a6d08a" offset="1"/>
</linearGradient>
<clipPath id="llllll" clipPathUnits="userSpaceOnUse">
<rect rx="6" ry="6" height="72" width="84" y="18" x="6" fill="#f0f"/>
</clipPath>
<filter id="jjjjjj" y="-.19716" width="1.3312" x="-.16559" height="1.3943">
<feGaussianBlur stdDeviation="5.1703125"/>
</filter>
<linearGradient id="iiiiii" x1="48" gradientUnits="userSpaceOnUse" x2="48" gradientTransform="matrix(1,0,0,-1,0,92)" y1="75.083" y2="-40">
<stop stop-color="#fff" offset="0"/>
<stop stop-color="#fff" stop-opacity="0" offset="1"/>
</linearGradient>
<linearGradient id="ggggg" y2="81.481" gradientUnits="userSpaceOnUse" y1="22.933" x2="48.022" x1="48.022">
<stop stop-color="#fff" offset="0"/>
<stop stop-color="#fff" stop-opacity="0" offset="1"/>
</linearGradient>
<linearGradient id="hhhhhh" x1="34.86" gradientUnits="userSpaceOnUse" y1="16.275" gradientTransform="matrix(.72 0 0 .72 1.92 -5.52)" x2="34.86" y2="26.987">
<stop stop-color="#96c874" offset="0"/>
<stop stop-color="#81bd59" offset=".75"/>
<stop stop-color="#66a040" offset="1"/>
</linearGradient>
<linearGradient id="cccccc" x1="43" xlink:href="#ButtonShadow" gradientUnits="userSpaceOnUse" x2="43" y1="91" y2="7"/>
<linearGradient id="bbbbbb" x1="45" xlink:href="#ButtonShadow" gradientUnits="userSpaceOnUse" x2="45" y1="92" y2="7"/>
<linearGradient id="aaaaaa" x1="90" spreadMethod="reflect" gradientUnits="userSpaceOnUse" y1="88" gradientTransform="translate(0,10)" x2="48" y2="88">
<stop stop-opacity=".58824" offset="0"/>
<stop stop-opacity=".47059" offset=".1178"/>
<stop stop-opacity=".39216" offset=".2381"/>
<stop stop-opacity=".31373" offset="1"/>
</linearGradient>
</defs>
<g fill="url(#bbbbbb)">
<path opacity=".08" d="m14.125 4c-4.4339 0-8.125 3.5684-8.125 8v2.1562c-2.3764 1.802-4 4.603-4 7.844v63c0 5.5036 4.4964 10 10 10h72c5.5036 0 10-4.4964 10-10v-63c0-3.483-1.853-6.453-4.531-8.219-0.987-3.289-3.943-5.781-7.594-5.781h-39.5c-1.403-1.3548-2.54-2.5096-3.687-3.1562-1.496-0.8424-2.931-0.8143-3.813-0.8438a0.9278 0.9278 0 0 0 -0.03125 0c-0.0012-0.0000173-0.03009-0.0000173-0.03125 0h-20.688z"/>
<path opacity=".1" d="m14.125 4.9375c-3.941 0-7.1875 3.1433-7.1875 7.0625v2.5938c-2.3826 1.6221-4 4.2939-4 7.4062v63c0 5.0014 4.0611 9.0625 9.0625 9.0625h72c5.0014 0 9.0625-4.0611 9.0625-9.0625v-63c0-3.2608-1.7732-6.0397-4.3438-7.625-0.76-3.096-3.477-5.4375-6.843-5.4375h-39.812c-1.598-1.5412-2.773-2.6775-3.844-3.2813-1.273-0.7172-2.448-0.6876-3.375-0.7187a1.0438 1.0438 0 0 0 -0.03125 0h-20.687z"/>
<path opacity=".2" d="m14.125 5.9688c-3.389 0-6.1562 2.688-6.1562 6.0312v3.125c-2.3751 1.394-4 3.9205-4 6.875v63c0 4.4381 3.5931 8.0312 8.0312 8.0312h72c4.4381 0 8.0312-3.5931 8.0312-8.0312v-63c0-3.032-1.7122-5.6044-4.1875-6.9688-0.49189-2.8596-2.9286-5.0625-5.9688-5.0625h-40.188c-1.834-1.7751-3.008-2.8656-3.968-3.4065-1.038-0.5843-1.941-0.5614-2.907-0.5937a1.0438 1.0438 0 0 0 -0.03125 0h-20.656z"/>
<path opacity=".3" d="m14.125 7c-2.843 0-5.125 2.23-5.125 5v3.6875c-2.3641 1.121-4 3.512-4 6.312v63c0 3.878 3.122 7 7 7h72c3.878 0 7-3.122 7-7v-63c0-2.81-1.653-5.196-4.031-6.312-0.17-2.619-2.362-4.688-5.094-4.688h-40.594c-4.2205-4.1123-4.5028-3.9331-6.5-4h-20.656z"/>
</g>
<path opacity=".45" fill="url(#cccccc)" d="m15 7c-2.77 0-5 2.23-5 5v3.3438c-2.3335 0.821-4 3.035-4 5.656v64c0 3.324 2.676 6 6 6h72c3.324 0 6-2.676 6-6v-64c0-2.642-1.7-4.851-4.062-5.656-0.327-2.451-2.396-4.344-4.938-4.344h-40.531c-4.113-4.1123-4.367-3.9331-6.313-4h-19.156z"/>
<path fill="url(#hhhhhh)" d="m15 6c-2.77 0-5 2.23-5 5v59.812c0 2.3933 1.9192 4.3125 4.3125 4.3125h67.375c2.394 0.001 4.313-1.918 4.313-4.312v-55.812c0-2.77-2.23-5-5-5h-40.531c-4.113-4.1123-4.367-3.9331-6.313-4z"/>
<path opacity=".15" fill="#fff" d="m15 6c-2.77 0-5 2.23-5 5v59.812c0 2.3933 1.9192 4.3125 4.3125 4.3125h67.375c2.394 0.001 4.313-1.918 4.313-4.312v-55.812c0-2.77-2.23-5-5-5h-40.531c-4.113-4.1123-4.367-3.9331-6.313-4h-19.156zm0 1.0312h19.156c0.96498 0.031157 1.1925-0.016972 1.8125 0.34375 0.63029 0.36673 1.7068 1.3318 3.75 3.375a1.0438 1.0438 0 0 0 0.75 0.28125h40.531c2.2099 0 3.9688 1.7589 3.9688 3.9688v55.812c0 1.8353-1.4459 3.2812-3.2812 3.2812h-67.375c-1.8353 0-3.2812-1.4459-3.2812-3.2812v-59.812c0-2.2099 1.7589-3.9688 3.9688-3.9688z"/>
<rect rx="6" ry="6" height="76" width="84" y="14" x="6" fill="url(#dddddd)"/>
<path opacity=".35" fill="url(#iiiiii)" d="m12 86c-3.324 0-6-2.676-6-6v-60c0-3.324 2.676-6 6-6h72c3.324 0 6 2.676 6 6v60c0 3.324-2.676 6-6 6zm0-0.96875h72c2.8049 0 5.0312-2.2264 5.0312-5.0312v-60c0-2.8049-2.2264-5.0312-5.0312-5.0312h-72c-2.8049 0-5.0312 2.2264-5.0312 5.0312v60c0 2.8049 2.2264 5.0312 5.0312 5.0312z"/>
<path opacity=".1" fill="#fff" d="m6 78v2c0 3.324 2.676 6 6 6h72c3.324 0 6-2.676 6-6v-2c0 3.324-2.676 6-6 6h-72c-3.324 0-6-2.676-6-6z"/>
<path fill="#6caa44" d="m6 80v4c0 3.324 2.676 6 6 6h72c3.324 0 6-2.676 6-6v-4c0 3.324-2.676 6-6 6h-72c-3.324 0-6-2.676-6-6z"/>
<g transform="translate(0,-10)">
<path opacity=".5" fill="url(#aaaaaa)" d="m6 90v4c0 3.324 2.676 6 6 6h72c3.324 0 6-2.676 6-6v-4c0 3.324-2.676 6-6 6h-72c-3.324 0-6-2.676-6-6z"/>
<path opacity=".1" style="color:#000000" d="m6 92v2c0 3.324 2.676 6 6 6h72c3.324 0 6-2.676 6-6v-2c0 3.324-2.676 6-6 6h-72c-3.324 0-6-2.676-6-6z"/>
<path opacity=".15" style="color:#000000" d="m6 93v1c0 3.324 2.676 6 6 6h72c3.324 0 6-2.676 6-6v-1c0 3.324-2.676 6-6 6h-72c-3.324 0-6-2.676-6-6z"/>
</g>
<path opacity=".1" d="m15.969 22.531c-2.8459 0.0043-5.4332 2.5916-5.4375 5.4375v48.062c0.0043 2.8459 2.5916 5.4332 5.4375 5.4375h64.062c2.8459-0.0043 5.4332-2.5916 5.4375-5.4375v-48.062c-0.006-2.845-2.593-5.433-5.439-5.437z" clip-path="url(#llllll)" filter="url(#jjjjjj)" fill="url(#ggggg)"/>

<defs>
<linearGradient id="a">
<stop stop-color="#527838" stop-opacity=".78431" offset="0"/>
<stop stop-color="#527838" stop-opacity=".39216" offset="1"/>
</linearGradient>
<linearGradient id="b" y2="38.758" xlink:href="#a" gradientUnits="userSpaceOnUse" y1="72" gradientTransform="translate(-2,-6)" x2="49" x1="49"/>
</defs>
<path opacity=".05" d="m35.5 32.031c-1.363 0-2.528 0.833-3.094 2h-3.406c-2.722 0-4.969 2.247-4.969 4.969v24c0 2.722 2.247 4.969 4.969 4.969h38c2.722 0 4.969-2.247 4.969-4.969v-24c0-2.722-2.247-4.969-4.969-4.969h-23.406c-0.566-1.167-1.731-2-3.094-2h-5zm0 1.969h5c0.831 0 1.5 0.669 1.5 1.5v0.5h25c1.662 0 3 1.338 3 3v24c0 1.662-1.338 3-3 3h-38c-1.662 0-3-1.338-3-3v-24c0-1.662 1.338-3 3-3h5v-0.5c0-0.831 0.669-1.5 1.5-1.5zm-4.5 6c-0.554 0-1 0.446-1 1v2c0 0.554 0.446 1 1 1h10c0.554 0 1-0.446 1-1v-2c0-0.554-0.446-1-1-1h-10zm0.969 1.969h8.062v0.062h-8.062v-0.062zm24.031 0.031c-5.523 0-10 4.477-10 10s4.477 10 10 10 10-4.477 10-10-4.477-10-10-10zm0 1.969c4.456 0 8.031 3.575 8.031 8.031s-3.575 8.031-8.031 8.031-8.031-3.575-8.031-8.031 3.575-8.031 8.031-8.031zm0 2.062c-3.276 0-5.969 2.693-5.969 5.969s2.693 5.969 5.969 5.969 5.969-2.693 5.969-5.969-2.693-5.969-5.969-5.969zm0 1.969c2.209 0 4 1.791 4 4s-1.791 4-4 4-4-1.791-4-4 1.791-4 4-4z" fill="#fff"/>
<path opacity=".1" d="m35.5 33.062c-1.159 0-2.017 0.905-2.25 2h-4.25c-2.16 0-3.938 1.778-3.938 3.938v24c0 2.16 1.778 3.938 3.938 3.938h38c2.16 0 3.938-1.778 3.938-3.938v-24c0-2.16-1.778-3.938-3.938-3.938h-24.25c-0.233-1.095-1.091-2-2.25-2h-5zm0 0.938h5c0.831 0 1.5 0.669 1.5 1.5v0.5h25c1.662 0 3 1.338 3 3v24c0 1.662-1.338 3-3 3h-38c-1.662 0-3-1.338-3-3v-24c0-1.662 1.338-3 3-3h5v-0.5c0-0.831 0.669-1.5 1.5-1.5zm-4.5 6c-0.554 0-1 0.446-1 1v2c0 0.554 0.446 1 1 1h10c0.554 0 1-0.446 1-1v-2c0-0.554-0.446-1-1-1h-10zm-0.062 0.938c0.008-0.009 0.034 0 0.062 0h10c0.056 0 0.062 0.006 0.062 0.062v2c0 0.056-0.006 0.062-0.062 0.062h-10c-0.056 0-0.062-0.006-0.062-0.062v-2c0-0.028-0.009-0.054 0-0.062zm25.062 1.062c-5.523 0-10 4.477-10 10s4.477 10 10 10 10-4.477 10-10-4.477-10-10-10zm0 0.938c5.021 0 9.062 4.041 9.062 9.062s-4.041 9.062-9.062 9.062-9.062-4.041-9.062-9.062 4.041-9.062 9.062-9.062zm0 4.124c-2.711 0-4.938 2.227-4.938 4.938s2.227 4.938 4.938 4.938 4.938-2.227 4.938-4.938-2.227-4.938-4.938-4.938zm0 0.938c2.209 0 4 1.791 4 4s-1.791 4-4 4-4-1.791-4-4 1.791-4 4-4z" fill="#fff"/>
<g fill="url(#b)">
<path opacity=".9" d="m35.5 34c-0.831 0-1.5 0.669-1.5 1.5v0.5h-5c-1.662 0-3 1.338-3 3v24c0 1.662 1.338 3 3 3h38c1.662 0 3-1.338 3-3v-24c0-1.662-1.338-3-3-3h-25v-0.5c0-0.831-0.669-1.5-1.5-1.5h-5zm-4.5 6h10c0.554 0 1 0.446 1 1v2c0 0.554-0.446 1-1 1h-10c-0.554 0-1-0.446-1-1v-2c0-0.554 0.446-1 1-1zm25 2c5.5228 0 10 4.4772 10 10s-4.4772 10-10 10-10-4.4772-10-10 4.4772-10 10-10zm0 6c-2.2091 0-4 1.7909-4 4s1.7909 4 4 4 4-1.7909 4-4-1.7909-4-4-4z"/>
<g>
<path opacity=".25" d="m35.5 34c-0.831 0-1.5 0.669-1.5 1.5v0.5h-5c-1.662 0-3 1.338-3 3v24c0 1.662 1.338 3 3 3h38c1.662 0 3-1.338 3-3v-24c0-1.662-1.338-3-3-3h-25v-0.5c0-0.831-0.669-1.5-1.5-1.5h-5zm0.594 2.094h3.812a2.0876 2.0876 0 0 0 1.25 1.844c-0.052-0.003-0.103-0.032-0.156-0.032h-6.125a2.0876 2.0876 0 0 0 1.219 -1.812zm5.094 1.844c0.282 0.017 0.553 0.063 0.812 0.156h25c0.542 0 0.906 0.364 0.906 0.906v12.094c-0.491-6.209-5.577-11.188-11.906-11.188-6.651 0-12.094 5.443-12.094 12.094 0 6.329 4.979 11.415 11.188 11.906h-26.094c-0.542 0-0.906-0.364-0.906-0.906v-19.562c0.246 1.446 1.401 2.656 2.906 2.656h10c1.674 0 3.094-1.42 3.094-3.094v-2c0-1.325-0.893-2.478-2.094-2.906a2.0876 2.0876 0 0 1 -0.812 -0.156zm-12.188 0.156h1.562c-1.283 0.218-2.25 1.185-2.468 2.468v-1.562c0-0.542 0.364-0.906 0.906-0.906zm2 1.906h10c0.554 0 1 0.446 1 1v2c0 0.554-0.446 1-1 1h-10c-0.554 0-1-0.446-1-1v-2c0-0.554 0.446-1 1-1zm25 2c5.523 0 10 4.477 10 10s-4.477 10-10 10-10-4.477-10-10 4.477-10 10-10zm0 6c-2.209 0-4 1.791-4 4s1.791 4 4 4 4-1.791 4-4-1.791-4-4-4zm0 2.094c1.081 0 1.906 0.825 1.906 1.906s-0.825 1.906-1.906 1.906-1.906-0.825-1.906-1.906 0.825-1.906 1.906-1.906zm11.906 2.812v10.094c0 0.542-0.364 0.906-0.906 0.906h-10.094c5.893-0.466 10.534-5.107 11-11z"/>
<path opacity=".5" d="m35.5 34c-0.831 0-1.5 0.669-1.5 1.5v0.5h-5c-1.662 0-3 1.338-3 3v24c0 1.662 1.338 3 3 3h38c1.662 0 3-1.338 3-3v-24c0-1.662-1.338-3-3-3h-25v-0.5c0-0.831-0.669-1.5-1.5-1.5h-5zm0 1.031h5c0.271 0 0.469 0.198 0.469 0.469v0.5a1.0438 1.0438 0 0 0 1.031 1.031h25c1.102 0 1.969 0.867 1.969 1.969v24c0 1.102-0.867 1.969-1.969 1.969h-38c-1.102 0-1.969-0.867-1.969-1.969v-24c0-1.102 0.867-1.969 1.969-1.969h5a1.0438 1.0438 0 0 0 1.031 -1.031v-0.5c0-0.271 0.198-0.469 0.469-0.469zm-4.5 3.938c-1.114 0-2.031 0.917-2.031 2.031v2c0 1.114 0.917 2.031 2.031 2.031h10c1.114 0 2.031-0.917 2.031-2.031v-2c0-1.114-0.917-2.031-2.031-2.031h-10zm0 1.031h10c0.554 0 1 0.446 1 1v2c0 0.554-0.446 1-1 1h-10c-0.554 0-1-0.446-1-1v-2c0-0.554 0.446-1 1-1zm25 0.969c-6.087 0-11.031 4.944-11.031 11.031s4.944 11.031 11.031 11.031 11.031-4.944 11.031-11.031-4.944-11.031-11.031-11.031zm0 1.031c5.523 0 10 4.477 10 10s-4.477 10-10 10-10-4.477-10-10 4.477-10 10-10zm0 6c-2.209 0-4 1.791-4 4s1.791 4 4 4 4-1.791 4-4-1.791-4-4-4zm0 1.031c1.645 0 2.969 1.324 2.969 2.969s-1.324 2.969-2.969 2.969-2.969-1.324-2.969-2.969 1.324-2.969 2.969-2.969z"/>
<path d="m35.5 34c-0.831 0-1.5 0.669-1.5 1.5v0.5h-5c-1.662 0-3 1.338-3 3v1c0-1.662 1.338-3 3-3h5v-0.5c0-0.831 0.669-1.5 1.5-1.5h5c0.831 0 1.5 0.669 1.5 1.5v0.5h25c1.662 0 3 1.338 3 3v-1c0-1.662-1.338-3-3-3h-25v-0.5c0-0.831-0.669-1.5-1.5-1.5h-5zm-5.5 9v1c0 0.554 0.446 1 1 1h10c0.554 0 1-0.446 1-1v-1c0 0.554-0.446 1-1 1h-10c-0.554 0-1-0.446-1-1zm26 5c-2.209 0-4 1.791-4 4 0 0.17 0.042 0.335 0.062 0.5 0.248-1.972 1.899-3.5 3.938-3.5s3.69 1.528 3.938 3.5c0.02-0.165 0.062-0.33 0.062-0.5 0-2.209-1.791-4-4-4zm-9.969 4.5c-0.008 0.165-0.031 0.333-0.031 0.5 0 5.523 4.477 10 10 10s10-4.477 10-10c0-0.167-0.023-0.335-0.031-0.5-0.26 5.291-4.614 9.5-9.969 9.5s-9.709-4.209-9.969-9.5z"/>
</g>
</g>
<path opacity=".2" d="m31 40c-0.554 0-1 0.446-1 1v1c0-0.554 0.446-1 1-1h10c0.554 0 1 0.446 1 1v-1c0-0.554-0.446-1-1-1h-10zm25 2c-5.523 0-10 4.477-10 10 0 0.167 0.023 0.335 0.031 0.5 0.26-5.291 4.614-9.5 9.969-9.5s9.709 4.209 9.969 9.5c0.008-0.165 0.031-0.333 0.031-0.5 0-5.523-4.477-10-10-10zm-3.938 10.5c-0.02 0.165-0.062 0.33-0.062 0.5 0 2.209 1.791 4 4 4s4-1.791 4-4c0-0.17-0.042-0.335-0.062-0.5-0.248 1.972-1.899 3.5-3.938 3.5s-3.69-1.528-3.938-3.5zm-26.062 10.5v1c0 1.662 1.338 3 3 3h38c1.662 0 3-1.338 3-3v-1c0 1.662-1.338 3-3 3h-38c-1.662 0-3-1.338-3-3z" fill="#fff"/></svg>