<svg xmlns:rdf="http://www.w3.org/1999/02/22-rdf-syntax-ns#" xmlns="http://www.w3.org/2000/svg" height="24" width="24" version="1.0" xmlns:cc="http://creativecommons.org/ns#" xmlns:xlink="http://www.w3.org/1999/xlink" xmlns:dc="http://purl.org/dc/elements/1.1/">
<defs>
<linearGradient id="aaaaaa" x1="11" spreadMethod="reflect" gradientUnits="userSpaceOnUse" y1="19.5" gradientTransform="translate(1,-1)" x2="21" y2="19.5">
<stop stop-color="#e5e5e5" offset="0"/>
<stop stop-color="#e5e5e5" stop-opacity=".49804" offset=".75"/>
<stop stop-color="#e5e5e5" stop-opacity="0" offset="1"/>
</linearGradient>
<linearGradient id="cccccc" y2="6.123" gradientUnits="userSpaceOnUse" y1="24.123" gradientTransform="translate(-.74004 -4.123)" x2="10.872" x1="10.872">
<stop stop-color="#76b749" offset="0"/>
<stop stop-color="#a6d08a" offset="1"/>
</linearGradient>
<linearGradient id="bbbbb" y2="-11" gradientUnits="userSpaceOnUse" x2="11.375" gradientTransform="translate(1,3)" y1="20" x1="11.375">
<stop offset="0"/>
<stop stop-opacity="0" offset="1"/>
</linearGradient>
<linearGradient id="dddddd" y2="16" gradientUnits="userSpaceOnUse" x2="10" gradientTransform="translate(1,-1)" y1="5" x1="10">
<stop stop-color="#fff" offset="0"/>
<stop stop-color="#fff" stop-opacity="0" offset="1"/>
</linearGradient>
</defs>
<g transform="translate(0,2)">
<g>
<path opacity=".3" d="m4.5 1.5c-1.097 0-2 0.903-2 2v0.5c-0.61148 0.45491-1 1.1759-1 2v14.5c0 1.385 1.115 2.5 2.5 2.5h16c1.385 0 2.5-1.115 2.5-2.5v-14.5c0-0.8656-0.429-1.6141-1.094-2.0625-0.246-0.8263-1.004-1.4375-1.906-1.4375h-7.375c-0.35-0.5678-0.912-1-1.625-1h-6z" transform="translate(0,-2)" fill="url(#bbbbb)"/>
<g>
<rect opacity=".4" rx="2" ry="2" height="16" width="20" y="5" x="2"/>
<path style="color:#000000" d="m4.5 0c-0.831 0-1.5 0.669-1.5 1.5v1 1 2c0 0.831 0.669 1.5 1.5 1.5h15c0.831 0 1.5-0.669 1.5-1.5v-3c0-0.831-0.669-1.5-1.5-1.5h-7.594c-0.203-0.58702-0.748-1-1.406-1h-6z" fill="#80bc57"/>
<path opacity=".1" style="color:#000000" d="m4 1c-0.3511 0-0.6825 0.0924-0.9688 0.25-0.0129 0.0795-0.0312 0.1667-0.0312 0.25v1 1 2c0 0.831 0.669 1.5 1.5 1.5h15c0.831 0 1.5-0.669 1.5-1.5v-3c0-0.831-0.669-1.5-1.5-1.5h-7.594-7.906z"/>
</g>
</g>
<rect rx="2" ry="2" height="18" width="20" y="2" x="2" fill="url(#cccccc)"/>
<path opacity=".2" d="m4 2c-1.108 0-2 0.892-2 2v14c0 1.108 0.892 2 2 2h16c1.108 0 2-0.892 2-2v-14c0-1.108-0.892-2-2-2zm0 1.0312h16c0.5497 0 0.96875 0.41905 0.96875 0.96875v14c0 0.5497-0.41905 0.96875-0.96875 0.96875h-16c-0.5497 0-0.9688-0.419-0.9688-0.969v-14c0-0.5497 0.4191-0.9688 0.9688-0.9688z" fill-rule="evenodd" fill="url(#dddddd)"/>
<path opacity=".2" d="m4 20c-1.108 0-2-0.892-2-2v-1c0 1.108 0.892 2 2 2h16c1.108 0 2-0.892 2-2v1c0 1.108-0.892 2-2 2z" fill-rule="evenodd" fill="url(#aaaaaa)"/>
</g>

<g transform="translate(0,2)">
<path opacity=".15" d="m9.5312 7.0938c-1.1373 0-2.2906 0.41877-3.1562 1.2812-1.7291 1.7228-1.7291 4.5585 0 6.2812 1.3716 1.3666 3.4293 1.6148 5.0938 0.8125 0.045 0.26841 0.06185 0.56967 0.34375 0.84375 0.01262 0.01227 0.01796 0.01931 0.03125 0.03125l2.0938 2.125s0.02991 0.02987 0.03125 0.03125c0.02777 0.02844 0.32555 0.29627 0.78125 0.375 0.47776 0.08254 1.1036-0.10528 1.5625-0.5625 0.45967-0.45799 0.64579-1.084 0.5625-1.5625-0.07945-0.45639-0.34658-0.75358-0.375-0.78125l-0.031-0.031-2.094-2.126c-0.01191-0.01316-0.019-0.01877-0.03125-0.03125-0.28274-0.28814-0.59795-0.27555-0.875-0.3125 0.827-1.663 0.598-3.7183-0.781-5.093-0.866-0.8625-2.019-1.2812-3.1568-1.2812zm0 3c0.80472 0 1.4688 0.65188 1.4688 1.4375s-0.66402 1.4375-1.4688 1.4375c-0.80472 0.000001-1.4375-0.6371-1.4375-1.4375 1e-7 -0.39986 0.19302-0.78767 0.4375-1.0312 0.24887-0.24796 0.56887-0.40625 1-0.40625z" transform="translate(1,-2)" fill="#fff"/>
<path id="Symbol" d="m8.0335 7.0297c-1.378 1.373-1.378 3.6015 0 4.9745 1.2013 1.1969 3.052 1.3563 4.4207 0.46636 0.23264 0.01163 0.6078 0.04364 0.74112 0.19432 0.18152 0.20516-0.07508 0.6848 0.27304 0.99749l2.165 2.1937s0.40162 0.42893 1.0272-0.19432c0.62554-0.62324 0.19503-1.0234 0.19503-1.0234l-2.165-2.1937c-0.31384-0.34684-0.79524-0.09119-1.0012-0.27204-0.15124-0.13282-0.18336-0.50661-0.19503-0.7384 0.89324-1.3637 0.73324-3.2076-0.46807-4.4045-1.378-1.373-3.6148-1.373-4.9928 0zm0.84513 0.81613c0.426-0.4244 1.0147-0.6736 1.6644-0.6736 1.2992 0 2.3534 1.0503 2.3534 2.3447s-1.0542 2.3447-2.3534 2.3447c-1.2992 0.000001-2.3534-1.0503-2.3534-2.3447 1e-7 -0.64722 0.2631-1.2467 0.68911-1.6711z" fill="#6A9E47"/>
<path opacity=".1" d="m10.531 6c-0.90369 0-1.811 0.34477-2.5 1.0312-1.378 1.373-1.378 3.5958 0 4.9688 1.2013 1.1969 3.0688 1.3587 4.4375 0.46875 0.23264 0.01163 0.58544 0.03682 0.71875 0.1875 0.18152 0.20516-0.06687 0.68731 0.28125 1l2.1562 2.1875s0.40571 0.43575 1.0312-0.1875c0.62554-0.62324 0.1875-1.0312 0.1875-1.0312l-2.155-2.187c-0.31384-0.34684-0.79408-0.06915-1-0.25-0.152-0.133-0.176-0.519-0.188-0.75 0.893-1.364 0.733-3.2098-0.469-4.4068-0.689-0.6864-1.596-1.0312-2.5-1.0312zm0 0.5625c0.76084 0 1.5128 0.29616 2.0938 0.875 0.40725 0.40576 0.63629 0.89325 0.75 1.4062-0.316-1.274-1.478-2.2187-2.844-2.2187-0.57273 1e-7 -1.1293 0.14882-1.5938 0.4375 0.48508-0.3257 1.0294-0.5 1.5938-0.5zm0 0.625c1.2992 0 2.375 1.0493 2.375 2.3438 0 1.2944-1.0758 2.3438-2.375 2.3438-1.2989 0-2.3435-1.049-2.3435-2.3438 0-0.6472 0.2615-1.263 0.6875-1.6874 0.426-0.4245 1.0067-0.6563 1.656-0.6563zm-2.0938 0.25c0.0064-0.0064 0.02478 0.00633 0.03125 0-0.5367 0.5351-0.8434 1.2952-0.8434 2.0937 0 0.7983 0.3176 1.5357 0.84375 2.0625 0.26308 0.26339 0.59004 0.47735 0.9375 0.625-0.34498-0.14192-0.65627-0.3497-0.9375-0.625-0.0063-0.0062-0.02498 0.0063-0.03125 0-1.1633-1.159-1.1633-2.9972 0-4.1562zm4.7812 3.2188c-0.06676 0.15627-0.09239 0.32354-0.1875 0.46875a0.56171 0.56171 0 0 0 -0.09375 0.34375c0.006 0.12007 0.02674 0.27732 0.0625 0.46875 0.0033 0.0177 0.02792 0.04415 0.03125 0.0625-0.01941-0.004-0.04387-0.02755-0.0625-0.03125-0.185-0.037-0.345-0.057-0.467-0.063a0.56171 0.56171 0 0 0 -0.344 0.094c-0.15755 0.10244-0.32886 0.14944-0.5 0.21875 0.70077-0.29388 1.2621-0.86721 1.5625-1.5625zm0.59375 2.1562c0.0076 0.000589 0.02407-0.000438 0.03125 0 0.13724 0.0084 0.24122 0.0013 0.3125 0 0.14255-0.0027 0.11375-0.01244 0.125 0a0.56171 0.56171 0 0 0 0 0.03125l2.1562 2.1875c0.0054 0.004 0.01759 0.01441-0.1875 0.21875-0.20552 0.20477-0.21447 0.19275-0.21875 0.1875l-2.156-2.186a0.56171 0.56171 0 0 0 -0.03125 0c-0.01789-0.01607-0.02806-0.01244-0.03125-0.15625-0.0016-0.0719 0.01306-0.14695 0-0.28125z"/>
<path opacity=".2" d="m10.531 6c-0.90369 0-1.811 0.34477-2.5 1.0312-0.81984 0.81683-1.1557 1.9378-1 3 0.10229-0.73134 0.43595-1.438 1-2 1.378-1.373 3.622-1.373 5 0 0.575 0.5729 0.872 1.2856 0.969 2.0308 0.169-1.0728-0.138-2.2034-0.969-3.0308-0.689-0.6864-1.596-1.0312-2.5-1.0312zm-2.281 4.031c-0.03132 0.15385-0.0625 0.3382-0.0625 0.5 0 1.2944 1.0446 2.3438 2.3438 2.3438s2.375-1.0493 2.375-2.3438c0-0.1618-0.03114-0.3474-0.0625-0.5-0.23106 1.0531-1.1864 1.8438-2.3125 1.8438-1.1261 0.000001-2.0502-0.7906-2.2812-1.8438zm5.4062 2.0938c-0.05377 0.10369-0.09137 0.21345-0.15625 0.3125 0.01167 0.2318 0.03627 0.61718 0.1875 0.75 0.20592 0.18085 0.68616-0.09684 1 0.25l2.063 2.093c0.456-0.552 0.094-0.906 0.094-0.906l-2.156-2.187c-0.31384-0.34684-0.79408-0.06915-1-0.25-0.01446-0.0127-0.01888-0.04574-0.03125-0.0625z"/>
<path opacity=".15" d="m10.531 9.1875c-0.6493 0-1.23 0.2318-1.656 0.6563-0.426 0.4242-0.6875 1.0402-0.6875 1.6872 0 0.162 0.0311 0.316 0.0625 0.469 0.0976-0.449 0.3125-0.845 0.625-1.156 0.426-0.425 1.0067-0.656 1.656-0.656 1.126 0 2.082 0.759 2.313 1.812 0.031-0.153 0.062-0.307 0.062-0.469 0-1.294-1.076-2.3435-2.375-2.3435zm-3.4998 2.8435c-0.1476 1.056 0.1861 2.158 1 2.969 1.2014 1.197 3.0688 1.359 4.4378 0.469 0.232 0.011 0.585 0.037 0.719 0.187 0.181 0.205-0.067 0.688 0.281 1l2.156 2.188s0.406 0.435 1.031-0.188c0.626-0.623 0.188-1.031 0.188-1.031l-0.094-0.094c-0.033 0.04-0.051 0.083-0.094 0.125-0.625 0.623-1.031 0.188-1.031 0.188l-2.156-2.188c-0.348-0.312-0.1-0.795-0.281-1-0.134-0.15-0.487-0.176-0.719-0.187-1.369 0.89-3.2364 0.728-4.4378-0.469-0.5581-0.556-0.894-1.246-1-1.969zm6.9688 0.031c-0.075 0.48-0.224 0.954-0.5 1.376 0.011 0.209 0.039 0.528 0.156 0.687 0.332-0.641 0.435-1.363 0.344-2.063z" transform="translate(0,-2)" fill="#fff"/>
</g></svg>