<svg xmlns:rdf="http://www.w3.org/1999/02/22-rdf-syntax-ns#" xmlns="http://www.w3.org/2000/svg" height="24" width="24" version="1.0" xmlns:cc="http://creativecommons.org/ns#" xmlns:xlink="http://www.w3.org/1999/xlink" xmlns:dc="http://purl.org/dc/elements/1.1/">
<defs>
<linearGradient id="aaaaaa" x1="11" spreadMethod="reflect" gradientUnits="userSpaceOnUse" y1="19.5" gradientTransform="translate(1,-1)" x2="21" y2="19.5">
<stop stop-color="#e5e5e5" offset="0"/>
<stop stop-color="#e5e5e5" stop-opacity=".49804" offset=".75"/>
<stop stop-color="#e5e5e5" stop-opacity="0" offset="1"/>
</linearGradient>
<linearGradient id="cccccc" y2="6.123" gradientUnits="userSpaceOnUse" y1="24.123" gradientTransform="translate(-.74004 -4.123)" x2="10.872" x1="10.872">
<stop stop-color="#76b749" offset="0"/>
<stop stop-color="#a6d08a" offset="1"/>
</linearGradient>
<linearGradient id="bbbbb" y2="-11" gradientUnits="userSpaceOnUse" x2="11.375" gradientTransform="translate(1,3)" y1="20" x1="11.375">
<stop offset="0"/>
<stop stop-opacity="0" offset="1"/>
</linearGradient>
<linearGradient id="dddddd" y2="16" gradientUnits="userSpaceOnUse" x2="10" gradientTransform="translate(1,-1)" y1="5" x1="10">
<stop stop-color="#fff" offset="0"/>
<stop stop-color="#fff" stop-opacity="0" offset="1"/>
</linearGradient>
</defs>
<g transform="translate(0,2)">
<g>
<path opacity=".3" d="m4.5 1.5c-1.097 0-2 0.903-2 2v0.5c-0.61148 0.45491-1 1.1759-1 2v14.5c0 1.385 1.115 2.5 2.5 2.5h16c1.385 0 2.5-1.115 2.5-2.5v-14.5c0-0.8656-0.429-1.6141-1.094-2.0625-0.246-0.8263-1.004-1.4375-1.906-1.4375h-7.375c-0.35-0.5678-0.912-1-1.625-1h-6z" transform="translate(0,-2)" fill="url(#bbbbb)"/>
<g>
<rect opacity=".4" rx="2" ry="2" height="16" width="20" y="5" x="2"/>
<path style="color:#000000" d="m4.5 0c-0.831 0-1.5 0.669-1.5 1.5v1 1 2c0 0.831 0.669 1.5 1.5 1.5h15c0.831 0 1.5-0.669 1.5-1.5v-3c0-0.831-0.669-1.5-1.5-1.5h-7.594c-0.203-0.58702-0.748-1-1.406-1h-6z" fill="#80bc57"/>
<path opacity=".1" style="color:#000000" d="m4 1c-0.3511 0-0.6825 0.0924-0.9688 0.25-0.0129 0.0795-0.0312 0.1667-0.0312 0.25v1 1 2c0 0.831 0.669 1.5 1.5 1.5h15c0.831 0 1.5-0.669 1.5-1.5v-3c0-0.831-0.669-1.5-1.5-1.5h-7.594-7.906z"/>
</g>
</g>
<rect rx="2" ry="2" height="18" width="20" y="2" x="2" fill="url(#cccccc)"/>
<path opacity=".2" d="m4 2c-1.108 0-2 0.892-2 2v14c0 1.108 0.892 2 2 2h16c1.108 0 2-0.892 2-2v-14c0-1.108-0.892-2-2-2zm0 1.0312h16c0.5497 0 0.96875 0.41905 0.96875 0.96875v14c0 0.5497-0.41905 0.96875-0.96875 0.96875h-16c-0.5497 0-0.9688-0.419-0.9688-0.969v-14c0-0.5497 0.4191-0.9688 0.9688-0.9688z" fill-rule="evenodd" fill="url(#dddddd)"/>
<path opacity=".2" d="m4 20c-1.108 0-2-0.892-2-2v-1c0 1.108 0.892 2 2 2h16c1.108 0 2-0.892 2-2v1c0 1.108-0.892 2-2 2z" fill-rule="evenodd" fill="url(#aaaaaa)"/>
</g>

<defs>
<linearGradient id="b" y2="85.068" gradientUnits="userSpaceOnUse" x2="45.036" gradientTransform="matrix(.175 0 0 .175 1.8 2.0846)" y1="-3.5624" x1="45.036">
<stop stop-opacity=".56911" offset="0"/>
<stop stop-opacity="0" offset=".070175"/>
<stop stop-color="#750202" stop-opacity=".090196" offset=".20272"/>
<stop stop-color="#e47b04" stop-opacity=".13725" offset=".26649"/>
<stop stop-color="#ffc906" stop-opacity=".18431" offset=".35025"/>
<stop stop-color="#b76403" stop-opacity=".13725" offset="0.439"/>
<stop stop-color="#700000" stop-opacity=".090196" offset=".49777"/>
<stop stop-color="#fda100" stop-opacity=".19216" offset=".65896"/>
<stop stop-color="#7c0000" stop-opacity=".60976" offset="1"/>
</linearGradient>
<linearGradient id="a" y2="21.848" gradientUnits="userSpaceOnUse" y1="33.312" x2="44.748" x1="45.087">
<stop stop-color="#ffc700" offset="0"/>
<stop stop-color="#ffdf6f" offset="1"/>
</linearGradient>
</defs>
<g transform="translate(0,2)">
<g>
<path opacity=".05" d="m7.5312 0.99414c-0.80843 0-1.4746 0.66618-1.4746 1.4746v14.9c-0.00477 0.35409 0.21039 0.70347 0.5293 0.85742 0.31891 0.15396 0.72375 0.10484 0.99805-0.11914a0.38129 0.38129 0 0 0 0.00586 -0.0039l4.3809-3.6992 4.4414 3.7012a0.38129 0.38129 0 0 0 0.0039 0.002c0.2743 0.22398 0.67914 0.2731 0.99805 0.11914s0.53407-0.50333 0.5293-0.85742v-14.9c0-0.39876-0.15554-0.76871-0.41602-1.043-0.223-0.2354-0.529-0.3351-0.847-0.3674a0.38129 0.38129 0 0 0 -0.211 -0.06446h-0.09375-6.375-2.4688z"/>
<path opacity=".1" d="m7.5312 1.3828c-0.59673 0-1.0859 0.4892-1.0859 1.0859v14.906a0.55517 0.55517 0 0 0 0.91211 0.42383l4.6133-3.8867 4.6738 3.8887a0.55517 0.55517 0 0 0 0.911 -0.426v-14.906c0-0.30054-0.11419-0.56669-0.31055-0.77344s-0.51526-0.35984-0.85938-0.30664l0.08398-0.00586h-6.4688-2.4688z"/>
<path opacity=".3" d="m7.5312 1.9375c-0.2908 0-0.5312 0.2404-0.5312 0.5313v14.906l4.969-4.187 5.031 4.187v-14.906c0-0.2911-0.244-0.5759-0.531-0.5315h-6.469z"/>
</g>
<path d="m7.5312 1.4375c-0.2908 0-0.5312 0.2404-0.5312 0.5313v14.906l5.031-4.187 4.969 4.187v-14.906c0-0.2911-0.262-0.6407-0.531-0.5315h-2.469z" fill="#a00"/>
<path d="m8 1.4322v13.63l4.0312-3.3641 4 3.3641v-13.63z" fill="#ffa800"/>
<path d="m8.5 1.4326v12.556l3.5312-2.9098 3.5 2.9098v-12.556z" fill="#d40000"/>
<path d="m7.5312 1.4375c-0.2908 0-0.5312 0.2404-0.5312 0.5313v14.906l4.969-4.187 5.031 4.187v-14.906c0-0.2911-0.244-0.5759-0.531-0.5315h-6.469z" fill="url(#b)"/>
<path opacity=".4" style="color:#000000" d="m44.715 19.084a0.91677 0.91677 0 0 0 -0.78711 0.50977l-2.7051 5.4707-5.9961 1.1934a0.91677 0.91677 0 0 0 -0.46289 1.5527l4.3672 4.2793-0.69726 6.0547a0.91677 0.91677 0 0 0 1.3398 0.91602l5.3809-2.8516 5.5566 2.5605a0.91677 0.91677 0 0 0 1.2871 -0.98438l-1.0195-6.0254 4.1328-4.4824a0.91677 0.91677 0 0 0 -0.54297 -1.5293l-6.0508-0.87109-2.9668-5.3242a0.91677 0.91677 0 0 0 -0.83594 -0.46875z" transform="matrix(.41780 .012331 -.012331 .41780 -6.4342 -5.4001)" fill="#a00"/>
<path style="color:#000000" d="m51.088 37.934-5.9515-2.7353-5.8002 3.043 0.76233-6.5055-4.6865-4.5759 6.4226-1.2853 2.9038-5.8711 3.2071 5.7111 6.4811 0.94739-4.4406 4.8149z" transform="matrix(.41780 .012331 -.012331 .41780 -6.4342 -5.4001)" fill="url(#a)"/>
</g></svg>