
<svg width="22" height="22" version="1.1" xmlns="http://www.w3.org/2000/svg">
	<path fill="#bebebe" d="m11 3c-4.4183 0-8 3.5817-8 8 0 4.418 3.5817 8 8 8 4.418 0 8-3.582 8-8 0-4.4183-3.582-8-8-8zm0 3.2812c1.249-0.0542 2.178 0.2832 2.844 0.875 0.665 0.5919 1.08 1.4474 1.156 2.5313 0.084 1.1875-0.06 1.8945-0.188 2.4065-0.063 0.256-0.125 0.472-0.156 0.687-0.03 0.216-0.017 0.475 0.125 0.688 0.146 0.217 0.158 0.365 0.157 0.437-0.002 0.073 0.015 0.135-0.063 0.219-0.156 0.168-0.565 0.367-0.937 0.656-0.087 0.068-0.287 0.101-0.5 0.063-0.214-0.038-0.408-0.169-0.532-0.313a0.38044 0.38044 0 0 0 -0.125 -0.062c-0.329-0.179-0.603-0.262-0.875-0.219s-0.461 0.171-0.625 0.281c-0.324 0.218-0.686 0.462-1.8122 0.469h-0.0313c-1.0916-0.051-2.1012-0.817-2.375-1.781-0.2304-0.812-0.1592-1.449 0.1563-1.969 0.3154-0.52 0.9104-0.96 1.875-1.25 0.2089-0.0628 0.6477-0.0845 1.0942-0.125 0.445-0.0405 0.896-0.049 1.281-0.3125 0.334-0.2291 0.53-0.6447 0.406-1s-0.446-0.5521-0.844-0.5937c-0.503-0.0527-1.0829 0.0014-1.6248 0.0624-0.5418 0.0611-1.0723 0.1189-1.375 0.0626-0.1111-0.0207-0.2275-0.1738-0.2812-0.4376-0.0537-0.2637 0.028-0.5417 0.125-0.6562 0.2351-0.2774 0.7385-0.499 1.3438-0.5938 0.6052-0.0947 1.2762-0.1031 1.7812-0.125zm0.156 4.4998c-0.728 0-1.3748 0.536-1.3748 1.25 0 0.715 0.6468 1.25 1.3748 1.25s1.344-0.546 1.344-1.25c0-0.703-0.616-1.25-1.344-1.25z"/>
</svg>
