
<svg width="22" height="22" version="1.1" xmlns="http://www.w3.org/2000/svg">
	<path fill="#bebebe" d="m4.9688 12v2.9062c0 2.7891 1.1054 5.0625 2.5 5.0625h7.0312c1.2088 0 2.1948-1.6972 2.4375-3.9688l1.562 0.001c0.277 0 0.5-0.223 0.5-0.5v-3c0-0.277-0.223-0.5-0.5-0.5h-1.5-1.5-10.531zm12.031 1h0.5c0.277 0 0.5 0.223 0.5 0.5v1c0 0.277-0.223 0.5-0.5 0.5h-0.5c0.000282-0.03144 0-0.06217 0-0.09375v-1.906z"/>
	<path opacity=".45" fill="#bebebe" d="m10.688 0.90625c-1.4636 2.4512-1.9033 3.6586-1.3755 5.2188 0.47845 1.4143 1.7155 2.1355 1.0938 5.4062 1.0211-1.5936 1.8331-3.6174 1.0312-5.25-0.81557-1.6605-1.2628-2.6692-0.75-5.375zm3.6562 3.25c-1.179 1.7442-1.464 2.7478-0.938 3.9688 0.536 1.2432 1.111 1.4073 0.406 3.219 1.3-1.4653 1.379-2.4584 0.844-3.594-0.546-1.1584-1.09-1.5472-0.312-3.5938zm-7.2815 0.3126c-0.9642 1.6559-1.2719 2.4566-0.9063 3.5 0.3315 0.9458 1.1749 1.4563 0.7813 3.6562 1.2079-1.524 1.1598-2.6294 0.625-3.5938-0.5214-0.9401-0.8246-1.7426-0.5-3.5624z"/>
</svg>
