
<svg width="22" height="22" version="1.1" xmlns="http://www.w3.org/2000/svg">
	<path fill="#bebebe" d="m12.271 3.0039c-3.3278-0.0863-6.5085 1.8296-7.8999 4.8731-1.7746 3.881-0.1435 8.698 3.791 10.478 3.5677 1.6151 7.9877 0.10922 9.6055-3.5176 1.4536-3.2589 0.07211-7.2917-3.2422-8.748-0.831-0.3646-1.71-0.4776-2.584-0.4542l-0.32617 2.5879c0.57674-0.077077 1.1664-0.066214 1.7266 0.15039 2.075 0.8023 2.9595 3.2653 2.1445 5.2773-0.966 2.387-3.8172 3.3978-6.1406 2.4238-2.6944-1.131-3.8269-4.3777-2.6934-7.0137 0.928-2.1575 3.0692-3.3664 5.2889-3.4257l0.33008-2.6309zm-0.65625 5.2188c-1.172 0.1567-2.2569 0.8387-2.6834 2.0233-0.4994 1.388 0.13976 3.0769 1.5977 3.5449 1.0728 0.3447 2.3824-0.17312 2.6777-1.3242 0.1943-0.7569-0.20526-1.7023-1.0488-1.8125-0.43156-0.05637-0.85655 0.16112-0.94531 0.77539l0.40234-3.207z"/>
</svg>
