<svg width="22" height="22" version="1.1" xmlns="http://www.w3.org/2000/svg">
	<path d="m11 1-2 4h4l-2-4zm-7.0703 2.9297 1.4141 4.2422 2.8281-2.8281-4.2422-1.4141zm14.141 0-4.2422 1.4141 2.8281 2.8281 1.4141-4.2422zm-7.0703 3.0703a4 4 0 0 0-4 4 4 4 0 0 0 4 4 4 4 0 0 0 4-4 4 4 0 0 0-4-4zm-6 2-4 2 4 2v-4zm6 0a2 2 0 0 1 2 2 2 2 0 0 1-2 2 2 2 0 0 1-2-2 2 2 0 0 1 2-2zm6 0v4l4-2-4-2zm-11.656 4.8281-1.4141 4.2422 4.2422-1.4141-2.8281-2.8281zm11.312 0-2.8281 2.8281 4.2422 1.4141-1.4141-4.2422zm-7.6562 3.1719 2 4 2-4h-4z" fill="#bebebe"/>
</svg>
