
<svg width="22" height="22" version="1.1" xmlns="http://www.w3.org/2000/svg">
	<path d="M 17.03125 3 L 17.03125 8.9375 C 17.03125 10.608628 16.702377 10.96875 15.03125 10.96875 L 11.0625 10.96875 L 11.0625 8 L 6 12 L 11.0625 16 L 11.0625 13 L 16.0625 13 C 17.724501 13 19.0625 11.662 19.0625 10 L 19.0625 3 L 17.03125 3 z M 4.5 4 C 3.669 4 3 4.669 3 5.5 L 3 17.5 C 3 18.331 3.669 19 4.5 19 L 13.5 19 C 13.603875 19 13.714678 18.98867 13.8125 18.96875 C 14.497256 18.829338 15 18.227125 15 17.5 L 15 14 L 13 14 L 13 16.5 C 13 16.777 12.777 17 12.5 17 L 5.5625 17 C 5.2855 17 5.0625 16.777 5.0625 16.5 L 5.0625 6.5 C 5.0625 6.223 5.2855 6 5.5625 6 L 12.5 6 C 12.777 6 13 6.223 13 6.5 L 13 10 L 15 10 L 15 5.5 C 15 4.669 14.331 4 13.5 4 L 4.5 4 z " fill="#bebebe"/>

</svg>
