
<svg width="22" height="22" version="1.1" xmlns="http://www.w3.org/2000/svg">
	<path d="M 4.5 2 C 3.669 2 3 2.669 3 3.5 L 3 18.5 C 3 19.331 3.669 20 4.5 20 L 17.5 20 C 18.331 20 19 19.331 19 18.5 L 19 3.5 C 19 2.669 18.331 2 17.5 2 L 4.5 2 z M 5.5 4 L 16.5 4 C 16.777 4 17 4.223 17 4.5 L 17 17.5 C 17 17.777 16.777 18 16.5 18 L 5.5 18 C 5.223 18 5 17.777 5 17.5 L 5 4.5 C 5 4.223 5.223 4 5.5 4 z M 7 6 L 7 8 L 9 8 L 9 6 L 7 6 z M 10 6 L 10 8 L 15 8 L 15 6 L 10 6 z M 7 10 L 7 12 L 9 12 L 9 10 L 7 10 z M 10 10 L 10 12 L 15 12 L 15 10 L 10 10 z M 7 14 L 7 16 L 9 16 L 9 14 L 7 14 z M 10 14 L 10 16 L 15 16 L 15 14 L 10 14 z " fill="#bebebe"/>

</svg>
