
<svg width="22" height="22" version="1.1" xmlns="http://www.w3.org/2000/svg">
	<path d="M 6.5 3.0625 L 2 6.4375 L 6.5 9.8125 L 2 13.1875 L 11 19.9375 L 20 13.1875 L 15.5 9.8125 L 20 6.4375 L 15.5 3.0625 L 11 6.4375 L 6.5 3.0625 z M 11 8 C 13.209139 8 15 9.790861 15 12 C 15 14.209139 13.209139 16 11 16 L 11 14.25 C 12.24195 14.25 13.25 13.24195 13.25 12 C 13.25 10.75805 12.24195 9.75 11 9.75 C 9.75805 9.75 8.75 10.75805 8.75 12 L 10.84375 12 L 9.4375 13.84375 L 8.03125 15.6875 L 6.625 13.84375 L 5.1875 12 L 7 12 C 7 9.790861 8.790861 8 11 8 z " fill="#bebebe"/>


</svg>
