
<svg width="22" height="22" version="1.1" xmlns="http://www.w3.org/2000/svg">
	<path d="M 7.5,2 C 6.669,2 6,2.669 6,3.5 L 6,15.5 C 6,16.331 6.669,17 7.5,17 L 16.5,17 C 17.331,17 18,16.331 18,15.5 L 18,3.5 C 18,2.669 17.331,2 16.5,2 L 7.5,2 z M 8.5,4 L 15.5,4 C 15.777,4 16,4.223 16,4.5 L 16,14.5 C 16,14.777 15.777,15 15.5,15 L 8.5,15 C 8.223,15 8,14.777 8,14.5 L 8,4.5 C 8,4.223 8.223,4 8.5,4 z M 4.5,5 C 3.669,5 3,5.669 3,6.5 L 3,18.5 C 3,19.331 3.669,20 4.5,20 L 13.5,20 C 14.331,20 15,19.331 15,18.5 L 15,18 L 12.5,18 L 5.5,18 C 5.223,18 5,17.777 5,17.5 L 5,7.5 L 5,5 L 4.5,5 z" fill="#bebebe"/>

</svg>
