<svg width="22" height="22" version="1.1" xmlns="http://www.w3.org/2000/svg">
	<path d="m3.5 2c-0.831 0-1.5 0.669-1.5 1.5v15c0 0.831 0.669 1.5 1.5 1.5h13c0.831 0 1.5-0.669 1.5-1.5v-8.5a1.0001 1.0001 0 0 1 -1 1h-1v6.5c0 0.277-0.223 0.5-0.5 0.5h-11c-0.277 0-0.5-0.223-0.5-0.5v-13c0-0.277 0.223-0.5 0.5-0.5h6.8809l0.78906-1.3652a1.0001 1.0001 0 0 1 1.3652 -0.36523l0.46484 0.26758v-0.53711h-10.5zm11.5 0v2.2695l-1.9648-1.1348-1 1.7305 1.9668 1.1348-1.9668 1.1348 1 1.7305 1.9648-1.1348v2.2695h2v-2.2695l1.9648 1.1348 1-1.7305-1.9668-1.1348 1.9668-1.1348-1-1.7305-1.9648 1.1348v-2.2695h-2zm-9 4v2h5.3809l-0.21094-0.36523a1.0001 1.0001 0 0 1 0.36523 -1.3652l0.4668-0.26953h-6.002zm0 4v2h8v-2h-8zm0 4v2h8v-2h-8z" fill="#bebebe"/>
</svg>
