<svg width="22" height="22" version="1.1" xmlns="http://www.w3.org/2000/svg">
	<path d="m11 3a8 8 0 0 0-8 8 8 8 0 0 0 0.019531 0.54492c1.626-1.5558 3.2852-2.3434 4.8926-2.5098 1.8598-0.19254 3.5547 0.43199 4.9844 1.3047 1.4297 0.87269 2.6327 2.0025 3.6016 2.957 0.67589 0.66585 1.204 1.1524 1.5586 1.4668a8 8 0 0 0 0.94336-3.7637 8 8 0 0 0-8-8zm3 3a2 2 0 0 1 2 2 2 2 0 0 1-2 2 2 2 0 0 1-2-2 2 2 0 0 1 2-2zm-5.3965 4.998c-0.16038-2.84e-4 -0.32232 0.008614-0.48438 0.025391-1.2964 0.13421-2.7417 0.82024-4.375 2.6445l-0.20312 0.22656a8 8 0 0 0 7.459 5.1055 8 8 0 0 0 5.8535-2.5625c-0.57147-0.45265-1.0808-1.0479-1.7578-1.7148-0.93737-0.92344-2.0469-1.9461-3.2422-2.6758-1.0459-0.63844-2.1273-1.0468-3.25-1.0488z" fill="#bebebe"/>
</svg>
