
<svg width="22" height="22" version="1.1" xmlns="http://www.w3.org/2000/svg">
	<path d="M 10.90625,5 C 10.271995,5.0000117 9.6069808,5.0827073 8.9375,5.21875 8.268011,5.3480131 7.5867658,5.5159551 6.875,5.78125 l 0,1.75 C 7.4669634,7.2183342 8.0774496,6.9689724 8.71875,6.8125 9.3600415,6.6560472 10.010962,6.5937601 10.6875,6.59375 c 1.064123,1.01e-5 1.883823,0.2425695 2.46875,0.71875 0.591958,0.4693967 0.90624,1.136063 0.90625,2 l 0,0.1875 -2.75,0 C 9.5436425,9.500007 8.2387425,9.815696 7.34375,10.46875 6.4557986,11.121816 5.999999,12.08929 6,13.375 c -1e-6,1.102042 0.350729,1.996387 1.0625,2.65625 C 7.7813123,16.684311 8.7566244,17 9.96875,17 c 0.958417,0 1.775054,-0.173469 2.4375,-0.5 0.662429,-0.333333 1.212266,-0.837371 1.65625,-1.53125 L 14.0625,17 16,17 16,10.1875 C 15.999989,8.446012 15.564405,7.1384024 14.71875,6.28125 13.873074,5.4241184 12.618715,5.0000117 10.90625,5 z m 1.21875,5.96875 1.9375,0 0,0.40625 c -10e-6,1.224495 -0.344618,2.196006 -1,2.9375 -0.648352,0.734694 -1.515532,1.125002 -2.59375,1.125 C 9.6865024,15.437502 9.0830647,15.231506 8.625,14.84375 8.1739748,14.449193 7.9374969,13.91667 7.9375,13.25 c -3.1e-6,-0.836729 0.3001859,-1.434308 0.90625,-1.78125 0.6060558,-0.346938 1.709714,-0.499995 3.28125,-0.5 z M 6,19 l 0,2 10,0 0,-2 -10,0 z" fill="#bebebe"/>

</svg>
