
<svg width="22" height="22" version="1.1" xmlns="http://www.w3.org/2000/svg">
	<path d="M 5 3 C 3.892 3 3 3.892 3 5 L 3 17 C 3 18.108 3.892 19 5 19 L 17 19 C 18.108 19 19 18.108 19 17 L 19 5 C 19 3.892 18.108 3 17 3 L 5 3 z M 5.5625 5.0625 L 16.5 5.0625 C 16.777 5.0625 17 5.2855 17 5.5625 L 17 13.34375 L 11.21875 9.75 L 14.03125 8.09375 L 6.96875 6.875 L 8.03125 14.1875 L 9.71875 11.1875 L 13.375 17 L 5.5625 17 C 5.2855 17 5.0625 16.777 5.0625 16.5 L 5.0625 5.5625 C 5.0625 5.2855 5.2855 5.0625 5.5625 5.0625 z " fill="#bebebe"/>
</svg>
