
<svg width="22" height="22" version="1.1" xmlns="http://www.w3.org/2000/svg">
	<path d="M 3.5 3 C 2.669 3 2 3.669 2 4.5 L 2 17.5 C 2 18.331 2.669 19 3.5 19 L 18.5 19 C 19.331 19 20 18.331 20 17.5 L 20 4.5 C 20 3.669 19.331 3 18.5 3 L 3.5 3 z M 10.1875 5.15625 L 11.8125 5.15625 C 12.042921 5.15625 12.21875 5.3281418 12.21875 5.5625 L 12.21875 6.40625 C 12.63076 6.5160254 13.046048 6.6655105 13.40625 6.875 L 13.96875 6.28125 C 14.134467 6.1155334 14.399567 6.1182973 14.5625 6.28125 L 15.71875 7.4375 C 15.881682 7.6004355 15.884457 7.8655316 15.71875 8.03125 L 15.125 8.59375 C 15.334491 8.9539514 15.483974 9.3692393 15.59375 9.78125 L 16.4375 9.78125 C 16.671863 9.78125 16.84375 9.9570795 16.84375 10.1875 L 16.84375 11.8125 C 16.84375 12.042923 16.671861 12.21875 16.4375 12.21875 L 15.59375 12.21875 C 15.483975 12.630759 15.33449 13.046047 15.125 13.40625 L 15.71875 13.96875 C 15.8016 14.05161 15.842843 14.174021 15.84375 14.28125 C 15.84467 14.388478 15.800211 14.481034 15.71875 14.5625 L 14.5625 15.71875 C 14.399566 15.881683 14.134469 15.884459 13.96875 15.71875 L 13.40625 15.125 C 13.046049 15.334492 12.630761 15.483972 12.21875 15.59375 L 12.21875 16.4375 C 12.21875 16.671865 12.042922 16.84375 11.8125 16.84375 L 10.1875 16.84375 C 9.9570785 16.84375 9.78125 16.671862 9.78125 16.4375 L 9.78125 15.59375 C 9.3692385 15.483951 8.9539506 15.334489 8.59375 15.125 L 8.03125 15.71875 C 7.8655318 15.884467 7.600433 15.881692 7.4375 15.71875 L 6.28125 14.5625 C 6.1183171 14.399568 6.1155367 14.134468 6.28125 13.96875 L 6.875 13.40625 C 6.6655106 13.046047 6.5160262 12.630759 6.40625 12.21875 L 5.5625 12.21875 C 5.3281384 12.21875 5.15625 12.042923 5.15625 11.8125 L 5.15625 10.1875 C 5.15625 9.9570772 5.3281384 9.78125 5.5625 9.78125 L 6.40625 9.78125 C 6.5160262 9.3692393 6.6655106 8.9539514 6.875 8.59375 L 6.28125 8.03125 C 6.1155324 7.8655334 6.1183128 7.600433 6.28125 7.4375 L 7.4375 6.28125 C 7.6004338 6.1183186 7.8655333 6.1155568 8.03125 6.28125 L 8.59375 6.875 C 8.9539506 6.6655105 9.3692385 6.5160254 9.78125 6.40625 L 9.78125 5.5625 C 9.7812475 5.3281418 9.9570772 5.15625 10.1875 5.15625 z M 11 9.21875 C 10.022897 9.21875 9.21875 10.0229 9.21875 11 C 9.21875 11.977102 10.022897 12.78125 11 12.78125 C 11.977101 12.78125 12.78125 11.977102 12.78125 11 C 12.78125 10.022898 11.977101 9.21875 11 9.21875 z " fill="#bebebe"/>
</svg>
