
<svg width="22" height="22" version="1.1" xmlns="http://www.w3.org/2000/svg">
	<path fill="#bebebe" d="m5.5625 6.0005c-1.1875 3.3347-2.375 6.6695-3.5625 10.004h2.3438c0.25-0.79026 0.5-1.5805 0.75-2.3708h3.8125c0.25 0.79026 0.5 1.5805 0.75 2.3708h2.3438c-1.198-3.334-2.3958-6.6688-3.5938-10.004h-2.8438zm7.4375 0c0 3.3 0.000004 6.6834 0.000004 9.9834h1.6562c0.125-0.26053 0.25-0.60443 0.375-0.86495 0.53358 0.28818 1.0337 0.91699 1.7601 0.89185 1.2439 0.19873 2.5294-0.59874 2.8788-1.8149 0.35512-1.1073 0.35269-2.3289 0.07984-3.4538-0.271-1.1514-1.3024-2.1399-2.5312-2.0842-0.8045-0.03063-1.7401 0.32407-2.1737 1.0143-0.02964-1.2065-0.0278-2.4437-0.02779-3.6717h-2.0173zm-6 1.4068c0.44792 1.485 0.89583 2.97 1.3438 4.455h-2.6875c0.4479-1.485 0.8958-2.9697 1.3437-4.4547zm9.5 2.7876c0.85581-0.03604 1.1958 0.91284 1.2296 1.6197 0.03541 0.82667 0.06706 1.8107-0.5627 2.4392-0.65904 0.5042-1.7124 0.08032-1.8757-0.72711-0.20137-0.84422-0.18992-1.7583 0.04698-2.5951 0.14333-0.50282 0.673-0.74598 1.1618-0.73675z"/>
</svg>
