
<svg width="22" height="22" version="1.1" xmlns="http://www.w3.org/2000/svg">
	<path fill="#bebebe" d="m11 3.0938c-4.9706 0-9 3.2769-9 7.3442 0 2.59 1.6221 4.874 4.0938 6.187-0.094 0.684-0.505 2.365-2.5313 2.937 2.6244 0.286 4.356-1.002 5.2813-1.968 0.6882 0.138 1.4162 0.218 2.1562 0.218 4.971 0 9-3.308 9-7.374 0-4.0673-4.029-7.3442-9-7.3442zm0.406 2.1874c0.886 0.0001 1.63 0.2489 2.25 0.7188 0.673 0.5143 1 1.2025 1 2.0625 0 0.665-0.186 1.24-0.594 1.7187-0.123 0.1596-0.505 0.4808-1.124 0.9688-0.408 0.328-0.626 0.623-0.626 0.906v0.469h-2.437v-0.75c0-0.505 0.173-0.972 0.563-1.4062 0.008-0.0178 0.385-0.3617 1.093-1 0.39-0.3458 0.594-0.645 0.594-0.9376 0-0.195-0.099-0.3758-0.25-0.5-0.151-0.1329-0.328-0.1874-0.531-0.1874-0.266 0-0.461 0.0861-0.594 0.2812s-0.196 0.4439-0.188 0.7188h-2.3745v-0.2188c0-0.8778 0.3222-1.5706 0.9687-2.0938 0.5934-0.4876 1.3558-0.7499 2.2498-0.75zm-0.281 7.8748c0.399 0 0.721 0.118 0.969 0.375 0.257 0.257 0.375 0.601 0.375 1s-0.118 0.721-0.375 0.969c-0.248 0.257-0.57 0.375-0.969 0.375s-0.712-0.118-0.969-0.375c-0.2477-0.248-0.3748-0.57-0.3748-0.969s0.1271-0.743 0.3748-1c0.257-0.257 0.57-0.375 0.969-0.375z"/>
</svg>
