
<svg width="22" height="22" version="1.1" xmlns="http://www.w3.org/2000/svg">
	<path d="M 11 1.96875 C 7.6756265 1.96875 5 4.6443765 5 7.96875 C 5 10.877576 7.0420478 13.311436 9.78125 13.875 L 9.875 15 L 8 15 L 8 17 L 10.0625 17 L 10.3125 20 L 11.625 20 L 11.90625 17 L 14 17 L 14 15 L 12.125 15 L 12.21875 13.875 C 14.963933 13.311436 17.03125 10.877576 17.03125 7.96875 C 17.03125 4.6443765 14.324373 1.96875 11 1.96875 z M 11 3 C 12.855196 3 14.375 5.2408044 14.375 8 C 14.375 10.759196 12.855196 13 11 13 C 9.1448036 13 7.65625 10.759196 7.65625 8 C 7.65625 5.2408044 9.1448036 3 11 3 z " fill="#bebebe"/>
</svg>
