
<svg width="22" height="22" version="1.1" xmlns="http://www.w3.org/2000/svg">
	<path d="M 3.5,5 C 3.3511125,5 3.1980709,5.0224652 3.0625,5.0625 2.7251491,5.1621214 2.4419104,5.3717178 2.25,5.65625 2.1836385,5.7546396 2.1354906,5.8554799 2.09375,5.96875 2.0753839,6.018324 2.0756705,6.0730454 2.0625,6.125 2.032557,6.2435542 2,6.3718875 2,6.5 l 0,9 c 0,0.128113 0.032557,0.256446 0.0625,0.375 0.01731,0.06634 0.036684,0.125125 0.0625,0.1875 0.039762,0.09975 0.065813,0.193497 0.125,0.28125 0.0078,0.01152 0.02314,0.01996 0.03125,0.03125 0.2026296,0.282121 0.4963807,0.474766 0.84375,0.5625 C 3.2435542,16.967443 3.3718875,17 3.5,17 l 15,0 c 0.103875,0 0.214678,-0.01133 0.3125,-0.03125 0.368272,-0.07498 0.690634,-0.272123 0.90625,-0.5625 0.07075,-0.09528 0.109492,-0.201584 0.15625,-0.3125 0.0326,-0.08249 0.07562,-0.160924 0.09375,-0.25 0.002,-0.0098 -0.0018,-0.02137 0,-0.03125 C 19.988666,15.714678 20,15.603875 20,15.5 l 0,-9 C 20,6.3511125 19.977535,6.1980709 19.9375,6.0625 19.921603,6.0091376 19.896486,5.9568328 19.875,5.90625 19.837148,5.8164609 19.803807,5.7360254 19.75,5.65625 19.642387,5.4966992 19.503301,5.3576133 19.34375,5.25 19.271952,5.201574 19.204989,5.1605826 19.125,5.125 19.1158,5.12151 19.10307,5.12831 19.09375,5.125 19.06382,5.1123828 19.030896,5.1044477 19,5.09375 18.959105,5.0815878 18.917455,5.0732228 18.875,5.0625 18.756446,5.032557 18.628113,5 18.5,5 l -15,0 z m 0,1.03125 0.53125,0 6.9375,6.9375 6.9375,-6.9375 0.59375,0 c 0.262593,0 0.441967,0.159457 0.46875,0.40625 l -8,7.96875 L 3.03125,6.4375 C 3.05803,6.190707 3.237407,6.03125 3.5,6.03125 z m 11.65625,5.8125 3.78125,3.78125 c -0.04947,0.206734 -0.200008,0.34375 -0.4375,0.34375 l -0.65625,0 -3.40625,-3.40625 0.71875,-0.71875 z M 6.75,11.90625 7.46875,12.625 l -3.375,3.34375 -0.59375,0 c -0.249077,0 -0.397701,-0.150076 -0.4375,-0.375 L 6.75,11.90625 z" fill="#bebebe"/>
</svg>
