
<svg width="22" height="22" version="1.1" xmlns="http://www.w3.org/2000/svg">
	<path fill="#bebebe" d="m11 2.4375c-3.8086 0-7.2961 1.3841-10 3.6563l1.6562 1.9687c2.2608-1.9057 5.1556-3.0625 8.3438-3.0625 3.173 0 6.058 1.1424 8.312 3.0312l1.657-1.9687c-2.699-2.2549-6.176-3.625-9.969-3.625zm0 4.0313c-2.8266 0-5.4317 1.0004-7.4375 2.6874l1.625 1.9378c1.5674-1.3162 3.606-2.094 5.8125-2.094 2.191 0 4.219 0.7645 5.781 2.062l1.625-1.937c-2.001-1.6702-4.595-2.6562-7.406-2.6562zm0 4.0622c-1.8295 0-3.5141 0.659-4.8125 1.75l1.625 1.907c0.8683-0.732 1.9638-1.188 3.1875-1.188 1.224 0 2.318 0.456 3.188 1.188l1.593-1.907c-1.296-1.082-2.96-1.75-4.781-1.75zm5.5 2.469c-0.277 0-0.5 0.223-0.5 0.5v2.5h-0.5c-0.277 0-0.5 0.223-0.5 0.5v4c0 0.277 0.223 0.5 0.5 0.5h5c0.277 0 0.5-0.223 0.5-0.5v-4c0-0.277-0.223-0.5-0.5-0.5h-0.5v-2.5c0-0.277-0.223-0.5-0.5-0.5h-3zm0.5 1h2v2h-2v-2zm-6 0.5c-0.865 0-1.6401 0.322-2.25 0.844l2.25 2.656 2.219-2.656c-0.608-0.513-1.362-0.844-2.219-0.844z"/>
</svg>
