
<svg width="22" height="22" version="1.1" xmlns="http://www.w3.org/2000/svg">
	<path fill="#bebebe" d="m7.9999 19a1 1 0 0 0 -1 1 1 1 0 0 0 1 1 1 1 0 0 0 1 -1 1 1 0 0 0 -1 -1zm3.0001 0a1 1 0 0 0 -1 1 1 1 0 0 0 1 1 1 1 0 0 0 1 -1 1 1 0 0 0 -1 -1zm3.0002 0a1 1 0 0 0 -1 1 1 1 0 0 0 1 1 1 1 0 0 0 1 -1 1 1 0 0 0 -1 -1z"/>
	<path opacity=".45" fill="#bebebe" d="m11 2.4375c-3.8086 0-7.2961 1.3842-10 3.6563l1.6562 1.9687c2.2607-1.9057 5.1556-3.0625 8.3438-3.0625 3.173 0 6.057 1.1424 8.312 3.0312l1.657-1.9687c-2.699-2.2549-6.176-3.625-9.969-3.625zm0 4.0313c-2.8266 0-5.4317 1.0002-7.4375 2.6872l1.625 1.938c1.5674-1.316 3.606-2.094 5.8125-2.094 2.191 0 4.219 0.764 5.781 2.062l1.625-1.937c-2.001-1.6702-4.595-2.6562-7.406-2.6562zm0 4.0622c-1.8295 0-3.5141 0.659-4.8125 1.75l1.625 1.907c0.8683-0.731 1.9638-1.188 3.1875-1.188 1.224 0 2.319 0.457 3.188 1.188l1.593-1.907c-1.296-1.082-2.96-1.75-4.781-1.75zm0 3.969c-0.865 0-1.6401 0.322-2.25 0.844l2.25 2.656 2.219-2.656c-0.608-0.513-1.362-0.844-2.219-0.844z"/>
</svg>
