
<svg width="22" height="22" version="1.1" xmlns="http://www.w3.org/2000/svg">
	<path class="warning" fill="#ff9000" d="m5 3c-1.108 0-2 0.892-2 2v12c0 1.108 0.892 2 2 2h12c1.108 0 2-0.892 2-2v-12c0-1.108-0.892-2-2-2h-12zm6.002 2a12 12 0 0 1 6.875 2.1816l-1.143 1.6289a10 10 0 0 0 -5.732 -1.8105 10 10 0 0 0 -5.7286 1.8184l-1.1504-1.6446a12 12 0 0 1 6.879 -2.1738zm0 3a9 9 0 0 1 5.154 1.6367l-1.14 1.6313a7 7 0 0 0 -4.014 -1.268 7 7 0 0 0 -4.0079 1.273l-1.1503-1.6421a9 9 0 0 1 5.1582 -1.6309zm0 3a6 6 0 0 1 3.437 1.09l-1.142 1.635a4 4 0 0 0 -2.295 -0.725 4 4 0 0 0 -2.2911 0.727l-1.1464-1.639a6 6 0 0 1 3.4375 -1.088zm0 3a3 3 0 0 1 1.721 0.545l-1.721 2.455-1.7188-2.457a3 3 0 0 1 1.7188 -0.543z"/>
</svg>
