
<svg width="22" height="22" version="1.1" xmlns="http://www.w3.org/2000/svg">
	<path fill="#bebebe" d="m10.094 2v2.0625c-3.9444 0.49381-7 3.8592-7 7.9375 0 4.4183 3.5817 8 8 8 3.2752 0 5.4262-1.4003 6.9062-4l-2.1875-1.2812c-1.1804 1.5997-2.5822 2.6444-4.7188 2.6875-2.994 0-5.4062-2.4123-5.4062-5.4062 0-0.18712-0.01851-0.38026 0-0.5625 0.24395-2.4022 2.0632-4.3196 4.4062-4.75l0.001 2.3122 5.031-3.5625-5.031-3.4375zm1 8c-1.1046 0-2 0.89543-2 2s0.89543 2 2 2 2-0.89543 2-2-0.89543-2-2-2z"/>
</svg>
