
<svg width="22" height="22" version="1.1" xmlns="http://www.w3.org/2000/svg">
	<path fill="#bebebe" d="m14.439 3.268c-0.09079-0.018985-0.23128 0.060575-0.33863 0.22576l-2.5209 3.9131c-0.21423 0.32892-0.70119 0.5518-1.0912 0.48914l-4.6653-0.7526c-0.3909-0.063-0.5133 0.1473-0.2634 0.4515l2.9724 3.6121c0.24898 0.30507 0.33083 0.85368 0.1505 1.204l-2.1447 4.1765c-0.1798 0.35042-0.028752 0.51792 0.33863 0.37626l4.3646-1.6932c0.35064-0.13436 0.84114-0.06079 1.1288 0.18813-2.4563 1.647-6.2282 3.58-8.6167 1.317-1.3911-1.319-1.6094-3.785-1.5427-5.569 0.0756-2.019 0.9188-3.8805 2.2575-5.3805-0.3625 0.4061-0.8026 0.7212-1.1664 1.1288-1.3039 1.461-2.0805 3.2087-2.2575 5.1547-0.17291 1.9017 0.1279 4.351 1.505 5.7944 2.5356 2.6578 7.2591-0.27502 9.4817-1.8813 0.16533-0.11945 0.31013-0.29983 0.45151-0.45151l3.2735 3.2735c0.27864 0.27953 0.47354 0.16681 0.45151-0.22576l-0.264-4.666c-0.02169-0.3914 0.24883-0.87612 0.60201-1.0535l4.2141-2.107c0.35251-0.17811 0.3072-0.38779-0.07525-0.48914l-4.553-1.204c-0.382-0.1005-0.729-0.5153-0.79-0.9031l-0.715-4.6279c-0.03-0.194-0.097-0.2821-0.188-0.301z"/>
</svg>
