
<svg width="22" height="22" version="1.1" xmlns="http://www.w3.org/2000/svg">
	<path d="M 11.5625,1.96875 C 10.391442,1.9073336 9.3937267,2.5714313 8.46875,3.09375 7.5290468,3.7030527 6.7009689,4.5401227 6.25,5.59375 6.2443303,5.6069964 6.2242993,5.6116816 6.21875,5.625 5.1737713,6.9016799 4.9553363,8.621503 5.0625,10.1875 c -0.042458,2.166222 0.6859027,4.367558 2.09375,6.03125 1.3431662,1.664838 3.350611,2.921993 5.5625,2.90625 a 0.13191028,0.13191028 0 0 0 0.03125,0 0.13191028,0.13191028 0 0 0 0.03125,0 0.13191028,0.13191028 0 0 0 0.03125,-0.03125 0.13191028,0.13191028 0 0 0 0.03125,-0.03125 0.13191028,0.13191028 0 0 0 0,-0.03125 0.13191028,0.13191028 0 0 0 0,-0.03125 0.13191028,0.13191028 0 0 0 0,-0.03125 0.13191028,0.13191028 0 0 0 0,-0.03125 0.13191028,0.13191028 0 0 0 -0.03125,-0.03125 0.13191028,0.13191028 0 0 0 -0.03125,-0.03125 0.13191028,0.13191028 0 0 0 -0.03125,0 C 11.733649,18.702035 10.835202,18.084517 9.96875,17.5 c -0.00546,-0.0055 -0.025779,0.0055 -0.03125,0 C 9.3069635,16.867739 8.6059911,16.347085 8.15625,15.625 7.7554286,14.972172 7.5135422,14.212791 7.25,13.46875 a 0.13191028,0.13191028 0 0 0 0,-0.03125 0.13191028,0.13191028 0 0 0 -0.03125,-0.03125 C 6.5698656,12.712477 6.1784745,11.816295 6.21875,10.875 6.0155989,9.1567137 6.4977191,7.3185476 7.625,6 7.6346978,5.9886568 7.646457,5.9800175 7.65625,5.96875 8.4865672,5.4187136 9.2345435,4.7301671 10.125,4.375 c 0.894728,-0.5930481 2.025226,-0.7535536 3.09375,-0.6875 0.01037,6.413e-4 0.02088,-6.801e-4 0.03125,0 1.924121,0.2563574 3.625834,1.9702139 3.8125,3.90625 a 0.13191028,0.13191028 0 0 0 0,0.03125 0.13191028,0.13191028 0 0 0 0,0.03125 c 0.104078,0.2200286 0.07408,0.4883633 0.03125,0.78125 -0.04002,0.273702 -0.06866,0.566361 0.03125,0.84375 0.007,0.019443 -0.0086,0.04323 0,0.0625 -0.236528,1.924635 -2.439565,3.437641 -4.3125,2.84375 -0.775813,-0.277847 -1.381163,-0.964098 -1.6875,-1.75 -0.306337,-0.7859017 -0.285136,-1.6705528 0.1875,-2.375 0.714274,-0.9735615 2.236505,-1.3073771 3.25,-0.625 a 0.13191028,0.13191028 0 0 0 0.03125,0 0.13191028,0.13191028 0 0 0 0.03125,0 0.13191028,0.13191028 0 0 0 0.03125,0 0.13191028,0.13191028 0 0 0 0.03125,0 A 0.13191028,0.13191028 0 0 0 14.71875,7.40625 0.13191028,0.13191028 0 0 0 14.75,7.375 a 0.13191028,0.13191028 0 0 0 0,-0.03125 0.13191028,0.13191028 0 0 0 0,-0.03125 0.13191028,0.13191028 0 0 0 0,-0.03125 0.13191028,0.13191028 0 0 0 0,-0.03125 C 14.384228,6.7041615 13.61668,6.450786 12.96875,6.46875 c -1.056615,0.00303 -2.010084,0.689985 -2.4375,1.625 -0.7971094,1.427801 -0.269267,3.389459 1.15625,4.21875 0.0127,0.0074 0.01841,0.02405 0.03125,0.03125 0.0048,0.009 -0.0041,0.02313 0,0.03125 -0.05355,-0.0248 -0.10426,-0.06399 -0.15625,-0.09375 -0.03595,-0.02058 -0.06777,-0.04726 -0.09375,-0.0625 -0.01299,-0.0076 -0.02085,0.0058 -0.03125,0 -0.0104,-0.0058 -0.033,-0.02175 -0.0625,-0.03125 a 0.13191028,0.13191028 0 0 0 -0.03125,0 c -0.0058,-0.0045 -0.02512,0.0047 -0.03125,0 -0.04597,-0.03552 -0.07385,-0.08557 -0.125,-0.125 -0.04816,-0.03713 -0.08456,-0.06537 -0.125,-0.09375 -0.02022,-0.01419 -0.04424,-0.0204 -0.0625,-0.03125 -0.01826,-0.01085 -0.02023,-0.02236 -0.0625,-0.03125 -0.0053,-0.0011 -0.02397,6.03e-4 -0.03125,0 -0.0073,-6.03e-4 -0.03065,-6.1e-5 -0.03125,0 -5.99e-4,6.1e-5 -0.03078,-1.84e-4 -0.03125,0 -4.72e-4,1.84e-4 -0.03091,0.03094 -0.03125,0.03125 -3.41e-4,3.11e-4 -0.03104,0.03081 -0.03125,0.03125 -2.08e-4,4.41e-4 7.1e-5,0.06193 0,0.0625 -7.1e-5,5.74e-4 -8.38e-4,0.02271 0,0.03125 0.01212,0.04829 0.01594,0.07227 0.03125,0.09375 0.03062,0.04296 0.08053,0.103868 0.15625,0.1875 0.574836,0.548638 1.317097,0.816085 2.09375,0.9375 0.02225,0.0035 0.04021,0.02805 0.0625,0.03125 0.02996,0.0069 0.06324,-0.0061 0.09375,0 0.345736,0.0689 0.731659,0.100643 1,0.0625 L 14.1875,13.25 14.15625,13.125 C 13.87061,13.19622 13.580333,13.114242 13.25,13.0625 14.896528,13.231567 16.650895,12.442812 17.5,11 c 0.0095,-0.01089 0.02202,-0.02022 0.03125,-0.03125 0.470901,-0.562465 0.608624,-1.312383 0.90625,-1.875 a 0.13191028,0.13191028 0 0 0 0,-0.03125 0.13191028,0.13191028 0 0 0 0,-0.03125 c 0.08644,-0.8024396 0.0067,-1.6132683 -0.28125,-2.375 -0.0055,-0.018601 0.0039,-0.014599 0,-0.03125 -0.03082,-0.1332085 -0.01199,-0.2304686 0,-0.25 0.01349,-0.021973 0.01467,-0.011955 0.0625,0 0.09566,0.02391 0.260068,0.1712934 0.25,0.40625 a 0.13191028,0.13191028 0 0 0 0,0.03125 c 0.01765,0.1204853 0.02154,0.1966171 0.03125,0.25 0.0049,0.026692 0.02665,0.044934 0.03125,0.0625 0.0023,0.00878 -0.01078,0.00957 0,0.03125 0.0027,0.00542 -2.11e-4,0.030975 0,0.03125 1.05e-4,1.376e-4 0.03115,-8.82e-5 0.03125,0 9.9e-5,8.82e-5 0.03116,0.031211 0.03125,0.03125 9.3e-5,3.93e-5 0.06241,9.3e-6 0.0625,0 8.6e-5,-9.3e-6 0.06242,5.74e-5 0.0625,0 8e-5,-5.74e-5 0.03118,-0.031145 0.03125,-0.03125 7.4e-5,-1.051e-4 0.03118,-0.031098 0.03125,-0.03125 1.35e-4,-3.046e-4 -0.0014,-0.025276 0,-0.03125 9.5e-4,-0.00737 -1.78e-4,-0.026638 0,-0.03125 3.57e-4,-0.00922 2.54e-4,-0.022687 0,-0.03125 -5.07e-4,-0.017127 0.0018,-0.038404 0,-0.0625 C 18.777655,6.9518072 18.757716,6.8862301 18.75,6.8125 18.719137,6.5175797 18.675282,6.0941623 18.625,5.90625 18.326435,4.5946449 17.286288,3.6099818 16.1875,2.96875 c -0.841576,-0.4396954 -1.809728,-0.4953255 -2.65625,-0.75 -0.349482,-0.09959 -0.678369,-0.087231 -1,-0.09375 -0.321631,-0.00652 -0.617905,-0.036334 -0.90625,-0.15625 a 0.13191028,0.13191028 0 0 0 -0.03125,0 0.13191028,0.13191028 0 0 0 -0.03125,0 z" fill="#bebebe"/>
</svg>
