
<svg width="22" height="22" version="1.1" xmlns="http://www.w3.org/2000/svg">
	<path fill="#bebebe" d="m10.5 3c-0.277 0-0.5 0.223-0.5 0.5v5c0 0.277 0.223 0.5 0.5 0.5h1c0.277 0 0.5-0.223 0.5-0.5v-5c0-0.277-0.223-0.5-0.5-0.5h-1zm4.971 1.3945c-0.147-0.0004-0.295 0.0548-0.409 0.168l-0.781 0.8125c-0.399-0.232-0.833-0.4179-1.281-0.5625v3.9687c0.609 0.5491 1 1.3348 1 2.2188 0 1.657-1.343 3-3 3-1.6569 0-3-1.343-3-3 0-0.884 0.3911-1.6697 1-2.2188v-3.9687c-0.4479 0.1446-0.8824 0.3305-1.2812 0.5625l-0.7813-0.8125c-0.1132-0.1132-0.2618-0.1538-0.4063-0.1563-0.1444-0.0024-0.2949 0.045-0.4062 0.1563l-1.5625 1.5625c-0.2226 0.2226-0.2264 0.5861 0 0.8125l0.8125 0.7813c-0.2862 0.4921-0.5063 1.0307-0.6562 1.5937h-1.125c-0.3203 0-0.5938 0.2789-0.5938 0.5937v2.1878c0 0.315 0.2735 0.594 0.5938 0.594h1.125c0.1499 0.562 0.37 1.101 0.6562 1.593l-0.8125 0.781c-0.2264 0.227-0.2226 0.59 0 0.813l1.5625 1.563c0.2226 0.222 0.5861 0.226 0.8125 0l0.7813-0.813c0.4921 0.286 1.0307 0.506 1.5937 0.656v1.125c0 0.32 0.2789 0.594 0.5937 0.594h2.1878c0.315 0 0.594-0.274 0.594-0.594v-1.125c0.562-0.15 1.101-0.37 1.593-0.656l0.781 0.813c0.227 0.226 0.59 0.222 0.813 0l1.563-1.563c0.222-0.223 0.226-0.586 0-0.813l-0.813-0.781c0.286-0.492 0.506-1.031 0.656-1.593h1.125c0.32 0 0.594-0.279 0.594-0.594v-2.1878c0-0.3148-0.274-0.5937-0.594-0.5937h-1.125c-0.15-0.563-0.37-1.1016-0.656-1.5937l0.813-0.7813c0.113-0.1132 0.155-0.2597 0.156-0.4063 0.001-0.1465-0.045-0.2949-0.156-0.4062l-1.563-1.5625c-0.111-0.1113-0.257-0.1675-0.404-0.168zm-4.471 5.6055c-0.552 0-1 0.448-1 1s0.448 1 1 1 1-0.448 1-1-0.448-1-1-1z"/>
	<path fill="#d40000" d="m10.5 3c-0.277 0-0.5 0.223-0.5 0.5v5c0 0.277 0.223 0.5 0.5 0.5h1c0.277 0 0.5-0.223 0.5-0.5v-5c0-0.277-0.223-0.5-0.5-0.5zm0.5 7c-0.55228 0-1 0.44772-1 1s0.44772 1 1 1 1-0.44772 1-1-0.44772-1-1-1z"/>
</svg>
