
<svg width="22" height="22" version="1.1" xmlns="http://www.w3.org/2000/svg">
	<path d="M 6.6875 2 A 0.84001639 0.84001639 0 0 0 6 2.84375 L 6 7.25 A 0.84001639 0.84001639 0 0 0 6.25 7.84375 L 14.15625 15.75 A 0.84001639 0.84001639 0 0 0 15.34375 15.75 L 19.75 11.34375 A 0.84001639 0.84001639 0 0 0 19.75 10.15625 L 11.84375 2.25 A 0.84001639 0.84001639 0 0 0 11.25 2 L 6.84375 2 A 0.84001639 0.84001639 0 0 0 6.6875 2 z M 9.5 4 C 10.328427 4 11 4.6715729 11 5.5 C 11 6.3284271 10.328427 7 9.5 7 C 8.6715729 7 8 6.3284271 8 5.5 C 8 4.6715729 8.6715729 4 9.5 4 z M 5 11 L 5 14 L 2 14 L 2 17 L 5 17 L 5 20 L 8 20 L 8 17 L 11 17 L 11 14 L 8 14 L 8 11 L 5 11 z " fill="#bebebe"/>

</svg>
