
<svg width="22" height="22" version="1.1" xmlns="http://www.w3.org/2000/svg">
	<path d="m9.4375 2.0312l-0.9687 3.5-3.3126-1.5312 0.9376 3.5312-3.6563 0.3126 2.5625 2.6252-2.9688 2.093 1.5938 0.438c0.3388-0.589 0.8297-1.088 1.4062-1.438-0.0166-0.182-0.0312-0.376-0.0312-0.562 0-3.3137 2.6863-6 6-6 3.314 0 6 2.6863 6 6 0 1.935-0.921 3.653-2.344 4.75 0.22 0.365 0.344 0.777 0.344 1.25 0 0.053 0.003 0.104 0 0.156l1.844 0.844-0.938-3.531 3.656-0.313-2.562-2.625 2.969-2.0935-3.5-0.9687 1.531-3.3126-3.531 0.9376-0.313-3.6563-2.625 2.5625-2.0935-2.9688zm1.5625 3.9688c-2.7614 0-5 2.2386-5 5 0 0.043-0.0011 0.082 0 0.125 0.3178-0.086 0.654-0.125 1-0.125 1.108 0 2.053 0.543 2.7812 1.281 0.2468-0.087 0.4368-0.281 0.7188-0.281 1.327 0 2.413 1.092 2.469 2.406 0.369 0.144 0.7 0.352 1 0.594 1.219-0.912 2.031-2.36 2.031-4 0-2.7614-2.239-5-5-5zm-4 6c-1.6569 0-3 1.343-3 3-1.1046 0-2 0.895-2 2s0.8954 2 2 2h8c1.105 0 2-0.895 2-2s-0.895-2-2-2h-0.094c0.054-0.154 0.094-0.327 0.094-0.5 0-0.828-0.672-1.5-1.5-1.5-0.374 0-0.706 0.149-0.9688 0.375-0.5335-0.83-1.471-1.375-2.5312-1.375z" fill="#bebebe"/>
</svg>
