
<svg width="22" height="22" version="1.1" xmlns="http://www.w3.org/2000/svg">
	<path d="m13 2c-3.866 0-7 3.134-7 7 0 0.3518 0.0437 0.6934 0.0938 1.031 0.807-0.6185 1.803-0.9998 2.9062-0.9998 0.4459 0 0.8831 0.0664 1.281 0.1876-0.179-0.5428-0.281-1.116-0.281-1.7188 0-2.6342 1.871-4.8055 4.344-5.3438-0.437-0.0854-0.882-0.1562-1.344-0.1562zm-4 8c-2.2091 0-4 1.791-4 4-1.6569 0-3 1.343-3 3s1.3431 3 3 3h11c1.657 0 3-1.343 3-3s-1.343-3-3-3c0-1.105-0.895-2-2-2-0.495 0-0.932 0.202-1.281 0.5-0.592-1.469-2.038-2.5-3.719-2.5zm10.688 1.094c-0.797 0.927-1.904 1.579-3.157 1.812 0.033 0.08 0.066 0.168 0.094 0.25 0.547 0.092 1.049 0.31 1.5 0.594 0.696-0.752 1.25-1.652 1.563-2.656z" fill="#bebebe"/>
</svg>
