<svg width="16" height="16" version="1.1" xmlns="http://www.w3.org/2000/svg">
	<path d="m7 1v1.5625c-0.81164 0.13749-1.4771 0.47677-2 1-0.58488 0.59412-0.875 1.3155-0.875 2.1875-8e-7 1.0637 0.45156 1.8938 1.3438 2.4688 0.32714 0.2204 1.1404 0.56171 2.4688 1.0312 0.89219 0.31622 1.3437 0.67212 1.3438 1.0938-6e-6 0.28748-0.12868 0.5246-0.40625 0.6875-0.23792 0.15332-0.52653 0.21875-0.84375 0.21875-0.3668 2e-6 -0.68967-0.08002-0.9375-0.28125-0.24784-0.20123-0.36509-0.46753-0.375-0.8125l-2.6875-0.03125c0.029739 0.94867 0.31986 1.728 0.875 2.3125 0.51739 0.53585 1.2147 0.86368 2.0938 1v1.5625h2v-1.5938c0.88865-0.16473 1.5869-0.52413 2.125-1.0625 0.59479-0.6037 0.90624-1.3397 0.90625-2.25-9e-6 -1.0253-0.44165-1.853-1.3438-2.4375-0.3668-0.24914-1.2128-0.59295-2.5312-1.0625-0.90211-0.33538-1.375-0.69836-1.375-1.0625-3e-6 -0.28747 0.12716-0.51501 0.375-0.6875 0.21809-0.16289 0.48385-0.24999 0.78125-0.25 0.3767 8e-6 0.68815 0.13545 0.90625 0.375 0.21809 0.22999 0.31249 0.51087 0.3125 0.875h2.625c-0.019361-1.8333-0.93891-2.9179-2.7812-3.2812v-1.5625z" fill="#bebebe"/>
</svg>
