<svg width="16" height="16" version="1.1" xmlns="http://www.w3.org/2000/svg">
	<path d="M 14.363281 4 C 13.244175 4.8917282 11.643907 6.2923174 9.8984375 7.5136719 C 9.163837 5.9722567 8.5014953 4.2585815 6.8847656 4.0371094 C 4.1752656 3.6661094 2.6255906 6.1628594 1.5878906 8.5683594 C 1.4504406 8.8873594 0.78985625 10.35849 1.0664062 11.3125 C 1.3319063 12.22851 2.5458406 12.034889 3.3691406 11.824219 C 4.7448406 11.473619 5.6837063 11.062732 6.7539062 10.419922 C 7.4190314 10.012823 7.6438611 9.7612355 8.1738281 9.40625 C 8.3134947 9.6317341 8.4306548 9.8881787 8.578125 10.101562 C 9.177925 10.968783 9.9952475 11.845551 10.742188 11.962891 C 11.274588 12.078731 12.449507 11.736814 13.091797 11.333984 L 15 9.3339844 C 13.178 10.333244 12.469291 10.273293 11.519531 9.7265625 C 10.927281 9.3855281 10.515732 8.7300932 10.140625 8.0039062 C 11.768542 6.717253 13.015176 5.5172689 14.363281 4 z M 4.7304688 5.3496094 C 5.5492625 5.1828412 6.0634606 5.8476831 6.4941406 6.5253906 C 6.9208872 7.266641 7.3600188 8.0052199 7.7910156 8.7519531 C 6.4875877 9.4410411 5.1602225 9.9866519 3.8632812 10 C 2.9272013 10.0096 1.92386 8.563975 2.5 7.484375 C 2.86067 6.807955 3.3263644 6.1755587 3.8027344 5.8242188 C 4.1516844 5.5531112 4.4575375 5.4051988 4.7304688 5.3496094 z" fill="#bebebe"/>
</svg>
