<svg width="16" height="16" version="1.1" xmlns="http://www.w3.org/2000/svg">
	<path d="m8.0215 2c-1.5238 0-3.2215 0.55964-3.5781 2.4121-0.037596 0.19689 0.1064 0.2991 0.23828 0.32812l1.5508 0.16406c0.14517-0.0073986 0.25125-0.14738 0.2793-0.28906 0.13303-0.63816 0.6766-0.94336 1.2871-0.94336 0.32912 0 0.70351 0.11772 0.89844 0.4082 0.22414 0.32349 0.19336 0.76706 0.19336 1.1406v0.20703c-0.92777 0.10185-2.1407 0.16827-3.0098 0.54297-1.0024 0.42706-1.707 1.2968-1.707 2.5742 0 1.6368 1.0479 2.4551 2.3965 2.4551 1.138 0 1.7609-0.26425 2.6387-1.1445 0.29123 0.41511 0.38641 0.6141 0.91797 1.0488 0.11886 0.062605 0.27138 0.05735 0.37695-0.037109l0.003906 0.003906c0.31957-0.27968 0.9014-0.77492 1.2285-1.0449 0.13072-0.10527 0.10629-0.27681 0.003906-0.41992-0.2921-0.39718-0.60352-0.72039-0.60352-1.459v-2.4531c0-1.0399 0.075705-1.9934-0.70312-2.709-0.61312-0.57984-1.6333-0.78516-2.4121-0.78516zm0.86914 4.6875v0.33984c0 0.61369 0.01551 1.1256-0.29883 1.6719-0.2545 0.44413-0.65995 0.7168-1.1094 0.7168-0.61341 0-0.97266-0.46117-0.97266-1.1426 0-1.3412 1.2237-1.5859 2.3809-1.5859zm5.0801 4.1602c-0.48999 0.006694-1.0672 0.11565-1.5059 0.42383-0.13483 0.095447-0.11291 0.22624 0.037109 0.20898 0.49356-0.059604 1.5933-0.1922 1.7891 0.058593 0.19648 0.25094-0.21752 1.2854-0.40234 1.748-0.055906 0.14 0.064991 0.19606 0.19141 0.089844 0.82236-0.68731 1.0355-2.1291 0.86719-2.3379-0.083638-0.10304-0.48658-0.1981-0.97656-0.19141zm-12.869 0.27539c-0.10191 0.01345-0.1466 0.13896-0.039062 0.23633 1.8275 1.6501 4.2426 2.6406 6.9238 2.6406 1.9138 0 4.1355-0.60151 5.668-1.7324 0.25372-0.18706 0.036517-0.46703-0.22266-0.35742-1.7183 0.72906-3.5862 1.0801-5.2852 1.0801-2.5183 0-4.9557-0.69016-6.9277-1.8379-0.043036-0.02519-0.083217-0.03378-0.11719-0.029297z" fill="#bebebe"/>
</svg>
