<svg width="16" height="16" version="1.1" xmlns="http://www.w3.org/2000/svg">
	<path d="m2.5 1c-0.831 0-1.5 0.669-1.5 1.5v11c0 0.831 0.669 1.5 1.5 1.5h4.834c-0.096766-0.048808-0.19404-0.098344-0.27344-0.17773l-0.88281-0.88281c-0.24677-0.24677-0.32603-0.5935-0.29688-0.93945h-2.3809c-0.277 0-0.5-0.223-0.5-0.5v-9c0-0.277 0.223-0.5 0.5-0.5h9c0.277 0 0.5 0.223 0.5 0.5v2.3809c0.34617-0.028954 0.69261 0.050033 0.93945 0.29688l0.88281 0.88281c0.064264 0.064277 0.12009 0.1619 0.17773 0.25195v-4.8125c0-0.831-0.669-1.5-1.5-1.5h-11zm7.377 5c-0.17709 0-0.32031 0.14214-0.32031 0.32227v0.64258c-0.31666 0.084375-0.60793 0.20032-0.88477 0.36133l-0.46289-0.44141c-0.12736-0.12736-0.31618-0.12523-0.44141 0l-0.88281 0.88281c-0.12523 0.12523-0.12736 0.31599 0 0.44336l0.44141 0.46094c-0.16101 0.27684-0.27696 0.56811-0.36133 0.88477h-0.64258c-0.18012 0-0.32227 0.14322-0.32227 0.32031v1.2461c6.42e-5 0.1771 0.14214 0.32227 0.32227 0.32226h0.64258c0.084369 0.31666 0.20032 0.60597 0.36133 0.88281l-0.44141 0.46289c-0.12736 0.12736-0.12523 0.31618 0 0.44141l0.88281 0.88281c0.12523 0.12522 0.31404 0.12735 0.44141 0l0.46289-0.44141c0.27684 0.16101 0.56811 0.27696 0.88477 0.36133v0.64258c-2.6e-6 0.18012 0.14322 0.32227 0.32031 0.32227h1.2461c0.17709 0 0.32031-0.14214 0.32031-0.32227v-0.64258c0.31666-0.08437 0.60793-0.20032 0.88477-0.36133l0.46289 0.44141c0.12736 0.12736 0.31618 0.12524 0.44141 0l0.88281-0.88281c0.12522-0.12523 0.12735-0.31404 0-0.44141l-0.44141-0.46289c0.16101-0.27684 0.27696-0.56811 0.36133-0.88477h0.64258c0.18012 0 0.32227-0.14322 0.32227-0.32031v-1.2461c0-0.17709-0.14214-0.32031-0.32227-0.32031h-0.64258c-0.08437-0.31666-0.20032-0.60793-0.36133-0.88477l0.44141-0.46289c0.06368-0.063681 0.10087-0.13829 0.10156-0.2207 7.07e-4 -0.082415-0.038962-0.15809-0.10156-0.2207l-0.88281-0.88281c-0.12523-0.12523-0.31404-0.12736-0.44141 0l-0.46289 0.44141c-0.27684-0.16101-0.56811-0.27695-0.88477-0.36133v-0.64258c0-0.18013-0.14322-0.32227-0.32031-0.32227h-1.2461zm0.62305 2.5723c1.0651 0 1.9277 0.86259 1.9277 1.9277 0 1.0651-0.86259 1.9297-1.9277 1.9297-1.0651 0-1.9277-0.86455-1.9277-1.9297 0-1.0651 0.86259-1.9277 1.9277-1.9277z" fill="#bebebe"/>
</svg>
