<svg width="16" height="16" version="1.1" xmlns="http://www.w3.org/2000/svg">
	<path d="M 7.734375 2.0214844 C 7.4208375 1.9573544 7.0831688 2.0426131 6.8242188 2.2988281 C 6.5190088 2.6007781 6.3921081 3.1086075 6.5175781 3.5234375 L 6.5722656 3.7011719 L 3.4160156 3.7226562 L 3.328125 3.8183594 C 3.279545 3.8703594 2.9441744 4.4830375 2.5839844 5.1796875 C 1.7895744 6.7162175 1.8017494 6.6615937 2.1621094 6.9960938 C 2.4247094 7.2398467 2.5604469 7.2802181 2.6542969 7.1425781 C 2.7071269 7.0650881 2.7106594 7.0659369 3.0996094 7.2792969 C 3.4364334 7.4640569 3.4914516 7.508616 3.4785156 7.578125 C 3.4702156 7.622825 2.9415844 8.6024594 2.3027344 9.7558594 C 1.0136344 12.083219 1.0415496 12.031385 1.0097656 12.203125 C 0.97448563 12.393725 1.0341875 12.496042 1.3046875 12.701172 C 1.6205875 12.940722 1.7269363 12.94796 1.9101562 12.75 C 1.9823562 12.672 2.536325 11.714847 3.140625 10.623047 L 4.2382812 8.6386719 L 4.4375 9.4511719 L 4.6367188 10.265625 L 4.6621094 11.523438 C 4.6865864 12.757608 4.6889822 12.78247 4.7695312 12.865234 C 4.8298012 12.927162 4.9119381 12.956073 5.0800781 12.972656 C 5.5466781 13.018666 5.654736 13.011498 5.734375 12.929688 C 5.806827 12.855288 5.8085975 12.810781 5.8046875 11.613281 L 5.8007812 10.376953 L 5.6015625 9.5273438 C 5.4921905 9.0599838 5.4028006 8.6627314 5.4023438 8.6464844 C 5.3995437 8.5440044 5.6367344 8.6530063 6.8027344 9.2851562 C 7.5195844 9.6737963 8.1134838 9.9973062 8.1210938 10.003906 C 8.1286938 10.010406 7.6446419 10.661422 7.0449219 11.451172 C 6.4452019 12.240952 5.953125 12.914616 5.953125 12.947266 C 5.953125 13.000816 6.3864031 13.004794 10.470703 12.996094 C 14.506733 12.987524 14.9902 12.981768 15 12.929688 C 15.006 12.897588 14.269118 11.884987 13.361328 10.679688 C 12.141918 9.0606675 11.677594 8.470724 11.583984 8.421875 C 11.473124 8.363953 11.338759 8.3555202 10.505859 8.3554688 C 9.7053594 8.3554207 9.5333444 8.3645376 9.4277344 8.4160156 C 9.3263544 8.4654156 8.8049244 9.0928194 8.5214844 9.5058594 C 8.5038144 9.5315894 8.3161306 9.45156 7.9941406 9.28125 C 7.7189206 9.13568 7.4871187 9.0070918 7.4804688 8.9960938 C 7.4737837 8.9851538 7.4865935 8.9088049 7.5078125 8.8261719 C 7.5368525 8.7130719 7.5171095 8.157725 7.4296875 6.578125 C 7.3658065 5.423925 7.306375 4.4433935 7.296875 4.3984375 C 7.280495 4.3208515 7.2919831 4.3164062 7.5332031 4.3164062 C 7.9912931 4.3164062 8.3678669 4.0490419 8.5292969 3.6074219 C 8.6364829 3.3141919 8.6249631 2.898865 8.5019531 2.640625 C 8.3387531 2.29807 8.0479125 2.0856144 7.734375 2.0214844 z M 4.2050781 4.9238281 C 4.5720667 4.9138361 4.5992129 4.9178928 4.5761719 4.9804688 C 4.5625019 5.0175488 4.3653119 5.47538 4.1386719 6 C 3.9120319 6.52462 3.7191094 6.9552615 3.7089844 6.9550781 C 3.6865244 6.9546681 3.0136784 6.5943925 2.9902344 6.5703125 C 2.9810544 6.5608725 3.160675 6.1896906 3.390625 5.7441406 L 3.8085938 4.9335938 L 4.2050781 4.9238281 z M 6.4355469 6.4726562 C 6.4479689 6.5205863 6.4791324 6.9885419 6.5058594 7.5136719 C 6.5325834 8.0388019 6.5474525 8.4743688 6.5390625 8.4804688 C 6.5132225 8.4992488 5.6960754 8.0474144 5.7089844 8.0214844 C 5.7156544 8.0080944 5.8762063 7.6344163 6.0664062 7.1914062 C 6.3347963 6.5662572 6.4180169 6.4050743 6.4355469 6.4726562 z " fill="#bebebe"/>
</svg>
