<svg width="16" height="16" version="1.1" xmlns="http://www.w3.org/2000/svg">
	<path d="m7.5 3-6.5 11h1l3e-3 -0.65309s0.64331-0.69888 0.99682-1.0969v1.2188c0.29873-0.0858 0.63747-0.17771 1-0.25v-2.0312c0.31398-0.2929 0.6605-0.54513 1-0.75v2.625c0.30815-0.0323 0.65165-0.056 1-0.0625v-2.9688c0.1117-0.0184 0.23019-0.0312 0.34375-0.0312 0.21814 0 0.43243 0.0604 0.65625 0.125v2.9062c0.36815 0.0292 0.69964 0.0648 1 0.125v-2.5938c0.32766 0.19153 0.66326 0.4076 1 0.65625v2.1875c0.30502 0.0801 0.63407 0.17201 1 0.25l1.8e-4 -1.6564c0.32203 0.25 0.67213 0.51562 1 0.75v1.0625c0.2961 0.0406 0.63584 0.0967 1 0.125v-0.5625c0.32733 0.18286 0.654 0.35283 0.99106 0.44886l9e-3 0.17614h1z" fill="#bebebe"/>
</svg>
