<svg width="16" height="16" version="1.1" xmlns="http://www.w3.org/2000/svg">
	<path d="m5.4 1.5008c-0.096199 0.00246-0.1884 0.013215-0.27154 0.032693-0.40367 0.094595-0.77337 0.41271-0.97059 0.82118-0.33097 0.68545-0.37214 1.7327-0.13673 2.8962 0.013085 0.064672 0.021836 0.12452 0.028887 0.16924-0.014391 0.0036-0.024499 0.00724-0.042367 0.011539-0.074505 0.017954-0.17621 0.041146-0.28694 0.065386-0.70557 0.15443-1.2998 0.3941-1.7891 0.72695-0.44291 0.30129-0.73662 0.65505-0.86275 1.0423-0.12613 0.3873-0.079359 0.80403 0.14251 1.2039 0.22778 0.41052 0.74606 0.85485 1.3288 1.1654 0.11552 0.06157 0.19684 0.09994 0.28502 0.10962 0.08818 0.0097 0.16914-0.01818 0.25228-0.06155 0.16033-0.0836 0.2542-0.24565 0.2542-0.42886 0-0.095676-0.029157-0.18906-0.092438-0.26732-0.06328-0.078244-0.15323-0.14346-0.27924-0.21731-0.33842-0.19834-0.59431-0.39313-0.76068-0.57502s-0.24072-0.34714-0.24072-0.48848c0-0.14593 0.063455-0.29004 0.20991-0.44232 0.14646-0.15228 0.37512-0.30737 0.6875-0.45963 0.36316-0.17701 0.64945-0.2712 1.1285-0.37309l0.3062-0.065386 0.092437 0.3077c0.06548 0.21969 0.18049 0.56603 0.25806 0.77695 0.037903 0.10307 0.07157 0.19963 0.096289 0.27309 0.01236 0.036726 0.02235 0.068807 0.028887 0.090388 0.00164 0.00539 0.00268 0.00742 0.00386 0.011539-6.861e-4 0.00175-0.00114 0.00191-0.00192 0.00385-0.00754 0.018693-0.019985 0.046365-0.034664 0.078849-0.029365 0.064963-0.07044 0.15075-0.11555 0.24231-0.45481 0.92304-0.80246 1.8532-0.99948 2.677-0.1344 0.56197-0.1674 0.8419-0.16562 1.3789 0.00148 0.44136 0.0093 0.53274 0.069328 0.76156 0.12017 0.45821 0.35158 0.80752 0.6721 1.0173 0.32052 0.20982 0.72673 0.27527 1.1767 0.18847 0.41696-0.08044 0.84901-0.26771 1.3211-0.56925 0.17354-0.11085 0.28668-0.18916 0.36782-0.26155 0.081149-0.07238 0.13134-0.14596 0.15406-0.22308 0.077318-0.26245-0.071378-0.54067-0.33316-0.60771-0.080946-0.02073-0.16643-0.02406-0.25228 0.0058-0.085852 0.02983-0.17136 0.08502-0.2985 0.17308-0.34803 0.24101-0.67573 0.40642-0.95134 0.48848s-0.49419 0.07801-0.62973 0.0077c-0.12024-0.06243-0.21485-0.18384-0.27732-0.37506s-0.089911-0.44923-0.07318-0.76541c0.043054-0.81361 0.32495-1.7844 0.88971-3.052l0.088586 0.18462c0.31346 0.65549 0.80783 1.5168 1.2017 2.0962 1.1926 1.7545 2.4119 2.8842 3.4741 3.1674 0.27622 0.07363 0.66039 0.07748 0.90704 0 0.59249-0.18611 0.97897-0.75828 1.1131-1.5924 0.0544-0.33824 0.05251-1.0023 0-1.4539-0.12898-1.1094-0.50572-2.4215-1.063-3.7174-0.14095-0.32774-0.22323-0.51513-0.29272-0.63656s-0.13997-0.18486-0.21761-0.22308c-0.23746-0.11691-0.51935-0.025019-0.62973 0.21155-0.038622 0.082771-0.0588 0.17674-0.036589 0.28462 0.02221 0.10789 0.075021 0.23452 0.16754 0.4404 0.46849 1.0425 0.80971 2.0801 0.99756 2.9866 0.18785 0.9065 0.2208 1.6842 0.08474 2.1885-0.08859 0.3284-0.21218 0.50176-0.37168 0.56925-0.15949 0.06749-0.39029 0.0404-0.71832-0.11347-0.43416-0.20365-0.83125-0.51299-1.3673-1.0731-0.96867-1.0121-1.9509-2.5368-2.6499-4.1194l-0.13673-0.30963 0.14058-0.24808c0.20852-0.36519 0.46564-0.76663 0.68365-1.0789 0.109-0.15613 0.2094-0.28973 0.28694-0.38463 0.038773-0.047448 0.071681-0.085149 0.096289-0.10962 0.024609-0.024469 0.053494-0.033446 0.023109-0.025002-0.012608 0.00351-0.00216 7.261e-4 0.00963 0 0.011792-7.26e-4 0.028733-0.00162 0.05007-0.00192 0.042675-6.152e-4 0.10153 5.954e-4 0.17139 0.00192 0.13972 0.00266 0.32363 0.00878 0.51996 0.017308 0.39266 0.017064 0.83569 0.043676 1.065 0.067309 2.2778 0.23479 4.1695 0.89502 4.8915 1.6597 0.17753 0.18802 0.25774 0.34734 0.26383 0.4904 0.0061 0.14306-0.05975 0.28781-0.21954 0.45963-0.1808 0.19442-0.52574 0.41018-1.0361 0.63271-0.16448 0.071728-0.27142 0.22446-0.28694 0.40578-0.01584 0.18491 0.07243 0.35446 0.23302 0.44809 0.07897 0.04604 0.16622 0.07394 0.26191 0.06539 0.09568-0.0086 0.19487-0.04477 0.33701-0.10577 0.93686-0.40206 1.504-0.94643 1.6427-1.6174 0.0677-0.32749 8e-3 -0.64484-0.18102-1.0116-0.0686-0.13308-0.21197-0.30021-0.3813-0.47117-0.16934-0.17096-0.36201-0.34083-0.52766-0.45194-1.1644-0.78099-3.0488-1.3148-5.2324-1.4962-0.25169-0.020914-0.54317-0.037384-0.66247-0.038463-0.07701-6.97e-4 -0.14162-0.00617-0.20028-0.011539l0.10399-0.12116c1.0377-1.2102 2.1237-2.0109 2.8906-2.1731 0.2072-0.043848 0.35809-0.030352 0.46989 0.026924s0.19664 0.16243 0.25806 0.3404c0.1091 0.31616 0.11969 0.77945 0.02311 1.3635-0.024 0.14513-0.03514 0.24406-0.02889 0.33078 0.0062 0.086725 0.03697 0.15934 0.08088 0.22308 0.18904 0.27448 0.6249 0.26099 0.7915-0.026924 0.03751-0.064822 0.05696-0.14672 0.07896-0.25578 0.02199-0.10906 0.04144-0.24091 0.05777-0.38078 0.03267-0.27975 0.051-0.58754 0.03852-0.80195-0.0289-0.49643-0.14676-0.90022-0.36012-1.2039s-0.52231-0.50177-0.90897-0.58271c-0.17312-0.036236-0.26809-0.038483-0.49108-0.013462-1.1394 0.12785-2.5055 1.1537-3.8843 2.8578-0.21988 0.27176-0.30718 0.38694-0.36782 0.42309-0.030325 0.018074-0.060471 0.025773-0.12132 0.030771-0.060854 5e-3 -0.14842 0.00458-0.27539 0.00962-0.23874 0.00945-0.61071 0.034552-0.83386 0.057695-0.10892 0.011295-0.21013 0.021401-0.28309 0.026924-0.016585 0.00126-0.02505 0.00106-0.038516 0.00192-0.00253-0.012848-0.00475-0.02079-0.0077-0.036542-0.01302-0.069379-0.029028-0.1641-0.046222-0.26732-0.091159-0.54727-0.12111-1.0265-0.088586-1.3924 0.026682-0.30015 0.075942-0.53052 0.14636-0.69425 0.070417-0.16373 0.15835-0.25964 0.26768-0.31347 0.089073-0.043856 0.10118-0.04634 0.25998-0.03654 0.28953 0.017874 0.65971 0.19138 1.117 0.54233 0.14603 0.11208 0.2444 0.17985 0.34279 0.21539 0.098391 0.035538 0.19711 0.025275 0.28694-0.00962 0.32489-0.12618 0.41665-0.54102 0.17332-0.78848-0.23586-0.23986-0.79503-0.60967-1.1381-0.75579-0.28688-0.12218-0.6147-0.18441-0.90127-0.17693zm0.39671 4.6309-0.015406 0.021155c-0.087691 0.11692-0.2292 0.33158-0.32161 0.48655l-0.051996 0.086541-0.071254-0.22308-0.10399-0.32693c0.020268-0.00274 0.032468-0.00586 0.075106-0.00962 0.065509-0.00577 0.14914-0.011007 0.23302-0.015385 0.10903-0.00572 0.1759-0.012697 0.25613-0.019231zm2.2416 0.87311c-0.20545 0-0.28528 0.017015-0.43523 0.090388-0.099085 0.048455-0.21592 0.12122-0.28694 0.18462-0.24655 0.22009-0.39862 0.60321-0.36205 0.92311 0.055514 0.48553 0.46568 0.92223 0.93593 0.98272 0.5476 0.070439 1.0678-0.2956 1.2055-0.84233 0.12462-0.4947-0.1394-1.0155-0.61818-1.2462-0.15537-0.074844-0.23307-0.092311-0.43908-0.092311z" fill="#bebebe"/>
</svg>
