<svg width="16" height="16" version="1.1" xmlns="http://www.w3.org/2000/svg">
	<path d="m7.4911 2.5028c-0.022007 0.010574-0.41055 1.0542-0.98211 2.0864-1.3715 2.4772-2.242 3.5613-3.6483 4.4951-0.60851 0.40385-1.5661 0.91293-1.7764 1.1917-0.20001 0.26435-0.077791 0.10167 0.73421-0.13014 2.0271-0.57964 1.8763-1.0401 0.34341 0.79-2.088 2.493-1.0381 1.7193 1.1488-0.31824 1.0027-0.93418 2.0961-1.5895 2.3802-1.6985 0.30461-0.11672 0.49643-0.19816 0.87638-0.22409 0.4499-0.030696 0.70924 0.014692 0.87632 0.50715 0.14211 0.41886 0.46378 1.1828 0.97107 1.7809 0.20533 0.24213 0.38749 0.35878 0.57416 0.47438 0.17227 0.10669 0.34658 0.2195 0.58703 0.26775 0.47975 0.10569 0.80009 0.05184 1.1362 0.03633 0.7203-0.0427 1.9442-0.69681 2.783-1.3681 1.3421-1.0742 1.5214-1.4039 1.5039-2.7599l6.81e-4 -1.5749-0.65236 0.97336c-1.3754 2.0411-3.023 3.3973-4.1332 3.3973-2.4547 0-2.7812-1.8879-0.45-2.8425 2.0119-0.8239 4.5249-2.4778 5.1633-3.5149 0.0014-0.077604-2e-3 -0.16172-3e-3 -0.23294-0.015322-0.24209-0.072642-0.42581-0.15248-0.61106-0.093145-0.18871-0.26101-0.31671-0.39817-0.44258-0.1259-0.087642-0.20062-0.13767-0.29479-0.12831-0.11976 0.040263-0.16786 0.10218-0.20574 0.21229-0.29888 0.87338-4.7308 4.3405-5.8977 4.3405-0.11249 0-0.15773-0.89025-0.25436-2.2361-0.10051-1.3993-0.065099-2.5495-0.23112-2.47zm-0.49735 2.8604 0.09468 1.0791c-0.017912 0.70988-0.4125 1.1125-0.84854 1.2945-0.43287 0.18067-0.85888 0.48976-0.81947 0.0069138 0.020778-0.25551 0.40789-0.66301 0.87259-1.3153z" fill="#bebebe"/>
</svg>
