<svg width="16" height="16" version="1.1" xmlns="http://www.w3.org/2000/svg">
	<path d="m12.123 1c-0.10622 0-0.20258 0.0077669-0.31055 0.029297-0.74944 0.14592-1.3304 0.71789-1.4844 1.457-0.060116 0.28867-0.1341 0.51438-0.22656 0.69336-0.078597 0.15217-0.41038 0.47793-0.60742 0.59375-0.30447 0.17893-0.74308 0.2802-0.91992 0.21289-0.68221-0.15249-1.322-0.062352-2.0215-0.029297-0.34195 0.0054101-0.46503-0.073366-0.62109-0.33984-0.07929-0.13553-0.099609-0.21231-0.099609-0.45117 0-0.34585-0.093962-0.59315-0.29688-0.7793-0.54025-0.49549-1.411-0.089878-1.4141 0.65039-0.05579 0.38537 0.15841 0.61614 0.48047 0.7793 0.28099 0.14808 0.43451 0.31311 0.49609 0.55078 0.046801 0.1806 0.034943 0.21342-0.029297 0.35547-0.03909 0.086371-0.10058 0.19807-0.14062 0.24023-0.36744 0.38656-0.7355 1.0005-0.86328 1.4297-0.11212 0.37654-0.17347 0.91934-0.1543 1.3438 0.01797 0.39781 0.0078137 0.40923-0.11328 0.60938-0.26973 0.38349-0.85477 0.54993-1.1172 0.48047-0.22735-0.060574-0.57845-0.036836-0.65039-0.013672-0.25345 0.072156-0.48087 0.22218-0.66406 0.36719-0.41201 0.42026-0.48899 1.0075-0.19922 1.5293 0.17222 0.3101 0.43012 0.48997 0.84961 0.62109 0.29738 0.09294 0.67728 0.020806 1.0039-0.18359 0.17742-0.11102 0.19799-0.12725 0.42383-0.4668 0.2826-0.42484 0.56339-0.59865 1.0176-0.63672 0.32535-0.02746 0.54453 0.043159 0.80469 0.25586 0.21784 0.17829 0.68672 0.43632 0.97656 0.53711 0.40461 0.14048 0.74084 0.1957 1.4277 0.21289 0.55763 0.014 0.71549 0.031976 0.9043 0.097656 0.34961 0.12197 0.71479 0.36497 0.93359 0.60938 0.24099 0.26917 0.47877 0.74136 0.53711 1.0762 0.13668 0.78464 0.4137 1.2712 0.99023 1.7266 0.22932 0.18114 0.42765 0.29206 0.70508 0.38086 0.19339 0.06187 0.33635 0.065791 0.83594 0.056641 0.66953-0.01238 0.83435-0.052964 1.2148-0.2832 0.25191-0.15265 0.69181-0.55153 0.77734-0.70703 0.35325-0.6426 0.42383-0.88073 0.42383-1.4004 0-0.25507-0.016981-0.48101-0.056641-0.62305-0.27828-0.99604-0.9911-1.6536-2.0215-1.8535-0.35828-0.06947-0.47773-0.10224-0.70703-0.21289-0.53473-0.25798-1.0218-0.88084-1.1582-1.4727-0.02732-0.11857-0.05319-0.63229-0.05664-1.3438-0.004502-0.93896 0.00949-1.1726 0.05664-1.3027 0.22078-0.60916 0.69932-1.0218 1.3281-1.1309 0.60305-0.10446 1.0905-0.43181 1.3574-0.91992 0.17287-0.31613 0.21217-0.43076 0.24023-0.7793 0.08513-1.0575-0.82479-1.9727-1.8516-1.9668zm-4.623 4a2.5 2.5 0 0 1 2.5 2.5 2.5 2.5 0 0 1-2.5 2.5 2.5 2.5 0 0 1-2.5-2.5 2.5 2.5 0 0 1 2.5-2.5zm-0.052734 1c-0.40817 0.0055037-0.78437 0.19161-1.0918 0.5332-0.26572 0.29516-0.35357 0.5608-0.35547 1.0078-0.0012 0.27668 0.016772 0.39954 0.085938 0.57617 0.10695 0.27317 0.39868 0.60792 0.66602 0.76367 0.32756 0.19072 0.73512 0.14972 0.97852-0.11523 0.10189-0.1109 0.21713-0.37973 0.18555-0.43164-0.012488-0.020282-0.15668-0.029297-0.3125-0.029297-0.15582 0-0.33701-0.020495-0.39648-0.042969-0.25057-0.09616-0.46713-0.43733-0.46875-0.7207-0.00311-0.53736 0.56626-0.91252 1.0508-0.70508 0.15656 0.066992 0.35438 0.26781 0.41016 0.41797 0.0235 0.063261 0.042969 0.42381 0.042969 0.84961v0.73438h0.085938c0.13957 0 0.38745-0.12869 0.49609-0.25977 0.16417-0.19807 0.18939-0.34936 0.16992-0.89258-0.021683-0.6049-0.10349-0.842-0.38281-1.1523-0.22715-0.25234-0.4363-0.39669-0.73828-0.47656-0.14203-0.038373-0.28972-0.058129-0.42578-0.056641z" fill="#bebebe"/>
</svg>
