<svg width="16" height="16" version="1.1" xmlns="http://www.w3.org/2000/svg">
	<path d="m7.2031 1.0039c-0.77495-0.076604-1.1757 0.83669-1.3066 1.4004-0.094074 0.40486-0.13549 0.8457-0.14062 1.3047-0.18825-0.35523-0.50203-0.79699-0.9668-0.77734-0.05058 0.00214-0.10452 0.011269-0.1582 0.025391-0.13678 0.035984-0.68091 0.23742-0.75586 1.793-0.0050297 0.10439 0.010348 0.23655 0.015625 0.35547-1.4203 0.069729-2.5826 0.26366-2.8906 0.49805 0.13701-0.0513 1.0759-0.17554 2.3574-0.18945 0.16319-0.0017713 0.36711 0.018708 0.54688 0.025391 0.086839 0.7643 0.3467 1.7182 0.76367 2.6211-0.45986 0.65086-1.805 2.7739-1.2871 3.9141 0.32083 0.70638 1.3133 0.59471 1.8691 0.42578 0.38602-0.11731 0.77733-0.2969 1.166-0.51172-0.20019 0.33769-0.38313 0.79163-0.15039 1.1562 0.027151 0.04254 0.062438 0.083835 0.10156 0.12305 0.099696 0.09993 0.54675 0.46902 1.9375-0.24414 0.098607-0.050564 0.21146-0.13262 0.31836-0.20117 0.77893 1.2078 1.5409 2.1275 1.9023 2.2773-0.11314-0.09247-0.69286-0.83773-1.3457-1.9355-0.090082-0.15148-0.18038-0.35238-0.27148-0.52539 0.61674-0.45727 1.3078-1.1504 1.8789-1.9531 0.79615 0.07102 3.3158 0.1689 4.0488-0.84766 0.45412-0.62978-0.13759-1.4314-0.5625-1.8262-0.2849-0.26469-0.62445-0.5033-0.99024-0.72461 0.39395 0.0038147 0.8811-0.064134 1.082-0.44727 0.02343-0.044675 0.042091-0.0951 0.056641-0.14844 0.037087-0.13591 0.1322-0.70644-1.1836-1.5488-0.099992-0.064016-0.2348-0.1237-0.35742-0.18555 0.65071-1.261 1.0636-2.363 1.0137-2.7461-0.02388 0.14377-0.38308 1.0172-1.0117 2.1289-0.081431 0.14401-0.20319 0.31241-0.30078 0.4668-0.7041-0.29923-1.6425-0.54457-2.6172-0.63477-0.33629-0.72188-1.5109-2.9447-2.7617-3.0684zm0.51367 1.5547c0.46632-0.057363 1.2477 0.79107 1.584 1.4766-0.92171-0.013868-1.8313 0.13058-2.5566 0.51758 0.048025-1.1075 0.33978-1.9163 0.97266-1.9941zm-2.5527 1.2324c0.23288-0.044728 0.41491 0.16156 0.60156 0.36328 0.012198 0.31258 0.038345 0.62977 0.078125 0.95117-0.41139-0.019352-0.82305-0.039737-1.2168-0.035156 0.019273-0.71326 0.19774-1.2141 0.53711-1.2793zm3.375 0.66016c1.372 0.021103 2.7133 0.39598 3.6504 0.86328-0.19426 0.2776-0.40651 0.55321-0.62305 0.83398-0.27064-0.41928-0.67422-0.82508-1.2383-1.1895 0.49264 0.37865 0.88758 0.81899 1.1133 1.3496-0.7517-0.28479-1.5333-0.51543-2.2637-0.70508-0.64989-0.19613-1.3741-0.33262-2.1152-0.41797l-0.060547 0.60547c0.67735 0.12345 1.3007 0.26358 1.7715 0.40039 1.0274 0.29856 2.0596 0.71488 2.877 1.1797-0.002483 0.61704-0.18209 1.2983-0.48047 1.7949-0.70975 1.1812-1.7159 2.1542-2.5957 2.7266-0.14157-0.3021-0.27299-0.62194-0.40625-0.94336 0.49217-0.028299 1.0382-0.17284 1.625-0.4707-0.56725 0.23191-1.1389 0.34934-1.7051 0.28516-0.0023343-0.005757-0.0035292-0.01182-0.0058594-0.017578 0.61645-0.50146 1.1999-1.0527 1.7246-1.582 0.49557-0.46221 0.97706-1.019 1.4219-1.6152l-0.49805-0.35547c-0.44608 0.52222-0.87996 0.98871-1.2344 1.3262-0.77345 0.73646-1.6499 1.4184-2.4629 1.8906-0.53556-0.31066-1.0394-0.80696-1.3223-1.3125-0.67855-1.2128-1.0228-2.5769-1.0762-3.625 0.35618 0.030087 0.72081 0.077491 1.0918 0.12695-0.23553 0.44625-0.39223 1.0028-0.42773 1.6816 0.083093-0.61403 0.26842-1.1749 0.61719-1.6348 0.1281 0.79044 0.31736 1.5782 0.51758 2.3027 0.15432 0.65834 0.39899 1.3516 0.69531 2.0332l0.55664-0.25c-0.23128-0.64568-0.42073-1.2542-0.53711-1.7285-0.25397-1.035-0.40781-2.1313-0.41211-3.0684 0.53804-0.30638 1.2215-0.49331 1.8027-0.48438zm4.0039 1.0586c0.6353 0.37961 1.0021 0.79304 0.88672 1.125-0.071355 0.20537-0.30826 0.2669-0.55469 0.32227-0.30306-0.16162-0.61998-0.31098-0.94922-0.44922 0.21432-0.33361 0.43063-0.66768 0.61719-0.99805zm-0.56445 2.0586c0.93945 0.59514 1.4987 1.2514 1.25 1.8359-0.18325 0.43069-1.3117 0.67981-2.0762 0.62695 0.47292-0.78768 0.80016-1.644 0.82617-2.4629zm-7.0117 1.082c0.44879 0.80155 1.0292 1.5115 1.7285 1.9434-0.98747 0.51233-1.8365 0.66683-2.2207 0.16016-0.28306-0.37333 0.063966-1.4709 0.49219-2.1035zm2.6973 2.416c0.18307 0.35352 0.36787 0.70691 0.5625 1.0352-0.63906 0.34895-1.1736 0.45216-1.4023 0.18945-0.14444-0.16587-0.076031-0.40377 0-0.64648 0.2835-0.17725 0.56337-0.36901 0.83984-0.57812z" fill="#bebebe"/>
</svg>
