<svg width="16" height="16" version="1.1" xmlns="http://www.w3.org/2000/svg">
	<path d="m10.068 1.0012c-0.73325 0.23849-0.29329 1.1265-0.044019 1.5877 0.40217 0.94074 0.3142 2.03 0.059699 2.9982-0.16938-0.64283 0.04566-1.4227-0.40695-1.9719-0.36381-0.29421-0.98047-0.035665-0.59856 0.4368 0.15539 0.29261 0.15169 0.69826-0.10042 0.21289-0.1925-0.45056-0.95908-1.0975-1.3186-0.63186 0.20616 0.89413 0.48203 1.7784 0.68233 2.6705-0.068976 0.55395-0.079679 1.1364-0.19432 1.6688-0.66064-0.0069353-1.366-0.12509-1.9595 0.25266-1.2261 0.67362-1.6934 2.1036-2.0888 3.3556-0.24335 1.0117-0.23106 2.3064 0.62395 3.0331 0.31301 0.29387 1.5042 0.5944 1.0154-0.16723-0.16532-0.32267-0.1315-0.67139 0.10627-0.18882 0.22068 0.50708 0.9637 0.93812 1.3814 0.65941-0.23376 0.1421 0.13862-0.14449-0.15288-0.28516 0.42381 0.68627-0.28509-0.49633-0.39594-0.69531 0.60857 0.49034 1.467 1.0483 2.2504 0.60904 0.75777-0.41707-0.55725-0.5615-0.8696-0.81094-0.29154-0.10481-0.58682-0.26207-0.09803-0.18538 1.0238 0.0965 2.1854 0.37252 3.0767-0.32303 0.70444-0.43922-0.5765-0.18429-0.86031-0.24996-0.51924-0.0343-1.2241 0.08491-1.6287-0.05579 0.1149-0.5401 1.0254-0.05161 1.4524-0.24684 1.0257-0.02735 1.9663-0.08138 2.5796-0.96738 0.36837-0.49372 0.04409-0.64862-0.40671-0.37912-0.90882 0.29273-1.8597 0.68043-2.8283 0.50391 1.2374-0.58967 2.8142-0.38655 3.8572-1.3853 0.37123-0.34773 0.68089-1.2387 0.47283-1.5393-0.55134 0.32239-1.0968 0.65563-1.6585 0.95976 0.05154-0.42353 0.90564-0.6367 1.1599-1.1212 0.72509-0.81411 1.0504-2.0251 0.66096-3.0643-0.56446 0.82109-1.078 1.6771-1.6386 2.5 0.47977-1.0957 1.4125-2.082 1.3635-3.3469-0.01839-0.36559-0.29237-1.1577-0.5504-1.0767-0.36504 0.85078-0.66058 1.734-1.0477 2.574-0.45718 0.81089-0.89938 1.6313-1.3668 2.4356 0.55415-1.7773 2.0184-3.2291 2.067-5.168-0.0447-0.6695-0.16581-1.4091-0.62344-1.9284-0.74378-0.37344-0.62699 0.79087-0.51999 1.2256 0.0953 1.3042-0.27676 2.5954-0.70006 3.8161 0.24383-1.4914 0.87463-3.0331 0.38888-4.5471-0.23298-0.462-0.57359-1.1023-1.1415-1.1638zm-4.1141 2.9707c-0.59411-0.058094-1.334 0.35471-1.2618 0.91285-0.4572 0.13475-1.3382-0.036257-1.5696 0.27009 0.1193 0.32371 0.19199 0.55474-0.20642 0.25438-0.70308-0.29706-1.1589 0.64627-0.80189 1.1857 0.39035-0.043475 0.058394-0.069176 0.53837-0.30318 0.61031-0.19171 1.5791 0.068506 1.6745 0.79341-0.091902 0.50457-1.019 0.54461-1.0748 0.88709 0.683-0.073774 1.5924-0.087088 1.9229-0.80929 0.17058-0.27914 0.80151 0.38152 1.1251-0.077474 0.40133-0.50863 0.51734-0.1247 0.73877 0.23472 1.0417 0.018071-0.074382-1.0479-0.6207-1.0388-0.30283-0.09514-0.82061-0.39042-0.2164-0.47877 0.64336-0.34195 0.69071-1.2085 0.85352-1.7897-0.40558 0.13088-1.3136 0.64299-1.4152 0.59089 0.14164-0.14155 0.98792-0.65007 0.31369-0.63191zm-1.766 1.4414c0.81931 0.12978-0.15067 0.56185-0.42925 0.13672 0.12932-0.076585 0.27633-0.13942 0.42925-0.13672z" fill="#bebebe"/>
</svg>
