<svg width="16" height="16" version="1.1" xmlns="http://www.w3.org/2000/svg">
	<path d="m7.9766 2c-1.1866 0.0021385-2.3105 0.80441-3.0645 2.1875-2.2624 0.49582-3.9121 2.0013-3.9121 3.8125 0 0.34807 0.07887 0.67948 0.19336 1 0.38266 0.4866 0.81982 0.47169 1.3066 0 0.19894-0.19275 0.5 0.223 0.5 0.5s-0.223 0.5-0.5 0.5h-0.74609c0.69363 0.86059 1.8118 1.5175 3.1562 1.8125 0.75441 1.3839 1.8791 2.1862 3.0664 2.1875 0.00846 4.1e-5 0.016927 4.1e-5 0.025391 0-0.24496-0.62082-0.4507-1.3156-0.61133-2.0645 1.7797-0.21035 3.2532-1.0333 4.0234-2.168 0.66823 1.3652 2.0483 2.2305 3.5605 2.2324 0.0085 2.7e-5 0.01693 2.7e-5 0.02539 0-0.65448-1.0984-1.0175-2.5227-1.0195-4 0.0018-1.4763 0.3641-2.8997 1.0176-3.998-0.0078-6.743e-4 -0.01562-0.00133-0.02344-0.00195-1.5125 8.34e-4 -2.8934 0.86543-3.5625 2.2305-0.77038-1.1331-2.2418-1.9554-4.0195-2.166 0.15956-0.74697 0.36397-1.4404 0.60742-2.0605-0.0078099-0.001337-0.015622-0.0026391-0.023438-0.0039062zm-4.4766 4.75c0.41421 0 0.75 0.33579 0.75 0.75s-0.33579 0.75-0.75 0.75-0.75-0.33579-0.75-0.75 0.33579-0.75 0.75-0.75z" fill="#bebebe"/>
</svg>
