<svg width="16" height="16" version="1.1" xmlns="http://www.w3.org/2000/svg">
	<path d="m12.82 1-1.6639 2.8688-0.7459 1.2625c0.85674 0.71282 1.4344 1.7818 1.4344 2.9836 0 0.38231-0.06922 0.74082-0.17213 1.0901l1.2623 0.74598c0.21088-0.57405 0.34426-1.1887 0.34426-1.836 0-1.1584-0.34831-2.2234-0.97541-3.0983l1.8361-3.2705zm-11.074 0.68864-0.7459 1.377 2.8115 1.6065 1.3197 0.74577c0.70812-0.74421 1.7031-1.2049 2.8115-1.2049 0.3575 0 0.704 0.082223 1.0328 0.1722l0.7459-1.3196c-0.55506-0.19535-1.1568-0.287-1.7787-0.287-1.0591 0-2.0381 0.32852-2.8689 0.86057zm6.1967 3.3279c-1.7231 0-3.0984 1.3751-3.0984 3.0983 0 1.7229 1.3753 3.1557 3.0984 3.1557 1.7231 0 3.0984-1.4328 3.0984-3.1557 0-1.7232-1.3753-3.0983-3.0984-3.0983zm-4.9344 1.0901c-0.25294 0.62133-0.40164 1.2958-0.40164 2.0082 0 1.0341 0.29452 1.9927 0.80328 2.8114l-1.9508 3.3279 1.377 0.74598 1.6066-2.8114 0.7459-1.3198c-0.7137-0.7049-1.1475-1.6718-1.1475-2.754 0-0.44595 0.091254-0.86326 0.22951-1.2623zm7.8607 4.5326c-0.71271 0.82148-1.7536 1.3773-2.9262 1.3773-0.4715 0-0.90151-0.07603-1.3197-0.22955l-0.7459 1.2622c0.63911 0.27031 1.328 0.40164 2.0656 0.40164 1.1315 0 2.1763-0.31791 3.041-0.91808l3.2705 1.8934 0.7459-1.377-2.8115-1.6639z" fill="#bebebe"/>
</svg>
