<svg width="16" height="16" version="1.1" xmlns="http://www.w3.org/2000/svg">
	<path d="M 7.3066406 1.3320312 C 7.1691106 1.3320412 7.1015625 1.3899225 7.1015625 1.5078125 L 7.1015625 4.6757812 L 1.3828125 4.6757812 C 1.2256225 4.6757912 1.1464744 4.7201937 1.1464844 4.8085938 C 1.1464744 4.9362738 1.2256025 5.00001 1.3828125 5 L 6.5703125 5 C 6.6684925 5.00001 6.7167769 5.0502375 6.7167969 5.1484375 C 6.7167969 5.7281375 6.2015219 6.7162281 5.1699219 8.1113281 C 4.1481219 9.5064281 3.2391294 10.645087 2.4433594 11.529297 L 1.6777344 12.369141 C 1.6482544 12.398611 1.5459706 12.497053 1.3691406 12.664062 C 1.2021006 12.840903 1.0786 12.977972 1 13.076172 C 2.9551 12.034772 4.6592813 10.502316 6.1132812 8.4785156 C 6.6536212 7.7416656 6.9778675 7.274615 7.0859375 7.078125 L 7.1015625 14.210938 C 7.1015525 14.515498 7.1999744 14.667969 7.3964844 14.667969 C 7.5536644 14.667969 7.6810969 14.623556 7.7792969 14.535156 C 7.8775769 14.446736 7.9412031 14.309717 7.9707031 14.123047 C 8.0002031 13.946207 8.0192969 13.793726 8.0292969 13.666016 C 8.0392969 13.538296 8.0392969 13.360726 8.0292969 13.134766 C 8.0194969 12.908806 8.015615 12.781453 8.015625 12.751953 L 8.015625 6.3417969 C 8.644425 7.4225969 9.1982775 8.283285 9.6796875 8.921875 C 10.200388 9.609575 10.893242 10.408586 11.757812 11.322266 C 12.632152 12.235926 13.251724 12.693359 13.615234 12.693359 C 13.664334 12.693359 13.702922 12.683763 13.732422 12.664062 C 13.761882 12.644403 13.796637 12.609747 13.835938 12.560547 C 13.875237 12.511447 13.900156 12.482656 13.910156 12.472656 C 14.028016 12.364576 14.21328 12.246861 14.46875 12.119141 C 14.72415 11.981591 14.9018 11.873522 15 11.794922 C 14.8231 11.735972 14.346433 11.523656 13.570312 11.160156 C 13.059463 10.914546 12.58853 10.634692 12.15625 10.320312 C 11.72398 10.005962 11.305134 9.6276569 10.902344 9.1855469 C 10.499524 8.7336369 10.165641 8.3457044 9.9003906 8.0214844 C 9.6449806 7.6874844 9.3072056 7.2223469 8.8847656 6.6230469 C 8.3444056 5.8763469 8.0742188 5.3745906 8.0742188 5.1191406 C 8.0742187 5.0405606 8.1282681 5.0019531 8.2363281 5.0019531 L 13.585938 5.0019531 C 13.821708 5.0019531 13.939423 4.9324719 13.939453 4.7949219 C 13.939413 4.7261519 13.781167 4.5640437 13.466797 4.3085938 C 13.152407 4.0433438 12.957506 3.9101663 12.878906 3.9101562 C 12.810136 3.9101663 12.680791 4.0375287 12.494141 4.2929688 C 12.317281 4.5484088 12.145516 4.6777444 11.978516 4.6777344 L 8.015625 4.6777344 L 8.015625 2.3183594 C 8.015615 2.2102994 8.0735163 2.1079656 8.1914062 2.0097656 C 8.3092662 1.9017056 8.3691206 1.8129406 8.3691406 1.7441406 C 8.3691206 1.6360806 8.2263063 1.5434438 7.9414062 1.4648438 C 7.6663063 1.3764138 7.4539906 1.3320413 7.3066406 1.3320312 z " fill="#bebebe"/>
</svg>
