<svg width="16" height="16" version="1.1" xmlns="http://www.w3.org/2000/svg">
	<path d="m8 1c-0.67771 0.0029149-1.3514 0.10423-2 0.30078v8.6992c0 0.554-0.446 1-1 1s-1-0.446-1-1v-7.7422c-1.8789 1.3083-2.9992 3.4527-3 5.7422 0 3.866 3.134 7 7 7 3.866 0 7-3.134 7-7 0-3.866-3.134-7-7-7zm-0.68164 4c0.00976-4.095e-4 0.019536-4.095e-4 0.029297 0 0.057653 0.0012 0.11407 0.01665 0.16406 0.044922l4.8125 2.6602c0.23423 0.12913 0.23423 0.46071 0 0.58984l-2.4063 1.332-2.4062 1.3301c-0.22911 0.1262-0.51167-0.036647-0.51172-0.29492v-5.3242c-3.842e-4 -0.17731 0.13857-0.32479 0.31836-0.33789z" fill="#bebebe"/>
</svg>
