<svg width="16" height="16" version="1.1" xmlns="http://www.w3.org/2000/svg">
	<path d="m8 1c-1.8686 0-3.4176 1.2737-3.8613 3h7.7227c-0.44369-1.7263-1.9928-3-3.8613-3zm-5 4v1h-1.5c-0.277 0-0.5 0.223-0.5 0.5s0.223 0.5 0.5 0.5h1.5v2h-1.5c-0.277 0-0.5 0.223-0.5 0.5s0.223 0.5 0.5 0.5h1.5c0 0.71318 0.15312 1.3873 0.41992 2h-0.91992c-0.277 0-0.5 0.223-0.5 0.5s0.223 0.5 0.5 0.5h1.5176c0.71953 0.95484 1.7679 1.641 2.9824 1.8906v-7.8906c0-0.554 0.446-1 1-1s1 0.446 1 1v7.8906c1.2145-0.24961 2.2629-0.93578 2.9824-1.8906h1.5176c0.277 0 0.5-0.223 0.5-0.5s-0.223-0.5-0.5-0.5h-0.91992c0.2668-0.61274 0.41992-1.2868 0.41992-2h1.5c0.277 0 0.5-0.223 0.5-0.5s-0.223-0.5-0.5-0.5h-1.5v-2h1.5c0.277 0 0.5-0.223 0.5-0.5s-0.223-0.5-0.5-0.5h-1.5v-1z" fill="#bebebe"/>
</svg>
