<svg width="16" height="16" version="1.1" xmlns="http://www.w3.org/2000/svg">
	<path d="m4.0042 2.0023c-0.12459 0.00293-0.2341 0.018608-0.32083 0.030557-1.0106 0.13912-1.9732 0.54787-2.5375 1.1018-0.055067 0.053867-0.10608 0.10108-0.14583 0.15303v9.9165c0.09716-0.02595 0.24579-0.11054 0.49583-0.27546 0.62036-0.40934 1.141-0.64119 1.7208-0.76516 1.2131-0.25934 2.298-0.07296 3.1792 0.55092 0.49201 0.34838 0.88392 0.75305 1.1375 1.2549v-10.284c-0.43961-0.78467-1.3482-1.3806-2.4208-1.6221-0.24864-0.056022-0.73476-0.069538-1.1083-0.061213zm7.7 0c-0.29707 0.00784-0.59448 0.018217-0.7875 0.061213-1.1282 0.25126-2.0156 0.88993-2.45 1.7446v10.192c0.28166-0.57971 0.73637-1.0229 1.3417-1.4079 0.69814-0.44398 1.6574-0.61872 2.5667-0.4897 0.81063 0.11503 1.3948 0.3125 2.1292 0.79576 0.1775 0.11678 0.3663 0.24687 0.4375 0.27546 0.02567 0.01027 0.04107-0.0059 0.05833 0v-9.9165c-0.11354-0.14089-0.263-0.25569-0.46667-0.39788-0.6183-0.43172-1.4042-0.72135-2.2167-0.82637-0.09212-0.011753-0.1978-0.027619-0.32083-0.030557-0.09221-0.00196-0.19263-0.00293-0.29167 0z" fill="#bebebe"/>
</svg>
