<svg width="16" height="16" version="1.1" xmlns="http://www.w3.org/2000/svg">
	<path d="m2.5 1c-0.831 0-1.5 0.669-1.5 1.5v11c0 0.831 0.669 1.5 1.5 1.5h6.041c-0.06346-0.33754-0.0058137-0.74476 0.31641-1.0664 0.059635-0.05963 0.12657-0.11147 0.19922-0.1543l0.18555-0.10938c-0.20058-0.20966-0.38073-0.4357-0.54492-0.66992h-5.1973c-0.277 0-0.5-0.223-0.5-0.5v-2.0293c1.1846 1.3109 3.3022 2.3192 5.6797 2.5-0.14374-0.20816-0.26815-0.42399-0.37109-0.65039-0.62318-0.57082-1.3086-1.2482-1.3086-2.3203 0-1.5177 1.1499-2.2221 2-3-3.3039 0.42098-5.0604 0.073564-6-0.32227v-0.67773-2.5c0-0.277 0.223-0.5 0.5-0.5h9c0.277 0 0.5 0.223 0.5 0.5v2.4883 1.1582c0.68458 0.18019 1.3273 0.52453 1.8281 1.0254 0.06423 0.064226 0.11238 0.14239 0.17188 0.21094v-5.8828c0-0.831-0.669-1.5-1.5-1.5h-11zm10.5 4.9883c-0.008057-1.1-1.125-1.9883-2.5-1.9883-1.375-1.89e-5 -2.4919 0.88827-2.5 1.9883-1.43e-5 0.0039101-1.43e-5 0.0078098 0 0.011719 4.756e-4 0.013677 0.0011331 0.027349 0.0019531 0.041016 0.5042-0.64192 1.4719-1.0411 2.5234-1.041 1.0182 0.00133 1.9595 0.37725 2.4746 0.98828zm-5 0c-0.0080567-1.1-1.125-1.9883-2.5-1.9883-1.3807 0-2.5 0.89543-2.5 2 4.756e-4 0.013677 0.0011331 0.027349 0.0019531 0.041016 0.5042-0.64192 1.4719-1.0411 2.5234-1.041 1.0182 0.00133 1.9595 0.37725 2.4746 0.98828zm4 2.0117c-1.6569 0-3 1.3431-3 3 8.256e-4 1.2577 0.78605 2.3813 1.9668 2.8145l-1.4023 0.82617c-0.1152 0.115-0.021864 0.35338 0.14062 0.35938h4.5879c0.1625-6e-3 0.25612-0.24438 0.14062-0.35938l-1.4023-0.82812c1.1808-0.43223 1.9668-1.555 1.9688-2.8125 0-1.6569-1.3431-3-3-3zm0 0.5c0.13807 0 0.25 0.11193 0.25 0.25s-0.11193 0.25-0.25 0.25-0.25-0.11193-0.25-0.25 0.11193-0.25 0.25-0.25zm0 1c0.82845 0 1.5 0.67155 1.5 1.5s-0.67155 1.5-1.5 1.5-1.5-0.67155-1.5-1.5 0.67155-1.5 1.5-1.5zm0 0.75a0.75 0.75 0 0 0-0.75 0.75 0.75 0.75 0 0 0 0.75 0.75 0.75 0.75 0 0 0 0.75-0.75 0.75 0.75 0 0 0-0.75-0.75z" fill="#bebebe"/>
</svg>
