<svg width="16" height="16" version="1.1" xmlns="http://www.w3.org/2000/svg">
	<path d="M 6.9375 1 C 6.3267 1 6.0705862 1.4179644 6.2539062 2.1152344 C 6.4125462 2.7186344 6.2628594 3.2071569 5.7246094 3.8417969 C 5.6413494 3.9399669 5.2792219 4.3183637 4.9199219 4.6835938 C 4.5606119 5.0488138 4.1751531 5.4579769 4.0644531 5.5917969 C 3.3188831 6.4929969 2.9716294 7.3492375 2.9277344 8.3984375 L 2.9101562 8.8222656 L 3 8.8574219 C 3.04881 8.8770219 3.1936556 8.89925 3.3222656 8.90625 C 3.5846856 8.92071 3.8285425 8.8661038 4.0390625 8.7460938 L 4.1660156 8.6738281 L 4.1875 8.4140625 C 4.2911 7.1603625 4.8564663 6.0929969 5.8164062 5.3417969 C 6.0563162 5.1540469 6.5887125 4.795 6.6015625 4.8125 C 6.6055425 4.81794 6.7891056 5.1455056 7.0097656 5.5410156 C 7.5866156 6.5749156 8.0157675 7.2525744 8.4609375 7.8339844 C 8.6842075 8.1255844 9.1920794 8.6602313 9.3496094 8.7695312 C 9.3977194 8.8029113 9.5865688 8.8581375 9.7929688 8.8984375 C 9.9907688 8.9370375 10.174442 8.9697031 10.201172 8.9707031 C 10.280892 8.9745131 10.626953 8.6394937 10.626953 8.5585938 C 10.626953 8.4832937 10.555978 8.4114006 10.080078 7.9941406 C 9.4212781 7.4164406 8.7594237 6.5819256 8.3085938 5.7597656 C 7.8716037 4.9627656 7.5612262 4.0105663 7.4414062 3.0976562 C 7.3939112 2.7338562 7.3942213 1.7333238 7.4414062 1.4960938 C 7.4691583 1.3573637 7.4671057 1.3026094 7.4335938 1.2246094 C 7.3752838 1.0887794 7.17868 1 6.9375 1 z M 12.757812 9.0664062 C 12.262456 9.0510013 11.753347 9.2285144 11.294922 9.5996094 L 11.154297 9.7128906 L 10.943359 9.6816406 C 10.466039 9.6088806 9.8571756 9.709195 9.4785156 9.921875 C 8.7315756 10.341375 8.36099 11.269816 8.53125 12.291016 C 8.76235 13.677116 9.8582563 14.734952 11.285156 14.951172 C 11.58493 14.99618 12.224872 14.965008 12.521484 14.890625 C 13.097744 14.746185 13.577714 14.487503 13.996094 14.095703 C 14.661184 13.472903 15 12.703443 15 11.814453 C 15 10.991553 14.688291 10.21646 14.144531 9.6875 C 13.735281 9.289425 13.253169 9.0818112 12.757812 9.0664062 z M 5.7089844 9.2441406 C 5.4825144 9.1975406 5.0503025 9.2031594 4.8203125 9.2558594 C 4.5924125 9.3081294 4.2369594 9.4638962 4.0371094 9.5976562 L 3.8945312 9.6914062 L 3.6757812 9.6367188 C 3.5135713 9.5963187 3.3476988 9.5829844 3.0429688 9.5839844 C 2.6750587 9.5851844 2.602605 9.5942156 2.390625 9.6660156 C 1.549925 9.9508156 1.0599323 10.662287 1.0039062 11.679688 C 0.91560625 13.283387 2.1282187 14.733879 3.7617188 14.980469 C 3.8626488 14.995669 4.1303419 15.004047 4.3574219 14.998047 C 5.2446219 14.975417 5.9798131 14.659016 6.5957031 14.035156 C 6.9926331 13.633076 7.2326769 13.228451 7.4042969 12.675781 C 7.4810919 12.427421 7.4892044 12.369895 7.4902344 11.859375 C 7.4918794 11.367855 7.4846849 11.280518 7.4199219 11.054688 C 7.1472219 10.104037 6.4847044 9.4037806 5.7089844 9.2441406 z " fill="#bebebe"/>
</svg>
