<svg width="16" height="16" version="1.1" xmlns="http://www.w3.org/2000/svg">
	<path d="m8 1a7 7 0 0 0-5.082 2.1992l2.2344 3.8672a3 3 0 0 1 2.8477-2.0664h6.3164a7 7 0 0 0-6.3164-4zm-5.7598 3.0234a7 7 0 0 0-1.2402 3.9766 7 7 0 0 0 5.3828 6.8027l2.2344-3.8691a3 3 0 0 1-0.61719 0.066406 3 3 0 0 1-2.5938-1.502l-0.0039062 0.0019531-3.1621-5.4766zm5.7598 1.9766a2 2 0 0 0-2 2 2 2 0 0 0 2 2 2 2 0 0 0 2-2 2 2 0 0 0-2-2zm2.2305 0a3 3 0 0 1 0.76953 2 3 3 0 0 1-0.4043 1.498l0.001953 0.0019531-3.1582 5.4727a7 7 0 0 0 0.56055 0.027344 7 7 0 0 0 7-7 7 7 0 0 0-0.29883-2h-4.4707z" fill="#bebebe"/>
</svg>
