<svg width="16" height="16" version="1.1" xmlns="http://www.w3.org/2000/svg">
	<path d="m3.402 1a8.201 8.201 0 0 0 0 11.598 8.201 8.201 0 0 0 11.598 0l-1.2887-1.2887a6.3786 6.3786 0 0 1 -9.0207 0 6.3786 6.3786 0 0 1 0 -9.0207l-1.2883-1.2883zm1.933 1.933a5.4673 5.4673 0 0 0 -1.3491 2.2325l4.8929 1.3113-3.5438-3.5438zm-1.5466 3.1222a5.4673 5.4673 0 0 0 1.5466 4.6098l3.3085-3.3085-4.8551-1.3013zm2.2463 5.1987a5.4673 5.4673 0 0 0 4.3593 .87337l-1.1062-4.1262-3.2531 3.2532zm4.1328-3.4885 1.0974 4.095a5.4673 5.4673 0 0 0 1.8021 -1.1955l-2.899-2.8985z" fill="#bebebe"/>
</svg>
