<svg width="16" height="16" version="1.1" xmlns="http://www.w3.org/2000/svg">
	<path d="m10.002 1c-.5540 0-1 .446-1 1v5c0 .554.4460 1 1 1s1-.446 1-1v-5c0-.554-.446-1-1-1zm-2.002 2l-2.4688 1.9688c.0090-.0123-.0298-.0177-.2812.0312-4 .7775-4.25 1.6573-4.25 3v5c0 .554.4460 1 1 1s1-.446 1-1v-6.1875l1.2812 1.875 1.0626 1.5625 2.7812 4.156c.3836.568 1.0736.770 1.5312.438l4.9688-3.594c.458-.332.509-1.057.125-1.625l-2.75-4.0625v1.4375c0 1.1046-.895 2-2 2-1.1046 0-2-.8954-2-2v-4z" fill="#bebebe"/>
</svg>
