<svg width="16" height="16" version="1.1" xmlns="http://www.w3.org/2000/svg">
	<path d="m8 2c-1.9745 0-3.5566 1.4513-3.5566 3.25 0.00446 0.19153 0.018385 0.46785 0.037109 0.70117-0.33765 0.13987-0.36083 0.78235-0.074219 1.4414 0.11366 0.26137 0.25819 0.46116 0.41602 0.62695 0.038347 0.18523 0.026826 0.26875 0.074219 0.48047 0.13225 0.38724 0.65514 1.1469 1.1367 1.7734 0.047217 0.48119 0.0962 0.96626 0 1.5137-1.3875 1.1235-4.9624 1.6064-4.957 2.7695l-0.076172 0.44336h8.3438l-0.4668-0.4668c-0.30841-0.3084-0.32921-0.7405-0.22656-1.1445-0.36109-0.21163-0.65039-0.53137-0.65039-0.97461v-0.82812c0-0.44321 0.2893-0.76297 0.65039-0.97461-0.10265-0.40397-0.081861-0.83606 0.22656-1.1445l0.58984-0.58984c0.30846-0.30847 0.74054-0.32921 1.1445-0.22656 0.14036-0.2395 0.33425-0.43791 0.57422-0.55078 0.009252-0.048392 0.019863-0.10203 0.03125-0.1543 0.13217-0.1554 0.24251-0.33189 0.33984-0.55469 0.27152-0.6261 0.2549-1.2227-0.03711-1.4023 0.01725-0.25228 0.02952-0.52036 0.03711-0.73828 0-1.7987-1.5822-3.25-3.5566-3.25zm3.5859 7c-0.11806 0-0.21289 0.096722-0.21289 0.2168v0.42383c-0.21111 0.056248-0.4131 0.14071-0.59766 0.24805l-0.30078-0.30078c-0.08491-0.084909-0.21729-0.087396-0.30078-0.0039062l-0.58984 0.58984c-0.083468 0.08348-0.081004 0.21587 0.0039062 0.30078l0.30078 0.30078c-0.10735 0.18456-0.1918 0.38655-0.24805 0.59766h-0.42383c-0.12008 0-0.2168 0.094819-0.2168 0.21289v0.82812c0 0.11806 0.096718 0.21289 0.2168 0.21289h0.42383c0.056259 0.21111 0.14071 0.4131 0.24805 0.59766l-0.30078 0.30078c-0.084933 0.08492-0.087396 0.21729-0.0039062 0.30078l0.58984 0.58984c0.04174 0.04174 0.097412 0.060997 0.15234 0.060546 0.05494-4.67e-4 0.10598-0.022013 0.14844-0.064453l0.30078-0.30078c0.18456 0.10734 0.38655 0.1918 0.59766 0.24805v0.42383c0 0.12008 0.094819 0.2168 0.21289 0.2168h0.82812c0.11806 0 0.21289-0.0967 0.21289-0.2168v-0.42383c0.21111-0.05625 0.4131-0.14071 0.59766-0.24805l0.30078 0.30078c0.0849 0.08498 0.2173 0.087397 0.30078 0.003907l0.58984-0.58984c0.08343-0.08348 0.081013-0.21587-0.003907-0.30078l-0.30078-0.30078c0.10734-0.18456 0.1918-0.38655 0.24805-0.59766h0.42383c0.12008 0 0.2168-0.094828 0.2168-0.21289v-0.82812c-4e-5 -0.11806-0.096709-0.21289-0.2168-0.21289h-0.42383c-0.05625-0.2111-0.14071-0.4131-0.24805-0.59766l0.30078-0.30078c0.08499-0.08491 0.087397-0.2173 0.003907-0.30078l-0.58984-0.58984c-0.08348-0.08348-0.21587-0.080993-0.30078 0.0039062l-0.30078 0.30078c-0.18456-0.10734-0.38655-0.1918-0.59766-0.24805v-0.42383c0-0.12008-0.094828-0.2168-0.21289-0.2168h-0.82812zm0.41406 2.0918c0.50063 0 0.9082 0.40755 0.9082 0.9082 0 0.50063-0.40755 0.9082-0.9082 0.9082-0.50063 0-0.9082-0.40755-0.9082-0.9082 0-0.50063 0.40755-0.9082 0.9082-0.9082zm2.9512 3.6133-0.29492 0.29492h0.34375l-0.048828-0.29492z" fill="#bebebe"/>
</svg>
