<svg width="16" height="16" version="1.1" xmlns="http://www.w3.org/2000/svg">
	<path d="m12.181 2.0001c-0.63352 2e-3 -1.3108 0.045-1.8951 0.045-1.3042 0-2.5834-0.0462-3.7152 0.0375-1.7487 0.12929-3.0464 0.8929-3.9428 1.8576-0.91558 0.98553-1.6276 2.3808-1.6276 4.0928 0 1.7847 0.69132 3.1181 1.6276 4.0928 0.89072 0.92716 2.2104 1.7464 3.8678 1.8576 3.0568 0.20487 5.091-1.5053 5.9879-3.6752 0.5824-1.4091 1.2864-3.1028 1.8951-4.5853 0.18394-0.4479 0.54681-1.0183 0.60754-1.5551 0.12097-1.0698-0.45118-1.6852-1.1751-1.9701-0.40636-0.15994-0.99659-0.19959-1.6301-0.19751zm-5.1503 1.1851c1.4596 5e-3 2.5145 0.58295 3.2552 1.2476 0.92952 0.83406 1.7895 2.5343 1.4776 4.3978-0.25463 1.5213-1.1079 2.7292-2.5002 3.4852-1.5151 0.82283-3.4199 0.70112-4.7778-0.1125-1.3104-0.78519-2.5438-2.3068-2.3502-4.7003 0.10297-1.2726 0.65624-2.156 1.3651-2.8802 0.66049-0.67476 1.5884-1.2645 2.8802-1.4026 0.22541-0.0241 0.44152-0.0357 0.65005-0.035zm-0.24752 1.2151c-0.0985 5e-3 -0.20891 0.0288-0.32752 0.075-0.30828 0.11427-0.22864 0.52863-0.20252 0.81004-0.0174 0.0263-0.0514 0.0175-0.0775 0.0175-0.33442 0.0176-0.48459 0.3685-0.55504 0.65004 0.0174 0.25516-0.0183 0.53641-0.0625 0.78254-0.0442 0.24627-0.13123 0.44008-0.14001 0.67755-0.0174 0.2111 0.0625 0.45903 0.045 0.65254-0.18497 0.54538-0.31857 0.90455-0.41502 1.4851-0.0704 0.13185-0.31534 0.41337-0.41253 0.47503-0.0262 0.0438 0.0161 0.14109-0.0275 0.20251-0.0791 0.11428-0.2022 0.17683-0.27252 0.30001 0.0174 0.0263-0.10442 0.0509-0.095 0.095 9e-3 0.0438 0.0689 0.15851 0.095 0.18501 9e-3 0.0176 0.0975-0.0265 0.0975 0 0.0355 0.10536 0.11474 0.32478 0.20252 0.37752 0.3874 0.0438 0.38693 0.0438 0.54503 0 0.0878-0.25517-0.2973-0.13946-0.26251-0.48253 0.52816-0.10536 0.69396-0.25601 0.90506-0.81006 0.0964-0.4046 0.22771-0.80054 0.43002-1.1876 0.0348-0.0262 0.0258-0.096 0.0875-0.1225 0.23722 0.39569 0.66958 0.67666 0.88006 1.0901 0.0529 0.53646 0.15829 0.82823 0.34252 0.92505 0.0442 0.0176-5.6e-4 0.18486 0.035 0.22001 0 0.0528 0.0186 0.11336-8e-3 0.17502-0.0181 0.0441-8e-3 0.0961-8e-3 0.14v0.0525c9e-3 0.0795 0.0259 0.0812 0.105 0.14252 0.22855 0.14943 0.53502 0.38594 0.84255 0.21001 0.14078-0.22893-0.15643-0.51798-0.36752-0.66755-0.0704-0.0528-0.19484-0.18449-0.17751-0.27252 0.11465-0.11439 0.19421-0.61553 0.15001-1.0025-0.0174-0.0878-0.0345-0.1772-0.07-0.24753-0.10524-0.20217-0.34273-0.48286-0.54503-0.68503 0.0262-0.0263 0.0614-0.0624 0.105-0.08 0-0.19339-0.0799-0.25438-0.18501-0.39502-0.0885-0.14078-0.28985-0.41451-0.44003-0.50254 0 0-5.6e-4 -8e-3 -0.15001-8e-3 -9e-3 -0.0967 0.0189-0.17703 0.045-0.28251 0-0.0791 0.0626-0.034 0.08-0.21002 0.0442-0.14944 0.0245-0.0631 0.06-0.21251 0.0348-0.0704 0.055-0.14061 0.055-0.25502 0.13137 0.0441 0.39539 0.0352 0.51004 0l0.025 0.0175c0.0355 9e-3 0.0438-0.0437 0.07-0.0525 0.20242-0.10574 0.27313-0.28994 0.44002-0.30752 0 0 0.0888-0.0441 0.22002 0 0.0529 0 0.0975 0.0102 0.0975-0.0425 9e-3 -0.0791 8e-3 -0.14201 0.0525-0.195 0.0348 0.21109 0.13134 0.44886 0.30752 0.67754l0.17501-0.12251c-0.16689-0.20218-0.27181-0.43109-0.29001-0.69504 9e-3 0.0176 0.0175 0.0349 0.035 0.0525 0.0617 0 0.0971-0.13129 0.16751-0.1225 9e-3 -0.0176 0.0277-0.0985 0.045-0.16001h0.65754l0.23752-0.0525v-0.12251l-0.17502-0.0175v-0.14001h-0.045v-0.16001h-0.10501v0.15001l-0.27252-0.0175v-0.0975h-0.105v0.09l-0.28002-0.0275v-0.13251h-0.10751v0.12501l-0.41253-0.0275v-0.0425h-0.30752v-0.08h-0.16751v0.0425c-0.018 9e-3 -0.035 0.0263-0.0525 0.035h-0.0175c-0.29095-0.22868-0.30877 0.23811-0.50253 0.1325-0.0174-0.0968-8e-3 -0.18324-8e-3 -0.29752 0.33441-9e-3 0.21145-0.0982 0.115-0.21251-0.0347-0.0441-0.0538-0.11355-0.0625-0.15751-0.0593-0.21765-0.25706-0.37237-0.55253-0.35752zm0.59254 1.3551c0.0419 1e-5 0.065 0.015 0.065 0.015 0.10536-0.0178 0.20251 9e-3 0.37002 0-0.0269 0.2902-0.23647 0.16667-0.46502 0.32501-0.0617-9e-3 -0.13345-0.01-0.23002-0.01-0.0174-0.19351 0.0527-0.22735 0.0875-0.26252 0.0704-0.0528 0.13062-0.0676 0.17252-0.0675z" enable-background="new" fill="#bebebe"/>
</svg>
