<svg width="16" height="16" version="1.1" xmlns="http://www.w3.org/2000/svg">
	<path d="m7.9629 1c-3.5021 0.018873-6.3962 2.6313-6.8828 6h-0.0019531c-0.0035455 0.02172-0.0045085 0.042782-0.0078125 0.064453-0.017018 0.12614-0.032814 0.25273-0.042969 0.38086-0.014703 0.16499-0.022285 0.32803-0.023438 0.49023-2.889e-4 0.031562-0.0040403 0.062093-0.0039062 0.09375a0.87509 0.87509 0 0 0 0.0019531 0.037109c0.017043 1.1566 0.36679 2.2445 0.94141 3.2812l2.6113-4.3477h-1.709c0.46205-2.4167 2.5693-4.2362 5.127-4.25 2.9074-0.015668 5.2583 2.3074 5.2773 5.2148 0.019016 2.9074-2.3016 5.2628-5.209 5.2852a0.87509 0.87509 0 1 0 0.013672 1.75c3.8524-0.029634 6.9705-3.1925 6.9453-7.0449-0.025197-3.8524-3.1846-6.9758-7.0371-6.9551z" fill="#bebebe"/>
</svg>
