<svg width="16" height="16" version="1.1" xmlns="http://www.w3.org/2000/svg">
	<path fill="#bebebe" d="m2 1c-0.554 0-1 0.446-1 1v13h2 12v-13c0-0.554-0.446-1-1-1h-12zm6 1h1v1h-1v-1zm2 0h1v1h-1v-1zm2 0h1v1h-1v-1zm-9 2h10v9h-10v-9zm4.5176 1c-0.1378 0-0.25 0.1138-0.25 0.2539v0.4941c-0.2463 0.0657-0.482 0.1639-0.6973 0.2891l-0.3515-0.3496c-0.0496-0.0495-0.1078-0.0756-0.1719-0.0762-0.0641-0.0005-0.1291 0.0216-0.1778 0.0703l-0.6875 0.6875c-0.0974 0.0974-0.0931 0.2506 0.0059 0.3497l0.3496 0.3515c-0.1252 0.2153-0.2234 0.451-0.2891 0.6973h-0.4941c-0.1401 0-0.2539 0.1122-0.2539 0.25v0.9648c0 0.1378 0.1138 0.25 0.2539 0.25h0.4941c0.0657 0.2463 0.1639 0.482 0.2891 0.6973l-0.3496 0.3513c-0.0991 0.099-0.1033 0.252-0.0059 0.35l0.6875 0.687c0.0974 0.098 0.2506 0.093 0.3497-0.006l0.3515-0.349c0.2153 0.125 0.451 0.223 0.6973 0.289v0.494c0 0.14 0.1122 0.254 0.25 0.254h0.9648c0.1378 0 0.25-0.114 0.25-0.254v-0.494c0.2463-0.066 0.482-0.164 0.6973-0.289l0.3515 0.349c0.0991 0.1 0.2518 0.104 0.3498 0.006l0.687-0.687c0.098-0.098 0.093-0.251-0.006-0.35l-0.349-0.3513c0.125-0.2153 0.223-0.451 0.289-0.6973h0.494c0.14 0 0.254-0.1122 0.254-0.25v-0.9648c0-0.1378-0.114-0.25-0.254-0.25h-0.494c-0.066-0.2463-0.164-0.482-0.289-0.6973l0.349-0.3515c0.1-0.0991 0.104-0.2523 0.006-0.3497l-0.687-0.6875c-0.098-0.0974-0.2507-0.0932-0.3498 0.0059l-0.3515 0.3496c-0.2153-0.1252-0.451-0.2234-0.6973-0.2891v-0.4941c0-0.1401-0.1122-0.2539-0.25-0.2539h-0.9648zm0.4824 2.4414c0.5841 0 1.0586 0.4745 1.0586 1.0586s-0.4745 1.0586-1.0586 1.0586-1.0586-0.4745-1.0586-1.0586 0.4745-1.0586 1.0586-1.0586z"/>
</svg>
