<svg width="16" height="16" version="1.1" xmlns="http://www.w3.org/2000/svg">
	<path fill="#bebebe" d="m2 1c-0.554 0-1 0.446-1 1v13h2 12v-13c0-0.554-0.446-1-1-1zm6 1h1v1h-1zm2 0h1v1h-1zm2 0h1v1h-1zm-9 2h10v4.5078 4.4922h-10v-4.5078zm0 4.4922c0.6839 2.0858 2.7086 3.5058 5 3.5078 2.287 0 4.31-1.413 5-3.4922-0.684-2.0853-2.709-3.5058-5-3.5078-2.287-0.0001-4.3103 1.413-5 3.4922zm5-2.4922c-1.1046 0-2 0.8954-2 2s0.8954 2 2 2 2-0.8954 2-2c-0.0005-1.0496-0.8124-1.9203-1.8594-1.9941 1.7792 0.0517 3.3264 1.0539 3.8594 2.5-0.552 1.485-2.1705 2.4941-4 2.4941-1.8333-0.001-3.4531-1.0162-4-2.5059 0.5519-1.485 2.1705-2.4942 4-2.4941z"/>
</svg>
