<svg width="16" height="16" version="1.1" xmlns="http://www.w3.org/2000/svg">
	<path d="m8.8038 14.99c0.97936-0.12423 1.8427-0.69762 2.6078-1.2898 1.4284-1.2407 1.8861-3.3657 1.3367-5.1413-0.44092-1.5089-1.6896-2.7528-3.2299-3.1151 0.26172-0.24635 1.339-0.2023 1.8562 0.04866 1.6171 0.65648 2.504 2.4686 2.4563 4.1547-0.13387 0.47549 0.25779 1.3145 0.69014 0.61786 0.78803-1.3673 0.56637-3.1467-0.24117-4.4553-0.8651-1.5003-2.5641-2.5105-4.3134-2.3777-1.5201 0.040504-3.1654 0.69801-3.92 2.0904-0.21907-0.32383 0.24368-1.4095 0.70499-1.8039 1.2151-1.2858 3.2651-1.5817 4.849-0.84314 0.55291 0.38313 1.1217-0.2281 0.53308-0.66631-1.0998-1.282-2.99-1.4158-4.527-1.0154-2.5885 0.6399-4.2092 3.6548-3.3986 6.1758 0.13264 0.57265 0.61248 1.1242 0.81622 1.5692-1.4124-0.44464-2.0916-2.034-1.9521-3.4223 0.061303-1.0667 0.57369-2.0399 1.2236-2.8649 0.53143-0.88762-0.75136-0.72767-1.1225-0.2882-1.479 1.122-1.9837 3.1643-1.6747 4.9334 0.39627 2.2082 2.5789 3.7545 4.7445 3.8604 0.6194 0.042776 1.2261-0.12428 1.7848-0.37913-0.57835 1.0574-1.9181 1.3505-3.0284 1.1458-1.383-0.23314-2.5604-1.1617-3.2775-2.3437-0.71964-0.79718-0.92482 0.66623-0.53885 1.1196 0.99694 2.4931 4.27 3.7854 6.6771 2.5394 1.6432-0.78604 2.9366-2.5062 2.8209-4.3813-0.05537-0.63024 0.43542 0.40442 0.47826 0.60835 0.44289 1.5671-0.57306 3.1583-1.8373 4.0178-0.58345 0.44626-1.3196 0.56939-1.9835 0.83324-0.43506 0.71278 0.90968 0.72699 1.3651 0.67443l0.096379-0.0066z" fill="#bebebe"/>
</svg>
