<svg width="16" height="16" version="1.1" xmlns="http://www.w3.org/2000/svg">
	<path d="m5.5 1a1.5 1.5 0 0 0 -1.5 1.5 1.5 1.5 0 0 0 .1484 .6445l-1.0039 1.0039a1.5 1.5 0 0 0 -.6445 -.1484 1.5 1.5 0 0 0 -1.5 1.5 1.5 1.5 0 0 0 1.5 1.5 1.5 1.5 0 0 0 .4473 -.0703l1.3047 1.7402a1.5 1.5 0 0 0 -.2520 .8301 1.5 1.5 0 0 0 1.5 1.5 1.5 1.5 0 0 0 1.4824 -1.2871l2.2324-.4453a1.5 1.5 0 0 0 1.2852 .7324 1.5 1.5 0 0 0 .447 -.0703l1.305 1.7403a1.5 1.5 0 0 0 -.234 .617l-2.2309.445a1.5 1.5 0 0 0 -1.2871 -.732 1.5 1.5 0 0 0 -1.5 1.5 1.5 1.5 0 0 0 1.5 1.5 1.5 1.5 0 0 0 1.4824 -1.287l2.2306-.445a1.5 1.5 0 0 0 1.287 .732 1.5 1.5 0 0 0 1.5 -1.5 1.5 1.5 0 0 0 -1.5 -1.5 1.5 1.5 0 0 0 -.447 .070l-1.305-1.7399a1.5 1.5 0 0 0 .252 -.8301 1.5 1.5 0 0 0 -1 -1.4121v-2.1758a1.5 1.5 0 0 0 1 -1.4121 1.5 1.5 0 0 0 -1.5 -1.5 1.5 1.5 0 0 0 -1.2871 .7324l-2.2285-.4453a1.5 1.5 0 0 0 -1.4844 -1.2871zm1.2871 2.2676l2.2285.4453a1.5 1.5 0 0 0 .9844 1.1992v2.1758a1.5 1.5 0 0 0 -.9824 1.1992l-2.2324.4453a1.5 1.5 0 0 0 -1.2852 -.7324 1.5 1.5 0 0 0 -.4473 .0703l-1.3047-1.7402a1.5 1.5 0 0 0 .2520 -.8301 1.5 1.5 0 0 0 -.1484 -.6445l1.0039-1.0039a1.5 1.5 0 0 0 .6445 .1484 1.5 1.5 0 0 0 1.2871 -.7324z" fill="#bebebe"/>
</svg>
