<svg width="16" height="16" version="1.1" xmlns="http://www.w3.org/2000/svg">
	<path fill="#bebebe" d="m11 1v4h4v-4h-4zm-1.4434 3.0059c-.0660-0.01-.1344-.0065-.2031.0136l-2.9726.8731c-.2746.0807-.4369.3883-.3633.6894.0735.3012.3543.4792.6289.3985l2.9726-.8731c.2746-.0807.4369-.3883.3633-.6894-.0552-.2259-.2277-.3822-.4258-.4121zm-8.5566 1.9941v4h4v-4h-4zm12.5 0c-.277 0-.5.223-.5.5v3c0 .277.223.5.5.5s.5-.223.5-.5v-3c0-.277-.223-.5-.5-.5zm-2.5 5v4h4v-4h-4zm-4.5566.006c-.1981.030-.3706.186-.4258.412-.0736.301.0887.609.3633.689l2.9726.873c.2746.081.5554-.097.6289-.398.0736-.301-.0887-.609-.3633-.689l-2.9726-.873c-.0687-.021-.1371-.024-.2031-.014z"/>
</svg>
