<svg width="16" height="16" version="1.1" xmlns="http://www.w3.org/2000/svg">
	<path fill="#bebebe" d="m1 1v8.4473c0-.5561.2404-1.079.5801-1.5235a1.0001 1.0001 0 0 1 -.1485 -.5215v-1.1601a1.0001 1.0001 0 0 1 .5684 -.9004v-2.8418-1.5h-1zm1 1.5l2 1.5v-1h2v1l2-1.5-2-1.5v1h-2v-1l-2 1.5zm6 0v5.6602 2.7168 1.287c.2737-.025.5055.017.6816.076.1218.041.2118.093.3184.141v-5.0783c-.1058-.1420-.2010-.3239-.2363-.5918-.0433-.3283.0757-.6399.2363-.8847v-4.8262h-1v1.5zm-7 6.9473v5.5527h1v-3.549c-.0625-.046-.1313-.083-.1895-.135a1.0001 1.0001 0 0 1 -.0078 -.005c-.5134-.467-.8027-1.174-.8027-1.8637zm3.4746-3.4473c-.3413 0-.6823.0219-1.0234.0645-.3413.0396-.6812.0983-1.0196.1777v1.1601c.2501-.1303.5213-.2277.8125-.2929.2913-.0652.6070-.0977.9454-.0977.4177 0 .7250.0566.9218.1699.1970.1106.2949.2865.2949.5274v.1191h-.9316c-.8532 0-1.4788.1299-1.8789.3907-.3970.2606-.5957.6701-.5957 1.2285 0 .4592.1588.8337.4766 1.1227.3206.287.7362.430 1.248.430.3795 0 .7020-.065.9668-.195.2648-.134.5028-.344.7148-.633v.705h1.5938v-2.7168c0-.7625-.1987-1.3131-.5957-1.6504-.3940-.3402-1.0383-.5098-1.9297-.5098zm9.5704.0195c-.325.0802-.583.3848-.441.6797.227.4690.572.9188.558 1.4492-.011 1.0492-.592 2.0496-1.098 2.9826-.043-.737-.151-1.4726-.322-2.1955-.230-.8476-.413-1.753-1.039-2.4609-.379-.4676-1.225-.6133-1.7245-.2090-.5308.4752.3765.6897.4925 1.0469.567.9198.810 1.9555 1.025 2.9725.132.782.331 1.594.117 2.377-.210.593-.765 1.218-1.545 1.223-.4718.015-1.6382-.925-2.0992-.731-1.2828 0-1.2828 1.19 0 1.784.6956.224 2.1032-.206 2.6602-.579 1.416-1.017 2.499-2.358 3.256-3.804.533-1.095 1.062-2.2695 1.119-3.4671.016-.4027-.077-.9655-.623-1.0645-.112-.0315-.227-.0307-.336-.0039zm-9.4591 2.7149h.8203v.1738c0 .3090-.1016.5665-.3046.7734-.2034.2041-.4529.3067-0.75.3067-.2383 0-.4252-.0544-.5606-.1621-.1324-.1106-.1972-.2624-.1972-.4551 0-.2098.0813-.3689.2460-.4766.1677-.1077.4166-.1601.7461-.1601z"/>
</svg>
