<svg width="16" height="16" version="1.1" xmlns="http://www.w3.org/2000/svg">
	<path d="m8 1c-1.6565 3.75e-4 -3 1.3431-3 3 0 1.3039 0.8381 2.4028 2 2.8164v1.1836h-2v1h2v4c-1.4745 0-2.787-0.50965-3.6953-1.3184l1.1953-0.68164-3.5-2v4l1.1855-0.67773a7 6 0 0 0 5.8145 2.6777 7 6 0 0 0 5.8184 -2.6758l1.1816 0.67578v-4l-3.5 2 1.1953 0.68164c-0.90835 0.8087-2.2208 1.3184-3.6953 1.3184v-4h2v-1h-2v-1.1836c1.1619-0.4136 2-1.5125 2-2.8164 0-1.6569-1.3435-2.9996-3-3zm0 1.5c0.81356 0 1.5 0.6856 1.5 1.5s-0.68644 1.5-1.5 1.5-1.5-0.6856-1.5-1.5 0.68644-1.5 1.5-1.5z" fill="#bebebe"/>
</svg>
