<svg width="16" height="16" version="1.1" xmlns="http://www.w3.org/2000/svg">
	<path fill="#bebebe" d="m5.5 1c-.831 0-1.5.669-1.5 1.5v8c0 .831.669 1.5 1.5 1.5h1.5a1.0001 1.0001 0 0 1 1 -1h1v-1h-2.5c-.277 0-.5-.223-.5-.5v-6c0-.277.223-.5.5-.5h3.5.5 2.5v-.5c0-.831-.669-1.5-1.5-1.5h-6zm-3 3c-.831 0-1.5.669-1.5 1.5v8c0 .831.669 1.5 1.5 1.5h6c.3894 0 .7398-.151 1.0059-.393l-1.877-1.607h-.1289-4c-.2770 0-0.5-.223-0.5-0.5v-6-2.5h-0.5zm7.5 0v1h3v-1h-3zm0 2v2h3v-2h-3zm0 3v3h-2l3.5 3 3.5-3h-2v-3h-3z"/>
</svg>
