<svg width="16" height="16" version="1.1" xmlns="http://www.w3.org/2000/svg">
	<path d="m3.6723 9.3609c0.13728 0.085174 0.22572 0.16911 0.35855 0.2754l1.0757 0.99055c0.22448 0.21212 0.79901 0.78813 1.0199 1.0434 0.15069 0.17417 0.2161 0.19285 0.32701 0.36455-0.040675 0.015-0.54326 0.12962-0.83554 0.22944-0.60862 0.20788-1.1629 0.54094-1.6929 0.36255-0.079267-0.0267-0.44008-0.36883-0.60552-0.48455-0.097901-0.06848-0.19112-0.13309-0.30379-0.21127-0.32255-0.2238-0.41501-0.06971 0.013482-1.0609 0.11204-0.25921 0.20692-0.49264 0.31358-0.74674 0.093161-0.22195 0.22151-0.58077 0.32952-0.76239zm7.7295-5.9845c0.22128 0.076386 0.75776 0.38076 0.88927 0.5445 0.1107 0.13781 0.07866 0.15051 0.0377 0.34909l-0.21817 1.6952c-0.3022 0.011006-0.21491-0.024758-0.40225-0.14957-0.31425-0.20931-1.3923-1-1.7384-1.2771l-0.66571-0.53118c0.049102-0.045575-0.016921-0.0217 0.093953-0.050443l0.98539-0.2204c0.51329-0.12776 0.59284-0.16129 1.0182-0.36009zm-8.8344 0.34126c0.22576-0.12583 0.34604-0.030272 0.72687-0.30412 0.10207-0.073392 0.3369-0.066145 0.47946-0.046717 0.14775 0.020149 0.48799 0.30181 0.64404 0.39695 0.090222 0.05502 0.49631 0.36292 0.56252 0.4694l0.20055 0.32149c0.27637 0.013494 0.22781-0.00248 0.57652 0.25089l3.3373 2.1867c0.71765 0.49512 1.555 1.0009 2.2767 1.4999l2.057 1.3367c-0.05931 0.12677-0.12883 0.56404-0.16762 0.73883-0.17821 0.80292-0.40225 1.143-0.76504 1.9152-0.52121 0.02036-0.93259 0.01644-1.4419 0.0084-0.16486-0.0026-0.12426 0.03172-0.21442-0.05504-0.29817-0.28691-0.84051-0.91658-1.1421-1.2069-0.10414-0.10027-0.19787-0.19441-0.30104-0.30358-0.83374-0.88206-0.43907-0.61633-0.60221-0.83592l-1.6776-1.5745c-0.38513-0.37185-0.73215-0.77221-1.1303-1.191-0.10223-0.10754-0.15358-0.209-0.26019-0.30668l-0.029491-0.026406c-0.028483-0.027698-0.017582-0.016251-0.044048-0.046426l-0.48736-0.54997c-0.085851-0.078841-0.077651-0.076203-0.14061-0.14716l-0.43832-0.44892c-0.096383-0.10038-0.17152-0.20428-0.26323-0.31255l-0.41889-0.44114c-0.062346-0.06286-0.10751-0.081652-0.16892-0.14516-0.19917-0.20592-0.36668-0.40308-0.56799-0.6088-0.16111-0.16464-0.55323-0.4811-0.59961-0.57332zm2.0119-2.4601-3.4431 0.070334c-0.18569 0.68042-0.00109 0.33602-6.584e-4 1.0464l-6.584e-4 1.2862c-0.028115 0.3715-0.12666 0.56075-0.12647 1.0575 6.18e-5 0.16728-0.037171 0.55082 0.043831 0.68181 0.14342 0.23193 0.13983 0.42837 0.20022 0.76343 0.053658 0.29769 0.11211 0.26639-0.023093 0.49092l-0.06303 0.56878 0.29424 0.28572 0.00217 0.49953c-0.17514 0.15939 0.020852 0.045941-0.34951 0.31115l0.033114 1.5089 0.36465 0.26288-0.076252 1.2863c-0.38458 0.27374-0.3019 0.60568-0.28962 0.94656l0.04702 1.2828-0.084408 0.65739c0.86183 0.21529 0.67289 0.14853 1.658 0.14847 0.87056-4.6e-5 0.75818 0.0088 1.6186-0.09495l0.022213 0.14566c0.13336-0.0086 0.27107-0.01582 0.40248-0.02851 0.36622-0.03536 0.21989-0.07737 0.34598-0.12273 0.091144-0.03277 1.0724 0.1934 1.2318 0.22752 0.087966-0.09776 0.043169-0.0583 0.16595-0.13711 0.066327 0.13919 0.35017 0.45854 0.46575 0.59744l0.35535-0.33117 0.62166 0.23955 0.18213-0.15209c0.070991 0.08338 0.11427 0.18809 0.24098 0.20457 0.1846 0.02402 0.2147-0.27956 0.62194-0.28726l2.3612-0.07821c0.03031-0.02902 0.04833-0.04619 0.08082-0.07782l0.12068-0.09749c0.15513 0.09285 0.22128 0.18212 0.43404 0.16811 0.65123-0.04287 0.31043 0.15656 1.1509 0.11168 0.14486-0.0078 0.10888-0.0431 0.23666-0.08779l0.27283-0.04183c-0.05924-0.15785-0.09724-0.13563-0.2152-0.25357l1.4957 0.30031c-0.02004-1.7479-0.01626-3.8807 6e-3 -5.6791l-0.4021 0.02982c0.01452-0.11672 0.18982-0.072832 0.20361-0.30753 0.01738-0.29584 0.01421-1.3086-0.02916-1.525-0.02217-0.11062-0.30588-0.43317-0.38171-0.53351 0.0902-0.24359 0.09917-0.22742 0.26627-0.42595-0.0141-0.13068-0.04494-0.16562-0.10142-0.3144l0.43838-0.1426c0.0048-0.25037 0.03318-1.2548 0.01675-1.5723l-0.17756-1.7149 0.13566-0.42872 0.005856-0.44062c-0.37863-0.21674-0.32913-0.24067-0.59204-0.2388-0.23584 0.0017231-0.55372-0.010834-0.7799-0.062214-0.29036-0.066177-0.21241-0.11299-0.5307 0.21142l-0.14444-0.31213c-0.4545-0.033503-1.9118-0.16002-2.2584-0.16002-0.44308 0-0.37888 0.033083-0.52854 0.53256l-0.63597 0.064938-0.084593-0.27309-0.57626-0.0064616 0.061099-0.066801c0.11265-0.10674 0.07316-0.063678 0.16132-0.25158l-2.3176 2.078e-4c-0.076599 0.14067-0.21664 0.24762-0.38175 0.30193-0.23079 0.07616-0.11655-0.046405-0.26235 0.08344-0.10915 0.097171-0.12807 0.09114-0.3002 0.087608-0.2284-0.0045231-0.46267-0.011857-0.69097-0.021215-0.1053-0.0044154-0.22111 0.0062461-0.32234-0.017478-0.15593-0.036626-0.11055-0.076785-0.19583-0.17687" fill="#bebebe" fill-rule="evenodd"/>
</svg>
