<svg width="16" height="16" version="1.1" xmlns="http://www.w3.org/2000/svg">
	<path d="m8.2578 1a0.63558 0.63558 0 0 0 -0.61523 0.4375c-0.33492 0.97501-0.46705 1.7299-0.39258 2.377 0.07447 0.64704 0.42356 1.1856 0.88867 1.4766 0.93022 0.58189 2.0552 0.44221 3.0527 0.46094 0.49875 0.00936 0.96367 0.041287 1.3203 0.13281 0.35664 0.091526 0.58392 0.22311 0.74023 0.43164 0.15632 0.20853 0.2784 0.54566 0.25391 1.1719-0.02449 0.62622-0.2087 1.5173-0.62695 2.707a0.63563 0.63563 0 1 0 1.1992 0.42188c0.44455-1.2645 0.66522-2.2587 0.69727-3.0781 0.032049-0.81947-0.13664-1.4892-0.50781-1.9844s-0.90681-0.7637-1.4395-0.90039-1.0832-0.16192-1.6133-0.17188c-1.0602-0.0199-2.05-0.047167-2.4023-0.26758-0.17618-0.11021-0.26109-0.20202-0.30078-0.54688-0.03969-0.34485 0.0337-0.94418 0.33398-1.8184a0.63558 0.63558 0 0 0 -0.58789 -0.84961zm-4.8418 0.38477a0.63558 0.63558 0 0 0 -0.49609 1.041l9.916 12.33a0.63558 0.63558 0 1 0 0.99023 -0.79688l-9.9141-12.33a0.63558 0.63558 0 0 0 -0.49609 -0.24414zm-0.86914 4.416c-0.22897 0.004754-0.47366 0.018224-0.73633 0.041016a0.63614 0.63614 0 1 0 0.10938 1.2676c0.95005-0.082435 1.5601-0.010587 1.875 0.10547 0.31492 0.11606 0.34821 0.19077 0.39453 0.36719 0.092641 0.35284-0.18567 1.3238-0.4707 2.3457-0.14251 0.51096-0.26963 1.0459-0.26562 1.5996 0.00401 0.55374 0.1678 1.1539 0.60742 1.6152 0.87925 0.92271 2.4895 1.2018 5.4414 0.92773a0.63558 0.63558 0 1 0 -0.11719 -1.2656c-2.8138 0.26121-4.0318-0.14819-4.4043-0.53906-0.18623-0.19544-0.2534-0.40801-0.25586-0.74805-0.00246-0.34003 0.087758-0.78036 0.21875-1.25 0.26198-0.93929 0.75155-1.953 0.47461-3.0078-0.13847-0.52738-0.57545-1.0122-1.1836-1.2363-0.45611-0.16809-1.0006-0.23692-1.6875-0.22266z" fill="#bebebe" />
</svg>
