<svg width="16" height="16" version="1.1" xmlns="http://www.w3.org/2000/svg">
	<path d="m5.4375 1c-0.78773 0-1.4375 0.64977-1.4375 1.4375v3.125c0 0.78773 0.64977 1.4375 1.4375 1.4375h5.125c0.78773 0 1.4375-0.64977 1.4375-1.4375v-3.125c0-0.78773-0.64977-1.4375-1.4375-1.4375zm0 1h5.125c0.25102 0 0.4375 0.18648 0.4375 0.4375v3.125c0 0.25102-0.18648 0.4375-0.4375 0.4375h-5.125c-0.25102 0-0.4375-0.18648-0.4375-0.4375v-3.125c0-0.25102 0.18648-0.4375 0.4375-0.4375zm0 7c-0.79234 0-1.4375 0.64516-1.4375 1.4375v3.125c0 0.79234 0.64516 1.4375 1.4375 1.4375h5.125c0.79234 0 1.4375-0.64516 1.4375-1.4375v-3.125c0-0.79234-0.64516-1.4375-1.4375-1.4375zm0 1.0312h5.125c0.24059 0 0.40625 0.16566 0.40625 0.40625v3.125c0 0.24059-0.16566 0.40625-0.40625 0.40625h-5.125c-0.24059 0-0.40625-0.16566-0.40625-0.40625v-3.125c0-0.24059 0.16566-0.40625 0.40625-0.40625z" fill="#bebebe"/>
</svg>
