<svg width="16" height="16" version="1.1" xmlns="http://www.w3.org/2000/svg">
	<path d="m6.5 3a5.5 5.5 0 0 0-5.5 5.5 5.5 5.5 0 0 0 5.5 5.5 5.5 5.5 0 0 0 1.498-0.21484 5.5 5.5 0 0 0 0.0019531 0 5.5 5.5 0 0 0 1.5 0.21484 5.5 5.5 0 0 0 4.8926-3h-9.791a5.5 5.5 0 0 0 1.7695 2.0215c-1.143-0.034147-2.2693-0.50603-3.0781-1.3145-0.8394-0.839-1.3281-2.0199-1.3281-3.207 0-1.1871 0.48872-2.3676 1.3281-3.207 0.81115-0.81115 1.9415-1.2848 3.0879-1.3164a5.5 5.5 0 0 0-1.7734 2.0234h9.791a5.5 5.5 0 0 0-4.8984-3 5.5 5.5 0 0 0-1.6152 0.24609 5.5 5.5 0 0 1 0.10742-0.033203 5.5 5.5 0 0 0-1.4922-0.21289zm-2.2852 4a5.5 5.5 0 0 0-0.18945 1h10.947a5.5 5.5 0 0 0-0.18359-1h-10.574zm-0.1875 2a5.5 5.5 0 0 0 0.18359 1h10.574a5.5 5.5 0 0 0 0.18945-1h-10.947zm2.4336 4.0801a5.5 5.5 0 0 0 0.10547 0.064453 5.5 5.5 0 0 1-0.10547-0.064453z" fill="#bebebe"/>
</svg>
