<svg width="16" height="16" version="1.1" xmlns="http://www.w3.org/2000/svg">
	<path d="m8.8673 2c-0.38158-0.00239-0.77552 0.13491-0.91361 0.39227-0.05717 0.10656-0.05626 0.2781 0.0032 0.55472 0.07082 0.3294 0.19286 0.51849 0.68641 1.0649 1.1598 1.284 1.2657 1.7049 0.71215 2.8265-0.17299 0.35052-0.32748 0.67317-0.343 0.71716-0.01552 0.043989 0.22371-0.18121 0.5316-0.50057 0.95902-0.99478 1.0337-1.5719 0.38201-2.9569-0.35019-0.7442-0.3582-0.77724-0.2461-1.0449 0.15964-0.38111 0.14622-0.53292-0.07077-0.78455-0.15566-0.1805-0.44512-0.26691-0.7419-0.26874zm3.1815 1.241c-0.11281-0.00778-0.21422 0.040886-0.30923 0.1456-0.19493 0.21485-0.55787 1.0559-0.63052 1.4608-0.05007 0.27912-0.20438 0.64653-0.72059 1.7175-0.04593 0.095298 0.40591-0.21003 0.9309-0.62892 0.36524-0.29143 0.37768-0.31692 0.32853-0.67465-0.05013-0.36482-0.04217-0.37936 0.42624-0.77853 0.59215-0.50461 0.68059-0.7679 0.35266-1.0493-0.14096-0.12094-0.26518-0.18477-0.37799-0.19253zm-6.2847 0.5848c-1.0369 0-1.4579 0.12708-2.235 0.67465-1.3255 0.93405-2.2586 2.3525-2.4875 3.7816-0.29008 1.8112 0.96534 3.8232 2.6793 4.2938 0.48249 0.13248 1.2818 0.15257 1.8445 0.04612 0.89189-0.16872 1.396-0.41902 2.9145-1.4464 0.98752-0.66808 1.4851-0.83053 2.7826-0.90929 1.1511-0.06987 1.4396-0.17076 1.5855-0.55352 0.31082-0.81546-1.0004-1.3384-2.2112-0.88201-0.54567 0.20566-1.4825 0.89703-1.904 1.405-0.52936 0.63798-1.4852 1.3516-2.0166 1.5057-0.98226 0.28483-1.7593 4.8e-4 -2.7657-1.012-1.0153-1.0214-1.5651-2.1744-1.5723-3.2978-0.0061-0.94946 0.33722-1.5627 1.2124-2.1639 1.1598-0.79677 2.3752-0.50345 2.9137 0.70312 0.45118 1.0109 0.23323 1.8173-0.85168 3.1542-0.30034 0.37011-0.53417 0.68559-0.51953 0.70112 0.06203 0.06579 1.757-0.8687 2.247-1.239 1.4478-1.094 1.8195-2.0435 1.247-3.1863-0.30855-0.6159-0.68692-0.96488-1.4255-1.314-0.50851-0.24036-0.62206-0.26111-1.4376-0.26111zm8.6334 5.5873c-0.3426 0.013745-0.75348 0.20589-1.021 0.54509-0.27808 0.35263-0.30278 0.51422-0.10897 0.70754 0.17137 0.17093 0.89472 0.17476 1.2642 0.0068 0.30398-0.13815 0.55067-0.67034 0.44192-0.95301-0.08468-0.22012-0.30976-0.31713-0.57623-0.30644zm-2.6238 1.4279c-0.2588-0.01111-0.54877 0.0019-0.8742 0.03771-0.94263 0.10377-1.3993 0.29983-3.0259 1.2996-1.2726 0.78214-1.7731 1.0258-2.3166 1.1271-0.74192 0.13825-1.9507-0.13672-2.6427-0.60125-0.23141-0.15534-0.4364-0.28237-0.4556-0.28237-0.11742 0 0.41151 0.55908 0.8175 0.86396 0.57597 0.43254 0.91189 0.58224 1.5091 0.67264 0.84917 0.12854 2.0909-0.04125 3.6568-0.49977 1.8201-0.53294 2.166-0.54116 2.7111-0.06378 0.37976 0.33259 0.67375 0.42596 1.1549 0.3666 0.54487-0.06722 0.88302-0.2846 1.1022-0.70834 0.2534-0.48989 0.24238-1.0139-0.03016-1.4247-0.33392-0.50331-0.83007-0.75401-1.6064-0.78736z" fill="#bebebe"/>
</svg>
