<svg width="16" height="16" version="1.1" xmlns="http://www.w3.org/2000/svg">
	<path d="m7 1c-1.662 0-3 1.338-3 3v3h-1c-0.554 0-1 0.446-1 1v1c-0.554 0-1 0.446-1 1v4c0 0.554 0.446 1 1 1h12c0.554 0 1-0.446 1-1v-4c0-0.554-0.446-1-1-1v-1c0-0.554-0.446-1-1-1h-1v-3c0-1.662-1.338-3-3-3h-2zm0 2h2c0.554 0 1 0.446 1 1v3h-4v-3c0-0.554 0.446-1 1-1zm-4.5 7h0.5 10 0.5c0.277 0 0.5 0.223 0.5 0.5v3c0 0.277-0.223 0.5-0.5 0.5h-11c-0.277 0-0.5-0.223-0.5-0.5v-3c0-0.277 0.223-0.5 0.5-0.5zm1.5 1a1 1 0 0 0-1 1 1 1 0 0 0 1 1 1 1 0 0 0 1-1 1 1 0 0 0-1-1zm3 0a1 1 0 0 0-1 1 1 1 0 0 0 1 1 1 1 0 0 0 1-1 1 1 0 0 0-1-1zm3 0a1 1 0 0 0-1 1 1 1 0 0 0 1 1 1 1 0 0 0 1-1 1 1 0 0 0-1-1z" fill="#bebebe"/>
</svg>
