<svg width="16" height="16" version="1.1" xmlns="http://www.w3.org/2000/svg" xmlns:osb="http://www.openswatchbook.org/uri/2009/osb" xmlns:xlink="http://www.w3.org/1999/xlink">
	<path d="m2.5 1c-0.831 0-1.5 0.669-1.5 1.5v11c0 0.831 0.669 1.5 1.5 1.5h11c0.831 0 1.5-0.669 1.5-1.5v-11c0-0.831-0.669-1.5-1.5-1.5h-11zm1 2h9c0.277 0 0.5 0.223 0.5 0.5v9c0 0.277-0.223 0.5-0.5 0.5h-9c-0.277 0-0.5-0.223-0.5-0.5v-9c0-0.277 0.223-0.5 0.5-0.5zm0.5 1v2h2v-2h-2zm2 2v2h2v-2h-2zm2 0h2v-2h-2v2zm2 0v2h2v-2h-2zm0 2h-2v2h2v-2zm0 2v2h2v-2h-2zm-2 0h-2v2h2v-2zm-2 0v-2h-2v2h2z" fill="#bebebe"/>
	<path d="m12 4v2h-2v-2zm-2 2v2h-2v-2zm-2 0h-2v-2h2zm-2 0v2h-2v-2zm0 2h2v2h-2zm0 2v2h-2v-2zm2 0h2v2h-2zm2 0v-2h2v2z" fill="#bebebe" fill-rule="evenodd" opacity=".45"/>
</svg>
