<svg width="16" height="16" version="1.1" xmlns="http://www.w3.org/2000/svg">
	<path d="m7.742 2c-2.086 0.0000012-3.8101 0.75089-5.215 1.9896-0.69046 0.60875-0.75825 1.712 0 1.9896-0.3498 0.3218-0.442 0.8083-0.2025 1.2871l0.20245 0.29533c0.266 0.27289 0.68448 0.37604 0.68448 0.37604-0.3498 0.3879-0.3076 0.9708 0.0977 1.3058l0.16297 0.15544c0.40526 0.33497 1.0192 0.29451 1.3689-0.093263 0 0-0.068881 0.079235 0 0l-3.4876 3.8545c-1.1485 1.0217 0.77024 2.6206 1.923 1.3989l4.661-4.9115 0.8475-0.8704c1.1287-1.1762 3.3873 1.533 1.043 2.1761 0 0-0.96898 0.07041-1.9882 0.03109-0.80579-0.03109-1.4273 2.2328 1.2712 1.9585 4.068 0.055 4.889-3.9794 4.889-5.9379 0-4.0103-3.129-5.0051-6.258-5.0051z" fill="#bebebe"/>
</svg>
