<svg width="16" height="16" version="1.1" xmlns="http://www.w3.org/2000/svg" xmlns:osb="http://www.openswatchbook.org/uri/2009/osb">
	<path d="m13.5 1a1.5 1.5 0 0 0 -1.5 1.5 1.5 1.5 0 0 0 1.5 1.5 1.5 1.5 0 0 0 1.5 -1.5 1.5 1.5 0 0 0 -1.5 -1.5zm-11 1a1.5 1.5 0 0 0 -1.5 1.5 1.5 1.5 0 0 0 1.5 1.5 1.5 1.5 0 0 0 1.5 -1.5 1.5 1.5 0 0 0 -1.5 -1.5zm8.5312 0.22266l-6.1641 0.56055c0.07754 0.2313 0.13281 0.4699 0.13281 0.7168 0 0.09406-0.019349 0.1849-0.03125 0.27734l6.1641-0.56055c-0.077538-0.2313-0.13281-0.4699-0.13281-0.7168 0-0.09406 0.019349-0.1849 0.03125-0.27734zm1.9688 2.7168v5.1211c0.16355-0.037769 0.33013-0.060547 0.5-0.060547s0.33645 0.022778 0.5 0.060547v-5.1211c-0.16355 0.037769-0.33013 0.060547-0.5 0.060547s-0.33645-0.022778-0.5-0.060547zm-11 1v5.1211c0.16355-0.037769 0.33013-0.060547 0.5-0.060547s0.33645 0.022778 0.5 0.060547v-5.1211c-0.16355 0.037769-0.33013 0.060547-0.5 0.060547s-0.33645-0.022778-0.5-0.060547zm5.5 1.0605a1.5 1.5 0 0 0 -1.5 1.5 1.5 1.5 0 0 0 1.5 1.5 1.5 1.5 0 0 0 1.5 -1.5 1.5 1.5 0 0 0 -1.5 -1.5zm2.2969 2.4316c-0.13471 0.30558-0.33088 0.584-0.57031 0.82031l1.9766 1.3164c0.13471-0.30558 0.33088-0.584 0.57031-0.82031l-1.9766-1.3164zm-4.3594 0.42383l-1.582 1.582c0.27609 0.18948 0.51755 0.43094 0.70703 0.70703l1.582-1.582c-0.27609-0.18948-0.51755-0.43094-0.70703-0.70703zm8.0625 1.1445a1.5 1.5 0 0 0 -1.5 1.5 1.5 1.5 0 0 0 1.5 1.5 1.5 1.5 0 0 0 1.5 -1.5 1.5 1.5 0 0 0 -1.5 -1.5zm-11 1a1.5 1.5 0 0 0 -1.5 1.5 1.5 1.5 0 0 0 1.5 1.5 1.5 1.5 0 0 0 1.5 -1.5 1.5 1.5 0 0 0 -1.5 -1.5z" color="#ffffff" enable-background="new" fill="#bebebe"/>
</svg>
