<svg width="16" height="16" version="1.1" xmlns="http://www.w3.org/2000/svg">
	<path d="m1 14c0 0.554 0.446 1 1 1h12c0.554 0 1-0.446 1-1v-12c0-0.554-0.446-1-1-1h-12c-0.554 0-1 0.446-1 1zm1-0.5v-11c0-0.277 0.223-0.5 0.5-0.5h11c0.277 0 0.5 0.223 0.5 0.5v11c0 0.277-0.223 0.5-0.5 0.5h-11c-0.277 0-0.5-0.223-0.5-0.5z" fill="#bebebe"/>
	<path d="m3 3v2h2v-2h-2zm2 2v2h2v-2h-2zm2 0h2v-2h-2v2zm2 0v2h2v-2h-2zm2 0h2v-2h-2v2zm0 2v2h2v-2h-2zm0 2h-2v2h2v-2zm0 2v2h2v-2h-2zm-2 0h-2v2h2v-2zm-2 0v-2h-2v2h2zm-2 0h-2v2h2v-2zm0-2v-2h-2v2h2zm2 0h2v-2h-2v2z" fill="#bebebe" opacity=".45"/>
</svg>
