<svg width="16" height="16" version="1.1" xmlns="http://www.w3.org/2000/svg">
	<path fill="#bebebe" d="m4 1l2 2 2-2h-4zm-1.5 3c-0.831 0-1.5 0.669-1.5 1.5v5c0 0.831 0.669 1.5 1.5 1.5h11c0.831 0 1.5-0.669 1.5-1.5v-5c0-0.831-0.669-1.5-1.5-1.5h-11zm1 2h5.5v1h1v-1h1v1h1v1h-1v1h1v1h-1v-1h-1v1h-6.5c-0.277 0-0.5-0.223-0.5-0.5v-3c0-0.277 0.223-0.5 0.5-0.5zm6.5 3v-1h-1v1h1zm0-1h1v-1h-1v1zm-4 5l-2 2h4l-2-2z"/>
	<path opacity=".3" d="m5 6v1h1v-1zm1 1v1h1v1h-1v1h1 2v-4h-2v1zm0 2v-1h-1v1z" fill="#bebebe"/>
</svg>
