<svg width="16" height="16" version="1.1" xmlns="http://www.w3.org/2000/svg">
	<path d="m8 1c-0.23051 0-0.48028 0.079979-0.65625 0.25586l-1.2656 1.2656 1.3613 1.3613a1.25 1.25 0 0 1 0.56055-0.13281 1.25 1.25 0 0 1 1.25 1.25 1.25 1.25 0 0 1-0.13281 0.56055l1.291 1.291a1.25 1.25 0 0 1 0.49219-0.10156 1.25 1.25 0 0 1 1.25 1.25 1.25 1.25 0 0 1-1.25 1.25 1.25 1.25 0 0 1-1.25-1.25 1.25 1.25 0 0 1 0.072266-0.41992l-1.2129-1.2129v3.4922a1.25 1.25 0 0 1 0.74023 1.1406 1.25 1.25 0 0 1-1.25 1.25 1.25 1.25 0 0 1-1.25-1.25 1.25 1.25 0 0 1 0.75-1.1445v-3.7109a1.25 1.25 0 0 1-0.75-1.1445 1.25 1.25 0 0 1 0.050781-0.3418l-1.4277-1.4277-4.1094 4.1094c-0.35165 0.35224-0.35165 0.92347 0 1.2754l6.1172 6.1211c0.35154 0.35188 0.92332 0.35188 1.2754 0l6.0801-6.084c0.35176-0.35198 0.35176-0.9235 0-1.2754l-6.1172-6.1211c-0.17574-0.17597-0.38863-0.25586-0.61914-0.25586z" fill="#bebebe"/>
</svg>
