<svg width="16" height="16" version="1.1" xmlns="http://www.w3.org/2000/svg">
	<path d="m2 1c-0.554 0-1 0.446-1 1v13h2 12v-13c0-0.554-0.446-1-1-1h-12zm6 1h1v1h-1v-1zm2 0h1v1h-1v-1zm2 0h1v1h-1v-1zm-9 2h10v9h-10v-9zm4.5156 1c-0.13774 0-0.25 0.10991-0.25 0.25v0.5c-0.24629 0.065625-0.47218 0.15602-0.6875 0.28125l-0.35938-0.34375c-0.099064-0.099059-0.24635-0.097404-0.34375 0l-0.6875 0.6875c-0.097399 0.097399-0.099059 0.24469 0 0.34375l0.34375 0.35938c-0.12523 0.21532-0.21563 0.44121-0.28125 0.6875h-0.5c-0.14009 0-0.25 0.11226-0.25 0.25v0.96875c5e-5 0.13775 0.1099 0.25 0.25 0.25h0.5c0.065619 0.24629 0.15602 0.47218 0.28125 0.6875l-0.34375 0.35938c-0.099059 0.09906-0.097399 0.24635 0 0.34375l0.6875 0.6875c0.097399 0.09739 0.24469 0.09905 0.34375 0l0.35938-0.34375c0.21532 0.12523 0.44121 0.21563 0.6875 0.28125v0.5c-1.6e-6 0.14009 0.11226 0.25 0.25 0.25h0.96875c0.13774 0 0.25-0.1099 0.25-0.25v-0.5c0.24629-0.06563 0.47218-0.15602 0.6875-0.28125l0.35938 0.34375c0.09906 0.09906 0.24635 0.09741 0.34375 0l0.6875-0.6875c0.09739-0.09739 0.09905-0.24469 0-0.34375l-0.34375-0.35938c0.12523-0.21532 0.21563-0.44121 0.28125-0.6875h0.5c0.1401 0 0.25-0.11226 0.25-0.25v-0.96875c0-0.13774-0.1099-0.25-0.25-0.25h-0.5c-0.06562-0.24629-0.15602-0.47218-0.28125-0.6875l0.34375-0.35938c0.04953-0.04953 0.077585-0.10778 0.078125-0.17188 5.48e-4 -0.064099-0.029435-0.12318-0.078125-0.17188l-0.6875-0.6875c-0.0974-0.097399-0.24469-0.099059-0.34375 0l-0.35938 0.34375c-0.21532-0.12523-0.44121-0.21563-0.6875-0.28125v-0.5c0-0.1401-0.11226-0.25-0.25-0.25h-0.96875zm0.48438 2c0.82844 0 1.5 0.67156 1.5 1.5 0 0.82844-0.67156 1.5-1.5 1.5s-1.5-0.67156-1.5-1.5c0-0.82844 0.67156-1.5 1.5-1.5z" fill="#bebebe"/>
</svg>
