<svg width="16" height="16" version="1.1" xmlns="http://www.w3.org/2000/svg">
	<path d="m9.2625 1c-0.083116 0.03915-0.17841 0.0682-0.25305 0.12205-0.14453 0.1047-0.28535 0.2164-0.41452 0.33695-0.14241 0.13215-0.28905 0.2077-0.49658 0.24805-0.49817 0.09535-1.0043 0.2012-1.4702 0.3857-1.036 0.4117-1.7212 1.1866-2.2097 2.1191-0.43374 0.8291-0.44083 1.7286-0.40531 2.6321 0.073269 1.8625 1.5128 3.2225 2.1412 4.656h-0.085764c-0.26629 0-0.26871 0.1665-0.26871 0.374v0.752c0 0.2075-0.087182 0.624 0.17909 0.624h-0.52378c-0.3196 0-0.55529 0.23537-0.55529 0.5119v0.7391c0 0.2765 0.23568 0.499 0.55529 0.499h5.1091c0.31976 0 0.63539-0.2225 0.63539-0.499v-0.7391c0-0.2765-0.31562-0.5119-0.63539-0.5119h-0.43378c0.26629 0 0.21102-0.4165 0.21102-0.624v-0.752c0-0.2075-0.03473-0.374-0.30102-0.374h-0.20519c0.15882-0.139 0.85123-0.389 0.99258-0.531 0.5188-0.5938 0.37176-1.8185 0.30652-2.3335-0.22076-0.381-0.53046-0.6895-0.88834-0.954-0.40287-0.297-0.81898-0.578-1.2256-0.871-0.11594-0.0835-0.34201-0.41287-0.49712-0.54435 0.38329 0.0765 0.81157 0.40487 1.1197 0.41937 0.53205 0.025 0.99157 0.192 1.4177 0.4845 0.16464 0.113 0.35523 0.203 0.54793 0.2655 0.25041 0.0815 0.37588 0.0235 0.52517-0.1905 0.03918-0.056 0.063-0.121 0.10059-0.195 0.29647 0.0035 0.45899-0.1585 0.54052-0.417 0.02806-0.0885 0.07517-0.171 0.10959-0.257 0.23082-0.577 0.11223-1.0875-0.32929-1.5322-0.09901-0.10195-0.216-0.1865-0.31923-0.2842-0.34464-0.3248-0.69034-0.64785-1.026-0.98045-0.24352-0.2419-0.46323-0.50515-0.7094-0.7451-0.12176-0.11825-0.22447-0.236-0.28111-0.39455-0.085233-0.2376-0.24617-0.4203-0.47964-0.54395-0.083116-0.0438-0.25411-0.1291-0.31394-0.16555-0.096351-0.2651-0.025941-0.56325-0.16306-0.72995z" fill="#bebebe"/>
</svg>
