<svg width="16" height="16" version="1.1" xmlns="http://www.w3.org/2000/svg">
	<path d="m8 1a7 7 0 0 0-7 7 7 7 0 0 0 7 7 7 7 0 0 0 7-7 7 7 0 0 0-7-7zm0 0.5a6.5 6.5 0 0 1 6.2598 4.7461c-0.29697 0.54157-0.94775 0.18812-1.4238-0.44141-0.52723-0.69716-0.83603-1.9663-2.1562-2.7285-1.2495-0.72138-2.9036-1.2525-4.4863-1.3164a6.5 6.5 0 0 1 1.8066-0.25977zm-2.9648 1.0371c0.92881-0.077959 1.6573 0.6451 2.3047 1.2109 1.2897 1.2087 2.5077 2.4999 3.8887 3.6094 0.9167 0.79436 1.9262 1.6227 3.1621 1.8047a6.5 6.5 0 0 1-0.17383 0.72656c-0.58301 0.076166-1.1978-0.32995-1.7715-0.46875-1.9942-0.79341-3.7674-2.0353-5.5039-3.2754-0.85372-0.67397-1.9414-1.3574-2.9512-1.3574-0.88904 0-1.615 0.55442-2.1699 1.2109a6.5 6.5 0 0 1 1.8965-2.877c0.39783-0.28054 0.83236-0.4996 1.3184-0.58398zm-2.0586 7.6289c0.14039-0.003742 0.28207 0.015498 0.41211 0.058593 0.86429 0.2226 1.5869 0.79684 2.4453 1.043 2.3739 0.8998 5.0841 1.2931 7.5215 0.41406a6.5 6.5 0 0 1-1.123 1.2422c-2.0792 0.6226-4.3406 0.47253-6.3984-0.17188-0.094769-0.02348-0.19359-0.03479-0.29102-0.019531-0.46138 0.14835-0.50023 0.72975-0.28516 1.1523a6.5 6.5 0 0 1-3.1562-3.1699c0.1363-0.35627 0.5001-0.53884 0.875-0.54883z" fill="#bebebe" fill-rule="evenodd"/>
</svg>
