<svg width="16" height="16" version="1.1" xmlns="http://www.w3.org/2000/svg">
	<path d="m12.105 9.4051c-0.52921-0.2232-0.97032-0.67689-1.2992-1.1364-0.37741-0.52761-0.76395-1.0461-1.1869-1.5379-0.39768-0.46189-0.8206-0.90455-1.2799-1.3045-0.45836-0.39945-0.95725-0.77932-1.5066-1.0432-0.36831-0.17759-0.74774-0.3111-1.1404-0.42373-0.044495-0.012377-0.1644-0.066813-0.19979-0.012125-0.021757 0.033882-0.0051 0.097167-5.6e-4 0.13461 0.00963 0.081458 0.019265 0.16269 0.029374 0.24381 0.11738 0.97436 0.16191 2.0029-0.14065 2.9492-0.16238 0.50994-0.45836 0.97593-0.853 1.3372-0.32732 0.29901-0.79428 0.60188-1.2582 0.58023-0.085462-0.0036122-0.17146-0.018313-0.2565-0.046511-0.49681-0.16759-0.52563-0.70369-0.52815-1.1449-0.0040603-0.47399 0.053652-0.9475 0.17098-1.407 0.035395-0.14166 0.079918-0.28024 0.12696-0.41888 0.54293-1.5736 1.7985-2.8554 3.3759-3.414 0.59093-0.20943 1.2162-0.31516 1.8425-0.31516 1.8446 0 3.5991 0.94834 4.613 2.4888 0.25398 0.3862 0.45733 0.80439 0.60706 1.2405h-2e-3c0.04752 0.13864 0.09204 0.27722 0.12847 0.41888 0.11629 0.45946 0.17403 0.93297 0.17095 1.407-0.0071 0.89245-0.29343 1.8768-1.4135 1.4045m2.6206-3.3496c-0.84283-2.9192-3.5333-5.0549-6.7247-5.0549-3.1908 0-5.8818 2.1358-6.7247 5.0549-0.17834 0.61809-0.27593 1.2697-0.27593 1.945 0 0.43336 0.041555 0.85751 0.11744 1.2693 0.59723 3.2603 3.4507 5.7306 6.8832 5.7306 3.433 0 6.2859-2.4702 6.884-5.7306 0.07555-0.41183 0.11646-0.83597 0.11646-1.2693 0-0.6753-0.09809-1.3269-0.27596-1.945" fill="#bebebe"/>
</svg>
