<svg width="16" height="16" version="1.1" xmlns="http://www.w3.org/2000/svg">
	<path d="m 5,1 -3,3 8,8 5,2 -2,-5 z m 6.025708,7.971006 1.014315,1.034506 L 13,12 10.9673,11.052792 9.985148,10.033134 z M 3,13 c -0.552,0 -0.9999999,0.448001 -1,1 0,0.552 0.4480001,1.000001 1,1 0.552,0 1.0000002,-0.447999 1,-1 0,-0.552 -0.4479998,-0.999999 -1,-1 z m 3,0 c -0.552,0 -1,0.448001 -1,1 0,0.552 0.448,1.000001 1,1 0.552,0 1.0000001,-0.447999 1,-1 0,-0.552 -0.4479999,-0.999999 -1,-1 z m 3,0 c -0.552,0 -1,0.448001 -1,1 0,0.552 0.448,1.000001 1,1 0.552,0 1,-0.447999 1,-1 0,-0.552 -0.448,-0.999999 -1,-1 z" fill="#bebebe"/>

</svg>
