<svg width="16" height="16" version="1.1" xmlns="http://www.w3.org/2000/svg">
	<path d="M 8.2890625 1 C 5.9833625 1 4.2319563 1.5922969 3.0351562 2.7792969 C 1.8450962 3.9595969 1.25 5.7452125 1.25 8.1328125 C 1.25 9.2520125 1.4117481 10.237137 1.7363281 11.091797 C 2.0609281 11.946497 2.5281587 12.66667 3.1367188 13.25 C 3.7453187 13.82656 4.4791506 14.26406 5.3378906 14.5625 C 6.2033906 14.85416 7.1729469 15 8.2480469 15 C 9.2217469 15 10.131322 14.910735 10.976562 14.734375 C 11.821762 14.558025 12.637485 14.341734 13.421875 14.083984 L 13.421875 9.8144531 L 14.75 9.5488281 L 14.75 9 L 9.7285156 9 L 9.7285156 9.5488281 L 11.472656 9.8144531 L 11.472656 13.523438 C 11.344176 13.598057 11.168432 13.676412 10.945312 13.757812 C 10.722163 13.839192 10.466531 13.914622 10.175781 13.982422 C 9.8917812 14.050252 9.5832731 14.106897 9.2519531 14.154297 C 8.9273631 14.194997 8.5989081 14.216797 8.2675781 14.216797 C 7.6116781 14.216797 6.9876081 14.118575 6.3925781 13.921875 C 5.8042781 13.725155 5.2831181 13.391858 4.8300781 12.923828 C 4.3837781 12.455828 4.029335 11.832774 3.765625 11.052734 C 3.501905 10.265934 3.3691406 9.2847281 3.3691406 8.1113281 C 3.3691406 6.9514281 3.4819381 5.972275 3.7050781 5.171875 C 3.9349681 4.364675 4.26151 3.7119669 4.6875 3.2167969 C 5.1135 2.7216669 5.63468 2.3655075 6.25 2.1484375 C 6.872 1.9246075 7.5780006 1.81252 8.3691406 1.8125 C 9.0926406 1.81252 9.7805475 1.9047606 10.429688 2.0878906 C 11.085588 2.2642506 11.646711 2.5192125 12.113281 2.8515625 L 12.386719 4.5410156 L 13.066406 4.5410156 L 13.066406 1.609375 C 12.349606 1.419465 11.592822 1.2706494 10.794922 1.1621094 C 10.003722 1.0535194 9.1680925 1.00002 8.2890625 1 z" fill="#bebebe"/>
</svg>
