<svg width="16" height="16" version="1.1" xmlns="http://www.w3.org/2000/svg">
	<path d="m8 1a7 7 0 0 0-7 7 7 7 0 0 0 7 7 7 7 0 0 0 7-7 7 7 0 0 0-7-7zm0 1.5a5.5 5.5 0 0 1 5.5 5.5 5.5 5.5 0 0 1-5.5 5.5 5.5 5.5 0 0 1-5.5-5.5 5.5 5.5 0 0 1 5.5-5.5zm-2.0137 1.5039 0.013672 0.99609 0.98633 0.017578 0.17578 0.49023 0.17773 0.49219-0.68945 1.1387c-0.3783 0.62637-0.75592 1.2589-0.83984 1.4043-0.083914 0.1454-0.5379 0.83457-0.80469 1.2734-0.80276 1.3205-0.80182 1.1849-0.0058594 1.1836l0.68555-0.001953 1.1738-1.752c0.5536-0.84751 1.0354-1.541 1.0703-1.541 0.072981 0 0.038002-0.1511 0.66602 1.5176 0.26448 0.70274 0.52387 1.3882 0.57617 1.5215 0.052299 0.13328 0.1416 0.24219 0.19727 0.24219 0.15572 0 1.3266-0.33489 1.7148-0.49023l0.3457-0.13867-0.16406-0.44531c-0.089677-0.24534-0.17488-0.45809-0.18945-0.47266-0.014569-0.014566-0.24372 0.047912-0.50977 0.13867-0.45165 0.15408-0.4876 0.15512-0.54688 0.015625-0.034915-0.082167-0.27739-0.65663-0.53906-1.3594-0.26167-0.70274-0.72983-1.9412-1.0391-2.752l-0.56055-1.4746-1.8945-0.0039063z" fill="#bebebe"/>
</svg>
