<svg width="16" height="16" version="1.1" xmlns="http://www.w3.org/2000/svg">
	<path d="m8.0117 2c-1.5984-0.0028954-3.1966 0.076722-3.5 0.24219-0.60689 0.33093-3.5104 5.082-3.5117 5.7461-0.0013366 0.66406 2.8827 5.4227 3.4883 5.7559 0.60555 0.33313 6.3931 0.3446 7 0.013671 0.60689-0.33093 3.5104-5.082 3.5117-5.7461 0.001337-0.66406-2.8827-5.4227-3.4883-5.7559-0.30278-0.16656-1.9016-0.25296-3.5-0.25586zm-0.0019532 1.4238c0.77174 0.0013981 1.5469 0.023207 2.1328 0.0625 0.24673 0.016546 0.4313 0.037459 0.58398 0.056641 0.037293 0.046418 0.093575 0.1236 0.13672 0.17969l-2.8633 2.8633-2.8574-2.8574c0.04839-0.061976 0.10952-0.14485 0.15039-0.19531 0.15266-0.018608 0.33724-0.039061 0.58398-0.054688 0.58584-0.037102 1.361-0.056086 2.1328-0.054688zm3.9824 1.998c0.066856 0.10786 0.12529 0.18776 0.19141 0.29688 0.38463 0.63476 0.75072 1.2843 1.0078 1.7852 0.10806 0.21051 0.18336 0.37096 0.24219 0.50586-0.059366 0.13477-0.13487 0.29703-0.24414 0.50781-0.25913 0.49988-0.62841 1.144-1.0156 1.7773-0.063244 0.10344-0.11972 0.17881-0.18359 0.28125l-2.5762-2.5762 2.5781-2.5781zm-7.9824 0.0019531 2.5762 2.5762-2.5781 2.5781c-0.066857-0.10786-0.12529-0.18776-0.19141-0.29688-0.38463-0.63476-0.75072-1.2843-1.0078-1.7852-0.10806-0.21051-0.18336-0.37096-0.24219-0.50586 0.059366-0.13477 0.13487-0.29703 0.24414-0.50781 0.25913-0.49988 0.62841-1.144 1.0156-1.7773 0.063244-0.10344 0.11972-0.17881 0.18359-0.28125zm3.9902 3.9902 2.8574 2.8574c-0.04839 0.061976-0.10952 0.14486-0.15039 0.19531-0.15271 0.018601-0.33718 0.039074-0.58398 0.054687-0.58598 0.03707-1.361 0.05612-2.1328 0.054688-0.77185-0.001434-1.547-0.023257-2.1328-0.0625-0.24668-0.016524-0.43135-0.037478-0.58398-0.056641-0.037292-0.046418-0.093575-0.1236-0.13672-0.17969l2.8633-2.8633z" fill="#bebebe"/>
</svg>
