<svg width="16" height="16" version="1.1" xmlns="http://www.w3.org/2000/svg">
	<path d="M 5.515625 1.1679688 C 5.429316 1.3230788 5.4488388 1.5336106 5.5742188 1.9003906 C 5.7748188 2.4787906 5.8884791 3.0260831 5.9707031 3.8144531 C 6.0231891 4.2996531 6.021233 6.4524719 5.96875 7.0449219 C 5.78675 9.1377219 5.3343356 10.659106 4.5097656 11.941406 C 3.7878656 13.065106 2.6486906 14.082731 1.2753906 14.832031 C 1.1272706 14.914251 1.0078125 14.983234 1.0078125 14.990234 L 1 14.996094 C 1 15.011844 1.2144744 14.988529 1.7089844 14.917969 C 2.9539844 14.736019 3.8862381 14.391647 4.6425781 13.835938 C 4.9901081 13.582838 5.5753631 12.943067 5.8144531 12.560547 C 6.1655031 11.996047 6.4560931 11.229514 6.6269531 10.427734 L 6.7050781 10.056641 L 7.1074219 10.632812 C 9.0936219 13.481913 10.1679 14.516141 11.375 14.744141 C 12.0923 14.881181 14.814327 14.701412 14.992188 14.507812 C 15.031258 14.469322 14.929681 14.358308 14.806641 14.298828 C 14.750081 14.273748 14.435355 14.144901 14.109375 14.019531 C 13.373485 13.734971 13.061861 13.591142 12.519531 13.294922 C 11.653531 12.823822 11.138274 12.44682 10.402344 11.75 C 9.8710433 11.2467 9.3324344 10.566756 8.3964844 9.2226562 C 8.0139444 8.6692763 7.802085 8.3754644 7.421875 7.8652344 L 7.28125 7.6738281 L 7.3007812 6.7285156 C 7.3392712 4.9745156 7.4899906 3.718975 7.8066406 2.546875 C 7.9891686 1.865795 7.9998686 1.8042365 7.9316406 1.7109375 C 7.8721406 1.6263875 7.7209156 1.5694031 6.6660156 1.2207031 C 5.8094256 0.94022312 5.643335 0.93121875 5.515625 1.1679688 z M 10.708984 3.4238281 C 10.683904 3.4559081 10.61732 3.664955 10.5625 3.890625 C 10.41438 4.519265 10.40882 4.5338863 9.84375 5.1601562 C 9.43375 5.6155562 8.7756306 6.3806075 8.2128906 7.0546875 L 8.2148438 7.0546875 C 8.1396187 7.1409915 8.1377289 7.1559901 8.1855469 7.1425781 C 8.9978469 6.9081581 9.2498371 6.7978319 10.523438 6.1074219 C 11.616838 5.5132219 11.906752 5.3738525 12.257812 5.2578125 C 12.638033 5.1324425 12.720703 5.0842911 12.720703 4.9863281 C 12.720703 4.9268481 12.679624 4.8608194 12.583984 4.7558594 C 12.428884 4.5966594 11.313184 3.6345631 11.089844 3.4707031 C 10.925984 3.3523301 10.784214 3.3328621 10.708984 3.4238281 z M 2.0644531 4.2011719 C 1.9798931 4.4180919 2.0340369 4.6980669 2.2480469 5.1855469 C 2.6894469 6.1809669 3.2876994 6.9367012 3.8183594 7.1757812 L 3.8203125 7.1757812 C 4.0185825 7.2650002 4.1708781 7.2661926 4.3300781 7.1816406 C 4.5808281 7.0498506 4.7401701 6.6793881 4.7675781 6.1738281 C 4.7856581 5.8251281 4.7430106 5.6375737 4.5878906 5.3710938 C 4.3872906 5.0293937 3.8802063 4.61596 3.2539062 4.28125 C 2.6095663 3.937213 2.1781631 3.9096119 2.0644531 4.2011719 z " fill="#bebebe"/>
</svg>
