<svg width="16" height="16" version="1.1" xmlns="http://www.w3.org/2000/svg">
	<path d="m7.999 1c-0.39925 0-0.7879 0.15302-1.0938 0.46959l-5.4369 5.6265c-0.2998 0.3102-0.4623 0.7211-0.4683 1.126-0.00008747 0.00615 0 0.024092 0 0.030848-0.00005247 1.2047 3.2291 0.019876 3.5191 1.4927 0.15698 0.79716-1.769 0.4508-1.769 1.2528 0 0.94085 2.7063 0.27842 3.4798 1.054 0.31772 0.77558-1.0369 0.65896-0.79646 1.3796 0.45309 0.46884 1.4706 0.20982 1.6664 0.9666 0.22364 0.86446 1.6987 0.7119 2.5535 0.07883 0.45309-0.4688-0.70434-0.69659-0.25124-1.1654s2.7047-0.37741 2.7209-1.4019c-0.21386-0.64359-1.0587-0.73036-1.0716-1.491-0.04515-0.64418 0.67059-0.46434 2.991-1.1054 0.92784-0.43601 0.95897-0.65935 0.95541-1.0609-0.00007-0.0079 0-0.022337 0-0.030848-0.0053-0.40489-0.16846-0.81572-0.4683-1.126l-5.4362-5.6264c-0.3059-0.3166-0.6946-0.4696-1.0938-0.4696zm0.11622 1.186c0.41116 0.00351 1.5413 1.4072 2.5466 2.4508 0.28276 0.37918-0.12306 0.74209-0.12306 0.74209l-2.0957-1.1398-0.94 1.2631-0.805-1.2219-0.5025 1.8972-1.4408-0.8587 0.3812-0.5038 2.2663-2.3171c0.1741-0.1774 0.3091-0.3151 0.7127-0.3119zm6.2401 8.4423c-0.11058-0.0035-0.2153 0.0087-0.29397 0.03085-0.14832 0.04282-0.868 0.06281-0.81013 0.59812 0.63657 0.26755 1.6208 0.47368 1.7365-0.0617 0.0869-0.40144-0.30058-0.55499-0.63238-0.56728zm-10.663 1.783c-0.12622-0.01114-0.25016 0.0019-0.37088 0.04799-0.48275 0.18406-0.80652 0.59178-0.3555 0.76093 0.45107 0.16913 0.77022-0.02327 1.1656-0.23308 0.39546-0.20985 0.3858-0.2498 0.35721-0.33077-0.054867 0.01097-0.41782-0.21172-0.79646-0.24508z" fill-rule="evenodd" fill="#bebebe"/>
</svg>
