<svg width="16" height="16" version="1.1" xmlns="http://www.w3.org/2000/svg">
	<path d="m3 1c-0.554 0-1 0.446-1 1v8c0 0.554 0.446 1 1 1v-1h1v1h1v-1.5c0-0.277 0.223-0.5 0.5-0.5h5c0.277 0 0.5 0.223 0.5 0.5v1.5h1v-1h1v1c0.554 0 1-0.446 1-1v-8c0-0.554-0.446-1-1-1h-2v1.5c0 0.277-0.223 0.5-0.5 0.5h-5c-0.277 0-0.5-0.223-0.5-0.5v-1.5h-2zm0 1h1v1h-1v-1zm9 0h1v1h-1v-1zm-9 2h1v1h-1v-1zm2.5 0h5c0.277 0 0.5 0.223 0.5 0.5v3c0 0.277-0.223 0.5-0.5 0.5h-5c-0.277 0-0.5-0.223-0.5-0.5v-3c0-0.277 0.223-0.5 0.5-0.5zm6.5 0h1v1h-1v-1zm-9 2h1v1h-1v-1zm9 0h1v1h-1v-1zm-9 2h1v1h-1v-1zm9 0h1v1h-1v-1zm-7 4l3 3 3-3h-6z" fill="#bebebe"/>
</svg>
