<svg width="16" height="16" version="1.1" xmlns="http://www.w3.org/2000/svg">
	<path d="m12.5 1c-2.295 0-4.4515 0.8723-6.0742 2.4551-1.6226 1.5826-2.5176 3.6857-2.5176 5.9238 0 0.21258 0.0087907 0.42879 0.025391 0.64258h1.207c-0.0196-0.21607-0.029297-0.43229-0.029297-0.64258 0-3.9738 3.3148-7.207 7.3887-7.207 0.16233 0 0.33064 0.0068781 0.5 0.017578v-1.1758c-0.17404-0.01-0.33799-0.013672-0.5-0.013672zm0 2.3965c-3.3825 0-6.1348 2.6835-6.1348 5.9824 0 0.21215 0.011656 0.42837 0.035156 0.64258h1.2129c-0.0292-0.21329-0.044922-0.42947-0.044922-0.64258 0-2.6524 2.2124-4.8105 4.9316-4.8105 0.16562 0 0.33397 0.0088906 0.5 0.025391v-1.1777c-0.16819-0.0132-0.33653-0.019531-0.5-0.019531zm0 2.416c-2.0164 0-3.6562 1.5999-3.6562 3.5664 0 0.21233 0.018694 0.42858 0.058594 0.64258h1.1484c-0.0578-0.21008-0.08789-0.4263-0.08789-0.64258 0-1.3644 1.1385-2.4727 2.5371-2.4727 0.16754 0 0.33588 0.014875 0.5 0.046875v-1.1055c-0.16815-0.0225-0.33649-0.035156-0.5-0.035156zm-0.51562 2.1875c-0.13476 0-0.26185 0.026853-0.37891 0.078125-0.11716 0.051486-0.22397 0.12317-0.31445 0.21484-0.09057 0.091779-0.16157 0.19934-0.21289 0.32031-0.05132 0.12078-0.078125 0.2532-0.078125 0.39258 0 0.13564 0.026825 0.26393 0.078125 0.38281 0.05132 0.11914 0.12237 0.22656 0.21289 0.31641 0.09057 0.089967 0.19719 0.16163 0.31445 0.21484 0.11684 0.053085 0.24416 0.080078 0.37891 0.080078 0.1385 0 0.27012-0.026994 0.39258-0.080078 0.12248-0.053191 0.23172-0.12477 0.32422-0.21484 0.09222-0.08986 0.16555-0.19722 0.21875-0.31641 0.05306-0.11889 0.080078-0.24736 0.080078-0.38281 0-0.13926-0.026908-0.27179-0.080078-0.39258-0.053169-0.12098-0.12643-0.22849-0.21875-0.32031-0.092426-0.091672-0.20188-0.16342-0.32422-0.21484-0.12257-0.051379-0.2541-0.078125-0.39258-0.078125zm-0.5918 3c-0.23174 0-0.39258 0.14714-0.39258 0.35742v3.2852c0 0.21029 0.16085 0.35742 0.39258 0.35742h1.2148c0.23175 0 0.39258-0.14714 0.39258-0.35742v-3.2852c0-0.21029-0.16083-0.35742-0.39258-0.35742h-1.2148z" fill="#bebebe"/>
</svg>
