<svg width="16" height="16" version="1.1" xmlns="http://www.w3.org/2000/svg">
	<path d="m2.5289 3.0001 9.13e-5 0.69323 0.8918 0.070205 0.14441 0.21059-1.4355 8.0167-0.22083 0.21942-0.90887 0.07018v0.71948l3.9753 6.3e-5 1.218e-4 -0.71942-0.88352-0.06156-0.1529-0.22816 0.58608-3.4275h0.90038l1.2911 2.8079c0.5277 1.1197 0.89789 1.5998 2.0386 1.6147 0.328 0.0044 0.45995 0.02923 1.3448 0 3.0519-2.6322 4.6098-4.6386 4.8559-5.5458 0.14907-0.54942-0.0876-0.8864-0.59474-0.8864-0.24738 0-0.5306 0.10762-0.84928 0.32484l-0.22936 1.8865c-0.62462 0.8433-1.4573 1.7619-2.4718 2.7202l0.67102-3.6241c0.13925-0.74115 0.18516-1.1366-0.28036-1.2899l-2.081 0.47393-0.1103 0.40357 0.9597 0.15805c0.06672 0.25552-0.0072 0.81104-0.1529 1.6672l-0.46717 2.6587c-0.0073 0.02736-0.01199 0.05734-0.01699 0.08775-0.30293-0.16814-0.49389-0.46755-0.71351-0.9213l-1.8262-3.7733 3.3382-3.4924 1.1382-0.11407-1.52e-4 -0.71958-3.5674 3.1e-5 1.522e-4 0.71964 0.88325 0.070113 0.08494 0.23693-3.5761 3.8083h-0.42471l0.70502-3.8609 0.18687-0.21059 0.94284-0.070175-9.13e-5 -0.69329z" fill="#bebebe"/>
</svg>
