<svg width="16" height="16" version="1.1" xmlns="http://www.w3.org/2000/svg">
	<path d="M 4.7382812 4.0351562 C 3.0254812 4.2597562 1.6999313 5.2855781 1.2070312 6.7675781 C 0.80486125 7.9767781 1.019625 9.2632406 1.796875 10.306641 C 1.970085 10.539171 2.3735619 10.942948 2.6074219 11.117188 C 2.8437219 11.293237 3.1779119 11.492912 3.4199219 11.601562 C 3.8175519 11.780063 4.3438587 11.927147 4.7304688 11.96875 C 4.9490888 11.99227 5.6959656 11.979989 5.8847656 11.949219 C 6.5538656 11.840179 7.0565188 11.651626 7.5742188 11.316406 C 7.9430088 11.077616 8.3021 10.778219 8.4375 10.599609 C 8.505887 10.509409 8.5175781 10.482759 8.5175781 10.417969 C 8.5175781 10.227769 8.01872 9.2074828 7.90625 9.1679688 C 7.81867 9.1372087 7.7797141 9.1651338 7.7050781 9.3085938 C 7.6166281 9.4786037 7.4627875 9.6572062 7.2421875 9.8476562 C 6.9211575 10.124806 6.6382613 10.308533 6.3320312 10.439453 C 6.0089813 10.577543 5.8730394 10.597656 5.2558594 10.597656 C 4.7440694 10.597656 4.5906887 10.583479 4.3867188 10.511719 C 3.4519087 10.182819 2.6851775 9.4271244 2.5234375 8.6777344 C 2.4978495 8.5592044 2.4939094 8.4522006 2.4941406 7.9628906 C 2.4944606 7.3016206 2.496215 7.2867469 2.640625 6.9980469 C 2.839465 6.6005369 3.1124181 6.2608987 3.4863281 5.9492188 C 3.9008281 5.6036588 4.3042331 5.4434466 4.9394531 5.3691406 C 5.3289331 5.3235816 5.6029719 5.341932 5.9824219 5.4375 C 6.7428119 5.629 7.2425256 5.9912394 7.6660156 6.6621094 C 7.7820656 6.8459494 7.902945 7.0872788 8.140625 7.6054688 C 8.925165 9.3159688 9.3316431 10.145964 9.5957031 10.583984 C 9.8972131 11.084094 10.257646 11.432118 10.697266 11.648438 C 11.019166 11.806838 11.280304 11.869227 11.777344 11.904297 C 12.115514 11.928167 12.722501 11.913773 12.931641 11.876953 C 13.306481 11.810963 13.791779 11.586649 14.136719 11.318359 C 14.570099 10.981289 14.845302 10.533401 14.951172 9.9882812 C 14.989822 9.7892613 15.000702 9.425115 14.976562 9.203125 C 14.896763 8.468895 14.574611 8.0317969 13.832031 7.6542969 C 13.551891 7.5118969 13.245458 7.3952 12.611328 7.1875 C 11.834518 6.93308 11.582559 6.8244562 11.380859 6.6601562 C 11.207689 6.5190962 11.140588 6.3016425 11.179688 6.0078125 C 11.215807 5.7364125 11.345896 5.5409975 11.566406 5.4296875 C 11.723096 5.3505895 11.865191 5.3230688 12.119141 5.3242188 C 12.472841 5.3258287 12.608579 5.3771731 12.917969 5.6269531 C 13.020839 5.7100021 13.136301 5.7908426 13.175781 5.8066406 C 13.325641 5.8666006 13.502463 5.8337987 13.751953 5.6992188 C 14.031673 5.5483388 14.215814 5.3980643 14.240234 5.3007812 C 14.270174 5.1814912 14.081973 4.94542 13.751953 4.6875 C 13.383393 4.39946 13.128462 4.2563477 12.857422 4.1835938 C 12.166022 3.9979938 11.448556 4.0547569 10.884766 4.3417969 C 10.668466 4.4519269 10.522269 4.5581294 10.355469 4.7246094 C 9.9829888 5.0963394 9.8057498 5.5037275 9.7773438 6.0546875 C 9.7517838 6.5503775 9.8779081 6.9811469 10.142578 7.3105469 C 10.484778 7.7364069 11.049091 8.0468694 12.212891 8.4433594 C 13.184351 8.7742894 13.455177 8.933075 13.560547 9.234375 C 13.606627 9.366275 13.604811 9.673965 13.556641 9.828125 C 13.447871 10.176225 13.115639 10.453862 12.662109 10.576172 C 12.502969 10.619062 12.469261 10.622123 12.119141 10.623047 C 11.812311 10.623857 11.727379 10.61853 11.636719 10.59375 C 11.468259 10.5477 11.302086 10.461996 11.160156 10.347656 C 10.927426 10.160176 10.848101 10.040429 10.525391 9.3867188 C 10.391931 9.1163188 10.098527 8.4933162 9.8730469 8.0039062 C 9.0545469 6.2274163 8.7713269 5.7211738 8.3417969 5.2773438 C 7.6831969 4.5968337 6.7988281 4.1662694 5.7988281 4.0371094 C 5.5828181 4.0092072 4.9483413 4.0076183 4.7382812 4.0351562 z " fill="#bebebe"/>
</svg>
