<svg width="16" height="16" version="1.1" xmlns="http://www.w3.org/2000/svg">
	<path d="m2 1v1h1v6h-1v1h1 1 1v-1h-1v-6h1v-1h-2zm9 1v6h2.7812c1.681 0.0687 1.605-4.1251-0.031-4-0.012 0.0009-0.02-0.001-0.031 0h-1.719v-2zm-4.0039 1 0.0039 1h1.4043c0.8077 0.009 0.6177 0.9429 0.5957 1h-1.8122c-1.5205 0.0706-1.625 3 0 3h2.3415 0.4707v-0.4062-3.1563c0-0.3705-0.1016-0.716-0.3125-0.9687-0.2109-0.2528-0.5304-0.4367-0.8457-0.4688h-0.0313-1.8066zm5.0039 2h1.812 0.032 0.031c0.36781-0.0382 0.43459 2.0178 0 2h-0.031-1.844c-0.006-0.4756 0.004-1.853 0-2zm-4.6306 1h0.03125 0.03125 1.5682v1h-1.6599-0.0313c-0.3753-0.0127-0.3418-1.0403 0.0606-1zm-3.3694 5l-3 3h11l3-3z" fill="#bebebe"/>
</svg>
