<svg width="16" height="16" version="1.1" xmlns="http://www.w3.org/2000/svg">
	<path fill="#bebebe" d="m4 1l-3 3h5.5859l0.7071-0.707a1.0001 1.0001 0 0 1 0.0664 -0.0586 1.0001 1.0001 0 0 1 0.0254 -0.0215 1.0001 1.0001 0 0 1 0.0488 -0.0371 1.0001 1.0001 0 0 1 0.0742 -0.0449 1.0001 1.0001 0 0 1 0.0664 -0.0332 1.0001 1.0001 0 0 1 0.0488 -0.0215 1.0001 1.0001 0 0 1 0.0059 -0.0039 1.0001 1.0001 0 0 1 0.0899 -0.0313 1.0001 1.0001 0 0 1 0.0019 0 1.0001 1.0001 0 0 1 0.0898 -0.0215 1.0001 1.0001 0 0 1 0.0157 -0.0039 1.0001 1.0001 0 0 1 0.0859 -0.0117 1.0001 1.0001 0 0 1 0.002 0 1.0001 1.0001 0 0 1 0.0703 -0.0039 1.0001 1.0001 0 0 1 0.1015 0.0039 1.0001 1.0001 0 0 1 0.0977 0.0137 1.0001 1.0001 0 0 1 0.0976 0.0234 1.0001 1.0001 0 0 1 0.1563 0.0606 1.0001 1.0001 0 0 1 0.0273 0.0136 1.0001 1.0001 0 0 1 0.002 0 1.0001 1.0001 0 0 1 0.084 0.0508 1.0001 1.0001 0 0 1 0.0019 0 1.0001 1.0001 0 0 1 0.0332 0.0254 1.0001 1.0001 0 0 1 0.1211 0.1016l0.7071 0.707h2.5859l3-3h-11zm4 3l-3 2.9961h2v6.0039h2v-6.0039h2l-3-2.9961zm-4 4l-1 1-2 2h5v-1-2h-2zm6 0v2 1h2l3-3h-5zm-6 4l-3 3h11l3-3h-5v1a1.0001 1.0001 0 0 1 -1 1h-2a1.0001 1.0001 0 0 1 -1 -1v-1h-2z"/>
</svg>
