<svg width="16" height="16" version="1.1" xmlns="http://www.w3.org/2000/svg">
	<path d="M 8.8652344 2.0351562 C 8.7704344 1.9347863 8.4746094 2.0637181 8.4746094 2.2050781 C 8.4746094 2.3443781 8.5826831 2.3471506 8.7832031 2.2128906 C 8.8670631 2.1567706 8.9038544 2.0760463 8.8652344 2.0351562 z M 9.3300781 2.4453125 C 9.3610381 2.5989525 8.8618756 2.8867966 8.5410156 2.9003906 C 8.4198256 2.9055266 8.2133244 2.8708048 8.0839844 2.8242188 C 7.8795944 2.7505987 7.82824 2.7956562 7.6875 3.1601562 C 7.59843 3.3907962 7.3907694 3.8700825 7.2246094 4.2265625 C 7.0584494 4.5830425 6.921875 4.9755363 6.921875 5.0976562 C 6.921875 5.2197762 6.8322762 5.520375 6.7226562 5.765625 C 6.1736962 6.993725 5.9756525 7.6302131 6.0078125 8.0644531 L 6.0410156 8.5136719 L 5.6269531 8.5136719 C 5.3990631 8.5136719 5.039245 8.4198575 4.828125 8.3046875 C 4.507435 8.1297495 4.41802 8.1181013 4.28125 8.2382812 C 4.14234 8.3603412 4.0734181 8.3386269 3.8300781 8.0917969 C 3.6647481 7.9241069 3.4246219 7.8007812 3.2636719 7.8007812 C 2.9060619 7.8007813 2.5703125 8.1570863 2.5703125 8.5351562 C 2.5703125 8.8589563 2.9313713 9.3359375 3.1757812 9.3359375 C 3.3754613 9.3359375 3.7109375 9.6567263 3.7109375 9.8476562 C 3.7109375 9.9287812 3.81267 9.9941406 3.9375 9.9941406 C 4.14658 9.9941406 4.150395 10.006236 3.984375 10.134766 C 3.845725 10.242066 3.8152494 10.387945 3.8496094 10.765625 C 3.9231494 11.574005 4.0895519 11.973623 4.4199219 12.132812 C 4.5442319 12.192713 4.6231031 12.303296 4.5957031 12.378906 C 4.5673831 12.457026 4.7128106 12.607392 4.9316406 12.726562 C 5.1434106 12.841893 5.4537638 13.088911 5.6210938 13.275391 C 6.0084938 13.707141 6.2629294 13.714695 6.3496094 13.296875 C 6.4252794 12.932065 6.6439313 12.691114 7.0507812 12.527344 C 7.2319212 12.454434 7.3359375 12.332706 7.3359375 12.191406 C 7.3359375 11.901206 7.428335 11.910987 7.859375 12.248047 C 8.091615 12.429647 8.2957794 12.505887 8.4433594 12.466797 C 8.5680594 12.433777 8.699035 12.457038 8.734375 12.517578 C 8.769715 12.578128 8.9149206 12.626953 9.0566406 12.626953 C 9.2344706 12.626953 9.3684544 12.728488 9.4902344 12.955078 C 9.6426544 13.238688 9.7271419 13.284616 10.107422 13.285156 C 10.522992 13.285816 10.673609 13.407934 10.443359 13.558594 C 10.386379 13.595874 10.339844 13.733401 10.339844 13.863281 C 10.339844 14.072131 10.374135 14.05457 10.640625 13.71875 C 10.921145 13.36525 10.931531 13.325535 10.775391 13.140625 C 10.633571 12.972675 10.630726 12.928256 10.753906 12.847656 C 10.839766 12.791466 10.982183 12.799537 11.101562 12.867188 C 11.271573 12.963518 11.292978 12.951232 11.236328 12.794922 C 11.199198 12.692492 11.167969 12.544407 11.167969 12.466797 C 11.167969 12.384327 10.990754 12.301195 10.740234 12.265625 C 10.192304 12.187815 10.05477 12.033751 9.9375 11.369141 C 9.88511 11.072231 9.7654981 10.770189 9.6738281 10.699219 C 9.5821281 10.628249 9.0419662 10.536871 8.4726562 10.494141 C 7.4158562 10.414811 7.1409906 10.293897 7.1191406 9.9042969 C 7.1120606 9.7780219 7.0872256 9.7972506 7.0410156 9.9628906 C 6.9748456 10.200074 6.9691963 10.199803 6.7226562 10.001953 C 6.4384663 9.7738531 6.3365875 9.1315538 6.5234375 8.7460938 C 6.8542375 8.0634937 8.8915137 4.7729475 9.2148438 4.3984375 C 9.5746038 3.9817005 9.6183269 3.9628906 10.216797 3.9628906 C 10.561507 3.9628906 10.964168 3.9147068 11.111328 3.8554688 C 11.327598 3.7684088 11.418034 3.7891337 11.583984 3.9648438 C 11.696904 4.0844047 11.837561 4.1816406 11.894531 4.1816406 C 11.951511 4.1816406 11.998047 4.2499604 11.998047 4.3339844 C 11.998047 4.4180144 12.066884 4.5160542 12.152344 4.5507812 C 12.237804 4.5855012 12.308594 4.6931275 12.308594 4.7890625 C 12.308594 4.8849875 12.262048 4.9318102 12.205078 4.8945312 C 12.148108 4.8572513 12.101562 4.8794734 12.101562 4.9433594 C 12.101563 5.0072344 12.159249 5.06059 12.230469 5.0625 C 12.303409 5.06447 12.271463 5.1358575 12.158203 5.2265625 C 11.961153 5.3844025 11.961294 5.3886719 12.177734 5.3886719 C 12.506924 5.3886719 12.553773 5.5719044 12.314453 5.9277344 C 12.129403 6.2029344 12.102069 6.4036937 12.105469 7.4335938 L 12.109375 8.6230469 L 12.519531 8.9238281 C 12.745251 9.0891381 12.929688 9.3034135 12.929688 9.3984375 C 12.929687 9.7090175 12.720408 9.9951163 12.486328 10.003906 C 12.360148 10.008666 12.313752 10.036736 12.382812 10.066406 C 12.463243 10.100956 12.392653 10.236956 12.189453 10.447266 C 11.886913 10.760386 11.863461 10.767721 11.675781 10.587891 C 11.417791 10.340691 11.426056 10.484366 11.691406 10.878906 C 11.827506 11.081266 11.885989 11.300927 11.855469 11.498047 C 11.829419 11.666347 11.803528 11.868306 11.798828 11.947266 C 11.794148 12.026256 11.74447 12.060718 11.6875 12.023438 C 11.63053 11.986157 11.583984 12.058244 11.583984 12.183594 C 11.583984 12.369204 11.628268 12.399333 11.830078 12.345703 C 11.966378 12.309483 12.21219 12.348854 12.375 12.433594 C 12.68372 12.594284 13.033203 12.576028 13.033203 12.398438 C 13.033203 12.341727 12.97635 12.196975 12.90625 12.078125 C 12.73016 11.779595 12.962465 11.550942 13.546875 11.445312 C 14.095585 11.346113 14.371669 10.998903 14.449219 10.314453 C 14.487209 9.9791131 14.584835 9.7579031 14.765625 9.5957031 C 15.020345 9.3671831 15.022742 9.3487619 14.888672 8.7949219 C 14.780812 8.3493919 14.779023 8.181655 14.876953 8.015625 C 14.945553 7.899325 15.000755 7.6931806 15 7.5566406 C 14.99842 7.2596406 14.543922 5.7231638 14.326172 5.2773438 C 14.241262 5.1034837 14.171875 4.7789606 14.171875 4.5566406 L 14.171875 4.1523438 L 13.708984 4.21875 C 13.314244 4.27604 13.228756 4.2542994 13.134766 4.0683594 C 13.074036 3.9482194 13.054647 3.67839 13.091797 3.46875 C 13.178747 2.97802 12.954117 2.8652769 12.529297 3.1855469 C 12.165007 3.4601929 11.911449 3.4789613 11.824219 3.2382812 C 11.765419 3.0760412 11.751766 3.0760412 11.666016 3.2382812 C 11.571736 3.4166602 11.197829 3.4646394 10.792969 3.3496094 C 10.659909 3.3117994 10.532879 3.1488031 10.474609 2.9394531 C 10.405989 2.6928891 10.321188 2.5974481 10.179688 2.6113281 C 10.070127 2.6220751 9.9570544 2.593577 9.9277344 2.546875 C 9.8300744 2.39133 9.3010681 2.3013425 9.3300781 2.4453125 z M 9.6132812 7.0878906 L 9.2617188 7.5039062 C 8.8325988 8.0133763 8.7518431 8.2975769 8.9707031 8.5292969 C 9.1042631 8.6707079 9.2704438 8.693828 9.8085938 8.640625 C 10.642994 8.558135 10.760736 8.4481388 10.347656 8.1367188 C 10.172346 8.0045587 10.029297 7.8316461 10.029297 7.7519531 C 10.029297 7.6722631 9.9348425 7.4900563 9.8203125 7.3476562 L 9.6132812 7.0878906 z M 1.2753906 9.7109375 C 1.1329606 9.8097475 1.0125594 9.9513826 1.0058594 10.025391 C 0.98410938 10.263861 1.0335281 10.48453 1.1425781 10.625 C 1.2779881 10.79945 1.7668975 10.803209 1.9296875 10.630859 C 2.1492075 10.398439 2.0770819 9.9066775 1.7949219 9.7109375 C 1.5550319 9.5445175 1.5152806 9.5445175 1.2753906 9.7109375 z" fill="#bebebe"/>
</svg>
