<svg width="16" height="16" version="1.1" xmlns="http://www.w3.org/2000/svg">
	<path d="m3.5 1c-0.831 0-1.5 0.669-1.5 1.5v11c0 0.831 0.669 1.5 1.5 1.5h9c0.831 0 1.5-0.669 1.5-1.5v-5.5l-7-7h-3.5zm5.5 0 5 5v-3.5c0-0.831-0.669-1.5-1.5-1.5h-3.5zm-4.5 2h2.5l5 5v4.5c0 0.277-0.223 0.5-0.5 0.5h-7c-0.277 0-0.5-0.223-0.5-0.5v-0.5h1l2.3086-4h3.6914v-1h-3.1133-1.1543l-1.7324 3.002v-2.002h-1v-4.5c0-0.277 0.223-0.5 0.5-0.5zm2.5 6 1.5 1.5-1.5 1.5h1l1-1 1 1h1l-1.5-1.5 1.5-1.5h-1l-1 1-1-1h-1z" fill="#bebebe"/>
</svg>
