<svg width="16" height="16" version="1.1" xmlns="http://www.w3.org/2000/svg">
	<path fill="#bebebe" d="m2 3c-.554 0-1 .446-1 1v6.055a3.5 3.5 0 0 1 2.5 -1.055 3.5 3.5 0 0 1 .7969 .0957l.2656-.2207.5937 0.5-.0312.0273a3.5 3.5 0 0 1 1.875 3.0977 3.5 3.5 0 0 1 -.0410 0.5h7.041c.554 0 1-.446 1-1v-8c0-.554-.446-1-1-1h-12zm0 1l6 5 6-5v1l-6 5-6-5v-1zm9.438 4.875l2.562 2.125v1l-3.156-2.625.594-0.5zm-7.938 1.125a2.5 2.5 0 0 0 -2.5 2.5 2.5 2.5 0 0 0 2.5 2.5 2.5 2.5 0 0 0 2.5 -2.5 2.5 2.5 0 0 0 -2.5 -2.5z"/>
	<path d="m6 12.5a2.5 2.5 0 0 1 -2.5 2.5 2.5 2.5 0 0 1 -2.5 -2.5 2.5 2.5 0 0 1 2.5 -2.5 2.5 2.5 0 0 1 2.5 2.5z" class="success" fill="#008000"/>
</svg>
