<svg width="16" height="16" version="1.1" xmlns="http://www.w3.org/2000/svg">
	<path d="m8 1c-3.6121 0-6.5821 2.7372-6.957 6.25 0.28666-0.16037 0.61033-0.25977 0.95703-0.25977h3.9316c0.1069 0 0.20977 0.014466 0.3125 0.03125 0.34493-0.61741 0.99816-1.0391 1.7559-1.0391 1.1145 0 2.0176 0.90306 2.0176 2.0176s-0.90306 2.0176-2.0176 2.0176c-0.023473 0-0.04508-0.007012-0.068359-0.007812v3.9902c0 0.35688-0.10424 0.68989-0.27344 0.98242 0.11416 0.0055 0.22627 0.017578 0.3418 0.017578 3.866 0 7-3.134 7-7 0-3.8662-3.134-7-7-7zm-6 6.9902c-0.554 0-1 0.446-1 1v0.0097656h1v1h-1v1h1v1h-1v1h1v1h-1c0 0.554 0.446 1 1 1h1v-1h2v1h0.93164c0.554 0 1-0.446 1-1h-0.93164v-1h0.93164v-1h-0.93164v-1h0.93164v-1h-0.93164v-1h0.93164v-0.0097656c0-0.554-0.446-1-1-1h-3.9316zm1 0.0097656h2v1h-2v-1zm0 2h2v3h-2v-3z" fill="#bebebe"/>
</svg>
