<svg width="16" height="16" version="1.1" xmlns="http://www.w3.org/2000/svg">
	<path d="m8 1a7 7 0 0 0 -7 7 7 7 0 0 0 0.089844 1.0605 1.0001 1.0001 0 0 1 0.11328 -0.32031l0.34961-0.61719c0.45502-0.8015 1.5303-1.1027 2.332-0.63086l0.45703 0.26758 1.5605-2.0137-0.080078 0.12109c0.33972-0.60191 1.0189-0.93916 1.6895-0.85352 0.21704 0.02761 0.43894 0.101 0.64258 0.2207a1.0001 1.0001 0 0 0 0.0019531 0c0.3865 0.22736 0.64636 0.58912 0.76562 0.99219a2 2 0 0 1 1.0781 1.7734 2 2 0 0 1 -2 2 2 2 0 0 1 -0.054688 -0.0019531c0.45619 0.53661 0.5594 1.326 0.19727 1.9648h0.0019531l-0.34961 0.61914a1.0001 1.0001 0 0 1 -0.86133 0.50781c0.020098 0.020873 0.0075064 0.013843 0.033203 0.037109 0.30133 0.27284 0.92174 0.64254 1.5391 1.0059a1.0001 1.0001 0 0 1 0.48828 0.78711 7 7 0 0 0 6.0059 -6.9199 7 7 0 0 0 -7 -7zm-0.61523 5.0059c-0.27105-0.034619-0.54642 0.09664-0.69141 0.35352l-2.1016 2.709-1.2148-0.71484c-0.33605-0.19776-0.76107-0.08083-0.95508 0.26172l-0.34961 0.61719 4.8516 2.8574 0.34961-0.61914c0.19401-0.34226 0.079631-0.77685-0.25586-0.97461l-1.2129-0.71484 2.1016-2.709c0.19401-0.34255 0.078377-0.7788-0.25781-0.97656-0.084048-0.049405-0.17332-0.07835-0.26367-0.089844zm-6.1445 3.7832a7 7 0 0 0 0.0097656 0.033203c0.0011967-0.0013023 0.0067179-0.0085697 0.0078125-0.0097656a1.0001 1.0001 0 0 1 -0.017578 -0.023438zm0.83594 0.58008s-1.6715 1.7932-0.84961 3.209c0.82178 1.415 3.195 1.4474 3.9688 1.416h2.8027c-1.2131-0.71394-2.6269-1.4847-2.1016-2.4121l-3.8203-2.2129z" fill="#bebebe"/>
</svg>
