<svg width="16" height="16" version="1.1" xmlns="http://www.w3.org/2000/svg">
	<path d="m2 1c-0.554 0-1 0.446-1 1v8.3242c1.1515 1.909 3.0979 3.3002 5.4961 3.3086 2.5427 0.0089 5.1884-1.9539 4.9766-4.7031-0.11334-1.4711-1.3443-3.0457-2.9805-2.707-1.1978 0.2479-1.8828 1.8705-0.51953 1.832-0.28371 0.18929-0.87268 0.14874-1.1211-0.24609-0.78197-1.2429 0.43736-2.7053 1.9688-2.8711 0.083765-0.00906 0.16376 0.00385 0.24609 0 0.079763-0.00371 0.16774-0.028324 0.24609-0.027344 2.429 0.031067 4.1694 2.3031 4.2656 4.5664 0.099125 2.3304-1.1376 4.2768-2.8984 5.5234h4.3203v-9.3242c-1.1515-1.909-3.0979-3.3002-5.4961-3.3086-2.5427-0.0089103-5.1884 1.9539-4.9766 4.7031 0.11334 1.4711 1.3443 3.0457 2.9805 2.707 1.1978-0.2479 1.8828-1.8705 0.51953-1.832 0.28371-0.18929 0.87268-0.14874 1.1211 0.24609 0.78197 1.2429-0.43736 2.7053-1.9688 2.8711-2.6805 0.2902-4.6552-2.1274-4.7578-4.5391-0.099126-2.3304 1.1376-4.2768 2.8984-5.5234z" fill="#bebebe"/>
</svg>
