<svg width="16" height="16" version="1.1" xmlns="http://www.w3.org/2000/svg">
	<path d="m1 1v3h1.7148c0.26887 0.67936 0.3411 1.2368 0.28125 1.707-0.09238 0.72584-0.47326 1.3388-0.91016 2.0254-0.43689 0.68654-0.93057 1.445-1.0566 2.4355-0.069879 0.54905-6.386e-4 1.1596 0.21484 1.832h-0.24414v3h3v-1.7148c0.67936-0.26887 1.2368-0.3411 1.707-0.28125 0.72584 0.09238 1.3388 0.47326 2.0254 0.91016 0.68654 0.43689 1.445 0.93057 2.4355 1.0566 0.54905 0.069879 1.1596 6.39e-4 1.832-0.21484v0.24414h3v-3h-1.7148c-0.26887-0.67936-0.3411-1.2368-0.28125-1.707 0.092382-0.72584 0.47326-1.3388 0.91016-2.0254 0.43689-0.68654 0.93057-1.445 1.0566-2.4355 0.069879-0.54905 6.39e-4 -1.1596-0.21484-1.832h0.24414v-3h-3v1.7148c-0.67936 0.26887-1.2368 0.3411-1.707 0.28125-0.72584-0.09238-1.3388-0.47326-2.0254-0.91016-0.68654-0.43689-1.445-0.93057-2.4355-1.0566-0.54905-0.069879-1.1596-6.386e-4 -1.832 0.21484v-0.24414h-3zm4.1895 1.0137c0.18428-0.016701 0.35711-0.014563 0.51758 0.0058593 0.72584 0.092379 1.3388 0.47326 2.0254 0.91016 0.68654 0.43689 1.445 0.93057 2.4355 1.0566 0.5421 0.068995 1.1592-0.03217 1.832-0.26562v0.2793h1.6621c0.2817 0.6801 0.37738 1.2433 0.31836 1.707-0.09238 0.72584-0.47326 1.3388-0.91016 2.0254-0.43689 0.68654-0.93057 1.445-1.0566 2.4355-0.068995 0.5421 0.032169 1.1592 0.26562 1.832h-0.2793v1.6621c-0.6801 0.2817-1.2433 0.37738-1.707 0.31836-0.72584-0.092379-1.3388-0.47326-2.0254-0.91016-0.68654-0.43689-1.445-0.93057-2.4355-1.0566-0.5421-0.068995-1.1592 0.032169-1.832 0.26562v-0.2793h-1.6621c-0.2817-0.6801-0.37738-1.2433-0.31836-1.707 0.09238-0.72584 0.47326-1.3388 0.91016-2.0254 0.43689-0.68654 0.93057-1.445 1.0566-2.4355 0.068995-0.5421-0.03217-1.1592-0.26562-1.832h0.2793v-1.6621c0.44477-0.18422 0.84117-0.29265 1.1895-0.32422z" fill="#bebebe"/>
	<path d="m5 2.041c-0.30161 0.045744-0.63114 0.13287-1 0.28516v0.67383h1zm0 0.95898v1h1v-1zm1 0h1v-0.50586c-0.32501-0.17979-0.65531-0.33274-1-0.41602zm1 0v1h1v-0.91016c-0.047635-0.029939-0.095732-0.060067-0.14258-0.089844zm1 1v1h1v-1zm1 0h1v-0.058594c-0.36106-0.063569-0.69287-0.16936-1-0.30664zm1 0v1h1v-1zm1 0h1v-0.2832c-0.34992 0.12109-0.68524 0.20668-1 0.24609zm1 0v1h1v-1zm1 0zm0 1v1h0.92188c0.02376-0.098333 0.05339-0.19463 0.06641-0.29688 0.026865-0.21111 0.009051-0.45025-0.029301-0.70312zm0 1h-1v1h1zm0 1v0.85742c0.02604-0.040976 0.05239-0.084559 0.07813-0.125 0.16021-0.25177 0.2942-0.49105 0.42773-0.73242zm-1 0h-1v1h1zm0 1v1h0.36523c0.16066-0.35942 0.34981-0.68957 0.54492-1zm0 1h-1v1h1zm0 1v1h0.03711c-0.03625-0.2895-0.0506-0.56868-0.01758-0.82812 0.0077-0.06068 0.02868-0.11289 0.03906-0.17188zm0 1h-1v1h1zm0 1v1zm0 1h-1v0.95898c0.30162-0.04574 0.63114-0.13287 1-0.28516zm-1 0v-1h-1v1zm-1 0h-1v0.50586c0.32501 0.17979 0.65531 0.33274 1 0.41602zm-1 0v-1h-1v0.91016c0.047635 0.02994 0.095732 0.06007 0.14258 0.08984zm-1-1v-1h-1v1zm-1 0h-1v0.05859c0.36106 0.06357 0.69287 0.16936 1 0.30664zm-1 0v-1h-1v1zm-1 0h-1v0.2832c0.34992-0.12109 0.68524-0.20668 1-0.24609zm-1 0v-1h-1v1zm-1-1v-1h-0.92188c-0.023757 0.09833-0.053393 0.19463-0.066406 0.29688-0.026869 0.21111-0.00905 0.45025 0.029297 0.70312zm0-1h1v-1h-1zm0-1v-0.85742c-0.026045 0.040976-0.05239 0.084559-0.078125 0.125-0.16022 0.25177-0.29421 0.49105-0.42773 0.73242zm1 0h1v-1h-1zm0-1v-1h-0.36523c-0.16065 0.35942-0.34981 0.68957-0.54492 1zm0-1h1v-1h-1zm0-1v-1h-0.037109c0.036251 0.2895 0.050598 0.56868 0.017578 0.82812-0.0077231 0.060681-0.028678 0.11289-0.039063 0.17188zm0-1h1v-1h-1zm0-1v-1zm1 1v1h1v-1zm1 0h1v-1h-1zm1 0v1h1v-1zm1 1v1h1v-1zm1 0h1v-1h-1zm1 0v1h1v-1zm1 0h1v-1h-1zm-1 1h-1v1h1zm0 1v1h1v-1zm0 1h-1v1h1zm0 1v1h1v-1zm0 1h-1v1h1zm-1 0v-1h-1v1zm-1-1v-1h-1v1zm-1 0h-1v1h1zm-1 0v-1h-1v1zm-1 0h-1v1h1zm1-1h1v-1h-1zm0-1v-1h-1v1zm0-1h1v-1h-1zm1 0v1h1v-1zm1 1v1h1v-1z" fill="#bebebe" opacity=".45"/>
</svg>
