<svg width="16" height="16" version="1.1" xmlns="http://www.w3.org/2000/svg">
	<path d="m9 1-8 2v10l8 2v-14zm1 2v0.5 0.5h4v8h-4v0.5 0.5h0.5 4c0.277 0 0.5-0.223 0.5-0.5v-9c0-0.277-0.223-0.5-0.5-0.5h-4-0.5zm0 9 1.332-1.7773 1.668-2.2227-1.668-2.2227-1.332-1.7773v1.916l1.666 2.084-1.666 2.084v1.916zm-5-8c1.6569 0 3 1.7909 3 4s-1.3431 4-3 4-3-1.7909-3-4 1.3431-4 3-4zm0 1.8887c-0.60236 0-1.3809 0.882-1.3809 2.1113s0.77846 2.1113 1.3809 2.1113 1.3809-0.882 1.3809-2.1113-0.77846-2.1113-1.3809-2.1113z" fill="#bebebe"/>
</svg>
