<svg id="svg4" width="16" height="16" version="1.1" xmlns="http://www.w3.org/2000/svg">
	<path id="path827" d="m9 1-8 2v10l8 2v-14zm1 3v1h3.5c.277 0 .5.223.5.5v6.5h.5c.277 0 .5-.223.5-.5v-7c0-.277-.223-.5-.5-.5h-4.5zm-4.8848 1.0059c.40555.015467.71806.061753.91406.14062.56838.22872.89904.72324.95898 1.4414.11944 1.4309-.71972 2.3603-2.1406 2.3711l-.58008.0039062v1.0195 1.0176l-.50195-.007812c-.27599-.0039-.56018-.025922-.63281-.050782-.10181-.034841-.13281-.70629-.13281-2.9355v-2.8926l.64844-.056641c.56317-.04992 1.0613-.066248 1.4668-.050781zm4.8848.99414v1.0586a1.5 1 0 0 1 .5-.058594 1.5 1 0 0 1 1.5 1 1.5 1 0 0 1-1.5 1 1.5 1 0 0 1-.5-.058594v1.0586h2v1h-2v1h3v-5.5c0-.277-.223-.5-.5-.5h-2.5zm-5.5488.14844c-.16195.012204-.18359.11972-.18359.86523v.85156h.375c.56876 0 .89062-.31929.89062-.88086 0-.65477-.30785-.89429-1.082-.83594z" fill="#bebebe"/>
</svg>
