<svg width="16" height="16" version="1.1" xmlns="http://www.w3.org/2000/svg">
	<path d="m6.0182 1c-0.56659 0.38393 0.4814 1.0393 0.34146 1.6105-0.032668 0.41864-0.1489 0.82655-0.22016 1.2402-1.187 0.29598-2.3952 0.58471-3.5177 1.0637-0.35681 0.63528 0.82341 0.7621 1.2425 0.97312 0.58362 0.18149 1.1825 0.31806 1.79 0.38842-0.32027 1.5688-0.65997 3.1746-1.5439 4.5397-0.41557 0.65026-0.7892 1.3504-1.3273 1.9071-0.59835 0.44598 0.12647 0.6347 0.48812 0.26234 1.187-0.64779 2.0897-1.7117 2.8622-2.8011 0.54328-0.8452 0.72289-1.8568 1.0495-2.7997 0.13741-0.44035 0.27481-0.8807 0.41222-1.3211 1.0378-0.25529 2.0756-0.51058 3.1133-0.76586-0.23092 1.7068-0.32351 3.4351-0.72743 5.1137-0.22239 0.89304-0.44843 1.851-1.0921 2.545-0.30261-0.24025-0.99579-0.27165-0.64907 0.30036 0.24259 0.60287 0.53171 1.2046 0.89167 1.7419 0.55107-0.34391 0.90375-1.0375 1.2939-1.5743 0.9115-1.412 1.5254-2.9975 1.8757-4.6376 0.38987-1.6116 0.81731-3.2149 1.1809-4.8323-0.036936-0.64288-1.0294-0.63015-1.5013-0.8648-0.66516-0.20896-1.3564-0.43299-2.029-0.11569-0.51601 0.12217-1.032 0.24435-1.548 0.36652 0.28419-0.63791 0.072501-1.4789-0.59158-1.7781-0.58154-0.22191-1.1761-0.46852-1.794-0.562z" fill="#bebebe"/>
</svg>
