<svg width="16" height="16" version="1.1" xmlns="http://www.w3.org/2000/svg">
	<path fill="#bebebe" d="m8 3c-3.2018-.0002-6.0345 2.0186-7 4.9889.9574 2.9791 3.792 5.0081 7 5.0111 3.202 0 6.034-2.019 7-4.9889-.957-2.979-3.792-5.0082-7-5.0111zm0 1.4286c-1.5464 0-2.8 1.2792-2.8 2.8571 0 1.578 1.2536 2.8571 2.8 2.8571s2.8-1.2792 2.8-2.8571c-.001-1.4995-1.1373-2.7433-2.6032-2.8487 2.4912.0739 4.6572 1.5056 5.4032 3.5714-.773 2.1216-3.039 3.5636-5.6 3.5626-2.5666-.002-4.8343-1.451-5.6-3.5794.7726-2.1214 3.0387-3.5632 5.6-3.563z"/>
</svg>
