<svg width="16" height="16" version="1.1" xmlns="http://www.w3.org/2000/svg">
	<path d="m8 1c-1.5648-0.28035-2.8958 1.1299-2.9785 2.6055-0.14649 1.5673 1.1335 3.0887 2.7117 3.1844 1.2261 0.21142 2.2744-0.7042 2.9797-1.4676 1.8091 0.014358 3.5017 1.3546 3.8846 3.1311 0.13392 0.55737 0.15229 1.1418 0.05682 1.7068 1.4989-4.1122-1.7742-8.9914-6.1591-9.1427l-0.49516-0.017535zm-1.8223 0.24414c-4.2516 0.98609-6.5495 6.3599-4.3144 10.11 0.4928 1.569 2.4061 2.1123 3.7812 1.4425 1.563-0.67859 2.2133-2.784 1.3023-4.2277-0.47847-1.0354-1.7108-1.335-2.6187-1.5751-0.90049-1.6019-0.58472-3.7752 0.78607-5.0165 0.31413-0.29707 0.67437-0.54532 1.0635-0.73347zm5.418 5.8613c-1.6631-0.023719-3.1371 1.544-2.9507 3.2148-0.031925 0.71357 0.83006 1.3785-0.072731 1.9063-1.3185 1.5964-3.8955 1.9347-5.5586 0.6836 3.0996 3.4056 9.2977 2.4396 11.22-1.7422 0.7643-1.0681 0.24547-2.5563-0.66763-3.3438-0.53732-0.47243-1.2578-0.72509-1.9706-0.71868z" fill="#bebebe"/>
</svg>
