<?xml version="1.0" encoding="UTF-8" standalone="no"?>
<svg xmlns:dc="http://purl.org/dc/elements/1.1/" xmlns:cc="http://creativecommons.org/ns#" xmlns:rdf="http://www.w3.org/1999/02/22-rdf-syntax-ns#" xmlns:svg="http://www.w3.org/2000/svg" xmlns="http://www.w3.org/2000/svg" xmlns:sodipodi="http://sodipodi.sourceforge.net/DTD/sodipodi-0.dtd" xmlns:inkscape="http://www.inkscape.org/namespaces/inkscape" width="16" height="16" version="1.1" id="svg4" sodipodi:docname="obs-symbolic.svg" inkscape:version="0.92.1 r">
  <metadata id="metadata10">
    <rdf:RDF>
      <cc:Work rdf:about="">
        <dc:format>image/svg+xml</dc:format>
        <dc:type rdf:resource="http://purl.org/dc/dcmitype/StillImage" />
        <dc:title></dc:title>
      </cc:Work>
    </rdf:RDF>
  </metadata>
  <defs id="defs8" />
  <sodipodi:namedview pagecolor="#ffffff" bordercolor="#666666" borderopacity="1" objecttolerance="10" gridtolerance="10" guidetolerance="10" inkscape:pageopacity="0" inkscape:pageshadow="2" inkscape:window-width="640" inkscape:window-height="480" id="namedview6" showgrid="true" inkscape:zoom="22.627417" inkscape:cx="4.1282663" inkscape:cy="8.1974414" inkscape:current-layer="svg4">
    <inkscape:grid type="xygrid" id="grid12" />
  </sodipodi:namedview>
  <circle style="fill:#800000" id="path248" cx="8" cy="8" r="7" />
  <path style="fill:#ff6600;stroke-width:1.00000012" d="M 6.8244494,1.1135366 C 5.1286703,1.62089 3.8837053,3.1744774 3.8829234,5.0355713 c -1.951e-4,0.4833473 0.08802,0.961135 0.25259,1.4122081 a 4.1149217,4.1149217 0 0 0 0.00459,0.00459 c 0.035831,0.097733 0.07841,0.1943094 0.1217025,0.2893303 a 4.1149217,4.1149217 0 0 0 0.064291,0.1400684 c 0.021354,0.042558 0.039129,0.086699 0.062,0.1285912 0.021075,0.038225 0.044021,0.075169 0.066592,0.1125174 a 2.9392298,2.9392298 0 0 1 1.4535409,0.3880703 2.9392298,2.9392298 0 0 1 1.4374671,2.1539041 2.9392298,2.9392298 0 0 1 0.01837,0.6222899 2.9392298,2.9392298 0 0 1 -0.00919,0.08497 2.9392298,2.9392298 0 0 1 -0.1056289,0.525847 c -0.00142,0.0046 -9.09e-4,0.0091 -0.00229,0.01378 a 2.9392298,2.9392298 0 0 1 -0.020666,0.06659 c -8.749e-4,0.0026 -0.00373,0.0064 -0.00459,0.0092 A 2.9392298,2.9392298 0 0 1 6.9828864,11.52722 2.9392298,2.9392298 0 0 1 6.643038,11.997957 c -0.00157,0.0018 -7.091e-4,0.0052 -0.00229,0.007 -0.011205,0.01273 -0.023047,0.02424 -0.034444,0.03673 a 2.9392298,2.9392298 0 0 1 -0.3628112,0.328368 c -0.024582,0.0192 -0.046073,0.03907 -0.071184,0.0574 a 2.9392298,2.9392298 0 0 1 -0.388076,0.238755 c -0.026006,0.01339 -0.051716,0.02874 -0.078073,0.04133 a 2.9392298,2.9392298 0 0 1 -0.022962,0.01152 2.9392298,2.9392298 0 0 1 -0.4202181,0.15385 c -0.03392,0.0099 -0.066774,0.02338 -0.1010351,0.03215 a 2.9392298,2.9392298 0 0 1 -0.00459,0.0024 2.9392298,2.9392298 0 0 1 -0.4339957,0.07119 c -0.042109,0.0041 -0.08398,0.0092 -0.1262949,0.01152 A 2.9392298,2.9392298 0 0 1 4.1332168,12.9764 C 4.0981928,12.9728 4.0625658,12.9698 4.027588,12.96488 A 2.9392298,2.9392298 0 0 1 3.5821109,12.86614 C 3.5430719,12.85419 3.5037609,12.84302 3.4650014,12.82941 A 2.9392298,2.9392298 0 0 1 2.9667103,12.604088 2.9392298,2.9392298 0 0 1 2.6934538,12.420386 l -0.05511,0.03215 c 0.2302473,0.220057 0.4793202,0.420371 0.7577703,0.580957 1.5018535,0.867227 3.3203889,0.674356 4.6040278,-0.337548 a 4.1149217,4.1149217 0 0 0 0,0.0024 4.1149217,4.1149217 0 0 0 0.4592546,-0.429405 c 0.034437,-0.03702 0.070105,-0.07172 0.1033332,-0.110221 a 4.1149217,4.1149217 0 0 0 0.4546617,-0.631529 4.1149217,4.1149217 0 0 0 0.00229,-0.0024 2.9392298,2.9392298 0 0 1 -0.00229,-2.9368789 2.9392298,2.9392298 0 0 1 0.3260707,-0.4546622 2.9392298,2.9392298 0 0 1 0.00919,-0.00919 2.9392298,2.9392298 0 0 1 0.3214783,-0.3099969 c 0.00125,-0.00106 0.00101,-0.00355 0.00229,-0.00459 a 2.9392298,2.9392298 0 0 1 0.064297,-0.052814 2.9392298,2.9392298 0 0 1 0.00229,0 2.9392298,2.9392298 0 0 1 0.4202186,-0.2801454 2.9392298,2.9392298 0 0 1 0.01838,-0.00919 2.9392298,2.9392298 0 0 1 0.0092,-0.00459 2.9392298,2.9392298 0 0 1 0.479921,-0.2020721 2.9392298,2.9392298 0 0 1 0.399551,-0.096443 2.9392298,2.9392298 0 0 1 0.03673,-0.00689 2.9392298,2.9392298 0 0 1 0.0045,-0.00229 2.9392298,2.9392298 0 0 1 0.41333,-0.032148 c 0.0041,-8.13e-5 0.0073,-0.00224 0.01152,-0.00229 a 2.9392298,2.9392298 0 0 1 0.0092,0 2.9392298,2.9392298 0 0 1 0.737104,0.087259 2.9392298,2.9392298 0 0 1 0.01608,0.00459 c 0.0068,0.00176 0.01381,0.00507 0.02067,0.00689 a 2.9392298,2.9392298 0 0 1 0.714142,0.2916267 2.9392298,2.9392298 0 0 1 0.443181,0.3168856 c 0.0037,0.00332 0.0099,0.00588 0.01377,0.00919 a 2.9392298,2.9392298 0 0 1 0.0045,0.00229 2.9392298,2.9392298 0 0 1 0.342145,0.360515 c 0.01381,0.016883 0.02791,0.031078 0.04134,0.048222 a 2.9392298,2.9392298 0 0 1 0.261776,0.4018478 c 0.01069,0.019605 0.02203,0.03983 0.03215,0.059703 a 2.9392298,2.9392298 0 0 1 0.183702,0.4431808 c 0.005,0.015082 0.0092,0.030712 0.01378,0.045925 a 2.9392298,2.9392298 0 0 1 0.105603,0.4707357 c 0.0027,0.020101 0.0024,0.041841 0.0045,0.061999 a 2.9392298,2.9392298 0 0 1 0.01607,0.4959959 2.9392298,2.9392298 0 0 1 -0.01607,0.156146 l 0.02296,0.01377 C 14.912091,8.6714599 14.20054,6.8315917 12.604169,5.9058589 12.372678,5.7722938 12.131875,5.6737414 11.885437,5.5889733 A 4.1149217,4.1149217 0 0 0 11.580031,5.4948265 C 11.498446,5.47363 11.419018,5.4534989 11.336626,5.437419 A 4.1149217,4.1149217 0 0 0 11.049592,5.396086 C 10.922852,5.380524 10.79566,5.369966 10.668411,5.366234 a 4.1149217,4.1149217 0 0 0 -0.128592,0 2.9392298,2.9392298 0 0 1 -3.0930795,1.4030235 2.9392298,2.9392298 0 0 1 -0.0023,-0.0023 A 2.9392298,2.9392298 0 0 1 6.5305228,6.4294054 2.9392298,2.9392298 0 0 1 6.052898,6.0872607 2.9392298,2.9392298 0 0 1 6.048308,6.0826707 c -0.00241,-0.00214 -0.00459,-0.00482 -0.00689,-0.00689 A 2.9392298,2.9392298 0 0 1 5.6900903,5.696898 2.9392298,2.9392298 0 0 1 5.6303873,5.621121 2.9392298,2.9392298 0 0 1 5.6212023,5.605047 2.9392298,2.9392298 0 0 1 5.4099451,5.2697912 c -0.00249,-0.00468 -0.00446,-0.0091 -0.00689,-0.013778 a 2.9392298,2.9392298 0 0 1 -0.0023,-0.011482 2.9392298,2.9392298 0 0 1 -0.268664,-0.7279185 c -0.00719,-0.032356 -0.012283,-0.063847 -0.018369,-0.096443 A 2.9392298,2.9392298 0 0 1 5.0746894,4.1331361 c -0.00277,-0.031769 -0.00747,-0.062286 -0.00919,-0.094147 a 2.9392298,2.9392298 0 0 1 0.00459,-0.3628113 c 0.00218,-0.031249 0.00828,-0.062924 0.011487,-0.094147 A 2.9392298,2.9392298 0 0 1 5.1252104,3.292701 c 0.00671,-0.032545 0.010534,-0.064017 0.01837,-0.096443 A 2.9392298,2.9392298 0 0 1 5.2584029,2.833446 c 0.00783,-0.020374 0.016952,-0.041728 0.025258,-0.062 A 2.9392298,2.9392298 0 0 1 5.4558706,2.4155236 2.9392298,2.9392298 0 0 1 5.922014,1.8139 C 5.933906,1.802012 5.944412,1.788893 5.956459,1.777159 A 2.9392298,2.9392298 0 0 1 6.5374156,1.3385711 c 0.013426,-0.00773 0.027745,-0.013231 0.041333,-0.020666 A 2.9392298,2.9392298 0 0 1 6.8244494,1.1962025 Z" id="circle116" inkscape:connector-curvature="0" inkscape:transform-center-x="-0.62820347" inkscape:transform-center-y="-0.65121952" />
</svg>
