<svg width="16" height="16" version="1.1" xmlns="http://www.w3.org/2000/svg">
	<path d="m9.358 1c0.56818 2.3114-2.0043 3.0084-2.9327 4.4479-0.63222 0.98077 0.30905 2.0359 1.5941 3.233-0.50111-1.1697-2.1994-2.1938 0.001907-3.9891 2.7449-2.2372 1.3367-3.6918 1.3367-3.6918zm1.6971 2.8589c2.9e-5 0-4.6402 1.1979-2.4236 3.8355 0.65438 0.77782-0.17161 1.4767-0.17161 1.4767s1.6606-0.88572 0.89811-1.9946c-0.71239-1.0336-1.2598-1.547 1.6971-3.3177zm0.89239 4.7137c-0.18296-0.00906-0.38045 0.018871-0.58349 0.092541-0.14243 0.052061-0.21738 0.17327-0.21738 0.17327s0.08906-0.037458 0.28984-0.080727c0.82102-0.17666 1.9986 1.134-0.54535 2.4986-0.01178 0.03252-0.05151 0.06892-0.05148 0.06892 2.9723-0.80682 2.3886-2.6892 1.1079-2.7526zm-5.4783 0.13389s-0.95528-0.067921-2.1318 0.51981c-1.3918 0.69492 3.4408 1.0125 5.9435 0.33275 0.26019-0.18335 0.61971-0.3426 0.61971-0.3426 0 1e-7 -1.0242 0.18923-2.0441 0.27762-1.2484 0.10815-2.5865 0.12832-3.2587 0.035441-1.5915-0.2197 0.87141-0.82303 0.87141-0.82303zm-0.57204 1.587c-2.2959 0.78684 1.2779 1.68 4.4867 0.7108-0.34093-0.1241-0.55869-0.35048-0.55869-0.35048-1.5689 0.31178-2.4751 0.30154-3.6229 0.17918-0.88743-0.09471-0.30509-0.5395-0.30509-0.5395zm0.32416 1.5338c-2.0847 0.60148 1.2679 1.8438 3.9223 0.66945-0.43475-0.17446-0.74747-0.37607-0.74747-0.37607-1.1837 0.23104-1.7324 0.24874-2.8068 0.12208-0.88677-0.10502-0.36801-0.41545-0.36801-0.41545zm-1.3481 1.016c-0.89587-0.0356-2.93 0.88844-1.1937 1.1794 5.4116 0.90576 9.8659-0.4093 8.4624-1.0632 0 0 0.38223 0.32653-0.42331 0.57888-1.5318 0.47908-6.3769 0.62411-7.7226 0.01968-0.4834-0.21741 0.42398-0.51917 0.70933-0.58281 0.29753-0.06645 0.46717-0.05316 0.46717-0.05316-0.067248-0.0489-0.17139-0.07368-0.29937-0.07876zm8.1268 0.8309s-0.1702 0.45042-2.0174 0.80924c-2.0839 0.40513-4.6558 0.35832-6.18 0.09845 0 0 0.31375 0.26747 1.9183 0.3741 2.4413 0.16117 6.1904-0.08884 6.2791-1.2818z" fill="#bebebe" fill-rule="evenodd"/>
</svg>
