<svg width="16" height="16" version="1.1" xmlns="http://www.w3.org/2000/svg">
	<path d="m7 1a6 6 0 0 0 -6 6 6 6 0 0 0 6 6 6 6 0 0 0 6 -6 6 6 0 0 0 -6 -6zm6.7012 8c-0.33333 1.1058-0.9349 2.1322-1.752 2.9492-0.81705 0.81705-1.8434 1.4186-2.9492 1.752v1.2988h6v-6h-1.2988z" fill="#bebebe"/>
	<path d="m13.309 4c0.15365 0.32398 0.28911 0.65674 0.39258 1h1.2988v-1zm0.69141 3c0 0.3354-0.03472 0.66854-0.08398 1h1.084v-1zm-10 6.3086v1.6914h1v-1.2988c-0.34326-0.10347-0.67602-0.23893-1-0.39258zm4 0.60742c-0.33146 0.049262-0.6646 0.083984-1 0.083984v1h1z" fill="#bebebe" opacity=".45"/>
</svg>
