<svg width="16" height="16" version="1.1" xmlns="http://www.w3.org/2000/svg">
	<path d="m7 0.99996a6 6 0 0 0 -6 6 6 6 0 0 0 4 5.6484v-6.6484a1.0001 1.0001 0 0 1 1 -1h6.6504a6 6 0 0 0 -5.6504 -4zm6.3086 3c8.76e-4 0.0018 0.0011 4e-3 2e-3 0.0059 0.15249 0.32227 0.28774 0.65284 0.39062 0.99414h1.2988v-1zm-9.3086 9.3086v1.6914h1v-1.2988c-0.3413-0.10288-0.67187-0.23813-0.99414-0.39062-0.0019-8.81e-4 -4e-3 -0.0011-0.0059-2e-3z" fill="#bebebe"/>
	<path d="m6 6v9h9v-9z" fill="#bebebe" opacity=".45"/>
</svg>
