<svg width="16" height="16" version="1.1" xmlns="http://www.w3.org/2000/svg">
	<path d="m2 1c-0.554 0-1 0.446-1 1v12c0 0.554 0.446 1 1 1h12c0.554 0 1-0.446 1-1v-12c0-0.554-0.446-1-1-1h-12zm2.5898 1h3.0059l1.6738 1.9316 1.6855-1.9316h2.5449c0.277 0 0.5 0.223 0.5 0.5v3.3086l-1.5371 1.7754 1.5371 1.7891v3.7852l-0.72852 0.8418h-1.625l-2.377-2.7188-2.3613 2.7188h-1.627l-2.377-2.7188-0.9043 1.0391v-2.0859l0.90234 1.0469 3.1953-3.6973-3.1953-3.6523-0.90234 1.0371v-2.0859l0.90234 1.0488 1.6875-1.9316zm1.5078 5.584l3.1719 3.6973 3.1934-3.6973-3.1934-3.6523-3.1719 3.6523z" fill="#bebebe"/>
</svg>
