<svg width="16" height="16" version="1.1" xmlns="http://www.w3.org/2000/svg">
	<path d="m2 1c-0.554 0-1 0.446-1 1v12c0 0.554 0.446 1 1 1h12c0.554 0 1-0.446 1-1v-12c0-0.554-0.446-1-1-1h-12zm6 1a6 6 0 0 1 6 6 6 6 0 0 1 -6 6 6 6 0 0 1 -6 -6 6 6 0 0 1 6 -6zm0 2c-0.33752 0.0012549-0.67352 0.045224-1 0.13086v0.86914h1v-1zm0 1v1h1v-1h-1zm1 0h1v-0.45898c-0.31334-0.18065-0.64974-0.31797-1-0.4082v0.86719zm1 0v1h1v-0.63867c-0.11262-0.12802-0.23331-0.24871-0.36133-0.36133h-0.63867zm1 1v1h0.86914c-0.090847-0.35035-0.22882-0.68676-0.41016-1h-0.45898zm0 1h-1v1h1v-1zm0 1v1h0.86719c0.086293-0.32639 0.13092-0.6624 0.13281-1h-1zm0 1h-1v1h1v-1zm0 1v0.63867c0.1736-0.1973 0.32734-0.41122 0.45898-0.63867h-0.45898zm-1 0h-1v1h1v-1zm0 1v0.45898c0.22745-0.13164 0.44138-0.28538 0.63867-0.45898h-0.63867zm-1 0h-1v1c0.33752-0.0013 0.67352-0.04522 1-0.13086v-0.86914zm-1 0v-1h-1v1h1zm-1 0h-1v0.45898c0.31334 0.18065 0.64974 0.31797 1 0.4082v-0.86719zm-1 0v-1h-1v0.63867c0.11262 0.12802 0.23331 0.24871 0.36133 0.36133h0.63867zm-1-1v-1h-0.86914c0.090846 0.35035 0.22882 0.68676 0.41016 1h0.45898zm0-1h1v-1h-1v1zm0-1v-1h-0.86719c-0.086294 0.32639-0.13092 0.6624-0.13281 1h1zm0-1h1v-1h-1v1zm0-1v-0.63867c-0.1736 0.1973-0.32734 0.41122-0.45898 0.63867h0.45898zm1 0h1v-1h-1v1zm0-1v-0.45898c-0.22745 0.13164-0.44138 0.28538-0.63867 0.45898h0.63867zm1 1v0.27148c-0.30301 0.17478-0.55488 0.42598-0.73047 0.72852h-0.26953v1c0.00107 0.35139 0.094712 0.6963 0.27148 1h-0.27148v1h1v-0.26953c0.30389 0.17609 0.64878 0.26905 1 0.26953h1v-0.27148c0.30301-0.17478 0.55488-0.42598 0.73047-0.72852h0.26953v-1c-0.0010741-0.35139-0.094712-0.6963-0.27148-1h0.27148v-1h-1v0.26953c-0.30389-0.17609-0.64878-0.26905-1-0.26953h-1z" fill="#bebebe"/>
	<path d="m8 3v1h1v-0.89844a5 5 0 0 0 -1 -0.10156zm1 1v0.13281a4 4 0 0 1 1 0.4082v-0.54102h-1zm1 0h0.99023a5 5 0 0 0 -0.99023 -0.58008v0.58008zm-2 0h-1v0.13086a4 4 0 0 1 1 -0.13086zm-1 0v-0.89453a5 5 0 0 0 -1 0.31836v0.57617h1zm-1 0h-0.99023a5 5 0 0 0 -0.0097656 0.0078125v0.99219h0.36133a4 4 0 0 1 0.63867 -0.45898v-0.54102zm-1 1h-0.99219a5 5 0 0 0 -0.0078125 0.0097656v0.99023h0.54102a4 4 0 0 1 0.45898 -0.63867v-0.36133zm-1 1h-0.58008a5 5 0 0 0 -0.31836 1h0.89844v-1zm0 1v1a4 4 0 0 1 0.13281 -1h-0.13281zm0 1h-1a5 5 0 0 0 0.10547 1h0.89453v-1zm0 1v1h0.54102a4 4 0 0 1 -0.41016 -1h-0.13086zm0 1h-0.57617a5 5 0 0 0 0.57617 0.99023v-0.99023zm7-5.9922v0.99219h0.99219a5 5 0 0 0 -0.99219 -0.99219zm0 0.99219h-0.36133a4 4 0 0 1 0.36133 0.36133v-0.36133zm1 0.0097656v0.99023h0.57617a5 5 0 0 0 -0.57617 -0.99023zm0 0.99023h-0.54102a4 4 0 0 1 0.41016 1h0.13086v-1zm0 1v1h1a5 5 0 0 0 -0.10547 -1h-0.89453zm0 1a4 4 0 0 1 -0.13281 1h0.13281v-1zm0 1v1h0.58008a5 5 0 0 0 0.31836 -1h-0.89844zm0 1h-0.54102a4 4 0 0 1 -0.45898 0.63867v0.36133h0.99219a5 5 0 0 0 0.007812 -0.009766v-0.99023zm-1 1h-0.36133a4 4 0 0 1 -0.63867 0.45898v0.54102h0.99023a5 5 0 0 0 0.009766 -0.007812v-0.99219zm-1 1h-1v0.89453a5 5 0 0 0 1 -0.31836v-0.57617zm-1 0v-0.13086a4 4 0 0 1 -1 0.13086h1zm-1 0h-1v0.89844a5 5 0 0 0 1 0.10156v-1zm-1 0v-0.13281a4 4 0 0 1 -1 -0.4082v0.54102h1zm-1 0h-0.99023a5 5 0 0 0 0.99023 0.58008v-0.58008zm-1-1.3613v0.36133h0.36133a4 4 0 0 1 -0.36133 -0.36133zm0 0.36133h-0.99219a5 5 0 0 0 0.99219 0.99219v-0.99219z" fill="#bebebe" opacity=".45"/>
</svg>
