<svg width="16" height="16" version="1.1" xmlns="http://www.w3.org/2000/svg">
	<path d="m8 2c-3.866 0-7 2.4101-7 6s3.134 6 7 6c1.065 0 2.065-0.22996 2.9688-0.625l4.0312 1.625-1.4375-3.5625c0.904-1.095 1.4375-1.9519 1.4375-3.4375 0-3.5899-3.134-6-7-6zm-2 3a1 1 0 0 1 1 1 1 1 0 0 1-1 1 1 1 0 0 1-1-1 1 1 0 0 1 1-1zm4 0a1 1 0 0 1 1 1 1 1 0 0 1-1 1 1 1 0 0 1-1-1 1 1 0 0 1 1-1zm-5 4h1.3047a1.9603 2 0 0 0 1.6953 1 1.9603 2 0 0 0 1.6953-1h1.3047a3.1855 3 0 0 1-3 2 3.1855 3 0 0 1-3-2z" fill="#bebebe"/>
</svg>
