<svg width="16" height="16" version="1.1" xmlns="http://www.w3.org/2000/svg">
	<path d="m6.4883 1c-0.54076 0.0031-1.0572 0.22504-1.4316 0.61523-0.7649 0.7971-0.73833 2.063 0.058594 2.8281l2.8848 2.7695 2.8848-2.7695c0.79689-0.76506 0.82344-2.031 0.058593-2.8281-0.7647-0.7974-2.0311-0.82364-2.8281-0.058594l-0.11523 0.11133-0.11523-0.11133c-0.37539-0.36009-0.87631-0.55976-1.3965-0.55664zm-3.4473 3.5c-0.51176-0.010643-1.0272 0.17422-1.4258 0.55664-0.7974 0.7647-0.82364 2.0311-0.058594 2.8281l0.11133 0.11523-0.11133 0.11523c-0.36009 0.37539-0.55976 0.87631-0.55664 1.3965 0.0031 0.54076 0.22504 1.0572 0.61523 1.4316 0.7971 0.7649 2.063 0.73832 2.8281-0.058593l2.7695-2.8848-2.7695-2.8848c-0.38253-0.39845-0.89058-0.60459-1.4023-0.61523zm9.918 0c-0.51176 0.010642-1.0198 0.21679-1.4023 0.61523l-2.7695 2.8848 2.7695 2.8848c0.76509 0.79692 2.031 0.8235 2.8281 0.058593 0.39019-0.37441 0.61213-0.89088 0.61523-1.4316 0.003119-0.52017-0.19655-1.0211-0.55664-1.3965l-0.11133-0.11523 0.11133-0.11523c0.76505-0.79707 0.73881-2.0634-0.058593-2.8281-0.39855-0.38243-0.91402-0.56728-1.4258-0.55664zm-4.959 4.2871-2.8848 2.7695c-0.79692 0.76509-0.8235 2.031-0.058594 2.8281 0.37441 0.39019 0.89088 0.61213 1.4316 0.61523 0.52017 0.003119 1.0211-0.19655 1.3965-0.55664l0.11523-0.11133 0.11523 0.11133c0.79707 0.76505 2.0634 0.73881 2.8281-0.058593 0.76485-0.7971 0.7383-2.0631-0.058593-2.8281l-2.8848-2.7695z" fill="#bebebe"/>
</svg>
