<svg width="16" height="16" version="1.1" xmlns="http://www.w3.org/2000/svg">
	<path d="M 8.6503906 1.0507812 C 7.0237672 1.3881641 5.6843169 3.3264594 5.0292969 4.6777344 C 5.2461369 3.7528344 5.7646831 3.1291094 6.0957031 2.3183594 C 4.3646031 4.2338594 2.6504031 9.6625094 4.3457031 12.974609 C 4.8947031 14.047259 6.1659031 15.420163 7.8457031 14.876953 C 10.502503 14.017853 12.548481 9.5259594 12.337891 5.8183594 C 12.230491 3.9281594 11.658822 2.041005 10.357422 1.328125 C 9.7658969 1.004025 9.1925984 0.93832031 8.6503906 1.0507812 z M 9.6445312 2.3085938 C 10.942138 3.0858234 11.210207 6.0613313 10.585938 7.7226562 C 11.192237 6.8161563 11.258059 5.0566719 11.042969 3.7636719 C 12.074069 6.8215719 10.875178 12.016081 8.4550781 13.050781 C 6.8253781 13.747481 5.7880581 12.034334 5.4863281 10.615234 C 5.6089281 12.196434 6.3708062 14.189579 8.3789062 13.886719 C 7.5072062 14.744769 6.1353919 13.942985 5.6386719 13.203125 C 3.6916719 10.303725 5.5931469 3.6909781 7.9980469 2.3925781 C 8.6640369 2.0330281 9.2119956 2.0495172 9.6445312 2.3085938 z" fill="#bebebe"/>
</svg>
