<svg id="svg4" width="16" height="16" version="1.1" xmlns="http://www.w3.org/2000/svg">
	<path id="path4577" d="M 11.355469 1 L 10.867188 1.2246094 C 10.471987 1.4055194 10.158603 1.4631406 9.2519531 1.5253906 C 7.2503531 1.6627906 6.046425 2.1506625 4.890625 3.2890625 C 3.428665 4.7290625 3.0501875 6.4002937 3.7421875 8.3710938 L 4.0214844 9.1660156 L 3.2734375 9.8554688 C 2.3869175 10.671769 2.0748194 11.217122 2.0058594 12.076172 C 1.8972594 13.429772 2.8266406 14.695118 4.1191406 14.955078 C 4.5851406 15.048808 5.3066606 14.99279 5.9628906 14.8125 C 7.0718906 14.5078 8.162555 13.255947 8.796875 11.560547 C 9.001925 11.012437 9.2352575 10.792858 9.8359375 10.580078 C 11.009337 10.164378 11.743398 9.72266 12.460938 9 C 13.784717 7.6667 14.258154 6.2379531 13.871094 4.7519531 C 13.674594 3.9974531 13.347994 3.4531069 12.740234 2.8730469 C 11.207054 1.4097169 11.242661 1.45032 11.300781 1.21875 L 11.355469 1 z M 8.2832031 2.2480469 C 8.7138231 2.2789969 8.83935 2.3296019 9.09375 2.5761719 L 9.3945312 2.8671875 L 8.9941406 3.71875 C 8.2144706 5.37885 7.983495 6.1776531 7.515625 8.8144531 C 7.044325 11.470553 6.3211438 12.907169 5.1523438 13.505859 L 5.1503906 13.505859 C 4.5610706 13.807749 4.135705 13.849967 3.703125 13.648438 C 3.077845 13.357138 2.7896981 12.620124 3.0800781 12.058594 C 3.2676281 11.695894 3.4256662 11.62224 4.2539062 11.5 C 4.8711463 11.4089 4.9815438 11.360826 5.2773438 11.066406 C 5.8519038 10.494506 5.7475344 10.130225 4.6777344 8.953125 C 3.8195144 8.008825 3.7070312 7.7215562 3.7070312 6.4726562 C 3.7070312 5.4811963 3.7156494 5.438845 4.0371094 4.765625 C 4.8049094 3.157555 6.5489031 2.1233769 8.2832031 2.2480469 z M 10.392578 3.0351562 C 10.532136 3.0435988 10.712218 3.161365 10.960938 3.390625 C 11.805668 4.169325 12.304031 5.7870281 12.087891 7.0488281 C 11.931291 7.9633281 11.394097 8.8319856 10.679688 9.3222656 C 10.139687 9.6928356 9.9179706 9.7109456 9.5878906 9.4160156 L 9.3046875 9.1640625 L 9.3125 8.2382812 C 9.32676 6.6491812 9.7027862 4.2062075 10.066406 3.3359375 C 10.153706 3.1270075 10.253021 3.0267137 10.392578 3.0351562 z" fill="#bebebe" stroke-width=".088413"/>
</svg>
