<svg width="16" height="16" version="1.1" xmlns="http://www.w3.org/2000/svg">
	<path d="m2 1c-0.554 0-1 0.446-1 1v12c0 0.554 0.446 1 1 1h4c0.554 0 1-0.446 1-1v-12c0-0.554-0.446-1-1-1h-4zm8.4863 0.68359c-0.25562-1e-7 -0.51116 0.099053-0.70703 0.29492l-1.7793 1.7793v1.4141l0.36523-0.36523 2.8281 2.8281-1.4141 1.4141-1.7793-1.7793v1.4141l1.0723 1.0723-1.0723 1.0723v1.416l6.0215-6.0234c0.39174-0.39174 0.39174-1.0223 0-1.4141l-2.8281-2.8281c-0.19587-0.19587-0.45141-0.29492-0.70703-0.29492zm-8.4863 0.31641h4v3h-4v-3zm8.4863 0.68555l2.8281 2.8281-1.4141 1.4141-2.8281-2.8281 1.4141-1.4141zm-8.4863 3.3145h4v2h-4v-2zm0 3h4v2h-4v-2zm1.5 3h0.5 0.5c0.277 0 0.5 0.223 0.5 0.5v0.5 0.5c0 0.277-0.223 0.5-0.5 0.5h-0.5-0.5c-0.277 0-0.5-0.223-0.5-0.5v-0.5-0.5c0-0.277 0.223-0.5 0.5-0.5z" fill="#bebebe"/>
	<path d="m12.656 9l-1.6562 1.6582v3.3418h-2v-1.3418l-0.29297 0.29297a1.0001 1.0001 0 0 1 -0.70703 0.29297v0.75586 1h6c0.554 0 1-0.446 1-1v-4c0-0.554-0.446-1-1-1h-1.3438zm-0.65625 1h2v4h-2v-4z" fill="#bebebe" opacity=".45"/>
</svg>
