<svg width="16" height="16" version="1.1" xmlns="http://www.w3.org/2000/svg">
	<path d="m3.6328 1c-0.22065 0.00193-0.44009 0.085615-0.5918 0.24023-2.7216 2.6256-2.7216 6.9115 0 9.5371 0.30575 0.29614 0.87918 0.29571 1.1855 0 0.30636-0.29555 0.30681-0.81832 0-1.1133-2.0934-2.0195-2.0934-5.2598 0-7.2793 0.27784-0.25538 0.33881-0.716 0.125-1.0234-0.14966-0.221-0.44512-0.36304-0.71875-0.36133zm8.7344 0c-0.27363-0.00193-0.56909 0.14033-0.71875 0.36133-0.21381 0.30744-0.15284 0.76806 0.125 1.0234 2.0934 2.0195 2.0934 5.2598 0 7.2793-0.30498 0.29538-0.30542 0.81848 0 1.1133 0.30558 0.29481 0.87935 0.29437 1.1855 0 2.7216-2.6256 2.7216-6.9116 0-9.5371-0.1517-0.15457-0.37115-0.23864-0.5918-0.24023zm-6.7695 1.9863c-0.19141 0.019929-0.36528 0.10573-0.49805 0.24023-1.5981 1.5417-1.5981 4.0833 0 5.625 0.30198 0.30336 0.84602 0.29741 1.1543 0 0.30828-0.2974 0.31445-0.82001 0-1.1113-0.9699-0.93565-0.9699-2.4354 0-3.3711 0.30932-0.2887 0.29923-0.84414 0-1.1426-0.1517-0.15457-0.3731-0.23864-0.59375-0.24023-0.027844 5.583e-4 -0.034855-0.00289-0.0625 0zm4.6484 0c-0.19142 0.019929-0.36724 0.10574-0.5 0.24023-0.29923 0.29844-0.30932 0.85388 0 1.1426 0.96989 0.93565 0.96989 2.4354 0 3.3711-0.31446 0.29132-0.30829 0.81393 0 1.1113 0.30828 0.2974 0.85232 0.30335 1.1543 0 1.5981-1.5417 1.5981-4.0833 0-5.625-0.1517-0.15458-0.3399-0.23864-0.56055-0.24023-0.02794 5.583e-4 -0.06601-0.00289-0.09375 0zm-2.2461 1.6543c-0.79444 0-1.4355 0.61838-1.4355 1.3848 0 0.7664 0.64111 1.3828 1.4355 1.3828s1.4355-0.61642 1.4355-1.3828c0-0.76639-0.64111-1.3848-1.4355-1.3848zm0 4.3594c-0.554 0-1 0.446-1 1v4c0 0.554 0.446 1 1 1s1-0.446 1-1v-4c0-0.554-0.446-1-1-1z" fill="#bebebe"/>
</svg>
