<svg width="16" height="16" version="1.1" xmlns="http://www.w3.org/2000/svg">
	<path d="m8 1c-2.3343-0.07384-4.3577 2.233-3.957 4.5371 0.053901 1.4747 1.4512 2.2214 1.9019 3.4796 0.10191 0.6547 0.036716 1.3223 0.055146 1.9833h4c0.025-0.70375-0.067991-1.4199 0.0901-2.1105 0.54387-1.1815 1.8251-1.9639 1.8767-3.4071 0.34526-2.3091-1.6338-4.5382-3.9668-4.4824zm0 2c1.2964-0.049349 2.3407 1.3679 1.9095 2.5909-0.49487 1.1725-1.8411 1.9769-1.9095 3.4091 0.0074126-1.4993-1.3347-2.1912-1.8954-3.3657-0.4549-1.2482 0.56253-2.6688 1.8954-2.6343zm-2 9v1h4v-1zm1 2v1h2v-1z" fill="#bebebe"/>
</svg>
