<svg width="16" height="16" version="1.1" xmlns="http://www.w3.org/2000/svg">
	<path d="M 9,1 C 9,4.5833333 9,7.1666667 9,10.75 8.3639871,10.282255 7.4849755,10 6.5,10 4.5670034,10 3,11.119288 3,12.5 3,13.880712 4.5670034,15 6.5,15 8.3270535,15 9.8098065,13.994267 9.96875,12.71875 9.9804301,12.667778 10,12.594637 10,12.5 L 10,5 c 3.992305,0.1870785 4.291016,3.941406 3.8125,5.28125 C 15.108671,6.5621522 13.317543,4.2615948 11.84375,3.15625 10.34375,2.03125 10,1 10,1 z" fill="#bebebe" opacity=".45"/>

</svg>
