<svg width="16" height="16" version="1.1" xmlns="http://www.w3.org/2000/svg">
	<path fill="#bebebe" d="m2 1c-0.554 0-1 0.446-1 1v13h2 9.336l-1.606-1.635 0.043 0.041c-0.146-0.132-0.22-0.269-0.265-0.406h-2.0803-5.4277v-9h10v6.521c0.136 0.042 0.269 0.11 0.398 0.254l1.602 1.631v-10.406c0-0.554-0.446-1-1-1h-12zm6 1h1v1h-1v-1zm2 0h1v1h-1v-1zm2 0h1v1h-1v-1zm-3.4824 3.0078c-0.8997 0-1.8024 0.3449-2.4883 1.0313-1.3719 1.373-1.3719 3.5957 0 4.9689 1.196 1.197 3.0554 1.359 4.4177 0.469 0.232 0.011 0.582 0.036 0.715 0.187 0.181 0.205-0.065 0.687 0.281 1l2.147 2.188s0.402 0.435 1.025-0.188 0.188-1.031 0.188-1.031l-2.147-2.188c-0.312-0.347-0.791-0.069-0.996-0.25-0.15-0.133-0.174-0.518-0.185-0.75 0.889-1.3634 0.729-3.2089-0.467-4.4059-0.686-0.6865-1.5907-1.0313-2.4904-1.0313zm0 1.1875c1.2934 0 2.3654 1.0493 2.3654 2.3438 0 1.2944-1.072 2.3439-2.3654 2.3439s-2.3321-1.0494-2.3321-2.3439c0-0.6473 0.2595-1.2631 0.6836-1.6875 0.4242-0.4245 1.0018-0.6563 1.6485-0.6563z"/>
</svg>
