<svg width="16" height="16" version="1.1" xmlns="http://www.w3.org/2000/svg">
	<path d="m4.8182 1c-2.0948 0-3.8182 1.7234-3.8182 3.8182 0 0.64702 0.16328 1.2635 0.4492 1.7968-0.095456 0.44935-0.1123 0.90737-0.1123 1.385 0 3.6868 2.9763 6.6631 6.6631 6.6631 0.47766 0 0.93568-0.01685 1.385-0.1123 0.53507 0.28848 1.1467 0.4492 1.7968 0.4492 2.0948 0 3.8182-1.7234 3.8182-3.8182 0-0.65012-0.16071-1.2617-0.4492-1.7968 0.09546-0.44934 0.1123-0.90737 0.1123-1.385 0-3.6868-2.9763-6.6631-6.6631-6.6631-0.47778 0-0.93558 0.054233-1.385 0.14973-0.53329-0.28598-1.1497-0.48663-1.7968-0.48663zm3.0695 2.508c1.0984 0 1.942 0.28759 2.508 0.6738 0.56606 0.38621 0.86096 0.85712 0.86096 1.2727 0 0.35438-0.07461 0.59654-0.26203 0.74866-0.18742 0.15213-0.43611 0.18717-0.71123 0.18717-0.28656 0-0.51528-0.09047-0.6738-0.2246-0.15852-0.13413-0.24663-0.30284-0.37433-0.4492-0.2554-0.29272-0.5734-0.5615-1.4973-0.5615-0.29484 0-0.62833 0.084912-0.86096 0.2246-0.23263 0.13969-0.37433 0.31974-0.37433 0.63636 0 0.23759 0.1156 0.36881 0.41176 0.52406 0.29616 0.15525 0.76857 0.29954 1.385 0.4492 0.93363 0.25016 1.7831 0.47858 2.3957 0.8984s0.97326 1.0521 0.97326 1.9465c0 0.86955-0.3706 1.5377-1.0107 1.984-0.64009 0.44627-1.5288 0.6738-2.6203 0.6738-1.102 0-2.0202-0.32787-2.6578-0.74866-0.3188-0.2104-0.57311-0.44322-0.74866-0.6738-0.17555-0.23058-0.26203-0.45423-0.26203-0.6738 0-0.35144 0.05263-0.61192 0.2246-0.7861 0.17197-0.17418 0.42871-0.2246 0.71123-0.2246 0.29133 0 0.53134 0.11343 0.71123 0.26203 0.17989 0.14861 0.32509 0.31513 0.48663 0.48663 0.32308 0.343 0.69078 0.6738 1.6096 0.6738 0.29177 0 0.6625-0.07226 0.93583-0.2246 0.27333-0.15234 0.4492-0.36771 0.4492-0.6738 0-0.14699-0.018654-0.2516-0.037433-0.3369-0.018779-0.085302-0.045088-0.15969-0.1123-0.2246-0.13442-0.12981-0.45117-0.26918-1.123-0.4492-0.7304-0.099599-1.678-0.25468-2.4706-0.63636-0.79257-0.38169-1.4225-1.0165-1.4225-1.984 0-0.86719 0.35272-1.5825 0.97326-2.0588s1.4886-0.71123 2.5829-0.71123z" fill="#bebebe"/>
</svg>
