<svg width="16" height="16" version="1.1" xmlns="http://www.w3.org/2000/svg">
	<path d="m8.0249 0.99942c-0.38255-0.0018436-0.58872 0.22541-0.72656 0.39552-0.13784 0.17011-0.23796 0.35236-0.33789 0.55658-0.19985 0.40844-0.38283 0.90396-0.56249 1.4047-0.17966 0.50075-0.35425 1.0034-0.50585 1.3864-0.075804 0.19147-0.14685 0.35494-0.20117 0.45872-0.054316 0.10378-0.12287 0.1449-0.019531 0.067279s0.043168-0.022819-0.068359-0.0020387c-0.11153 0.02078-0.28245 0.040867-0.48046 0.055047-0.39602 0.028359-0.90797 0.040439-1.4199 0.059124-0.51194 0.018686-1.0206 0.042089-1.4551 0.11009-0.21725 0.034002-0.41496 0.074617-0.61328 0.15699-0.19832 0.082368-0.46799 0.21406-0.58788 0.59328-0.1199 0.37922 0.022374 0.65464 0.13476 0.84405 0.11239 0.18941 0.24715 0.34534 0.40234 0.50765 0.31037 0.32462 0.70474 0.65978 1.1055 0.99288 0.40072 0.3331 0.80731 0.66083 1.1094 0.92968 0.15103 0.13442 0.27574 0.25448 0.35351 0.34047 0.077769 0.085994 0.095422 0.16735 0.05664 0.040775-0.038782-0.12658-0.00791-0.047824-0.023437 0.069318-0.015531 0.11714-0.051339 0.29038-0.099608 0.49134-0.09654 0.40192-0.24359 0.91516-0.38476 1.4292-0.14117 0.51401-0.27729 1.0257-0.34961 1.4781-0.036156 0.22619-0.058684 0.43618-0.044921 0.65852 0.013762 0.22234 0.050917 0.53036 0.35937 0.76658 0.30845 0.23621 0.60129 0.17945 0.80859 0.1264 0.2073-0.05305 0.3901-0.13871 0.58593-0.24261 0.39167-0.20782 0.82072-0.49616 1.248-0.79104 0.42732-0.29489 0.85115-0.59668 1.1894-0.81347 0.16914-0.1084 0.31754-0.19402 0.41992-0.24465 0.10238-0.05063 0.182-0.04424 0.054687-0.04485-0.12731-6.14e-4 -0.047241-0.0068 0.054687 0.04485 0.10193 0.05162 0.24979 0.13871 0.41796 0.24873 0.33636 0.22004 0.75889 0.52671 1.1836 0.8257 0.42469 0.29899 0.84845 0.59169 1.2383 0.80327 0.19491 0.10579 0.37911 0.19369 0.58593 0.24873 0.20682 0.05504 0.50001 0.11294 0.81054-0.12029s0.3495-0.5403 0.36523-0.7625c0.01573-0.22219-0.0069-0.43199-0.04101-0.65852-0.06831-0.45306-0.19931-0.96683-0.33593-1.4822-0.13662-0.51535-0.28006-1.0304-0.37304-1.4333-0.04649-0.20142-0.07926-0.3761-0.09375-0.49338-0.01449-0.11729 0.01646-0.19348-0.02344-0.067279s-0.01993 0.044465 0.05859-0.040775c0.07853-0.08524 0.20326-0.20343 0.35547-0.3364 0.30442-0.26593 0.71353-0.59026 1.1172-0.91948 0.40365-0.32923 0.80199-0.66107 1.1152-0.98269 0.15662-0.16081 0.29218-0.31526 0.40624-0.50358 0.11406-0.18832 0.25911-0.46165 0.14258-0.84201-0.11654-0.38036-0.3864-0.51512-0.58398-0.5994-0.19758-0.084276-0.39438-0.12701-0.61132-0.1631-0.43389-0.072189-0.94136-0.10075-1.4531-0.12436s-1.0242-0.039182-1.4199-0.071357c-0.19788-0.016087-0.36717-0.03727-0.47851-0.059124-0.11134-0.021854-0.17296-0.078609-0.07031 0 0.10265 0.078609 0.03387 0.03702-0.01953-0.067279-0.0534-0.1043-0.12316-0.26856-0.19727-0.46076-0.14821-0.38439-0.31696-0.89001-0.49218-1.3925-0.17522-0.50246-0.35455-0.99844-0.55078-1.4088-0.098114-0.20518-0.1957-0.38923-0.33203-0.56066-0.13633-0.17143-0.3401-0.39979-0.72265-0.40164zm-0.00781 1.7105c0.135 0.30496 0.28248 0.68341 0.43164 1.1111 0.17101 0.49038 0.34123 1.0012 0.50781 1.4333 0.083287 0.216 0.16392 0.41139 0.2539 0.58716 0.089988 0.17577 0.15684 0.33515 0.38476 0.50969s0.39439 0.19355 0.58202 0.23038c0.18764 0.03683 0.39089 0.059393 0.61328 0.077473 0.44477 0.03616 0.96147 0.050344 1.4609 0.073396 0.437 0.020169 0.82888 0.05272 1.1484 0.095822-0.23631 0.22875-0.53594 0.49137-0.88085 0.77269-0.39394 0.32131-0.80825 0.64916-1.1504 0.94803-0.17106 0.14943-0.32469 0.2906-0.45703 0.43426-0.13234 0.14365-0.25515 0.25802-0.34375 0.53823-0.08859 0.28021-0.05568 0.45067-0.03125 0.64833 0.02443 0.19766 0.06689 0.40565 0.11914 0.63202 0.1045 0.45273 0.25142 0.9731 0.38476 1.4761 0.11643 0.43919 0.20608 0.83588 0.26562 1.1662-0.28118-0.1639-0.61242-0.37907-0.9746-0.63406-0.41448-0.2918-0.84072-0.60083-1.2187-0.84813-0.18901-0.12365-0.36533-0.2331-0.5371-0.32009-0.17178-0.08699-0.31497-0.17397-0.59765-0.17533-0.28268-0.0014-0.42706 0.08592-0.5996 0.17126-0.17254 0.08533-0.34896 0.19011-0.53906 0.31193-0.38019 0.24364-0.80755 0.55014-1.2246 0.83793-0.36481 0.25175-0.69965 0.46471-0.98241 0.6259 0.062407-0.32993 0.15682-0.72736 0.27734-1.1662 0.13778-0.50165 0.28798-1.0182 0.39648-1.47 0.054249-0.22585 0.098824-0.4346 0.125-0.63202 0.026174-0.19742 0.060721-0.36727-0.02539-0.64833-0.086111-0.28105-0.20878-0.39739-0.33984-0.54231-0.13106-0.14492-0.28339-0.28726-0.45312-0.43833-0.33947-0.30215-0.74953-0.63313-1.1406-0.95822-0.34205-0.28433-0.63881-0.54996-0.87304-0.78085 0.31973-0.039897 0.71003-0.069698 1.1465-0.085628 0.49963-0.018236 1.0178-0.029292 1.4629-0.061163 0.22254-0.015936 0.42727-0.036337 0.61523-0.071357 0.18795-0.03502 0.35257-0.051925 0.58203-0.22426 0.22946-0.17234 0.29713-0.33072 0.38867-0.50561s0.17457-0.36993 0.25976-0.58513c0.17039-0.43038 0.34614-0.93842 0.52148-1.4271 0.15306-0.42661 0.30362-0.80333 0.4414-1.1071z" color="#000000" color-rendering="auto" dominant-baseline="auto" fill="#bebebe" image-rendering="auto" shape-rendering="auto" solid-color="#000000" style="font-feature-settings:normal;font-variant-alternates:normal;font-variant-caps:normal;font-variant-ligatures:normal;font-variant-numeric:normal;font-variant-position:normal;isolation:auto;mix-blend-mode:normal;shape-padding:0;text-decoration-color:#000000;text-decoration-line:none;text-decoration-style:solid;text-indent:0;text-orientation:mixed;text-transform:none;white-space:normal"/>
</svg>
