<svg width="16" height="16" version="1.1" xmlns="http://www.w3.org/2000/svg">
	<path d="m6.5969 3.0729c-1.6078-0.047002-3.2266 0.10048-4.8171 0.45012a0.99503 0.98955 0 0 0 0.43023 1.9323c3.8131-0.83823 7.797-0.4008 11.33 1.2534a0.99239 0.98693 0 1 0 0.84554-1.7831c-2.4563-1.15-5.1093-1.7744-7.7889-1.8527zm-0.28102 3.6035c-1.4002-0.040605-2.8074 0.095496-4.1904 0.4178a0.85107 0.84639 0 1 0 0.38547 1.6488c3.3033-0.76982 6.771-0.3722 9.8107 1.1266a0.85062 0.84594 0 1 0 0.75601-1.512c-2.1211-1.0458-4.4281-1.6135-6.7618-1.6811zm-0.25117 3.4966c-1.1897-0.02439-2.3861 0.11048-3.5562 0.41034a0.70998 0.70608 0 0 0 0.35314 1.3678c2.7848-0.71362 5.735-0.38773 8.2937 0.91766a0.70979 0.70589 0 0 0 0.64659-1.2559c-1.792-0.91419-3.7544-1.3993-5.7372-1.4399z" fill="#bebebe"/>
</svg>
