<svg width="16" height="16" version="1.1" xmlns="http://www.w3.org/2000/svg">
	<path d="m8 1a7 7 0 0 0 -3.7695 1.1094l1.834 1.834a4.5 4.5 0 0 1 1.9355 -0.44336 4.5 4.5 0 0 1 4.5 4.5 4.5 4.5 0 0 1 -0.44336 1.9355l1.8379 1.8379a7 7 0 0 0 1.1055 -3.7734 7 7 0 0 0 -7 -7zm-5.8945 3.2266a7 7 0 0 0 -1.1055 3.7734 7 7 0 0 0 7 7 7 7 0 0 0 3.7695 -1.1094l-1.834-1.834a4.5 4.5 0 0 1 -1.9355 0.44336 4.5 4.5 0 0 1 -4.5 -4.5 4.5 4.5 0 0 1 0.44336 -1.9355l-1.8379-1.8379zm5.8945 1.7734a2 2 0 0 0 -2 2 2 2 0 0 0 2 2 2 2 0 0 0 2 -2 2 2 0 0 0 -2 -2z" fill="#bebebe"/>
</svg>
