<svg width="16" height="16" version="1.1" xmlns="http://www.w3.org/2000/svg">
	<path d="m12 1a3 3 0 0 0 -3 3 3 3 0 0 0 1.004 2.2344l-.004 3.8166a2.5 2.5 0 0 0 -1.2051 .625c-.9526-.546-1.9049-1.0914-2.8574-1.6369a2.5 2.5 0 0 0 .0625 -.5391 2.5 2.5 0 0 0 -2.5 -2.5 2.5 2.5 0 0 0 -2.5 2.5 2.5 2.5 0 0 0 2.5 2.5 2.5 2.5 0 0 0 1.7129 -.682l2.8516 1.635a2.5 2.5 0 0 0 -.0645 .547 2.5 2.5 0 0 0 2.5 2.5 2.5 2.5 0 0 0 2.5 -2.5 2.5 2.5 0 0 0 -.873 -1.896l1.795-4.3013a3 3 0 0 0 1.078 -2.3027 3 3 0 0 0 -3 -3zm0 1a2 2 0 0 1 2 2 2 2 0 0 1 -2 2 2 2 0 0 1 -2 -2 2 2 0 0 1 2 -2zm0 .75a1.25 1.25 0 0 0 -1.25 1.25 1.25 1.25 0 0 0 1.25 1.25 1.25 1.25 0 0 0 1.25 -1.25 1.25 1.25 0 0 0 -1.25 -1.25zm-8.5 4.25a1.5 1.5 0 0 1 1.5 1.5 1.5 1.5 0 0 1 0 .0039c-.3418-.1959-.6836-.3919-1.0254-.5879-.0024-.0013-.0054-.0007-.0078-.0019a.75 .75 0 0 0 -.4668 -.1641 .75 .75 0 0 0 -.3125 .0703c-.2826.0961-.4561.3514-.4355.6406a.75 .75 0 0 0 -.0020 .0391 .75 .75 0 0 0 .5586 .7246c.1863.1164.3917.2146.5742.3301l.3945.2265a1.5 1.5 0 0 1 -.7773 .2188 1.5 1.5 0 0 1 -1.5 -1.5 1.5 1.5 0 0 1 1.5 -1.5zm7 4a1.5 1.5 0 0 1 1.5 1.5 1.5 1.5 0 0 1 -1.5 1.5 1.5 1.5 0 0 1 -1.5 -1.5 1.5 1.5 0 0 1 0 -.010l.9609.551c.0105.006.0227.006.0332.012a.75 .75 0 0 0 .5059 .197 .75 .75 0 0 0 .586 -.283c.029-.033.052-.068.072-.108a.75 .75 0 0 0 .014 -.027c.006-.013.015-.025.019-.039a.75 .75 0 0 0 .008 -.020c.001-.001 0-.002 0-.003a.75 .75 0 0 0 .051 -.270 .75 .75 0 0 0 -.553 -.723c-.044-.028-.083-.063-.131-.086-.278-.159-.555-.319-.8336-.478a1.5 1.5 0 0 1 .7676 -.213z" fill="#bebebe"/>
</svg>
