<svg width="16" height="16" version="1.1" xmlns="http://www.w3.org/2000/svg">
	<path d="m2 1c-0.554 0-1 0.446-1 1v13h2 12v-13c0-0.554-0.446-1-1-1h-12zm6 1h1v1h-1v-1zm2 0h1v1h-1v-1zm2 0h1v1h-1v-1zm-9 2h10v9h-2.2285-7.7715v-9zm7.7715 9c0.31415 0 0.62931-0.11954 0.86914-0.35938 0.47966-0.47966 0.47966-1.2567 0-1.7363l-2.3477-2.334c-0.14931 0.38049-0.37415 0.73352-0.68164 1.041-0.30749 0.30749-0.66052 0.53234-1.041 0.68164l2.334 2.3477c0.23983 0.23983 0.55304 0.35938 0.86719 0.35938zm-4.3262-8c-0.20977 0.00104-0.4209 0.029684-0.625 0.083984l1.4863 1.5-1.7227 1.7227-1.5-1.4863c-0.2172 0.81641-0.015386 1.721 0.625 2.3613 0.95635 0.95635 2.5163 0.95635 3.4727 0 0.95635-0.95635 0.95635-2.5163 0-3.4727-0.48027-0.48027-1.107-0.71205-1.7363-0.70898zm4.3613 6.1543c0.14837 0.0105 0.29027 0.081289 0.40234 0.19336 0.23909 0.23909 0.23909 0.62224 0 0.86133-0.23909 0.23909-0.62224 0.23909-0.86133 0-0.23908-0.23909-0.23908-0.62224 0-0.86133 0.08966-0.08966 0.19087-0.15727 0.30664-0.17969 0.04824-0.0093 0.10289-0.017172 0.15234-0.013672z" fill="#bebebe"/>
</svg>
