<svg width="16" height="16" version="1.1" xmlns="http://www.w3.org/2000/svg">
	<path d="m10.188 2.6407c-.27324.07128-.53502.27971-.65625.5625-.06658.25129-.01018.51474.09375.75.0036.021124-.0047.041755 0 .0625.04269.18901.13693.37462.28125.5.62051.35825 1.1673.90091 1.5312 1.5312.28750.49796.46517 1.0366.53125 1.5625.03304.26292.01802.52209 0 .78125-.06608.52585-.24375 1.0645-.53125 1.5625-.36393.63034-.91074 1.173-1.5312 1.5312-.16576 0.144-.24824.34024-.28125.5625-.10393.23526-.16032.49871-.09375.75.10615.24762.33018.38079.5625.46875.06344.02402.12109.05206.1875.0625.02265.0066.03891.02697.0625.03125.07976.01754 0.169.0058.25 0 .18224-.01313.35356-.06657.5-.1875.89968-.51943 1.6112-1.2664 2.125-2.1562.38017-.65848.61381-1.3724.71875-2.0938.0071-.04271.02503-.08216.03125-.125.01738-.14121.02404-.29581.03125-.4375.0036-.05038-.0023-.10579 0-.15625.0038-.14945.0073-.28839 0-.4375-.0011-.04257.002-.08244 0-.125-.01046-.14824-.0099-.29044-.03125-.4375-.0053-.04312-.02499-.08196-.03125-.125-.10494-.72136-.33858-1.4353-.71875-2.0938-.51376-.88985-1.2253-1.6368-2.125-2.1562-.14644-.12093-.31776-.17437-.5-.1875-.08416-.016687-.16406-.00756-.25 0-.05372.00472-.10370-.013708-.15625 0zm-4.4375.03125c-.083814-.0045-.16762.017032-.25.03125-.052073.00899-.10612.014227-.15625.03125-.00949.00153-.021818-.00177-.03125 0-.14062.00616-.27947.038818-.40625.09375-.89968.51943-1.6112 1.2664-2.125 2.1562-.38017.65848-.61381 1.3724-.71875 2.0938-.021745.14947-.052221.28731-.0625.4375-.00384.04195.00296.08298 0 .125-.002.04256.00109.08243 0 .125-.00734.14911-.00382.28805 0 .4375.00467.10308-.00995.20984 0 .3125.00697.09121.020054.19028.03125.28125.00622.04284.024108.08229.03125.125.10494.72136.33858 1.4353.71875 2.0938.51376.88985 1.2253 1.6368 2.125 2.1562.13607.05896.28640.09115.4375.09375.029695.01008.063297-.0072.09375 0 .50052.11888 1.0962-.12292 1.2812-.5625.19635-.46633-.10724-1.0429-.625-1.2188-.6209-.359-1.1678-.901-1.5317-1.5318-.2875-.4980-.4652-1.0367-.5312-1.5625-.033039-.26292-.018024-.52209 0-.78125.066077-.52585.24375-1.0645.53125-1.5625.36393-.63034.91074-1.173 1.5312-1.5312.51776-.17582.82135-.75242.625-1.2188-.14726-.34975-.55838-.60297-.96875-.625z" fill="#bebebe"/>
</svg>
