<svg width="16" height="16" version="1.1" xmlns="http://www.w3.org/2000/svg">
	<path d="m2.5 1c-0.831 0-1.5 0.669-1.5 1.5v11c0 0.831 0.669 1.5 1.5 1.5h11c0.831 0 1.5-0.669 1.5-1.5v-11c0-0.831-0.669-1.5-1.5-1.5h-11zm1 2h9c0.277 0 0.5 0.223 0.5 0.5v9c0 0.277-0.223 0.5-0.5 0.5h-9c-0.277 0-0.5-0.223-0.5-0.5v-9c0-0.277 0.223-0.5 0.5-0.5zm5.7656 1.998c-0.69745 5.8e-6 -1.2355 0.15097-1.6074 0.46094-0.37197 0.30998-0.55664 0.75795-0.55664 1.334 0 0.4598 0.13628 0.82643 0.40234 1.0977 0.26865 0.27123 0.687 0.46586 1.2656 0.58984l0.58203 0.12695c0.3513 0.077497 0.58102 0.16356 0.69727 0.26172 0.11882 0.098161 0.18164 0.24106 0.18164 0.42188-4e-6 0.20149-0.088655 0.3544-0.26172 0.46289-0.17307 0.10849-0.42453 0.16602-0.75 0.16602-0.32031 9e-7 -0.65191-0.048328-0.99805-0.14648-0.34356-0.10074-0.69702-0.2529-1.0664-0.44922v1.2598c0.36939 0.13691 0.73608 0.23885 1.1055 0.30859 0.36939 0.06975 0.73866 0.10742 1.1055 0.10742 0.77752 0 1.3514-0.15291 1.7285-0.46289 0.37972-0.31256 0.56835-0.7897 0.56836-1.4277-5e-6 -0.48563-0.12917-0.86152-0.40039-1.125-0.27124-0.26348-0.72985-0.46068-1.373-0.58984l-0.63672-0.12695c-0.30223-0.061992-0.51462-0.13546-0.63086-0.2207-0.11366-0.087822-0.16602-0.20634-0.16602-0.36133-2.2e-6 -0.20665 0.083417-0.36473 0.25391-0.46289 0.17048-0.098154 0.43454-0.14648 0.79102-0.14648 0.26864 5.1e-6 0.55519 0.040955 0.85742 0.11328 0.30222 0.072334 0.61196 0.1802 0.92969 0.32227v-1.2266c-0.35906-0.09557-0.70912-0.16834-1.0449-0.21484-0.33581-0.049073-0.65884-0.07226-0.97656-0.072266zm-4.4043 0.0058593v5.0645c-0.067677 0.75975-0.40464 1.119-1.1855 1.0508h-0.24219v1.166h0.31641c0.81832-2e-6 1.4256-0.18098 1.8281-0.54883 0.40516-0.36784 0.60937-0.92428 0.60938-1.668v-5.0645h-1.3262z" fill="#bebebe"/>
</svg>
