<svg width="16" height="16" version="1.1" xmlns="http://www.w3.org/2000/svg">
	<path fill="#bebebe" d="m7 2v10h-6v1h13v-1h-6v-10h-1zm-4.0117 4l0.0039 1h1.4043c0.8077 0.009 0.6177 0.9429 0.5957 1h-1.8125c-1.5205 0.0706-1.625 3 0 3h2.3418 0.4707v-0.406-3.1565c0-0.3705-0.1016-0.7161-0.3125-0.9687-0.2109-0.2528-0.5304-0.4367-0.8457-0.4688h-0.0313-1.8066-0.0078zm7 0l0.0039 1h1.4038c0.808 0.009 0.618 0.9429 0.596 1h-1.812c-1.5208 0.0706-1.6253 3 0 3h2.341 0.471v-0.406-3.1565c0-0.3705-0.101-0.7161-0.312-0.9687-0.211-0.2528-0.531-0.4367-0.846-0.4688h-0.031-1.8069-0.0078zm-6.627 3h0.0313 0.0312 1.5684v1h-1.6602-0.0312c-0.3753-0.0127-0.3419-1.0403 0.0605-1zm6.9997 0h0.032 0.031 1.568v1h-1.66-0.031c-0.3755-0.0127-0.3421-1.0403 0.06-1z"/>
</svg>
