<svg width="16" height="16" version="1.1" xmlns="http://www.w3.org/2000/svg">
	<path d="m2.5 1c-0.831 0-1.5 0.669-1.5 1.5v6.5859l0.79102-0.79297a1.0001 1.0001 0 0 1 0.69336 -0.29297 1.0001 1.0001 0 0 1 0.51562 0.13672v-0.13672-4.5c0-0.277 0.223-0.5 0.5-0.5h9c0.277 0 0.5 0.223 0.5 0.5v4.5 4.5c0 0.277-0.223 0.5-0.5 0.5h-3.9141-0.7207a1.0001 1.0001 0 0 1 -0.1582 1.207l-0.79297 0.79297h3.6719 2.9141c0.831 0 1.5-0.669 1.5-1.5v-2.5-8.5c0-0.831-0.669-1.5-1.5-1.5h-11zm6.4707 3c-0.4095 0-0.81903 0.025072-1.2285 0.076172-0.4095 0.0476-0.81662 0.11964-1.2227 0.21484v1.3926c0.3001-0.1564 0.62511-0.27326 0.97461-0.35156 0.3496-0.0782 0.72682-0.11719 1.1328-0.11719 0.501 0 0.86944 0.06713 1.1055 0.20312 0.237 0.1326 0.27148 0.34361 0.27148 0.63281v0.14258h-1.0332c-1.0238 0-1.7757 0.1577-2.2559 0.4707-0.47611 0.31258-0.71435 0.80333-0.71484 1.4727a1.0001 1.0001 0 0 1 0.20508 0.15625l1.502 1.5a1.0001 1.0001 0 0 1 0.14844 0.19141c0.071612 0.005178 0.1398 0.015625 0.21484 0.015625 0.4555 0 0.84292-0.07837 1.1602-0.23438 0.318-0.161 0.51944-0.41277 0.77344-0.75977v0.99414h1.9961v-3.4082c0-0.9149-0.23784-1.5757-0.71484-1.9805-0.473-0.4081-1.2452-0.61133-2.3145-0.61133zm0.13281 3.2812h0.90039v0.20898c0 0.3708-0.03825 0.67973-0.28125 0.92773-0.244 0.245-0.54369 0.36719-0.90039 0.36719-0.286 0-0.50948-0.064358-0.67188-0.19336-0.1589-0.133-0.23828-0.31392-0.23828-0.54492 0-0.2518 0.099165-0.44307 0.29688-0.57227 0.2012-0.1292 0.49863-0.19336 0.89453-0.19336zm-6.6055 1.7188l-1.498 1.5 1.5 1.5-1.5 1.5 1.5 1.5 1.498-1.5 1.502 1.5 1.5-1.5-1.5-1.5 1.5-1.5-1.502-1.5-1.502 1.5-1.498-1.5zm-1.498 2.9141v0.17188l0.085938-0.085938-0.085938-0.085938zm2.998 3l-0.085938 0.085938h0.17188l-0.085938-0.085938z" fill="#bebebe"/>
	<path d="M 2.4976,9 1,10.5 2.4995,12 1,13.5 2.4995,15 3.999,13.5 5.5005,15 7,13.5 5.5005,12 7,10.5 5.4985,9 3.997,10.5 Z" fill="#d40000"/>
</svg>
