<svg width="16" height="16" version="1.1" xmlns="http://www.w3.org/2000/svg">
	<path d="m9 1v6h2.781c1.681 0.0687 1.605-4.1251-0.031-4-0.012 0.0009-0.02-0.001-0.031 0h-1.719v-2h-1zm-5.0117 1l0.0039 1h1.4043c0.8077 0.009 0.6177 0.9429 0.5957 1h-1.8125c-1.5205 0.0706-1.625 3 0 3h2.3418 0.4707v-0.4062-3.1563c0-0.3705-0.1016-0.7161-0.3125-0.9687-0.2109-0.2528-0.5304-0.4367-0.8457-0.4688h-0.0313-1.8066-0.0078zm6.0117 2h1.812 0.032 0.031c0.368-0.0382 0.435 2.0178 0 2h-0.031-1.844c-0.006-0.4756 0.004-1.853 0-2zm-5.6387 1h0.0313 0.0312 1.5684v1h-1.6602-0.0312c-0.3753-0.0127-0.3419-1.0403 0.0605-1zm3.6387 3c-0.6377 0-1.2527 0.0922-1.8398 0.252a1.0001 1.0001 0 0 1 0.0449 0.041l0.7969 0.7968c0.3253-0.0546 0.6571-0.0898 0.998-0.0898 3.314 0 6 2.686 6 6h1c0-3.866-3.134-7-7-7zm-5.502 1l-1.498 1.5 1.5 1.5-1.5 1.5 1.5 1.5 1.5-1.5 1.5 1.5 1.5-1.5-1.5-1.5 1.5-1.5-1.502-1.5-1.5019 1.5-1.4981-1.5zm-1.4941 5.918c-0.0003 0.028-0.0039 0.054-0.0039 0.082h0.0859l-0.082-0.082z" fill="#bebebe"/>
	<path d="m2.4976 9-1.4976 1.5 1.4995 1.5-1.4995 1.5 1.4995 1.5 1.4995-1.5 1.5015 1.5 1.4995-1.5-1.4995-1.5 1.4995-1.5-1.5015-1.5-1.5015 1.5-1.4994-1.5z" fill="#d40000"/>
</svg>
