<svg width="16" height="16" version="1.1" xmlns="http://www.w3.org/2000/svg">
	<path fill="#bebebe" d="m2 1a1.0001 1.0001 0 1 0 0 2h6c1.8333 0 3.073.4540 3.842 1.127.769.6729 1.158 1.5952 1.158 2.873a1.0001 1.0001 0 1 0 2 0c0-1.7222-.611-3.2999-1.842-4.377-1.231-1.077-2.991-1.623-5.158-1.623h-6zm-.4922 3.9922a.50005 .50005 0 1 0 0 1h6c1.1443-.0027 1.738.3273 2.0742.6660.3363.3387.4180.7590.4180.8418a.50005 .50005 0 1 0 1 0c0-.4172-.170-1.0036-.707-1.5449-.5371-.5411-1.4395-.9656-2.7852-.9629h-6zm10.492 4.0078v2h-3v2h3v2l3-3-3-3zm-7 1.98v1.01 1.01h3v-2.02h-3zm-4 .020v2.02h3v-2.02h-3z"/>
</svg>
