<svg width="16" height="16" version="1.1" xmlns="http://www.w3.org/2000/svg">
	<path d="m8 0.99982c-0.82843 0-1.5 0.67157-1.5 1.5 0 0.65584 0.41359 1.2024 1 1.4062v2.3752l-2.3125 1.8438-0.1875 0.125v0.25 0.5h-0.5v2h2v-2h-0.5v-0.28125l1.5-1.1875v4.4688h-1l1.5 3 1.5-3h-1v-5.4688l1.5 1.1875v0.4375c-0.292 0.17461-0.5 0.47878-0.5 0.84375 0 0.55228 0.44772 1 1 1s1-0.44772 1-1c0-0.36497-0.208-0.66914-0.5-0.84375v-0.65625-0.25l-0.1875-0.125-2.3125-1.8438v-1.3751c0.58641-0.20384 1-0.75041 1-1.4062 0-0.66094-0.5-1.5001-1.5-1.5001z" fill="#bebebe"/>
</svg>
