<svg width="16" height="16" version="1.1" xmlns="http://www.w3.org/2000/svg">
	<path d="m 8,1 c 0,0 -0.4036241,2.4358249 -1.3758621,2.7517241 -0.9722379,0.3158993 -2.7275862,-1.4 -2.7275862,-1.4 0,0 1.0836346,2.1902065 0.4827586,3.0172414 -0.600876,0.827035 -3.0413793,0.4586207 -3.0413793,0.4586207 0,0 2.1965516,1.1501424 2.1965517,2.1724138 1e-7,1.0222711 -2.1965517,2.172414 -2.1965517,2.172414 0,0 2.4405032,-0.3684146 3.0413793,0.45862 0.6008761,0.827036 -0.4827586,3.017242 -0.4827586,3.017242 0,0 1.7553483,-1.7159 2.7275862,-1.4 C 7.5963751,12.564175 8,15 8,15 c 0,0 0.403624,-2.435825 1.375862,-2.751724 0.972238,-0.3159 2.727586,1.4 2.727586,1.4 0,0 -1.083635,-2.190206 -0.482758,-3.017242 0.600876,-0.8270346 3.041379,-0.45862 3.041379,-0.45862 0,0 -2.196552,-1.1501429 -2.196552,-2.172414 0,-1.0222714 2.196552,-2.1724138 2.196552,-2.1724138 0,0 -2.440503,0.3684142 -3.041379,-0.4586207 -0.600877,-0.8270349 0.482758,-3.0172414 0.482758,-3.0172414 0,0 -1.755348,1.7158993 -2.727586,1.4 C 8.403624,3.4358249 8,1 8,1 z m 0,3.9103448 c 1.7063694,0 3.089655,1.3832858 3.089655,3.0896552 0,1.7063694 -1.3832856,3.089655 -3.089655,3.089655 C 6.2936305,11.089655 4.9103448,9.7063694 4.9103448,8 4.9103448,6.2936306 6.2936305,4.9103448 8,4.9103448 z" fill="#bebebe"/>

</svg>
