<svg width="16" height="16" version="1.1" xmlns="http://www.w3.org/2000/svg">
	<path d="m2 1c-0.554 0-1 0.446-1 1v4.5c0 0.554 0.446 1 1 1s1-0.446 1-1v-2.0938l1 1v1.5938h2v-0.5c0-0.277 0.22437-0.47244 0.5-0.5h0.5v-2h-1.5938l-1-1h2.0938c0.554 0 1-0.446 1-1s-0.446-1-1-1h-4.5zm7.5 0c-0.554 0-1 0.446-1 1s0.446 1 1 1h2.0938l-1 1h-1.5938v2h0.5c0.277 0 0.47244 0.22437 0.5 0.5v0.5h2v-1.5938l1-1v2.0938c0 0.554 0.446 1 1 1s1-0.446 1-1v-4.5c0-0.554-0.446-1-1-1h-4.5zm4.5 7.5c-0.554 0-1 0.446-1 1v2.0938l-1-1v-1.5938h-2v0.5c0 0.277-0.22437 0.47244-0.5 0.5h-0.5v2h1.5938l1 1h-2.0938c-0.554 0-1 0.446-1 1s0.446 1 1 1h4.5c0.554 0 1-0.446 1-1v-4.5c0-0.554-0.446-1-1-1zm-10 0.5v2c0 0.554 0.446 1 1 1h2v-2h-0.5c-0.277 0-0.5-0.223-0.5-0.5v-0.5h-2z" color="#000000" enable-background="new" fill="#bebebe"/>
</svg>
