<svg width="16" height="16" version="1.1" xmlns="http://www.w3.org/2000/svg">
	<path fill="#bebebe" d="m6.0352.99805v.00195c-1.2841 0-2.5874.5244-3.5664 1.5059-1.7724 1.7765-1.9341 4.5314-.4981 6.4941h1.0293.7285c-.8759-.6879-1.4473-1.7463-1.4473-2.9512.0002-2.0819 1.6771-3.7636 3.754-3.7636s3.7539 1.6817 3.7539 3.7636c0 1.2046-.5718 2.2633-1.4473 2.9512h.6582a1.0001 1.0001 0 0 1 1 1v.818c.106.253.150.549.477.875l3.066 3.041c.003-.003.590 0.6 1.187 0 0.6-.601.009-1.18 0-1.191l-3.033-3.072c-.457-.459-.828-.361-1.127-.6605-.492-.4939-.029-1.5034 0-1.5664.904-1.8745.582-4.1863-.9684-5.7402-.9791-.9814-2.2823-1.5058-3.5664-1.5058zm-1.1075 8.627a1.0001 1.0001 0 0 1 .0723 .375h1a1.0001 1.0001 0 0 1 0.5 .135 1.0001 1.0001 0 0 1 .3516 -.123c.1106-.0169.1062-.011.1484-.012a1.0001 1.0001 0 0 1 .0645 -.3496c-.3290.0940-.6698.1601-1.0293.1601-.3885 0-.7554-.0763-1.1075-.1855zm-3.9277.375v1h2v1h-1-1v1 1 1h3v-1h-2v-1h2v-1-1-1h-1-2zm7 0c.0771 1.076-.779.967-1 1v1h1v3h1v-5h-1zm-3 1v1h1v-1h-1zm0 2v1h1v-1h-1z"/>
</svg>
