<svg xmlns:rdf="http://www.w3.org/1999/02/22-rdf-syntax-ns#" xmlns="http://www.w3.org/2000/svg" height="96" width="96" version="1.0" xmlns:cc="http://creativecommons.org/ns#" xmlns:xlink="http://www.w3.org/1999/xlink" xmlns:dc="http://purl.org/dc/elements/1.1/">
<defs>
<linearGradient id="ButtonShadow" x1="45.448" gradientUnits="userSpaceOnUse" y1="80.472" gradientTransform="matrix(1.0059 0 0 .99417 0 12)" x2="45.448" y2="7.0165">
<stop offset="0"/>
<stop stop-opacity=".58824" offset="1"/>
</linearGradient>
<linearGradient id="dddddd" x1="48" gradientUnits="userSpaceOnUse" y1="78" gradientTransform="translate(0,8)" x2="48" y2="5.9877">
<stop stop-color="#76b749" offset="0"/>
<stop stop-color="#a6d08a" offset="1"/>
</linearGradient>
<clipPath id="llllll" clipPathUnits="userSpaceOnUse">
<rect rx="6" ry="6" height="72" width="84" y="18" x="6" fill="#f0f"/>
</clipPath>
<filter id="jjjjjj" y="-.19716" width="1.3312" x="-.16559" height="1.3943">
<feGaussianBlur stdDeviation="5.1703125"/>
</filter>
<linearGradient id="iiiiii" x1="48" gradientUnits="userSpaceOnUse" x2="48" gradientTransform="matrix(1,0,0,-1,0,92)" y1="75.083" y2="-40">
<stop stop-color="#fff" offset="0"/>
<stop stop-color="#fff" stop-opacity="0" offset="1"/>
</linearGradient>
<linearGradient id="ggggg" y2="81.481" gradientUnits="userSpaceOnUse" y1="22.933" x2="48.022" x1="48.022">
<stop stop-color="#fff" offset="0"/>
<stop stop-color="#fff" stop-opacity="0" offset="1"/>
</linearGradient>
<linearGradient id="hhhhhh" x1="34.86" gradientUnits="userSpaceOnUse" y1="16.275" gradientTransform="matrix(.72 0 0 .72 1.92 -5.52)" x2="34.86" y2="26.987">
<stop stop-color="#96c874" offset="0"/>
<stop stop-color="#81bd59" offset=".75"/>
<stop stop-color="#66a040" offset="1"/>
</linearGradient>
<linearGradient id="cccccc" x1="43" xlink:href="#ButtonShadow" gradientUnits="userSpaceOnUse" x2="43" y1="91" y2="7"/>
<linearGradient id="bbbbbb" x1="45" xlink:href="#ButtonShadow" gradientUnits="userSpaceOnUse" x2="45" y1="92" y2="7"/>
<linearGradient id="aaaaaa" x1="90" spreadMethod="reflect" gradientUnits="userSpaceOnUse" y1="88" gradientTransform="translate(0,10)" x2="48" y2="88">
<stop stop-opacity=".58824" offset="0"/>
<stop stop-opacity=".47059" offset=".1178"/>
<stop stop-opacity=".39216" offset=".2381"/>
<stop stop-opacity=".31373" offset="1"/>
</linearGradient>
</defs>
<g fill="url(#bbbbbb)">
<path opacity=".08" d="m14.125 4c-4.4339 0-8.125 3.5684-8.125 8v2.1562c-2.3764 1.802-4 4.603-4 7.844v63c0 5.5036 4.4964 10 10 10h72c5.5036 0 10-4.4964 10-10v-63c0-3.483-1.853-6.453-4.531-8.219-0.987-3.289-3.943-5.781-7.594-5.781h-39.5c-1.403-1.3548-2.54-2.5096-3.687-3.1562-1.496-0.8424-2.931-0.8143-3.813-0.8438a0.9278 0.9278 0 0 0 -0.03125 0c-0.0012-0.0000173-0.03009-0.0000173-0.03125 0h-20.688z"/>
<path opacity=".1" d="m14.125 4.9375c-3.941 0-7.1875 3.1433-7.1875 7.0625v2.5938c-2.3826 1.6221-4 4.2939-4 7.4062v63c0 5.0014 4.0611 9.0625 9.0625 9.0625h72c5.0014 0 9.0625-4.0611 9.0625-9.0625v-63c0-3.2608-1.7732-6.0397-4.3438-7.625-0.76-3.096-3.477-5.4375-6.843-5.4375h-39.812c-1.598-1.5412-2.773-2.6775-3.844-3.2813-1.273-0.7172-2.448-0.6876-3.375-0.7187a1.0438 1.0438 0 0 0 -0.03125 0h-20.687z"/>
<path opacity=".2" d="m14.125 5.9688c-3.389 0-6.1562 2.688-6.1562 6.0312v3.125c-2.3751 1.394-4 3.9205-4 6.875v63c0 4.4381 3.5931 8.0312 8.0312 8.0312h72c4.4381 0 8.0312-3.5931 8.0312-8.0312v-63c0-3.032-1.7122-5.6044-4.1875-6.9688-0.49189-2.8596-2.9286-5.0625-5.9688-5.0625h-40.188c-1.834-1.7751-3.008-2.8656-3.968-3.4065-1.038-0.5843-1.941-0.5614-2.907-0.5937a1.0438 1.0438 0 0 0 -0.03125 0h-20.656z"/>
<path opacity=".3" d="m14.125 7c-2.843 0-5.125 2.23-5.125 5v3.6875c-2.3641 1.121-4 3.512-4 6.312v63c0 3.878 3.122 7 7 7h72c3.878 0 7-3.122 7-7v-63c0-2.81-1.653-5.196-4.031-6.312-0.17-2.619-2.362-4.688-5.094-4.688h-40.594c-4.2205-4.1123-4.5028-3.9331-6.5-4h-20.656z"/>
</g>
<path opacity=".45" fill="url(#cccccc)" d="m15 7c-2.77 0-5 2.23-5 5v3.3438c-2.3335 0.821-4 3.035-4 5.656v64c0 3.324 2.676 6 6 6h72c3.324 0 6-2.676 6-6v-64c0-2.642-1.7-4.851-4.062-5.656-0.327-2.451-2.396-4.344-4.938-4.344h-40.531c-4.113-4.1123-4.367-3.9331-6.313-4h-19.156z"/>
<path fill="url(#hhhhhh)" d="m15 6c-2.77 0-5 2.23-5 5v59.812c0 2.3933 1.9192 4.3125 4.3125 4.3125h67.375c2.394 0.001 4.313-1.918 4.313-4.312v-55.812c0-2.77-2.23-5-5-5h-40.531c-4.113-4.1123-4.367-3.9331-6.313-4z"/>
<path opacity=".15" fill="#fff" d="m15 6c-2.77 0-5 2.23-5 5v59.812c0 2.3933 1.9192 4.3125 4.3125 4.3125h67.375c2.394 0.001 4.313-1.918 4.313-4.312v-55.812c0-2.77-2.23-5-5-5h-40.531c-4.113-4.1123-4.367-3.9331-6.313-4h-19.156zm0 1.0312h19.156c0.96498 0.031157 1.1925-0.016972 1.8125 0.34375 0.63029 0.36673 1.7068 1.3318 3.75 3.375a1.0438 1.0438 0 0 0 0.75 0.28125h40.531c2.2099 0 3.9688 1.7589 3.9688 3.9688v55.812c0 1.8353-1.4459 3.2812-3.2812 3.2812h-67.375c-1.8353 0-3.2812-1.4459-3.2812-3.2812v-59.812c0-2.2099 1.7589-3.9688 3.9688-3.9688z"/>
<rect rx="6" ry="6" height="76" width="84" y="14" x="6" fill="url(#dddddd)"/>
<path opacity=".35" fill="url(#iiiiii)" d="m12 86c-3.324 0-6-2.676-6-6v-60c0-3.324 2.676-6 6-6h72c3.324 0 6 2.676 6 6v60c0 3.324-2.676 6-6 6zm0-0.96875h72c2.8049 0 5.0312-2.2264 5.0312-5.0312v-60c0-2.8049-2.2264-5.0312-5.0312-5.0312h-72c-2.8049 0-5.0312 2.2264-5.0312 5.0312v60c0 2.8049 2.2264 5.0312 5.0312 5.0312z"/>
<path opacity=".1" fill="#fff" d="m6 78v2c0 3.324 2.676 6 6 6h72c3.324 0 6-2.676 6-6v-2c0 3.324-2.676 6-6 6h-72c-3.324 0-6-2.676-6-6z"/>
<path fill="#6caa44" d="m6 80v4c0 3.324 2.676 6 6 6h72c3.324 0 6-2.676 6-6v-4c0 3.324-2.676 6-6 6h-72c-3.324 0-6-2.676-6-6z"/>
<g transform="translate(0,-10)">
<path opacity=".5" fill="url(#aaaaaa)" d="m6 90v4c0 3.324 2.676 6 6 6h72c3.324 0 6-2.676 6-6v-4c0 3.324-2.676 6-6 6h-72c-3.324 0-6-2.676-6-6z"/>
<path opacity=".1" style="color:#000000" d="m6 92v2c0 3.324 2.676 6 6 6h72c3.324 0 6-2.676 6-6v-2c0 3.324-2.676 6-6 6h-72c-3.324 0-6-2.676-6-6z"/>
<path opacity=".15" style="color:#000000" d="m6 93v1c0 3.324 2.676 6 6 6h72c3.324 0 6-2.676 6-6v-1c0 3.324-2.676 6-6 6h-72c-3.324 0-6-2.676-6-6z"/>
</g>
<path opacity=".1" d="m15.969 22.531c-2.8459 0.0043-5.4332 2.5916-5.4375 5.4375v48.062c0.0043 2.8459 2.5916 5.4332 5.4375 5.4375h64.062c2.8459-0.0043 5.4332-2.5916 5.4375-5.4375v-48.062c-0.006-2.845-2.593-5.433-5.439-5.437z" clip-path="url(#llllll)" filter="url(#jjjjjj)" fill="url(#ggggg)"/>

<defs>
<linearGradient id="a">
<stop stop-color="#527838" stop-opacity=".78431" offset="0"/>
<stop stop-color="#527838" stop-opacity=".39216" offset="1"/>
</linearGradient>
<linearGradient id="b" y2="1.8332" xlink:href="#a" gradientUnits="userSpaceOnUse" y1="18.869" gradientTransform="matrix(2.5842 0 0 2.5842 18.116 22.973)" x2="8.9155" x1="8.9155"/>
</defs>
<path opacity=".05" d="m41.531 26c-4.486 0-8.991 1.691-12.406 5.094-6.834 6.809-6.834 17.94 0 24.75 5.759 5.738 14.548 6.641 21.281 2.687 0.348 0.027 0.714 0.037 1 0.094 0.194 0.039 0.08-0.037 0.156 0 0.005 0.188-0.005 0.388 0 0.75 0.016 0.938 0.272 2.532 1.5 3.719l-0.031 0.031 0.094 0.094 9.406 9.531 0.031 0.031c0.048 0.049 0.942 0.965 2.344 1.188 1.44 0.228 3.342-0.349 5.032-2.031 1.69-1.685 2.262-3.59 2.031-5.032-0.219-1.366-1.065-2.221-1.157-2.312l-0.062-0.063-9.406-9.531c-0.022-0.024-0.041-0.039-0.063-0.062-1.196-1.264-2.864-1.462-3.812-1.469-0.347-0.003-0.531 0.002-0.719 0-0.035-0.072 0.045 0.026 0-0.188-0.06-0.284-0.096-0.631-0.125-0.969 3.966-6.708 3.105-15.478-2.656-21.218-3.42-3.408-7.951-5.094-12.438-5.094zm0 2c3.977 0 7.969 1.511 11 4.531 5.286 5.267 5.962 13.375 2.031 19.375 0.052 1.02 0.21 2.666 0.876 3.25 0.906 0.796 3.025-0.338 4.406 1.188l9.531 9.656s1.877 1.758-0.875 4.5-4.5 0.875-4.5 0.875l-9.531-9.656c-1.532-1.376-0.42-3.504-1.219-4.407-0.587-0.662-2.226-0.792-3.25-0.843-6.022 3.916-14.152 3.204-19.438-2.063-6.063-6.041-6.063-15.834 0-21.875 3.032-3.02 6.993-4.531 10.969-4.531zm0.063 5.156c-2.858 0-5.438 1.101-7.313 2.969-1.874 1.868-3.062 4.496-3.062 7.344 0 5.695 4.658 10.312 10.375 10.312 5.716 0 10.344-4.617 10.344-10.312 0-5.696-4.628-10.313-10.344-10.313zm0 2c4.631 0 8.344 3.708 8.344 8.313 0 4.604-3.713 8.312-8.344 8.312-4.632 0-8.375-3.715-8.375-8.312 0-2.288 0.993-4.406 2.5-5.907 1.5-1.494 3.534-2.406 5.875-2.406z" fill="#fff"/>
<path opacity=".1" d="m41.531 26.969c-4.24 0-8.488 1.594-11.719 4.812-6.462 6.439-6.462 16.937 0 23.375 5.52 5.499 13.956 6.28 20.344 2.375 0.456 0.027 0.989 0.067 1.438 0.157 0.517 0.103 0.879 0.316 0.875 0.312-0.015-0.016 0.04 0.037 0.062 0.281 0.023 0.245-0.007 0.616 0 1.063 0.015 0.873 0.194 2.15 1.188 3.094 0.023 0.022 0.038 0.04 0.062 0.062l9.469 9.594s0.691 0.728 1.812 0.906c1.122 0.178 2.65-0.217 4.188-1.75 1.539-1.533 1.93-3.064 1.75-4.188-0.173-1.082-0.825-1.732-0.875-1.781l-0.031-0.031-9.469-9.594c-0.011-0.012-0.02-0.019-0.031-0.031-0.952-1.023-2.242-1.18-3.125-1.187-0.447-0.004-0.819 0.02-1.063 0-0.243-0.021-0.298-0.078-0.281-0.063 0.001 0.001-0.234-0.388-0.344-0.906-0.094-0.448-0.128-0.959-0.156-1.407 3.919-6.364 3.177-14.78-2.344-20.281-3.232-3.221-7.509-4.812-11.75-4.812zm0 1.031c3.977 0 7.969 1.511 11 4.531 5.286 5.267 5.962 13.375 2.031 19.375 0.052 1.02 0.21 2.666 0.876 3.25 0.906 0.796 3.025-0.338 4.406 1.188l9.531 9.656s1.877 1.758-0.875 4.5-4.5 0.875-4.5 0.875l-9.531-9.656c-1.532-1.376-0.42-3.504-1.219-4.407-0.587-0.662-2.226-0.792-3.25-0.843-6.022 3.916-14.152 3.204-19.438-2.063-6.063-6.041-6.063-15.834 0-21.875 3.032-3.02 6.993-4.531 10.969-4.531zm0.063 5.156c-2.858 0-5.438 1.101-7.313 2.969-1.874 1.868-3.062 4.496-3.062 7.344 0 5.695 4.658 10.312 10.375 10.312 5.716 0 10.344-4.617 10.344-10.312 0-5.696-4.628-10.313-10.344-10.313zm0 1.032c5.155 0 9.312 4.15 9.312 9.281s-4.157 9.281-9.312 9.281-9.344-4.154-9.344-9.281c0-2.558 1.097-4.916 2.781-6.594 1.681-1.675 3.972-2.687 6.563-2.687z" fill="#fff"/>
<g fill="url(#b)">
<path id="Symbol" opacity=".9" d="m30.547 32.531c-6.0632 6.041-6.0632 15.847 0 21.888 5.2858 5.2664 13.429 5.9678 19.451 2.052 1.0236 0.05117 2.6743 0.192 3.2609 0.85499 0.79867 0.90273-0.33032 3.0131 1.2014 4.3889l9.5261 9.6524s1.7671 1.8873 4.5195-0.85499 0.85814-4.5029 0.85814-4.5029l-9.526-9.653c-1.3809-1.5261-3.499-0.40125-4.4051-1.197-0.66544-0.58442-0.80679-2.2291-0.85813-3.249 3.9303-6.0001 3.2263-14.113-2.0595-19.38-6.0632-6.041-15.905-6.041-21.968 0zm3.7186 3.591c1.8744-1.8676 4.4645-2.964 7.3227-2.964 5.7165 0 10.355 4.6214 10.355 10.317 0 5.6955-4.6383 10.317-10.355 10.317-5.7165 0.000002-10.355-4.6214-10.355-10.317 0-2.8478 1.1576-5.4854 3.0321-7.3529z"/>
<g>
<path opacity=".25" d="m41.531 28c-3.976 0-7.937 1.511-10.969 4.531-6.063 6.041-6.063 15.834 0 21.875 5.286 5.267 13.416 5.979 19.438 2.063 1.024 0.051 2.663 0.181 3.25 0.843 0.799 0.903-0.313 3.031 1.219 4.407l9.531 9.656s1.748 1.867 4.5-0.875 0.875-4.5 0.875-4.5l-9.531-9.656c-1.381-1.526-3.5-0.392-4.406-1.188-0.666-0.584-0.824-2.23-0.876-3.25 3.931-6 3.255-14.108-2.031-19.375-3.031-3.02-7.023-4.531-11-4.531zm0 1.938c3.484 0 6.969 1.321 9.625 3.968 4.638 4.621 5.216 11.695 1.782 16.938a1.9441 1.9441 0 0 0 -0.313 1.156c0.028 0.558 0.084 1.307 0.25 2.094 0.062 0.294 0.147 0.621 0.25 0.937-0.331-0.108-0.663-0.22-0.969-0.281-0.786-0.156-1.52-0.192-2.062-0.219a1.9441 1.9441 0 0 0 -1.156 0.313c-5.262 3.421-12.359 2.812-17-1.813-5.32-5.299-5.32-13.825 0-19.125 2.661-2.651 6.109-3.968 9.593-3.968zm0.063 1.281c-3.358 0-6.452 1.304-8.688 3.531-2.229 2.221-3.625 5.33-3.625 8.719 0 6.755 5.55 12.25 12.313 12.25s12.281-5.502 12.281-12.25c0-6.749-5.518-12.25-12.281-12.25zm0 1.937c5.716 0 10.344 4.617 10.344 10.313 0 5.695-4.628 10.312-10.344 10.312-5.717 0-10.375-4.617-10.375-10.312 0-2.848 1.188-5.476 3.062-7.344 1.875-1.868 4.455-2.969 7.313-2.969zm13.5 23.844c0.368 0.131 0.775 0.382 1.062 0.406 0.542 0.046 0.946-0.002 1.282 0 0.671 0.006 0.771 0.032 0.968 0.25a1.9441 1.9441 0 0 0 0.063 0.063l9.531 9.656a1.9441 1.9441 0 0 0 0.031 0.031s0.008-0.021 0.031 0.125c0.024 0.146 0.136 0.525-0.937 1.594-1.074 1.07-1.448 0.929-1.594 0.906-0.145-0.023-0.125 0-0.125 0a1.9441 1.9441 0 0 0 -0.031 -0.031l-9.531-9.656a1.9441 1.9441 0 0 0 -0.063 -0.063c-0.221-0.199-0.239-0.296-0.25-0.969-0.005-0.336 0.019-0.771-0.031-1.312-0.025-0.276-0.284-0.649-0.406-1z"/>
<path d="m41.531 28c-3.976 0-7.937 1.511-10.969 4.531-3.158 3.147-4.662 7.313-4.531 11.438 0.124-3.792 1.629-7.546 4.531-10.438 6.064-6.041 15.906-6.041 21.969 0 2.887 2.876 4.355 6.609 4.5 10.375 0.108-4.101-1.357-8.244-4.5-11.375-3.031-3.02-7.023-4.531-11-4.531zm-10.281 15.969c-0.008 0.166-0.031 0.332-0.031 0.5 0 5.695 4.658 10.312 10.375 10.312 5.716 0 10.344-4.617 10.344-10.312 0-0.168-0.024-0.335-0.032-0.5-0.262 5.463-4.764 9.812-10.312 9.812-5.549 0-10.082-4.349-10.344-9.812zm23.375 8.812c-0.025 0.039-0.037 0.086-0.063 0.125 0.052 1.02 0.21 2.666 0.876 3.25 0.906 0.796 3.025-0.338 4.406 1.188l9.531 9.656s0.416 0.421 0.563 1.156c0.275-1.355-0.563-2.156-0.563-2.156l-9.531-9.656c-1.381-1.526-3.5-0.392-4.406-1.188-0.5-0.438-0.72-1.455-0.813-2.375z"/>
<path opacity=".5" d="m41.531 28c-3.976 0-7.937 1.511-10.969 4.531-6.063 6.041-6.063 15.834 0 21.875 5.286 5.267 13.416 5.979 19.438 2.063 1.024 0.051 2.663 0.181 3.25 0.843 0.799 0.903-0.313 3.031 1.219 4.407l9.531 9.656s1.748 1.867 4.5-0.875 0.875-4.5 0.875-4.5l-9.531-9.656c-1.381-1.526-3.5-0.392-4.406-1.188-0.666-0.584-0.824-2.23-0.876-3.25 3.931-6 3.255-14.108-2.031-19.375-3.031-3.02-7.023-4.531-11-4.531zm0 1c3.72 0 7.445 1.424 10.281 4.25 4.948 4.93 5.578 12.488 1.907 18.094a1.014 1.014 0 0 0 -0.157 0.625c0.027 0.535 0.071 1.234 0.219 1.937 0.149 0.704 0.343 1.423 1 2 0.464 0.407 0.989 0.525 1.438 0.563s0.88 0.028 1.25 0.031c0.74 0.006 1.191 0.052 1.625 0.531a1.014 1.014 0 0 0 0.031 0.031l9.531 9.657a1.014 1.014 0 0 0 0.032 0.031s0.209 0.175 0.281 0.625 0.03 1.193-1.188 2.406c-1.218 1.214-1.956 1.259-2.406 1.188-0.45-0.072-0.625-0.281-0.625-0.281a1.014 1.014 0 0 0 -0.031 -0.032l-9.531-9.656a1.014 1.014 0 0 0 -0.032 -0.031c-0.482-0.433-0.55-0.915-0.562-1.657-0.006-0.37 0.01-0.77-0.032-1.218-0.041-0.449-0.154-0.977-0.562-1.438-0.582-0.658-1.298-0.86-2-1s-1.41-0.161-1.938-0.187a1.014 1.014 0 0 0 -0.624 0.156c-5.626 3.658-13.207 2.994-18.157-1.937-5.675-5.655-5.675-14.784 0-20.438 2.839-2.828 6.531-4.25 10.25-4.25zm0.063 3.156c-3.119 0-5.969 1.195-8.032 3.25-2.059 2.052-3.343 4.933-3.343 8.063 0 6.248 5.112 11.312 11.375 11.312 6.262 0 11.344-5.068 11.344-11.312 0-6.245-5.082-11.313-11.344-11.313zm0 1c5.716 0 10.344 4.617 10.344 10.313 0 5.695-4.628 10.312-10.344 10.312-5.717 0-10.375-4.617-10.375-10.312 0-2.848 1.188-5.476 3.062-7.344 1.875-1.868 4.455-2.969 7.313-2.969z"/>
</g>
</g>
<path opacity=".2" d="m41.594 33.156c-2.858 0-5.438 1.101-7.313 2.969-1.874 1.868-3.062 4.496-3.062 7.344 0 0.167 0.023 0.334 0.031 0.5 0.127-2.655 1.267-5.086 3.031-6.844 1.875-1.868 4.455-2.969 7.313-2.969 5.548 0 10.05 4.349 10.312 9.813 0.008-0.166 0.032-0.333 0.032-0.5 0-5.696-4.628-10.313-10.344-10.313zm15.437 10.75c-0.073 2.797-0.875 5.567-2.469 8 0.013 0.255 0.032 0.569 0.063 0.875 1.732-2.697 2.525-5.789 2.406-8.875zm-31 0.063c-0.134 4.128 1.371 8.288 4.531 11.437 5.286 5.267 13.416 5.979 19.438 2.063 1.024 0.051 2.663 0.181 3.25 0.843 0.799 0.903-0.313 3.031 1.219 4.407l9.531 9.656s1.748 1.867 4.5-0.875c1.421-1.416 1.594-2.558 1.438-3.344-0.135 0.661-0.536 1.445-1.438 2.344-2.752 2.742-4.5 0.875-4.5 0.875l-9.531-9.656c-1.532-1.376-0.42-3.504-1.219-4.407-0.587-0.662-2.226-0.792-3.25-0.843-6.022 3.916-14.152 3.204-19.438-2.063-2.905-2.894-4.41-6.642-4.531-10.437z" fill="#fff"/></svg>