<svg xmlns:rdf="http://www.w3.org/1999/02/22-rdf-syntax-ns#" xmlns="http://www.w3.org/2000/svg" height="96" width="96" version="1.0" xmlns:cc="http://creativecommons.org/ns#" xmlns:xlink="http://www.w3.org/1999/xlink" xmlns:dc="http://purl.org/dc/elements/1.1/">
<defs>
<linearGradient id="ButtonShadow" x1="45.448" gradientUnits="userSpaceOnUse" y1="80.472" gradientTransform="matrix(1.0059 0 0 .99417 0 12)" x2="45.448" y2="7.0165">
<stop offset="0"/>
<stop stop-opacity=".58824" offset="1"/>
</linearGradient>
<linearGradient id="d" x1="48" gradientUnits="userSpaceOnUse" y1="78" gradientTransform="translate(0,8)" x2="48" y2="5.9877">
<stop stop-color="#76b749" offset="0"/>
<stop stop-color="#a6d08a" offset="1"/>
</linearGradient>
<clipPath id="l" clipPathUnits="userSpaceOnUse">
<rect rx="6" ry="6" height="72" width="84" y="18" x="6" fill="#f0f"/>
</clipPath>
<filter id="j" y="-.19716" width="1.3312" x="-.16559" height="1.3943">
<feGaussianBlur stdDeviation="5.1703125"/>
</filter>
<linearGradient id="i" x1="48" gradientUnits="userSpaceOnUse" x2="48" gradientTransform="matrix(1,0,0,-1,0,92)" y1="75.083" y2="-40">
<stop stop-color="#fff" offset="0"/>
<stop stop-color="#fff" stop-opacity="0" offset="1"/>
</linearGradient>
<linearGradient id="g" y2="81.481" gradientUnits="userSpaceOnUse" y1="22.933" x2="48.022" x1="48.022">
<stop stop-color="#fff" offset="0"/>
<stop stop-color="#fff" stop-opacity="0" offset="1"/>
</linearGradient>
<linearGradient id="h" x1="34.86" gradientUnits="userSpaceOnUse" y1="16.275" gradientTransform="matrix(.72 0 0 .72 1.92 -5.52)" x2="34.86" y2="26.987">
<stop stop-color="#96c874" offset="0"/>
<stop stop-color="#81bd59" offset=".75"/>
<stop stop-color="#66a040" offset="1"/>
</linearGradient>
<linearGradient id="c" x1="43" xlink:href="#ButtonShadow" gradientUnits="userSpaceOnUse" x2="43" y1="91" y2="7"/>
<linearGradient id="b" x1="45" xlink:href="#ButtonShadow" gradientUnits="userSpaceOnUse" x2="45" y1="92" y2="7"/>
<linearGradient id="a" x1="90" spreadMethod="reflect" gradientUnits="userSpaceOnUse" y1="88" gradientTransform="translate(0,10)" x2="48" y2="88">
<stop stop-opacity=".58824" offset="0"/>
<stop stop-opacity=".47059" offset=".1178"/>
<stop stop-opacity=".39216" offset=".2381"/>
<stop stop-opacity=".31373" offset="1"/>
</linearGradient>
</defs>
<g fill="url(#b)">
<path opacity=".08" d="m14.125 4c-4.4339 0-8.125 3.5684-8.125 8v2.1562c-2.3764 1.802-4 4.603-4 7.844v63c0 5.5036 4.4964 10 10 10h72c5.5036 0 10-4.4964 10-10v-63c0-3.483-1.853-6.453-4.531-8.219-0.987-3.289-3.943-5.781-7.594-5.781h-39.5c-1.403-1.3548-2.54-2.5096-3.687-3.1562-1.496-0.8424-2.931-0.8143-3.813-0.8438a0.9278 0.9278 0 0 0 -0.03125 0c-0.0012-0.0000173-0.03009-0.0000173-0.03125 0h-20.688z"/>
<path opacity=".1" d="m14.125 4.9375c-3.941 0-7.1875 3.1433-7.1875 7.0625v2.5938c-2.3826 1.6221-4 4.2939-4 7.4062v63c0 5.0014 4.0611 9.0625 9.0625 9.0625h72c5.0014 0 9.0625-4.0611 9.0625-9.0625v-63c0-3.2608-1.7732-6.0397-4.3438-7.625-0.76-3.096-3.477-5.4375-6.843-5.4375h-39.812c-1.598-1.5412-2.773-2.6775-3.844-3.2813-1.273-0.7172-2.448-0.6876-3.375-0.7187a1.0438 1.0438 0 0 0 -0.03125 0h-20.687z"/>
<path opacity=".2" d="m14.125 5.9688c-3.389 0-6.1562 2.688-6.1562 6.0312v3.125c-2.3751 1.394-4 3.9205-4 6.875v63c0 4.4381 3.5931 8.0312 8.0312 8.0312h72c4.4381 0 8.0312-3.5931 8.0312-8.0312v-63c0-3.032-1.7122-5.6044-4.1875-6.9688-0.49189-2.8596-2.9286-5.0625-5.9688-5.0625h-40.188c-1.834-1.7751-3.008-2.8656-3.968-3.4065-1.038-0.5843-1.941-0.5614-2.907-0.5937a1.0438 1.0438 0 0 0 -0.03125 0h-20.656z"/>
<path opacity=".3" d="m14.125 7c-2.843 0-5.125 2.23-5.125 5v3.6875c-2.3641 1.121-4 3.512-4 6.312v63c0 3.878 3.122 7 7 7h72c3.878 0 7-3.122 7-7v-63c0-2.81-1.653-5.196-4.031-6.312-0.17-2.619-2.362-4.688-5.094-4.688h-40.594c-4.2205-4.1123-4.5028-3.9331-6.5-4h-20.656z"/>
</g>
<path opacity=".45" fill="url(#c)" d="m15 7c-2.77 0-5 2.23-5 5v3.3438c-2.3335 0.821-4 3.035-4 5.656v64c0 3.324 2.676 6 6 6h72c3.324 0 6-2.676 6-6v-64c0-2.642-1.7-4.851-4.062-5.656-0.327-2.451-2.396-4.344-4.938-4.344h-40.531c-4.113-4.1123-4.367-3.9331-6.313-4h-19.156z"/>
<path fill="url(#h)" d="m15 6c-2.77 0-5 2.23-5 5v59.812c0 2.3933 1.9192 4.3125 4.3125 4.3125h67.375c2.394 0.001 4.313-1.918 4.313-4.312v-55.812c0-2.77-2.23-5-5-5h-40.531c-4.113-4.1123-4.367-3.9331-6.313-4z"/>
<path opacity=".15" fill="#fff" d="m15 6c-2.77 0-5 2.23-5 5v59.812c0 2.3933 1.9192 4.3125 4.3125 4.3125h67.375c2.394 0.001 4.313-1.918 4.313-4.312v-55.812c0-2.77-2.23-5-5-5h-40.531c-4.113-4.1123-4.367-3.9331-6.313-4h-19.156zm0 1.0312h19.156c0.96498 0.031157 1.1925-0.016972 1.8125 0.34375 0.63029 0.36673 1.7068 1.3318 3.75 3.375a1.0438 1.0438 0 0 0 0.75 0.28125h40.531c2.2099 0 3.9688 1.7589 3.9688 3.9688v55.812c0 1.8353-1.4459 3.2812-3.2812 3.2812h-67.375c-1.8353 0-3.2812-1.4459-3.2812-3.2812v-59.812c0-2.2099 1.7589-3.9688 3.9688-3.9688z"/>
<rect rx="6" ry="6" height="76" width="84" y="14" x="6" fill="url(#d)"/>
<path opacity=".35" fill="url(#i)" d="m12 86c-3.324 0-6-2.676-6-6v-60c0-3.324 2.676-6 6-6h72c3.324 0 6 2.676 6 6v60c0 3.324-2.676 6-6 6zm0-0.96875h72c2.8049 0 5.0312-2.2264 5.0312-5.0312v-60c0-2.8049-2.2264-5.0312-5.0312-5.0312h-72c-2.8049 0-5.0312 2.2264-5.0312 5.0312v60c0 2.8049 2.2264 5.0312 5.0312 5.0312z"/>
<path opacity=".1" fill="#fff" d="m6 78v2c0 3.324 2.676 6 6 6h72c3.324 0 6-2.676 6-6v-2c0 3.324-2.676 6-6 6h-72c-3.324 0-6-2.676-6-6z"/>
<path fill="#6caa44" d="m6 80v4c0 3.324 2.676 6 6 6h72c3.324 0 6-2.676 6-6v-4c0 3.324-2.676 6-6 6h-72c-3.324 0-6-2.676-6-6z"/>
<g transform="translate(0,-10)">
<path opacity=".5" fill="url(#a)" d="m6 90v4c0 3.324 2.676 6 6 6h72c3.324 0 6-2.676 6-6v-4c0 3.324-2.676 6-6 6h-72c-3.324 0-6-2.676-6-6z"/>
<path opacity=".1" style="color:#000000" d="m6 92v2c0 3.324 2.676 6 6 6h72c3.324 0 6-2.676 6-6v-2c0 3.324-2.676 6-6 6h-72c-3.324 0-6-2.676-6-6z"/>
<path opacity=".15" style="color:#000000" d="m6 93v1c0 3.324 2.676 6 6 6h72c3.324 0 6-2.676 6-6v-1c0 3.324-2.676 6-6 6h-72c-3.324 0-6-2.676-6-6z"/>
</g>
<path opacity=".1" d="m15.969 22.531c-2.8459 0.0043-5.4332 2.5916-5.4375 5.4375v48.062c0.0043 2.8459 2.5916 5.4332 5.4375 5.4375h64.062c2.8459-0.0043 5.4332-2.5916 5.4375-5.4375v-48.062c-0.006-2.845-2.593-5.433-5.439-5.437z" clip-path="url(#l)" filter="url(#j)" fill="url(#g)"/>
</svg>
