<?xml version="1.0" encoding="UTF-8" standalone="no"?>
<!-- Created with Inkscape (http://www.inkscape.org/) -->

<svg
   xmlns:dc="http://purl.org/dc/elements/1.1/"
   xmlns:cc="http://creativecommons.org/ns#"
   xmlns:rdf="http://www.w3.org/1999/02/22-rdf-syntax-ns#"
   xmlns:svg="http://www.w3.org/2000/svg"
   xmlns="http://www.w3.org/2000/svg"
   xmlns:xlink="http://www.w3.org/1999/xlink"
   xmlns:sodipodi="http://sodipodi.sourceforge.net/DTD/sodipodi-0.dtd"
   xmlns:inkscape="http://www.inkscape.org/namespaces/inkscape"
   width="24"
   height="24"
   id="svg2"
   sodipodi:version="0.32"
   inkscape:version="0.48.3.1 r9886"
   version="1.0"
   sodipodi:docname="folder-system.svg"
   inkscape:output_extension="org.inkscape.output.svg.inkscape"
   style="display:inline">
  <defs
     id="defs4">
    <linearGradient
       inkscape:collect="always"
       xlink:href="#linearGradient3831-1"
       id="linearGradient3845-9"
       x1="11"
       y1="19.5"
       x2="21"
       y2="19.5"
       gradientUnits="userSpaceOnUse"
       spreadMethod="reflect"
       gradientTransform="translate(1,1)" />
    <linearGradient
       id="linearGradient3831-1">
      <stop
         style="stop-color:#ffffff;stop-opacity:1;"
         offset="0"
         id="stop3833-2" />
      <stop
         id="stop3821-4"
         offset="0.75"
         style="stop-color:#ffffff;stop-opacity:0.49803922;" />
      <stop
         style="stop-color:#ffffff;stop-opacity:0;"
         offset="1"
         id="stop3835-9" />
    </linearGradient>
    <linearGradient
       y2="16"
       x2="10"
       y1="5"
       x1="10"
       gradientUnits="userSpaceOnUse"
       id="linearGradient3078-0"
       xlink:href="#linearGradient3823-1"
       inkscape:collect="always"
       gradientTransform="translate(1,1)" />
    <linearGradient
       id="linearGradient3823-1">
      <stop
         id="stop3825-4"
         offset="0"
         style="stop-color:#ffffff;stop-opacity:1;" />
      <stop
         id="stop3829-4"
         offset="1"
         style="stop-color:#ffffff;stop-opacity:0;" />
    </linearGradient>
    <linearGradient
       inkscape:collect="always"
       xlink:href="#linearGradient4075"
       id="linearGradient3668-3"
       x1="10.871767"
       y1="24.123091"
       x2="10.871767"
       y2="6.1230297"
       gradientUnits="userSpaceOnUse"
       gradientTransform="translate(-0.740039,-2.1230297)" />
    <linearGradient
       id="linearGradient4075">
      <stop
         id="stop4077"
         offset="0"
         style="stop-color:#72a0c2;stop-opacity:1;" />
      <stop
         id="stop4079"
         offset="1"
         style="stop-color:#afcbde;stop-opacity:1;" />
    </linearGradient>
    <linearGradient
       y2="-11"
       x2="11.375"
       y1="20"
       x1="11.375"
       gradientTransform="translate(1,3)"
       gradientUnits="userSpaceOnUse"
       id="linearGradient3842"
       xlink:href="#linearGradient3327"
       inkscape:collect="always" />
    <linearGradient
       inkscape:collect="always"
       id="linearGradient3327">
      <stop
         style="stop-color:#000000;stop-opacity:1;"
         offset="0"
         id="stop3330" />
      <stop
         style="stop-color:#000000;stop-opacity:0;"
         offset="1"
         id="stop3333" />
    </linearGradient>
    <linearGradient
       y2="-11"
       x2="11.375"
       y1="20"
       x1="11.375"
       gradientTransform="translate(1,3)"
       gradientUnits="userSpaceOnUse"
       id="linearGradient3827"
       xlink:href="#linearGradient3327"
       inkscape:collect="always" />
    <linearGradient
       inkscape:collect="always"
       xlink:href="#linearGradient3831-1-2"
       id="linearGradient3845-9-3"
       x1="11"
       y1="19.5"
       x2="21"
       y2="19.5"
       gradientUnits="userSpaceOnUse"
       spreadMethod="reflect"
       gradientTransform="translate(1,1)" />
    <linearGradient
       id="linearGradient3831-1-2">
      <stop
         style="stop-color:#ffffff;stop-opacity:1;"
         offset="0"
         id="stop3833-2-0" />
      <stop
         id="stop3821-4-6"
         offset="0.75"
         style="stop-color:#ffffff;stop-opacity:0.49803922;" />
      <stop
         style="stop-color:#ffffff;stop-opacity:0;"
         offset="1"
         id="stop3835-9-9" />
    </linearGradient>
    <linearGradient
       y2="16"
       x2="10"
       y1="5"
       x1="10"
       gradientUnits="userSpaceOnUse"
       id="linearGradient3078-0-3"
       xlink:href="#linearGradient3823-1-6"
       inkscape:collect="always"
       gradientTransform="translate(1,1)" />
    <linearGradient
       id="linearGradient3823-1-6">
      <stop
         id="stop3825-4-0"
         offset="0"
         style="stop-color:#ffffff;stop-opacity:1;" />
      <stop
         id="stop3829-4-6"
         offset="1"
         style="stop-color:#ffffff;stop-opacity:0;" />
    </linearGradient>
    <linearGradient
       inkscape:collect="always"
       xlink:href="#linearGradient4075-4"
       id="linearGradient3668-3-9"
       x1="10.871767"
       y1="24.123091"
       x2="10.871767"
       y2="6.1230297"
       gradientUnits="userSpaceOnUse"
       gradientTransform="translate(-0.740039,-2.1230297)" />
    <linearGradient
       id="linearGradient4075-4">
      <stop
         id="stop4077-9"
         offset="0"
         style="stop-color:#6e92c6;stop-opacity:1;" />
      <stop
         id="stop4079-7"
         offset="1"
         style="stop-color:#afc2df;stop-opacity:1;" />
    </linearGradient>
    <linearGradient
       y2="-11"
       x2="11.375"
       y1="20"
       x1="11.375"
       gradientTransform="translate(1,3)"
       gradientUnits="userSpaceOnUse"
       id="linearGradient3842-0"
       xlink:href="#linearGradient3327-1"
       inkscape:collect="always" />
    <linearGradient
       inkscape:collect="always"
       id="linearGradient3327-1">
      <stop
         style="stop-color:#000000;stop-opacity:1;"
         offset="0"
         id="stop3330-9" />
      <stop
         style="stop-color:#000000;stop-opacity:0;"
         offset="1"
         id="stop3333-3" />
    </linearGradient>
    <linearGradient
       y2="-11"
       x2="11.375"
       y1="20"
       x1="11.375"
       gradientTransform="translate(1,3)"
       gradientUnits="userSpaceOnUse"
       id="linearGradient3888"
       xlink:href="#linearGradient3327-1"
       inkscape:collect="always" />
  </defs>
  <sodipodi:namedview
     id="base"
     pagecolor="#7e7e7e"
     bordercolor="#dc0000"
     borderopacity="1"
     inkscape:pageopacity="1"
     inkscape:pageshadow="2"
     inkscape:zoom="18.602289"
     inkscape:cx="-11.981832"
     inkscape:cy="8.4428195"
     inkscape:document-units="px"
     inkscape:current-layer="layer4"
     showgrid="true"
     inkscape:showpageshadow="false"
     showguides="true"
     inkscape:guide-bbox="true"
     inkscape:window-width="1920"
     inkscape:window-height="1029"
     inkscape:window-x="0"
     inkscape:window-y="24"
     inkscape:window-maximized="1"
     borderlayer="true">
    <sodipodi:guide
       orientation="1,0"
       position="0,112"
       id="guide2383" />
    <sodipodi:guide
       orientation="0,1"
       position="26.278146,128"
       id="guide2385" />
    <sodipodi:guide
       orientation="1,0"
       position="128,54.082119"
       id="guide2387" />
    <sodipodi:guide
       orientation="0,1"
       position="78.156291,0"
       id="guide2389" />
    <inkscape:grid
       type="xygrid"
       id="grid3672"
       visible="true"
       enabled="true"
       empspacing="8"
       snapvisiblegridlinesonly="true" />
  </sodipodi:namedview>
  <metadata
     id="metadata7">
    <rdf:RDF>
      <cc:Work
         rdf:about="">
        <dc:format>image/svg+xml</dc:format>
        <dc:type
           rdf:resource="http://purl.org/dc/dcmitype/StillImage" />
        <dc:title />
      </cc:Work>
    </rdf:RDF>
  </metadata>
  <g
     inkscape:groupmode="layer"
     id="layer3"
     inkscape:label="Button"
     sodipodi:insensitive="true">
    <path
       style="opacity:0.3;fill:url(#linearGradient3888);fill-opacity:1;stroke:none;display:inline"
       d="m 4.5,1.5 c -1.0969971,0 -2,0.9030029 -2,2 l 0,0.5 c -0.6114808,0.4549066 -1,1.175925 -1,2 l 0,14.5 C 1.5,21.885 2.615,23 4,23 l 16,0 c 1.385,0 2.5,-1.115 2.5,-2.5 L 22.5,6 C 22.5,5.134375 22.071045,4.3858887 21.40625,3.9375 21.160346,3.1111944 20.401594,2.5 19.5,2.5 l -7.375,0 C 11.775318,1.9321758 11.212848,1.5 10.5,1.5 l -6,0 z"
       id="rect3371"
       inkscape:connector-curvature="0" />
    <rect
       ry="2"
       rx="2"
       y="7"
       x="2"
       height="16"
       width="20"
       id="rect5478"
       style="opacity:0.4;fill:#000000;fill-opacity:1;fill-rule:nonzero;stroke:none;display:inline" />
    <path
       inkscape:connector-curvature="0"
       style="color:#000000;fill:#7c9ccb;fill-opacity:1;fill-rule:nonzero;stroke:none;stroke-width:2;marker:none;visibility:visible;display:inline;overflow:visible;enable-background:accumulate"
       d="M 4.5,2 C 3.669,2 3,2.669 3,3.5 l 0,1 0,1 0,2 C 3,8.331 3.669,9 4.5,9 l 15,0 C 20.331,9 21,8.331 21,7.5 l 0,-3 C 21,3.669 20.331,3 19.5,3 L 11.90625,3 C 11.702994,2.4129833 11.157875,2 10.5,2 l -6,0 z"
       id="rect3043" />
    <path
       style="opacity:0.1;color:#000000;fill:#000000;fill-opacity:1;fill-rule:nonzero;stroke:none;stroke-width:2;marker:none;visibility:visible;display:inline;overflow:visible;enable-background:accumulate"
       d="M 4,3 C 3.648898,3 3.317465,3.0923738 3.03125,3.25 3.018314,3.3295389 3,3.4166943 3,3.5 l 0,1 0,1 0,2 C 3,8.331 3.669,9 4.5,9 l 15,0 C 20.331,9 21,8.331 21,7.5 l 0,-3 C 21,3.669 20.331,3 19.5,3 L 11.90625,3 4,3 z"
       id="path3050"
       inkscape:connector-curvature="0" />
    <rect
       style="fill:url(#linearGradient3668-3-9);fill-opacity:1;fill-rule:nonzero;stroke:none;display:inline"
       id="rect3660"
       width="20"
       height="17.999996"
       x="2"
       y="4"
       rx="2"
       ry="2" />
    <path
       style="opacity:0.2;fill:url(#linearGradient3078-0-3);fill-opacity:1;fill-rule:evenodd;stroke:none;display:inline"
       d="M 4,4 C 2.892,4 2,4.892 2,6 l 0,14 c 0,1.108 0.892,2 2,2 l 16,0 c 1.108,0 2,-0.892 2,-2 L 22,6 C 22,4.892 21.108,4 20,4 z m 0,1.03125 16,0 c 0.5497,0 0.96875,0.4190495 0.96875,0.96875 l 0,14 c 0,0.5497 -0.41905,0.96875 -0.96875,0.96875 l -16,0 C 3.4502995,20.96875 3.03125,20.5497 3.03125,20 l 0,-14 C 3.03125,5.4502995 3.4502995,5.03125 4,5.03125 z"
       id="rect3050"
       inkscape:connector-curvature="0"
       sodipodi:nodetypes="ssssssssssssssssss" />
    <path
       id="path3235"
       d="M 4,22 C 2.892,22 2,21.108 2,20 l 0,-1 c 0,1.108 0.892,2 2,2 l 16,0 c 1.108,0 2,-0.892 2,-2 l 0,1 c 0,1.108 -0.892,2 -2,2 z"
       style="opacity:0.2;fill:url(#linearGradient3845-9-3);fill-opacity:1;fill-rule:evenodd;stroke:none;display:inline"
       inkscape:connector-curvature="0"
       sodipodi:nodetypes="sscsscsss" />
  </g>
  <g
     inkscape:groupmode="layer"
     id="layer4"
     inkscape:label="Symbol"
     transform="translate(0,2)">
    <path
       inkscape:connector-curvature="0"
       style="opacity:0.15;fill:#ffffff;fill-opacity:1;fill-rule:nonzero;stroke:none;stroke-width:1;marker:none;visibility:visible;display:block;overflow:visible;enable-background:accumulate"
       d="m 11.3125,5.03125 c -0.717742,0 -1.181789,0.5942692 -1.25,1.21875 C 9.5542445,5.8217999 8.7524047,5.8100929 8.28125,6.28125 l -1,1 C 6.8100605,7.7523829 6.8217788,8.554257 7.25,9.0625 6.6255169,9.13071 6.03125,9.594756 6.03125,10.3125 l 0,1.375 c 0,0.717744 0.5942669,1.181789 1.21875,1.25 -0.4281809,0.508249 -0.4399005,1.310096 0.03125,1.78125 l 1,1 c 0.2793852,0.279364 0.6645574,0.377304 0.9375,0.375 0.2192984,-0.0019 0.5705017,-0.121652 0.84375,-0.34375 0.06821,0.624482 0.532254,1.21875 1.25,1.21875 l 1.375,0 c 0.717744,0 1.181789,-0.594265 1.25,-1.21875 0.50828,0.42834 1.310173,0.439824 1.78125,-0.03125 l 1,-1 c 0.471007,-0.471115 0.459518,-1.272958 0.03125,-1.78125 0.624487,-0.06821 1.21875,-0.532247 1.21875,-1.25 l 0,-1.375 c 0,-0.717749 -0.594267,-1.18179 -1.21875,-1.25 0.428339,-0.50828 0.439826,-1.3101743 -0.03125,-1.78125 l -1,-1 C 15.247617,5.8100573 14.445742,5.821779 13.9375,6.25 13.869289,5.6255126 13.405247,5.03125 12.6875,5.03125 l -1.375,0 z m 0,0.96875 1.375,0 c 0.196771,0 0.34375,0.1748626 0.34375,0.375 l 0,0.6875 c 0.351845,0.093745 0.692398,0.2273526 1,0.40625 l 0.5,-0.5 c 0.141518,-0.1415183 0.36086,-0.1391575 0.5,0 l 1,1 c 0.13914,0.13914 0.141551,0.358482 0,0.5 l -0.5,0.5 c 0.178898,0.307601 0.312504,0.648154 0.40625,1 l 0.6875,0 c 0.200135,0 0.375,0.146976 0.375,0.34375 l 0,1.375 c 0,0.196772 -0.174865,0.34375 -0.375,0.34375 l -0.6875,0 c -0.09374,0.351845 -0.227353,0.692399 -0.40625,1 l 0.5,0.5 c 0.141517,0.141519 0.139108,0.36086 0,0.5 l -1,1 c -0.139141,0.13914 -0.358483,0.14155 -0.5,0 l -0.5,-0.5 c -0.307601,0.178898 -0.648156,0.312505 -1,0.40625 l 0,0.6875 c 0,0.200138 -0.146978,0.375 -0.34375,0.375 l -1.375,0 c -0.196774,0 -0.34375,-0.174864 -0.34375,-0.375 l 0,-0.6875 c -0.351844,-0.09375 -0.692398,-0.227352 -1,-0.40625 l -0.5,0.5 c -0.070758,0.07076 -0.1584309,0.09297 -0.25,0.09375 -0.09157,7.73e-4 -0.1804308,-0.02419 -0.25,-0.09375 l -1,-1 c -0.139139,-0.13914 -0.1414998,-0.358481 0,-0.5 l 0.5,-0.5 c -0.1788966,-0.307601 -0.3125025,-0.648155 -0.40625,-1 l -0.6875,0 C 7.1748627,12.03125 7,11.884273 7,11.6875 l 0,-1.375 C 7,10.115727 7.1748627,9.96875 7.375,9.96875 l 0.6875,0 c 0.093747,-0.351846 0.2273534,-0.692399 0.40625,-1 l -0.5,-0.5 c -0.1415183,-0.141518 -0.1391566,-0.36086 0,-0.5 l 1,-1 c 0.1391383,-0.139139 0.3584826,-0.1415029 0.5,0 l 0.5,0.5 c 0.307602,-0.1788974 0.648156,-0.3125051 1,-0.40625 l 0,-0.6875 C 10.96875,6.1748626 11.115726,6 11.3125,6 z M 12,9.5 c -0.834415,0 -1.5,0.665584 -1.5,1.5 0,0.834415 0.665585,1.5 1.5,1.5 0.834416,0 1.5,-0.665585 1.5,-1.5 0,-0.834416 -0.665584,-1.5 -1.5,-1.5 z m 0,0.96875 c 0.319064,0 0.53125,0.212186 0.53125,0.53125 0,0.319062 -0.212187,0.53125 -0.53125,0.53125 -0.319061,0 -0.53125,-0.212189 -0.53125,-0.53125 0,-0.319063 0.212188,-0.53125 0.53125,-0.53125 z"
       id="path3887" />
    <path
       inkscape:connector-curvature="0"
       style="fill:#6588bd;fill-opacity:1;fill-rule:nonzero;stroke:none;stroke-width:1;marker:none;visibility:visible;display:block;overflow:visible;enable-background:accumulate"
       id="path3864"
       d="m 11.309596,16 c -0.196774,0 -0.356105,-0.163235 -0.356105,-0.363371 l 0,-0.704939 C 10.601647,14.83794 10.265458,14.696345 9.9578564,14.517447 l -0.501453,0.501452 c -0.070758,0.07076 -0.1555216,0.108235 -0.2470907,0.109011 -0.09157,7.73e-4 -0.1847898,-0.03218 -0.254359,-0.101744 L 7.973851,14.045065 C 7.834712,13.905925 7.8396012,13.685132 7.981101,13.543613 L 8.4825532,13.042162 C 8.3036566,12.734561 8.1620568,12.398371 8.0683093,12.046526 l -0.7049379,0 C 7.1632341,12.046526 7,11.887196 7,11.690423 l 0,-1.38081 C 7,10.11284 7.1632341,9.9535099 7.3633714,9.9535099 l 0.7049379,0 C 8.1620568,9.6016638 8.3036566,9.2654741 8.4825532,8.9578735 L 7.9811011,8.4564221 C 7.8395828,8.3149039 7.8346944,8.0941107 7.973851,7.9549708 L 8.9549537,6.9738689 C 9.094092,6.8347299 9.314886,6.839619 9.4564034,6.9811219 l 0.501453,0.5014484 C 10.265458,7.3036729 10.601647,7.162073 10.953491,7.0683281 l 0,-0.7049396 c 0,-0.2001374 0.159331,-0.3633705 0.356105,-0.3633705 l 1.38081,0 c 0.196771,0 0.356102,0.1632331 0.356102,0.3633705 l 0,0.7049396 c 0.351845,0.093745 0.688034,0.2353448 0.995636,0.4142422 L 14.543596,6.981119 c 0.141518,-0.1415183 0.362312,-0.1464075 0.501452,-0.00725 l 0.9811,0.9811019 c 0.13914,0.1391399 0.134251,0.3599331 -0.0073,0.5014513 L 15.5174,8.9578766 c 0.178898,0.3076006 0.320497,0.6437903 0.414243,0.9956364 l 0.704939,0 c 0.200135,0 0.363371,0.159329 0.363371,0.356103 l 0,1.38081 c 0,0.196772 -0.163236,0.356103 -0.363371,0.356103 l -0.704939,0 c -0.09374,0.351845 -0.235345,0.688035 -0.414242,0.995636 l 0.501451,0.501451 c 0.141517,0.141519 0.146408,0.362312 0.0073,0.501452 l -0.9811,0.981101 c -0.139141,0.13914 -0.359935,0.13425 -0.501452,-0.0073 l -0.501453,-0.501452 c -0.307601,0.178898 -0.643791,0.320498 -0.995635,0.414243 l 0,0.704938 c 0,0.200138 -0.159331,0.363372 -0.356103,0.363372 l -1.380809,0 z M 12,12.51164 c 0.834416,0 1.511623,-0.677207 1.511623,-1.511622 0,-0.834416 -0.677207,-1.5116226 -1.511623,-1.5116226 -0.834415,0 -1.511623,0.6772066 -1.511623,1.5116226 0,0.834415 0.677208,1.511622 1.511623,1.511622 z" />
    <path
       inkscape:connector-curvature="0"
       style="opacity:0.2;fill:#000000;fill-opacity:1;fill-rule:nonzero;stroke:none;stroke-width:1;marker:none;visibility:visible;display:block;overflow:visible;enable-background:accumulate"
       d="m 11.3125,6 c -0.196774,0 -0.34375,0.1748626 -0.34375,0.375 l 0,0.6875 c -0.351844,0.093745 -0.692398,0.2273526 -1,0.40625 l -0.5,-0.5 c -0.1415174,-0.1415029 -0.3608617,-0.139139 -0.5,0 l -1,1 c -0.1391566,0.13914 -0.1415183,0.358482 0,0.5 l 0.5,0.5 c -0.1788966,0.307601 -0.3125025,0.648154 -0.40625,1 l -0.6875,0 C 7.1748627,9.96875 7,10.115727 7,10.3125 l 0,1.375 c 0,0.196773 0.1748627,0.34375 0.375,0.34375 l 0.6875,0 c 0.093747,0.351845 0.2273534,0.692399 0.40625,1 l -0.5,0.5 c -0.1414998,0.141519 -0.139139,0.36086 0,0.5 l 1,1 c 0.069569,0.06956 0.15843,0.09452 0.25,0.09375 0.091569,-7.76e-4 0.179242,-0.02299 0.25,-0.09375 l 0.5,-0.5 c 0.307602,0.178898 0.648156,0.3125 1,0.40625 l 0,0.6875 c 0,0.200136 0.146976,0.375 0.34375,0.375 l 1.375,0 c 0.196772,0 0.34375,-0.174862 0.34375,-0.375 l 0,-0.6875 c 0.351844,-0.09374 0.692399,-0.227352 1,-0.40625 l 0.5,0.5 c 0.141517,0.14155 0.360859,0.13914 0.5,0 l 1,-1 c 0.139108,-0.13914 0.141517,-0.358481 0,-0.5 l -0.5,-0.5 c 0.178897,-0.307601 0.31251,-0.648155 0.40625,-1 l 0.6875,0 c 0.200135,0 0.375,-0.146978 0.375,-0.34375 l 0,-1.375 C 17,10.115726 16.825135,9.96875 16.625,9.96875 l -0.6875,0 c -0.09375,-0.351846 -0.227352,-0.692399 -0.40625,-1 l 0.5,-0.5 c 0.141551,-0.141518 0.13914,-0.36086 0,-0.5 l -1,-1 c -0.13914,-0.1391575 -0.358482,-0.1415183 -0.5,0 l -0.5,0.5 c -0.307602,-0.1788974 -0.648155,-0.312505 -1,-0.40625 l 0,-0.6875 C 13.03125,6.1748626 12.884271,6 12.6875,6 l -1.375,0 z m 0.09375,0.4375 1.1875,0 0,0.625 A 0.44254648,0.44254648 0 0 0 12.90625,7.5 c 0.319414,0.085104 0.638576,0.1880743 0.90625,0.34375 a 0.44254648,0.44254648 0 0 0 0.53125,-0.0625 l 0.4375,-0.4375 0.875,0.875 -0.4375,0.4375 a 0.44254648,0.44254648 0 0 0 -0.0625,0.53125 c 0.155675,0.26767 0.258644,0.586833 0.34375,0.90625 a 0.44254648,0.44254648 0 0 0 0.4375,0.3125 l 0.625,0 0,1.1875 -0.625,0 A 0.44254648,0.44254648 0 0 0 15.5,11.90625 c -0.0851,0.319406 -0.188073,0.638574 -0.34375,0.90625 a 0.44254648,0.44254648 0 0 0 0.0625,0.53125 l 0.4375,0.4375 -0.875,0.875 -0.4375,-0.4375 A 0.44254648,0.44254648 0 0 0 13.8125,14.15625 C 13.544829,14.311925 13.225664,14.414896 12.90625,14.5 a 0.44254648,0.44254648 0 0 0 -0.3125,0.4375 l 0,0.625 -1.1875,0 0,-0.625 A 0.44254648,0.44254648 0 0 0 11.09375,14.5 C 10.774328,14.41489 10.45517,14.311924 10.1875,14.15625 a 0.44254648,0.44254648 0 0 0 -0.53125,0.0625 l -0.4375,0.4375 -0.875,-0.875 0.4375,-0.4375 A 0.44254648,0.44254648 0 0 0 8.84375,12.8125 C 8.6880759,12.544829 8.5851073,12.225667 8.5,11.90625 a 0.44254648,0.44254648 0 0 0 -0.4375,-0.3125 l -0.625,0 0,-1.1875 0.625,0 A 0.44254648,0.44254648 0 0 0 8.5,10.09375 C 8.585107,9.774332 8.6880759,9.455171 8.84375,9.1875 A 0.44254648,0.44254648 0 0 0 8.78125,8.65625 l -0.4375,-0.4375 0.875,-0.875 0.4375,0.4375 a 0.44254648,0.44254648 0 0 0 0.53125,0.0625 C 10.455173,7.6880745 10.774337,7.5851041 11.09375,7.5 a 0.44254648,0.44254648 0 0 0 0.3125,-0.4375 l 0,-0.625 z M 12,9.0625 c -1.069727,0 -1.9375,0.867771 -1.9375,1.9375 0,1.069728 0.867772,1.9375 1.9375,1.9375 1.069729,0 1.9375,-0.867773 1.9375,-1.9375 C 13.9375,9.930272 13.069728,9.0625 12,9.0625 z M 12,9.5 c 0.834416,0 1.5,0.665584 1.5,1.5 0,0.834415 -0.665584,1.5 -1.5,1.5 -0.834415,0 -1.5,-0.665585 -1.5,-1.5 0,-0.834416 0.665585,-1.5 1.5,-1.5 z"
       id="path3871" />
    <path
       inkscape:connector-curvature="0"
       style="opacity:0.2;fill:#000000;fill-opacity:1;fill-rule:nonzero;stroke:none;stroke-width:1;marker:none;visibility:visible;display:block;overflow:visible;enable-background:accumulate"
       d="m 11.3125,6 c -0.196774,0 -0.34375,0.1748626 -0.34375,0.375 l 0,0.6875 c -0.351844,0.093745 -0.692398,0.2273526 -1,0.40625 l -0.5,-0.5 c -0.1415174,-0.1415029 -0.3608617,-0.139139 -0.5,0 l -1,1 c -0.1391566,0.13914 -0.1415183,0.358482 0,0.5 l 0.25,0.25 0.75,-0.75 c 0.1391383,-0.139139 0.3584826,-0.1415029 0.5,0 l 0.5,0.5 c 0.307602,-0.178897 0.648156,-0.312505 1,-0.40625 l 0,-0.6875 C 10.96875,7.1748626 11.115726,7 11.3125,7 l 1.375,0 c 0.196771,0 0.34375,0.1748626 0.34375,0.375 l 0,0.6875 c 0.351845,0.09375 0.692398,0.227353 1,0.40625 l 0.5,-0.5 c 0.141518,-0.1415183 0.36086,-0.1391575 0.5,0 l 0.75,0.75 0.25,-0.25 c 0.141551,-0.141518 0.13914,-0.36086 0,-0.5 l -1,-1 c -0.13914,-0.1391575 -0.358482,-0.1415183 -0.5,0 l -0.5,0.5 c -0.307602,-0.1788974 -0.648155,-0.312505 -1,-0.40625 l 0,-0.6875 C 13.03125,6.1748626 12.884271,6 12.6875,6 l -1.375,0 z M 8.15625,9.65625 C 8.121385,9.75508 8.089615,9.866985 8.0625,9.96875 l -0.6875,0 C 7.1748627,9.96875 7,10.115727 7,10.3125 l 0,1 c 0,-0.196773 0.1748627,-0.34375 0.375,-0.34375 l 0.6875,0 c 0.093747,-0.351846 0.2273534,-0.6924 0.40625,-1 l -0.3125,-0.3125 z m 7.6875,0 -0.3125,0.3125 c 0.178898,0.3076 0.312504,0.648154 0.40625,1 l 0.6875,0 c 0.200135,0 0.375,0.146976 0.375,0.34375 l 0,-1 C 17,10.115726 16.825135,9.96875 16.625,9.96875 l -0.6875,0 C 15.91039,9.866985 15.87861,9.755082 15.84375,9.65625 z M 10.5625,11.5 C 10.508902,11.654864 10.5,11.826981 10.5,12 c 0,0.834415 0.665585,1.5 1.5,1.5 0.834416,0 1.5,-0.665585 1.5,-1.5 0,-0.173019 -0.0089,-0.345136 -0.0625,-0.5 -0.204887,0.591998 -0.776103,1 -1.4375,1 -0.661397,0 -1.232613,-0.408002 -1.4375,-1 z m -2.40625,1.84375 -0.1875,0.1875 c -0.1414998,0.141519 -0.139139,0.36086 0,0.5 l 0.25,0.25 0.25,-0.25 C 8.3415958,13.812617 8.2419298,13.586625 8.15625,13.34375 z m 7.6875,0 c -0.08568,0.242875 -0.185346,0.468867 -0.3125,0.6875 l 0.25,0.25 0.25,-0.25 c 0.139108,-0.13914 0.141517,-0.358481 0,-0.5 l -0.1875,-0.1875 z"
       id="path3866" />
    <path
       inkscape:connector-curvature="0"
       style="opacity:0.15;fill:#ffffff;fill-opacity:1;fill-rule:nonzero;stroke:none;stroke-width:1;marker:none;visibility:visible;display:block;overflow:visible;enable-background:accumulate"
       d="m 8.21875,8.71875 -0.25,0.25 c -0.1391566,0.13914 -0.1415183,0.358482 0,0.5 l 0.1875,0.1875 C 8.24193,9.413375 8.3415958,9.187383 8.46875,8.96875 l -0.25,-0.25 z m 7.5625,0 -0.25,0.25 c 0.127155,0.218633 0.226821,0.444625 0.3125,0.6875 l 0.1875,-0.1875 c 0.141551,-0.141518 0.13914,-0.36086 0,-0.5 l -0.25,-0.25 z M 12,9.5 c -0.834415,0 -1.5,0.665584 -1.5,1.5 0,0.173018 0.0089,0.345136 0.0625,0.5 0.204887,-0.591999 0.776103,-1 1.4375,-1 0.661397,0 1.232613,0.408001 1.4375,1 C 13.4911,11.345136 13.5,11.173018 13.5,11 13.5,10.165584 12.834416,9.5 12,9.5 z m -5,2.1875 0,1 c 0,0.196773 0.1748627,0.34375 0.375,0.34375 l 0.6875,0 c 0.027115,0.101764 0.058885,0.213668 0.09375,0.3125 l 0.3125,-0.3125 c -0.1788966,-0.307601 -0.3125025,-0.648155 -0.40625,-1 l -0.6875,0 C 7.1748627,12.03125 7,11.884273 7,11.6875 z m 10,0 c 0,0.196772 -0.174865,0.34375 -0.375,0.34375 l -0.6875,0 c -0.09374,0.351845 -0.227353,0.692399 -0.40625,1 l 0.3125,0.3125 c 0.03486,-0.09883 0.06664,-0.210736 0.09375,-0.3125 l 0.6875,0 c 0.200135,0 0.375,-0.146978 0.375,-0.34375 l 0,-1 z m -8.78125,2.59375 -0.25,0.25 c -0.1414998,0.141519 -0.139139,0.36086 0,0.5 l 1,1 c 0.069569,0.06956 0.15843,0.09452 0.25,0.09375 0.091569,-7.76e-4 0.179242,-0.02299 0.25,-0.09375 l 0.5,-0.5 c 0.307602,0.178898 0.648156,0.3125 1,0.40625 l 0,0.6875 c 0,0.200136 0.146976,0.375 0.34375,0.375 l 1.375,0 c 0.196772,0 0.34375,-0.174862 0.34375,-0.375 l 0,-0.6875 c 0.351844,-0.09374 0.692399,-0.227352 1,-0.40625 l 0.5,0.5 c 0.141517,0.14155 0.360859,0.13914 0.5,0 l 1,-1 c 0.139108,-0.13914 0.141517,-0.358481 0,-0.5 l -0.25,-0.25 -0.75,0.75 c -0.139141,0.13914 -0.358483,0.14155 -0.5,0 l -0.5,-0.5 c -0.307601,0.178898 -0.648156,0.312505 -1,0.40625 l 0,0.6875 c 0,0.200138 -0.146978,0.375 -0.34375,0.375 l -1.375,0 c -0.196774,0 -0.34375,-0.174864 -0.34375,-0.375 l 0,-0.6875 c -0.351844,-0.09375 -0.692398,-0.227352 -1,-0.40625 l -0.5,0.5 c -0.070758,0.07076 -0.1584309,0.09297 -0.25,0.09375 -0.09157,7.73e-4 -0.1804308,-0.02419 -0.25,-0.09375 l -0.75,-0.75 z"
       id="path3878" />
  </g>
</svg>
