<?xml version="1.0" encoding="UTF-8" standalone="no"?>
<!-- Created with Inkscape (http://www.inkscape.org/) -->

<svg
   xmlns:dc="http://purl.org/dc/elements/1.1/"
   xmlns:cc="http://creativecommons.org/ns#"
   xmlns:rdf="http://www.w3.org/1999/02/22-rdf-syntax-ns#"
   xmlns:svg="http://www.w3.org/2000/svg"
   xmlns="http://www.w3.org/2000/svg"
   xmlns:xlink="http://www.w3.org/1999/xlink"
   xmlns:sodipodi="http://sodipodi.sourceforge.net/DTD/sodipodi-0.dtd"
   xmlns:inkscape="http://www.inkscape.org/namespaces/inkscape"
   width="24"
   height="24"
   id="svg2"
   sodipodi:version="0.32"
   inkscape:version="0.48.3.1 r9886"
   version="1.0"
   sodipodi:docname="user-bookmarks.svg"
   inkscape:output_extension="org.inkscape.output.svg.inkscape"
   style="display:inline">
  <defs
     id="defs4">
    <linearGradient
       inkscape:collect="always"
       xlink:href="#linearGradient3179-9"
       id="linearGradient3116-3"
       gradientUnits="userSpaceOnUse"
       gradientTransform="matrix(0.175,0,0,0.175,1.799998,2.0846326)"
       x1="45.036469"
       y1="-3.5623696"
       x2="45.036469"
       y2="85.068237" />
    <linearGradient
       id="linearGradient3179-9">
      <stop
         id="stop3181-0"
         offset="0"
         style="stop-color:#000000;stop-opacity:0.56910568;" />
      <stop
         style="stop-color:#000000;stop-opacity:0;"
         offset="0.07017544"
         id="stop3187-8" />
      <stop
         id="stop3194-8"
         offset="0.20271669"
         style="stop-color:#750202;stop-opacity:0.09019608;" />
      <stop
         style="stop-color:#e47b04;stop-opacity:0.13725491;"
         offset="0.26648945"
         id="stop3200-5" />
      <stop
         id="stop3190-0"
         offset="0.35024518"
         style="stop-color:#ffc906;stop-opacity:0.18431373;" />
      <stop
         style="stop-color:#b76403;stop-opacity:0.1372549;"
         offset="0.43899667"
         id="stop3198-9" />
      <stop
         style="stop-color:#700000;stop-opacity:0.09019608;"
         offset="0.49777371"
         id="stop3192-6" />
      <stop
         id="stop3196-3"
         offset="0.65896344"
         style="stop-color:#fda100;stop-opacity:0.19215687;" />
      <stop
         id="stop3183-8"
         offset="1"
         style="stop-color:#7c0000;stop-opacity:0.60975611;" />
    </linearGradient>
    <linearGradient
       id="linearGradient3942-0">
      <stop
         style="stop-color:#ffc700;stop-opacity:1;"
         offset="0"
         id="stop3944-4" />
      <stop
         style="stop-color:#ffdf6f;stop-opacity:1;"
         offset="1"
         id="stop3946-8" />
    </linearGradient>
    <linearGradient
       y2="21.847862"
       x2="44.748363"
       y1="33.312237"
       x1="45.086735"
       gradientUnits="userSpaceOnUse"
       id="linearGradient3831-7"
       xlink:href="#linearGradient3942-0"
       inkscape:collect="always" />
    <linearGradient
       inkscape:collect="always"
       xlink:href="#linearGradient3831-1"
       id="linearGradient3845-9"
       x1="11"
       y1="19.5"
       x2="21"
       y2="19.5"
       gradientUnits="userSpaceOnUse"
       spreadMethod="reflect"
       gradientTransform="translate(1,1)" />
    <linearGradient
       id="linearGradient3831-1">
      <stop
         style="stop-color:#ffffff;stop-opacity:1;"
         offset="0"
         id="stop3833-2" />
      <stop
         id="stop3821-4"
         offset="0.75"
         style="stop-color:#ffffff;stop-opacity:0.49803922;" />
      <stop
         style="stop-color:#ffffff;stop-opacity:0;"
         offset="1"
         id="stop3835-9" />
    </linearGradient>
    <linearGradient
       y2="16"
       x2="10"
       y1="5"
       x1="10"
       gradientUnits="userSpaceOnUse"
       id="linearGradient3078-0"
       xlink:href="#linearGradient3823-1"
       inkscape:collect="always"
       gradientTransform="translate(1,1)" />
    <linearGradient
       id="linearGradient3823-1">
      <stop
         id="stop3825-4"
         offset="0"
         style="stop-color:#ffffff;stop-opacity:1;" />
      <stop
         id="stop3829-4"
         offset="1"
         style="stop-color:#ffffff;stop-opacity:0;" />
    </linearGradient>
    <linearGradient
       inkscape:collect="always"
       xlink:href="#linearGradient4075"
       id="linearGradient3668-3"
       x1="10.871767"
       y1="24.123091"
       x2="10.871767"
       y2="6.1230297"
       gradientUnits="userSpaceOnUse"
       gradientTransform="translate(-0.740039,-2.1230297)" />
    <linearGradient
       id="linearGradient4075">
      <stop
         id="stop4077"
         offset="0"
         style="stop-color:#72a0c2;stop-opacity:1;" />
      <stop
         id="stop4079"
         offset="1"
         style="stop-color:#afcbde;stop-opacity:1;" />
    </linearGradient>
    <linearGradient
       y2="-11"
       x2="11.375"
       y1="20"
       x1="11.375"
       gradientTransform="translate(1,3)"
       gradientUnits="userSpaceOnUse"
       id="linearGradient3842"
       xlink:href="#linearGradient3327"
       inkscape:collect="always" />
    <linearGradient
       inkscape:collect="always"
       id="linearGradient3327">
      <stop
         style="stop-color:#000000;stop-opacity:1;"
         offset="0"
         id="stop3330" />
      <stop
         style="stop-color:#000000;stop-opacity:0;"
         offset="1"
         id="stop3333" />
    </linearGradient>
    <linearGradient
       y2="-11"
       x2="11.375"
       y1="20"
       x1="11.375"
       gradientTransform="translate(1,3)"
       gradientUnits="userSpaceOnUse"
       id="linearGradient3827"
       xlink:href="#linearGradient3327"
       inkscape:collect="always" />
    <linearGradient
       inkscape:collect="always"
       xlink:href="#linearGradient3831-1-3"
       id="linearGradient3845-9-1"
       x1="11"
       y1="19.5"
       x2="21"
       y2="19.5"
       gradientUnits="userSpaceOnUse"
       spreadMethod="reflect"
       gradientTransform="translate(1,1)" />
    <linearGradient
       id="linearGradient3831-1-3">
      <stop
         style="stop-color:#ffffff;stop-opacity:1;"
         offset="0"
         id="stop3833-2-3" />
      <stop
         id="stop3821-4-7"
         offset="0.75"
         style="stop-color:#ffffff;stop-opacity:0.49803922;" />
      <stop
         style="stop-color:#ffffff;stop-opacity:0;"
         offset="1"
         id="stop3835-9-8" />
    </linearGradient>
    <linearGradient
       y2="16"
       x2="10"
       y1="5"
       x1="10"
       gradientUnits="userSpaceOnUse"
       id="linearGradient3078-0-8"
       xlink:href="#linearGradient3823-1-6"
       inkscape:collect="always"
       gradientTransform="translate(1,1)" />
    <linearGradient
       id="linearGradient3823-1-6">
      <stop
         id="stop3825-4-3"
         offset="0"
         style="stop-color:#ffffff;stop-opacity:1;" />
      <stop
         id="stop3829-4-2"
         offset="1"
         style="stop-color:#ffffff;stop-opacity:0;" />
    </linearGradient>
    <linearGradient
       inkscape:collect="always"
       xlink:href="#linearGradient4075-4"
       id="linearGradient3668-3-5"
       x1="10.871767"
       y1="24.123091"
       x2="10.871767"
       y2="6.1230297"
       gradientUnits="userSpaceOnUse"
       gradientTransform="translate(-0.740039,-2.1230297)" />
    <linearGradient
       id="linearGradient4075-4">
      <stop
         id="stop4077-9"
         offset="0"
         style="stop-color:#6e92c6;stop-opacity:1;" />
      <stop
         id="stop4079-7"
         offset="1"
         style="stop-color:#afc2df;stop-opacity:1;" />
    </linearGradient>
    <linearGradient
       y2="-11"
       x2="11.375"
       y1="20"
       x1="11.375"
       gradientTransform="translate(1,3)"
       gradientUnits="userSpaceOnUse"
       id="linearGradient3842-3"
       xlink:href="#linearGradient3327-6"
       inkscape:collect="always" />
    <linearGradient
       inkscape:collect="always"
       id="linearGradient3327-6">
      <stop
         style="stop-color:#000000;stop-opacity:1;"
         offset="0"
         id="stop3330-9" />
      <stop
         style="stop-color:#000000;stop-opacity:0;"
         offset="1"
         id="stop3333-1" />
    </linearGradient>
    <linearGradient
       y2="-11"
       x2="11.375"
       y1="20"
       x1="11.375"
       gradientTransform="translate(1,3)"
       gradientUnits="userSpaceOnUse"
       id="linearGradient3888"
       xlink:href="#linearGradient3327-6"
       inkscape:collect="always" />
  </defs>
  <sodipodi:namedview
     id="base"
     pagecolor="#7e7e7e"
     bordercolor="#dc0000"
     borderopacity="1"
     inkscape:pageopacity="1"
     inkscape:pageshadow="2"
     inkscape:zoom="9.3568175"
     inkscape:cx="-53.736091"
     inkscape:cy="4.0053422"
     inkscape:document-units="px"
     inkscape:current-layer="layer2"
     showgrid="true"
     inkscape:showpageshadow="false"
     showguides="true"
     inkscape:guide-bbox="true"
     inkscape:window-width="1920"
     inkscape:window-height="1029"
     inkscape:window-x="0"
     inkscape:window-y="24"
     inkscape:window-maximized="1"
     borderlayer="true">
    <sodipodi:guide
       orientation="1,0"
       position="0,112"
       id="guide2383" />
    <sodipodi:guide
       orientation="0,1"
       position="26.278146,128"
       id="guide2385" />
    <sodipodi:guide
       orientation="1,0"
       position="128,54.082119"
       id="guide2387" />
    <sodipodi:guide
       orientation="0,1"
       position="78.156291,0"
       id="guide2389" />
    <inkscape:grid
       type="xygrid"
       id="grid3672"
       visible="true"
       enabled="true"
       empspacing="8"
       snapvisiblegridlinesonly="true" />
  </sodipodi:namedview>
  <metadata
     id="metadata7">
    <rdf:RDF>
      <cc:Work
         rdf:about="">
        <dc:format>image/svg+xml</dc:format>
        <dc:type
           rdf:resource="http://purl.org/dc/dcmitype/StillImage" />
        <dc:title />
      </cc:Work>
    </rdf:RDF>
  </metadata>
  <g
     inkscape:groupmode="layer"
     id="layer2"
     inkscape:label="Button"
     sodipodi:insensitive="true">
    <path
       style="opacity:0.3;fill:url(#linearGradient3888);fill-opacity:1;stroke:none;display:inline"
       d="m 4.5,1.5 c -1.0969971,0 -2,0.9030029 -2,2 l 0,0.5 c -0.6114808,0.4549066 -1,1.175925 -1,2 l 0,14.5 C 1.5,21.885 2.615,23 4,23 l 16,0 c 1.385,0 2.5,-1.115 2.5,-2.5 L 22.5,6 C 22.5,5.134375 22.071045,4.3858887 21.40625,3.9375 21.160346,3.1111944 20.401594,2.5 19.5,2.5 l -7.375,0 C 11.775318,1.9321758 11.212848,1.5 10.5,1.5 l -6,0 z"
       id="rect3371"
       inkscape:connector-curvature="0" />
    <rect
       ry="2"
       rx="2"
       y="7"
       x="2"
       height="16"
       width="20"
       id="rect5478"
       style="opacity:0.4;fill:#000000;fill-opacity:1;fill-rule:nonzero;stroke:none;display:inline" />
    <path
       inkscape:connector-curvature="0"
       style="color:#000000;fill:#7c9ccb;fill-opacity:1;fill-rule:nonzero;stroke:none;stroke-width:2;marker:none;visibility:visible;display:inline;overflow:visible;enable-background:accumulate"
       d="M 4.5,2 C 3.669,2 3,2.669 3,3.5 l 0,1 0,1 0,2 C 3,8.331 3.669,9 4.5,9 l 15,0 C 20.331,9 21,8.331 21,7.5 l 0,-3 C 21,3.669 20.331,3 19.5,3 L 11.90625,3 C 11.702994,2.4129833 11.157875,2 10.5,2 l -6,0 z"
       id="rect3043" />
    <path
       style="opacity:0.1;color:#000000;fill:#000000;fill-opacity:1;fill-rule:nonzero;stroke:none;stroke-width:2;marker:none;visibility:visible;display:inline;overflow:visible;enable-background:accumulate"
       d="M 4,3 C 3.648898,3 3.317465,3.0923738 3.03125,3.25 3.018314,3.3295389 3,3.4166943 3,3.5 l 0,1 0,1 0,2 C 3,8.331 3.669,9 4.5,9 l 15,0 C 20.331,9 21,8.331 21,7.5 l 0,-3 C 21,3.669 20.331,3 19.5,3 L 11.90625,3 4,3 z"
       id="path3050"
       inkscape:connector-curvature="0" />
    <rect
       style="fill:url(#linearGradient3668-3-5);fill-opacity:1;fill-rule:nonzero;stroke:none;display:inline"
       id="rect3660"
       width="20"
       height="17.999996"
       x="2"
       y="4"
       rx="2"
       ry="2" />
    <path
       style="opacity:0.2;fill:url(#linearGradient3078-0-8);fill-opacity:1;fill-rule:evenodd;stroke:none;display:inline"
       d="M 4,4 C 2.892,4 2,4.892 2,6 l 0,14 c 0,1.108 0.892,2 2,2 l 16,0 c 1.108,0 2,-0.892 2,-2 L 22,6 C 22,4.892 21.108,4 20,4 z m 0,1.03125 16,0 c 0.5497,0 0.96875,0.4190495 0.96875,0.96875 l 0,14 c 0,0.5497 -0.41905,0.96875 -0.96875,0.96875 l -16,0 C 3.4502995,20.96875 3.03125,20.5497 3.03125,20 l 0,-14 C 3.03125,5.4502995 3.4502995,5.03125 4,5.03125 z"
       id="rect3050"
       inkscape:connector-curvature="0"
       sodipodi:nodetypes="ssssssssssssssssss" />
    <path
       id="path3235"
       d="M 4,22 C 2.892,22 2,21.108 2,20 l 0,-1 c 0,1.108 0.892,2 2,2 l 16,0 c 1.108,0 2,-0.892 2,-2 l 0,1 c 0,1.108 -0.892,2 -2,2 z"
       style="opacity:0.2;fill:url(#linearGradient3845-9-1);fill-opacity:1;fill-rule:evenodd;stroke:none;display:inline"
       inkscape:connector-curvature="0"
       sodipodi:nodetypes="sscsscsss" />
  </g>
  <g
     inkscape:groupmode="layer"
     id="layer4"
     inkscape:label="Symbol"
     transform="translate(0,2)">
    <path
       sodipodi:type="inkscape:offset"
       inkscape:radius="0.38125408"
       inkscape:original="M 7.53125 1.375 C 6.9345161 1.375 6.4375 1.8720161 6.4375 2.46875 L 6.4375 17.375 A 0.55516984 0.55516984 0 0 0 7.34375 17.8125 L 11.96875 13.90625 L 16.65625 17.8125 A 0.55516984 0.55516984 0 0 0 17.5625 17.375 L 17.5625 2.46875 C 17.5625 2.1682111 17.44636 1.8942521 17.25 1.6875 C 17.07452 1.5027328 16.77073 1.3963 16.46875 1.40625 L 16.46875 1.375 L 16.375 1.375 L 10 1.375 L 7.53125 1.375 z "
       style="opacity:0.05;fill:#000000;fill-opacity:1;stroke:none;display:inline"
       id="path3989"
       d="M 7.53125,1 C 6.7228199,1 6.0625,1.6603199 6.0625,2.46875 l 0,14.90625 c -2.77e-5,0.0021 -4.52e-5,0.0292 0,0.03125 4.52e-5,0.0021 -1.18e-4,0.0292 0,0.03125 1.18e-4,0.0021 -1.906e-4,0.0292 0,0.03125 1.906e-4,0.002 -2.631e-4,0.02921 0,0.03125 2.631e-4,0.002 -3.352e-4,0.02922 0,0.03125 3.352e-4,0.002 -4.068e-4,0.02923 0,0.03125 4.068e-4,0.002 0.030772,0.02925 0.03125,0.03125 4.78e-4,0.002 -5.485e-4,0.02927 0,0.03125 5.485e-4,0.002 -6.184e-4,0.02929 0,0.03125 6.184e-4,0.002 0.030563,0.02931 0.03125,0.03125 6.875e-4,0.0019 -7.557e-4,0.02934 0,0.03125 7.557e-4,0.0019 -8.23e-4,0.02937 0,0.03125 8.23e-4,0.0019 0.030361,0.0294 0.03125,0.03125 8.892e-4,0.0019 -9.543e-4,0.02943 0,0.03125 9.543e-4,0.0018 0.030232,0.02946 0.03125,0.03125 0.00102,0.0018 -0.00108,0.0295 0,0.03125 0.00108,0.0017 0.030108,0.02954 0.03125,0.03125 0.00114,0.0017 -0.0012,0.02958 0,0.03125 0.0012,0.0017 0.02999,0.02963 0.03125,0.03125 0.00126,0.0016 0.029933,-0.0016 0.03125,0 0.00132,0.0016 -0.00137,0.02972 0,0.03125 0.00137,0.0015 0.029824,0.02977 0.03125,0.03125 0.00143,0.0015 0.029773,0.02982 0.03125,0.03125 0.00148,0.0014 0.029723,0.02987 0.03125,0.03125 0.00153,0.0014 0.029675,-0.0013 0.03125,0 0.00157,0.0013 -0.00162,0.02999 0,0.03125 0.00162,0.0013 0.029586,0.03004 0.03125,0.03125 0.00166,0.0012 0.029544,-0.0011 0.03125,0 0.00171,0.0011 0.029504,0.03017 0.03125,0.03125 0.00175,0.0011 0.029467,-0.001 0.03125,0 0.00178,0.001 0.029432,0.03029 0.03125,0.03125 0.00182,9.59e-4 0.029399,-8.94e-4 0.03125,0 0.00185,8.94e-4 0.029369,0.03042 0.03125,0.03125 0.00188,8.27e-4 0.02934,-7.6e-4 0.03125,0 0.00191,7.6e-4 0.029315,-6.92e-4 0.03125,0 0.00194,6.92e-4 0.029291,0.03063 0.03125,0.03125 0.00196,6.23e-4 0.02927,-5.53e-4 0.03125,0 0.00198,5.53e-4 0.029252,-4.83e-4 0.03125,0 0.002,4.83e-4 0.029236,0.03084 0.03125,0.03125 0.00201,4.12e-4 0.029223,-3.4e-4 0.03125,0 0.00203,3.4e-4 0.029212,-2.68e-4 0.03125,0 0.00204,2.68e-4 0.029204,-1.95e-4 0.03125,0 0.00205,1.95e-4 0.029198,-1.23e-4 0.03125,0 0.00205,1.23e-4 0.029195,-5e-5 0.03125,0 0.00205,5e-5 0.029195,2.3e-5 0.03125,0 0.00206,-2.3e-5 0.029197,9.6e-5 0.03125,0 0.00205,-9.6e-5 0.029202,1.68e-4 0.03125,0 0.00205,-1.68e-4 0.029209,2.41e-4 0.03125,0 0.00204,-2.41e-4 0.029219,3.13e-4 0.03125,0 0.00203,-3.13e-4 0.029231,3.85e-4 0.03125,0 0.00202,-3.85e-4 0.029246,-0.03079 0.03125,-0.03125 0.002,-4.56e-4 0.029263,5.27e-4 0.03125,0 0.00199,-5.27e-4 0.029283,5.97e-4 0.03125,0 0.00197,-5.97e-4 0.029306,6.66e-4 0.03125,0 0.00194,-6.66e-4 0.029331,-0.03052 0.03125,-0.03125 0.00192,-7.35e-4 0.029358,8.02e-4 0.03125,0 0.00189,-8.02e-4 0.029388,-0.03038 0.03125,-0.03125 0.00186,-8.69e-4 0.02942,9.35e-4 0.03125,0 0.00183,-9.35e-4 0.029454,-0.03025 0.03125,-0.03125 0.0018,-9.99e-4 0.02949,0.0011 0.03125,0 0.00176,-0.0011 0.029529,-0.03013 0.03125,-0.03125 0.00172,-0.0011 0.02957,0.0012 0.03125,0 0.00168,-0.0012 0.029613,-0.03001 0.03125,-0.03125 0.00164,-0.0012 0.029658,-0.02995 0.03125,-0.03125 l 4.375,-3.6875 4.4375,3.6875 c 0.0016,0.0013 0.02961,0.03001 0.03125,0.03125 0.0016,0.0012 0.02957,0.03007 0.03125,0.03125 0.0017,0.0012 0.02953,-0.0011 0.03125,0 0.0017,0.0011 0.02949,0.03019 0.03125,0.03125 0.0018,0.0011 0.02945,-9.99e-4 0.03125,0 0.0018,9.99e-4 0.02942,0.03032 0.03125,0.03125 0.0018,9.35e-4 0.02939,-8.69e-4 0.03125,0 0.0019,8.69e-4 0.02936,0.03045 0.03125,0.03125 0.0019,8.02e-4 0.02933,-7.35e-4 0.03125,0 0.0019,7.35e-4 0.02931,0.03058 0.03125,0.03125 0.0019,6.66e-4 0.02928,-5.97e-4 0.03125,0 0.002,5.97e-4 0.02926,-5.27e-4 0.03125,0 0.002,5.27e-4 0.02925,-4.56e-4 0.03125,0 0.002,4.56e-4 0.02923,0.03086 0.03125,0.03125 0.002,3.85e-4 0.02922,-3.13e-4 0.03125,0 0.002,3.13e-4 0.02921,-2.41e-4 0.03125,0 0.002,2.41e-4 0.0292,-1.68e-4 0.03125,0 0.002,1.68e-4 0.0292,-9.6e-5 0.03125,0 0.0021,9.6e-5 0.0292,-2.3e-5 0.03125,0 0.0021,2.3e-5 0.0292,5e-5 0.03125,0 0.0021,-5e-5 0.0292,1.23e-4 0.03125,0 0.0021,-1.23e-4 0.0292,1.95e-4 0.03125,0 0.002,-1.95e-4 0.02921,2.68e-4 0.03125,0 0.002,-2.68e-4 0.02922,3.4e-4 0.03125,0 0.002,-3.4e-4 0.02924,4.12e-4 0.03125,0 0.002,-4.12e-4 0.02925,-0.03077 0.03125,-0.03125 0.002,-4.83e-4 0.02927,5.53e-4 0.03125,0 0.002,-5.53e-4 0.02929,6.23e-4 0.03125,0 0.002,-6.23e-4 0.02932,-0.03056 0.03125,-0.03125 0.0019,-6.92e-4 0.02934,7.6e-4 0.03125,0 0.0019,-7.6e-4 0.02937,8.27e-4 0.03125,0 0.0019,-8.27e-4 0.0294,-0.03036 0.03125,-0.03125 0.0019,-8.94e-4 0.02943,9.59e-4 0.03125,0 0.0018,-9.59e-4 0.02947,-0.03023 0.03125,-0.03125 0.0018,-0.001 0.0295,0.0011 0.03125,0 0.0017,-0.0011 0.02954,-0.0301 0.03125,-0.03125 0.0017,-0.0011 0.02959,0.0012 0.03125,0 0.0017,-0.0012 0.02963,-0.02999 0.03125,-0.03125 0.0016,-0.0013 -0.0016,-0.02993 0,-0.03125 0.0016,-0.0013 0.02972,0.0014 0.03125,0 0.0015,-0.0014 0.02977,-0.02982 0.03125,-0.03125 0.0015,-0.0014 0.02982,-0.02977 0.03125,-0.03125 0.0014,-0.0015 0.02988,-0.02972 0.03125,-0.03125 0.0014,-0.0015 -0.0013,-0.02967 0,-0.03125 0.0013,-0.0016 0.02999,0.0016 0.03125,0 0.0013,-0.0016 0.03005,-0.02958 0.03125,-0.03125 0.0012,-0.0017 -0.0011,-0.02954 0,-0.03125 0.0011,-0.0017 0.03017,-0.0295 0.03125,-0.03125 0.0011,-0.0017 -0.001,-0.02946 0,-0.03125 0.001,-0.0018 0.0303,-0.02943 0.03125,-0.03125 9.54e-4,-0.0018 -8.89e-4,-0.0294 0,-0.03125 8.89e-4,-0.0019 0.03043,-0.02937 0.03125,-0.03125 8.23e-4,-0.0019 -7.56e-4,-0.02934 0,-0.03125 7.56e-4,-0.0019 -6.87e-4,-0.02931 0,-0.03125 6.87e-4,-0.0019 0.03063,-0.02929 0.03125,-0.03125 6.18e-4,-0.002 -5.49e-4,-0.02927 0,-0.03125 5.49e-4,-0.002 -4.78e-4,-0.02925 0,-0.03125 4.78e-4,-0.002 0.03084,-0.02923 0.03125,-0.03125 4.07e-4,-0.002 -3.35e-4,-0.02922 0,-0.03125 3.35e-4,-0.002 -2.63e-4,-0.02921 0,-0.03125 2.63e-4,-0.002 -1.91e-4,-0.0292 0,-0.03125 1.91e-4,-0.002 -1.18e-4,-0.0292 0,-0.03125 1.18e-4,-0.0021 -4.5e-5,-0.0292 0,-0.03125 4.5e-5,-0.0021 2.8e-5,-0.0292 0,-0.03125 l 0,-14.90625 c 0,-0.3987599 -0.145773,-0.756988 -0.40625,-1.03125 -0.215425,-0.2268262 -0.507174,-0.337519 -0.8125,-0.375 -0.01059,-0.0013 -0.02062,0.00109 -0.03125,0 A 0.3812922,0.3812922 0 0 0 16.46875,1 L 16.375,1 10,1 7.53125,1 z" />
    <path
       sodipodi:type="inkscape:offset"
       inkscape:radius="0.55511433"
       inkscape:original="M 7.53125 1.9375 C 7.2404 1.9375 7 2.1779 7 2.46875 L 7 17.375 L 11.96875 13.1875 L 17 17.375 L 17 2.46875 C 17 2.1779 16.756186 1.8930655 16.46875 1.9375 L 10 1.9375 L 7.53125 1.9375 z "
       style="opacity:0.1;fill:#000000;fill-opacity:1;stroke:none;display:inline"
       id="path3985"
       d="M 7.53125,1.375 C 6.9345161,1.375 6.4375,1.8720161 6.4375,2.46875 l 0,14.90625 a 0.55516984,0.55516984 0 0 0 0.90625,0.4375 l 4.625,-3.90625 4.6875,3.90625 A 0.55516984,0.55516984 0 0 0 17.5625,17.375 l 0,-14.90625 C 17.5625,2.1682111 17.44636,1.8942521 17.25,1.6875 17.07452,1.5027328 16.77073,1.3963 16.46875,1.40625 l 0,-0.03125 -0.09375,0 -6.375,0 -2.46875,0 z" />
    <path
       sodipodi:nodetypes="sscccsscs"
       id="path3979"
       d="M 7.53125,1.9374998 C 7.2404,1.9374998 7,2.1778998 7,2.4687498 L 7,17.375 l 4.96875,-4.1875 5.031249,4.1875 0,-14.9062502 c 0,-0.29085 -0.243814,-0.5756845 -0.53125,-0.53125 l -6.468749,0 z"
       style="opacity:0.3;fill:#000000;fill-opacity:1;stroke:none;display:inline"
       inkscape:connector-curvature="0" />
    <path
       id="path3132"
       d="M 7.53125,1.4374998 C 7.2404,1.4374998 7,1.6778998 7,1.9687498 L 7,16.875 l 5.03125,-4.1875 4.968749,4.1875 0,-14.9062502 c 0,-0.29085 -0.261676,-0.6404446 -0.53125,-0.53125 l -2.468749,0 z"
       style="fill:#aa0000;fill-opacity:1;stroke:none;display:inline"
       inkscape:connector-curvature="0"
       sodipodi:nodetypes="sscccsscs" />
    <path
       inkscape:connector-curvature="0"
       style="fill:#ffa800;fill-opacity:1;stroke:none;display:inline"
       d="M 8,1.4321746 8,15.0625 l 4.03125,-3.364143 4,3.364143 0,-13.6303254 z"
       id="path3173"
       sodipodi:nodetypes="cccccc" />
    <path
       inkscape:connector-curvature="0"
       style="fill:#d40000;fill-opacity:1;stroke:none;display:inline"
       d="m 8.5,1.4326285 0,12.5558535 3.53125,-2.9098 3.5,2.9098 0,-12.5558535 z"
       id="path4521"
       sodipodi:nodetypes="cccccc" />
    <path
       inkscape:connector-curvature="0"
       style="fill:url(#linearGradient3116-3);fill-opacity:1;stroke:none;display:inline"
       d="M 7.53125,1.4374998 C 7.2404,1.4374998 7,1.6778998 7,1.9687498 L 7,16.875 l 4.96875,-4.1875 5.031249,4.1875 0,-14.9062502 c 0,-0.29085 -0.243814,-0.5756845 -0.53125,-0.53125 l -6.468749,0 z"
       id="path3177"
       sodipodi:nodetypes="sscccsscs" />
    <path
       sodipodi:type="inkscape:offset"
       inkscape:radius="0.91668242"
       inkscape:original="M 44.75 20 L 41.84375 25.875 L 35.40625 27.15625 L 40.09375 31.75 L 39.34375 38.25 L 45.125 35.1875 L 51.09375 37.9375 L 50 31.46875 L 54.4375 26.65625 L 47.9375 25.71875 L 44.75 20 z "
       style="opacity:0.4;color:#000000;fill:#aa0000;fill-opacity:1;fill-rule:nonzero;stroke:none;stroke-width:2;marker:none;visibility:visible;display:inline;overflow:visible;enable-background:accumulate"
       id="path3995"
       d="m 44.53125,19.09375 a 0.91677409,0.91677409 0 0 0 -0.59375,0.5 L 41.25,25.0625 35.21875,26.25 A 0.91677409,0.91677409 0 0 0 34.75,27.8125 l 4.375,4.3125 -0.6875,6.03125 a 0.91677409,0.91677409 0 0 0 1.34375,0.90625 l 5.375,-2.84375 5.5625,2.5625 a 0.91677409,0.91677409 0 0 0 1.28125,-1 l -1.03125,-6 4.15625,-4.5 A 0.91677409,0.91677409 0 0 0 54.5625,25.75 L 48.53125,24.875 45.5625,19.5625 a 0.91677409,0.91677409 0 0 0 -1.03125,-0.46875 z"
       transform="matrix(0.41779882,0.01233132,-0.01233132,0.41779882,-6.4341505,-5.4000558)" />
    <path
       transform="matrix(0.41779882,0.01233132,-0.01233132,0.41779882,-6.4341505,-5.4000555)"
       inkscape:transform-center-y="-0.39504686"
       inkscape:transform-center-x="-0.004297709"
       d="m 51.087614,37.933533 -5.951494,-2.735315 -5.800182,3.043044 0.762326,-6.505466 -4.686461,-4.575949 6.422638,-1.285284 2.90379,-5.871136 3.207081,5.711117 6.481103,0.947387 -4.440553,4.814949 z"
       inkscape:randomized="0"
       inkscape:rounded="0"
       inkscape:flatsided="false"
       sodipodi:arg2="1.5446164"
       sodipodi:arg1="0.91629786"
       sodipodi:r2="5.1999998"
       sodipodi:r1="10"
       sodipodi:cy="30"
       sodipodi:cx="45"
       sodipodi:sides="5"
       id="path3950"
       style="color:#000000;fill:url(#linearGradient3831-7);fill-opacity:1;fill-rule:nonzero;stroke:none;stroke-width:2;marker:none;visibility:visible;display:inline;overflow:visible;enable-background:accumulate"
       sodipodi:type="star" />
  </g>
</svg>
