<?xml version="1.0" encoding="UTF-8" standalone="no"?>
<!-- Created with Inkscape (http://www.inkscape.org/) -->

<svg
   xmlns:dc="http://purl.org/dc/elements/1.1/"
   xmlns:cc="http://creativecommons.org/ns#"
   xmlns:rdf="http://www.w3.org/1999/02/22-rdf-syntax-ns#"
   xmlns:svg="http://www.w3.org/2000/svg"
   xmlns="http://www.w3.org/2000/svg"
   xmlns:xlink="http://www.w3.org/1999/xlink"
   xmlns:sodipodi="http://sodipodi.sourceforge.net/DTD/sodipodi-0.dtd"
   xmlns:inkscape="http://www.inkscape.org/namespaces/inkscape"
   width="96"
   height="96"
   id="svg2408"
   sodipodi:version="0.32"
   inkscape:version="0.48.1 r9760"
   version="1.0"
   sodipodi:docname="folder-wine.svg"
   inkscape:output_extension="org.inkscape.output.svg.inkscape">
  <defs
     id="defs2410">
    <linearGradient
       id="linearGradient4008">
      <stop
         id="stop4010"
         offset="0"
         style="stop-color:#dab980;stop-opacity:1" />
      <stop
         style="stop-color:#c29856;stop-opacity:1;"
         offset="0.71691591"
         id="stop4012" />
      <stop
         id="stop4014"
         offset="1"
         style="stop-color:#a2773a;stop-opacity:1;" />
    </linearGradient>
    <linearGradient
       inkscape:collect="always"
       id="linearGradient3874">
      <stop
         style="stop-color:#ffffff;stop-opacity:1;"
         offset="0"
         id="stop3876" />
      <stop
         style="stop-color:#ffffff;stop-opacity:0;"
         offset="1"
         id="stop3878" />
    </linearGradient>
    <linearGradient
       gradientUnits="userSpaceOnUse"
       y2="20.137329"
       x2="11.794092"
       y1="3.2126782"
       x1="11.794092"
       gradientTransform="scale(1.0598527,0.9435274)"
       id="linearGradient3317">
      <stop
         id="stop3319"
         offset="0"
         style="stop-color:#c6953a;stop-opacity:1" />
      <stop
         id="stop3321"
         offset="1"
         style="stop-color:#ab7a1f;stop-opacity:1" />
    </linearGradient>
    <linearGradient
       inkscape:collect="always"
       xlink:href="#linearGradient3317"
       id="linearGradient3361"
       x1="48.035713"
       y1="25.910715"
       x2="48.035713"
       y2="85.821426"
       gradientUnits="userSpaceOnUse" />
    <linearGradient
       id="linearGradient3187">
      <stop
         style="stop-color:#c29656;stop-opacity:1;"
         offset="0"
         id="stop3189" />
      <stop
         style="stop-color:#ddc08b;stop-opacity:1;"
         offset="1"
         id="stop3191" />
    </linearGradient>
    <linearGradient
       id="ButtonShadow"
       gradientTransform="matrix(1.0058652,0,0,0.994169,0,12)"
       x1="45.447727"
       y1="80.471962"
       x2="45.447727"
       y2="7.0165396"
       gradientUnits="userSpaceOnUse">
      <stop
         style="stop-color:#000000;stop-opacity:1;"
         offset="0"
         id="stop3750" />
      <stop
         style="stop-color:#000000;stop-opacity:0.58823532;"
         offset="1"
         id="stop3752" />
    </linearGradient>
    <linearGradient
       inkscape:collect="always"
       xlink:href="#linearGradient3187"
       id="linearGradient3706"
       x1="48"
       y1="78"
       x2="48"
       y2="5.9877172"
       gradientUnits="userSpaceOnUse"
       gradientTransform="translate(0,8)" />
    <filter
       inkscape:collect="always"
       id="filter3174">
      <feGaussianBlur
         inkscape:collect="always"
         stdDeviation="1.71"
         id="feGaussianBlur3176" />
    </filter>
    <linearGradient
       inkscape:collect="always"
       xlink:href="#ButtonShadow"
       id="linearGradient3664"
       gradientUnits="userSpaceOnUse"
       gradientTransform="matrix(1.0058652,0,0,0.994169,0,12)"
       x1="45.447727"
       y1="80.471962"
       x2="45.447727"
       y2="5.297224" />
    <clipPath
       clipPathUnits="userSpaceOnUse"
       id="clipPath3860">
      <rect
         ry="6"
         rx="6"
         y="18"
         x="6"
         height="72"
         width="84"
         id="rect3862"
         style="fill:#ff00ff;fill-opacity:1;fill-rule:nonzero;stroke:none" />
    </clipPath>
    <filter
       inkscape:collect="always"
       id="filter3870"
       x="-0.16558799"
       width="1.331176"
       y="-0.19715988"
       height="1.3943198">
      <feGaussianBlur
         inkscape:collect="always"
         stdDeviation="5.1703125"
         id="feGaussianBlur3872" />
    </filter>
    <linearGradient
       id="linearGradient3699">
      <stop
         style="stop-color:#aa7932;stop-opacity:0.78431374;"
         offset="0"
         id="stop3701" />
      <stop
         style="stop-color:#aa7932;stop-opacity:0.39215687;"
         offset="1"
         id="stop3703" />
    </linearGradient>
    <linearGradient
       id="linearGradient3892">
      <stop
         style="stop-color:#000000;stop-opacity:0.58823532;"
         offset="0"
         id="stop3894" />
      <stop
         id="stop3896"
         offset="0.11780351"
         style="stop-color:#000000;stop-opacity:0.47058824;" />
      <stop
         style="stop-color:#000000;stop-opacity:0.39215687;"
         offset="0.23809524"
         id="stop3898" />
      <stop
         style="stop-color:#000000;stop-opacity:0.3137255;"
         offset="1"
         id="stop3900" />
    </linearGradient>
    <linearGradient
       y2="88"
       x2="48"
       y1="88"
       x1="90"
       spreadMethod="reflect"
       gradientUnits="userSpaceOnUse"
       id="linearGradient3077"
       xlink:href="#linearGradient3892"
       inkscape:collect="always" />
    <linearGradient
       id="linearGradient4384">
      <stop
         style="stop-color:#ffffff;stop-opacity:1;"
         offset="0"
         id="stop4386" />
      <stop
         style="stop-color:#ffffff;stop-opacity:0;"
         offset="1"
         id="stop4388" />
    </linearGradient>
    <linearGradient
       y2="-40"
       x2="48"
       y1="75.08329"
       x1="48"
       gradientTransform="matrix(1,0,0,-1,0,92)"
       gradientUnits="userSpaceOnUse"
       id="linearGradient3094"
       xlink:href="#linearGradient4384"
       inkscape:collect="always" />
    <linearGradient
       inkscape:collect="always"
       xlink:href="#linearGradient3874"
       id="linearGradient3123"
       gradientUnits="userSpaceOnUse"
       x1="48.021698"
       y1="22.933374"
       x2="48.021698"
       y2="81.481377" />
    <linearGradient
       inkscape:collect="always"
       xlink:href="#linearGradient4008"
       id="linearGradient3105"
       gradientUnits="userSpaceOnUse"
       gradientTransform="matrix(0.72,0,0,0.72,1.92,-5.52)"
       x1="34.85965"
       y1="16.275133"
       x2="34.85965"
       y2="26.986736" />
    <linearGradient
       inkscape:collect="always"
       xlink:href="#ButtonShadow"
       id="linearGradient3952"
       x1="43"
       y1="91"
       x2="43"
       y2="7"
       gradientUnits="userSpaceOnUse" />
    <linearGradient
       inkscape:collect="always"
       xlink:href="#ButtonShadow"
       id="linearGradient3961"
       x1="45"
       y1="92"
       x2="45"
       y2="7"
       gradientUnits="userSpaceOnUse" />
    <linearGradient
       inkscape:collect="always"
       xlink:href="#ButtonShadow"
       id="linearGradient3969"
       gradientUnits="userSpaceOnUse"
       x1="45"
       y1="92"
       x2="45"
       y2="7" />
    <linearGradient
       inkscape:collect="always"
       xlink:href="#ButtonShadow"
       id="linearGradient3977"
       gradientUnits="userSpaceOnUse"
       x1="45"
       y1="92"
       x2="45"
       y2="7" />
    <linearGradient
       inkscape:collect="always"
       xlink:href="#ButtonShadow"
       id="linearGradient3986"
       gradientUnits="userSpaceOnUse"
       x1="45"
       y1="92"
       x2="45"
       y2="7" />
    <linearGradient
       y2="31.782455"
       x2="51.17857"
       y1="76.408951"
       x1="51.17857"
       gradientUnits="userSpaceOnUse"
       id="linearGradient3093"
       xlink:href="#linearGradient3699"
       inkscape:collect="always"
       gradientTransform="translate(0,-4)" />
    <linearGradient
       inkscape:collect="always"
       xlink:href="#linearGradient3699"
       id="linearGradient5022"
       gradientUnits="userSpaceOnUse"
       gradientTransform="translate(0,-4)"
       x1="51.17857"
       y1="76.408951"
       x2="51.17857"
       y2="31.782455" />
    <linearGradient
       inkscape:collect="always"
       xlink:href="#linearGradient3699"
       id="linearGradient5035"
       gradientUnits="userSpaceOnUse"
       gradientTransform="translate(0,-4)"
       x1="51.17857"
       y1="76.408951"
       x2="51.17857"
       y2="31.782455" />
    <linearGradient
       inkscape:collect="always"
       xlink:href="#linearGradient3699"
       id="linearGradient5048"
       gradientUnits="userSpaceOnUse"
       gradientTransform="translate(0,-4)"
       x1="51.17857"
       y1="76.408951"
       x2="51.17857"
       y2="31.782455" />
    <linearGradient
       y2="33.892994"
       x2="55"
       y1="76"
       x1="55"
       gradientUnits="userSpaceOnUse"
       id="linearGradient3097"
       xlink:href="#linearGradient3699"
       inkscape:collect="always"
       gradientTransform="translate(0,-4)" />
    <linearGradient
       inkscape:collect="always"
       xlink:href="#linearGradient3699"
       id="linearGradient5124"
       gradientUnits="userSpaceOnUse"
       gradientTransform="translate(0,-3)"
       x1="55"
       y1="76"
       x2="55"
       y2="33.892994" />
    <linearGradient
       inkscape:collect="always"
       xlink:href="#linearGradient3699"
       id="linearGradient5126"
       gradientUnits="userSpaceOnUse"
       gradientTransform="translate(0,-4)"
       x1="55"
       y1="76"
       x2="55"
       y2="33.892994" />
    <linearGradient
       inkscape:collect="always"
       xlink:href="#linearGradient3699"
       id="linearGradient5130"
       gradientUnits="userSpaceOnUse"
       gradientTransform="translate(0,-4)"
       x1="55"
       y1="76"
       x2="55"
       y2="33.892994" />
    <linearGradient
       inkscape:collect="always"
       xlink:href="#linearGradient3699"
       id="linearGradient5134"
       gradientUnits="userSpaceOnUse"
       gradientTransform="translate(0,-3)"
       x1="55"
       y1="76"
       x2="55"
       y2="33.892994" />
    <linearGradient
       inkscape:collect="always"
       xlink:href="#linearGradient3699"
       id="linearGradient5166"
       gradientUnits="userSpaceOnUse"
       gradientTransform="translate(0,-4)"
       x1="55"
       y1="76"
       x2="55"
       y2="33.892994" />
    <linearGradient
       inkscape:collect="always"
       xlink:href="#linearGradient3699"
       id="linearGradient5169"
       gradientUnits="userSpaceOnUse"
       gradientTransform="translate(0,-4)"
       x1="55"
       y1="76"
       x2="55"
       y2="33.892994" />
    <linearGradient
       inkscape:collect="always"
       xlink:href="#linearGradient3699"
       id="linearGradient5172"
       gradientUnits="userSpaceOnUse"
       gradientTransform="translate(0,-4)"
       x1="55"
       y1="76"
       x2="55"
       y2="33.892994" />
    <linearGradient
       inkscape:collect="always"
       xlink:href="#linearGradient3699"
       id="linearGradient5178"
       gradientUnits="userSpaceOnUse"
       gradientTransform="translate(0,-3)"
       x1="55"
       y1="76"
       x2="55"
       y2="33.892994" />
    <linearGradient
       inkscape:collect="always"
       xlink:href="#linearGradient3699"
       id="linearGradient5180"
       gradientUnits="userSpaceOnUse"
       gradientTransform="translate(0,-4)"
       x1="55"
       y1="76"
       x2="55"
       y2="33.892994" />
    <linearGradient
       inkscape:collect="always"
       xlink:href="#linearGradient3699"
       id="linearGradient5187"
       gradientUnits="userSpaceOnUse"
       gradientTransform="translate(0,-4)"
       x1="55"
       y1="76"
       x2="55"
       y2="33.892994" />
    <linearGradient
       inkscape:collect="always"
       xlink:href="#linearGradient3699"
       id="linearGradient5191"
       gradientUnits="userSpaceOnUse"
       gradientTransform="translate(0,-4)"
       x1="55"
       y1="76"
       x2="55"
       y2="33.892994" />
    <linearGradient
       inkscape:collect="always"
       xlink:href="#linearGradient3699"
       id="linearGradient5193"
       gradientUnits="userSpaceOnUse"
       gradientTransform="translate(0,-4)"
       x1="55"
       y1="76"
       x2="55"
       y2="33.892994" />
    <linearGradient
       inkscape:collect="always"
       xlink:href="#linearGradient3699"
       id="linearGradient5200"
       gradientUnits="userSpaceOnUse"
       gradientTransform="translate(0,-4)"
       x1="55"
       y1="76"
       x2="55"
       y2="33.892994" />
    <linearGradient
       inkscape:collect="always"
       xlink:href="#linearGradient3699"
       id="linearGradient5204"
       gradientUnits="userSpaceOnUse"
       gradientTransform="translate(0,-4)"
       x1="55"
       y1="76"
       x2="55"
       y2="33.892994" />
    <linearGradient
       inkscape:collect="always"
       xlink:href="#linearGradient3699"
       id="linearGradient5206"
       gradientUnits="userSpaceOnUse"
       gradientTransform="translate(0,-4)"
       x1="55"
       y1="76"
       x2="55"
       y2="33.892994" />
    <linearGradient
       inkscape:collect="always"
       xlink:href="#linearGradient3699"
       id="linearGradient5211"
       gradientUnits="userSpaceOnUse"
       gradientTransform="translate(0,-3)"
       x1="55"
       y1="76"
       x2="55"
       y2="33.892994" />
    <linearGradient
       inkscape:collect="always"
       xlink:href="#linearGradient3699"
       id="linearGradient5215"
       gradientUnits="userSpaceOnUse"
       gradientTransform="translate(0,-4)"
       x1="55"
       y1="76"
       x2="55"
       y2="33.892994" />
    <linearGradient
       inkscape:collect="always"
       xlink:href="#linearGradient3699"
       id="linearGradient5222"
       gradientUnits="userSpaceOnUse"
       gradientTransform="translate(0,-4)"
       x1="55"
       y1="76"
       x2="55"
       y2="33.892994" />
    <linearGradient
       inkscape:collect="always"
       xlink:href="#linearGradient3699"
       id="linearGradient5226"
       gradientUnits="userSpaceOnUse"
       gradientTransform="translate(0,-4)"
       x1="55"
       y1="76"
       x2="55"
       y2="33.892994" />
    <linearGradient
       inkscape:collect="always"
       xlink:href="#linearGradient3699"
       id="linearGradient5233"
       gradientUnits="userSpaceOnUse"
       gradientTransform="translate(0,-4)"
       x1="55"
       y1="76"
       x2="55"
       y2="33.892994" />
    <linearGradient
       inkscape:collect="always"
       xlink:href="#linearGradient3699"
       id="linearGradient5237"
       gradientUnits="userSpaceOnUse"
       gradientTransform="translate(0,-4)"
       x1="55"
       y1="76"
       x2="55"
       y2="33.892994" />
  </defs>
  <sodipodi:namedview
     id="base"
     pagecolor="#818181"
     bordercolor="#cc0000"
     borderopacity="1"
     inkscape:pageopacity="1"
     inkscape:pageshadow="2"
     inkscape:zoom="8"
     inkscape:cx="26.355472"
     inkscape:cy="44.77377"
     inkscape:document-units="px"
     inkscape:current-layer="layer6"
     showgrid="true"
     showborder="true"
     inkscape:showpageshadow="false"
     inkscape:window-width="1920"
     inkscape:window-height="1030"
     inkscape:window-x="0"
     inkscape:window-y="25"
     inkscape:window-maximized="1"
     inkscape:snap-global="true"
     showguides="true"
     inkscape:guide-bbox="true">
    <inkscape:grid
       type="xygrid"
       id="grid3732"
       visible="true"
       enabled="true"
       empspacing="8"
       snapvisiblegridlinesonly="true" />
    <sodipodi:guide
       orientation="0,1"
       position="29,68"
       id="guide4090" />
    <sodipodi:guide
       orientation="0,1"
       position="46,22"
       id="guide4092" />
  </sodipodi:namedview>
  <metadata
     id="metadata2413">
    <rdf:RDF>
      <cc:Work
         rdf:about="">
        <dc:format>image/svg+xml</dc:format>
        <dc:type
           rdf:resource="http://purl.org/dc/dcmitype/StillImage" />
        <dc:title></dc:title>
      </cc:Work>
    </rdf:RDF>
  </metadata>
  <g
     inkscape:groupmode="layer"
     id="layer2"
     inkscape:label="Blur Shadow"
     style="display:none"
     sodipodi:insensitive="true">
    <path
       style="opacity:0.9;fill:url(#linearGradient3664);fill-opacity:1;fill-rule:nonzero;stroke:none;filter:url(#filter3174)"
       d="M 14.96875,8.8028918 C 13.32891,8.8028918 12,10.085142 12,11.677892 L 12,19 c -3.324,0 -7,2.676 -7,6 l 0,61 c 0,3.324 2.676,6 6,6 l 74,0 c 3.324,0 6,-2.676 6,-6 l 0,-61 c 0,-3.324 -3.74743,-6 -7.07143,-6 l 0,-0.134608 c 0,-2.389125 -1.97774,-4.3125 -4.4375,-4.3125 l -43.33482,0 -1.46875,-2.875 C 33.95414,10.253293 33.35859,8.8028918 31.71875,8.8028918 l -16.75,0 z"
       id="rect3745"
       sodipodi:nodetypes="cccccccccccccccc" />
  </g>
  <g
     inkscape:groupmode="layer"
     id="layer4"
     inkscape:label="Shadow"
     style="display:inline"
     sodipodi:insensitive="true">
    <path
       sodipodi:type="inkscape:offset"
       inkscape:radius="0.92770815"
       inkscape:original="M 14.125 4.9375 C 10.184407 4.9375 6.9375 8.0807925 6.9375 12 L 6.9375 14.59375 C 4.5548901 16.215826 2.9375 18.887678 2.9375 22 L 2.9375 85 C 2.9375 90.001444 6.9985559 94.0625 12 94.0625 L 84 94.0625 C 89.001444 94.0625 93.0625 90.001444 93.0625 85 L 93.0625 22 C 93.0625 18.739154 91.28931 15.960259 88.71875 14.375 C 87.957559 11.279325 85.241489 8.9375 81.875 8.9375 L 42.0625 8.9375 C 40.465021 7.3963057 39.290438 6.2599842 38.21875 5.65625 C 36.945571 4.9390059 35.771277 4.9685784 34.84375 4.9375 A 1.043776 1.043776 0 0 0 34.8125 4.9375 L 34.78125 4.9375 L 14.125 4.9375 z "
       style="opacity:0.07999998;fill:url(#linearGradient3986);fill-opacity:1;fill-rule:nonzero;stroke:none;display:inline"
       id="path3984"
       d="M 14.125,4 C 9.6910704,4 6,7.568413 6,12 l 0,2.15625 C 3.6235961,15.958367 2,18.759045 2,22 l 0,63 c 0,5.503629 4.496371,10 10,10 l 72,0 c 5.503629,0 10,-4.496371 10,-10 L 94,22 C 94,18.516601 92.146607,15.546894 89.46875,13.78125 88.481551,10.491738 85.526024,8 81.875,8 l -39.5,0 C 40.972352,6.645177 39.835329,5.4903784 38.6875,4.84375 37.192287,4.0014231 35.756649,4.0295412 34.875,4 a 0.92780092,0.92780092 0 0 0 -0.03125,0 c -0.0012,-1.73e-5 -0.03009,-1.73e-5 -0.03125,0 L 34.78125,4 14.125,4 z" />
    <path
       sodipodi:type="inkscape:offset"
       inkscape:radius="1.0436716"
       inkscape:original="M 14.125 5.96875 C 10.736326 5.96875 7.96875 8.6567706 7.96875 12 L 7.96875 15.125 C 5.5936068 16.519016 3.96875 19.045462 3.96875 22 L 3.96875 85 C 3.96875 89.438141 7.5618586 93.03125 12 93.03125 L 84 93.03125 C 88.438141 93.03125 92.03125 89.438141 92.03125 85 L 92.03125 22 C 92.03125 18.968008 90.319005 16.395638 87.84375 15.03125 C 87.351857 12.17163 84.915107 9.96875 81.875 9.96875 L 41.6875 9.96875 C 39.852667 8.1939079 38.678863 7.1033787 37.71875 6.5625 C 36.681475 5.9781523 35.778304 6.0011109 34.8125 5.96875 A 1.043776 1.043776 0 0 0 34.78125 5.96875 L 14.125 5.96875 z "
       style="opacity:0.1;fill:url(#linearGradient3977);fill-opacity:1;fill-rule:nonzero;stroke:none;display:inline"
       id="path3975"
       d="M 14.125,4.9375 C 10.184407,4.9375 6.9375,8.0807925 6.9375,12 l 0,2.59375 c -2.3826099,1.622076 -4,4.293928 -4,7.40625 l 0,63 c 0,5.001444 4.0610559,9.0625 9.0625,9.0625 l 72,0 c 5.001444,0 9.0625,-4.061056 9.0625,-9.0625 l 0,-63 c 0,-3.260846 -1.77319,-6.039741 -4.34375,-7.625 C 87.957559,11.279325 85.241489,8.9375 81.875,8.9375 l -39.8125,0 C 40.465021,7.3963057 39.290438,6.2599842 38.21875,5.65625 36.945571,4.9390059 35.771277,4.9685784 34.84375,4.9375 a 1.043776,1.043776 0 0 0 -0.03125,0 c -10e-7,0 -0.03125,0 -0.03125,0 l -20.65625,0 z" />
    <path
       sodipodi:type="inkscape:offset"
       inkscape:radius="1.0436716"
       inkscape:original="M 14.125 7 C 11.282105 7 9 9.23 9 12 L 9 15.6875 C 6.6359408 16.808884 5 19.200342 5 22 L 5 85 C 5 88.878 8.122 92 12 92 L 84 92 C 87.878 92 91 88.878 91 85 L 91 22 C 91 19.190264 89.346632 16.803629 86.96875 15.6875 C 86.799101 13.069075 84.606585 11 81.875 11 L 41.28125 11 C 37.060722 6.8876898 36.778482 7.0669206 34.78125 7 L 14.125 7 z "
       style="opacity:0.2;fill:url(#linearGradient3969);fill-opacity:1;fill-rule:nonzero;stroke:none;display:inline"
       id="path3967"
       d="M 14.125,5.96875 C 10.736326,5.96875 7.96875,8.6567706 7.96875,12 l 0,3.125 c -2.3751432,1.394016 -4,3.920462 -4,6.875 l 0,63 c 0,4.438141 3.5931086,8.03125 8.03125,8.03125 l 72,0 c 4.438141,0 8.03125,-3.593109 8.03125,-8.03125 l 0,-63 c 0,-3.031992 -1.712245,-5.604362 -4.1875,-6.96875 -0.491893,-2.85962 -2.928643,-5.0625 -5.96875,-5.0625 l -40.1875,0 C 39.852667,8.1939079 38.678863,7.1033787 37.71875,6.5625 36.681475,5.9781523 35.778304,6.0011109 34.8125,5.96875 a 1.043776,1.043776 0 0 0 -0.03125,0 l -20.65625,0 z" />
    <path
       style="opacity:0.3;fill:url(#linearGradient3961);fill-opacity:1;fill-rule:nonzero;stroke:none;display:inline"
       d="M 14.125,7 C 11.282105,7 9,9.23 9,12 l 0,3.6875 C 6.6359408,16.808884 5,19.200342 5,22 l 0,63 c 0,3.878 3.122,7 7,7 l 72,0 c 3.878,0 7,-3.122 7,-7 L 91,22 C 91,19.190264 89.346632,16.803629 86.96875,15.6875 86.799101,13.069075 84.606585,11 81.875,11 l -40.59375,0 c -4.220528,-4.1123102 -4.502768,-3.9330794 -6.5,-4 L 14.125,7 z"
       id="path3908-1"
       inkscape:connector-curvature="0" />
    <path
       style="opacity:0.45;fill:url(#linearGradient3952);fill-opacity:1;fill-rule:nonzero;stroke:none;display:inline"
       d="m 15,7 c -2.77,0 -5,2.23 -5,5 l 0,3.34375 C 7.6664933,16.164656 6,18.378887 6,21 l 0,64 c 0,3.324 2.676,6 6,6 l 72,0 c 3.324,0 6,-2.676 6,-6 L 90,21 C 90,18.358112 88.300137,16.148775 85.9375,15.34375 85.611464,12.893448 83.542274,11 81,11 L 40.46875,11 C 36.35644,6.8876898 36.102271,7.0669206 34.15625,7 L 15,7 z"
       id="path3941"
       inkscape:connector-curvature="0" />
  </g>
  <g
     inkscape:groupmode="layer"
     id="layer3"
     inkscape:label="Background"
     style="display:inline"
     sodipodi:insensitive="true">
    <rect
       style="fill:url(#linearGradient3361);fill-opacity:1;fill-rule:nonzero;stroke:none;display:inline"
       id="rect3352"
       width="75"
       height="62.678574"
       x="10.535714"
       y="23.142857"
       rx="6"
       ry="6" />
    <path
       style="fill:url(#linearGradient3105);fill-opacity:1;fill-rule:nonzero;stroke:none;display:inline"
       d="m 15,6 c -2.77,0 -5,2.23 -5,5 l 0,59.8125 c 0,2.39328 1.91922,4.3125 4.3125,4.3125 l 67.375,0 C 84.08078,75.125 86,73.20578 86,70.8125 L 86,15 c 0,-2.77 -2.23,-5 -5,-5 L 40.46875,10 C 36.35644,5.8876898 36.102271,6.0669206 34.15625,6 z"
       id="path3908"
       inkscape:connector-curvature="0"
       sodipodi:nodetypes="cccsscccccc" />
    <path
       style="opacity:0.2;fill:#ffffff;fill-opacity:1;fill-rule:nonzero;stroke:none;display:inline"
       d="m 15,6 c -2.77,0 -5,2.23 -5,5 l 0,59.8125 c 0,2.39328 1.91922,4.3125 4.3125,4.3125 l 67.375,0 C 84.08078,75.125 86,73.20578 86,70.8125 L 86,15 c 0,-2.77 -2.23,-5 -5,-5 L 40.46875,10 C 36.35644,5.8876898 36.102271,6.0669206 34.15625,6 L 15,6 z m 0,1.03125 19.125,0 0.03125,0 c 0.964976,0.031157 1.192535,-0.016972 1.8125,0.34375 0.630289,0.366729 1.706808,1.3318077 3.75,3.375 a 1.043776,1.043776 0 0 0 0.75,0.28125 l 40.53125,0 c 2.209859,0 3.96875,1.758891 3.96875,3.96875 l 0,55.8125 c 0,1.835319 -1.445931,3.28125 -3.28125,3.28125 l -67.375,0 c -1.835319,0 -3.28125,-1.445931 -3.28125,-3.28125 l 0,-59.8125 c 0,-2.2098586 1.758891,-3.96875 3.96875,-3.96875 z"
       id="path3108"
       inkscape:connector-curvature="0" />
  </g>
  <g
     inkscape:label="Foreground"
     inkscape:groupmode="layer"
     id="layer1"
     style="display:inline"
     sodipodi:insensitive="true">
    <rect
       style="fill:url(#linearGradient3706);fill-opacity:1;fill-rule:nonzero;stroke:none"
       id="rect2419"
       width="84"
       height="76"
       x="6"
       y="14"
       rx="6"
       ry="6" />
    <path
       style="opacity:0.35;fill:url(#linearGradient3094);fill-opacity:1;fill-rule:nonzero;stroke:none"
       d="M 12,86 C 8.676,86 6,83.324 6,80 L 6,20 c 0,-3.324 2.676,-6 6,-6 l 72,0 c 3.324,0 6,2.676 6,6 l 0,60 c 0,3.324 -2.676,6 -6,6 z m 0,-0.96875 72,0 c 2.80489,0 5.03125,-2.22636 5.03125,-5.03125 l 0,-60 c 0,-2.80489 -2.22636,-5.03125 -5.03125,-5.03125 l -72,0 c -2.8048898,0 -5.03125,2.22636 -5.03125,5.03125 l 0,60 c 0,2.80489 2.2263602,5.03125 5.03125,5.03125 z"
       id="rect4377"
       inkscape:connector-curvature="0"
       sodipodi:nodetypes="ssssssssssssssssss" />
    <path
       style="opacity:0.1;fill:#ffffff;fill-opacity:1;fill-rule:nonzero;stroke:none"
       d="m 6,78 0,2 c 0,3.324 2.676,6 6,6 l 72,0 c 3.324,0 6,-2.676 6,-6 l 0,-2 c 0,3.324 -2.676,6 -6,6 L 12,84 C 8.676,84 6,81.324 6,78 z"
       id="rect3841"
       inkscape:connector-curvature="0" />
  </g>
  <g
     inkscape:groupmode="layer"
     id="layer7"
     inkscape:label="Bottom Edge"
     sodipodi:insensitive="true">
    <path
       style="opacity:0.8;fill:#a17431;fill-opacity:1;fill-rule:nonzero;stroke:none;display:inline"
       d="m 6,80 0,4 c 0,3.324 2.676,6 6,6 l 72,0 c 3.324,0 6,-2.676 6,-6 l 0,-4 c 0,3.324 -2.676,6 -6,6 L 12,86 C 8.676,86 6,83.324 6,80 z"
       id="path3067"
       inkscape:connector-curvature="0" />
    <path
       inkscape:connector-curvature="0"
       id="path3888"
       d="m 6,80 0,4 c 0,3.324 2.676,6 6,6 l 72,0 c 3.324,0 6,-2.676 6,-6 l 0,-4 c 0,3.324 -2.676,6 -6,6 L 12,86 C 8.676,86 6,83.324 6,80 z"
       style="opacity:0.5;fill:url(#linearGradient3077);fill-opacity:1;fill-rule:nonzero;stroke:none;display:inline" />
    <path
       style="opacity:0.1;color:#000000;fill:#000000;fill-opacity:1;fill-rule:nonzero;stroke:none;stroke-width:1.5;marker:none;visibility:visible;display:inline;overflow:visible;enable-background:accumulate"
       d="m 6,82 0,2 c 0,3.324 2.676,6 6,6 l 72,0 c 3.324,0 6,-2.676 6,-6 l 0,-2 c 0,3.324 -2.676,6 -6,6 L 12,88 C 8.676,88 6,85.324 6,82 z"
       id="rect4345"
       inkscape:connector-curvature="0" />
    <path
       style="opacity:0.15;color:#000000;fill:#000000;fill-opacity:1;fill-rule:nonzero;stroke:none;stroke-width:1.5;marker:none;visibility:visible;display:inline;overflow:visible;enable-background:accumulate"
       d="m 6,83 0,1 c 0,3.324 2.676,6 6,6 l 72,0 c 3.324,0 6,-2.676 6,-6 l 0,-1 c 0,3.324 -2.676,6 -6,6 L 12,89 C 8.676,89 6,86.324 6,83 z"
       id="rect4336"
       inkscape:connector-curvature="0" />
  </g>
  <g
     inkscape:groupmode="layer"
     id="layer5"
     inkscape:label="Highlight"
     style="display:inline"
     sodipodi:insensitive="true">
    <path
       style="opacity:0.15;fill:url(#linearGradient3123);fill-opacity:1;fill-rule:nonzero;stroke:none;filter:url(#filter3870)"
       clip-path="url(#clipPath3860)"
       d="m 15.96875,22.53125 c -2.845903,0.0043 -5.433244,2.591597 -5.4375,5.4375 l 0,48.0625 c 0.0043,2.845903 2.591597,5.433244 5.4375,5.4375 l 64.0625,0 c 2.845903,-0.0043 5.433244,-2.591597 5.4375,-5.4375 l 0,-48.0625 c -0.0043,-2.845903 -2.591597,-5.433244 -5.4375,-5.4375 z"
       id="path3850"
       inkscape:connector-curvature="0"
       sodipodi:nodetypes="ccccccccc" />
  </g>
  <g
     inkscape:groupmode="layer"
     id="layer6"
     inkscape:label="Symbol">
    <path
       style="opacity:0.05;fill:#ffffff;fill-opacity:1"
       d="M 42.59375 28 C 39.921274 28.040905 36.879077 28.716938 33.21875 30.21875 A 1.986989 1.986989 0 0 0 32.0625 31.5 L 27.4375 47.28125 A 1.986989 1.986989 0 0 0 27.6875 48.9375 A 1.986989 1.986989 0 0 0 26.625 50.1875 L 22.09375 65.875 A 1.986989 1.986989 0 0 0 24.75 68.28125 C 29.184848 66.462112 32.218285 66.148804 34.5625 66.5 C 36.906715 66.851196 38.702977 67.884437 40.65625 69.1875 A 1.986989 1.986989 0 0 0 42.375 69.4375 A 1.986989 1.986989 0 0 0 43.1875 70.53125 C 45.279927 71.938867 47.707127 73.346921 50.90625 73.8125 C 54.105373 74.278079 57.931725 73.783992 62.8125 71.78125 A 1.986989 1.986989 0 0 0 63.96875 70.5 L 68.40625 55.21875 A 1.986989 1.986989 0 0 0 68.03125 53.40625 C 68.099507 53.376454 68.150136 53.374205 68.21875 53.34375 A 1.986989 1.986989 0 0 0 69.3125 52.09375 L 73.90625 36.375 A 1.986989 1.986989 0 0 0 71.25 33.96875 C 66.824874 35.782968 63.774116 36.094926 61.40625 35.75 C 59.038384 35.405074 57.218557 34.388553 55.28125 33.09375 A 1.986989 1.986989 0 0 0 53.75 32.8125 A 1.986989 1.986989 0 0 0 52.875 31.4375 C 50.248708 29.675235 47.03942 27.931941 42.59375 28 z M 42.625 30 C 46.565755 29.939671 49.258857 31.401202 51.78125 33.09375 L 47.1875 48.8125 C 44.758 47.188682 42.151766 45.68344 38.4375 45.65625 C 35.987995 45.63714 33.047643 46.326521 29.34375 47.84375 L 33.96875 32.0625 C 37.462406 30.629072 40.260547 30.03619 42.625 30 z M 54.1875 34.75 C 58.215179 37.441907 62.69618 39.62689 72 35.8125 L 67.40625 51.53125 C 58.48623 55.490453 53.618465 53.269842 49.59375 50.5625 L 54.1875 34.75 z M 37.25 48.65625 C 41.18739 48.561218 43.890803 49.961863 46.40625 51.65625 L 41.75 67.53125 C 37.710465 64.836404 33.322343 62.613553 24 66.4375 L 28.53125 50.75 L 28.59375 50.75 C 32.075736 49.327047 34.887566 48.71327 37.25 48.65625 z M 48.84375 53.21875 C 52.88032 55.912862 57.01243 57.874481 66.5 54.65625 L 62.0625 69.9375 C 52.75053 73.758506 48.313375 71.587489 44.28125 68.875 L 48.84375 53.21875 z "
       id="path5235" />
    <path
       style="opacity:0.10000000000000001;fill:#ffffff;fill-opacity:1"
       d="M 42.59375 28.96875 C 40.070595 29.007369 37.173279 29.656339 33.59375 31.125 A 1.0237507 1.0237507 0 0 0 33 31.78125 L 28.375 47.5625 A 1.0237507 1.0237507 0 0 0 29.71875 48.78125 C 33.347442 47.294826 36.186429 46.669938 38.4375 46.6875 C 41.878731 46.712691 44.233709 48.05797 46.625 49.65625 A 1.0237507 1.0237507 0 0 0 48.15625 49.09375 L 52.75 33.375 A 1.0237507 1.0237507 0 0 0 52.34375 32.25 C 49.767825 30.521532 46.794651 28.904438 42.59375 28.96875 z M 42.625 30 C 46.565755 29.939671 49.258857 31.401202 51.78125 33.09375 L 47.1875 48.8125 C 44.758 47.188682 42.151766 45.68344 38.4375 45.65625 C 35.987995 45.63714 33.047643 46.326521 29.34375 47.84375 L 33.96875 32.0625 C 37.462406 30.629072 40.260547 30.03619 42.625 30 z M 54.0625 33.71875 A 1.0237507 1.0237507 0 0 0 53.21875 34.46875 L 48.625 50.28125 A 1.0237507 1.0237507 0 0 0 49.03125 51.40625 C 51.094645 52.794253 53.481318 54.13361 56.53125 54.5625 C 59.581182 54.99139 63.224519 54.505152 67.8125 52.46875 A 1.0237507 1.0237507 0 0 0 68.375 51.8125 L 72.96875 36.09375 A 1.0237507 1.0237507 0 0 0 71.625 34.875 C 67.089935 36.734291 63.820899 37.093252 61.25 36.71875 C 58.679101 36.344248 56.724408 35.225849 54.75 33.90625 A 1.0237507 1.0237507 0 0 0 54.0625 33.71875 z M 54.1875 34.75 C 58.215179 37.441907 62.69618 39.62689 72 35.8125 L 67.40625 51.53125 C 58.48623 55.490453 53.618465 53.269842 49.59375 50.5625 L 54.1875 34.75 z M 37.21875 47.625 C 34.778719 47.683893 31.944731 48.357289 28.53125 49.71875 C 28.500742 49.730918 28.468101 49.706462 28.4375 49.71875 A 1.0237507 1.0237507 0 0 0 27.5625 50.46875 L 23.03125 66.15625 A 1.0237507 1.0237507 0 0 0 24.375 67.375 C 28.919564 65.510858 32.169452 65.180579 34.71875 65.5625 C 37.268048 65.944421 39.201992 67.050432 41.1875 68.375 A 1.0237507 1.0237507 0 0 0 42.71875 67.8125 L 47.375 51.9375 A 1.0237507 1.0237507 0 0 0 46.96875 50.8125 C 44.38824 49.074287 41.409988 47.523841 37.21875 47.625 z M 37.25 48.65625 C 41.18739 48.561218 43.890803 49.961863 46.40625 51.65625 L 41.75 67.53125 C 37.710465 64.836404 33.322343 62.613553 24 66.4375 L 28.53125 50.75 L 28.59375 50.75 C 32.075736 49.327047 34.887566 48.71327 37.25 48.65625 z M 48.71875 52.1875 A 1.0237507 1.0237507 0 0 0 47.875 52.9375 L 43.3125 68.59375 A 1.0237507 1.0237507 0 0 0 43.71875 69.71875 C 45.774158 71.101463 48.036615 72.439181 51.03125 72.875 C 54.025885 73.310819 57.665697 72.833027 62.4375 70.875 A 1.0237507 1.0237507 0 0 0 63.03125 70.21875 L 67.46875 54.9375 A 1.0237507 1.0237507 0 0 0 66.15625 53.6875 C 61.515192 55.26177 58.300484 55.549266 55.78125 55.15625 C 53.262016 54.763234 51.385804 53.696206 49.40625 52.375 A 1.0237507 1.0237507 0 0 0 48.71875 52.1875 z M 48.84375 53.21875 C 52.88032 55.912862 57.01243 57.874481 66.5 54.65625 L 62.0625 69.9375 C 52.75053 73.758506 48.313375 71.587489 44.28125 68.875 L 48.84375 53.21875 z "
       id="path5224" />
    <path
       style="opacity:0.9;fill:url(#linearGradient5172);fill-opacity:1"
       d="m 42.625,30 c -2.364453,0.03619 -5.162594,0.629072 -8.65625,2.0625 l -4.625,15.78125 c 3.703893,-1.517229 6.644245,-2.20661 9.09375,-2.1875 3.714266,0.02719 6.3205,1.532432 8.75,3.15625 L 51.78125,33.09375 C 49.258857,31.401202 46.565755,29.939671 42.625,30 z m 11.5625,4.75 -4.59375,15.8125 c 4.024715,2.707342 8.89248,4.927953 17.8125,0.96875 L 72,35.8125 C 62.69618,39.62689 58.215179,37.441907 54.1875,34.75 z M 37.25,48.65625 c -2.362434,0.05702 -5.174264,0.670797 -8.65625,2.09375 l -0.0625,0 L 24,66.4375 c 9.322343,-3.823947 13.710465,-1.601096 17.75,1.09375 l 4.65625,-15.875 c -2.515447,-1.694387 -5.21886,-3.095032 -9.15625,-3 z m 11.59375,4.5625 -4.5625,15.65625 c 4.032125,2.712489 8.46928,4.883506 17.78125,1.0625 L 66.5,54.65625 c -9.48757,3.218231 -13.61968,1.256612 -17.65625,-1.4375 z"
       id="path5142"
       inkscape:connector-curvature="0" />
    <path
       style="opacity:0.25;fill:url(#linearGradient5206);fill-opacity:1"
       d="M 42.625 30 C 40.260547 30.03619 37.462406 30.629072 33.96875 32.0625 L 29.34375 47.84375 C 33.047643 46.326521 35.987995 45.63714 38.4375 45.65625 C 42.151766 45.68344 44.758 47.188682 47.1875 48.8125 L 51.78125 33.09375 C 49.258857 31.401202 46.565755 29.939671 42.625 30 z M 42.65625 31.96875 C 45.497524 31.925253 47.472778 32.834628 49.4375 34.03125 L 45.96875 45.875 C 43.884178 44.713694 41.524358 43.710097 38.4375 43.6875 C 36.595399 43.673129 34.535539 44.118797 32.3125 44.78125 L 35.59375 33.625 C 38.458829 32.541036 40.800975 31.997147 42.65625 31.96875 z M 54.1875 34.75 L 49.59375 50.5625 C 53.618465 53.269842 58.48623 55.490453 67.40625 51.53125 L 72 35.8125 C 62.69618 39.62689 58.215179 37.441907 54.1875 34.75 z M 55.40625 37.71875 C 56.98435 38.58423 58.715073 39.377417 60.84375 39.6875 C 63.15116 40.023619 65.945487 39.616581 69.0625 38.75 L 65.78125 49.96875 C 62.037228 51.495761 59.178791 51.908926 56.9375 51.59375 C 55.032937 51.325925 53.460489 50.539099 51.9375 49.625 L 55.40625 37.71875 z M 37.25 48.65625 C 34.887566 48.71327 32.075736 49.327047 28.59375 50.75 L 28.53125 50.75 L 24 66.4375 C 33.322343 62.613553 37.710465 64.836404 41.75 67.53125 L 46.40625 51.65625 C 43.890803 49.961863 41.18739 48.561218 37.25 48.65625 z M 37.3125 50.625 C 40.163053 50.5562 42.112731 51.447507 44.0625 52.625 L 40.5625 64.53125 C 38.989051 63.658124 37.283607 62.912458 35.15625 62.59375 C 32.850794 62.24836 30.037667 62.656246 26.90625 63.53125 L 30.15625 52.34375 C 33.053982 51.242516 35.44183 50.670151 37.3125 50.625 z M 48.84375 53.21875 L 44.28125 68.875 C 48.313375 71.587489 52.75053 73.758506 62.0625 69.9375 L 66.5 54.65625 C 57.01243 57.874481 52.88032 55.912862 48.84375 53.21875 z M 50.03125 56.1875 C 51.58148 57.038993 53.236978 57.801206 55.3125 58.125 C 57.61055 58.48351 60.447449 58.132309 63.65625 57.375 L 60.4375 68.34375 C 56.537219 69.81513 53.645286 70.223008 51.46875 69.90625 C 49.620529 69.637272 48.122653 68.880421 46.625 67.96875 L 50.03125 56.1875 z "
       id="path5196" />
    <path
       style="opacity:1;fill:url(#linearGradient5180);fill-opacity:1"
       d="M 42.625 30 C 40.260547 30.03619 37.462406 30.629072 33.96875 32.0625 L 29.34375 47.84375 C 29.46431 47.794365 29.568549 47.766385 29.6875 47.71875 L 33.96875 33.0625 C 37.462406 31.629072 40.260547 31.03619 42.625 31 C 46.439801 30.941599 49.077849 32.314621 51.53125 33.9375 L 51.78125 33.09375 C 49.258857 31.401202 46.565755 29.939671 42.625 30 z M 54.1875 34.75 L 49.59375 50.5625 C 49.674425 50.616768 49.762372 50.664919 49.84375 50.71875 L 54.1875 35.75 C 58.164338 38.407927 62.589402 40.555059 71.65625 36.9375 L 72 35.8125 C 62.69618 39.62689 58.215179 37.441907 54.1875 34.75 z M 37.25 48.65625 C 34.887566 48.71327 32.075736 49.327047 28.59375 50.75 L 28.53125 50.75 L 24 66.4375 C 24.108302 66.393075 24.205522 66.355301 24.3125 66.3125 L 28.53125 51.75 L 28.59375 51.75 C 32.075736 50.327047 34.887566 49.71327 37.25 49.65625 C 41.061544 49.564255 43.708535 50.879134 46.15625 52.5 L 46.40625 51.65625 C 43.890803 49.961863 41.18739 48.561218 37.25 48.65625 z M 48.84375 53.21875 L 44.28125 68.875 C 44.363254 68.930166 44.448874 68.976578 44.53125 69.03125 L 48.84375 54.21875 C 52.834568 56.882326 56.926825 58.816228 66.1875 55.75 L 66.5 54.65625 C 57.01243 57.874481 52.88032 55.912862 48.84375 53.21875 z "
       id="path5174" />
    <path
       style="opacity:0.5;fill:url(#linearGradient5193);fill-opacity:1"
       d="M 42.625 30 C 40.260547 30.03619 37.462406 30.629072 33.96875 32.0625 L 29.34375 47.84375 C 33.047643 46.326521 35.987995 45.63714 38.4375 45.65625 C 42.151766 45.68344 44.758 47.188682 47.1875 48.8125 L 51.78125 33.09375 C 49.258857 31.401202 46.565755 29.939671 42.625 30 z M 42.65625 31.0625 C 45.996657 31.011362 48.254733 32.150884 50.5 33.59375 L 46.53125 47.25 C 44.321137 45.881524 41.826599 44.61856 38.4375 44.59375 C 36.295 44.577035 33.775338 45.188718 30.9375 46.1875 L 34.84375 32.875 C 38.003195 31.630641 40.568903 31.094449 42.65625 31.0625 z M 54.1875 34.75 L 49.59375 50.5625 C 53.618465 53.269842 58.48623 55.490453 67.40625 51.53125 L 72 35.8125 C 62.69618 39.62689 58.215179 37.441907 54.1875 34.75 z M 54.84375 36.34375 C 56.600514 37.420842 58.52377 38.425091 60.96875 38.78125 C 63.507341 39.151045 66.66675 38.641428 70.40625 37.375 L 66.53125 50.6875 C 62.447835 52.424173 59.325569 52.853395 56.8125 52.5 C 54.48028 52.172037 52.616096 51.197206 50.84375 50.0625 L 54.84375 36.34375 z M 37.25 48.65625 C 34.887566 48.71327 32.075736 49.327047 28.59375 50.75 L 28.53125 50.75 L 24 66.4375 C 33.322343 62.613553 37.710465 64.836404 41.75 67.53125 L 46.40625 51.65625 C 43.890803 49.961863 41.18739 48.561218 37.25 48.65625 z M 37.28125 49.71875 C 40.623399 49.638085 42.893956 50.727491 45.125 52.15625 L 41.09375 65.9375 C 39.34267 64.858448 37.431042 63.864204 35 63.5 C 32.469146 63.120843 29.317476 63.598597 25.5625 64.875 L 29.40625 51.59375 C 32.593293 50.334936 35.178968 49.769491 37.28125 49.71875 z M 48.84375 53.21875 L 44.28125 68.875 C 48.313375 71.587489 52.75053 73.758506 62.0625 69.9375 L 66.5 54.65625 C 57.01243 57.874481 52.88032 55.912862 48.84375 53.21875 z M 49.5 54.8125 C 51.232277 55.872692 53.090941 56.847797 55.46875 57.21875 C 57.974069 57.609595 61.133099 57.215084 64.96875 56.125 L 61.1875 69.09375 C 56.928263 70.769345 53.795131 71.169257 51.34375 70.8125 C 49.067447 70.481222 47.293814 69.513004 45.53125 68.375 L 49.5 54.8125 z "
       id="path5183" />
    <path
       style="opacity:0.2;fill:#ffffff;fill-opacity:1"
       d="M 51.53125 33.9375 L 47.1875 48.8125 C 44.758 47.188682 42.151766 45.68344 38.4375 45.65625 C 36.067725 45.637762 33.223025 46.302922 29.6875 47.71875 L 29.34375 48.84375 C 33.047643 47.326521 35.987995 46.63714 38.4375 46.65625 C 42.151766 46.68344 44.758 48.188682 47.1875 49.8125 L 51.78125 34.09375 C 51.70063 34.039653 51.612254 33.991083 51.53125 33.9375 z M 72 36.8125 C 71.882559 36.860649 71.772163 36.891252 71.65625 36.9375 L 67.40625 51.53125 C 58.66503 55.411092 53.822174 53.350461 49.84375 50.71875 L 49.59375 51.5625 C 53.618465 54.269842 58.48623 56.490453 67.40625 52.53125 L 72 36.8125 z M 46.15625 52.5 L 41.75 67.53125 C 37.757394 64.867711 33.413837 62.671099 24.3125 66.3125 L 24 67.4375 C 33.322343 63.613553 37.710465 65.836404 41.75 68.53125 L 46.40625 52.65625 C 46.325852 52.602094 46.237066 52.553516 46.15625 52.5 z M 66.5 55.65625 C 66.392463 55.692727 66.293668 55.714847 66.1875 55.75 L 62.0625 69.9375 C 52.939913 73.680796 48.499322 71.664788 44.53125 69.03125 L 44.28125 69.875 C 48.313375 72.587489 52.75053 74.758506 62.0625 70.9375 L 66.5 55.65625 z "
       id="path5209" />
  </g>
</svg>
