<svg xmlns:rdf="http://www.w3.org/1999/02/22-rdf-syntax-ns#" xmlns="http://www.w3.org/2000/svg" height="16" width="16" version="1.0" xmlns:cc="http://creativecommons.org/ns#" xmlns:dc="http://purl.org/dc/elements/1.1/">
<defs>
<linearGradient id="bbbbbb" y2="16" gradientUnits="userSpaceOnUse" x2="3" y1="2" x1="3">
<stop stop-color="#78b351" offset="0"/>
<stop stop-color="#3f5f29" offset="1"/>
</linearGradient>
<linearGradient id="aaaaaa" y2="2" gradientUnits="userSpaceOnUse" x2="6" y1="15" x1="6">
<stop stop-color="#76b749" offset="0"/>
<stop stop-color="#a6d08a" offset="1"/>
</linearGradient>
</defs>
<g>
<rect rx="2" ry="2" height="14.5" width="16" y="1.5" x="0" fill="url(#bbbbbb)"/>
<path d="m2.05 0c-0.5817 0-1.05 0.4683-1.05 1.05v2.5277c0 0.5817 0.4683 1.05 1.05 1.05h11.876c0.5817 0 1.05-0.4683 1.05-1.05v-1.4592c0-0.5817-0.4683-1.05-1.05-1.05h-6.4644l-0.186-0.0185c-0.5788-0.05783-0.4683-1.05-1.0499-1.05h-4.1757z" fill="#5b8a3c"/>
<path d="m2.0382 1.0277c-0.01345 0 0-0.01913 0 0.03125v4.5313h11.875c0.05038 0 0.03125 0.01345 0.03125 0v-3.4688c0-0.01345-0.0178-0.03125-0.03125-0.03125h-6.625c-0.03123 0.0014-0.06252 0.0014-0.09375 0-0.4413-0.0441-0.8373-0.3498-1.031-0.5937-0.1607-0.2023-0.2252-0.3447-0.2813-0.4688h-3.8438z" fill="#80bc57"/>
<rect rx="1" ry="1" height="13" width="14" y="2" x="1" fill="url(#aaaaaa)"/>
<path opacity=".2" d="m2 2c-0.554 0-1 0.446-1 1v1c0-0.554 0.446-1 1-1h12c0.554 0 1 0.446 1 1v-1c0-0.554-0.446-1-1-1h-12z" fill="#fff"/>
</g>

<g>
<path opacity=".15" d="m10.438 3.3125c-0.5714 0-1.0287 0.3046-1.3755 0.7187-0.1543-0.0206-0.2911-0.0312-0.4687-0.0312-0.7031 0.0001-1.3961 0.1549-2.0313 0.4688-0.2145 0.1064-0.1831 0.1837-0.25 0.2812-0.039 0.0035-0.077 0.0203-0.125 0.0312-0.0233 0.0054-0.0373-0.0077-0.0625 0-0.1026 0.0314-0.3428 0.1868-0.3438 0.1876-0.5919 0.4559-0.9178 1.1197-1.2187 1.7812-0.0479-0.0038-0.0766-0.0625-0.125-0.0625-1.0052 0-1.875 0.8702-1.875 1.875s0.8278 1.9065 1.875 1.9065c0.0605 0 0.0971-0.057 0.1563-0.063 0.2938 0.612 0.5985 1.231 1.125 1.656 0.023 0.027 0.0312 0.035 0.0624 0.063 0.0313 0.028 0.0219 0.034 0.0626 0.063 0.1085 0.075 0.2423 0.066 0.375 0.093 0.0701 0.078 0.1325 0.214 0.1874 0.25 0.0906 0.06 0.1104 0.077 0.1563 0.094 0.0176 0.006 0.0498 0.027 0.0625 0.031 0.6232 0.3 1.2902 0.438 1.9688 0.438 0.131 0 0.2514-0.019 0.375-0.032 0.3401 0.528 0.8281 0.938 1.5002 0.938 1.05 0 1.906-0.859 1.906-1.906 0-0.282-0.198-0.481-0.313-0.719 0.563-0.688 0.974-1.484 1.063-2.375 0.007-0.0597-0.095-0.2822-0.125-0.4375 0.03-0.1551 0.132-0.3783 0.125-0.4375-0.085-0.8765-0.46-1.702-1.031-2.4062 0.063-0.1864 0.218-0.3259 0.218-0.5313 0-1.0209-0.853-1.875-1.874-1.875zm0 1c0.485 0 0.874 0.3896 0.874 0.875s-0.389 0.875-0.874 0.875c-0.4863 0-0.8755-0.3896-0.8755-0.875s0.3892-0.875 0.8755-0.875zm-1.8442 0.6875c0.1974 0 0.3819 0.0258 0.5937 0.0625 0.0333 0.0058 0.0625 0.029 0.0625 0.0625 0 0.0011 0.0001 0.0309 0 0.0312 0.0001 0.6733 0.5726 1.2188 1.25 1.2188 0.232 0 0.454-0.0569 0.656-0.1875 0.029-0.0185 0.071-0.0253 0.094 0 0.502 0.558 0.803 1.2886 0.875 2.0313 0.002 0.0195 0.013 0.048 0 0.0624-0.013 0.0146-0.043 0-0.063 0h-1.343c-0.034 0-0.057-0.0288-0.063-0.0624-0.159-1.001-1.0442-1.75-2.0622-1.75-0.2768 0-0.5486 0.0446-0.8126 0.1562-0.0312 0.0132-0.0756 0.0287-0.0937 0l-0.7187-1.1562c-0.0104-0.0166-0.0054-0.0125 0-0.0313 0.0052-0.0188 0.0136-0.0538 0.0312-0.0625 0.4943-0.2443 1.0515-0.3749 1.5938-0.375zm-2.1876 0.75c0.0077-0.0059 0.022 0.0023 0.0313 0s0.0217-0.0017 0.0313 0c0.0191 0.0034 0.0208 0.0148 0.0312 0.0312l0.7188 1.125c0.0182 0.029 0.0256 0.0714 0 0.0938-0.4554 0.3967-0.7188 0.9645-0.7188 1.5625 0 0.5935 0.2368 1.166 0.6875 1.5625 0.0257 0.023 0.0496 0.034 0.0313 0.063l-0.7188 1.124c-0.0105 0.017-0.0433 0.06-0.0625 0.063-0.0193 0.003-0.0158-0.019-0.0313-0.031-0.5742-0.447-1.0081-1.06-1.2187-1.7502-0.0083-0.0273-0.0223-0.0761 0-0.0938 0.2922-0.2314 0.4687-0.5721 0.4687-0.9375s-0.1765-0.7373-0.4687-0.9687c-0.0224-0.0178-0.0083-0.0353 0-0.0626 0.2123-0.6962 0.6374-1.3334 1.2187-1.7812zm2.1876 1.7188c0.5265 0 0.9813 0.3971 1.0624 0.9062 0.0103 0.0652 0.0714 0.1228 0.0938 0.1875-0.0224 0.0641-0.0832 0.1224-0.0938 0.1875-0.081 0.4975-0.5244 0.875-1.0624 0.875-0.18 0-0.3362-0.0191-0.4376-0.0625a1.0021 1.0021 0 0 0 0 -0.0313c-0.0313-0.0133-0.112 0.0095-0.1562 0-0.1097-0.1311-0.191-0.1868-0.1562-0.1562-0.2224-0.1956-0.3438-0.4855-0.3438-0.8125 0-0.3038 0.1325-0.6013 0.375-0.8125 0.0518-0.0453 0.0233-0.1042 0.0625-0.1562 0.0949-0.0228 0.1898-0.0192 0.2187-0.0313 0.1252-0.0529 0.2686-0.0937 0.4376-0.0937zm-4.1563 0.2187c0.4972 0 0.9063 0.3781 0.9063 0.875s-0.4091 0.9063-0.9063 0.9063-0.875-0.4094-0.875-0.9063 0.3778-0.875 0.875-0.875zm6.2815 1.1563h1.343c0.02-0.0001 0.05-0.0146 0.063 0 0.013 0.0145 0.002 0.043 0 0.0624-0.08 0.7937-0.439 1.5528-1 2.1248-0.021 0.022-0.035 0.014-0.063 0-0.178-0.093-0.369-0.125-0.562-0.125-0.621 0-1.1473 0.446-1.2188 1.063-0.0035 0.03-0.0324 0.057-0.0624 0.062-0.2144 0.038-0.4216 0.063-0.625 0.063-0.5485 0-1.0956-0.126-1.5938-0.375-0.0175-0.009-0.0573-0.013-0.0625-0.031-0.0052-0.019 0.0208-0.046 0.0313-0.063l0.7187-1.125c0.0184-0.028 0.0313-0.045 0.0625-0.031 0.2669 0.114 0.5637 0.156 0.8438 0.156 1.0152 0 1.9002-0.7253 2.0622-1.7188 0.006-0.0333 0.029-0.0624 0.063-0.0624zm-0.25 2.3752c0.497 0 0.906 0.38 0.906 0.875 0 0.494-0.409 0.906-0.906 0.906-0.4975 0-0.9065-0.412-0.9065-0.906 0-0.495 0.409-0.875 0.9065-0.875z" fill="#fff"/>
<path d="m10.444 4.3155c-0.48583 0-0.87922 0.39377-0.87922 0.87921 0 0.48543 0.39339 0.87921 0.87922 0.87921s0.87922-0.39377 0.87922-0.87921c0-0.48543-0.39339-0.87921-0.87922-0.87921zm-1.8564 0.6886c-0.54222 0.0000698-1.092 0.13692-1.5863 0.38119-0.017576 0.00872-0.028544 0.024191-0.033822 0.043038-0.00536 0.018846-0.00422 0.03874 0.00615 0.055338l0.71322 1.1282c0.018076 0.028689 0.054786 0.040819 0.086078 0.027665 0.264-0.1116 0.5379-0.166 0.8147-0.166 1.0181 0 1.9062 0.75438 2.0659 1.7553 0.0053 0.033614 0.03367 0.058412 0.06764 0.058412h1.3404c0.01954 0 0.03911-0.00701 0.05227-0.021523 0.01315-0.014487 0.02028-0.032713 0.01844-0.052262-0.07229-0.74268-0.3898-1.4618-0.89152-2.0197-0.02264-0.025312-0.06054-0.027714-0.08915-0.00922-0.20231 0.13065-0.43184 0.19982-0.66403 0.19982-0.67737 0-1.2265-0.5503-1.2266-1.2235 0.0000707-0.0003494 0-0.023467 0-0.024595 0-0.033543-0.025154-0.064939-0.058412-0.070705-0.21179-0.036707-0.41739-0.061483-0.61484-0.061483zm-2.152 0.7378c-0.00928 0.00226-0.020035 0.00635-0.027666 0.012295-0.58139 0.44778-1.0174 1.0775-1.2297 1.7738-0.0083 0.027213-0.0009177 0.05606 0.021518 0.073779 0.29217 0.23141 0.46728 0.58762 0.46728 0.95299 0 0.36536-0.17504 0.72157-0.46728 0.95299-0.022291 0.017659-0.029817 0.046501-0.021518 0.073774 0.2106 0.69044 0.64317 1.3178 1.2174 1.7646 0.015402 0.01203 0.032992 0.01875 0.052261 0.01537 0.019196-0.0033 0.035633-0.01743 0.046113-0.03381l0.71936-1.1251c0.018348-0.02876 0.013364-0.06658-0.012291-0.08915-0.45067-0.39652-0.71014-0.96506-0.71014-1.5586 0-0.59797 0.26091-1.1681 0.71629-1.5647 0.025669-0.022432 0.033585-0.060247 0.015373-0.08915l-0.7132-1.1287c-0.0104-0.0165-0.0269-0.0274-0.0461-0.0308-0.0096-0.00172-0.018387-0.00226-0.027666 0zm-1.9829 1.9306c-0.49721 0-0.90074 0.40387-0.90074 0.90072s0.40353 0.89765 0.90074 0.89765 0.90074-0.4008 0.90074-0.89765-0.40353-0.90072-0.90074-0.90072zm7.6087 1.162-1.3404 0.00304c-0.03382 0.0000713-0.06529 0.025072-0.07071 0.058412-0.1618 0.9935-1.0475 1.743-2.0628 1.743-0.28001 0-0.55696-0.05783-0.82389-0.17215-0.031218-0.01329-0.067722-0.0038-0.086079 0.02459l-0.71936 1.1282c-0.010482 0.01653-0.011355 0.03641-0.00615 0.05534 0.00522 0.01884 0.01631 0.03431 0.033814 0.04304 0.4982 0.24941 1.0532 0.38119 1.6017 0.38119 0.20343 0 0.41581-0.02037 0.63021-0.05841 0.030096-0.0053 0.051754-0.0281 0.055337-0.05841 0.071439-0.61703 0.59327-1.0821 1.2143-1.0821 0.19253 0 0.39068 0.0486 0.56873 0.14141 0.02707 0.01414 0.05848 0.0096 0.07993-0.01229 0.56149-0.57259 0.91644-1.3275 0.99604-2.1212 0.0019-0.019479-0.0052-0.037708-0.01843-0.052263-0.01321-0.014555-0.03272-0.021599-0.05227-0.02152zm-1.5832 2.3763c-0.49721 0-0.90074 0.40029-0.90074 0.89458s0.40353 0.89458 0.90074 0.89458 0.90074-0.40029 0.90074-0.89458-0.40353-0.89458-0.90074-0.89458z" fill="#58843C"/>
<path opacity=".2" d="m10.438 4.3125c-0.4863 0-0.8755 0.3896-0.8755 0.875 0 0.1867 0.0578 0.3584 0.1563 0.5 0.1575-0.2266 0.4202-0.375 0.7192-0.375 0.298 0 0.561 0.1484 0.718 0.375 0.099-0.1416 0.156-0.3133 0.156-0.5 0-0.4854-0.389-0.875-0.874-0.875zm-1.8442 0.6875c-0.5423 0.0001-1.0995 0.1307-1.5938 0.375-0.0176 0.0087-0.026 0.0437-0.0312 0.0625-0.0054 0.0188-0.0104 0.0147 0 0.0313l0.4687 0.75c0.377-0.1292 0.7657-0.2187 1.1563-0.2188 0.1974 0 0.3819 0.0258 0.5937 0.0625 0.0333 0.0058 0.0625 0.029 0.0625 0.0625 0 0.0011 0.0001 0.0309 0 0.0312 0 0.1572 0.0373 0.2996 0.0938 0.4376 0.0039 0.0097-0.0043 0.0216 0 0.0312 0.361 0.1435 0.6742 0.3794 0.9062 0.6875 0.086 0.0188 0.159 0.0625 0.25 0.0625 0.232 0 0.454-0.0569 0.656-0.1875 0.029-0.0185 0.071-0.0253 0.094 0 0.288 0.3206 0.506 0.6896 0.656 1.0937h0.156c0.02 0 0.05 0.0146 0.063 0 0.013-0.0144 0.002-0.0429 0-0.0624-0.072-0.7427-0.373-1.4733-0.875-2.0313-0.023-0.0253-0.065-0.0185-0.094 0-0.202 0.1306-0.424 0.1875-0.656 0.1875-0.6774 0-1.2499-0.5455-1.25-1.2188 0.0001-0.0003 0-0.0301 0-0.0312 0-0.0335-0.0292-0.0567-0.0625-0.0625-0.2118-0.0367-0.3963-0.0625-0.5937-0.0625zm-2.1876 0.75c-0.5813 0.4478-1.0064 1.085-1.2187 1.7812-0.0083 0.0273-0.0224 0.0448 0 0.0626 0.1075 0.0851 0.1768 0.1966 0.25 0.3124 0.2335-0.4435 0.5698-0.8489 0.9687-1.1562 0.0077-0.0059 0.022 0.0023 0.0313 0s0.0217-0.0017 0.0313 0c0.0191 0.0034 0.0208 0.0148 0.0312 0.0312l0.375 0.5938c0.0976-0.1392 0.2127-0.2608 0.3438-0.375 0.0256-0.0224 0.0182-0.0648 0-0.0938l-0.7188-1.125c-0.0104-0.0164-0.0121-0.0278-0.0312-0.0312-0.0096-0.0017-0.022-0.0023-0.0313 0s-0.0236-0.0059-0.0313 0zm-1.9687 1.9375c-0.4972 0-0.875 0.3781-0.875 0.875 0 0.1911 0.0592 0.3531 0.1563 0.5 0.1553-0.2259 0.4127-0.375 0.7187-0.375 0.3031 0 0.5539 0.1527 0.7187 0.375 0.1056-0.1482 0.1876-0.306 0.1876-0.5 0-0.4969-0.4091-0.875-0.9063-0.875zm7.6245 1.1563c0.013 0.0611 0.023 0.1258 0.032 0.1874 0.006-0.0418 0.027-0.0828 0.031-0.125 0.002-0.0194 0.013-0.0479 0-0.0624-0.013-0.0146-0.043-0.0001-0.063 0zm-6.5308 0.2187c-0.0808 0.1704-0.1896 0.3155-0.3437 0.4375-0.0223 0.0177-0.0083 0.0665 0 0.0938 0.0661 0.2166 0.1425 0.4262 0.25 0.6252 0.1307-0.193 0.2187-0.4207 0.2187-0.6565 0-0.1727-0.0525-0.3399-0.125-0.5zm5.0938 0c-0.227 0.9085-1.0726 1.5625-2.0312 1.5625-0.2801 0-0.5769-0.042-0.8438-0.156-0.0312-0.014-0.0441 0.003-0.0625 0.031l-0.7187 1.125c-0.0105 0.017-0.0366 0.044-0.0313 0.063 0.0052 0.018 0.045 0.022 0.0625 0.031 0.1394 0.07 0.2915 0.106 0.4375 0.156l0.25-0.375c0.0184-0.028 0.0313-0.045 0.0625-0.031 0.2669 0.114 0.5637 0.156 0.8438 0.156 0.3337 0 0.6528-0.078 0.9374-0.219 0.1379-0.182 0.3136-0.325 0.5308-0.406 0.299-0.294 0.523-0.659 0.594-1.0938 0.006-0.0333 0.029-0.0624 0.063-0.0624h1.156c0.072-0.1815 0.115-0.3718 0.156-0.5626h-1.312c-0.034 0-0.057-0.0288-0.063-0.0624-0.008-0.0516-0.019-0.1062-0.031-0.1563zm-4.0625 0.0625c-0.0318 0.1435-0.0625 0.288-0.0625 0.4375 0 0.422 0.1126 0.8425 0.3438 1.1875l0.375-0.562c0.0183-0.029-0.0056-0.04-0.0313-0.063-0.3049-0.2683-0.523-0.6186-0.625-1zm3.9065 2.094c-0.4975 0-0.9065 0.38-0.9065 0.875 0 0.193 0.0819 0.351 0.1875 0.5 0.1649-0.223 0.416-0.375 0.719-0.375s0.554 0.152 0.719 0.375c0.105-0.149 0.187-0.307 0.187-0.5 0-0.495-0.409-0.875-0.906-0.875z"/>
<path opacity=".15" d="m9.7188 5.6875c-0.0642 0.092-0.0998 0.1994-0.125 0.3125 0.2238 0.2391 0.5522 0.375 0.9062 0.375 0.232 0 0.454-0.0569 0.656-0.1875 0.029-0.0185 0.071-0.0253 0.094 0 0.02 0.022 0.043 0.04 0.062 0.0625 0.002-0.021 0-0.0411 0-0.0625 0-0.1867-0.056-0.3576-0.156-0.5-0.159 0.2278-0.42 0.375-0.718 0.375-0.299 0-0.5604-0.1472-0.7192-0.375zm-2.2813 0.5313c-0.1456 0.0508-0.2992 0.0879-0.4375 0.1562-0.0176 0.0087-0.026 0.0437-0.0312 0.0625-0.0054 0.0188-0.0104 0.0147 0 0.0313l0.25 0.4374 0.4687 0.7188c0.0181 0.0287 0.0625 0.0132 0.0937 0 0.264-0.1116 0.5358-0.1562 0.8126-0.1562 0.9612 0 1.8052 0.676 2.0312 1.5937 0.013-0.0538 0.022-0.1008 0.031-0.1563 0.006-0.0333 0.029-0.0624 0.063-0.0624h1.343c-0.039-0.1892-0.086-0.382-0.156-0.5626h-1.187c-0.034 0-0.057-0.0288-0.063-0.0624-0.049-0.3099-0.172-0.5963-0.344-0.8438-0.4258-0.0652-0.8053-0.3661-0.9682-0.75-0.0041-0.0097 0.0038-0.0215 0-0.0312-0.2362-0.0927-0.4859-0.125-0.75-0.125-0.2768 0-0.5486 0.0446-0.8126 0.1562-0.0312 0.0132-0.0756 0.0287-0.0937 0l-0.25-0.4062zm-0.5625 1.1562c-0.2392 0.3443-0.375 0.763-0.375 1.1875 0 0.1721 0.0205 0.3357 0.0625 0.5 0.1029-0.4062 0.3317-0.7798 0.6563-1.0625 0.0256-0.0224 0.0182-0.0648 0-0.0938l-0.3438-0.5312zm-1.4062 0.5312c-0.0635 0.1171-0.1378 0.2206-0.1876 0.3438 0.0383 0.0999 0.0626 0.1992 0.0626 0.3125 0 0.052-0.0228 0.1067-0.0313 0.1563 0.092 0.0945 0.1614 0.1956 0.2187 0.3124 0.0657-0.1501 0.125-0.3043 0.125-0.4687 0-0.2333-0.0598-0.4605-0.1874-0.6563zm-1.75 1.1563c-0.1018 0.1459-0.1563 0.3089-0.1563 0.5 0 0.4965 0.3778 0.9065 0.875 0.9065 0.3931 0 0.7209-0.244 0.8437-0.594-0.0375-0.093-0.0645-0.1855-0.0937-0.2812-0.0083-0.0273-0.0223-0.0761 0-0.0938 0.0395-0.0313 0.0899-0.0582 0.125-0.0938-0.0238-0.1276-0.0534-0.241-0.125-0.3437-0.1609 0.2449-0.4345 0.4063-0.75 0.4063s-0.5579-0.1614-0.7187-0.4063zm8.3752 0c-0.011 0.0724-0.016 0.1473-0.032 0.2187 0.02 0 0.05 0.0146 0.063 0 0.013-0.0144 0.002-0.0429 0-0.0624-0.005-0.0519-0.024-0.1047-0.031-0.1563zm-0.188 0.7813c-0.173 0.4422-0.445 0.8452-0.781 1.1872-0.021 0.022-0.035 0.014-0.063 0-0.178-0.093-0.369-0.125-0.562-0.125-0.135 0-0.284 0.022-0.406 0.063-0.1665 0.174-0.3468 0.328-0.5628 0.437-0.1276 0.169-0.224 0.339-0.25 0.563-0.0035 0.03-0.0324 0.057-0.0624 0.062-0.2144 0.038-0.4216 0.063-0.625 0.063-0.3951 0-0.7782-0.088-1.1563-0.219l-0.4687 0.75c-0.0105 0.017-0.0365 0.044-0.0313 0.063 0.0052 0.018 0.045 0.022 0.0625 0.031 0.4982 0.249 1.0453 0.375 1.5938 0.375 0.2034 0 0.4106-0.025 0.625-0.063 0.03-0.005 0.0589-0.032 0.0624-0.062 0.0313-0.27 0.1699-0.471 0.3438-0.657-0.0165-0.067-0.0625-0.146-0.0625-0.218 0-0.495 0.409-0.875 0.9065-0.875 0.395 0 0.722 0.242 0.843 0.593 0.454-0.541 0.743-1.204 0.813-1.9058 0.002-0.0194 0.013-0.0479 0-0.0624-0.013-0.0146-0.043-0.0001-0.063 0h-0.156zm-6.4372 0.3752c-0.0723 0.111-0.1756 0.197-0.2813 0.281-0.0223 0.018-0.0083 0.066 0 0.094 0.2106 0.69 0.6445 1.303 1.2187 1.75 0.0155 0.012 0.012 0.034 0.0313 0.031 0.0192-0.003 0.052-0.046 0.0625-0.063l0.7188-1.124c0.0183-0.029-0.0056-0.04-0.0313-0.063-0.1308-0.115-0.2156-0.266-0.3125-0.406l-0.375 0.593c-0.0105 0.017-0.0433 0.06-0.0625 0.063-0.0193 0.003-0.0158-0.019-0.0313-0.031-0.3898-0.304-0.7033-0.692-0.9374-1.125zm4.2812 2.406c-0.0926 0.141-0.1875 0.288-0.1875 0.469 0 0.494 0.409 0.906 0.9065 0.906 0.497 0 0.906-0.412 0.906-0.906 0-0.181-0.064-0.328-0.156-0.469-0.163 0.232-0.444 0.375-0.75 0.375s-0.5562-0.143-0.719-0.375z" fill="#fff"/>
</g></svg>