<svg xmlns:rdf="http://www.w3.org/1999/02/22-rdf-syntax-ns#" xmlns="http://www.w3.org/2000/svg" height="16" width="16" version="1.0" xmlns:cc="http://creativecommons.org/ns#" xmlns:dc="http://purl.org/dc/elements/1.1/">
<defs>
<linearGradient id="bbbbbb" y2="16" gradientUnits="userSpaceOnUse" x2="3" y1="2" x1="3">
<stop stop-color="#78b351" offset="0"/>
<stop stop-color="#3f5f29" offset="1"/>
</linearGradient>
<linearGradient id="aaaaaa" y2="2" gradientUnits="userSpaceOnUse" x2="6" y1="15" x1="6">
<stop stop-color="#76b749" offset="0"/>
<stop stop-color="#a6d08a" offset="1"/>
</linearGradient>
</defs>
<g>
<rect rx="2" ry="2" height="14.5" width="16" y="1.5" x="0" fill="url(#bbbbbb)"/>
<path d="m2.05 0c-0.5817 0-1.05 0.4683-1.05 1.05v2.5277c0 0.5817 0.4683 1.05 1.05 1.05h11.876c0.5817 0 1.05-0.4683 1.05-1.05v-1.4592c0-0.5817-0.4683-1.05-1.05-1.05h-6.4644l-0.186-0.0185c-0.5788-0.05783-0.4683-1.05-1.0499-1.05h-4.1757z" fill="#5b8a3c"/>
<path d="m2.0382 1.0277c-0.01345 0 0-0.01913 0 0.03125v4.5313h11.875c0.05038 0 0.03125 0.01345 0.03125 0v-3.4688c0-0.01345-0.0178-0.03125-0.03125-0.03125h-6.625c-0.03123 0.0014-0.06252 0.0014-0.09375 0-0.4413-0.0441-0.8373-0.3498-1.031-0.5937-0.1607-0.2023-0.2252-0.3447-0.2813-0.4688h-3.8438z" fill="#80bc57"/>
<rect rx="1" ry="1" height="13" width="14" y="2" x="1" fill="url(#aaaaaa)"/>
<path opacity=".2" d="m2 2c-0.554 0-1 0.446-1 1v1c0-0.554 0.446-1 1-1h12c0.554 0 1 0.446 1 1v-1c0-0.554-0.446-1-1-1h-12z" fill="#fff"/>
</g>

<g>
<path opacity=".15" d="m7.3125 3.0312c-0.7177 0-1.1818 0.5943-1.25 1.2188-0.5083-0.4282-1.3101-0.4399-1.7813 0.0312l-1 1c-0.4711 0.4712-0.4594 1.2731-0.0312 1.7813-0.6245 0.0682-1.2188 0.5323-1.2188 1.25v1.375c0 0.71774 0.59427 1.1818 1.2188 1.25-0.42818 0.50825-0.4399 1.3101 0.03125 1.7812l1 1c0.27939 0.27936 0.66456 0.3773 0.9375 0.375 0.2193-0.0019 0.5705-0.12165 0.84375-0.34375 0.06821 0.62448 0.53225 1.2188 1.25 1.2188h1.375c0.71774 0 1.1818-0.59426 1.25-1.2188 0.50828 0.42834 1.3102 0.43982 1.7812-0.03125l1-1c0.47101-0.47112 0.45952-1.273 0.03125-1.7812 0.62449-0.06821 1.2188-0.53225 1.2188-1.25v-1.375c0-0.71775-0.59427-1.1818-1.2188-1.25 0.42834-0.50828 0.43983-1.3102-0.03125-1.7812l-1-1c-0.471-0.4715-1.273-0.4598-1.7815-0.0316-0.0682-0.6245-0.5323-1.2188-1.25-1.2188h-1.375zm0 0.96875h1.375c0.19677 0 0.34375 0.17486 0.34375 0.375v0.6875c0.35184 0.093745 0.6924 0.22735 1 0.40625l0.5-0.5c0.14152-0.14152 0.36086-0.13916 0.5 0l1 1c0.13914 0.13914 0.14155 0.35848 0 0.5l-0.5 0.5c0.1789 0.3076 0.3125 0.64815 0.40625 1h0.6875c0.20014 0 0.375 0.14698 0.375 0.34375v1.375c0 0.19677-0.17486 0.34375-0.375 0.34375h-0.6875c-0.09374 0.35184-0.22735 0.6924-0.40625 1l0.5 0.5c0.14152 0.14152 0.13911 0.36086 0 0.5l-1 1c-0.13914 0.13914-0.35848 0.14155-0.5 0l-0.5-0.5c-0.3076 0.1789-0.64816 0.3125-1 0.40625v0.6875c0.0012 0.201-0.1457 0.376-0.3425 0.376h-1.375c-0.1968 0-0.3437-0.175-0.3437-0.375v-0.6875c-0.35184-0.09375-0.6924-0.22735-1-0.40625l-0.5 0.5c-0.070758 0.07076-0.15843 0.09297-0.25 0.09375-0.09157 0.000773-0.18043-0.02419-0.25-0.09375l-1-1c-0.13914-0.13914-0.1415-0.35848 0-0.5l0.5-0.5c-0.1789-0.3076-0.3125-0.64816-0.40625-1h-0.6875c-0.2002-0.001-0.3751-0.1477-0.3751-0.3445v-1.375c0-0.1968 0.1749-0.3437 0.375-0.3437h0.6875c0.093747-0.35185 0.22735-0.6924 0.40625-1l-0.5-0.5c-0.14152-0.14152-0.13916-0.36086 0-0.5l1-1c0.13914-0.13914 0.35848-0.1415 0.5 0l0.5 0.5c0.3076-0.1789 0.64816-0.31251 1-0.40625v-0.6875c0-0.2002 0.1469-0.3751 0.3437-0.3751zm0.6875 3.5c-0.8344 0-1.5 0.6656-1.5 1.5s0.6656 1.5 1.5 1.5 1.5-0.6656 1.5-1.5-0.6656-1.5-1.5-1.5zm0 0.9688c0.3191 0 0.5312 0.2121 0.5312 0.5312s-0.2121 0.5312-0.5312 0.5312-0.5312-0.2121-0.5312-0.5312 0.2121-0.5312 0.5312-0.5312z" display="block" fill="#fff"/>
<path d="m7.3096 14c-0.1968 0-0.3561-0.163-0.3561-0.363v-0.70494c-0.3519-0.094-0.688-0.236-0.9956-0.415l-0.50145 0.50145c-0.070758 0.07076-0.15552 0.10824-0.24709 0.10901-0.09157 0.000773-0.18479-0.03218-0.25436-0.10174l-0.9811-0.98c-0.1392-0.139-0.1343-0.36 0.0072-0.501l0.5015-0.502c-0.1789-0.307-0.3205-0.644-0.4143-0.995h-0.70494c-0.2002 0-0.3634-0.1598-0.3634-0.3566v-1.3808c0-0.1968 0.1632-0.3561 0.3634-0.3561h0.70494c0.0938-0.3518 0.2354-0.688 0.4143-0.9956l-0.5015-0.5015c-0.1415-0.1415-0.1464-0.3623-0.0072-0.5014l0.9811-0.9811c0.1391-0.1392 0.3599-0.1343 0.5014 0.0072l0.50145 0.50145c0.3077-0.1789 0.6438-0.3205 0.9957-0.4143v-0.70494c0-0.20014 0.15933-0.36337 0.3561-0.36337h1.3808c0.19677 0 0.3561 0.16323 0.3561 0.36337v0.70494c0.35184 0.093745 0.68803 0.23534 0.99564 0.41424l0.502-0.5014c0.14152-0.14152 0.36231-0.14641 0.50145-0.00725l0.9811 0.9811c0.13914 0.13914 0.13425 0.35993-0.0073 0.50145l-0.502 0.5015c0.1789 0.3076 0.3205 0.64379 0.41424 0.99564h0.70494c0.20014 0 0.36337 0.15933 0.36337 0.3561v1.3808c0 0.19677-0.16324 0.3561-0.36337 0.3561h-0.70494c-0.09374 0.35184-0.23534 0.68804-0.41424 0.99564l0.50145 0.50145c0.14152 0.14152 0.14641 0.36231 0.0073 0.50145l-0.9811 0.9811c-0.13914 0.13914-0.35994 0.13425-0.50145-0.0073l-0.501-0.501c-0.3075 0.179-0.6436 0.321-0.9955 0.415v0.70494c0 0.20014-0.15933 0.36337-0.3561 0.36337h-1.3808zm0.6904-3.488c0.83442 0 1.5116-0.67721 1.5116-1.5116 0-0.8348-0.6772-1.512-1.5116-1.512-0.83442 0-1.5116 0.67721-1.5116 1.5116 0 0.83442 0.67721 1.5116 1.5116 1.5116z" display="block" fill="#6A9E47"/>
<path opacity=".2" d="m7.3125 4c-0.1968 0-0.3437 0.1749-0.3437 0.375v0.6875c-0.35184 0.093745-0.6924 0.22735-1 0.40625l-0.5-0.5c-0.14152-0.1415-0.36086-0.13914-0.5 0l-1 1c-0.13916 0.13914-0.14152 0.35848 0 0.5l0.5 0.5c-0.1789 0.3076-0.3125 0.64815-0.40625 1h-0.6875c-0.2002 0-0.3751 0.1469-0.3751 0.3437v1.375c0 0.19677 0.17486 0.34375 0.375 0.34375h0.6875c0.093747 0.35184 0.22735 0.6924 0.40625 1l-0.5 0.5c-0.1415 0.14152-0.13914 0.36086 0 0.5l1 1c0.069569 0.06956 0.15843 0.09452 0.25 0.09375 0.091569-0.000776 0.17924-0.02299 0.25-0.09375l0.5-0.5c0.3076 0.1789 0.64816 0.3125 1 0.40625v0.6875c0 0.20014 0.14698 0.375 0.34375 0.375h1.375c0.19677 0 0.34375-0.17486 0.34375-0.375v-0.6875c0.35184-0.09374 0.6924-0.22735 1-0.40625l0.5 0.5c0.14152 0.14155 0.36086 0.13914 0.5 0l1-1c0.13911-0.13914 0.14152-0.35848 0-0.5l-0.5-0.5c0.1789-0.3076 0.31251-0.64816 0.40625-1h0.6875c0.201 0.001 0.376-0.1457 0.376-0.3425v-1.375c0-0.1968-0.175-0.3437-0.375-0.3437h-0.6875c-0.09375-0.35185-0.22735-0.6924-0.40625-1l0.5-0.5c0.14155-0.14152 0.13914-0.36086 0-0.5l-1-1c-0.13914-0.13916-0.35848-0.14152-0.5 0l-0.5 0.5c-0.3084-0.1789-0.6489-0.3126-1.0008-0.4063v-0.6875c0-0.2001-0.1469-0.375-0.3437-0.375h-1.375zm0.09375 0.4375h1.1875v0.625a0.44255 0.44255 0 0 0 0.3125 0.4375c0.3195 0.0851 0.6386 0.1881 0.9063 0.3438a0.44255 0.44255 0 0 0 0.53125 -0.0625l0.4375-0.4375 0.875 0.875-0.4375 0.4375a0.44255 0.44255 0 0 0 -0.063 0.5312c0.156 0.2677 0.259 0.5868 0.344 0.9063a0.44255 0.44255 0 0 0 0.4375 0.3125h0.625v1.1875h-0.625a0.44255 0.44255 0 0 0 -0.438 0.3124c-0.0851 0.31941-0.18807 0.63857-0.34375 0.90625a0.44255 0.44255 0 0 0 0.0625 0.53125l0.4375 0.4375-0.875 0.875-0.4375-0.4375a0.44255 0.44255 0 0 0 -0.5305 -0.062c-0.2677 0.156-0.5868 0.259-0.9063 0.344a0.44255 0.44255 0 0 0 -0.3125 0.4375v0.625h-1.1875v-0.625a0.44255 0.44255 0 0 0 -0.3124 -0.438c-0.3195-0.085-0.6386-0.188-0.9063-0.344a0.44255 0.44255 0 0 0 -0.53125 0.0625l-0.4375 0.4375-0.875-0.875 0.4375-0.4375a0.44255 0.44255 0 0 0 0.0626 -0.531c-0.1557-0.267-0.2587-0.586-0.3438-0.9058a0.44255 0.44255 0 0 0 -0.4375 -0.3124h-0.625v-1.1875h0.625a0.44255 0.44255 0 0 0 0.4375 -0.3125c0.0851-0.3195 0.1881-0.6386 0.3438-0.9063a0.44255 0.44255 0 0 0 -0.0626 -0.5313l-0.4375-0.4375 0.875-0.875 0.4375 0.4375a0.44255 0.44255 0 0 0 0.5313 0.0626c0.2677-0.1557 0.5868-0.2587 0.9063-0.3438a0.44255 0.44255 0 0 0 0.3125 -0.4375v-0.625zm0.5938 2.625c-1.0697 0-1.9375 0.8678-1.9375 1.9375 0 1.07 0.8678 1.938 1.9375 1.938s1.9375-0.868 1.9375-1.938c0-1.0697-0.8678-1.9375-1.9375-1.9375zm0 0.4375c0.8344 0 1.5 0.6656 1.5 1.5s-0.6656 1.5-1.5 1.5-1.5-0.6656-1.5-1.5 0.6656-1.5 1.5-1.5z" display="block"/>
<path opacity=".2" d="m7.3125 4c-0.1968 0-0.3437 0.1749-0.3437 0.375v0.6875c-0.35184 0.093745-0.6924 0.22735-1 0.40625l-0.5-0.5c-0.14152-0.1415-0.36086-0.13914-0.5 0l-1 1c-0.13916 0.13914-0.14152 0.35848 0 0.5l0.25 0.25 0.75-0.75c0.13914-0.13914 0.35848-0.1415 0.5 0l0.5 0.5c0.3076-0.1789 0.64816-0.3125 1-0.40625v-0.6875c0-0.2002 0.1469-0.3751 0.3437-0.3751h1.375c0.19677 0 0.34375 0.17486 0.34375 0.375v0.6875c0.35184 0.09375 0.6924 0.22735 1 0.40625l0.5-0.5c0.14152-0.14152 0.36086-0.13916 0.5 0l0.75 0.75 0.25-0.25c0.14155-0.14152 0.13914-0.36086 0-0.5l-1-1c-0.13914-0.13916-0.35848-0.14152-0.5 0l-0.5 0.5c-0.3074-0.1789-0.6479-0.3126-0.9998-0.4063v-0.6875c0-0.2001-0.1469-0.375-0.3437-0.375h-1.375zm-3.1563 3.6562c-0.0348 0.0989-0.0666 0.2108-0.0937 0.3126h-0.6875c-0.2001 0-0.375 0.1469-0.375 0.3437v1c0-0.1968 0.1749-0.3437 0.375-0.3437h0.6875c0.093747-0.35185 0.22735-0.6924 0.40625-1l-0.3125-0.3125zm7.6875 0-0.3125 0.3125c0.1789 0.3076 0.3125 0.64815 0.40625 1h0.6875c0.20014 0 0.375 0.14698 0.375 0.34375v-1c-0.001-0.1967-0.176-0.3436-0.376-0.3436h-0.6875c-0.028-0.1018-0.059-0.2137-0.094-0.3126zm-5.2815 1.8438c-0.0536 0.1549-0.0625 0.327-0.0625 0.5 0 0.834 0.6656 1.5 1.5 1.5s1.5-0.666 1.5-1.5c0-0.173-0.0089-0.3451-0.0625-0.5-0.2049 0.592-0.7761 1-1.4375 1s-1.2326-0.408-1.4375-1zm-2.4062 1.8438-0.1875 0.1875c-0.1415 0.14152-0.13914 0.36086 0 0.5l0.25 0.25 0.25-0.25c-0.1272-0.219-0.2269-0.445-0.3126-0.688zm7.6875 0c-0.08568 0.24288-0.18535 0.46887-0.3125 0.6875l0.25 0.25 0.25-0.25c0.13911-0.13914 0.14152-0.35848 0-0.5l-0.1875-0.1875z" display="block"/>
<path opacity=".15" d="m4.2188 6.7188-0.25 0.25c-0.13916 0.13914-0.14152 0.35848 0 0.5l0.1875 0.1875c0.0856-0.2429 0.1853-0.4689 0.3125-0.6875l-0.25-0.25zm7.5625 0-0.25 0.25c0.12716 0.21863 0.22682 0.44462 0.3125 0.6875l0.1875-0.1875c0.14155-0.14152 0.13914-0.36086 0-0.5l-0.25-0.25zm-3.781 0.7812c-0.8344 0-1.5 0.6656-1.5 1.5 0 0.173 0.0089 0.3451 0.0625 0.5 0.2049-0.592 0.7761-1 1.4375-1s1.2326 0.408 1.4375 1c0.0536-0.1549 0.0625-0.327 0.0625-0.5 0-0.8344-0.6656-1.5-1.5-1.5zm-5 2.1875v1c0 0.19677 0.17486 0.34375 0.375 0.34375h0.6875c0.027115 0.10176 0.058885 0.21367 0.09375 0.3125l0.3125-0.3125c-0.1789-0.3076-0.3125-0.64816-0.40625-1h-0.6875c-0.2-0.001-0.3749-0.1477-0.3749-0.3445zm10 0c0 0.19677-0.17486 0.34375-0.375 0.34375h-0.6875c-0.09374 0.35184-0.22735 0.6924-0.40625 1l0.3125 0.3125c0.03486-0.09883 0.06664-0.21074 0.09375-0.3125h0.6875c0.20014 0 0.375-0.14698 0.375-0.34375v-1zm-8.7812 2.5938-0.25 0.25c-0.1415 0.14152-0.13914 0.36086 0 0.5l1 1c0.069569 0.06956 0.15843 0.09452 0.25 0.09375 0.091569-0.000776 0.17924-0.02299 0.25-0.09375l0.5-0.5c0.3076 0.1789 0.64816 0.3125 1 0.40625v0.6875c0 0.20014 0.14698 0.375 0.34375 0.375h1.375c0.19677 0 0.34375-0.17486 0.34375-0.375v-0.6875c0.35184-0.09374 0.6924-0.22735 1-0.40625l0.5 0.5c0.14152 0.14155 0.36086 0.13914 0.5 0l1-1c0.13911-0.13914 0.14152-0.35848 0-0.5l-0.25-0.25-0.75 0.75c-0.13914 0.13914-0.35848 0.14155-0.5 0l-0.5-0.5c-0.3076 0.1789-0.64816 0.3125-1 0.40625v0.6875c0.0002 0.201-0.1467 0.376-0.3435 0.376h-1.375c-0.1968 0-0.3437-0.175-0.3437-0.375v-0.6875c-0.35184-0.09375-0.6924-0.22735-1-0.40625l-0.5 0.5c-0.070758 0.07076-0.15843 0.09297-0.25 0.09375-0.09157 0.000773-0.18043-0.02419-0.25-0.09375l-0.75-0.75z" display="block" fill="#fff"/>
</g></svg>