<svg xmlns:rdf="http://www.w3.org/1999/02/22-rdf-syntax-ns#" xmlns="http://www.w3.org/2000/svg" height="16" width="16" version="1.0" xmlns:cc="http://creativecommons.org/ns#" xmlns:dc="http://purl.org/dc/elements/1.1/">
<defs>
<linearGradient id="bbbbbb" y2="16" gradientUnits="userSpaceOnUse" x2="3" y1="2" x1="3">
<stop stop-color="#78b351" offset="0"/>
<stop stop-color="#3f5f29" offset="1"/>
</linearGradient>
<linearGradient id="aaaaaa" y2="2" gradientUnits="userSpaceOnUse" x2="6" y1="15" x1="6">
<stop stop-color="#76b749" offset="0"/>
<stop stop-color="#a6d08a" offset="1"/>
</linearGradient>
</defs>
<g>
<rect rx="2" ry="2" height="14.5" width="16" y="1.5" x="0" fill="url(#bbbbbb)"/>
<path d="m2.05 0c-0.5817 0-1.05 0.4683-1.05 1.05v2.5277c0 0.5817 0.4683 1.05 1.05 1.05h11.876c0.5817 0 1.05-0.4683 1.05-1.05v-1.4592c0-0.5817-0.4683-1.05-1.05-1.05h-6.4644l-0.186-0.0185c-0.5788-0.05783-0.4683-1.05-1.0499-1.05h-4.1757z" fill="#5b8a3c"/>
<path d="m2.0382 1.0277c-0.01345 0 0-0.01913 0 0.03125v4.5313h11.875c0.05038 0 0.03125 0.01345 0.03125 0v-3.4688c0-0.01345-0.0178-0.03125-0.03125-0.03125h-6.625c-0.03123 0.0014-0.06252 0.0014-0.09375 0-0.4413-0.0441-0.8373-0.3498-1.031-0.5937-0.1607-0.2023-0.2252-0.3447-0.2813-0.4688h-3.8438z" fill="#80bc57"/>
<rect rx="1" ry="1" height="13" width="14" y="2" x="1" fill="url(#aaaaaa)"/>
<path opacity=".2" d="m2 2c-0.554 0-1 0.446-1 1v1c0-0.554 0.446-1 1-1h12c0.554 0 1 0.446 1 1v-1c0-0.554-0.446-1-1-1h-12z" fill="#fff"/>
</g>

<g>
<path opacity=".15" d="m4.9062 4.0312a.97256 .97256 0 0 0 -.8750 .9688v8a.97256 .97256 0 0 0 .9688 .969h6a.97256 .97256 0 0 0 .969 -.969v-5-1a.97256 .97256 0 0 0 -.281 -.6875l-1-1-1-1a.97256 .97256 0 0 0 -.688 -.2813h-1-3a.97256 .97256 0 0 0 -.09375 0zm2.0625 2.9375h.0625v1.0312a.97256 .97256 0 0 0 .9688 .9689h1.0312v2.0625h-2.0625v-4.0625z" fill="#fff"/>
<path d="m5 5v8h6v-5-1l-1-1-1-1h-1-3zm1 1h2v2h2v4h-4v-6z" fill="#6A9E47"/>
<path opacity=".1" d="m5 5v8h6v-5-1l-1-1-1-1h-1-3zm.5625.5625h.09375a.55921 .55921 0 0 0 -.09375 .0625v-.0625zm2.8125 0h.375l.84375.84375.84375.84375v.40625a.55921 .55921 0 0 0 -.438 -.2187h-1.4375v-1.4375a.55921 .55921 0 0 0 -.1875 -.4375zm-2.375.4375h2v2h2v4h-4v-6zm-.4375 6.344a.55921 .55921 0 0 0 .0625 .094h-.0625v-.09375zm4.875.03125v.0625h-.09375a.55921 .55921 0 0 0 .094 -.063z"/>
<path opacity=".2" d="m5 5v1h1 2 1l1 1 1 1v-1l-1-1-1-1h-1-3zm1 7v1h4v-1h-4z"/>
<path opacity=".15" d="m6 6v1h2v-1h-2zm2 2v1h2v-1h-2zm-3 5v1h6v-1h-1-4-1z" fill="#fff"/>
</g></svg>