<svg xmlns:rdf="http://www.w3.org/1999/02/22-rdf-syntax-ns#" xmlns="http://www.w3.org/2000/svg" height="16" width="16" version="1.0" xmlns:cc="http://creativecommons.org/ns#" xmlns:dc="http://purl.org/dc/elements/1.1/">
<defs>
<linearGradient id="bbbbbb" y2="16" gradientUnits="userSpaceOnUse" x2="3" y1="2" x1="3">
<stop stop-color="#78b351" offset="0"/>
<stop stop-color="#3f5f29" offset="1"/>
</linearGradient>
<linearGradient id="aaaaaa" y2="2" gradientUnits="userSpaceOnUse" x2="6" y1="15" x1="6">
<stop stop-color="#76b749" offset="0"/>
<stop stop-color="#a6d08a" offset="1"/>
</linearGradient>
</defs>
<g>
<rect rx="2" ry="2" height="14.5" width="16" y="1.5" x="0" fill="url(#bbbbbb)"/>
<path d="m2.05 0c-0.5817 0-1.05 0.4683-1.05 1.05v2.5277c0 0.5817 0.4683 1.05 1.05 1.05h11.876c0.5817 0 1.05-0.4683 1.05-1.05v-1.4592c0-0.5817-0.4683-1.05-1.05-1.05h-6.4644l-0.186-0.0185c-0.5788-0.05783-0.4683-1.05-1.0499-1.05h-4.1757z" fill="#5b8a3c"/>
<path d="m2.0382 1.0277c-0.01345 0 0-0.01913 0 0.03125v4.5313h11.875c0.05038 0 0.03125 0.01345 0.03125 0v-3.4688c0-0.01345-0.0178-0.03125-0.03125-0.03125h-6.625c-0.03123 0.0014-0.06252 0.0014-0.09375 0-0.4413-0.0441-0.8373-0.3498-1.031-0.5937-0.1607-0.2023-0.2252-0.3447-0.2813-0.4688h-3.8438z" fill="#80bc57"/>
<rect rx="1" ry="1" height="13" width="14" y="2" x="1" fill="url(#aaaaaa)"/>
<path opacity=".2" d="m2 2c-0.554 0-1 0.446-1 1v1c0-0.554 0.446-1 1-1h12c0.554 0 1 0.446 1 1v-1c0-0.554-0.446-1-1-1h-12z" fill="#fff"/>
</g>

<g fill-rule="evenodd">
<path opacity=".15" style="color:#000000" d="m9.2812 2.8125c-0.5541 0.0118-1.1723 0.1584-1.6874 0.5937-0.7253 0.6129-0.9 1.5305-0.9376 1.9688-0.0375 0.4383 0.0356 0.333-0.125 0.4688-0.1667 0.1408-0.0903 0.1174-0.5312 0.0937s-1.3426-0.0146-2.0625 0.5937c-0.3104 0.2624-0.6013 0.5962-0.7813 1.0626a1.0049 1.0049 0 0 0 0 0.0312c-0.0568 0.1489-0.0874 0.238-0.0937 0.2812-0.0051 0.012 0.0083 0.0256 0 0.0626-0.0062 0.0281-0.0446 0.106-0.0625 0.25-0.0135 0.1123-0.0024 0.1333 0 0.1562-0.0013 0.0172 0.0001 0.0348 0 0.0625-0.0004 0.0094-0.0004 0.0144 0 0.0313-0.0029 0.1016 0 0.0552 0 0.0624-0.0003 0.0261-0.0005 0.0685 0 0.0938-0.0007-0.0361-0.0028-0.0376 0 0.0312 0.0015-0.0207-0.005 0.0283 0 0.0938-0.0004 0.045-0.0071 0.0694 0 0.125 0.0179 0.1436 0.0563 0.2216 0.0625 0.25 0.0138 0.0606 0.0141 0.0491 0.0313 0.0938 0.01 0.0501 0.0131 0.1209 0.0624 0.25a1.0049 1.0049 0 0 0 0 0.0312c0.18 0.4664 0.4709 0.8 0.7813 1.062 0.7199 0.609 1.6216 0.618 2.0625 0.594 0.4409-0.023 0.3645-0.047 0.5312 0.094 0.1606 0.136 0.0875 0.03 0.125 0.469 0.0376 0.438 0.2123 1.356 0.9376 1.969 1.1261 0.951 2.8172 0.782 3.7812-0.313 0.969-1.1 0.828-2.813-0.281-3.75-0.72-0.6084-1.6218-0.6175-2.0628-0.5938-0.4409 0.0238-0.3645 0.0472-0.5312-0.0937-0.1519-0.1283-0.1189-0.1767-0.125-0.375 0.0119-0.2212-0.0116-0.2908 0.125-0.4063 0.1667-0.1408 0.0903-0.1174 0.5312-0.0937 0.441 0.0237 1.3428 0.0146 2.0628-0.5937 1.109-0.9371 1.25-2.6497 0.281-3.75-0.551-0.6258-1.337-0.9224-2.0938-0.9063zm0.0313 1c0.4813-0.0102 0.9735 0.1774 1.3125 0.5625 0.603 0.6846 0.511 1.7221-0.187 2.3125-0.9835 0.8307-1.737-0.0369-2.5942 0.6875-0.4331 0.366-0.46 0.7728-0.5 1.1875 0.04 0.4147 0.0669 0.7903 0.5 1.1563 0.8572 0.7242 1.6107-0.1433 2.5942 0.6872 0.698 0.591 0.79 1.628 0.187 2.313-0.603 0.684-1.6763 0.778-2.375 0.187-0.983-0.83-0.2052-1.713-1.0625-2.437-0.8573-0.7247-1.6107 0.143-2.5937-0.6878-0.2184-0.1845-0.4048-0.4093-0.5-0.6562-0.0192-0.0502-0.0173-0.1047-0.0313-0.1562-0.0063-0.0231-0.0259-0.0393-0.0313-0.0626-0.0107-0.0487-0.025-0.1068-0.0312-0.1562-0.0032-0.0256 0.002-0.0368 0-0.0625-0.0013-0.0174 0.0008-0.0451 0-0.0625-0.0005-0.0119 0.0002-0.0194 0-0.0312-0.0005-0.0232-0.0005-0.0394 0-0.0626 0.0001-0.0029-0.0001-0.0283 0-0.0312 0.0002-0.0089-0.0004-0.0224 0-0.0312 0.0007-0.0174-0.0013-0.0139 0-0.0313 0.0017-0.0231-0.0028-0.0707 0-0.0937 0.0062-0.0495 0.0205-0.1076 0.0312-0.1563 0.0053-0.0231 0.025-0.0396 0.0313-0.0625 0.014-0.0516 0.0121-0.106 0.0313-0.1562 0.0952-0.2469 0.2816-0.4718 0.5-0.6563 0.983-0.8307 1.7364 0.0369 2.5937-0.6875s0.0795-1.6068 1.0625-2.4375c0.3057-0.2583 0.6882-0.367 1.0625-0.375z" fill="#fff"/>
<path style="color:#000000" d="m9.3109 3.8039c-0.3744 0.0079-0.7489 0.1381-1.0546 0.3964-0.9831 0.8307-0.2195 1.6939-1.0768 2.4183-0.8572 0.7244-1.6168-0.1415-2.5999 0.6893v0.00127c-0.2183 0.1845-0.3758 0.4129-0.4711 0.6598-0.0006401 0.00159-0.0006812 0.00348-0.00127 0.00515-0.019188 0.050212-0.035582 0.10061-0.049596 0.15218-0.00625 0.022898-0.013071 0.045947-0.018277 0.069061-0.0005775 0.00254-0.0007636 0.00515-0.00127 0.00767-0.010714 0.048733-0.018642 0.097658-0.024798 0.14707-0.0000538 0.0004123 0.0000506 0.0008705 0 0.00127-0.0003299 0.00254-0.00103 0.00506-0.00127 0.00767-0.00277 0.023017-0.00475 0.045955-0.00649 0.069061-0.00134 0.017368-0.00316 0.035045-0.00388 0.052428-0.0003718 0.00885-0.00111 0.018001-0.00127 0.026855-0.0000839 0.00293 0.0000664 0.00602 0 0.00895-0.0004748 0.023175-0.0004953 0.045868 0 0.069061 0.000227 0.011861 0.0007912 0.023951 0.00127 0.035804 0.0007842 0.017391 0.00261 0.035061 0.00388 0.052428 0.00197 0.025731 0.00459 0.051083 0.00784 0.076727 0.0000506 0.000413-0.0000538 0.0008704 0 0.00127 0.00617 0.049407 0.014084 0.098331 0.024798 0.14707 0.000557 0.00254 0.0007429 0.00515 0.00127 0.00767 0.0053 0.023248 0.011948 0.045995 0.01827 0.069061 0.014014 0.051566 0.030407 0.10197 0.049596 0.15218 0.0006401 0.00166 0.0006813 0.00348 0.00127 0.00515 0.095271 0.24689 0.25282 0.47537 0.47116 0.65988v0.00127c0.98305 0.83073 1.7426-0.035139 2.5999 0.68929 0.85725 0.72443 0.093708 1.5875 1.0768 2.4183 0.69869 0.59042 1.7532 0.51322 2.3558-0.17137 0.60258-0.6846 0.5251-1.7179-0.17359-2.3083-0.9835-0.8309-1.743 0.036-2.6003-0.6882-0.433-0.3659-0.452-0.7682-0.492-1.1829 0.04-0.4147 0.059-0.817 0.492-1.1829 0.8573-0.7244 1.6168 0.1427 2.6003-0.688 0.698-0.5904 0.776-1.6237 0.173-2.3083-0.339-0.3851-0.8198-0.578-1.3011-0.5678z" fill="#6A9E47"/>
<path opacity=".2" style="color:#000000" d="m9.3125 3.8125c-0.3743 0.008-0.7568 0.1167-1.0625 0.375-0.983 0.8307-0.2052 1.7131-1.0625 2.4375s-1.6107-0.1432-2.5937 0.6875c-0.2184 0.1845-0.4048 0.4094-0.5 0.6563-0.0192 0.0502-0.0173 0.1046-0.0313 0.1562-0.0063 0.0229-0.026 0.0394-0.0313 0.0625-0.0107 0.0487-0.025 0.1068-0.0312 0.1563-0.0028 0.023 0.0017 0.0706 0 0.0937-0.0013 0.0174 0.0007 0.0139 0 0.0313-0.0004 0.0088 0.0002 0.0223 0 0.0312-0.0001 0.0029 0.0001 0.0283 0 0.0312-0.0005 0.0232-0.0005 0.0394 0 0.0626 0.0002 0.0118-0.0005 0.0193 0 0.0312 0.0008 0.0174-0.0013 0.0451 0 0.0625 0.002 0.0257-0.0032 0.0369 0 0.0625 0.0062 0.0494 0.0205 0.1075 0.0312 0.1562 0.0054 0.0233 0.025 0.0395 0.0313 0.0626 0.0081 0.0297-0.0097 0.0645 0 0.0937 0.0098-0.0313 0.0194-0.0629 0.0313-0.0937 0.0952-0.2469 0.2816-0.4718 0.5-0.6563 0.983-0.8307 1.7364 0.0369 2.5937-0.6875s0.0795-1.6068 1.0625-2.4375c0.3057-0.2583 0.6882-0.367 1.0625-0.375 0.4813-0.0102 0.9735 0.1774 1.3125 0.5625 0.151 0.1711 0.246 0.3601 0.313 0.5625 0.17-0.5242 0.081-1.1152-0.313-1.5625-0.339-0.3851-0.8312-0.5727-1.3125-0.5625zm-1.9063 5.25c-0.0368 0.1598-0.0465 0.3347-0.0624 0.5 0.04 0.4147 0.0669 0.7905 0.5 1.1565 0.8572 0.724 1.6107-0.112 2.5942 0.719 0.242 0.204 0.409 0.44 0.5 0.718 0.199-0.607 0.024-1.307-0.5-1.75-0.9835-0.8305-1.737 0.037-2.5942-0.6872-0.2517-0.2127-0.3802-0.4238-0.4376-0.6563z"/>
<path opacity=".2" style="color:#000000" d="m9.3125 3.8125c-0.3743 0.008-0.7568 0.1167-1.0625 0.375-0.983 0.8307-0.2052 1.7131-1.0625 2.4375s-1.6107-0.1432-2.5937 0.6875c-0.2184 0.1845-0.4048 0.4094-0.5 0.6563-0.0192 0.0502-0.0173 0.1046-0.0313 0.1562-0.0063 0.0229-0.026 0.0394-0.0313 0.0625-0.0107 0.0487-0.025 0.1068-0.0312 0.1563-0.0028 0.023 0.0017 0.0706 0 0.0937-0.0013 0.0174 0.0007 0.0139 0 0.0313-0.0004 0.0088 0.0002 0.0223 0 0.0312-0.0001 0.0029 0.0001 0.0283 0 0.0312-0.0005 0.0232-0.0005 0.0394 0 0.0626 0.0002 0.0118-0.0005 0.0193 0 0.0312 0.0008 0.0174-0.0013 0.0451 0 0.0625 0.002 0.0257-0.0032 0.0369 0 0.0625 0.0062 0.0494 0.0205 0.1075 0.0312 0.1562 0.0054 0.0233 0.025 0.0395 0.0313 0.0626 0.014 0.0515 0.0121 0.106 0.0313 0.1562 0.0952 0.2469 0.2816 0.4717 0.5 0.6562 0.983 0.8308 1.7364-0.0369 2.5937 0.6878 0.8573 0.724 0.0795 1.607 1.0625 2.437 0.6987 0.591 1.772 0.497 2.375-0.187 0.603-0.685 0.511-1.722-0.187-2.313-0.9835-0.8305-1.737 0.037-2.5942-0.6872-0.4331-0.366-0.46-0.7416-0.5-1.1563 0.04-0.4147 0.0669-0.8215 0.5-1.1875 0.8572-0.7244 1.6107 0.1432 2.5942-0.6875 0.698-0.5904 0.79-1.6279 0.187-2.3125-0.339-0.3851-0.8312-0.5727-1.3125-0.5625zm0 0.5625c0.3305-0.007 0.6832 0.1216 0.9065 0.375 0.402 0.4572 0.349 1.1305-0.125 1.5312-0.3668 0.3098-0.5629 0.2719-0.969 0.25-0.3767-0.0202-0.9598-0.007-1.5 0.375 0.4557-0.4704 0.5621-1.0366 0.5938-1.4062 0.0344-0.4022 0.0113-0.5989 0.375-0.9062 0.191-0.1615 0.4428-0.2129 0.7187-0.2188zm-1.9063 2.7188c-0.4588 0.472-0.5891 1.035-0.625 1.4062a0.5497 0.5497 0 0 0 0 0.125c0.0361 0.3736 0.1737 0.914 0.625 1.375-0.5401-0.3821-1.1233-0.3953-1.5-0.375-0.406 0.0219-0.6021 0.0598-0.9687-0.25-0.1538-0.1299-0.2559-0.2841-0.3125-0.4062 0.0013-0.0221-0.0097-0.077-0.0312-0.1563-0.0066-0.024-0.024-0.0122-0.0313-0.0313-0.0039-0.0179 0.0032-0.0163 0-0.0312 0.0002-0.0029 0.0043-0.038 0-0.0938 0.005 0.0681 0.0039 0.0244 0-0.0624-0.0004-0.0175-0.0004-0.0443 0-0.0626a0.5497 0.5497 0 0 0 0 -0.0312c0.0004-0.0096 0.0002-0.019 0-0.0312 0.0038-0.0502 0.001-0.0479 0-0.0626 0.0005-0.0022-0.002-0.0216 0-0.0312 0.009-0.0171-0.0097-0.0369 0-0.0625 0.0073-0.0192 0.0246-0.007 0.0313-0.0313 0.0215-0.0792 0.0325-0.1341 0.0312-0.1562 0.0566-0.1221 0.1587-0.2763 0.3125-0.4062 0.3666-0.3098 0.5627-0.2719 0.9687-0.25 0.3767 0.0202 0.9599 0.007 1.5-0.375zm0.2188 3.0942c0.5402 0.382 1.1233 0.395 1.5 0.374 0.4061-0.021 0.6022-0.059 0.969 0.25 0.474 0.401 0.527 1.075 0.125 1.532-0.4053 0.46-1.1604 0.549-1.6252 0.156-0.3637-0.307-0.3406-0.504-0.375-0.906-0.0317-0.37-0.1381-0.936-0.5938-1.406z"/>
<path opacity=".15" style="color:#000000" d="m10.938 5.9375c-0.091 0.2781-0.258 0.5453-0.5 0.75-0.9835 0.8307-1.737-0.0369-2.5942 0.6875-0.4331 0.366-0.46 0.7728-0.5 1.1875 0.0167 0.1737 0.0211 0.3324 0.0624 0.5 0.0556-0.2412 0.1771-0.4674 0.4376-0.6875 0.8572-0.7244 1.6107 0.1432 2.5942-0.6875 0.524-0.4428 0.699-1.1429 0.5-1.75zm-6.8755 3.125c-0.0061 0.0195 0.0054 0.0427 0 0.0625-0.0063 0.0229-0.026 0.0394-0.0313 0.0625-0.0107 0.0487-0.025 0.1068-0.0312 0.1563-0.0028 0.023 0.0017 0.0706 0 0.0937-0.0013 0.0174 0.0007 0.0139 0 0.0313-0.0004 0.0088 0.0002 0.0223 0 0.0312-0.0001 0.0029 0.0001 0.0283 0 0.0312-0.0005 0.0232-0.0005 0.0394 0 0.0626 0.0002 0.0118-0.0005 0.0193 0 0.0312 0.0008 0.0174-0.0013 0.0451 0 0.0625 0.002 0.0257-0.0032 0.0369 0 0.0625 0.0062 0.0494 0.0205 0.1075 0.0312 0.1562 0.0054 0.0233 0.025 0.0395 0.0313 0.0626 0.014 0.0512 0.0121 0.1062 0.0313 0.1562 0.0952 0.247 0.2816 0.472 0.5 0.656 0.983 0.831 1.7364-0.037 2.5937 0.688 0.8573 0.724 0.0795 1.607 1.0625 2.437 0.6987 0.591 1.772 0.497 2.375-0.187 0.394-0.448 0.483-1.039 0.313-1.563-0.067 0.203-0.162 0.392-0.313 0.563-0.603 0.684-1.6763 0.778-2.375 0.187-0.983-0.83-0.2052-1.713-1.0625-2.437-0.8573-0.7247-1.6107 0.143-2.5937-0.6878-0.2184-0.1845-0.4048-0.4093-0.5-0.6562-0.0082-0.0212-0.0242-0.0411-0.0313-0.0625z" fill="#fff"/>
</g></svg>