<?xml version="1.0" encoding="UTF-8" standalone="no"?>
<!-- Created with Inkscape (http://www.inkscape.org/) -->

<svg
   xmlns:dc="http://purl.org/dc/elements/1.1/"
   xmlns:cc="http://creativecommons.org/ns#"
   xmlns:rdf="http://www.w3.org/1999/02/22-rdf-syntax-ns#"
   xmlns:svg="http://www.w3.org/2000/svg"
   xmlns="http://www.w3.org/2000/svg"
   xmlns:xlink="http://www.w3.org/1999/xlink"
   xmlns:sodipodi="http://sodipodi.sourceforge.net/DTD/sodipodi-0.dtd"
   xmlns:inkscape="http://www.inkscape.org/namespaces/inkscape"
   width="96"
   height="96"
   id="svg2408"
   sodipodi:version="0.32"
   inkscape:version="0.48.3.1 r9886"
   version="1.0"
   sodipodi:docname="folder.svg"
   inkscape:output_extension="org.inkscape.output.svg.inkscape">
  <defs
     id="defs2410">
    <linearGradient
       id="linearGradient4075">
      <stop
         id="stop4077"
         offset="0"
         style="stop-color:#6e92c6;stop-opacity:1;" />
      <stop
         id="stop4079"
         offset="1"
         style="stop-color:#afc2df;stop-opacity:1;" />
    </linearGradient>
    <linearGradient
       id="linearGradient4008">
      <stop
         id="stop4010"
         offset="0"
         style="stop-color:#99b2d7;stop-opacity:1;" />
      <stop
         style="stop-color:#7e9dcc;stop-opacity:1;"
         offset="0.75"
         id="stop3895" />
      <stop
         id="stop4014"
         offset="1"
         style="stop-color:#5880bc;stop-opacity:1;" />
    </linearGradient>
    <linearGradient
       inkscape:collect="always"
       id="linearGradient3874">
      <stop
         style="stop-color:#ffffff;stop-opacity:1;"
         offset="0"
         id="stop3876" />
      <stop
         style="stop-color:#ffffff;stop-opacity:0;"
         offset="1"
         id="stop3878" />
    </linearGradient>
    <linearGradient
       gradientUnits="userSpaceOnUse"
       y2="20.137329"
       x2="11.794092"
       y1="3.2126782"
       x1="11.794092"
       gradientTransform="scale(1.0598527,0.9435274)"
       id="linearGradient3317">
      <stop
         id="stop3319"
         offset="0"
         style="stop-color:#c6953a;stop-opacity:1" />
      <stop
         id="stop3321"
         offset="1"
         style="stop-color:#ab7a1f;stop-opacity:1" />
    </linearGradient>
    <linearGradient
       inkscape:collect="always"
       xlink:href="#linearGradient3317"
       id="linearGradient3361"
       x1="48.035713"
       y1="25.910715"
       x2="48.035713"
       y2="85.821426"
       gradientUnits="userSpaceOnUse" />
    <linearGradient
       id="linearGradient3348">
      <stop
         style="stop-color:#ddbf8b;stop-opacity:1;"
         offset="0"
         id="stop3350" />
      <stop
         id="stop3356"
         offset="0.71691591"
         style="stop-color:#c29856;stop-opacity:1;" />
      <stop
         style="stop-color:#a2773a;stop-opacity:1;"
         offset="1"
         id="stop3352" />
    </linearGradient>
    <linearGradient
       id="linearGradient3187">
      <stop
         style="stop-color:#c29656;stop-opacity:1;"
         offset="0"
         id="stop3189" />
      <stop
         style="stop-color:#ddc08b;stop-opacity:1;"
         offset="1"
         id="stop3191" />
    </linearGradient>
    <linearGradient
       id="ButtonShadow"
       gradientTransform="matrix(1.0058652,0,0,0.994169,0,12)"
       x1="45.447727"
       y1="80.471962"
       x2="45.447727"
       y2="7.0165396"
       gradientUnits="userSpaceOnUse">
      <stop
         style="stop-color:#000000;stop-opacity:1;"
         offset="0"
         id="stop3750" />
      <stop
         style="stop-color:#000000;stop-opacity:0.58823532;"
         offset="1"
         id="stop3752" />
    </linearGradient>
    <linearGradient
       inkscape:collect="always"
       xlink:href="#linearGradient4075"
       id="linearGradient3706"
       x1="48"
       y1="78"
       x2="48"
       y2="5.9877172"
       gradientUnits="userSpaceOnUse"
       gradientTransform="translate(0,8)" />
    <filter
       inkscape:collect="always"
       id="filter3174">
      <feGaussianBlur
         inkscape:collect="always"
         stdDeviation="1.71"
         id="feGaussianBlur3176" />
    </filter>
    <linearGradient
       inkscape:collect="always"
       xlink:href="#linearGradient3348"
       id="linearGradient4023"
       gradientUnits="userSpaceOnUse"
       gradientTransform="matrix(0.72,0,0,0.72,1.92,-5.52)"
       x1="34.85965"
       y1="17.736111"
       x2="34.85965"
       y2="32.012737" />
    <linearGradient
       inkscape:collect="always"
       xlink:href="#ButtonShadow"
       id="linearGradient3664"
       gradientUnits="userSpaceOnUse"
       gradientTransform="matrix(1.0058652,0,0,0.994169,0,12)"
       x1="45.447727"
       y1="80.471962"
       x2="45.447727"
       y2="5.297224" />
    <linearGradient
       inkscape:collect="always"
       xlink:href="#ButtonShadow"
       id="linearGradient3692"
       gradientUnits="userSpaceOnUse"
       gradientTransform="matrix(1.0277778,0,0,1.0127315,98.666667,0.03087963)"
       x1="26.5"
       y1="90.312759"
       x2="26.5"
       y2="6.9171443" />
    <linearGradient
       inkscape:collect="always"
       xlink:href="#ButtonShadow"
       id="linearGradient3701"
       gradientUnits="userSpaceOnUse"
       gradientTransform="matrix(1.0277778,0,0,1.0127315,-1.333333,0.03087963)"
       x1="26.5"
       y1="90.312759"
       x2="26.5"
       y2="6.9171443" />
    <linearGradient
       inkscape:collect="always"
       xlink:href="#ButtonShadow"
       id="linearGradient3709"
       gradientUnits="userSpaceOnUse"
       gradientTransform="matrix(1.0277778,0,0,1.0127315,-1.333333,0.03087963)"
       x1="26.5"
       y1="90.312759"
       x2="26.5"
       y2="6.9171443" />
    <linearGradient
       inkscape:collect="always"
       xlink:href="#ButtonShadow"
       id="linearGradient3717"
       gradientUnits="userSpaceOnUse"
       gradientTransform="matrix(1.0277778,0,0,1.0127315,-1.333333,0.03087963)"
       x1="26.5"
       y1="90.312759"
       x2="26.5"
       y2="6.9171443" />
    <clipPath
       clipPathUnits="userSpaceOnUse"
       id="clipPath3860">
      <rect
         ry="6"
         rx="6"
         y="18"
         x="6"
         height="72"
         width="84"
         id="rect3862"
         style="fill:#ff00ff;fill-opacity:1;fill-rule:nonzero;stroke:none" />
    </clipPath>
    <filter
       inkscape:collect="always"
       id="filter3870"
       x="-0.16558799"
       width="1.331176"
       y="-0.19715988"
       height="1.3943198">
      <feGaussianBlur
         inkscape:collect="always"
         stdDeviation="5.1703125"
         id="feGaussianBlur3872" />
    </filter>
    <linearGradient
       inkscape:collect="always"
       xlink:href="#linearGradient3874"
       id="linearGradient3880"
       x1="48.021698"
       y1="22.933374"
       x2="48.021698"
       y2="88.347588"
       gradientUnits="userSpaceOnUse" />
    <linearGradient
       inkscape:collect="always"
       xlink:href="#linearGradient3699"
       id="linearGradient2933"
       gradientUnits="userSpaceOnUse"
       x1="52.318588"
       y1="75.953461"
       x2="52.318588"
       y2="31.997854"
       gradientTransform="translate(2.4200432e-8,70)" />
    <linearGradient
       id="linearGradient3699">
      <stop
         style="stop-color:#aa7932;stop-opacity:0.78431374;"
         offset="0"
         id="stop3701" />
      <stop
         style="stop-color:#aa7932;stop-opacity:0.39215687;"
         offset="1"
         id="stop3703" />
    </linearGradient>
    <linearGradient
       inkscape:collect="always"
       xlink:href="#linearGradient3699"
       id="linearGradient3117"
       gradientUnits="userSpaceOnUse"
       x1="55.205296"
       y1="75.110847"
       x2="55.205296"
       y2="23.261808"
       gradientTransform="matrix(0.84825741,0,0,0.84825741,-72.62358,12.385436)" />
    <linearGradient
       inkscape:collect="always"
       xlink:href="#linearGradient3699"
       id="linearGradient4051"
       x1="51.551208"
       y1="75.56765"
       x2="51.551208"
       y2="31.732052"
       gradientUnits="userSpaceOnUse" />
    <linearGradient
       y2="88"
       x2="48"
       y1="88"
       x1="90"
       spreadMethod="reflect"
       gradientUnits="userSpaceOnUse"
       id="linearGradient3228"
       xlink:href="#linearGradient3892"
       inkscape:collect="always" />
    <linearGradient
       id="linearGradient3892">
      <stop
         style="stop-color:#000000;stop-opacity:0.58823532;"
         offset="0"
         id="stop3894" />
      <stop
         id="stop3896"
         offset="0.11780351"
         style="stop-color:#000000;stop-opacity:0.47058824;" />
      <stop
         style="stop-color:#000000;stop-opacity:0.39215687;"
         offset="0.23809524"
         id="stop3898" />
      <stop
         style="stop-color:#000000;stop-opacity:0.3137255;"
         offset="1"
         id="stop3900" />
    </linearGradient>
    <linearGradient
       y2="88"
       x2="48"
       y1="88"
       x1="90"
       spreadMethod="reflect"
       gradientUnits="userSpaceOnUse"
       id="linearGradient3077"
       xlink:href="#linearGradient3892"
       inkscape:collect="always"
       gradientTransform="translate(0,10)" />
    <linearGradient
       inkscape:collect="always"
       xlink:href="#linearGradient4384"
       id="linearGradient4390"
       x1="48"
       y1="88"
       x2="48"
       y2="-40"
       gradientUnits="userSpaceOnUse"
       gradientTransform="matrix(1,0,0,-1,0,92)" />
    <linearGradient
       id="linearGradient4384">
      <stop
         style="stop-color:#ffffff;stop-opacity:1;"
         offset="0"
         id="stop4386" />
      <stop
         style="stop-color:#ffffff;stop-opacity:0;"
         offset="1"
         id="stop4388" />
    </linearGradient>
    <linearGradient
       y2="-40"
       x2="48"
       y1="75.08329"
       x1="48"
       gradientTransform="matrix(1,0,0,-1,0,92)"
       gradientUnits="userSpaceOnUse"
       id="linearGradient3094"
       xlink:href="#linearGradient4384"
       inkscape:collect="always" />
    <linearGradient
       inkscape:collect="always"
       xlink:href="#linearGradient3874"
       id="linearGradient3123"
       gradientUnits="userSpaceOnUse"
       x1="48.021698"
       y1="22.933374"
       x2="48.021698"
       y2="81.481377" />
    <linearGradient
       inkscape:collect="always"
       xlink:href="#linearGradient3187"
       id="linearGradient3843"
       gradientUnits="userSpaceOnUse"
       gradientTransform="translate(0,6)"
       x1="48"
       y1="78"
       x2="48"
       y2="5.9877172" />
    <linearGradient
       inkscape:collect="always"
       xlink:href="#linearGradient3187"
       id="linearGradient3847"
       gradientUnits="userSpaceOnUse"
       gradientTransform="translate(0,4)"
       x1="48"
       y1="78"
       x2="48"
       y2="5.9877172" />
    <linearGradient
       inkscape:collect="always"
       xlink:href="#ButtonShadow"
       id="linearGradient3853"
       gradientUnits="userSpaceOnUse"
       gradientTransform="matrix(1.0277778,0,0,1.0127315,-1.333333,0.03087963)"
       x1="26.5"
       y1="90.312759"
       x2="26.5"
       y2="6.9171443" />
    <linearGradient
       inkscape:collect="always"
       xlink:href="#ButtonShadow"
       id="linearGradient3857"
       gradientUnits="userSpaceOnUse"
       gradientTransform="matrix(1.0277778,0,0,1.0127315,-1.333333,0.03087963)"
       x1="26.5"
       y1="90.312759"
       x2="26.5"
       y2="6.9171443" />
    <linearGradient
       inkscape:collect="always"
       xlink:href="#ButtonShadow"
       id="linearGradient3861"
       gradientUnits="userSpaceOnUse"
       gradientTransform="matrix(1.0277778,0,0,1.0127315,-1.333333,0.03087963)"
       x1="26.5"
       y1="90.312759"
       x2="26.5"
       y2="6.9171443" />
    <linearGradient
       inkscape:collect="always"
       xlink:href="#ButtonShadow"
       id="linearGradient3869"
       gradientUnits="userSpaceOnUse"
       gradientTransform="matrix(1.0277778,0,0,1.0127315,-1.333333,0.03087963)"
       x1="26.5"
       y1="90.312759"
       x2="26.5"
       y2="6.9171443" />
    <linearGradient
       inkscape:collect="always"
       xlink:href="#ButtonShadow"
       id="linearGradient3873"
       gradientUnits="userSpaceOnUse"
       gradientTransform="matrix(1.0277778,0,0,1.0127315,-1.333333,0.03087963)"
       x1="26.5"
       y1="90.312759"
       x2="26.5"
       y2="6.9171443" />
    <linearGradient
       inkscape:collect="always"
       xlink:href="#ButtonShadow"
       id="linearGradient3879"
       gradientUnits="userSpaceOnUse"
       gradientTransform="matrix(1.0277778,0,0,1.0127315,-1.333333,0.03087963)"
       x1="26.5"
       y1="90.312759"
       x2="26.5"
       y2="6.9171443" />
    <linearGradient
       inkscape:collect="always"
       xlink:href="#ButtonShadow"
       id="linearGradient3883"
       gradientUnits="userSpaceOnUse"
       gradientTransform="matrix(1.0277778,0,0,1.0127315,-1.333333,0.03087963)"
       x1="26.5"
       y1="90.312759"
       x2="26.5"
       y2="6.9171443" />
    <linearGradient
       inkscape:collect="always"
       xlink:href="#linearGradient3348-8"
       id="linearGradient3931-5"
       gradientUnits="userSpaceOnUse"
       gradientTransform="matrix(0.72,0,0,0.72,1.92,-5.52)"
       x1="34.85965"
       y1="17.736111"
       x2="34.85965"
       y2="26.986736" />
    <linearGradient
       id="linearGradient3348-8">
      <stop
         style="stop-color:#ddbf8b;stop-opacity:1;"
         offset="0"
         id="stop3350-2" />
      <stop
         id="stop3356-2"
         offset="0.71691591"
         style="stop-color:#c29856;stop-opacity:1;" />
      <stop
         style="stop-color:#a2773a;stop-opacity:1;"
         offset="1"
         id="stop3352-0" />
    </linearGradient>
    <linearGradient
       inkscape:collect="always"
       xlink:href="#linearGradient3187-4"
       id="linearGradient3706-6"
       x1="48"
       y1="78"
       x2="48"
       y2="5.9877172"
       gradientUnits="userSpaceOnUse"
       gradientTransform="translate(0,8)" />
    <linearGradient
       id="linearGradient3187-4">
      <stop
         style="stop-color:#c29656;stop-opacity:1;"
         offset="0"
         id="stop3189-3" />
      <stop
         style="stop-color:#ddc08b;stop-opacity:1;"
         offset="1"
         id="stop3191-7" />
    </linearGradient>
    <linearGradient
       inkscape:collect="always"
       xlink:href="#linearGradient3187-8"
       id="linearGradient3706-2"
       x1="48"
       y1="78"
       x2="48"
       y2="5.9877172"
       gradientUnits="userSpaceOnUse"
       gradientTransform="translate(0,8)" />
    <linearGradient
       id="linearGradient3187-8">
      <stop
         style="stop-color:#c29656;stop-opacity:1;"
         offset="0"
         id="stop3189-2" />
      <stop
         style="stop-color:#ddc08b;stop-opacity:1;"
         offset="1"
         id="stop3191-78" />
    </linearGradient>
    <linearGradient
       inkscape:collect="always"
       xlink:href="#ButtonShadow"
       id="linearGradient3972"
       x1="47.746864"
       y1="90.862831"
       x2="47.746864"
       y2="7.0022745"
       gradientUnits="userSpaceOnUse"
       gradientTransform="translate(120,0)" />
    <linearGradient
       inkscape:collect="always"
       xlink:href="#ButtonShadow"
       id="linearGradient3981"
       x1="37.121895"
       y1="91.826683"
       x2="37.121895"
       y2="7.0726428"
       gradientUnits="userSpaceOnUse"
       gradientTransform="translate(120,0)" />
    <linearGradient
       inkscape:collect="always"
       xlink:href="#ButtonShadow"
       id="linearGradient3989"
       gradientUnits="userSpaceOnUse"
       gradientTransform="translate(0,1)"
       x1="37.121895"
       y1="91.826683"
       x2="37.121895"
       y2="7.0726428" />
    <linearGradient
       inkscape:collect="always"
       xlink:href="#ButtonShadow"
       id="linearGradient3997"
       gradientUnits="userSpaceOnUse"
       gradientTransform="translate(120,0)"
       x1="37.121895"
       y1="91.826683"
       x2="37.121895"
       y2="7.0726428" />
    <linearGradient
       inkscape:collect="always"
       xlink:href="#ButtonShadow"
       id="linearGradient4006"
       gradientUnits="userSpaceOnUse"
       gradientTransform="translate(0,1)"
       x1="37.121895"
       y1="91.826683"
       x2="37.121895"
       y2="7.0726428" />
    <linearGradient
       inkscape:collect="always"
       xlink:href="#linearGradient4008"
       id="linearGradient3105"
       gradientUnits="userSpaceOnUse"
       gradientTransform="matrix(0.72,0,0,0.72,1.92,-5.52)"
       x1="34.85965"
       y1="16.275133"
       x2="34.85965"
       y2="26.986736" />
    <linearGradient
       inkscape:collect="always"
       xlink:href="#linearGradient4008-0"
       id="linearGradient3105-6"
       gradientUnits="userSpaceOnUse"
       gradientTransform="matrix(0.72,0,0,0.72,1.92,-5.52)"
       x1="34.85965"
       y1="16.275133"
       x2="34.85965"
       y2="26.986736" />
    <linearGradient
       id="linearGradient4008-0">
      <stop
         id="stop4010-8"
         offset="0"
         style="stop-color:#dab980;stop-opacity:1" />
      <stop
         style="stop-color:#c29856;stop-opacity:1;"
         offset="0.71691591"
         id="stop4012-5" />
      <stop
         id="stop4014-3"
         offset="1"
         style="stop-color:#a2773a;stop-opacity:1;" />
    </linearGradient>
    <linearGradient
       id="linearGradient3187-41">
      <stop
         style="stop-color:#c29656;stop-opacity:1;"
         offset="0"
         id="stop3189-5" />
      <stop
         style="stop-color:#ddc08b;stop-opacity:1;"
         offset="1"
         id="stop3191-4" />
    </linearGradient>
    <linearGradient
       inkscape:collect="always"
       xlink:href="#ButtonShadow"
       id="linearGradient3952"
       x1="43"
       y1="91"
       x2="43"
       y2="7"
       gradientUnits="userSpaceOnUse" />
    <linearGradient
       inkscape:collect="always"
       xlink:href="#ButtonShadow"
       id="linearGradient3961"
       x1="45"
       y1="92"
       x2="45"
       y2="7"
       gradientUnits="userSpaceOnUse" />
    <linearGradient
       inkscape:collect="always"
       xlink:href="#ButtonShadow"
       id="linearGradient3969"
       gradientUnits="userSpaceOnUse"
       x1="45"
       y1="92"
       x2="45"
       y2="7" />
    <linearGradient
       inkscape:collect="always"
       xlink:href="#ButtonShadow"
       id="linearGradient3977"
       gradientUnits="userSpaceOnUse"
       x1="45"
       y1="92"
       x2="45"
       y2="7" />
    <linearGradient
       inkscape:collect="always"
       xlink:href="#ButtonShadow"
       id="linearGradient3986"
       gradientUnits="userSpaceOnUse"
       x1="45"
       y1="92"
       x2="45"
       y2="7" />
    <linearGradient
       inkscape:collect="always"
       xlink:href="#linearGradient3892"
       id="linearGradient4086"
       gradientUnits="userSpaceOnUse"
       spreadMethod="reflect"
       x1="90"
       y1="88"
       x2="48"
       y2="88"
       gradientTransform="translate(0,10)" />
  </defs>
  <sodipodi:namedview
     id="base"
     pagecolor="#818181"
     bordercolor="#cc0000"
     borderopacity="1"
     inkscape:pageopacity="1"
     inkscape:pageshadow="2"
     inkscape:zoom="6.1158879"
     inkscape:cx="13.769957"
     inkscape:cy="39.714912"
     inkscape:document-units="px"
     inkscape:current-layer="layer3"
     showgrid="true"
     showborder="true"
     inkscape:showpageshadow="false"
     inkscape:window-width="1920"
     inkscape:window-height="1029"
     inkscape:window-x="0"
     inkscape:window-y="24"
     inkscape:window-maximized="1"
     inkscape:snap-global="true"
     showguides="true"
     inkscape:guide-bbox="true">
    <inkscape:grid
       type="xygrid"
       id="grid3732"
       visible="true"
       enabled="true"
       empspacing="8"
       snapvisiblegridlinesonly="true" />
    <sodipodi:guide
       orientation="0,1"
       position="60,68"
       id="guide4088" />
    <sodipodi:guide
       orientation="0,1"
       position="76,22"
       id="guide4090" />
  </sodipodi:namedview>
  <metadata
     id="metadata2413">
    <rdf:RDF>
      <cc:Work
         rdf:about="">
        <dc:format>image/svg+xml</dc:format>
        <dc:type
           rdf:resource="http://purl.org/dc/dcmitype/StillImage" />
        <dc:title />
      </cc:Work>
    </rdf:RDF>
  </metadata>
  <g
     inkscape:groupmode="layer"
     id="layer2"
     inkscape:label="Blur Shadow"
     style="display:none"
     sodipodi:insensitive="true">
    <path
       style="opacity:0.9;fill:url(#linearGradient3664);fill-opacity:1;fill-rule:nonzero;stroke:none;filter:url(#filter3174)"
       d="M 14.96875,8.8028918 C 13.32891,8.8028918 12,10.085142 12,11.677892 L 12,19 c -3.324,0 -7,2.676 -7,6 l 0,61 c 0,3.324 2.676,6 6,6 l 74,0 c 3.324,0 6,-2.676 6,-6 l 0,-61 c 0,-3.324 -3.74743,-6 -7.07143,-6 l 0,-0.134608 c 0,-2.389125 -1.97774,-4.3125 -4.4375,-4.3125 l -43.33482,0 -1.46875,-2.875 C 33.95414,10.253293 33.35859,8.8028918 31.71875,8.8028918 l -16.75,0 z"
       id="rect3745"
       sodipodi:nodetypes="cccccccccccccccc"
       inkscape:connector-curvature="0" />
  </g>
  <g
     inkscape:groupmode="layer"
     id="layer4"
     inkscape:label="Shadow"
     style="display:inline">
    <path
       sodipodi:type="inkscape:offset"
       inkscape:radius="0.92770815"
       inkscape:original="M 14.125 4.9375 C 10.184407 4.9375 6.9375 8.0807925 6.9375 12 L 6.9375 14.59375 C 4.5548901 16.215826 2.9375 18.887678 2.9375 22 L 2.9375 85 C 2.9375 90.001444 6.9985559 94.0625 12 94.0625 L 84 94.0625 C 89.001444 94.0625 93.0625 90.001444 93.0625 85 L 93.0625 22 C 93.0625 18.739154 91.28931 15.960259 88.71875 14.375 C 87.957559 11.279325 85.241489 8.9375 81.875 8.9375 L 42.0625 8.9375 C 40.465021 7.3963057 39.290438 6.2599842 38.21875 5.65625 C 36.945571 4.9390059 35.771277 4.9685784 34.84375 4.9375 A 1.043776 1.043776 0 0 0 34.8125 4.9375 L 34.78125 4.9375 L 14.125 4.9375 z "
       style="opacity:0.07999998;fill:url(#linearGradient3986);fill-opacity:1;fill-rule:nonzero;stroke:none;display:inline"
       id="path3984"
       d="M 14.125,4 C 9.6910704,4 6,7.568413 6,12 l 0,2.15625 C 3.6235961,15.958367 2,18.759045 2,22 l 0,63 c 0,5.503629 4.496371,10 10,10 l 72,0 c 5.503629,0 10,-4.496371 10,-10 L 94,22 C 94,18.516601 92.146607,15.546894 89.46875,13.78125 88.481551,10.491738 85.526024,8 81.875,8 l -39.5,0 C 40.972352,6.645177 39.835329,5.4903784 38.6875,4.84375 37.192287,4.0014231 35.756649,4.0295412 34.875,4 a 0.92780092,0.92780092 0 0 0 -0.03125,0 c -0.0012,-1.73e-5 -0.03009,-1.73e-5 -0.03125,0 L 34.78125,4 14.125,4 z" />
    <path
       sodipodi:type="inkscape:offset"
       inkscape:radius="1.0436716"
       inkscape:original="M 14.125 5.96875 C 10.736326 5.96875 7.96875 8.6567706 7.96875 12 L 7.96875 15.125 C 5.5936068 16.519016 3.96875 19.045462 3.96875 22 L 3.96875 85 C 3.96875 89.438141 7.5618586 93.03125 12 93.03125 L 84 93.03125 C 88.438141 93.03125 92.03125 89.438141 92.03125 85 L 92.03125 22 C 92.03125 18.968008 90.319005 16.395638 87.84375 15.03125 C 87.351857 12.17163 84.915107 9.96875 81.875 9.96875 L 41.6875 9.96875 C 39.852667 8.1939079 38.678863 7.1033787 37.71875 6.5625 C 36.681475 5.9781523 35.778304 6.0011109 34.8125 5.96875 A 1.043776 1.043776 0 0 0 34.78125 5.96875 L 14.125 5.96875 z "
       style="opacity:0.1;fill:url(#linearGradient3977);fill-opacity:1;fill-rule:nonzero;stroke:none;display:inline"
       id="path3975"
       d="M 14.125,4.9375 C 10.184407,4.9375 6.9375,8.0807925 6.9375,12 l 0,2.59375 c -2.3826099,1.622076 -4,4.293928 -4,7.40625 l 0,63 c 0,5.001444 4.0610559,9.0625 9.0625,9.0625 l 72,0 c 5.001444,0 9.0625,-4.061056 9.0625,-9.0625 l 0,-63 c 0,-3.260846 -1.77319,-6.039741 -4.34375,-7.625 C 87.957559,11.279325 85.241489,8.9375 81.875,8.9375 l -39.8125,0 C 40.465021,7.3963057 39.290438,6.2599842 38.21875,5.65625 36.945571,4.9390059 35.771277,4.9685784 34.84375,4.9375 a 1.043776,1.043776 0 0 0 -0.03125,0 c -10e-7,0 -0.03125,0 -0.03125,0 l -20.65625,0 z" />
    <path
       sodipodi:type="inkscape:offset"
       inkscape:radius="1.0436716"
       inkscape:original="M 14.125 7 C 11.282105 7 9 9.23 9 12 L 9 15.6875 C 6.6359408 16.808884 5 19.200342 5 22 L 5 85 C 5 88.878 8.122 92 12 92 L 84 92 C 87.878 92 91 88.878 91 85 L 91 22 C 91 19.190264 89.346632 16.803629 86.96875 15.6875 C 86.799101 13.069075 84.606585 11 81.875 11 L 41.28125 11 C 37.060722 6.8876898 36.778482 7.0669206 34.78125 7 L 14.125 7 z "
       style="opacity:0.2;fill:url(#linearGradient3969);fill-opacity:1;fill-rule:nonzero;stroke:none;display:inline"
       id="path3967"
       d="M 14.125,5.96875 C 10.736326,5.96875 7.96875,8.6567706 7.96875,12 l 0,3.125 c -2.3751432,1.394016 -4,3.920462 -4,6.875 l 0,63 c 0,4.438141 3.5931086,8.03125 8.03125,8.03125 l 72,0 c 4.438141,0 8.03125,-3.593109 8.03125,-8.03125 l 0,-63 c 0,-3.031992 -1.712245,-5.604362 -4.1875,-6.96875 -0.491893,-2.85962 -2.928643,-5.0625 -5.96875,-5.0625 l -40.1875,0 C 39.852667,8.1939079 38.678863,7.1033787 37.71875,6.5625 36.681475,5.9781523 35.778304,6.0011109 34.8125,5.96875 a 1.043776,1.043776 0 0 0 -0.03125,0 l -20.65625,0 z" />
    <path
       style="opacity:0.3;fill:url(#linearGradient3961);fill-opacity:1;fill-rule:nonzero;stroke:none;display:inline"
       d="M 14.125,7 C 11.282105,7 9,9.23 9,12 l 0,3.6875 C 6.6359408,16.808884 5,19.200342 5,22 l 0,63 c 0,3.878 3.122,7 7,7 l 72,0 c 3.878,0 7,-3.122 7,-7 L 91,22 C 91,19.190264 89.346632,16.803629 86.96875,15.6875 86.799101,13.069075 84.606585,11 81.875,11 l -40.59375,0 c -4.220528,-4.1123102 -4.502768,-3.9330794 -6.5,-4 L 14.125,7 z"
       id="path3908-1"
       inkscape:connector-curvature="0" />
    <path
       style="opacity:0.45;fill:url(#linearGradient3952);fill-opacity:1;fill-rule:nonzero;stroke:none;display:inline"
       d="m 15,7 c -2.77,0 -5,2.23 -5,5 l 0,3.34375 C 7.6664933,16.164656 6,18.378887 6,21 l 0,64 c 0,3.324 2.676,6 6,6 l 72,0 c 3.324,0 6,-2.676 6,-6 L 90,21 C 90,18.358112 88.300137,16.148775 85.9375,15.34375 85.611464,12.893448 83.542274,11 81,11 L 40.46875,11 C 36.35644,6.8876898 36.102271,7.0669206 34.15625,7 L 15,7 z"
       id="path3941"
       inkscape:connector-curvature="0" />
  </g>
  <g
     inkscape:groupmode="layer"
     id="layer3"
     inkscape:label="Background"
     style="display:inline">
    <rect
       style="fill:url(#linearGradient3361);fill-opacity:1;fill-rule:nonzero;stroke:none;display:inline"
       id="rect3352"
       width="75"
       height="62.678574"
       x="10.535714"
       y="23.142857"
       rx="6"
       ry="6" />
    <path
       style="fill:url(#linearGradient3105);fill-opacity:1;fill-rule:nonzero;stroke:none;display:inline"
       d="m 15,6 c -2.77,0 -5,2.23 -5,5 l 0,59.8125 c 0,2.39328 1.91922,4.3125 4.3125,4.3125 l 67.375,0 C 84.08078,75.125 86,73.20578 86,70.8125 L 86,15 c 0,-2.77 -2.23,-5 -5,-5 L 40.46875,10 C 36.35644,5.8876898 36.102271,6.0669206 34.15625,6 z"
       id="path3908"
       inkscape:connector-curvature="0"
       sodipodi:nodetypes="cccsscccccc" />
    <path
       style="opacity:0.15;fill:#ffffff;fill-opacity:1;fill-rule:nonzero;stroke:none;display:inline"
       d="m 15,6 c -2.77,0 -5,2.23 -5,5 l 0,59.8125 c 0,2.39328 1.91922,4.3125 4.3125,4.3125 l 67.375,0 C 84.08078,75.125 86,73.20578 86,70.8125 L 86,15 c 0,-2.77 -2.23,-5 -5,-5 L 40.46875,10 C 36.35644,5.8876898 36.102271,6.0669206 34.15625,6 L 15,6 z m 0,1.03125 19.125,0 0.03125,0 c 0.964976,0.031157 1.192535,-0.016972 1.8125,0.34375 0.630289,0.366729 1.706808,1.3318077 3.75,3.375 a 1.043776,1.043776 0 0 0 0.75,0.28125 l 40.53125,0 c 2.209859,0 3.96875,1.758891 3.96875,3.96875 l 0,55.8125 c 0,1.835319 -1.445931,3.28125 -3.28125,3.28125 l -67.375,0 c -1.835319,0 -3.28125,-1.445931 -3.28125,-3.28125 l 0,-59.8125 c 0,-2.2098586 1.758891,-3.96875 3.96875,-3.96875 z"
       id="path3108"
       inkscape:connector-curvature="0" />
  </g>
  <g
     inkscape:label="Foreground"
     inkscape:groupmode="layer"
     id="layer1"
     style="display:inline">
    <rect
       style="fill:url(#linearGradient3706);fill-opacity:1;fill-rule:nonzero;stroke:none"
       id="rect2419"
       width="84"
       height="76"
       x="6"
       y="14"
       rx="6"
       ry="6" />
    <path
       style="opacity:0.35;fill:url(#linearGradient3094);fill-opacity:1;fill-rule:nonzero;stroke:none"
       d="M 12,86 C 8.676,86 6,83.324 6,80 L 6,20 c 0,-3.324 2.676,-6 6,-6 l 72,0 c 3.324,0 6,2.676 6,6 l 0,60 c 0,3.324 -2.676,6 -6,6 z m 0,-0.96875 72,0 c 2.80489,0 5.03125,-2.22636 5.03125,-5.03125 l 0,-60 c 0,-2.80489 -2.22636,-5.03125 -5.03125,-5.03125 l -72,0 c -2.8048898,0 -5.03125,2.22636 -5.03125,5.03125 l 0,60 c 0,2.80489 2.2263602,5.03125 5.03125,5.03125 z"
       id="rect4377"
       inkscape:connector-curvature="0"
       sodipodi:nodetypes="ssssssssssssssssss" />
    <path
       style="opacity:0.1;fill:#ffffff;fill-opacity:1;fill-rule:nonzero;stroke:none"
       d="m 6,78 0,2 c 0,3.324 2.676,6 6,6 l 72,0 c 3.324,0 6,-2.676 6,-6 l 0,-2 c 0,3.324 -2.676,6 -6,6 L 12,84 C 8.676,84 6,81.324 6,78 z"
       id="rect3841"
       inkscape:connector-curvature="0" />
  </g>
  <g
     inkscape:groupmode="layer"
     id="layer7"
     inkscape:label="Bottom Edge"
     style="display:inline">
    <path
       style="opacity:1;fill:#6287c0;fill-opacity:1;fill-rule:nonzero;stroke:none;display:inline"
       d="m 6,80 0,4 c 0,3.324 2.676,6 6,6 l 72,0 c 3.324,0 6,-2.676 6,-6 l 0,-4 c 0,3.324 -2.676,6 -6,6 L 12,86 C 8.676,86 6,83.324 6,80 z"
       id="path3067"
       inkscape:connector-curvature="0" />
    <g
       id="g4081"
       transform="translate(0,-10)">
      <path
         style="opacity:0.5;fill:url(#linearGradient4086);fill-opacity:1;fill-rule:nonzero;stroke:none;display:inline"
         d="m 6,90 0,4 c 0,3.324 2.676,6 6,6 l 72,0 c 3.324,0 6,-2.676 6,-6 l 0,-4 c 0,3.324 -2.676,6 -6,6 L 12,96 C 8.676,96 6,93.324 6,90 z"
         id="path3888"
         inkscape:connector-curvature="0" />
      <path
         inkscape:connector-curvature="0"
         id="rect4345"
         d="m 6,92 0,2 c 0,3.324 2.676,6 6,6 l 72,0 c 3.324,0 6,-2.676 6,-6 l 0,-2 c 0,3.324 -2.676,6 -6,6 L 12,98 C 8.676,98 6,95.324 6,92 z"
         style="opacity:0.1;color:#000000;fill:#000000;fill-opacity:1;fill-rule:nonzero;stroke:none;stroke-width:1.5;marker:none;visibility:visible;display:inline;overflow:visible;enable-background:accumulate" />
      <path
         inkscape:connector-curvature="0"
         id="rect4336"
         d="m 6,93 0,1 c 0,3.324 2.676,6 6,6 l 72,0 c 3.324,0 6,-2.676 6,-6 l 0,-1 c 0,3.324 -2.676,6 -6,6 L 12,99 C 8.676,99 6,96.324 6,93 z"
         style="opacity:0.15;color:#000000;fill:#000000;fill-opacity:1;fill-rule:nonzero;stroke:none;stroke-width:1.5;marker:none;visibility:visible;display:inline;overflow:visible;enable-background:accumulate" />
    </g>
  </g>
  <g
     inkscape:groupmode="layer"
     id="layer5"
     inkscape:label="Highlight"
     style="display:inline"
     sodipodi:insensitive="true">
    <path
       style="opacity:0.1;fill:url(#linearGradient3123);fill-opacity:1;fill-rule:nonzero;stroke:none;filter:url(#filter3870)"
       clip-path="url(#clipPath3860)"
       d="m 15.96875,22.53125 c -2.845903,0.0043 -5.433244,2.591597 -5.4375,5.4375 l 0,48.0625 c 0.0043,2.845903 2.591597,5.433244 5.4375,5.4375 l 64.0625,0 c 2.845903,-0.0043 5.433244,-2.591597 5.4375,-5.4375 l 0,-48.0625 c -0.0043,-2.845903 -2.591597,-5.433244 -5.4375,-5.4375 z"
       id="path3850"
       inkscape:connector-curvature="0"
       sodipodi:nodetypes="ccccccccc" />
    <rect
       style="color:#000000;fill:#a7c1e7;fill-opacity:1;fill-rule:nonzero;stroke:none;stroke-width:2;marker:none;visibility:visible;display:inline;overflow:visible;enable-background:accumulate"
       id="rect3108"
       width="8"
       height="8"
       x="104"
       y="0" />
    <rect
       y="16"
       x="104"
       height="8"
       width="8"
       id="rect3878"
       style="color:#000000;fill:#618fd3;fill-opacity:1;fill-rule:nonzero;stroke:none;stroke-width:2;marker:none;visibility:visible;display:inline;overflow:visible;enable-background:accumulate" />
    <rect
       y="0"
       x="120"
       height="8"
       width="8"
       id="rect3880"
       style="color:#000000;fill:#90b0e0;fill-opacity:1;fill-rule:nonzero;stroke:none;stroke-width:2;marker:none;visibility:visible;display:inline;overflow:visible;enable-background:accumulate" />
    <rect
       style="color:#000000;fill:#5284d0;fill-opacity:1;fill-rule:nonzero;stroke:none;stroke-width:2;marker:none;visibility:visible;display:inline;overflow:visible;enable-background:accumulate"
       id="rect3882"
       width="8"
       height="8"
       x="120"
       y="16" />
  </g>
  <g
     inkscape:groupmode="layer"
     id="layer6"
     inkscape:label="Symbol"
     sodipodi:insensitive="true" />
</svg>
