<svg width="96" height="96" version="1.1" xmlns="http://www.w3.org/2000/svg">
<path d="m 46,20 c -3.324,0 -6,2.676 -6,6 v 2 h 24 c 2.216,0 4,1.784 4,4 v 32 c 0,2.216 -1.784,4 -4,4 H 40 v 2 c 0,3.324 2.676,6 6,6 h 24 c 3.324,0 6,-2.676 6,-6 V 26 c 0,-3.324 -2.676,-6 -6,-6 z m -22,8 c -2.216,0 -4,1.7184 -4,4 v 4 h 36 c 0,-2.216 -1.784,-4 -4,-4 H 36 c 0,-2.216 -1.784,-4 -4,-4 z m -4,12 v 6 6 6 c 0,3.324 2.676,6 6,6 h 24 c 0.4156,0 0.8588,-0.044 1.25,-0.124 C 53.9892,63.316 56,60.908 56,58 V 52 46 40 H 50 26 Z" id="path2" fill="#bebebe" stroke-width="4"/>
</svg>