<svg width="96" height="96" version="1.1" xmlns="http://www.w3.org/2000/svg">
<path d="m 46,20 c -3.324,0 -6,2.676 -6,6 v 2 h 24 c 2.216,0 4,1.784 4,4 v 32 c 0,2.216 -1.784,4 -4,4 H 40 v 2 c 0,3.324 2.676,6 6,6 h 24 c 3.324,0 6,-2.676 6,-6 V 26 c 0,-3.324 -2.676,-6 -6,-6 z M 26,32 c -3.324,0 -6,2.676 -6,6 v 20 c 0,3.324 2.676,6 6,6 h 8 c -3.324,0 -6,-2.676 -6,-6 V 54 42 38 c 0,-3.324 2.676,-6 6,-6 z m 12,0 c -3.324,0 -6,2.676 -6,6 v 20 c 0,3.324 2.676,6 6,6 h 16 c 3.324,0 6,-2.676 6,-6 V 38 c 0,-3.324 -2.676,-6 -6,-6 z m 4,8 h 8 c 1.108,0 2,0.892 2,2 v 12 c 0,1.108 -0.892,2 -2,2 h -8 c -1.108,0 -2,-0.892 -2,-2 V 42 c 0,-1.108 0.892,-2 2,-2 z" id="path2" fill="#bebebe" stroke-width="4"/>
</svg>