<svg width="96" height="96" version="1.1" xmlns="http://www.w3.org/2000/svg">
	<path d="m22.5 21c-.831 0-1.5.669-1.5 1.5v9c0 .831.669 1.5 1.5 1.5h9c.831 0 1.5-.669 1.5-1.5v-9c0-.831-.669-1.5-1.5-1.5zm21 0c-.831 0-1.5.669-1.5 1.5v9c0 .831.669 1.5 1.5 1.5h9c.831 0 1.5-.669 1.5-1.5v-9c0-.831-.669-1.5-1.5-1.5zm21 0c-.831 0-1.5.669-1.5 1.5v9c0 .831.669 1.5 1.5 1.5h9c.831 0 1.5-.669 1.5-1.5v-9c0-.831-.669-1.5-1.5-1.5zm-42 21c-.831 0-1.5.669-1.5 1.5v9c0 .831.669 1.5 1.5 1.5h9c.831 0 1.5-.669 1.5-1.5v-9c0-.831-.669-1.5-1.5-1.5zm21 0c-.831 0-1.5.669-1.5 1.5v9c0 .831.669 1.5 1.5 1.5h9c.831 0 1.5-.669 1.5-1.5v-9c0-.831-.669-1.5-1.5-1.5zm21 0c-.831 0-1.5.669-1.5 1.5v9c0 .831.669 1.5 1.5 1.5h9c.831 0 1.5-.669 1.5-1.5v-9c0-.831-.669-1.5-1.5-1.5zm-42 21c-.831 0-1.5.669-1.5 1.5v9c0 .831.669 1.5 1.5 1.5h9c.831 0 1.5-.669 1.5-1.5v-9c0-.831-.669-1.5-1.5-1.5zm21 0c-.831 0-1.5.669-1.5 1.5v9c0 .831.669 1.5 1.5 1.5h9c.831 0 1.5-.669 1.5-1.5v-9c0-.831-.669-1.5-1.5-1.5zm21 0c-.831 0-1.5.669-1.5 1.5v9c0 .831.669 1.5 1.5 1.5h9c.831 0 1.5-.669 1.5-1.5v-9c0-.831-.669-1.5-1.5-1.5z" fill="#bebebe" stroke-width=".75"/>
</svg>
