<svg width="96" height="96" version="1.1" xmlns="http://www.w3.org/2000/svg">
<path d="m 36,32 -8,8 h -4 -2 c -1.108,0 -2,0.892 -2,2 v 12 c 0,1.108 0.892,2 2,2 h 2 4 l 8,8 z m 12.242,3.22656 -6.242,5.086 a 16,16 0 0 1 2,7.6876 16,16 0 0 1 -2,7.7032 l 6.258,5.0936 a 24,24 0 0 0 3.7422,-12.7968 24,24 0 0 0 -3.7578,-12.7736 z" id="path2" fill="#bebebe" stroke-width="4"/><path d="m 66.936,20 -6.258,5.0936 A 40,40 0 0 1 67.9984,48 40,40 0 0 1 60.686,70.922 L 66.9124,76 A 48,48 0 0 0 75.9984,48 48,48 0 0 0 66.936,20 Z m -9.336,7.6016 -6.242,5.086 A 28,28 0 0 1 55.9988,48 28,28 0 0 1 51.3504,63.3204 l 6.2032,5.0548 A 36,36 0 0 0 63.9988,48 36,36 0 0 0 57.6004,27.6016 Z" id="path4" opacity="0.45" fill="#bebebe" stroke-width="4"/>
</svg>