<svg width="96" height="96" version="1.1" xmlns="http://www.w3.org/2000/svg">
<path d="m 44.0312,20 v 22.3984 l -9.4532,-9.4608 -3.3904,3.4376 11.578,11.578 -11.672,11.6708 3.43,3.392 9.5076,-9.508 V 76 L 52,68.032 V 62.5 c 0,-0.56 0.1172,-1.072 0.2736,-1.564 l -3.8672,3.86 V 53.086 L 53.7892,58.6 C 54.43,57.984 55.1636,57.444 56,57.048 V 54.3752 L 49.4452,47.8124 60.788,36.5156 Z m 4.3752,10.7264 5.7888,5.8828 -5.7888,5.7892 z M 62.5,48 C 61.116,48 60,49.1152 60,50.5 V 60 H 58.5 C 57.116,60 56,61.116 56,62.5 v 11 c 0,1.384 1.116,2.5 2.5,2.5 h 15 c 1.384,0 2.5,-1.116 2.5,-2.5 v -11 C 76,61.116 74.884,60 73.5,60 H 72 V 50.5 C 72,49.1152 70.884,48 69.5,48 Z m 1.5,4 h 4 v 8 h -4 z" id="path2" fill="#bebebe" stroke-width="4"/>
</svg>