<svg width="96" height="96" version="1.1" xmlns="http://www.w3.org/2000/svg">
<path d="m 48,36.1248 c -0.9688,0.0436 -1.79,0.04 -2.992,0.1408 -6.804,0.57 -12.5268,2.1736 -17.3988,4.8592 -2.244,1.24 -3.016,1.8388 -4.328,3.3988 -2.616,3.112 -3.91672,8.008 -2.9688,11.156 0.268,0.8924 0.4592,1.1644 1.8752,2.6004 1.804,1.828 2.1664,1.98 3.3984,1.456 1.968,-0.84 9.5784,-4.8796 9.8904,-5.2516 0.512,-0.612 0.9108,-2.9976 0.8828,-5.2656 -0.028,-2.524 0.1412,-2.7512 2.6252,-3.5312 C 42.0364,44.7272 45.022,44.29 48,44.25 c 2.978,0.04 5.9636,0.4772 9.016,1.4376 2.484,0.78 2.652,1.0072 2.624,3.5312 -0.028,2.268 0.372,4.6536 0.884,5.2656 0.312,0.372 7.924,4.4116 9.892,5.2516 1.232,0.524 1.592,0.372 3.396,-1.456 1.416,-1.436 1.608,-1.708 1.876,-2.6004 0.948,-3.148 -0.352,-8.044 -2.968,-11.156 -1.312,-1.56 -2.084,-2.1588 -4.328,-3.3988 C 63.52,38.4392 57.796,36.8356 50.992,36.2656 49.79,36.1648 48.9688,36.1684 48,36.1248 Z" id="path2" fill="#d40000" stroke-width="4"/>
</svg>