<svg width="96" height="96" version="1.1" xmlns="http://www.w3.org/2000/svg">
<path d="m 34.0624,20 c -3.3092,0 -5.9732,2.676 -5.9732,6 v 4.25 13.8752 h -2.11556 c -3.3096,-4e-4 -5.9736,2.6756 -5.9736,5.9996 V 62.248 c 0,3.324 2.66412,6 5.9732,6 h 2.11556 v 0.5 1.25 c 0,3.324 2.66412,6 5.9732,6 h 27.8756 c 1.036,0 2.016,-0.288 2.864,-0.752 l -3.236,-3.248 -2.364,-2.376 -0.248,-0.248 0.124,-0.128 c -0.968,-1.044 -1.044,-2.1 -1.244,-3.124 C 51.094,69.35 42.8416,68.418 37.2992,62.874 36.6576,62.23 36.206,61.462 35.6816,60.75 35.6664,60.726 35.572,60.77 35.5572,60.75 35.446,60.59 35.4172,60.406 35.31,60.246 34.9688,59.75 34.6,59.27 34.3144,58.75 c -0.1072,-0.208 -0.15,-0.424 -0.2488,-0.632 -0.428,-0.856 -0.8364,-1.712 -1.12,-2.622 -0.2984,-0.9532 -0.4836,-1.8912 -0.6224,-2.8752 -0.5448,-3.8664 0.1988,-7.7596 2.1156,-11.25 0.4736,-0.8624 0.994,-1.712 1.6176,-2.5 v -8.8752 c 0,-1.108 0.88804,-2 1.99112,-2 h 19.9112 c 1.10308,0 1.99112,0.892 1.99112,2 v 4.8752 c 0.04804,0.03072 0.07664,0.0938 0.12444,0.125 0.47796,0.31124 0.91608,0.6426 1.36888,1 0.5084,0.40608 1.02432,0.7806 1.49332,1.25 5.5152,5.5196 6.4196,13.7728 3.23556,20.5 1.11332,0.19564 2.27844,0.13908 3.36,1.25 0.04896,0.05028 0.0768,0.07212 0.12444,0.125 l 5.7244,5.75 c 0.37656,-0.78724 0.62224,-1.69012 0.62224,-2.625 v -12.25 c 0,-3.324 -2.66412,-6 -5.9732,-6 h -2.11556 v -5.25 -12.75 c 0,-3.324 -2.66412,-6 -5.9732,-6 h -27.8756 z m 16.0532,16 c -3.5988,0 -7.212,1.3792 -9.9556,4.1248 -5.4876,5.492 -5.4876,14.3832 0,19.8752 4.784,4.7876 12.2208,5.4348 17.6712,1.875 0.92644,0.04644 2.33136,0.14732 2.86224,0.75 0.72284,0.82064 -0.26628,2.74924 1.12,4 l 8.588,8.752 c 0,0 1.61564,1.743 4.1068,-0.75 2.49104,-2.493 0.74668,-4.1248 0.74668,-4.1248 l -8.5868,-8.75 c -1.24976,-1.38736 -3.1622,-0.27664 -3.98224,-1 -0.60224,-0.53128 -0.7002,-2.0728 -0.74668,-3 3.55708,-5.4548 2.91724,-12.8372 -1.86668,-17.6252 -2.74376,-2.74592 -6.3568,-4.1248 -9.9556,-4.1248 z m 0,4.75 c 5.1736,0 9.4576,4.1972 9.4576,9.3752 0,5.1776 -4.284,9.3752 -9.4576,9.3752 -5.1736,0 -9.3332,-4.1972 -9.3332,-9.3752 0,-2.58888 1.04132,-5.0524 2.73776,-6.75 1.69644,-1.69776 4.0088,-2.625 6.5956,-2.625 z" id="path2" fill="#bebebe" stroke-width="4"/>
</svg>