<svg width="96" height="96" version="1.1" xmlns="http://www.w3.org/2000/svg">
<path d="m 30,20 c -0.4156,0 -0.8588,0.0452 -1.25,0.1248 -1.3076,0.2664 -2.414,0.912 -3.25,1.8752 -0.078,0.0876 -0.1772,0.158 -0.25,0.25 -0.3388,0.4404 -0.5432,0.9728 -0.75,1.5 -0.048,0.1208 -0.0844,0.2504 -0.1248,0.3748 C 24.1848,24.7112 24,25.3492 24,26 v 2 40 2 c 0,0.65096 0.185,1.289 0.375,1.875 0.04044,0.12468 0.0768,0.25408 0.125,0.375 0.20692,0.52716 0.41112,1.05968 0.75,1.5 0.07276,0.0922 0.17204,0.16232 0.25,0.25 0.8362,0.96316 1.94224,1.60876 3.25,1.875 0.3912,0.08 0.8344,0.124 1.25,0.124 h 2 32 2 c 1.14264,0 2.21788,-0.32496 3.125,-0.875 0.07996,-0.04872 0.17264,-0.07264 0.25,-0.125 0.41672,-0.28104 0.79216,-0.62568 1.125,-1 0.07652,-0.08816 0.17872,-0.15736 0.25,-0.25 0.354,-0.44856 0.5348,-0.96016 0.75,-1.5 0.04948,-0.12608 0.08388,-0.2448 0.125,-0.375 0.192,-0.588 0.376,-1.224 0.376,-1.876 v -2 -8 l -8,8 h -30 c -1.108,0 -2,-0.892 -2,-2 v -36 c 0,-1.108 0.892,-2 2,-2 h 30 l 8,8 v -8 -2 c 0,-0.6508 -0.184,-1.2888 -0.376,-1.8752 -0.04,-0.13 -0.076,-0.2488 -0.124,-0.3748 -0.216,-0.54 -0.396,-1.0516 -0.748,-1.5 -0.072,-0.0928 -0.176,-0.162 -0.252,-0.25 -0.396,-0.446 -0.86,-0.8136 -1.376,-1.1248 -0.236,-0.1448 -0.492,-0.2644 -0.748,-0.3752 -0.72,-0.3028 -1.544,-0.5 -2.376,-0.5 h -2 -32 z M 60,32 V 44 H 44 v 8 H 60 V 64 L 76,48 Z" id="path2" fill="#bebebe" stroke-width="4"/>
</svg>