<svg width="96" height="96" version="1.1" xmlns="http://www.w3.org/2000/svg">
<path d="m 34,20 c -3.324,0 -6,2.676 -6,6 v 36 c 0,2.012 0.9896,3.772 2.5,4.86 C 31.946,65.212 33.7876,64 36,64 c 2.7624,0 5.332,1.668 6.7812,4 h 3.7344 L 45.3984,67.04 A 4.0004,4.0004 0 0 1 47.8592,60 H 38 c -1.108,0 -2,-0.892 -2,-2 V 30 c 0,-1.108 0.892,-2 2,-2 h 18 2 10 v -2 c 0,-3.324 -2.676,-6 -6,-6 z m 22,12 v 4 h 12 v -4 z m 0,8 v 8 h 12 v -8 z m 0,12 V 64 H 48 L 62,76 76,64 H 68 V 52 Z M 24,68 a 4,4 0 0 0 -4,4 4,4 0 0 0 4,4 4,4 0 0 0 4,-4 4,4 0 0 0 -4,-4 z m 12,0 a 4,4 0 0 0 -4,4 4,4 0 0 0 4,4 4,4 0 0 0 4,-4 4,4 0 0 0 -4,-4 z" id="path2" fill="#bebebe" stroke-width="4"/>
</svg>