<svg width="96" height="96" version="1.1" xmlns="http://www.w3.org/2000/svg">
<path d="m 28,20 c -2.216,0 -4,1.784 -4,4 v 4 h 48 c 0,-2.216 -1.784,-4 -4,-4 H 44 c 0,-2.216 -1.784,-4 -4,-4 z m -4,12 c -2.216,0 -4,1.784 -4,4 v 28 c 0,2.216 1.784,4 4,4 h 12 v 2 c 0,3.324 2.676,6 6,6 h 14 10 c 3.324,0 6,-2.676 6,-6 v -2 c 2.216,0 4,-1.784 4,-4 V 36 c 0,-2.216 -1.784,-4 -4,-4 H 66 42 Z m 22,8 h 16 c 1.108,0 2,0.892 2,2 v 24 c 0,1.108 -0.892,2 -2,2 H 56 46 c -1.108,0 -2,-0.892 -2,-2 V 42 c 0,-1.108 0.892,-2 2,-2 z" id="path2" fill="#bebebe" stroke-width="4"/>
</svg>