<svg width="96" height="96" version="1.1" xmlns="http://www.w3.org/2000/svg">
<path d="m 30,20 c -0.8312,0 -1.6568,0.1972 -2.3752,0.5 -0.2584,0.1108 -0.5124,0.2304 -0.7496,0.3752 C 26.3616,21.1864 25.8964,21.554 25.5,22 c -0.0764,0.088 -0.1788,0.1572 -0.25,0.25 -0.354,0.4484 -0.5348,0.96 -0.75,1.5 -0.0496,0.126 -0.084,0.2448 -0.1248,0.3748 C 24.1848,24.7112 24,25.3492 24,26 v 2 12 h 8 V 30 c 0,-1.108 0.892,-2 2,-2 h 28 c 1.108,0 2,0.892 2,2 v 36 c 0,1.108 -0.892,2 -2,2 H 34 c -1.108,0 -2,-0.892 -2,-2 V 56 h -8 v 12 2 c 0,0.65096 0.18496,1.289 0.375,1.875 0.04112,0.1302 0.07552,0.24892 0.125,0.375 0.2152,0.53984 0.396,1.05144 0.75,1.5 0.07128,0.09264 0.17348,0.16184 0.25,0.25 0.33284,0.37432 0.70828,0.71896 1.125,1 0.07736,0.05236 0.17004,0.07628 0.25,0.125 0.9068,0.552 1.982,0.876 3.1248,0.876 h 2 32 2 c 0.41552,0 0.85872,-0.04532 1.25,-0.125 1.30776,-0.26624 2.4138,-0.91184 3.25,-1.875 0.07796,-0.08768 0.17724,-0.1578 0.25,-0.25 0.33888,-0.44032 0.54308,-0.97284 0.75,-1.5 0.0482,-0.12092 0.08456,-0.25032 0.125,-0.375 0.192,-0.588 0.376,-1.224 0.376,-1.876 V 68 28 26 c 0,-0.6508 -0.184,-1.2888 -0.376,-1.8752 -0.04,-0.1244 -0.076,-0.254 -0.124,-0.3748 -0.208,-0.5272 -0.412,-1.0596 -0.748,-1.5 -0.076,-0.092 -0.176,-0.1624 -0.252,-0.25 -0.836,-0.9632 -1.944,-1.6088 -3.252,-1.8752 C 66.8608,20.0452 66.4168,20 66.0008,20 h -2 -32 z m 6,12 V 44 H 20 v 8 H 36 V 64 L 52,48 Z" id="path2" fill="#bebebe" stroke-width="4"/>
</svg>