<svg width="96" height="96" version="1.1" xmlns="http://www.w3.org/2000/svg">
<path d="m 25.7876,25.7664 c -7.7168,7.6884 -7.7168,20.1684 0,27.8572 6.7272,6.7028 17.0912,7.5956 24.756,2.6116 1.3028,0.06508 3.40372,0.24432 4.1504,1.08816 1.01648,1.14892 -0.4204,3.83488 1.52904,5.586 l 12.124,12.2848 c 0,0 2.24908,2.402 5.752,-1.08816 3.503,-3.49016 1.09216,-5.7312 1.09216,-5.7312 l -12.124,-12.28 c -1.76,-1.9444 -4.456,-0.5128 -5.608,-1.5252 -0.848,-0.744 -1.028,-2.8372 -1.092,-4.1352 5.004,-7.6364 4.108,-17.9624 -2.6208,-24.6652 -7.7168,-7.6884 -20.2428,-7.6884 -27.9596,0 z m 4.7328,4.5704 c 2.38564,-2.37688 5.682,-3.77232 9.32,-3.77232 7.2756,0 13.1788,5.8816 13.1788,13.1304 0,7.2488 -5.9032,13.1304 -13.1788,13.1304 -7.2756,4e-6 -13.1788,-5.8816 -13.1788,-13.1304 0,-3.62444 1.47336,-6.9812 3.859,-9.3584 z" id="path2" fill="#bebebe" stroke-width="4"/>
</svg>