<svg width="96" height="96" version="1.1" xmlns="http://www.w3.org/2000/svg">
<path d="m 39.7496,19.98344 c -5.0608,0 -10.1416,1.90572 -14,5.75 -7.7168,7.6884 -7.7168,20.1864 0,27.8752 6.7272,6.7028 17.0852,7.6088 24.75,2.625 1.3028,0.06512 3.50344,0.2812 4.25,1.125 1.01648,1.14892 -0.44944,3.74896 1.5,5.5 l 12.1248,12.3752 c 0,0 2.247,2.36516 5.75,-1.125 3.503,-3.49016 1.125,-5.75 1.125,-5.75 l -12.1248,-12.25 c -1.756,-1.946 -4.472,-0.4908 -5.624,-1.5036 -0.848,-0.7436 -1.06,-2.952 -1.124,-4.25 5,-7.6364 4.1,-17.9224 -2.6264,-24.6248 -3.8584,-3.8444 -8.9392,-5.75 -14,-5.75 z m 0.1248,6.6248 c 7.2756,0 13.1248,5.876 13.1248,13.1248 0,7.2488 -5.8496,13.1248 -13.1248,13.1248 -7.2756,6e-6 -13.25,-5.876 -13.25,-13.1248 0,-3.62444 1.48936,-6.998 3.875,-9.3752 2.38564,-2.37688 5.7372,-3.75 9.3752,-3.75 z m -15.8752,41.376 c -2.208,0 -4,1.792 -4,4 0,2.208 1.792,4 4,4 2.208,0 4,-1.792 4,-4 0,-2.208 -1.792,-4 -4,-4 z m 12,0 c -2.208,0 -4,1.792 -4,4 0,2.208 1.792,4 4,4 2.208,0 4,-1.792 4,-4 0,-2.208 -1.792,-4 -4,-4 z m 12,0 c -2.208,0 -4,1.792 -4,4 0,2.208 1.792,4 4,4 2.208,0 4,-1.792 4,-4 0,-2.208 -1.792,-4 -4,-4 z" id="path2" fill="#bebebe" stroke-width="4"/>
</svg>