<svg width="96" height="96" version="1.1" xmlns="http://www.w3.org/2000/svg">
<path d="m 28,20 c -2.216,0 -4,1.784 -4,4 -2.216,0 -4,1.784 -4,4 v 20 c 0,2.216 1.784,4 4,4 h 12.1248 c 0,-3.206 2.316,-5.5568 5.1252,-6.75 1.1932,-2.8092 3.544,-5.1252 6.75,-5.1252 h 8 V 28 c 0,-2.216 -1.784,-4 -4,-4 h -4 -8 c 0,-2.216 -1.784,-4 -4,-4 z m 20,24 c -2.216,0 -4,1.784 -4,4 -2.216,0 -4,1.784 -4,4 v 20 c 0,2.216 1.784,4 4,4 h 28 c 2.216,0 4,-1.784 4,-4 V 52 c 0,-2.216 -1.784,-4 -4,-4 h -4 -8 c 0,-2.216 -1.784,-4 -4,-4 z" id="path2" fill="#bebebe" stroke-width="4"/>
</svg>