<svg width="96" height="96" version="1.1" xmlns="http://www.w3.org/2000/svg">
<path d="m 48.1092,28 c -2.6872,0 -5.3752,0.167412 -8.0624,0.5078 -2.6872,0.3172 -5.3596,0.79488 -8.0236,1.42968 v 9.2892 c 1.9692,-1.0428 4.0972,-1.82996 6.3908,-2.35156 2.2936,-0.5216 4.7736,-0.78124 7.4376,-0.78124 3.29,0 5.7136,0.45256 7.2656,1.35936 1.5524,0.8844 2.32812,2.29116 2.32812,4.2188 v 0.95312 h -7.336 c -6.7184,0 -11.654,1.0464 -14.8048,3.1328 -3.1276,2.086 -4.6876,5.3608 -4.6876,9.828 0,3.6748 1.248,6.6644 3.75,8.9764 2.5256,2.292 5.8056,3.436 9.8364,3.436 2.9888,0 5.5244,-0.51848 7.6092,-1.56248 2.0852,-1.068 3.9632,-2.75832 5.6328,-5.0704 v 6.6328 h 12.5468 v -22.7188 c 0,-6.0996 -1.56784,-10.5048 -4.6952,-13.2032 -3.104,-2.7216 -8.1672,-4.0788 -15.1868,-4.0788 z m 0.875,21.8672 h 6.4608 v 1.39844 c -4e-5,2.4716 -0.79996,4.532 -2.39844,6.1876 -1.5984,1.63264 -3.5664,2.45312 -5.9064,2.45312 -1.87644,0 -3.34844,-0.4352 -4.414,-1.29688 -1.04252,-0.88432 -1.56252,-2.09084 -1.56248,-3.6328 0,-1.678 0.64812,-2.95088 1.94532,-3.81248 1.3204,-0.8616 3.2802,-1.29688 5.8752,-1.29688 z" id="path2" fill="#bebebe" stroke-width="4"/>
</svg>