<svg width="96" height="96" version="1.1" xmlns="http://www.w3.org/2000/svg">
<path d="m 47.6248,28 c -2.0408,0 -4.0956,0.1716 -6.2496,0.6248 -2.1544,0.4312 -4.3348,1.116 -6.6252,2 v 5.7504 C 36.6548,35.332 38.5616,34.6464 40.6248,34.1248 42.6884,33.6036 44.8232,33.25 47,33.25 c 3.424,0 6.118,0.7876 8,2.3748 1.904,1.5648 2.876,3.8704 2.876,6.7504 V 43 H 49 c -5.6916,0 -9.87,1.0732 -12.75,3.25 -1.908,1.454 -3.2148,3.376 -3.8748,5.75 H 28 v 4 h 3.8752 c 0.028,3.616 1.2364,6.576 3.5,8.752 2.3128,2.176 5.3496,3.248 9.2496,3.248 3.084,0 5.7436,-0.536 7.8752,-1.624 2.1316,-1.112 3.948,-2.812 5.376,-5.128 V 68 h 6.248 V 56 H 68 V 52 H 64.124 V 45.25 C 64.124,39.4452 62.72,35.1072 60,32.25 57.28,29.3928 53.1352,28 47.6248,28 Z m 4,19.8752 H 57.876 V 49.25 c 0,0.9764 -0.124,1.862 -0.252,2.75 H 38.8752 c 0.506,-0.9756 1.2748,-1.7968 2.2496,-2.3752 1.9504,-1.1564 5.4436,-1.7496 10.5,-1.7496 z M 38.1248,56 H 56.5 c -0.506,1.14 -1.096,2.212 -1.8752,3.124 -2.086,2.448 -4.7804,3.628 -8.2496,3.628 -2.5172,0 -4.5264,-0.584 -6,-1.876 C 39.0348,59.66 38.2372,57.996 38.1248,56 Z" id="path2" fill="#bebebe" stroke-width="4"/>
</svg>