<svg width="96" height="96" version="1.1" xmlns="http://www.w3.org/2000/svg">
<path d="m 24,28 c -2.216,0 -4,1.784 -4,4 v 32 c 0,2.216 1.784,4 4,4 h 48 c 2.216,0 4,-1.784 4,-4 V 32 c 0,-2.216 -1.784,-4 -4,-4 z m 0,4 h 8 v 8 h -8 z m 12,0 h 8 v 8 h -8 z m 12,0 h 8 v 8 h -8 z m 12,0 h 8 v 8 H 60 Z M 28,44 h 8 v 8 h -8 z m 12,0 h 8 v 8 h -8 z m 12,0 h 8 v 8 h -8 z m 12,0 h 8 v 8 H 64 Z M 24,56 h 8 v 8 h -8 z m 12,0 h 24 v 8 H 36 Z m 28,0 h 8 v 8 h -8 z" id="path2" fill="#bebebe" stroke-width="4"/>
</svg>