<svg width="96" height="96" version="1.1" xmlns="http://www.w3.org/2000/svg">
<path d="m 49.2092,20 c -0.788,0.012 -1.5956,0.308 -2.1392,0.8752 l -21.1036,21.006 c -0.7608,0.7368 -1.0492,1.894 -0.778,2.9176 0.2712,1.0236 1.0144,1.772 2.0424,2.0424 1.0276,0.27 2.178,-0.0204 2.9176,-0.778 L 50.3764,25.9324 H 66.908 V 42.854 L 40.7484,68.916 30.2456,58.412 47.4588,41.2976 h 3.9872 v 4.182 L 40.554,56.372 c -0.7608,0.736 -1.0492,1.796 -0.778,2.82 0.2712,1.024 1.1116,1.772 2.1396,2.044 1.0276,0.268 2.0804,-0.024 2.82,-0.78 L 56.504,48.6888 c 0.568,-0.5416 0.96,-1.2572 0.972,-2.0424 v -8.266 C 57.488,37.5856 57.164,36.8036 56.6,36.2408 56.036,35.678 55.2588,35.3532 54.4608,35.3656 H 46.292 c -0.7884,0.012 -1.596,0.308 -2.1396,0.8752 L 23.9244,56.372 c -1.1488,1.144 -1.1516,3.036 0,4.18 L 38.6092,75.14 c 1.1516,1.148 3.0324,1.144 4.1816,0 L 71.964,46.0632 c 0.572,-0.5416 0.964,-1.2572 0.976,-2.0424 l -0.1,-21.006 C 72.836,22.0972 72.412,21.2344 71.676,20.6808 71.156,20.266 70.588,20.0064 69.924,20 Z" id="path2" fill="#bebebe" stroke-width="4"/>
</svg>