<svg width="96" height="96" version="1.1" xmlns="http://www.w3.org/2000/svg">
<path d="m 48,20 c -15.4648,0 -28,12.5352 -28,28 0,4.6436 1.148,9.012 3.1484,12.868 C 24.6588,60.316 26.2856,60 28,60 V 40 a 4.0004,4.0004 0 0 1 4,-4 h 4 a 4.0004,4.0004 0 0 1 4,4 v 7.3048 c 0.3584,-4.1268 3.7804,-7.3752 8,-7.3752 4.458,0 8.072,3.6124 8.072,8.0704 0,4.458 -3.614,8.072 -8.072,8.072 -4.2196,0 -7.6416,-3.25 -8,-7.3768 V 70 c 0,1.612 -0.4812,3.104 -1.242,4.408 C 41.6548,75.42 44.7568,76 48,76 63.464,76 76,63.464 76,48 76,32.5352 63.464,20 48,20 Z M 32,40 V 64.876 C 30.82,64.36 29.4632,64 28,64 c -4.4184,0 -8,2.688 -8,6 0,3.312 3.5816,6 8,6 4.4184,0 8,-2.688 8,-6 V 40 Z" id="path2" fill="#bebebe" stroke-width="4"/>
</svg>