<svg width="96" height="96" version="1.1" xmlns="http://www.w3.org/2000/svg">
<path d="m 48,20 c -15.464,0 -28,12.5352 -28,28 0,0.964 0.0524,1.9128 0.1484,2.8516 0.0204,0.2008 0.0848,0.3864 0.1096,0.586 3.1408,-4.6072 7.8772,-8.6692 13.9452,-11.1408 A 4.0004,4.0004 0 0 1 35.5936,40 a 4.0004,4.0004 0 0 1 4.1172,4 c 0,1.2564 0.132,2.3048 0.2892,3.3124 0.0272,-0.314 0.0316,-0.6344 0.0936,-0.9372 0.7524,-3.678 4.0056,-6.4456 7.9064,-6.4456 4.458,0 8.072,3.6124 8.072,8.0704 0,4.458 -3.614,8.072 -8.072,8.072 -2.1312,0 -4.05,-0.8484 -5.492,-2.1968 0.4476,0.698 0.914,1.3816 1.406,2.078 1.1184,1.5828 2.3892,3.2068 3.2736,5.4228 0.884,2.216 1.104,5.104 0.164,7.896 -0.7876,2.34 -2.1992,4.508 -4.086,6.292 0.6216,0.104 1.24,0.224 1.8752,0.288 C 46.0812,75.948 47.0332,76 48,76 c 0.9668,0 1.9188,-0.052 2.8592,-0.148 0.5924,-0.06 1.1692,-0.168 1.75,-0.268 0.3216,-0.052 0.6512,-0.08 0.9688,-0.148 C 65.46,73.036 74.608,63.112 75.852,50.8516 75.948,49.9128 76,48.964 76,48 76,32.5352 63.464,20 48,20 Z M 35.7108,44 C 25.8908,48 20,57.372 20,64 c 0,6.14 4.5468,11.144 10.3908,11.852 -2.636,-0.596 -4.6096,-2.988 -4.6096,-5.852 0,-3.312 2.9436,-8 7.8516,-10 0,7 5.2696,8.012 3.9296,12 -0.764,2.26 -2.6236,3.98 -5.8436,4 h 0.0624 c 6.508,0 10.2492,-3.452 11.7812,-8 2.6852,-7.976 -7.8516,-10 -7.8516,-24 z m -4.32,22.852 c -0.7552,1.016 -1.182,1.884 -1.3988,2.524 1.0228,0.86 2.11,1.632 3.25,2.344 0.2472,-0.196 0.3132,-0.504 0.4612,-0.956 C 33.622,70.612 33.3816,70.208 32.836,69.436 32.4092,68.832 31.8892,67.82 31.3908,66.852 Z" id="path2" fill="#bebebe" stroke-width="4"/><path d="m 35.712,44 c 0,14 10.5372,16.024 7.852,24 -1.532,4.548 -5.276,8 -11.784,8 h -0.06 c 3.22,-0.02 5.08,-1.74 5.844,-4 1.34,-3.988 -3.932,-5 -3.932,-12 -4.908,2 -7.852,6.688 -7.852,10 0,2.864 1.976,5.256 4.612,5.852 C 24.548,75.144 20,70.14 20,64 20,57.372 25.892,48 35.712,44 Z" id="path4" fill="#d40000" stroke-width="4"/>
</svg>