<svg width="96" height="96" version="1.1" xmlns="http://www.w3.org/2000/svg">
<path d="m 48,20 c -14.4484,0 -26.3284,10.9488 -27.828,25 1.14664,-0.64148 2.44132,-1.03908 3.82812,-1.03908 h 15.7264 c 0.4276,0 0.83908,0.05786 1.25,0.125 1.37972,-2.46964 3.9928,-4.1564 7.0236,-4.1564 4.458,0 8.0704,3.61232 8.0704,8.0704 0,4.45808 -3.61232,8.0704 -8.0704,8.0704 -0.09389,0 -0.18032,-0.028 -0.273436,-0.0312 v 15.9608 c 0,1.42752 -0.41696,2.75956 -1.09376,3.92968 0.45664,0.022 0.90508,0.07032 1.3672,0.07032 15.464,0 28,-12.536 28,-28 0,-15.4648 -12.536,-28 -28,-28 z M 24,47.9608 c -2.216,0 -4,1.784 -4,4 V 72 c 0,2.216 1.784,4 4,4 h 15.7264 c 2.216,0 4,-1.784 4,-4 V 51.9608 c 0,-2.216 -1.784,-4 -4,-4 z M 24,52 H 39.7264 V 72 H 24 Z m 4,4 v 4 h 8 v -4 z m 0,8 v 4 h 8 v -4 z" id="path2" fill="#bebebe" stroke-width="4"/>
</svg>