<svg width="96" height="96" version="1.1" xmlns="http://www.w3.org/2000/svg">
<path d="m 42,20 c -12.1504,0 -22,9.8496 -22,22 0,7.0296 3.368,13.2264 8.5,17.25 C 28.1536,57.562 28,55.7948 28,54 28,39.6404 39.6404,28 54,28 c 1.7948,0 3.562,0.1536 5.25,0.5 C 55.2264,23.368 49.0296,20 42,20 Z M 54,32 C 41.8496,32 32,41.8496 32,54 32,66.152 41.8496,76 54,76 66.152,76 76,66.152 76,54 76,41.8496 66.152,32 54,32 Z m 0,16 c 3.312,0 6,2.6864 6,6 0,3.312 -2.688,6 -6,6 -3.3136,0 -6,-2.688 -6,-6 0,-3.3136 2.6864,-6 6,-6 z" id="path2" fill="#bebebe" stroke-width="4"/>
</svg>