<svg width="96" height="96" version="1.1" xmlns="http://www.w3.org/2000/svg">
<path d="m 48,20 a 28,28 0 0 0 -28,28 28,28 0 0 0 0.359376,4.242 4.0004,4.0004 0 0 1 0.45312,-1.28124 l 1.39844,-2.46876 c 1.82008,-3.206 6.1212,-4.4108 9.328,-2.52344 l 1.82812,1.07032 6.242,-8.0548 -0.320312,0.48436 c 1.35888,-2.40764 4.0756,-3.75664 6.758,-3.41408 0.86816,0.11044 1.75576,0.404 2.57032,0.8828 a 4.0004,4.0004 0 0 0 0.0078,0 c 1.546,0.90944 2.58544,2.35648 3.06248,3.96876 a 8,8 0 0 1 4.3124,7.0936 8,8 0 0 1 -8,8 8,8 0 0 1 -0.218752,-0.0078 c 1.82476,2.14644 2.2376,5.304 0.78908,7.8592 h 0.0078 l -1.39844,2.47656 a 4.0004,4.0004 0 0 1 -3.44532,2.03124 c 0.08039,0.08348 0.03004,0.05536 0.132812,0.14844 1.20532,1.09136 3.68696,2.57016 6.1564,4.0236 a 4.0004,4.0004 0 0 1 1.95312,3.14844 28,28 0 0 0 24.023599,-27.6796 28,28 0 0 0 -27.999999,-28 z m -2.46092,20.0236 c -1.0842,-0.138476 -2.18568,0.38656 -2.76564,1.41408 l -8.4064,10.836 -4.8592,-2.85936 C 28.16364,48.62328 26.46356,49.091 25.68752,50.4612 l -1.39844,2.46876 19.4064,11.4296 1.39844,-2.47656 c 0.77604,-1.36904 0.318524,-3.1074 -1.02344,-3.89844 l -4.8516,-2.85936 8.4064,-10.836 c 0.77604,-1.3702 0.313508,-3.1152 -1.03124,-3.90624 -0.336192,-0.19762 -0.69328,-0.3134 -1.05468,-0.359376 z m -24.578,15.1328 a 28,28 0 0 0 0.03908,0.132812 c 0.0048,-0.0052 0.02688,-0.03428 0.03124,-0.03908 A 4.0004,4.0004 0 0 1 20.96108,55.1564 Z m 3.34376,2.32032 c 0,0 -6.686,7.1728 -3.39844,12.836 3.28712,5.66 12.78,5.7896 15.8752,5.664 H 47.9924 C 43.14,73.12096 37.4848,70.03792 39.586,66.32832 l -15.2812,-8.8516 z" id="path2" fill="#bebebe" stroke-width="4"/>
</svg>