<svg width="96" height="96" version="1.1" xmlns="http://www.w3.org/2000/svg">
<path d="M 48.0116,24 A 48,48 0 0 0 20.496,32.6952 l 4.6016,6.5784 A 40,40 0 0 1 48.0116,32 40,40 0 0 1 70.94,39.242 l 4.564,-6.5156 A 48,48 0 0 0 48.0116,24 Z m 0,12 a 36,36 0 0 0 -20.6328,6.5236 l 4.594,6.57 A 28,28 0 0 1 48.0116,44 28,28 0 0 1 64.06,49.0704 l 4.568,-6.5236 A 36,36 0 0 0 48.0116,36 Z m 0,12 A 24,24 0 0 0 34.254,52.3516 l 4.5936,6.5564 A 16,16 0 0 1 48.0116,56 16,16 0 0 1 57.184,58.9 L 61.76,52.3592 A 24,24 0 0 0 48.0116,48 Z m 0,12 a 12,12 0 0 0 -6.8752,2.17188 l 6.8752,9.828 6.8752,-9.82 a 12,12 0 0 0 -6.8752,-2.18 z" id="path2" fill="#bebebe" stroke-width="4"/>
</svg>