<svg width="96" height="96" version="1.1" xmlns="http://www.w3.org/2000/svg">
<path d="m 72.804,20 c -0.808,0 -1.62,0.3164 -2.248,0.9452 l -7,7 h -7.5 c -0.6604,0.0132 -1.288,0.2824 -1.7512,0.75 l -9.5,9.5 c -0.9424,0.9776 -0.9424,2.5224 0,3.5 l 9.5,9.5 c 0.6048,0.648 1.506,0.9324 2.3752,0.75 0.436,-0.1436 0.824,-0.4028 1.124,-0.75 l 9.5,-9.5 c 0.468,-0.4632 0.74,-1.0912 0.752,-1.75 v -7.5 l 7,-7 c 1.256,-1.2576 1.256,-3.2424 0,-4.5 C 74.424,20.3164 73.616,20 72.804,20 Z M 39.3204,44.0548 c -0.4364,0.1436 -0.8252,0.4028 -1.1252,0.75 l -9.5,9.5 c -0.4692,0.4632 -0.7384,1.0912 -0.75,1.7512 v 7.5 l -7,7 c -1.25756,1.256 -1.25756,3.24 0,4.5 1.2576,1.256 3.2424,1.256 4.5,0 l 7,-7 h 7.5 c 0.6592,-0.016 1.2868,-0.284 1.75,-0.752 l 9.5,-9.5 c 0.9424,-0.976 0.9424,-2.5216 0,-3.4992 l -9.5,-9.5 c -0.6048,-0.648 -1.506,-0.9324 -2.3748,-0.75 z" id="path2" fill="#bebebe" stroke-width="4"/>
</svg>