<svg width="96" height="96" version="1.1" xmlns="http://www.w3.org/2000/svg">
<path d="m 48,40 c -4.4184,0 -8,3.5816 -8,8 0,4.4184 3.5816,8 8,8 4.4184,0 8,-3.5816 8,-8 0,-4.4184 -3.5816,-8 -8,-8 z m 0,16 c 0,0 -12,-0.126 -12,4 0,8.712 8,20 8,20 h 8 c 0,0 8,-12.42 8,-20 0,-3.896 -12,-4 -12,-4 z" id="path2" fill="#bebebe" stroke-width="4"/><path d="m 48,16 c -17.6732,0 -32,14.3268 -32,32 0,14.328 9.4216,26.456 22.4064,30.532 -0.636,-1.072 -1.2576,-2.056 -1.9688,-3.448 -0.3352,-0.652 -0.6664,-1.384 -1,-2.092 C 26.2912,68.384 20,58.94 20,48 20,32.536 32.536,20 48,20 c 15.464,0 28,12.536 28,28 0,11.052 -6.42,20.58 -15.72,25.132 -0.232,0.492 -0.46,1.008 -0.696,1.476 -0.776,1.58 -1.472,2.78 -2.148,3.972 C 70.504,74.552 80,62.388 80,48 80,30.3268 65.672,16 48,16 Z m 0,8 C 34.7452,24 24,34.7452 24,48 24,55.6108 27.552,62.384 33.078,66.78 32.4536,64.6 32,62.336 32,60 32,59.964 32.0072,59.932 32.008,59.9 29.5224,56.564 28,52.4772 28,48 28,36.9544 36.9544,28 48,28 c 11.044,0 20,8.9544 20,20 0,4.4772 -1.524,8.564 -4.008,11.9 0,0.032 0.008,0.064 0.008,0.1 0,2.332 -0.5,4.64 -1.204,6.876 C 68.392,62.48 72,55.6668 72,48 72,34.7452 61.256,24 48,24 Z m 0,8 c -8.8364,0 -16,7.1636 -16,16 0,2.7744 0.7732,5.3424 2.0156,7.6172 0.6664,-0.6576 1.3844,-1.216 2.0548,-1.5548 0.4648,-0.2348 0.9232,-0.3492 1.3828,-0.4532 C 36.5568,51.9284 36,50.038 36,48 c 0,-0.8232 0.0844,-1.6296 0.242,-2.4064 0.0012,-0.0048 -8e-4,-0.0104 0,-0.0156 0.9592,-4.6868 4.6492,-8.3768 9.336,-9.336 C 46.3592,36.0824 47.1716,36 48,36 c 0.8224,0 1.6284,0.0812 2.4064,0.242 0.0048,0.0012 0.0104,-8e-4 0.0156,0 4.6868,0.9592 8.378,4.6492 9.334,9.336 C 59.92,46.3608 60,47.1724 60,48 c 0,2.0728 -0.576,3.994 -1.5,5.6952 0.464,0.1072 0.932,0.2216 1.4,0.4532 0.696,0.3464 1.404,0.8316 2.084,1.4688 C 63.228,53.3424 64,50.7744 64,48 64,39.1636 56.836,32 48,32 Z" id="path4" opacity="0.45" fill="#bebebe" stroke-width="4"/>
</svg>