<svg width="96" height="96" version="1.1" xmlns="http://www.w3.org/2000/svg">
<path d="M 48,20 C 48,20 40,30.5 24,30.5 24,69 48,76 48,76 48,76 72,69 72,30.5 56,30.5 48,20 48,20 Z m 0,10.5 c 3.6008,2.5908 8.328,4.64 14.752,6.1248 C 61.632,50.356 57.216,58.4 53.1248,62.876 50.9856,65.216 49.3656,66.508 48,67.36 46.6344,66.508 45.0144,65.216 42.8752,62.876 38.7824,58.4 34.3688,50.356 33.25,36.6248 39.6716,35.14 44.3992,33.0908 48,30.5 Z m 0,4.6092 c -2.6548,1.6264 -5.8368,2.9808 -9.6016,4.0548 1.23,10.2276 4.4412,16.5716 7.3908,19.796 0.9788,1.068 1.5244,1.36 2.2108,1.932 z" id="path2" fill="#bebebe" stroke-width="4"/>
</svg>