<svg width="96" height="96" version="1.1" xmlns="http://www.w3.org/2000/svg">
<path d="m 76,46 c 0,-1.108 -0.892,-2 -2,-2 H 54 c -1.108,0 -2,0.892 -2,2 v 4 c 0,1.108 0.892,2 2,2 h 20 c 1.108,0 2,-0.892 2,-2 z M 70.624,40 C 67.332,30.6768 58.448,24 48,24 34.752,24 24,34.752 24,48 24,61.248 34.752,72 48,72 58.4464,72 67.3304,65.324 70.6248,56 H 61.75 c -2.768,4.776 -7.8344,8 -13.748,8 -8.832,0 -16,-7.168 -16,-16 0,-8.832 7.168,-16 16,-16 5.9136,0 10.9808,3.2248 13.75,8 h 8.8748 z" id="path2" fill="#bebebe" stroke-width="4"/>
</svg>