<svg width="96" height="96" version="1.1" xmlns="http://www.w3.org/2000/svg">
<path d="m 48,20 c 0,0 -1.614496,9.7433 -5.503448,11.006896 -3.888952,1.263598 -10.910345,-5.6 -10.910345,-5.6 0,0 4.334538,8.760826 1.931034,12.068966 -2.403504,3.30814 -12.165517,1.834483 -12.165517,1.834483 0,0 8.786206,4.600569 8.786207,8.689655 0,4.089084 -8.786207,8.689656 -8.786207,8.689656 0,0 9.762013,-1.473658 12.165517,1.83448 2.403505,3.308144 -1.931034,12.068968 -1.931034,12.068968 0,0 7.021393,-6.8636 10.910345,-5.6 C 46.3855,66.2567 48,76 48,76 c 0,0 1.614496,-9.7433 5.503448,-11.006896 3.888952,-1.2636 10.910344,5.6 10.910344,5.6 0,0 -4.33454,-8.760824 -1.931032,-12.068968 2.403504,-3.308138 12.165516,-1.83448 12.165516,-1.83448 0,0 -8.786208,-4.600572 -8.786208,-8.689656 0,-4.089086 8.786208,-8.689655 8.786208,-8.689655 0,0 -9.762012,1.473657 -12.165516,-1.834483 -2.403508,-3.30814 1.931032,-12.068966 1.931032,-12.068966 0,0 -7.021392,6.863598 -10.910344,5.6 C 49.614496,29.7433 48,20 48,20 Z m 0,15.641379 c 6.825478,0 12.35862,5.533143 12.35862,12.358621 0,6.825478 -5.533142,12.35862 -12.35862,12.35862 -6.825478,0 -12.358621,-5.533142 -12.358621,-12.35862 0,-6.825478 5.533143,-12.358621 12.358621,-12.358621 z" id="path2" fill="#bebebe" stroke-width="4"/>
</svg>