<svg width="96" height="96" version="1.1" xmlns="http://www.w3.org/2000/svg">
<path d="m 40.14,20 c -5.1364,0 -10.3492,2.09784 -14.2656,6.0236 -7.8324,7.8512 -7.8324,20.4924 0,28.3436 6.2008,6.2156 15.4232,7.5164 22.8984,3.89064 0.19672,-0.0954 0.43084,-0.27276 0.625,-0.375 1.21348,-0.4804 4.2708,-1.36576 5.8828,0.25 1.1956,1.19848 0.796,2.80728 2.625,4.6408 l 12.2656,12.164 c 0.0128,-0.0128 2.35912,2.39656 4.75,0 2.40012,-2.40584 0.0348,-4.7216 0,-4.7656 L 62.7884,57.88284 c -1.829,-1.83336 -3.3122,-1.44216 -4.508,-2.64064 -1.97112,-1.97584 -0.11776,-6.0136 0,-6.2656 3.616,-7.498 2.328,-16.7424 -3.8744,-22.958 C 50.4896,22.093 45.2768,19.995 40.1404,19.995 Z m 0,5.1408 c 8.3076,0 15.0156,6.7272 15.0156,15.0548 0,8.3276 -6.708,15.0468 -15.0156,15.0468 -8.3076,10e-7 -15.0156,-6.7196 -15.0156,-15.0468 2e-6,-8.3276 6.708,-15.0548 15.0156,-15.0548 z M 27.8744,36 v 8 h 24.1252 v -8 z" id="path2" fill="#bebebe" stroke-width="4"/>
</svg>