<svg width="96" height="96" version="1.1" xmlns="http://www.w3.org/2000/svg">
<path d="m 40.1408,20 c -5.1368,0 -10.3496,2.098 -14.2656,6.0236 -7.8328,7.8512 -7.8328,20.4924 0,28.3436 6.2004,6.2168 15.4228,7.5168 22.8984,3.8888 0.1964,-0.092 0.4308,-0.272 0.6248,-0.372 1.2136,-0.48 4.2708,-1.368 5.8828,0.248 1.1948,1.2 0.7948,2.808 2.6268,4.64 l 12.264,12.164 c 0.012,-0.012 2.36,2.4 4.748,0 2.4,-2.404 0.036,-4.72 0,-4.764 L 62.788,57.884 C 60.96,56.048 59.476,56.44 58.28,55.242 56.312,53.2664 58.164,49.2284 58.28,48.9764 61.9,41.4832 60.608,32.2388 54.4064,26.0236 50.49,22.098 45.2772,20 40.1408,20 Z m 0,5.1408 c 8.3076,0 15.0156,6.7272 15.0156,15.0544 0,8.3276 -6.708,15.0468 -15.0156,15.0468 -8.308,0 -15.016,-6.7192 -15.016,-15.0468 4e-4,-8.3272 6.708,-15.0544 15.016,-15.0544 z M 35.992,28 l 0.016,8 h -8.1328 v 8 h 8.1328 v 8 h 8.0076 V 44 H 52 V 36 H 44.0156 L 44.008,28 Z" id="path2" fill="#bebebe" stroke-width="4"/>
</svg>