
<svg width="96" height="96" version="1.1" xmlns="http://www.w3.org/2000/svg">
	<path fill="#bebebe" d="m50 21c-13.807 0-25 11.193-25 25 0 2.0685 0.24517 4.0777 0.71875 6h6.531c-0.6388-1.8877-1-3.8966-1-6 0-10.355 8.3947-18.75 18.75-18.75s18.75 8.3947 18.75 18.75-8.3947 18.75-18.75 18.75c-2.1034 0-4.1123-0.3612-6-1v6.5312c1.922 0.474 3.932 0.719 6 0.719 13.807 0 25-11.193 25-25s-11.193-25-25-25zm-0.1875 9.375c-1.6124 0-2.9375 1.325-2.9375 2.9375v12.875c0 1.6124 1.3251 2.9375 2.9375 2.9375 0.06678 0.0044 0.11962 0 0.1875 0h0.1875 10.75c1.7312 0 3.125-1.3938 3.125-3.125s-1.3938-3.125-3.125-3.125h-7.8125v-9.5625c0-1.6124-1.325-2.9375-2.9375-2.9375h-0.375zm-23.812 23.625v8h-8v8h8v8h8v-8h8v-8h-8v-8h-8z"/>
</svg>
