
<svg width="96" height="96" version="1.1" xmlns="http://www.w3.org/2000/svg">
	<path class="error" d="m 47.999976,36.054834 c -1.06302,0.03798 -1.9767,0.03182 -3.3048,0.128907 -7.287,0.53277 -13.4133,2.10621 -18.6153,4.7814 -2.3973,1.2333 -3.2166,1.8363 -4.6113,3.3993 -2.7858,3.117 -4.1562,8.034 -3.123,11.208 0.293145,0.90051 0.5013,1.17084 2.02734,2.625 1.94142,1.84998 2.33946,2.01024 3.6564,1.48827 2.10318,-0.83388 10.2279,-4.8612 10.5585,-5.2323 0.5457,-0.612 0.9624,-3.006 0.9198,-5.292 -0.0471,-2.538 0.132,-2.766 2.7891,-3.537 3.2826,-0.954 6.4956,-1.38 9.7032,-1.395 3.2076,0.0168 6.4206,0.44106 9.7032,1.39452 2.65719,0.77196 2.83638,1.00173 2.78907,3.5391 -0.0426,2.28555 0.3741,4.6785 0.91992,5.2911 0.33072,0.37116 8.4555,4.3986 10.5585,5.2323 1.31679,0.52197 1.71483,0.36171 3.6564,-1.48827 1.52604,-1.45416 1.73421,-1.72449 2.02734,-2.625 1.03332,-3.1743 -0.33696,-8.0922 -3.123,-11.2089 -1.39461,-1.5612 -2.21379,-2.16549 -4.6113,-3.3984 -5.202,-2.676 -11.328,-4.2492 -18.615,-4.782 -1.329,-0.0972 -2.244,-0.0909 -3.306,-0.129 z" fill="#d40000"/>
</svg>