
<svg width="96" height="96" version="1.1" xmlns="http://www.w3.org/2000/svg">
	<path d="M 30 22 C 28.338 22 27 23.338 27 25 L 27 30 L 69 30 C 69 27.784 67.216 26 65 26 L 43 26 L 43 25 C 43 23.338 41.662 22 40 22 L 30 22 z M 68.40625 31.9375 C 68.273504 31.944582 68.13581 31.972838 68 32 L 63 32 L 41 32 L 28 32 C 25.784 32 24 33.784 24 36 L 24 60 C 24 62.216 25.784 64 28 64 L 37 64 L 37 68 C 37 70.216 38.784 72 41 72 L 63 72 C 65.216 72 67 70.216 67 68 L 67 64 L 68 64 C 70.216 64 72 62.216 72 60 L 72 36 C 72 33.9225 70.397443 31.831264 68.40625 31.9375 z M 44.5 40 L 59.5 40 C 60.331 40 61 40.669 61 41.5 L 61 64.5 C 61 65.331 60.331 66 59.5 66 L 44.5 66 C 43.669 66 43 65.331 43 64.5 L 43 41.5 C 43 40.669 43.669 40 44.5 40 z " fill="#bebebe"/>
</svg>
