
<svg width="96" height="96" version="1.1" xmlns="http://www.w3.org/2000/svg">
	<path d="m 41,18 c -0.554,0 -1,0.446 -1,1 l 0,1 -1,0 c -0.554,0 -1,0.446 -1,1 l 0,1 -5,0 -1,0 c -2.216,0 -4,1.784 -4,4 l 0,1 0,38 0,1 c 0,2.216 1.784,4 4,4 l 1,0 3,0 c 0,2.216 1.784,4 4,4 l 28,0 c 2.216,0 4,-1.784 4,-4 l 0,-36 c 0,-2.216 -1.784,-4 -4,-4 l 0,-3 0,-1 c 0,-2.216 -1.784,-4 -4,-4 l -1,0 -5,0 0,-1 c 0,-0.554 -0.446,-1 -1,-1 l -1,0 0,-1 c 0,-0.554 -0.446,-1 -1,-1 l -14,0 z m 4,2 6,0 c 0.554,0 1,0.446 1,1 l 0,2 c 0,0.554 -0.446,1 -1,1 l -6,0 c -0.554,0 -1,-0.446 -1,-1 l 0,-2 c 0,-0.554 0.446,-1 1,-1 z m -1,16 20,0 c 1.108,0 2,0.892 2,2 l 0,28 c 0,1.108 -0.892,2 -2,2 l -20,0 c -1.108,0 -2,-0.892 -2,-2 l 0,-28 c 0,-1.108 0.892,-2 2,-2 z" fill="#bebebe"/>
</svg>
