
<svg width="96" height="96" version="1.1" xmlns="http://www.w3.org/2000/svg">
	<path d="M 30.59375,20 C 28.054583,20 26,22.084107 26,24.65625 l 0,42.6875 C 26,69.915893 28.054583,72 30.59375,72 l 34.8125,0 C 67.945417,72 70,69.915893 70,67.34375 l 0,-42.6875 C 70,22.084107 67.945417,20 65.40625,20 l -34.8125,0 z M 34,26 l 1,0 26,0 1,0 c 1.108,0 2,0.892 2,2 l 0,1 0,34 0,1 c 0,1.108 -0.892,2 -2,2 l -1,0 -26,0 -1,0 c -1.108,0 -2,-0.892 -2,-2 l 0,-1 0,-34 0,-1 c 0,-1.108 0.892,-2 2,-2 z m 2,6 0,4 24,0 0,-4 -24,0 z m 0,8 0,4 24,0 0,-4 -24,0 z m 0,8 0,4 24,0 0,-4 -24,0 z m 14,6 0,2 2,0 0,4 -2,0 0,2 6,0 0,-2 -2,0 0,-4 2,0 0,-2 -6,0 z m -14,2 0,4 12,0 0,-4 -12,0 z" fill="#bebebe"/>
</svg>
