
<svg width="96" height="96" version="1.1" xmlns="http://www.w3.org/2000/svg">
	<path d="m 33.75,18 c -0.04115,-8.97e-4 -0.08502,0.01398 -0.125,0.03125 -0.23987,0.103604 -0.43058,0.451915 -0.71875,0.8125 0,0 -0.93044,2.55437 -0.90625,4.15625 0.0299,1.98013 0.62789,5.29789 1.6875,8.1875 2.248208,6.130985 5.382447,12.867505 8.15625,17.78125 C 42.378187,46.996618 42.983556,44.865836 44.03125,43 A 2.4115845,2.4115845 0 0 1 44.0625,42.9375 L 46.59375,38.71875 34.71875,18.9375 C 34.37788,18.35255 34.093092,18.09695 33.875,18.03125 33.829564,18.01757 33.791146,18.000897 33.75,18 z m 28.375,0.03125 c -0.218093,0.0657 -0.502879,0.3213 -0.84375,0.90625 L 46.125,44.1875 c -1.283442,2.28568 -1.939407,5.76262 -2.875,8.5625 -0.467798,1.39995 -1.019454,2.6455 -1.53125,3.3125 -0.31877,0.54547 -0.693921,0.59375 -1.15625,0.59375 -2.570274,-0.10003 -5.425829,1.65554 -7.15625,4.625 -2.260599,3.87926 -1.717854,8.41398 1.21875,10.09375 2.936604,1.67977 7.114402,-0.12074 9.375,-4 1.040547,-1.78561 1.48363,-3.6917 1.375,-5.40625 l 0.0625,0.09375 c -0.03135,-1.28043 0.09966,-2.89357 0.6875,-4.375 0.674259,-1.69905 1.786415,-3.22279 4.78125,-4.09375 0.257893,-0.0701 0.538222,-0.24509 0.6875,-0.46875 C 54.802555,48.50768 59.327988,39.32643 62.3125,31.1875 63.372111,28.29789 63.970102,24.98013 64,23 64.02419,21.39812 63.09375,18.84375 63.09375,18.84375 62.709522,18.36297 62.488487,17.92181 62.125,18.03125 z M 53.46875,54.625 c -0.548457,0.739261 -1.152462,1.045041 -1.875,1.25 l 0,0.03125 c -1.054621,0.306705 -1.687041,0.595121 -2.125,0.9375 0.146831,0.274724 0.292202,0.556363 0.40625,0.84375 0.587847,1.48143 0.71885,3.09457 0.6875,4.375 l 0.0625,-0.09375 c -0.10863,1.71455 0.334453,3.62064 1.375,5.40625 2.260599,3.87926 6.438396,5.67977 9.375,4 2.936604,-1.67977 3.479348,-6.21449 1.21875,-10.09375 -1.730421,-2.96946 -4.585976,-4.72503 -7.15625,-4.625 -0.462328,0 -0.837479,-0.04828 -1.15625,-0.59375 -0.264722,-0.345 -0.542617,-0.837973 -0.8125,-1.4375 z M 39.8125,60 c 0.443902,-0.0181 0.873587,0.09719 1.25,0.3125 1.505653,0.86125 1.673684,3.33391 0.375,5.5625 -1.298685,2.22858 -3.556847,3.36125 -5.0625,2.5 C 34.869347,67.51375 34.701315,65.00984 36,62.78125 36.974014,61.10981 38.480795,60.05431 39.8125,60 z m 16.375,0 c 1.331704,0.05431 2.838486,1.10981 3.8125,2.78125 1.298685,2.22859 1.130653,4.7325 -0.375,5.59375 -1.505654,0.86125 -3.763815,-0.27142 -5.0625,-2.5 -1.298685,-2.22859 -1.130653,-4.70125 0.375,-5.5625 0.376414,-0.21531 0.806098,-0.3306 1.25,-0.3125 z" fill="#bebebe"/>
</svg>
