
<svg width="96" height="96" version="1.1" xmlns="http://www.w3.org/2000/svg">
	<path d="M 53 15 L 38 30 L 46 30 L 46 48 L 60 48 L 60 30 L 68 30 L 53 15 z M 27.5 34 C 25.561 34 24 35.561 24 37.5 L 24 66.5 C 24 68.439 25.561 70 27.5 70 L 68.5 70 C 70.439 70 72 68.439 72 66.5 L 72 37.5 C 72 35.561 70.439 34 68.5 34 L 64 34 L 62 34 L 62 40 L 64 40 L 64.25 40 C 65.2195 40 66 40.7805 66 41.75 L 66 62.25 C 66 63.2195 65.2195 64 64.25 64 L 31.75 64 C 30.7805 64 30 63.2195 30 62.25 L 30 41.75 C 30 40.7805 30.7805 40 31.75 40 L 44 40 L 44 34 L 27.5 34 z " fill="#bebebe"/>
</svg>
