
<svg width="96" height="96" version="1.1" xmlns="http://www.w3.org/2000/svg">
	<path fill="#bebebe" d="m48.597 49.684c-2.2857 0.000015-4.0102 0.38777-5.1735 1.1633-1.1429 0.77552-1.7143 1.9184-1.7143 3.4286-0.000015 1.3878 0.45918 2.4796 1.3776 3.2755 0.93876 0.77552 2.2347 1.1633 3.8878 1.1633 2.0612 0.000006 3.7959-0.73469 5.2041-2.2041 1.4081-1.4898 2.1122-3.3469 2.1122-5.5714v-1.2551h-5.6939m16.745-4.1327v20.449h-11.051v-5.9694c-1.4694 2.0816-3.1225 3.602-4.9592 4.5612-1.837 0.939-4.072 1.408-6.704 1.408-3.551 0-6.4388-1.0306-8.6633-3.0918-2.2041-2.0816-3.3061-4.7755-3.3061-8.0816-0.000003-4.0204 1.3775-6.9694 4.1327-8.8469 2.7755-1.8775 7.1224-2.8163 13.041-2.8163h6.4592v-0.85714c-0.000027-1.7347-0.6837-3-2.051-3.7959-1.3674-0.8163-3.5-1.2245-6.398-1.2245-2.347 0.000027-4.5306 0.23472-6.551 0.70408-2.0204 0.46941-3.898 1.1735-5.6327 2.1122v-8.3571c2.3469-0.5714 4.7041-0.99997 7.0714-1.2857 2.3673-0.30609 4.7347-0.45915 7.102-0.45919 6.1836 0.000036 10.643 1.2245 13.378 3.6735 2.7551 2.4286 4.1326 6.3878 4.1326 11.878"/>
</svg>
