
<svg width="96" height="96" version="1.1" xmlns="http://www.w3.org/2000/svg">
	<path fill="#bebebe" d="m47.719 29c-1.9028 0.000036-3.8978 0.24813-5.9062 0.65625-2.0085 0.38779-4.0522 0.89162-6.1875 1.6875v5.25c1.7759-0.93875 3.6073-1.6868 5.5312-2.1562 1.9239-0.46936 3.8766-0.65622 5.9062-0.65625 3.1924 0.00003 5.6515 0.72771 7.4062 2.1562 1.7759 1.4082 2.7187 3.4082 2.7188 6v0.5625h-8.25c-5.3066 0.000021-9.2213 0.94709-11.906 2.9062-1.597 1.175-2.631 2.739-3.281 4.594h-6.75v6h6.1875c0.33809 2.4416 1.2924 4.5107 3 6.0938 2.156 1.959 5.082 2.906 8.718 2.906 2.8753 0 5.3252-0.52041 7.3125-1.5 1.9873-1 3.6368-2.5121 4.9688-4.5938v6.0938h5.8125v-9h6v-6h-6v-5.4375c0.001-5.224-1.306-9.147-3.843-11.718-2.537-2.572-6.3-3.844-11.437-3.844zm3.6562 17.906h5.8125v1.2188c-0.000006 0.65498-0.0285 1.2679-0.09375 1.875h-17.25c0.42936-0.62384 0.98568-1.192 1.6875-1.5938 1.8182-1.0408 5.1291-1.5 9.8438-1.5zm-12.187 9.094h15.656c-0.22278 0.31076-0.4021 0.64996-0.65625 0.9375-1.9451 2.2041-4.5466 3.375-7.7812 3.375-2.3467 0.000006-4.1571-0.61798-5.5312-1.7812-0.799-0.699-1.351-1.546-1.687-2.531z"/>
</svg>
