
<svg width="96" height="96" version="1.1" xmlns="http://www.w3.org/2000/svg">
	<path fill="#bebebe" d="m47.719 28c-1.9028 0.000036-3.8978 0.24813-5.9062 0.65625-2.0085 0.38779-4.0522 0.89162-6.1875 1.6875v5.25c1.7759-0.93875 3.6073-1.6868 5.5312-2.1562 1.9239-0.46936 3.8766-0.65622 5.9062-0.65625 3.1924 0.00003 5.6515 0.72771 7.4062 2.1562 1.7759 1.4082 2.7187 3.4082 2.7188 6v0.5625h-8.25c-5.3066 0.000021-9.2213 0.94709-11.906 2.9062-2.664 1.959-4.031 4.862-4.031 8.719-0.000003 3.3061 1.0522 5.9892 3.1875 7.9688 2.156 1.959 5.082 2.906 8.718 2.906 2.8753 0 5.3252-0.52041 7.3125-1.5 1.9873-1 3.6368-2.5121 4.9688-4.5938l0.001 6.094h5.812v-20.438c0-5.224-1.307-9.147-3.844-11.718-2.537-2.572-6.3-3.844-11.437-3.844zm3.6562 17.906h5.8125v1.2188c-0.00003 3.6735-1.0339 6.588-3 8.8125-1.9451 2.2041-4.5466 3.375-7.7812 3.375-2.3467 0.000006-4.1571-0.61798-5.5312-1.7812-1.3531-1.1837-2.0625-2.7812-2.0625-4.7812-0.000009-2.5102 0.90056-4.3029 2.7188-5.3438 1.8182-1.0408 5.1291-1.5 9.8438-1.5zm-18.375 24.094v6h30v-6h-30z"/>
</svg>
