
<svg width="96" height="96" version="1.1" xmlns="http://www.w3.org/2000/svg">
	<path fill="#bebebe" d="m63 22.562c-0.27374 0-0.52854 0.05978-0.75 0.1875l-0.062 0.031-32.188 32.219-6 15 15-6 32.219-32.188c0.01258-0.01945 0.01964-0.04237 0.03125-0.0625 0.12772-0.22146 0.1875-0.47626 0.1875-0.75s-0.05978-0.52854-0.1875-0.75c-0.01161-0.02013-0.01867-0.04305-0.03125-0.0625l-7.407-7.406c-0.019-0.012-0.042-0.019-0.062-0.031-0.221-0.128-0.476-0.188-0.75-0.188zm-28.125 33.25 0.125 3.188h3l-1 3-9 4 4-9 2.875-1.1875zm29.125 2.188v4h-12v8h12v4l10-8-10-8z"/>
</svg>
