
<svg width="96" height="96" version="1.1" xmlns="http://www.w3.org/2000/svg">
	<path d="m 24.59375,48.65625 c 0.05509,-0.28337 0.217148,-0.560898 0.4375,-0.78125 L 31.375,41.53125 c 0.587606,-0.587606 1.537394,-0.587606 2.125,0 l 8.5,8.5 L 42,29.5 C 42,28.669 42.669,28 43.5,28 l 9,0 c 0.831,0 1.5,0.669 1.5,1.5 l 0,20.53125 8.5,-8.5 c 0.587606,-0.587606 1.537394,-0.587606 2.125,0 l 6.34375,6.34375 c 0.587606,0.587606 0.587606,1.537394 0,2.125 L 48,73 25.03125,50 c -0.367254,-0.367254 -0.529313,-0.871466 -0.4375,-1.34375 z" fill="#bebebe"/>
</svg>
