
<svg width="96" height="96" version="1.1" xmlns="http://www.w3.org/2000/svg">
	<path d="M 41 22.5625 C 40.880577 22.5545 40.774321 22.5708 40.65625 22.59375 C 40.37288 22.64884 40.095352 22.810898 39.875 23.03125 L 33.53125 29.375 C 32.943644 29.962606 32.943644 30.912394 33.53125 31.5 L 42.03125 40 L 21.5 40 C 20.669 40 20 40.669 20 41.5 L 20 50.5 C 20 51.331 20.669 52 21.5 52 L 42.03125 52 L 33.53125 60.5 C 32.943644 61.087606 32.943644 62.037394 33.53125 62.625 L 39.875 68.96875 C 40.462606 69.556356 41.412394 69.556356 42 68.96875 L 65 46 L 42 23.03125 C 41.724559 22.75581 41.358269 22.586561 41 22.5625 z M 74 40 C 70.686291 40 68 42.686291 68 46 C 68 49.313709 70.686291 52 74 52 C 77.313709 52 80 49.313709 80 46 C 80 42.686291 77.313709 40 74 40 z " fill="#bebebe"/>
</svg>
