
<svg width="96" height="96" version="1.1" xmlns="http://www.w3.org/2000/svg">
	<path d="m 33,22.5625 c -0.273736,0 -0.528539,0.05978 -0.75,0.1875 -0.02013,0.01161 -0.04305,0.01867 -0.0625,0.03125 l -7.40625,7.40625 c -0.01258,0.01945 -0.01964,0.04237 -0.03125,0.0625 -0.127718,0.221461 -0.1875,0.476264 -0.1875,0.75 0,0.273736 0.05978,0.528539 0.1875,0.75 0.01161,0.02013 0.01867,0.04305 0.03125,0.0625 L 57,64 72,70 66,55 33.8125,22.78125 33.75,22.75 C 33.528539,22.622282 33.273736,22.5625 33,22.5625 z M 61.125,55.8125 64,57 l 4,9 -9,-4 -1,-3 3,0 0.125,-3.1875 z M 27,66 c -1.656,0 -3,1.344003 -3,3 0,1.656 1.344,3.000003 3,3 1.656,0 3.000001,-1.343997 3,-3 0,-1.656 -1.343999,-2.999997 -3,-3 z m 9,0 c -1.656,0 -3,1.344003 -3,3 0,1.656 1.344,3.000003 3,3 1.656,0 3,-1.343997 3,-3 0,-1.656 -1.344,-2.999997 -3,-3 z m 9,0 c -1.656,0 -3,1.344003 -3,3 0,1.656 1.344,3.000003 3,3 1.656,0 3,-1.343997 3,-3 0,-1.656 -1.344,-2.999997 -3,-3 z" fill="#bebebe"/>
</svg>
