
<svg width="96" height="96" version="1.1" xmlns="http://www.w3.org/2000/svg">
	<path d="m 48,23.980034 c -13.254834,0 -24,8.791499 -24,19.636363 0,6.907955 4.363462,12.977064 10.954545,16.477273 -0.250636,1.824549 -1.39201,6.290776 -6.795454,7.818182 6.998484,0.760599 11.646255,-2.651859 14.113636,-5.227273 1.835278,0.367637 3.753504,0.568182 5.727273,0.568182 13.254834,0 24,-8.7915 24,-19.636364 C 72,32.771533 61.254834,23.980034 48,23.980034 z m 2.022727,6.545454 c 0.897653,2.6e-5 1.663756,0.310675 2.295455,0.909091 0.642758,0.598466 0.954534,1.316864 0.954545,2.159091 -1.1e-5,0.842274 -0.311787,1.560671 -0.954545,2.159091 -0.631699,0.587379 -1.397802,0.886383 -2.295455,0.886364 -0.89767,1.9e-5 -1.675419,-0.298985 -2.318182,-0.886364 -0.642776,-0.59842 -0.954551,-1.316817 -0.954545,-2.159091 -6e-6,-0.842227 0.311769,-1.560625 0.954545,-2.159091 0.642763,-0.598416 1.420512,-0.909065 2.318182,-0.909091 z m -3.045454,8.863637 c 1.318779,1.6e-5 2.336182,0.334518 3.045454,0.977272 0.720337,0.631703 1.068171,1.457721 1.068182,2.477273 -1.4e-5,0.210577 -0.01278,0.581701 -0.06818,1.113637 -0.04433,0.531959 -0.13975,1.011266 -0.272727,1.454545 l -1.363636,4.840909 c -0.110831,0.387882 -0.206805,0.819484 -0.295455,1.318182 -0.08867,0.498705 -0.136372,0.881475 -0.136364,1.136364 -8e-6,0.642777 0.143672,1.085458 0.431819,1.318181 0.28813,0.232731 0.790726,0.340909 1.5,0.340909 0.332457,0 0.715227,-0.04825 1.136363,-0.15909 0.421114,-0.121909 0.72068,-0.229517 0.909091,-0.318182 l -0.363636,1.5 c -1.097154,0.432204 -1.982521,0.755627 -2.636364,0.977272 -0.653861,0.232731 -1.408318,0.34091 -2.272727,0.34091 -1.329875,0 -2.37113,-0.311775 -3.113636,-0.954546 -0.731432,-0.653849 -1.090912,-1.47987 -1.09091,-2.477273 -2e-6,-0.387875 0.03549,-0.78285 0.09091,-1.181818 0.05541,-0.410033 0.128093,-0.876573 0.25,-1.386363 l 1.363636,-4.84091 c 0.1219,-0.465443 0.217875,-0.908127 0.295454,-1.318181 0.08865,-0.421114 0.13636,-0.792802 0.136364,-1.136364 -4e-6,-0.620593 -0.131476,-1.051631 -0.386364,-1.295455 C 44.94965,41.872602 44.470343,41.730048 43.75,41.730034 c -0.354634,1.4e-5 -0.714114,0.07102 -1.090909,0.181818 -0.365715,0.110837 -0.688572,0.218456 -0.954546,0.318182 l 0.363637,-1.5 c 0.89766,-0.365699 1.77082,-0.676911 2.590909,-0.931818 0.820082,-0.265958 1.586748,-0.409075 2.318182,-0.409091 z" fill="#bebebe"/><path id="path4042" d="m 48,23.980034 c -13.254834,0 -24,8.791499 -24,19.636363 0,6.907955 4.363462,12.977064 10.954545,16.477273 -0.250636,1.824549 -1.39201,6.290776 -6.795454,7.818182 6.998484,0.760599 11.646255,-2.651859 14.113636,-5.227273 1.835278,0.367637 3.753504,0.568182 5.727273,0.568182 13.254834,0 24,-8.7915 24,-19.636364 C 72,32.771533 61.254834,23.980034 48,23.980034 z m -0.09091,7.272727 c 2.19027,2.5e-5 4.0577,0.58785 5.590909,1.75 1.664598,1.271835 2.499983,2.96393 2.5,5.090909 -1.7e-5,1.644602 -0.492487,3.065912 -1.5,4.25 -0.306654,0.394714 -1.239545,1.180346 -2.772727,2.386364 -1.007541,0.811339 -1.50001,1.571046 -1.5,2.272727 l 0,1.159091 -6.090909,0 0,-1.886364 c -5e-6,-1.249875 0.490817,-2.402797 1.454545,-3.477272 0.0219,-0.04384 0.90686,-0.853002 2.659091,-2.431819 0.963714,-0.855169 1.431807,-1.640001 1.431818,-2.363636 -1.1e-5,-0.482395 -0.173116,-0.87481 -0.545454,-1.181818 -0.372357,-0.328898 -0.814427,-0.499981 -1.318182,-0.5 -0.657092,1.9e-5 -1.148738,0.24488 -1.477273,0.727273 -0.328548,0.482429 -0.476454,1.047528 -0.454545,1.727272 l -5.886364,0 0,-0.522727 c 0,-2.170836 0.810185,-3.888055 2.409091,-5.181818 1.467484,-1.206007 3.28781,-1.818157 5.5,-1.818182 z M 47.25,50.684579 c 0.985618,5e-6 1.795803,0.318644 2.409091,0.954546 0.635171,0.63591 0.954534,1.445068 0.954545,2.431818 -1.1e-5,0.986752 -0.319374,1.795112 -0.954545,2.409091 -0.613288,0.635905 -1.423473,0.954543 -2.409091,0.954545 -0.985633,-2e-6 -1.773915,-0.31864 -2.409091,-0.954545 -0.613284,-0.613979 -0.931822,-1.422339 -0.931818,-2.409091 -4e-6,-0.98675 0.318534,-1.795908 0.931818,-2.431818 0.635176,-0.635902 1.423458,-0.954541 2.409091,-0.954546 z" fill="#bebebe"/><path id="path3620-5" d="m 48,23.980034 c -13.254834,0 -24,8.791499 -24,19.636363 0,6.907955 4.363462,12.977064 10.954545,16.477273 -0.250636,1.824549 -1.39201,6.290776 -6.795454,7.818182 6.998484,0.760599 11.646255,-2.651859 14.113636,-5.227273 1.835278,0.367637 3.753504,0.568182 5.727273,0.568182 13.254834,0 24,-8.7915 24,-19.636364 C 72,32.771533 61.254834,23.980034 48,23.980034 z m -0.09091,7.272727 c 2.19027,2.5e-5 4.0577,0.58785 5.590909,1.75 1.664598,1.271835 2.499983,2.96393 2.5,5.090909 -1.7e-5,1.644602 -0.492487,3.065912 -1.5,4.25 -0.306654,0.394714 -1.239545,1.180346 -2.772727,2.386364 -1.007541,0.811339 -1.50001,1.571046 -1.5,2.272727 l 0,1.159091 -6.090909,0 0,-1.886364 c -5e-6,-1.249875 0.490817,-2.402797 1.454545,-3.477272 0.0219,-0.04384 0.90686,-0.853002 2.659091,-2.431819 0.963714,-0.855169 1.431807,-1.640001 1.431818,-2.363636 -1.1e-5,-0.482395 -0.173116,-0.87481 -0.545454,-1.181818 -0.372357,-0.328898 -0.814427,-0.499981 -1.318182,-0.5 -0.657092,1.9e-5 -1.148738,0.24488 -1.477273,0.727273 -0.328548,0.482429 -0.476454,1.047528 -0.454545,1.727272 l -5.886364,0 0,-0.522727 c 0,-2.170836 0.810185,-3.888055 2.409091,-5.181818 1.467484,-1.206007 3.28781,-1.818157 5.5,-1.818182 z M 47.25,50.684579 c 0.985618,5e-6 1.795803,0.318644 2.409091,0.954546 0.635171,0.63591 0.954534,1.445068 0.954545,2.431818 -1.1e-5,0.986752 -0.319374,1.795112 -0.954545,2.409091 -0.613288,0.635905 -1.423473,0.954543 -2.409091,0.954545 -0.985633,-2e-6 -1.773915,-0.31864 -2.409091,-0.954545 -0.613284,-0.613979 -0.931822,-1.422339 -0.931818,-2.409091 -4e-6,-0.98675 0.318534,-1.795908 0.931818,-2.431818 0.635176,-0.635902 1.423458,-0.954541 2.409091,-0.954546 z" fill="#bebebe"/>
</svg>
