
<svg width="96" height="96" version="1.1" xmlns="http://www.w3.org/2000/svg">
	<path d="m 48,20.999834 c -14.911689,0 -27,12.088311 -27,27 0,14.911686 12.088311,27 27,27 0.994398,0 1.93971,0.0111 2.90625,-0.09375 -1.626888,-1.519206 -2.71875,-3.54282 -2.71875,-5.90625 0,-5.190276 4.969359,-8.8125 10.3125,-8.8125 0.627282,0 1.090905,0.375261 1.6875,0.46875 l 0,-21.65625 A 2.7781156,2.7781156 0 0 1 63,36.187334 l 3,0 a 2.7781156,2.7781156 0 0 1 2.8125,2.8125 l 0,26.15625 C 72.664209,60.488891 75,54.523697 75,47.999834 c 0,-14.911689 -12.088314,-27 -27,-27 z m 0,18 c 4.970562,0 9,4.029437 9,9 0,4.970562 -4.029438,9 -9,9 -4.970562,0 -9,-4.029438 -9,-9 0,-4.970563 4.029438,-9 9,-9 z m 15,0 0,25.21875 c -1.251321,-0.748644 -2.817258,-1.21875 -4.5,-1.21875 -4.142136,0 -7.5,2.686293 -7.5,6 0,3.313707 3.357864,6 7.5,6 4.142136,0 7.5,-2.686293 7.5,-6 l 0,-30 -3,0 z" fill="#bebebe"/>
</svg>