
<svg width="96" height="96" version="1.1" xmlns="http://www.w3.org/2000/svg">
	<path fill="#bebebe" d="m48 24c-13.255 0-24 10.745-24 24s10.745 24 24 24c1.636 0 3.237-0.188 4.781-0.5l-6.219-6.188a1.9506 1.9506 0 0 1 1.376 -3.312h4.187v-4.875c-1.253 0.566-2.66 0.875-4.125 0.875-5.523 0-10-4.477-10-10s4.477-10 10-10 10 4.477 10 10c0 2.248-0.748 4.33-2 6h10.062a1.9506 1.9506 0 0 1 1.938 1.938v5.312c2.526-3.8 4-8.345 4-13.25 0-13.255-10.745-24-24-24zm0 16c-4.418 0-8 3.582-8 8s3.582 8 8 8 8-3.582 8-8-3.582-8-8-8zm0 2c3.314 0 6 2.686 6 6s-2.686 6-6 6-6-2.686-6-6 2.686-6 6-6zm6.062 13.938v8h-6.124l12.031 12 12.093-12h-6v-8h-12z"/>
</svg>
