
<svg width="96" height="96" version="1.1" xmlns="http://www.w3.org/2000/svg">
	<path d="m 47.8125,30 a 1.4014154,0.99727206 0 0 0 -1.03125,0.5 L 32.1875,48.5 A 1.4014154,0.99727206 0 0 0 32,48.96875 1.4014154,0.99727206 0 0 0 33.40625,50 l 29.1875,0 A 1.4014154,0.99727206 0 0 0 63.8125,48.5 L 49.21875,30.5 A 1.4014154,0.99727206 0 0 0 47.8125,30 z M 34,54 c -1.108,0 -2,0.892 -2,2 l 0,4 c 0,1.108 0.892,2 2,2 l 28,0 c 1.108,0 2,-0.892 2,-2 l 0,-4 c 0,-1.108 -0.892,-2 -2,-2 l -28,0 z" fill="#bebebe"/>
</svg>
