
<svg width="96" height="96" version="1.1" xmlns="http://www.w3.org/2000/svg">
	<path d="M 31.5,30 C 27.345,30 24,33.345 24,37.5 l 0,17 c 0,4.155 3.345,7.5 7.5,7.5 l 5.5,0 c 0.03177,0 0.06235,0.0015 0.09375,0 C 38.157404,61.950848 39,61.076226 39,60 l 0,-2 c 0,-1.108 -0.892,-2 -2,-2 l -4,0 c -1.662,0 -3,-1.338 -3,-3 l 0,-14 c 0,-1.662 1.338,-3 3,-3 l 30,0 c 1.662,0 3,1.338 3,3 l 0,14 c 0,1.662 -1.338,3 -3,3 -1.04842,-0.04886 -1.88447,0 -3,0 l 0,-6 -15,9 15,9 0,-6 4.5,0 c 4.155,0 7.5,-3.345 7.5,-7.5 l 0,-17 C 72,33.345 68.655,30 64.5,30 l -33,0 z" fill="#bebebe"/>
</svg>
