
<svg width="96" height="96" version="1.1" xmlns="http://www.w3.org/2000/svg">
	<path d="M 45,16 60.09375,26.3125 45,37 45,30.0625 c -7.02909,1.291326 -12.486891,7.043517 -13.21875,14.25 -0.05553,0.546717 0,1.126134 0,1.6875 0,8.981865 7.236885,16.21875 16.21875,16.21875 6.409584,-0.12942 10.615178,-3.263481 14.15625,-8.0625 L 68.71875,58 C 64.278478,65.799124 57.825526,70 48,70 34.745166,70 24,59.254834 24,46 24,33.765136 33.166671,23.668933 45,22.1875 L 45,16 z m 3,24 c 3.313707,0 6,2.686293 6,6 0,3.313707 -2.686293,6 -6,6 -3.313707,0 -6,-2.686293 -6,-6 0,-3.313707 2.686293,-6 6,-6 z" fill="#bebebe"/>
</svg>
