
<svg width="96" height="96" version="1.1" xmlns="http://www.w3.org/2000/svg">
	<path d="M 48,72 C 62.352,72 74,60.352 74,46 74,31.648 62.352,20 48,20 33.648,20 22,31.648 22,46 22,60.352 33.648,72 48,72 z m 0,-9.285714 c -9.226286,0 -16.714282,-7.488 -16.714282,-16.714286 0,-2.493378 0.557674,-4.8528 1.537943,-6.978794 L 54.993302,61.176339 C 52.864214,62.160092 50.49808,62.714286 48,62.714286 z M 62.973214,53.399552 40.58594,31.026786 c 2.2358,-1.110217 4.74997,-1.741068 7.41406,-1.741068 9.226286,0 16.714286,7.487996 16.714286,16.714282 0,2.659479 -0.634452,5.166646 -1.741072,7.399552 z" fill="#bebebe"/>
</svg>
