
<svg width="96" height="96" version="1.1" xmlns="http://www.w3.org/2000/svg">
	<path d="m 25.493846,19.513028 c -2.6019,-0.1026 -4.7226,2.3265 -4.494,4.869 0.0111,8.9619 -0.039,29.952 0,38.913 0.1134,2.538 2.5878,4.425 5.0565,4.218 4.9776,-0.006 11.8338,-0.006 15.9198,0 l 0,3 -11.8005,0 c -0.0624,-0.006 -0.1254,-0.006 -0.1875,0 -0.2499,0.054 -0.4827,0.186 -0.6564,0.375 l -4.9629,3.462 c -0.6912,0.69 -0.1311,2.121 0.8439,2.157 l 45.558,0 c 0.975,-0.036 1.533,-1.467 0.843,-2.157 l -4.962,-3.462 c -0.222,-0.225 -0.531,-0.36 -0.846,-0.375 l -11.841,0 0,-3 c 4.377,0.003 11.619,0.021 16.992,0 2.559,-0.132 4.332,-2.715 4.026,-5.157 -0.009,-8.892 0.03,-29.826 0,-38.718 -0.093,-2.553 -2.604,-4.3569 -5.058,-4.125 l -44.43,0 z m 4.4883,5.994 36,0 c 1.662,0 3,1.338 3,3 l 0,30 c 0,1.662 -1.338,3 -3,3 l -36,0 c -1.662,0 -3,-1.338 -3,-3 l 0,-30 c 0,-1.662 1.338,-3 3,-3 z m 15,9 c -1.662,0 -2.994,1.3377 -2.994,3 l 0,6 c -1.662,0 -3.006,1.338 -3.006,3 l 0,6.006 c 0,1.662 1.344,2.994 3.006,2.994 l 12,0 c 1.662,0 2.994,-1.332 2.994,-2.994 l 0,-6.006 c 0,-1.662 -1.332,-3 -2.994,-3 l 0,-6 c 0,-1.6623 -1.344,-3 -3.006,-3 l -6,0 z m 1.5,3 3,0 c 0.831,0 1.5,0.663 1.5,1.494 l 0,4.506 -6,0 0,-4.506 c 0,-0.831 0.669,-1.494 1.5,-1.494 z" fill="#bebebe"/>
</svg>