
<svg width="96" height="96" version="1.1" xmlns="http://www.w3.org/2000/svg">
	<path d="m 44.25,73 c -1.062585,0 -1.875,-0.888009 -1.875,-1.96875 l 0,-3.84375 c -1.899961,-0.506223 -3.776452,-1.190199 -5.4375,-2.15625 l -2.71875,2.625 c -0.382108,0.382089 -0.818023,0.652065 -1.3125,0.65625 -0.494477,0.0042 -0.936823,-0.18684 -1.3125,-0.5625 L 26.25,62.40625 c -0.751351,-0.751356 -0.670403,-1.860801 0.09375,-2.625 l 2.625,-2.71875 C 28.00269,55.401451 27.318735,53.524963 26.8125,51.625 l -3.84375,0 C 21.888008,51.625 21,50.812579 21,49.75 l 0,-7.5 c 0,-1.062576 0.88801,-1.875 1.96875,-1.875 l 3.84375,0 c 0.506236,-1.899966 1.190205,-3.776457 2.15625,-5.4375 l -2.625,-2.71875 C 25.579552,31.454551 25.498584,30.345106 26.25,29.59375 L 31.59375,24.25 c 0.751351,-0.751356 1.8608,-0.67044 2.625,0.09375 l 2.71875,2.625 c 1.661048,-0.966051 3.53754,-1.650024 5.4375,-2.15625 l 0,-3.84375 C 42.375,19.888009 43.187415,19 44.25,19 l 7.5,0 c 1.062582,0 1.875,0.888009 1.875,1.96875 l 0,3.84375 c 1.899963,0.506226 3.776454,1.190199 5.4375,2.15625 l 2.71875,-2.625 c 0.76419,-0.764193 1.873644,-0.845139 2.625,-0.09375 L 69.75,29.59375 c 0.75135,0.751359 0.67035,1.860804 -0.09375,2.625 l -2.625,2.71875 c 0.966048,1.661043 1.650027,3.537534 2.15625,5.4375 l 3.84375,0 C 74.111979,40.374976 75,41.187421 75,42.25 l 0,7.5 c 0,1.062573 -0.888021,1.875 -1.96875,1.875 l -3.84375,0 c -0.506223,1.89996 -1.190202,3.776448 -2.15625,5.4375 l 2.625,2.71875 c 0.76419,0.764196 0.845196,1.873644 0.09375,2.625 L 64.40625,67.75 c -0.751371,0.751347 -1.860798,0.67035 -2.625,-0.09375 l -2.71875,-2.625 c -1.661049,0.966057 -3.537537,1.650024 -5.4375,2.15625 l 0,3.84375 C 53.625,72.111997 52.812573,73 51.75,73 z M 40,58 l 16,0 0,-12 7,0 -15,-15 -15,15 7,0 z" fill="#bebebe"/>
</svg>
