
<svg width="96" height="96" version="1.1" xmlns="http://www.w3.org/2000/svg">
	<path d="m 76,20 -14,0 4,4 -6,6 6,6 6,-6 4,4 z M 28.40625,36 C 27.076648,36 25.951847,37.077522 26,38.40625 L 26,66 60,66 60,38.40625 C 60,37.07665 58.92335,36 57.59375,36 z M 47,40 c 0.554,0 1,0.446 1,1 0,0.554 -0.446,1 -1,1 -0.554,0 -1,-0.446 -1,-1 0,-0.554 0.446,-1 1,-1 z m 4,0 c 0.554,0 1,0.446 1,1 0,0.554 -0.446,1 -1,1 -0.554,0 -1,-0.446 -1,-1 0,-0.554 0.446,-1 1,-1 z m 4,0 c 0.554,0 1,0.446 1,1 0,0.554 -0.446,1 -1,1 -0.554,0 -1,-0.446 -1,-1 0,-0.554 0.446,-1 1,-1 z M 32.09375,46 54,46 l 0,13.96875 -21.90625,0 z" fill="#bebebe"/>
</svg>
