
<svg width="96" height="96" version="1.1" xmlns="http://www.w3.org/2000/svg">
	<path d="M 72 18 L 66 24 L 62 20 L 62 34 L 76 34 L 72 30 L 78 24 L 72 18 z M 28.40625 36 C 27.076648 36 25.951847 37.077522 26 38.40625 L 26 66 L 60 66 L 60 38.40625 C 60 37.07665 58.92335 36 57.59375 36 L 28.40625 36 z M 47 40 C 47.554 40 48 40.446 48 41 C 48 41.554 47.554 42 47 42 C 46.446 42 46 41.554 46 41 C 46 40.446 46.446 40 47 40 z M 51 40 C 51.554 40 52 40.446 52 41 C 52 41.554 51.554 42 51 42 C 50.446 42 50 41.554 50 41 C 50 40.446 50.446 40 51 40 z M 55 40 C 55.554 40 56 40.446 56 41 C 56 41.554 55.554 42 55 42 C 54.446 42 54 41.554 54 41 C 54 40.446 54.446 40 55 40 z M 32.09375 46 L 54 46 L 54 59.96875 L 32.09375 59.96875 L 32.09375 46 z " fill="#bebebe"/>
</svg>
