
<svg width="96" height="96" version="1.1" xmlns="http://www.w3.org/2000/svg">
	<path fill="#bebebe" d="m48 18s-1.7298 10.439-5.8966 11.793c-4.1667 1.3539-11.69-6-11.69-6s4.6441 9.3866 2.069 12.931c-2.5752 3.5444-13.034 1.9655-13.034 1.9655s9.4138 4.9292 9.4138 9.3103c0 4.3812-9.4138 9.3103-9.4138 9.3103s10.459-1.5789 13.034 1.9655c2.5752 3.5444-2.069 12.931-2.069 12.931s7.5229-7.3539 11.69-6c4.167 1.354 5.897 11.793 5.897 11.793s1.7298-10.439 5.8966-11.793c4.1667-1.3539 11.69 6 11.69 6s-4.6441-9.3866-2.069-12.931c2.5752-3.5444 13.034-1.9655 13.034-1.9655s-9.4138-4.9292-9.4138-9.3103c0-4.3812 9.4138-9.3103 9.4138-9.3103s-10.459 1.5789-13.034-1.9655c-2.5752-3.5444 2.069-12.931 2.069-12.931s-7.5229 7.3539-11.69 6c-4.167-1.354-5.897-11.793-5.897-11.793zm0 16.759c7.313 0 13.241 5.9284 13.241 13.241 0 7.313-5.9284 13.241-13.241 13.241-7.313 0-13.241-5.9284-13.241-13.241 0-7.313 5.9284-13.241 13.241-13.241z"/>
</svg>
