<?xml version="1.0" encoding="UTF-8" standalone="no"?>
<!-- Created with Inkscape (http://www.inkscape.org/) -->

<svg
   xmlns:dc="http://purl.org/dc/elements/1.1/"
   xmlns:cc="http://creativecommons.org/ns#"
   xmlns:rdf="http://www.w3.org/1999/02/22-rdf-syntax-ns#"
   xmlns:svg="http://www.w3.org/2000/svg"
   xmlns="http://www.w3.org/2000/svg"
   xmlns:xlink="http://www.w3.org/1999/xlink"
   xmlns:sodipodi="http://sodipodi.sourceforge.net/DTD/sodipodi-0.dtd"
   xmlns:inkscape="http://www.inkscape.org/namespaces/inkscape"
   width="24"
   height="24"
   id="svg2"
   sodipodi:version="0.32"
   inkscape:version="0.48.1 r9760"
   version="1.0"
   sodipodi:docname="drive-removable-media.svg"
   inkscape:output_extension="org.inkscape.output.svg.inkscape"
   style="display:inline">
  <defs
     id="defs4">
    <linearGradient
       inkscape:collect="always"
       id="linearGradient3865">
      <stop
         style="stop-color:#ffffff;stop-opacity:1;"
         offset="0"
         id="stop3867" />
      <stop
         style="stop-color:#ffffff;stop-opacity:0;"
         offset="1"
         id="stop3869" />
    </linearGradient>
    <linearGradient
       id="linearGradient3313">
      <stop
         style="stop-color:#8ad4ff;stop-opacity:1;"
         offset="0"
         id="stop3315" />
      <stop
         id="stop4186"
         offset="0.67213112"
         style="stop-color:#1379ff;stop-opacity:0.902439;" />
      <stop
         style="stop-color:#0066ff;stop-opacity:0;"
         offset="1"
         id="stop3317" />
    </linearGradient>
    <radialGradient
       inkscape:collect="always"
       xlink:href="#linearGradient3313"
       id="radialGradient4138"
       gradientUnits="userSpaceOnUse"
       gradientTransform="matrix(0.3,0,0,0.03480565,-2.4000004,15.076323)"
       cx="47.777802"
       cy="76.852455"
       fx="47.777802"
       fy="76.852455"
       r="30" />
    <linearGradient
       id="linearGradient4327">
      <stop
         style="stop-color:#f0f0f0;stop-opacity:1;"
         offset="0"
         id="stop4329" />
      <stop
         id="stop4331"
         offset="1"
         style="stop-color:#b4b4b4;stop-opacity:1;" />
    </linearGradient>
    <linearGradient
       inkscape:collect="always"
       id="linearGradient3327">
      <stop
         style="stop-color:#000000;stop-opacity:1;"
         offset="0"
         id="stop3330" />
      <stop
         style="stop-color:#000000;stop-opacity:0;"
         offset="1"
         id="stop3333" />
    </linearGradient>
    <linearGradient
       inkscape:collect="always"
       xlink:href="#linearGradient4327"
       id="linearGradient3181"
       x1="-3.0607977"
       y1="27.258198"
       x2="-3.0607977"
       y2="7.2536583"
       gradientUnits="userSpaceOnUse"
       gradientTransform="translate(12.119372,-27.258198)" />
    <linearGradient
       inkscape:collect="always"
       xlink:href="#linearGradient3327"
       id="linearGradient2464"
       gradientUnits="userSpaceOnUse"
       x1="11.375"
       y1="22"
       x2="11.375"
       y2="-9.817296"
       gradientTransform="translate(1,-1)" />
    <linearGradient
       inkscape:collect="always"
       xlink:href="#linearGradient3865"
       id="linearGradient3871"
       x1="10.854259"
       y1="0.92329043"
       x2="10.854259"
       y2="55"
       gradientUnits="userSpaceOnUse"
       gradientTransform="translate(1,-1)" />
    <linearGradient
       id="linearGradient3892-6">
      <stop
         style="stop-color:#000000;stop-opacity:0.58823532;"
         offset="0"
         id="stop3894-4" />
      <stop
         id="stop3896-3"
         offset="0.11780351"
         style="stop-color:#000000;stop-opacity:0.47058824;" />
      <stop
         style="stop-color:#000000;stop-opacity:0.39215687;"
         offset="0.23809524"
         id="stop3898-3" />
      <stop
         style="stop-color:#000000;stop-opacity:0.3137255;"
         offset="1"
         id="stop3900-6" />
    </linearGradient>
    <linearGradient
       inkscape:collect="always"
       xlink:href="#linearGradient3892-6"
       id="linearGradient3902"
       x1="1"
       y1="-13.5"
       x2="11.045877"
       y2="-13.5"
       gradientUnits="userSpaceOnUse"
       spreadMethod="reflect"
       gradientTransform="translate(1,1)" />
    <linearGradient
       inkscape:collect="always"
       xlink:href="#linearGradient3865"
       id="linearGradient3930"
       gradientUnits="userSpaceOnUse"
       gradientTransform="matrix(1,0,0,-1,12.119372,27.258198)"
       x1="-0.119372"
       y1="13.258198"
       x2="-10.119372"
       y2="13.258198"
       spreadMethod="reflect" />
    <linearGradient
       id="linearGradient3767-0">
      <stop
         style="stop-color:#4d4d4d;stop-opacity:0.70731705;"
         offset="0"
         id="stop3769-4" />
      <stop
         style="stop-color:#4d4d4d;stop-opacity:0.3137255;"
         offset="1"
         id="stop3771-1" />
    </linearGradient>
    <linearGradient
       y2="60.21579"
       x2="24.778135"
       y1="60.21579"
       x1="107.11776"
       gradientTransform="matrix(0,0.1458287,-0.1715765,0,23.273103,-1.6208438)"
       gradientUnits="userSpaceOnUse"
       id="linearGradient3094"
       xlink:href="#linearGradient3767-0"
       inkscape:collect="always" />
    <linearGradient
       inkscape:collect="always"
       xlink:href="#linearGradient3767"
       id="linearGradient3684"
       x1="11"
       y1="12"
       x2="11"
       y2="4"
       gradientUnits="userSpaceOnUse" />
    <linearGradient
       id="linearGradient3767">
      <stop
         style="stop-color:#4d4d4d;stop-opacity:0.70731705;"
         offset="0"
         id="stop3769" />
      <stop
         style="stop-color:#4d4d4d;stop-opacity:0.25203252;"
         offset="1"
         id="stop3771" />
    </linearGradient>
    <linearGradient
       y2="4"
       x2="11"
       y1="12"
       x1="11"
       gradientUnits="userSpaceOnUse"
       id="linearGradient3104"
       xlink:href="#linearGradient3767-0"
       inkscape:collect="always"
       gradientTransform="translate(1,0)" />
    <linearGradient
       inkscape:collect="always"
       xlink:href="#linearGradient3767-0"
       id="linearGradient4252"
       gradientUnits="userSpaceOnUse"
       gradientTransform="translate(1,0)"
       x1="11"
       y1="12"
       x2="11"
       y2="4" />
    <linearGradient
       inkscape:collect="always"
       xlink:href="#linearGradient3767-0"
       id="linearGradient4254"
       gradientUnits="userSpaceOnUse"
       gradientTransform="translate(1,1)"
       x1="11"
       y1="12"
       x2="11"
       y2="4" />
    <linearGradient
       inkscape:collect="always"
       xlink:href="#linearGradient3767-0"
       id="linearGradient4261"
       gradientUnits="userSpaceOnUse"
       gradientTransform="translate(1,-1)"
       x1="11"
       y1="12"
       x2="11"
       y2="4" />
    <linearGradient
       inkscape:collect="always"
       xlink:href="#linearGradient3767-0"
       id="linearGradient4267"
       gradientUnits="userSpaceOnUse"
       gradientTransform="translate(11,0)"
       x1="11"
       y1="12"
       x2="11"
       y2="4" />
  </defs>
  <sodipodi:namedview
     id="base"
     pagecolor="#ffffff"
     bordercolor="#e7e7e7"
     borderopacity="1"
     inkscape:pageopacity="0.0"
     inkscape:pageshadow="2"
     inkscape:zoom="24.411791"
     inkscape:cx="-1.1360916"
     inkscape:cy="9.9535917"
     inkscape:document-units="px"
     inkscape:current-layer="layer5"
     showgrid="true"
     inkscape:showpageshadow="false"
     showguides="false"
     inkscape:guide-bbox="true"
     inkscape:window-width="1920"
     inkscape:window-height="1030"
     inkscape:window-x="0"
     inkscape:window-y="25"
     inkscape:snap-global="false"
     inkscape:window-maximized="1">
    <sodipodi:guide
       orientation="1,0"
       position="0,112"
       id="guide2383" />
    <sodipodi:guide
       orientation="0,1"
       position="26.278146,128"
       id="guide2385" />
    <sodipodi:guide
       orientation="1,0"
       position="128,54.082119"
       id="guide2387" />
    <sodipodi:guide
       orientation="0,1"
       position="78.156291,0"
       id="guide2389" />
    <sodipodi:guide
       orientation="0,1"
       position="60.863576,64.084768"
       id="guide2391" />
    <inkscape:grid
       type="xygrid"
       id="grid3672"
       visible="true"
       enabled="true"
       empspacing="8"
       snapvisiblegridlinesonly="true" />
  </sodipodi:namedview>
  <metadata
     id="metadata7">
    <rdf:RDF>
      <cc:Work
         rdf:about="">
        <dc:format>image/svg+xml</dc:format>
        <dc:type
           rdf:resource="http://purl.org/dc/dcmitype/StillImage" />
        <dc:title />
      </cc:Work>
    </rdf:RDF>
  </metadata>
  <g
     inkscape:groupmode="layer"
     id="layer3"
     inkscape:label="Shadow"
     transform="translate(0,2)"
     sodipodi:insensitive="true">
    <rect
       style="opacity:0.5;fill:url(#linearGradient2464);fill-opacity:1;stroke:none;display:inline"
       id="rect3371"
       width="21"
       height="21.5"
       x="1.5"
       y="-0.5"
       rx="2.5"
       ry="2.5" />
    <rect
       ry="2.3255813"
       rx="2.3809524"
       y="1"
       x="2"
       height="20"
       width="20"
       id="rect2553"
       style="opacity:0.4;fill:#000000;fill-opacity:1;stroke:none;display:inline" />
  </g>
  <g
     inkscape:groupmode="layer"
     id="layer2"
     inkscape:label="Facade"
     transform="translate(0,2)"
     sodipodi:insensitive="true">
    <rect
       transform="scale(1,-1)"
       ry="2"
       rx="2"
       y="-20"
       x="2"
       height="15"
       width="20"
       id="rect4177"
       style="fill:#cacaca;fill-opacity:1;fill-rule:evenodd;stroke:none;display:inline" />
    <path
       style="fill:#282828;fill-opacity:1;fill-rule:evenodd;stroke:none;display:inline"
       d="m 3.9999999,18.999999 c -1.108,0 -2,-0.891999 -2,-1.999999 l 0,-2 c 0,1.108 0.892,2 2,2 L 20,17 c 1.108,0 2,-0.892 2,-2 l 0,2 c 0,1.108 -0.892,1.999999 -2,1.999999 l -16.0000001,0 z"
       id="path4182"
       sodipodi:nodetypes="ccccccccc"
       inkscape:connector-curvature="0" />
    <path
       sodipodi:nodetypes="ccccccccc"
       id="path4203"
       d="m 3.9999999,17.999999 c -1.108,0 -2,-0.891999 -2,-1.999999 l 0,-1 c 0,1.108 0.892,2 2,2 L 20,17 c 1.108,0 2,-0.892 2,-2 l 0,1 c 0,1.108 -0.892,1.999999 -2,1.999999 l -16.0000001,0 z"
       style="fill:#000000;fill-opacity:1;fill-rule:evenodd;stroke:none;display:inline"
       inkscape:connector-curvature="0" />
    <rect
       style="opacity:0.6;fill:url(#linearGradient3902);fill-opacity:1;fill-rule:evenodd;stroke:none;display:inline"
       id="rect3894"
       width="20"
       height="15"
       x="2"
       y="-20"
       rx="2"
       ry="2"
       transform="scale(1,-1)" />
  </g>
  <g
     inkscape:label="Top"
     inkscape:groupmode="layer"
     id="layer1"
     transform="translate(0,2)"
     sodipodi:insensitive="true">
    <rect
       style="fill:url(#linearGradient3181);fill-opacity:1;fill-rule:evenodd;stroke:none;display:inline"
       id="rect3173"
       width="20"
       height="15.924147"
       x="2"
       y="-15.924143"
       rx="2"
       ry="2"
       transform="scale(1,-1)" />
    <path
       style="opacity:0.25;fill:#ffffff;fill-opacity:1;fill-rule:evenodd;stroke:none;display:inline"
       d="m 3.9999999,-1.8e-7 c -1.108,0 -2,0.89199998 -2,1.99999998 l 0,1 c 0,-1.108 0.892,-2 2,-2 l 16.0000001,0 c 1.108,0 2,0.892 2,2 l 0,-1 C 22,0.8919998 21.108,-1.8e-7 20,-1.8e-7 l -16.0000001,0 z"
       id="rect3183"
       inkscape:connector-curvature="0" />
    <path
       style="opacity:0.6;fill:url(#linearGradient3871);fill-opacity:1;fill-rule:evenodd;stroke:none;display:inline"
       d="M 4,0 C 2.892,0 2,0.892 2,2 l 0,11.971731 c 0,1.108 0.892,2 2,2 l 16,0 c 1.108,0 2,-0.892 2,-2 L 22,2 C 22,0.892 21.108,0 20,0 z m 0,1 16,0 c 0.571596,0 1,0.4284045 1,1 l 0,11.971731 c 0,0.571596 -0.428404,1 -1,1 l -16,0 c -0.5715955,0 -1,-0.428404 -1,-1 L 3,2 C 3,1.4284045 3.4284045,1 4,1 z"
       id="path4188"
       sodipodi:nodetypes="cccccccccccccccccc"
       inkscape:connector-curvature="0" />
    <path
       style="opacity:0.2;fill:url(#linearGradient3930);fill-opacity:1;fill-rule:evenodd;stroke:none;display:inline"
       d="m 2,11.9375 0,2 c 0,1.108 0.892,2 2,2 l 16,0 c 1.108,0 2,-0.892 2,-2 l 0,-2 c 0,1.108 -0.892,2 -2,2 l -16,0 c -1.108,0 -2,-0.892 -2,-2 z"
       id="rect3921"
       inkscape:connector-curvature="0" />
  </g>
  <g
     inkscape:groupmode="layer"
     id="layer4"
     inkscape:label="Light"
     style="display:inline"
     transform="translate(0,2)"
     sodipodi:insensitive="true">
    <rect
       style="fill:url(#radialGradient4138);fill-opacity:1;fill-rule:nonzero;stroke:none;display:inline"
       id="rect3311"
       width="18"
       height="2.0883393"
       x="3"
       y="16.95583"
       rx="1.6363636"
       ry="2.0883393" />
  </g>
  <g
     inkscape:groupmode="layer"
     id="layer5"
     inkscape:label="Symbol"
     transform="translate(0,2)">
    <path
       sodipodi:type="inkscape:offset"
       inkscape:radius="0.99078244"
       inkscape:original="M 12 3 L 8 8 L 16 8 L 12 3 z M 8 9 L 8 11 L 16 11 L 16 9 L 8 9 z "
       style="opacity:0.4;fill:#ffffff;fill-opacity:1;stroke:none;display:inline"
       id="path4263"
       d="m 11.90625,2 a 0.99088152,0.99088152 0 0 0 -0.6875,0.375 l -4,5 A 0.99088152,0.99088152 0 0 0 7.15625,8.46875 0.99088152,0.99088152 0 0 0 7.15625,8.5 0.99088152,0.99088152 0 0 0 7,9 l 0,2 a 0.99088152,0.99088152 0 0 0 1,1 l 8,0 a 0.99088152,0.99088152 0 0 0 1,-1 l 0,-2 a 0.99088152,0.99088152 0 0 0 -0.15625,-0.46875 0.99088152,0.99088152 0 0 0 0,-0.03125 0.99088152,0.99088152 0 0 0 -0.0625,-1.125 l -4,-5 A 0.99088152,0.99088152 0 0 0 11.90625,2 z"
       transform="translate(0,1)" />
    <path
       inkscape:connector-curvature="0"
       style="opacity:0.7;fill:url(#linearGradient3104);fill-opacity:1;stroke:none;display:inline"
       d="M 12,4 8,9 16,9 12,4 z m -4,6 0,2 8,0 0,-2 -8,0 z"
       id="rect2901" />
    <path
       style="opacity:0.2;fill:#000000;fill-opacity:1;stroke:none;display:inline"
       d="M 12,4 8,9 8.8125,9 12,5 15.1875,9 16,9 12,4 z m -4,6 0,1 8,0 0,-1 -8,0 z"
       id="path4248"
       inkscape:connector-curvature="0" />
  </g>
</svg>
