<?xml version="1.0" encoding="UTF-8" standalone="no"?>
<!-- Created with Inkscape (http://www.inkscape.org/) -->

<svg
   xmlns:dc="http://purl.org/dc/elements/1.1/"
   xmlns:cc="http://creativecommons.org/ns#"
   xmlns:rdf="http://www.w3.org/1999/02/22-rdf-syntax-ns#"
   xmlns:svg="http://www.w3.org/2000/svg"
   xmlns="http://www.w3.org/2000/svg"
   xmlns:xlink="http://www.w3.org/1999/xlink"
   xmlns:sodipodi="http://sodipodi.sourceforge.net/DTD/sodipodi-0.dtd"
   xmlns:inkscape="http://www.inkscape.org/namespaces/inkscape"
   width="24"
   height="24"
   id="svg2"
   sodipodi:version="0.32"
   inkscape:version="0.48.1 r9760"
   version="1.0"
   sodipodi:docname="drive-removable-media-ieee1394.svg"
   inkscape:output_extension="org.inkscape.output.svg.inkscape"
   style="display:inline">
  <defs
     id="defs4">
    <linearGradient
       inkscape:collect="always"
       id="linearGradient3865">
      <stop
         style="stop-color:#ffffff;stop-opacity:1;"
         offset="0"
         id="stop3867" />
      <stop
         style="stop-color:#ffffff;stop-opacity:0;"
         offset="1"
         id="stop3869" />
    </linearGradient>
    <linearGradient
       id="linearGradient3313">
      <stop
         style="stop-color:#8ad4ff;stop-opacity:1;"
         offset="0"
         id="stop3315" />
      <stop
         id="stop4186"
         offset="0.67213112"
         style="stop-color:#1379ff;stop-opacity:0.902439;" />
      <stop
         style="stop-color:#0066ff;stop-opacity:0;"
         offset="1"
         id="stop3317" />
    </linearGradient>
    <radialGradient
       inkscape:collect="always"
       xlink:href="#linearGradient3313"
       id="radialGradient4138"
       gradientUnits="userSpaceOnUse"
       gradientTransform="matrix(0.3,0,0,0.03480565,-2.4000004,15.076323)"
       cx="47.777802"
       cy="76.852455"
       fx="47.777802"
       fy="76.852455"
       r="30" />
    <linearGradient
       id="linearGradient4327">
      <stop
         style="stop-color:#f0f0f0;stop-opacity:1;"
         offset="0"
         id="stop4329" />
      <stop
         id="stop4331"
         offset="1"
         style="stop-color:#b4b4b4;stop-opacity:1;" />
    </linearGradient>
    <linearGradient
       inkscape:collect="always"
       id="linearGradient3327">
      <stop
         style="stop-color:#000000;stop-opacity:1;"
         offset="0"
         id="stop3330" />
      <stop
         style="stop-color:#000000;stop-opacity:0;"
         offset="1"
         id="stop3333" />
    </linearGradient>
    <linearGradient
       inkscape:collect="always"
       xlink:href="#linearGradient4327"
       id="linearGradient3181"
       x1="-3.0607977"
       y1="27.258198"
       x2="-3.0607977"
       y2="7.2536583"
       gradientUnits="userSpaceOnUse"
       gradientTransform="translate(12.119372,-27.258198)" />
    <linearGradient
       inkscape:collect="always"
       xlink:href="#linearGradient3327"
       id="linearGradient2464"
       gradientUnits="userSpaceOnUse"
       x1="11.375"
       y1="22"
       x2="11.375"
       y2="-9.817296"
       gradientTransform="translate(1,-1)" />
    <linearGradient
       inkscape:collect="always"
       xlink:href="#linearGradient3865"
       id="linearGradient3871"
       x1="10.854259"
       y1="0.92329043"
       x2="10.854259"
       y2="55"
       gradientUnits="userSpaceOnUse"
       gradientTransform="translate(1,-1)" />
    <linearGradient
       id="linearGradient3892-6">
      <stop
         style="stop-color:#000000;stop-opacity:0.58823532;"
         offset="0"
         id="stop3894-4" />
      <stop
         id="stop3896-3"
         offset="0.11780351"
         style="stop-color:#000000;stop-opacity:0.47058824;" />
      <stop
         style="stop-color:#000000;stop-opacity:0.39215687;"
         offset="0.23809524"
         id="stop3898-3" />
      <stop
         style="stop-color:#000000;stop-opacity:0.3137255;"
         offset="1"
         id="stop3900-6" />
    </linearGradient>
    <linearGradient
       inkscape:collect="always"
       xlink:href="#linearGradient3892-6"
       id="linearGradient3902"
       x1="1"
       y1="-13.5"
       x2="11.045877"
       y2="-13.5"
       gradientUnits="userSpaceOnUse"
       spreadMethod="reflect"
       gradientTransform="translate(1,1)" />
    <linearGradient
       inkscape:collect="always"
       xlink:href="#linearGradient3865"
       id="linearGradient3930"
       gradientUnits="userSpaceOnUse"
       gradientTransform="matrix(1,0,0,-1,12.119372,27.258198)"
       x1="-0.119372"
       y1="13.258198"
       x2="-10.119372"
       y2="13.258198"
       spreadMethod="reflect" />
    <linearGradient
       id="linearGradient3767-0">
      <stop
         style="stop-color:#4d4d4d;stop-opacity:0.70731705;"
         offset="0"
         id="stop3769-4" />
      <stop
         style="stop-color:#4d4d4d;stop-opacity:0.3137255;"
         offset="1"
         id="stop3771-1" />
    </linearGradient>
    <linearGradient
       gradientTransform="matrix(0.29166667,0,0,0.29866125,-2,-5.1483385)"
       y2="24"
       x2="56"
       y1="64"
       x1="56"
       gradientUnits="userSpaceOnUse"
       id="linearGradient3989"
       xlink:href="#linearGradient3767-0"
       inkscape:collect="always" />
    <linearGradient
       y2="65.999985"
       x2="16.919882"
       y1="65.999985"
       x1="85.000008"
       gradientTransform="matrix(0,0.17647057,-0.203125,0,25.406247,-1)"
       gradientUnits="userSpaceOnUse"
       id="linearGradient3120"
       xlink:href="#linearGradient3767-0"
       inkscape:collect="always" />
    <linearGradient
       inkscape:collect="always"
       xlink:href="#linearGradient3767-0"
       id="linearGradient4103"
       gradientUnits="userSpaceOnUse"
       gradientTransform="matrix(0,0.17647057,-0.203125,0,25.406247,-1)"
       x1="85.000008"
       y1="65.999985"
       x2="16.919882"
       y2="65.999985" />
  </defs>
  <sodipodi:namedview
     id="base"
     pagecolor="#ffffff"
     bordercolor="#e7e7e7"
     borderopacity="1"
     inkscape:pageopacity="0.0"
     inkscape:pageshadow="2"
     inkscape:zoom="24.411791"
     inkscape:cx="5.8277563"
     inkscape:cy="9.9126279"
     inkscape:document-units="px"
     inkscape:current-layer="layer5"
     showgrid="true"
     inkscape:showpageshadow="false"
     showguides="false"
     inkscape:guide-bbox="true"
     inkscape:window-width="1920"
     inkscape:window-height="1030"
     inkscape:window-x="0"
     inkscape:window-y="25"
     inkscape:snap-global="false"
     inkscape:window-maximized="1">
    <sodipodi:guide
       orientation="1,0"
       position="0,112"
       id="guide2383" />
    <sodipodi:guide
       orientation="0,1"
       position="26.278146,128"
       id="guide2385" />
    <sodipodi:guide
       orientation="1,0"
       position="128,54.082119"
       id="guide2387" />
    <sodipodi:guide
       orientation="0,1"
       position="78.156291,0"
       id="guide2389" />
    <sodipodi:guide
       orientation="0,1"
       position="60.863576,64.084768"
       id="guide2391" />
    <inkscape:grid
       type="xygrid"
       id="grid3672"
       visible="true"
       enabled="true"
       empspacing="8"
       snapvisiblegridlinesonly="true" />
  </sodipodi:namedview>
  <metadata
     id="metadata7">
    <rdf:RDF>
      <cc:Work
         rdf:about="">
        <dc:format>image/svg+xml</dc:format>
        <dc:type
           rdf:resource="http://purl.org/dc/dcmitype/StillImage" />
        <dc:title></dc:title>
      </cc:Work>
    </rdf:RDF>
  </metadata>
  <g
     inkscape:groupmode="layer"
     id="layer3"
     inkscape:label="Shadow"
     transform="translate(0,2)"
     sodipodi:insensitive="true">
    <rect
       style="opacity:0.5;fill:url(#linearGradient2464);fill-opacity:1;stroke:none;display:inline"
       id="rect3371"
       width="21"
       height="21.5"
       x="1.5"
       y="-0.5"
       rx="2.5"
       ry="2.5" />
    <rect
       ry="2.3255813"
       rx="2.3809524"
       y="1"
       x="2"
       height="20"
       width="20"
       id="rect2553"
       style="opacity:0.4;fill:#000000;fill-opacity:1;stroke:none;display:inline" />
  </g>
  <g
     inkscape:groupmode="layer"
     id="layer2"
     inkscape:label="Facade"
     transform="translate(0,2)"
     sodipodi:insensitive="true">
    <rect
       transform="scale(1,-1)"
       ry="2"
       rx="2"
       y="-20"
       x="2"
       height="15"
       width="20"
       id="rect4177"
       style="fill:#cacaca;fill-opacity:1;fill-rule:evenodd;stroke:none;display:inline" />
    <path
       style="fill:#282828;fill-opacity:1;fill-rule:evenodd;stroke:none;display:inline"
       d="m 3.9999999,18.999999 c -1.108,0 -2,-0.891999 -2,-1.999999 l 0,-2 c 0,1.108 0.892,2 2,2 L 20,17 c 1.108,0 2,-0.892 2,-2 l 0,2 c 0,1.108 -0.892,1.999999 -2,1.999999 l -16.0000001,0 z"
       id="path4182"
       sodipodi:nodetypes="ccccccccc"
       inkscape:connector-curvature="0" />
    <path
       sodipodi:nodetypes="ccccccccc"
       id="path4203"
       d="m 3.9999999,17.999999 c -1.108,0 -2,-0.891999 -2,-1.999999 l 0,-1 c 0,1.108 0.892,2 2,2 L 20,17 c 1.108,0 2,-0.892 2,-2 l 0,1 c 0,1.108 -0.892,1.999999 -2,1.999999 l -16.0000001,0 z"
       style="fill:#000000;fill-opacity:1;fill-rule:evenodd;stroke:none;display:inline"
       inkscape:connector-curvature="0" />
    <rect
       style="opacity:0.6;fill:url(#linearGradient3902);fill-opacity:1;fill-rule:evenodd;stroke:none;display:inline"
       id="rect3894"
       width="20"
       height="15"
       x="2"
       y="-20"
       rx="2"
       ry="2"
       transform="scale(1,-1)" />
  </g>
  <g
     inkscape:label="Top"
     inkscape:groupmode="layer"
     id="layer1"
     transform="translate(0,2)"
     sodipodi:insensitive="true">
    <rect
       style="fill:url(#linearGradient3181);fill-opacity:1;fill-rule:evenodd;stroke:none;display:inline"
       id="rect3173"
       width="20"
       height="15.924147"
       x="2"
       y="-15.924143"
       rx="2"
       ry="2"
       transform="scale(1,-1)" />
    <path
       style="opacity:0.25;fill:#ffffff;fill-opacity:1;fill-rule:evenodd;stroke:none;display:inline"
       d="m 3.9999999,-1.8e-7 c -1.108,0 -2,0.89199998 -2,1.99999998 l 0,1 c 0,-1.108 0.892,-2 2,-2 l 16.0000001,0 c 1.108,0 2,0.892 2,2 l 0,-1 C 22,0.8919998 21.108,-1.8e-7 20,-1.8e-7 l -16.0000001,0 z"
       id="rect3183"
       inkscape:connector-curvature="0" />
    <path
       style="opacity:0.6;fill:url(#linearGradient3871);fill-opacity:1;fill-rule:evenodd;stroke:none;display:inline"
       d="M 4,0 C 2.892,0 2,0.892 2,2 l 0,11.971731 c 0,1.108 0.892,2 2,2 l 16,0 c 1.108,0 2,-0.892 2,-2 L 22,2 C 22,0.892 21.108,0 20,0 z m 0,1 16,0 c 0.571596,0 1,0.4284045 1,1 l 0,11.971731 c 0,0.571596 -0.428404,1 -1,1 l -16,0 c -0.5715955,0 -1,-0.428404 -1,-1 L 3,2 C 3,1.4284045 3.4284045,1 4,1 z"
       id="path4188"
       sodipodi:nodetypes="cccccccccccccccccc"
       inkscape:connector-curvature="0" />
    <path
       style="opacity:0.2;fill:url(#linearGradient3930);fill-opacity:1;fill-rule:evenodd;stroke:none;display:inline"
       d="m 2,11.9375 0,2 c 0,1.108 0.892,2 2,2 l 16,0 c 1.108,0 2,-0.892 2,-2 l 0,-2 c 0,1.108 -0.892,2 -2,2 l -16,0 c -1.108,0 -2,-0.892 -2,-2 z"
       id="rect3921"
       inkscape:connector-curvature="0" />
  </g>
  <g
     inkscape:groupmode="layer"
     id="layer4"
     inkscape:label="Light"
     style="display:inline"
     transform="translate(0,2)"
     sodipodi:insensitive="true">
    <rect
       style="fill:url(#radialGradient4138);fill-opacity:1;fill-rule:nonzero;stroke:none;display:inline"
       id="rect3311"
       width="18"
       height="2.0883393"
       x="3"
       y="16.95583"
       rx="1.6363636"
       ry="2.0883393" />
  </g>
  <g
     inkscape:groupmode="layer"
     id="layer5"
     inkscape:label="Symbol"
     transform="translate(0,2)">
    <path
       sodipodi:type="inkscape:offset"
       inkscape:radius="0.99669254"
       inkscape:original="M 16.3125 2 L 13.59375 4.34375 L 15.75 6.21875 L 18.5 3.875 L 16.3125 2 z M 8 2.09375 L 5.5 4.25 L 6.34375 4.96875 L 8.8125 2.78125 L 8 2.09375 z M 9.65625 3.5 L 7.15625 5.65625 L 8 6.375 L 10.5 4.21875 L 9.65625 3.5 z M 11.96875 5.34375 C 10.493408 5.34375 9.28125 6.385179 9.28125 7.65625 C 9.28125 8.927321 10.493408 9.937353 11.96875 9.9375 C 13.444092 9.9375 14.625 8.927469 14.625 7.65625 C 14.625 6.385032 13.443921 5.34375 11.96875 5.34375 z M 11.96875 6.34375 C 12.795291 6.34375 13.46875 6.944658 13.46875 7.65625 C 13.46875 8.368286 12.795291 8.9375 11.96875 8.9375 C 11.142551 8.9375 10.468579 8.368286 10.46875 7.65625 C 10.46875 6.944658 11.142551 6.34375 11.96875 6.34375 z M 10.1875 10.96875 L 10.1875 11.96875 L 13.71875 11.96875 L 13.71875 10.96875 L 10.1875 10.96875 z M 10.1875 13 L 10.1875 14 L 13.71875 14 L 13.71875 13 L 10.1875 13 z "
       style="opacity:0.4;fill:#ffffff;fill-opacity:1;display:inline"
       id="path4105"
       d="m 16.21875,1 a 0.99679221,0.99679221 0 0 0 -0.5625,0.25 L 12.9375,3.59375 a 0.99679221,0.99679221 0 0 0 -0.34375,0.875 c -0.208947,-0.034025 -0.408151,-0.125 -0.625,-0.125 -0.173123,0 -0.331204,0.07212 -0.5,0.09375 A 0.99679221,0.99679221 0 0 0 11.15625,3.46875 L 10.3125,2.75 A 0.99679221,0.99679221 0 0 0 9.78125,2.5 0.99679221,0.99679221 0 0 0 9.75,2.5 0.99679221,0.99679221 0 0 0 9.46875,2.03125 l -0.8125,-0.6875 a 0.99679221,0.99679221 0 0 0 -1.3125,0 L 4.84375,3.5 a 0.99679221,0.99679221 0 0 0 0,1.5 L 5.6875,5.71875 a 0.99679221,0.99679221 0 0 0 0.53125,0.25 A 0.99679221,0.99679221 0 0 0 6.5,6.40625 L 7.34375,7.125 A 0.99679221,0.99679221 0 0 0 8.375,7.28125 c -0.017285,0.130953 -0.09375,0.2385825 -0.09375,0.375 0,1.0557991 0.5971562,1.8516922 1.40625,2.4375 a 0.99679221,0.99679221 0 0 0 -0.5,0.875 l 0,1 a 0.99679221,0.99679221 0 0 0 0.15625,0.5 A 0.99679221,0.99679221 0 0 0 9.1875,13 l 0,1 a 0.99679221,0.99679221 0 0 0 1,1 l 3.53125,0 a 0.99679221,0.99679221 0 0 0 1,-1 l 0,-1 a 0.99679221,0.99679221 0 0 0 -0.15625,-0.5 0.99679221,0.99679221 0 0 0 0.15625,-0.53125 l 0,-1 a 0.99679221,0.99679221 0 0 0 -0.5,-0.84375 C 15.037153,9.5369278 15.625,8.7169074 15.625,7.65625 c 0,-0.1671744 -0.06799,-0.3095696 -0.09375,-0.46875 a 0.99679221,0.99679221 0 0 0 0.875,-0.21875 l 2.75,-2.34375 a 0.99679221,0.99679221 0 0 0 0,-1.5 L 16.96875,1.25 A 0.99679221,0.99679221 0 0 0 16.21875,1 z m -4.25,6.34375 c 0.343467,0 0.5,0.2297623 0.5,0.3125 0,0.083574 -0.131054,0.28125 -0.5,0.28125 -0.368415,0 -0.50002,-0.1982824 -0.5,-0.28125 0,-0.082418 0.157075,-0.3125 0.5,-0.3125 z" />
    <path
       id="path2582"
       style="fill:url(#linearGradient3120);fill-opacity:1;display:inline;opacity:0.8"
       d="m 9.2890415,7.646859 c 0,-1.271071 1.1960615,-2.301796 2.6714035,-2.301796 1.475171,0 2.671232,1.030578 2.671232,2.301796 0,1.271219 -1.19589,2.302239 -2.671232,2.302239 C 10.485103,9.948951 9.2890415,8.91793 9.2890415,7.646859 m 2.6714035,1.289219 c 0.826541,0 1.495547,-0.577183 1.495547,-1.289219 0,-0.711592 -0.669006,-1.289366 -1.495547,-1.289366 -0.826199,0 -1.495719,0.577774 -1.495719,1.289366 -1.71e-4,0.712036 0.66952,1.289219 1.495719,1.289219 z m -1.763527,2.025598 3.525855,0 0,1.012431 -3.525855,0 0,-1.012431 z m 0,2.025007 3.525855,0 0,1.013317 -3.525855,0 0,-1.013317 z M 7.1619868,5.661096 7.9933222,6.378001 10.486987,4.229206 9.6558222,3.512449 7.1619868,5.661096 M 5.5,4.240714 6.3308228,4.957471 8.8246577,2.796577 7.9933222,2.091918 5.5,4.240714 M 16.322603,2 13.584589,4.359042 15.761986,6.223525 18.5,3.88809 16.322603,2"
       inkscape:connector-curvature="0" />
    <path
       style="opacity:0.4;fill:#000000;fill-opacity:1;display:inline"
       d="M 16.3125,2 13.59375,4.34375 13.875,4.59375 16.3125,2.5 18.21875,4.125 18.5,3.875 16.3125,2 z M 8,2.09375 5.5,4.25 5.78125,4.5 8,2.59375 8.53125,3.03125 8.8125,2.78125 8,2.09375 z M 9.65625,3.5 l -2.5,2.15625 0.28125,0.25 L 9.65625,4 10.21875,4.46875 10.5,4.21875 9.65625,3.5 z m 2.3125,1.84375 c -1.475342,0 -2.6875,1.041429 -2.6875,2.3125 0,0.084646 0.020912,0.1677171 0.03125,0.25 0.1448974,-1.1532743 1.279157,-2.0625 2.65625,-2.0625 1.376934,0 2.480103,0.9091232 2.625,2.0625 0.01034,-0.082291 0.03125,-0.1653446 0.03125,-0.25 0,-1.271218 -1.181079,-2.3125 -2.65625,-2.3125 z M 10.5,7.90625 c -0.01587,0.07526 -0.03125,0.1708137 -0.03125,0.25 -1.71e-4,0.712036 0.673801,1.28125 1.5,1.28125 0.826541,0 1.5,-0.569214 1.5,-1.28125 0,-0.079186 -0.01539,-0.1747397 -0.03125,-0.25 C 13.298148,8.4937349 12.691973,8.9375 11.96875,8.9375 11.245826,8.9375 10.639364,8.4937349 10.5,7.90625 z m -0.3125,3.0625 0,0.5 3.53125,0 0,-0.5 -3.53125,0 z m 0,2.03125 0,0.5 3.53125,0 0,-0.5 -3.53125,0 z"
       id="path2931"
       inkscape:connector-curvature="0" />
  </g>
</svg>
