<?xml version="1.0" encoding="UTF-8" standalone="no"?>
<!-- Created with Inkscape (http://www.inkscape.org/) -->

<svg
   xmlns:dc="http://purl.org/dc/elements/1.1/"
   xmlns:cc="http://creativecommons.org/ns#"
   xmlns:rdf="http://www.w3.org/1999/02/22-rdf-syntax-ns#"
   xmlns:svg="http://www.w3.org/2000/svg"
   xmlns="http://www.w3.org/2000/svg"
   xmlns:xlink="http://www.w3.org/1999/xlink"
   xmlns:sodipodi="http://sodipodi.sourceforge.net/DTD/sodipodi-0.dtd"
   xmlns:inkscape="http://www.inkscape.org/namespaces/inkscape"
   width="24"
   height="24"
   id="svg2"
   sodipodi:version="0.32"
   inkscape:version="0.48.1 r9760"
   version="1.0"
   sodipodi:docname="drive-harddisk.svg"
   inkscape:output_extension="org.inkscape.output.svg.inkscape"
   style="display:inline">
  <defs
     id="defs4">
    <linearGradient
       inkscape:collect="always"
       id="linearGradient3865">
      <stop
         style="stop-color:#ffffff;stop-opacity:1;"
         offset="0"
         id="stop3867" />
      <stop
         style="stop-color:#ffffff;stop-opacity:0;"
         offset="1"
         id="stop3869" />
    </linearGradient>
    <linearGradient
       id="linearGradient3848">
      <stop
         id="stop3850"
         offset="0"
         style="stop-color:#3187e7;stop-opacity:1;" />
      <stop
         id="stop3852"
         offset="1"
         style="stop-color:#79b1ef;stop-opacity:1;" />
    </linearGradient>
    <linearGradient
       inkscape:collect="always"
       xlink:href="#linearGradient3767"
       id="linearGradient3816"
       gradientUnits="userSpaceOnUse"
       gradientTransform="matrix(0,0.1452006,-0.1832384,0,22.622097,-1.5989999)"
       x1="105.55817"
       y1="62.97105"
       x2="24.668499"
       y2="62.97105" />
    <clipPath
       clipPathUnits="userSpaceOnUse"
       id="clipPath3520">
      <path
         style="fill:#ffffff;fill-opacity:1;fill-rule:nonzero;stroke:none"
         d="m 9.9375,33.6875 c -3.2232728,0 -5.84375,1.784 -5.84375,4 l 0,67.71875 c 0,2.216 2.6204767,4 5.84375,4 l 77.625,0 c 3.223273,0 5.843753,-1.784 5.84375,-4 l 0,-67.71875 c 0,-2.216 -2.62048,-4 -5.84375,-4 l -77.625,0 z M 47.90625,42 c 3.431866,0 6.21875,2.198129 6.21875,4.9375 0,2.181733 -1.764187,4.054067 -4.21875,4.71875 l 0,3.5625 c 0.01488,0.497551 0.298693,1.06729 0.6875,1.46875 0.09978,0.07533 8.192442,6.200116 8.21875,6.21875 0.0084,0.0065 0.02327,-0.0068 0.03125,0 0.02396,0.01835 0.04599,0.04881 0.0625,0.0625 0.0042,0.0036 0.02447,-0.006 0.03125,0 0.0068,0.006 0.03104,0.06226 0.03125,0.0625 2.6e-5,2.9e-5 0.06248,0.06248 0.0625,0.0625 0,0 10e-7,0.03125 0,0.03125 0.01173,0.01044 0.01956,0.02072 0.03125,0.03125 1.096118,0.988597 2.000001,2.355113 2,3.8125 l 0,4.09375 C 62.785851,71.690189 64,73.086119 64,74.71875 c 0,2.220106 -2.20417,4.031251 -4.9375,4.03125 -2.733338,0 -4.96875,-1.811144 -4.96875,-4.03125 0,-1.655395 1.236126,-3.071778 3,-3.6875 -2.35e-4,-1.047382 -10e-7,-2.379418 0,-4.09375 -0.01444,-0.497879 -0.297358,-1.034548 -0.6875,-1.4375 l -6.5,-4.9375 0,28.125 4.46875,0 L 48,98 l -6.375,-9.3125 4.3125,0 0,-21.96875 -6.53125,4.9375 c -0.394904,0.406057 -0.673191,0.908993 -0.6875,1.40625 0,2.101393 0,2.980142 0,3.8125 l 2.8125,0 0,7.90625 -9.53125,0 0,-7.90625 2.78125,0 0,-3.75 c 0,-1.44207 0.88924,-2.794493 1.96875,-3.78125 0,0 0.0213,-0.01152 0.03125,-0.03125 0.0043,-0.0039 -0.0044,-0.02734 0,-0.03125 0,0 0.03125,-0.03125 0.03125,-0.03125 1.5e-5,-2.1e-5 0.03122,-0.03122 0.03125,-0.03125 2.03e-4,-2.43e-4 0.05499,-0.08694 0.0625,-0.09375 0.0047,-0.004 -0.0046,-0.02742 0,-0.03125 0.01531,-0.01278 0.07133,-0.01367 0.09375,-0.03125 0.0079,-0.01061 0.02312,-0.02513 0.03125,-0.03125 0.01626,-0.01224 0.03151,-0.0079 0.0625,-0.03125 0.06197,-0.04673 0.166883,-0.13246 0.28125,-0.21875 0.228732,-0.172571 0.516577,-0.424672 0.90625,-0.71875 0.779348,-0.588157 1.839188,-1.343188 2.875,-2.125 2.046308,-1.544518 4.044131,-3.087545 4.09375,-3.125 0.392715,-0.403164 0.671626,-0.909306 0.6875,-1.40625 l 0,-6.15625 c -0.003,-0.04389 -4.59e-4,-0.02213 0,-0.03125 4.59e-4,-0.0091 -10e-7,-0.03827 0,-0.03125 l 0,-3.53125 C 43.481518,50.991635 41.687502,49.119667 41.6875,46.9375 41.6875,44.198126 44.473344,42 47.90625,42 z"
         id="path3522"
         inkscape:connector-curvature="0" />
    </clipPath>
    <clipPath
       clipPathUnits="userSpaceOnUse"
       id="clipPath3824">
      <path
         style="fill:#ffffff;fill-opacity:1;fill-rule:nonzero;stroke:none;display:inline"
         d="m 16,12 c -2.216,0 -4,1.784 -4,4 l 0,52 c 0,2.216 1.784,4 4,4 l 64,0 c 2.216,0 4,-1.784 4,-4 l 0,-52 c 0,-2.216 -1.784,-4 -4,-4 l -64,0 z m 32,8 2.65625,2.25 18.6875,15.625 L 72,40.125 69.34375,42.34375 55.375,54.0625 l 0,-8.875 L 61.40625,40.125 48,28.875 l -13.40625,11.25 6.03125,5.0625 0,8.875 L 26.65625,42.34375 24,40.125 26.65625,37.875 45.34375,22.25 48,20 z m -3.75,20.03125 7.5,0 0,21.96875 -7.5,0 0,-21.96875 z"
         id="path3826"
         inkscape:connector-curvature="0" />
    </clipPath>
    <linearGradient
       id="linearGradient3767">
      <stop
         style="stop-color:#4d4d4d;stop-opacity:0.70731705;"
         offset="0"
         id="stop3769" />
      <stop
         style="stop-color:#4d4d4d;stop-opacity:0.25203252;"
         offset="1"
         id="stop3771" />
    </linearGradient>
    <linearGradient
       id="linearGradient3313">
      <stop
         style="stop-color:#8ad4ff;stop-opacity:1;"
         offset="0"
         id="stop3315" />
      <stop
         id="stop4186"
         offset="0.67213112"
         style="stop-color:#1379ff;stop-opacity:0.902439;" />
      <stop
         style="stop-color:#0066ff;stop-opacity:0;"
         offset="1"
         id="stop3317" />
    </linearGradient>
    <radialGradient
       inkscape:collect="always"
       xlink:href="#linearGradient3313"
       id="radialGradient4138"
       gradientUnits="userSpaceOnUse"
       gradientTransform="matrix(0.3,0,0,0.03480565,-2.4000004,15.076323)"
       cx="47.777802"
       cy="76.852455"
       fx="47.777802"
       fy="76.852455"
       r="30" />
    <linearGradient
       id="linearGradient3273">
      <stop
         style="stop-color:#7a7a7a;stop-opacity:1;"
         offset="0"
         id="stop3275" />
      <stop
         id="stop3281"
         offset="0.14636412"
         style="stop-color:#f9f9f9;stop-opacity:1" />
      <stop
         style="stop-color:#c9c9c9;stop-opacity:1"
         offset="0.37253973"
         id="stop3283" />
      <stop
         style="stop-color:#dedede;stop-opacity:0;"
         offset="1"
         id="stop3639" />
    </linearGradient>
    <linearGradient
       id="linearGradient3322">
      <stop
         id="stop3324"
         offset="0"
         style="stop-color:#7a7a7a;stop-opacity:1;" />
      <stop
         style="stop-color:#f9f9f9;stop-opacity:1"
         offset="0.2032043"
         id="stop3326" />
      <stop
         id="stop3328"
         offset="0.42969123"
         style="stop-color:#c9c9c9;stop-opacity:1" />
      <stop
         id="stop3632"
         offset="1"
         style="stop-color:#dedede;stop-opacity:0;" />
    </linearGradient>
    <linearGradient
       id="linearGradient4327">
      <stop
         style="stop-color:#f0f0f0;stop-opacity:1;"
         offset="0"
         id="stop4329" />
      <stop
         id="stop4331"
         offset="1"
         style="stop-color:#b4b4b4;stop-opacity:1;" />
    </linearGradient>
    <clipPath
       clipPathUnits="userSpaceOnUse"
       id="clipPath3785">
      <rect
         style="fill:#ffffff;fill-opacity:1;fill-rule:nonzero;stroke:none"
         id="rect3787"
         width="84"
         height="72"
         x="6"
         y="6"
         rx="6"
         ry="6" />
    </clipPath>
    <linearGradient
       id="linearGradient3220">
      <stop
         style="stop-color:#ffffff;stop-opacity:1;"
         offset="0"
         id="stop3222" />
      <stop
         style="stop-color:#bfbfbf;stop-opacity:0;"
         offset="1"
         id="stop3224" />
    </linearGradient>
    <linearGradient
       inkscape:collect="always"
       xlink:href="#linearGradient3220"
       id="linearGradient3781"
       gradientUnits="userSpaceOnUse"
       x1="15.656256"
       y1="69.394279"
       x2="46.594883"
       y2="39.82095"
       gradientTransform="matrix(1.1165614,0,0,1.1165614,0.8046986,-5.6759082)" />
    <linearGradient
       inkscape:collect="always"
       id="linearGradient3327">
      <stop
         style="stop-color:#000000;stop-opacity:1;"
         offset="0"
         id="stop3330" />
      <stop
         style="stop-color:#000000;stop-opacity:0;"
         offset="1"
         id="stop3333" />
    </linearGradient>
    <linearGradient
       inkscape:collect="always"
       xlink:href="#linearGradient4327"
       id="linearGradient3181"
       x1="-3.0607977"
       y1="27.258198"
       x2="-3.0607977"
       y2="7.2536583"
       gradientUnits="userSpaceOnUse"
       gradientTransform="translate(12.119372,-27.258198)" />
    <inkscape:perspective
       sodipodi:type="inkscape:persp3d"
       inkscape:vp_x="0 : 11 : 1"
       inkscape:vp_y="0 : 1000 : 0"
       inkscape:vp_z="22 : 11 : 1"
       inkscape:persp3d-origin="11 : 7.3333333 : 1"
       id="perspective2531" />
    <linearGradient
       id="ButtonShadow"
       gradientTransform="scale(0.9883037,1.0118347)"
       x1="9.3550024"
       y1="21.742682"
       x2="9.3550024"
       y2="0.49362123"
       gradientUnits="userSpaceOnUse">
      <stop
         id="stop3277"
         offset="0"
         style="stop-color:#000000;stop-opacity:0.70588237;" />
      <stop
         id="stop3279"
         offset="1"
         style="stop-color:#000000;stop-opacity:0.15686275;" />
    </linearGradient>
    <linearGradient
       inkscape:collect="always"
       id="linearGradient3232">
      <stop
         style="stop-color:#000000;stop-opacity:1;"
         offset="0"
         id="stop3234" />
      <stop
         style="stop-color:#000000;stop-opacity:0;"
         offset="1"
         id="stop3236" />
    </linearGradient>
    <linearGradient
       gradientUnits="userSpaceOnUse"
       y2="-6.0004225"
       x2="11"
       y1="14.805666"
       x1="11"
       id="linearGradient3221"
       xlink:href="#linearGradient3232"
       inkscape:collect="always" />
    <linearGradient
       id="ButtonColor"
       x1="10.31979"
       y1="21"
       x2="10.31979"
       y2="0.99929649"
       gradientUnits="userSpaceOnUse">
      <stop
         style="stop-color:#29669f;stop-opacity:1;"
         offset="0"
         id="stop3189" />
      <stop
         style="stop-color:#88b6e0;stop-opacity:1;"
         offset="1"
         id="stop3191" />
    </linearGradient>
    <linearGradient
       inkscape:collect="always"
       xlink:href="#ButtonShadow"
       id="linearGradient38042"
       gradientUnits="userSpaceOnUse"
       gradientTransform="scale(0.9883037,1.0118347)"
       x1="9.3550024"
       y1="21.742682"
       x2="9.3550024"
       y2="0.49362123" />
    <linearGradient
       inkscape:collect="always"
       xlink:href="#linearGradient3327"
       id="linearGradient2464"
       gradientUnits="userSpaceOnUse"
       x1="11.375"
       y1="22"
       x2="11.375"
       y2="-9.817296"
       gradientTransform="translate(1,-1)" />
    <linearGradient
       inkscape:collect="always"
       xlink:href="#linearGradient3767"
       id="linearGradient3628"
       gradientUnits="userSpaceOnUse"
       gradientTransform="matrix(0,0.1452006,-0.1565637,0,21.036055,-1.0989999)"
       x1="105.55817"
       y1="62.97105"
       x2="24.668499"
       y2="62.97105" />
    <linearGradient
       inkscape:collect="always"
       xlink:href="#linearGradient3767"
       id="linearGradient3630"
       gradientUnits="userSpaceOnUse"
       gradientTransform="matrix(0,0.1452006,-0.1565637,0,21.036055,-1.5989999)"
       x1="105.55817"
       y1="62.97105"
       x2="24.668499"
       y2="62.97105" />
    <linearGradient
       inkscape:collect="always"
       xlink:href="#linearGradient3767"
       id="linearGradient3834"
       gradientUnits="userSpaceOnUse"
       gradientTransform="matrix(0,0.1452006,-0.1832384,0,22.622097,-1.5989999)"
       x1="105.55817"
       y1="62.97105"
       x2="24.668499"
       y2="62.97105" />
    <linearGradient
       inkscape:collect="always"
       xlink:href="#linearGradient3767"
       id="linearGradient3855"
       gradientUnits="userSpaceOnUse"
       gradientTransform="matrix(0,0.1458287,-0.1715765,0,22.273103,18.379156)"
       x1="107.11776"
       y1="60.21579"
       x2="24.778135"
       y2="60.21579" />
    <clipPath
       clipPathUnits="userSpaceOnUse"
       id="clipPath3860">
      <path
         style="fill:#ffffff;fill-opacity:1;fill-rule:evenodd;stroke:none;display:inline"
         d="m 3,21 c -1.108,0 -2,0.892 -2,2 l 0,11 c 0,1.108 0.892,2 2,2 l 16,0 c 1.108,0 2,-0.892 2,-2 l 0,-11 c 0,-1.108 -0.892,-2 -2,-2 L 3,21 z m 8.4375,0.96875 c 0.694419,0 1.28125,0.472111 1.28125,1.0625 0,0.415549 -0.310491,0.759958 -0.71875,0.9375 L 12,24.75 c 0.02019,0.01624 1.963426,1.370984 1.96875,1.375 0.307586,0.249579 0.50562,0.520274 0.4375,0.875 l 0,0.15625 c 0.449492,0.143748 0.78125,0.490157 0.78125,0.9375 0,0.570486 -0.511907,1.062499 -1.15625,1.0625 -0.644343,0 -1.15625,-0.492013 -1.15625,-1.0625 0,-0.437006 0.285522,-0.786441 0.71875,-0.9375 6e-6,-0.02244 0,-0.0028 0,-0.1875 -0.0029,-0.107302 -0.04606,-0.225656 -0.125,-0.3125 L 12,25.71875 l 0,5.9375 1.3125,0 L 11.46875,34 9.5,31.65625 l 1.40625,0 0,-4.875 c -0.252269,0.12192 -2.3693328,0.762217 -2.4375,1.28125 -0.053401,0.406606 -0.00879,0.540649 0,0.65625 l 0.625,0 0,1.75 -2.09375,0 0,-1.75 0.65625,0 0,-0.625 c 0,-0.310795 0.1878172,-0.631084 0.40625,-0.84375 0.085918,-0.07607 0.1769422,-0.194741 0.3125,-0.28125 0.469939,-0.376233 2.065619,-0.744568 2.53125,-1.125 l 0,-1.875 c -0.408404,-0.177519 -0.71875,-0.521869 -0.71875,-0.9375 0,-0.590389 0.55537,-1.062501 1.25,-1.0625 z"
         id="path3862"
         inkscape:connector-curvature="0" />
    </clipPath>
    <linearGradient
       inkscape:collect="always"
       xlink:href="#linearGradient3831"
       id="linearGradient3845"
       x1="11"
       y1="19.5"
       x2="21"
       y2="19.5"
       gradientUnits="userSpaceOnUse"
       spreadMethod="reflect" />
    <linearGradient
       id="linearGradient3831">
      <stop
         style="stop-color:#ffffff;stop-opacity:1;"
         offset="0"
         id="stop3833" />
      <stop
         id="stop3821"
         offset="0.75"
         style="stop-color:#ffffff;stop-opacity:0.49803922;" />
      <stop
         style="stop-color:#ffffff;stop-opacity:0;"
         offset="1"
         id="stop3835" />
    </linearGradient>
    <linearGradient
       inkscape:collect="always"
       xlink:href="#linearGradient3865"
       id="linearGradient3871"
       x1="10.854259"
       y1="0.92329043"
       x2="10.854259"
       y2="55"
       gradientUnits="userSpaceOnUse"
       gradientTransform="translate(1,-1)" />
    <linearGradient
       y2="88"
       x2="48"
       y1="88"
       x1="90"
       spreadMethod="reflect"
       gradientUnits="userSpaceOnUse"
       id="linearGradient3140"
       xlink:href="#linearGradient3892-6"
       inkscape:collect="always" />
    <linearGradient
       id="linearGradient3892-6">
      <stop
         style="stop-color:#000000;stop-opacity:0.58823532;"
         offset="0"
         id="stop3894-4" />
      <stop
         id="stop3896-3"
         offset="0.11780351"
         style="stop-color:#000000;stop-opacity:0.47058824;" />
      <stop
         style="stop-color:#000000;stop-opacity:0.39215687;"
         offset="0.23809524"
         id="stop3898-3" />
      <stop
         style="stop-color:#000000;stop-opacity:0.3137255;"
         offset="1"
         id="stop3900-6" />
    </linearGradient>
    <linearGradient
       inkscape:collect="always"
       xlink:href="#linearGradient3892-6"
       id="linearGradient3902"
       x1="1"
       y1="-13.5"
       x2="11.045877"
       y2="-13.5"
       gradientUnits="userSpaceOnUse"
       spreadMethod="reflect"
       gradientTransform="translate(1,1)" />
    <linearGradient
       inkscape:collect="always"
       xlink:href="#linearGradient3865"
       id="linearGradient3930"
       gradientUnits="userSpaceOnUse"
       gradientTransform="matrix(1,0,0,-1,12.119372,27.258198)"
       x1="-0.119372"
       y1="13.258198"
       x2="-10.119372"
       y2="13.258198"
       spreadMethod="reflect" />
    <linearGradient
       inkscape:collect="always"
       xlink:href="#linearGradient3767-0"
       id="linearGradient3968"
       x1="56"
       y1="64"
       x2="56"
       y2="24"
       gradientUnits="userSpaceOnUse" />
    <linearGradient
       id="linearGradient3767-0">
      <stop
         style="stop-color:#4d4d4d;stop-opacity:0.70731705;"
         offset="0"
         id="stop3769-4" />
      <stop
         style="stop-color:#4d4d4d;stop-opacity:0.3137255;"
         offset="1"
         id="stop3771-1" />
    </linearGradient>
    <linearGradient
       gradientTransform="matrix(0.29166667,0,0,0.29866125,-2,-5.1483385)"
       y2="24"
       x2="56"
       y1="64"
       x1="56"
       gradientUnits="userSpaceOnUse"
       id="linearGradient3989"
       xlink:href="#linearGradient3767-0"
       inkscape:collect="always" />
  </defs>
  <sodipodi:namedview
     id="base"
     pagecolor="#ffffff"
     bordercolor="#e7e7e7"
     borderopacity="1"
     inkscape:pageopacity="0.0"
     inkscape:pageshadow="2"
     inkscape:zoom="24.411791"
     inkscape:cx="-24.346618"
     inkscape:cy="9.9126279"
     inkscape:document-units="px"
     inkscape:current-layer="layer5"
     showgrid="true"
     inkscape:showpageshadow="false"
     showguides="false"
     inkscape:guide-bbox="true"
     inkscape:window-width="1920"
     inkscape:window-height="1030"
     inkscape:window-x="0"
     inkscape:window-y="25"
     inkscape:snap-global="false"
     inkscape:window-maximized="1">
    <sodipodi:guide
       orientation="1,0"
       position="0,112"
       id="guide2383" />
    <sodipodi:guide
       orientation="0,1"
       position="26.278146,128"
       id="guide2385" />
    <sodipodi:guide
       orientation="1,0"
       position="128,54.082119"
       id="guide2387" />
    <sodipodi:guide
       orientation="0,1"
       position="78.156291,0"
       id="guide2389" />
    <sodipodi:guide
       orientation="0,1"
       position="60.863576,64.084768"
       id="guide2391" />
    <inkscape:grid
       type="xygrid"
       id="grid3672"
       visible="true"
       enabled="true"
       empspacing="8"
       snapvisiblegridlinesonly="true" />
  </sodipodi:namedview>
  <metadata
     id="metadata7">
    <rdf:RDF>
      <cc:Work
         rdf:about="">
        <dc:format>image/svg+xml</dc:format>
        <dc:type
           rdf:resource="http://purl.org/dc/dcmitype/StillImage" />
        <dc:title />
      </cc:Work>
    </rdf:RDF>
  </metadata>
  <g
     inkscape:groupmode="layer"
     id="layer3"
     inkscape:label="Shadow"
     transform="translate(0,2)"
     sodipodi:insensitive="true">
    <rect
       style="opacity:0.5;fill:url(#linearGradient2464);fill-opacity:1;stroke:none;display:inline"
       id="rect3371"
       width="21"
       height="21.5"
       x="1.5"
       y="-0.5"
       rx="2.5"
       ry="2.5" />
    <rect
       ry="2.3255813"
       rx="2.3809524"
       y="1"
       x="2"
       height="20"
       width="20"
       id="rect2553"
       style="opacity:0.4;fill:#000000;fill-opacity:1;stroke:none;display:inline" />
  </g>
  <g
     inkscape:groupmode="layer"
     id="layer2"
     inkscape:label="Facade"
     transform="translate(0,2)"
     sodipodi:insensitive="true">
    <rect
       transform="scale(1,-1)"
       ry="2"
       rx="2"
       y="-20"
       x="2"
       height="15"
       width="20"
       id="rect4177"
       style="fill:#cacaca;fill-opacity:1;fill-rule:evenodd;stroke:none;display:inline" />
    <path
       style="fill:#282828;fill-opacity:1;fill-rule:evenodd;stroke:none;display:inline"
       d="m 3.9999999,18.999999 c -1.108,0 -2,-0.891999 -2,-1.999999 l 0,-2 c 0,1.108 0.892,2 2,2 L 20,17 c 1.108,0 2,-0.892 2,-2 l 0,2 c 0,1.108 -0.892,1.999999 -2,1.999999 l -16.0000001,0 z"
       id="path4182"
       sodipodi:nodetypes="ccccccccc"
       inkscape:connector-curvature="0" />
    <path
       sodipodi:nodetypes="ccccccccc"
       id="path4203"
       d="m 3.9999999,17.999999 c -1.108,0 -2,-0.891999 -2,-1.999999 l 0,-1 c 0,1.108 0.892,2 2,2 L 20,17 c 1.108,0 2,-0.892 2,-2 l 0,1 c 0,1.108 -0.892,1.999999 -2,1.999999 l -16.0000001,0 z"
       style="fill:#000000;fill-opacity:1;fill-rule:evenodd;stroke:none;display:inline"
       inkscape:connector-curvature="0" />
    <rect
       style="opacity:0.6;fill:url(#linearGradient3902);fill-opacity:1;fill-rule:evenodd;stroke:none;display:inline"
       id="rect3894"
       width="20"
       height="15"
       x="2"
       y="-20"
       rx="2"
       ry="2"
       transform="scale(1,-1)" />
  </g>
  <g
     inkscape:label="Top"
     inkscape:groupmode="layer"
     id="layer1"
     transform="translate(0,2)"
     sodipodi:insensitive="true">
    <rect
       style="fill:url(#linearGradient3181);fill-opacity:1;fill-rule:evenodd;stroke:none;display:inline"
       id="rect3173"
       width="20"
       height="15.924147"
       x="2"
       y="-15.924143"
       rx="2"
       ry="2"
       transform="scale(1,-1)" />
    <path
       style="opacity:0.25;fill:#ffffff;fill-opacity:1;fill-rule:evenodd;stroke:none;display:inline"
       d="m 3.9999999,-1.8e-7 c -1.108,0 -2,0.89199998 -2,1.99999998 l 0,1 c 0,-1.108 0.892,-2 2,-2 l 16.0000001,0 c 1.108,0 2,0.892 2,2 l 0,-1 C 22,0.8919998 21.108,-1.8e-7 20,-1.8e-7 l -16.0000001,0 z"
       id="rect3183"
       inkscape:connector-curvature="0" />
    <path
       style="opacity:0.6;fill:url(#linearGradient3871);fill-opacity:1;fill-rule:evenodd;stroke:none;display:inline"
       d="M 4,0 C 2.892,0 2,0.892 2,2 l 0,11.971731 c 0,1.108 0.892,2 2,2 l 16,0 c 1.108,0 2,-0.892 2,-2 L 22,2 C 22,0.892 21.108,0 20,0 z m 0,1 16,0 c 0.571596,0 1,0.4284045 1,1 l 0,11.971731 c 0,0.571596 -0.428404,1 -1,1 l -16,0 c -0.5715955,0 -1,-0.428404 -1,-1 L 3,2 C 3,1.4284045 3.4284045,1 4,1 z"
       id="path4188"
       sodipodi:nodetypes="cccccccccccccccccc"
       inkscape:connector-curvature="0" />
    <path
       style="opacity:0.2;fill:url(#linearGradient3930);fill-opacity:1;fill-rule:evenodd;stroke:none;display:inline"
       d="m 2,11.9375 0,2 c 0,1.108 0.892,2 2,2 l 16,0 c 1.108,0 2,-0.892 2,-2 l 0,-2 c 0,1.108 -0.892,2 -2,2 l -16,0 c -1.108,0 -2,-0.892 -2,-2 z"
       id="rect3921"
       inkscape:connector-curvature="0" />
  </g>
  <g
     inkscape:groupmode="layer"
     id="layer4"
     inkscape:label="Light"
     style="display:inline"
     transform="translate(0,2)"
     sodipodi:insensitive="true">
    <rect
       style="fill:url(#radialGradient4138);fill-opacity:1;fill-rule:nonzero;stroke:none;display:inline"
       id="rect3311"
       width="18"
       height="2.0883393"
       x="3"
       y="16.95583"
       rx="1.6363636"
       ry="2.0883393" />
  </g>
  <g
     inkscape:groupmode="layer"
     id="layer5"
     inkscape:label="Symbol"
     transform="translate(0,2)">
    <path
       sodipodi:type="inkscape:offset"
       inkscape:radius="1.0240953"
       inkscape:original="M 12 2.03125 C 8.1340067 2.03125 5 4.7188587 5 8.03125 C 5 9.4377664 5.5537514 10.727213 6.5 11.75 L 12.0625 9.78125 C 12.04427 9.7816383 12.01835 9.78125 12 9.78125 C 10.872419 9.78125 9.96875 8.9973641 9.96875 8.03125 C 9.96875 7.0651361 10.872419 6.28125 12 6.28125 C 13.127581 6.28125 14.03125 7.0651361 14.03125 8.03125 C 14.03125 8.5630146 13.749533 9.0229179 13.3125 9.34375 C 13.3029 9.35079 13.29099 9.36811 13.28125 9.375 L 9.3125 13.5625 C 10.142847 13.85994 11.043728 14 12 14 C 15.865993 14 19 11.343641 19 8.03125 C 19 4.7188587 15.865993 2.03125 12 2.03125 z M 12 7.03125 C 11.355668 7.03125 10.84375 7.4791848 10.84375 8.03125 C 10.84375 8.5833154 11.355668 9.03125 12 9.03125 C 12.644332 9.03125 13.15625 8.5833154 13.15625 8.03125 C 13.15625 7.4791848 12.644332 7.03125 12 7.03125 z M 6.71875 12.75 C 6.3124038 12.76953 5.936434 13.047801 5.875 13.40625 C 5.80479 13.815906 6.1468784 14.189844 6.625 14.25 C 7.1031216 14.31016 7.5547897 14.034656 7.625 13.625 C 7.69521 13.215345 7.3531215 12.841407 6.875 12.78125 C 6.815235 12.77375 6.7767995 12.74718 6.71875 12.75 z "
       style="opacity:0.3;color:#000000;fill:#ffffff;fill-opacity:1;fill-rule:nonzero;stroke:none;stroke-width:1.50000000000000000;marker:none;visibility:visible;display:inline;overflow:visible;enable-background:accumulate"
       id="path3969"
       d="M 12,1 C 7.6593779,1 3.96875,4.0728961 3.96875,8.03125 c 0,1.543277 0.6111451,2.945752 1.5625,4.09375 -0.3371897,0.252252 -0.5722554,0.603667 -0.65625,1.09375 -0.1812974,1.057821 0.6853776,1.944279 1.625,2.0625 0.8275832,0.104131 1.6127296,-0.373308 1.9375,-1.1875 a 1.0241977,1.0241977 0 0 0 0.53125,0.4375 c 0.9556478,0.342324 1.974982,0.5 3.03125,0.5 4.335103,0 8.03125,-3.041646 8.03125,-7 C 20.03125,4.072896 16.340622,1 12,1 z M 9.59375,11.75 8.5625,12.84375 A 1.0241977,1.0241977 0 0 0 8.40625,13.0625 C 8.3018242,12.76868 8.235259,12.514996 8,12.3125 L 9.59375,11.75 z" />
    <path
       style="opacity:0.7;color:#000000;fill:url(#linearGradient3989);fill-opacity:1;fill-rule:nonzero;stroke:none;stroke-width:1.50000000000000000;marker:none;visibility:visible;display:inline;overflow:visible;enable-background:accumulate"
       d="m 12,2.0195313 c -3.8659933,0 -7,2.688833 -7,6.0012243 0,1.4065164 0.5667722,2.7011454 1.5130208,3.7239324 L 12.054687,9.7660572 c -0.01823,3.883e-4 -0.03634,0 -0.05469,0 -1.127581,0 -2.0416667,-0.7791875 -2.0416667,-1.7453016 0,-0.9661139 0.9140857,-1.7546348 2.0416667,-1.7546348 1.127581,0 2.041667,0.7885209 2.041667,1.7546348 0,0.5317646 -0.283019,1.0044772 -0.720052,1.3253093 -0.0096,0.00704 -0.0176,0.011776 -0.02734,0.018666 l -3.9921887,4.19059 C 10.13243,13.852761 11.043728,14.012647 12,14.012647 c 3.865993,0 7,-2.6795 7,-5.9918914 0,-3.3123913 -3.134007,-6.0012243 -7,-6.0012243 z m 0,5.0025757 c -0.644332,0 -1.166667,0.4465834 -1.166667,0.9986486 0,0.5520654 0.522335,0.9986486 1.166667,0.9986486 0.644332,0 1.166667,-0.4465832 1.166667,-0.9986486 C 13.166667,7.4686904 12.644332,7.022107 12,7.022107 z m -5.2955729,5.739896 c -0.4063462,0.01953 -0.7588785,0.285539 -0.8203125,0.643988 -0.07021,0.409656 0.2601596,0.789162 0.7382812,0.849318 0.4781216,0.06016 0.9232793,-0.224999 0.9934896,-0.634655 0.07021,-0.409655 -0.2601597,-0.789161 -0.7382812,-0.849318 -0.059765,-0.0075 -0.1151276,-0.01212 -0.1731771,-0.0093 z"
       id="path3157"
       inkscape:connector-curvature="0" />
    <path
       style="opacity:0.2;color:#000000;fill:#000000;fill-opacity:1;fill-rule:nonzero;stroke:none;stroke-width:1.50000000000000000;marker:none;visibility:visible;display:inline;overflow:visible;enable-background:accumulate"
       d="M 12 4.03125 C 8.1340067 4.03125 5 6.7188587 5 10.03125 C 5 10.163282 5.0214163 10.276322 5.03125 10.40625 C 5.3897199 7.3815197 8.3756313 5.03125 12 5.03125 C 15.624368 5.03125 18.61028 7.3815197 18.96875 10.40625 C 18.9784 10.277392 19 10.162213 19 10.03125 C 19 6.7188587 15.865993 4.03125 12 4.03125 z M 12 9.28125 C 11.659724 9.28125 11.344637 9.3419212 11.0625 9.46875 C 10.936705 9.6281199 10.84375 9.8242255 10.84375 10.03125 C 10.84375 10.214711 10.930574 10.352355 11.03125 10.5 C 11.23659 10.214533 11.579613 10.03125 12 10.03125 C 12.420387 10.03125 12.76341 10.214533 12.96875 10.5 C 13.069426 10.352355 13.15625 10.214711 13.15625 10.03125 C 13.15625 9.8242255 13.063295 9.6281199 12.9375 9.46875 C 12.655363 9.3419212 12.340276 9.28125 12 9.28125 z M 10.0625 10.5 C 10.002846 10.664632 9.96875 10.850104 9.96875 11.03125 C 9.96875 11.537531 10.223776 11.962867 10.625 12.28125 L 11.59375 11.9375 C 11.360861 11.864857 11.199047 11.735491 11.0625 11.5625 C 10.574936 11.345377 10.219577 10.959728 10.0625 10.5 z M 13.9375 10.53125 C 13.819986 10.84715 13.599864 11.132792 13.3125 11.34375 C 13.3029 11.35079 13.29099 11.36811 13.28125 11.375 L 11.96875 12.78125 C 11.979303 12.781387 11.989409 12.78125 12 12.78125 C 12.01835 12.78125 12.04427 12.781639 12.0625 12.78125 L 11.90625 12.84375 L 9.3125 15.5625 C 9.5597331 15.651062 9.8018634 15.717667 10.0625 15.78125 L 13.28125 12.375 C 13.29099 12.36811 13.3029 12.35075 13.3125 12.34375 C 13.749533 12.022918 14.03125 11.563015 14.03125 11.03125 C 14.03125 10.860514 13.99073 10.687521 13.9375 10.53125 z M 6.71875 14.75 C 6.3124038 14.76953 5.936434 15.047801 5.875 15.40625 C 5.835765 15.635175 5.9581673 15.840374 6.125 16 C 6.2758151 15.869267 6.4986458 15.760579 6.71875 15.75 C 6.7767995 15.74718 6.815235 15.77375 6.875 15.78125 C 7.085936 15.80779 7.24329 15.905229 7.375 16.03125 C 7.4975837 15.922132 7.5974174 15.785936 7.625 15.625 C 7.69521 15.215345 7.3531215 14.841407 6.875 14.78125 C 6.815235 14.77375 6.7767995 14.74718 6.71875 14.75 z "
       transform="translate(0,-2)"
       id="path3958" />
  </g>
</svg>
