
<svg width="22" height="22" version="1.1" xmlns="http://www.w3.org/2000/svg">
	<path fill="#bebebe" d="m12 2c-4.4183 0-8 3.5817-8 8 0 0.34 0.0213 0.671 0.0625 1h2.0313c-0.0538-0.323-0.0938-0.662-0.0938-1 0-3.3137 2.6863-6 6-6 3.314 0 6 2.6863 6 6 0 3.314-2.686 6-6 6-0.338 0-0.677-0.04-1-0.094v2.032c0.329 0.041 0.66 0.062 1 0.062 4.418 0 8-3.582 8-8 0-4.4183-3.582-8-8-8zm-0.062 3c-0.516 0-0.938 0.4215-0.938 0.9375v4.1245c0 0.516 0.422 0.938 0.938 0.938 0.021 0.001 0.04 0 0.062 0h0.062 3.438c0.554 0 1-0.446 1-1s-0.446-1-1-1h-2.5v-3.0625c0-0.516-0.422-0.9375-0.938-0.9375h-0.124zm-7.938 7v3h-3v3h3v3h3v-3h3v-3h-3v-3h-3z"/>
</svg>
