
<svg width="22" height="22" version="1.1" xmlns="http://www.w3.org/2000/svg">
	<path d="M 2.5 1 C 1.669 0.99999999 1 1.669 1 2.5 L 1 13.5 C 1 14.331 1.669 15 2.5 15 L 11.5 15 C 12.331 15 13 14.331 13 13.5 L 13 2.5 C 13 1.6690001 12.331 1 11.5 1 L 2.5 1 z M 3.5 3 L 10.5 3 C 10.777 3.0000001 11 3.223 11 3.5 L 11 12.5 C 11 12.777 10.777 13 10.5 13 L 3.5 13 C 3.223 13 3 12.777 3 12.5 L 3 3.5 C 3 3.2230001 3.223 3 3.5 3 z M 14 8.03125 L 14 9.03125 L 19 9.03125 L 19 8.03125 L 14 8.03125 z M 14 10.03125 L 14 12.03125 L 19 12.03125 L 19 10.03125 L 14 10.03125 z M 14 13.03125 L 14 16 L 12 16 L 16.5 21 L 21 16 L 19 16 L 19 13.03125 L 14 13.03125 z M 3 18 C 2.448 18 2 18.448 2 19 C 2 19.552 2.4480001 20 3 20 C 3.552 20 4.0000001 19.552 4 19 C 4 18.448 3.5520001 18 3 18 z M 6 18 C 5.448 18 5.0000001 18.448 5 19 C 5 19.552 5.4480001 20 6 20 C 6.552 20 7.0000001 19.552 7 19 C 7 18.448 6.5520001 18 6 18 z M 9 18 C 8.448 18 8.0000001 18.448 8 19 C 8 19.552 8.4480001 20 9 20 C 9.552 20 10 19.552 10 19 C 10 18.448 9.552 18 9 18 z " fill="#bebebe"/>

</svg>
