
<svg width="22" height="22" version="1.1" xmlns="http://www.w3.org/2000/svg">
	<path d="M 3 6 C 1.892 6 1 6.892 1 8 L 1 12 C 1 13.108 1.892 14 3 14 L 8 14 C 9.108 14 10 13.108 10 12 L 7.5 12 L 6 12 L 3.5 12 C 3.223 12 3 11.777 3 11.5 L 3 8.5 C 3 8.223 3.223 8 3.5 8 L 6 8 L 7.5 8 L 10 8 C 10 6.892 9.108 6 8 6 L 3 6 z M 14 6 C 12.892 6 12 6.892 12 8 L 14.5 8 L 16 8 L 18.5 8 C 18.777 8 19 8.223 19 8.5 L 19 11.5 C 19 11.777 18.777 12 18.5 12 L 16 12 L 14.5 12 L 12 12 C 12 13.108 12.892 14 14 14 L 19 14 C 20.108 14 21 13.108 21 12 L 21 8 C 21 6.892 20.108 6 19 6 L 14 6 z M 7 9 C 6.446 9 6 9.446 6 10 C 6 10.554 6.446 11 7 11 L 15 11 C 15.554 11 16 10.554 16 10 C 16 9.446 15.554 9 15 9 L 7 9 z M 7 16 L 11 20 L 15 16 L 7 16 z " fill="#bebebe"/>

</svg>
