
<svg width="22" height="22" version="1.1" xmlns="http://www.w3.org/2000/svg">
 <path fill="#bebebe" d="m11 2a9 9 0 0 0 -8.7637 7h1.7637 4 0.7676a3 3 0 0 1 2.2324 -1 3 3 0 0 1 3 3 3 3 0 0 1 -2 2.826v6.113a9 9 0 0 0 8 -8.939 9 9 0 0 0 -9 -9zm-9 8c-0.554 0-1 0.446-1 1v9c0 0.554 0.446 1 1 1h2v-3h4v3h2c0.554 0 1-0.446 1-1v-9c0-0.554-0.446-1-1-1h-2v3h-4v-3h-2zm0 1h1v1h-1v-1zm7 0h1v1h-1v-1zm-7 2h1v1h-1v-1zm7 0h1v1h-1v-1zm-5 1h4v3h-4v-3zm-2 1h1v1h-1v-1zm7 0h1v1h-1v-1zm-7 2h1v1h-1v-1zm7 0h1v1h-1v-1zm-7 2h1v1h-1v-1zm7 0h1v1h-1v-1z"/>
</svg>
