
<svg width="22" height="22" version="1.1" xmlns="http://www.w3.org/2000/svg">
	<path d="m11 2c-4.9706 0-9 4.0294-9 9 0.0003124 0.29678 0.015305 0.59337 0.044922 0.88867 0.9709-1.15 2.2441-2.1553 3.8047-2.8109 0.1133-0.0478 0.2345-0.0743 0.3574-0.0781 0.56367-0.016463 1.0295 0.43609 1.0293 1 0 2.163 0.7176 3.2396 1.4688 4.3359 0.37558 0.54815 0.78023 1.0906 1.0488 1.7852 0.2686 0.69455 0.33827 1.5587 0.050781 2.4395-0.1433 0.438-0.352 0.857-0.6133 1.246 0.5948 0.125 1.2006 0.19 1.8086 0.193 4.9706 0 9-4.0294 9-9s-4.0294-9-9-9zm0 6c1.6569 0 3 1.3431 3 3s-1.3431 3-3 3-3-1.343-3-3c0-1.6569 1.3431-3 3-3zm-4.7637 2c-3.273 1.375-5.2363 4.597-5.2363 6.875 0 2.111 1.5151 3.831 3.4629 4.074-0.8786-0.205-1.5371-1.027-1.5371-2.011 0-1.1385 0.98133-2.75 2.6172-3.4375 0 2.4063 1.7572 2.7541 1.3105 4.125-0.2546 0.776-0.874 1.367-1.9473 1.374h0.019531c2.1692 0 3.4172-1.187 3.9278-2.75 0.895-2.742-2.6172-3.438-2.6172-8.25z" fill="#bebebe"/>
	<path d="m6.2369 10c0 4.8125 3.5121 5.5083 2.6171 8.25-0.5106 1.563-1.7585 2.75-3.9277 2.75h-0.019998c1.0732-0.0069 1.6932-0.59812 1.9478-1.375 0.44663-1.3709-1.3106-1.7188-1.3106-4.125-1.6359 0.6875-2.6171 2.299-2.6171 3.4375 0 0.9845 0.65861 1.8068 1.5372 2.0116-1.9477-0.243-3.4636-1.963-3.4636-4.074 0-2.278 1.9638-5.5 5.2369-6.875z" fill="#d40000"/>
</svg>
