
<svg width="22" height="22" version="1.1" xmlns="http://www.w3.org/2000/svg">
	<path d="M 9.0064532,3.0138682 C 7.4706179,3.0138682 5.927422,3.6241494 4.7564532,4.7951181 C 2.4145155,7.1370559 2.4145155,10.921931 4.7564532,13.263868 C 6.6104871,15.117902 9.3650432,15.501638 11.600203,14.420118 C 11.659023,14.391657 11.729649,14.356862 11.787703,14.326368 C 12.150536,14.183073 13.055728,13.906893 13.537703,14.388868 C 13.895197,14.746362 13.772078,15.216993 14.318953,15.763868 L 17.506453,18.920118 C 17.510244,18.916327 18.197826,19.634994 18.912703,18.920118 C 19.630341,18.20248 18.923132,17.495759 18.912703,17.482618 L 15.756453,14.326368 C 15.209578,13.779493 14.770197,13.902611 14.412703,13.545118 C 13.823332,12.955746 14.377493,11.714027 14.412703,11.638868 C 15.494223,9.4037082 15.110487,6.6491522 13.256453,4.7951181 C 12.085484,3.6241494 10.542289,3.0138682 9.0064532,3.0138682 z M 9.0064532,4.5451181 C 11.490453,4.5451181 13.506453,6.5611183 13.506453,9.0451182 C 13.506453,11.529118 11.490453,13.545118 9.0064532,13.545118 C 6.5224537,13.545118 4.5064532,11.529118 4.5064532,9.0451182 C 4.5064531,6.5611184 6.5224535,4.5451181 9.0064532,4.5451181 z" fill="#bebebe"/>

</svg>
