<?xml version="1.0" encoding="UTF-8" standalone="no"?>
<svg
   xmlns:dc="http://purl.org/dc/elements/1.1/"
   xmlns:cc="http://creativecommons.org/ns#"
   xmlns:rdf="http://www.w3.org/1999/02/22-rdf-syntax-ns#"
   xmlns:svg="http://www.w3.org/2000/svg"
   xmlns="http://www.w3.org/2000/svg"
   xmlns:xlink="http://www.w3.org/1999/xlink"
   xmlns:sodipodi="http://sodipodi.sourceforge.net/DTD/sodipodi-0.dtd"
   xmlns:inkscape="http://www.inkscape.org/namespaces/inkscape"
   width="96"
   height="96"
   version="1.0"
   id="svg131"
   sodipodi:docname="1cestart.svg"
   inkscape:version="0.92.2 5c3e80d, 2017-08-06">
  <metadata
     id="metadata135">
    <rdf:RDF>
      <cc:Work
         rdf:about="">
        <dc:format>image/svg+xml</dc:format>
        <dc:type
           rdf:resource="http://purl.org/dc/dcmitype/StillImage" />
      </cc:Work>
    </rdf:RDF>
  </metadata>
  <sodipodi:namedview
     pagecolor="#ffffff"
     bordercolor="#666666"
     borderopacity="1"
     objecttolerance="10"
     gridtolerance="10"
     guidetolerance="10"
     inkscape:pageopacity="0"
     inkscape:pageshadow="2"
     inkscape:window-width="640"
     inkscape:window-height="480"
     id="namedview133"
     showgrid="false"
     inkscape:zoom="2.4583333"
     inkscape:cx="48"
     inkscape:cy="48"
     inkscape:window-x="0"
     inkscape:window-y="25"
     inkscape:window-maximized="0"
     inkscape:current-layer="svg131" />
  <defs
     id="defs49">
    <linearGradient
       id="linearGradient4384">
      <stop
         stop-color="#fff"
         offset="0"
         id="stop2" />
      <stop
         stop-color="#fff"
         stop-opacity="0"
         offset="1"
         id="stop4" />
    </linearGradient>
    <linearGradient
       id="ButtonShadow"
       x1="45.448"
       x2="45.448"
       y1="92.54"
       y2="7.0165"
       gradientTransform="scale(1.0059 .99417)"
       gradientUnits="userSpaceOnUse">
      <stop
         offset="0"
         id="stop7" />
      <stop
         stop-opacity=".58824"
         offset="1"
         id="stop9" />
    </linearGradient>
    <filter
       id="filter3174">
      <feGaussianBlur
         stdDeviation="1.71"
         id="feGaussianBlur12" />
    </filter>
    <filter
       id="filter3794"
       x="-.192"
       y="-.192"
       width="1.384"
       height="1.384">
      <feGaussianBlur
         stdDeviation="5.28"
         id="feGaussianBlur15" />
    </filter>
    <linearGradient
       id="linearGradient3613"
       x1="48"
       x2="48"
       y1="20.221"
       y2="138.66"
       gradientUnits="userSpaceOnUse">
      <stop
         stop-color="#fff"
         offset="0"
         id="stop18" />
      <stop
         stop-color="#fff"
         stop-opacity="0"
         offset="1"
         id="stop20" />
    </linearGradient>
    <linearGradient
       id="linearGradient3617"
       x1="48"
       x2="48"
       y1="90"
       y2="5.9877"
       gradientUnits="userSpaceOnUse">
      <stop
         stop-color="#D8AF31"
         offset="0"
         id="stop23" />
      <stop
         stop-color="#FFD34E"
         offset="1"
         id="stop25" />
    </linearGradient>
    <linearGradient
       id="ButtonShadow-0"
       x1="45.448"
       x2="45.448"
       y1="92.54"
       y2="7.0165"
       gradientTransform="matrix(1.0059 0 0 .99417 100 0)"
       gradientUnits="userSpaceOnUse">
      <stop
         offset="0"
         id="stop28" />
      <stop
         stop-opacity=".58824"
         offset="1"
         id="stop30" />
    </linearGradient>
    <linearGradient
       id="linearGradient3780"
       x1="32.251"
       x2="32.251"
       y1="6.1317"
       y2="90.239"
       gradientTransform="matrix(1.0238 0 0 1.0119 -1.1429 -98.071)"
       gradientUnits="userSpaceOnUse"
       xlink:href="#ButtonShadow-0" />
    <linearGradient
       id="linearGradient3721"
       x1="32.251"
       x2="32.251"
       y1="6.1317"
       y2="90.239"
       gradientTransform="translate(0,-97)"
       gradientUnits="userSpaceOnUse"
       xlink:href="#ButtonShadow-0" />
    <clipPath
       id="clipPath4355">
      <rect
         x="6"
         y="6"
         width="84"
         height="80"
         rx="6"
         ry="6"
         fill="#fff"
         id="rect35" />
    </clipPath>
    <linearGradient
       id="linearGradient4390"
       x1="48"
       x2="48"
       y1="88"
       y2="-40"
       gradientTransform="matrix(1,0,0,-1,0,92)"
       gradientUnits="userSpaceOnUse"
       xlink:href="#linearGradient4384" />
    <linearGradient
       id="linearGradient4429"
       x1="48"
       x2="112.12"
       y1="82"
       y2="82.455"
       gradientUnits="userSpaceOnUse"
       spreadMethod="reflect"
       xlink:href="#linearGradient4384" />
    <linearGradient
       id="linearGradient3870"
       x1="8"
       x2="50"
       y1="1033.4"
       y2="1033.4"
       gradientTransform="translate(-2 -956.36)"
       gradientUnits="userSpaceOnUse"
       spreadMethod="reflect">
      <stop
         stop-color="#523823"
         offset="0"
         id="stop40" />
      <stop
         stop-color="#79563a"
         offset=".1178"
         id="stop42" />
      <stop
         stop-color="#875c38"
         offset=".2381"
         id="stop44" />
      <stop
         stop-color="#a66e40"
         offset="1"
         id="stop46" />
    </linearGradient>
  </defs>
  <g
     display="none"
     id="g53">
    <rect
       x="5"
       y="7"
       width="86"
       height="85"
       rx="6"
       ry="6"
       fill="url(#ButtonShadow)"
       filter="url(#filter3174)"
       opacity=".9"
       id="rect51" />
  </g>
  <g
     id="g67">
    <g
       fill="url(#linearGradient3780)"
       id="g63">
      <path
         transform="scale(1,-1)"
         d="m12-95.031c-5.5111 0-10.031 4.5202-10.031 10.031v71c0 5.5111 4.5202 10.031 10.031 10.031h72c5.5111 0 10.031-4.5202 10.031-10.031v-71c0-5.5111-4.5202-10.031-10.031-10.031h-72z"
         opacity=".08"
         id="path55" />
      <path
         transform="scale(1,-1)"
         d="m12-94.031c-4.9716 0-9.0312 4.0596-9.0312 9.0312v71c0 4.9716 4.0596 9.0312 9.0312 9.0312h72c4.9716 0 9.0312-4.0596 9.0312-9.0312v-71c0-4.9716-4.0596-9.0312-9.0312-9.0312h-72z"
         opacity=".1"
         id="path57" />
      <path
         transform="scale(1,-1)"
         d="m12-93c-4.4091 0-8 3.5909-8 8v71c0 4.4091 3.5909 8 8 8h72c4.4091 0 8-3.5909 8-8v-71c0-4.4091-3.5909-8-8-8h-72z"
         opacity=".2"
         id="path59" />
      <rect
         transform="scale(1,-1)"
         x="5"
         y="-92"
         width="86"
         height="85"
         rx="7"
         ry="7"
         opacity=".3"
         id="rect61" />
    </g>
    <rect
       transform="scale(1,-1)"
       x="6"
       y="-91"
       width="84"
       height="84"
       rx="6"
       ry="6"
       fill="url(#linearGradient3721)"
       opacity=".45"
       id="rect65" />
  </g>
  <g
     id="g79">
    <rect
       x="6"
       y="64"
       width="84"
       height="26"
       rx="6"
       ry="6"
       color="#000000"
       fill="url(#linearGradient3870)"
       id="rect69" />
    <g
       id="g77">
      <path
         d="m6 82v2c0 3.324 2.676 6 6 6h72c3.324 0 6-2.676 6-6v-2c0 3.324-2.676 6-6 6h-72c-3.324 0-6-2.676-6-6z"
         color="#000000"
         opacity=".1"
         id="path71" />
      <path
         d="m6 83v1c0 3.324 2.676 6 6 6h72c3.324 0 6-2.676 6-6v-1c0 3.324-2.676 6-6 6h-72c-3.324 0-6-2.676-6-6z"
         color="#000000"
         opacity=".1"
         id="path73" />
      <path
         d="m6 80v1c0 3.324 2.676 6 6 6h72c3.324 0 6-2.676 6-6v-1c0 3.324-2.676 6-6 6h-72c-3.324 0-6-2.676-6-6z"
         opacity=".2"
         id="path75" />
    </g>
  </g>
  <g
     id="g87">
    <rect
       x="6"
       y="6"
       width="84"
       height="80"
       rx="6"
       ry="6"
       fill="url(#linearGradient3617)"
       id="rect81" />
    <path
       d="m12 86c-3.324 0-6-2.676-6-6v-68c0-3.324 2.676-6 6-6h72c3.324 0 6 2.676 6 6v68c0 3.324-2.676 6-6 6zm0-0.96875h72c2.8049 0 5.0312-2.2264 5.0312-5.0312v-68c0-2.8049-2.2264-5.0312-5.0312-5.0312h-72c-2.8049 0-5.0312 2.2264-5.0312 5.0312v68c0 2.8049 2.2264 5.0312 5.0312 5.0312z"
       fill="url(#linearGradient4390)"
       opacity=".3"
       id="path83" />
    <path
       d="m6 78v2c0 3.324 2.676 6 6 6h72c3.324 0 6-2.676 6-6v-2c0 3.324-2.676 6-6 6h-72c-3.324 0-6-2.676-6-6z"
       fill="url(#linearGradient4429)"
       opacity=".1"
       id="path85" />
  </g>
  <g
     id="g91">
    <rect
       x="15"
       y="15"
       width="66"
       height="62"
       rx="12"
       ry="12"
       clip-path="url(#clipPath4355)"
       fill="url(#linearGradient3613)"
       filter="url(#filter3794)"
       opacity=".1"
       stroke="#fff"
       stroke-linecap="round"
       stroke-width=".5"
       id="rect89" />
  </g>
  <defs
     id="defs101">
    <filter
       id="w">
      <feGaussianBlur
         stdDeviation="0.68880677"
         id="feGaussianBlur93" />
    </filter>
    <linearGradient
       id="a"
       gradientUnits="userSpaceOnUse"
       x1="8"
       y1="5"
       x2="8"
       y2="12">
      <stop
         stop-color="#CA160E"
         offset="0"
         id="stop96" />
      <stop
         stop-color="#CA160E"
         offset="1"
         id="stop98" />
    </linearGradient>
  </defs>
  <g
     transform="translate(0,-2)"
     id="g129">
    <path
       d="m2 5v1.5h1.5v5.5h1.5v-7h-3zm8 0a3.5 3.5 0 0 0-3.5 3.5 3.5 3.5 0 0 0 3.5 3.5h5v-1.5h-2.1328-2.8672a2 2 0 0 1-2-2 2 2 0 0 1 2-2 2 2 0 0 1 1.9355 1.5h1.5234a3.5 3.5 0 0 0-3.459-3z"
       fill="url(#a)"
       id="base"
       transform="translate(8,8) scale(5)" />
    <path
       style="opacity:0.07999998;fill:#000000;stroke-width:5"
       d="M 18 31 L 18 38.5 L 25.5 38.5 L 25.5 66 L 33 66 L 33 31 L 18 31 z M 58 31 A 17.5 17.5 0 0 0 40.5 48.5 A 17.5 17.5 0 0 0 58 66 L 83 66 L 83 58.5 L 72.335938 58.5 L 58 58.5 A 10 10 0 0 1 55.539062 58.179688 A 2.50025 2.50025 0 0 0 58 61 L 72.335938 61 L 80.5 61 L 80.5 63.5 L 58 63.5 C 54.073009 63.5 50.171333 61.882269 47.394531 59.105469 C 44.61773 56.328664 43 52.426991 43 48.5 C 43 44.573009 44.61773 40.671333 47.394531 37.894531 C 50.171333 35.11773 54.073009 33.5 58 33.5 C 58.00967 33.500014 58.019627 33.499966 58.029297 33.5 C 61.584507 33.512333 65.118823 34.842419 67.804688 37.171875 C 69.734737 38.845815 70.996338 41.099278 71.867188 43.5 L 67.677734 43.5 A 2.50025 2.50025 0 0 0 66.746094 43.683594 A 10 10 0 0 1 67.677734 46 L 75.294922 46 A 17.5 17.5 0 0 0 58 31 z M 20.5 33.5 L 30.5 33.5 L 30.5 63.5 L 28 63.5 L 28 38.5 A 2.50025 2.50025 0 0 0 25.5 36 L 20.5 36 L 20.5 33.5 z "
       transform="translate(0,2)"
       id="path104" />
    <path
       style="opacity:0.1;fill:#000000;stroke-width:5"
       d="M 18 31 L 18 38.5 L 25.5 38.5 L 25.5 66 L 33 66 L 33 31 L 18 31 z M 58 31 A 17.5 17.5 0 0 0 40.5 48.5 A 17.5 17.5 0 0 0 58 66 L 83 66 L 83 58.5 L 72.335938 58.5 L 58 58.5 A 10 10 0 0 1 56.759766 58.412109 A 1.250125 1.250125 0 0 0 58 59.75 L 72.335938 59.75 L 81.75 59.75 L 81.75 64.75 L 58 64.75 C 53.74576 64.75 49.514061 63.002346 46.505859 59.994141 C 43.497657 56.985941 41.75 52.75424 41.75 48.5 C 41.75 44.24576 43.497657 40.014061 46.505859 37.005859 C 49.514061 33.997657 53.74576 32.25 58 32.25 C 58.00644 32.25001 58.013091 32.249983 58.019531 32.25 C 61.875086 32.260388 65.712265 33.698387 68.625 36.224609 C 71.161465 38.424491 72.781972 41.489631 73.576172 44.75 L 67.677734 44.75 A 1.250125 1.250125 0 0 0 67.285156 44.8125 A 10 10 0 0 1 67.677734 46 L 75.294922 46 A 17.5 17.5 0 0 0 58 31 z M 19.25 32.25 L 31.75 32.25 L 31.75 64.75 L 26.75 64.75 L 26.75 38.5 A 1.250125 1.250125 0 0 0 25.5 37.25 L 19.25 37.25 L 19.25 32.25 z "
       transform="translate(0,2)"
       id="path109" />
    <path
       style="opacity:0.3;fill:#000000;stroke-width:5"
       d="M 18 31 L 18 32 L 33 32 L 33 31 L 18 31 z M 58 31 A 17.5 17.5 0 0 0 40.5 48.5 A 17.5 17.5 0 0 0 40.521484 48.908203 A 17.5 17.5 0 0 1 58 32 A 17.5 17.5 0 0 1 75.099609 46 L 75.294922 46 A 17.5 17.5 0 0 0 58 31 z M 48.021484 49.085938 A 10 10 0 0 0 48 49.5 A 10 10 0 0 0 58 59.5 L 72.335938 59.5 L 83 59.5 L 83 58.5 L 72.335938 58.5 L 58 58.5 A 10 10 0 0 1 48.021484 49.085938 z "
       transform="translate(0,2)"
       id="path114" />
    <path
       style="opacity:0.3;fill:#ffffff;stroke-width:5"
       d="M 18 38.5 L 18 39.5 L 25.5 39.5 L 25.5 38.5 L 18 38.5 z M 58 38.5 A 10 10 0 0 0 48 48.5 A 10 10 0 0 0 48.021484 49.085938 A 10 10 0 0 1 58 39.5 A 10 10 0 0 1 67.677734 47 L 75.294922 47 A 17.5 17.5 0 0 0 75.099609 46 L 67.677734 46 A 10 10 0 0 0 58 38.5 z M 40.521484 48.908203 A 17.5 17.5 0 0 0 40.5 49.5 A 17.5 17.5 0 0 0 58 67 L 83 67 L 83 66 L 58 66 A 17.5 17.5 0 0 1 40.521484 48.908203 z M 25.5 66 L 25.5 67 L 33 67 L 33 66 L 25.5 66 z "
       transform="translate(0,2)"
       id="path119" />
    <path
       style="opacity:0.15;fill:#ffffff;stroke-width:5"
       d="M 18 37.5 L 18 38.5 L 25.5 38.5 L 25.5 37.5 L 18 37.5 z M 58 37.5 A 10 10 0 0 0 48 47.5 A 10 10 0 0 0 48.021484 48.085938 A 10 10 0 0 1 58 38.5 A 10 10 0 0 1 67.677734 46 L 75.294922 46 A 17.5 17.5 0 0 0 75.099609 45 L 67.677734 45 A 10 10 0 0 0 58 37.5 z M 40.521484 47.908203 A 17.5 17.5 0 0 0 40.5 48.5 A 17.5 17.5 0 0 0 58 66 L 83 66 L 83 65 L 58 65 A 17.5 17.5 0 0 1 40.521484 47.908203 z M 25.5 65 L 25.5 66 L 33 66 L 33 65 L 25.5 65 z "
       transform="translate(0,2)"
       id="path124" />
  </g>
</svg>
