<?xml version="1.0" encoding="UTF-8" standalone="no"?>
<svg
   xmlns:dc="http://purl.org/dc/elements/1.1/"
   xmlns:cc="http://creativecommons.org/ns#"
   xmlns:rdf="http://www.w3.org/1999/02/22-rdf-syntax-ns#"
   xmlns:svg="http://www.w3.org/2000/svg"
   xmlns="http://www.w3.org/2000/svg"
   xmlns:xlink="http://www.w3.org/1999/xlink"
   xmlns:sodipodi="http://sodipodi.sourceforge.net/DTD/sodipodi-0.dtd"
   xmlns:inkscape="http://www.inkscape.org/namespaces/inkscape"
   width="96"
   height="96"
   version="1.0"
   id="svg125"
   sodipodi:docname="brave.svg"
   inkscape:version="0.92.2 5c3e80d, 2017-08-06">
  <metadata
     id="metadata129">
    <rdf:RDF>
      <cc:Work
         rdf:about="">
        <dc:format>image/svg+xml</dc:format>
        <dc:type
           rdf:resource="http://purl.org/dc/dcmitype/StillImage" />
      </cc:Work>
    </rdf:RDF>
  </metadata>
  <sodipodi:namedview
     pagecolor="#ffffff"
     bordercolor="#666666"
     borderopacity="1"
     objecttolerance="10"
     gridtolerance="10"
     guidetolerance="10"
     inkscape:pageopacity="0"
     inkscape:pageshadow="2"
     inkscape:window-width="640"
     inkscape:window-height="480"
     id="namedview127"
     showgrid="false"
     inkscape:zoom="2.4583333"
     inkscape:cx="48"
     inkscape:cy="48"
     inkscape:window-x="0"
     inkscape:window-y="25"
     inkscape:window-maximized="0"
     inkscape:current-layer="svg125" />
  <defs
     id="defs49">
    <linearGradient
       id="linearGradient4384">
      <stop
         stop-color="#fff"
         offset="0"
         id="stop2" />
      <stop
         stop-color="#fff"
         stop-opacity="0"
         offset="1"
         id="stop4" />
    </linearGradient>
    <linearGradient
       id="ButtonShadow"
       x1="45.448"
       x2="45.448"
       y1="92.54"
       y2="7.0165"
       gradientTransform="scale(1.0059 .99417)"
       gradientUnits="userSpaceOnUse">
      <stop
         offset="0"
         id="stop7" />
      <stop
         stop-opacity=".58824"
         offset="1"
         id="stop9" />
    </linearGradient>
    <filter
       id="filter3174">
      <feGaussianBlur
         stdDeviation="1.71"
         id="feGaussianBlur12" />
    </filter>
    <filter
       id="filter3794"
       x="-.192"
       y="-.192"
       width="1.384"
       height="1.384">
      <feGaussianBlur
         stdDeviation="5.28"
         id="feGaussianBlur15" />
    </filter>
    <linearGradient
       id="linearGradient3613"
       x1="48"
       x2="48"
       y1="20.221"
       y2="138.66"
       gradientUnits="userSpaceOnUse">
      <stop
         stop-color="#fff"
         offset="0"
         id="stop18" />
      <stop
         stop-color="#fff"
         stop-opacity="0"
         offset="1"
         id="stop20" />
    </linearGradient>
    <linearGradient
       id="linearGradient3617"
       x1="48"
       x2="48"
       y1="90"
       y2="5.9877"
       gradientUnits="userSpaceOnUse">
      <stop
         stop-color="#fd5d38"
         offset="0"
         id="stop23" />
      <stop
         stop-color="#f69d31"
         offset="1"
         id="stop25" />
    </linearGradient>
    <linearGradient
       id="ButtonShadow-0"
       x1="45.448"
       x2="45.448"
       y1="92.54"
       y2="7.0165"
       gradientTransform="matrix(1.0059 0 0 .99417 100 0)"
       gradientUnits="userSpaceOnUse">
      <stop
         offset="0"
         id="stop28" />
      <stop
         stop-opacity=".58824"
         offset="1"
         id="stop30" />
    </linearGradient>
    <linearGradient
       id="linearGradient3780"
       x1="32.251"
       x2="32.251"
       y1="6.1317"
       y2="90.239"
       gradientTransform="matrix(1.0238 0 0 1.0119 -1.1429 -98.071)"
       gradientUnits="userSpaceOnUse"
       xlink:href="#ButtonShadow-0" />
    <linearGradient
       id="linearGradient3721"
       x1="32.251"
       x2="32.251"
       y1="6.1317"
       y2="90.239"
       gradientTransform="translate(0,-97)"
       gradientUnits="userSpaceOnUse"
       xlink:href="#ButtonShadow-0" />
    <clipPath
       id="clipPath4355">
      <rect
         x="6"
         y="6"
         width="84"
         height="80"
         rx="6"
         ry="6"
         fill="#fff"
         id="rect35" />
    </clipPath>
    <linearGradient
       id="linearGradient4390"
       x1="48"
       x2="48"
       y1="88"
       y2="-40"
       gradientTransform="matrix(1,0,0,-1,0,92)"
       gradientUnits="userSpaceOnUse"
       xlink:href="#linearGradient4384" />
    <linearGradient
       id="linearGradient4429"
       x1="48"
       x2="112.12"
       y1="82"
       y2="82.455"
       gradientUnits="userSpaceOnUse"
       spreadMethod="reflect"
       xlink:href="#linearGradient4384" />
    <linearGradient
       id="linearGradient3870"
       x1="8"
       x2="50"
       y1="1033.4"
       y2="1033.4"
       gradientTransform="translate(-2 -956.36)"
       gradientUnits="userSpaceOnUse"
       spreadMethod="reflect">
      <stop
         stop-color="#523823"
         offset="0"
         id="stop40" />
      <stop
         stop-color="#79563a"
         offset=".1178"
         id="stop42" />
      <stop
         stop-color="#875c38"
         offset=".2381"
         id="stop44" />
      <stop
         stop-color="#a66e40"
         offset="1"
         id="stop46" />
    </linearGradient>
  </defs>
  <g
     display="none"
     id="g53">
    <rect
       x="5"
       y="7"
       width="86"
       height="85"
       rx="6"
       ry="6"
       fill="url(#ButtonShadow)"
       filter="url(#filter3174)"
       opacity=".9"
       id="rect51" />
  </g>
  <g
     id="g67">
    <g
       fill="url(#linearGradient3780)"
       id="g63">
      <path
         transform="scale(1,-1)"
         d="m12-95.031c-5.5111 0-10.031 4.5202-10.031 10.031v71c0 5.5111 4.5202 10.031 10.031 10.031h72c5.5111 0 10.031-4.5202 10.031-10.031v-71c0-5.5111-4.5202-10.031-10.031-10.031h-72z"
         opacity=".08"
         id="path55" />
      <path
         transform="scale(1,-1)"
         d="m12-94.031c-4.9716 0-9.0312 4.0596-9.0312 9.0312v71c0 4.9716 4.0596 9.0312 9.0312 9.0312h72c4.9716 0 9.0312-4.0596 9.0312-9.0312v-71c0-4.9716-4.0596-9.0312-9.0312-9.0312h-72z"
         opacity=".1"
         id="path57" />
      <path
         transform="scale(1,-1)"
         d="m12-93c-4.4091 0-8 3.5909-8 8v71c0 4.4091 3.5909 8 8 8h72c4.4091 0 8-3.5909 8-8v-71c0-4.4091-3.5909-8-8-8h-72z"
         opacity=".2"
         id="path59" />
      <rect
         transform="scale(1,-1)"
         x="5"
         y="-92"
         width="86"
         height="85"
         rx="7"
         ry="7"
         opacity=".3"
         id="rect61" />
    </g>
    <rect
       transform="scale(1,-1)"
       x="6"
       y="-91"
       width="84"
       height="84"
       rx="6"
       ry="6"
       fill="url(#linearGradient3721)"
       opacity=".45"
       id="rect65" />
  </g>
  <g
     id="g79">
    <rect
       x="6"
       y="64"
       width="84"
       height="26"
       rx="6"
       ry="6"
       color="#000000"
       fill="url(#linearGradient3870)"
       id="rect69" />
    <g
       id="g77">
      <path
         d="m6 82v2c0 3.324 2.676 6 6 6h72c3.324 0 6-2.676 6-6v-2c0 3.324-2.676 6-6 6h-72c-3.324 0-6-2.676-6-6z"
         color="#000000"
         opacity=".1"
         id="path71" />
      <path
         d="m6 83v1c0 3.324 2.676 6 6 6h72c3.324 0 6-2.676 6-6v-1c0 3.324-2.676 6-6 6h-72c-3.324 0-6-2.676-6-6z"
         color="#000000"
         opacity=".1"
         id="path73" />
      <path
         d="m6 80v1c0 3.324 2.676 6 6 6h72c3.324 0 6-2.676 6-6v-1c0 3.324-2.676 6-6 6h-72c-3.324 0-6-2.676-6-6z"
         opacity=".2"
         id="path75" />
    </g>
  </g>
  <g
     id="g87">
    <rect
       x="6"
       y="6"
       width="84"
       height="80"
       rx="6"
       ry="6"
       fill="url(#linearGradient3617)"
       id="rect81" />
    <path
       d="m12 86c-3.324 0-6-2.676-6-6v-68c0-3.324 2.676-6 6-6h72c3.324 0 6 2.676 6 6v68c0 3.324-2.676 6-6 6zm0-0.96875h72c2.8049 0 5.0312-2.2264 5.0312-5.0312v-68c0-2.8049-2.2264-5.0312-5.0312-5.0312h-72c-2.8049 0-5.0312 2.2264-5.0312 5.0312v68c0 2.8049 2.2264 5.0312 5.0312 5.0312z"
       fill="url(#linearGradient4390)"
       opacity=".3"
       id="path83" />
    <path
       d="m6 78v2c0 3.324 2.676 6 6 6h72c3.324 0 6-2.676 6-6v-2c0 3.324-2.676 6-6 6h-72c-3.324 0-6-2.676-6-6z"
       fill="url(#linearGradient4429)"
       opacity=".1"
       id="path85" />
  </g>
  <g
     id="g91">
    <rect
       x="15"
       y="15"
       width="66"
       height="62"
       rx="12"
       ry="12"
       clip-path="url(#clipPath4355)"
       fill="url(#linearGradient3613)"
       filter="url(#filter3794)"
       opacity=".1"
       stroke="#fff"
       stroke-linecap="round"
       stroke-width=".5"
       id="rect89" />
  </g>
  <defs
     id="defs101">
    <filter
       id="w">
      <feGaussianBlur
         stdDeviation="0.23199685"
         id="feGaussianBlur93" />
    </filter>
    <linearGradient
       id="a"
       gradientUnits="userSpaceOnUse"
       x1="8"
       y1="2"
       x2="8"
       y2="14.999973">
      <stop
         stop-color="#fafafa"
         offset="0"
         id="stop96" />
      <stop
         stop-color="#ebebeb"
         offset="1"
         id="stop98" />
    </linearGradient>
  </defs>
  <g
     transform="translate(0,-2)"
     id="g123">
    <path
       style="opacity:0.15;fill:#000000"
       d="m 8,1.75 c -0.2948976,0 -0.666716,0.1069437 -1.8144531,0.4648438 -0.1296097,0.040417 -0.2595838,0.077507 -0.3632813,0.1035156 -0.051849,0.013004 -0.098415,0.024812 -0.1308594,0.03125 -0.032444,0.00644 -0.061785,0.00582 -0.033203,0.00586 0.040459,5.08e-5 -0.025704,-0.00229 -0.087891,-0.011719 C 5.5081263,2.3343213 5.4229171,2.3201404 5.3222656,2.3027344 5.1209626,2.2679223 4.8570685,2.2192643 4.5820312,2.1660156 4.3046225,2.1122903 4.045175,2.0630566 3.8476562,2.0273438 3.7488969,2.0094873 3.6658839,1.9946783 3.6035156,1.984375 c -0.031184,-0.00515 -0.058483,-0.00865 -0.080078,-0.011719 -0.021595,-0.00307 -0.02158,-0.00586 -0.070312,-0.00586 -0.082618,0 -0.1144006,0.022397 -0.140625,0.037109 -0.026224,0.014712 -0.043363,0.029186 -0.060547,0.042969 -0.034369,0.027565 -0.066826,0.056247 -0.1015625,0.091797 -0.069472,0.0711 -0.1507548,0.165492 -0.2460937,0.2792969 C 2.7136191,2.6455785 2.4735034,2.9508935 2.2246094,3.28125 1.7268213,3.9419629 1.2010217,4.6860766 0.97070312,5.0996094 0.7695266,5.4608346 0.68660028,5.840274 0.796875,6.1757812 c 0.0504194,0.1535313 0.15450424,0.3026629 0.3867188,0.5449219 0.2322145,0.242259 0.6093471,0.5997105 1.2597656,1.2070313 0.2972652,0.2775701 0.5700175,0.5383557 0.7695312,0.7324218 0.099757,0.097033 0.1827416,0.1775562 0.2382813,0.234375 0.016919,0.017309 0.025537,0.026777 0.037109,0.039063 0.015359,0.051133 0.00912,0.2214094 -0.1640624,0.6269531 C 3.1997746,9.8519448 3.1216517,10.070222 3.09375,10.283203 c -0.027902,0.212981 0.0031,0.413606 0.072266,0.611328 0.1431894,0.409248 0.3714588,0.733441 0.71875,1.029297 0.1725142,0.146968 0.3180222,0.253369 0.4648438,0.324219 0.1468215,0.07085 0.3060211,0.102428 0.4550781,0.07813 0.1419751,-0.02314 0.2424123,-0.07728 0.4140625,-0.154297 0.1716502,-0.07702 0.3777656,-0.176775 0.5839844,-0.28125 0.2062188,-0.104475 0.4122078,-0.213618 0.5839844,-0.310547 0.1717765,-0.09693 0.2970074,-0.169681 0.3925781,-0.25 0.2808101,-0.236042 0.5570607,-0.487915 0.7695312,-0.699219 0.1062353,-0.105651 0.1965552,-0.200816 0.265625,-0.28125 0.034535,-0.04022 0.06426,-0.07644 0.089844,-0.113281 0.025584,-0.03684 0.051997,-0.05809 0.070312,-0.154297 C 8.0071561,9.9115764 7.9706251,9.8060585 7.9003906,9.6777344 7.8482661,9.5822063 7.8216424,9.5731378 7.7675781,9.5175781 7.7135139,9.4620185 7.6447914,9.3939081 7.5625,9.3164062 7.3979172,9.1614025 7.183113,8.9686515 6.9550781,8.7714844 6.5641131,8.4334485 6.3341961,8.2241124 6.21875,8.0957031 6.1084354,7.9730015 6.1185096,7.970261 6.1191406,7.9375 c 0.00256,-0.00873 0.00387,-0.015 0.00781,-0.027344 0.01405,-0.044021 0.037042,-0.1063097 0.064453,-0.1816406 0.00997,-0.027393 0.027726,-0.071203 0.039063,-0.1015625 -0.00467,0.046352 -0.015006,0.095952 -0.00977,0.1425781 0.00919,0.081765 0.067117,0.1816556 0.1035157,0.21875 0.065992,0.067277 0.1007886,0.072828 0.1445312,0.091797 0.043743,0.018969 0.090763,0.03725 0.1445312,0.054687 0.1075363,0.034876 0.2391953,0.069633 0.3808594,0.1035156 0.2833283,0.067766 0.6017498,0.1281281 0.8359375,0.1464844 0.2530291,0.019833 0.6169217,-0.035715 0.9785157,-0.1054687 0.1807969,-0.034877 0.3540734,-0.074519 0.4960937,-0.1152344 0.07101,-0.020358 0.1328558,-0.04161 0.1894531,-0.064453 0.056597,-0.022844 0.1030816,-0.031027 0.1757813,-0.1054688 0.029899,-0.030627 0.09287,-0.1259018 0.1054687,-0.2109375 0.00801,-0.054059 -0.00201,-0.1071713 -0.00781,-0.1601562 0.015905,0.042208 0.050167,0.1189848 0.060547,0.1523437 0.039475,0.1268691 0.037125,0.171186 0.021484,0.2167969 -0.031281,0.091222 -0.2666495,0.3142036 -0.828125,0.8007813 -0.2387737,0.2069018 -0.460963,0.409148 -0.6289063,0.5683593 -0.083972,0.079606 -0.1530077,0.1485746 -0.2070312,0.2050781 -0.027012,0.028252 -0.049919,0.051774 -0.070312,0.076172 -0.020393,0.024398 -0.03657,0.031212 -0.066406,0.1035157 -0.062004,0.1502216 -0.035969,0.3735102 0.074219,0.5351562 0.1101876,0.161646 0.2797332,0.323847 0.5546875,0.574219 0.6490791,0.591002 0.8275671,0.711167 1.6757816,1.121093 0.19815,0.09576 0.391089,0.182278 0.546875,0.246094 0.07789,0.03191 0.145033,0.05846 0.203125,0.07813 0.05809,0.01966 0.0716,0.04178 0.189453,0.03906 0.119195,-0.0026 0.247704,-0.03295 0.36914,-0.0957 0.121437,-0.06276 0.239674,-0.150862 0.400391,-0.28125 0.367493,-0.298169 0.622268,-0.659333 0.767578,-1.091797 0.06543,-0.19471 0.101533,-0.380772 0.07422,-0.583985 -0.02731,-0.203212 -0.103292,-0.4083903 -0.230469,-0.7109371 -0.170574,-0.4057527 -0.178966,-0.5900417 -0.164062,-0.640625 0.01032,-0.010947 0.01868,-0.018312 0.0332,-0.033203 0.05213,-0.053446 0.128774,-0.1293925 0.222656,-0.2207032 0.187763,-0.1826214 0.44506,-0.4269799 0.724609,-0.6875 0.834718,-0.7778926 1.265376,-1.181135 1.50586,-1.4804687 0.120242,-0.1496669 0.19791,-0.2839779 0.232422,-0.4257813 0.03451,-0.1418033 0.02074,-0.2695093 0.0039,-0.3867187 C 15.208231,5.5325219 15.168686,5.3782967 15.068359,5.1875 14.968033,4.9967033 14.811139,4.760317 14.53125,4.34375 14.288003,3.9817236 13.894869,3.4435468 13.542969,2.9804688 13.367019,2.7489297 13.203267,2.5369429 13.072266,2.375 c -0.0655,-0.080971 -0.122854,-0.1495376 -0.169922,-0.203125 -0.04707,-0.053587 -0.05936,-0.080664 -0.138672,-0.1347656 -5.08e-4,-3.468e-4 -0.03057,-0.018109 -0.04297,-0.023437 -0.0124,-0.00533 -0.02225,-0.00912 -0.03125,-0.011719 -0.018,-0.0052 -0.03184,-0.00629 -0.04297,-0.00781 -0.02226,-0.00305 -0.03772,-0.00381 -0.05273,-0.00391 -0.03003,-1.885e-4 -0.05742,0.00108 -0.08984,0.00391 -0.06485,0.00565 -0.146586,0.016597 -0.246094,0.03125 -0.199014,0.029306 -0.468926,0.074673 -0.785156,0.1347656 a 0.250025,0.250025 0 0 0 0,0.00195 c -0.287153,0.054615 -0.561372,0.1026695 -0.771484,0.1386718 -0.105056,0.018001 -0.194711,0.033187 -0.259766,0.042969 -0.06505,0.00978 -0.130841,0.013672 -0.0918,0.013672 0.05117,0 -0.06505,-0.010892 -0.169921,-0.037109 C 10.07482,2.2940946 9.9420573,2.2572188 9.8125,2.2167969 8.7441363,1.8835827 8.4123879,1.7977116 8.125,1.7832031 A 0.250025,0.250025 0 0 0 8.1210938,1.78125 0.250025,0.250025 0 0 0 8,1.75 Z m 2.800781,2.6445312 0.40625,0.011719 c 0.162951,0.00413 0.337999,0.023501 0.515625,0.037109 -0.17091,0.068286 -0.312807,0.1260477 -0.513672,0.203125 C 10.833137,4.7907096 10.475792,4.93298 10.201172,5.046875 10.063862,5.1038225 9.9467723,5.153295 9.8574219,5.1933594 9.7680714,5.2334238 9.7325738,5.242884 9.6542969,5.2988281 9.5177241,5.3964748 9.4213697,5.5315175 9.3554688,5.6835938 9.3395042,5.6112611 9.3162967,5.5098243 9.3027344,5.4472656 9.2758231,5.3231328 9.2550462,5.219775 9.2402344,5.1464844 c -0.00741,-0.036645 -0.014091,-0.066557 -0.017578,-0.085937 0,0 -0.00195,0 -0.00195,0 7.464e-4,0.06809 0.015719,-0.048126 0.033203,-0.082031 a 0.250025,0.250025 0 0 0 0.00195,0 c 0.00262,-0.00508 -0.028363,0.00904 0.078125,-0.041016 0.1064883,-0.050059 0.3157318,-0.1298099 0.6777346,-0.2597656 z m -5.6953122,0.00391 c 0.2166575,0.031749 0.4450305,0.1209423 0.9667968,0.3085937 0.3220525,0.1158262 0.5101668,0.1873155 0.6035156,0.2324219 0.093349,0.045107 0.064011,0.028665 0.068359,0.037109 0.017455,0.03389 0.032413,0.1517457 0.033203,0.083984 0,0 -0.00195,0 -0.00195,0 -0.0035,0.019357 -0.00819,0.049296 -0.015625,0.085937 -0.01488,0.073283 -0.037431,0.1766377 -0.064453,0.3007812 C 6.6812412,5.5119099 6.6572564,5.616359 6.640625,5.6914062 6.5696868,5.5277519 6.4665256,5.3803146 6.3144531,5.2792969 6.2494822,5.2360732 6.203316,5.2204315 6.1171875,5.1816406 6.031059,5.1428497 5.9203108,5.0949745 5.7910156,5.0410156 5.5324253,4.9330978 5.2014181,4.799432 4.8554688,4.6660156 4.5501476,4.5482799 4.4875465,4.5237643 4.2539062,4.4335938 4.6814384,4.394026 4.89922,4.3682138 5.1054688,4.3984375 Z m 2.890625,6.6699215 c -0.2552323,0.0012 -0.4810399,0.09267 -0.8378907,0.240235 -0.3491961,0.144407 -0.8690602,0.390907 -1.3164062,0.617187 -0.223673,0.11314 -0.4286415,0.222016 -0.5839844,0.308594 -0.077671,0.04329 -0.1430513,0.08014 -0.1953125,0.113281 -0.026131,0.01657 -0.047803,0.03183 -0.070312,0.04883 -0.02251,0.017 -0.0423,0.0172 -0.087891,0.08984 -0.03457,0.05504 -0.071437,0.146678 -0.060547,0.244141 0.01089,0.09746 0.058499,0.172194 0.1074219,0.230469 0.097846,0.116548 0.2296611,0.21413 0.4511719,0.376953 0.7738054,0.569287 1.0063125,0.755725 1.6289062,1.300781 0.2071456,0.181359 0.3608012,0.319798 0.5019531,0.423828 0.141152,0.10403 0.2869479,0.18565 0.4609375,0.1875 0.1739897,0.0018 0.3215029,-0.07774 0.4609375,-0.179688 0.1394347,-0.101949 0.2883554,-0.237203 0.4902344,-0.414062 0.55562,-0.486766 1.1797095,-0.974498 1.7949215,-1.402344 0.161459,-0.112299 0.275505,-0.193772 0.355469,-0.33789 0.03998,-0.07206 0.06514,-0.174932 0.04492,-0.269532 -0.02022,-0.0946 -0.07395,-0.164234 -0.125,-0.214843 -0.05747,-0.05698 -0.08911,-0.06953 -0.144531,-0.103516 -0.05542,-0.03399 -0.123194,-0.0749 -0.203125,-0.119141 C 10.508107,12.1205 10.302802,12.012643 10.082031,11.900391 9.6404893,11.675886 9.1416025,11.436792 8.8203125,11.302734 8.4741215,11.158291 8.2518381,11.067219 7.9960938,11.068359 Z m 0.00586,0 0.048828,0.0059 a 0.250025,0.250025 0 0 0 -0.048828,-0.0059 z"
       id="path103"
       inkscape:original="m7.9996 2c-0.22177 0-0.59352 0.097305-1.7389 0.45447-0.26824 0.083648-0.53956 0.15157-0.60344 0.15148-0.0639-8.03e-5 -0.56938-0.087263-1.1225-0.19435-0.55311-0.10712-1.0395-0.19533-1.0818-0.19533-0.14983 0-1.839 2.242-2.2639 3.0049-0.17761 0.31891-0.23296 0.63632-0.15384 0.87704 0.0712 0.21681 0.2794 0.43392 1.5791 1.6475 0.59664 0.55711 1.0964 1.0431 1.1106 1.0804 0.062 0.16215 0.013 0.39968-0.1717 0.8322-0.24207 0.56683-0.27324 0.80329-0.15087 1.1531 0.1305 0.37298 0.32307 0.64752 0.64514 0.92189 0.32846 0.27982 0.52878 0.37645 0.71658 0.34583 0.22424-0.03655 1.6239-0.74561 1.855-0.93983 0.55029-0.46256 1.0908-1.0003 1.1106-1.1043 0.0116-0.060752-0.0103-0.16704-0.0487-0.2372-0.0383-0.070192-0.43819-0.44715-0.88927-0.83717-0.78512-0.67883-0.92699-0.83621-0.92699-1.0315 0-0.048201 0.13949-0.43215 0.31064-0.85311 0.24551-0.60388 0.31167-0.81164 0.31065-0.9827-2e-3 -0.27057-0.1021-0.46709-0.30965-0.60496-0.0883-0.058744-0.72335-0.32372-1.4113-0.58903-0.68797-0.26529-1.2985-0.50098-1.3557-0.52323-0.0617-0.023799-0.0877-0.05523-0.0646-0.077723 0.0216-0.020887 0.40068-0.071297 0.84263-0.11161 0.94778-0.08656 0.92709-0.090075 1.9701 0.28504 0.64699 0.23269 0.75434 0.28474 0.80889 0.39068 0.0346 0.06718 0.062 0.15746 0.0615 0.20032-4.8e-4 0.042878-0.13548 0.6627-0.29974 1.3774-0.28131 1.224-0.29437 1.303-0.22529 1.3734 0.0854 0.087062 0.93168 0.28945 1.3458 0.32191 0.36255 0.028418 1.5241-0.19559 1.6426-0.31693 0.0746-0.076418 0.0659-0.12659-0.22133-1.3784-0.16398-0.71466-0.29823-1.3345-0.29874-1.3774-4.7e-4 -0.042878 0.0271-0.13261 0.0615-0.19932 0.0545-0.10584 0.16874-0.15979 0.89522-0.42059l0.83171-0.29899 0.45358 0.01195c0.59875 0.015163 1.4232 0.10741 1.4352 0.16047 5e-3 0.023297-0.6019 0.2771-1.3498 0.56409-0.74789 0.28699-1.4228 0.56696-1.4997 0.62192-0.18953 0.13551-0.28431 0.33171-0.28584 0.593-7e-4 0.17293 0.0653 0.3818 0.3176 1.0056 0.42494 1.0505 0.47164 0.91391-0.64512 1.8817-0.4725 0.40943-0.87998 0.79567-0.90615 0.85909-0.0773 0.18728 0.0228 0.33483 0.56571 0.8292 0.64587 0.58808 0.77191 0.67208 1.6168 1.0804 0.38773 0.18737 0.75882 0.33938 0.82477 0.33786 0.18432-4e-3 0.30595-0.06648 0.61834-0.31992 0.33593-0.27256 0.55759-0.58826 0.68878-0.9787 0.12065-0.35904 0.0991-0.52356-0.15086-1.1182-0.18202-0.43298-0.23233-0.68032-0.16971-0.84417 0.0139-0.036652 0.48479-0.4945 1.0461-1.0176 1.6687-1.5551 1.729-1.6301 1.6654-2.073-0.0454-0.31651-0.10145-0.42348-0.66001-1.2548-0.47499-0.70693-1.5718-2.1503-1.7011-2.2385-0.0325-0.022192-0.476 0.04318-1.1037 0.16246-0.57693 0.10973-1.1036 0.20032-1.1711 0.20032-0.0675 0-0.34214-0.068786-0.61039-0.15248-1.1453-0.35721-1.5171-0.45447-1.7389-0.45447zm-3e-3 9.3186c-0.19292 8.84e-4 -0.38846 0.07391-0.7424 0.22027-0.67299 0.27831-2.0808 0.99048-2.1378 1.0813-0.0713 0.11353-3e-3 0.19525 0.43373 0.51627 0.77559 0.5706 1.0219 0.7677 1.6466 1.3146 0.83318 0.72946 0.77063 0.72866 1.583 0.01697 0.56309-0.49331 1.194-0.98673 1.8173-1.4202 0.30253-0.21042 0.3632-0.3195 0.24316-0.43851-0.11625-0.11526-1.5013-0.8195-2.117-1.0764-0.34333-0.14325-0.5336-0.21514-0.7265-0.21428z"
       transform="matrix(4,0,0,4,16,17)"
       inkscape:radius="0.25"
       sodipodi:type="inkscape:offset" />
    <g
       id="Bevel1">
      <path
         fill="#000"
         opacity=".10"
         sodipodi:type="inkscape:offset"
         inkscape:radius="0.5"
         transform="translate(16,17) scale(4)"
         inkscape:original="m7.9996 2c-0.22177 0-0.59352 0.097305-1.7389 0.45447-0.26824 0.083648-0.53956 0.15157-0.60344 0.15148-0.0639-8.03e-5 -0.56938-0.087263-1.1225-0.19435-0.55311-0.10712-1.0395-0.19533-1.0818-0.19533-0.14983 0-1.839 2.242-2.2639 3.0049-0.17761 0.31891-0.23296 0.63632-0.15384 0.87704 0.0712 0.21681 0.2794 0.43392 1.5791 1.6475 0.59664 0.55711 1.0964 1.0431 1.1106 1.0804 0.062 0.16215 0.013 0.39968-0.1717 0.8322-0.24207 0.56683-0.27324 0.80329-0.15087 1.1531 0.1305 0.37298 0.32307 0.64752 0.64514 0.92189 0.32846 0.27982 0.52878 0.37645 0.71658 0.34583 0.22424-0.03655 1.6239-0.74561 1.855-0.93983 0.55029-0.46256 1.0908-1.0003 1.1106-1.1043 0.0116-0.060752-0.0103-0.16704-0.0487-0.2372-0.0383-0.070192-0.43819-0.44715-0.88927-0.83717-0.78512-0.67883-0.92699-0.83621-0.92699-1.0315 0-0.048201 0.13949-0.43215 0.31064-0.85311 0.24551-0.60388 0.31167-0.81164 0.31065-0.9827-2e-3 -0.27057-0.1021-0.46709-0.30965-0.60496-0.0883-0.058744-0.72335-0.32372-1.4113-0.58903-0.68797-0.26529-1.2985-0.50098-1.3557-0.52323-0.0617-0.023799-0.0877-0.05523-0.0646-0.077723 0.0216-0.020887 0.40068-0.071297 0.84263-0.11161 0.94778-0.08656 0.92709-0.090075 1.9701 0.28504 0.64699 0.23269 0.75434 0.28474 0.80889 0.39068 0.0346 0.06718 0.062 0.15746 0.0615 0.20032-4.8e-4 0.042878-0.13548 0.6627-0.29974 1.3774-0.28131 1.224-0.29437 1.303-0.22529 1.3734 0.0854 0.087062 0.93168 0.28945 1.3458 0.32191 0.36255 0.028418 1.5241-0.19559 1.6426-0.31693 0.0746-0.076418 0.0659-0.12659-0.22133-1.3784-0.16398-0.71466-0.29823-1.3345-0.29874-1.3774-4.7e-4 -0.042878 0.0271-0.13261 0.0615-0.19932 0.0545-0.10584 0.16874-0.15979 0.89522-0.42059l0.83171-0.29899 0.45358 0.01195c0.59875 0.015163 1.4232 0.10741 1.4352 0.16047 5e-3 0.023297-0.6019 0.2771-1.3498 0.56409-0.74789 0.28699-1.4228 0.56696-1.4997 0.62192-0.18953 0.13551-0.28431 0.33171-0.28584 0.593-7e-4 0.17293 0.0653 0.3818 0.3176 1.0056 0.42494 1.0505 0.47164 0.91391-0.64512 1.8817-0.4725 0.40943-0.87998 0.79567-0.90615 0.85909-0.0773 0.18728 0.0228 0.33483 0.56571 0.8292 0.64587 0.58808 0.77191 0.67208 1.6168 1.0804 0.38773 0.18737 0.75882 0.33938 0.82477 0.33786 0.18432-4e-3 0.30595-0.06648 0.61834-0.31992 0.33593-0.27256 0.55759-0.58826 0.68878-0.9787 0.12065-0.35904 0.0991-0.52356-0.15086-1.1182-0.18202-0.43298-0.23233-0.68032-0.16971-0.84417 0.0139-0.036652 0.48479-0.4945 1.0461-1.0176 1.6687-1.5551 1.729-1.6301 1.6654-2.073-0.0454-0.31651-0.10145-0.42348-0.66001-1.2548-0.47499-0.70693-1.5718-2.1503-1.7011-2.2385-0.0325-0.022192-0.476 0.04318-1.1037 0.16246-0.57693 0.10973-1.1036 0.20032-1.1711 0.20032-0.0675 0-0.34214-0.068786-0.61039-0.15248-1.1453-0.35721-1.5171-0.45447-1.7389-0.45447zm-3e-3 9.3186c-0.19292 8.84e-4 -0.38846 0.07391-0.7424 0.22027-0.67299 0.27831-2.0808 0.99048-2.1378 1.0813-0.0713 0.11353-3e-3 0.19525 0.43373 0.51627 0.77559 0.5706 1.0219 0.7677 1.6466 1.3146 0.83318 0.72946 0.77063 0.72866 1.583 0.01697 0.56309-0.49331 1.194-0.98673 1.8173-1.4202 0.30253-0.21042 0.3632-0.3195 0.24316-0.43851-0.11625-0.11526-1.5013-0.8195-2.117-1.0764-0.34333-0.14325-0.5336-0.21514-0.7265-0.21428z"
         id="path106" />
    </g>
    <g
       id="Bevel2">
      <path
         fill="#000"
         opacity=".05"
         sodipodi:type="inkscape:offset"
         inkscape:radius="0.75"
         transform="translate(16,17) scale(4)"
         inkscape:original="m7.9996 2c-0.22177 0-0.59352 0.097305-1.7389 0.45447-0.26824 0.083648-0.53956 0.15157-0.60344 0.15148-0.0639-8.03e-5 -0.56938-0.087263-1.1225-0.19435-0.55311-0.10712-1.0395-0.19533-1.0818-0.19533-0.14983 0-1.839 2.242-2.2639 3.0049-0.17761 0.31891-0.23296 0.63632-0.15384 0.87704 0.0712 0.21681 0.2794 0.43392 1.5791 1.6475 0.59664 0.55711 1.0964 1.0431 1.1106 1.0804 0.062 0.16215 0.013 0.39968-0.1717 0.8322-0.24207 0.56683-0.27324 0.80329-0.15087 1.1531 0.1305 0.37298 0.32307 0.64752 0.64514 0.92189 0.32846 0.27982 0.52878 0.37645 0.71658 0.34583 0.22424-0.03655 1.6239-0.74561 1.855-0.93983 0.55029-0.46256 1.0908-1.0003 1.1106-1.1043 0.0116-0.060752-0.0103-0.16704-0.0487-0.2372-0.0383-0.070192-0.43819-0.44715-0.88927-0.83717-0.78512-0.67883-0.92699-0.83621-0.92699-1.0315 0-0.048201 0.13949-0.43215 0.31064-0.85311 0.24551-0.60388 0.31167-0.81164 0.31065-0.9827-2e-3 -0.27057-0.1021-0.46709-0.30965-0.60496-0.0883-0.058744-0.72335-0.32372-1.4113-0.58903-0.68797-0.26529-1.2985-0.50098-1.3557-0.52323-0.0617-0.023799-0.0877-0.05523-0.0646-0.077723 0.0216-0.020887 0.40068-0.071297 0.84263-0.11161 0.94778-0.08656 0.92709-0.090075 1.9701 0.28504 0.64699 0.23269 0.75434 0.28474 0.80889 0.39068 0.0346 0.06718 0.062 0.15746 0.0615 0.20032-4.8e-4 0.042878-0.13548 0.6627-0.29974 1.3774-0.28131 1.224-0.29437 1.303-0.22529 1.3734 0.0854 0.087062 0.93168 0.28945 1.3458 0.32191 0.36255 0.028418 1.5241-0.19559 1.6426-0.31693 0.0746-0.076418 0.0659-0.12659-0.22133-1.3784-0.16398-0.71466-0.29823-1.3345-0.29874-1.3774-4.7e-4 -0.042878 0.0271-0.13261 0.0615-0.19932 0.0545-0.10584 0.16874-0.15979 0.89522-0.42059l0.83171-0.29899 0.45358 0.01195c0.59875 0.015163 1.4232 0.10741 1.4352 0.16047 5e-3 0.023297-0.6019 0.2771-1.3498 0.56409-0.74789 0.28699-1.4228 0.56696-1.4997 0.62192-0.18953 0.13551-0.28431 0.33171-0.28584 0.593-7e-4 0.17293 0.0653 0.3818 0.3176 1.0056 0.42494 1.0505 0.47164 0.91391-0.64512 1.8817-0.4725 0.40943-0.87998 0.79567-0.90615 0.85909-0.0773 0.18728 0.0228 0.33483 0.56571 0.8292 0.64587 0.58808 0.77191 0.67208 1.6168 1.0804 0.38773 0.18737 0.75882 0.33938 0.82477 0.33786 0.18432-4e-3 0.30595-0.06648 0.61834-0.31992 0.33593-0.27256 0.55759-0.58826 0.68878-0.9787 0.12065-0.35904 0.0991-0.52356-0.15086-1.1182-0.18202-0.43298-0.23233-0.68032-0.16971-0.84417 0.0139-0.036652 0.48479-0.4945 1.0461-1.0176 1.6687-1.5551 1.729-1.6301 1.6654-2.073-0.0454-0.31651-0.10145-0.42348-0.66001-1.2548-0.47499-0.70693-1.5718-2.1503-1.7011-2.2385-0.0325-0.022192-0.476 0.04318-1.1037 0.16246-0.57693 0.10973-1.1036 0.20032-1.1711 0.20032-0.0675 0-0.34214-0.068786-0.61039-0.15248-1.1453-0.35721-1.5171-0.45447-1.7389-0.45447zm-3e-3 9.3186c-0.19292 8.84e-4 -0.38846 0.07391-0.7424 0.22027-0.67299 0.27831-2.0808 0.99048-2.1378 1.0813-0.0713 0.11353-3e-3 0.19525 0.43373 0.51627 0.77559 0.5706 1.0219 0.7677 1.6466 1.3146 0.83318 0.72946 0.77063 0.72866 1.583 0.01697 0.56309-0.49331 1.194-0.98673 1.8173-1.4202 0.30253-0.21042 0.3632-0.3195 0.24316-0.43851-0.11625-0.11526-1.5013-0.8195-2.117-1.0764-0.34333-0.14325-0.5336-0.21514-0.7265-0.21428z"
         id="path109" />
    </g>
    <path
       d="m7.9996 2c-0.22177 0-0.59352 0.097305-1.7389 0.45447-0.26824 0.083648-0.53956 0.15157-0.60344 0.15148-0.0639-8.03e-5 -0.56938-0.087263-1.1225-0.19435-0.55311-0.10712-1.0395-0.19533-1.0818-0.19533-0.14983 0-1.839 2.242-2.2639 3.0049-0.17761 0.31891-0.23296 0.63632-0.15384 0.87704 0.0712 0.21681 0.2794 0.43392 1.5791 1.6475 0.59664 0.55711 1.0964 1.0431 1.1106 1.0804 0.062 0.16215 0.013 0.39968-0.1717 0.8322-0.24207 0.56683-0.27324 0.80329-0.15087 1.1531 0.1305 0.37298 0.32307 0.64752 0.64514 0.92189 0.32846 0.27982 0.52878 0.37645 0.71658 0.34583 0.22424-0.03655 1.6239-0.74561 1.855-0.93983 0.55029-0.46256 1.0908-1.0003 1.1106-1.1043 0.0116-0.060752-0.0103-0.16704-0.0487-0.2372-0.0383-0.070192-0.43819-0.44715-0.88927-0.83717-0.78512-0.67883-0.92699-0.83621-0.92699-1.0315 0-0.048201 0.13949-0.43215 0.31064-0.85311 0.24551-0.60388 0.31167-0.81164 0.31065-0.9827-2e-3 -0.27057-0.1021-0.46709-0.30965-0.60496-0.0883-0.058744-0.72335-0.32372-1.4113-0.58903-0.68797-0.26529-1.2985-0.50098-1.3557-0.52323-0.0617-0.023799-0.0877-0.05523-0.0646-0.077723 0.0216-0.020887 0.40068-0.071297 0.84263-0.11161 0.94778-0.08656 0.92709-0.090075 1.9701 0.28504 0.64699 0.23269 0.75434 0.28474 0.80889 0.39068 0.0346 0.06718 0.062 0.15746 0.0615 0.20032-4.8e-4 0.042878-0.13548 0.6627-0.29974 1.3774-0.28131 1.224-0.29437 1.303-0.22529 1.3734 0.0854 0.087062 0.93168 0.28945 1.3458 0.32191 0.36255 0.028418 1.5241-0.19559 1.6426-0.31693 0.0746-0.076418 0.0659-0.12659-0.22133-1.3784-0.16398-0.71466-0.29823-1.3345-0.29874-1.3774-4.7e-4 -0.042878 0.0271-0.13261 0.0615-0.19932 0.0545-0.10584 0.16874-0.15979 0.89522-0.42059l0.83171-0.29899 0.45358 0.01195c0.59875 0.015163 1.4232 0.10741 1.4352 0.16047 5e-3 0.023297-0.6019 0.2771-1.3498 0.56409-0.74789 0.28699-1.4228 0.56696-1.4997 0.62192-0.18953 0.13551-0.28431 0.33171-0.28584 0.593-7e-4 0.17293 0.0653 0.3818 0.3176 1.0056 0.42494 1.0505 0.47164 0.91391-0.64512 1.8817-0.4725 0.40943-0.87998 0.79567-0.90615 0.85909-0.0773 0.18728 0.0228 0.33483 0.56571 0.8292 0.64587 0.58808 0.77191 0.67208 1.6168 1.0804 0.38773 0.18737 0.75882 0.33938 0.82477 0.33786 0.18432-4e-3 0.30595-0.06648 0.61834-0.31992 0.33593-0.27256 0.55759-0.58826 0.68878-0.9787 0.12065-0.35904 0.0991-0.52356-0.15086-1.1182-0.18202-0.43298-0.23233-0.68032-0.16971-0.84417 0.0139-0.036652 0.48479-0.4945 1.0461-1.0176 1.6687-1.5551 1.729-1.6301 1.6654-2.073-0.0454-0.31651-0.10145-0.42348-0.66001-1.2548-0.47499-0.70693-1.5718-2.1503-1.7011-2.2385-0.0325-0.022192-0.476 0.04318-1.1037 0.16246-0.57693 0.10973-1.1036 0.20032-1.1711 0.20032-0.0675 0-0.34214-0.068786-0.61039-0.15248-1.1453-0.35721-1.5171-0.45447-1.7389-0.45447zm-3e-3 9.3186c-0.19292 8.84e-4 -0.38846 0.07391-0.7424 0.22027-0.67299 0.27831-2.0808 0.99048-2.1378 1.0813-0.0713 0.11353-3e-3 0.19525 0.43373 0.51627 0.77559 0.5706 1.0219 0.7677 1.6466 1.3146 0.83318 0.72946 0.77063 0.72866 1.583 0.01697 0.56309-0.49331 1.194-0.98673 1.8173-1.4202 0.30253-0.21042 0.3632-0.3195 0.24316-0.43851-0.11625-0.11526-1.5013-0.8195-2.117-1.0764-0.34333-0.14325-0.5336-0.21514-0.7265-0.21428z"
       fill="url(#a)"
       id="base"
       transform="translate(16,16) scale(4)" />
    <path
       style="opacity:0.3;fill:#000000;stroke-width:4"
       d="M 35.808594 30.560547 C 35.047792 30.534611 34.17167 30.616254 32.75 30.746094 C 30.9822 30.907346 29.465306 31.109809 29.378906 31.193359 C 29.286506 31.283331 29.389919 31.408706 29.636719 31.503906 C 29.686407 31.523234 30.575492 31.866658 30.814453 31.958984 C 31.379307 31.88907 32.011399 31.813466 32.75 31.746094 C 36.54112 31.399854 36.458819 31.386259 40.630859 32.886719 C 43.218819 33.817479 43.647034 34.025459 43.865234 34.449219 C 43.919263 34.554123 43.961628 34.67473 44.001953 34.791016 C 44.026346 34.661636 44.111035 34.27843 44.111328 34.251953 C 44.113328 34.080513 44.003634 33.717939 43.865234 33.449219 C 43.647034 33.025459 43.218819 32.817479 40.630859 31.886719 C 38.023334 30.948931 37.076597 30.603773 35.808594 30.560547 z M 59.039062 30.576172 L 55.710938 31.771484 C 52.805017 32.814684 52.348859 33.029765 52.130859 33.453125 C 51.993259 33.719965 51.882866 34.080441 51.884766 34.251953 C 51.885082 34.278542 51.969685 34.662743 51.994141 34.792969 C 52.034462 34.677479 52.077201 34.557182 52.130859 34.453125 C 52.348859 34.029765 52.805017 33.814684 55.710938 32.771484 L 59.039062 31.576172 L 60.853516 31.623047 C 62.26833 31.658875 63.926376 31.803831 65.115234 31.958984 C 66.025901 31.576391 66.603354 31.310376 66.59375 31.265625 C 66.54575 31.053385 63.248516 30.683697 60.853516 30.623047 L 59.039062 30.576172 z M 20.044922 38.005859 C 19.987473 38.50602 20.005353 38.981018 20.140625 39.392578 C 20.425425 40.259818 21.258231 41.128102 26.457031 45.982422 C 28.843591 48.210862 30.843591 50.155487 30.900391 50.304688 C 30.921057 50.358738 30.919151 50.429767 30.933594 50.488281 C 31.025915 49.99478 31.017882 49.611966 30.900391 49.304688 C 30.843591 49.155487 28.843591 47.210862 26.457031 44.982422 C 21.258231 40.128102 20.425425 39.259818 20.140625 38.392578 C 20.0999 38.268673 20.067938 38.139283 20.044922 38.005859 z M 75.949219 38.054688 C 75.713246 39.1925 74.379614 40.487265 69.277344 45.242188 C 67.032104 47.334588 65.14935 49.165892 65.09375 49.3125 C 64.975594 49.621664 64.96588 50.014947 65.056641 50.515625 C 65.071859 50.450491 65.071066 50.371853 65.09375 50.3125 C 65.14935 50.165892 67.032104 48.334588 69.277344 46.242188 C 75.810481 40.153806 76.175011 39.730808 75.949219 38.054688 z M 54.101562 38.894531 C 54.080077 39.053364 54.053748 39.207836 54.052734 39.380859 C 54.049934 40.072579 54.313066 40.909097 55.322266 43.404297 C 55.844605 44.69558 56.221747 45.536808 56.367188 46.197266 C 56.60382 45.351312 56.142151 44.431148 55.322266 42.404297 C 54.54029 40.4709 54.211276 39.540216 54.101562 38.894531 z M 41.894531 38.902344 C 41.781989 39.539288 41.452226 40.457323 40.701172 42.304688 C 40.016572 43.988527 39.458984 45.523993 39.458984 45.716797 C 39.458984 45.908887 39.493347 46.091808 39.591797 46.298828 C 39.746387 45.773326 40.141333 44.681665 40.701172 43.304688 C 41.683212 40.889167 41.947439 40.057287 41.943359 39.373047 C 41.942117 39.205021 41.914829 39.056322 41.894531 38.902344 z M 41.949219 45.171875 C 41.820061 45.938019 41.870678 46.110171 42.011719 46.253906 C 42.353319 46.602154 45.738051 47.413129 47.394531 47.542969 C 48.844731 47.656641 53.490844 46.758797 53.964844 46.273438 C 54.118995 46.11553 54.174317 45.954767 54.042969 45.175781 C 54.020253 45.21011 53.995369 45.242169 53.964844 45.273438 C 53.490844 45.758797 48.844731 46.656641 47.394531 46.542969 C 45.738051 46.413129 42.353319 45.602154 42.011719 45.253906 C 41.987141 45.228858 41.968074 45.200666 41.949219 45.171875 z M 49.169922 54.304688 C 49.161642 54.317946 49.121155 54.357573 49.117188 54.367188 C 48.807988 55.116307 49.209219 55.706114 51.380859 57.683594 C 53.964339 60.035914 54.468096 60.372579 57.847656 62.005859 C 59.398576 62.755339 60.882684 63.363502 61.146484 63.357422 C 61.883764 63.341422 62.369581 63.089932 63.619141 62.076172 C 64.962861 60.985932 65.85024 59.723869 66.375 58.162109 C 66.623266 57.4233 66.716925 56.887843 66.617188 56.220703 C 66.571965 56.513021 66.492001 56.813929 66.375 57.162109 C 65.85024 58.723869 64.962861 59.985932 63.619141 61.076172 C 62.369581 62.089932 61.883764 62.341422 61.146484 62.357422 C 60.882684 62.363502 59.398576 61.755339 57.847656 61.005859 C 54.468096 59.372579 53.964339 59.035914 51.380859 56.683594 C 50.087328 55.505713 49.430957 54.824929 49.169922 54.304688 z M 46.791016 54.378906 C 46.289202 55.097852 44.398516 56.941094 42.476562 58.556641 C 41.552163 59.333521 35.953601 62.170206 35.056641 62.316406 C 34.305441 62.438886 33.503293 62.052874 32.189453 60.933594 C 30.901173 59.836114 30.131375 58.738014 29.609375 57.246094 C 29.489237 56.902665 29.407985 56.586529 29.365234 56.271484 C 29.275529 56.96363 29.365343 57.548498 29.609375 58.246094 C 30.131375 59.738014 30.901173 60.836114 32.189453 61.933594 C 33.503293 63.052874 34.305441 63.438886 35.056641 63.316406 C 35.953601 63.170206 41.552163 60.333521 42.476562 59.556641 C 44.677723 57.706401 46.838769 55.556625 46.917969 55.140625 C 46.955454 54.944306 46.892588 54.640747 46.791016 54.378906 z M 36.6875 65.310547 C 36.592138 65.37654 36.484588 65.44901 36.464844 65.480469 C 36.179644 65.934589 36.454252 66.260842 38.201172 67.544922 C 41.303532 69.827322 42.288309 70.617088 44.787109 72.804688 C 48.119829 75.722527 47.869661 75.717854 51.119141 72.871094 C 53.371501 70.897854 55.895472 68.925286 58.388672 67.191406 C 59.598792 66.349726 59.841488 65.91354 59.361328 65.4375 C 59.354219 65.430451 59.321953 65.412432 59.3125 65.404297 C 59.117856 65.62926 58.842093 65.876037 58.388672 66.191406 C 55.895472 67.925286 53.371501 69.897854 51.119141 71.871094 C 47.869661 74.717854 48.119829 74.722527 44.787109 71.804688 C 42.288309 69.617088 41.303532 68.827322 38.201172 66.544922 C 37.415517 65.967423 36.960258 65.599479 36.6875 65.310547 z "
       transform="translate(0,2)"
       id="path113" />
    <path
       style="fill:#ffffff;stroke-width:4"
       d="M 47.998047 22 C 47.110967 22 45.624489 22.389699 41.042969 23.818359 C 39.970009 24.152951 38.884426 24.424188 38.628906 24.423828 C 38.373306 24.423507 36.351152 24.074832 34.138672 23.646484 C 31.926232 23.218004 29.9817 22.865234 29.8125 22.865234 C 29.21318 22.865234 22.455459 31.833166 20.755859 34.884766 C 20.13684 35.996254 19.889079 37.102434 20.044922 38.005859 C 20.121879 37.335852 20.34908 36.615163 20.755859 35.884766 C 22.455459 32.833166 29.21318 23.865234 29.8125 23.865234 C 29.9817 23.865234 31.926232 24.218004 34.138672 24.646484 C 36.351152 25.074832 38.373306 25.423507 38.628906 25.423828 C 38.884426 25.424188 39.970009 25.152951 41.042969 24.818359 C 45.624489 23.389699 47.110967 23 47.998047 23 C 48.885247 23 50.371925 23.389519 54.953125 24.818359 C 56.026125 25.153135 57.124531 25.427734 57.394531 25.427734 C 57.664531 25.427734 59.772358 25.065873 62.080078 24.626953 C 64.590878 24.149833 66.364141 23.887792 66.494141 23.976562 C 67.011341 24.329363 71.398868 30.103921 73.298828 32.931641 C 75.533068 36.256921 75.757853 36.685132 75.939453 37.951172 C 75.944852 37.988771 75.944323 38.018343 75.949219 38.054688 C 76.021946 37.704011 75.999388 37.368547 75.939453 36.951172 C 75.757853 35.685132 75.533068 35.256921 73.298828 31.931641 C 71.398868 29.103921 67.011341 23.329363 66.494141 22.976562 C 66.364141 22.887792 64.590878 23.149833 62.080078 23.626953 C 59.772358 24.065873 57.664531 24.427734 57.394531 24.427734 C 57.124531 24.427734 56.026125 24.153135 54.953125 23.818359 C 50.371925 22.389519 48.885247 22 47.998047 22 z M 30.814453 31.958984 C 30.027361 32.056406 29.429208 32.144717 29.378906 32.193359 C 29.286506 32.283331 29.389919 32.408706 29.636719 32.503906 C 29.865519 32.592906 32.308667 33.536496 35.060547 34.597656 C 37.812347 35.658896 40.351878 36.718149 40.705078 36.953125 C 41.406388 37.418987 41.784086 38.064528 41.894531 38.902344 C 41.929143 38.706452 41.944319 38.533987 41.943359 38.373047 C 41.935359 37.290767 41.535278 36.504605 40.705078 35.953125 C 40.351878 35.718149 37.812347 34.658896 35.060547 33.597656 C 32.906287 32.766946 31.675842 32.291796 30.814453 31.958984 z M 65.115234 31.958984 C 64.129525 32.373105 62.74835 32.924791 61.193359 33.521484 C 58.201799 34.669444 55.502913 35.789926 55.195312 36.009766 C 54.437193 36.551806 54.058854 37.335699 54.052734 38.380859 C 54.052104 38.536602 54.069682 38.70691 54.101562 38.894531 C 54.20986 38.093925 54.562697 37.462072 55.195312 37.009766 C 55.502913 36.789926 58.201799 35.669444 61.193359 34.521484 C 64.184959 33.373524 66.61375 32.358815 66.59375 32.265625 C 66.574105 32.178763 65.938877 32.066475 65.115234 31.958984 z M 44.001953 34.791016 C 43.868336 35.499722 43.467718 37.344248 42.912109 39.761719 C 41.886958 44.222227 41.756094 44.876983 41.949219 45.171875 C 42.073101 44.437024 42.361219 43.158682 42.912109 40.761719 C 43.569149 37.902919 44.109428 35.423465 44.111328 35.251953 C 44.112547 35.147441 44.064924 34.972605 44.001953 34.791016 z M 51.994141 34.792969 C 51.931064 34.973637 51.883607 35.147324 51.884766 35.251953 C 51.886806 35.423553 52.424158 37.903079 53.080078 40.761719 C 53.635475 43.182259 53.920058 44.446835 54.042969 45.175781 C 54.242312 44.874521 54.111469 44.256743 53.080078 39.761719 C 52.525791 37.346015 52.127517 35.503201 51.994141 34.792969 z M 56.367188 46.197266 C 56.113242 47.105115 55.054533 47.925797 52.742188 49.929688 C 50.852187 51.567408 49.221867 53.113507 49.117188 53.367188 C 48.992162 53.670096 48.992719 53.951523 49.169922 54.304688 C 49.380118 53.968109 50.923819 52.505338 52.742188 50.929688 C 55.836497 48.248143 56.695028 47.686022 56.367188 46.197266 z M 39.591797 46.298828 C 39.557346 46.415938 39.458984 46.68166 39.458984 46.716797 C 39.458984 47.497957 40.025536 48.126477 43.166016 50.841797 C 44.970336 52.401877 46.571409 53.910638 46.724609 54.191406 C 46.754121 54.245326 46.766859 54.316635 46.791016 54.378906 C 46.863915 54.274464 46.907923 54.193393 46.917969 54.140625 C 46.964369 53.897617 46.878209 53.472046 46.724609 53.191406 C 46.571409 52.910638 44.970336 51.401877 43.166016 49.841797 C 40.797789 47.794182 39.893708 46.933685 39.591797 46.298828 z M 30.933594 50.488281 C 30.831044 51.036458 30.60168 51.722368 30.212891 52.632812 C 29.482265 54.343643 29.233805 55.302934 29.365234 56.271484 C 29.455461 55.575322 29.72735 54.769752 30.212891 53.632812 C 30.890124 52.046906 31.092465 51.131942 30.933594 50.488281 z M 65.056641 50.515625 C 64.903811 51.169729 65.10934 52.114376 65.771484 53.689453 C 66.256973 54.844402 66.523046 55.591 66.617188 56.220703 C 66.758499 55.307278 66.528925 54.49136 65.771484 52.689453 C 65.386853 51.774512 65.158285 51.076338 65.056641 50.515625 z M 47.986328 59.273438 C 47.214648 59.276938 46.433338 59.57081 45.017578 60.15625 C 42.325618 61.26949 36.692844 64.117189 36.464844 64.480469 C 36.307909 64.730354 36.353776 64.957033 36.6875 65.310547 C 37.693373 64.614461 42.55873 62.173088 45.017578 61.15625 C 46.433338 60.57081 47.214648 60.276938 47.986328 60.273438 L 47.986328 60.275391 C 48.757928 60.271951 49.519258 60.557859 50.892578 61.130859 C 53.317725 62.142748 58.70367 64.880322 59.3125 65.404297 C 59.637335 65.028863 59.661577 64.735172 59.361328 64.4375 C 58.896328 63.97646 53.355378 61.158459 50.892578 60.130859 C 49.519258 59.557859 48.757928 59.271951 47.986328 59.275391 L 47.986328 59.273438 z "
       transform="translate(0,2)"
       id="path118" />
  </g>
</svg>
