<?xml version="1.0" encoding="UTF-8" standalone="no"?>
<svg
   xmlns:dc="http://purl.org/dc/elements/1.1/"
   xmlns:cc="http://creativecommons.org/ns#"
   xmlns:rdf="http://www.w3.org/1999/02/22-rdf-syntax-ns#"
   xmlns:svg="http://www.w3.org/2000/svg"
   xmlns="http://www.w3.org/2000/svg"
   xmlns:xlink="http://www.w3.org/1999/xlink"
   xmlns:sodipodi="http://sodipodi.sourceforge.net/DTD/sodipodi-0.dtd"
   xmlns:inkscape="http://www.inkscape.org/namespaces/inkscape"
   version="1.0"
   width="96"
   height="96"
   id="svg2408"
   sodipodi:docname="byobu.svg"
   inkscape:version="0.92.2 5c3e80d, 2017-08-06">
  <sodipodi:namedview
     pagecolor="#ffffff"
     bordercolor="#666666"
     borderopacity="1"
     objecttolerance="10"
     gridtolerance="10"
     guidetolerance="10"
     inkscape:pageopacity="0"
     inkscape:pageshadow="2"
     inkscape:window-width="1366"
     inkscape:window-height="743"
     id="namedview102"
     showgrid="false"
     inkscape:zoom="3.4766083"
     inkscape:cx="15.516773"
     inkscape:cy="55.744295"
     inkscape:window-x="0"
     inkscape:window-y="25"
     inkscape:window-maximized="1"
     inkscape:current-layer="svg2408" />
  <defs
     id="defs2410">
    <linearGradient
       id="linearGradient4960">
      <stop
         id="stop4956"
         offset="0"
         style="stop-color:#ffffff;stop-opacity:1;" />
      <stop
         id="stop4958"
         offset="1"
         style="stop-color:#ffffff;stop-opacity:0;" />
    </linearGradient>
    <linearGradient
       id="linearGradient4952">
      <stop
         id="stop4948"
         offset="0"
         style="stop-color:#f3f3f3;stop-opacity:1" />
      <stop
         id="stop4950"
         offset="1"
         style="stop-color:#000000;stop-opacity:0;" />
    </linearGradient>
    <linearGradient
       x1="45.447727"
       y1="92.539597"
       x2="45.447727"
       y2="7.0165396"
       id="ButtonShadow"
       gradientUnits="userSpaceOnUse"
       gradientTransform="scale(1.0058652,0.994169)">
      <stop
         id="stop3750"
         style="stop-color:#000000;stop-opacity:1"
         offset="0" />
      <stop
         id="stop3752"
         style="stop-color:#000000;stop-opacity:0.58823532"
         offset="1" />
    </linearGradient>
    <linearGradient
       id="linearGradient3737">
      <stop
         id="stop3739"
         style="stop-color:#ffffff;stop-opacity:1"
         offset="0" />
      <stop
         id="stop3741"
         style="stop-color:#ffffff;stop-opacity:0"
         offset="1" />
    </linearGradient>
    <filter
       color-interpolation-filters="sRGB"
       id="filter3174">
      <feGaussianBlur
         id="feGaussianBlur3176"
         stdDeviation="1.71" />
    </filter>
    <linearGradient
       x1="36.357143"
       y1="6"
       x2="36.357143"
       y2="63.893143"
       id="linearGradient3188"
       xlink:href="#linearGradient3737"
       gradientUnits="userSpaceOnUse"
       gradientTransform="translate(-13.231286,3.4516399)" />
    <filter
       x="-0.192"
       y="-0.192"
       width="1.3839999"
       height="1.3839999"
       color-interpolation-filters="sRGB"
       id="filter3794">
      <feGaussianBlur
         id="feGaussianBlur3796"
         stdDeviation="5.28" />
    </filter>
    <linearGradient
       x1="48"
       y1="20.220806"
       x2="48"
       y2="138.66119"
       id="linearGradient3613"
       xlink:href="#linearGradient3737"
       gradientUnits="userSpaceOnUse" />
    <radialGradient
       cx="48"
       cy="90.171875"
       r="42"
       fx="48"
       fy="90.171875"
       id="radialGradient3619"
       xlink:href="#linearGradient3737"
       gradientUnits="userSpaceOnUse"
       gradientTransform="matrix(1.1573129,0,0,0.99590774,-52.709976,-9.2948777)" />
    <clipPath
       id="clipPath3613">
      <rect
         width="84"
         height="84"
         rx="6"
         ry="6"
         x="6"
         y="6"
         id="rect3615"
         style="fill:#ffffff;fill-opacity:1;fill-rule:nonzero;stroke:none" />
    </clipPath>
    <linearGradient
       x1="45.447727"
       y1="92.539597"
       x2="45.447727"
       y2="7.0165396"
       id="ButtonShadow-0"
       gradientUnits="userSpaceOnUse"
       gradientTransform="matrix(1.0058652,0,0,0.994169,100,0)">
      <stop
         id="stop3750-8"
         style="stop-color:#000000;stop-opacity:1"
         offset="0" />
      <stop
         id="stop3752-5"
         style="stop-color:#000000;stop-opacity:0.58823532"
         offset="1" />
    </linearGradient>
    <linearGradient
       x1="32.251034"
       y1="6.1317081"
       x2="32.251034"
       y2="90.238609"
       id="linearGradient3780"
       xlink:href="#ButtonShadow-0"
       gradientUnits="userSpaceOnUse"
       gradientTransform="matrix(1.0238095,0,0,1.0119048,-1.1428571,-98.071429)" />
    <linearGradient
       x1="32.251034"
       y1="6.1317081"
       x2="32.251034"
       y2="90.238609"
       id="linearGradient3772"
       xlink:href="#ButtonShadow-0"
       gradientUnits="userSpaceOnUse"
       gradientTransform="matrix(1.0238095,0,0,1.0119048,-1.1428571,-98.071429)" />
    <linearGradient
       x1="32.251034"
       y1="6.1317081"
       x2="32.251034"
       y2="90.238609"
       id="linearGradient3725"
       xlink:href="#ButtonShadow-0"
       gradientUnits="userSpaceOnUse"
       gradientTransform="matrix(1.0238095,0,0,1.0119048,-1.1428571,-98.071429)" />
    <linearGradient
       x1="32.251034"
       y1="6.1317081"
       x2="32.251034"
       y2="90.238609"
       id="linearGradient3721"
       xlink:href="#ButtonShadow-0"
       gradientUnits="userSpaceOnUse"
       gradientTransform="translate(0,-97)" />
    <linearGradient
       x1="32.251034"
       y1="6.1317081"
       x2="32.251034"
       y2="90.238609"
       id="linearGradient3026"
       xlink:href="#ButtonShadow-0"
       gradientUnits="userSpaceOnUse"
       gradientTransform="matrix(1.0238095,0,0,1.0119048,-1.1428571,-98.071429)" />
    <linearGradient
       x1="6"
       y1="48"
       x2="90"
       y2="48"
       id="linearGradient3849"
       xlink:href="#linearGradient3843-5"
       gradientUnits="userSpaceOnUse"
       gradientTransform="translate(-96)" />
    <linearGradient
       id="linearGradient3843-5">
      <stop
         id="stop3845-0"
         style="stop-color:#b7855f;stop-opacity:1"
         offset="0" />
      <stop
         id="stop3847-4"
         style="stop-color:#f99d6c;stop-opacity:1"
         offset="1" />
    </linearGradient>
    <linearGradient
       x1="36.357143"
       y1="6"
       x2="36.357143"
       y2="63.893143"
       id="linearGradient3188-6"
       xlink:href="#linearGradient3737"
       gradientUnits="userSpaceOnUse"
       gradientTransform="translate(-55.334735,-37.687667)" />
    <radialGradient
       cx="48"
       cy="90.171875"
       r="42"
       fx="48"
       fy="90.171875"
       id="radialGradient3619-1"
       xlink:href="#linearGradient3737"
       gradientUnits="userSpaceOnUse"
       gradientTransform="matrix(1.1573129,0,0,0.99590774,-7.5510206,0.19713193)" />
    <linearGradient
       gradientUnits="userSpaceOnUse"
       y2="48.044048"
       x2="89.924857"
       y1="48.044048"
       x1="62.094348"
       id="linearGradient4954"
       xlink:href="#linearGradient4952" />
    <linearGradient
       gradientUnits="userSpaceOnUse"
       y2="47.530537"
       x2="6.0590291"
       y1="47.530537"
       x1="30.092926"
       id="linearGradient4962"
       xlink:href="#linearGradient4960" />
    <linearGradient
       id="linearGradient4390"
       x1="48"
       x2="48"
       y1="88"
       y2="-40"
       gradientTransform="matrix(1,0,0,-1,0,92)"
       gradientUnits="userSpaceOnUse"
       xlink:href="#linearGradient4960" />
    <linearGradient
       id="linearGradient4429"
       x1="48"
       x2="112.12"
       y1="82"
       y2="82.455002"
       gradientUnits="userSpaceOnUse"
       spreadMethod="reflect"
       xlink:href="#linearGradient4960" />
    <linearGradient
       id="linearGradient3228"
       x1="90"
       x2="48"
       y1="88"
       y2="88"
       gradientUnits="userSpaceOnUse"
       spreadMethod="reflect">
      <stop
         id="stop3894"
         stop-opacity=".58824"
         offset="0" />
      <stop
         id="stop3896"
         stop-opacity=".47059"
         offset=".1178" />
      <stop
         id="stop3898"
         stop-opacity=".39216"
         offset=".2381" />
      <stop
         id="stop3900"
         stop-opacity=".31373"
         offset="1" />
    </linearGradient>
  </defs>
  <metadata
     id="metadata2413">
    <rdf:RDF>
      <cc:Work
         rdf:about="">
        <dc:format>image/svg+xml</dc:format>
        <dc:type
           rdf:resource="http://purl.org/dc/dcmitype/StillImage" />
        <dc:title />
      </cc:Work>
    </rdf:RDF>
  </metadata>
  <g
     id="layer2"
     style="display:none">
    <rect
       width="86"
       height="85"
       rx="6"
       ry="6"
       x="5"
       y="7"
       id="rect3745"
       style="opacity:0.9;fill:url(#ButtonShadow);fill-opacity:1;fill-rule:nonzero;stroke:none;filter:url(#filter3174)" />
  </g>
  <g
     id="layer3">
    <path
       d="m 12,-95.03125 c -5.5110903,0 -10.03125,4.52016 -10.03125,10.03125 l 0,71 c 0,5.5110902 4.5201598,10.03125 10.03125,10.03125 l 72,0 c 5.51109,0 10.03125,-4.5201597 10.03125,-10.03125 l 0,-71 c 0,-5.51109 -4.52016,-10.03125 -10.03125,-10.03125 l -72,0 z"
       transform="scale(1,-1)"
       id="path3786"
       style="opacity:0.07999998;fill:url(#linearGradient3026);fill-opacity:1;fill-rule:nonzero;stroke:none;display:inline" />
    <path
       d="m 12,-94.03125 c -4.971633,0 -9.03125,4.059617 -9.03125,9.03125 l 0,71 c 0,4.9716329 4.0596171,9.03125 9.03125,9.03125 l 72,0 c 4.971633,0 9.03125,-4.059617 9.03125,-9.03125 l 0,-71 c 0,-4.971633 -4.059617,-9.03125 -9.03125,-9.03125 l -72,0 z"
       transform="scale(1,-1)"
       id="path3778"
       style="opacity:0.1;fill:url(#linearGradient3780);fill-opacity:1;fill-rule:nonzero;stroke:none;display:inline" />
    <path
       d="m 12,-93 c -4.4091333,0 -8,3.590867 -8,8 l 0,71 c 0,4.4091333 3.5908667,8 8,8 l 72,0 c 4.409133,0 8,-3.5908667 8,-8 l 0,-71 c 0,-4.409133 -3.590867,-8 -8,-8 l -72,0 z"
       transform="scale(1,-1)"
       id="path3770"
       style="opacity:0.2;fill:url(#linearGradient3772);fill-opacity:1;fill-rule:nonzero;stroke:none;display:inline" />
    <rect
       width="86"
       height="85"
       rx="7"
       ry="7"
       x="5"
       y="-92"
       transform="scale(1,-1)"
       id="rect3723"
       style="opacity:0.3;fill:url(#linearGradient3725);fill-opacity:1;fill-rule:nonzero;stroke:none;display:inline" />
    <rect
       width="84"
       height="84"
       rx="6"
       ry="6"
       x="6"
       y="-91"
       transform="scale(1,-1)"
       id="rect3716"
       style="opacity:0.45;fill:url(#linearGradient3721);fill-opacity:1;fill-rule:nonzero;stroke:none;display:inline" />
  </g>
  <rect
     style="fill:url(#linearGradient3849);fill-opacity:1;fill-rule:nonzero;stroke:none"
     id="rect2419"
     transform="rotate(-90)"
     y="6"
     x="-90"
     ry="6"
     rx="6"
     height="84"
     width="84" />
  <path
     inkscape:connector-curvature="0"
     style="fill:none;stroke:#ad744a;stroke-width:2.024647;stroke-linecap:butt;stroke-linejoin:miter;stroke-miterlimit:4;stroke-dasharray:none;stroke-opacity:1"
     d="M 31.482757,6.0390117 31.483,89.901563 v 0"
     id="path4652" />
  <path
     inkscape:connector-curvature="0"
     style="fill:none;stroke:#ad744a;stroke-width:2.024647;stroke-linecap:butt;stroke-linejoin:miter;stroke-miterlimit:4;stroke-dasharray:none;stroke-opacity:1"
     d="m 62.094348,5.942354 2.4e-4,83.862551 v 0"
     id="path4652-3" />
  <g
     id="g1040"
     transform="translate(0,-1.9999237)">
    <path
       id="path6195"
       d="m 78.290636,82.786904 -15.65802,-13.2193 -9.57883,-4.5759 -5.5264,-11.694 -9.39463,-8.64339 -0.18419,-5.08434 3.13142,-12.20243"
       style="fill:none;stroke:#000000;stroke-width:1.61763513;stroke-linecap:butt;stroke-linejoin:miter;stroke-miterlimit:4;stroke-dasharray:none;stroke-opacity:1"
       inkscape:connector-curvature="0" />
    <path
       id="path6197"
       d="m 61.895806,68.889694 14.73683,-7.28756"
       style="fill:none;stroke:#000000;stroke-width:1.43789792;stroke-linecap:butt;stroke-linejoin:miter;stroke-miterlimit:4;stroke-dasharray:none;stroke-opacity:1"
       inkscape:connector-curvature="0" />
    <path
       id="path6199"
       d="m 59.316996,67.533864 11.97363,-10.16868"
       style="fill:none;stroke:#000000;stroke-width:1.43789792;stroke-linecap:butt;stroke-linejoin:miter;stroke-miterlimit:4;stroke-dasharray:none;stroke-opacity:1"
       inkscape:connector-curvature="0" />
    <path
       id="path6201"
       d="m 56.001196,66.178044 -10.31582,7.28756"
       style="fill:none;stroke:#000000;stroke-width:0.89868617;stroke-linecap:butt;stroke-linejoin:miter;stroke-miterlimit:4;stroke-dasharray:none;stroke-opacity:1"
       inkscape:connector-curvature="0" />
    <path
       id="path6203"
       d="m 52.447036,62.984704 -11.30672,5.17728 -6.78377,-5.66266 -18.090854,1.13254"
       style="fill:none;stroke:#000000;stroke-width:1.36200702;stroke-linecap:butt;stroke-linejoin:miter;stroke-miterlimit:4;stroke-dasharray:none;stroke-opacity:1"
       inkscape:connector-curvature="0" />
    <path
       id="path6205"
       d="m 47.158986,52.619794 8.47362,-10.16869 16.39482,-11.01609 5.7106,-0.84738 h 0.18421"
       style="fill:none;stroke:#000000;stroke-width:1.43789792;stroke-linecap:butt;stroke-linejoin:miter;stroke-miterlimit:4;stroke-dasharray:none;stroke-opacity:0.99588479"
       inkscape:connector-curvature="0" />
    <path
       id="path6207"
       d="m 51.579996,47.027014 -1.84201,-7.11808 8.10521,-4.40644"
       style="fill:none;stroke:#000000;stroke-width:1.25816059;stroke-linecap:butt;stroke-linejoin:miter;stroke-miterlimit:4;stroke-dasharray:none;stroke-opacity:0.99588479"
       inkscape:connector-curvature="0" />
    <path
       id="path6209"
       d="m 54.343196,37.536234 -0.1842,-7.45704 5.158,0.33896 14.73683,-12.71087"
       style="fill:none;stroke:#000000;stroke-width:0.89868617;stroke-linecap:butt;stroke-linejoin:miter;stroke-miterlimit:4;stroke-dasharray:none;stroke-opacity:0.99588479"
       inkscape:connector-curvature="0" />
    <path
       id="path6211"
       d="m 37.948566,40.247884 8.84202,-8.13495"
       style="fill:none;stroke:#000000;stroke-width:0.89868617;stroke-linecap:butt;stroke-linejoin:miter;stroke-miterlimit:4;stroke-dasharray:none;stroke-opacity:0.99588479"
       inkscape:connector-curvature="0" />
    <path
       id="path6213"
       d="m 37.764356,41.773194 -7.9212,3.05061 -9.210421,-7.28757 -3.315804,-0.50843"
       style="fill:none;stroke:#000000;stroke-width:1.25816059;stroke-linecap:butt;stroke-linejoin:miter;stroke-miterlimit:4;stroke-dasharray:none;stroke-opacity:1"
       inkscape:connector-curvature="0" />
    <path
       id="path6215"
       d="m 38.316966,38.044674 -12.710617,-6.77913 -7.736814,0.33896 1.289405,-5.76226"
       style="fill:none;stroke:#000000;stroke-width:0.89868617;stroke-linecap:butt;stroke-linejoin:miter;stroke-miterlimit:4;stroke-dasharray:none;stroke-opacity:1"
       inkscape:connector-curvature="0" />
    <ellipse
       id="path6251"
       style="fill:#aa0000;fill-opacity:1;fill-rule:nonzero;stroke:none;stroke-width:0.17973724"
       cx="80.593102"
       cy="29.740232"
       rx="1.7499995"
       ry="1.6947817" />
    <ellipse
       id="path6253"
       style="fill:#aa0000;fill-opacity:1;fill-rule:nonzero;stroke:none;stroke-width:0.17973724"
       cx="78.659187"
       cy="33.892452"
       rx="1.2894734"
       ry="1.4405644" />
    <ellipse
       id="path6255"
       style="fill:#aa0000;fill-opacity:1;fill-rule:nonzero;stroke:none;stroke-width:0.17973724"
       cx="74.974709"
       cy="27.367537"
       rx="2.2105258"
       ry="1.8642598" />
    <ellipse
       id="path6257"
       style="fill:#aa0000;fill-opacity:1;fill-rule:nonzero;stroke:none;stroke-width:0.17973724"
       cx="74.053581"
       cy="20.927366"
       rx="1.2894734"
       ry="1.5253036" />
    <ellipse
       id="path6259"
       style="fill:#aa0000;fill-opacity:1;fill-rule:nonzero;stroke:none;stroke-width:0.17973724"
       cx="68.987785"
       cy="18.385191"
       rx="1.9342101"
       ry="1.6947817" />
    <ellipse
       id="path6261"
       style="fill:#aa0000;fill-opacity:1;fill-rule:nonzero;stroke:none;stroke-width:0.17973724"
       cx="71.198174"
       cy="59.907345"
       rx="1.0131577"
       ry="0.84739083" />
    <ellipse
       id="path6263"
       style="fill:#aa0000;fill-opacity:1;fill-rule:nonzero;stroke:none;stroke-width:0.17973724"
       cx="72.303459"
       cy="54.907742"
       rx="1.9342101"
       ry="1.6100426" />
    <ellipse
       id="path6265"
       style="fill:#aa0000;fill-opacity:1;fill-rule:nonzero;stroke:none;stroke-width:0.17973724"
       cx="67.974113"
       cy="56.263577"
       rx="1.8421049"
       ry="1.7795206" />
    <ellipse
       id="path6267"
       style="fill:#aa0000;fill-opacity:1;fill-rule:nonzero;stroke:none;stroke-width:0.17973724"
       cx="79.579887"
       cy="62.873226"
       rx="2.2105258"
       ry="1.4405644" />
    <ellipse
       id="path6269"
       style="fill:#aa0000;fill-opacity:1;fill-rule:nonzero;stroke:none;stroke-width:0.17973724"
       cx="58.856289"
       cy="37.197277"
       rx="1.0131577"
       ry="0.67791265" />
    <ellipse
       id="path6271"
       style="fill:#aa0000;fill-opacity:1;fill-rule:nonzero;stroke:none;stroke-width:0.17973724"
       cx="75.987984"
       cy="65.161163"
       rx="1.5657892"
       ry="1.186347" />
    <ellipse
       id="path6273"
       style="fill:#aa0000;fill-opacity:1;fill-rule:nonzero;stroke:none;stroke-width:0.17973724"
       cx="43.751369"
       cy="71.347122"
       rx="1.7499995"
       ry="1.6100426" />
    <ellipse
       id="path6275"
       style="fill:#aa0000;fill-opacity:1;fill-rule:nonzero;stroke:none;stroke-width:0.17973724"
       cx="47.987377"
       cy="74.990906"
       rx="1.0131577"
       ry="1.6947817" />
    <ellipse
       id="path6277"
       style="fill:#aa0000;fill-opacity:1;fill-rule:nonzero;stroke:none;stroke-width:0.17973724"
       cx="73.224815"
       cy="15.588812"
       rx="1.7499995"
       ry="1.2710862" />
    <ellipse
       id="path6279"
       style="fill:#aa0000;fill-opacity:1;fill-rule:nonzero;stroke:none;stroke-width:0.17973724"
       cx="48.540348"
       cy="29.6555"
       rx="1.5657892"
       ry="1.6100426" />
    <ellipse
       id="path6281"
       style="fill:#aa0000;fill-opacity:1;fill-rule:nonzero;stroke:none;stroke-width:0.17973724"
       cx="57.382351"
       cy="33.045055"
       rx="1.3815787"
       ry="1.6100426" />
    <ellipse
       id="path6283"
       style="fill:#aa0000;fill-opacity:1;fill-rule:nonzero;stroke:none;stroke-width:0.17973724"
       cx="48.816807"
       cy="33.468761"
       rx="1.6578944"
       ry="1.3558253" />
    <ellipse
       id="path6287"
       style="fill:#aa0000;fill-opacity:1;fill-rule:nonzero;stroke:none;stroke-width:0.13922387"
       cx="39.8829"
       cy="24.655897"
       rx="1.1973683"
       ry="2.0337379" />
    <ellipse
       id="path6289"
       style="fill:#aa0000;fill-opacity:1;fill-rule:nonzero;stroke:none;stroke-width:0.17973724"
       cx="16.02717"
       cy="26.265928"
       rx="1.8421049"
       ry="2.2879553" />
    <ellipse
       id="path6291"
       style="fill:#aa0000;fill-opacity:1;fill-rule:nonzero;stroke:none;stroke-width:0.13386102"
       cx="19.343309"
       cy="34.824581"
       rx="2.3947365"
       ry="1.3558253" />
    <ellipse
       id="path6293"
       style="fill:#aa0000;fill-opacity:1;fill-rule:nonzero;stroke:none;stroke-width:0.17973724"
       cx="17.961542"
       cy="40.163143"
       rx="2.3026311"
       ry="1.7795206" />
    <ellipse
       id="path6295"
       style="fill:#aa0000;fill-opacity:1;fill-rule:nonzero;stroke:none;stroke-width:0.17973724"
       cx="18.422228"
       cy="22.961111"
       rx="1.6578944"
       ry="1.186347" />
    <ellipse
       id="path6297"
       style="fill:#aa0000;fill-opacity:1;fill-rule:nonzero;stroke:none;stroke-width:0.17973724"
       cx="15.198436"
       cy="36.51936"
       rx="1.1973683"
       ry="1.6947817" />
    <ellipse
       id="path6299"
       style="fill:#aa0000;fill-opacity:1;fill-rule:nonzero;stroke:none;stroke-width:0.17973724"
       cx="59.961803"
       cy="35.078808"
       rx="1.1973683"
       ry="1.101608" />
    <ellipse
       id="path6311"
       style="fill:#aa0000;fill-opacity:1;fill-rule:nonzero;stroke:none;stroke-width:0.17973724"
       cx="14.001002"
       cy="65.754349"
       rx="1.6578944"
       ry="1.4405644" />
    <ellipse
       id="path6313"
       style="fill:#aa0000;fill-opacity:1;fill-rule:nonzero;stroke:none;stroke-width:0.10255761"
       cx="18.882738"
       cy="66.347519"
       rx="1.9342103"
       ry="1.3558253" />
    <ellipse
       id="path6315"
       style="fill:#aa0000;fill-opacity:1;fill-rule:nonzero;stroke:none;stroke-width:0.17973724"
       cx="16.395952"
       cy="60.924221"
       rx="1.8421049"
       ry="1.3558253" />
    <ellipse
       id="path6317"
       style="fill:#aa0000;fill-opacity:1;fill-rule:nonzero;stroke:none;stroke-width:0.17973724"
       cx="43.382481"
       cy="27.282804"
       rx="1.1973683"
       ry="1.2710862" />
    <ellipse
       id="path6323"
       style="fill:#aa0000;fill-opacity:1;fill-rule:nonzero;stroke:none;stroke-width:0.17319915"
       cx="43.842854"
       cy="24.232191"
       rx="2.2105258"
       ry="1.101608" />
    <ellipse
       id="path6325"
       style="fill:#aa0000;fill-opacity:1;fill-rule:nonzero;stroke:none;stroke-width:0.17973724"
       cx="45.132793"
       cy="30.248671"
       rx="1.2894734"
       ry="1.3558253" />
    <ellipse
       id="path6327"
       style="fill:#aa0000;fill-opacity:1;fill-rule:nonzero;stroke:none;stroke-width:0.17973724"
       cx="77.277901"
       cy="58.043087"
       rx="2.1184206"
       ry="2.5421724" />
    <ellipse
       id="path6329"
       style="fill:#aa0000;fill-opacity:1;fill-rule:nonzero;stroke:none;stroke-width:0.17973724"
       cx="22.106318"
       cy="25.079588"
       rx="2.2105258"
       ry="1.2710862" />
    <ellipse
       id="path6331"
       style="fill:#aa0000;fill-opacity:1;fill-rule:nonzero;stroke:none;stroke-width:0.17973724"
       cx="44.580288"
       cy="75.584091"
       rx="1.4736838"
       ry="1.101608" />
  </g>
  <path
     id="rect2419-7"
     d="m 5.8895367,84.242402 v -72.20339 c 0,-3.3240003 2.8099861,-6.0000003 6.3004173,-6.0000003 H 31.482757 V 90.242402 H 12.189954 c -3.4904312,0 -6.3004173,-2.676 -6.3004173,-6 z"
     style="opacity:0.152;fill:url(#linearGradient4962);fill-opacity:1;fill-rule:nonzero;stroke:none;stroke-width:1.02472901" />
  <path
     id="rect2419-7-5"
     d="m 89.924857,84.145744 v -72.20339 c 0,-3.324 -3.055631,-6 -6.851185,-6 H 62.094348 v 84.203388 h 20.979324 c 3.795554,0 6.851185,-2.676 6.851185,-5.999998 z"
     style="opacity:0.117;fill:url(#linearGradient4954);fill-opacity:1;fill-rule:nonzero;stroke:none;stroke-width:1.06858027" />
  <g
     id="g873">
    <path
       id="rect4377"
       d="M 12,86 C 8.676,86 6,83.324 6,80 V 12 C 6,8.676 8.676,6 12,6 h 72 c 3.324,0 6,2.676 6,6 v 68 c 0,3.324 -2.676,6 -6,6 z m 0,-0.96875 h 72 c 2.8049,0 5.0312,-2.2264 5.0312,-5.0312 v -68 c 0,-2.8049 -2.226,-5.0312 -5.031,-5.0312 h -72 c -2.8049,0 -5.0312,2.2263 -5.0312,5.0312 v 68 c 0,2.8049 2.2264,5.0312 5.0312,5.0312 z"
       style="opacity:0.3;fill:url(#linearGradient4390)"
       inkscape:connector-curvature="0" />
    <path
       id="rect4414"
       d="m 6,78 v 2 c 0,3.324 2.676,6 6,6 h 72 c 3.324,0 6,-2.676 6,-6 v -2 c 0,3.324 -2.676,6 -6,6 H 12 C 8.676,84 6,81.324 6,78 Z"
       style="opacity:0.1;fill:url(#linearGradient4429)"
       inkscape:connector-curvature="0" />
    <g
       id="layer4">
      <path
         style="fill:url(#linearGradient3228)"
         inkscape:connector-curvature="0"
         d="m 6,80 v 4 c 0,3.324 2.676,6 6,6 h 72 c 3.324,0 6,-2.676 6,-6 v -4 c 0,3.324 -2.676,6 -6,6 H 12 C 8.676,86 6,83.324 6,80 Z"
         id="path3888" />
      <path
         style="color:#000000;opacity:0.1"
         inkscape:connector-curvature="0"
         d="m 6,82 v 2 c 0,3.324 2.676,6 6,6 h 72 c 3.324,0 6,-2.676 6,-6 v -2 c 0,3.324 -2.676,6 -6,6 H 12 C 8.676,88 6,85.324 6,82 Z"
         id="rect4345" />
      <path
         style="color:#000000;opacity:0.15"
         inkscape:connector-curvature="0"
         d="m 6,83 v 1 c 0,3.324 2.676,6 6,6 h 72 c 3.324,0 6,-2.676 6,-6 v -1 c 0,3.324 -2.676,6 -6,6 H 12 C 8.676,89 6,86.324 6,83 Z"
         id="rect4336" />
    </g>
  </g>
</svg>
