<?xml version="1.0" encoding="UTF-8" standalone="no"?>
<!-- Created with Inkscape (http://www.inkscape.org/) -->

<svg
   xmlns:dc="http://purl.org/dc/elements/1.1/"
   xmlns:cc="http://creativecommons.org/ns#"
   xmlns:rdf="http://www.w3.org/1999/02/22-rdf-syntax-ns#"
   xmlns:svg="http://www.w3.org/2000/svg"
   xmlns="http://www.w3.org/2000/svg"
   xmlns:xlink="http://www.w3.org/1999/xlink"
   xmlns:sodipodi="http://sodipodi.sourceforge.net/DTD/sodipodi-0.dtd"
   xmlns:inkscape="http://www.inkscape.org/namespaces/inkscape"
   width="96"
   height="96"
   id="svg2408"
   sodipodi:version="0.32"
   inkscape:version="0.48.2 r9819"
   version="1.0"
   sodipodi:docname="ccsm.svg"
   inkscape:output_extension="org.inkscape.output.svg.inkscape">
  <defs
     id="defs2410">
    <linearGradient
       id="linearGradient4384">
      <stop
         style="stop-color:#ffffff;stop-opacity:1;"
         offset="0"
         id="stop4386" />
      <stop
         style="stop-color:#ffffff;stop-opacity:0;"
         offset="1"
         id="stop4388" />
    </linearGradient>
    <linearGradient
       id="linearGradient4367">
      <stop
         style="stop-color:#ffffff;stop-opacity:0.71755725;"
         offset="0"
         id="stop4369" />
      <stop
         style="stop-color:#ffffff;stop-opacity:1;"
         offset="1"
         id="stop4371" />
    </linearGradient>
    <inkscape:perspective
       sodipodi:type="inkscape:persp3d"
       inkscape:vp_x="0 : 48 : 1"
       inkscape:vp_y="0 : 1000 : 0"
       inkscape:vp_z="96 : 48 : 1"
       inkscape:persp3d-origin="48 : 32 : 1"
       id="perspective48" />
    <linearGradient
       id="ButtonShadow"
       gradientTransform="scale(1.0058652,0.994169)"
       x1="45.447727"
       y1="92.539597"
       x2="45.447727"
       y2="7.0165396"
       gradientUnits="userSpaceOnUse">
      <stop
         style="stop-color:#000000;stop-opacity:1;"
         offset="0"
         id="stop3750" />
      <stop
         style="stop-color:#000000;stop-opacity:0.58823532;"
         offset="1"
         id="stop3752" />
    </linearGradient>
    <linearGradient
       inkscape:collect="always"
       id="linearGradient3737">
      <stop
         style="stop-color:#ffffff;stop-opacity:1;"
         offset="0"
         id="stop3739" />
      <stop
         style="stop-color:#ffffff;stop-opacity:0;"
         offset="1"
         id="stop3741" />
    </linearGradient>
    <linearGradient
       id="linearGradient3700">
      <stop
         style="stop-color:#2276c5;stop-opacity:1;"
         offset="0"
         id="stop3702" />
      <stop
         style="stop-color:#68baf4;stop-opacity:1;"
         offset="1"
         id="stop3704" />
    </linearGradient>
    <filter
       inkscape:collect="always"
       id="filter3174">
      <feGaussianBlur
         inkscape:collect="always"
         stdDeviation="1.71"
         id="feGaussianBlur3176" />
    </filter>
    <linearGradient
       inkscape:collect="always"
       xlink:href="#linearGradient3737"
       id="linearGradient3188"
       gradientUnits="userSpaceOnUse"
       x1="36.357143"
       y1="6"
       x2="36.357143"
       y2="63.893143" />
    <filter
       inkscape:collect="always"
       id="filter3794"
       x="-0.192"
       width="1.384"
       y="-0.192"
       height="1.384">
      <feGaussianBlur
         inkscape:collect="always"
         stdDeviation="5.28"
         id="feGaussianBlur3796" />
    </filter>
    <linearGradient
       inkscape:collect="always"
       xlink:href="#linearGradient3737"
       id="linearGradient3613"
       x1="48"
       y1="20.220806"
       x2="48"
       y2="138.66119"
       gradientUnits="userSpaceOnUse" />
    <linearGradient
       inkscape:collect="always"
       xlink:href="#linearGradient3700"
       id="linearGradient3617"
       gradientUnits="userSpaceOnUse"
       x1="48"
       y1="90"
       x2="48"
       y2="5.9877172" />
    <linearGradient
       id="ButtonShadow-0"
       gradientTransform="matrix(1.0058652,0,0,0.994169,100,0)"
       x1="45.447727"
       y1="92.539597"
       x2="45.447727"
       y2="7.0165396"
       gradientUnits="userSpaceOnUse">
      <stop
         style="stop-color:#000000;stop-opacity:1;"
         offset="0"
         id="stop3750-8" />
      <stop
         style="stop-color:#000000;stop-opacity:0.58823532;"
         offset="1"
         id="stop3752-5" />
    </linearGradient>
    <linearGradient
       inkscape:collect="always"
       xlink:href="#ButtonShadow-0"
       id="linearGradient3780"
       gradientUnits="userSpaceOnUse"
       gradientTransform="matrix(1.0238095,0,0,1.0119048,-1.1428571,-98.071429)"
       x1="32.251034"
       y1="6.1317081"
       x2="32.251034"
       y2="90.238609" />
    <linearGradient
       inkscape:collect="always"
       xlink:href="#ButtonShadow-0"
       id="linearGradient3772"
       gradientUnits="userSpaceOnUse"
       gradientTransform="matrix(1.0238095,0,0,1.0119048,-1.1428571,-98.071429)"
       x1="32.251034"
       y1="6.1317081"
       x2="32.251034"
       y2="90.238609" />
    <linearGradient
       inkscape:collect="always"
       xlink:href="#ButtonShadow-0"
       id="linearGradient3725"
       gradientUnits="userSpaceOnUse"
       gradientTransform="matrix(1.0238095,0,0,1.0119048,-1.1428571,-98.071429)"
       x1="32.251034"
       y1="6.1317081"
       x2="32.251034"
       y2="90.238609" />
    <linearGradient
       inkscape:collect="always"
       xlink:href="#ButtonShadow-0"
       id="linearGradient3721"
       gradientUnits="userSpaceOnUse"
       gradientTransform="translate(0,-97)"
       x1="32.251034"
       y1="6.1317081"
       x2="32.251034"
       y2="90.238609" />
    <linearGradient
       y2="90.238609"
       x2="32.251034"
       y1="6.1317081"
       x1="32.251034"
       gradientTransform="matrix(1.0238095,0,0,1.0119048,-1.1428571,-98.071429)"
       gradientUnits="userSpaceOnUse"
       id="linearGradient3026"
       xlink:href="#ButtonShadow-0"
       inkscape:collect="always" />
    <linearGradient
       inkscape:collect="always"
       xlink:href="#linearGradient3669"
       id="linearGradient3675"
       x1="8"
       y1="1033.3622"
       x2="64.080299"
       y2="1033.3622"
       gradientUnits="userSpaceOnUse"
       spreadMethod="reflect" />
    <linearGradient
       id="linearGradient3669">
      <stop
         style="stop-color:#c27d4f;stop-opacity:1;"
         offset="0"
         id="stop3671" />
      <stop
         id="stop3677"
         offset="0.11780351"
         style="stop-color:#a3704e;stop-opacity:1;" />
      <stop
         style="stop-color:#866148;stop-opacity:1;"
         offset="1"
         id="stop3673" />
    </linearGradient>
    <clipPath
       clipPathUnits="userSpaceOnUse"
       id="clipPath4355">
      <rect
         style="fill:#ffffff;fill-opacity:1;fill-rule:nonzero;stroke:none"
         id="rect4357"
         width="84"
         height="80"
         x="6"
         y="6"
         rx="6"
         ry="6" />
    </clipPath>
    <radialGradient
       inkscape:collect="always"
       xlink:href="#linearGradient4367"
       id="radialGradient4375"
       cx="48"
       cy="87.792389"
       fx="48"
       fy="87.792389"
       r="42"
       gradientTransform="matrix(1,-6.7114942e-8,8.4282233e-8,1.2557894,109.99999,-24.505592)"
       gradientUnits="userSpaceOnUse" />
    <linearGradient
       inkscape:collect="always"
       xlink:href="#linearGradient4384"
       id="linearGradient4390"
       x1="48"
       y1="88"
       x2="48"
       y2="-40"
       gradientUnits="userSpaceOnUse"
       gradientTransform="matrix(1,0,0,-1,0,92)" />
    <linearGradient
       inkscape:collect="always"
       xlink:href="#linearGradient4384"
       id="linearGradient4429"
       x1="48"
       y1="82"
       x2="112.12357"
       y2="82.454597"
       gradientUnits="userSpaceOnUse"
       spreadMethod="reflect" />
    <linearGradient
       gradientTransform="translate(-2,-956.3622)"
       y2="1033.3622"
       x2="50"
       y1="1033.3622"
       x1="8"
       spreadMethod="reflect"
       gradientUnits="userSpaceOnUse"
       id="linearGradient3542-9"
       xlink:href="#linearGradient4482"
       inkscape:collect="always" />
    <linearGradient
       id="linearGradient4482">
      <stop
         id="stop4484"
         offset="0"
         style="stop-color:#ffffff;stop-opacity:0.12977099;" />
      <stop
         style="stop-color:#424242;stop-opacity:0.28244275;"
         offset="0.11780351"
         id="stop4486" />
      <stop
         id="stop4488"
         offset="0.23809524"
         style="stop-color:#2f2f2f;stop-opacity:0.30534351;" />
      <stop
         id="stop4490"
         offset="1"
         style="stop-color:#000000;stop-opacity:0.35114503;" />
    </linearGradient>
    <linearGradient
       inkscape:collect="always"
       xlink:href="#linearGradient4482"
       id="linearGradient3851"
       gradientUnits="userSpaceOnUse"
       x1="90"
       y1="88"
       x2="48"
       y2="88"
       spreadMethod="reflect" />
    <linearGradient
       inkscape:collect="always"
       xlink:href="#linearGradient3892"
       id="linearGradient3890"
       gradientUnits="userSpaceOnUse"
       spreadMethod="reflect"
       x1="90"
       y1="88"
       x2="48"
       y2="88" />
    <linearGradient
       id="linearGradient3892">
      <stop
         style="stop-color:#000000;stop-opacity:0.58823532;"
         offset="0"
         id="stop3894" />
      <stop
         id="stop3896"
         offset="0.11780351"
         style="stop-color:#000000;stop-opacity:0.47058824;" />
      <stop
         style="stop-color:#000000;stop-opacity:0.39215687;"
         offset="0.23809524"
         id="stop3898" />
      <stop
         style="stop-color:#000000;stop-opacity:0.3137255;"
         offset="1"
         id="stop3900" />
    </linearGradient>
    <linearGradient
       y2="88"
       x2="48"
       y1="88"
       x1="90"
       spreadMethod="reflect"
       gradientUnits="userSpaceOnUse"
       id="linearGradient3228"
       xlink:href="#linearGradient3892"
       inkscape:collect="always" />
    <linearGradient
       inkscape:collect="always"
       xlink:href="#ButtonColor"
       id="linearGradient3617-5"
       gradientUnits="userSpaceOnUse"
       x1="48"
       y1="90"
       x2="48"
       y2="5.9877172" />
    <linearGradient
       id="ButtonColor"
       x1="58.650177"
       y1="122"
       x2="58.650177"
       y2="5.4252338"
       gradientUnits="userSpaceOnUse"
       gradientTransform="matrix(1.0172414,0,0,1.0172414,-1.1034483,-1.1034483)">
      <stop
         style="stop-color:#037ac0;stop-opacity:1"
         offset="0"
         id="stop3189" />
      <stop
         style="stop-color:#7edafe;stop-opacity:1"
         offset="1"
         id="stop3191" />
    </linearGradient>
    <linearGradient
       y2="5.9877172"
       x2="48"
       y1="90"
       x1="48"
       gradientUnits="userSpaceOnUse"
       id="linearGradient3104"
       xlink:href="#ButtonColor"
       inkscape:collect="always" />
    <linearGradient
       inkscape:collect="always"
       xlink:href="#linearGradient3305"
       id="linearGradient3699"
       x1="76.35714"
       y1="82.500275"
       x2="76.35714"
       y2="24.070036"
       gradientUnits="userSpaceOnUse" />
    <linearGradient
       id="linearGradient3305">
      <stop
         id="stop3307"
         offset="0"
         style="stop-color:#dcdcdc;stop-opacity:1;" />
      <stop
         id="stop3309"
         offset="1"
         style="stop-color:#ffffff;stop-opacity:0;" />
    </linearGradient>
    <linearGradient
       y2="24.070036"
       x2="76.35714"
       y1="78"
       x1="76.35714"
       gradientUnits="userSpaceOnUse"
       id="linearGradient3121"
       xlink:href="#linearGradient3305"
       inkscape:collect="always" />
    <linearGradient
       y2="115.20887"
       x2="49.847614"
       y1="13.927948"
       x1="49.847614"
       gradientTransform="matrix(0.67065867,0,0,0.67065867,13.101796,5.5298882)"
       gradientUnits="userSpaceOnUse"
       id="linearGradient2907"
       xlink:href="#linearGradient3282"
       inkscape:collect="always" />
    <linearGradient
       id="linearGradient3282">
      <stop
         style="stop-color:#ffffff;stop-opacity:1;"
         offset="0"
         id="stop3284" />
      <stop
         style="stop-color:#dcdcdc;stop-opacity:1;"
         offset="1"
         id="stop3286" />
    </linearGradient>
    <linearGradient
       inkscape:collect="always"
       xlink:href="#linearGradient3656"
       id="linearGradient3717"
       gradientUnits="userSpaceOnUse"
       x1="22.406412"
       y1="36.600529"
       x2="57.689129"
       y2="103.0291" />
    <linearGradient
       inkscape:collect="always"
       id="linearGradient3656">
      <stop
         style="stop-color:#0b70aa;stop-opacity:1;"
         offset="0"
         id="stop3658" />
      <stop
         style="stop-color:#0b70aa;stop-opacity:0;"
         offset="1"
         id="stop3660" />
    </linearGradient>
    <linearGradient
       inkscape:collect="always"
       xlink:href="#linearGradient3656"
       id="linearGradient3732"
       gradientUnits="userSpaceOnUse"
       x1="22.406412"
       y1="36.600529"
       x2="57.689129"
       y2="103.0291"
       gradientTransform="translate(1.4739349e-7,-22)" />
    <linearGradient
       inkscape:collect="always"
       xlink:href="#linearGradient3656"
       id="linearGradient3740"
       gradientUnits="userSpaceOnUse"
       gradientTransform="translate(0,-20)"
       x1="22.406412"
       y1="36.600529"
       x2="57.689129"
       y2="103.0291" />
    <linearGradient
       y2="103.0291"
       x2="57.689129"
       y1="36.600529"
       x1="22.406412"
       gradientTransform="translate(0,-20)"
       gradientUnits="userSpaceOnUse"
       id="linearGradient3159"
       xlink:href="#linearGradient3656"
       inkscape:collect="always" />
    <radialGradient
       r="56.542881"
       fy="7.457119"
       fx="108.53934"
       cy="7.457119"
       cx="108.53934"
       gradientTransform="matrix(-1.3703659,1.180354e-8,-1.2492802e-8,-1.4503877,228.44457,16.815712)"
       gradientUnits="userSpaceOnUse"
       id="radialGradient2888"
       xlink:href="#linearGradient3267"
       inkscape:collect="always" />
    <linearGradient
       inkscape:collect="always"
       id="linearGradient3267">
      <stop
         style="stop-color:#ffffff;stop-opacity:1;"
         offset="0"
         id="stop3269" />
      <stop
         style="stop-color:#ffffff;stop-opacity:0;"
         offset="1"
         id="stop3271" />
    </linearGradient>
    <radialGradient
       r="56.542881"
       fy="7.457119"
       fx="108.53934"
       cy="7.457119"
       cx="108.53934"
       gradientTransform="matrix(-1.3703659,1.180354e-8,-1.2492802e-8,-1.4503877,228.44457,16.815712)"
       gradientUnits="userSpaceOnUse"
       id="radialGradient3176"
       xlink:href="#linearGradient3267"
       inkscape:collect="always" />
  </defs>
  <sodipodi:namedview
     id="base"
     pagecolor="#818181"
     bordercolor="#ffb1b1"
     borderopacity="1"
     inkscape:pageopacity="1"
     inkscape:pageshadow="2"
     inkscape:zoom="3.3193989"
     inkscape:cx="-21.757426"
     inkscape:cy="48.931174"
     inkscape:document-units="px"
     inkscape:current-layer="layer1"
     showgrid="true"
     showborder="true"
     inkscape:showpageshadow="false"
     inkscape:window-width="1920"
     inkscape:window-height="1030"
     inkscape:window-x="0"
     inkscape:window-y="22"
     inkscape:window-maximized="1"
     borderlayer="true">
    <inkscape:grid
       type="xygrid"
       id="grid3732"
       visible="true"
       enabled="true"
       empspacing="8"
       snapvisiblegridlinesonly="true" />
  </sodipodi:namedview>
  <metadata
     id="metadata2413">
    <rdf:RDF>
      <cc:Work
         rdf:about="">
        <dc:format>image/svg+xml</dc:format>
        <dc:type
           rdf:resource="http://purl.org/dc/dcmitype/StillImage" />
        <dc:title />
      </cc:Work>
    </rdf:RDF>
  </metadata>
  <g
     inkscape:groupmode="layer"
     id="layer2"
     inkscape:label="Blur Shadow"
     style="display:none"
     sodipodi:insensitive="true">
    <rect
       style="opacity:0.9;fill:url(#ButtonShadow);fill-opacity:1;fill-rule:nonzero;stroke:none;filter:url(#filter3174)"
       id="rect3745"
       width="86"
       height="85"
       x="5"
       y="7"
       rx="6"
       ry="6" />
  </g>
  <g
     inkscape:groupmode="layer"
     id="layer3"
     inkscape:label="Shadow"
     sodipodi:insensitive="true"
     style="display:inline">
    <path
       sodipodi:type="inkscape:offset"
       inkscape:radius="0.99097413"
       inkscape:original="M 12 -94.03125 C 7.028367 -94.03125 2.96875 -89.971633 2.96875 -85 L 2.96875 -14 C 2.96875 -9.0283671 7.0283671 -4.96875 12 -4.96875 L 84 -4.96875 C 88.971633 -4.96875 93.03125 -9.028367 93.03125 -14 L 93.03125 -85 C 93.03125 -89.971633 88.971633 -94.03125 84 -94.03125 L 12 -94.03125 z "
       style="opacity:0.07999998;fill:url(#linearGradient3026);fill-opacity:1;fill-rule:nonzero;stroke:none;display:inline"
       id="path3786"
       d="m 12,-95.03125 c -5.5110903,0 -10.03125,4.52016 -10.03125,10.03125 l 0,71 c 0,5.5110902 4.5201598,10.03125 10.03125,10.03125 l 72,0 c 5.51109,0 10.03125,-4.5201597 10.03125,-10.03125 l 0,-71 c 0,-5.51109 -4.52016,-10.03125 -10.03125,-10.03125 l -72,0 z"
       transform="scale(1,-1)" />
    <path
       sodipodi:type="inkscape:offset"
       inkscape:radius="1.0360184"
       inkscape:original="M 12 -93 C 7.5908667 -93 4 -89.409133 4 -85 L 4 -14 C 4 -9.5908667 7.5908667 -6 12 -6 L 84 -6 C 88.409133 -6 92 -9.5908667 92 -14 L 92 -85 C 92 -89.409133 88.409133 -93 84 -93 L 12 -93 z "
       style="opacity:0.1;fill:url(#linearGradient3780);fill-opacity:1;fill-rule:nonzero;stroke:none;display:inline"
       id="path3778"
       d="m 12,-94.03125 c -4.971633,0 -9.03125,4.059617 -9.03125,9.03125 l 0,71 c 0,4.9716329 4.0596171,9.03125 9.03125,9.03125 l 72,0 c 4.971633,0 9.03125,-4.059617 9.03125,-9.03125 l 0,-71 c 0,-4.971633 -4.059617,-9.03125 -9.03125,-9.03125 l -72,0 z"
       transform="scale(1,-1)" />
    <path
       sodipodi:type="inkscape:offset"
       inkscape:radius="0.98962283"
       inkscape:original="M 12 -92 C 8.122 -92 5 -88.878 5 -85 L 5 -14 C 5 -10.122 8.122 -7 12 -7 L 84 -7 C 87.878 -7 91 -10.122 91 -14 L 91 -85 C 91 -88.878 87.878 -92 84 -92 L 12 -92 z "
       style="opacity:0.2;fill:url(#linearGradient3772);fill-opacity:1;fill-rule:nonzero;stroke:none;display:inline"
       id="path3770"
       d="m 12,-93 c -4.4091333,0 -8,3.590867 -8,8 l 0,71 c 0,4.4091333 3.5908667,8 8,8 l 72,0 c 4.409133,0 8,-3.5908667 8,-8 l 0,-71 c 0,-4.409133 -3.590867,-8 -8,-8 l -72,0 z"
       transform="scale(1,-1)" />
    <rect
       style="opacity:0.3;fill:url(#linearGradient3725);fill-opacity:1;fill-rule:nonzero;stroke:none;display:inline"
       id="rect3723"
       width="86"
       height="85"
       x="5"
       y="-92"
       rx="7"
       ry="7"
       transform="scale(1,-1)" />
    <rect
       transform="scale(1,-1)"
       ry="6"
       rx="6"
       y="-91"
       x="6"
       height="84"
       width="84"
       id="rect3716"
       style="opacity:0.45;fill:url(#linearGradient3721);fill-opacity:1;fill-rule:nonzero;stroke:none;display:inline" />
  </g>
  <g
     inkscape:label="Button"
     inkscape:groupmode="layer"
     id="layer1">
    <rect
       style="fill:url(#linearGradient3104);fill-opacity:1;fill-rule:nonzero;stroke:none;display:inline"
       id="rect2419-4"
       width="84"
       height="84"
       x="6"
       y="6"
       rx="6"
       ry="6" />
    <path
       inkscape:connector-curvature="0"
       style="opacity:0.6;fill:url(#radialGradient3176);fill-opacity:1;stroke:none;display:inline"
       d="M 12.518008,6 C 8.907457,6 6,8.907457 6,12.518008 L 6,83.48199 C 6,87.09254 8.907457,90 12.518008,90 l 2.625,0 C 34.375142,80.05287 32.416227,41.238272 47.377118,35.253177 64.635974,28.348783 87.199787,33.261436 86.485167,6.73411 85.586524,6.268175 84.567903,6 83.48199,6 L 12.518008,6 z"
       id="path2491" />
    <path
       inkscape:connector-curvature="0"
       style="fill:url(#linearGradient3121);fill-opacity:1;fill-rule:nonzero;stroke:none;display:inline"
       d="M 12,6 C 8.676,6 6,8.676 6,12 l 0,72 c 0,3.324 2.676,6 6,6 l 72,0 c 3.324,0 6,-2.676 6,-6 L 90,12 C 90,8.676 87.324,6 84,6 z m 4,6 64,0 c 2.216,0 4,1.784 4,4 l 0,60 c 0,2.216 -1.784,4 -4,4 l -64,0 c -2.216,0 -4,-1.784 -4,-4 l 0,-60 c 0,-2.216 1.784,-4 4,-4 z"
       id="rect3668"
       sodipodi:nodetypes="ssssssssssssssssss" />
    <path
       style="opacity:0.2;fill:url(#radialGradient4375);fill-opacity:1;fill-rule:nonzero;stroke:none"
       d="M 120.78125,6.125 C 118.04223,6.6826484 116,9.0915 116,12 l 0,68 c 0,3.324 2.676,6 6,6 l 72,0 c 3.324,0 6,-2.676 6,-6 l 0,-68 c 0,-2.9085 -2.04223,-5.3173516 -4.78125,-5.875 2.20512,0.5362071 3.8125,2.4908437 3.8125,4.875 l 0,68 c 0,2.80489 -2.22636,5.03125 -5.03125,5.03125 l -72,0 c -2.80489,0 -5.03125,-2.22636 -5.03125,-5.03125 l 0,-68 c 0,-2.3841563 1.60738,-4.3387929 3.8125,-4.875 z"
       id="rect4359"
       inkscape:connector-curvature="0" />
    <path
       style="opacity:0.4;fill:url(#linearGradient4390);fill-opacity:1;fill-rule:nonzero;stroke:none"
       d="M 12,86 C 8.676,86 6,83.324 6,80 L 6,12 C 6,8.676 8.676,6 12,6 l 72,0 c 3.324,0 6,2.676 6,6 l 0,68 c 0,3.324 -2.676,6 -6,6 z m 0,-0.96875 72,0 c 2.80489,0 5.03125,-2.22636 5.03125,-5.03125 l 0,-68 C 89.03125,9.19511 86.80489,6.96875 84,6.96875 l -72,0 C 9.1951102,6.96875 6.96875,9.19511 6.96875,12 l 0,68 c 0,2.80489 2.2263602,5.03125 5.03125,5.03125 z"
       id="rect4377"
       inkscape:connector-curvature="0"
       sodipodi:nodetypes="ssssssssssssssssss" />
    <path
       style="opacity:0.2;fill:url(#linearGradient4429);fill-opacity:1;fill-rule:nonzero;stroke:none"
       d="m 6,78 0,2 c 0,3.324 2.676,6 6,6 l 72,0 c 3.324,0 6,-2.676 6,-6 l 0,-2 c 0,3.324 -2.676,6 -6,6 L 12,84 C 8.676,84 6,81.324 6,78 z"
       id="rect4414"
       inkscape:connector-curvature="0" />
    <path
       id="path4412"
       d="m 6,100 0,1 c 0,3.324 2.676,6 6,6 l 72,0 c 3.324,0 6,-2.676 6,-6 l 0,-1 c 0,3.324 -2.676,6 -6,6 l -72,0 c -3.324,0 -6,-2.676 -6,-6 z"
       style="opacity:0.15;fill:#000000;fill-opacity:1;fill-rule:nonzero;stroke:none"
       inkscape:connector-curvature="0" />
    <path
       sodipodi:type="inkscape:offset"
       inkscape:radius="0.96398968"
       inkscape:original="M 23.6875 15.9375 C 21.95558 16.165434 21.762254 18.054477 21.90625 19.4375 C 21.92707 35.987575 21.86461 52.565247 21.9375 69.09375 C 22.214302 70.944018 24.880901 71.410956 25.78125 69.78125 L 36.6875 56.71875 C 41.477134 67.515622 46.199714 78.35417 51.03125 89.125 C 52.145367 90.7033 54.266676 89.83131 55.875 90 C 60.734535 89.85889 65.620557 89.84961 70.46875 89.625 C 72.107515 89.12627 72.331668 86.91814 71.125 85.84375 L 46.90625 50.75 C 53.216668 50.7486 59.543635 50.923869 65.84375 50.8125 C 67.675493 50.412542 67.914566 47.72835 66.3125 46.90625 C 52.526856 36.675339 38.785683 26.366515 24.96875 16.1875 C 24.587654 15.923029 24.130135 15.924156 23.6875 15.9375 z "
       style="opacity:0.1;fill:url(#linearGradient3159);fill-opacity:1;fill-rule:evenodd;stroke:none;display:inline"
       id="path3738"
       d="m 23.5625,14.96875 c -1.202928,0.158315 -2.045014,1.068148 -2.375,1.96875 -0.318168,0.86835 -0.322975,1.73697 -0.25,2.5 3.9e-5,0.03124 -3.9e-5,0.06251 0,0.09375 0.02046,16.515719 -0.04153,33.059941 0.03125,49.5625 a 0.96408607,0.96408607 0 0 0 0,0.15625 c 0.39765,2.65807 4.118918,3.328084 5.53125,1.125 l 0.03125,0.03125 9.90625,-11.875 c 4.574934,10.328001 9.094307,20.690838 13.71875,31 A 0.96408607,0.96408607 0 0 0 50.25,89.6875 c 0.771525,1.092971 2.030534,1.374568 3.03125,1.375 1.000716,4.32e-4 1.910948,-0.155533 2.5,-0.09375 a 0.96408607,0.96408607 0 0 0 0.125,0 c 4.842021,-0.140601 9.716874,-0.149061 14.59375,-0.375 a 0.96408607,0.96408607 0 0 0 0.25,-0.03125 c 1.186773,-0.361174 1.907694,-1.415605 2.0625,-2.46875 0.145441,-0.989433 -0.149075,-2.044594 -0.90625,-2.8125 L 71.78125,85.125 48.75,51.71875 c 5.687479,0.02585 11.410817,0.163511 17.125,0.0625 A 0.96408607,0.96408607 0 0 0 66.0625,51.75 c 2.644198,-0.577356 3.033788,-4.294477 0.78125,-5.59375 L 66.875,46.125 C 53.092033,35.896076 39.352689,25.588584 25.53125,15.40625 c -0.679045,-0.47124 -1.414001,-0.451398 -1.875,-0.4375 a 0.96408607,0.96408607 0 0 0 -0.09375,0 z"
       transform="translate(0,-2)" />
    <path
       inkscape:connector-curvature="0"
       style="opacity:0.15;fill:url(#linearGradient3732);fill-opacity:1;fill-rule:evenodd;stroke:none;display:inline"
       d="m 23.6875,13.9375 c -1.73192,0.227934 -1.925246,2.11008 -1.78125,3.493103 0.02082,16.550075 -0.04164,33.134644 0.03125,49.663147 0.276802,1.850268 2.953677,2.323754 3.854026,0.694048 3.631991,-4.356349 7.263983,-8.712699 10.895974,-13.069048 4.789634,10.796872 9.512214,21.63542 14.34375,32.40625 1.114117,1.5783 3.243473,0.70161 4.851797,0.8703 4.859535,-0.14111 9.73751,-0.14599 14.585703,-0.3706 1.638765,-0.49873 1.862923,-2.70166 0.656255,-3.77605 C 63.052087,72.14907 54.979168,60.449485 46.90625,48.7499 c 6.310418,-0.0014 12.637385,0.173869 18.9375,0.0625 1.831743,-0.399958 2.065166,-3.078947 0.4631,-3.901047 C 52.521206,34.680442 38.785683,24.366415 24.96875,14.1874 24.587654,13.922929 24.130135,13.924156 23.6875,13.9375 z"
       id="path3724" />
    <path
       sodipodi:type="inkscape:offset"
       inkscape:radius="0.99209595"
       inkscape:original="M 24 38 L 24 88.75 L 37.28125 72.84375 L 52.78125 108 L 69.84375 107.625 L 42.9375 68.59375 L 65.34375 68.78125 L 24 38 z "
       style="opacity:0.3;fill:url(#linearGradient3717);fill-opacity:1;fill-rule:evenodd;stroke:none;display:inline"
       id="path3715"
       d="M 23.9375,37 A 0.99219516,0.99219516 0 0 0 23,38 l 0,50.75 a 0.99219516,0.99219516 0 0 0 1.75,0.625 L 37,74.6875 51.875,108.40625 A 0.99219516,0.99219516 0 0 0 52.8125,109 l 17.0625,-0.375 a 0.99219516,0.99219516 0 0 0 0.78125,-1.5625 l -25.8125,-37.4375 20.5,0.15625 A 0.99219516,0.99219516 0 0 0 65.9375,68 L 24.59375,37.21875 A 0.99219516,0.99219516 0 0 0 23.9375,37 z"
       transform="translate(1.4739349e-7,-22)" />
    <path
       inkscape:connector-curvature="0"
       style="fill:url(#linearGradient2907);fill-opacity:1;fill-rule:evenodd;stroke:none;display:inline"
       d="M 69.84554,85.630006 42.951853,46.587706 65.329341,46.776328 24,16.00893 24,66.74845 37.266467,50.841265 52.775263,86.00893 69.84554,85.630006 z"
       id="path3277"
       sodipodi:nodetypes="cccccccc" />
  </g>
  <g
     inkscape:groupmode="layer"
     id="layer4"
     inkscape:label="Bottom Edge"
     style="display:inline"
     sodipodi:insensitive="true">
    <path
       inkscape:connector-curvature="0"
       id="path3888"
       d="m 6,80 0,4 c 0,3.324 2.676,6 6,6 l 72,0 c 3.324,0 6,-2.676 6,-6 l 0,-4 c 0,3.324 -2.676,6 -6,6 L 12,86 C 8.676,86 6,83.324 6,80 z"
       style="fill:url(#linearGradient3228);fill-opacity:1;fill-rule:nonzero;stroke:none;display:inline" />
    <path
       style="opacity:0.1;color:#000000;fill:#000000;fill-opacity:1;fill-rule:nonzero;stroke:none;stroke-width:1.5;marker:none;visibility:visible;display:inline;overflow:visible;enable-background:accumulate"
       d="m 6,82 0,2 c 0,3.324 2.676,6 6,6 l 72,0 c 3.324,0 6,-2.676 6,-6 l 0,-2 c 0,3.324 -2.676,6 -6,6 L 12,88 C 8.676,88 6,85.324 6,82 z"
       id="rect4345"
       inkscape:connector-curvature="0" />
    <path
       style="opacity:0.15;color:#000000;fill:#000000;fill-opacity:1;fill-rule:nonzero;stroke:none;stroke-width:1.5;marker:none;visibility:visible;display:inline;overflow:visible;enable-background:accumulate"
       d="m 6,83 0,1 c 0,3.324 2.676,6 6,6 l 72,0 c 3.324,0 6,-2.676 6,-6 l 0,-1 c 0,3.324 -2.676,6 -6,6 L 12,89 C 8.676,89 6,86.324 6,83 z"
       id="rect4336"
       inkscape:connector-curvature="0" />
  </g>
  <g
     inkscape:groupmode="layer"
     id="layer5"
     inkscape:label="Highlight"
     sodipodi:insensitive="true"
     style="display:inline">
    <rect
       style="opacity:0.1;fill:url(#linearGradient3613);fill-opacity:1;fill-rule:nonzero;stroke:#ffffff;stroke-width:0.5;stroke-linecap:round;stroke-linejoin:miter;stroke-miterlimit:4;stroke-opacity:1;stroke-dasharray:none;stroke-dashoffset:0;filter:url(#filter3794)"
       id="rect3171"
       width="66"
       height="62"
       x="15"
       y="15"
       rx="12"
       ry="12"
       clip-path="url(#clipPath4355)" />
  </g>
  <g
     inkscape:groupmode="layer"
     id="layer6"
     inkscape:label="Symbol"
     sodipodi:insensitive="true" />
</svg>
