<?xml version="1.0" encoding="UTF-8" standalone="no"?>
<svg
   xmlns:dc="http://purl.org/dc/elements/1.1/"
   xmlns:cc="http://creativecommons.org/ns#"
   xmlns:rdf="http://www.w3.org/1999/02/22-rdf-syntax-ns#"
   xmlns:svg="http://www.w3.org/2000/svg"
   xmlns="http://www.w3.org/2000/svg"
   xmlns:xlink="http://www.w3.org/1999/xlink"
   xmlns:sodipodi="http://sodipodi.sourceforge.net/DTD/sodipodi-0.dtd"
   xmlns:inkscape="http://www.inkscape.org/namespaces/inkscape"
   width="96"
   height="96"
   version="1.1"
   id="svg77"
   sodipodi:docname="cherrytree.svg"
   inkscape:version="0.92.2 5c3e80d, 2017-08-06">
  <metadata
     id="metadata81">
    <rdf:RDF>
      <cc:Work
         rdf:about="">
        <dc:format>image/svg+xml</dc:format>
        <dc:type
           rdf:resource="http://purl.org/dc/dcmitype/StillImage" />
      </cc:Work>
    </rdf:RDF>
  </metadata>
  <sodipodi:namedview
     pagecolor="#ffffff"
     bordercolor="#666666"
     borderopacity="1"
     objecttolerance="10"
     gridtolerance="10"
     guidetolerance="10"
     inkscape:pageopacity="0"
     inkscape:pageshadow="2"
     inkscape:window-width="640"
     inkscape:window-height="480"
     id="namedview79"
     showgrid="false"
     inkscape:zoom="2.4583333"
     inkscape:cx="48"
     inkscape:cy="48"
     inkscape:window-x="0"
     inkscape:window-y="25"
     inkscape:window-maximized="0"
     inkscape:current-layer="svg77" />
  <defs
     id="defs2410">
    <linearGradient
       id="linearGradient4384">
      <stop
         id="stop4386"
         stop-color="#fff"
         offset="0" />
      <stop
         id="stop4388"
         stop-color="#fff"
         stop-opacity="0"
         offset="1" />
    </linearGradient>
    <filter
       id="filter3794"
       x="-.192"
       y="-.192"
       width="1.384"
       height="1.384">
      <feGaussianBlur
         id="feGaussianBlur3796"
         stdDeviation="5.28" />
    </filter>
    <linearGradient
       id="linearGradient3613"
       x1="48"
       x2="48"
       y1="20.221"
       y2="138.66"
       gradientUnits="userSpaceOnUse">
      <stop
         id="stop3739"
         stop-color="#fff"
         offset="0" />
      <stop
         id="stop3741"
         stop-color="#fff"
         stop-opacity="0"
         offset="1" />
    </linearGradient>
    <linearGradient
       id="buttonGradient"
       x1="48"
       x2="48"
       y1="90"
       y2="5.9877"
       gradientUnits="userSpaceOnUse">
      <stop
         id="stop3702"
         stop-color="#860000"
         offset="0" />
      <stop
         id="stop3704"
         stop-color="#b90909"
         offset="1" />
    </linearGradient>
    <linearGradient
       id="ButtonShadow-0"
       x1="45.448"
       x2="45.448"
       y1="92.54"
       y2="7.0165"
       gradientTransform="matrix(1.0059 0 0 .99417 100 0)"
       gradientUnits="userSpaceOnUse">
      <stop
         id="stop3750-8"
         offset="0" />
      <stop
         id="stop3752-5"
         stop-opacity=".58824"
         offset="1" />
    </linearGradient>
    <linearGradient
       id="linearGradient3780"
       x1="32.251"
       x2="32.251"
       y1="6.1317"
       y2="90.239"
       gradientTransform="matrix(1.0238 0 0 1.0119 -1.1429 -98.071)"
       gradientUnits="userSpaceOnUse"
       xlink:href="#ButtonShadow-0" />
    <linearGradient
       id="linearGradient3721"
       x1="32.251"
       x2="32.251"
       y1="6.1317"
       y2="90.239"
       gradientTransform="translate(0,-97)"
       gradientUnits="userSpaceOnUse"
       xlink:href="#ButtonShadow-0" />
    <clipPath
       id="clipPath4355">
      <rect
         id="rect4357"
         x="6"
         y="6"
         width="84"
         height="80"
         rx="6"
         ry="6"
         fill="#fff" />
    </clipPath>
    <linearGradient
       id="linearGradient4390"
       x1="48"
       x2="48"
       y1="88"
       y2="-40"
       gradientTransform="matrix(1,0,0,-1,0,92)"
       gradientUnits="userSpaceOnUse"
       xlink:href="#linearGradient4384" />
    <linearGradient
       id="linearGradient4429"
       x1="48"
       x2="112.12"
       y1="82"
       y2="82.455"
       gradientUnits="userSpaceOnUse"
       spreadMethod="reflect"
       xlink:href="#linearGradient4384" />
    <linearGradient
       id="linearGradient3228"
       x1="90"
       x2="48"
       y1="88"
       y2="88"
       gradientUnits="userSpaceOnUse"
       spreadMethod="reflect">
      <stop
         id="stop3894"
         stop-opacity=".58824"
         offset="0" />
      <stop
         id="stop3896"
         stop-opacity=".47059"
         offset=".1178" />
      <stop
         id="stop3898"
         stop-opacity=".39216"
         offset=".2381" />
      <stop
         id="stop3900"
         stop-opacity=".31373"
         offset="1" />
    </linearGradient>
  </defs>
  <g
     id="layer3">
    <g
       id="g32"
       fill="url(#linearGradient3780)">
      <path
         id="path3786"
         transform="scale(1,-1)"
         d="m12-95.021c-5.5111 0-10.022 4.51-10.022 10.021v71c0 5.5111 4.5104 10.021 10.021 10.021h72c5.5111 0 10.021-4.5104 10.021-10.021v-71c0-5.5111-4.5104-10.021-10.021-10.021h-72z"
         opacity=".08" />
      <path
         id="path3778"
         transform="scale(1,-1)"
         d="m12-94.035c-4.9716 0-9.0352 4.0635-9.0352 9.0352v71c0 4.9716 4.0635 9.0352 9.0352 9.0352h72c4.9716 0 9.0352-4.0635 9.0352-9.0352v-71c0-4.9716-4.0635-9.0352-9.0352-9.0352h-72z"
         opacity=".1" />
      <path
         id="path3770"
         transform="scale(1,-1)"
         d="m12-92.99c-4.4091 0-7.9902 3.5811-7.9902 7.9902v71c0 4.4091 3.5811 7.9902 7.9902 7.9902h72c4.4091 0 7.9902-3.5811 7.9902-7.9902v-71c0-4.4091-3.5811-7.9902-7.9902-7.9902h-72z"
         opacity=".2" />
      <rect
         id="rect3723"
         transform="scale(1,-1)"
         x="5"
         y="-92"
         width="86"
         height="85"
         rx="7"
         ry="7"
         opacity=".3" />
    </g>
    <rect
       id="rect3716"
       transform="scale(1,-1)"
       x="6"
       y="-91"
       width="84"
       height="84"
       rx="6"
       ry="6"
       fill="url(#linearGradient3721)"
       opacity=".45" />
  </g>
  <g
     id="layer1">
    <rect
       id="button"
       x="6"
       y="6"
       width="84"
       height="84"
       rx="6"
       ry="6"
       fill="url(#buttonGradient)" />
    <path
       id="rect4377"
       d="m12 86c-3.324 0-6-2.676-6-6v-68c0-3.324 2.676-6 6-6h72c3.324 0 6 2.676 6 6v68c0 3.324-2.676 6-6 6zm0-0.96875h72c2.8049 0 5.0312-2.2264 5.0312-5.0312v-68c0-2.8049-2.226-5.0312-5.031-5.0312h-72c-2.8049 0-5.0312 2.2263-5.0312 5.0312v68c0 2.8049 2.2264 5.0312 5.0312 5.0312z"
       fill="url(#linearGradient4390)"
       opacity=".3" />
    <path
       id="rect4414"
       d="m6 78v2c0 3.324 2.676 6 6 6h72c3.324 0 6-2.676 6-6v-2c0 3.324-2.676 6-6 6h-72c-3.324 0-6-2.676-6-6z"
       fill="url(#linearGradient4429)"
       opacity=".1" />
  </g>
  <g
     id="layer4">
    <path
       id="path3888"
       d="m6 80v4c0 3.324 2.676 6 6 6h72c3.324 0 6-2.676 6-6v-4c0 3.324-2.676 6-6 6h-72c-3.324 0-6-2.676-6-6z"
       fill="url(#linearGradient3228)" />
    <path
       id="rect4345"
       d="m6 82v2c0 3.324 2.676 6 6 6h72c3.324 0 6-2.676 6-6v-2c0 3.324-2.676 6-6 6h-72c-3.324 0-6-2.676-6-6z"
       color="#000000"
       opacity=".1" />
    <path
       id="rect4336"
       d="m6 83v1c0 3.324 2.676 6 6 6h72c3.324 0 6-2.676 6-6v-1c0 3.324-2.676 6-6 6h-72c-3.324 0-6-2.676-6-6z"
       color="#000000"
       opacity=".15" />
  </g>
  <g
     id="layer5">
    <rect
       id="rect3171"
       x="15"
       y="15"
       width="66"
       height="62"
       rx="12"
       ry="12"
       clip-path="url(#clipPath4355)"
       fill="url(#linearGradient3613)"
       filter="url(#filter3794)"
       opacity=".1"
       stroke="#fff"
       stroke-linecap="round"
       stroke-width=".5" />
  </g>
  <defs
     id="defs53">
    <filter
       id="w">
      <feGaussianBlur
         stdDeviation="0.23199685"
         id="feGaussianBlur45" />
    </filter>
    <linearGradient
       id="a"
       gradientUnits="userSpaceOnUse"
       x1="8"
       y1="1"
       x2="8"
       y2="15">
      <stop
         stop-color="#fafafa"
         offset="0"
         id="stop48" />
      <stop
         stop-color="#ebebeb"
         offset="1"
         id="stop50" />
    </linearGradient>
  </defs>
  <g
     transform="translate(0,-2)"
     id="g75">
    <path
       style="opacity:0.15;fill:#000000"
       d="m 6.9375,0.75 c -0.3624242,0 -0.6856131,0.14207084 -0.8535156,0.4160156 -0.1679026,0.2739448 -0.1743289,0.6254675 -0.072266,1.0136719 0.1403695,0.5339069 0.033589,0.8961879 -0.4785157,1.5 C 5.4762584,3.7468297 5.0998408,4.1442563 4.7421875,4.5078125 4.3800992,4.8758565 4.0039397,5.2710494 3.8710938,5.4316406 3.1002503,6.3633897 2.7236937,7.2901302 2.6777344,8.3886719 L 2.6601562,8.8125 a 0.250025,0.250025 0 0 0 0.1582032,0.2421875 l 0.087891,0.035156 c 0.073434,0.029488 0.1205819,0.032789 0.1875,0.042969 0.066918,0.010179 0.1412854,0.019434 0.2148438,0.023437 0.3054392,0.01683 0.59918,-0.048372 0.8535156,-0.1933594 L 4.2890625,8.890625 A 0.250025,0.250025 0 0 0 4.4160156,8.6953125 L 4.4375,8.4355469 C 4.5359113,7.2446367 5.0637588,6.2487908 5.9707031,5.5390625 6.0808867,5.4528345 6.2726605,5.3155385 6.4335938,5.2070312 c 0.029798,-0.020091 0.049095,-0.031011 0.076172,-0.048828 0.073614,0.1313836 0.1723088,0.3086405 0.28125,0.5039063 0.5799085,1.0393817 1.015677,1.7299362 1.4707032,2.3242187 0.122424,0.159891 0.307351,0.3682249 0.4863281,0.5566407 0.178977,0.1884157 0.3267441,0.3398876 0.4589843,0.4316406 0.096877,0.067216 0.146207,0.071977 0.234375,0.097656 0.088168,0.025679 0.1925289,0.050748 0.3027344,0.072266 0.1001658,0.019547 0.1974982,0.037318 0.2734374,0.050781 0.03797,0.00673 0.07106,0.011419 0.09766,0.015625 0.0266,0.00421 0.02937,0.00801 0.07617,0.00977 0.09893,0.00408 0.1318,-0.023091 0.166016,-0.041016 0.03459,-0.018124 0.06329,-0.037607 0.0918,-0.058594 0.05702,-0.041974 0.113245,-0.09156 0.167969,-0.1445313 0.05472,-0.052971 0.106511,-0.108414 0.15039,-0.1640625 0.02194,-0.027824 0.04326,-0.05605 0.0625,-0.089844 0.01924,-0.033794 0.04687,-0.064832 0.04687,-0.1640624 0,-0.058098 -0.02136,-0.1343927 -0.05273,-0.1875 -0.03138,-0.053107 -0.06791,-0.093895 -0.113281,-0.140625 C 10.620194,8.1370086 10.48281,8.0159013 10.244141,7.8066406 9.6126676,7.2529035 8.962868,6.4329196 8.5273438,5.6386719 8.1067185,4.8715187 7.8049429,3.9443715 7.6894531,3.0644531 7.6695231,2.9117942 7.656212,2.5691965 7.65625,2.25 7.656288,1.9308035 7.6770052,1.597686 7.6875,1.5449219 7.7180568,1.3921715 7.7122344,1.2403674 7.6640625,1.1269531 V 1.125 C 7.5405965,0.83939473 7.2395331,0.75 6.9375,0.75 Z m 5.828125,8.0664062 C 12.20531,8.7989812 11.635195,9.0027335 11.136719,9.40625 l -0.05469,0.042969 -0.101562,-0.015625 c -0.542471,-0.082691 -1.1758403,0.017254 -1.6250002,0.2695312 -0.8534733,0.479332 -1.2542925,1.525416 -1.0703126,2.628906 0.2487916,1.492212 1.4353164,2.635712 2.9628908,2.867188 0.368197,0.05528 0.971065,0.02461 1.333984,-0.06641 0.612786,-0.153595 1.136048,-0.435989 1.583985,-0.855468 C 14.875175,13.613277 15.25,12.766964 15.25,11.814453 15.25,10.928421 14.915385,10.088588 14.318359,9.5078125 13.869908,9.071607 13.325697,8.8338238 12.765625,8.8164062 Z M 5.7597656,9 C 5.467907,8.9399452 5.0563573,8.9446527 4.7636719,9.0117188 4.4854964,9.0755197 4.1376022,9.2305516 3.8984375,9.390625 L 3.8496094,9.421875 3.7363281,9.3945312 C 3.5478529,9.3475895 3.3552893,9.3329595 3.0429688,9.3339844 2.6710746,9.3351974 2.532888,9.3543781 2.3105469,9.4296875 1.3779687,9.7456126 0.81398071,10.575099 0.75390625,11.666016 c -0.0956623,1.737413 1.21218355,3.297037 2.97070315,3.5625 0.1519223,0.02288 0.4002633,0.02583 0.6386718,0.01953 C 5.306342,15.223992 6.117357,14.875508 6.7734375,14.210938 7.1938758,13.785044 7.4616272,13.332719 7.6425781,12.75 7.7211237,12.495978 7.7391991,12.372506 7.7402344,11.859375 7.7418879,11.365316 7.7282751,11.22386 7.6601562,10.986328 7.3668364,9.9637948 6.649336,9.1830699 5.7597656,9 Z"
       id="path55"
       inkscape:original="M 6.9375 1 C 6.3267 1 6.0705862 1.4179644 6.2539062 2.1152344 C 6.4125462 2.7186344 6.2628594 3.2071569 5.7246094 3.8417969 C 5.6413494 3.9399669 5.2792219 4.3183637 4.9199219 4.6835938 C 4.5606119 5.0488138 4.1751531 5.4579769 4.0644531 5.5917969 C 3.3188831 6.4929969 2.9716294 7.3492375 2.9277344 8.3984375 L 2.9101562 8.8222656 L 3 8.8574219 C 3.04881 8.8770219 3.1936556 8.89925 3.3222656 8.90625 C 3.5846856 8.92071 3.8285425 8.8661038 4.0390625 8.7460938 L 4.1660156 8.6738281 L 4.1875 8.4140625 C 4.2911 7.1603625 4.8564663 6.0929969 5.8164062 5.3417969 C 6.0563162 5.1540469 6.5887125 4.795 6.6015625 4.8125 C 6.6055425 4.81794 6.7891056 5.1455056 7.0097656 5.5410156 C 7.5866156 6.5749156 8.0157675 7.2525744 8.4609375 7.8339844 C 8.6842075 8.1255844 9.1920794 8.6602313 9.3496094 8.7695312 C 9.3977194 8.8029113 9.5865688 8.8581375 9.7929688 8.8984375 C 9.9907688 8.9370375 10.174442 8.9697031 10.201172 8.9707031 C 10.280892 8.9745131 10.626953 8.6394937 10.626953 8.5585938 C 10.626953 8.4832937 10.555978 8.4114006 10.080078 7.9941406 C 9.4212781 7.4164406 8.7594237 6.5819256 8.3085938 5.7597656 C 7.8716037 4.9627656 7.5612262 4.0105663 7.4414062 3.0976562 C 7.3939112 2.7338562 7.3942213 1.7333238 7.4414062 1.4960938 C 7.4691583 1.3573637 7.4671057 1.3026094 7.4335938 1.2246094 C 7.3752838 1.0887794 7.17868 1 6.9375 1 z M 12.757812 9.0664062 C 12.262456 9.0510013 11.753347 9.2285144 11.294922 9.5996094 L 11.154297 9.7128906 L 10.943359 9.6816406 C 10.466039 9.6088806 9.8571756 9.709195 9.4785156 9.921875 C 8.7315756 10.341375 8.36099 11.269816 8.53125 12.291016 C 8.76235 13.677116 9.8582563 14.734952 11.285156 14.951172 C 11.58493 14.99618 12.224872 14.965008 12.521484 14.890625 C 13.097744 14.746185 13.577714 14.487503 13.996094 14.095703 C 14.661184 13.472903 15 12.703443 15 11.814453 C 15 10.991553 14.688291 10.21646 14.144531 9.6875 C 13.735281 9.289425 13.253169 9.0818112 12.757812 9.0664062 z M 5.7089844 9.2441406 C 5.4825144 9.1975406 5.0503025 9.2031594 4.8203125 9.2558594 C 4.5924125 9.3081294 4.2369594 9.4638962 4.0371094 9.5976562 L 3.8945312 9.6914062 L 3.6757812 9.6367188 C 3.5135713 9.5963187 3.3476988 9.5829844 3.0429688 9.5839844 C 2.6750587 9.5851844 2.602605 9.5942156 2.390625 9.6660156 C 1.549925 9.9508156 1.0599323 10.662287 1.0039062 11.679688 C 0.91560625 13.283387 2.1282187 14.733879 3.7617188 14.980469 C 3.8626488 14.995669 4.1303419 15.004047 4.3574219 14.998047 C 5.2446219 14.975417 5.9798131 14.659016 6.5957031 14.035156 C 6.9926331 13.633076 7.2326769 13.228451 7.4042969 12.675781 C 7.4810919 12.427421 7.4892044 12.369895 7.4902344 11.859375 C 7.4918794 11.367855 7.4846849 11.280518 7.4199219 11.054688 C 7.1472219 10.104037 6.4847044 9.4037806 5.7089844 9.2441406 z "
       transform="matrix(4,0,0,4,16,17)"
       inkscape:radius="0.25"
       sodipodi:type="inkscape:offset" />
    <g
       id="Bevel1">
      <path
         fill="#000"
         opacity=".10"
         sodipodi:type="inkscape:offset"
         inkscape:radius="0.5"
         transform="translate(16,17) scale(4)"
         inkscape:original="M 6.9375 1 C 6.3267 1 6.0705862 1.4179644 6.2539062 2.1152344 C 6.4125462 2.7186344 6.2628594 3.2071569 5.7246094 3.8417969 C 5.6413494 3.9399669 5.2792219 4.3183637 4.9199219 4.6835938 C 4.5606119 5.0488138 4.1751531 5.4579769 4.0644531 5.5917969 C 3.3188831 6.4929969 2.9716294 7.3492375 2.9277344 8.3984375 L 2.9101562 8.8222656 L 3 8.8574219 C 3.04881 8.8770219 3.1936556 8.89925 3.3222656 8.90625 C 3.5846856 8.92071 3.8285425 8.8661038 4.0390625 8.7460938 L 4.1660156 8.6738281 L 4.1875 8.4140625 C 4.2911 7.1603625 4.8564663 6.0929969 5.8164062 5.3417969 C 6.0563162 5.1540469 6.5887125 4.795 6.6015625 4.8125 C 6.6055425 4.81794 6.7891056 5.1455056 7.0097656 5.5410156 C 7.5866156 6.5749156 8.0157675 7.2525744 8.4609375 7.8339844 C 8.6842075 8.1255844 9.1920794 8.6602313 9.3496094 8.7695312 C 9.3977194 8.8029113 9.5865688 8.8581375 9.7929688 8.8984375 C 9.9907688 8.9370375 10.174442 8.9697031 10.201172 8.9707031 C 10.280892 8.9745131 10.626953 8.6394937 10.626953 8.5585938 C 10.626953 8.4832937 10.555978 8.4114006 10.080078 7.9941406 C 9.4212781 7.4164406 8.7594237 6.5819256 8.3085938 5.7597656 C 7.8716037 4.9627656 7.5612262 4.0105663 7.4414062 3.0976562 C 7.3939112 2.7338562 7.3942213 1.7333238 7.4414062 1.4960938 C 7.4691583 1.3573637 7.4671057 1.3026094 7.4335938 1.2246094 C 7.3752838 1.0887794 7.17868 1 6.9375 1 z M 12.757812 9.0664062 C 12.262456 9.0510013 11.753347 9.2285144 11.294922 9.5996094 L 11.154297 9.7128906 L 10.943359 9.6816406 C 10.466039 9.6088806 9.8571756 9.709195 9.4785156 9.921875 C 8.7315756 10.341375 8.36099 11.269816 8.53125 12.291016 C 8.76235 13.677116 9.8582563 14.734952 11.285156 14.951172 C 11.58493 14.99618 12.224872 14.965008 12.521484 14.890625 C 13.097744 14.746185 13.577714 14.487503 13.996094 14.095703 C 14.661184 13.472903 15 12.703443 15 11.814453 C 15 10.991553 14.688291 10.21646 14.144531 9.6875 C 13.735281 9.289425 13.253169 9.0818112 12.757812 9.0664062 z M 5.7089844 9.2441406 C 5.4825144 9.1975406 5.0503025 9.2031594 4.8203125 9.2558594 C 4.5924125 9.3081294 4.2369594 9.4638962 4.0371094 9.5976562 L 3.8945312 9.6914062 L 3.6757812 9.6367188 C 3.5135713 9.5963187 3.3476988 9.5829844 3.0429688 9.5839844 C 2.6750587 9.5851844 2.602605 9.5942156 2.390625 9.6660156 C 1.549925 9.9508156 1.0599323 10.662287 1.0039062 11.679688 C 0.91560625 13.283387 2.1282187 14.733879 3.7617188 14.980469 C 3.8626488 14.995669 4.1303419 15.004047 4.3574219 14.998047 C 5.2446219 14.975417 5.9798131 14.659016 6.5957031 14.035156 C 6.9926331 13.633076 7.2326769 13.228451 7.4042969 12.675781 C 7.4810919 12.427421 7.4892044 12.369895 7.4902344 11.859375 C 7.4918794 11.367855 7.4846849 11.280518 7.4199219 11.054688 C 7.1472219 10.104037 6.4847044 9.4037806 5.7089844 9.2441406 z "
         id="path58" />
    </g>
    <g
       id="Bevel2">
      <path
         fill="#000"
         opacity=".05"
         sodipodi:type="inkscape:offset"
         inkscape:radius="0.75"
         transform="translate(16,17) scale(4)"
         inkscape:original="M 6.9375 1 C 6.3267 1 6.0705862 1.4179644 6.2539062 2.1152344 C 6.4125462 2.7186344 6.2628594 3.2071569 5.7246094 3.8417969 C 5.6413494 3.9399669 5.2792219 4.3183637 4.9199219 4.6835938 C 4.5606119 5.0488138 4.1751531 5.4579769 4.0644531 5.5917969 C 3.3188831 6.4929969 2.9716294 7.3492375 2.9277344 8.3984375 L 2.9101562 8.8222656 L 3 8.8574219 C 3.04881 8.8770219 3.1936556 8.89925 3.3222656 8.90625 C 3.5846856 8.92071 3.8285425 8.8661038 4.0390625 8.7460938 L 4.1660156 8.6738281 L 4.1875 8.4140625 C 4.2911 7.1603625 4.8564663 6.0929969 5.8164062 5.3417969 C 6.0563162 5.1540469 6.5887125 4.795 6.6015625 4.8125 C 6.6055425 4.81794 6.7891056 5.1455056 7.0097656 5.5410156 C 7.5866156 6.5749156 8.0157675 7.2525744 8.4609375 7.8339844 C 8.6842075 8.1255844 9.1920794 8.6602313 9.3496094 8.7695312 C 9.3977194 8.8029113 9.5865688 8.8581375 9.7929688 8.8984375 C 9.9907688 8.9370375 10.174442 8.9697031 10.201172 8.9707031 C 10.280892 8.9745131 10.626953 8.6394937 10.626953 8.5585938 C 10.626953 8.4832937 10.555978 8.4114006 10.080078 7.9941406 C 9.4212781 7.4164406 8.7594237 6.5819256 8.3085938 5.7597656 C 7.8716037 4.9627656 7.5612262 4.0105663 7.4414062 3.0976562 C 7.3939112 2.7338562 7.3942213 1.7333238 7.4414062 1.4960938 C 7.4691583 1.3573637 7.4671057 1.3026094 7.4335938 1.2246094 C 7.3752838 1.0887794 7.17868 1 6.9375 1 z M 12.757812 9.0664062 C 12.262456 9.0510013 11.753347 9.2285144 11.294922 9.5996094 L 11.154297 9.7128906 L 10.943359 9.6816406 C 10.466039 9.6088806 9.8571756 9.709195 9.4785156 9.921875 C 8.7315756 10.341375 8.36099 11.269816 8.53125 12.291016 C 8.76235 13.677116 9.8582563 14.734952 11.285156 14.951172 C 11.58493 14.99618 12.224872 14.965008 12.521484 14.890625 C 13.097744 14.746185 13.577714 14.487503 13.996094 14.095703 C 14.661184 13.472903 15 12.703443 15 11.814453 C 15 10.991553 14.688291 10.21646 14.144531 9.6875 C 13.735281 9.289425 13.253169 9.0818112 12.757812 9.0664062 z M 5.7089844 9.2441406 C 5.4825144 9.1975406 5.0503025 9.2031594 4.8203125 9.2558594 C 4.5924125 9.3081294 4.2369594 9.4638962 4.0371094 9.5976562 L 3.8945312 9.6914062 L 3.6757812 9.6367188 C 3.5135713 9.5963187 3.3476988 9.5829844 3.0429688 9.5839844 C 2.6750587 9.5851844 2.602605 9.5942156 2.390625 9.6660156 C 1.549925 9.9508156 1.0599323 10.662287 1.0039062 11.679688 C 0.91560625 13.283387 2.1282187 14.733879 3.7617188 14.980469 C 3.8626488 14.995669 4.1303419 15.004047 4.3574219 14.998047 C 5.2446219 14.975417 5.9798131 14.659016 6.5957031 14.035156 C 6.9926331 13.633076 7.2326769 13.228451 7.4042969 12.675781 C 7.4810919 12.427421 7.4892044 12.369895 7.4902344 11.859375 C 7.4918794 11.367855 7.4846849 11.280518 7.4199219 11.054688 C 7.1472219 10.104037 6.4847044 9.4037806 5.7089844 9.2441406 z "
         id="path61" />
    </g>
    <path
       d="M 6.9375 1 C 6.3267 1 6.0705862 1.4179644 6.2539062 2.1152344 C 6.4125462 2.7186344 6.2628594 3.2071569 5.7246094 3.8417969 C 5.6413494 3.9399669 5.2792219 4.3183637 4.9199219 4.6835938 C 4.5606119 5.0488138 4.1751531 5.4579769 4.0644531 5.5917969 C 3.3188831 6.4929969 2.9716294 7.3492375 2.9277344 8.3984375 L 2.9101562 8.8222656 L 3 8.8574219 C 3.04881 8.8770219 3.1936556 8.89925 3.3222656 8.90625 C 3.5846856 8.92071 3.8285425 8.8661038 4.0390625 8.7460938 L 4.1660156 8.6738281 L 4.1875 8.4140625 C 4.2911 7.1603625 4.8564663 6.0929969 5.8164062 5.3417969 C 6.0563162 5.1540469 6.5887125 4.795 6.6015625 4.8125 C 6.6055425 4.81794 6.7891056 5.1455056 7.0097656 5.5410156 C 7.5866156 6.5749156 8.0157675 7.2525744 8.4609375 7.8339844 C 8.6842075 8.1255844 9.1920794 8.6602313 9.3496094 8.7695312 C 9.3977194 8.8029113 9.5865688 8.8581375 9.7929688 8.8984375 C 9.9907688 8.9370375 10.174442 8.9697031 10.201172 8.9707031 C 10.280892 8.9745131 10.626953 8.6394937 10.626953 8.5585938 C 10.626953 8.4832937 10.555978 8.4114006 10.080078 7.9941406 C 9.4212781 7.4164406 8.7594237 6.5819256 8.3085938 5.7597656 C 7.8716037 4.9627656 7.5612262 4.0105663 7.4414062 3.0976562 C 7.3939112 2.7338562 7.3942213 1.7333238 7.4414062 1.4960938 C 7.4691583 1.3573637 7.4671057 1.3026094 7.4335938 1.2246094 C 7.3752838 1.0887794 7.17868 1 6.9375 1 z M 12.757812 9.0664062 C 12.262456 9.0510013 11.753347 9.2285144 11.294922 9.5996094 L 11.154297 9.7128906 L 10.943359 9.6816406 C 10.466039 9.6088806 9.8571756 9.709195 9.4785156 9.921875 C 8.7315756 10.341375 8.36099 11.269816 8.53125 12.291016 C 8.76235 13.677116 9.8582563 14.734952 11.285156 14.951172 C 11.58493 14.99618 12.224872 14.965008 12.521484 14.890625 C 13.097744 14.746185 13.577714 14.487503 13.996094 14.095703 C 14.661184 13.472903 15 12.703443 15 11.814453 C 15 10.991553 14.688291 10.21646 14.144531 9.6875 C 13.735281 9.289425 13.253169 9.0818112 12.757812 9.0664062 z M 5.7089844 9.2441406 C 5.4825144 9.1975406 5.0503025 9.2031594 4.8203125 9.2558594 C 4.5924125 9.3081294 4.2369594 9.4638962 4.0371094 9.5976562 L 3.8945312 9.6914062 L 3.6757812 9.6367188 C 3.5135713 9.5963187 3.3476988 9.5829844 3.0429688 9.5839844 C 2.6750587 9.5851844 2.602605 9.5942156 2.390625 9.6660156 C 1.549925 9.9508156 1.0599323 10.662287 1.0039062 11.679688 C 0.91560625 13.283387 2.1282187 14.733879 3.7617188 14.980469 C 3.8626488 14.995669 4.1303419 15.004047 4.3574219 14.998047 C 5.2446219 14.975417 5.9798131 14.659016 6.5957031 14.035156 C 6.9926331 13.633076 7.2326769 13.228451 7.4042969 12.675781 C 7.4810919 12.427421 7.4892044 12.369895 7.4902344 11.859375 C 7.4918794 11.367855 7.4846849 11.280518 7.4199219 11.054688 C 7.1472219 10.104037 6.4847044 9.4037806 5.7089844 9.2441406 z "
       fill="url(#a)"
       id="base"
       transform="translate(16,16) scale(4)" />
    <path
       style="opacity:0.3;fill:#000000;stroke-width:4"
       d="M 45.763672 20.017578 C 45.659086 20.574302 45.618345 22.056774 45.632812 23.523438 C 45.643694 22.417129 45.683584 21.396849 45.765625 20.984375 C 45.86195 20.502851 45.851205 20.273478 45.763672 20.017578 z M 40.820312 21.400391 C 40.756643 21.994968 40.80979 22.678028 41.015625 23.460938 C 41.125911 23.88042 41.184656 24.282485 41.21875 24.679688 C 41.28042 23.963894 41.219672 23.237046 41.015625 22.460938 C 40.916854 22.085256 40.856129 21.734176 40.820312 21.400391 z M 42.40625 33.25 C 42.35485 33.18 40.225265 34.616188 39.265625 35.367188 C 35.425865 38.371988 33.1644 42.64145 32.75 47.65625 L 32.664062 48.695312 L 32.15625 48.984375 C 31.31417 49.464416 30.338742 49.68284 29.289062 49.625 C 28.774622 49.597 28.19524 49.508088 28 49.429688 L 27.681641 49.304688 L 27.640625 50.289062 L 28 50.429688 C 28.19524 50.508088 28.774622 50.597 29.289062 50.625 C 30.338742 50.68284 31.31417 50.464416 32.15625 49.984375 L 32.664062 49.695312 L 32.75 48.65625 C 33.1644 43.64145 35.425865 39.371988 39.265625 36.367188 C 40.225265 35.616188 42.35485 34.18 42.40625 34.25 C 42.42217 34.27176 43.156423 35.582023 44.039062 37.164062 C 46.346463 41.299662 48.06307 44.010298 49.84375 46.335938 C 50.73683 47.502338 52.768318 49.640925 53.398438 50.078125 C 53.590877 50.211645 54.346275 50.432549 55.171875 50.59375 C 55.963075 50.74815 56.697767 50.878812 56.804688 50.882812 C 57.123568 50.898052 58.507812 49.557974 58.507812 49.234375 C 58.507812 49.103591 58.423441 48.956652 58.207031 48.716797 C 57.783664 49.223782 57.031439 49.893649 56.804688 49.882812 C 56.697767 49.878812 55.963075 49.74815 55.171875 49.59375 C 54.346275 49.432549 53.590877 49.211645 53.398438 49.078125 C 52.768318 48.640925 50.73683 46.502338 49.84375 45.335938 C 48.06307 43.010298 46.346463 40.299662 44.039062 36.164062 C 43.156423 34.582023 42.42217 33.27176 42.40625 33.25 z M 75.976562 61.757812 C 75.853575 65.100534 74.517867 68.010425 71.984375 70.382812 C 70.310855 71.950012 68.390978 72.98474 66.085938 73.5625 C 64.89949 73.86006 62.339721 73.984728 61.140625 73.804688 C 55.433026 72.939808 51.0494 68.708462 50.125 63.164062 C 50.051639 62.724055 50.016166 62.290645 49.992188 61.861328 C 49.967316 62.609589 49.993653 63.376257 50.125 64.164062 C 51.0494 69.708462 55.433026 73.939808 61.140625 74.804688 C 62.339721 74.984728 64.89949 74.86006 66.085938 74.5625 C 68.390978 73.98474 70.310855 72.950012 71.984375 71.382812 C 74.644735 68.891624 76 65.813772 76 62.257812 C 76 62.089828 75.983015 61.924695 75.976562 61.757812 z M 20.013672 61.962891 C 19.795575 68.279674 24.596286 73.948107 31.046875 74.921875 C 31.450595 74.982675 32.521367 75.016188 33.429688 74.992188 C 36.978487 74.901668 39.919252 73.636065 42.382812 71.140625 C 43.970532 69.532305 44.930708 67.913805 45.617188 65.703125 C 45.924368 64.709685 45.956818 64.47958 45.960938 62.4375 C 45.961461 62.281635 45.955097 62.255765 45.955078 62.119141 C 45.940718 63.489486 45.881893 63.847049 45.617188 64.703125 C 44.930708 66.913805 43.970532 68.532305 42.382812 70.140625 C 39.919252 72.636065 36.978487 73.901668 33.429688 73.992188 C 32.521367 74.016188 31.450595 73.982675 31.046875 73.921875 C 24.938214 72.999723 20.302893 67.868866 20.013672 61.962891 z "
       transform="translate(0,2)"
       id="path65" />
    <path
       style="fill:#ffffff;stroke-width:4"
       d="M 43.75 18 C 41.635893 18 40.590223 19.256133 40.820312 21.400391 C 40.983463 19.876811 41.992619 19 43.75 19 C 44.71472 19 45.501135 19.355117 45.734375 19.898438 C 45.752105 19.939705 45.750329 19.978572 45.763672 20.017578 C 45.764959 20.010726 45.76432 19.990937 45.765625 19.984375 C 45.876633 19.429453 45.868423 19.210438 45.734375 18.898438 C 45.501135 18.355117 44.71472 18 43.75 18 z M 45.632812 23.523438 C 45.618661 24.962256 45.658225 26.567967 45.765625 27.390625 C 46.244905 31.042266 47.486415 34.851062 49.234375 38.039062 C 51.037695 41.327703 53.685113 44.665762 56.320312 46.976562 C 57.397339 47.920889 57.925042 48.404257 58.207031 48.716797 C 58.379043 48.510811 58.507812 48.327867 58.507812 48.234375 C 58.507812 47.933175 58.223892 47.645603 56.320312 45.976562 C 53.685113 43.665762 51.037695 40.327703 49.234375 37.039062 C 47.486415 33.851062 46.244905 30.042266 45.765625 26.390625 C 45.683699 25.763089 45.643917 24.649151 45.632812 23.523438 z M 41.21875 24.679688 C 41.088635 26.189923 40.359118 27.644917 38.898438 29.367188 C 38.565398 29.759867 37.116887 31.273455 35.679688 32.734375 C 34.242447 34.195255 32.700612 35.831907 32.257812 36.367188 C 29.275533 39.971987 27.886517 43.39695 27.710938 47.59375 L 27.640625 49.289062 L 27.681641 49.304688 L 27.710938 48.59375 C 27.886517 44.39695 29.275533 40.971987 32.257812 37.367188 C 32.700612 36.831907 34.242447 35.195255 35.679688 33.734375 C 37.116887 32.273455 38.565398 30.759867 38.898438 30.367188 C 40.677237 28.269827 41.380823 26.567895 41.21875 24.679688 z M 67.03125 50.265625 C 65.049826 50.204005 63.013387 50.914058 61.179688 52.398438 L 60.617188 52.851562 L 59.773438 52.726562 C 57.864157 52.435522 55.428702 52.836778 53.914062 53.6875 C 51.248139 55.184749 49.793563 58.305096 49.992188 61.861328 C 50.096274 58.729828 51.50253 56.041877 53.914062 54.6875 C 55.428702 53.836778 57.864157 53.435522 59.773438 53.726562 L 60.617188 53.851562 L 61.179688 53.398438 C 63.013387 51.914058 65.049826 51.204005 67.03125 51.265625 C 69.012678 51.327245 70.941125 52.1577 72.578125 53.75 C 74.642163 55.75786 75.856582 58.65468 75.976562 61.757812 C 75.982721 61.590422 76 61.42739 76 61.257812 C 76 57.966212 74.753165 54.86584 72.578125 52.75 C 70.941125 51.1577 69.012678 50.327245 67.03125 50.265625 z M 37.064453 50.851562 C 36.404011 50.860232 35.74123 50.918035 35.28125 51.023438 C 34.36965 51.232518 32.947837 51.855585 32.148438 52.390625 L 31.578125 52.765625 L 30.703125 52.546875 C 30.054285 52.385275 29.390795 52.331937 28.171875 52.335938 C 26.700235 52.340738 26.41042 52.376858 25.5625 52.664062 C 22.1997 53.803263 20.239729 56.649146 20.015625 60.71875 C 19.992633 61.136329 19.993534 61.551665 20.013672 61.962891 C 20.016492 61.88121 20.011116 61.800639 20.015625 61.71875 C 20.239729 57.649146 22.1997 54.803263 25.5625 53.664062 C 26.41042 53.376858 26.700235 53.340738 28.171875 53.335938 C 29.390795 53.331937 30.054285 53.385275 30.703125 53.546875 L 31.578125 53.765625 L 32.148438 53.390625 C 32.947837 52.855585 34.36965 52.232518 35.28125 52.023438 C 36.20121 51.812633 37.930057 51.790163 38.835938 51.976562 C 41.938817 52.615123 44.588887 55.416146 45.679688 59.21875 C 45.918199 60.050458 45.95486 60.532382 45.955078 62.119141 C 45.957382 61.899258 45.960368 61.719861 45.960938 61.4375 C 45.967537 59.47142 45.938736 59.12207 45.679688 58.21875 C 44.588887 54.416146 41.938817 51.615123 38.835938 50.976562 C 38.382998 50.883363 37.724895 50.842893 37.064453 50.851562 z "
       transform="translate(0,2)"
       id="path70" />
  </g>
</svg>
