<?xml version="1.0" encoding="UTF-8" standalone="no"?>
<svg
   xmlns:dc="http://purl.org/dc/elements/1.1/"
   xmlns:cc="http://creativecommons.org/ns#"
   xmlns:rdf="http://www.w3.org/1999/02/22-rdf-syntax-ns#"
   xmlns:svg="http://www.w3.org/2000/svg"
   xmlns="http://www.w3.org/2000/svg"
   xmlns:xlink="http://www.w3.org/1999/xlink"
   xmlns:sodipodi="http://sodipodi.sourceforge.net/DTD/sodipodi-0.dtd"
   xmlns:inkscape="http://www.inkscape.org/namespaces/inkscape"
   width="96"
   height="96"
   version="1.1"
   id="svg77"
   sodipodi:docname="clinica.svg"
   inkscape:version="0.92.2 5c3e80d, 2017-08-06">
  <metadata
     id="metadata81">
    <rdf:RDF>
      <cc:Work
         rdf:about="">
        <dc:format>image/svg+xml</dc:format>
        <dc:type
           rdf:resource="http://purl.org/dc/dcmitype/StillImage" />
      </cc:Work>
    </rdf:RDF>
  </metadata>
  <sodipodi:namedview
     pagecolor="#ffffff"
     bordercolor="#666666"
     borderopacity="1"
     objecttolerance="10"
     gridtolerance="10"
     guidetolerance="10"
     inkscape:pageopacity="0"
     inkscape:pageshadow="2"
     inkscape:window-width="640"
     inkscape:window-height="480"
     id="namedview79"
     showgrid="false"
     inkscape:zoom="2.4583333"
     inkscape:cx="48"
     inkscape:cy="48"
     inkscape:window-x="0"
     inkscape:window-y="25"
     inkscape:window-maximized="0"
     inkscape:current-layer="svg77" />
  <defs
     id="defs2410">
    <linearGradient
       id="linearGradient4384">
      <stop
         id="stop4386"
         stop-color="#fff"
         offset="0" />
      <stop
         id="stop4388"
         stop-color="#fff"
         stop-opacity="0"
         offset="1" />
    </linearGradient>
    <filter
       id="filter3794"
       x="-.192"
       y="-.192"
       width="1.384"
       height="1.384">
      <feGaussianBlur
         id="feGaussianBlur3796"
         stdDeviation="5.28" />
    </filter>
    <linearGradient
       id="linearGradient3613"
       x1="48"
       x2="48"
       y1="20.221"
       y2="138.66"
       gradientUnits="userSpaceOnUse">
      <stop
         id="stop3739"
         stop-color="#fff"
         offset="0" />
      <stop
         id="stop3741"
         stop-color="#fff"
         stop-opacity="0"
         offset="1" />
    </linearGradient>
    <linearGradient
       id="buttonGradient"
       x1="48"
       x2="48"
       y1="90"
       y2="5.9877"
       gradientUnits="userSpaceOnUse">
      <stop
         id="stop3702"
         stop-color="#207487"
         offset="0" />
      <stop
         id="stop3704"
         stop-color="#3495a4"
         offset="1" />
    </linearGradient>
    <linearGradient
       id="ButtonShadow-0"
       x1="45.448"
       x2="45.448"
       y1="92.54"
       y2="7.0165"
       gradientTransform="matrix(1.0059 0 0 .99417 100 0)"
       gradientUnits="userSpaceOnUse">
      <stop
         id="stop3750-8"
         offset="0" />
      <stop
         id="stop3752-5"
         stop-opacity=".58824"
         offset="1" />
    </linearGradient>
    <linearGradient
       id="linearGradient3780"
       x1="32.251"
       x2="32.251"
       y1="6.1317"
       y2="90.239"
       gradientTransform="matrix(1.0238 0 0 1.0119 -1.1429 -98.071)"
       gradientUnits="userSpaceOnUse"
       xlink:href="#ButtonShadow-0" />
    <linearGradient
       id="linearGradient3721"
       x1="32.251"
       x2="32.251"
       y1="6.1317"
       y2="90.239"
       gradientTransform="translate(0,-97)"
       gradientUnits="userSpaceOnUse"
       xlink:href="#ButtonShadow-0" />
    <clipPath
       id="clipPath4355">
      <rect
         id="rect4357"
         x="6"
         y="6"
         width="84"
         height="80"
         rx="6"
         ry="6"
         fill="#fff" />
    </clipPath>
    <linearGradient
       id="linearGradient4390"
       x1="48"
       x2="48"
       y1="88"
       y2="-40"
       gradientTransform="matrix(1,0,0,-1,0,92)"
       gradientUnits="userSpaceOnUse"
       xlink:href="#linearGradient4384" />
    <linearGradient
       id="linearGradient4429"
       x1="48"
       x2="112.12"
       y1="82"
       y2="82.455"
       gradientUnits="userSpaceOnUse"
       spreadMethod="reflect"
       xlink:href="#linearGradient4384" />
    <linearGradient
       id="linearGradient3228"
       x1="90"
       x2="48"
       y1="88"
       y2="88"
       gradientUnits="userSpaceOnUse"
       spreadMethod="reflect">
      <stop
         id="stop3894"
         stop-opacity=".58824"
         offset="0" />
      <stop
         id="stop3896"
         stop-opacity=".47059"
         offset=".1178" />
      <stop
         id="stop3898"
         stop-opacity=".39216"
         offset=".2381" />
      <stop
         id="stop3900"
         stop-opacity=".31373"
         offset="1" />
    </linearGradient>
  </defs>
  <g
     id="layer3">
    <g
       id="g32"
       fill="url(#linearGradient3780)">
      <path
         id="path3786"
         transform="scale(1,-1)"
         d="m12-95.021c-5.5111 0-10.022 4.51-10.022 10.021v71c0 5.5111 4.5104 10.021 10.021 10.021h72c5.5111 0 10.021-4.5104 10.021-10.021v-71c0-5.5111-4.5104-10.021-10.021-10.021h-72z"
         opacity=".08" />
      <path
         id="path3778"
         transform="scale(1,-1)"
         d="m12-94.035c-4.9716 0-9.0352 4.0635-9.0352 9.0352v71c0 4.9716 4.0635 9.0352 9.0352 9.0352h72c4.9716 0 9.0352-4.0635 9.0352-9.0352v-71c0-4.9716-4.0635-9.0352-9.0352-9.0352h-72z"
         opacity=".1" />
      <path
         id="path3770"
         transform="scale(1,-1)"
         d="m12-92.99c-4.4091 0-7.9902 3.5811-7.9902 7.9902v71c0 4.4091 3.5811 7.9902 7.9902 7.9902h72c4.4091 0 7.9902-3.5811 7.9902-7.9902v-71c0-4.4091-3.5811-7.9902-7.9902-7.9902h-72z"
         opacity=".2" />
      <rect
         id="rect3723"
         transform="scale(1,-1)"
         x="5"
         y="-92"
         width="86"
         height="85"
         rx="7"
         ry="7"
         opacity=".3" />
    </g>
    <rect
       id="rect3716"
       transform="scale(1,-1)"
       x="6"
       y="-91"
       width="84"
       height="84"
       rx="6"
       ry="6"
       fill="url(#linearGradient3721)"
       opacity=".45" />
  </g>
  <g
     id="layer1">
    <rect
       id="button"
       x="6"
       y="6"
       width="84"
       height="84"
       rx="6"
       ry="6"
       fill="url(#buttonGradient)" />
    <path
       id="rect4377"
       d="m12 86c-3.324 0-6-2.676-6-6v-68c0-3.324 2.676-6 6-6h72c3.324 0 6 2.676 6 6v68c0 3.324-2.676 6-6 6zm0-0.96875h72c2.8049 0 5.0312-2.2264 5.0312-5.0312v-68c0-2.8049-2.226-5.0312-5.031-5.0312h-72c-2.8049 0-5.0312 2.2263-5.0312 5.0312v68c0 2.8049 2.2264 5.0312 5.0312 5.0312z"
       fill="url(#linearGradient4390)"
       opacity=".3" />
    <path
       id="rect4414"
       d="m6 78v2c0 3.324 2.676 6 6 6h72c3.324 0 6-2.676 6-6v-2c0 3.324-2.676 6-6 6h-72c-3.324 0-6-2.676-6-6z"
       fill="url(#linearGradient4429)"
       opacity=".1" />
  </g>
  <g
     id="layer4">
    <path
       id="path3888"
       d="m6 80v4c0 3.324 2.676 6 6 6h72c3.324 0 6-2.676 6-6v-4c0 3.324-2.676 6-6 6h-72c-3.324 0-6-2.676-6-6z"
       fill="url(#linearGradient3228)" />
    <path
       id="rect4345"
       d="m6 82v2c0 3.324 2.676 6 6 6h72c3.324 0 6-2.676 6-6v-2c0 3.324-2.676 6-6 6h-72c-3.324 0-6-2.676-6-6z"
       color="#000000"
       opacity=".1" />
    <path
       id="rect4336"
       d="m6 83v1c0 3.324 2.676 6 6 6h72c3.324 0 6-2.676 6-6v-1c0 3.324-2.676 6-6 6h-72c-3.324 0-6-2.676-6-6z"
       color="#000000"
       opacity=".15" />
  </g>
  <g
     id="layer5">
    <rect
       id="rect3171"
       x="15"
       y="15"
       width="66"
       height="62"
       rx="12"
       ry="12"
       clip-path="url(#clipPath4355)"
       fill="url(#linearGradient3613)"
       filter="url(#filter3794)"
       opacity=".1"
       stroke="#fff"
       stroke-linecap="round"
       stroke-width=".5" />
  </g>
  <defs
     id="defs53">
    <filter
       id="w">
      <feGaussianBlur
         stdDeviation="0.23199685"
         id="feGaussianBlur45" />
    </filter>
    <linearGradient
       id="a"
       gradientUnits="userSpaceOnUse"
       x1="8"
       y1="1.00005"
       x2="8"
       y2="15.00009">
      <stop
         stop-color="#fafafa"
         offset="0"
         id="stop48" />
      <stop
         stop-color="#ebebeb"
         offset="1"
         id="stop50" />
    </linearGradient>
  </defs>
  <g
     transform="translate(0,-2)"
     id="g75">
    <path
       style="opacity:0.15;fill:#000000"
       d="M 4.2890625,0.75 A 0.250025,0.250025 0 0 0 4.0566406,0.90429688 L 3.953125,1.1582031 C 3.6872198,1.7917824 3.5332031,2.4984652 3.5332031,3.2441406 c 0,0.7811256 0.170827,1.5193834 0.4648438,2.1816406 -0.1309079,0.3177671 -0.1387554,0.6863644 0.066406,0.9941407 0.6359596,0.9610671 1.5890286,1.6861217 2.703125,2.0058593 0.00144,0.3793508 0.03751,0.8141619 0.2167969,1.2695313 0.1882851,0.4781725 0.4929604,0.9193215 0.9277344,1.4218755 0.2110897,0.243285 0.5092115,0.371093 0.8085937,0.371093 0.029542,0 0.057145,-0.0072 0.085937,-0.0098 0.071411,0.07363 0.1431613,0.147082 0.21875,0.224609 a 0.250025,0.250025 0 0 0 0.00195,0.002 c 0.4878927,0.485339 0.6975125,1.028018 0.6953124,1.386719 -0.00289,0.266972 -0.073897,0.42652 -0.2324218,0.568359 -0.1538386,0.137647 -0.43665,0.267578 -0.9394532,0.267578 a 0.250025,0.250025 0 0 0 -0.00195,0 c -0.3700921,0.0023 -0.6967066,-0.206298 -0.9609375,-0.470703 0.2125271,-0.323562 0.359375,-0.697635 0.359375,-1.113281 0,-1.132184 -0.9255385,-2.060547 -2.0605468,-2.060547 -1.1345514,0 -2.0585938,0.926446 -2.0585938,2.060547 0,1.134553 0.9268359,2.058594 2.0585938,2.058594 0.2277203,0 0.4370976,-0.06898 0.6445312,-0.138672 0.026706,0.02995 0.049682,0.05806 0.080078,0.08984 0.4028167,0.417624 1.0557148,0.893412 1.9375,0.896484 a 0.250025,0.250025 0 0 0 0.00195,0 h 0.00586 c 0.7328256,0 1.3637908,-0.201116 1.8164064,-0.603516 0.456254,-0.402396 0.676923,-0.980679 0.673828,-1.558593 -0.0039,-0.811835 -0.39842,-1.634803 -1.0800781,-2.322266 C 9.891636,10.690464 9.8236255,10.621674 9.7558594,10.552734 9.7950806,10.258657 9.7428526,9.9512311 9.5351562,9.7109375 9.1843524,9.3065818 9.0421462,9.0580622 8.9863281,8.9121094 8.9406366,8.7926623 8.9383693,8.6559642 8.9316406,8.4960938 10.177235,8.2293385 11.246072,7.465773 11.941406,6.4160156 c 0.205565,-0.3083353 0.19816,-0.6759888 0.06641,-0.9941406 0.291043,-0.6618594 0.458985,-1.3972632 0.458985,-2.1777344 0,-0.0087 -0.0019,-0.016698 -0.002,-0.025391 a 0.250025,0.250025 0 0 0 -0.0039,-0.023437 c -0.0067,-0.727791 -0.154823,-1.4178868 -0.41211,-2.0371094 L 11.945312,0.90429688 A 0.250025,0.250025 0 0 0 11.712891,0.75 H 9.4824219 a 0.250025,0.250025 0 0 0 -0.25,0.25 v 0.8222656 a 0.250025,0.250025 0 0 0 0.25,0.25 h 1.4687501 c 0.111738,0.3702743 0.197266,0.7581947 0.197266,1.171875 0,0.5629885 -0.118855,1.0864417 -0.314454,1.5585938 C 10.568279,4.8585272 10.315406,4.9883699 10.15625,5.234375 9.626544,6.0216294 8.8533453,6.4726562 8.0058594,6.4726562 7.1570865,6.4726562 6.3832759,6.019957 5.8535156,5.2304688 5.6922129,4.989267 5.4413172,4.858904 5.1757812,4.8027344 4.9801765,4.3305803 4.8613281,3.8071736 4.8613281,3.2441406 c 0,-0.4145001 0.084485,-0.8010722 0.1972657,-1.171875 h 1.2578124 a 0.250025,0.250025 0 0 0 0.25,-0.25 V 1 a 0.250025,0.250025 0 0 0 -0.25,-0.25 z m 1.6035156,10.859375 c 0.4084064,0 0.7382813,0.327276 0.7382813,0.738281 0,0.411193 -0.3253967,0.737242 -0.7363282,0.738282 -0.4126685,-0.0023 -0.7402343,-0.329875 -0.7402343,-0.738282 0,-0.41185 0.3264312,-0.738281 0.7382812,-0.738281 z"
       id="path55"
       inkscape:original="m12.216 3.2441c0-0.71215-0.1463-1.3856-0.39747-1.9901l-0.1049-0.25395h-2.2303v0.82256h1.6755c0.15181 0.43888 0.24014 0.91916 0.24014 1.4215 0 0.63486-0.1325 1.2311-0.36712 1.7583-0.25947 5e-3 -0.51342 0.13249-0.66521 0.36711-0.56861 0.8474-1.4215 1.3525-2.36 1.3525-0.93848 0-1.7914-0.50513-2.36-1.3525-0.15459-0.23186-0.40853-0.36159-0.668-0.36711-0.23463-0.52721-0.36711-1.1234-0.36711-1.7583 0-0.50237 0.0856-0.97989 0.24014-1.4215h1.4657v-0.82256h-2.0288l-0.10489 0.25395c-0.25394 0.60449-0.40023 1.278-0.40023 1.9901 0 0.77563 0.16837 1.5099 0.46924 2.1585-0.15733 0.26222-0.16286 0.60449 0.0193 0.87776 0.64037 0.96884 1.6092 1.6976 2.7409 1.9681v0.10765c-3e-3 0.37815 0.0304 0.80599 0.20427 1.2476 0.1739 0.44164 0.45819 0.85844 0.88328 1.3498 0.16286 0.1877 0.39196 0.28431 0.62106 0.28431 0.0607 0 0.12145-8e-3 0.17941-0.0221 0.0938 0.0994 0.19598 0.2015 0.30363 0.31191 0.52721 0.52445 0.77011 1.1151 0.76735 1.5651-3e-3 0.32019-0.10489 0.56585-0.31467 0.75355s-0.56033 0.33123-1.1069 0.33123c-0.47476 3e-3 -0.87223-0.26222-1.1676-0.56585-0.0359-0.0359-0.069-0.0745-0.10212-0.11317 0.25945-0.31191 0.41678-0.71491 0.41678-1.1538 0-0.99645-0.81151-1.8107-1.8107-1.8107s-1.808 0.81151-1.808 1.8107 0.81152 1.808 1.808 1.808c0.26223 0 0.51342-0.0552 0.73976-0.15734 0.0524 0.0607 0.10489 0.12145 0.16561 0.18494 0.3754 0.3892 0.96609 0.81704 1.7583 0.8198h6e-3c0.68731 0 1.2532-0.1877 1.6506-0.54101 0.39748-0.35056 0.59346-0.85568 0.59071-1.3691-3e-3 -0.73147-0.3616-1.4961-1.0075-2.1475-0.0994-0.0994-0.19322-0.19321-0.28154-0.2843 0.0828-0.26223 0.0304-0.56033-0.16285-0.78391-0.3616-0.4168-0.52168-0.68455-0.59346-0.87224-0.0718-0.1877-0.0911-0.33675-0.0911-0.64866v-0.0414c1.2725-0.2015 2.3683-0.97161 3.0722-2.0343 0.18218-0.27326 0.17667-0.61554 0.0193-0.87776 0.2981-0.64866 0.46372-1.3801 0.46372-2.1558zm-7.3119 9.1033c0-0.54653 0.44164-0.98817 0.98817-0.98817 0.54377 0 0.98818 0.44164 0.98818 0.98817s-0.44164 0.98817-0.98818 0.98817c-0.54653-3e-3 -0.98817-0.4444-0.98817-0.98817z"
       transform="matrix(4,0,0,4,16,17)"
       inkscape:radius="0.25"
       sodipodi:type="inkscape:offset" />
    <g
       id="Bevel1">
      <path
         fill="#000"
         opacity=".10"
         sodipodi:type="inkscape:offset"
         inkscape:radius="0.5"
         transform="translate(16,17) scale(4)"
         inkscape:original="m12.216 3.2441c0-0.71215-0.1463-1.3856-0.39747-1.9901l-0.1049-0.25395h-2.2303v0.82256h1.6755c0.15181 0.43888 0.24014 0.91916 0.24014 1.4215 0 0.63486-0.1325 1.2311-0.36712 1.7583-0.25947 5e-3 -0.51342 0.13249-0.66521 0.36711-0.56861 0.8474-1.4215 1.3525-2.36 1.3525-0.93848 0-1.7914-0.50513-2.36-1.3525-0.15459-0.23186-0.40853-0.36159-0.668-0.36711-0.23463-0.52721-0.36711-1.1234-0.36711-1.7583 0-0.50237 0.0856-0.97989 0.24014-1.4215h1.4657v-0.82256h-2.0288l-0.10489 0.25395c-0.25394 0.60449-0.40023 1.278-0.40023 1.9901 0 0.77563 0.16837 1.5099 0.46924 2.1585-0.15733 0.26222-0.16286 0.60449 0.0193 0.87776 0.64037 0.96884 1.6092 1.6976 2.7409 1.9681v0.10765c-3e-3 0.37815 0.0304 0.80599 0.20427 1.2476 0.1739 0.44164 0.45819 0.85844 0.88328 1.3498 0.16286 0.1877 0.39196 0.28431 0.62106 0.28431 0.0607 0 0.12145-8e-3 0.17941-0.0221 0.0938 0.0994 0.19598 0.2015 0.30363 0.31191 0.52721 0.52445 0.77011 1.1151 0.76735 1.5651-3e-3 0.32019-0.10489 0.56585-0.31467 0.75355s-0.56033 0.33123-1.1069 0.33123c-0.47476 3e-3 -0.87223-0.26222-1.1676-0.56585-0.0359-0.0359-0.069-0.0745-0.10212-0.11317 0.25945-0.31191 0.41678-0.71491 0.41678-1.1538 0-0.99645-0.81151-1.8107-1.8107-1.8107s-1.808 0.81151-1.808 1.8107 0.81152 1.808 1.808 1.808c0.26223 0 0.51342-0.0552 0.73976-0.15734 0.0524 0.0607 0.10489 0.12145 0.16561 0.18494 0.3754 0.3892 0.96609 0.81704 1.7583 0.8198h6e-3c0.68731 0 1.2532-0.1877 1.6506-0.54101 0.39748-0.35056 0.59346-0.85568 0.59071-1.3691-3e-3 -0.73147-0.3616-1.4961-1.0075-2.1475-0.0994-0.0994-0.19322-0.19321-0.28154-0.2843 0.0828-0.26223 0.0304-0.56033-0.16285-0.78391-0.3616-0.4168-0.52168-0.68455-0.59346-0.87224-0.0718-0.1877-0.0911-0.33675-0.0911-0.64866v-0.0414c1.2725-0.2015 2.3683-0.97161 3.0722-2.0343 0.18218-0.27326 0.17667-0.61554 0.0193-0.87776 0.2981-0.64866 0.46372-1.3801 0.46372-2.1558zm-7.3119 9.1033c0-0.54653 0.44164-0.98817 0.98817-0.98817 0.54377 0 0.98818 0.44164 0.98818 0.98817s-0.44164 0.98817-0.98818 0.98817c-0.54653-3e-3 -0.98817-0.4444-0.98817-0.98817z"
         id="path58" />
    </g>
    <g
       id="Bevel2">
      <path
         fill="#000"
         opacity=".05"
         sodipodi:type="inkscape:offset"
         inkscape:radius="0.75"
         transform="translate(16,17) scale(4)"
         inkscape:original="m12.216 3.2441c0-0.71215-0.1463-1.3856-0.39747-1.9901l-0.1049-0.25395h-2.2303v0.82256h1.6755c0.15181 0.43888 0.24014 0.91916 0.24014 1.4215 0 0.63486-0.1325 1.2311-0.36712 1.7583-0.25947 5e-3 -0.51342 0.13249-0.66521 0.36711-0.56861 0.8474-1.4215 1.3525-2.36 1.3525-0.93848 0-1.7914-0.50513-2.36-1.3525-0.15459-0.23186-0.40853-0.36159-0.668-0.36711-0.23463-0.52721-0.36711-1.1234-0.36711-1.7583 0-0.50237 0.0856-0.97989 0.24014-1.4215h1.4657v-0.82256h-2.0288l-0.10489 0.25395c-0.25394 0.60449-0.40023 1.278-0.40023 1.9901 0 0.77563 0.16837 1.5099 0.46924 2.1585-0.15733 0.26222-0.16286 0.60449 0.0193 0.87776 0.64037 0.96884 1.6092 1.6976 2.7409 1.9681v0.10765c-3e-3 0.37815 0.0304 0.80599 0.20427 1.2476 0.1739 0.44164 0.45819 0.85844 0.88328 1.3498 0.16286 0.1877 0.39196 0.28431 0.62106 0.28431 0.0607 0 0.12145-8e-3 0.17941-0.0221 0.0938 0.0994 0.19598 0.2015 0.30363 0.31191 0.52721 0.52445 0.77011 1.1151 0.76735 1.5651-3e-3 0.32019-0.10489 0.56585-0.31467 0.75355s-0.56033 0.33123-1.1069 0.33123c-0.47476 3e-3 -0.87223-0.26222-1.1676-0.56585-0.0359-0.0359-0.069-0.0745-0.10212-0.11317 0.25945-0.31191 0.41678-0.71491 0.41678-1.1538 0-0.99645-0.81151-1.8107-1.8107-1.8107s-1.808 0.81151-1.808 1.8107 0.81152 1.808 1.808 1.808c0.26223 0 0.51342-0.0552 0.73976-0.15734 0.0524 0.0607 0.10489 0.12145 0.16561 0.18494 0.3754 0.3892 0.96609 0.81704 1.7583 0.8198h6e-3c0.68731 0 1.2532-0.1877 1.6506-0.54101 0.39748-0.35056 0.59346-0.85568 0.59071-1.3691-3e-3 -0.73147-0.3616-1.4961-1.0075-2.1475-0.0994-0.0994-0.19322-0.19321-0.28154-0.2843 0.0828-0.26223 0.0304-0.56033-0.16285-0.78391-0.3616-0.4168-0.52168-0.68455-0.59346-0.87224-0.0718-0.1877-0.0911-0.33675-0.0911-0.64866v-0.0414c1.2725-0.2015 2.3683-0.97161 3.0722-2.0343 0.18218-0.27326 0.17667-0.61554 0.0193-0.87776 0.2981-0.64866 0.46372-1.3801 0.46372-2.1558zm-7.3119 9.1033c0-0.54653 0.44164-0.98817 0.98817-0.98817 0.54377 0 0.98818 0.44164 0.98818 0.98817s-0.44164 0.98817-0.98818 0.98817c-0.54653-3e-3 -0.98817-0.4444-0.98817-0.98817z"
         id="path61" />
    </g>
    <path
       d="m12.216 3.2441c0-0.71215-0.1463-1.3856-0.39747-1.9901l-0.1049-0.25395h-2.2303v0.82256h1.6755c0.15181 0.43888 0.24014 0.91916 0.24014 1.4215 0 0.63486-0.1325 1.2311-0.36712 1.7583-0.25947 5e-3 -0.51342 0.13249-0.66521 0.36711-0.56861 0.8474-1.4215 1.3525-2.36 1.3525-0.93848 0-1.7914-0.50513-2.36-1.3525-0.15459-0.23186-0.40853-0.36159-0.668-0.36711-0.23463-0.52721-0.36711-1.1234-0.36711-1.7583 0-0.50237 0.0856-0.97989 0.24014-1.4215h1.4657v-0.82256h-2.0288l-0.10489 0.25395c-0.25394 0.60449-0.40023 1.278-0.40023 1.9901 0 0.77563 0.16837 1.5099 0.46924 2.1585-0.15733 0.26222-0.16286 0.60449 0.0193 0.87776 0.64037 0.96884 1.6092 1.6976 2.7409 1.9681v0.10765c-3e-3 0.37815 0.0304 0.80599 0.20427 1.2476 0.1739 0.44164 0.45819 0.85844 0.88328 1.3498 0.16286 0.1877 0.39196 0.28431 0.62106 0.28431 0.0607 0 0.12145-8e-3 0.17941-0.0221 0.0938 0.0994 0.19598 0.2015 0.30363 0.31191 0.52721 0.52445 0.77011 1.1151 0.76735 1.5651-3e-3 0.32019-0.10489 0.56585-0.31467 0.75355s-0.56033 0.33123-1.1069 0.33123c-0.47476 3e-3 -0.87223-0.26222-1.1676-0.56585-0.0359-0.0359-0.069-0.0745-0.10212-0.11317 0.25945-0.31191 0.41678-0.71491 0.41678-1.1538 0-0.99645-0.81151-1.8107-1.8107-1.8107s-1.808 0.81151-1.808 1.8107 0.81152 1.808 1.808 1.808c0.26223 0 0.51342-0.0552 0.73976-0.15734 0.0524 0.0607 0.10489 0.12145 0.16561 0.18494 0.3754 0.3892 0.96609 0.81704 1.7583 0.8198h6e-3c0.68731 0 1.2532-0.1877 1.6506-0.54101 0.39748-0.35056 0.59346-0.85568 0.59071-1.3691-3e-3 -0.73147-0.3616-1.4961-1.0075-2.1475-0.0994-0.0994-0.19322-0.19321-0.28154-0.2843 0.0828-0.26223 0.0304-0.56033-0.16285-0.78391-0.3616-0.4168-0.52168-0.68455-0.59346-0.87224-0.0718-0.1877-0.0911-0.33675-0.0911-0.64866v-0.0414c1.2725-0.2015 2.3683-0.97161 3.0722-2.0343 0.18218-0.27326 0.17667-0.61554 0.0193-0.87776 0.2981-0.64866 0.46372-1.3801 0.46372-2.1558zm-7.3119 9.1033c0-0.54653 0.44164-0.98817 0.98817-0.98817 0.54377 0 0.98818 0.44164 0.98818 0.98817s-0.44164 0.98817-0.98818 0.98817c-0.54653-3e-3 -0.98817-0.4444-0.98817-0.98817z"
       fill="url(#a)"
       id="base"
       transform="translate(16,16) scale(4)" />
    <path
       style="opacity:0.3;fill:#000000;stroke-width:4"
       d="M 35.40625 21.291016 C 34.78809 23.057456 34.445312 24.967083 34.445312 26.976562 C 34.445312 27.130153 34.4649 27.277256 34.46875 27.429688 C 34.525367 25.621725 34.844875 23.895187 35.40625 22.291016 L 41.269531 22.291016 L 41.269531 21.291016 L 35.40625 21.291016 z M 53.933594 21.291016 L 53.933594 22.291016 L 60.634766 22.291016 C 61.186296 23.885481 61.514145 25.619966 61.572266 27.429688 C 61.576116 27.277263 61.595703 27.130144 61.595703 26.976562 C 61.595703 24.967202 61.242006 23.046536 60.634766 21.291016 L 53.933594 21.291016 z M 31.148438 27.445312 C 31.143887 27.622433 31.134766 27.798202 31.134766 27.976562 C 31.134766 30.870238 31.725938 33.616086 32.78125 36.078125 C 32.845898 35.917184 32.921937 35.760966 33.011719 35.611328 C 31.869333 33.148631 31.212993 30.373957 31.148438 27.445312 z M 64.851562 27.501953 C 64.780874 30.408755 64.136279 33.152587 63.011719 35.599609 C 63.101478 35.749172 63.175592 35.90555 63.240234 36.066406 C 64.284912 33.605838 64.865234 30.869979 64.865234 27.976562 L 64.863281 27.976562 C 64.863281 27.817219 64.855196 27.660307 64.851562 27.501953 z M 63.441406 37.808594 C 63.370663 38.260658 63.204527 38.704943 62.933594 39.111328 C 60.117994 43.362088 55.734531 46.442047 50.644531 47.248047 L 50.644531 47.414062 C 50.644531 47.727815 50.650233 47.999964 50.662109 48.244141 C 55.744505 47.433771 60.121286 44.357117 62.933594 40.111328 C 63.404187 39.405463 63.558399 38.584131 63.441406 37.808594 z M 32.582031 37.820312 C 32.465035 38.595859 32.617337 39.415186 33.087891 40.121094 C 35.649371 43.996454 39.523981 46.912141 44.050781 47.994141 L 44.050781 48.423828 C 44.038781 49.936428 44.173661 51.647622 44.869141 53.414062 C 45.564741 55.180622 46.701984 56.849013 48.402344 58.814453 C 49.053784 59.565253 49.970319 59.951172 50.886719 59.951172 C 51.129519 59.951172 51.371676 59.919681 51.603516 59.863281 C 51.978716 60.260881 52.387759 60.669688 52.818359 61.111328 C 54.698212 62.98134 55.669552 65.058908 55.851562 66.763672 C 55.862185 66.631888 55.885419 66.509785 55.886719 66.371094 C 55.897759 64.571094 54.927199 62.209128 52.818359 60.111328 C 52.387759 59.669688 51.978716 59.260881 51.603516 58.863281 C 51.371676 58.919681 51.129519 58.951172 50.886719 58.951172 C 49.970319 58.951172 49.053784 58.565253 48.402344 57.814453 C 46.701984 55.849013 45.564741 54.180622 44.869141 52.414062 C 44.173661 50.647622 44.038781 48.936428 44.050781 47.423828 L 44.050781 46.994141 C 39.523981 45.912141 35.649371 42.996454 33.087891 39.121094 C 32.817435 38.715366 32.652958 38.271603 32.582031 37.820312 z M 54.142578 56.152344 C 54.11731 56.314778 54.084875 56.475351 54.035156 56.632812 C 54.081223 56.680324 54.134825 56.733343 54.181641 56.78125 C 54.190172 56.571174 54.174538 56.361287 54.142578 56.152344 z M 39.568359 59.4375 C 37.382239 59.4375 35.617188 61.202552 35.617188 63.388672 C 35.617188 63.5597 35.646779 63.723361 35.667969 63.888672 C 35.915729 61.942326 37.553718 60.4375 39.568359 60.4375 C 41.572827 60.4375 43.221529 61.942326 43.470703 63.888672 C 43.491691 63.723392 43.521484 63.559735 43.521484 63.388672 C 43.521484 61.202552 41.743439 59.4375 39.568359 59.4375 z M 32.339844 63.878906 C 32.328497 64.044777 32.314453 64.210172 32.314453 64.378906 C 32.314453 68.375666 35.560955 71.611328 39.546875 71.611328 C 40.595795 71.611328 41.600499 71.389029 42.505859 70.980469 C 42.715459 71.223269 42.925089 71.466743 43.167969 71.720703 C 44.669569 73.277503 47.032332 74.98896 50.201172 75 L 50.224609 75 C 52.973849 75 55.238525 74.249178 56.828125 72.835938 C 58.418045 71.433697 59.202406 69.413055 59.191406 67.359375 C 59.190866 67.22775 59.172288 67.094999 59.166016 66.962891 C 59.034948 68.803761 58.261792 70.571506 56.828125 71.835938 C 55.238525 73.249178 52.973849 74 50.224609 74 L 50.201172 74 C 47.032332 73.98896 44.669569 72.277503 43.167969 70.720703 C 42.925089 70.466743 42.715459 70.223269 42.505859 69.980469 C 41.600499 70.389029 40.595795 70.611328 39.546875 70.611328 C 35.729231 70.611328 32.598078 67.641125 32.339844 63.878906 z M 46.765625 63.90625 C 46.65303 65.455698 46.055667 66.872947 45.123047 67.994141 C 45.255527 68.148821 45.38765 68.303666 45.53125 68.447266 C 46.32155 67.290336 46.789062 65.888559 46.789062 64.378906 C 46.789062 64.219427 46.775859 64.063234 46.765625 63.90625 z "
       transform="translate(0,2)"
       id="path65" />
    <path
       style="fill:#ffffff;stroke-width:4"
       d="M 33.154297 18 L 32.734375 19.015625 C 31.718615 21.433585 31.134766 24.128163 31.134766 26.976562 C 31.134766 27.13406 31.144985 27.288691 31.148438 27.445312 C 31.216563 24.793841 31.78222 22.282178 32.734375 20.015625 L 33.154297 19 L 41.269531 19 L 41.269531 18 L 33.154297 18 z M 53.933594 18 L 53.933594 19 L 62.855469 19 L 63.273438 20.015625 C 64.221918 22.298368 64.790245 24.829404 64.851562 27.501953 C 64.855827 27.326599 64.865234 27.153092 64.865234 26.976562 L 64.863281 26.976562 C 64.863281 24.127962 64.278118 21.433625 63.273438 19.015625 L 62.855469 18 L 53.933594 18 z M 34.46875 27.429688 C 34.463023 27.61257 34.445312 27.791968 34.445312 27.976562 C 34.445312 30.516163 34.975543 32.900926 35.914062 35.009766 C 36.951942 35.031846 37.967577 35.551076 38.585938 36.478516 C 40.860337 39.867996 44.273424 41.888672 48.027344 41.888672 C 51.781344 41.888672 55.192357 39.868116 57.466797 36.478516 C 58.073957 35.540036 59.089073 35.029766 60.126953 35.009766 C 61.065433 32.900966 61.595703 30.516002 61.595703 27.976562 C 61.595703 27.792221 61.578136 27.612484 61.572266 27.429688 C 61.512453 29.797573 61.008675 32.028502 60.126953 34.009766 C 59.089073 34.029766 58.073957 34.540036 57.466797 35.478516 C 55.192357 38.868116 51.781344 40.888672 48.027344 40.888672 C 44.273424 40.888672 40.860337 38.867996 38.585938 35.478516 C 37.967577 34.551076 36.951942 34.031846 35.914062 34.009766 C 35.032303 32.028465 34.528554 29.797684 34.46875 27.429688 z M 63.240234 36.066406 C 63.164636 36.244466 63.092184 36.424518 63.011719 36.599609 C 63.234692 36.971142 63.377234 37.383202 63.441406 37.808594 C 63.533806 37.218137 63.460379 36.614218 63.240234 36.066406 z M 32.78125 36.078125 C 32.56095 36.626562 32.489133 37.229229 32.582031 37.820312 C 32.6462 37.394946 32.788812 36.982844 33.011719 36.611328 C 32.930707 36.436687 32.857415 36.255817 32.78125 36.078125 z M 50.662109 48.244141 C 50.656159 48.245089 50.650484 48.247104 50.644531 48.248047 L 50.644531 48.414062 C 50.644531 49.661702 50.722566 50.257013 51.009766 51.007812 C 51.296886 51.758573 51.936413 52.830847 53.382812 54.498047 C 53.803529 54.984794 54.052003 55.56019 54.142578 56.152344 C 54.285633 55.232731 54.039771 54.258113 53.382812 53.498047 C 51.936413 51.830847 51.296886 50.758573 51.009766 50.007812 C 50.79479 49.445822 50.697459 48.970934 50.662109 48.244141 z M 39.546875 56.136719 C 35.550115 56.136719 32.314453 59.382146 32.314453 63.378906 C 32.314453 63.54764 32.328461 63.713073 32.339844 63.878906 C 32.597257 60.115851 35.718849 57.136719 39.546875 57.136719 C 43.383717 57.136719 46.520093 60.139803 46.765625 63.90625 C 46.778323 63.731505 46.789062 63.55683 46.789062 63.378906 C 46.789062 59.393106 43.543635 56.136719 39.546875 56.136719 z M 54.181641 56.78125 C 54.169927 57.069696 54.12249 57.356224 54.035156 57.632812 C 54.388436 57.997173 54.762556 58.371931 55.160156 58.769531 C 57.627529 61.257914 59.032863 64.15837 59.166016 66.962891 C 59.1803 66.762257 59.192487 66.561205 59.191406 66.359375 C 59.179406 63.433495 57.743756 60.375131 55.160156 57.769531 C 54.814403 57.423778 54.493848 57.100735 54.181641 56.78125 z M 35.667969 63.888672 C 35.64688 64.054338 35.617188 64.217193 35.617188 64.388672 C 35.617188 66.563752 37.382239 68.329797 39.568359 68.341797 C 41.754519 68.341797 43.521484 66.574792 43.521484 64.388672 C 43.521484 64.217193 43.491912 64.054338 43.470703 63.888672 C 43.223473 65.835603 41.583453 67.341797 39.568359 67.341797 C 37.554135 67.33074 35.916262 65.825735 35.667969 63.888672 z M 55.851562 66.763672 C 55.764094 67.84886 55.37716 68.715268 54.628906 69.384766 C 53.789786 70.135566 52.387452 70.710937 50.201172 70.710938 C 48.302132 70.722938 46.71273 69.661786 45.53125 68.447266 C 45.402518 68.635718 45.268415 68.819379 45.123047 68.994141 C 45.255527 69.148821 45.38765 69.303666 45.53125 69.447266 C 46.71273 70.661786 48.302132 71.722938 50.201172 71.710938 C 52.387452 71.710937 53.789786 71.135566 54.628906 70.384766 C 55.468026 69.633966 55.874719 68.651854 55.886719 67.371094 C 55.887918 67.175642 55.873733 66.971331 55.851562 66.763672 z "
       transform="translate(0,2)"
       id="path70" />
  </g>
</svg>
