<?xml version="1.0" encoding="UTF-8" standalone="no"?>
<!-- Created with Inkscape (http://www.inkscape.org/) -->

<svg
   xmlns:dc="http://purl.org/dc/elements/1.1/"
   xmlns:cc="http://creativecommons.org/ns#"
   xmlns:rdf="http://www.w3.org/1999/02/22-rdf-syntax-ns#"
   xmlns:svg="http://www.w3.org/2000/svg"
   xmlns="http://www.w3.org/2000/svg"
   xmlns:xlink="http://www.w3.org/1999/xlink"
   xmlns:sodipodi="http://sodipodi.sourceforge.net/DTD/sodipodi-0.dtd"
   xmlns:inkscape="http://www.inkscape.org/namespaces/inkscape"
   width="96"
   height="96"
   id="svg2408"
   sodipodi:version="0.32"
   inkscape:version="0.48.2 r9819"
   version="1.0"
   sodipodi:docname="dialog-information.svg"
   inkscape:output_extension="org.inkscape.output.svg.inkscape">
  <defs
     id="defs2410">
    <linearGradient
       id="linearGradient4384">
      <stop
         style="stop-color:#ffffff;stop-opacity:1;"
         offset="0"
         id="stop4386" />
      <stop
         style="stop-color:#ffffff;stop-opacity:0;"
         offset="1"
         id="stop4388" />
    </linearGradient>
    <linearGradient
       id="linearGradient4367">
      <stop
         style="stop-color:#ffffff;stop-opacity:0.71755725;"
         offset="0"
         id="stop4369" />
      <stop
         style="stop-color:#ffffff;stop-opacity:1;"
         offset="1"
         id="stop4371" />
    </linearGradient>
    <linearGradient
       id="ButtonShadow"
       gradientTransform="scale(1.0058652,0.994169)"
       x1="45.447727"
       y1="92.539597"
       x2="45.447727"
       y2="7.0165396"
       gradientUnits="userSpaceOnUse">
      <stop
         style="stop-color:#000000;stop-opacity:1;"
         offset="0"
         id="stop3750" />
      <stop
         style="stop-color:#000000;stop-opacity:0.58823532;"
         offset="1"
         id="stop3752" />
    </linearGradient>
    <linearGradient
       inkscape:collect="always"
       id="linearGradient3737">
      <stop
         style="stop-color:#ffffff;stop-opacity:1;"
         offset="0"
         id="stop3739" />
      <stop
         style="stop-color:#ffffff;stop-opacity:0;"
         offset="1"
         id="stop3741" />
    </linearGradient>
    <linearGradient
       id="linearGradient3700">
      <stop
         style="stop-color:#2276c5;stop-opacity:1;"
         offset="0"
         id="stop3702" />
      <stop
         style="stop-color:#68baf4;stop-opacity:1;"
         offset="1"
         id="stop3704" />
    </linearGradient>
    <filter
       inkscape:collect="always"
       id="filter3174">
      <feGaussianBlur
         inkscape:collect="always"
         stdDeviation="1.71"
         id="feGaussianBlur3176" />
    </filter>
    <filter
       inkscape:collect="always"
       id="filter3794"
       x="-0.192"
       width="1.384"
       y="-0.192"
       height="1.384">
      <feGaussianBlur
         inkscape:collect="always"
         stdDeviation="5.28"
         id="feGaussianBlur3796" />
    </filter>
    <linearGradient
       inkscape:collect="always"
       xlink:href="#linearGradient3737"
       id="linearGradient3613"
       x1="48"
       y1="20.220806"
       x2="48"
       y2="138.66119"
       gradientUnits="userSpaceOnUse" />
    <linearGradient
       inkscape:collect="always"
       xlink:href="#linearGradient3614"
       id="linearGradient3617"
       gradientUnits="userSpaceOnUse"
       x1="48"
       y1="90"
       x2="48"
       y2="5.9877172" />
    <linearGradient
       id="ButtonShadow-0"
       gradientTransform="matrix(1.0058652,0,0,0.994169,100,0)"
       x1="45.447727"
       y1="92.539597"
       x2="45.447727"
       y2="7.0165396"
       gradientUnits="userSpaceOnUse">
      <stop
         style="stop-color:#000000;stop-opacity:1;"
         offset="0"
         id="stop3750-8" />
      <stop
         style="stop-color:#000000;stop-opacity:0.58823532;"
         offset="1"
         id="stop3752-5" />
    </linearGradient>
    <linearGradient
       inkscape:collect="always"
       xlink:href="#ButtonShadow-0"
       id="linearGradient3780"
       gradientUnits="userSpaceOnUse"
       gradientTransform="matrix(1.0238095,0,0,1.0119048,-1.1428571,-98.071429)"
       x1="32.251034"
       y1="6.1317081"
       x2="32.251034"
       y2="90.238609" />
    <linearGradient
       inkscape:collect="always"
       xlink:href="#ButtonShadow-0"
       id="linearGradient3772"
       gradientUnits="userSpaceOnUse"
       gradientTransform="matrix(1.0238095,0,0,1.0119048,-1.1428571,-98.071429)"
       x1="32.251034"
       y1="6.1317081"
       x2="32.251034"
       y2="90.238609" />
    <linearGradient
       inkscape:collect="always"
       xlink:href="#ButtonShadow-0"
       id="linearGradient3725"
       gradientUnits="userSpaceOnUse"
       gradientTransform="matrix(1.0238095,0,0,1.0119048,-1.1428571,-98.071429)"
       x1="32.251034"
       y1="6.1317081"
       x2="32.251034"
       y2="90.238609" />
    <linearGradient
       inkscape:collect="always"
       xlink:href="#ButtonShadow-0"
       id="linearGradient3721"
       gradientUnits="userSpaceOnUse"
       gradientTransform="translate(0,-97)"
       x1="32.251034"
       y1="6.1317081"
       x2="32.251034"
       y2="90.238609" />
    <linearGradient
       y2="90.238609"
       x2="32.251034"
       y1="6.1317081"
       x1="32.251034"
       gradientTransform="matrix(1.0238095,0,0,1.0119048,-1.1428571,-98.071429)"
       gradientUnits="userSpaceOnUse"
       id="linearGradient3026"
       xlink:href="#ButtonShadow-0"
       inkscape:collect="always" />
    <linearGradient
       gradientTransform="translate(-2,-956.3622)"
       y2="1033.3622"
       x2="50"
       y1="1033.3622"
       x1="8"
       spreadMethod="reflect"
       gradientUnits="userSpaceOnUse"
       id="linearGradient3542"
       xlink:href="#linearGradient4482"
       inkscape:collect="always" />
    <clipPath
       clipPathUnits="userSpaceOnUse"
       id="clipPath4355">
      <rect
         style="fill:#ffffff;fill-opacity:1;fill-rule:nonzero;stroke:none"
         id="rect4357"
         width="84"
         height="80"
         x="6"
         y="6"
         rx="6"
         ry="6" />
    </clipPath>
    <radialGradient
       inkscape:collect="always"
       xlink:href="#linearGradient4367"
       id="radialGradient4375"
       cx="48"
       cy="87.792389"
       fx="48"
       fy="87.792389"
       r="42"
       gradientTransform="matrix(1,-6.7114942e-8,8.4282233e-8,1.2557894,109.99999,-24.505592)"
       gradientUnits="userSpaceOnUse" />
    <linearGradient
       inkscape:collect="always"
       xlink:href="#linearGradient4384"
       id="linearGradient4390"
       x1="48"
       y1="88"
       x2="48"
       y2="-40"
       gradientUnits="userSpaceOnUse"
       gradientTransform="matrix(1,0,0,-1,0,92)" />
    <linearGradient
       inkscape:collect="always"
       xlink:href="#linearGradient4384"
       id="linearGradient4429"
       x1="48"
       y1="82"
       x2="112.12357"
       y2="82.454597"
       gradientUnits="userSpaceOnUse"
       spreadMethod="reflect" />
    <linearGradient
       id="linearGradient4482">
      <stop
         id="stop4484"
         offset="0"
         style="stop-color:#c78c5d;stop-opacity:1;" />
      <stop
         style="stop-color:#a3744e;stop-opacity:1;"
         offset="0.11780351"
         id="stop4486" />
      <stop
         id="stop4488"
         offset="0.23809524"
         style="stop-color:#946c4b;stop-opacity:1;" />
      <stop
         id="stop4490"
         offset="1"
         style="stop-color:#866448;stop-opacity:1;" />
    </linearGradient>
    <linearGradient
       id="linearGradient3843">
      <stop
         style="stop-color:#523823;stop-opacity:1;"
         offset="0"
         id="stop3845" />
      <stop
         id="stop3847"
         offset="0.11780351"
         style="stop-color:#79563a;stop-opacity:1;" />
      <stop
         style="stop-color:#875c38;stop-opacity:1;"
         offset="0.23809524"
         id="stop3849" />
      <stop
         style="stop-color:#a66e40;stop-opacity:1;"
         offset="1"
         id="stop3851" />
    </linearGradient>
    <linearGradient
       y2="1033.3622"
       x2="50"
       y1="1033.3622"
       x1="8"
       spreadMethod="reflect"
       gradientTransform="translate(-2,-956.3622)"
       gradientUnits="userSpaceOnUse"
       id="linearGradient3870"
       xlink:href="#linearGradient3843"
       inkscape:collect="always" />
    <linearGradient
       inkscape:collect="always"
       xlink:href="#linearGradient3731"
       id="linearGradient3664"
       gradientUnits="userSpaceOnUse"
       x1="48.082497"
       y1="75.561722"
       x2="46.654823"
       y2="16.972879"
       gradientTransform="translate(0,1)" />
    <linearGradient
       id="linearGradient3731">
      <stop
         id="stop3733"
         offset="0"
         style="stop-color:#dcdcdc;stop-opacity:1;" />
      <stop
         style="stop-color:#ebebeb;stop-opacity:1;"
         offset="0.30654153"
         id="stop3757" />
      <stop
         style="stop-color:#ffffff;stop-opacity:1"
         offset="0.70706075"
         id="stop3737" />
      <stop
         id="stop3759"
         offset="0.84501493"
         style="stop-color:#fafafa;stop-opacity:1" />
      <stop
         id="stop3735"
         offset="1"
         style="stop-color:#f0f0f0;stop-opacity:1;" />
    </linearGradient>
    <linearGradient
       inkscape:collect="always"
       xlink:href="#linearGradient3739"
       id="linearGradient3746"
       x1="15"
       y1="48.272732"
       x2="81"
       y2="48.272732"
       gradientUnits="userSpaceOnUse"
       gradientTransform="translate(0,-1)" />
    <linearGradient
       inkscape:collect="always"
       id="linearGradient3739">
      <stop
         style="stop-color:#ffffff;stop-opacity:1;"
         offset="0"
         id="stop3742" />
      <stop
         style="stop-color:#ffffff;stop-opacity:0;"
         offset="1"
         id="stop3744" />
    </linearGradient>
    <linearGradient
       y2="16.972879"
       x2="46.654823"
       y1="75.561722"
       x1="48.082497"
       gradientUnits="userSpaceOnUse"
       id="linearGradient3114"
       xlink:href="#linearGradient3731"
       inkscape:collect="always" />
    <linearGradient
       inkscape:collect="always"
       xlink:href="#linearGradient3737"
       id="linearGradient3881"
       gradientUnits="userSpaceOnUse"
       x1="40"
       y1="16"
       x2="40"
       y2="112" />
    <linearGradient
       inkscape:collect="always"
       xlink:href="#linearGradient3614"
       id="linearGradient3617-9"
       gradientUnits="userSpaceOnUse"
       x1="48"
       y1="90"
       x2="48"
       y2="5.9877172" />
    <linearGradient
       id="linearGradient3614">
      <stop
         id="stop3616"
         offset="0"
         style="stop-color:#65a31b;stop-opacity:1;" />
      <stop
         id="stop3618"
         offset="1"
         style="stop-color:#a0de42;stop-opacity:1;" />
    </linearGradient>
    <linearGradient
       gradientTransform="translate(-72,32)"
       y2="5.9877172"
       x2="48"
       y1="90"
       x1="48"
       gradientUnits="userSpaceOnUse"
       id="linearGradient3131"
       xlink:href="#linearGradient3614"
       inkscape:collect="always" />
  </defs>
  <sodipodi:namedview
     id="base"
     pagecolor="#818181"
     bordercolor="#ffb1b1"
     borderopacity="1"
     inkscape:pageopacity="1"
     inkscape:pageshadow="2"
     inkscape:zoom="4.6803524"
     inkscape:cx="-7.9663067"
     inkscape:cy="52.923083"
     inkscape:document-units="px"
     inkscape:current-layer="layer1"
     showgrid="true"
     showborder="true"
     inkscape:showpageshadow="false"
     inkscape:window-width="1920"
     inkscape:window-height="1027"
     inkscape:window-x="-1"
     inkscape:window-y="23"
     inkscape:window-maximized="1"
     borderlayer="true">
    <inkscape:grid
       type="xygrid"
       id="grid3732"
       visible="true"
       enabled="true"
       empspacing="8"
       snapvisiblegridlinesonly="true" />
  </sodipodi:namedview>
  <metadata
     id="metadata2413">
    <rdf:RDF>
      <cc:Work
         rdf:about="">
        <dc:format>image/svg+xml</dc:format>
        <dc:type
           rdf:resource="http://purl.org/dc/dcmitype/StillImage" />
        <dc:title />
      </cc:Work>
    </rdf:RDF>
  </metadata>
  <g
     inkscape:groupmode="layer"
     id="layer2"
     inkscape:label="Blur Shadow"
     style="display:none"
     sodipodi:insensitive="true">
    <rect
       style="opacity:0.9;fill:url(#ButtonShadow);fill-opacity:1;fill-rule:nonzero;stroke:none;filter:url(#filter3174)"
       id="rect3745"
       width="86"
       height="85"
       x="5"
       y="7"
       rx="6"
       ry="6" />
  </g>
  <g
     inkscape:groupmode="layer"
     id="layer3"
     inkscape:label="Shadow"
     sodipodi:insensitive="true"
     style="display:inline">
    <path
       sodipodi:type="inkscape:offset"
       inkscape:radius="0.99097413"
       inkscape:original="M 12 -94.03125 C 7.028367 -94.03125 2.96875 -89.971633 2.96875 -85 L 2.96875 -14 C 2.96875 -9.0283671 7.0283671 -4.96875 12 -4.96875 L 84 -4.96875 C 88.971633 -4.96875 93.03125 -9.028367 93.03125 -14 L 93.03125 -85 C 93.03125 -89.971633 88.971633 -94.03125 84 -94.03125 L 12 -94.03125 z "
       style="opacity:0.07999998;fill:url(#linearGradient3026);fill-opacity:1;fill-rule:nonzero;stroke:none;display:inline"
       id="path3786"
       d="m 12,-95.03125 c -5.5110903,0 -10.03125,4.52016 -10.03125,10.03125 l 0,71 c 0,5.5110902 4.5201598,10.03125 10.03125,10.03125 l 72,0 c 5.51109,0 10.03125,-4.5201597 10.03125,-10.03125 l 0,-71 c 0,-5.51109 -4.52016,-10.03125 -10.03125,-10.03125 l -72,0 z"
       transform="scale(1,-1)" />
    <path
       sodipodi:type="inkscape:offset"
       inkscape:radius="1.0360184"
       inkscape:original="M 12 -93 C 7.5908667 -93 4 -89.409133 4 -85 L 4 -14 C 4 -9.5908667 7.5908667 -6 12 -6 L 84 -6 C 88.409133 -6 92 -9.5908667 92 -14 L 92 -85 C 92 -89.409133 88.409133 -93 84 -93 L 12 -93 z "
       style="opacity:0.1;fill:url(#linearGradient3780);fill-opacity:1;fill-rule:nonzero;stroke:none;display:inline"
       id="path3778"
       d="m 12,-94.03125 c -4.971633,0 -9.03125,4.059617 -9.03125,9.03125 l 0,71 c 0,4.9716329 4.0596171,9.03125 9.03125,9.03125 l 72,0 c 4.971633,0 9.03125,-4.059617 9.03125,-9.03125 l 0,-71 c 0,-4.971633 -4.059617,-9.03125 -9.03125,-9.03125 l -72,0 z"
       transform="scale(1,-1)" />
    <path
       sodipodi:type="inkscape:offset"
       inkscape:radius="0.98962283"
       inkscape:original="M 12 -92 C 8.122 -92 5 -88.878 5 -85 L 5 -14 C 5 -10.122 8.122 -7 12 -7 L 84 -7 C 87.878 -7 91 -10.122 91 -14 L 91 -85 C 91 -88.878 87.878 -92 84 -92 L 12 -92 z "
       style="opacity:0.2;fill:url(#linearGradient3772);fill-opacity:1;fill-rule:nonzero;stroke:none;display:inline"
       id="path3770"
       d="m 12,-93 c -4.4091333,0 -8,3.590867 -8,8 l 0,71 c 0,4.4091333 3.5908667,8 8,8 l 72,0 c 4.409133,0 8,-3.5908667 8,-8 l 0,-71 c 0,-4.409133 -3.590867,-8 -8,-8 l -72,0 z"
       transform="scale(1,-1)" />
    <rect
       style="opacity:0.3;fill:url(#linearGradient3725);fill-opacity:1;fill-rule:nonzero;stroke:none;display:inline"
       id="rect3723"
       width="86"
       height="85"
       x="5"
       y="-92"
       rx="7"
       ry="7"
       transform="scale(1,-1)" />
    <rect
       transform="scale(1,-1)"
       ry="6"
       rx="6"
       y="-91"
       x="6"
       height="84"
       width="84"
       id="rect3716"
       style="opacity:0.45;fill:url(#linearGradient3721);fill-opacity:1;fill-rule:nonzero;stroke:none;display:inline" />
  </g>
  <g
     inkscape:groupmode="layer"
     id="layer4"
     inkscape:label="Bottom Edge"
     sodipodi:insensitive="true">
    <rect
       ry="6"
       rx="6"
       y="64"
       x="6"
       height="26.000017"
       width="84"
       id="rect2841"
       style="color:#000000;fill:url(#linearGradient3870);fill-opacity:1;fill-rule:nonzero;stroke:none;stroke-width:1.5;marker:none;visibility:visible;display:inline;overflow:visible;enable-background:accumulate" />
    <path
       style="opacity:0.1;color:#000000;fill:#000000;fill-opacity:1;fill-rule:nonzero;stroke:none;stroke-width:1.5;marker:none;visibility:visible;display:inline;overflow:visible;enable-background:accumulate"
       d="m 6,82 0,2 c 0,3.324 2.676,6 6,6 l 72,0 c 3.324,0 6,-2.676 6,-6 l 0,-2 c 0,3.324 -2.676,6 -6,6 L 12,88 C 8.676,88 6,85.324 6,82 z"
       id="rect4345"
       inkscape:connector-curvature="0" />
    <path
       style="opacity:0.1;color:#000000;fill:#000000;fill-opacity:1;fill-rule:nonzero;stroke:none;stroke-width:1.5;marker:none;visibility:visible;display:inline;overflow:visible;enable-background:accumulate"
       d="m 6,83 0,1 c 0,3.324 2.676,6 6,6 l 72,0 c 3.324,0 6,-2.676 6,-6 l 0,-1 c 0,3.324 -2.676,6 -6,6 L 12,89 C 8.676,89 6,86.324 6,83 z"
       id="rect4336"
       inkscape:connector-curvature="0" />
    <path
       id="path4412"
       d="m 6,80 0,1 c 0,3.324 2.676,6 6,6 l 72,0 c 3.324,0 6,-2.676 6,-6 l 0,-1 c 0,3.324 -2.676,6 -6,6 L 12,86 C 8.676,86 6,83.324 6,80 z"
       style="opacity:0.2;fill:#000000;fill-opacity:1;fill-rule:nonzero;stroke:none"
       inkscape:connector-curvature="0" />
  </g>
  <g
     inkscape:label="Button"
     inkscape:groupmode="layer"
     id="layer1">
    <rect
       style="fill:url(#linearGradient3617);fill-opacity:1.0;fill-rule:nonzero;stroke:none"
       id="rect2419"
       width="84"
       height="80"
       x="6"
       y="6"
       rx="6"
       ry="6" />
    <path
       style="opacity:0.2;fill:url(#radialGradient4375);fill-opacity:1;fill-rule:nonzero;stroke:none"
       d="M 120.78125,6.125 C 118.04223,6.6826484 116,9.0915 116,12 l 0,68 c 0,3.324 2.676,6 6,6 l 72,0 c 3.324,0 6,-2.676 6,-6 l 0,-68 c 0,-2.9085 -2.04223,-5.3173516 -4.78125,-5.875 2.20512,0.5362071 3.8125,2.4908437 3.8125,4.875 l 0,68 c 0,2.80489 -2.22636,5.03125 -5.03125,5.03125 l -72,0 c -2.80489,0 -5.03125,-2.22636 -5.03125,-5.03125 l 0,-68 c 0,-2.3841563 1.60738,-4.3387929 3.8125,-4.875 z"
       id="rect4359"
       inkscape:connector-curvature="0" />
    <path
       style="opacity:0.3;fill:url(#linearGradient4390);fill-opacity:1;fill-rule:nonzero;stroke:none"
       d="M 12,86 C 8.676,86 6,83.324 6,80 L 6,12 C 6,8.676 8.676,6 12,6 l 72,0 c 3.324,0 6,2.676 6,6 l 0,68 c 0,3.324 -2.676,6 -6,6 z m 0,-0.96875 72,0 c 2.80489,0 5.03125,-2.22636 5.03125,-5.03125 l 0,-68 C 89.03125,9.19511 86.80489,6.96875 84,6.96875 l -72,0 C 9.1951102,6.96875 6.96875,9.19511 6.96875,12 l 0,68 c 0,2.80489 2.2263602,5.03125 5.03125,5.03125 z"
       id="rect4377"
       inkscape:connector-curvature="0"
       sodipodi:nodetypes="ssssssssssssssssss" />
    <path
       style="opacity:0.1;fill:url(#linearGradient4429);fill-opacity:1;fill-rule:nonzero;stroke:none"
       d="m 6,78 0,2 c 0,3.324 2.676,6 6,6 l 72,0 c 3.324,0 6,-2.676 6,-6 l 0,-2 c 0,3.324 -2.676,6 -6,6 L 12,84 C 8.676,84 6,81.324 6,78 z"
       id="rect4414"
       inkscape:connector-curvature="0" />
  </g>
  <g
     inkscape:groupmode="layer"
     id="layer5"
     inkscape:label="Highlight"
     sodipodi:insensitive="true"
     style="display:inline">
    <rect
       style="opacity:0.1;fill:url(#linearGradient3613);fill-opacity:1;fill-rule:nonzero;stroke:#ffffff;stroke-width:0.5;stroke-linecap:round;stroke-linejoin:miter;stroke-miterlimit:4;stroke-opacity:1;stroke-dasharray:none;stroke-dashoffset:0;filter:url(#filter3794)"
       id="rect3171"
       width="66"
       height="62"
       x="15"
       y="15"
       rx="12"
       ry="12"
       clip-path="url(#clipPath4355)" />
  </g>
  <g
     inkscape:groupmode="layer"
     id="layer6"
     inkscape:label="Symbol">
    <path
       sodipodi:type="inkscape:offset"
       inkscape:radius="1.07469"
       inkscape:original="M 48 16.0625 C 35.302431 15.9897 21.908262 22.065092 15.84375 33.65625 C 11.300845 42.058304 12.489208 52.930588 18.46875 60.3125 C 21.025076 63.623724 24.277549 66.349519 27.875 68.46875 C 27.170317 72.520645 23.836606 75.753303 19.875 76.65625 C 18.165377 77.393061 18.639236 80.238406 20.53125 80.34375 C 27.914658 81.274538 35.552312 78.516986 40.78125 73.25 C 54.449788 75.823635 69.989162 71.088237 78.25 59.5 C 84.43839 51.108978 84.43839 38.891022 78.25 30.5 C 71.48408 20.900961 59.505987 16.028951 48 16.0625 z M 50.78125 28.9375 C 55.211399 28.89246 52.80608 35.461063 49.3125 33.09375 C 47.094659 31.919174 48.512009 28.746494 50.78125 28.9375 z M 46.59375 41.125 C 50.113868 40.612728 51.010358 44.455837 49.875 47.0625 C 48.987847 50.815984 47.301371 54.463222 47.4375 58.375 C 47.39918 60.040827 50.123257 61.523964 47 61.0625 C 43.397004 61.30263 43.231291 57.308237 44.1875 54.8125 C 45.055017 51.168507 46.73427 47.635702 46.59375 43.875 C 46.960258 42.436873 43.975688 40.923825 46.59375 41.125 z "
       style="opacity:0.05;fill:#000000;fill-opacity:1;stroke:none;display:inline"
       id="path3866"
       d="m 48,15 c -13.044689,-0.07479 -26.799426,6.12585 -33.09375,18.15625 -4.76054,8.804567 -3.527652,20.084171 2.71875,27.8125 0.009,0.01172 0.02219,0.01955 0.03125,0.03125 2.458009,3.174154 5.5598,5.774562 8.9375,7.875 -0.845536,3.294454 -3.631111,5.95802 -6.96875,6.71875 a 1.0747975,1.0747975 0 0 0 -0.1875,0.0625 c -2.675202,1.152955 -1.92029,5.480669 0.96875,5.71875 l 0,0.03125 c 0.02091,0.0026 0.04159,-0.0026 0.0625,0 7.515247,0.927077 15.16165,-1.817498 20.59375,-7.03125 13.934681,2.452758 29.606692,-2.38826 38.0625,-14.25 6.48417,-8.792079 6.48417,-21.457921 0,-30.25 C 72.113625,19.927725 59.81153,14.96556 48,15 z m 2.6875,15 a 1.0747975,1.0747975 0 0 0 0.09375,0 c 0.842992,-0.0086 1.083842,0.212269 1.21875,0.4375 0.134908,0.225231 0.15417,0.666951 0,1.09375 -0.15417,0.426799 -0.461268,0.766806 -0.78125,0.90625 -0.319982,0.139444 -0.677577,0.211485 -1.3125,-0.21875 a 1.0747975,1.0747975 0 0 0 -0.09375,-0.0625 c -0.335787,-0.177834 -0.439668,-0.369324 -0.5,-0.5625 -0.06033,-0.193176 -0.03997,-0.427288 0.0625,-0.6875 C 49.57994,30.385827 50.067088,29.947779 50.6875,30 z m -3.40625,12.25 c 0.892138,0.02566 1.408855,0.368246 1.71875,1.09375 0.376508,0.881453 0.324113,2.250135 -0.125,3.28125 a 1.0747975,1.0747975 0 0 0 -0.03125,0.1875 c -0.848579,3.590282 -2.596637,7.314272 -2.46875,11.53125 -5.43e-4,0.02359 1.8e-5,0.03917 0,0.0625 -4.91e-4,0.620509 0.190424,1.140583 0.40625,1.5625 -0.563518,0.0042 -0.967292,-0.09303 -1.21875,-0.28125 -0.283482,-0.212194 -0.518308,-0.556761 -0.65625,-1.03125 -0.275884,-0.948978 -0.120902,-2.419121 0.28125,-3.46875 a 1.0747975,1.0747975 0 0 0 0.03125,-0.125 c 0.811852,-3.410172 2.469865,-6.95062 2.40625,-10.9375 -0.0015,-0.09598 0.03486,-0.184747 0.03125,-0.28125 l -0.09375,0 c 0.0542,-0.601273 -0.03732,-1.175481 -0.25,-1.5625 -0.009,-0.01638 -0.02216,-0.01514 -0.03125,-0.03125 z" />
    <path
       style="opacity:0.07999998;fill:#000000;fill-opacity:1;stroke:none;display:inline"
       d="m 48,16.0625 c -12.697569,-0.0728 -26.09833,5.992644 -32.162842,17.583802 -4.542905,8.402054 -3.350314,19.269182 2.629228,26.651094 2.556326,3.311224 5.811163,6.052123 9.408614,8.171354 -0.704683,4.051895 -4.038394,7.284553 -8,8.1875 -1.709623,0.736811 -1.235764,3.582156 0.65625,3.6875 7.383408,0.930788 15.021062,-1.826764 20.25,-7.09375 13.668538,2.573635 29.221692,-2.163212 37.48253,-13.751449 6.18839,-8.391022 6.18839,-20.60608 0,-28.997102 C 71.49786,20.90241 59.505987,16.028951 48,16.0625 z m 2.78125,12.875 c 4.430149,-0.04504 2.035029,6.509965 -1.458551,4.142652 -2.217841,-1.174576 -0.81069,-4.333658 1.458551,-4.142652 z m -4.1875,12.1875 c 3.520118,-0.512272 4.42274,3.331035 3.287382,5.937698 -0.887153,3.753484 -2.591449,7.408249 -2.45532,11.320027 -0.03832,1.665827 2.700327,3.125871 -0.42293,2.664407 -3.602996,0.24013 -3.761347,-3.729609 -2.805138,-6.225346 0.867517,-3.643993 2.526577,-7.180809 2.386057,-10.941511 0.366508,-1.438127 -2.608162,-2.95645 0.0099,-2.755275 z"
       id="path3860"
       inkscape:connector-curvature="0" />
    <path
       sodipodi:type="inkscape:offset"
       inkscape:radius="0.97628933"
       inkscape:original="M 48 18 C 29.774603 18 15 30.088312 15 45 C 15 54.498438 20.99976 62.843462 30.0625 67.65625 C 29.717875 70.165004 28.148486 76.306067 20.71875 78.40625 C 30.341665 79.452073 36.732351 74.759944 40.125 71.21875 C 42.648507 71.724251 45.286067 72 48 72 C 66.225397 72 81 59.911688 81 45 C 81 30.088312 66.225397 18 48 18 z M 50.78125 27 C 52.015522 27.000035 53.068914 27.427178 53.9375 28.25 C 54.821293 29.07289 55.249984 30.060687 55.25 31.21875 C 55.249984 32.376876 54.821293 33.364672 53.9375 34.1875 C 53.068914 34.995146 52.015522 35.406276 50.78125 35.40625 C 49.546954 35.406276 48.477549 34.995146 47.59375 34.1875 C 46.709932 33.364672 46.281242 32.376876 46.28125 31.21875 C 46.281242 30.060687 46.709932 29.07289 47.59375 28.25 C 48.477549 27.427178 49.546954 27.000035 50.78125 27 z M 46.59375 39.1875 C 48.407072 39.187523 49.806 39.647462 50.78125 40.53125 C 51.771713 41.399841 52.249985 42.535616 52.25 43.9375 C 52.24998 44.227043 52.23243 44.737339 52.15625 45.46875 C 52.09529 46.200194 51.964094 46.859241 51.78125 47.46875 L 49.90625 54.125 C 49.753858 54.658338 49.621894 55.251791 49.5 55.9375 C 49.37808 56.623219 49.312489 57.149528 49.3125 57.5 C 49.312489 58.383819 49.510049 58.992505 49.90625 59.3125 C 50.302429 59.632505 50.993499 59.78125 51.96875 59.78125 C 52.425879 59.78125 52.952188 59.7149 53.53125 59.5625 C 54.110282 59.394876 54.522185 59.246915 54.78125 59.125 L 54.28125 61.1875 C 52.772664 61.781781 51.555284 62.226488 50.65625 62.53125 C 49.757191 62.851255 48.719812 63 47.53125 63 C 45.702672 63 44.270947 62.57131 43.25 61.6875 C 42.244282 60.788457 41.749997 59.652679 41.75 58.28125 C 41.749997 57.747922 41.7988 57.204831 41.875 56.65625 C 41.95119 56.092455 42.051128 55.450962 42.21875 54.75 L 44.09375 48.09375 C 44.261363 47.453765 44.393328 46.845075 44.5 46.28125 C 44.6219 45.702219 44.687495 45.191148 44.6875 44.71875 C 44.687495 43.865435 44.50672 43.272758 44.15625 42.9375 C 43.805769 42.602281 43.146721 42.40627 42.15625 42.40625 C 41.668628 42.40627 41.174343 42.5039 40.65625 42.65625 C 40.153392 42.808651 39.709463 42.956627 39.34375 43.09375 L 39.84375 41.03125 C 41.078033 40.528414 42.278628 40.100498 43.40625 39.75 C 44.533863 39.384308 45.588028 39.187523 46.59375 39.1875 z "
       style="opacity:0.12;fill:#000000;fill-opacity:1;stroke:none;display:inline"
       id="path3856"
       d="m 48,17.03125 c -18.657091,0 -33.96875,12.412186 -33.96875,27.96875 0,9.6643 5.999539,18.090153 14.9375,23.09375 -0.210607,1.193173 -0.650754,2.861117 -1.75,4.5625 -1.255724,1.943576 -3.257507,3.825268 -6.75,4.8125 A 0.97638696,0.97638696 0 0 0 20.625,79.375 C 30.312034,80.427791 36.871139,75.878053 40.46875,72.25 42.897263,72.704401 45.403484,72.96875 48,72.96875 66.657091,72.96875 81.96875,60.556564 81.96875,45 81.96875,29.443436 66.657091,17.03125 48,17.03125 z m 2.78125,10.9375 c 1.009046,2.9e-5 1.795051,0.332193 2.5,1 0.713851,0.664659 0.999987,1.332864 1,2.25 -1.3e-5,0.917212 -0.286175,1.585416 -1,2.25 -0.701317,0.652113 -1.482538,0.968771 -2.5,0.96875 -1.01749,2.1e-5 -1.815162,-0.314364 -2.53125,-0.96875 -0.713844,-0.664584 -1.000006,-1.332799 -1,-2.25 -6e-6,-0.917125 0.28613,-1.585342 1,-2.25 0.71966,-0.670008 1.522176,-0.999971 2.53125,-1 z m -4.1875,12.1875 c 1.648241,2.1e-5 2.775343,0.408735 3.53125,1.09375 0.7904,0.693145 1.156237,1.50766 1.15625,2.6875 -1.7e-5,0.250172 -0.02082,0.73726 -0.09375,1.4375 -0.05536,0.664278 -0.179628,1.265401 -0.34375,1.8125 a 0.97638696,0.97638696 0 0 0 0,0.03125 l -1.875,6.625 0,0.03125 c -0.160763,0.566898 -0.313279,1.207453 -0.4375,1.90625 -0.126428,0.711071 -0.187515,1.246439 -0.1875,1.71875 -1.3e-5,1.029311 0.193922,1.961943 0.9375,2.5625 0.712856,0.575794 1.61298,0.6875 2.6875,0.6875 0.333083,0 0.722473,-0.09556 1.09375,-0.15625 -1.024291,0.39168 -2.052955,0.774303 -2.71875,1 a 0.97638696,0.97638696 0 0 0 0,0.03125 c -0.765588,0.272498 -1.705391,0.40625 -2.8125,0.40625 -1.655182,0 -2.828203,-0.388158 -3.625,-1.0625 -0.01202,-0.01074 -0.01943,-0.02047 -0.03125,-0.03125 -0.7942,-0.724199 -1.156252,-1.53607 -1.15625,-2.65625 -3e-6,-0.473766 0.05306,-0.982126 0.125,-1.5 0.07294,-0.53972 0.160446,-1.138563 0.3125,-1.78125 0.0026,-0.01094 -0.0026,-0.02028 0,-0.03125 l 1.875,-6.625 c 0.174232,-0.665259 0.327346,-1.292773 0.4375,-1.875 0.131212,-0.623266 0.187494,-1.187234 0.1875,-1.75 -6e-6,-0.991197 -0.167895,-1.883374 -0.8125,-2.5 -0.654895,-0.626377 -1.568235,-0.781227 -2.6875,-0.78125 -0.336231,1.4e-5 -0.648564,0.09634 -0.96875,0.15625 0.855904,-0.325331 1.706587,-0.659634 2.5,-0.90625 a 0.97638696,0.97638696 0 0 0 0.03125,0 c 1.055534,-0.342316 1.996613,-0.53123 2.875,-0.53125 z" />
    <path
       id="path3850"
       d="m 48,18 c -18.225397,0 -33,12.088312 -33,27 0,9.498438 5.99976,17.843462 15.0625,22.65625 -0.344625,2.508754 -1.914014,8.649817 -9.34375,10.75 9.622915,1.045823 16.013601,-3.646306 19.40625,-7.1875 C 42.648507,71.724251 45.286067,72 48,72 66.225397,72 81,59.911688 81,45 81,30.088312 66.225397,18 48,18 z m 2.78125,9 c 1.234272,3.5e-5 2.287664,0.427178 3.15625,1.25 0.883793,0.82289 1.312484,1.810687 1.3125,2.96875 -1.6e-5,1.158126 -0.428707,2.145922 -1.3125,2.96875 -0.868586,0.807646 -1.921978,1.218776 -3.15625,1.21875 -1.234296,2.6e-5 -2.303701,-0.411104 -3.1875,-1.21875 -0.883818,-0.822828 -1.312508,-1.810624 -1.3125,-2.96875 -8e-6,-1.158063 0.428682,-2.14586 1.3125,-2.96875 0.883799,-0.822822 1.953204,-1.249965 3.1875,-1.25 z m -4.1875,12.1875 c 1.813322,2.3e-5 3.21225,0.459962 4.1875,1.34375 0.990463,0.868591 1.468735,2.004366 1.46875,3.40625 -2e-5,0.289543 -0.01757,0.799839 -0.09375,1.53125 -0.06096,0.731444 -0.192156,1.390491 -0.375,2 l -1.875,6.65625 c -0.152392,0.533338 -0.284356,1.126791 -0.40625,1.8125 -0.12192,0.685719 -0.187511,1.212028 -0.1875,1.5625 -1.1e-5,0.883819 0.197549,1.492505 0.59375,1.8125 0.396179,0.320005 1.087249,0.46875 2.0625,0.46875 0.457129,0 0.983438,-0.06635 1.5625,-0.21875 0.579032,-0.167624 0.990935,-0.315585 1.25,-0.4375 l -0.5,2.0625 c -1.508586,0.594281 -2.725966,1.038988 -3.625,1.34375 C 49.757191,62.851255 48.719812,63 47.53125,63 45.702672,63 44.270947,62.57131 43.25,61.6875 c -1.005718,-0.899043 -1.500003,-2.034821 -1.5,-3.40625 -3e-6,-0.533328 0.0488,-1.076419 0.125,-1.625 0.07619,-0.563795 0.176128,-1.205288 0.34375,-1.90625 l 1.875,-6.65625 c 0.167613,-0.639985 0.299578,-1.248675 0.40625,-1.8125 0.1219,-0.579031 0.187495,-1.090102 0.1875,-1.5625 -5e-6,-0.853315 -0.18078,-1.445992 -0.53125,-1.78125 -0.350481,-0.335219 -1.009529,-0.53123 -2,-0.53125 -0.487622,2e-5 -0.981907,0.09765 -1.5,0.25 -0.502858,0.152401 -0.946787,0.300377 -1.3125,0.4375 l 0.5,-2.0625 c 1.234283,-0.502836 2.434878,-0.930752 3.5625,-1.28125 1.127613,-0.365692 2.181778,-0.562477 3.1875,-0.5625 z"
       style="fill:#000000;fill-opacity:1;stroke:none;display:inline;opacity:0.3"
       inkscape:connector-curvature="0" />
    <path
       inkscape:connector-curvature="0"
       style="fill:url(#linearGradient3114);fill-opacity:1;stroke:none;display:inline"
       d="m 48,17 c -18.225397,0 -33,12.088312 -33,27 0,9.498438 5.99976,17.843462 15.0625,22.65625 -0.344625,2.508754 -1.914014,8.649817 -9.34375,10.75 9.622915,1.045823 16.013601,-3.646306 19.40625,-7.1875 C 42.648507,70.724251 45.286067,71 48,71 66.225397,71 81,58.911688 81,44 81,29.088312 66.225397,17 48,17 z m 2.78125,9 c 1.234272,3.5e-5 2.287664,0.427178 3.15625,1.25 0.883793,0.82289 1.312484,1.810687 1.3125,2.96875 -1.6e-5,1.158126 -0.428707,2.145922 -1.3125,2.96875 -0.868586,0.807646 -1.921978,1.218776 -3.15625,1.21875 -1.234296,2.6e-5 -2.303701,-0.411104 -3.1875,-1.21875 -0.883818,-0.822828 -1.312508,-1.810624 -1.3125,-2.96875 -8e-6,-1.158063 0.428682,-2.14586 1.3125,-2.96875 0.883799,-0.822822 1.953204,-1.249965 3.1875,-1.25 z m -4.1875,12.1875 c 1.813322,2.3e-5 3.21225,0.459962 4.1875,1.34375 0.990463,0.868591 1.468735,2.004366 1.46875,3.40625 -2e-5,0.289543 -0.01757,0.799839 -0.09375,1.53125 -0.06096,0.731444 -0.192156,1.390491 -0.375,2 l -1.875,6.65625 c -0.152392,0.533338 -0.284356,1.126791 -0.40625,1.8125 -0.12192,0.685719 -0.187511,1.212028 -0.1875,1.5625 -1.1e-5,0.883819 0.197549,1.492505 0.59375,1.8125 0.396179,0.320005 1.087249,0.46875 2.0625,0.46875 0.457129,0 0.983438,-0.06635 1.5625,-0.21875 0.579032,-0.167624 0.990935,-0.315585 1.25,-0.4375 l -0.5,2.0625 c -1.508586,0.594281 -2.725966,1.038988 -3.625,1.34375 C 49.757191,61.851255 48.719812,62 47.53125,62 45.702672,62 44.270947,61.57131 43.25,60.6875 c -1.005718,-0.899043 -1.500003,-2.034821 -1.5,-3.40625 -3e-6,-0.533328 0.0488,-1.076419 0.125,-1.625 0.07619,-0.563795 0.176128,-1.205288 0.34375,-1.90625 l 1.875,-6.65625 c 0.167613,-0.639985 0.299578,-1.248675 0.40625,-1.8125 0.1219,-0.579031 0.187495,-1.090102 0.1875,-1.5625 -5e-6,-0.853315 -0.18078,-1.445992 -0.53125,-1.78125 -0.350481,-0.335219 -1.009529,-0.53123 -2,-0.53125 -0.487622,2e-5 -0.981907,0.09765 -1.5,0.25 -0.502858,0.152401 -0.946787,0.300377 -1.3125,0.4375 l 0.5,-2.0625 c 1.234283,-0.502836 2.434878,-0.930752 3.5625,-1.28125 1.127613,-0.365692 2.181778,-0.562477 3.1875,-0.5625 z"
       id="path3620" />
    <path
       inkscape:connector-curvature="0"
       style="opacity:0.4;fill:url(#linearGradient3746);fill-opacity:1;stroke:none;display:inline"
       d="m 48,17 c -18.225397,0 -33,12.088312 -33,27 0,0.208408 0.0255,0.417728 0.03125,0.625 C 15.915093,30.359014 30.344147,19 48,19 65.811103,19 80.318034,30.557401 80.96875,45 80.983886,44.664059 81,44.338968 81,44 81,29.088312 66.225397,17 48,17 z m -1.59375,14.21875 c -0.07734,0.315923 -0.125002,0.653784 -0.125,1 -8e-6,1.158126 0.428682,2.145922 1.3125,2.96875 0.883799,0.807646 1.953204,1.218776 3.1875,1.21875 1.234272,2.6e-5 2.287664,-0.411104 3.15625,-1.21875 0.883793,-0.822828 1.312484,-1.810624 1.3125,-2.96875 -5e-6,-0.346216 -0.04766,-0.684077 -0.125,-1 -0.181353,0.74083 -0.567927,1.391916 -1.1875,1.96875 -0.868586,0.807646 -1.921978,1.218776 -3.15625,1.21875 -1.234296,2.6e-5 -2.303701,-0.411104 -3.1875,-1.21875 -0.619591,-0.576834 -1.006154,-1.22792 -1.1875,-1.96875 z m -4.25,10.1875 c -0.31552,1.3e-5 -0.643006,0.05487 -0.96875,0.125 -0.44524,0.165332 -0.887309,0.31405 -1.34375,0.5 l -0.5,2.0625 c 0.365713,-0.137123 0.809642,-0.285099 1.3125,-0.4375 0.518093,-0.15235 1.012378,-0.24998 1.5,-0.25 0.990471,2e-5 1.649519,0.196031 2,0.53125 0.197387,0.18882 0.349747,0.459797 0.4375,0.8125 0.05642,-0.361246 0.09375,-0.713815 0.09375,-1.03125 -5e-6,-0.853315 -0.18078,-1.445992 -0.53125,-1.78125 -0.350481,-0.335219 -1.009529,-0.53123 -2,-0.53125 z m 10.03125,2.75 c -0.01103,0.131118 -0.01567,0.162879 -0.03125,0.3125 -0.06096,0.731444 -0.192156,1.390491 -0.375,2 l -1.875,6.65625 c -0.152392,0.533338 -0.284356,1.126791 -0.40625,1.8125 -0.12192,0.685719 -0.187511,1.212028 -0.1875,1.5625 -5e-6,0.373673 0.05429,0.694464 0.125,0.96875 0.02578,-0.172785 0.02686,-0.330815 0.0625,-0.53125 0.121894,-0.685709 0.253858,-1.279162 0.40625,-1.8125 l 1.875,-6.65625 c 0.182844,-0.609509 0.31404,-1.268556 0.375,-2 0.07618,-0.731411 0.09373,-1.241707 0.09375,-1.53125 -3e-6,-0.273456 -0.02585,-0.528053 -0.0625,-0.78125 z M 41.8125,58.0625 c -0.04575,0.408569 -0.0625,0.819338 -0.0625,1.21875 -3e-6,1.371429 0.494282,2.507207 1.5,3.40625 1.020947,0.88381 2.452672,1.3125 4.28125,1.3125 1.188562,0 2.225941,-0.148745 3.125,-0.46875 0.899034,-0.304762 2.116414,-0.749469 3.625,-1.34375 l 0.5,-2.0625 c -0.259065,0.121915 -0.670968,0.269876 -1.25,0.4375 -0.188753,0.04968 -0.354276,0.06168 -0.53125,0.09375 -0.841033,0.317027 -1.761977,0.677786 -2.34375,0.875 C 49.757191,61.851255 48.719812,62 47.53125,62 45.702672,62 44.270947,61.57131 43.25,60.6875 42.446722,59.969424 41.971987,59.082069 41.8125,58.0625 z m -12.125,10.375 c -0.788875,2.925833 -2.942108,7.265183 -8.96875,8.96875 1.438598,0.156348 2.798846,0.170865 4.09375,0.09375 3.95088,-2.735394 4.981412,-6.888521 5.25,-8.84375 -0.129197,-0.06861 -0.247056,-0.148711 -0.375,-0.21875 z"
       id="path3666" />
    <path
       style="fill:url(#linearGradient3881);fill-opacity:1;stroke:none;display:inline"
       d="M 48 17 C 29.774603 17 15 29.088312 15 44 C 15 53.498438 20.99976 61.843462 30.0625 66.65625 C 29.717875 69.165004 28.148486 75.306067 20.71875 77.40625 C 30.341665 78.452073 36.732351 73.759944 40.125 70.21875 C 42.648507 70.724251 45.286067 71 48 71 C 66.225397 71 81 58.911688 81 44 C 81 29.088312 66.225397 17 48 17 z M 48 17.96875 C 65.799232 17.96875 80.03125 29.724929 80.03125 44 C 80.03125 58.275071 65.799232 70.03125 48 70.03125 C 45.351351 70.03125 42.775377 69.774606 40.3125 69.28125 A 0.96388215 0.96388215 0 0 0 39.4375 69.5625 C 36.737655 72.380556 31.996356 75.759637 25.25 76.34375 C 26.817191 75.274582 28.007564 74.012976 28.84375 72.71875 C 30.314922 70.441709 30.846523 68.126 31.03125 66.78125 A 0.96388215 0.96388215 0 0 0 30.5 65.8125 C 21.689226 61.133519 15.96875 53.092583 15.96875 44 C 15.96875 29.724929 30.200768 17.96875 48 17.96875 z M 50.78125 25.03125 C 49.324617 25.031291 47.983336 25.557571 46.9375 26.53125 C 45.885911 27.510345 45.31249 28.822835 45.3125 30.21875 C 45.31249 31.614715 45.885885 32.927204 46.9375 33.90625 C 47.986862 34.865193 49.332925 35.375031 50.78125 35.375 C 52.229555 35.375031 53.560037 34.867437 54.59375 33.90625 C 55.645335 32.927205 56.218731 31.614705 56.21875 30.21875 C 56.218731 28.83134 55.633057 27.5395 54.59375 26.5625 C 54.587242 26.556335 54.569032 26.56863 54.5625 26.5625 C 53.535094 25.598312 52.228661 25.031291 50.78125 25.03125 z M 50.78125 26 C 52.015522 26.000035 53.068914 26.427178 53.9375 27.25 C 54.821293 28.07289 55.249984 29.060687 55.25 30.21875 C 55.249984 31.376876 54.821293 32.364672 53.9375 33.1875 C 53.068914 33.995146 52.015522 34.406276 50.78125 34.40625 C 49.546954 34.406276 48.477549 33.995146 47.59375 33.1875 C 46.709932 32.364672 46.281242 31.376876 46.28125 30.21875 C 46.281242 29.060687 46.709932 28.07289 47.59375 27.25 C 48.477549 26.427178 49.546954 26.000035 50.78125 26 z M 46.59375 37.21875 C 45.472114 37.218776 44.31264 37.461233 43.125 37.84375 C 43.114634 37.847089 43.104123 37.840386 43.09375 37.84375 C 41.94669 38.201136 40.718747 38.615762 39.46875 39.125 A 0.96388215 0.96388215 0 0 0 38.90625 39.8125 L 38.40625 41.875 A 0.96388215 0.96388215 0 0 0 39.6875 43 C 40.026568 42.872867 40.449688 42.741591 40.9375 42.59375 C 41.403336 42.456767 41.797245 42.375015 42.15625 42.375 C 43.019576 42.375017 43.450034 42.57721 43.5 42.625 C 43.560102 42.682493 43.718746 43.001551 43.71875 43.71875 C 43.718746 44.101937 43.675207 44.558387 43.5625 45.09375 C 43.459265 45.639409 43.317329 46.228715 43.15625 46.84375 L 41.28125 53.5 A 0.96388215 0.96388215 0 0 0 41.28125 53.53125 C 41.102847 54.277296 40.984426 54.952761 40.90625 55.53125 C 40.825839 56.110145 40.781247 56.689123 40.78125 57.28125 C 40.781246 58.884256 41.404321 60.342982 42.59375 61.40625 A 0.96388215 0.96388215 0 0 0 42.625 61.40625 C 43.866455 62.480949 45.552039 62.96875 47.53125 62.96875 C 48.800222 62.96875 49.937929 62.804403 50.96875 62.4375 C 51.887229 62.126146 53.104456 61.692742 54.625 61.09375 A 0.96388215 0.96388215 0 0 0 55.21875 60.40625 L 55.71875 58.34375 A 0.96388215 0.96388215 0 0 0 54.375 57.25 C 54.204594 57.330192 53.810019 57.470411 53.28125 57.625 C 53.267692 57.628964 53.26377 57.621014 53.25 57.625 C 52.757926 57.751611 52.32413 57.8125 51.96875 57.8125 C 51.091497 57.8125 50.583558 57.629992 50.5 57.5625 C 50.446727 57.519474 50.281241 57.24019 50.28125 56.5 C 50.281243 56.269807 50.32003 55.754442 50.4375 55.09375 C 50.555186 54.431713 50.702865 53.868066 50.84375 53.375 L 52.71875 46.75 L 52.71875 46.71875 C 52.915744 46.055346 53.059432 45.349233 53.125 44.5625 C 53.204385 43.800318 53.218727 43.26591 53.21875 42.9375 C 53.218733 41.325388 52.581265 39.884457 51.40625 38.84375 L 51.40625 38.8125 C 50.215857 37.74485 48.558965 37.218775 46.59375 37.21875 z M 46.59375 38.1875 C 48.407072 38.187523 49.806 38.647462 50.78125 39.53125 C 51.771713 40.399841 52.249985 41.535616 52.25 42.9375 C 52.24998 43.227043 52.23243 43.737339 52.15625 44.46875 C 52.09529 45.200194 51.964094 45.859241 51.78125 46.46875 L 49.90625 53.125 C 49.753858 53.658338 49.621894 54.251791 49.5 54.9375 C 49.37808 55.623219 49.312489 56.149528 49.3125 56.5 C 49.312489 57.383819 49.510049 57.992505 49.90625 58.3125 C 50.302429 58.632505 50.993499 58.78125 51.96875 58.78125 C 52.425879 58.78125 52.952188 58.7149 53.53125 58.5625 C 54.110282 58.394876 54.522185 58.246915 54.78125 58.125 L 54.28125 60.1875 C 52.772664 60.781781 51.555284 61.226488 50.65625 61.53125 C 49.757191 61.851255 48.719812 62 47.53125 62 C 45.702672 62 44.270947 61.57131 43.25 60.6875 C 42.244282 59.788457 41.749997 58.652679 41.75 57.28125 C 41.749997 56.747922 41.7988 56.204831 41.875 55.65625 C 41.95119 55.092455 42.051128 54.450962 42.21875 53.75 L 44.09375 47.09375 C 44.261363 46.453765 44.393328 45.845075 44.5 45.28125 C 44.6219 44.702219 44.687495 44.191148 44.6875 43.71875 C 44.687495 42.865435 44.50672 42.272758 44.15625 41.9375 C 43.805769 41.602281 43.146721 41.40627 42.15625 41.40625 C 41.668628 41.40627 41.174343 41.5039 40.65625 41.65625 C 40.153392 41.808651 39.709463 41.956627 39.34375 42.09375 L 39.84375 40.03125 C 41.078033 39.528414 42.278628 39.100498 43.40625 38.75 C 44.533863 38.384308 45.588028 38.187523 46.59375 38.1875 z "
       id="path3868" />
  </g>
</svg>
