<?xml version="1.0" encoding="UTF-8" standalone="no"?>
<!-- Created with Inkscape (http://www.inkscape.org/) -->

<svg
   xmlns:dc="http://purl.org/dc/elements/1.1/"
   xmlns:cc="http://creativecommons.org/ns#"
   xmlns:rdf="http://www.w3.org/1999/02/22-rdf-syntax-ns#"
   xmlns:svg="http://www.w3.org/2000/svg"
   xmlns="http://www.w3.org/2000/svg"
   xmlns:xlink="http://www.w3.org/1999/xlink"
   xmlns:sodipodi="http://sodipodi.sourceforge.net/DTD/sodipodi-0.dtd"
   xmlns:inkscape="http://www.inkscape.org/namespaces/inkscape"
   width="96"
   height="96"
   id="svg2408"
   sodipodi:version="0.32"
   inkscape:version="0.92.2 5c3e80d, 2017-08-06"
   version="1.0"
   sodipodi:docname="distributor-logo-gentoo.svg"
   inkscape:output_extension="org.inkscape.output.svg.inkscape">
  <defs
     id="defs2410">
    <inkscape:perspective
       sodipodi:type="inkscape:persp3d"
       inkscape:vp_x="0 : 48 : 1"
       inkscape:vp_y="0 : 1000 : 0"
       inkscape:vp_z="96 : 48 : 1"
       inkscape:persp3d-origin="48 : 32 : 1"
       id="perspective48" />
    <linearGradient
       id="ButtonShadow"
       gradientTransform="scale(1.0058652,0.994169)"
       x1="45.447727"
       y1="92.539597"
       x2="45.447727"
       y2="7.0165396"
       gradientUnits="userSpaceOnUse">
      <stop
         style="stop-color:#000000;stop-opacity:1;"
         offset="0"
         id="stop3750" />
      <stop
         style="stop-color:#000000;stop-opacity:0.58823532;"
         offset="1"
         id="stop3752" />
    </linearGradient>
    <linearGradient
       inkscape:collect="always"
       id="linearGradient3737">
      <stop
         style="stop-color:#ffffff;stop-opacity:1;"
         offset="0"
         id="stop3739" />
      <stop
         style="stop-color:#ffffff;stop-opacity:0;"
         offset="1"
         id="stop3741" />
    </linearGradient>
    <linearGradient
       id="linearGradient3700">
      <stop
         style="stop-color:#6946a0;stop-opacity:1;"
         offset="0"
         id="stop3702" />
      <stop
         style="stop-color:#ad95d1;stop-opacity:1;"
         offset="1"
         id="stop3704" />
    </linearGradient>
    <filter
       inkscape:collect="always"
       id="filter3174">
      <feGaussianBlur
         inkscape:collect="always"
         stdDeviation="1.71"
         id="feGaussianBlur3176" />
    </filter>
    <filter
       inkscape:collect="always"
       id="filter3794"
       x="-0.192"
       width="1.384"
       y="-0.192"
       height="1.384">
      <feGaussianBlur
         inkscape:collect="always"
         stdDeviation="5.28"
         id="feGaussianBlur3796" />
    </filter>
    <linearGradient
       inkscape:collect="always"
       xlink:href="#linearGradient3737"
       id="linearGradient3613"
       x1="48"
       y1="20.220806"
       x2="48"
       y2="138.66119"
       gradientUnits="userSpaceOnUse" />
    <clipPath
       clipPathUnits="userSpaceOnUse"
       id="clipPath3613">
      <rect
         ry="6"
         rx="6"
         y="6"
         x="6"
         height="84"
         width="84"
         id="rect3615"
         style="fill:#ffffff;fill-opacity:1;fill-rule:nonzero;stroke:none" />
    </clipPath>
    <linearGradient
       inkscape:collect="always"
       xlink:href="#linearGradient4108"
       id="linearGradient3617"
       gradientUnits="userSpaceOnUse"
       x1="48"
       y1="90"
       x2="48"
       y2="5.9877172" />
    <linearGradient
       id="ButtonShadow-0"
       gradientTransform="matrix(1.0058652,0,0,0.994169,100,0)"
       x1="45.447727"
       y1="92.539597"
       x2="45.447727"
       y2="7.0165396"
       gradientUnits="userSpaceOnUse">
      <stop
         style="stop-color:#000000;stop-opacity:1;"
         offset="0"
         id="stop3750-8" />
      <stop
         style="stop-color:#000000;stop-opacity:0.58823532;"
         offset="1"
         id="stop3752-5" />
    </linearGradient>
    <linearGradient
       inkscape:collect="always"
       xlink:href="#ButtonShadow-0"
       id="linearGradient3780"
       gradientUnits="userSpaceOnUse"
       gradientTransform="matrix(1.0238095,0,0,1.0119048,-1.1428571,-98.071429)"
       x1="32.251034"
       y1="6.1317081"
       x2="32.251034"
       y2="90.238609" />
    <linearGradient
       inkscape:collect="always"
       xlink:href="#ButtonShadow-0"
       id="linearGradient3772"
       gradientUnits="userSpaceOnUse"
       gradientTransform="matrix(1.0238095,0,0,1.0119048,-1.1428571,-98.071429)"
       x1="32.251034"
       y1="6.1317081"
       x2="32.251034"
       y2="90.238609" />
    <linearGradient
       inkscape:collect="always"
       xlink:href="#ButtonShadow-0"
       id="linearGradient3725"
       gradientUnits="userSpaceOnUse"
       gradientTransform="matrix(1.0238095,0,0,1.0119048,-1.1428571,-98.071429)"
       x1="32.251034"
       y1="6.1317081"
       x2="32.251034"
       y2="90.238609" />
    <linearGradient
       inkscape:collect="always"
       xlink:href="#ButtonShadow-0"
       id="linearGradient3721"
       gradientUnits="userSpaceOnUse"
       gradientTransform="translate(0,-97)"
       x1="32.251034"
       y1="6.1317081"
       x2="32.251034"
       y2="90.238609" />
    <linearGradient
       y2="90.238609"
       x2="32.251034"
       y1="6.1317081"
       x1="32.251034"
       gradientTransform="matrix(1.0238095,0,0,1.0119048,-1.1428571,-98.071429)"
       gradientUnits="userSpaceOnUse"
       id="linearGradient3026"
       xlink:href="#ButtonShadow-0"
       inkscape:collect="always" />
    <radialGradient
       gradientUnits="userSpaceOnUse"
       gradientTransform="matrix(3.287367,0,0,2.519654,111.6891,-642.7214)"
       r="31.94874"
       fy="320.08572"
       fx="49.529819"
       cy="320.08572"
       cx="49.529819"
       id="radialGradient5851"
       xlink:href="#linearGradient3004"
       inkscape:collect="always" />
    <radialGradient
       r="218.02184"
       fy="590.5899"
       fx="332.72311"
       cy="590.5899"
       cx="332.72311"
       gradientTransform="matrix(-0.0660395,4.190266,-3.573754,-0.05626827,2168.154,-1171.421)"
       gradientUnits="userSpaceOnUse"
       id="radialGradient3228"
       xlink:href="#linearGradient3004"
       inkscape:collect="always" />
    <radialGradient
       gradientUnits="userSpaceOnUse"
       gradientTransform="matrix(-0.784367,2.082605,-1.36893,-0.515577,1619.589,-726.3586)"
       r="77.994896"
       fy="357.7851"
       fx="616.66583"
       cy="357.7851"
       cx="616.66583"
       id="radialGradient2075"
       xlink:href="#linearGradient2085"
       inkscape:collect="always" />
    <radialGradient
       gradientUnits="userSpaceOnUse"
       gradientTransform="matrix(1.586984,6.491459e-2,-3.791318e-3,0.906694,-164.0892,16.62349)"
       r="30.535715"
       fy="374.32648"
       fx="281.96429"
       cy="374.32648"
       cx="281.96429"
       id="radialGradient3566"
       xlink:href="#linearGradient3560"
       inkscape:collect="always" />
    <radialGradient
       gradientUnits="userSpaceOnUse"
       gradientTransform="matrix(-1.335307,0.232165,-0.156016,-0.897333,707.4359,624.6685)"
       r="22.023195"
       fy="365.99103"
       fx="278.19101"
       cy="365.99103"
       cx="278.19101"
       id="radialGradient3553"
       xlink:href="#linearGradient3539"
       inkscape:collect="always" />
    <linearGradient
       gradientTransform="matrix(0.413051,0,0,0.413051,209.7551,299.5351)"
       y2="205.21933"
       x2="-32.857155"
       y1="185.21933"
       x1="34.285702"
       gradientUnits="userSpaceOnUse"
       id="linearGradient2801"
       xlink:href="#linearGradient3004"
       inkscape:collect="always" />
    <radialGradient
       r="218.02184"
       fy="512.46417"
       fx="298.04648"
       cy="512.46417"
       cx="298.04648"
       gradientTransform="matrix(-2.182864e-2,-1.020879,1.918033,-4.101524e-2,-759.031,896.8714)"
       gradientUnits="userSpaceOnUse"
       id="radialGradient2788"
       xlink:href="#linearGradient3004"
       inkscape:collect="always" />
    <linearGradient
       y2="560.31262"
       x2="305.19791"
       y1="560.31262"
       x1="142.8909"
       gradientUnits="userSpaceOnUse"
       id="linearGradient2786"
       xlink:href="#linearGradient3004"
       inkscape:collect="always" />
    <linearGradient
       gradientTransform="matrix(1.237124,0,0,1.237124,-1037.425,-1010.413)"
       gradientUnits="userSpaceOnUse"
       y2="1340.5599"
       x2="1099.6853"
       y1="-313.5238"
       x1="783.86316"
       id="linearGradient2994"
       xlink:href="#linearGradient3004"
       inkscape:collect="always" />
    <linearGradient
       gradientTransform="matrix(1.237124,0,0,1.237124,-161.0905,-377.3414)"
       gradientUnits="userSpaceOnUse"
       y2="269.70941"
       x2="368.62137"
       y1="697.43707"
       x1="464.01675"
       id="linearGradient2986"
       xlink:href="#linearGradient3004"
       inkscape:collect="always" />
    <linearGradient
       id="linearGradient2127">
      <stop
         id="stop2129"
         offset="0.0000000"
         style="stop-color:#cc0045;stop-opacity:1.0000000;" />
      <stop
         id="stop2131"
         offset="1.0000000"
         style="stop-color:#ff794d;stop-opacity:1.0000000;" />
    </linearGradient>
    <linearGradient
       id="linearGradient2980">
      <stop
         id="stop2982"
         offset="0.0000000"
         style="stop-color:#e76226;stop-opacity:1.0000000;" />
      <stop
         id="stop2984"
         offset="1.0000000"
         style="stop-color:#7e3615;stop-opacity:1.0000000;" />
    </linearGradient>
    <linearGradient
       id="linearGradient2988">
      <stop
         id="stop2990"
         offset="0.0000000"
         style="stop-color:#c9491c;stop-opacity:1.0000000;" />
      <stop
         id="stop2992"
         offset="1.0000000"
         style="stop-color:#6b2e26;stop-opacity:1.0000000;" />
    </linearGradient>
    <linearGradient
       id="linearGradient3004">
      <stop
         style="stop-color:#ffffff;stop-opacity:1;"
         offset="0"
         id="stop3006" />
      <stop
         id="stop7609"
         offset="0.34214258"
         style="stop-color:#ffffff;stop-opacity:1;" />
      <stop
         id="stop7599"
         offset="0.51998252"
         style="stop-color:#bebdf3;stop-opacity:1;" />
      <stop
         style="stop-color:#8f82f9;stop-opacity:1;"
         offset="0.75408828"
         id="stop7611" />
      <stop
         id="stop7613"
         offset="0.8711412"
         style="stop-color:#9f99c7;stop-opacity:1;" />
      <stop
         style="stop-color:#524c76;stop-opacity:1;"
         offset="1"
         id="stop3008" />
    </linearGradient>
    <linearGradient
       id="linearGradient3539"
       inkscape:collect="always">
      <stop
         id="stop3541"
         offset="0"
         style="stop-color:#ffffff;stop-opacity:1;" />
      <stop
         id="stop3543"
         offset="1"
         style="stop-color:#ffffff;stop-opacity:0;" />
    </linearGradient>
    <linearGradient
       id="linearGradient3560"
       inkscape:collect="always">
      <stop
         id="stop3562"
         offset="0"
         style="stop-color:#ffffff;stop-opacity:1;" />
      <stop
         id="stop3564"
         offset="1"
         style="stop-color:#ffffff;stop-opacity:0;" />
    </linearGradient>
    <linearGradient
       id="linearGradient2077">
      <stop
         style="stop-color:#ed5b1a;stop-opacity:1.0000000;"
         offset="0.0000000"
         id="stop2079" />
      <stop
         id="stop2083"
         offset="0.50000000"
         style="stop-color:#ed5b1a;stop-opacity:1.0000000;" />
      <stop
         style="stop-color:#7e3615;stop-opacity:1.0000000;"
         offset="1.0000000"
         id="stop2081" />
    </linearGradient>
    <linearGradient
       id="linearGradient2085">
      <stop
         id="stop2087"
         offset="0.0000000"
         style="stop-color:#7f3615;stop-opacity:1.0000000;" />
      <stop
         style="stop-color:#ef743d;stop-opacity:1.0000000;"
         offset="0.50000000"
         id="stop2089" />
      <stop
         id="stop2091"
         offset="1.0000000"
         style="stop-color:#ef743d;stop-opacity:1.0000000;" />
    </linearGradient>
    <linearGradient
       id="linearGradient2096">
      <stop
         id="stop2098"
         offset="0.0000000"
         style="stop-color:#7e3615;stop-opacity:1.0000000;" />
      <stop
         style="stop-color:#7e3615;stop-opacity:1.0000000;"
         offset="0.50000000"
         id="stop2100" />
      <stop
         id="stop2102"
         offset="1.0000000"
         style="stop-color:#ed5b1a;stop-opacity:1.0000000;" />
    </linearGradient>
    <radialGradient
       inkscape:collect="always"
       xlink:href="#linearGradient3004"
       id="radialGradient3954"
       gradientUnits="userSpaceOnUse"
       gradientTransform="matrix(-0.00678955,0.4308033,-0.3674194,-0.00578497,237.69889,-107.05822)"
       cx="332.72311"
       cy="590.5899"
       fx="332.72311"
       fy="590.5899"
       r="218.02184" />
    <radialGradient
       inkscape:collect="always"
       xlink:href="#linearGradient3004"
       id="radialGradient3961"
       gradientUnits="userSpaceOnUse"
       gradientTransform="matrix(0.33797581,0,0,0.25904686,26.272724,-52.702358)"
       cx="49.529819"
       cy="320.08572"
       fx="49.529819"
       fy="320.08572"
       r="31.94874" />
    <linearGradient
       inkscape:collect="always"
       xlink:href="#linearGradient3004"
       id="linearGradient3964"
       gradientUnits="userSpaceOnUse"
       gradientTransform="matrix(0.12718932,0,0,0.12718932,-1.7718802,-25.41851)"
       x1="464.01675"
       y1="697.43707"
       x2="368.62137"
       y2="269.70941" />
    <linearGradient
       inkscape:collect="always"
       xlink:href="#linearGradient3004"
       id="linearGradient3969"
       gradientUnits="userSpaceOnUse"
       gradientTransform="matrix(0.12718932,0,0,0.12718932,-91.86826,-90.504912)"
       x1="783.86316"
       y1="-313.5238"
       x2="1099.6853"
       y2="1340.5599" />
    <linearGradient
       inkscape:collect="always"
       xlink:href="#linearGradient4108"
       id="linearGradient3181"
       x1="-3.0607977"
       y1="27.258198"
       x2="-3.0607977"
       y2="7.2536583"
       gradientUnits="userSpaceOnUse"
       gradientTransform="translate(12.119372,-7.2581977)" />
    <linearGradient
       id="linearGradient4108">
      <stop
         id="stop4110"
         offset="0"
         style="stop-color:#8983ac;stop-opacity:1;" />
      <stop
         id="stop4112"
         offset="1"
         style="stop-color:#ceccdd;stop-opacity:1;" />
    </linearGradient>
    <linearGradient
       y2="7.2536583"
       x2="-3.0607977"
       y1="27.258198"
       x1="-3.0607977"
       gradientTransform="translate(92.119372,18.741802)"
       gradientUnits="userSpaceOnUse"
       id="linearGradient4129"
       xlink:href="#linearGradient4108"
       inkscape:collect="always" />
    <linearGradient
       id="linearGradient4390"
       x1="48"
       x2="48"
       y1="88"
       y2="-40"
       gradientTransform="matrix(1,0,0,-1,0,92)"
       gradientUnits="userSpaceOnUse"
       xlink:href="#linearGradient3737" />
    <linearGradient
       id="linearGradient4429"
       x1="48"
       x2="112.12"
       y1="82"
       y2="82.455002"
       gradientUnits="userSpaceOnUse"
       spreadMethod="reflect"
       xlink:href="#linearGradient3737" />
    <linearGradient
       id="linearGradient3228"
       x1="90"
       x2="48"
       y1="88"
       y2="88"
       gradientUnits="userSpaceOnUse"
       spreadMethod="reflect">
      <stop
         id="stop3894"
         stop-opacity=".58824"
         offset="0" />
      <stop
         id="stop3896"
         stop-opacity=".47059"
         offset=".1178" />
      <stop
         id="stop3898"
         stop-opacity=".39216"
         offset=".2381" />
      <stop
         id="stop3900"
         stop-opacity=".31373"
         offset="1" />
    </linearGradient>
  </defs>
  <sodipodi:namedview
     id="base"
     pagecolor="#ffffff"
     bordercolor="#666666"
     borderopacity="1.0"
     inkscape:pageopacity="0.0"
     inkscape:pageshadow="2"
     inkscape:zoom="4.6943389"
     inkscape:cx="32.221705"
     inkscape:cy="41.902053"
     inkscape:document-units="px"
     inkscape:current-layer="layer4"
     showgrid="true"
     showborder="true"
     inkscape:showpageshadow="false"
     inkscape:window-width="1366"
     inkscape:window-height="743"
     inkscape:window-x="0"
     inkscape:window-y="25"
     inkscape:window-maximized="1">
    <inkscape:grid
       type="xygrid"
       id="grid3732"
       visible="true"
       enabled="true" />
  </sodipodi:namedview>
  <metadata
     id="metadata2413">
    <rdf:RDF>
      <cc:Work
         rdf:about="">
        <dc:format>image/svg+xml</dc:format>
        <dc:type
           rdf:resource="http://purl.org/dc/dcmitype/StillImage" />
        <dc:title />
      </cc:Work>
    </rdf:RDF>
  </metadata>
  <g
     inkscape:groupmode="layer"
     id="layer2"
     inkscape:label="Blur Shadow"
     style="display:none"
     sodipodi:insensitive="true">
    <rect
       style="opacity:0.9;fill:url(#ButtonShadow);fill-opacity:1;fill-rule:nonzero;stroke:none;filter:url(#filter3174)"
       id="rect3745"
       width="86"
       height="85"
       x="5"
       y="7"
       rx="6"
       ry="6" />
  </g>
  <g
     inkscape:groupmode="layer"
     id="layer3"
     inkscape:label="Shadow"
     sodipodi:insensitive="true">
    <path
       sodipodi:type="inkscape:offset"
       inkscape:radius="0.99097413"
       inkscape:original="M 12 -94.03125 C 7.028367 -94.03125 2.96875 -89.971633 2.96875 -85 L 2.96875 -14 C 2.96875 -9.0283671 7.0283671 -4.96875 12 -4.96875 L 84 -4.96875 C 88.971633 -4.96875 93.03125 -9.028367 93.03125 -14 L 93.03125 -85 C 93.03125 -89.971633 88.971633 -94.03125 84 -94.03125 L 12 -94.03125 z "
       style="opacity:0.07999998;fill:url(#linearGradient3026);fill-opacity:1;fill-rule:nonzero;stroke:none;display:inline"
       id="path3786"
       d="m 12,-95.03125 c -5.5110903,0 -10.03125,4.52016 -10.03125,10.03125 l 0,71 c 0,5.5110902 4.5201598,10.03125 10.03125,10.03125 l 72,0 c 5.51109,0 10.03125,-4.5201597 10.03125,-10.03125 l 0,-71 c 0,-5.51109 -4.52016,-10.03125 -10.03125,-10.03125 l -72,0 z"
       transform="scale(1,-1)" />
    <path
       sodipodi:type="inkscape:offset"
       inkscape:radius="1.0360184"
       inkscape:original="M 12 -93 C 7.5908667 -93 4 -89.409133 4 -85 L 4 -14 C 4 -9.5908667 7.5908667 -6 12 -6 L 84 -6 C 88.409133 -6 92 -9.5908667 92 -14 L 92 -85 C 92 -89.409133 88.409133 -93 84 -93 L 12 -93 z "
       style="opacity:0.1;fill:url(#linearGradient3780);fill-opacity:1;fill-rule:nonzero;stroke:none;display:inline"
       id="path3778"
       d="m 12,-94.03125 c -4.971633,0 -9.03125,4.059617 -9.03125,9.03125 l 0,71 c 0,4.9716329 4.0596171,9.03125 9.03125,9.03125 l 72,0 c 4.971633,0 9.03125,-4.059617 9.03125,-9.03125 l 0,-71 c 0,-4.971633 -4.059617,-9.03125 -9.03125,-9.03125 l -72,0 z"
       transform="scale(1,-1)" />
    <path
       sodipodi:type="inkscape:offset"
       inkscape:radius="0.98962283"
       inkscape:original="M 12 -92 C 8.122 -92 5 -88.878 5 -85 L 5 -14 C 5 -10.122 8.122 -7 12 -7 L 84 -7 C 87.878 -7 91 -10.122 91 -14 L 91 -85 C 91 -88.878 87.878 -92 84 -92 L 12 -92 z "
       style="opacity:0.2;fill:url(#linearGradient3772);fill-opacity:1;fill-rule:nonzero;stroke:none;display:inline"
       id="path3770"
       d="m 12,-93 c -4.4091333,0 -8,3.590867 -8,8 l 0,71 c 0,4.4091333 3.5908667,8 8,8 l 72,0 c 4.409133,0 8,-3.5908667 8,-8 l 0,-71 c 0,-4.409133 -3.590867,-8 -8,-8 l -72,0 z"
       transform="scale(1,-1)" />
    <rect
       style="opacity:0.3;fill:url(#linearGradient3725);fill-opacity:1;fill-rule:nonzero;stroke:none;display:inline"
       id="rect3723"
       width="86"
       height="85"
       x="5"
       y="-92"
       rx="7"
       ry="7"
       transform="scale(1,-1)" />
    <rect
       transform="scale(1,-1)"
       ry="6"
       rx="6"
       y="-91"
       x="6"
       height="84"
       width="84"
       id="rect3716"
       style="opacity:0.45;fill:url(#linearGradient3721);fill-opacity:1;fill-rule:nonzero;stroke:none;display:inline" />
  </g>
  <g
     inkscape:label="Button"
     inkscape:groupmode="layer"
     id="layer1"
     sodipodi:insensitive="true">
    <rect
       style="fill:url(#linearGradient3617);fill-opacity:1;fill-rule:nonzero;stroke:none"
       id="rect2419"
       width="84"
       height="84"
       x="6"
       y="6"
       rx="6"
       ry="6" />
    <g
       style="display:inline"
       id="g907">
      <path
         id="rect4377"
         d="M 12,86 C 8.676,86 6,83.324 6,80 V 12 C 6,8.676 8.676,6 12,6 h 72 c 3.324,0 6,2.676 6,6 v 68 c 0,3.324 -2.676,6 -6,6 z m 0,-0.96875 h 72 c 2.8049,0 5.0312,-2.2264 5.0312,-5.0312 v -68 c 0,-2.8049 -2.226,-5.0312 -5.031,-5.0312 h -72 c -2.8049,0 -5.0312,2.2263 -5.0312,5.0312 v 68 c 0,2.8049 2.2264,5.0312 5.0312,5.0312 z"
         style="opacity:0.3;fill:url(#linearGradient4390)"
         inkscape:connector-curvature="0" />
      <path
         id="rect4414"
         d="m 6,78 v 2 c 0,3.324 2.676,6 6,6 h 72 c 3.324,0 6,-2.676 6,-6 v -2 c 0,3.324 -2.676,6 -6,6 H 12 C 8.676,84 6,81.324 6,78 Z"
         style="opacity:0.1;fill:url(#linearGradient4429)"
         inkscape:connector-curvature="0" />
      <g
         id="layer4-3">
        <path
           style="fill:url(#linearGradient3228)"
           inkscape:connector-curvature="0"
           d="m 6,80 v 4 c 0,3.324 2.676,6 6,6 h 72 c 3.324,0 6,-2.676 6,-6 v -4 c 0,3.324 -2.676,6 -6,6 H 12 C 8.676,86 6,83.324 6,80 Z"
           id="path3888" />
        <path
           style="color:#000000;opacity:0.1"
           inkscape:connector-curvature="0"
           d="m 6,82 v 2 c 0,3.324 2.676,6 6,6 h 72 c 3.324,0 6,-2.676 6,-6 v -2 c 0,3.324 -2.676,6 -6,6 H 12 C 8.676,88 6,85.324 6,82 Z"
           id="rect4345" />
        <path
           style="color:#000000;opacity:0.15"
           inkscape:connector-curvature="0"
           d="m 6,83 v 1 c 0,3.324 2.676,6 6,6 h 72 c 3.324,0 6,-2.676 6,-6 v -1 c 0,3.324 -2.676,6 -6,6 H 12 C 8.676,89 6,86.324 6,83 Z"
           id="rect4336" />
      </g>
    </g>
  </g>
  <g
     inkscape:groupmode="layer"
     id="layer5"
     inkscape:label="Highlight"
     sodipodi:insensitive="true">
    <rect
       style="opacity:0.1;fill:url(#linearGradient3613);fill-opacity:1;fill-rule:nonzero;stroke:#ffffff;stroke-width:0.5;stroke-linecap:round;stroke-linejoin:miter;stroke-miterlimit:4;stroke-opacity:1;stroke-dasharray:none;stroke-dashoffset:0;filter:url(#filter3794)"
       id="rect3171"
       width="66"
       height="66"
       x="15"
       y="15"
       rx="12"
       ry="12"
       clip-path="url(#clipPath3613)" />
  </g>
  <g
     inkscape:groupmode="layer"
     id="layer4"
     inkscape:label="Logo">
    <g
       id="g970"
       transform="translate(0,-3.0001428)">
      <path
         d="m 42.041016,14.171875 c -1.161868,0.02961 -2.306583,0.154889 -3.414063,0.357422 -6.454101,1.180309 -11.870109,4.536855 -15.798828,8.490234 -3.922416,3.947038 -6.487837,8.501738 -6.933594,12.765625 -0.457571,4.376885 1.863981,7.51868 3.091797,8.882813 2.33251,2.591478 5.523087,4.248783 8.351563,5.673828 -2.540514,2.218232 -4.833104,4.233217 -6.398438,5.876953 -3.485142,3.659702 -6.319311,7.657799 -6.330078,11.810547 -6e-4,0.208702 -0.05941,1.367799 0.06641,2.677734 0.125985,1.311685 0.445963,2.916639 1.248047,4.46875 0.126598,0.244981 0.697186,1.424985 1.708984,2.726563 1.006472,1.294725 2.502037,2.826876 4.695313,4.064453 3.048613,1.720215 6.872878,2.203171 10.636719,1.666015 C 44.193973,82.030251 57.708295,73.230843 67.546875,65.099609 73.828023,59.908467 78.354325,55.19667 80.132812,51.875 81.736222,48.880322 81.726045,45.061098 80.921875,42.146484 79.702898,37.728454 75.435648,33.051447 70.136719,28.296875 64.817076,23.523717 58.342735,18.935242 52.226562,16.185547 49.068539,14.765765 45.505072,14.083592 42.041016,14.171875 Z"
         id="path3985"
         style="opacity:0.05;fill:#000000;fill-opacity:1;fill-rule:evenodd;stroke:none"
         inkscape:original="M 42.0625 15.03125 C 40.948077 15.05965 39.847322 15.18004 38.78125 15.375 C 32.527569 16.518657 27.259015 19.779497 23.4375 23.625 C 19.617951 27.468525 17.166311 31.89278 16.75 35.875 C 16.328239 39.909344 18.475027 42.816103 19.625 44.09375 C 22.091061 46.833607 25.759155 48.619648 28.8125 50.15625 C 25.771251 52.797049 23.306702 54.980937 21.5625 56.8125 C 18.136745 60.409841 15.478467 64.283511 15.46875 68.03125 C 15.467868 68.338143 15.41228 69.386391 15.53125 70.625 C 15.650216 71.863609 15.954277 73.362392 16.6875 74.78125 C 16.839354 75.075103 17.356833 76.14563 18.3125 77.375 C 19.268167 78.60437 20.675298 80.04808 22.75 81.21875 C 25.587714 82.819963 29.233451 83.296493 32.84375 82.78125 C 43.726064 81.228184 57.227078 72.51447 67 64.4375 C 73.237858 59.282135 77.730241 54.540656 79.375 51.46875 C 80.827878 48.755218 80.844491 45.095966 80.09375 42.375 C 78.974982 38.320166 74.819298 33.654269 69.5625 28.9375 C 64.297507 24.213377 57.870792 19.664325 51.875 16.96875 C 48.844599 15.606345 45.398163 14.946239 42.0625 15.03125 z "
         inkscape:radius="0.859752"
         sodipodi:type="inkscape:offset" />
      <path
         inkscape:connector-curvature="0"
         id="path3980"
         d="m 42.0625,15.03125 c -1.114423,0.0284 -2.215178,0.14879 -3.28125,0.34375 -6.253681,1.143657 -11.522235,4.404497 -15.34375,8.25 -3.819549,3.843525 -6.271189,8.26778 -6.6875,12.25 -0.421761,4.034344 1.725027,6.941103 2.875,8.21875 2.466061,2.739857 6.134155,4.525898 9.1875,6.0625 -3.041249,2.640799 -5.505798,4.824687 -7.25,6.65625 -3.425755,3.597341 -6.084033,7.471011 -6.09375,11.21875 -8.82e-4,0.306893 -0.05647,1.355141 0.0625,2.59375 0.118966,1.238609 0.423027,2.737392 1.15625,4.15625 0.151854,0.293853 0.669333,1.36438 1.625,2.59375 0.955667,1.22937 2.362798,2.67308 4.4375,3.84375 2.837714,1.601213 6.483451,2.077743 10.09375,1.5625 C 43.726064,81.228184 57.227078,72.51447 67,64.4375 73.237858,59.282135 77.730241,54.540656 79.375,51.46875 80.827878,48.755218 80.844491,45.095966 80.09375,42.375 78.974982,38.320166 74.819298,33.654269 69.5625,28.9375 64.297507,24.213377 57.870792,19.664325 51.875,16.96875 48.844599,15.606345 45.398163,14.946239 42.0625,15.03125 Z"
         style="opacity:0.1;fill:#000000;fill-opacity:1;fill-rule:evenodd;stroke:none" />
      <path
         d="m 42.099609,16.027344 c -1.068555,0.02724 -2.109851,0.143549 -3.11914,0.328125 -6.021479,1.101193 -11.123069,4.244392 -14.820313,7.964843 -3.697243,3.720452 -6.027042,7.994632 -6.408203,11.640626 -0.379999,3.634874 1.562182,6.296397 2.619141,7.470703 2.570648,2.856056 6.91917,4.830461 10.166015,6.507812 -3.798287,3.269856 -6.28398,5.490588 -8.242187,7.546875 -3.34862,3.516343 -5.821655,7.294361 -5.830078,10.542969 -0.0022,0.779598 -0.190177,3.778208 1.109375,6.292969 0.365974,0.708198 1.777989,3.831537 5.666015,6.02539 2.587134,1.459821 6.059913,1.917291 9.490235,1.427735 C 43.20158,80.281009 56.675502,71.667694 66.369141,63.65625 72.553117,58.545415 77.036511,53.749119 78.513672,50.990234 79.775545,48.63344 79.80798,45.092564 79.125,42.617188 78.13061,39.013145 74.117272,34.344668 68.916016,29.677734 63.714759,25.010801 57.315438,20.495336 51.460938,17.863281 48.580165,16.568146 45.286868,15.946115 42.099609,16.027344 Z"
         id="path3976"
         style="opacity:0.15;fill:#000000;fill-opacity:1;fill-rule:evenodd;stroke:none"
         inkscape:original="M 42.125 17 C 41.110818 17.02585 40.120205 17.136215 39.15625 17.3125 C 27.567851 19.431758 19.409269 29.457341 18.71875 36.0625 C 18.37995 39.303284 20.130052 41.710559 21.09375 42.78125 C 23.698235 45.6749 28.881288 47.887443 32.21875 49.71875 C 27.393824 53.832659 25.179382 55.86771 23 58.15625 C 19.738867 61.580724 17.4445 65.331411 17.4375 68.03125 C 17.435 68.900886 17.306253 71.685926 18.4375 73.875 C 18.862915 74.698223 20.073002 77.442854 23.71875 79.5 C 26.04892 80.814826 29.343808 81.276314 32.59375 80.8125 C 42.651895 79.377055 56.137281 70.850817 65.75 62.90625 C 71.876378 57.843018 76.362749 52.947115 77.65625 50.53125 C 78.699912 48.582008 78.792886 45.069146 78.1875 42.875 C 76.46757 36.641327 62.493008 23.888904 51.0625 18.75 C 48.329861 17.521463 45.167546 16.922459 42.125 17 z M 45.5 37.0625 C 47.140803 36.909783 50.206474 37.902485 50.25 38.78125 C 49.310818 39.244506 46.366209 38.903144 44.5625 37.5625 C 44.669855 37.272057 45.000454 37.108995 45.5 37.0625 z "
         inkscape:radius="0.97275823"
         sodipodi:type="inkscape:offset" />
      <path
         inkscape:connector-curvature="0"
         id="path3924"
         d="m 42.125,17 c -1.014182,0.02585 -2.004795,0.136215 -2.96875,0.3125 -11.588399,2.119258 -19.746981,12.144841 -20.4375,18.75 -0.3388,3.240784 1.411302,5.648059 2.375,6.71875 2.604485,2.89365 7.787538,5.106193 11.125,6.9375 -4.824926,4.113909 -7.039368,6.14896 -9.21875,8.4375 -3.261133,3.424474 -5.5555,7.175161 -5.5625,9.875 -0.0025,0.869636 -0.131247,3.654676 1,5.84375 0.425415,0.823223 1.635502,3.567854 5.28125,5.625 2.33017,1.314826 5.625058,1.776314 8.875,1.3125 C 42.651895,79.377055 56.137281,70.850817 65.75,62.90625 71.876378,57.843018 76.362749,52.947115 77.65625,50.53125 78.699912,48.582008 78.792886,45.069146 78.1875,42.875 76.46757,36.641327 62.493008,23.888904 51.0625,18.75 48.329861,17.521463 45.167546,16.922459 42.125,17 Z M 45.5,37.0625 c 1.640803,-0.152717 4.706474,0.839985 4.75,1.71875 -0.939182,0.463256 -3.883791,0.121894 -5.6875,-1.21875 0.107355,-0.290443 0.437954,-0.453505 0.9375,-0.5 z"
         style="opacity:0.3;fill:#000000;fill-opacity:1;fill-rule:evenodd;stroke:none" />
      <g
         transform="matrix(0.10281049,0,0,0.10281049,17.431222,16.000001)"
         id="g3143">
        <g
           id="layer2-3"
           inkscape:label="back"
           style="display:inline"
           transform="translate(-25.69105,-25.5213)">
          <path
             inkscape:connector-curvature="0"
             id="path2973"
             style="fill:url(#linearGradient2994);fill-opacity:1;fill-rule:evenodd;stroke:none"
             d="M 25.756851,521.91391 C 25.825031,495.65357 48.148853,458.98977 79.868697,425.68116 101.06675,403.42137 122.59556,383.88231 169.52585,343.86782 137.06358,326.05537 86.575337,304.5643 61.242464,276.41883 51.868932,266.00461 34.879101,242.4107 38.174477,210.88878 44.890902,146.64282 124.18914,49.142619 236.90525,28.529375 c 37.50415,-6.858661 80.56354,-1.907781 116.00271,14.024919 111.18036,49.984243 247.14797,174.162266 263.8771,234.794926 5.88837,21.34165 4.75656,55.36025 -5.39475,74.31982 -12.58141,23.49823 -56.1358,71.22495 -115.72484,120.47315 -93.4994,77.2739 -224.52102,160.24847 -322.35291,174.21052 -31.611,4.51135 -63.90775,-0.19399 -86.572466,-12.98278 C 51.279241,613.36083 39.508186,586.6468 35.370326,578.63961 24.367104,557.34729 25.73287,530.37254 25.756851,521.91391 Z M 288.89937,226.87362 c 1.20738,-14.88942 59.59326,-0.0658 55.90415,11.72547 -3.89197,12.43966 -57.28926,5.35537 -55.90415,-11.72547 z"
             sodipodi:nodetypes="cscssssssssssscss" />
        </g>
        <g
           id="layer4-8"
           inkscape:label="mid"
           style="display:inline"
           transform="translate(-25.69105,-25.5213)">
          <path
             inkscape:connector-curvature="0"
             id="path2975"
             style="fill:url(#linearGradient2986);fill-opacity:1;fill-rule:evenodd;stroke:none"
             d="M 201.12502,319.26488 C 170.40092,345.206 149.97273,362.69737 124.3619,386.10521 62.686019,442.47585 20.779962,485.38384 42.384986,544.03745 67.307886,611.6985 121.94112,608.26771 186.00654,595.69143 351.14346,563.12161 622.59855,354.43165 608.76251,277.34931 597.56708,214.97818 445.90819,90.975251 356.11423,46.84913 328.062,33.063819 295.73224,25.934162 263.30502,27.459889 139.83437,33.287522 43.410732,145.70192 48.3364,206.6102 53.12843,265.866 202.89233,317.49757 201.12502,319.26488 Z M 182.59146,112.40184 c -37.15326,41.33629 -13.39873,121.3113 48.21486,164.90276 72.09526,51.00721 188.8443,60.24272 212.0774,20.90556 43.33515,-73.37278 -3.98029,-150.9555 -74.61054,-185.56335 -69.7954,-34.198724 -162.52227,-26.01189 -185.68172,-0.24497 z"
             sodipodi:nodetypes="csssssssccssss" />
          <path
             inkscape:connector-curvature="0"
             id="path4976"
             style="display:inline;fill:url(#radialGradient5851);fill-opacity:1;fill-rule:evenodd;stroke:none"
             d="m 309.29559,275.57053 c 52.15894,7.24994 97.11719,-13.63858 104.1475,-65.14342 5.35537,-39.2337 -54.68938,-82.09994 -90.78995,-91.98681 -30.14631,-8.25614 -95.59547,2.36034 -100.00778,59.37779 -4.58678,59.27202 56.23678,93.52508 86.65023,97.75244 z m -25.54268,-98.581 c -34.27878,53.10396 49.77027,69.43027 62.63837,59.7456 55.47708,-41.75261 -47.53597,-83.14191 -62.63837,-59.7456 z"
             sodipodi:nodetypes="csssscss" />
        </g>
        <g
           id="layer5-1"
           inkscape:label="top"
           style="display:inline"
           transform="translate(-25.69105,-25.5213)">
          <path
             inkscape:connector-curvature="0"
             style="fill:url(#radialGradient3228);fill-opacity:1;fill-rule:evenodd;stroke:none"
             d="M 253.35285,41.570018 C 192.71898,47.959829 181.10644,55.76371 126.17687,97.322591 107.767,111.25125 73.883463,145.14202 65.201668,185.34831 c -3.306505,15.31275 0.601944,28.53259 11.630184,37.80412 35.312998,29.68796 94.416058,53.77395 142.904478,77.05704 14.20232,6.81964 4.79874,19.18504 -18.10392,39.01252 -57.79173,50.03186 -135.926941,110.93446 -141.3817,157.34203 -2.570415,21.86837 4.916125,51.5832 31.459397,66.7898 31.006723,17.76369 95.372133,6.16955 138.351373,-9.835 62.80599,-23.38762 145.30781,-75.00368 210.80628,-125.74104 68.11013,-52.76042 131.43764,-119.77326 134.57017,-130.70294 3.84668,-13.42147 3.46325,-25.81795 -3.96035,-40.07068 C 559.81983,234.62227 544.23417,217.99109 527.49924,199.37578 482.59667,152.03725 435.087,110.44129 378.2447,78.565883 337.19672,55.547464 301.08129,36.540217 253.35285,41.570018 Z m 89.06787,106.129442 c 43.80514,21.17863 88.78971,76.80693 -0.39035,108.8248 -24.25015,8.70642 -101.15792,-21.38222 -98.80358,-62.4438 3.43316,-60.65568 45.70723,-72.24041 99.19393,-46.381 z"
             id="path2977"
             sodipodi:nodetypes="cssssssssssscsscsss" />
        </g>
      </g>
    </g>
  </g>
</svg>
