<?xml version="1.0" encoding="UTF-8" standalone="no"?>
<!-- Created with Inkscape (http://www.inkscape.org/) -->

<svg
   xmlns:dc="http://purl.org/dc/elements/1.1/"
   xmlns:cc="http://creativecommons.org/ns#"
   xmlns:rdf="http://www.w3.org/1999/02/22-rdf-syntax-ns#"
   xmlns:svg="http://www.w3.org/2000/svg"
   xmlns="http://www.w3.org/2000/svg"
   xmlns:xlink="http://www.w3.org/1999/xlink"
   xmlns:sodipodi="http://sodipodi.sourceforge.net/DTD/sodipodi-0.dtd"
   xmlns:inkscape="http://www.inkscape.org/namespaces/inkscape"
   width="96"
   height="96"
   id="svg2408"
   sodipodi:version="0.32"
   inkscape:version="0.92.2 5c3e80d, 2017-08-06"
   version="1.0"
   sodipodi:docname="distributor-logo-ubuntu.svg"
   inkscape:output_extension="org.inkscape.output.svg.inkscape">
  <defs
     id="defs2410">
    <linearGradient
       id="ButtonShadow"
       gradientTransform="scale(1.0058652,0.994169)"
       x1="45.447727"
       y1="92.539597"
       x2="45.447727"
       y2="7.0165396"
       gradientUnits="userSpaceOnUse">
      <stop
         style="stop-color:#000000;stop-opacity:1;"
         offset="0"
         id="stop3750" />
      <stop
         style="stop-color:#000000;stop-opacity:0.58823532;"
         offset="1"
         id="stop3752" />
    </linearGradient>
    <linearGradient
       inkscape:collect="always"
       id="linearGradient3737">
      <stop
         style="stop-color:#ffffff;stop-opacity:1;"
         offset="0"
         id="stop3739" />
      <stop
         style="stop-color:#ffffff;stop-opacity:0;"
         offset="1"
         id="stop3741" />
    </linearGradient>
    <linearGradient
       id="linearGradient3700">
      <stop
         style="stop-color:#2276c5;stop-opacity:1;"
         offset="0"
         id="stop3702" />
      <stop
         style="stop-color:#68baf4;stop-opacity:1;"
         offset="1"
         id="stop3704" />
    </linearGradient>
    <inkscape:perspective
       sodipodi:type="inkscape:persp3d"
       inkscape:vp_x="0 : 526.18109 : 1"
       inkscape:vp_y="0 : 1000 : 0"
       inkscape:vp_z="744.09448 : 526.18109 : 1"
       inkscape:persp3d-origin="372.04724 : 350.78739 : 1"
       id="perspective2416" />
    <linearGradient
       inkscape:collect="always"
       xlink:href="#linearGradient3700"
       id="linearGradient3706"
       x1="48"
       y1="90"
       x2="48"
       y2="5.9877172"
       gradientUnits="userSpaceOnUse" />
    <linearGradient
       inkscape:collect="always"
       xlink:href="#linearGradient3737"
       id="linearGradient3743"
       x1="36.357143"
       y1="6"
       x2="36.357143"
       y2="63.893143"
       gradientUnits="userSpaceOnUse" />
    <filter
       inkscape:collect="always"
       id="filter3174">
      <feGaussianBlur
         inkscape:collect="always"
         stdDeviation="1.71"
         id="feGaussianBlur3176" />
    </filter>
    <filter
       inkscape:collect="always"
       id="filter3794"
       x="-0.192"
       width="1.384"
       y="-0.192"
       height="1.384">
      <feGaussianBlur
         inkscape:collect="always"
         stdDeviation="5.28"
         id="feGaussianBlur3796" />
    </filter>
    <linearGradient
       inkscape:collect="always"
       xlink:href="#linearGradient3737"
       id="linearGradient3613"
       x1="48"
       y1="20.220806"
       x2="48"
       y2="138.66119"
       gradientUnits="userSpaceOnUse" />
    <clipPath
       clipPathUnits="userSpaceOnUse"
       id="clipPath3613">
      <rect
         ry="6"
         rx="6"
         y="6"
         x="6"
         height="84"
         width="84"
         id="rect3615"
         style="fill:#ffffff;fill-opacity:1;fill-rule:nonzero;stroke:none" />
    </clipPath>
    <linearGradient
       inkscape:collect="always"
       xlink:href="#linearGradient4057"
       id="linearGradient3617"
       gradientUnits="userSpaceOnUse"
       x1="48"
       y1="90"
       x2="48"
       y2="5.9877172" />
    <inkscape:perspective
       id="perspective2985"
       inkscape:persp3d-origin="0.5 : 0.33333333 : 1"
       inkscape:vp_z="1 : 0.5 : 1"
       inkscape:vp_y="0 : 1000 : 0"
       inkscape:vp_x="0 : 0.5 : 1"
       sodipodi:type="inkscape:persp3d" />
    <linearGradient
       inkscape:collect="always"
       xlink:href="#ButtonShadow-0"
       id="linearGradient3788"
       gradientUnits="userSpaceOnUse"
       gradientTransform="matrix(1.0238095,0,0,1.0119048,-1.1428571,-98.071429)"
       x1="32.251034"
       y1="6.1317081"
       x2="32.251034"
       y2="90.238609" />
    <linearGradient
       id="ButtonShadow-0"
       gradientTransform="matrix(1.0058652,0,0,0.994169,100,0)"
       x1="45.447727"
       y1="92.539597"
       x2="45.447727"
       y2="7.0165396"
       gradientUnits="userSpaceOnUse">
      <stop
         style="stop-color:#000000;stop-opacity:1;"
         offset="0"
         id="stop3750-8" />
      <stop
         style="stop-color:#000000;stop-opacity:0.58823532;"
         offset="1"
         id="stop3752-5" />
    </linearGradient>
    <linearGradient
       inkscape:collect="always"
       xlink:href="#ButtonShadow-0"
       id="linearGradient3780"
       gradientUnits="userSpaceOnUse"
       gradientTransform="matrix(1.0238095,0,0,1.0119048,-1.1428571,-98.071429)"
       x1="32.251034"
       y1="6.1317081"
       x2="32.251034"
       y2="90.238609" />
    <linearGradient
       id="linearGradient2994"
       gradientTransform="matrix(1.0058652,0,0,0.994169,100,0)"
       x1="45.447727"
       y1="92.539597"
       x2="45.447727"
       y2="7.0165396"
       gradientUnits="userSpaceOnUse">
      <stop
         style="stop-color:#000000;stop-opacity:1;"
         offset="0"
         id="stop2996" />
      <stop
         style="stop-color:#000000;stop-opacity:0.58823532;"
         offset="1"
         id="stop2998" />
    </linearGradient>
    <linearGradient
       inkscape:collect="always"
       xlink:href="#ButtonShadow-0"
       id="linearGradient3772"
       gradientUnits="userSpaceOnUse"
       gradientTransform="matrix(1.0238095,0,0,1.0119048,-1.1428571,-98.071429)"
       x1="32.251034"
       y1="6.1317081"
       x2="32.251034"
       y2="90.238609" />
    <linearGradient
       id="linearGradient3001"
       gradientTransform="matrix(1.0058652,0,0,0.994169,100,0)"
       x1="45.447727"
       y1="92.539597"
       x2="45.447727"
       y2="7.0165396"
       gradientUnits="userSpaceOnUse">
      <stop
         style="stop-color:#000000;stop-opacity:1;"
         offset="0"
         id="stop3003" />
      <stop
         style="stop-color:#000000;stop-opacity:0.58823532;"
         offset="1"
         id="stop3005" />
    </linearGradient>
    <linearGradient
       inkscape:collect="always"
       xlink:href="#ButtonShadow-0"
       id="linearGradient3725"
       gradientUnits="userSpaceOnUse"
       gradientTransform="matrix(1.0238095,0,0,1.0119048,-1.1428571,-98.071429)"
       x1="32.251034"
       y1="6.1317081"
       x2="32.251034"
       y2="90.238609" />
    <linearGradient
       id="linearGradient3008"
       gradientTransform="matrix(1.0058652,0,0,0.994169,100,0)"
       x1="45.447727"
       y1="92.539597"
       x2="45.447727"
       y2="7.0165396"
       gradientUnits="userSpaceOnUse">
      <stop
         style="stop-color:#000000;stop-opacity:1;"
         offset="0"
         id="stop3010" />
      <stop
         style="stop-color:#000000;stop-opacity:0.58823532;"
         offset="1"
         id="stop3012" />
    </linearGradient>
    <linearGradient
       inkscape:collect="always"
       xlink:href="#ButtonShadow-0"
       id="linearGradient3721"
       gradientUnits="userSpaceOnUse"
       gradientTransform="translate(0,-97)"
       x1="32.251034"
       y1="6.1317081"
       x2="32.251034"
       y2="90.238609" />
    <linearGradient
       id="linearGradient3015"
       gradientTransform="matrix(1.0058652,0,0,0.994169,100,0)"
       x1="45.447727"
       y1="92.539597"
       x2="45.447727"
       y2="7.0165396"
       gradientUnits="userSpaceOnUse">
      <stop
         style="stop-color:#000000;stop-opacity:1;"
         offset="0"
         id="stop3017" />
      <stop
         style="stop-color:#000000;stop-opacity:0.58823532;"
         offset="1"
         id="stop3019" />
    </linearGradient>
    <linearGradient
       y2="90.238609"
       x2="32.251034"
       y1="6.1317081"
       x1="32.251034"
       gradientTransform="matrix(1.0238095,0,0,1.0119048,-1.1428571,-98.071429)"
       gradientUnits="userSpaceOnUse"
       id="linearGradient3026"
       xlink:href="#ButtonShadow-0"
       inkscape:collect="always" />
    <inkscape:perspective
       id="perspective2885"
       inkscape:persp3d-origin="0.5 : 0.33333333 : 1"
       inkscape:vp_z="1 : 0.5 : 1"
       inkscape:vp_y="0 : 1000 : 0"
       inkscape:vp_x="0 : 0.5 : 1"
       sodipodi:type="inkscape:persp3d" />
    <linearGradient
       inkscape:collect="always"
       xlink:href="#linearGradient4057"
       id="linearGradient4063"
       x1="9.17138"
       y1="21.000002"
       x2="9.17138"
       y2="0.97239029"
       gradientUnits="userSpaceOnUse" />
    <linearGradient
       id="linearGradient4057">
      <stop
         style="stop-color:#dd481f;stop-opacity:0.94117647;"
         offset="0"
         id="stop4059" />
      <stop
         style="stop-color:#ec6829;stop-opacity:0.94117647;"
         offset="1"
         id="stop4061" />
    </linearGradient>
    <inkscape:perspective
       id="perspective4254"
       inkscape:persp3d-origin="0.5 : 0.33333333 : 1"
       inkscape:vp_z="1 : 0.5 : 1"
       inkscape:vp_y="0 : 1000 : 0"
       inkscape:vp_x="0 : 0.5 : 1"
       sodipodi:type="inkscape:persp3d" />
    <linearGradient
       inkscape:collect="always"
       xlink:href="#XMLID_3_"
       id="linearGradient3464"
       gradientUnits="userSpaceOnUse"
       gradientTransform="translate(-72.993029,33.016313)"
       x1="75.503899"
       y1="11.96"
       x2="85.596901"
       y2="36.3307" />
    <linearGradient
       id="XMLID_3_"
       gradientUnits="userSpaceOnUse"
       x1="75.503899"
       y1="11.96"
       x2="85.596901"
       y2="36.3307"
       gradientTransform="translate(-72.993029,33.016313)">
      <stop
         offset="0"
         style="stop-color:#F99D77"
         id="stop3347" />
      <stop
         offset="1"
         style="stop-color:#F7804E"
         id="stop3349" />
    </linearGradient>
    <linearGradient
       inkscape:collect="always"
       xlink:href="#XMLID_4_"
       id="linearGradient3466"
       gradientUnits="userSpaceOnUse"
       gradientTransform="translate(-72.993029,33.016313)"
       x1="37.674301"
       y1="25.6035"
       x2="37.674301"
       y2="47.500599" />
    <linearGradient
       id="XMLID_4_"
       gradientUnits="userSpaceOnUse"
       x1="37.674301"
       y1="25.6035"
       x2="37.674301"
       y2="47.500599"
       gradientTransform="translate(-72.993029,33.016313)">
      <stop
         offset="0"
         style="stop-color:#FCB462"
         id="stop3354" />
      <stop
         offset="1"
         style="stop-color:#FCAF55"
         id="stop3356" />
    </linearGradient>
    <linearGradient
       inkscape:collect="always"
       xlink:href="#XMLID_4_"
       id="linearGradient4336"
       gradientUnits="userSpaceOnUse"
       gradientTransform="matrix(0.7147956,0,0,0.7147956,-97.204766,6.7525163)"
       x1="37.674301"
       y1="25.6035"
       x2="37.674301"
       y2="47.500599" />
    <linearGradient
       inkscape:collect="always"
       xlink:href="#XMLID_3_"
       id="linearGradient4339"
       gradientUnits="userSpaceOnUse"
       gradientTransform="matrix(0.7147956,0,0,0.7147956,-97.204766,6.7525163)"
       x1="75.503899"
       y1="11.96"
       x2="85.596901"
       y2="36.3307" />
    <linearGradient
       id="linearGradient4390"
       x1="48"
       x2="48"
       y1="88"
       y2="-40"
       gradientTransform="matrix(1,0,0,-1,0,92)"
       gradientUnits="userSpaceOnUse"
       xlink:href="#linearGradient3737" />
    <linearGradient
       id="linearGradient4429"
       x1="48"
       x2="112.12"
       y1="82"
       y2="82.455002"
       gradientUnits="userSpaceOnUse"
       spreadMethod="reflect"
       xlink:href="#linearGradient3737" />
    <linearGradient
       id="linearGradient3228"
       x1="90"
       x2="48"
       y1="88"
       y2="88"
       gradientUnits="userSpaceOnUse"
       spreadMethod="reflect">
      <stop
         id="stop3894"
         stop-opacity=".58824"
         offset="0" />
      <stop
         id="stop3896"
         stop-opacity=".47059"
         offset=".1178" />
      <stop
         id="stop3898"
         stop-opacity=".39216"
         offset=".2381" />
      <stop
         id="stop3900"
         stop-opacity=".31373"
         offset="1" />
    </linearGradient>
  </defs>
  <sodipodi:namedview
     id="base"
     pagecolor="#ffffff"
     bordercolor="#666666"
     borderopacity="1.0"
     inkscape:pageopacity="0.0"
     inkscape:pageshadow="2"
     inkscape:zoom="5.56668"
     inkscape:cx="34.765443"
     inkscape:cy="49.099226"
     inkscape:document-units="px"
     inkscape:current-layer="layer1"
     showgrid="false"
     showborder="true"
     inkscape:showpageshadow="false"
     inkscape:window-width="1366"
     inkscape:window-height="743"
     inkscape:window-x="0"
     inkscape:window-y="25"
     inkscape:window-maximized="1">
    <inkscape:grid
       type="xygrid"
       id="grid3732"
       visible="true"
       enabled="true" />
  </sodipodi:namedview>
  <metadata
     id="metadata2413">
    <rdf:RDF>
      <cc:Work
         rdf:about="">
        <dc:format>image/svg+xml</dc:format>
        <dc:type
           rdf:resource="http://purl.org/dc/dcmitype/StillImage" />
      </cc:Work>
    </rdf:RDF>
  </metadata>
  <g
     inkscape:groupmode="layer"
     id="layer2"
     inkscape:label="Blur Shadow"
     style="display:none"
     sodipodi:insensitive="true">
    <rect
       style="opacity:0.9;fill:url(#ButtonShadow);fill-opacity:1;fill-rule:nonzero;stroke:none;filter:url(#filter3174)"
       id="rect3745"
       width="86"
       height="85"
       x="5"
       y="7"
       rx="6"
       ry="6" />
  </g>
  <g
     inkscape:groupmode="layer"
     id="layer3"
     inkscape:label="Shadow"
     sodipodi:insensitive="true">
    <path
       sodipodi:type="inkscape:offset"
       inkscape:radius="0.99097413"
       inkscape:original="M 12 -94.03125 C 7.028367 -94.03125 2.96875 -89.971633 2.96875 -85 L 2.96875 -14 C 2.96875 -9.0283671 7.0283671 -4.96875 12 -4.96875 L 84 -4.96875 C 88.971633 -4.96875 93.03125 -9.028367 93.03125 -14 L 93.03125 -85 C 93.03125 -89.971633 88.971633 -94.03125 84 -94.03125 L 12 -94.03125 z "
       style="opacity:0.07999998;fill:url(#linearGradient3026);fill-opacity:1;fill-rule:nonzero;stroke:none;display:inline"
       id="path3786"
       d="m 12,-95.03125 c -5.5110903,0 -10.03125,4.52016 -10.03125,10.03125 l 0,71 c 0,5.5110902 4.5201598,10.03125 10.03125,10.03125 l 72,0 c 5.51109,0 10.03125,-4.5201597 10.03125,-10.03125 l 0,-71 c 0,-5.51109 -4.52016,-10.03125 -10.03125,-10.03125 l -72,0 z"
       transform="scale(1,-1)" />
    <path
       sodipodi:type="inkscape:offset"
       inkscape:radius="1.0360184"
       inkscape:original="M 12 -93 C 7.5908667 -93 4 -89.409133 4 -85 L 4 -14 C 4 -9.5908667 7.5908667 -6 12 -6 L 84 -6 C 88.409133 -6 92 -9.5908667 92 -14 L 92 -85 C 92 -89.409133 88.409133 -93 84 -93 L 12 -93 z "
       style="opacity:0.1;fill:url(#linearGradient3780);fill-opacity:1;fill-rule:nonzero;stroke:none;display:inline"
       id="path3778"
       d="m 12,-94.03125 c -4.971633,0 -9.03125,4.059617 -9.03125,9.03125 l 0,71 c 0,4.9716329 4.0596171,9.03125 9.03125,9.03125 l 72,0 c 4.971633,0 9.03125,-4.059617 9.03125,-9.03125 l 0,-71 c 0,-4.971633 -4.059617,-9.03125 -9.03125,-9.03125 l -72,0 z"
       transform="scale(1,-1)" />
    <path
       sodipodi:type="inkscape:offset"
       inkscape:radius="0.98962283"
       inkscape:original="M 12 -92 C 8.122 -92 5 -88.878 5 -85 L 5 -14 C 5 -10.122 8.122 -7 12 -7 L 84 -7 C 87.878 -7 91 -10.122 91 -14 L 91 -85 C 91 -88.878 87.878 -92 84 -92 L 12 -92 z "
       style="opacity:0.2;fill:url(#linearGradient3772);fill-opacity:1;fill-rule:nonzero;stroke:none;display:inline"
       id="path3770"
       d="m 12,-93 c -4.4091333,0 -8,3.590867 -8,8 l 0,71 c 0,4.4091333 3.5908667,8 8,8 l 72,0 c 4.409133,0 8,-3.5908667 8,-8 l 0,-71 c 0,-4.409133 -3.590867,-8 -8,-8 l -72,0 z"
       transform="scale(1,-1)" />
    <rect
       style="opacity:0.3;fill:url(#linearGradient3725);fill-opacity:1;fill-rule:nonzero;stroke:none;display:inline"
       id="rect3723"
       width="86"
       height="85"
       x="5"
       y="-92"
       rx="7"
       ry="7"
       transform="scale(1,-1)" />
    <rect
       transform="scale(1,-1)"
       ry="6"
       rx="6"
       y="-91"
       x="6"
       height="84"
       width="84"
       id="rect3716"
       style="opacity:0.45;fill:url(#linearGradient3721);fill-opacity:1;fill-rule:nonzero;stroke:none;display:inline" />
  </g>
  <g
     inkscape:label="Button"
     inkscape:groupmode="layer"
     id="layer1">
    <rect
       style="fill:url(#linearGradient3617);fill-opacity:1.0;fill-rule:nonzero;stroke:none"
       id="rect2419"
       width="84"
       height="84"
       x="6"
       y="6"
       rx="6"
       ry="6" />
    <g
       id="g934"
       transform="translate(1.9995312,-1.999531)">
      <path
         d="m 61.1875,15.480469 c -3.655234,0 -6.628275,2.269126 -8.072266,5.371093 -0.05302,-0.01314 -0.02775,-0.03284 -0.08594,-0.04297 -1.558572,-0.271318 -3.160476,-0.484375 -4.810547,-0.484375 -4.285641,5.58e-4 -8.556203,1.040143 -12.417969,2.957031 a 1.0816859,1.0816859 0 0 0 -0.002,0 c -0.929623,0.463121 -1.580631,1.278624 -1.839844,2.208984 -0.01002,0.03559 0.0048,0.06614 -0.0039,0.101563 -0.02682,-0.0054 -0.05338,-0.02653 -0.08008,-0.03125 -0.245561,-0.04332 -0.29045,-0.01891 -0.357422,-0.01367 -0.06697,0.0052 -0.116981,0.01067 -0.162109,0.01563 -0.06802,0.0075 -0.08585,0.0083 -0.08984,0.0098 -0.04726,-0.0091 0.0093,-0.01071 -0.05469,-0.01953 -0.221857,-0.03059 -0.399486,-0.01299 -0.25,-0.0098 -0.26004,-0.0056 -0.440588,0.04369 -0.458985,0.04687 0.203478,-0.03525 0.259703,-0.0084 0.224609,-0.01172 -0.03509,-0.0033 -0.168981,-0.03277 -0.417968,0.02734 -0.430676,0.103974 -0.823065,0.315833 -1.19336,0.605469 -4.392229,3.399412 -7.673815,8.108496 -9.408203,13.357421 -0.781332,-0.217922 -1.543626,-0.49414 -2.394531,-0.49414 -5.119532,0 -9.3320313,4.198164 -9.3320312,9.332031 0,5.133867 4.2124992,9.332031 9.3320312,9.332031 0.882764,0 1.677041,-0.277946 2.484375,-0.511719 1.743612,5.112418 4.954251,9.694786 9.222656,13.03125 0.528816,0.414764 1.474791,0.91564 2.714844,0.716797 a 1.0816859,1.0816859 0 0 0 0.01172,-0.002 c -0.361554,0.06253 -0.346419,0.07 0.04687,-0.0039 0.02347,-0.0044 0.03162,-0.02057 0.05469,-0.02539 a 1.0816859,1.0816859 0 0 0 0.01563,0.0625 c 0.177756,0.646756 0.673546,1.643466 1.806641,2.210938 3.905671,1.964053 8.228243,2.990234 12.548828,2.990234 1.538851,0 3.060071,-0.196262 4.550781,-0.447265 1.128492,3.83459 4.46581,6.759765 8.667969,6.759765 5.114929,0 9.300781,-4.191256 9.300781,-9.300781 0,-2.247211 -0.961327,-4.185167 -2.296875,-5.78125 4.240287,-4.474048 6.959557,-10.256052 7.572266,-16.392578 0.113485,-1.127541 -0.361415,-2.081846 -0.898438,-2.675781 -0.01716,-0.01898 -0.04115,-0.02256 -0.05859,-0.04102 0.01779,-0.01877 0.04108,-0.02163 0.05859,-0.04102 0.645384,-0.714124 0.992792,-1.685815 0.898438,-2.699218 a 1.0816859,1.0816859 0 0 0 0,-0.0039 C 75.443717,39.701926 72.93388,34.087246 68.996094,29.6875 c -0.100549,-0.112917 -0.159701,-0.07317 -0.263672,-0.154297 0.935487,-1.405654 1.630859,-3.005703 1.630859,-4.845703 0,-5.04701 -4.125805,-9.207031 -9.175781,-9.207031 z M 33.058594,25.578125 c -0.02923,0.0026 0.0028,-0.03178 0.261718,0.01563 -0.01437,-0.0039 -0.0065,-0.0058 -0.02344,-0.0098 l 0.144531,0.02148 c -0.06907,-0.01663 -0.06063,-0.0028 -0.109375,-0.0078 -0.12187,-0.01259 -0.252404,-0.02139 -0.273437,-0.01953 z M 48.21875,36.675781 c 5.608697,0 10.550355,4.255465 11.431641,9.806641 0.117503,0.742338 0.539419,1.341382 1.039062,1.84375 -0.519839,0.503945 -0.947864,1.119802 -1.070312,1.876953 -0.89254,5.499125 -5.792832,9.683594 -11.400391,9.683594 -1.569718,0 -3.088089,-0.304779 -4.572266,-0.94336 a 1.0816859,1.0816859 0 0 0 -0.002,0 c -0.676785,-0.289384 -1.445414,-0.300832 -2.171875,-0.138671 -0.1446,-0.663056 -0.371019,-1.328405 -0.943359,-1.833985 -2.509722,-2.21806 -3.947266,-5.398795 -3.947266,-8.689453 0,-3.327563 1.446625,-6.536176 3.97461,-8.748047 a 1.0816859,1.0816859 0 0 0 0,-0.002 c 0.556353,-0.48841 0.82546,-1.152671 0.982421,-1.828125 0.692324,0.168722 1.428637,0.214381 2.13086,-0.08203 l -0.4375,0.08594 c 0.02163,3.37e-4 0.04477,3.37e-4 0.06641,0 a 1.0816859,1.0816859 0 0 0 0.404297,-0.08594 c 1.482216,-0.629405 2.982786,-0.945313 4.515625,-0.945313 z M 33.859375,70.9375 c 0.0073,0.066 0.0035,0.03139 0,0 z"
         id="path4365"
         style="overflow:visible;opacity:0.07000002;fill:#000000"
         inkscape:original="M 61.1875 16.5625 C 57.568166 16.5625 54.616737 19.018888 53.59375 22.3125 C 53.339012 22.161342 53.142031 21.926943 52.84375 21.875 C 51.314699 21.608821 49.774962 21.40625 48.21875 21.40625 C 44.108153 21.406785 39.997749 22.405219 36.28125 24.25 C 35.629854 24.574513 35.175493 25.151374 35 25.78125 C 34.803884 26.4759 35.000056 27.204465 35.3125 27.71875 C 34.908931 27.077792 34.234575 26.721616 33.6875 26.625 C 33.613539 26.611953 33.355061 26.663905 33.1875 26.65625 C 33.167246 26.651375 33.140993 26.659216 33.125 26.65625 C 33.107008 26.652913 33.077089 26.627012 33.0625 26.625 C 33.007388 26.6174 32.972972 26.625764 32.9375 26.625 C 32.842582 26.622956 32.7639 26.643013 32.6875 26.65625 C 32.649694 26.6628 32.602408 26.646615 32.5625 26.65625 C 32.321391 26.714459 32.056105 26.847515 31.78125 27.0625 C 27.390746 30.459168 24.104343 35.214417 22.5 40.5 C 22.469441 40.600674 22.517024 40.70874 22.5 40.8125 C 21.516733 40.392835 20.445103 40.15625 19.3125 40.15625 C 14.783024 40.15625 11.0625 43.862841 11.0625 48.40625 C 11.0625 52.949659 14.783024 56.65625 19.3125 56.65625 C 20.445103 56.65625 21.516733 56.419665 22.5 56 C 22.505561 56.020311 22.493895 56.042335 22.5 56.0625 C 24.092398 61.306444 27.353936 66.019217 31.6875 69.40625 C 32.01528 69.663336 32.733625 70.03916 33.5625 69.90625 C 33.57281 69.904467 33.583533 69.90817 33.59375 69.90625 C 34.467462 69.742084 35.011398 69.05786 35.1875 68.78125 C 34.729128 69.507463 34.766005 70.175464 34.90625 70.6875 A 1.0043202 1.0043202 0 0 0 34.90625 70.71875 C 35.030932 71.1724 35.35229 71.84784 36.15625 72.25 C 39.910667 74.137992 44.069694 75.125 48.21875 75.125 C 49.802974 75.125 51.399899 74.935863 52.96875 74.65625 C 53.15966 74.62264 53.268675 74.476018 53.4375 74.40625 C 54.044897 78.350256 57.334551 81.4375 61.4375 81.4375 C 65.963202 81.4375 69.65625 77.739201 69.65625 73.21875 C 69.65625 70.837441 68.601378 68.724419 66.96875 67.21875 C 67.106562 67.127072 67.286683 67.122461 67.40625 67 C 71.641228 62.661928 74.336114 56.960625 74.9375 50.9375 C 75.020716 50.110704 74.726845 49.552007 74.3125 49.09375 C 73.829696 48.559777 73.135695 48.317843 72.53125 48.3125 C 73.124216 48.302147 73.829347 48.097152 74.3125 47.5625 C 74.759406 47.067993 75.002945 46.39041 74.9375 45.6875 C 74.390565 40.043014 71.973341 34.635388 68.1875 30.40625 C 67.930581 30.117727 67.577969 30.034525 67.25 29.90625 C 68.473944 28.487353 69.28125 26.699414 69.28125 24.6875 C 69.28125 20.228618 65.644353 16.5625 61.1875 16.5625 z M 48.21875 35.59375 C 54.370908 35.59375 59.753219 40.230669 60.71875 46.3125 C 60.904304 47.48475 61.90774 48.329061 63.09375 48.34375 C 61.916953 48.367444 60.870419 49.243934 60.6875 50.375 C 59.70985 56.404952 54.36256 60.96875 48.21875 60.96875 C 46.50762 60.96875 44.835598 60.633164 43.21875 59.9375 C 42.208415 59.505494 40.907709 59.769899 40.21875 60.84375 C 40.785193 59.926047 40.755909 58.614616 39.8125 57.78125 C 37.072135 55.35935 35.5 51.886349 35.5 48.28125 C 35.5 44.640774 37.07985 41.137036 39.84375 38.71875 C 40.724684 37.945399 40.88565 36.648759 40.28125 35.65625 C 40.910488 36.659657 42.145233 37.091328 43.25 36.625 A 1.0043202 1.0043202 0 0 0 43.28125 36.625 C 44.886382 35.943401 46.53608 35.59375 48.21875 35.59375 z "
         inkscape:radius="1.0815778"
         sodipodi:type="inkscape:offset" />
      <path
         d="m 61.1875,16.558594 c -3.618032,0 -6.56576,2.466009 -7.589844,5.757812 -0.256355,-0.153135 -0.468807,-0.379272 -0.769531,-0.43164 -1.529051,-0.266179 -3.053163,-0.482422 -4.609375,-0.482422 -4.110597,5.35e-4 -8.230766,1.008734 -11.947266,2.853515 a 1.0043202,1.0043202 0 0 0 0,0.002 c -0.651396,0.324514 -1.094038,0.90528 -1.269531,1.535157 -0.192415,0.686746 -0.01121,1.39584 0.294922,1.908203 -0.405676,-0.625007 -1.083056,-0.969088 -1.623047,-1.064453 -0.07537,-0.01329 -0.325748,0.01491 -0.498047,0.0078 -0.0011,-2.71e-4 -0.0029,-0.0017 -0.0039,-0.002 -0.04304,-0.01036 -0.07401,-0.01573 -0.101563,-0.01953 -0.05511,-0.0076 -0.09343,-0.009 -0.128906,-0.0098 -0.141888,-0.0031 -0.242726,0.01386 -0.363281,0.04297 -0.241109,0.05821 -0.516161,0.181499 -0.791016,0.396484 -4.388314,3.396444 -7.675487,8.153672 -9.279297,13.4375 -0.03079,0.101444 0.01705,0.209882 0,0.314454 -0.983266,-0.419665 -2.062709,-0.652344 -3.195312,-0.652344 -4.529476,0 -8.253906,3.710497 -8.253906,8.253906 0,4.543409 3.72443,8.253906 8.253906,8.253906 1.132603,0 2.212046,-0.232679 3.195312,-0.652344 0.0057,0.02098 -0.0063,0.04363 0,0.06445 1.592398,5.243944 4.851983,9.956716 9.185547,13.34375 0.332241,0.260584 1.042971,0.626989 1.886719,0.478515 0.871191,-0.151869 1.398472,-0.790518 1.587891,-1.080078 -0.432667,0.711819 -0.399452,1.385807 -0.261719,1.888672 0.124682,0.45365 0.434321,1.136903 1.238281,1.539063 3.753834,1.88726 7.925992,2.886718 12.074219,2.886718 1.583577,0 3.168104,-0.204937 4.736328,-0.484375 0.189849,-0.03342 0.300734,-0.178856 0.46875,-0.248047 0.601338,3.950869 3.905835,7.044922 8.013672,7.044922 4.525702,0 8.222656,-3.702205 8.222656,-8.222656 0,-2.375041 -1.054545,-4.481219 -2.679687,-5.986328 0.135679,-0.09083 0.307876,-0.09799 0.425781,-0.21875 4.234978,-4.338072 6.929864,-10.047187 7.53125,-16.070313 0.08322,-0.826795 -0.216515,-1.37768 -0.630859,-1.835937 -0.477359,-0.52795 -1.164018,-0.76833 -1.763672,-0.779297 0.591727,-0.01185 1.282041,-0.246329 1.763672,-0.779297 0.446906,-0.494507 0.696304,-1.158418 0.630859,-1.861328 a 1.0043202,1.0043202 0 0 0 0,-0.0039 c -0.546847,-5.643578 -2.965209,-11.060223 -6.75,-15.289063 -0.259465,-0.291382 -0.615615,-0.354418 -0.947266,-0.482422 1.22724,-1.419749 2.044922,-3.209663 2.044922,-5.224609 0,-4.458882 -3.640803,-8.128906 -8.097656,-8.128906 z M 48.21875,35.597656 c 6.152158,0 11.542282,4.634967 12.507812,10.716797 0.18478,1.161829 1.173006,1.985773 2.345704,2.013672 -1.170551,0.031 -2.194805,0.916669 -2.376954,2.042969 -0.977649,6.029951 -6.332752,10.59375 -12.476562,10.59375 -1.71113,0 -3.392918,-0.316055 -5.009766,-1.011719 a 1.0043202,1.0043202 0 0 0 -0.002,-0.002 c -1.002452,-0.428635 -2.275903,-0.187327 -2.96875,0.865234 0.545845,-0.916304 0.514464,-2.213438 -0.417969,-3.037109 -2.740364,-2.421901 -4.316406,-5.892948 -4.316406,-9.498047 0,-3.640476 1.581803,-7.138354 4.345703,-9.556641 a 1.0043202,1.0043202 0 0 0 0,-0.002 c 0.873697,-0.766998 1.037853,-2.053538 0.451172,-3.042968 0.635535,0.980881 1.871562,1.395074 2.964844,0.933593 a 1.0043202,1.0043202 0 0 0 0.002,-0.002 c 1.605133,-0.681599 3.268502,-1.013672 4.951172,-1.013672 z"
         id="path4361"
         style="overflow:visible;opacity:0.1;fill:#000000"
         inkscape:original="M 61.1875 17.5625 C 57.28099 17.5625 54.125 20.779542 54.125 24.6875 C 54.125 28.59546 57.28672 31.78125 61.1875 31.78125 C 65.088279 31.78125 68.28125 28.601168 68.28125 24.6875 C 68.28125 20.773834 65.094009 17.5625 61.1875 17.5625 z M 48.21875 22.40625 C 44.272876 22.406764 40.300911 23.378151 36.71875 25.15625 C 36.327101 25.351362 36.072508 25.690094 35.96875 26.0625 C 35.8467 26.494806 35.938676 26.870245 36.15625 27.21875 L 41.125 35.125 C 41.486421 35.701336 42.248266 35.952048 42.875 35.6875 C 44.60238 34.95399 46.403239 34.59375 48.21875 34.59375 C 54.872867 34.59375 60.675178 39.582842 61.71875 46.15625 C 61.823295 46.816721 62.441259 47.34375 63.125 47.34375 L 72.5 47.34375 C 72.88501 47.34375 73.251174 47.21951 73.5625 46.875 C 73.828477 46.580693 73.974669 46.180464 73.9375 45.78125 C 73.412098 40.358989 71.080348 35.131901 67.4375 31.0625 C 66.949742 30.514743 66.169684 30.490209 65.625 30.84375 C 64.35093 31.670235 62.9362 32.09375 61.5 32.09375 C 57.293006 32.09375 53.878663 28.691426 53.84375 24.5 C 53.843757 24.499878 53.843584 24.473735 53.84375 24.46875 C 53.844082 24.45878 53.843691 24.441104 53.84375 24.4375 C 53.843805 24.429217 53.843737 24.415624 53.84375 24.40625 C 53.843775 24.387501 53.843781 24.366957 53.84375 24.34375 C 53.843687 24.297335 53.84375 24.234565 53.84375 24.25 C 53.84375 23.555277 53.304697 22.987921 52.65625 22.875 C 51.148112 22.612462 49.680518 22.40625 48.21875 22.40625 z M 32.9375 27.625 C 32.98049 27.614408 32.741343 27.581648 32.40625 27.84375 C 28.183288 31.110801 25.010735 35.701107 23.46875 40.78125 C 23.304183 41.323402 23.45627 41.930458 23.9375 42.3125 C 25.756228 43.759475 26.84375 46.007838 26.84375 48.28125 C 26.84375 50.554782 25.75662 52.803063 23.9375 54.25 C 23.457515 54.631747 23.304014 55.237163 23.46875 55.78125 C 24.998808 60.819903 28.142983 65.366183 32.3125 68.625 C 32.532167 68.79729 32.88476 68.998016 33.40625 68.90625 C 33.955798 68.811231 34.200416 68.47514 34.34375 68.25 L 39.375 60.34375 C 39.714607 59.809193 39.707392 59.018105 39.15625 58.53125 C 36.202545 55.920802 34.5 52.178795 34.5 48.28125 C 34.5 44.350327 36.20539 40.57796 39.1875 37.96875 C 39.702643 37.516518 39.807679 36.746298 39.4375 36.15625 L 34.46875 28.25 C 34.217696 27.85127 33.879344 27.691994 33.5 27.625 C 33.382935 27.60435 33.158907 27.570455 32.9375 27.625 z M 19.3125 41.15625 C 15.330052 41.15625 12.0625 44.410283 12.0625 48.40625 C 12.0625 52.402217 15.330052 55.65625 19.3125 55.65625 C 23.294948 55.65625 26.53125 52.39664 26.53125 48.40625 C 26.53125 44.41586 23.294948 41.15625 19.3125 41.15625 z M 63.125 49.3125 C 62.355431 49.314107 61.805168 49.80366 61.6875 50.53125 C 60.630206 57.052433 54.858284 61.96875 48.21875 61.96875 C 46.383049 61.96875 44.560697 61.627178 42.8125 60.875 C 42.249952 60.634462 41.447267 60.77528 41.0625 61.375 L 36.03125 69.3125 C 35.783498 69.705021 35.805306 70.183047 35.875 70.4375 C 35.942984 70.684856 36.147781 71.120666 36.59375 71.34375 C 40.208223 73.161368 44.231493 74.125 48.21875 74.125 C 49.715822 74.125 51.244658 73.930114 52.78125 73.65625 C 53.36423 73.553616 53.871552 72.997313 53.9375 72.4375 C 54.383776 68.565872 57.624739 65.6875 61.5 65.6875 C 62.685283 65.6875 63.916068 65.978528 65.03125 66.5625 C 65.578149 66.849286 66.269624 66.740488 66.6875 66.3125 C 70.763208 62.137575 73.359393 56.633722 73.9375 50.84375 C 73.976935 50.451941 73.763602 50.003665 73.5625 49.78125 C 73.252948 49.438891 72.887433 49.311103 72.5 49.3125 L 63.125 49.3125 z M 61.4375 66 C 57.457425 66 54.1875 69.238162 54.1875 73.21875 C 54.1875 77.199339 57.457425 80.4375 61.4375 80.4375 C 65.417575 80.4375 68.65625 77.193733 68.65625 73.21875 C 68.65625 69.243768 65.417575 66 61.4375 66 z "
         inkscape:radius="1.0042198"
         sodipodi:type="inkscape:offset" />
      <path
         d="m 61.1875,17.566406 c -3.90651,0 -7.058594,3.213136 -7.058594,7.121094 0,3.90796 3.157814,7.089844 7.058594,7.089844 3.900779,0 7.089844,-3.176176 7.089844,-7.089844 0,-3.913666 -3.183335,-7.121094 -7.089844,-7.121094 z m -12.96875,4.84375 c -3.945874,5.14e-4 -7.927604,0.975807 -11.509766,2.753906 -0.39021,0.194396 -0.628063,0.523801 -0.732422,0.894532 -2.02e-4,7.16e-4 2.02e-4,0.0012 0,0.002 -0.1212,0.431396 -0.04924,0.804416 0.167969,1.152344 a 0.93433073,0.93433073 0 0 0 0.002,0.0039 l 4.96875,7.904297 c 0.361421,0.576336 1.121313,0.817282 1.748047,0.552734 a 0.93433073,0.93433073 0 0 0 0.002,-0.002 c 1.72738,-0.73351 3.538005,-1.082031 5.353516,-1.082031 6.654117,0 12.472053,4.983232 13.515625,11.55664 0.104545,0.660472 0.706884,1.19336 1.390625,1.19336 H 72.5 c 0.38501,0 0.757034,-0.118381 1.068359,-0.462891 0.265977,-0.294307 0.398498,-0.688677 0.361329,-1.087891 a 0.93433073,0.93433073 0 0 0 0,-0.0039 C 73.404374,40.363803 71.08906,35.135514 67.447266,31.066406 66.959507,30.518649 66.161872,30.488256 65.617188,30.841797 64.343117,31.668282 62.9362,32.097656 61.5,32.097656 c -4.228393,0 -7.659717,-3.439429 -7.660156,-7.660156 3e-6,-5.14e-4 -4e-6,-0.0014 0,-0.002 5.4e-5,-0.0083 -1.3e-5,-0.01602 0,-0.02539 2.5e-5,-0.01875 3.1e-5,-0.0432 0,-0.06641 -6.3e-5,-0.04641 0,-0.109185 0,-0.09375 0,-0.694723 -0.531241,-1.275751 -1.179688,-1.388672 -1.508138,-0.262538 -2.979638,-0.451172 -4.441406,-0.451172 z m -14.712891,5.201172 c -0.117065,-0.02065 -0.350858,-0.04087 -0.572265,0.01367 0.04299,-0.01059 -0.205923,-0.02968 -0.541016,0.232422 -4.221286,3.266887 -7.37053,7.854788 -8.912109,12.933594 -0.164567,0.542152 -0.01053,1.153114 0.470703,1.535156 1.817402,1.447027 2.896484,3.68258 2.896484,5.955078 0,2.273532 -1.079317,4.510094 -2.898437,5.957031 -0.479985,0.381747 -0.633486,0.989116 -0.46875,1.533203 1.530058,5.038653 4.648842,9.581027 8.818359,12.839844 v -0.002 c 0.21931,0.17201 0.591172,0.401121 1.111328,0.310547 0.547961,-0.09559 0.796317,-0.44314 0.939453,-0.667969 a 0.93433073,0.93433073 0 0 0 0.002,0 l 5.03125,-7.90625 a 0.93433073,0.93433073 0 0 0 0,-0.002 c 0.339607,-0.534557 0.318721,-1.337363 -0.232421,-1.824219 -2.953706,-2.610447 -4.654297,-6.340736 -4.654297,-10.238281 0,-3.930923 1.69953,-7.687665 4.68164,-10.296875 a 0.93433073,0.93433073 0 0 0 0.002,-0.002 c 0.515142,-0.452232 0.637756,-1.232217 0.267578,-1.822266 a 0.93433073,0.93433073 0 0 0 0,-0.002 l -4.96875,-7.90625 c -0.251054,-0.39873 -0.593313,-0.573631 -0.972657,-0.640625 z M 19.3125,41.160156 c -3.982448,0 -7.246094,3.250127 -7.246094,7.246094 0,3.995967 3.263646,7.246094 7.246094,7.246094 3.982448,0 7.214844,-3.255704 7.214844,-7.246094 0,-3.99039 -3.232396,-7.246094 -7.214844,-7.246094 z m 43.810547,8.15625 c -0.769569,0.0016 -1.302254,0.495066 -1.419922,1.222656 -1.058095,6.520255 -6.845474,11.433594 -13.484375,11.433594 -1.835701,0 -3.663912,-0.35915 -5.412109,-1.111328 a 0.93433073,0.93433073 0 0 0 -0.002,-0.002 c -0.562549,-0.240538 -1.36328,-0.088 -1.748047,0.511719 a 0.93433073,0.93433073 0 0 0 -0.002,0.0039 l -5.03125,7.9375 a 0.93433073,0.93433073 0 0 0 0,0.002 c -0.247753,0.392521 -0.212272,0.864688 -0.142579,1.119141 a 0.93433073,0.93433073 0 0 0 0,0.002 c 0.06799,0.247356 0.255204,0.677306 0.701172,0.900391 3.6139,1.816889 7.650288,2.785156 11.636719,2.785156 1.496438,0 3.032418,-0.177505 4.568359,-0.451172 0.582981,-0.102634 1.074678,-0.656984 1.140625,-1.216797 a 0.93433073,0.93433073 0 0 0 0,-0.002 c 0.446277,-3.871628 3.697005,-6.767578 7.572266,-6.767578 1.185283,0 2.419974,0.310559 3.535156,0.894531 0.546899,0.286786 1.246187,0.158457 1.664063,-0.269531 4.075708,-4.174925 6.652362,-9.674872 7.230469,-15.464844 0.03943,-0.391809 -0.160227,-0.842039 -0.361329,-1.064453 -0.309552,-0.342359 -0.684832,-0.464288 -1.072265,-0.462891 H 63.125 a 0.93433073,0.93433073 0 0 0 -0.002,0 z m -1.685547,16.6875 c -3.980075,0 -7.246094,3.234256 -7.246094,7.214844 0,3.980589 3.266019,7.214844 7.246094,7.214844 3.980075,0 7.214844,-3.239861 7.214844,-7.214844 0,-3.974982 -3.234769,-7.214844 -7.214844,-7.214844 z"
         id="path4357"
         style="overflow:visible;opacity:0.15;fill:#000000"
         inkscape:original="M 61.1875 18.5 C 57.79025 18.5 55.0625 21.2778 55.0625 24.6875 C 55.0625 28.097202 57.79025 30.84375 61.1875 30.84375 C 64.584749 30.84375 67.34375 28.097202 67.34375 24.6875 C 67.34375 21.2778 64.584749 18.5 61.1875 18.5 z M 48.21875 23.34375 C 44.427192 23.344244 40.581705 24.284174 37.125 26 C 37.002073 26.06124 36.911879 26.180134 36.875 26.3125 C 36.83763 26.444866 36.86473 26.602189 36.9375 26.71875 L 41.90625 34.625 C 42.032619 34.826513 42.28119 34.904861 42.5 34.8125 C 44.345871 34.028674 46.283388 33.65625 48.21875 33.65625 C 55.337694 33.65625 61.540074 38.969266 62.65625 46 C 62.69362 46.236088 62.887505 46.40625 63.125 46.40625 L 72.5 46.40625 C 72.636694 46.40625 72.78305 46.351751 72.875 46.25 C 72.96695 46.148256 73.012784 46.012306 73 45.875 C 72.494524 40.658378 70.258333 35.606635 66.75 31.6875 C 66.59167 31.509694 66.325125 31.495104 66.125 31.625 C 64.710357 32.542674 63.123619 33.03125 61.5 33.03125 C 56.763379 33.03125 52.906742 29.166144 52.90625 24.4375 C 52.906742 24.4351 52.90625 24.257903 52.90625 24.25 C 52.90625 24.014407 52.732577 23.821751 52.5 23.78125 C 51.018976 23.523432 49.599465 23.34375 48.21875 23.34375 z M 33.15625 28.53125 C 33.09135 28.54724 33.022101 28.55202 32.96875 28.59375 C 28.903311 31.738935 25.859466 36.171855 24.375 41.0625 C 24.31698 41.253642 24.374472 41.469286 24.53125 41.59375 C 26.574295 43.219191 27.78125 45.714921 27.78125 48.28125 C 27.78125 50.847579 26.574788 53.34331 24.53125 54.96875 C 24.375379 55.092719 24.316978 55.308366 24.375 55.5 C 25.847665 60.349651 28.859716 64.736729 32.875 67.875 C 32.982685 67.95946 33.115272 68.023708 33.25 68 C 33.384237 67.97679 33.489235 67.86508 33.5625 67.75 L 38.59375 59.84375 C 38.722086 59.641743 38.71073 59.377295 38.53125 59.21875 C 35.379895 56.433622 33.5625 52.4503 33.5625 48.28125 C 33.5625 44.081084 35.378201 40.067366 38.5625 37.28125 C 38.741974 37.123694 38.783603 36.859245 38.65625 36.65625 L 33.6875 28.75 C 33.61473 28.634425 33.477987 28.554957 33.34375 28.53125 C 33.27663 28.51941 33.221156 28.51526 33.15625 28.53125 z M 19.3125 42.09375 C 15.835683 42.09375 13 44.916353 13 48.40625 C 13 51.896147 15.835683 54.71875 19.3125 54.71875 C 22.789317 54.71875 25.59375 51.896147 25.59375 48.40625 C 25.59375 44.916353 22.789317 42.09375 19.3125 42.09375 z M 63.125 50.25 C 62.88849 50.250494 62.662861 50.453389 62.625 50.6875 C 61.49358 57.66588 55.318026 62.90625 48.21875 62.90625 C 46.260769 62.90625 44.304022 62.521838 42.4375 61.71875 C 42.219182 61.6254 41.972086 61.674968 41.84375 61.875 L 36.8125 69.8125 C 36.73924 69.928568 36.74486 70.05464 36.78125 70.1875 C 36.81763 70.319866 36.877565 70.438755 37 70.5 C 40.483749 72.25188 44.38343 73.1875 48.21875 73.1875 C 49.64126 73.1875 51.125783 73.017203 52.625 72.75 C 52.835451 72.71295 52.974923 72.556622 53 72.34375 C 53.499575 68.009736 57.157238 64.75 61.5 64.75 C 62.846296 64.75 64.223746 65.098046 65.46875 65.75 C 65.658057 65.84927 65.881279 65.80985 66.03125 65.65625 C 69.957537 61.634384 72.443387 56.324702 73 50.75 C 73.01377 50.613188 72.967441 50.508488 72.875 50.40625 C 72.78256 50.304013 72.636695 50.249507 72.5 50.25 L 63.125 50.25 z M 61.4375 66.9375 C 57.960683 66.9375 55.125 69.746857 55.125 73.21875 C 55.125 76.690644 57.960683 79.5 61.4375 79.5 C 64.914317 79.5 67.71875 76.690644 67.71875 73.21875 C 67.71875 69.746857 64.914317 66.9375 61.4375 66.9375 z "
         inkscape:radius="0.9342373"
         sodipodi:type="inkscape:offset" />
      <path
         style="overflow:visible;opacity:0.3;fill:#000000"
         d="m 61.195972,18.5 c -3.39725,0 -6.148105,2.765875 -6.148105,6.175575 0,3.409702 2.750855,6.175576 6.148105,6.175576 3.397249,0 6.148104,-2.765874 6.148104,-6.175576 0,-3.4097 -2.750855,-6.175575 -6.148104,-6.175575 z m -12.984108,4.836815 c -3.791558,4.94e-4 -7.635678,0.961696 -11.092383,2.677522 -0.122927,0.06124 -0.199587,0.169934 -0.236466,0.3023 -0.03737,0.132366 -0.02978,0.272112 0.04299,0.388673 l 4.987273,7.924602 c 0.126369,0.201513 0.383102,0.286697 0.601912,0.194336 1.845871,-0.783826 3.761308,-1.166017 5.69667,-1.166017 7.118944,0 13.329718,5.298822 14.445894,12.329556 0.03737,0.236088 0.235436,0.410267 0.472931,0.410267 h 9.372634 c 0.136694,0 0.273497,-0.0494 0.365447,-0.151151 0.09195,-0.101744 0.141765,-0.229774 0.128981,-0.36708 -0.505476,-5.216622 -2.725758,-10.267413 -6.234091,-14.186548 -0.15833,-0.177806 -0.423285,-0.194676 -0.62341,-0.06478 -1.414643,0.917674 -3.019703,1.403539 -4.643322,1.403539 -4.736621,0 -8.576759,-3.865338 -8.577251,-8.593982 4.92e-4,-0.0024 0,-0.16484 0,-0.172743 0,-0.235593 -0.175862,-0.456137 -0.408439,-0.496638 -1.481024,-0.257818 -2.918659,-0.431858 -4.299374,-0.431858 z m -15.047807,5.1823 c -0.0649,0.01599 -0.14012,0.04464 -0.193471,0.08637 -4.065439,3.145185 -7.114281,7.56847 -8.598747,12.459115 -0.05802,0.191142 -0.0063,0.393766 0.150478,0.51823 2.043045,1.625441 3.267524,4.127476 3.267524,6.693805 0,2.566329 -1.223986,5.068365 -3.267524,6.693805 -0.155871,0.123969 -0.2085,0.326596 -0.150478,0.51823 1.472665,4.849651 4.497475,9.256065 8.512759,12.394336 0.107685,0.08446 0.230719,0.131672 0.365447,0.107964 0.134237,-0.02321 0.249188,-0.122441 0.322453,-0.237521 l 5.030267,-7.903009 c 0.128336,-0.202007 0.09349,-0.467651 -0.08599,-0.626196 -3.151355,-2.785128 -4.965777,-6.77856 -4.965777,-10.94761 0,-4.200166 1.824471,-8.204679 5.00877,-10.990795 0.179474,-0.157556 0.234837,-0.423201 0.107484,-0.626196 l -4.987273,-7.9246 c -0.07277,-0.115575 -0.188216,-0.192223 -0.322453,-0.21593 -0.06712,-0.01184 -0.128566,-0.01599 -0.193472,0 z M 19.298579,42.07947 c -3.476817,0 -6.298582,2.836828 -6.298582,6.326725 0,3.489897 2.821765,6.305132 6.298582,6.305132 3.476817,0 6.298582,-2.815235 6.298582,-6.305132 0,-3.489897 -2.821765,-6.326725 -6.298582,-6.326725 z m 53.204744,8.162122 -9.372634,0.0216 c -0.23651,4.94e-4 -0.456566,0.176154 -0.494427,0.410265 -1.13142,6.97838 -7.325122,12.243187 -14.424398,12.243187 -1.957981,0 -3.894638,-0.406116 -5.76116,-1.209204 -0.218318,-0.09335 -0.473576,-0.02729 -0.601912,0.172742 l -5.030267,7.924603 c -0.07326,0.116068 -0.07938,0.255812 -0.04299,0.388672 0.03638,0.132366 0.114031,0.241056 0.236466,0.302301 3.483749,1.75188 7.364547,2.677521 11.199867,2.677521 1.42251,0 2.907641,-0.143062 4.406858,-0.410265 0.210451,-0.03705 0.361867,-0.197393 0.386944,-0.410265 0.499575,-4.334014 4.1485,-7.600708 8.491262,-7.600708 1.346296,0 2.731916,0.34132 3.97692,0.993274 0.189307,0.09927 0.408947,0.06723 0.558918,-0.08637 3.926287,-4.021866 6.408372,-9.324414 6.964985,-14.899116 0.01377,-0.136812 -0.03654,-0.264841 -0.128981,-0.367079 -0.09244,-0.102237 -0.228752,-0.151644 -0.365447,-0.151151 z M 61.432437,66.932921 c -3.476817,0 -6.298582,2.811646 -6.298582,6.283539 0,3.471894 2.821765,6.28354 6.298582,6.28354 3.476817,0 6.298582,-2.811646 6.298582,-6.28354 0,-3.471893 -2.821765,-6.283539 -6.298582,-6.283539 z"
         id="path4353"
         inkscape:connector-curvature="0" />
      <path
         id="path3324"
         d="m 61.195972,17.5 c -3.39725,0 -6.148105,2.765875 -6.148105,6.175575 0,3.409702 2.750855,6.175576 6.148105,6.175576 3.397249,0 6.148104,-2.765874 6.148104,-6.175576 0,-3.4097 -2.750855,-6.175575 -6.148104,-6.175575 z m -12.984108,4.836815 c -3.791558,4.94e-4 -7.635678,0.961696 -11.092383,2.677522 -0.122927,0.06124 -0.199587,0.169934 -0.236466,0.3023 -0.03737,0.132366 -0.02978,0.272112 0.04299,0.388673 l 4.987273,7.924602 c 0.126369,0.201513 0.383102,0.286697 0.601912,0.194336 1.845871,-0.783826 3.761308,-1.166017 5.69667,-1.166017 7.118944,0 13.329718,5.298822 14.445894,12.329556 0.03737,0.236088 0.235436,0.410267 0.472931,0.410267 h 9.372634 c 0.136694,0 0.273497,-0.0494 0.365447,-0.151151 0.09195,-0.101744 0.141765,-0.229774 0.128981,-0.36708 -0.505476,-5.216622 -2.725758,-10.267413 -6.234091,-14.186548 -0.15833,-0.177806 -0.423285,-0.194676 -0.62341,-0.06478 -1.414643,0.917674 -3.019703,1.403539 -4.643322,1.403539 -4.736621,0 -8.576759,-3.865338 -8.577251,-8.593982 4.92e-4,-0.0024 0,-0.16484 0,-0.172743 0,-0.235593 -0.175862,-0.456137 -0.408439,-0.496638 -1.481024,-0.257818 -2.918659,-0.431858 -4.299374,-0.431858 z m -15.047807,5.1823 c -0.0649,0.01599 -0.14012,0.04464 -0.193471,0.08637 -4.065439,3.145185 -7.114281,7.56847 -8.598747,12.459115 -0.05802,0.191142 -0.0063,0.393766 0.150478,0.51823 2.043045,1.625441 3.267524,4.127476 3.267524,6.693805 0,2.566329 -1.223986,5.068365 -3.267524,6.693805 -0.155871,0.123969 -0.2085,0.326596 -0.150478,0.51823 1.472665,4.849651 4.497475,9.256065 8.512759,12.394336 0.107685,0.08446 0.230719,0.131672 0.365447,0.107964 0.134237,-0.02321 0.249188,-0.122441 0.322453,-0.237521 l 5.030267,-7.903009 c 0.128336,-0.202007 0.09349,-0.467651 -0.08599,-0.626196 -3.151355,-2.785128 -4.965777,-6.77856 -4.965777,-10.94761 0,-4.200166 1.824471,-8.204679 5.00877,-10.990795 0.179474,-0.157556 0.234837,-0.423201 0.107484,-0.626196 l -4.987273,-7.9246 c -0.07277,-0.115575 -0.188216,-0.192223 -0.322453,-0.21593 -0.06712,-0.01184 -0.128566,-0.01599 -0.193472,0 z M 19.298579,41.07947 c -3.476817,0 -6.298582,2.836828 -6.298582,6.326725 0,3.489897 2.821765,6.305132 6.298582,6.305132 3.476817,0 6.298582,-2.815235 6.298582,-6.305132 0,-3.489897 -2.821765,-6.326725 -6.298582,-6.326725 z m 53.204744,8.162122 -9.372634,0.0216 c -0.23651,4.94e-4 -0.456566,0.176154 -0.494427,0.410265 -1.13142,6.97838 -7.325122,12.243187 -14.424398,12.243187 -1.957981,0 -3.894638,-0.406116 -5.76116,-1.209204 -0.218318,-0.09335 -0.473576,-0.02729 -0.601912,0.172742 l -5.030267,7.924603 c -0.07326,0.116068 -0.07938,0.255812 -0.04299,0.388672 0.03638,0.132366 0.114031,0.241056 0.236466,0.302301 3.483749,1.75188 7.364547,2.677521 11.199867,2.677521 1.42251,0 2.907641,-0.143062 4.406858,-0.410265 0.210451,-0.03705 0.361867,-0.197393 0.386944,-0.410265 0.499575,-4.334014 4.1485,-7.600708 8.491262,-7.600708 1.346296,0 2.731916,0.34132 3.97692,0.993274 0.189307,0.09927 0.408947,0.06723 0.558918,-0.08637 3.926287,-4.021866 6.408372,-9.324414 6.964985,-14.899116 0.01377,-0.136812 -0.03654,-0.264841 -0.128981,-0.367079 -0.09244,-0.102237 -0.228752,-0.151644 -0.365447,-0.151151 z M 61.432437,65.932921 c -3.476817,0 -6.298582,2.811646 -6.298582,6.283539 0,3.471894 2.821765,6.28354 6.298582,6.28354 3.476817,0 6.298582,-2.811646 6.298582,-6.28354 0,-3.471893 -2.821765,-6.283539 -6.298582,-6.283539 z"
         style="overflow:visible;fill:#ffffff"
         inkscape:connector-curvature="0" />
    </g>
    <g
       style="display:inline"
       id="g907">
      <path
         id="rect4377"
         d="M 12,86 C 8.676,86 6,83.324 6,80 V 12 C 6,8.676 8.676,6 12,6 h 72 c 3.324,0 6,2.676 6,6 v 68 c 0,3.324 -2.676,6 -6,6 z m 0,-0.96875 h 72 c 2.8049,0 5.0312,-2.2264 5.0312,-5.0312 v -68 c 0,-2.8049 -2.226,-5.0312 -5.031,-5.0312 h -72 c -2.8049,0 -5.0312,2.2263 -5.0312,5.0312 v 68 c 0,2.8049 2.2264,5.0312 5.0312,5.0312 z"
         style="opacity:0.3;fill:url(#linearGradient4390)"
         inkscape:connector-curvature="0" />
      <path
         id="rect4414"
         d="m 6,78 v 2 c 0,3.324 2.676,6 6,6 h 72 c 3.324,0 6,-2.676 6,-6 v -2 c 0,3.324 -2.676,6 -6,6 H 12 C 8.676,84 6,81.324 6,78 Z"
         style="opacity:0.1;fill:url(#linearGradient4429)"
         inkscape:connector-curvature="0" />
      <g
         id="layer4-3">
        <path
           style="fill:url(#linearGradient3228)"
           inkscape:connector-curvature="0"
           d="m 6,80 v 4 c 0,3.324 2.676,6 6,6 h 72 c 3.324,0 6,-2.676 6,-6 v -4 c 0,3.324 -2.676,6 -6,6 H 12 C 8.676,86 6,83.324 6,80 Z"
           id="path3888" />
        <path
           style="color:#000000;opacity:0.1"
           inkscape:connector-curvature="0"
           d="m 6,82 v 2 c 0,3.324 2.676,6 6,6 h 72 c 3.324,0 6,-2.676 6,-6 v -2 c 0,3.324 -2.676,6 -6,6 H 12 C 8.676,88 6,85.324 6,82 Z"
           id="rect4345" />
        <path
           style="color:#000000;opacity:0.15"
           inkscape:connector-curvature="0"
           d="m 6,83 v 1 c 0,3.324 2.676,6 6,6 h 72 c 3.324,0 6,-2.676 6,-6 v -1 c 0,3.324 -2.676,6 -6,6 H 12 C 8.676,89 6,86.324 6,83 Z"
           id="rect4336" />
      </g>
    </g>
  </g>
  <g
     inkscape:groupmode="layer"
     id="layer5"
     inkscape:label="Highlight"
     sodipodi:insensitive="true">
    <rect
       style="opacity:0.1;fill:url(#linearGradient3613);fill-opacity:1;fill-rule:nonzero;stroke:#ffffff;stroke-width:0.5;stroke-linecap:round;stroke-linejoin:miter;stroke-miterlimit:4;stroke-opacity:1;stroke-dasharray:none;stroke-dashoffset:0;filter:url(#filter3794)"
       id="rect3171"
       width="66"
       height="66"
       x="15"
       y="15"
       rx="12"
       ry="12"
       clip-path="url(#clipPath3613)" />
  </g>
</svg>
