<?xml version="1.0" encoding="UTF-8" standalone="no"?>
<!-- Created with Inkscape (http://www.inkscape.org/) -->

<svg
   xmlns:dc="http://purl.org/dc/elements/1.1/"
   xmlns:cc="http://creativecommons.org/ns#"
   xmlns:rdf="http://www.w3.org/1999/02/22-rdf-syntax-ns#"
   xmlns:svg="http://www.w3.org/2000/svg"
   xmlns="http://www.w3.org/2000/svg"
   xmlns:xlink="http://www.w3.org/1999/xlink"
   xmlns:sodipodi="http://sodipodi.sourceforge.net/DTD/sodipodi-0.dtd"
   xmlns:inkscape="http://www.inkscape.org/namespaces/inkscape"
   width="96"
   height="96"
   id="svg2408"
   sodipodi:version="0.32"
   inkscape:version="0.92.2 5c3e80d, 2017-08-06"
   version="1.0"
   sodipodi:docname="distributor-logo-linux-mint.svg"
   inkscape:output_extension="org.inkscape.output.svg.inkscape">
  <defs
     id="defs2410">
    <linearGradient
       id="linearGradient4266">
      <stop
         style="stop-color:#47761a;stop-opacity:1;"
         offset="0"
         id="stop4268" />
      <stop
         style="stop-color:#61a224;stop-opacity:1;"
         offset="1"
         id="stop4270" />
    </linearGradient>
    <linearGradient
       inkscape:collect="always"
       id="linearGradient4209">
      <stop
         style="stop-color:#000000;stop-opacity:1;"
         offset="0"
         id="stop4211" />
      <stop
         style="stop-color:#000000;stop-opacity:0;"
         offset="1"
         id="stop4213" />
    </linearGradient>
    <linearGradient
       id="ButtonShadow"
       gradientTransform="scale(1.0058652,0.994169)"
       x1="45.447727"
       y1="92.539597"
       x2="45.447727"
       y2="7.0165396"
       gradientUnits="userSpaceOnUse">
      <stop
         style="stop-color:#000000;stop-opacity:1;"
         offset="0"
         id="stop3750" />
      <stop
         style="stop-color:#000000;stop-opacity:0.58823532;"
         offset="1"
         id="stop3752" />
    </linearGradient>
    <linearGradient
       inkscape:collect="always"
       id="linearGradient3737">
      <stop
         style="stop-color:#ffffff;stop-opacity:1;"
         offset="0"
         id="stop3739" />
      <stop
         style="stop-color:#ffffff;stop-opacity:0;"
         offset="1"
         id="stop3741" />
    </linearGradient>
    <linearGradient
       id="linearGradient3700">
      <stop
         style="stop-color:#2276c5;stop-opacity:1;"
         offset="0"
         id="stop3702" />
      <stop
         style="stop-color:#68baf4;stop-opacity:1;"
         offset="1"
         id="stop3704" />
    </linearGradient>
    <inkscape:perspective
       sodipodi:type="inkscape:persp3d"
       inkscape:vp_x="0 : 526.18109 : 1"
       inkscape:vp_y="0 : 1000 : 0"
       inkscape:vp_z="744.09448 : 526.18109 : 1"
       inkscape:persp3d-origin="372.04724 : 350.78739 : 1"
       id="perspective2416" />
    <linearGradient
       inkscape:collect="always"
       xlink:href="#linearGradient3700"
       id="linearGradient3706"
       x1="48"
       y1="90"
       x2="48"
       y2="5.9877172"
       gradientUnits="userSpaceOnUse" />
    <linearGradient
       inkscape:collect="always"
       xlink:href="#linearGradient3737"
       id="linearGradient3743"
       x1="36.357143"
       y1="6"
       x2="36.357143"
       y2="63.893143"
       gradientUnits="userSpaceOnUse" />
    <filter
       inkscape:collect="always"
       id="filter3174">
      <feGaussianBlur
         inkscape:collect="always"
         stdDeviation="1.71"
         id="feGaussianBlur3176" />
    </filter>
    <filter
       inkscape:collect="always"
       id="filter3794"
       x="-0.192"
       width="1.384"
       y="-0.192"
       height="1.384">
      <feGaussianBlur
         inkscape:collect="always"
         stdDeviation="5.28"
         id="feGaussianBlur3796" />
    </filter>
    <linearGradient
       inkscape:collect="always"
       xlink:href="#linearGradient3737"
       id="linearGradient3613"
       x1="48"
       y1="20.220806"
       x2="48"
       y2="138.66119"
       gradientUnits="userSpaceOnUse" />
    <clipPath
       clipPathUnits="userSpaceOnUse"
       id="clipPath3613">
      <rect
         ry="6"
         rx="6"
         y="6"
         x="6"
         height="84"
         width="84"
         id="rect3615"
         style="fill:#ffffff;fill-opacity:1;fill-rule:nonzero;stroke:none" />
    </clipPath>
    <inkscape:perspective
       id="perspective2985"
       inkscape:persp3d-origin="0.5 : 0.33333333 : 1"
       inkscape:vp_z="1 : 0.5 : 1"
       inkscape:vp_y="0 : 1000 : 0"
       inkscape:vp_x="0 : 0.5 : 1"
       sodipodi:type="inkscape:persp3d" />
    <linearGradient
       inkscape:collect="always"
       xlink:href="#ButtonShadow-0"
       id="linearGradient3788"
       gradientUnits="userSpaceOnUse"
       gradientTransform="matrix(1.0238095,0,0,1.0119048,-1.1428571,-98.071429)"
       x1="32.251034"
       y1="6.1317081"
       x2="32.251034"
       y2="90.238609" />
    <linearGradient
       id="ButtonShadow-0"
       gradientTransform="matrix(1.0058652,0,0,0.994169,100,0)"
       x1="45.447727"
       y1="92.539597"
       x2="45.447727"
       y2="7.0165396"
       gradientUnits="userSpaceOnUse">
      <stop
         style="stop-color:#000000;stop-opacity:1;"
         offset="0"
         id="stop3750-8" />
      <stop
         style="stop-color:#000000;stop-opacity:0.58823532;"
         offset="1"
         id="stop3752-5" />
    </linearGradient>
    <linearGradient
       inkscape:collect="always"
       xlink:href="#ButtonShadow-0"
       id="linearGradient3780"
       gradientUnits="userSpaceOnUse"
       gradientTransform="matrix(1.0238095,0,0,1.0119048,-1.1428571,-98.071429)"
       x1="32.251034"
       y1="6.1317081"
       x2="32.251034"
       y2="90.238609" />
    <linearGradient
       id="linearGradient2994"
       gradientTransform="matrix(1.0058652,0,0,0.994169,100,0)"
       x1="45.447727"
       y1="92.539597"
       x2="45.447727"
       y2="7.0165396"
       gradientUnits="userSpaceOnUse">
      <stop
         style="stop-color:#000000;stop-opacity:1;"
         offset="0"
         id="stop2996" />
      <stop
         style="stop-color:#000000;stop-opacity:0.58823532;"
         offset="1"
         id="stop2998" />
    </linearGradient>
    <linearGradient
       inkscape:collect="always"
       xlink:href="#ButtonShadow-0"
       id="linearGradient3772"
       gradientUnits="userSpaceOnUse"
       gradientTransform="matrix(1.0238095,0,0,1.0119048,-1.1428571,-98.071429)"
       x1="32.251034"
       y1="6.1317081"
       x2="32.251034"
       y2="90.238609" />
    <linearGradient
       id="linearGradient3001"
       gradientTransform="matrix(1.0058652,0,0,0.994169,100,0)"
       x1="45.447727"
       y1="92.539597"
       x2="45.447727"
       y2="7.0165396"
       gradientUnits="userSpaceOnUse">
      <stop
         style="stop-color:#000000;stop-opacity:1;"
         offset="0"
         id="stop3003" />
      <stop
         style="stop-color:#000000;stop-opacity:0.58823532;"
         offset="1"
         id="stop3005" />
    </linearGradient>
    <linearGradient
       inkscape:collect="always"
       xlink:href="#ButtonShadow-0"
       id="linearGradient3725"
       gradientUnits="userSpaceOnUse"
       gradientTransform="matrix(1.0238095,0,0,1.0119048,-1.1428571,-98.071429)"
       x1="32.251034"
       y1="6.1317081"
       x2="32.251034"
       y2="90.238609" />
    <linearGradient
       id="linearGradient3008"
       gradientTransform="matrix(1.0058652,0,0,0.994169,100,0)"
       x1="45.447727"
       y1="92.539597"
       x2="45.447727"
       y2="7.0165396"
       gradientUnits="userSpaceOnUse">
      <stop
         style="stop-color:#000000;stop-opacity:1;"
         offset="0"
         id="stop3010" />
      <stop
         style="stop-color:#000000;stop-opacity:0.58823532;"
         offset="1"
         id="stop3012" />
    </linearGradient>
    <linearGradient
       inkscape:collect="always"
       xlink:href="#ButtonShadow-0"
       id="linearGradient3721"
       gradientUnits="userSpaceOnUse"
       gradientTransform="translate(0,-97)"
       x1="32.251034"
       y1="6.1317081"
       x2="32.251034"
       y2="90.238609" />
    <linearGradient
       id="linearGradient3015"
       gradientTransform="matrix(1.0058652,0,0,0.994169,100,0)"
       x1="45.447727"
       y1="92.539597"
       x2="45.447727"
       y2="7.0165396"
       gradientUnits="userSpaceOnUse">
      <stop
         style="stop-color:#000000;stop-opacity:1;"
         offset="0"
         id="stop3017" />
      <stop
         style="stop-color:#000000;stop-opacity:0.58823532;"
         offset="1"
         id="stop3019" />
    </linearGradient>
    <linearGradient
       y2="90.238609"
       x2="32.251034"
       y1="6.1317081"
       x1="32.251034"
       gradientTransform="matrix(1.0238095,0,0,1.0119048,-1.1428571,-98.071429)"
       gradientUnits="userSpaceOnUse"
       id="linearGradient3026"
       xlink:href="#ButtonShadow-0"
       inkscape:collect="always" />
    <filter
       id="filter4135"
       color-interpolation-filters="sRGB">
      <feGaussianBlur
         stdDeviation="0.74662361"
         id="feGaussianBlur4137" />
    </filter>
    <filter
       id="filter4006"
       color-interpolation-filters="sRGB">
      <feGaussianBlur
         stdDeviation="1.6495597"
         id="feGaussianBlur4008" />
    </filter>
    <filter
       id="filter3965"
       color-interpolation-filters="sRGB">
      <feGaussianBlur
         stdDeviation="2.4743396"
         id="feGaussianBlur3967" />
    </filter>
    <filter
       id="filter3573"
       color-interpolation-filters="sRGB">
      <feGaussianBlur
         stdDeviation="1.6284922"
         id="feGaussianBlur3575" />
    </filter>
    <linearGradient
       gradientTransform="matrix(1.091261,0,0,1.091261,196.35071,-38.224469)"
       gradientUnits="userSpaceOnUse"
       xlink:href="#linearGradient3312"
       id="linearGradient3538"
       y2="408.57144"
       x2="116.42857"
       y1="362.14285"
       x1="61.42857" />
    <filter
       id="filter3469"
       color-interpolation-filters="sRGB">
      <feGaussianBlur
         stdDeviation="2.7119931"
         id="feGaussianBlur3471" />
    </filter>
    <linearGradient
       spreadMethod="pad"
       gradientTransform="translate(0,80)"
       gradientUnits="userSpaceOnUse"
       xlink:href="#linearGradient3431"
       id="linearGradient4136"
       y2="375.87961"
       x2="113.64215"
       y1="416.38858"
       x1="70.491508" />
    <filter
       id="filter3546"
       color-interpolation-filters="sRGB">
      <feGaussianBlur
         stdDeviation="0.15992437"
         id="feGaussianBlur3548" />
    </filter>
    <filter
       id="filter3291"
       color-interpolation-filters="sRGB">
      <feGaussianBlur
         stdDeviation="0.400625"
         id="feGaussianBlur3293" />
    </filter>
    <linearGradient
       id="linearGradient3312">
      <stop
         offset="0"
         style="stop-color:#c7f994;stop-opacity:1"
         id="stop3314" />
      <stop
         offset="1"
         style="stop-color:#87cf3e;stop-opacity:1"
         id="stop3316" />
    </linearGradient>
    <linearGradient
       id="linearGradient3431">
      <stop
         offset="0"
         style="stop-color:#3d3d3d;stop-opacity:1"
         id="stop3433" />
      <stop
         offset="1"
         style="stop-color:#000000;stop-opacity:0.11400651"
         id="stop3435" />
    </linearGradient>
    <inkscape:perspective
       id="perspective3157"
       inkscape:persp3d-origin="500 : 106.66667 : 1"
       inkscape:vp_z="1000 : 160 : 1"
       inkscape:vp_y="0 : 1000 : 0"
       inkscape:vp_x="0 : 160 : 1"
       sodipodi:type="inkscape:persp3d" />
    <linearGradient
       inkscape:collect="always"
       xlink:href="#linearGradient3312"
       id="linearGradient4201"
       x1="32"
       y1="24"
       x2="48"
       y2="72"
       gradientUnits="userSpaceOnUse" />
    <linearGradient
       inkscape:collect="always"
       xlink:href="#linearGradient4209"
       id="linearGradient4215"
       x1="29.158056"
       y1="64.280525"
       x2="49.614868"
       y2="39.964417"
       gradientUnits="userSpaceOnUse" />
    <linearGradient
       inkscape:collect="always"
       xlink:href="#linearGradient4266"
       id="linearGradient4272"
       x1="37.964287"
       y1="90.5"
       x2="37.964287"
       y2="5.8498044"
       gradientUnits="userSpaceOnUse" />
    <linearGradient
       id="linearGradient4390"
       x1="48"
       x2="48"
       y1="88"
       y2="-40"
       gradientTransform="matrix(1,0,0,-1,0,92)"
       gradientUnits="userSpaceOnUse"
       xlink:href="#linearGradient3737" />
    <linearGradient
       id="linearGradient4429"
       x1="48"
       x2="112.12"
       y1="82"
       y2="82.455002"
       gradientUnits="userSpaceOnUse"
       spreadMethod="reflect"
       xlink:href="#linearGradient3737" />
    <linearGradient
       id="linearGradient3228"
       x1="90"
       x2="48"
       y1="88"
       y2="88"
       gradientUnits="userSpaceOnUse"
       spreadMethod="reflect">
      <stop
         id="stop3894"
         stop-opacity=".58824"
         offset="0" />
      <stop
         id="stop3896"
         stop-opacity=".47059"
         offset=".1178" />
      <stop
         id="stop3898"
         stop-opacity=".39216"
         offset=".2381" />
      <stop
         id="stop3900"
         stop-opacity=".31373"
         offset="1" />
    </linearGradient>
  </defs>
  <sodipodi:namedview
     id="base"
     pagecolor="#ffffff"
     bordercolor="#666666"
     borderopacity="1.0"
     inkscape:pageopacity="0.0"
     inkscape:pageshadow="2"
     inkscape:zoom="5.56668"
     inkscape:cx="56.10061"
     inkscape:cy="47.194384"
     inkscape:document-units="px"
     inkscape:current-layer="layer1"
     showgrid="true"
     showborder="true"
     inkscape:showpageshadow="false"
     inkscape:window-width="1366"
     inkscape:window-height="743"
     inkscape:window-x="0"
     inkscape:window-y="25"
     inkscape:window-maximized="1"
     inkscape:snap-global="false">
    <inkscape:grid
       type="xygrid"
       id="grid3732"
       visible="true"
       enabled="true" />
  </sodipodi:namedview>
  <metadata
     id="metadata2413">
    <rdf:RDF>
      <cc:Work
         rdf:about="">
        <dc:format>image/svg+xml</dc:format>
        <dc:type
           rdf:resource="http://purl.org/dc/dcmitype/StillImage" />
        <dc:title />
      </cc:Work>
    </rdf:RDF>
  </metadata>
  <g
     inkscape:groupmode="layer"
     id="layer2"
     inkscape:label="Blur Shadow"
     style="display:none"
     sodipodi:insensitive="true">
    <rect
       style="opacity:0.9;fill:url(#ButtonShadow);fill-opacity:1;fill-rule:nonzero;stroke:none;filter:url(#filter3174)"
       id="rect3745"
       width="86"
       height="85"
       x="5"
       y="7"
       rx="6"
       ry="6" />
  </g>
  <g
     inkscape:groupmode="layer"
     id="layer3"
     inkscape:label="Shadow"
     sodipodi:insensitive="true"
     style="display:inline">
    <path
       sodipodi:type="inkscape:offset"
       inkscape:radius="0.99097413"
       inkscape:original="M 12 -94.03125 C 7.028367 -94.03125 2.96875 -89.971633 2.96875 -85 L 2.96875 -14 C 2.96875 -9.0283671 7.0283671 -4.96875 12 -4.96875 L 84 -4.96875 C 88.971633 -4.96875 93.03125 -9.028367 93.03125 -14 L 93.03125 -85 C 93.03125 -89.971633 88.971633 -94.03125 84 -94.03125 L 12 -94.03125 z "
       style="opacity:0.07999998;fill:url(#linearGradient3026);fill-opacity:1;fill-rule:nonzero;stroke:none;display:inline"
       id="path3786"
       d="m 12,-95.03125 c -5.5110903,0 -10.03125,4.52016 -10.03125,10.03125 l 0,71 c 0,5.5110902 4.5201598,10.03125 10.03125,10.03125 l 72,0 c 5.51109,0 10.03125,-4.5201597 10.03125,-10.03125 l 0,-71 c 0,-5.51109 -4.52016,-10.03125 -10.03125,-10.03125 l -72,0 z"
       transform="scale(1,-1)" />
    <path
       sodipodi:type="inkscape:offset"
       inkscape:radius="1.0360184"
       inkscape:original="M 12 -93 C 7.5908667 -93 4 -89.409133 4 -85 L 4 -14 C 4 -9.5908667 7.5908667 -6 12 -6 L 84 -6 C 88.409133 -6 92 -9.5908667 92 -14 L 92 -85 C 92 -89.409133 88.409133 -93 84 -93 L 12 -93 z "
       style="opacity:0.1;fill:url(#linearGradient3780);fill-opacity:1;fill-rule:nonzero;stroke:none;display:inline"
       id="path3778"
       d="m 12,-94.03125 c -4.971633,0 -9.03125,4.059617 -9.03125,9.03125 l 0,71 c 0,4.9716329 4.0596171,9.03125 9.03125,9.03125 l 72,0 c 4.971633,0 9.03125,-4.059617 9.03125,-9.03125 l 0,-71 c 0,-4.971633 -4.059617,-9.03125 -9.03125,-9.03125 l -72,0 z"
       transform="scale(1,-1)" />
    <path
       sodipodi:type="inkscape:offset"
       inkscape:radius="0.98962283"
       inkscape:original="M 12 -92 C 8.122 -92 5 -88.878 5 -85 L 5 -14 C 5 -10.122 8.122 -7 12 -7 L 84 -7 C 87.878 -7 91 -10.122 91 -14 L 91 -85 C 91 -88.878 87.878 -92 84 -92 L 12 -92 z "
       style="opacity:0.2;fill:url(#linearGradient3772);fill-opacity:1;fill-rule:nonzero;stroke:none;display:inline"
       id="path3770"
       d="m 12,-93 c -4.4091333,0 -8,3.590867 -8,8 l 0,71 c 0,4.4091333 3.5908667,8 8,8 l 72,0 c 4.409133,0 8,-3.5908667 8,-8 l 0,-71 c 0,-4.409133 -3.590867,-8 -8,-8 l -72,0 z"
       transform="scale(1,-1)" />
    <rect
       style="opacity:0.3;fill:url(#linearGradient3725);fill-opacity:1;fill-rule:nonzero;stroke:none;display:inline"
       id="rect3723"
       width="86"
       height="85"
       x="5"
       y="-92"
       rx="7"
       ry="7"
       transform="scale(1,-1)" />
    <rect
       transform="scale(1,-1)"
       ry="6"
       rx="6"
       y="-91"
       x="6"
       height="84"
       width="84"
       id="rect3716"
       style="opacity:0.45;fill:url(#linearGradient3721);fill-opacity:1;fill-rule:nonzero;stroke:none;display:inline" />
  </g>
  <g
     inkscape:label="Button"
     inkscape:groupmode="layer"
     id="layer1"
     style="display:inline">
    <rect
       style="fill:url(#linearGradient4272);fill-opacity:1;fill-rule:nonzero;stroke:none"
       id="rect2419"
       width="84"
       height="84"
       x="6"
       y="6"
       rx="6"
       ry="6" />
    <g
       style="display:inline"
       id="g907">
      <path
         id="rect4377"
         d="M 12,86 C 8.676,86 6,83.324 6,80 V 12 C 6,8.676 8.676,6 12,6 h 72 c 3.324,0 6,2.676 6,6 v 68 c 0,3.324 -2.676,6 -6,6 z m 0,-0.96875 h 72 c 2.8049,0 5.0312,-2.2264 5.0312,-5.0312 v -68 c 0,-2.8049 -2.226,-5.0312 -5.031,-5.0312 h -72 c -2.8049,0 -5.0312,2.2263 -5.0312,5.0312 v 68 c 0,2.8049 2.2264,5.0312 5.0312,5.0312 z"
         style="opacity:0.3;fill:url(#linearGradient4390)"
         inkscape:connector-curvature="0" />
      <path
         id="rect4414"
         d="m 6,78 v 2 c 0,3.324 2.676,6 6,6 h 72 c 3.324,0 6,-2.676 6,-6 v -2 c 0,3.324 -2.676,6 -6,6 H 12 C 8.676,84 6,81.324 6,78 Z"
         style="opacity:0.1;fill:url(#linearGradient4429)"
         inkscape:connector-curvature="0" />
      <g
         id="layer4-3">
        <path
           style="fill:url(#linearGradient3228)"
           inkscape:connector-curvature="0"
           d="m 6,80 v 4 c 0,3.324 2.676,6 6,6 h 72 c 3.324,0 6,-2.676 6,-6 v -4 c 0,3.324 -2.676,6 -6,6 H 12 C 8.676,86 6,83.324 6,80 Z"
           id="path3888" />
        <path
           style="color:#000000;opacity:0.1"
           inkscape:connector-curvature="0"
           d="m 6,82 v 2 c 0,3.324 2.676,6 6,6 h 72 c 3.324,0 6,-2.676 6,-6 v -2 c 0,3.324 -2.676,6 -6,6 H 12 C 8.676,88 6,85.324 6,82 Z"
           id="rect4345" />
        <path
           style="color:#000000;opacity:0.15"
           inkscape:connector-curvature="0"
           d="m 6,83 v 1 c 0,3.324 2.676,6 6,6 h 72 c 3.324,0 6,-2.676 6,-6 v -1 c 0,3.324 -2.676,6 -6,6 H 12 C 8.676,89 6,86.324 6,83 Z"
           id="rect4336" />
      </g>
    </g>
  </g>
  <g
     inkscape:groupmode="layer"
     id="layer5"
     inkscape:label="Highlight"
     sodipodi:insensitive="true"
     style="display:none">
    <rect
       style="opacity:0.1;fill:url(#linearGradient3613);fill-opacity:1;fill-rule:nonzero;stroke:#ffffff;stroke-width:0.5;stroke-linecap:round;stroke-linejoin:miter;stroke-miterlimit:4;stroke-opacity:1;stroke-dasharray:none;stroke-dashoffset:0;filter:url(#filter3794)"
       id="rect3171"
       width="66"
       height="66"
       x="15"
       y="15"
       rx="12"
       ry="12"
       clip-path="url(#clipPath3613)" />
  </g>
  <g
     inkscape:groupmode="layer"
     id="layer4"
     inkscape:label="Logo"
     style="display:inline">
    <path
       sodipodi:type="inkscape:offset"
       inkscape:radius="1.0778418"
       inkscape:original="M 12.78125 20 A 0.98812041 0.98812041 0 0 0 12.625 20.03125 C 12.624536 20.03134 12.469205 20.06237 12.46875 20.0625 C 12.468295 20.06263 12.281692 20.124831 12.28125 20.125 C 12.280808 20.125169 12.125425 20.187293 12.125 20.1875 C 12.124575 20.187707 11.969156 20.281007 11.96875 20.28125 C 11.968344 20.281493 11.844133 20.374722 11.84375 20.375 C 11.843367 20.375278 11.687857 20.46844 11.6875 20.46875 C 11.687143 20.46906 11.562829 20.59341 11.5625 20.59375 C 11.562171 20.59409 11.469048 20.718383 11.46875 20.71875 C 11.468452 20.719117 11.344015 20.874608 11.34375 20.875 C 11.343485 20.875392 11.25023 21.030837 11.25 21.03125 C 11.24977 21.031663 11.187693 21.155818 11.1875 21.15625 C 11.187307 21.156682 11.125155 21.343303 11.125 21.34375 C 11.124845 21.344197 11.062616 21.499541 11.0625 21.5 C 11.062384 21.500459 11.031325 21.655783 11.03125 21.65625 C 11.031175 21.656717 11.031284 21.843278 11.03125 21.84375 C 11.031216 21.844222 10.999993 21.999527 11 22 L 11 38 C 11.000002 38.00053 11.031196 38.186972 11.03125 38.1875 C 11.031304 38.188028 11.062395 38.40573 11.0625 38.40625 C 11.062605 38.40677 11.093595 38.593243 11.09375 38.59375 C 11.093905 38.594257 11.156046 38.74951 11.15625 38.75 C 11.156454 38.75049 11.249749 38.937033 11.25 38.9375 C 11.250251 38.937967 11.343455 39.093309 11.34375 39.09375 C 11.344045 39.094191 11.468413 39.24959 11.46875 39.25 C 11.469087 39.25041 11.593375 39.405875 11.59375 39.40625 C 11.594125 39.406625 11.74959 39.530913 11.75 39.53125 C 11.75041 39.531587 11.905809 39.655955 11.90625 39.65625 C 11.906691 39.656545 12.062033 39.749749 12.0625 39.75 C 12.062967 39.750251 12.24951 39.843546 12.25 39.84375 C 12.25049 39.843954 12.405743 39.906095 12.40625 39.90625 C 12.406757 39.906405 12.59323 39.937395 12.59375 39.9375 C 12.59427 39.937605 12.811972 39.968696 12.8125 39.96875 C 12.813028 39.968804 12.99947 39.999998 13 40 L 19 40 L 19 44.59375 L 19 56.1875 C 19 68.228894 28.771106 78 40.8125 78 L 55.1875 78 L 75 78 C 75.00053 77.999998 75.186972 77.968804 75.1875 77.96875 C 75.188028 77.968696 75.40573 77.937605 75.40625 77.9375 C 75.40677 77.937395 75.593243 77.906405 75.59375 77.90625 C 75.594257 77.906095 75.74951 77.843954 75.75 77.84375 C 75.75049 77.843546 75.937033 77.750251 75.9375 77.75 C 75.937967 77.749749 76.093309 77.656545 76.09375 77.65625 C 76.094191 77.655955 76.24959 77.531587 76.25 77.53125 C 76.25041 77.530913 76.405875 77.406625 76.40625 77.40625 C 76.406625 77.405875 76.530913 77.25041 76.53125 77.25 C 76.531587 77.24959 76.655955 77.094191 76.65625 77.09375 C 76.656545 77.093309 76.749749 76.937967 76.75 76.9375 C 76.750251 76.937033 76.843546 76.75049 76.84375 76.75 C 76.843954 76.74951 76.906095 76.594257 76.90625 76.59375 C 76.906405 76.593243 76.937395 76.40677 76.9375 76.40625 C 76.937605 76.40573 76.968696 76.188028 76.96875 76.1875 C 76.968804 76.186972 76.999998 76.00053 77 76 L 77 56.1875 L 77 41.8125 C 77 29.771106 67.228894 20 55.1875 20 L 49 20 L 41 20 L 21 20 L 13.03125 20 L 13 20 L 12.9375 20 L 12.875 20 C 12.821572 19.999997 12.781554 19.999986 12.78125 20 z "
       style="opacity:0.05;color:#000000;fill:#000000;fill-opacity:1;fill-rule:nonzero;stroke:none;stroke-width:2;marker:none;visibility:visible;display:inline;overflow:visible;enable-background:accumulate"
       id="path4259"
       d="m 12.65625,18.9375 c 0.0024,-2.81e-4 -0.158617,0.03172 -0.15625,0.03125 0.0014,-2.73e-4 -0.04749,-0.0112 -0.09375,0 -1.4e-4,2.7e-5 -0.03109,0.02452 -0.0625,0.03125 -0.07263,0.01557 -0.155932,0.03116 -0.15625,0.03125 -4.55e-4,1.3e-4 -0.280808,0.09358 -0.28125,0.09375 -4.42e-4,1.69e-4 -0.249575,0.09354 -0.25,0.09375 -4.25e-4,2.07e-4 -0.249594,0.124757 -0.25,0.125 0,0 -0.09212,0.06128 -0.09375,0.0625 -0.0016,0.0012 0.0019,0.02983 0,0.03125 -0.01189,0.0089 -0.04689,0.01954 -0.0625,0.03125 -0.03123,0.02343 -0.03106,0.03111 -0.03125,0.03125 -0.01952,0.0117 -0.0476,0.02231 -0.0625,0.03125 -0.0074,0.0045 -0.02642,-0.0029 -0.03125,0 -3.57e-4,3.1e-4 -0.343421,0.31216 -0.34375,0.3125 0,0 -0.09242,0.09198 -0.09375,0.09375 -0.0029,0.0039 0.0045,0.02529 0,0.03125 -0.0089,0.01192 -0.01954,0.01563 -0.03125,0.03125 -0.02342,0.03124 -0.0311,0.03107 -0.03125,0.03125 -2.98e-4,3.67e-4 -0.187235,0.249608 -0.1875,0.25 -2.65e-4,3.92e-4 -0.12477,0.218337 -0.125,0.21875 -2.3e-4,4.13e-4 -0.09356,0.218318 -0.09375,0.21875 -9.6e-5,2.16e-4 -0.07814,0.140664 -0.09375,0.1875 -0.01561,0.04684 -0.03117,0.09353 -0.03125,0.09375 -7.7e-5,2.24e-4 0.01562,-0.0078 0,0.03125 -0.0078,0.01951 -0.0253,0.01638 -0.03125,0.03125 -0.003,0.0074 0.0019,0.02647 0,0.03125 -1.16e-4,4.59e-4 -0.093675,0.405783 -0.09375,0.40625 0,0 0.00349,0.08071 0,0.125 6.1e-6,-3.1e-5 0.00111,0.02293 0,0.03125 -4.7e-6,0.0057 4e-7,0.02233 0,0.03125 -0.00183,0.0091 0.00196,0.02149 0,0.03125 -0.00196,0.0098 0.00184,0.02204 0,0.03125 -0.00184,0.0092 -0.029746,-0.0075 -0.03125,0 -0.0015,0.0075 0.00102,0.0261 0,0.03125 l 0.03125,0 L 11,22 l -1.0625,0 0,16 c 0,0 -4.3e-4,0.184876 0,0.1875 9.566e-4,0.0058 -0.00149,0.02232 0,0.03125 0.00298,0.01787 -0.00391,0.03908 0,0.0625 0.00782,0.04684 0.031223,0.03099 0.03125,0.03125 5.4e-5,5.28e-4 0.031145,0.31198 0.03125,0.3125 5.2e-5,2.6e-4 -0.0078,0.01566 0,0.0625 0.0039,0.02342 0.02828,0.04469 0.03125,0.0625 4.74e-4,0.0028 -4.05e-4,0.02885 0,0.03125 1.55e-4,5.07e-4 0.124796,0.37451 0.125,0.375 2.04e-4,4.9e-4 0.155999,0.280783 0.15625,0.28125 2.51e-4,4.67e-4 0.124705,0.249559 0.125,0.25 2.95e-4,4.41e-4 0.187163,0.24959 0.1875,0.25 1.69e-4,2.05e-4 0.03128,0.02346 0.0625,0.0625 0.01561,0.01952 0.01941,0.0477 0.03125,0.0625 0.0059,0.0074 0.02755,-0.0046 0.03125,0 0.0018,0.0023 -0.0014,0.02945 0,0.03125 0,0 0.154455,0.154809 0.15625,0.15625 0.0018,0.0014 0.02894,-0.0018 0.03125,0 0.0046,0.0037 -0.0074,0.02533 0,0.03125 0.0148,0.01184 0.04298,0.01564 0.0625,0.03125 0.03904,0.03122 0.0623,0.06233 0.0625,0.0625 4.1e-4,3.37e-4 0.249559,0.187205 0.25,0.1875 4.41e-4,2.95e-4 0.249533,0.124749 0.25,0.125 4.67e-4,2.51e-4 0.28076,0.156046 0.28125,0.15625 4.9e-4,2.04e-4 0.249493,0.0936 0.25,0.09375 0,0 0.122604,0.03084 0.125,0.03125 0.0024,4.05e-4 0.02842,-4.74e-4 0.03125,0 0.01781,0.003 0.03908,0.02735 0.0625,0.03125 0.04684,0.0078 0.06224,-5.2e-5 0.0625,0 5.2e-4,1.05e-4 0.311972,0.0312 0.3125,0.03125 2.64e-4,2.7e-5 -0.01559,0.02343 0.03125,0.03125 0.02342,0.0039 0.04463,-0.003 0.0625,0 0.0089,0.0015 0.02548,-9.57e-4 0.03125,0 a 1.0779495,1.0779495 0 0 0 0.1875,0 l 4.9375,0 0,3.53125 0,11.59375 c 0,12.624477 10.250523,22.875 22.875,22.875 l 14.375,0 19.8125,0 c 0,0 0.184876,4.3e-4 0.1875,0 0.0058,-9.57e-4 0.02232,0.0015 0.03125,0 0.01787,-0.003 0.03908,0.0039 0.0625,0 0.04684,-0.0078 0.03099,-0.03122 0.03125,-0.03125 5.28e-4,-5.4e-5 0.31198,-0.03114 0.3125,-0.03125 2.6e-4,-5.3e-5 0.01566,0.0078 0.0625,0 0.02342,-0.0039 0.04469,-0.02828 0.0625,-0.03125 0.0028,-4.74e-4 0.02885,4.05e-4 0.03125,0 5.07e-4,-1.55e-4 0.37451,-0.124796 0.375,-0.125 4.9e-4,-2.04e-4 0.280783,-0.155999 0.28125,-0.15625 4.67e-4,-2.51e-4 0.249559,-0.124705 0.25,-0.125 4.41e-4,-2.95e-4 0.24959,-0.187163 0.25,-0.1875 2.05e-4,-1.69e-4 0.02346,-0.03128 0.0625,-0.0625 0.01952,-0.01561 0.0477,-0.01941 0.0625,-0.03125 0.0074,-0.0059 -0.0046,-0.02756 0,-0.03125 0.0023,-0.0018 0.02945,0.0014 0.03125,0 0,0 0.154809,-0.154455 0.15625,-0.15625 0.0014,-0.0018 -0.0018,-0.02894 0,-0.03125 0.0037,-0.0046 0.02533,0.0074 0.03125,0 0.01184,-0.0148 0.01564,-0.04298 0.03125,-0.0625 0.03122,-0.03904 0.06233,-0.0623 0.0625,-0.0625 3.37e-4,-4.1e-4 0.187205,-0.249559 0.1875,-0.25 2.95e-4,-4.41e-4 0.124749,-0.249533 0.125,-0.25 2.51e-4,-4.67e-4 0.156046,-0.28076 0.15625,-0.28125 2.04e-4,-4.9e-4 0.09359,-0.249493 0.09375,-0.25 0,0 0.03084,-0.122604 0.03125,-0.125 4.05e-4,-0.0024 -4.74e-4,-0.02842 0,-0.03125 0.003,-0.01781 0.02735,-0.03908 0.03125,-0.0625 0.0078,-0.04684 -5.2e-5,-0.06224 0,-0.0625 1.05e-4,-5.2e-4 0.0312,-0.311972 0.03125,-0.3125 2.7e-5,-2.64e-4 0.02343,0.01559 0.03125,-0.03125 0.0039,-0.02342 -0.003,-0.04463 0,-0.0625 0.0015,-0.0089 -9.57e-4,-0.02548 0,-0.03125 a 1.0779495,1.0779495 0 0 0 0,-0.1875 l 0,-19.8125 0,-14.375 c 0,-12.624477 -10.250523,-22.875 -22.875,-22.875 l -6.1875,0 -8,0 -20,0 -7.96875,0 -0.03125,0 -0.0625,0 -0.0625,0 c -0.05331,-3e-6 -0.155946,-1.4e-5 -0.15625,0 a 1.0779495,1.0779495 0 0 0 -0.0625,0 z" />
    <path
       sodipodi:type="inkscape:offset"
       inkscape:radius="0.98802161"
       inkscape:original="M 12.8125 21 A 1.0043202 1.0043202 0 0 0 12 22 L 12 38 A 1.0043202 1.0043202 0 0 0 13 39 L 20 39 L 20 44.59375 L 20 56.1875 C 20 67.696431 29.303569 77 40.8125 77 L 55.1875 77 L 75 77 A 1.0043202 1.0043202 0 0 0 76 76 L 76 56.1875 L 76 41.8125 C 76 30.303569 66.696431 21 55.1875 21 L 49 21 L 41 21 L 21 21 L 13 21 A 1.0043202 1.0043202 0 0 0 12.90625 21 A 1.0043202 1.0043202 0 0 0 12.8125 21 z "
       style="opacity:0.1;color:#000000;fill:#000000;fill-opacity:1;fill-rule:nonzero;stroke:none;stroke-width:2;marker:none;visibility:visible;display:inline;overflow:visible;enable-background:accumulate"
       id="path4255"
       d="M 12.78125,20 A 0.98812041,0.98812041 0 0 0 12.625,20.03125 c -4.64e-4,9e-5 -0.155795,0.03112 -0.15625,0.03125 -4.55e-4,1.3e-4 -0.187058,0.06233 -0.1875,0.0625 -4.42e-4,1.69e-4 -0.155825,0.06229 -0.15625,0.0625 -4.25e-4,2.07e-4 -0.155844,0.09351 -0.15625,0.09375 -4.06e-4,2.43e-4 -0.124617,0.09347 -0.125,0.09375 -3.83e-4,2.78e-4 -0.155893,0.09344 -0.15625,0.09375 -3.57e-4,3.1e-4 -0.124671,0.12466 -0.125,0.125 -3.29e-4,3.4e-4 -0.09345,0.124633 -0.09375,0.125 -2.98e-4,3.67e-4 -0.124735,0.155858 -0.125,0.15625 -2.65e-4,3.92e-4 -0.09352,0.155837 -0.09375,0.15625 -2.3e-4,4.13e-4 -0.06231,0.124568 -0.0625,0.125 -1.93e-4,4.32e-4 -0.06235,0.187053 -0.0625,0.1875 -1.55e-4,4.47e-4 -0.06238,0.155791 -0.0625,0.15625 -1.16e-4,4.59e-4 -0.03117,0.155783 -0.03125,0.15625 -7.5e-5,4.67e-4 3.4e-5,0.187028 0,0.1875 C 11.031216,21.844222 10.999993,21.999527 11,22 l 0,16 c 2e-6,5.3e-4 0.0312,0.186972 0.03125,0.1875 5.4e-5,5.28e-4 0.03115,0.21823 0.03125,0.21875 1.05e-4,5.2e-4 0.0311,0.186993 0.03125,0.1875 1.55e-4,5.07e-4 0.0623,0.15576 0.0625,0.15625 2.04e-4,4.9e-4 0.0935,0.187033 0.09375,0.1875 2.51e-4,4.67e-4 0.09346,0.155809 0.09375,0.15625 2.95e-4,4.41e-4 0.124663,0.15584 0.125,0.15625 3.37e-4,4.1e-4 0.124625,0.155875 0.125,0.15625 3.75e-4,3.75e-4 0.15584,0.124663 0.15625,0.125 4.1e-4,3.37e-4 0.155809,0.124705 0.15625,0.125 4.41e-4,2.95e-4 0.155783,0.0935 0.15625,0.09375 4.67e-4,2.51e-4 0.18701,0.09355 0.1875,0.09375 4.9e-4,2.04e-4 0.155743,0.06235 0.15625,0.0625 5.07e-4,1.55e-4 0.18698,0.03115 0.1875,0.03125 5.2e-4,1.05e-4 0.218222,0.0312 0.21875,0.03125 5.28e-4,5.4e-5 0.18697,0.03125 0.1875,0.03125 l 6,0 0,4.59375 0,11.59375 C 19,68.228894 28.771106,78 40.8125,78 L 55.1875,78 75,78 c 5.3e-4,-2e-6 0.186972,-0.0312 0.1875,-0.03125 5.28e-4,-5.4e-5 0.21823,-0.03114 0.21875,-0.03125 5.2e-4,-1.05e-4 0.186993,-0.03109 0.1875,-0.03125 5.07e-4,-1.55e-4 0.15576,-0.0623 0.15625,-0.0625 4.9e-4,-2.04e-4 0.187033,-0.0935 0.1875,-0.09375 4.67e-4,-2.51e-4 0.155809,-0.09346 0.15625,-0.09375 4.41e-4,-2.95e-4 0.15584,-0.124663 0.15625,-0.125 4.1e-4,-3.37e-4 0.155875,-0.124625 0.15625,-0.125 3.75e-4,-3.75e-4 0.124663,-0.15584 0.125,-0.15625 3.37e-4,-4.1e-4 0.124705,-0.155809 0.125,-0.15625 2.95e-4,-4.41e-4 0.0935,-0.155783 0.09375,-0.15625 2.51e-4,-4.67e-4 0.09355,-0.18701 0.09375,-0.1875 2.04e-4,-4.9e-4 0.06234,-0.155743 0.0625,-0.15625 1.55e-4,-5.07e-4 0.03114,-0.18698 0.03125,-0.1875 1.05e-4,-5.2e-4 0.0312,-0.218222 0.03125,-0.21875 C 76.968804,76.186972 76.999998,76.00053 77,76 l 0,-19.8125 0,-14.375 C 77,29.771106 67.228894,20 55.1875,20 L 49,20 l -8,0 -20,0 -7.96875,0 c -1.01e-4,-5e-6 -0.01934,3e-6 -0.03125,0 -0.02381,-6e-6 -0.02688,-2e-6 -0.0625,0 -2.03e-4,-9e-6 -0.02688,2e-6 -0.0625,0 -0.05343,-3e-6 -0.09345,-1.4e-5 -0.09375,0 z" />
    <path
       sodipodi:type="inkscape:offset"
       inkscape:radius="1.0042198"
       inkscape:original="M 13 22 L 13 38 L 21 38 L 21 44.59375 L 21 56.1875 C 21 67.156701 29.843299 76 40.8125 76 L 55.1875 76 L 75 76 L 75 56.1875 L 75 41.8125 C 75 30.843299 66.156701 22 55.1875 22 L 49 22 L 41 22 L 21 22 L 13 22 z "
       style="opacity:0.15;color:#000000;fill:#000000;fill-opacity:1;fill-rule:nonzero;stroke:none;stroke-width:2;marker:none;visibility:visible;display:inline;overflow:visible;enable-background:accumulate"
       id="path4251"
       d="M 12.90625,21 A 1.0043202,1.0043202 0 0 0 12,22 l 0,16 a 1.0043202,1.0043202 0 0 0 1,1 l 7,0 0,5.59375 0,11.59375 C 20,67.696431 29.303569,77 40.8125,77 L 55.1875,77 75,77 a 1.0043202,1.0043202 0 0 0 1,-1 l 0,-19.8125 0,-14.375 C 76,30.303569 66.696431,21 55.1875,21 L 49,21 l -8,0 -20,0 -8,0 a 1.0043202,1.0043202 0 0 0 -0.09375,0 z" />
    <path
       sodipodi:nodetypes="ccccccccccccccc"
       id="path4247"
       d="m 13,22 0,16 8,0 0,6.59375 0,11.59375 C 21,67.156701 29.843299,76 40.8125,76 L 55.1875,76 75,76 75,56.1875 75,41.8125 C 75,30.843299 66.156701,22 55.1875,22 L 49,22 l -8,0 -20,0 -8,0 z"
       style="opacity:0.3;color:#000000;fill:#000000;fill-opacity:1;fill-rule:nonzero;stroke:none;stroke-width:2;marker:none;visibility:visible;display:inline;overflow:visible;enable-background:accumulate" />
    <path
       style="color:#000000;fill:#ffffff;fill-opacity:1;fill-rule:nonzero;stroke:none;stroke-width:2;marker:none;visibility:visible;display:inline;overflow:visible;enable-background:accumulate"
       d="m 13,21 0,16 8,0 0,6.59375 0,11.59375 C 21,66.156701 29.843299,75 40.8125,75 L 55.1875,75 75,75 75,55.1875 75,40.8125 C 75,29.843299 66.156701,21 55.1875,21 L 49,21 l -8,0 -20,0 -8,0 z"
       id="rect3374"
       sodipodi:nodetypes="ccccccccccccccc" />
    <path
       style="color:#000000;fill:url(#linearGradient4201);fill-opacity:1;fill-rule:nonzero;stroke:none;stroke-width:2;marker:none;visibility:visible;display:inline;overflow:visible;enable-background:accumulate"
       d="m 17,25 0,8 4,0 c 2.094806,-0.0015 4.001506,1.905194 4,4 l 0,6.59375 0,11.59375 C 25,64.00861 31.99139,71 40.8125,71 L 55.1875,71 71,71 71,55.1875 71,40.8125 C 71,31.99139 64.00861,25 55.1875,25 L 49,25 l -8,0 -20,0 -4,0 z"
       id="path3389"
       sodipodi:nodetypes="cccccccccccccccc" />
    <path
       sodipodi:type="inkscape:offset"
       inkscape:radius="0.50961787"
       inkscape:original="M 31 29.5 L 31 56.5 L 31 57.5 C 31 61.932 34.568 65.5 39 65.5 L 57 65.5 C 61.432 65.5 65 61.932 65 57.5 L 65 56.5 L 65 42.5 C 65 38.634007 61.865993 35.5 58 35.5 C 56.035859 35.5 54.271259 36.322095 53 37.625 C 51.728741 36.322095 49.964141 35.5 48 35.5 C 44.134007 35.5 41 38.634007 41 42.5 L 41 54.5 L 45 54.5 L 45 42.5 C 45 40.843146 46.343146 39.5 48 39.5 C 49.656854 39.5 51 40.843146 51 42.5 L 51 54.5 L 55 54.5 L 55 42.5 C 55 40.843146 56.343146 39.5 58 39.5 C 59.656854 39.5 61 40.843146 61 42.5 L 61 56.5 L 61 57.5 C 61 59.716 59.216 61.5 57 61.5 L 39 61.5 C 36.784 61.5 35 59.716 35 57.5 L 35 56.5 L 35 29.5 L 31 29.5 z "
       style="opacity:0.07999998;color:#000000;fill:#000000;fill-opacity:1;fill-rule:nonzero;stroke:none;stroke-width:2;marker:none;visibility:visible;display:inline;overflow:visible;enable-background:accumulate"
       id="path4221"
       d="M 30.84375,29 A 0.50966883,0.50966883 0 0 0 30.5,29.5 l 0,27 0,1 c 0,4.705513 3.794487,8.5 8.5,8.5 l 18,0 c 4.705513,0 8.5,-3.794487 8.5,-8.5 l 0,-1 0,-14 C 65.5,38.358589 62.141411,35 58,35 56.066776,35 54.328069,35.767892 53,36.96875 51.671931,35.767892 49.933224,35 48,35 c -4.141411,0 -7.5,3.358589 -7.5,7.5 l 0,12 A 0.50966883,0.50966883 0 0 0 41,55 l 4,0 a 0.50966883,0.50966883 0 0 0 0.5,-0.5 l 0,-12 c 0,-1.381436 1.118564,-2.5 2.5,-2.5 1.381436,0 2.5,1.118564 2.5,2.5 l 0,12 A 0.50966883,0.50966883 0 0 0 51,55 l 4,0 a 0.50966883,0.50966883 0 0 0 0.5,-0.5 l 0,-12 c 0,-1.381436 1.118564,-2.5 2.5,-2.5 1.381436,0 2.5,1.118564 2.5,2.5 l 0,14 0,1 c 0,1.942487 -1.557513,3.5 -3.5,3.5 l -18,0 c -1.942487,0 -3.5,-1.557513 -3.5,-3.5 l 0,-1 0,-27 A 0.50966883,0.50966883 0 0 0 35,29 l -4,0 a 0.50966883,0.50966883 0 0 0 -0.15625,0 z" />
    <path
       style="opacity:0.175;fill:url(#linearGradient4215);fill-opacity:1;stroke:none"
       d="M 17,31.21875 17,33 l 4,0 c 2.094806,-0.0015 4.001506,1.905194 4,4 l 0,6.59375 0,11.59375 C 25,64.00861 31.99139,71 40.8125,71 l 14.375,0 14.4375,0 C 54.866955,63.915298 55.362996,45.784968 41.78125,36.71875 34.131268,31.61216 21.095399,31.209387 17,31.21875 z"
       id="path4203" />
    <path
       id="path4217"
       d="m 31,29.5 0,27 0,1 c 0,4.432 3.568,8 8,8 l 18,0 c 4.432,0 8,-3.568 8,-8 l 0,-1 0,-14 c 0,-3.865993 -3.134007,-7 -7,-7 -1.964141,0 -3.728741,0.822095 -5,2.125 -1.271259,-1.302905 -3.035859,-2.125 -5,-2.125 -3.865993,0 -7,3.134007 -7,7 l 0,12 4,0 0,-12 c 0,-1.656854 1.343146,-3 3,-3 1.656854,0 3,1.343146 3,3 l 0,12 4,0 0,-12 c 0,-1.656854 1.343146,-3 3,-3 1.656854,0 3,1.343146 3,3 l 0,14 0,1 c 0,2.216 -1.784,4 -4,4 l -18,0 c -2.216,0 -4,-1.784 -4,-4 l 0,-1 0,-27 -4,0 z"
       style="opacity:0.2;color:#000000;fill:#000000;fill-opacity:1;fill-rule:nonzero;stroke:none;stroke-width:2;marker:none;visibility:visible;display:inline;overflow:visible;enable-background:accumulate" />
    <path
       style="color:#000000;fill:#ffffff;fill-opacity:1;fill-rule:nonzero;stroke:none;stroke-width:2;marker:none;visibility:visible;display:inline;overflow:visible;enable-background:accumulate"
       d="m 31,29 0,27 0,1 c 0,4.432 3.568,8 8,8 l 18,0 c 4.432,0 8,-3.568 8,-8 l 0,-1 0,-14 c 0,-3.865993 -3.134007,-7 -7,-7 -1.964141,0 -3.728741,0.822095 -5,2.125 C 51.728741,35.822095 49.964141,35 48,35 c -3.865993,0 -7,3.134007 -7,7 l 0,12 4,0 0,-12 c 0,-1.656854 1.343146,-3 3,-3 1.656854,0 3,1.343146 3,3 l 0,12 4,0 0,-12 c 0,-1.656854 1.343146,-3 3,-3 1.656854,0 3,1.343146 3,3 l 0,14 0,1 c 0,2.216 -1.784,4 -4,4 l -18,0 c -2.216,0 -4,-1.784 -4,-4 l 0,-1 0,-27 -4,0 z"
       id="rect3392" />
    <path
       style="opacity:0.2;color:#000000;fill:#000000;fill-opacity:1;fill-rule:nonzero;stroke:none;stroke-width:2;marker:none;visibility:visible;display:inline;overflow:visible;enable-background:accumulate"
       d="m 17,25 0,0.5 4,0 20,0 8,0 6.1875,0 C 64.00861,25.5 71,32.49139 71,41.3125 l 0,-0.5 C 71,31.99139 64.00861,25 55.1875,25 L 49,25 l -8,0 -20,0 -4,0 z"
       id="path4227" />
    <path
       style="opacity:0.07999998;color:#000000;fill:#000000;fill-opacity:1;fill-rule:nonzero;stroke:none;stroke-width:2;marker:none;visibility:visible;display:inline;overflow:visible;enable-background:accumulate"
       d="m 17,25 0,8 0.5,0 0,-7 3.5,0 20,0 8,0 6.1875,0 C 63.737725,26 70.5,32.762275 70.5,41.3125 l 0,14.375 0,15.3125 0.5,0 0,-15.8125 0,-14.375 C 71,31.99139 64.00861,25 55.1875,25 L 49,25 l -8,0 -20,0 -4,0 z m 4.78125,8.09375 C 23.54954,33.486338 25.001318,35.167045 25,37 l 0,6.59375 0,11.59375 c 0,7.222498 4.678052,13.188996 11.21875,15.125 C 29.958547,68.394208 25.5,62.634558 25.5,55.6875 l 0,-11.59375 0,-6.59375 c 0.0015,-2.137212 -1.66301,-4.011204 -3.71875,-4.40625 z m 14.4375,37.21875 c 0.477979,0.141479 0.972077,0.277989 1.46875,0.375 -0.501595,-0.100803 -0.987196,-0.227439 -1.46875,-0.375 z"
       id="path4236" />
    <path
       style="opacity:0.3;color:#000000;fill:#52a800;fill-opacity:1;fill-rule:nonzero;stroke:none;stroke-width:2;marker:none;visibility:visible;display:inline;overflow:visible;enable-background:accumulate"
       d="M 61,54.03125 61,56 l 0,1 c 0,2.216 -1.784,4 -4,4 l -11.96875,0 0,4 L 57,65 c 4.432,0 8,-3.568 8,-8 l 0,-1 0,-1.96875 -4,0 z"
       id="rect4261" />
  </g>
</svg>
