<?xml version="1.0" encoding="UTF-8" standalone="no"?>
<!-- Created with Inkscape (http://www.inkscape.org/) -->

<svg
   xmlns:dc="http://purl.org/dc/elements/1.1/"
   xmlns:cc="http://creativecommons.org/ns#"
   xmlns:rdf="http://www.w3.org/1999/02/22-rdf-syntax-ns#"
   xmlns:svg="http://www.w3.org/2000/svg"
   xmlns="http://www.w3.org/2000/svg"
   xmlns:xlink="http://www.w3.org/1999/xlink"
   xmlns:sodipodi="http://sodipodi.sourceforge.net/DTD/sodipodi-0.dtd"
   xmlns:inkscape="http://www.inkscape.org/namespaces/inkscape"
   width="96"
   height="96"
   id="svg2408"
   sodipodi:version="0.32"
   inkscape:version="0.48.1 r9760"
   version="1.0"
   sodipodi:docname="exaile.svg"
   inkscape:output_extension="org.inkscape.output.svg.inkscape">
  <defs
     id="defs2410">
    <linearGradient
       id="linearGradient4384">
      <stop
         style="stop-color:#ffffff;stop-opacity:1;"
         offset="0"
         id="stop4386" />
      <stop
         style="stop-color:#ffffff;stop-opacity:0;"
         offset="1"
         id="stop4388" />
    </linearGradient>
    <linearGradient
       id="linearGradient4367">
      <stop
         style="stop-color:#ffffff;stop-opacity:0.71755725;"
         offset="0"
         id="stop4369" />
      <stop
         style="stop-color:#ffffff;stop-opacity:1;"
         offset="1"
         id="stop4371" />
    </linearGradient>
    <linearGradient
       id="ButtonShadow"
       gradientTransform="scale(1.0058652,0.994169)"
       x1="45.447727"
       y1="92.539597"
       x2="45.447727"
       y2="7.0165396"
       gradientUnits="userSpaceOnUse">
      <stop
         style="stop-color:#000000;stop-opacity:1;"
         offset="0"
         id="stop3750" />
      <stop
         style="stop-color:#000000;stop-opacity:0.58823532;"
         offset="1"
         id="stop3752" />
    </linearGradient>
    <linearGradient
       inkscape:collect="always"
       id="linearGradient3737">
      <stop
         style="stop-color:#ffffff;stop-opacity:1;"
         offset="0"
         id="stop3739" />
      <stop
         style="stop-color:#ffffff;stop-opacity:0;"
         offset="1"
         id="stop3741" />
    </linearGradient>
    <linearGradient
       id="linearGradient3700">
      <stop
         style="stop-color:#2276c5;stop-opacity:1;"
         offset="0"
         id="stop3702" />
      <stop
         style="stop-color:#68baf4;stop-opacity:1;"
         offset="1"
         id="stop3704" />
    </linearGradient>
    <filter
       inkscape:collect="always"
       id="filter3174">
      <feGaussianBlur
         inkscape:collect="always"
         stdDeviation="1.71"
         id="feGaussianBlur3176" />
    </filter>
    <filter
       inkscape:collect="always"
       id="filter3794"
       x="-0.192"
       width="1.384"
       y="-0.192"
       height="1.384">
      <feGaussianBlur
         inkscape:collect="always"
         stdDeviation="5.28"
         id="feGaussianBlur3796" />
    </filter>
    <linearGradient
       inkscape:collect="always"
       xlink:href="#linearGradient3737"
       id="linearGradient3613"
       x1="48"
       y1="20.220806"
       x2="48"
       y2="138.66119"
       gradientUnits="userSpaceOnUse" />
    <linearGradient
       id="ButtonShadow-0"
       gradientTransform="matrix(1.0058652,0,0,0.994169,100,0)"
       x1="45.447727"
       y1="92.539597"
       x2="45.447727"
       y2="7.0165396"
       gradientUnits="userSpaceOnUse">
      <stop
         style="stop-color:#000000;stop-opacity:1;"
         offset="0"
         id="stop3750-8" />
      <stop
         style="stop-color:#000000;stop-opacity:0.58823532;"
         offset="1"
         id="stop3752-5" />
    </linearGradient>
    <linearGradient
       inkscape:collect="always"
       xlink:href="#ButtonShadow-0"
       id="linearGradient3780"
       gradientUnits="userSpaceOnUse"
       gradientTransform="matrix(1.0238095,0,0,1.0119048,-1.1428571,-98.071429)"
       x1="32.251034"
       y1="6.1317081"
       x2="32.251034"
       y2="90.238609" />
    <linearGradient
       inkscape:collect="always"
       xlink:href="#ButtonShadow-0"
       id="linearGradient3772"
       gradientUnits="userSpaceOnUse"
       gradientTransform="matrix(1.0238095,0,0,1.0119048,-1.1428571,-98.071429)"
       x1="32.251034"
       y1="6.1317081"
       x2="32.251034"
       y2="90.238609" />
    <linearGradient
       inkscape:collect="always"
       xlink:href="#ButtonShadow-0"
       id="linearGradient3725"
       gradientUnits="userSpaceOnUse"
       gradientTransform="matrix(1.0238095,0,0,1.0119048,-1.1428571,-98.071429)"
       x1="32.251034"
       y1="6.1317081"
       x2="32.251034"
       y2="90.238609" />
    <linearGradient
       inkscape:collect="always"
       xlink:href="#ButtonShadow-0"
       id="linearGradient3721"
       gradientUnits="userSpaceOnUse"
       gradientTransform="translate(0,-97)"
       x1="32.251034"
       y1="6.1317081"
       x2="32.251034"
       y2="90.238609" />
    <linearGradient
       y2="90.238609"
       x2="32.251034"
       y1="6.1317081"
       x1="32.251034"
       gradientTransform="matrix(1.0238095,0,0,1.0119048,-1.1428571,-98.071429)"
       gradientUnits="userSpaceOnUse"
       id="linearGradient3026"
       xlink:href="#ButtonShadow-0"
       inkscape:collect="always" />
    <linearGradient
       gradientTransform="translate(-2,-956.3622)"
       y2="1033.3622"
       x2="50"
       y1="1033.3622"
       x1="8"
       spreadMethod="reflect"
       gradientUnits="userSpaceOnUse"
       id="linearGradient3542"
       xlink:href="#linearGradient4482"
       inkscape:collect="always" />
    <clipPath
       clipPathUnits="userSpaceOnUse"
       id="clipPath4355">
      <rect
         style="fill:#ffffff;fill-opacity:1;fill-rule:nonzero;stroke:none"
         id="rect4357"
         width="84"
         height="80"
         x="6"
         y="6"
         rx="6"
         ry="6" />
    </clipPath>
    <radialGradient
       inkscape:collect="always"
       xlink:href="#linearGradient4367"
       id="radialGradient4375"
       cx="48"
       cy="87.792389"
       fx="48"
       fy="87.792389"
       r="42"
       gradientTransform="matrix(1,-6.7114942e-8,8.4282233e-8,1.2557894,109.99999,-24.505592)"
       gradientUnits="userSpaceOnUse" />
    <linearGradient
       inkscape:collect="always"
       xlink:href="#linearGradient4384"
       id="linearGradient4390"
       x1="48"
       y1="88"
       x2="48"
       y2="-40"
       gradientUnits="userSpaceOnUse"
       gradientTransform="matrix(1,0,0,-1,0,92)" />
    <linearGradient
       inkscape:collect="always"
       xlink:href="#linearGradient4384"
       id="linearGradient4429"
       x1="48"
       y1="82"
       x2="112.12357"
       y2="82.454597"
       gradientUnits="userSpaceOnUse"
       spreadMethod="reflect" />
    <linearGradient
       id="linearGradient4482">
      <stop
         id="stop4484"
         offset="0"
         style="stop-color:#c78c5d;stop-opacity:1;" />
      <stop
         style="stop-color:#a3744e;stop-opacity:1;"
         offset="0.11780351"
         id="stop4486" />
      <stop
         id="stop4488"
         offset="0.23809524"
         style="stop-color:#946c4b;stop-opacity:1;" />
      <stop
         id="stop4490"
         offset="1"
         style="stop-color:#866448;stop-opacity:1;" />
    </linearGradient>
    <linearGradient
       id="linearGradient3843">
      <stop
         style="stop-color:#523823;stop-opacity:1;"
         offset="0"
         id="stop3845" />
      <stop
         id="stop3847"
         offset="0.11780351"
         style="stop-color:#79563a;stop-opacity:1;" />
      <stop
         style="stop-color:#875c38;stop-opacity:1;"
         offset="0.23809524"
         id="stop3849" />
      <stop
         style="stop-color:#a66e40;stop-opacity:1;"
         offset="1"
         id="stop3851" />
    </linearGradient>
    <linearGradient
       y2="1033.3622"
       x2="50"
       y1="1033.3622"
       x1="8"
       spreadMethod="reflect"
       gradientTransform="translate(-2,-956.3622)"
       gradientUnits="userSpaceOnUse"
       id="linearGradient3870"
       xlink:href="#linearGradient3843"
       inkscape:collect="always" />
    <linearGradient
       inkscape:collect="always"
       xlink:href="#linearGradient4787"
       id="linearGradient3986"
       gradientUnits="userSpaceOnUse"
       x1="376.3555"
       y1="120.19418"
       x2="376.3555"
       y2="323.39832"
       gradientTransform="matrix(0.43977693,0,0,0.43979058,-111.91515,-36.400118)" />
    <linearGradient
       inkscape:collect="always"
       id="linearGradient4787">
      <stop
         style="stop-color: white; stop-opacity: 1;"
         offset="0"
         id="stop4789" />
      <stop
         style="stop-color: white; stop-opacity: 0;"
         offset="1"
         id="stop4791" />
    </linearGradient>
    <linearGradient
       inkscape:collect="always"
       xlink:href="#linearGradient4041"
       id="linearGradient3994"
       gradientUnits="userSpaceOnUse"
       x1="378.33893"
       y1="144.82513"
       x2="378.33893"
       y2="179.10709" />
    <linearGradient
       id="linearGradient4041"
       inkscape:collect="always">
      <stop
         id="stop4043"
         offset="0"
         style="stop-color: white; stop-opacity: 1;" />
      <stop
         id="stop4045"
         offset="1"
         style="stop-color:#e7efc8;stop-opacity:1" />
    </linearGradient>
    <linearGradient
       inkscape:collect="always"
       xlink:href="#linearGradient4787-1"
       id="linearGradient4006"
       gradientUnits="userSpaceOnUse"
       gradientTransform="matrix(0.43977693,0,0,0.43979058,-111.91515,-34.400122)"
       x1="373.12482"
       y1="91.875"
       x2="363.62491"
       y2="258.54688" />
    <linearGradient
       inkscape:collect="always"
       id="linearGradient4787-1">
      <stop
         style="stop-color: white; stop-opacity: 1;"
         offset="0"
         id="stop4789-2" />
      <stop
         style="stop-color: white; stop-opacity: 0;"
         offset="1"
         id="stop4791-9" />
    </linearGradient>
    <radialGradient
       inkscape:collect="always"
       xlink:href="#linearGradient4873"
       id="radialGradient4035"
       gradientUnits="userSpaceOnUse"
       gradientTransform="matrix(0.56634913,-1.2709596e-6,9.9117804e-7,0.43979014,-161.83162,-22.535748)"
       cx="370.5"
       cy="205.86218"
       fx="370.49969"
       fy="276.16208"
       r="95.5" />
    <linearGradient
       id="linearGradient4873">
      <stop
         id="stop4875"
         offset="0"
         style="stop-color: rgb(255, 233, 87); stop-opacity: 1;" />
      <stop
         id="stop4877"
         offset="1"
         style="stop-color: rgb(249, 255, 129); stop-opacity: 0;" />
    </linearGradient>
    <radialGradient
       inkscape:collect="always"
       xlink:href="#linearGradient4803"
       id="radialGradient4033"
       gradientUnits="userSpaceOnUse"
       gradientTransform="matrix(0.56634913,-1.2709596e-6,9.9117803e-7,0.43979014,-158.81076,-34.405276)"
       cx="370.5"
       cy="205.86218"
       fx="370.49969"
       fy="276.16208"
       r="95.5" />
    <linearGradient
       id="linearGradient4803">
      <stop
         style="stop-color: rgb(201, 223, 24); stop-opacity: 1;"
         offset="0"
         id="stop4805" />
      <stop
         style="stop-color: rgb(232, 133, 36); stop-opacity: 0;"
         offset="1"
         id="stop4807" />
    </linearGradient>
    <radialGradient
       inkscape:collect="always"
       xlink:href="#linearGradient4980"
       id="radialGradient4008"
       cx="6"
       cy="6"
       fx="6"
       fy="6"
       r="42"
       gradientUnits="userSpaceOnUse" />
    <linearGradient
       id="linearGradient4980">
      <stop
         style="stop-color: rgb(116, 195, 50); stop-opacity: 1;"
         offset="0"
         id="stop4982" />
      <stop
         style="stop-color: rgb(158, 205, 94); stop-opacity: 1;"
         offset="1"
         id="stop4984" />
    </linearGradient>
    <radialGradient
       r="42"
       fy="6"
       fx="6"
       cy="6"
       cx="6"
       gradientUnits="userSpaceOnUse"
       id="radialGradient3244"
       xlink:href="#linearGradient4980"
       inkscape:collect="always" />
  </defs>
  <sodipodi:namedview
     id="base"
     pagecolor="#818181"
     bordercolor="#ffb1b1"
     borderopacity="1"
     inkscape:pageopacity="1"
     inkscape:pageshadow="2"
     inkscape:zoom="4.6803524"
     inkscape:cx="-41.41519"
     inkscape:cy="44.530826"
     inkscape:document-units="px"
     inkscape:current-layer="layer1"
     showgrid="true"
     showborder="true"
     inkscape:showpageshadow="false"
     inkscape:window-width="1920"
     inkscape:window-height="1030"
     inkscape:window-x="0"
     inkscape:window-y="25"
     inkscape:window-maximized="1"
     borderlayer="true">
    <inkscape:grid
       type="xygrid"
       id="grid3732"
       visible="true"
       enabled="true"
       empspacing="8"
       snapvisiblegridlinesonly="true" />
  </sodipodi:namedview>
  <metadata
     id="metadata2413">
    <rdf:RDF>
      <cc:Work
         rdf:about="">
        <dc:format>image/svg+xml</dc:format>
        <dc:type
           rdf:resource="http://purl.org/dc/dcmitype/StillImage" />
        <dc:title />
      </cc:Work>
    </rdf:RDF>
  </metadata>
  <g
     inkscape:groupmode="layer"
     id="layer2"
     inkscape:label="Blur Shadow"
     style="display:none"
     sodipodi:insensitive="true">
    <rect
       style="opacity:0.9;fill:url(#ButtonShadow);fill-opacity:1;fill-rule:nonzero;stroke:none;filter:url(#filter3174)"
       id="rect3745"
       width="86"
       height="85"
       x="5"
       y="7"
       rx="6"
       ry="6" />
  </g>
  <g
     inkscape:groupmode="layer"
     id="layer3"
     inkscape:label="Shadow"
     sodipodi:insensitive="true"
     style="display:inline">
    <path
       sodipodi:type="inkscape:offset"
       inkscape:radius="0.99097413"
       inkscape:original="M 12 -94.03125 C 7.028367 -94.03125 2.96875 -89.971633 2.96875 -85 L 2.96875 -14 C 2.96875 -9.0283671 7.0283671 -4.96875 12 -4.96875 L 84 -4.96875 C 88.971633 -4.96875 93.03125 -9.028367 93.03125 -14 L 93.03125 -85 C 93.03125 -89.971633 88.971633 -94.03125 84 -94.03125 L 12 -94.03125 z "
       style="opacity:0.07999998;fill:url(#linearGradient3026);fill-opacity:1;fill-rule:nonzero;stroke:none;display:inline"
       id="path3786"
       d="m 12,-95.03125 c -5.5110903,0 -10.03125,4.52016 -10.03125,10.03125 l 0,71 c 0,5.5110902 4.5201598,10.03125 10.03125,10.03125 l 72,0 c 5.51109,0 10.03125,-4.5201597 10.03125,-10.03125 l 0,-71 c 0,-5.51109 -4.52016,-10.03125 -10.03125,-10.03125 l -72,0 z"
       transform="scale(1,-1)" />
    <path
       sodipodi:type="inkscape:offset"
       inkscape:radius="1.0360184"
       inkscape:original="M 12 -93 C 7.5908667 -93 4 -89.409133 4 -85 L 4 -14 C 4 -9.5908667 7.5908667 -6 12 -6 L 84 -6 C 88.409133 -6 92 -9.5908667 92 -14 L 92 -85 C 92 -89.409133 88.409133 -93 84 -93 L 12 -93 z "
       style="opacity:0.1;fill:url(#linearGradient3780);fill-opacity:1;fill-rule:nonzero;stroke:none;display:inline"
       id="path3778"
       d="m 12,-94.03125 c -4.971633,0 -9.03125,4.059617 -9.03125,9.03125 l 0,71 c 0,4.9716329 4.0596171,9.03125 9.03125,9.03125 l 72,0 c 4.971633,0 9.03125,-4.059617 9.03125,-9.03125 l 0,-71 c 0,-4.971633 -4.059617,-9.03125 -9.03125,-9.03125 l -72,0 z"
       transform="scale(1,-1)" />
    <path
       sodipodi:type="inkscape:offset"
       inkscape:radius="0.98962283"
       inkscape:original="M 12 -92 C 8.122 -92 5 -88.878 5 -85 L 5 -14 C 5 -10.122 8.122 -7 12 -7 L 84 -7 C 87.878 -7 91 -10.122 91 -14 L 91 -85 C 91 -88.878 87.878 -92 84 -92 L 12 -92 z "
       style="opacity:0.2;fill:url(#linearGradient3772);fill-opacity:1;fill-rule:nonzero;stroke:none;display:inline"
       id="path3770"
       d="m 12,-93 c -4.4091333,0 -8,3.590867 -8,8 l 0,71 c 0,4.4091333 3.5908667,8 8,8 l 72,0 c 4.409133,0 8,-3.5908667 8,-8 l 0,-71 c 0,-4.409133 -3.590867,-8 -8,-8 l -72,0 z"
       transform="scale(1,-1)" />
    <rect
       style="opacity:0.3;fill:url(#linearGradient3725);fill-opacity:1;fill-rule:nonzero;stroke:none;display:inline"
       id="rect3723"
       width="86"
       height="85"
       x="5"
       y="-92"
       rx="7"
       ry="7"
       transform="scale(1,-1)" />
    <rect
       transform="scale(1,-1)"
       ry="6"
       rx="6"
       y="-91"
       x="6"
       height="84"
       width="84"
       id="rect3716"
       style="opacity:0.45;fill:url(#linearGradient3721);fill-opacity:1;fill-rule:nonzero;stroke:none;display:inline" />
  </g>
  <g
     inkscape:groupmode="layer"
     id="layer4"
     inkscape:label="Bottom Edge"
     sodipodi:insensitive="true">
    <rect
       ry="6"
       rx="6"
       y="64"
       x="6"
       height="26.000017"
       width="84"
       id="rect2841"
       style="color:#000000;fill:url(#linearGradient3870);fill-opacity:1;fill-rule:nonzero;stroke:none;stroke-width:1.5;marker:none;visibility:visible;display:inline;overflow:visible;enable-background:accumulate" />
    <path
       style="opacity:0.1;color:#000000;fill:#000000;fill-opacity:1;fill-rule:nonzero;stroke:none;stroke-width:1.5;marker:none;visibility:visible;display:inline;overflow:visible;enable-background:accumulate"
       d="m 6,82 0,2 c 0,3.324 2.676,6 6,6 l 72,0 c 3.324,0 6,-2.676 6,-6 l 0,-2 c 0,3.324 -2.676,6 -6,6 L 12,88 C 8.676,88 6,85.324 6,82 z"
       id="rect4345"
       inkscape:connector-curvature="0" />
    <path
       style="opacity:0.1;color:#000000;fill:#000000;fill-opacity:1;fill-rule:nonzero;stroke:none;stroke-width:1.5;marker:none;visibility:visible;display:inline;overflow:visible;enable-background:accumulate"
       d="m 6,83 0,1 c 0,3.324 2.676,6 6,6 l 72,0 c 3.324,0 6,-2.676 6,-6 l 0,-1 c 0,3.324 -2.676,6 -6,6 L 12,89 C 8.676,89 6,86.324 6,83 z"
       id="rect4336"
       inkscape:connector-curvature="0" />
    <path
       id="path4412"
       d="m 6,80 0,1 c 0,3.324 2.676,6 6,6 l 72,0 c 3.324,0 6,-2.676 6,-6 l 0,-1 c 0,3.324 -2.676,6 -6,6 L 12,86 C 8.676,86 6,83.324 6,80 z"
       style="opacity:0.2;fill:#000000;fill-opacity:1;fill-rule:nonzero;stroke:none"
       inkscape:connector-curvature="0" />
  </g>
  <g
     inkscape:label="Button"
     inkscape:groupmode="layer"
     id="layer1">
    <rect
       style="fill:url(#radialGradient3244);fill-opacity:1;fill-rule:nonzero;stroke:none"
       id="rect2419-3"
       width="84"
       height="80"
       x="6"
       y="6"
       rx="6"
       ry="6" />
    <path
       inkscape:connector-curvature="0"
       style="opacity:0.4;fill:url(#radialGradient4033);fill-opacity:1;fill-rule:evenodd;stroke:none"
       d="M 33.15625,42.8125 C 22.641193,42.77626 13.653512,44.078377 6,46.15625 c 0.002,0.565411 0.03831,1.127539 0.0625,1.6875 L 6,47.84375 6,80 c 0,3.324 2.6772817,5.907702 6,6 l 36,0 36,0 c 3.324,0 6,-2.676 6,-6 l 0,-26.5625 -0.6875,0 c 0.02825,-0.157634 0.06727,-0.310514 0.09375,-0.46875 -2.54668,-0.614861 -5.13425,-1.313383 -7.8125,-2.125 C 62.717926,45.123627 46.675608,42.859093 33.15625,42.8125 z m 56.6875,7.125 c -0.01789,-0.0039 -0.176955,0.967259 -0.40625,2.90625 0.30085,-1.9234 0.424139,-2.902352 0.40625,-2.90625 z"
       id="path3124"
       sodipodi:nodetypes="scccsscsscccssccc" />
    <path
       style="opacity:0.3;fill:url(#radialGradient4035);fill-opacity:1;fill-rule:evenodd;stroke:none"
       d="M 48,26 C 24.80476,26 6,44.80404 6,68 c 0,0.104966 -7.7e-4,0.207715 0,0.3125 L 6,80 c 0,3.324 5.193812,2.775246 6,6 l 0.25,0 71.5,0 0.25,0 c 3.324,0 6,-2.676 6,-6 L 90,68.3125 C 90.00077,68.207715 90,68.104966 90,68 90,44.80404 71.19524,26 48,26 z"
       id="path3126"
       inkscape:connector-curvature="0"
       sodipodi:nodetypes="sscssccsscss" />
    <path
       inkscape:connector-curvature="0"
       style="opacity:0.3;fill:url(#linearGradient4006);fill-opacity:1;fill-rule:evenodd;stroke:none"
       d="M 12,6 C 8.676,6 6,8.676 6,12 L 6,45.5625 C 5.9985,45.709022 6,45.853123 6,46 c 0,0.05108 -1.8e-4,0.105219 0,0.15625 17.493742,-4.749431 42.03673,-5.481611 75.59375,4.6875 2.67825,0.811616 5.26582,1.510138 7.8125,2.125 0.10535,-0.629464 0.20428,-1.268468 0.28125,-1.90625 L 90,51.28125 90,46 90,12 C 90,8.676 87.324,6 84,6 L 48,6 z"
       id="path3132"
       sodipodi:nodetypes="sscscsccccsscs" />
    <path
       style="opacity:0.2;fill:url(#radialGradient4375);fill-opacity:1;fill-rule:nonzero;stroke:none"
       d="M 120.78125,6.125 C 118.04223,6.6826484 116,9.0915 116,12 l 0,68 c 0,3.324 2.676,6 6,6 l 72,0 c 3.324,0 6,-2.676 6,-6 l 0,-68 c 0,-2.9085 -2.04223,-5.3173516 -4.78125,-5.875 2.20512,0.5362071 3.8125,2.4908437 3.8125,4.875 l 0,68 c 0,2.80489 -2.22636,5.03125 -5.03125,5.03125 l -72,0 c -2.80489,0 -5.03125,-2.22636 -5.03125,-5.03125 l 0,-68 c 0,-2.3841563 1.60738,-4.3387929 3.8125,-4.875 z"
       id="rect4359"
       inkscape:connector-curvature="0" />
    <path
       style="opacity:0.4;fill:url(#linearGradient4390);fill-opacity:1;fill-rule:nonzero;stroke:none"
       d="M 12,86 C 8.676,86 6,83.324 6,80 L 6,12 C 6,8.676 8.676,6 12,6 l 72,0 c 3.324,0 6,2.676 6,6 l 0,68 c 0,3.324 -2.676,6 -6,6 z m 0,-0.96875 72,0 c 2.80489,0 5.03125,-2.22636 5.03125,-5.03125 l 0,-68 C 89.03125,9.19511 86.80489,6.96875 84,6.96875 l -72,0 C 9.1951102,6.96875 6.96875,9.19511 6.96875,12 l 0,68 c 0,2.80489 2.2263602,5.03125 5.03125,5.03125 z"
       id="rect4377"
       inkscape:connector-curvature="0"
       sodipodi:nodetypes="ssssssssssssssssss" />
    <path
       style="opacity:0.15;fill:url(#linearGradient4429);fill-opacity:1;fill-rule:nonzero;stroke:none"
       d="m 6,78 0,2 c 0,3.324 2.676,6 6,6 l 72,0 c 3.324,0 6,-2.676 6,-6 l 0,-2 c 0,3.324 -2.676,6 -6,6 L 12,84 C 8.676,84 6,81.324 6,78 z"
       id="rect4414"
       inkscape:connector-curvature="0" />
  </g>
  <g
     inkscape:groupmode="layer"
     id="layer5"
     inkscape:label="Highlight"
     sodipodi:insensitive="true"
     style="display:none">
    <rect
       style="opacity:0.1;fill:url(#linearGradient3613);fill-opacity:1;fill-rule:nonzero;stroke:#ffffff;stroke-width:0.5;stroke-linecap:round;stroke-linejoin:miter;stroke-miterlimit:4;stroke-opacity:1;stroke-dasharray:none;stroke-dashoffset:0;filter:url(#filter3794)"
       id="rect3171"
       width="66"
       height="62"
       x="15"
       y="15"
       rx="12"
       ry="12"
       clip-path="url(#clipPath4355)" />
  </g>
  <g
     inkscape:groupmode="layer"
     id="layer6"
     inkscape:label="Symbol"
     sodipodi:insensitive="true">
    <path
       sodipodi:type="inkscape:offset"
       inkscape:radius="2.5792072"
       inkscape:original="M 340.4375 113.28125 C 338.94613 113.19949 337.03302 113.26502 335.21875 114.3125 C 333.52362 115.29119 332.36368 116.80121 331.625 118.3125 C 330.88632 119.82379 330.46894 121.3479 330.03125 122.9375 C 329.09569 126.33525 328.37906 130.52001 327.8125 135.34375 C 326.67935 144.99146 326.15625 157.18869 326.15625 169.375 C 326.15625 181.56131 326.67943 193.72803 327.8125 203.375 C 328.37906 208.19874 329.09569 212.3835 330.03125 215.78125 C 330.46894 217.37085 330.88632 218.89496 331.625 220.40625 C 332.36368 221.91754 333.52362 223.42756 335.21875 224.40625 C 336.90967 225.3825 338.82141 225.67367 340.5 225.5625 C 342.17859 225.45133 343.71299 225.01026 345.3125 224.59375 C 348.72976 223.7039 352.69843 222.23138 357.15625 220.3125 C 366.07492 216.47344 376.91024 210.87413 387.46875 204.78125 C 398.02803 198.68793 408.27736 192.11253 416.0625 186.3125 C 419.95314 183.41392 423.23807 180.73289 425.71875 178.21875 C 426.87927 177.04258 427.9991 175.89917 428.9375 174.5 C 429.8759 173.10083 430.5625 171.33198 430.5625 169.375 C 430.5625 165.69186 428.27786 163.19137 426.1875 161 C 423.95638 158.66106 421.00695 156.17892 417.5 153.5 C 410.48517 148.14145 401.17363 142.0875 391.375 136.28125 C 381.57272 130.47284 371.29626 124.93021 362.34375 120.75 C 353.42232 116.5843 346.21539 113.59798 340.4375 113.28125 z "
       style="opacity:0.07999998;fill:#2d5016;fill-opacity:1;fill-rule:evenodd;stroke:none"
       id="path4061"
       d="m 340.59375,110.71875 c -1.68696,-0.0925 -4.20239,-0.0417 -6.65625,1.375 -2.24877,1.29834 -3.71619,3.23438 -4.625,5.09375 -0.87078,1.78156 -1.34417,3.47511 -1.78125,5.0625 -0.98996,3.59532 -1.70546,7.8789 -2.28125,12.78125 -1.1518,9.80651 -1.6875,22.08363 -1.6875,34.34375 0,12.26013 0.53585,24.50736 1.6875,34.3125 0.57579,4.90235 1.29129,9.18593 2.28125,12.78125 0.43708,1.58739 0.91047,3.28094 1.78125,5.0625 0.90881,1.85937 2.37623,3.79541 4.625,5.09375 2.22761,1.28611 4.615,1.63933 6.71875,1.5 2.02403,-0.13405 3.75344,-0.62527 5.3125,-1.03125 3.61749,-0.94199 7.69045,-2.45703 12.21875,-4.40625 9.0584,-3.8992 19.93486,-9.55473 30.5625,-15.6875 10.62921,-6.13368 20.93782,-12.73498 28.84375,-18.625 3.9439,-2.93826 7.3324,-5.67184 9.96875,-8.34375 1.16487,-1.18058 2.4262,-2.4461 3.53125,-4.09375 1.17435,-1.75097 2.0625,-4.00225 2.0625,-6.5625 0,-4.74972 -2.97487,-7.93498 -5.09375,-10.15625 -2.38567,-2.50096 -5.43668,-5.05927 -9,-7.78125 -7.1451,-5.45806 -16.51644,-11.53324 -26.375,-17.375 -9.86335,-5.8446 -20.19116,-11.42639 -29.25,-15.65625 -8.97574,-4.19106 -16.29818,-7.32869 -22.84375,-7.6875 z"
       transform="matrix(0.43977693,0,0,-0.43979058,-115.74475,121.48373)" />
    <path
       sodipodi:type="inkscape:offset"
       inkscape:radius="2.9205739"
       inkscape:original="M 340.28125 116.1875 C 339.00837 116.11772 337.81026 116.19552 336.6875 116.84375 C 334.39959 118.16468 333.71511 120.55418 332.84375 123.71875 C 331.97239 126.88332 331.27492 130.95221 330.71875 135.6875 C 329.6064 145.15809 329.0625 157.27622 329.0625 169.375 C 329.0625 181.47378 329.6064 193.56066 330.71875 203.03125 C 331.27492 207.76654 331.97239 211.83543 332.84375 215 C 333.71511 218.16457 334.39959 220.55407 336.6875 221.875 C 338.97532 223.19587 341.38585 222.60845 344.5625 221.78125 C 347.73915 220.95405 351.62033 219.51024 356 217.625 C 364.75933 213.85453 375.52027 208.29742 386 202.25 C 396.47973 196.20258 406.66547 189.66589 414.3125 183.96875 C 418.13601 181.12018 421.31962 178.49272 423.625 176.15625 C 425.93038 173.81978 427.65625 172.01711 427.65625 169.375 C 427.65625 166.89754 426.12212 165.1904 424.0625 163.03125 C 422.00288 160.8721 419.15192 158.43506 415.71875 155.8125 C 408.85241 150.56738 399.60471 144.54666 389.875 138.78125 C 380.14529 133.01584 369.92924 127.53182 361.09375 123.40625 C 352.25826 119.28068 345.07363 116.45021 340.28125 116.1875 z "
       style="opacity:0.1;fill:#2d5016;fill-opacity:1;fill-rule:evenodd;stroke:none"
       id="path4057"
       d="m 340.4375,113.28125 c -1.49137,-0.0818 -3.40448,-0.0162 -5.21875,1.03125 -1.69513,0.97869 -2.85507,2.48871 -3.59375,4 -0.73868,1.51129 -1.15606,3.0354 -1.59375,4.625 -0.93556,3.39775 -1.65219,7.58251 -2.21875,12.40625 -1.13315,9.64771 -1.65625,21.84494 -1.65625,34.03125 0,12.18631 0.52318,24.35303 1.65625,34 0.56656,4.82374 1.28319,9.0085 2.21875,12.40625 0.43769,1.5896 0.85507,3.11371 1.59375,4.625 0.73868,1.51129 1.89862,3.02131 3.59375,4 1.69092,0.97625 3.60266,1.26742 5.28125,1.15625 1.67859,-0.11117 3.21299,-0.55224 4.8125,-0.96875 3.41726,-0.88985 7.38593,-2.36237 11.84375,-4.28125 8.91867,-3.83906 19.75399,-9.43837 30.3125,-15.53125 10.55928,-6.09332 20.80861,-12.66872 28.59375,-18.46875 3.89064,-2.89858 7.17557,-5.57961 9.65625,-8.09375 1.16052,-1.17617 2.28035,-2.31958 3.21875,-3.71875 0.9384,-1.39917 1.625,-3.16802 1.625,-5.125 0,-3.68314 -2.28464,-6.18363 -4.375,-8.375 -2.23112,-2.33894 -5.18055,-4.82108 -8.6875,-7.5 -7.01483,-5.35855 -16.32637,-11.4125 -26.125,-17.21875 -9.80228,-5.80841 -20.07874,-11.35104 -29.03125,-15.53125 -8.92143,-4.1657 -16.12836,-7.15202 -21.90625,-7.46875 z"
       transform="matrix(0.43977693,0,0,-0.43979058,-115.74475,121.48373)" />
    <path
       sodipodi:type="inkscape:offset"
       inkscape:radius="2.1171207"
       inkscape:original="M 340.15625 118.3125 C 339.09537 118.25434 338.29866 118.37073 337.75 118.6875 C 328.97148 123.75578 328.97148 214.96297 337.75 220.03125 C 346.52852 225.09953 425.53125 179.51157 425.53125 169.375 C 425.53125 159.87197 356.06947 119.18485 340.15625 118.3125 z "
       style="opacity:0.15;fill:#2d5016;fill-opacity:1;fill-rule:evenodd;stroke:none"
       id="path4053"
       d="m 340.28125,116.1875 c -1.27288,-0.0698 -2.47099,0.008 -3.59375,0.65625 -2.28791,1.32093 -2.97239,3.71043 -3.84375,6.875 -0.87136,3.16457 -1.56883,7.23346 -2.125,11.96875 -1.11235,9.47059 -1.65625,21.58872 -1.65625,33.6875 0,12.09878 0.5439,24.18566 1.65625,33.65625 0.55617,4.73529 1.25364,8.80418 2.125,11.96875 0.87136,3.16457 1.55584,5.55407 3.84375,6.875 2.28782,1.32087 4.69835,0.73345 7.875,-0.0937 3.17665,-0.8272 7.05783,-2.27101 11.4375,-4.15625 8.75933,-3.77047 19.52027,-9.32758 30,-15.375 10.47973,-6.04742 20.66547,-12.58411 28.3125,-18.28125 3.82351,-2.84857 7.00712,-5.47603 9.3125,-7.8125 2.30538,-2.33647 4.03125,-4.13914 4.03125,-6.78125 0,-2.47746 -1.53413,-4.1846 -3.59375,-6.34375 -2.05962,-2.15915 -4.91058,-4.59619 -8.34375,-7.21875 -6.86634,-5.24512 -16.11404,-11.26584 -25.84375,-17.03125 -9.72971,-5.76541 -19.94576,-11.24943 -28.78125,-15.375 -8.83549,-4.12557 -16.02012,-6.95604 -20.8125,-7.21875 z"
       transform="matrix(0.43977693,0,0,-0.43979058,-115.74475,121.48373)" />
    <path
       sodipodi:type="star"
       style="opacity:0.3;fill:#2d5016;fill-opacity:1;fill-rule:evenodd;stroke:none"
       id="path4047"
       sodipodi:sides="3"
       sodipodi:cx="367"
       sodipodi:cy="169.36218"
       sodipodi:r1="58.523499"
       sodipodi:r2="29.261749"
       sodipodi:arg1="2.0943951"
       sodipodi:arg2="3.1415927"
       inkscape:flatsided="true"
       inkscape:rounded="0.1"
       inkscape:randomized="0"
       d="m 337.73825,220.04502 c -8.77852,-5.06828 -8.77852,-96.29739 0,-101.36567 8.77853,-5.06829 87.78525,40.54627 87.78525,50.68283 0,10.13657 -79.00672,55.75112 -87.78525,50.68284 z"
       transform="matrix(0.43977693,0,0,-0.43979058,-115.74475,121.48373)" />
    <path
       transform="matrix(0.43977693,0,0,-0.43979058,-115.74475,120.48373)"
       d="m 337.73825,220.04502 c -8.77852,-5.06828 -8.77852,-96.29739 0,-101.36567 8.77853,-5.06829 87.78525,40.54627 87.78525,50.68283 0,10.13657 -79.00672,55.75112 -87.78525,50.68284 z"
       inkscape:randomized="0"
       inkscape:rounded="0.1"
       inkscape:flatsided="true"
       sodipodi:arg2="3.1415927"
       sodipodi:arg1="2.0943951"
       sodipodi:r2="29.261749"
       sodipodi:r1="58.523499"
       sodipodi:cy="169.36218"
       sodipodi:cx="367"
       sodipodi:sides="3"
       id="path3128"
       style="fill:url(#linearGradient3994);fill-opacity:1;fill-rule:evenodd;stroke:none"
       sodipodi:type="star" />
    <path
       inkscape:connector-curvature="0"
       id="path3130"
       d="m 33.527321,23.535093 c -0.309928,0.01047 -0.561159,0.07417 -0.742122,0.178665 -1.737094,1.002943 -2.684685,9.674589 -2.85855,19.117147 11.507418,-0.270137 24.921902,1.105972 40.473219,4.9339 0.627747,-0.718732 0.989499,-1.313941 0.989499,-1.759162 0,-4.249001 -31.560148,-22.68269 -37.862046,-22.470548 z"
       style="fill:url(#linearGradient3986);fill-opacity:1;fill-rule:evenodd;stroke:none" />
  </g>
</svg>
