<?xml version="1.0" encoding="UTF-8" standalone="no"?>
<svg
   xmlns:dc="http://purl.org/dc/elements/1.1/"
   xmlns:cc="http://creativecommons.org/ns#"
   xmlns:rdf="http://www.w3.org/1999/02/22-rdf-syntax-ns#"
   xmlns:svg="http://www.w3.org/2000/svg"
   xmlns="http://www.w3.org/2000/svg"
   xmlns:xlink="http://www.w3.org/1999/xlink"
   xmlns:sodipodi="http://sodipodi.sourceforge.net/DTD/sodipodi-0.dtd"
   xmlns:inkscape="http://www.inkscape.org/namespaces/inkscape"
   id="svg2408"
   height="96"
   width="96"
   version="1.0"
   sodipodi:docname="fbreader.svg"
   inkscape:version="0.92.2 5c3e80d, 2017-08-06">
  <sodipodi:namedview
     pagecolor="#ffffff"
     bordercolor="#666666"
     borderopacity="1"
     objecttolerance="10"
     gridtolerance="10"
     guidetolerance="10"
     inkscape:pageopacity="0"
     inkscape:pageshadow="2"
     inkscape:window-width="1366"
     inkscape:window-height="743"
     id="namedview99"
     showgrid="false"
     inkscape:zoom="3.4766083"
     inkscape:cx="13.372199"
     inkscape:cy="31.558265"
     inkscape:window-x="0"
     inkscape:window-y="25"
     inkscape:window-maximized="1"
     inkscape:current-layer="svg2408" />
  <defs
     id="defs2410">
    <linearGradient
       id="linearGradient4639">
      <stop
         id="stop4635"
         offset="0"
         style="stop-color:#000000;stop-opacity:0.21399178" />
      <stop
         id="stop4637"
         offset="1"
         style="stop-color:#000000;stop-opacity:0;" />
    </linearGradient>
    <linearGradient
       id="linearGradient4628">
      <stop
         id="stop4624"
         offset="0"
         style="stop-color:#bdc4c5;stop-opacity:1" />
      <stop
         id="stop4626"
         offset="1"
         style="stop-color:#e3ebee;stop-opacity:1" />
    </linearGradient>
    <linearGradient
       id="linearGradient4577">
      <stop
         id="stop4573"
         style="stop-color:#794596;stop-opacity:1"
         offset="0" />
      <stop
         id="stop4575"
         style="stop-color:#926ba0;stop-opacity:1"
         offset="1" />
    </linearGradient>
    <linearGradient
       id="linearGradient4578">
      <stop
         style="stop-color:#b0ffe6;stop-opacity:1"
         offset="0"
         id="stop4574" />
      <stop
         style="stop-color:#ffffff;stop-opacity:0;"
         offset="1"
         id="stop4576" />
    </linearGradient>
    <linearGradient
       id="linearGradient3781">
      <stop
         offset="0"
         style="stop-color:#ffffff;stop-opacity:1"
         id="stop3783" />
      <stop
         offset="1"
         style="stop-color:#ffffff;stop-opacity:0"
         id="stop3785" />
    </linearGradient>
    <linearGradient
       id="linearGradient3754">
      <stop
         offset="0"
         style="stop-color:#393939;stop-opacity:1"
         id="stop3756" />
      <stop
         offset="0.65625"
         style="stop-color:#282828;stop-opacity:1"
         id="stop3762" />
      <stop
         offset="1"
         style="stop-color:#161616;stop-opacity:1"
         id="stop3758" />
    </linearGradient>
    <linearGradient
       id="linearGradient3673">
      <stop
         offset="0"
         style="stop-color:#ffffff;stop-opacity:1"
         id="stop3675" />
      <stop
         offset="0.734375"
         style="stop-color:#f2f2f2;stop-opacity:1"
         id="stop3716" />
      <stop
         offset="1"
         style="stop-color:#e5e5e5;stop-opacity:1"
         id="stop3677" />
    </linearGradient>
    <linearGradient
       gradientTransform="scale(1.0058652,0.994169)"
       gradientUnits="userSpaceOnUse"
       id="ButtonShadow"
       y2="7.0165396"
       x2="45.447727"
       y1="92.539597"
       x1="45.447727">
      <stop
         offset="0"
         style="stop-color:#000000;stop-opacity:1"
         id="stop3750" />
      <stop
         offset="1"
         style="stop-color:#000000;stop-opacity:0.58823532"
         id="stop3752" />
    </linearGradient>
    <linearGradient
       id="linearGradient3737">
      <stop
         offset="0"
         style="stop-color:#ffffff;stop-opacity:1"
         id="stop3739" />
      <stop
         offset="1"
         style="stop-color:#ffffff;stop-opacity:0"
         id="stop3741" />
    </linearGradient>
    <linearGradient
       id="linearGradient3700">
      <stop
         offset="0"
         style="stop-color:#800000;stop-opacity:1"
         id="stop3702" />
      <stop
         offset="1"
         style="stop-color:#cd2e24;stop-opacity:1"
         id="stop3704" />
    </linearGradient>
    <filter
       id="filter3174"
       color-interpolation-filters="sRGB">
      <feGaussianBlur
         stdDeviation="1.71"
         id="feGaussianBlur3176" />
    </filter>
    <linearGradient
       gradientUnits="userSpaceOnUse"
       xlink:href="#linearGradient3737"
       id="linearGradient3188"
       y2="63.893143"
       x2="36.357143"
       y1="6"
       x1="36.357143"
       gradientTransform="translate(-37.563469,0.334757)" />
    <filter
       id="filter3794"
       color-interpolation-filters="sRGB"
       height="1.3839999"
       width="1.3839999"
       y="-0.192"
       x="-0.192">
      <feGaussianBlur
         stdDeviation="5.28"
         id="feGaussianBlur3796" />
    </filter>
    <linearGradient
       gradientUnits="userSpaceOnUse"
       xlink:href="#linearGradient3737"
       id="linearGradient3613"
       y2="138.66119"
       x2="48"
       y1="20.220806"
       x1="48" />
    <radialGradient
       gradientTransform="matrix(1.1573129,0,0,0.99590774,-33.150683,31.837164)"
       gradientUnits="userSpaceOnUse"
       xlink:href="#linearGradient3737"
       id="radialGradient3619"
       fy="90.171875"
       fx="48"
       r="42"
       cy="90.171875"
       cx="48" />
    <clipPath
       id="clipPath3613">
      <rect
         style="fill:#ffffff;fill-opacity:1;fill-rule:nonzero;stroke:none"
         id="rect3615"
         y="6"
         x="6"
         ry="6"
         rx="6"
         height="84"
         width="84" />
    </clipPath>
    <linearGradient
       gradientUnits="userSpaceOnUse"
       xlink:href="#linearGradient4577"
       id="linearGradient3617"
       y2="5.9877172"
       x2="48"
       y1="90"
       x1="48" />
    <linearGradient
       gradientTransform="matrix(1.0058652,0,0,0.994169,100,0)"
       gradientUnits="userSpaceOnUse"
       id="ButtonShadow-0"
       y2="7.0165396"
       x2="45.447727"
       y1="92.539597"
       x1="45.447727">
      <stop
         offset="0"
         style="stop-color:#000000;stop-opacity:1"
         id="stop3750-8" />
      <stop
         offset="1"
         style="stop-color:#000000;stop-opacity:0.58823532"
         id="stop3752-5" />
    </linearGradient>
    <linearGradient
       gradientTransform="matrix(1.0238095,0,0,1.0119048,-1.1428571,-98.071429)"
       gradientUnits="userSpaceOnUse"
       xlink:href="#ButtonShadow-0"
       id="linearGradient3780"
       y2="90.238609"
       x2="32.251034"
       y1="6.1317081"
       x1="32.251034" />
    <linearGradient
       gradientTransform="matrix(1.0238095,0,0,1.0119048,-1.1428571,-98.071429)"
       gradientUnits="userSpaceOnUse"
       xlink:href="#ButtonShadow-0"
       id="linearGradient3772"
       y2="90.238609"
       x2="32.251034"
       y1="6.1317081"
       x1="32.251034" />
    <linearGradient
       gradientTransform="matrix(1.0238095,0,0,1.0119048,-1.1428571,-98.071429)"
       gradientUnits="userSpaceOnUse"
       xlink:href="#ButtonShadow-0"
       id="linearGradient3725"
       y2="90.238609"
       x2="32.251034"
       y1="6.1317081"
       x1="32.251034" />
    <linearGradient
       gradientTransform="translate(0,-97)"
       gradientUnits="userSpaceOnUse"
       xlink:href="#ButtonShadow-0"
       id="linearGradient3721"
       y2="90.238609"
       x2="32.251034"
       y1="6.1317081"
       x1="32.251034" />
    <linearGradient
       gradientTransform="matrix(1.0238095,0,0,1.0119048,-1.1428571,-98.071429)"
       gradientUnits="userSpaceOnUse"
       xlink:href="#ButtonShadow-0"
       id="linearGradient3026"
       y2="90.238609"
       x2="32.251034"
       y1="6.1317081"
       x1="32.251034" />
    <radialGradient
       gradientTransform="matrix(1.1875,0,0,1.125,-6,-3.25)"
       gradientUnits="userSpaceOnUse"
       xlink:href="#linearGradient3673"
       id="radialGradient3679"
       fy="26"
       fx="32"
       r="16"
       cy="26"
       cx="32" />
    <radialGradient
       gradientTransform="matrix(1.1875,0,0,1.125,-6,-5)"
       gradientUnits="userSpaceOnUse"
       xlink:href="#linearGradient3754"
       id="radialGradient3760"
       fy="40"
       fx="32"
       r="16"
       cy="40"
       cx="32" />
    <linearGradient
       gradientUnits="userSpaceOnUse"
       xlink:href="#linearGradient3781"
       id="linearGradient3787"
       y2="38.501991"
       x2="67.29734"
       y1="15"
       x1="61" />
    <linearGradient
       gradientTransform="translate(-36,0)"
       gradientUnits="userSpaceOnUse"
       xlink:href="#linearGradient3781"
       id="linearGradient3791"
       y2="38.501991"
       x2="67.29734"
       y1="15"
       x1="61" />
    <radialGradient
       gradientTransform="matrix(1.1875,0,0,1.125,-6,-3.25)"
       gradientUnits="userSpaceOnUse"
       xlink:href="#linearGradient3673"
       id="radialGradient3834"
       fy="26"
       fx="32"
       r="16"
       cy="26"
       cx="32" />
    <linearGradient
       gradientTransform="translate(-36,36)"
       gradientUnits="userSpaceOnUse"
       xlink:href="#linearGradient3781"
       id="linearGradient3836"
       y2="38.501991"
       x2="67.29734"
       y1="15"
       x1="61" />
    <radialGradient
       gradientTransform="matrix(1.1875,0,0,1.125,-6,-5)"
       gradientUnits="userSpaceOnUse"
       xlink:href="#linearGradient3754"
       id="radialGradient3838"
       fy="40"
       fx="32"
       r="16"
       cy="40"
       cx="32" />
    <linearGradient
       gradientTransform="translate(0,36)"
       gradientUnits="userSpaceOnUse"
       xlink:href="#linearGradient3781"
       id="linearGradient3840"
       y2="38.501991"
       x2="67.29734"
       y1="15"
       x1="61" />
    <linearGradient
       xlink:href="#linearGradient4578"
       id="linearGradient4580"
       x1="35.9322"
       y1="48.644034"
       x2="45.932435"
       y2="48.644034"
       gradientUnits="userSpaceOnUse"
       gradientTransform="rotate(180,40.932317,48.644034)" />
    <linearGradient
       gradientUnits="userSpaceOnUse"
       xlink:href="#linearGradient3700"
       id="linearGradient3617-3"
       y2="5.9877172"
       x2="48"
       y1="90"
       x1="48"
       gradientTransform="translate(-18.305085,-5.6949153)" />
    <linearGradient
       gradientUnits="userSpaceOnUse"
       y2="48.278637"
       x2="72.324821"
       y1="47.991001"
       x1="48.280281"
       id="linearGradient4630"
       xlink:href="#linearGradient4628" />
    <linearGradient
       gradientUnits="userSpaceOnUse"
       y2="47.979"
       x2="83.60439"
       y1="36.589169"
       x1="49.500622"
       id="linearGradient4641"
       xlink:href="#linearGradient4639" />
    <linearGradient
       id="linearGradient4390"
       x1="48"
       x2="48"
       y1="88"
       y2="-40"
       gradientTransform="matrix(1,0,0,-1,0,92)"
       gradientUnits="userSpaceOnUse"
       xlink:href="#linearGradient3781" />
    <linearGradient
       id="linearGradient4429"
       x1="48"
       x2="112.12"
       y1="82"
       y2="82.455002"
       gradientUnits="userSpaceOnUse"
       spreadMethod="reflect"
       xlink:href="#linearGradient3781" />
    <linearGradient
       id="linearGradient3228"
       x1="90"
       x2="48"
       y1="88"
       y2="88"
       gradientUnits="userSpaceOnUse"
       spreadMethod="reflect">
      <stop
         id="stop3894"
         stop-opacity=".58824"
         offset="0" />
      <stop
         id="stop3896"
         stop-opacity=".47059"
         offset=".1178" />
      <stop
         id="stop3898"
         stop-opacity=".39216"
         offset=".2381" />
      <stop
         id="stop3900"
         stop-opacity=".31373"
         offset="1" />
    </linearGradient>
  </defs>
  <metadata
     id="metadata2413">
    <rdf:RDF>
      <cc:Work
         rdf:about="">
        <dc:format>image/svg+xml</dc:format>
        <dc:type
           rdf:resource="http://purl.org/dc/dcmitype/StillImage" />
        <dc:title />
      </cc:Work>
    </rdf:RDF>
  </metadata>
  <g
     style="display:none"
     id="layer2">
    <rect
       style="opacity:0.9;fill:url(#ButtonShadow);fill-opacity:1;fill-rule:nonzero;stroke:none;filter:url(#filter3174)"
       id="rect3745"
       y="7"
       x="5"
       ry="6"
       rx="6"
       height="85"
       width="86" />
  </g>
  <g
     id="layer3">
    <path
       style="opacity:0.07999998;fill:url(#linearGradient3026);fill-opacity:1;fill-rule:nonzero;stroke:none;display:inline"
       id="path3786"
       transform="scale(1,-1)"
       d="m 12,-95.03125 c -5.5110903,0 -10.03125,4.52016 -10.03125,10.03125 l 0,71 c 0,5.5110902 4.5201598,10.03125 10.03125,10.03125 l 72,0 c 5.51109,0 10.03125,-4.5201597 10.03125,-10.03125 l 0,-71 c 0,-5.51109 -4.52016,-10.03125 -10.03125,-10.03125 l -72,0 z" />
    <path
       style="opacity:0.1;fill:url(#linearGradient3780);fill-opacity:1;fill-rule:nonzero;stroke:none;display:inline"
       id="path3778"
       transform="scale(1,-1)"
       d="m 12,-94.03125 c -4.971633,0 -9.03125,4.059617 -9.03125,9.03125 l 0,71 c 0,4.9716329 4.0596171,9.03125 9.03125,9.03125 l 72,0 c 4.971633,0 9.03125,-4.059617 9.03125,-9.03125 l 0,-71 c 0,-4.971633 -4.059617,-9.03125 -9.03125,-9.03125 l -72,0 z" />
    <path
       style="opacity:0.2;fill:url(#linearGradient3772);fill-opacity:1;fill-rule:nonzero;stroke:none;display:inline"
       id="path3770"
       transform="scale(1,-1)"
       d="m 12,-93 c -4.4091333,0 -8,3.590867 -8,8 l 0,71 c 0,4.4091333 3.5908667,8 8,8 l 72,0 c 4.409133,0 8,-3.5908667 8,-8 l 0,-71 c 0,-4.409133 -3.590867,-8 -8,-8 l -72,0 z" />
    <rect
       style="opacity:0.3;fill:url(#linearGradient3725);fill-opacity:1;fill-rule:nonzero;stroke:none;display:inline"
       id="rect3723"
       transform="scale(1,-1)"
       y="-92"
       x="5"
       ry="7"
       rx="7"
       height="85"
       width="86" />
    <rect
       style="opacity:0.45;fill:url(#linearGradient3721);fill-opacity:1;fill-rule:nonzero;stroke:none;display:inline"
       id="rect3716"
       transform="scale(1,-1)"
       y="-91"
       x="6"
       ry="6"
       rx="6"
       height="84"
       width="84" />
  </g>
  <rect
     width="84"
     height="84"
     rx="6"
     ry="6"
     x="6"
     y="6"
     id="rect2419"
     style="fill:url(#linearGradient3617);fill-opacity:1;fill-rule:nonzero;stroke:none" />
  <path
     inkscape:connector-curvature="0"
     style="fill:#b2b7b8;fill-opacity:1;fill-rule:nonzero;stroke:none;stroke-width:0.99373037"
     d="M 48.280281,5.9909992 H 18.655284 c -3.282456,0 -5.925003,2.676 -5.925003,6.0000008 v 72 c 0,3.324 2.642547,6 5.925003,6 h 29.624997 z"
     id="rect2419-5-3" />
  <path
     inkscape:connector-curvature="0"
     style="fill:url(#linearGradient4630);fill-opacity:1;fill-rule:nonzero;stroke:none;stroke-width:0.99373037"
     d="m 48.280281,5.9909992 h 29.624997 c 3.282456,0 5.925003,2.6759999 5.925003,6.0000008 v 72 c 0,3.324 -2.642547,6 -5.925003,6 H 48.280281 Z"
     id="rect2419-5" />
  <path
     inkscape:connector-curvature="0"
     style="fill:#c7ccce;fill-opacity:1;fill-rule:nonzero;stroke:none;stroke-width:1.01998401"
     d="M 48.280281,5.9909992 H 23.390486 c -3.458187,0 -6.242207,2.676 -6.242207,6.0000008 v 72 c 0,3.324005 2.78402,6.000005 6.242207,6.000005 h 24.889795 z"
     id="rect2419-5-3-5" />
  <path
     inkscape:connector-curvature="0"
     style="fill:#d9dee7;fill-opacity:1;fill-rule:nonzero;stroke:none;stroke-width:0.99373037"
     d="m 48.280281,5.9909992 h -19.625 c -3.282456,0 -5.925003,2.676 -5.925003,6.0000008 v 71.999997 c 0,3.32401 2.642547,6.00001 5.925003,6.00001 h 19.625 z"
     id="rect2419-5-3-5-6" />
  <path
     inkscape:connector-curvature="0"
     style="opacity:0.57700004;fill:url(#linearGradient4641);fill-opacity:1;stroke:none;stroke-width:1.23604691;stroke-miterlimit:4;stroke-dasharray:none;stroke-opacity:1"
     d="M 48.280281,5.9909992 83.60439,35.990999 V 89.967 H 48.280281 Z"
     id="rect4632" />
  <path
     inkscape:connector-curvature="0"
     style="opacity:0.57700004;fill:#4b4f51;fill-opacity:1;stroke:none;stroke-width:0.66436386;stroke-miterlimit:4;stroke-dasharray:none;stroke-opacity:1"
     d="m 53.491527,18.847457 h 26.033901 v 3.254238 H 53.491527 Z"
     id="rect4643" />
  <path
     inkscape:connector-curvature="0"
     style="opacity:0.57700004;fill:#4b4f51;fill-opacity:1;stroke:none;stroke-width:0.66436386;stroke-miterlimit:4;stroke-dasharray:none;stroke-opacity:1"
     d="m 53.491527,28.101695 h 26.033901 v 3.254238 H 53.491527 Z"
     id="rect4643-2" />
  <path
     inkscape:connector-curvature="0"
     style="opacity:0.57700004;fill:#4b4f51;fill-opacity:1;stroke:none;stroke-width:0.66436386;stroke-miterlimit:4;stroke-dasharray:none;stroke-opacity:1"
     d="m 53.491527,37.355933 h 26.033901 v 3.254238 H 53.491527 Z"
     id="rect4643-2-9" />
  <path
     inkscape:connector-curvature="0"
     style="opacity:0.57700004;fill:#4b4f51;fill-opacity:1;stroke:none;stroke-width:0.66436386;stroke-miterlimit:4;stroke-dasharray:none;stroke-opacity:1"
     d="m 53.491527,46.610171 h 26.033901 v 3.254238 H 53.491527 Z"
     id="rect4643-2-9-1" />
  <path
     inkscape:connector-curvature="0"
     style="opacity:0.57700004;fill:#4b4f51;fill-opacity:1;stroke:none;stroke-width:0.66436386;stroke-miterlimit:4;stroke-dasharray:none;stroke-opacity:1"
     d="m 53.491527,55.864409 h 26.033901 v 3.254238 H 53.491527 Z"
     id="rect4643-2-9-1-2" />
  <path
     inkscape:connector-curvature="0"
     style="opacity:0.57700004;fill:#4b4f51;fill-opacity:1;stroke:none;stroke-width:0.66436386;stroke-miterlimit:4;stroke-dasharray:none;stroke-opacity:1"
     d="m 53.491527,65.118647 h 26.033901 v 3.254238 H 53.491527 Z"
     id="rect4643-2-9-1-2-7" />
  <path
     inkscape:connector-curvature="0"
     style="opacity:0.57700004;fill:#4b4f51;fill-opacity:1;stroke:none;stroke-width:0.66436386;stroke-miterlimit:4;stroke-dasharray:none;stroke-opacity:1"
     d="m 53.491527,74.372885 h 26.033901 v 3.254238 H 53.491527 Z"
     id="rect4643-2-9-1-2-7-0" />
  <path
     inkscape:connector-curvature="0"
     style="opacity:0.57700004;fill:#4b4f51;fill-opacity:1;stroke:none;stroke-width:0.53175056;stroke-miterlimit:4;stroke-dasharray:none;stroke-opacity:1"
     d="m 27.457626,18.847457 h 16.677969 v 3.254238 H 27.457626 Z"
     id="rect4643-9" />
  <path
     inkscape:connector-curvature="0"
     style="opacity:0.57700004;fill:#4b4f51;fill-opacity:1;stroke:none;stroke-width:0.53175056;stroke-miterlimit:4;stroke-dasharray:none;stroke-opacity:1"
     d="m 27.457626,28.101695 h 16.677969 v 3.254238 H 27.457626 Z"
     id="rect4643-2-3" />
  <path
     inkscape:connector-curvature="0"
     style="opacity:0.57700004;fill:#4b4f51;fill-opacity:1;stroke:none;stroke-width:0.53175056;stroke-miterlimit:4;stroke-dasharray:none;stroke-opacity:1"
     d="m 27.457626,37.355933 h 16.677969 v 3.254238 H 27.457626 Z"
     id="rect4643-2-9-6" />
  <path
     inkscape:connector-curvature="0"
     style="opacity:0.57700004;fill:#4b4f51;fill-opacity:1;stroke:none;stroke-width:0.53175056;stroke-miterlimit:4;stroke-dasharray:none;stroke-opacity:1"
     d="m 27.457626,46.610171 h 16.677969 v 3.254238 H 27.457626 Z"
     id="rect4643-2-9-1-0" />
  <path
     inkscape:connector-curvature="0"
     style="opacity:0.57700004;fill:#4b4f51;fill-opacity:1;stroke:none;stroke-width:0.53175056;stroke-miterlimit:4;stroke-dasharray:none;stroke-opacity:1"
     d="m 27.457626,55.864409 h 16.677969 v 3.25424 H 27.457626 Z"
     id="rect4643-2-9-1-2-6" />
  <path
     inkscape:connector-curvature="0"
     style="opacity:0.57700004;fill:#4b4f51;fill-opacity:1;stroke:none;stroke-width:0.53175056;stroke-miterlimit:4;stroke-dasharray:none;stroke-opacity:1"
     d="m 27.457626,65.118649 h 16.677969 v 3.25424 H 27.457626 Z"
     id="rect4643-2-9-1-2-7-2" />
  <path
     inkscape:connector-curvature="0"
     style="opacity:0.57700004;fill:#4b4f51;fill-opacity:1;stroke:none;stroke-width:0.53175056;stroke-miterlimit:4;stroke-dasharray:none;stroke-opacity:1"
     d="m 27.457626,74.372889 h 16.677969 v 3.25423 H 27.457626 Z"
     id="rect4643-2-9-1-2-7-0-6" />
  <g
     id="layer5"
     transform="translate(66)" />
  <g
     id="g907">
    <path
       id="rect4377"
       d="M 12,86 C 8.676,86 6,83.324 6,80 V 12 C 6,8.676 8.676,6 12,6 h 72 c 3.324,0 6,2.676 6,6 v 68 c 0,3.324 -2.676,6 -6,6 z m 0,-0.96875 h 72 c 2.8049,0 5.0312,-2.2264 5.0312,-5.0312 v -68 c 0,-2.8049 -2.226,-5.0312 -5.031,-5.0312 h -72 c -2.8049,0 -5.0312,2.2263 -5.0312,5.0312 v 68 c 0,2.8049 2.2264,5.0312 5.0312,5.0312 z"
       style="opacity:0.3;fill:url(#linearGradient4390)"
       inkscape:connector-curvature="0" />
    <path
       id="rect4414"
       d="m 6,78 v 2 c 0,3.324 2.676,6 6,6 h 72 c 3.324,0 6,-2.676 6,-6 v -2 c 0,3.324 -2.676,6 -6,6 H 12 C 8.676,84 6,81.324 6,78 Z"
       style="opacity:0.1;fill:url(#linearGradient4429)"
       inkscape:connector-curvature="0" />
    <g
       id="layer4">
      <path
         style="fill:url(#linearGradient3228)"
         inkscape:connector-curvature="0"
         d="m 6,80 v 4 c 0,3.324 2.676,6 6,6 h 72 c 3.324,0 6,-2.676 6,-6 v -4 c 0,3.324 -2.676,6 -6,6 H 12 C 8.676,86 6,83.324 6,80 Z"
         id="path3888" />
      <path
         style="color:#000000;opacity:0.1"
         inkscape:connector-curvature="0"
         d="m 6,82 v 2 c 0,3.324 2.676,6 6,6 h 72 c 3.324,0 6,-2.676 6,-6 v -2 c 0,3.324 -2.676,6 -6,6 H 12 C 8.676,88 6,85.324 6,82 Z"
         id="rect4345" />
      <path
         style="color:#000000;opacity:0.15"
         inkscape:connector-curvature="0"
         d="m 6,83 v 1 c 0,3.324 2.676,6 6,6 h 72 c 3.324,0 6,-2.676 6,-6 v -1 c 0,3.324 -2.676,6 -6,6 H 12 C 8.676,89 6,86.324 6,83 Z"
         id="rect4336" />
    </g>
  </g>
</svg>
