<?xml version="1.0" encoding="UTF-8" standalone="no"?>
<svg
   xmlns:dc="http://purl.org/dc/elements/1.1/"
   xmlns:cc="http://creativecommons.org/ns#"
   xmlns:rdf="http://www.w3.org/1999/02/22-rdf-syntax-ns#"
   xmlns:svg="http://www.w3.org/2000/svg"
   xmlns="http://www.w3.org/2000/svg"
   xmlns:xlink="http://www.w3.org/1999/xlink"
   xmlns:sodipodi="http://sodipodi.sourceforge.net/DTD/sodipodi-0.dtd"
   xmlns:inkscape="http://www.inkscape.org/namespaces/inkscape"
   width="96"
   height="96"
   version="1.0"
   id="svg125"
   sodipodi:docname="freemind.svg"
   inkscape:version="0.92.2 5c3e80d, 2017-08-06">
  <metadata
     id="metadata129">
    <rdf:RDF>
      <cc:Work
         rdf:about="">
        <dc:format>image/svg+xml</dc:format>
        <dc:type
           rdf:resource="http://purl.org/dc/dcmitype/StillImage" />
      </cc:Work>
    </rdf:RDF>
  </metadata>
  <sodipodi:namedview
     pagecolor="#ffffff"
     bordercolor="#666666"
     borderopacity="1"
     objecttolerance="10"
     gridtolerance="10"
     guidetolerance="10"
     inkscape:pageopacity="0"
     inkscape:pageshadow="2"
     inkscape:window-width="640"
     inkscape:window-height="480"
     id="namedview127"
     showgrid="false"
     inkscape:zoom="2.4583333"
     inkscape:cx="48"
     inkscape:cy="48"
     inkscape:window-x="0"
     inkscape:window-y="25"
     inkscape:window-maximized="0"
     inkscape:current-layer="svg125" />
  <defs
     id="defs49">
    <linearGradient
       id="linearGradient4384">
      <stop
         stop-color="#fff"
         offset="0"
         id="stop2" />
      <stop
         stop-color="#fff"
         stop-opacity="0"
         offset="1"
         id="stop4" />
    </linearGradient>
    <linearGradient
       id="ButtonShadow"
       x1="45.448"
       x2="45.448"
       y1="92.54"
       y2="7.0165"
       gradientTransform="scale(1.0059 .99417)"
       gradientUnits="userSpaceOnUse">
      <stop
         offset="0"
         id="stop7" />
      <stop
         stop-opacity=".58824"
         offset="1"
         id="stop9" />
    </linearGradient>
    <filter
       id="filter3174">
      <feGaussianBlur
         stdDeviation="1.71"
         id="feGaussianBlur12" />
    </filter>
    <filter
       id="filter3794"
       x="-.192"
       y="-.192"
       width="1.384"
       height="1.384">
      <feGaussianBlur
         stdDeviation="5.28"
         id="feGaussianBlur15" />
    </filter>
    <linearGradient
       id="linearGradient3613"
       x1="48"
       x2="48"
       y1="20.221"
       y2="138.66"
       gradientUnits="userSpaceOnUse">
      <stop
         stop-color="#fff"
         offset="0"
         id="stop18" />
      <stop
         stop-color="#fff"
         stop-opacity="0"
         offset="1"
         id="stop20" />
    </linearGradient>
    <linearGradient
       id="linearGradient3617"
       x1="48"
       x2="48"
       y1="90"
       y2="5.9877"
       gradientUnits="userSpaceOnUse">
      <stop
         stop-color="#4e703b"
         offset="0"
         id="stop23" />
      <stop
         stop-color="#59a231"
         offset="1"
         id="stop25" />
    </linearGradient>
    <linearGradient
       id="ButtonShadow-0"
       x1="45.448"
       x2="45.448"
       y1="92.54"
       y2="7.0165"
       gradientTransform="matrix(1.0059 0 0 .99417 100 0)"
       gradientUnits="userSpaceOnUse">
      <stop
         offset="0"
         id="stop28" />
      <stop
         stop-opacity=".58824"
         offset="1"
         id="stop30" />
    </linearGradient>
    <linearGradient
       id="linearGradient3780"
       x1="32.251"
       x2="32.251"
       y1="6.1317"
       y2="90.239"
       gradientTransform="matrix(1.0238 0 0 1.0119 -1.1429 -98.071)"
       gradientUnits="userSpaceOnUse"
       xlink:href="#ButtonShadow-0" />
    <linearGradient
       id="linearGradient3721"
       x1="32.251"
       x2="32.251"
       y1="6.1317"
       y2="90.239"
       gradientTransform="translate(0,-97)"
       gradientUnits="userSpaceOnUse"
       xlink:href="#ButtonShadow-0" />
    <clipPath
       id="clipPath4355">
      <rect
         x="6"
         y="6"
         width="84"
         height="80"
         rx="6"
         ry="6"
         fill="#fff"
         id="rect35" />
    </clipPath>
    <linearGradient
       id="linearGradient4390"
       x1="48"
       x2="48"
       y1="88"
       y2="-40"
       gradientTransform="matrix(1,0,0,-1,0,92)"
       gradientUnits="userSpaceOnUse"
       xlink:href="#linearGradient4384" />
    <linearGradient
       id="linearGradient4429"
       x1="48"
       x2="112.12"
       y1="82"
       y2="82.455"
       gradientUnits="userSpaceOnUse"
       spreadMethod="reflect"
       xlink:href="#linearGradient4384" />
    <linearGradient
       id="linearGradient3870"
       x1="8"
       x2="50"
       y1="1033.4"
       y2="1033.4"
       gradientTransform="translate(-2 -956.36)"
       gradientUnits="userSpaceOnUse"
       spreadMethod="reflect">
      <stop
         stop-color="#523823"
         offset="0"
         id="stop40" />
      <stop
         stop-color="#79563a"
         offset=".1178"
         id="stop42" />
      <stop
         stop-color="#875c38"
         offset=".2381"
         id="stop44" />
      <stop
         stop-color="#a66e40"
         offset="1"
         id="stop46" />
    </linearGradient>
  </defs>
  <g
     display="none"
     id="g53">
    <rect
       x="5"
       y="7"
       width="86"
       height="85"
       rx="6"
       ry="6"
       fill="url(#ButtonShadow)"
       filter="url(#filter3174)"
       opacity=".9"
       id="rect51" />
  </g>
  <g
     id="g67">
    <g
       fill="url(#linearGradient3780)"
       id="g63">
      <path
         transform="scale(1,-1)"
         d="m12-95.031c-5.5111 0-10.031 4.5202-10.031 10.031v71c0 5.5111 4.5202 10.031 10.031 10.031h72c5.5111 0 10.031-4.5202 10.031-10.031v-71c0-5.5111-4.5202-10.031-10.031-10.031h-72z"
         opacity=".08"
         id="path55" />
      <path
         transform="scale(1,-1)"
         d="m12-94.031c-4.9716 0-9.0312 4.0596-9.0312 9.0312v71c0 4.9716 4.0596 9.0312 9.0312 9.0312h72c4.9716 0 9.0312-4.0596 9.0312-9.0312v-71c0-4.9716-4.0596-9.0312-9.0312-9.0312h-72z"
         opacity=".1"
         id="path57" />
      <path
         transform="scale(1,-1)"
         d="m12-93c-4.4091 0-8 3.5909-8 8v71c0 4.4091 3.5909 8 8 8h72c4.4091 0 8-3.5909 8-8v-71c0-4.4091-3.5909-8-8-8h-72z"
         opacity=".2"
         id="path59" />
      <rect
         transform="scale(1,-1)"
         x="5"
         y="-92"
         width="86"
         height="85"
         rx="7"
         ry="7"
         opacity=".3"
         id="rect61" />
    </g>
    <rect
       transform="scale(1,-1)"
       x="6"
       y="-91"
       width="84"
       height="84"
       rx="6"
       ry="6"
       fill="url(#linearGradient3721)"
       opacity=".45"
       id="rect65" />
  </g>
  <g
     id="g79">
    <rect
       x="6"
       y="64"
       width="84"
       height="26"
       rx="6"
       ry="6"
       color="#000000"
       fill="url(#linearGradient3870)"
       id="rect69" />
    <g
       id="g77">
      <path
         d="m6 82v2c0 3.324 2.676 6 6 6h72c3.324 0 6-2.676 6-6v-2c0 3.324-2.676 6-6 6h-72c-3.324 0-6-2.676-6-6z"
         color="#000000"
         opacity=".1"
         id="path71" />
      <path
         d="m6 83v1c0 3.324 2.676 6 6 6h72c3.324 0 6-2.676 6-6v-1c0 3.324-2.676 6-6 6h-72c-3.324 0-6-2.676-6-6z"
         color="#000000"
         opacity=".1"
         id="path73" />
      <path
         d="m6 80v1c0 3.324 2.676 6 6 6h72c3.324 0 6-2.676 6-6v-1c0 3.324-2.676 6-6 6h-72c-3.324 0-6-2.676-6-6z"
         opacity=".2"
         id="path75" />
    </g>
  </g>
  <g
     id="g87">
    <rect
       x="6"
       y="6"
       width="84"
       height="80"
       rx="6"
       ry="6"
       fill="url(#linearGradient3617)"
       id="rect81" />
    <path
       d="m12 86c-3.324 0-6-2.676-6-6v-68c0-3.324 2.676-6 6-6h72c3.324 0 6 2.676 6 6v68c0 3.324-2.676 6-6 6zm0-0.96875h72c2.8049 0 5.0312-2.2264 5.0312-5.0312v-68c0-2.8049-2.2264-5.0312-5.0312-5.0312h-72c-2.8049 0-5.0312 2.2264-5.0312 5.0312v68c0 2.8049 2.2264 5.0312 5.0312 5.0312z"
       fill="url(#linearGradient4390)"
       opacity=".3"
       id="path83" />
    <path
       d="m6 78v2c0 3.324 2.676 6 6 6h72c3.324 0 6-2.676 6-6v-2c0 3.324-2.676 6-6 6h-72c-3.324 0-6-2.676-6-6z"
       fill="url(#linearGradient4429)"
       opacity=".1"
       id="path85" />
  </g>
  <g
     id="g91">
    <rect
       x="15"
       y="15"
       width="66"
       height="62"
       rx="12"
       ry="12"
       clip-path="url(#clipPath4355)"
       fill="url(#linearGradient3613)"
       filter="url(#filter3794)"
       opacity=".1"
       stroke="#fff"
       stroke-linecap="round"
       stroke-width=".5"
       id="rect89" />
  </g>
  <defs
     id="defs101">
    <filter
       id="w">
      <feGaussianBlur
         stdDeviation="0.23199685"
         id="feGaussianBlur93" />
    </filter>
    <linearGradient
       id="a"
       gradientUnits="userSpaceOnUse"
       x1="8"
       y1="0.99998707"
       x2="8"
       y2="15.00003007">
      <stop
         stop-color="#fafafa"
         offset="0"
         id="stop96" />
      <stop
         stop-color="#ebebeb"
         offset="1"
         id="stop98" />
    </linearGradient>
  </defs>
  <g
     transform="translate(0,-2)"
     id="g123">
    <path
       style="opacity:0.15;fill:#000000"
       d="M 10.691406,0.75585938 C 10.380041,0.72751584 10.060146,0.78258638 9.7792969,0.89453125 9.5015833,1.0052263 9.2555901,1.1757902 9.0839844,1.4042969 9.083133,1.3156478 9.0713523,1.2295675 9.0214844,1.1425781 8.9113856,0.95052229 8.7193239,0.8957677 8.5097656,0.84375 8.1971365,0.76610224 7.7901906,0.76809392 7.4765625,0.84570312 7.2739061,0.89600792 7.1000502,0.94564228 6.9824219,1.1152344 6.9128937,1.2154775 6.9008377,1.3249886 6.90625,1.4355469 6.7377151,1.2114211 6.50014,1.0370414 6.2304688,0.921875 5.6655199,0.68060681 4.9388605,0.66849244 4.4375,1.1171875 4.3571372,1.1891182 4.2891249,1.2431651 4.2285156,1.3378906 4.198211,1.3852534 4.167628,1.451688 4.1679688,1.5371094 c 3.407e-4,0.085421 0.040348,0.1713317 0.085937,0.2226562 0.091179,0.1026491 0.1823647,0.1330989 0.3027344,0.1816406 0.097986,0.039515 0.2364038,0.086895 0.3847656,0.1367188 C 4.3942115,2.0008539 4.006176,2.0309339 3.4667969,2.2714844 3.0009249,2.4792616 2.6373867,2.7411589 2.4023438,3.0527344 2.1673008,3.3643099 2.0695042,3.7406019 2.1621094,4.1054688 2.2167553,4.3207418 2.3696991,4.543013 2.6269531,4.65625 c 0.2572541,0.113237 0.609285,0.1807914 1.2128907,0.2851562 0.5254541,0.090846 0.794239,0.1066523 1.0957031,0.1289063 -0.015112,-0.00198 -0.023687,0.00432 -0.039063,0.00195 C 3.6911318,4.8871002 3.0398502,4.7914789 2.5859375,4.8144531 2.1320248,4.8374273 1.8585583,5.0448277 1.6425781,5.3164062 1.3854026,5.6397718 1.2173747,5.9079456 1.2285156,6.21875 c 0.011141,0.3108044 0.203686,0.5583221 0.484375,0.8359375 0.1930045,0.1908906 0.3907241,0.3320809 0.6425782,0.4082031 0.251854,0.076122 0.5397063,0.09375 0.953125,0.09375 0.077441,0 0.1290475,0.020356 0.203125,0.023437 -0.4177681,0 -0.6760501,0.00611 -0.8945313,0.078125 -0.1171827,0.038625 -0.2120647,0.1138983 -0.2871094,0.203125 -0.00592,-0.035095 0.00613,-0.073127 -0.00391,-0.1074219 C 2.2792916,7.5936394 2.1676322,7.4281876 1.9863281,7.359375 1.7529839,7.270816 1.4895342,7.2586603 1.2851562,7.3945312 1.0807783,7.5304022 0.96390441,7.7505805 0.8515625,8.0429688 0.74623901,8.3169569 0.72916044,8.622654 0.76757812,8.8847656 c 0.0192088,0.1310558 0.0513642,0.2510905 0.11523438,0.3613282 0.0638702,0.1102376 0.1957083,0.2366978 0.3730469,0.2285156 0.058494,-0.00264 0.08575,-0.016641 0.1171875,-0.029297 -0.1028035,0.1560939 -0.1886889,0.3299998 -0.2382813,0.5253906 -0.090441,0.3564109 -0.036683,0.7169819 0.1523438,1.0117189 0.1890264,0.294737 0.4989916,0.523255 0.8964844,0.6875 0.054952,0.02271 0.088983,0.01385 0.1386718,0.0332 -0.1622055,-0.02233 -0.3296769,-0.06021 -0.4667968,-0.01758 -0.1021296,0.03175 -0.2086762,0.12568 -0.2519532,0.224609 -0.043277,0.09893 -0.044922,0.182437 -0.044922,0.267578 0,0.169201 0.034752,0.343385 0.1347656,0.490235 0.1000137,0.146849 0.2507694,0.252478 0.4375,0.330078 0.2725552,0.113266 0.6855749,0.179808 1.1933594,0.240234 -0.037773,0.01192 -0.073937,0.0054 -0.1152344,0.0332 -0.054511,0.0367 -0.1101326,0.103283 -0.1328125,0.175782 -0.02268,0.0725 -0.016788,0.138777 -0.00586,0.189453 0.021857,0.101351 0.061624,0.16926 0.1074219,0.253906 0.1937197,0.358029 0.5789898,0.66804 1.0078125,0.919922 C 4.6143695,15.062429 5.0761886,15.25 5.4863281,15.25 c 0.451837,0 0.8445688,-0.189041 1.21875,-0.537109 a 0.250025,0.250025 0 0 0 0.066406,-0.04687 c 0.1561185,-0.154405 0.2797982,-0.31131 0.375,-0.47461 -0.017423,0.160269 -0.056185,0.332029 -0.00586,0.46875 0.039526,0.107381 0.1147293,0.201276 0.1992188,0.265625 0.084489,0.06435 0.176732,0.109149 0.28125,0.15625 0.1907355,0.08595 0.3701866,0.131895 0.546875,0.125 0.1766883,-0.0069 0.351852,-0.07828 0.4726562,-0.205078 0.1787719,-0.187645 0.2179997,-0.463468 0.2089844,-0.773437 0.110819,0.172933 0.2505801,0.336373 0.4121094,0.478515 C 9.6138212,15.016874 10.054477,15.25 10.503906,15.25 c 0.410129,0 0.873922,-0.187585 1.302735,-0.439453 0.428813,-0.251868 0.814132,-0.559959 1.007812,-0.917969 0.0458,-0.08464 0.08556,-0.154505 0.107422,-0.255859 0.01093,-0.05068 0.01682,-0.115005 -0.0059,-0.1875 -0.02268,-0.07249 -0.07831,-0.139082 -0.132813,-0.175781 -0.04298,-0.02894 -0.08184,-0.02129 -0.121094,-0.0332 0.511958,-0.0605 0.925242,-0.129499 1.199219,-0.24414 0.185616,-0.07767 0.338058,-0.183436 0.4375,-0.330078 0.09944,-0.146643 0.134766,-0.317363 0.134766,-0.486328 0,-0.08515 -0.0016,-0.170599 -0.04492,-0.269532 -0.04329,-0.09893 -0.15178,-0.190912 -0.253906,-0.222656 -0.137704,-0.0428 -0.305542,-0.005 -0.46875,0.01758 0.05055,-0.01966 0.08462,-0.01201 0.140625,-0.03516 0.443138,-0.183125 0.773456,-0.424495 0.949218,-0.75 0.175763,-0.325505 0.16761,-0.716123 0.0078,-1.0976564 -0.06805,-0.1624844 -0.141421,-0.2985134 -0.21875,-0.4238281 0.06838,0.023754 0.131648,0.056515 0.214844,0.052734 0.12845,-0.00584 0.257054,-0.09347 0.320312,-0.1835938 0.06326,-0.090124 0.09482,-0.1808919 0.128906,-0.2871093 0.08951,-0.2789532 0.03456,-0.5860181 -0.05664,-0.8808594 -0.0912,-0.2948414 -0.198272,-0.5702849 -0.457032,-0.7285156 -0.115893,-0.070815 -0.224293,-0.078584 -0.335937,-0.078125 -0.111644,4.59e-4 -0.2267,0.018119 -0.337891,0.060547 -0.177946,0.067537 -0.302985,0.2142603 -0.36914,0.3710938 -0.01454,0.034468 -0.0056,0.073686 -0.01563,0.109375 -0.07136,-0.076494 -0.157152,-0.1413158 -0.261719,-0.1757813 -0.218476,-0.07201 -0.476786,-0.078125 -0.894531,-0.078125 -0.01367,0 -0.02167,0.00191 -0.03516,0.00195 0.08577,-0.00393 0.147894,-0.025391 0.238282,-0.025391 0.413427,0 0.699319,-0.017628 0.951172,-0.09375 0.251852,-0.076121 0.451523,-0.2173095 0.644531,-0.4082031 C 14.55999,6.7770674 14.75058,6.5295546 14.761719,6.21875 14.772858,5.9079454 14.606784,5.6397707 14.349609,5.3164062 14.13362,5.0448244 13.860163,4.8374274 13.40625,4.8144531 c -0.453913,-0.022974 -1.107152,0.072642 -2.3125,0.2578125 -0.02311,0.00355 -0.03608,-0.00465 -0.05859,-0.00195 0.314779,-0.021071 0.574656,-0.024727 1.121094,-0.1269531 0.584507,-0.109351 0.938728,-0.1867368 1.195312,-0.2988282 0.256585,-0.1120913 0.421159,-0.3186832 0.47461,-0.5292968 0.08737,-0.3443076 0.02094,-0.6991677 -0.179688,-0.9960938 C 13.445859,2.8222145 13.125772,2.5755715 12.705078,2.3632812 12.21293,2.1149519 11.71975,2.0069921 11.232422,2.0136719 c 0.06392,-0.022637 0.149968,-0.049664 0.201172,-0.070312 0.120369,-0.048541 0.211554,-0.080945 0.302734,-0.1835938 0.04559,-0.051324 0.08755,-0.1372346 0.08789,-0.2226562 3.41e-4,-0.085422 -0.0322,-0.1518563 -0.0625,-0.1992188 C 11.70111,1.2431656 11.63505,1.1891203 11.554688,1.1171875 11.306867,0.89537286 11.002771,0.78420291 10.691406,0.75585938 Z m 4.517578,8.22460942 a 0.250025,0.250025 0 0 0 0.01172,-0.085938 z M 5.7441406,3.5585938 c 0.013409,0.00748 0.020665,0.012158 0.033203,0.019531 -0.00963,-0.00809 -0.023327,-0.011712 -0.033203,-0.019531 z m 0.1582032,0.1113281 c 0.031378,0.025443 0.093812,0.063798 0.1015624,0.078125 0.021401,0.039552 0.0124,0.067485 0.029297,0.1054687 C 5.9843163,3.7958791 5.9659792,3.7333545 5.9023438,3.6699219 Z m 4.1015622,0.064453 c -0.00677,0.00703 -0.013002,0.014279 -0.019531,0.021484 0.00155,-0.0029 3.775e-4,-0.0049 0.00195,-0.00781 0.00134,-0.00248 0.015484,-0.010801 0.017578,-0.013672 z M 9.4609375,5.9921875 C 9.5612391,6.0685482 9.6754022,6.1321702 9.8125,6.171875 c 0.1667358,0.048288 0.483924,0.0557 0.740234,0.074219 C 10.051102,6.3020152 9.6469361,6.389549 9.3398438,6.515625 9.4162784,6.4308622 9.4721588,6.3444905 9.5,6.2246094 9.5192054,6.141913 9.4851872,6.0679685 9.4609375,5.9921875 Z M 6.5039062,6 C 6.4822768,6.0858725 6.463,6.1808603 6.4921875,6.2578125 6.5329338,6.3652392 6.6515125,6.4569599 6.734375,6.5449219 6.4144887,6.398269 5.9789972,6.3048164 5.4316406,6.2441406 5.6993342,6.2256859 6.0268625,6.21959 6.1992188,6.1660156 6.3190154,6.1287786 6.4133029,6.0672463 6.5039062,6 Z m 4.4238278,1.9414062 c -0.219631,0.1939095 -0.353515,0.463188 -0.353515,0.7792969 0,0.23517 0.03162,0.4451545 0.162109,0.6191407 0.09589,0.1278575 0.257057,0.1990949 0.416016,0.2773437 -0.111466,-0.013616 -0.215847,-0.047986 -0.310547,-0.1152344 -0.166378,-0.1181478 -0.30947,-0.3242939 -0.382813,-0.6132812 -0.100603,-0.3964413 0.02593,-0.6708085 0.396485,-0.9179688 0.01802,-0.012017 0.05301,-0.017667 0.07226,-0.029297 z m -5.8164059,0.050781 c 0.016077,0.011005 0.047424,0.016055 0.0625,0.027344 C 5.5359296,8.2906679 5.6436769,8.5860102 5.4785156,9.015625 5.416926,9.1758452 5.3337183,9.2296319 5.2578125,9.3222656 5.3792948,9.1511147 5.4160156,8.9473254 5.4160156,8.71875 c 0,-0.2902038 -0.120294,-0.5340052 -0.3046875,-0.7265625 z M 2.2011719,8.6933594 c 0.01964,0.068779 0.057026,0.1326416 0.087891,0.1992187 -0.069203,-0.013071 -0.1409591,-0.019812 -0.2050781,-0.00781 -0.00381,7.136e-4 -0.00598,0.00509 -0.00977,0.00586 0.045386,-0.066048 0.093465,-0.1251159 0.1269531,-0.1972656 z m 11.5566401,0.074219 c 0.02001,0.035364 0.05832,0.058424 0.08203,0.091797 -0.0043,-1.474e-4 -0.0074,-0.00386 -0.01172,-0.00391 -0.04914,-4.696e-4 -0.08562,0.042786 -0.132813,0.056641 0.02306,-0.047951 0.04512,-0.095243 0.0625,-0.1445313 z M 7.1132812,8.984375 c -0.00361,0.00628 -0.00617,0.021509 -0.00977,0.027344 -0.1583038,0.2566409 -0.2743193,0.4165053 -0.2714844,0.6484374 0.00112,0.091485 0.033693,0.1660329 0.068359,0.2421876 C 6.8254748,9.8291434 6.7556916,9.7465881 6.6757812,9.6894531 6.6325252,9.6585256 6.5762029,9.6584778 6.53125,9.6328125 6.6017942,9.5505838 6.674655,9.4636866 6.8027344,9.3476562 6.9515587,9.2128311 7.0131061,9.1009693 7.1132812,8.984375 Z m 1.7636719,0 C 8.9771279,9.1009703 9.0386758,9.2128285 9.1875,9.3476562 9.3146836,9.4628729 9.3864914,9.5488346 9.4570312,9.6308594 9.4070612,9.6579721 9.3458427,9.6575541 9.2988281,9.6914062 9.2232416,9.7458311 9.1594499,9.8271963 9.0898438,9.8964844 9.1216647,9.824182 9.1555903,9.7541317 9.1582031,9.6679688 9.165351,9.4322538 9.0455902,9.26924 8.8867188,9.0117188 c -0.0036,-0.00583 -0.00616,-0.021066 -0.00977,-0.027344 z M 5.2382812,9.3496094 c -0.049795,0.056523 -0.089824,0.1667857 -0.1425781,0.1992187 -0.049043,0.030152 -0.1280623,0.00518 -0.1835937,0.019531 0.1160094,-0.064787 0.2490386,-0.1206301 0.3261718,-0.21875 z m 0.099609,2.0703126 c 0.028638,0.002 0.1032791,0.0506 0.1386719,0.05859 -0.068055,-0.01155 -0.1384807,-0.01939 -0.2089844,-0.02539 0.025816,-0.0021 0.038262,-0.03541 0.070312,-0.0332 z m 5.0429684,0.07813 c 0.04316,-0.0059 0.0678,0.02034 0.109375,0.01953 -0.09135,0.01986 -0.185773,0.02694 -0.273437,0.05664 0.05706,-0.01645 0.107954,-0.0685 0.164062,-0.07617 z m -0.5175778,0.238281 c -0.3849896,0.203137 -0.7018353,0.49107 -0.9179687,0.847656 0.023399,-0.106036 0.069294,-0.219315 0.056641,-0.322265 -0.018136,-0.147564 -0.1117486,-0.263495 -0.2050781,-0.375 0.024076,0.01803 0.03388,0.05156 0.060547,0.06641 0.2666724,0.148424 0.6141135,0.07598 0.8769531,-0.158203 0.038036,-0.03389 0.087816,-0.03044 0.1289062,-0.05859 z m -2.6015624,0.02148 c -0.00689,0.0084 -0.010474,0.02813 -0.017578,0.03516 -0.1289502,0.127536 -0.2316749,0.285922 -0.2539062,0.470703 -0.014201,0.118031 0.032716,0.245295 0.064453,0.36914 -0.031887,-0.05832 -0.047088,-0.112021 -0.083984,-0.171874 C 6.8207674,12.217712 6.622366,12.030799 6.40625,11.871094 c 0.2456218,0.09698 0.4823178,0.145659 0.6953125,0.05273 0.072427,-0.0316 0.1046972,-0.110136 0.1601563,-0.166016 z m 3.2558592,1.806641 c -0.03567,0.02829 -0.08678,0.04147 -0.117187,0.07617 -0.08996,0.102667 -0.127172,0.263211 -0.101563,0.412109 -0.0108,0.0013 0.0057,-0.002 -0.0098,-0.002 -0.05059,0 -0.06065,-0.01 -0.07031,-0.01953 -0.0097,-0.0095 -0.02363,-0.02929 -0.02734,-0.07031 -0.0074,-0.08204 0.038,-0.230644 0.175782,-0.34375 -0.03186,0.02615 0.04251,-0.02047 0.144531,-0.05078 0.0015,-4.44e-4 0.0043,-0.0015 0.0059,-0.002 z M 5.5664062,13.625 c 0.010688,0.0057 0.080937,0.02821 0.082031,0.0293 0.096893,0.09583 0.1149275,0.213827 0.095703,0.291015 -0.00717,0.0288 -0.036312,0.02288 -0.046875,0.03906 0.00173,-0.127991 -0.031286,-0.25685 -0.1074218,-0.34375 -0.00615,-0.007 -0.017068,-0.0089 -0.023438,-0.01563 z"
       id="path103"
       inkscape:original="m6.5949 14.489c0.60587-0.59922 0.64938-1.1076 0.16245-1.8975-0.37091-0.60169-0.95541-0.91363-1.7119-0.91363-0.38184 0-0.41791-0.0407-0.23204-0.26229 0.29822-0.35537 0.68302-0.32884 1.387 0.0956 0.6839 0.41238 1.0881 0.23604 1.0881-0.47472 0-0.44406-0.71067-1.2821-1.0873-1.2821-0.12065 0 0.074617-0.26634 0.43394-0.59186 0.5493-0.49763 0.65332-0.70578 0.65332-1.3074 0-0.98124-0.48721-1.2738-2.3673-1.4215-1.4897-0.11702-1.8757-0.23181-1.8757-0.55782 0-0.12283 0.084323-0.11673 0.24842 0.018 0.15547 0.12762 0.76049 0.1847 1.617 0.15255 1.2642-0.0474 1.3966-0.0886 1.7365-0.53972 0.48381-0.64224 0.50077-1.8101 0.031242-2.1497-0.38072-0.27534-0.29356-0.48546 0.13405-0.32317 0.45758 0.17366 0.70231 1.1677 0.48448 1.9677-0.10338 0.37974-0.30567 0.78704-0.44951 0.90512-0.22514 0.1848-0.18804 0.28261 0.26646 0.70252 0.43004 0.39732 0.52782 0.62891 0.52706 1.2482-4.651e-4 0.42776-0.14247 0.98988-0.32449 1.285-0.31446 0.5098-0.31413 0.53727 0.011931 0.97562 0.4144 0.55716 0.46074 1.4891 0.09221 1.8537-0.218 0.21561-0.23783 0.38043-0.094637 0.7866 0.099591 0.28261 0.13078 0.82511 0.069259 1.2056-0.1001 0.61882-0.065518 0.7126 0.32742 0.88968 0.66556 0.29993 1.0076-0.0591 0.86956-0.91271-0.059451-0.36778-0.026591-0.89992 0.073-1.1825 0.14346-0.40703 0.12332-0.571-0.096962-0.78883-0.38438-0.38017-0.34793-1.257 0.075932-1.8267 0.34539-0.46425 0.34613-0.48851 0.030332-1.0004-0.18201-0.29509-0.32398-0.85721-0.3245-1.285-7.077e-4 -0.61306 0.097771-0.85157 0.50823-1.2308 0.49435-0.45673 0.5001-0.48148 0.19762-0.85094-0.46859-0.57234-0.58528-1.497-0.28009-2.2194 0.14434-0.34167 0.38584-0.62121 0.53664-0.62121 0.36501 0 0.34608 0.10378-0.099287 0.54425-0.44432 0.43945-0.37041 1.362 0.16619 2.0745 0.29792 0.39557 0.47396 0.44655 1.7009 0.4926 0.85651 0.0322 1.4615-0.0249 1.617-0.15255 0.16411-0.1347 0.24843-0.1408 0.24843-0.018 0 0.32601-0.38599 0.4408-1.8757 0.55782-1.8801 0.14769-2.3673 0.44024-2.3673 1.4215 0 0.60161 0.10402 0.80976 0.65332 1.3074 0.35933 0.32552 0.5546 0.59186 0.43394 0.59186-0.41743 0-1.0873 0.84537-1.0873 1.3722 0 0.60571 0.4469 0.85444 0.86533 0.48163 0.45877-0.40875 1.1291-0.49953 1.5214-0.20605 0.34405 0.25739 0.34079 0.26467-0.12108 0.27008-1.1082 0.013-2.0865 0.90254-2.0882 1.8987-7.078e-4 0.62356 0.91452 1.4291 1.6242 1.4291 0.64817 0 1.7876-0.66925 2.0895-1.2273 0.1722-0.31822 0.13039-0.34638-0.51446-0.34638-0.95667 0-1.6719 0.28464-1.544 0.61443 0.06815 0.17567-0.01193 0.25985-0.24722 0.25985-0.42168 0-0.47193-0.55491-0.07947-0.87709 0.14775-0.12128 0.99276-0.28659 1.8778-0.36736 1.6822-0.15352 2.0966-0.32692 2.0966-0.87729 0-0.28728-0.09191-0.31584-0.7044-0.21896-0.76759 0.1214-1.5939-0.25052-1.5939-0.7174 0-0.20039 0.12435-0.17979 0.6038 0.1 0.55576 0.32432 0.65309 0.33198 1.2233 0.0963 0.82249-0.33989 1.0997-0.85322 0.82056-1.5197-0.29054-0.69374-0.65762-0.97899-0.92259-0.71692-0.36531 0.36131-0.5033 0.21393-0.21176-0.22616 0.16715-0.25231 0.23664-0.57593 0.16896-0.78685-0.09757-0.3039-0.2625-0.35827-1.087-0.35827-1.2564 0-1.656 0.21447-1.656 0.88887 0 0.42875 0.10699 0.57141 0.57457 0.76611l0.57457 0.23926-0.4933 0.12274c-0.57568 0.14323-1.0921-0.22349-1.263-0.89688-0.24753-0.97543 0.75585-1.6447 2.4658-1.6447 0.81122 0 1.063-0.0761 1.42-0.42919 0.53342-0.52758 0.54267-0.78577 0.05035-1.4048-0.40752-0.51241-0.61301-0.52281-3.0209-0.1529-1.2094 0.18578-1.9112-0.68285-1.3658-1.6906 0.22665-0.41887 1.459-0.75674 2.235-0.61275 0.91841 0.17041 0.69543 0.44345-0.36215 0.44345-1.1447 0-1.8145 0.41424-1.6249 1.005 0.1603 0.49953 0.4803 0.53503 2.0968 0.23262 1.1612-0.21724 1.3908-0.31752 1.4736-0.64378 0.14239-0.5611-0.20032-1.0683-0.99161-1.4676-0.76479-0.3859-1.4981-0.44352-2.2147-0.17404-0.35838 0.13476-0.45196 0.12448-0.39762-0.0437 0.03903-0.12098 0.4449-0.34439 0.90182-0.49648 0.79332-0.26406 0.81606-0.28966 0.50479-0.56828-0.80505-0.72057-2.4859-0.0506-2.2458 0.89517 0.1006 0.39634 0.080987 0.42102-0.17053 0.21459-0.19651-0.16131-0.25058-0.38448-0.1753-0.7235 0.093625-0.42144 0.045094-0.50608-0.34572-0.60309-0.25003-0.0621-0.66124-0.0615-0.91381 1e-3 -0.37224 0.0924-0.43993 0.19-0.35738 0.51525 0.059754 0.23572-0.010111 0.53916-0.16872 0.73553-0.25985 0.32107-0.26602 0.31815-0.15629-0.074 0.26785-0.95737-1.4397-1.6866-2.2504-0.96106-0.31127 0.27861-0.28853 0.30422 0.50479 0.56828 1.1624 0.38691 1.2133 0.70794 0.075628 0.47745-0.73834-0.14959-0.99297-0.12565-1.6152 0.15185-0.87633 0.39084-1.3112 0.96728-1.1648 1.5441 0.091704 0.36126 0.27738 0.44299 1.478 0.65058 1.4737 0.25479 1.8298 0.24197 2.0334-0.0733 0.19886-0.30787 0.165-0.43402-0.21828-0.81309-0.26786-0.26493-0.5893-0.34971-1.3259-0.34971-1.0736 0-1.3075-0.27168-0.38173-0.44346 0.776-0.14398 2.0084 0.19389 2.235 0.61276 0.54531 1.0078-0.15645 1.8764-1.3658 1.6906-2.4079-0.3699-2.6134-0.3595-3.0209 0.1529-0.49232 0.61903-0.48306 0.87723 0.050351 1.4048 0.35699 0.35308 0.6088 0.42919 1.42 0.42919 1.7757 0 2.8 0.76699 2.4031 1.7994-0.24025 0.62499-0.65244 0.8784-1.2051 0.74089l-0.48848-0.12154 0.57457-0.23925c0.46759-0.19471 0.57457-0.33736 0.57457-0.76611 0-0.67448-0.39956-0.88894-1.656-0.88894-0.82454 0-0.98952 0.0544-1.087 0.35827-0.067641 0.21092 0.00202 0.53454 0.16896 0.78685 0.29282 0.442 0.15299 0.5869-0.21507 0.22288-0.26695-0.26402-0.84363 0.21688-1.0003 0.83415-0.15158 0.59735 0.17405 1.1051 0.90154 1.4057 0.57023 0.23564 0.66755 0.22798 1.2233-0.0963 0.47945-0.27978 0.60379-0.30038 0.60379-0.1 0 0.46688-0.82632 0.8388-1.5939 0.7174-0.61252-0.0969-0.70438-0.0683-0.70438 0.21897 0 0.55136 0.41498 0.72382 2.1151 0.87897 1.0689 0.0976 1.7219 0.24168 1.902 0.41982 0.31499 0.31155 0.18762 0.82295-0.20496 0.82295-0.16199 0-0.22595-0.10113-0.16437-0.25986 0.12795-0.32978-0.58731-0.61442-1.544-0.61442-0.64484 0-0.68665 0.0281-0.51445 0.34637 0.302 0.55815 1.4414 1.2274 2.0896 1.2274 0.41785 0 0.74293-0.14995 1.1081-0.51112zm-4.9202-5.5021c0.45504-0.34167 0.60022-1.2503 0.22266-1.3936-0.3882-0.14733-0.60261-5e-3 -0.81203 0.54005-0.16899 0.43961-0.071989 1.1016 0.15992 1.0909 0.066428-3e-3 0.25962-0.10989 0.42945-0.23741zm13.297-0.0836c0.11391-0.35499-0.13182-1.1494-0.4077-1.3181-0.09443-0.0577-0.29827-0.057-0.45289 2e-3 -0.42847 0.16262-0.35393 1.0256 0.11664 1.3502 0.52228 0.36033 0.61888 0.35593 0.74396-0.0338z"
       transform="matrix(4,0,0,4,16,17)"
       inkscape:radius="0.25"
       sodipodi:type="inkscape:offset" />
    <g
       id="Bevel1">
      <path
         fill="#000"
         opacity=".10"
         sodipodi:type="inkscape:offset"
         inkscape:radius="0.5"
         transform="translate(16,17) scale(4)"
         inkscape:original="m6.5949 14.489c0.60587-0.59922 0.64938-1.1076 0.16245-1.8975-0.37091-0.60169-0.95541-0.91363-1.7119-0.91363-0.38184 0-0.41791-0.0407-0.23204-0.26229 0.29822-0.35537 0.68302-0.32884 1.387 0.0956 0.6839 0.41238 1.0881 0.23604 1.0881-0.47472 0-0.44406-0.71067-1.2821-1.0873-1.2821-0.12065 0 0.074617-0.26634 0.43394-0.59186 0.5493-0.49763 0.65332-0.70578 0.65332-1.3074 0-0.98124-0.48721-1.2738-2.3673-1.4215-1.4897-0.11702-1.8757-0.23181-1.8757-0.55782 0-0.12283 0.084323-0.11673 0.24842 0.018 0.15547 0.12762 0.76049 0.1847 1.617 0.15255 1.2642-0.0474 1.3966-0.0886 1.7365-0.53972 0.48381-0.64224 0.50077-1.8101 0.031242-2.1497-0.38072-0.27534-0.29356-0.48546 0.13405-0.32317 0.45758 0.17366 0.70231 1.1677 0.48448 1.9677-0.10338 0.37974-0.30567 0.78704-0.44951 0.90512-0.22514 0.1848-0.18804 0.28261 0.26646 0.70252 0.43004 0.39732 0.52782 0.62891 0.52706 1.2482-4.651e-4 0.42776-0.14247 0.98988-0.32449 1.285-0.31446 0.5098-0.31413 0.53727 0.011931 0.97562 0.4144 0.55716 0.46074 1.4891 0.09221 1.8537-0.218 0.21561-0.23783 0.38043-0.094637 0.7866 0.099591 0.28261 0.13078 0.82511 0.069259 1.2056-0.1001 0.61882-0.065518 0.7126 0.32742 0.88968 0.66556 0.29993 1.0076-0.0591 0.86956-0.91271-0.059451-0.36778-0.026591-0.89992 0.073-1.1825 0.14346-0.40703 0.12332-0.571-0.096962-0.78883-0.38438-0.38017-0.34793-1.257 0.075932-1.8267 0.34539-0.46425 0.34613-0.48851 0.030332-1.0004-0.18201-0.29509-0.32398-0.85721-0.3245-1.285-7.077e-4 -0.61306 0.097771-0.85157 0.50823-1.2308 0.49435-0.45673 0.5001-0.48148 0.19762-0.85094-0.46859-0.57234-0.58528-1.497-0.28009-2.2194 0.14434-0.34167 0.38584-0.62121 0.53664-0.62121 0.36501 0 0.34608 0.10378-0.099287 0.54425-0.44432 0.43945-0.37041 1.362 0.16619 2.0745 0.29792 0.39557 0.47396 0.44655 1.7009 0.4926 0.85651 0.0322 1.4615-0.0249 1.617-0.15255 0.16411-0.1347 0.24843-0.1408 0.24843-0.018 0 0.32601-0.38599 0.4408-1.8757 0.55782-1.8801 0.14769-2.3673 0.44024-2.3673 1.4215 0 0.60161 0.10402 0.80976 0.65332 1.3074 0.35933 0.32552 0.5546 0.59186 0.43394 0.59186-0.41743 0-1.0873 0.84537-1.0873 1.3722 0 0.60571 0.4469 0.85444 0.86533 0.48163 0.45877-0.40875 1.1291-0.49953 1.5214-0.20605 0.34405 0.25739 0.34079 0.26467-0.12108 0.27008-1.1082 0.013-2.0865 0.90254-2.0882 1.8987-7.078e-4 0.62356 0.91452 1.4291 1.6242 1.4291 0.64817 0 1.7876-0.66925 2.0895-1.2273 0.1722-0.31822 0.13039-0.34638-0.51446-0.34638-0.95667 0-1.6719 0.28464-1.544 0.61443 0.06815 0.17567-0.01193 0.25985-0.24722 0.25985-0.42168 0-0.47193-0.55491-0.07947-0.87709 0.14775-0.12128 0.99276-0.28659 1.8778-0.36736 1.6822-0.15352 2.0966-0.32692 2.0966-0.87729 0-0.28728-0.09191-0.31584-0.7044-0.21896-0.76759 0.1214-1.5939-0.25052-1.5939-0.7174 0-0.20039 0.12435-0.17979 0.6038 0.1 0.55576 0.32432 0.65309 0.33198 1.2233 0.0963 0.82249-0.33989 1.0997-0.85322 0.82056-1.5197-0.29054-0.69374-0.65762-0.97899-0.92259-0.71692-0.36531 0.36131-0.5033 0.21393-0.21176-0.22616 0.16715-0.25231 0.23664-0.57593 0.16896-0.78685-0.09757-0.3039-0.2625-0.35827-1.087-0.35827-1.2564 0-1.656 0.21447-1.656 0.88887 0 0.42875 0.10699 0.57141 0.57457 0.76611l0.57457 0.23926-0.4933 0.12274c-0.57568 0.14323-1.0921-0.22349-1.263-0.89688-0.24753-0.97543 0.75585-1.6447 2.4658-1.6447 0.81122 0 1.063-0.0761 1.42-0.42919 0.53342-0.52758 0.54267-0.78577 0.05035-1.4048-0.40752-0.51241-0.61301-0.52281-3.0209-0.1529-1.2094 0.18578-1.9112-0.68285-1.3658-1.6906 0.22665-0.41887 1.459-0.75674 2.235-0.61275 0.91841 0.17041 0.69543 0.44345-0.36215 0.44345-1.1447 0-1.8145 0.41424-1.6249 1.005 0.1603 0.49953 0.4803 0.53503 2.0968 0.23262 1.1612-0.21724 1.3908-0.31752 1.4736-0.64378 0.14239-0.5611-0.20032-1.0683-0.99161-1.4676-0.76479-0.3859-1.4981-0.44352-2.2147-0.17404-0.35838 0.13476-0.45196 0.12448-0.39762-0.0437 0.03903-0.12098 0.4449-0.34439 0.90182-0.49648 0.79332-0.26406 0.81606-0.28966 0.50479-0.56828-0.80505-0.72057-2.4859-0.0506-2.2458 0.89517 0.1006 0.39634 0.080987 0.42102-0.17053 0.21459-0.19651-0.16131-0.25058-0.38448-0.1753-0.7235 0.093625-0.42144 0.045094-0.50608-0.34572-0.60309-0.25003-0.0621-0.66124-0.0615-0.91381 1e-3 -0.37224 0.0924-0.43993 0.19-0.35738 0.51525 0.059754 0.23572-0.010111 0.53916-0.16872 0.73553-0.25985 0.32107-0.26602 0.31815-0.15629-0.074 0.26785-0.95737-1.4397-1.6866-2.2504-0.96106-0.31127 0.27861-0.28853 0.30422 0.50479 0.56828 1.1624 0.38691 1.2133 0.70794 0.075628 0.47745-0.73834-0.14959-0.99297-0.12565-1.6152 0.15185-0.87633 0.39084-1.3112 0.96728-1.1648 1.5441 0.091704 0.36126 0.27738 0.44299 1.478 0.65058 1.4737 0.25479 1.8298 0.24197 2.0334-0.0733 0.19886-0.30787 0.165-0.43402-0.21828-0.81309-0.26786-0.26493-0.5893-0.34971-1.3259-0.34971-1.0736 0-1.3075-0.27168-0.38173-0.44346 0.776-0.14398 2.0084 0.19389 2.235 0.61276 0.54531 1.0078-0.15645 1.8764-1.3658 1.6906-2.4079-0.3699-2.6134-0.3595-3.0209 0.1529-0.49232 0.61903-0.48306 0.87723 0.050351 1.4048 0.35699 0.35308 0.6088 0.42919 1.42 0.42919 1.7757 0 2.8 0.76699 2.4031 1.7994-0.24025 0.62499-0.65244 0.8784-1.2051 0.74089l-0.48848-0.12154 0.57457-0.23925c0.46759-0.19471 0.57457-0.33736 0.57457-0.76611 0-0.67448-0.39956-0.88894-1.656-0.88894-0.82454 0-0.98952 0.0544-1.087 0.35827-0.067641 0.21092 0.00202 0.53454 0.16896 0.78685 0.29282 0.442 0.15299 0.5869-0.21507 0.22288-0.26695-0.26402-0.84363 0.21688-1.0003 0.83415-0.15158 0.59735 0.17405 1.1051 0.90154 1.4057 0.57023 0.23564 0.66755 0.22798 1.2233-0.0963 0.47945-0.27978 0.60379-0.30038 0.60379-0.1 0 0.46688-0.82632 0.8388-1.5939 0.7174-0.61252-0.0969-0.70438-0.0683-0.70438 0.21897 0 0.55136 0.41498 0.72382 2.1151 0.87897 1.0689 0.0976 1.7219 0.24168 1.902 0.41982 0.31499 0.31155 0.18762 0.82295-0.20496 0.82295-0.16199 0-0.22595-0.10113-0.16437-0.25986 0.12795-0.32978-0.58731-0.61442-1.544-0.61442-0.64484 0-0.68665 0.0281-0.51445 0.34637 0.302 0.55815 1.4414 1.2274 2.0896 1.2274 0.41785 0 0.74293-0.14995 1.1081-0.51112zm-4.9202-5.5021c0.45504-0.34167 0.60022-1.2503 0.22266-1.3936-0.3882-0.14733-0.60261-5e-3 -0.81203 0.54005-0.16899 0.43961-0.071989 1.1016 0.15992 1.0909 0.066428-3e-3 0.25962-0.10989 0.42945-0.23741zm13.297-0.0836c0.11391-0.35499-0.13182-1.1494-0.4077-1.3181-0.09443-0.0577-0.29827-0.057-0.45289 2e-3 -0.42847 0.16262-0.35393 1.0256 0.11664 1.3502 0.52228 0.36033 0.61888 0.35593 0.74396-0.0338z"
         id="path106" />
    </g>
    <g
       id="Bevel2">
      <path
         fill="#000"
         opacity=".05"
         sodipodi:type="inkscape:offset"
         inkscape:radius="0.75"
         transform="translate(16,17) scale(4)"
         inkscape:original="m6.5949 14.489c0.60587-0.59922 0.64938-1.1076 0.16245-1.8975-0.37091-0.60169-0.95541-0.91363-1.7119-0.91363-0.38184 0-0.41791-0.0407-0.23204-0.26229 0.29822-0.35537 0.68302-0.32884 1.387 0.0956 0.6839 0.41238 1.0881 0.23604 1.0881-0.47472 0-0.44406-0.71067-1.2821-1.0873-1.2821-0.12065 0 0.074617-0.26634 0.43394-0.59186 0.5493-0.49763 0.65332-0.70578 0.65332-1.3074 0-0.98124-0.48721-1.2738-2.3673-1.4215-1.4897-0.11702-1.8757-0.23181-1.8757-0.55782 0-0.12283 0.084323-0.11673 0.24842 0.018 0.15547 0.12762 0.76049 0.1847 1.617 0.15255 1.2642-0.0474 1.3966-0.0886 1.7365-0.53972 0.48381-0.64224 0.50077-1.8101 0.031242-2.1497-0.38072-0.27534-0.29356-0.48546 0.13405-0.32317 0.45758 0.17366 0.70231 1.1677 0.48448 1.9677-0.10338 0.37974-0.30567 0.78704-0.44951 0.90512-0.22514 0.1848-0.18804 0.28261 0.26646 0.70252 0.43004 0.39732 0.52782 0.62891 0.52706 1.2482-4.651e-4 0.42776-0.14247 0.98988-0.32449 1.285-0.31446 0.5098-0.31413 0.53727 0.011931 0.97562 0.4144 0.55716 0.46074 1.4891 0.09221 1.8537-0.218 0.21561-0.23783 0.38043-0.094637 0.7866 0.099591 0.28261 0.13078 0.82511 0.069259 1.2056-0.1001 0.61882-0.065518 0.7126 0.32742 0.88968 0.66556 0.29993 1.0076-0.0591 0.86956-0.91271-0.059451-0.36778-0.026591-0.89992 0.073-1.1825 0.14346-0.40703 0.12332-0.571-0.096962-0.78883-0.38438-0.38017-0.34793-1.257 0.075932-1.8267 0.34539-0.46425 0.34613-0.48851 0.030332-1.0004-0.18201-0.29509-0.32398-0.85721-0.3245-1.285-7.077e-4 -0.61306 0.097771-0.85157 0.50823-1.2308 0.49435-0.45673 0.5001-0.48148 0.19762-0.85094-0.46859-0.57234-0.58528-1.497-0.28009-2.2194 0.14434-0.34167 0.38584-0.62121 0.53664-0.62121 0.36501 0 0.34608 0.10378-0.099287 0.54425-0.44432 0.43945-0.37041 1.362 0.16619 2.0745 0.29792 0.39557 0.47396 0.44655 1.7009 0.4926 0.85651 0.0322 1.4615-0.0249 1.617-0.15255 0.16411-0.1347 0.24843-0.1408 0.24843-0.018 0 0.32601-0.38599 0.4408-1.8757 0.55782-1.8801 0.14769-2.3673 0.44024-2.3673 1.4215 0 0.60161 0.10402 0.80976 0.65332 1.3074 0.35933 0.32552 0.5546 0.59186 0.43394 0.59186-0.41743 0-1.0873 0.84537-1.0873 1.3722 0 0.60571 0.4469 0.85444 0.86533 0.48163 0.45877-0.40875 1.1291-0.49953 1.5214-0.20605 0.34405 0.25739 0.34079 0.26467-0.12108 0.27008-1.1082 0.013-2.0865 0.90254-2.0882 1.8987-7.078e-4 0.62356 0.91452 1.4291 1.6242 1.4291 0.64817 0 1.7876-0.66925 2.0895-1.2273 0.1722-0.31822 0.13039-0.34638-0.51446-0.34638-0.95667 0-1.6719 0.28464-1.544 0.61443 0.06815 0.17567-0.01193 0.25985-0.24722 0.25985-0.42168 0-0.47193-0.55491-0.07947-0.87709 0.14775-0.12128 0.99276-0.28659 1.8778-0.36736 1.6822-0.15352 2.0966-0.32692 2.0966-0.87729 0-0.28728-0.09191-0.31584-0.7044-0.21896-0.76759 0.1214-1.5939-0.25052-1.5939-0.7174 0-0.20039 0.12435-0.17979 0.6038 0.1 0.55576 0.32432 0.65309 0.33198 1.2233 0.0963 0.82249-0.33989 1.0997-0.85322 0.82056-1.5197-0.29054-0.69374-0.65762-0.97899-0.92259-0.71692-0.36531 0.36131-0.5033 0.21393-0.21176-0.22616 0.16715-0.25231 0.23664-0.57593 0.16896-0.78685-0.09757-0.3039-0.2625-0.35827-1.087-0.35827-1.2564 0-1.656 0.21447-1.656 0.88887 0 0.42875 0.10699 0.57141 0.57457 0.76611l0.57457 0.23926-0.4933 0.12274c-0.57568 0.14323-1.0921-0.22349-1.263-0.89688-0.24753-0.97543 0.75585-1.6447 2.4658-1.6447 0.81122 0 1.063-0.0761 1.42-0.42919 0.53342-0.52758 0.54267-0.78577 0.05035-1.4048-0.40752-0.51241-0.61301-0.52281-3.0209-0.1529-1.2094 0.18578-1.9112-0.68285-1.3658-1.6906 0.22665-0.41887 1.459-0.75674 2.235-0.61275 0.91841 0.17041 0.69543 0.44345-0.36215 0.44345-1.1447 0-1.8145 0.41424-1.6249 1.005 0.1603 0.49953 0.4803 0.53503 2.0968 0.23262 1.1612-0.21724 1.3908-0.31752 1.4736-0.64378 0.14239-0.5611-0.20032-1.0683-0.99161-1.4676-0.76479-0.3859-1.4981-0.44352-2.2147-0.17404-0.35838 0.13476-0.45196 0.12448-0.39762-0.0437 0.03903-0.12098 0.4449-0.34439 0.90182-0.49648 0.79332-0.26406 0.81606-0.28966 0.50479-0.56828-0.80505-0.72057-2.4859-0.0506-2.2458 0.89517 0.1006 0.39634 0.080987 0.42102-0.17053 0.21459-0.19651-0.16131-0.25058-0.38448-0.1753-0.7235 0.093625-0.42144 0.045094-0.50608-0.34572-0.60309-0.25003-0.0621-0.66124-0.0615-0.91381 1e-3 -0.37224 0.0924-0.43993 0.19-0.35738 0.51525 0.059754 0.23572-0.010111 0.53916-0.16872 0.73553-0.25985 0.32107-0.26602 0.31815-0.15629-0.074 0.26785-0.95737-1.4397-1.6866-2.2504-0.96106-0.31127 0.27861-0.28853 0.30422 0.50479 0.56828 1.1624 0.38691 1.2133 0.70794 0.075628 0.47745-0.73834-0.14959-0.99297-0.12565-1.6152 0.15185-0.87633 0.39084-1.3112 0.96728-1.1648 1.5441 0.091704 0.36126 0.27738 0.44299 1.478 0.65058 1.4737 0.25479 1.8298 0.24197 2.0334-0.0733 0.19886-0.30787 0.165-0.43402-0.21828-0.81309-0.26786-0.26493-0.5893-0.34971-1.3259-0.34971-1.0736 0-1.3075-0.27168-0.38173-0.44346 0.776-0.14398 2.0084 0.19389 2.235 0.61276 0.54531 1.0078-0.15645 1.8764-1.3658 1.6906-2.4079-0.3699-2.6134-0.3595-3.0209 0.1529-0.49232 0.61903-0.48306 0.87723 0.050351 1.4048 0.35699 0.35308 0.6088 0.42919 1.42 0.42919 1.7757 0 2.8 0.76699 2.4031 1.7994-0.24025 0.62499-0.65244 0.8784-1.2051 0.74089l-0.48848-0.12154 0.57457-0.23925c0.46759-0.19471 0.57457-0.33736 0.57457-0.76611 0-0.67448-0.39956-0.88894-1.656-0.88894-0.82454 0-0.98952 0.0544-1.087 0.35827-0.067641 0.21092 0.00202 0.53454 0.16896 0.78685 0.29282 0.442 0.15299 0.5869-0.21507 0.22288-0.26695-0.26402-0.84363 0.21688-1.0003 0.83415-0.15158 0.59735 0.17405 1.1051 0.90154 1.4057 0.57023 0.23564 0.66755 0.22798 1.2233-0.0963 0.47945-0.27978 0.60379-0.30038 0.60379-0.1 0 0.46688-0.82632 0.8388-1.5939 0.7174-0.61252-0.0969-0.70438-0.0683-0.70438 0.21897 0 0.55136 0.41498 0.72382 2.1151 0.87897 1.0689 0.0976 1.7219 0.24168 1.902 0.41982 0.31499 0.31155 0.18762 0.82295-0.20496 0.82295-0.16199 0-0.22595-0.10113-0.16437-0.25986 0.12795-0.32978-0.58731-0.61442-1.544-0.61442-0.64484 0-0.68665 0.0281-0.51445 0.34637 0.302 0.55815 1.4414 1.2274 2.0896 1.2274 0.41785 0 0.74293-0.14995 1.1081-0.51112zm-4.9202-5.5021c0.45504-0.34167 0.60022-1.2503 0.22266-1.3936-0.3882-0.14733-0.60261-5e-3 -0.81203 0.54005-0.16899 0.43961-0.071989 1.1016 0.15992 1.0909 0.066428-3e-3 0.25962-0.10989 0.42945-0.23741zm13.297-0.0836c0.11391-0.35499-0.13182-1.1494-0.4077-1.3181-0.09443-0.0577-0.29827-0.057-0.45289 2e-3 -0.42847 0.16262-0.35393 1.0256 0.11664 1.3502 0.52228 0.36033 0.61888 0.35593 0.74396-0.0338z"
         id="path109" />
    </g>
    <path
       d="m6.5949 14.489c0.60587-0.59922 0.64938-1.1076 0.16245-1.8975-0.37091-0.60169-0.95541-0.91363-1.7119-0.91363-0.38184 0-0.41791-0.0407-0.23204-0.26229 0.29822-0.35537 0.68302-0.32884 1.387 0.0956 0.6839 0.41238 1.0881 0.23604 1.0881-0.47472 0-0.44406-0.71067-1.2821-1.0873-1.2821-0.12065 0 0.074617-0.26634 0.43394-0.59186 0.5493-0.49763 0.65332-0.70578 0.65332-1.3074 0-0.98124-0.48721-1.2738-2.3673-1.4215-1.4897-0.11702-1.8757-0.23181-1.8757-0.55782 0-0.12283 0.084323-0.11673 0.24842 0.018 0.15547 0.12762 0.76049 0.1847 1.617 0.15255 1.2642-0.0474 1.3966-0.0886 1.7365-0.53972 0.48381-0.64224 0.50077-1.8101 0.031242-2.1497-0.38072-0.27534-0.29356-0.48546 0.13405-0.32317 0.45758 0.17366 0.70231 1.1677 0.48448 1.9677-0.10338 0.37974-0.30567 0.78704-0.44951 0.90512-0.22514 0.1848-0.18804 0.28261 0.26646 0.70252 0.43004 0.39732 0.52782 0.62891 0.52706 1.2482-4.651e-4 0.42776-0.14247 0.98988-0.32449 1.285-0.31446 0.5098-0.31413 0.53727 0.011931 0.97562 0.4144 0.55716 0.46074 1.4891 0.09221 1.8537-0.218 0.21561-0.23783 0.38043-0.094637 0.7866 0.099591 0.28261 0.13078 0.82511 0.069259 1.2056-0.1001 0.61882-0.065518 0.7126 0.32742 0.88968 0.66556 0.29993 1.0076-0.0591 0.86956-0.91271-0.059451-0.36778-0.026591-0.89992 0.073-1.1825 0.14346-0.40703 0.12332-0.571-0.096962-0.78883-0.38438-0.38017-0.34793-1.257 0.075932-1.8267 0.34539-0.46425 0.34613-0.48851 0.030332-1.0004-0.18201-0.29509-0.32398-0.85721-0.3245-1.285-7.077e-4 -0.61306 0.097771-0.85157 0.50823-1.2308 0.49435-0.45673 0.5001-0.48148 0.19762-0.85094-0.46859-0.57234-0.58528-1.497-0.28009-2.2194 0.14434-0.34167 0.38584-0.62121 0.53664-0.62121 0.36501 0 0.34608 0.10378-0.099287 0.54425-0.44432 0.43945-0.37041 1.362 0.16619 2.0745 0.29792 0.39557 0.47396 0.44655 1.7009 0.4926 0.85651 0.0322 1.4615-0.0249 1.617-0.15255 0.16411-0.1347 0.24843-0.1408 0.24843-0.018 0 0.32601-0.38599 0.4408-1.8757 0.55782-1.8801 0.14769-2.3673 0.44024-2.3673 1.4215 0 0.60161 0.10402 0.80976 0.65332 1.3074 0.35933 0.32552 0.5546 0.59186 0.43394 0.59186-0.41743 0-1.0873 0.84537-1.0873 1.3722 0 0.60571 0.4469 0.85444 0.86533 0.48163 0.45877-0.40875 1.1291-0.49953 1.5214-0.20605 0.34405 0.25739 0.34079 0.26467-0.12108 0.27008-1.1082 0.013-2.0865 0.90254-2.0882 1.8987-7.078e-4 0.62356 0.91452 1.4291 1.6242 1.4291 0.64817 0 1.7876-0.66925 2.0895-1.2273 0.1722-0.31822 0.13039-0.34638-0.51446-0.34638-0.95667 0-1.6719 0.28464-1.544 0.61443 0.06815 0.17567-0.01193 0.25985-0.24722 0.25985-0.42168 0-0.47193-0.55491-0.07947-0.87709 0.14775-0.12128 0.99276-0.28659 1.8778-0.36736 1.6822-0.15352 2.0966-0.32692 2.0966-0.87729 0-0.28728-0.09191-0.31584-0.7044-0.21896-0.76759 0.1214-1.5939-0.25052-1.5939-0.7174 0-0.20039 0.12435-0.17979 0.6038 0.1 0.55576 0.32432 0.65309 0.33198 1.2233 0.0963 0.82249-0.33989 1.0997-0.85322 0.82056-1.5197-0.29054-0.69374-0.65762-0.97899-0.92259-0.71692-0.36531 0.36131-0.5033 0.21393-0.21176-0.22616 0.16715-0.25231 0.23664-0.57593 0.16896-0.78685-0.09757-0.3039-0.2625-0.35827-1.087-0.35827-1.2564 0-1.656 0.21447-1.656 0.88887 0 0.42875 0.10699 0.57141 0.57457 0.76611l0.57457 0.23926-0.4933 0.12274c-0.57568 0.14323-1.0921-0.22349-1.263-0.89688-0.24753-0.97543 0.75585-1.6447 2.4658-1.6447 0.81122 0 1.063-0.0761 1.42-0.42919 0.53342-0.52758 0.54267-0.78577 0.05035-1.4048-0.40752-0.51241-0.61301-0.52281-3.0209-0.1529-1.2094 0.18578-1.9112-0.68285-1.3658-1.6906 0.22665-0.41887 1.459-0.75674 2.235-0.61275 0.91841 0.17041 0.69543 0.44345-0.36215 0.44345-1.1447 0-1.8145 0.41424-1.6249 1.005 0.1603 0.49953 0.4803 0.53503 2.0968 0.23262 1.1612-0.21724 1.3908-0.31752 1.4736-0.64378 0.14239-0.5611-0.20032-1.0683-0.99161-1.4676-0.76479-0.3859-1.4981-0.44352-2.2147-0.17404-0.35838 0.13476-0.45196 0.12448-0.39762-0.0437 0.03903-0.12098 0.4449-0.34439 0.90182-0.49648 0.79332-0.26406 0.81606-0.28966 0.50479-0.56828-0.80505-0.72057-2.4859-0.0506-2.2458 0.89517 0.1006 0.39634 0.080987 0.42102-0.17053 0.21459-0.19651-0.16131-0.25058-0.38448-0.1753-0.7235 0.093625-0.42144 0.045094-0.50608-0.34572-0.60309-0.25003-0.0621-0.66124-0.0615-0.91381 1e-3 -0.37224 0.0924-0.43993 0.19-0.35738 0.51525 0.059754 0.23572-0.010111 0.53916-0.16872 0.73553-0.25985 0.32107-0.26602 0.31815-0.15629-0.074 0.26785-0.95737-1.4397-1.6866-2.2504-0.96106-0.31127 0.27861-0.28853 0.30422 0.50479 0.56828 1.1624 0.38691 1.2133 0.70794 0.075628 0.47745-0.73834-0.14959-0.99297-0.12565-1.6152 0.15185-0.87633 0.39084-1.3112 0.96728-1.1648 1.5441 0.091704 0.36126 0.27738 0.44299 1.478 0.65058 1.4737 0.25479 1.8298 0.24197 2.0334-0.0733 0.19886-0.30787 0.165-0.43402-0.21828-0.81309-0.26786-0.26493-0.5893-0.34971-1.3259-0.34971-1.0736 0-1.3075-0.27168-0.38173-0.44346 0.776-0.14398 2.0084 0.19389 2.235 0.61276 0.54531 1.0078-0.15645 1.8764-1.3658 1.6906-2.4079-0.3699-2.6134-0.3595-3.0209 0.1529-0.49232 0.61903-0.48306 0.87723 0.050351 1.4048 0.35699 0.35308 0.6088 0.42919 1.42 0.42919 1.7757 0 2.8 0.76699 2.4031 1.7994-0.24025 0.62499-0.65244 0.8784-1.2051 0.74089l-0.48848-0.12154 0.57457-0.23925c0.46759-0.19471 0.57457-0.33736 0.57457-0.76611 0-0.67448-0.39956-0.88894-1.656-0.88894-0.82454 0-0.98952 0.0544-1.087 0.35827-0.067641 0.21092 0.00202 0.53454 0.16896 0.78685 0.29282 0.442 0.15299 0.5869-0.21507 0.22288-0.26695-0.26402-0.84363 0.21688-1.0003 0.83415-0.15158 0.59735 0.17405 1.1051 0.90154 1.4057 0.57023 0.23564 0.66755 0.22798 1.2233-0.0963 0.47945-0.27978 0.60379-0.30038 0.60379-0.1 0 0.46688-0.82632 0.8388-1.5939 0.7174-0.61252-0.0969-0.70438-0.0683-0.70438 0.21897 0 0.55136 0.41498 0.72382 2.1151 0.87897 1.0689 0.0976 1.7219 0.24168 1.902 0.41982 0.31499 0.31155 0.18762 0.82295-0.20496 0.82295-0.16199 0-0.22595-0.10113-0.16437-0.25986 0.12795-0.32978-0.58731-0.61442-1.544-0.61442-0.64484 0-0.68665 0.0281-0.51445 0.34637 0.302 0.55815 1.4414 1.2274 2.0896 1.2274 0.41785 0 0.74293-0.14995 1.1081-0.51112zm-4.9202-5.5021c0.45504-0.34167 0.60022-1.2503 0.22266-1.3936-0.3882-0.14733-0.60261-5e-3 -0.81203 0.54005-0.16899 0.43961-0.071989 1.1016 0.15992 1.0909 0.066428-3e-3 0.25962-0.10989 0.42945-0.23741zm13.297-0.0836c0.11391-0.35499-0.13182-1.1494-0.4077-1.3181-0.09443-0.0577-0.29827-0.057-0.45289 2e-3 -0.42847 0.16262-0.35393 1.0256 0.11664 1.3502 0.52228 0.36033 0.61888 0.35593 0.74396-0.0338z"
       fill="url(#a)"
       id="base"
       transform="translate(16,16) scale(4)" />
    <path
       style="opacity:0.3;fill:#000000;stroke-width:4"
       d="M 44.671875 20.197266 C 44.554461 20.487949 44.578656 20.865878 44.716797 21.410156 C 44.734894 21.481548 44.729964 21.562525 44.742188 21.636719 C 44.803442 21.214774 44.81306 20.789899 44.716797 20.410156 C 44.69708 20.332472 44.687175 20.268646 44.671875 20.197266 z M 51.269531 20.208984 C 51.241729 20.388597 51.233324 20.533958 51.183594 20.757812 C 51.047232 21.371909 51.022808 21.887938 51.103516 22.332031 C 51.12516 22.144609 51.137283 21.96637 51.183594 21.757812 C 51.347627 21.019442 51.390944 20.547803 51.269531 20.208984 z M 34.035156 20.568359 C 33.237936 21.363911 33.635982 21.555131 36.433594 22.486328 C 37.770695 22.931388 38.694648 23.345895 39.289062 23.701172 C 40.889898 23.644487 39.898581 22.639665 36.433594 21.486328 C 35.19531 21.07416 34.438495 20.80686 34.035156 20.568359 z M 61.931641 20.568359 C 61.529021 20.807252 60.77224 21.073259 59.53125 21.486328 C 57.70357 22.094688 56.079948 22.988736 55.923828 23.472656 C 55.783792 23.906061 55.930091 24.049809 56.40625 23.972656 C 57.041866 23.499689 58.222693 22.921893 59.53125 22.486328 C 62.327831 21.555474 62.727684 21.363192 61.931641 20.568359 z M 52.533203 22.542969 C 52.457731 22.941618 52.456098 23.358456 52.566406 23.792969 C 52.606768 23.951986 52.618202 24.032439 52.648438 24.162109 C 52.881676 24.195441 52.817906 23.783819 52.566406 22.792969 C 52.544822 22.707947 52.547152 22.626825 52.533203 22.542969 z M 43.470703 22.705078 C 43.452316 22.822455 43.449392 22.937344 43.416016 23.056641 C 43.100067 24.185768 43.032296 24.496372 43.402344 24.109375 C 43.408643 24.086813 43.409511 24.079885 43.416016 24.056641 C 43.546859 23.588969 43.554627 23.136593 43.470703 22.705078 z M 53.25 25.740234 C 52.6468 25.740234 51.680876 26.857929 51.103516 28.224609 C 50.583339 29.455894 50.388016 30.832096 50.458984 32.185547 C 50.512324 31.164572 50.71163 30.152222 51.103516 29.224609 C 51.680876 27.857929 52.6468 26.740234 53.25 26.740234 C 53.528135 26.740234 53.732942 26.762259 53.898438 26.798828 C 54.563608 25.970968 54.328149 25.740234 53.25 25.740234 z M 42.230469 25.908203 C 41.642713 25.919315 41.590448 26.345134 42.140625 26.925781 C 42.395133 26.895688 42.758991 26.948414 43.25 27.134766 C 44.523589 27.618116 45.367851 29.696258 45.480469 31.990234 C 45.607727 29.323531 44.707921 26.688073 43.25 26.134766 C 42.82239 25.972476 42.479889 25.903488 42.230469 25.908203 z M 33.195312 25.935547 C 32.761686 25.950437 32.345031 25.992463 31.957031 26.064453 C 29.520174 26.516621 29.127814 27.135066 30.34375 27.509766 C 30.723201 27.353848 31.223492 27.200564 31.957031 27.064453 C 35.061031 26.488533 39.992037 27.838192 40.898438 29.513672 C 41.3003 30.256362 41.531554 30.98011 41.613281 31.662109 C 41.713642 30.706852 41.504226 29.633244 40.898438 28.513672 C 40.105337 27.047627 36.230698 25.831314 33.195312 25.935547 z M 62.767578 25.935547 C 59.732228 25.831287 55.859681 27.04958 55.066406 28.515625 C 54.459674 29.6367 54.250195 30.709781 54.351562 31.666016 C 54.432934 30.982975 54.663767 30.259593 55.066406 29.515625 C 55.973006 27.840145 60.901859 26.488493 64.005859 27.064453 C 64.744097 27.201432 65.249452 27.355731 65.628906 27.513672 C 66.831452 27.13823 66.431782 26.514581 64.005859 26.064453 C 63.617859 25.992458 63.2012 25.950441 62.767578 25.935547 z M 70.414062 29.710938 C 70.393121 29.878022 70.382893 30.04325 70.339844 30.212891 C 70.008644 31.517931 69.090113 31.920102 64.445312 32.789062 C 57.979312 33.998703 56.699794 33.855542 56.058594 31.857422 C 56.028674 31.764197 56.011501 31.674953 55.992188 31.583984 C 55.895786 31.97835 55.913224 32.404475 56.058594 32.857422 C 56.699794 34.855542 57.979312 34.998703 64.445312 33.789062 C 69.090113 32.920102 70.008644 32.517931 70.339844 31.212891 C 70.470197 30.699223 70.485234 30.199429 70.414062 29.710938 z M 25.542969 29.798828 C 25.478074 30.25512 25.497881 30.717311 25.615234 31.179688 C 25.98205 32.624727 26.724864 32.95089 31.527344 33.78125 C 37.422144 34.80041 38.847709 34.749361 39.662109 33.488281 C 40.107655 32.798499 40.245985 32.334125 40.025391 31.794922 C 39.944797 32.005901 39.829506 32.229122 39.662109 32.488281 C 38.847709 33.749361 37.422144 33.80041 31.527344 32.78125 C 26.724864 31.95089 25.98205 31.624727 25.615234 30.179688 C 25.583082 30.053008 25.561195 29.925376 25.542969 29.798828 z M 51.716797 31.667969 C 51.590057 33.408068 52.201516 35.46737 53.517578 37.214844 C 54.709258 38.797124 55.414506 39.001347 60.322266 39.185547 C 63.748306 39.314347 66.167062 39.084819 66.789062 38.574219 C 67.162618 38.267608 67.430242 38.133387 67.59375 38.160156 C 67.725483 37.967245 67.783203 37.752172 67.783203 37.503906 C 67.783203 37.012706 67.445503 37.035419 66.789062 37.574219 C 66.167062 38.084819 63.748306 38.314347 60.322266 38.185547 C 55.414506 38.001347 54.709258 37.797124 53.517578 36.214844 C 52.447129 34.793496 51.839047 33.163349 51.716797 31.667969 z M 44.046875 31.6875 C 43.953015 33.2288 43.478079 34.848245 42.589844 36.027344 C 41.230244 37.831824 40.701331 37.995947 35.644531 38.185547 C 32.218491 38.314147 29.797661 38.084699 29.175781 37.574219 C 28.519393 37.035299 28.181641 37.012586 28.181641 37.503906 C 28.181641 37.752172 28.239358 37.967245 28.371094 38.160156 C 28.534599 38.133378 28.802255 38.26754 29.175781 38.574219 C 29.797661 39.084699 32.218491 39.314147 35.644531 39.185547 C 40.701331 38.995947 41.230244 38.831824 42.589844 37.027344 C 43.675084 35.586727 44.149978 33.495437 44.046875 31.6875 z M 43.056641 38.957031 C 42.590207 39.521352 42.926051 40.021083 44.457031 41.435547 C 45.985574 42.847789 46.461235 43.743499 46.546875 45.662109 C 46.548999 45.587019 46.564372 45.502934 46.564453 45.429688 C 46.567493 42.952527 46.177191 42.024827 44.457031 40.435547 C 43.742667 39.77555 43.293082 39.318445 43.056641 38.957031 z M 52.882812 38.990234 C 52.659255 39.358288 52.193588 39.8037 51.433594 40.505859 C 49.791758 42.022779 49.397591 42.977447 49.400391 45.429688 C 49.40048 45.503446 49.415809 45.588436 49.417969 45.664062 C 49.50397 43.762089 49.975854 42.85269 51.433594 41.505859 C 52.922449 40.130306 53.301942 39.732746 52.882812 38.990234 z M 21.984375 39.210938 C 21.710003 40.297165 22.224935 41.194553 23.552734 42.507812 C 24.980694 43.920133 25.987622 44.224609 29.232422 44.224609 C 34.968456 44.224609 38.739932 46.226847 39.144531 49.171875 C 39.531912 45.690004 35.595402 43.224609 29.232422 43.224609 C 25.987622 43.224609 24.980694 42.920133 23.552734 41.507812 C 22.647398 40.61239 22.141651 39.910951 21.984375 39.210938 z M 73.978516 39.214844 C 73.820477 39.91394 73.316273 40.613548 72.412109 41.507812 C 70.984109 42.920172 69.975349 43.224609 66.730469 43.224609 C 60.257628 43.224609 56.322973 45.625374 56.757812 49.189453 C 57.114329 46.184465 60.883842 44.224609 66.730469 44.224609 C 69.975349 44.224609 70.984109 43.920172 72.412109 42.507812 C 73.739108 41.195342 74.251747 40.300154 73.978516 39.214844 z M 45.138672 45.962891 C 45.068154 47.954818 44.5594 48.821866 42.541016 50.650391 C 41.103724 51.952471 40.322088 53.017578 40.804688 53.017578 C 40.91713 53.017578 41.038471 53.040873 41.164062 53.076172 C 41.491174 52.675049 41.93994 52.19492 42.541016 51.650391 C 44.738216 49.659871 45.154297 48.826402 45.154297 46.419922 C 45.154297 46.260466 45.145348 46.113399 45.138672 45.962891 z M 50.826172 45.982422 C 50.820064 46.126856 50.810547 46.267284 50.810547 46.419922 C 50.810547 48.826362 51.226628 49.659831 53.423828 51.650391 C 54.021684 52.191994 54.469817 52.668303 54.796875 53.068359 C 54.921629 53.037167 55.043941 53.017578 55.160156 53.017578 C 55.642796 53.017578 54.861148 51.952471 53.423828 50.650391 C 51.41187 48.827651 50.8993 47.960757 50.826172 45.982422 z M 24.404297 46.705078 C 24.253272 47.899372 23.65247 49.23151 22.699219 49.947266 C 22.019899 50.457346 21.246181 50.884484 20.980469 50.896484 C 20.446429 50.921124 20.101685 50.046527 20.025391 48.970703 C 19.894919 50.452632 20.285974 51.928528 20.980469 51.896484 C 21.246181 51.884484 22.019899 51.457346 22.699219 50.947266 C 23.936981 50.017883 24.580648 48.056065 24.404297 46.705078 z M 71.353516 46.9375 C 71.15962 48.23058 71.713451 49.92451 72.910156 50.75 C 74.999276 52.19132 75.386399 52.174154 75.886719 50.615234 L 75.886719 50.613281 C 76.008398 50.234079 76.021296 49.726497 75.962891 49.177734 C 75.944217 49.330216 75.927567 49.485983 75.886719 49.613281 L 75.886719 49.615234 C 75.386399 51.174154 74.999276 51.19132 72.910156 49.75 C 72.005812 49.126182 71.479065 48.006001 71.353516 46.9375 z M 70.316406 47.962891 C 70.228325 48.609999 69.991338 49.304145 69.59375 49.904297 C 68.888601 50.968745 68.818978 51.594081 69.191406 51.611328 C 69.29204 51.401291 69.416966 51.171158 69.59375 50.904297 C 70.211131 49.97237 70.48962 48.801728 70.316406 47.962891 z M 25.648438 47.964844 C 25.476747 48.803479 25.755251 49.971543 26.371094 50.902344 C 26.547655 51.168856 26.672725 51.39782 26.773438 51.607422 C 27.144722 51.589711 27.076445 50.967043 26.371094 49.902344 C 25.974584 49.303049 25.737031 48.611181 25.648438 47.964844 z M 36.636719 49.521484 C 36.518505 50.75066 35.981942 51.27177 34.369141 51.943359 L 32.070312 52.900391 L 33.576172 53.273438 L 34.369141 52.943359 C 36.239501 52.164519 36.667969 51.593906 36.667969 49.878906 C 36.667969 49.748968 36.644338 49.642996 36.636719 49.521484 z M 59.326172 49.525391 C 59.318723 49.645627 59.296875 49.75043 59.296875 49.878906 C 59.296875 51.593906 59.725383 52.164559 61.595703 52.943359 L 62.390625 53.275391 L 63.892578 52.900391 L 61.595703 51.943359 C 59.984626 51.272508 59.445153 50.751795 59.326172 49.525391 z M 51.523438 53.099609 C 51.374986 53.480616 51.067428 53.912625 50.578125 54.570312 C 49.566957 55.929392 49.120642 57.720503 49.240234 59.271484 C 49.337028 57.988584 49.779254 56.644051 50.578125 55.570312 C 51.497908 54.334002 51.792553 53.870685 51.523438 53.099609 z M 44.439453 53.101562 C 44.170536 53.861374 44.44916 54.307417 45.314453 55.470703 C 46.11339 56.544872 46.562306 57.967674 46.65625 59.316406 C 46.770776 57.706665 46.315852 55.817082 45.314453 54.470703 C 44.864758 53.86614 44.581151 53.461803 44.439453 53.101562 z M 21.40625 55.791016 C 21.179182 57.891384 22.478446 59.664381 25.115234 60.753906 C 27.396154 61.696466 27.786766 61.666261 30.009766 60.369141 C 31.444439 59.531946 32.08317 59.274012 32.314453 59.533203 C 32.381215 59.349987 32.423828 59.16185 32.423828 58.96875 C 32.423828 58.16723 31.927566 58.250021 30.009766 59.369141 C 27.786766 60.666261 27.396154 60.696466 25.115234 59.753906 C 22.908186 58.841951 21.632471 57.451117 21.40625 55.791016 z M 74.501953 56.132812 C 74.260829 57.63216 73.04133 58.849334 70.847656 59.755859 C 68.566816 60.698579 68.178118 60.668374 65.955078 59.371094 C 64.037278 58.251934 63.539062 58.169143 63.539062 58.970703 C 63.539062 59.163936 63.58354 59.351822 63.650391 59.535156 C 63.882609 59.277988 64.52267 59.535191 65.955078 60.371094 C 68.178118 61.668374 68.566816 61.698579 70.847656 60.755859 C 73.507541 59.656675 74.716841 58.096057 74.501953 56.132812 z M 37.419922 58.683594 C 36.534022 58.622529 35.850346 58.951369 35.253906 59.662109 C 34.708601 60.31221 34.646686 60.571186 35.251953 60.664062 C 35.252719 60.663149 35.253139 60.663025 35.253906 60.662109 C 36.446786 59.240629 37.984861 59.347162 40.800781 61.044922 C 43.536381 62.694442 45.154297 61.989524 45.154297 59.146484 C 45.154297 59.02009 45.136657 58.882766 45.109375 58.742188 C 44.881839 61.060186 43.325283 61.567153 40.800781 60.044922 C 39.392821 59.196042 38.305822 58.744659 37.419922 58.683594 z M 58.226562 58.921875 C 56.896628 58.885357 55.420362 59.411719 54.273438 60.433594 C 52.726229 61.812115 51.099145 61.048239 50.859375 59.013672 C 50.831028 59.183306 50.810547 59.348497 50.810547 59.505859 C 50.810547 61.928699 52.599717 62.924834 54.273438 61.433594 C 56.108517 59.798594 58.788222 59.435455 60.357422 60.609375 C 60.39336 60.636261 60.403465 60.646336 60.4375 60.671875 C 61.616187 60.635849 61.548466 60.500416 60.357422 59.609375 C 59.768972 59.169155 59.024523 58.943786 58.226562 58.921875 z M 23.285156 63.199219 C 23.25098 63.342494 23.230469 63.507046 23.230469 63.714844 C 23.230469 65.920284 24.890926 66.609869 31.691406 67.230469 C 35.967006 67.620869 38.578428 68.195643 39.298828 68.908203 C 39.642967 69.248583 39.844885 69.649098 39.939453 70.050781 C 40.119451 69.378203 39.938673 68.54106 39.298828 67.908203 C 38.578428 67.195643 35.967006 66.620869 31.691406 66.230469 C 25.434233 65.65945 23.549638 65.014133 23.285156 63.199219 z M 72.677734 63.201172 C 72.412874 65.011926 70.534629 65.659799 64.345703 66.224609 C 60.805543 66.547689 57.426938 67.208239 56.835938 67.693359 C 55.935301 68.432714 55.634451 69.469327 55.845703 70.226562 C 55.978059 69.690855 56.295569 69.136961 56.835938 68.693359 C 57.426938 68.208239 60.805543 67.547689 64.345703 67.224609 C 71.074503 66.610529 72.732422 65.916324 72.732422 63.714844 C 72.732422 63.506909 72.711969 63.344494 72.677734 63.201172 z M 44.998047 63.96875 C 44.869533 64.48669 44.975378 65.099111 45.304688 66.033203 C 45.535497 66.688173 45.661254 67.692112 45.689453 68.716797 C 45.751397 67.384416 45.611331 65.903367 45.304688 65.033203 C 45.160161 64.62325 45.057278 64.274543 44.998047 63.96875 z M 50.966797 63.970703 C 50.907606 64.276236 50.806535 64.623433 50.662109 65.033203 C 50.352488 65.911724 50.210573 67.386157 50.271484 68.693359 C 50.302351 67.685744 50.430282 66.690992 50.662109 66.033203 C 50.991288 65.099245 51.09589 64.488994 50.966797 63.970703 z M 44.324219 68.585938 C 44.184512 69.735447 43.543706 70.803063 42.378906 71.955078 C 40.918226 73.399758 39.618666 73.998047 37.947266 73.998047 C 35.354466 73.998047 30.795891 71.322444 29.587891 69.089844 C 29.546103 69.012609 29.519514 68.951737 29.484375 68.882812 C 29.110557 69.058245 29.215529 69.401623 29.587891 70.089844 C 30.795891 72.322444 35.354466 74.998047 37.947266 74.998047 C 39.618666 74.998047 40.918226 74.399758 42.378906 72.955078 C 43.873284 71.477102 44.510497 70.136805 44.324219 68.585938 z M 51.556641 68.697266 C 51.537594 68.891926 51.521821 69.086082 51.521484 69.283203 C 51.518684 71.777443 55.178858 75 58.017578 75 C 60.610258 75 65.1674 72.323997 66.375 70.091797 C 66.746884 69.404567 66.852544 69.060459 66.480469 68.884766 C 66.445275 68.9538 66.41687 69.014423 66.375 69.091797 C 65.1674 71.323997 60.610258 74 58.017578 74 C 55.332995 74 51.917743 71.119817 51.556641 68.697266 z M 37.763672 70.4375 C 37.728452 70.659639 37.753113 70.847763 37.865234 70.976562 C 37.893633 70.791209 37.860821 70.610899 37.763672 70.4375 z M 58.197266 70.441406 C 58.105419 70.606266 58.072466 70.777364 58.09375 70.953125 C 58.213486 70.832559 58.230075 70.652245 58.197266 70.441406 z M 50.453125 71.595703 C 50.283703 73.635767 49.003687 74.366299 46.890625 73.414062 C 45.975963 73.001864 45.557621 72.691464 45.4375 72.025391 C 45.311677 73.433205 45.625338 73.843853 46.890625 74.414062 C 49.319306 75.508531 50.65386 74.389311 50.453125 71.595703 z "
       transform="translate(0,2)"
       id="path113" />
    <path
       style="fill:#ffffff;stroke-width:4"
       d="M 57.845703 18.003906 C 54.974641 18.109396 52.120438 20.061597 52.533203 22.542969 C 53.114825 19.470781 58.700443 17.66166 61.550781 20.212891 C 61.698584 20.34519 61.824414 20.461296 61.931641 20.568359 C 62.558541 20.196391 62.308942 19.891526 61.550781 19.212891 C 60.544469 18.312178 59.194834 17.954336 57.845703 18.003906 z M 38.154297 18.046875 C 36.790874 17.966996 35.427437 18.305966 34.414062 19.212891 C 33.65484 19.892452 33.404881 20.195668 34.035156 20.568359 C 34.142208 20.461531 34.266664 20.344823 34.414062 20.212891 C 37.260839 17.665154 42.867426 19.603181 43.470703 22.705078 C 43.858109 20.23205 41.017911 18.214646 38.154297 18.046875 z M 47.976562 18.160156 C 47.314053 18.160956 46.649671 18.224609 46.144531 18.349609 C 44.744478 18.69714 44.430943 19.073219 44.671875 20.197266 C 44.835118 19.793122 45.278483 19.564586 46.144531 19.349609 C 47.154811 19.099609 48.800661 19.097303 49.800781 19.345703 C 50.679324 19.56378 51.113748 19.774253 51.269531 20.208984 C 51.451097 19.036002 51.15645 18.682215 49.800781 18.345703 C 49.300721 18.221503 48.639072 18.159356 47.976562 18.160156 z M 44.742188 21.636719 C 44.65135 22.262439 44.419936 22.884386 44.041016 23.353516 C 43.749809 23.71333 43.546371 23.95875 43.402344 24.109375 C 42.983584 25.609327 43.017018 25.618764 44.041016 24.353516 C 44.627418 23.627509 44.891404 22.542417 44.742188 21.636719 z M 51.103516 22.332031 C 50.984425 23.363261 51.219614 24.106338 51.884766 24.652344 C 52.789922 25.395241 52.919645 25.325225 52.648438 24.162109 C 52.508494 24.14211 52.262041 23.961989 51.884766 23.652344 C 51.454682 23.299299 51.201031 22.868607 51.103516 22.332031 z M 60.769531 22.986328 C 59.672717 23.022312 58.588572 23.242264 57.513672 23.646484 C 57.003708 23.838244 56.669173 23.930054 56.40625 23.972656 C 56.154092 24.160289 55.968171 24.335207 55.923828 24.472656 C 55.706468 25.145376 56.080152 25.185524 57.513672 24.646484 C 60.380072 23.568564 63.313887 23.80015 66.373047 25.34375 C 68.813808 26.575405 70.174261 28.065031 70.414062 29.710938 C 70.670188 27.667448 69.298971 25.820227 66.373047 24.34375 C 64.461072 23.379 62.597555 22.926355 60.769531 22.986328 z M 34.050781 23.03125 C 32.812599 23.010779 31.830966 23.310156 30.275391 24.003906 C 26.962527 25.481431 25.229223 27.620496 25.542969 29.798828 C 25.801902 27.978203 27.472533 26.253971 30.275391 25.003906 C 32.764311 23.893906 33.782968 23.798124 36.736328 24.396484 C 39.978359 25.053313 40.76165 24.581325 39.289062 23.701172 C 38.741768 23.720551 37.89574 23.631379 36.736328 23.396484 C 35.628818 23.172099 34.793691 23.043532 34.050781 23.03125 z M 53.898438 26.798828 C 53.662828 27.092064 53.31948 27.455175 52.853516 27.916016 C 51.962598 28.797168 51.593919 30.164904 51.716797 31.667969 C 51.79676 30.570095 52.165972 29.596023 52.853516 28.916016 C 54.295618 27.48977 54.601695 26.954226 53.898438 26.798828 z M 42.140625 26.925781 C 41.508549 27.000519 41.62913 27.642537 42.714844 28.427734 C 43.539752 29.024373 43.966121 30.271457 44.046875 31.6875 C 44.157512 29.870695 43.730942 28.162657 42.714844 27.427734 C 42.469844 27.250548 42.290869 27.084346 42.140625 26.925781 z M 30.34375 27.509766 C 28.807643 28.140958 30.040649 28.837891 33.484375 28.837891 C 36.430775 28.837891 37.717622 29.176608 38.789062 30.236328 C 39.463444 30.903302 39.852154 31.371477 40.025391 31.794922 C 40.327765 31.003362 39.999545 30.433514 38.789062 29.236328 C 37.717622 28.176608 36.430775 27.837891 33.484375 27.837891 C 32.015957 27.837891 30.975567 27.704465 30.34375 27.509766 z M 65.628906 27.513672 C 65.010405 27.706771 63.993429 27.837891 62.556641 27.837891 C 58.158479 27.837891 55.521941 29.369104 55.992188 31.583984 C 56.398715 29.920929 58.855504 28.837891 62.556641 28.837891 C 65.936855 28.837891 67.1377 28.141681 65.628906 27.513672 z M 41.613281 31.662109 C 41.352276 34.14641 38.929472 35.814137 35.435547 35.277344 C 25.803947 33.797744 24.981562 33.839072 23.351562 35.888672 C 22.217877 37.314138 21.770992 38.2612 21.984375 39.210938 C 22.150892 38.551703 22.607796 37.823865 23.351562 36.888672 C 24.981562 34.839072 25.803947 34.797744 35.435547 36.277344 C 39.381726 36.88362 41.975157 34.681888 41.613281 31.662109 z M 54.351562 31.666016 C 53.992044 34.683855 56.584532 36.883312 60.529297 36.277344 C 70.160857 34.797704 70.983201 34.839032 72.613281 36.888672 C 73.357808 37.82482 73.812419 38.555084 73.978516 39.214844 C 74.193422 38.264185 73.748064 37.315517 72.613281 35.888672 C 70.983201 33.839032 70.160857 33.797704 60.529297 35.277344 C 57.037099 35.813792 54.614677 34.148071 54.351562 31.666016 z M 45.480469 31.990234 C 45.447963 32.671394 45.366733 33.354784 45.189453 34.005859 C 44.775933 35.524819 43.965985 37.154633 43.390625 37.626953 C 42.843931 38.075692 42.691358 38.398675 43.056641 38.957031 C 43.144085 38.851235 43.248448 38.743656 43.390625 38.626953 C 43.965985 38.154633 44.775933 36.524819 45.189453 35.005859 C 45.454484 34.032512 45.529698 32.993012 45.480469 31.990234 z M 50.458984 32.185547 C 50.346166 34.345002 50.951952 36.547128 52.224609 38.101562 C 52.523537 38.466684 52.745282 38.746591 52.882812 38.990234 C 53.240921 38.400664 52.969508 38.011409 52.224609 37.101562 C 51.148931 35.78772 50.554566 34.008397 50.458984 32.185547 z M 28.371094 38.160156 C 28.247275 38.180435 28.181641 38.292178 28.181641 38.503906 C 28.181641 39.807946 29.726747 40.266295 35.685547 40.734375 C 42.900384 41.301173 44.981021 42.408676 45.138672 45.962891 C 45.144919 45.786419 45.154297 45.615769 45.154297 45.419922 C 45.154297 41.494962 43.205907 40.325175 35.685547 39.734375 C 30.861195 39.355409 28.931311 38.980531 28.371094 38.160156 z M 67.59375 38.160156 C 67.033541 38.980531 65.105634 39.355409 60.28125 39.734375 C 52.76085 40.325135 50.810547 41.494882 50.810547 45.419922 C 50.810547 45.622805 50.819439 45.800275 50.826172 45.982422 C 50.977114 42.412788 53.053306 41.302161 60.28125 40.734375 C 66.24009 40.266295 67.783203 39.807946 67.783203 38.503906 C 67.783203 38.29223 67.71757 38.180428 67.59375 38.160156 z M 22.544922 44.15625 C 21.609357 44.169949 20.970057 44.898053 20.341797 46.533203 C 20.055932 47.276851 19.970341 48.17186 20.025391 48.962891 C 20.069578 48.468032 20.172807 47.972813 20.341797 47.533203 C 21.179477 45.353003 22.037044 44.783727 23.589844 45.373047 C 24.073076 45.556454 24.321319 46.069406 24.404297 46.705078 C 24.541642 45.61896 24.309143 44.646052 23.589844 44.373047 C 23.201644 44.225717 22.856777 44.151684 22.544922 44.15625 z M 73.441406 44.169922 C 73.113041 44.171272 72.754553 44.231609 72.445312 44.349609 C 71.554868 44.687565 71.217749 45.782049 71.353516 46.9375 C 71.464595 46.196714 71.821074 45.586531 72.445312 45.349609 C 73.063792 45.113609 73.878139 45.109044 74.255859 45.339844 C 75.064683 45.834438 75.80259 47.6716 75.962891 49.177734 C 76.152518 47.629348 75.26045 44.954148 74.255859 44.339844 C 74.066999 44.224444 73.769771 44.168572 73.441406 44.169922 z M 30.042969 45.322266 C 26.744809 45.322266 26.085233 45.540379 25.695312 46.755859 C 25.585412 47.098555 25.587835 47.522719 25.648438 47.964844 C 25.662906 47.894172 25.674284 47.821431 25.695312 47.755859 C 26.085233 46.540379 26.744809 46.322266 30.042969 46.322266 C 34.826676 46.322266 36.486144 47.120043 36.636719 49.521484 C 36.655597 49.32519 36.667969 49.115071 36.667969 48.878906 C 36.667969 46.180986 35.068729 45.322266 30.042969 45.322266 z M 65.919922 45.324219 C 60.894322 45.324219 59.296875 46.181306 59.296875 48.878906 C 59.296875 49.11662 59.307026 49.328047 59.326172 49.525391 C 59.475123 47.121038 61.133672 46.324219 65.919922 46.324219 C 69.217922 46.324219 69.879251 46.540259 70.269531 47.755859 C 70.29027 47.82049 70.302036 47.8933 70.316406 47.962891 C 70.376446 47.521796 70.379266 47.097839 70.269531 46.755859 C 69.879251 45.540259 69.217922 45.324219 65.919922 45.324219 z M 46.546875 45.662109 C 46.499377 47.341131 45.96449 49.438414 45.267578 50.568359 C 44.443435 51.904454 44.170188 52.417006 44.439453 53.101562 C 44.57587 52.716124 44.844247 52.25466 45.267578 51.568359 C 45.995658 50.387879 46.562553 48.140727 46.564453 46.429688 C 46.564792 46.153744 46.557611 45.902626 46.546875 45.662109 z M 49.417969 45.664062 C 49.407108 45.904261 49.400077 46.154722 49.400391 46.429688 C 49.402471 48.140847 49.971179 50.389952 50.699219 51.570312 C 51.121432 52.254695 51.388328 52.712491 51.523438 53.099609 C 51.794143 52.404833 51.51503 51.892695 50.699219 50.570312 C 50.00256 49.440831 49.465912 47.342935 49.417969 45.664062 z M 39.144531 49.171875 C 39.099491 49.57671 39.011066 49.991736 38.845703 50.421875 C 37.884703 52.921835 36.236031 53.934806 34.025391 53.384766 L 33.576172 53.273438 L 32.070312 53.900391 L 34.025391 54.384766 C 36.236031 54.934806 37.884703 53.921835 38.845703 51.421875 C 39.151199 50.627223 39.240938 49.873608 39.144531 49.171875 z M 56.757812 49.189453 C 56.697251 49.699914 56.723417 50.238138 56.867188 50.804688 C 57.550787 53.498247 59.617202 54.965498 61.919922 54.392578 L 63.892578 53.900391 L 62.390625 53.275391 L 61.919922 53.392578 C 59.617202 53.965498 57.550787 52.498247 56.867188 49.804688 C 56.814067 49.595358 56.782464 49.391508 56.757812 49.189453 z M 71.300781 50.423828 C 70.995922 50.420915 70.704423 50.546524 70.439453 50.808594 C 69.86179 51.379931 69.434892 51.622604 69.191406 51.611328 C 68.628208 52.786811 69.199729 53.034743 70.439453 51.808594 C 71.499333 50.760314 72.968699 51.900821 74.130859 54.675781 C 74.344697 55.186344 74.45105 55.667758 74.501953 56.132812 C 74.622455 55.383515 74.502921 54.564124 74.130859 53.675781 C 73.259239 51.594561 72.215359 50.432567 71.300781 50.423828 z M 24.798828 50.498047 C 23.637136 50.478322 22.018943 52.124732 21.509766 54.130859 C 21.363307 54.708028 21.334202 55.262298 21.40625 55.791016 C 21.429774 55.573417 21.452847 55.355164 21.509766 55.130859 C 22.136446 52.661779 24.441966 50.738842 25.509766 51.794922 C 26.760077 53.031509 27.340836 52.788283 26.773438 51.607422 C 26.528181 51.619121 26.095415 51.374142 25.509766 50.794922 C 25.309553 50.596907 25.066911 50.502599 24.798828 50.498047 z M 54.796875 53.068359 C 53.12922 53.485325 50.810547 56.545212 50.810547 58.505859 C 50.810547 58.688995 50.83977 58.84731 50.859375 59.013672 C 51.210632 56.911653 53.615121 54.017578 55.160156 54.017578 C 55.442041 54.017578 55.256104 53.630087 54.796875 53.068359 z M 41.164062 53.076172 C 40.708984 53.634214 40.523911 54.017578 40.804688 54.017578 C 42.204006 54.017578 44.753255 56.907199 45.109375 58.742188 C 45.128402 58.548357 45.154297 58.365874 45.154297 58.146484 C 45.154297 56.502818 42.721166 53.513812 41.164062 53.076172 z M 49.240234 59.271484 C 49.131602 60.711289 49.460375 62.072796 50.273438 62.876953 C 50.649113 63.248447 50.870849 63.585485 50.966797 63.970703 C 51.142785 63.062276 50.932801 62.528977 50.273438 61.876953 C 49.652897 61.263209 49.321165 60.321069 49.240234 59.271484 z M 46.65625 59.316406 C 46.581203 60.371244 46.26716 61.309376 45.683594 61.886719 C 45.031624 62.53154 44.82254 63.062658 44.998047 63.96875 C 45.093059 63.58583 45.312941 63.253308 45.683594 62.886719 C 46.447212 62.131244 46.757217 60.765967 46.65625 59.316406 z M 32.314453 59.533203 C 31.735539 61.12192 28.80168 62.27328 26.048828 61.837891 C 23.598748 61.450291 23.230469 61.565764 23.230469 62.714844 C 23.230469 62.891042 23.262191 63.041631 23.285156 63.199219 C 23.439966 62.550214 24.041817 62.520384 26.048828 62.837891 C 29.119148 63.323491 32.423828 61.83627 32.423828 59.96875 C 32.423828 59.766833 32.392338 59.620486 32.314453 59.533203 z M 63.650391 59.535156 C 63.5717 59.622302 63.539062 59.76783 63.539062 59.970703 C 63.539062 61.838223 66.845656 63.325444 69.916016 62.839844 C 71.922653 62.522446 72.522775 62.552443 72.677734 63.201172 C 72.700839 63.043216 72.732422 62.891476 72.732422 62.714844 C 72.732422 61.565724 72.365976 61.452324 69.916016 61.839844 C 67.163347 62.275199 64.229628 61.123678 63.650391 59.535156 z M 35.251953 60.664062 C 34.511073 61.548015 34.655858 61.710938 36.181641 61.710938 C 39.207601 61.710938 41.545657 62.958474 43.029297 65.365234 C 43.776004 66.576547 44.208404 67.621714 44.324219 68.585938 C 44.475185 67.343781 44.040882 66.006232 43.029297 64.365234 C 41.545657 61.958474 39.207601 60.710938 36.181641 60.710938 C 35.774523 60.710938 35.471919 60.697816 35.251953 60.664062 z M 60.4375 60.671875 C 60.254265 60.677476 60.12161 60.686542 59.873047 60.689453 C 55.440247 60.741453 51.528284 64.298563 51.521484 68.283203 C 51.521332 68.418635 51.535908 68.558174 51.556641 68.697266 C 51.922607 64.957019 55.659539 61.738881 59.873047 61.689453 C 61.672282 61.668378 61.706804 61.624322 60.4375 60.671875 z M 31.646484 67.703125 C 29.223608 67.703125 28.940309 67.815631 29.484375 68.882812 C 29.802051 68.733728 30.461513 68.703125 31.646484 68.703125 C 34.747229 68.703125 37.211586 69.452098 37.763672 70.4375 C 37.77781 70.348328 37.782805 70.263823 37.822266 70.162109 C 38.334066 68.842989 35.473244 67.703125 31.646484 67.703125 z M 64.318359 67.705078 C 60.491679 67.705078 57.630978 68.844902 58.142578 70.164062 C 58.183905 70.27059 58.183291 70.351599 58.197266 70.441406 C 58.746892 69.454854 61.215284 68.705078 64.318359 68.705078 C 65.505137 68.705078 66.16339 68.735041 66.480469 68.884766 C 67.024254 67.818103 66.740967 67.705078 64.318359 67.705078 z M 50.271484 68.693359 C 50.249311 69.417194 50.269726 70.148669 50.369141 70.763672 C 50.417582 71.063222 50.433821 71.32705 50.453125 71.595703 C 50.497157 71.065498 50.483042 70.468016 50.369141 69.763672 C 50.316166 69.435954 50.288943 69.068026 50.271484 68.693359 z M 45.689453 68.716797 C 45.670925 69.115327 45.63869 69.505048 45.582031 69.855469 C 45.414639 70.890289 45.351206 71.546886 45.4375 72.025391 C 45.467976 71.684404 45.50396 71.338107 45.582031 70.855469 C 45.685536 70.215323 45.709924 69.460659 45.689453 68.716797 z M 39.939453 70.050781 C 39.765005 70.702622 39.251381 71.201172 38.478516 71.201172 C 38.192944 71.201172 37.989057 71.118803 37.865234 70.976562 C 37.855846 71.03784 37.846391 71.099929 37.822266 71.162109 C 37.575946 71.797029 37.830556 72.201172 38.478516 72.201172 C 39.619927 72.201172 40.191118 71.119741 39.939453 70.050781 z M 55.845703 70.226562 C 55.593548 71.247156 56.046224 72.203125 57.152344 72.203125 C 58.093504 72.203125 58.415178 71.866743 58.142578 71.164062 C 58.115163 71.093373 58.102167 71.02263 58.09375 70.953125 C 57.928067 71.119956 57.615852 71.203125 57.152344 71.203125 C 56.433316 71.203125 56.002671 70.789214 55.845703 70.226562 z "
       transform="translate(0,2)"
       id="path118" />
  </g>
</svg>
