<?xml version="1.0" encoding="UTF-8" standalone="no"?>
<!-- Created with Inkscape (http://www.inkscape.org/) -->

<svg
   xmlns:dc="http://purl.org/dc/elements/1.1/"
   xmlns:cc="http://creativecommons.org/ns#"
   xmlns:rdf="http://www.w3.org/1999/02/22-rdf-syntax-ns#"
   xmlns:svg="http://www.w3.org/2000/svg"
   xmlns="http://www.w3.org/2000/svg"
   xmlns:xlink="http://www.w3.org/1999/xlink"
   xmlns:sodipodi="http://sodipodi.sourceforge.net/DTD/sodipodi-0.dtd"
   xmlns:inkscape="http://www.inkscape.org/namespaces/inkscape"
   version="1.0"
   width="96"
   height="96"
   id="svg2408"
   sodipodi:docname="frozen-bubble.svg"
   inkscape:version="0.92.2 5c3e80d, 2017-08-06">
  <sodipodi:namedview
     pagecolor="#ffffff"
     bordercolor="#666666"
     borderopacity="1"
     objecttolerance="10"
     gridtolerance="10"
     guidetolerance="10"
     inkscape:pageopacity="0"
     inkscape:pageshadow="2"
     inkscape:window-width="1366"
     inkscape:window-height="743"
     id="namedview208"
     showgrid="false"
     inkscape:zoom="3.4766083"
     inkscape:cx="27.431074"
     inkscape:cy="52.527434"
     inkscape:window-x="0"
     inkscape:window-y="25"
     inkscape:window-maximized="1"
     inkscape:current-layer="svg2408" />
  <defs
     id="defs2410">
    <linearGradient
       x1="45.447727"
       y1="92.539597"
       x2="45.447727"
       y2="7.0165396"
       id="ButtonShadow"
       gradientUnits="userSpaceOnUse"
       gradientTransform="scale(1.0058652,0.994169)">
      <stop
         id="stop3750"
         style="stop-color:#000000;stop-opacity:1"
         offset="0" />
      <stop
         id="stop3752"
         style="stop-color:#000000;stop-opacity:0.58823532"
         offset="1" />
    </linearGradient>
    <filter
       color-interpolation-filters="sRGB"
       id="filter3174">
      <feGaussianBlur
         stdDeviation="1.71"
         id="feGaussianBlur3176" />
    </filter>
    <linearGradient
       x1="48"
       y1="20.220806"
       x2="48"
       y2="138.66119"
       id="linearGradient8478"
       xlink:href="#linearGradient3737-2-3"
       gradientUnits="userSpaceOnUse" />
    <linearGradient
       x1="45.447727"
       y1="92.539597"
       x2="45.447727"
       y2="7.0165396"
       id="linearGradient8476"
       xlink:href="#ButtonShadow-07"
       gradientUnits="userSpaceOnUse"
       gradientTransform="scale(1.0058652,0.994169)" />
    <linearGradient
       x1="45.447727"
       y1="92.539597"
       x2="45.447727"
       y2="7.0165396"
       id="linearGradient8474"
       xlink:href="#ButtonShadow-08"
       gradientUnits="userSpaceOnUse"
       gradientTransform="scale(1.0058652,0.994169)" />
    <linearGradient
       x1="45.447727"
       y1="92.539597"
       x2="45.447727"
       y2="7.0165396"
       id="ButtonShadow-3"
       gradientUnits="userSpaceOnUse"
       gradientTransform="scale(1.0058652,0.994169)">
      <stop
         id="stop3750-3"
         style="stop-color:#000000;stop-opacity:1"
         offset="0" />
      <stop
         id="stop3752-7"
         style="stop-color:#000000;stop-opacity:0.58823532"
         offset="1" />
    </linearGradient>
    <filter
       color-interpolation-filters="sRGB"
       id="filter3174-9">
      <feGaussianBlur
         stdDeviation="1.71"
         id="feGaussianBlur3176-8" />
    </filter>
    <filter
       x="-0.192"
       y="-0.192"
       width="1.3839999"
       height="1.3839999"
       color-interpolation-filters="sRGB"
       id="filter3794-71">
      <feGaussianBlur
         id="feGaussianBlur3796-90"
         stdDeviation="5.28" />
    </filter>
    <clipPath
       id="clipPath3613-01">
      <rect
         width="84"
         height="84"
         rx="6"
         ry="6"
         x="6"
         y="6"
         id="rect3615-422"
         style="fill:#ffffff;fill-opacity:1;fill-rule:nonzero;stroke:none" />
    </clipPath>
    <linearGradient
       id="linearGradient3737-2-3">
      <stop
         id="stop3739-00"
         style="stop-color:#ffffff;stop-opacity:1"
         offset="0" />
      <stop
         id="stop3741-66"
         style="stop-color:#ffffff;stop-opacity:0"
         offset="1" />
    </linearGradient>
    <filter
       color-interpolation-filters="sRGB"
       id="filter3174-28">
      <feGaussianBlur
         id="feGaussianBlur3176-3"
         stdDeviation="1.71" />
    </filter>
    <linearGradient
       x1="45.447727"
       y1="92.539597"
       x2="45.447727"
       y2="7.0165396"
       id="ButtonShadow-07"
       gradientUnits="userSpaceOnUse"
       gradientTransform="scale(1.0058652,0.994169)">
      <stop
         id="stop3750-88"
         style="stop-color:#000000;stop-opacity:1"
         offset="0" />
      <stop
         id="stop3752-20"
         style="stop-color:#000000;stop-opacity:0.58823532"
         offset="1" />
    </linearGradient>
    <filter
       color-interpolation-filters="sRGB"
       id="filter3174-1">
      <feGaussianBlur
         stdDeviation="1.71"
         id="feGaussianBlur3176-1" />
    </filter>
    <linearGradient
       x1="45.447727"
       y1="92.539597"
       x2="45.447727"
       y2="7.0165396"
       id="ButtonShadow-08"
       gradientUnits="userSpaceOnUse"
       gradientTransform="scale(1.0058652,0.994169)">
      <stop
         id="stop3750-0"
         style="stop-color:#000000;stop-opacity:1"
         offset="0" />
      <stop
         id="stop3752-4"
         style="stop-color:#000000;stop-opacity:0.58823532"
         offset="1" />
    </linearGradient>
    <filter
       color-interpolation-filters="sRGB"
       id="filter3174-0">
      <feGaussianBlur
         stdDeviation="1.71"
         id="feGaussianBlur3176-34" />
    </filter>
    <linearGradient
       x1="45.447727"
       y1="92.539597"
       x2="45.447727"
       y2="7.0165396"
       id="ButtonShadow-6"
       gradientUnits="userSpaceOnUse"
       gradientTransform="scale(1.0058652,0.994169)">
      <stop
         id="stop3750-5"
         style="stop-color:#000000;stop-opacity:1"
         offset="0" />
      <stop
         id="stop3752-0"
         style="stop-color:#000000;stop-opacity:0.58823532"
         offset="1" />
    </linearGradient>
    <linearGradient
       x1="59.396969"
       y1="72.385796"
       x2="84.852814"
       y2="72.385796"
       id="linearGradient9034"
       xlink:href="#linearGradient8740"
       gradientUnits="userSpaceOnUse"
       gradientTransform="matrix(1.0145175,0,0,1.0229916,-55.30952,-3.0060425)" />
    <linearGradient
       id="linearGradient8740">
      <stop
         id="stop8742"
         style="stop-color:#222222;stop-opacity:1"
         offset="0" />
      <stop
         id="stop8744"
         style="stop-color:#222222;stop-opacity:1"
         offset="1" />
    </linearGradient>
    <linearGradient
       x1="45.447727"
       y1="92.539597"
       x2="45.447727"
       y2="7.0165396"
       id="ButtonShadow-6-0"
       gradientUnits="userSpaceOnUse"
       gradientTransform="scale(1.0058652,0.994169)">
      <stop
         id="stop3750-5-4"
         style="stop-color:#000000;stop-opacity:1"
         offset="0" />
      <stop
         id="stop3752-0-8"
         style="stop-color:#000000;stop-opacity:0.58823532"
         offset="1" />
    </linearGradient>
    <filter
       color-interpolation-filters="sRGB"
       id="filter3174-0-6">
      <feGaussianBlur
         stdDeviation="1.71"
         id="feGaussianBlur3176-34-9" />
    </filter>
    <linearGradient
       x1="45.447727"
       y1="92.539597"
       x2="45.447727"
       y2="7.0165396"
       id="ButtonShadow-08-4"
       gradientUnits="userSpaceOnUse"
       gradientTransform="scale(1.0058652,0.994169)">
      <stop
         id="stop3750-0-3"
         style="stop-color:#000000;stop-opacity:1"
         offset="0" />
      <stop
         id="stop3752-4-3"
         style="stop-color:#000000;stop-opacity:0.58823532"
         offset="1" />
    </linearGradient>
    <filter
       color-interpolation-filters="sRGB"
       id="filter3174-1-0">
      <feGaussianBlur
         stdDeviation="1.71"
         id="feGaussianBlur3176-1-6" />
    </filter>
    <linearGradient
       x1="45.447727"
       y1="92.539597"
       x2="45.447727"
       y2="7.0165396"
       id="ButtonShadow-07-6"
       gradientUnits="userSpaceOnUse"
       gradientTransform="scale(1.0058652,0.994169)">
      <stop
         id="stop3750-88-8"
         style="stop-color:#000000;stop-opacity:1"
         offset="0" />
      <stop
         id="stop3752-20-2"
         style="stop-color:#000000;stop-opacity:0.58823532"
         offset="1" />
    </linearGradient>
    <filter
       color-interpolation-filters="sRGB"
       id="filter3174-28-9">
      <feGaussianBlur
         id="feGaussianBlur3176-3-7"
         stdDeviation="1.71" />
    </filter>
    <linearGradient
       id="linearGradient3737-2-3-3">
      <stop
         id="stop3739-00-2"
         style="stop-color:#ffffff;stop-opacity:1"
         offset="0" />
      <stop
         id="stop3741-66-1"
         style="stop-color:#ffffff;stop-opacity:0"
         offset="1" />
    </linearGradient>
    <clipPath
       id="clipPath3613-01-0">
      <rect
         width="84"
         height="84"
         rx="6"
         ry="6"
         x="6"
         y="6"
         id="rect3615-422-5"
         style="fill:#ffffff;fill-opacity:1;fill-rule:nonzero;stroke:none" />
    </clipPath>
    <filter
       x="-0.192"
       y="-0.192"
       width="1.3839999"
       height="1.3839999"
       color-interpolation-filters="sRGB"
       id="filter3794-71-2">
      <feGaussianBlur
         id="feGaussianBlur3796-90-1"
         stdDeviation="5.28" />
    </filter>
    <filter
       color-interpolation-filters="sRGB"
       id="filter3174-9-1">
      <feGaussianBlur
         stdDeviation="1.71"
         id="feGaussianBlur3176-8-6" />
    </filter>
    <linearGradient
       x1="45.447727"
       y1="92.539597"
       x2="45.447727"
       y2="7.0165396"
       id="ButtonShadow-3-5"
       gradientUnits="userSpaceOnUse"
       gradientTransform="scale(1.0058652,0.994169)">
      <stop
         id="stop3750-3-9"
         style="stop-color:#000000;stop-opacity:1"
         offset="0" />
      <stop
         id="stop3752-7-9"
         style="stop-color:#000000;stop-opacity:0.58823532"
         offset="1" />
    </linearGradient>
    <linearGradient
       x1="45.447727"
       y1="92.539597"
       x2="45.447727"
       y2="7.0165396"
       id="linearGradient8474-1"
       xlink:href="#ButtonShadow-08-4"
       gradientUnits="userSpaceOnUse"
       gradientTransform="scale(1.0058652,0.994169)" />
    <linearGradient
       x1="45.447727"
       y1="92.539597"
       x2="45.447727"
       y2="7.0165396"
       id="linearGradient8476-2"
       xlink:href="#ButtonShadow-07-6"
       gradientUnits="userSpaceOnUse"
       gradientTransform="scale(1.0058652,0.994169)" />
    <linearGradient
       x1="48"
       y1="20.220806"
       x2="48"
       y2="138.66119"
       id="linearGradient8478-5"
       xlink:href="#linearGradient3737-2-3-3"
       gradientUnits="userSpaceOnUse" />
    <filter
       color-interpolation-filters="sRGB"
       id="filter3174-8">
      <feGaussianBlur
         stdDeviation="1.71"
         id="feGaussianBlur3176-95" />
    </filter>
    <linearGradient
       x1="45.447727"
       y1="92.539597"
       x2="45.447727"
       y2="7.0165396"
       id="ButtonShadow-1"
       gradientUnits="userSpaceOnUse"
       gradientTransform="scale(1.0058652,0.994169)">
      <stop
         id="stop3750-79"
         style="stop-color:#000000;stop-opacity:1"
         offset="0" />
      <stop
         id="stop3752-56"
         style="stop-color:#000000;stop-opacity:0.58823532"
         offset="1" />
    </linearGradient>
    <linearGradient
       x1="45.447727"
       y1="92.539597"
       x2="45.447727"
       y2="7.0165396"
       id="ButtonShadow-0-9"
       gradientUnits="userSpaceOnUse"
       gradientTransform="matrix(1.0058652,0,0,0.994169,100,0)">
      <stop
         id="stop3750-8-6"
         style="stop-color:#000000;stop-opacity:1"
         offset="0" />
      <stop
         id="stop3752-5-9"
         style="stop-color:#000000;stop-opacity:0.58823532"
         offset="1" />
    </linearGradient>
    <linearGradient
       id="linearGradient3737-83">
      <stop
         id="stop3739-61"
         style="stop-color:#ffffff;stop-opacity:1"
         offset="0" />
      <stop
         id="stop3741-00"
         style="stop-color:#ffffff;stop-opacity:0"
         offset="1" />
    </linearGradient>
    <linearGradient
       id="linearGradient12159-3">
      <stop
         id="stop12161-1"
         style="stop-color:#7c06ad;stop-opacity:1"
         offset="0" />
      <stop
         id="stop12163-3"
         style="stop-color:#7d06ae;stop-opacity:0"
         offset="1" />
    </linearGradient>
    <linearGradient
       id="linearGradient11838-9">
      <stop
         id="stop11840-5"
         style="stop-color:#d29900;stop-opacity:1"
         offset="0" />
      <stop
         id="stop11842-8"
         style="stop-color:#ffd259;stop-opacity:1"
         offset="1" />
    </linearGradient>
    <filter
       x="-0.1214673"
       y="-0.52938819"
       width="1.2429346"
       height="2.0587764"
       color-interpolation-filters="sRGB"
       id="filter12169-2">
      <feGaussianBlur
         id="feGaussianBlur12171-2"
         stdDeviation="1.004627" />
    </filter>
    <linearGradient
       id="linearGradient11940-1">
      <stop
         id="stop11942-8"
         style="stop-color:#ffffff;stop-opacity:1"
         offset="0" />
      <stop
         id="stop11944-8"
         style="stop-color:#adadad;stop-opacity:1"
         offset="1" />
    </linearGradient>
    <linearGradient
       id="linearGradient11850-9">
      <stop
         id="stop11852-6"
         style="stop-color:#c411ff;stop-opacity:1"
         offset="0" />
      <stop
         id="stop11854-3"
         style="stop-color:#54007f;stop-opacity:1"
         offset="1" />
    </linearGradient>
    <linearGradient
       id="linearGradient19792">
      <stop
         id="stop19794"
         style="stop-color:#f2f2f2;stop-opacity:1"
         offset="0" />
      <stop
         id="stop19796"
         style="stop-color:#f2f2f2;stop-opacity:0"
         offset="1" />
    </linearGradient>
    <linearGradient
       id="linearGradient19659">
      <stop
         id="stop19661"
         style="stop-color:#cbe2ed;stop-opacity:1"
         offset="0" />
      <stop
         id="stop19663"
         style="stop-color:#2283bf;stop-opacity:1"
         offset="1" />
    </linearGradient>
    <filter
       color-interpolation-filters="sRGB"
       id="filter3174-4">
      <feGaussianBlur
         id="feGaussianBlur3176-0"
         stdDeviation="1.71" />
    </filter>
    <linearGradient
       x1="45.447727"
       y1="92.539597"
       x2="45.447727"
       y2="7.0165396"
       id="ButtonShadow-879"
       gradientUnits="userSpaceOnUse"
       gradientTransform="scale(1.0058652,0.994169)">
      <stop
         id="stop3750-38"
         style="stop-color:#000000;stop-opacity:1"
         offset="0" />
      <stop
         id="stop3752-8"
         style="stop-color:#000000;stop-opacity:0.58823532"
         offset="1" />
    </linearGradient>
    <linearGradient
       id="linearGradient3973">
      <stop
         id="stop3975"
         style="stop-color:#ffffff;stop-opacity:1"
         offset="0" />
      <stop
         id="stop3977"
         style="stop-color:#bbbbbb;stop-opacity:1"
         offset="1" />
    </linearGradient>
    <linearGradient
       id="linearGradient3983">
      <stop
         id="stop3985"
         style="stop-color:#ffffff;stop-opacity:1"
         offset="0" />
      <stop
         id="stop3987"
         style="stop-color:#ffffff;stop-opacity:0"
         offset="1" />
    </linearGradient>
    <linearGradient
       id="linearGradient3995">
      <stop
         id="stop3997"
         style="stop-color:#000000;stop-opacity:1"
         offset="0" />
      <stop
         id="stop3999"
         style="stop-color:#000000;stop-opacity:0"
         offset="1" />
    </linearGradient>
    <linearGradient
       id="linearGradient4015">
      <stop
         id="stop4017"
         style="stop-color:#000000;stop-opacity:1"
         offset="0" />
      <stop
         id="stop4019"
         style="stop-color:#000000;stop-opacity:0"
         offset="1" />
    </linearGradient>
    <linearGradient
       id="linearGradient4023">
      <stop
         id="stop4025"
         style="stop-color:#ffffff;stop-opacity:1"
         offset="0" />
      <stop
         id="stop4027"
         style="stop-color:#a3a3a3;stop-opacity:1"
         offset="1" />
    </linearGradient>
    <linearGradient
       id="linearGradient5290">
      <stop
         id="stop5292"
         style="stop-color:#f8f8ff;stop-opacity:1"
         offset="0" />
      <stop
         id="stop5294"
         style="stop-color:#f9f9fe;stop-opacity:0"
         offset="1" />
    </linearGradient>
    <linearGradient
       id="linearGradient5322">
      <stop
         id="stop5324"
         style="stop-color:#ffffff;stop-opacity:1"
         offset="0" />
      <stop
         id="stop5326"
         style="stop-color:#ffffff;stop-opacity:0"
         offset="1" />
    </linearGradient>
    <linearGradient
       x1="32.251034"
       y1="6.1317081"
       x2="32.251034"
       y2="90.238609"
       id="linearGradient20673"
       xlink:href="#ButtonShadow-0-9"
       gradientUnits="userSpaceOnUse"
       gradientTransform="matrix(1.0238095,0,0,-1.0031582,-1.1428571,98.04515)" />
    <linearGradient
       x1="32.251034"
       y1="6.1317081"
       x2="32.251034"
       y2="90.238609"
       id="linearGradient20675"
       xlink:href="#ButtonShadow-0-9"
       gradientUnits="userSpaceOnUse"
       gradientTransform="matrix(1.0238095,0,0,-1.0089238,-1.0896404,98.269424)" />
    <linearGradient
       x1="32.251034"
       y1="6.1317081"
       x2="32.251034"
       y2="90.238609"
       id="linearGradient20677"
       xlink:href="#ButtonShadow-0-9"
       gradientUnits="userSpaceOnUse"
       gradientTransform="matrix(1.0238095,0,0,-1.0082428,-1.1428571,98.053076)" />
    <linearGradient
       x1="77.486557"
       y1="-3.8993421"
       x2="77.369827"
       y2="-47.38641"
       id="linearGradient20679"
       xlink:href="#linearGradient5322"
       gradientUnits="userSpaceOnUse"
       gradientTransform="matrix(0.93919929,0,0,0.94285422,-27.78147,-2.8268732)" />
    <radialGradient
       cx="59.314705"
       cy="27.342279"
       r="42"
       fx="59.314705"
       fy="27.342279"
       id="radialGradient20681"
       xlink:href="#linearGradient19659"
       gradientUnits="userSpaceOnUse"
       gradientTransform="matrix(1.1674142,-0.89032574,0.75378699,0.98868757,-43.895373,41.674991)" />
    <radialGradient
       cx="122.20043"
       cy="47.534485"
       r="37.793537"
       fx="122.20043"
       fy="47.534485"
       id="radialGradient20683"
       xlink:href="#linearGradient11850-9"
       gradientUnits="userSpaceOnUse"
       gradientTransform="matrix(0.96113016,0.04192237,-0.07000197,1.6042235,-69.275792,-33.076786)" />
    <radialGradient
       cx="57.27565"
       cy="75.493904"
       r="10.606602"
       fx="57.27565"
       fy="75.493904"
       id="radialGradient20685"
       xlink:href="#linearGradient3995"
       gradientUnits="userSpaceOnUse"
       gradientTransform="matrix(0.9286394,0.75612018,-0.28515499,0.29183397,40.923095,-5.8494206)" />
    <linearGradient
       x1="535.49811"
       y1="83.098267"
       x2="535.73889"
       y2="91.209145"
       id="linearGradient20687"
       xlink:href="#linearGradient19792"
       gradientUnits="userSpaceOnUse"
       gradientTransform="matrix(1.3716116,0,0,1.4103204,-690.39006,-110.57749)" />
    <linearGradient
       x1="53.892601"
       y1="70.478401"
       x2="53.18367"
       y2="81.978401"
       id="linearGradient20689"
       xlink:href="#linearGradient11940-1"
       gradientUnits="userSpaceOnUse"
       gradientTransform="matrix(1.7074832,0,0,1.4478352,-60.125568,-34.707959)" />
    <linearGradient
       x1="33.672676"
       y1="48.149033"
       x2="43.622051"
       y2="48.694565"
       id="linearGradient20691"
       xlink:href="#linearGradient4023"
       gradientUnits="userSpaceOnUse"
       gradientTransform="matrix(0.88855539,0,0,0.52322544,-3.6659135,1.4987927)" />
    <radialGradient
       cx="57.27565"
       cy="75.493904"
       r="10.606602"
       fx="57.27565"
       fy="75.493904"
       id="radialGradient20693"
       xlink:href="#linearGradient4015"
       gradientUnits="userSpaceOnUse"
       gradientTransform="matrix(2.0611788,0,0,1.6031344,-85.698592,-67.405281)" />
    <linearGradient
       x1="32.844723"
       y1="61.040894"
       x2="33.5"
       y2="54.540894"
       id="linearGradient20695"
       xlink:href="#linearGradient11838-9"
       gradientUnits="userSpaceOnUse"
       gradientTransform="matrix(1.1065102,0,0,1.1768627,-4.9681019,-14.88233)" />
    <linearGradient
       x1="25.678415"
       y1="49.031689"
       x2="18.661795"
       y2="49.360035"
       id="linearGradient20697"
       xlink:href="#linearGradient3973"
       gradientUnits="userSpaceOnUse"
       gradientTransform="matrix(1.1751422,0,0,0.72016852,7.5448918,-8.354089)" />
    <linearGradient
       x1="76.612244"
       y1="61.25"
       x2="68.83371"
       y2="54.65704"
       id="linearGradient20699"
       xlink:href="#linearGradient12159-3"
       gradientUnits="userSpaceOnUse"
       gradientTransform="matrix(1.2143167,-0.10039227,0.1321714,0.95720886,-25.329493,-0.78360737)" />
    <radialGradient
       cx="57.27565"
       cy="75.493904"
       r="10.606602"
       fx="57.27565"
       fy="75.493904"
       id="radialGradient20701"
       xlink:href="#linearGradient3995"
       gradientUnits="userSpaceOnUse"
       gradientTransform="matrix(0.77822128,0.68497887,-0.23896647,0.26437609,48.856613,0.23566694)" />
    <linearGradient
       x1="526.2652"
       y1="63.444996"
       x2="526.25427"
       y2="70.516014"
       id="linearGradient20703"
       xlink:href="#linearGradient5290"
       gradientUnits="userSpaceOnUse"
       gradientTransform="matrix(1.3670646,0,0,1.4223762,-728.88933,-71.122769)" />
    <radialGradient
       cx="48"
       cy="90.171875"
       r="42"
       fx="48"
       fy="90.171875"
       id="radialGradient20705"
       xlink:href="#linearGradient3737-83"
       gradientUnits="userSpaceOnUse"
       gradientTransform="matrix(1.1573129,0,0,0.99590774,-68.19406,2.5139283)" />
    <radialGradient
       cx="-27.375"
       cy="56.125"
       r="7.875"
       fx="-27.375"
       fy="56.125"
       id="radialGradient20707"
       xlink:href="#linearGradient3983"
       gradientUnits="userSpaceOnUse"
       gradientTransform="matrix(0.38289423,-0.39635272,1.02222,1.0203668,30.082457,-14.775772)" />
    <radialGradient
       cx="-27.375"
       cy="56.125"
       r="7.875"
       fx="-27.375"
       fy="56.125"
       id="radialGradient20709"
       xlink:href="#linearGradient3983"
       gradientUnits="userSpaceOnUse"
       gradientTransform="matrix(0.38289423,-0.39635272,1.02222,1.0203668,33.997169,-13.247163)" />
    <radialGradient
       cx="-27.375"
       cy="56.125"
       r="7.875"
       fx="-27.375"
       fy="56.125"
       id="radialGradient20711"
       xlink:href="#linearGradient3983"
       gradientUnits="userSpaceOnUse"
       gradientTransform="matrix(0.34338988,-0.38577561,1.6321089,0.55784449,-49.199958,5.3658017)" />
    <radialGradient
       cx="-27.375"
       cy="56.125"
       r="7.875"
       fx="-27.375"
       fy="56.125"
       id="radialGradient20713"
       xlink:href="#linearGradient3983"
       gradientUnits="userSpaceOnUse"
       gradientTransform="matrix(0.34338988,-0.38577561,1.6321089,0.55784449,-44.305132,6.4661027)" />
    <linearGradient
       id="linearGradient4390"
       x1="48"
       x2="48"
       y1="88"
       y2="-40"
       gradientTransform="matrix(1,0,0,-1,0,92)"
       gradientUnits="userSpaceOnUse"
       xlink:href="#linearGradient3737-2-3" />
    <linearGradient
       id="linearGradient4429"
       x1="48"
       x2="112.12"
       y1="82"
       y2="82.455002"
       gradientUnits="userSpaceOnUse"
       spreadMethod="reflect"
       xlink:href="#linearGradient3737-2-3" />
    <linearGradient
       id="linearGradient3228"
       x1="90"
       x2="48"
       y1="88"
       y2="88"
       gradientUnits="userSpaceOnUse"
       spreadMethod="reflect">
      <stop
         id="stop3894"
         stop-opacity=".58824"
         offset="0" />
      <stop
         id="stop3896"
         stop-opacity=".47059"
         offset=".1178" />
      <stop
         id="stop3898"
         stop-opacity=".39216"
         offset=".2381" />
      <stop
         id="stop3900"
         stop-opacity=".31373"
         offset="1" />
    </linearGradient>
  </defs>
  <metadata
     id="metadata2413">
    <rdf:RDF>
      <cc:Work
         rdf:about="">
        <dc:format>image/svg+xml</dc:format>
        <dc:type
           rdf:resource="http://purl.org/dc/dcmitype/StillImage" />
        <dc:title />
      </cc:Work>
    </rdf:RDF>
  </metadata>
  <g
     id="layer2"
     style="display:none">
    <rect
       width="86"
       height="85"
       rx="6"
       ry="6"
       x="5"
       y="7"
       id="rect3745"
       style="opacity:0.9;fill:url(#ButtonShadow);fill-opacity:1;fill-rule:nonzero;stroke:none;filter:url(#filter3174)" />
  </g>
  <g
     transform="translate(115.54294,0.85219061)"
     id="layer2-6"
     style="display:none">
    <rect
       width="86"
       height="85"
       rx="6"
       ry="6"
       x="5"
       y="7"
       id="rect3745-02"
       style="opacity:0.9;fill:url(#ButtonShadow-6);fill-opacity:1;fill-rule:nonzero;stroke:none;filter:url(#filter3174-0)" />
  </g>
  <g
     transform="translate(235.42985,0.85219056)"
     id="layer2-7"
     style="display:none">
    <rect
       width="86"
       height="85"
       rx="6"
       ry="6"
       x="5"
       y="7"
       id="rect3745-0"
       style="opacity:0.9;fill:url(#ButtonShadow-3);fill-opacity:1;fill-rule:nonzero;stroke:none;filter:url(#filter3174-9)" />
  </g>
  <g
     transform="matrix(0.95833329,0,0,0.94791667,252.01419,5.1359169)"
     id="layer2-9"
     style="display:none">
    <rect
       width="86"
       height="85"
       rx="6"
       ry="6"
       x="5"
       y="7"
       id="rect3745-3"
       style="opacity:0.9;fill:url(#linearGradient8474);fill-opacity:1;fill-rule:nonzero;stroke:none;filter:url(#filter3174-1)" />
  </g>
  <g
     transform="matrix(1.0222222,0,0,1.0111111,248.66931,2.1301989)"
     id="layer2-20"
     style="display:none">
    <rect
       width="86"
       height="85"
       rx="6"
       ry="6"
       x="5"
       y="7"
       id="rect3745-64"
       style="opacity:0.9;fill:url(#linearGradient8476);fill-opacity:1;fill-rule:nonzero;stroke:none;filter:url(#filter3174-28)" />
  </g>
  <g
     transform="matrix(1.0222222,0,0,1.0111111,248.66931,2.1301989)"
     id="layer5-35"
     style="display:none">
    <rect
       width="66"
       height="66"
       rx="12"
       ry="12"
       x="15"
       y="15"
       clip-path="url(#clipPath3613-01)"
       id="rect3171-20"
       style="opacity:0.1;fill:url(#linearGradient8478);fill-opacity:1;fill-rule:nonzero;stroke:#ffffff;stroke-width:0.5;stroke-linecap:round;stroke-linejoin:miter;stroke-miterlimit:4;stroke-opacity:1;stroke-dasharray:none;stroke-dashoffset:0;filter:url(#filter3794-71)" />
  </g>
  <g
     transform="translate(126.95766,-5.7242467)"
     id="layer2-92"
     style="display:none">
    <rect
       width="86"
       height="85"
       rx="6"
       ry="6"
       x="5"
       y="7"
       id="rect3745-31"
       style="opacity:0.9;fill:url(#ButtonShadow-1);fill-opacity:1;fill-rule:nonzero;stroke:none;filter:url(#filter3174-8)" />
  </g>
  <g
     transform="translate(242.5006,-4.8720561)"
     id="layer2-6-8"
     style="display:none">
    <rect
       width="86"
       height="85"
       rx="6"
       ry="6"
       x="5"
       y="7"
       id="rect3745-02-7"
       style="opacity:0.9;fill:url(#ButtonShadow-6-0);fill-opacity:1;fill-rule:nonzero;stroke:none;filter:url(#filter3174-0-6)" />
  </g>
  <g
     transform="translate(362.38751,-4.8720561)"
     id="layer2-7-6"
     style="display:none">
    <rect
       width="86"
       height="85"
       rx="6"
       ry="6"
       x="5"
       y="7"
       id="rect3745-0-3"
       style="opacity:0.9;fill:url(#ButtonShadow-3-5);fill-opacity:1;fill-rule:nonzero;stroke:none;filter:url(#filter3174-9-1)" />
  </g>
  <g
     transform="matrix(0.95833329,0,0,0.94791667,378.97185,-0.5883298)"
     id="layer2-9-8"
     style="display:none">
    <rect
       width="86"
       height="85"
       rx="6"
       ry="6"
       x="5"
       y="7"
       id="rect3745-3-5"
       style="opacity:0.9;fill:url(#linearGradient8474-1);fill-opacity:1;fill-rule:nonzero;stroke:none;filter:url(#filter3174-1-0)" />
  </g>
  <g
     transform="matrix(1.0222222,0,0,1.0111111,375.62697,-3.5940478)"
     id="layer2-20-5"
     style="display:none">
    <rect
       width="86"
       height="85"
       rx="6"
       ry="6"
       x="5"
       y="7"
       id="rect3745-64-0"
       style="opacity:0.9;fill:url(#linearGradient8476-2);fill-opacity:1;fill-rule:nonzero;stroke:none;filter:url(#filter3174-28-9)" />
  </g>
  <g
     transform="matrix(1.0222222,0,0,1.0111111,375.62697,-3.5940478)"
     id="layer5-35-1"
     style="display:none">
    <rect
       width="66"
       height="66"
       rx="12"
       ry="12"
       x="15"
       y="15"
       clip-path="url(#clipPath3613-01-0)"
       id="rect3171-20-2"
       style="opacity:0.1;fill:url(#linearGradient8478-5);fill-opacity:1;fill-rule:nonzero;stroke:#ffffff;stroke-width:0.5;stroke-linecap:round;stroke-linejoin:miter;stroke-miterlimit:4;stroke-opacity:1;stroke-dasharray:none;stroke-dashoffset:0;filter:url(#filter3794-71-2)" />
  </g>
  <g
     transform="translate(124.25209,-23.161463)"
     id="layer2-8"
     style="display:none">
    <rect
       width="86"
       height="85"
       rx="6"
       ry="6"
       x="5"
       y="7"
       id="rect3745-6"
       style="opacity:0.9;fill:url(#ButtonShadow-879);fill-opacity:1;fill-rule:nonzero;stroke:none;filter:url(#filter3174-4)" />
  </g>
  <g
     id="layer3"
     transform="matrix(0.99932111,0,0,1.0132465,0.02261995,-1.6318117)">
    <path
       inkscape:connector-curvature="0"
       style="display:inline;opacity:0.07999998;fill:url(#linearGradient20673);fill-opacity:1;fill-rule:nonzero;stroke:none"
       id="path3786"
       d="m 12,95.03125 c -5.5110903,0 -10.03125,-4.481089 -10.03125,-9.944543 V 14.700409 C 1.96875,9.2369541 6.4889098,4.7558651 12,4.7558651 h 72 c 5.51109,0 10.03125,4.4810889 10.03125,9.9445439 v 70.386298 c 0,5.463454 -4.52016,9.944543 -10.03125,9.944543 z" />
    <path
       inkscape:connector-curvature="0"
       style="display:inline;opacity:0.1;fill:url(#linearGradient20675);fill-opacity:1;fill-rule:nonzero;stroke:none"
       id="path3778"
       d="m 12.053217,94.241147 c -4.9716333,0 -9.0312503,-4.047658 -9.0312503,-9.004645 V 14.445663 c 0,-4.9569861 4.0596171,-9.0046439 9.0312503,-9.0046439 h 72 c 4.971633,0 9.03125,4.0476577 9.03125,9.0046439 v 70.790839 c 0,4.956987 -4.059617,9.004645 -9.03125,9.004645 z" />
    <path
       inkscape:connector-curvature="0"
       style="display:inline;opacity:0.2;fill:url(#linearGradient20677);fill-opacity:1;fill-rule:nonzero;stroke:none"
       id="path3770"
       d="M 12,93 C 7.5908667,93 4,89.422128 4,85.028951 V 14.285895 C 4,9.8927177 7.5908667,6.314846 12,6.314846 h 72 c 4.409133,0 8,3.5778717 8,7.971049 V 85.028951 C 92,89.422128 88.409133,93 84,93 Z" />
    <rect
       style="display:inline;opacity:0.26960784;fill:#000000;fill-opacity:1;fill-rule:nonzero;stroke:none"
       id="rect3723"
       transform="scale(1,-1)"
       y="-92"
       x="5"
       ry="7"
       rx="7"
       height="85"
       width="86" />
    <rect
       style="display:inline;opacity:0.22058824;fill:#212121;fill-opacity:1;fill-rule:nonzero;stroke:none"
       id="rect3716"
       transform="scale(1,-1)"
       y="-91"
       x="6"
       ry="6"
       rx="6"
       height="84"
       width="84" />
  </g>
  <rect
     style="display:inline;fill:url(#linearGradient20679);fill-opacity:1;fill-rule:nonzero;stroke:none;stroke-width:0.96194375"
     id="rect5302"
     transform="scale(1,-1)"
     y="-89.551491"
     x="5.8111138"
     ry="6.9526997"
     rx="6.8291354"
     height="84.425636"
     width="83.900818" />
  <path
     inkscape:connector-curvature="0"
     style="fill:url(#radialGradient20681);fill-opacity:1;fill-rule:nonzero;stroke:none;stroke-width:0.96194375"
     id="rect19706"
     d="M 16.945558,4.9705963 13.126905,22.41755 c 0,0 -1.548956,-4.080519 -3.9054178,-16.7091481 C 7.3346732,6.7165943 6.053739,8.6783975 6.053739,11.00325 v 72.478633 c 0,3.345868 2.6359218,6.032652 5.944933,6.032652 h 71.686347 c 3.309012,0 5.988318,-2.686784 5.988318,-6.032652 V 11.00325 c 0,-3.3163338 -2.632891,-5.9857947 -5.901536,-6.0326537 l -2.647018,9.2876807 c 0,0 -1.126383,-2.461417 -2.820583,-9.2876807 H 76.958991 L 73.357319,18.337914 c 0,0 -1.521652,-3.302437 -3.862033,-13.3673177 H 27.750591 l -1.345208,4.3834385 c 0,0 -0.606019,-1.192994 -1.518786,-4.3834385 h -1.388604 l -2.430042,9.2876807 c 0,0 -1.027351,-2.425445 -2.560216,-9.2876807 z" />
  <path
     inkscape:connector-curvature="0"
     style="fill:url(#radialGradient20683);fill-opacity:1;stroke:none;stroke-width:0.96194375"
     id="path5486"
     d="m 34.793442,5.2264356 29.342354,0.2404608 c 0,0 16.835776,35.8286556 16.595265,45.4470876 -0.240511,9.618431 -1.39414,33.403405 -13.303319,38.819926 -0.532524,0.242202 -54.039788,0.375181 -54.039788,0.375181 0,0 -10.8229997,-8.416127 -1.924089,-23.324696 C 16.757953,57.915077 16.99562,45.864308 16.755109,36.967258 16.514598,28.070209 16.274087,22.539611 21.32482,16.04717 25.106751,11.185707 34.793442,5.2264356 34.793442,5.2264356 Z" />
  <path
     inkscape:connector-curvature="0"
     style="opacity:0.66666667;fill:url(#radialGradient20685);fill-opacity:1;stroke:none;stroke-width:0.92668289"
     id="path4003"
     d="M 82.433766,67.509405 A 12.70857,4.3077032 38.477807 1 1 62.734348,51.469674 12.70857,4.3077032 38.477807 1 1 82.433766,67.509405 Z" />
  <path
     inkscape:connector-curvature="0"
     style="fill:url(#linearGradient20687);fill-opacity:1;stroke:none;stroke-width:0.96194375"
     id="path19788"
     d="m 16.773543,5.0401797 -3.81888,16.6305493 c 0,0 -1.549078,-3.889577 -3.9056636,-15.9272681 -1.8869563,0.9610136 -3.1679569,2.83102 -3.1679569,5.0470831 v 69.087085 c 0,3.189313 2.6360832,5.750368 5.9453025,5.750368 h 71.690897 c 3.309218,0 5.988689,-2.561055 5.988689,-5.750368 V 10.790544 c 0,-3.1611505 -2.633055,-5.7056988 -5.901908,-5.7503643 l -2.647181,8.8530773 c 0,0 -1.12645,-2.34624 -2.820762,-8.8530773 H 76.790791 L 73.188883,17.781993 c 0,0 -1.521748,-3.147904 -3.862279,-12.7418133 H 27.579261 l -1.34529,4.1783223 c 0,0 -0.60606,-1.1371693 -1.51888,-4.1783223 h -1.388703 l -2.430193,8.8530773 c 0,0 -1.027419,-2.311948 -2.560379,-8.8530773 z" />
  <path
     inkscape:connector-curvature="0"
     style="opacity:0.85714285;fill:url(#linearGradient20689);fill-opacity:1;stroke:none;stroke-width:0.96194375"
     id="path11846"
     d="m 22.377686,63.549959 c 0,0 -16.076207,24.967188 -2.722837,26.440812 4.745973,0.523747 10.219148,0.283281 21.940115,0.169004 15.023673,-0.146473 12.540508,-22.14705 3.093962,-27.430423 -5.258792,-2.941198 2.157178,-8.458693 2.157178,-8.458693 z" />
  <path
     inkscape:connector-curvature="0"
     style="fill:url(#linearGradient20691);fill-opacity:1;stroke:none;stroke-width:0.68184662"
     id="path11314"
     d="m 35.430524,26.809823 a 11.218012,11.837976 0 1 1 -22.436024,0 11.218012,11.837976 0 1 1 22.436024,0 z" />
  <path
     inkscape:connector-curvature="0"
     style="fill:#876200;fill-opacity:1;stroke:none;filter:url(#filter12169-2)"
     id="path12062"
     transform="matrix(0.1568324,2.2724315,-2.2446087,-0.07761437,122.71621,-102.60684)"
     d="m 73.614374,38.702784 c 0,9 -3.364374,15.547216 -3.364374,15.547216 0,0 1.25,-0.5 4.25,-4.5 3,-4 -0.885626,-11.047216 -0.885626,-11.047216 z" />
  <path
     inkscape:connector-curvature="0"
     style="opacity:0.82456144;fill:url(#radialGradient20693);fill-opacity:1;stroke:none;stroke-width:2.41478777"
     id="path12002"
     d="m 54.218867,53.621594 a 21.862104,17.003808 0 1 1 -43.724207,0 21.862103,17.003808 0 1 1 43.724207,0 z" />
  <path
     inkscape:connector-curvature="0"
     style="fill:url(#linearGradient20695);fill-opacity:1;stroke:none;stroke-width:0.96194375"
     id="path11836"
     d="m 35.326358,34.639931 c 0,0 -5.848264,-1.033464 -12.253417,1.772734 C 8.9874699,42.583752 8.4991683,59.030038 8.4991683,59.030038 c 0,0 12.8415117,10.381093 31.5637487,4.220512 15.137447,-4.98102 15.177786,-28.129729 15.177786,-28.129729 z" />
  <path
     inkscape:connector-curvature="0"
     style="fill:url(#linearGradient20697);fill-opacity:1;stroke:none;stroke-width:0.9199459"
     id="path11830"
     d="m 59.251149,26.484063 a 14.836171,16.293814 0 1 1 -29.672341,0 14.836171,16.293814 0 1 1 29.672341,0 z" />
  <path
     inkscape:connector-curvature="0"
     style="fill:#000000;fill-opacity:1;stroke:none;stroke-width:0.37023452"
     id="path11832"
     d="m 45.285616,27.499326 a 6.1485154,6.3680071 55.952451 1 1 -12.36449,-1.995212 6.1485154,6.3680071 55.952451 1 1 12.36449,1.995212 z" />
  <path
     inkscape:connector-curvature="0"
     style="fill:#000000;fill-opacity:1;stroke:none;stroke-width:0.26545033"
     id="path11834"
     d="m 25.901837,26.730597 a 4.351895,4.6249612 86.2412 1 1 -9.20148,-0.799796 4.351895,4.6249612 86.2412 1 1 9.20148,0.799796 z" />
  <path
     inkscape:connector-curvature="0"
     style="fill:url(#linearGradient20699);fill-opacity:1;stroke:none;stroke-width:0.96194375"
     id="path11872"
     d="m 59.687198,34.543687 c 0,0 19.728486,11.680836 24.831538,19.730139 5.103039,8.049301 3.395159,15.693552 3.395159,15.693552 0,0 -24.40821,-14.440389 -26.646878,-21.758364 -2.238628,-7.317981 -1.579819,-13.665327 -1.579819,-13.665327 z" />
  <path
     inkscape:connector-curvature="0"
     style="opacity:0.29385968;fill:none;stroke:#000000;stroke-width:0.76641786px;stroke-linecap:butt;stroke-linejoin:miter;stroke-opacity:1"
     id="path12252"
     d="m 32.766506,83.51882 c 0,0 0.597533,1.380764 -1.230454,1.918277 -0.781431,0.229777 -1.827858,-2.073373 -1.827858,-2.073373" />
  <path
     inkscape:connector-curvature="0"
     style="opacity:0.41666667;fill:url(#radialGradient20701);fill-opacity:1;stroke:none;stroke-width:0.8074252"
     id="path12016"
     d="M 83.643514,66.692359 A 10.996389,3.7795029 41.252437 1 1 67.134948,52.161762 10.996389,3.7795029 41.252437 1 1 83.643514,66.692359 Z" />
  <path
     inkscape:connector-curvature="0"
     style="opacity:0.42105264;fill:url(#radialGradient20707);fill-opacity:1;stroke:none;stroke-width:0.5512448"
     id="path3981"
     d="m 79.988116,50.221193 a 11.374339,4.3391773 45.107713 1 1 -6.030584,6.242555 11.374339,4.3391773 45.107713 1 1 6.030584,-6.242555 z" />
  <path
     inkscape:connector-curvature="0"
     style="opacity:0.26754384;fill:url(#radialGradient20709);fill-opacity:1;stroke:none;stroke-width:0.5512448"
     id="path3991"
     d="m 83.902828,51.749802 a 11.374339,4.3391773 45.107713 1 1 -6.030584,6.242555 11.374339,4.3391773 45.107713 1 1 6.030584,-6.242555 z" />
  <path
     inkscape:connector-curvature="0"
     style="opacity:0.67982453;fill:url(#radialGradient20711);fill-opacity:1;stroke:none;stroke-width:0.55994976"
     id="path4007"
     d="m 35.706051,44.197448 a 13.681414,3.7223023 16.914922 1 1 -5.40839,6.075966 13.681414,3.7223023 16.914922 1 1 5.40839,-6.075966 z" />
  <path
     inkscape:connector-curvature="0"
     style="opacity:0.67982453;fill:url(#radialGradient20713);fill-opacity:1;stroke:none;stroke-width:0.55994976"
     id="path4009"
     d="m 40.600877,45.297749 a 13.681415,3.7223025 16.914922 1 1 -5.408391,6.075966 13.681415,3.7223025 16.914922 1 1 5.408391,-6.075966 z" />
  <g
     id="g873">
    <path
       id="rect4377"
       d="M 12,86 C 8.676,86 6,83.324 6,80 V 12 C 6,8.676 8.676,6 12,6 h 72 c 3.324,0 6,2.676 6,6 v 68 c 0,3.324 -2.676,6 -6,6 z m 0,-0.96875 h 72 c 2.8049,0 5.0312,-2.2264 5.0312,-5.0312 v -68 c 0,-2.8049 -2.226,-5.0312 -5.031,-5.0312 h -72 c -2.8049,0 -5.0312,2.2263 -5.0312,5.0312 v 68 c 0,2.8049 2.2264,5.0312 5.0312,5.0312 z"
       style="opacity:0.3;fill:url(#linearGradient4390)"
       inkscape:connector-curvature="0" />
    <path
       id="rect4414"
       d="m 6,78 v 2 c 0,3.324 2.676,6 6,6 h 72 c 3.324,0 6,-2.676 6,-6 v -2 c 0,3.324 -2.676,6 -6,6 H 12 C 8.676,84 6,81.324 6,78 Z"
       style="opacity:0.1;fill:url(#linearGradient4429)"
       inkscape:connector-curvature="0" />
    <g
       id="layer4">
      <path
         style="fill:url(#linearGradient3228)"
         inkscape:connector-curvature="0"
         d="m 6,80 v 4 c 0,3.324 2.676,6 6,6 h 72 c 3.324,0 6,-2.676 6,-6 v -4 c 0,3.324 -2.676,6 -6,6 H 12 C 8.676,86 6,83.324 6,80 Z"
         id="path3888" />
      <path
         style="color:#000000;opacity:0.1"
         inkscape:connector-curvature="0"
         d="m 6,82 v 2 c 0,3.324 2.676,6 6,6 h 72 c 3.324,0 6,-2.676 6,-6 v -2 c 0,3.324 -2.676,6 -6,6 H 12 C 8.676,88 6,85.324 6,82 Z"
         id="rect4345" />
      <path
         style="color:#000000;opacity:0.15"
         inkscape:connector-curvature="0"
         d="m 6,83 v 1 c 0,3.324 2.676,6 6,6 h 72 c 3.324,0 6,-2.676 6,-6 v -1 c 0,3.324 -2.676,6 -6,6 H 12 C 8.676,89 6,86.324 6,83 Z"
         id="rect4336" />
    </g>
  </g>
</svg>
