<?xml version="1.0" encoding="UTF-8" standalone="no"?>
<svg
   xmlns:dc="http://purl.org/dc/elements/1.1/"
   xmlns:cc="http://creativecommons.org/ns#"
   xmlns:rdf="http://www.w3.org/1999/02/22-rdf-syntax-ns#"
   xmlns:svg="http://www.w3.org/2000/svg"
   xmlns="http://www.w3.org/2000/svg"
   xmlns:xlink="http://www.w3.org/1999/xlink"
   xmlns:sodipodi="http://sodipodi.sourceforge.net/DTD/sodipodi-0.dtd"
   xmlns:inkscape="http://www.inkscape.org/namespaces/inkscape"
   width="96"
   height="96"
   version="1.0"
   id="svg125"
   sodipodi:docname="gitg.svg"
   inkscape:version="0.92.2 5c3e80d, 2017-08-06">
  <metadata
     id="metadata129">
    <rdf:RDF>
      <cc:Work
         rdf:about="">
        <dc:format>image/svg+xml</dc:format>
        <dc:type
           rdf:resource="http://purl.org/dc/dcmitype/StillImage" />
      </cc:Work>
    </rdf:RDF>
  </metadata>
  <sodipodi:namedview
     pagecolor="#ffffff"
     bordercolor="#666666"
     borderopacity="1"
     objecttolerance="10"
     gridtolerance="10"
     guidetolerance="10"
     inkscape:pageopacity="0"
     inkscape:pageshadow="2"
     inkscape:window-width="640"
     inkscape:window-height="480"
     id="namedview127"
     showgrid="false"
     inkscape:zoom="2.4583333"
     inkscape:cx="48"
     inkscape:cy="48"
     inkscape:window-x="0"
     inkscape:window-y="25"
     inkscape:window-maximized="0"
     inkscape:current-layer="svg125" />
  <defs
     id="defs49">
    <linearGradient
       id="linearGradient4384">
      <stop
         stop-color="#fff"
         offset="0"
         id="stop2" />
      <stop
         stop-color="#fff"
         stop-opacity="0"
         offset="1"
         id="stop4" />
    </linearGradient>
    <linearGradient
       id="ButtonShadow"
       x1="45.448"
       x2="45.448"
       y1="92.54"
       y2="7.0165"
       gradientTransform="scale(1.0059 .99417)"
       gradientUnits="userSpaceOnUse">
      <stop
         offset="0"
         id="stop7" />
      <stop
         stop-opacity=".58824"
         offset="1"
         id="stop9" />
    </linearGradient>
    <filter
       id="filter3174">
      <feGaussianBlur
         stdDeviation="1.71"
         id="feGaussianBlur12" />
    </filter>
    <filter
       id="filter3794"
       x="-.192"
       y="-.192"
       width="1.384"
       height="1.384">
      <feGaussianBlur
         stdDeviation="5.28"
         id="feGaussianBlur15" />
    </filter>
    <linearGradient
       id="linearGradient3613"
       x1="48"
       x2="48"
       y1="20.221"
       y2="138.66"
       gradientUnits="userSpaceOnUse">
      <stop
         stop-color="#fff"
         offset="0"
         id="stop18" />
      <stop
         stop-color="#fff"
         stop-opacity="0"
         offset="1"
         id="stop20" />
    </linearGradient>
    <linearGradient
       id="linearGradient3617"
       x1="48"
       x2="48"
       y1="90"
       y2="5.9877"
       gradientUnits="userSpaceOnUse">
      <stop
         stop-color="#cc0000"
         offset="0"
         id="stop23" />
      <stop
         stop-color="#ef2929"
         offset="1"
         id="stop25" />
    </linearGradient>
    <linearGradient
       id="ButtonShadow-0"
       x1="45.448"
       x2="45.448"
       y1="92.54"
       y2="7.0165"
       gradientTransform="matrix(1.0059 0 0 .99417 100 0)"
       gradientUnits="userSpaceOnUse">
      <stop
         offset="0"
         id="stop28" />
      <stop
         stop-opacity=".58824"
         offset="1"
         id="stop30" />
    </linearGradient>
    <linearGradient
       id="linearGradient3780"
       x1="32.251"
       x2="32.251"
       y1="6.1317"
       y2="90.239"
       gradientTransform="matrix(1.0238 0 0 1.0119 -1.1429 -98.071)"
       gradientUnits="userSpaceOnUse"
       xlink:href="#ButtonShadow-0" />
    <linearGradient
       id="linearGradient3721"
       x1="32.251"
       x2="32.251"
       y1="6.1317"
       y2="90.239"
       gradientTransform="translate(0,-97)"
       gradientUnits="userSpaceOnUse"
       xlink:href="#ButtonShadow-0" />
    <clipPath
       id="clipPath4355">
      <rect
         x="6"
         y="6"
         width="84"
         height="80"
         rx="6"
         ry="6"
         fill="#fff"
         id="rect35" />
    </clipPath>
    <linearGradient
       id="linearGradient4390"
       x1="48"
       x2="48"
       y1="88"
       y2="-40"
       gradientTransform="matrix(1,0,0,-1,0,92)"
       gradientUnits="userSpaceOnUse"
       xlink:href="#linearGradient4384" />
    <linearGradient
       id="linearGradient4429"
       x1="48"
       x2="112.12"
       y1="82"
       y2="82.455"
       gradientUnits="userSpaceOnUse"
       spreadMethod="reflect"
       xlink:href="#linearGradient4384" />
    <linearGradient
       id="linearGradient3870"
       x1="8"
       x2="50"
       y1="1033.4"
       y2="1033.4"
       gradientTransform="translate(-2 -956.36)"
       gradientUnits="userSpaceOnUse"
       spreadMethod="reflect">
      <stop
         stop-color="#523823"
         offset="0"
         id="stop40" />
      <stop
         stop-color="#79563a"
         offset=".1178"
         id="stop42" />
      <stop
         stop-color="#875c38"
         offset=".2381"
         id="stop44" />
      <stop
         stop-color="#a66e40"
         offset="1"
         id="stop46" />
    </linearGradient>
  </defs>
  <g
     display="none"
     id="g53">
    <rect
       x="5"
       y="7"
       width="86"
       height="85"
       rx="6"
       ry="6"
       fill="url(#ButtonShadow)"
       filter="url(#filter3174)"
       opacity=".9"
       id="rect51" />
  </g>
  <g
     id="g67">
    <g
       fill="url(#linearGradient3780)"
       id="g63">
      <path
         transform="scale(1,-1)"
         d="m12-95.031c-5.5111 0-10.031 4.5202-10.031 10.031v71c0 5.5111 4.5202 10.031 10.031 10.031h72c5.5111 0 10.031-4.5202 10.031-10.031v-71c0-5.5111-4.5202-10.031-10.031-10.031h-72z"
         opacity=".08"
         id="path55" />
      <path
         transform="scale(1,-1)"
         d="m12-94.031c-4.9716 0-9.0312 4.0596-9.0312 9.0312v71c0 4.9716 4.0596 9.0312 9.0312 9.0312h72c4.9716 0 9.0312-4.0596 9.0312-9.0312v-71c0-4.9716-4.0596-9.0312-9.0312-9.0312h-72z"
         opacity=".1"
         id="path57" />
      <path
         transform="scale(1,-1)"
         d="m12-93c-4.4091 0-8 3.5909-8 8v71c0 4.4091 3.5909 8 8 8h72c4.4091 0 8-3.5909 8-8v-71c0-4.4091-3.5909-8-8-8h-72z"
         opacity=".2"
         id="path59" />
      <rect
         transform="scale(1,-1)"
         x="5"
         y="-92"
         width="86"
         height="85"
         rx="7"
         ry="7"
         opacity=".3"
         id="rect61" />
    </g>
    <rect
       transform="scale(1,-1)"
       x="6"
       y="-91"
       width="84"
       height="84"
       rx="6"
       ry="6"
       fill="url(#linearGradient3721)"
       opacity=".45"
       id="rect65" />
  </g>
  <g
     id="g79">
    <rect
       x="6"
       y="64"
       width="84"
       height="26"
       rx="6"
       ry="6"
       color="#000000"
       fill="url(#linearGradient3870)"
       id="rect69" />
    <g
       id="g77">
      <path
         d="m6 82v2c0 3.324 2.676 6 6 6h72c3.324 0 6-2.676 6-6v-2c0 3.324-2.676 6-6 6h-72c-3.324 0-6-2.676-6-6z"
         color="#000000"
         opacity=".1"
         id="path71" />
      <path
         d="m6 83v1c0 3.324 2.676 6 6 6h72c3.324 0 6-2.676 6-6v-1c0 3.324-2.676 6-6 6h-72c-3.324 0-6-2.676-6-6z"
         color="#000000"
         opacity=".1"
         id="path73" />
      <path
         d="m6 80v1c0 3.324 2.676 6 6 6h72c3.324 0 6-2.676 6-6v-1c0 3.324-2.676 6-6 6h-72c-3.324 0-6-2.676-6-6z"
         opacity=".2"
         id="path75" />
    </g>
  </g>
  <g
     id="g87">
    <rect
       x="6"
       y="6"
       width="84"
       height="80"
       rx="6"
       ry="6"
       fill="url(#linearGradient3617)"
       id="rect81" />
    <path
       d="m12 86c-3.324 0-6-2.676-6-6v-68c0-3.324 2.676-6 6-6h72c3.324 0 6 2.676 6 6v68c0 3.324-2.676 6-6 6zm0-0.96875h72c2.8049 0 5.0312-2.2264 5.0312-5.0312v-68c0-2.8049-2.2264-5.0312-5.0312-5.0312h-72c-2.8049 0-5.0312 2.2264-5.0312 5.0312v68c0 2.8049 2.2264 5.0312 5.0312 5.0312z"
       fill="url(#linearGradient4390)"
       opacity=".3"
       id="path83" />
    <path
       d="m6 78v2c0 3.324 2.676 6 6 6h72c3.324 0 6-2.676 6-6v-2c0 3.324-2.676 6-6 6h-72c-3.324 0-6-2.676-6-6z"
       fill="url(#linearGradient4429)"
       opacity=".1"
       id="path85" />
  </g>
  <g
     id="g91">
    <rect
       x="15"
       y="15"
       width="66"
       height="62"
       rx="12"
       ry="12"
       clip-path="url(#clipPath4355)"
       fill="url(#linearGradient3613)"
       filter="url(#filter3794)"
       opacity=".1"
       stroke="#fff"
       stroke-linecap="round"
       stroke-width=".5"
       id="rect89" />
  </g>
  <defs
     id="defs101">
    <filter
       id="w">
      <feGaussianBlur
         stdDeviation="0.23199685"
         id="feGaussianBlur93" />
    </filter>
    <linearGradient
       id="a"
       gradientUnits="userSpaceOnUse"
       x1="8"
       y1="1"
       x2="8"
       y2="15.00033">
      <stop
         stop-color="#fafafa"
         offset="0"
         id="stop96" />
      <stop
         stop-color="#ebebeb"
         offset="1"
         id="stop98" />
    </linearGradient>
  </defs>
  <g
     transform="translate(0,-2)"
     id="g123">
    <path
       style="opacity:0.15;fill:#000000"
       d="m 8,0.75 c -0.2883376,0 -0.599204,0.0954155 -0.8320312,0.328125 a 0.250025,0.250025 0 0 0 -0.00195,0 L 5.9023438,2.34375 a 0.250025,0.250025 0 0 0 0,0.3535156 L 7.2617188,4.0585938 7.328125,3.6601562 C 7.111459,3.7688979 7.6288676,3.5270765 7.40625,3.6230469 7.1836324,3.7190173 7.7160984,3.5069687 7.4882812,3.5898438 7.2604641,3.6727188 7.8025596,3.4930003 7.5703125,3.5625 c -0.2322471,0.0695 0.3198769,-0.077374 0.083984,-0.021484 -0.2358925,0.05589 0.3246785,-0.059669 0.085937,-0.017578 -0.2387411,0.042091 0.3267206,-0.041821 0.085937,-0.013672 -0.2407831,0.02815 0.3279493,-0.021926 0.085937,-0.00781 C 7.6700976,3.5160664 8.242423,3.4999706 8,3.5 c -0.098175,0 0.2441864,0.017435 0.1464844,0.00781 -0.097702,-0.00962 0.2427727,0.040637 0.1464844,0.021484 -0.096288,-0.019153 0.2365255,0.063655 0.1425781,0.035156 -0.093947,-0.028499 0.2293735,0.086398 0.1386719,0.048828 -0.090702,-0.03757 0.2193949,0.1107324 0.1328124,0.064453 -0.086582,-0.046279 0.2085825,0.1287617 0.1269532,0.074219 -0.081629,-0.054543 0.1930776,0.1501721 0.1171875,0.087891 -0.07589,-0.062282 0.178795,0.1690294 0.109375,0.099609 -0.06942,-0.06942 0.1618908,0.1852651 0.099609,0.109375 -0.062281,-0.07589 0.1424337,0.1988169 0.087891,0.1171875 -0.054543,-0.081629 0.120498,0.2135356 0.074219,0.1269532 -0.046279,-0.086582 0.102023,0.2235141 0.064453,0.1328124 -0.03757,-0.090702 0.077327,0.2326193 0.048828,0.1386719 -0.028499,-0.093947 0.054309,0.2388665 0.035156,0.1425781 -0.019153,-0.096288 0.031107,0.2441865 0.021484,0.1464844 C 9.4825647,4.7558136 9.5,5.0981748 9.5,5 c 2.94e-5,-0.242423 -0.016066,0.3299024 -0.00195,0.087891 0.014113,-0.2420118 -0.035962,0.3267206 -0.00781,0.085937 0.028149,-0.2407831 -0.055763,0.3246786 -0.013672,0.085937 0.042091,-0.238741 -0.073468,0.32183 -0.017578,0.085937 0.055889,-0.2358925 -0.090984,0.3162315 -0.021484,0.083984 0.0695,-0.2322471 -0.1102188,0.3098484 -0.027344,0.082031 0.082875,-0.2278172 -0.1291735,0.3046488 -0.033203,0.082031 0.09597,-0.2226176 -0.145851,0.294791 -0.037109,0.078125 l -0.4003907,0.064453 1.2910159,1.2910157 0.07813,-0.40625 c -0.225032,0.096708 0.301901,-0.1125464 0.07226,-0.027344 -0.229635,0.085203 0.303964,-0.098869 0.07031,-0.025391 -0.233651,0.073479 0.311287,-0.081098 0.07422,-0.019531 -0.237069,0.061567 0.312144,-0.067075 0.07226,-0.017578 -0.239879,0.049497 0.318248,-0.050973 0.07617,-0.013672 -0.242075,0.037301 0.317871,-0.034775 0.07422,-0.00977 -0.243652,0.02501 0.320777,-0.018513 0.07617,-0.00586 -0.244606,0.012654 0.321104,-0.00222 0.07617,-0.00195 -0.09818,0 0.244186,0.017435 0.146484,0.00781 -0.0977,-0.00962 0.242773,0.040637 0.146484,0.021484 -0.09629,-0.019153 0.236526,0.063655 0.142579,0.035156 -0.09395,-0.028499 0.229373,0.086398 0.138671,0.048828 -0.0907,-0.03757 0.219395,0.1107324 0.132813,0.064453 -0.08658,-0.046279 0.208582,0.1287617 0.126953,0.074219 -0.08163,-0.054543 0.193078,0.1501721 0.117187,0.087891 -0.07589,-0.062282 0.178796,0.1690294 0.109376,0.099609 -0.06942,-0.06942 0.16189,0.1852651 0.09961,0.109375 -0.06228,-0.07589 0.142433,0.1988169 0.08789,0.1171875 -0.05454,-0.081629 0.120498,0.2135356 0.07422,0.1269532 -0.04628,-0.086582 0.102023,0.2235141 0.06445,0.1328124 -0.03757,-0.090702 0.07733,0.2326193 0.04883,0.1386719 -0.0285,-0.093947 0.05431,0.2388665 0.03516,0.1425781 -0.01915,-0.096288 0.03111,0.2441865 0.02148,0.1464844 -0.0096,-0.097702 0.0078,0.2446592 0.0078,0.1464844 0,-0.098175 -0.01744,0.2441864 -0.0078,0.1464844 0.0096,-0.097702 -0.04064,0.2427727 -0.02148,0.1464844 0.01915,-0.096288 -0.06365,0.2365255 -0.03516,0.1425781 0.0285,-0.093947 -0.0864,0.2293735 -0.04883,0.1386719 0.03757,-0.090702 -0.110732,0.2193949 -0.06445,0.1328124 0.04628,-0.086582 -0.128761,0.2085825 -0.07422,0.1269532 0.05454,-0.081629 -0.150173,0.1930776 -0.08789,0.1171875 0.06228,-0.07589 -0.16903,0.178795 -0.09961,0.109375 0.06942,-0.06942 -0.185266,0.1618908 -0.109376,0.099609 0.07589,-0.062281 -0.198816,0.1424337 -0.117187,0.087891 0.08163,-0.054543 -0.213536,0.120498 -0.126953,0.074219 0.08658,-0.046279 -0.223514,0.102023 -0.132813,0.064453 0.0907,-0.03757 -0.232619,0.077327 -0.138671,0.048828 0.09395,-0.028499 -0.238867,0.054309 -0.142579,0.035156 0.09629,-0.019153 -0.244186,0.031107 -0.146484,0.021484 0.0977,-0.00962 -0.244659,0.00781 -0.146484,0.00781 0.09817,0 -0.244187,-0.017435 -0.146485,-0.00781 0.0977,0.00962 -0.242772,-0.040637 -0.146484,-0.021484 0.09629,0.019153 -0.236526,-0.063655 -0.142578,-0.035156 0.09395,0.028499 -0.229374,-0.086398 -0.138672,-0.048828 0.0907,0.03757 -0.219395,-0.1107324 -0.132813,-0.064453 0.08658,0.046279 -0.2085821,-0.1287617 -0.126953,-0.074219 0.08163,0.054543 -0.1930774,-0.1501721 -0.1171872,-0.087891 0.07589,0.062282 -0.1787951,-0.1690294 -0.109375,-0.099609 0.06942,0.06942 -0.1618908,-0.1852651 -0.099609,-0.109375 C 9.8025158,9.027062 9.5978008,8.752355 9.6523438,8.8339844 9.7068867,8.9156137 9.5318457,8.6204488 9.578125,8.7070312 9.6244043,8.7936137 9.476102,8.4835171 9.5136719,8.5742188 9.5512417,8.6649204 9.4363451,8.3415995 9.4648438,8.4355469 9.4933424,8.5294943 9.4105346,8.1966804 9.4296875,8.2929688 9.4488404,8.3892571 9.3985803,8.0487823 9.4082031,8.1464844 9.4178259,8.2441864 9.4003906,7.9018252 9.4003906,8 c 2.099e-4,0.2475265 0.012339,-0.3117618 0.00195,-0.064453 -0.010386,0.2473086 0.024869,-0.3110905 0.00391,-0.064453 -0.020962,0.2466373 0.03736,-0.3080141 0.00586,-0.0625 -0.0315,0.245514 0.051747,-0.3083938 0.00977,-0.064453 -0.041981,0.2439407 0.064103,-0.30442 0.011719,-0.0625 -0.052384,0.2419201 0.078317,-0.301956 0.015625,-0.0625 -0.062692,0.239456 0.090462,-0.2990529 0.017578,-0.0625 -0.072884,0.236553 0.1024744,-0.2937632 0.019531,-0.060547 L 9.9003906,7.4023438 8.6855469,6.1894531 A 0.250025,0.250025 0 0 0 8.2597656,6.3671875 V 9.859375 L 8.6113281,9.6308594 c -0.097641,-0.043611 0.1919133,0.097386 0.097656,0.046875 -0.094257,-0.050511 0.1821826,0.1118381 0.091797,0.054687 -0.090386,-0.057151 0.1758914,0.1240416 0.089844,0.060547 -0.086048,-0.063495 0.1652494,0.1378703 0.083984,0.068359 -0.081265,-0.069511 0.1561408,0.1474339 0.080078,0.072266 -0.076063,-0.075168 0.1446862,0.1585622 0.074219,0.078125 -0.070467,-0.080437 0.1328677,0.169275 0.068359,0.08398 -0.064508,-0.08529 0.1187628,0.177594 0.060547,0.08789 -0.058216,-0.0897 0.1082635,0.187403 0.056641,0.09375 -0.051623,-0.09365 0.091638,0.192822 0.046875,0.0957 -0.044763,-0.09712 0.080641,0.199692 0.042969,0.09961 -0.037672,-0.100083 0.06359,0.204093 0.033203,0.101563 -0.030387,-0.10253 0.050288,0.209916 0.027344,0.105469 -0.022944,-0.104448 0.034914,0.211294 0.019531,0.105468 -0.015383,-0.105826 0.019462,0.21408 0.011719,0.107422 C 9.4883509,10.785921 9.5000625,11.106938 9.5,11 c 0,-0.09817 -0.017435,0.244186 -0.00781,0.146484 0.00962,-0.0977 -0.040637,0.242773 -0.021484,0.146485 0.019153,-0.09629 -0.063655,0.236525 -0.035156,0.142578 0.028499,-0.09395 -0.086398,0.229373 -0.048828,0.138672 0.03757,-0.0907 -0.1107324,0.219395 -0.064453,0.132812 0.046279,-0.08658 -0.1287617,0.208583 -0.074219,0.126953 0.054543,-0.08163 -0.1501721,0.193078 -0.087891,0.117188 0.062282,-0.07589 -0.1690294,0.178795 -0.099609,0.109375 0.06942,-0.06942 -0.1852651,0.161891 -0.109375,0.09961 0.07589,-0.06228 -0.1988169,0.142434 -0.1171875,0.08789 0.081629,-0.05454 -0.2135356,0.120498 -0.1269532,0.07422 0.086583,-0.04628 -0.2235141,0.100069 -0.1328124,0.0625 0.090702,-0.03757 -0.2326193,0.07928 -0.1386719,0.05078 0.093947,-0.0285 -0.2388665,0.05431 -0.1425781,0.03516 0.096288,-0.01915 -0.2441865,0.03111 -0.1464844,0.02149 C 8.2441864,12.482565 7.9018252,12.5 8,12.5 c 0.098175,0 -0.2441864,-0.01744 -0.1464844,-0.0078 0.097702,0.0096 -0.2427727,-0.04064 -0.1464844,-0.02149 0.096288,0.01915 -0.2365255,-0.06366 -0.1425781,-0.03516 0.093947,0.0285 -0.2293735,-0.08835 -0.1386719,-0.05078 0.090702,0.03757 -0.2193949,-0.10878 -0.1328124,-0.0625 0.086582,0.04628 -0.2085825,-0.128762 -0.1269532,-0.07422 0.081629,0.05454 -0.1930776,-0.150172 -0.1171875,-0.08789 0.07589,0.06228 -0.178795,-0.169029 -0.109375,-0.09961 0.06942,0.06942 -0.1618908,-0.185265 -0.099609,-0.109375 0.062281,0.07589 -0.1424337,-0.198817 -0.087891,-0.117188 0.054543,0.08163 -0.120498,-0.213535 -0.074219,-0.126953 0.046279,0.08658 -0.102023,-0.223514 -0.064453,-0.132812 0.03757,0.0907 -0.077327,-0.23262 -0.048828,-0.138672 0.028499,0.09395 -0.054309,-0.238867 -0.035156,-0.142578 0.019153,0.09629 -0.031107,-0.244187 -0.021484,-0.146485 C 6.5174353,11.244186 6.5,10.901825 6.5,11 c -9.77e-5,0.106767 0.011727,-0.215855 0.00391,-0.109375 -0.00782,0.10648 0.027221,-0.213058 0.011719,-0.107422 -0.015502,0.105636 0.042634,-0.211659 0.019531,-0.107422 -0.023103,0.104238 0.057926,-0.205809 0.027344,-0.103515 -0.030582,0.102293 0.073058,-0.203329 0.035156,-0.103516 -0.037901,0.09981 0.087991,-0.19642 0.042969,-0.09961 -0.045022,0.09681 0.1007349,-0.190957 0.048828,-0.09766 -0.051907,0.0933 0.1151603,-0.181097 0.056641,-0.0918 -0.05852,0.0893 0.1273258,-0.174678 0.0625,-0.08984 -0.064826,0.08483 0.1391518,-0.1639073 0.068359,-0.08399 -0.070792,0.07992 0.150607,-0.1527172 0.074219,-0.078125 -0.076388,0.074593 0.163615,-0.1411373 0.082031,-0.072266 -0.081584,0.068872 0.1703362,-0.1311493 0.083984,-0.068359 -0.086352,0.06279 0.1805113,-0.1169261 0.089844,-0.060547 -0.090668,0.056379 0.1902113,-0.1024075 0.095703,-0.052734 -0.094508,0.049673 0.1955099,-0.089582 0.097656,-0.046875 L 7.75,9.8554688 V 6.1445312 L 7.4003906,6.3730469 c 0.097854,0.042707 -0.1921644,-0.096548 -0.097656,-0.046875 0.094508,0.049673 -0.1863707,-0.1091136 -0.095703,-0.052734 0.090668,0.056379 -0.1761955,-0.1233368 -0.089844,-0.060547 0.086352,0.06279 -0.1655681,-0.137231 -0.083984,-0.068359 0.081584,0.068872 -0.1584195,-0.1468581 -0.082031,-0.072266 0.076388,0.074593 -0.1450113,-0.1580476 -0.074219,-0.078125 0.070793,0.079923 -0.1331852,-0.1688184 -0.068359,-0.083984 0.064826,0.084834 -0.1210197,-0.1791447 -0.0625,-0.089844 0.05852,0.089301 -0.1085475,-0.1850969 -0.056641,-0.091797 0.051907,0.0933 -0.09385,-0.1944665 -0.048828,-0.097656 C 6.685647,5.7276697 6.5597549,5.4314367 6.5976562,5.53125 6.6355576,5.6310633 6.5319179,5.3254409 6.5625,5.4277344 6.5930821,5.5300278 6.5120536,5.2199811 6.5351562,5.3242188 6.5582589,5.4284564 6.5001229,5.1111612 6.515625,5.2167969 6.5311271,5.3224326 6.4960858,5.0028947 6.5039062,5.109375 6.5117267,5.2158553 6.4999023,4.8932329 6.5,5 v -0.00195 c -0.00221,0.2502342 0.012833,-0.3027418 0.00195,-0.052734 -0.01088,0.2500074 0.021492,-0.3002613 0.00195,-0.050781 -0.019539,0.2494801 0.034033,-0.3013873 0.00586,-0.052734 -0.028174,0.2486529 0.042634,-0.2983084 0.00586,-0.050781 -0.036775,0.2475271 0.055098,-0.296885 0.00977,-0.050781 -0.045332,0.2461038 0.0636,-0.2971192 0.00977,-0.052734 -0.053834,0.2443848 0.073991,-0.2912002 0.011719,-0.048828 -0.062272,0.242372 0.084307,-0.2908494 0.013672,-0.050781 L 6.9765625,4.4804688 5.5507812,3.0546875 a 0.250025,0.250025 0 0 0 -0.3554687,0 l -4.109375,4.109375 c -0.44712972,0.4478799 -0.44725606,1.1812941 0,1.6289063 L 7.203125,14.914062 c 0.4473361,0.447769 1.1811036,0.447549 1.6289062,0 a 0.250025,0.250025 0 0 0 0.00195,0 L 14.914062,8.8300781 c 0.44741,-0.447689 0.447442,-1.1812863 0,-1.6289062 L 8.796875,1.0800781 C 8.6014604,0.88440779 8.3504423,0.79135602 8.0957031,0.76953125 A 0.250025,0.250025 0 0 0 8.0878906,0.76757812 0.250025,0.250025 0 0 0 8,0.75 Z"
       id="path103"
       inkscape:original="m8 1c-0.23051 0-0.48028 0.079979-0.65625 0.25586l-1.2656 1.2656 1.3613 1.3613a1.25 1.25 0 0 1 0.56055-0.13281 1.25 1.25 0 0 1 1.25 1.25 1.25 1.25 0 0 1-0.13281 0.56055l1.291 1.291a1.25 1.25 0 0 1 0.49219-0.10156 1.25 1.25 0 0 1 1.25 1.25 1.25 1.25 0 0 1-1.25 1.25 1.25 1.25 0 0 1-1.25-1.25 1.25 1.25 0 0 1 0.072266-0.41992l-1.2129-1.2129v3.4922a1.25 1.25 0 0 1 0.74023 1.1406 1.25 1.25 0 0 1-1.25 1.25 1.25 1.25 0 0 1-1.25-1.25 1.25 1.25 0 0 1 0.75-1.1445v-3.7109a1.25 1.25 0 0 1-0.75-1.1445 1.25 1.25 0 0 1 0.050781-0.3418l-1.4277-1.4277-4.1094 4.1094c-0.35165 0.35224-0.35165 0.92347 0 1.2754l6.1172 6.1211c0.35154 0.35188 0.92332 0.35188 1.2754 0l6.0801-6.084c0.35176-0.35198 0.35176-0.9235 0-1.2754l-6.1172-6.1211c-0.17574-0.17597-0.38863-0.25586-0.61914-0.25586z"
       transform="matrix(4,0,0,4,16,17)"
       inkscape:radius="0.25"
       sodipodi:type="inkscape:offset" />
    <g
       id="Bevel1">
      <path
         fill="#000"
         opacity=".10"
         sodipodi:type="inkscape:offset"
         inkscape:radius="0.5"
         transform="translate(16,17) scale(4)"
         inkscape:original="m8 1c-0.23051 0-0.48028 0.079979-0.65625 0.25586l-1.2656 1.2656 1.3613 1.3613a1.25 1.25 0 0 1 0.56055-0.13281 1.25 1.25 0 0 1 1.25 1.25 1.25 1.25 0 0 1-0.13281 0.56055l1.291 1.291a1.25 1.25 0 0 1 0.49219-0.10156 1.25 1.25 0 0 1 1.25 1.25 1.25 1.25 0 0 1-1.25 1.25 1.25 1.25 0 0 1-1.25-1.25 1.25 1.25 0 0 1 0.072266-0.41992l-1.2129-1.2129v3.4922a1.25 1.25 0 0 1 0.74023 1.1406 1.25 1.25 0 0 1-1.25 1.25 1.25 1.25 0 0 1-1.25-1.25 1.25 1.25 0 0 1 0.75-1.1445v-3.7109a1.25 1.25 0 0 1-0.75-1.1445 1.25 1.25 0 0 1 0.050781-0.3418l-1.4277-1.4277-4.1094 4.1094c-0.35165 0.35224-0.35165 0.92347 0 1.2754l6.1172 6.1211c0.35154 0.35188 0.92332 0.35188 1.2754 0l6.0801-6.084c0.35176-0.35198 0.35176-0.9235 0-1.2754l-6.1172-6.1211c-0.17574-0.17597-0.38863-0.25586-0.61914-0.25586z"
         id="path106" />
    </g>
    <g
       id="Bevel2">
      <path
         fill="#000"
         opacity=".05"
         sodipodi:type="inkscape:offset"
         inkscape:radius="0.75"
         transform="translate(16,17) scale(4)"
         inkscape:original="m8 1c-0.23051 0-0.48028 0.079979-0.65625 0.25586l-1.2656 1.2656 1.3613 1.3613a1.25 1.25 0 0 1 0.56055-0.13281 1.25 1.25 0 0 1 1.25 1.25 1.25 1.25 0 0 1-0.13281 0.56055l1.291 1.291a1.25 1.25 0 0 1 0.49219-0.10156 1.25 1.25 0 0 1 1.25 1.25 1.25 1.25 0 0 1-1.25 1.25 1.25 1.25 0 0 1-1.25-1.25 1.25 1.25 0 0 1 0.072266-0.41992l-1.2129-1.2129v3.4922a1.25 1.25 0 0 1 0.74023 1.1406 1.25 1.25 0 0 1-1.25 1.25 1.25 1.25 0 0 1-1.25-1.25 1.25 1.25 0 0 1 0.75-1.1445v-3.7109a1.25 1.25 0 0 1-0.75-1.1445 1.25 1.25 0 0 1 0.050781-0.3418l-1.4277-1.4277-4.1094 4.1094c-0.35165 0.35224-0.35165 0.92347 0 1.2754l6.1172 6.1211c0.35154 0.35188 0.92332 0.35188 1.2754 0l6.0801-6.084c0.35176-0.35198 0.35176-0.9235 0-1.2754l-6.1172-6.1211c-0.17574-0.17597-0.38863-0.25586-0.61914-0.25586z"
         id="path109" />
    </g>
    <path
       d="m8 1c-0.23051 0-0.48028 0.079979-0.65625 0.25586l-1.2656 1.2656 1.3613 1.3613a1.25 1.25 0 0 1 0.56055-0.13281 1.25 1.25 0 0 1 1.25 1.25 1.25 1.25 0 0 1-0.13281 0.56055l1.291 1.291a1.25 1.25 0 0 1 0.49219-0.10156 1.25 1.25 0 0 1 1.25 1.25 1.25 1.25 0 0 1-1.25 1.25 1.25 1.25 0 0 1-1.25-1.25 1.25 1.25 0 0 1 0.072266-0.41992l-1.2129-1.2129v3.4922a1.25 1.25 0 0 1 0.74023 1.1406 1.25 1.25 0 0 1-1.25 1.25 1.25 1.25 0 0 1-1.25-1.25 1.25 1.25 0 0 1 0.75-1.1445v-3.7109a1.25 1.25 0 0 1-0.75-1.1445 1.25 1.25 0 0 1 0.050781-0.3418l-1.4277-1.4277-4.1094 4.1094c-0.35165 0.35224-0.35165 0.92347 0 1.2754l6.1172 6.1211c0.35154 0.35188 0.92332 0.35188 1.2754 0l6.0801-6.084c0.35176-0.35198 0.35176-0.9235 0-1.2754l-6.1172-6.1211c-0.17574-0.17597-0.38863-0.25586-0.61914-0.25586z"
       fill="url(#a)"
       id="base"
       transform="translate(16,16) scale(4)" />
    <path
       style="opacity:0.3;fill:#000000;stroke-width:4"
       d="M 40.8125 24.585938 L 40.3125 25.085938 L 45.757812 30.53125 A 5 5 0 0 1 48 30 A 5 5 0 0 1 52.972656 34.513672 A 5 5 0 0 0 53 34 A 5 5 0 0 0 48 29 A 5 5 0 0 0 45.757812 29.53125 L 40.8125 24.585938 z M 43.035156 33.464844 A 5 5 0 0 0 43 34 A 5 5 0 0 0 43.03125 34.496094 A 5 5 0 0 1 43.203125 33.632812 L 43.035156 33.464844 z M 52.757812 36.53125 A 5 5 0 0 1 52.46875 37.242188 L 57.632812 42.40625 A 5 5 0 0 1 59.601562 42 A 5 5 0 0 1 64.574219 46.513672 A 5 5 0 0 0 64.601562 46 A 5 5 0 0 0 59.601562 41 A 5 5 0 0 0 57.632812 41.40625 L 52.757812 36.53125 z M 54.685547 45.115234 A 5 5 0 0 0 54.601562 46 A 5 5 0 0 0 54.628906 46.484375 A 5 5 0 0 1 54.890625 45.320312 L 54.685547 45.115234 z M 20.048828 46.410156 C 19.897688 47.492867 20.223502 48.62909 21.054688 49.460938 L 45.523438 73.945312 C 46.929597 75.352833 49.21668 75.352833 50.625 73.945312 L 74.945312 49.609375 C 75.776386 48.777782 76.103805 47.64094 75.953125 46.558594 C 75.848698 47.308726 75.521279 48.033048 74.945312 48.609375 L 50.625 72.945312 C 49.21668 74.352833 46.929597 74.352833 45.523438 72.945312 L 21.054688 48.460938 C 20.478914 47.884706 20.153231 47.160105 20.048828 46.410156 z M 46 53.421875 A 5 5 0 0 0 43 58 A 5 5 0 0 0 43.027344 58.484375 A 5 5 0 0 1 46 54.421875 L 46 53.421875 z M 50.039062 53.4375 L 50.039062 54.4375 A 5 5 0 0 1 52.970703 58.523438 A 5 5 0 0 0 53 58 A 5 5 0 0 0 50.039062 53.4375 z "
       transform="translate(0,2)"
       id="path113" />
    <path
       style="fill:#ffffff;stroke-width:4"
       d="M 48 18 C 47.07796 18 46.07888 18.319913 45.375 19.023438 L 40.3125 24.085938 L 40.8125 24.585938 L 45.375 20.023438 C 46.07888 19.319913 47.07796 19 48 19 C 48.92204 19 49.773603 19.319557 50.476562 20.023438 L 74.945312 44.507812 C 75.521279 45.084008 75.848698 45.808485 75.953125 46.558594 C 76.103805 45.476213 75.776386 44.339217 74.945312 43.507812 L 50.476562 19.023438 C 49.773603 18.319557 48.92204 18 48 18 z M 37.492188 26.921875 L 21.054688 43.359375 C 20.223861 44.191596 19.898177 45.327998 20.048828 46.410156 C 20.15346 45.660616 20.479273 44.935755 21.054688 44.359375 L 37.492188 27.921875 L 43.035156 33.464844 A 5 5 0 0 1 43.203125 32.632812 L 37.492188 26.921875 z M 43.03125 34.496094 A 5 5 0 0 0 43 35 A 5 5 0 0 0 46 39.578125 L 46 38.578125 A 5 5 0 0 1 43.03125 34.496094 z M 52.972656 34.513672 A 5 5 0 0 1 52.46875 36.242188 L 52.757812 36.53125 A 5 5 0 0 0 53 35 A 5 5 0 0 0 52.972656 34.513672 z M 50.039062 39.46875 L 50.039062 40.46875 L 54.685547 45.115234 A 5 5 0 0 1 54.890625 44.320312 L 50.039062 39.46875 z M 54.628906 46.484375 A 5 5 0 0 0 54.601562 47 A 5 5 0 0 0 59.601562 52 A 5 5 0 0 0 64.601562 47 A 5 5 0 0 0 64.574219 46.513672 A 5 5 0 0 1 59.601562 51 A 5 5 0 0 1 54.628906 46.484375 z M 43.027344 58.484375 A 5 5 0 0 0 43 59 A 5 5 0 0 0 48 64 A 5 5 0 0 0 53 59 A 5 5 0 0 0 52.970703 58.523438 A 5 5 0 0 1 48 63 A 5 5 0 0 1 43.027344 58.484375 z "
       transform="translate(0,2)"
       id="path118" />
  </g>
</svg>
