<?xml version="1.0" encoding="UTF-8" standalone="no"?>
<svg
   xmlns:dc="http://purl.org/dc/elements/1.1/"
   xmlns:cc="http://creativecommons.org/ns#"
   xmlns:rdf="http://www.w3.org/1999/02/22-rdf-syntax-ns#"
   xmlns:svg="http://www.w3.org/2000/svg"
   xmlns="http://www.w3.org/2000/svg"
   xmlns:xlink="http://www.w3.org/1999/xlink"
   xmlns:sodipodi="http://sodipodi.sourceforge.net/DTD/sodipodi-0.dtd"
   xmlns:inkscape="http://www.inkscape.org/namespaces/inkscape"
   width="96"
   height="96"
   version="1.1"
   id="svg88"
   sodipodi:docname="gitkraken.svg"
   inkscape:version="0.92.2 5c3e80d, 2017-08-06">
  <metadata
     id="metadata92">
    <rdf:RDF>
      <cc:Work
         rdf:about="">
        <dc:format>image/svg+xml</dc:format>
        <dc:type
           rdf:resource="http://purl.org/dc/dcmitype/StillImage" />
      </cc:Work>
    </rdf:RDF>
  </metadata>
  <sodipodi:namedview
     pagecolor="#ffffff"
     bordercolor="#666666"
     borderopacity="1"
     objecttolerance="10"
     gridtolerance="10"
     guidetolerance="10"
     inkscape:pageopacity="0"
     inkscape:pageshadow="2"
     inkscape:window-width="640"
     inkscape:window-height="480"
     id="namedview90"
     showgrid="false"
     inkscape:zoom="2.4583333"
     inkscape:cx="48"
     inkscape:cy="48"
     inkscape:window-x="0"
     inkscape:window-y="25"
     inkscape:window-maximized="0"
     inkscape:current-layer="svg88" />
  <defs
     id="defs2410">
    <linearGradient
       id="linearGradient4384">
      <stop
         id="stop4386"
         stop-color="#fff"
         offset="0" />
      <stop
         id="stop4388"
         stop-color="#fff"
         stop-opacity="0"
         offset="1" />
    </linearGradient>
    <filter
       id="filter3794"
       x="-.192"
       y="-.192"
       width="1.384"
       height="1.384">
      <feGaussianBlur
         id="feGaussianBlur3796"
         stdDeviation="5.28" />
    </filter>
    <linearGradient
       id="linearGradient3613"
       x1="48"
       x2="48"
       y1="20.221"
       y2="138.66"
       gradientUnits="userSpaceOnUse">
      <stop
         id="stop3739"
         stop-color="#fff"
         offset="0" />
      <stop
         id="stop3741"
         stop-color="#fff"
         stop-opacity="0"
         offset="1" />
    </linearGradient>
    <linearGradient
       id="buttonGradient"
       x1="48"
       x2="48"
       y1="90"
       y2="5.9877"
       gradientUnits="userSpaceOnUse">
      <stop
         id="stop3702"
         stop-color="#141422"
         offset="0" />
      <stop
         id="stop3704"
         stop-color="#262633"
         offset="1" />
    </linearGradient>
    <linearGradient
       id="ButtonShadow-0"
       x1="45.448"
       x2="45.448"
       y1="92.54"
       y2="7.0165"
       gradientTransform="matrix(1.0059 0 0 .99417 100 0)"
       gradientUnits="userSpaceOnUse">
      <stop
         id="stop3750-8"
         offset="0" />
      <stop
         id="stop3752-5"
         stop-opacity=".58824"
         offset="1" />
    </linearGradient>
    <linearGradient
       id="linearGradient3780"
       x1="32.251"
       x2="32.251"
       y1="6.1317"
       y2="90.239"
       gradientTransform="matrix(1.0238 0 0 1.0119 -1.1429 -98.071)"
       gradientUnits="userSpaceOnUse"
       xlink:href="#ButtonShadow-0" />
    <linearGradient
       id="linearGradient3721"
       x1="32.251"
       x2="32.251"
       y1="6.1317"
       y2="90.239"
       gradientTransform="translate(0,-97)"
       gradientUnits="userSpaceOnUse"
       xlink:href="#ButtonShadow-0" />
    <clipPath
       id="clipPath4355">
      <rect
         id="rect4357"
         x="6"
         y="6"
         width="84"
         height="80"
         rx="6"
         ry="6"
         fill="#fff" />
    </clipPath>
    <linearGradient
       id="linearGradient4390"
       x1="48"
       x2="48"
       y1="88"
       y2="-40"
       gradientTransform="matrix(1,0,0,-1,0,92)"
       gradientUnits="userSpaceOnUse"
       xlink:href="#linearGradient4384" />
    <linearGradient
       id="linearGradient4429"
       x1="48"
       x2="112.12"
       y1="82"
       y2="82.455"
       gradientUnits="userSpaceOnUse"
       spreadMethod="reflect"
       xlink:href="#linearGradient4384" />
    <linearGradient
       id="linearGradient3228"
       x1="90"
       x2="48"
       y1="88"
       y2="88"
       gradientUnits="userSpaceOnUse"
       spreadMethod="reflect">
      <stop
         id="stop3894"
         stop-opacity=".58824"
         offset="0" />
      <stop
         id="stop3896"
         stop-opacity=".47059"
         offset=".1178" />
      <stop
         id="stop3898"
         stop-opacity=".39216"
         offset=".2381" />
      <stop
         id="stop3900"
         stop-opacity=".31373"
         offset="1" />
    </linearGradient>
  </defs>
  <g
     id="layer3">
    <g
       id="g32"
       fill="url(#linearGradient3780)">
      <path
         id="path3786"
         transform="scale(1,-1)"
         d="m12-95.021c-5.5111 0-10.022 4.51-10.022 10.021v71c0 5.5111 4.5104 10.021 10.021 10.021h72c5.5111 0 10.021-4.5104 10.021-10.021v-71c0-5.5111-4.5104-10.021-10.021-10.021h-72z"
         opacity=".08" />
      <path
         id="path3778"
         transform="scale(1,-1)"
         d="m12-94.035c-4.9716 0-9.0352 4.0635-9.0352 9.0352v71c0 4.9716 4.0635 9.0352 9.0352 9.0352h72c4.9716 0 9.0352-4.0635 9.0352-9.0352v-71c0-4.9716-4.0635-9.0352-9.0352-9.0352h-72z"
         opacity=".1" />
      <path
         id="path3770"
         transform="scale(1,-1)"
         d="m12-92.99c-4.4091 0-7.9902 3.5811-7.9902 7.9902v71c0 4.4091 3.5811 7.9902 7.9902 7.9902h72c4.4091 0 7.9902-3.5811 7.9902-7.9902v-71c0-4.4091-3.5811-7.9902-7.9902-7.9902h-72z"
         opacity=".2" />
      <rect
         id="rect3723"
         transform="scale(1,-1)"
         x="5"
         y="-92"
         width="86"
         height="85"
         rx="7"
         ry="7"
         opacity=".3" />
    </g>
    <rect
       id="rect3716"
       transform="scale(1,-1)"
       x="6"
       y="-91"
       width="84"
       height="84"
       rx="6"
       ry="6"
       fill="url(#linearGradient3721)"
       opacity=".45" />
  </g>
  <g
     id="layer1">
    <rect
       id="button"
       x="6"
       y="6"
       width="84"
       height="84"
       rx="6"
       ry="6"
       fill="url(#buttonGradient)" />
    <path
       id="rect4377"
       d="m12 86c-3.324 0-6-2.676-6-6v-68c0-3.324 2.676-6 6-6h72c3.324 0 6 2.676 6 6v68c0 3.324-2.676 6-6 6zm0-0.96875h72c2.8049 0 5.0312-2.2264 5.0312-5.0312v-68c0-2.8049-2.226-5.0312-5.031-5.0312h-72c-2.8049 0-5.0312 2.2263-5.0312 5.0312v68c0 2.8049 2.2264 5.0312 5.0312 5.0312z"
       fill="url(#linearGradient4390)"
       opacity=".3" />
    <path
       id="rect4414"
       d="m6 78v2c0 3.324 2.676 6 6 6h72c3.324 0 6-2.676 6-6v-2c0 3.324-2.676 6-6 6h-72c-3.324 0-6-2.676-6-6z"
       fill="url(#linearGradient4429)"
       opacity=".1" />
  </g>
  <g
     id="layer4">
    <path
       id="path3888"
       d="m6 80v4c0 3.324 2.676 6 6 6h72c3.324 0 6-2.676 6-6v-4c0 3.324-2.676 6-6 6h-72c-3.324 0-6-2.676-6-6z"
       fill="url(#linearGradient3228)" />
    <path
       id="rect4345"
       d="m6 82v2c0 3.324 2.676 6 6 6h72c3.324 0 6-2.676 6-6v-2c0 3.324-2.676 6-6 6h-72c-3.324 0-6-2.676-6-6z"
       color="#000000"
       opacity=".1" />
    <path
       id="rect4336"
       d="m6 83v1c0 3.324 2.676 6 6 6h72c3.324 0 6-2.676 6-6v-1c0 3.324-2.676 6-6 6h-72c-3.324 0-6-2.676-6-6z"
       color="#000000"
       opacity=".15" />
  </g>
  <g
     id="layer5">
    <rect
       id="rect3171"
       x="15"
       y="15"
       width="66"
       height="62"
       rx="12"
       ry="12"
       clip-path="url(#clipPath4355)"
       fill="url(#linearGradient3613)"
       filter="url(#filter3794)"
       opacity=".1"
       stroke="#fff"
       stroke-linecap="round"
       stroke-width=".5" />
  </g>
  <defs
     id="defs53">
    <filter
       id="w">
      <feGaussianBlur
         stdDeviation="0.68880677"
         id="feGaussianBlur45" />
    </filter>
    <linearGradient
       id="a"
       gradientUnits="userSpaceOnUse"
       x1="8"
       y1="2.0000124"
       x2="8"
       y2="13.9998544">
      <stop
         stop-color="#149287"
         offset="0"
         id="stop48" />
      <stop
         stop-color="#149287"
         offset="1"
         id="stop50" />
    </linearGradient>
  </defs>
  <g
     transform="translate(0,-2)"
     id="g86">
    <path
       d="m14.55 4.7122c-0.0577-0.14743-0.23065-0.21547-0.36903-0.15877-0.10379 0.045333-0.17298 0.14742-0.17298 0.24948 0 0.034025 0 0.068049 0.0231 0.090765 0.26524 0.69176 0.41516 1.4402 0.41516 2.2341 0 3.2093-2.4333 5.8743-5.5931 6.2712v-2.9598c0.19604-0.03402 0.38056-0.09077 0.56507-0.14742v2.4835c2.5717-0.61238 4.4975-2.9031 4.4975-5.6475 0-2.1887-1.2339-4.1052-3.056-5.0918-0.13839-0.079358-0.31137-0.022716-0.38056 0.12474-0.0231 0.034025-0.0231 0.079358-0.0231 0.12474 0 0.10206 0.0577 0.19279 0.13839 0.23815 1.6491 0.89589 2.7677 2.631 2.7677 4.6155 0 2.2341-1.4069 4.1392-3.402 4.9104v-2.2c0.34596-0.10206 0.59967-0.4196 0.59967-0.80517 0-0.31753-0.16145-0.57836-0.42669-0.72578 0.19605-1.9052 1.084-1.3949 1.084-2.0072v-0.35156c0-0.90723-2.1334-3.8671-3.1367-3.9351h-0.0922-0.0923c-1.0033 0.068049-3.1367 3.0279-3.1367 3.9351v0.35156c0 0.60104 0.87644 0.10206 1.084 2.0072-0.2537 0.14742-0.41515 0.41959-0.41515 0.72578 0 0.37423 0.2537 0.69176 0.59967 0.80517v2.2c-1.9835-0.77115-3.402-2.6763-3.402-4.9104 0-1.9846 1.1186-3.7196 2.7677-4.6155 0.12685-0.068049 0.18451-0.2268 0.11532-0.36289-0.0346-0.10206-0.13839-0.15877-0.24217-0.15877-0.0461 0-0.0923 0.011309-0.13839 0.034025-1.8221 0.98662-3.056 2.9031-3.056 5.0918 0 2.7444 1.9259 5.0351 4.5206 5.6588v-2.4835c0.18451 0.05674 0.36903 0.1134 0.56507 0.14743v2.9598c-3.1598-0.40825-5.5931-3.0619-5.5931-6.2826 0-0.78249 0.14992-1.531 0.41516-2.2341 0.0577-0.13609-0.0115-0.29485-0.14992-0.35156-0.0346-0.011309-0.0692-0.022716-0.10379-0.022716-0.11532 0-0.21911 0.068049-0.26524 0.18145-0.29983 0.7598-0.46128 1.5763-0.46128 2.4268 0 3.7083 2.9753 6.7248 6.7117 6.8723v-3.4815c0.10379 0.011309 0.2883 0.011309 0.2883 0.011309s0.18451 0 0.2883-0.01131v3.4815c3.7364-0.14743 6.7117-3.164 6.7117-6.8723-0.0115-0.85053-0.16145-1.667-0.44975-2.4155zm-5.2586 3.9238c0.10379-0.10206 0.24217-0.1701 0.40362-0.1701s0.29984 0.068049 0.40363 0.1701c0.10378 0.10206 0.17298 0.23815 0.17298 0.39692s-0.0692 0.29484-0.17298 0.39691c-0.10379 0.10206-0.24218 0.1701-0.40363 0.1701s-0.29983-0.068049-0.40362-0.1701c-0.10379-0.10206-0.17298-0.23814-0.17298-0.39691s0.0692-0.29485 0.17298-0.39692zm-2.5832 0.79383c-0.10379 0.10206-0.24217 0.1701-0.40362 0.1701s-0.29984-0.068049-0.40363-0.1701c-0.11532-0.10206-0.17298-0.23814-0.17298-0.39691s0.0692-0.29485 0.17298-0.39692c0.10379-0.10206 0.24218-0.1701 0.40363-0.1701s0.29983 0.068049 0.40362 0.1701c0.10379 0.10206 0.17298 0.23815 0.17298 0.39692-0.0115 0.15877-0.0692 0.29484-0.17298 0.39691z"
       fill="url(#a)"
       id="base"
       transform="translate(16,16) scale(4)" />
    <path
       style="opacity:0.07999998;fill:#000000;stroke-width:4"
       d="M 59.005859 22.005859 C 58.564751 21.963314 58.123586 22.200213 57.916016 22.642578 C 57.823616 22.778678 57.824219 22.96105 57.824219 23.142578 C 57.824219 23.550818 58.054193 23.91231 58.376953 24.09375 C 64.973353 27.67731 69.449219 34.618641 69.449219 42.556641 C 69.449219 51.493041 63.820244 59.112466 55.839844 62.197266 L 55.839844 53.398438 C 57.223684 52.990198 58.240234 51.720014 58.240234 50.177734 C 58.240234 48.907614 57.594163 47.863117 56.533203 47.273438 C 57.317403 39.652637 60.869141 41.695294 60.869141 39.246094 L 60.869141 37.839844 C 60.869141 34.210924 52.335466 22.371609 48.322266 22.099609 L 47.953125 22.099609 L 47.583984 22.099609 C 43.570784 22.371805 35.037109 34.211044 35.037109 37.839844 L 35.037109 39.246094 C 35.037109 41.650254 38.542807 39.652877 39.373047 47.273438 C 38.358247 47.863118 37.712891 48.952974 37.712891 50.177734 C 37.712891 51.674654 38.727448 52.944798 40.111328 53.398438 L 40.111328 62.197266 C 32.177328 59.112666 26.503906 51.493041 26.503906 42.556641 C 26.503906 34.618241 30.977819 27.67735 37.574219 24.09375 C 38.081619 23.821554 38.311916 23.186938 38.035156 22.642578 C 37.896756 22.234338 37.481526 22.007812 37.066406 22.007812 C 36.882006 22.007812 36.698032 22.053671 36.513672 22.144531 C 29.225272 26.091011 24.289062 33.756919 24.289062 42.511719 C 24.289062 53.489319 31.992294 62.651684 42.371094 65.146484 L 42.371094 55.212891 C 43.109134 55.439851 43.846699 55.666614 44.630859 55.802734 L 44.630859 67.640625 C 31.991659 66.007625 22.259766 55.392566 22.259766 42.509766 C 22.259766 39.379806 22.858962 36.386619 23.919922 33.574219 C 24.150722 33.029859 23.873992 32.394809 23.320312 32.167969 C 23.181912 32.122729 23.042657 32.078125 22.904297 32.078125 C 22.443017 32.078125 22.02827 32.34913 21.84375 32.802734 C 20.64443 35.841934 19.998047 39.107766 19.998047 42.509766 C 19.998047 57.342966 31.900103 69.41 46.845703 70 L 46.845703 56.074219 C 47.260863 56.119459 47.998047 56.119141 47.998047 56.119141 C 47.998047 56.119141 48.737184 56.119459 49.152344 56.074219 L 49.152344 70 C 64.097944 69.41028 75.998047 57.342966 75.998047 42.509766 C 75.952056 39.108294 75.351988 35.843143 74.199219 32.849609 C 74.199219 32.849609 74.199219 32.847656 74.199219 32.847656 C 73.967801 32.259033 73.277633 31.986294 72.724609 32.212891 C 72.309449 32.394223 72.03125 32.802697 72.03125 33.210938 C 72.03125 33.347037 72.0326 33.483355 72.125 33.574219 C 73.18596 36.341259 73.785156 39.336119 73.785156 42.511719 C 73.785156 55.348919 64.051309 66.008103 51.412109 67.595703 L 51.412109 55.755859 C 52.196269 55.619779 52.935788 55.394569 53.673828 55.167969 L 53.673828 65.101562 C 63.960628 62.652042 71.662109 53.489319 71.662109 42.511719 C 71.662109 33.756919 66.727853 26.090931 59.439453 22.144531 C 59.301063 22.065173 59.152896 22.020041 59.005859 22.005859 z M 47.703125 24.101562 L 47.953125 24.101562 L 48.203125 24.101562 C 48.289955 24.112231 49.433134 24.590812 50.648438 25.664062 C 51.871017 26.743739 53.251247 28.277887 54.507812 29.921875 C 55.764378 31.565863 56.906749 33.328549 57.703125 34.828125 C 58.499505 36.327701 58.867188 37.712559 58.867188 37.835938 L 58.867188 39.015625 C 58.704332 39.110662 58.372706 39.283518 57.789062 39.726562 C 56.579258 40.64492 55.427775 42.675195 54.851562 45.898438 C 54.823252 45.897848 54.809709 45.867188 54.78125 45.867188 C 53.573542 45.867188 52.497609 46.397404 51.765625 47.117188 C 51.033803 47.836951 50.476562 48.916598 50.476562 50.132812 C 50.476562 51.348943 51.033595 52.428609 51.765625 53.148438 C 51.928933 53.30901 52.242216 53.291422 52.4375 53.429688 C 51.969938 53.566071 51.493013 53.715709 51.070312 53.789062 A 2.0002 2.0002 0 0 0 50.046875 54.289062 A 2.0002 2.0002 0 0 0 48.9375 54.085938 C 48.776098 54.103526 48 54.117188 48 54.117188 C 48 54.117187 47.223923 54.10353 47.0625 54.085938 A 2.0002 2.0002 0 0 0 45.9375 54.289062 A 2.0002 2.0002 0 0 0 44.976562 53.828125 C 44.526759 53.750045 44.024228 53.593148 43.523438 53.445312 C 43.731814 53.300663 44.061621 53.318312 44.234375 53.148438 C 45.018813 52.376925 45.44075 51.307167 45.515625 50.273438 A 2.0002 2.0002 0 0 0 45.523438 50.132812 C 45.523438 48.916683 44.966451 47.837061 44.234375 47.117188 C 43.502447 46.397523 42.426532 45.867188 41.21875 45.867188 C 41.156496 45.867188 41.124031 45.926895 41.0625 45.929688 C 40.47552 42.677423 39.317597 40.648268 38.109375 39.71875 C 37.534143 39.276209 37.206366 39.106356 37.039062 39.007812 L 37.039062 37.835938 C 37.039063 37.712615 37.406747 36.327683 38.203125 34.828125 C 38.999504 33.328568 40.134058 31.565861 41.390625 29.921875 C 42.647193 28.277889 44.035224 26.743763 45.257812 25.664062 C 46.473125 24.590788 47.616247 24.112239 47.703125 24.101562 z M 41.21875 47.863281 C 41.86455 47.863281 42.416871 48.136718 42.832031 48.544922 C 43.247191 48.953162 43.525391 49.495779 43.525391 50.130859 C 43.479391 50.765939 43.247151 51.31047 42.832031 51.71875 C 42.416871 52.12699 41.86455 52.400391 41.21875 52.400391 C 40.57295 52.400391 40.018676 52.126954 39.603516 51.71875 C 39.142236 51.31051 38.912109 50.765939 38.912109 50.130859 C 38.912109 49.495779 39.188396 48.953202 39.603516 48.544922 C 40.018676 48.136682 40.57295 47.863281 41.21875 47.863281 z M 54.779297 47.863281 C 55.425097 47.863281 55.979371 48.136718 56.394531 48.544922 C 56.809651 48.953162 57.085938 49.495779 57.085938 50.130859 C 57.085938 50.765939 56.809651 51.31047 56.394531 51.71875 C 55.979371 52.12699 55.425097 52.400391 54.779297 52.400391 C 54.133497 52.400391 53.581176 52.126954 53.166016 51.71875 C 52.750856 51.31051 52.474609 50.765939 52.474609 50.130859 C 52.474609 49.495779 52.750896 48.953202 53.166016 48.544922 C 53.581176 48.136682 54.133497 47.863281 54.779297 47.863281 z "
       transform="translate(0,2)"
       id="path56" />
    <path
       style="opacity:0.1;fill:#000000;stroke-width:4"
       d="M 59.005859 22.005859 C 58.564751 21.963314 58.123586 22.200213 57.916016 22.642578 C 57.823616 22.778678 57.824219 22.96105 57.824219 23.142578 C 57.824219 23.550818 58.054193 23.91231 58.376953 24.09375 C 64.973353 27.67731 69.449219 34.618641 69.449219 42.556641 C 69.449219 51.493041 63.820244 59.112466 55.839844 62.197266 L 55.839844 53.398438 C 57.223684 52.990198 58.240234 51.720014 58.240234 50.177734 C 58.240234 48.907614 57.594163 47.863117 56.533203 47.273438 C 57.317403 39.652637 60.869141 41.695294 60.869141 39.246094 L 60.869141 37.839844 C 60.869141 34.210924 52.335466 22.371609 48.322266 22.099609 L 47.953125 22.099609 L 47.583984 22.099609 C 43.570784 22.371805 35.037109 34.211044 35.037109 37.839844 L 35.037109 39.246094 C 35.037109 41.650254 38.542807 39.652877 39.373047 47.273438 C 38.358247 47.863118 37.712891 48.952974 37.712891 50.177734 C 37.712891 51.674654 38.727448 52.944798 40.111328 53.398438 L 40.111328 62.197266 C 32.177328 59.112666 26.503906 51.493041 26.503906 42.556641 C 26.503906 34.618241 30.977819 27.67735 37.574219 24.09375 C 38.081619 23.821554 38.311916 23.186938 38.035156 22.642578 C 37.896756 22.234338 37.481526 22.007812 37.066406 22.007812 C 36.882006 22.007812 36.698032 22.053671 36.513672 22.144531 C 29.225272 26.091011 24.289062 33.756919 24.289062 42.511719 C 24.289062 53.489319 31.992294 62.651684 42.371094 65.146484 L 42.371094 55.212891 C 43.109134 55.439851 43.846699 55.666614 44.630859 55.802734 L 44.630859 67.640625 C 31.991659 66.007625 22.259766 55.392566 22.259766 42.509766 C 22.259766 39.379806 22.858962 36.386619 23.919922 33.574219 C 24.150722 33.029859 23.873992 32.394809 23.320312 32.167969 C 23.181912 32.122729 23.042657 32.078125 22.904297 32.078125 C 22.443017 32.078125 22.02827 32.34913 21.84375 32.802734 C 20.64443 35.841934 19.998047 39.107766 19.998047 42.509766 C 19.998047 57.342966 31.900103 69.41 46.845703 70 L 46.845703 56.074219 C 47.260863 56.119459 47.998047 56.119141 47.998047 56.119141 C 47.998047 56.119141 48.737184 56.119459 49.152344 56.074219 L 49.152344 70 C 64.097944 69.41028 75.998047 57.342966 75.998047 42.509766 C 75.952056 39.108294 75.351988 35.843143 74.199219 32.849609 C 74.199219 32.849609 74.199219 32.847656 74.199219 32.847656 C 73.967801 32.259033 73.277633 31.986294 72.724609 32.212891 C 72.309449 32.394223 72.03125 32.802697 72.03125 33.210938 C 72.03125 33.347037 72.0326 33.483355 72.125 33.574219 C 73.18596 36.341259 73.785156 39.336119 73.785156 42.511719 C 73.785156 55.348919 64.051309 66.008103 51.412109 67.595703 L 51.412109 55.755859 C 52.196269 55.619779 52.935788 55.394569 53.673828 55.167969 L 53.673828 65.101562 C 63.960628 62.652042 71.662109 53.489319 71.662109 42.511719 C 71.662109 33.756919 66.727853 26.090931 59.439453 22.144531 C 59.301063 22.065173 59.152896 22.020041 59.005859 22.005859 z M 58.876953 22.988281 C 58.894477 22.980447 58.913573 22.989611 58.945312 23.007812 A 1.0001 1.0001 0 0 0 58.960938 23.023438 C 65.938741 26.801661 70.664062 34.128852 70.664062 42.507812 C 70.664063 52.56299 63.881564 60.952054 54.671875 63.71875 L 54.671875 55.164062 A 1.0001 1.0001 0 0 0 53.382812 54.210938 C 52.644466 54.437634 51.945912 54.651318 51.242188 54.773438 A 1.0001 1.0001 0 0 0 50.414062 55.757812 L 50.414062 67.59375 A 1.0001 1.0001 0 0 0 51.539062 68.585938 C 64.664496 66.937265 74.78125 55.85048 74.78125 42.507812 C 74.781254 39.206319 74.156871 36.093309 73.054688 33.21875 A 1.0001 1.0001 0 0 0 73.046875 33.195312 C 73.054219 33.194823 73.077539 33.177493 73.109375 33.148438 C 73.141287 33.143507 73.245185 33.158706 73.265625 33.210938 C 74.372069 36.083543 74.954648 39.225239 75 42.515625 L 75 42.523438 C 74.991724 56.461372 64.068016 67.776979 50.148438 68.859375 L 50.148438 56.070312 A 1.0001 1.0001 0 0 0 49.046875 55.078125 C 48.758594 55.109541 48 55.117188 48 55.117188 C 48 55.117188 47.241417 55.109537 46.953125 55.078125 A 1.0001 1.0001 0 0 0 45.84375 56.070312 L 45.84375 68.859375 C 31.919598 67.775607 21 56.452464 21 42.507812 C 21 39.234964 21.620679 36.103379 22.773438 33.179688 C 22.813301 33.081691 22.838362 33.078125 22.90625 33.078125 C 22.880206 33.078125 22.9386 33.092866 22.9375 33.09375 C 22.993515 33.116699 23.009536 33.165008 23 33.1875 A 1.0001 1.0001 0 0 0 22.984375 33.21875 C 21.884609 36.134015 21.257812 39.250124 21.257812 42.507812 C 21.257813 55.894292 31.379358 66.937608 44.5 68.632812 A 1.0001 1.0001 0 0 0 45.632812 67.640625 L 45.632812 55.804688 A 1.0001 1.0001 0 0 0 44.804688 54.820312 C 44.100637 54.698101 43.40184 54.484693 42.664062 54.257812 A 1.0001 1.0001 0 0 0 41.375 55.210938 L 41.375 63.765625 C 32.071336 60.964141 25.289062 52.569093 25.289062 42.507812 C 25.289063 34.132729 30.011873 26.811094 36.984375 23.03125 C 36.987602 23.0295 36.988959 23.025185 36.992188 23.023438 C 37.01793 23.015037 37.049317 23.007812 37.0625 23.007812 C 37.087912 23.007813 37.099472 23.01191 37.101562 23.007812 A 1.0001 1.0001 0 0 0 37.140625 23.09375 C 37.173282 23.157983 37.149287 23.185335 37.101562 23.210938 A 1.0001 1.0001 0 0 0 37.09375 23.21875 C 30.188158 26.970324 25.5 34.240527 25.5 42.554688 C 25.5 51.914375 31.447627 59.904996 39.75 63.132812 A 1.0001 1.0001 0 0 0 41.109375 62.195312 L 41.109375 53.398438 A 1.0001 1.0001 0 0 0 41.109375 53.375 C 41.148299 53.376435 41.179414 53.398438 41.21875 53.398438 C 42.145504 53.398438 42.957678 52.993699 43.53125 52.429688 C 44.131029 51.839791 44.463 51.03753 44.523438 50.203125 A 1.0001 1.0001 0 0 0 44.523438 50.132812 C 44.523437 49.207208 44.104868 48.392182 43.53125 47.828125 C 42.957706 47.264191 42.145541 46.867188 41.21875 46.867188 C 40.901565 46.867187 40.621791 46.96211 40.335938 47.046875 C 39.887866 43.185108 38.65859 41.399147 37.5 40.507812 C 36.913006 40.056222 36.416373 39.812456 36.21875 39.65625 C 36.021127 39.500044 36.039062 39.600193 36.039062 39.242188 L 36.039062 37.835938 C 36.039063 37.320676 36.482945 35.921402 37.3125 34.359375 C 38.142055 32.797347 39.314517 31.004175 40.601562 29.320312 C 41.888609 27.636451 43.300265 26.056374 44.59375 24.914062 C 45.880898 23.777348 47.089899 23.143784 47.632812 23.101562 L 47.953125 23.101562 L 48.273438 23.101562 C 48.816326 23.143756 50.025357 23.777369 51.3125 24.914062 C 52.60598 26.056353 54.017642 27.636447 55.304688 29.320312 C 56.591732 31.004178 57.756386 32.797328 58.585938 34.359375 C 59.415493 35.921422 59.867188 37.320633 59.867188 37.835938 L 59.867188 39.242188 C 59.867188 39.612789 59.87838 39.523069 59.679688 39.679688 C 59.480995 39.836306 58.981341 40.075029 58.390625 40.523438 C 57.227865 41.406085 56.00674 43.189545 55.578125 47.03125 C 55.316824 46.961348 55.067702 46.867188 54.78125 46.867188 C 53.854496 46.867187 53.034509 47.264113 52.460938 47.828125 C 51.887466 48.392147 51.476562 49.207166 51.476562 50.132812 C 51.476563 51.058418 51.887342 51.865653 52.460938 52.429688 C 53.034481 52.993621 53.854459 53.398438 54.78125 53.398438 C 54.80389 53.398437 54.821246 53.383291 54.84375 53.382812 A 1.0001 1.0001 0 0 0 54.84375 53.398438 L 54.84375 62.195312 A 1.0001 1.0001 0 0 0 56.203125 63.132812 C 64.552649 59.905329 70.445312 51.910913 70.445312 42.554688 C 70.445313 34.240908 65.757186 26.9703 58.851562 23.21875 L 58.867188 23.21875 C 58.863447 23.216649 58.828125 23.171963 58.828125 23.140625 C 58.828125 23.065528 58.835071 23.050397 58.835938 23.046875 C 58.830412 23.057063 58.826857 23.056365 58.820312 23.070312 A 1.0001 1.0001 0 0 1 58.742188 23.203125 C 58.823949 23.082694 58.837166 23.041884 58.835938 23.046875 C 58.84997 23.021002 58.86438 22.993902 58.876953 22.988281 z M 41.21875 47.863281 C 41.86455 47.863281 42.416871 48.136718 42.832031 48.544922 C 43.247191 48.953162 43.525391 49.495779 43.525391 50.130859 C 43.479391 50.765939 43.247151 51.31047 42.832031 51.71875 C 42.416871 52.12699 41.86455 52.400391 41.21875 52.400391 C 40.57295 52.400391 40.018676 52.126954 39.603516 51.71875 C 39.142236 51.31051 38.912109 50.765939 38.912109 50.130859 C 38.912109 49.495779 39.188396 48.953202 39.603516 48.544922 C 40.018676 48.136682 40.57295 47.863281 41.21875 47.863281 z M 54.779297 47.863281 C 55.425097 47.863281 55.979371 48.136718 56.394531 48.544922 C 56.809651 48.953162 57.085938 49.495779 57.085938 50.130859 C 57.085938 50.765939 56.809651 51.31047 56.394531 51.71875 C 55.979371 52.12699 55.425097 52.400391 54.779297 52.400391 C 54.133497 52.400391 53.581176 52.126954 53.166016 51.71875 C 52.750856 51.31051 52.474609 50.765939 52.474609 50.130859 C 52.474609 49.495779 52.750896 48.953202 53.166016 48.544922 C 53.581176 48.136682 54.133497 47.863281 54.779297 47.863281 z "
       transform="translate(0,2)"
       id="path61" />
    <path
       style="opacity:0.3;fill:#000000;stroke-width:4"
       d="M 59.005859 22.005859 C 58.564751 21.963314 58.123586 22.200213 57.916016 22.642578 C 57.823616 22.778678 57.824219 22.96105 57.824219 23.142578 C 57.824219 23.310629 57.870919 23.466181 57.939453 23.609375 C 58.22769 23.048149 58.898029 22.834058 59.439453 23.144531 C 66.572732 27.006939 71.438103 34.435089 71.642578 42.957031 C 71.645447 42.807593 71.662109 42.661849 71.662109 42.511719 C 71.662109 33.756919 66.727853 26.090931 59.439453 22.144531 C 59.301063 22.065173 59.152896 22.020041 59.005859 22.005859 z M 37.066406 22.007812 C 36.882006 22.007812 36.698032 22.053671 36.513672 22.144531 C 29.225272 26.091011 24.289062 33.756919 24.289062 42.511719 C 24.289062 42.661849 24.305725 42.807593 24.308594 42.957031 C 24.513069 34.435092 29.380393 27.007017 36.513672 23.144531 C 36.698032 23.053671 36.882006 23.007812 37.066406 23.007812 C 37.47046 23.007812 37.87065 23.225369 38.019531 23.613281 C 38.168235 23.319643 38.200912 22.968604 38.035156 22.642578 C 37.896756 22.234338 37.481526 22.007812 37.066406 22.007812 z M 47.583984 22.099609 C 43.570784 22.371805 35.037109 34.211044 35.037109 37.839844 L 35.037109 38.839844 C 35.037109 35.211044 43.570784 23.371805 47.583984 23.099609 L 47.953125 23.099609 L 48.322266 23.099609 C 52.335466 23.371609 60.869141 35.210924 60.869141 38.839844 L 60.869141 37.839844 C 60.869141 34.210924 52.335466 22.371609 48.322266 22.099609 L 47.953125 22.099609 L 47.583984 22.099609 z M 22.904297 32.078125 C 22.443017 32.078125 22.02827 32.34913 21.84375 32.802734 C 20.64443 35.841934 19.998047 39.107766 19.998047 42.509766 C 19.998047 42.674747 20.006833 42.837669 20.009766 43.001953 C 20.070895 39.783182 20.704394 36.68998 21.84375 33.802734 C 22.02827 33.34913 22.443017 33.078125 22.904297 33.078125 C 23.042657 33.078125 23.181912 33.122729 23.320312 33.167969 C 23.576148 33.272783 23.764061 33.469315 23.878906 33.699219 C 23.894176 33.658145 23.904456 33.615215 23.919922 33.574219 C 24.150722 33.029859 23.873992 32.394809 23.320312 32.167969 C 23.181912 32.122729 23.042657 32.078125 22.904297 32.078125 z M 73.15625 32.134766 C 73.009949 32.13193 72.862989 32.156191 72.724609 32.212891 C 72.309449 32.394223 72.03125 32.802697 72.03125 33.210938 C 72.03125 33.347037 72.0326 33.483355 72.125 33.574219 C 72.143568 33.622646 72.155543 33.674091 72.173828 33.722656 C 72.294248 33.506467 72.481568 33.319045 72.724609 33.212891 C 73.277633 32.986294 73.967801 33.259033 74.199219 33.847656 C 74.199219 33.847656 74.199219 33.849609 74.199219 33.849609 C 75.304983 36.721079 75.896954 39.843799 75.984375 43.095703 C 75.988528 42.900283 75.998047 42.706177 75.998047 42.509766 C 75.952056 39.108294 75.351988 35.843143 74.199219 32.849609 C 74.199219 32.849609 74.199219 32.847656 74.199219 32.847656 C 74.025707 32.406321 73.594629 32.143262 73.15625 32.134766 z M 73.773438 42.996094 C 73.531131 55.615198 63.891255 66.028207 51.412109 67.595703 L 51.412109 68.595703 C 64.051309 67.008103 73.785156 56.348919 73.785156 43.511719 C 73.785156 43.338792 73.776972 43.167935 73.773438 42.996094 z M 22.271484 43.017578 C 22.268166 43.181965 22.259766 43.344616 22.259766 43.509766 C 22.259766 56.392566 31.991659 67.007625 44.630859 68.640625 L 44.630859 67.640625 C 32.158642 66.029199 22.524091 55.66988 22.271484 43.017578 z M 26.521484 43.025391 C 26.516987 43.202855 26.503906 43.37814 26.503906 43.556641 C 26.503906 52.493041 32.177328 60.112666 40.111328 63.197266 L 40.111328 62.197266 C 32.317497 59.167161 26.71738 51.757254 26.521484 43.025391 z M 69.429688 43.027344 C 69.234548 51.758325 63.678652 59.167198 55.839844 62.197266 L 55.839844 63.197266 C 63.820244 60.112466 69.449219 52.493041 69.449219 43.556641 C 69.449219 43.378789 69.434153 43.204167 69.429688 43.027344 z M 56.658203 47.353516 C 56.613992 47.650325 56.567408 47.941039 56.533203 48.273438 C 57.447435 48.781566 58.049098 49.629345 58.199219 50.666016 C 58.222138 50.506344 58.240234 50.344517 58.240234 50.177734 C 58.240234 48.960217 57.641879 47.95442 56.658203 47.353516 z M 39.244141 47.359375 C 38.305965 47.964488 37.712891 49.007163 37.712891 50.177734 C 37.712891 50.345559 37.729305 50.50863 37.753906 50.669922 C 37.905396 49.656633 38.501076 48.780123 39.373047 48.273438 C 39.337068 47.9432 39.289665 47.654635 39.244141 47.359375 z M 43.451172 50.603516 C 43.346305 51.037724 43.140037 51.415819 42.832031 51.71875 C 42.416871 52.12699 41.86455 52.400391 41.21875 52.400391 C 40.57295 52.400391 40.018676 52.126954 39.603516 51.71875 C 39.271994 51.425348 39.063961 51.059734 38.970703 50.642578 C 38.933499 50.799083 38.912109 50.960402 38.912109 51.130859 C 38.912109 51.765939 39.142236 52.31051 39.603516 52.71875 C 40.018676 53.126954 40.57295 53.400391 41.21875 53.400391 C 41.86455 53.400391 42.416871 53.12699 42.832031 52.71875 C 43.247151 52.31047 43.479391 51.765939 43.525391 51.130859 C 43.525391 50.945628 43.494827 50.772186 43.451172 50.603516 z M 52.537109 50.630859 C 52.498028 50.791019 52.474609 50.955992 52.474609 51.130859 C 52.474609 51.765939 52.750856 52.31051 53.166016 52.71875 C 53.581176 53.126954 54.133497 53.400391 54.779297 53.400391 C 55.425097 53.400391 55.979371 53.12699 56.394531 52.71875 C 56.809651 52.31047 57.085938 51.765939 57.085938 51.130859 C 57.085938 50.955992 57.062518 50.791023 57.023438 50.630859 C 56.920777 51.053041 56.695739 51.422505 56.394531 51.71875 C 55.979371 52.12699 55.425097 52.400391 54.779297 52.400391 C 54.133497 52.400391 53.581176 52.126954 53.166016 51.71875 C 52.864779 51.422534 52.63976 51.053051 52.537109 50.630859 z "
       transform="translate(0,2)"
       id="path66" />
    <path
       style="opacity:0.4;fill:#000000;stroke-width:4"
       d="M 59.005859 21.005859 C 58.564751 20.963314 58.123586 21.200213 57.916016 21.642578 C 57.823616 21.778678 57.824219 21.96105 57.824219 22.142578 C 57.824219 22.310629 57.870919 22.466181 57.939453 22.609375 C 58.22769 22.048149 58.898029 21.834058 59.439453 22.144531 C 66.572732 26.006939 71.438103 33.435089 71.642578 41.957031 C 71.645447 41.807593 71.662109 41.661849 71.662109 41.511719 C 71.662109 32.756919 66.727853 25.090931 59.439453 21.144531 C 59.301063 21.065173 59.152896 21.020041 59.005859 21.005859 z M 37.066406 21.007812 C 36.882006 21.007812 36.698032 21.053671 36.513672 21.144531 C 29.225272 25.091011 24.289062 32.756919 24.289062 41.511719 C 24.289062 41.661849 24.305725 41.807593 24.308594 41.957031 C 24.513069 33.435092 29.380393 26.007017 36.513672 22.144531 C 36.698032 22.053671 36.882006 22.007812 37.066406 22.007812 C 37.47046 22.007812 37.87065 22.225369 38.019531 22.613281 C 38.168235 22.319643 38.200912 21.968604 38.035156 21.642578 C 37.896756 21.234338 37.481526 21.007813 37.066406 21.007812 z M 47.583984 21.099609 C 43.570784 21.371805 35.037109 33.211044 35.037109 36.839844 L 35.037109 37.839844 C 35.037109 34.211044 43.570784 22.371805 47.583984 22.099609 L 47.953125 22.099609 L 48.322266 22.099609 C 52.335466 22.371609 60.869141 34.210924 60.869141 37.839844 L 60.869141 36.839844 C 60.869141 33.210924 52.335466 21.371609 48.322266 21.099609 L 47.953125 21.099609 L 47.583984 21.099609 z M 22.904297 31.078125 C 22.443017 31.078125 22.02827 31.34913 21.84375 31.802734 C 20.64443 34.841934 19.998047 38.107766 19.998047 41.509766 C 19.998047 41.674747 20.006833 41.837669 20.009766 42.001953 C 20.070895 38.783182 20.704394 35.68998 21.84375 32.802734 C 22.02827 32.34913 22.443017 32.078125 22.904297 32.078125 C 23.042657 32.078125 23.181912 32.122729 23.320312 32.167969 C 23.576148 32.272783 23.764061 32.469315 23.878906 32.699219 C 23.894176 32.658145 23.904456 32.615215 23.919922 32.574219 C 24.150722 32.029859 23.873992 31.394809 23.320312 31.167969 C 23.181912 31.122729 23.042657 31.078125 22.904297 31.078125 z M 73.15625 31.134766 C 73.009949 31.13193 72.862989 31.156191 72.724609 31.212891 C 72.309449 31.394223 72.03125 31.802697 72.03125 32.210938 C 72.03125 32.347037 72.0326 32.483355 72.125 32.574219 C 72.143568 32.622646 72.155543 32.674091 72.173828 32.722656 C 72.294248 32.506467 72.481568 32.319045 72.724609 32.212891 C 73.277633 31.986294 73.967801 32.259033 74.199219 32.847656 C 74.199219 32.847656 74.199219 32.849609 74.199219 32.849609 C 75.304983 35.721079 75.896954 38.843799 75.984375 42.095703 C 75.988528 41.900283 75.998047 41.706177 75.998047 41.509766 C 75.952056 38.108294 75.351988 34.843143 74.199219 31.849609 C 74.199219 31.849609 74.199219 31.847656 74.199219 31.847656 C 74.025707 31.406321 73.594629 31.143262 73.15625 31.134766 z M 73.773438 41.996094 C 73.531131 54.615198 63.891255 65.028207 51.412109 66.595703 L 51.412109 67.595703 C 64.051309 66.008103 73.785156 55.348919 73.785156 42.511719 C 73.785156 42.338792 73.776972 42.167935 73.773438 41.996094 z M 22.271484 42.017578 C 22.268166 42.181965 22.259766 42.344616 22.259766 42.509766 C 22.259766 55.392566 31.991659 66.007625 44.630859 67.640625 L 44.630859 66.640625 C 32.158642 65.029199 22.524091 54.66988 22.271484 42.017578 z M 26.521484 42.025391 C 26.516987 42.202855 26.503906 42.37814 26.503906 42.556641 C 26.503906 51.493041 32.177328 59.112666 40.111328 62.197266 L 40.111328 61.197266 C 32.317497 58.167161 26.71738 50.757254 26.521484 42.025391 z M 69.429688 42.027344 C 69.234548 50.758325 63.678652 58.167198 55.839844 61.197266 L 55.839844 62.197266 C 63.820244 59.112466 69.449219 51.493041 69.449219 42.556641 C 69.449219 42.378789 69.434153 42.204167 69.429688 42.027344 z M 56.658203 46.353516 C 56.613992 46.650325 56.567408 46.941039 56.533203 47.273438 C 57.447435 47.781566 58.049098 48.629345 58.199219 49.666016 C 58.222138 49.506344 58.240234 49.344517 58.240234 49.177734 C 58.240234 47.960217 57.641879 46.95442 56.658203 46.353516 z M 39.244141 46.359375 C 38.305965 46.964488 37.712891 48.007163 37.712891 49.177734 C 37.712891 49.345559 37.729305 49.50863 37.753906 49.669922 C 37.905396 48.656633 38.501076 47.780123 39.373047 47.273438 C 39.337068 46.9432 39.289665 46.654635 39.244141 46.359375 z M 43.451172 49.603516 C 43.346305 50.037724 43.140037 50.415819 42.832031 50.71875 C 42.416871 51.12699 41.86455 51.400391 41.21875 51.400391 C 40.57295 51.400391 40.018676 51.126954 39.603516 50.71875 C 39.271994 50.425348 39.063961 50.059734 38.970703 49.642578 C 38.933499 49.799083 38.912109 49.960402 38.912109 50.130859 C 38.912109 50.765939 39.142236 51.31051 39.603516 51.71875 C 40.018676 52.126954 40.57295 52.400391 41.21875 52.400391 C 41.86455 52.400391 42.416871 52.12699 42.832031 51.71875 C 43.247151 51.31047 43.479391 50.765939 43.525391 50.130859 C 43.525391 49.945628 43.494827 49.772186 43.451172 49.603516 z M 52.537109 49.630859 C 52.498028 49.791019 52.474609 49.955992 52.474609 50.130859 C 52.474609 50.765939 52.750856 51.31051 53.166016 51.71875 C 53.581176 52.126954 54.133497 52.400391 54.779297 52.400391 C 55.425097 52.400391 55.979371 52.12699 56.394531 51.71875 C 56.809651 51.31047 57.085938 50.765939 57.085938 50.130859 C 57.085938 49.955992 57.062518 49.791023 57.023438 49.630859 C 56.920777 50.053041 56.695739 50.422505 56.394531 50.71875 C 55.979371 51.12699 55.425097 51.400391 54.779297 51.400391 C 54.133497 51.400391 53.581176 51.126954 53.166016 50.71875 C 52.864779 50.422534 52.63976 50.053051 52.537109 49.630859 z "
       transform="translate(0,2)"
       id="path71" />
    <path
       style="opacity:0.1;fill:#ffffff;stroke-width:4"
       d="M 57.939453 23.609375 C 57.932992 23.621955 57.922083 23.629647 57.916016 23.642578 C 57.823616 23.778678 57.824219 23.96105 57.824219 24.142578 C 57.824219 24.550818 58.054193 24.91231 58.376953 25.09375 C 64.82556 28.59702 69.234836 35.312052 69.429688 43.027344 C 69.433212 42.869636 69.449219 42.715195 69.449219 42.556641 C 69.449219 34.618641 64.973353 27.67731 58.376953 24.09375 C 58.187056 23.986999 58.037408 23.814037 57.939453 23.609375 z M 38.019531 23.613281 C 37.919946 23.809926 37.777729 23.984576 37.574219 24.09375 C 30.977819 27.67735 26.503906 34.618241 26.503906 42.556641 C 26.503906 42.714519 26.517961 42.868351 26.521484 43.025391 C 26.717018 35.310547 31.126144 28.59677 37.574219 25.09375 C 38.081619 24.821554 38.311916 24.186938 38.035156 23.642578 C 38.031467 23.631695 38.023609 23.623905 38.019531 23.613281 z M 23.878906 33.699219 C 22.846693 36.475831 22.259766 39.425431 22.259766 42.509766 C 22.259766 42.679966 22.268102 42.848185 22.271484 43.017578 C 22.331064 40.066475 22.914943 37.238225 23.919922 34.574219 C 24.044077 34.281388 24.012609 33.966872 23.878906 33.699219 z M 72.173828 33.722656 C 72.088549 33.875758 72.03125 34.041688 72.03125 34.210938 C 72.03125 34.347037 72.0326 34.483355 72.125 34.574219 C 73.128185 37.19058 73.712071 40.012273 73.773438 42.996094 C 73.776545 42.834245 73.785156 42.67428 73.785156 42.511719 C 73.785156 39.391696 73.200315 36.449053 72.173828 33.722656 z M 35.037109 39.246094 L 35.037109 40.246094 C 35.037109 42.546069 38.239145 40.841214 39.244141 47.359375 C 39.287571 47.331363 39.328148 47.299528 39.373047 47.273438 C 38.542807 39.652877 35.037109 41.650254 35.037109 39.246094 z M 60.869141 39.246094 C 60.869141 41.695294 57.317403 39.652637 56.533203 47.273438 C 56.577144 47.297859 56.615703 47.327554 56.658203 47.353516 C 57.6276 40.845461 60.869141 42.588466 60.869141 40.246094 L 60.869141 39.246094 z M 24.308594 42.957031 C 24.304147 43.14235 24.289062 43.325388 24.289062 43.511719 C 24.289062 54.489319 31.992294 63.651684 42.371094 66.146484 L 42.371094 65.146484 C 32.134234 62.685803 24.515494 53.734646 24.308594 42.957031 z M 71.642578 42.957031 C 71.435706 53.73464 63.819946 62.685542 53.673828 65.101562 L 53.673828 66.101562 C 63.960628 63.652042 71.662109 54.489319 71.662109 43.511719 C 71.662109 43.325388 71.647025 43.14235 71.642578 42.957031 z M 20.009766 43.001953 C 20.006548 43.171355 19.998047 43.339672 19.998047 43.509766 C 19.998047 58.342966 31.900103 70.41 46.845703 71 L 46.845703 70 C 32.066334 69.416562 20.270478 57.608235 20.009766 43.001953 z M 75.984375 43.095703 C 75.674906 57.65868 63.900044 69.418089 49.152344 70 L 49.152344 71 C 64.097944 70.41028 75.998047 58.342966 75.998047 43.509766 C 75.996172 43.371068 75.988091 43.233939 75.984375 43.095703 z M 41.21875 47.863281 C 40.57295 47.863281 40.018676 48.136682 39.603516 48.544922 C 39.188396 48.953202 38.912109 49.495779 38.912109 50.130859 C 38.912109 50.309508 38.934202 50.479302 38.970703 50.642578 C 39.072111 50.215986 39.299815 49.843618 39.603516 49.544922 C 40.018676 49.136682 40.57295 48.863281 41.21875 48.863281 C 41.86455 48.863281 42.416871 49.136718 42.832031 49.544922 C 43.126103 49.834092 43.345153 50.193888 43.451172 50.603516 C 43.487641 50.452512 43.513521 50.29473 43.525391 50.130859 C 43.525391 49.495779 43.247191 48.953162 42.832031 48.544922 C 42.416871 48.136718 41.86455 47.863281 41.21875 47.863281 z M 54.779297 47.863281 C 54.133497 47.863281 53.581176 48.136682 53.166016 48.544922 C 52.750896 48.953202 52.474609 49.495779 52.474609 50.130859 C 52.474609 50.30513 52.498289 50.471194 52.537109 50.630859 C 52.639962 50.209353 52.865198 49.840783 53.166016 49.544922 C 53.581176 49.136682 54.133497 48.863281 54.779297 48.863281 C 55.425097 48.863281 55.979371 49.136718 56.394531 49.544922 C 56.695349 49.840754 56.920585 50.209344 57.023438 50.630859 C 57.062262 50.471197 57.085938 50.30513 57.085938 50.130859 C 57.085938 49.495779 56.809651 48.953162 56.394531 48.544922 C 55.979371 48.136718 55.425097 47.863281 54.779297 47.863281 z M 58.199219 50.666016 C 58.010201 51.982872 57.074035 53.034345 55.839844 53.398438 L 55.839844 54.398438 C 57.223684 53.990198 58.240234 52.720014 58.240234 51.177734 C 58.240234 51.00208 58.223312 50.832395 58.199219 50.666016 z M 37.753906 50.669922 C 37.729092 50.835898 37.712891 51.005355 37.712891 51.177734 C 37.712891 52.674654 38.727448 53.944798 40.111328 54.398438 L 40.111328 53.398438 C 38.882599 52.995657 37.948734 51.947283 37.753906 50.669922 z M 53.673828 55.167969 C 52.935788 55.394569 52.196269 55.619779 51.412109 55.755859 L 51.412109 56.755859 C 52.196269 56.619779 52.935788 56.394569 53.673828 56.167969 L 53.673828 55.167969 z M 42.371094 55.212891 L 42.371094 56.212891 C 43.109134 56.439851 43.846699 56.666614 44.630859 56.802734 L 44.630859 55.802734 C 43.846699 55.666614 43.109134 55.439851 42.371094 55.212891 z M 46.845703 56.074219 L 46.845703 57.074219 C 47.260863 57.119459 47.998047 57.119141 47.998047 57.119141 C 47.998047 57.119141 48.737184 57.119459 49.152344 57.074219 L 49.152344 56.074219 C 48.737184 56.119459 47.998047 56.119141 47.998047 56.119141 C 47.998047 56.119141 47.260863 56.119459 46.845703 56.074219 z "
       transform="translate(0,2)"
       id="path76" />
    <path
       style="opacity:0.15;fill:#ffffff;stroke-width:4"
       d="M 57.939453 22.609375 C 57.932992 22.621955 57.922083 22.629647 57.916016 22.642578 C 57.823616 22.778678 57.824219 22.96105 57.824219 23.142578 C 57.824219 23.550818 58.054193 23.91231 58.376953 24.09375 C 64.82556 27.59702 69.234836 34.312052 69.429688 42.027344 C 69.433212 41.869636 69.449219 41.715195 69.449219 41.556641 C 69.449219 33.618641 64.973353 26.67731 58.376953 23.09375 C 58.187056 22.986999 58.037408 22.814037 57.939453 22.609375 z M 38.019531 22.613281 C 37.919946 22.809926 37.777729 22.984576 37.574219 23.09375 C 30.977819 26.67735 26.503906 33.618241 26.503906 41.556641 C 26.503906 41.714519 26.517961 41.868351 26.521484 42.025391 C 26.717018 34.310547 31.126144 27.59677 37.574219 24.09375 C 38.081619 23.821554 38.311916 23.186938 38.035156 22.642578 C 38.031467 22.631695 38.023609 22.623905 38.019531 22.613281 z M 23.878906 32.699219 C 22.846693 35.475831 22.259766 38.425431 22.259766 41.509766 C 22.259766 41.679966 22.268102 41.848185 22.271484 42.017578 C 22.331064 39.066475 22.914943 36.238225 23.919922 33.574219 C 24.044077 33.281388 24.012609 32.966872 23.878906 32.699219 z M 72.173828 32.722656 C 72.088549 32.875758 72.03125 33.041688 72.03125 33.210938 C 72.03125 33.347037 72.0326 33.483355 72.125 33.574219 C 73.128185 36.19058 73.712071 39.012273 73.773438 41.996094 C 73.776545 41.834245 73.785156 41.67428 73.785156 41.511719 C 73.785156 38.391696 73.200315 35.449053 72.173828 32.722656 z M 35.037109 38.246094 L 35.037109 39.246094 C 35.037109 41.546069 38.239145 39.841214 39.244141 46.359375 C 39.287571 46.331363 39.328148 46.299528 39.373047 46.273438 C 38.542807 38.652877 35.037109 40.650254 35.037109 38.246094 z M 60.869141 38.246094 C 60.869141 40.695294 57.317403 38.652637 56.533203 46.273438 C 56.577144 46.297859 56.615703 46.327554 56.658203 46.353516 C 57.6276 39.845461 60.869141 41.588466 60.869141 39.246094 L 60.869141 38.246094 z M 24.308594 41.957031 C 24.304147 42.14235 24.289062 42.325388 24.289062 42.511719 C 24.289062 53.489319 31.992294 62.651684 42.371094 65.146484 L 42.371094 64.146484 C 32.134234 61.685803 24.515494 52.734646 24.308594 41.957031 z M 71.642578 41.957031 C 71.435706 52.73464 63.819946 61.685542 53.673828 64.101562 L 53.673828 65.101562 C 63.960628 62.652042 71.662109 53.489319 71.662109 42.511719 C 71.662109 42.325388 71.647025 42.14235 71.642578 41.957031 z M 20.009766 42.001953 C 20.006548 42.171355 19.998047 42.339672 19.998047 42.509766 C 19.998047 57.342966 31.900103 69.41 46.845703 70 L 46.845703 69 C 32.066334 68.416562 20.270478 56.608235 20.009766 42.001953 z M 75.984375 42.095703 C 75.674906 56.65868 63.900044 68.418089 49.152344 69 L 49.152344 70 C 64.097944 69.41028 75.998047 57.342966 75.998047 42.509766 C 75.996172 42.371068 75.988091 42.233939 75.984375 42.095703 z M 41.21875 46.863281 C 40.57295 46.863281 40.018676 47.136682 39.603516 47.544922 C 39.188396 47.953202 38.912109 48.495779 38.912109 49.130859 C 38.912109 49.309508 38.934202 49.479302 38.970703 49.642578 C 39.072111 49.215986 39.299815 48.843618 39.603516 48.544922 C 40.018676 48.136682 40.57295 47.863281 41.21875 47.863281 C 41.86455 47.863281 42.416871 48.136718 42.832031 48.544922 C 43.126103 48.834092 43.345153 49.193888 43.451172 49.603516 C 43.487641 49.452512 43.513521 49.29473 43.525391 49.130859 C 43.525391 48.495779 43.247191 47.953162 42.832031 47.544922 C 42.416871 47.136718 41.86455 46.863281 41.21875 46.863281 z M 54.779297 46.863281 C 54.133497 46.863281 53.581176 47.136682 53.166016 47.544922 C 52.750896 47.953202 52.474609 48.495779 52.474609 49.130859 C 52.474609 49.30513 52.498289 49.471194 52.537109 49.630859 C 52.639962 49.209353 52.865198 48.840783 53.166016 48.544922 C 53.581176 48.136682 54.133497 47.863281 54.779297 47.863281 C 55.425097 47.863281 55.979371 48.136718 56.394531 48.544922 C 56.695349 48.840754 56.920585 49.209344 57.023438 49.630859 C 57.062262 49.471197 57.085938 49.30513 57.085938 49.130859 C 57.085938 48.495779 56.809651 47.953162 56.394531 47.544922 C 55.979371 47.136718 55.425097 46.863281 54.779297 46.863281 z M 58.199219 49.666016 C 58.010201 50.982872 57.074035 52.034345 55.839844 52.398438 L 55.839844 53.398438 C 57.223684 52.990198 58.240234 51.720014 58.240234 50.177734 C 58.240234 50.00208 58.223312 49.832395 58.199219 49.666016 z M 37.753906 49.669922 C 37.729092 49.835898 37.712891 50.005355 37.712891 50.177734 C 37.712891 51.674654 38.727448 52.944798 40.111328 53.398438 L 40.111328 52.398438 C 38.882599 51.995657 37.948734 50.947283 37.753906 49.669922 z M 53.673828 54.167969 C 52.935788 54.394569 52.196269 54.619779 51.412109 54.755859 L 51.412109 55.755859 C 52.196269 55.619779 52.935788 55.394569 53.673828 55.167969 L 53.673828 54.167969 z M 42.371094 54.212891 L 42.371094 55.212891 C 43.109134 55.439851 43.846699 55.666614 44.630859 55.802734 L 44.630859 54.802734 C 43.846699 54.666614 43.109134 54.439851 42.371094 54.212891 z M 46.845703 55.074219 L 46.845703 56.074219 C 47.260863 56.119459 47.998047 56.119141 47.998047 56.119141 C 47.998047 56.119141 48.737184 56.119459 49.152344 56.074219 L 49.152344 55.074219 C 48.737184 55.119459 47.998047 55.119141 47.998047 55.119141 C 47.998047 55.119141 47.260863 55.119459 46.845703 55.074219 z "
       transform="translate(0,2)"
       id="path81" />
  </g>
</svg>
