<?xml version="1.0" encoding="UTF-8" standalone="no"?>
<!-- Created with Inkscape (http://www.inkscape.org/) -->

<svg
   xmlns:dc="http://purl.org/dc/elements/1.1/"
   xmlns:cc="http://creativecommons.org/ns#"
   xmlns:rdf="http://www.w3.org/1999/02/22-rdf-syntax-ns#"
   xmlns:svg="http://www.w3.org/2000/svg"
   xmlns="http://www.w3.org/2000/svg"
   xmlns:xlink="http://www.w3.org/1999/xlink"
   xmlns:sodipodi="http://sodipodi.sourceforge.net/DTD/sodipodi-0.dtd"
   xmlns:inkscape="http://www.inkscape.org/namespaces/inkscape"
   width="96"
   height="96"
   id="svg2408"
   sodipodi:version="0.32"
   inkscape:version="0.92.2 5c3e80d, 2017-08-06"
   version="1.0"
   sodipodi:docname="gnome-activity-journal.svg"
   inkscape:output_extension="org.inkscape.output.svg.inkscape">
  <defs
     id="defs2410">
    <linearGradient
       id="linearGradient4933">
      <stop
         style="stop-color:#ebebeb;stop-opacity:1;"
         offset="0"
         id="stop4935" />
      <stop
         style="stop-color:#fafafa;stop-opacity:1;"
         offset="1"
         id="stop4937" />
    </linearGradient>
    <linearGradient
       id="linearGradient4917">
      <stop
         id="stop4919"
         offset="0"
         style="stop-color:#2684a3;stop-opacity:1;" />
      <stop
         id="stop4921"
         offset="1"
         style="stop-color:#46b0d4;stop-opacity:1" />
    </linearGradient>
    <linearGradient
       id="ButtonShadow"
       gradientTransform="scale(1.0058652,0.994169)"
       x1="45.447727"
       y1="92.539597"
       x2="45.447727"
       y2="7.0165396"
       gradientUnits="userSpaceOnUse">
      <stop
         style="stop-color:#000000;stop-opacity:1;"
         offset="0"
         id="stop3750" />
      <stop
         style="stop-color:#000000;stop-opacity:0.58823532;"
         offset="1"
         id="stop3752" />
    </linearGradient>
    <linearGradient
       inkscape:collect="always"
       id="linearGradient3737">
      <stop
         style="stop-color:#ffffff;stop-opacity:1;"
         offset="0"
         id="stop3739" />
      <stop
         style="stop-color:#ffffff;stop-opacity:0;"
         offset="1"
         id="stop3741" />
    </linearGradient>
    <linearGradient
       id="linearGradient3700">
      <stop
         style="stop-color:#2276c5;stop-opacity:1;"
         offset="0"
         id="stop3702" />
      <stop
         style="stop-color:#68baf4;stop-opacity:1;"
         offset="1"
         id="stop3704" />
    </linearGradient>
    <inkscape:perspective
       sodipodi:type="inkscape:persp3d"
       inkscape:vp_x="0 : 526.18109 : 1"
       inkscape:vp_y="0 : 1000 : 0"
       inkscape:vp_z="744.09448 : 526.18109 : 1"
       inkscape:persp3d-origin="372.04724 : 350.78739 : 1"
       id="perspective2416" />
    <linearGradient
       inkscape:collect="always"
       xlink:href="#linearGradient3700"
       id="linearGradient3706"
       x1="48"
       y1="90"
       x2="48"
       y2="5.9877172"
       gradientUnits="userSpaceOnUse" />
    <linearGradient
       inkscape:collect="always"
       xlink:href="#linearGradient3737"
       id="linearGradient3743"
       x1="36.357143"
       y1="6"
       x2="36.357143"
       y2="63.893143"
       gradientUnits="userSpaceOnUse" />
    <filter
       inkscape:collect="always"
       id="filter3174">
      <feGaussianBlur
         inkscape:collect="always"
         stdDeviation="1.71"
         id="feGaussianBlur3176" />
    </filter>
    <filter
       inkscape:collect="always"
       id="filter3794"
       x="-0.192"
       width="1.384"
       y="-0.192"
       height="1.384">
      <feGaussianBlur
         inkscape:collect="always"
         stdDeviation="5.28"
         id="feGaussianBlur3796" />
    </filter>
    <linearGradient
       inkscape:collect="always"
       xlink:href="#linearGradient3737"
       id="linearGradient3613"
       x1="48"
       y1="20.220806"
       x2="48"
       y2="138.66119"
       gradientUnits="userSpaceOnUse" />
    <clipPath
       clipPathUnits="userSpaceOnUse"
       id="clipPath3613">
      <rect
         ry="6"
         rx="6"
         y="6"
         x="6"
         height="84"
         width="84"
         id="rect3615"
         style="fill:#ffffff;fill-opacity:1;fill-rule:nonzero;stroke:none" />
    </clipPath>
    <linearGradient
       inkscape:collect="always"
       xlink:href="#linearGradient4917"
       id="linearGradient3617"
       gradientUnits="userSpaceOnUse"
       x1="48"
       y1="90"
       x2="48"
       y2="5.9877172" />
    <inkscape:perspective
       id="perspective2985"
       inkscape:persp3d-origin="0.5 : 0.33333333 : 1"
       inkscape:vp_z="1 : 0.5 : 1"
       inkscape:vp_y="0 : 1000 : 0"
       inkscape:vp_x="0 : 0.5 : 1"
       sodipodi:type="inkscape:persp3d" />
    <linearGradient
       inkscape:collect="always"
       xlink:href="#ButtonShadow-0"
       id="linearGradient3788"
       gradientUnits="userSpaceOnUse"
       gradientTransform="matrix(1.0238095,0,0,1.0119048,-1.1428571,-98.071429)"
       x1="32.251034"
       y1="6.1317081"
       x2="32.251034"
       y2="90.238609" />
    <linearGradient
       id="ButtonShadow-0"
       gradientTransform="matrix(1.0058652,0,0,0.994169,100,0)"
       x1="45.447727"
       y1="92.539597"
       x2="45.447727"
       y2="7.0165396"
       gradientUnits="userSpaceOnUse">
      <stop
         style="stop-color:#000000;stop-opacity:1;"
         offset="0"
         id="stop3750-8" />
      <stop
         style="stop-color:#000000;stop-opacity:0.58823532;"
         offset="1"
         id="stop3752-5" />
    </linearGradient>
    <linearGradient
       inkscape:collect="always"
       xlink:href="#ButtonShadow-0"
       id="linearGradient3780"
       gradientUnits="userSpaceOnUse"
       gradientTransform="matrix(1.0238095,0,0,1.0119048,-1.1428571,-98.071429)"
       x1="32.251034"
       y1="6.1317081"
       x2="32.251034"
       y2="90.238609" />
    <linearGradient
       id="linearGradient2994"
       gradientTransform="matrix(1.0058652,0,0,0.994169,100,0)"
       x1="45.447727"
       y1="92.539597"
       x2="45.447727"
       y2="7.0165396"
       gradientUnits="userSpaceOnUse">
      <stop
         style="stop-color:#000000;stop-opacity:1;"
         offset="0"
         id="stop2996" />
      <stop
         style="stop-color:#000000;stop-opacity:0.58823532;"
         offset="1"
         id="stop2998" />
    </linearGradient>
    <linearGradient
       inkscape:collect="always"
       xlink:href="#ButtonShadow-0"
       id="linearGradient3772"
       gradientUnits="userSpaceOnUse"
       gradientTransform="matrix(1.0238095,0,0,1.0119048,-1.1428571,-98.071429)"
       x1="32.251034"
       y1="6.1317081"
       x2="32.251034"
       y2="90.238609" />
    <linearGradient
       id="linearGradient3001"
       gradientTransform="matrix(1.0058652,0,0,0.994169,100,0)"
       x1="45.447727"
       y1="92.539597"
       x2="45.447727"
       y2="7.0165396"
       gradientUnits="userSpaceOnUse">
      <stop
         style="stop-color:#000000;stop-opacity:1;"
         offset="0"
         id="stop3003" />
      <stop
         style="stop-color:#000000;stop-opacity:0.58823532;"
         offset="1"
         id="stop3005" />
    </linearGradient>
    <linearGradient
       inkscape:collect="always"
       xlink:href="#ButtonShadow-0"
       id="linearGradient3725"
       gradientUnits="userSpaceOnUse"
       gradientTransform="matrix(1.0238095,0,0,1.0119048,-1.1428571,-98.071429)"
       x1="32.251034"
       y1="6.1317081"
       x2="32.251034"
       y2="90.238609" />
    <linearGradient
       id="linearGradient3008"
       gradientTransform="matrix(1.0058652,0,0,0.994169,100,0)"
       x1="45.447727"
       y1="92.539597"
       x2="45.447727"
       y2="7.0165396"
       gradientUnits="userSpaceOnUse">
      <stop
         style="stop-color:#000000;stop-opacity:1;"
         offset="0"
         id="stop3010" />
      <stop
         style="stop-color:#000000;stop-opacity:0.58823532;"
         offset="1"
         id="stop3012" />
    </linearGradient>
    <linearGradient
       inkscape:collect="always"
       xlink:href="#ButtonShadow-0"
       id="linearGradient3721"
       gradientUnits="userSpaceOnUse"
       gradientTransform="translate(0,-97)"
       x1="32.251034"
       y1="6.1317081"
       x2="32.251034"
       y2="90.238609" />
    <linearGradient
       id="linearGradient3015"
       gradientTransform="matrix(1.0058652,0,0,0.994169,100,0)"
       x1="45.447727"
       y1="92.539597"
       x2="45.447727"
       y2="7.0165396"
       gradientUnits="userSpaceOnUse">
      <stop
         style="stop-color:#000000;stop-opacity:1;"
         offset="0"
         id="stop3017" />
      <stop
         style="stop-color:#000000;stop-opacity:0.58823532;"
         offset="1"
         id="stop3019" />
    </linearGradient>
    <linearGradient
       y2="90.238609"
       x2="32.251034"
       y1="6.1317081"
       x1="32.251034"
       gradientTransform="matrix(1.0238095,0,0,1.0119048,-1.1428571,-98.071429)"
       gradientUnits="userSpaceOnUse"
       id="linearGradient3026"
       xlink:href="#ButtonShadow-0"
       inkscape:collect="always" />
    <inkscape:perspective
       id="perspective4069"
       inkscape:persp3d-origin="64 : 42.666667 : 1"
       inkscape:vp_z="128 : 64 : 1"
       inkscape:vp_y="0 : 1000 : 0"
       inkscape:vp_x="0 : 64 : 1"
       sodipodi:type="inkscape:persp3d" />
    <inkscape:perspective
       id="perspective4861"
       inkscape:persp3d-origin="0.5 : 0.33333333 : 1"
       inkscape:vp_z="1 : 0.5 : 1"
       inkscape:vp_y="0 : 1000 : 0"
       inkscape:vp_x="0 : 0.5 : 1"
       sodipodi:type="inkscape:persp3d" />
    <linearGradient
       inkscape:collect="always"
       xlink:href="#linearGradient4933"
       id="linearGradient4939"
       x1="48"
       y1="80"
       x2="48"
       y2="15.501938"
       gradientUnits="userSpaceOnUse" />
    <linearGradient
       inkscape:collect="always"
       xlink:href="#linearGradient4933"
       id="linearGradient4945"
       gradientUnits="userSpaceOnUse"
       x1="48"
       y1="80"
       x2="48"
       y2="15.501938"
       gradientTransform="translate(0,1)" />
    <linearGradient
       inkscape:collect="always"
       xlink:href="#linearGradient4933"
       id="linearGradient4947"
       gradientUnits="userSpaceOnUse"
       x1="48"
       y1="80"
       x2="48"
       y2="15.501938" />
    <linearGradient
       inkscape:collect="always"
       xlink:href="#linearGradient4933"
       id="linearGradient4954"
       gradientUnits="userSpaceOnUse"
       x1="48"
       y1="80"
       x2="48"
       y2="15.501938"
       gradientTransform="translate(0,-1)" />
    <linearGradient
       inkscape:collect="always"
       xlink:href="#linearGradient4933"
       id="linearGradient4956"
       gradientUnits="userSpaceOnUse"
       x1="48"
       y1="80"
       x2="48"
       y2="15.501938" />
    <linearGradient
       id="linearGradient4390"
       x1="48"
       x2="48"
       y1="88"
       y2="-40"
       gradientTransform="matrix(1,0,0,-1,0,92)"
       gradientUnits="userSpaceOnUse"
       xlink:href="#linearGradient3737" />
    <linearGradient
       id="linearGradient4429"
       x1="48"
       x2="112.12"
       y1="82"
       y2="82.455002"
       gradientUnits="userSpaceOnUse"
       spreadMethod="reflect"
       xlink:href="#linearGradient3737" />
    <linearGradient
       id="linearGradient3228"
       x1="90"
       x2="48"
       y1="88"
       y2="88"
       gradientUnits="userSpaceOnUse"
       spreadMethod="reflect">
      <stop
         id="stop3894"
         stop-opacity=".58824"
         offset="0" />
      <stop
         id="stop3896"
         stop-opacity=".47059"
         offset=".1178" />
      <stop
         id="stop3898"
         stop-opacity=".39216"
         offset=".2381" />
      <stop
         id="stop3900"
         stop-opacity=".31373"
         offset="1" />
    </linearGradient>
  </defs>
  <sodipodi:namedview
     id="base"
     pagecolor="#ffffff"
     bordercolor="#666666"
     borderopacity="1.0"
     inkscape:pageopacity="0.0"
     inkscape:pageshadow="2"
     inkscape:zoom="3.9716312"
     inkscape:cx="39.374875"
     inkscape:cy="56.29793"
     inkscape:document-units="px"
     inkscape:current-layer="layer4"
     showgrid="true"
     showborder="true"
     inkscape:showpageshadow="false"
     inkscape:window-width="1366"
     inkscape:window-height="743"
     inkscape:window-x="0"
     inkscape:window-y="25"
     inkscape:window-maximized="1">
    <inkscape:grid
       type="xygrid"
       id="grid3732"
       visible="true"
       enabled="true" />
  </sodipodi:namedview>
  <metadata
     id="metadata2413">
    <rdf:RDF>
      <cc:Work
         rdf:about="">
        <dc:format>image/svg+xml</dc:format>
        <dc:type
           rdf:resource="http://purl.org/dc/dcmitype/StillImage" />
        <dc:title />
      </cc:Work>
    </rdf:RDF>
  </metadata>
  <g
     inkscape:groupmode="layer"
     id="layer2"
     inkscape:label="Blur Shadow"
     style="display:none"
     sodipodi:insensitive="true">
    <rect
       style="opacity:0.9;fill:url(#ButtonShadow);fill-opacity:1;fill-rule:nonzero;stroke:none;filter:url(#filter3174)"
       id="rect3745"
       width="86"
       height="85"
       x="5"
       y="7"
       rx="6"
       ry="6" />
  </g>
  <g
     inkscape:groupmode="layer"
     id="layer3"
     inkscape:label="Shadow"
     sodipodi:insensitive="true">
    <path
       sodipodi:type="inkscape:offset"
       inkscape:radius="0.99097413"
       inkscape:original="M 12 -94.03125 C 7.028367 -94.03125 2.96875 -89.971633 2.96875 -85 L 2.96875 -14 C 2.96875 -9.0283671 7.0283671 -4.96875 12 -4.96875 L 84 -4.96875 C 88.971633 -4.96875 93.03125 -9.028367 93.03125 -14 L 93.03125 -85 C 93.03125 -89.971633 88.971633 -94.03125 84 -94.03125 L 12 -94.03125 z "
       style="opacity:0.07999998;fill:url(#linearGradient3026);fill-opacity:1;fill-rule:nonzero;stroke:none;display:inline"
       id="path3786"
       d="m 12,-95.03125 c -5.5110903,0 -10.03125,4.52016 -10.03125,10.03125 l 0,71 c 0,5.5110902 4.5201598,10.03125 10.03125,10.03125 l 72,0 c 5.51109,0 10.03125,-4.5201597 10.03125,-10.03125 l 0,-71 c 0,-5.51109 -4.52016,-10.03125 -10.03125,-10.03125 l -72,0 z"
       transform="scale(1,-1)" />
    <path
       sodipodi:type="inkscape:offset"
       inkscape:radius="1.0360184"
       inkscape:original="M 12 -93 C 7.5908667 -93 4 -89.409133 4 -85 L 4 -14 C 4 -9.5908667 7.5908667 -6 12 -6 L 84 -6 C 88.409133 -6 92 -9.5908667 92 -14 L 92 -85 C 92 -89.409133 88.409133 -93 84 -93 L 12 -93 z "
       style="opacity:0.1;fill:url(#linearGradient3780);fill-opacity:1;fill-rule:nonzero;stroke:none;display:inline"
       id="path3778"
       d="m 12,-94.03125 c -4.971633,0 -9.03125,4.059617 -9.03125,9.03125 l 0,71 c 0,4.9716329 4.0596171,9.03125 9.03125,9.03125 l 72,0 c 4.971633,0 9.03125,-4.059617 9.03125,-9.03125 l 0,-71 c 0,-4.971633 -4.059617,-9.03125 -9.03125,-9.03125 l -72,0 z"
       transform="scale(1,-1)" />
    <path
       sodipodi:type="inkscape:offset"
       inkscape:radius="0.98962283"
       inkscape:original="M 12 -92 C 8.122 -92 5 -88.878 5 -85 L 5 -14 C 5 -10.122 8.122 -7 12 -7 L 84 -7 C 87.878 -7 91 -10.122 91 -14 L 91 -85 C 91 -88.878 87.878 -92 84 -92 L 12 -92 z "
       style="opacity:0.2;fill:url(#linearGradient3772);fill-opacity:1;fill-rule:nonzero;stroke:none;display:inline"
       id="path3770"
       d="m 12,-93 c -4.4091333,0 -8,3.590867 -8,8 l 0,71 c 0,4.4091333 3.5908667,8 8,8 l 72,0 c 4.409133,0 8,-3.5908667 8,-8 l 0,-71 c 0,-4.409133 -3.590867,-8 -8,-8 l -72,0 z"
       transform="scale(1,-1)" />
    <rect
       style="opacity:0.3;fill:url(#linearGradient3725);fill-opacity:1;fill-rule:nonzero;stroke:none;display:inline"
       id="rect3723"
       width="86"
       height="85"
       x="5"
       y="-92"
       rx="7"
       ry="7"
       transform="scale(1,-1)" />
    <rect
       transform="scale(1,-1)"
       ry="6"
       rx="6"
       y="-91"
       x="6"
       height="84"
       width="84"
       id="rect3716"
       style="opacity:0.45;fill:url(#linearGradient3721);fill-opacity:1;fill-rule:nonzero;stroke:none;display:inline" />
  </g>
  <g
     inkscape:label="Button"
     inkscape:groupmode="layer"
     id="layer1"
     sodipodi:insensitive="true">
    <rect
       style="fill:url(#linearGradient3617);fill-opacity:1;fill-rule:nonzero;stroke:none"
       id="rect2419"
       width="84"
       height="84"
       x="6"
       y="6"
       rx="6"
       ry="6" />
    <g
       id="g907">
      <path
         id="rect4377"
         d="M 12,86 C 8.676,86 6,83.324 6,80 V 12 C 6,8.676 8.676,6 12,6 h 72 c 3.324,0 6,2.676 6,6 v 68 c 0,3.324 -2.676,6 -6,6 z m 0,-0.96875 h 72 c 2.8049,0 5.0312,-2.2264 5.0312,-5.0312 v -68 c 0,-2.8049 -2.226,-5.0312 -5.031,-5.0312 h -72 c -2.8049,0 -5.0312,2.2263 -5.0312,5.0312 v 68 c 0,2.8049 2.2264,5.0312 5.0312,5.0312 z"
         style="opacity:0.3;fill:url(#linearGradient4390)"
         inkscape:connector-curvature="0" />
      <path
         id="rect4414"
         d="m 6,78 v 2 c 0,3.324 2.676,6 6,6 h 72 c 3.324,0 6,-2.676 6,-6 v -2 c 0,3.324 -2.676,6 -6,6 H 12 C 8.676,84 6,81.324 6,78 Z"
         style="opacity:0.1;fill:url(#linearGradient4429)"
         inkscape:connector-curvature="0" />
      <g
         id="layer4-3">
        <path
           style="fill:url(#linearGradient3228)"
           inkscape:connector-curvature="0"
           d="m 6,80 v 4 c 0,3.324 2.676,6 6,6 h 72 c 3.324,0 6,-2.676 6,-6 v -4 c 0,3.324 -2.676,6 -6,6 H 12 C 8.676,86 6,83.324 6,80 Z"
           id="path3888" />
        <path
           style="color:#000000;opacity:0.1"
           inkscape:connector-curvature="0"
           d="m 6,82 v 2 c 0,3.324 2.676,6 6,6 h 72 c 3.324,0 6,-2.676 6,-6 v -2 c 0,3.324 -2.676,6 -6,6 H 12 C 8.676,88 6,85.324 6,82 Z"
           id="rect4345" />
        <path
           style="color:#000000;opacity:0.15"
           inkscape:connector-curvature="0"
           d="m 6,83 v 1 c 0,3.324 2.676,6 6,6 h 72 c 3.324,0 6,-2.676 6,-6 v -1 c 0,3.324 -2.676,6 -6,6 H 12 C 8.676,89 6,86.324 6,83 Z"
           id="rect4336" />
      </g>
    </g>
  </g>
  <g
     inkscape:groupmode="layer"
     id="layer5"
     inkscape:label="Highlight"
     sodipodi:insensitive="true">
    <rect
       style="opacity:0.1;fill:url(#linearGradient3613);fill-opacity:1;fill-rule:nonzero;stroke:#ffffff;stroke-width:0.5;stroke-linecap:round;stroke-linejoin:miter;stroke-miterlimit:4;stroke-opacity:1;stroke-dasharray:none;stroke-dashoffset:0;filter:url(#filter3794)"
       id="rect3171"
       width="66"
       height="66"
       x="15"
       y="15"
       rx="12"
       ry="12"
       clip-path="url(#clipPath3613)" />
  </g>
  <g
     inkscape:groupmode="layer"
     id="layer4"
     inkscape:label="Symbol">
    <path
       style="fill:#298daf;fill-opacity:1"
       d="m 169.84375,-28.40625 c -28.21929,0 -51.3124,23.1841043 -53,52.46875 -4.65464,5.602833 -9.26295,9.541384 -8,17.96875 1.22221,8.155477 8.734,9.597098 13.15625,9.71875 0.39682,0.867658 0.81284,1.720483 1.25,2.5625 8.96631,33.041696 -19.43349,38.573386 3.6875,43.21875 20.701,4.15915 53.87944,1.640092 80.875,-30.9375 9.62091,-11.610272 13.9744,-24.349505 15.09375,-38.96875 1.39544,-0.941261 10.86337,-7.668342 9.96875,-16.59375 -1.53303,-8.4153313 -9.54598,-10.82617187 -17.03125,-11.375 -9.16377,-16.775104 -26.31035,-28.0625 -46,-28.0625 z M 177,-17.09375 c 19.5718,0 35.4375,16.38878629 35.4375,36.625 0,20.236213 -15.8657,36.65625 -35.4375,36.65625 -19.57181,0 -35.4375,-16.420037 -35.4375,-36.65625 0,-20.23621371 15.86569,-36.625 35.4375,-36.625 z m 5.3125,13.75 c -1.75146,0.2316873 -5.26803,4.5692909 -6.8125,6.5625 0.49207,-0.056549 0.99336,-0.09375 1.5,-0.09375 3.33208,0 6.37254,1.2647688 8.71875,3.34375 -0.30009,-2.8092453 -1.18498,-9.0874462 -3,-9.78125 -0.12134,-0.046378 -0.25507,-0.051269 -0.40625,-0.03125 z M 177,7.3125 c -5.16972,0 -9.375,4.342059 -9.375,9.6875 0,5.345441 4.20528,9.6875 9.375,9.6875 5.16971,0 9.34375,-4.342059 9.34375,-9.6875 0,-5.345441 -4.17404,-9.6875 -9.34375,-9.6875 z m 9.4375,19.53125 C 184.01337,29.324081 180.67971,30.875 177,30.875 c -0.46742,0 -0.95113,-0.01425 -1.40625,-0.0625 0.19234,0.249755 13.26093,17.17119 14.0625,16.8125 0.87339,-0.391417 -2.68507,-18.14114 -3.21875,-20.78125 z"
       id="path2885" />
    <g
       id="g940"
       transform="translate(0,-2.0003558)">
      <path
         d="m 47.5,12.949219 c -15.920575,0 -28.847093,12.839295 -30.298828,28.992187 -0.962106,1.100437 -2.091392,2.226881 -2.992188,3.802735 -1.102341,1.928436 -1.668691,4.380644 -1.248046,7.1875 0.455209,3.037483 2.291085,5.17362 4.335937,6.277343 1.146207,0.618674 2.212856,0.788244 3.228516,0.951172 1.85315,7.374782 -0.05982,10.940481 -1.623047,14.03711 -0.380888,0.754508 -0.811277,1.5206 -1.119141,2.451172 -0.325097,0.982661 -0.526795,2.336174 0.06445,3.695312 0.598052,1.374779 1.777594,2.173659 2.888672,2.677734 1.105737,0.501652 2.392538,0.8411 4,1.164063 11.576925,2.325983 30.058086,0.684655 44.767578,-17.066406 5.118416,-6.176778 7.58419,-13.12747 8.351563,-20.677735 0.624738,-0.447607 1.453393,-1.012075 2.490234,-2.257812 1.527983,-1.835832 3.110211,-4.568666 2.826172,-7.925782 0.01112,0.131426 0.02068,0.08518 -0.002,-0.140624 l 0.0059,0.101562 V 36.1875 a 1.0188279,1.0188279 0 0 0 -0.0078,-0.119141 c -0.0095,-0.0806 -0.02774,-0.159419 -0.04687,-0.238281 -0.56668,-3.072784 -2.494506,-5.294385 -4.75586,-6.535156 -1.74557,-0.957768 -3.599557,-1.326799 -5.33789,-1.542969 C 67.626933,18.964715 58.285875,12.949219 47.5,12.949219 Z m 3.71875,11.945312 c 8.446856,0 15.292969,7.012827 15.292969,15.917969 0,5.079585 -2.32913,9.435703 -5.822266,12.339844 -0.124065,-0.951856 -0.285582,-2.071326 -0.498047,-3.267578 -0.448864,-2.527263 -0.983316,-5.106585 -1.125,-5.806641 -2.2e-5,-1.28e-4 0.115534,0.49162 -0.0098,-0.07813 0.0022,0.0099 -0.04084,-0.200523 -0.04102,-0.201172 -2.07e-4,-7.74e-4 -0.08957,-0.272684 -0.08984,-0.273437 -2.75e-4,-7.53e-4 -0.09732,-0.23951 -0.09766,-0.240235 -8.5e-5,-1.81e-4 -0.05357,-0.100352 -0.0625,-0.115234 -0.0089,-0.01488 -0.0215,-0.03323 -0.0332,-0.05273 -0.02341,-0.039 -0.04081,-0.06801 -0.04102,-0.06836 -4.04e-4,-6.92e-4 -0.142114,-0.231769 -0.142578,-0.232422 -4.64e-4,-6.53e-4 -0.14987,-0.196656 -0.15039,-0.197265 -7.1e-5,-8.2e-5 -0.01952,-0.01938 -0.02539,-0.02539 0.417848,-0.942328 0.740234,-1.958229 0.740234,-3.09375 0,-1.351289 -0.452739,-2.52817 -1.029297,-3.59375 0.0022,-0.003 0.138305,-0.183044 0.138672,-0.183594 0,0 0.05912,-0.100714 0.06055,-0.103515 0.0014,-0.0028 0.0014,-0.0047 0.002,-0.0059 0.0012,-0.0023 0.0029,-0.0038 0.0039,-0.0059 0.0021,-0.0041 0.0048,-0.0096 0.0078,-0.01563 0.0036,-0.0072 0.0092,-0.01636 0.01367,-0.02539 0.0076,-0.01019 0.0154,-0.02118 0.02148,-0.0293 0.0046,-0.0061 0.0085,-0.01127 0.01172,-0.01563 6.26e-4,-8.37e-4 0.0014,-0.0011 0.002,-0.002 0,0 6.42e-4,-0.0021 0.002,-0.0039 2.83e-4,-3.81e-4 0.0016,-0.0015 0.002,-0.002 0.006,-0.01012 0.107865,-0.184501 0.123047,-0.214844 0.01561,-0.0312 0.07215,-0.152033 0.07227,-0.152344 0,0 0.0461,-0.152575 0.04687,-0.15625 7.71e-4,-0.0037 -3.02e-4,-0.0063 0,-0.0078 6.04e-4,-0.003 0.0014,-0.0052 0.002,-0.0078 0.0011,-0.0052 0.0024,-0.01004 0.0039,-0.01758 0.003,-0.01507 0.0078,-0.03518 0.01172,-0.05469 0.0078,-0.03901 -0.0099,0.0179 -0.0098,0.01758 1.93e-4,-6.37e-4 0.05064,-0.196617 0.05078,-0.197266 1.45e-4,-6.49e-4 0.04483,-0.22981 0.04492,-0.230468 4.9e-5,-3.3e-4 -0.002,0.01166 0.0059,-0.02734 0.0039,-0.0195 0.0087,-0.03777 0.01172,-0.05273 0.0015,-0.0075 0.0029,-0.01455 0.0039,-0.01953 2.97e-4,-0.0015 -2.71e-4,-0.0025 0,-0.0039 4.8e-5,-6.64e-4 0.02148,-0.35871 0.02148,-0.359375 -10e-7,-6.65e-4 -0.0039,-0.200509 -0.0039,-0.201172 l 0.0039,0.09375 c 3.33e-4,-0.02111 3.33e-4,-0.04139 0,-0.0625 a 1.0188279,1.0188279 0 0 0 -0.0059,-0.0918 c -0.07916,-0.741062 -0.215183,-2.051695 -0.521484,-3.345703 -0.158587,-0.669968 -0.372479,-1.321696 -0.66211,-1.945313 -0.257178,-0.553741 -0.874389,-1.765697 -2.279297,-2.302734 -0.374927,-0.143334 -0.954514,-0.280083 -1.683593,-0.183594 -1.075454,0.142265 -1.853737,0.664239 -2.308594,1.021485 -0.508592,0.39945 -0.922685,0.829029 -1.298828,1.226562 -0.786571,0.8313 -1.502301,1.730756 -1.939454,2.294922 a 1.0188279,1.0188279 0 0 0 -0.0078,0.0098 c -3.96e-4,5.25e-4 -0.136362,0.184994 -0.136719,0.185547 -2.2e-5,3.4e-5 -0.05362,0.09358 -0.05469,0.0957 -0.0011,0.0021 -0.0029,0.0038 -0.0039,0.0059 -0.002,0.0041 -0.0048,0.0096 -0.0078,0.01563 -0.0036,0.0072 -0.0092,0.01637 -0.01367,0.02539 -0.0077,0.01019 -0.01538,0.02116 -0.02148,0.0293 -0.0046,0.0061 -0.0084,0.01122 -0.01172,0.01563 -6.33e-4,8.47e-4 -0.0013,0.0011 -0.002,0.002 0,0 -0.0019,0.0038 -0.002,0.0039 -0.0037,0.0076 -0.168757,0.34713 -0.169922,0.351563 -0.0012,0.0045 -0.0015,0.0062 -0.002,0.0078 -8.24e-4,0.0032 -0.0014,0.0035 -0.002,0.0059 -0.0012,0.0046 -0.0024,0.01145 -0.0039,0.01758 -0.0028,0.01121 -0.0062,0.02482 -0.0098,0.03906 -3.36e-4,0.0013 3.36e-4,0.0026 0,0.0039 -0.0019,0.0048 -0.0015,0.0018 -0.0039,0.0078 -0.01561,0.039 -0.06436,0.175465 -0.06445,0.175781 -1.82e-4,6.32e-4 -0.04869,0.194668 -0.04883,0.195312 -1.36e-4,6.45e-4 -0.04483,0.229817 -0.04492,0.230469 0,0 -0.0097,0.12586 -0.0098,0.128907 -2.3e-5,0.003 4e-6,0.0045 0,0.0059 -9e-6,0.0026 3e-6,0.0053 0,0.0078 -6e-6,0.005 0,0.01204 0,0.01953 -10e-7,0.01499 -8e-6,0.03323 0,0.05273 1.6e-5,0.039 0.002,0.0153 0.002,0.01563 -4e-5,6.56e-4 -0.002,0.198561 -0.002,0.199219 5e-6,4.29e-4 8.82e-4,0.0823 0.002,0.15039 -2.431203,1.39001 -4.095703,3.980841 -4.095703,6.962891 0,3.00563 1.692803,5.62128 4.158203,7.011719 -8.92e-4,0.05822 -0.002,0.140168 -0.002,0.140625 -3e-6,6.47e-4 0.0039,0.227869 0.0039,0.228515 2.1e-5,3.23e-4 -0.0039,-0.03707 -0.0039,-0.0059 -9e-6,0.01561 -10e-7,0.03081 0,0.04297 0,0.0061 -7e-6,0.01124 0,0.01563 3e-6,0.0022 -1.2e-5,0.0031 0,0.0059 0.0012,0.0081 0.05455,0.366561 0.05469,0.367188 1.35e-4,6.33e-4 0.04865,0.194691 0.04883,0.195312 9e-5,3.11e-4 0.04884,0.134833 0.06445,0.173828 0.01561,0.039 0.02137,0.05243 0.02148,0.05273 0,0 0.03981,0.09326 0.04102,0.0957 0.0012,0.0024 0.0014,0.0048 0.002,0.0059 0.001,0.0021 0.0029,0.0038 0.0039,0.0059 0.002,0.004 0.0029,0.0077 0.0059,0.01367 0.006,0.012 0.01563,0.02737 0.02344,0.04297 0.01561,0.0312 0.01354,0.02705 0.01367,0.02734 2.67e-4,5.89e-4 0.09539,0.190838 0.0957,0.191406 1.54e-4,2.84e-4 -0.0019,3.9e-5 0.01367,0.03125 0.0078,0.01561 0.01549,0.03098 0.02148,0.04297 0.003,0.006 0.0058,0.0116 0.0078,0.01563 0.001,0.002 0.0029,0.0038 0.0039,0.0059 0.001,0.0021 0.05271,0.09176 0.05273,0.0918 3.49e-4,5.45e-4 0.134379,0.185029 0.134766,0.185547 a 1.0188279,1.0188279 0 0 0 0.0098,0.01172 c -0.065,-0.08441 0.456105,0.602885 1.115235,1.457031 0.65913,0.854146 1.534777,1.97979 2.427734,3.091797 0.900363,1.121227 1.825144,2.219181 2.556641,3.060547 0.03066,0.03526 0.05771,0.06104 0.08789,0.0957 -1.010127,0.239592 -2.001449,0.560547 -3.068359,0.560547 -8.439839,0 -15.292969,-7.044539 -15.292969,-15.949219 0,-8.905143 6.846112,-15.917969 15.292969,-15.917969 z m 7.498047,9.494141 c 1.8e-4,-9.12e-4 0.0018,-9.55e-4 0.002,-0.002 2.45e-4,-0.0012 -5.4e-4,-0.0031 0,-0.0059 5.4e-4,-0.0028 -0.002,0.0078 -0.002,0.0078 z m -10.947266,11.107422 -0.105469,0.21289 -0.0039,-0.0078 c 0.02101,-0.06156 0.04218,-0.0979 0.05859,-0.126953 0.0082,-0.01453 0.01475,-0.02665 0.02148,-0.03711 0.0034,-0.0052 0.0063,-0.0094 0.0078,-0.01172 -0.0025,0.0038 0.02148,-0.0293 0.02148,-0.0293 z"
         id="path4973"
         style="opacity:0.05;fill:#000000;fill-opacity:1"
         inkscape:original="M 47.5 13.96875 C 32.011711 13.96875 19.405867 26.545195 18.15625 42.375 C 17.123035 43.579444 15.965423 44.725093 15.09375 46.25 C 14.099236 47.989803 13.580336 50.189461 13.96875 52.78125 C 14.37548 55.495246 15.989229 57.345244 17.78125 58.3125 C 19.047442 58.995936 20.292001 59.250296 21.40625 59.375 C 21.42044 59.405828 21.422498 59.436993 21.4375 59.46875 C 23.568018 67.425251 21.401285 71.508997 19.8125 74.65625 C 19.420038 75.433685 19.019597 76.153847 18.75 76.96875 C 18.472725 77.806862 18.324021 78.88644 18.78125 79.9375 C 19.241319 80.99509 20.164007 81.643588 21.15625 82.09375 C 22.145866 82.54272 23.364167 82.871394 24.9375 83.1875 C 36.221996 85.45473 54.256029 83.922014 68.71875 66.46875 C 73.794485 60.343479 76.203775 53.492525 76.90625 45.9375 C 77.527571 45.496372 78.452835 44.864483 79.5625 43.53125 C 80.994283 41.811 82.409425 39.336077 82.15625 36.34375 C 82.152588 36.300464 82.16061 36.262248 82.15625 36.21875 L 82.15625 36.1875 A 0.99205138 0.99205138 0 0 0 82.125 36.03125 C 81.620787 33.26347 79.912194 31.305278 77.875 30.1875 C 76.163234 29.24828 74.271376 28.885997 72.46875 28.6875 C 67.280944 19.933243 58.087351 13.96875 47.5 13.96875 z M 51.21875 23.875 C 60.23128 23.875 67.53125 31.381659 67.53125 40.8125 C 67.53125 46.918677 64.450291 52.198247 59.84375 55.1875 C 59.851656 55.071133 59.878562 54.962561 59.875 54.84375 C 59.862389 54.423051 59.777968 53.999919 59.71875 53.53125 C 59.59599 52.559679 59.41318 51.333156 59.1875 50.0625 C 58.739819 47.541899 58.203037 44.944959 58.0625 44.25 C 58.062478 44.249872 58.0642 44.22648 58.0625 44.21875 C 58.053717 44.178812 58.031424 44.063149 58.03125 44.0625 C 58.031043 44.061726 57.969025 43.875753 57.96875 43.875 C 57.968475 43.874247 57.906591 43.719475 57.90625 43.71875 C 57.905909 43.718025 57.812904 43.563192 57.8125 43.5625 C 57.812096 43.561808 57.719214 43.406903 57.71875 43.40625 C 57.718286 43.405597 57.625521 43.281859 57.625 43.28125 C 57.624479 43.280641 57.500573 43.156811 57.5 43.15625 C 57.499427 43.155689 57.37562 43.031758 57.375 43.03125 C 57.37438 43.030742 57.219413 42.9067 57.21875 42.90625 C 57.218496 42.906078 57.183674 42.891897 57.15625 42.875 C 57.712235 41.855249 58.09375 40.730997 58.09375 39.5 C 58.09375 38.075734 57.572978 36.804782 56.84375 35.6875 C 56.844295 35.687118 56.968235 35.594171 56.96875 35.59375 C 56.969265 35.593329 57.093267 35.500458 57.09375 35.5 C 57.094233 35.499542 57.187053 35.406742 57.1875 35.40625 C 57.187947 35.405758 57.28084 35.281774 57.28125 35.28125 C 57.28166 35.280726 57.37463 35.156803 57.375 35.15625 C 57.37537 35.155697 57.437172 35.031829 57.4375 35.03125 C 57.437828 35.030671 57.530966 34.906852 57.53125 34.90625 C 57.531534 34.905648 57.593511 34.781871 57.59375 34.78125 C 57.593989 34.780629 57.624807 34.625637 57.625 34.625 C 57.625193 34.624363 57.656105 34.500649 57.65625 34.5 C 57.656395 34.499351 57.687403 34.344408 57.6875 34.34375 C 57.687597 34.343092 57.718702 34.188164 57.71875 34.1875 C 57.718798 34.186836 57.718751 34.031915 57.71875 34.03125 C 57.718749 34.030585 57.718801 33.906913 57.71875 33.90625 A 0.99205138 0.99205138 0 0 0 57.71875 33.875 C 57.639513 33.133244 57.504753 31.864506 57.21875 30.65625 C 57.073178 30.041265 56.880907 29.457253 56.625 28.90625 C 56.396647 28.414574 55.916921 27.511337 54.90625 27.125 C 54.674813 27.036522 54.241402 26.93083 53.71875 27 C 52.900514 27.108239 52.296182 27.506246 51.90625 27.8125 C 51.466783 28.157659 51.088495 28.546729 50.71875 28.9375 C 49.972746 29.725926 49.271154 30.604665 48.84375 31.15625 C 48.843354 31.156775 48.750357 31.280697 48.75 31.28125 C 48.749643 31.281803 48.687815 31.405673 48.6875 31.40625 C 48.687185 31.406827 48.594022 31.530651 48.59375 31.53125 C 48.593478 31.531849 48.562728 31.655633 48.5625 31.65625 C 48.562272 31.656867 48.500182 31.811868 48.5 31.8125 C 48.499818 31.813132 48.468886 31.936856 48.46875 31.9375 C 48.468614 31.938144 48.437588 32.093098 48.4375 32.09375 C 48.437412 32.094402 48.43754 32.249344 48.4375 32.25 C 48.43746 32.250656 48.437492 32.374342 48.4375 32.375 C 48.437508 32.375658 48.437444 32.530595 48.4375 32.53125 C 48.437556 32.531905 48.437397 32.68685 48.4375 32.6875 C 48.437603 32.68815 48.468599 32.81186 48.46875 32.8125 C 48.468901 32.81314 48.531053 32.968122 48.53125 32.96875 C 48.531343 32.969045 48.519793 32.998914 48.53125 33.03125 C 46.065513 34.109562 44.34375 36.629716 44.34375 39.5 C 44.34375 42.403283 46.110094 44.965854 48.625 46.03125 C 48.612734 46.067183 48.593849 46.093422 48.59375 46.09375 C 48.593563 46.094369 48.531392 46.218119 48.53125 46.21875 C 48.531108 46.219381 48.500096 46.37436 48.5 46.375 C 48.499904 46.37564 48.50005 46.530605 48.5 46.53125 C 48.49995 46.531895 48.500003 46.655603 48.5 46.65625 C 48.499997 46.656897 48.499957 46.811854 48.5 46.8125 C 48.500043 46.813146 48.499911 46.936859 48.5 46.9375 C 48.500089 46.938141 48.531115 47.093117 48.53125 47.09375 C 48.531385 47.094383 48.56232 47.218129 48.5625 47.21875 C 48.56268 47.219371 48.624776 47.374393 48.625 47.375 C 48.625224 47.375607 48.687233 47.499411 48.6875 47.5 C 48.687767 47.500589 48.749691 47.624432 48.75 47.625 C 48.750309 47.625568 48.812151 47.749455 48.8125 47.75 C 48.812849 47.750545 48.905863 47.874482 48.90625 47.875 C 48.943358 47.923186 50.663973 50.197663 52.4375 52.40625 C 53.328082 53.515298 54.246579 54.60686 54.96875 55.4375 C 55.324688 55.846899 55.634687 56.200576 55.9375 56.5 C 56.087073 56.647899 56.231824 56.734018 56.375 56.84375 C 54.743247 57.410414 53.034236 57.78125 51.21875 57.78125 C 42.210596 57.78125 34.90625 50.243201 34.90625 40.8125 C 34.90625 31.381659 42.206219 23.875 51.21875 23.875 z "
         inkscape:radius="1.018726"
         sodipodi:type="inkscape:offset" />
      <path
         d="m 47.5,13.976562 c -15.477948,0 -28.075872,12.544519 -29.339844,28.359376 -1.037624,1.210937 -2.176483,2.388959 -3.052734,3.921874 -0.994514,1.739803 -1.538805,3.921884 -1.150391,6.513672 0.40673,2.713996 2.030245,4.571807 3.822266,5.539063 1.259435,0.679789 2.495463,0.930853 3.605469,1.056641 0.02418,0.05277 0.04367,0.09875 0.07031,0.154296 2.106699,7.92165 -0.06708,11.984729 -1.652344,15.125 -0.392462,0.777435 -0.787043,1.507363 -1.05664,2.322266 -0.277276,0.838112 -0.425979,1.907924 0.03125,2.958984 0.460069,1.05759 1.382757,1.713901 2.375,2.164063 0.989615,0.44897 2.20401,0.783503 3.777344,1.099609 11.284495,2.26723 29.340013,0.738421 43.802734,-16.714844 5.069523,-6.117774 7.458266,-12.975457 8.164062,-20.519531 0.619128,-0.438969 1.559355,-1.072311 2.677735,-2.416015 1.452495,-1.745135 2.874114,-4.277662 2.568359,-7.328125 l 0.0039,0.144531 c 0.0028,-0.06163 0.0028,-0.121965 0,-0.183594 a 0.99205138,0.99205138 0 0 0 -0.01367,-0.132812 c -0.504212,-2.76778 -2.212806,-4.729878 -4.25,-5.847657 -1.717546,-0.942392 -3.623638,-1.317833 -5.43164,-1.515625 C 67.261718,19.931679 58.081327,13.976563 47.5,13.976562 Z m 3.71875,9.890626 c 9.01253,0 16.320312,7.514471 16.320312,16.945312 0,6.105142 -3.088121,11.381559 -7.693359,14.371094 0.0073,-0.1125 0.02493,-0.223092 0.02148,-0.337891 -0.01261,-0.420699 -0.07359,-0.845784 -0.132813,-1.314453 -0.12276,-0.971571 -0.313383,-2.184422 -0.539063,-3.455078 -0.450001,-2.533666 -0.991806,-5.188956 -1.128906,-5.867188 l 0.0039,0.02734 c -0.09911,-0.569083 -0.504628,-0.992987 -0.996093,-1.292969 0.585703,-1.039899 1.011719,-2.177417 1.011719,-3.443359 0,-1.442989 -0.538253,-2.72156 -1.285157,-3.847656 0.569563,-0.401056 0.95935,-1.062464 0.90625,-1.759766 a 0.99205138,0.99205138 0 0 0 -0.002,-0.0293 c -0.07924,-0.741756 -0.204231,-2.008541 -0.490234,-3.216797 -0.145573,-0.614985 -0.339797,-1.20095 -0.595703,-1.751953 -0.228353,-0.491676 -0.692454,-1.371475 -1.703125,-1.757812 -0.231438,-0.08848 -0.680474,-0.219561 -1.203125,-0.150391 -0.818236,0.108239 -1.40499,0.521871 -1.794922,0.828125 -0.439467,0.34516 -0.831427,0.738135 -1.201172,1.128906 -0.746004,0.788427 -1.447597,1.647634 -1.875,2.199219 a 0.99205138,0.99205138 0 0 0 -0.0078,0.0098 c -0.398976,0.528893 -0.431239,1.243091 -0.216796,1.867187 -2.502287,1.061363 -4.265626,3.583638 -4.265626,6.480469 0,2.918555 1.788118,5.464367 4.324219,6.519531 -0.211472,0.620055 -0.176871,1.328805 0.216797,1.855469 a 0.99205138,0.99205138 0 0 0 0.0098,0.01172 c 0.03711,0.04819 1.769441,2.307038 3.542968,4.515625 0.890582,1.109048 1.80322,2.198657 2.525391,3.029297 0.355938,0.409398 0.654218,0.755263 0.957031,1.054687 0.14596,0.144327 0.289664,0.257459 0.429688,0.365234 -1.625086,0.561511 -3.331811,0.9375 -5.138672,0.9375 -9.008154,0 -16.320312,-7.545861 -16.320312,-16.976562 0,-9.430841 7.307781,-16.945312 16.320312,-16.945312 z m 4.816406,18.703124 0.07227,0.002 c -0.02229,-0.001 -0.04409,2.84e-4 -0.06641,0 -0.0021,4.9e-5 -0.0037,-0.002 -0.0059,-0.002 z"
         id="path4969"
         style="opacity:0.1;fill:#000000;fill-opacity:1"
         inkscape:original="M 47.5 14.96875 C 32.445881 14.96875 20.162022 27.252512 19.09375 42.75 C 17.980848 44.068067 16.815573 45.268566 15.96875 46.75 C 15.069801 48.322622 14.580341 50.241768 14.9375 52.625 C 15.297969 55.030312 16.693617 56.597431 18.25 57.4375 C 19.566684 58.14819 20.908751 58.386409 22.0625 58.46875 C 22.173974 58.717395 22.27401 58.957177 22.40625 59.21875 C 24.605633 67.432431 22.27246 71.954075 20.6875 75.09375 C 20.289615 75.881927 19.920026 76.578401 19.6875 77.28125 C 19.454974 77.984099 19.360107 78.778651 19.6875 79.53125 C 20.014893 80.283849 20.684952 80.789373 21.5625 81.1875 C 22.440048 81.585627 23.58969 81.910283 25.125 82.21875 C 36.128516 84.429527 53.745627 83.007873 67.96875 65.84375 C 72.99607 59.776905 75.326072 53.02422 75.96875 45.46875 C 76.544634 45.062156 77.62852 44.328771 78.8125 42.90625 C 80.167472 41.278287 81.425928 39.003035 81.15625 36.3125 A 1.0189446 1.0189446 0 0 0 81.15625 36.21875 C 80.706379 33.749268 79.229315 32.062789 77.40625 31.0625 C 75.732773 30.144288 73.774308 29.767607 71.90625 29.59375 C 66.931457 20.876636 57.890497 14.96875 47.5 14.96875 z M 51.21875 22.875 C 60.783793 22.875 68.53125 30.866535 68.53125 40.8125 C 68.53125 50.758464 60.781698 58.78125 51.21875 58.78125 C 41.655801 58.78125 33.90625 50.758464 33.90625 40.8125 C 33.90625 30.866535 41.653706 22.875 51.21875 22.875 z M 53.84375 27.96875 C 53.249821 28.047317 52.905778 28.299594 52.53125 28.59375 C 52.156722 28.887906 51.793352 29.248912 51.4375 29.625 C 50.725795 30.377177 50.034671 31.2213 49.625 31.75 A 1.0189446 1.0189446 0 0 0 50.5625 33.375 C 50.824731 33.344855 51.042402 33.34375 51.21875 33.34375 C 52.67892 33.34375 53.982513 33.883213 55.03125 34.8125 A 1.0189446 1.0189446 0 0 0 56.71875 33.96875 C 56.638874 33.221012 56.514519 31.992492 56.25 30.875 C 56.11774 30.316254 55.942733 29.794767 55.71875 29.3125 C 55.494767 28.830233 55.251289 28.325795 54.5625 28.0625 C 54.393138 27.997753 54.157599 27.927214 53.84375 27.96875 z M 51.21875 33.46875 C 47.975514 33.46875 45.34375 36.200411 45.34375 39.5 C 45.34375 42.799589 47.967585 45.5625 51.21875 45.5625 C 54.469911 45.5625 57.09375 42.79959 57.09375 39.5 C 57.09375 36.20041 54.461982 33.46875 51.21875 33.46875 z M 55.96875 43.5625 A 1.0189446 1.0189446 0 0 0 55.375 43.875 C 54.294383 44.980669 52.835511 45.65625 51.21875 45.65625 C 50.994376 45.65625 50.774864 45.675433 50.59375 45.65625 A 1.0189446 1.0189446 0 0 0 49.6875 47.28125 C 49.746215 47.357494 51.454366 49.584049 53.21875 51.78125 C 54.100942 52.87985 55.007237 53.962869 55.71875 54.78125 C 56.074506 55.19044 56.364628 55.523792 56.625 55.78125 C 56.755186 55.909979 56.888765 56.018505 57.03125 56.125 C 57.102493 56.178248 57.171219 56.249375 57.3125 56.3125 C 57.453781 56.375625 57.715481 56.523721 58.1875 56.3125 C 58.559972 56.145574 58.687269 55.869728 58.75 55.71875 C 58.812731 55.567772 58.830842 55.466572 58.84375 55.375 C 58.869566 55.191856 58.880046 55.043328 58.875 54.875 C 58.864908 54.538345 58.809813 54.129628 58.75 53.65625 C 58.630375 52.709494 58.442184 51.50801 58.21875 50.25 C 57.771883 47.73398 57.231855 45.089452 57.09375 44.40625 A 1.0189446 1.0189446 0 0 0 56.0625 43.5625 A 1.0189446 1.0189446 0 0 0 55.96875 43.5625 z "
         inkscape:radius="0.99195218"
         sodipodi:type="inkscape:offset" />
      <path
         d="m 47.5,14.980469 c -15.049099,0 -27.324981,12.265697 -28.400391,27.755859 -1.117066,1.324217 -2.282604,2.534129 -3.132812,4.021484 -0.898949,1.572622 -1.394268,3.478096 -1.037109,5.861329 0.360468,2.405312 1.752211,3.982196 3.308593,4.822265 1.31587,0.710251 2.674773,0.921403 3.828125,1.003906 0.106069,0.236759 0.209654,0.46789 0.333985,0.716797 2.220386,8.242662 -0.126943,12.778329 -1.714844,15.923829 -0.397885,0.788176 -0.757708,1.484651 -0.990235,2.1875 -0.232526,0.702848 -0.344971,1.493494 -0.01758,2.246093 0.327393,0.7526 1.005265,1.277655 1.882813,1.675781 0.877548,0.398127 2.015471,0.713017 3.550781,1.021485 11.003516,2.210777 28.638205,0.785217 42.861328,-16.378906 5.025272,-6.064373 7.340577,-12.793991 7.984375,-20.345703 0.56953,-0.401042 1.656614,-1.154538 2.84961,-2.587891 1.354972,-1.627963 2.632958,-3.909074 2.363281,-6.599609 a 1.0189446,1.0189446 0 0 0 -0.01172,-0.08008 C 80.708332,33.755127 79.21955,32.049117 77.396484,31.048828 75.719363,30.128616 73.780027,29.761142 71.908203,29.587891 66.932771,20.873603 57.888464,14.980469 47.5,14.980469 Z m 3.71875,7.882812 c 9.565043,0 17.324219,8.003254 17.324219,17.949219 0,9.945964 -7.761271,17.980469 -17.324219,17.980469 -9.562949,0 -17.324219,-8.034505 -17.324219,-17.980469 0,-9.945965 7.759175,-17.949219 17.324219,-17.949219 z m 2.617188,5.095703 c -0.593929,0.07857 -0.943832,0.352329 -1.31836,0.646485 -0.374528,0.294155 -0.737898,0.647349 -1.09375,1.023437 C 50.712124,30.381083 50.042484,31.2213 49.632812,31.75 a 1.0189446,1.0189446 0 0 0 0.921876,1.636719 c 0.262231,-0.03015 0.487714,-0.05469 0.664062,-0.05469 1.46017,0 2.775482,0.562901 3.824219,1.492188 a 1.0189446,1.0189446 0 0 0 1.689453,-0.869141 C 56.652546,33.20734 56.5028,32.004211 56.238281,30.886719 56.106022,30.327973 55.948593,29.790861 55.724609,29.308594 55.500626,28.826327 55.23957,28.312123 54.550781,28.048828 c -0.169361,-0.06475 -0.400995,-0.13138 -0.714843,-0.08984 z m -2.617188,5.521485 c -3.243236,0 -5.863281,2.719942 -5.863281,6.019531 0,3.299589 2.612116,6.050781 5.863281,6.050781 3.251161,0 5.863281,-2.751191 5.863281,-6.050781 0,-3.29959 -2.620049,-6.019531 -5.863281,-6.019531 z m 4.845703,10.095703 a 1.0189446,1.0189446 0 0 0 -0.699219,0.304687 c -1.080617,1.10567 -2.529723,1.78711 -4.146484,1.78711 -0.224374,0 -0.430214,-0.0062 -0.611328,-0.02539 a 1.0189446,1.0189446 0 0 0 -0.914063,1.634766 c 0.05871,0.07624 1.770773,2.296939 3.535157,4.49414 0.882192,1.098601 1.772862,2.187479 2.484375,3.00586 0.355756,0.40919 0.663456,0.748401 0.923828,1.005859 0.130186,0.128729 0.24228,0.235302 0.384765,0.341797 0.07124,0.05325 0.145828,0.10875 0.28711,0.171875 0.141281,0.06312 0.416653,0.219033 0.888672,0.0078 0.372471,-0.166926 0.497816,-0.433007 0.560546,-0.583985 0.06273,-0.150978 0.07889,-0.252178 0.0918,-0.34375 0.02582,-0.183144 0.02458,-0.329719 0.01953,-0.498047 -0.01009,-0.336655 -0.05152,-0.735606 -0.111329,-1.208984 -0.119625,-0.946756 -0.321488,-2.169725 -0.544921,-3.427734 -0.446867,-2.51602 -0.982989,-5.166408 -1.121094,-5.84961 a 1.0189446,1.0189446 0 0 0 -1.027344,-0.816406 z"
         id="path4965"
         style="opacity:0.15;fill:#000000;fill-opacity:1"
         inkscape:original="M 47.5 16 C 32.888289 16 20.936325 27.992906 20.0625 43.15625 C 17.652366 46.057349 15.283554 48.10513 15.9375 52.46875 C 16.57035 56.691587 20.460196 57.437009 22.75 57.5 C 22.95547 57.949266 23.148643 58.40776 23.375 58.84375 C 28.01768 75.952462 13.340647 78.81342 25.3125 81.21875 C 36.031304 83.372324 53.209426 82.055904 67.1875 65.1875 C 72.169125 59.175799 74.420411 52.569721 75 45 C 75.722547 44.512623 80.619472 41.027751 80.15625 36.40625 C 79.362455 32.048863 75.219562 30.815428 71.34375 30.53125 C 66.59883 21.845241 57.695131 16 47.5 16 z M 51.21875 21.84375 C 61.352867 21.84375 69.5625 30.334359 69.5625 40.8125 C 69.5625 51.29064 61.352867 59.8125 51.21875 59.8125 C 41.084632 59.8125 32.875 51.29064 32.875 40.8125 C 32.875 30.334359 41.084632 21.84375 51.21875 21.84375 z M 53.96875 28.96875 C 53.061859 29.088717 51.237214 31.342932 50.4375 32.375 C 50.69229 32.34571 50.956416 32.3125 51.21875 32.3125 C 52.944073 32.3125 54.503901 32.986021 55.71875 34.0625 C 55.563365 32.607896 55.127301 29.359246 54.1875 29 C 54.12467 28.97598 54.04703 28.95839 53.96875 28.96875 z M 51.21875 34.5 C 48.541913 34.5 46.375 36.732175 46.375 39.5 C 46.375 42.267825 48.541913 44.53125 51.21875 44.53125 C 53.895582 44.53125 56.0625 42.267825 56.0625 39.5 C 56.0625 36.732175 53.895582 34.5 51.21875 34.5 z M 56.09375 44.59375 C 54.838556 45.878043 53.124074 46.6875 51.21875 46.6875 C 50.976724 46.6875 50.735657 46.68121 50.5 46.65625 C 50.59959 46.785571 57.3662 55.560728 57.78125 55.375 C 58.233483 55.172329 56.370087 45.960778 56.09375 44.59375 z "
         inkscape:radius="1.0188427"
         sodipodi:type="inkscape:offset" />
      <path
         id="path4959"
         d="m 47.513508,16 c -14.611711,0 -26.569129,12.004534 -27.442954,27.167878 -2.410134,2.901099 -4.796278,4.940447 -4.142332,9.304067 0.63285,4.222837 4.522391,4.969296 6.812195,5.032287 0.20547,0.449266 0.420882,0.890851 0.647239,1.326841 4.64268,17.108712 -10.062497,19.972974 1.909356,22.378304 10.718804,2.153574 27.898322,0.849227 41.876396,-16.019177 4.981625,-6.011701 7.235823,-12.607969 7.815412,-20.17769 0.722547,-0.487377 5.624963,-3.970604 5.161741,-8.592105 -0.793795,-4.357387 -4.942828,-5.6057 -8.81864,-5.889878 C 66.587001,21.844518 57.708639,16 47.513508,16 Z m 3.705446,5.857518 c 10.134117,0 18.349239,8.485975 18.349239,18.964116 0,10.47814 -8.215122,18.980298 -18.349239,18.980298 -10.134118,0 -18.349239,-8.502158 -18.349239,-18.980298 0,-10.478141 8.215121,-18.964116 18.349239,-18.964116 z m 2.750768,7.119633 c -0.906891,0.119967 -2.727741,2.36594 -3.527455,3.398008 0.25479,-0.02929 0.514353,-0.04855 0.776687,-0.04855 1.725323,0 3.299647,0.654886 4.514496,1.731365 -0.155385,-1.454604 -0.613574,-4.705403 -1.553375,-5.064649 -0.06283,-0.02402 -0.132073,-0.02655 -0.210353,-0.01619 z m -2.750768,5.517718 c -2.676837,0 -4.854296,2.24828 -4.854296,5.016105 0,2.767825 2.177459,5.016105 4.854296,5.016105 2.676832,0 4.838113,-2.24828 4.838113,-5.016105 0,-2.767825 -2.161281,-5.016105 -4.838113,-5.016105 z m 4.886658,10.113117 c -1.255194,1.284293 -2.981334,2.087347 -4.886658,2.087347 -0.242026,0 -0.492487,-0.0074 -0.728144,-0.03236 0.09959,0.129321 6.866397,8.891098 7.281447,8.70537 0.452233,-0.202671 -1.390308,-9.393328 -1.666645,-10.760356 z"
         style="opacity:0.3;fill:#000000;fill-opacity:1"
         inkscape:connector-curvature="0" />
      <path
         style="fill:url(#linearGradient4939);fill-opacity:1"
         d="m 47.513508,15 c -14.611711,0 -26.569129,12.004534 -27.442954,27.167878 -2.410134,2.901099 -4.796278,4.940447 -4.142332,9.304067 0.63285,4.222837 4.522391,4.969296 6.812195,5.032287 0.20547,0.449266 0.420882,0.890851 0.647239,1.326841 4.64268,17.108712 -10.062497,19.972974 1.909356,22.378304 10.718804,2.153574 27.898322,0.849227 41.876396,-16.019177 4.981625,-6.011701 7.235823,-12.607969 7.815412,-20.17769 0.722547,-0.487377 5.624963,-3.970604 5.161741,-8.592105 -0.793795,-4.357387 -4.942828,-5.6057 -8.81864,-5.889878 C 66.587001,20.844518 57.708639,15 47.513508,15 Z m 3.705446,5.857518 c 10.134117,0 18.349239,8.485975 18.349239,18.964116 0,10.47814 -8.215122,18.980298 -18.349239,18.980298 -10.134118,0 -18.349239,-8.502158 -18.349239,-18.980298 0,-10.478141 8.215121,-18.964116 18.349239,-18.964116 z m 2.750768,7.119633 c -0.906891,0.119967 -2.727741,2.36594 -3.527455,3.398008 0.25479,-0.02929 0.514353,-0.04855 0.776687,-0.04855 1.725323,0 3.299647,0.654886 4.514496,1.731365 -0.155385,-1.454604 -0.613574,-4.705403 -1.553375,-5.064649 -0.06283,-0.02402 -0.132073,-0.02655 -0.210353,-0.01619 z m -2.750768,5.517718 c -2.676837,0 -4.854296,2.24828 -4.854296,5.016105 0,2.767825 2.177459,5.016105 4.854296,5.016105 2.676832,0 4.838113,-2.24828 4.838113,-5.016105 0,-2.767825 -2.161281,-5.016105 -4.838113,-5.016105 z m 4.886658,10.113117 c -1.255194,1.284293 -2.981334,2.087347 -4.886658,2.087347 -0.242026,0 -0.492487,-0.0074 -0.728144,-0.03236 0.09959,0.129321 6.866397,8.891098 7.281447,8.70537 0.452233,-0.202671 -1.390308,-9.393328 -1.666645,-10.760356 z"
         id="path4931"
         inkscape:connector-curvature="0" />
      <path
         id="path4941"
         d="M 47.5,15 C 32.888289,15 20.936325,26.992906 20.0625,42.15625 17.81553,44.860947 15.604945,46.836578 15.84375,50.625 16.019791,47.471208 18.022159,45.612226 20.0625,43.15625 20.936325,27.992906 32.888289,16 47.5,16 c 10.195131,0 19.09883,5.845241 23.84375,14.53125 3.875812,0.284178 8.018705,1.517613 8.8125,5.875 0.01896,-0.321374 0.03347,-0.666038 0,-1 -0.793795,-4.357387 -4.936688,-5.590822 -8.8125,-5.875 C 66.59883,20.845241 57.695131,15 47.5,15 Z m 6.46875,12.96875 c -0.906891,0.119967 -2.731536,2.374182 -3.53125,3.40625 0.25479,-0.02929 0.518916,-0.0625 0.78125,-0.0625 0.03227,0 0.06159,-4.57e-4 0.09375,0 0.879821,-1.047063 2.000621,-2.257021 2.65625,-2.34375 0.07828,-0.01036 0.15592,0.0072 0.21875,0.03125 0.748606,0.28616 1.178441,2.382462 1.40625,3.96875 0.04026,0.03411 0.08549,0.05874 0.125,0.09375 C 55.563365,31.607896 55.127301,28.359246 54.1875,28 54.12467,27.97598 54.04703,27.95839 53.96875,27.96875 Z m -2.75,5.53125 c -2.676837,0 -4.84375,2.232175 -4.84375,5 0,0.162813 -0.01473,0.341134 0,0.5 0.249026,-2.527621 2.334215,-4.5 4.84375,-4.5 2.50953,0 4.565252,1.972379 4.8125,4.5 0.01463,-0.158899 0.03125,-0.337152 0.03125,-0.5 0,-2.767825 -2.166918,-5 -4.84375,-5 z m -18.3125,6.8125 c -0.0043,0.168052 -0.03125,0.330883 -0.03125,0.5 0,10.47814 8.209632,19 18.34375,19 10.134117,0 18.34375,-8.52186 18.34375,-19 0,-0.169117 -0.027,-0.331948 -0.03125,-0.5 -0.259291,10.244595 -8.341948,18.5 -18.3125,18.5 -9.970553,0 -18.053209,-8.255405 -18.3125,-18.5 z m 23.1875,3.28125 c -1.255194,1.284293 -2.969676,2.09375 -4.875,2.09375 -0.242026,0 -0.483093,-0.0063 -0.71875,-0.03125 0.01152,0.01496 0.642785,0.812585 0.8125,1.03125 1.868505,-0.02563 3.546483,-0.830357 4.78125,-2.09375 0.224484,1.110514 1.46571,7.326084 1.6875,9.75 0.39888,-0.390175 -1.414141,-9.397703 -1.6875,-10.75 z M 24.3125,64.875 c -0.162271,7.533953 -4.385358,10.970572 -3.75,13.0625 0.539557,-2.286491 3.926833,-6.003938 3.75,-13.0625 z"
         style="fill:#ffffff;fill-opacity:1"
         inkscape:connector-curvature="0" />
      <path
         id="path4950"
         d="m 51.21875,19.84375 c -10.134118,0 -18.34375,8.490609 -18.34375,18.96875 0,0.169117 0.027,0.33194 0.03125,0.5 0.259291,-10.24409 8.341947,-18.46875 18.3125,-18.46875 9.970552,0 18.053209,8.22466 18.3125,18.46875 0.0043,-0.16806 0.03125,-0.330883 0.03125,-0.5 0,-10.478141 -8.209633,-18.96875 -18.34375,-18.96875 z M 51.3125,30.3125 c -0.337181,0.401275 -0.653432,0.776556 -0.875,1.0625 0.25479,-0.02929 0.518916,-0.0625 0.78125,-0.0625 1.725323,0 3.285151,0.673521 4.5,1.75 -0.03161,-0.295927 -0.06682,-0.68861 -0.125,-1.09375 -1.174594,-0.995088 -2.649732,-1.633085 -4.28125,-1.65625 z m 28.84375,5.21875 C 79.834603,39.592638 75.663477,42.552467 75,43 74.420411,50.569721 72.169125,57.175799 67.1875,63.1875 53.209426,80.055904 36.031304,81.372324 25.3125,79.21875 c -3.159879,-0.634868 -4.46077,-1.328954 -4.75,-2.28125 -0.362408,1.535785 0.574007,2.442229 4.75,3.28125 10.718804,2.153574 27.896926,0.837154 41.875,-16.03125 C 72.169125,58.175799 74.420411,51.569721 75,44 c 0.716104,-0.483031 5.521254,-3.908726 5.15625,-8.46875 z m -33.78125,2.5 c -0.01461,0.158262 0,0.306573 0,0.46875 0,2.767825 2.166913,5.03125 4.84375,5.03125 2.676832,0 4.84375,-2.263425 4.84375,-5.03125 0,-0.162219 -0.01673,-0.310448 -0.03125,-0.46875 -0.247248,2.527621 -2.30297,4.5 -4.8125,4.5 -2.509535,0 -4.594724,-1.972379 -4.84375,-4.5 z m 4.125,7.625 c 0.09959,0.129321 6.8662,8.904478 7.28125,8.71875 0.08486,-0.03803 0.05123,-0.471357 0,-1.03125 -0.0043,0.0042 0.0049,0.02907 0,0.03125 -0.367051,0.164249 -5.17092,-6.015344 -6.46875,-7.6875 -0.03091,4.24e-4 -0.06274,0 -0.09375,0 -0.242026,0 -0.483093,-0.0063 -0.71875,-0.03125 z M 15.84375,49.6875 c -0.02643,0.553674 -0.0029,1.136319 0.09375,1.78125 0.63285,4.222837 4.522696,4.968259 6.8125,5.03125 0.20547,0.449266 0.398643,0.90776 0.625,1.34375 0.580335,2.138589 0.871893,4.029625 0.9375,5.75 0.01657,-1.966036 -0.243929,-4.194125 -0.9375,-6.75 C 23.148643,56.40776 22.95547,55.949266 22.75,55.5 c -2.289804,-0.06299 -6.17965,-0.808413 -6.8125,-5.03125 -0.04087,-0.272726 -0.07589,-0.525904 -0.09375,-0.78125 z"
         style="opacity:0;fill:#000000;fill-opacity:1"
         inkscape:connector-curvature="0" />
    </g>
  </g>
</svg>
