<?xml version="1.0" encoding="UTF-8" standalone="no"?>
<svg
   xmlns:dc="http://purl.org/dc/elements/1.1/"
   xmlns:cc="http://creativecommons.org/ns#"
   xmlns:rdf="http://www.w3.org/1999/02/22-rdf-syntax-ns#"
   xmlns:svg="http://www.w3.org/2000/svg"
   xmlns="http://www.w3.org/2000/svg"
   xmlns:xlink="http://www.w3.org/1999/xlink"
   xmlns:sodipodi="http://sodipodi.sourceforge.net/DTD/sodipodi-0.dtd"
   xmlns:inkscape="http://www.inkscape.org/namespaces/inkscape"
   version="1.0"
   width="96"
   height="96"
   id="svg2408"
   sodipodi:docname="gstreamer.svg"
   inkscape:version="0.92.2 5c3e80d, 2017-08-06">
  <sodipodi:namedview
     pagecolor="#ffffff"
     bordercolor="#666666"
     borderopacity="1"
     objecttolerance="10"
     gridtolerance="10"
     guidetolerance="10"
     inkscape:pageopacity="0"
     inkscape:pageshadow="2"
     inkscape:window-width="1366"
     inkscape:window-height="743"
     id="namedview59"
     showgrid="false"
     inkscape:zoom="4.9166666"
     inkscape:cx="10.891453"
     inkscape:cy="46.06812"
     inkscape:window-x="0"
     inkscape:window-y="25"
     inkscape:window-maximized="1"
     inkscape:current-layer="svg2408" />
  <defs
     id="defs2410">
    <linearGradient
       id="linearGradient899">
      <stop
         id="stop895"
         offset="0"
         style="stop-color:#c8c8c8;stop-opacity:1" />
      <stop
         id="stop897"
         offset="1"
         style="stop-color:#a0a0a0;stop-opacity:0.98823529" />
    </linearGradient>
    <linearGradient
       id="linearGradient867">
      <stop
         style="stop-color:#a0a0a0;stop-opacity:1"
         offset="0"
         id="stop863" />
      <stop
         style="stop-color:#f0f0f0;stop-opacity:0.98823529"
         offset="1"
         id="stop865" />
    </linearGradient>
    <linearGradient
       id="linearGradient4280">
      <stop
         id="stop4284"
         style="stop-color:#f0f0f0;stop-opacity:1"
         offset="0" />
      <stop
         id="stop4282"
         style="stop-color:#c6c6c6;stop-opacity:1"
         offset="1" />
    </linearGradient>
    <linearGradient
       x1="45.447727"
       y1="92.539597"
       x2="45.447727"
       y2="7.0165396"
       id="ButtonShadow"
       gradientUnits="userSpaceOnUse"
       gradientTransform="scale(1.0058652,0.994169)">
      <stop
         id="stop3750"
         style="stop-color:#000000;stop-opacity:1"
         offset="0" />
      <stop
         id="stop3752"
         style="stop-color:#000000;stop-opacity:0.58823532"
         offset="1" />
    </linearGradient>
    <linearGradient
       id="linearGradient3737">
      <stop
         id="stop3739"
         style="stop-color:#ffffff;stop-opacity:1"
         offset="0" />
      <stop
         id="stop3741"
         style="stop-color:#ffffff;stop-opacity:0"
         offset="1" />
    </linearGradient>
    <filter
       color-interpolation-filters="sRGB"
       id="filter3174">
      <feGaussianBlur
         id="feGaussianBlur3176"
         stdDeviation="1.71" />
    </filter>
    <linearGradient
       x1="36.357143"
       y1="6"
       x2="36.357143"
       y2="63.893143"
       id="linearGradient3188"
       xlink:href="#linearGradient3737"
       gradientUnits="userSpaceOnUse"
       gradientTransform="translate(-27.613119,5.7527331)" />
    <radialGradient
       cx="48"
       cy="90.171875"
       r="42"
       fx="48"
       fy="90.171875"
       id="radialGradient3619"
       xlink:href="#linearGradient3737"
       gradientUnits="userSpaceOnUse"
       gradientTransform="matrix(1.1573129,0,0,0.99590774,-130.65951,-40.93491)" />
    <linearGradient
       x1="48"
       y1="90"
       x2="48"
       y2="-32"
       id="linearGradient3617"
       xlink:href="#linearGradient4280"
       gradientUnits="userSpaceOnUse"
       gradientTransform="translate(0,-96)" />
    <linearGradient
       x1="45.447727"
       y1="92.539597"
       x2="45.447727"
       y2="7.0165396"
       id="ButtonShadow-0"
       gradientUnits="userSpaceOnUse"
       gradientTransform="matrix(1.0058652,0,0,0.994169,100,0)">
      <stop
         id="stop3750-8"
         style="stop-color:#000000;stop-opacity:1"
         offset="0" />
      <stop
         id="stop3752-5"
         style="stop-color:#000000;stop-opacity:0.58823532"
         offset="1" />
    </linearGradient>
    <linearGradient
       x1="32.251034"
       y1="6.1317081"
       x2="32.251034"
       y2="90.238609"
       id="linearGradient3780"
       xlink:href="#ButtonShadow-0"
       gradientUnits="userSpaceOnUse"
       gradientTransform="matrix(1.0238095,0,0,-1.0119048,-1.1428571,98.071429)" />
    <linearGradient
       x1="32.251034"
       y1="6.1317081"
       x2="32.251034"
       y2="90.238609"
       id="linearGradient3772"
       xlink:href="#ButtonShadow-0"
       gradientUnits="userSpaceOnUse"
       gradientTransform="matrix(1.0238095,0,0,-1.0119048,-1.1428571,98.071429)" />
    <linearGradient
       x1="32.251034"
       y1="6.1317081"
       x2="32.251034"
       y2="90.238609"
       id="linearGradient3725"
       xlink:href="#ButtonShadow-0"
       gradientUnits="userSpaceOnUse"
       gradientTransform="matrix(1.0238095,0,0,1.0119048,-1.1428571,-98.071429)" />
    <linearGradient
       x1="32.251034"
       y1="6.1317081"
       x2="32.251034"
       y2="90.238609"
       id="linearGradient3721"
       xlink:href="#ButtonShadow-0"
       gradientUnits="userSpaceOnUse"
       gradientTransform="translate(0,-97)" />
    <linearGradient
       x1="32.251034"
       y1="6.1317081"
       x2="32.251034"
       y2="90.238609"
       id="linearGradient2918"
       xlink:href="#ButtonShadow-0"
       gradientUnits="userSpaceOnUse"
       gradientTransform="matrix(1.0238095,0,0,-1.0119048,-1.1428571,98.071429)" />
    <linearGradient
       id="linearGradient4776">
      <stop
         style="stop-color:#1d99f3;stop-opacity:1"
         offset="0"
         id="stop4778" />
      <stop
         id="stop4780"
         offset="1"
         style="stop-color:#2972a7;stop-opacity:1" />
    </linearGradient>
    <linearGradient
       id="linearGradient5617">
      <stop
         id="stop5619"
         offset="0"
         style="stop-color:#9559b6;stop-opacity:1;" />
      <stop
         style="stop-color:#8e44ad;stop-opacity:1;"
         offset="1"
         id="stop5621" />
    </linearGradient>
    <linearGradient
       xlink:href="#linearGradient867"
       id="linearGradient869"
       x1="68.934395"
       y1="24.340015"
       x2="68.9282"
       y2="61.965019"
       gradientUnits="userSpaceOnUse"
       gradientTransform="matrix(1.1625301,0,0,1.1389522,-14.194804,-8.637483)" />
    <linearGradient
       xlink:href="#linearGradient899"
       id="linearGradient869-3"
       x1="68.934395"
       y1="24.340015"
       x2="68.9282"
       y2="61.965019"
       gradientUnits="userSpaceOnUse"
       gradientTransform="matrix(1.2838771,0,0,1.2528475,-20.865473,-14.411732)" />
    <linearGradient
       y2="36"
       x2="24"
       y1="12"
       x1="24"
       gradientUnits="userSpaceOnUse"
       id="linearGradient3937"
       xlink:href="#linearGradient3912"
       gradientTransform="translate(-0.00275081,-1.0129998)" />
    <linearGradient
       id="linearGradient3912">
      <stop
         id="stop3914"
         offset="0"
         style="stop-color:#5d5d5d;stop-opacity:1;" />
      <stop
         id="stop3916"
         offset="1"
         style="stop-color:#989898;stop-opacity:1;" />
    </linearGradient>
    <linearGradient
       id="linearGradient4390"
       x1="48"
       x2="48"
       y1="88"
       y2="-40"
       gradientTransform="matrix(1,0,0,-1,0,92)"
       gradientUnits="userSpaceOnUse"
       xlink:href="#linearGradient3737" />
    <linearGradient
       id="linearGradient4429"
       x1="48"
       x2="112.12"
       y1="82"
       y2="82.455002"
       gradientUnits="userSpaceOnUse"
       spreadMethod="reflect"
       xlink:href="#linearGradient3737" />
    <linearGradient
       id="linearGradient3228"
       x1="90"
       x2="48"
       y1="88"
       y2="88"
       gradientUnits="userSpaceOnUse"
       spreadMethod="reflect">
      <stop
         id="stop3894"
         stop-opacity=".58824"
         offset="0" />
      <stop
         id="stop3896"
         stop-opacity=".47059"
         offset=".1178" />
      <stop
         id="stop3898"
         stop-opacity=".39216"
         offset=".2381" />
      <stop
         id="stop3900"
         stop-opacity=".31373"
         offset="1" />
    </linearGradient>
  </defs>
  <metadata
     id="metadata2413">
    <rdf:RDF>
      <cc:Work
         rdf:about="">
        <dc:format>image/svg+xml</dc:format>
        <dc:type
           rdf:resource="http://purl.org/dc/dcmitype/StillImage" />
        <dc:title />
      </cc:Work>
    </rdf:RDF>
  </metadata>
  <g
     id="layer2"
     style="display:none">
    <rect
       width="86"
       height="85"
       rx="6"
       ry="6"
       x="5"
       y="7"
       id="rect3745"
       style="opacity:0.9;fill:url(#ButtonShadow);fill-opacity:1;fill-rule:nonzero;stroke:none;filter:url(#filter3174)" />
  </g>
  <path
     style="display:inline;opacity:0.07999998;fill:url(#linearGradient2918);fill-opacity:1;fill-rule:nonzero;stroke:none"
     id="path3786"
     d="M 12,95.03125 C 6.4889097,95.03125 1.96875,90.51109 1.96875,85 l 0,-71 C 1.96875,8.4889098 6.4889098,3.96875 12,3.96875 l 72,0 c 5.51109,0 10.03125,4.5201597 10.03125,10.03125 l 0,71 c 0,5.51109 -4.52016,10.03125 -10.03125,10.03125 l -72,0 z" />
  <path
     style="display:inline;opacity:0.1;fill:url(#linearGradient3780);fill-opacity:1;fill-rule:nonzero;stroke:none"
     id="path3778-9"
     d="M 12,94.03125 C 7.028367,94.03125 2.96875,89.971633 2.96875,85 l 0,-71 C 2.96875,9.0283671 7.0283671,4.96875 12,4.96875 l 72,0 c 4.971633,0 9.03125,4.059617 9.03125,9.03125 l 0,71 c 0,4.971633 -4.059617,9.03125 -9.03125,9.03125 l -72,0 z" />
  <path
     style="display:inline;opacity:0.2;fill:url(#linearGradient3772);fill-opacity:1;fill-rule:nonzero;stroke:none"
     id="path3770"
     d="M 12,93 C 7.5908667,93 4,89.409133 4,85 L 4,14 C 4,9.5908667 7.5908667,6 12,6 l 72,0 c 4.409133,0 8,3.5908667 8,8 l 0,71 c 0,4.409133 -3.590867,8 -8,8 l -72,0 z" />
  <rect
     style="display:inline;opacity:0.3;fill:url(#linearGradient3725);fill-opacity:1;fill-rule:nonzero;stroke:none"
     id="rect3723"
     transform="scale(1,-1)"
     y="-92"
     x="5"
     ry="7"
     rx="7"
     height="85"
     width="86" />
  <rect
     style="display:inline;opacity:0.45;fill:url(#linearGradient3721);fill-opacity:1;fill-rule:nonzero;stroke:none"
     id="rect3716"
     transform="scale(1,-1)"
     y="-91"
     x="6"
     ry="6"
     rx="6"
     height="84"
     width="84" />
  <rect
     style="opacity:1;fill:url(#linearGradient3617);fill-opacity:1;fill-rule:nonzero;stroke:none"
     id="rect2419"
     transform="scale(1,-1)"
     y="-90"
     x="6"
     ry="6"
     rx="6"
     height="84"
     width="84" />
  <path
     inkscape:connector-curvature="0"
     id="path4546"
     d="m 34.874388,55.510083 c -1.116637,-0.21935 -4.849146,-1.27115 -8.294462,-2.33734 -6.223117,-1.92581 -6.288802,-1.93525 -10.011807,-1.43784 -2.061174,0.27538 -3.921283,0.33222 -4.13357,0.12632 -0.61352,-0.59505 1.518883,-2.32833 4.785962,-3.89017 4.369604,-2.0889 8.309514,-2.00457 16.673616,0.35689 7.719587,2.1795 9.926243,2.12448 16.007329,-0.39906 5.329786,-2.21176 6.224159,-2.42491 6.224159,-1.4833 0,1.15677 -2.759317,4.0083 -5.756043,5.94839 -4.855139,3.14323 -10.044501,4.18682 -15.495184,3.11611 z"
     style="fill:#0000ff;fill-opacity:1;stroke-width:0.46315601" />
  <path
     inkscape:connector-curvature="0"
     id="path4546-3"
     d="m 57.189266,40.355809 c -1.116637,-0.21935 -4.849146,-1.27115 -8.294462,-2.33734 -6.223117,-1.92581 -6.288802,-1.93525 -10.011807,-1.43784 -2.061174,0.27538 -3.921283,0.33222 -4.13357,0.12632 -0.61352,-0.59505 1.518883,-2.32833 4.785962,-3.89017 4.369604,-2.0889 8.309514,-2.00457 16.673616,0.35689 7.719587,2.1795 9.926243,2.12448 16.007329,-0.39906 5.329786,-2.21176 6.224159,-2.42491 6.224159,-1.4833 0,1.15677 -2.759317,4.0083 -5.756043,5.94839 -4.855139,3.14323 -10.044501,4.18682 -15.495184,3.11611 z"
     style="fill:#009533;fill-opacity:1;stroke-width:0.46315601" />
  <path
     inkscape:connector-curvature="0"
     id="path4546-3-6"
     d="m 46.206215,26.118521 c -1.116637,-0.21935 -4.849146,-1.27115 -8.294462,-2.33734 -6.223118,-1.92581 -6.288803,-1.93525 -10.011808,-1.43784 -2.061174,0.27538 -3.921283,0.33222 -4.13357,0.12632 -0.61352,-0.59505 1.518883,-2.32833 4.785962,-3.89017 4.369604,-2.0889 8.309515,-2.00457 16.673617,0.35689 7.719587,2.1795 9.926243,2.12448 16.007329,-0.39906 5.329786,-2.21176 6.224159,-2.42491 6.224159,-1.4833 0,1.15677 -2.759317,4.0083 -5.756043,5.94839 -4.855139,3.14323 -10.044501,4.18682 -15.495184,3.11611 z"
     style="fill:#f52b1e;fill-opacity:1;stroke-width:0.46315601" />
  <path
     inkscape:connector-curvature="0"
     id="path4589"
     d="m 60.830584,80.86259 c -2.653878,-0.55729 -5.384816,-2.06016 -6.06997,-3.34038 -1.496544,-2.79633 -0.0967,-6.70162 2.759035,-7.69713 1.412248,-0.49231 1.54871,-0.73573 1.186388,-2.1163 -0.587517,-2.23866 -0.215823,-3.73754 1.273905,-5.13706 l 1.30364,-1.22471 -1.333109,-1.96445 c -1.254263,-1.84826 -1.614039,-3.43109 -1.345475,-5.91935 0.211651,-1.960903 1.755779,-3.596432 4.80302,-5.087305 2.92169,-1.429451 3.236621,-1.466351 9.495646,-1.112627 5.814962,0.32863 6.694542,0.253287 8.643691,-0.740446 1.193477,-0.60847 2.302629,-0.973637 2.464787,-0.811483 0.66161,0.661609 -1.061452,2.268593 -4.008052,3.738037 l -3.12762,1.559715 v 2.930439 c 0,5.01076 -2.860716,7.37997 -9.643096,7.98629 -3.901076,0.34875 -3.912911,0.35483 -3.912911,2.00973 0,1.65575 0.0098,1.66079 3.93428,2.01156 2.177382,0.19461 4.561474,0.7626 5.338781,1.27191 4.302959,2.81941 2.943612,10.58581 -2.211272,12.63373 -2.675912,1.06308 -7.080529,1.52875 -9.551668,1.00983 z m 7.76575,-3.10444 c 1.629941,-0.84287 2.459878,-2.62595 2.097673,-4.50673 -0.273538,-1.42036 -2.364516,-2.22841 -6.57172,-2.53961 L 60.49766,70.4437 59.254076,72.34081 c -1.436085,2.19077 -1.217241,3.50718 0.853874,5.13632 1.743783,1.37166 6.100402,1.5159 8.488384,0.28102 z M 69.26086,59.24842 c 2.941764,-2.31399 3.00405,-9.03094 0.09053,-9.76219 -4.021393,-1.009303 -6.903134,7.55037 -3.374118,10.02219 1.509735,1.05746 1.619793,1.04874 3.283591,-0.26 z"
     style="fill:#000000;stroke-width:0.5533064" />
  <path
     style="opacity:0.8;fill:#ffffff;fill-opacity:1;stroke-width:0.46315601"
     d="m 67.296875,17.62684 c -0.613662,1.357035 -3.01133,3.701868 -5.595703,5.375 -4.855139,3.143228 -10.043458,4.187898 -15.494141,3.117188 -1.116637,-0.21935 -4.849606,-1.271701 -8.294922,-2.337891 -6.223118,-1.92581 -6.288713,-1.93491 -10.011718,-1.4375 -1.713689,0.228955 -3.274383,0.302011 -3.878907,0.203125 -0.338273,0.397263 -0.458422,0.725411 -0.255859,0.921875 0.212287,0.2059 2.073592,0.15038 4.134766,-0.125 3.723005,-0.49741 3.7886,-0.48831 10.011718,1.4375 3.445316,1.06619 7.178285,2.118541 8.294922,2.337891 5.450683,1.07071 10.639002,0.02604 15.494141,-3.117188 2.996726,-1.94009 5.755859,-4.790495 5.755859,-5.947265 0,-0.198542 -0.04732,-0.339867 -0.160156,-0.427735 z M 78.28125,31.863168 c -0.614062,1.357435 -3.013283,3.703822 -5.597656,5.376953 -4.855139,3.143225 -10.043458,4.185945 -15.494141,3.115235 -1.116637,-0.21935 -4.849606,-1.271701 -8.294922,-2.337891 -6.223117,-1.92581 -6.288713,-1.93491 -10.011719,-1.4375 -1.713688,0.228955 -3.272884,0.303509 -3.876953,0.205078 -0.337988,0.397549 -0.458422,0.725411 -0.255859,0.921875 0.212287,0.2059 2.071638,0.148427 4.132812,-0.126953 3.723006,-0.49741 3.788602,-0.48831 10.011719,1.4375 3.445316,1.06619 7.178285,2.118541 8.294922,2.337891 5.450683,1.07071 10.639002,0.02799 15.494141,-3.115235 2.996726,-1.94009 5.757812,-4.792448 5.757812,-5.949218 0,-0.198542 -0.04732,-0.339867 -0.160156,-0.427735 z m 5.626953,14.810547 c -0.0054,-4.85e-4 -0.01773,0.0022 -0.02344,0.002 -0.544788,0.778427 -1.935892,1.803499 -3.88086,2.773438 L 76.87695,51.0097 v 1 l 3.126953,-1.560547 c 2.9466,-1.469444 4.669423,-3.076673 4.007813,-3.738281 -0.02027,-0.02027 -0.05534,-0.03277 -0.103516,-0.03711 z m -27.943359,0.34375 c -0.613663,1.357436 -3.01133,3.703822 -5.595703,5.376953 -4.855139,3.143225 -10.043458,4.185945 -15.494141,3.115235 -1.116637,-0.21935 -4.849606,-1.271701 -8.294922,-2.337891 -6.223117,-1.92581 -6.288714,-1.93491 -10.011719,-1.4375 -1.713688,0.228955 -3.274382,0.303509 -3.878906,0.205078 -0.338273,0.397549 -0.458422,0.725411 -0.255859,0.921875 0.212287,0.2059 2.073591,0.148427 4.134765,-0.126953 3.723005,-0.49741 3.788602,-0.48831 10.011719,1.4375 3.445316,1.06619 7.178285,2.118541 8.294922,2.337891 5.450683,1.07071 10.639002,0.02799 15.494141,-3.115235 2.996726,-1.94009 5.755859,-4.792448 5.755859,-5.949219 0,-0.198729 -0.04762,-0.339895 -0.160156,-0.427734 z m 12.646484,2.388672 c -2.52184,0.08213 -4.41024,3.831228 -4.205078,6.880859 0.204368,-2.811507 1.954184,-5.807551 4.205078,-5.880859 0.241147,-0.0079 0.488897,0.017 0.740234,0.08008 1.314454,0.329908 2.016858,1.880856 2.128907,3.69336 0.121714,-2.215589 -0.577218,-4.303909 -2.128907,-4.69336 -0.251337,-0.06308 -0.499087,-0.08798 -0.740234,-0.08008 z m 8.265625,4.533203 c 0,5.01076 -2.862151,7.380008 -9.644531,7.986328 -3.90108,0.34875 -3.91211,0.354866 -3.91211,2.009766 0,0.189232 0.0017,0.350906 0.0078,0.5 0.04711,-1.155003 0.449067,-1.200874 3.904297,-1.509766 6.78238,-0.60632 9.644531,-2.975568 9.644531,-7.986328 z m -18.339844,1.394531 c -0.09768,2.006171 0.312805,3.426035 1.414063,5.048828 l 0.917969,1.353516 0.414062,-0.388672 -1.332031,-1.964844 C 59.042555,58.043777 58.60814,56.839494 58.537109,55.333871 Z m -0.06445,11.046875 c -0.07446,0.688887 0.002,1.450287 0.232422,2.328125 0.04107,0.156507 0.04708,0.253539 0.07422,0.382813 0.160449,-0.294132 0.105535,-0.69789 -0.07422,-1.382813 -0.124896,-0.475901 -0.195854,-0.912959 -0.232422,-1.328125 z m 2.025391,4.0625 -1.244141,1.896485 c -0.755163,1.152014 -1.040232,2.061166 -0.851562,2.902344 0.109166,-0.570352 0.382572,-1.186892 0.851562,-1.902344 l 1.244141,-1.896485 3.625,0.267579 c 4.207204,0.311199 6.296774,1.120655 6.570312,2.541015 0.02681,0.139199 0.03297,0.276284 0.04687,0.414063 0.05757,-0.455726 0.04613,-0.931102 -0.04687,-1.414063 -0.273538,-1.42036 -2.363108,-2.229816 -6.570312,-2.541015 z m 14.644531,2.457032 c -0.176533,2.862343 -1.8713,5.805602 -4.759766,6.953125 -2.67591,1.063075 -7.081595,1.528685 -9.552734,1.009765 -2.653878,-0.55729 -5.385158,-2.061577 -6.070312,-3.341797 -0.33621,-0.628215 -0.518006,-1.313213 -0.578125,-2.007812 -0.0897,1.026839 0.08075,2.078448 0.578125,3.007812 0.685154,1.28022 3.416434,2.784507 6.070312,3.341797 2.471139,0.51892 6.876824,0.05331 9.552734,-1.009765 3.227216,-1.282101 4.965939,-4.805155 4.759766,-7.953125 z"
     id="path866"
     inkscape:connector-curvature="0" />
  <path
     inkscape:connector-curvature="0"
     style="opacity:0.3;fill:#000000;fill-opacity:1;stroke-width:0.46315601"
     d="m 66.892578,16.527345 c -0.730461,0.02695 -2.32904,0.627415 -5.660156,2.009765 -6.081086,2.52354 -8.286272,2.577938 -16.00586,0.398438 -8.3641,-2.36146 -12.304224,-2.444369 -16.673828,-0.355469 -3.267079,1.56184 -5.400629,3.293622 -4.787109,3.888672 0.03579,0.03471 0.13328,0.05807 0.255859,0.07813 0.686287,-0.805965 2.342845,-1.920621 4.53125,-2.966797 4.369604,-2.0889 8.309728,-2.005991 16.673828,0.355469 7.719588,2.1795 9.924774,2.125102 16.00586,-0.398438 3.331116,-1.38235 4.929695,-1.982815 5.660156,-2.009765 0.191845,-0.0071 0.316458,0.0312 0.404297,0.09961 0.09791,-0.216523 0.160156,-0.413093 0.160156,-0.572265 0,-0.353104 -0.126176,-0.543517 -0.564453,-0.527344 z m 10.984375,14.236328 c -0.730461,0.02695 -2.32904,0.629369 -5.660156,2.011719 -6.081086,2.52354 -8.288226,2.577937 -16.007813,0.398437 -8.364102,-2.36146 -12.304224,-2.446322 -16.673828,-0.357422 -3.267079,1.56184 -5.398676,3.295575 -4.785156,3.890625 0.03579,0.03471 0.133372,0.05817 0.255859,0.07813 0.685708,-0.806543 2.340892,-1.922574 4.529297,-2.96875 4.369604,-2.0889 8.309726,-2.004038 16.673828,0.357422 7.719587,2.1795 9.926727,2.125103 16.007813,-0.398437 3.331116,-1.38235 4.929695,-1.984769 5.660156,-2.011719 0.191845,-0.0071 0.316458,0.0312 0.404297,0.09961 0.09798,-0.216587 0.160156,-0.413093 0.160156,-0.572265 0,-0.353104 -0.126176,-0.543517 -0.564453,-0.527344 z m 6.03125,14.910156 c -0.337249,-0.03042 -1.317036,0.317197 -2.361328,0.84961 -1.949149,0.993732 -2.827616,1.068864 -8.642578,0.740234 -6.259025,-0.353724 -6.574404,-0.318123 -9.496094,1.111328 -3.047241,1.490873 -4.591083,3.126988 -4.802734,5.087891 -0.07401,0.685707 -0.09538,1.298341 -0.06836,1.871093 0.01357,-0.278731 0.0356,-0.567555 0.06836,-0.871093 0.211651,-1.960903 1.755493,-3.597018 4.802734,-5.087891 2.92169,-1.429451 3.237069,-1.465052 9.496094,-1.111328 5.814962,0.32863 6.693429,0.253498 8.642578,-0.740234 1.027619,-0.523912 1.985981,-0.865761 2.337891,-0.847657 0.280558,-0.400879 0.351853,-0.739944 0.126953,-0.964843 -0.02027,-0.02027 -0.05534,-0.03276 -0.103516,-0.03711 z M 55.5625,45.91797 c -0.730462,0.02695 -2.32904,0.629369 -5.660156,2.011719 -6.081086,2.523538 -8.288226,2.577937 -16.007813,0.398437 -8.364102,-2.36146 -12.304224,-2.446322 -16.673828,-0.357422 -3.267079,1.56184 -5.400629,3.295575 -4.787109,3.890625 0.03579,0.03471 0.13328,0.05817 0.255859,0.07813 0.686287,-0.806544 2.342845,-1.922574 4.53125,-2.96875 4.369604,-2.0889 8.309726,-2.004038 16.673828,0.357422 7.719587,2.1795 9.926727,2.125101 16.007813,-0.398437 3.331116,-1.382351 4.929694,-1.984769 5.660156,-2.011719 0.191611,-0.0071 0.314924,0.03138 0.402344,0.09961 0.09791,-0.216587 0.160156,-0.413093 0.160156,-0.572266 0,-0.353103 -0.124223,-0.543516 -0.5625,-0.527343 z m 15.917969,8.261719 c -0.106822,1.944501 -0.843716,3.986758 -2.21875,5.068359 -1.663798,1.30874 -1.77542,1.317226 -3.285157,0.259765 -1.001864,-0.701733 -1.4812,-1.896098 -1.570312,-3.220703 -0.124052,1.7066 0.320629,3.345391 1.570312,4.220703 1.509736,1.05746 1.621359,1.048975 3.285157,-0.259765 1.614566,-1.270019 2.35506,-3.863402 2.21875,-6.068359 z m -10.611328,7.55664 -0.888672,0.835938 c -1.173037,1.102006 -1.643263,2.270801 -1.507813,3.808593 0.115421,-1.067908 0.602247,-1.957863 1.507813,-2.808593 l 1.302734,-1.22461 z m 2.458984,2.699219 c -0.0061,0.149036 -0.0078,0.310865 -0.0078,0.5 0,1.65575 0.0091,1.660949 3.933594,2.011719 2.177382,0.19461 4.562537,0.762174 5.339844,1.271484 1.609092,1.054318 2.425678,2.801306 2.548828,4.681641 0.138503,-2.245922 -0.656983,-4.442047 -2.548841,-5.681641 -0.777307,-0.50931 -3.162462,-1.076874 -5.339844,-1.271484 -3.475959,-0.310682 -3.878745,-0.356266 -3.925781,-1.511719 z m -4.548828,4.65625 c -0.162962,0.298737 -0.548156,0.484354 -1.259766,0.732422 -2.214173,0.771861 -3.545375,3.292233 -3.33789,5.689453 0.1802,-2.06278 1.431263,-4.024802 3.33789,-4.689453 1.25215,-0.4365 1.472042,-0.721351 1.259766,-1.732422 z m 11.960937,5.574219 c -0.166617,1.31899 -0.933139,2.465365 -2.144531,3.091796 -2.387982,1.234882 -6.744498,1.090412 -8.488281,-0.28125 -0.982022,-0.772458 -1.534958,-1.475896 -1.705078,-2.234374 -0.22511,1.176109 0.310339,2.137272 1.705078,3.234374 1.743783,1.371662 6.100299,1.516132 8.488281,0.28125 1.509307,-0.780488 2.318517,-2.367991 2.144531,-4.091796 z"
     id="path878" />
  <g
     id="g873">
    <path
       id="rect4377"
       d="M 12,86 C 8.676,86 6,83.324 6,80 V 12 C 6,8.676 8.676,6 12,6 h 72 c 3.324,0 6,2.676 6,6 v 68 c 0,3.324 -2.676,6 -6,6 z m 0,-0.96875 h 72 c 2.8049,0 5.0312,-2.2264 5.0312,-5.0312 v -68 c 0,-2.8049 -2.226,-5.0312 -5.031,-5.0312 h -72 c -2.8049,0 -5.0312,2.2263 -5.0312,5.0312 v 68 c 0,2.8049 2.2264,5.0312 5.0312,5.0312 z"
       style="opacity:0.3;fill:url(#linearGradient4390)"
       inkscape:connector-curvature="0" />
    <path
       id="rect4414"
       d="m 6,78 v 2 c 0,3.324 2.676,6 6,6 h 72 c 3.324,0 6,-2.676 6,-6 v -2 c 0,3.324 -2.676,6 -6,6 H 12 C 8.676,84 6,81.324 6,78 Z"
       style="opacity:0.1;fill:url(#linearGradient4429)"
       inkscape:connector-curvature="0" />
    <g
       id="layer4">
      <path
         style="fill:url(#linearGradient3228)"
         inkscape:connector-curvature="0"
         d="m 6,80 v 4 c 0,3.324 2.676,6 6,6 h 72 c 3.324,0 6,-2.676 6,-6 v -4 c 0,3.324 -2.676,6 -6,6 H 12 C 8.676,86 6,83.324 6,80 Z"
         id="path3888" />
      <path
         style="color:#000000;opacity:0.1"
         inkscape:connector-curvature="0"
         d="m 6,82 v 2 c 0,3.324 2.676,6 6,6 h 72 c 3.324,0 6,-2.676 6,-6 v -2 c 0,3.324 -2.676,6 -6,6 H 12 C 8.676,88 6,85.324 6,82 Z"
         id="rect4345" />
      <path
         style="color:#000000;opacity:0.15"
         inkscape:connector-curvature="0"
         d="m 6,83 v 1 c 0,3.324 2.676,6 6,6 h 72 c 3.324,0 6,-2.676 6,-6 v -1 c 0,3.324 -2.676,6 -6,6 H 12 C 8.676,89 6,86.324 6,83 Z"
         id="rect4336" />
    </g>
  </g>
</svg>
