<?xml version="1.0" encoding="UTF-8" standalone="no"?>
<svg
   xmlns:dc="http://purl.org/dc/elements/1.1/"
   xmlns:cc="http://creativecommons.org/ns#"
   xmlns:rdf="http://www.w3.org/1999/02/22-rdf-syntax-ns#"
   xmlns:svg="http://www.w3.org/2000/svg"
   xmlns="http://www.w3.org/2000/svg"
   xmlns:xlink="http://www.w3.org/1999/xlink"
   xmlns:sodipodi="http://sodipodi.sourceforge.net/DTD/sodipodi-0.dtd"
   xmlns:inkscape="http://www.inkscape.org/namespaces/inkscape"
   width="96"
   height="96"
   version="1.0"
   id="svg125"
   sodipodi:docname="mattermost-desktop.svg"
   inkscape:version="0.92.2 5c3e80d, 2017-08-06">
  <metadata
     id="metadata129">
    <rdf:RDF>
      <cc:Work
         rdf:about="">
        <dc:format>image/svg+xml</dc:format>
        <dc:type
           rdf:resource="http://purl.org/dc/dcmitype/StillImage" />
      </cc:Work>
    </rdf:RDF>
  </metadata>
  <sodipodi:namedview
     pagecolor="#ffffff"
     bordercolor="#666666"
     borderopacity="1"
     objecttolerance="10"
     gridtolerance="10"
     guidetolerance="10"
     inkscape:pageopacity="0"
     inkscape:pageshadow="2"
     inkscape:window-width="640"
     inkscape:window-height="480"
     id="namedview127"
     showgrid="false"
     inkscape:zoom="2.4583333"
     inkscape:cx="48"
     inkscape:cy="48"
     inkscape:window-x="0"
     inkscape:window-y="25"
     inkscape:window-maximized="0"
     inkscape:current-layer="svg125" />
  <defs
     id="defs49">
    <linearGradient
       id="linearGradient4384">
      <stop
         stop-color="#fff"
         offset="0"
         id="stop2" />
      <stop
         stop-color="#fff"
         stop-opacity="0"
         offset="1"
         id="stop4" />
    </linearGradient>
    <linearGradient
       id="ButtonShadow"
       x1="45.448"
       x2="45.448"
       y1="92.54"
       y2="7.0165"
       gradientTransform="scale(1.0059 .99417)"
       gradientUnits="userSpaceOnUse">
      <stop
         offset="0"
         id="stop7" />
      <stop
         stop-opacity=".58824"
         offset="1"
         id="stop9" />
    </linearGradient>
    <filter
       id="filter3174">
      <feGaussianBlur
         stdDeviation="1.71"
         id="feGaussianBlur12" />
    </filter>
    <filter
       id="filter3794"
       x="-.192"
       y="-.192"
       width="1.384"
       height="1.384">
      <feGaussianBlur
         stdDeviation="5.28"
         id="feGaussianBlur15" />
    </filter>
    <linearGradient
       id="linearGradient3613"
       x1="48"
       x2="48"
       y1="20.221"
       y2="138.66"
       gradientUnits="userSpaceOnUse">
      <stop
         stop-color="#fff"
         offset="0"
         id="stop18" />
      <stop
         stop-color="#fff"
         stop-opacity="0"
         offset="1"
         id="stop20" />
    </linearGradient>
    <linearGradient
       id="linearGradient3617"
       x1="48"
       x2="48"
       y1="90"
       y2="5.9877"
       gradientUnits="userSpaceOnUse">
      <stop
         stop-color="#0339ae"
         offset="0"
         id="stop23" />
      <stop
         stop-color="#04baff"
         offset="1"
         id="stop25" />
    </linearGradient>
    <linearGradient
       id="ButtonShadow-0"
       x1="45.448"
       x2="45.448"
       y1="92.54"
       y2="7.0165"
       gradientTransform="matrix(1.0059 0 0 .99417 100 0)"
       gradientUnits="userSpaceOnUse">
      <stop
         offset="0"
         id="stop28" />
      <stop
         stop-opacity=".58824"
         offset="1"
         id="stop30" />
    </linearGradient>
    <linearGradient
       id="linearGradient3780"
       x1="32.251"
       x2="32.251"
       y1="6.1317"
       y2="90.239"
       gradientTransform="matrix(1.0238 0 0 1.0119 -1.1429 -98.071)"
       gradientUnits="userSpaceOnUse"
       xlink:href="#ButtonShadow-0" />
    <linearGradient
       id="linearGradient3721"
       x1="32.251"
       x2="32.251"
       y1="6.1317"
       y2="90.239"
       gradientTransform="translate(0,-97)"
       gradientUnits="userSpaceOnUse"
       xlink:href="#ButtonShadow-0" />
    <clipPath
       id="clipPath4355">
      <rect
         x="6"
         y="6"
         width="84"
         height="80"
         rx="6"
         ry="6"
         fill="#fff"
         id="rect35" />
    </clipPath>
    <linearGradient
       id="linearGradient4390"
       x1="48"
       x2="48"
       y1="88"
       y2="-40"
       gradientTransform="matrix(1,0,0,-1,0,92)"
       gradientUnits="userSpaceOnUse"
       xlink:href="#linearGradient4384" />
    <linearGradient
       id="linearGradient4429"
       x1="48"
       x2="112.12"
       y1="82"
       y2="82.455"
       gradientUnits="userSpaceOnUse"
       spreadMethod="reflect"
       xlink:href="#linearGradient4384" />
    <linearGradient
       id="linearGradient3870"
       x1="8"
       x2="50"
       y1="1033.4"
       y2="1033.4"
       gradientTransform="translate(-2 -956.36)"
       gradientUnits="userSpaceOnUse"
       spreadMethod="reflect">
      <stop
         stop-color="#523823"
         offset="0"
         id="stop40" />
      <stop
         stop-color="#79563a"
         offset=".1178"
         id="stop42" />
      <stop
         stop-color="#875c38"
         offset=".2381"
         id="stop44" />
      <stop
         stop-color="#a66e40"
         offset="1"
         id="stop46" />
    </linearGradient>
  </defs>
  <g
     display="none"
     id="g53">
    <rect
       x="5"
       y="7"
       width="86"
       height="85"
       rx="6"
       ry="6"
       fill="url(#ButtonShadow)"
       filter="url(#filter3174)"
       opacity=".9"
       id="rect51" />
  </g>
  <g
     id="g67">
    <g
       fill="url(#linearGradient3780)"
       id="g63">
      <path
         transform="scale(1,-1)"
         d="m12-95.031c-5.5111 0-10.031 4.5202-10.031 10.031v71c0 5.5111 4.5202 10.031 10.031 10.031h72c5.5111 0 10.031-4.5202 10.031-10.031v-71c0-5.5111-4.5202-10.031-10.031-10.031h-72z"
         opacity=".08"
         id="path55" />
      <path
         transform="scale(1,-1)"
         d="m12-94.031c-4.9716 0-9.0312 4.0596-9.0312 9.0312v71c0 4.9716 4.0596 9.0312 9.0312 9.0312h72c4.9716 0 9.0312-4.0596 9.0312-9.0312v-71c0-4.9716-4.0596-9.0312-9.0312-9.0312h-72z"
         opacity=".1"
         id="path57" />
      <path
         transform="scale(1,-1)"
         d="m12-93c-4.4091 0-8 3.5909-8 8v71c0 4.4091 3.5909 8 8 8h72c4.4091 0 8-3.5909 8-8v-71c0-4.4091-3.5909-8-8-8h-72z"
         opacity=".2"
         id="path59" />
      <rect
         transform="scale(1,-1)"
         x="5"
         y="-92"
         width="86"
         height="85"
         rx="7"
         ry="7"
         opacity=".3"
         id="rect61" />
    </g>
    <rect
       transform="scale(1,-1)"
       x="6"
       y="-91"
       width="84"
       height="84"
       rx="6"
       ry="6"
       fill="url(#linearGradient3721)"
       opacity=".45"
       id="rect65" />
  </g>
  <g
     id="g79">
    <rect
       x="6"
       y="64"
       width="84"
       height="26"
       rx="6"
       ry="6"
       color="#000000"
       fill="url(#linearGradient3870)"
       id="rect69" />
    <g
       id="g77">
      <path
         d="m6 82v2c0 3.324 2.676 6 6 6h72c3.324 0 6-2.676 6-6v-2c0 3.324-2.676 6-6 6h-72c-3.324 0-6-2.676-6-6z"
         color="#000000"
         opacity=".1"
         id="path71" />
      <path
         d="m6 83v1c0 3.324 2.676 6 6 6h72c3.324 0 6-2.676 6-6v-1c0 3.324-2.676 6-6 6h-72c-3.324 0-6-2.676-6-6z"
         color="#000000"
         opacity=".1"
         id="path73" />
      <path
         d="m6 80v1c0 3.324 2.676 6 6 6h72c3.324 0 6-2.676 6-6v-1c0 3.324-2.676 6-6 6h-72c-3.324 0-6-2.676-6-6z"
         opacity=".2"
         id="path75" />
    </g>
  </g>
  <g
     id="g87">
    <rect
       x="6"
       y="6"
       width="84"
       height="80"
       rx="6"
       ry="6"
       fill="url(#linearGradient3617)"
       id="rect81" />
    <path
       d="m12 86c-3.324 0-6-2.676-6-6v-68c0-3.324 2.676-6 6-6h72c3.324 0 6 2.676 6 6v68c0 3.324-2.676 6-6 6zm0-0.96875h72c2.8049 0 5.0312-2.2264 5.0312-5.0312v-68c0-2.8049-2.2264-5.0312-5.0312-5.0312h-72c-2.8049 0-5.0312 2.2264-5.0312 5.0312v68c0 2.8049 2.2264 5.0312 5.0312 5.0312z"
       fill="url(#linearGradient4390)"
       opacity=".3"
       id="path83" />
    <path
       d="m6 78v2c0 3.324 2.676 6 6 6h72c3.324 0 6-2.676 6-6v-2c0 3.324-2.676 6-6 6h-72c-3.324 0-6-2.676-6-6z"
       fill="url(#linearGradient4429)"
       opacity=".1"
       id="path85" />
  </g>
  <g
     id="g91">
    <rect
       x="15"
       y="15"
       width="66"
       height="62"
       rx="12"
       ry="12"
       clip-path="url(#clipPath4355)"
       fill="url(#linearGradient3613)"
       filter="url(#filter3794)"
       opacity=".1"
       stroke="#fff"
       stroke-linecap="round"
       stroke-width=".5"
       id="rect89" />
  </g>
  <defs
     id="defs101">
    <filter
       id="w">
      <feGaussianBlur
         stdDeviation="0.23199685"
         id="feGaussianBlur93" />
    </filter>
    <linearGradient
       id="a"
       gradientUnits="userSpaceOnUse"
       x1="8"
       y1="1"
       x2="8"
       y2="14.999707">
      <stop
         stop-color="#fafafa"
         offset="0"
         id="stop96" />
      <stop
         stop-color="#ebebeb"
         offset="1"
         id="stop98" />
    </linearGradient>
  </defs>
  <g
     transform="translate(0,-2)"
     id="g123">
    <path
       style="opacity:0.15;fill:#000000"
       d="M 8.109375,0.75 A 0.250025,0.250025 0 0 0 8.09375,0.75195312 L 7.4941406,0.81640625 C 3.8320143,1.2137117 1.1599034,3.8023803 0.79101562,7.3261719 0.55212123,9.6079196 1.3941851,11.791286 3.1230469,13.382812 c 1.0047968,0.924961 2.4895489,1.626733 3.84375,1.816407 0.7946204,0.111246 2.0500488,0.04196 2.8320312,-0.154297 1.9910909,-0.49971 3.8091659,-1.987424 4.7734379,-3.896484 C 15.32321,9.6617865 15.467342,7.5509 14.9375,5.9140625 14.557608,4.7404459 13.969065,3.7714465 13.125,2.9394531 l -0.666016,-0.65625 a 0.250025,0.250025 0 0 0 -0.425781,0.1660157 l -0.02734,0.625 c -0.01347,0.3042117 -0.02135,0.500684 0.04492,0.7089843 0.06627,0.2083003 0.187892,0.3813267 0.390625,0.6757813 1.487547,2.1603136 1.119183,4.9181736 -0.84375,6.4609376 -1.005335,0.790135 -1.8264698,1.068359 -3.1718748,1.068359 -1.0225757,0 -1.5562351,-0.12033 -2.3867187,-0.537109 C 3.8385887,10.34693 2.7459624,7.8198371 3.4921875,5.609375 4.001437,4.1009926 4.9712942,3.1356197 6.5722656,2.5546875 7.3440336,2.2746369 7.5494237,2.1224375 8.1386719,1.3789062 L 8.3164062,1.15625 A 0.250025,0.250025 0 0 0 8.3613281,1.0683594 0.250025,0.250025 0 0 0 8.109375,0.75 Z m 1.7285156,1 c -5.542e-4,-1.08e-5 -0.027629,4.331e-4 -0.039063,0.00195 -0.045732,0.00608 -0.067979,0.018619 -0.085937,0.027344 -0.035916,0.017449 -0.053023,0.030187 -0.072266,0.044922 -0.038485,0.029471 -0.074195,0.06461 -0.1191406,0.1074218 C 9.4315936,2.0172651 9.3133682,2.136396 9.1738281,2.2851562 8.894748,2.5826767 8.5281593,2.9932974 8.1445312,3.4316406 7.3772751,4.3083271 6.5544109,5.2865937 6.2363281,5.7402344 5.7751114,6.397932 5.6429005,7.1149828 5.8398438,7.7363281 6.036787,8.3576734 6.5582558,8.860098 7.3105469,9.1152344 c 0.477024,0.1617944 0.8530255,0.171449 1.375,0.035156 C 9.0108249,9.065463 9.3216904,8.8485035 9.5898438,8.5839844 9.8579971,8.3194652 10.081439,8.0094697 10.175781,7.6835938 c 0.03456,-0.1194113 0.0386,-0.235278 0.04883,-0.421875 0.01023,-0.1865971 0.01741,-0.4228863 0.02149,-0.6933594 0.0081,-0.5409463 0.0038,-1.2180083 -0.0078,-1.8847656 -0.01161,-0.6667574 -0.03031,-1.3226135 -0.05664,-1.8242188 -0.01317,-0.2508026 -0.02841,-0.4621991 -0.04492,-0.6210938 -0.0083,-0.079447 -0.01663,-0.1465824 -0.02734,-0.203125 -0.0054,-0.028271 -0.01009,-0.052579 -0.01953,-0.082031 -0.0016,-0.00483 -0.01244,-0.016348 -0.01367,-0.021484 A 0.250025,0.250025 0 0 0 10.009766,1.8203125 C 10.009135,1.8197135 9.8915752,1.7560721 9.890625,1.7558594 9.8901499,1.755753 9.8384449,1.7500108 9.8378906,1.75 Z"
       id="path103"
       inkscape:original="m8.1211 1-0.59961 0.064453c-3.5605 0.38628-6.1251 2.874-6.4824 6.2871-0.23088 2.2052 0.57873 4.3056 2.2539 5.8477 0.95966 0.88341 2.4153 1.5708 3.709 1.752 0.74086 0.10372 2.0061 0.034819 2.7363-0.14844 1.9114-0.47971 3.6808-1.9254 4.6113-3.7676 0.71258-1.4107 0.85526-3.4828 0.34961-5.0449-0.36914-1.1404-0.93332-2.068-1.75-2.873l-0.66602-0.65625-0.027344 0.625c-0.026764 0.60425-0.013339 0.64378 0.39062 1.2305 1.5555 2.259 1.171 5.1774-0.89453 6.8008-1.0371 0.8151-1.9439 1.1211-3.3262 1.1211-1.0443 0-1.6445-0.13612-2.498-0.56445-2.3074-1.1579-3.4601-3.8097-2.6719-6.1445 0.53039-1.571 1.5745-2.6081 3.2305-3.209 0.76405-0.27725 0.87143-0.35881 1.457-1.0977l0.17773-0.22266zm1.7168 1.002c-0.080673-0.076671-2.8012 3.0319-3.3965 3.8809-0.85189 1.2148-0.43573 2.5264 0.94922 2.9961 0.44853 0.15213 0.73528 0.1591 1.2324 0.029297 0.51116-0.13346 1.1621-0.77539 1.3125-1.2949 0.1316-0.45474 0.044074-5.4766-0.097656-5.6113z"
       transform="matrix(4,0,0,4,16,17)"
       inkscape:radius="0.25"
       sodipodi:type="inkscape:offset" />
    <g
       id="Bevel1">
      <path
         fill="#000"
         opacity=".10"
         sodipodi:type="inkscape:offset"
         inkscape:radius="0.5"
         transform="translate(16,17) scale(4)"
         inkscape:original="m8.1211 1-0.59961 0.064453c-3.5605 0.38628-6.1251 2.874-6.4824 6.2871-0.23088 2.2052 0.57873 4.3056 2.2539 5.8477 0.95966 0.88341 2.4153 1.5708 3.709 1.752 0.74086 0.10372 2.0061 0.034819 2.7363-0.14844 1.9114-0.47971 3.6808-1.9254 4.6113-3.7676 0.71258-1.4107 0.85526-3.4828 0.34961-5.0449-0.36914-1.1404-0.93332-2.068-1.75-2.873l-0.66602-0.65625-0.027344 0.625c-0.026764 0.60425-0.013339 0.64378 0.39062 1.2305 1.5555 2.259 1.171 5.1774-0.89453 6.8008-1.0371 0.8151-1.9439 1.1211-3.3262 1.1211-1.0443 0-1.6445-0.13612-2.498-0.56445-2.3074-1.1579-3.4601-3.8097-2.6719-6.1445 0.53039-1.571 1.5745-2.6081 3.2305-3.209 0.76405-0.27725 0.87143-0.35881 1.457-1.0977l0.17773-0.22266zm1.7168 1.002c-0.080673-0.076671-2.8012 3.0319-3.3965 3.8809-0.85189 1.2148-0.43573 2.5264 0.94922 2.9961 0.44853 0.15213 0.73528 0.1591 1.2324 0.029297 0.51116-0.13346 1.1621-0.77539 1.3125-1.2949 0.1316-0.45474 0.044074-5.4766-0.097656-5.6113z"
         id="path106" />
    </g>
    <g
       id="Bevel2">
      <path
         fill="#000"
         opacity=".05"
         sodipodi:type="inkscape:offset"
         inkscape:radius="0.75"
         transform="translate(16,17) scale(4)"
         inkscape:original="m8.1211 1-0.59961 0.064453c-3.5605 0.38628-6.1251 2.874-6.4824 6.2871-0.23088 2.2052 0.57873 4.3056 2.2539 5.8477 0.95966 0.88341 2.4153 1.5708 3.709 1.752 0.74086 0.10372 2.0061 0.034819 2.7363-0.14844 1.9114-0.47971 3.6808-1.9254 4.6113-3.7676 0.71258-1.4107 0.85526-3.4828 0.34961-5.0449-0.36914-1.1404-0.93332-2.068-1.75-2.873l-0.66602-0.65625-0.027344 0.625c-0.026764 0.60425-0.013339 0.64378 0.39062 1.2305 1.5555 2.259 1.171 5.1774-0.89453 6.8008-1.0371 0.8151-1.9439 1.1211-3.3262 1.1211-1.0443 0-1.6445-0.13612-2.498-0.56445-2.3074-1.1579-3.4601-3.8097-2.6719-6.1445 0.53039-1.571 1.5745-2.6081 3.2305-3.209 0.76405-0.27725 0.87143-0.35881 1.457-1.0977l0.17773-0.22266zm1.7168 1.002c-0.080673-0.076671-2.8012 3.0319-3.3965 3.8809-0.85189 1.2148-0.43573 2.5264 0.94922 2.9961 0.44853 0.15213 0.73528 0.1591 1.2324 0.029297 0.51116-0.13346 1.1621-0.77539 1.3125-1.2949 0.1316-0.45474 0.044074-5.4766-0.097656-5.6113z"
         id="path109" />
    </g>
    <path
       d="m8.1211 1-0.59961 0.064453c-3.5605 0.38628-6.1251 2.874-6.4824 6.2871-0.23088 2.2052 0.57873 4.3056 2.2539 5.8477 0.95966 0.88341 2.4153 1.5708 3.709 1.752 0.74086 0.10372 2.0061 0.034819 2.7363-0.14844 1.9114-0.47971 3.6808-1.9254 4.6113-3.7676 0.71258-1.4107 0.85526-3.4828 0.34961-5.0449-0.36914-1.1404-0.93332-2.068-1.75-2.873l-0.66602-0.65625-0.027344 0.625c-0.026764 0.60425-0.013339 0.64378 0.39062 1.2305 1.5555 2.259 1.171 5.1774-0.89453 6.8008-1.0371 0.8151-1.9439 1.1211-3.3262 1.1211-1.0443 0-1.6445-0.13612-2.498-0.56445-2.3074-1.1579-3.4601-3.8097-2.6719-6.1445 0.53039-1.571 1.5745-2.6081 3.2305-3.209 0.76405-0.27725 0.87143-0.35881 1.457-1.0977l0.17773-0.22266zm1.7168 1.002c-0.080673-0.076671-2.8012 3.0319-3.3965 3.8809-0.85189 1.2148-0.43573 2.5264 0.94922 2.9961 0.44853 0.15213 0.73528 0.1591 1.2324 0.029297 0.51116-0.13346 1.1621-0.77539 1.3125-1.2949 0.1316-0.45474 0.044074-5.4766-0.097656-5.6113z"
       fill="url(#a)"
       id="base"
       transform="translate(16,16) scale(4)" />
    <path
       style="opacity:0.3;fill:#000000;stroke-width:4"
       d="M 48.484375 19 L 47.605469 19.09375 C 45.432733 21.821558 44.914169 22.203944 41.945312 23.28125 C 35.321313 25.68485 31.144997 29.833188 29.023438 36.117188 C 28.332472 38.163961 28.034925 40.270951 28.056641 42.363281 C 28.130144 40.601953 28.442601 38.837736 29.023438 37.117188 C 31.144997 30.833188 35.321313 26.68485 41.945312 24.28125 C 45.001512 23.17225 45.431157 22.846185 47.773438 19.890625 L 48.484375 19 z M 65.009766 27.978516 C 64.960306 29.741559 65.145855 30.174019 66.585938 32.265625 C 69.117518 35.942153 70.342947 40.054872 70.375 44.078125 C 70.558053 39.741199 69.327529 35.247145 66.585938 31.265625 C 65.439419 29.600397 65.083949 29.028667 65.009766 27.978516 z M 55.996094 37.382812 C 55.99871 40.885474 55.926882 43.814918 55.742188 44.453125 C 55.140588 46.531165 52.536828 49.098973 50.492188 49.632812 C 48.503708 50.152025 47.35662 50.124145 45.5625 49.515625 C 42.143687 48.356149 40.207176 45.912408 40.021484 43.070312 C 39.770457 46.331619 41.747863 49.221907 45.5625 50.515625 C 47.35662 51.124145 48.503708 51.152025 50.492188 50.632812 C 52.536828 50.098973 55.140588 47.531165 55.742188 45.453125 C 55.944799 44.753005 56.015571 41.339409 55.996094 37.382812 z M 75.990234 46.5 C 75.940621 50.660544 75.060517 54.850193 73.398438 58.140625 C 69.676437 65.509425 62.598725 71.292097 54.953125 73.210938 C 52.032325 73.943978 46.971252 74.219567 44.007812 73.804688 C 38.833013 73.079887 33.010515 70.330515 29.171875 66.796875 C 23.383455 61.468268 20.185602 54.472717 20.015625 46.980469 C 19.911241 54.848454 23.126871 62.232066 29.171875 67.796875 C 33.010515 71.330515 38.833013 74.079887 44.007812 74.804688 C 46.971252 75.219567 52.032325 74.943978 54.953125 74.210938 C 62.598725 72.292097 69.676437 66.509425 73.398438 59.140625 C 75.193752 55.586428 76.08208 50.982506 75.990234 46.5 z "
       transform="translate(0,2)"
       id="path113" />
    <path
       style="fill:#ffffff;stroke-width:4"
       d="M 48.484375 18 L 46.085938 18.257812 C 31.843938 19.802933 21.58545 29.75385 20.15625 43.40625 C 20.030518 44.607152 19.988836 45.799684 20.015625 46.980469 C 20.026947 46.127062 20.065882 45.269384 20.15625 44.40625 C 21.58545 30.75385 31.843938 20.802933 46.085938 19.257812 L 47.605469 19.09375 C 47.66939 19.013498 47.706497 18.975092 47.773438 18.890625 L 48.484375 18 z M 55.351562 22.007812 C 55.02887 21.701128 44.146825 34.13525 41.765625 37.53125 C 40.460995 39.39166 39.906283 41.307114 40.021484 43.070312 C 40.135011 41.595393 40.704468 40.044465 41.765625 38.53125 C 44.146825 35.13525 55.02887 22.701128 55.351562 23.007812 C 55.700274 23.339228 55.964968 31.059896 55.996094 37.382812 C 55.991254 30.902509 55.719571 22.357567 55.351562 22.007812 z M 65.132812 23.84375 L 65.023438 26.34375 C 64.992348 27.045768 64.979399 27.548642 65.009766 27.978516 C 65.015802 27.763342 65.011795 27.606651 65.023438 27.34375 L 65.132812 24.84375 L 67.796875 27.46875 C 71.063595 30.68875 73.320315 34.399338 74.796875 38.960938 C 75.545512 41.273695 75.936262 43.865882 75.990234 46.5 C 76.025704 43.525579 75.640056 40.565768 74.796875 37.960938 C 73.320315 33.399338 71.063595 29.68875 67.796875 26.46875 L 65.132812 23.84375 z M 28.056641 42.363281 C 27.731164 50.162508 32.181694 57.916986 39.710938 61.695312 C 43.124937 63.408633 45.525925 63.953125 49.703125 63.953125 C 55.232325 63.953125 58.859412 62.72915 63.007812 59.46875 C 67.908277 55.617237 70.421725 49.943036 70.375 44.078125 C 70.142617 49.583788 67.629406 54.836416 63.007812 58.46875 C 58.859412 61.72915 55.232325 62.953125 49.703125 62.953125 C 45.525925 62.953125 43.124937 62.408633 39.710938 60.695312 C 32.504091 57.078771 28.134009 49.818023 28.056641 42.363281 z "
       transform="translate(0,2)"
       id="path118" />
  </g>
</svg>
