<?xml version="1.0" encoding="UTF-8" standalone="no"?>
<svg xmlns:dc="http://purl.org/dc/elements/1.1/" xmlns:cc="http://creativecommons.org/ns#" xmlns:rdf="http://www.w3.org/1999/02/22-rdf-syntax-ns#" xmlns:svg="http://www.w3.org/2000/svg" xmlns="http://www.w3.org/2000/svg" xmlns:xlink="http://www.w3.org/1999/xlink" xmlns:sodipodi="http://sodipodi.sourceforge.net/DTD/sodipodi-0.dtd" xmlns:inkscape="http://www.inkscape.org/namespaces/inkscape" width="96" height="96" version="1.1" id="svg76" sodipodi:docname="mysqlworkbench.svg" inkscape:version="0.92.2 5c3e80d, 2017-08-06">
  <metadata id="metadata80">
    <rdf:RDF>
      <cc:Work rdf:about="">
        <dc:format>image/svg+xml</dc:format>
        <dc:type rdf:resource="http://purl.org/dc/dcmitype/StillImage" />
      </cc:Work>
    </rdf:RDF>
  </metadata>
  <sodipodi:namedview pagecolor="#ffffff" bordercolor="#666666" borderopacity="1" objecttolerance="10" gridtolerance="10" guidetolerance="10" inkscape:pageopacity="0" inkscape:pageshadow="2" inkscape:window-width="640" inkscape:window-height="480" id="namedview78" showgrid="false" inkscape:zoom="2.4583333" inkscape:cx="48" inkscape:cy="48" inkscape:current-layer="svg76" />
  <defs id="defs2410">
    <linearGradient id="linearGradient4384">
      <stop id="stop4386" stop-color="#fff" offset="0" />
      <stop id="stop4388" stop-color="#fff" stop-opacity="0" offset="1" />
    </linearGradient>
    <filter id="filter3794" x="-.192" y="-.192" width="1.384" height="1.384">
      <feGaussianBlur id="feGaussianBlur3796" stdDeviation="5.28" />
    </filter>
    <linearGradient id="linearGradient3613" x1="48" x2="48" y1="20.221" y2="138.66" gradientUnits="userSpaceOnUse">
      <stop id="stop3739" stop-color="#fff" offset="0" />
      <stop id="stop3741" stop-color="#fff" stop-opacity="0" offset="1" />
    </linearGradient>
    <linearGradient id="buttonGradient" x1="48" x2="48" y1="90" y2="5.9877" gradientUnits="userSpaceOnUse">
      <stop id="stop3702" stop-color="#233d65" offset="0" />
      <stop id="stop3704" stop-color="#396aa1" offset="1" />
    </linearGradient>
    <linearGradient id="ButtonShadow-0" x1="45.448" x2="45.448" y1="92.54" y2="7.0165" gradientTransform="matrix(1.0059 0 0 .99417 100 0)" gradientUnits="userSpaceOnUse">
      <stop id="stop3750-8" offset="0" />
      <stop id="stop3752-5" stop-opacity=".58824" offset="1" />
    </linearGradient>
    <linearGradient id="linearGradient3780" x1="32.251" x2="32.251" y1="6.1317" y2="90.239" gradientTransform="matrix(1.0238 0 0 1.0119 -1.1429 -98.071)" gradientUnits="userSpaceOnUse" xlink:href="#ButtonShadow-0" />
    <linearGradient id="linearGradient3721" x1="32.251" x2="32.251" y1="6.1317" y2="90.239" gradientTransform="translate(0,-97)" gradientUnits="userSpaceOnUse" xlink:href="#ButtonShadow-0" />
    <clipPath id="clipPath4355">
      <rect id="rect4357" x="6" y="6" width="84" height="80" rx="6" ry="6" fill="#fff" />
    </clipPath>
    <linearGradient id="linearGradient4390" x1="48" x2="48" y1="88" y2="-40" gradientTransform="matrix(1,0,0,-1,0,92)" gradientUnits="userSpaceOnUse" xlink:href="#linearGradient4384" />
    <linearGradient id="linearGradient4429" x1="48" x2="112.12" y1="82" y2="82.455" gradientUnits="userSpaceOnUse" spreadMethod="reflect" xlink:href="#linearGradient4384" />
    <linearGradient id="linearGradient3228" x1="90" x2="48" y1="88" y2="88" gradientUnits="userSpaceOnUse" spreadMethod="reflect">
      <stop id="stop3894" stop-opacity=".58824" offset="0" />
      <stop id="stop3896" stop-opacity=".47059" offset=".1178" />
      <stop id="stop3898" stop-opacity=".39216" offset=".2381" />
      <stop id="stop3900" stop-opacity=".31373" offset="1" />
    </linearGradient>
  </defs>
  <g id="layer3">
    <g id="g32" fill="url(#linearGradient3780)">
      <path id="path3786" transform="scale(1,-1)" d="m12-95.021c-5.5111 0-10.022 4.51-10.022 10.021v71c0 5.5111 4.5104 10.021 10.021 10.021h72c5.5111 0 10.021-4.5104 10.021-10.021v-71c0-5.5111-4.5104-10.021-10.021-10.021h-72z" opacity=".08" />
      <path id="path3778" transform="scale(1,-1)" d="m12-94.035c-4.9716 0-9.0352 4.0635-9.0352 9.0352v71c0 4.9716 4.0635 9.0352 9.0352 9.0352h72c4.9716 0 9.0352-4.0635 9.0352-9.0352v-71c0-4.9716-4.0635-9.0352-9.0352-9.0352h-72z" opacity=".1" />
      <path id="path3770" transform="scale(1,-1)" d="m12-92.99c-4.4091 0-7.9902 3.5811-7.9902 7.9902v71c0 4.4091 3.5811 7.9902 7.9902 7.9902h72c4.4091 0 7.9902-3.5811 7.9902-7.9902v-71c0-4.4091-3.5811-7.9902-7.9902-7.9902h-72z" opacity=".2" />
      <rect id="rect3723" transform="scale(1,-1)" x="5" y="-92" width="86" height="85" rx="7" ry="7" opacity=".3" />
    </g>
    <rect id="rect3716" transform="scale(1,-1)" x="6" y="-91" width="84" height="84" rx="6" ry="6" fill="url(#linearGradient3721)" opacity=".45" />
  </g>
  <g id="layer1">
    <rect id="button" x="6" y="6" width="84" height="84" rx="6" ry="6" fill="url(#buttonGradient)" />
    <path id="rect4377" d="m12 86c-3.324 0-6-2.676-6-6v-68c0-3.324 2.676-6 6-6h72c3.324 0 6 2.676 6 6v68c0 3.324-2.676 6-6 6zm0-0.96875h72c2.8049 0 5.0312-2.2264 5.0312-5.0312v-68c0-2.8049-2.226-5.0312-5.031-5.0312h-72c-2.8049 0-5.0312 2.2263-5.0312 5.0312v68c0 2.8049 2.2264 5.0312 5.0312 5.0312z" fill="url(#linearGradient4390)" opacity=".3" />
    <path id="rect4414" d="m6 78v2c0 3.324 2.676 6 6 6h72c3.324 0 6-2.676 6-6v-2c0 3.324-2.676 6-6 6h-72c-3.324 0-6-2.676-6-6z" fill="url(#linearGradient4429)" opacity=".1" />
  </g>
  <g id="layer4">
    <path id="path3888" d="m6 80v4c0 3.324 2.676 6 6 6h72c3.324 0 6-2.676 6-6v-4c0 3.324-2.676 6-6 6h-72c-3.324 0-6-2.676-6-6z" fill="url(#linearGradient3228)" />
    <path id="rect4345" d="m6 82v2c0 3.324 2.676 6 6 6h72c3.324 0 6-2.676 6-6v-2c0 3.324-2.676 6-6 6h-72c-3.324 0-6-2.676-6-6z" color="#000000" opacity=".1" />
    <path id="rect4336" d="m6 83v1c0 3.324 2.676 6 6 6h72c3.324 0 6-2.676 6-6v-1c0 3.324-2.676 6-6 6h-72c-3.324 0-6-2.676-6-6z" color="#000000" opacity=".15" />
  </g>
  <g id="layer5">
    <rect id="rect3171" x="15" y="15" width="66" height="62" rx="12" ry="12" clip-path="url(#clipPath4355)" fill="url(#linearGradient3613)" filter="url(#filter3794)" opacity=".1" stroke="#fff" stroke-linecap="round" stroke-width=".5" />
  </g>
  <defs id="defs53">
    <filter id="w">
      <feGaussianBlur stdDeviation="0.23199685" id="feGaussianBlur45" />
    </filter>
    <linearGradient id="a" gradientUnits="userSpaceOnUse" x1="8" y1="0.99997802" x2="8" y2="14.99995002">
      <stop stop-color="#fafafa" offset="0" id="stop48" />
      <stop stop-color="#ebebeb" offset="1" id="stop50" />
    </linearGradient>
  </defs>
  <g transform="translate(0,-2)" id="g74">
    <path style="opacity:0.15;fill:#000000;stroke-width:0.98636001" d="M 1.9589844,0.75390625 C 1.4415507,0.71225745 1.0312681,1.0502395 0.85742188,1.4609375 0.68242761,1.8743477 0.70470732,2.3913026 1.0253906,2.765625 1.4945232,3.4281502 1.9924171,4.0183092 2.1289062,4.7402344 L 2.125,4.7089844 c 0.033333,0.5383686 0.3505054,0.9499171 0.5761719,1.3105468 0.1128332,0.1803149 0.20485,0.3470625 0.25,0.5 0.04515,0.1529376 0.050658,0.2869787 -0.00781,0.4472657 a 0.250025,0.250025 0 0 0 -0.00391,0.013672 c -0.3718324,1.238856 -0.4015374,2.7319548 0.3925781,3.8750002 0.2177216,0.448403 0.6827284,0.645126 1.0957032,0.578125 0.3433634,-0.05571 0.6518057,-0.309087 0.7773437,-0.681641 0.4549042,0.688248 1.1328944,1.147966 1.6386719,1.658203 0.01004,0.01752 0.00131,0.04546 0.013672,0.05859 0.062792,0.06671 0.1259133,0.0884 0.1816406,0.103516 0.1114546,0.03023 0.2120141,0.02599 0.3183594,0 0.053173,-0.013 0.1073444,-0.03185 0.1640625,-0.07031 0.056718,-0.03846 0.1219659,-0.105012 0.1464844,-0.203125 0.024518,-0.09811 -0.00299,-0.201484 -0.046875,-0.271484 -0.043883,-0.07 -0.1008368,-0.120863 -0.1679688,-0.169922 L 7.4746094,11.875 C 6.6087307,11.091422 6.0742013,9.9817483 5.5683594,8.8828125 a 0.250025,0.250025 0 0 0 -0.00781,-0.017578 C 5.5618639,8.86757 5.5077557,8.6691503 5.4375,8.4902344 5.4023722,8.4007764 5.3579512,8.3052746 5.265625,8.21875 5.1732988,8.1322254 5.0051796,8.0768743 4.8613281,8.1132812 A 0.250025,0.250025 0 0 0 4.75,8.1738281 C 4.3075309,8.5885202 4.1328411,9.1373594 4.0390625,9.6933594 4.0385454,9.691687 4.0376239,9.6911304 4.0371094,9.6894531 3.951685,9.4110086 3.8943995,9.0645024 3.8730469,8.8632812 a 0.250025,0.250025 0 0 0 0,-0.00195 C 3.7917741,8.1668867 3.9990873,7.4623339 4.2363281,6.7578125 A 0.250025,0.250025 0 0 0 4.25,6.6835938 C 4.2616774,6.2103389 4.0052382,5.8609193 3.7890625,5.5664062 3.5728868,5.2718932 3.3968751,5.0245424 3.3808594,4.7363281 A 0.250025,0.250025 0 0 0 3.3730469,4.6875 C 3.1329036,3.7820931 2.7196644,2.9110488 2.0703125,2.203125 v -0.00195 c -0.085214,-0.095472 -0.079774,-0.1061353 -0.087891,-0.125 0.1145163,-0.00891 0.3640931,0.037662 0.46875,0.1289062 a 0.250025,0.250025 0 0 0 0.068359,0.042969 c 0.2030915,0.084363 0.4165013,0.273419 0.6738282,0.4492187 0.2573268,0.1757998 0.5918163,0.3371453 0.9902344,0.2558594 l -0.0625,0.00391 c 1.0892632,0.058124 2.0408887,0.7776055 2.8964843,1.5214844 0.932695,0.8542701 1.6300825,1.9525166 2.0625,3.1445313 a 0.250025,0.250025 0 0 0 0.011719,0.027344 c 0.4008727,0.7895703 0.675421,1.6994547 1.2382811,2.4941404 a 0.250025,0.250025 0 0 0 0.05859,0.05664 c 0.364333,0.264866 0.781202,0.38281 1.152344,0.509766 0.371141,0.126955 0.689199,0.259079 0.904296,0.490234 a 0.250025,0.250025 0 0 0 0.01367,0.01367 c 0.09716,0.08951 0.207531,0.150039 0.333985,0.224609 0.007,0.0041 0.01248,0.0076 0.01953,0.01172 -0.505672,0.05588 -1.05459,0.152639 -1.484375,0.53125 a 0.250025,0.250025 0 0 0 -0.08398,0.208984 c 0.07228,0.847217 0.842145,1.375789 1.410156,1.730469 a 0.250025,0.250025 0 0 0 0.02734,0.01367 c 0.726065,0.338142 1.394737,0.771461 2.033203,1.261719 A 0.250025,0.250025 0 0 0 14.869141,15.25 c 0.127777,-2.28e-4 0.294355,-0.08618 0.349609,-0.212891 0.05525,-0.126706 0.03317,-0.227458 0.01172,-0.310547 -0.04291,-0.166176 -0.121963,-0.294416 -0.181641,-0.378906 a 0.250025,0.250025 0 0 0 -0.01563,-0.01953 c -0.535961,-0.610802 -1.113409,-1.267857 -1.910156,-1.666016 0.169728,-0.02735 0.359744,-0.0513 0.521484,-0.08594 a 0.250025,0.250025 0 0 0 0.01172,-0.002 c 0.10855,-0.0289 0.291034,-0.04178 0.486328,-0.07813 0.195295,-0.03635 0.426407,-0.102227 0.587891,-0.302735 a 0.250025,0.250025 0 0 0 0.05078,-0.195312 c -0.05222,-0.327524 -0.243617,-0.577466 -0.445312,-0.777344 -0.201696,-0.199878 -0.420602,-0.363365 -0.576172,-0.515625 a 0.250025,0.250025 0 0 0 -0.01563,-0.01367 C 13.047654,10.112467 12.260477,9.6272467 11.400391,9.3007812 10.746616,8.2713959 10.350794,7.0693217 9.7871094,5.9179688 A 0.250025,0.250025 0 0 0 9.78125,5.90625 C 8.8406653,4.2074052 7.3513877,2.8219809 5.609375,1.9765625 5.2257481,1.7786304 4.8265178,1.7709074 4.4902344,1.7324219 4.153951,1.6939364 3.8972033,1.6382465 3.6972656,1.4296875 A 0.250025,0.250025 0 0 0 3.6582031,1.3964844 C 3.1899989,1.0813244 2.6407945,0.82849737 2.0390625,0.7734375 A 0.250025,0.250025 0 0 0 1.96875,0.75390625 c -0.00274,-2.4663e-4 -0.00508,2.2535e-4 -0.00781,0 -6.505e-4,-3.821e-5 -0.0013,3.771e-5 -0.00195,0 z M 4.0585938,3.1621094 c -0.00682,2.826e-4 -0.016522,0.00545 -0.023438,0.00586 -0.00602,0.00111 -0.011554,-0.00126 -0.017578,0 l 0.00391,0.00391 c -0.086878,0.00628 -0.1771634,0.018083 -0.2910156,0.076172 -0.064188,0.032749 -0.1447558,0.079232 -0.1953126,0.1933593 -0.050557,0.1141278 -0.014165,0.2724968 0.052734,0.359375 a 0.250025,0.250025 0 0 0 0.066406,0.058594 c 0.074601,0.046199 0.1415586,0.1656537 0.21875,0.3398438 0.077191,0.17419 0.1626688,0.4080906 0.40625,0.546875 a 0.250025,0.250025 0 0 0 0.2089843,0.017578 C 4.7082566,4.6834739 4.8680017,4.5169349 4.9414062,4.3300781 5.0148108,4.1432214 5.0134768,3.9433175 4.9589844,3.7617188 4.9044919,3.58012 4.7955938,3.4122831 4.6328125,3.2949219 4.4957326,3.1960907 4.3132145,3.1546032 4.1230469,3.1679688 a 0.250025,0.250025 0 0 0 -0.064453,-0.00586 z" inkscape:original="m1.9456 1.0035c-.81658-.073466-1.2262 1.0204-.73034 1.5992.46321.65651 1.0056 1.2797 1.1591 2.0916.054837.88569 1.1144 1.507.80426 2.3572-.35999 1.1994-.3797 2.6317.37267 3.6899.33911.7133 1.3995.55734 1.468-.25425.02201-.30641.00644-.7454.18939-.19686.38357.82512 1.195 1.3198 1.8168 1.9486-.051266.18648.68609.11696.28066-.17932-.91437-.82746-1.4574-1.9715-1.9641-3.0723-.094876-.16825-.13273-.70378-.42022-.63102-.54096.507-.71836 1.2603-.73449 1.9745-.33529-.022968-.51699-1.009-.5628-1.4407-.089122-.76151.13681-1.5034.37566-2.2127.018716-.75851-.82752-1.1696-.86958-1.9265-.23228-.87576-.62875-1.7089-1.2452-2.3805-.58673-.65201.3449-.68803.72912-.35305.51934.21573.89271.81852 1.5198.69058 1.1913.063569 2.1873.83299 3.0523 1.5855.96558.88439 1.6839 2.0174 2.1289 3.2441.4142.81582.68714 1.7104 1.2192 2.4616.6351.46171 1.5642.46338 2.0936 1.0323.2198.2025 1.3599.69316.50756.62455-.56356.04913-1.2076.12991-1.6434.51382.05938.69596.74035 1.1935 1.2951 1.5399.74691.34785 1.4314.79203 2.0803 1.2903.26764-.000477.05902-.39108-.02331-.50764-.55078-.62769-1.1167-1.2793-1.8859-1.6442-.78542-.42988.28132-.44018.6329-.51548.29619-.07887.73822-.04081.94372-.29597-.08034-.50391-.6041-.81293-.95095-1.1524-.70723-.58787-1.4997-1.0843-2.3675-1.3974-.69634-1.0768-1.092-2.3125-1.6537-3.4598-.91487-1.6524-2.3703-3.005-4.0677-3.8278-.63952-.32996-1.4578-.053812-1.9777-.59613-.46813-.31511-1.0011-.56652-1.5724-.59963zm2.1237 2.4092c-.098296.0040737-.40873.072048-.28329.23495.31596.19567.31813.71147.6172.88187.63106-.23007.32266-1.2538-.33391-1.1168z" transform="matrix(4,0,0,4,16,17)" inkscape:radius="0.25" sodipodi:type="inkscape:offset" id="path13" />
    <g id="Bevel1">
      <path id="path57" fill="#000" stroke-width=".98636" opacity=".10" sodipodi:type="inkscape:offset" inkscape:radius="0.5" transform="translate(16,17) scale(4)" inkscape:original="m1.9456 1.0035c-.81658-.073466-1.2262 1.0204-.73034 1.5992.46321.65651 1.0056 1.2797 1.1591 2.0916.054837.88569 1.1144 1.507.80426 2.3572-.35999 1.1994-.3797 2.6317.37267 3.6899.33911.7133 1.3995.55734 1.468-.25425.02201-.30641.00644-.7454.18939-.19686.38357.82512 1.195 1.3198 1.8168 1.9486-.051266.18648.68609.11696.28066-.17932-.91437-.82746-1.4574-1.9715-1.9641-3.0723-.094876-.16825-.13273-.70378-.42022-.63102-.54096.507-.71836 1.2603-.73449 1.9745-.33529-.022968-.51699-1.009-.5628-1.4407-.089122-.76151.13681-1.5034.37566-2.2127.018716-.75851-.82752-1.1696-.86958-1.9265-.23228-.87576-.62875-1.7089-1.2452-2.3805-.58673-.65201.3449-.68803.72912-.35305.51934.21573.89271.81852 1.5198.69058 1.1913.063569 2.1873.83299 3.0523 1.5855.96558.88439 1.6839 2.0174 2.1289 3.2441.4142.81582.68714 1.7104 1.2192 2.4616.6351.46171 1.5642.46338 2.0936 1.0323.2198.2025 1.3599.69316.50756.62455-.56356.04913-1.2076.12991-1.6434.51382.05938.69596.74035 1.1935 1.2951 1.5399.74691.34785 1.4314.79203 2.0803 1.2903.26764-.000477.05902-.39108-.02331-.50764-.55078-.62769-1.1167-1.2793-1.8859-1.6442-.78542-.42988.28132-.44018.6329-.51548.29619-.07887.73822-.04081.94372-.29597-.08034-.50391-.6041-.81293-.95095-1.1524-.70723-.58787-1.4997-1.0843-2.3675-1.3974-.69634-1.0768-1.092-2.3125-1.6537-3.4598-.91487-1.6524-2.3703-3.005-4.0677-3.8278-.63952-.32996-1.4578-.053812-1.9777-.59613-.46813-.31511-1.0011-.56652-1.5724-.59963zm2.1237 2.4092c-.098296.0040737-.40873.072048-.28329.23495.31596.19567.31813.71147.6172.88187.63106-.23007.32266-1.2538-.33391-1.1168z" />
    </g>
    <g id="Bevel2">
      <path id="path60" fill="#000" stroke-width=".98636" opacity=".05" sodipodi:type="inkscape:offset" inkscape:radius="0.75" transform="translate(16,17) scale(4)" inkscape:original="m1.9456 1.0035c-.81658-.073466-1.2262 1.0204-.73034 1.5992.46321.65651 1.0056 1.2797 1.1591 2.0916.054837.88569 1.1144 1.507.80426 2.3572-.35999 1.1994-.3797 2.6317.37267 3.6899.33911.7133 1.3995.55734 1.468-.25425.02201-.30641.00644-.7454.18939-.19686.38357.82512 1.195 1.3198 1.8168 1.9486-.051266.18648.68609.11696.28066-.17932-.91437-.82746-1.4574-1.9715-1.9641-3.0723-.094876-.16825-.13273-.70378-.42022-.63102-.54096.507-.71836 1.2603-.73449 1.9745-.33529-.022968-.51699-1.009-.5628-1.4407-.089122-.76151.13681-1.5034.37566-2.2127.018716-.75851-.82752-1.1696-.86958-1.9265-.23228-.87576-.62875-1.7089-1.2452-2.3805-.58673-.65201.3449-.68803.72912-.35305.51934.21573.89271.81852 1.5198.69058 1.1913.063569 2.1873.83299 3.0523 1.5855.96558.88439 1.6839 2.0174 2.1289 3.2441.4142.81582.68714 1.7104 1.2192 2.4616.6351.46171 1.5642.46338 2.0936 1.0323.2198.2025 1.3599.69316.50756.62455-.56356.04913-1.2076.12991-1.6434.51382.05938.69596.74035 1.1935 1.2951 1.5399.74691.34785 1.4314.79203 2.0803 1.2903.26764-.000477.05902-.39108-.02331-.50764-.55078-.62769-1.1167-1.2793-1.8859-1.6442-.78542-.42988.28132-.44018.6329-.51548.29619-.07887.73822-.04081.94372-.29597-.08034-.50391-.6041-.81293-.95095-1.1524-.70723-.58787-1.4997-1.0843-2.3675-1.3974-.69634-1.0768-1.092-2.3125-1.6537-3.4598-.91487-1.6524-2.3703-3.005-4.0677-3.8278-.63952-.32996-1.4578-.053812-1.9777-.59613-.46813-.31511-1.0011-.56652-1.5724-.59963zm2.1237 2.4092c-.098296.0040737-.40873.072048-.28329.23495.31596.19567.31813.71147.6172.88187.63106-.23007.32266-1.2538-.33391-1.1168z" />
    </g>
    <path id="base" d="m1.9456 1.0035c-.81658-.073466-1.2262 1.0204-.73034 1.5992.46321.65651 1.0056 1.2797 1.1591 2.0916.054837.88569 1.1144 1.507.80426 2.3572-.35999 1.1994-.3797 2.6317.37267 3.6899.33911.7133 1.3995.55734 1.468-.25425.02201-.30641.00644-.7454.18939-.19686.38357.82512 1.195 1.3198 1.8168 1.9486-.051266.18648.68609.11696.28066-.17932-.91437-.82746-1.4574-1.9715-1.9641-3.0723-.094876-.16825-.13273-.70378-.42022-.63102-.54096.507-.71836 1.2603-.73449 1.9745-.33529-.022968-.51699-1.009-.5628-1.4407-.089122-.76151.13681-1.5034.37566-2.2127.018716-.75851-.82752-1.1696-.86958-1.9265-.23228-.87576-.62875-1.7089-1.2452-2.3805-.58673-.65201.3449-.68803.72912-.35305.51934.21573.89271.81852 1.5198.69058 1.1913.063569 2.1873.83299 3.0523 1.5855.96558.88439 1.6839 2.0174 2.1289 3.2441.4142.81582.68714 1.7104 1.2192 2.4616.6351.46171 1.5642.46338 2.0936 1.0323.2198.2025 1.3599.69316.50756.62455-.56356.04913-1.2076.12991-1.6434.51382.05938.69596.74035 1.1935 1.2951 1.5399.74691.34785 1.4314.79203 2.0803 1.2903.26764-.000477.05902-.39108-.02331-.50764-.55078-.62769-1.1167-1.2793-1.8859-1.6442-.78542-.42988.28132-.44018.6329-.51548.29619-.07887.73822-.04081.94372-.29597-.08034-.50391-.6041-.81293-.95095-1.1524-.70723-.58787-1.4997-1.0843-2.3675-1.3974-.69634-1.0768-1.092-2.3125-1.6537-3.4598-.91487-1.6524-2.3703-3.005-4.0677-3.8278-.63952-.32996-1.4578-.053812-1.9777-.59613-.46813-.31511-1.0011-.56652-1.5724-.59963zm2.1237 2.4092c-.098296.0040737-.40873.072048-.28329.23495.31596.19567.31813.71147.6172.88187.63106-.23007.32266-1.2538-.33391-1.1168z" fill="url(#a)" stroke-width=".98636" transform="translate(16,16) scale(4)" />
    <path style="opacity:0.3;fill:#000000;stroke-width:3.94544005" d="M 24.240234 21.240234 C 23.224854 21.195376 22.444071 21.620221 22.943359 22.638672 C 23.495433 21.954788 25.447184 22.186227 26.458984 23.068359 C 28.536344 23.931279 30.028749 26.343791 32.537109 25.832031 C 37.302309 26.086307 41.286094 29.163788 44.746094 32.173828 C 48.608414 35.711388 51.481719 40.243591 53.261719 45.150391 C 54.918519 48.413671 56.010432 51.991294 58.138672 54.996094 C 60.679072 56.842934 64.396072 56.84932 66.513672 59.125 C 66.914577 59.494351 68.05377 60.097707 68.880859 60.625 C 71.465425 60.699234 67.352845 58.898124 66.513672 58.125 C 64.396072 55.84932 60.679072 55.842934 58.138672 53.996094 C 56.010432 50.991294 54.918519 47.413671 53.261719 44.150391 C 51.481719 39.243591 48.608414 34.711388 44.746094 31.173828 C 41.286094 28.163788 37.302309 25.086307 32.537109 24.832031 C 30.028749 25.343791 28.536344 22.931279 26.458984 22.068359 C 25.882654 21.565889 24.996652 21.273652 24.240234 21.240234 z M 20.035156 22.476562 C 19.918129 23.513812 20.159309 24.590714 20.861328 25.410156 C 22.714168 28.036196 24.884047 30.529744 25.498047 33.777344 C 25.677216 36.671154 28.534507 38.860015 28.900391 41.417969 C 29.300404 38.407654 25.70007 36.040276 25.498047 32.777344 C 24.884047 29.529744 22.714168 27.036196 20.861328 24.410156 C 20.384623 23.853715 20.121108 23.177596 20.035156 22.476562 z M 31.460938 28.853516 C 31.119356 29.003237 30.871622 29.235432 31.144531 29.589844 C 32.408371 30.372524 32.417001 32.435588 33.613281 33.117188 C 34.768252 32.696112 35.129405 31.612804 34.9375 30.611328 C 34.799642 31.260842 34.383166 31.836505 33.613281 32.117188 C 32.529717 31.499809 32.411098 29.759613 31.460938 28.853516 z M 31.933594 40.919922 C 31.097422 43.417114 30.331778 46.012657 30.439453 48.673828 C 30.530446 46.288014 31.243025 43.956933 32 41.708984 C 32.006782 41.434122 31.978638 41.174036 31.933594 40.919922 z M 27.757812 49.025391 C 27.674564 52.195113 28.354614 55.362187 30.205078 57.964844 C 31.561518 60.818044 35.804125 60.195579 36.078125 56.949219 C 36.166165 55.723579 36.102184 53.967949 36.833984 56.162109 C 38.368264 59.462589 41.614362 61.439878 44.101562 63.955078 C 43.899366 64.690567 46.755725 64.428668 45.28125 63.285156 C 44.768009 63.45078 43.992402 63.352148 44.101562 62.955078 C 41.614362 60.439878 38.368264 58.462589 36.833984 55.162109 C 36.102184 52.967949 36.166165 54.723579 36.078125 55.949219 C 35.804125 59.195579 31.561518 59.818044 30.205078 56.964844 C 28.549632 54.636478 27.831785 51.855204 27.757812 49.025391 z M 73.912109 62.363281 C 73.024696 63.134702 71.455196 63.040361 70.367188 63.330078 C 69.096361 63.602259 65.507491 63.667444 67.142578 64.945312 C 67.91764 64.596643 69.577222 64.49927 70.367188 64.330078 C 71.551947 64.014598 73.318625 64.167124 74.140625 63.146484 C 74.096661 62.870735 74.016111 62.612159 73.912109 62.363281 z M 62.136719 63.554688 C 62.082864 63.598672 62.023085 63.633542 61.970703 63.679688 C 62.208223 66.463527 64.931391 68.452291 67.150391 69.837891 C 70.138031 71.229291 72.875103 73.00692 75.470703 75 C 76.117366 74.998852 76.050203 74.431341 75.837891 73.876953 C 75.754204 73.947893 75.644158 73.999692 75.470703 74 C 72.875103 72.00692 70.138031 70.229291 67.150391 68.837891 C 65.172066 67.602575 62.797955 65.885078 62.136719 63.554688 z " transform="translate(0,2)" id="path64" />
    <path style="fill:#ffffff;stroke-width:3.94544005" d="M 23.189453 18.011719 C 21.059602 18.19543 19.785837 20.44309 20.035156 22.476562 C 20.248702 20.583835 21.672116 18.825118 23.78125 19.013672 L 23.783203 19.013672 C 26.067667 19.14657 28.198325 20.152028 30.070312 21.412109 C 32.149913 23.581381 35.424342 22.477035 37.982422 23.796875 C 44.772022 27.088075 50.592473 32.497822 54.251953 39.107422 C 56.498753 43.696622 58.081828 48.640066 60.867188 52.947266 C 64.338387 54.199666 67.508971 56.185629 70.337891 58.537109 C 71.535487 59.709225 73.255894 60.792945 73.912109 62.363281 C 73.991022 62.294683 74.073498 62.229833 74.140625 62.146484 C 73.819265 60.130844 71.725291 58.894989 70.337891 57.537109 C 67.508971 55.185629 64.338387 53.199666 60.867188 51.947266 C 58.081828 47.640066 56.498753 42.696622 54.251953 38.107422 C 50.592473 31.497822 44.772022 26.088075 37.982422 22.796875 C 35.424342 21.477035 32.149913 22.581381 30.070312 20.412109 C 28.198325 19.152028 26.067667 18.14657 23.783203 18.013672 L 23.78125 18.013672 C 23.577818 17.995485 23.379766 17.995303 23.189453 18.011719 z M 22.943359 22.638672 C 22.656858 22.993577 22.739184 23.589424 23.541016 24.480469 C 26.006816 27.166869 27.592364 30.500866 28.521484 34.003906 C 28.674483 36.757227 31.481426 38.369028 31.933594 40.919922 C 31.956891 40.850345 31.976623 40.778406 32 40.708984 C 32.07486 37.674944 28.689724 36.031506 28.521484 33.003906 C 27.592364 29.500866 26.006816 26.166869 23.541016 23.480469 C 23.25559 23.163286 23.063988 22.88473 22.943359 22.638672 z M 32.751953 27.601562 C 32.599268 27.601448 32.441486 27.616141 32.277344 27.650391 C 31.88416 27.666681 30.642771 27.938236 31.144531 28.589844 C 31.263613 28.663589 31.362099 28.75926 31.460938 28.853516 C 31.747375 28.727965 32.098014 28.65782 32.277344 28.650391 C 33.701965 28.353129 34.709987 29.424034 34.9375 30.611328 C 35.22339 29.264364 34.297131 27.602718 32.751953 27.601562 z M 28.900391 41.417969 C 28.866086 41.676132 28.81283 41.936464 28.714844 42.205078 C 28.066973 44.363629 27.697308 46.710809 27.757812 49.025391 C 27.809954 47.040073 28.160284 45.052738 28.714844 43.205078 C 28.942085 42.582132 28.982442 41.991601 28.900391 41.417969 z M 35.890625 47.398438 C 35.826254 47.398571 35.759372 47.407591 35.6875 47.425781 C 33.52366 49.453781 32.81452 52.465466 32.75 55.322266 C 31.40884 55.230396 30.681287 51.287347 30.498047 49.560547 C 30.463348 49.264057 30.451387 48.968783 30.439453 48.673828 C 30.415601 49.299218 30.424009 49.927922 30.498047 50.560547 C 30.681287 52.287347 31.40884 56.230396 32.75 56.322266 C 32.81452 53.465466 33.52366 50.453781 35.6875 48.425781 C 36.83746 48.134741 36.987684 50.276219 37.367188 50.949219 C 39.393988 55.352419 41.567129 59.928441 45.224609 63.238281 C 45.247287 63.254854 45.260339 63.268939 45.28125 63.285156 C 45.732164 63.139646 45.983051 62.792535 45.224609 62.238281 C 41.567129 58.928441 39.393988 54.352419 37.367188 49.949219 C 37.011403 49.318281 36.856188 47.396433 35.890625 47.398438 z M 68.542969 60.623047 C 66.288729 60.819567 63.713903 61.144048 61.970703 62.679688 C 61.996465 62.981626 62.056275 63.271181 62.136719 63.554688 C 63.875081 62.134923 66.356467 61.813662 68.542969 61.623047 C 70.397699 61.772345 69.867607 61.254079 68.880859 60.625 C 68.757582 60.621459 68.698184 60.635541 68.542969 60.623047 z M 67.142578 64.945312 C 66.537852 65.217355 66.457065 65.638956 67.833984 66.392578 C 70.910784 67.852178 73.175786 70.45799 75.378906 72.96875 C 75.509303 73.153361 75.698717 73.513544 75.837891 73.876953 C 76.270715 73.510055 75.654869 72.359448 75.378906 71.96875 C 73.175786 69.45799 70.910784 66.852178 67.833984 65.392578 C 67.531296 65.226909 67.316909 65.081557 67.142578 64.945312 z " transform="translate(0,2)" id="path69" />
  </g>
</svg>
