<?xml version="1.0" encoding="UTF-8" standalone="no"?>
<svg
   xmlns:dc="http://purl.org/dc/elements/1.1/"
   xmlns:cc="http://creativecommons.org/ns#"
   xmlns:rdf="http://www.w3.org/1999/02/22-rdf-syntax-ns#"
   xmlns:svg="http://www.w3.org/2000/svg"
   xmlns="http://www.w3.org/2000/svg"
   xmlns:xlink="http://www.w3.org/1999/xlink"
   xmlns:sodipodi="http://sodipodi.sourceforge.net/DTD/sodipodi-0.dtd"
   xmlns:inkscape="http://www.inkscape.org/namespaces/inkscape"
   width="96"
   height="96"
   version="1.0"
   id="svg125"
   sodipodi:docname="nicotine.svg"
   inkscape:version="0.92.2 5c3e80d, 2017-08-06">
  <metadata
     id="metadata129">
    <rdf:RDF>
      <cc:Work
         rdf:about="">
        <dc:format>image/svg+xml</dc:format>
        <dc:type
           rdf:resource="http://purl.org/dc/dcmitype/StillImage" />
      </cc:Work>
    </rdf:RDF>
  </metadata>
  <sodipodi:namedview
     pagecolor="#ffffff"
     bordercolor="#666666"
     borderopacity="1"
     objecttolerance="10"
     gridtolerance="10"
     guidetolerance="10"
     inkscape:pageopacity="0"
     inkscape:pageshadow="2"
     inkscape:window-width="1366"
     inkscape:window-height="743"
     id="namedview127"
     showgrid="true"
     inkscape:zoom="4.9166667"
     inkscape:cx="36.33031"
     inkscape:cy="34.182317"
     inkscape:window-x="0"
     inkscape:window-y="25"
     inkscape:window-maximized="1"
     inkscape:current-layer="svg125">
    <inkscape:grid
       type="xygrid"
       id="grid880" />
  </sodipodi:namedview>
  <defs
     id="defs49">
    <linearGradient
       id="linearGradient4384">
      <stop
         stop-color="#fff"
         offset="0"
         id="stop2" />
      <stop
         stop-color="#fff"
         stop-opacity="0"
         offset="1"
         id="stop4" />
    </linearGradient>
    <linearGradient
       id="ButtonShadow"
       x1="45.448"
       x2="45.448"
       y1="92.54"
       y2="7.0165"
       gradientTransform="scale(1.0059 .99417)"
       gradientUnits="userSpaceOnUse">
      <stop
         offset="0"
         id="stop7" />
      <stop
         stop-opacity=".58824"
         offset="1"
         id="stop9" />
    </linearGradient>
    <filter
       id="filter3174">
      <feGaussianBlur
         stdDeviation="1.71"
         id="feGaussianBlur12" />
    </filter>
    <filter
       id="filter3794"
       x="-.192"
       y="-.192"
       width="1.384"
       height="1.384">
      <feGaussianBlur
         stdDeviation="5.28"
         id="feGaussianBlur15" />
    </filter>
    <linearGradient
       id="linearGradient3613"
       x1="48"
       x2="48"
       y1="20.221"
       y2="138.66"
       gradientUnits="userSpaceOnUse">
      <stop
         stop-color="#fff"
         offset="0"
         id="stop18" />
      <stop
         stop-color="#fff"
         stop-opacity="0"
         offset="1"
         id="stop20" />
    </linearGradient>
    <linearGradient
       id="linearGradient3617"
       x1="48"
       x2="48"
       y1="90"
       y2="5.9877"
       gradientUnits="userSpaceOnUse">
      <stop
         stop-color="#ff5c14"
         offset="0"
         id="stop23" />
      <stop
         stop-color="#ff7b25"
         offset="1"
         id="stop25" />
    </linearGradient>
    <linearGradient
       id="ButtonShadow-0"
       x1="45.448"
       x2="45.448"
       y1="92.54"
       y2="7.0165"
       gradientTransform="matrix(1.0059 0 0 .99417 100 0)"
       gradientUnits="userSpaceOnUse">
      <stop
         offset="0"
         id="stop28" />
      <stop
         stop-opacity=".58824"
         offset="1"
         id="stop30" />
    </linearGradient>
    <linearGradient
       id="linearGradient3780"
       x1="32.251"
       x2="32.251"
       y1="6.1317"
       y2="90.239"
       gradientTransform="matrix(1.0238 0 0 1.0119 -1.1429 -98.071)"
       gradientUnits="userSpaceOnUse"
       xlink:href="#ButtonShadow-0" />
    <linearGradient
       id="linearGradient3721"
       x1="32.251"
       x2="32.251"
       y1="6.1317"
       y2="90.239"
       gradientTransform="translate(0,-97)"
       gradientUnits="userSpaceOnUse"
       xlink:href="#ButtonShadow-0" />
    <clipPath
       id="clipPath4355">
      <rect
         x="6"
         y="6"
         width="84"
         height="80"
         rx="6"
         ry="6"
         fill="#fff"
         id="rect35" />
    </clipPath>
    <linearGradient
       id="linearGradient4390"
       x1="48"
       x2="48"
       y1="88"
       y2="-40"
       gradientTransform="matrix(1,0,0,-1,0,92)"
       gradientUnits="userSpaceOnUse"
       xlink:href="#linearGradient4384" />
    <linearGradient
       id="linearGradient4429"
       x1="48"
       x2="112.12"
       y1="82"
       y2="82.455"
       gradientUnits="userSpaceOnUse"
       spreadMethod="reflect"
       xlink:href="#linearGradient4384" />
    <linearGradient
       id="linearGradient3870"
       x1="8"
       x2="50"
       y1="1033.4"
       y2="1033.4"
       gradientTransform="translate(-2 -956.36)"
       gradientUnits="userSpaceOnUse"
       spreadMethod="reflect">
      <stop
         stop-color="#523823"
         offset="0"
         id="stop40" />
      <stop
         stop-color="#79563a"
         offset=".1178"
         id="stop42" />
      <stop
         stop-color="#875c38"
         offset=".2381"
         id="stop44" />
      <stop
         stop-color="#a66e40"
         offset="1"
         id="stop46" />
    </linearGradient>
  </defs>
  <g
     display="none"
     id="g53">
    <rect
       x="5"
       y="7"
       width="86"
       height="85"
       rx="6"
       ry="6"
       fill="url(#ButtonShadow)"
       filter="url(#filter3174)"
       opacity=".9"
       id="rect51" />
  </g>
  <g
     id="g67">
    <g
       fill="url(#linearGradient3780)"
       id="g63">
      <path
         transform="scale(1,-1)"
         d="m12-95.031c-5.5111 0-10.031 4.5202-10.031 10.031v71c0 5.5111 4.5202 10.031 10.031 10.031h72c5.5111 0 10.031-4.5202 10.031-10.031v-71c0-5.5111-4.5202-10.031-10.031-10.031h-72z"
         opacity=".08"
         id="path55" />
      <path
         transform="scale(1,-1)"
         d="m12-94.031c-4.9716 0-9.0312 4.0596-9.0312 9.0312v71c0 4.9716 4.0596 9.0312 9.0312 9.0312h72c4.9716 0 9.0312-4.0596 9.0312-9.0312v-71c0-4.9716-4.0596-9.0312-9.0312-9.0312h-72z"
         opacity=".1"
         id="path57" />
      <path
         transform="scale(1,-1)"
         d="m12-93c-4.4091 0-8 3.5909-8 8v71c0 4.4091 3.5909 8 8 8h72c4.4091 0 8-3.5909 8-8v-71c0-4.4091-3.5909-8-8-8h-72z"
         opacity=".2"
         id="path59" />
      <rect
         transform="scale(1,-1)"
         x="5"
         y="-92"
         width="86"
         height="85"
         rx="7"
         ry="7"
         opacity=".3"
         id="rect61" />
    </g>
    <rect
       transform="scale(1,-1)"
       x="6"
       y="-91"
       width="84"
       height="84"
       rx="6"
       ry="6"
       fill="url(#linearGradient3721)"
       opacity=".45"
       id="rect65" />
  </g>
  <g
     id="g79">
    <rect
       x="6"
       y="64"
       width="84"
       height="26"
       rx="6"
       ry="6"
       color="#000000"
       fill="url(#linearGradient3870)"
       id="rect69" />
    <g
       id="g77">
      <path
         d="m6 82v2c0 3.324 2.676 6 6 6h72c3.324 0 6-2.676 6-6v-2c0 3.324-2.676 6-6 6h-72c-3.324 0-6-2.676-6-6z"
         color="#000000"
         opacity=".1"
         id="path71" />
      <path
         d="m6 83v1c0 3.324 2.676 6 6 6h72c3.324 0 6-2.676 6-6v-1c0 3.324-2.676 6-6 6h-72c-3.324 0-6-2.676-6-6z"
         color="#000000"
         opacity=".1"
         id="path73" />
      <path
         d="m6 80v1c0 3.324 2.676 6 6 6h72c3.324 0 6-2.676 6-6v-1c0 3.324-2.676 6-6 6h-72c-3.324 0-6-2.676-6-6z"
         opacity=".2"
         id="path75" />
    </g>
  </g>
  <g
     id="g87">
    <rect
       x="6"
       y="6"
       width="84"
       height="80"
       rx="6"
       ry="6"
       fill="url(#linearGradient3617)"
       id="rect81" />
    <path
       d="m12 86c-3.324 0-6-2.676-6-6v-68c0-3.324 2.676-6 6-6h72c3.324 0 6 2.676 6 6v68c0 3.324-2.676 6-6 6zm0-0.96875h72c2.8049 0 5.0312-2.2264 5.0312-5.0312v-68c0-2.8049-2.2264-5.0312-5.0312-5.0312h-72c-2.8049 0-5.0312 2.2264-5.0312 5.0312v68c0 2.8049 2.2264 5.0312 5.0312 5.0312z"
       fill="url(#linearGradient4390)"
       opacity=".3"
       id="path83" />
    <path
       d="m6 78v2c0 3.324 2.676 6 6 6h72c3.324 0 6-2.676 6-6v-2c0 3.324-2.676 6-6 6h-72c-3.324 0-6-2.676-6-6z"
       fill="url(#linearGradient4429)"
       opacity=".1"
       id="path85" />
  </g>
  <g
     id="g91">
    <rect
       x="15"
       y="15"
       width="66"
       height="62"
       rx="12"
       ry="12"
       clip-path="url(#clipPath4355)"
       fill="url(#linearGradient3613)"
       filter="url(#filter3794)"
       opacity=".1"
       stroke="#fff"
       stroke-linecap="round"
       stroke-width=".5"
       id="rect89" />
  </g>
  <defs
     id="defs101">
    <filter
       id="w">
      <feGaussianBlur
         stdDeviation="0.23199685"
         id="feGaussianBlur93" />
    </filter>
    <linearGradient
       id="a"
       gradientUnits="userSpaceOnUse"
       x1="8"
       y1="3"
       x2="8"
       y2="15">
      <stop
         stop-color="#fafafa"
         offset="0"
         id="stop96" />
      <stop
         stop-color="#ebebeb"
         offset="1"
         id="stop98" />
    </linearGradient>
  </defs>
  <g
     transform="matrix(1.3461538,0,0,1.3461538,-16.615385,-16.307689)"
     id="g123">
    <path
       style="opacity:0.15;fill:#000000"
       d="M 8,2.75 C 5.6498243,2.75 3.75,4.6498243 3.75,7 v 8 A 0.250025,0.250025 0 0 0 4,15.25 H 5.5 A 0.250025,0.250025 0 0 0 5.75,15 V 7 C 5.75,5.7491757 6.7491757,4.75 8,4.75 c 1.2508243,0 2.25,0.9991757 2.25,2.25 v 8 a 0.250025,0.250025 0 0 0 0.25,0.25 H 12 A 0.250025,0.250025 0 0 0 12.25,15 V 7 C 12.25,4.6498243 10.350176,2.75 8,2.75 Z"
       id="path103"
       inkscape:original="M 8 3 C 5.784 3 4 4.784 4 7 L 4 15 L 5.5 15 L 5.5 7 C 5.5 5.615 6.615 4.5 8 4.5 C 9.385 4.5 10.5 5.615 10.5 7 L 10.5 15 L 12 15 L 12 7 C 12 4.784 10.216 3 8 3 z"
       transform="matrix(4,0,0,4,16,17)"
       inkscape:radius="0.25"
       sodipodi:type="inkscape:offset" />
    <g
       id="Bevel1">
      <path
         sodipodi:type="inkscape:offset"
         inkscape:radius="0.5"
         transform="matrix(4,0,0,4,16,17)"
         inkscape:original="M 8 3 C 5.784 3 4 4.784 4 7 L 4 15 L 5.5 15 L 5.5 7 C 5.5 5.615 6.615 4.5 8 4.5 C 9.385 4.5 10.5 5.615 10.5 7 L 10.5 15 L 12 15 L 12 7 C 12 4.784 10.216 3 8 3 z"
         id="path106"
         d="M 8,2.5 C 5.5156486,2.5 3.5,4.5156486 3.5,7 v 8 A 0.50005,0.50005 0 0 0 4,15.5 H 5.5 A 0.50005,0.50005 0 0 0 6,15 V 7 C 6,5.8833514 6.8833514,5 8,5 c 1.1166486,0 2,0.8833514 2,2 v 8 a 0.50005,0.50005 0 0 0 0.5,0.5 H 12 A 0.50005,0.50005 0 0 0 12.5,15 V 7 C 12.5,4.5156486 10.484351,2.5 8,2.5 Z"
         style="opacity:0.1;fill:#000000" />
    </g>
    <g
       id="Bevel2">
      <path
         sodipodi:type="inkscape:offset"
         inkscape:radius="0.75"
         transform="matrix(4,0,0,4,16,17)"
         inkscape:original="M 8 3 C 5.784 3 4 4.784 4 7 L 4 15 L 5.5 15 L 5.5 7 C 5.5 5.615 6.615 4.5 8 4.5 C 9.385 4.5 10.5 5.615 10.5 7 L 10.5 15 L 12 15 L 12 7 C 12 4.784 10.216 3 8 3 z"
         id="path109"
         d="M 8,2.25 C 5.3814729,2.25 3.25,4.3814729 3.25,7 v 8 A 0.750075,0.750075 0 0 0 4,15.75 H 5.5 A 0.750075,0.750075 0 0 0 6.25,15 V 7 C 6.25,6.0175271 7.0175271,5.25 8,5.25 8.9824729,5.25 9.75,6.0175271 9.75,7 v 8 a 0.750075,0.750075 0 0 0 0.75,0.75 H 12 A 0.750075,0.750075 0 0 0 12.75,15 V 7 C 12.75,4.3814729 10.618527,2.25 8,2.25 Z"
         style="opacity:0.05;fill:#000000" />
    </g>
    <path
       d="M 8,3 C 5.784,3 4,4.784 4,7 v 8 H 5.5 V 7 C 5.5,5.615 6.615,4.5 8,4.5 c 1.385,0 2.5,1.115 2.5,2.5 v 8 H 12 V 7 C 12,4.784 10.216,3 8,3 Z"
       id="base"
       transform="matrix(4,0,0,4,16,16)"
       style="fill:url(#a)"
       inkscape:connector-curvature="0" />
    <path
       style="opacity:0.3;fill:#000000;stroke-width:4"
       d="m 48,32 c -5.54,0 -10,4.46 -10,10 v 1 c 0,-5.54 4.46,-10 10,-10 5.54,0 10,4.46 10,10 V 42 C 58,36.46 53.54,32 48,32 Z M 32,74 v 1 h 6 v -1 z m 26,0 v 1 h 6 v -1 z"
       transform="translate(0,2)"
       id="path113"
       inkscape:connector-curvature="0" />
    <path
       style="fill:#ffffff;stroke-width:4"
       d="m 48,26 c -8.864,0 -16,7.136 -16,16 v 1 c 0,-8.864 7.136,-16 16,-16 8.864,0 16,7.136 16,16 V 42 C 64,33.136 56.864,26 48,26 Z"
       transform="translate(0,2)"
       id="path118"
       inkscape:connector-curvature="0" />
  </g>
</svg>
