<?xml version="1.0" encoding="UTF-8" standalone="no"?>
<!-- Created with Inkscape (http://www.inkscape.org/) -->

<svg
   xmlns:dc="http://purl.org/dc/elements/1.1/"
   xmlns:cc="http://creativecommons.org/ns#"
   xmlns:rdf="http://www.w3.org/1999/02/22-rdf-syntax-ns#"
   xmlns:svg="http://www.w3.org/2000/svg"
   xmlns="http://www.w3.org/2000/svg"
   xmlns:xlink="http://www.w3.org/1999/xlink"
   xmlns:sodipodi="http://sodipodi.sourceforge.net/DTD/sodipodi-0.dtd"
   xmlns:inkscape="http://www.inkscape.org/namespaces/inkscape"
   width="96"
   height="96"
   id="svg2408"
   sodipodi:version="0.32"
   inkscape:version="0.92.2 5c3e80d, 2017-08-06"
   version="1.0"
   sodipodi:docname="partner.svg"
   inkscape:output_extension="org.inkscape.output.svg.inkscape">
  <defs
     id="defs2410">
    <inkscape:perspective
       sodipodi:type="inkscape:persp3d"
       inkscape:vp_x="0 : 48 : 1"
       inkscape:vp_y="0 : 1000 : 0"
       inkscape:vp_z="96 : 48 : 1"
       inkscape:persp3d-origin="48 : 32 : 1"
       id="perspective48" />
    <linearGradient
       id="ButtonShadow"
       gradientTransform="scale(1.0058652,0.994169)"
       x1="45.447727"
       y1="92.539597"
       x2="45.447727"
       y2="7.0165396"
       gradientUnits="userSpaceOnUse">
      <stop
         style="stop-color:#000000;stop-opacity:1;"
         offset="0"
         id="stop3750" />
      <stop
         style="stop-color:#000000;stop-opacity:0.58823532;"
         offset="1"
         id="stop3752" />
    </linearGradient>
    <linearGradient
       inkscape:collect="always"
       id="linearGradient3737">
      <stop
         style="stop-color:#ffffff;stop-opacity:1;"
         offset="0"
         id="stop3739" />
      <stop
         style="stop-color:#ffffff;stop-opacity:0;"
         offset="1"
         id="stop3741" />
    </linearGradient>
    <linearGradient
       id="linearGradient3700">
      <stop
         style="stop-color:#73004b;stop-opacity:1"
         offset="0"
         id="stop3702" />
      <stop
         style="stop-color:#a20069;stop-opacity:1"
         offset="1"
         id="stop3704" />
    </linearGradient>
    <filter
       inkscape:collect="always"
       id="filter3174">
      <feGaussianBlur
         inkscape:collect="always"
         stdDeviation="1.71"
         id="feGaussianBlur3176" />
    </filter>
    <filter
       inkscape:collect="always"
       id="filter3794"
       x="-0.192"
       width="1.384"
       y="-0.192"
       height="1.384">
      <feGaussianBlur
         inkscape:collect="always"
         stdDeviation="5.28"
         id="feGaussianBlur3796" />
    </filter>
    <linearGradient
       inkscape:collect="always"
       xlink:href="#linearGradient3737"
       id="linearGradient3613"
       x1="48"
       y1="20.220806"
       x2="48"
       y2="138.66119"
       gradientUnits="userSpaceOnUse" />
    <clipPath
       clipPathUnits="userSpaceOnUse"
       id="clipPath3613">
      <rect
         ry="6"
         rx="6"
         y="6"
         x="6"
         height="84"
         width="84"
         id="rect3615"
         style="fill:#ffffff;fill-opacity:1;fill-rule:nonzero;stroke:none" />
    </clipPath>
    <linearGradient
       inkscape:collect="always"
       xlink:href="#linearGradient3700"
       id="linearGradient3617"
       gradientUnits="userSpaceOnUse"
       x1="48"
       y1="90"
       x2="48"
       y2="5.9877172" />
    <linearGradient
       id="ButtonShadow-0"
       gradientTransform="matrix(1.0058652,0,0,0.994169,100,0)"
       x1="45.447727"
       y1="92.539597"
       x2="45.447727"
       y2="7.0165396"
       gradientUnits="userSpaceOnUse">
      <stop
         style="stop-color:#000000;stop-opacity:1;"
         offset="0"
         id="stop3750-8" />
      <stop
         style="stop-color:#000000;stop-opacity:0.58823532;"
         offset="1"
         id="stop3752-5" />
    </linearGradient>
    <linearGradient
       inkscape:collect="always"
       xlink:href="#ButtonShadow-0"
       id="linearGradient3780"
       gradientUnits="userSpaceOnUse"
       gradientTransform="matrix(1.0238095,0,0,1.0119048,-1.1428571,-98.071429)"
       x1="32.251034"
       y1="6.1317081"
       x2="32.251034"
       y2="90.238609" />
    <linearGradient
       inkscape:collect="always"
       xlink:href="#ButtonShadow-0"
       id="linearGradient3772"
       gradientUnits="userSpaceOnUse"
       gradientTransform="matrix(1.0238095,0,0,1.0119048,-1.1428571,-98.071429)"
       x1="32.251034"
       y1="6.1317081"
       x2="32.251034"
       y2="90.238609" />
    <linearGradient
       inkscape:collect="always"
       xlink:href="#ButtonShadow-0"
       id="linearGradient3725"
       gradientUnits="userSpaceOnUse"
       gradientTransform="matrix(1.0238095,0,0,1.0119048,-1.1428571,-98.071429)"
       x1="32.251034"
       y1="6.1317081"
       x2="32.251034"
       y2="90.238609" />
    <linearGradient
       inkscape:collect="always"
       xlink:href="#ButtonShadow-0"
       id="linearGradient3721"
       gradientUnits="userSpaceOnUse"
       gradientTransform="translate(0,-97)"
       x1="32.251034"
       y1="6.1317081"
       x2="32.251034"
       y2="90.238609" />
    <linearGradient
       y2="90.238609"
       x2="32.251034"
       y1="6.1317081"
       x1="32.251034"
       gradientTransform="matrix(1.0238095,0,0,1.0119048,-1.1428571,-98.071429)"
       gradientUnits="userSpaceOnUse"
       id="linearGradient3026"
       xlink:href="#ButtonShadow-0"
       inkscape:collect="always" />
    <inkscape:perspective
       id="perspective13"
       inkscape:persp3d-origin="420.94501 : 198.42668 : 1"
       inkscape:vp_z="841.89001 : 297.64001 : 1"
       inkscape:vp_y="0 : 1000 : 0"
       inkscape:vp_x="0 : 297.64001 : 1"
       sodipodi:type="inkscape:persp3d" />
    <linearGradient
       id="linearGradient4390"
       x1="48"
       x2="48"
       y1="88"
       y2="-40"
       gradientTransform="matrix(1,0,0,-1,0,92)"
       gradientUnits="userSpaceOnUse"
       xlink:href="#linearGradient3737" />
    <linearGradient
       id="linearGradient4429"
       x1="48"
       x2="112.12"
       y1="82"
       y2="82.455002"
       gradientUnits="userSpaceOnUse"
       spreadMethod="reflect"
       xlink:href="#linearGradient3737" />
    <linearGradient
       id="linearGradient3228"
       x1="90"
       x2="48"
       y1="88"
       y2="88"
       gradientUnits="userSpaceOnUse"
       spreadMethod="reflect">
      <stop
         id="stop3894"
         stop-opacity=".58824"
         offset="0" />
      <stop
         id="stop3896"
         stop-opacity=".47059"
         offset=".1178" />
      <stop
         id="stop3898"
         stop-opacity=".39216"
         offset=".2381" />
      <stop
         id="stop3900"
         stop-opacity=".31373"
         offset="1" />
    </linearGradient>
  </defs>
  <sodipodi:namedview
     id="base"
     pagecolor="#ffffff"
     bordercolor="#666666"
     borderopacity="1.0"
     inkscape:pageopacity="0.0"
     inkscape:pageshadow="2"
     inkscape:zoom="3.6201404"
     inkscape:cx="-7.8873897"
     inkscape:cy="29.688054"
     inkscape:document-units="px"
     inkscape:current-layer="layer4"
     showgrid="true"
     showborder="true"
     inkscape:showpageshadow="false"
     inkscape:window-width="1366"
     inkscape:window-height="743"
     inkscape:window-x="0"
     inkscape:window-y="25"
     inkscape:window-maximized="1">
    <inkscape:grid
       type="xygrid"
       id="grid3732"
       visible="true"
       enabled="true" />
  </sodipodi:namedview>
  <metadata
     id="metadata2413">
    <rdf:RDF>
      <cc:Work
         rdf:about="">
        <dc:format>image/svg+xml</dc:format>
        <dc:type
           rdf:resource="http://purl.org/dc/dcmitype/StillImage" />
        <dc:title />
      </cc:Work>
    </rdf:RDF>
  </metadata>
  <g
     inkscape:groupmode="layer"
     id="layer2"
     inkscape:label="Blur Shadow"
     style="display:none"
     sodipodi:insensitive="true">
    <rect
       style="opacity:0.9;fill:url(#ButtonShadow);fill-opacity:1;fill-rule:nonzero;stroke:none;filter:url(#filter3174)"
       id="rect3745"
       width="86"
       height="85"
       x="5"
       y="7"
       rx="6"
       ry="6" />
  </g>
  <g
     inkscape:groupmode="layer"
     id="layer3"
     inkscape:label="Shadow"
     sodipodi:insensitive="true">
    <path
       sodipodi:type="inkscape:offset"
       inkscape:radius="0.99097413"
       inkscape:original="M 12 -94.03125 C 7.028367 -94.03125 2.96875 -89.971633 2.96875 -85 L 2.96875 -14 C 2.96875 -9.0283671 7.0283671 -4.96875 12 -4.96875 L 84 -4.96875 C 88.971633 -4.96875 93.03125 -9.028367 93.03125 -14 L 93.03125 -85 C 93.03125 -89.971633 88.971633 -94.03125 84 -94.03125 L 12 -94.03125 z "
       style="opacity:0.07999998;fill:url(#linearGradient3026);fill-opacity:1;fill-rule:nonzero;stroke:none;display:inline"
       id="path3786"
       d="m 12,-95.03125 c -5.5110903,0 -10.03125,4.52016 -10.03125,10.03125 l 0,71 c 0,5.5110902 4.5201598,10.03125 10.03125,10.03125 l 72,0 c 5.51109,0 10.03125,-4.5201597 10.03125,-10.03125 l 0,-71 c 0,-5.51109 -4.52016,-10.03125 -10.03125,-10.03125 l -72,0 z"
       transform="scale(1,-1)" />
    <path
       sodipodi:type="inkscape:offset"
       inkscape:radius="1.0360184"
       inkscape:original="M 12 -93 C 7.5908667 -93 4 -89.409133 4 -85 L 4 -14 C 4 -9.5908667 7.5908667 -6 12 -6 L 84 -6 C 88.409133 -6 92 -9.5908667 92 -14 L 92 -85 C 92 -89.409133 88.409133 -93 84 -93 L 12 -93 z "
       style="opacity:0.1;fill:url(#linearGradient3780);fill-opacity:1;fill-rule:nonzero;stroke:none;display:inline"
       id="path3778"
       d="m 12,-94.03125 c -4.971633,0 -9.03125,4.059617 -9.03125,9.03125 l 0,71 c 0,4.9716329 4.0596171,9.03125 9.03125,9.03125 l 72,0 c 4.971633,0 9.03125,-4.059617 9.03125,-9.03125 l 0,-71 c 0,-4.971633 -4.059617,-9.03125 -9.03125,-9.03125 l -72,0 z"
       transform="scale(1,-1)" />
    <path
       sodipodi:type="inkscape:offset"
       inkscape:radius="0.98962283"
       inkscape:original="M 12 -92 C 8.122 -92 5 -88.878 5 -85 L 5 -14 C 5 -10.122 8.122 -7 12 -7 L 84 -7 C 87.878 -7 91 -10.122 91 -14 L 91 -85 C 91 -88.878 87.878 -92 84 -92 L 12 -92 z "
       style="opacity:0.2;fill:url(#linearGradient3772);fill-opacity:1;fill-rule:nonzero;stroke:none;display:inline"
       id="path3770"
       d="m 12,-93 c -4.4091333,0 -8,3.590867 -8,8 l 0,71 c 0,4.4091333 3.5908667,8 8,8 l 72,0 c 4.409133,0 8,-3.5908667 8,-8 l 0,-71 c 0,-4.409133 -3.590867,-8 -8,-8 l -72,0 z"
       transform="scale(1,-1)" />
    <rect
       style="opacity:0.3;fill:url(#linearGradient3725);fill-opacity:1;fill-rule:nonzero;stroke:none;display:inline"
       id="rect3723"
       width="86"
       height="85"
       x="5"
       y="-92"
       rx="7"
       ry="7"
       transform="scale(1,-1)" />
    <rect
       transform="scale(1,-1)"
       ry="6"
       rx="6"
       y="-91"
       x="6"
       height="84"
       width="84"
       id="rect3716"
       style="opacity:0.45;fill:url(#linearGradient3721);fill-opacity:1;fill-rule:nonzero;stroke:none;display:inline" />
  </g>
  <g
     inkscape:label="Button"
     inkscape:groupmode="layer"
     id="layer1"
     sodipodi:insensitive="true">
    <rect
       style="fill:url(#linearGradient3617);fill-opacity:1;fill-rule:nonzero;stroke:none"
       id="rect2419"
       width="84"
       height="84"
       x="6"
       y="6"
       rx="6"
       ry="6" />
    <g
       id="g907">
      <path
         id="rect4377"
         d="M 12,86 C 8.676,86 6,83.324 6,80 V 12 C 6,8.676 8.676,6 12,6 h 72 c 3.324,0 6,2.676 6,6 v 68 c 0,3.324 -2.676,6 -6,6 z m 0,-0.96875 h 72 c 2.8049,0 5.0312,-2.2264 5.0312,-5.0312 v -68 c 0,-2.8049 -2.226,-5.0312 -5.031,-5.0312 h -72 c -2.8049,0 -5.0312,2.2263 -5.0312,5.0312 v 68 c 0,2.8049 2.2264,5.0312 5.0312,5.0312 z"
         style="opacity:0.3;fill:url(#linearGradient4390)"
         inkscape:connector-curvature="0" />
      <path
         id="rect4414"
         d="m 6,78 v 2 c 0,3.324 2.676,6 6,6 h 72 c 3.324,0 6,-2.676 6,-6 v -2 c 0,3.324 -2.676,6 -6,6 H 12 C 8.676,84 6,81.324 6,78 Z"
         style="opacity:0.1;fill:url(#linearGradient4429)"
         inkscape:connector-curvature="0" />
      <g
         id="layer4-3">
        <path
           style="fill:url(#linearGradient3228)"
           inkscape:connector-curvature="0"
           d="m 6,80 v 4 c 0,3.324 2.676,6 6,6 h 72 c 3.324,0 6,-2.676 6,-6 v -4 c 0,3.324 -2.676,6 -6,6 H 12 C 8.676,86 6,83.324 6,80 Z"
           id="path3888" />
        <path
           style="color:#000000;opacity:0.1"
           inkscape:connector-curvature="0"
           d="m 6,82 v 2 c 0,3.324 2.676,6 6,6 h 72 c 3.324,0 6,-2.676 6,-6 v -2 c 0,3.324 -2.676,6 -6,6 H 12 C 8.676,88 6,85.324 6,82 Z"
           id="rect4345" />
        <path
           style="color:#000000;opacity:0.15"
           inkscape:connector-curvature="0"
           d="m 6,83 v 1 c 0,3.324 2.676,6 6,6 h 72 c 3.324,0 6,-2.676 6,-6 v -1 c 0,3.324 -2.676,6 -6,6 H 12 C 8.676,89 6,86.324 6,83 Z"
           id="rect4336" />
      </g>
    </g>
  </g>
  <g
     inkscape:groupmode="layer"
     id="layer5"
     inkscape:label="Highlight"
     sodipodi:insensitive="true">
    <rect
       style="opacity:0.1;fill:url(#linearGradient3613);fill-opacity:1;fill-rule:nonzero;stroke:#ffffff;stroke-width:0.5;stroke-linecap:round;stroke-linejoin:miter;stroke-miterlimit:4;stroke-opacity:1;stroke-dasharray:none;stroke-dashoffset:0;filter:url(#filter3794)"
       id="rect3171"
       width="66"
       height="66"
       x="15"
       y="15"
       rx="12"
       ry="12"
       clip-path="url(#clipPath3613)" />
  </g>
  <g
     inkscape:groupmode="layer"
     id="layer4"
     inkscape:label="Symbol">
    <g
       id="g906"
       transform="translate(0,-1.999578)">
      <path
         d="M 48,13.982422 C 28.705935,13.982422 12.982422,29.705935 12.982422,49 12.982422,68.294065 28.705935,84.017578 48,84.017578 67.294065,84.017578 83.017578,68.294065 83.017578,49 83.017578,29.705935 67.294065,13.982422 48,13.982422 Z m -8.902344,16.060547 c -4.410278,2.087351 -7.967336,5.644409 -10.054687,10.054687 2.072265,-4.430338 5.624349,-7.982422 10.054687,-10.054687 z m 17.804688,0 c 4.430338,2.072265 7.982422,5.624349 10.054687,10.054687 C 64.86968,35.687378 61.312622,32.13032 56.902344,30.042969 Z M 29.042969,57.902344 c 2.087351,4.410278 5.644409,7.967336 10.054687,10.054687 -4.430338,-2.072265 -7.982422,-5.624349 -10.054687,-10.054687 z m 37.914062,0 c -2.072265,4.430338 -5.624349,7.982422 -10.054687,10.054687 4.410278,-2.087351 7.967336,-5.644409 10.054687,-10.054687 z"
         id="path3682"
         style="color:#000000;display:inline;overflow:visible;visibility:visible;opacity:0.05;fill:#000000;fill-opacity:1;fill-rule:nonzero;stroke:none;stroke-width:1;marker:none;enable-background:accumulate"
         inkscape:original="M 48 14.875 C 29.190218 14.875 13.875 30.190218 13.875 49 C 13.875 67.809782 29.190218 83.125 48 83.125 C 66.809782 83.125 82.125 67.809782 82.125 49 C 82.125 30.190218 66.809782 14.875 48 14.875 z M 48 27.125 C 60.121146 27.125 69.875 36.878854 69.875 49 C 69.875 61.121146 60.121146 70.875 48 70.875 C 35.878854 70.875 26.125 61.121146 26.125 49 C 26.125 36.878854 35.878854 27.125 48 27.125 z M 48 28.875 C 36.921291 28.875 27.875 37.921291 27.875 49 C 27.875 60.078709 36.921291 69.125 48 69.125 C 59.078709 69.125 68.125 60.078709 68.125 49 C 68.125 37.921291 59.078709 28.875 48 28.875 z "
         inkscape:radius="0.892178"
         sodipodi:type="inkscape:offset" />
      <path
         d="M 48,14.890625 C 29.190218,14.890625 13.890625,30.190218 13.890625,49 13.890625,67.809782 29.190218,83.109375 48,83.109375 66.809782,83.109375 82.109375,67.809782 82.109375,49 82.109375,30.190218 66.809782,14.890625 48,14.890625 Z m 0,12.21875 C 60.121146,27.109375 69.890625,36.878854 69.890625,49 69.890625,61.121146 60.121146,70.890625 48,70.890625 35.878854,70.890625 26.109375,61.121146 26.109375,49 26.109375,36.878854 35.878854,27.109375 48,27.109375 Z m 0,1.78125 C 36.921291,28.890625 27.890625,37.921291 27.890625,49 27.890625,60.078709 36.921291,69.109375 48,69.109375 59.078709,69.109375 68.109375,60.078709 68.109375,49 68.109375,37.921291 59.078709,28.890625 48,28.890625 Z"
         id="path3678"
         style="color:#000000;display:inline;overflow:visible;visibility:visible;opacity:0.1;fill:#000000;fill-opacity:1;fill-rule:nonzero;stroke:none;stroke-width:1;marker:none;enable-background:accumulate"
         inkscape:original="M 48 16.09375 C 29.841772 16.09375 15.09375 30.841772 15.09375 49 C 15.09375 67.158228 29.841772 81.90625 48 81.90625 C 66.158228 81.90625 80.90625 67.158228 80.90625 49 C 80.90625 30.841772 66.158228 16.09375 48 16.09375 z M 48 25.90625 C 60.769718 25.90625 71.09375 36.230282 71.09375 49 C 71.09375 61.769718 60.769718 72.09375 48 72.09375 C 35.230282 72.09375 24.90625 61.769718 24.90625 49 C 24.90625 36.230282 35.230282 25.90625 48 25.90625 z M 48 30.09375 C 37.573758 30.09375 29.09375 38.573758 29.09375 49 C 29.09375 59.426242 37.573758 67.90625 48 67.90625 C 58.426242 67.90625 66.90625 59.426242 66.90625 49 C 66.90625 38.573758 58.426242 30.09375 48 30.09375 z "
         inkscape:radius="1.2033206"
         sodipodi:type="inkscape:offset" />
      <path
         d="M 48,16.101562 C 29.841772,16.101562 15.101562,30.841772 15.101562,49 15.101562,67.158228 29.841772,81.898438 48,81.898438 66.158228,81.898438 80.898438,67.158228 80.898438,49 80.898438,30.841772 66.158228,16.101563 48,16.101562 Z m 0,9.796876 C 60.769718,25.898438 71.101562,36.230282 71.101562,49 71.101562,61.769718 60.769718,72.101562 48,72.101562 35.230282,72.101562 24.898438,61.769718 24.898438,49 24.898438,36.230282 35.230282,25.898438 48,25.898438 Z m 0,4.203124 C 37.573758,30.101562 29.101562,38.573758 29.101562,49 29.101562,59.426242 37.573758,67.898438 48,67.898438 58.426242,67.898438 66.898438,59.426242 66.898438,49 66.898438,38.573758 58.426242,30.101562 48,30.101562 Z"
         id="path3674"
         style="color:#000000;display:inline;overflow:visible;visibility:visible;opacity:0.15;fill:#000000;fill-opacity:1;fill-rule:nonzero;stroke:none;stroke-width:1;marker:none;enable-background:accumulate"
         inkscape:original="M 48 17 C 30.326888 17 16 31.326888 16 49 C 16 66.673112 30.326888 81 48 81 C 65.673112 81 80 66.673112 80 49 C 80 31.326888 65.673112 17 48 17 z M 48 25 C 61.254834 25 72 35.745166 72 49 C 72 62.254834 61.254834 73 48 73 C 34.745166 73 24 62.254834 24 49 C 24 35.745166 34.745166 25 48 25 z M 48 31 C 38.058874 31 30 39.058874 30 49 C 30 58.941126 38.058874 67 48 67 C 57.941126 67 66 58.941126 66 49 C 66 39.058874 57.941126 31 48 31 z "
         inkscape:radius="0.89763153"
         sodipodi:type="inkscape:offset" />
      <path
         id="path3667"
         d="M 48,17 C 30.326888,17 16,31.326888 16,49 16,66.673112 30.326888,81 48,81 65.673112,81 80,66.673112 80,49 80,31.326888 65.673112,17 48,17 Z m 0,8 C 61.254834,25 72,35.745166 72,49 72,62.254834 61.254834,73 48,73 34.745166,73 24,62.254834 24,49 24,35.745166 34.745166,25 48,25 Z m 0,6 c -9.941126,0 -18,8.058874 -18,18 0,9.941126 8.058874,18 18,18 9.941126,0 18,-8.058874 18,-18 0,-9.941126 -8.058874,-18 -18,-18 z"
         style="color:#000000;display:inline;overflow:visible;visibility:visible;opacity:0.3;fill:#000000;fill-opacity:1;fill-rule:nonzero;stroke:none;stroke-width:1;marker:none;enable-background:accumulate"
         inkscape:connector-curvature="0" />
      <circle
         transform="matrix(0.75000001,0,0,0.75000001,12,12)"
         id="path3659"
         style="color:#000000;display:inline;overflow:visible;visibility:visible;fill:#ffffff;fill-opacity:1;fill-rule:nonzero;stroke:none;stroke-width:1;marker:none;enable-background:accumulate"
         cx="48"
         cy="48"
         r="24" />
      <path
         id="path3661"
         d="M 48,16 C 30.326888,16 16,30.326888 16,48 16,65.673112 30.326888,80 48,80 65.673112,80 80,65.673112 80,48 80,30.326888 65.673112,16 48,16 Z m 0,8 C 61.254834,24 72,34.745166 72,48 72,61.254834 61.254834,72 48,72 34.745166,72 24,61.254834 24,48 24,34.745166 34.745166,24 48,24 Z"
         style="color:#000000;display:inline;overflow:visible;visibility:visible;fill:#ffffff;fill-opacity:1;fill-rule:nonzero;stroke:none;stroke-width:1;marker:none;enable-background:accumulate"
         inkscape:connector-curvature="0" />
    </g>
  </g>
</svg>
