<?xml version="1.0" encoding="UTF-8" standalone="no"?>
<svg
   xmlns:dc="http://purl.org/dc/elements/1.1/"
   xmlns:cc="http://creativecommons.org/ns#"
   xmlns:rdf="http://www.w3.org/1999/02/22-rdf-syntax-ns#"
   xmlns:svg="http://www.w3.org/2000/svg"
   xmlns="http://www.w3.org/2000/svg"
   xmlns:xlink="http://www.w3.org/1999/xlink"
   xmlns:sodipodi="http://sodipodi.sourceforge.net/DTD/sodipodi-0.dtd"
   xmlns:inkscape="http://www.inkscape.org/namespaces/inkscape"
   width="96"
   height="96"
   version="1.0"
   id="svg125"
   sodipodi:docname="patchage.svg"
   inkscape:version="0.92.2 5c3e80d, 2017-08-06">
  <metadata
     id="metadata129">
    <rdf:RDF>
      <cc:Work
         rdf:about="">
        <dc:format>image/svg+xml</dc:format>
        <dc:type
           rdf:resource="http://purl.org/dc/dcmitype/StillImage" />
      </cc:Work>
    </rdf:RDF>
  </metadata>
  <sodipodi:namedview
     pagecolor="#ffffff"
     bordercolor="#666666"
     borderopacity="1"
     objecttolerance="10"
     gridtolerance="10"
     guidetolerance="10"
     inkscape:pageopacity="0"
     inkscape:pageshadow="2"
     inkscape:window-width="640"
     inkscape:window-height="480"
     id="namedview127"
     showgrid="false"
     inkscape:zoom="2.4583333"
     inkscape:cx="48"
     inkscape:cy="48"
     inkscape:window-x="0"
     inkscape:window-y="25"
     inkscape:window-maximized="0"
     inkscape:current-layer="svg125" />
  <defs
     id="defs49">
    <linearGradient
       id="linearGradient4384">
      <stop
         stop-color="#fff"
         offset="0"
         id="stop2" />
      <stop
         stop-color="#fff"
         stop-opacity="0"
         offset="1"
         id="stop4" />
    </linearGradient>
    <linearGradient
       id="ButtonShadow"
       x1="45.448"
       x2="45.448"
       y1="92.54"
       y2="7.0165"
       gradientTransform="scale(1.0059 .99417)"
       gradientUnits="userSpaceOnUse">
      <stop
         offset="0"
         id="stop7" />
      <stop
         stop-opacity=".58824"
         offset="1"
         id="stop9" />
    </linearGradient>
    <filter
       id="filter3174">
      <feGaussianBlur
         stdDeviation="1.71"
         id="feGaussianBlur12" />
    </filter>
    <filter
       id="filter3794"
       x="-.192"
       y="-.192"
       width="1.384"
       height="1.384">
      <feGaussianBlur
         stdDeviation="5.28"
         id="feGaussianBlur15" />
    </filter>
    <linearGradient
       id="linearGradient3613"
       x1="48"
       x2="48"
       y1="20.221"
       y2="138.66"
       gradientUnits="userSpaceOnUse">
      <stop
         stop-color="#fff"
         offset="0"
         id="stop18" />
      <stop
         stop-color="#fff"
         stop-opacity="0"
         offset="1"
         id="stop20" />
    </linearGradient>
    <linearGradient
       id="linearGradient3617"
       x1="48"
       x2="48"
       y1="90"
       y2="5.9877"
       gradientUnits="userSpaceOnUse">
      <stop
         stop-color="#73d216"
         offset="0"
         id="stop23" />
      <stop
         stop-color="#97ea45"
         offset="1"
         id="stop25" />
    </linearGradient>
    <linearGradient
       id="ButtonShadow-0"
       x1="45.448"
       x2="45.448"
       y1="92.54"
       y2="7.0165"
       gradientTransform="matrix(1.0059 0 0 .99417 100 0)"
       gradientUnits="userSpaceOnUse">
      <stop
         offset="0"
         id="stop28" />
      <stop
         stop-opacity=".58824"
         offset="1"
         id="stop30" />
    </linearGradient>
    <linearGradient
       id="linearGradient3780"
       x1="32.251"
       x2="32.251"
       y1="6.1317"
       y2="90.239"
       gradientTransform="matrix(1.0238 0 0 1.0119 -1.1429 -98.071)"
       gradientUnits="userSpaceOnUse"
       xlink:href="#ButtonShadow-0" />
    <linearGradient
       id="linearGradient3721"
       x1="32.251"
       x2="32.251"
       y1="6.1317"
       y2="90.239"
       gradientTransform="translate(0,-97)"
       gradientUnits="userSpaceOnUse"
       xlink:href="#ButtonShadow-0" />
    <clipPath
       id="clipPath4355">
      <rect
         x="6"
         y="6"
         width="84"
         height="80"
         rx="6"
         ry="6"
         fill="#fff"
         id="rect35" />
    </clipPath>
    <linearGradient
       id="linearGradient4390"
       x1="48"
       x2="48"
       y1="88"
       y2="-40"
       gradientTransform="matrix(1,0,0,-1,0,92)"
       gradientUnits="userSpaceOnUse"
       xlink:href="#linearGradient4384" />
    <linearGradient
       id="linearGradient4429"
       x1="48"
       x2="112.12"
       y1="82"
       y2="82.455"
       gradientUnits="userSpaceOnUse"
       spreadMethod="reflect"
       xlink:href="#linearGradient4384" />
    <linearGradient
       id="linearGradient3870"
       x1="8"
       x2="50"
       y1="1033.4"
       y2="1033.4"
       gradientTransform="translate(-2 -956.36)"
       gradientUnits="userSpaceOnUse"
       spreadMethod="reflect">
      <stop
         stop-color="#523823"
         offset="0"
         id="stop40" />
      <stop
         stop-color="#79563a"
         offset=".1178"
         id="stop42" />
      <stop
         stop-color="#875c38"
         offset=".2381"
         id="stop44" />
      <stop
         stop-color="#a66e40"
         offset="1"
         id="stop46" />
    </linearGradient>
  </defs>
  <g
     display="none"
     id="g53">
    <rect
       x="5"
       y="7"
       width="86"
       height="85"
       rx="6"
       ry="6"
       fill="url(#ButtonShadow)"
       filter="url(#filter3174)"
       opacity=".9"
       id="rect51" />
  </g>
  <g
     id="g67">
    <g
       fill="url(#linearGradient3780)"
       id="g63">
      <path
         transform="scale(1,-1)"
         d="m12-95.031c-5.5111 0-10.031 4.5202-10.031 10.031v71c0 5.5111 4.5202 10.031 10.031 10.031h72c5.5111 0 10.031-4.5202 10.031-10.031v-71c0-5.5111-4.5202-10.031-10.031-10.031h-72z"
         opacity=".08"
         id="path55" />
      <path
         transform="scale(1,-1)"
         d="m12-94.031c-4.9716 0-9.0312 4.0596-9.0312 9.0312v71c0 4.9716 4.0596 9.0312 9.0312 9.0312h72c4.9716 0 9.0312-4.0596 9.0312-9.0312v-71c0-4.9716-4.0596-9.0312-9.0312-9.0312h-72z"
         opacity=".1"
         id="path57" />
      <path
         transform="scale(1,-1)"
         d="m12-93c-4.4091 0-8 3.5909-8 8v71c0 4.4091 3.5909 8 8 8h72c4.4091 0 8-3.5909 8-8v-71c0-4.4091-3.5909-8-8-8h-72z"
         opacity=".2"
         id="path59" />
      <rect
         transform="scale(1,-1)"
         x="5"
         y="-92"
         width="86"
         height="85"
         rx="7"
         ry="7"
         opacity=".3"
         id="rect61" />
    </g>
    <rect
       transform="scale(1,-1)"
       x="6"
       y="-91"
       width="84"
       height="84"
       rx="6"
       ry="6"
       fill="url(#linearGradient3721)"
       opacity=".45"
       id="rect65" />
  </g>
  <g
     id="g79">
    <rect
       x="6"
       y="64"
       width="84"
       height="26"
       rx="6"
       ry="6"
       color="#000000"
       fill="url(#linearGradient3870)"
       id="rect69" />
    <g
       id="g77">
      <path
         d="m6 82v2c0 3.324 2.676 6 6 6h72c3.324 0 6-2.676 6-6v-2c0 3.324-2.676 6-6 6h-72c-3.324 0-6-2.676-6-6z"
         color="#000000"
         opacity=".1"
         id="path71" />
      <path
         d="m6 83v1c0 3.324 2.676 6 6 6h72c3.324 0 6-2.676 6-6v-1c0 3.324-2.676 6-6 6h-72c-3.324 0-6-2.676-6-6z"
         color="#000000"
         opacity=".1"
         id="path73" />
      <path
         d="m6 80v1c0 3.324 2.676 6 6 6h72c3.324 0 6-2.676 6-6v-1c0 3.324-2.676 6-6 6h-72c-3.324 0-6-2.676-6-6z"
         opacity=".2"
         id="path75" />
    </g>
  </g>
  <g
     id="g87">
    <rect
       x="6"
       y="6"
       width="84"
       height="80"
       rx="6"
       ry="6"
       fill="url(#linearGradient3617)"
       id="rect81" />
    <path
       d="m12 86c-3.324 0-6-2.676-6-6v-68c0-3.324 2.676-6 6-6h72c3.324 0 6 2.676 6 6v68c0 3.324-2.676 6-6 6zm0-0.96875h72c2.8049 0 5.0312-2.2264 5.0312-5.0312v-68c0-2.8049-2.2264-5.0312-5.0312-5.0312h-72c-2.8049 0-5.0312 2.2264-5.0312 5.0312v68c0 2.8049 2.2264 5.0312 5.0312 5.0312z"
       fill="url(#linearGradient4390)"
       opacity=".3"
       id="path83" />
    <path
       d="m6 78v2c0 3.324 2.676 6 6 6h72c3.324 0 6-2.676 6-6v-2c0 3.324-2.676 6-6 6h-72c-3.324 0-6-2.676-6-6z"
       fill="url(#linearGradient4429)"
       opacity=".1"
       id="path85" />
  </g>
  <g
     id="g91">
    <rect
       x="15"
       y="15"
       width="66"
       height="62"
       rx="12"
       ry="12"
       clip-path="url(#clipPath4355)"
       fill="url(#linearGradient3613)"
       filter="url(#filter3794)"
       opacity=".1"
       stroke="#fff"
       stroke-linecap="round"
       stroke-width=".5"
       id="rect89" />
  </g>
  <defs
     id="defs101">
    <filter
       id="w">
      <feGaussianBlur
         stdDeviation="0.23199685"
         id="feGaussianBlur93" />
    </filter>
    <linearGradient
       id="a"
       gradientUnits="userSpaceOnUse"
       x1="8"
       y1="1"
       x2="8"
       y2="15">
      <stop
         stop-color="#fafafa"
         offset="0"
         id="stop96" />
      <stop
         stop-color="#ebebeb"
         offset="1"
         id="stop98" />
    </linearGradient>
  </defs>
  <g
     transform="translate(0,-2)"
     id="g123">
    <path
       style="opacity:0.15;fill:#000000"
       d="M 11,0.75 C 8.6498243,0.75 6.75,2.6498243 6.75,5 A 0.250025,0.250025 0 0 0 7,5.25 H 8 A 0.250025,0.250025 0 0 0 8.25,5 c 0,-1.5278243 1.2221757,-2.75 2.75,-2.75 1.527824,0 2.75,1.2221757 2.75,2.75 0,1.5278243 -1.222176,2.75 -2.75,2.75 H 8.3769531 5.25 V 7.25 H 7.5585938 8.78125 11 C 12.242176,7.25 13.25,6.2421757 13.25,5 13.25,3.7578243 12.242176,2.75 11,2.75 9.7578243,2.75 8.75,3.7578243 8.75,5 A 0.250025,0.250025 0 0 0 9,5.25 h 1 A 0.250025,0.250025 0 0 0 10.25,5 c 0,-0.4198243 0.330176,-0.75 0.75,-0.75 0.419824,0 0.75,0.3301757 0.75,0.75 0,0.4198243 -0.330176,0.75 -0.75,0.75 H 9.2753906 8.1816406 7.1386719 5.1992188 C 5.0795972,5.1848904 4.5996958,4.75 4,4.75 H 3 A 0.250025,0.250025 0 0 0 2.75,5 V 5.75 H 2 A 0.250025,0.250025 0 0 0 1.7832031,5.875 C 1.6881463,5.8286555 1.6067563,5.75 1.5,5.75 1.1073009,5.75 0.75,6.1073009 0.75,6.5 c 0,0.3926991 0.3573009,0.75 0.75,0.75 0.1073732,0 0.1896559,-0.078156 0.2851562,-0.125 A 0.250025,0.250025 0 0 0 2,7.25 h 0.75 v 0.5 H 2 A 0.250025,0.250025 0 0 0 1.7832031,7.875 C 1.6881463,7.8286555 1.6067563,7.75 1.5,7.75 1.1073009,7.75 0.75,8.1073009 0.75,8.5 c 0,0.3926991 0.3573009,0.75 0.75,0.75 0.1073732,0 0.1896559,-0.078156 0.2851562,-0.125 A 0.250025,0.250025 0 0 0 2,9.25 H 2.75 V 10 A 0.250025,0.250025 0 0 0 3,10.25 h 1 c 0.5996958,0 1.0795972,-0.4348904 1.1992188,-1 H 11 C 13.350176,9.25 15.25,7.3501757 15.25,5 15.25,2.6498243 13.350176,0.75 11,0.75 Z m -4,9 A 0.250025,0.250025 0 0 0 6.75,10 v 0.800781 C 6.1848904,10.920403 5.75,11.400304 5.75,12 v 1 A 0.250025,0.250025 0 0 0 6,13.25 H 6.75 V 14 a 0.250025,0.250025 0 0 0 0.125,0.216797 C 6.8286555,14.311854 6.75,14.393244 6.75,14.5 c 0,0.392699 0.3573009,0.75 0.75,0.75 0.3926991,0 0.75,-0.357301 0.75,-0.75 0,-0.107373 -0.078156,-0.189656 -0.125,-0.285156 A 0.250025,0.250025 0 0 0 8.25,14 v -0.75 h 0.5 V 14 a 0.250025,0.250025 0 0 0 0.125,0.216797 C 8.8286555,14.311854 8.75,14.393244 8.75,14.5 c 0,0.392699 0.3573009,0.75 0.75,0.75 0.3926991,0 0.75,-0.357301 0.75,-0.75 0,-0.107373 -0.07816,-0.189656 -0.125,-0.285156 A 0.250025,0.250025 0 0 0 10.25,14 V 13.25 H 11 A 0.250025,0.250025 0 0 0 11.25,13 v -1 c 0,-0.599696 -0.43489,-1.079597 -1,-1.199219 V 10 A 0.250025,0.250025 0 0 0 10,9.75 H 9 A 0.250025,0.250025 0 0 0 8.75,10 v 0.75 H 8.25 V 10 A 0.250025,0.250025 0 0 0 8,9.75 Z"
       id="path103"
       inkscape:original="m11 1c-2.216 0-4 1.784-4 4h1c0-1.662 1.338-3 3-3s3 1.338 3 3-1.338 3-3 3h-2.623-3.377v-1h2.5586 1.2227 2.2188c1.108 0 2-0.892 2-2s-0.892-2-2-2-2 0.892-2 2h1c0-0.554 0.446-1 1-1s1 0.446 1 1-0.446 1-1 1h-1.7246-1.0938-1.043-2.1387c0-0.554-0.446-1-1-1h-1v1h-1v0.5 0.5h1v1h-1v0.5 0.5h1v1h1c0.554 0 1-0.446 1-1h6c2.216 0 4-1.784 4-4s-1.784-4-4-4zm-9 7.5a0.5 0.5 0 0 0-0.5-0.5 0.5 0.5 0 0 0-0.5 0.5 0.5 0.5 0 0 0 0.5 0.5 0.5 0.5 0 0 0 0.5-0.5zm0-2a0.5 0.5 0 0 0-0.5-0.5 0.5 0.5 0 0 0-0.5 0.5 0.5 0.5 0 0 0 0.5 0.5 0.5 0.5 0 0 0 0.5-0.5zm5 3.5v1c-0.554 0-1 0.446-1 1v1h1v1h0.5 0.5v-1h1v1h0.5 0.5v-1h1v-1c0-0.554-0.446-1-1-1v-1h-1v1h-1v-1h-1zm2.5 4a0.5 0.5 0 0 0-0.5 0.5 0.5 0.5 0 0 0 0.5 0.5 0.5 0.5 0 0 0 0.5-0.5 0.5 0.5 0 0 0-0.5-0.5zm-2 0a0.5 0.5 0 0 0-0.5 0.5 0.5 0.5 0 0 0 0.5 0.5 0.5 0.5 0 0 0 0.5-0.5 0.5 0.5 0 0 0-0.5-0.5z"
       transform="matrix(4,0,0,4,16,17)"
       inkscape:radius="0.25"
       sodipodi:type="inkscape:offset" />
    <g
       id="Bevel1">
      <path
         fill="#000"
         opacity=".10"
         sodipodi:type="inkscape:offset"
         inkscape:radius="0.5"
         transform="translate(16,17) scale(4)"
         inkscape:original="m11 1c-2.216 0-4 1.784-4 4h1c0-1.662 1.338-3 3-3s3 1.338 3 3-1.338 3-3 3h-2.623-3.377v-1h2.5586 1.2227 2.2188c1.108 0 2-0.892 2-2s-0.892-2-2-2-2 0.892-2 2h1c0-0.554 0.446-1 1-1s1 0.446 1 1-0.446 1-1 1h-1.7246-1.0938-1.043-2.1387c0-0.554-0.446-1-1-1h-1v1h-1v0.5 0.5h1v1h-1v0.5 0.5h1v1h1c0.554 0 1-0.446 1-1h6c2.216 0 4-1.784 4-4s-1.784-4-4-4zm-9 7.5a0.5 0.5 0 0 0-0.5-0.5 0.5 0.5 0 0 0-0.5 0.5 0.5 0.5 0 0 0 0.5 0.5 0.5 0.5 0 0 0 0.5-0.5zm0-2a0.5 0.5 0 0 0-0.5-0.5 0.5 0.5 0 0 0-0.5 0.5 0.5 0.5 0 0 0 0.5 0.5 0.5 0.5 0 0 0 0.5-0.5zm5 3.5v1c-0.554 0-1 0.446-1 1v1h1v1h0.5 0.5v-1h1v1h0.5 0.5v-1h1v-1c0-0.554-0.446-1-1-1v-1h-1v1h-1v-1h-1zm2.5 4a0.5 0.5 0 0 0-0.5 0.5 0.5 0.5 0 0 0 0.5 0.5 0.5 0.5 0 0 0 0.5-0.5 0.5 0.5 0 0 0-0.5-0.5zm-2 0a0.5 0.5 0 0 0-0.5 0.5 0.5 0.5 0 0 0 0.5 0.5 0.5 0.5 0 0 0 0.5-0.5 0.5 0.5 0 0 0-0.5-0.5z"
         id="path106" />
    </g>
    <g
       id="Bevel2">
      <path
         fill="#000"
         opacity=".05"
         sodipodi:type="inkscape:offset"
         inkscape:radius="0.75"
         transform="translate(16,17) scale(4)"
         inkscape:original="m11 1c-2.216 0-4 1.784-4 4h1c0-1.662 1.338-3 3-3s3 1.338 3 3-1.338 3-3 3h-2.623-3.377v-1h2.5586 1.2227 2.2188c1.108 0 2-0.892 2-2s-0.892-2-2-2-2 0.892-2 2h1c0-0.554 0.446-1 1-1s1 0.446 1 1-0.446 1-1 1h-1.7246-1.0938-1.043-2.1387c0-0.554-0.446-1-1-1h-1v1h-1v0.5 0.5h1v1h-1v0.5 0.5h1v1h1c0.554 0 1-0.446 1-1h6c2.216 0 4-1.784 4-4s-1.784-4-4-4zm-9 7.5a0.5 0.5 0 0 0-0.5-0.5 0.5 0.5 0 0 0-0.5 0.5 0.5 0.5 0 0 0 0.5 0.5 0.5 0.5 0 0 0 0.5-0.5zm0-2a0.5 0.5 0 0 0-0.5-0.5 0.5 0.5 0 0 0-0.5 0.5 0.5 0.5 0 0 0 0.5 0.5 0.5 0.5 0 0 0 0.5-0.5zm5 3.5v1c-0.554 0-1 0.446-1 1v1h1v1h0.5 0.5v-1h1v1h0.5 0.5v-1h1v-1c0-0.554-0.446-1-1-1v-1h-1v1h-1v-1h-1zm2.5 4a0.5 0.5 0 0 0-0.5 0.5 0.5 0.5 0 0 0 0.5 0.5 0.5 0.5 0 0 0 0.5-0.5 0.5 0.5 0 0 0-0.5-0.5zm-2 0a0.5 0.5 0 0 0-0.5 0.5 0.5 0.5 0 0 0 0.5 0.5 0.5 0.5 0 0 0 0.5-0.5 0.5 0.5 0 0 0-0.5-0.5z"
         id="path109" />
    </g>
    <path
       d="m11 1c-2.216 0-4 1.784-4 4h1c0-1.662 1.338-3 3-3s3 1.338 3 3-1.338 3-3 3h-2.623-3.377v-1h2.5586 1.2227 2.2188c1.108 0 2-0.892 2-2s-0.892-2-2-2-2 0.892-2 2h1c0-0.554 0.446-1 1-1s1 0.446 1 1-0.446 1-1 1h-1.7246-1.0938-1.043-2.1387c0-0.554-0.446-1-1-1h-1v1h-1v0.5 0.5h1v1h-1v0.5 0.5h1v1h1c0.554 0 1-0.446 1-1h6c2.216 0 4-1.784 4-4s-1.784-4-4-4zm-9 7.5a0.5 0.5 0 0 0-0.5-0.5 0.5 0.5 0 0 0-0.5 0.5 0.5 0.5 0 0 0 0.5 0.5 0.5 0.5 0 0 0 0.5-0.5zm0-2a0.5 0.5 0 0 0-0.5-0.5 0.5 0.5 0 0 0-0.5 0.5 0.5 0.5 0 0 0 0.5 0.5 0.5 0.5 0 0 0 0.5-0.5zm5 3.5v1c-0.554 0-1 0.446-1 1v1h1v1h0.5 0.5v-1h1v1h0.5 0.5v-1h1v-1c0-0.554-0.446-1-1-1v-1h-1v1h-1v-1h-1zm2.5 4a0.5 0.5 0 0 0-0.5 0.5 0.5 0.5 0 0 0 0.5 0.5 0.5 0.5 0 0 0 0.5-0.5 0.5 0.5 0 0 0-0.5-0.5zm-2 0a0.5 0.5 0 0 0-0.5 0.5 0.5 0.5 0 0 0 0.5 0.5 0.5 0.5 0 0 0 0.5-0.5 0.5 0.5 0 0 0-0.5-0.5z"
       fill="url(#a)"
       id="base"
       transform="translate(16,16) scale(4)" />
    <path
       style="opacity:0.3;fill:#000000;stroke-width:4"
       d="M 60 22 C 53.352 22 48 27.352 48 34 L 44.050781 34 C 44.030366 34.332374 44 34.662311 44 35 L 48 35 C 48 28.352 53.352 23 60 23 C 66.479162 23 71.712216 28.087544 71.974609 34.5 C 71.981447 34.3329 72 34.168838 72 34 C 72 27.352 66.648 22 60 22 z M 60 30 C 57.784 30 56 31.784 56 34 L 52.068359 34 C 52.027711 34.32811 52 34.660537 52 35 L 56 35 C 56 32.784 57.784 31 60 31 C 62.044738 31 63.704184 32.524326 63.951172 34.5 C 63.971859 34.334523 64 34.171262 64 34 C 64 31.784 62.216 30 60 30 z M 67.974609 34.5 C 67.716883 38.696057 64.263155 42 60 42 L 51.125 42 L 46.234375 42 L 36 42 L 36 43 L 46.234375 43 L 51.125 43 L 60 43 C 64.432 43 68 39.432 68 35 C 68 34.831155 67.984817 34.666187 67.974609 34.5 z M 75.974609 34.5 C 75.709854 43.128653 68.695155 50 60 50 L 36 50 C 36 52.216 34.216 54 32 54 L 28 54 L 28 55 L 32 55 C 34.216 55 36 53.216 36 51 L 60 51 C 68.864 51 76 43.864 76 35 C 76 34.831155 75.97975 34.667553 75.974609 34.5 z M 20.064453 40.496094 A 2 2 0 0 0 20 41 A 2 2 0 0 0 22 43 A 2 2 0 0 0 24 41 A 2 2 0 0 0 23.935547 40.503906 A 2 2 0 0 1 22 42 A 2 2 0 0 1 20.064453 40.496094 z M 24 42 L 24 43 L 28 43 L 28 42 L 24 42 z M 20.064453 48.496094 A 2 2 0 0 0 20 49 A 2 2 0 0 0 22 51 A 2 2 0 0 0 24 49 A 2 2 0 0 0 23.935547 48.503906 A 2 2 0 0 1 22 50 A 2 2 0 0 1 20.064453 48.496094 z M 24 50 L 24 51 L 28 51 L 28 50 L 24 50 z M 40 66 L 40 67 L 44 67 L 44 66 L 40 66 z M 48 66 L 48 67 L 52 67 L 52 66 L 48 66 z M 56 66 L 56 67 L 60 67 L 60 66 L 56 66 z M 44 70 L 44 71 L 44.271484 71 A 2 2 0 0 1 46 70 L 44 70 z M 46 70 A 2 2 0 0 1 47.730469 71 L 48 71 L 48 70 L 46 70 z M 52 70 L 52 71 L 52.271484 71 A 2 2 0 0 1 54 70 L 52 70 z M 54 70 A 2 2 0 0 1 55.730469 71 L 56 71 L 56 70 L 54 70 z M 44.064453 72.496094 A 2 2 0 0 0 44 73 A 2 2 0 0 0 46 75 A 2 2 0 0 0 48 73 A 2 2 0 0 0 47.935547 72.503906 A 2 2 0 0 1 46 74 A 2 2 0 0 1 44.064453 72.496094 z M 52.064453 72.496094 A 2 2 0 0 0 52 73 A 2 2 0 0 0 54 75 A 2 2 0 0 0 56 73 A 2 2 0 0 0 55.935547 72.503906 A 2 2 0 0 1 54 74 A 2 2 0 0 1 52.064453 72.496094 z "
       transform="translate(0,2)"
       id="path113" />
    <path
       style="fill:#ffffff;stroke-width:4"
       d="M 60 18 C 51.136 18 44 25.136 44 34 L 44.050781 34 C 44.566234 25.607886 51.473689 19 60 19 C 68.695155 19 75.709854 25.871347 75.974609 34.5 C 75.97975 34.332447 76 34.168845 76 34 C 76 25.136 68.864 18 60 18 z M 60 26 C 55.568 26 52 29.568 52 34 L 52.068359 34 C 52.558419 30.044327 55.907463 27 60 27 C 64.263155 27 67.716883 30.303943 67.974609 34.5 C 67.984817 34.333813 68 34.168845 68 34 C 68 29.568 64.432 26 60 26 z M 28 34 L 28 35 L 32 35 C 34.216 35 36 36.784 36 39 L 44.554688 39 L 48.726562 39 L 53.101562 39 L 60 39 C 62.216 39 64 37.216 64 35 C 64 34.828738 63.971859 34.665477 63.951172 34.5 C 63.704184 36.475674 62.044738 38 60 38 L 53.101562 38 L 48.726562 38 L 44.554688 38 L 36 38 C 36 35.784 34.216 34 32 34 L 28 34 z M 71.974609 34.5 C 71.712216 40.912456 66.479162 46 60 46 L 49.507812 46 L 36 46 L 36 47 L 49.507812 47 L 60 47 C 66.648 47 72 41.648 72 35 C 72 34.831162 71.981447 34.6671 71.974609 34.5 z M 22 38 A 2 2 0 0 0 20 40 A 2 2 0 0 0 20.064453 40.496094 A 2 2 0 0 1 22 39 A 2 2 0 0 1 23.935547 40.503906 A 2 2 0 0 0 24 40 A 2 2 0 0 0 22 38 z M 24 38 L 24 39 L 28 39 L 28 38 L 24 38 z M 22 46 A 2 2 0 0 0 20 48 A 2 2 0 0 0 20.064453 48.496094 A 2 2 0 0 1 22 47 A 2 2 0 0 1 23.935547 48.503906 A 2 2 0 0 0 24 48 A 2 2 0 0 0 22 46 z M 24 46 L 24 47 L 28 47 L 28 46 L 24 46 z M 44 54 L 44 55 L 48 55 L 48 54 L 44 54 z M 52 54 L 52 55 L 56 55 L 56 54 L 52 54 z M 44 58 C 41.784 58 40 59.784 40 62 L 40 63 C 40 60.784 41.784 59 44 59 L 44 58 z M 48 58 L 48 59 L 52 59 L 52 58 L 48 58 z M 56 58 L 56 59 C 58.216 59 60 60.784 60 63 L 60 62 C 60 59.784 58.216 58 56 58 z M 44.271484 71 A 2 2 0 0 0 44 72 A 2 2 0 0 0 44.064453 72.496094 A 2 2 0 0 1 46 71 L 44.271484 71 z M 46 71 A 2 2 0 0 1 47.935547 72.503906 A 2 2 0 0 0 48 72 A 2 2 0 0 0 47.730469 71 L 46 71 z M 52.271484 71 A 2 2 0 0 0 52 72 A 2 2 0 0 0 52.064453 72.496094 A 2 2 0 0 1 54 71 L 52.271484 71 z M 54 71 A 2 2 0 0 1 55.935547 72.503906 A 2 2 0 0 0 56 72 A 2 2 0 0 0 55.730469 71 L 54 71 z "
       transform="translate(0,2)"
       id="path118" />
  </g>
</svg>
