<?xml version="1.0" encoding="UTF-8" standalone="no"?>
<svg
   xmlns:dc="http://purl.org/dc/elements/1.1/"
   xmlns:cc="http://creativecommons.org/ns#"
   xmlns:rdf="http://www.w3.org/1999/02/22-rdf-syntax-ns#"
   xmlns:svg="http://www.w3.org/2000/svg"
   xmlns="http://www.w3.org/2000/svg"
   xmlns:xlink="http://www.w3.org/1999/xlink"
   xmlns:sodipodi="http://sodipodi.sourceforge.net/DTD/sodipodi-0.dtd"
   xmlns:inkscape="http://www.inkscape.org/namespaces/inkscape"
   width="96"
   height="96"
   version="1.1"
   id="svg76"
   sodipodi:docname="pragha.svg"
   inkscape:version="0.92.2 5c3e80d, 2017-08-06">
  <metadata
     id="metadata80">
    <rdf:RDF>
      <cc:Work
         rdf:about="">
        <dc:format>image/svg+xml</dc:format>
        <dc:type
           rdf:resource="http://purl.org/dc/dcmitype/StillImage" />
      </cc:Work>
    </rdf:RDF>
  </metadata>
  <sodipodi:namedview
     pagecolor="#ffffff"
     bordercolor="#666666"
     borderopacity="1"
     objecttolerance="10"
     gridtolerance="10"
     guidetolerance="10"
     inkscape:pageopacity="0"
     inkscape:pageshadow="2"
     inkscape:window-width="640"
     inkscape:window-height="480"
     id="namedview78"
     showgrid="false"
     inkscape:zoom="2.4583333"
     inkscape:cx="48"
     inkscape:cy="48"
     inkscape:window-x="0"
     inkscape:window-y="25"
     inkscape:window-maximized="0"
     inkscape:current-layer="svg76" />
  <defs
     id="defs2410">
    <linearGradient
       id="linearGradient4384">
      <stop
         id="stop4386"
         stop-color="#fff"
         offset="0" />
      <stop
         id="stop4388"
         stop-color="#fff"
         stop-opacity="0"
         offset="1" />
    </linearGradient>
    <filter
       id="filter3794"
       x="-.192"
       y="-.192"
       width="1.384"
       height="1.384">
      <feGaussianBlur
         id="feGaussianBlur3796"
         stdDeviation="5.28" />
    </filter>
    <linearGradient
       id="linearGradient3613"
       x1="48"
       x2="48"
       y1="20.221"
       y2="138.66"
       gradientUnits="userSpaceOnUse">
      <stop
         id="stop3739"
         stop-color="#fff"
         offset="0" />
      <stop
         id="stop3741"
         stop-color="#fff"
         stop-opacity="0"
         offset="1" />
    </linearGradient>
    <linearGradient
       id="buttonGradient"
       x1="48"
       x2="48"
       y1="90"
       y2="5.9877"
       gradientUnits="userSpaceOnUse">
      <stop
         id="stop3702"
         stop-color="#224f7c"
         offset="0" />
      <stop
         id="stop3704"
         stop-color="#4284ad"
         offset="1" />
    </linearGradient>
    <linearGradient
       id="ButtonShadow-0"
       x1="45.448"
       x2="45.448"
       y1="92.54"
       y2="7.0165"
       gradientTransform="matrix(1.0059 0 0 .99417 100 0)"
       gradientUnits="userSpaceOnUse">
      <stop
         id="stop3750-8"
         offset="0" />
      <stop
         id="stop3752-5"
         stop-opacity=".58824"
         offset="1" />
    </linearGradient>
    <linearGradient
       id="linearGradient3780"
       x1="32.251"
       x2="32.251"
       y1="6.1317"
       y2="90.239"
       gradientTransform="matrix(1.0238 0 0 1.0119 -1.1429 -98.071)"
       gradientUnits="userSpaceOnUse"
       xlink:href="#ButtonShadow-0" />
    <linearGradient
       id="linearGradient3721"
       x1="32.251"
       x2="32.251"
       y1="6.1317"
       y2="90.239"
       gradientTransform="translate(0,-97)"
       gradientUnits="userSpaceOnUse"
       xlink:href="#ButtonShadow-0" />
    <clipPath
       id="clipPath4355">
      <rect
         id="rect4357"
         x="6"
         y="6"
         width="84"
         height="80"
         rx="6"
         ry="6"
         fill="#fff" />
    </clipPath>
    <linearGradient
       id="linearGradient4390"
       x1="48"
       x2="48"
       y1="88"
       y2="-40"
       gradientTransform="matrix(1,0,0,-1,0,92)"
       gradientUnits="userSpaceOnUse"
       xlink:href="#linearGradient4384" />
    <linearGradient
       id="linearGradient4429"
       x1="48"
       x2="112.12"
       y1="82"
       y2="82.455"
       gradientUnits="userSpaceOnUse"
       spreadMethod="reflect"
       xlink:href="#linearGradient4384" />
    <linearGradient
       id="linearGradient3228"
       x1="90"
       x2="48"
       y1="88"
       y2="88"
       gradientUnits="userSpaceOnUse"
       spreadMethod="reflect">
      <stop
         id="stop3894"
         stop-opacity=".58824"
         offset="0" />
      <stop
         id="stop3896"
         stop-opacity=".47059"
         offset=".1178" />
      <stop
         id="stop3898"
         stop-opacity=".39216"
         offset=".2381" />
      <stop
         id="stop3900"
         stop-opacity=".31373"
         offset="1" />
    </linearGradient>
  </defs>
  <g
     id="layer3">
    <g
       id="g32"
       fill="url(#linearGradient3780)">
      <path
         id="path3786"
         transform="scale(1,-1)"
         d="m12-95.021c-5.5111 0-10.022 4.51-10.022 10.021v71c0 5.5111 4.5104 10.021 10.021 10.021h72c5.5111 0 10.021-4.5104 10.021-10.021v-71c0-5.5111-4.5104-10.021-10.021-10.021h-72z"
         opacity=".08" />
      <path
         id="path3778"
         transform="scale(1,-1)"
         d="m12-94.035c-4.9716 0-9.0352 4.0635-9.0352 9.0352v71c0 4.9716 4.0635 9.0352 9.0352 9.0352h72c4.9716 0 9.0352-4.0635 9.0352-9.0352v-71c0-4.9716-4.0635-9.0352-9.0352-9.0352h-72z"
         opacity=".1" />
      <path
         id="path3770"
         transform="scale(1,-1)"
         d="m12-92.99c-4.4091 0-7.9902 3.5811-7.9902 7.9902v71c0 4.4091 3.5811 7.9902 7.9902 7.9902h72c4.4091 0 7.9902-3.5811 7.9902-7.9902v-71c0-4.4091-3.5811-7.9902-7.9902-7.9902h-72z"
         opacity=".2" />
      <rect
         id="rect3723"
         transform="scale(1,-1)"
         x="5"
         y="-92"
         width="86"
         height="85"
         rx="7"
         ry="7"
         opacity=".3" />
    </g>
    <rect
       id="rect3716"
       transform="scale(1,-1)"
       x="6"
       y="-91"
       width="84"
       height="84"
       rx="6"
       ry="6"
       fill="url(#linearGradient3721)"
       opacity=".45" />
  </g>
  <g
     id="layer1">
    <rect
       id="button"
       x="6"
       y="6"
       width="84"
       height="84"
       rx="6"
       ry="6"
       fill="url(#buttonGradient)" />
    <path
       id="rect4377"
       d="m12 86c-3.324 0-6-2.676-6-6v-68c0-3.324 2.676-6 6-6h72c3.324 0 6 2.676 6 6v68c0 3.324-2.676 6-6 6zm0-0.96875h72c2.8049 0 5.0312-2.2264 5.0312-5.0312v-68c0-2.8049-2.226-5.0312-5.031-5.0312h-72c-2.8049 0-5.0312 2.2263-5.0312 5.0312v68c0 2.8049 2.2264 5.0312 5.0312 5.0312z"
       fill="url(#linearGradient4390)"
       opacity=".3" />
    <path
       id="rect4414"
       d="m6 78v2c0 3.324 2.676 6 6 6h72c3.324 0 6-2.676 6-6v-2c0 3.324-2.676 6-6 6h-72c-3.324 0-6-2.676-6-6z"
       fill="url(#linearGradient4429)"
       opacity=".1" />
  </g>
  <g
     id="layer4">
    <path
       id="path3888"
       d="m6 80v4c0 3.324 2.676 6 6 6h72c3.324 0 6-2.676 6-6v-4c0 3.324-2.676 6-6 6h-72c-3.324 0-6-2.676-6-6z"
       fill="url(#linearGradient3228)" />
    <path
       id="rect4345"
       d="m6 82v2c0 3.324 2.676 6 6 6h72c3.324 0 6-2.676 6-6v-2c0 3.324-2.676 6-6 6h-72c-3.324 0-6-2.676-6-6z"
       color="#000000"
       opacity=".1" />
    <path
       id="rect4336"
       d="m6 83v1c0 3.324 2.676 6 6 6h72c3.324 0 6-2.676 6-6v-1c0 3.324-2.676 6-6 6h-72c-3.324 0-6-2.676-6-6z"
       color="#000000"
       opacity=".15" />
  </g>
  <g
     id="layer5">
    <rect
       id="rect3171"
       x="15"
       y="15"
       width="66"
       height="62"
       rx="12"
       ry="12"
       clip-path="url(#clipPath4355)"
       fill="url(#linearGradient3613)"
       filter="url(#filter3794)"
       opacity=".1"
       stroke="#fff"
       stroke-linecap="round"
       stroke-width=".5" />
  </g>
  <defs
     id="defs53">
    <filter
       id="w">
      <feGaussianBlur
         stdDeviation="0.23199685"
         id="feGaussianBlur45" />
    </filter>
    <linearGradient
       id="a"
       gradientUnits="userSpaceOnUse"
       x1="8"
       y1="1"
       x2="8"
       y2="14.999892">
      <stop
         stop-color="#fafafa"
         offset="0"
         id="stop48" />
      <stop
         stop-color="#ebebeb"
         offset="1"
         id="stop50" />
    </linearGradient>
  </defs>
  <g
     transform="translate(0,-2)"
     id="g74">
    <path
       style="opacity:0.15;fill:#000000;stroke-width:0.088413"
       d="m 11.333984,0.75 a 0.250025,0.250025 0 0 0 -0.08203,0.0234375 L 10.763672,0.99804688 C 10.395683,1.1665001 10.134435,1.2135931 9.234375,1.2753906 7.1992701,1.4150906 5.9070387,1.9370811 4.7148438,3.1113281 3.1993565,4.6040513 2.789783,6.4137561 3.5058594,8.453125 L 3.7304688,9.09375 3.1035156,9.671875 c -0.9058279,0.834079 -1.2745574,1.474157 -1.3476562,2.384766 -0.1186864,1.479317 0.8909226,2.856264 2.3144531,3.142578 0.5337846,0.107364 1.2703713,0.0427 1.9589844,-0.146485 C 7.2665986,14.712783 8.3781255,13.394098 9.03125,11.648438 9.2221695,11.138099 9.3510606,11.017915 9.9199219,10.816406 11.114931,10.393051 11.896954,9.9227914 12.638672,9.1757812 14.004368,7.8002622 14.522728,6.2613989 14.113281,4.6894531 13.907145,3.897952 13.54402,3.2945158 12.912109,2.6914062 12.145383,1.9596113 11.768708,1.5985819 11.613281,1.4199219 c -0.07771,-0.08933 -0.08797,-0.1259123 -0.08398,-0.109375 0.004,0.016537 -0.0027,0.034161 0.01367,-0.03125 l 0.05469,-0.21875 A 0.250025,0.250025 0 0 0 11.333984,0.75 Z M 8.265625,2.4980469 c 0.4146497,0.029802 0.4171334,0.027948 0.6542969,0.2578125 L 9.0917969,2.921875 8.7675781,3.6132812 C 7.9828666,5.2841159 7.7383566,6.1293002 7.2695312,8.7714844 6.8037493,11.396486 6.1025151,12.736249 5.0429688,13.28125 a 0.250025,0.250025 0 0 0 -0.00586,0.002 C 4.482818,13.567149 4.1721921,13.591267 3.8085938,13.421875 3.3029806,13.186324 3.0843481,12.596138 3.3027344,12.173828 c 0.083787,-0.162034 0.1142287,-0.204585 0.2304687,-0.259766 0.1162401,-0.05518 0.3485953,-0.105619 0.7578125,-0.166015 0.3127742,-0.04616 0.5126776,-0.08145 0.6933594,-0.158203 0.1806818,-0.07676 0.3146504,-0.192323 0.46875,-0.345703 0.1557272,-0.155007 0.2816275,-0.307454 0.3554688,-0.488282 0.073841,-0.180827 0.081914,-0.388963 0.025391,-0.58789 C 5.7209372,9.7701139 5.4040929,9.3802108 4.8632812,8.7851562 4.4390014,8.3183209 4.2203123,8.0347648 4.1035156,7.7363281 3.9867189,7.4378914 3.9570313,7.0896008 3.9570312,6.4726562 c 0,-0.9900111 -0.013811,-0.9285005 0.3066407,-1.5996093 0.7223341,-1.512847 2.3782275,-2.4917214 4.0019531,-2.375 z m 2.113281,0.7890625 c 0.01419,0.00152 0.177507,0.070862 0.41211,0.2871094 0.753891,0.6949617 1.25012,2.267921 1.050781,3.4316406 -0.144992,0.84671 -0.653708,1.6639653 -1.302735,2.109375 -0.258405,0.177328 -0.422958,0.2468463 -0.505859,0.2539062 -0.082901,0.00706 -0.1368913,-0.011431 -0.2792968,-0.1386718 a 0.250025,0.250025 0 0 0 0,-0.00195 L 9.5546875,9.0527344 9.5625,8.2402344 C 9.5694634,7.4642515 9.664996,6.4627759 9.8046875,5.5546875 9.944379,4.6465991 10.135328,3.8182797 10.296875,3.4316406 c 0.03556,-0.085113 0.0686,-0.1314191 0.08203,-0.1445312 z"
       inkscape:original="M 11.355469 1 L 10.867188 1.2246094 C 10.471987 1.4055194 10.158603 1.4631406 9.2519531 1.5253906 C 7.2503531 1.6627906 6.046425 2.1506625 4.890625 3.2890625 C 3.428665 4.7290625 3.0501875 6.4002937 3.7421875 8.3710938 L 4.0214844 9.1660156 L 3.2734375 9.8554688 C 2.3869175 10.671769 2.0748194 11.217122 2.0058594 12.076172 C 1.8972594 13.429772 2.8266406 14.695118 4.1191406 14.955078 C 4.5851406 15.048808 5.3066606 14.99279 5.9628906 14.8125 C 7.0718906 14.5078 8.162555 13.255947 8.796875 11.560547 C 9.001925 11.012437 9.2352575 10.792858 9.8359375 10.580078 C 11.009337 10.164378 11.743398 9.72266 12.460938 9 C 13.784717 7.6667 14.258154 6.2379531 13.871094 4.7519531 C 13.674594 3.9974531 13.347994 3.4531069 12.740234 2.8730469 C 11.207054 1.4097169 11.242661 1.45032 11.300781 1.21875 L 11.355469 1 z M 8.2832031 2.2480469 C 8.7138231 2.2789969 8.83935 2.3296019 9.09375 2.5761719 L 9.3945312 2.8671875 L 8.9941406 3.71875 C 8.2144706 5.37885 7.983495 6.1776531 7.515625 8.8144531 C 7.044325 11.470553 6.3211438 12.907169 5.1523438 13.505859 L 5.1503906 13.505859 C 4.5610706 13.807749 4.135705 13.849967 3.703125 13.648438 C 3.077845 13.357138 2.7896981 12.620124 3.0800781 12.058594 C 3.2676281 11.695894 3.4256662 11.62224 4.2539062 11.5 C 4.8711463 11.4089 4.9815438 11.360826 5.2773438 11.066406 C 5.8519038 10.494506 5.7475344 10.130225 4.6777344 8.953125 C 3.8195144 8.008825 3.7070312 7.7215562 3.7070312 6.4726562 C 3.7070312 5.4811963 3.7156494 5.438845 4.0371094 4.765625 C 4.8049094 3.157555 6.5489031 2.1233769 8.2832031 2.2480469 z M 10.392578 3.0351562 C 10.532136 3.0435988 10.712218 3.161365 10.960938 3.390625 C 11.805668 4.169325 12.304031 5.7870281 12.087891 7.0488281 C 11.931291 7.9633281 11.394097 8.8319856 10.679688 9.3222656 C 10.139687 9.6928356 9.9179706 9.7109456 9.5878906 9.4160156 L 9.3046875 9.1640625 L 9.3125 8.2382812 C 9.32676 6.6491812 9.7027862 4.2062075 10.066406 3.3359375 C 10.153706 3.1270075 10.253021 3.0267137 10.392578 3.0351562 z"
       transform="matrix(4,0,0,4,16,17)"
       inkscape:radius="0.25"
       sodipodi:type="inkscape:offset"
       id="path4577" />
    <g
       id="Bevel1">
      <path
         id="path57"
         fill="#000"
         stroke-width=".088413"
         opacity=".10"
         sodipodi:type="inkscape:offset"
         inkscape:radius="0.5"
         transform="translate(16,17) scale(4)"
         inkscape:original="M 11.355469 1 L 10.867188 1.2246094 C 10.471987 1.4055194 10.158603 1.4631406 9.2519531 1.5253906 C 7.2503531 1.6627906 6.046425 2.1506625 4.890625 3.2890625 C 3.428665 4.7290625 3.0501875 6.4002937 3.7421875 8.3710938 L 4.0214844 9.1660156 L 3.2734375 9.8554688 C 2.3869175 10.671769 2.0748194 11.217122 2.0058594 12.076172 C 1.8972594 13.429772 2.8266406 14.695118 4.1191406 14.955078 C 4.5851406 15.048808 5.3066606 14.99279 5.9628906 14.8125 C 7.0718906 14.5078 8.162555 13.255947 8.796875 11.560547 C 9.001925 11.012437 9.2352575 10.792858 9.8359375 10.580078 C 11.009337 10.164378 11.743398 9.72266 12.460938 9 C 13.784717 7.6667 14.258154 6.2379531 13.871094 4.7519531 C 13.674594 3.9974531 13.347994 3.4531069 12.740234 2.8730469 C 11.207054 1.4097169 11.242661 1.45032 11.300781 1.21875 L 11.355469 1 z M 8.2832031 2.2480469 C 8.7138231 2.2789969 8.83935 2.3296019 9.09375 2.5761719 L 9.3945312 2.8671875 L 8.9941406 3.71875 C 8.2144706 5.37885 7.983495 6.1776531 7.515625 8.8144531 C 7.044325 11.470553 6.3211438 12.907169 5.1523438 13.505859 L 5.1503906 13.505859 C 4.5610706 13.807749 4.135705 13.849967 3.703125 13.648438 C 3.077845 13.357138 2.7896981 12.620124 3.0800781 12.058594 C 3.2676281 11.695894 3.4256662 11.62224 4.2539062 11.5 C 4.8711463 11.4089 4.9815438 11.360826 5.2773438 11.066406 C 5.8519038 10.494506 5.7475344 10.130225 4.6777344 8.953125 C 3.8195144 8.008825 3.7070312 7.7215562 3.7070312 6.4726562 C 3.7070312 5.4811963 3.7156494 5.438845 4.0371094 4.765625 C 4.8049094 3.157555 6.5489031 2.1233769 8.2832031 2.2480469 z M 10.392578 3.0351562 C 10.532136 3.0435988 10.712218 3.161365 10.960938 3.390625 C 11.805668 4.169325 12.304031 5.7870281 12.087891 7.0488281 C 11.931291 7.9633281 11.394097 8.8319856 10.679688 9.3222656 C 10.139687 9.6928356 9.9179706 9.7109456 9.5878906 9.4160156 L 9.3046875 9.1640625 L 9.3125 8.2382812 C 9.32676 6.6491812 9.7027862 4.2062075 10.066406 3.3359375 C 10.153706 3.1270075 10.253021 3.0267137 10.392578 3.0351562 z" />
    </g>
    <g
       id="Bevel2">
      <path
         id="path60"
         fill="#000"
         stroke-width=".088413"
         opacity=".05"
         sodipodi:type="inkscape:offset"
         inkscape:radius="0.75"
         transform="translate(16,17) scale(4)"
         inkscape:original="M 11.355469 1 L 10.867188 1.2246094 C 10.471987 1.4055194 10.158603 1.4631406 9.2519531 1.5253906 C 7.2503531 1.6627906 6.046425 2.1506625 4.890625 3.2890625 C 3.428665 4.7290625 3.0501875 6.4002937 3.7421875 8.3710938 L 4.0214844 9.1660156 L 3.2734375 9.8554688 C 2.3869175 10.671769 2.0748194 11.217122 2.0058594 12.076172 C 1.8972594 13.429772 2.8266406 14.695118 4.1191406 14.955078 C 4.5851406 15.048808 5.3066606 14.99279 5.9628906 14.8125 C 7.0718906 14.5078 8.162555 13.255947 8.796875 11.560547 C 9.001925 11.012437 9.2352575 10.792858 9.8359375 10.580078 C 11.009337 10.164378 11.743398 9.72266 12.460938 9 C 13.784717 7.6667 14.258154 6.2379531 13.871094 4.7519531 C 13.674594 3.9974531 13.347994 3.4531069 12.740234 2.8730469 C 11.207054 1.4097169 11.242661 1.45032 11.300781 1.21875 L 11.355469 1 z M 8.2832031 2.2480469 C 8.7138231 2.2789969 8.83935 2.3296019 9.09375 2.5761719 L 9.3945312 2.8671875 L 8.9941406 3.71875 C 8.2144706 5.37885 7.983495 6.1776531 7.515625 8.8144531 C 7.044325 11.470553 6.3211438 12.907169 5.1523438 13.505859 L 5.1503906 13.505859 C 4.5610706 13.807749 4.135705 13.849967 3.703125 13.648438 C 3.077845 13.357138 2.7896981 12.620124 3.0800781 12.058594 C 3.2676281 11.695894 3.4256662 11.62224 4.2539062 11.5 C 4.8711463 11.4089 4.9815438 11.360826 5.2773438 11.066406 C 5.8519038 10.494506 5.7475344 10.130225 4.6777344 8.953125 C 3.8195144 8.008825 3.7070312 7.7215562 3.7070312 6.4726562 C 3.7070312 5.4811963 3.7156494 5.438845 4.0371094 4.765625 C 4.8049094 3.157555 6.5489031 2.1233769 8.2832031 2.2480469 z M 10.392578 3.0351562 C 10.532136 3.0435988 10.712218 3.161365 10.960938 3.390625 C 11.805668 4.169325 12.304031 5.7870281 12.087891 7.0488281 C 11.931291 7.9633281 11.394097 8.8319856 10.679688 9.3222656 C 10.139687 9.6928356 9.9179706 9.7109456 9.5878906 9.4160156 L 9.3046875 9.1640625 L 9.3125 8.2382812 C 9.32676 6.6491812 9.7027862 4.2062075 10.066406 3.3359375 C 10.153706 3.1270075 10.253021 3.0267137 10.392578 3.0351562 z" />
    </g>
    <path
       id="base"
       d="M 11.355469 1 L 10.867188 1.2246094 C 10.471987 1.4055194 10.158603 1.4631406 9.2519531 1.5253906 C 7.2503531 1.6627906 6.046425 2.1506625 4.890625 3.2890625 C 3.428665 4.7290625 3.0501875 6.4002937 3.7421875 8.3710938 L 4.0214844 9.1660156 L 3.2734375 9.8554688 C 2.3869175 10.671769 2.0748194 11.217122 2.0058594 12.076172 C 1.8972594 13.429772 2.8266406 14.695118 4.1191406 14.955078 C 4.5851406 15.048808 5.3066606 14.99279 5.9628906 14.8125 C 7.0718906 14.5078 8.162555 13.255947 8.796875 11.560547 C 9.001925 11.012437 9.2352575 10.792858 9.8359375 10.580078 C 11.009337 10.164378 11.743398 9.72266 12.460938 9 C 13.784717 7.6667 14.258154 6.2379531 13.871094 4.7519531 C 13.674594 3.9974531 13.347994 3.4531069 12.740234 2.8730469 C 11.207054 1.4097169 11.242661 1.45032 11.300781 1.21875 L 11.355469 1 z M 8.2832031 2.2480469 C 8.7138231 2.2789969 8.83935 2.3296019 9.09375 2.5761719 L 9.3945312 2.8671875 L 8.9941406 3.71875 C 8.2144706 5.37885 7.983495 6.1776531 7.515625 8.8144531 C 7.044325 11.470553 6.3211438 12.907169 5.1523438 13.505859 L 5.1503906 13.505859 C 4.5610706 13.807749 4.135705 13.849967 3.703125 13.648438 C 3.077845 13.357138 2.7896981 12.620124 3.0800781 12.058594 C 3.2676281 11.695894 3.4256662 11.62224 4.2539062 11.5 C 4.8711463 11.4089 4.9815438 11.360826 5.2773438 11.066406 C 5.8519038 10.494506 5.7475344 10.130225 4.6777344 8.953125 C 3.8195144 8.008825 3.7070312 7.7215562 3.7070312 6.4726562 C 3.7070312 5.4811963 3.7156494 5.438845 4.0371094 4.765625 C 4.8049094 3.157555 6.5489031 2.1233769 8.2832031 2.2480469 z M 10.392578 3.0351562 C 10.532136 3.0435988 10.712218 3.161365 10.960938 3.390625 C 11.805668 4.169325 12.304031 5.7870281 12.087891 7.0488281 C 11.931291 7.9633281 11.394097 8.8319856 10.679688 9.3222656 C 10.139687 9.6928356 9.9179706 9.7109456 9.5878906 9.4160156 L 9.3046875 9.1640625 L 9.3125 8.2382812 C 9.32676 6.6491812 9.7027862 4.2062075 10.066406 3.3359375 C 10.153706 3.1270075 10.253021 3.0267137 10.392578 3.0351562 z"
       fill="url(#a)"
       stroke-width=".088413"
       transform="translate(16,16) scale(4)" />
    <path
       style="opacity:0.3;fill:#000000;stroke-width:0.353652"
       d="M 61.421875 19 L 61.146484 19.126953 C 61.112199 19.304139 61.13319 19.478409 61.246094 19.701172 L 61.421875 19 z M 47.832031 22.953125 C 41.338304 23.020254 35.027687 27.032238 32.148438 33.0625 C 30.862605 35.75538 30.828125 35.924785 30.828125 39.890625 C 30.828125 40.044411 30.833058 40.163863 30.833984 40.310547 C 30.842267 37.003562 30.941574 36.59 32.148438 34.0625 C 35.219637 27.63022 42.195612 23.493508 49.132812 23.992188 C 50.855292 24.115987 51.3574 24.318407 52.375 25.304688 L 53.255859 26.15625 L 53.578125 25.46875 L 52.375 24.304688 C 51.3574 23.318407 50.855292 23.115987 49.132812 22.992188 C 48.699238 22.96102 48.264946 22.94865 47.832031 22.953125 z M 57.570312 26.140625 C 57.012085 26.106855 56.614825 26.50803 56.265625 27.34375 C 54.811146 30.82483 53.30704 40.596725 53.25 46.953125 L 53.21875 50.65625 L 53.226562 50.664062 L 53.25 47.953125 C 53.30704 41.596725 54.811146 31.82483 56.265625 28.34375 C 56.614825 27.50803 57.012085 27.106855 57.570312 27.140625 C 58.128544 27.174385 58.84887 27.64546 59.84375 28.5625 C 62.582661 31.087318 64.410936 35.817683 64.544922 40.207031 C 64.684638 35.554102 62.79212 30.280404 59.84375 27.5625 C 58.84887 26.64546 58.128544 26.174385 57.570312 26.140625 z M 71.994141 37.517578 C 71.838782 41.847664 69.785392 46.030009 65.84375 50 C 62.97359 52.89064 60.037348 54.657513 55.34375 56.320312 C 52.94103 57.171432 52.0077 58.049748 51.1875 60.242188 C 48.65022 67.023787 44.287562 72.0312 39.851562 73.25 C 37.226642 73.971152 34.340562 74.195233 32.476562 73.820312 C 27.743734 72.868401 24.239174 68.543912 24.011719 63.666016 C 23.76727 68.942096 27.422186 73.803728 32.476562 74.820312 C 34.340562 75.195233 37.226642 74.971152 39.851562 74.25 C 44.287562 73.0312 48.65022 68.023787 51.1875 61.242188 C 52.0077 59.049748 52.94103 58.171432 55.34375 57.320312 C 60.037348 55.657513 62.97359 53.89064 65.84375 51 C 70.088115 46.725108 72.141467 42.204389 71.994141 37.517578 z M 29.646484 40.78125 C 29.585229 43.216403 30.018392 45.777778 30.96875 48.484375 L 31.820312 50.908203 L 32.085938 50.664062 L 30.96875 47.484375 C 30.147625 45.145829 29.712629 42.916033 29.646484 40.78125 z M 38.435547 56.228516 C 38.285311 56.910126 37.831678 57.546666 37.109375 58.265625 C 35.926175 59.443305 35.484585 59.6356 33.015625 60 C 29.702665 60.48896 29.070512 60.783575 28.320312 62.234375 C 27.947102 62.95608 27.835621 63.748988 27.908203 64.533203 C 27.971014 64.086565 28.10599 63.648826 28.320312 63.234375 C 29.070512 61.783575 29.702665 61.48896 33.015625 61 C 35.484585 60.6356 35.926175 60.443305 37.109375 59.265625 C 38.168944 58.210962 38.642749 57.330127 38.435547 56.228516 z "
       transform="translate(0,2)"
       id="path64" />
    <path
       style="fill:#ffffff;stroke-width:0.353652"
       d="M 61.421875 18 L 59.46875 18.898438 C 57.887946 19.622077 56.634412 19.852563 53.007812 20.101562 C 45.001413 20.651163 40.1857 22.60265 35.5625 27.15625 C 31.449418 31.20755 29.489658 35.719713 29.646484 40.78125 C 29.76364 36.123806 31.722442 31.938627 35.5625 28.15625 C 40.1857 23.60265 45.001413 21.651163 53.007812 21.101562 C 56.634412 20.852563 57.887946 20.622077 59.46875 19.898438 L 61.146484 19.126953 C 61.161757 19.048023 61.179556 18.968906 61.203125 18.875 L 61.421875 18 z M 61.246094 19.701172 L 61.203125 19.875 C 60.970645 20.80128 60.828218 20.638867 66.960938 26.492188 C 69.391977 28.812427 70.698375 30.989812 71.484375 34.007812 C 71.791604 35.187326 71.957668 36.357294 71.994141 37.517578 C 72.047487 36.030721 71.880118 34.527147 71.484375 33.007812 C 70.698375 29.989812 69.391977 27.812427 66.960938 25.492188 C 62.845658 21.564396 61.578995 20.357995 61.246094 19.701172 z M 53.255859 26.15625 L 51.976562 28.875 C 48.857883 35.5154 47.93398 38.710612 46.0625 49.257812 C 44.1773 59.882213 41.284575 65.628677 36.609375 68.023438 L 36.601562 68.023438 C 34.244282 69.230998 32.54282 69.399866 30.8125 68.59375 C 29.115019 67.802943 28.061514 66.189655 27.908203 64.533203 C 27.630611 66.507125 28.772883 68.643551 30.8125 69.59375 C 32.54282 70.399866 34.244282 70.230998 36.601562 69.023438 L 36.609375 69.023438 C 41.284575 66.628677 44.1773 60.882213 46.0625 50.257812 C 47.93398 39.710612 48.857883 36.5154 51.976562 29.875 L 53.578125 26.46875 L 53.255859 26.15625 z M 64.544922 40.207031 C 64.524519 40.886498 64.461727 41.552186 64.351562 42.195312 C 63.725163 45.853313 61.576386 49.327942 58.71875 51.289062 C 56.558746 52.771343 55.671883 52.843783 54.351562 51.664062 L 53.226562 50.664062 L 53.21875 51.65625 L 54.351562 52.664062 C 55.671883 53.843783 56.558746 53.771343 58.71875 52.289062 C 61.576386 50.327942 63.725163 46.853313 64.351562 43.195312 C 64.515321 42.23931 64.576231 41.232703 64.544922 40.207031 z M 30.833984 40.310547 C 30.833442 40.526931 30.828125 40.647067 30.828125 40.890625 C 30.828125 45.886225 31.278057 47.0353 34.710938 50.8125 C 37.017278 53.350164 38.193321 54.940695 38.435547 56.228516 C 38.763335 54.741362 37.645249 53.04112 34.710938 49.8125 C 31.383736 46.151578 30.86316 44.928774 30.833984 40.310547 z M 31.820312 50.908203 L 29.09375 53.421875 C 25.54767 56.687076 24.299277 58.868488 24.023438 62.304688 C 23.986705 62.762525 23.990709 63.215444 24.011719 63.666016 C 24.017311 63.545321 24.013722 63.425777 24.023438 63.304688 C 24.299277 59.868488 25.54767 57.687076 29.09375 54.421875 L 32.085938 51.664062 L 31.820312 50.908203 z "
       transform="translate(0,2)"
       id="path69" />
  </g>
</svg>
