<?xml version="1.0" encoding="UTF-8" standalone="no"?>
<svg
   xmlns:dc="http://purl.org/dc/elements/1.1/"
   xmlns:cc="http://creativecommons.org/ns#"
   xmlns:rdf="http://www.w3.org/1999/02/22-rdf-syntax-ns#"
   xmlns:svg="http://www.w3.org/2000/svg"
   xmlns="http://www.w3.org/2000/svg"
   xmlns:xlink="http://www.w3.org/1999/xlink"
   xmlns:sodipodi="http://sodipodi.sourceforge.net/DTD/sodipodi-0.dtd"
   xmlns:inkscape="http://www.inkscape.org/namespaces/inkscape"
   width="96"
   height="96"
   version="1.0"
   id="svg125"
   sodipodi:docname="psensor.svg"
   inkscape:version="0.92.2 5c3e80d, 2017-08-06">
  <metadata
     id="metadata129">
    <rdf:RDF>
      <cc:Work
         rdf:about="">
        <dc:format>image/svg+xml</dc:format>
        <dc:type
           rdf:resource="http://purl.org/dc/dcmitype/StillImage" />
      </cc:Work>
    </rdf:RDF>
  </metadata>
  <sodipodi:namedview
     pagecolor="#ffffff"
     bordercolor="#666666"
     borderopacity="1"
     objecttolerance="10"
     gridtolerance="10"
     guidetolerance="10"
     inkscape:pageopacity="0"
     inkscape:pageshadow="2"
     inkscape:window-width="640"
     inkscape:window-height="480"
     id="namedview127"
     showgrid="false"
     inkscape:zoom="2.4583333"
     inkscape:cx="48"
     inkscape:cy="48"
     inkscape:window-x="0"
     inkscape:window-y="25"
     inkscape:window-maximized="0"
     inkscape:current-layer="svg125" />
  <defs
     id="defs49">
    <linearGradient
       id="linearGradient4384">
      <stop
         stop-color="#fff"
         offset="0"
         id="stop2" />
      <stop
         stop-color="#fff"
         stop-opacity="0"
         offset="1"
         id="stop4" />
    </linearGradient>
    <linearGradient
       id="ButtonShadow"
       x1="45.448"
       x2="45.448"
       y1="92.54"
       y2="7.0165"
       gradientTransform="scale(1.0059 .99417)"
       gradientUnits="userSpaceOnUse">
      <stop
         offset="0"
         id="stop7" />
      <stop
         stop-opacity=".58824"
         offset="1"
         id="stop9" />
    </linearGradient>
    <filter
       id="filter3174">
      <feGaussianBlur
         stdDeviation="1.71"
         id="feGaussianBlur12" />
    </filter>
    <filter
       id="filter3794"
       x="-.192"
       y="-.192"
       width="1.384"
       height="1.384">
      <feGaussianBlur
         stdDeviation="5.28"
         id="feGaussianBlur15" />
    </filter>
    <linearGradient
       id="linearGradient3613"
       x1="48"
       x2="48"
       y1="20.221"
       y2="138.66"
       gradientUnits="userSpaceOnUse">
      <stop
         stop-color="#fff"
         offset="0"
         id="stop18" />
      <stop
         stop-color="#fff"
         stop-opacity="0"
         offset="1"
         id="stop20" />
    </linearGradient>
    <linearGradient
       id="linearGradient3617"
       x1="48"
       x2="48"
       y1="90"
       y2="5.9877"
       gradientUnits="userSpaceOnUse">
      <stop
         stop-color="#e34345"
         offset="0"
         id="stop23" />
      <stop
         stop-color="#a6afe2"
         offset="1"
         id="stop25" />
    </linearGradient>
    <linearGradient
       id="ButtonShadow-0"
       x1="45.448"
       x2="45.448"
       y1="92.54"
       y2="7.0165"
       gradientTransform="matrix(1.0059 0 0 .99417 100 0)"
       gradientUnits="userSpaceOnUse">
      <stop
         offset="0"
         id="stop28" />
      <stop
         stop-opacity=".58824"
         offset="1"
         id="stop30" />
    </linearGradient>
    <linearGradient
       id="linearGradient3780"
       x1="32.251"
       x2="32.251"
       y1="6.1317"
       y2="90.239"
       gradientTransform="matrix(1.0238 0 0 1.0119 -1.1429 -98.071)"
       gradientUnits="userSpaceOnUse"
       xlink:href="#ButtonShadow-0" />
    <linearGradient
       id="linearGradient3721"
       x1="32.251"
       x2="32.251"
       y1="6.1317"
       y2="90.239"
       gradientTransform="translate(0,-97)"
       gradientUnits="userSpaceOnUse"
       xlink:href="#ButtonShadow-0" />
    <clipPath
       id="clipPath4355">
      <rect
         x="6"
         y="6"
         width="84"
         height="80"
         rx="6"
         ry="6"
         fill="#fff"
         id="rect35" />
    </clipPath>
    <linearGradient
       id="linearGradient4390"
       x1="48"
       x2="48"
       y1="88"
       y2="-40"
       gradientTransform="matrix(1,0,0,-1,0,92)"
       gradientUnits="userSpaceOnUse"
       xlink:href="#linearGradient4384" />
    <linearGradient
       id="linearGradient4429"
       x1="48"
       x2="112.12"
       y1="82"
       y2="82.455"
       gradientUnits="userSpaceOnUse"
       spreadMethod="reflect"
       xlink:href="#linearGradient4384" />
    <linearGradient
       id="linearGradient3870"
       x1="8"
       x2="50"
       y1="1033.4"
       y2="1033.4"
       gradientTransform="translate(-2 -956.36)"
       gradientUnits="userSpaceOnUse"
       spreadMethod="reflect">
      <stop
         stop-color="#523823"
         offset="0"
         id="stop40" />
      <stop
         stop-color="#79563a"
         offset=".1178"
         id="stop42" />
      <stop
         stop-color="#875c38"
         offset=".2381"
         id="stop44" />
      <stop
         stop-color="#a66e40"
         offset="1"
         id="stop46" />
    </linearGradient>
  </defs>
  <g
     display="none"
     id="g53">
    <rect
       x="5"
       y="7"
       width="86"
       height="85"
       rx="6"
       ry="6"
       fill="url(#ButtonShadow)"
       filter="url(#filter3174)"
       opacity=".9"
       id="rect51" />
  </g>
  <g
     id="g67">
    <g
       fill="url(#linearGradient3780)"
       id="g63">
      <path
         transform="scale(1,-1)"
         d="m12-95.031c-5.5111 0-10.031 4.5202-10.031 10.031v71c0 5.5111 4.5202 10.031 10.031 10.031h72c5.5111 0 10.031-4.5202 10.031-10.031v-71c0-5.5111-4.5202-10.031-10.031-10.031h-72z"
         opacity=".08"
         id="path55" />
      <path
         transform="scale(1,-1)"
         d="m12-94.031c-4.9716 0-9.0312 4.0596-9.0312 9.0312v71c0 4.9716 4.0596 9.0312 9.0312 9.0312h72c4.9716 0 9.0312-4.0596 9.0312-9.0312v-71c0-4.9716-4.0596-9.0312-9.0312-9.0312h-72z"
         opacity=".1"
         id="path57" />
      <path
         transform="scale(1,-1)"
         d="m12-93c-4.4091 0-8 3.5909-8 8v71c0 4.4091 3.5909 8 8 8h72c4.4091 0 8-3.5909 8-8v-71c0-4.4091-3.5909-8-8-8h-72z"
         opacity=".2"
         id="path59" />
      <rect
         transform="scale(1,-1)"
         x="5"
         y="-92"
         width="86"
         height="85"
         rx="7"
         ry="7"
         opacity=".3"
         id="rect61" />
    </g>
    <rect
       transform="scale(1,-1)"
       x="6"
       y="-91"
       width="84"
       height="84"
       rx="6"
       ry="6"
       fill="url(#linearGradient3721)"
       opacity=".45"
       id="rect65" />
  </g>
  <g
     id="g79">
    <rect
       x="6"
       y="64"
       width="84"
       height="26"
       rx="6"
       ry="6"
       color="#000000"
       fill="url(#linearGradient3870)"
       id="rect69" />
    <g
       id="g77">
      <path
         d="m6 82v2c0 3.324 2.676 6 6 6h72c3.324 0 6-2.676 6-6v-2c0 3.324-2.676 6-6 6h-72c-3.324 0-6-2.676-6-6z"
         color="#000000"
         opacity=".1"
         id="path71" />
      <path
         d="m6 83v1c0 3.324 2.676 6 6 6h72c3.324 0 6-2.676 6-6v-1c0 3.324-2.676 6-6 6h-72c-3.324 0-6-2.676-6-6z"
         color="#000000"
         opacity=".1"
         id="path73" />
      <path
         d="m6 80v1c0 3.324 2.676 6 6 6h72c3.324 0 6-2.676 6-6v-1c0 3.324-2.676 6-6 6h-72c-3.324 0-6-2.676-6-6z"
         opacity=".2"
         id="path75" />
    </g>
  </g>
  <g
     id="g87">
    <rect
       x="6"
       y="6"
       width="84"
       height="80"
       rx="6"
       ry="6"
       fill="url(#linearGradient3617)"
       id="rect81" />
    <path
       d="m12 86c-3.324 0-6-2.676-6-6v-68c0-3.324 2.676-6 6-6h72c3.324 0 6 2.676 6 6v68c0 3.324-2.676 6-6 6zm0-0.96875h72c2.8049 0 5.0312-2.2264 5.0312-5.0312v-68c0-2.8049-2.2264-5.0312-5.0312-5.0312h-72c-2.8049 0-5.0312 2.2264-5.0312 5.0312v68c0 2.8049 2.2264 5.0312 5.0312 5.0312z"
       fill="url(#linearGradient4390)"
       opacity=".3"
       id="path83" />
    <path
       d="m6 78v2c0 3.324 2.676 6 6 6h72c3.324 0 6-2.676 6-6v-2c0 3.324-2.676 6-6 6h-72c-3.324 0-6-2.676-6-6z"
       fill="url(#linearGradient4429)"
       opacity=".1"
       id="path85" />
  </g>
  <g
     id="g91">
    <rect
       x="15"
       y="15"
       width="66"
       height="62"
       rx="12"
       ry="12"
       clip-path="url(#clipPath4355)"
       fill="url(#linearGradient3613)"
       filter="url(#filter3794)"
       opacity=".1"
       stroke="#fff"
       stroke-linecap="round"
       stroke-width=".5"
       id="rect89" />
  </g>
  <defs
     id="defs101">
    <filter
       id="w">
      <feGaussianBlur
         stdDeviation="0.23199685"
         id="feGaussianBlur93" />
    </filter>
    <linearGradient
       id="a"
       gradientUnits="userSpaceOnUse"
       x1="8"
       y1="1"
       x2="8"
       y2="14.999981">
      <stop
         stop-color="#fafafa"
         offset="0"
         id="stop96" />
      <stop
         stop-color="#ebebeb"
         offset="1"
         id="stop98" />
    </linearGradient>
  </defs>
  <g
     transform="translate(0,-2)"
     id="g123">
    <path
       style="opacity:0.15;fill:#000000"
       d="m 6.5,0.75 a 0.250025,0.250025 0 0 0 -0.089844,0.0175781 C 4.9350563,0.817681 3.75,2.012662 3.75,3.5 V 8.9667969 C 3.1360548,9.633411 2.75,10.518794 2.75,11.5 c 0,1.884494 1.3900308,3.425996 3.1992188,3.693359 C 6.1268451,15.229137 6.3119187,15.25 6.5,15.25 c 0.1880813,0 0.3731549,-0.02086 0.5507812,-0.05664 C 8.8600562,14.925956 10.25,13.384484 10.25,11.5 c 0,-0.981171 -0.3860648,-1.8665446 -1,-2.5332031 V 3.5 C 9.25,2.0106648 8.0618577,0.8146249 6.5839844,0.76757812 A 0.250025,0.250025 0 0 0 6.5039062,0.75 0.250025,0.250025 0 0 0 6.5,0.75 Z m 3.5,1 A 0.250025,0.250025 0 0 0 9.75,2 V 3 A 0.250025,0.250025 0 0 0 10,3.25 h 3 A 0.250025,0.250025 0 0 0 13.25,3 V 2 A 0.250025,0.250025 0 0 0 13,1.75 Z m -3.5,0.5 c 0.6968243,0 1.25,0.5531757 1.25,1.25 v 6.0078125 a 0.250025,0.250025 0 0 0 0.099609,0.1992187 C 8.3955461,10.118025 8.75,10.761385 8.75,11.5 c 0,1.156841 -0.8581198,2.085278 -1.9765625,2.220703 a 0.250025,0.250025 0 0 0 -0.021484,0.0039 C 6.6689384,13.741511 6.5856838,13.75 6.5,13.75 c -0.085684,0 -0.1689419,-0.0085 -0.2519531,-0.02539 a 0.250025,0.250025 0 0 0 -0.021484,-0.0039 C 5.1081892,13.585372 4.25,12.656836 4.25,11.5 4.25,10.76144 4.6044423,10.118078 5.1503906,9.7070312 A 0.250025,0.250025 0 0 0 5.25,9.5078125 V 3.5 C 5.25,2.8031757 5.8031757,2.25 6.5,2.25 Z m 0,0.5 C 6.0888243,2.75 5.75,3.0888243 5.75,3.5 v 6.4453125 c -0.5847412,0.2819235 -1,0.8616225 -1,1.5546875 0,0.965176 0.7848243,1.75 1.75,1.75 0.9651757,0 1.75,-0.784824 1.75,-1.75 0,-0.693065 -0.4152548,-1.272769 -1,-1.5546875 V 3.5 C 7.25,3.0888243 6.9111757,2.75 6.5,2.75 Z m 3.5,1 A 0.250025,0.250025 0 0 0 9.75,4 V 5 A 0.250025,0.250025 0 0 0 10,5.25 h 3 A 0.250025,0.250025 0 0 0 13.25,5 V 4 A 0.250025,0.250025 0 0 0 13,3.75 Z m 0,2 A 0.250025,0.250025 0 0 0 9.75,6 V 7 A 0.250025,0.250025 0 0 0 10,7.25 h 3 A 0.250025,0.250025 0 0 0 13.25,7 V 6 A 0.250025,0.250025 0 0 0 13,5.75 Z"
       id="path103"
       inkscape:original="m6.5 1c-1.385 0-2.5 1.115-2.5 2.5v5.5527c-0.61708 0.63044-1 1.4913-1 2.4473 0 1.7656 1.2988 3.2036 2.9941 3.4492 0.16304 0.033193 0.33273 0.050781 0.50586 0.050781s0.34282-0.017588 0.50586-0.050781c1.6954-0.24564 2.9941-1.6836 2.9941-3.4492 0-0.95596-0.38292-1.8168-1-2.4473v-5.5527c0-1.385-1.115-2.5-2.5-2.5zm0 1c0.831 0 1.5 0.669 1.5 1.5v6.0078c0.60499 0.45545 1 1.1732 1 1.9922 0 1.2814-0.95766 2.3187-2.1973 2.4688-0.097822 0.019916-0.19886 0.03125-0.30273 0.03125s-0.20491-0.011334-0.30273-0.03125c-1.2396-0.15-2.1973-1.1874-2.1973-2.4688 0-0.81895 0.39501-1.5367 1-1.9922v-6.0078c0-0.831 0.669-1.5 1.5-1.5zm3.5 0v1h3v-1h-3zm-3.5 1c-0.277 0-0.5 0.223-0.5 0.5v6.5918c-0.58192 0.20601-1 0.75396-1 1.4082 0 0.831 0.669 1.5 1.5 1.5s1.5-0.669 1.5-1.5c0-0.65424-0.41808-1.2022-1-1.4082v-6.5918c0-0.277-0.223-0.5-0.5-0.5zm3.5 1v1h3v-1h-3zm0 2v1h3v-1h-3z"
       transform="matrix(4,0,0,4,16,17)"
       inkscape:radius="0.25"
       sodipodi:type="inkscape:offset" />
    <g
       id="Bevel1">
      <path
         fill="#000"
         opacity=".10"
         sodipodi:type="inkscape:offset"
         inkscape:radius="0.5"
         transform="translate(16,17) scale(4)"
         inkscape:original="m6.5 1c-1.385 0-2.5 1.115-2.5 2.5v5.5527c-0.61708 0.63044-1 1.4913-1 2.4473 0 1.7656 1.2988 3.2036 2.9941 3.4492 0.16304 0.033193 0.33273 0.050781 0.50586 0.050781s0.34282-0.017588 0.50586-0.050781c1.6954-0.24564 2.9941-1.6836 2.9941-3.4492 0-0.95596-0.38292-1.8168-1-2.4473v-5.5527c0-1.385-1.115-2.5-2.5-2.5zm0 1c0.831 0 1.5 0.669 1.5 1.5v6.0078c0.60499 0.45545 1 1.1732 1 1.9922 0 1.2814-0.95766 2.3187-2.1973 2.4688-0.097822 0.019916-0.19886 0.03125-0.30273 0.03125s-0.20491-0.011334-0.30273-0.03125c-1.2396-0.15-2.1973-1.1874-2.1973-2.4688 0-0.81895 0.39501-1.5367 1-1.9922v-6.0078c0-0.831 0.669-1.5 1.5-1.5zm3.5 0v1h3v-1h-3zm-3.5 1c-0.277 0-0.5 0.223-0.5 0.5v6.5918c-0.58192 0.20601-1 0.75396-1 1.4082 0 0.831 0.669 1.5 1.5 1.5s1.5-0.669 1.5-1.5c0-0.65424-0.41808-1.2022-1-1.4082v-6.5918c0-0.277-0.223-0.5-0.5-0.5zm3.5 1v1h3v-1h-3zm0 2v1h3v-1h-3z"
         id="path106" />
    </g>
    <g
       id="Bevel2">
      <path
         fill="#000"
         opacity=".05"
         sodipodi:type="inkscape:offset"
         inkscape:radius="0.75"
         transform="translate(16,17) scale(4)"
         inkscape:original="m6.5 1c-1.385 0-2.5 1.115-2.5 2.5v5.5527c-0.61708 0.63044-1 1.4913-1 2.4473 0 1.7656 1.2988 3.2036 2.9941 3.4492 0.16304 0.033193 0.33273 0.050781 0.50586 0.050781s0.34282-0.017588 0.50586-0.050781c1.6954-0.24564 2.9941-1.6836 2.9941-3.4492 0-0.95596-0.38292-1.8168-1-2.4473v-5.5527c0-1.385-1.115-2.5-2.5-2.5zm0 1c0.831 0 1.5 0.669 1.5 1.5v6.0078c0.60499 0.45545 1 1.1732 1 1.9922 0 1.2814-0.95766 2.3187-2.1973 2.4688-0.097822 0.019916-0.19886 0.03125-0.30273 0.03125s-0.20491-0.011334-0.30273-0.03125c-1.2396-0.15-2.1973-1.1874-2.1973-2.4688 0-0.81895 0.39501-1.5367 1-1.9922v-6.0078c0-0.831 0.669-1.5 1.5-1.5zm3.5 0v1h3v-1h-3zm-3.5 1c-0.277 0-0.5 0.223-0.5 0.5v6.5918c-0.58192 0.20601-1 0.75396-1 1.4082 0 0.831 0.669 1.5 1.5 1.5s1.5-0.669 1.5-1.5c0-0.65424-0.41808-1.2022-1-1.4082v-6.5918c0-0.277-0.223-0.5-0.5-0.5zm3.5 1v1h3v-1h-3zm0 2v1h3v-1h-3z"
         id="path109" />
    </g>
    <path
       d="m6.5 1c-1.385 0-2.5 1.115-2.5 2.5v5.5527c-0.61708 0.63044-1 1.4913-1 2.4473 0 1.7656 1.2988 3.2036 2.9941 3.4492 0.16304 0.033193 0.33273 0.050781 0.50586 0.050781s0.34282-0.017588 0.50586-0.050781c1.6954-0.24564 2.9941-1.6836 2.9941-3.4492 0-0.95596-0.38292-1.8168-1-2.4473v-5.5527c0-1.385-1.115-2.5-2.5-2.5zm0 1c0.831 0 1.5 0.669 1.5 1.5v6.0078c0.60499 0.45545 1 1.1732 1 1.9922 0 1.2814-0.95766 2.3187-2.1973 2.4688-0.097822 0.019916-0.19886 0.03125-0.30273 0.03125s-0.20491-0.011334-0.30273-0.03125c-1.2396-0.15-2.1973-1.1874-2.1973-2.4688 0-0.81895 0.39501-1.5367 1-1.9922v-6.0078c0-0.831 0.669-1.5 1.5-1.5zm3.5 0v1h3v-1h-3zm-3.5 1c-0.277 0-0.5 0.223-0.5 0.5v6.5918c-0.58192 0.20601-1 0.75396-1 1.4082 0 0.831 0.669 1.5 1.5 1.5s1.5-0.669 1.5-1.5c0-0.65424-0.41808-1.2022-1-1.4082v-6.5918c0-0.277-0.223-0.5-0.5-0.5zm3.5 1v1h3v-1h-3zm0 2v1h3v-1h-3z"
       fill="url(#a)"
       id="base"
       transform="translate(16,16) scale(4)" />
    <path
       style="opacity:0.3;fill:#000000;stroke-width:4"
       d="M 42 22 C 38.676 22 36 24.676 36 28 L 36 29 C 36 25.676 38.676 23 42 23 C 45.324 23 48 25.676 48 29 L 48 28 C 48 24.676 45.324 22 42 22 z M 56 26 L 56 27 L 68 27 L 68 26 L 56 26 z M 56 34 L 56 35 L 68 35 L 68 34 L 56 34 z M 56 42 L 56 43 L 68 43 L 68 42 L 56 42 z M 36 52.03125 C 33.58004 53.85325 32 56.7242 32 60 C 32 60.188533 32.017112 60.37283 32.027344 60.558594 C 32.163527 57.468862 33.690497 54.770087 36 53.03125 L 36 52.03125 z M 48 52.03125 L 48 53.03125 C 50.309503 54.769896 51.836473 57.468689 51.972656 60.558594 C 51.982887 60.372831 52 60.188533 52 60 C 52 56.724 50.41996 53.85305 48 52.03125 z M 28.023438 60.517578 C 28.017928 60.678997 28 60.837159 28 61 C 28 68.0624 33.195363 73.814475 39.976562 74.796875 C 40.628723 74.929635 41.30748 75 42 75 C 42.69252 75 43.371277 74.929635 44.023438 74.796875 C 50.805037 73.814315 56 68.0624 56 61 C 56 60.837166 55.982072 60.678991 55.976562 60.517578 C 55.72824 67.340151 50.637403 72.838603 44.023438 73.796875 C 43.371277 73.929635 42.69252 74 42 74 C 41.30748 74 40.628723 73.929635 39.976562 73.796875 C 33.362987 72.838759 28.271778 67.340159 28.023438 60.517578 z M 36.03125 60.615234 C 36.022963 60.744242 36 60.868734 36 61 C 36 64.324 38.676 67 42 67 C 45.324 67 48 64.324 48 61 C 48 60.868734 47.977037 60.744242 47.96875 60.615234 C 47.662583 63.64812 45.11625 66 42 66 C 38.88375 66 36.337417 63.64812 36.03125 60.615234 z "
       transform="translate(0,2)"
       id="path113" />
    <path
       style="fill:#ffffff;stroke-width:4"
       d="M 42 18 C 36.46 18 32 22.46 32 28 L 32 29 C 32 23.46 36.46 19 42 19 C 47.54 19 52 23.46 52 29 L 52 28 C 52 22.46 47.54 18 42 18 z M 56 22 L 56 23 L 68 23 L 68 22 L 56 22 z M 42 26 C 40.892 26 40 26.892 40 28 L 40 29 C 40 27.892 40.892 27 42 27 C 43.108 27 44 27.892 44 29 L 44 28 C 44 26.892 43.108 26 42 26 z M 56 30 L 56 31 L 68 31 L 68 30 L 56 30 z M 56 38 L 56 39 L 68 39 L 68 38 L 56 38 z M 32 50.210938 C 29.53168 52.732698 28 56.176 28 60 C 28 60.174576 28.017143 60.344656 28.023438 60.517578 C 28.147299 56.88839 29.636791 53.625311 32 51.210938 L 32 50.210938 z M 52 50.210938 L 52 51.210938 C 54.363209 53.625541 55.852701 56.888536 55.976562 60.517578 C 55.982856 60.344656 56 60.174576 56 60 C 56 56.17616 54.46832 52.732938 52 50.210938 z M 40 54.367188 C 37.67232 55.191227 36 57.38304 36 60 C 36 60.205777 36.01122 60.409046 36.03125 60.609375 C 36.190381 58.16908 37.790843 56.149268 40 55.367188 L 40 54.367188 z M 44 54.367188 L 44 55.367188 C 46.209157 56.14923 47.809619 58.169076 47.96875 60.609375 C 47.98878 60.409046 48 60.205777 48 60 C 48 57.38304 46.32768 55.191188 44 54.367188 z M 32.027344 60.558594 C 32.02083 60.706367 32 60.850479 32 61 C 32 66.1256 35.830663 70.275 40.789062 70.875 C 41.180343 70.95468 41.58452 71 42 71 C 42.41548 71 42.819649 70.95468 43.210938 70.875 C 48.169498 70.2746 52 66.1256 52 61 C 52 60.85047 51.97917 60.706375 51.972656 60.558594 C 51.704742 65.423121 47.987108 69.296684 43.210938 69.875 C 42.819649 69.95468 42.41548 70 42 70 C 41.58452 70 41.180343 69.95468 40.789062 69.875 C 36.013046 69.29707 32.295269 65.423148 32.027344 60.558594 z "
       transform="translate(0,2)"
       id="path118" />
  </g>
</svg>
