<?xml version="1.0" encoding="UTF-8" standalone="no"?>
<svg
   xmlns:dc="http://purl.org/dc/elements/1.1/"
   xmlns:cc="http://creativecommons.org/ns#"
   xmlns:rdf="http://www.w3.org/1999/02/22-rdf-syntax-ns#"
   xmlns:svg="http://www.w3.org/2000/svg"
   xmlns="http://www.w3.org/2000/svg"
   xmlns:xlink="http://www.w3.org/1999/xlink"
   xmlns:sodipodi="http://sodipodi.sourceforge.net/DTD/sodipodi-0.dtd"
   xmlns:inkscape="http://www.inkscape.org/namespaces/inkscape"
   width="96"
   height="96"
   version="1.1"
   id="svg77"
   sodipodi:docname="qcad.svg"
   inkscape:version="0.92.2 5c3e80d, 2017-08-06">
  <metadata
     id="metadata81">
    <rdf:RDF>
      <cc:Work
         rdf:about="">
        <dc:format>image/svg+xml</dc:format>
        <dc:type
           rdf:resource="http://purl.org/dc/dcmitype/StillImage" />
      </cc:Work>
    </rdf:RDF>
  </metadata>
  <sodipodi:namedview
     pagecolor="#ffffff"
     bordercolor="#666666"
     borderopacity="1"
     objecttolerance="10"
     gridtolerance="10"
     guidetolerance="10"
     inkscape:pageopacity="0"
     inkscape:pageshadow="2"
     inkscape:window-width="640"
     inkscape:window-height="480"
     id="namedview79"
     showgrid="false"
     inkscape:zoom="2.4583333"
     inkscape:cx="48"
     inkscape:cy="48"
     inkscape:window-x="0"
     inkscape:window-y="25"
     inkscape:window-maximized="0"
     inkscape:current-layer="svg77" />
  <defs
     id="defs2410">
    <linearGradient
       id="linearGradient4384">
      <stop
         id="stop4386"
         stop-color="#fff"
         offset="0" />
      <stop
         id="stop4388"
         stop-color="#fff"
         stop-opacity="0"
         offset="1" />
    </linearGradient>
    <filter
       id="filter3794"
       x="-.192"
       y="-.192"
       width="1.384"
       height="1.384">
      <feGaussianBlur
         id="feGaussianBlur3796"
         stdDeviation="5.28" />
    </filter>
    <linearGradient
       id="linearGradient3613"
       x1="48"
       x2="48"
       y1="20.221"
       y2="138.66"
       gradientUnits="userSpaceOnUse">
      <stop
         id="stop3739"
         stop-color="#fff"
         offset="0" />
      <stop
         id="stop3741"
         stop-color="#fff"
         stop-opacity="0"
         offset="1" />
    </linearGradient>
    <linearGradient
       id="buttonGradient"
       x1="48"
       x2="48"
       y1="90"
       y2="5.9877"
       gradientUnits="userSpaceOnUse">
      <stop
         id="stop3702"
         stop-color="#5f709b"
         offset="0" />
      <stop
         id="stop3704"
         stop-color="#8b98ba"
         offset="1" />
    </linearGradient>
    <linearGradient
       id="ButtonShadow-0"
       x1="45.448"
       x2="45.448"
       y1="92.54"
       y2="7.0165"
       gradientTransform="matrix(1.0059 0 0 .99417 100 0)"
       gradientUnits="userSpaceOnUse">
      <stop
         id="stop3750-8"
         offset="0" />
      <stop
         id="stop3752-5"
         stop-opacity=".58824"
         offset="1" />
    </linearGradient>
    <linearGradient
       id="linearGradient3780"
       x1="32.251"
       x2="32.251"
       y1="6.1317"
       y2="90.239"
       gradientTransform="matrix(1.0238 0 0 1.0119 -1.1429 -98.071)"
       gradientUnits="userSpaceOnUse"
       xlink:href="#ButtonShadow-0" />
    <linearGradient
       id="linearGradient3721"
       x1="32.251"
       x2="32.251"
       y1="6.1317"
       y2="90.239"
       gradientTransform="translate(0,-97)"
       gradientUnits="userSpaceOnUse"
       xlink:href="#ButtonShadow-0" />
    <clipPath
       id="clipPath4355">
      <rect
         id="rect4357"
         x="6"
         y="6"
         width="84"
         height="80"
         rx="6"
         ry="6"
         fill="#fff" />
    </clipPath>
    <linearGradient
       id="linearGradient4390"
       x1="48"
       x2="48"
       y1="88"
       y2="-40"
       gradientTransform="matrix(1,0,0,-1,0,92)"
       gradientUnits="userSpaceOnUse"
       xlink:href="#linearGradient4384" />
    <linearGradient
       id="linearGradient4429"
       x1="48"
       x2="112.12"
       y1="82"
       y2="82.455"
       gradientUnits="userSpaceOnUse"
       spreadMethod="reflect"
       xlink:href="#linearGradient4384" />
    <linearGradient
       id="linearGradient3228"
       x1="90"
       x2="48"
       y1="88"
       y2="88"
       gradientUnits="userSpaceOnUse"
       spreadMethod="reflect">
      <stop
         id="stop3894"
         stop-opacity=".58824"
         offset="0" />
      <stop
         id="stop3896"
         stop-opacity=".47059"
         offset=".1178" />
      <stop
         id="stop3898"
         stop-opacity=".39216"
         offset=".2381" />
      <stop
         id="stop3900"
         stop-opacity=".31373"
         offset="1" />
    </linearGradient>
  </defs>
  <g
     id="layer3">
    <g
       id="g32"
       fill="url(#linearGradient3780)">
      <path
         id="path3786"
         transform="scale(1,-1)"
         d="m12-95.021c-5.5111 0-10.022 4.51-10.022 10.021v71c0 5.5111 4.5104 10.021 10.021 10.021h72c5.5111 0 10.021-4.5104 10.021-10.021v-71c0-5.5111-4.5104-10.021-10.021-10.021h-72z"
         opacity=".08" />
      <path
         id="path3778"
         transform="scale(1,-1)"
         d="m12-94.035c-4.9716 0-9.0352 4.0635-9.0352 9.0352v71c0 4.9716 4.0635 9.0352 9.0352 9.0352h72c4.9716 0 9.0352-4.0635 9.0352-9.0352v-71c0-4.9716-4.0635-9.0352-9.0352-9.0352h-72z"
         opacity=".1" />
      <path
         id="path3770"
         transform="scale(1,-1)"
         d="m12-92.99c-4.4091 0-7.9902 3.5811-7.9902 7.9902v71c0 4.4091 3.5811 7.9902 7.9902 7.9902h72c4.4091 0 7.9902-3.5811 7.9902-7.9902v-71c0-4.4091-3.5811-7.9902-7.9902-7.9902h-72z"
         opacity=".2" />
      <rect
         id="rect3723"
         transform="scale(1,-1)"
         x="5"
         y="-92"
         width="86"
         height="85"
         rx="7"
         ry="7"
         opacity=".3" />
    </g>
    <rect
       id="rect3716"
       transform="scale(1,-1)"
       x="6"
       y="-91"
       width="84"
       height="84"
       rx="6"
       ry="6"
       fill="url(#linearGradient3721)"
       opacity=".45" />
  </g>
  <g
     id="layer1">
    <rect
       id="button"
       x="6"
       y="6"
       width="84"
       height="84"
       rx="6"
       ry="6"
       fill="url(#buttonGradient)" />
    <path
       id="rect4377"
       d="m12 86c-3.324 0-6-2.676-6-6v-68c0-3.324 2.676-6 6-6h72c3.324 0 6 2.676 6 6v68c0 3.324-2.676 6-6 6zm0-0.96875h72c2.8049 0 5.0312-2.2264 5.0312-5.0312v-68c0-2.8049-2.226-5.0312-5.031-5.0312h-72c-2.8049 0-5.0312 2.2263-5.0312 5.0312v68c0 2.8049 2.2264 5.0312 5.0312 5.0312z"
       fill="url(#linearGradient4390)"
       opacity=".3" />
    <path
       id="rect4414"
       d="m6 78v2c0 3.324 2.676 6 6 6h72c3.324 0 6-2.676 6-6v-2c0 3.324-2.676 6-6 6h-72c-3.324 0-6-2.676-6-6z"
       fill="url(#linearGradient4429)"
       opacity=".1" />
  </g>
  <g
     id="layer4">
    <path
       id="path3888"
       d="m6 80v4c0 3.324 2.676 6 6 6h72c3.324 0 6-2.676 6-6v-4c0 3.324-2.676 6-6 6h-72c-3.324 0-6-2.676-6-6z"
       fill="url(#linearGradient3228)" />
    <path
       id="rect4345"
       d="m6 82v2c0 3.324 2.676 6 6 6h72c3.324 0 6-2.676 6-6v-2c0 3.324-2.676 6-6 6h-72c-3.324 0-6-2.676-6-6z"
       color="#000000"
       opacity=".1" />
    <path
       id="rect4336"
       d="m6 83v1c0 3.324 2.676 6 6 6h72c3.324 0 6-2.676 6-6v-1c0 3.324-2.676 6-6 6h-72c-3.324 0-6-2.676-6-6z"
       color="#000000"
       opacity=".15" />
  </g>
  <g
     id="layer5">
    <rect
       id="rect3171"
       x="15"
       y="15"
       width="66"
       height="62"
       rx="12"
       ry="12"
       clip-path="url(#clipPath4355)"
       fill="url(#linearGradient3613)"
       filter="url(#filter3794)"
       opacity=".1"
       stroke="#fff"
       stroke-linecap="round"
       stroke-width=".5" />
  </g>
  <defs
     id="defs53">
    <filter
       id="w">
      <feGaussianBlur
         stdDeviation="0.23199685"
         id="feGaussianBlur45" />
    </filter>
    <linearGradient
       id="a"
       gradientUnits="userSpaceOnUse"
       x1="8"
       y1="1"
       x2="8"
       y2="15.00005">
      <stop
         stop-color="#fafafa"
         offset="0"
         id="stop48" />
      <stop
         stop-color="#ebebeb"
         offset="1"
         id="stop50" />
    </linearGradient>
  </defs>
  <g
     transform="translate(0,-2)"
     id="g75">
    <path
       style="opacity:0.15;fill:#000000"
       d="m 8,0.75 a 0.250025,0.250025 0 0 0 -0.089844,0.0175781 C 7.2657379,0.81614567 6.75,1.3435759 6.75,2 V 3.1601562 C 6.1547318,3.5624651 5.75,4.2261691 5.75,5 c 0,0.6039322 0.2819259,1.1110551 0.6699219,1.5117188 l -0.53125,0.265625 A 0.250025,0.250025 0 0 0 5.7714844,6.8984375 L 4.4941406,9.75 H 2.4375 C 2.0626667,9.75 1.75,10.062667 1.75,10.4375 v 0.125 c 0,0.374833 0.3126667,0.6875 0.6875,0.6875 h 1.5566406 l -0.2304687,0.667969 a 0.250025,0.250025 0 0 0 -0.00195,0.162109 l 1,3 a 0.250025,0.250025 0 0 0 0.4726562,0.0078 L 6.6738281,11.25 h 2.6523438 l 1.4394531,3.837891 a 0.250025,0.250025 0 0 0 0.470703,-0.0078 l 1,-3 a 0.250025,0.250025 0 0 0 0,-0.162109 L 12.005859,11.25 H 13.5625 c 0.374833,0 0.6875,-0.312667 0.6875,-0.6875 v -0.125 c 0,-0.125515 0.01815,-0.289081 -0.09961,-0.4570312 C 14.032631,9.8125185 13.816768,9.75 13.5625,9.75 H 11.505859 L 10.228516,6.8984375 A 0.250025,0.250025 0 0 0 10.111328,6.7773438 L 9.578125,6.5117188 C 9.9664486,6.1110115 10.25,5.6042605 10.25,5 10.25,4.2262099 9.8452534,3.562508 9.25,3.1601562 V 2 C 9.25,1.3416989 8.7310065,0.81345462 8.0839844,0.76757812 A 0.250025,0.250025 0 0 0 8.0039062,0.75 c -0.00133,-4.21e-6 -0.00257,0 -0.00391,0 z m 0,3.5 C 8.4171674,4.25 8.75,4.5828326 8.75,5 8.75,5.4171674 8.4171674,5.75 8,5.75 7.5828326,5.75 7.25,5.4171674 7.25,5 7.25,4.5828326 7.5828326,4.25 8,4.25 Z M 8,7.6796875 8.8203125,9.75 h -1.640625 z"
       id="path55"
       inkscape:original="m8 1c-0.554 0-1 0.446-1 1v1.2812c-0.5969 0.34604-1 0.97915-1 1.7188 0 0.65798 0.32209 1.2293 0.8125 1.5938l-0.8125 0.40625-1.3438 3h-2.2188c-0.25103 0-0.4375 0.18647-0.4375 0.4375v0.125c0 0.25103 0.18647 0.4375 0.4375 0.4375h1.9062l-0.34375 1 1 3 1.5-4h3l1.5 4 1-3-0.34375-1h1.9062c0.25103 0 0.4375-0.18647 0.4375-0.4375v-0.125c0-0.25103 0-0.4375-0.4375-0.4375h-2.2188l-1.3438-3-0.8125-0.40625c0.49041-0.36449 0.8125-0.93577 0.8125-1.5938 0-0.7396-0.4031-1.3727-1-1.7188v-1.2812c0-0.554-0.446-1-1-1zm0 3c0.55228 0 1 0.44772 1 1s-0.44772 1-1 1-1-0.44772-1-1 0.44772-1 1-1zm0 3 1.1875 3h-2.375z"
       transform="matrix(4,0,0,4,16,17)"
       inkscape:radius="0.25"
       sodipodi:type="inkscape:offset" />
    <g
       id="Bevel1">
      <path
         fill="#000"
         opacity=".10"
         sodipodi:type="inkscape:offset"
         inkscape:radius="0.5"
         transform="translate(16,17) scale(4)"
         inkscape:original="m8 1c-0.554 0-1 0.446-1 1v1.2812c-0.5969 0.34604-1 0.97915-1 1.7188 0 0.65798 0.32209 1.2293 0.8125 1.5938l-0.8125 0.40625-1.3438 3h-2.2188c-0.25103 0-0.4375 0.18647-0.4375 0.4375v0.125c0 0.25103 0.18647 0.4375 0.4375 0.4375h1.9062l-0.34375 1 1 3 1.5-4h3l1.5 4 1-3-0.34375-1h1.9062c0.25103 0 0.4375-0.18647 0.4375-0.4375v-0.125c0-0.25103 0-0.4375-0.4375-0.4375h-2.2188l-1.3438-3-0.8125-0.40625c0.49041-0.36449 0.8125-0.93577 0.8125-1.5938 0-0.7396-0.4031-1.3727-1-1.7188v-1.2812c0-0.554-0.446-1-1-1zm0 3c0.55228 0 1 0.44772 1 1s-0.44772 1-1 1-1-0.44772-1-1 0.44772-1 1-1zm0 3 1.1875 3h-2.375z"
         id="path58" />
    </g>
    <g
       id="Bevel2">
      <path
         fill="#000"
         opacity=".05"
         sodipodi:type="inkscape:offset"
         inkscape:radius="0.75"
         transform="translate(16,17) scale(4)"
         inkscape:original="m8 1c-0.554 0-1 0.446-1 1v1.2812c-0.5969 0.34604-1 0.97915-1 1.7188 0 0.65798 0.32209 1.2293 0.8125 1.5938l-0.8125 0.40625-1.3438 3h-2.2188c-0.25103 0-0.4375 0.18647-0.4375 0.4375v0.125c0 0.25103 0.18647 0.4375 0.4375 0.4375h1.9062l-0.34375 1 1 3 1.5-4h3l1.5 4 1-3-0.34375-1h1.9062c0.25103 0 0.4375-0.18647 0.4375-0.4375v-0.125c0-0.25103 0-0.4375-0.4375-0.4375h-2.2188l-1.3438-3-0.8125-0.40625c0.49041-0.36449 0.8125-0.93577 0.8125-1.5938 0-0.7396-0.4031-1.3727-1-1.7188v-1.2812c0-0.554-0.446-1-1-1zm0 3c0.55228 0 1 0.44772 1 1s-0.44772 1-1 1-1-0.44772-1-1 0.44772-1 1-1zm0 3 1.1875 3h-2.375z"
         id="path61" />
    </g>
    <path
       d="m8 1c-0.554 0-1 0.446-1 1v1.2812c-0.5969 0.34604-1 0.97915-1 1.7188 0 0.65798 0.32209 1.2293 0.8125 1.5938l-0.8125 0.40625-1.3438 3h-2.2188c-0.25103 0-0.4375 0.18647-0.4375 0.4375v0.125c0 0.25103 0.18647 0.4375 0.4375 0.4375h1.9062l-0.34375 1 1 3 1.5-4h3l1.5 4 1-3-0.34375-1h1.9062c0.25103 0 0.4375-0.18647 0.4375-0.4375v-0.125c0-0.25103 0-0.4375-0.4375-0.4375h-2.2188l-1.3438-3-0.8125-0.40625c0.49041-0.36449 0.8125-0.93577 0.8125-1.5938 0-0.7396-0.4031-1.3727-1-1.7188v-1.2812c0-0.554-0.446-1-1-1zm0 3c0.55228 0 1 0.44772 1 1s-0.44772 1-1 1-1-0.44772-1-1 0.44772-1 1-1zm0 3 1.1875 3h-2.375z"
       fill="url(#a)"
       id="base"
       transform="translate(16,16) scale(4)" />
    <path
       style="opacity:0.3;fill:#000000;stroke-width:4"
       d="M 48 30 C 45.79088 30 44 31.79088 44 34 C 44 34.171164 44.029917 34.334496 44.050781 34.5 C 44.299195 32.529436 45.962044 31 48 31 C 50.037956 31 51.700805 32.529436 51.949219 34.5 C 51.970083 34.334496 52 34.171164 52 34 C 52 31.79088 50.20912 30 48 30 z M 55.966797 34.523438 C 55.807433 36.93249 54.577469 39.015309 52.748047 40.375 L 53.492188 40.748047 C 55.027777 39.300648 55.998047 37.281667 55.998047 35 C 55.998047 34.838014 55.976328 34.68275 55.966797 34.523438 z M 40.03125 34.53125 C 40.022028 34.687998 40 34.840667 40 35 C 40 37.281494 40.97027 39.300593 42.505859 40.748047 L 43.25 40.375 C 41.422544 39.016733 40.19277 36.936861 40.03125 34.53125 z M 48 42 L 43.25 54 L 43.646484 54 L 48 43 L 52.353516 54 L 52.75 54 L 48 42 z M 71.986328 56.394531 C 71.91699 57.323177 71.204194 58 70.25 58 L 62.625 58 L 62.96875 59 L 70.25 59 C 71.25412 59 72 58.25412 72 57.25 L 72 56.75 C 72 56.622028 71.989951 56.513105 71.986328 56.394531 z M 24.023438 56.5 C 24.012705 56.58226 24 56.663606 24 56.75 L 24 57.25 C 24 58.25412 24.74588 59 25.75 59 L 33.03125 59 L 33.375 58 L 25.75 58 C 24.832274 58 24.137446 57.373812 24.023438 56.5 z M 42 58 L 36 74 L 32.169922 62.507812 L 32 63 L 36 75 L 42 59 L 54 59 L 60 75 L 64 63 L 63.830078 62.507812 L 60 74 L 54 58 L 42 58 z "
       transform="translate(0,2)"
       id="path65" />
    <path
       style="fill:#ffffff;stroke-width:4"
       d="M 47.998047 18 C 45.782968 18.001066 44 19.784663 44 22 L 44 23 C 44 20.784663 45.782968 19.001066 47.998047 19 L 48 19 C 50.215079 19.001066 51.998047 20.784663 51.998047 23 L 51.998047 22 C 51.998047 19.784663 50.215079 18.001066 48 18 L 47.998047 18 z M 44 27.125 C 41.6124 28.50916 40 31.0414 40 34 C 40 34.180034 40.01939 34.354614 40.03125 34.53125 C 40.193269 31.777394 41.740982 29.434617 44 28.125 L 44 27.125 z M 51.998047 27.125 L 51.998047 28.125 C 54.254915 29.433598 55.802265 31.773166 55.966797 34.523438 C 55.978315 34.349328 55.998047 34.177409 55.998047 34 C 55.998047 31.0416 54.385647 28.5094 51.998047 27.125 z M 44.050781 34.5 C 44.029917 34.665504 44 34.828836 44 35 C 44 37.20912 45.79088 39 48 39 C 50.20912 39 52 37.20912 52 35 C 52 34.828836 51.970083 34.665504 51.949219 34.5 C 51.700805 36.470564 50.037956 38 48 38 C 45.962044 38 44.299195 36.470564 44.050781 34.5 z M 42.505859 40.748047 L 40 42 L 34.625 54 L 25.75 54 C 24.74588 54 24 54.74588 24 55.75 L 24 56.25 C 24 56.336394 24.012705 56.41774 24.023438 56.5 C 24.137446 55.626188 24.832274 55 25.75 55 L 34.625 55 L 40 43 L 43.25 41.375 C 42.988818 41.180875 42.741718 40.970369 42.505859 40.748047 z M 53.492188 40.748047 C 53.256328 40.97036 53.009229 41.18088 52.748047 41.375 L 55.998047 43 L 61.373047 55 L 70.25 55 C 71.776967 55 71.961526 55.58273 71.986328 56.394531 C 71.989956 56.345942 72 56.299926 72 56.25 L 72 55.75 C 72 54.74588 72 54 70.25 54 L 61.373047 54 L 55.998047 42 L 53.492188 40.748047 z M 43.646484 54 L 43.25 55 L 52.75 55 L 52.353516 54 L 43.646484 54 z M 33.03125 59 L 32 62 L 32.169922 62.507812 L 33.375 59 L 33.03125 59 z M 62.625 59 L 63.830078 62.507812 L 64 62 L 62.96875 59 L 62.625 59 z "
       transform="translate(0,2)"
       id="path70" />
  </g>
</svg>
