<?xml version="1.0" encoding="UTF-8" standalone="no"?>
<!-- Created with Inkscape (http://www.inkscape.org/) -->

<svg
   xmlns:dc="http://purl.org/dc/elements/1.1/"
   xmlns:cc="http://creativecommons.org/ns#"
   xmlns:rdf="http://www.w3.org/1999/02/22-rdf-syntax-ns#"
   xmlns:svg="http://www.w3.org/2000/svg"
   xmlns="http://www.w3.org/2000/svg"
   xmlns:xlink="http://www.w3.org/1999/xlink"
   xmlns:sodipodi="http://sodipodi.sourceforge.net/DTD/sodipodi-0.dtd"
   xmlns:inkscape="http://www.inkscape.org/namespaces/inkscape"
   version="1.0"
   width="96"
   height="96"
   id="svg2408"
   inkscape:version="0.92.2 5c3e80d, 2017-08-06"
   sodipodi:docname="qucs.svg"
   inkscape:export-filename="/home/tobias/Desktop/Faenza-Fresh/apps v0.2/oregano.png"
   inkscape:export-xdpi="45"
   inkscape:export-ydpi="45">
  <sodipodi:namedview
     pagecolor="#ffffff"
     bordercolor="#666666"
     borderopacity="1"
     objecttolerance="10"
     gridtolerance="10"
     guidetolerance="10"
     inkscape:pageopacity="0"
     inkscape:pageshadow="2"
     inkscape:window-width="1366"
     inkscape:window-height="743"
     id="namedview61"
     showgrid="false"
     inkscape:zoom="3.4795507"
     inkscape:cx="24.867669"
     inkscape:cy="44.40774"
     inkscape:window-x="0"
     inkscape:window-y="25"
     inkscape:window-maximized="1"
     inkscape:current-layer="layer1"
     inkscape:snap-bbox="true"
     inkscape:bbox-paths="true"
     inkscape:snap-bbox-edge-midpoints="true"
     inkscape:bbox-nodes="true"
     inkscape:snap-bbox-midpoints="true"
     inkscape:object-paths="true"
     inkscape:snap-intersection-paths="true"
     inkscape:object-nodes="true"
     inkscape:snap-smooth-nodes="true"
     inkscape:snap-midpoints="true" />
  <defs
     id="defs2410">
    <linearGradient
       id="linearGradient3868">
      <stop
         offset="0"
         style="stop-color:#410264;stop-opacity:1;"
         id="stop3870" />
      <stop
         offset="1"
         style="stop-color:#be47eb;stop-opacity:1;"
         id="stop3872" />
    </linearGradient>
    <linearGradient
       id="linearGradient4085">
      <stop
         id="stop4087"
         style="stop-color:#782121;stop-opacity:1"
         offset="0" />
      <stop
         id="stop4089"
         style="stop-color:#782121;stop-opacity:0"
         offset="1" />
    </linearGradient>
    <linearGradient
       id="linearGradient3694">
      <stop
         id="stop3696"
         style="stop-color:#e6e6e6;stop-opacity:1"
         offset="0" />
      <stop
         id="stop3698"
         style="stop-color:#f5f5f5;stop-opacity:1"
         offset="1" />
    </linearGradient>
    <linearGradient
       id="linearGradient3688">
      <stop
         id="stop3690"
         style="stop-color:#878787;stop-opacity:1;"
         offset="0" />
      <stop
         id="stop3692"
         style="stop-color:#d8d8d8;stop-opacity:1;"
         offset="1" />
    </linearGradient>
    <linearGradient
       x1="45.447727"
       y1="92.539597"
       x2="45.447727"
       y2="7.0165396"
       id="ButtonShadow"
       gradientUnits="userSpaceOnUse"
       gradientTransform="scale(1.0058652,0.994169)">
      <stop
         id="stop3750"
         style="stop-color:#000000;stop-opacity:1"
         offset="0" />
      <stop
         id="stop3752"
         style="stop-color:#000000;stop-opacity:0.58823532"
         offset="1" />
    </linearGradient>
    <linearGradient
       id="linearGradient3737">
      <stop
         id="stop3739"
         style="stop-color:#ffffff;stop-opacity:1"
         offset="0" />
      <stop
         id="stop3741"
         style="stop-color:#ffffff;stop-opacity:0"
         offset="1" />
    </linearGradient>
    <filter
       color-interpolation-filters="sRGB"
       id="filter3174">
      <feGaussianBlur
         id="feGaussianBlur3176"
         stdDeviation="1.71" />
    </filter>
    <linearGradient
       x1="36.357143"
       y1="6"
       x2="36.357143"
       y2="63.893143"
       id="linearGradient3188"
       xlink:href="#linearGradient3737"
       gradientUnits="userSpaceOnUse"
       gradientTransform="translate(-18.093751,4.023508)" />
    <filter
       x="-0.192"
       y="-0.192"
       width="1.3839999"
       height="1.3839999"
       color-interpolation-filters="sRGB"
       id="filter3794">
      <feGaussianBlur
         id="feGaussianBlur3796"
         stdDeviation="5.28" />
    </filter>
    <linearGradient
       x1="48"
       y1="20.220806"
       x2="48"
       y2="138.66119"
       id="linearGradient3613"
       xlink:href="#linearGradient3737"
       gradientUnits="userSpaceOnUse" />
    <radialGradient
       cx="48"
       cy="90.171875"
       r="42"
       fx="48"
       fy="90.171875"
       id="radialGradient3619"
       xlink:href="#linearGradient3737"
       gradientUnits="userSpaceOnUse"
       gradientTransform="matrix(1.1573129,0,0,0.99590774,-94.582271,-9.861638)" />
    <clipPath
       id="clipPath3613">
      <rect
         width="84"
         height="84"
         rx="6"
         ry="6"
         x="6"
         y="6"
         id="rect3615"
         style="fill:#ffffff;fill-opacity:1;fill-rule:nonzero;stroke:none" />
    </clipPath>
    <linearGradient
       x1="48"
       y1="90"
       x2="48"
       y2="5.9877172"
       id="linearGradient3617"
       xlink:href="#linearGradient3868"
       gradientUnits="userSpaceOnUse" />
    <linearGradient
       x1="45.447727"
       y1="92.539597"
       x2="45.447727"
       y2="7.0165396"
       id="ButtonShadow-0"
       gradientUnits="userSpaceOnUse"
       gradientTransform="matrix(1.0058652,0,0,0.994169,100,0)">
      <stop
         id="stop3750-8"
         style="stop-color:#000000;stop-opacity:1"
         offset="0" />
      <stop
         id="stop3752-5"
         style="stop-color:#000000;stop-opacity:0.58823532"
         offset="1" />
    </linearGradient>
    <linearGradient
       x1="32.251034"
       y1="6.1317081"
       x2="32.251034"
       y2="90.238609"
       id="linearGradient3780"
       xlink:href="#ButtonShadow-0"
       gradientUnits="userSpaceOnUse"
       gradientTransform="matrix(1.0238095,0,0,1.0119048,-1.1428571,-98.071429)" />
    <linearGradient
       x1="32.251034"
       y1="6.1317081"
       x2="32.251034"
       y2="90.238609"
       id="linearGradient3772"
       xlink:href="#ButtonShadow-0"
       gradientUnits="userSpaceOnUse"
       gradientTransform="matrix(1.0238095,0,0,1.0119048,-1.1428571,-98.071429)" />
    <linearGradient
       x1="32.251034"
       y1="6.1317081"
       x2="32.251034"
       y2="90.238609"
       id="linearGradient3725"
       xlink:href="#ButtonShadow-0"
       gradientUnits="userSpaceOnUse"
       gradientTransform="matrix(1.0238095,0,0,1.0119048,-1.1428571,-98.071429)" />
    <linearGradient
       x1="32.251034"
       y1="6.1317081"
       x2="32.251034"
       y2="90.238609"
       id="linearGradient3721"
       xlink:href="#ButtonShadow-0"
       gradientUnits="userSpaceOnUse"
       gradientTransform="translate(0,-97)" />
    <linearGradient
       x1="32.251034"
       y1="6.1317081"
       x2="32.251034"
       y2="90.238609"
       id="linearGradient3026"
       xlink:href="#ButtonShadow-0"
       gradientUnits="userSpaceOnUse"
       gradientTransform="matrix(1.0238095,0,0,1.0119048,-1.1428571,-98.071429)" />
    <linearGradient
       x1="-73.494293"
       y1="72.699486"
       x2="-50.243786"
       y2="159.47563"
       id="linearGradient4018"
       xlink:href="#linearGradient3694"
       gradientUnits="userSpaceOnUse"
       gradientTransform="matrix(0.59136097,-0.15844727,-0.15844727,-0.59136097,103.35407,108.29989)" />
    <linearGradient
       x1="-73.494293"
       y1="72.699486"
       x2="-50.243786"
       y2="159.47563"
       id="linearGradient4071"
       xlink:href="#linearGradient3694"
       gradientUnits="userSpaceOnUse"
       gradientTransform="matrix(0.59136097,-0.15844727,-0.15844727,-0.59136097,103.35407,109.29989)" />
    <linearGradient
       x1="58"
       y1="19"
       x2="58"
       y2="120"
       id="linearGradient4091"
       xlink:href="#linearGradient4085"
       gradientUnits="userSpaceOnUse" />
    <clipPath
       clipPathUnits="userSpaceOnUse"
       id="clipPath3936">
      <rect
         style="fill:url(#linearGradient3940);fill-opacity:1;fill-rule:nonzero;stroke:none"
         id="rect3938"
         y="6"
         x="6"
         ry="6"
         rx="6"
         height="84"
         width="84" />
    </clipPath>
    <linearGradient
       inkscape:collect="always"
       xlink:href="#linearGradient3868"
       id="linearGradient3940"
       gradientUnits="userSpaceOnUse"
       x1="48"
       y1="90"
       x2="48"
       y2="5.9877172" />
    <linearGradient
       id="linearGradient4390"
       x1="48"
       x2="48"
       y1="88"
       y2="-40"
       gradientTransform="matrix(1,0,0,-1,0,92)"
       gradientUnits="userSpaceOnUse"
       xlink:href="#linearGradient3737" />
    <linearGradient
       id="linearGradient4429"
       x1="48"
       x2="112.12"
       y1="82"
       y2="82.455002"
       gradientUnits="userSpaceOnUse"
       spreadMethod="reflect"
       xlink:href="#linearGradient3737" />
    <linearGradient
       id="linearGradient3228"
       x1="90"
       x2="48"
       y1="88"
       y2="88"
       gradientUnits="userSpaceOnUse"
       spreadMethod="reflect">
      <stop
         id="stop3894"
         stop-opacity=".58824"
         offset="0" />
      <stop
         id="stop3896"
         stop-opacity=".47059"
         offset=".1178" />
      <stop
         id="stop3898"
         stop-opacity=".39216"
         offset=".2381" />
      <stop
         id="stop3900"
         stop-opacity=".31373"
         offset="1" />
    </linearGradient>
  </defs>
  <metadata
     id="metadata2413">
    <rdf:RDF>
      <cc:Work
         rdf:about="">
        <dc:format>image/svg+xml</dc:format>
        <dc:type
           rdf:resource="http://purl.org/dc/dcmitype/StillImage" />
        <dc:title />
      </cc:Work>
    </rdf:RDF>
  </metadata>
  <g
     id="layer2"
     style="display:none">
    <rect
       width="86"
       height="85"
       rx="6"
       ry="6"
       x="5"
       y="7"
       id="rect3745"
       style="opacity:0.9;fill:url(#ButtonShadow);fill-opacity:1;fill-rule:nonzero;stroke:none;filter:url(#filter3174)" />
  </g>
  <g
     id="layer3">
    <path
       d="m 12,-95.03125 c -5.5110903,0 -10.03125,4.52016 -10.03125,10.03125 l 0,71 c 0,5.5110902 4.5201598,10.03125 10.03125,10.03125 l 72,0 c 5.51109,0 10.03125,-4.5201597 10.03125,-10.03125 l 0,-71 c 0,-5.51109 -4.52016,-10.03125 -10.03125,-10.03125 l -72,0 z"
       transform="scale(1,-1)"
       id="path3786"
       style="opacity:0.07999998;fill:url(#linearGradient3026);fill-opacity:1;fill-rule:nonzero;stroke:none;display:inline" />
    <path
       d="m 12,-94.03125 c -4.971633,0 -9.03125,4.059617 -9.03125,9.03125 l 0,71 c 0,4.9716329 4.0596171,9.03125 9.03125,9.03125 l 72,0 c 4.971633,0 9.03125,-4.059617 9.03125,-9.03125 l 0,-71 c 0,-4.971633 -4.059617,-9.03125 -9.03125,-9.03125 l -72,0 z"
       transform="scale(1,-1)"
       id="path3778"
       style="opacity:0.1;fill:url(#linearGradient3780);fill-opacity:1;fill-rule:nonzero;stroke:none;display:inline" />
    <path
       d="m 12,-93 c -4.4091333,0 -8,3.590867 -8,8 l 0,71 c 0,4.4091333 3.5908667,8 8,8 l 72,0 c 4.409133,0 8,-3.5908667 8,-8 l 0,-71 c 0,-4.409133 -3.590867,-8 -8,-8 l -72,0 z"
       transform="scale(1,-1)"
       id="path3770"
       style="opacity:0.2;fill:url(#linearGradient3772);fill-opacity:1;fill-rule:nonzero;stroke:none;display:inline" />
    <rect
       width="86"
       height="85"
       rx="7"
       ry="7"
       x="5"
       y="-92"
       transform="scale(1,-1)"
       id="rect3723"
       style="opacity:0.3;fill:url(#linearGradient3725);fill-opacity:1;fill-rule:nonzero;stroke:none;display:inline" />
    <rect
       width="84"
       height="84"
       rx="6"
       ry="6"
       x="6"
       y="-91"
       transform="scale(1,-1)"
       id="rect3716"
       style="opacity:0.45;fill:url(#linearGradient3721);fill-opacity:1;fill-rule:nonzero;stroke:none;display:inline" />
  </g>
  <g
     id="layer1">
    <rect
       width="84"
       height="84"
       rx="6"
       ry="6"
       x="6"
       y="6"
       id="rect2419"
       style="fill:url(#linearGradient3617);fill-opacity:1;fill-rule:nonzero;stroke:none" />
    <g
       id="g3914"
       clip-path="url(#clipPath3936)"
       transform="translate(0,-1.9998292)">
      <path
         id="path3912"
         d="m 25.093749,21.296875 v 4 20.34375 H -3.6250003 v 4.71875 H 25.093749 v 20.34375 4 l 3.5,-1.9375 37.59375,-20.78125 v 18.71875 2.34375 h 4.71875 v -2.34375 -20.34375 H 99.625 v -4.71875 H 70.906249 v -20.34375 -2.375 h -4.71875 v 2.375 18.6875 l -37.59375,-20.75 z m 4.71875,8 29.625,16.34375 h -29.625 z m 0,21.0625 h 29.5625 l -29.5625,16.34375 z"
         style="color:#000000;font-style:normal;font-variant:normal;font-weight:normal;font-stretch:normal;font-size:medium;line-height:normal;font-family:Sans;-inkscape-font-specification:Sans;text-indent:0;text-align:start;text-decoration:none;text-decoration-line:none;letter-spacing:normal;word-spacing:normal;text-transform:none;writing-mode:lr-tb;direction:ltr;baseline-shift:baseline;text-anchor:start;display:inline;overflow:visible;visibility:visible;opacity:0.15;fill:#ffffff;fill-opacity:1;stroke:#ffffff;stroke-width:6;stroke-opacity:1;marker:none;enable-background:accumulate"
         inkscape:connector-curvature="0" />
      <path
         inkscape:connector-curvature="0"
         style="color:#000000;font-style:normal;font-variant:normal;font-weight:normal;font-stretch:normal;font-size:medium;line-height:normal;font-family:Sans;-inkscape-font-specification:Sans;text-indent:0;text-align:start;text-decoration:none;text-decoration-line:none;letter-spacing:normal;word-spacing:normal;text-transform:none;writing-mode:lr-tb;direction:ltr;baseline-shift:baseline;text-anchor:start;display:inline;overflow:visible;visibility:visible;opacity:0.07999998;fill:#ffffff;fill-opacity:1;stroke:#ffffff;stroke-width:4;stroke-opacity:1;marker:none;enable-background:accumulate"
         d="m 25.093749,21.296875 v 4 20.34375 H -3.6250003 v 4.71875 H 25.093749 v 20.34375 4 l 3.5,-1.9375 37.59375,-20.78125 v 18.71875 2.34375 h 4.71875 v -2.34375 -20.34375 H 99.625 v -4.71875 H 70.906249 v -20.34375 -2.375 h -4.71875 v 2.375 18.6875 l -37.59375,-20.75 z m 4.71875,8 29.625,16.34375 h -29.625 z m 0,21.0625 h 29.5625 l -29.5625,16.34375 z"
         id="path3910" />
      <path
         inkscape:connector-curvature="0"
         style="color:#000000;font-style:normal;font-variant:normal;font-weight:normal;font-stretch:normal;font-size:medium;line-height:normal;font-family:Sans;-inkscape-font-specification:Sans;text-indent:0;text-align:start;text-decoration:none;text-decoration-line:none;letter-spacing:normal;word-spacing:normal;text-transform:none;writing-mode:lr-tb;direction:ltr;baseline-shift:baseline;text-anchor:start;display:inline;overflow:visible;visibility:visible;fill:#ffffff;fill-opacity:1;stroke:none;stroke-width:4.72000027;marker:none;enable-background:accumulate"
         d="m 25.093749,21.296875 v 4 20.34375 H -3.6250003 v 4.71875 H 25.093749 v 20.34375 4 l 3.5,-1.9375 37.59375,-20.78125 v 18.71875 2.34375 h 4.71875 v -2.34375 -20.34375 H 99.625 v -4.71875 H 70.906249 v -20.34375 -2.375 h -4.71875 v 2.375 18.6875 l -37.59375,-20.75 z m 4.71875,8 29.625,16.34375 h -29.625 z m 0,21.0625 h 29.5625 l -29.5625,16.34375 z"
         id="path3906" />
      <path
         id="path3908"
         d="m 25.093749,21.296875 v 4 20.34375 H -3.6250003 v 4.71875 H 25.093749 v 20.34375 4 l 3.5,-1.9375 37.59375,-20.78125 v 18.71875 2.34375 h 4.71875 v -2.34375 -20.34375 H 99.625 v -4.71875 H 70.906249 v -20.34375 -2.375 h -4.71875 v 2.375 18.6875 l -37.59375,-20.75 z m 4.71875,8 29.625,16.34375 h -29.625 z m 0,21.0625 h 29.5625 l -29.5625,16.34375 z"
         style="color:#000000;font-style:normal;font-variant:normal;font-weight:normal;font-stretch:normal;font-size:medium;line-height:normal;font-family:Sans;-inkscape-font-specification:Sans;text-indent:0;text-align:start;text-decoration:none;text-decoration-line:none;letter-spacing:normal;word-spacing:normal;text-transform:none;writing-mode:lr-tb;direction:ltr;baseline-shift:baseline;text-anchor:start;display:inline;overflow:visible;visibility:visible;opacity:0.4;fill:#ffffff;fill-opacity:1;stroke:#ffffff;stroke-width:2;stroke-opacity:1;marker:none;enable-background:accumulate"
         inkscape:connector-curvature="0" />
    </g>
    <g
       id="g873">
      <path
         id="rect4377"
         d="M 12,86 C 8.676,86 6,83.324 6,80 V 12 C 6,8.676 8.676,6 12,6 h 72 c 3.324,0 6,2.676 6,6 v 68 c 0,3.324 -2.676,6 -6,6 z m 0,-0.96875 h 72 c 2.8049,0 5.0312,-2.2264 5.0312,-5.0312 v -68 c 0,-2.8049 -2.226,-5.0312 -5.031,-5.0312 h -72 c -2.8049,0 -5.0312,2.2263 -5.0312,5.0312 v 68 c 0,2.8049 2.2264,5.0312 5.0312,5.0312 z"
         style="opacity:0.3;fill:url(#linearGradient4390)"
         inkscape:connector-curvature="0" />
      <path
         id="rect4414"
         d="m 6,78 v 2 c 0,3.324 2.676,6 6,6 h 72 c 3.324,0 6,-2.676 6,-6 v -2 c 0,3.324 -2.676,6 -6,6 H 12 C 8.676,84 6,81.324 6,78 Z"
         style="opacity:0.1;fill:url(#linearGradient4429)"
         inkscape:connector-curvature="0" />
      <g
         id="layer4">
        <path
           style="fill:url(#linearGradient3228)"
           inkscape:connector-curvature="0"
           d="m 6,80 v 4 c 0,3.324 2.676,6 6,6 h 72 c 3.324,0 6,-2.676 6,-6 v -4 c 0,3.324 -2.676,6 -6,6 H 12 C 8.676,86 6,83.324 6,80 Z"
           id="path3888" />
        <path
           style="color:#000000;opacity:0.1"
           inkscape:connector-curvature="0"
           d="m 6,82 v 2 c 0,3.324 2.676,6 6,6 h 72 c 3.324,0 6,-2.676 6,-6 v -2 c 0,3.324 -2.676,6 -6,6 H 12 C 8.676,88 6,85.324 6,82 Z"
           id="rect4345" />
        <path
           style="color:#000000;opacity:0.15"
           inkscape:connector-curvature="0"
           d="m 6,83 v 1 c 0,3.324 2.676,6 6,6 h 72 c 3.324,0 6,-2.676 6,-6 v -1 c 0,3.324 -2.676,6 -6,6 H 12 C 8.676,89 6,86.324 6,83 Z"
           id="rect4336" />
      </g>
    </g>
  </g>
  <g
     id="layer5" />
</svg>
