<?xml version="1.0" encoding="UTF-8" standalone="no"?>
<svg
   xmlns:dc="http://purl.org/dc/elements/1.1/"
   xmlns:cc="http://creativecommons.org/ns#"
   xmlns:rdf="http://www.w3.org/1999/02/22-rdf-syntax-ns#"
   xmlns:svg="http://www.w3.org/2000/svg"
   xmlns="http://www.w3.org/2000/svg"
   xmlns:xlink="http://www.w3.org/1999/xlink"
   xmlns:sodipodi="http://sodipodi.sourceforge.net/DTD/sodipodi-0.dtd"
   xmlns:inkscape="http://www.inkscape.org/namespaces/inkscape"
   width="96"
   height="96"
   version="1.1"
   id="svg77"
   sodipodi:docname="rygel.svg"
   inkscape:version="0.92.2 5c3e80d, 2017-08-06">
  <metadata
     id="metadata81">
    <rdf:RDF>
      <cc:Work
         rdf:about="">
        <dc:format>image/svg+xml</dc:format>
        <dc:type
           rdf:resource="http://purl.org/dc/dcmitype/StillImage" />
      </cc:Work>
    </rdf:RDF>
  </metadata>
  <sodipodi:namedview
     pagecolor="#ffffff"
     bordercolor="#666666"
     borderopacity="1"
     objecttolerance="10"
     gridtolerance="10"
     guidetolerance="10"
     inkscape:pageopacity="0"
     inkscape:pageshadow="2"
     inkscape:window-width="640"
     inkscape:window-height="480"
     id="namedview79"
     showgrid="false"
     inkscape:zoom="2.4583333"
     inkscape:cx="48"
     inkscape:cy="48"
     inkscape:window-x="0"
     inkscape:window-y="25"
     inkscape:window-maximized="0"
     inkscape:current-layer="svg77" />
  <defs
     id="defs2410">
    <linearGradient
       id="linearGradient4384">
      <stop
         id="stop4386"
         stop-color="#fff"
         offset="0" />
      <stop
         id="stop4388"
         stop-color="#fff"
         stop-opacity="0"
         offset="1" />
    </linearGradient>
    <filter
       id="filter3794"
       x="-.192"
       y="-.192"
       width="1.384"
       height="1.384">
      <feGaussianBlur
         id="feGaussianBlur3796"
         stdDeviation="5.28" />
    </filter>
    <linearGradient
       id="linearGradient3613"
       x1="48"
       x2="48"
       y1="20.221"
       y2="138.66"
       gradientUnits="userSpaceOnUse">
      <stop
         id="stop3739"
         stop-color="#fff"
         offset="0" />
      <stop
         id="stop3741"
         stop-color="#fff"
         stop-opacity="0"
         offset="1" />
    </linearGradient>
    <linearGradient
       id="buttonGradient"
       x1="48"
       x2="48"
       y1="90"
       y2="5.9877"
       gradientUnits="userSpaceOnUse">
      <stop
         id="stop3702"
         stop-color="#800000"
         offset="0" />
      <stop
         id="stop3704"
         stop-color="#cd2e24"
         offset="1" />
    </linearGradient>
    <linearGradient
       id="ButtonShadow-0"
       x1="45.448"
       x2="45.448"
       y1="92.54"
       y2="7.0165"
       gradientTransform="matrix(1.0059 0 0 .99417 100 0)"
       gradientUnits="userSpaceOnUse">
      <stop
         id="stop3750-8"
         offset="0" />
      <stop
         id="stop3752-5"
         stop-opacity=".58824"
         offset="1" />
    </linearGradient>
    <linearGradient
       id="linearGradient3780"
       x1="32.251"
       x2="32.251"
       y1="6.1317"
       y2="90.239"
       gradientTransform="matrix(1.0238 0 0 1.0119 -1.1429 -98.071)"
       gradientUnits="userSpaceOnUse"
       xlink:href="#ButtonShadow-0" />
    <linearGradient
       id="linearGradient3721"
       x1="32.251"
       x2="32.251"
       y1="6.1317"
       y2="90.239"
       gradientTransform="translate(0,-97)"
       gradientUnits="userSpaceOnUse"
       xlink:href="#ButtonShadow-0" />
    <clipPath
       id="clipPath4355">
      <rect
         id="rect4357"
         x="6"
         y="6"
         width="84"
         height="80"
         rx="6"
         ry="6"
         fill="#fff" />
    </clipPath>
    <linearGradient
       id="linearGradient4390"
       x1="48"
       x2="48"
       y1="88"
       y2="-40"
       gradientTransform="matrix(1,0,0,-1,0,92)"
       gradientUnits="userSpaceOnUse"
       xlink:href="#linearGradient4384" />
    <linearGradient
       id="linearGradient4429"
       x1="48"
       x2="112.12"
       y1="82"
       y2="82.455"
       gradientUnits="userSpaceOnUse"
       spreadMethod="reflect"
       xlink:href="#linearGradient4384" />
    <linearGradient
       id="linearGradient3228"
       x1="90"
       x2="48"
       y1="88"
       y2="88"
       gradientUnits="userSpaceOnUse"
       spreadMethod="reflect">
      <stop
         id="stop3894"
         stop-opacity=".58824"
         offset="0" />
      <stop
         id="stop3896"
         stop-opacity=".47059"
         offset=".1178" />
      <stop
         id="stop3898"
         stop-opacity=".39216"
         offset=".2381" />
      <stop
         id="stop3900"
         stop-opacity=".31373"
         offset="1" />
    </linearGradient>
  </defs>
  <g
     id="layer3">
    <g
       id="g32"
       fill="url(#linearGradient3780)">
      <path
         id="path3786"
         transform="scale(1,-1)"
         d="m12-95.021c-5.5111 0-10.022 4.51-10.022 10.021v71c0 5.5111 4.5104 10.021 10.021 10.021h72c5.5111 0 10.021-4.5104 10.021-10.021v-71c0-5.5111-4.5104-10.021-10.021-10.021h-72z"
         opacity=".08" />
      <path
         id="path3778"
         transform="scale(1,-1)"
         d="m12-94.035c-4.9716 0-9.0352 4.0635-9.0352 9.0352v71c0 4.9716 4.0635 9.0352 9.0352 9.0352h72c4.9716 0 9.0352-4.0635 9.0352-9.0352v-71c0-4.9716-4.0635-9.0352-9.0352-9.0352h-72z"
         opacity=".1" />
      <path
         id="path3770"
         transform="scale(1,-1)"
         d="m12-92.99c-4.4091 0-7.9902 3.5811-7.9902 7.9902v71c0 4.4091 3.5811 7.9902 7.9902 7.9902h72c4.4091 0 7.9902-3.5811 7.9902-7.9902v-71c0-4.4091-3.5811-7.9902-7.9902-7.9902h-72z"
         opacity=".2" />
      <rect
         id="rect3723"
         transform="scale(1,-1)"
         x="5"
         y="-92"
         width="86"
         height="85"
         rx="7"
         ry="7"
         opacity=".3" />
    </g>
    <rect
       id="rect3716"
       transform="scale(1,-1)"
       x="6"
       y="-91"
       width="84"
       height="84"
       rx="6"
       ry="6"
       fill="url(#linearGradient3721)"
       opacity=".45" />
  </g>
  <g
     id="layer1">
    <rect
       id="button"
       x="6"
       y="6"
       width="84"
       height="84"
       rx="6"
       ry="6"
       fill="url(#buttonGradient)" />
    <path
       id="rect4377"
       d="m12 86c-3.324 0-6-2.676-6-6v-68c0-3.324 2.676-6 6-6h72c3.324 0 6 2.676 6 6v68c0 3.324-2.676 6-6 6zm0-0.96875h72c2.8049 0 5.0312-2.2264 5.0312-5.0312v-68c0-2.8049-2.226-5.0312-5.031-5.0312h-72c-2.8049 0-5.0312 2.2263-5.0312 5.0312v68c0 2.8049 2.2264 5.0312 5.0312 5.0312z"
       fill="url(#linearGradient4390)"
       opacity=".3" />
    <path
       id="rect4414"
       d="m6 78v2c0 3.324 2.676 6 6 6h72c3.324 0 6-2.676 6-6v-2c0 3.324-2.676 6-6 6h-72c-3.324 0-6-2.676-6-6z"
       fill="url(#linearGradient4429)"
       opacity=".1" />
  </g>
  <g
     id="layer4">
    <path
       id="path3888"
       d="m6 80v4c0 3.324 2.676 6 6 6h72c3.324 0 6-2.676 6-6v-4c0 3.324-2.676 6-6 6h-72c-3.324 0-6-2.676-6-6z"
       fill="url(#linearGradient3228)" />
    <path
       id="rect4345"
       d="m6 82v2c0 3.324 2.676 6 6 6h72c3.324 0 6-2.676 6-6v-2c0 3.324-2.676 6-6 6h-72c-3.324 0-6-2.676-6-6z"
       color="#000000"
       opacity=".1" />
    <path
       id="rect4336"
       d="m6 83v1c0 3.324 2.676 6 6 6h72c3.324 0 6-2.676 6-6v-1c0 3.324-2.676 6-6 6h-72c-3.324 0-6-2.676-6-6z"
       color="#000000"
       opacity=".15" />
  </g>
  <g
     id="layer5">
    <rect
       id="rect3171"
       x="15"
       y="15"
       width="66"
       height="62"
       rx="12"
       ry="12"
       clip-path="url(#clipPath4355)"
       fill="url(#linearGradient3613)"
       filter="url(#filter3794)"
       opacity=".1"
       stroke="#fff"
       stroke-linecap="round"
       stroke-width=".5" />
  </g>
  <defs
     id="defs53">
    <filter
       id="w">
      <feGaussianBlur
         stdDeviation="0.23199685"
         id="feGaussianBlur45" />
    </filter>
    <linearGradient
       id="a"
       gradientUnits="userSpaceOnUse"
       x1="8"
       y1="0.9998777"
       x2="8"
       y2="15.0000117">
      <stop
         stop-color="#fafafa"
         offset="0"
         id="stop48" />
      <stop
         stop-color="#ebebeb"
         offset="1"
         id="stop50" />
    </linearGradient>
  </defs>
  <g
     transform="translate(0,-2)"
     id="g75">
    <path
       style="opacity:0.15;fill:#000000"
       d="m 2,0.75 a 0.250025,0.250025 0 0 0 -0.097656,0.0195313 C 1.261799,0.82205768 0.75,1.3463659 0.75,2 v 7.5097656 a 0.250025,0.250025 0 0 0 0.4160156,0.1875 c 0.033258,-0.029542 0.064368,-0.05957 0.09375,-0.087891 0.066509,-0.06416 0.1339294,-0.1323359 0.1992188,-0.2109375 0.063474,-0.076417 0.1205905,-0.1557735 0.171875,-0.234375 0.053529,-0.082053 0.1012205,-0.1675784 0.1425781,-0.2519531 0.028879,-0.058909 0.050957,-0.1189662 0.074219,-0.1796875 A 0.250025,0.250025 0 0 0 1.8867188,8.65625 C 1.909114,8.5844842 1.9372292,8.5127264 1.96875,8.4414062 1.9994759,8.3718097 2.0332458,8.3049394 2.0722656,8.2382812 2.1111802,8.1718049 2.1535185,8.1076851 2.1992188,8.046875 2.2443357,7.9868207 2.2956446,7.927778 2.3496094,7.8710938 2.4034978,7.8144868 2.4612336,7.7611414 2.5195312,7.7128906 2.5795246,7.6632299 2.6390855,7.6185287 2.7050781,7.5761719 2.7709322,7.533884 2.8400562,7.4936029 2.9121094,7.4589844 c 0.069717,-0.033499 0.1459868,-0.062766 0.2265625,-0.089844 0.066933,-0.022467 0.130764,-0.040506 0.1933593,-0.054687 0.066204,-0.014989 0.1338551,-0.027384 0.1972657,-0.035156 0.130029,-0.015949 0.2547873,-0.017604 0.3828125,-0.00781 0.1274767,0.00974 0.2551537,0.030682 0.3769531,0.064453 0.1203256,0.033375 0.2391396,0.081754 0.3535156,0.1386719 0.1135931,0.056533 0.2200938,0.1225731 0.3203125,0.1992187 0.1018424,0.077871 0.1954252,0.1629545 0.2792969,0.2578125 0.084323,0.095392 0.1606714,0.200929 0.2265625,0.3144532 0.034811,0.059972 0.065852,0.1185076 0.091797,0.1757812 0.026773,0.059081 0.05189,0.1210168 0.074219,0.1875 0.022018,0.06548 0.040264,0.1316446 0.054687,0.1953125 0.014251,0.062786 0.024885,0.1277527 0.033203,0.1953125 0.015909,0.129422 0.017526,0.2586264 0.00781,0.3867188 -0.00963,0.1270645 -0.0305,0.2520038 -0.064453,0.375 -0.03443,0.1247137 -0.079966,0.2449912 -0.1347656,0.3554692 -0.056137,0.113175 -0.1222972,0.219486 -0.1992188,0.320312 -0.076294,0.100039 -0.1634979,0.194012 -0.2597656,0.279297 -0.094964,0.08411 -0.2007139,0.160471 -0.3144531,0.226562 -0.056463,0.03281 -0.1147688,0.06218 -0.1757813,0.08984 -0.061047,0.02766 -0.1254898,0.05468 -0.1894531,0.07617 -0.077267,0.02596 -0.1529429,0.04634 -0.2324219,0.0625 a 0.250025,0.250025 0 0 0 -0.00195,0 c -0.077996,0.01586 -0.1559039,0.0251 -0.234375,0.03125 -0.080429,0.0063 -0.1568128,0.009 -0.2324219,0.0059 -0.075411,-0.0031 -0.1554598,-0.01096 -0.2324218,-0.02344 -0.07842,-0.01271 -0.151399,-0.02859 -0.2226563,-0.04883 -0.070409,-0.02 -0.1409659,-0.04569 -0.2148437,-0.07617 -0.069988,-0.02889 -0.1372777,-0.06213 -0.2050782,-0.09961 -0.069791,-0.03858 -0.1379099,-0.07887 -0.1972656,-0.121094 a 0.250025,0.250025 0 0 0 -0.074219,-0.03711 c -0.056163,-0.03493 -0.1121655,-0.06977 -0.171875,-0.09961 -0.086129,-0.04303 -0.1739786,-0.08157 -0.2636719,-0.113281 -0.090442,-0.03198 -0.1849291,-0.05858 -0.2792969,-0.08008 -0.096265,-0.0219 -0.1923842,-0.0361 -0.2871093,-0.04687 -0.097027,-0.01105 -0.1931603,-0.01705 -0.2910157,-0.01758 -0.08922,-4.64e-4 -0.1817029,0.0031 -0.2753906,0.01172 A 0.250025,0.250025 0 0 0 0.75,10.705078 V 14 c 0,0.688176 0.5618243,1.25 1.25,1.25 h 6.7480469 a 0.250025,0.250025 0 0 0 0.2402343,-0.316406 0.250025,0.250025 0 0 0 0,-0.0059 0.250025,0.250025 0 0 0 -0.013672,-0.05078 c -0.024142,-0.06745 -0.050637,-0.138339 -0.083984,-0.210937 -0.042104,-0.09164 -0.088482,-0.180262 -0.1386719,-0.263672 -0.049815,-0.08279 -0.103523,-0.162588 -0.1640625,-0.242188 -0.06243,-0.08213 -0.1293253,-0.157001 -0.1933594,-0.224609 -0.066653,-0.07037 -0.136439,-0.13813 -0.2109374,-0.201172 -0.073137,-0.06189 -0.1511822,-0.121704 -0.2324219,-0.175781 -0.079265,-0.05276 -0.1620983,-0.09946 -0.2480469,-0.142578 -0.056807,-0.0285 -0.1139395,-0.05133 -0.171875,-0.07422 a 0.250025,0.250025 0 0 0 -0.082031,-0.04297 C 7.3766963,13.275446 7.3043839,13.246538 7.234375,13.214844 7.1671768,13.18443 7.0991998,13.148036 7.03125,13.107422 6.9629263,13.066599 6.9004207,13.025372 6.8417969,12.980469 6.7809178,12.933853 6.7208853,12.883271 6.6660156,12.830078 6.6122681,12.77796 6.5597114,12.71969 6.5097656,12.658203 6.4610846,12.598282 6.4170487,12.537558 6.375,12.470703 6.3335348,12.40478 6.2957856,12.334307 6.2617188,12.261719 c -0.034835,-0.07424 -0.064917,-0.150051 -0.089844,-0.226563 -0.020748,-0.0637 -0.038307,-0.12684 -0.052734,-0.193359 -0.014448,-0.06665 -0.026035,-0.132066 -0.033203,-0.195313 -0.014738,-0.130045 -0.014869,-0.259121 -0.00391,-0.386718 0.010914,-0.127272 0.03336,-0.253111 0.068359,-0.375 0.034944,-0.121661 0.081389,-0.239037 0.1386719,-0.351563 0.057784,-0.113492 0.1261346,-0.221539 0.203125,-0.320312 0.07658,-0.09826 0.1655424,-0.190211 0.2636719,-0.275391 0.097018,-0.084215 0.2008851,-0.1600724 0.3144531,-0.2246094 0.059084,-0.033573 0.1191478,-0.063951 0.1777344,-0.089844 0.05832,-0.025786 0.1219817,-0.048342 0.1894531,-0.070312 0.067465,-0.021987 0.1308448,-0.041112 0.1933594,-0.054687 0.066571,-0.014445 0.1318534,-0.025988 0.1953125,-0.033203 0.1277144,-0.014533 0.2564203,-0.013051 0.3867187,-0.00195 0.1294558,0.011012 0.2571662,0.032148 0.3769532,0.066406 0.1212441,0.034677 0.2383411,0.081221 0.3515624,0.1386719 0.1121329,0.056907 0.2178468,0.1249851 0.3183594,0.203125 0.100452,0.078093 0.19383,0.1656972 0.2773438,0.2617182 0.084026,0.09661 0.1598809,0.200671 0.2246094,0.314454 0.032415,0.05698 0.063163,0.119362 0.089844,0.179687 0.026464,0.05982 0.048707,0.121192 0.070312,0.1875 0.025266,0.07754 0.045205,0.155163 0.060547,0.234375 0.015338,0.07916 0.025884,0.158772 0.03125,0.236328 0.0054,0.07756 0.006,0.154542 0.002,0.232422 -0.0039,0.07622 -0.01219,0.15149 -0.025391,0.228516 -0.013659,0.07971 -0.030442,0.157379 -0.050781,0.226562 -0.020593,0.07007 -0.046817,0.138954 -0.078125,0.212891 -0.030505,0.07204 -0.063055,0.142327 -0.099609,0.207031 -0.03895,0.06896 -0.081833,0.13579 -0.125,0.195313 a 0.250025,0.250025 0 0 0 -0.033203,0.06445 0.250025,0.250025 0 0 0 0,0.002 c -0.037083,0.05739 -0.075235,0.114783 -0.1074218,0.177734 -0.045142,0.08831 -0.079916,0.175374 -0.1113282,0.261719 -0.031918,0.08774 -0.062943,0.180495 -0.085937,0.277344 -0.023025,0.09703 -0.037293,0.193366 -0.048828,0.287109 -0.011608,0.09424 -0.019996,0.192453 -0.021484,0.292969 -0.00141,0.09674 0.00248,0.195529 0.011719,0.294922 0.00941,0.101203 0.025707,0.199017 0.044922,0.292968 0.01762,0.08616 0.040021,0.171193 0.066406,0.25586 a 0.250025,0.250025 0 0 0 0,0.002 0.250025,0.250025 0 0 0 0.011719,0.05859 l 0.078125,0.226562 A 0.250025,0.250025 0 0 0 9.6777344,15.25 H 14 c 0.67331,0 1.217968,-0.539699 1.242188,-1.205078 a 0.250025,0.250025 0 0 0 0,-0.0098 l 0.0059,-7.7304685 a 0.250025,0.250025 0 0 0 -0.25,-0.25 c -0.412866,0 -0.781321,0.00631 -1.181641,0.078125 a 0.250025,0.250025 0 0 0 -0.121094,0.013672 c -0.06976,0.025721 -0.138371,0.053632 -0.207031,0.085937 -0.08846,0.04164 -0.176455,0.088249 -0.261719,0.140625 -0.08212,0.050444 -0.164304,0.1061019 -0.24414,0.1679687 -0.07967,0.061735 -0.154123,0.1272337 -0.222656,0.1933594 -0.07024,0.067751 -0.135315,0.1383084 -0.197266,0.2128906 -0.06196,0.074597 -0.119468,0.1521177 -0.171875,0.2324219 -0.0518,0.079408 -0.101657,0.1644954 -0.144531,0.2519531 -0.02791,0.056936 -0.04912,0.1162913 -0.07227,0.1757813 -3.11e-4,7.986e-4 -0.0016,0.00115 -0.002,0.00195 A 0.250025,0.250025 0 0 0 12.132812,7.6875 c -0.02209,0.07073 -0.0499,0.1401737 -0.08203,0.2128906 -0.03136,0.071017 -0.06548,0.1401197 -0.103515,0.2050782 -0.0406,0.06933 -0.08113,0.1330237 -0.125,0.1914062 -0.04467,0.059453 -0.09828,0.1209402 -0.152344,0.1777344 -0.05221,0.054838 -0.107101,0.1039203 -0.167969,0.1542968 -0.06034,0.049951 -0.122423,0.096897 -0.1875,0.1386719 -0.0633,0.040634 -0.132074,0.079221 -0.207031,0.1152344 -0.07265,0.034911 -0.149169,0.065793 -0.226563,0.091797 -0.06684,0.022454 -0.130725,0.040499 -0.193359,0.054687 -0.06711,0.015194 -0.13238,0.027432 -0.195312,0.035156 -0.129781,0.015922 -0.257039,0.017629 -0.384766,0.00781 C 9.9821909,9.0627003 9.8543887,9.0402185 9.7304688,9.0058594 9.6058852,8.9712893 9.4876707,8.9261759 9.3769531,8.8710938 9.2651843,8.8154597 9.1582876,8.7476599 9.0566406,8.6699219 8.9562365,8.5931345 8.8621997,8.5061186 8.7773438,8.4101562 8.6920466,8.3136871 8.6161282,8.2102428 8.5507812,8.0976562 8.5159606,8.0376678 8.4849168,7.9791267 8.4589844,7.921875 8.4329564,7.864451 8.4075336,7.8002062 8.3847656,7.7324219 8.3623085,7.6655821 8.3442868,7.6017651 8.3300781,7.5390625 8.3160309,7.4770786 8.3052413,7.4097949 8.296875,7.3417969 8.2809344,7.2121151 8.2793416,7.0853103 8.2890625,6.9570312 8.2987089,6.8297852 8.3197227,6.7024889 8.3535156,6.5800781 8.3878058,6.4559216 8.4330322,6.3379614 8.4882812,6.2265625 8.5435041,6.1152306 8.6114315,6.0085295 8.6894531,5.90625 8.7666182,5.8050845 8.8542143,5.7091669 8.9492188,5.625 c 0.094806,-0.083982 0.1980433,-0.1580972 0.3125,-0.2246094 0.059746,-0.034719 0.1183437,-0.065749 0.1757812,-0.091797 0.061015,-0.027658 0.1254772,-0.054683 0.1894531,-0.076172 0.074104,-0.024895 0.1514424,-0.043689 0.234375,-0.060547 0.077981,-0.015865 0.1558939,-0.0251 0.2343749,-0.03125 0.08053,-0.00627 0.159562,-0.00907 0.234375,-0.00586 0.07517,0.00312 0.150404,0.010781 0.228516,0.023437 0.07901,0.012803 0.154362,0.028867 0.224609,0.048828 0.07393,0.021007 0.144239,0.045087 0.214844,0.074219 0.07133,0.02944 0.140844,0.063017 0.207031,0.099609 0.06527,0.03608 0.131634,0.077753 0.195313,0.1230468 a 0.250025,0.250025 0 0 0 0.07422,0.037109 c 0.05468,0.035105 0.10852,0.06989 0.171875,0.1015625 0.08925,0.044602 0.177386,0.080818 0.263672,0.1113281 0.09041,0.031967 0.184874,0.058578 0.279297,0.080078 0.09273,0.021101 0.188745,0.037636 0.287109,0.048828 0.09699,0.011039 0.193166,0.017043 0.291016,0.017578 0.09931,4.842e-4 0.198248,-0.00577 0.294922,-0.015625 0.09659,-0.00987 0.19476,-0.023904 0.292969,-0.044922 0.03303,-0.00707 0.06338,-0.01896 0.0957,-0.027344 L 13.375,5.6542969 a 0.250025,0.250025 0 0 0 0.232422,0.1152343 c 5.88e-4,-1.901e-4 0.0014,1.905e-4 0.002,0 a 0.250025,0.250025 0 0 0 0.02344,-0.00195 C 14.140589,5.6698738 14.566252,5.6679688 15,5.6679688 a 0.250025,0.250025 0 0 0 0.25,-0.25 l -0.0059,-3.4511719 a 0.250025,0.250025 0 0 0 0,-0.00781 C 15.221401,1.2916931 14.674174,0.75 14,0.75 H 5.1542969 A 0.250025,0.250025 0 0 0 4.9179688,1.0800781 l 0.058594,0.1738281 0.1914063,-0.095703 A 0.250025,0.250025 0 0 0 5.0449219,1.4667969 c 0.024702,0.06908 0.051442,0.138162 0.083984,0.2089843 0.042096,0.091606 0.088458,0.180233 0.1386719,0.2636719 0.050455,0.08384 0.1059276,0.1651038 0.1660157,0.2441407 0.06066,0.079768 0.125494,0.1550299 0.1914062,0.2246093 0.066655,0.070376 0.136441,0.1381312 0.2109375,0.2011719 0.073124,0.061863 0.1511697,0.1216961 0.2324219,0.1757812 0.079211,0.052702 0.1620248,0.099433 0.2480468,0.1425782 0.057378,0.028794 0.1153259,0.051168 0.1738282,0.074219 a 0.250025,0.250025 0 0 0 0.080078,0.042969 c 0.072485,0.023356 0.1448312,0.052279 0.2148437,0.083984 0.070361,0.031845 0.1380204,0.066538 0.203125,0.1054688 0.067229,0.040182 0.1322217,0.083582 0.1914063,0.1289062 0.059019,0.04518 0.1170505,0.095347 0.1738281,0.1503907 0.055704,0.054023 0.1078189,0.1102886 0.15625,0.1699219 0.047182,0.058065 0.091658,0.1209238 0.1347656,0.1894531 0.042491,0.067546 0.07986,0.1358197 0.1132813,0.2070312 0.034825,0.074207 0.064923,0.1500576 0.089844,0.2265625 0.021586,0.066245 0.040954,0.1320064 0.054688,0.1953125 0.013546,0.062396 0.023589,0.1276791 0.03125,0.1953125 0.014753,0.1300086 0.016824,0.2590942 0.00586,0.3867188 -0.010931,0.1274703 -0.035488,0.255696 -0.070312,0.3769531 C 7.8341892,5.5826117 7.7877498,5.6999846 7.7304688,5.8125 7.6736211,5.9241361 7.606052,6.0279292 7.5273438,6.1289062 7.4488014,6.2296796 7.3613512,6.3231409 7.265625,6.40625 7.1685828,6.4904767 7.0647333,6.5663262 6.9511719,6.6308594 c -0.059144,0.033592 -0.1191792,0.063965 -0.1777344,0.089844 -0.058272,0.025768 -0.121927,0.04831 -0.1894531,0.070312 -0.066223,0.021582 -0.1318982,0.040918 -0.1953125,0.054687 -0.062403,0.013543 -0.1274972,0.023539 -0.1953125,0.03125 -0.1299192,0.014772 -0.2586737,0.014812 -0.3867188,0.00391 C 5.6796375,6.8700592 5.5541847,6.8475334 5.4316406,6.8125 5.3076916,6.7770464 5.1886134,6.7318428 5.078125,6.6757812 4.9659846,6.6188718 4.8602359,6.550777 4.7597656,6.4726562 4.6593163,6.3945735 4.5659418,6.306966 4.4824219,6.2109375 4.3993542,6.1154201 4.3230621,6.0092368 4.2578125,5.8945312 4.2251485,5.8371263 4.1967977,5.7795131 4.1699219,5.71875 4.1432682,5.6584955 4.1188218,5.5923048 4.0976562,5.5273438 4.0720552,5.448739 4.052328,5.373466 4.0371094,5.2949219 4.0217666,5.2157468 4.0112188,5.1361315 4.0058594,5.0585938 c -0.00539,-0.0777 -0.00598,-0.1522885 -0.00195,-0.2304688 a 0.250025,0.250025 0 0 0 0,-0.00195 c 0.00392,-0.076507 0.012395,-0.154666 0.025391,-0.2304688 0.013537,-0.079056 0.030137,-0.1543849 0.050781,-0.2246093 0.020905,-0.071112 0.047392,-0.1422531 0.078125,-0.2148438 0.029953,-0.07072 0.062141,-0.1387602 0.099609,-0.2050781 0.038022,-0.067329 0.080526,-0.1320356 0.125,-0.1933594 a 0.250025,0.250025 0 0 0 0.035156,-0.072266 C 4.4541585,3.6300047 4.4911754,3.5748095 4.5234375,3.5117188 4.5670282,3.4264506 4.6040926,3.3396836 4.6367188,3.25 4.6696418,3.1595108 4.6986267,3.065421 4.7207031,2.9726562 v -0.00195 C 4.7434972,2.874291 4.7580762,2.7786504 4.7695312,2.6855469 4.7811032,2.5917012 4.7895221,2.4950637 4.7910156,2.3945312 4.7925316,2.2973367 4.7884273,2.1986038 4.7792969,2.0996094 4.7699457,1.9986329 4.7537328,1.8993142 4.734375,1.8046875 4.7169861,1.7197578 4.6943318,1.6340006 4.6679688,1.5488281 A 0.250025,0.250025 0 0 0 4.65625,1.4921875 L 4.5527344,1.1835938 c 0,0 -0.047471,-0.1784529 -0.072266,-0.25781255 A 0.250025,0.250025 0 0 0 4.2421875,0.75 Z M 9.4667969,14.5625 A 0.250025,0.250025 0 0 0 9.3515625,14.791016 L 9.3125,14.636719 Z"
       id="path55"
       inkscape:original="m2 1c-0.554 0-1 0.446-1 1v7.5098c0.029451-0.02616 0.057718-0.052878 0.085938-0.080078 0.063782-0.061529 0.12568-0.12404 0.18164-0.19141 0.055959-0.06737 0.10714-0.13866 0.1543-0.21094 0.047159-0.072289 0.08957-0.14835 0.12695-0.22461 0.037379-0.076247 0.069091-0.15315 0.095703-0.23242l0.0039063 0.011719c0.025691-0.082327 0.057019-0.1635 0.091797-0.24219 0.034748-0.078707 0.073732-0.15428 0.11719-0.22852 0.04345-0.074224 0.0908-0.14594 0.14258-0.21484 0.051776-0.068918 0.10824-0.13453 0.16797-0.19727 0.059725-0.062738 0.1241-0.12398 0.19141-0.17969 0.0673-0.055709 0.13642-0.10647 0.21094-0.1543 0.074505-0.047843 0.15302-0.09177 0.23438-0.13086 0.081355-0.039091 0.16609-0.072048 0.25391-0.10156 0.072681-0.024396 0.14557-0.04592 0.21875-0.0625 0.07318-0.016568 0.14747-0.030086 0.2207-0.039062 0.14647-0.017966 0.28976-0.020766 0.43359-0.0097656 0.14383 0.010987 0.2864 0.036114 0.42383 0.074219 0.13742 0.038117 0.27118 0.090971 0.39844 0.1543 0.12724 0.063325 0.24803 0.13796 0.36133 0.22461 0.11332 0.086647 0.21887 0.18292 0.31445 0.29102 0.095565 0.10811 0.18177 0.22782 0.25586 0.35547 0.03704 0.063812 0.072548 0.1289 0.10352 0.19727 0.030976 0.068356 0.057624 0.13827 0.082031 0.21094 0.024434 0.072664 0.04591 0.14747 0.0625 0.2207 0.016615 0.073201 0.028086 0.14547 0.037109 0.21875 0.018015 0.14655 0.020682 0.29355 0.0097657 0.4375-0.010912 0.14393-0.036246 0.28432-0.074219 0.42188-0.037977 0.13756-0.087212 0.27302-0.15039 0.40039-0.063188 0.12739-0.13808 0.24791-0.22461 0.36133-0.086507 0.11343-0.18498 0.21878-0.29297 0.31445-0.10799 0.09565-0.22788 0.18172-0.35547 0.25586-0.063795 0.03707-0.12893 0.070577-0.19727 0.10156-0.068365 0.03098-0.14023 0.059574-0.21289 0.083984-0.087833 0.02951-0.17522 0.052333-0.26367 0.070313-0.088441 0.01799-0.17737 0.030189-0.26562 0.037109-0.088253 0.0069-0.17446 0.009459-0.26172 0.005859-0.087263-0.0036-0.17626-0.013493-0.26172-0.027343-0.085447-0.01385-0.16912-0.031158-0.25195-0.054688-0.082828-0.02353-0.16278-0.053177-0.24219-0.085937-0.079398-0.03277-0.1553-0.069773-0.23047-0.11133-0.075145-0.04154-0.15059-0.086847-0.2207-0.13672l0.0039062 0.009765c-0.069007-0.04689-0.14109-0.089116-0.2168-0.12695-0.075706-0.03782-0.15526-0.070949-0.23633-0.099609-0.08107-0.02867-0.1649-0.052876-0.25-0.072266-0.085099-0.01936-0.17199-0.032978-0.25977-0.042968-0.087798-0.01-0.17649-0.015145-0.26562-0.015626-0.083377-4.34e-4 -0.16656 0.002056-0.25 0.009766v3.2949c0 0.554 0.446 1 1 1h6.748l-0.013672-0.039062h0.0058594c-0.02309-0.064511-0.047642-0.1293-0.076172-0.19141-0.0375-0.08162-0.080714-0.16144-0.12695-0.23828-0.04624-0.07685-0.09438-0.14962-0.14844-0.2207-0.054019-0.071063-0.11486-0.1388-0.17578-0.20312-0.060925-0.064324-0.12456-0.12507-0.19141-0.18164-0.066853-0.05657-0.13714-0.11038-0.20898-0.1582-0.071847-0.047818-0.1448-0.090829-0.2207-0.12891-0.075909-0.03808-0.1534-0.070326-0.23242-0.097656l0.013672-0.003907c-0.08207-0.02646-0.16382-0.05827-0.24219-0.09375-0.07837-0.03547-0.15468-0.076955-0.22852-0.12109-0.073825-0.04411-0.14446-0.090166-0.21289-0.14258-0.068435-0.052401-0.13508-0.10963-0.19727-0.16992-0.062185-0.0603-0.12069-0.12554-0.17578-0.19336-0.05509-0.06781-0.1052-0.13794-0.15234-0.21289-0.047143-0.07495-0.090562-0.15462-0.12891-0.23633-0.038343-0.081721-0.072861-0.16582-0.10156-0.25391-0.023742-0.07289-0.042687-0.14541-0.058594-0.21875-0.015896-0.07333-0.028801-0.14739-0.037109-0.2207-0.016616-0.14662-0.018208-0.29182-0.0058594-0.43555 0.012325-0.14372 0.038764-0.2848 0.078125-0.42188 0.03937-0.13707 0.091772-0.26982 0.15625-0.39648 0.064488-0.12666 0.14083-0.24883 0.22852-0.36133 0.087681-0.1125 0.18791-0.21596 0.29688-0.31055 0.10897-0.09459 0.22715-0.17903 0.35547-0.25195 0.064164-0.03646 0.13058-0.071224 0.19922-0.10156 0.068644-0.030351 0.14-0.056343 0.21289-0.080078 0.072902-0.023759 0.14539-0.044616 0.21875-0.060547 0.073364-0.015919 0.14735-0.028769 0.2207-0.037109 0.1467-0.016693 0.29171-0.016157 0.43555-0.0039063 0.14384 0.012236 0.28662 0.036931 0.42383 0.076172 0.1372 0.039241 0.26969 0.091914 0.39648 0.15625 0.1268 0.06435 0.24675 0.14096 0.35938 0.22852 0.11263 0.08756 0.21782 0.18606 0.3125 0.29492 0.09468 0.10886 0.17898 0.2272 0.25195 0.35547 0.03649 0.06414 0.071211 0.13255 0.10156 0.20117 0.03036 0.06863 0.056328 0.13805 0.080078 0.21094 0.0287 0.08808 0.0512 0.17702 0.06836 0.26562 0.01717 0.08861 0.029046 0.17731 0.035156 0.26562 0.0061 0.08831 0.006453 0.17646 0.001953 0.26367-0.0045 0.08722-0.014677 0.17249-0.029297 0.25781-0.01462 0.08532-0.032351 0.17129-0.05664 0.25391-0.02428 0.08261-0.054401 0.16114-0.087891 0.24023-0.03349 0.07909-0.071044 0.15766-0.11328 0.23242-0.04223 0.07477-0.088158 0.1491-0.13867 0.21875l0.0097656-0.005859c-0.04754 0.06857-0.092329 0.14144-0.13086 0.2168-0.03852 0.075351-0.07021 0.15357-0.099609 0.23438-0.0294 0.080819-0.056012 0.16509-0.076172 0.25-0.02015 0.08491-0.034132 0.17207-0.044922 0.25976-0.0108 0.08768-0.018211 0.1765-0.019531 0.26562-0.0013 0.08912 0.0014756 0.17836 0.0097656 0.26758 0.0083001 0.08922 0.023026 0.17766 0.041016 0.26562 0.01799 0.08797 0.040539 0.17438 0.068359 0.25977l0.0058594 0.023437-0.0039062 0.001954 0.078125 0.22656h4.3223c0.54148 0 0.97266-0.4283 0.99219-0.96484l0.005859-7.7305c-0.44394 0-0.81138-0.004588-1.2148 0.078125l-0.001953-0.0019531c-0.06386 0.023547-0.12607 0.049221-0.1875 0.078125-0.08127 0.038255-0.15991 0.080007-0.23633 0.12695-0.07642 0.046944-0.15207 0.097638-0.22266 0.15234-0.07059 0.054698-0.13742 0.11427-0.20117 0.17578-0.06377 0.061515-0.12373 0.12599-0.17969 0.19336-0.05596 0.06737-0.10713 0.1367-0.1543 0.20898-0.04716 0.072289-0.091525 0.14835-0.12891 0.22461-0.03738 0.076247-0.069093 0.1512-0.095703 0.23047l-0.003906-0.0097656c-0.02571 0.082315-0.057037 0.16155-0.091797 0.24023-0.03475 0.078694-0.073728 0.15624-0.11719 0.23047-0.04346 0.074224-0.088843 0.14594-0.14062 0.21484-0.05178 0.068918-0.1102 0.13648-0.16992 0.19922-0.05973 0.062738-0.12215 0.12008-0.18945 0.17578-0.06729 0.055709-0.13838 0.10842-0.21289 0.15625-0.07451 0.047831-0.15302 0.08982-0.23438 0.12891-0.08135 0.039091-0.16609 0.074013-0.25391 0.10352-0.072661 0.024409-0.14556 0.04592-0.21875 0.0625-0.073181 0.016568-0.14552 0.030074-0.21875 0.039062-0.14644 0.017966-0.29172 0.02082-0.43555 0.0097656-0.14383-0.010986-0.2864-0.038067-0.42383-0.076172-0.13742-0.038132-0.27118-0.087078-0.39844-0.15039-0.12723-0.06333-0.24803-0.13991-0.36133-0.22656-0.1133-0.08665-0.21887-0.18488-0.31445-0.29297-0.095581-0.1081-0.18177-0.22587-0.25586-0.35352-0.037047-0.063824-0.072556-0.12891-0.10352-0.19727-0.030983-0.068356-0.057622-0.14022-0.082031-0.21289-0.024418-0.072676-0.045908-0.14553-0.0625-0.21875-0.016592-0.073213-0.028094-0.14743-0.037109-0.2207-0.018014-0.14655-0.020674-0.2916-0.0097656-0.43555 0.010912-0.14394 0.036244-0.28627 0.074219-0.42383 0.037992-0.13756 0.087215-0.27106 0.15039-0.39844 0.063188-0.12739 0.14004-0.24791 0.22656-0.36133 0.08652-0.11343 0.18497-0.22073 0.29297-0.31641 0.10799-0.095661 0.22592-0.17976 0.35352-0.25391 0.06379-0.037069 0.12893-0.072528 0.19727-0.10352 0.06836-0.030988 0.14022-0.059575 0.21289-0.083984 0.08782-0.029503 0.17522-0.05038 0.26367-0.068359 0.08843-0.017991 0.17736-0.030192 0.26563-0.037109 0.08825-0.00687 0.17642-0.0096094 0.26367-0.0058594 0.08726 0.00362 0.17236 0.013498 0.25781 0.027344s0.17108 0.031152 0.25391 0.054688c0.08283 0.023535 0.16279 0.051223 0.24219 0.083984 0.07941 0.032774 0.15726 0.069777 0.23242 0.11133 0.07515 0.041538 0.14863 0.088795 0.21875 0.13867l-0.001953-0.0097656c0.06901 0.046907 0.13914 0.091066 0.21484 0.12891 0.0757 0.03783 0.15526 0.06899 0.23633 0.097656 0.08107 0.028666 0.1649 0.052889 0.25 0.072266 0.0851 0.019365 0.17198 0.034934 0.25976 0.044922 0.08778 0.00999 0.17649 0.015138 0.26562 0.015625 0.08912 4.345e-4 0.17844-0.0045818 0.26758-0.013672 0.08913-0.00911 0.17782-0.022226 0.26562-0.041016 0.08781-0.018803 0.17464-0.043663 0.25977-0.072266l0.021484-0.0058594 0.001954 0.0039063c0.53296-0.10255 0.97998-0.10352 1.4141-0.10352l-0.005859-3.4512c-0.018322-0.53766-0.45186-0.9668-0.99414-0.9668h-8.8457l0.12891 0.38086-0.0039062 0.0019531c0.02309 0.064573 0.047601 0.12727 0.076172 0.18945 0.037505 0.081616 0.080707 0.16144 0.12695 0.23828 0.046246 0.076846 0.096336 0.15156 0.15039 0.22266 0.054052 0.071078 0.1129 0.1388 0.17383 0.20312 0.060923 0.064324 0.12456 0.12507 0.19141 0.18164 0.066867 0.05657 0.13714 0.11038 0.20898 0.1582 0.071852 0.047806 0.14479 0.090837 0.2207 0.12891 0.075905 0.038092 0.1534 0.070326 0.23242 0.097656l-0.013672 0.0039062c0.08207 0.026444 0.16381 0.058255 0.24219 0.09375 0.078372 0.03547 0.15469 0.074992 0.22852 0.11914 0.073822 0.044123 0.14641 0.092126 0.21484 0.14453 0.068435 0.052388 0.13311 0.10962 0.19531 0.16992 0.06218 0.060304 0.1207 0.12359 0.17578 0.19141 0.055098 0.067807 0.1052 0.1399 0.15234 0.21484 0.04714 0.074936 0.090561 0.15267 0.12891 0.23438 0.038343 0.081703 0.072866 0.16582 0.10156 0.25391 0.023751 0.072889 0.044637 0.14736 0.060547 0.2207 0.015916 0.073313 0.026852 0.14739 0.035156 0.2207 0.016639 0.14663 0.018208 0.29182 0.0058594 0.43555-0.012325 0.14372-0.038759 0.28676-0.078125 0.42383-0.039374 0.13707-0.091768 0.26982-0.15625 0.39648-0.064488 0.12664-0.14083 0.24492-0.22852 0.35742-0.087682 0.1125-0.18597 0.21791-0.29492 0.3125-0.10898 0.094588-0.22715 0.17903-0.35547 0.25195-0.064166 0.036444-0.13058 0.071224-0.19922 0.10156-0.068639 0.030352-0.14001 0.056331-0.21289 0.080078-0.072902 0.023759-0.14733 0.044616-0.2207 0.060547-0.073351 0.015919-0.14735 0.026816-0.2207 0.035156-0.1467 0.01668-0.29171 0.01811-0.43555 0.0058594-0.14384-0.012232-0.28466-0.038896-0.42188-0.078125-0.13719-0.039241-0.27164-0.089962-0.39844-0.1543-0.1268-0.064349-0.24677-0.14096-0.35938-0.22852-0.11264-0.087559-0.21782-0.18606-0.3125-0.29492-0.09468-0.10887-0.17899-0.22916-0.25195-0.35742-0.036494-0.064136-0.069258-0.12865-0.099609-0.19727-0.030359-0.068631-0.058282-0.14195-0.082031-0.21484-0.028688-0.088083-0.051192-0.17507-0.068359-0.26367-0.017173-0.08862-0.029052-0.17731-0.035156-0.26562-0.00613-0.08832-0.0064431-0.1745-0.0019532-0.26172 0.00447-0.087222 0.01467-0.1764 0.029297-0.26172 0.014613-0.085336 0.032356-0.16934 0.056641-0.25195 0.024287-0.082615 0.054402-0.16309 0.087891-0.24219 0.0335-0.079094 0.071036-0.1557 0.11328-0.23047 0.042226-0.074774 0.088157-0.14715 0.13867-0.2168l-0.0097656 0.0019531c0.047542-0.068579 0.092329-0.13949 0.13086-0.21484 0.038526-0.075361 0.072162-0.15357 0.10156-0.23438 0.029404-0.080817 0.054069-0.16508 0.074219-0.25 0.02016-0.084899 0.034133-0.17208 0.044922-0.25977 0.010812-0.087683 0.018207-0.17455 0.019531-0.26367 0.00139-0.089119-0.0015376-0.17837-0.0097656-0.26758-0.00826-0.089194-0.02302-0.17961-0.041016-0.26758-0.018014-0.087983-0.04054-0.17633-0.068359-0.26172l-0.0058594-0.021484h0.0039063l-0.10938-0.32422s-0.051025-0.19257-0.068359-0.24805h-2.2422z"
       transform="matrix(4,0,0,4,16,17)"
       inkscape:radius="0.25"
       sodipodi:type="inkscape:offset" />
    <g
       id="Bevel1">
      <path
         fill="#000"
         opacity=".10"
         sodipodi:type="inkscape:offset"
         inkscape:radius="0.5"
         transform="translate(16,17) scale(4)"
         inkscape:original="m2 1c-0.554 0-1 0.446-1 1v7.5098c0.029451-0.02616 0.057718-0.052878 0.085938-0.080078 0.063782-0.061529 0.12568-0.12404 0.18164-0.19141 0.055959-0.06737 0.10714-0.13866 0.1543-0.21094 0.047159-0.072289 0.08957-0.14835 0.12695-0.22461 0.037379-0.076247 0.069091-0.15315 0.095703-0.23242l0.0039063 0.011719c0.025691-0.082327 0.057019-0.1635 0.091797-0.24219 0.034748-0.078707 0.073732-0.15428 0.11719-0.22852 0.04345-0.074224 0.0908-0.14594 0.14258-0.21484 0.051776-0.068918 0.10824-0.13453 0.16797-0.19727 0.059725-0.062738 0.1241-0.12398 0.19141-0.17969 0.0673-0.055709 0.13642-0.10647 0.21094-0.1543 0.074505-0.047843 0.15302-0.09177 0.23438-0.13086 0.081355-0.039091 0.16609-0.072048 0.25391-0.10156 0.072681-0.024396 0.14557-0.04592 0.21875-0.0625 0.07318-0.016568 0.14747-0.030086 0.2207-0.039062 0.14647-0.017966 0.28976-0.020766 0.43359-0.0097656 0.14383 0.010987 0.2864 0.036114 0.42383 0.074219 0.13742 0.038117 0.27118 0.090971 0.39844 0.1543 0.12724 0.063325 0.24803 0.13796 0.36133 0.22461 0.11332 0.086647 0.21887 0.18292 0.31445 0.29102 0.095565 0.10811 0.18177 0.22782 0.25586 0.35547 0.03704 0.063812 0.072548 0.1289 0.10352 0.19727 0.030976 0.068356 0.057624 0.13827 0.082031 0.21094 0.024434 0.072664 0.04591 0.14747 0.0625 0.2207 0.016615 0.073201 0.028086 0.14547 0.037109 0.21875 0.018015 0.14655 0.020682 0.29355 0.0097657 0.4375-0.010912 0.14393-0.036246 0.28432-0.074219 0.42188-0.037977 0.13756-0.087212 0.27302-0.15039 0.40039-0.063188 0.12739-0.13808 0.24791-0.22461 0.36133-0.086507 0.11343-0.18498 0.21878-0.29297 0.31445-0.10799 0.09565-0.22788 0.18172-0.35547 0.25586-0.063795 0.03707-0.12893 0.070577-0.19727 0.10156-0.068365 0.03098-0.14023 0.059574-0.21289 0.083984-0.087833 0.02951-0.17522 0.052333-0.26367 0.070313-0.088441 0.01799-0.17737 0.030189-0.26562 0.037109-0.088253 0.0069-0.17446 0.009459-0.26172 0.005859-0.087263-0.0036-0.17626-0.013493-0.26172-0.027343-0.085447-0.01385-0.16912-0.031158-0.25195-0.054688-0.082828-0.02353-0.16278-0.053177-0.24219-0.085937-0.079398-0.03277-0.1553-0.069773-0.23047-0.11133-0.075145-0.04154-0.15059-0.086847-0.2207-0.13672l0.0039062 0.009765c-0.069007-0.04689-0.14109-0.089116-0.2168-0.12695-0.075706-0.03782-0.15526-0.070949-0.23633-0.099609-0.08107-0.02867-0.1649-0.052876-0.25-0.072266-0.085099-0.01936-0.17199-0.032978-0.25977-0.042968-0.087798-0.01-0.17649-0.015145-0.26562-0.015626-0.083377-4.34e-4 -0.16656 0.002056-0.25 0.009766v3.2949c0 0.554 0.446 1 1 1h6.748l-0.013672-0.039062h0.0058594c-0.02309-0.064511-0.047642-0.1293-0.076172-0.19141-0.0375-0.08162-0.080714-0.16144-0.12695-0.23828-0.04624-0.07685-0.09438-0.14962-0.14844-0.2207-0.054019-0.071063-0.11486-0.1388-0.17578-0.20312-0.060925-0.064324-0.12456-0.12507-0.19141-0.18164-0.066853-0.05657-0.13714-0.11038-0.20898-0.1582-0.071847-0.047818-0.1448-0.090829-0.2207-0.12891-0.075909-0.03808-0.1534-0.070326-0.23242-0.097656l0.013672-0.003907c-0.08207-0.02646-0.16382-0.05827-0.24219-0.09375-0.07837-0.03547-0.15468-0.076955-0.22852-0.12109-0.073825-0.04411-0.14446-0.090166-0.21289-0.14258-0.068435-0.052401-0.13508-0.10963-0.19727-0.16992-0.062185-0.0603-0.12069-0.12554-0.17578-0.19336-0.05509-0.06781-0.1052-0.13794-0.15234-0.21289-0.047143-0.07495-0.090562-0.15462-0.12891-0.23633-0.038343-0.081721-0.072861-0.16582-0.10156-0.25391-0.023742-0.07289-0.042687-0.14541-0.058594-0.21875-0.015896-0.07333-0.028801-0.14739-0.037109-0.2207-0.016616-0.14662-0.018208-0.29182-0.0058594-0.43555 0.012325-0.14372 0.038764-0.2848 0.078125-0.42188 0.03937-0.13707 0.091772-0.26982 0.15625-0.39648 0.064488-0.12666 0.14083-0.24883 0.22852-0.36133 0.087681-0.1125 0.18791-0.21596 0.29688-0.31055 0.10897-0.09459 0.22715-0.17903 0.35547-0.25195 0.064164-0.03646 0.13058-0.071224 0.19922-0.10156 0.068644-0.030351 0.14-0.056343 0.21289-0.080078 0.072902-0.023759 0.14539-0.044616 0.21875-0.060547 0.073364-0.015919 0.14735-0.028769 0.2207-0.037109 0.1467-0.016693 0.29171-0.016157 0.43555-0.0039063 0.14384 0.012236 0.28662 0.036931 0.42383 0.076172 0.1372 0.039241 0.26969 0.091914 0.39648 0.15625 0.1268 0.06435 0.24675 0.14096 0.35938 0.22852 0.11263 0.08756 0.21782 0.18606 0.3125 0.29492 0.09468 0.10886 0.17898 0.2272 0.25195 0.35547 0.03649 0.06414 0.071211 0.13255 0.10156 0.20117 0.03036 0.06863 0.056328 0.13805 0.080078 0.21094 0.0287 0.08808 0.0512 0.17702 0.06836 0.26562 0.01717 0.08861 0.029046 0.17731 0.035156 0.26562 0.0061 0.08831 0.006453 0.17646 0.001953 0.26367-0.0045 0.08722-0.014677 0.17249-0.029297 0.25781-0.01462 0.08532-0.032351 0.17129-0.05664 0.25391-0.02428 0.08261-0.054401 0.16114-0.087891 0.24023-0.03349 0.07909-0.071044 0.15766-0.11328 0.23242-0.04223 0.07477-0.088158 0.1491-0.13867 0.21875l0.0097656-0.005859c-0.04754 0.06857-0.092329 0.14144-0.13086 0.2168-0.03852 0.075351-0.07021 0.15357-0.099609 0.23438-0.0294 0.080819-0.056012 0.16509-0.076172 0.25-0.02015 0.08491-0.034132 0.17207-0.044922 0.25976-0.0108 0.08768-0.018211 0.1765-0.019531 0.26562-0.0013 0.08912 0.0014756 0.17836 0.0097656 0.26758 0.0083001 0.08922 0.023026 0.17766 0.041016 0.26562 0.01799 0.08797 0.040539 0.17438 0.068359 0.25977l0.0058594 0.023437-0.0039062 0.001954 0.078125 0.22656h4.3223c0.54148 0 0.97266-0.4283 0.99219-0.96484l0.005859-7.7305c-0.44394 0-0.81138-0.004588-1.2148 0.078125l-0.001953-0.0019531c-0.06386 0.023547-0.12607 0.049221-0.1875 0.078125-0.08127 0.038255-0.15991 0.080007-0.23633 0.12695-0.07642 0.046944-0.15207 0.097638-0.22266 0.15234-0.07059 0.054698-0.13742 0.11427-0.20117 0.17578-0.06377 0.061515-0.12373 0.12599-0.17969 0.19336-0.05596 0.06737-0.10713 0.1367-0.1543 0.20898-0.04716 0.072289-0.091525 0.14835-0.12891 0.22461-0.03738 0.076247-0.069093 0.1512-0.095703 0.23047l-0.003906-0.0097656c-0.02571 0.082315-0.057037 0.16155-0.091797 0.24023-0.03475 0.078694-0.073728 0.15624-0.11719 0.23047-0.04346 0.074224-0.088843 0.14594-0.14062 0.21484-0.05178 0.068918-0.1102 0.13648-0.16992 0.19922-0.05973 0.062738-0.12215 0.12008-0.18945 0.17578-0.06729 0.055709-0.13838 0.10842-0.21289 0.15625-0.07451 0.047831-0.15302 0.08982-0.23438 0.12891-0.08135 0.039091-0.16609 0.074013-0.25391 0.10352-0.072661 0.024409-0.14556 0.04592-0.21875 0.0625-0.073181 0.016568-0.14552 0.030074-0.21875 0.039062-0.14644 0.017966-0.29172 0.02082-0.43555 0.0097656-0.14383-0.010986-0.2864-0.038067-0.42383-0.076172-0.13742-0.038132-0.27118-0.087078-0.39844-0.15039-0.12723-0.06333-0.24803-0.13991-0.36133-0.22656-0.1133-0.08665-0.21887-0.18488-0.31445-0.29297-0.095581-0.1081-0.18177-0.22587-0.25586-0.35352-0.037047-0.063824-0.072556-0.12891-0.10352-0.19727-0.030983-0.068356-0.057622-0.14022-0.082031-0.21289-0.024418-0.072676-0.045908-0.14553-0.0625-0.21875-0.016592-0.073213-0.028094-0.14743-0.037109-0.2207-0.018014-0.14655-0.020674-0.2916-0.0097656-0.43555 0.010912-0.14394 0.036244-0.28627 0.074219-0.42383 0.037992-0.13756 0.087215-0.27106 0.15039-0.39844 0.063188-0.12739 0.14004-0.24791 0.22656-0.36133 0.08652-0.11343 0.18497-0.22073 0.29297-0.31641 0.10799-0.095661 0.22592-0.17976 0.35352-0.25391 0.06379-0.037069 0.12893-0.072528 0.19727-0.10352 0.06836-0.030988 0.14022-0.059575 0.21289-0.083984 0.08782-0.029503 0.17522-0.05038 0.26367-0.068359 0.08843-0.017991 0.17736-0.030192 0.26563-0.037109 0.08825-0.00687 0.17642-0.0096094 0.26367-0.0058594 0.08726 0.00362 0.17236 0.013498 0.25781 0.027344s0.17108 0.031152 0.25391 0.054688c0.08283 0.023535 0.16279 0.051223 0.24219 0.083984 0.07941 0.032774 0.15726 0.069777 0.23242 0.11133 0.07515 0.041538 0.14863 0.088795 0.21875 0.13867l-0.001953-0.0097656c0.06901 0.046907 0.13914 0.091066 0.21484 0.12891 0.0757 0.03783 0.15526 0.06899 0.23633 0.097656 0.08107 0.028666 0.1649 0.052889 0.25 0.072266 0.0851 0.019365 0.17198 0.034934 0.25976 0.044922 0.08778 0.00999 0.17649 0.015138 0.26562 0.015625 0.08912 4.345e-4 0.17844-0.0045818 0.26758-0.013672 0.08913-0.00911 0.17782-0.022226 0.26562-0.041016 0.08781-0.018803 0.17464-0.043663 0.25977-0.072266l0.021484-0.0058594 0.001954 0.0039063c0.53296-0.10255 0.97998-0.10352 1.4141-0.10352l-0.005859-3.4512c-0.018322-0.53766-0.45186-0.9668-0.99414-0.9668h-8.8457l0.12891 0.38086-0.0039062 0.0019531c0.02309 0.064573 0.047601 0.12727 0.076172 0.18945 0.037505 0.081616 0.080707 0.16144 0.12695 0.23828 0.046246 0.076846 0.096336 0.15156 0.15039 0.22266 0.054052 0.071078 0.1129 0.1388 0.17383 0.20312 0.060923 0.064324 0.12456 0.12507 0.19141 0.18164 0.066867 0.05657 0.13714 0.11038 0.20898 0.1582 0.071852 0.047806 0.14479 0.090837 0.2207 0.12891 0.075905 0.038092 0.1534 0.070326 0.23242 0.097656l-0.013672 0.0039062c0.08207 0.026444 0.16381 0.058255 0.24219 0.09375 0.078372 0.03547 0.15469 0.074992 0.22852 0.11914 0.073822 0.044123 0.14641 0.092126 0.21484 0.14453 0.068435 0.052388 0.13311 0.10962 0.19531 0.16992 0.06218 0.060304 0.1207 0.12359 0.17578 0.19141 0.055098 0.067807 0.1052 0.1399 0.15234 0.21484 0.04714 0.074936 0.090561 0.15267 0.12891 0.23438 0.038343 0.081703 0.072866 0.16582 0.10156 0.25391 0.023751 0.072889 0.044637 0.14736 0.060547 0.2207 0.015916 0.073313 0.026852 0.14739 0.035156 0.2207 0.016639 0.14663 0.018208 0.29182 0.0058594 0.43555-0.012325 0.14372-0.038759 0.28676-0.078125 0.42383-0.039374 0.13707-0.091768 0.26982-0.15625 0.39648-0.064488 0.12664-0.14083 0.24492-0.22852 0.35742-0.087682 0.1125-0.18597 0.21791-0.29492 0.3125-0.10898 0.094588-0.22715 0.17903-0.35547 0.25195-0.064166 0.036444-0.13058 0.071224-0.19922 0.10156-0.068639 0.030352-0.14001 0.056331-0.21289 0.080078-0.072902 0.023759-0.14733 0.044616-0.2207 0.060547-0.073351 0.015919-0.14735 0.026816-0.2207 0.035156-0.1467 0.01668-0.29171 0.01811-0.43555 0.0058594-0.14384-0.012232-0.28466-0.038896-0.42188-0.078125-0.13719-0.039241-0.27164-0.089962-0.39844-0.1543-0.1268-0.064349-0.24677-0.14096-0.35938-0.22852-0.11264-0.087559-0.21782-0.18606-0.3125-0.29492-0.09468-0.10887-0.17899-0.22916-0.25195-0.35742-0.036494-0.064136-0.069258-0.12865-0.099609-0.19727-0.030359-0.068631-0.058282-0.14195-0.082031-0.21484-0.028688-0.088083-0.051192-0.17507-0.068359-0.26367-0.017173-0.08862-0.029052-0.17731-0.035156-0.26562-0.00613-0.08832-0.0064431-0.1745-0.0019532-0.26172 0.00447-0.087222 0.01467-0.1764 0.029297-0.26172 0.014613-0.085336 0.032356-0.16934 0.056641-0.25195 0.024287-0.082615 0.054402-0.16309 0.087891-0.24219 0.0335-0.079094 0.071036-0.1557 0.11328-0.23047 0.042226-0.074774 0.088157-0.14715 0.13867-0.2168l-0.0097656 0.0019531c0.047542-0.068579 0.092329-0.13949 0.13086-0.21484 0.038526-0.075361 0.072162-0.15357 0.10156-0.23438 0.029404-0.080817 0.054069-0.16508 0.074219-0.25 0.02016-0.084899 0.034133-0.17208 0.044922-0.25977 0.010812-0.087683 0.018207-0.17455 0.019531-0.26367 0.00139-0.089119-0.0015376-0.17837-0.0097656-0.26758-0.00826-0.089194-0.02302-0.17961-0.041016-0.26758-0.018014-0.087983-0.04054-0.17633-0.068359-0.26172l-0.0058594-0.021484h0.0039063l-0.10938-0.32422s-0.051025-0.19257-0.068359-0.24805h-2.2422z"
         id="path58" />
    </g>
    <g
       id="Bevel2">
      <path
         fill="#000"
         opacity=".05"
         sodipodi:type="inkscape:offset"
         inkscape:radius="0.75"
         transform="translate(16,17) scale(4)"
         inkscape:original="m2 1c-0.554 0-1 0.446-1 1v7.5098c0.029451-0.02616 0.057718-0.052878 0.085938-0.080078 0.063782-0.061529 0.12568-0.12404 0.18164-0.19141 0.055959-0.06737 0.10714-0.13866 0.1543-0.21094 0.047159-0.072289 0.08957-0.14835 0.12695-0.22461 0.037379-0.076247 0.069091-0.15315 0.095703-0.23242l0.0039063 0.011719c0.025691-0.082327 0.057019-0.1635 0.091797-0.24219 0.034748-0.078707 0.073732-0.15428 0.11719-0.22852 0.04345-0.074224 0.0908-0.14594 0.14258-0.21484 0.051776-0.068918 0.10824-0.13453 0.16797-0.19727 0.059725-0.062738 0.1241-0.12398 0.19141-0.17969 0.0673-0.055709 0.13642-0.10647 0.21094-0.1543 0.074505-0.047843 0.15302-0.09177 0.23438-0.13086 0.081355-0.039091 0.16609-0.072048 0.25391-0.10156 0.072681-0.024396 0.14557-0.04592 0.21875-0.0625 0.07318-0.016568 0.14747-0.030086 0.2207-0.039062 0.14647-0.017966 0.28976-0.020766 0.43359-0.0097656 0.14383 0.010987 0.2864 0.036114 0.42383 0.074219 0.13742 0.038117 0.27118 0.090971 0.39844 0.1543 0.12724 0.063325 0.24803 0.13796 0.36133 0.22461 0.11332 0.086647 0.21887 0.18292 0.31445 0.29102 0.095565 0.10811 0.18177 0.22782 0.25586 0.35547 0.03704 0.063812 0.072548 0.1289 0.10352 0.19727 0.030976 0.068356 0.057624 0.13827 0.082031 0.21094 0.024434 0.072664 0.04591 0.14747 0.0625 0.2207 0.016615 0.073201 0.028086 0.14547 0.037109 0.21875 0.018015 0.14655 0.020682 0.29355 0.0097657 0.4375-0.010912 0.14393-0.036246 0.28432-0.074219 0.42188-0.037977 0.13756-0.087212 0.27302-0.15039 0.40039-0.063188 0.12739-0.13808 0.24791-0.22461 0.36133-0.086507 0.11343-0.18498 0.21878-0.29297 0.31445-0.10799 0.09565-0.22788 0.18172-0.35547 0.25586-0.063795 0.03707-0.12893 0.070577-0.19727 0.10156-0.068365 0.03098-0.14023 0.059574-0.21289 0.083984-0.087833 0.02951-0.17522 0.052333-0.26367 0.070313-0.088441 0.01799-0.17737 0.030189-0.26562 0.037109-0.088253 0.0069-0.17446 0.009459-0.26172 0.005859-0.087263-0.0036-0.17626-0.013493-0.26172-0.027343-0.085447-0.01385-0.16912-0.031158-0.25195-0.054688-0.082828-0.02353-0.16278-0.053177-0.24219-0.085937-0.079398-0.03277-0.1553-0.069773-0.23047-0.11133-0.075145-0.04154-0.15059-0.086847-0.2207-0.13672l0.0039062 0.009765c-0.069007-0.04689-0.14109-0.089116-0.2168-0.12695-0.075706-0.03782-0.15526-0.070949-0.23633-0.099609-0.08107-0.02867-0.1649-0.052876-0.25-0.072266-0.085099-0.01936-0.17199-0.032978-0.25977-0.042968-0.087798-0.01-0.17649-0.015145-0.26562-0.015626-0.083377-4.34e-4 -0.16656 0.002056-0.25 0.009766v3.2949c0 0.554 0.446 1 1 1h6.748l-0.013672-0.039062h0.0058594c-0.02309-0.064511-0.047642-0.1293-0.076172-0.19141-0.0375-0.08162-0.080714-0.16144-0.12695-0.23828-0.04624-0.07685-0.09438-0.14962-0.14844-0.2207-0.054019-0.071063-0.11486-0.1388-0.17578-0.20312-0.060925-0.064324-0.12456-0.12507-0.19141-0.18164-0.066853-0.05657-0.13714-0.11038-0.20898-0.1582-0.071847-0.047818-0.1448-0.090829-0.2207-0.12891-0.075909-0.03808-0.1534-0.070326-0.23242-0.097656l0.013672-0.003907c-0.08207-0.02646-0.16382-0.05827-0.24219-0.09375-0.07837-0.03547-0.15468-0.076955-0.22852-0.12109-0.073825-0.04411-0.14446-0.090166-0.21289-0.14258-0.068435-0.052401-0.13508-0.10963-0.19727-0.16992-0.062185-0.0603-0.12069-0.12554-0.17578-0.19336-0.05509-0.06781-0.1052-0.13794-0.15234-0.21289-0.047143-0.07495-0.090562-0.15462-0.12891-0.23633-0.038343-0.081721-0.072861-0.16582-0.10156-0.25391-0.023742-0.07289-0.042687-0.14541-0.058594-0.21875-0.015896-0.07333-0.028801-0.14739-0.037109-0.2207-0.016616-0.14662-0.018208-0.29182-0.0058594-0.43555 0.012325-0.14372 0.038764-0.2848 0.078125-0.42188 0.03937-0.13707 0.091772-0.26982 0.15625-0.39648 0.064488-0.12666 0.14083-0.24883 0.22852-0.36133 0.087681-0.1125 0.18791-0.21596 0.29688-0.31055 0.10897-0.09459 0.22715-0.17903 0.35547-0.25195 0.064164-0.03646 0.13058-0.071224 0.19922-0.10156 0.068644-0.030351 0.14-0.056343 0.21289-0.080078 0.072902-0.023759 0.14539-0.044616 0.21875-0.060547 0.073364-0.015919 0.14735-0.028769 0.2207-0.037109 0.1467-0.016693 0.29171-0.016157 0.43555-0.0039063 0.14384 0.012236 0.28662 0.036931 0.42383 0.076172 0.1372 0.039241 0.26969 0.091914 0.39648 0.15625 0.1268 0.06435 0.24675 0.14096 0.35938 0.22852 0.11263 0.08756 0.21782 0.18606 0.3125 0.29492 0.09468 0.10886 0.17898 0.2272 0.25195 0.35547 0.03649 0.06414 0.071211 0.13255 0.10156 0.20117 0.03036 0.06863 0.056328 0.13805 0.080078 0.21094 0.0287 0.08808 0.0512 0.17702 0.06836 0.26562 0.01717 0.08861 0.029046 0.17731 0.035156 0.26562 0.0061 0.08831 0.006453 0.17646 0.001953 0.26367-0.0045 0.08722-0.014677 0.17249-0.029297 0.25781-0.01462 0.08532-0.032351 0.17129-0.05664 0.25391-0.02428 0.08261-0.054401 0.16114-0.087891 0.24023-0.03349 0.07909-0.071044 0.15766-0.11328 0.23242-0.04223 0.07477-0.088158 0.1491-0.13867 0.21875l0.0097656-0.005859c-0.04754 0.06857-0.092329 0.14144-0.13086 0.2168-0.03852 0.075351-0.07021 0.15357-0.099609 0.23438-0.0294 0.080819-0.056012 0.16509-0.076172 0.25-0.02015 0.08491-0.034132 0.17207-0.044922 0.25976-0.0108 0.08768-0.018211 0.1765-0.019531 0.26562-0.0013 0.08912 0.0014756 0.17836 0.0097656 0.26758 0.0083001 0.08922 0.023026 0.17766 0.041016 0.26562 0.01799 0.08797 0.040539 0.17438 0.068359 0.25977l0.0058594 0.023437-0.0039062 0.001954 0.078125 0.22656h4.3223c0.54148 0 0.97266-0.4283 0.99219-0.96484l0.005859-7.7305c-0.44394 0-0.81138-0.004588-1.2148 0.078125l-0.001953-0.0019531c-0.06386 0.023547-0.12607 0.049221-0.1875 0.078125-0.08127 0.038255-0.15991 0.080007-0.23633 0.12695-0.07642 0.046944-0.15207 0.097638-0.22266 0.15234-0.07059 0.054698-0.13742 0.11427-0.20117 0.17578-0.06377 0.061515-0.12373 0.12599-0.17969 0.19336-0.05596 0.06737-0.10713 0.1367-0.1543 0.20898-0.04716 0.072289-0.091525 0.14835-0.12891 0.22461-0.03738 0.076247-0.069093 0.1512-0.095703 0.23047l-0.003906-0.0097656c-0.02571 0.082315-0.057037 0.16155-0.091797 0.24023-0.03475 0.078694-0.073728 0.15624-0.11719 0.23047-0.04346 0.074224-0.088843 0.14594-0.14062 0.21484-0.05178 0.068918-0.1102 0.13648-0.16992 0.19922-0.05973 0.062738-0.12215 0.12008-0.18945 0.17578-0.06729 0.055709-0.13838 0.10842-0.21289 0.15625-0.07451 0.047831-0.15302 0.08982-0.23438 0.12891-0.08135 0.039091-0.16609 0.074013-0.25391 0.10352-0.072661 0.024409-0.14556 0.04592-0.21875 0.0625-0.073181 0.016568-0.14552 0.030074-0.21875 0.039062-0.14644 0.017966-0.29172 0.02082-0.43555 0.0097656-0.14383-0.010986-0.2864-0.038067-0.42383-0.076172-0.13742-0.038132-0.27118-0.087078-0.39844-0.15039-0.12723-0.06333-0.24803-0.13991-0.36133-0.22656-0.1133-0.08665-0.21887-0.18488-0.31445-0.29297-0.095581-0.1081-0.18177-0.22587-0.25586-0.35352-0.037047-0.063824-0.072556-0.12891-0.10352-0.19727-0.030983-0.068356-0.057622-0.14022-0.082031-0.21289-0.024418-0.072676-0.045908-0.14553-0.0625-0.21875-0.016592-0.073213-0.028094-0.14743-0.037109-0.2207-0.018014-0.14655-0.020674-0.2916-0.0097656-0.43555 0.010912-0.14394 0.036244-0.28627 0.074219-0.42383 0.037992-0.13756 0.087215-0.27106 0.15039-0.39844 0.063188-0.12739 0.14004-0.24791 0.22656-0.36133 0.08652-0.11343 0.18497-0.22073 0.29297-0.31641 0.10799-0.095661 0.22592-0.17976 0.35352-0.25391 0.06379-0.037069 0.12893-0.072528 0.19727-0.10352 0.06836-0.030988 0.14022-0.059575 0.21289-0.083984 0.08782-0.029503 0.17522-0.05038 0.26367-0.068359 0.08843-0.017991 0.17736-0.030192 0.26563-0.037109 0.08825-0.00687 0.17642-0.0096094 0.26367-0.0058594 0.08726 0.00362 0.17236 0.013498 0.25781 0.027344s0.17108 0.031152 0.25391 0.054688c0.08283 0.023535 0.16279 0.051223 0.24219 0.083984 0.07941 0.032774 0.15726 0.069777 0.23242 0.11133 0.07515 0.041538 0.14863 0.088795 0.21875 0.13867l-0.001953-0.0097656c0.06901 0.046907 0.13914 0.091066 0.21484 0.12891 0.0757 0.03783 0.15526 0.06899 0.23633 0.097656 0.08107 0.028666 0.1649 0.052889 0.25 0.072266 0.0851 0.019365 0.17198 0.034934 0.25976 0.044922 0.08778 0.00999 0.17649 0.015138 0.26562 0.015625 0.08912 4.345e-4 0.17844-0.0045818 0.26758-0.013672 0.08913-0.00911 0.17782-0.022226 0.26562-0.041016 0.08781-0.018803 0.17464-0.043663 0.25977-0.072266l0.021484-0.0058594 0.001954 0.0039063c0.53296-0.10255 0.97998-0.10352 1.4141-0.10352l-0.005859-3.4512c-0.018322-0.53766-0.45186-0.9668-0.99414-0.9668h-8.8457l0.12891 0.38086-0.0039062 0.0019531c0.02309 0.064573 0.047601 0.12727 0.076172 0.18945 0.037505 0.081616 0.080707 0.16144 0.12695 0.23828 0.046246 0.076846 0.096336 0.15156 0.15039 0.22266 0.054052 0.071078 0.1129 0.1388 0.17383 0.20312 0.060923 0.064324 0.12456 0.12507 0.19141 0.18164 0.066867 0.05657 0.13714 0.11038 0.20898 0.1582 0.071852 0.047806 0.14479 0.090837 0.2207 0.12891 0.075905 0.038092 0.1534 0.070326 0.23242 0.097656l-0.013672 0.0039062c0.08207 0.026444 0.16381 0.058255 0.24219 0.09375 0.078372 0.03547 0.15469 0.074992 0.22852 0.11914 0.073822 0.044123 0.14641 0.092126 0.21484 0.14453 0.068435 0.052388 0.13311 0.10962 0.19531 0.16992 0.06218 0.060304 0.1207 0.12359 0.17578 0.19141 0.055098 0.067807 0.1052 0.1399 0.15234 0.21484 0.04714 0.074936 0.090561 0.15267 0.12891 0.23438 0.038343 0.081703 0.072866 0.16582 0.10156 0.25391 0.023751 0.072889 0.044637 0.14736 0.060547 0.2207 0.015916 0.073313 0.026852 0.14739 0.035156 0.2207 0.016639 0.14663 0.018208 0.29182 0.0058594 0.43555-0.012325 0.14372-0.038759 0.28676-0.078125 0.42383-0.039374 0.13707-0.091768 0.26982-0.15625 0.39648-0.064488 0.12664-0.14083 0.24492-0.22852 0.35742-0.087682 0.1125-0.18597 0.21791-0.29492 0.3125-0.10898 0.094588-0.22715 0.17903-0.35547 0.25195-0.064166 0.036444-0.13058 0.071224-0.19922 0.10156-0.068639 0.030352-0.14001 0.056331-0.21289 0.080078-0.072902 0.023759-0.14733 0.044616-0.2207 0.060547-0.073351 0.015919-0.14735 0.026816-0.2207 0.035156-0.1467 0.01668-0.29171 0.01811-0.43555 0.0058594-0.14384-0.012232-0.28466-0.038896-0.42188-0.078125-0.13719-0.039241-0.27164-0.089962-0.39844-0.1543-0.1268-0.064349-0.24677-0.14096-0.35938-0.22852-0.11264-0.087559-0.21782-0.18606-0.3125-0.29492-0.09468-0.10887-0.17899-0.22916-0.25195-0.35742-0.036494-0.064136-0.069258-0.12865-0.099609-0.19727-0.030359-0.068631-0.058282-0.14195-0.082031-0.21484-0.028688-0.088083-0.051192-0.17507-0.068359-0.26367-0.017173-0.08862-0.029052-0.17731-0.035156-0.26562-0.00613-0.08832-0.0064431-0.1745-0.0019532-0.26172 0.00447-0.087222 0.01467-0.1764 0.029297-0.26172 0.014613-0.085336 0.032356-0.16934 0.056641-0.25195 0.024287-0.082615 0.054402-0.16309 0.087891-0.24219 0.0335-0.079094 0.071036-0.1557 0.11328-0.23047 0.042226-0.074774 0.088157-0.14715 0.13867-0.2168l-0.0097656 0.0019531c0.047542-0.068579 0.092329-0.13949 0.13086-0.21484 0.038526-0.075361 0.072162-0.15357 0.10156-0.23438 0.029404-0.080817 0.054069-0.16508 0.074219-0.25 0.02016-0.084899 0.034133-0.17208 0.044922-0.25977 0.010812-0.087683 0.018207-0.17455 0.019531-0.26367 0.00139-0.089119-0.0015376-0.17837-0.0097656-0.26758-0.00826-0.089194-0.02302-0.17961-0.041016-0.26758-0.018014-0.087983-0.04054-0.17633-0.068359-0.26172l-0.0058594-0.021484h0.0039063l-0.10938-0.32422s-0.051025-0.19257-0.068359-0.24805h-2.2422z"
         id="path61" />
    </g>
    <path
       d="m2 1c-0.554 0-1 0.446-1 1v7.5098c0.029451-0.02616 0.057718-0.052878 0.085938-0.080078 0.063782-0.061529 0.12568-0.12404 0.18164-0.19141 0.055959-0.06737 0.10714-0.13866 0.1543-0.21094 0.047159-0.072289 0.08957-0.14835 0.12695-0.22461 0.037379-0.076247 0.069091-0.15315 0.095703-0.23242l0.0039063 0.011719c0.025691-0.082327 0.057019-0.1635 0.091797-0.24219 0.034748-0.078707 0.073732-0.15428 0.11719-0.22852 0.04345-0.074224 0.0908-0.14594 0.14258-0.21484 0.051776-0.068918 0.10824-0.13453 0.16797-0.19727 0.059725-0.062738 0.1241-0.12398 0.19141-0.17969 0.0673-0.055709 0.13642-0.10647 0.21094-0.1543 0.074505-0.047843 0.15302-0.09177 0.23438-0.13086 0.081355-0.039091 0.16609-0.072048 0.25391-0.10156 0.072681-0.024396 0.14557-0.04592 0.21875-0.0625 0.07318-0.016568 0.14747-0.030086 0.2207-0.039062 0.14647-0.017966 0.28976-0.020766 0.43359-0.0097656 0.14383 0.010987 0.2864 0.036114 0.42383 0.074219 0.13742 0.038117 0.27118 0.090971 0.39844 0.1543 0.12724 0.063325 0.24803 0.13796 0.36133 0.22461 0.11332 0.086647 0.21887 0.18292 0.31445 0.29102 0.095565 0.10811 0.18177 0.22782 0.25586 0.35547 0.03704 0.063812 0.072548 0.1289 0.10352 0.19727 0.030976 0.068356 0.057624 0.13827 0.082031 0.21094 0.024434 0.072664 0.04591 0.14747 0.0625 0.2207 0.016615 0.073201 0.028086 0.14547 0.037109 0.21875 0.018015 0.14655 0.020682 0.29355 0.0097657 0.4375-0.010912 0.14393-0.036246 0.28432-0.074219 0.42188-0.037977 0.13756-0.087212 0.27302-0.15039 0.40039-0.063188 0.12739-0.13808 0.24791-0.22461 0.36133-0.086507 0.11343-0.18498 0.21878-0.29297 0.31445-0.10799 0.09565-0.22788 0.18172-0.35547 0.25586-0.063795 0.03707-0.12893 0.070577-0.19727 0.10156-0.068365 0.03098-0.14023 0.059574-0.21289 0.083984-0.087833 0.02951-0.17522 0.052333-0.26367 0.070313-0.088441 0.01799-0.17737 0.030189-0.26562 0.037109-0.088253 0.0069-0.17446 0.009459-0.26172 0.005859-0.087263-0.0036-0.17626-0.013493-0.26172-0.027343-0.085447-0.01385-0.16912-0.031158-0.25195-0.054688-0.082828-0.02353-0.16278-0.053177-0.24219-0.085937-0.079398-0.03277-0.1553-0.069773-0.23047-0.11133-0.075145-0.04154-0.15059-0.086847-0.2207-0.13672l0.0039062 0.009765c-0.069007-0.04689-0.14109-0.089116-0.2168-0.12695-0.075706-0.03782-0.15526-0.070949-0.23633-0.099609-0.08107-0.02867-0.1649-0.052876-0.25-0.072266-0.085099-0.01936-0.17199-0.032978-0.25977-0.042968-0.087798-0.01-0.17649-0.015145-0.26562-0.015626-0.083377-4.34e-4 -0.16656 0.002056-0.25 0.009766v3.2949c0 0.554 0.446 1 1 1h6.748l-0.013672-0.039062h0.0058594c-0.02309-0.064511-0.047642-0.1293-0.076172-0.19141-0.0375-0.08162-0.080714-0.16144-0.12695-0.23828-0.04624-0.07685-0.09438-0.14962-0.14844-0.2207-0.054019-0.071063-0.11486-0.1388-0.17578-0.20312-0.060925-0.064324-0.12456-0.12507-0.19141-0.18164-0.066853-0.05657-0.13714-0.11038-0.20898-0.1582-0.071847-0.047818-0.1448-0.090829-0.2207-0.12891-0.075909-0.03808-0.1534-0.070326-0.23242-0.097656l0.013672-0.003907c-0.08207-0.02646-0.16382-0.05827-0.24219-0.09375-0.07837-0.03547-0.15468-0.076955-0.22852-0.12109-0.073825-0.04411-0.14446-0.090166-0.21289-0.14258-0.068435-0.052401-0.13508-0.10963-0.19727-0.16992-0.062185-0.0603-0.12069-0.12554-0.17578-0.19336-0.05509-0.06781-0.1052-0.13794-0.15234-0.21289-0.047143-0.07495-0.090562-0.15462-0.12891-0.23633-0.038343-0.081721-0.072861-0.16582-0.10156-0.25391-0.023742-0.07289-0.042687-0.14541-0.058594-0.21875-0.015896-0.07333-0.028801-0.14739-0.037109-0.2207-0.016616-0.14662-0.018208-0.29182-0.0058594-0.43555 0.012325-0.14372 0.038764-0.2848 0.078125-0.42188 0.03937-0.13707 0.091772-0.26982 0.15625-0.39648 0.064488-0.12666 0.14083-0.24883 0.22852-0.36133 0.087681-0.1125 0.18791-0.21596 0.29688-0.31055 0.10897-0.09459 0.22715-0.17903 0.35547-0.25195 0.064164-0.03646 0.13058-0.071224 0.19922-0.10156 0.068644-0.030351 0.14-0.056343 0.21289-0.080078 0.072902-0.023759 0.14539-0.044616 0.21875-0.060547 0.073364-0.015919 0.14735-0.028769 0.2207-0.037109 0.1467-0.016693 0.29171-0.016157 0.43555-0.0039063 0.14384 0.012236 0.28662 0.036931 0.42383 0.076172 0.1372 0.039241 0.26969 0.091914 0.39648 0.15625 0.1268 0.06435 0.24675 0.14096 0.35938 0.22852 0.11263 0.08756 0.21782 0.18606 0.3125 0.29492 0.09468 0.10886 0.17898 0.2272 0.25195 0.35547 0.03649 0.06414 0.071211 0.13255 0.10156 0.20117 0.03036 0.06863 0.056328 0.13805 0.080078 0.21094 0.0287 0.08808 0.0512 0.17702 0.06836 0.26562 0.01717 0.08861 0.029046 0.17731 0.035156 0.26562 0.0061 0.08831 0.006453 0.17646 0.001953 0.26367-0.0045 0.08722-0.014677 0.17249-0.029297 0.25781-0.01462 0.08532-0.032351 0.17129-0.05664 0.25391-0.02428 0.08261-0.054401 0.16114-0.087891 0.24023-0.03349 0.07909-0.071044 0.15766-0.11328 0.23242-0.04223 0.07477-0.088158 0.1491-0.13867 0.21875l0.0097656-0.005859c-0.04754 0.06857-0.092329 0.14144-0.13086 0.2168-0.03852 0.075351-0.07021 0.15357-0.099609 0.23438-0.0294 0.080819-0.056012 0.16509-0.076172 0.25-0.02015 0.08491-0.034132 0.17207-0.044922 0.25976-0.0108 0.08768-0.018211 0.1765-0.019531 0.26562-0.0013 0.08912 0.0014756 0.17836 0.0097656 0.26758 0.0083001 0.08922 0.023026 0.17766 0.041016 0.26562 0.01799 0.08797 0.040539 0.17438 0.068359 0.25977l0.0058594 0.023437-0.0039062 0.001954 0.078125 0.22656h4.3223c0.54148 0 0.97266-0.4283 0.99219-0.96484l0.005859-7.7305c-0.44394 0-0.81138-0.004588-1.2148 0.078125l-0.001953-0.0019531c-0.06386 0.023547-0.12607 0.049221-0.1875 0.078125-0.08127 0.038255-0.15991 0.080007-0.23633 0.12695-0.07642 0.046944-0.15207 0.097638-0.22266 0.15234-0.07059 0.054698-0.13742 0.11427-0.20117 0.17578-0.06377 0.061515-0.12373 0.12599-0.17969 0.19336-0.05596 0.06737-0.10713 0.1367-0.1543 0.20898-0.04716 0.072289-0.091525 0.14835-0.12891 0.22461-0.03738 0.076247-0.069093 0.1512-0.095703 0.23047l-0.003906-0.0097656c-0.02571 0.082315-0.057037 0.16155-0.091797 0.24023-0.03475 0.078694-0.073728 0.15624-0.11719 0.23047-0.04346 0.074224-0.088843 0.14594-0.14062 0.21484-0.05178 0.068918-0.1102 0.13648-0.16992 0.19922-0.05973 0.062738-0.12215 0.12008-0.18945 0.17578-0.06729 0.055709-0.13838 0.10842-0.21289 0.15625-0.07451 0.047831-0.15302 0.08982-0.23438 0.12891-0.08135 0.039091-0.16609 0.074013-0.25391 0.10352-0.072661 0.024409-0.14556 0.04592-0.21875 0.0625-0.073181 0.016568-0.14552 0.030074-0.21875 0.039062-0.14644 0.017966-0.29172 0.02082-0.43555 0.0097656-0.14383-0.010986-0.2864-0.038067-0.42383-0.076172-0.13742-0.038132-0.27118-0.087078-0.39844-0.15039-0.12723-0.06333-0.24803-0.13991-0.36133-0.22656-0.1133-0.08665-0.21887-0.18488-0.31445-0.29297-0.095581-0.1081-0.18177-0.22587-0.25586-0.35352-0.037047-0.063824-0.072556-0.12891-0.10352-0.19727-0.030983-0.068356-0.057622-0.14022-0.082031-0.21289-0.024418-0.072676-0.045908-0.14553-0.0625-0.21875-0.016592-0.073213-0.028094-0.14743-0.037109-0.2207-0.018014-0.14655-0.020674-0.2916-0.0097656-0.43555 0.010912-0.14394 0.036244-0.28627 0.074219-0.42383 0.037992-0.13756 0.087215-0.27106 0.15039-0.39844 0.063188-0.12739 0.14004-0.24791 0.22656-0.36133 0.08652-0.11343 0.18497-0.22073 0.29297-0.31641 0.10799-0.095661 0.22592-0.17976 0.35352-0.25391 0.06379-0.037069 0.12893-0.072528 0.19727-0.10352 0.06836-0.030988 0.14022-0.059575 0.21289-0.083984 0.08782-0.029503 0.17522-0.05038 0.26367-0.068359 0.08843-0.017991 0.17736-0.030192 0.26563-0.037109 0.08825-0.00687 0.17642-0.0096094 0.26367-0.0058594 0.08726 0.00362 0.17236 0.013498 0.25781 0.027344s0.17108 0.031152 0.25391 0.054688c0.08283 0.023535 0.16279 0.051223 0.24219 0.083984 0.07941 0.032774 0.15726 0.069777 0.23242 0.11133 0.07515 0.041538 0.14863 0.088795 0.21875 0.13867l-0.001953-0.0097656c0.06901 0.046907 0.13914 0.091066 0.21484 0.12891 0.0757 0.03783 0.15526 0.06899 0.23633 0.097656 0.08107 0.028666 0.1649 0.052889 0.25 0.072266 0.0851 0.019365 0.17198 0.034934 0.25976 0.044922 0.08778 0.00999 0.17649 0.015138 0.26562 0.015625 0.08912 4.345e-4 0.17844-0.0045818 0.26758-0.013672 0.08913-0.00911 0.17782-0.022226 0.26562-0.041016 0.08781-0.018803 0.17464-0.043663 0.25977-0.072266l0.021484-0.0058594 0.001954 0.0039063c0.53296-0.10255 0.97998-0.10352 1.4141-0.10352l-0.005859-3.4512c-0.018322-0.53766-0.45186-0.9668-0.99414-0.9668h-8.8457l0.12891 0.38086-0.0039062 0.0019531c0.02309 0.064573 0.047601 0.12727 0.076172 0.18945 0.037505 0.081616 0.080707 0.16144 0.12695 0.23828 0.046246 0.076846 0.096336 0.15156 0.15039 0.22266 0.054052 0.071078 0.1129 0.1388 0.17383 0.20312 0.060923 0.064324 0.12456 0.12507 0.19141 0.18164 0.066867 0.05657 0.13714 0.11038 0.20898 0.1582 0.071852 0.047806 0.14479 0.090837 0.2207 0.12891 0.075905 0.038092 0.1534 0.070326 0.23242 0.097656l-0.013672 0.0039062c0.08207 0.026444 0.16381 0.058255 0.24219 0.09375 0.078372 0.03547 0.15469 0.074992 0.22852 0.11914 0.073822 0.044123 0.14641 0.092126 0.21484 0.14453 0.068435 0.052388 0.13311 0.10962 0.19531 0.16992 0.06218 0.060304 0.1207 0.12359 0.17578 0.19141 0.055098 0.067807 0.1052 0.1399 0.15234 0.21484 0.04714 0.074936 0.090561 0.15267 0.12891 0.23438 0.038343 0.081703 0.072866 0.16582 0.10156 0.25391 0.023751 0.072889 0.044637 0.14736 0.060547 0.2207 0.015916 0.073313 0.026852 0.14739 0.035156 0.2207 0.016639 0.14663 0.018208 0.29182 0.0058594 0.43555-0.012325 0.14372-0.038759 0.28676-0.078125 0.42383-0.039374 0.13707-0.091768 0.26982-0.15625 0.39648-0.064488 0.12664-0.14083 0.24492-0.22852 0.35742-0.087682 0.1125-0.18597 0.21791-0.29492 0.3125-0.10898 0.094588-0.22715 0.17903-0.35547 0.25195-0.064166 0.036444-0.13058 0.071224-0.19922 0.10156-0.068639 0.030352-0.14001 0.056331-0.21289 0.080078-0.072902 0.023759-0.14733 0.044616-0.2207 0.060547-0.073351 0.015919-0.14735 0.026816-0.2207 0.035156-0.1467 0.01668-0.29171 0.01811-0.43555 0.0058594-0.14384-0.012232-0.28466-0.038896-0.42188-0.078125-0.13719-0.039241-0.27164-0.089962-0.39844-0.1543-0.1268-0.064349-0.24677-0.14096-0.35938-0.22852-0.11264-0.087559-0.21782-0.18606-0.3125-0.29492-0.09468-0.10887-0.17899-0.22916-0.25195-0.35742-0.036494-0.064136-0.069258-0.12865-0.099609-0.19727-0.030359-0.068631-0.058282-0.14195-0.082031-0.21484-0.028688-0.088083-0.051192-0.17507-0.068359-0.26367-0.017173-0.08862-0.029052-0.17731-0.035156-0.26562-0.00613-0.08832-0.0064431-0.1745-0.0019532-0.26172 0.00447-0.087222 0.01467-0.1764 0.029297-0.26172 0.014613-0.085336 0.032356-0.16934 0.056641-0.25195 0.024287-0.082615 0.054402-0.16309 0.087891-0.24219 0.0335-0.079094 0.071036-0.1557 0.11328-0.23047 0.042226-0.074774 0.088157-0.14715 0.13867-0.2168l-0.0097656 0.0019531c0.047542-0.068579 0.092329-0.13949 0.13086-0.21484 0.038526-0.075361 0.072162-0.15357 0.10156-0.23438 0.029404-0.080817 0.054069-0.16508 0.074219-0.25 0.02016-0.084899 0.034133-0.17208 0.044922-0.25977 0.010812-0.087683 0.018207-0.17455 0.019531-0.26367 0.00139-0.089119-0.0015376-0.17837-0.0097656-0.26758-0.00826-0.089194-0.02302-0.17961-0.041016-0.26758-0.018014-0.087983-0.04054-0.17633-0.068359-0.26172l-0.0058594-0.021484h0.0039063l-0.10938-0.32422s-0.051025-0.19257-0.068359-0.24805h-2.2422z"
       fill="url(#a)"
       id="base"
       transform="translate(16,16) scale(4)" />
    <path
       style="opacity:0.3;fill:#000000;stroke-width:4"
       d="M 36.617188 19 L 37.132812 20.523438 L 37.117188 20.53125 C 37.209547 20.789542 37.307591 21.040342 37.421875 21.289062 C 37.571895 21.615527 37.744715 21.934827 37.929688 22.242188 C 38.114672 22.549571 38.315034 22.848413 38.53125 23.132812 C 38.747458 23.417124 38.982842 23.688032 39.226562 23.945312 C 39.470255 24.202609 39.724788 24.445595 39.992188 24.671875 C 40.259656 24.898155 40.540765 25.113408 40.828125 25.304688 C 41.115533 25.495911 41.407297 25.66802 41.710938 25.820312 C 42.014558 25.97268 42.324545 26.101618 42.640625 26.210938 L 42.585938 26.226562 C 42.914217 26.332338 43.241167 26.459582 43.554688 26.601562 C 43.868175 26.743443 44.17343 26.901533 44.46875 27.078125 C 44.764038 27.254617 45.054405 27.446634 45.328125 27.65625 C 45.601865 27.865802 45.860575 28.094737 46.109375 28.335938 C 46.358095 28.577154 46.59218 28.830283 46.8125 29.101562 C 47.032892 29.372791 47.233315 29.661177 47.421875 29.960938 C 47.610435 30.260682 47.784104 30.571597 47.9375 30.898438 C 48.090872 31.225249 48.228974 31.561702 48.34375 31.914062 C 48.43875 32.205618 48.522298 32.503515 48.585938 32.796875 C 48.649597 33.090127 48.693346 33.386448 48.726562 33.679688 C 48.74595 33.850525 48.748541 34.019595 48.757812 34.189453 C 48.787595 33.690217 48.784204 33.187615 48.726562 32.679688 C 48.693346 32.386448 48.649597 32.090127 48.585938 31.796875 C 48.522298 31.503515 48.43875 31.205618 48.34375 30.914062 C 48.228974 30.561702 48.090872 30.22525 47.9375 29.898438 C 47.784104 29.571597 47.610435 29.260682 47.421875 28.960938 C 47.233315 28.661177 47.032892 28.372791 46.8125 28.101562 C 46.59218 27.830283 46.358095 27.577154 46.109375 27.335938 C 45.860575 27.094737 45.601865 26.865802 45.328125 26.65625 C 45.054405 26.446634 44.764038 26.254617 44.46875 26.078125 C 44.17343 25.901533 43.868175 25.743443 43.554688 25.601562 C 43.241167 25.459582 42.914217 25.332338 42.585938 25.226562 L 42.640625 25.210938 C 42.324545 25.101618 42.014558 24.97268 41.710938 24.820312 C 41.407297 24.66802 41.115533 24.495911 40.828125 24.304688 C 40.540765 24.113408 40.259656 23.898155 39.992188 23.671875 C 39.724788 23.445595 39.470255 23.202609 39.226562 22.945312 C 38.982842 22.688032 38.747458 22.417124 38.53125 22.132812 C 38.315034 21.848413 38.114672 21.549571 37.929688 21.242188 C 37.744715 20.934827 37.571895 20.615527 37.421875 20.289062 C 37.307591 20.040342 37.209547 19.789542 37.117188 19.53125 L 37.132812 19.523438 L 36.955078 19 L 36.617188 19 z M 34.138672 23.892578 C 34.125306 24.13442 34.115649 24.376245 34.085938 24.617188 C 34.042782 24.967947 33.98689 25.316654 33.90625 25.65625 C 33.82565 25.99593 33.726991 26.332982 33.609375 26.65625 C 33.491783 26.97949 33.357229 27.292306 33.203125 27.59375 C 33.049001 27.89515 32.869855 28.178809 32.679688 28.453125 L 32.71875 28.445312 C 32.516698 28.723912 32.332966 29.013404 32.164062 29.3125 C 31.995087 29.61158 31.844938 29.917999 31.710938 30.234375 C 31.576982 30.550775 31.456525 30.872665 31.359375 31.203125 C 31.262235 31.533565 31.191263 31.869594 31.132812 32.210938 C 31.074305 32.552218 31.033505 32.908924 31.015625 33.257812 C 30.999541 33.570244 31.005795 33.880418 31.023438 34.195312 C 31.042808 33.866482 31.077803 33.531813 31.132812 33.210938 C 31.191263 32.869594 31.262235 32.533565 31.359375 32.203125 C 31.456525 31.872665 31.576982 31.550775 31.710938 31.234375 C 31.844938 30.917999 31.995087 30.61158 32.164062 30.3125 C 32.332966 30.013404 32.516698 29.723912 32.71875 29.445312 L 32.679688 29.453125 C 32.869855 29.178809 33.049001 28.89515 33.203125 28.59375 C 33.357229 28.292306 33.491783 27.97949 33.609375 27.65625 C 33.726991 27.332982 33.82565 26.99593 33.90625 26.65625 C 33.98689 26.316654 34.042782 25.967947 34.085938 25.617188 C 34.129188 25.266455 34.158772 24.91898 34.164062 24.5625 C 34.167568 24.339366 34.149704 24.115956 34.138672 23.892578 z M 57.359375 33.539062 C 57.010375 33.524062 56.657688 33.53502 56.304688 33.5625 C 55.951607 33.590168 55.595908 33.638978 55.242188 33.710938 C 54.888388 33.782854 54.53878 33.866363 54.1875 33.984375 C 53.89682 34.082011 53.609378 34.19636 53.335938 34.320312 C 53.062578 34.44428 52.802035 34.586099 52.546875 34.734375 C 52.036475 35.030975 51.564772 35.367356 51.132812 35.75 C 50.700813 36.13272 50.307018 36.561905 49.960938 37.015625 C 49.614857 37.469305 49.30744 37.951377 49.054688 38.460938 C 48.801988 38.970458 48.605093 39.504447 48.453125 40.054688 C 48.301225 40.604928 48.19992 41.17424 48.15625 41.75 C 48.127576 42.128508 48.13209 42.509813 48.152344 42.892578 C 48.155192 42.845182 48.152664 42.797335 48.15625 42.75 C 48.19992 42.17424 48.301225 41.604927 48.453125 41.054688 C 48.605093 40.504447 48.801988 39.970458 49.054688 39.460938 C 49.30744 38.951377 49.614857 38.469305 49.960938 38.015625 C 50.307018 37.561905 50.700813 37.13272 51.132812 36.75 C 51.564772 36.367356 52.036475 36.030975 52.546875 35.734375 C 52.802035 35.586099 53.062578 35.44428 53.335938 35.320312 C 53.609378 35.19636 53.89682 35.082011 54.1875 34.984375 C 54.53878 34.866363 54.888388 34.782854 55.242188 34.710938 C 55.595908 34.638978 55.951607 34.590168 56.304688 34.5625 C 56.657688 34.53502 57.010375 34.524062 57.359375 34.539062 C 57.708415 34.553542 58.048825 34.593052 58.390625 34.648438 C 58.732425 34.703817 59.07493 34.773044 59.40625 34.867188 C 59.73757 34.961328 60.0574 35.072081 60.375 35.203125 C 60.69264 35.334221 61.004047 35.482225 61.304688 35.648438 C 61.605288 35.814589 61.899207 36.003625 62.179688 36.203125 L 62.171875 36.164062 C 62.447915 36.35169 62.72845 36.528311 63.03125 36.679688 C 63.33405 36.831007 63.652283 36.955648 63.976562 37.070312 C 64.300842 37.184976 64.636163 37.281867 64.976562 37.359375 C 65.316963 37.436835 65.664505 37.499111 66.015625 37.539062 C 66.366745 37.579023 66.721605 37.599612 67.078125 37.601562 C 67.434605 37.603262 67.791878 37.583245 68.148438 37.546875 C 68.504958 37.510435 68.859737 37.457977 69.210938 37.382812 C 69.562178 37.307603 69.90948 37.208162 70.25 37.09375 L 70.335938 37.070312 L 70.34375 37.085938 C 72.47559 36.675737 74.26352 36.671875 76 36.671875 L 75.998047 35.671875 C 74.262173 35.671878 72.474799 35.67589 70.34375 36.085938 L 70.335938 36.070312 L 70.25 36.09375 C 69.90948 36.208162 69.562178 36.307603 69.210938 36.382812 C 68.859737 36.457977 68.504958 36.510435 68.148438 36.546875 C 67.791878 36.583245 67.434605 36.603262 67.078125 36.601562 C 66.721605 36.599612 66.366745 36.579023 66.015625 36.539062 C 65.664505 36.499111 65.316963 36.436835 64.976562 36.359375 C 64.636163 36.281867 64.300842 36.184976 63.976562 36.070312 C 63.652283 35.955648 63.33405 35.831007 63.03125 35.679688 C 62.72845 35.528311 62.447915 35.35169 62.171875 35.164062 L 62.179688 35.203125 C 61.899207 35.003625 61.605288 34.814589 61.304688 34.648438 C 61.004047 34.482225 60.69264 34.334221 60.375 34.203125 C 60.0574 34.072081 59.73757 33.961328 59.40625 33.867188 C 59.07493 33.773044 58.732425 33.703817 58.390625 33.648438 C 58.048825 33.593052 57.708415 33.553542 57.359375 33.539062 z M 30.863281 42.0625 C 30.574841 42.068785 30.285128 42.08907 29.992188 42.125 C 29.699268 42.160904 29.402095 42.21498 29.109375 42.28125 C 28.816655 42.34757 28.525099 42.43367 28.234375 42.53125 C 27.883095 42.649298 27.54417 42.781136 27.21875 42.9375 C 26.89331 43.09386 26.57927 43.269565 26.28125 43.460938 C 25.98317 43.652257 25.7067 43.855289 25.4375 44.078125 C 25.16826 44.300965 24.910775 44.545923 24.671875 44.796875 C 24.432955 45.047835 24.207104 45.310265 24 45.585938 C 23.79288 45.861538 23.603487 46.148417 23.429688 46.445312 C 23.255855 46.742273 23.09993 47.044547 22.960938 47.359375 C 22.821826 47.674135 22.696514 47.998817 22.59375 48.328125 L 22.578125 48.28125 C 22.471677 48.59833 22.344828 48.905949 22.195312 49.210938 C 22.045793 49.515977 21.876136 49.820219 21.6875 50.109375 C 21.49886 50.398495 21.294148 50.683645 21.070312 50.953125 C 20.846473 51.222605 20.598878 51.472634 20.34375 51.71875 C 20.23087 51.82755 20.117804 51.934422 20 52.039062 L 20 53.039062 C 20.117804 52.934422 20.23087 52.82755 20.34375 52.71875 C 20.598878 52.472634 20.846473 52.222605 21.070312 51.953125 C 21.294148 51.683645 21.49886 51.398495 21.6875 51.109375 C 21.876136 50.820219 22.045793 50.515977 22.195312 50.210938 C 22.344828 49.905949 22.471677 49.59833 22.578125 49.28125 L 22.59375 49.328125 C 22.696514 48.998817 22.821826 48.674135 22.960938 48.359375 C 23.09993 48.044547 23.255855 47.742273 23.429688 47.445312 C 23.603487 47.148417 23.79288 46.861538 24 46.585938 C 24.207104 46.310265 24.432955 46.047835 24.671875 45.796875 C 24.910775 45.545923 25.16826 45.300965 25.4375 45.078125 C 25.7067 44.855289 25.98317 44.652257 26.28125 44.460938 C 26.57927 44.269565 26.89331 44.09386 27.21875 43.9375 C 27.54417 43.781136 27.883095 43.649298 28.234375 43.53125 C 28.525099 43.43367 28.816655 43.34757 29.109375 43.28125 C 29.402095 43.21498 29.699268 43.160904 29.992188 43.125 C 30.578067 43.05314 31.151242 43.041958 31.726562 43.085938 C 32.301883 43.129888 32.872155 43.230393 33.421875 43.382812 C 33.971555 43.53528 34.506585 43.746684 35.015625 44 C 35.524585 44.2533 36.007738 44.551837 36.460938 44.898438 C 36.914217 45.245025 37.33643 45.6301 37.71875 46.0625 C 38.10101 46.49494 38.445828 46.973775 38.742188 47.484375 C 38.890347 47.739623 39.032362 47.999957 39.15625 48.273438 C 39.280154 48.546861 39.386747 48.826508 39.484375 49.117188 C 39.582115 49.407843 39.668015 49.70708 39.734375 50 C 39.800835 50.292804 39.846721 50.58188 39.882812 50.875 C 39.907553 51.076263 39.915228 51.277395 39.925781 51.478516 C 39.957349 50.949341 39.948814 50.411912 39.882812 49.875 C 39.846721 49.58188 39.800835 49.292804 39.734375 49 C 39.668015 48.70708 39.582115 48.407843 39.484375 48.117188 C 39.386747 47.826508 39.280154 47.546861 39.15625 47.273438 C 39.032362 46.999957 38.890347 46.739623 38.742188 46.484375 C 38.445828 45.973775 38.10101 45.49494 37.71875 45.0625 C 37.33643 44.6301 36.914217 44.245025 36.460938 43.898438 C 36.007738 43.551837 35.524585 43.2533 35.015625 43 C 34.506585 42.746684 33.971555 42.53528 33.421875 42.382812 C 32.872155 42.230392 32.301883 42.129888 31.726562 42.085938 C 31.438903 42.063948 31.151721 42.056215 30.863281 42.0625 z M 48.070312 50.816406 C 47.780032 50.818094 47.488712 50.833803 47.195312 50.867188 C 46.901913 50.900547 46.605956 50.951945 46.3125 51.015625 C 46.01906 51.079349 45.729108 51.162773 45.4375 51.257812 C 45.14594 51.352753 44.860514 51.456721 44.585938 51.578125 C 44.311377 51.699469 44.045718 51.838535 43.789062 51.984375 C 43.275782 52.276055 42.803067 52.613827 42.367188 52.992188 C 41.931308 53.370548 41.530411 53.784377 41.179688 54.234375 C 40.828927 54.684375 40.523577 55.173048 40.265625 55.679688 C 40.007713 56.186328 39.798105 56.717345 39.640625 57.265625 C 39.483181 57.813945 39.377425 58.378245 39.328125 58.953125 C 39.293121 59.360586 39.297759 59.77225 39.320312 60.185547 C 39.324918 60.108298 39.321507 60.030163 39.328125 59.953125 C 39.377425 59.378245 39.483181 58.813945 39.640625 58.265625 C 39.798105 57.717345 40.007713 57.186328 40.265625 56.679688 C 40.523577 56.173048 40.828927 55.684375 41.179688 55.234375 C 41.530411 54.784377 41.931308 54.370548 42.367188 53.992188 C 42.803067 53.613827 43.275782 53.276055 43.789062 52.984375 C 44.045718 52.838535 44.311377 52.699469 44.585938 52.578125 C 44.860514 52.456721 45.14594 52.352753 45.4375 52.257812 C 45.729108 52.162773 46.01906 52.079349 46.3125 52.015625 C 46.605956 51.951945 46.901913 51.900547 47.195312 51.867188 C 47.782112 51.800418 48.36214 51.802572 48.9375 51.851562 C 49.51286 51.900503 50.083972 51.999286 50.632812 52.15625 C 51.181612 52.313214 51.71159 52.523906 52.21875 52.78125 C 52.72595 53.03865 53.20573 53.345073 53.65625 53.695312 C 54.10677 54.045552 54.52753 54.43956 54.90625 54.875 C 55.28497 55.31044 55.622182 55.783795 55.914062 56.296875 C 56.060023 56.553435 56.198918 56.827082 56.320312 57.101562 C 56.441752 57.376083 56.545625 57.653753 56.640625 57.945312 C 56.755425 58.297632 56.845422 58.653412 56.914062 59.007812 C 56.982743 59.362252 57.030248 59.717072 57.054688 60.070312 C 57.057353 60.108905 57.052562 60.146974 57.054688 60.185547 C 57.055902 60.16508 57.061441 60.145519 57.0625 60.125 C 57.0805 59.77616 57.079087 59.423552 57.054688 59.070312 C 57.030248 58.717072 56.982743 58.362252 56.914062 58.007812 C 56.845422 57.653412 56.755425 57.297632 56.640625 56.945312 C 56.545625 56.653753 56.441752 56.376083 56.320312 56.101562 C 56.198918 55.827082 56.060023 55.553435 55.914062 55.296875 C 55.622182 54.783795 55.28497 54.31044 54.90625 53.875 C 54.52753 53.43956 54.10677 53.045552 53.65625 52.695312 C 53.20573 52.345073 52.72595 52.03865 52.21875 51.78125 C 51.71159 51.523906 51.181612 51.313214 50.632812 51.15625 C 50.083972 50.999286 49.51286 50.900503 48.9375 50.851562 C 48.64982 50.827067 48.360593 50.814719 48.070312 50.816406 z M 20 70 L 20 71 C 20 73.216 21.784 75 24 75 L 50.992188 75 L 50.9375 74.84375 L 50.960938 74.84375 C 50.868578 74.58571 50.77037 74.326565 50.65625 74.078125 C 50.643995 74.051451 50.627789 74.026575 50.615234 74 L 24 74 C 21.784 74 20 72.216 20 70 z M 75.96875 70.140625 C 75.89063 72.286785 74.16592 74 72 74 L 54.710938 74 L 54.398438 73.09375 L 54.414062 73.085938 L 54.390625 72.992188 C 54.279345 72.650627 54.189147 72.305005 54.117188 71.953125 C 54.045223 71.601285 53.986325 71.247505 53.953125 70.890625 C 53.940651 70.756458 53.94404 70.622441 53.9375 70.488281 C 53.931424 70.599321 53.915712 70.708936 53.914062 70.820312 C 53.908862 71.176793 53.919945 71.533745 53.953125 71.890625 C 53.986325 72.247505 54.045223 72.601285 54.117188 72.953125 C 54.189147 73.305005 54.279345 73.650628 54.390625 73.992188 L 54.414062 74.085938 L 54.398438 74.09375 L 54.710938 75 L 72 75 C 74.16592 75 75.89063 73.286785 75.96875 71.140625 L 75.96875 70.140625 z "
       transform="translate(0,2)"
       id="path65" />
    <path
       style="fill:#ffffff;stroke-width:4"
       d="M 24 18 C 21.784 18 20 19.784 20 22 L 20 23 C 20 20.784 21.784 19 24 19 L 32.96875 19 C 33.038086 19.22192 33.242188 19.992188 33.242188 19.992188 L 33.679688 21.289062 L 33.664062 21.289062 L 33.6875 21.375 C 33.798776 21.71656 33.888877 22.069943 33.960938 22.421875 C 34.032921 22.773755 34.09196 23.135412 34.125 23.492188 C 34.137299 23.625665 34.132079 23.75909 34.138672 23.892578 C 34.144762 23.782379 34.162407 23.674088 34.164062 23.5625 C 34.169663 23.206024 34.15788 22.849028 34.125 22.492188 C 34.09196 22.135412 34.032921 21.773755 33.960938 21.421875 C 33.888877 21.069943 33.798776 20.71656 33.6875 20.375 L 33.664062 20.289062 L 33.679688 20.289062 L 33.242188 18.992188 C 33.242188 18.992188 33.038086 18.22192 32.96875 18 L 24 18 z M 36.617188 18 L 36.955078 19 L 72 19 C 74.16912 19 75.903283 20.716548 75.976562 22.867188 L 75.998047 35.671875 C 75.998691 35.671875 75.999356 35.671875 76 35.671875 L 75.976562 21.867188 C 75.903283 19.716548 74.16912 18 72 18 L 36.617188 18 z M 48.757812 34.189453 C 48.753204 34.2667 48.756618 34.344837 48.75 34.421875 C 48.7007 34.996755 48.594964 35.568908 48.4375 36.117188 C 48.280004 36.665467 48.070428 37.196485 47.8125 37.703125 C 47.554548 38.209685 47.249198 38.682813 46.898438 39.132812 C 46.54771 39.582813 46.15455 40.004452 45.71875 40.382812 C 45.28283 40.761164 44.810155 41.098945 44.296875 41.390625 C 44.040211 41.536401 43.77456 41.675531 43.5 41.796875 C 43.225444 41.918283 42.939958 42.022199 42.648438 42.117188 C 42.35683 42.212227 42.059105 42.295651 41.765625 42.359375 C 41.472221 42.423055 41.176213 42.46664 40.882812 42.5 C 40.296013 42.56672 39.715985 42.572437 39.140625 42.523438 C 38.565265 42.474508 38.002005 42.367854 37.453125 42.210938 C 36.904365 42.053973 36.366575 41.851102 35.859375 41.59375 C 35.352175 41.336354 34.872315 41.029927 34.421875 40.679688 C 33.971315 40.329451 33.550595 39.93544 33.171875 39.5 C 32.793155 39.06452 32.455903 38.583353 32.164062 38.070312 C 32.018087 37.813769 31.887029 37.55573 31.765625 37.28125 C 31.644189 37.006726 31.532496 36.713435 31.4375 36.421875 C 31.322748 36.069543 31.232731 35.721587 31.164062 35.367188 C 31.095372 35.012707 31.047853 34.657927 31.023438 34.304688 C 31.020876 34.26778 31.025496 34.232048 31.023438 34.195312 C 31.022206 34.216223 31.016694 34.236953 31.015625 34.257812 C 30.997665 34.606693 30.998918 34.951408 31.023438 35.304688 C 31.047853 35.657927 31.095372 36.012707 31.164062 36.367188 C 31.232731 36.721587 31.322748 37.069543 31.4375 37.421875 C 31.532496 37.713435 31.644189 38.006726 31.765625 38.28125 C 31.887029 38.55573 32.018087 38.813769 32.164062 39.070312 C 32.455903 39.583353 32.793155 40.06452 33.171875 40.5 C 33.550595 40.93544 33.971315 41.329451 34.421875 41.679688 C 34.872315 42.029927 35.352175 42.336354 35.859375 42.59375 C 36.366575 42.851102 36.904365 43.053973 37.453125 43.210938 C 38.002005 43.367854 38.565265 43.474508 39.140625 43.523438 C 39.715985 43.572437 40.296013 43.56672 40.882812 43.5 C 41.176213 43.46664 41.472221 43.423055 41.765625 43.359375 C 42.059105 43.295651 42.35683 43.212227 42.648438 43.117188 C 42.939958 43.022199 43.225444 42.918283 43.5 42.796875 C 43.77456 42.675531 44.040211 42.536401 44.296875 42.390625 C 44.810155 42.098945 45.28283 41.761164 45.71875 41.382812 C 46.15455 41.004452 46.54771 40.582813 46.898438 40.132812 C 47.249198 39.682813 47.554548 39.209685 47.8125 38.703125 C 48.070428 38.196485 48.280004 37.665467 48.4375 37.117188 C 48.594964 36.568908 48.7007 35.996755 48.75 35.421875 C 48.785004 35.014414 48.780372 34.602753 48.757812 34.189453 z M 75.992188 39.21875 C 74.216427 39.21875 72.746493 39.20039 71.132812 39.53125 L 71.125 39.523438 C 70.86956 39.617627 70.62072 39.720321 70.375 39.835938 C 70.04992 39.988957 69.735368 40.155978 69.429688 40.34375 C 69.124008 40.531526 68.821422 40.734317 68.539062 40.953125 C 68.256703 41.171917 67.989375 41.41021 67.734375 41.65625 C 67.479295 41.90231 67.239465 42.160207 67.015625 42.429688 C 66.791785 42.699168 66.587118 42.976505 66.398438 43.265625 C 66.209797 43.554781 66.032373 43.859023 65.882812 44.164062 C 65.733293 44.469051 65.60644 44.768857 65.5 45.085938 L 65.484375 45.046875 C 65.381535 45.376135 65.256228 45.693092 65.117188 46.007812 C 64.978188 46.322589 64.822277 46.632767 64.648438 46.929688 C 64.474598 47.226583 64.293057 47.513462 64.085938 47.789062 C 63.878817 48.064735 63.64513 48.334978 63.40625 48.585938 C 63.16733 48.836889 62.917638 49.066262 62.648438 49.289062 C 62.379278 49.511899 62.094915 49.722743 61.796875 49.914062 C 61.498835 50.105387 61.184815 50.273327 60.859375 50.429688 C 60.533975 50.586052 60.19503 50.725722 59.84375 50.84375 C 59.55311 50.94139 59.26151 51.02743 58.96875 51.09375 C 58.67603 51.16002 58.38667 51.214048 58.09375 51.25 C 57.50799 51.32186 56.926882 51.333262 56.351562 51.289062 C 55.776241 51.245103 55.20597 51.136795 54.65625 50.984375 C 54.10657 50.831847 53.57154 50.63606 53.0625 50.382812 C 52.55358 50.129492 52.070387 49.823162 51.617188 49.476562 C 51.163987 49.129962 50.741695 48.737047 50.359375 48.304688 C 49.977051 47.872287 49.632297 47.401225 49.335938 46.890625 C 49.18775 46.635329 49.045731 46.375002 48.921875 46.101562 C 48.797943 45.828139 48.691386 45.54068 48.59375 45.25 C 48.49608 44.959296 48.410118 44.66788 48.34375 44.375 C 48.27738 44.082148 48.231373 43.785267 48.195312 43.492188 C 48.170622 43.291332 48.162901 43.092089 48.152344 42.892578 C 48.120542 43.421717 48.129176 43.954178 48.195312 44.492188 C 48.231373 44.785267 48.27738 45.082148 48.34375 45.375 C 48.410118 45.66788 48.49608 45.959296 48.59375 46.25 C 48.691386 46.54068 48.797943 46.828139 48.921875 47.101562 C 49.045731 47.375002 49.18775 47.635329 49.335938 47.890625 C 49.632297 48.401225 49.977051 48.872287 50.359375 49.304688 C 50.741695 49.737047 51.163987 50.129962 51.617188 50.476562 C 52.070387 50.823162 52.55358 51.129492 53.0625 51.382812 C 53.57154 51.63606 54.10657 51.831847 54.65625 51.984375 C 55.20597 52.136795 55.776241 52.245103 56.351562 52.289062 C 56.926882 52.333262 57.50799 52.32186 58.09375 52.25 C 58.38667 52.214048 58.67603 52.16002 58.96875 52.09375 C 59.26151 52.02743 59.55311 51.94139 59.84375 51.84375 C 60.19503 51.725722 60.533975 51.586052 60.859375 51.429688 C 61.184815 51.273327 61.498835 51.105387 61.796875 50.914062 C 62.094915 50.722743 62.379278 50.511899 62.648438 50.289062 C 62.917638 50.066262 63.16733 49.836889 63.40625 49.585938 C 63.64513 49.334978 63.878817 49.064735 64.085938 48.789062 C 64.293057 48.513462 64.474598 48.226583 64.648438 47.929688 C 64.822277 47.632767 64.978188 47.322589 65.117188 47.007812 C 65.256228 46.693092 65.381535 46.376135 65.484375 46.046875 L 65.5 46.085938 C 65.60644 45.768857 65.733293 45.469051 65.882812 45.164062 C 66.032373 44.859023 66.209797 44.554781 66.398438 44.265625 C 66.587118 43.976505 66.791785 43.699168 67.015625 43.429688 C 67.239465 43.160207 67.479295 42.90231 67.734375 42.65625 C 67.989375 42.41021 68.256703 42.171917 68.539062 41.953125 C 68.821422 41.734317 69.124008 41.531526 69.429688 41.34375 C 69.735368 41.155978 70.04992 40.988957 70.375 40.835938 C 70.62072 40.720321 70.86956 40.617627 71.125 40.523438 L 71.132812 40.53125 C 72.746493 40.20039 74.216427 40.21875 75.992188 40.21875 L 75.992188 39.21875 z M 39.925781 51.478516 C 39.922883 51.527093 39.925545 51.576587 39.921875 51.625 C 39.878225 52.20072 39.776892 52.76226 39.625 53.3125 C 39.473092 53.86274 39.27615 54.404583 39.023438 54.914062 C 38.770685 55.423623 38.47112 55.905695 38.125 56.359375 C 37.778972 56.813095 37.385085 57.234508 36.953125 57.617188 C 36.521165 57.999787 36.04161 58.344065 35.53125 58.640625 C 35.27607 58.788905 35.015547 58.922955 34.742188 59.046875 C 34.468727 59.170795 34.181265 59.285172 33.890625 59.382812 C 33.539293 59.500853 33.189737 59.592143 32.835938 59.664062 C 32.482174 59.736022 32.126438 59.78482 31.773438 59.8125 C 31.420426 59.8401 31.075602 59.850337 30.726562 59.835938 C 30.37751 59.821537 30.021528 59.781962 29.679688 59.726562 C 29.337899 59.671163 29.003195 59.601933 28.671875 59.507812 C 28.340563 59.413693 28.020765 59.295103 27.703125 59.164062 C 27.385533 59.032983 27.08193 58.88499 26.78125 58.71875 C 26.48067 58.55259 26.178877 58.371355 25.898438 58.171875 L 25.914062 58.210938 C 25.638034 58.023378 25.349715 57.854445 25.046875 57.703125 C 24.744051 57.551845 24.425842 57.419328 24.101562 57.304688 C 23.777282 57.190008 23.441962 57.093185 23.101562 57.015625 C 22.761167 56.938185 22.41362 56.88371 22.0625 56.84375 C 21.711308 56.80375 21.35652 56.78317 21 56.78125 C 20.666492 56.77955 20.33376 56.789512 20 56.820312 L 20 57.820312 C 20.33376 57.789512 20.666492 57.77955 21 57.78125 C 21.35652 57.78317 21.711308 57.80375 22.0625 57.84375 C 22.41362 57.88371 22.761167 57.938185 23.101562 58.015625 C 23.441962 58.093185 23.777282 58.190008 24.101562 58.304688 C 24.425842 58.419328 24.744051 58.551845 25.046875 58.703125 C 25.349715 58.854445 25.638034 59.023378 25.914062 59.210938 L 25.898438 59.171875 C 26.178877 59.371355 26.48067 59.55259 26.78125 59.71875 C 27.08193 59.88499 27.385533 60.032983 27.703125 60.164062 C 28.020765 60.295103 28.340563 60.413693 28.671875 60.507812 C 29.003195 60.601933 29.337899 60.671163 29.679688 60.726562 C 30.021528 60.781962 30.37751 60.821537 30.726562 60.835938 C 31.075602 60.850337 31.420426 60.8401 31.773438 60.8125 C 32.126438 60.78482 32.482174 60.736022 32.835938 60.664062 C 33.189737 60.592143 33.539293 60.500853 33.890625 60.382812 C 34.181265 60.285172 34.468727 60.170795 34.742188 60.046875 C 35.015547 59.922955 35.27607 59.788905 35.53125 59.640625 C 36.04161 59.344065 36.521165 58.999787 36.953125 58.617188 C 37.385085 58.234508 37.778972 57.813095 38.125 57.359375 C 38.47112 56.905695 38.770685 56.423623 39.023438 55.914062 C 39.27615 55.404583 39.473092 54.86274 39.625 54.3125 C 39.776892 53.76226 39.878225 53.20072 39.921875 52.625 C 39.950538 52.246893 39.945966 51.86318 39.925781 51.478516 z M 39.320312 60.185547 C 39.290549 60.684791 39.294008 61.187419 39.351562 61.695312 C 39.384795 61.988552 39.43642 62.284805 39.5 62.578125 C 39.563628 62.871485 39.639405 63.161565 39.734375 63.453125 C 39.849171 63.805485 39.987253 64.14187 40.140625 64.46875 C 40.294017 64.79559 40.467678 65.114262 40.65625 65.414062 C 40.84481 65.713863 41.045265 65.994385 41.265625 66.265625 C 41.485985 66.536905 41.72001 66.797862 41.96875 67.039062 C 42.21751 67.280223 42.484073 67.50915 42.757812 67.71875 C 43.031532 67.92839 43.314075 68.112623 43.609375 68.289062 C 43.904735 68.465623 44.209958 68.631557 44.523438 68.773438 C 44.836917 68.915357 45.163908 69.042597 45.492188 69.148438 L 45.4375 69.164062 C 45.75358 69.273382 46.063552 69.402367 46.367188 69.554688 C 46.670787 69.707008 46.962612 69.879032 47.25 70.070312 C 47.53736 70.261593 47.818525 70.476845 48.085938 70.703125 C 48.353338 70.929405 48.607863 71.172408 48.851562 71.429688 C 49.095242 71.686967 49.338611 71.957948 49.554688 72.242188 C 49.770927 72.526508 49.963478 72.8176 50.148438 73.125 C 50.318271 73.407248 50.474126 73.701304 50.615234 74 L 50.992188 74 L 50.9375 73.84375 L 50.960938 73.84375 C 50.868578 73.58571 50.77037 73.326565 50.65625 73.078125 C 50.50625 72.751645 50.333382 72.43236 50.148438 72.125 C 49.963478 71.8176 49.770927 71.526508 49.554688 71.242188 C 49.338611 70.957948 49.095242 70.686967 48.851562 70.429688 C 48.607863 70.172408 48.353338 69.929405 48.085938 69.703125 C 47.818525 69.476845 47.53736 69.261593 47.25 69.070312 C 46.962612 68.879032 46.670787 68.707008 46.367188 68.554688 C 46.063552 68.402367 45.75358 68.273382 45.4375 68.164062 L 45.492188 68.148438 C 45.163908 68.042597 44.836917 67.915357 44.523438 67.773438 C 44.209958 67.631557 43.904735 67.465623 43.609375 67.289062 C 43.314075 67.112623 43.031532 66.92839 42.757812 66.71875 C 42.484073 66.50915 42.21751 66.280223 41.96875 66.039062 C 41.72001 65.797862 41.485985 65.536905 41.265625 65.265625 C 41.045265 64.994385 40.84481 64.713863 40.65625 64.414062 C 40.467678 64.114262 40.294017 63.79559 40.140625 63.46875 C 39.987253 63.14187 39.849171 62.805485 39.734375 62.453125 C 39.639405 62.161565 39.563628 61.871485 39.5 61.578125 C 39.43642 61.284805 39.384795 60.988552 39.351562 60.695312 C 39.332205 60.524487 39.329581 60.355404 39.320312 60.185547 z M 57.054688 60.185547 C 57.035247 60.513071 57.000353 60.835042 56.945312 61.15625 C 56.886832 61.49753 56.81591 61.841395 56.71875 62.171875 C 56.62163 62.502315 56.501147 62.816452 56.367188 63.132812 C 56.233227 63.449173 56.083021 63.76346 55.914062 64.0625 C 55.745143 64.36158 55.561423 64.6589 55.359375 64.9375 L 55.398438 64.914062 C 55.208278 65.188343 55.029124 65.47981 54.875 65.78125 C 54.72092 66.08265 54.594159 66.39551 54.476562 66.71875 C 54.358962 67.04203 54.252515 67.37911 54.171875 67.71875 C 54.091275 68.05839 54.035348 68.407053 53.992188 68.757812 C 53.948988 69.108532 53.919342 69.463833 53.914062 69.820312 C 53.910817 70.042776 53.926644 70.26558 53.9375 70.488281 C 53.950871 70.243918 53.962485 69.998956 53.992188 69.757812 C 54.035348 69.407052 54.091275 69.05839 54.171875 68.71875 C 54.252515 68.37911 54.358962 68.04203 54.476562 67.71875 C 54.594159 67.39551 54.72092 67.08265 54.875 66.78125 C 55.029124 66.47981 55.208278 66.188343 55.398438 65.914062 L 55.359375 65.9375 C 55.561423 65.6589 55.745143 65.36158 55.914062 65.0625 C 56.083021 64.76346 56.233227 64.449173 56.367188 64.132812 C 56.501147 63.816453 56.62163 63.502315 56.71875 63.171875 C 56.81591 62.841395 56.886832 62.49753 56.945312 62.15625 C 57.003793 61.81497 57.0445 61.47388 57.0625 61.125 C 57.078533 60.814272 57.072018 60.500037 57.054688 60.185547 z "
       transform="translate(0,2)"
       id="path70" />
  </g>
</svg>
