<?xml version="1.0" encoding="UTF-8" standalone="no"?>
<svg
   xmlns:dc="http://purl.org/dc/elements/1.1/"
   xmlns:cc="http://creativecommons.org/ns#"
   xmlns:rdf="http://www.w3.org/1999/02/22-rdf-syntax-ns#"
   xmlns:svg="http://www.w3.org/2000/svg"
   xmlns="http://www.w3.org/2000/svg"
   xmlns:xlink="http://www.w3.org/1999/xlink"
   xmlns:sodipodi="http://sodipodi.sourceforge.net/DTD/sodipodi-0.dtd"
   xmlns:inkscape="http://www.inkscape.org/namespaces/inkscape"
   width="96"
   height="96"
   version="1.0"
   id="svg125"
   sodipodi:docname="sakura.svg"
   inkscape:version="0.92.2 5c3e80d, 2017-08-06">
  <metadata
     id="metadata129">
    <rdf:RDF>
      <cc:Work
         rdf:about="">
        <dc:format>image/svg+xml</dc:format>
        <dc:type
           rdf:resource="http://purl.org/dc/dcmitype/StillImage" />
      </cc:Work>
    </rdf:RDF>
  </metadata>
  <sodipodi:namedview
     pagecolor="#ffffff"
     bordercolor="#666666"
     borderopacity="1"
     objecttolerance="10"
     gridtolerance="10"
     guidetolerance="10"
     inkscape:pageopacity="0"
     inkscape:pageshadow="2"
     inkscape:window-width="640"
     inkscape:window-height="480"
     id="namedview127"
     showgrid="false"
     inkscape:zoom="2.4583333"
     inkscape:cx="48"
     inkscape:cy="48"
     inkscape:window-x="0"
     inkscape:window-y="25"
     inkscape:window-maximized="0"
     inkscape:current-layer="svg125" />
  <defs
     id="defs49">
    <linearGradient
       id="linearGradient4384">
      <stop
         stop-color="#fff"
         offset="0"
         id="stop2" />
      <stop
         stop-color="#fff"
         stop-opacity="0"
         offset="1"
         id="stop4" />
    </linearGradient>
    <linearGradient
       id="ButtonShadow"
       x1="45.448"
       x2="45.448"
       y1="92.54"
       y2="7.0165"
       gradientTransform="scale(1.0059 .99417)"
       gradientUnits="userSpaceOnUse">
      <stop
         offset="0"
         id="stop7" />
      <stop
         stop-opacity=".58824"
         offset="1"
         id="stop9" />
    </linearGradient>
    <filter
       id="filter3174">
      <feGaussianBlur
         stdDeviation="1.71"
         id="feGaussianBlur12" />
    </filter>
    <filter
       id="filter3794"
       x="-.192"
       y="-.192"
       width="1.384"
       height="1.384">
      <feGaussianBlur
         stdDeviation="5.28"
         id="feGaussianBlur15" />
    </filter>
    <linearGradient
       id="linearGradient3613"
       x1="48"
       x2="48"
       y1="20.221"
       y2="138.66"
       gradientUnits="userSpaceOnUse">
      <stop
         stop-color="#fff"
         offset="0"
         id="stop18" />
      <stop
         stop-color="#fff"
         stop-opacity="0"
         offset="1"
         id="stop20" />
    </linearGradient>
    <linearGradient
       id="linearGradient3617"
       x1="48"
       x2="48"
       y1="90"
       y2="5.9877"
       gradientUnits="userSpaceOnUse">
      <stop
         stop-color="#d7598b"
         offset="0"
         id="stop23" />
      <stop
         stop-color="#ff80b2"
         offset="1"
         id="stop25" />
    </linearGradient>
    <linearGradient
       id="ButtonShadow-0"
       x1="45.448"
       x2="45.448"
       y1="92.54"
       y2="7.0165"
       gradientTransform="matrix(1.0059 0 0 .99417 100 0)"
       gradientUnits="userSpaceOnUse">
      <stop
         offset="0"
         id="stop28" />
      <stop
         stop-opacity=".58824"
         offset="1"
         id="stop30" />
    </linearGradient>
    <linearGradient
       id="linearGradient3780"
       x1="32.251"
       x2="32.251"
       y1="6.1317"
       y2="90.239"
       gradientTransform="matrix(1.0238 0 0 1.0119 -1.1429 -98.071)"
       gradientUnits="userSpaceOnUse"
       xlink:href="#ButtonShadow-0" />
    <linearGradient
       id="linearGradient3721"
       x1="32.251"
       x2="32.251"
       y1="6.1317"
       y2="90.239"
       gradientTransform="translate(0,-97)"
       gradientUnits="userSpaceOnUse"
       xlink:href="#ButtonShadow-0" />
    <clipPath
       id="clipPath4355">
      <rect
         x="6"
         y="6"
         width="84"
         height="80"
         rx="6"
         ry="6"
         fill="#fff"
         id="rect35" />
    </clipPath>
    <linearGradient
       id="linearGradient4390"
       x1="48"
       x2="48"
       y1="88"
       y2="-40"
       gradientTransform="matrix(1,0,0,-1,0,92)"
       gradientUnits="userSpaceOnUse"
       xlink:href="#linearGradient4384" />
    <linearGradient
       id="linearGradient4429"
       x1="48"
       x2="112.12"
       y1="82"
       y2="82.455"
       gradientUnits="userSpaceOnUse"
       spreadMethod="reflect"
       xlink:href="#linearGradient4384" />
    <linearGradient
       id="linearGradient3870"
       x1="8"
       x2="50"
       y1="1033.4"
       y2="1033.4"
       gradientTransform="translate(-2 -956.36)"
       gradientUnits="userSpaceOnUse"
       spreadMethod="reflect">
      <stop
         stop-color="#523823"
         offset="0"
         id="stop40" />
      <stop
         stop-color="#79563a"
         offset=".1178"
         id="stop42" />
      <stop
         stop-color="#875c38"
         offset=".2381"
         id="stop44" />
      <stop
         stop-color="#a66e40"
         offset="1"
         id="stop46" />
    </linearGradient>
  </defs>
  <g
     display="none"
     id="g53">
    <rect
       x="5"
       y="7"
       width="86"
       height="85"
       rx="6"
       ry="6"
       fill="url(#ButtonShadow)"
       filter="url(#filter3174)"
       opacity=".9"
       id="rect51" />
  </g>
  <g
     id="g67">
    <g
       fill="url(#linearGradient3780)"
       id="g63">
      <path
         transform="scale(1,-1)"
         d="m12-95.031c-5.5111 0-10.031 4.5202-10.031 10.031v71c0 5.5111 4.5202 10.031 10.031 10.031h72c5.5111 0 10.031-4.5202 10.031-10.031v-71c0-5.5111-4.5202-10.031-10.031-10.031h-72z"
         opacity=".08"
         id="path55" />
      <path
         transform="scale(1,-1)"
         d="m12-94.031c-4.9716 0-9.0312 4.0596-9.0312 9.0312v71c0 4.9716 4.0596 9.0312 9.0312 9.0312h72c4.9716 0 9.0312-4.0596 9.0312-9.0312v-71c0-4.9716-4.0596-9.0312-9.0312-9.0312h-72z"
         opacity=".1"
         id="path57" />
      <path
         transform="scale(1,-1)"
         d="m12-93c-4.4091 0-8 3.5909-8 8v71c0 4.4091 3.5909 8 8 8h72c4.4091 0 8-3.5909 8-8v-71c0-4.4091-3.5909-8-8-8h-72z"
         opacity=".2"
         id="path59" />
      <rect
         transform="scale(1,-1)"
         x="5"
         y="-92"
         width="86"
         height="85"
         rx="7"
         ry="7"
         opacity=".3"
         id="rect61" />
    </g>
    <rect
       transform="scale(1,-1)"
       x="6"
       y="-91"
       width="84"
       height="84"
       rx="6"
       ry="6"
       fill="url(#linearGradient3721)"
       opacity=".45"
       id="rect65" />
  </g>
  <g
     id="g79">
    <rect
       x="6"
       y="64"
       width="84"
       height="26"
       rx="6"
       ry="6"
       color="#000000"
       fill="url(#linearGradient3870)"
       id="rect69" />
    <g
       id="g77">
      <path
         d="m6 82v2c0 3.324 2.676 6 6 6h72c3.324 0 6-2.676 6-6v-2c0 3.324-2.676 6-6 6h-72c-3.324 0-6-2.676-6-6z"
         color="#000000"
         opacity=".1"
         id="path71" />
      <path
         d="m6 83v1c0 3.324 2.676 6 6 6h72c3.324 0 6-2.676 6-6v-1c0 3.324-2.676 6-6 6h-72c-3.324 0-6-2.676-6-6z"
         color="#000000"
         opacity=".1"
         id="path73" />
      <path
         d="m6 80v1c0 3.324 2.676 6 6 6h72c3.324 0 6-2.676 6-6v-1c0 3.324-2.676 6-6 6h-72c-3.324 0-6-2.676-6-6z"
         opacity=".2"
         id="path75" />
    </g>
  </g>
  <g
     id="g87">
    <rect
       x="6"
       y="6"
       width="84"
       height="80"
       rx="6"
       ry="6"
       fill="url(#linearGradient3617)"
       id="rect81" />
    <path
       d="m12 86c-3.324 0-6-2.676-6-6v-68c0-3.324 2.676-6 6-6h72c3.324 0 6 2.676 6 6v68c0 3.324-2.676 6-6 6zm0-0.96875h72c2.8049 0 5.0312-2.2264 5.0312-5.0312v-68c0-2.8049-2.2264-5.0312-5.0312-5.0312h-72c-2.8049 0-5.0312 2.2264-5.0312 5.0312v68c0 2.8049 2.2264 5.0312 5.0312 5.0312z"
       fill="url(#linearGradient4390)"
       opacity=".3"
       id="path83" />
    <path
       d="m6 78v2c0 3.324 2.676 6 6 6h72c3.324 0 6-2.676 6-6v-2c0 3.324-2.676 6-6 6h-72c-3.324 0-6-2.676-6-6z"
       fill="url(#linearGradient4429)"
       opacity=".1"
       id="path85" />
  </g>
  <g
     id="g91">
    <rect
       x="15"
       y="15"
       width="66"
       height="62"
       rx="12"
       ry="12"
       clip-path="url(#clipPath4355)"
       fill="url(#linearGradient3613)"
       filter="url(#filter3794)"
       opacity=".1"
       stroke="#fff"
       stroke-linecap="round"
       stroke-width=".5"
       id="rect89" />
  </g>
  <defs
     id="defs101">
    <filter
       id="w">
      <feGaussianBlur
         stdDeviation="0.23199685"
         id="feGaussianBlur93" />
    </filter>
    <linearGradient
       id="a"
       gradientUnits="userSpaceOnUse"
       x1="8"
       y1="1.0002902"
       x2="8"
       y2="14.9997262">
      <stop
         stop-color="#fafafa"
         offset="0"
         id="stop96" />
      <stop
         stop-color="#ebebeb"
         offset="1"
         id="stop98" />
    </linearGradient>
  </defs>
  <g
     transform="translate(0,-2)"
     id="g123">
    <path
       style="opacity:0.15;fill:#000000"
       d="M 8.4492188,0.75 C 8.3726811,0.7496575 8.3071848,0.76419359 8.2402344,0.78125 7.2943735,1.0219952 6.6267255,1.5869455 6.25,2.46875 5.9624255,3.1417269 5.8811891,4.1482337 5.9863281,4.9355469 5.7251473,4.6806484 5.389706,4.4001948 5.046875,4.2148438 4.0613096,3.6819632 2.8348968,3.5665614 1.9472656,3.9648438 1.6636796,4.0920881 1.4570439,4.2018481 1.3457031,4.421875 c -0.05567,0.1100134 -0.064145,0.2577117 -0.019531,0.3730469 0.028319,0.073211 0.086845,0.1213911 0.1367187,0.1757812 -0.1603684,3.973e-4 -0.2980887,0.00262 -0.4335937,0.085937 -0.14219836,0.087433 -0.20610261,0.2410864 -0.2402344,0.3789063 -0.12863462,0.519871 0.0421761,1.1862266 0.3828125,1.78125 0.4488941,0.7840102 1.373158,1.286882 2.6523438,1.5625 -1.3214822,0.5899014 -2.3183594,1.9370041 -2.3183594,3.2519531 0,0.44083 -0.00528,0.702724 0.1132812,0.935547 0.059283,0.116411 0.1718798,0.214922 0.2890625,0.257812 0.1171827,0.04289 0.2296638,0.04687 0.3515625,0.04687 0.00673,0 0.00723,-2e-5 0.013672,0 -0.027721,0.07658 -0.052627,0.14858 -0.060547,0.232422 -0.00933,0.09873 0.01566,0.225409 0.083984,0.316406 0.1366482,0.181995 0.3141803,0.224935 0.578125,0.314454 0.6522253,0.221168 1.4846973,0.167322 2.234375,-0.117188 0.4280576,-0.16241 0.881989,-0.487298 1.2832031,-0.867187 0.3491831,-0.330624 0.6334156,-0.699935 0.8261719,-1.064453 l 0.00586,0.02148 c 0.3350142,1.341009 1.2616305,2.465975 2.4492187,2.943359 0.3323839,0.133672 0.7721989,0.214641 1.1113279,0.197266 0.238295,-0.01219 0.390489,0.0028 0.560547,-0.121094 0.08503,-0.06196 0.140644,-0.161994 0.164063,-0.244141 0.02342,-0.08215 0.02874,-0.15656 0.03711,-0.24414 7.41e-4,-0.0078 0.0012,-0.0083 0.002,-0.01563 0.09444,0.03973 0.187282,0.07734 0.291016,0.08203 0.125364,0.0057 0.265174,-0.03817 0.365234,-0.121094 0.20012,-0.165842 0.281364,-0.406953 0.392578,-0.765625 0.384296,-1.239348 0.04898,-2.515939 -0.923828,-3.615234 l -0.103516,-0.117187 0.291016,-0.0039 c 1.484122,-0.0213 2.742856,-0.7975235 3.25586,-2.0429685 0.10114,-0.2455391 0.181808,-0.4364781 0.105468,-0.6601563 -0.03817,-0.111839 -0.120623,-0.2020675 -0.207031,-0.2617187 -0.06079,-0.041966 -0.133964,-0.069013 -0.205078,-0.099609 0.09368,-0.079598 0.180663,-0.1520522 0.226562,-0.2734375 0.05379,-0.1422429 0.0068,-0.3085473 -0.05664,-0.4121094 C 14.768383,5.9859068 14.351025,5.7332934 13.871094,5.5292969 13.391162,5.3253004 12.84894,5.1884178 12.369141,5.1953125 11.939714,5.2014932 11.157489,5.3928059 10.587891,5.5859375 10.943282,4.7878209 11.093625,3.683868 10.919922,2.8964844 10.835514,2.5139584 10.661864,2.1272977 10.451172,1.7988281 10.24048,1.4703585 10.005686,1.1979714 9.7167969,1.0644531 9.5859804,1.0039897 9.442281,0.95386313 9.2851562,0.99023438 9.1378718,1.0243278 9.0395436,1.1130136 8.9296875,1.2167969 8.8757631,1.059247 8.8370598,0.92861637 8.6933594,0.82617188 8.6201388,0.7739727 8.5257564,0.7503425 8.4492188,0.75 Z M 7.8300781,6.8164062 c 0.0276,0.00704 0.066403,0.029075 0.095703,0.066406 0.058601,0.074662 0.077891,0.1608751 0.00977,0.2441406 -0.074545,0.091108 -0.1911024,0.091092 -0.265625,0 -0.079293,-0.09691 -0.064149,-0.2045796 0.074219,-0.2929687 0.0413,-0.026383 0.058338,-0.024614 0.085937,-0.017578 z M 8.9414062,7.65625 c 0.087545,0.0178 0.1563954,0.051688 0.1347657,0.2070312 -0.011033,0.079311 -0.016315,0.067721 -0.00977,0.0625 0.00655,-0.00522 -0.033462,0.019569 -0.1523437,0.03125 -0.1668145,0.016429 -0.2075329,-0.021486 -0.1914063,-0.00391 0.016127,0.01758 -0.012273,-0.00789 0.025391,-0.1601562 C 8.7857583,7.6405502 8.8541629,7.6385114 8.9414062,7.65625 Z m -2.2910156,0.039063 c 0.069463,-0.00516 0.1213993,0.014227 0.1582032,0.083984 0.072623,0.1376929 0.068365,0.1810357 0.074219,0.1308593 0.00585,-0.050176 0.010594,-0.02571 -0.089844,0.076172 C 6.6632612,8.1178994 6.5634304,8.099421 6.5058594,8.0644531 6.4482884,8.0294853 6.4006826,7.9825025 6.4726562,7.8222656 6.511511,7.7357736 6.5809279,7.7004704 6.6503906,7.6953125 Z m 0.2929688,1.2617187 c 0.1348038,-0.034323 0.2119458,0.018769 0.2539062,0.083984 0.04196,0.065216 0.055926,0.1244312 -0.033203,0.2148438 -0.033988,0.034475 -0.1143228,0.061686 -0.1953125,0.052734 -0.08099,-0.00895 -0.1364438,-0.049737 -0.1503906,-0.076172 -0.049994,-0.094754 -0.041588,-0.1457656 -0.027344,-0.1777344 0.014244,-0.031969 0.04757,-0.070983 0.1523438,-0.097656 z m 1.5195312,0.09375 c 0.056425,-0.00817 0.1083417,0.00356 0.1328125,0.017578 0.024471,0.014022 0.032326,0.016267 0.039063,0.064453 0.00868,0.062065 -0.04749,0.2325262 -0.041016,0.2246094 -0.059698,0.072965 -0.1229263,0.076729 -0.1953125,0.048828 -0.072386,-0.0279 -0.1269531,-0.084114 -0.1269531,-0.1855469 0,-0.051118 0.014541,-0.075276 0.046875,-0.1054687 0.032334,-0.030193 0.087451,-0.056187 0.1445312,-0.064453 z"
       id="path103"
       inkscape:original="M 8.3027344 1.0234375 C 7.4159844 1.2491375 6.8321188 1.7432962 6.4804688 2.5664062 C 6.1904487 3.2451063 6.0800506 4.4770356 6.2441406 5.1972656 L 6.3535156 5.6796875 L 5.9863281 5.2441406 C 5.7847181 5.0052106 5.3086844 4.6415069 4.9277344 4.4355469 C 4.0082344 3.9383869 2.8360981 3.8401094 2.0488281 4.1933594 C 1.5202981 4.4305094 1.4143519 4.6393994 1.7011719 4.8808594 C 1.9661219 5.1039094 1.894525 5.2167969 1.484375 5.2167969 C 1.167615 5.2167969 1.08855 5.2647237 1.03125 5.4960938 C 0.93042 5.9035937 1.0731519 6.5406469 1.3886719 7.0917969 C 1.8261719 7.8559069 2.7840562 8.3717875 4.2226562 8.6171875 L 4.6542969 8.6894531 L 4.0117188 8.9550781 C 2.7378488 9.4802781 1.7558594 10.81885 1.7558594 12.03125 C 1.7558594 12.90109 1.8175456 13.021484 2.2597656 13.021484 C 2.6153456 13.021484 2.6264012 13.033219 2.5195312 13.318359 C 2.3918112 13.659089 2.4404781 13.723907 2.9550781 13.898438 C 3.5302781 14.093487 4.3215544 14.048833 5.0214844 13.783203 C 5.7752844 13.497203 6.7740637 12.552069 7.0898438 11.824219 L 7.2929688 11.351562 L 7.4667969 12.046875 C 7.7832969 13.313775 8.6653781 14.375299 9.7675781 14.818359 C 10.054778 14.933859 10.492374 15.012347 10.771484 14.998047 C 11.241614 14.973997 11.266428 14.954434 11.298828 14.615234 C 11.330498 14.283234 11.35078 14.266606 11.59375 14.378906 C 11.99264 14.563256 12.144265 14.437881 12.359375 13.744141 C 12.717795 12.588241 12.415958 11.419641 11.486328 10.369141 L 11.021484 9.84375 L 11.857422 9.8320312 C 13.257622 9.8119313 14.414389 9.0900594 14.886719 7.9433594 C 15.079469 7.4754194 15.042586 7.3654513 14.634766 7.2070312 L 14.34375 7.09375 L 14.613281 6.8710938 C 14.825151 6.6961938 14.857778 6.6100606 14.767578 6.4628906 C 14.456978 5.9559906 13.227187 5.4330385 12.373047 5.4453125 C 11.960347 5.4512525 10.747524 5.7382738 10.308594 5.9335938 C 10.140444 6.0084237 10.143878 5.9715694 10.335938 5.5683594 C 10.686318 4.8327594 10.836271 3.6786619 10.675781 2.9511719 C 10.523201 2.2597019 10.023658 1.4815856 9.6113281 1.2910156 C 9.3799781 1.1840856 9.299505 1.2030925 9.078125 1.4140625 L 8.8183594 1.6621094 L 8.6972656 1.3066406 C 8.5934256 1.0044946 8.5344644 0.9644015 8.3027344 1.0234375 z M 7.609375 6.6230469 C 7.990265 6.3797269 8.4209263 6.9282363 8.1289062 7.2851562 C 7.9590963 7.4926963 7.6463525 7.4926962 7.4765625 7.2851562 C 7.3056625 7.0762863 7.365135 6.7790669 7.609375 6.6230469 z M 8.9921875 7.4121094 C 9.1899212 7.4523131 9.3621188 7.6262425 9.3242188 7.8984375 C 9.2944388 8.1125055 9.2119931 8.1782991 8.9394531 8.2050781 C 8.5425531 8.2441681 8.4139594 8.1039619 8.5058594 7.7324219 C 8.5717944 7.4659319 8.7944538 7.3719056 8.9921875 7.4121094 z M 7.0292969 7.6621094 C 7.1764169 7.9410494 7.1750731 7.9547994 6.9707031 8.1621094 C 6.5781731 8.5602794 6.0194206 8.2210031 6.2441406 7.7207031 C 6.3970206 7.3803871 6.8625769 7.3461094 7.0292969 7.6621094 z M 6.8808594 8.7148438 C 7.3430094 8.5971738 7.6675569 9.1011906 7.3417969 9.4316406 C 7.1400969 9.6362316 6.7245263 9.5900794 6.5976562 9.3496094 C 6.4442663 9.0588894 6.5608994 8.7962978 6.8808594 8.7148438 z M 8.4277344 8.8027344 C 8.6345944 8.7727781 8.8498625 8.8619763 8.8828125 9.0976562 C 8.9025725 9.2390163 8.8596094 9.426969 8.7871094 9.515625 C 8.5317394 9.827745 8.0214844 9.6308931 8.0214844 9.2207031 C 8.0214844 8.9802581 8.2208744 8.8326906 8.4277344 8.8027344 z "
       transform="matrix(4,0,0,4,16,17)"
       inkscape:radius="0.25"
       sodipodi:type="inkscape:offset" />
    <g
       id="Bevel1">
      <path
         fill="#000"
         opacity=".10"
         sodipodi:type="inkscape:offset"
         inkscape:radius="0.5"
         transform="translate(16,17) scale(4)"
         inkscape:original="M 8.3027344 1.0234375 C 7.4159844 1.2491375 6.8321188 1.7432962 6.4804688 2.5664062 C 6.1904487 3.2451063 6.0800506 4.4770356 6.2441406 5.1972656 L 6.3535156 5.6796875 L 5.9863281 5.2441406 C 5.7847181 5.0052106 5.3086844 4.6415069 4.9277344 4.4355469 C 4.0082344 3.9383869 2.8360981 3.8401094 2.0488281 4.1933594 C 1.5202981 4.4305094 1.4143519 4.6393994 1.7011719 4.8808594 C 1.9661219 5.1039094 1.894525 5.2167969 1.484375 5.2167969 C 1.167615 5.2167969 1.08855 5.2647237 1.03125 5.4960938 C 0.93042 5.9035937 1.0731519 6.5406469 1.3886719 7.0917969 C 1.8261719 7.8559069 2.7840562 8.3717875 4.2226562 8.6171875 L 4.6542969 8.6894531 L 4.0117188 8.9550781 C 2.7378488 9.4802781 1.7558594 10.81885 1.7558594 12.03125 C 1.7558594 12.90109 1.8175456 13.021484 2.2597656 13.021484 C 2.6153456 13.021484 2.6264012 13.033219 2.5195312 13.318359 C 2.3918112 13.659089 2.4404781 13.723907 2.9550781 13.898438 C 3.5302781 14.093487 4.3215544 14.048833 5.0214844 13.783203 C 5.7752844 13.497203 6.7740637 12.552069 7.0898438 11.824219 L 7.2929688 11.351562 L 7.4667969 12.046875 C 7.7832969 13.313775 8.6653781 14.375299 9.7675781 14.818359 C 10.054778 14.933859 10.492374 15.012347 10.771484 14.998047 C 11.241614 14.973997 11.266428 14.954434 11.298828 14.615234 C 11.330498 14.283234 11.35078 14.266606 11.59375 14.378906 C 11.99264 14.563256 12.144265 14.437881 12.359375 13.744141 C 12.717795 12.588241 12.415958 11.419641 11.486328 10.369141 L 11.021484 9.84375 L 11.857422 9.8320312 C 13.257622 9.8119313 14.414389 9.0900594 14.886719 7.9433594 C 15.079469 7.4754194 15.042586 7.3654513 14.634766 7.2070312 L 14.34375 7.09375 L 14.613281 6.8710938 C 14.825151 6.6961938 14.857778 6.6100606 14.767578 6.4628906 C 14.456978 5.9559906 13.227187 5.4330385 12.373047 5.4453125 C 11.960347 5.4512525 10.747524 5.7382738 10.308594 5.9335938 C 10.140444 6.0084237 10.143878 5.9715694 10.335938 5.5683594 C 10.686318 4.8327594 10.836271 3.6786619 10.675781 2.9511719 C 10.523201 2.2597019 10.023658 1.4815856 9.6113281 1.2910156 C 9.3799781 1.1840856 9.299505 1.2030925 9.078125 1.4140625 L 8.8183594 1.6621094 L 8.6972656 1.3066406 C 8.5934256 1.0044946 8.5344644 0.9644015 8.3027344 1.0234375 z M 7.609375 6.6230469 C 7.990265 6.3797269 8.4209263 6.9282363 8.1289062 7.2851562 C 7.9590963 7.4926963 7.6463525 7.4926962 7.4765625 7.2851562 C 7.3056625 7.0762863 7.365135 6.7790669 7.609375 6.6230469 z M 8.9921875 7.4121094 C 9.1899212 7.4523131 9.3621188 7.6262425 9.3242188 7.8984375 C 9.2944388 8.1125055 9.2119931 8.1782991 8.9394531 8.2050781 C 8.5425531 8.2441681 8.4139594 8.1039619 8.5058594 7.7324219 C 8.5717944 7.4659319 8.7944538 7.3719056 8.9921875 7.4121094 z M 7.0292969 7.6621094 C 7.1764169 7.9410494 7.1750731 7.9547994 6.9707031 8.1621094 C 6.5781731 8.5602794 6.0194206 8.2210031 6.2441406 7.7207031 C 6.3970206 7.3803871 6.8625769 7.3461094 7.0292969 7.6621094 z M 6.8808594 8.7148438 C 7.3430094 8.5971738 7.6675569 9.1011906 7.3417969 9.4316406 C 7.1400969 9.6362316 6.7245263 9.5900794 6.5976562 9.3496094 C 6.4442663 9.0588894 6.5608994 8.7962978 6.8808594 8.7148438 z M 8.4277344 8.8027344 C 8.6345944 8.7727781 8.8498625 8.8619763 8.8828125 9.0976562 C 8.9025725 9.2390163 8.8596094 9.426969 8.7871094 9.515625 C 8.5317394 9.827745 8.0214844 9.6308931 8.0214844 9.2207031 C 8.0214844 8.9802581 8.2208744 8.8326906 8.4277344 8.8027344 z "
         id="path106" />
    </g>
    <g
       id="Bevel2">
      <path
         fill="#000"
         opacity=".05"
         sodipodi:type="inkscape:offset"
         inkscape:radius="0.75"
         transform="translate(16,17) scale(4)"
         inkscape:original="M 8.3027344 1.0234375 C 7.4159844 1.2491375 6.8321188 1.7432962 6.4804688 2.5664062 C 6.1904487 3.2451063 6.0800506 4.4770356 6.2441406 5.1972656 L 6.3535156 5.6796875 L 5.9863281 5.2441406 C 5.7847181 5.0052106 5.3086844 4.6415069 4.9277344 4.4355469 C 4.0082344 3.9383869 2.8360981 3.8401094 2.0488281 4.1933594 C 1.5202981 4.4305094 1.4143519 4.6393994 1.7011719 4.8808594 C 1.9661219 5.1039094 1.894525 5.2167969 1.484375 5.2167969 C 1.167615 5.2167969 1.08855 5.2647237 1.03125 5.4960938 C 0.93042 5.9035937 1.0731519 6.5406469 1.3886719 7.0917969 C 1.8261719 7.8559069 2.7840562 8.3717875 4.2226562 8.6171875 L 4.6542969 8.6894531 L 4.0117188 8.9550781 C 2.7378488 9.4802781 1.7558594 10.81885 1.7558594 12.03125 C 1.7558594 12.90109 1.8175456 13.021484 2.2597656 13.021484 C 2.6153456 13.021484 2.6264012 13.033219 2.5195312 13.318359 C 2.3918112 13.659089 2.4404781 13.723907 2.9550781 13.898438 C 3.5302781 14.093487 4.3215544 14.048833 5.0214844 13.783203 C 5.7752844 13.497203 6.7740637 12.552069 7.0898438 11.824219 L 7.2929688 11.351562 L 7.4667969 12.046875 C 7.7832969 13.313775 8.6653781 14.375299 9.7675781 14.818359 C 10.054778 14.933859 10.492374 15.012347 10.771484 14.998047 C 11.241614 14.973997 11.266428 14.954434 11.298828 14.615234 C 11.330498 14.283234 11.35078 14.266606 11.59375 14.378906 C 11.99264 14.563256 12.144265 14.437881 12.359375 13.744141 C 12.717795 12.588241 12.415958 11.419641 11.486328 10.369141 L 11.021484 9.84375 L 11.857422 9.8320312 C 13.257622 9.8119313 14.414389 9.0900594 14.886719 7.9433594 C 15.079469 7.4754194 15.042586 7.3654513 14.634766 7.2070312 L 14.34375 7.09375 L 14.613281 6.8710938 C 14.825151 6.6961938 14.857778 6.6100606 14.767578 6.4628906 C 14.456978 5.9559906 13.227187 5.4330385 12.373047 5.4453125 C 11.960347 5.4512525 10.747524 5.7382738 10.308594 5.9335938 C 10.140444 6.0084237 10.143878 5.9715694 10.335938 5.5683594 C 10.686318 4.8327594 10.836271 3.6786619 10.675781 2.9511719 C 10.523201 2.2597019 10.023658 1.4815856 9.6113281 1.2910156 C 9.3799781 1.1840856 9.299505 1.2030925 9.078125 1.4140625 L 8.8183594 1.6621094 L 8.6972656 1.3066406 C 8.5934256 1.0044946 8.5344644 0.9644015 8.3027344 1.0234375 z M 7.609375 6.6230469 C 7.990265 6.3797269 8.4209263 6.9282363 8.1289062 7.2851562 C 7.9590963 7.4926963 7.6463525 7.4926962 7.4765625 7.2851562 C 7.3056625 7.0762863 7.365135 6.7790669 7.609375 6.6230469 z M 8.9921875 7.4121094 C 9.1899212 7.4523131 9.3621188 7.6262425 9.3242188 7.8984375 C 9.2944388 8.1125055 9.2119931 8.1782991 8.9394531 8.2050781 C 8.5425531 8.2441681 8.4139594 8.1039619 8.5058594 7.7324219 C 8.5717944 7.4659319 8.7944538 7.3719056 8.9921875 7.4121094 z M 7.0292969 7.6621094 C 7.1764169 7.9410494 7.1750731 7.9547994 6.9707031 8.1621094 C 6.5781731 8.5602794 6.0194206 8.2210031 6.2441406 7.7207031 C 6.3970206 7.3803871 6.8625769 7.3461094 7.0292969 7.6621094 z M 6.8808594 8.7148438 C 7.3430094 8.5971738 7.6675569 9.1011906 7.3417969 9.4316406 C 7.1400969 9.6362316 6.7245263 9.5900794 6.5976562 9.3496094 C 6.4442663 9.0588894 6.5608994 8.7962978 6.8808594 8.7148438 z M 8.4277344 8.8027344 C 8.6345944 8.7727781 8.8498625 8.8619763 8.8828125 9.0976562 C 8.9025725 9.2390163 8.8596094 9.426969 8.7871094 9.515625 C 8.5317394 9.827745 8.0214844 9.6308931 8.0214844 9.2207031 C 8.0214844 8.9802581 8.2208744 8.8326906 8.4277344 8.8027344 z "
         id="path109" />
    </g>
    <path
       d="M 8.3027344 1.0234375 C 7.4159844 1.2491375 6.8321188 1.7432962 6.4804688 2.5664062 C 6.1904487 3.2451063 6.0800506 4.4770356 6.2441406 5.1972656 L 6.3535156 5.6796875 L 5.9863281 5.2441406 C 5.7847181 5.0052106 5.3086844 4.6415069 4.9277344 4.4355469 C 4.0082344 3.9383869 2.8360981 3.8401094 2.0488281 4.1933594 C 1.5202981 4.4305094 1.4143519 4.6393994 1.7011719 4.8808594 C 1.9661219 5.1039094 1.894525 5.2167969 1.484375 5.2167969 C 1.167615 5.2167969 1.08855 5.2647237 1.03125 5.4960938 C 0.93042 5.9035937 1.0731519 6.5406469 1.3886719 7.0917969 C 1.8261719 7.8559069 2.7840562 8.3717875 4.2226562 8.6171875 L 4.6542969 8.6894531 L 4.0117188 8.9550781 C 2.7378488 9.4802781 1.7558594 10.81885 1.7558594 12.03125 C 1.7558594 12.90109 1.8175456 13.021484 2.2597656 13.021484 C 2.6153456 13.021484 2.6264012 13.033219 2.5195312 13.318359 C 2.3918112 13.659089 2.4404781 13.723907 2.9550781 13.898438 C 3.5302781 14.093487 4.3215544 14.048833 5.0214844 13.783203 C 5.7752844 13.497203 6.7740637 12.552069 7.0898438 11.824219 L 7.2929688 11.351562 L 7.4667969 12.046875 C 7.7832969 13.313775 8.6653781 14.375299 9.7675781 14.818359 C 10.054778 14.933859 10.492374 15.012347 10.771484 14.998047 C 11.241614 14.973997 11.266428 14.954434 11.298828 14.615234 C 11.330498 14.283234 11.35078 14.266606 11.59375 14.378906 C 11.99264 14.563256 12.144265 14.437881 12.359375 13.744141 C 12.717795 12.588241 12.415958 11.419641 11.486328 10.369141 L 11.021484 9.84375 L 11.857422 9.8320312 C 13.257622 9.8119313 14.414389 9.0900594 14.886719 7.9433594 C 15.079469 7.4754194 15.042586 7.3654513 14.634766 7.2070312 L 14.34375 7.09375 L 14.613281 6.8710938 C 14.825151 6.6961938 14.857778 6.6100606 14.767578 6.4628906 C 14.456978 5.9559906 13.227187 5.4330385 12.373047 5.4453125 C 11.960347 5.4512525 10.747524 5.7382738 10.308594 5.9335938 C 10.140444 6.0084237 10.143878 5.9715694 10.335938 5.5683594 C 10.686318 4.8327594 10.836271 3.6786619 10.675781 2.9511719 C 10.523201 2.2597019 10.023658 1.4815856 9.6113281 1.2910156 C 9.3799781 1.1840856 9.299505 1.2030925 9.078125 1.4140625 L 8.8183594 1.6621094 L 8.6972656 1.3066406 C 8.5934256 1.0044946 8.5344644 0.9644015 8.3027344 1.0234375 z M 7.609375 6.6230469 C 7.990265 6.3797269 8.4209263 6.9282363 8.1289062 7.2851562 C 7.9590963 7.4926963 7.6463525 7.4926962 7.4765625 7.2851562 C 7.3056625 7.0762863 7.365135 6.7790669 7.609375 6.6230469 z M 8.9921875 7.4121094 C 9.1899212 7.4523131 9.3621188 7.6262425 9.3242188 7.8984375 C 9.2944388 8.1125055 9.2119931 8.1782991 8.9394531 8.2050781 C 8.5425531 8.2441681 8.4139594 8.1039619 8.5058594 7.7324219 C 8.5717944 7.4659319 8.7944538 7.3719056 8.9921875 7.4121094 z M 7.0292969 7.6621094 C 7.1764169 7.9410494 7.1750731 7.9547994 6.9707031 8.1621094 C 6.5781731 8.5602794 6.0194206 8.2210031 6.2441406 7.7207031 C 6.3970206 7.3803871 6.8625769 7.3461094 7.0292969 7.6621094 z M 6.8808594 8.7148438 C 7.3430094 8.5971738 7.6675569 9.1011906 7.3417969 9.4316406 C 7.1400969 9.6362316 6.7245263 9.5900794 6.5976562 9.3496094 C 6.4442663 9.0588894 6.5608994 8.7962978 6.8808594 8.7148438 z M 8.4277344 8.8027344 C 8.6345944 8.7727781 8.8498625 8.8619763 8.8828125 9.0976562 C 8.9025725 9.2390163 8.8596094 9.426969 8.7871094 9.515625 C 8.5317394 9.827745 8.0214844 9.6308931 8.0214844 9.2207031 C 8.0214844 8.9802581 8.2208744 8.8326906 8.4277344 8.8027344 z "
       fill="url(#a)"
       id="base"
       transform="translate(16,16) scale(4)" />
    <path
       style="opacity:0.3;fill:#000000;stroke-width:4"
       d="M 58.941406 28.939453 C 58.878343 31.445587 58.306919 34.251326 57.34375 36.273438 C 56.636444 37.758385 56.596581 37.977893 57.115234 37.773438 C 57.19027 37.609827 57.242826 37.485322 57.34375 37.273438 C 58.437755 34.976646 59.033685 31.668416 58.941406 28.939453 z M 40.683594 31.884766 C 40.639245 33.32458 40.729093 34.702862 40.976562 35.789062 L 41.103516 36.351562 L 41.414062 36.71875 L 40.976562 34.789062 C 40.787562 33.959494 40.699577 32.952056 40.683594 31.884766 z M 22.363281 33.025391 C 22.039232 33.51253 22.181002 33.998387 22.804688 34.523438 C 22.896065 34.600364 22.9638 34.669867 23.035156 34.740234 C 23.613453 34.551026 23.545823 34.147367 22.804688 33.523438 C 22.602771 33.353454 22.467222 33.18863 22.363281 33.025391 z M 20.021484 37.619141 C 19.871763 39.23067 20.44615 41.430796 21.554688 43.367188 C 23.304688 46.423628 27.136225 48.48715 32.890625 49.46875 L 32.894531 49.46875 L 34.617188 48.757812 L 32.890625 48.46875 C 27.136225 47.48715 23.304688 45.423628 21.554688 42.367188 C 20.660703 40.805576 20.121285 39.077101 20.021484 37.619141 z M 47.294922 40.251953 C 47.015624 40.237671 46.723168 40.309697 46.4375 40.492188 C 45.66852 40.98341 45.367755 41.823107 45.603516 42.566406 C 45.731888 42.151887 46.008133 41.766467 46.4375 41.492188 C 47.451087 40.844688 48.534419 41.603659 48.814453 42.601562 C 49.175361 41.524284 48.327072 40.304732 47.294922 40.251953 z M 75.068359 40.849609 C 74.938354 41.036393 74.756216 41.234172 74.453125 41.484375 L 73.375 42.375 L 74.197266 42.695312 L 74.453125 42.484375 C 75.300605 41.784775 75.431112 41.440242 75.070312 40.851562 C 75.069862 40.850827 75.068811 40.850345 75.068359 40.849609 z M 51.667969 43.613281 C 50.964025 43.59211 50.25421 43.996973 50.023438 44.929688 C 49.893055 45.456809 49.880408 45.862426 49.980469 46.166016 C 49.995731 46.086688 50.002314 46.015087 50.023438 45.929688 C 50.287177 44.863728 51.177815 44.487621 51.96875 44.648438 C 52.545099 44.765623 53.061919 45.170419 53.244141 45.800781 C 53.260025 45.728889 53.285396 45.676267 53.296875 45.59375 C 53.448475 44.50497 52.759685 43.809253 51.96875 43.648438 C 51.869883 43.628335 51.768532 43.616306 51.667969 43.613281 z M 42.525391 43.78125 C 41.900034 43.827686 41.282322 44.20218 40.976562 44.882812 C 40.745445 45.397356 40.723127 45.867622 40.841797 46.257812 C 40.874637 46.13576 40.919105 46.010731 40.976562 45.882812 C 41.588082 44.521549 43.450307 44.384438 44.117188 45.648438 C 44.224106 45.851156 44.287112 45.98912 44.353516 46.132812 C 44.662821 45.721438 44.554945 45.478427 44.117188 44.648438 C 43.783747 44.016438 43.150747 43.734814 42.525391 43.78125 z M 75.900391 44.759766 C 75.825149 45.045866 75.712545 45.371241 75.546875 45.773438 C 73.657555 50.360238 69.030487 53.247725 63.429688 53.328125 L 60.085938 53.375 L 60.958984 54.363281 L 63.429688 54.328125 C 69.030487 54.247725 73.657555 51.360238 75.546875 46.773438 C 75.957532 45.776485 76.096302 45.189933 75.900391 44.759766 z M 44.1875 48.792969 C 43.977631 48.780306 43.754512 48.80054 43.523438 48.859375 C 42.41116 49.142534 41.915621 49.973311 42.207031 50.949219 C 42.376466 50.437076 42.822887 50.037718 43.523438 49.859375 C 44.63686 49.575882 45.538716 50.199689 45.804688 51.025391 C 46.15614 49.987018 45.3778 48.864788 44.1875 48.792969 z M 49.710938 49.210938 C 48.883497 49.330762 48.085938 49.921033 48.085938 50.882812 C 48.085938 51.06835 48.120196 51.238387 48.167969 51.400391 C 48.384354 50.726433 49.033797 50.308997 49.710938 50.210938 C 50.486371 50.098645 51.283632 50.411715 51.490234 51.226562 C 51.54652 50.945498 51.567446 50.649564 51.53125 50.390625 C 51.39945 49.447906 50.538378 49.091113 49.710938 49.210938 z M 45.171875 59.40625 L 44.359375 61.296875 C 43.096255 64.208275 39.101138 67.988812 36.085938 69.132812 C 33.286217 70.195332 30.121112 70.373946 27.820312 69.59375 C 26.735317 69.225764 26.177955 68.976978 25.958984 68.626953 C 25.628243 69.681922 25.958385 69.962261 27.820312 70.59375 C 30.121112 71.373946 33.286217 71.195332 36.085938 70.132812 C 39.101138 68.988812 43.096255 65.208275 44.359375 62.296875 L 45.171875 60.40625 L 45.867188 63.1875 C 47.133187 68.2551 50.661513 72.501197 55.070312 74.273438 C 56.219113 74.735438 57.969497 75.049387 59.085938 74.992188 C 60.966457 74.895988 61.065713 74.817749 61.195312 73.460938 C 61.321993 72.132937 61.403112 72.066425 62.375 72.515625 C 63.97056 73.253025 64.57706 72.751542 65.4375 69.976562 C 65.885525 68.531688 66.075558 67.081408 66.011719 65.642578 C 65.970376 66.752085 65.781966 67.865664 65.4375 68.976562 C 64.57706 71.751542 63.97056 72.253025 62.375 71.515625 C 61.403112 71.066425 61.321993 71.132937 61.195312 72.460938 C 61.065713 73.817749 60.966457 73.895988 59.085938 73.992188 C 57.969497 74.049387 56.219113 73.735438 55.070312 73.273438 C 50.661513 71.501197 47.133187 67.2551 45.867188 62.1875 L 45.171875 59.40625 z M 23.033203 62.933594 C 23.031863 62.997234 23.023438 63.061525 23.023438 63.125 C 23.023438 66.60436 23.270183 67.085938 25.039062 67.085938 C 25.582441 67.085938 25.921635 67.093949 26.113281 67.166016 C 26.485622 66.154425 26.404051 66.085938 25.039062 66.085938 C 23.423004 66.085938 23.080851 65.656282 23.033203 62.933594 z "
       transform="translate(0,2)"
       id="path113" />
    <path
       style="fill:#ffffff;stroke-width:4"
       d="M 49.791016 18.001953 C 49.632067 18.001242 49.442668 18.034714 49.210938 18.09375 C 45.663938 18.99655 43.328475 20.973185 41.921875 24.265625 C 41.095843 26.198691 40.64407 29.245576 40.683594 31.884766 C 40.756871 29.505775 41.199183 26.956857 41.921875 25.265625 C 43.328475 21.973185 45.663938 19.99655 49.210938 19.09375 C 50.137858 18.857606 50.373703 19.017979 50.789062 20.226562 L 51.273438 21.648438 L 52.3125 20.65625 C 53.19802 19.81237 53.519912 19.736342 54.445312 20.164062 C 56.094633 20.926343 58.092821 24.038808 58.703125 26.804688 C 58.843981 27.443178 58.915467 28.172366 58.941406 28.939453 C 58.970107 27.798879 58.90391 26.71483 58.703125 25.804688 C 58.092821 23.038808 56.094633 19.926343 54.445312 19.164062 C 53.519912 18.736342 53.19802 18.81237 52.3125 19.65625 L 51.273438 20.648438 L 50.789062 19.226562 C 50.477542 18.320125 50.267861 18.004087 49.791016 18.001953 z M 28.253906 29.935547 C 26.7745 29.968558 25.376217 30.243563 24.195312 30.773438 C 22.453269 31.555088 21.876637 32.261111 22.363281 33.025391 C 22.635326 32.616429 23.230472 32.206359 24.195312 31.773438 C 27.344392 30.360438 32.032938 30.753548 35.710938 32.742188 C 37.234738 33.566028 39.138872 35.020843 39.945312 35.976562 L 41.414062 37.71875 L 41.103516 36.351562 L 39.945312 34.976562 C 39.138872 34.020843 37.234738 32.566028 35.710938 31.742188 C 33.412188 30.499288 30.719584 29.880528 28.253906 29.935547 z M 23.035156 34.740234 C 22.786507 34.821588 22.430802 34.867188 21.9375 34.867188 C 20.67046 34.867188 20.3542 35.058896 20.125 35.984375 C 20.007369 36.459777 19.980392 37.01883 20.021484 37.619141 C 20.042222 37.395929 20.075933 37.182678 20.125 36.984375 C 20.3542 36.058896 20.67046 35.867188 21.9375 35.867188 C 23.436646 35.867188 23.791401 35.485999 23.035156 34.740234 z M 65.492188 35.78125 C 63.841388 35.80501 58.990095 36.953095 57.234375 37.734375 C 57.18104 37.75811 57.159904 37.755828 57.115234 37.773438 C 56.619109 38.855214 56.650137 38.994372 57.234375 38.734375 C 58.990095 37.953095 63.841388 36.80501 65.492188 36.78125 C 68.907508 36.732172 73.823745 38.822698 75.068359 40.849609 C 75.301865 40.514122 75.302077 40.229708 75.070312 39.851562 C 73.827912 37.823963 68.908748 35.732154 65.492188 35.78125 z M 45.603516 42.566406 C 45.439796 43.095063 45.523088 43.672333 45.90625 44.140625 C 46.58541 44.970785 47.836385 44.970785 48.515625 44.140625 C 48.90661 43.662745 48.955349 43.103645 48.814453 42.601562 C 48.752163 42.787494 48.655317 42.969887 48.515625 43.140625 C 47.836385 43.970785 46.58541 43.970785 45.90625 43.140625 C 45.760722 42.962764 45.66728 42.767441 45.603516 42.566406 z M 74.197266 42.695312 L 73.375 43.375 L 74.539062 43.828125 C 75.301476 44.124289 75.728482 44.382302 75.900391 44.759766 C 76.175311 43.714402 75.819819 43.325642 74.539062 42.828125 L 74.197266 42.695312 z M 53.244141 45.800781 C 53.095197 46.474909 52.742916 46.723519 51.757812 46.820312 C 50.733313 46.921214 50.162517 46.718363 49.980469 46.166016 C 49.730125 47.46719 50.261441 47.967688 51.757812 47.820312 C 52.847972 47.713196 53.177755 47.450022 53.296875 46.59375 C 53.338005 46.298357 53.311985 46.035477 53.244141 45.800781 z M 44.353516 46.132812 C 44.24702 46.274451 44.092187 46.436051 43.882812 46.648438 C 42.716397 47.831612 41.184667 47.38518 40.841797 46.257812 C 40.360877 48.045199 42.413056 49.139312 43.882812 47.648438 C 44.551767 46.969859 44.652596 46.780002 44.353516 46.132812 z M 32.894531 49.46875 L 32.046875 49.820312 C 26.951395 51.921112 23.023438 57.2754 23.023438 62.125 C 23.023438 62.425597 23.028697 62.676125 23.033203 62.933594 C 23.134215 58.135066 27.018089 52.893616 32.046875 50.820312 L 34.617188 49.757812 L 32.894531 49.46875 z M 42.207031 50.949219 C 42.066924 51.372714 42.112911 51.872086 42.390625 52.398438 C 42.898105 53.360318 44.560387 53.544927 45.367188 52.726562 C 45.885399 52.20089 45.980305 51.57059 45.804688 51.025391 C 45.722373 51.268592 45.583553 51.507082 45.367188 51.726562 C 44.560387 52.544927 42.898105 52.360318 42.390625 51.398438 C 42.310295 51.246187 42.250932 51.096238 42.207031 50.949219 z M 51.490234 51.226562 C 51.42361 51.559254 51.305636 51.870273 51.148438 52.0625 C 50.242467 53.169801 48.54266 52.67103 48.167969 51.400391 C 48.11994 51.549983 48.085938 51.708111 48.085938 51.882812 C 48.085938 53.523573 50.126958 54.31098 51.148438 53.0625 C 51.43844 52.707876 51.61029 51.956066 51.53125 51.390625 C 51.522966 51.331373 51.504091 51.281212 51.490234 51.226562 z M 60.958984 54.363281 L 60.085938 54.375 L 61.945312 56.476562 C 64.501263 59.364846 65.870798 62.475869 66.011719 65.640625 C 66.141864 62.132989 64.769863 58.66837 61.945312 55.476562 L 60.958984 54.363281 z M 26.113281 67.166016 C 26.097642 67.208504 26.095356 67.227464 26.078125 67.273438 C 25.836533 67.917954 25.762534 68.312928 25.958984 68.626953 C 25.993884 68.515632 26.029362 68.403526 26.078125 68.273438 C 26.342292 67.568626 26.423278 67.282586 26.113281 67.166016 z "
       transform="translate(0,2)"
       id="path118" />
  </g>
</svg>
