<?xml version="1.0" encoding="UTF-8" standalone="no"?>
<!-- Created with Inkscape (http://www.inkscape.org/) -->

<svg
   xmlns:dc="http://purl.org/dc/elements/1.1/"
   xmlns:cc="http://creativecommons.org/ns#"
   xmlns:rdf="http://www.w3.org/1999/02/22-rdf-syntax-ns#"
   xmlns:svg="http://www.w3.org/2000/svg"
   xmlns="http://www.w3.org/2000/svg"
   xmlns:xlink="http://www.w3.org/1999/xlink"
   xmlns:sodipodi="http://sodipodi.sourceforge.net/DTD/sodipodi-0.dtd"
   xmlns:inkscape="http://www.inkscape.org/namespaces/inkscape"
   width="96"
   height="96"
   id="svg2408"
   sodipodi:version="0.32"
   inkscape:version="0.92.2 5c3e80d, 2017-08-06"
   version="1.0"
   sodipodi:docname="scribes.svg"
   inkscape:output_extension="org.inkscape.output.svg.inkscape">
  <defs
     id="defs2410">
    <linearGradient
       inkscape:collect="always"
       id="linearGradient3941">
      <stop
         style="stop-color:#ffffff;stop-opacity:1;"
         offset="0"
         id="stop3943" />
      <stop
         style="stop-color:#ffffff;stop-opacity:0;"
         offset="1"
         id="stop3945" />
    </linearGradient>
    <inkscape:perspective
       sodipodi:type="inkscape:persp3d"
       inkscape:vp_x="0 : 48 : 1"
       inkscape:vp_y="0 : 1000 : 0"
       inkscape:vp_z="96 : 48 : 1"
       inkscape:persp3d-origin="48 : 32 : 1"
       id="perspective48" />
    <linearGradient
       id="ButtonShadow"
       gradientTransform="scale(1.0058652,0.994169)"
       x1="45.447727"
       y1="92.539597"
       x2="45.447727"
       y2="7.0165396"
       gradientUnits="userSpaceOnUse">
      <stop
         style="stop-color:#000000;stop-opacity:1;"
         offset="0"
         id="stop3750" />
      <stop
         style="stop-color:#000000;stop-opacity:0.58823532;"
         offset="1"
         id="stop3752" />
    </linearGradient>
    <linearGradient
       inkscape:collect="always"
       id="linearGradient3737">
      <stop
         style="stop-color:#ffffff;stop-opacity:1;"
         offset="0"
         id="stop3739" />
      <stop
         style="stop-color:#ffffff;stop-opacity:0;"
         offset="1"
         id="stop3741" />
    </linearGradient>
    <linearGradient
       id="linearGradient3700">
      <stop
         style="stop-color:#f57900;stop-opacity:1"
         offset="0"
         id="stop3702" />
      <stop
         style="stop-color:#f89d44;stop-opacity:1;"
         offset="1"
         id="stop3704" />
    </linearGradient>
    <filter
       inkscape:collect="always"
       id="filter3174">
      <feGaussianBlur
         inkscape:collect="always"
         stdDeviation="1.71"
         id="feGaussianBlur3176" />
    </filter>
    <filter
       inkscape:collect="always"
       id="filter3794"
       x="-0.192"
       width="1.384"
       y="-0.192"
       height="1.384">
      <feGaussianBlur
         inkscape:collect="always"
         stdDeviation="5.28"
         id="feGaussianBlur3796" />
    </filter>
    <linearGradient
       inkscape:collect="always"
       xlink:href="#linearGradient3737"
       id="linearGradient3613"
       x1="48"
       y1="20.220806"
       x2="48"
       y2="138.66119"
       gradientUnits="userSpaceOnUse" />
    <clipPath
       clipPathUnits="userSpaceOnUse"
       id="clipPath3613">
      <rect
         ry="6"
         rx="6"
         y="6"
         x="6"
         height="84"
         width="84"
         id="rect3615"
         style="fill:#ffffff;fill-opacity:1;fill-rule:nonzero;stroke:none" />
    </clipPath>
    <linearGradient
       inkscape:collect="always"
       xlink:href="#linearGradient3700"
       id="linearGradient3617"
       gradientUnits="userSpaceOnUse"
       x1="48"
       y1="90"
       x2="48"
       y2="5.9877172" />
    <linearGradient
       id="ButtonShadow-0"
       gradientTransform="matrix(1.0058652,0,0,0.994169,100,0)"
       x1="45.447727"
       y1="92.539597"
       x2="45.447727"
       y2="7.0165396"
       gradientUnits="userSpaceOnUse">
      <stop
         style="stop-color:#000000;stop-opacity:1;"
         offset="0"
         id="stop3750-8" />
      <stop
         style="stop-color:#000000;stop-opacity:0.58823532;"
         offset="1"
         id="stop3752-5" />
    </linearGradient>
    <linearGradient
       inkscape:collect="always"
       xlink:href="#ButtonShadow-0"
       id="linearGradient3780"
       gradientUnits="userSpaceOnUse"
       gradientTransform="matrix(1.0238095,0,0,1.0119048,-1.1428571,-98.071429)"
       x1="32.251034"
       y1="6.1317081"
       x2="32.251034"
       y2="90.238609" />
    <linearGradient
       inkscape:collect="always"
       xlink:href="#ButtonShadow-0"
       id="linearGradient3772"
       gradientUnits="userSpaceOnUse"
       gradientTransform="matrix(1.0238095,0,0,1.0119048,-1.1428571,-98.071429)"
       x1="32.251034"
       y1="6.1317081"
       x2="32.251034"
       y2="90.238609" />
    <linearGradient
       inkscape:collect="always"
       xlink:href="#ButtonShadow-0"
       id="linearGradient3725"
       gradientUnits="userSpaceOnUse"
       gradientTransform="matrix(1.0238095,0,0,1.0119048,-1.1428571,-98.071429)"
       x1="32.251034"
       y1="6.1317081"
       x2="32.251034"
       y2="90.238609" />
    <linearGradient
       inkscape:collect="always"
       xlink:href="#ButtonShadow-0"
       id="linearGradient3721"
       gradientUnits="userSpaceOnUse"
       gradientTransform="translate(0,-97)"
       x1="32.251034"
       y1="6.1317081"
       x2="32.251034"
       y2="90.238609" />
    <linearGradient
       y2="90.238609"
       x2="32.251034"
       y1="6.1317081"
       x1="32.251034"
       gradientTransform="matrix(1.0238095,0,0,1.0119048,-1.1428571,-98.071429)"
       gradientUnits="userSpaceOnUse"
       id="linearGradient3026"
       xlink:href="#ButtonShadow-0"
       inkscape:collect="always" />
    <linearGradient
       inkscape:collect="always"
       xlink:href="#linearGradient3700-9"
       id="linearGradient3617-6"
       gradientUnits="userSpaceOnUse"
       x1="48"
       y1="90"
       x2="48"
       y2="5.9877172" />
    <linearGradient
       id="linearGradient3700-9">
      <stop
         style="stop-color:#f57900;stop-opacity:1"
         offset="0"
         id="stop3702-5" />
      <stop
         style="stop-color:#f89d44;stop-opacity:1;"
         offset="1"
         id="stop3704-1" />
    </linearGradient>
    <linearGradient
       inkscape:collect="always"
       xlink:href="#linearGradient3941"
       id="linearGradient3947"
       x1="49.983868"
       y1="63.414215"
       x2="49.983868"
       y2="-2.3158617"
       gradientUnits="userSpaceOnUse" />
    <linearGradient
       inkscape:collect="always"
       xlink:href="#linearGradient3936"
       id="linearGradient3942"
       x1="102.76233"
       y1="78.680206"
       x2="142.16823"
       y2="30.335871"
       gradientUnits="userSpaceOnUse"
       gradientTransform="matrix(0.98565429,0.16877686,-0.16877686,0.98565429,-45.008735,-15.895389)" />
    <linearGradient
       inkscape:collect="always"
       id="linearGradient3936">
      <stop
         style="stop-color:#000000;stop-opacity:1;"
         offset="0"
         id="stop3938" />
      <stop
         style="stop-color:#000000;stop-opacity:0;"
         offset="1"
         id="stop3940" />
    </linearGradient>
    <linearGradient
       id="linearGradient3294">
      <stop
         offset="0"
         style="stop-color:#a1bfe1;stop-opacity:1;"
         id="stop3296" />
      <stop
         offset="0.50094414"
         style="stop-color:#407dc1;stop-opacity:1;"
         id="stop3302" />
      <stop
         offset="1"
         style="stop-color:#224367;stop-opacity:1;"
         id="stop3298" />
    </linearGradient>
    <linearGradient
       id="linearGradient3202">
      <stop
         offset="0"
         style="stop-color:#2b2b2b;stop-opacity:1"
         id="stop3204" />
      <stop
         offset="0.5"
         style="stop-color:#828383;stop-opacity:1"
         id="stop3250" />
      <stop
         offset="1"
         style="stop-color:#dadbdb;stop-opacity:1"
         id="stop3206" />
    </linearGradient>
    <linearGradient
       id="linearGradient3147">
      <stop
         offset="0"
         style="stop-color:#2b2b2b;stop-opacity:1"
         id="stop3149" />
      <stop
         offset="0.5"
         style="stop-color:#828383;stop-opacity:1"
         id="stop3151" />
      <stop
         offset="1"
         style="stop-color:#dadbdb;stop-opacity:1"
         id="stop3153" />
    </linearGradient>
    <linearGradient
       id="linearGradient3242">
      <stop
         offset="0"
         style="stop-color:#282828;stop-opacity:1"
         id="stop3244" />
      <stop
         offset="0.39253417"
         style="stop-color:#969696;stop-opacity:1;"
         id="stop3252" />
      <stop
         offset="1"
         style="stop-color:#e3e3e3;stop-opacity:1;"
         id="stop3246" />
    </linearGradient>
    <linearGradient
       inkscape:collect="always"
       xlink:href="#linearGradient3936"
       id="linearGradient3946"
       gradientUnits="userSpaceOnUse"
       gradientTransform="rotate(31.988059,71.000001,-24.425403)"
       x1="103.94804"
       y1="79.295097"
       x2="134.48746"
       y2="41.356407" />
    <linearGradient
       y2="30.335871"
       x2="142.16823"
       y1="78.680206"
       x1="102.76233"
       gradientTransform="rotate(9.7167107,71.000007,-272.71085)"
       gradientUnits="userSpaceOnUse"
       id="linearGradient3176"
       xlink:href="#linearGradient3936"
       inkscape:collect="always" />
    <radialGradient
       inkscape:collect="always"
       xlink:href="#linearGradient3242"
       id="radialGradient4034"
       gradientUnits="userSpaceOnUse"
       gradientTransform="matrix(-0.01234502,-0.01124481,0.3176589,-0.34873903,38.557637,90.465077)"
       cx="418.45551"
       cy="181.18982"
       fx="418.45551"
       fy="181.18982"
       r="63.068935" />
    <radialGradient
       inkscape:collect="always"
       xlink:href="#linearGradient3202"
       id="radialGradient4037"
       gradientUnits="userSpaceOnUse"
       gradientTransform="matrix(0.07808342,0.06214543,-0.09525431,0.11968356,90.619342,-23.620235)"
       cx="283.50717"
       cy="382.14804"
       fx="283.50717"
       fy="382.14804"
       r="17.67668" />
    <radialGradient
       inkscape:collect="always"
       xlink:href="#linearGradient3202"
       id="radialGradient4040"
       gradientUnits="userSpaceOnUse"
       gradientTransform="matrix(0.07808342,0.06214543,-0.09525431,0.11968356,71.51635,-1.9903031)"
       cx="289.44067"
       cy="390.45248"
       fx="289.44067"
       fy="390.45248"
       r="17.67668" />
    <radialGradient
       inkscape:collect="always"
       xlink:href="#linearGradient3294"
       id="radialGradient4043"
       gradientUnits="userSpaceOnUse"
       gradientTransform="matrix(-0.01898241,-0.01522718,0.20231986,-0.25221475,8.796203,136.45939)"
       cx="425.51019"
       cy="356.62274"
       fx="425.51019"
       fy="356.62274"
       r="143.34167" />
    <linearGradient
       id="linearGradient4390"
       x1="48"
       x2="48"
       y1="88"
       y2="-40"
       gradientTransform="matrix(1,0,0,-1,0,92)"
       gradientUnits="userSpaceOnUse"
       xlink:href="#linearGradient3941" />
    <linearGradient
       id="linearGradient4429"
       x1="48"
       x2="112.12"
       y1="82"
       y2="82.455002"
       gradientUnits="userSpaceOnUse"
       spreadMethod="reflect"
       xlink:href="#linearGradient3941" />
    <linearGradient
       id="linearGradient3228"
       x1="90"
       x2="48"
       y1="88"
       y2="88"
       gradientUnits="userSpaceOnUse"
       spreadMethod="reflect">
      <stop
         id="stop3894"
         stop-opacity=".58824"
         offset="0" />
      <stop
         id="stop3896"
         stop-opacity=".47059"
         offset=".1178" />
      <stop
         id="stop3898"
         stop-opacity=".39216"
         offset=".2381" />
      <stop
         id="stop3900"
         stop-opacity=".31373"
         offset="1" />
    </linearGradient>
  </defs>
  <sodipodi:namedview
     id="base"
     pagecolor="#ffffff"
     bordercolor="#666666"
     borderopacity="1.0"
     inkscape:pageopacity="0.0"
     inkscape:pageshadow="2"
     inkscape:zoom="3.3293184"
     inkscape:cx="4.9775203"
     inkscape:cy="49.414217"
     inkscape:document-units="px"
     inkscape:current-layer="layer4"
     showgrid="true"
     showborder="true"
     inkscape:showpageshadow="false"
     inkscape:window-width="1366"
     inkscape:window-height="743"
     inkscape:window-x="0"
     inkscape:window-y="25"
     inkscape:window-maximized="1"
     inkscape:snap-global="false">
    <inkscape:grid
       type="xygrid"
       id="grid3732"
       visible="true"
       enabled="true" />
  </sodipodi:namedview>
  <metadata
     id="metadata2413">
    <rdf:RDF>
      <cc:Work
         rdf:about="">
        <dc:format>image/svg+xml</dc:format>
        <dc:type
           rdf:resource="http://purl.org/dc/dcmitype/StillImage" />
        <dc:title />
      </cc:Work>
    </rdf:RDF>
  </metadata>
  <g
     inkscape:groupmode="layer"
     id="layer2"
     inkscape:label="Blur Shadow"
     style="display:none"
     sodipodi:insensitive="true">
    <rect
       style="opacity:0.9;fill:url(#ButtonShadow);fill-opacity:1;fill-rule:nonzero;stroke:none;filter:url(#filter3174)"
       id="rect3745"
       width="86"
       height="85"
       x="5"
       y="7"
       rx="6"
       ry="6" />
  </g>
  <g
     inkscape:groupmode="layer"
     id="layer3"
     inkscape:label="Shadow"
     sodipodi:insensitive="true">
    <path
       sodipodi:type="inkscape:offset"
       inkscape:radius="0.99097413"
       inkscape:original="M 12 -94.03125 C 7.028367 -94.03125 2.96875 -89.971633 2.96875 -85 L 2.96875 -14 C 2.96875 -9.0283671 7.0283671 -4.96875 12 -4.96875 L 84 -4.96875 C 88.971633 -4.96875 93.03125 -9.028367 93.03125 -14 L 93.03125 -85 C 93.03125 -89.971633 88.971633 -94.03125 84 -94.03125 L 12 -94.03125 z "
       style="opacity:0.07999998;fill:url(#linearGradient3026);fill-opacity:1;fill-rule:nonzero;stroke:none;display:inline"
       id="path3786"
       d="m 12,-95.03125 c -5.5110903,0 -10.03125,4.52016 -10.03125,10.03125 l 0,71 c 0,5.5110902 4.5201598,10.03125 10.03125,10.03125 l 72,0 c 5.51109,0 10.03125,-4.5201597 10.03125,-10.03125 l 0,-71 c 0,-5.51109 -4.52016,-10.03125 -10.03125,-10.03125 l -72,0 z"
       transform="scale(1,-1)" />
    <path
       sodipodi:type="inkscape:offset"
       inkscape:radius="1.0360184"
       inkscape:original="M 12 -93 C 7.5908667 -93 4 -89.409133 4 -85 L 4 -14 C 4 -9.5908667 7.5908667 -6 12 -6 L 84 -6 C 88.409133 -6 92 -9.5908667 92 -14 L 92 -85 C 92 -89.409133 88.409133 -93 84 -93 L 12 -93 z "
       style="opacity:0.1;fill:url(#linearGradient3780);fill-opacity:1;fill-rule:nonzero;stroke:none;display:inline"
       id="path3778"
       d="m 12,-94.03125 c -4.971633,0 -9.03125,4.059617 -9.03125,9.03125 l 0,71 c 0,4.9716329 4.0596171,9.03125 9.03125,9.03125 l 72,0 c 4.971633,0 9.03125,-4.059617 9.03125,-9.03125 l 0,-71 c 0,-4.971633 -4.059617,-9.03125 -9.03125,-9.03125 l -72,0 z"
       transform="scale(1,-1)" />
    <path
       sodipodi:type="inkscape:offset"
       inkscape:radius="0.98962283"
       inkscape:original="M 12 -92 C 8.122 -92 5 -88.878 5 -85 L 5 -14 C 5 -10.122 8.122 -7 12 -7 L 84 -7 C 87.878 -7 91 -10.122 91 -14 L 91 -85 C 91 -88.878 87.878 -92 84 -92 L 12 -92 z "
       style="opacity:0.2;fill:url(#linearGradient3772);fill-opacity:1;fill-rule:nonzero;stroke:none;display:inline"
       id="path3770"
       d="m 12,-93 c -4.4091333,0 -8,3.590867 -8,8 l 0,71 c 0,4.4091333 3.5908667,8 8,8 l 72,0 c 4.409133,0 8,-3.5908667 8,-8 l 0,-71 c 0,-4.409133 -3.590867,-8 -8,-8 l -72,0 z"
       transform="scale(1,-1)" />
    <rect
       style="opacity:0.3;fill:url(#linearGradient3725);fill-opacity:1;fill-rule:nonzero;stroke:none;display:inline"
       id="rect3723"
       width="86"
       height="85"
       x="5"
       y="-92"
       rx="7"
       ry="7"
       transform="scale(1,-1)" />
    <rect
       transform="scale(1,-1)"
       ry="6"
       rx="6"
       y="-91"
       x="6"
       height="84"
       width="84"
       id="rect3716"
       style="opacity:0.45;fill:url(#linearGradient3721);fill-opacity:1;fill-rule:nonzero;stroke:none;display:inline" />
  </g>
  <g
     inkscape:label="Button"
     inkscape:groupmode="layer"
     id="layer1"
     sodipodi:insensitive="true">
    <rect
       style="fill:url(#linearGradient3617);fill-opacity:1;fill-rule:nonzero;stroke:none"
       id="rect2419"
       width="84"
       height="84"
       x="6"
       y="6"
       rx="6"
       ry="6" />
    <g
       id="g907">
      <path
         id="rect4377"
         d="M 12,86 C 8.676,86 6,83.324 6,80 V 12 C 6,8.676 8.676,6 12,6 h 72 c 3.324,0 6,2.676 6,6 v 68 c 0,3.324 -2.676,6 -6,6 z m 0,-0.96875 h 72 c 2.8049,0 5.0312,-2.2264 5.0312,-5.0312 v -68 c 0,-2.8049 -2.226,-5.0312 -5.031,-5.0312 h -72 c -2.8049,0 -5.0312,2.2263 -5.0312,5.0312 v 68 c 0,2.8049 2.2264,5.0312 5.0312,5.0312 z"
         style="opacity:0.3;fill:url(#linearGradient4390)"
         inkscape:connector-curvature="0" />
      <path
         id="rect4414"
         d="m 6,78 v 2 c 0,3.324 2.676,6 6,6 h 72 c 3.324,0 6,-2.676 6,-6 v -2 c 0,3.324 -2.676,6 -6,6 H 12 C 8.676,84 6,81.324 6,78 Z"
         style="opacity:0.1;fill:url(#linearGradient4429)"
         inkscape:connector-curvature="0" />
      <g
         id="layer4-3">
        <path
           style="fill:url(#linearGradient3228)"
           inkscape:connector-curvature="0"
           d="m 6,80 v 4 c 0,3.324 2.676,6 6,6 h 72 c 3.324,0 6,-2.676 6,-6 v -4 c 0,3.324 -2.676,6 -6,6 H 12 C 8.676,86 6,83.324 6,80 Z"
           id="path3888" />
        <path
           style="color:#000000;opacity:0.1"
           inkscape:connector-curvature="0"
           d="m 6,82 v 2 c 0,3.324 2.676,6 6,6 h 72 c 3.324,0 6,-2.676 6,-6 v -2 c 0,3.324 -2.676,6 -6,6 H 12 C 8.676,88 6,85.324 6,82 Z"
           id="rect4345" />
        <path
           style="color:#000000;opacity:0.15"
           inkscape:connector-curvature="0"
           d="m 6,83 v 1 c 0,3.324 2.676,6 6,6 h 72 c 3.324,0 6,-2.676 6,-6 v -1 c 0,3.324 -2.676,6 -6,6 H 12 C 8.676,89 6,86.324 6,83 Z"
           id="rect4336" />
      </g>
    </g>
  </g>
  <g
     inkscape:groupmode="layer"
     id="layer5"
     inkscape:label="Highlight"
     style="display:none"
     sodipodi:insensitive="true">
    <rect
       style="opacity:0.1;fill:url(#linearGradient3613);fill-opacity:1;fill-rule:nonzero;stroke:#ffffff;stroke-width:0.5;stroke-linecap:round;stroke-linejoin:miter;stroke-miterlimit:4;stroke-opacity:1;stroke-dasharray:none;stroke-dashoffset:0;filter:url(#filter3794)"
       id="rect3171"
       width="66"
       height="66"
       x="15"
       y="15"
       rx="12"
       ry="12"
       clip-path="url(#clipPath3613)" />
  </g>
  <g
     inkscape:groupmode="layer"
     id="layer4"
     inkscape:label="Symbol">
    <path
       id="path3845"
       d="M 46,104.09375 C 33.674971,105.10408 24,115.41441 24,128 c 0,5.52285 -4.477153,10 -10,10 v 14 c 13.254834,0 24,-10.74517 24,-24 0,-4.83249 3.443169,-8.84879 8,-9.78125 z m 4,0 v 14.125 c 4.556831,0.93246 8,4.94876 8,9.78125 0,5.52285 -4.477153,10 -10,10 h -8 v 14 h 8 c 13.254834,0 24,-10.74517 24,-24 0,-12.58559 -9.674971,-22.89592 -22,-23.90625 z"
       style="color:#000000;display:inline;overflow:visible;visibility:visible;opacity:0.5;fill:#d40000;fill-opacity:1;fill-rule:nonzero;stroke:none;stroke-width:1.5;marker:none;enable-background:accumulate"
       inkscape:connector-curvature="0" />
    <g
       id="g961"
       transform="translate(0,-2.9995773)">
      <path
         d="m 47.943359,20.933594 c -11.497983,-0.06242 -22.332792,7.98724 -25.615234,19.007812 -1.10973,3.147176 -1.083447,6.374465 -1.353516,9.369141 -0.190173,1.05955 -0.772481,1.610175 -1.710937,2.085937 -0.942008,0.477564 -2.201253,0.757704 -3.361328,1.03125 a 0.97291882,0.97291882 0 0 0 -0.314453,0.136719 c -1.103523,0.732375 -1.427641,1.961171 -1.460938,2.953125 -0.0333,0.991954 0.09911,1.906943 0.03125,2.496094 a 0.97291882,0.97291882 0 0 0 -0.0059,0.121094 c 0.04165,4.571091 -0.08484,9.178227 0.0625,13.802734 a 0.97291882,0.97291882 0 0 0 0.01172,0.115234 c 0.101838,0.666936 0.418457,1.254076 0.857422,1.652344 0.438966,0.398268 0.961465,0.61288 1.46875,0.730469 1.003205,0.232543 2.003172,0.125703 2.757813,0.0293 7.631557,-0.371247 14.901844,-4.335163 19.365234,-10.578125 -0.01646,2.882953 -0.09161,5.770064 0.07227,8.699219 a 0.97291882,0.97291882 0 0 0 0.04102,0.234374 c 0.201863,0.647908 0.600335,1.18184 1.083985,1.517579 0.48365,0.335738 1.017172,0.48432 1.519531,0.55664 1.004718,0.144641 1.975241,0.02261 2.601563,0.04687 a 0.97291882,0.97291882 0 0 0 0.02148,0 c 4.624785,0.07786 9.49445,0.0608 14.041016,-1.886718 C 68.539255,69.058576 75.704838,58.138402 75.126953,46.925781 74.846374,35.321952 66.321728,24.659483 55.060547,21.841797 52.700565,21.167978 50.269463,20.99876 47.964844,20.933594 a 0.97291882,0.97291882 0 0 0 -0.02148,0 z M 48.375,43.419922 c 2.420077,0.148116 4.568987,2.498032 4.224609,4.945312 a 0.97291882,0.97291882 0 0 0 -0.0078,0.07227 c -0.161934,2.523663 -2.786323,4.31582 -5.25,4.003906 a 0.97291882,0.97291882 0 0 0 -0.123047,-0.0078 h -3.771484 c 0.162735,-1.275546 0.153623,-2.526252 0.169922,-3.648438 0.02159,-1.48665 0.187468,-2.691681 1.060546,-3.716797 a 0.97291882,0.97291882 0 0 0 0.02344,-0.0293 c 0.837626,-1.062205 2.193827,-1.518378 3.673828,-1.61914 z"
         id="path3902"
         style="color:#000000;display:inline;overflow:visible;visibility:visible;opacity:0.1;fill:#ff780b;fill-opacity:1;fill-rule:nonzero;stroke:none;stroke-width:1.5;marker:none;enable-background:accumulate"
         inkscape:original="M 47.9375 21.90625 C 36.890027 21.84628 26.390024 29.654525 23.25 40.25 C 22.200404 43.216267 22.220458 46.385893 21.9375 49.46875 C 21.446869 52.256028 18.409572 52.836297 16.125 53.375 C 14.537877 54.428326 15.307545 56.54027 15.125 58.125 C 15.16687 62.719719 15.04138 67.320159 15.1875 71.90625 C 15.47838 73.81122 17.778409 73.685065 19.21875 73.5 C 27.556971 73.11009 35.701412 68.408079 39.625 60.9375 C 39.68502 64.799821 39.503356 68.68118 39.71875 72.53125 C 40.303128 74.406895 42.527849 73.910501 44.03125 73.96875 C 48.644226 74.04641 53.369229 74.009822 57.6875 72.15625 C 67.768602 68.325538 74.715039 57.743577 74.15625 46.96875 C 73.895684 35.819302 65.633175 25.482857 54.8125 22.78125 C 52.576989 22.140232 50.219254 21.97077 47.9375 21.90625 z M 48.375 42.4375 C 51.394959 42.584933 53.995573 45.422415 53.5625 48.5 C 53.361001 51.640266 50.219262 53.78613 47.21875 53.40625 L 42.34375 53.40625 C 43.184877 50.458988 41.771912 46.980202 43.9375 44.4375 C 45.016934 43.068654 46.706037 42.539427 48.375 42.4375 z "
         inkscape:radius="0.97282153"
         sodipodi:type="inkscape:offset" />
      <path
         inkscape:connector-curvature="0"
         id="path3893"
         d="M 47.9375,21.90625 C 36.890027,21.84628 26.397855,29.648798 23.257831,40.244273 22.208235,43.21054 22.213079,46.373017 21.930121,49.455874 21.43949,52.243152 18.409572,52.836297 16.125,53.375 c -1.587123,1.053326 -0.817455,3.15714 -1,4.74187 0.04187,4.594719 -0.08362,9.203289 0.0625,13.78938 0.29088,1.90497 2.606342,1.77378 4.046683,1.588715 8.338221,-0.38991 16.467229,-5.086886 20.390817,-12.557465 0.06002,3.862321 -0.121644,7.74368 0.09375,11.59375 0.584378,1.875645 2.796102,1.379251 4.299503,1.4375 4.612976,0.07766 9.353074,0.04439 13.671345,-1.809182 C 67.7707,68.328856 74.727996,57.73103 74.169207,46.956203 73.908641,35.806755 65.622626,25.484452 54.801951,22.782845 52.56644,22.141827 50.219254,21.97077 47.9375,21.90625 Z M 48.375,42.4375 c 3.019959,0.147433 5.624464,2.981471 5.191391,6.059056 -0.201499,3.140266 -3.35443,5.289574 -6.354942,4.909694 -1.622566,0 -3.245133,0 -4.867699,0 0.841127,-2.947262 -0.585997,-6.411826 1.579591,-8.954528 1.079434,-1.368846 2.782696,-1.912295 4.451659,-2.014222 z"
         style="color:#000000;display:inline;overflow:visible;visibility:visible;opacity:0.15;fill:#ff780b;fill-opacity:1;fill-rule:nonzero;stroke:none;stroke-width:1.5;marker:none;enable-background:accumulate" />
      <path
         d="m 47.929688,23.035156 c -13.6475,0.114948 -24.707032,11.227808 -24.707032,24.902344 0,0.07086 -7.65e-4,0.164166 0,0.257812 -0.120679,2.942518 -1.588571,4.317334 -3.103515,5.125 -1.517243,0.808893 -3.015625,0.904297 -3.015625,0.904297 A 0.9018185,0.9018185 0 0 0 16.253906,55.125 v 16.40625 a 0.9018185,0.9018185 0 0 0 0.902344,0.902344 c 8.761837,0 14.92181,-3.570441 18.810547,-8.119141 3.888737,-4.5487 5.560547,-10.012477 5.560547,-14.033203 V 47.9375 47.800781 c 0.07587,-3.520923 2.912751,-6.333361 6.435547,-6.429687 a 0.9018185,0.9018185 0 0 0 0.480468,-0.15625 0.9018185,0.9018185 0 0 0 0.482422,0.210937 c 3.279468,0.387746 5.796875,3.120558 5.796875,6.511719 0,3.614428 -2.864977,6.528813 -6.458984,6.597656 -0.03125,5.78e-4 -0.04751,0 -0.107422,0 h -6.5 A 0.9018185,0.9018185 0 0 0 40.753906,55.4375 v 16.5 a 0.9018185,0.9018185 0 0 0 0.902344,0.902344 h 6.1875 c 0.108965,0.0011 0.225213,0 0.3125,0 13.745173,0 24.902344,-11.157169 24.902344,-24.902344 0,-13.43796 -10.671681,-24.386154 -23.994141,-24.869141 a 0.9018185,0.9018185 0 0 0 -0.558594,0.167969 0.9018185,0.9018185 0 0 0 -0.576171,-0.201172 z"
         id="path3889"
         style="color:#000000;display:inline;overflow:visible;visibility:visible;opacity:0.3;fill:#ff780b;fill-opacity:1;fill-rule:nonzero;stroke:none;stroke-width:1.5;marker:none;enable-background:accumulate"
         inkscape:original="M 47.9375 23.9375 C 34.77452 24.048367 24.125 34.748362 24.125 47.9375 C 24.125 48.02727 24.1237 48.129057 24.125 48.21875 C 23.867108 54.738198 17.15625 55.125 17.15625 55.125 L 17.15625 71.53125 C 34.195817 71.53125 40.625 57.8093 40.625 50.28125 L 40.625 47.9375 L 40.625 47.78125 C 40.71112 43.78454 43.945647 40.577902 47.9375 40.46875 L 47.9375 23.9375 z M 49.03125 23.96875 L 49.03125 40.53125 C 52.751579 40.971121 55.625 44.096609 55.625 47.9375 C 55.625 52.031813 52.356611 55.359436 48.28125 55.4375 C 48.23261 55.438399 48.205095 55.4375 48.15625 55.4375 L 41.65625 55.4375 L 41.65625 71.9375 L 47.84375 71.9375 C 47.94032 71.9386 48.059407 71.9375 48.15625 71.9375 C 61.414362 71.9375 72.15625 61.195614 72.15625 47.9375 C 72.15625 34.976213 61.878823 24.43452 49.03125 23.96875 z "
         inkscape:radius="0.90172833"
         sodipodi:type="inkscape:offset" />
      <path
         sodipodi:nodetypes="csccccccccccssscccssc"
         inkscape:connector-curvature="0"
         id="path3864"
         d="m 47.938834,23.95191 c -13.16298,0.110867 -23.804602,10.801116 -23.804602,23.990254 0,0.08977 -0.0013,0.17847 0,0.268163 C 23.87634,54.729775 17.162,55.120675 17.162,55.120675 v 16.399184 c 17.039567,0 23.474555,-13.718692 23.474555,-21.246742 v -2.330953 -0.165023 c 0.08612,-3.99671 3.310426,-7.193126 7.302279,-7.302278 z m 1.093279,0.02063 v 16.54358 c 3.720329,0.439871 6.600929,3.585154 6.600929,7.426045 0,4.094313 -3.268173,7.430494 -7.343534,7.508558 -0.04864,8.99e-4 -0.09555,0 -0.144395,0 h -6.477162 c 0,5.500774 0,11.001549 0,16.502324 h 6.188371 c 0.09657,0.0011 0.191948,0 0.288791,0 13.258112,0 24.010881,-10.752768 24.010881,-24.010882 0,-12.961287 -10.276308,-23.503855 -23.123881,-23.969625 z"
         style="color:#000000;display:inline;overflow:visible;visibility:visible;fill:#ffffff;fill-opacity:1;fill-rule:nonzero;stroke:none;stroke-width:1.5;marker:none;enable-background:accumulate" />
    </g>
    <path
       style="opacity:0.2;fill:url(#linearGradient3947);fill-opacity:1;stroke:none"
       d="M 12,6 C 8.676,6 6,8.676 6,12 V 64.40625 C 30.080271,70.336479 43.525956,39.485893 67.032046,42.63187 76.288202,49.213434 83.248065,52.515064 90,51.875 V 12 C 90,8.676 87.324,6 84,6 Z"
       id="path3904"
       inkscape:connector-curvature="0"
       sodipodi:nodetypes="sscccsss" />
  </g>
  <g
     inkscape:groupmode="layer"
     id="layer6"
     inkscape:label="Pencil">
    <g
       id="g948"
       transform="translate(0,-2.9999464)">
      <path
         inkscape:transform-center-y="-26.573359"
         inkscape:transform-center-x="-32.268573"
         id="path3902-5"
         d="m 103.09531,26.997728 c 0,0 -0.25105,0.203894 -0.25781,0.209493 -2.21993,-0.04859 -8.0462,2.105291 -23.24284,15.201474 -0.0172,-0.01668 -0.138185,-0.118777 -0.138185,-0.118777 l -0.598313,0.531646 c 0.08481,0.07708 0.161928,0.154794 0.24557,0.232278 -10.18625,8.360273 -21.07466,18.13062 -21.944108,18.91139 -7.99e-4,-0.0012 -0.02549,-0.03603 -0.02548,-0.03607 l -0.0202,-0.06687 -0.0413,0.05634 c -7.64e-4,-0.0014 -0.02548,-0.03607 -0.02548,-0.03607 l -0.789241,0.720886 c 0.0081,0.01173 0.01734,0.02434 0.02548,0.03607 l -0.03602,0.02554 0.02548,0.03607 c 4.2e-5,5.8e-5 0.04775,0.06716 0.05106,0.07216 -9.318121,9.495534 -15.121583,16.651535 -14.883979,17.488818 0.319625,1.126286 18.76411,-11.736831 19.526172,-12.382064 0.03176,0.02607 0.194412,0.160022 0.194515,0.160127 l 0.03076,0.0053 0.866667,-0.802742 -0.02548,-0.03607 c -1.53e-4,-1.1e-4 -0.07489,-0.07217 -0.08181,-0.07742 1.842824,-1.41214 11.90943,-9.17401 22.459932,-18.220671 0.170833,0.225729 0.331856,0.468987 0.331856,0.468987 l 0.598313,-0.531645 c -0.02268,-0.03404 -0.05293,-0.07361 -0.07653,-0.10822 0.790201,-0.61736 17.455531,-13.665016 19.329541,-19.010336 0.21345,-0.157476 0.30053,-0.23332 0.51035,-0.388186 0,0 -0.0316,-1.827825 -2.00865,-2.341353 z"
         style="opacity:0.25;fill:url(#linearGradient3176);fill-opacity:1"
         inkscape:connector-curvature="0" />
      <path
         d="m 58.811305,64.806923 c -0.0013,-7.53e-4 -1.401983,-0.774234 -3.163969,-2.146656 v 0 C 54.125603,61.476885 53.09831,60.360533 53.097181,60.359404 v 0 l -0.02297,-0.02504 0.686493,-0.879111 0.02956,-0.0386 0.03182,0.03709 c 0.0032,0.0019 1.016749,1.185264 2.584235,2.406304 v 0 c 1.489913,1.159281 3.124429,1.993202 3.127818,1.994897 v 0 l 0.04312,0.02203 -0.736389,0.946329 -0.02956,-0.01638 v 0 z m -3.114638,-2.20992 c 1.608909,1.253236 2.912606,2.004123 3.123487,2.122932 v 0 L 59.455057,63.9039 C 59.187125,63.764003 57.71284,62.977718 56.357176,61.922936 v 0 c -1.412903,-1.100535 -2.379378,-2.17151 -2.563335,-2.380885 v 0 l -0.614567,0.787792 c 0.159855,0.170399 1.131603,1.189972 2.517393,2.26716 z"
         id="path4824"
         style="fill:#4d4d4d"
         inkscape:connector-curvature="0" />
      <path
         inkscape:connector-curvature="0"
         style="fill:url(#radialGradient4043);fill-opacity:1;fill-rule:evenodd;stroke:#13345c;stroke-width:0.5;stroke-linecap:butt;stroke-linejoin:miter;stroke-miterlimit:4;stroke-dasharray:none;stroke-opacity:1"
         id="path3254"
         d="m 58.800638,64.465415 c 0,0 10.021885,-10.75183 19.831506,-22.591302 l 0.428489,0.132305 c 0,0 20.344107,-22.295585 15.367847,-24.100695 0,0 -2.48812,-4.927466 -22.002856,18.782933 l -0.03753,0.355809 C 63.384249,47.428206 53.379974,60.088795 53.379974,60.088795 45.652535,71.196981 41.064367,79.407388 41.44384,80.200834 41.959655,81.279353 58.83058,64.573465 58.800638,64.465415 Z" />
      <path
         inkscape:connector-curvature="0"
         style="fill:url(#radialGradient4040);fill-opacity:1;fill-rule:evenodd;stroke:none"
         id="path2430"
         d="m 53.052249,60.295772 c 2.190592,2.242344 5.761083,4.519174 5.761083,4.519174 l 0.707197,-0.896934 C 57.097641,62.651764 53.72495,59.433343 53.72495,59.433343 Z" />
      <path
         inkscape:connector-curvature="0"
         style="fill:url(#radialGradient4037);fill-opacity:1;fill-rule:evenodd;stroke:none"
         id="path3236"
         d="m 72.000002,36.975464 c 3.86372,2.466573 6.8995,5.450604 6.8995,5.450604 l 0.517461,-0.603703 C 77.356299,39.64193 72.509451,36.343176 72.509451,36.343176 Z" />
      <path
         inkscape:connector-curvature="0"
         style="fill:url(#radialGradient4034);fill-opacity:1;fill-rule:evenodd;stroke:none"
         id="path3240"
         d="m 93.224586,17.277397 c 2.035353,0.17248 2.380329,1.966357 2.380329,1.966357 -9.279829,9.659296 -22.871843,23.699783 -22.871843,23.699783 l -0.68995,-0.586461 C 84.013755,28.006116 93.224586,17.277397 93.224586,17.277397" />
      <path
         style="opacity:0.4;fill:url(#linearGradient3946);fill-opacity:1"
         d="m 118.64074,54.503216 c 0,0 -0.30959,0.09354 -0.31797,0.09616 -2.03591,-0.886301 -8.24383,-1.101224 -27.270166,5.258549 -0.0096,-0.02195 -0.08286,-0.162287 -0.08286,-0.162287 l -0.75517,0.265228 c 0.04927,0.10347 0.09119,0.204615 0.139219,0.308019 -12.594839,3.876069 -26.373863,8.790906 -27.474357,9.183915 -2.72e-4,-0.0014 -0.0099,-0.043 -0.0099,-0.04304 l 0.0067,-0.06954 -0.05957,0.03648 c -1.62e-4,-0.0016 -0.0099,-0.04303 -0.0099,-0.04303 l -1.003574,0.367989 c 0.0031,0.01393 0.0069,0.02909 0.0099,0.04304 l -0.04302,0.01002 0.0099,0.04303 c 1.6e-5,7e-5 0.01874,0.08025 0.01991,0.08613 -12.221729,5.255654 -20.304327,9.678339 -20.401772,10.54321 -0.131075,1.163401 21.812476,-3.749781 22.762227,-4.058061 0.0195,0.03615 0.119262,0.221763 0.119317,0.221901 l 0.02646,0.01655 1.106248,-0.414396 -0.0099,-0.04304 c -9.9e-5,-1.61e-4 -0.04196,-0.09517 -0.04636,-0.102645 2.24054,-0.608375 14.497869,-3.976027 27.689922,-8.34923 0.07254,0.273634 0.129356,0.559772 0.129356,0.559772 l 0.755169,-0.265228 c -0.0081,-0.04009 -0.02109,-0.08818 -0.0298,-0.129151 0.965228,-0.271823 21.332281,-6.030065 25.092341,-10.266381 0.25721,-0.06483 0.36653,-0.102019 0.6194,-0.16581 0,0 0.66347,-1.703448 -0.97145,-2.92795 z"
         id="path3944"
         inkscape:transform-center-x="-39.57159"
         inkscape:transform-center-y="-12.864885"
         inkscape:connector-curvature="0" />
    </g>
  </g>
</svg>
