<?xml version="1.0" encoding="UTF-8" standalone="no"?>
<!-- Created with Inkscape (http://www.inkscape.org/) -->

<svg
   xmlns:dc="http://purl.org/dc/elements/1.1/"
   xmlns:cc="http://creativecommons.org/ns#"
   xmlns:rdf="http://www.w3.org/1999/02/22-rdf-syntax-ns#"
   xmlns:svg="http://www.w3.org/2000/svg"
   xmlns="http://www.w3.org/2000/svg"
   xmlns:xlink="http://www.w3.org/1999/xlink"
   xmlns:sodipodi="http://sodipodi.sourceforge.net/DTD/sodipodi-0.dtd"
   xmlns:inkscape="http://www.inkscape.org/namespaces/inkscape"
   width="96"
   height="96"
   id="svg2408"
   sodipodi:version="0.32"
   inkscape:version="0.92.2 5c3e80d, 2017-08-06"
   version="1.0"
   sodipodi:docname="soundconverter.svg"
   inkscape:output_extension="org.inkscape.output.svg.inkscape">
  <defs
     id="defs2410">
    <linearGradient
       id="linearGradient3696">
      <stop
         id="stop3698"
         offset="0"
         style="stop-color:#2458a6;stop-opacity:1;" />
      <stop
         id="stop3700"
         offset="1"
         style="stop-color:#598ad4;stop-opacity:1;" />
    </linearGradient>
    <inkscape:perspective
       sodipodi:type="inkscape:persp3d"
       inkscape:vp_x="0 : 48 : 1"
       inkscape:vp_y="0 : 1000 : 0"
       inkscape:vp_z="96 : 48 : 1"
       inkscape:persp3d-origin="48 : 32 : 1"
       id="perspective118" />
    <linearGradient
       id="linearGradient4157">
      <stop
         style="stop-color:#3977d4;stop-opacity:1;"
         offset="0"
         id="stop4159" />
      <stop
         style="stop-color:#6da7ff;stop-opacity:1;"
         offset="1"
         id="stop4161" />
    </linearGradient>
    <linearGradient
       id="linearGradient4099">
      <stop
         style="stop-color:#9ebe1c;stop-opacity:1;"
         offset="0"
         id="stop4101" />
      <stop
         style="stop-color:#dae54d;stop-opacity:1;"
         offset="1"
         id="stop4103" />
    </linearGradient>
    <linearGradient
       inkscape:collect="always"
       id="linearGradient4091">
      <stop
         style="stop-color:#000000;stop-opacity:1;"
         offset="0"
         id="stop4093" />
      <stop
         style="stop-color:#000000;stop-opacity:0;"
         offset="1"
         id="stop4095" />
    </linearGradient>
    <linearGradient
       id="linearGradient4012">
      <stop
         id="stop4014"
         offset="0"
         style="stop-color:#f5f5f5;stop-opacity:1;" />
      <stop
         id="stop4016"
         offset="1"
         style="stop-color:#d7d7d7;stop-opacity:1;" />
    </linearGradient>
    <linearGradient
       id="linearGradient3749">
      <stop
         style="stop-color:#989898;stop-opacity:1;"
         offset="0"
         id="stop3751" />
      <stop
         id="stop3757"
         offset="0.375"
         style="stop-color:#616161;stop-opacity:1;" />
      <stop
         style="stop-color:#1a1a1a;stop-opacity:1;"
         offset="1"
         id="stop3753" />
    </linearGradient>
    <linearGradient
       id="ButtonShadow"
       gradientTransform="scale(1.0058652,0.994169)"
       x1="45.447727"
       y1="92.539597"
       x2="45.447727"
       y2="7.0165396"
       gradientUnits="userSpaceOnUse">
      <stop
         style="stop-color:#000000;stop-opacity:1;"
         offset="0"
         id="stop3750" />
      <stop
         style="stop-color:#000000;stop-opacity:0.58823532;"
         offset="1"
         id="stop3752" />
    </linearGradient>
    <linearGradient
       inkscape:collect="always"
       id="linearGradient3737">
      <stop
         style="stop-color:#ffffff;stop-opacity:1;"
         offset="0"
         id="stop3739" />
      <stop
         style="stop-color:#ffffff;stop-opacity:0;"
         offset="1"
         id="stop3741" />
    </linearGradient>
    <filter
       inkscape:collect="always"
       id="filter3174">
      <feGaussianBlur
         inkscape:collect="always"
         stdDeviation="1.71"
         id="feGaussianBlur3176" />
    </filter>
    <filter
       inkscape:collect="always"
       id="filter3794"
       x="-0.192"
       width="1.384"
       y="-0.192"
       height="1.384">
      <feGaussianBlur
         inkscape:collect="always"
         stdDeviation="5.28"
         id="feGaussianBlur3796" />
    </filter>
    <linearGradient
       inkscape:collect="always"
       xlink:href="#linearGradient3737"
       id="linearGradient3613"
       x1="48"
       y1="20.220806"
       x2="48"
       y2="138.66119"
       gradientUnits="userSpaceOnUse" />
    <clipPath
       clipPathUnits="userSpaceOnUse"
       id="clipPath3613">
      <rect
         ry="6"
         rx="6"
         y="6"
         x="6"
         height="84"
         width="84"
         id="rect3615"
         style="fill:#ffffff;fill-opacity:1;fill-rule:nonzero;stroke:none" />
    </clipPath>
    <linearGradient
       id="ButtonShadow-0"
       gradientTransform="matrix(1.0058652,0,0,0.994169,100,0)"
       x1="45.447727"
       y1="92.539597"
       x2="45.447727"
       y2="7.0165396"
       gradientUnits="userSpaceOnUse">
      <stop
         style="stop-color:#000000;stop-opacity:1;"
         offset="0"
         id="stop3750-8" />
      <stop
         style="stop-color:#000000;stop-opacity:0.58823532;"
         offset="1"
         id="stop3752-5" />
    </linearGradient>
    <linearGradient
       inkscape:collect="always"
       xlink:href="#ButtonShadow-0"
       id="linearGradient3780"
       gradientUnits="userSpaceOnUse"
       gradientTransform="matrix(1.0238095,0,0,1.0119048,-1.1428571,-98.071429)"
       x1="32.251034"
       y1="6.1317081"
       x2="32.251034"
       y2="90.238609" />
    <linearGradient
       inkscape:collect="always"
       xlink:href="#ButtonShadow-0"
       id="linearGradient3772"
       gradientUnits="userSpaceOnUse"
       gradientTransform="matrix(1.0238095,0,0,1.0119048,-1.1428571,-98.071429)"
       x1="32.251034"
       y1="6.1317081"
       x2="32.251034"
       y2="90.238609" />
    <linearGradient
       inkscape:collect="always"
       xlink:href="#ButtonShadow-0"
       id="linearGradient3725"
       gradientUnits="userSpaceOnUse"
       gradientTransform="matrix(1.0238095,0,0,1.0119048,-1.1428571,-98.071429)"
       x1="32.251034"
       y1="6.1317081"
       x2="32.251034"
       y2="90.238609" />
    <linearGradient
       inkscape:collect="always"
       xlink:href="#ButtonShadow-0"
       id="linearGradient3721"
       gradientUnits="userSpaceOnUse"
       gradientTransform="translate(0,-97)"
       x1="32.251034"
       y1="6.1317081"
       x2="32.251034"
       y2="90.238609" />
    <linearGradient
       y2="90.238609"
       x2="32.251034"
       y1="6.1317081"
       x1="32.251034"
       gradientTransform="matrix(1.0238095,0,0,1.0119048,-1.1428571,-98.071429)"
       gradientUnits="userSpaceOnUse"
       id="linearGradient3026"
       xlink:href="#ButtonShadow-0"
       inkscape:collect="always" />
    <radialGradient
       inkscape:collect="always"
       xlink:href="#linearGradient3749"
       id="radialGradient3763"
       gradientUnits="userSpaceOnUse"
       gradientTransform="matrix(0.91804726,0.10129281,-0.08144708,0.78887573,9.05656,8.2573273)"
       cx="49.60294"
       cy="61.284744"
       fx="49.60294"
       fy="61.284744"
       r="10" />
    <linearGradient
       inkscape:collect="always"
       xlink:href="#linearGradient3811-7"
       id="linearGradient3830-8"
       x1="67"
       y1="35"
       x2="57"
       y2="19"
       gradientUnits="userSpaceOnUse"
       gradientTransform="translate(1)" />
    <linearGradient
       inkscape:collect="always"
       id="linearGradient3811-7">
      <stop
         style="stop-color:#ffffff;stop-opacity:1;"
         offset="0"
         id="stop3813-4" />
      <stop
         style="stop-color:#ffffff;stop-opacity:0;"
         offset="1"
         id="stop3815-4" />
    </linearGradient>
    <radialGradient
       inkscape:collect="always"
       xlink:href="#linearGradient3811-7"
       id="radialGradient3817-3"
       cx="55.5"
       cy="36"
       fx="55.5"
       fy="36"
       r="0.5"
       gradientTransform="matrix(1,0,0,26,1,-900)"
       gradientUnits="userSpaceOnUse" />
    <linearGradient
       inkscape:collect="always"
       xlink:href="#linearGradient3769-3"
       id="linearGradient3775-9"
       x1="49.659111"
       y1="55.023781"
       x2="50.133987"
       y2="72.838806"
       gradientUnits="userSpaceOnUse" />
    <linearGradient
       inkscape:collect="always"
       id="linearGradient3769-3">
      <stop
         style="stop-color:#ffffff;stop-opacity:1;"
         offset="0"
         id="stop3771-7" />
      <stop
         style="stop-color:#ffffff;stop-opacity:0;"
         offset="1"
         id="stop3773-8" />
    </linearGradient>
    <radialGradient
       inkscape:collect="always"
       xlink:href="#linearGradient3784-2"
       id="radialGradient3755-8"
       cx="49.170681"
       cy="69.609459"
       fx="49.170681"
       fy="69.609459"
       r="10"
       gradientTransform="matrix(0.85251736,0.16517015,-0.12915082,0.69789091,15.599342,11.44984)"
       gradientUnits="userSpaceOnUse" />
    <linearGradient
       id="linearGradient3784-2">
      <stop
         id="stop3786-4"
         offset="0"
         style="stop-color:#828282;stop-opacity:1;" />
      <stop
         id="stop3790-2"
         offset="1"
         style="stop-color:#1a1a1a;stop-opacity:1;" />
    </linearGradient>
    <linearGradient
       inkscape:collect="always"
       xlink:href="#linearGradient3799-3"
       id="linearGradient3805-6"
       x1="56.037025"
       y1="49.333305"
       x2="56.037025"
       y2="13.593002"
       gradientUnits="userSpaceOnUse" />
    <linearGradient
       id="linearGradient3799-3">
      <stop
         style="stop-color:#1a1a1a;stop-opacity:1;"
         offset="0"
         id="stop3801-3" />
      <stop
         style="stop-color:#000000;stop-opacity:1;"
         offset="1"
         id="stop3803-2" />
    </linearGradient>
    <linearGradient
       inkscape:collect="always"
       xlink:href="#linearGradient4012"
       id="linearGradient4081"
       gradientUnits="userSpaceOnUse"
       x1="40"
       y1="32"
       x2="40"
       y2="80"
       gradientTransform="translate(0,-90)" />
    <linearGradient
       inkscape:collect="always"
       xlink:href="#linearGradient4091"
       id="linearGradient4097"
       x1="59"
       y1="38.001213"
       x2="67"
       y2="38.001213"
       gradientUnits="userSpaceOnUse" />
    <linearGradient
       inkscape:collect="always"
       xlink:href="#linearGradient4099"
       id="linearGradient4105"
       x1="38"
       y1="74"
       x2="70"
       y2="49"
       gradientUnits="userSpaceOnUse" />
    <linearGradient
       inkscape:collect="always"
       xlink:href="#linearGradient4099"
       id="linearGradient4113"
       x1="22.111456"
       y1="62.983868"
       x2="40"
       y2="32"
       gradientUnits="userSpaceOnUse" />
    <linearGradient
       inkscape:collect="always"
       xlink:href="#linearGradient3811-7"
       id="linearGradient4128"
       x1="72"
       y1="47"
       x2="47.979176"
       y2="71.020821"
       gradientUnits="userSpaceOnUse" />
    <linearGradient
       inkscape:collect="always"
       xlink:href="#linearGradient3769-3"
       id="linearGradient4155"
       x1="37"
       y1="29"
       x2="26"
       y2="57"
       gradientUnits="userSpaceOnUse" />
    <linearGradient
       inkscape:collect="always"
       xlink:href="#linearGradient3696"
       id="linearGradient4163"
       x1="6"
       y1="48"
       x2="90"
       y2="48"
       gradientUnits="userSpaceOnUse"
       gradientTransform="translate(-96,0)" />
    <linearGradient
       id="linearGradient4390"
       x1="48"
       x2="48"
       y1="88"
       y2="-40"
       gradientTransform="matrix(1,0,0,-1,0,92)"
       gradientUnits="userSpaceOnUse"
       xlink:href="#linearGradient3737" />
    <linearGradient
       id="linearGradient4429"
       x1="48"
       x2="112.12"
       y1="82"
       y2="82.455002"
       gradientUnits="userSpaceOnUse"
       spreadMethod="reflect"
       xlink:href="#linearGradient3737" />
    <linearGradient
       id="linearGradient3228"
       x1="90"
       x2="48"
       y1="88"
       y2="88"
       gradientUnits="userSpaceOnUse"
       spreadMethod="reflect">
      <stop
         id="stop3894"
         stop-opacity=".58824"
         offset="0" />
      <stop
         id="stop3896"
         stop-opacity=".47059"
         offset=".1178" />
      <stop
         id="stop3898"
         stop-opacity=".39216"
         offset=".2381" />
      <stop
         id="stop3900"
         stop-opacity=".31373"
         offset="1" />
    </linearGradient>
  </defs>
  <sodipodi:namedview
     id="base"
     pagecolor="#ffffff"
     bordercolor="#666666"
     borderopacity="1.0"
     inkscape:pageopacity="0.0"
     inkscape:pageshadow="2"
     inkscape:zoom="3.9125504"
     inkscape:cx="31.153496"
     inkscape:cy="37.598493"
     inkscape:document-units="px"
     inkscape:current-layer="layer4"
     showgrid="true"
     showborder="true"
     inkscape:showpageshadow="false"
     inkscape:window-width="1366"
     inkscape:window-height="743"
     inkscape:window-x="0"
     inkscape:window-y="25"
     inkscape:window-maximized="1"
     inkscape:snap-global="true">
    <inkscape:grid
       type="xygrid"
       id="grid3732"
       visible="true"
       enabled="true" />
  </sodipodi:namedview>
  <metadata
     id="metadata2413">
    <rdf:RDF>
      <cc:Work
         rdf:about="">
        <dc:format>image/svg+xml</dc:format>
        <dc:type
           rdf:resource="http://purl.org/dc/dcmitype/StillImage" />
        <dc:title />
      </cc:Work>
    </rdf:RDF>
  </metadata>
  <g
     inkscape:groupmode="layer"
     id="layer2"
     inkscape:label="Blur Shadow"
     style="display:none"
     sodipodi:insensitive="true">
    <rect
       style="opacity:0.9;fill:url(#ButtonShadow);fill-opacity:1;fill-rule:nonzero;stroke:none;filter:url(#filter3174)"
       id="rect3745"
       width="86"
       height="85"
       x="5"
       y="7"
       rx="6"
       ry="6" />
  </g>
  <g
     inkscape:groupmode="layer"
     id="layer3"
     inkscape:label="Shadow"
     sodipodi:insensitive="true">
    <path
       sodipodi:type="inkscape:offset"
       inkscape:radius="0.99097413"
       inkscape:original="M 12 -94.03125 C 7.028367 -94.03125 2.96875 -89.971633 2.96875 -85 L 2.96875 -14 C 2.96875 -9.0283671 7.0283671 -4.96875 12 -4.96875 L 84 -4.96875 C 88.971633 -4.96875 93.03125 -9.028367 93.03125 -14 L 93.03125 -85 C 93.03125 -89.971633 88.971633 -94.03125 84 -94.03125 L 12 -94.03125 z "
       style="opacity:0.07999998;fill:url(#linearGradient3026);fill-opacity:1;fill-rule:nonzero;stroke:none;display:inline"
       id="path3786"
       d="m 12,-95.03125 c -5.5110903,0 -10.03125,4.52016 -10.03125,10.03125 l 0,71 c 0,5.5110902 4.5201598,10.03125 10.03125,10.03125 l 72,0 c 5.51109,0 10.03125,-4.5201597 10.03125,-10.03125 l 0,-71 c 0,-5.51109 -4.52016,-10.03125 -10.03125,-10.03125 l -72,0 z"
       transform="scale(1,-1)" />
    <path
       sodipodi:type="inkscape:offset"
       inkscape:radius="1.0360184"
       inkscape:original="M 12 -93 C 7.5908667 -93 4 -89.409133 4 -85 L 4 -14 C 4 -9.5908667 7.5908667 -6 12 -6 L 84 -6 C 88.409133 -6 92 -9.5908667 92 -14 L 92 -85 C 92 -89.409133 88.409133 -93 84 -93 L 12 -93 z "
       style="opacity:0.1;fill:url(#linearGradient3780);fill-opacity:1;fill-rule:nonzero;stroke:none;display:inline"
       id="path3778"
       d="m 12,-94.03125 c -4.971633,0 -9.03125,4.059617 -9.03125,9.03125 l 0,71 c 0,4.9716329 4.0596171,9.03125 9.03125,9.03125 l 72,0 c 4.971633,0 9.03125,-4.059617 9.03125,-9.03125 l 0,-71 c 0,-4.971633 -4.059617,-9.03125 -9.03125,-9.03125 l -72,0 z"
       transform="scale(1,-1)" />
    <path
       sodipodi:type="inkscape:offset"
       inkscape:radius="0.98962283"
       inkscape:original="M 12 -92 C 8.122 -92 5 -88.878 5 -85 L 5 -14 C 5 -10.122 8.122 -7 12 -7 L 84 -7 C 87.878 -7 91 -10.122 91 -14 L 91 -85 C 91 -88.878 87.878 -92 84 -92 L 12 -92 z "
       style="opacity:0.2;fill:url(#linearGradient3772);fill-opacity:1;fill-rule:nonzero;stroke:none;display:inline"
       id="path3770"
       d="m 12,-93 c -4.4091333,0 -8,3.590867 -8,8 l 0,71 c 0,4.4091333 3.5908667,8 8,8 l 72,0 c 4.409133,0 8,-3.5908667 8,-8 l 0,-71 c 0,-4.409133 -3.590867,-8 -8,-8 l -72,0 z"
       transform="scale(1,-1)" />
    <rect
       style="opacity:0.3;fill:url(#linearGradient3725);fill-opacity:1;fill-rule:nonzero;stroke:none;display:inline"
       id="rect3723"
       width="86"
       height="85"
       x="5"
       y="-92"
       rx="7"
       ry="7"
       transform="scale(1,-1)" />
    <rect
       transform="scale(1,-1)"
       ry="6"
       rx="6"
       y="-91"
       x="6"
       height="84"
       width="84"
       id="rect3716"
       style="opacity:0.45;fill:url(#linearGradient3721);fill-opacity:1;fill-rule:nonzero;stroke:none;display:inline" />
  </g>
  <g
     inkscape:label="Button"
     inkscape:groupmode="layer"
     id="layer1"
     sodipodi:insensitive="true">
    <rect
       style="fill:url(#linearGradient4163);fill-opacity:1;fill-rule:nonzero;stroke:none"
       id="rect2419"
       width="84"
       height="84"
       x="-90"
       y="6"
       rx="6"
       ry="6"
       transform="rotate(-90)" />
    <path
       style="color:#000000;display:inline;overflow:visible;visibility:visible;opacity:0.44672134;fill:#ff00ff;fill-opacity:1;fill-rule:nonzero;stroke:none;stroke-width:1;marker:none;enable-background:accumulate"
       d="m -59.247964,68.903788 5.656854,-9.797959 -3.863703,1.035276 c -2.287069,-8.535458 2.778251,-17.308849 11.313708,-19.595918 1.350616,-0.361897 2.753867,-0.562568 4.152127,-0.562569 l -0.0055,-7.989554 c -2.097391,0 -4.191218,0.281871 -6.217142,0.824716 -12.803224,3.430604 -20.401203,16.590691 -16.9706,29.393877 l -3.863703,1.035276 z"
       id="path3692"
       inkscape:transform-center-x="13.51745"
       inkscape:transform-center-y="-5.551574"
       inkscape:connector-curvature="0" />
    <circle
       transform="matrix(0.05555555,0,0,0.05555555,-44.666666,52.444445)"
       id="path3698"
       style="color:#000000;display:inline;overflow:visible;visibility:visible;opacity:0.4;fill:#ff0000;fill-opacity:1;fill-rule:nonzero;stroke:none;stroke-width:1;marker:none;enable-background:accumulate"
       cx="48"
       cy="64"
       r="18" />
    <path
       style="color:#000000;display:inline;overflow:visible;visibility:visible;opacity:0.44672134;fill:#ff00ff;fill-opacity:1;fill-rule:nonzero;stroke:none;stroke-width:1;marker:none;enable-background:accumulate"
       d="m -22,48 -8,8 h 4 c 0,2.918394 -0.791337,5.644372 -2.15625,8 -0.01903,0.03284 -0.04324,0.06106 -0.0625,0.09375 -0.233068,0.397238 -0.457735,0.786832 -0.71875,1.15625 -0.02987,0.04228 -0.06353,0.08309 -0.09375,0.125 -0.05179,0.07145 -0.103317,0.148195 -0.15625,0.21875 -0.269062,0.360269 -0.580829,0.699488 -0.875,1.03125 -0.332652,0.37516 -0.66938,0.72456 -1.03125,1.0625 -0.0216,0.02017 -0.0408,0.04246 -0.0625,0.0625 -0.03265,0.03013 -0.06085,0.06389 -0.09375,0.09375 -0.326858,0.296767 -0.652519,0.577382 -1,0.84375 -0.02974,0.0228 -0.06387,0.03993 -0.09375,0.0625 -0.04085,0.03099 -0.08385,0.06314 -0.125,0.09375 -0.344761,0.255125 -0.700406,0.493548 -1.0625,0.71875 -0.0318,0.01978 -0.06182,0.04295 -0.09375,0.0625 -0.05994,0.03697 -0.127035,0.05756 -0.1875,0.09375 -0.344089,0.204563 -0.705321,0.41621 -1.0625,0.59375 -0.04099,0.02037 -0.08385,0.04249 -0.125,0.0625 -0.02909,0.01421 -0.06456,0.01721 -0.09375,0.03125 -0.432854,0.207228 -0.863902,0.39529 -1.3125,0.5625 -0.479549,0.178747 -0.974742,0.33667 -1.46875,0.46875 -0.452654,0.121023 -0.913142,0.231438 -1.375,0.3125 -0.04219,0.0074 -0.08274,0.02418 -0.125,0.03125 -0.330421,0.0548 -0.663068,0.09078 -1,0.125 -0.465707,0.0473 -0.929604,0.08727 -1.40625,0.09375 -0.07386,0.001 -0.144651,0 -0.21875,0 -0.144107,6.6e-5 -0.293221,0.0038 -0.4375,0 -0.08255,-0.0021 -0.167446,-0.02798 -0.25,-0.03125 -0.431221,-0.01835 -0.850336,-0.04 -1.28125,-0.09375 C -46.030143,71.617879 -48.08683,70.948319 -50,69.84375 l -4,6.9375 c 1.862125,1.075098 3.798924,1.873936 5.78125,2.40625 0.166283,0.04456 0.332818,0.08412 0.5,0.125 0.143944,0.03535 0.293237,0.06116 0.4375,0.09375 0.197711,0.04438 0.394994,0.08571 0.59375,0.125 0.363838,0.07253 0.728617,0.132259 1.09375,0.1875 0.207491,0.03117 0.416759,0.06802 0.625,0.09375 0.146347,0.01808 0.290839,0.0471 0.4375,0.0625 0.323398,0.03407 0.64521,0.0417 0.96875,0.0625 0.523354,0.03364 1.040144,0.06323 1.5625,0.0625 0.167076,-2.33e-4 0.333141,0.0037 0.5,0 0.144443,-0.0029 0.293695,-0.02578 0.4375,-0.03125 0.103837,-0.0042 0.208784,0.0056 0.3125,0 0.136354,-0.0069 0.270506,-0.02207 0.40625,-0.03125 0.269897,-0.01904 0.543706,-0.0344 0.8125,-0.0625 0.116161,-0.0118 0.228085,-0.0178 0.34375,-0.03125 0.278049,-0.03308 0.567254,-0.08229 0.84375,-0.125 0.104833,-0.01602 0.208118,-0.04513 0.3125,-0.0625 0.293788,-0.0493 0.583396,-0.09614 0.875,-0.15625 0.08504,-0.0174 0.16529,-0.0442 0.25,-0.0625 0.30122,-0.06546 0.60782,-0.110565 0.90625,-0.1875 0.244882,-0.06301 0.476958,-0.148275 0.71875,-0.21875 0.136619,-0.0398 0.270343,-0.08278 0.40625,-0.125 0.06263,-0.01948 0.125095,-0.04252 0.1875,-0.0625 0.312515,-0.0999 0.629161,-0.199874 0.9375,-0.3125 0.053,-0.01941 0.103424,-0.04273 0.15625,-0.0625 0.315899,-0.117881 0.62654,-0.212592 0.9375,-0.34375 0.0427,-0.01806 0.08242,-0.0442 0.125,-0.0625 0.311395,-0.133496 0.631615,-0.29077 0.9375,-0.4375 0.04213,-0.0203 0.08301,-0.04196 0.125,-0.0625 0.304591,-0.148258 0.607681,-0.307444 0.90625,-0.46875 0.04137,-0.02248 0.08378,-0.03979 0.125,-0.0625 0.297303,-0.162861 0.584232,-0.324268 0.875,-0.5 0.03975,-0.02415 0.0854,-0.03812 0.125,-0.0625 0.285959,-0.175137 0.564665,-0.37497 0.84375,-0.5625 0.04197,-0.02836 0.08322,-0.06514 0.125,-0.09375 0.182273,-0.124205 0.35212,-0.245518 0.53125,-0.375 0.130891,-0.09478 0.277366,-0.183909 0.40625,-0.28125 0.265392,-0.200512 0.554775,-0.412729 0.8125,-0.625 0.04552,-0.03757 0.07976,-0.0871 0.125,-0.125 0.04593,-0.03839 0.07933,-0.08624 0.125,-0.125 0.496302,-0.421214 0.973205,-0.847513 1.4375,-1.3125 0.05212,-0.05212 0.104605,-0.10365 0.15625,-0.15625 0.21562,-0.219964 0.41698,-0.458097 0.625,-0.6875 0.05951,-0.06547 0.128709,-0.121369 0.1875,-0.1875 0.704715,-0.794731 1.362623,-1.628364 1.96875,-2.53125 0.07621,-0.112811 0.144415,-0.229584 0.21875,-0.34375 0.132764,-0.20521 0.278911,-0.414493 0.40625,-0.625 0.08803,-0.144875 0.164974,-0.290634 0.25,-0.4375 C -19.174112,64.468282 -18,60.374439 -18,56 h 4 z"
       id="path3704"
       inkscape:connector-curvature="0" />
    <path
       style="color:#000000;display:inline;overflow:visible;visibility:visible;opacity:0.4;fill:#000000;fill-opacity:1;fill-rule:nonzero;stroke:none;stroke-width:1;marker:none;enable-background:accumulate"
       d="M 158,49 151.3125,55.6875 151,56 h 2.875 c -1.52168,6.954377 -9.59454,12.695509 -18.25,12.90625 l -1.21875,6.65625 C 147.52364,75.243121 159.74516,66.537623 162.0625,56 H 165 Z"
       id="path3708"
       inkscape:connector-curvature="0" />
    <path
       style="color:#000000;display:inline;overflow:visible;visibility:visible;opacity:0.4;fill:#000000;fill-opacity:1;fill-rule:nonzero;stroke:none;stroke-width:1;marker:none;enable-background:accumulate"
       d="m 135.1875,37.25 c -2.12371,0.49224 -4.19962,1.194307 -6.1875,2.09375 -12.56275,5.684191 -18.72056,17.743005 -13.75,26.9375 l 1.9375,-0.875 L 112,68 l 11,3 3,-10 -3.09375,1.5625 c -3.07046,-6.034785 0.96879,-13.826719 9.15625,-17.53125 1.31087,-0.593121 2.69331,-1.081652 4.09375,-1.40625 z"
       id="path3710"
       inkscape:connector-curvature="0" />
    <path
       sodipodi:nodetypes="ccscccsscccc"
       id="path3759"
       d="m 124.15625,10 v 39.4375 c 1.32164,0.825929 2.40284,1.914151 3.125,3.25 0.26664,0.493237 0.56622,1.01271 0.71875,1.53125 V 21.1875 c 3.72681,2.658135 12.67074,12.968337 8.34375,25.125 2.39632,-6.237329 2.61464,-12.926833 1.71875,-16.53125 -1.0841,-4.361655 -4.74543,-8.856964 -8.53125,-12.90625 -3.97703,-4.253811 -5.375,-6.875 -5.375,-6.875 z m 11.75,37.40625 c -0.40183,0.933587 -0.8668,1.858794 -1.375,2.75 0.53876,-0.921986 0.99568,-1.843815 1.375,-2.75 z"
       style="fill:#1a1a1a;fill-opacity:1;stroke:none"
       inkscape:connector-curvature="0" />
    <ellipse
       style="color:#000000;display:inline;overflow:visible;visibility:visible;fill:url(#radialGradient3763);fill-opacity:1;fill-rule:nonzero;stroke:none;stroke-width:1;marker:none;enable-background:accumulate"
       id="path3761"
       transform="matrix(0.92961385,-0.42061661,0.45976226,0.8504635,42.554285,23.45163)"
       cx="50"
       cy="63"
       rx="10"
       ry="8" />
    <g
       id="g907">
      <path
         id="rect4377"
         d="M 12,86 C 8.676,86 6,83.324 6,80 V 12 C 6,8.676 8.676,6 12,6 h 72 c 3.324,0 6,2.676 6,6 v 68 c 0,3.324 -2.676,6 -6,6 z m 0,-0.96875 h 72 c 2.8049,0 5.0312,-2.2264 5.0312,-5.0312 v -68 c 0,-2.8049 -2.226,-5.0312 -5.031,-5.0312 h -72 c -2.8049,0 -5.0312,2.2263 -5.0312,5.0312 v 68 c 0,2.8049 2.2264,5.0312 5.0312,5.0312 z"
         style="opacity:0.3;fill:url(#linearGradient4390)"
         inkscape:connector-curvature="0" />
      <path
         id="rect4414"
         d="m 6,78 v 2 c 0,3.324 2.676,6 6,6 h 72 c 3.324,0 6,-2.676 6,-6 v -2 c 0,3.324 -2.676,6 -6,6 H 12 C 8.676,84 6,81.324 6,78 Z"
         style="opacity:0.1;fill:url(#linearGradient4429)"
         inkscape:connector-curvature="0" />
      <g
         id="layer4-3">
        <path
           style="fill:url(#linearGradient3228)"
           inkscape:connector-curvature="0"
           d="m 6,80 v 4 c 0,3.324 2.676,6 6,6 h 72 c 3.324,0 6,-2.676 6,-6 v -4 c 0,3.324 -2.676,6 -6,6 H 12 C 8.676,86 6,83.324 6,80 Z"
           id="path3888" />
        <path
           style="color:#000000;opacity:0.1"
           inkscape:connector-curvature="0"
           d="m 6,82 v 2 c 0,3.324 2.676,6 6,6 h 72 c 3.324,0 6,-2.676 6,-6 v -2 c 0,3.324 -2.676,6 -6,6 H 12 C 8.676,88 6,85.324 6,82 Z"
           id="rect4345" />
        <path
           style="color:#000000;opacity:0.15"
           inkscape:connector-curvature="0"
           d="m 6,83 v 1 c 0,3.324 2.676,6 6,6 h 72 c 3.324,0 6,-2.676 6,-6 v -1 c 0,3.324 -2.676,6 -6,6 H 12 C 8.676,89 6,86.324 6,83 Z"
           id="rect4336" />
      </g>
    </g>
  </g>
  <g
     inkscape:groupmode="layer"
     id="layer5"
     inkscape:label="Highlight"
     sodipodi:insensitive="true">
    <rect
       style="opacity:0.1;fill:url(#linearGradient3613);fill-opacity:1;fill-rule:nonzero;stroke:#ffffff;stroke-width:0.5;stroke-linecap:round;stroke-linejoin:miter;stroke-miterlimit:4;stroke-opacity:1;stroke-dasharray:none;stroke-dashoffset:0;filter:url(#filter3794)"
       id="rect3171"
       width="66"
       height="66"
       x="15"
       y="15"
       rx="12"
       ry="12"
       clip-path="url(#clipPath3613)" />
  </g>
  <g
     inkscape:groupmode="layer"
     id="layer4"
     inkscape:label="Symbol">
    <path
       d="M 47.96875,27.9375 C 36.290325,27.769845 25.110128,35.409833 21.0625,46.375 c -0.0033,0.0089 0.0033,0.02235 0,0.03125 -1.842009,4.759096 -2.324316,9.994972 -1.53125,15.03125 -0.454949,0.112608 -0.851955,0.225452 -1.4375,0.375 -0.890247,0.227368 -1.966467,0.616614 -2.65625,1.625 A 1.0931642,1.0931642 0 0 0 15.40625,63.5 c -0.606453,1.036241 -0.453022,2.268877 0.0625,3.09375 0.486044,0.777706 1.222967,1.300662 1.96875,1.65625 l -0.03125,0.03125 c 3.564821,2.253915 7.092785,4.685869 10.78125,6.875 a 1.0931642,1.0931642 0 0 0 0.25,0.09375 c 1.018408,0.318461 2.041077,0.04822 2.75,-0.5 0.658278,-0.509054 1.057392,-1.228462 1.3125,-1.96875 l 0.03125,0.03125 c 1.899074,-3.84064 4.02468,-7.663098 5.84375,-11.625 a 1.0931642,1.0931642 0 0 0 0.0625,-0.21875 c 0.281038,-1.270613 -0.339089,-2.470498 -1.25,-3.09375 -0.902895,-0.617767 -2.150719,-0.799485 -3.25,-0.25 -0.0098,0.0049 -0.02151,-0.005 -0.03125,0 -0.587562,0.254045 -0.831085,0.196645 -0.78125,0.25 -0.01167,-0.132298 -0.01836,-0.337777 0.0625,-0.71875 a 1.0931642,1.0931642 0 0 0 0.03125,-0.25 c -0.15976,-6.821577 5.143479,-13.379842 11.875,-14.5625 A 1.0931642,1.0931642 0 0 0 45.3125,42.3125 c 0.3918,-0.155097 1.300261,-0.127111 2.34375,-0.1875 0.521745,-0.03019 1.112794,-0.110828 1.6875,-0.375 0.574706,-0.264172 1.119907,-0.761176 1.4375,-1.4375 a 1.0931642,1.0931642 0 0 0 0.0625,-0.1875 c 0.541521,-1.932447 0.110187,-3.745546 0.21875,-5.15625 a 1.0931642,1.0931642 0 0 0 0,-0.1875 c -0.114222,-1.342049 0.347801,-3.142101 -0.28125,-5.0625 a 1.0931642,1.0931642 0 0 0 -0.0625,-0.15625 c -0.525761,-0.997509 -1.550516,-1.632699 -2.6875,-1.625 -0.02096,1.42e-4 -0.04147,-5.74e-4 -0.0625,0 z m 21.5625,16 A 1.0931642,1.0931642 0 0 0 69.375,44 c -1.069067,0.335044 -1.806882,1.055677 -2.375,1.71875 -0.568118,0.663073 -1.020611,1.290286 -1.46875,1.6875 A 1.0931642,1.0931642 0 0 0 65.4375,47.5 c -2.285604,2.613163 -4.809155,5.148042 -7.0625,7.9375 A 1.0931642,1.0931642 0 0 0 58.25,55.625 c -1.19554,2.241167 0.933539,4.846753 3.34375,4.40625 l 0,0.03125 c 0.531856,-0.05097 0.758479,-0.03895 0.96875,-0.03125 -0.0352,0.09869 -0.0074,0.05958 -0.09375,0.21875 A 1.0931642,1.0931642 0 0 0 62.375,60.5625 c -1.485849,6.790325 -8.405624,11.961142 -15.34375,11.34375 a 1.0931642,1.0931642 0 0 0 -0.0625,0 c -2.42353,-0.0652 -4.775924,-1.067522 -7.125,-2.21875 a 1.0931642,1.0931642 0 0 0 -0.25,-0.09375 c -1.208852,-0.247262 -2.293205,0.35854 -2.90625,1.0625 -0.613045,0.70396 -0.985872,1.486402 -1.28125,2.03125 -1.031491,1.916017 -2.363235,3.849849 -3.34375,6.03125 A 1.0931642,1.0931642 0 0 0 32,78.96875 c -0.125716,0.709897 -0.02335,1.416762 0.28125,1.96875 0.304603,0.551988 0.742118,0.939969 1.1875,1.25 0.890764,0.620061 1.907987,0.958607 2.5,1.25 a 1.0931642,1.0931642 0 0 0 0,0.03125 c 10.8178,5.071544 24.530216,2.547136 32.71875,-6.21875 0.0056,-0.0058 -0.0056,-0.02544 0,-0.03125 4.483843,-4.628037 7.295224,-10.752635 7.96875,-17.15625 0.443524,0.01148 0.850872,0.01704 1.40625,0.03125 0.876162,0.02242 1.929771,-0.03659 2.875,-0.6875 a 1.0931642,1.0931642 0 0 0 0.09375,-0.09375 c 0.898615,-0.774927 1.147174,-1.940292 0.9375,-2.90625 -0.194894,-0.89787 -0.721028,-1.652336 -1.40625,-2.21875 l 0.03125,-0.03125 c -2.877819,-3.13 -5.68073,-6.42956 -8.6875,-9.53125 A 1.0931642,1.0931642 0 0 0 71.78125,44.5 C 71.06004,43.944437 70.229858,43.911372 69.625,43.9375 a 1.0931642,1.0931642 0 0 0 -0.09375,0 z"
       id="path4067"
       style="opacity:0.05;color:#000000;fill:#000000;fill-opacity:1;fill-rule:nonzero;stroke:none;stroke-width:1;marker:none;visibility:visible;display:inline;overflow:visible;enable-background:accumulate"
       inkscape:original="M 48 29.03125 C 36.781718 28.843464 25.970191 36.244639 22.09375 46.78125 C 20.193898 51.674444 19.715119 57.098395 20.71875 62.25 C 19.281702 62.85333 17.300203 62.664273 16.34375 64.0625 C 15.534226 65.445726 16.775954 66.801457 18 67.34375 C 21.591693 69.614655 25.106765 72.056463 28.75 74.21875 C 30.092876 74.638673 31.199866 73.513934 31.5625 72.3125 C 33.476192 68.442297 35.578562 64.631361 37.375 60.71875 C 37.737243 59.080999 35.824592 57.866108 34.40625 58.59375 C 32.72269 59.378166 31.670283 59.079932 32.125 56.9375 C 31.951828 49.543264 37.603999 42.564179 44.90625 41.28125 C 46.44669 40.671453 48.91716 41.683858 49.78125 39.84375 C 50.221604 38.272322 49.84273 36.512548 49.96875 34.875 C 49.833 33.280008 50.248301 31.583739 49.75 30.0625 C 49.417677 29.431994 48.714525 29.011757 48 29.03125 z M 69.6875 45.03125 C 68.13922 45.516479 67.415559 47.185641 66.25 48.21875 C 63.933751 50.86695 61.424656 53.394268 59.21875 56.125 C 58.437756 57.589056 59.921039 59.348819 61.5 58.96875 C 63.018444 58.823228 64.5286 58.769936 63.4375 60.78125 C 61.827407 68.139367 54.467211 73.670034 46.9375 73 C 44.233731 72.92726 41.74856 71.819477 39.375 70.65625 C 37.742621 70.322359 37.012033 72.043691 36.375 73.21875 C 35.303321 75.209418 33.986587 77.100387 33.0625 79.15625 C 32.714773 81.119804 35.067739 81.794544 36.4375 82.46875 C 46.811841 87.332394 60.067197 84.906892 67.90625 76.5 C 72.457236 71.810766 75.27622 65.488229 75.71875 58.96875 C 77.232778 58.781685 78.98682 59.412894 80.3125 58.5 C 81.514119 57.463775 80.891067 55.739702 79.78125 54.90625 C 76.881383 51.75227 74.095441 48.439215 71.125 45.375 C 70.709631 45.055033 70.195102 45.009323 69.6875 45.03125 z "
       inkscape:radius="1.0930549"
       sodipodi:type="inkscape:offset"
       transform="translate(0,-90)" />
    <path
       id="path4069"
       d="m 48,-60.96875 c -11.218282,-0.187786 -22.029747,7.207835 -25.906188,17.744446 -1.899852,4.893194 -2.378693,10.322699 -1.375062,15.474304 -1.437048,0.60333 -3.418547,0.414273 -4.375,1.8125 -0.809524,1.383226 0.438539,2.735013 1.662585,3.277306 3.591693,2.270905 7.10043,4.716657 10.743665,6.878944 1.342876,0.419923 2.447506,-0.714605 2.81014,-1.916039 1.913692,-3.870203 4.018422,-7.67135 5.81486,-11.583961 0.362243,-1.637751 -1.547605,-2.847424 -2.965947,-2.119782 -1.68356,0.784416 -2.738443,0.489515 -2.283726,-1.652917 -0.173172,-7.394236 5.475306,-14.374515 12.777557,-15.657444 1.54044,-0.609797 4.014276,0.395251 4.878366,-1.444857 0.440354,-1.571428 0.06148,-3.317935 0.1875,-4.955483 C 49.833,-56.706725 50.248301,-58.416261 49.75,-59.9375 49.417677,-60.568006 48.714525,-60.988243 48,-60.96875 z m 21.6875,16 c -1.54828,0.485229 -2.286823,2.166426 -3.452382,3.199535 -2.316249,2.6482 -4.810462,5.163483 -7.016368,7.894215 -0.780994,1.464056 0.716256,3.223819 2.295217,2.84375 1.518444,-0.145522 3.027051,-0.189192 1.935951,1.822122 -1.610093,7.358117 -8.973661,12.876733 -16.503372,12.206699 -2.703769,-0.07274 -5.197986,-1.178094 -7.571546,-2.341321 -1.632379,-0.333891 -2.366792,1.395051 -3.003825,2.57011 -1.071679,1.990668 -2.384588,3.874027 -3.308675,5.92989 -0.347727,1.963554 2.018724,2.646286 3.388485,3.320492 10.374341,4.863644 23.619789,2.429927 31.458842,-5.976965 4.550986,-4.689234 7.366393,-11.011548 7.808923,-17.531027 1.514028,-0.187065 3.26807,0.444144 4.59375,-0.46875 1.201619,-1.036225 0.578416,-2.774355 -0.531401,-3.607807 -2.899867,-3.15398 -5.685658,-6.452978 -8.656099,-9.517193 -0.415369,-0.319967 -0.929898,-0.365677 -1.4375,-0.34375 z"
       style="opacity:0.1;color:#000000;fill:#000000;fill-opacity:1;fill-rule:nonzero;stroke:none;stroke-width:1;marker:none;visibility:visible;display:inline;overflow:visible;enable-background:accumulate" />
    <path
       d="m 48,29.9375 c -2.347894,0.0036 -4.702921,0.290751 -7,0.90625 C 26.932623,34.613091 18.509769,48.855135 21.6875,62.9375 L 17.78125,64 A 1.0555079,1.0555079 0 0 0 17.5,65.90625 l 11.28125,7.3125 a 1.0555079,1.0555079 0 0 0 1.5,-0.40625 L 36.375,60.84375 a 1.0555079,1.0555079 0 0 0 -1.21875,-1.5 l -3.6875,0.96875 C 29.721192,51.611713 34.929573,42.986183 43.625,40.65625 45.066107,40.270107 46.529919,40.063699 48,40.0625 A 1.0555079,1.0555079 0 0 0 49.0625,39 l 0,-8 A 1.0555079,1.0555079 0 0 0 48,29.9375 z m 21.9375,16 a 1.0555079,1.0555079 0 0 0 -0.71875,0.34375 l -9,10 A 1.0555079,1.0555079 0 0 0 61,58.0625 l 3.84375,0 C 64.285266,66.925417 57.005833,73.9375 48,73.9375 c -2.975631,0 -5.893683,-0.763284 -8.46875,-2.25 a 1.0555079,1.0555079 0 0 0 -1.4375,0.375 l -4,6.9375 a 1.0555079,1.0555079 0 0 0 0.375,1.4375 c 4.114581,2.375555 8.784338,3.625 13.53125,3.625 14.564591,0 26.364247,-11.574679 26.9375,-26 l 4.0625,0 a 1.0555079,1.0555079 0 0 0 0.78125,-1.78125 l -9,-10 A 1.0555079,1.0555079 0 0 0 69.9375,45.9375 z"
       id="path4071"
       style="opacity:0.15;color:#000000;fill:#000000;fill-opacity:1;fill-rule:nonzero;stroke:none;stroke-width:1;marker:none;visibility:visible;display:inline;overflow:visible;enable-background:accumulate"
       inkscape:original="M 48 31 C 45.738406 31.0035 43.48547 31.284382 41.28125 31.875 C 27.411132 35.591486 19.158513 49.848632 22.875 63.71875 L 18.0625 65.03125 L 29.34375 72.34375 L 35.4375 60.375 L 30.625 61.65625 C 28.052048 52.05386 33.741361 42.197953 43.34375 39.625 C 44.869749 39.21611 46.43397 39.001277 48 39 L 48 31 z M 70 47 L 61 57 L 66 57 C 66 66.941125 57.941125 75 48 75 C 44.84034 75 41.736346 74.17358 39 72.59375 L 35 79.53125 C 38.952499 81.813227 43.436047 83 48 83 C 62.359403 83 74 71.359403 74 57 L 79 57 L 70 47 z "
       inkscape:radius="1.0554024"
       sodipodi:type="inkscape:offset"
       transform="translate(0,-90)" />
    <path
       style="opacity:0.3;color:#000000;fill:#000000;fill-opacity:1;fill-rule:nonzero;stroke:none;stroke-width:1;marker:none;visibility:visible;display:inline;overflow:visible;enable-background:accumulate"
       d="m 48,-59 c -2.261594,0.0035 -4.51453,0.284382 -6.71875,0.875 -13.870118,3.716486 -22.122737,17.973632 -18.40625,31.84375 l -4.8125,1.3125 11.28125,7.3125 6.09375,-11.96875 -4.8125,1.28125 C 28.052048,-37.94614 33.741361,-47.802047 43.34375,-50.375 44.869749,-50.78389 46.43397,-50.998723 48,-51 l 0,-8 z m 22,16 -9,10 5,0 c 0,9.941125 -8.058875,18 -18,18 -3.15966,0 -6.263654,-0.82642 -9,-2.40625 l -4,6.9375 C 38.952499,-8.186773 43.436047,-7 48,-7 62.359403,-7 74,-18.640597 74,-33 l 5,0 -9,-10 z"
       id="path4073" />
    <path
       id="path4075"
       d="m 48,-60 c -2.261594,0.0035 -4.51453,0.284382 -6.71875,0.875 -13.870118,3.716486 -22.122737,17.973632 -18.40625,31.84375 l -4.8125,1.3125 11.28125,7.3125 6.09375,-11.96875 -4.8125,1.28125 C 28.052048,-38.94614 33.741361,-48.802047 43.34375,-51.375 44.869749,-51.78389 46.43397,-51.998723 48,-52 l 0,-8 z m 22,16 -9,10 5,0 c 0,9.941125 -8.058875,18 -18,18 -3.15966,0 -6.263654,-0.82642 -9,-2.40625 l -4,6.9375 C 38.952499,-9.186773 43.436047,-8 48,-8 62.359403,-8 74,-19.640597 74,-34 l 5,0 -9,-10 z"
       style="color:#000000;fill:url(#linearGradient4081);fill-opacity:1;fill-rule:nonzero;stroke:none;stroke-width:1;marker:none;visibility:visible;display:inline;overflow:visible;enable-background:accumulate" />
    <path
       id="path4077"
       d="m 48,-60 c -2.261594,0.0035 -4.51453,0.284382 -6.71875,0.875 C 29.673484,-56.014709 22.015973,-45.532621 22,-34.0625 22.445761,-45.13775 30.011779,-55.105355 41.28125,-58.125 43.48547,-58.715618 45.738406,-58.9965 48,-59 l 0,-1 z m 22,16 -9,10 0.90625,0 L 70,-43 78.09375,-34 79,-34 70,-44 z m -4.0625,11 c -0.52128,9.473719 -8.333561,17 -17.9375,17 -3.15966,0 -6.263654,-0.82642 -9,-2.40625 l -4,6.9375 c 0.145898,0.08423 0.290178,0.168755 0.4375,0.25 L 39,-17.40625 C 41.736346,-15.82642 44.84034,-15 48,-15 c 9.941125,0 18,-8.058875 18,-18 l -0.0625,0 z m -35.90625,0.0625 c 0.0063,1.519299 0.181852,3.056525 0.59375,4.59375 l 4.21875,-1.125 0.59375,-1.15625 -4.8125,1.28125 c -0.321619,-1.200299 -0.521832,-2.400249 -0.59375,-3.59375 z m -7.375,5.71875 -4.59375,1.25 1.09375,0.71875 3.71875,-1.03125 c -0.08287,-0.309269 -0.147713,-0.627968 -0.21875,-0.9375 z"
       style="color:#000000;fill:#ffffff;fill-opacity:1;fill-rule:nonzero;stroke:none;stroke-width:1;marker:none;visibility:visible;display:inline;overflow:visible;enable-background:accumulate" />
    <path
       id="path4079"
       d="m 48,-53 c -1.56603,0.0013 -3.130251,0.21611 -4.65625,0.625 -8.138867,2.180803 -13.444249,9.600268 -13.3125,17.65625 0.302653,-7.66391 5.510559,-14.565726 13.3125,-16.65625 C 44.869749,-51.78389 46.43397,-51.998723 48,-52 l 0,-1 z M 61.90625,-35 61,-34 l 4.9375,0 C 65.955802,-34.332615 66,-34.662814 66,-35 l -4.09375,0 z M 74,-35 c 0,14.359403 -11.640597,26 -26,26 -4.395485,0 -8.718732,-1.098997 -12.5625,-3.21875 L 35,-11.46875 C 38.952499,-9.186773 43.436047,-8 48,-8 62.359403,-8 74,-19.640597 74,-34 l 5,0 -0.90625,-1 L 74,-35 z m -52,0.21875 c -0.06341,2.161911 0.151788,4.364395 0.65625,6.5625 l 0.21875,-0.0625 c -0.580701,-2.167206 -0.854498,-4.355582 -0.875,-6.5 z m 13.4375,4.15625 -0.59375,0.15625 -5.5,10.8125 -10.1875,-6.59375 -1.09375,0.28125 11.28125,7.3125 6.09375,-11.96875 z"
       style="opacity:0.15;color:#000000;fill:#000000;fill-opacity:1;fill-rule:nonzero;stroke:none;stroke-width:1;marker:none;visibility:visible;display:inline;overflow:visible;enable-background:accumulate" />
    <g
       id="g983"
       transform="matrix(0.89405942,0,0,0.89405942,4.6089666,3.059406)"
       style="stroke-width:1.11849391">
      <path
         d="m 47.974609,27.939453 c -11.694875,-0.176451 -22.864672,7.479373 -26.90625,18.464844 -1.845751,4.764003 -2.34228,9.991315 -1.546875,15.033203 -0.452096,0.111145 -0.862127,0.213381 -1.441406,0.361328 -0.890247,0.227368 -1.948888,0.638099 -2.638672,1.646484 a 1.0931642,1.0931642 0 0 0 -0.04101,0.06445 c -0.606453,1.03624 -0.433491,2.263017 0.08203,3.08789 0.515521,0.824873 1.278924,1.393752 2.074219,1.746094 l -0.140625,-0.07617 c 3.56482,2.253915 7.086926,4.701494 10.77539,6.890625 a 1.0931642,1.0931642 0 0 0 0.232422,0.103516 c 1.018409,0.31846 2.060609,0.02478 2.769531,-0.523438 0.708923,-0.548218 1.173058,-1.304436 1.416016,-2.109375 l -0.06641,0.167969 c 1.899074,-3.84064 4.007102,-7.659191 5.826172,-11.621094 a 1.0931642,1.0931642 0 0 0 0.07227,-0.220703 c 0.281039,-1.270613 -0.354714,-2.464639 -1.265625,-3.08789 -0.91091,-0.623252 -2.161039,-0.813774 -3.267578,-0.246094 l 0.03711,-0.01758 c -0.622807,0.290183 -0.835945,0.227171 -0.808593,0.27539 -0.01159,-0.132547 -0.02408,-0.334535 0.05664,-0.714844 a 1.0931642,1.0931642 0 0 0 0.02344,-0.251953 C 33.057036,50.090533 38.364183,43.54008 45.095703,42.357422 a 1.0931642,1.0931642 0 0 0 0.212891,-0.06055 c 0.391799,-0.155097 1.308073,-0.121252 2.351562,-0.181641 0.521745,-0.03019 1.093263,-0.09911 1.667969,-0.363281 0.574706,-0.264172 1.125767,-0.767036 1.443359,-1.443359 a 1.0931642,1.0931642 0 0 0 0.0625,-0.169922 c 0.541521,-1.932447 0.116047,-3.768983 0.22461,-5.179688 a 1.0931642,1.0931642 0 0 0 0,-0.175781 c -0.114222,-1.342049 0.359519,-3.140148 -0.269532,-5.060547 a 1.0931642,1.0931642 0 0 0 -0.07227,-0.169922 C 50.181955,28.537995 49.135192,27.90929 47.974609,27.939453 Z m 21.666016,16 a 1.0931642,1.0931642 0 0 0 -0.279297,0.04883 c -1.069066,0.335044 -1.797117,1.05763 -2.365234,1.720703 -0.568118,0.663074 -1.022565,1.294193 -1.470703,1.691407 A 1.0931642,1.0931642 0 0 0 65.427734,47.5 c -2.285603,2.613163 -4.805248,5.148042 -7.058593,7.9375 a 1.0931642,1.0931642 0 0 0 -0.115235,0.173828 c -1.222694,2.292069 1.025217,5.016093 3.501953,4.419922 l -0.152343,0.02539 c 0.525921,-0.0504 0.746396,-0.01998 0.960937,-0.01172 -0.03536,0.09693 -0.0058,0.0635 -0.08789,0.214844 a 1.0931642,1.0931642 0 0 0 -0.107421,0.287109 C 60.883291,67.3372 53.973282,72.529501 47.035156,71.912109 a 1.0931642,1.0931642 0 0 0 -0.06836,-0.0039 c -2.42353,-0.0652 -4.762252,-1.083147 -7.111328,-2.234375 a 1.0931642,1.0931642 0 0 0 -0.261719,-0.08789 c -1.208852,-0.247262 -2.30297,0.364399 -2.916016,1.068359 -0.613045,0.70396 -0.968294,1.49812 -1.263672,2.042969 a 1.0931642,1.0931642 0 0 0 -0.002,0.0039 c -1.03149,1.916017 -2.365188,3.826411 -3.345703,6.007812 a 1.0931642,1.0931642 0 0 0 -0.08008,0.25586 c -0.125716,0.709896 0.002,1.418715 0.306641,1.970703 0.304603,0.551988 0.744071,0.947782 1.189453,1.257812 0.890764,0.620062 1.880643,0.964467 2.472656,1.25586 a 1.0931642,1.0931642 0 0 0 0.01758,0.0098 C 46.795798,88.533033 60.514052,86.026403 68.701172,77.25 73.1888,72.621011 75.972806,66.477197 76.646484,60.070312 c 0.446624,0.01095 0.851031,0.01494 1.41211,0.0293 0.876162,0.02242 1.927818,-0.04831 2.873047,-0.699218 a 1.0931642,1.0931642 0 0 0 0.09375,-0.07227 c 0.898614,-0.774927 1.166705,-1.967636 0.957031,-2.933594 -0.209674,-0.965958 -0.779163,-1.78821 -1.544922,-2.363281 l 0.148438,0.134766 c -2.877819,-3.13 -5.669012,-6.451044 -8.675782,-9.552735 a 1.0931642,1.0931642 0 0 0 -0.117187,-0.103515 c -0.721211,-0.555563 -1.547486,-0.596441 -2.152344,-0.570313 z"
         id="path4134"
         style="color:#000000;display:inline;overflow:visible;visibility:visible;opacity:0.05;fill:#000000;fill-opacity:1;fill-rule:nonzero;stroke:none;stroke-width:1.11849391;marker:none;enable-background:accumulate"
         inkscape:original="M 48 29.03125 C 36.781718 28.843464 25.970191 36.244639 22.09375 46.78125 C 20.193898 51.674444 19.715119 57.098395 20.71875 62.25 C 19.281702 62.85333 17.300203 62.664273 16.34375 64.0625 C 15.534226 65.445726 16.775954 66.801457 18 67.34375 C 21.591693 69.614655 25.106765 72.056463 28.75 74.21875 C 30.092876 74.638673 31.199866 73.513934 31.5625 72.3125 C 33.476192 68.442297 35.578562 64.631361 37.375 60.71875 C 37.737243 59.080999 35.824592 57.866108 34.40625 58.59375 C 32.72269 59.378166 31.670283 59.079932 32.125 56.9375 C 31.951828 49.543264 37.603999 42.564179 44.90625 41.28125 C 46.44669 40.671453 48.91716 41.683858 49.78125 39.84375 C 50.221604 38.272322 49.84273 36.512548 49.96875 34.875 C 49.833 33.280008 50.248301 31.583739 49.75 30.0625 C 49.417677 29.431994 48.714525 29.011757 48 29.03125 z M 69.6875 45.03125 C 68.13922 45.516479 67.415559 47.185641 66.25 48.21875 C 63.933751 50.86695 61.424656 53.394268 59.21875 56.125 C 58.437756 57.589056 59.921039 59.348819 61.5 58.96875 C 63.018444 58.823228 64.5286 58.769936 63.4375 60.78125 C 61.827407 68.139367 54.467211 73.670034 46.9375 73 C 44.233731 72.92726 41.74856 71.819477 39.375 70.65625 C 37.742621 70.322359 37.012033 72.043691 36.375 73.21875 C 35.303321 75.209418 33.986587 77.100387 33.0625 79.15625 C 32.714773 81.119804 35.067739 81.794544 36.4375 82.46875 C 46.811841 87.332394 60.067197 84.906892 67.90625 76.5 C 72.457236 71.810766 75.27622 65.488229 75.71875 58.96875 C 77.232778 58.781685 78.98682 59.412894 80.3125 58.5 C 81.514119 57.463775 80.891067 55.739702 79.78125 54.90625 C 76.881383 51.75227 74.095441 48.439215 71.125 45.375 C 70.709631 45.055033 70.195102 45.009323 69.6875 45.03125 z "
         inkscape:radius="1.0930549"
         sodipodi:type="inkscape:offset" />
      <path
         id="path4136"
         d="M 48,29.03125 C 36.781718,28.843464 25.970253,36.239085 22.093812,46.775696 20.19396,51.66889 19.715119,57.098395 20.71875,62.25 c -1.437048,0.60333 -3.418547,0.414273 -4.375,1.8125 -0.809524,1.383226 0.438539,2.735013 1.662585,3.277306 3.591693,2.270905 7.10043,4.716657 10.743665,6.878944 1.342876,0.419923 2.447506,-0.714605 2.81014,-1.916039 1.913692,-3.870203 4.018422,-7.67135 5.81486,-11.583961 0.362243,-1.637751 -1.547605,-2.847424 -2.965947,-2.119782 -1.68356,0.784416 -2.738443,0.489515 -2.283726,-1.652917 -0.173172,-7.394236 5.475306,-14.374515 12.777557,-15.657444 1.54044,-0.609797 4.014276,0.395251 4.878366,-1.444857 0.440354,-1.571428 0.06148,-3.317935 0.1875,-4.955483 C 49.833,33.293275 50.248301,31.583739 49.75,30.0625 49.417677,29.431994 48.714525,29.011757 48,29.03125 Z m 21.6875,16 c -1.54828,0.485229 -2.286823,2.166426 -3.452382,3.199535 -2.316249,2.6482 -4.810462,5.163483 -7.016368,7.894215 -0.780994,1.464056 0.716256,3.223819 2.295217,2.84375 1.518444,-0.145522 3.027051,-0.189192 1.935951,1.822122 -1.610093,7.358117 -8.973661,12.876733 -16.503372,12.206699 -2.703769,-0.07274 -5.197986,-1.178094 -7.571546,-2.341321 -1.632379,-0.333891 -2.366792,1.395051 -3.003825,2.57011 -1.071679,1.990668 -2.384588,3.874027 -3.308675,5.92989 -0.347727,1.963554 2.018724,2.646286 3.388485,3.320492 10.374341,4.863644 23.619789,2.429927 31.458842,-5.976965 C 72.460813,71.810543 75.27622,65.488229 75.71875,58.96875 77.232778,58.781685 78.98682,59.412894 80.3125,58.5 81.514119,57.463775 80.890916,55.725645 79.781099,54.892193 76.881232,51.738213 74.095441,48.439215 71.125,45.375 70.709631,45.055033 70.195102,45.009323 69.6875,45.03125 Z"
         style="color:#000000;display:inline;overflow:visible;visibility:visible;opacity:0.1;fill:#000000;fill-opacity:1;fill-rule:nonzero;stroke:none;stroke-width:1.11849391;marker:none;enable-background:accumulate"
         inkscape:connector-curvature="0" />
      <path
         d="m 47.998047,29.945312 c -2.347894,0.0036 -4.693156,0.294657 -6.990235,0.910157 -14.073023,3.770854 -22.510672,18.005847 -19.322265,32.09375 l -3.900391,1.064453 a 1.0555079,1.0555079 0 0 0 -0.296875,1.902344 l 11.28125,7.3125 a 1.0555079,1.0555079 0 0 0 1.515625,-0.40625 l 6.09375,-11.96875 a 1.0555079,1.0555079 0 0 0 -1.21289,-1.498047 l -3.691407,0.982422 C 29.712331,51.628889 34.913664,42.976634 43.617188,40.644531 45.058294,40.258388 46.529919,40.055886 48,40.054688 A 1.0555079,1.0555079 0 0 0 49.054688,39 v -8 a 1.0555079,1.0555079 0 0 0 -1.056641,-1.054688 z m 22.041015,16 a 1.0555079,1.0555079 0 0 0 -0.824218,0.34961 l -9,10 A 1.0555079,1.0555079 0 0 0 61,58.054688 h 3.839844 C 64.286404,66.922483 57.009321,73.945312 48,73.945312 c -2.975631,0 -5.897589,-0.778909 -8.472656,-2.265624 a 1.0555079,1.0555079 0 0 0 -1.441406,0.386718 l -4,6.9375 a 1.0555079,1.0555079 0 0 0 0.386718,1.441406 c 4.114581,2.375556 8.780432,3.609375 13.527344,3.609376 14.568606,0 26.382053,-11.569111 26.949219,-26 H 79 a 1.0555079,1.0555079 0 0 0 0.785156,-1.759766 l -9,-10 a 1.0555079,1.0555079 0 0 0 -0.746094,-0.34961 z"
         id="path4138"
         style="color:#000000;display:inline;overflow:visible;visibility:visible;opacity:0.15;fill:#000000;fill-opacity:1;fill-rule:nonzero;stroke:none;stroke-width:1.11849391;marker:none;enable-background:accumulate"
         inkscape:original="M 48 31 C 45.738406 31.0035 43.48547 31.284382 41.28125 31.875 C 27.411132 35.591486 19.158513 49.848632 22.875 63.71875 L 18.0625 65.03125 L 29.34375 72.34375 L 35.4375 60.375 L 30.625 61.65625 C 28.052048 52.05386 33.741361 42.197953 43.34375 39.625 C 44.869749 39.21611 46.43397 39.001277 48 39 L 48 31 z M 70 47 L 61 57 L 66 57 C 66 66.941125 57.941125 75 48 75 C 44.84034 75 41.736346 74.17358 39 72.59375 L 35 79.53125 C 38.952499 81.813227 43.436047 83 48 83 C 62.359403 83 74 71.359403 74 57 L 79 57 L 70 47 z "
         inkscape:radius="1.0554024"
         sodipodi:type="inkscape:offset" />
      <path
         style="color:#000000;display:inline;overflow:visible;visibility:visible;opacity:0.3;fill:#000000;fill-opacity:1;fill-rule:nonzero;stroke:none;stroke-width:1.11849391;marker:none;enable-background:accumulate"
         d="m 48,31 c -2.261594,0.0035 -4.51453,0.284382 -6.71875,0.875 C 27.411132,35.591486 19.158513,49.848632 22.875,63.71875 l -4.8125,1.3125 11.28125,7.3125 L 35.4375,60.375 30.625,61.65625 C 28.052048,52.05386 33.741361,42.197953 43.34375,39.625 44.869749,39.21611 46.43397,39.001277 48,39 Z m 22,16 -9,10 h 5 c 0,9.941125 -8.058875,18 -18,18 -3.15966,0 -6.263654,-0.82642 -9,-2.40625 l -4,6.9375 C 38.952499,81.813227 43.436047,83 48,83 62.359403,83 74,71.359403 74,57 h 5 z"
         id="path4140"
         inkscape:connector-curvature="0" />
      <g
         id="g4056"
         style="stroke-width:1.11849391">
        <path
           style="opacity:0.1;fill:url(#linearGradient4097);fill-opacity:1;stroke:none;stroke-width:1.11849391"
           d="M 54.03125,10.03125 A 0.97501717,0.97501717 0 0 0 53.1875,11 v 37.59375 c -2.798229,-0.868688 -6.140446,-0.70235 -9.28125,0.71875 -2.750088,1.244315 -4.811564,3.180499 -5.9375,5.40625 -1.125936,2.225751 -1.273889,4.78574 -0.09375,6.96875 1.180435,2.183558 3.403486,3.549651 5.96875,4.0625 2.565264,0.512849 5.501762,0.180978 8.25,-1.0625 4.155182,-1.880069 6.693464,-5.394023 6.75,-8.96875 A 0.97501717,0.97501717 0 0 0 58.875,55.6875 c 1.15e-4,-0.01036 -7.1e-5,-0.02089 0,-0.03125 a 0.97501717,0.97501717 0 0 0 0.09375,-0.4375 V 24.4375 c 1.632103,1.525052 3.583049,3.698783 5.15625,6.78125 2.073221,4.062185 3.277278,9.137958 1.65625,14.6875 A 0.98338244,0.98338244 0 0 0 67.65625,46.5 C 69.728986,40.41816 69.91615,34.217177 69,30.53125 67.829782,25.8231 64.067488,21.301912 60.25,17.21875 c -3.918423,-4.19112 -5.21875,-6.6875 -5.21875,-6.6875 a 0.97501717,0.97501717 0 0 0 -1,-0.5 z"
           id="path3965"
           inkscape:connector-curvature="0" />
        <path
           style="opacity:0.3;fill:#000000;fill-opacity:1;stroke:none;stroke-width:1.11849391"
           d="m 54.15625,11 v 38.9375 c -2.702975,-1.283963 -6.422694,-1.297904 -9.84375,0.25 -5.134116,2.323001 -7.625107,7.273666 -5.59375,11.03125 2.031357,3.757584 7.834634,4.916751 12.96875,2.59375 4.107395,-1.858447 6.51324,-5.396065 6.28125,-8.65625 0.0068,0.02146 0.02494,0.04104 0.03125,0.0625 V 22.1875 c 3.610345,2.575068 12.124498,12.340523 8.71875,24 C 68.730729,40.283933 68.904859,34.170294 68.0625,30.78125 66.978404,26.419595 63.317066,21.924286 59.53125,17.875 55.554215,13.621189 54.15625,11 54.15625,11 Z"
           id="path3841"
           inkscape:connector-curvature="0" />
        <path
           style="fill:url(#linearGradient3805-6);fill-opacity:1;stroke:none;stroke-width:1.11849391"
           d="m 54.15625,10 v 39.4375 c 1.32164,0.825929 2.402837,1.914151 3.125,3.25 0.266645,0.493237 0.56622,1.01271 0.71875,1.53125 V 21.1875 c 3.726808,2.658135 12.670739,12.968337 8.34375,25.125 C 68.740074,40.075171 68.958391,33.385667 68.0625,29.78125 66.978404,25.419595 63.317066,20.924286 59.53125,16.875 55.554215,12.621189 54.15625,10 54.15625,10 Z"
           id="path3261"
           sodipodi:nodetypes="ccscccssc"
           inkscape:connector-curvature="0" />
        <ellipse
           transform="matrix(0.92961385,-0.42061661,0.45976226,0.8504635,-27.445715,23.45163)"
           id="path3688"
           style="color:#000000;display:inline;overflow:visible;visibility:visible;fill:url(#radialGradient3755-8);fill-opacity:1;fill-rule:nonzero;stroke:none;stroke-width:1.11849391;marker:none;enable-background:accumulate"
           cx="50"
           cy="63"
           rx="10"
           ry="8" />
        <path
           style="color:#000000;display:inline;overflow:visible;visibility:visible;fill:#1a1a1a;fill-opacity:1;fill-rule:nonzero;stroke:none;stroke-width:1.11849391;marker:none;enable-background:accumulate"
           d="m 49.1875,48 c -1.600312,0.07229 -3.270589,0.461562 -4.875,1.1875 -5.134116,2.323001 -7.625107,7.273666 -5.59375,11.03125 2.031357,3.757584 7.834634,4.916751 12.96875,2.59375 5.134116,-2.323001 7.625107,-7.273666 5.59375,-11.03125 C 55.884692,49.197911 52.708187,47.840967 49.1875,48 Z m 0.03125,0.9375 c 3.180144,-0.150057 5.997385,1.048537 7.1875,3.25 1.731077,3.202128 -0.441962,7.634066 -5.1875,9.78125 -4.745538,2.147184 -9.893923,1.045878 -11.625,-2.15625 -1.731077,-3.202128 0.441962,-7.634066 5.1875,-9.78125 1.482981,-0.670995 2.99198,-1.025542 4.4375,-1.09375 z"
           id="path3777"
           inkscape:connector-curvature="0" />
        <ellipse
           style="color:#000000;display:inline;overflow:visible;visibility:visible;opacity:0.8;fill:url(#linearGradient3775-9);fill-opacity:1;fill-rule:nonzero;stroke:none;stroke-width:1.11849391;marker:none;enable-background:accumulate"
           id="path3765"
           transform="matrix(0.59999998,-0.27147827,0.29674402,0.54891403,-1.991836,33.113184)"
           cx="50"
           cy="63"
           rx="10"
           ry="8" />
        <path
           style="color:#000000;display:inline;overflow:visible;visibility:visible;opacity:0.2;fill:#ffffff;fill-opacity:1;fill-rule:nonzero;stroke:none;stroke-width:1.11849391;marker:none;enable-background:accumulate"
           d="m 56.84375,54 c -0.202314,2.59571 -2.227104,5.354686 -5.65625,6.90625 -4.703432,2.128133 -9.801461,0.98569 -11.5,-2.15625 -0.297952,-0.551149 -0.461324,-1.141026 -0.53125,-1.75 -0.07518,0.964578 0.07107,1.898764 0.53125,2.75 1.698539,3.14194 6.796568,4.284383 11.5,2.15625 C 55.065872,60.151427 57.172453,56.862614 56.84375,54 Z"
           id="path3794"
           inkscape:connector-curvature="0" />
        <rect
           style="color:#000000;display:inline;overflow:visible;visibility:visible;opacity:0.2;fill:url(#radialGradient3817-3);fill-opacity:1;fill-rule:nonzero;stroke:none;stroke-width:1.11849391;marker:none;enable-background:accumulate"
           id="rect3809"
           width="1"
           height="26"
           x="56"
           y="23"
           rx="6.7109632"
           ry="6.7109632" />
        <path
           style="opacity:0.3;fill:url(#linearGradient3830-8);fill-opacity:1;stroke:none;stroke-width:1.11849391"
           d="m 56.25,13.40625 v 5.53125 c 0,0 2.385119,0.385119 3.375,1.375 2.069991,1.476415 5.278234,4.78816 7.53125,9.40625 0.463612,0.950282 0.863977,1.975534 1.21875,3.03125 C 68.30564,31.726603 68.181679,30.762194 68,30.03125 67.012092,26.056588 63.500442,21.636451 59.75,17.625 58.107584,15.868282 57.122539,14.570855 56.25,13.40625 Z"
           id="path3821"
           sodipodi:nodetypes="cccscssc"
           inkscape:connector-curvature="0" />
      </g>
      <path
         id="path4085"
         d="m 48,30 c -2.261594,0.0035 -4.51453,0.284382 -6.71875,0.875 C 27.411132,34.591486 19.158513,48.848632 22.875,62.71875 l -4.8125,1.3125 11.28125,7.3125 L 35.4375,59.375 30.625,60.65625 C 28.052048,51.05386 33.741361,41.197953 43.34375,38.625 44.869749,38.21611 46.43397,38.001277 48,38 Z"
         style="color:#000000;display:inline;overflow:visible;visibility:visible;fill:url(#linearGradient4113);fill-opacity:1;fill-rule:nonzero;stroke:none;stroke-width:1.11849391;marker:none;enable-background:accumulate"
         inkscape:connector-curvature="0" />
      <path
         id="path3732"
         d="m 70,46 -9,10 h 5 c 0,9.941125 -8.058875,18 -18,18 -3.15966,0 -6.263654,-0.82642 -9,-2.40625 l -4,6.9375 C 38.952499,80.813227 43.436047,82 48,82 62.359403,82 74,70.359403 74,56 h 5 z"
         style="color:#000000;display:inline;overflow:visible;visibility:visible;fill:url(#linearGradient4105);fill-opacity:1;fill-rule:nonzero;stroke:none;stroke-width:1.11849391;marker:none;enable-background:accumulate"
         inkscape:connector-curvature="0" />
      <path
         id="path4115"
         d="m 70,46 -9,10 h 5 c 0,9.941125 -8.058875,18 -18,18 -3.15966,0 -6.263654,-0.82642 -9,-2.40625 l -4,6.9375 C 38.952499,80.813227 43.436047,82 48,82 62.359403,82 74,70.359403 74,56 h 5 z m 0,0.96875 7.5625,8.375 H 74 A 0.64754476,0.64754476 0 0 0 73.34375,56 c 0,14.009479 -11.334271,25.34375 -25.34375,25.34375 -4.232826,0 -8.38267,-1.078547 -12.09375,-3.09375 l 3.375,-5.84375 c 2.693247,1.431629 5.662946,2.25 8.71875,2.25 10.291049,0 18.65625,-8.365201 18.65625,-18.65625 A 0.64754476,0.64754476 0 0 0 66,55.34375 h -3.5625 z"
         style="color:#000000;display:inline;overflow:visible;visibility:visible;opacity:0.6;fill:url(#linearGradient4128);fill-opacity:1;fill-rule:nonzero;stroke:none;stroke-width:1.11849391;marker:none;enable-background:accumulate"
         inkscape:connector-curvature="0" />
      <path
         id="path4142"
         d="m 48,30 c -2.261594,0.0035 -4.51453,0.284382 -6.71875,0.875 C 27.411132,34.591486 19.158513,48.848632 22.875,62.71875 l -4.8125,1.3125 11.28125,7.3125 L 35.4375,59.375 30.625,60.65625 C 28.052048,51.05386 33.741361,41.197953 43.34375,38.625 44.869749,38.21611 46.43397,38.001277 48,38 Z m -0.90625,1.03125 v 6.1875 C 45.75509,37.287247 44.426176,37.401351 43.125,37.75 33.05304,40.448774 27.051246,50.80311 29.75,60.875 a 0.90087177,0.90087177 0 0 0 1.09375,0.65625 l 2.875,-0.75 L 29,70.03125 20.25,64.375 23.125,63.59375 A 0.90087177,0.90087177 0 0 0 23.75,62.5 C 20.159737,49.100955 28.099903,35.340544 41.5,31.75 c 1.828389,-0.489915 3.715092,-0.650935 5.59375,-0.71875 z"
         style="color:#000000;display:inline;overflow:visible;visibility:visible;opacity:0.6;fill:url(#linearGradient4155);fill-opacity:1;fill-rule:nonzero;stroke:none;stroke-width:1.11849391;marker:none;enable-background:accumulate"
         inkscape:connector-curvature="0" />
    </g>
  </g>
</svg>
