<?xml version="1.0" encoding="UTF-8" standalone="no"?>
<!-- Created with Inkscape (http://www.inkscape.org/) -->

<svg
   xmlns:dc="http://purl.org/dc/elements/1.1/"
   xmlns:cc="http://creativecommons.org/ns#"
   xmlns:rdf="http://www.w3.org/1999/02/22-rdf-syntax-ns#"
   xmlns:svg="http://www.w3.org/2000/svg"
   xmlns="http://www.w3.org/2000/svg"
   xmlns:xlink="http://www.w3.org/1999/xlink"
   xmlns:sodipodi="http://sodipodi.sourceforge.net/DTD/sodipodi-0.dtd"
   xmlns:inkscape="http://www.inkscape.org/namespaces/inkscape"
   width="96"
   height="96"
   id="svg2408"
   sodipodi:version="0.32"
   inkscape:version="0.91 r13725"
   version="1.0"
   sodipodi:docname="start-here-xfce.svg"
   inkscape:output_extension="org.inkscape.output.svg.inkscape">
  <defs
     id="defs2410">
    <linearGradient
       id="linearGradient3919">
      <stop
         style="stop-color:#fafafa;stop-opacity:1;"
         offset="0"
         id="stop3921" />
      <stop
         style="stop-color:#f0f0f0;stop-opacity:1;"
         offset="1"
         id="stop3923" />
    </linearGradient>
    <linearGradient
       id="linearGradient3903">
      <stop
         style="stop-color:#1793d1;stop-opacity:1;"
         offset="0"
         id="stop3905" />
      <stop
         style="stop-color:#6dc4ef;stop-opacity:1;"
         offset="1"
         id="stop3907" />
    </linearGradient>
    <inkscape:perspective
       sodipodi:type="inkscape:persp3d"
       inkscape:vp_x="0 : 48 : 1"
       inkscape:vp_y="0 : 1000 : 0"
       inkscape:vp_z="96 : 48 : 1"
       inkscape:persp3d-origin="48 : 32 : 1"
       id="perspective48" />
    <linearGradient
       id="ButtonShadow"
       gradientTransform="scale(1.0058652,0.994169)"
       x1="45.447727"
       y1="92.539597"
       x2="45.447727"
       y2="7.0165396"
       gradientUnits="userSpaceOnUse">
      <stop
         style="stop-color:#000000;stop-opacity:1;"
         offset="0"
         id="stop3750" />
      <stop
         style="stop-color:#000000;stop-opacity:0.58823532;"
         offset="1"
         id="stop3752" />
    </linearGradient>
    <linearGradient
       inkscape:collect="always"
       id="linearGradient3737">
      <stop
         style="stop-color:#ffffff;stop-opacity:1;"
         offset="0"
         id="stop3739" />
      <stop
         style="stop-color:#ffffff;stop-opacity:0;"
         offset="1"
         id="stop3741" />
    </linearGradient>
    <linearGradient
       id="linearGradient3700">
      <stop
         style="stop-color:#2276c5;stop-opacity:1;"
         offset="0"
         id="stop3702" />
      <stop
         style="stop-color:#68baf4;stop-opacity:1;"
         offset="1"
         id="stop3704" />
    </linearGradient>
    <filter
       inkscape:collect="always"
       id="filter3174">
      <feGaussianBlur
         inkscape:collect="always"
         stdDeviation="1.71"
         id="feGaussianBlur3176" />
    </filter>
    <linearGradient
       inkscape:collect="always"
       xlink:href="#linearGradient3737"
       id="linearGradient3188"
       gradientUnits="userSpaceOnUse"
       x1="36.357143"
       y1="6"
       x2="36.357143"
       y2="63.893143" />
    <filter
       inkscape:collect="always"
       id="filter3794"
       x="-0.192"
       width="1.384"
       y="-0.192"
       height="1.384">
      <feGaussianBlur
         inkscape:collect="always"
         stdDeviation="5.28"
         id="feGaussianBlur3796" />
    </filter>
    <linearGradient
       inkscape:collect="always"
       xlink:href="#linearGradient3737"
       id="linearGradient3613"
       x1="48"
       y1="20.220806"
       x2="48"
       y2="138.66119"
       gradientUnits="userSpaceOnUse" />
    <radialGradient
       inkscape:collect="always"
       xlink:href="#linearGradient3737"
       id="radialGradient3619"
       cx="48"
       cy="90.171875"
       fx="48"
       fy="90.171875"
       r="42"
       gradientTransform="matrix(1.1573129,0,0,0.99590774,-7.5510206,0.19713193)"
       gradientUnits="userSpaceOnUse" />
    <clipPath
       clipPathUnits="userSpaceOnUse"
       id="clipPath3613">
      <rect
         ry="6"
         rx="6"
         y="6"
         x="6"
         height="84"
         width="84"
         id="rect3615"
         style="fill:#ffffff;fill-opacity:1;fill-rule:nonzero;stroke:none" />
    </clipPath>
    <linearGradient
       id="ButtonShadow-0"
       gradientTransform="matrix(1.0058652,0,0,0.994169,100,0)"
       x1="45.447727"
       y1="92.539597"
       x2="45.447727"
       y2="7.0165396"
       gradientUnits="userSpaceOnUse">
      <stop
         style="stop-color:#000000;stop-opacity:1;"
         offset="0"
         id="stop3750-8" />
      <stop
         style="stop-color:#000000;stop-opacity:0.58823532;"
         offset="1"
         id="stop3752-5" />
    </linearGradient>
    <linearGradient
       inkscape:collect="always"
       xlink:href="#ButtonShadow-0"
       id="linearGradient3780"
       gradientUnits="userSpaceOnUse"
       gradientTransform="matrix(1.0238095,0,0,1.0119048,-1.1428571,-98.071429)"
       x1="32.251034"
       y1="6.1317081"
       x2="32.251034"
       y2="90.238609" />
    <linearGradient
       inkscape:collect="always"
       xlink:href="#ButtonShadow-0"
       id="linearGradient3772"
       gradientUnits="userSpaceOnUse"
       gradientTransform="matrix(1.0238095,0,0,1.0119048,-1.1428571,-98.071429)"
       x1="32.251034"
       y1="6.1317081"
       x2="32.251034"
       y2="90.238609" />
    <linearGradient
       inkscape:collect="always"
       xlink:href="#ButtonShadow-0"
       id="linearGradient3725"
       gradientUnits="userSpaceOnUse"
       gradientTransform="matrix(1.0238095,0,0,1.0119048,-1.1428571,-98.071429)"
       x1="32.251034"
       y1="6.1317081"
       x2="32.251034"
       y2="90.238609" />
    <linearGradient
       inkscape:collect="always"
       xlink:href="#ButtonShadow-0"
       id="linearGradient3721"
       gradientUnits="userSpaceOnUse"
       gradientTransform="translate(0,-97)"
       x1="32.251034"
       y1="6.1317081"
       x2="32.251034"
       y2="90.238609" />
    <linearGradient
       y2="90.238609"
       x2="32.251034"
       y1="6.1317081"
       x1="32.251034"
       gradientTransform="matrix(1.0238095,0,0,1.0119048,-1.1428571,-98.071429)"
       gradientUnits="userSpaceOnUse"
       id="linearGradient3026"
       xlink:href="#ButtonShadow-0"
       inkscape:collect="always" />
    <linearGradient
       y2="183.9644"
       x2="490.72305"
       y1="237.72447"
       x1="490.72305"
       gradientTransform="matrix(0.749107,0,0,0.749107,-35.459862,91.44108)"
       gradientUnits="userSpaceOnUse"
       id="linearGradient4416"
       xlink:href="#linearGradient3388"
       inkscape:collect="always" />
    <linearGradient
       id="linearGradient3388">
      <stop
         id="stop3390"
         offset="0"
         style="stop-color:#000000;stop-opacity:0;" />
      <stop
         id="stop3392"
         offset="1"
         style="stop-color:#000000;stop-opacity:0.37113401;" />
    </linearGradient>
    <linearGradient
       y2="303.14029"
       x2="606.91248"
       y1="104.50665"
       x1="541.33502"
       gradientTransform="matrix(-0.3937741,0,0,0.393752,357.51969,122.00151)"
       gradientUnits="userSpaceOnUse"
       id="linearGradient2544"
       xlink:href="#path1082_2_"
       inkscape:collect="always" />
    <linearGradient
       gradientTransform="translate(287,-83)"
       x1="112.49854"
       y1="6.1372099"
       x2="112.49853"
       y2="129.3468"
       id="path1082_2_"
       gradientUnits="userSpaceOnUse">
      <stop
         style="stop-color:#ffffff;stop-opacity:0"
         offset="0"
         id="stop193" />
      <stop
         style="stop-color:#ffffff;stop-opacity:0.27450982;"
         offset="1"
         id="stop195" />
      <midPointStop
         offset="0"
         style="stop-color:#FFFFFF"
         id="midPointStop197" />
      <midPointStop
         offset="0.5"
         style="stop-color:#FFFFFF"
         id="midPointStop199" />
      <midPointStop
         offset="1"
         style="stop-color:#000000"
         id="midPointStop201" />
    </linearGradient>
    <linearGradient
       y2="303.14029"
       x2="606.91248"
       y1="104.50665"
       x1="541.33502"
       gradientTransform="matrix(-0.3444088,0,0,0.3443895,292.65265,0.3134079)"
       gradientUnits="userSpaceOnUse"
       id="linearGradient2197"
       xlink:href="#path1082_2_"
       inkscape:collect="always" />
    <inkscape:perspective
       id="perspective2999"
       inkscape:persp3d-origin="300 : 66.472305 : 1"
       inkscape:vp_z="600 : 99.708458 : 1"
       inkscape:vp_y="0 : 1000 : 0"
       inkscape:vp_x="0 : 99.708458 : 1"
       sodipodi:type="inkscape:persp3d" />
    <linearGradient
       inkscape:collect="always"
       xlink:href="#path1082_2_"
       id="linearGradient3057"
       gradientUnits="userSpaceOnUse"
       gradientTransform="matrix(-0.3444088,0,0,0.3443895,292.65265,0.3134079)"
       x1="541.33502"
       y1="104.50665"
       x2="606.91248"
       y2="303.14029" />
    <linearGradient
       inkscape:collect="always"
       xlink:href="#path1082_2_"
       id="linearGradient3060"
       gradientUnits="userSpaceOnUse"
       gradientTransform="matrix(-0.3444088,0,0,0.3443895,290.64701,5.9397236)"
       x1="541.33502"
       y1="104.50665"
       x2="606.91248"
       y2="303.14029" />
    <inkscape:perspective
       id="perspective3090"
       inkscape:persp3d-origin="0.5 : 0.33333333 : 1"
       inkscape:vp_z="1 : 0.5 : 1"
       inkscape:vp_y="0 : 1000 : 0"
       inkscape:vp_x="0 : 0.5 : 1"
       sodipodi:type="inkscape:persp3d" />
    <linearGradient
       gradientTransform="translate(287,-83)"
       x1="112.49854"
       y1="6.1372099"
       x2="112.49853"
       y2="129.3468"
       id="path1082_2_-8"
       gradientUnits="userSpaceOnUse">
      <stop
         style="stop-color:#ffffff;stop-opacity:0"
         offset="0"
         id="stop193-9" />
      <stop
         style="stop-color:#ffffff;stop-opacity:0.60465115;"
         offset="1"
         id="stop195-6" />
      <midPointStop
         offset="0"
         style="stop-color:#FFFFFF"
         id="midPointStop197-7" />
      <midPointStop
         offset="0.5"
         style="stop-color:#FFFFFF"
         id="midPointStop199-4" />
      <midPointStop
         offset="1"
         style="stop-color:#000000"
         id="midPointStop201-8" />
    </linearGradient>
    <linearGradient
       inkscape:collect="always"
       xlink:href="#linearGradient3903"
       id="linearGradient3909"
       x1="48"
       y1="90"
       x2="48"
       y2="5.9464455"
       gradientUnits="userSpaceOnUse" />
    <linearGradient
       inkscape:collect="always"
       xlink:href="#linearGradient3919"
       id="linearGradient4219"
       x1="45"
       y1="29"
       x2="45"
       y2="68"
       gradientUnits="userSpaceOnUse"
       gradientTransform="translate(2.4185458,-0.24678855)" />
  </defs>
  <sodipodi:namedview
     id="base"
     pagecolor="#ffffff"
     bordercolor="#666666"
     borderopacity="1.0"
     inkscape:pageopacity="0.0"
     inkscape:pageshadow="2"
     inkscape:zoom="4.4071465"
     inkscape:cx="15.171082"
     inkscape:cy="57.152627"
     inkscape:document-units="px"
     inkscape:current-layer="layer4"
     showgrid="true"
     showborder="true"
     inkscape:showpageshadow="false"
     inkscape:window-width="1366"
     inkscape:window-height="742"
     inkscape:window-x="0"
     inkscape:window-y="26"
     inkscape:window-maximized="1">
    <inkscape:grid
       type="xygrid"
       id="grid3732"
       visible="true"
       enabled="true" />
  </sodipodi:namedview>
  <metadata
     id="metadata2413">
    <rdf:RDF>
      <cc:Work
         rdf:about="">
        <dc:format>image/svg+xml</dc:format>
        <dc:type
           rdf:resource="http://purl.org/dc/dcmitype/StillImage" />
        <dc:title></dc:title>
      </cc:Work>
    </rdf:RDF>
  </metadata>
  <g
     inkscape:groupmode="layer"
     id="layer2"
     inkscape:label="Blur Shadow"
     style="display:none"
     sodipodi:insensitive="true">
    <rect
       style="opacity:0.9;fill:url(#ButtonShadow);fill-opacity:1;fill-rule:nonzero;stroke:none;filter:url(#filter3174)"
       id="rect3745"
       width="86"
       height="85"
       x="5"
       y="7"
       rx="6"
       ry="6" />
  </g>
  <g
     inkscape:groupmode="layer"
     id="layer3"
     inkscape:label="Shadow"
     sodipodi:insensitive="true">
    <path
       sodipodi:type="inkscape:offset"
       inkscape:radius="0.99097413"
       inkscape:original="M 12 -94.03125 C 7.028367 -94.03125 2.96875 -89.971633 2.96875 -85 L 2.96875 -14 C 2.96875 -9.0283671 7.0283671 -4.96875 12 -4.96875 L 84 -4.96875 C 88.971633 -4.96875 93.03125 -9.028367 93.03125 -14 L 93.03125 -85 C 93.03125 -89.971633 88.971633 -94.03125 84 -94.03125 L 12 -94.03125 z "
       style="opacity:0.07999998;fill:url(#linearGradient3026);fill-opacity:1;fill-rule:nonzero;stroke:none;display:inline"
       id="path3786"
       d="m 12,-95.03125 c -5.5110903,0 -10.03125,4.52016 -10.03125,10.03125 l 0,71 c 0,5.5110902 4.5201598,10.03125 10.03125,10.03125 l 72,0 c 5.51109,0 10.03125,-4.5201597 10.03125,-10.03125 l 0,-71 c 0,-5.51109 -4.52016,-10.03125 -10.03125,-10.03125 l -72,0 z"
       transform="scale(1,-1)" />
    <path
       sodipodi:type="inkscape:offset"
       inkscape:radius="1.0360184"
       inkscape:original="M 12 -93 C 7.5908667 -93 4 -89.409133 4 -85 L 4 -14 C 4 -9.5908667 7.5908667 -6 12 -6 L 84 -6 C 88.409133 -6 92 -9.5908667 92 -14 L 92 -85 C 92 -89.409133 88.409133 -93 84 -93 L 12 -93 z "
       style="opacity:0.1;fill:url(#linearGradient3780);fill-opacity:1;fill-rule:nonzero;stroke:none;display:inline"
       id="path3778"
       d="m 12,-94.03125 c -4.971633,0 -9.03125,4.059617 -9.03125,9.03125 l 0,71 c 0,4.9716329 4.0596171,9.03125 9.03125,9.03125 l 72,0 c 4.971633,0 9.03125,-4.059617 9.03125,-9.03125 l 0,-71 c 0,-4.971633 -4.059617,-9.03125 -9.03125,-9.03125 l -72,0 z"
       transform="scale(1,-1)" />
    <path
       sodipodi:type="inkscape:offset"
       inkscape:radius="0.98962283"
       inkscape:original="M 12 -92 C 8.122 -92 5 -88.878 5 -85 L 5 -14 C 5 -10.122 8.122 -7 12 -7 L 84 -7 C 87.878 -7 91 -10.122 91 -14 L 91 -85 C 91 -88.878 87.878 -92 84 -92 L 12 -92 z "
       style="opacity:0.2;fill:url(#linearGradient3772);fill-opacity:1;fill-rule:nonzero;stroke:none;display:inline"
       id="path3770"
       d="m 12,-93 c -4.4091333,0 -8,3.590867 -8,8 l 0,71 c 0,4.4091333 3.5908667,8 8,8 l 72,0 c 4.409133,0 8,-3.5908667 8,-8 l 0,-71 c 0,-4.409133 -3.590867,-8 -8,-8 l -72,0 z"
       transform="scale(1,-1)" />
    <rect
       style="opacity:0.3;fill:url(#linearGradient3725);fill-opacity:1;fill-rule:nonzero;stroke:none;display:inline"
       id="rect3723"
       width="86"
       height="85"
       x="5"
       y="-92"
       rx="7"
       ry="7"
       transform="scale(1,-1)" />
    <rect
       transform="scale(1,-1)"
       ry="6"
       rx="6"
       y="-91"
       x="6"
       height="84"
       width="84"
       id="rect3716"
       style="opacity:0.45;fill:url(#linearGradient3721);fill-opacity:1;fill-rule:nonzero;stroke:none;display:inline" />
  </g>
  <g
     inkscape:label="Button"
     inkscape:groupmode="layer"
     id="layer1">
    <rect
       style="fill:url(#linearGradient3909);fill-opacity:1;fill-rule:nonzero;stroke:none"
       id="rect2419"
       width="84"
       height="84"
       x="6"
       y="6"
       rx="6"
       ry="6" />
    <path
       style="opacity:0.4;fill:url(#linearGradient3188);fill-opacity:1;fill-rule:nonzero;stroke:none"
       d="M 12,6 C 8.676,6 6,8.676 6,12 l 0,2 0,68 0,2 c 0,0.334721 0.04135,0.6507 0.09375,0.96875 0.0487,0.295596 0.09704,0.596915 0.1875,0.875 0.00988,0.03038 0.020892,0.0636 0.03125,0.09375 0.098865,0.287771 0.2348802,0.547452 0.375,0.8125 0.1445918,0.273507 0.3156161,0.535615 0.5,0.78125 0.1843839,0.245635 0.3737765,0.473472 0.59375,0.6875 0.439947,0.428056 0.94291,0.814526 1.5,1.09375 0.278545,0.139612 0.5734731,0.246947 0.875,0.34375 -0.2562018,-0.100222 -0.4867109,-0.236272 -0.71875,-0.375 -0.00741,-0.0044 -0.023866,0.0045 -0.03125,0 -0.031933,-0.0193 -0.062293,-0.04251 -0.09375,-0.0625 -0.120395,-0.0767 -0.2310226,-0.163513 -0.34375,-0.25 -0.1061728,-0.0808 -0.2132809,-0.161112 -0.3125,-0.25 C 8.4783201,88.557317 8.3087904,88.373362 8.15625,88.1875 8.0486711,88.057245 7.9378561,87.922215 7.84375,87.78125 7.818661,87.74287 7.805304,87.69538 7.78125,87.65625 7.716487,87.553218 7.6510225,87.451733 7.59375,87.34375 7.4927417,87.149044 7.3880752,86.928049 7.3125,86.71875 7.30454,86.69694 7.288911,86.6782 7.28125,86.65625 7.2494249,86.5643 7.2454455,86.469419 7.21875,86.375 7.1884177,86.268382 7.1483606,86.171969 7.125,86.0625 7.0521214,85.720988 7,85.364295 7,85 L 7,83 7,15 7,13 C 7,10.218152 9.2181517,8 12,8 l 2,0 68,0 2,0 c 2.781848,0 5,2.218152 5,5 l 0,2 0,68 0,2 c 0,0.364295 -0.05212,0.720988 -0.125,1.0625 -0.04415,0.206893 -0.08838,0.397658 -0.15625,0.59375 -0.0077,0.02195 -0.0233,0.04069 -0.03125,0.0625 -0.06274,0.173739 -0.138383,0.367449 -0.21875,0.53125 -0.04158,0.0828 -0.07904,0.169954 -0.125,0.25 -0.0546,0.09721 -0.126774,0.18835 -0.1875,0.28125 -0.09411,0.140965 -0.204921,0.275995 -0.3125,0.40625 -0.143174,0.17445 -0.303141,0.346998 -0.46875,0.5 -0.01117,0.0102 -0.01998,0.02115 -0.03125,0.03125 -0.138386,0.125556 -0.285091,0.234436 -0.4375,0.34375 -0.102571,0.07315 -0.204318,0.153364 -0.3125,0.21875 -0.0074,0.0045 -0.02384,-0.0044 -0.03125,0 -0.232039,0.138728 -0.462548,0.274778 -0.71875,0.375 0.301527,-0.0968 0.596455,-0.204138 0.875,-0.34375 0.55709,-0.279224 1.060053,-0.665694 1.5,-1.09375 0.219973,-0.214028 0.409366,-0.441865 0.59375,-0.6875 0.184384,-0.245635 0.355408,-0.507743 0.5,-0.78125 0.14012,-0.265048 0.276135,-0.524729 0.375,-0.8125 0.01041,-0.03078 0.02133,-0.06274 0.03125,-0.09375 0.09046,-0.278085 0.1388,-0.579404 0.1875,-0.875 C 89.95865,84.6507 90,84.334721 90,84 l 0,-2 0,-68 0,-2 C 90,8.676 87.324,6 84,6 L 12,6 z"
       id="rect3728" />
    <path
       id="path3615"
       d="M 12,90 C 8.676,90 6,87.324 6,84 L 6,82 6,14 6,12 c 0,-0.334721 0.04135,-0.6507 0.09375,-0.96875 0.0487,-0.295596 0.09704,-0.596915 0.1875,-0.875 C 6.29113,10.12587 6.302142,10.09265 6.3125,10.0625 6.411365,9.774729 6.5473802,9.515048 6.6875,9.25 6.8320918,8.976493 7.0031161,8.714385 7.1875,8.46875 7.3718839,8.223115 7.5612765,7.995278 7.78125,7.78125 8.221197,7.353194 8.72416,6.966724 9.28125,6.6875 9.559795,6.547888 9.8547231,6.440553 10.15625,6.34375 9.9000482,6.443972 9.6695391,6.580022 9.4375,6.71875 c -0.00741,0.0044 -0.023866,-0.0045 -0.03125,0 -0.031933,0.0193 -0.062293,0.04251 -0.09375,0.0625 -0.120395,0.0767 -0.2310226,0.163513 -0.34375,0.25 -0.1061728,0.0808 -0.2132809,0.161112 -0.3125,0.25 C 8.4783201,7.442683 8.3087904,7.626638 8.15625,7.8125 8.0486711,7.942755 7.9378561,8.077785 7.84375,8.21875 7.818661,8.25713 7.805304,8.30462 7.78125,8.34375 7.716487,8.446782 7.6510225,8.548267 7.59375,8.65625 7.4927417,8.850956 7.3880752,9.071951 7.3125,9.28125 7.30454,9.30306 7.288911,9.3218 7.28125,9.34375 7.2494249,9.4357 7.2454455,9.530581 7.21875,9.625 7.1884177,9.731618 7.1483606,9.828031 7.125,9.9375 7.0521214,10.279012 7,10.635705 7,11 l 0,2 0,68 0,2 c 0,2.781848 2.2181517,5 5,5 l 2,0 68,0 2,0 c 2.781848,0 5,-2.218152 5,-5 l 0,-2 0,-68 0,-2 C 89,10.635705 88.94788,10.279012 88.875,9.9375 88.83085,9.730607 88.78662,9.539842 88.71875,9.34375 88.71105,9.3218 88.69545,9.30306 88.6875,9.28125 88.62476,9.107511 88.549117,8.913801 88.46875,8.75 88.42717,8.6672 88.38971,8.580046 88.34375,8.5 88.28915,8.40279 88.216976,8.31165 88.15625,8.21875 88.06214,8.077785 87.951329,7.942755 87.84375,7.8125 87.700576,7.63805 87.540609,7.465502 87.375,7.3125 87.36383,7.3023 87.35502,7.29135 87.34375,7.28125 87.205364,7.155694 87.058659,7.046814 86.90625,6.9375 86.803679,6.86435 86.701932,6.784136 86.59375,6.71875 c -0.0074,-0.0045 -0.02384,0.0044 -0.03125,0 -0.232039,-0.138728 -0.462548,-0.274778 -0.71875,-0.375 0.301527,0.0968 0.596455,0.204138 0.875,0.34375 0.55709,0.279224 1.060053,0.665694 1.5,1.09375 0.219973,0.214028 0.409366,0.441865 0.59375,0.6875 0.184384,0.245635 0.355408,0.507743 0.5,0.78125 0.14012,0.265048 0.276135,0.524729 0.375,0.8125 0.01041,0.03078 0.02133,0.06274 0.03125,0.09375 0.09046,0.278085 0.1388,0.579404 0.1875,0.875 C 89.95865,11.3493 90,11.665279 90,12 l 0,2 0,68 0,2 c 0,3.324 -2.676,6 -6,6 l -72,0 z"
       style="opacity:0.2;fill:url(#radialGradient3619);fill-opacity:1;fill-rule:nonzero;stroke:none" />
  </g>
  <g
     inkscape:groupmode="layer"
     id="layer5"
     inkscape:label="Highlight"
     sodipodi:insensitive="true">
    <rect
       style="opacity:0.1;fill:url(#linearGradient3613);fill-opacity:1;fill-rule:nonzero;stroke:#ffffff;stroke-width:0.5;stroke-linecap:round;stroke-linejoin:miter;stroke-miterlimit:4;stroke-opacity:1;stroke-dasharray:none;stroke-dashoffset:0;filter:url(#filter3794)"
       id="rect3171"
       width="66"
       height="66"
       x="15"
       y="15"
       rx="12"
       ry="12"
       clip-path="url(#clipPath3613)" />
  </g>
  <g
     inkscape:groupmode="layer"
     id="layer4"
     inkscape:label="Symbol">
    <path
       sodipodi:type="inkscape:offset"
       inkscape:radius="3"
       inkscape:original="M 15.425781 28.208984 C 15.28182 28.502836 15.138034 28.794362 15 29.087891 C 17.18843 30.357187 23.496201 33.663328 26.490234 35.623047 C 30.274029 38.041508 35.388379 42.975956 35.791016 43.806641 C 31.855407 50.960374 33.640794 57.28963 33.175781 57.962891 C 32.841461 58.527243 29.74811 62.072908 30.744141 62.597656 C 31.732416 63.113394 33.303691 62.302946 33.541016 62.144531 C 34.03517 61.827802 34.546055 61.365702 34.332031 62.277344 C 33.913784 64.141288 32.014294 68.623682 34.634766 67.671875 C 34.953806 67.480986 39.171744 62.627603 39.681641 62.460938 C 48.072326 64.745175 57.45608 63.698347 59.193359 62.849609 C 60.097971 62.912579 62.657797 64.592525 64.117188 65.394531 C 65.576217 66.188418 69.55222 68.178673 68.375 64.5625 C 68.00929 63.419375 65.396192 60.501305 65.820312 60.310547 C 66.754092 59.922729 69.064125 61.318133 69.953125 61.580078 C 72.612475 62.357728 72.971869 61.2798 71.292969 58.908203 C 69.635489 56.53664 69.386568 56.90102 68.861328 55.806641 C 68.450868 54.925427 68.860563 53.952366 69.164062 53.714844 C 69.702933 53.286432 77.644489 48.684208 79.505859 46.923828 C 82.264449 44.30659 79.505145 41.0408 78.828125 40.580078 C 73.102095 36.280776 67.228254 37.19975 67.152344 36.517578 C 67.112744 35.740027 67.126354 33.496301 67.027344 32.71875 C 66.459694 27.45147 64.124808 28.777344 63.804688 28.777344 C 61.471367 29.159189 62.330222 32.884055 63.320312 36.390625 C 63.396212 37.286327 62.505219 36.891482 61.980469 35.947266 C 60.188404 30.926188 59.436451 31.013115 58.941406 30.863281 C 58.462862 30.751401 56.774985 31.823171 56.804688 33.853516 C 56.811287 34.432059 57.474609 37.194131 57.474609 38.042969 C 56.372309 39.0489 56.321122 41.33335 55.166016 42.166016 C 51.799709 42.894392 43.710734 40.428286 42.701172 40.316406 C 39.205493 39.634234 37.677935 42.372924 37.115234 41.714844 C 32.57897 36.289809 25.648108 32.260843 22.646484 31.5625 C 21.482798 31.300456 17.555134 29.491951 16.140625 28.580078 C 15.920258 28.442349 15.669647 28.33944 15.425781 28.208984 z M 77.792969 32.957031 C 76.697699 34.185469 76.887644 38.778848 77.115234 38.740234 C 78.231884 38.502679 78.127559 32.587067 77.792969 32.957031 z M 80.960938 33.65625 C 80.832557 33.282656 77.951237 37.50319 78.460938 39.056641 C 78.688558 39.730728 81.348058 34.838087 80.960938 33.65625 z M 66 40.832031 L 66.001953 40.832031 C 66.041053 40.791441 66.084116 40.849684 66.128906 40.896484 C 66.463486 42.053833 66.834922 43.155445 69.039062 43.433594 C 69.297803 43.466264 67.816278 44.370692 66.798828 43.816406 C 65.868138 43.229613 65.78548 41.094075 66 40.832031 z M 71.724609 46.662109 C 71.92262 46.631673 72.06784 46.638495 72.208984 46.662109 C 72.747854 46.80422 68.299325 49.225578 67.953125 48.892578 C 67.741055 48.679346 70.325809 46.932139 71.724609 46.662109 z M 72.878906 48.193359 C 73.341946 48.233949 70.303348 51.516834 69.960938 51.175781 C 69.709987 50.938193 71.929546 48.114152 72.878906 48.193359 z "
       style="opacity:0.05;fill:#000000;fill-opacity:1"
       id="path4229"
       d="m 15.390625,24.208984 a 4.0004,4.0004 0 0 0 -3.556641,2.240235 c -0.140855,0.287513 -0.293898,0.596952 -0.453125,0.935547 a 4.0004,4.0004 0 0 0 1.611329,5.164062 c 2.466367,1.430501 8.74174,4.743042 11.30664,6.421875 a 4.0004,4.0004 0 0 0 0.03711,0.02344 c 1.540807,0.984826 3.690416,2.737055 5.380859,4.27539 0.592534,0.539218 1.025614,0.975526 1.474609,1.419922 -1.246146,3.162849 -1.912996,6.170485 -2.005859,8.462891 -0.05843,1.442421 0.0045,2.618852 0.04492,3.414062 -0.319522,0.418644 -0.695317,0.914764 -1.083985,1.490235 -0.42698,0.632196 -0.857979,1.261433 -1.236328,2.273437 -0.189174,0.506002 -0.425963,1.119179 -0.351562,2.212891 0.0744,1.093711 0.996378,2.896249 2.320312,3.59375 a 4.0004,4.0004 0 0 0 0.01367,0.0078 c 0.147539,0.07699 0.249747,0.03588 0.392578,0.09766 -0.13414,0.813444 -0.195245,1.761161 0.681641,3.265624 0.589695,1.011734 1.965883,2.004086 3.1875,2.220704 1.221616,0.216618 2.117562,-0.0324 2.845703,-0.296875 a 4.0004,4.0004 0 0 0 0.689453,-0.328125 c 0.788995,-0.472074 0.686326,-0.508653 0.802735,-0.619141 0.116408,-0.110488 0.205461,-0.200626 0.300781,-0.298828 0.19064,-0.196404 0.39506,-0.415245 0.628906,-0.667969 0.467691,-0.505448 1.038724,-1.134179 1.607422,-1.751953 0.35144,-0.381767 0.64256,-0.68487 0.957031,-1.017578 3.911409,0.808776 7.781514,1.156184 11.03711,1.082031 1.957407,-0.04458 3.697082,-0.192968 5.142578,-0.402344 0.640241,-0.09274 1.152788,-0.328915 1.675781,-0.435546 0.200891,0.103037 0.374537,0.186821 0.638672,0.335937 0.835255,0.47154 1.813235,1.078935 2.710937,1.572266 a 4.0004,4.0004 0 0 0 0.01367,0.0078 c 0.836766,0.455301 2.173143,1.362082 4.472656,1.685547 0.574879,0.08087 1.257118,0.132639 2.144532,-0.07031 0.887414,-0.202952 2.050806,-0.799285 2.800781,-1.808594 0.823946,-1.10886 1.008538,-2.169726 0.96875,-3.160156 1.184096,-0.302838 2.635304,-1.009972 3.300781,-2.478516 0.808195,-1.783488 0.363574,-3.140438 0.01172,-4.064453 -0.350745,-0.921098 -0.802885,-1.644443 -1.341797,-2.40625 -0.377981,-0.539856 -0.528352,-0.651631 -0.832031,-1.025391 0.698739,-0.427096 1.394575,-0.849953 2.224609,-1.367187 2.330701,-1.452372 4.569137,-2.746967 6.298828,-4.382813 a 4.0004,4.0004 0 0 0 0.0059,-0.0039 c 2.465027,-2.338717 2.741091,-6.054714 1.96289,-8.230469 -0.305738,-0.854806 -0.7176,-1.458354 -1.117187,-2.048828 0.13027,-0.238301 0.283912,-0.445422 0.412109,-0.701172 0.394145,-0.786307 0.76355,-1.622133 1.054688,-2.523437 0.291138,-0.901304 0.962114,-1.553254 0.189453,-3.91211 a 4.0004,4.0004 0 0 0 -0.01758,-0.05469 c -0.284853,-0.828933 -1.313264,-2.126976 -2.591797,-2.533203 -0.870888,-0.276707 -1.498196,-0.208132 -2.011719,-0.08789 -0.534829,-0.39548 -1.210498,-0.757145 -2.175781,-0.791016 -1.552736,-0.05448 -2.674908,0.817284 -3.138672,1.330079 a 4.0004,4.0004 0 0 0 -0.01953,0.02148 c -1.136075,1.274204 -1.314663,2.299589 -1.519532,3.230469 -0.01579,0.07173 -0.01104,0.130161 -0.02539,0.201171 -0.548057,-0.134324 -1.201867,-0.384065 -1.685547,-0.470703 -0.235345,-0.04216 -0.312287,-0.03844 -0.53125,-0.07227 -0.01385,-0.296296 -0.0032,-0.567456 -0.04492,-0.910156 -0.352562,-3.241374 -1.452284,-5.932985 -3.972656,-7.119141 -1.262712,-0.594267 -2.517823,-0.571418 -3.273438,-0.455078 -0.377807,0.05817 -0.662955,0.137087 -0.791015,0.171875 -0.02081,0.0057 0.161969,-0.01393 0.136718,-0.01563 -1.259718,0.225168 -2.439689,1.102274 -3.298828,2.111328 -1.94923,-0.438645 -2.564675,0.129937 -3.238281,0.478515 -0.681693,0.352764 -1.25273,0.793414 -1.792969,1.367188 -1.079365,1.146366 -1.992124,2.963052 -1.96289,5.09375 0.01074,0.859906 0.09564,1.024512 0.167968,1.429688 0.07273,0.407423 0.15699,0.839819 0.238282,1.263671 0.05104,0.266113 0.04471,0.183018 0.08203,0.453125 -0.211809,0.415132 -0.340531,0.710746 -0.449219,1.03711 -1.016704,-0.05582 -2.219067,-0.07865 -3.974609,-0.447266 -1.203433,-0.252686 -2.36621,-0.538054 -3.310547,-0.771484 -0.850518,-0.21024 -1.20837,-0.348305 -2.177735,-0.478516 -2.13705,-0.39383 -3.906447,0.08014 -5.285156,0.650391 -2.118216,-2.1293 -4.369388,-4.045423 -6.582031,-5.511719 -2.942707,-1.950103 -5.470281,-3.285316 -7.962891,-3.865234 a 4.0004,4.0004 0 0 0 -0.02734,-0.0059 c 0.401212,0.09035 -1.16751,-0.428696 -2.369141,-0.980468 -1.201631,-0.551773 -2.545316,-1.266032 -2.847656,-1.460938 A 4.0004,4.0004 0 0 0 18.259766,25.1875 C 17.642971,24.802004 17.322805,24.687153 17.3125,24.681641 a 4.0004,4.0004 0 0 0 -1.921875,-0.472657 z m 49.912109,9.457032 c 0.138336,0.148135 0.12763,0.254763 0.173828,0.33789 l 0.271485,0.59961 c -0.164995,-0.46229 -0.294744,-0.541282 -0.445313,-0.9375 z m -25.162109,5.439453 c 0.0035,0.004 0.01222,0.0058 0.01563,0.0098 l 0.02734,0.0332 c -0.01322,-0.01581 -0.02972,-0.02719 -0.04297,-0.04297 z m 27.441406,0.851562 c 0.259739,-0.0023 0.625807,0.07251 1.13086,0.347657 l 0.21875,0.128906 c 1.341303,0.845682 0.997162,1.186803 0.980468,1.089844 -0.0083,-0.04848 -0.0075,-0.138061 -0.0098,-0.06836 -0.0011,0.03485 0.0011,0.103532 -0.04102,0.320313 -0.04215,0.21678 0.09088,0.543587 -0.765625,1.589843 L 66.1875,44.742188 c -0.116096,0.008 -0.23022,0.07763 -0.34375,0.07227 -0.290557,-0.01373 -0.310281,-0.133383 -0.539062,-0.1875 -0.54908,-1.761541 0.121641,-2.903211 0.419921,-3.353515 0.6275,-0.947317 0.815024,-0.893332 0.962891,-0.994141 0.295733,-0.201618 0.323981,-0.187741 0.402344,-0.214844 0.07836,-0.0271 0.232448,-0.105161 0.492187,-0.107422 z m 1.06836,5.029297 c 0.522102,0.04317 1.203043,0.1836 2.076171,1.023438 l 0.0625,0.0625 c 0.437678,0.440075 0.586986,1.021177 0.753907,1.578125 0.410465,0.168442 0.830246,0.313968 1.195312,0.666015 1.191726,1.161533 1.238567,2.517252 1.191407,3.105469 -0.03097,0.386223 -0.0906,0.482598 -0.144532,0.644531 -0.275636,0.0792 -0.536162,0.171861 -1.238281,0.113282 l -0.01758,-0.002 c -0.448961,-0.03936 -1.074612,-0.269071 -1.6875,-0.634765 -0.229389,-0.13687 -0.465625,-0.229201 -0.677735,-0.429688 -0.710751,-0.671805 -1.034263,-1.54842 -1.15039,-2.201172 -0.273982,-0.420441 -0.490439,-0.860363 -0.601563,-1.339843 0.01115,-0.0056 -0.0022,1.08e-4 0.0098,-0.0059 0.08953,-0.04456 0.387707,-0.106135 0.5625,-0.167968 0.07209,-0.305283 0.178618,-0.481832 0.234375,-0.613282 0.214993,-0.506859 0.242223,-0.454728 0.216797,-0.419922 -0.05085,0.06961 -0.330975,0.410093 -0.613281,0.707032 -0.133826,0.140762 -0.204666,0.197627 -0.328125,0.314453 -0.02296,-0.0032 -0.07824,-0.03486 -0.103516,-0.03906 -0.07089,-0.396613 -0.144159,-0.806222 -0.107422,-1.111328 0.07854,-0.652314 0.225144,-0.956421 0.367188,-1.25 z m 2.191406,6.556641 c 0.0038,-0.0028 0.242288,-0.182464 0.515625,-0.353516 0.551425,-0.345076 1.551875,-0.682015 1.125,-0.599609 l -0.150391,0.02539 c -0.180963,0.02782 -0.607599,0.02157 -0.783203,-0.0078 l -0.07617,-0.01758 c -0.108073,0.185128 -0.240388,0.512755 -0.310547,0.603515 -0.269728,0.348933 -0.318948,0.349374 -0.320312,0.34961 z m -2.451172,-4.183594 c 0.03397,0.0049 0.06566,0.02481 0.09961,0.0293 -0.03292,0.03113 -0.05854,0.05686 -0.08789,0.08398 -0.0085,-0.04085 -0.0044,-0.07279 -0.01172,-0.113281 z m 6.021484,4.414063 c 0.01065,-0.0081 -0.0108,0.133505 -0.261718,0.257812 0.106144,-0.103818 0.249529,-0.248524 0.261718,-0.257812 z m -45.167968,5.207031 c 0.0063,0.164341 0.01588,0.401067 0.01563,0.419922 -2.45e-4,0.01827 -0.07745,-0.101542 -0.01563,-0.419922 z m 1.193359,4.382812 a 4.0004,4.0004 0 0 0 -0.0078,0.03906 c -0.0069,0.03077 -0.07803,0.310114 -0.09375,0.363281 0.01947,-0.275097 0.09609,-0.379023 0.101562,-0.402344 z" />
    <path
       d="m 15.398438,25.208984 a 3.0003,3.0003 0 0 0 -2.666016,1.679688 c -0.141632,0.289098 -0.293337,0.594546 -0.447266,0.921875 a 3.0003,3.0003 0 0 0 1.208985,3.873047 c 2.396883,1.390199 8.681332,4.700164 11.353515,6.449218 a 3.0003,3.0003 0 0 0 0.02734,0.01758 c 1.62858,1.040927 3.795367,2.815216 5.513672,4.378906 0.786435,0.71567 1.447964,1.360358 1.970703,1.894531 -1.405691,3.281645 -2.079855,6.401503 -2.175781,8.769531 -0.05819,1.436562 0.0066,2.636855 0.04687,3.431641 0.0067,0.132792 0.0053,0.156156 0.0098,0.263672 -0.07395,0.102503 -0.0301,0.03766 -0.107422,0.138672 -0.331317,0.432855 -0.75164,0.985924 -1.158203,1.58789 -0.406563,0.601967 -0.804402,1.20365 -1.126953,2.066407 -0.161275,0.431378 -0.349338,0.935616 -0.291015,1.792968 0.05832,0.857353 0.764985,2.237821 1.789062,2.777344 a 3.0003,3.0003 0 0 0 0.0098,0.0059 c 0.382887,0.199813 0.687959,0.168523 1.037109,0.253907 -0.0029,0.01723 -0.007,0.02183 -0.0098,0.03906 -0.140478,0.868949 -0.481297,1.85665 0.449219,3.453125 0.465258,0.798238 1.530374,1.568992 2.496094,1.740235 0.96572,0.171242 1.702082,-0.02385 2.330078,-0.251953 a 3.0003,3.0003 0 0 0 0.517578,-0.246094 c 0.596731,-0.357038 0.527511,-0.391944 0.626953,-0.486328 0.09944,-0.09438 0.181637,-0.176967 0.271485,-0.269532 0.179695,-0.185129 0.381864,-0.402244 0.613281,-0.652343 0.462834,-0.5002 1.034182,-1.127462 1.605469,-1.748047 0.485598,-0.527504 0.939057,-1.007969 1.335937,-1.419922 4.009426,0.889397 8.019434,1.236497 11.371094,1.160156 1.919548,-0.04372 3.623578,-0.190096 5.021484,-0.392578 0.785117,-0.113722 1.346526,-0.346349 1.958985,-0.501953 0.256618,0.121777 0.598257,0.299092 0.992187,0.521484 0.860306,0.485682 1.843519,1.096158 2.699219,1.566407 a 3.0003,3.0003 0 0 0 0.01172,0.0059 c 0.809953,0.440711 2.150871,1.295425 4.132812,1.574219 0.495486,0.0697 1.067359,0.109025 1.783203,-0.05469 0.715844,-0.163713 1.629472,-0.634013 2.220703,-1.429687 0.866231,-1.165766 0.826297,-2.29185 0.621094,-3.34375 0.109616,-0.0021 0.189817,0.04968 0.304688,0.04102 0.993472,-0.07489 2.603631,-0.756137 3.236328,-2.152344 0.632696,-1.396206 0.290432,-2.498261 -0.01367,-3.296874 -0.303254,-0.796382 -0.713818,-1.466267 -1.222656,-2.185547 -0.700746,-1.00149 -1.119684,-1.435666 -1.507813,-1.857422 0.02898,-0.01772 0.04263,-0.02681 0.07227,-0.04492 0.845292,-0.516709 1.955544,-1.191404 3.115234,-1.914063 2.319381,-1.445317 4.610686,-2.814787 6.140625,-4.261718 a 3.0003,3.0003 0 0 0 0.0039,-0.0039 c 2.193594,-2.081192 2.400043,-5.233901 1.708985,-7.166015 -0.345529,-0.966057 -0.817108,-1.733853 -1.277344,-2.34375 -0.0157,-0.02081 -0.03548,-0.03051 -0.05078,-0.05078 0.223329,-0.374321 0.458927,-0.717754 0.671875,-1.142578 0.376226,-0.750558 0.730082,-1.551294 0.998047,-2.380859 0.267965,-0.829565 0.795097,-1.449962 0.191406,-3.292969 a 3.0003,3.0003 0 0 0 -0.01367,-0.04102 c -0.214642,-0.624619 -0.988019,-1.600849 -1.949219,-1.90625 -0.920753,-0.29255 -1.564979,-0.100076 -1.953125,0.04492 -0.389076,-0.383991 -1.001102,-0.845021 -1.966796,-0.878906 -1.167046,-0.04095 -2.010891,0.61642 -2.361329,1.003906 a 3.0003,3.0003 0 0 0 -0.01367,0.01563 c -0.920511,1.03243 -1.1042,1.930443 -1.291016,2.779296 -0.09588,0.435661 -0.108439,0.83513 -0.15625,1.253907 -0.935867,-0.279249 -1.925772,-0.613966 -2.707031,-0.753907 -0.571589,-0.102384 -0.853602,-0.119955 -1.3125,-0.177734 -0.0093,-0.56118 -0.01137,-1.104214 -0.08203,-1.679688 -0.335405,-3.087747 -1.340138,-5.352769 -3.404297,-6.324218 -1.03387,-0.486568 -2.060405,-0.468849 -2.695312,-0.371094 -0.317453,0.04888 -0.561698,0.115855 -0.681641,0.148438 -0.01371,0.0037 0.08253,-0.0067 0.06641,-0.0059 -1.292064,0.223026 -2.563658,1.188084 -3.203125,2.269531 -0.05215,-0.01237 -0.320423,-0.12046 -0.277344,-0.107421 A 3.0003,3.0003 0 0 0 59.625,27.941406 c -1.534216,-0.358688 -2.034025,0.09889 -2.601562,0.392578 -0.567538,0.293691 -1.060453,0.670264 -1.525391,1.164063 -0.929183,0.986862 -1.719243,2.542406 -1.693359,4.394531 1.9e-5,0.0014 -2.1e-5,0.0025 0,0.0039 0.0086,0.680363 0.0844,0.872099 0.154296,1.263672 0.07032,0.393959 0.154528,0.825446 0.236328,1.251953 0.08953,0.466815 0.102756,0.547607 0.152344,0.892579 -0.396581,0.708041 -0.651263,1.364315 -0.820312,1.824218 -1.034906,0.0012 -2.832806,-0.08188 -4.861328,-0.507812 -1.223728,-0.256948 -2.399223,-0.545337 -3.345704,-0.779297 -0.874562,-0.216183 -1.266388,-0.357744 -2.115234,-0.46875 -2.256843,-0.418031 -4.119768,0.199679 -5.365234,0.828125 -2.179365,-2.271138 -4.555085,-4.297258 -6.876953,-5.835938 -2.875769,-1.905743 -5.392059,-3.202378 -7.636719,-3.724609 a 3.0003,3.0003 0 0 0 -0.02148,-0.0039 c 0.155448,0.035 -1.337183,-0.485283 -2.564454,-1.048828 -1.227271,-0.563546 -2.57104,-1.269134 -2.974609,-1.529297 a 3.0003,3.0003 0 0 0 -0.03516,-0.02344 c -0.517688,-0.323554 -0.819977,-0.433954 -0.888672,-0.470703 a 3.0003,3.0003 0 0 0 -1.443359,-0.355469 z m 49.191406,9.273438 c -1.42e-4,1.28e-4 0.01364,0.0078 0.01367,0.0078 l 0.203125,0.449219 c -0.08334,-0.2335 -0.137603,-0.241953 -0.216797,-0.457031 z m -25.205078,5.277344 c 0.01972,0.0096 0.02125,0.02066 0.03125,0.03125 C 39.416016,39.791016 0,0 0,0 Z m 28.03125,1.25 c 0.0012,-4.29e-4 0.187962,-0.171553 0.818359,0.171875 l 0.164063,0.09766 c 0.76781,0.484099 0.532116,0.480294 0.455078,0.357422 -0.01638,0.143652 0.07528,0.35481 -0.53125,1.095703 l -2.125,1.005859 c -0.08688,-0.936166 0.179352,-1.637386 0.361328,-1.912109 0.46619,-0.703794 0.59726,-0.655187 0.693359,-0.720703 0.192199,-0.131033 0.163443,-0.09549 0.164063,-0.0957 z m 1.880859,5.271484 c 0.238186,0.119342 0.460543,0.183949 0.736328,0.449219 l 0.04687,0.04687 c 0.06556,0.06592 0.05694,0.164427 0.113281,0.236328 -0.09428,0.123424 -0.307044,0.367688 -0.535156,0.617187 -0.147628,-0.459927 -0.424597,-0.928364 -0.382812,-1.27539 0.0047,-0.03885 0.01633,-0.03747 0.02148,-0.07422 z m 0.908203,0.755859 c 0.309242,0.403924 0.550928,0.859243 0.63086,1.31836 0.407425,0.117042 0.837403,0.319886 1.207031,0.675781 0.809303,0.788372 0.887492,1.644917 0.871093,2.128906 -0.126921,1.01e-4 -0.116423,0.03751 -0.285156,0.02344 l -0.01172,-0.002 c -0.45913,-0.04025 -1.183458,-0.244655 -1.765626,-0.794922 -0.01517,-0.01434 -0.0087,-0.03227 -0.02344,-0.04687 0.612457,-0.382484 1.609918,-0.760428 1.464844,-0.732422 l -0.113281,0.01953 c -0.08622,0.01325 -0.368428,0.01027 -0.464844,-0.0059 L 71.443359,49.5625 c -0.149578,-0.03945 -0.409926,-0.290511 -0.61914,-0.392578 -0.01371,0.180841 0.02232,0.438648 -0.01367,0.554687 -0.05868,0.189177 -0.09175,0.17369 -0.146485,0.28711 -0.350925,-0.47535 -0.648195,-1.000227 -0.699218,-1.386719 -0.0043,-0.005 -0.0074,-0.0027 -0.01172,-0.0078 -0.09034,-0.107031 -0.04111,-0.254795 -0.113281,-0.378907 0.04102,-0.0025 0.106362,0.01403 0.152344,0.01367 0.01637,-0.510677 0.08887,-0.94035 0.146484,-1.076172 0.09515,-0.224332 0.06467,-0.14473 0.06641,-0.138672 z m 3.59961,3.941407 c 0.05326,-0.04059 0.0513,0.04293 -0.123047,0.121093 0.03345,-0.02925 0.102055,-0.105097 0.123047,-0.121093 z M 30.25,57.166016 c 0.0019,0.06661 0.01013,0.22061 0.0098,0.248046 -6.67e-4,0.04976 -0.05752,-0.02158 -0.0098,-0.248046 z"
       id="path4231"
       style="opacity:0.1;fill:#000000;fill-opacity:1"
       inkscape:original="M 15.425781 28.208984 C 15.28182 28.502836 15.138034 28.794362 15 29.087891 C 17.18843 30.357187 23.496201 33.663328 26.490234 35.623047 C 30.274029 38.041508 35.388379 42.975956 35.791016 43.806641 C 31.855407 50.960374 33.640794 57.28963 33.175781 57.962891 C 32.841461 58.527243 29.74811 62.072908 30.744141 62.597656 C 31.732416 63.113394 33.303691 62.302946 33.541016 62.144531 C 34.03517 61.827802 34.546055 61.365702 34.332031 62.277344 C 33.913784 64.141288 32.014294 68.623682 34.634766 67.671875 C 34.953806 67.480986 39.171744 62.627603 39.681641 62.460938 C 48.072326 64.745175 57.45608 63.698347 59.193359 62.849609 C 60.097971 62.912579 62.657797 64.592525 64.117188 65.394531 C 65.576217 66.188418 69.55222 68.178673 68.375 64.5625 C 68.00929 63.419375 65.396192 60.501305 65.820312 60.310547 C 66.754092 59.922729 69.064125 61.318133 69.953125 61.580078 C 72.612475 62.357728 72.971869 61.2798 71.292969 58.908203 C 69.635489 56.53664 69.386568 56.90102 68.861328 55.806641 C 68.450868 54.925427 68.860563 53.952366 69.164062 53.714844 C 69.702933 53.286432 77.644489 48.684208 79.505859 46.923828 C 82.264449 44.30659 79.505145 41.0408 78.828125 40.580078 C 73.102095 36.280776 67.228254 37.19975 67.152344 36.517578 C 67.112744 35.740027 67.126354 33.496301 67.027344 32.71875 C 66.459694 27.45147 64.124808 28.777344 63.804688 28.777344 C 61.471367 29.159189 62.330222 32.884055 63.320312 36.390625 C 63.396212 37.286327 62.505219 36.891482 61.980469 35.947266 C 60.188404 30.926188 59.436451 31.013115 58.941406 30.863281 C 58.462862 30.751401 56.774985 31.823171 56.804688 33.853516 C 56.811287 34.432059 57.474609 37.194131 57.474609 38.042969 C 56.372309 39.0489 56.321122 41.33335 55.166016 42.166016 C 51.799709 42.894392 43.710734 40.428286 42.701172 40.316406 C 39.205493 39.634234 37.677935 42.372924 37.115234 41.714844 C 32.57897 36.289809 25.648108 32.260843 22.646484 31.5625 C 21.482798 31.300456 17.555134 29.491951 16.140625 28.580078 C 15.920258 28.442349 15.669647 28.33944 15.425781 28.208984 z M 77.792969 32.957031 C 76.697699 34.185469 76.887644 38.778848 77.115234 38.740234 C 78.231884 38.502679 78.127559 32.587067 77.792969 32.957031 z M 80.960938 33.65625 C 80.832557 33.282656 77.951237 37.50319 78.460938 39.056641 C 78.688558 39.730728 81.348058 34.838087 80.960938 33.65625 z M 66 40.832031 L 66.001953 40.832031 C 66.041053 40.791441 66.084116 40.849684 66.128906 40.896484 C 66.463486 42.053833 66.834922 43.155445 69.039062 43.433594 C 69.297803 43.466264 67.816278 44.370692 66.798828 43.816406 C 65.868138 43.229613 65.78548 41.094075 66 40.832031 z M 71.724609 46.662109 C 71.92262 46.631673 72.06784 46.638495 72.208984 46.662109 C 72.747854 46.80422 68.299325 49.225578 67.953125 48.892578 C 67.741055 48.679346 70.325809 46.932139 71.724609 46.662109 z M 72.878906 48.193359 C 73.341946 48.233949 70.303348 51.516834 69.960938 51.175781 C 69.709987 50.938193 71.929546 48.114152 72.878906 48.193359 z "
       inkscape:radius="2"
       sodipodi:type="inkscape:offset" />
    <path
       sodipodi:type="inkscape:offset"
       inkscape:radius="1"
       inkscape:original="M 15.425781 28.208984 C 15.28182 28.502836 15.138034 28.794362 15 29.087891 C 17.18843 30.357187 23.496201 33.663328 26.490234 35.623047 C 30.274029 38.041508 35.388379 42.975956 35.791016 43.806641 C 31.855407 50.960374 33.640794 57.28963 33.175781 57.962891 C 32.841461 58.527243 29.74811 62.072908 30.744141 62.597656 C 31.732416 63.113394 33.303691 62.302946 33.541016 62.144531 C 34.03517 61.827802 34.546055 61.365702 34.332031 62.277344 C 33.913784 64.141288 32.014294 68.623682 34.634766 67.671875 C 34.953806 67.480986 39.171744 62.627603 39.681641 62.460938 C 48.072326 64.745175 57.45608 63.698347 59.193359 62.849609 C 60.097971 62.912579 62.657797 64.592525 64.117188 65.394531 C 65.576217 66.188418 69.55222 68.178673 68.375 64.5625 C 68.00929 63.419375 65.396192 60.501305 65.820312 60.310547 C 66.754092 59.922729 69.064125 61.318133 69.953125 61.580078 C 72.612475 62.357728 72.971869 61.2798 71.292969 58.908203 C 69.635489 56.53664 69.386568 56.90102 68.861328 55.806641 C 68.450868 54.925427 68.860563 53.952366 69.164062 53.714844 C 69.702933 53.286432 77.644489 48.684208 79.505859 46.923828 C 82.264449 44.30659 79.505145 41.0408 78.828125 40.580078 C 73.102095 36.280776 67.228254 37.19975 67.152344 36.517578 C 67.112744 35.740027 67.126354 33.496301 67.027344 32.71875 C 66.459694 27.45147 64.124808 28.777344 63.804688 28.777344 C 61.471367 29.159189 62.330222 32.884055 63.320312 36.390625 C 63.396212 37.286327 62.505219 36.891482 61.980469 35.947266 C 60.188404 30.926188 59.436451 31.013115 58.941406 30.863281 C 58.462862 30.751401 56.774985 31.823171 56.804688 33.853516 C 56.811287 34.432059 57.474609 37.194131 57.474609 38.042969 C 56.372309 39.0489 56.321122 41.33335 55.166016 42.166016 C 51.799709 42.894392 43.710734 40.428286 42.701172 40.316406 C 39.205493 39.634234 37.677935 42.372924 37.115234 41.714844 C 32.57897 36.289809 25.648108 32.260843 22.646484 31.5625 C 21.482798 31.300456 17.555134 29.491951 16.140625 28.580078 C 15.920258 28.442349 15.669647 28.33944 15.425781 28.208984 z M 77.792969 32.957031 C 76.697699 34.185469 76.887644 38.778848 77.115234 38.740234 C 78.231884 38.502679 78.127559 32.587067 77.792969 32.957031 z M 80.960938 33.65625 C 80.832557 33.282656 77.951237 37.50319 78.460938 39.056641 C 78.688558 39.730728 81.348058 34.838087 80.960938 33.65625 z M 66 40.832031 L 66.001953 40.832031 C 66.041053 40.791441 66.084116 40.849684 66.128906 40.896484 C 66.463486 42.053833 66.834922 43.155445 69.039062 43.433594 C 69.297803 43.466264 67.816278 44.370692 66.798828 43.816406 C 65.868138 43.229613 65.78548 41.094075 66 40.832031 z M 71.724609 46.662109 C 71.92262 46.631673 72.06784 46.638495 72.208984 46.662109 C 72.747854 46.80422 68.299325 49.225578 67.953125 48.892578 C 67.741055 48.679346 70.325809 46.932139 71.724609 46.662109 z M 72.878906 48.193359 C 73.341946 48.233949 70.303348 51.516834 69.960938 51.175781 C 69.709987 50.938193 71.929546 48.114152 72.878906 48.193359 z "
       style="opacity:0.15;fill:#000000;fill-opacity:1"
       id="path4233"
       d="m 15.408203,26.208984 a 2.0002,2.0002 0 0 0 -1.779297,1.119141 c -0.142408,0.290683 -0.290823,0.592141 -0.439453,0.908203 a 2.0002,2.0002 0 0 0 0.806641,2.582031 c 2.327399,1.349899 8.618971,4.65924 11.398437,6.478516 a 2.0002,2.0002 0 0 0 0.01953,0.01172 c 1.716353,1.097028 3.902271,2.891423 5.648438,4.480468 0.873084,0.794523 1.642824,1.542258 2.197266,2.117188 0.109933,0.113996 0.164328,0.180505 0.255859,0.279297 -1.57876,3.390411 -2.233264,6.610683 -2.332031,9.048828 -0.05608,1.384489 0.0066,2.543379 0.04687,3.339844 0.01499,0.296163 0.01775,0.467983 0.02148,0.634765 -0.09602,0.128962 -0.123891,0.163461 -0.326172,0.427735 -0.328029,0.428559 -0.736901,0.967326 -1.123047,1.539062 -0.386146,0.571737 -0.752777,1.141959 -1.019531,1.855469 -0.133377,0.356755 -0.272712,0.754007 -0.230469,1.375 0.04224,0.620993 0.535547,1.579391 1.259766,1.960938 a 2.0002,2.0002 0 0 0 0.0059,0.0039 c 0.646006,0.337122 1.248345,0.428123 1.792969,0.412109 -0.09081,0.371831 -0.181358,0.551468 -0.242187,0.927735 -0.126919,0.785068 -0.35547,1.619578 0.326171,2.789062 0.340821,0.584742 1.09877,1.133899 1.808594,1.259766 0.709824,0.125866 1.286603,-0.01726 1.814453,-0.208985 a 2.0002,2.0002 0 0 0 0.34375,-0.162109 c 0.404468,-0.242002 0.370649,-0.275235 0.453125,-0.353516 0.08248,-0.07828 0.157812,-0.15526 0.242188,-0.242187 0.168751,-0.173854 0.368667,-0.387291 0.597656,-0.634766 0.457978,-0.49495 1.029641,-1.122697 1.603516,-1.746094 0.573874,-0.623397 1.150425,-1.243289 1.591797,-1.693359 0.05423,-0.0553 0.0791,-0.07522 0.128906,-0.125 4.094782,0.974598 8.252667,1.314831 11.699219,1.236328 1.881687,-0.04286 3.550074,-0.187223 4.90039,-0.382812 0.950432,-0.137668 1.570855,-0.349746 2.246094,-0.564454 -0.024,0.0048 -0.03731,-0.0038 0.179688,0.0957 0.301738,0.138399 0.717478,0.357509 1.160156,0.607422 0.885356,0.499824 1.875754,1.11338 2.689453,1.560546 a 2.0002,2.0002 0 0 0 0.0078,0.0039 c 0.78314,0.426122 2.130552,1.228769 3.794922,1.46289 0.416093,0.05853 0.873695,0.08541 1.417969,-0.03906 0.544274,-0.124476 1.21009,-0.468743 1.642578,-1.050781 0.862612,-1.160896 0.639996,-2.405271 0.261719,-3.570313 -0.04994,-0.156112 -0.131116,-0.223965 -0.1875,-0.355469 0.520977,0.116497 1.031052,0.261946 1.578125,0.220703 0.789458,-0.05951 1.945145,-0.559434 2.402344,-1.568359 0.457198,-1.008925 0.219243,-1.852178 -0.03711,-2.525391 -0.255063,-0.669826 -0.62656,-1.288217 -1.103515,-1.96289 l -0.002,-0.002 c -0.88189,-1.261421 -1.492299,-1.918386 -1.847657,-2.28125 -0.276459,-0.282299 -0.259549,-0.285207 -0.324219,-0.417969 0.258685,-0.161636 0.61279,-0.377017 1.03125,-0.632813 0.846657,-0.517542 1.953392,-1.192977 3.107422,-1.912109 2.30806,-1.438264 4.654187,-2.880654 5.984375,-4.138672 a 2.0002,2.0002 0 0 0 0.002,-0.002 c 1.922161,-1.823668 2.058994,-4.416995 1.455079,-6.105469 -0.301958,-0.844237 -0.724346,-1.53229 -1.134766,-2.076172 -0.162702,-0.21561 -0.348178,-0.334517 -0.496094,-0.501953 0.35127,-0.505925 0.689907,-1.0807 1.021485,-1.742187 0.358307,-0.714811 0.694661,-1.482408 0.939453,-2.240235 0.244792,-0.757826 0.62808,-1.348624 0.193359,-2.675781 a 2.0002,2.0002 0 0 0 -0.0098,-0.02734 c -0.144432,-0.420304 -0.66082,-1.072768 -1.304687,-1.277343 -0.643867,-0.204576 -1.099306,-0.0562 -1.357422,0.04297 -0.395581,0.151978 -0.464684,0.256597 -0.572265,0.361328 -0.05136,-0.134986 -0.0045,-0.181998 -0.216797,-0.441406 -0.216033,-0.264015 -0.724504,-0.722583 -1.50586,-0.75 -0.781356,-0.02742 -1.346874,0.41165 -1.583984,0.673828 a 2.0002,2.0002 0 0 0 -0.0098,0.01172 c -0.704946,0.790657 -0.891783,1.561298 -1.060547,2.328125 -0.168763,0.766827 -0.245007,1.545959 -0.279296,2.275391 -6.21e-4,0.01321 5.91e-4,0.02199 0,0.03516 -1.354113,-0.495796 -2.651638,-0.846723 -3.736329,-1.041016 -0.899889,-0.16119 -1.51539,-0.217846 -2.105468,-0.283203 -0.0025,-0.148018 -0.005,-0.208799 -0.0078,-0.359375 -0.01398,-0.758477 -0.01925,-1.455133 -0.09766,-2.08789 -0.318215,-2.934974 -1.22999,-4.774528 -2.837891,-5.53125 -0.805029,-0.378869 -1.602989,-0.366279 -2.117187,-0.28711 -0.257099,0.03958 -0.458488,0.09462 -0.570313,0.125 -0.0083,0.0023 0.03253,-0.0033 0.02344,-0.002 a 2.0002,2.0002 0 0 0 -0.0293,0.0039 c -1.114073,0.182317 -2.187552,0.995917 -2.660156,1.927735 -0.143067,0.282079 -0.07576,0.5526 -0.152344,0.832031 -0.119838,-0.08844 -0.216688,-0.236686 -0.341797,-0.304688 -0.455013,-0.247316 -0.868566,-0.327336 -0.806641,-0.308593 a 2.0002,2.0002 0 0 0 -0.125,-0.0332 c -1.062689,-0.248449 -1.460681,0.07007 -1.914062,0.304687 -0.453381,0.234617 -0.866221,0.549066 -1.25586,0.962891 -0.778242,0.826551 -1.443053,2.121826 -1.421874,3.693359 2e-5,0.0018 -2.2e-5,0.0021 0,0.0039 9e-6,6.97e-4 -1.1e-5,0.0013 0,0.002 0.0064,0.502953 0.0711,0.723051 0.138671,1.101563 0.06792,0.380494 0.152066,0.80912 0.234375,1.238281 0.120628,0.62895 0.170282,1.023547 0.216797,1.333985 -0.444103,0.701262 -0.736749,1.392688 -0.93164,1.921875 -0.182631,0.495895 -0.215386,0.522835 -0.296875,0.675781 -1.133523,0.0993 -3.44528,-0.08019 -5.705078,-0.554688 C 47.216914,39.3384 46.030655,39.04699 45.082031,38.8125 c -0.897244,-0.22179 -1.352592,-0.370859 -2.042969,-0.458984 -2.272826,-0.427713 -4.145681,0.28952 -5.236328,0.923828 -0.09705,0.05644 -0.09595,0.06175 -0.183593,0.115234 -2.234291,-2.4297 -4.764047,-4.573123 -7.208985,-6.193359 -2.808829,-1.861384 -5.313836,-3.11944 -7.310547,-3.583985 a 2.0002,2.0002 0 0 0 -0.01367,-0.0039 c -0.09032,-0.02034 -1.510762,-0.537962 -2.763672,-1.113281 -1.252911,-0.575319 -2.592859,-1.274188 -3.097657,-1.599609 a 2.0002,2.0002 0 0 0 -0.02344,-0.01367 c -0.418581,-0.261613 -0.704946,-0.371469 -0.832031,-0.439454 a 2.0002,2.0002 0 0 0 -0.960938,-0.236328 z m 48.316406,8.767578 c -0.0025,-0.0039 0.0061,0.004 0.0039,0 l 0.134765,0.298829 c -0.05638,-0.157976 -0.08426,-0.149824 -0.138672,-0.298829 z m 16.228516,3.949219 0.07617,0.05469 c -0.01654,-0.01242 -0.03228,-0.015 -0.04883,-0.02734 -0.01181,-0.0082 -0.01528,-0.01913 -0.02734,-0.02734 z M 70.685547,54.96875 c 0.0026,0.0013 0.0065,0.0052 0.0059,0.0059 -0.0017,-0.0036 -0.0041,-0.0022 -0.0059,-0.0059 z m -36.033203,8.839844 -0.03125,0.01953 c 0.01245,-0.008 0.01342,-0.0098 0.02539,-0.01758 0.0023,-0.0015 0.0036,-4.65e-4 0.0059,-0.002 z" />
    <path
       d="M 15.425781,28.208984 C 15.28182,28.502836 15.138034,28.794362 15,29.087891 c 2.18843,1.269296 8.496201,4.575437 11.490234,6.535156 3.783795,2.418461 8.898145,7.352909 9.300782,8.183594 -3.935609,7.153733 -2.150222,13.482989 -2.615235,14.15625 -0.33432,0.564352 -3.427671,4.110017 -2.43164,4.634765 0.988275,0.515738 2.55955,-0.29471 2.796875,-0.453125 0.494154,-0.316729 1.005039,-0.778829 0.791015,0.132813 -0.418247,1.863944 -2.317737,6.346338 0.302735,5.394531 0.31904,-0.190889 4.536978,-5.044272 5.046875,-5.210937 8.390685,2.284237 17.774439,1.237409 19.511718,0.388671 0.904612,0.06297 3.464438,1.742916 4.923829,2.544922 1.459029,0.793887 5.435032,2.784142 4.257812,-0.832031 -0.36571,-1.143125 -2.978808,-4.061195 -2.554688,-4.251953 0.93378,-0.387818 3.243813,1.007586 4.132813,1.269531 2.65935,0.77765 3.018744,-0.300278 1.339844,-2.671875 -1.65748,-2.371563 -1.906401,-2.007183 -2.431641,-3.101562 -0.41046,-0.881214 -7.65e-4,-1.854275 0.302734,-2.091797 0.538871,-0.428412 8.480427,-5.030636 10.341797,-6.791016 2.75859,-2.617238 -7.14e-4,-5.883028 -0.677734,-6.34375 -5.72603,-4.299302 -11.599871,-3.380328 -11.675781,-4.0625 -0.0396,-0.777551 -0.02599,-3.021277 -0.125,-3.798828 -0.56765,-5.26728 -2.902536,-3.941406 -3.222656,-3.941406 -2.333321,0.381845 -1.474466,4.106711 -0.484376,7.613281 0.0759,0.895702 -0.815093,0.500857 -1.339843,-0.443359 -1.792065,-5.021078 -2.544018,-4.934151 -3.039063,-5.083985 -0.478544,-0.11188 -2.166421,0.95989 -2.136718,2.990235 0.0066,0.578543 0.669921,3.340615 0.669921,4.189453 -1.1023,1.005931 -1.153487,3.290381 -2.308593,4.123047 -3.366307,0.728376 -11.455282,-1.73773 -12.464844,-1.84961 -3.495679,-0.682172 -5.023237,2.056518 -5.585938,1.398438 C 32.57897,36.289809 25.648108,32.260843 22.646484,31.5625 21.482798,31.300456 17.555134,29.491951 16.140625,28.580078 15.920258,28.442349 15.669647,28.33944 15.425781,28.208984 Z m 62.367188,4.748047 c -1.09527,1.228438 -0.905325,5.821817 -0.677735,5.783203 1.11665,-0.237555 1.012325,-6.153167 0.677735,-5.783203 z m 3.167969,0.699219 c -0.128381,-0.373594 -3.009701,3.84694 -2.5,5.400391 0.22762,0.674087 2.88712,-4.218554 2.5,-5.400391 z M 66,40.832031 l 0.002,0 c 0.0391,-0.04059 0.08216,0.01765 0.126953,0.06445 0.33458,1.157349 0.706016,2.258961 2.910156,2.53711 0.258741,0.03267 -1.222784,0.937098 -2.240234,0.382812 C 65.868138,43.229613 65.78548,41.094075 66,40.832031 Z m 5.724609,5.830078 c 0.198011,-0.03044 0.343231,-0.02361 0.484375,0 0.53887,0.142111 -3.909659,2.563469 -4.255859,2.230469 -0.21207,-0.213232 2.372684,-1.960439 3.771484,-2.230469 z m 1.154297,1.53125 c 0.46304,0.04059 -2.575558,3.323475 -2.917968,2.982422 -0.250951,-0.237588 1.968608,-3.061629 2.917968,-2.982422 z"
       id="path4235"
       style="opacity:0.3;fill:#000000;fill-opacity:1"
       inkscape:original="M 15.425781 28.208984 C 15.28182 28.502836 15.138034 28.794362 15 29.087891 C 17.18843 30.357187 23.496201 33.663328 26.490234 35.623047 C 30.274029 38.041508 35.388379 42.975956 35.791016 43.806641 C 31.855407 50.960374 33.640794 57.28963 33.175781 57.962891 C 32.841461 58.527243 29.74811 62.072908 30.744141 62.597656 C 31.732416 63.113394 33.303691 62.302946 33.541016 62.144531 C 34.03517 61.827802 34.546055 61.365702 34.332031 62.277344 C 33.913784 64.141288 32.014294 68.623682 34.634766 67.671875 C 34.953806 67.480986 39.171744 62.627603 39.681641 62.460938 C 48.072326 64.745175 57.45608 63.698347 59.193359 62.849609 C 60.097971 62.912579 62.657797 64.592525 64.117188 65.394531 C 65.576217 66.188418 69.55222 68.178673 68.375 64.5625 C 68.00929 63.419375 65.396192 60.501305 65.820312 60.310547 C 66.754092 59.922729 69.064125 61.318133 69.953125 61.580078 C 72.612475 62.357728 72.971869 61.2798 71.292969 58.908203 C 69.635489 56.53664 69.386568 56.90102 68.861328 55.806641 C 68.450868 54.925427 68.860563 53.952366 69.164062 53.714844 C 69.702933 53.286432 77.644489 48.684208 79.505859 46.923828 C 82.264449 44.30659 79.505145 41.0408 78.828125 40.580078 C 73.102095 36.280776 67.228254 37.19975 67.152344 36.517578 C 67.112744 35.740027 67.126354 33.496301 67.027344 32.71875 C 66.459694 27.45147 64.124808 28.777344 63.804688 28.777344 C 61.471367 29.159189 62.330222 32.884055 63.320312 36.390625 C 63.396212 37.286327 62.505219 36.891482 61.980469 35.947266 C 60.188404 30.926188 59.436451 31.013115 58.941406 30.863281 C 58.462862 30.751401 56.774985 31.823171 56.804688 33.853516 C 56.811287 34.432059 57.474609 37.194131 57.474609 38.042969 C 56.372309 39.0489 56.321122 41.33335 55.166016 42.166016 C 51.799709 42.894392 43.710734 40.428286 42.701172 40.316406 C 39.205493 39.634234 37.677935 42.372924 37.115234 41.714844 C 32.57897 36.289809 25.648108 32.260843 22.646484 31.5625 C 21.482798 31.300456 17.555134 29.491951 16.140625 28.580078 C 15.920258 28.442349 15.669647 28.33944 15.425781 28.208984 z M 77.792969 32.957031 C 76.697699 34.185469 76.887644 38.778848 77.115234 38.740234 C 78.231884 38.502679 78.127559 32.587067 77.792969 32.957031 z M 80.960938 33.65625 C 80.832557 33.282656 77.951237 37.50319 78.460938 39.056641 C 78.688558 39.730728 81.348058 34.838087 80.960938 33.65625 z M 66 40.832031 L 66.001953 40.832031 C 66.041053 40.791441 66.084116 40.849684 66.128906 40.896484 C 66.463486 42.053833 66.834922 43.155445 69.039062 43.433594 C 69.297803 43.466264 67.816278 44.370692 66.798828 43.816406 C 65.868138 43.229613 65.78548 41.094075 66 40.832031 z M 71.724609 46.662109 C 71.92262 46.631673 72.06784 46.638495 72.208984 46.662109 C 72.747854 46.80422 68.299325 49.225578 67.953125 48.892578 C 67.741055 48.679346 70.325809 46.932139 71.724609 46.662109 z M 72.878906 48.193359 C 73.341946 48.233949 70.303348 51.516834 69.960938 51.175781 C 69.709987 50.938193 71.929546 48.114152 72.878906 48.193359 z "
       inkscape:radius="0.5"
       sodipodi:type="inkscape:offset" />
    <path
       inkscape:connector-curvature="0"
       style="fill:url(#linearGradient4219);fill-opacity:1"
       d="M 15.426069,28.206545 C 15.281846,28.500932 15.138283,28.793668 15,29.087725 c 2.18843,1.269296 8.495635,4.576527 11.489668,6.536246 3.783795,2.418461 8.898271,7.351751 9.300908,8.182436 -3.935609,7.153733 -2.149816,13.48371 -2.614829,14.156971 -0.33432,0.564352 -3.427692,4.108875 -2.431661,4.633623 0.988275,0.515738 2.560142,-0.294387 2.797467,-0.452802 0.494154,-0.316729 1.003852,-0.777649 0.789828,0.133993 -0.418247,1.863944 -2.316977,6.344828 0.303495,5.393021 0.31904,-0.190889 4.536594,-5.04352 5.046491,-5.210185 8.390685,2.284238 17.77509,1.236557 19.512369,0.387819 0.904612,0.06297 3.464659,1.744143 4.924049,2.546149 1.45903,0.793887 5.43362,2.783738 4.2564,-0.832435 -0.36571,-1.143125 -2.97842,-4.06102 -2.5543,-4.251778 0.93378,-0.387818 3.24495,1.007087 4.13395,1.269032 2.65935,0.77765 3.01734,-0.300459 1.33844,-2.672056 -1.65748,-2.371563 -1.90652,-2.006055 -2.43176,-3.100434 -0.41046,-0.881214 0,-1.855826 0.3035,-2.093348 0.53887,-0.428412 8.48012,-5.029659 10.34149,-6.790039 2.75859,-2.617238 0,-5.884107 -0.67702,-6.344829 -5.72603,-4.299302 -11.60056,-3.379508 -11.67647,-4.06168 -0.0396,-0.777551 -0.0264,-3.021426 -0.12541,-3.798977 -0.56765,-5.26728 -2.90097,-3.941219 -3.22109,-3.941219 -2.33332,0.381845 -1.47524,4.107554 -0.48515,7.614124 0.0759,0.895702 -0.81517,0.499666 -1.33992,-0.44455 -1.792065,-5.021078 -2.544533,-4.93395 -3.039578,-5.083784 -0.478544,-0.11188 -2.164998,0.960388 -2.135295,2.990733 0.0066,0.578543 0.669961,3.339904 0.669961,4.188742 -1.1023,1.005931 -1.155105,3.29007 -2.310211,4.122736 C 51.799015,42.89361 43.710968,40.428945 42.701406,40.317065 39.205727,39.634893 37.678678,42.372163 37.115977,41.714083 32.579713,36.289048 25.648091,32.26037 22.646467,31.562027 21.482781,31.299983 17.555093,29.491088 16.140584,28.579215 15.913523,28.437302 15.65445,28.334003 15.403627,28.1977 m 62.388888,4.759364 c -1.09527,1.228438 -0.90461,5.821071 -0.67702,5.782457 1.11665,-0.237555 1.01161,-6.152421 0.67702,-5.782457 m 3.16905,0.698443 c -0.12838,-0.373594 -3.00955,3.847491 -2.49985,5.400942 0.22762,0.674087 2.88697,-4.219105 2.49985,-5.400942 m -14.96027,7.177494 c 0.0391,-0.04059 0.0836,0.01617 0.12839,0.06297 0.33458,1.157349 0.70616,2.259881 2.9103,2.53803 0.25874,0.03267 -1.22365,0.935999 -2.2411,0.381713 -0.93069,-0.586793 -1.01319,-2.720768 -0.79867,-2.982812 m 5.71546,5.829652 c 0.20429,-0.03267 0.35016,-0.02409 0.49415,0 0.53887,0.142111 -3.9102,2.562386 -4.2564,2.229386 -0.21207,-0.213232 2.37147,-1.959356 3.77027,-2.229386 m 1.15556,1.530943 c 0.46304,0.04059 -2.57568,3.323733 -2.91809,2.98268 -0.25095,-0.237588 1.96873,-3.061887 2.91809,-2.98268"
       id="path4" />
  </g>
</svg>
