<?xml version="1.0" encoding="UTF-8" standalone="no"?>
<svg
   xmlns:dc="http://purl.org/dc/elements/1.1/"
   xmlns:cc="http://creativecommons.org/ns#"
   xmlns:rdf="http://www.w3.org/1999/02/22-rdf-syntax-ns#"
   xmlns:svg="http://www.w3.org/2000/svg"
   xmlns="http://www.w3.org/2000/svg"
   xmlns:xlink="http://www.w3.org/1999/xlink"
   xmlns:sodipodi="http://sodipodi.sourceforge.net/DTD/sodipodi-0.dtd"
   xmlns:inkscape="http://www.inkscape.org/namespaces/inkscape"
   width="96"
   height="96"
   version="1.1"
   id="svg77"
   sodipodi:docname="teamspeak.svg"
   inkscape:version="0.92.2 5c3e80d, 2017-08-06">
  <metadata
     id="metadata81">
    <rdf:RDF>
      <cc:Work
         rdf:about="">
        <dc:format>image/svg+xml</dc:format>
        <dc:type
           rdf:resource="http://purl.org/dc/dcmitype/StillImage" />
      </cc:Work>
    </rdf:RDF>
  </metadata>
  <sodipodi:namedview
     pagecolor="#ffffff"
     bordercolor="#666666"
     borderopacity="1"
     objecttolerance="10"
     gridtolerance="10"
     guidetolerance="10"
     inkscape:pageopacity="0"
     inkscape:pageshadow="2"
     inkscape:window-width="640"
     inkscape:window-height="480"
     id="namedview79"
     showgrid="false"
     inkscape:zoom="2.4583333"
     inkscape:cx="48"
     inkscape:cy="48"
     inkscape:window-x="0"
     inkscape:window-y="25"
     inkscape:window-maximized="0"
     inkscape:current-layer="svg77" />
  <defs
     id="defs2410">
    <linearGradient
       id="linearGradient4384">
      <stop
         id="stop4386"
         stop-color="#fff"
         offset="0" />
      <stop
         id="stop4388"
         stop-color="#fff"
         stop-opacity="0"
         offset="1" />
    </linearGradient>
    <filter
       id="filter3794"
       x="-.192"
       y="-.192"
       width="1.384"
       height="1.384">
      <feGaussianBlur
         id="feGaussianBlur3796"
         stdDeviation="5.28" />
    </filter>
    <linearGradient
       id="linearGradient3613"
       x1="48"
       x2="48"
       y1="20.221"
       y2="138.66"
       gradientUnits="userSpaceOnUse">
      <stop
         id="stop3739"
         stop-color="#fff"
         offset="0" />
      <stop
         id="stop3741"
         stop-color="#fff"
         stop-opacity="0"
         offset="1" />
    </linearGradient>
    <linearGradient
       id="buttonGradient"
       x1="48"
       x2="48"
       y1="90"
       y2="5.9877"
       gradientUnits="userSpaceOnUse">
      <stop
         id="stop3702"
         stop-color="#465674"
         offset="0" />
      <stop
         id="stop3704"
         stop-color="#798bac"
         offset="1" />
    </linearGradient>
    <linearGradient
       id="ButtonShadow-0"
       x1="45.448"
       x2="45.448"
       y1="92.54"
       y2="7.0165"
       gradientTransform="matrix(1.0059 0 0 .99417 100 0)"
       gradientUnits="userSpaceOnUse">
      <stop
         id="stop3750-8"
         offset="0" />
      <stop
         id="stop3752-5"
         stop-opacity=".58824"
         offset="1" />
    </linearGradient>
    <linearGradient
       id="linearGradient3780"
       x1="32.251"
       x2="32.251"
       y1="6.1317"
       y2="90.239"
       gradientTransform="matrix(1.0238 0 0 1.0119 -1.1429 -98.071)"
       gradientUnits="userSpaceOnUse"
       xlink:href="#ButtonShadow-0" />
    <linearGradient
       id="linearGradient3721"
       x1="32.251"
       x2="32.251"
       y1="6.1317"
       y2="90.239"
       gradientTransform="translate(0,-97)"
       gradientUnits="userSpaceOnUse"
       xlink:href="#ButtonShadow-0" />
    <clipPath
       id="clipPath4355">
      <rect
         id="rect4357"
         x="6"
         y="6"
         width="84"
         height="80"
         rx="6"
         ry="6"
         fill="#fff" />
    </clipPath>
    <linearGradient
       id="linearGradient4390"
       x1="48"
       x2="48"
       y1="88"
       y2="-40"
       gradientTransform="matrix(1,0,0,-1,0,92)"
       gradientUnits="userSpaceOnUse"
       xlink:href="#linearGradient4384" />
    <linearGradient
       id="linearGradient4429"
       x1="48"
       x2="112.12"
       y1="82"
       y2="82.455"
       gradientUnits="userSpaceOnUse"
       spreadMethod="reflect"
       xlink:href="#linearGradient4384" />
    <linearGradient
       id="linearGradient3228"
       x1="90"
       x2="48"
       y1="88"
       y2="88"
       gradientUnits="userSpaceOnUse"
       spreadMethod="reflect">
      <stop
         id="stop3894"
         stop-opacity=".58824"
         offset="0" />
      <stop
         id="stop3896"
         stop-opacity=".47059"
         offset=".1178" />
      <stop
         id="stop3898"
         stop-opacity=".39216"
         offset=".2381" />
      <stop
         id="stop3900"
         stop-opacity=".31373"
         offset="1" />
    </linearGradient>
  </defs>
  <g
     id="layer3">
    <g
       id="g32"
       fill="url(#linearGradient3780)">
      <path
         id="path3786"
         transform="scale(1,-1)"
         d="m12-95.021c-5.5111 0-10.022 4.51-10.022 10.021v71c0 5.5111 4.5104 10.021 10.021 10.021h72c5.5111 0 10.021-4.5104 10.021-10.021v-71c0-5.5111-4.5104-10.021-10.021-10.021h-72z"
         opacity=".08" />
      <path
         id="path3778"
         transform="scale(1,-1)"
         d="m12-94.035c-4.9716 0-9.0352 4.0635-9.0352 9.0352v71c0 4.9716 4.0635 9.0352 9.0352 9.0352h72c4.9716 0 9.0352-4.0635 9.0352-9.0352v-71c0-4.9716-4.0635-9.0352-9.0352-9.0352h-72z"
         opacity=".1" />
      <path
         id="path3770"
         transform="scale(1,-1)"
         d="m12-92.99c-4.4091 0-7.9902 3.5811-7.9902 7.9902v71c0 4.4091 3.5811 7.9902 7.9902 7.9902h72c4.4091 0 7.9902-3.5811 7.9902-7.9902v-71c0-4.4091-3.5811-7.9902-7.9902-7.9902h-72z"
         opacity=".2" />
      <rect
         id="rect3723"
         transform="scale(1,-1)"
         x="5"
         y="-92"
         width="86"
         height="85"
         rx="7"
         ry="7"
         opacity=".3" />
    </g>
    <rect
       id="rect3716"
       transform="scale(1,-1)"
       x="6"
       y="-91"
       width="84"
       height="84"
       rx="6"
       ry="6"
       fill="url(#linearGradient3721)"
       opacity=".45" />
  </g>
  <g
     id="layer1">
    <rect
       id="button"
       x="6"
       y="6"
       width="84"
       height="84"
       rx="6"
       ry="6"
       fill="url(#buttonGradient)" />
    <path
       id="rect4377"
       d="m12 86c-3.324 0-6-2.676-6-6v-68c0-3.324 2.676-6 6-6h72c3.324 0 6 2.676 6 6v68c0 3.324-2.676 6-6 6zm0-0.96875h72c2.8049 0 5.0312-2.2264 5.0312-5.0312v-68c0-2.8049-2.226-5.0312-5.031-5.0312h-72c-2.8049 0-5.0312 2.2263-5.0312 5.0312v68c0 2.8049 2.2264 5.0312 5.0312 5.0312z"
       fill="url(#linearGradient4390)"
       opacity=".3" />
    <path
       id="rect4414"
       d="m6 78v2c0 3.324 2.676 6 6 6h72c3.324 0 6-2.676 6-6v-2c0 3.324-2.676 6-6 6h-72c-3.324 0-6-2.676-6-6z"
       fill="url(#linearGradient4429)"
       opacity=".1" />
  </g>
  <g
     id="layer4">
    <path
       id="path3888"
       d="m6 80v4c0 3.324 2.676 6 6 6h72c3.324 0 6-2.676 6-6v-4c0 3.324-2.676 6-6 6h-72c-3.324 0-6-2.676-6-6z"
       fill="url(#linearGradient3228)" />
    <path
       id="rect4345"
       d="m6 82v2c0 3.324 2.676 6 6 6h72c3.324 0 6-2.676 6-6v-2c0 3.324-2.676 6-6 6h-72c-3.324 0-6-2.676-6-6z"
       color="#000000"
       opacity=".1" />
    <path
       id="rect4336"
       d="m6 83v1c0 3.324 2.676 6 6 6h72c3.324 0 6-2.676 6-6v-1c0 3.324-2.676 6-6 6h-72c-3.324 0-6-2.676-6-6z"
       color="#000000"
       opacity=".15" />
  </g>
  <g
     id="layer5">
    <rect
       id="rect3171"
       x="15"
       y="15"
       width="66"
       height="62"
       rx="12"
       ry="12"
       clip-path="url(#clipPath4355)"
       fill="url(#linearGradient3613)"
       filter="url(#filter3794)"
       opacity=".1"
       stroke="#fff"
       stroke-linecap="round"
       stroke-width=".5" />
  </g>
  <defs
     id="defs53">
    <filter
       id="w">
      <feGaussianBlur
         stdDeviation="0.23199685"
         id="feGaussianBlur45" />
    </filter>
    <linearGradient
       id="a"
       gradientUnits="userSpaceOnUse"
       x1="8"
       y1="0.999963"
       x2="8"
       y2="14.99988">
      <stop
         stop-color="#fafafa"
         offset="0"
         id="stop48" />
      <stop
         stop-color="#ebebeb"
         offset="1"
         id="stop50" />
    </linearGradient>
  </defs>
  <g
     transform="translate(0,-2)"
     id="g75">
    <path
       style="opacity:0.15;fill:#000000"
       d="m 9.4667969,0.75 -0.7695313,0.0332031 a 0.250025,0.250025 0 0 0 -0.00195,0 C 7.6649604,0.82801707 6.4982874,1.0414758 5.75,1.3300781 L 5.1855469,1.546875 A 0.250025,0.250025 0 0 0 5.0332031,1.71875 L 4.8945312,2.2832031 C 4.7567864,2.8427249 4.5497847,3.7992679 4.3769531,4.6230469 4.2905373,5.0349364 4.2126129,5.4139136 4.15625,5.6914062 c -0.028181,0.1387464 -0.050559,0.2517152 -0.066406,0.3320313 -0.00581,0.029448 -0.00977,0.049973 -0.013672,0.070312 -0.047517,0.065518 -0.1288424,0.1134841 -0.2421875,0.2246094 l 0.027344,-0.023437 C 3.16378,6.8127878 2.7512097,7.6312311 2.75,8.5 c 0,1.515813 1.2341874,2.75 2.75,2.75 1.5158126,0 2.75,-1.234187 2.75,-2.75 C 8.2484941,7.8104759 7.9938011,7.1467781 7.5429688,6.6855469 7.3810914,6.51996 7.3040879,6.3636693 7.2558594,5.9042969 7.2076309,5.4449245 7.2094613,4.7151915 7.2246094,3.5253906 L 7.2480469,1.7226562 7.6171875,1.6132812 C 7.8944052,1.529758 8.4551296,1.4065272 8.8203125,1.3515625 l 0.515625,-0.078125 -0.082031,-0.1601563 z m -1.4882813,1 A 0.250025,0.250025 0 0 0 7.75,2.0039062 v 1.8359376 1.8398437 a 0.250025,0.250025 0 0 0 0.1035156,0.2011719 l 0.4882813,0.3574218 c 1.8239791,1.3325311 2.6952091,3.1544247 2.4238281,4.9726568 -0.198166,1.327892 -0.731286,2.302914 -1.7675781,3.220703 L 8.5683594,14.8125 A 0.250025,0.250025 0 0 0 8.734375,15.25 h 0.8574219 c 0.5299471,0 1.0414121,-0.03887 1.3535151,-0.117188 a 0.250025,0.250025 0 0 0 0.002,0 c 0.272385,-0.06899 0.535787,-0.208103 0.746093,-0.371093 0.105154,-0.08149 0.196553,-0.16924 0.269532,-0.265625 0.07298,-0.09638 0.136768,-0.203472 0.136718,-0.351563 -5.3e-5,-0.126128 -0.02879,-0.178142 -0.0625,-0.279297 -0.03371,-0.101154 -0.0781,-0.216693 -0.128906,-0.330078 -0.07525,-0.167963 -0.101438,-0.25369 -0.103515,-0.279297 -0.0021,-0.02561 -6.6e-4,-0.03624 0.04883,-0.136718 0.02183,-0.04435 0.06036,-0.100546 0.09766,-0.144532 0.0373,-0.04398 0.08255,-0.07555 0.06836,-0.06836 0.03917,-0.01988 0.07112,-0.03377 0.113281,-0.0625 0.02108,-0.01436 0.04662,-0.03337 0.07617,-0.07031 0.02955,-0.03694 0.06203,-0.104202 0.06055,-0.177735 -0.003,-0.147066 -0.08366,-0.197739 -0.121093,-0.228515 -0.03744,-0.03078 -0.06939,-0.05186 -0.109376,-0.07813 -0.0033,-0.0022 -0.0065,-0.0037 -0.0098,-0.0059 l 0.267578,-0.191406 a 0.250025,0.250025 0 0 0 0.05859,-0.345703 l -0.150391,-0.216797 c -0.07755,-0.111758 -0.10803,-0.238008 -0.103516,-0.330078 0.0045,-0.09207 0.03279,-0.134314 0.06641,-0.154297 0.04754,-0.02823 0.231305,-0.0792 0.279297,-0.08008 0.164806,-5.01e-4 0.318565,-0.01847 0.455078,-0.103516 0.136512,-0.08505 0.220492,-0.218915 0.285156,-0.363281 0.03689,-0.08236 0.06993,-0.195178 0.05859,-0.316406 -0.01133,-0.121229 -0.05656,-0.2337025 -0.128906,-0.3613285 -0.14469,-0.255252 -0.407887,-0.5972102 -0.890626,-1.2148437 -0.435789,-0.5576233 -0.647235,-0.8668456 -0.679687,-0.96875 -0.01623,-0.050952 -0.01551,-0.023002 -0.0039,-0.042969 0.01161,-0.019967 0.06763,-0.080506 0.166015,-0.1660156 a 0.250025,0.250025 0 0 0 0,-0.00195 l 0.3125,-0.2734374 a 0.250025,0.250025 0 0 0 0.07031,-0.2734376 L 11.910156,6.3769531 C 11.809669,6.1007051 11.649549,5.6619909 11.554688,5.4023438 11.021503,3.9429117 9.6957763,2.4674938 8.3769531,1.8925781 L 8.0996094,1.7714844 A 0.250025,0.250025 0 0 0 7.9785156,1.75 Z M 5.5,7.25 C 6.193321,7.25 6.75,7.806679 6.75,8.5 6.75,9.193321 6.193321,9.75 5.5,9.75 4.806679,9.75 4.25,9.193321 4.25,8.5 4.25,7.806679 4.806679,7.25 5.5,7.25 Z m 0,0.25 C 5.2382006,7.5 4.9780889,7.6078486 4.7929688,7.7929688 4.6078486,7.9780889 4.5,8.2382006 4.5,8.5 4.5,8.7617994 4.6078486,9.0219111 4.7929688,9.2070312 4.9780889,9.3921514 5.2382006,9.5 5.5,9.5 5.7617994,9.5 6.0219111,9.3921514 6.2070312,9.2070312 6.3921514,9.0219111 6.5,8.7617994 6.5,8.5 6.5,8.2382006 6.3921514,7.9780889 6.2070312,7.7929688 6.0219111,7.6078486 5.7617994,7.5 5.5,7.5 Z m 5.435547,7.634766 -0.04883,0.0059 a 0.250025,0.250025 0 0 0 0.04883,-0.0059 z"
       id="path55"
       inkscape:original="m9.4766 1-0.76953 0.033203c-1.0032 0.043633-2.1638 0.25801-2.8672 0.5293l-0.56445 0.2168-0.13867 0.56445c-0.27154 1.103-0.82617 3.827-0.82617 3.8574-0.086081 0.14576-0.23236 0.22784-0.30078 0.29492-0.6343 0.47091-1.0087 1.2139-1.0098 2.0039 0 1.3807 1.1193 2.5 2.5 2.5s2.5-1.1193 2.5-2.5c-0.0013697-0.62714-0.23743-1.2302-0.63672-1.6387-0.39929-0.40844-0.41899-0.95833-0.38867-3.3398l0.025391-1.9844 0.54492-0.16406c0.29971-0.0903 0.85707-0.21215 1.2383-0.26953l0.69336-0.10352zm-1.4766 1v1.8398 1.8398l0.49023 0.35742c1.8817 1.3747 2.81 3.2907 2.5234 5.2109-0.20545 1.3767-0.77818 2.4222-1.8496 3.3711l-0.42969 0.38086h0.85742c0.51589 0 1.0305-0.043511 1.293-0.10938h0.001953c0.45703-0.11576 0.96297-0.50803 0.96289-0.74609-2.9e-5 -0.06841-0.075588-0.29728-0.16992-0.50781-0.15424-0.34429-0.15937-0.40648-0.050782-0.62695 0.06637-0.1348 0.19058-0.2822 0.27734-0.32617 0.15287-0.07756 0.15294-0.082537-0.003906-0.18555-0.0889-0.05855-0.20372-0.12206-0.25586-0.14062-0.05212-0.01853 0.038444-0.13202 0.20312-0.25195l0.30078-0.2168-0.15039-0.2168c-0.21522-0.31014-0.19579-0.70103 0.041016-0.8418 0.10454-0.06207 0.2873-0.11465 0.40625-0.11523 0.28991-8.8e-4 0.4006-0.07028 0.51172-0.31836 0.11518-0.25714 0.034062-0.40364-0.92969-1.6367-0.87295-1.117-0.88972-1.1692-0.48438-1.5215l0.3125-0.27344-0.18164-0.50195c-0.10039-0.27598-0.26064-0.71505-0.35547-0.97461-0.50464-1.3813-1.8162-2.8324-3.043-3.3672l-0.27734-0.12109zm-2.5 5c0.82843 0 1.5 0.67157 1.5 1.5s-0.67157 1.5-1.5 1.5-1.5-0.67157-1.5-1.5 0.67157-1.5 1.5-1.5zm0 0.75a0.75 0.75 0 0 0-0.75 0.75 0.75 0.75 0 0 0 0.75 0.75 0.75 0.75 0 0 0 0.75-0.75 0.75 0.75 0 0 0-0.75-0.75z"
       transform="matrix(4,0,0,4,16,17)"
       inkscape:radius="0.25"
       sodipodi:type="inkscape:offset" />
    <g
       id="Bevel1">
      <path
         fill="#000"
         opacity=".10"
         sodipodi:type="inkscape:offset"
         inkscape:radius="0.5"
         transform="translate(16,17) scale(4)"
         inkscape:original="m9.4766 1-0.76953 0.033203c-1.0032 0.043633-2.1638 0.25801-2.8672 0.5293l-0.56445 0.2168-0.13867 0.56445c-0.27154 1.103-0.82617 3.827-0.82617 3.8574-0.086081 0.14576-0.23236 0.22784-0.30078 0.29492-0.6343 0.47091-1.0087 1.2139-1.0098 2.0039 0 1.3807 1.1193 2.5 2.5 2.5s2.5-1.1193 2.5-2.5c-0.0013697-0.62714-0.23743-1.2302-0.63672-1.6387-0.39929-0.40844-0.41899-0.95833-0.38867-3.3398l0.025391-1.9844 0.54492-0.16406c0.29971-0.0903 0.85707-0.21215 1.2383-0.26953l0.69336-0.10352zm-1.4766 1v1.8398 1.8398l0.49023 0.35742c1.8817 1.3747 2.81 3.2907 2.5234 5.2109-0.20545 1.3767-0.77818 2.4222-1.8496 3.3711l-0.42969 0.38086h0.85742c0.51589 0 1.0305-0.043511 1.293-0.10938h0.001953c0.45703-0.11576 0.96297-0.50803 0.96289-0.74609-2.9e-5 -0.06841-0.075588-0.29728-0.16992-0.50781-0.15424-0.34429-0.15937-0.40648-0.050782-0.62695 0.06637-0.1348 0.19058-0.2822 0.27734-0.32617 0.15287-0.07756 0.15294-0.082537-0.003906-0.18555-0.0889-0.05855-0.20372-0.12206-0.25586-0.14062-0.05212-0.01853 0.038444-0.13202 0.20312-0.25195l0.30078-0.2168-0.15039-0.2168c-0.21522-0.31014-0.19579-0.70103 0.041016-0.8418 0.10454-0.06207 0.2873-0.11465 0.40625-0.11523 0.28991-8.8e-4 0.4006-0.07028 0.51172-0.31836 0.11518-0.25714 0.034062-0.40364-0.92969-1.6367-0.87295-1.117-0.88972-1.1692-0.48438-1.5215l0.3125-0.27344-0.18164-0.50195c-0.10039-0.27598-0.26064-0.71505-0.35547-0.97461-0.50464-1.3813-1.8162-2.8324-3.043-3.3672l-0.27734-0.12109zm-2.5 5c0.82843 0 1.5 0.67157 1.5 1.5s-0.67157 1.5-1.5 1.5-1.5-0.67157-1.5-1.5 0.67157-1.5 1.5-1.5zm0 0.75a0.75 0.75 0 0 0-0.75 0.75 0.75 0.75 0 0 0 0.75 0.75 0.75 0.75 0 0 0 0.75-0.75 0.75 0.75 0 0 0-0.75-0.75z"
         id="path58" />
    </g>
    <g
       id="Bevel2">
      <path
         fill="#000"
         opacity=".05"
         sodipodi:type="inkscape:offset"
         inkscape:radius="0.75"
         transform="translate(16,17) scale(4)"
         inkscape:original="m9.4766 1-0.76953 0.033203c-1.0032 0.043633-2.1638 0.25801-2.8672 0.5293l-0.56445 0.2168-0.13867 0.56445c-0.27154 1.103-0.82617 3.827-0.82617 3.8574-0.086081 0.14576-0.23236 0.22784-0.30078 0.29492-0.6343 0.47091-1.0087 1.2139-1.0098 2.0039 0 1.3807 1.1193 2.5 2.5 2.5s2.5-1.1193 2.5-2.5c-0.0013697-0.62714-0.23743-1.2302-0.63672-1.6387-0.39929-0.40844-0.41899-0.95833-0.38867-3.3398l0.025391-1.9844 0.54492-0.16406c0.29971-0.0903 0.85707-0.21215 1.2383-0.26953l0.69336-0.10352zm-1.4766 1v1.8398 1.8398l0.49023 0.35742c1.8817 1.3747 2.81 3.2907 2.5234 5.2109-0.20545 1.3767-0.77818 2.4222-1.8496 3.3711l-0.42969 0.38086h0.85742c0.51589 0 1.0305-0.043511 1.293-0.10938h0.001953c0.45703-0.11576 0.96297-0.50803 0.96289-0.74609-2.9e-5 -0.06841-0.075588-0.29728-0.16992-0.50781-0.15424-0.34429-0.15937-0.40648-0.050782-0.62695 0.06637-0.1348 0.19058-0.2822 0.27734-0.32617 0.15287-0.07756 0.15294-0.082537-0.003906-0.18555-0.0889-0.05855-0.20372-0.12206-0.25586-0.14062-0.05212-0.01853 0.038444-0.13202 0.20312-0.25195l0.30078-0.2168-0.15039-0.2168c-0.21522-0.31014-0.19579-0.70103 0.041016-0.8418 0.10454-0.06207 0.2873-0.11465 0.40625-0.11523 0.28991-8.8e-4 0.4006-0.07028 0.51172-0.31836 0.11518-0.25714 0.034062-0.40364-0.92969-1.6367-0.87295-1.117-0.88972-1.1692-0.48438-1.5215l0.3125-0.27344-0.18164-0.50195c-0.10039-0.27598-0.26064-0.71505-0.35547-0.97461-0.50464-1.3813-1.8162-2.8324-3.043-3.3672l-0.27734-0.12109zm-2.5 5c0.82843 0 1.5 0.67157 1.5 1.5s-0.67157 1.5-1.5 1.5-1.5-0.67157-1.5-1.5 0.67157-1.5 1.5-1.5zm0 0.75a0.75 0.75 0 0 0-0.75 0.75 0.75 0.75 0 0 0 0.75 0.75 0.75 0.75 0 0 0 0.75-0.75 0.75 0.75 0 0 0-0.75-0.75z"
         id="path61" />
    </g>
    <path
       d="m9.4766 1-0.76953 0.033203c-1.0032 0.043633-2.1638 0.25801-2.8672 0.5293l-0.56445 0.2168-0.13867 0.56445c-0.27154 1.103-0.82617 3.827-0.82617 3.8574-0.086081 0.14576-0.23236 0.22784-0.30078 0.29492-0.6343 0.47091-1.0087 1.2139-1.0098 2.0039 0 1.3807 1.1193 2.5 2.5 2.5s2.5-1.1193 2.5-2.5c-0.0013697-0.62714-0.23743-1.2302-0.63672-1.6387-0.39929-0.40844-0.41899-0.95833-0.38867-3.3398l0.025391-1.9844 0.54492-0.16406c0.29971-0.0903 0.85707-0.21215 1.2383-0.26953l0.69336-0.10352zm-1.4766 1v1.8398 1.8398l0.49023 0.35742c1.8817 1.3747 2.81 3.2907 2.5234 5.2109-0.20545 1.3767-0.77818 2.4222-1.8496 3.3711l-0.42969 0.38086h0.85742c0.51589 0 1.0305-0.043511 1.293-0.10938h0.001953c0.45703-0.11576 0.96297-0.50803 0.96289-0.74609-2.9e-5 -0.06841-0.075588-0.29728-0.16992-0.50781-0.15424-0.34429-0.15937-0.40648-0.050782-0.62695 0.06637-0.1348 0.19058-0.2822 0.27734-0.32617 0.15287-0.07756 0.15294-0.082537-0.003906-0.18555-0.0889-0.05855-0.20372-0.12206-0.25586-0.14062-0.05212-0.01853 0.038444-0.13202 0.20312-0.25195l0.30078-0.2168-0.15039-0.2168c-0.21522-0.31014-0.19579-0.70103 0.041016-0.8418 0.10454-0.06207 0.2873-0.11465 0.40625-0.11523 0.28991-8.8e-4 0.4006-0.07028 0.51172-0.31836 0.11518-0.25714 0.034062-0.40364-0.92969-1.6367-0.87295-1.117-0.88972-1.1692-0.48438-1.5215l0.3125-0.27344-0.18164-0.50195c-0.10039-0.27598-0.26064-0.71505-0.35547-0.97461-0.50464-1.3813-1.8162-2.8324-3.043-3.3672l-0.27734-0.12109zm-2.5 5c0.82843 0 1.5 0.67157 1.5 1.5s-0.67157 1.5-1.5 1.5-1.5-0.67157-1.5-1.5 0.67157-1.5 1.5-1.5zm0 0.75a0.75 0.75 0 0 0-0.75 0.75 0.75 0.75 0 0 0 0.75 0.75 0.75 0.75 0 0 0 0.75-0.75 0.75 0.75 0 0 0-0.75-0.75z"
       fill="url(#a)"
       id="base"
       transform="translate(16,16) scale(4)" />
    <path
       style="opacity:0.3;fill:#000000;stroke-width:4"
       d="M 53.90625 19 L 50.828125 19.132812 C 49.077343 19.208961 47.212084 19.420399 45.425781 19.71875 L 44 20.148438 L 43.898438 28.085938 C 43.866753 30.574543 43.850009 32.543239 43.869141 34.152344 C 43.863495 32.712246 43.872299 31.138958 43.898438 29.085938 L 44 21.148438 L 46.179688 20.492188 C 47.378527 20.130987 49.607892 19.643582 51.132812 19.414062 L 53.90625 19 z M 48 36.71875 L 48 37.71875 L 49.960938 39.148438 C 56.411943 43.861302 60.050494 50.165769 60.240234 56.707031 C 60.412623 49.811189 56.740169 43.101092 49.960938 38.148438 L 48 36.71875 z M 38 42 C 34.68628 42 32 44.68628 32 48 C 32 48.16885 32.011714 48.33468 32.025391 48.5 C 32.280127 45.420888 34.85513 43 38 43 C 41.14487 43 43.719873 45.420888 43.974609 48.5 C 43.988286 48.33468 44 48.16885 44 48 C 44 44.68628 41.31372 42 38 42 z M 63.154297 42.099609 L 62.179688 42.953125 C 61.340868 43.682182 60.967984 44.098929 61.273438 44.941406 C 61.430457 44.627591 61.740819 44.334566 62.179688 43.953125 L 63.429688 42.859375 L 63.154297 42.099609 z M 35.042969 48.486328 A 3 3 0 0 0 35 49 A 3 3 0 0 0 38 52 A 3 3 0 0 0 41 49 A 3 3 0 0 0 40.957031 48.513672 A 3 3 0 0 1 38 51 A 3 3 0 0 1 35.042969 48.486328 z M 47.974609 48.492188 C 47.716066 53.784551 43.356467 58 38 58 C 32.662 58 28.31323 53.813529 28.027344 48.546875 C 28.020229 48.698381 28.000212 48.847517 28 49 C 28 54.5228 32.4772 59 38 59 C 43.5228 59 48 54.5228 48 49 C 47.999627 48.829779 47.983538 48.661309 47.974609 48.492188 z M 67.892578 55.421875 C 67.872545 55.476199 67.861104 55.529753 67.835938 55.585938 C 67.391457 56.578257 66.948702 56.855875 65.789062 56.859375 C 65.313263 56.861695 64.582223 57.072032 64.164062 57.320312 C 63.534013 57.694841 63.297376 58.512489 63.457031 59.382812 C 63.5547 58.926794 63.788059 58.543825 64.164062 58.320312 C 64.582223 58.072032 65.313263 57.861695 65.789062 57.859375 C 66.948702 57.855875 67.391457 57.578257 67.835938 56.585938 C 68.001379 56.216589 68.056756 55.89883 67.892578 55.421875 z M 64.138672 61.888672 L 63.398438 62.421875 C 62.739717 62.901595 62.377457 63.355568 62.585938 63.429688 C 62.697821 63.469514 62.882508 63.563288 63.083984 63.675781 C 63.182331 63.592566 63.27894 63.5089 63.398438 63.421875 L 64.601562 62.554688 L 64.138672 61.888672 z M 63.421875 64.878906 C 63.103058 65.132791 62.733475 65.596601 62.515625 66.039062 C 62.224697 66.629734 62.160575 66.9559 62.320312 67.507812 C 62.369921 67.364834 62.426409 67.220197 62.515625 67.039062 C 62.781105 66.499863 63.27796 65.910255 63.625 65.734375 C 64.23648 65.424135 64.236735 65.404227 63.609375 64.992188 C 63.550498 64.953411 63.484828 64.917864 63.421875 64.878906 z M 63.263672 71.033203 C 62.798025 71.968555 61.106859 73.167376 59.546875 73.5625 L 59.539062 73.5625 C 58.489063 73.82598 56.430748 74 54.367188 74 L 52.066406 74 L 50.9375 75 L 54.367188 75 C 56.430748 75 58.489063 74.82598 59.539062 74.5625 L 59.546875 74.5625 C 61.374995 74.09946 63.398758 72.530365 63.398438 71.578125 C 63.398398 71.485213 63.324486 71.24611 63.263672 71.033203 z "
       transform="translate(0,2)"
       id="path65" />
    <path
       style="fill:#ffffff;stroke-width:4"
       d="M 53.90625 18 L 50.828125 18.132812 C 46.815325 18.307344 42.172975 19.16484 39.359375 20.25 L 37.101562 21.117188 L 36.546875 23.375 C 35.460715 27.787 33.242188 38.683087 33.242188 38.804688 C 32.897863 39.387727 32.312742 39.716055 32.039062 39.984375 C 29.501863 41.868015 28.0044 44.84 28 48 C 28 48.1848 28.017446 48.364545 28.027344 48.546875 C 28.167679 45.558625 29.624293 42.777121 32.039062 40.984375 C 32.312742 40.716055 32.897863 40.387727 33.242188 39.804688 C 33.242188 39.683087 35.460715 28.787 36.546875 24.375 L 37.101562 22.117188 L 39.359375 21.25 C 40.945403 20.638295 43.11787 20.104221 45.425781 19.71875 L 46.179688 19.492188 C 47.378527 19.130987 49.607892 18.643582 51.132812 18.414062 L 53.90625 18 z M 48 22 L 48 23 L 49.109375 23.484375 C 54.016575 25.623575 59.26269 31.427925 61.28125 36.953125 C 61.66057 37.991365 62.301565 39.747643 62.703125 40.851562 L 63.154297 42.099609 L 63.429688 41.859375 L 62.703125 39.851562 C 62.301565 38.747643 61.66057 36.991365 61.28125 35.953125 C 59.26269 30.427925 54.016575 24.623575 49.109375 22.484375 L 48 22 z M 43.869141 34.152344 C 43.88969 39.394205 44.200185 41.163661 45.453125 42.445312 C 46.941908 43.968436 47.851958 46.16896 47.974609 48.492188 C 47.982638 48.327845 48 48.166333 48 48 C 47.9945 45.49144 47.050285 43.079313 45.453125 41.445312 C 44.273218 40.238367 43.923242 38.702569 43.869141 34.152344 z M 61.273438 44.941406 C 60.850361 45.786954 61.570545 46.780457 64.117188 50.039062 C 66.587886 53.200172 67.599555 54.570607 67.892578 55.421875 C 68.239292 54.481699 67.761611 53.701883 64.117188 49.039062 C 62.431888 46.882606 61.558397 45.72736 61.273438 44.941406 z M 38 45 A 3 3 0 0 0 35 48 A 3 3 0 0 0 35.042969 48.486328 A 3 3 0 0 1 38 46 A 3 3 0 0 1 40.957031 48.513672 A 3 3 0 0 0 41 48 A 3 3 0 0 0 38 45 z M 32.025391 48.5 C 32.011714 48.66532 32 48.83115 32 49 C 32 52.31372 34.68628 55 38 55 C 41.31372 55 44 52.31372 44 49 C 44 48.83115 43.988286 48.66532 43.974609 48.5 C 43.719873 51.579112 41.14487 54 38 54 C 34.85513 54 32.280127 51.579112 32.025391 48.5 z M 60.240234 56.707031 C 60.221225 57.467459 60.168549 58.229323 60.054688 58.992188 C 59.232887 64.498987 56.94193 68.680962 52.65625 72.476562 L 50.9375 74 L 52.066406 74 L 52.65625 73.476562 C 56.94193 69.680962 59.232887 65.498987 60.054688 59.992188 C 60.218541 58.894382 60.271876 57.797877 60.240234 56.707031 z M 63.457031 59.382812 C 63.30865 60.075611 63.480843 60.939376 64 61.6875 L 64.138672 61.888672 L 64.601562 61.554688 L 64 60.6875 C 63.711728 60.272089 63.537407 59.820966 63.457031 59.382812 z M 63.083984 63.675781 C 62.640203 64.051287 62.415277 64.369013 62.585938 64.429688 C 62.759966 64.491636 63.10461 64.682567 63.421875 64.878906 C 63.49158 64.823398 63.562737 64.76593 63.625 64.734375 C 64.23648 64.424135 64.236735 64.404227 63.609375 63.992188 C 63.444539 63.883626 63.258077 63.772985 63.083984 63.675781 z M 62.320312 67.507812 C 62.128394 68.060947 62.228511 68.452578 62.71875 69.546875 C 62.967955 70.103062 63.145378 70.619064 63.263672 71.033203 C 63.343709 70.872431 63.398484 70.717793 63.398438 70.578125 C 63.398322 70.304485 63.09607 69.388995 62.71875 68.546875 C 62.515021 68.092118 62.399065 67.779912 62.320312 67.507812 z "
       transform="translate(0,2)"
       id="path70" />
  </g>
</svg>
