<?xml version="1.0" encoding="UTF-8" standalone="no"?>
<svg
   xmlns:dc="http://purl.org/dc/elements/1.1/"
   xmlns:cc="http://creativecommons.org/ns#"
   xmlns:rdf="http://www.w3.org/1999/02/22-rdf-syntax-ns#"
   xmlns:svg="http://www.w3.org/2000/svg"
   xmlns="http://www.w3.org/2000/svg"
   xmlns:xlink="http://www.w3.org/1999/xlink"
   xmlns:sodipodi="http://sodipodi.sourceforge.net/DTD/sodipodi-0.dtd"
   xmlns:inkscape="http://www.inkscape.org/namespaces/inkscape"
   width="96"
   height="96"
   version="1.1"
   id="svg77"
   sodipodi:docname="texstudio.svg"
   inkscape:version="0.92.2 5c3e80d, 2017-08-06">
  <metadata
     id="metadata81">
    <rdf:RDF>
      <cc:Work
         rdf:about="">
        <dc:format>image/svg+xml</dc:format>
        <dc:type
           rdf:resource="http://purl.org/dc/dcmitype/StillImage" />
      </cc:Work>
    </rdf:RDF>
  </metadata>
  <sodipodi:namedview
     pagecolor="#ffffff"
     bordercolor="#666666"
     borderopacity="1"
     objecttolerance="10"
     gridtolerance="10"
     guidetolerance="10"
     inkscape:pageopacity="0"
     inkscape:pageshadow="2"
     inkscape:window-width="640"
     inkscape:window-height="480"
     id="namedview79"
     showgrid="false"
     inkscape:zoom="2.4583333"
     inkscape:cx="48"
     inkscape:cy="48"
     inkscape:window-x="0"
     inkscape:window-y="25"
     inkscape:window-maximized="0"
     inkscape:current-layer="svg77" />
  <defs
     id="defs2410">
    <linearGradient
       id="linearGradient4384">
      <stop
         id="stop4386"
         stop-color="#fff"
         offset="0" />
      <stop
         id="stop4388"
         stop-color="#fff"
         stop-opacity="0"
         offset="1" />
    </linearGradient>
    <filter
       id="filter3794"
       x="-.192"
       y="-.192"
       width="1.384"
       height="1.384">
      <feGaussianBlur
         id="feGaussianBlur3796"
         stdDeviation="5.28" />
    </filter>
    <linearGradient
       id="linearGradient3613"
       x1="48"
       x2="48"
       y1="20.221"
       y2="138.66"
       gradientUnits="userSpaceOnUse">
      <stop
         id="stop3739"
         stop-color="#fff"
         offset="0" />
      <stop
         id="stop3741"
         stop-color="#fff"
         stop-opacity="0"
         offset="1" />
    </linearGradient>
    <linearGradient
       id="buttonGradient"
       x1="48"
       x2="48"
       y1="90"
       y2="5.9877"
       gradientUnits="userSpaceOnUse">
      <stop
         id="stop3702"
         stop-color="#3c3c3c"
         offset="0" />
      <stop
         id="stop3704"
         stop-color="#505050"
         offset="1" />
    </linearGradient>
    <linearGradient
       id="ButtonShadow-0"
       x1="45.448"
       x2="45.448"
       y1="92.54"
       y2="7.0165"
       gradientTransform="matrix(1.0059 0 0 .99417 100 0)"
       gradientUnits="userSpaceOnUse">
      <stop
         id="stop3750-8"
         offset="0" />
      <stop
         id="stop3752-5"
         stop-opacity=".58824"
         offset="1" />
    </linearGradient>
    <linearGradient
       id="linearGradient3780"
       x1="32.251"
       x2="32.251"
       y1="6.1317"
       y2="90.239"
       gradientTransform="matrix(1.0238 0 0 1.0119 -1.1429 -98.071)"
       gradientUnits="userSpaceOnUse"
       xlink:href="#ButtonShadow-0" />
    <linearGradient
       id="linearGradient3721"
       x1="32.251"
       x2="32.251"
       y1="6.1317"
       y2="90.239"
       gradientTransform="translate(0,-97)"
       gradientUnits="userSpaceOnUse"
       xlink:href="#ButtonShadow-0" />
    <clipPath
       id="clipPath4355">
      <rect
         id="rect4357"
         x="6"
         y="6"
         width="84"
         height="80"
         rx="6"
         ry="6"
         fill="#fff" />
    </clipPath>
    <linearGradient
       id="linearGradient4390"
       x1="48"
       x2="48"
       y1="88"
       y2="-40"
       gradientTransform="matrix(1,0,0,-1,0,92)"
       gradientUnits="userSpaceOnUse"
       xlink:href="#linearGradient4384" />
    <linearGradient
       id="linearGradient4429"
       x1="48"
       x2="112.12"
       y1="82"
       y2="82.455"
       gradientUnits="userSpaceOnUse"
       spreadMethod="reflect"
       xlink:href="#linearGradient4384" />
    <linearGradient
       id="linearGradient3228"
       x1="90"
       x2="48"
       y1="88"
       y2="88"
       gradientUnits="userSpaceOnUse"
       spreadMethod="reflect">
      <stop
         id="stop3894"
         stop-opacity=".58824"
         offset="0" />
      <stop
         id="stop3896"
         stop-opacity=".47059"
         offset=".1178" />
      <stop
         id="stop3898"
         stop-opacity=".39216"
         offset=".2381" />
      <stop
         id="stop3900"
         stop-opacity=".31373"
         offset="1" />
    </linearGradient>
  </defs>
  <g
     id="layer3">
    <g
       id="g32"
       fill="url(#linearGradient3780)">
      <path
         id="path3786"
         transform="scale(1,-1)"
         d="m12-95.021c-5.5111 0-10.022 4.51-10.022 10.021v71c0 5.5111 4.5104 10.021 10.021 10.021h72c5.5111 0 10.021-4.5104 10.021-10.021v-71c0-5.5111-4.5104-10.021-10.021-10.021h-72z"
         opacity=".08" />
      <path
         id="path3778"
         transform="scale(1,-1)"
         d="m12-94.035c-4.9716 0-9.0352 4.0635-9.0352 9.0352v71c0 4.9716 4.0635 9.0352 9.0352 9.0352h72c4.9716 0 9.0352-4.0635 9.0352-9.0352v-71c0-4.9716-4.0635-9.0352-9.0352-9.0352h-72z"
         opacity=".1" />
      <path
         id="path3770"
         transform="scale(1,-1)"
         d="m12-92.99c-4.4091 0-7.9902 3.5811-7.9902 7.9902v71c0 4.4091 3.5811 7.9902 7.9902 7.9902h72c4.4091 0 7.9902-3.5811 7.9902-7.9902v-71c0-4.4091-3.5811-7.9902-7.9902-7.9902h-72z"
         opacity=".2" />
      <rect
         id="rect3723"
         transform="scale(1,-1)"
         x="5"
         y="-92"
         width="86"
         height="85"
         rx="7"
         ry="7"
         opacity=".3" />
    </g>
    <rect
       id="rect3716"
       transform="scale(1,-1)"
       x="6"
       y="-91"
       width="84"
       height="84"
       rx="6"
       ry="6"
       fill="url(#linearGradient3721)"
       opacity=".45" />
  </g>
  <g
     id="layer1">
    <rect
       id="button"
       x="6"
       y="6"
       width="84"
       height="84"
       rx="6"
       ry="6"
       fill="url(#buttonGradient)" />
    <path
       id="rect4377"
       d="m12 86c-3.324 0-6-2.676-6-6v-68c0-3.324 2.676-6 6-6h72c3.324 0 6 2.676 6 6v68c0 3.324-2.676 6-6 6zm0-0.96875h72c2.8049 0 5.0312-2.2264 5.0312-5.0312v-68c0-2.8049-2.226-5.0312-5.031-5.0312h-72c-2.8049 0-5.0312 2.2263-5.0312 5.0312v68c0 2.8049 2.2264 5.0312 5.0312 5.0312z"
       fill="url(#linearGradient4390)"
       opacity=".3" />
    <path
       id="rect4414"
       d="m6 78v2c0 3.324 2.676 6 6 6h72c3.324 0 6-2.676 6-6v-2c0 3.324-2.676 6-6 6h-72c-3.324 0-6-2.676-6-6z"
       fill="url(#linearGradient4429)"
       opacity=".1" />
  </g>
  <g
     id="layer4">
    <path
       id="path3888"
       d="m6 80v4c0 3.324 2.676 6 6 6h72c3.324 0 6-2.676 6-6v-4c0 3.324-2.676 6-6 6h-72c-3.324 0-6-2.676-6-6z"
       fill="url(#linearGradient3228)" />
    <path
       id="rect4345"
       d="m6 82v2c0 3.324 2.676 6 6 6h72c3.324 0 6-2.676 6-6v-2c0 3.324-2.676 6-6 6h-72c-3.324 0-6-2.676-6-6z"
       color="#000000"
       opacity=".1" />
    <path
       id="rect4336"
       d="m6 83v1c0 3.324 2.676 6 6 6h72c3.324 0 6-2.676 6-6v-1c0 3.324-2.676 6-6 6h-72c-3.324 0-6-2.676-6-6z"
       color="#000000"
       opacity=".15" />
  </g>
  <g
     id="layer5">
    <rect
       id="rect3171"
       x="15"
       y="15"
       width="66"
       height="62"
       rx="12"
       ry="12"
       clip-path="url(#clipPath4355)"
       fill="url(#linearGradient3613)"
       filter="url(#filter3794)"
       opacity=".1"
       stroke="#fff"
       stroke-linecap="round"
       stroke-width=".5" />
  </g>
  <defs
     id="defs53">
    <filter
       id="w">
      <feGaussianBlur
         stdDeviation="0.23199685"
         id="feGaussianBlur45" />
    </filter>
    <linearGradient
       id="a"
       gradientUnits="userSpaceOnUse"
       x1="8"
       y1="3.999778"
       x2="8"
       y2="11.9999098">
      <stop
         stop-color="#fafafa"
         offset="0"
         id="stop48" />
      <stop
         stop-color="#ebebeb"
         offset="1"
         id="stop50" />
    </linearGradient>
  </defs>
  <g
     transform="translate(0,-2)"
     id="g75">
    <path
       style="opacity:0.15;fill:#000000"
       d="m 9.5996094,3.5507812 0.00391,0.00195 c -0.030652,-0.00316 -0.061145,-0.00316 -0.091797,0 a 0.250025,0.250025 0 0 0 -0.00586,0 l -0.00195,0.00195 a 0.250025,0.250025 0 0 0 -0.15625,0.085937 C 9.2164918,3.7224194 9.1108037,3.8444036 9.1113281,4 v 0.2148438 a 0.250025,0.250025 0 0 0 0,0.00195 c 9.358e-4,0.2344305 0.2128351,0.4463298 0.4472657,0.4472656 a 0.250025,0.250025 0 0 0 0.00195,0 c 0.2182017,0 0.3500406,0.019673 0.3554687,0.021484 0.020863,0.00696 0.0051,0.00129 0.00586,0.00195 7.546e-4,6.674e-4 0.019849,0.020009 0.054687,0.072266 L 11.425781,7.0292969 10.130859,9.046875 C 9.8815,9.4284767 9.6061792,9.4023437 9.4511719,9.4023438 a 0.250025,0.250025 0 0 0 -0.00195,0 C 9.2147882,9.4032795 9.0028889,9.6151789 9.0019531,9.8496094 a 0.250025,0.250025 0 0 0 0,0.00195 v 0.2148435 c 9.57e-5,0.20155 0.169283,0.351657 0.3613281,0.402344 -0.059658,0.236989 -0.1187381,0.497903 -0.1914062,0.587891 -0.1425822,0.17657 -0.338654,0.283203 -0.9414062,0.283203 H 7.1738281 V 9.4003906 h 0.3378907 c 0.166055,0 0.2753855,0.020318 0.3183593,0.035156 0.052988,0.018296 0.023028,-1.237e-4 0.035156,0.017578 -0.011327,-0.016533 0.058594,0.2031057 0.058594,0.556641 a 0.250025,0.250025 0 0 0 0,0.002 c 9.358e-4,0.23443 0.2128351,0.44633 0.4472657,0.447265 a 0.250025,0.250025 0 0 0 0.00195,0 h 0.1328125 c 0.2344305,-9.35e-4 0.448283,-0.212835 0.4492187,-0.447265 a 0.250025,0.250025 0 0 0 0,-0.002 V 7.6953125 a 0.250025,0.250025 0 0 0 0,-0.00195 C 8.9541424,7.4589289 8.7402899,7.2470295 8.5058594,7.2460938 H 8.3730469 a 0.250025,0.250025 0 0 0 -0.00195,0 C 8.1366632,7.2470295 7.9247639,7.4589289 7.9238281,7.6933594 a 0.250025,0.250025 0 0 0 0,0.00195 c 0,0.3464808 -0.07034,0.5606815 -0.056641,0.5410156 -0.012131,0.017413 0.022159,-0.00318 -0.033203,0.015625 -0.044342,0.01506 -0.15631,0.035156 -0.3222656,0.035156 H 7.1738281 V 6.6367188 h 1.0390625 c 0.2921249,0 0.4883587,0.030304 0.6152344,0.074219 0.1268757,0.043915 0.1873233,0.092412 0.2441406,0.1679687 0.1023021,0.1360433 0.1930995,0.5033907 0.25,1.0761719 0.022415,0.2193918 0.2267319,0.4045569 0.4472656,0.4042969 h 0.1503907 c 0.2497561,9.85e-5 0.4706531,-0.2435285 0.4472661,-0.4921875 a 0.250025,0.250025 0 0 0 0,-0.00195 L 10.167969,5.8984375 C 10.145554,5.6790457 9.9412368,5.4938806 9.7207031,5.4941406 H 6.5078125 L 6.4023438,3.9804688 C 6.3860985,3.7564954 6.1776865,3.5628098 5.953125,3.5625 h -4.8125 C 0.91606347,3.5628098 0.70765145,3.7564954 0.69140625,3.9804688 l -0.140625,1.9667968 a 0.250025,0.250025 0 0 0 0,0.00195 C 0.53501664,6.1937108 0.75500072,6.4272622 1,6.4277344 H 1.1503906 C 1.3749522,6.4274246 1.5833642,6.233739 1.5996094,6.0097656 1.6524242,5.2874933 1.7612467,4.9080459 1.8125,4.8457031 c 0.038804,-0.047183 0.056526,-0.064471 0.1933594,-0.097656 0.130241,-0.031583 0.3552173,-0.050781 0.6621094,-0.050781 h 0.1699218 v 4.6835938 c -0.070004,0.00812 -0.1483315,0.017578 -0.2773437,0.017578 H 2.3242188 a 0.250025,0.250025 0 0 0 -0.00195,0 C 2.0878351,9.3993733 1.8759358,9.6112726 1.875,9.8457031 a 0.250025,0.250025 0 0 0 0,0.00195 V 10.0625 c 9.209e-4,0.237372 0.2196857,0.452899 0.4570312,0.449219 a 0.250025,0.250025 0 0 0 0.00195,0 c 0.400382,-0.0083 0.812734,-0.01758 1.2148437,-0.01758 0.4007489,0 0.8167012,0.0093 1.2167969,0.01758 a 0.250025,0.250025 0 0 0 0.00195,0 c 0.2373456,0.0037 0.4561104,-0.211847 0.4570313,-0.449219 V 9.8476562 a 0.250025,0.250025 0 0 0 0,-0.00195 C 5.2236736,9.6112726 5.0117743,9.3993733 4.7773438,9.3984375 a 0.250025,0.250025 0 0 0 -0.00195,0 h -0.234375 c -0.1247035,0 -0.1978912,-0.00956 -0.265625,-0.017578 V 4.6972656 h 0.1582032 c 0.2988079,0 0.5177453,0.019422 0.6464843,0.050781 0.1343843,0.032735 0.1543012,0.05105 0.1933594,0.097656 0.021781,0.025988 0.08886,0.3634938 0.1425781,0.6855469 -0.1954584,0.046675 -0.3644227,0.2068268 -0.3652344,0.4101562 a 0.250025,0.250025 0 0 0 0,0.00195 V 6.1875 c 9.358e-4,0.2344305 0.2128352,0.448283 0.4472657,0.4492188 a 0.250025,0.250025 0 0 0 0.00195,0 c 0.1024409,0 0.167433,0.00425 0.234375,0.00781 v 4.6835938 c -0.066774,0.0039 -0.1315594,0.0078 -0.234375,0.0078 a 0.250025,0.250025 0 0 0 -0.00195,0 c -0.2343932,9.35e-4 -0.4462714,0.212872 -0.4472657,0.447265 a 0.250025,0.250025 0 0 0 0,0.002 V 12 c 9.358e-4,0.234431 0.2128352,0.448283 0.4472657,0.449219 a 0.250025,0.250025 0 0 0 0.00195,0 h 4.3359375 c 0.2153465,0.0013 0.4189255,-0.17351 0.4492185,-0.386719 a 0.250025,0.250025 0 0 0 0,-0.002 l 0.207032,-1.554688 c 0.172106,0.0019 0.364063,0.0022 0.457031,0.0098 a 0.250025,0.250025 0 0 0 0.002,0 c 0.245889,0.01827 0.482113,-0.202652 0.482422,-0.449219 V 9.8515625 C 11.433803,9.6741799 11.301656,9.5333151 11.140625,9.4628906 l 0.925781,-1.4433594 0.939453,1.4726563 c -0.131577,0.081156 -0.237964,0.2037492 -0.238281,0.359375 v 0.2148435 c 6.11e-4,0.243447 0.231525,0.462511 0.47461,0.449219 a 0.250025,0.250025 0 0 0 0.002,0 C 13.480488,10.50068 13.890503,10.5 14.166016,10.5 c 0.216057,0 0.648097,0.0014 0.794922,0.01367 0.247283,0.02082 0.488163,-0.199108 0.488281,-0.447266 V 9.8515625 a 0.250025,0.250025 0 0 0 0,-0.00195 C 15.448282,9.6151116 15.234498,9.4031743 15,9.4023438 c -0.246058,0 -0.37594,-0.028837 -0.359375,-0.021484 -0.0051,-0.00637 -0.01667,-0.022673 -0.04687,-0.068359 a 0.250025,0.250025 0 0 0 -0.01563,-0.021484 l -1.660156,-2.59375 1.074219,-1.6542968 c 5.77e-4,-8.73e-4 0.0014,-0.00108 0.002,-0.00195 a 0.250025,0.250025 0 0 0 0.002,-0.00195 c 0.06625,-0.1002504 0.114905,-0.1819874 0.201172,-0.2460937 0.08776,-0.065215 0.219243,-0.1251503 0.484375,-0.1289063 0.23296,-0.0032 0.442449,-0.2162377 0.443359,-0.4492187 V 4 c -1.18e-4,-0.2481578 -0.240998,-0.4700371 -0.488281,-0.4492188 -0.147362,0.013031 -0.470477,0.017578 -0.667969,0.017578 -0.273044,0 -0.620992,-0.00392 -0.789062,-0.017578 C 12.933798,3.5325123 12.695621,3.7534332 12.695312,4 v 0.2148438 c -2.08e-4,0.1767883 0.130802,0.317836 0.291016,0.3886718 L 12.277344,5.6992188 11.556641,4.5722656 c 0.130718,-0.081219 0.235794,-0.2025138 0.236328,-0.3574218 V 4 C 11.792355,3.7565926 11.561408,3.5375526 11.318359,3.5507812 a 0.250025,0.250025 0 0 0 -0.002,0 c -0.238615,0.015087 -0.648459,0.017578 -0.921875,0.017578 -0.213333,0 -0.6463714,-0.00512 -0.7949216,-0.017578 z"
       id="path55"
       inkscape:original="m9.5371 3.8008a0.20002 0.20002 0 0 0-0.17578 0.19922v0.21484a0.20002 0.20002 0 0 0 0.19922 0.19922c0.22615 0 0.36251 0.010785 0.43555 0.035156 0.073037 0.024371 0.11006 0.0528 0.18945 0.17188l1.5371 2.4082-1.3809 2.1523c-0.30829 0.47487-0.7398 0.4707-0.89063 0.4707a0.20002 0.20002 0 0 0-0.19922 0.19922v0.21484a0.20002 0.20002 0 0 0 0.2168 0.19922c0.053754-0.0048 0.14616-0.0045 0.22266-0.0059-0.073619 0.41605-0.16247 0.75282-0.32422 0.95312-0.19377 0.23996-0.49819 0.37695-1.1367 0.37695h-1.1582c-0.070916 0-0.11523-0.0058-0.14258-0.0098-0.00311-0.0289-0.00586-0.07424-0.00586-0.14258v-2.287h0.58789c0.18351 0 0.31464 0.019219 0.40039 0.048828 0.08575 0.029609 0.12604 0.06348 0.16016 0.11328 0.068242 0.099603 0.10156 0.32867 0.10156 0.69727a0.20002 0.20002 0 0 0 0.19922 0.19922h0.13281a0.20002 0.20002 0 0 0 0.19922-0.19922v-2.3145a0.20002 0.20002 0 0 0-0.19922-0.19922h-0.13281a0.20002 0.20002 0 0 0-0.19922 0.19922c0 0.3622-0.034161 0.58684-0.10156 0.68359-0.033701 0.048375-0.072091 0.080129-0.1582 0.10938-0.086112 0.029246-0.21862 0.048828-0.40234 0.048828h-0.58789v-2.0059c0-0.064955 0.00301-0.10667 0.00586-0.13477 0.027819-0.00393 0.071473-0.00977 0.14258-0.00977h1.1406c0.61663 0 0.89166 0.1198 1.0586 0.3418 0.16694 0.222 0.24096 0.61866 0.29883 1.2012a0.20002 0.20002 0 0 0 0.19922 0.17969h0.15039a0.20002 0.20002 0 0 0 0.19922-0.21875l-0.19922-1.9668a0.20002 0.20002 0 0 0-0.19922-0.17969h-3.4453l-0.12305-1.7461a0.20002 0.20002 0 0 0-0.19922-0.18555h-4.8125a0.20002 0.20002 0 0 0-0.19922 0.18555l-0.14062 1.9668a0.20002 0.20002 0 0 0 0.19922 0.21289h0.15039a0.20002 0.20002 0 0 0 0.19922-0.18555c0.053532-0.73208 0.12607-1.1302 0.26953-1.3047 0.071732-0.087222 0.16166-0.14127 0.32812-0.18164 0.16647-0.040368 0.40421-0.058594 0.7207-0.058594h0.41211c2e-3 0.018784 0.00781 0.055668 0.00781 0.14062v4.8398c0 0.077814-0.00453 0.13279-0.00977 0.1543s0.00315 0.00685-0.00391 0.011719c-0.01411 0.00974-0.17196 0.054687-0.51367 0.054687h-0.23632a0.20002 0.20002 0 0 0-0.19922 0.19922v0.21484a0.20002 0.20002 0 0 0 0.20312 0.19922c0.4001-0.0083 0.81478-0.01758 1.2207-0.01758 0.40458 0 0.82287 0.0093 1.2227 0.01758a0.20002 0.20002 0 0 0 0.20312-0.19922v-0.21484a0.20002 0.20002 0 0 0-0.19922-0.19922h-0.23438c-0.33636 0-0.48962-0.046023-0.50195-0.054687-0.00617-0.00433 0.00134 0.010274-0.00391-0.011719-0.00524-0.021993-0.00977-0.076348-0.00977-0.1543v-4.8398c0-0.082682 0.00357-0.12128 0.00586-0.14062h0.40234c0.30886 0 0.54101 0.018628 0.70508 0.058594s0.25417 0.093776 0.32617 0.17969c0.12559 0.14985 0.1961 0.50779 0.24805 1.0586h-0.21288a0.20002 0.20002 0 0 0-0.19922 0.19922v0.24414a0.20002 0.20002 0 0 0 0.19922 0.19922c0.29533 0 0.46055 0.021153 0.47266 0.027344 0.00605 0.0031-0.00993-0.016867-0.00391 0.00195 0.00603 0.018821 0.015625 0.077778 0.015625 0.16992v4.7988c0 0.09227-0.00952 0.1507-0.015625 0.16992-0.0061 0.01923 0.00985-0.0011 0.00391 2e-3 -0.011894 0.0062-0.17687 0.0293-0.47266 0.0293a0.20002 0.20002 0 0 0-0.19922 0.19917v0.21484a0.20002 0.20002 0 0 0 0.19922 0.19922h4.3379a0.20002 0.20002 0 0 0 0.19922-0.17188l0.23633-1.7773c0.22816 6.11e-4 0.53422 0.0025 0.69531 0.01563a0.20002 0.20002 0 0 0 0.21484-0.19922v-0.21485a0.20002 0.20002 0 0 0-0.17969-0.19922c-0.08515-0.00876-0.1073-0.031845-0.125-0.054688-0.0177-0.022842-0.0293-0.059497-0.0293-0.095703 0-0.066276 0.0083-0.065025 0.05078-0.12891a0.20002 0.20002 0 0 0 2e-3 -0.00391l1.1641-1.8145 1.2832 2.0117a0.20002 0.20002 0 0 0 2e-3 0.00391c0.01497 0.022452 0.01442 0.021649 0.01953 0.03125-0.01767 0.017185-0.05742 0.043968-0.16602 0.050781a0.20002 0.20002 0 0 0-0.1875 0.19922v0.21484a0.20002 0.20002 0 0 0 0.21094 0.19922c0.2535-0.01603 0.66223-0.01563 0.9375-0.01563 0.21657 0 0.63767 6.66e-4 0.81641 0.01563a0.20002 0.20002 0 0 0 0.2168-0.19922v-0.21484a0.20002 0.20002 0 0 0-0.19931-0.19922c-0.26168 0-0.39775-0.016158-0.45703-0.039063-0.05857-0.022629-0.08334-0.048874-0.1582-0.16211l-2e-3 -0.00195-1.7617-2.752 1.1641-1.793h-2e-3c0.12436-0.18786 0.28473-0.4816 0.89462-0.49024a0.20002 0.20002 0 0 0 0.19727-0.19922v-0.21484a0.20002 0.20002 0 0 0-0.2168-0.19922c-0.17202 0.015211-0.48998 0.017578-0.68945 0.017578-0.27432 0-0.61813-0.0021-0.80859-0.017578a0.20002 0.20002 0 0 0-0.21484 0.19922v0.21484a0.20002 0.20002 0 0 0 0.17969 0.19922c0.0913 0.00909 0.11189 0.030852 0.12695 0.050781 0.01506 0.019929 0.02539 0.056312 0.02539 0.097656 0 0.055665-0.01213 0.075317-0.06641 0.15625a0.20002 0.20002 0 0 0-2e-3 0.00195l-0.93359 1.4414-1.0605-1.6582-0.0039-0.00586c-0.01093-0.018587-0.01168-0.024143-0.01758-0.035156 0.01897-0.018255 0.05793-0.045886 0.15625-0.048828a0.20002 0.20002 0 0 0 0.19336-0.19922v-0.21484a0.20002 0.20002 0 0 0-0.21089-0.19922c-0.25447 0.016089-0.66318 0.017578-0.9375 0.017578-0.21533 0-0.63758-0.00258-0.81641-0.017578a0.20002 0.20002 0 0 0-0.041016 0z"
       inkscape:radius="0.25"
       sodipodi:type="inkscape:offset"
       transform="matrix(4,0,0,4,16,17)" />
    <g
       id="Bevel1">
      <path
         transform="translate(16,17) scale(4)"
         fill="#000"
         opacity=".10"
         sodipodi:type="inkscape:offset"
         inkscape:radius="0.5"
         inkscape:original="m9.5371 3.8008a0.20002 0.20002 0 0 0-0.17578 0.19922v0.21484a0.20002 0.20002 0 0 0 0.19922 0.19922c0.22615 0 0.36251 0.010785 0.43555 0.035156 0.073037 0.024371 0.11006 0.0528 0.18945 0.17188l1.5371 2.4082-1.3809 2.1523c-0.30829 0.47487-0.7398 0.4707-0.89063 0.4707a0.20002 0.20002 0 0 0-0.19922 0.19922v0.21484a0.20002 0.20002 0 0 0 0.2168 0.19922c0.053754-0.0048 0.14616-0.0045 0.22266-0.0059-0.073619 0.41605-0.16247 0.75282-0.32422 0.95312-0.19377 0.23996-0.49819 0.37695-1.1367 0.37695h-1.1582c-0.070916 0-0.11523-0.0058-0.14258-0.0098-0.00311-0.0289-0.00586-0.07424-0.00586-0.14258v-2.287h0.58789c0.18351 0 0.31464 0.019219 0.40039 0.048828 0.08575 0.029609 0.12604 0.06348 0.16016 0.11328 0.068242 0.099603 0.10156 0.32867 0.10156 0.69727a0.20002 0.20002 0 0 0 0.19922 0.19922h0.13281a0.20002 0.20002 0 0 0 0.19922-0.19922v-2.3145a0.20002 0.20002 0 0 0-0.19922-0.19922h-0.13281a0.20002 0.20002 0 0 0-0.19922 0.19922c0 0.3622-0.034161 0.58684-0.10156 0.68359-0.033701 0.048375-0.072091 0.080129-0.1582 0.10938-0.086112 0.029246-0.21862 0.048828-0.40234 0.048828h-0.58789v-2.0059c0-0.064955 0.00301-0.10667 0.00586-0.13477 0.027819-0.00393 0.071473-0.00977 0.14258-0.00977h1.1406c0.61663 0 0.89166 0.1198 1.0586 0.3418 0.16694 0.222 0.24096 0.61866 0.29883 1.2012a0.20002 0.20002 0 0 0 0.19922 0.17969h0.15039a0.20002 0.20002 0 0 0 0.19922-0.21875l-0.19922-1.9668a0.20002 0.20002 0 0 0-0.19922-0.17969h-3.4453l-0.12305-1.7461a0.20002 0.20002 0 0 0-0.19922-0.18555h-4.8125a0.20002 0.20002 0 0 0-0.19922 0.18555l-0.14062 1.9668a0.20002 0.20002 0 0 0 0.19922 0.21289h0.15039a0.20002 0.20002 0 0 0 0.19922-0.18555c0.053532-0.73208 0.12607-1.1302 0.26953-1.3047 0.071732-0.087222 0.16166-0.14127 0.32812-0.18164 0.16647-0.040368 0.40421-0.058594 0.7207-0.058594h0.41211c2e-3 0.018784 0.00781 0.055668 0.00781 0.14062v4.8398c0 0.077814-0.00453 0.13279-0.00977 0.1543s0.00315 0.00685-0.00391 0.011719c-0.01411 0.00974-0.17196 0.054687-0.51367 0.054687h-0.23632a0.20002 0.20002 0 0 0-0.19922 0.19922v0.21484a0.20002 0.20002 0 0 0 0.20312 0.19922c0.4001-0.0083 0.81478-0.01758 1.2207-0.01758 0.40458 0 0.82287 0.0093 1.2227 0.01758a0.20002 0.20002 0 0 0 0.20312-0.19922v-0.21484a0.20002 0.20002 0 0 0-0.19922-0.19922h-0.23438c-0.33636 0-0.48962-0.046023-0.50195-0.054687-0.00617-0.00433 0.00134 0.010274-0.00391-0.011719-0.00524-0.021993-0.00977-0.076348-0.00977-0.1543v-4.8398c0-0.082682 0.00357-0.12128 0.00586-0.14062h0.40234c0.30886 0 0.54101 0.018628 0.70508 0.058594s0.25417 0.093776 0.32617 0.17969c0.12559 0.14985 0.1961 0.50779 0.24805 1.0586h-0.21288a0.20002 0.20002 0 0 0-0.19922 0.19922v0.24414a0.20002 0.20002 0 0 0 0.19922 0.19922c0.29533 0 0.46055 0.021153 0.47266 0.027344 0.00605 0.0031-0.00993-0.016867-0.00391 0.00195 0.00603 0.018821 0.015625 0.077778 0.015625 0.16992v4.7988c0 0.09227-0.00952 0.1507-0.015625 0.16992-0.0061 0.01923 0.00985-0.0011 0.00391 2e-3 -0.011894 0.0062-0.17687 0.0293-0.47266 0.0293a0.20002 0.20002 0 0 0-0.19922 0.19917v0.21484a0.20002 0.20002 0 0 0 0.19922 0.19922h4.3379a0.20002 0.20002 0 0 0 0.19922-0.17188l0.23633-1.7773c0.22816 6.11e-4 0.53422 0.0025 0.69531 0.01563a0.20002 0.20002 0 0 0 0.21484-0.19922v-0.21485a0.20002 0.20002 0 0 0-0.17969-0.19922c-0.08515-0.00876-0.1073-0.031845-0.125-0.054688-0.0177-0.022842-0.0293-0.059497-0.0293-0.095703 0-0.066276 0.0083-0.065025 0.05078-0.12891a0.20002 0.20002 0 0 0 2e-3 -0.00391l1.1641-1.8145 1.2832 2.0117a0.20002 0.20002 0 0 0 2e-3 0.00391c0.01497 0.022452 0.01442 0.021649 0.01953 0.03125-0.01767 0.017185-0.05742 0.043968-0.16602 0.050781a0.20002 0.20002 0 0 0-0.1875 0.19922v0.21484a0.20002 0.20002 0 0 0 0.21094 0.19922c0.2535-0.01603 0.66223-0.01563 0.9375-0.01563 0.21657 0 0.63767 6.66e-4 0.81641 0.01563a0.20002 0.20002 0 0 0 0.2168-0.19922v-0.21484a0.20002 0.20002 0 0 0-0.19931-0.19922c-0.26168 0-0.39775-0.016158-0.45703-0.039063-0.05857-0.022629-0.08334-0.048874-0.1582-0.16211l-2e-3 -0.00195-1.7617-2.752 1.1641-1.793h-2e-3c0.12436-0.18786 0.28473-0.4816 0.89462-0.49024a0.20002 0.20002 0 0 0 0.19727-0.19922v-0.21484a0.20002 0.20002 0 0 0-0.2168-0.19922c-0.17202 0.015211-0.48998 0.017578-0.68945 0.017578-0.27432 0-0.61813-0.0021-0.80859-0.017578a0.20002 0.20002 0 0 0-0.21484 0.19922v0.21484a0.20002 0.20002 0 0 0 0.17969 0.19922c0.0913 0.00909 0.11189 0.030852 0.12695 0.050781 0.01506 0.019929 0.02539 0.056312 0.02539 0.097656 0 0.055665-0.01213 0.075317-0.06641 0.15625a0.20002 0.20002 0 0 0-2e-3 0.00195l-0.93359 1.4414-1.0605-1.6582-0.0039-0.00586c-0.01093-0.018587-0.01168-0.024143-0.01758-0.035156 0.01897-0.018255 0.05793-0.045886 0.15625-0.048828a0.20002 0.20002 0 0 0 0.19336-0.19922v-0.21484a0.20002 0.20002 0 0 0-0.21089-0.19922c-0.25447 0.016089-0.66318 0.017578-0.9375 0.017578-0.21533 0-0.63758-0.00258-0.81641-0.017578a0.20002 0.20002 0 0 0-0.041016 0z"
         id="path58" />
    </g>
    <g
       id="Bevel2">
      <path
         transform="translate(16,17) scale(4)"
         fill="#000"
         opacity=".05"
         sodipodi:type="inkscape:offset"
         inkscape:radius="0.75"
         inkscape:original="m9.5371 3.8008a0.20002 0.20002 0 0 0-0.17578 0.19922v0.21484a0.20002 0.20002 0 0 0 0.19922 0.19922c0.22615 0 0.36251 0.010785 0.43555 0.035156 0.073037 0.024371 0.11006 0.0528 0.18945 0.17188l1.5371 2.4082-1.3809 2.1523c-0.30829 0.47487-0.7398 0.4707-0.89063 0.4707a0.20002 0.20002 0 0 0-0.19922 0.19922v0.21484a0.20002 0.20002 0 0 0 0.2168 0.19922c0.053754-0.0048 0.14616-0.0045 0.22266-0.0059-0.073619 0.41605-0.16247 0.75282-0.32422 0.95312-0.19377 0.23996-0.49819 0.37695-1.1367 0.37695h-1.1582c-0.070916 0-0.11523-0.0058-0.14258-0.0098-0.00311-0.0289-0.00586-0.07424-0.00586-0.14258v-2.287h0.58789c0.18351 0 0.31464 0.019219 0.40039 0.048828 0.08575 0.029609 0.12604 0.06348 0.16016 0.11328 0.068242 0.099603 0.10156 0.32867 0.10156 0.69727a0.20002 0.20002 0 0 0 0.19922 0.19922h0.13281a0.20002 0.20002 0 0 0 0.19922-0.19922v-2.3145a0.20002 0.20002 0 0 0-0.19922-0.19922h-0.13281a0.20002 0.20002 0 0 0-0.19922 0.19922c0 0.3622-0.034161 0.58684-0.10156 0.68359-0.033701 0.048375-0.072091 0.080129-0.1582 0.10938-0.086112 0.029246-0.21862 0.048828-0.40234 0.048828h-0.58789v-2.0059c0-0.064955 0.00301-0.10667 0.00586-0.13477 0.027819-0.00393 0.071473-0.00977 0.14258-0.00977h1.1406c0.61663 0 0.89166 0.1198 1.0586 0.3418 0.16694 0.222 0.24096 0.61866 0.29883 1.2012a0.20002 0.20002 0 0 0 0.19922 0.17969h0.15039a0.20002 0.20002 0 0 0 0.19922-0.21875l-0.19922-1.9668a0.20002 0.20002 0 0 0-0.19922-0.17969h-3.4453l-0.12305-1.7461a0.20002 0.20002 0 0 0-0.19922-0.18555h-4.8125a0.20002 0.20002 0 0 0-0.19922 0.18555l-0.14062 1.9668a0.20002 0.20002 0 0 0 0.19922 0.21289h0.15039a0.20002 0.20002 0 0 0 0.19922-0.18555c0.053532-0.73208 0.12607-1.1302 0.26953-1.3047 0.071732-0.087222 0.16166-0.14127 0.32812-0.18164 0.16647-0.040368 0.40421-0.058594 0.7207-0.058594h0.41211c2e-3 0.018784 0.00781 0.055668 0.00781 0.14062v4.8398c0 0.077814-0.00453 0.13279-0.00977 0.1543s0.00315 0.00685-0.00391 0.011719c-0.01411 0.00974-0.17196 0.054687-0.51367 0.054687h-0.23632a0.20002 0.20002 0 0 0-0.19922 0.19922v0.21484a0.20002 0.20002 0 0 0 0.20312 0.19922c0.4001-0.0083 0.81478-0.01758 1.2207-0.01758 0.40458 0 0.82287 0.0093 1.2227 0.01758a0.20002 0.20002 0 0 0 0.20312-0.19922v-0.21484a0.20002 0.20002 0 0 0-0.19922-0.19922h-0.23438c-0.33636 0-0.48962-0.046023-0.50195-0.054687-0.00617-0.00433 0.00134 0.010274-0.00391-0.011719-0.00524-0.021993-0.00977-0.076348-0.00977-0.1543v-4.8398c0-0.082682 0.00357-0.12128 0.00586-0.14062h0.40234c0.30886 0 0.54101 0.018628 0.70508 0.058594s0.25417 0.093776 0.32617 0.17969c0.12559 0.14985 0.1961 0.50779 0.24805 1.0586h-0.21288a0.20002 0.20002 0 0 0-0.19922 0.19922v0.24414a0.20002 0.20002 0 0 0 0.19922 0.19922c0.29533 0 0.46055 0.021153 0.47266 0.027344 0.00605 0.0031-0.00993-0.016867-0.00391 0.00195 0.00603 0.018821 0.015625 0.077778 0.015625 0.16992v4.7988c0 0.09227-0.00952 0.1507-0.015625 0.16992-0.0061 0.01923 0.00985-0.0011 0.00391 2e-3 -0.011894 0.0062-0.17687 0.0293-0.47266 0.0293a0.20002 0.20002 0 0 0-0.19922 0.19917v0.21484a0.20002 0.20002 0 0 0 0.19922 0.19922h4.3379a0.20002 0.20002 0 0 0 0.19922-0.17188l0.23633-1.7773c0.22816 6.11e-4 0.53422 0.0025 0.69531 0.01563a0.20002 0.20002 0 0 0 0.21484-0.19922v-0.21485a0.20002 0.20002 0 0 0-0.17969-0.19922c-0.08515-0.00876-0.1073-0.031845-0.125-0.054688-0.0177-0.022842-0.0293-0.059497-0.0293-0.095703 0-0.066276 0.0083-0.065025 0.05078-0.12891a0.20002 0.20002 0 0 0 2e-3 -0.00391l1.1641-1.8145 1.2832 2.0117a0.20002 0.20002 0 0 0 2e-3 0.00391c0.01497 0.022452 0.01442 0.021649 0.01953 0.03125-0.01767 0.017185-0.05742 0.043968-0.16602 0.050781a0.20002 0.20002 0 0 0-0.1875 0.19922v0.21484a0.20002 0.20002 0 0 0 0.21094 0.19922c0.2535-0.01603 0.66223-0.01563 0.9375-0.01563 0.21657 0 0.63767 6.66e-4 0.81641 0.01563a0.20002 0.20002 0 0 0 0.2168-0.19922v-0.21484a0.20002 0.20002 0 0 0-0.19931-0.19922c-0.26168 0-0.39775-0.016158-0.45703-0.039063-0.05857-0.022629-0.08334-0.048874-0.1582-0.16211l-2e-3 -0.00195-1.7617-2.752 1.1641-1.793h-2e-3c0.12436-0.18786 0.28473-0.4816 0.89462-0.49024a0.20002 0.20002 0 0 0 0.19727-0.19922v-0.21484a0.20002 0.20002 0 0 0-0.2168-0.19922c-0.17202 0.015211-0.48998 0.017578-0.68945 0.017578-0.27432 0-0.61813-0.0021-0.80859-0.017578a0.20002 0.20002 0 0 0-0.21484 0.19922v0.21484a0.20002 0.20002 0 0 0 0.17969 0.19922c0.0913 0.00909 0.11189 0.030852 0.12695 0.050781 0.01506 0.019929 0.02539 0.056312 0.02539 0.097656 0 0.055665-0.01213 0.075317-0.06641 0.15625a0.20002 0.20002 0 0 0-2e-3 0.00195l-0.93359 1.4414-1.0605-1.6582-0.0039-0.00586c-0.01093-0.018587-0.01168-0.024143-0.01758-0.035156 0.01897-0.018255 0.05793-0.045886 0.15625-0.048828a0.20002 0.20002 0 0 0 0.19336-0.19922v-0.21484a0.20002 0.20002 0 0 0-0.21089-0.19922c-0.25447 0.016089-0.66318 0.017578-0.9375 0.017578-0.21533 0-0.63758-0.00258-0.81641-0.017578a0.20002 0.20002 0 0 0-0.041016 0z"
         id="path61" />
    </g>
    <path
       transform="translate(16,16) scale(4)"
       d="m9.5371 3.8008a0.20002 0.20002 0 0 0-0.17578 0.19922v0.21484a0.20002 0.20002 0 0 0 0.19922 0.19922c0.22615 0 0.36251 0.010785 0.43555 0.035156 0.073037 0.024371 0.11006 0.0528 0.18945 0.17188l1.5371 2.4082-1.3809 2.1523c-0.30829 0.47487-0.7398 0.4707-0.89063 0.4707a0.20002 0.20002 0 0 0-0.19922 0.19922v0.21484a0.20002 0.20002 0 0 0 0.2168 0.19922c0.053754-0.0048 0.14616-0.0045 0.22266-0.0059-0.073619 0.41605-0.16247 0.75282-0.32422 0.95312-0.19377 0.23996-0.49819 0.37695-1.1367 0.37695h-1.1582c-0.070916 0-0.11523-0.0058-0.14258-0.0098-0.00311-0.0289-0.00586-0.07424-0.00586-0.14258v-2.287h0.58789c0.18351 0 0.31464 0.019219 0.40039 0.048828 0.08575 0.029609 0.12604 0.06348 0.16016 0.11328 0.068242 0.099603 0.10156 0.32867 0.10156 0.69727a0.20002 0.20002 0 0 0 0.19922 0.19922h0.13281a0.20002 0.20002 0 0 0 0.19922-0.19922v-2.3145a0.20002 0.20002 0 0 0-0.19922-0.19922h-0.13281a0.20002 0.20002 0 0 0-0.19922 0.19922c0 0.3622-0.034161 0.58684-0.10156 0.68359-0.033701 0.048375-0.072091 0.080129-0.1582 0.10938-0.086112 0.029246-0.21862 0.048828-0.40234 0.048828h-0.58789v-2.0059c0-0.064955 0.00301-0.10667 0.00586-0.13477 0.027819-0.00393 0.071473-0.00977 0.14258-0.00977h1.1406c0.61663 0 0.89166 0.1198 1.0586 0.3418 0.16694 0.222 0.24096 0.61866 0.29883 1.2012a0.20002 0.20002 0 0 0 0.19922 0.17969h0.15039a0.20002 0.20002 0 0 0 0.19922-0.21875l-0.19922-1.9668a0.20002 0.20002 0 0 0-0.19922-0.17969h-3.4453l-0.12305-1.7461a0.20002 0.20002 0 0 0-0.19922-0.18555h-4.8125a0.20002 0.20002 0 0 0-0.19922 0.18555l-0.14062 1.9668a0.20002 0.20002 0 0 0 0.19922 0.21289h0.15039a0.20002 0.20002 0 0 0 0.19922-0.18555c0.053532-0.73208 0.12607-1.1302 0.26953-1.3047 0.071732-0.087222 0.16166-0.14127 0.32812-0.18164 0.16647-0.040368 0.40421-0.058594 0.7207-0.058594h0.41211c2e-3 0.018784 0.00781 0.055668 0.00781 0.14062v4.8398c0 0.077814-0.00453 0.13279-0.00977 0.1543s0.00315 0.00685-0.00391 0.011719c-0.01411 0.00974-0.17196 0.054687-0.51367 0.054687h-0.23632a0.20002 0.20002 0 0 0-0.19922 0.19922v0.21484a0.20002 0.20002 0 0 0 0.20312 0.19922c0.4001-0.0083 0.81478-0.01758 1.2207-0.01758 0.40458 0 0.82287 0.0093 1.2227 0.01758a0.20002 0.20002 0 0 0 0.20312-0.19922v-0.21484a0.20002 0.20002 0 0 0-0.19922-0.19922h-0.23438c-0.33636 0-0.48962-0.046023-0.50195-0.054687-0.00617-0.00433 0.00134 0.010274-0.00391-0.011719-0.00524-0.021993-0.00977-0.076348-0.00977-0.1543v-4.8398c0-0.082682 0.00357-0.12128 0.00586-0.14062h0.40234c0.30886 0 0.54101 0.018628 0.70508 0.058594s0.25417 0.093776 0.32617 0.17969c0.12559 0.14985 0.1961 0.50779 0.24805 1.0586h-0.21288a0.20002 0.20002 0 0 0-0.19922 0.19922v0.24414a0.20002 0.20002 0 0 0 0.19922 0.19922c0.29533 0 0.46055 0.021153 0.47266 0.027344 0.00605 0.0031-0.00993-0.016867-0.00391 0.00195 0.00603 0.018821 0.015625 0.077778 0.015625 0.16992v4.7988c0 0.09227-0.00952 0.1507-0.015625 0.16992-0.0061 0.01923 0.00985-0.0011 0.00391 2e-3 -0.011894 0.0062-0.17687 0.0293-0.47266 0.0293a0.20002 0.20002 0 0 0-0.19922 0.19917v0.21484a0.20002 0.20002 0 0 0 0.19922 0.19922h4.3379a0.20002 0.20002 0 0 0 0.19922-0.17188l0.23633-1.7773c0.22816 6.11e-4 0.53422 0.0025 0.69531 0.01563a0.20002 0.20002 0 0 0 0.21484-0.19922v-0.21485a0.20002 0.20002 0 0 0-0.17969-0.19922c-0.08515-0.00876-0.1073-0.031845-0.125-0.054688-0.0177-0.022842-0.0293-0.059497-0.0293-0.095703 0-0.066276 0.0083-0.065025 0.05078-0.12891a0.20002 0.20002 0 0 0 2e-3 -0.00391l1.1641-1.8145 1.2832 2.0117a0.20002 0.20002 0 0 0 2e-3 0.00391c0.01497 0.022452 0.01442 0.021649 0.01953 0.03125-0.01767 0.017185-0.05742 0.043968-0.16602 0.050781a0.20002 0.20002 0 0 0-0.1875 0.19922v0.21484a0.20002 0.20002 0 0 0 0.21094 0.19922c0.2535-0.01603 0.66223-0.01563 0.9375-0.01563 0.21657 0 0.63767 6.66e-4 0.81641 0.01563a0.20002 0.20002 0 0 0 0.2168-0.19922v-0.21484a0.20002 0.20002 0 0 0-0.19931-0.19922c-0.26168 0-0.39775-0.016158-0.45703-0.039063-0.05857-0.022629-0.08334-0.048874-0.1582-0.16211l-2e-3 -0.00195-1.7617-2.752 1.1641-1.793h-2e-3c0.12436-0.18786 0.28473-0.4816 0.89462-0.49024a0.20002 0.20002 0 0 0 0.19727-0.19922v-0.21484a0.20002 0.20002 0 0 0-0.2168-0.19922c-0.17202 0.015211-0.48998 0.017578-0.68945 0.017578-0.27432 0-0.61813-0.0021-0.80859-0.017578a0.20002 0.20002 0 0 0-0.21484 0.19922v0.21484a0.20002 0.20002 0 0 0 0.17969 0.19922c0.0913 0.00909 0.11189 0.030852 0.12695 0.050781 0.01506 0.019929 0.02539 0.056312 0.02539 0.097656 0 0.055665-0.01213 0.075317-0.06641 0.15625a0.20002 0.20002 0 0 0-2e-3 0.00195l-0.93359 1.4414-1.0605-1.6582-0.0039-0.00586c-0.01093-0.018587-0.01168-0.024143-0.01758-0.035156 0.01897-0.018255 0.05793-0.045886 0.15625-0.048828a0.20002 0.20002 0 0 0 0.19336-0.19922v-0.21484a0.20002 0.20002 0 0 0-0.21089-0.19922c-0.25447 0.016089-0.66318 0.017578-0.9375 0.017578-0.21533 0-0.63758-0.00258-0.81641-0.017578a0.20002 0.20002 0 0 0-0.041016 0z"
       fill="url(#a)"
       id="base" />
    <path
       style="opacity:0.3;fill:#000000;stroke-width:4"
       d="M 62.167969 30.923828 A 0.80008 0.80008 0 0 1 61.398438 31.65625 C 61.005157 31.668018 60.849317 31.778543 60.773438 31.851562 C 60.797037 31.895617 60.80003 31.917837 60.84375 31.992188 L 60.859375 32.015625 L 61.28125 32.675781 C 61.326247 32.670892 61.345098 32.657846 61.398438 32.65625 A 0.80008 0.80008 0 0 0 62.171875 31.859375 L 62.171875 31 A 0.80008 0.80008 0 0 0 62.167969 30.923828 z M 53.449219 30.929688 A 0.80008 0.80008 0 0 0 53.445312 31 L 53.445312 31.859375 A 0.80008 0.80008 0 0 0 54.242188 32.65625 C 55.146788 32.65625 55.692215 32.699391 55.984375 32.796875 C 56.276523 32.894355 56.424628 33.008055 56.742188 33.484375 L 62.570312 42.615234 L 62.890625 42.117188 L 56.742188 32.484375 C 56.424628 32.008055 56.276523 31.894355 55.984375 31.796875 C 55.692215 31.699391 55.146788 31.65625 54.242188 31.65625 A 0.80008 0.80008 0 0 1 53.449219 30.929688 z M 75.496094 30.929688 A 0.80008 0.80008 0 0 1 74.710938 31.65625 C 72.271377 31.69081 71.630252 32.865747 71.132812 33.617188 L 71.140625 33.617188 L 66.484375 40.789062 L 66.806641 41.292969 L 71.140625 34.617188 L 71.132812 34.617188 C 71.630252 33.865747 72.271377 32.69081 74.710938 32.65625 A 0.80008 0.80008 0 0 0 75.5 31.859375 L 75.5 31 A 0.80008 0.80008 0 0 0 75.496094 30.929688 z M 67.785156 30.9375 A 0.80008 0.80008 0 0 0 67.78125 31 L 67.78125 31.859375 A 0.80008 0.80008 0 0 0 68.5 32.65625 C 68.731053 32.679254 68.8356 32.722595 68.90625 32.771484 C 69.051495 32.54949 69.109375 32.439987 69.109375 32.25 C 69.109375 32.084624 69.068052 31.939095 69.007812 31.859375 C 68.947572 31.779659 68.8652 31.69261 68.5 31.65625 A 0.80008 0.80008 0 0 1 67.785156 30.9375 z M 26.671875 31.789062 C 25.405915 31.789062 24.454943 31.861965 23.789062 32.023438 C 23.123223 32.184917 22.76349 32.401112 22.476562 32.75 C 21.902722 33.448 21.612565 35.04043 21.398438 37.96875 A 0.80008 0.80008 0 0 1 20.601562 38.710938 L 20 38.710938 A 0.80008 0.80008 0 0 1 19.251953 38.1875 L 19.203125 38.859375 A 0.80008 0.80008 0 0 0 20 39.710938 L 20.601562 39.710938 A 0.80008 0.80008 0 0 0 21.398438 38.96875 C 21.612565 36.04043 21.902722 34.448 22.476562 33.75 C 22.76349 33.401112 23.123223 33.184917 23.789062 33.023438 C 24.454943 32.861965 25.405915 32.789062 26.671875 32.789062 L 28.320312 32.789062 C 28.328312 32.864202 28.351563 33.011754 28.351562 33.351562 L 28.351562 32.351562 C 28.351563 32.011754 28.328312 31.864202 28.320312 31.789062 L 26.671875 31.789062 z M 32.125 31.789062 C 32.11584 31.866423 32.101562 32.020834 32.101562 32.351562 L 32.101562 33.351562 C 32.101562 33.020834 32.11584 32.866423 32.125 32.789062 L 33.734375 32.789062 C 34.969815 32.789062 35.898408 32.863571 36.554688 33.023438 C 37.210968 33.183301 37.571375 33.398531 37.859375 33.742188 C 38.278449 34.242213 38.541048 35.35339 38.738281 36.976562 L 38.851562 36.976562 C 38.643763 34.773323 38.361735 33.341588 37.859375 32.742188 C 37.571375 32.398531 37.210968 32.183301 36.554688 32.023438 C 35.898408 31.863572 34.969815 31.789062 33.734375 31.789062 L 32.125 31.789062 z M 37.203125 38.759766 A 0.80008 0.80008 0 0 0 37.203125 38.773438 L 37.203125 39.75 A 0.80008 0.80008 0 0 0 38 40.546875 C 39.165798 40.546875 39.813283 40.628329 39.876953 40.654297 C 39.876731 40.659298 39.870797 40.650926 39.875 40.664062 C 39.89912 40.739342 39.9375 40.975182 39.9375 41.34375 L 39.9375 40.34375 C 39.9375 39.975182 39.89912 39.739342 39.875 39.664062 C 39.870797 39.650926 39.876731 39.659298 39.876953 39.654297 C 39.813283 39.628329 39.165798 39.546875 38 39.546875 A 0.80008 0.80008 0 0 1 37.203125 38.759766 z M 44.289062 39.546875 C 44.004634 39.546875 43.830026 39.570217 43.71875 39.585938 C 43.70735 39.698338 43.695312 39.86518 43.695312 40.125 L 43.695312 41.125 C 43.695312 40.86518 43.70735 40.698338 43.71875 40.585938 C 43.830026 40.570217 44.004634 40.546875 44.289062 40.546875 L 48.851562 40.546875 C 51.318083 40.546875 52.418177 41.026063 53.085938 41.914062 C 53.753698 42.802062 54.04977 44.38859 54.28125 46.71875 A 0.80008 0.80008 0 0 0 55.078125 47.4375 L 55.679688 47.4375 A 0.80008 0.80008 0 0 0 56.476562 46.5625 L 56.414062 45.951172 A 0.80008 0.80008 0 0 1 55.679688 46.4375 L 55.078125 46.4375 A 0.80008 0.80008 0 0 1 54.28125 45.71875 C 54.04977 43.38859 53.753698 41.802062 53.085938 40.914062 C 52.418177 40.026063 51.318083 39.546875 48.851562 39.546875 L 44.289062 39.546875 z M 64.265625 44.21875 L 59.609375 51.476562 A 0.80008 0.80008 0 0 1 59.601562 51.492188 C 59.431642 51.747727 59.398438 51.742708 59.398438 52.007812 C 59.398438 52.152636 59.444825 52.299255 59.515625 52.390625 C 59.538403 52.420022 59.577066 52.446953 59.611328 52.474609 L 64.265625 45.21875 L 68.962891 52.583984 C 69.263976 52.542603 69.424434 52.464546 69.484375 52.40625 C 69.463935 52.36785 69.46613 52.37106 69.40625 52.28125 A 0.80008 0.80008 0 0 1 69.398438 52.265625 L 64.265625 44.21875 z M 43.695312 50.601562 L 43.695312 51.601562 L 46.046875 51.601562 C 46.780915 51.601562 47.305438 51.678443 47.648438 51.796875 C 47.991438 51.915311 48.152582 52.0508 48.289062 52.25 C 48.56203 52.648412 48.695312 53.564663 48.695312 55.039062 A 0.80008 0.80008 0 0 0 49.492188 55.835938 L 50.023438 55.835938 A 0.80008 0.80008 0 0 0 50.820312 55.039062 L 50.820312 54.039062 A 0.80008 0.80008 0 0 1 50.023438 54.835938 L 49.492188 54.835938 A 0.80008 0.80008 0 0 1 48.695312 54.039062 C 48.695312 52.564663 48.56203 51.648412 48.289062 51.25 C 48.152582 51.0508 47.991438 50.915311 47.648438 50.796875 C 47.305438 50.678443 46.780915 50.601562 46.046875 50.601562 L 43.695312 50.601562 z M 35.894531 54.314453 A 0.80008 0.80008 0 0 1 35.085938 55.046875 C 33.486618 55.013755 31.813633 54.976562 30.195312 54.976562 C 28.571632 54.976563 26.9129 55.013675 25.3125 55.046875 A 0.80008 0.80008 0 0 1 24.503906 54.330078 A 0.80008 0.80008 0 0 0 24.5 54.390625 L 24.5 55.25 A 0.80008 0.80008 0 0 0 25.3125 56.046875 C 26.9129 56.013675 28.571632 55.976563 30.195312 55.976562 C 31.813633 55.976562 33.486618 56.013755 35.085938 56.046875 A 0.80008 0.80008 0 0 0 35.898438 55.25 L 35.898438 54.390625 A 0.80008 0.80008 0 0 0 35.894531 54.314453 z M 60.730469 54.335938 A 0.80008 0.80008 0 0 1 59.875 55.0625 C 59.23064 55.00998 58.00639 55.0024 57.09375 55 L 56.148438 62.109375 A 0.80008 0.80008 0 0 1 55.351562 62.796875 L 38 62.796875 A 0.80008 0.80008 0 0 1 37.207031 62.080078 A 0.80008 0.80008 0 0 0 37.203125 62.140625 L 37.203125 63 A 0.80008 0.80008 0 0 0 38 63.796875 L 55.351562 63.796875 A 0.80008 0.80008 0 0 0 56.148438 63.109375 L 57.09375 56 C 58.00639 56.0024 59.23064 56.00998 59.875 56.0625 A 0.80008 0.80008 0 0 0 60.734375 55.265625 L 60.734375 54.40625 A 0.80008 0.80008 0 0 0 60.730469 54.335938 z M 76.792969 54.335938 A 0.80008 0.80008 0 0 1 75.929688 55.0625 C 75.214727 55.00268 73.530343 55 72.664062 55 C 71.562983 55 69.928062 54.99838 68.914062 55.0625 A 0.80008 0.80008 0 0 1 68.074219 54.345703 A 0.80008 0.80008 0 0 0 68.070312 54.40625 L 68.070312 55.265625 A 0.80008 0.80008 0 0 0 68.914062 56.0625 C 69.928062 55.99838 71.562983 56 72.664062 56 C 73.530343 56 75.214727 56.00268 75.929688 56.0625 A 0.80008 0.80008 0 0 0 76.796875 55.265625 L 76.796875 54.40625 A 0.80008 0.80008 0 0 0 76.792969 54.335938 z M 53.011719 54.345703 A 0.80008 0.80008 0 0 0 53.007812 54.40625 L 53.007812 55.265625 A 0.80008 0.80008 0 0 0 53.875 56.0625 C 54.041445 56.047637 54.313946 56.047953 54.564453 56.044922 C 54.634608 55.722612 54.703156 55.392098 54.765625 55.039062 C 54.459625 55.044663 54.090016 55.0433 53.875 55.0625 A 0.80008 0.80008 0 0 1 53.011719 54.345703 z "
       transform="translate(0,2)"
       id="path65" />
    <path
       style="fill:#ffffff;stroke-width:4"
       d="M 54.232422 29.197266 A 0.80008 0.80008 0 0 0 54.148438 29.203125 A 0.80008 0.80008 0 0 0 53.445312 30 L 53.445312 30.859375 A 0.80008 0.80008 0 0 0 53.449219 30.929688 A 0.80008 0.80008 0 0 1 54.148438 30.203125 A 0.80008 0.80008 0 0 1 54.3125 30.203125 C 55.02782 30.263115 56.716805 30.273438 57.578125 30.273438 C 58.675405 30.273438 60.310245 30.267485 61.328125 30.203125 A 0.80008 0.80008 0 0 1 62.167969 30.919922 A 0.80008 0.80008 0 0 0 62.171875 30.859375 L 62.171875 30 A 0.80008 0.80008 0 0 0 61.328125 29.203125 C 60.310245 29.267485 58.675405 29.273438 57.578125 29.273438 C 56.716805 29.273438 55.02782 29.263115 54.3125 29.203125 A 0.80008 0.80008 0 0 0 54.232422 29.197266 z M 74.675781 29.199219 A 0.80008 0.80008 0 0 0 74.632812 29.203125 C 73.944733 29.263965 72.67288 29.273437 71.875 29.273438 C 70.77772 29.273438 69.402465 29.265035 68.640625 29.203125 A 0.80008 0.80008 0 0 0 67.78125 30 L 67.78125 30.859375 A 0.80008 0.80008 0 0 0 67.785156 30.9375 A 0.80008 0.80008 0 0 1 68.640625 30.203125 C 69.402465 30.265035 70.77772 30.273438 71.875 30.273438 C 72.67288 30.273438 73.944733 30.263965 74.632812 30.203125 A 0.80008 0.80008 0 0 1 75.496094 30.929688 A 0.80008 0.80008 0 0 0 75.5 30.859375 L 75.5 30 A 0.80008 0.80008 0 0 0 74.675781 29.199219 z M 20.5625 29.25 A 0.80008 0.80008 0 0 0 19.765625 29.992188 L 19.203125 37.859375 A 0.80008 0.80008 0 0 0 19.251953 38.1875 L 19.765625 30.992188 A 0.80008 0.80008 0 0 1 20.5625 30.25 L 39.8125 30.25 A 0.80008 0.80008 0 0 1 40.609375 30.992188 L 41.101562 37.976562 L 54.882812 37.976562 A 0.80008 0.80008 0 0 1 55.679688 38.695312 L 56.414062 45.951172 A 0.80008 0.80008 0 0 0 56.476562 45.5625 L 55.679688 37.695312 A 0.80008 0.80008 0 0 0 54.882812 36.976562 L 41.101562 36.976562 L 40.609375 29.992188 A 0.80008 0.80008 0 0 0 39.8125 29.25 L 20.5625 29.25 z M 61.28125 32.675781 C 60.994477 32.706941 60.839026 32.788446 60.773438 32.851562 C 60.797037 32.895617 60.80003 32.917837 60.84375 32.992188 L 60.859375 33.015625 L 65.101562 39.648438 L 68.835938 33.882812 A 0.80008 0.80008 0 0 1 68.84375 33.875 C 69.06087 33.551268 69.109375 33.47266 69.109375 33.25 C 69.109375 33.084624 69.068052 32.939095 69.007812 32.859375 C 68.985685 32.830093 68.947269 32.799869 68.90625 32.771484 C 68.881271 32.809662 68.875611 32.827495 68.84375 32.875 A 0.80008 0.80008 0 0 0 68.835938 32.882812 L 65.101562 38.648438 L 61.28125 32.675781 z M 38 36.976562 A 0.80008 0.80008 0 0 0 37.203125 37.773438 L 37.203125 38.75 A 0.80008 0.80008 0 0 1 38 37.976562 L 38.851562 37.976562 C 38.817111 37.611288 38.777479 37.29915 38.738281 36.976562 L 38 36.976562 z M 66.806641 41.292969 L 66.484375 41.789062 L 73.53125 52.796875 L 73.539062 52.804688 C 73.838502 53.257631 73.937595 53.362605 74.171875 53.453125 C 74.408995 53.544747 74.95328 53.609375 76 53.609375 A 0.80008 0.80008 0 0 1 76.792969 54.335938 A 0.80008 0.80008 0 0 0 76.796875 54.265625 L 76.796875 53.40625 A 0.80008 0.80008 0 0 0 76 52.609375 C 74.95328 52.609375 74.408995 52.544747 74.171875 52.453125 C 73.937595 52.362605 73.838502 52.257631 73.539062 51.804688 L 73.53125 51.796875 L 66.806641 41.292969 z M 62.570312 42.615234 L 57.367188 50.726562 C 56.134028 52.626042 54.408007 52.609375 53.804688 52.609375 A 0.80008 0.80008 0 0 0 53.007812 53.40625 L 53.007812 54.265625 A 0.80008 0.80008 0 0 0 53.011719 54.341797 A 0.80008 0.80008 0 0 1 53.804688 53.609375 C 54.408007 53.609375 56.134028 53.626042 57.367188 51.726562 L 62.890625 43.117188 L 62.570312 42.615234 z M 49.492188 43.984375 A 0.80008 0.80008 0 0 0 48.695312 44.78125 C 48.695312 46.23005 48.558659 47.128625 48.289062 47.515625 C 48.154258 47.709125 48.000686 47.836121 47.65625 47.953125 C 47.311802 48.070109 46.781755 48.148438 46.046875 48.148438 L 43.695312 48.148438 L 43.695312 49.148438 L 46.046875 49.148438 C 46.781755 49.148438 47.311802 49.070109 47.65625 48.953125 C 48.000686 48.836121 48.154258 48.709125 48.289062 48.515625 C 48.558659 48.128625 48.695312 47.23005 48.695312 45.78125 A 0.80008 0.80008 0 0 1 49.492188 44.984375 L 50.023438 44.984375 A 0.80008 0.80008 0 0 1 50.820312 45.78125 L 50.820312 44.78125 A 0.80008 0.80008 0 0 0 50.023438 43.984375 L 49.492188 43.984375 z M 28.351562 51.710938 C 28.351562 52.022194 28.33346 52.242085 28.3125 52.328125 C 28.29154 52.414165 28.325115 52.35552 28.296875 52.375 C 28.240435 52.41396 27.609027 52.59375 26.242188 52.59375 L 25.296875 52.59375 A 0.80008 0.80008 0 0 0 24.5 53.390625 L 24.5 54.25 A 0.80008 0.80008 0 0 0 24.503906 54.326172 A 0.80008 0.80008 0 0 1 25.296875 53.59375 L 26.242188 53.59375 C 27.609027 53.59375 28.240435 53.41396 28.296875 53.375 C 28.325115 53.35552 28.29154 53.414165 28.3125 53.328125 C 28.33346 53.242085 28.351562 53.022194 28.351562 52.710938 L 28.351562 51.710938 z M 32.101562 51.710938 L 32.101562 52.710938 C 32.101563 53.022746 32.119665 53.240155 32.140625 53.328125 C 32.161665 53.416105 32.13157 53.35768 32.15625 53.375 C 32.20557 53.409656 32.818623 53.59375 34.164062 53.59375 L 35.101562 53.59375 A 0.80008 0.80008 0 0 1 35.894531 54.310547 A 0.80008 0.80008 0 0 0 35.898438 54.25 L 35.898438 53.390625 A 0.80008 0.80008 0 0 0 35.101562 52.59375 L 34.164062 52.59375 C 32.818623 52.59375 32.20557 52.409656 32.15625 52.375 C 32.13157 52.35768 32.161665 52.416105 32.140625 52.328125 C 32.119665 52.240155 32.101563 52.022746 32.101562 51.710938 z M 59.611328 52.474609 L 59.609375 52.476562 A 0.80008 0.80008 0 0 1 59.601562 52.492188 C 59.431642 52.747727 59.398438 52.742708 59.398438 53.007812 C 59.398438 53.152636 59.444825 53.299255 59.515625 53.390625 C 59.586425 53.481997 59.675025 53.574335 60.015625 53.609375 A 0.80008 0.80008 0 0 1 60.730469 54.335938 A 0.80008 0.80008 0 0 0 60.734375 54.265625 L 60.734375 53.40625 A 0.80008 0.80008 0 0 0 60.015625 52.609375 C 59.784604 52.585608 59.683561 52.532916 59.611328 52.474609 z M 68.962891 52.583984 C 68.908947 52.591398 68.886316 52.605234 68.820312 52.609375 A 0.80008 0.80008 0 0 0 68.070312 53.40625 L 68.070312 54.265625 A 0.80008 0.80008 0 0 0 68.074219 54.345703 A 0.80008 0.80008 0 0 1 68.820312 53.609375 C 69.254712 53.582123 69.413695 53.47499 69.484375 53.40625 C 69.463935 53.36785 69.46613 53.37106 69.40625 53.28125 A 0.80008 0.80008 0 0 1 69.398438 53.265625 L 68.962891 52.583984 z M 54.765625 56.039062 C 54.696501 56.040328 54.637554 56.044037 54.564453 56.044922 C 54.303901 57.241972 53.978498 58.220325 53.46875 58.851562 C 52.69367 59.811402 51.475915 60.359375 48.921875 60.359375 L 44.289062 60.359375 C 44.005398 60.359375 43.82815 60.336312 43.71875 60.320312 C 43.70631 60.204712 43.695312 60.02336 43.695312 59.75 L 43.695312 60.75 C 43.695312 61.02336 43.70631 61.204712 43.71875 61.320312 C 43.82815 61.336312 44.005398 61.359375 44.289062 61.359375 L 48.921875 61.359375 C 51.475915 61.359375 52.69367 60.811402 53.46875 59.851562 C 54.11575 59.050362 54.471149 57.703263 54.765625 56.039062 z M 39.9375 59.539062 C 39.9375 59.908142 39.89942 60.14187 39.875 60.21875 C 39.870742 60.232175 39.876773 60.223391 39.876953 60.228516 C 39.814091 60.254719 39.167569 60.34375 38 60.34375 A 0.80008 0.80008 0 0 0 37.203125 61.140625 L 37.203125 62 A 0.80008 0.80008 0 0 0 37.207031 62.076172 A 0.80008 0.80008 0 0 1 38 61.34375 C 39.167569 61.34375 39.814091 61.254719 39.876953 61.228516 C 39.876773 61.223391 39.870742 61.232175 39.875 61.21875 C 39.89942 61.14187 39.9375 60.908142 39.9375 60.539062 L 39.9375 59.539062 z "
       transform="translate(0,2)"
       id="path70" />
  </g>
</svg>
