<?xml version="1.0" encoding="UTF-8" standalone="no"?>
<svg
   xmlns:dc="http://purl.org/dc/elements/1.1/"
   xmlns:cc="http://creativecommons.org/ns#"
   xmlns:rdf="http://www.w3.org/1999/02/22-rdf-syntax-ns#"
   xmlns:svg="http://www.w3.org/2000/svg"
   xmlns="http://www.w3.org/2000/svg"
   xmlns:xlink="http://www.w3.org/1999/xlink"
   xmlns:sodipodi="http://sodipodi.sourceforge.net/DTD/sodipodi-0.dtd"
   xmlns:inkscape="http://www.inkscape.org/namespaces/inkscape"
   width="96"
   height="96"
   version="1.1"
   id="svg77"
   sodipodi:docname="unity-3d.svg"
   inkscape:version="0.92.2 5c3e80d, 2017-08-06">
  <metadata
     id="metadata81">
    <rdf:RDF>
      <cc:Work
         rdf:about="">
        <dc:format>image/svg+xml</dc:format>
        <dc:type
           rdf:resource="http://purl.org/dc/dcmitype/StillImage" />
      </cc:Work>
    </rdf:RDF>
  </metadata>
  <sodipodi:namedview
     pagecolor="#ffffff"
     bordercolor="#666666"
     borderopacity="1"
     objecttolerance="10"
     gridtolerance="10"
     guidetolerance="10"
     inkscape:pageopacity="0"
     inkscape:pageshadow="2"
     inkscape:window-width="640"
     inkscape:window-height="480"
     id="namedview79"
     showgrid="false"
     inkscape:zoom="2.4583333"
     inkscape:cx="48"
     inkscape:cy="48"
     inkscape:window-x="0"
     inkscape:window-y="25"
     inkscape:window-maximized="0"
     inkscape:current-layer="svg77" />
  <defs
     id="defs2410">
    <linearGradient
       id="linearGradient4384">
      <stop
         id="stop4386"
         stop-color="#fff"
         offset="0" />
      <stop
         id="stop4388"
         stop-color="#fff"
         stop-opacity="0"
         offset="1" />
    </linearGradient>
    <filter
       id="filter3794"
       x="-.192"
       y="-.192"
       width="1.384"
       height="1.384">
      <feGaussianBlur
         id="feGaussianBlur3796"
         stdDeviation="5.28" />
    </filter>
    <linearGradient
       id="linearGradient3613"
       x1="48"
       x2="48"
       y1="20.221"
       y2="138.66"
       gradientUnits="userSpaceOnUse">
      <stop
         id="stop3739"
         stop-color="#fff"
         offset="0" />
      <stop
         id="stop3741"
         stop-color="#fff"
         stop-opacity="0"
         offset="1" />
    </linearGradient>
    <linearGradient
       id="buttonGradient"
       x1="48"
       x2="48"
       y1="90"
       y2="5.9877"
       gradientUnits="userSpaceOnUse">
      <stop
         id="stop3702"
         stop-color="#323232"
         offset="0" />
      <stop
         id="stop3704"
         stop-color="#505050"
         offset="1" />
    </linearGradient>
    <linearGradient
       id="ButtonShadow-0"
       x1="45.448"
       x2="45.448"
       y1="92.54"
       y2="7.0165"
       gradientTransform="matrix(1.0059 0 0 .99417 100 0)"
       gradientUnits="userSpaceOnUse">
      <stop
         id="stop3750-8"
         offset="0" />
      <stop
         id="stop3752-5"
         stop-opacity=".58824"
         offset="1" />
    </linearGradient>
    <linearGradient
       id="linearGradient3780"
       x1="32.251"
       x2="32.251"
       y1="6.1317"
       y2="90.239"
       gradientTransform="matrix(1.0238 0 0 1.0119 -1.1429 -98.071)"
       gradientUnits="userSpaceOnUse"
       xlink:href="#ButtonShadow-0" />
    <linearGradient
       id="linearGradient3721"
       x1="32.251"
       x2="32.251"
       y1="6.1317"
       y2="90.239"
       gradientTransform="translate(0,-97)"
       gradientUnits="userSpaceOnUse"
       xlink:href="#ButtonShadow-0" />
    <clipPath
       id="clipPath4355">
      <rect
         id="rect4357"
         x="6"
         y="6"
         width="84"
         height="80"
         rx="6"
         ry="6"
         fill="#fff" />
    </clipPath>
    <linearGradient
       id="linearGradient4390"
       x1="48"
       x2="48"
       y1="88"
       y2="-40"
       gradientTransform="matrix(1,0,0,-1,0,92)"
       gradientUnits="userSpaceOnUse"
       xlink:href="#linearGradient4384" />
    <linearGradient
       id="linearGradient4429"
       x1="48"
       x2="112.12"
       y1="82"
       y2="82.455"
       gradientUnits="userSpaceOnUse"
       spreadMethod="reflect"
       xlink:href="#linearGradient4384" />
    <linearGradient
       id="linearGradient3228"
       x1="90"
       x2="48"
       y1="88"
       y2="88"
       gradientUnits="userSpaceOnUse"
       spreadMethod="reflect">
      <stop
         id="stop3894"
         stop-opacity=".58824"
         offset="0" />
      <stop
         id="stop3896"
         stop-opacity=".47059"
         offset=".1178" />
      <stop
         id="stop3898"
         stop-opacity=".39216"
         offset=".2381" />
      <stop
         id="stop3900"
         stop-opacity=".31373"
         offset="1" />
    </linearGradient>
  </defs>
  <g
     id="layer3">
    <g
       id="g32"
       fill="url(#linearGradient3780)">
      <path
         id="path3786"
         transform="scale(1,-1)"
         d="m12-95.021c-5.5111 0-10.022 4.51-10.022 10.021v71c0 5.5111 4.5104 10.021 10.021 10.021h72c5.5111 0 10.021-4.5104 10.021-10.021v-71c0-5.5111-4.5104-10.021-10.021-10.021h-72z"
         opacity=".08" />
      <path
         id="path3778"
         transform="scale(1,-1)"
         d="m12-94.035c-4.9716 0-9.0352 4.0635-9.0352 9.0352v71c0 4.9716 4.0635 9.0352 9.0352 9.0352h72c4.9716 0 9.0352-4.0635 9.0352-9.0352v-71c0-4.9716-4.0635-9.0352-9.0352-9.0352h-72z"
         opacity=".1" />
      <path
         id="path3770"
         transform="scale(1,-1)"
         d="m12-92.99c-4.4091 0-7.9902 3.5811-7.9902 7.9902v71c0 4.4091 3.5811 7.9902 7.9902 7.9902h72c4.4091 0 7.9902-3.5811 7.9902-7.9902v-71c0-4.4091-3.5811-7.9902-7.9902-7.9902h-72z"
         opacity=".2" />
      <rect
         id="rect3723"
         transform="scale(1,-1)"
         x="5"
         y="-92"
         width="86"
         height="85"
         rx="7"
         ry="7"
         opacity=".3" />
    </g>
    <rect
       id="rect3716"
       transform="scale(1,-1)"
       x="6"
       y="-91"
       width="84"
       height="84"
       rx="6"
       ry="6"
       fill="url(#linearGradient3721)"
       opacity=".45" />
  </g>
  <g
     id="layer1">
    <rect
       id="button"
       x="6"
       y="6"
       width="84"
       height="84"
       rx="6"
       ry="6"
       fill="url(#buttonGradient)" />
    <path
       id="rect4377"
       d="m12 86c-3.324 0-6-2.676-6-6v-68c0-3.324 2.676-6 6-6h72c3.324 0 6 2.676 6 6v68c0 3.324-2.676 6-6 6zm0-0.96875h72c2.8049 0 5.0312-2.2264 5.0312-5.0312v-68c0-2.8049-2.226-5.0312-5.031-5.0312h-72c-2.8049 0-5.0312 2.2263-5.0312 5.0312v68c0 2.8049 2.2264 5.0312 5.0312 5.0312z"
       fill="url(#linearGradient4390)"
       opacity=".3" />
    <path
       id="rect4414"
       d="m6 78v2c0 3.324 2.676 6 6 6h72c3.324 0 6-2.676 6-6v-2c0 3.324-2.676 6-6 6h-72c-3.324 0-6-2.676-6-6z"
       fill="url(#linearGradient4429)"
       opacity=".1" />
  </g>
  <g
     id="layer4">
    <path
       id="path3888"
       d="m6 80v4c0 3.324 2.676 6 6 6h72c3.324 0 6-2.676 6-6v-4c0 3.324-2.676 6-6 6h-72c-3.324 0-6-2.676-6-6z"
       fill="url(#linearGradient3228)" />
    <path
       id="rect4345"
       d="m6 82v2c0 3.324 2.676 6 6 6h72c3.324 0 6-2.676 6-6v-2c0 3.324-2.676 6-6 6h-72c-3.324 0-6-2.676-6-6z"
       color="#000000"
       opacity=".1" />
    <path
       id="rect4336"
       d="m6 83v1c0 3.324 2.676 6 6 6h72c3.324 0 6-2.676 6-6v-1c0 3.324-2.676 6-6 6h-72c-3.324 0-6-2.676-6-6z"
       color="#000000"
       opacity=".15" />
  </g>
  <g
     id="layer5">
    <rect
       id="rect3171"
       x="15"
       y="15"
       width="66"
       height="62"
       rx="12"
       ry="12"
       clip-path="url(#clipPath4355)"
       fill="url(#linearGradient3613)"
       filter="url(#filter3794)"
       opacity=".1"
       stroke="#fff"
       stroke-linecap="round"
       stroke-width=".5" />
  </g>
  <defs
     id="defs53">
    <filter
       id="w">
      <feGaussianBlur
         stdDeviation="0.23199685"
         id="feGaussianBlur45" />
    </filter>
    <linearGradient
       id="a"
       gradientUnits="userSpaceOnUse"
       x1="8"
       y1="1"
       x2="8"
       y2="15.000096">
      <stop
         stop-color="#fafafa"
         offset="0"
         id="stop48" />
      <stop
         stop-color="#ebebeb"
         offset="1"
         id="stop50" />
    </linearGradient>
  </defs>
  <g
     transform="translate(0,-2)"
     id="g75">
    <path
       style="opacity:0.15;fill:#000000"
       d="m 13.025391,0.75 a 0.250025,0.250025 0 0 0 -0.06836,0.007813 L 7.4433594,2.2480469 A 0.250025,0.250025 0 0 0 7.2910156,2.3671875 L 6.546875,3.6914062 5.0371094,3.6796875 A 0.250025,0.250025 0 0 0 4.859375,3.7539062 L 0.82226562,7.8242188 a 0.250025,0.250025 0 0 0 0,0.3515624 L 4.859375,12.246094 a 0.250025,0.250025 0 0 0 0.1757812,0.07422 h 0.00195 l 1.5097656,-0.01172 0.7441406,1.324218 a 0.250025,0.250025 0 0 0 0.1523438,0.119141 l 5.5136716,1.490235 a 0.250025,0.250025 0 0 0 0.306641,-0.177735 L 14.742188,9.5039062 A 0.250025,0.250025 0 0 0 14.716797,9.3144531 L 13.951172,8 14.716797,6.6855469 14.742188,6.4960938 13.263672,0.93554688 A 0.250025,0.250025 0 0 0 13.025391,0.75 Z M 10.53125,3.4726562 8.4765625,7.0625 H 4.3691406 L 6.9570312,4.4003906 Z M 12.142578,4.4140625 13.134766,8 12.142578,11.585938 10.089844,8 Z M 4.3691406,8.9375 H 8.4765625 L 10.53125,12.527344 6.9570312,11.599609 Z"
       id="path55"
       inkscape:original="m9.802 8.0003 2.4214-4.2306 1.1701 4.2306-1.1701 4.2297zm-1.1803 0.6869 2.4218 4.23-4.2176-1.0932-3.0473-3.1368h4.8432zm2.4213-5.6051-2.4213 4.2306h-4.8432l3.0473-3.1368 4.2173-1.0938zm3.457 3.4784-1.4774-5.5605-5.514 1.4903-0.81623 1.4518-1.6563-0.011994-4.0361 4.0706 4.0361 4.0696h9.39e-5l1.6556-0.01231 0.81742 1.4518 5.5134 1.4903 1.4774-5.5599-0.83904-1.4398 0.83904-1.4398"
       transform="matrix(4,0,0,4,16,17)"
       inkscape:radius="0.25"
       sodipodi:type="inkscape:offset" />
    <g
       id="Bevel1">
      <path
         fill="#000"
         opacity=".10"
         sodipodi:type="inkscape:offset"
         inkscape:radius="0.5"
         transform="translate(16,17) scale(4)"
         inkscape:original="m9.802 8.0003 2.4214-4.2306 1.1701 4.2306-1.1701 4.2297zm-1.1803 0.6869 2.4218 4.23-4.2176-1.0932-3.0473-3.1368h4.8432zm2.4213-5.6051-2.4213 4.2306h-4.8432l3.0473-3.1368 4.2173-1.0938zm3.457 3.4784-1.4774-5.5605-5.514 1.4903-0.81623 1.4518-1.6563-0.011994-4.0361 4.0706 4.0361 4.0696h9.39e-5l1.6556-0.01231 0.81742 1.4518 5.5134 1.4903 1.4774-5.5599-0.83904-1.4398 0.83904-1.4398"
         id="path58" />
    </g>
    <g
       id="Bevel2">
      <path
         fill="#000"
         opacity=".05"
         sodipodi:type="inkscape:offset"
         inkscape:radius="0.75"
         transform="translate(16,17) scale(4)"
         inkscape:original="m9.802 8.0003 2.4214-4.2306 1.1701 4.2306-1.1701 4.2297zm-1.1803 0.6869 2.4218 4.23-4.2176-1.0932-3.0473-3.1368h4.8432zm2.4213-5.6051-2.4213 4.2306h-4.8432l3.0473-3.1368 4.2173-1.0938zm3.457 3.4784-1.4774-5.5605-5.514 1.4903-0.81623 1.4518-1.6563-0.011994-4.0361 4.0706 4.0361 4.0696h9.39e-5l1.6556-0.01231 0.81742 1.4518 5.5134 1.4903 1.4774-5.5599-0.83904-1.4398 0.83904-1.4398"
         id="path61" />
    </g>
    <path
       d="m9.802 8.0003 2.4214-4.2306 1.1701 4.2306-1.1701 4.2297zm-1.1803 0.6869 2.4218 4.23-4.2176-1.0932-3.0473-3.1368h4.8432zm2.4213-5.6051-2.4213 4.2306h-4.8432l3.0473-3.1368 4.2173-1.0938zm3.457 3.4784-1.4774-5.5605-5.514 1.4903-0.81623 1.4518-1.6563-0.011994-4.0361 4.0706 4.0361 4.0696h9.39e-5l1.6556-0.01231 0.81742 1.4518 5.5134 1.4903 1.4774-5.5599-0.83904-1.4398 0.83904-1.4398"
       fill="url(#a)"
       id="base"
       transform="translate(16,16) scale(4)" />
    <path
       style="opacity:0.3;fill:#000000;stroke-width:4"
       d="M 60.171875 26.328125 L 43.302734 30.703125 L 31.113281 43.25 L 32.083984 43.25 L 43.302734 31.703125 L 59.5 27.501953 L 60.171875 26.328125 z M 64.894531 29.078125 L 55.207031 46.001953 L 55.494141 46.501953 L 64.894531 30.078125 L 69.435547 46.501953 L 69.574219 46.001953 L 64.894531 29.078125 z M 73.818359 40.554688 L 70.644531 46.001953 L 70.935547 46.501953 L 74 41.242188 L 73.818359 40.554688 z M 20.496094 46.501953 L 20 47.001953 L 36.144531 63.28125 L 42.767578 63.232422 L 46.037109 69.039062 L 68.089844 75 L 74 52.761719 L 73.818359 52.449219 L 68.089844 74 L 46.037109 68.039062 L 42.767578 62.232422 L 36.144531 62.28125 L 20.496094 46.501953 z M 31.115234 48.748047 L 32.085938 49.748047 L 50.486328 49.748047 L 59.501953 65.494141 L 60.173828 65.667969 L 50.486328 48.748047 L 31.115234 48.748047 z "
       transform="translate(0,2)"
       id="path65" />
    <path
       style="fill:#ffffff;stroke-width:4"
       d="M 68.089844 18 L 46.035156 23.960938 L 42.769531 29.767578 L 36.144531 29.720703 L 20 46.001953 L 20.496094 46.501953 L 36.144531 30.720703 L 42.769531 30.767578 L 46.035156 24.960938 L 68.089844 19 L 73.818359 40.554688 L 74 40.242188 L 68.089844 18 z M 60.171875 27.328125 L 59.5 27.501953 L 50.486328 43.25 L 32.083984 43.25 L 31.113281 44.25 L 50.486328 44.25 L 60.171875 27.328125 z M 55.494141 46.501953 L 55.207031 47.001953 L 64.894531 63.919922 L 69.574219 47.001953 L 69.435547 46.501953 L 64.894531 62.919922 L 55.494141 46.501953 z M 70.935547 46.501953 L 70.644531 47.001953 L 73.818359 52.449219 L 74 51.761719 L 70.935547 46.501953 z M 31.115234 49.748047 L 43.302734 62.296875 L 60.173828 66.667969 L 59.501953 65.494141 L 43.302734 61.296875 L 32.085938 49.748047 L 31.115234 49.748047 z "
       transform="translate(0,2)"
       id="path70" />
  </g>
</svg>
