<?xml version="1.0" encoding="UTF-8" standalone="no"?>
<!-- Created with Inkscape (http://www.inkscape.org/) -->

<svg
   xmlns:dc="http://purl.org/dc/elements/1.1/"
   xmlns:cc="http://creativecommons.org/ns#"
   xmlns:rdf="http://www.w3.org/1999/02/22-rdf-syntax-ns#"
   xmlns:svg="http://www.w3.org/2000/svg"
   xmlns="http://www.w3.org/2000/svg"
   xmlns:xlink="http://www.w3.org/1999/xlink"
   xmlns:sodipodi="http://sodipodi.sourceforge.net/DTD/sodipodi-0.dtd"
   xmlns:inkscape="http://www.inkscape.org/namespaces/inkscape"
   width="96"
   height="96"
   id="svg2408"
   sodipodi:version="0.32"
   inkscape:version="0.48.2 r9819"
   version="1.0"
   sodipodi:docname="update-manager.svg"
   inkscape:output_extension="org.inkscape.output.svg.inkscape">
  <defs
     id="defs2410">
    <linearGradient
       id="linearGradient4152">
      <stop
         style="stop-color:#ffffff;stop-opacity:1;"
         offset="0"
         id="stop4154" />
      <stop
         style="stop-color:#ebebeb;stop-opacity:1;"
         offset="1"
         id="stop4156" />
    </linearGradient>
    <linearGradient
       inkscape:collect="always"
       id="linearGradient4142">
      <stop
         style="stop-color:#402a1a;stop-opacity:1;"
         offset="0"
         id="stop4144" />
      <stop
         style="stop-color:#402a1a;stop-opacity:0;"
         offset="1"
         id="stop4146" />
    </linearGradient>
    <linearGradient
       id="linearGradient4102">
      <stop
         style="stop-color:#000000;stop-opacity:1;"
         offset="0"
         id="stop4104" />
      <stop
         id="stop4114"
         offset="0.5"
         style="stop-color:#000000;stop-opacity:0.2519685;" />
      <stop
         style="stop-color:#000000;stop-opacity:0;"
         offset="1"
         id="stop4106" />
    </linearGradient>
    <linearGradient
       id="linearGradient4013">
      <stop
         style="stop-color:#e3c979;stop-opacity:1;"
         offset="0"
         id="stop4015" />
      <stop
         id="stop4021"
         offset="0.85000002"
         style="stop-color:#d3b762;stop-opacity:1;" />
      <stop
         style="stop-color:#b0984d;stop-opacity:0.61417323;"
         offset="1"
         id="stop4017" />
    </linearGradient>
    <linearGradient
       id="linearGradient3972">
      <stop
         style="stop-color:#784421;stop-opacity:1"
         offset="0"
         id="stop3974" />
      <stop
         id="stop3980"
         offset="0.69999999"
         style="stop-color:#784421;stop-opacity:0;" />
      <stop
         style="stop-color:#784421;stop-opacity:0.7480315;"
         offset="1"
         id="stop3976" />
    </linearGradient>
    <linearGradient
       id="linearGradient4384">
      <stop
         style="stop-color:#ffffff;stop-opacity:1;"
         offset="0"
         id="stop4386" />
      <stop
         style="stop-color:#ffffff;stop-opacity:0;"
         offset="1"
         id="stop4388" />
    </linearGradient>
    <linearGradient
       id="linearGradient4367">
      <stop
         style="stop-color:#ffffff;stop-opacity:0.71755725;"
         offset="0"
         id="stop4369" />
      <stop
         style="stop-color:#ffffff;stop-opacity:1;"
         offset="1"
         id="stop4371" />
    </linearGradient>
    <inkscape:perspective
       sodipodi:type="inkscape:persp3d"
       inkscape:vp_x="0 : 48 : 1"
       inkscape:vp_y="0 : 1000 : 0"
       inkscape:vp_z="96 : 48 : 1"
       inkscape:persp3d-origin="48 : 32 : 1"
       id="perspective48" />
    <linearGradient
       id="ButtonShadow"
       gradientTransform="scale(1.0058652,0.994169)"
       x1="45.447727"
       y1="92.539597"
       x2="45.447727"
       y2="7.0165396"
       gradientUnits="userSpaceOnUse">
      <stop
         style="stop-color:#000000;stop-opacity:1;"
         offset="0"
         id="stop3750" />
      <stop
         style="stop-color:#000000;stop-opacity:0.58823532;"
         offset="1"
         id="stop3752" />
    </linearGradient>
    <linearGradient
       id="linearGradient3737">
      <stop
         style="stop-color:#ffec83;stop-opacity:1;"
         offset="0"
         id="stop3739" />
      <stop
         style="stop-color:#fff2ab;stop-opacity:0;"
         offset="1"
         id="stop3741" />
    </linearGradient>
    <linearGradient
       id="linearGradient3700">
      <stop
         style="stop-color:#a16331;stop-opacity:1"
         offset="0"
         id="stop3702" />
      <stop
         style="stop-color:#d2aa57;stop-opacity:1"
         offset="1"
         id="stop3704" />
    </linearGradient>
    <filter
       inkscape:collect="always"
       id="filter3174">
      <feGaussianBlur
         inkscape:collect="always"
         stdDeviation="1.71"
         id="feGaussianBlur3176" />
    </filter>
    <linearGradient
       inkscape:collect="always"
       xlink:href="#linearGradient3737"
       id="linearGradient3188"
       gradientUnits="userSpaceOnUse"
       x1="36.357143"
       y1="6"
       x2="36.357143"
       y2="63.893143" />
    <linearGradient
       inkscape:collect="always"
       xlink:href="#linearGradient3737"
       id="linearGradient3613"
       x1="48"
       y1="20.220806"
       x2="48"
       y2="138.66119"
       gradientUnits="userSpaceOnUse" />
    <linearGradient
       inkscape:collect="always"
       xlink:href="#linearGradient3700"
       id="linearGradient3617"
       gradientUnits="userSpaceOnUse"
       x1="48"
       y1="90"
       x2="48"
       y2="5.9877172" />
    <linearGradient
       id="ButtonShadow-0"
       gradientTransform="matrix(1.0058652,0,0,0.994169,100,0)"
       x1="45.447727"
       y1="92.539597"
       x2="45.447727"
       y2="7.0165396"
       gradientUnits="userSpaceOnUse">
      <stop
         style="stop-color:#000000;stop-opacity:1;"
         offset="0"
         id="stop3750-8" />
      <stop
         style="stop-color:#000000;stop-opacity:0.58823532;"
         offset="1"
         id="stop3752-5" />
    </linearGradient>
    <linearGradient
       inkscape:collect="always"
       xlink:href="#ButtonShadow-0"
       id="linearGradient3780"
       gradientUnits="userSpaceOnUse"
       gradientTransform="matrix(1.0238095,0,0,1.0119048,-1.1428571,-98.071429)"
       x1="32.251034"
       y1="6.1317081"
       x2="32.251034"
       y2="90.238609" />
    <linearGradient
       inkscape:collect="always"
       xlink:href="#ButtonShadow-0"
       id="linearGradient3772"
       gradientUnits="userSpaceOnUse"
       gradientTransform="matrix(1.0238095,0,0,1.0119048,-1.1428571,-98.071429)"
       x1="32.251034"
       y1="6.1317081"
       x2="32.251034"
       y2="90.238609" />
    <linearGradient
       inkscape:collect="always"
       xlink:href="#ButtonShadow-0"
       id="linearGradient3725"
       gradientUnits="userSpaceOnUse"
       gradientTransform="matrix(1.0238095,0,0,1.0119048,-1.1428571,-98.071429)"
       x1="32.251034"
       y1="6.1317081"
       x2="32.251034"
       y2="90.238609" />
    <linearGradient
       inkscape:collect="always"
       xlink:href="#ButtonShadow-0"
       id="linearGradient3721"
       gradientUnits="userSpaceOnUse"
       gradientTransform="translate(0,-97)"
       x1="32.251034"
       y1="6.1317081"
       x2="32.251034"
       y2="90.238609" />
    <linearGradient
       y2="90.238609"
       x2="32.251034"
       y1="6.1317081"
       x1="32.251034"
       gradientTransform="matrix(1.0238095,0,0,1.0119048,-1.1428571,-98.071429)"
       gradientUnits="userSpaceOnUse"
       id="linearGradient3026"
       xlink:href="#ButtonShadow-0"
       inkscape:collect="always" />
    <linearGradient
       inkscape:collect="always"
       xlink:href="#linearGradient3669"
       id="linearGradient3675"
       x1="8"
       y1="1033.3622"
       x2="64.080299"
       y2="1033.3622"
       gradientUnits="userSpaceOnUse"
       spreadMethod="reflect" />
    <linearGradient
       id="linearGradient3669">
      <stop
         style="stop-color:#c27d4f;stop-opacity:1;"
         offset="0"
         id="stop3671" />
      <stop
         id="stop3677"
         offset="0.11780351"
         style="stop-color:#a3704e;stop-opacity:1;" />
      <stop
         style="stop-color:#866148;stop-opacity:1;"
         offset="1"
         id="stop3673" />
    </linearGradient>
    <clipPath
       clipPathUnits="userSpaceOnUse"
       id="clipPath4355">
      <rect
         style="fill:#ffffff;fill-opacity:1;fill-rule:nonzero;stroke:none"
         id="rect4357"
         width="84"
         height="80"
         x="6"
         y="6"
         rx="6"
         ry="6" />
    </clipPath>
    <radialGradient
       inkscape:collect="always"
       xlink:href="#linearGradient4367"
       id="radialGradient4375"
       cx="48"
       cy="87.792389"
       fx="48"
       fy="87.792389"
       r="42"
       gradientTransform="matrix(1,-6.7114942e-8,8.4282233e-8,1.2557894,109.99999,-24.505592)"
       gradientUnits="userSpaceOnUse" />
    <linearGradient
       gradientTransform="translate(-2,-956.3622)"
       y2="1033.3622"
       x2="50"
       y1="1033.3622"
       x1="8"
       spreadMethod="reflect"
       gradientUnits="userSpaceOnUse"
       id="linearGradient3542-9"
       xlink:href="#linearGradient4482"
       inkscape:collect="always" />
    <linearGradient
       id="linearGradient4482">
      <stop
         id="stop4484"
         offset="0"
         style="stop-color:#ffffff;stop-opacity:0.12977099;" />
      <stop
         style="stop-color:#424242;stop-opacity:0.28244275;"
         offset="0.11780351"
         id="stop4486" />
      <stop
         id="stop4488"
         offset="0.23809524"
         style="stop-color:#2f2f2f;stop-opacity:0.30534351;" />
      <stop
         id="stop4490"
         offset="1"
         style="stop-color:#000000;stop-opacity:0.35114503;" />
    </linearGradient>
    <linearGradient
       inkscape:collect="always"
       xlink:href="#linearGradient4482"
       id="linearGradient3851"
       gradientUnits="userSpaceOnUse"
       x1="90"
       y1="88"
       x2="48"
       y2="88"
       spreadMethod="reflect" />
    <linearGradient
       inkscape:collect="always"
       xlink:href="#linearGradient3892"
       id="linearGradient3890"
       gradientUnits="userSpaceOnUse"
       spreadMethod="reflect"
       x1="90"
       y1="88"
       x2="48"
       y2="88" />
    <linearGradient
       id="linearGradient3892">
      <stop
         style="stop-color:#000000;stop-opacity:0.58823532;"
         offset="0"
         id="stop3894" />
      <stop
         id="stop3896"
         offset="0.11780351"
         style="stop-color:#000000;stop-opacity:0.47058824;" />
      <stop
         style="stop-color:#000000;stop-opacity:0.39215687;"
         offset="0.23809524"
         id="stop3898" />
      <stop
         style="stop-color:#000000;stop-opacity:0.3137255;"
         offset="1"
         id="stop3900" />
    </linearGradient>
    <linearGradient
       y2="88"
       x2="48"
       y1="88"
       x1="90"
       spreadMethod="reflect"
       gradientUnits="userSpaceOnUse"
       id="linearGradient3228"
       xlink:href="#linearGradient3892"
       inkscape:collect="always" />
    <linearGradient
       inkscape:collect="always"
       xlink:href="#linearGradient3972"
       id="linearGradient3978"
       x1="6"
       y1="48"
       x2="8"
       y2="48"
       gradientUnits="userSpaceOnUse"
       spreadMethod="repeat"
       gradientTransform="translate(0,-96)" />
    <filter
       inkscape:collect="always"
       id="filter4002"
       x="-0.34909091"
       width="1.6981818"
       y="-0.3716129"
       height="1.7432258">
      <feGaussianBlur
         inkscape:collect="always"
         stdDeviation="9.6"
         id="feGaussianBlur4004" />
    </filter>
    <linearGradient
       inkscape:collect="always"
       xlink:href="#linearGradient4013"
       id="linearGradient4019"
       x1="42"
       y1="48"
       x2="47.61441"
       y2="48"
       gradientUnits="userSpaceOnUse"
       spreadMethod="reflect" />
    <linearGradient
       inkscape:collect="always"
       xlink:href="#linearGradient4384-8"
       id="linearGradient4429-1"
       x1="48"
       y1="82"
       x2="112.12357"
       y2="82.454597"
       gradientUnits="userSpaceOnUse"
       spreadMethod="reflect" />
    <linearGradient
       id="linearGradient4384-8">
      <stop
         style="stop-color:#ffffff;stop-opacity:1;"
         offset="0"
         id="stop4386-6" />
      <stop
         style="stop-color:#ffffff;stop-opacity:0;"
         offset="1"
         id="stop4388-2" />
    </linearGradient>
    <linearGradient
       inkscape:collect="always"
       xlink:href="#linearGradient4384-8"
       id="linearGradient4390-9"
       x1="48"
       y1="88"
       x2="48"
       y2="-40"
       gradientUnits="userSpaceOnUse"
       gradientTransform="matrix(1,0,0,-1,0,92)" />
    <linearGradient
       id="linearGradient4039">
      <stop
         style="stop-color:#ffffff;stop-opacity:1;"
         offset="0"
         id="stop4041" />
      <stop
         style="stop-color:#ffffff;stop-opacity:0;"
         offset="1"
         id="stop4043" />
    </linearGradient>
    <linearGradient
       y2="-40"
       x2="48"
       y1="88"
       x1="48"
       gradientTransform="matrix(1,0,0,-1,0,92)"
       gradientUnits="userSpaceOnUse"
       id="linearGradient4047"
       xlink:href="#linearGradient4384-8"
       inkscape:collect="always" />
    <linearGradient
       inkscape:collect="always"
       xlink:href="#linearGradient4384"
       id="linearGradient4088"
       gradientUnits="userSpaceOnUse"
       x1="48"
       y1="8"
       x2="48"
       y2="80" />
    <linearGradient
       inkscape:collect="always"
       xlink:href="#linearGradient4102"
       id="linearGradient4108"
       x1="54"
       y1="48"
       x2="56"
       y2="48"
       gradientUnits="userSpaceOnUse" />
    <linearGradient
       inkscape:collect="always"
       xlink:href="#linearGradient4102"
       id="linearGradient4112"
       gradientUnits="userSpaceOnUse"
       x1="54"
       y1="48"
       x2="56"
       y2="48"
       gradientTransform="translate(-96,0)" />
    <linearGradient
       inkscape:collect="always"
       xlink:href="#linearGradient4013"
       id="linearGradient4122"
       gradientUnits="userSpaceOnUse"
       spreadMethod="reflect"
       x1="42"
       y1="48"
       x2="47.61441"
       y2="48" />
    <linearGradient
       inkscape:collect="always"
       xlink:href="#linearGradient4384-8"
       id="linearGradient4127"
       gradientUnits="userSpaceOnUse"
       spreadMethod="reflect"
       x1="45.485218"
       y1="31.180027"
       x2="48.069004"
       y2="55.879627" />
    <linearGradient
       inkscape:collect="always"
       xlink:href="#linearGradient4152"
       id="linearGradient4158"
       x1="34"
       y1="20"
       x2="38"
       y2="24"
       gradientUnits="userSpaceOnUse"
       gradientTransform="translate(0,-36)" />
    <linearGradient
       inkscape:collect="always"
       xlink:href="#ButtonShadow-0"
       id="linearGradient4166"
       gradientUnits="userSpaceOnUse"
       gradientTransform="translate(0,-36)"
       x1="34"
       y1="7"
       x2="34"
       y2="25" />
    <linearGradient
       inkscape:collect="always"
       xlink:href="#ButtonShadow-0"
       id="linearGradient4398"
       gradientUnits="userSpaceOnUse"
       gradientTransform="matrix(1,0,0,-1,-50,36)"
       x1="34"
       y1="7"
       x2="34"
       y2="25" />
    <linearGradient
       inkscape:collect="always"
       xlink:href="#linearGradient4152"
       id="linearGradient4400"
       gradientUnits="userSpaceOnUse"
       gradientTransform="translate(-50,-36)"
       x1="34"
       y1="20"
       x2="38"
       y2="24" />
    <linearGradient
       id="linearGradient3250">
      <stop
         id="stop3252"
         offset="0"
         style="stop-color:#ffffff;stop-opacity:1;" />
      <stop
         style="stop-color:#ffffff;stop-opacity:0.49803922;"
         offset="0.43290177"
         id="stop3254" />
      <stop
         id="stop3256"
         offset="1"
         style="stop-color:#ffffff;stop-opacity:0" />
    </linearGradient>
    <linearGradient
       inkscape:collect="always"
       xlink:href="#linearGradient3250"
       id="linearGradient4029"
       gradientUnits="userSpaceOnUse"
       gradientTransform="matrix(-0.30059886,0,0,-0.30318299,86.16905,93.461103)"
       x1="84.35965"
       y1="79.416924"
       x2="84.35965"
       y2="5.1837206" />
    <linearGradient
       id="linearGradient3366">
      <stop
         id="stop3368"
         offset="0"
         style="stop-color:#ffffff;stop-opacity:1;" />
      <stop
         style="stop-color:#ffffff;stop-opacity:0.49803922;"
         offset="0.43290177"
         id="stop3370" />
      <stop
         id="stop3372"
         offset="1"
         style="stop-color:#ffffff;stop-opacity:0" />
    </linearGradient>
    <radialGradient
       inkscape:collect="always"
       xlink:href="#StandardGradient"
       id="radialGradient3853"
       cx="12"
       cy="13.30542"
       fx="12"
       fy="13.30542"
       r="8"
       gradientTransform="matrix(1.25,0,0,1,-3.0000001,-0.30541996)"
       gradientUnits="userSpaceOnUse" />
    <linearGradient
       id="StandardGradient"
       gradientTransform="scale(0.9219544,1.0846523)"
       x1="11.998966"
       y1="0.92195445"
       x2="11.998966"
       y2="19.387045"
       gradientUnits="userSpaceOnUse">
      <stop
         style="stop-color:#000000;stop-opacity:0.23529412;"
         offset="0"
         id="stop3283" />
      <stop
         id="stop3850"
         offset="0.69999999"
         style="stop-color:#000000;stop-opacity:0.39215686;" />
      <stop
         style="stop-color:#000000;stop-opacity:0.55;"
         offset="1"
         id="stop2651" />
    </linearGradient>
    <linearGradient
       inkscape:collect="always"
       xlink:href="#linearGradient4142"
       id="linearGradient3339"
       gradientUnits="userSpaceOnUse"
       x1="70"
       y1="80"
       x2="70"
       y2="-64"
       gradientTransform="translate(80,50)" />
    <linearGradient
       inkscape:collect="always"
       xlink:href="#linearGradient4142"
       id="linearGradient3380"
       gradientUnits="userSpaceOnUse"
       x1="70"
       y1="80"
       x2="70"
       y2="-64"
       gradientTransform="translate(40,50)" />
    <linearGradient
       inkscape:collect="always"
       xlink:href="#linearGradient4142"
       id="linearGradient3402"
       gradientUnits="userSpaceOnUse"
       x1="70"
       y1="80"
       x2="70"
       y2="-64"
       gradientTransform="translate(40,50)" />
    <linearGradient
       inkscape:collect="always"
       xlink:href="#linearGradient4142"
       id="linearGradient3405"
       gradientUnits="userSpaceOnUse"
       x1="70"
       y1="80"
       x2="70"
       y2="-64"
       gradientTransform="translate(40,52)" />
    <linearGradient
       id="linearGradient3250-0">
      <stop
         id="stop3252-0"
         offset="0"
         style="stop-color:#ffffff;stop-opacity:1;" />
      <stop
         style="stop-color:#ffffff;stop-opacity:0.49803922;"
         offset="0.43290177"
         id="stop3254-6" />
      <stop
         id="stop3256-8"
         offset="1"
         style="stop-color:#ffffff;stop-opacity:0" />
    </linearGradient>
    <linearGradient
       inkscape:collect="always"
       xlink:href="#linearGradient3250-0"
       id="linearGradient4029-5"
       gradientUnits="userSpaceOnUse"
       gradientTransform="matrix(-0.30059886,0,0,-0.30318299,86.16905,93.461103)"
       x1="84.35965"
       y1="79.416924"
       x2="84.35965"
       y2="5.1837206" />
    <linearGradient
       id="linearGradient3366-4">
      <stop
         id="stop3368-9"
         offset="0"
         style="stop-color:#ffffff;stop-opacity:1;" />
      <stop
         style="stop-color:#ffffff;stop-opacity:0.49803922;"
         offset="0.43290177"
         id="stop3370-4" />
      <stop
         id="stop3372-6"
         offset="1"
         style="stop-color:#ffffff;stop-opacity:0" />
    </linearGradient>
    <linearGradient
       inkscape:collect="always"
       xlink:href="#linearGradient4142-5"
       id="linearGradient4148"
       x1="70"
       y1="80"
       x2="70"
       y2="-64"
       gradientUnits="userSpaceOnUse" />
    <linearGradient
       inkscape:collect="always"
       id="linearGradient4142-5">
      <stop
         style="stop-color:#402a1a;stop-opacity:1;"
         offset="0"
         id="stop4144-4" />
      <stop
         style="stop-color:#402a1a;stop-opacity:0;"
         offset="1"
         id="stop4146-7" />
    </linearGradient>
    <linearGradient
       y2="-64"
       x2="70"
       y1="80"
       x1="70"
       gradientUnits="userSpaceOnUse"
       id="linearGradient3208"
       xlink:href="#linearGradient4142-5"
       inkscape:collect="always" />
    <linearGradient
       inkscape:collect="always"
       xlink:href="#linearGradient4142-5"
       id="linearGradient3242"
       gradientUnits="userSpaceOnUse"
       x1="70"
       y1="80"
       x2="70"
       y2="-64" />
    <linearGradient
       inkscape:collect="always"
       xlink:href="#linearGradient4142-5"
       id="linearGradient3245"
       gradientUnits="userSpaceOnUse"
       x1="70"
       y1="80"
       x2="70"
       y2="-64"
       gradientTransform="matrix(1,0,0,-1,0,134)" />
    <linearGradient
       inkscape:collect="always"
       xlink:href="#linearGradient4142-5"
       id="linearGradient3247"
       gradientUnits="userSpaceOnUse"
       x1="70"
       y1="80"
       x2="70"
       y2="-64" />
  </defs>
  <sodipodi:namedview
     id="base"
     pagecolor="#818181"
     bordercolor="#ffb1b1"
     borderopacity="1"
     inkscape:pageopacity="1"
     inkscape:pageshadow="2"
     inkscape:zoom="4.6803524"
     inkscape:cx="37.881625"
     inkscape:cy="29.838851"
     inkscape:document-units="px"
     inkscape:current-layer="svg2408"
     showgrid="true"
     showborder="true"
     inkscape:showpageshadow="false"
     inkscape:window-width="1920"
     inkscape:window-height="1027"
     inkscape:window-x="-1"
     inkscape:window-y="23"
     inkscape:window-maximized="1"
     borderlayer="true"
     inkscape:snap-global="true">
    <inkscape:grid
       type="xygrid"
       id="grid3732"
       visible="true"
       enabled="true"
       empspacing="8"
       snapvisiblegridlinesonly="true" />
  </sodipodi:namedview>
  <metadata
     id="metadata2413">
    <rdf:RDF>
      <cc:Work
         rdf:about="">
        <dc:format>image/svg+xml</dc:format>
        <dc:type
           rdf:resource="http://purl.org/dc/dcmitype/StillImage" />
        <dc:title />
      </cc:Work>
    </rdf:RDF>
  </metadata>
  <g
     inkscape:groupmode="layer"
     id="layer2"
     inkscape:label="Blur Shadow"
     style="display:none"
     sodipodi:insensitive="true">
    <rect
       style="opacity:0.9;fill:url(#ButtonShadow);fill-opacity:1;fill-rule:nonzero;stroke:none;filter:url(#filter3174)"
       id="rect3745"
       width="86"
       height="85"
       x="5"
       y="7"
       rx="6"
       ry="6" />
  </g>
  <g
     inkscape:groupmode="layer"
     id="layer3"
     inkscape:label="Shadow"
     sodipodi:insensitive="true"
     style="display:inline">
    <path
       sodipodi:type="inkscape:offset"
       inkscape:radius="0.99097413"
       inkscape:original="M 12 -94.03125 C 7.028367 -94.03125 2.96875 -89.971633 2.96875 -85 L 2.96875 -14 C 2.96875 -9.0283671 7.0283671 -4.96875 12 -4.96875 L 84 -4.96875 C 88.971633 -4.96875 93.03125 -9.028367 93.03125 -14 L 93.03125 -85 C 93.03125 -89.971633 88.971633 -94.03125 84 -94.03125 L 12 -94.03125 z "
       style="opacity:0.07999998;fill:url(#linearGradient3026);fill-opacity:1;fill-rule:nonzero;stroke:none;display:inline"
       id="path3786"
       d="m 12,-95.03125 c -5.5110903,0 -10.03125,4.52016 -10.03125,10.03125 l 0,71 c 0,5.5110902 4.5201598,10.03125 10.03125,10.03125 l 72,0 c 5.51109,0 10.03125,-4.5201597 10.03125,-10.03125 l 0,-71 c 0,-5.51109 -4.52016,-10.03125 -10.03125,-10.03125 l -72,0 z"
       transform="scale(1,-1)" />
    <path
       sodipodi:type="inkscape:offset"
       inkscape:radius="1.0360184"
       inkscape:original="M 12 -93 C 7.5908667 -93 4 -89.409133 4 -85 L 4 -14 C 4 -9.5908667 7.5908667 -6 12 -6 L 84 -6 C 88.409133 -6 92 -9.5908667 92 -14 L 92 -85 C 92 -89.409133 88.409133 -93 84 -93 L 12 -93 z "
       style="opacity:0.1;fill:url(#linearGradient3780);fill-opacity:1;fill-rule:nonzero;stroke:none;display:inline"
       id="path3778"
       d="m 12,-94.03125 c -4.971633,0 -9.03125,4.059617 -9.03125,9.03125 l 0,71 c 0,4.9716329 4.0596171,9.03125 9.03125,9.03125 l 72,0 c 4.971633,0 9.03125,-4.059617 9.03125,-9.03125 l 0,-71 c 0,-4.971633 -4.059617,-9.03125 -9.03125,-9.03125 l -72,0 z"
       transform="scale(1,-1)" />
    <path
       sodipodi:type="inkscape:offset"
       inkscape:radius="0.98962283"
       inkscape:original="M 12 -92 C 8.122 -92 5 -88.878 5 -85 L 5 -14 C 5 -10.122 8.122 -7 12 -7 L 84 -7 C 87.878 -7 91 -10.122 91 -14 L 91 -85 C 91 -88.878 87.878 -92 84 -92 L 12 -92 z "
       style="opacity:0.2;fill:url(#linearGradient3772);fill-opacity:1;fill-rule:nonzero;stroke:none;display:inline"
       id="path3770"
       d="m 12,-93 c -4.4091333,0 -8,3.590867 -8,8 l 0,71 c 0,4.4091333 3.5908667,8 8,8 l 72,0 c 4.409133,0 8,-3.5908667 8,-8 l 0,-71 c 0,-4.409133 -3.590867,-8 -8,-8 l -72,0 z"
       transform="scale(1,-1)" />
    <rect
       style="opacity:0.3;fill:url(#linearGradient3725);fill-opacity:1;fill-rule:nonzero;stroke:none;display:inline"
       id="rect3723"
       width="86"
       height="85"
       x="5"
       y="-92"
       rx="7"
       ry="7"
       transform="scale(1,-1)" />
    <rect
       transform="scale(1,-1)"
       ry="6"
       rx="6"
       y="-91"
       x="6"
       height="84"
       width="84"
       id="rect3716"
       style="opacity:0.45;fill:url(#linearGradient3721);fill-opacity:1;fill-rule:nonzero;stroke:none;display:inline" />
  </g>
  <g
     inkscape:label="Button"
     inkscape:groupmode="layer"
     id="layer1"
     sodipodi:insensitive="true">
    <rect
       style="fill:url(#linearGradient3617);fill-opacity:1;fill-rule:nonzero;stroke:none"
       id="rect2419"
       width="84"
       height="84"
       x="6"
       y="6"
       rx="6"
       ry="6" />
    <rect
       ry="6"
       rx="6"
       y="-90"
       x="6"
       height="84"
       width="84"
       id="rect3970"
       style="opacity:0.1;fill:url(#linearGradient3978);fill-opacity:1;fill-rule:nonzero;stroke:none"
       transform="matrix(0,1,-1,0,0,0)" />
    <path
       style="opacity:0.2;fill:url(#radialGradient4375);fill-opacity:1;fill-rule:nonzero;stroke:none"
       d="M 120.78125,6.125 C 118.04223,6.6826484 116,9.0915 116,12 l 0,68 c 0,3.324 2.676,6 6,6 l 72,0 c 3.324,0 6,-2.676 6,-6 l 0,-68 c 0,-2.9085 -2.04223,-5.3173516 -4.78125,-5.875 2.20512,0.5362071 3.8125,2.4908437 3.8125,4.875 l 0,68 c 0,2.80489 -2.22636,5.03125 -5.03125,5.03125 l -72,0 c -2.80489,0 -5.03125,-2.22636 -5.03125,-5.03125 l 0,-68 c 0,-2.3841563 1.60738,-4.3387929 3.8125,-4.875 z"
       id="rect4359"
       inkscape:connector-curvature="0" />
    <path
       id="path4412"
       d="m 6,100 0,1 c 0,3.324 2.676,6 6,6 l 72,0 c 3.324,0 6,-2.676 6,-6 l 0,-1 c 0,3.324 -2.676,6 -6,6 l -72,0 c -3.324,0 -6,-2.676 -6,-6 z"
       style="opacity:0.15;fill:#000000;fill-opacity:1;fill-rule:nonzero;stroke:none"
       inkscape:connector-curvature="0" />
  </g>
  <g
     inkscape:groupmode="layer"
     id="layer5"
     inkscape:label="Highlight"
     style="display:inline"
     sodipodi:insensitive="true">
    <rect
       style="opacity:0.2;fill:url(#linearGradient3613);fill-opacity:1;fill-rule:nonzero;stroke:#ffffff;stroke-width:0.5;stroke-linecap:round;stroke-linejoin:miter;stroke-miterlimit:4;stroke-opacity:1;stroke-dasharray:none;stroke-dashoffset:0;filter:url(#filter4002)"
       id="rect3171"
       width="66"
       height="62"
       x="15"
       y="15"
       rx="12"
       ry="12"
       clip-path="url(#clipPath4355)" />
  </g>
  <g
     inkscape:groupmode="layer"
     id="layer7"
     inkscape:label="Scotch"
     sodipodi:insensitive="true">
    <rect
       style="opacity:0.7;color:#000000;fill:url(#linearGradient4019);fill-opacity:1;fill-rule:nonzero;stroke:none;stroke-width:2;marker:none;visibility:visible;display:inline;overflow:visible;enable-background:accumulate"
       id="rect4011"
       width="12"
       height="84"
       x="42"
       y="6" />
    <rect
       y="6"
       x="48"
       height="80"
       width="1"
       id="rect4086"
       style="opacity:0.2;color:#000000;fill:url(#linearGradient4088);fill-opacity:1;fill-rule:nonzero;stroke:none;stroke-width:2;marker:none;visibility:visible;display:inline;overflow:visible;enable-background:accumulate" />
    <rect
       y="6"
       x="54"
       height="84"
       width="2"
       id="rect4090"
       style="opacity:0.1;color:#000000;fill:url(#linearGradient4108);fill-opacity:1;fill-rule:nonzero;stroke:none;stroke-width:2;marker:none;visibility:visible;display:inline;overflow:visible;enable-background:accumulate" />
    <rect
       style="opacity:0.05;color:#000000;fill:url(#linearGradient4112);fill-opacity:1;fill-rule:nonzero;stroke:none;stroke-width:2;marker:none;visibility:visible;display:inline;overflow:visible;enable-background:accumulate"
       id="rect4110"
       width="2"
       height="84"
       x="-42"
       y="6"
       transform="scale(-1,1)" />
    <path
       style="opacity:0.5;color:#000000;fill:url(#linearGradient4122);fill-opacity:1;fill-rule:nonzero;stroke:none;stroke-width:2;marker:none;visibility:visible;display:inline;overflow:visible;enable-background:accumulate"
       d="m 42,6 0,84 1,0 0,-84 -1,0 z"
       id="rect4116"
       inkscape:connector-curvature="0" />
    <rect
       y="6"
       x="42"
       height="84"
       width="12"
       id="rect4125"
       style="opacity:0.2;color:#000000;fill:url(#linearGradient4127);fill-opacity:1;fill-rule:nonzero;stroke:none;stroke-width:2;marker:none;visibility:visible;display:inline;overflow:visible;enable-background:accumulate" />
  </g>
  <g
     inkscape:groupmode="layer"
     id="layer8"
     inkscape:label="Button Highlights"
     sodipodi:insensitive="true">
    <path
       style="opacity:0.3;fill:url(#linearGradient4047);fill-opacity:1;fill-rule:nonzero;stroke:none"
       d="M 12,86 C 8.676,86 6,83.324 6,80 L 6,12 C 6,8.676 8.676,6 12,6 l 72,0 c 3.324,0 6,2.676 6,6 l 0,68 c 0,3.324 -2.676,6 -6,6 z m 0,-0.96875 72,0 c 2.80489,0 5.03125,-2.22636 5.03125,-5.03125 l 0,-68 C 89.03125,9.19511 86.80489,6.96875 84,6.96875 l -72,0 C 9.1951102,6.96875 6.96875,9.19511 6.96875,12 l 0,68 c 0,2.80489 2.2263602,5.03125 5.03125,5.03125 z"
       id="rect4377"
       inkscape:connector-curvature="0"
       sodipodi:nodetypes="ssssssssssssssssss" />
    <path
       style="opacity:0.1;fill:url(#linearGradient4429-1);fill-opacity:1;fill-rule:nonzero;stroke:none"
       d="m 6,78 0,2 c 0,3.324 2.676,6 6,6 l 72,0 c 3.324,0 6,-2.676 6,-6 l 0,-2 c 0,3.324 -2.676,6 -6,6 L 12,84 C 8.676,84 6,81.324 6,78 z"
       id="rect4414"
       inkscape:connector-curvature="0" />
  </g>
  <g
     inkscape:groupmode="layer"
     id="layer4"
     inkscape:label="Bottom Edge"
     style="display:inline"
     sodipodi:insensitive="true">
    <path
       inkscape:connector-curvature="0"
       id="path3888"
       d="m 6,80 0,4 c 0,3.324 2.676,6 6,6 l 72,0 c 3.324,0 6,-2.676 6,-6 l 0,-4 c 0,3.324 -2.676,6 -6,6 L 12,86 C 8.676,86 6,83.324 6,80 z"
       style="fill:url(#linearGradient3228);fill-opacity:1;fill-rule:nonzero;stroke:none;display:inline" />
    <path
       style="opacity:0.1;color:#000000;fill:#000000;fill-opacity:1;fill-rule:nonzero;stroke:none;stroke-width:1.5;marker:none;visibility:visible;display:inline;overflow:visible;enable-background:accumulate"
       d="m 6,82 0,2 c 0,3.324 2.676,6 6,6 l 72,0 c 3.324,0 6,-2.676 6,-6 l 0,-2 c 0,3.324 -2.676,6 -6,6 L 12,88 C 8.676,88 6,85.324 6,82 z"
       id="rect4345"
       inkscape:connector-curvature="0" />
    <path
       style="opacity:0.15;color:#000000;fill:#000000;fill-opacity:1;fill-rule:nonzero;stroke:none;stroke-width:1.5;marker:none;visibility:visible;display:inline;overflow:visible;enable-background:accumulate"
       d="m 6,83 0,1 c 0,3.324 2.676,6 6,6 l 72,0 c 3.324,0 6,-2.676 6,-6 l 0,-1 c 0,3.324 -2.676,6 -6,6 L 12,89 C 8.676,89 6,86.324 6,83 z"
       id="rect4336"
       inkscape:connector-curvature="0" />
  </g>
  <g
     inkscape:groupmode="layer"
     id="layer6"
     inkscape:label="Symbol" />
  <path
     transform="scale(1,-1)"
     style="opacity:0.07000002;color:#000000;fill:url(#linearGradient4166);fill-opacity:1;fill-rule:nonzero;stroke:none;stroke-width:2;marker:none;visibility:visible;display:inline;overflow:visible;enable-background:accumulate"
     d="m 13,-33 c -1.085791,0 -2,0.914209 -2,2 l 0,18 c 0,1.085791 0.914209,2 2,2 l 24,0 c 1.085791,0 2,-0.914209 2,-2 l 0,-18 c 0,-1.085791 -0.914209,-2 -2,-2 z"
     id="path4164"
     inkscape:connector-curvature="0"
     sodipodi:nodetypes="sssssssss" />
  <rect
     style="color:#000000;fill:url(#linearGradient4158);fill-opacity:1;fill-rule:nonzero;stroke:none;stroke-width:2;marker:none;visibility:visible;display:inline;overflow:visible;enable-background:accumulate"
     id="rect4150"
     width="26"
     height="19.999996"
     x="12"
     y="-32"
     rx="1"
     transform="scale(1,-1)" />
  <rect
     style="color:#000000;fill:#333333;fill-opacity:1;fill-rule:nonzero;stroke:none;stroke-width:2;marker:none;visibility:visible;display:inline;overflow:visible;enable-background:accumulate"
     id="rect4168"
     width="1"
     height="8"
     x="14"
     y="22" />
  <rect
     y="22"
     x="16"
     height="8"
     width="1"
     id="rect4170"
     style="opacity:0.6;color:#000000;fill:#333333;fill-opacity:1;fill-rule:nonzero;stroke:none;stroke-width:2;marker:none;visibility:visible;display:inline;overflow:visible;enable-background:accumulate" />
  <rect
     style="color:#000000;fill:#333333;fill-opacity:1;fill-rule:nonzero;stroke:none;stroke-width:2;marker:none;visibility:visible;display:inline;overflow:visible;enable-background:accumulate"
     id="rect4172"
     width="1"
     height="6"
     x="18"
     y="22" />
  <rect
     y="22"
     x="20"
     height="6"
     width="1"
     id="rect4174"
     style="opacity:0.8;color:#000000;fill:#333333;fill-opacity:1;fill-rule:nonzero;stroke:none;stroke-width:2;marker:none;visibility:visible;display:inline;overflow:visible;enable-background:accumulate" />
  <rect
     style="opacity:0.6;color:#000000;fill:#333333;fill-opacity:1;fill-rule:nonzero;stroke:none;stroke-width:2;marker:none;visibility:visible;display:inline;overflow:visible;enable-background:accumulate"
     id="rect4176"
     width="1"
     height="6"
     x="22"
     y="22" />
  <rect
     y="22"
     x="24"
     height="6"
     width="1"
     id="rect4178"
     style="color:#000000;fill:#333333;fill-opacity:1;fill-rule:nonzero;stroke:none;stroke-width:2;marker:none;visibility:visible;display:inline;overflow:visible;enable-background:accumulate" />
  <rect
     style="opacity:0.6;color:#000000;fill:#333333;fill-opacity:1;fill-rule:nonzero;stroke:none;stroke-width:2;marker:none;visibility:visible;display:inline;overflow:visible;enable-background:accumulate"
     id="rect4180"
     width="1"
     height="6"
     x="26"
     y="22" />
  <rect
     y="22"
     x="28"
     height="6"
     width="1"
     id="rect4182"
     style="opacity:0.8;color:#000000;fill:#333333;fill-opacity:1;fill-rule:nonzero;stroke:none;stroke-width:2;marker:none;visibility:visible;display:inline;overflow:visible;enable-background:accumulate" />
  <rect
     style="color:#000000;fill:#333333;fill-opacity:1;fill-rule:nonzero;stroke:none;stroke-width:2;marker:none;visibility:visible;display:inline;overflow:visible;enable-background:accumulate"
     id="rect4184"
     width="1"
     height="6"
     x="30"
     y="22" />
  <rect
     y="22"
     x="32"
     height="6"
     width="1"
     id="rect4186"
     style="opacity:0.6;color:#000000;fill:#333333;fill-opacity:1;fill-rule:nonzero;stroke:none;stroke-width:2;marker:none;visibility:visible;display:inline;overflow:visible;enable-background:accumulate" />
  <rect
     style="color:#000000;fill:#333333;fill-opacity:1;fill-rule:nonzero;stroke:none;stroke-width:2;marker:none;visibility:visible;display:inline;overflow:visible;enable-background:accumulate"
     id="rect4188"
     width="1"
     height="8"
     x="34"
     y="22" />
  <rect
     style="opacity:0.2;color:#000000;fill:#333333;fill-opacity:1;fill-rule:nonzero;stroke:none;stroke-width:2;marker:none;visibility:visible;display:inline;overflow:visible;enable-background:accumulate"
     id="rect4192"
     width="1"
     height="1"
     x="18"
     y="29" />
  <rect
     y="29"
     x="20"
     height="1"
     width="1"
     id="rect4194"
     style="opacity:0.2;color:#000000;fill:#333333;fill-opacity:1;fill-rule:nonzero;stroke:none;stroke-width:2;marker:none;visibility:visible;display:inline;overflow:visible;enable-background:accumulate" />
  <rect
     style="opacity:0.2;color:#000000;fill:#333333;fill-opacity:1;fill-rule:nonzero;stroke:none;stroke-width:2;marker:none;visibility:visible;display:inline;overflow:visible;enable-background:accumulate"
     id="rect4196"
     width="1"
     height="1"
     x="22"
     y="29" />
  <rect
     y="29"
     x="24"
     height="1"
     width="1"
     id="rect4198"
     style="opacity:0.2;color:#000000;fill:#333333;fill-opacity:1;fill-rule:nonzero;stroke:none;stroke-width:2;marker:none;visibility:visible;display:inline;overflow:visible;enable-background:accumulate" />
  <rect
     style="opacity:0.2;color:#000000;fill:#333333;fill-opacity:1;fill-rule:nonzero;stroke:none;stroke-width:2;marker:none;visibility:visible;display:inline;overflow:visible;enable-background:accumulate"
     id="rect4200"
     width="1"
     height="1"
     x="26"
     y="29" />
  <rect
     y="29"
     x="28"
     height="1"
     width="1"
     id="rect4202"
     style="opacity:0.2;color:#000000;fill:#333333;fill-opacity:1;fill-rule:nonzero;stroke:none;stroke-width:2;marker:none;visibility:visible;display:inline;overflow:visible;enable-background:accumulate" />
  <rect
     style="opacity:0.2;color:#000000;fill:#333333;fill-opacity:1;fill-rule:nonzero;stroke:none;stroke-width:2;marker:none;visibility:visible;display:inline;overflow:visible;enable-background:accumulate"
     id="rect4204"
     width="1"
     height="1"
     x="30"
     y="29" />
  <rect
     y="29"
     x="32"
     height="1"
     width="1"
     id="rect4206"
     style="opacity:0.2;color:#000000;fill:#333333;fill-opacity:1;fill-rule:nonzero;stroke:none;stroke-width:2;marker:none;visibility:visible;display:inline;overflow:visible;enable-background:accumulate" />
  <g
     style="font-size:3.20626998px;font-style:normal;font-variant:normal;font-weight:normal;font-stretch:normal;text-align:start;line-height:125%;letter-spacing:0px;word-spacing:0px;writing-mode:lr-tb;text-anchor:start;fill:#724d28;fill-opacity:1;stroke:none;font-family:Ubuntu;-inkscape-font-specification:Ubuntu"
     id="text4208">
    <path
       d="m 12.817599,35.706155 c 0.331314,3e-6 0.585678,0.05878 0.763093,0.176345 0.177411,0.115428 0.266118,0.305666 0.26612,0.570716 -2e-6,0.267191 -0.08978,0.460635 -0.269327,0.580335 -0.179552,0.117564 -0.436054,0.176346 -0.769504,0.176345 l -0.157108,0 0,0.743855 -0.500178,0 0,-2.189883 c 0.109013,-0.02137 0.224439,-0.03634 0.346277,-0.04489 0.121838,-0.0085 0.228713,-0.01282 0.320627,-0.01282 m 0.03206,0.426434 c -0.03634,2e-6 -0.07268,0.0011 -0.109013,0.0032 -0.0342,0.0021 -0.06413,0.0043 -0.08978,0.0064 l 0,0.641254 0.157108,0 c 0.173137,10e-7 0.303525,-0.02351 0.391165,-0.07054 0.08764,-0.04702 0.131455,-0.134662 0.131457,-0.262914 -2e-6,-0.06199 -0.01176,-0.113287 -0.03527,-0.153901 -0.02138,-0.04061 -0.05344,-0.07267 -0.09619,-0.09619 -0.04061,-0.02565 -0.09085,-0.04275 -0.150695,-0.0513 -0.05985,-0.01069 -0.126114,-0.01603 -0.198789,-0.01603"
       style="font-weight:bold;fill:#724d28;-inkscape-font-specification:Ubuntu Bold"
       id="path4452" />
    <path
       d="m 15.485767,37.953751 c -0.02351,-0.07695 -0.05023,-0.156039 -0.08016,-0.237264 -0.02779,-0.08123 -0.05558,-0.162451 -0.08336,-0.243677 l -0.865693,0 c -0.02779,0.08123 -0.05664,0.162451 -0.08657,0.243677 -0.02779,0.08122 -0.05344,0.160313 -0.07695,0.237264 l -0.519416,0 c 0.08336,-0.239402 0.162451,-0.460634 0.237264,-0.663698 0.07481,-0.203063 0.147488,-0.39437 0.218026,-0.573923 0.07268,-0.179549 0.143213,-0.349481 0.211614,-0.509797 0.07054,-0.162449 0.143213,-0.320624 0.218027,-0.474527 l 0.477734,0 c 0.07267,0.153903 0.14428,0.312078 0.21482,0.474527 0.07054,0.160316 0.141074,0.330248 0.211614,0.509797 0.07267,0.179553 0.146417,0.37086 0.221232,0.573923 0.07481,0.203064 0.153899,0.424296 0.237264,0.663698 l -0.535447,0 M 14.886195,36.23519 c -0.01069,0.03206 -0.02672,0.07588 -0.04809,0.131457 -0.02138,0.05558 -0.04596,0.119702 -0.07375,0.192376 -0.02779,0.07268 -0.05878,0.152834 -0.09298,0.24047 -0.03206,0.08764 -0.06519,0.179553 -0.09939,0.27574 l 0.631635,0 c -0.0342,-0.09619 -0.06733,-0.1881 -0.09939,-0.27574 -0.03206,-0.08764 -0.06306,-0.167793 -0.09298,-0.24047 -0.02779,-0.07267 -0.05237,-0.136799 -0.07374,-0.192376 -0.02138,-0.05557 -0.03848,-0.09939 -0.0513,-0.131457"
       style="font-weight:bold;fill:#724d28;-inkscape-font-specification:Ubuntu Bold"
       id="path4454" />
    <path
       d="m 17.240599,37.998638 c -0.361241,0 -0.63698,-0.100463 -0.827218,-0.301389 -0.188101,-0.200926 -0.282152,-0.486284 -0.282152,-0.856074 0,-0.183825 0.02886,-0.347345 0.08657,-0.490559 0.05771,-0.14535 0.1368,-0.267188 0.237264,-0.365515 0.100462,-0.100461 0.220163,-0.176343 0.359102,-0.227645 0.138937,-0.0513 0.289632,-0.07695 0.452084,-0.07695 0.09405,2e-6 0.17955,0.0075 0.256501,0.02244 0.07695,0.01283 0.144281,0.02886 0.201995,0.04809 0.05771,0.0171 0.105806,0.03527 0.144283,0.05451 0.03847,0.01924 0.06626,0.0342 0.08336,0.04489 l -0.144283,0.40399 c -0.0684,-0.03634 -0.148558,-0.06733 -0.24047,-0.09298 -0.08978,-0.02565 -0.192377,-0.03847 -0.307802,-0.03848 -0.07695,2e-6 -0.152833,0.01283 -0.227645,0.03848 -0.07268,0.02565 -0.13787,0.06733 -0.195582,0.125044 -0.05558,0.05558 -0.100464,0.128253 -0.134664,0.218027 -0.0342,0.08978 -0.0513,0.19879 -0.0513,0.327039 -1e-6,0.102602 0.01069,0.19879 0.03206,0.288564 0.02351,0.08764 0.05985,0.163521 0.109013,0.227646 0.0513,0.06413 0.117562,0.115426 0.198789,0.153901 0.08122,0.03634 0.17955,0.05451 0.294976,0.05451 0.07268,10e-7 0.137869,-0.0043 0.195583,-0.01282 0.05771,-0.0085 0.109012,-0.01817 0.153901,-0.02886 0.04489,-0.01282 0.08443,-0.02672 0.118632,-0.04168 0.0342,-0.01496 0.06519,-0.02886 0.09298,-0.04168 l 0.137869,0.400783 c -0.07054,0.04275 -0.169934,0.08123 -0.298183,0.115426 -0.128252,0.0342 -0.276809,0.0513 -0.445671,0.0513"
       style="font-weight:bold;fill:#724d28;-inkscape-font-specification:Ubuntu Bold"
       id="path4456" />
    <path
       d="m 19.617848,37.953751 c -0.04489,-0.07268 -0.09833,-0.150695 -0.160314,-0.234058 -0.05985,-0.0855 -0.126114,-0.169932 -0.198789,-0.253295 -0.07054,-0.0855 -0.144283,-0.166726 -0.221232,-0.243677 -0.07695,-0.07909 -0.153902,-0.148556 -0.230852,-0.208407 l 0,0.939437 -0.500178,0 0,-2.221945 0.500178,0 0,0.840042 c 0.130388,-0.136799 0.260776,-0.278944 0.391165,-0.426434 0.132525,-0.149624 0.255432,-0.287493 0.368721,-0.413608 l 0.59316,0 c -0.151765,0.179553 -0.304597,0.352691 -0.458496,0.519415 -0.151765,0.166728 -0.312079,0.334522 -0.480941,0.503385 0.177412,0.147489 0.348413,0.322765 0.513003,0.525828 0.166725,0.203064 0.325969,0.427503 0.477735,0.673317 l -0.59316,0"
       style="font-weight:bold;fill:#724d28;-inkscape-font-specification:Ubuntu Bold"
       id="path4458" />
    <path
       d="m 22.067388,37.953751 c -0.02351,-0.07695 -0.05023,-0.156039 -0.08016,-0.237264 -0.02779,-0.08123 -0.05558,-0.162451 -0.08336,-0.243677 l -0.865692,0 c -0.02779,0.08123 -0.05664,0.162451 -0.08657,0.243677 -0.02779,0.08122 -0.05344,0.160313 -0.07695,0.237264 l -0.519416,0 c 0.08336,-0.239402 0.162451,-0.460634 0.237264,-0.663698 0.07481,-0.203063 0.147488,-0.39437 0.218026,-0.573923 0.07268,-0.179549 0.143213,-0.349481 0.211614,-0.509797 0.07054,-0.162449 0.143213,-0.320624 0.218027,-0.474527 l 0.477734,0 c 0.07267,0.153903 0.14428,0.312078 0.21482,0.474527 0.07054,0.160316 0.141074,0.330248 0.211614,0.509797 0.07267,0.179553 0.146417,0.37086 0.221232,0.573923 0.07481,0.203064 0.153899,0.424296 0.237264,0.663698 l -0.535447,0 M 21.467816,36.23519 c -0.01069,0.03206 -0.02672,0.07588 -0.04809,0.131457 -0.02138,0.05558 -0.04596,0.119702 -0.07374,0.192376 -0.02779,0.07268 -0.05878,0.152834 -0.09298,0.24047 -0.03206,0.08764 -0.06519,0.179553 -0.0994,0.27574 l 0.631635,0 c -0.0342,-0.09619 -0.06733,-0.1881 -0.09939,-0.27574 -0.03206,-0.08764 -0.06306,-0.167793 -0.09298,-0.24047 -0.02779,-0.07267 -0.05237,-0.136799 -0.07374,-0.192376 -0.02138,-0.05557 -0.03848,-0.09939 -0.0513,-0.131457"
       style="font-weight:bold;fill:#724d28;-inkscape-font-specification:Ubuntu Bold"
       id="path4460" />
    <path
       d="m 23.892758,36.116558 c -0.23299,2e-6 -0.401854,0.0652 -0.506591,0.195582 -0.102601,0.128253 -0.153901,0.304597 -0.153901,0.529035 0,0.109014 0.01282,0.208408 0.03848,0.298183 0.02565,0.08764 0.06413,0.16352 0.115426,0.227645 0.0513,0.06413 0.115425,0.114358 0.192376,0.150695 0.07695,0.0342 0.166725,0.0513 0.269327,0.0513 0.05557,10e-7 0.102599,-0.0011 0.141076,-0.0032 0.04061,-0.0021 0.07588,-0.0064 0.105807,-0.01282 l 0,-0.772711 0.500178,0 0,1.09975 c -0.05985,0.02351 -0.15604,0.04809 -0.288564,0.07374 -0.132528,0.02779 -0.296047,0.04168 -0.49056,0.04168 -0.166727,0 -0.31849,-0.02565 -0.45529,-0.07695 -0.134664,-0.0513 -0.25009,-0.126113 -0.346277,-0.224439 -0.09619,-0.09833 -0.171002,-0.219095 -0.224439,-0.362309 -0.0513,-0.143212 -0.07695,-0.306732 -0.07695,-0.490559 0,-0.185962 0.02886,-0.350551 0.08657,-0.493766 0.05771,-0.143211 0.1368,-0.263981 0.237264,-0.362308 0.100462,-0.100461 0.218025,-0.176343 0.352689,-0.227645 0.1368,-0.0513 0.282151,-0.07695 0.436053,-0.07695 0.104737,2e-6 0.198787,0.0075 0.282152,0.02244 0.0855,0.01283 0.158174,0.02886 0.218026,0.04809 0.06199,0.0171 0.112218,0.03527 0.150695,0.05451 0.04061,0.01924 0.06947,0.0342 0.08657,0.04489 l -0.144282,0.400783 c -0.0684,-0.03634 -0.14749,-0.06733 -0.237264,-0.09298 -0.08764,-0.02779 -0.183827,-0.04168 -0.288564,-0.04168"
       style="font-weight:bold;fill:#724d28;-inkscape-font-specification:Ubuntu Bold"
       id="path4462" />
    <path
       d="m 25.057185,37.953751 0,-2.221945 1.500534,0 0,0.420021 -1.000356,0 0,0.436053 0.888137,0 0,0.410402 -0.888137,0 0,0.535447 1.0741,0 0,0.420022 -1.574278,0"
       style="font-weight:bold;fill:#724d28;-inkscape-font-specification:Ubuntu Bold"
       id="path4464" />
    <path
       d="m 27.768737,35.731806 0.500178,0 0,2.221945 -0.500178,0 0,-2.221945"
       style="font-weight:bold;fill:#724d28;-inkscape-font-specification:Ubuntu Bold"
       id="path4466" />
    <path
       d="m 30.274137,37.953751 c -0.143215,-0.254364 -0.298184,-0.505522 -0.464909,-0.753474 -0.166727,-0.24795 -0.344141,-0.482008 -0.532241,-0.702173 l 0,1.455647 -0.493765,0 0,-2.221945 0.407196,0 c 0.07054,0.07054 0.148556,0.157109 0.234058,0.259707 0.0855,0.102603 0.172068,0.212685 0.259708,0.330246 0.08977,0.115427 0.178481,0.236197 0.26612,0.362309 0.08764,0.123977 0.169931,0.243677 0.246883,0.359102 l 0,-1.311364 0.496972,0 0,2.221945 -0.420022,0"
       style="font-weight:bold;fill:#724d28;-inkscape-font-specification:Ubuntu Bold"
       id="path4468" />
    <path
       d="m 31.812695,37.572204 c 0.07054,10e-7 0.12825,-0.0053 0.173139,-0.01603 0.04702,-0.01282 0.08443,-0.02886 0.112219,-0.04809 0.02779,-0.02137 0.04702,-0.04596 0.05771,-0.07374 0.01069,-0.02779 0.01603,-0.05878 0.01603,-0.09298 -2e-6,-0.07267 -0.0342,-0.132525 -0.102601,-0.179551 -0.0684,-0.04916 -0.185965,-0.101531 -0.35269,-0.157107 -0.07268,-0.02565 -0.145351,-0.05451 -0.218026,-0.08657 -0.07268,-0.0342 -0.13787,-0.07588 -0.195583,-0.125044 -0.05771,-0.0513 -0.104738,-0.112218 -0.141076,-0.182758 -0.03634,-0.07267 -0.05451,-0.160312 -0.05451,-0.262914 0,-0.102599 0.01924,-0.194512 0.05771,-0.275739 0.03847,-0.08336 0.09298,-0.153899 0.16352,-0.211614 0.07054,-0.05771 0.156037,-0.101529 0.256501,-0.131457 0.100463,-0.03206 0.213751,-0.04809 0.339865,-0.04809 0.149625,2e-6 0.278944,0.01603 0.387958,0.04809 0.109012,0.03206 0.198788,0.06733 0.269327,0.105807 l -0.144282,0.394371 c -0.06199,-0.03206 -0.131458,-0.05985 -0.208408,-0.08336 -0.07481,-0.02565 -0.165658,-0.03847 -0.272533,-0.03848 -0.119701,2e-6 -0.20627,0.0171 -0.259707,0.0513 -0.0513,0.03206 -0.07695,0.0823 -0.07695,0.150695 -10e-7,0.04061 0.0096,0.07482 0.02886,0.102601 0.01924,0.02779 0.04595,0.05344 0.08016,0.07695 0.03634,0.02138 0.07695,0.04168 0.121839,0.06092 0.04702,0.0171 0.09832,0.03527 0.1539,0.05451 0.115425,0.04275 0.215888,0.0855 0.30139,0.128251 0.0855,0.04061 0.156037,0.08871 0.211614,0.144282 0.05771,0.05558 0.100461,0.12077 0.12825,0.195582 0.02779,0.07481 0.04168,0.165658 0.04168,0.272533 -2e-6,0.20734 -0.07268,0.368722 -0.218026,0.484147 -0.145353,0.113288 -0.364448,0.169932 -0.657286,0.169932 -0.09833,0 -0.187033,-0.0064 -0.26612,-0.01924 -0.07909,-0.01069 -0.149626,-0.02458 -0.211614,-0.04168 -0.05985,-0.0171 -0.11222,-0.03527 -0.157107,-0.05451 -0.04275,-0.01924 -0.07909,-0.03741 -0.109013,-0.05451 l 0.141076,-0.397577 c 0.06626,0.03634 0.147488,0.06947 0.243676,0.09939 0.09832,0.02779 0.218026,0.04168 0.359102,0.04168"
       style="font-weight:bold;fill:#724d28;-inkscape-font-specification:Ubuntu Bold"
       id="path4470" />
    <path
       d="m 33.07286,35.731806 0.500178,0 0,2.221945 -0.500178,0 0,-2.221945"
       style="font-weight:bold;fill:#724d28;-inkscape-font-specification:Ubuntu Bold"
       id="path4472" />
    <path
       d="m 34.587521,37.546554 c 0.02351,0.0021 0.05023,0.0043 0.08016,0.0064 0.03206,0 0.06947,0 0.112219,0 0.250088,0 0.434983,-0.06306 0.554685,-0.18917 0.121836,-0.126113 0.182755,-0.30032 0.182757,-0.522622 -2e-6,-0.232988 -0.05771,-0.409332 -0.173139,-0.529035 -0.115427,-0.119699 -0.298184,-0.179549 -0.548272,-0.179551 -0.0342,2e-6 -0.06947,0.0011 -0.105807,0.0032 -0.03634,10e-7 -0.07054,0.0021 -0.1026,0.0064 l 0,1.404346 m 1.446028,-0.705379 c -3e-6,0.192377 -0.02993,0.360172 -0.08978,0.503384 -0.05985,0.143214 -0.145353,0.261846 -0.256502,0.355896 -0.109015,0.09405 -0.242609,0.164589 -0.400783,0.211614 -0.158178,0.04702 -0.335591,0.07054 -0.532241,0.07054 -0.08978,0 -0.194515,-0.0043 -0.314215,-0.01282 -0.119701,-0.0064 -0.237264,-0.02137 -0.352689,-0.04489 l 0,-2.164232 c 0.115425,-0.02137 0.235126,-0.03527 0.359102,-0.04168 0.126112,-0.0085 0.234057,-0.01282 0.323833,-0.01282 0.190238,3e-6 0.362307,0.02138 0.51621,0.06413 0.156036,0.04275 0.289631,0.110084 0.400783,0.201995 0.111149,0.09192 0.19665,0.209478 0.256502,0.352689 0.05985,0.143215 0.08977,0.315285 0.08978,0.51621"
       style="font-weight:bold;fill:#724d28;-inkscape-font-specification:Ubuntu Bold"
       id="path4474" />
    <path
       d="m 36.448209,37.953751 0,-2.221945 1.500535,0 0,0.420021 -1.000357,0 0,0.436053 0.888137,0 0,0.410402 -0.888137,0 0,0.535447 1.074101,0 0,0.420022 -1.574279,0"
       style="font-weight:bold;fill:#724d28;-inkscape-font-specification:Ubuntu Bold"
       id="path4476" />
    <path
       d="m 12.686142,41.740355 c 0.324901,10e-7 0.487352,-0.11115 0.487353,-0.333452 -1e-6,-0.0684 -0.01496,-0.126112 -0.04489,-0.173138 -0.02779,-0.04916 -0.06626,-0.09084 -0.115426,-0.125045 -0.04916,-0.03634 -0.105808,-0.06733 -0.169932,-0.09298 -0.06199,-0.02565 -0.128252,-0.0513 -0.198789,-0.07695 -0.08123,-0.02779 -0.158177,-0.05878 -0.230852,-0.09298 -0.07268,-0.03634 -0.135732,-0.07802 -0.18917,-0.125044 -0.05344,-0.04916 -0.09619,-0.106875 -0.12825,-0.173139 -0.02993,-0.06626 -0.04489,-0.146418 -0.04489,-0.24047 0,-0.194512 0.06626,-0.346275 0.198789,-0.455291 0.132525,-0.109011 0.315282,-0.163517 0.548272,-0.163519 0.134662,2e-6 0.2565,0.01496 0.365515,0.04489 0.111149,0.02779 0.192374,0.05878 0.243676,0.09298 l -0.09939,0.253296 c -0.04489,-0.02779 -0.112221,-0.0545 -0.201995,-0.08016 -0.08764,-0.02779 -0.19024,-0.04168 -0.307802,-0.04168 -0.05985,2e-6 -0.115427,0.0064 -0.166726,0.01924 -0.0513,0.01283 -0.09619,0.03207 -0.134664,0.05771 -0.03848,0.02565 -0.06947,0.05878 -0.09298,0.09939 -0.02138,0.03848 -0.03206,0.08443 -0.03206,0.13787 -1e-6,0.05985 0.01176,0.110083 0.03527,0.150694 0.02351,0.04061 0.05664,0.07695 0.09939,0.109014 0.04275,0.02993 0.09191,0.05771 0.147489,0.08336 0.05771,0.02565 0.120768,0.0513 0.18917,0.07695 0.09619,0.03848 0.183825,0.07695 0.262914,0.115426 0.08122,0.03848 0.150693,0.08443 0.208407,0.13787 0.05985,0.05344 0.105806,0.117564 0.13787,0.192376 0.03206,0.07268 0.04809,0.161383 0.04809,0.26612 -2e-6,0.194514 -0.07161,0.34414 -0.21482,0.448878 -0.141077,0.104738 -0.340935,0.157107 -0.599573,0.157107 -0.08764,0 -0.168864,-0.0064 -0.243676,-0.01924 -0.07268,-0.01069 -0.13787,-0.02351 -0.195583,-0.03848 -0.05771,-0.0171 -0.107944,-0.0342 -0.150694,-0.0513 -0.04061,-0.01924 -0.07268,-0.03527 -0.09619,-0.04809 l 0.09298,-0.256502 c 0.04916,0.02779 0.123976,0.05878 0.224439,0.09298 0.100463,0.0342 0.22337,0.0513 0.368721,0.0513"
       style=""
       id="path4478" />
    <path
       d="m 13.854026,41.961588 0,-2.436765 0.298183,-0.0513 0,0.852867 c 0.05558,-0.02137 0.114357,-0.0374 0.176345,-0.04809 0.06412,-0.01282 0.127181,-0.01924 0.18917,-0.01924 0.132525,10e-7 0.242607,0.01924 0.330246,0.05771 0.08764,0.03634 0.157106,0.08871 0.208407,0.157107 0.05344,0.06626 0.09084,0.146421 0.11222,0.24047 0.02137,0.09405 0.03206,0.197721 0.03206,0.311008 l 0,0.936231 -0.298184,0 0,-0.872105 c -10e-7,-0.1026 -0.0075,-0.190238 -0.02244,-0.262914 -0.01283,-0.07267 -0.03527,-0.131456 -0.06733,-0.176345 -0.03206,-0.04489 -0.07481,-0.07695 -0.128251,-0.09619 -0.05344,-0.02137 -0.119702,-0.03206 -0.198789,-0.03206 -0.03206,10e-7 -0.0652,0.0021 -0.09939,0.0064 -0.0342,0.0043 -0.06733,0.0096 -0.09939,0.01603 -0.02993,0.0043 -0.05771,0.0096 -0.08336,0.01603 -0.02351,0.0064 -0.04061,0.01176 -0.0513,0.01603 l 0,1.385109 -0.298183,0"
       style=""
       id="path4480" />
    <path
       d="m 15.980785,41.961588 -0.298183,0 0,-1.66726 0.298183,0 0,1.66726 m -0.150695,-1.96865 c -0.05344,2e-6 -0.09939,-0.0171 -0.137869,-0.0513 -0.03634,-0.03634 -0.05451,-0.08443 -0.05451,-0.144282 0,-0.05985 0.01817,-0.106874 0.05451,-0.141076 0.03848,-0.03634 0.08443,-0.0545 0.137869,-0.05451 0.05344,3e-6 0.09832,0.01817 0.134664,0.05451 0.03847,0.0342 0.05771,0.08123 0.05771,0.141076 0,0.05985 -0.01924,0.107946 -0.05771,0.144282 -0.03634,0.0342 -0.08123,0.0513 -0.134664,0.0513"
       style=""
       id="path4482" />
    <path
       d="m 17.654157,41.131164 c -1e-6,-0.194513 -0.04809,-0.344138 -0.144282,-0.448878 -0.09619,-0.104736 -0.22444,-0.157105 -0.384752,-0.157107 -0.08978,2e-6 -0.160314,0.0032 -0.211614,0.0096 -0.04916,0.0064 -0.08871,0.01389 -0.118632,0.02244 l 0,1.051656 c 0.03634,0.02993 0.08871,0.05878 0.157107,0.08657 0.0684,0.02779 0.143213,0.04168 0.224439,0.04168 0.0855,0 0.158175,-0.01496 0.218027,-0.04489 0.06199,-0.03206 0.112218,-0.07481 0.150694,-0.12825 0.03847,-0.05557 0.06626,-0.119701 0.08336,-0.192377 0.0171,-0.07481 0.02565,-0.154969 0.02565,-0.24047 m 0.311009,0 c -2e-6,0.126114 -0.0171,0.242609 -0.0513,0.349484 -0.03206,0.106876 -0.08016,0.198789 -0.144282,0.275739 -0.06413,0.07695 -0.143215,0.136801 -0.237264,0.179551 -0.09191,0.04275 -0.197721,0.06412 -0.317421,0.06412 -0.09619,0 -0.181689,-0.01282 -0.256501,-0.03847 -0.07268,-0.02565 -0.127183,-0.05023 -0.16352,-0.07374 l 0,0.666904 -0.298183,0 0,-2.20912 c 0.07054,-0.0171 0.158176,-0.03527 0.262914,-0.05451 0.106875,-0.02137 0.229782,-0.03206 0.368721,-0.03206 0.12825,10e-7 0.243676,0.02031 0.346277,0.06092 0.1026,0.04061 0.190238,0.09833 0.262914,0.173138 0.07267,0.07482 0.12825,0.166728 0.166727,0.27574 0.04061,0.106876 0.06092,0.227646 0.06092,0.362308"
       style=""
       id="path4484" />
    <path
       d="m 19.405783,40.294328 0.631635,0 0,0.250089 -0.631635,0 0,0.769505 c -1e-6,0.08336 0.0064,0.152832 0.01924,0.208407 0.01282,0.05344 0.03206,0.09619 0.05771,0.128251 0.02565,0.02992 0.05771,0.0513 0.09619,0.06413 0.03847,0.01283 0.08336,0.01924 0.134664,0.01924 0.08977,0 0.161381,-0.0096 0.21482,-0.02886 0.05557,-0.02137 0.09405,-0.03634 0.115425,-0.04489 l 0.05771,0.246882 c -0.02993,0.01496 -0.08229,0.03313 -0.157107,0.05451 -0.07481,0.02351 -0.160314,0.03527 -0.256502,0.03527 -0.113288,0 -0.207339,-0.01389 -0.282151,-0.04168 -0.07268,-0.02993 -0.131458,-0.07375 -0.176345,-0.131458 -0.04489,-0.05771 -0.07695,-0.12825 -0.09619,-0.211613 -0.0171,-0.0855 -0.02565,-0.183826 -0.02565,-0.294977 l 0,-1.487709 0.298183,-0.0513 0,0.51621"
       style=""
       id="path4486" />
    <path
       d="m 21.844702,41.127958 c -1e-6,0.132526 -0.01924,0.252227 -0.05771,0.359102 -0.03848,0.106876 -0.09298,0.198789 -0.163519,0.275739 -0.0684,0.07695 -0.150696,0.136801 -0.246883,0.179551 -0.09619,0.04061 -0.200927,0.06092 -0.314215,0.06092 -0.113289,0 -0.218027,-0.02031 -0.314214,-0.06092 -0.09619,-0.04275 -0.179552,-0.1026 -0.250089,-0.179551 -0.0684,-0.07695 -0.121839,-0.168863 -0.160314,-0.275739 -0.03848,-0.106875 -0.05771,-0.226576 -0.05771,-0.359102 -10e-7,-0.130387 0.01924,-0.249019 0.05771,-0.355896 0.03847,-0.109012 0.09191,-0.201994 0.160314,-0.278946 0.07054,-0.07695 0.1539,-0.13573 0.250089,-0.176344 0.09619,-0.04275 0.200925,-0.06412 0.314214,-0.06413 0.113288,2e-6 0.218026,0.02138 0.314215,0.06413 0.09619,0.04061 0.178481,0.0994 0.246883,0.176344 0.07054,0.07695 0.125043,0.169934 0.163519,0.278946 0.03847,0.106877 0.05771,0.225509 0.05771,0.355896 m -0.311008,0 c -1e-6,-0.1881 -0.04275,-0.336657 -0.128251,-0.445672 -0.08336,-0.111149 -0.197721,-0.166724 -0.343071,-0.166726 -0.145351,2e-6 -0.260777,0.05558 -0.346277,0.166726 -0.08336,0.109015 -0.125045,0.257572 -0.125044,0.445672 -1e-6,0.188102 0.04168,0.337727 0.125044,0.448878 0.0855,0.109013 0.200926,0.16352 0.346277,0.163519 0.14535,10e-7 0.259707,-0.05451 0.343071,-0.163519 0.0855,-0.111151 0.12825,-0.260776 0.128251,-0.448878"
       style=""
       id="path4488" />
    <path
       d="m 22.616912,41.78845 c 0,0.05771 -0.01924,0.107944 -0.05771,0.150694 -0.03847,0.04275 -0.09084,0.06413 -0.157107,0.06413 -0.06626,0 -0.118632,-0.02138 -0.157107,-0.06413 -0.03848,-0.04275 -0.05771,-0.09298 -0.05771,-0.150694 0,-0.05771 0.01924,-0.107945 0.05771,-0.150695 0.03848,-0.04275 0.09084,-0.06412 0.157107,-0.06413 0.06626,1e-6 0.118632,0.02138 0.157107,0.06413 0.03848,0.04275 0.05771,0.09298 0.05771,0.150695 m 0,-1.279302 c 0,0.05771 -0.01924,0.107946 -0.05771,0.150694 -0.03847,0.04275 -0.09084,0.06413 -0.157107,0.06413 -0.06626,10e-7 -0.118632,-0.02137 -0.157107,-0.06413 -0.03848,-0.04275 -0.05771,-0.09298 -0.05771,-0.150694 0,-0.05771 0.01924,-0.107943 0.05771,-0.150695 0.03848,-0.04275 0.09084,-0.06412 0.157107,-0.06412 0.06626,10e-7 0.118632,0.02138 0.157107,0.06412 0.03848,0.04275 0.05771,0.09298 0.05771,0.150695"
       style=""
       id="path4490" />
  </g>
  <rect
     style="color:#000000;fill:#5f8dd3;fill-opacity:1;fill-rule:nonzero;stroke:none;stroke-width:2;marker:none;visibility:visible;display:inline;overflow:visible;enable-background:accumulate"
     id="rect4213"
     width="22"
     height="6"
     x="14"
     y="14" />
  <path
     sodipodi:nodetypes="sssssssss"
     inkscape:connector-curvature="0"
     id="path4348"
     d="m -37,29 c -1.085791,0 -2,-0.914209 -2,-2 l 0,-14 c 0,-1.085791 0.914209,-2 2,-2 l 24,0 c 1.085791,0 2,0.914209 2,2 l 0,14 c 0,1.085791 -0.914209,2 -2,2 z"
     style="opacity:0.05;color:#000000;fill:url(#linearGradient4398);fill-opacity:1;fill-rule:nonzero;stroke:none;stroke-width:2;marker:none;visibility:visible;display:inline;overflow:visible;enable-background:accumulate" />
  <rect
     transform="scale(1,-1)"
     rx="1"
     y="-28"
     x="-38"
     height="15.999995"
     width="26"
     id="rect4350"
     style="color:#000000;fill:url(#linearGradient4400);fill-opacity:1;fill-rule:nonzero;stroke:none;stroke-width:2;marker:none;visibility:visible;display:inline;overflow:visible;enable-background:accumulate" />
  <rect
     y="18"
     x="-36"
     height="8"
     width="1"
     id="rect4352"
     style="color:#000000;fill:#333333;fill-opacity:1;fill-rule:nonzero;stroke:none;stroke-width:2;marker:none;visibility:visible;display:inline;overflow:visible;enable-background:accumulate" />
  <rect
     style="opacity:0.4;color:#000000;fill:#333333;fill-opacity:1;fill-rule:nonzero;stroke:none;stroke-width:2;marker:none;visibility:visible;display:inline;overflow:visible;enable-background:accumulate"
     id="rect4354"
     width="1"
     height="8"
     x="-34"
     y="18" />
  <rect
     y="18"
     x="-32"
     height="6"
     width="1"
     id="rect4356"
     style="color:#000000;fill:#333333;fill-opacity:1;fill-rule:nonzero;stroke:none;stroke-width:2;marker:none;visibility:visible;display:inline;overflow:visible;enable-background:accumulate" />
  <rect
     style="opacity:0.7;color:#000000;fill:#333333;fill-opacity:1;fill-rule:nonzero;stroke:none;stroke-width:2;marker:none;visibility:visible;display:inline;overflow:visible;enable-background:accumulate"
     id="rect4358"
     width="1"
     height="6"
     x="-30"
     y="18" />
  <rect
     y="18"
     x="-28"
     height="6"
     width="1"
     id="rect4360"
     style="opacity:0.4;color:#000000;fill:#333333;fill-opacity:1;fill-rule:nonzero;stroke:none;stroke-width:2;marker:none;visibility:visible;display:inline;overflow:visible;enable-background:accumulate" />
  <rect
     style="color:#000000;fill:#333333;fill-opacity:1;fill-rule:nonzero;stroke:none;stroke-width:2;marker:none;visibility:visible;display:inline;overflow:visible;enable-background:accumulate"
     id="rect4362"
     width="1"
     height="6"
     x="-26"
     y="18" />
  <rect
     y="18"
     x="-24"
     height="6"
     width="1"
     id="rect4364"
     style="opacity:0.4;color:#000000;fill:#333333;fill-opacity:1;fill-rule:nonzero;stroke:none;stroke-width:2;marker:none;visibility:visible;display:inline;overflow:visible;enable-background:accumulate" />
  <rect
     style="opacity:0.7;color:#000000;fill:#333333;fill-opacity:1;fill-rule:nonzero;stroke:none;stroke-width:2;marker:none;visibility:visible;display:inline;overflow:visible;enable-background:accumulate"
     id="rect4366"
     width="1"
     height="6"
     x="-22"
     y="18" />
  <rect
     y="18"
     x="-20"
     height="6"
     width="1"
     id="rect4368"
     style="color:#000000;fill:#333333;fill-opacity:1;fill-rule:nonzero;stroke:none;stroke-width:2;marker:none;visibility:visible;display:inline;overflow:visible;enable-background:accumulate" />
  <rect
     style="opacity:0.4;color:#000000;fill:#333333;fill-opacity:1;fill-rule:nonzero;stroke:none;stroke-width:2;marker:none;visibility:visible;display:inline;overflow:visible;enable-background:accumulate"
     id="rect4370"
     width="1"
     height="6"
     x="-18"
     y="18" />
  <rect
     y="18"
     x="-16"
     height="8"
     width="1"
     id="rect4372"
     style="color:#000000;fill:#333333;fill-opacity:1;fill-rule:nonzero;stroke:none;stroke-width:2;marker:none;visibility:visible;display:inline;overflow:visible;enable-background:accumulate" />
  <rect
     y="25"
     x="-32"
     height="1"
     width="1"
     id="rect4374"
     style="opacity:0.2;color:#000000;fill:#333333;fill-opacity:1;fill-rule:nonzero;stroke:none;stroke-width:2;marker:none;visibility:visible;display:inline;overflow:visible;enable-background:accumulate" />
  <rect
     style="opacity:0.2;color:#000000;fill:#333333;fill-opacity:1;fill-rule:nonzero;stroke:none;stroke-width:2;marker:none;visibility:visible;display:inline;overflow:visible;enable-background:accumulate"
     id="rect4376"
     width="1"
     height="1"
     x="-30"
     y="25" />
  <rect
     y="25"
     x="-28"
     height="1"
     width="1"
     id="rect4378"
     style="opacity:0.2;color:#000000;fill:#333333;fill-opacity:1;fill-rule:nonzero;stroke:none;stroke-width:2;marker:none;visibility:visible;display:inline;overflow:visible;enable-background:accumulate" />
  <rect
     style="opacity:0.2;color:#000000;fill:#333333;fill-opacity:1;fill-rule:nonzero;stroke:none;stroke-width:2;marker:none;visibility:visible;display:inline;overflow:visible;enable-background:accumulate"
     id="rect4380"
     width="1"
     height="1"
     x="-26"
     y="25" />
  <rect
     y="25"
     x="-24"
     height="1"
     width="1"
     id="rect4382"
     style="opacity:0.2;color:#000000;fill:#333333;fill-opacity:1;fill-rule:nonzero;stroke:none;stroke-width:2;marker:none;visibility:visible;display:inline;overflow:visible;enable-background:accumulate" />
  <rect
     style="opacity:0.2;color:#000000;fill:#333333;fill-opacity:1;fill-rule:nonzero;stroke:none;stroke-width:2;marker:none;visibility:visible;display:inline;overflow:visible;enable-background:accumulate"
     id="rect4384"
     width="1"
     height="1"
     x="-22"
     y="25" />
  <rect
     y="25"
     x="-20"
     height="1"
     width="1"
     id="rect4386"
     style="opacity:0.2;color:#000000;fill:#333333;fill-opacity:1;fill-rule:nonzero;stroke:none;stroke-width:2;marker:none;visibility:visible;display:inline;overflow:visible;enable-background:accumulate" />
  <rect
     style="opacity:0.2;color:#000000;fill:#333333;fill-opacity:1;fill-rule:nonzero;stroke:none;stroke-width:2;marker:none;visibility:visible;display:inline;overflow:visible;enable-background:accumulate"
     id="rect4388"
     width="1"
     height="1"
     x="-18"
     y="25" />
  <text
     sodipodi:linespacing="125%"
     id="text4390"
     y="35.953751"
     x="-38.105804"
     style="font-size:3.20626998000000007px;font-style:normal;font-variant:normal;font-weight:normal;font-stretch:normal;text-align:start;line-height:125%;letter-spacing:0px;word-spacing:0px;writing-mode:lr-tb;text-anchor:start;fill:#724d28;fill-opacity:1;stroke:none;font-family:Ubuntu;-inkscape-font-specification:Ubuntu"
     xml:space="preserve"><tspan
       style="font-weight:bold;-inkscape-font-specification:Ubuntu Bold;fill:#724d28;fill-opacity:1"
       y="35.953751"
       x="-38.105804"
       id="tspan4392"
       sodipodi:role="line">PACKAGE INSIDE</tspan><tspan
       id="tspan4394"
       y="39.96159"
       x="-38.105804"
       sodipodi:role="line">Ship to:</tspan></text>
  <rect
     y="14"
     x="-36"
     height="2"
     width="22"
     id="rect4396"
     style="color:#000000;fill:#e6e6e6;fill-opacity:1;fill-rule:nonzero;stroke:none;stroke-width:2;marker:none;visibility:visible;display:inline;overflow:visible;enable-background:accumulate" />
  <text
     sodipodi:linespacing="125%"
     id="text4412"
     y="-2.0323544"
     x="14.914495"
     style="font-size:2.31095743px;font-style:normal;font-variant:normal;font-weight:bold;font-stretch:normal;text-align:start;line-height:125%;letter-spacing:0px;word-spacing:0px;writing-mode:lr-tb;text-anchor:start;fill:#ffffff;fill-opacity:1;stroke:none;font-family:Ubuntu;-inkscape-font-specification:Ubuntu Bold"
     xml:space="preserve"><tspan
       y="-2.0323544"
       x="14.914495"
       id="tspan4414"
       sodipodi:role="line">Update Manager</tspan></text>
  <g
     style="font-size:2.31095743px;font-style:normal;font-variant:normal;font-weight:bold;font-stretch:normal;text-align:start;line-height:125%;letter-spacing:0px;word-spacing:0px;writing-mode:lr-tb;text-anchor:start;fill:#ffffff;fill-opacity:1;stroke:none;font-family:Ubuntu;-inkscape-font-specification:Ubuntu Bold"
     id="text3212">
    <path
       d="m 15.725642,17.999999 c -0.112468,0 -0.209528,-0.01541 -0.291181,-0.04622 -0.08165,-0.03235 -0.149442,-0.07626 -0.203364,-0.131725 -0.05238,-0.057 -0.09167,-0.124021 -0.117859,-0.201053 -0.02465,-0.07857 -0.03698,-0.164848 -0.03698,-0.258827 l 0,-0.996023 0.36051,0 0,0.96598 c -10e-7,0.06471 0.0069,0.120171 0.0208,0.166389 0.01541,0.04468 0.03543,0.08166 0.06008,0.110926 0.02619,0.02773 0.057,0.04776 0.09244,0.06009 0.03697,0.01233 0.07703,0.01849 0.120169,0.01849 0.08782,0 0.158685,-0.02696 0.212609,-0.08088 0.05546,-0.05392 0.08319,-0.14559 0.08319,-0.275004 l 0,-0.96598 0.360509,0 0,0.996023 c -1e-6,0.09398 -0.0131,0.180255 -0.03929,0.258827 -0.02619,0.07857 -0.06625,0.146361 -0.12017,0.203364 -0.05392,0.05546 -0.122482,0.0986 -0.205675,0.129414 -0.08319,0.03081 -0.181796,0.04622 -0.295802,0.04622"
       style=""
       id="path3217" />
    <path
       d="m 17.488974,17.369108 c -10e-7,-0.106304 -0.02388,-0.191039 -0.07164,-0.254206 -0.04776,-0.06471 -0.11863,-0.09706 -0.212609,-0.09706 -0.03081,10e-7 -0.05932,0.0015 -0.08551,0.0046 -0.02619,0.0015 -0.04776,0.0039 -0.06471,0.0069 l 0,0.621647 c 0.02157,0.01387 0.0493,0.02542 0.08319,0.03467 0.03543,0.0092 0.07087,0.01387 0.106304,0.01387 0.163307,0 0.24496,-0.110156 0.244961,-0.330467 m 0.351266,-0.0092 c -1e-6,0.09398 -0.01156,0.179485 -0.03467,0.256516 -0.02311,0.07703 -0.057,0.14328 -0.101682,0.198742 -0.04468,0.05546 -0.100142,0.0986 -0.166389,0.129414 -0.06625,0.03081 -0.14251,0.04622 -0.228784,0.04622 -0.04776,0 -0.09244,-0.0046 -0.134036,-0.01387 -0.0416,-0.0092 -0.08165,-0.02234 -0.12017,-0.03929 l 0,0.45757 -0.344332,0 0,-1.601494 c 0.03081,-0.0092 0.06625,-0.01772 0.106304,-0.02542 0.04006,-0.0092 0.08165,-0.01695 0.124791,-0.02311 0.04468,-0.0062 0.08936,-0.01078 0.134036,-0.01387 0.04622,-0.0046 0.09013,-0.0069 0.131724,-0.0069 0.100141,1e-6 0.189498,0.01541 0.268072,0.04622 0.07857,0.02927 0.144818,0.07164 0.198742,0.127102 0.05392,0.05392 0.09475,0.120171 0.122481,0.198743 0.02927,0.07857 0.04391,0.166389 0.04391,0.263449"
       style=""
       id="path3219" />
    <path
       d="m 18.398372,17.35062 c 0,0.106305 0.02388,0.19181 0.07164,0.256516 0.04776,0.06471 0.118628,0.09706 0.212608,0.09706 0.03081,1e-6 0.05931,-7.7e-4 0.08551,-0.0023 0.02619,-0.0031 0.04776,-0.0062 0.06471,-0.0092 l 0,-0.62627 c -0.02157,-0.01387 -0.05007,-0.02542 -0.08551,-0.03466 -0.03389,-0.0092 -0.06856,-0.01386 -0.103993,-0.01387 -0.163309,10e-7 -0.244962,0.110927 -0.244962,0.332778 m 0.778793,0.577739 c -0.03081,0.0092 -0.06625,0.01849 -0.106304,0.02773 -0.04006,0.0077 -0.08243,0.01464 -0.127103,0.0208 -0.04314,0.0062 -0.08782,0.01078 -0.134035,0.01387 -0.04468,0.0046 -0.08782,0.0069 -0.129414,0.0069 -0.100142,0 -0.189499,-0.01464 -0.268071,-0.04391 -0.07857,-0.02927 -0.14482,-0.07087 -0.198742,-0.124792 -0.05392,-0.05546 -0.09552,-0.12171 -0.124792,-0.198742 -0.02773,-0.07857 -0.0416,-0.166389 -0.0416,-0.263449 0,-0.0986 0.01233,-0.187187 0.03697,-0.26576 0.02465,-0.08011 0.06009,-0.147901 0.106304,-0.203365 0.04622,-0.05546 0.102452,-0.09783 0.1687,-0.127102 0.06779,-0.02927 0.144819,-0.04391 0.231096,-0.04391 0.04776,10e-7 0.09013,0.0046 0.127102,0.01386 0.03852,0.0092 0.07703,0.02234 0.115548,0.03929 l 0,-0.550008 0.344333,-0.05546 0,1.754016"
       style=""
       id="path3221" />
    <path
       d="m 19.964082,17.727306 c 0.03389,0 0.06625,-7.7e-4 0.09706,-0.0023 0.03081,-0.0015 0.05546,-0.0039 0.07395,-0.0069 l 0,-0.261138 c -0.01387,-0.0031 -0.03467,-0.0062 -0.0624,-0.0092 -0.02773,-0.0031 -0.05315,-0.0046 -0.07626,-0.0046 -0.03235,1e-6 -0.06317,0.0023 -0.09244,0.0069 -0.02773,0.0031 -0.05238,0.01001 -0.07395,0.0208 -0.02157,0.01078 -0.03852,0.02542 -0.05084,0.04391 -0.01233,0.01849 -0.01849,0.0416 -0.01849,0.06933 -1e-6,0.05392 0.01772,0.09167 0.05315,0.113237 0.03697,0.02003 0.08704,0.03004 0.150212,0.03004 m -0.02773,-1.007577 c 0.101682,10e-7 0.186417,0.01156 0.254206,0.03466 0.06779,0.02311 0.121709,0.05623 0.161767,0.09937 0.0416,0.04314 0.07087,0.09552 0.08782,0.157145 0.01695,0.06163 0.02542,0.130185 0.02542,0.205675 l 0,0.716397 c -0.0493,0.01078 -0.11786,0.02311 -0.205676,0.03698 -0.08782,0.01541 -0.194121,0.02311 -0.318912,0.02311 -0.07857,0 -0.150212,-0.0069 -0.214919,-0.0208 -0.06317,-0.01387 -0.117859,-0.0362 -0.164078,-0.06702 -0.04622,-0.03235 -0.08165,-0.07395 -0.106304,-0.124792 -0.02465,-0.05084 -0.03697,-0.113237 -0.03697,-0.187187 0,-0.07087 0.01387,-0.130954 0.0416,-0.180255 0.02927,-0.0493 0.06779,-0.08859 0.115548,-0.117859 0.04776,-0.02927 0.102452,-0.05007 0.164078,-0.0624 0.06162,-0.01386 0.125562,-0.0208 0.191809,-0.0208 0.04468,0 0.08396,0.0023 0.117859,0.0069 0.03543,0.0031 0.06394,0.0077 0.08551,0.01387 l 0,-0.03235 c -1e-6,-0.05854 -0.01772,-0.105533 -0.05315,-0.140969 -0.03544,-0.03543 -0.09706,-0.05315 -0.184877,-0.05315 -0.05854,1e-6 -0.116319,0.0046 -0.173322,0.01387 -0.057,0.0077 -0.106304,0.01926 -0.147901,0.03466 l -0.04391,-0.277314 c 0.02003,-0.0062 0.04468,-0.01232 0.07395,-0.01849 0.03081,-0.0077 0.06394,-0.01387 0.09937,-0.01849 0.03543,-0.0062 0.07241,-0.01078 0.110926,-0.01386 0.04006,-0.0046 0.08011,-0.0069 0.120169,-0.0069"
       style=""
       id="path3223" />
    <path
       d="m 20.76537,16.449347 0.344333,-0.05546 0,0.358198 0.413661,0 0,0.286559 -0.413661,0 0,0.427527 c -1e-6,0.07241 0.01233,0.130184 0.03698,0.173322 0.02619,0.04314 0.0778,0.06471 0.154834,0.06471 0.03698,1e-6 0.07472,-0.0031 0.113237,-0.0092 0.04006,-0.0077 0.07626,-0.01772 0.108615,-0.03004 l 0.04853,0.268071 c -0.0416,0.01695 -0.08782,0.03158 -0.138657,0.04391 -0.05084,0.01233 -0.113238,0.01849 -0.187188,0.01849 -0.09398,0 -0.171781,-0.01233 -0.233406,-0.03698 -0.06163,-0.02619 -0.110926,-0.06163 -0.147902,-0.106304 -0.03697,-0.04622 -0.06317,-0.101682 -0.07857,-0.166389 -0.01387,-0.06471 -0.0208,-0.136346 -0.0208,-0.214919 l 0,-1.021443"
       style=""
       id="path3225" />
    <path
       d="m 21.6986,17.369108 c 0,-0.107844 0.01618,-0.201823 0.04853,-0.281937 0.03389,-0.08165 0.0778,-0.149441 0.131725,-0.203364 0.05392,-0.05392 0.115547,-0.09475 0.184876,-0.122481 0.07087,-0.02773 0.143279,-0.0416 0.21723,-0.0416 0.172551,10e-7 0.308897,0.05315 0.40904,0.159456 0.10014,0.104764 0.150211,0.259598 0.150212,0.464502 -10e-7,0.02003 -7.72e-4,0.04237 -0.0023,0.06702 -0.0015,0.02311 -0.0031,0.04391 -0.0046,0.0624 l -0.781104,0 c 0.0077,0.07087 0.04083,0.127103 0.09937,0.1687 0.05854,0.0416 0.137116,0.0624 0.235717,0.06239 0.06317,1e-6 0.124791,-0.0054 0.184877,-0.01618 0.06162,-0.01233 0.111695,-0.02696 0.150212,-0.04391 l 0.04622,0.279625 c -0.01849,0.0092 -0.04314,0.01849 -0.07395,0.02773 -0.03081,0.0092 -0.06548,0.01695 -0.103993,0.02311 -0.03698,0.0077 -0.07703,0.01387 -0.12017,0.01849 -0.04314,0.0046 -0.08628,0.0069 -0.129414,0.0069 -0.109386,0 -0.204905,-0.01618 -0.286559,-0.04853 -0.08011,-0.03235 -0.147131,-0.07626 -0.201053,-0.131725 -0.05238,-0.057 -0.09167,-0.124021 -0.117859,-0.201053 -0.02465,-0.07703 -0.03698,-0.160226 -0.03698,-0.249583 m 0.808835,-0.131725 c -0.0015,-0.02927 -0.0069,-0.05777 -0.01618,-0.08551 -0.0077,-0.02773 -0.0208,-0.05238 -0.03929,-0.07395 -0.01695,-0.02157 -0.03929,-0.03928 -0.06702,-0.05315 -0.02619,-0.01387 -0.05932,-0.0208 -0.09937,-0.0208 -0.03852,10e-7 -0.07164,0.0069 -0.09937,0.0208 -0.02773,0.01233 -0.05084,0.02927 -0.06933,0.05084 -0.01849,0.02157 -0.03312,0.04699 -0.04391,0.07626 -0.0092,0.02773 -0.01618,0.05623 -0.0208,0.08551 l 0.455259,0"
       style=""
       id="path3227" />
    <path
       d="m 24.109434,16.366152 c 0.02773,0.05084 0.05931,0.114009 0.09475,0.189499 0.03697,0.07395 0.07472,0.154835 0.113237,0.24265 0.04006,0.08628 0.07934,0.174864 0.117859,0.26576 0.03852,0.0909 0.07472,0.176404 0.108615,0.256517 0.03389,-0.08011 0.0701,-0.165618 0.108615,-0.256517 0.03852,-0.0909 0.07703,-0.179483 0.115548,-0.26576 0.04006,-0.08781 0.0778,-0.168698 0.113237,-0.24265 0.03697,-0.07549 0.06933,-0.138656 0.09706,-0.189499 l 0.328156,0 c 0.0154,0.106306 0.02927,0.225705 0.0416,0.358199 0.01386,0.130955 0.02542,0.268072 0.03466,0.41135 0.01078,0.141739 0.02003,0.284248 0.02773,0.427527 0.0092,0.14328 0.01694,0.278085 0.02311,0.404418 l -0.351265,0 c -0.0046,-0.155605 -0.01079,-0.325075 -0.01849,-0.508411 -0.0077,-0.183335 -0.01926,-0.368212 -0.03466,-0.55463 -0.02773,0.06471 -0.05855,0.136348 -0.09244,0.214919 -0.0339,0.07857 -0.06779,0.157146 -0.101683,0.235718 -0.03235,0.07857 -0.06394,0.154064 -0.09475,0.226474 -0.03081,0.07087 -0.05701,0.131725 -0.07857,0.182565 l -0.251895,0 c -0.02157,-0.05084 -0.04776,-0.111696 -0.07857,-0.182565 -0.03081,-0.07241 -0.06317,-0.147901 -0.09706,-0.226474 -0.03235,-0.07857 -0.06548,-0.157144 -0.09937,-0.235718 -0.03389,-0.07857 -0.06471,-0.150211 -0.09244,-0.214919 -0.01541,0.186418 -0.02696,0.371295 -0.03466,0.55463 -0.0077,0.183336 -0.01387,0.352806 -0.01849,0.508411 l -0.351266,0 c 0.0062,-0.126333 0.0131,-0.261138 0.0208,-0.404418 0.0092,-0.143279 0.01849,-0.285788 0.02773,-0.427527 0.01078,-0.143278 0.02234,-0.280395 0.03466,-0.41135 0.01386,-0.132494 0.0285,-0.251893 0.04391,-0.358199 l 0.344333,0"
       style=""
       id="path3229" />
    <path
       d="m 26.197348,17.727306 c 0.03389,0 0.06625,-7.7e-4 0.09706,-0.0023 0.03081,-0.0015 0.05546,-0.0039 0.07395,-0.0069 l 0,-0.261138 c -0.01387,-0.0031 -0.03467,-0.0062 -0.0624,-0.0092 -0.02773,-0.0031 -0.05315,-0.0046 -0.07626,-0.0046 -0.03235,1e-6 -0.06317,0.0023 -0.09244,0.0069 -0.02773,0.0031 -0.05238,0.01001 -0.07395,0.0208 -0.02157,0.01078 -0.03852,0.02542 -0.05084,0.04391 -0.01233,0.01849 -0.01849,0.0416 -0.01849,0.06933 -1e-6,0.05392 0.01772,0.09167 0.05315,0.113237 0.03697,0.02003 0.08705,0.03004 0.150212,0.03004 m -0.02773,-1.007577 c 0.101682,10e-7 0.186417,0.01156 0.254206,0.03466 0.06779,0.02311 0.121709,0.05623 0.161767,0.09937 0.0416,0.04314 0.07087,0.09552 0.08782,0.157145 0.01695,0.06163 0.02542,0.130185 0.02542,0.205675 l 0,0.716397 c -0.0493,0.01078 -0.11786,0.02311 -0.205676,0.03698 -0.08782,0.01541 -0.194121,0.02311 -0.318912,0.02311 -0.07857,0 -0.150212,-0.0069 -0.214919,-0.0208 -0.06317,-0.01387 -0.117859,-0.0362 -0.164078,-0.06702 -0.04622,-0.03235 -0.08165,-0.07395 -0.106304,-0.124792 -0.02465,-0.05084 -0.03697,-0.113237 -0.03697,-0.187187 0,-0.07087 0.01386,-0.130954 0.0416,-0.180255 0.02927,-0.0493 0.06779,-0.08859 0.115548,-0.117859 0.04776,-0.02927 0.102452,-0.05007 0.164078,-0.0624 0.06162,-0.01386 0.125561,-0.0208 0.191809,-0.0208 0.04468,0 0.08396,0.0023 0.117859,0.0069 0.03543,0.0031 0.06394,0.0077 0.08551,0.01387 l 0,-0.03235 c -1e-6,-0.05854 -0.01772,-0.105533 -0.05315,-0.140969 -0.03544,-0.03543 -0.09706,-0.05315 -0.184877,-0.05315 -0.05855,1e-6 -0.116319,0.0046 -0.173322,0.01387 -0.057,0.0077 -0.106304,0.01926 -0.147901,0.03466 l -0.04391,-0.277314 c 0.02003,-0.0062 0.04468,-0.01232 0.07395,-0.01849 0.03081,-0.0077 0.06394,-0.01387 0.09937,-0.01849 0.03543,-0.0062 0.07241,-0.01078 0.110925,-0.01386 0.04006,-0.0046 0.08011,-0.0069 0.12017,-0.0069"
       style=""
       id="path3231" />
    <path
       d="m 27.010191,16.793679 c 0.05854,-0.01695 0.134035,-0.03235 0.226474,-0.04622 0.09244,-0.01541 0.189498,-0.02311 0.29118,-0.02311 0.103222,1e-6 0.188728,0.01387 0.256517,0.0416 0.06933,0.02619 0.12402,0.06394 0.164078,0.113237 0.04005,0.0493 0.06856,0.107845 0.0855,0.175632 0.01695,0.06779 0.02542,0.143281 0.02542,0.226474 l 0,0.686355 -0.344333,0 0,-0.644757 c -10e-7,-0.110926 -0.01464,-0.189498 -0.04391,-0.235718 -0.02927,-0.04622 -0.08397,-0.06933 -0.164078,-0.06933 -0.02465,10e-7 -0.05084,0.0015 -0.07857,0.0046 -0.02773,0.0015 -0.05238,0.0039 -0.07395,0.0069 l 0,0.938249 -0.344333,0 0,-1.173967"
       style=""
       id="path3233" />
    <path
       d="m 28.837797,17.727306 c 0.03389,0 0.06625,-7.7e-4 0.09706,-0.0023 0.03081,-0.0015 0.05546,-0.0039 0.07395,-0.0069 l 0,-0.261138 c -0.01387,-0.0031 -0.03466,-0.0062 -0.0624,-0.0092 -0.02773,-0.0031 -0.05315,-0.0046 -0.07626,-0.0046 -0.03235,1e-6 -0.06317,0.0023 -0.09244,0.0069 -0.02773,0.0031 -0.05238,0.01001 -0.07395,0.0208 -0.02157,0.01078 -0.03852,0.02542 -0.05084,0.04391 -0.01233,0.01849 -0.01849,0.0416 -0.01849,0.06933 0,0.05392 0.01772,0.09167 0.05315,0.113237 0.03698,0.02003 0.08705,0.03004 0.150212,0.03004 m -0.02773,-1.007577 c 0.101681,10e-7 0.186416,0.01156 0.254205,0.03466 0.06779,0.02311 0.12171,0.05623 0.161767,0.09937 0.0416,0.04314 0.07087,0.09552 0.08782,0.157145 0.01694,0.06163 0.02542,0.130185 0.02542,0.205675 l 0,0.716397 c -0.0493,0.01078 -0.11786,0.02311 -0.205675,0.03698 -0.08782,0.01541 -0.194121,0.02311 -0.318912,0.02311 -0.07857,0 -0.150213,-0.0069 -0.214919,-0.0208 -0.06317,-0.01387 -0.117859,-0.0362 -0.164078,-0.06702 -0.04622,-0.03235 -0.08165,-0.07395 -0.106304,-0.124792 -0.02465,-0.05084 -0.03698,-0.113237 -0.03698,-0.187187 0,-0.07087 0.01387,-0.130954 0.0416,-0.180255 0.02927,-0.0493 0.06779,-0.08859 0.115547,-0.117859 0.04776,-0.02927 0.102453,-0.05007 0.164078,-0.0624 0.06162,-0.01386 0.125562,-0.0208 0.19181,-0.0208 0.04468,0 0.08396,0.0023 0.117859,0.0069 0.03543,0.0031 0.06394,0.0077 0.0855,0.01387 l 0,-0.03235 c -10e-7,-0.05854 -0.01772,-0.105533 -0.05315,-0.140969 -0.03543,-0.03543 -0.09706,-0.05315 -0.184876,-0.05315 -0.05854,1e-6 -0.116319,0.0046 -0.173322,0.01387 -0.057,0.0077 -0.106305,0.01926 -0.147902,0.03466 l -0.04391,-0.277314 c 0.02003,-0.0062 0.04468,-0.01232 0.07395,-0.01849 0.03081,-0.0077 0.06394,-0.01387 0.09937,-0.01849 0.03543,-0.0062 0.07241,-0.01078 0.110926,-0.01386 0.04006,-0.0046 0.08011,-0.0069 0.12017,-0.0069"
       style=""
       id="path3235" />
    <path
       d="m 29.944132,17.320578 c 0,0.19258 0.0778,0.28887 0.233407,0.288869 0.03543,1e-6 0.06856,-0.0046 0.09937,-0.01387 0.03081,-0.0092 0.057,-0.02003 0.07857,-0.03235 l 0,-0.550008 c -0.01695,-0.0031 -0.03698,-0.0054 -0.06009,-0.0069 -0.02311,-0.0031 -0.05007,-0.0046 -0.08088,-0.0046 -0.0909,1e-6 -0.158686,0.03004 -0.203364,0.09013 -0.04468,0.06009 -0.06702,0.136347 -0.06702,0.228785 m 0.755683,0.494544 c -1e-6,0.198743 -0.05084,0.345874 -0.152523,0.441393 -0.100142,0.09706 -0.255747,0.14559 -0.466813,0.145591 -0.07395,-1e-6 -0.147902,-0.0069 -0.221852,-0.0208 -0.07395,-0.01233 -0.14251,-0.02927 -0.205676,-0.05084 l 0.06008,-0.28887 c 0.05392,0.02157 0.110156,0.03852 0.1687,0.05084 0.06009,0.01233 0.127873,0.01849 0.203364,0.01849 0.0986,0 0.167929,-0.02157 0.207987,-0.06471 0.0416,-0.04314 0.06239,-0.0986 0.0624,-0.166389 l 0,-0.04391 c -0.03698,0.01695 -0.07549,0.03004 -0.115548,0.03929 -0.03852,0.0077 -0.08088,0.01156 -0.127103,0.01156 -0.16793,0 -0.296573,-0.0493 -0.38593,-0.147901 -0.08936,-0.100141 -0.134036,-0.239569 -0.134035,-0.418283 -10e-7,-0.08936 0.01387,-0.17024 0.0416,-0.242651 0.02773,-0.07395 0.06779,-0.137116 0.12017,-0.189498 0.05392,-0.05238 0.119399,-0.09244 0.196431,-0.12017 0.07703,-0.02927 0.164077,-0.04391 0.261138,-0.04391 0.0416,1e-6 0.08396,0.0023 0.127103,0.0069 0.04468,0.0031 0.08859,0.0077 0.131724,0.01387 0.04314,0.0062 0.08396,0.01387 0.122481,0.02311 0.04006,0.0077 0.07549,0.01618 0.106304,0.02542 l 0,1.021443"
       style=""
       id="path3237" />
    <path
       d="m 30.964998,17.369108 c 0,-0.107844 0.01618,-0.201823 0.04853,-0.281937 0.03389,-0.08165 0.0778,-0.149441 0.131725,-0.203364 0.05392,-0.05392 0.115547,-0.09475 0.184876,-0.122481 0.07087,-0.02773 0.143279,-0.0416 0.21723,-0.0416 0.172551,10e-7 0.308897,0.05315 0.40904,0.159456 0.10014,0.104764 0.150211,0.259598 0.150212,0.464502 -10e-7,0.02003 -7.72e-4,0.04237 -0.0023,0.06702 -0.0015,0.02311 -0.0031,0.04391 -0.0046,0.0624 l -0.781104,0 c 0.0077,0.07087 0.04083,0.127103 0.09937,0.1687 0.05854,0.0416 0.137116,0.0624 0.235717,0.06239 0.06317,1e-6 0.124791,-0.0054 0.184877,-0.01618 0.06162,-0.01233 0.111695,-0.02696 0.150212,-0.04391 l 0.04622,0.279625 c -0.01849,0.0092 -0.04314,0.01849 -0.07395,0.02773 -0.03081,0.0092 -0.06548,0.01695 -0.103994,0.02311 -0.03698,0.0077 -0.07703,0.01387 -0.120169,0.01849 -0.04314,0.0046 -0.08628,0.0069 -0.129414,0.0069 -0.109386,0 -0.204905,-0.01618 -0.286559,-0.04853 -0.08011,-0.03235 -0.147131,-0.07626 -0.201053,-0.131725 -0.05238,-0.057 -0.09167,-0.124021 -0.117859,-0.201053 -0.02465,-0.07703 -0.03697,-0.160226 -0.03697,-0.249583 m 0.808835,-0.131725 c -0.0015,-0.02927 -0.0069,-0.05777 -0.01618,-0.08551 -0.0077,-0.02773 -0.0208,-0.05238 -0.03929,-0.07395 -0.01695,-0.02157 -0.03929,-0.03928 -0.06702,-0.05315 -0.02619,-0.01387 -0.05931,-0.0208 -0.09937,-0.0208 -0.03852,10e-7 -0.07164,0.0069 -0.09937,0.0208 -0.02773,0.01233 -0.05084,0.02927 -0.06933,0.05084 -0.01849,0.02157 -0.03312,0.04699 -0.04391,0.07626 -0.0092,0.02773 -0.01618,0.05623 -0.0208,0.08551 l 0.455259,0"
       style=""
       id="path3239" />
    <path
       d="m 33.104908,17.057128 c -0.03081,-0.0077 -0.06702,-0.0154 -0.108615,-0.02311 -0.0416,-0.0092 -0.08628,-0.01386 -0.134036,-0.01387 -0.02157,1e-6 -0.04776,0.0023 -0.07857,0.0069 -0.02927,0.0031 -0.05161,0.0069 -0.06702,0.01155 l 0,0.929005 -0.344333,0 0,-1.150857 c 0.06163,-0.02157 0.134036,-0.0416 0.21723,-0.06009 0.08473,-0.02003 0.178714,-0.03004 0.281937,-0.03004 0.01849,10e-7 0.04083,0.0015 0.06702,0.0046 0.02619,0.0015 0.05238,0.0046 0.07857,0.0092 0.02619,0.0031 0.05238,0.0077 0.07857,0.01387 0.02619,0.0046 0.04853,0.01079 0.06702,0.01849 l -0.05777,0.284247"
       style=""
       id="path3241" />
  </g>
  <path
     style="opacity:0.5744444;color:#000000;fill:url(#linearGradient3402);fill-opacity:1;fill-rule:nonzero;stroke:none;stroke-width:2;marker:none;visibility:visible;display:inline;overflow:visible;enable-background:accumulate"
     d="m 100,104 c -1.108,0 -2,0.892 -2,2 l 0,22 c 0,1.108 0.892,2 2,2 l 22,0 c 1.108,0 2,-0.892 2,-2 l 0,-22 c 0,-1.108 -0.892,-2 -2,-2 l -22,0 z m 1,2 20,0 c 0.554,0 1,0.446 1,1 l 0,20 c 0,0.554 -0.446,1 -1,1 l -20,0 c -0.554,0 -1,-0.446 -1,-1 l 0,-20 c 0,-0.554 0.446,-1 1,-1 z m -24.875,1 c 5.342259,4.88174 4.791347,11.41617 1.5,15.0625 l -2.78125,-2.8125 -1.90625,10.59375 10.40625,-1.9375 -2.625,-2.65625 c 4.054552,-4.33697 4.072403,-11.25257 -0.09375,-15.5 -1.297763,-1.32309 -2.857356,-2.23976 -4.5,-2.75 z m -5.1875,0.0937 -10.40625,1.9375 2.625,2.65625 c -4.054552,4.33697 -4.072403,11.25257 0.09375,15.5 1.297763,1.32309 2.857356,2.23976 4.5,2.75 -5.342259,-4.88174 -4.791347,-11.41617 -1.5,-15.0625 l 2.78125,2.84375 1.90625,-10.625 z"
     id="path3400"
     inkscape:connector-curvature="0" />
  <path
     style="opacity:0.5744444;color:#000000;fill:url(#linearGradient3380);fill-opacity:1;fill-rule:nonzero;stroke:none;stroke-width:2;marker:none;visibility:visible;display:inline;overflow:visible;enable-background:accumulate"
     d="m 111,109 c -3.86599,0 -7,3.13401 -7,7 l -3,0 4,5 4,-5 -3,0 c 0,-2.76142 2.23858,-5 5,-5 1.14588,0 2.18802,0.38292 3.03125,1.03125 L 115.25,110.4375 C 114.06983,109.53082 112.60327,109 111,109 z"
     id="path3396"
     inkscape:connector-curvature="0" />
  <path
     style="opacity:0.5744444;color:#000000;fill:url(#linearGradient3405);fill-opacity:1;fill-rule:nonzero;stroke:none;stroke-width:2;marker:none;visibility:visible;display:inline;overflow:visible;enable-background:accumulate"
     d="m 117,113 -4,5 3,0 c 0,2.76142 -2.23858,5 -5,5 -1.14588,0 -2.18802,-0.38292 -3.03125,-1.03125 L 106.75,123.5625 c 1.18017,0.90668 2.64673,1.4375 4.25,1.4375 3.86599,0 7,-3.13401 7,-7 l 3,0 -4,-5 z"
     id="path3347"
     inkscape:connector-curvature="0" />
  <path
     sodipodi:nodetypes="sssssssssssssssssscccccccccccscccc"
     inkscape:connector-curvature="0"
     id="path3337"
     d="m 140,104 c -1.108,0 -2,0.892 -2,2 l 0,22 c 0,1.108 0.892,2 2,2 l 22,0 c 1.108,0 2,-0.892 2,-2 l 0,-22 c 0,-1.108 -0.892,-2 -2,-2 z m 1,2 20,0 c 0.554,0 1,0.446 1,1 l 0,20 c 0,0.554 -0.446,1 -1,1 l -20,0 c -0.554,0 -1,-0.446 -1,-1 l 0,-20 c 0,-0.554 0.446,-1 1,-1 z m 12.5625,2 c 4.51674,3.82797 4.03275,8.95326 1.25,11.8125 l -2.375,-2.21875 -1.59375,8.3125 8.8125,-1.5 -2.21875,-2.09375 c 3.42801,-3.4008 3.42857,-8.82567 -0.0937,-12.15625 -1.09732,-1.03749 -2.39249,-1.75615 -3.7813,-2.15625 z m -1.5625,0 -10,1 3,2 c -3.42802,3.4008 -3.86607,9.51317 -0.34375,12.84375 1.09722,1.03749 2.39244,1.75615 3.78125,2.15625 -4.51674,-3.82797 -2.22025,-9.14076 0.5625,-12 l 2,3 z"
     style="opacity:0.5744444;color:#000000;fill:url(#linearGradient3339);fill-opacity:1;fill-rule:nonzero;stroke:none;stroke-width:2;marker:none;visibility:visible;display:inline;overflow:visible;enable-background:accumulate" />
  <path
     style="opacity:0.8;color:#000000;fill:#714c28;fill-opacity:1;fill-rule:nonzero;stroke:none;stroke-width:2;marker:none;visibility:visible;display:inline;overflow:visible;enable-background:accumulate"
     d="m 72,152 -9,7 0.59375,0.4375 L 72,166 l 0,-4 c 3.313709,0 6,2.68629 6,6 0,3.31371 -2.686291,6 -6,6 -3.313709,0 -6,-2.68629 -6,-6 0,-0.81462 0.143401,-1.6043 0.4375,-2.3125 l -5.53125,-2.28125 C 60.316031,164.82471 60,166.36781 60,168 c 0,6.62742 5.372583,12 12,12 6.627417,0 12,-5.37258 12,-12 0,-6.62742 -5.372583,-12 -12,-12 l 0,-4 z"
     id="path3407"
     inkscape:connector-curvature="0" />
  <path
     style="opacity:0.57444439999999997;color:#000000;fill:url(#linearGradient3247);fill-opacity:1;fill-rule:nonzero;stroke:none;stroke-width:2;marker:none;visibility:visible;display:inline;overflow:visible;enable-background:accumulate"
     d="M 60 54 C 58.892 54 58 54.892 58 56 L 58 78 C 58 79.108 58.892 80 60 80 L 82 80 C 83.108 80 84 79.108 84 78 L 84 56 C 84 54.892 83.108 54 82 54 L 60 54 z M 61 56 L 81 56 C 81.554 56 82 56.446 82 57 L 82 77 C 82 77.554 81.554 78 81 78 L 61 78 C 60.446 78 60 77.554 60 77 L 60 57 C 60 56.446 60.446 56 61 56 z M 71 57 L 62 68 L 66 68 L 66 76 L 76 76 L 76 68 L 80 68 L 71 57 z "
     id="path3240" />
</svg>
