<?xml version="1.0" encoding="UTF-8" standalone="no"?>
<svg
   xmlns:dc="http://purl.org/dc/elements/1.1/"
   xmlns:cc="http://creativecommons.org/ns#"
   xmlns:rdf="http://www.w3.org/1999/02/22-rdf-syntax-ns#"
   xmlns:svg="http://www.w3.org/2000/svg"
   xmlns="http://www.w3.org/2000/svg"
   xmlns:xlink="http://www.w3.org/1999/xlink"
   xmlns:sodipodi="http://sodipodi.sourceforge.net/DTD/sodipodi-0.dtd"
   xmlns:inkscape="http://www.inkscape.org/namespaces/inkscape"
   width="96"
   height="96"
   version="1.1"
   id="svg77"
   sodipodi:docname="vivaldi.svg"
   inkscape:version="0.92.2 5c3e80d, 2017-08-06">
  <metadata
     id="metadata81">
    <rdf:RDF>
      <cc:Work
         rdf:about="">
        <dc:format>image/svg+xml</dc:format>
        <dc:type
           rdf:resource="http://purl.org/dc/dcmitype/StillImage" />
      </cc:Work>
    </rdf:RDF>
  </metadata>
  <sodipodi:namedview
     pagecolor="#ffffff"
     bordercolor="#666666"
     borderopacity="1"
     objecttolerance="10"
     gridtolerance="10"
     guidetolerance="10"
     inkscape:pageopacity="0"
     inkscape:pageshadow="2"
     inkscape:window-width="1366"
     inkscape:window-height="743"
     id="namedview79"
     showgrid="false"
     inkscape:zoom="2.4583333"
     inkscape:cx="3.0508468"
     inkscape:cy="47.999999"
     inkscape:window-x="0"
     inkscape:window-y="25"
     inkscape:window-maximized="1"
     inkscape:current-layer="svg77" />
  <defs
     id="defs2410">
    <linearGradient
       id="linearGradient4384">
      <stop
         id="stop4386"
         stop-color="#fff"
         offset="0" />
      <stop
         id="stop4388"
         stop-color="#fff"
         stop-opacity="0"
         offset="1" />
    </linearGradient>
    <filter
       id="filter3794"
       x="-.192"
       y="-.192"
       width="1.384"
       height="1.384">
      <feGaussianBlur
         id="feGaussianBlur3796"
         stdDeviation="5.28" />
    </filter>
    <linearGradient
       id="linearGradient3613"
       x1="48"
       x2="48"
       y1="20.221"
       y2="138.66"
       gradientUnits="userSpaceOnUse">
      <stop
         id="stop3739"
         stop-color="#fff"
         offset="0" />
      <stop
         id="stop3741"
         stop-color="#fff"
         stop-opacity="0"
         offset="1" />
    </linearGradient>
    <linearGradient
       id="buttonGradient"
       x1="48"
       x2="48"
       y1="90"
       y2="5.9877"
       gradientUnits="userSpaceOnUse">
      <stop
         id="stop3702"
         stop-color="#e21838"
         offset="0" />
      <stop
         id="stop3704"
         stop-color="#f51d30"
         offset="1" />
    </linearGradient>
    <linearGradient
       id="ButtonShadow-0"
       x1="45.448"
       x2="45.448"
       y1="92.54"
       y2="7.0165"
       gradientTransform="matrix(1.0059 0 0 .99417 100 0)"
       gradientUnits="userSpaceOnUse">
      <stop
         id="stop3750-8"
         offset="0" />
      <stop
         id="stop3752-5"
         stop-opacity=".58824"
         offset="1" />
    </linearGradient>
    <linearGradient
       id="linearGradient3780"
       x1="32.251"
       x2="32.251"
       y1="6.1317"
       y2="90.239"
       gradientTransform="matrix(1.0238 0 0 1.0119 -1.1429 -98.071)"
       gradientUnits="userSpaceOnUse"
       xlink:href="#ButtonShadow-0" />
    <linearGradient
       id="linearGradient3721"
       x1="32.251"
       x2="32.251"
       y1="6.1317"
       y2="90.239"
       gradientTransform="translate(0,-97)"
       gradientUnits="userSpaceOnUse"
       xlink:href="#ButtonShadow-0" />
    <clipPath
       id="clipPath4355">
      <rect
         id="rect4357"
         x="6"
         y="6"
         width="84"
         height="80"
         rx="6"
         ry="6"
         fill="#fff" />
    </clipPath>
    <linearGradient
       id="linearGradient4390"
       x1="48"
       x2="48"
       y1="88"
       y2="-40"
       gradientTransform="matrix(1,0,0,-1,0,92)"
       gradientUnits="userSpaceOnUse"
       xlink:href="#linearGradient4384" />
    <linearGradient
       id="linearGradient4429"
       x1="48"
       x2="112.12"
       y1="82"
       y2="82.455"
       gradientUnits="userSpaceOnUse"
       spreadMethod="reflect"
       xlink:href="#linearGradient4384" />
    <linearGradient
       id="linearGradient3228"
       x1="90"
       x2="48"
       y1="88"
       y2="88"
       gradientUnits="userSpaceOnUse"
       spreadMethod="reflect">
      <stop
         id="stop3894"
         stop-opacity=".58824"
         offset="0" />
      <stop
         id="stop3896"
         stop-opacity=".47059"
         offset=".1178" />
      <stop
         id="stop3898"
         stop-opacity=".39216"
         offset=".2381" />
      <stop
         id="stop3900"
         stop-opacity=".31373"
         offset="1" />
    </linearGradient>
    <linearGradient
       gradientTransform="rotate(-90,47.921873,48.078128)"
       x1="65"
       y1="6"
       x2="65"
       y2="86"
       id="linearGradient3930"
       xlink:href="#linearGradient4384"
       gradientUnits="userSpaceOnUse" />
  </defs>
  <g
     id="layer3">
    <g
       id="g32"
       fill="url(#linearGradient3780)">
      <path
         id="path3786"
         transform="scale(1,-1)"
         d="m12-95.021c-5.5111 0-10.022 4.51-10.022 10.021v71c0 5.5111 4.5104 10.021 10.021 10.021h72c5.5111 0 10.021-4.5104 10.021-10.021v-71c0-5.5111-4.5104-10.021-10.021-10.021h-72z"
         opacity=".08" />
      <path
         id="path3778"
         transform="scale(1,-1)"
         d="m12-94.035c-4.9716 0-9.0352 4.0635-9.0352 9.0352v71c0 4.9716 4.0635 9.0352 9.0352 9.0352h72c4.9716 0 9.0352-4.0635 9.0352-9.0352v-71c0-4.9716-4.0635-9.0352-9.0352-9.0352h-72z"
         opacity=".1" />
      <path
         id="path3770"
         transform="scale(1,-1)"
         d="m12-92.99c-4.4091 0-7.9902 3.5811-7.9902 7.9902v71c0 4.4091 3.5811 7.9902 7.9902 7.9902h72c4.4091 0 7.9902-3.5811 7.9902-7.9902v-71c0-4.4091-3.5811-7.9902-7.9902-7.9902h-72z"
         opacity=".2" />
      <rect
         id="rect3723"
         transform="scale(1,-1)"
         x="5"
         y="-92"
         width="86"
         height="85"
         rx="7"
         ry="7"
         opacity=".3" />
    </g>
    <rect
       id="rect3716"
       transform="scale(1,-1)"
       x="6"
       y="-91"
       width="84"
       height="84"
       rx="6"
       ry="6"
       fill="url(#linearGradient3721)"
       opacity=".45" />
  </g>
  <g
     id="layer1">
    <rect
       id="button"
       x="6"
       y="6"
       width="84"
       height="84"
       rx="6"
       ry="6"
       fill="url(#buttonGradient)" />
    <path
       id="rect4377"
       d="m12 86c-3.324 0-6-2.676-6-6v-68c0-3.324 2.676-6 6-6h72c3.324 0 6 2.676 6 6v68c0 3.324-2.676 6-6 6zm0-0.96875h72c2.8049 0 5.0312-2.2264 5.0312-5.0312v-68c0-2.8049-2.226-5.0312-5.031-5.0312h-72c-2.8049 0-5.0312 2.2263-5.0312 5.0312v68c0 2.8049 2.2264 5.0312 5.0312 5.0312z"
       fill="url(#linearGradient4390)"
       opacity=".3" />
    <path
       id="rect4414"
       d="m6 78v2c0 3.324 2.676 6 6 6h72c3.324 0 6-2.676 6-6v-2c0 3.324-2.676 6-6 6h-72c-3.324 0-6-2.676-6-6z"
       fill="url(#linearGradient4429)"
       opacity=".1" />
  </g>
  <g
     id="layer4">
    <path
       id="path3888"
       d="m6 80v4c0 3.324 2.676 6 6 6h72c3.324 0 6-2.676 6-6v-4c0 3.324-2.676 6-6 6h-72c-3.324 0-6-2.676-6-6z"
       fill="url(#linearGradient3228)" />
    <path
       id="rect4345"
       d="m6 82v2c0 3.324 2.676 6 6 6h72c3.324 0 6-2.676 6-6v-2c0 3.324-2.676 6-6 6h-72c-3.324 0-6-2.676-6-6z"
       color="#000000"
       opacity=".1" />
    <path
       id="rect4336"
       d="m6 83v1c0 3.324 2.676 6 6 6h72c3.324 0 6-2.676 6-6v-1c0 3.324-2.676 6-6 6h-72c-3.324 0-6-2.676-6-6z"
       color="#000000"
       opacity=".15" />
  </g>
  <g
     id="layer5">
    <rect
       id="rect3171"
       x="15"
       y="15"
       width="66"
       height="62"
       rx="12"
       ry="12"
       clip-path="url(#clipPath4355)"
       fill="url(#linearGradient3613)"
       filter="url(#filter3794)"
       opacity=".1"
       stroke="#fff"
       stroke-linecap="round"
       stroke-width=".5" />
  </g>
  <defs
     id="defs53">
    <filter
       id="w">
      <feGaussianBlur
         stdDeviation="0.23199685"
         id="feGaussianBlur45" />
    </filter>
    <linearGradient
       id="a"
       gradientUnits="userSpaceOnUse"
       x1="8"
       y1="1.9992907"
       x2="8"
       y2="15.0001787">
      <stop
         stop-color="#fafafa"
         offset="0"
         id="stop48" />
      <stop
         stop-color="#ebebeb"
         offset="1"
         id="stop50" />
    </linearGradient>
  </defs>
  <g
     transform="translate(0,-2)"
     id="g75">
    <path
       style="opacity:0.15;fill:#000000"
       d="m 13.46875,1.75 c -0.405133,-0.01277 -0.817696,0.1226535 -1.226562,0.3808594 -0.39775,0.2511931 -0.662491,0.625422 -0.753907,1.0878906 -0.09142,0.4624686 -0.02773,1.0023648 0.16211,1.6445312 C 11.94225,5.8506648 11.830729,6.7451303 11.433594,7.40625 11.036459,8.0673697 10.355925,8.5067656 9.4433594,8.5820312 8.6680011,8.6459858 8.073705,8.4467328 7.5351562,7.9492188 7.2196779,7.6577518 6.8219699,7.063272 5.8574219,5.3613281 5.1227514,4.0649598 4.7056177,3.335958 4.4238281,2.890625 4.1420386,2.445292 3.9757402,2.2635314 3.7910156,2.1230469 3.0970081,1.5953086 2.0728381,1.638789 1.4042969,2.2167969 0.95474658,2.6054788 0.75,3.0837045 0.75,3.7167969 0.75,4.0527928 0.81819874,4.3781395 1.2207031,5.1835938 1.6232075,5.989048 2.3678701,7.3249231 3.7617188,9.8046875 5.2722146,12.492052 5.9878086,13.778307 6.4375,14.4375 c 0.2248457,0.329597 0.3883239,0.514077 0.5761719,0.626953 0.187848,0.112876 0.3616568,0.125942 0.5351562,0.15625 0.5511316,0.09628 1.2099098,-0.01662 1.625,-0.320312 0.2096872,-0.153503 0.3887394,-0.421915 0.8632809,-1.216797 0.474542,-0.794883 1.228529,-2.119315 2.490235,-4.3632815 C 13.716202,7.205943 14.387986,5.9885466 14.769531,5.2109375 15.151077,4.4333284 15.25,4.06339 15.25,3.7148438 15.25,3.0821356 15.044891,2.6051601 14.595703,2.2167969 14.259809,1.9263715 13.873704,1.7627643 13.46875,1.75 Z"
       id="path55"
       inkscape:original="M 13.460938 2 C 13.116335 1.989138 12.75309 2.1030269 12.375 2.3417969 C 11.67686 2.7826969 11.524295 3.5537687 11.890625 4.7929688 C 12.507725 6.8806688 11.432544 8.6697412 9.4648438 8.8320312 C 8.6330438 8.9006413 7.9493944 8.6724625 7.3652344 8.1328125 C 7.0052344 7.8002125 6.607075 7.189675 5.640625 5.484375 C 4.171815 2.892575 3.967275 2.5706856 3.640625 2.3222656 C 3.049925 1.8730846 2.1430194 1.90941 1.5683594 2.40625 C 1.1596394 2.75963 1 3.1289669 1 3.7167969 C 1 4.3368969 1.1930688 4.7226406 3.9804688 9.6816406 C 7.0017588 15.0569 6.8575769 14.846349 7.5917969 14.974609 C 8.0634269 15.056999 8.7048906 14.933709 9.0253906 14.699219 C 9.2970906 14.500319 9.7855938 13.684466 12.308594 9.1972656 C 14.685614 4.9697656 15 4.3262338 15 3.7148438 C 15 3.1274638 14.840251 2.75953 14.431641 2.40625 C 14.130741 2.146082 13.80554 2.010862 13.460938 2 z"
       transform="matrix(4,0,0,4,16,17)"
       inkscape:radius="0.25"
       sodipodi:type="inkscape:offset" />
    <g
       id="Bevel1">
      <path
         fill="#000"
         opacity=".10"
         sodipodi:type="inkscape:offset"
         inkscape:radius="0.5"
         transform="translate(16,17) scale(4)"
         inkscape:original="M 13.460938 2 C 13.116335 1.989138 12.75309 2.1030269 12.375 2.3417969 C 11.67686 2.7826969 11.524295 3.5537687 11.890625 4.7929688 C 12.507725 6.8806688 11.432544 8.6697412 9.4648438 8.8320312 C 8.6330438 8.9006413 7.9493944 8.6724625 7.3652344 8.1328125 C 7.0052344 7.8002125 6.607075 7.189675 5.640625 5.484375 C 4.171815 2.892575 3.967275 2.5706856 3.640625 2.3222656 C 3.049925 1.8730846 2.1430194 1.90941 1.5683594 2.40625 C 1.1596394 2.75963 1 3.1289669 1 3.7167969 C 1 4.3368969 1.1930688 4.7226406 3.9804688 9.6816406 C 7.0017588 15.0569 6.8575769 14.846349 7.5917969 14.974609 C 8.0634269 15.056999 8.7048906 14.933709 9.0253906 14.699219 C 9.2970906 14.500319 9.7855938 13.684466 12.308594 9.1972656 C 14.685614 4.9697656 15 4.3262338 15 3.7148438 C 15 3.1274638 14.840251 2.75953 14.431641 2.40625 C 14.130741 2.146082 13.80554 2.010862 13.460938 2 z"
         id="path58" />
    </g>
    <g
       id="Bevel2">
      <path
         fill="#000"
         opacity=".05"
         sodipodi:type="inkscape:offset"
         inkscape:radius="0.75"
         transform="translate(16,17) scale(4)"
         inkscape:original="M 13.460938 2 C 13.116335 1.989138 12.75309 2.1030269 12.375 2.3417969 C 11.67686 2.7826969 11.524295 3.5537687 11.890625 4.7929688 C 12.507725 6.8806688 11.432544 8.6697412 9.4648438 8.8320312 C 8.6330438 8.9006413 7.9493944 8.6724625 7.3652344 8.1328125 C 7.0052344 7.8002125 6.607075 7.189675 5.640625 5.484375 C 4.171815 2.892575 3.967275 2.5706856 3.640625 2.3222656 C 3.049925 1.8730846 2.1430194 1.90941 1.5683594 2.40625 C 1.1596394 2.75963 1 3.1289669 1 3.7167969 C 1 4.3368969 1.1930688 4.7226406 3.9804688 9.6816406 C 7.0017588 15.0569 6.8575769 14.846349 7.5917969 14.974609 C 8.0634269 15.056999 8.7048906 14.933709 9.0253906 14.699219 C 9.2970906 14.500319 9.7855938 13.684466 12.308594 9.1972656 C 14.685614 4.9697656 15 4.3262338 15 3.7148438 C 15 3.1274638 14.840251 2.75953 14.431641 2.40625 C 14.130741 2.146082 13.80554 2.010862 13.460938 2 z"
         id="path61" />
    </g>
    <path
       d="M 13.460938 2 C 13.116335 1.989138 12.75309 2.1030269 12.375 2.3417969 C 11.67686 2.7826969 11.524295 3.5537687 11.890625 4.7929688 C 12.507725 6.8806688 11.432544 8.6697412 9.4648438 8.8320312 C 8.6330438 8.9006413 7.9493944 8.6724625 7.3652344 8.1328125 C 7.0052344 7.8002125 6.607075 7.189675 5.640625 5.484375 C 4.171815 2.892575 3.967275 2.5706856 3.640625 2.3222656 C 3.049925 1.8730846 2.1430194 1.90941 1.5683594 2.40625 C 1.1596394 2.75963 1 3.1289669 1 3.7167969 C 1 4.3368969 1.1930688 4.7226406 3.9804688 9.6816406 C 7.0017588 15.0569 6.8575769 14.846349 7.5917969 14.974609 C 8.0634269 15.056999 8.7048906 14.933709 9.0253906 14.699219 C 9.2970906 14.500319 9.7855938 13.684466 12.308594 9.1972656 C 14.685614 4.9697656 15 4.3262338 15 3.7148438 C 15 3.1274638 14.840251 2.75953 14.431641 2.40625 C 14.130741 2.146082 13.80554 2.010862 13.460938 2 z"
       fill="url(#a)"
       id="base"
       transform="translate(16,16) scale(4)" />
    <path
       style="opacity:0.3;fill:#000000;stroke-width:4"
       d="M 62.820312 28.982422 C 62.715294 30.423891 62.961253 32.13801 63.5625 34.171875 C 63.978475 35.579151 64.187563 36.947713 64.234375 38.261719 C 64.288567 36.650482 64.085376 34.940806 63.5625 33.171875 C 63.092674 31.582574 62.859866 30.204909 62.820312 28.982422 z M 75.974609 29.1875 C 75.858377 31.563488 74.332412 34.608319 65.234375 50.789062 C 55.142374 68.737865 53.188362 72.001275 52.101562 72.796875 C 50.819563 73.734835 48.253707 74.227998 46.367188 73.898438 C 43.430307 73.385397 44.007035 74.2276 31.921875 52.726562 C 21.352797 33.923355 20.124353 31.560091 20.023438 29.251953 C 20.012505 29.452799 20 29.652369 20 29.867188 C 20 32.347588 20.772275 33.890562 31.921875 53.726562 C 44.007035 75.2276 43.430307 74.385397 46.367188 74.898438 C 48.253707 75.227998 50.819563 74.734835 52.101562 73.796875 C 53.188362 73.001275 55.142374 69.737865 65.234375 51.789062 C 74.742455 34.879062 76 32.304935 76 29.859375 C 76 29.624962 75.987685 29.405251 75.974609 29.1875 z "
       transform="translate(0,2)"
       id="path65" />
    <path
       style="fill:#ffffff;stroke-width:4"
       d="M 69.84375 22 C 68.465338 21.956552 67.01236 22.412107 65.5 23.367188 C 63.60282 24.565324 62.736505 26.392148 62.820312 28.982422 C 62.971238 26.910837 63.853278 25.407151 65.5 24.367188 C 67.01236 23.412107 68.465338 22.956552 69.84375 23 C 71.222158 23.043448 72.522963 23.584328 73.726562 24.625 C 75.197934 25.897132 75.856631 27.222731 75.974609 29.1875 C 75.979848 29.080416 76 28.964842 76 28.859375 C 76 26.509855 75.361002 25.03812 73.726562 23.625 C 72.522963 22.584328 71.222158 22.043448 69.84375 22 z M 26.394531 22.037109 C 24.904946 22.097264 23.422757 22.63132 22.273438 23.625 C 20.638558 25.03852 20 26.515868 20 28.867188 C 20 28.996333 20.017895 29.125175 20.023438 29.251953 C 20.132169 27.25441 20.787921 25.90938 22.273438 24.625 C 24.572078 22.63764 28.1997 22.492338 30.5625 24.289062 C 31.8691 25.282743 32.68726 26.5703 38.5625 36.9375 C 42.4283 43.7587 44.020938 46.20085 45.460938 47.53125 C 47.797578 49.68985 50.532175 50.602565 53.859375 50.328125 C 60.403789 49.788361 64.465348 44.745043 64.234375 38.261719 C 64.032736 44.256838 60.062922 48.816475 53.859375 49.328125 C 50.532175 49.602565 47.797578 48.68985 45.460938 46.53125 C 44.020938 45.20085 42.4283 42.7587 38.5625 35.9375 C 32.68726 25.5703 31.8691 24.282743 30.5625 23.289062 C 29.3811 22.390701 27.884117 21.976954 26.394531 22.037109 z "
       transform="translate(0,2)"
       id="path70" />
  </g>
  <path
     inkscape:connector-curvature="0"
     d="M 5.843746,48 85.84375,24 V 6.34375 C 85.21798,6.123613 84.54663,6 83.84375,6 H 11.843746 c -3.324,0 -6,2.676 -6,6 z"
     id="rect3155"
     style="display:inline;opacity:0.15;fill:url(#linearGradient3930);fill-opacity:1;fill-rule:nonzero;stroke:none;enable-background:new" />
</svg>
