<?xml version="1.0" encoding="UTF-8" standalone="no"?>
<!-- Created with Inkscape (http://www.inkscape.org/) -->

<svg
   xmlns:dc="http://purl.org/dc/elements/1.1/"
   xmlns:cc="http://creativecommons.org/ns#"
   xmlns:rdf="http://www.w3.org/1999/02/22-rdf-syntax-ns#"
   xmlns:svg="http://www.w3.org/2000/svg"
   xmlns="http://www.w3.org/2000/svg"
   xmlns:xlink="http://www.w3.org/1999/xlink"
   xmlns:sodipodi="http://sodipodi.sourceforge.net/DTD/sodipodi-0.dtd"
   xmlns:inkscape="http://www.inkscape.org/namespaces/inkscape"
   width="96"
   height="96"
   id="svg2408"
   sodipodi:version="0.32"
   inkscape:version="0.48.1 r9760"
   version="1.0"
   sodipodi:docname="weather-clear.svg"
   inkscape:output_extension="org.inkscape.output.svg.inkscape">
  <defs
     id="defs2410">
    <linearGradient
       id="linearGradient4384">
      <stop
         style="stop-color:#ffffff;stop-opacity:1;"
         offset="0"
         id="stop4386" />
      <stop
         style="stop-color:#ffffff;stop-opacity:0;"
         offset="1"
         id="stop4388" />
    </linearGradient>
    <linearGradient
       id="linearGradient4367">
      <stop
         style="stop-color:#ffffff;stop-opacity:0.71755725;"
         offset="0"
         id="stop4369" />
      <stop
         style="stop-color:#ffffff;stop-opacity:1;"
         offset="1"
         id="stop4371" />
    </linearGradient>
    <inkscape:perspective
       sodipodi:type="inkscape:persp3d"
       inkscape:vp_x="0 : 48 : 1"
       inkscape:vp_y="0 : 1000 : 0"
       inkscape:vp_z="96 : 48 : 1"
       inkscape:persp3d-origin="48 : 32 : 1"
       id="perspective48" />
    <linearGradient
       id="ButtonShadow"
       gradientTransform="scale(1.0058652,0.994169)"
       x1="45.447727"
       y1="92.539597"
       x2="45.447727"
       y2="7.0165396"
       gradientUnits="userSpaceOnUse">
      <stop
         style="stop-color:#000000;stop-opacity:1;"
         offset="0"
         id="stop3750" />
      <stop
         style="stop-color:#000000;stop-opacity:0.58823532;"
         offset="1"
         id="stop3752" />
    </linearGradient>
    <linearGradient
       inkscape:collect="always"
       id="linearGradient3737">
      <stop
         style="stop-color:#ffffff;stop-opacity:1;"
         offset="0"
         id="stop3739" />
      <stop
         style="stop-color:#ffffff;stop-opacity:0;"
         offset="1"
         id="stop3741" />
    </linearGradient>
    <linearGradient
       id="linearGradient3700">
      <stop
         style="stop-color:#2276c5;stop-opacity:1;"
         offset="0"
         id="stop3702" />
      <stop
         style="stop-color:#68baf4;stop-opacity:1;"
         offset="1"
         id="stop3704" />
    </linearGradient>
    <filter
       inkscape:collect="always"
       id="filter3174">
      <feGaussianBlur
         inkscape:collect="always"
         stdDeviation="1.71"
         id="feGaussianBlur3176" />
    </filter>
    <linearGradient
       inkscape:collect="always"
       xlink:href="#linearGradient3737"
       id="linearGradient3188"
       gradientUnits="userSpaceOnUse"
       x1="36.357143"
       y1="6"
       x2="36.357143"
       y2="63.893143" />
    <filter
       inkscape:collect="always"
       id="filter3794"
       x="-0.192"
       width="1.384"
       y="-0.192"
       height="1.384">
      <feGaussianBlur
         inkscape:collect="always"
         stdDeviation="5.28"
         id="feGaussianBlur3796" />
    </filter>
    <linearGradient
       inkscape:collect="always"
       xlink:href="#linearGradient3737"
       id="linearGradient3613"
       x1="48"
       y1="20.220806"
       x2="48"
       y2="138.66119"
       gradientUnits="userSpaceOnUse" />
    <linearGradient
       inkscape:collect="always"
       xlink:href="#linearGradient3700"
       id="linearGradient3617"
       gradientUnits="userSpaceOnUse"
       x1="48"
       y1="90"
       x2="48"
       y2="5.9877172" />
    <linearGradient
       id="ButtonShadow-0"
       gradientTransform="matrix(1.0058652,0,0,0.994169,100,0)"
       x1="45.447727"
       y1="92.539597"
       x2="45.447727"
       y2="7.0165396"
       gradientUnits="userSpaceOnUse">
      <stop
         style="stop-color:#000000;stop-opacity:1;"
         offset="0"
         id="stop3750-8" />
      <stop
         style="stop-color:#000000;stop-opacity:0.58823532;"
         offset="1"
         id="stop3752-5" />
    </linearGradient>
    <linearGradient
       inkscape:collect="always"
       xlink:href="#ButtonShadow-0"
       id="linearGradient3780"
       gradientUnits="userSpaceOnUse"
       gradientTransform="matrix(1.0238095,0,0,1.0119048,-1.1428571,-98.071429)"
       x1="32.251034"
       y1="6.1317081"
       x2="32.251034"
       y2="90.238609" />
    <linearGradient
       inkscape:collect="always"
       xlink:href="#ButtonShadow-0"
       id="linearGradient3772"
       gradientUnits="userSpaceOnUse"
       gradientTransform="matrix(1.0238095,0,0,1.0119048,-1.1428571,-98.071429)"
       x1="32.251034"
       y1="6.1317081"
       x2="32.251034"
       y2="90.238609" />
    <linearGradient
       inkscape:collect="always"
       xlink:href="#ButtonShadow-0"
       id="linearGradient3725"
       gradientUnits="userSpaceOnUse"
       gradientTransform="matrix(1.0238095,0,0,1.0119048,-1.1428571,-98.071429)"
       x1="32.251034"
       y1="6.1317081"
       x2="32.251034"
       y2="90.238609" />
    <linearGradient
       inkscape:collect="always"
       xlink:href="#ButtonShadow-0"
       id="linearGradient3721"
       gradientUnits="userSpaceOnUse"
       gradientTransform="translate(0,-97)"
       x1="32.251034"
       y1="6.1317081"
       x2="32.251034"
       y2="90.238609" />
    <linearGradient
       y2="90.238609"
       x2="32.251034"
       y1="6.1317081"
       x1="32.251034"
       gradientTransform="matrix(1.0238095,0,0,1.0119048,-1.1428571,-98.071429)"
       gradientUnits="userSpaceOnUse"
       id="linearGradient3026"
       xlink:href="#ButtonShadow-0"
       inkscape:collect="always" />
    <linearGradient
       inkscape:collect="always"
       xlink:href="#linearGradient3669"
       id="linearGradient3675"
       x1="8"
       y1="1033.3622"
       x2="64.080299"
       y2="1033.3622"
       gradientUnits="userSpaceOnUse"
       spreadMethod="reflect" />
    <linearGradient
       id="linearGradient3669">
      <stop
         style="stop-color:#c27d4f;stop-opacity:1;"
         offset="0"
         id="stop3671" />
      <stop
         id="stop3677"
         offset="0.11780351"
         style="stop-color:#a3704e;stop-opacity:1;" />
      <stop
         style="stop-color:#866148;stop-opacity:1;"
         offset="1"
         id="stop3673" />
    </linearGradient>
    <clipPath
       clipPathUnits="userSpaceOnUse"
       id="clipPath4355">
      <rect
         style="fill:#ffffff;fill-opacity:1;fill-rule:nonzero;stroke:none"
         id="rect4357"
         width="84"
         height="80"
         x="6"
         y="6"
         rx="6"
         ry="6" />
    </clipPath>
    <radialGradient
       inkscape:collect="always"
       xlink:href="#linearGradient4367"
       id="radialGradient4375"
       cx="48"
       cy="87.792389"
       fx="48"
       fy="87.792389"
       r="42"
       gradientTransform="matrix(1,-6.7114942e-8,8.4282233e-8,1.2557894,109.99999,-24.505592)"
       gradientUnits="userSpaceOnUse" />
    <linearGradient
       inkscape:collect="always"
       xlink:href="#linearGradient4384"
       id="linearGradient4390"
       x1="48"
       y1="88"
       x2="48"
       y2="-40"
       gradientUnits="userSpaceOnUse"
       gradientTransform="matrix(1,0,0,-1,0,92)" />
    <linearGradient
       inkscape:collect="always"
       xlink:href="#linearGradient4384"
       id="linearGradient4429"
       x1="48"
       y1="82"
       x2="112.12357"
       y2="82.454597"
       gradientUnits="userSpaceOnUse"
       spreadMethod="reflect" />
    <linearGradient
       gradientTransform="translate(-2,-956.3622)"
       y2="1033.3622"
       x2="50"
       y1="1033.3622"
       x1="8"
       spreadMethod="reflect"
       gradientUnits="userSpaceOnUse"
       id="linearGradient3542-9"
       xlink:href="#linearGradient4482"
       inkscape:collect="always" />
    <linearGradient
       id="linearGradient4482">
      <stop
         id="stop4484"
         offset="0"
         style="stop-color:#ffffff;stop-opacity:0.12977099;" />
      <stop
         style="stop-color:#424242;stop-opacity:0.28244275;"
         offset="0.11780351"
         id="stop4486" />
      <stop
         id="stop4488"
         offset="0.23809524"
         style="stop-color:#2f2f2f;stop-opacity:0.30534351;" />
      <stop
         id="stop4490"
         offset="1"
         style="stop-color:#000000;stop-opacity:0.35114503;" />
    </linearGradient>
    <linearGradient
       inkscape:collect="always"
       xlink:href="#linearGradient4482"
       id="linearGradient3851"
       gradientUnits="userSpaceOnUse"
       x1="90"
       y1="88"
       x2="48"
       y2="88"
       spreadMethod="reflect" />
    <linearGradient
       inkscape:collect="always"
       xlink:href="#linearGradient3892"
       id="linearGradient3890"
       gradientUnits="userSpaceOnUse"
       spreadMethod="reflect"
       x1="90"
       y1="88"
       x2="48"
       y2="88" />
    <linearGradient
       id="linearGradient3892">
      <stop
         style="stop-color:#000000;stop-opacity:0.58823532;"
         offset="0"
         id="stop3894" />
      <stop
         id="stop3896"
         offset="0.11780351"
         style="stop-color:#000000;stop-opacity:0.47058824;" />
      <stop
         style="stop-color:#000000;stop-opacity:0.39215687;"
         offset="0.23809524"
         id="stop3898" />
      <stop
         style="stop-color:#000000;stop-opacity:0.3137255;"
         offset="1"
         id="stop3900" />
    </linearGradient>
    <linearGradient
       y2="88"
       x2="48"
       y1="88"
       x1="90"
       spreadMethod="reflect"
       gradientUnits="userSpaceOnUse"
       id="linearGradient3228"
       xlink:href="#linearGradient3892"
       inkscape:collect="always" />
    <radialGradient
       inkscape:collect="always"
       xlink:href="#linearGradient3762-0"
       id="radialGradient4524"
       gradientUnits="userSpaceOnUse"
       gradientTransform="matrix(1,0,0,1.0084418,-18,12.737341)"
       cx="65.324959"
       cy="31.114408"
       fx="65.324959"
       fy="31.114408"
       r="52.04668" />
    <linearGradient
       id="linearGradient3762-0">
      <stop
         style="stop-color:#ffda56;stop-opacity:1;"
         offset="0"
         id="stop3764-5" />
      <stop
         id="stop3770-3"
         offset="0.640625"
         style="stop-color:#ffda56;stop-opacity:1;" />
      <stop
         style="stop-color:#ffda56;stop-opacity:0;"
         offset="1"
         id="stop3766-9" />
    </linearGradient>
    <radialGradient
       inkscape:collect="always"
       xlink:href="#linearGradient3762-0"
       id="radialGradient4522"
       gradientUnits="userSpaceOnUse"
       cx="64"
       cy="32"
       fx="64"
       fy="32"
       r="40" />
    <linearGradient
       id="linearGradient3206">
      <stop
         style="stop-color:#ffda56;stop-opacity:1;"
         offset="0"
         id="stop3208" />
      <stop
         id="stop3210"
         offset="0.640625"
         style="stop-color:#ffda56;stop-opacity:1;" />
      <stop
         style="stop-color:#ffda56;stop-opacity:0;"
         offset="1"
         id="stop3212" />
    </linearGradient>
    <radialGradient
       inkscape:collect="always"
       xlink:href="#linearGradient3752-3"
       id="radialGradient4520"
       gradientUnits="userSpaceOnUse"
       cx="64"
       cy="32"
       fx="64"
       fy="32"
       r="32" />
    <linearGradient
       id="linearGradient3752-3">
      <stop
         id="stop3754-6"
         offset="0"
         style="stop-color:#ffdc4d;stop-opacity:1;" />
      <stop
         style="stop-color:#ffe041;stop-opacity:1;"
         offset="0.77642262"
         id="stop3756-2" />
      <stop
         id="stop3758-7"
         offset="1"
         style="stop-color:#fffda4;stop-opacity:0;" />
    </linearGradient>
    <radialGradient
       inkscape:collect="always"
       xlink:href="#linearGradient3699-8"
       id="radialGradient4518"
       gradientUnits="userSpaceOnUse"
       cx="52.148148"
       cy="43.851852"
       fx="52.148148"
       fy="43.851852"
       r="32" />
    <linearGradient
       id="linearGradient3699-8">
      <stop
         style="stop-color:#fff894;stop-opacity:1;"
         offset="0"
         id="stop3701-8" />
      <stop
         id="stop4084"
         offset="0.80000001"
         style="stop-color:#ffc822;stop-opacity:1;" />
      <stop
         style="stop-color:#ffb400;stop-opacity:1;"
         offset="1"
         id="stop3703-4" />
    </linearGradient>
    <clipPath
       clipPathUnits="userSpaceOnUse"
       id="clipPath4303">
      <path
         sodipodi:type="arc"
         style="color:#000000;fill:#ff0000;fill-opacity:1;fill-rule:nonzero;stroke:none;stroke-width:1.5;marker:none;visibility:visible;display:inline;overflow:visible;enable-background:accumulate"
         id="path4305"
         sodipodi:cx="64"
         sodipodi:cy="32"
         sodipodi:rx="32"
         sodipodi:ry="32"
         d="m 96,32 a 32,32 0 1 1 -64,0 32,32 0 1 1 64,0 z"
         transform="matrix(0.84375003,0,0,0.84375003,-6.000001,14.000003)" />
    </clipPath>
    <radialGradient
       inkscape:collect="always"
       xlink:href="#linearGradient4271"
       id="radialGradient4508"
       gradientUnits="userSpaceOnUse"
       gradientTransform="matrix(1,0,0,1.0689655,0,-3.0472483)"
       cx="57.033619"
       cy="44.185143"
       fx="57.033619"
       fy="44.185143"
       r="10.810294" />
    <linearGradient
       inkscape:collect="always"
       id="linearGradient4271">
      <stop
         style="stop-color:#ff6600;stop-opacity:1;"
         offset="0"
         id="stop4273" />
      <stop
         style="stop-color:#ff6600;stop-opacity:0;"
         offset="1"
         id="stop4275" />
    </linearGradient>
    <radialGradient
       inkscape:collect="always"
       xlink:href="#linearGradient4271"
       id="radialGradient4510"
       gradientUnits="userSpaceOnUse"
       gradientTransform="matrix(1,0,0,1.0689655,0,-3.0472483)"
       cx="57.033619"
       cy="44.185143"
       fx="57.033619"
       fy="44.185143"
       r="10.810294" />
    <radialGradient
       inkscape:collect="always"
       xlink:href="#linearGradient4271"
       id="radialGradient4512"
       gradientUnits="userSpaceOnUse"
       gradientTransform="matrix(1,0,0,1.0689655,0,-3.0472483)"
       cx="57.033619"
       cy="44.185143"
       fx="57.033619"
       fy="44.185143"
       r="10.810294" />
    <radialGradient
       inkscape:collect="always"
       xlink:href="#linearGradient4271"
       id="radialGradient4514"
       gradientUnits="userSpaceOnUse"
       gradientTransform="matrix(1,0,0,1.0689655,0,-3.0472483)"
       cx="57.033619"
       cy="44.185143"
       fx="57.033619"
       fy="44.185143"
       r="10.810294" />
    <linearGradient
       inkscape:collect="always"
       xlink:href="#linearGradient4090"
       id="linearGradient4516"
       gradientUnits="userSpaceOnUse"
       x1="64.995598"
       y1="-0.90906203"
       x2="64.995598"
       y2="55.535763" />
    <linearGradient
       inkscape:collect="always"
       id="linearGradient4090">
      <stop
         style="stop-color:#ffffff;stop-opacity:1;"
         offset="0"
         id="stop4092" />
      <stop
         style="stop-color:#ffffff;stop-opacity:0;"
         offset="1"
         id="stop4094" />
    </linearGradient>
    <filter
       color-interpolation-filters="sRGB"
       inkscape:collect="always"
       id="filter4421"
       x="-0.11751841"
       width="1.2350368"
       y="-0.12003421"
       height="1.2400684">
      <feGaussianBlur
         inkscape:collect="always"
         stdDeviation="0.56854841"
         id="feGaussianBlur4423" />
    </filter>
    <filter
       color-interpolation-filters="sRGB"
       inkscape:collect="always"
       id="filter4425"
       x="-0.13546811"
       width="1.2709363"
       y="-0.12851021"
       height="1.2570204">
      <feGaussianBlur
         inkscape:collect="always"
         stdDeviation="0.56854841"
         id="feGaussianBlur4427" />
    </filter>
    <filter
       color-interpolation-filters="sRGB"
       inkscape:collect="always"
       id="filter4429">
      <feGaussianBlur
         inkscape:collect="always"
         stdDeviation="0.56854841"
         id="feGaussianBlur4431" />
    </filter>
    <filter
       color-interpolation-filters="sRGB"
       inkscape:collect="always"
       id="filter4433"
       x="-0.068762444"
       width="1.1375248"
       y="-0.11615224"
       height="1.2323045">
      <feGaussianBlur
         inkscape:collect="always"
         stdDeviation="0.56854841"
         id="feGaussianBlur4435" />
    </filter>
    <filter
       color-interpolation-filters="sRGB"
       inkscape:collect="always"
       id="filter4437">
      <feGaussianBlur
         inkscape:collect="always"
         stdDeviation="0.56854841"
         id="feGaussianBlur4439" />
    </filter>
    <filter
       color-interpolation-filters="sRGB"
       inkscape:collect="always"
       id="filter4441">
      <feGaussianBlur
         inkscape:collect="always"
         stdDeviation="0.56854841"
         id="feGaussianBlur4443" />
    </filter>
    <filter
       color-interpolation-filters="sRGB"
       inkscape:collect="always"
       id="filter4445">
      <feGaussianBlur
         inkscape:collect="always"
         stdDeviation="0.56854841"
         id="feGaussianBlur4447" />
    </filter>
    <filter
       color-interpolation-filters="sRGB"
       inkscape:collect="always"
       id="filter4449"
       x="-0.073074818"
       width="1.1461496"
       y="-0.10019269"
       height="1.2003855">
      <feGaussianBlur
         inkscape:collect="always"
         stdDeviation="0.56854841"
         id="feGaussianBlur4451" />
    </filter>
    <filter
       color-interpolation-filters="sRGB"
       inkscape:collect="always"
       id="filter4453">
      <feGaussianBlur
         inkscape:collect="always"
         stdDeviation="0.56854841"
         id="feGaussianBlur4455" />
    </filter>
    <filter
       color-interpolation-filters="sRGB"
       inkscape:collect="always"
       id="filter4457">
      <feGaussianBlur
         inkscape:collect="always"
         stdDeviation="0.56854841"
         id="feGaussianBlur4459" />
    </filter>
    <filter
       color-interpolation-filters="sRGB"
       inkscape:collect="always"
       id="filter4461"
       x="-0.10343797"
       width="1.2068759"
       y="-0.21036677"
       height="1.4207335">
      <feGaussianBlur
         inkscape:collect="always"
         stdDeviation="0.5685484"
         id="feGaussianBlur4463" />
    </filter>
    <filter
       color-interpolation-filters="sRGB"
       inkscape:collect="always"
       id="filter4465"
       x="-0.071041182"
       width="1.1420825"
       y="-0.11023861"
       height="1.2204772">
      <feGaussianBlur
         inkscape:collect="always"
         stdDeviation="0.5685484"
         id="feGaussianBlur4467" />
    </filter>
    <filter
       color-interpolation-filters="sRGB"
       inkscape:collect="always"
       id="filter4469">
      <feGaussianBlur
         inkscape:collect="always"
         stdDeviation="0.5685484"
         id="feGaussianBlur4471" />
    </filter>
    <filter
       color-interpolation-filters="sRGB"
       inkscape:collect="always"
       id="filter4473"
       x="-0.070044853"
       width="1.1400898"
       y="-0.12051222"
       height="1.2410244">
      <feGaussianBlur
         inkscape:collect="always"
         stdDeviation="0.56854841"
         id="feGaussianBlur4475" />
    </filter>
    <linearGradient
       inkscape:collect="always"
       xlink:href="#linearGradient3700-7"
       id="linearGradient3617-5"
       gradientUnits="userSpaceOnUse"
       x1="48"
       y1="90"
       x2="48"
       y2="5.9877172" />
    <linearGradient
       id="linearGradient3700-7">
      <stop
         style="stop-color:#2a76bd;stop-opacity:1;"
         offset="0"
         id="stop3702-4" />
      <stop
         style="stop-color:#68b0f4;stop-opacity:1;"
         offset="1"
         id="stop3704-1" />
    </linearGradient>
    <linearGradient
       y2="5.9877172"
       x2="48"
       y1="90"
       x1="48"
       gradientUnits="userSpaceOnUse"
       id="linearGradient3324"
       xlink:href="#linearGradient3700-7"
       inkscape:collect="always" />
    <clipPath
       clipPathUnits="userSpaceOnUse"
       id="clipPath3301">
      <rect
         ry="6"
         rx="6"
         y="6"
         x="6"
         height="80"
         width="84"
         id="rect3303"
         style="fill:#ff00ff;fill-opacity:1;fill-rule:nonzero;stroke:none;display:inline" />
    </clipPath>
  </defs>
  <sodipodi:namedview
     id="base"
     pagecolor="#818181"
     bordercolor="#ffb1b1"
     borderopacity="1"
     inkscape:pageopacity="1"
     inkscape:pageshadow="2"
     inkscape:zoom="4.6803524"
     inkscape:cx="-9.0654541"
     inkscape:cy="33.89151"
     inkscape:document-units="px"
     inkscape:current-layer="layer6"
     showgrid="true"
     showborder="true"
     inkscape:showpageshadow="false"
     inkscape:window-width="1920"
     inkscape:window-height="1030"
     inkscape:window-x="0"
     inkscape:window-y="25"
     inkscape:window-maximized="1"
     borderlayer="true">
    <inkscape:grid
       type="xygrid"
       id="grid3732"
       visible="true"
       enabled="true"
       empspacing="8"
       snapvisiblegridlinesonly="true" />
  </sodipodi:namedview>
  <metadata
     id="metadata2413">
    <rdf:RDF>
      <cc:Work
         rdf:about="">
        <dc:format>image/svg+xml</dc:format>
        <dc:type
           rdf:resource="http://purl.org/dc/dcmitype/StillImage" />
        <dc:title></dc:title>
      </cc:Work>
    </rdf:RDF>
  </metadata>
  <g
     inkscape:groupmode="layer"
     id="layer2"
     inkscape:label="Blur Shadow"
     style="display:none"
     sodipodi:insensitive="true">
    <rect
       style="opacity:0.9;fill:url(#ButtonShadow);fill-opacity:1;fill-rule:nonzero;stroke:none;filter:url(#filter3174)"
       id="rect3745"
       width="86"
       height="85"
       x="5"
       y="7"
       rx="6"
       ry="6" />
  </g>
  <g
     inkscape:groupmode="layer"
     id="layer3"
     inkscape:label="Shadow"
     style="display:inline"
     sodipodi:insensitive="true">
    <path
       sodipodi:type="inkscape:offset"
       inkscape:radius="0.99097413"
       inkscape:original="M 12 -94.03125 C 7.028367 -94.03125 2.96875 -89.971633 2.96875 -85 L 2.96875 -14 C 2.96875 -9.0283671 7.0283671 -4.96875 12 -4.96875 L 84 -4.96875 C 88.971633 -4.96875 93.03125 -9.028367 93.03125 -14 L 93.03125 -85 C 93.03125 -89.971633 88.971633 -94.03125 84 -94.03125 L 12 -94.03125 z "
       style="opacity:0.07999998;fill:url(#linearGradient3026);fill-opacity:1;fill-rule:nonzero;stroke:none;display:inline"
       id="path3786"
       d="m 12,-95.03125 c -5.5110903,0 -10.03125,4.52016 -10.03125,10.03125 l 0,71 c 0,5.5110902 4.5201598,10.03125 10.03125,10.03125 l 72,0 c 5.51109,0 10.03125,-4.5201597 10.03125,-10.03125 l 0,-71 c 0,-5.51109 -4.52016,-10.03125 -10.03125,-10.03125 l -72,0 z"
       transform="scale(1,-1)" />
    <path
       sodipodi:type="inkscape:offset"
       inkscape:radius="1.0360184"
       inkscape:original="M 12 -93 C 7.5908667 -93 4 -89.409133 4 -85 L 4 -14 C 4 -9.5908667 7.5908667 -6 12 -6 L 84 -6 C 88.409133 -6 92 -9.5908667 92 -14 L 92 -85 C 92 -89.409133 88.409133 -93 84 -93 L 12 -93 z "
       style="opacity:0.1;fill:url(#linearGradient3780);fill-opacity:1;fill-rule:nonzero;stroke:none;display:inline"
       id="path3778"
       d="m 12,-94.03125 c -4.971633,0 -9.03125,4.059617 -9.03125,9.03125 l 0,71 c 0,4.9716329 4.0596171,9.03125 9.03125,9.03125 l 72,0 c 4.971633,0 9.03125,-4.059617 9.03125,-9.03125 l 0,-71 c 0,-4.971633 -4.059617,-9.03125 -9.03125,-9.03125 l -72,0 z"
       transform="scale(1,-1)" />
    <path
       sodipodi:type="inkscape:offset"
       inkscape:radius="0.98962283"
       inkscape:original="M 12 -92 C 8.122 -92 5 -88.878 5 -85 L 5 -14 C 5 -10.122 8.122 -7 12 -7 L 84 -7 C 87.878 -7 91 -10.122 91 -14 L 91 -85 C 91 -88.878 87.878 -92 84 -92 L 12 -92 z "
       style="opacity:0.2;fill:url(#linearGradient3772);fill-opacity:1;fill-rule:nonzero;stroke:none;display:inline"
       id="path3770"
       d="m 12,-93 c -4.4091333,0 -8,3.590867 -8,8 l 0,71 c 0,4.4091333 3.5908667,8 8,8 l 72,0 c 4.409133,0 8,-3.5908667 8,-8 l 0,-71 c 0,-4.409133 -3.590867,-8 -8,-8 l -72,0 z"
       transform="scale(1,-1)" />
    <rect
       style="opacity:0.3;fill:url(#linearGradient3725);fill-opacity:1;fill-rule:nonzero;stroke:none;display:inline"
       id="rect3723"
       width="86"
       height="85"
       x="5"
       y="-92"
       rx="7"
       ry="7"
       transform="scale(1,-1)" />
    <rect
       transform="scale(1,-1)"
       ry="6"
       rx="6"
       y="-91"
       x="6"
       height="84"
       width="84"
       id="rect3716"
       style="opacity:0.45;fill:url(#linearGradient3721);fill-opacity:1;fill-rule:nonzero;stroke:none;display:inline" />
  </g>
  <g
     inkscape:label="Button"
     inkscape:groupmode="layer"
     id="layer1"
     sodipodi:insensitive="true">
    <rect
       style="fill:url(#linearGradient3324);fill-opacity:1;fill-rule:nonzero;stroke:none;display:inline"
       id="rect2419-8"
       width="84"
       height="84"
       x="6"
       y="6"
       rx="6"
       ry="6" />
    <path
       style="opacity:0.2;fill:url(#radialGradient4375);fill-opacity:1;fill-rule:nonzero;stroke:none"
       d="M 120.78125,6.125 C 118.04223,6.6826484 116,9.0915 116,12 l 0,68 c 0,3.324 2.676,6 6,6 l 72,0 c 3.324,0 6,-2.676 6,-6 l 0,-68 c 0,-2.9085 -2.04223,-5.3173516 -4.78125,-5.875 2.20512,0.5362071 3.8125,2.4908437 3.8125,4.875 l 0,68 c 0,2.80489 -2.22636,5.03125 -5.03125,5.03125 l -72,0 c -2.80489,0 -5.03125,-2.22636 -5.03125,-5.03125 l 0,-68 c 0,-2.3841563 1.60738,-4.3387929 3.8125,-4.875 z"
       id="rect4359"
       inkscape:connector-curvature="0" />
    <path
       style="opacity:0.3;fill:url(#linearGradient4390);fill-opacity:1;fill-rule:nonzero;stroke:none"
       d="M 12,86 C 8.676,86 6,83.324 6,80 L 6,12 C 6,8.676 8.676,6 12,6 l 72,0 c 3.324,0 6,2.676 6,6 l 0,68 c 0,3.324 -2.676,6 -6,6 z m 0,-0.96875 72,0 c 2.80489,0 5.03125,-2.22636 5.03125,-5.03125 l 0,-68 C 89.03125,9.19511 86.80489,6.96875 84,6.96875 l -72,0 C 9.1951102,6.96875 6.96875,9.19511 6.96875,12 l 0,68 c 0,2.80489 2.2263602,5.03125 5.03125,5.03125 z"
       id="rect4377"
       inkscape:connector-curvature="0"
       sodipodi:nodetypes="ssssssssssssssssss" />
    <path
       style="opacity:0.1;fill:url(#linearGradient4429);fill-opacity:1;fill-rule:nonzero;stroke:none"
       d="m 6,78 0,2 c 0,3.324 2.676,6 6,6 l 72,0 c 3.324,0 6,-2.676 6,-6 l 0,-2 c 0,3.324 -2.676,6 -6,6 L 12,84 C 8.676,84 6,81.324 6,78 z"
       id="rect4414"
       inkscape:connector-curvature="0" />
    <path
       id="path4412"
       d="m 6,100 0,1 c 0,3.324 2.676,6 6,6 l 72,0 c 3.324,0 6,-2.676 6,-6 l 0,-1 c 0,3.324 -2.676,6 -6,6 l -72,0 c -3.324,0 -6,-2.676 -6,-6 z"
       style="opacity:0.15;fill:#000000;fill-opacity:1;fill-rule:nonzero;stroke:none"
       inkscape:connector-curvature="0" />
  </g>
  <g
     inkscape:groupmode="layer"
     id="layer4"
     inkscape:label="Bottom Edge"
     style="display:inline"
     sodipodi:insensitive="true">
    <path
       inkscape:connector-curvature="0"
       id="path3888"
       d="m 6,80 0,4 c 0,3.324 2.676,6 6,6 l 72,0 c 3.324,0 6,-2.676 6,-6 l 0,-4 c 0,3.324 -2.676,6 -6,6 L 12,86 C 8.676,86 6,83.324 6,80 z"
       style="fill:url(#linearGradient3228);fill-opacity:1;fill-rule:nonzero;stroke:none;display:inline" />
    <path
       style="opacity:0.1;color:#000000;fill:#000000;fill-opacity:1;fill-rule:nonzero;stroke:none;stroke-width:1.5;marker:none;visibility:visible;display:inline;overflow:visible;enable-background:accumulate"
       d="m 6,82 0,2 c 0,3.324 2.676,6 6,6 l 72,0 c 3.324,0 6,-2.676 6,-6 l 0,-2 c 0,3.324 -2.676,6 -6,6 L 12,88 C 8.676,88 6,85.324 6,82 z"
       id="rect4345"
       inkscape:connector-curvature="0" />
    <path
       style="opacity:0.15;color:#000000;fill:#000000;fill-opacity:1;fill-rule:nonzero;stroke:none;stroke-width:1.5;marker:none;visibility:visible;display:inline;overflow:visible;enable-background:accumulate"
       d="m 6,83 0,1 c 0,3.324 2.676,6 6,6 l 72,0 c 3.324,0 6,-2.676 6,-6 l 0,-1 c 0,3.324 -2.676,6 -6,6 L 12,89 C 8.676,89 6,86.324 6,83 z"
       id="rect4336"
       inkscape:connector-curvature="0" />
  </g>
  <g
     inkscape:groupmode="layer"
     id="layer5"
     inkscape:label="Highlight"
     sodipodi:insensitive="true"
     style="display:inline">
    <rect
       style="opacity:0.1;fill:url(#linearGradient3613);fill-opacity:1;fill-rule:nonzero;stroke:#ffffff;stroke-width:0.5;stroke-linecap:round;stroke-linejoin:miter;stroke-miterlimit:4;stroke-opacity:1;stroke-dasharray:none;stroke-dashoffset:0;filter:url(#filter3794)"
       id="rect3171"
       width="66"
       height="62"
       x="15"
       y="15"
       rx="12"
       ry="12"
       clip-path="url(#clipPath4355)" />
  </g>
  <g
     inkscape:groupmode="layer"
     id="layer6"
     inkscape:label="Sun">
    <g
       id="g4477"
       clip-path="url(#clipPath3301)">
      <path
         inkscape:connector-curvature="0"
         sodipodi:nodetypes="ccccccccccccccccccccccccccccccccccccccccc"
         id="path3663"
         d="M 72.83281,-1.475796 58.495964,29.568774 85.88133,9.090686 62.65288,34.185497 95.02599,23.172223 65.179697,39.86082 99.37164,39.390416 65.829071,46.039202 98.49291,56.157713 64.537437,52.115859 92.4758,71.832817 61.43123,57.495968 81.90932,84.881338 56.814507,61.652884 65.072606,87.925251 51.139184,64.179701 50.625597,96.60046 44.960802,64.829075 36.219879,93.16335 38.884145,63.537441 22.906353,83.800673 33.504036,60.431234 1.985903,85.63248 29.34712,55.814511 -3.025992,66.827785 26.820303,50.139188 1.877873,49.428803 26.170929,43.960806 -4.721724,34.43269 27.462563,37.884149 7.002533,23.87434 30.56877,32.50404 10.090682,5.11867 35.185493,28.347124 24.172219,-4.025988 40.860816,25.820307 40.390412,-8.37164 47.039198,25.170933 57.157709,-7.492904 53.115855,26.462567 72.83281,-1.475796 z"
         style="opacity:0.3;color:#000000;fill:url(#radialGradient4524);fill-opacity:1;fill-rule:nonzero;stroke:none;stroke-width:1.5;marker:none;visibility:visible;display:inline;overflow:visible;enable-background:accumulate" />
      <path
         transform="translate(-16,12.000004)"
         d="M 98.641016,52 83.98731,45.995265 94.641778,57.711505 81.253405,49.253405 89.711504,62.641778 77.995265,51.98731 84,66.641016 74.311885,54.11391 77.680806,69.587705 70.315185,55.56859 70.945927,71.39231 66.1266,56.30715 64,72 61.8734,56.30715 57.054073,71.39231 57.684815,55.56859 50.319194,69.587705 53.688115,54.11391 44,66.641016 50.004735,51.98731 38.288495,62.641778 46.746595,49.253405 33.358222,57.711504 44.01269,45.995265 29.358984,52 41.88609,42.311885 26.412295,45.680806 40.43141,38.315185 24.60769,38.945927 39.69285,34.1266 24,32 39.69285,29.8734 24.60769,25.054073 40.43141,25.684815 26.412295,18.319194 41.88609,21.688115 29.358984,12 44.01269,18.004735 33.358222,6.2884955 46.746595,14.746595 38.288496,1.3582222 50.004735,12.01269 44,-2.6410162 53.688115,9.8860903 50.319194,-5.5877049 57.684815,8.4314102 57.054073,-7.3923102 61.8734,7.6928497 64,-8 66.1266,7.6928498 70.945927,-7.3923101 70.315185,8.4314102 77.680806,-5.5877048 74.311885,9.8860904 84,-2.6410161 77.995265,12.01269 89.711505,1.3582224 81.253405,14.746595 94.641778,6.2884957 83.98731,18.004735 98.641016,12 86.11391,21.688115 101.5877,18.319194 87.56859,25.684815 103.39231,25.054073 88.30715,29.8734 104,32 88.30715,34.1266 103.39231,38.945927 87.56859,38.315185 101.5877,45.680806 86.11391,42.311885 z"
         inkscape:randomized="0"
         inkscape:rounded="1.7347235e-17"
         inkscape:flatsided="false"
         sodipodi:arg2="0.61086524"
         sodipodi:arg1="0.52359878"
         sodipodi:r2="24.4"
         sodipodi:r1="40"
         sodipodi:cy="32"
         sodipodi:cx="64"
         sodipodi:sides="36"
         id="path3760"
         style="opacity:0.8;color:#000000;fill:url(#radialGradient4522);fill-opacity:1;fill-rule:nonzero;stroke:none;stroke-width:1.5;marker:none;visibility:visible;display:inline;overflow:visible;enable-background:accumulate"
         sodipodi:type="star" />
      <path
         transform="matrix(1.03125,0,0,1.03125,-17.999996,10.000006)"
         d="M 96,32 C 96,49.673112 81.673112,64 64,64 46.326888,64 32,49.673112 32,32 32,14.326888 46.326888,0 64,0 81.673112,0 96,14.326888 96,32 z"
         sodipodi:ry="32"
         sodipodi:rx="32"
         sodipodi:cy="32"
         sodipodi:cx="64"
         id="path3651"
         style="color:#000000;fill:url(#radialGradient4520);fill-opacity:1;fill-rule:nonzero;stroke:none;stroke-width:1.5;marker:none;visibility:visible;display:inline;overflow:visible;enable-background:accumulate"
         sodipodi:type="arc" />
      <path
         sodipodi:type="arc"
         style="color:#000000;fill:url(#radialGradient4518);fill-opacity:1;fill-rule:nonzero;stroke:none;stroke-width:1.5;marker:none;visibility:visible;display:inline;overflow:visible;enable-background:accumulate"
         id="path3695"
         sodipodi:cx="64"
         sodipodi:cy="32"
         sodipodi:rx="32"
         sodipodi:ry="32"
         d="M 96,32 C 96,49.673112 81.673112,64 64,64 46.326888,64 32,49.673112 32,32 32,14.326888 46.326888,0 64,0 81.673112,0 96,14.326888 96,32 z"
         transform="matrix(0.84375003,0,0,0.84375003,-6.000001,16.000003)" />
      <path
         inkscape:connector-curvature="0"
         id="path3695-8"
         d="m 48,16.000004 c -14.911689,0 -27,12.088311 -27,27 0,14.911689 12.088311,27 27,27 14.911689,0 27,-12.088311 27,-27 0,-14.911689 -12.088311,-27 -27,-27 z m 0,1 c 14.359403,0 26,11.640597 26,26 0,14.359403 -11.640597,26 -26,26 -14.359403,0 -26,-11.640597 -26,-26 0,-14.359403 11.640597,-26 26,-26 z"
         style="color:#000000;fill:#ffc000;fill-opacity:1;fill-rule:nonzero;stroke:none;stroke-width:1.5;marker:none;visibility:visible;display:inline;overflow:visible;enable-background:accumulate" />
      <g
         clip-path="url(#clipPath4303)"
         id="g4295"
         transform="translate(0,2)">
        <path
           sodipodi:type="arc"
           style="opacity:0.3;color:#000000;fill:url(#radialGradient4508);fill-opacity:1;fill-rule:nonzero;stroke:none;stroke-width:1.5;marker:none;visibility:visible;display:inline;overflow:visible;enable-background:accumulate"
           id="path4269"
           sodipodi:cx="57.033619"
           sodipodi:cy="44.185143"
           sodipodi:rx="10.810294"
           sodipodi:ry="11.555831"
           d="m 67.843913,44.185143 c 0,6.382109 -4.839933,11.55583 -10.810294,11.55583 -5.970361,0 -10.810294,-5.173721 -10.810294,-11.55583 0,-6.38211 4.839933,-11.555831 10.810294,-11.555831 5.970361,0 10.810294,5.173721 10.810294,11.555831 z"
           transform="matrix(1.3218391,0,0,1.3218391,-14.876472,-17.939623)" />
        <path
           transform="matrix(1.0422692,0,0,1.0422692,-26.556559,-5.5867866)"
           d="m 67.843913,44.185143 c 0,6.382109 -4.839933,11.55583 -10.810294,11.55583 -5.970361,0 -10.810294,-5.173721 -10.810294,-11.55583 0,-6.38211 4.839933,-11.555831 10.810294,-11.555831 5.970361,0 10.810294,5.173721 10.810294,11.555831 z"
           sodipodi:ry="11.555831"
           sodipodi:rx="10.810294"
           sodipodi:cy="44.185143"
           sodipodi:cx="57.033619"
           id="path4279"
           style="opacity:0.3;color:#000000;fill:url(#radialGradient4510);fill-opacity:1;fill-rule:nonzero;stroke:none;stroke-width:1.5;marker:none;visibility:visible;display:inline;overflow:visible;enable-background:accumulate"
           sodipodi:type="arc" />
        <path
           sodipodi:type="arc"
           style="opacity:0.3;color:#000000;fill:url(#radialGradient4512);fill-opacity:1;fill-rule:nonzero;stroke:none;stroke-width:1.5;marker:none;visibility:visible;display:inline;overflow:visible;enable-background:accumulate"
           id="path4283"
           sodipodi:cx="57.033619"
           sodipodi:cy="44.185143"
           sodipodi:rx="10.810294"
           sodipodi:ry="11.555831"
           d="m 67.843913,44.185143 c 0,6.382109 -4.839933,11.55583 -10.810294,11.55583 -5.970361,0 -10.810294,-5.173721 -10.810294,-11.55583 0,-6.38211 4.839933,-11.555831 10.810294,-11.555831 5.970361,0 10.810294,5.173721 10.810294,11.555831 z"
           transform="matrix(1.4508714,0,0,1.4508714,-43.952434,-36.066556)" />
        <path
           transform="matrix(1.9221358,0,0,1.6981832,-48.091452,-49.354932)"
           d="m 67.843913,44.185143 c 0,6.382109 -4.839933,11.55583 -10.810294,11.55583 -5.970361,0 -10.810294,-5.173721 -10.810294,-11.55583 0,-6.38211 4.839933,-11.555831 10.810294,-11.555831 5.970361,0 10.810294,5.173721 10.810294,11.555831 z"
           sodipodi:ry="11.555831"
           sodipodi:rx="10.810294"
           sodipodi:cy="44.185143"
           sodipodi:cx="57.033619"
           id="path4287"
           style="opacity:0.3;color:#000000;fill:url(#radialGradient4514);fill-opacity:1;fill-rule:nonzero;stroke:none;stroke-width:1.5;marker:none;visibility:visible;display:inline;overflow:visible;enable-background:accumulate"
           sodipodi:type="arc" />
      </g>
      <path
         transform="matrix(0.58747152,0,0,0.37002308,10.401824,18.73364)"
         d="M 96,32 C 96,49.673112 81.673112,64 64,64 46.326888,64 32,49.673112 32,32 32,14.326888 46.326888,0 64,0 81.673112,0 96,14.326888 96,32 z"
         sodipodi:ry="32"
         sodipodi:rx="32"
         sodipodi:cy="32"
         sodipodi:cx="64"
         id="path4086"
         style="opacity:0.5;color:#000000;fill:url(#linearGradient4516);fill-opacity:1;fill-rule:nonzero;stroke:none;stroke-width:1.5;marker:none;visibility:visible;display:inline;overflow:visible;enable-background:accumulate"
         sodipodi:type="arc" />
      <path
         inkscape:connector-curvature="0"
         id="path4337"
         d="m 24.8096,39.35105 c -0.486437,1.523676 0.0317,3.832207 1.873425,3.538622 1.077406,2.367083 -3.418682,3.028306 -2.45647,5.528441 0.390688,1.418612 2.462669,1.209646 1.542332,-0.444994 -0.274639,-2.100499 2.995175,-2.623043 2.999677,-0.281949 0.913693,1.612732 3.710035,2.717817 4.91407,0.846968 0.85384,-1.440377 -3.404403,-3.483763 -0.650318,-4.177487 2.547972,0.770365 3.537643,-2.50797 1.788276,-4.017132 -1.251246,-1.460564 -2.791804,0.09474 -3.100418,1.385872 -2.124936,1.495584 -4.440665,-0.981566 -4.19277,-3.068597 -0.75242,-0.953442 -2.491237,-0.48632 -2.717804,0.690256 z"
         style="opacity:0.07000002;fill:#ff6600;stroke:none;filter:url(#filter4421)" />
      <path
         inkscape:connector-curvature="0"
         id="path4339"
         d="m 41.211425,51.528162 c -1.140292,-1.575846 -2.314247,-4.741446 0.0246,-5.79161 2.394181,-0.669098 3.112004,2.302608 4.929997,2.944427 2.067223,0.09268 2.898693,1.705675 2.570029,3.544564 0.312424,1.426612 2.528382,3.15799 0.0925,3.94749 -1.677517,0.437833 -3.834764,-0.888012 -3.602076,-2.763831 0.04456,-2.121611 -2.241063,-2.205062 -3.585446,-1.506463 l -0.247153,-0.143804 -0.182455,-0.230773 0,0 z"
         style="opacity:0.07000002;fill:#ff6600;stroke:none;filter:url(#filter4425)" />
      <path
         inkscape:connector-curvature="0"
         id="path4341"
         d="m 31.270925,47.551962 c 2.067551,-0.470399 1.592808,-3.472738 3.44449,-4.141974 2.745902,0.544454 1.790062,4.163181 1.64083,6.165841 1.332023,1.968434 5.786664,0.474897 5.545368,3.700317 -0.428768,2.635469 1.508023,4.738719 1.82601,7.109089 -0.60003,2.643451 -4.945781,2.957873 -5.519638,0.110032 -1.142766,-2.169543 3.333377,-3.8415 0.382194,-5.469574 -1.889743,-0.83289 -4.549187,-2.114942 -6.029042,0.08389 -1.473276,1.946846 -4.445144,-0.129293 -4.128269,-2.17889 0.296978,-2.1872 5.120429,-0.812256 3.945563,-3.552061 -0.348713,-0.568152 -1.797441,-0.985101 -1.107506,-1.826673 z"
         style="opacity:0.07000002;fill:#ff6600;stroke:none;filter:url(#filter4429)" />
      <path
         inkscape:connector-curvature="0"
         id="path4343"
         d="m 34.004562,59.480562 c -1.916224,-0.985718 -2.800531,-4.922209 0.05414,-5.153051 2.184612,-0.07762 2.94969,2.589224 2.632208,4.359453 -0.258367,2.680317 3.684131,2.982919 5.16886,1.363 2.248605,-0.159205 4.171287,3.201028 6.380086,1.166407 1.006212,-0.753628 2.779377,-3.588743 3.833278,-1.923997 -0.65567,1.679783 -3.771871,2.221793 -2.832023,4.560821 -0.293617,2.284271 -3.30646,2.691912 -5.009291,1.742205 -1.531658,-1.004161 -3.323503,-4.115971 -5.241896,-1.905629 -1.795596,1.424613 -4.894233,-0.232303 -4.59639,-2.535132 -0.108318,-0.562421 -0.202472,-1.130729 -0.388971,-1.674077 z"
         style="opacity:0.07000002;fill:#ff6600;stroke:none;filter:url(#filter4433)" />
      <path
         inkscape:connector-curvature="0"
         id="path4345"
         d="m 57.861762,41.587662 c 1.691568,-0.386605 3.760001,-1.103698 5.252729,0.176942 1.622722,1.210354 0.947171,3.438271 1.465562,5.120212 1.075407,1.578792 2.868092,2.630145 3.39028,4.572528 0.549496,1.212388 1.005368,3.054703 -0.32076,3.936525 -1.679306,0.734234 -4.202379,0.786409 -5.202101,-1.039087 -1.295525,-1.324531 -1.38772,-3.392638 -2.484647,-4.736939 -1.879758,-0.59972 -3.943699,-0.114816 -5.855587,-0.794802 -1.655022,-0.183075 -3.172518,-1.722392 -2.722232,-3.446173 0.575059,-2.293314 3.030965,-3.732148 5.311456,-3.648082 0.390498,-0.02534 0.782142,-0.05803 1.165301,-0.141124 z"
         style="opacity:0.07000002;fill:#ff6600;stroke:none;filter:url(#filter4437)" />
      <path
         inkscape:connector-curvature="0"
         style="opacity:0.07000002;fill:#ff6600;stroke:none;filter:url(#filter4441)"
         d="m 34.875138,37.544195 c 1.691567,-0.386605 3.760001,-1.103699 5.252728,0.176942 1.622723,1.210353 0.947172,3.438271 1.465562,5.120212 1.075407,1.578792 2.868092,2.630145 3.39028,4.572528 0.549496,1.212388 1.005368,3.054703 -0.32076,3.936525 -1.679306,0.734233 -4.202379,0.786408 -5.202101,-1.039088 -1.295525,-1.32453 -1.38772,-3.392637 -2.484647,-4.736939 -1.879758,-0.59972 -3.943699,-0.114816 -5.855587,-0.794802 -1.655022,-0.183074 -3.172518,-1.722392 -2.722232,-3.446173 0.575059,-2.293314 3.030965,-3.732148 5.311456,-3.648081 0.390498,-0.02534 0.782142,-0.05803 1.165301,-0.141124 z"
         id="path4347" />
      <path
         inkscape:connector-curvature="0"
         transform="matrix(-0.43764358,0.89914854,-0.89914854,-0.43764358,125.09656,15.560182)"
         style="opacity:0.07000002;fill:#ff6600;stroke:none;filter:url(#filter4445)"
         d="m 55.418287,42.072787 c -1.916224,-0.985718 -2.800531,-4.922209 0.05414,-5.153051 2.184612,-0.07762 2.94969,2.589224 2.632208,4.359453 -0.258367,2.680317 3.684131,2.982919 5.16886,1.363 2.248605,-0.159205 4.171287,3.201028 6.380086,1.166407 1.006212,-0.753628 2.779377,-3.588743 3.833278,-1.923997 -0.65567,1.679783 -3.771871,2.221793 -2.832023,4.560821 -0.293617,2.284271 -3.30646,2.691912 -5.009291,1.742205 -1.531658,-1.004161 -3.323503,-4.115971 -5.241896,-1.905629 -1.795596,1.424613 -4.894233,-0.232303 -4.59639,-2.535132 -0.108318,-0.562421 -0.202472,-1.130729 -0.388971,-1.674077 z"
         id="path4349" />
      <path
         inkscape:connector-curvature="0"
         transform="matrix(-0.97170735,0.23618812,-0.23618812,-0.97170735,124.59643,78.075132)"
         id="path4351"
         d="m 63.495725,27.343283 c 1.691567,-0.386605 3.760002,-1.103699 5.252728,0.176942 1.622723,1.210353 0.947173,3.438271 1.465562,5.120212 1.075407,1.578792 2.868092,2.630145 3.39028,4.572528 0.549496,1.212388 1.005368,3.054703 -0.32076,3.936525 -1.679305,0.734233 -4.202379,0.786408 -5.202101,-1.039088 -1.295524,-1.32453 -1.38772,-3.392637 -2.484647,-4.736939 -1.879758,-0.59972 -3.943699,-0.114816 -5.855587,-0.794802 -1.655022,-0.183074 -3.172518,-1.722392 -2.722232,-3.446173 0.575059,-2.293314 3.030965,-3.732148 5.311456,-3.648081 0.390498,-0.02534 0.782142,-0.05803 1.165301,-0.141124 z"
         style="opacity:0.07000002;fill:#ff6600;stroke:none;filter:url(#filter4449)" />
      <path
         inkscape:connector-curvature="0"
         style="opacity:0.07000002;fill:#ff6600;stroke:none;filter:url(#filter4453)"
         d="m 46.6787,46.806424 c 2.067551,-0.470399 1.592808,-3.472738 3.44449,-4.141974 2.745902,0.544454 1.790062,4.163181 1.64083,6.165841 1.332023,1.968434 5.786664,0.474897 5.545368,3.700317 -0.428768,2.635469 1.508023,4.738719 1.82601,7.109089 -0.60003,2.643451 -4.945781,2.957873 -5.519638,0.110032 -1.142766,-2.169543 3.333377,-3.8415 0.382194,-5.469574 -1.889743,-0.83289 -4.549187,-2.114942 -6.029042,0.08389 -1.473276,1.946846 -4.445144,-0.129293 -4.128269,-2.17889 0.296978,-2.1872 5.120429,-0.812256 3.945563,-3.552061 -0.348713,-0.568152 -1.797441,-0.985101 -1.107506,-1.826673 z"
         id="path4353" />
      <path
         inkscape:connector-curvature="0"
         transform="matrix(-0.97412445,-0.22601228,0.22601228,-0.97412445,56.552421,110.00044)"
         id="path4355"
         d="m 35.910838,43.496595 c 1.691567,-0.386605 3.760001,-1.103699 5.252728,0.176942 1.622723,1.210353 0.947172,3.438271 1.465562,5.120212 1.075407,1.578792 2.868092,2.630145 3.39028,4.572528 0.549496,1.212388 1.005368,3.054703 -0.32076,3.936525 -1.679306,0.734233 -4.202379,0.786408 -5.202101,-1.039088 -1.295525,-1.32453 -1.38772,-3.392637 -2.484647,-4.736939 -1.879758,-0.59972 -3.943699,-0.114816 -5.855587,-0.794802 -1.655022,-0.183074 -3.172518,-1.722392 -2.722232,-3.446173 0.575059,-2.293314 3.030965,-3.732148 5.311456,-3.648081 0.390498,-0.02534 0.782142,-0.05803 1.165301,-0.141124 z"
         style="opacity:0.07000002;fill:#ff6600;stroke:none;filter:url(#filter4457)" />
      <path
         inkscape:connector-curvature="0"
         transform="matrix(-0.67461244,0.73817211,-0.73817211,-0.67461244,106.62158,34.560193)"
         style="opacity:0.07000002;fill:#ff6600;stroke:none;filter:url(#filter4461)"
         d="m 57.6549,36.605512 c -1.140292,-1.575846 -2.314247,-4.741446 0.0246,-5.79161 2.394181,-0.669098 3.112004,2.302608 4.929997,2.944427 2.067223,0.09268 2.898693,1.705675 2.570029,3.544564 0.312424,1.426612 2.528382,3.15799 0.0925,3.94749 -1.677517,0.437833 -3.834764,-0.888012 -3.602076,-2.763831 0.04456,-2.121611 -2.241063,-2.205062 -3.585446,-1.506463 l -0.247153,-0.143804 -0.182455,-0.230773 0,0 z"
         id="path4357" />
      <path
         inkscape:connector-curvature="0"
         transform="matrix(-0.67461244,0.73817211,-0.73817211,-0.67461244,106.62158,34.560193)"
         style="opacity:0.07000002;fill:#ff6600;stroke:none;filter:url(#filter4465)"
         d="m 47.7144,32.629312 c 2.067551,-0.470399 1.592808,-3.472738 3.44449,-4.141974 2.745902,0.544454 1.790062,4.163181 1.64083,6.165841 1.332023,1.968434 5.786664,0.474897 5.545368,3.700317 -0.428768,2.635469 1.508023,4.738719 1.82601,7.109089 -0.60003,2.643451 -4.945781,2.957873 -5.519638,0.110032 -1.142766,-2.169543 3.333377,-3.8415 0.382194,-5.469574 -1.889743,-0.83289 -4.549187,-2.114942 -6.029042,0.08389 -1.473276,1.946846 -4.445144,-0.129293 -4.128269,-2.17889 0.296978,-2.1872 5.120429,-0.812256 3.945563,-3.552061 C 48.473193,33.88783 47.024465,33.470881 47.7144,32.629309 z"
         id="path4359" />
      <path
         inkscape:connector-curvature="0"
         transform="matrix(-0.67461244,0.73817211,-0.73817211,-0.67461244,106.62158,34.560193)"
         style="opacity:0.07000002;fill:#ff6600;stroke:none;filter:url(#filter4469)"
         d="m 50.448037,44.557912 c -1.916224,-0.985718 -2.800531,-4.922209 0.05414,-5.153051 2.184612,-0.07762 2.94969,2.589224 2.632208,4.359453 -0.258367,2.680317 3.684131,2.982919 5.16886,1.363 2.248605,-0.159205 4.171287,3.201028 6.380086,1.166407 1.006212,-0.753628 2.779377,-3.588743 3.833278,-1.923997 -0.65567,1.679783 -3.771871,2.221793 -2.832023,4.560821 -0.293617,2.284271 -3.30646,2.691912 -5.009291,1.742205 -1.531658,-1.004161 -3.323503,-4.115971 -5.241896,-1.905629 -1.795596,1.424613 -4.894233,-0.232303 -4.59639,-2.535132 -0.108318,-0.562421 -0.202472,-1.130729 -0.388971,-1.674077 z"
         id="path4361" />
      <path
         inkscape:connector-curvature="0"
         style="opacity:0.07000002;fill:#ff6600;stroke:none;filter:url(#filter4473)"
         d="m 35.910838,43.496595 c 1.691567,-0.386605 3.760001,-1.103699 5.252728,0.176942 1.622723,1.210353 0.947172,3.438271 1.465562,5.120212 1.075407,1.578792 2.868092,2.630145 3.39028,4.572528 0.549496,1.212388 1.005368,3.054703 -0.32076,3.936525 -1.679306,0.734233 -4.202379,0.786408 -5.202101,-1.039088 -1.295525,-1.32453 -1.38772,-3.392637 -2.484647,-4.736939 -1.879758,-0.59972 -3.943699,-0.114816 -5.855587,-0.794802 -1.655022,-0.183074 -3.172518,-1.722392 -2.722232,-3.446173 0.575059,-2.293314 3.030965,-3.732148 5.311456,-3.648081 0.390498,-0.02534 0.782142,-0.05803 1.165301,-0.141124 z"
         id="path4363"
         transform="matrix(0.82399243,-0.5666008,0.5666008,0.82399243,-12.806131,24.303068)" />
    </g>
  </g>
</svg>
