<svg width="16" height="16" version="1.1" xmlns="http://www.w3.org/2000/svg">
	<path d="m5.0804 12.972c-0.16814-0.016583-0.25088-0.045022-0.31115-0.10695-0.080549-0.082764-0.082573-0.10813-0.10705-1.3423l-0.024946-1.2579-0.199-0.81292-0.199-0.81292-1.0987 1.985c-0.6043 1.0918-1.1578 2.0488-1.23 2.1268-0.18322 0.19796-0.28971 0.18909-0.60561-0.050459-0.2705-0.20513-0.33116-0.30717-0.29588-0.49777 0.031784-0.17174 0.0042014-0.11954 1.2933-2.4469 0.63885-1.1534 1.1684-2.1337 1.1767-2.1784 0.012936-0.069509-0.041696-0.1124-0.37852-0.29716-0.38895-0.21336-0.39428-0.215-0.44711-0.13751-0.09385 0.13764-0.2284 0.097583-0.491-0.14617-0.36036-0.3345-0.37285-0.28067 0.42156-1.8172 0.36019-0.69665 0.69463-1.3092 0.74321-1.3612l0.088311-0.094526 3.1558-0.02195-0.053863-0.17808c-0.12547-0.41483 0.002021-0.92325 0.30723-1.2252 0.5179-0.51243 1.3499-0.34225 1.6763 0.34286 0.12301 0.25824 0.13488 0.67222 0.027694 0.96545-0.16143 0.44162-0.53748 0.70969-0.99557 0.70969-0.24122 0-0.25322 0.00415-0.23684 0.081736 0.0095 0.044956 0.069519 1.026 0.1334 2.1802 0.087422 1.5796 0.1066 2.1356 0.07756 2.2487-0.021219 0.082633-0.033109 0.1592-0.026424 0.17014 0.00665 0.010998 0.23734 0.139 0.51256 0.28457 0.32199 0.17031 0.51018 0.25041 0.52785 0.22468 0.28344-0.41304 0.80549-1.0404 0.90687-1.0898 0.10561-0.051478 0.2765-0.061174 1.077-0.061126 0.8329 5.15e-5 0.96724 0.00825 1.0781 0.066172 0.09361 0.048849 0.55779 0.63848 1.7772 2.2575 0.90779 1.2053 1.6456 2.2176 1.6396 2.2497-0.0098 0.05208-0.49257 0.05932-4.5286 0.06789-4.0843 0.0087-4.5177 0.0038-4.5177-0.04975 0-0.03265 0.49068-0.70552 1.0904-1.4953 0.59972-0.78975 1.0842-1.4413 1.0766-1.4478-0.00761-0.0066001-0.60025-0.32989-1.3171-0.71853-1.166-0.63215-1.4041-0.74061-1.4013-0.63813 4.568e-4 0.016247 0.090318 0.41193 0.19969 0.87929l0.19886 0.84974 0.00404 1.238c0.00391 1.1975 0.00159 1.2405-0.070862 1.3149-0.079639 0.08181-0.18703 0.08883-0.65363 0.04282zm1.4256-5.4577c-0.026727-0.52513-0.058759-0.99397-0.071181-1.0419-0.01753-0.067582-0.1 0.093251-0.36839 0.7184-0.1902 0.44301-0.35126 0.81642-0.35793 0.82981-0.012909 0.02593 0.805 0.47831 0.83084 0.45953 0.00839-0.0061-0.00661-0.44075-0.033334-0.96588zm-2.3673-1.5134c0.22664-0.52462 0.42326-0.98422 0.43693-1.0213 0.023041-0.062576-0.0039814-0.066708-0.37097-0.056716l-0.39582 0.010783-0.41808 0.81009c-0.22995 0.44555-0.41056 0.81781-0.40138 0.82725 0.023444 0.02408 0.69638 0.38305 0.71884 0.38346 0.010125 1.834e-4 0.20384-0.4289 0.43048-0.95352z" fill="#bebebe"/>
</svg>
