<?xml version="1.0" encoding="UTF-8" standalone="no"?>
<!-- Created with Inkscape (http://www.inkscape.org/) -->

<svg
   xmlns:dc="http://purl.org/dc/elements/1.1/"
   xmlns:cc="http://creativecommons.org/ns#"
   xmlns:rdf="http://www.w3.org/1999/02/22-rdf-syntax-ns#"
   xmlns:svg="http://www.w3.org/2000/svg"
   xmlns="http://www.w3.org/2000/svg"
   xmlns:xlink="http://www.w3.org/1999/xlink"
   xmlns:sodipodi="http://sodipodi.sourceforge.net/DTD/sodipodi-0.dtd"
   xmlns:inkscape="http://www.inkscape.org/namespaces/inkscape"
   width="16"
   height="16"
   id="svg2"
   sodipodi:version="0.32"
   inkscape:version="0.91 r13725"
   version="1.0"
   sodipodi:docname="atom.svg"
   inkscape:output_extension="org.inkscape.output.svg.inkscape"
   style="display:inline">
  <defs
     id="defs4">
    <linearGradient
       id="linearGradient4199">
      <stop
         id="stop4201"
         offset="0"
         style="stop-color:#02a170;stop-opacity:1" />
      <stop
         id="stop4203"
         offset="1"
         style="stop-color:#adde96;stop-opacity:1" />
    </linearGradient>
    <inkscape:perspective
       sodipodi:type="inkscape:persp3d"
       inkscape:vp_x="0 : 8 : 1"
       inkscape:vp_y="0 : 1000 : 0"
       inkscape:vp_z="16 : 8 : 1"
       inkscape:persp3d-origin="8 : 5.3333333 : 1"
       id="perspective35" />
    <linearGradient
       inkscape:collect="always"
       id="linearGradient3327">
      <stop
         style="stop-color:#000000;stop-opacity:1;"
         offset="0"
         id="stop3330" />
      <stop
         style="stop-color:#000000;stop-opacity:0;"
         offset="1"
         id="stop3333" />
    </linearGradient>
    <linearGradient
       id="ButtonColor"
       x1="10.31979"
       y1="21"
       x2="10.31979"
       y2="0.99929649"
       gradientUnits="userSpaceOnUse">
      <stop
         style="stop-color:#29669f;stop-opacity:1;"
         offset="0"
         id="stop3189" />
      <stop
         style="stop-color:#88b6e0;stop-opacity:1;"
         offset="1"
         id="stop3191" />
    </linearGradient>
    <linearGradient
       inkscape:collect="always"
       xlink:href="#linearGradient4199"
       id="linearGradient3204"
       x1="1"
       y1="9"
       x2="15"
       y2="9"
       gradientUnits="userSpaceOnUse"
       gradientTransform="translate(-17,-2)" />
    <linearGradient
       inkscape:collect="always"
       xlink:href="#linearGradient3327"
       id="linearGradient3629"
       x1="0"
       y1="8"
       x2="29.017237"
       y2="8"
       gradientUnits="userSpaceOnUse"
       gradientTransform="matrix(0,-1,1,0,0,16)" />
    <linearGradient
       inkscape:collect="always"
       xlink:href="#SVGID_1_-4"
       id="linearGradient3765"
       gradientUnits="userSpaceOnUse"
       gradientTransform="matrix(0.09341072,0,0,0.04108075,-26.756456,8.0246654)"
       x1="383.28857"
       y1="0"
       x2="383.28857"
       y2="218.48047" />
    <linearGradient
       id="SVGID_1_-4"
       gradientUnits="userSpaceOnUse"
       x1="383.28857"
       y1="0"
       x2="383.28857"
       y2="218.48047">
      <stop
         offset="0.005618"
         style="stop-color:#ED2828"
         id="stop3143-2" />
      <stop
         offset="0.5"
         style="stop-color:#EF3B39"
         id="stop3145-1" />
      <stop
         offset="0.994382"
         style="stop-color:#C02126"
         id="stop3147-3" />
    </linearGradient>
    <linearGradient
       y2="180.6748"
       x2="175.30762"
       y1="73.254395"
       x1="175.30762"
       gradientUnits="userSpaceOnUse"
       id="linearGradient3749-5">
      <stop
         id="stop3751-8"
         style="stop-color:#000000;stop-opacity:1;"
         offset="0" />
      <stop
         id="stop3753-7"
         style="stop-color:#000000;stop-opacity:0.4728682;"
         offset="0.99438202" />
    </linearGradient>
    <linearGradient
       inkscape:collect="always"
       xlink:href="#linearGradient3749-5"
       id="linearGradient3754"
       gradientUnits="userSpaceOnUse"
       gradientTransform="matrix(0.04164302,0,0,0.03408859,1.9444673,0.78644322)"
       x1="175.30762"
       y1="73.254395"
       x2="175.30762"
       y2="180.6748" />
    <linearGradient
       inkscape:collect="always"
       xlink:href="#linearGradient3749-5"
       id="linearGradient3756"
       gradientUnits="userSpaceOnUse"
       gradientTransform="matrix(0.04998763,0,0,0.03408859,2.4795353,0.78644322)"
       x1="175.30762"
       y1="73.254395"
       x2="175.30762"
       y2="180.6748" />
    <linearGradient
       y2="180.6748"
       x2="175.30762"
       y1="73.254395"
       x1="175.30762"
       gradientTransform="matrix(0.04859283,0,0,0.03408859,3.115962,0.78644322)"
       gradientUnits="userSpaceOnUse"
       id="linearGradient3809"
       xlink:href="#linearGradient3749-5"
       inkscape:collect="always" />
    <inkscape:perspective
       id="perspective3729"
       inkscape:persp3d-origin="0.5 : 0.33333333 : 1"
       inkscape:vp_z="1 : 0.5 : 1"
       inkscape:vp_y="0 : 1000 : 0"
       inkscape:vp_x="0 : 0.5 : 1"
       sodipodi:type="inkscape:persp3d" />
    <linearGradient
       inkscape:collect="always"
       xlink:href="#linearGradient3696"
       id="linearGradient4163"
       x1="6"
       y1="48"
       x2="90"
       y2="48"
       gradientUnits="userSpaceOnUse"
       gradientTransform="translate(-96,0)" />
    <linearGradient
       id="linearGradient3696">
      <stop
         id="stop3698"
         offset="0"
         style="stop-color:#2458a6;stop-opacity:1;" />
      <stop
         id="stop3700"
         offset="1"
         style="stop-color:#598ad4;stop-opacity:1;" />
    </linearGradient>
    <linearGradient
       y2="48"
       x2="90"
       y1="48"
       x1="6"
       gradientTransform="translate(-52.867199,-57.252856)"
       gradientUnits="userSpaceOnUse"
       id="linearGradient3738"
       xlink:href="#linearGradient3696"
       inkscape:collect="always" />
    <inkscape:perspective
       id="perspective3703"
       inkscape:persp3d-origin="0.5 : 0.33333333 : 1"
       inkscape:vp_z="1 : 0.5 : 1"
       inkscape:vp_y="0 : 1000 : 0"
       inkscape:vp_x="0 : 0.5 : 1"
       sodipodi:type="inkscape:persp3d" />
    <linearGradient
       gradientTransform="matrix(0.19388162,0,0,0.19388162,-1.4007219,-1.9461429)"
       inkscape:collect="always"
       xlink:href="#linearGradient4099"
       id="linearGradient4113"
       x1="22.111456"
       y1="62.983868"
       x2="40"
       y2="32"
       gradientUnits="userSpaceOnUse" />
    <linearGradient
       id="linearGradient4099">
      <stop
         style="stop-color:#9ede27;stop-opacity:1;"
         offset="0"
         id="stop4101" />
      <stop
         style="stop-color:#c8f16b;stop-opacity:1;"
         offset="1"
         id="stop4103" />
    </linearGradient>
    <linearGradient
       gradientTransform="matrix(0.19388162,0,0,0.19388162,-1.5256152,-1.9461429)"
       inkscape:collect="always"
       xlink:href="#linearGradient4099"
       id="linearGradient4105"
       x1="38"
       y1="74"
       x2="70"
       y2="49"
       gradientUnits="userSpaceOnUse" />
    <linearGradient
       id="linearGradient3712">
      <stop
         style="stop-color:#9ede27;stop-opacity:1;"
         offset="0"
         id="stop3714" />
      <stop
         style="stop-color:#c8f16b;stop-opacity:1;"
         offset="1"
         id="stop3716" />
    </linearGradient>
    <linearGradient
       inkscape:collect="always"
       xlink:href="#linearGradient3799-3"
       id="linearGradient3746"
       gradientUnits="userSpaceOnUse"
       x1="56.037025"
       y1="49.333305"
       x2="56.037025"
       y2="13.593002"
       gradientTransform="matrix(0.26518093,0,0,0.26518093,-0.34872536,-3.7081516)" />
    <linearGradient
       id="linearGradient3799-3">
      <stop
         style="stop-color:#1a1a1a;stop-opacity:1;"
         offset="0"
         id="stop3801-3" />
      <stop
         style="stop-color:#000000;stop-opacity:1;"
         offset="1"
         id="stop3803-2" />
    </linearGradient>
    <linearGradient
       y2="13.593002"
       x2="56.037025"
       y1="49.333305"
       x1="56.037025"
       gradientTransform="matrix(0.19388162,0,0,0.19388162,-1.3401963,-1.8843368)"
       gradientUnits="userSpaceOnUse"
       id="linearGradient3726"
       xlink:href="#linearGradient3799-3"
       inkscape:collect="always" />
    <inkscape:perspective
       id="perspective3736"
       inkscape:persp3d-origin="0.5 : 0.33333333 : 1"
       inkscape:vp_z="1 : 0.5 : 1"
       inkscape:vp_y="0 : 1000 : 0"
       inkscape:vp_x="0 : 0.5 : 1"
       sodipodi:type="inkscape:persp3d" />
    <radialGradient
       inkscape:collect="always"
       xlink:href="#linearGradient3784-2"
       id="radialGradient3758"
       gradientUnits="userSpaceOnUse"
       gradientTransform="matrix(1.0456205,0.08243661,-0.05194947,0.90987799,0.84943041,1.3399685)"
       cx="49.580967"
       cy="67.04126"
       fx="49.580967"
       fy="67.04126"
       r="10" />
    <linearGradient
       id="linearGradient3784-2">
      <stop
         id="stop3786-4"
         offset="0"
         style="stop-color:#a0a0a0;stop-opacity:1;" />
      <stop
         id="stop3790-2"
         offset="1"
         style="stop-color:#1a1a1a;stop-opacity:1;" />
    </linearGradient>
    <radialGradient
       r="10"
       fy="67.04126"
       fx="49.580967"
       cy="67.04126"
       cx="49.580967"
       gradientTransform="matrix(1.0456205,0.08243661,-0.05194947,0.90987799,0.84943041,1.3399685)"
       gradientUnits="userSpaceOnUse"
       id="radialGradient3745"
       xlink:href="#linearGradient3784-2"
       inkscape:collect="always" />
    <radialGradient
       inkscape:collect="always"
       xlink:href="#linearGradient3784-2"
       id="radialGradient3698"
       cx="10.116978"
       cy="6.5340972"
       fx="10.116978"
       fy="6.5340972"
       r="2.6487656"
       gradientTransform="matrix(0.60548597,-0.18291744,0.13322228,0.44098703,0.81853832,7.6996387)"
       gradientUnits="userSpaceOnUse" />
    <inkscape:perspective
       id="perspective3764"
       inkscape:persp3d-origin="0.5 : 0.33333333 : 1"
       inkscape:vp_z="1 : 0.5 : 1"
       inkscape:vp_y="0 : 1000 : 0"
       inkscape:vp_x="0 : 0.5 : 1"
       sodipodi:type="inkscape:persp3d" />
    <linearGradient
       inkscape:collect="always"
       xlink:href="#linearGradient3700"
       id="linearGradient3617"
       gradientUnits="userSpaceOnUse"
       x1="48"
       y1="90"
       x2="48"
       y2="5.9877172" />
    <linearGradient
       id="linearGradient3700">
      <stop
         style="stop-color:#509528;stop-opacity:1"
         offset="0"
         id="stop3702" />
      <stop
         style="stop-color:#78cd46;stop-opacity:1"
         offset="1"
         id="stop3704" />
    </linearGradient>
    <linearGradient
       gradientTransform="translate(-60.755294,-38.114108)"
       y2="5.9877172"
       x2="48"
       y1="90"
       x1="48"
       gradientUnits="userSpaceOnUse"
       id="linearGradient3773"
       xlink:href="#linearGradient3700"
       inkscape:collect="always" />
    <inkscape:perspective
       id="perspective3783"
       inkscape:persp3d-origin="0.5 : 0.33333333 : 1"
       inkscape:vp_z="1 : 0.5 : 1"
       inkscape:vp_y="0 : 1000 : 0"
       inkscape:vp_x="0 : 0.5 : 1"
       sodipodi:type="inkscape:persp3d" />
  </defs>
  <sodipodi:namedview
     id="base"
     pagecolor="#ffffff"
     bordercolor="#e7e7e7"
     borderopacity="1"
     inkscape:pageopacity="0.0"
     inkscape:pageshadow="2"
     inkscape:zoom="28.458771"
     inkscape:cx="6.594827"
     inkscape:cy="8.150771"
     inkscape:document-units="px"
     inkscape:current-layer="layer2"
     showgrid="true"
     inkscape:showpageshadow="false"
     showguides="false"
     inkscape:guide-bbox="true"
     inkscape:window-width="1366"
     inkscape:window-height="704"
     inkscape:window-x="0"
     inkscape:window-y="27"
     inkscape:window-maximized="1"
     inkscape:snap-global="false">
    <sodipodi:guide
       orientation="1,0"
       position="0,112"
       id="guide2383" />
    <sodipodi:guide
       orientation="0,1"
       position="26.278146,128"
       id="guide2385" />
    <sodipodi:guide
       orientation="1,0"
       position="128,54.082119"
       id="guide2387" />
    <sodipodi:guide
       orientation="0,1"
       position="78.156291,0"
       id="guide2389" />
    <sodipodi:guide
       orientation="0,1"
       position="60.863576,64.084768"
       id="guide2391" />
    <inkscape:grid
       type="xygrid"
       id="grid3672"
       visible="true"
       enabled="true" />
  </sodipodi:namedview>
  <metadata
     id="metadata7">
    <rdf:RDF>
      <cc:Work
         rdf:about="">
        <dc:format>image/svg+xml</dc:format>
        <dc:type
           rdf:resource="http://purl.org/dc/dcmitype/StillImage" />
        <dc:title></dc:title>
      </cc:Work>
    </rdf:RDF>
  </metadata>
  <g
     inkscape:label="Button"
     inkscape:groupmode="layer"
     id="layer1"
     sodipodi:insensitive="true">
    <rect
       ry="2"
       rx="2"
       y="0"
       x="-16"
       height="16"
       width="16"
       id="rect3196"
       style="fill:url(#linearGradient3204);fill-opacity:1;fill-rule:nonzero;stroke:none"
       transform="matrix(0,-1,1,0,0,0)" />
    <path
       style="opacity:0.4;fill:url(#linearGradient3629);fill-opacity:1;fill-rule:nonzero;stroke:none"
       d="m 0,14 c 0,1.108 0.892,2 2,2 l 12,0 c 1.108,0 2,-0.892 2,-2 L 16,2 C 16,0.892 15.108,0 14,0 L 2,0 C 0.892,0 0,0.892 0,2 l 0,12 z m 0.96875,0 0,-12 C 0.96875,1.416801 1.4168007,0.96875 2,0.96875 l 12,0 c 0.583199,0 1.03125,0.448051 1.03125,1.03125 l 0,12 c 0,0.583199 -0.448051,1.03125 -1.03125,1.03125 l -12,0 C 1.4168007,15.03125 0.96875,14.583199 0.96875,14 Z"
       id="rect2835"
       inkscape:connector-curvature="0" />
    <path
       style="opacity:0.3;fill:#ffffff;fill-opacity:1;fill-rule:nonzero;stroke:none"
       d="M 2,0.96875 C 1.4168007,0.96875 0.96875,1.4168007 0.96875,2 l 0,1 C 0.96875,2.4168007 1.4168007,1.96875 2,1.96875 l 12,0 c 0.583199,0 1.03125,0.4480507 1.03125,1.03125 l 0,-1 C 15.03125,1.4168007 14.583199,0.96875 14,0.96875 l -12,0 z"
       id="path2843"
       inkscape:connector-curvature="0" />
  </g>
  <g
     inkscape:groupmode="layer"
     id="layer2"
     inkscape:label="symbol">
    <path
       d="m 34.46875,14.28125 c -0.85161,0.06387 -1.70516,0.298432 -2.46875,0.6875 -2.03756,1.038191 -3.28547,3.099795 -3.90625,5.625 -0.62077,2.525205 -0.67184,5.588916 -0.25,9.0625 0.19658,1.61869 0.536146,3.345714 0.9375,5.125 -2.364113,0.485619 -4.80714,0.923769 -6.75,1.625 -2.83368,1.022752 -5.17054,2.28155 -6.90625,3.78125 -1.73571,1.4997 -2.89154,3.33665 -3,5.40625 -0.10331,1.971332 0.75171,3.855163 2.1875,5.46875 1.4358,1.613587 3.44935,3.030487 5.9375,4.3125 a 1.3941384,1.3941384 0 1 0 1.28125,-2.46875 c -2.27905,-1.174277 -4.01851,-2.475244 -5.125,-3.71875 -1.10649,-1.243506 -1.55666,-2.356407 -1.5,-3.4375 0.0595,-1.135457 0.673,-2.295185 2.03125,-3.46875 1.35825,-1.173565 3.44754,-2.306191 6.0625,-3.25 1.824105,-0.658368 4.202674,-1.069145 6.5,-1.53125 0.797411,2.937414 1.799512,5.982285 3.09375,9.15625 -3.137522,5.859219 -5.372286,11.536717 -6.5,16.4375 -0.78414,3.407713 -1.03978,6.456757 -0.6875,9.03125 0.35228,2.574493 1.3637,4.754727 3.28125,6 1.81971,1.181734 4.11571,1.298298 6.46875,0.6875 2.35305,-0.610798 4.86779,-1.936769 7.5,-3.8125 a 1.3941384,1.3941384 0 1 0 -1.625,-2.25 c -2.44395,1.741579 -4.69493,2.890222 -6.5625,3.375 -1.86756,0.484778 -3.24996,0.305684 -4.25,-0.34375 -1.05257,-0.683548 -1.77836,-1.954768 -2.0625,-4.03125 -0.28413,-2.076482 -0.0767,-4.846147 0.65625,-8.03125 0.929097,-4.037643 2.765537,-8.767606 5.25,-13.71875 0.598812,1.319003 1.165108,2.636838 1.84375,3.96875 4.4664,8.765793 9.81646,16.046902 14.9375,20.8125 2.56053,2.382799 5.06209,4.143025 7.46875,5.125 2.40667,0.981975 4.80642,1.194326 6.84375,0.15625 1.95952,-0.998423 3.20346,-2.98651 3.84375,-5.375 0.6403,-2.38849 0.7414,-5.25169 0.40625,-8.53125 C 68.73596,59.59713 66.29168,51.460539 62.25,43.0625 a 1.3941384,1.3941384 0 1 0 -2.5,1.1875 c 3.92666,8.159041 6.28271,16.085887 6.90625,22.1875 0.31177,3.050806 0.16675,5.626961 -0.34375,7.53125 -0.51049,1.904289 -1.33119,3.045983 -2.40625,3.59375 -1.11813,0.569718 -2.58975,0.542173 -4.53125,-0.25 C 57.43351,76.520327 55.11204,74.97717 52.71875,72.75 47.93218,68.29566 42.74777,61.208202 38.40625,52.6875 37.401211,50.714999 36.509239,48.746711 35.6875,46.8125 36.703458,44.982152 37.799646,43.129634 39,41.28125 c 1.246089,-1.918809 2.56859,-3.521356 3.875,-5.25 0.375752,-0.0059 0.682762,-0.06122 1.0625,-0.0625 1.71721,-0.0058 3.45582,0.03097 5.25,0.125 9.55011,0.5005 18.14277,2.378797 24.15625,4.9375 3.00675,1.279352 5.36269,2.737028 6.875,4.1875 1.51231,1.450472 2.1282,2.808958 2.0625,4.0625 -0.0568,1.083718 -0.64033,2.156881 -1.875,3.28125 -1.23466,1.124369 -3.10249,2.226183 -5.5,3.15625 a 1.3941384,1.3941384 0 1 0 1,2.59375 c 2.61775,-1.015503 4.80508,-2.229371 6.40625,-3.6875 1.60117,-1.458129 2.64651,-3.244041 2.75,-5.21875 0.11965,-2.283073 -1.0624,-4.389074 -2.9375,-6.1875 -1.87509,-1.798426 -4.50173,-3.38118 -7.71875,-4.75 C 67.97223,35.73111 59.16814,33.827375 49.34375,33.3125 47.875038,33.235531 46.433065,33.204479 45,33.1875 c 2.624584,-3.199385 5.277714,-6.081306 7.84375,-8.3125 4.56431,-3.968704 8.85359,-6.144786 11.625,-6.25 1.0258,-0.03894 1.84287,0.167004 2.5,0.59375 0.98643,0.640594 1.67714,1.820932 2,3.6875 0.32287,1.866568 0.22293,4.334592 -0.34375,7.21875 a 1.3941384,1.3941384 0 1 0 2.71875,0.53125 c 0.61136,-3.111553 0.78315,-5.890406 0.375,-8.25 -0.40814,-2.359594 -1.45193,-4.363574 -3.25,-5.53125 -1.19919,-0.778766 -2.61478,-1.087399 -4.09375,-1.03125 -3.99143,0.151532 -8.53239,2.753976 -13.34375,6.9375 -3.194056,2.777263 -6.447369,6.486535 -9.625,10.5625 -3.473008,0.109684 -6.866234,0.30596 -9.90625,0.78125 -0.381244,-1.685985 -0.692064,-3.306157 -0.875,-4.8125 -0.3943,-3.246818 -0.31341,-6.024887 0.1875,-8.0625 0.50091,-2.037613 1.35085,-3.242899 2.46875,-3.8125 0.41972,-0.213856 0.84978,-0.335609 1.375,-0.375 1.95468,-0.146603 4.9595,1.144855 8.25,3.875 a 1.3984157,1.3984157 0 1 0 1.78125,-2.15625 c -3.57229,-2.963939 -7.00219,-4.741245 -10.21875,-4.5 z m 4.75,22.03125 c -0.846624,1.18076 -1.745519,2.17946 -2.5625,3.4375 -0.816313,1.257014 -1.514845,2.497002 -2.25,3.75 -0.866788,-2.301189 -1.602502,-4.517708 -2.1875,-6.65625 2.135179,-0.320885 4.615686,-0.390253 7,-0.53125 z m 9.59375,7 c -2.49398,0 -4.68904,2.19352 -4.6875,4.6875 10e-4,2.491969 2.19553,4.6875 4.6875,4.6875 2.49197,0 4.68596,-2.195531 4.6875,-4.6875 10e-4,-2.49398 -2.19352,-4.6875 -4.6875,-4.6875 z"
       id="path4050"
       style="color:#000000;font-style:normal;font-variant:normal;font-weight:normal;font-stretch:normal;font-size:medium;line-height:normal;font-family:Sans;-inkscape-font-specification:Sans;text-indent:0;text-align:start;text-decoration:none;text-decoration-line:none;letter-spacing:normal;word-spacing:normal;text-transform:none;direction:ltr;block-progression:tb;writing-mode:lr-tb;baseline-shift:baseline;text-anchor:start;display:inline;overflow:visible;visibility:visible;fill:#eff7f4;fill-opacity:1;fill-rule:nonzero;stroke:#eff7f4;stroke-width:3.63163529;stroke-miterlimit:4;stroke-dasharray:none;stroke-opacity:1;marker:none;enable-background:accumulate"
       inkscape:original="M 34.46875 14.28125 C 33.61714 14.34512 32.76359 14.579682 32 14.96875 C 29.96244 16.006941 28.71453 18.068545 28.09375 20.59375 C 27.47298 23.118955 27.42191 26.182666 27.84375 29.65625 C 28.04033 31.27494 28.379896 33.001964 28.78125 34.78125 C 26.417137 35.266869 23.97411 35.705019 22.03125 36.40625 C 19.19757 37.429002 16.86071 38.6878 15.125 40.1875 C 13.38929 41.6872 12.23346 43.52415 12.125 45.59375 C 12.02169 47.565082 12.87671 49.448913 14.3125 51.0625 C 15.7483 52.676087 17.76185 54.092987 20.25 55.375 A 1.3941384 1.3941384 0 1 0 21.53125 52.90625 C 19.2522 51.731973 17.51274 50.431006 16.40625 49.1875 C 15.29976 47.943994 14.84959 46.831093 14.90625 45.75 C 14.96575 44.614543 15.57925 43.454815 16.9375 42.28125 C 18.29575 41.107685 20.38504 39.975059 23 39.03125 C 24.824105 38.372882 27.202674 37.962105 29.5 37.5 C 30.297411 40.437414 31.299512 43.482285 32.59375 46.65625 C 29.456228 52.515469 27.221464 58.192967 26.09375 63.09375 C 25.30961 66.501463 25.05397 69.550507 25.40625 72.125 C 25.75853 74.699493 26.76995 76.879727 28.6875 78.125 C 30.50721 79.306734 32.80321 79.423298 35.15625 78.8125 C 37.5093 78.201702 40.02404 76.875731 42.65625 75 A 1.3941384 1.3941384 0 1 0 41.03125 72.75 C 38.5873 74.491579 36.33632 75.640222 34.46875 76.125 C 32.60119 76.609778 31.21879 76.430684 30.21875 75.78125 C 29.16618 75.097702 28.44039 73.826482 28.15625 71.75 C 27.87212 69.673518 28.07955 66.903853 28.8125 63.71875 C 29.741597 59.681107 31.578037 54.951144 34.0625 50 C 34.661312 51.319003 35.227608 52.636838 35.90625 53.96875 C 40.37265 62.734543 45.72271 70.015652 50.84375 74.78125 C 53.40428 77.164049 55.90584 78.924275 58.3125 79.90625 C 60.71917 80.888225 63.11892 81.100576 65.15625 80.0625 C 67.11577 79.064077 68.35971 77.07599 69 74.6875 C 69.6403 72.29901 69.7414 69.43581 69.40625 66.15625 C 68.73596 59.59713 66.29168 51.460539 62.25 43.0625 A 1.3941384 1.3941384 0 1 0 59.75 44.25 C 63.67666 52.409041 66.03271 60.335887 66.65625 66.4375 C 66.96802 69.488306 66.823 72.064461 66.3125 73.96875 C 65.80201 75.873039 64.98131 77.014733 63.90625 77.5625 C 62.78812 78.132218 61.3165 78.104673 59.375 77.3125 C 57.43351 76.520327 55.11204 74.97717 52.71875 72.75 C 47.93218 68.29566 42.74777 61.208202 38.40625 52.6875 C 37.401211 50.714999 36.509239 48.746711 35.6875 46.8125 C 36.703458 44.982152 37.799646 43.129634 39 41.28125 C 40.246089 39.362441 41.56859 37.759894 42.875 36.03125 C 43.250752 36.025344 43.557762 35.970028 43.9375 35.96875 C 45.65471 35.96295 47.39332 35.99972 49.1875 36.09375 C 58.73761 36.59425 67.33027 38.472547 73.34375 41.03125 C 76.3505 42.310602 78.70644 43.768278 80.21875 45.21875 C 81.73106 46.669222 82.34695 48.027708 82.28125 49.28125 C 82.22445 50.364968 81.64092 51.438131 80.40625 52.5625 C 79.17159 53.686869 77.30376 54.788683 74.90625 55.71875 A 1.3941384 1.3941384 0 1 0 75.90625 58.3125 C 78.524 57.296997 80.71133 56.083129 82.3125 54.625 C 83.91367 53.166871 84.95901 51.380959 85.0625 49.40625 C 85.18215 47.123177 84.0001 45.017176 82.125 43.21875 C 80.24991 41.420324 77.62327 39.83757 74.40625 38.46875 C 67.97223 35.73111 59.16814 33.827375 49.34375 33.3125 C 47.875038 33.235531 46.433065 33.204479 45 33.1875 C 47.624584 29.988115 50.277714 27.106194 52.84375 24.875 C 57.40806 20.906296 61.69734 18.730214 64.46875 18.625 C 65.49455 18.58606 66.31162 18.792004 66.96875 19.21875 C 67.95518 19.859344 68.64589 21.039682 68.96875 22.90625 C 69.29162 24.772818 69.19168 27.240842 68.625 30.125 A 1.3941384 1.3941384 0 1 0 71.34375 30.65625 C 71.95511 27.544697 72.1269 24.765844 71.71875 22.40625 C 71.31061 20.046656 70.26682 18.042676 68.46875 16.875 C 67.26956 16.096234 65.85397 15.787601 64.375 15.84375 C 60.38357 15.995282 55.84261 18.597726 51.03125 22.78125 C 47.837194 25.558513 44.583881 29.267785 41.40625 33.34375 C 37.933242 33.453434 34.540016 33.64971 31.5 34.125 C 31.118756 32.439015 30.807936 30.818843 30.625 29.3125 C 30.2307 26.065682 30.31159 23.287613 30.8125 21.25 C 31.31341 19.212387 32.16335 18.007101 33.28125 17.4375 C 33.70097 17.223644 34.13103 17.101891 34.65625 17.0625 C 36.61093 16.915897 39.61575 18.207355 42.90625 20.9375 A 1.3984157 1.3984157 0 1 0 44.6875 18.78125 C 41.11521 15.817311 37.68531 14.040005 34.46875 14.28125 z M 39.21875 36.3125 C 38.372126 37.49326 37.473231 38.49196 36.65625 39.75 C 35.839937 41.007014 35.141405 42.247002 34.40625 43.5 C 33.539462 41.198811 32.803748 38.982292 32.21875 36.84375 C 34.353929 36.522865 36.834436 36.453497 39.21875 36.3125 z M 48.8125 43.3125 C 46.31852 43.3125 44.12346 45.50602 44.125 48 C 44.126 50.491969 46.32053 52.6875 48.8125 52.6875 C 51.30447 52.6875 53.49846 50.491969 53.5 48 C 53.501 45.50602 51.30648 43.3125 48.8125 43.3125 z "
       inkscape:radius="0"
       sodipodi:type="inkscape:offset"
       transform="matrix(0.18751883,0,0,0.18751883,-1.0655066,-0.46239786)" />
  </g>
</svg>
