<?xml version="1.0" encoding="UTF-8" standalone="no"?>
<svg
   xmlns:dc="http://purl.org/dc/elements/1.1/"
   xmlns:cc="http://creativecommons.org/ns#"
   xmlns:rdf="http://www.w3.org/1999/02/22-rdf-syntax-ns#"
   xmlns:svg="http://www.w3.org/2000/svg"
   xmlns="http://www.w3.org/2000/svg"
   xmlns:sodipodi="http://sodipodi.sourceforge.net/DTD/sodipodi-0.dtd"
   xmlns:inkscape="http://www.inkscape.org/namespaces/inkscape"
   id="svg2"
   width="16"
   height="16"
   version="1.0"
   sodipodi:docname="bitwig.svg"
   inkscape:version="0.92.2 5c3e80d, 2017-08-06">
  <metadata
     id="metadata31">
    <rdf:RDF>
      <cc:Work
         rdf:about="">
        <dc:format>image/svg+xml</dc:format>
        <dc:type
           rdf:resource="http://purl.org/dc/dcmitype/StillImage" />
      </cc:Work>
    </rdf:RDF>
  </metadata>
  <sodipodi:namedview
     pagecolor="#ffffff"
     bordercolor="#666666"
     borderopacity="1"
     objecttolerance="10"
     gridtolerance="10"
     guidetolerance="10"
     inkscape:pageopacity="0"
     inkscape:pageshadow="2"
     inkscape:window-width="640"
     inkscape:window-height="480"
     id="namedview29"
     showgrid="false"
     inkscape:zoom="14.75"
     inkscape:cx="8"
     inkscape:cy="8"
     inkscape:window-x="0"
     inkscape:window-y="25"
     inkscape:window-maximized="0"
     inkscape:current-layer="svg2" />
  <defs
     id="defs4">
    <linearGradient
       id="linearGradient3204"
       x1="1"
       x2="15"
       y1="9"
       y2="9"
       gradientTransform="translate(-17,-2)"
       gradientUnits="userSpaceOnUse">
      <stop
         id="stop3189"
         stop-color="#e51f38"
         offset="0" />
      <stop
         id="stop3191"
         stop-color="#fb4158"
         offset="1" />
    </linearGradient>
    <linearGradient
       id="linearGradient3629"
       x2="29.017"
       y1="8"
       y2="8"
       gradientTransform="matrix(0,-1,1,0,0,16)"
       gradientUnits="userSpaceOnUse">
      <stop
         id="stop3330"
         offset="0" />
      <stop
         id="stop3333"
         stop-opacity="0"
         offset="1" />
    </linearGradient>
  </defs>
  <g
     id="layer1">
    <rect
       id="rect3196"
       transform="rotate(-90)"
       x="-16"
       width="16"
       height="16"
       rx="2"
       ry="2"
       fill="url(#linearGradient3204)" />
    <path
       id="rect2835"
       d="m0 14c0 1.108 0.892 2 2 2h12c1.108 0 2-0.892 2-2v-12c0-1.108-0.892-2-2-2h-12c-1.108 0-2 0.892-2 2v12zm0.96875 0v-12c0-0.5832 0.44805-1.0312 1.0312-1.0312h12c0.5832 0 1.0312 0.44805 1.0312 1.0312v12c0 0.5832-0.44805 1.0312-1.0312 1.0312h-12c-0.5832 0-1.0312-0.44805-1.0312-1.0312z"
       fill="url(#linearGradient3629)"
       opacity=".4" />
    <path
       id="path2843"
       d="m2 0.96875c-0.5832 0-1.0312 0.44805-1.0312 1.0312v1c0-0.5832 0.44805-1.0312 1.0312-1.0312h12c0.5832 0 1.0312 0.44805 1.0312 1.0312v-1c0-0.5832-0.44805-1.0312-1.0312-1.0312h-12z"
       fill="#fff"
       opacity=".35" />
  </g>
  <defs
     id="defs21">
    <filter
       id="w">
      <feGaussianBlur
         stdDeviation="0.26998568"
         id="feGaussianBlur13" />
    </filter>
    <linearGradient
       id="a"
       gradientUnits="userSpaceOnUse"
       x1="8"
       y1="4.6522994"
       x2="8"
       y2="11.3475705">
      <stop
         stop-color="#ffffff"
         offset="0"
         id="stop16" />
      <stop
         stop-color="#ffffff"
         offset="1"
         id="stop18" />
    </linearGradient>
  </defs>
  <g
     id="main"
     transform="translate(1,1) scale(0.85714)">
    <path
       style="opacity:0.3;fill:#000000"
       inkscape:connector-curvature="0"
       id="path23"
       d="M 4.3477,5.6523 A 0.91305,0.91305 0 0 0 3.43559,6.56441 0.91305,0.91305 0 0 0 4.3477,7.47847 0.91305,0.91305 0 0 0 5.26176,6.56441 0.91305,0.91305 0 0 0 4.3477,5.6523 Z m 2.4355,0 A 0.91305,0.91305 0 0 0 5.86914,6.56441 0.91305,0.91305 0 0 0 6.7832,7.47847 0.91305,0.91305 0 0 0 7.69531,6.56441 0.91305,0.91305 0 0 0 6.7832,5.6523 Z m 2.4336,0 A 0.91305,0.91305 0 0 0 8.30469,6.56441 0.91305,0.91305 0 0 0 9.2168,7.47847 0.91305,0.91305 0 0 0 10.13086,6.56441 0.91305,0.91305 0 0 0 9.2168,5.6523 Z m 2.4355,0 A 0.91305,0.91305 0 0 0 10.74019,6.56441 0.91305,0.91305 0 0 0 11.6523,7.47847 0.91305,0.91305 0 0 0 12.56636,6.56441 0.91305,0.91305 0 0 0 11.6523,5.6523 Z M 1.914,8.0878 A 0.91305,0.91305 0 0 0 0.99994,8.99991 0.91305,0.91305 0 0 0 1.914,9.91397 0.91305,0.91305 0 0 0 2.82611,8.99991 0.91305,0.91305 0 0 0 1.914,8.0878 Z m 2.4336,0 A 0.91305,0.91305 0 0 0 3.43549,8.99991 0.91305,0.91305 0 0 0 4.3476,9.91397 0.91305,0.91305 0 0 0 5.26166,8.99991 0.91305,0.91305 0 0 0 4.3476,8.0878 Z m 2.4355,0 A 0.91305,0.91305 0 0 0 5.86904,8.99991 0.91305,0.91305 0 0 0 6.7831,9.91397 0.91305,0.91305 0 0 0 7.69521,8.99991 0.91305,0.91305 0 0 0 6.7831,8.0878 Z m 2.4336,0 A 0.91305,0.91305 0 0 0 8.30459,8.99991 0.91305,0.91305 0 0 0 9.2167,9.91397 0.91305,0.91305 0 0 0 10.13076,8.99991 0.91305,0.91305 0 0 0 9.2167,8.0878 Z m 2.4355,0 A 0.91305,0.91305 0 0 0 10.74009,8.99991 0.91305,0.91305 0 0 0 11.6522,9.91397 0.91305,0.91305 0 0 0 12.56626,8.99991 0.91305,0.91305 0 0 0 11.6522,8.0878 Z m 2.4355,0 A 0.91305,0.91305 0 0 0 13.17364,8.99991 0.91305,0.91305 0 0 0 14.0877,9.91397 0.91305,0.91305 0 0 0 14.99981,8.99991 0.91305,0.91305 0 0 0 14.0877,8.0878 Z M 1.9137,10.5214 A 0.91305,0.91305 0 0 0 0.99964,11.43546 0.91305,0.91305 0 0 0 1.9137,12.34757 0.91305,0.91305 0 0 0 2.82581,11.43546 0.91305,0.91305 0 0 0 1.9137,10.5214 Z m 2.4336,0 A 0.91305,0.91305 0 0 0 3.43519,11.43546 0.91305,0.91305 0 0 0 4.3473,12.34757 0.91305,0.91305 0 0 0 5.26136,11.43546 0.91305,0.91305 0 0 0 4.3473,10.5214 Z m 7.3047,0 A 0.91305,0.91305 0 0 0 10.73989,11.43546 0.91305,0.91305 0 0 0 11.652,12.34757 0.91305,0.91305 0 0 0 12.56606,11.43546 0.91305,0.91305 0 0 0 11.652,10.5214 Z m 2.4355,0 a 0.91305,0.91305 0 0 0 -0.91406,0.91406 0.91305,0.91305 0 0 0 0.91406,0.91211 0.91305,0.91305 0 0 0 0.91211,-0.91211 0.91305,0.91305 0 0 0 -0.91211,-0.91406 z" />
    <path
       d="m4.3477 4.6523a0.91305 0.91305 0 0 0-0.91211 0.91211 0.91305 0.91305 0 0 0 0.91211 0.91406 0.91305 0.91305 0 0 0 0.91406-0.91406 0.91305 0.91305 0 0 0-0.91406-0.91211zm2.4355 0a0.91305 0.91305 0 0 0-0.91406 0.91211 0.91305 0.91305 0 0 0 0.91406 0.91406 0.91305 0.91305 0 0 0 0.91211-0.91406 0.91305 0.91305 0 0 0-0.91211-0.91211zm2.4336 0a0.91305 0.91305 0 0 0-0.91211 0.91211 0.91305 0.91305 0 0 0 0.91211 0.91406 0.91305 0.91305 0 0 0 0.91406-0.91406 0.91305 0.91305 0 0 0-0.91406-0.91211zm2.4355 0a0.91305 0.91305 0 0 0-0.91211 0.91211 0.91305 0.91305 0 0 0 0.91211 0.91406 0.91305 0.91305 0 0 0 0.91406-0.91406 0.91305 0.91305 0 0 0-0.91406-0.91211zm-9.7383 2.4355a0.91305 0.91305 0 0 0-0.91406 0.91211 0.91305 0.91305 0 0 0 0.91406 0.91406 0.91305 0.91305 0 0 0 0.91211-0.91406 0.91305 0.91305 0 0 0-0.91211-0.91211zm2.4336 0a0.91305 0.91305 0 0 0-0.91211 0.91211 0.91305 0.91305 0 0 0 0.91211 0.91406 0.91305 0.91305 0 0 0 0.91406-0.91406 0.91305 0.91305 0 0 0-0.91406-0.91211zm2.4355 0a0.91305 0.91305 0 0 0-0.91406 0.91211 0.91305 0.91305 0 0 0 0.91406 0.91406 0.91305 0.91305 0 0 0 0.91211-0.91406 0.91305 0.91305 0 0 0-0.91211-0.91211zm2.4336 0a0.91305 0.91305 0 0 0-0.91211 0.91211 0.91305 0.91305 0 0 0 0.91211 0.91406 0.91305 0.91305 0 0 0 0.91406-0.91406 0.91305 0.91305 0 0 0-0.91406-0.91211zm2.4355 0a0.91305 0.91305 0 0 0-0.91211 0.91211 0.91305 0.91305 0 0 0 0.91211 0.91406 0.91305 0.91305 0 0 0 0.91406-0.91406 0.91305 0.91305 0 0 0-0.91406-0.91211zm2.4355 0a0.91305 0.91305 0 0 0-0.91406 0.91211 0.91305 0.91305 0 0 0 0.91406 0.91406 0.91305 0.91305 0 0 0 0.91211-0.91406 0.91305 0.91305 0 0 0-0.91211-0.91211zm-12.174 2.4336a0.91305 0.91305 0 0 0-0.91406 0.91406 0.91305 0.91305 0 0 0 0.91406 0.91211 0.91305 0.91305 0 0 0 0.91211-0.91211 0.91305 0.91305 0 0 0-0.91211-0.91406zm2.4336 0a0.91305 0.91305 0 0 0-0.91211 0.91406 0.91305 0.91305 0 0 0 0.91211 0.91211 0.91305 0.91305 0 0 0 0.91406-0.91211 0.91305 0.91305 0 0 0-0.91406-0.91406zm7.3047 0a0.91305 0.91305 0 0 0-0.91211 0.91406 0.91305 0.91305 0 0 0 0.91211 0.91211 0.91305 0.91305 0 0 0 0.91406-0.91211 0.91305 0.91305 0 0 0-0.91406-0.91406zm2.4355 0a0.91305 0.91305 0 0 0-0.91406 0.91406 0.91305 0.91305 0 0 0 0.91406 0.91211 0.91305 0.91305 0 0 0 0.91211-0.91211 0.91305 0.91305 0 0 0-0.91211-0.91406z"
       fill="url(#a)"
       id="base" />
  </g>
</svg>
