<?xml version="1.0" encoding="UTF-8" standalone="no"?>
<svg
   xmlns:dc="http://purl.org/dc/elements/1.1/"
   xmlns:cc="http://creativecommons.org/ns#"
   xmlns:rdf="http://www.w3.org/1999/02/22-rdf-syntax-ns#"
   xmlns:svg="http://www.w3.org/2000/svg"
   xmlns="http://www.w3.org/2000/svg"
   xmlns:sodipodi="http://sodipodi.sourceforge.net/DTD/sodipodi-0.dtd"
   xmlns:inkscape="http://www.inkscape.org/namespaces/inkscape"
   id="svg2"
   width="16"
   height="16"
   version="1.0"
   sodipodi:docname="bokken.svg"
   inkscape:version="0.92.2 5c3e80d, 2017-08-06">
  <metadata
     id="metadata31">
    <rdf:RDF>
      <cc:Work
         rdf:about="">
        <dc:format>image/svg+xml</dc:format>
        <dc:type
           rdf:resource="http://purl.org/dc/dcmitype/StillImage" />
      </cc:Work>
    </rdf:RDF>
  </metadata>
  <sodipodi:namedview
     pagecolor="#ffffff"
     bordercolor="#666666"
     borderopacity="1"
     objecttolerance="10"
     gridtolerance="10"
     guidetolerance="10"
     inkscape:pageopacity="0"
     inkscape:pageshadow="2"
     inkscape:window-width="640"
     inkscape:window-height="480"
     id="namedview29"
     showgrid="false"
     inkscape:zoom="14.75"
     inkscape:cx="8"
     inkscape:cy="8"
     inkscape:window-x="0"
     inkscape:window-y="25"
     inkscape:window-maximized="0"
     inkscape:current-layer="svg2" />
  <defs
     id="defs4">
    <linearGradient
       id="linearGradient3204"
       x1="1"
       x2="15"
       y1="9"
       y2="9"
       gradientTransform="translate(-17,-2)"
       gradientUnits="userSpaceOnUse">
      <stop
         id="stop3189"
         stop-color="#4e4e4e"
         offset="0" />
      <stop
         id="stop3191"
         stop-color="#828282"
         offset="1" />
    </linearGradient>
    <linearGradient
       id="linearGradient3629"
       x2="29.017"
       y1="8"
       y2="8"
       gradientTransform="matrix(0,-1,1,0,0,16)"
       gradientUnits="userSpaceOnUse">
      <stop
         id="stop3330"
         offset="0" />
      <stop
         id="stop3333"
         stop-opacity="0"
         offset="1" />
    </linearGradient>
  </defs>
  <g
     id="layer1">
    <rect
       id="rect3196"
       transform="rotate(-90)"
       x="-16"
       width="16"
       height="16"
       rx="2"
       ry="2"
       fill="url(#linearGradient3204)" />
    <path
       id="rect2835"
       d="m0 14c0 1.108 0.892 2 2 2h12c1.108 0 2-0.892 2-2v-12c0-1.108-0.892-2-2-2h-12c-1.108 0-2 0.892-2 2v12zm0.96875 0v-12c0-0.5832 0.44805-1.0312 1.0312-1.0312h12c0.5832 0 1.0312 0.44805 1.0312 1.0312v12c0 0.5832-0.44805 1.0312-1.0312 1.0312h-12c-0.5832 0-1.0312-0.44805-1.0312-1.0312z"
       fill="url(#linearGradient3629)"
       opacity=".4" />
    <path
       id="path2843"
       d="m2 0.96875c-0.5832 0-1.0312 0.44805-1.0312 1.0312v1c0-0.5832 0.44805-1.0312 1.0312-1.0312h12c0.5832 0 1.0312 0.44805 1.0312 1.0312v-1c0-0.5832-0.44805-1.0312-1.0312-1.0312h-12z"
       fill="#fff"
       opacity=".35" />
  </g>
  <defs
     id="defs21">
    <filter
       id="w">
      <feGaussianBlur
         stdDeviation="0.26998568"
         id="feGaussianBlur13" />
    </filter>
    <linearGradient
       id="a"
       gradientUnits="userSpaceOnUse"
       x1="8"
       y1="1.3320312"
       x2="8"
       y2="14.6679692">
      <stop
         stop-color="#ffffff"
         offset="0"
         id="stop16" />
      <stop
         stop-color="#ffffff"
         offset="1"
         id="stop18" />
    </linearGradient>
  </defs>
  <g
     id="main"
     transform="translate(1,1) scale(0.85714)">
    <path
       style="opacity:0.3;fill:#000000"
       inkscape:connector-curvature="0"
       id="path23"
       d="m 7.3066406,2.3320312 c -0.13753,1e-5 -0.2050781,0.057891 -0.2050781,0.1757813 v 3.1679687 h -5.71875 c -0.15719,10e-6 -0.2363381,0.044412 -0.2363281,0.1328126 C 1.1464744,5.9362738 1.2256025,6.00001 1.3828125,6 h 5.1875 c 0.09818,10e-6 0.1464644,0.050237 0.1464844,0.1484375 0,0.5797 -0.515275,1.5677906 -1.546875,2.9628906 -1.0218,1.3950999 -1.9307925,2.5337589 -2.7265625,3.4179689 l -0.765625,0.839844 c -0.02948,0.02947 -0.1317638,0.127912 -0.3085938,0.294921 C 1.2021006,13.840903 1.0786,13.977972 1,14.076172 2.9551,13.034772 4.6592813,11.502316 6.1132812,9.4785156 6.6536212,8.7416656 6.9778675,8.274615 7.0859375,8.078125 l 0.015625,7.132813 c -10e-6,0.30456 0.098412,0.457031 0.2949219,0.457031 0.15718,0 0.2846125,-0.04441 0.3828125,-0.132813 0.09828,-0.08842 0.1619062,-0.225439 0.1914062,-0.412109 0.0295,-0.17684 0.048594,-0.329321 0.058594,-0.457031 0.01,-0.12772 0.01,-0.30529 0,-0.53125 -0.0098,-0.22596 -0.013682,-0.353313 -0.013672,-0.382813 V 7.3417969 c 0.6288,1.0808 1.1826525,1.9414881 1.6640625,2.5800781 0.5207004,0.6877 1.2135544,1.486711 2.0781244,2.400391 0.87434,0.91366 1.493912,1.371093 1.857422,1.371093 0.0491,0 0.08769,-0.0096 0.117188,-0.0293 0.02946,-0.01966 0.06422,-0.05431 0.103516,-0.103515 0.0393,-0.0491 0.06422,-0.07789 0.07422,-0.08789 0.11786,-0.10808 0.303124,-0.225795 0.558594,-0.353515 0.2554,-0.13755 0.43305,-0.245619 0.53125,-0.324219 -0.1769,-0.05895 -0.653567,-0.271266 -1.429688,-0.634766 -0.510849,-0.24561 -0.981782,-0.525464 -1.414062,-0.839844 -0.43227,-0.31435 -0.851116,-0.692655 -1.253906,-1.134765 -0.40282,-0.4519101 -0.736703,-0.8398426 -1.0019533,-1.1640626 -0.25541,-0.334 -0.593185,-0.7991375 -1.015625,-1.3984375 -0.54036,-0.7467 -0.8105468,-1.2484563 -0.8105468,-1.5039063 -10e-8,-0.07858 0.054049,-0.1171875 0.1621093,-0.1171875 H 13.58594 c 0.23577,0 0.353485,-0.069481 0.353515,-0.2070312 -4e-5,-0.06877 -0.158286,-0.2308782 -0.472656,-0.4863281 -0.31439,-0.26525 -0.509291,-0.3984275 -0.587891,-0.3984376 -0.06877,1.01e-5 -0.198115,0.1273725 -0.384765,0.3828126 -0.17686,0.25544 -0.348625,0.3847756 -0.515625,0.3847656 H 8.015625 v -2.359375 c -10e-6,-0.10806 0.057891,-0.2103938 0.1757812,-0.3085938 0.11786,-0.10806 0.1777144,-0.196825 0.1777344,-0.265625 -2e-5,-0.10806 -0.1428343,-0.2006968 -0.4277344,-0.2792968 C 7.6663063,2.3764138 7.4539906,2.3320413 7.3066406,2.3320312 Z" />
    <path
       d="M 7.3066406 1.3320312 C 7.1691106 1.3320412 7.1015625 1.3899225 7.1015625 1.5078125 L 7.1015625 4.6757812 L 1.3828125 4.6757812 C 1.2256225 4.6757912 1.1464744 4.7201937 1.1464844 4.8085938 C 1.1464744 4.9362738 1.2256025 5.00001 1.3828125 5 L 6.5703125 5 C 6.6684925 5.00001 6.7167769 5.0502375 6.7167969 5.1484375 C 6.7167969 5.7281375 6.2015219 6.7162281 5.1699219 8.1113281 C 4.1481219 9.5064281 3.2391294 10.645087 2.4433594 11.529297 L 1.6777344 12.369141 C 1.6482544 12.398611 1.5459706 12.497053 1.3691406 12.664062 C 1.2021006 12.840903 1.0786 12.977972 1 13.076172 C 2.9551 12.034772 4.6592813 10.502316 6.1132812 8.4785156 C 6.6536212 7.7416656 6.9778675 7.274615 7.0859375 7.078125 L 7.1015625 14.210938 C 7.1015525 14.515498 7.1999744 14.667969 7.3964844 14.667969 C 7.5536644 14.667969 7.6810969 14.623556 7.7792969 14.535156 C 7.8775769 14.446736 7.9412031 14.309717 7.9707031 14.123047 C 8.0002031 13.946207 8.0192969 13.793726 8.0292969 13.666016 C 8.0392969 13.538296 8.0392969 13.360726 8.0292969 13.134766 C 8.0194969 12.908806 8.015615 12.781453 8.015625 12.751953 L 8.015625 6.3417969 C 8.644425 7.4225969 9.1982775 8.283285 9.6796875 8.921875 C 10.200388 9.609575 10.893242 10.408586 11.757812 11.322266 C 12.632152 12.235926 13.251724 12.693359 13.615234 12.693359 C 13.664334 12.693359 13.702922 12.683763 13.732422 12.664062 C 13.761882 12.644403 13.796637 12.609747 13.835938 12.560547 C 13.875237 12.511447 13.900156 12.482656 13.910156 12.472656 C 14.028016 12.364576 14.21328 12.246861 14.46875 12.119141 C 14.72415 11.981591 14.9018 11.873522 15 11.794922 C 14.8231 11.735972 14.346433 11.523656 13.570312 11.160156 C 13.059463 10.914546 12.58853 10.634692 12.15625 10.320312 C 11.72398 10.005962 11.305134 9.6276569 10.902344 9.1855469 C 10.499524 8.7336369 10.165641 8.3457044 9.9003906 8.0214844 C 9.6449806 7.6874844 9.3072056 7.2223469 8.8847656 6.6230469 C 8.3444056 5.8763469 8.0742188 5.3745906 8.0742188 5.1191406 C 8.0742187 5.0405606 8.1282681 5.0019531 8.2363281 5.0019531 L 13.585938 5.0019531 C 13.821708 5.0019531 13.939423 4.9324719 13.939453 4.7949219 C 13.939413 4.7261519 13.781167 4.5640437 13.466797 4.3085938 C 13.152407 4.0433438 12.957506 3.9101663 12.878906 3.9101562 C 12.810136 3.9101663 12.680791 4.0375287 12.494141 4.2929688 C 12.317281 4.5484088 12.145516 4.6777444 11.978516 4.6777344 L 8.015625 4.6777344 L 8.015625 2.3183594 C 8.015615 2.2102994 8.0735163 2.1079656 8.1914062 2.0097656 C 8.3092662 1.9017056 8.3691206 1.8129406 8.3691406 1.7441406 C 8.3691206 1.6360806 8.2263063 1.5434438 7.9414062 1.4648438 C 7.6663063 1.3764138 7.4539906 1.3320413 7.3066406 1.3320312 z "
       fill="url(#a)"
       id="base" />
  </g>
</svg>
