<?xml version="1.0" encoding="UTF-8" standalone="no"?>
<svg
   xmlns:dc="http://purl.org/dc/elements/1.1/"
   xmlns:cc="http://creativecommons.org/ns#"
   xmlns:rdf="http://www.w3.org/1999/02/22-rdf-syntax-ns#"
   xmlns:svg="http://www.w3.org/2000/svg"
   xmlns="http://www.w3.org/2000/svg"
   xmlns:sodipodi="http://sodipodi.sourceforge.net/DTD/sodipodi-0.dtd"
   xmlns:inkscape="http://www.inkscape.org/namespaces/inkscape"
   id="svg2"
   width="16"
   height="16"
   version="1.0"
   sodipodi:docname="bootloader.svg"
   inkscape:version="0.92.2 5c3e80d, 2017-08-06">
  <metadata
     id="metadata31">
    <rdf:RDF>
      <cc:Work
         rdf:about="">
        <dc:format>image/svg+xml</dc:format>
        <dc:type
           rdf:resource="http://purl.org/dc/dcmitype/StillImage" />
      </cc:Work>
    </rdf:RDF>
  </metadata>
  <sodipodi:namedview
     pagecolor="#ffffff"
     bordercolor="#666666"
     borderopacity="1"
     objecttolerance="10"
     gridtolerance="10"
     guidetolerance="10"
     inkscape:pageopacity="0"
     inkscape:pageshadow="2"
     inkscape:window-width="640"
     inkscape:window-height="480"
     id="namedview29"
     showgrid="false"
     inkscape:zoom="14.75"
     inkscape:cx="8"
     inkscape:cy="8"
     inkscape:window-x="0"
     inkscape:window-y="25"
     inkscape:window-maximized="0"
     inkscape:current-layer="svg2" />
  <defs
     id="defs4">
    <linearGradient
       id="linearGradient3204"
       x1="1"
       x2="15"
       y1="9"
       y2="9"
       gradientTransform="translate(-17,-2)"
       gradientUnits="userSpaceOnUse">
      <stop
         id="stop3189"
         stop-color="#202020"
         offset="0" />
      <stop
         id="stop3191"
         stop-color="#494949"
         offset="1" />
    </linearGradient>
    <linearGradient
       id="linearGradient3629"
       x2="29.017"
       y1="8"
       y2="8"
       gradientTransform="matrix(0,-1,1,0,0,16)"
       gradientUnits="userSpaceOnUse">
      <stop
         id="stop3330"
         offset="0" />
      <stop
         id="stop3333"
         stop-opacity="0"
         offset="1" />
    </linearGradient>
  </defs>
  <g
     id="layer1">
    <rect
       id="rect3196"
       transform="rotate(-90)"
       x="-16"
       width="16"
       height="16"
       rx="2"
       ry="2"
       fill="url(#linearGradient3204)" />
    <path
       id="rect2835"
       d="m0 14c0 1.108 0.892 2 2 2h12c1.108 0 2-0.892 2-2v-12c0-1.108-0.892-2-2-2h-12c-1.108 0-2 0.892-2 2v12zm0.96875 0v-12c0-0.5832 0.44805-1.0312 1.0312-1.0312h12c0.5832 0 1.0312 0.44805 1.0312 1.0312v12c0 0.5832-0.44805 1.0312-1.0312 1.0312h-12c-0.5832 0-1.0312-0.44805-1.0312-1.0312z"
       fill="url(#linearGradient3629)"
       opacity=".4" />
    <path
       id="path2843"
       d="m2 0.96875c-0.5832 0-1.0312 0.44805-1.0312 1.0312v1c0-0.5832 0.44805-1.0312 1.0312-1.0312h12c0.5832 0 1.0312 0.44805 1.0312 1.0312v-1c0-0.5832-0.44805-1.0312-1.0312-1.0312h-12z"
       fill="#fff"
       opacity=".35" />
  </g>
  <defs
     id="defs21">
    <filter
       id="w">
      <feGaussianBlur
         stdDeviation="0.26998568"
         id="feGaussianBlur13" />
    </filter>
    <linearGradient
       id="a"
       gradientUnits="userSpaceOnUse"
       x1="8"
       y1="1"
       x2="8"
       y2="14.999294">
      <stop
         stop-color="#ffffff"
         offset="0"
         id="stop16" />
      <stop
         stop-color="#ffffff"
         offset="1"
         id="stop18" />
    </linearGradient>
  </defs>
  <g
     id="main"
     transform="translate(1,1) scale(0.85714)">
    <path
       style="opacity:0.3;fill:#000000"
       inkscape:connector-curvature="0"
       id="path23"
       d="M 8,2 C 7.446,2 7,2.446 7,3 V 8 C 7,8.554 7.446,9 8,9 8.554,9 9,8.554 9,8 V 3 C 9,2.446 8.554,2 8,2 Z M 4.9375,2.78125 C 4.78214,2.79815 4.63094,2.85215 4.5,2.9375 3.4401,3.54885 2.552,4.4419 1.9375,5.5 0.0018,8.8328 1.16719,13.1268 4.5,15.0625 c 3.33281,1.9357 7.6268,0.77031 9.5625,-2.5625 0.28926,-0.45976 0.11195,-1.1471 -0.36328,-1.4102 -0.47523,-0.26308 -1.1507,-0.04784 -1.3867,0.44141 -1.3928,2.3981 -4.4456,3.1741 -6.8438,1.7812 -2.3982,-1.3929 -3.1741,-4.4456 -1.7812,-6.8438 0.43899,-0.75585 1.0553,-1.3758 1.8125,-1.8125 C 5.89942,4.43879 6.11114,3.9256 5.98049,3.49011 5.84983,3.05459 5.39059,2.74271 4.93749,2.78113 Z M 11.125,2.8125 c -0.38673,-0.048 -0.79289,0.14128 -1,0.5 -0.27614,0.47829 -0.10329,1.0676 0.375,1.3438 0.47829,0.2762 1.0989,0.13454 1.375,-0.34375 0.2761,-0.47829 0.10329,-1.0989 -0.375,-1.375 -0.11957,-0.069 -0.24609,-0.109 -0.375,-0.125 z M 13.0625,5 c -0.12891,0.016 -0.25543,0.056 -0.375,0.125 -0.47829,0.27614 -0.61989,0.89671 -0.34375,1.375 0.27614,0.47829 0.86546,0.65114 1.3438,0.375 0.47834,-0.27614 0.65114,-0.89671 0.375,-1.375 -0.20711,-0.35872 -0.61327,-0.54799 -1,-0.5 z M 14,8 c -0.55228,0 -1,0.44772 -1,1 0,0.55228 0.44772,1 1,1 0.55228,0 1,-0.44772 1,-1 0,-0.55228 -0.44772,-1 -1,-1 z" />
    <path
       d="m8 1c-0.554 0-1 0.446-1 1v5c0 0.554 0.446 1 1 1s1-0.446 1-1v-5c0-0.554-0.446-1-1-1zm-3.0625 0.78125c-0.15536 0.0169-0.30656 0.0709-0.4375 0.15625-1.0599 0.61135-1.948 1.5044-2.5625 2.5625-1.9357 3.3328-0.77031 7.6268 2.5625 9.5625s7.6268 0.77031 9.5625-2.5625c0.28926-0.45976 0.11195-1.1471-0.36328-1.4102-0.47523-0.26308-1.1507-0.047844-1.3867 0.44141-1.3928 2.3981-4.4456 3.1741-6.8438 1.7812s-3.1741-4.4456-1.7812-6.8438c0.43899-0.75585 1.0553-1.3758 1.8125-1.8125 0.3994-0.21732 0.61112-0.73051 0.48047-1.166-0.13066-0.43552-0.5899-0.7474-1.043-0.70898zm6.1875 0.03125c-0.38673-0.048-0.79289 0.14128-1 0.5-0.27614 0.47829-0.10329 1.0676 0.375 1.3438s1.0989 0.13454 1.375-0.34375 0.10329-1.0989-0.375-1.375c-0.11957-0.069-0.24609-0.109-0.375-0.125zm1.9375 2.1875c-0.12891 0.016-0.25543 0.056-0.375 0.125-0.47829 0.27614-0.61989 0.89671-0.34375 1.375s0.86546 0.65114 1.3438 0.375 0.65114-0.89671 0.375-1.375c-0.20711-0.35872-0.61327-0.54799-1-0.5zm0.9375 3c-0.55228 0-1 0.44772-1 1s0.44772 1 1 1 1-0.44772 1-1-0.44772-1-1-1z"
       fill="url(#a)"
       id="base" />
  </g>
</svg>
