<?xml version="1.0" encoding="UTF-8" standalone="no"?>
<svg
   xmlns:dc="http://purl.org/dc/elements/1.1/"
   xmlns:cc="http://creativecommons.org/ns#"
   xmlns:rdf="http://www.w3.org/1999/02/22-rdf-syntax-ns#"
   xmlns:svg="http://www.w3.org/2000/svg"
   xmlns="http://www.w3.org/2000/svg"
   xmlns:sodipodi="http://sodipodi.sourceforge.net/DTD/sodipodi-0.dtd"
   xmlns:inkscape="http://www.inkscape.org/namespaces/inkscape"
   id="svg2"
   width="16"
   height="16"
   version="1.0"
   sodipodi:docname="curlew.svg"
   inkscape:version="0.92.2 5c3e80d, 2017-08-06">
  <metadata
     id="metadata31">
    <rdf:RDF>
      <cc:Work
         rdf:about="">
        <dc:format>image/svg+xml</dc:format>
        <dc:type
           rdf:resource="http://purl.org/dc/dcmitype/StillImage" />
      </cc:Work>
    </rdf:RDF>
  </metadata>
  <sodipodi:namedview
     pagecolor="#ffffff"
     bordercolor="#666666"
     borderopacity="1"
     objecttolerance="10"
     gridtolerance="10"
     guidetolerance="10"
     inkscape:pageopacity="0"
     inkscape:pageshadow="2"
     inkscape:window-width="640"
     inkscape:window-height="480"
     id="namedview29"
     showgrid="false"
     inkscape:zoom="14.75"
     inkscape:cx="8"
     inkscape:cy="8"
     inkscape:window-x="0"
     inkscape:window-y="25"
     inkscape:window-maximized="0"
     inkscape:current-layer="svg2" />
  <defs
     id="defs4">
    <linearGradient
       id="linearGradient3204"
       x1="1"
       x2="15"
       y1="9"
       y2="9"
       gradientTransform="translate(-17,-2)"
       gradientUnits="userSpaceOnUse">
      <stop
         id="stop3189"
         stop-color="#ffb686"
         offset="0" />
      <stop
         id="stop3191"
         stop-color="#20b8e8"
         offset="1" />
    </linearGradient>
    <linearGradient
       id="linearGradient3629"
       x2="29.017"
       y1="8"
       y2="8"
       gradientTransform="matrix(0,-1,1,0,0,16)"
       gradientUnits="userSpaceOnUse">
      <stop
         id="stop3330"
         offset="0" />
      <stop
         id="stop3333"
         stop-opacity="0"
         offset="1" />
    </linearGradient>
  </defs>
  <g
     id="layer1">
    <rect
       id="rect3196"
       transform="rotate(-90)"
       x="-16"
       width="16"
       height="16"
       rx="2"
       ry="2"
       fill="url(#linearGradient3204)" />
    <path
       id="rect2835"
       d="m0 14c0 1.108 0.892 2 2 2h12c1.108 0 2-0.892 2-2v-12c0-1.108-0.892-2-2-2h-12c-1.108 0-2 0.892-2 2v12zm0.96875 0v-12c0-0.5832 0.44805-1.0312 1.0312-1.0312h12c0.5832 0 1.0312 0.44805 1.0312 1.0312v12c0 0.5832-0.44805 1.0312-1.0312 1.0312h-12c-0.5832 0-1.0312-0.44805-1.0312-1.0312z"
       fill="url(#linearGradient3629)"
       opacity=".4" />
    <path
       id="path2843"
       d="m2 0.96875c-0.5832 0-1.0312 0.44805-1.0312 1.0312v1c0-0.5832 0.44805-1.0312 1.0312-1.0312h12c0.5832 0 1.0312 0.44805 1.0312 1.0312v-1c0-0.5832-0.44805-1.0312-1.0312-1.0312h-12z"
       fill="#fff"
       opacity=".35" />
  </g>
  <defs
     id="defs21">
    <filter
       id="w">
      <feGaussianBlur
         stdDeviation="0.26998568"
         id="feGaussianBlur13" />
    </filter>
    <linearGradient
       id="a"
       gradientUnits="userSpaceOnUse"
       x1="8"
       y1="1.000176"
       x2="8"
       y2="15.000194">
      <stop
         stop-color="#001c37"
         offset="0"
         id="stop16" />
      <stop
         stop-color="#001c37"
         offset="1"
         id="stop18" />
    </linearGradient>
  </defs>
  <g
     id="main"
     transform="translate(1,1) scale(0.85714)">
    <path
       style="opacity:0.3;fill:#000000;enable-background:new"
       inkscape:connector-curvature="0"
       id="path23"
       d="M 7.7148,15.758 C 7.23917,15.51101 7.14565,15.37832 7.3526,15.24414 7.60509,15.08043 7.46063,14.12884 7.02076,13.05854 6.58839,12.00634 6.5825,11.97394 6.78128,11.74124 7.2453,11.19808 7.22129,11.16764 6.39488,11.2515 c -2.2948,0.23281 -2.6978,0.30825 -3.4898,0.65331 -1.043,0.45445 -1.9051,0.72511 -1.9051,0.59808 0,-0.05373 0.13791,-0.1385 0.30648,-0.18808 L 1.61294,12.22473 1.28796,12.15595 c -0.32407,-0.0684 -0.32314,-0.06987 0.33436,-0.52508 0.36262,-0.25102 1.3865,-1.2082 2.2753,-2.1269 1.5989,-1.6529 3.2538,-3.0326 4.3126,-3.5955 0.31705,-0.16854 0.60299,-0.41998 0.68045,-0.59831 0.0735,-0.16918 0.1336,-0.79788 0.1336,-1.3971 0,-1.2702 0.1647,-1.6079 0.8965,-1.8379 0.40885,-0.12852 0.47599,-0.11369 0.98497,0.2183 0.33906,0.22111 0.77271,0.38566 1.1434,0.43387 1.4776,0.19216 2.7104,0.61434 2.942,1.0075 0.04177,0.070859 -0.06988,0.049687 -0.24781,-0.046872 -0.96437,-0.52318 -2.8457,-0.71055 -3.5607,-0.35461 -0.58482,0.29113 -0.63052,0.4755 -0.42355,1.7086 0.28071,1.6726 0.08318,3.0078 -0.58014,3.9201 C 10.01956,9.18127 9.586,9.59477 9.21547,9.88093 c -0.37052,0.28615 -0.73899,0.6523 -0.81879,0.8137 -0.0798,0.16136 -0.24185,0.42244 -0.36009,0.58016 -0.18492,0.2466 -0.21665,0.49355 -0.22679,1.7651 -0.007,0.93154 0.034067,1.5363 0.11223,1.6351 0.068133,0.08615 0.092867,0.28685 0.054833,0.4459 -0.0777,0.32456 0.16769,0.53236 0.62864,0.53236 0.14555,0 0.36199,0.07723 0.48097,0.17166 0.19964,0.15839 0.17331,0.17193 -0.3409,0.17527 -0.34804,0.0013 -0.73507,-0.08872 -1.0309,-0.24234 z M 7.45302,12.7011 c -0.00583,-0.20903 0.025667,-0.60361 0.070467,-0.87692 0.09135,-0.55819 -0.048883,-0.66224 -0.28058,-0.20807 -0.17462,0.34231 -0.17708,0.88753 -0.00583,1.2239 0.17219,0.33752 0.22822,0.30144 0.21562,-0.13887 z" />
    <path
       d="m7.7148 14.758c-0.47563-0.24699-0.56915-0.37968-0.3622-0.51386 0.25249-0.16371 0.10803-1.1153-0.33184-2.1856-0.43237-1.0522-0.43826-1.0846-0.23948-1.3173 0.46402-0.54316 0.44001-0.5736-0.3864-0.48974-2.2948 0.23281-2.6978 0.30825-3.4898 0.65331-1.043 0.45445-1.9051 0.72511-1.9051 0.59808 0-0.05373 0.13791-0.1385 0.30648-0.18808l0.30648-0.090076-0.32498-0.068782c-0.32407-0.068404-0.32314-0.069872 0.33436-0.52508 0.36262-0.25102 1.3865-1.2082 2.2753-2.1269 1.5989-1.6529 3.2538-3.0326 4.3126-3.5955 0.31705-0.16854 0.60299-0.41998 0.68045-0.59831 0.0735-0.16918 0.1336-0.79788 0.1336-1.3971 0-1.2702 0.1647-1.6079 0.8965-1.8379 0.40885-0.12852 0.47599-0.11369 0.98497 0.2183 0.33906 0.22111 0.77271 0.38566 1.1434 0.43387 1.4776 0.19216 2.7104 0.61434 2.942 1.0075 0.04177 0.070859-0.06988 0.049687-0.24781-0.046872-0.96437-0.52318-2.8457-0.71055-3.5607-0.35461-0.58482 0.29113-0.63052 0.4755-0.42355 1.7086 0.28071 1.6726 0.08318 3.0078-0.58014 3.9201-0.15938 0.21922-0.59294 0.63272-0.96347 0.91888-0.37052 0.28615-0.73899 0.6523-0.81879 0.8137-0.0798 0.16136-0.24185 0.42244-0.36009 0.58016-0.18492 0.2466-0.21665 0.49355-0.22679 1.7651-7e-3 0.93154 0.034067 1.5363 0.11223 1.6351 0.068133 0.08615 0.092867 0.28685 0.054833 0.4459-0.0777 0.32456 0.16769 0.53236 0.62864 0.53236 0.14555 0 0.36199 0.07723 0.48097 0.17166 0.19964 0.15839 0.17331 0.17193-0.3409 0.17527-0.34804 0.0013-0.73507-0.08872-1.0309-0.24234zm-0.26178-3.0569c-0.00583-0.20903 0.025667-0.60361 0.070467-0.87692 0.09135-0.55819-0.048883-0.66224-0.28058-0.20807-0.17462 0.34231-0.17708 0.88753-0.00583 1.2239 0.17219 0.33752 0.22822 0.30144 0.21562-0.13887z"
       enable-background="new"
       fill="url(#a)"
       id="base" />
  </g>
</svg>
