<?xml version="1.0" encoding="UTF-8" standalone="no"?>
<svg
   xmlns:dc="http://purl.org/dc/elements/1.1/"
   xmlns:cc="http://creativecommons.org/ns#"
   xmlns:rdf="http://www.w3.org/1999/02/22-rdf-syntax-ns#"
   xmlns:svg="http://www.w3.org/2000/svg"
   xmlns="http://www.w3.org/2000/svg"
   xmlns:sodipodi="http://sodipodi.sourceforge.net/DTD/sodipodi-0.dtd"
   xmlns:inkscape="http://www.inkscape.org/namespaces/inkscape"
   id="svg2"
   width="16"
   height="16"
   version="1.0"
   sodipodi:docname="hexchat.svg"
   inkscape:version="0.92.2 5c3e80d, 2017-08-06">
  <metadata
     id="metadata31">
    <rdf:RDF>
      <cc:Work
         rdf:about="">
        <dc:format>image/svg+xml</dc:format>
        <dc:type
           rdf:resource="http://purl.org/dc/dcmitype/StillImage" />
      </cc:Work>
    </rdf:RDF>
  </metadata>
  <sodipodi:namedview
     pagecolor="#ffffff"
     bordercolor="#666666"
     borderopacity="1"
     objecttolerance="10"
     gridtolerance="10"
     guidetolerance="10"
     inkscape:pageopacity="0"
     inkscape:pageshadow="2"
     inkscape:window-width="1366"
     inkscape:window-height="743"
     id="namedview29"
     showgrid="false"
     inkscape:zoom="29.5"
     inkscape:cx="7.3169296"
     inkscape:cy="6.5835693"
     inkscape:window-x="0"
     inkscape:window-y="25"
     inkscape:window-maximized="1"
     inkscape:current-layer="svg2" />
  <defs
     id="defs4">
    <linearGradient
       id="linearGradient3204"
       x1="1"
       x2="15"
       y1="9"
       y2="9"
       gradientTransform="translate(-17,-2)"
       gradientUnits="userSpaceOnUse">
      <stop
         id="stop3189"
         stop-color="#dcdcdc"
         offset="0" />
      <stop
         id="stop3191"
         stop-color="#f0f0f0"
         offset="1" />
    </linearGradient>
    <linearGradient
       id="linearGradient3629"
       x2="29.017"
       y1="8"
       y2="8"
       gradientTransform="matrix(0,-1,1,0,0,16)"
       gradientUnits="userSpaceOnUse">
      <stop
         id="stop3330"
         offset="0" />
      <stop
         id="stop3333"
         stop-opacity="0"
         offset="1" />
    </linearGradient>
  </defs>
  <g
     id="layer1">
    <rect
       id="rect3196"
       transform="rotate(-90)"
       x="-16"
       width="16"
       height="16"
       rx="2"
       ry="2"
       fill="url(#linearGradient3204)" />
    <path
       id="rect2835"
       d="m0 14c0 1.108 0.892 2 2 2h12c1.108 0 2-0.892 2-2v-12c0-1.108-0.892-2-2-2h-12c-1.108 0-2 0.892-2 2v12zm0.96875 0v-12c0-0.5832 0.44805-1.0312 1.0312-1.0312h12c0.5832 0 1.0312 0.44805 1.0312 1.0312v12c0 0.5832-0.44805 1.0312-1.0312 1.0312h-12c-0.5832 0-1.0312-0.44805-1.0312-1.0312z"
       fill="url(#linearGradient3629)"
       opacity=".4" />
    <path
       id="path2843"
       d="m2 0.96875c-0.5832 0-1.0312 0.44805-1.0312 1.0312v1c0-0.5832 0.44805-1.0312 1.0312-1.0312h12c0.5832 0 1.0312 0.44805 1.0312 1.0312v-1c0-0.5832-0.44805-1.0312-1.0312-1.0312h-12z"
       fill="#fff"
       opacity=".35" />
  </g>
  <defs
     id="defs21">
    <filter
       id="w">
      <feGaussianBlur
         stdDeviation="0.26998568"
         id="feGaussianBlur13" />
    </filter>
    <linearGradient
       id="a"
       gradientUnits="userSpaceOnUse"
       x1="8"
       y1="1.9999238"
       x2="8"
       y2="14.0001368"
       gradientTransform="matrix(0.85714,0,0,0.85714,1,1)">
      <stop
         stop-color="#ffd600"
         offset="0"
         id="stop16" />
      <stop
         stop-color="#ff2600"
         offset="1"
         id="stop18" />
    </linearGradient>
  </defs>
  <path
     d="M 7.8671485,3.57142 C 6.497096,3.5689382 5.1272148,3.6371815 4.8671585,3.7790107 4.3469688,4.0626641 1.8582543,8.1349962 1.85714,8.7042229 1.85599,9.2734153 4.3280175,13.352236 4.8471015,13.637835 c 0.5190411,0.285539 5.4797815,0.29537 5.9999795,0.01172 C 11.367271,13.365899 13.855986,9.2935666 13.8571,8.72434 13.858214,8.1551476 11.386223,4.0763269 10.867139,3.7907278 10.607614,3.6479626 9.2372011,3.5739057 7.8671485,3.57142 Z m -0.00167,1.2203959 c 0.6614892,0.0012 1.3259099,0.019892 1.8281082,0.053571 0.2114822,0.014182 0.3696843,0.032108 0.5005523,0.048549 0.03196,0.039787 0.0802,0.1059426 0.117188,0.1540195 L 7.8570771,7.5022049 5.4078853,5.0530131 C 5.4493623,4.9998911 5.5017593,4.9288563 5.5367906,4.885605 5.6676416,4.869655 5.8258525,4.852124 6.0373432,4.83873 6.5394901,4.806928 7.2039107,4.790656 7.8654514,4.791855 Z m 3.4134735,1.7125658 c 0.05731,0.092451 0.107392,0.1609366 0.164066,0.2544677 0.329681,0.5440782 0.643472,1.1008249 0.863825,1.5301663 0.09262,0.1804365 0.157166,0.3179647 0.207591,0.4335928 -0.05089,0.1155168 -0.115602,0.2545963 -0.209262,0.4352643 -0.222111,0.4284672 -0.538635,0.9805682 -0.870511,1.5233952 -0.05421,0.08866 -0.102617,0.153265 -0.157363,0.24107 L 9.0691304,8.7141743 11.278923,6.5043817 Z M 4.4369171,6.5060531 6.6450812,8.7142171 4.4352885,10.92401 C 4.3779827,10.831559 4.3278975,10.763073 4.2712234,10.669542 3.9415416,10.125464 3.6277512,9.5687172 3.4073977,9.1393757 3.3147751,8.9589392 3.2502325,8.8214111 3.199807,8.7057829 3.2506919,8.5902661 3.3154094,8.4511866 3.4090691,8.2705186 3.6311798,7.8420515 3.9477045,7.2899505 4.2795805,6.7471237 4.3337895,6.6584611 4.3821973,6.5938585 4.4369428,6.5060531 Z m 3.42016,3.42016 2.4491919,2.4491919 c -0.04148,0.05312 -0.09387,0.124165 -0.128905,0.167408 -0.130894,0.01594 -0.2890108,0.03349 -0.5005529,0.04688 -0.5022669,0.03177 -1.1665676,0.0481 -1.8281082,0.04688 -0.6615835,-0.0012 -1.3259956,-0.01994 -1.8281082,-0.05357 -0.2114393,-0.01416 -0.3697273,-0.03213 -0.5005526,-0.04855 -0.031965,-0.03979 -0.080207,-0.105942 -0.1171882,-0.154019 l 2.454249,-2.4542492 z"
     id="path23"
     inkscape:connector-curvature="0"
     style="opacity:1;fill:#ffffff;stroke-width:0.85714" />
  <path
     style="opacity:0.3;fill:#000000;stroke-width:0.85714"
     inkscape:connector-curvature="0"
     id="path832"
     d="M 7.8671485,2.0712018 C 6.497096,2.06872 5.1272148,2.1369633 4.8671585,2.2787925 4.3469688,2.5624459 1.8582543,6.634778 1.85714,7.2040047 1.85599,7.7731971 4.3280175,11.852019 4.8471015,12.137618 c 0.5190411,0.285539 5.4797815,0.29537 5.9999795,0.01172 C 11.367271,11.865682 13.855986,7.7933484 13.8571,7.2241218 13.858214,6.6549294 11.386223,2.5761087 10.867139,2.2905096 10.607614,2.1477444 9.2372011,2.0736875 7.8671485,2.0712018 Z m -0.00167,1.2203959 c 0.6614892,0.0012 1.3259099,0.019892 1.8281082,0.053571 0.2114822,0.014182 0.3696843,0.032108 0.5005523,0.048549 0.03196,0.039787 0.0802,0.1059426 0.117188,0.1540195 L 7.8570771,6.0019867 5.4078853,3.5527949 c 0.041477,-0.053122 0.093874,-0.1241568 0.1289053,-0.1674081 0.130851,-0.01595 0.2890619,-0.033481 0.5005526,-0.046875 0.5021469,-0.031802 1.1665675,-0.048074 1.8281082,-0.046875 z m 3.4134735,1.7125658 c 0.05731,0.092451 0.107392,0.1609366 0.164066,0.2544677 0.329681,0.5440782 0.643472,1.1008249 0.863825,1.5301663 0.09262,0.1804365 0.157166,0.3179647 0.207591,0.4335928 -0.05089,0.1155168 -0.115602,0.2545963 -0.209262,0.4352643 -0.222111,0.4284672 -0.538635,0.9805682 -0.870511,1.5233952 -0.05421,0.08866 -0.102617,0.153265 -0.157363,0.24107 L 9.0691304,7.2139561 11.278923,5.0041635 Z m -6.8420349,0.00167 2.2081641,2.208164 -2.2097927,2.2097929 C 4.3779827,9.3313408 4.3278975,9.2628548 4.2712234,9.1693238 3.9415416,8.6252458 3.6277512,8.068499 3.4073977,7.6391575 3.3147751,7.458721 3.2502325,7.3211929 3.199807,7.2055647 3.2506919,7.0900479 3.3154094,6.9509684 3.4090691,6.7703004 3.6311798,6.3418333 3.9477045,5.7897323 4.2795805,5.2469055 4.3337895,5.1582429 4.3821973,5.0936403 4.4369428,5.0058349 Z m 3.42016,3.42016 2.4491919,2.4491925 c -0.04148,0.05312 -0.09387,0.124165 -0.128905,0.167408 -0.130894,0.01594 -0.2890108,0.03349 -0.5005529,0.04688 -0.5022669,0.03177 -1.1665676,0.0481 -1.8281082,0.04688 -0.6615835,-0.0012 -1.3259956,-0.01994 -1.8281082,-0.05357 -0.2114393,-0.01416 -0.3697273,-0.03213 -0.5005526,-0.04855 -0.031965,-0.03979 -0.080207,-0.105942 -0.1171882,-0.154019 l 2.454249,-2.4542498 z" />
  <path
     inkscape:connector-curvature="0"
     style="fill:url(#a);stroke-width:0.85714"
     id="base"
     d="M 7.8671485,2.71428 C 6.497096,2.7117982 5.1272148,2.7800415 4.8671585,2.9218707 4.3469688,3.2055241 1.8582543,7.2778562 1.85714,7.8470829 1.85599,8.4162753 4.3280175,12.495096 4.8471015,12.780695 c 0.5190411,0.285539 5.4797815,0.29537 5.9999795,0.01172 C 11.367271,12.508759 13.855986,8.4364266 13.8571,7.8672 13.858214,7.2980076 11.386223,3.2191869 10.867139,2.9335878 10.607614,2.7908226 9.2372011,2.7167657 7.8671485,2.71428 Z m -0.00167,1.2203959 c 0.6614892,0.0012 1.3259099,0.019892 1.8281084,0.053571 0.2114821,0.014182 0.3696841,0.032108 0.5005521,0.048549 0.03196,0.039787 0.0802,0.1059426 0.117188,0.1540195 L 7.8570771,6.6450649 5.4078853,4.1958731 C 5.4493623,4.1427511 5.5017593,4.0717163 5.5367906,4.028465 5.6676416,4.012515 5.8258525,3.994984 6.0373432,3.98159 6.5394901,3.949788 7.2039107,3.933516 7.8654514,3.934715 Z m 3.4134745,1.7125658 c 0.05731,0.092451 0.107391,0.1609366 0.164065,0.2544677 0.329682,0.5440782 0.643472,1.1008249 0.863825,1.5301663 0.09262,0.1804365 0.157166,0.3179647 0.207591,0.4335928 -0.05089,0.1155168 -0.115602,0.2545963 -0.209262,0.4352643 C 12.08306,8.7292 11.766536,9.281301 11.43466,9.8241277 11.380454,9.9127903 11.332043,9.9773929 11.277297,10.065198 L 9.0691304,7.8570343 11.278923,5.6472417 Z M 4.4369171,5.6489131 6.6450812,7.8570771 4.4352885,10.06687 C 4.3779827,9.9744186 4.3278975,9.9059331 4.2712234,9.812402 3.9415416,9.2683239 3.6277512,8.7115772 3.4073977,8.2822357 3.3147751,8.1017992 3.2502325,7.9642711 3.199807,7.8486429 3.2506919,7.7331261 3.3154094,7.5940466 3.4090691,7.4133786 3.6311798,6.9849115 3.9477045,6.4328105 4.2795805,5.8899837 4.3337895,5.8013211 4.3821973,5.7367185 4.4369428,5.6489131 Z m 3.42016,3.42016 2.4491919,2.4491919 c -0.04148,0.05312 -0.09387,0.124165 -0.128905,0.167408 -0.130894,0.01594 -0.2890106,0.03349 -0.5005528,0.04688 -0.502267,0.03177 -1.1665677,0.0481 -1.8281083,0.04688 -0.6615835,-0.0012 -1.3259956,-0.01994 -1.8281082,-0.05357 -0.2114393,-0.01416 -0.3697273,-0.03213 -0.5005526,-0.04855 -0.031965,-0.03979 -0.080207,-0.105942 -0.1171882,-0.154019 l 2.454249,-2.4542492 z" />
</svg>
