<?xml version="1.0" encoding="UTF-8" standalone="no"?>
<svg
   xmlns:dc="http://purl.org/dc/elements/1.1/"
   xmlns:cc="http://creativecommons.org/ns#"
   xmlns:rdf="http://www.w3.org/1999/02/22-rdf-syntax-ns#"
   xmlns:svg="http://www.w3.org/2000/svg"
   xmlns="http://www.w3.org/2000/svg"
   xmlns:sodipodi="http://sodipodi.sourceforge.net/DTD/sodipodi-0.dtd"
   xmlns:inkscape="http://www.inkscape.org/namespaces/inkscape"
   id="svg2"
   width="16"
   height="16"
   version="1.0"
   sodipodi:docname="hydrogen.svg"
   inkscape:version="0.92.2 5c3e80d, 2017-08-06">
  <metadata
     id="metadata31">
    <rdf:RDF>
      <cc:Work
         rdf:about="">
        <dc:format>image/svg+xml</dc:format>
        <dc:type
           rdf:resource="http://purl.org/dc/dcmitype/StillImage" />
      </cc:Work>
    </rdf:RDF>
  </metadata>
  <sodipodi:namedview
     pagecolor="#ffffff"
     bordercolor="#666666"
     borderopacity="1"
     objecttolerance="10"
     gridtolerance="10"
     guidetolerance="10"
     inkscape:pageopacity="0"
     inkscape:pageshadow="2"
     inkscape:window-width="1366"
     inkscape:window-height="743"
     id="namedview29"
     showgrid="false"
     inkscape:zoom="29.5"
     inkscape:cx="9.0260425"
     inkscape:cy="8.1561768"
     inkscape:window-x="0"
     inkscape:window-y="25"
     inkscape:window-maximized="1"
     inkscape:current-layer="svg2" />
  <defs
     id="defs4">
    <linearGradient
       id="linearGradient3204"
       x1="1"
       x2="15"
       y1="9"
       y2="9"
       gradientTransform="translate(-17,-2)"
       gradientUnits="userSpaceOnUse">
      <stop
         id="stop3189"
         stop-color="#cfd4e2"
         offset="0" />
      <stop
         id="stop3191"
         stop-color="#e1e4ed"
         offset="1" />
    </linearGradient>
    <linearGradient
       id="linearGradient3629"
       x2="29.017"
       y1="8"
       y2="8"
       gradientTransform="matrix(0,-1,1,0,0,16)"
       gradientUnits="userSpaceOnUse">
      <stop
         id="stop3330"
         offset="0" />
      <stop
         id="stop3333"
         stop-opacity="0"
         offset="1" />
    </linearGradient>
  </defs>
  <g
     id="layer1">
    <rect
       id="rect3196"
       transform="rotate(-90)"
       x="-16"
       width="16"
       height="16"
       rx="2"
       ry="2"
       fill="url(#linearGradient3204)" />
    <path
       id="rect2835"
       d="m0 14c0 1.108 0.892 2 2 2h12c1.108 0 2-0.892 2-2v-12c0-1.108-0.892-2-2-2h-12c-1.108 0-2 0.892-2 2v12zm0.96875 0v-12c0-0.5832 0.44805-1.0312 1.0312-1.0312h12c0.5832 0 1.0312 0.44805 1.0312 1.0312v12c0 0.5832-0.44805 1.0312-1.0312 1.0312h-12c-0.5832 0-1.0312-0.44805-1.0312-1.0312z"
       fill="url(#linearGradient3629)"
       opacity=".4" />
    <path
       id="path2843"
       d="m2 0.96875c-0.5832 0-1.0312 0.44805-1.0312 1.0312v1c0-0.5832 0.44805-1.0312 1.0312-1.0312h12c0.5832 0 1.0312 0.44805 1.0312 1.0312v-1c0-0.5832-0.44805-1.0312-1.0312-1.0312h-12z"
       fill="#fff"
       opacity=".35" />
  </g>
  <defs
     id="defs21">
    <filter
       id="w">
      <feGaussianBlur
         stdDeviation="0.26998568"
         id="feGaussianBlur13" />
    </filter>
    <linearGradient
       id="a"
       gradientUnits="userSpaceOnUse"
       x1="8"
       y1="3"
       x2="8"
       y2="13"
       gradientTransform="matrix(0.85714,0,0,0.85714,1,1)">
      <stop
         stop-color="#314277"
         offset="0"
         id="stop16" />
      <stop
         stop-color="#27345e"
         offset="1"
         id="stop18" />
    </linearGradient>
  </defs>
  <path
     d="m 2.071425,4.42856 c -0.1187139,0 -0.214285,0.095571 -0.214285,0.214285 v 8.14283 c 0,0.118714 0.095571,0.214285 0.214285,0.214285 h 2.14285 c 0.1187139,0 0.214285,-0.09557 0.214285,-0.214285 V 10.42854 h 2.57142 v 2.357135 c 0,0.118714 0.095571,0.214285 0.214285,0.214285 h 6.42855 c 0.118714,0 0.214285,-0.09557 0.214285,-0.214285 v -8.14283 c 0,-0.1187139 -0.09557,-0.214285 -0.214285,-0.214285 h -6.42855 c -0.1187139,0 -0.214285,0.095571 -0.214285,0.214285 V 7.85712 H 4.42856 V 4.642845 C 4.42856,4.5241311 4.332989,4.42856 4.214275,4.42856 Z m 5.99998,0.85714 h 4.71427 c 0.118714,0 0.214285,0.095571 0.214285,0.214285 v 3.85713 c 0,0.1187139 -0.09557,0.214285 -0.214285,0.214285 H 9.5714 v 0.85714 h 3.214275 c 0.118714,0 0.214285,0.09557 0.214285,0.214285 v 1.28571 c 0,0.118714 -0.09557,0.214285 -0.214285,0.214285 h -4.71427 c -0.1187139,0 -0.214285,-0.09557 -0.214285,-0.214285 v -3.85713 c 0,-0.1187139 0.095571,-0.214285 0.214285,-0.214285 H 11.28568 V 6.99998 H 8.071405 C 7.9526911,6.99998 7.85712,6.904409 7.85712,6.785695 V 5.499985 C 7.85712,5.3812711 7.952691,5.2857 8.071405,5.2857 Z"
     id="path23"
     inkscape:connector-curvature="0"
     style="opacity:0.6;fill:#ffffff;stroke-width:0.85714" />
  <path
     inkscape:connector-curvature="0"
     style="fill:url(#a);stroke-width:0.85714"
     id="base"
     d="m 2.071425,3.57142 c -0.1187139,0 -0.214285,0.095571 -0.214285,0.214285 v 8.14283 c 0,0.118714 0.095571,0.214285 0.214285,0.214285 h 2.14285 c 0.1187139,0 0.214285,-0.09557 0.214285,-0.214285 V 9.5714 h 2.57142 v 2.357135 c 0,0.118714 0.095571,0.214285 0.214285,0.214285 h 6.42855 c 0.118714,0 0.214285,-0.09557 0.214285,-0.214285 v -8.14283 c 0,-0.1187139 -0.09557,-0.214285 -0.214285,-0.214285 h -6.42855 c -0.1187139,0 -0.214285,0.095571 -0.214285,0.214285 V 6.99998 H 4.42856 V 3.785705 C 4.42856,3.6669911 4.332989,3.57142 4.214275,3.57142 Z m 5.99998,0.85714 h 4.71427 c 0.118714,0 0.214285,0.095571 0.214285,0.214285 v 3.85713 c 0,0.1187139 -0.09557,0.214285 -0.214285,0.214285 H 9.5714 V 9.5714 h 3.214275 c 0.118714,0 0.214285,0.095571 0.214285,0.214285 v 1.28571 c 0,0.118714 -0.09557,0.214285 -0.214285,0.214285 h -4.71427 c -0.1187139,0 -0.214285,-0.09557 -0.214285,-0.214285 v -3.85713 c 0,-0.1187139 0.095571,-0.214285 0.214285,-0.214285 H 11.28568 V 6.14284 H 8.071405 C 7.9526911,6.14284 7.85712,6.047269 7.85712,5.928555 v -1.28571 c 0,-0.1187139 0.095571,-0.214285 0.214285,-0.214285 z" />
</svg>
