<?xml version="1.0" encoding="UTF-8" standalone="no"?>
<svg
   xmlns:dc="http://purl.org/dc/elements/1.1/"
   xmlns:cc="http://creativecommons.org/ns#"
   xmlns:rdf="http://www.w3.org/1999/02/22-rdf-syntax-ns#"
   xmlns:svg="http://www.w3.org/2000/svg"
   xmlns="http://www.w3.org/2000/svg"
   xmlns:sodipodi="http://sodipodi.sourceforge.net/DTD/sodipodi-0.dtd"
   xmlns:inkscape="http://www.inkscape.org/namespaces/inkscape"
   id="svg2"
   width="16"
   height="16"
   version="1.0"
   sodipodi:docname="icarus.svg"
   inkscape:version="0.92.2 5c3e80d, 2017-08-06">
  <metadata
     id="metadata31">
    <rdf:RDF>
      <cc:Work
         rdf:about="">
        <dc:format>image/svg+xml</dc:format>
        <dc:type
           rdf:resource="http://purl.org/dc/dcmitype/StillImage" />
      </cc:Work>
    </rdf:RDF>
  </metadata>
  <sodipodi:namedview
     pagecolor="#ffffff"
     bordercolor="#666666"
     borderopacity="1"
     objecttolerance="10"
     gridtolerance="10"
     guidetolerance="10"
     inkscape:pageopacity="0"
     inkscape:pageshadow="2"
     inkscape:window-width="640"
     inkscape:window-height="480"
     id="namedview29"
     showgrid="false"
     inkscape:zoom="14.75"
     inkscape:cx="8"
     inkscape:cy="8"
     inkscape:window-x="0"
     inkscape:window-y="25"
     inkscape:window-maximized="0"
     inkscape:current-layer="svg2" />
  <defs
     id="defs4">
    <linearGradient
       id="linearGradient3204"
       x1="1"
       x2="15"
       y1="9"
       y2="9"
       gradientTransform="translate(-17,-2)"
       gradientUnits="userSpaceOnUse">
      <stop
         id="stop3189"
         stop-color="#3643B5"
         offset="0" />
      <stop
         id="stop3191"
         stop-color="#8181F6"
         offset="1" />
    </linearGradient>
    <linearGradient
       id="linearGradient3629"
       x2="29.017"
       y1="8"
       y2="8"
       gradientTransform="matrix(0,-1,1,0,0,16)"
       gradientUnits="userSpaceOnUse">
      <stop
         id="stop3330"
         offset="0" />
      <stop
         id="stop3333"
         stop-opacity="0"
         offset="1" />
    </linearGradient>
  </defs>
  <g
     id="layer1">
    <rect
       id="rect3196"
       transform="rotate(-90)"
       x="-16"
       width="16"
       height="16"
       rx="2"
       ry="2"
       fill="url(#linearGradient3204)" />
    <path
       id="rect2835"
       d="m0 14c0 1.108 0.892 2 2 2h12c1.108 0 2-0.892 2-2v-12c0-1.108-0.892-2-2-2h-12c-1.108 0-2 0.892-2 2v12zm0.96875 0v-12c0-0.5832 0.44805-1.0312 1.0312-1.0312h12c0.5832 0 1.0312 0.44805 1.0312 1.0312v12c0 0.5832-0.44805 1.0312-1.0312 1.0312h-12c-0.5832 0-1.0312-0.44805-1.0312-1.0312z"
       fill="url(#linearGradient3629)"
       opacity=".4" />
    <path
       id="path2843"
       d="m2 0.96875c-0.5832 0-1.0312 0.44805-1.0312 1.0312v1c0-0.5832 0.44805-1.0312 1.0312-1.0312h12c0.5832 0 1.0312 0.44805 1.0312 1.0312v-1c0-0.5832-0.44805-1.0312-1.0312-1.0312h-12z"
       fill="#fff"
       opacity=".35" />
  </g>
  <defs
     id="defs21">
    <filter
       id="w">
      <feGaussianBlur
         stdDeviation="0.26998568"
         id="feGaussianBlur13" />
    </filter>
    <linearGradient
       id="a"
       gradientUnits="userSpaceOnUse"
       x1="8"
       y1="0.99997185"
       x2="8"
       y2="14.99997585">
      <stop
         stop-color="#fafafa"
         offset="0"
         id="stop16" />
      <stop
         stop-color="#ebebeb"
         offset="1"
         id="stop18" />
    </linearGradient>
  </defs>
  <g
     id="main">
    <path
       style="opacity:0.4;fill:#000000;filter:url(#w)"
       inkscape:connector-curvature="0"
       id="path23"
       d="M 6.7492,1.0003 C 6.64375,0.99777 6.55514,1.00977 6.49406,1.039756 6.30527,1.132458 6.2649,1.434766 6.40366,1.717176 c 0.29861,0.60789 0.40906,2.7252 0.38139,7.3086 -0.0211,3.4932 -0.0279,3.5635 -0.35198,3.6146 -0.0827,0.01304 -0.40148,-0.01198 -0.7085,-0.05563 -0.44614,-0.06343 -0.57645,-0.06341 -0.64902,0 -0.19435,0.1698 -0.0519,0.40252 0.51294,0.8379 0.34158,0.26331 0.5439,0.50081 0.82954,0.97359 0.14784,0.24469 0.3122,0.48069 0.36514,0.52438 0.0529,0.0437 0.17003,0.07936 0.26023,0.07936 0.22518,0 0.67322,-0.53258 0.83794,-0.99605 0.24149,-0.67945 0.27066,-1.1488 0.19368,-3.1208 -0.10788,-2.7637 -0.11101,-3.0332 -0.0345,-3.0332 0.037,0 0.37444,0.40042 0.74973,0.8898 0.37528,0.48938 0.98345,1.2473 1.3514,1.6843 1.3318,1.5814 1.456,1.6626 2.5616,1.6758 0.75483,0.0091 1.7556,-0.14264 2.0696,-0.31363 0.36785,-0.20025 0.28905,-0.39562 -0.238,-0.59014 -1.9292,-0.71201 -3.2312,-1.5699 -5.1035,-3.3627 L 9.19898,7.610966 9.3407,7.463166 c 0.46937,-0.48939 2.308,-1.9652 2.6967,-2.1645 0.52896,-0.27125 0.61461,-0.40994 0.46209,-0.74829 -0.18551,-0.41153 -1.0862,-1.1177 -1.4256,-1.1177 -0.23696,0 -0.41107,0.2658 -0.47016,0.7178 -0.0622,0.47601 -0.21407,0.79415 -0.65267,1.3666 -0.49452,0.64543 -1.2343,1.4748 -1.3154,1.4748 -0.0435,0 -0.21672,-0.16454 -0.38503,-0.36553 l -0.306,-0.36542 5.6e-4,-1.0804 c 8.1e-4,-1.5214 0.081,-2.4981 0.23502,-2.8647 0.15568,-0.3705 0.15741,-0.53861 0.008,-0.73921 C 7.9788,1.296366 7.2066,1.011386 6.74971,1.000206 Z M 3.5844,3.3165 C 3.5078,3.32082 3.45709,3.345271 3.38896,3.392264 c -0.238,0.16416 -0.21106,0.46285 0.0761,0.84523 0.30847,0.41082 0.81523,0.88426 1.1867,1.1086 0.61366,0.37055 1.059,0.18326 1.0562,-0.4442 -0.004,-0.7922 -0.60374,-1.3139 -1.7721,-1.5406 C 3.7638,3.327923 3.66108,3.312143 3.58443,3.31649 Z M 5.054,6.3642 C 4.86826,6.3582 4.69111,6.418436 4.45827,6.54295 c -0.51274,0.2742 -1.3848,0.5657 -1.9267,0.64414 -0.88516,0.1281 -1.0089,0.2035 -0.89476,0.5451 0.0751,0.22488 0.61386,0.53079 0.93478,0.53079 0.12715,0 0.53456,-0.12455 0.91378,-0.27942 0.84651,-0.3457 1.0647,-0.39951 1.1106,-0.27371 0.0186,0.050888 -0.0107,0.27277 -0.0649,0.49308 -0.29898,1.2146 -1.3943,2.6828 -2.9121,3.9033 -0.56477,0.45415 -0.69812,0.62806 -0.57849,0.75399 0.0221,0.02331 0.0927,0.04236 0.15686,0.04236 0.18017,0 1.2416,-0.30914 1.4545,-0.4236 0.82497,-0.44367 1.829,-1.3701 2.3306,-2.1504 C 5.13972,10.08389 5.4493,9.50856 5.67037,9.05008 5.89144,8.5916 6.1808,8.08673 6.31342,7.92808 6.75213,7.40341 6.5925,7.05247 5.70155,6.58328 5.43426,6.44251 5.23993,6.37018 5.05418,6.36415 Z" />
    <path
       d="m6.7492 1.0003c-0.10545-0.00253-0.19406 0.00947-0.25514 0.039456-0.18879 0.092702-0.22916 0.39501-0.0904 0.67742 0.29861 0.60789 0.40906 2.7252 0.38139 7.3086-0.0211 3.4932-0.0279 3.5635-0.35198 3.6146-0.0827 0.01304-0.40148-0.01198-0.7085-0.05563-0.44614-0.06343-0.57645-0.06341-0.64902 0-0.19435 0.1698-0.0519 0.40252 0.51294 0.8379 0.34158 0.26331 0.5439 0.50081 0.82954 0.97359 0.14784 0.24469 0.3122 0.48069 0.36514 0.52438 0.0529 0.0437 0.17003 0.07936 0.26023 0.07936 0.22518 0 0.67322-0.53258 0.83794-0.99605 0.24149-0.67945 0.27066-1.1488 0.19368-3.1208-0.10788-2.7637-0.11101-3.0332-0.0345-3.0332 0.037 0 0.37444 0.40042 0.74973 0.8898 0.37528 0.48938 0.98345 1.2473 1.3514 1.6843 1.3318 1.5814 1.456 1.6626 2.5616 1.6758 0.75483 0.0091 1.7556-0.14264 2.0696-0.31363 0.36785-0.20025 0.28905-0.39562-0.238-0.59014-1.9292-0.71201-3.2312-1.5699-5.1035-3.3627l-0.23237-0.22239 0.14172-0.1478c0.46937-0.48939 2.308-1.9652 2.6967-2.1645 0.52896-0.27125 0.61461-0.40994 0.46209-0.74829-0.18551-0.41153-1.0862-1.1177-1.4256-1.1177-0.23696 0-0.41107 0.2658-0.47016 0.7178-0.0622 0.47601-0.21407 0.79415-0.65267 1.3666-0.49452 0.64543-1.2343 1.4748-1.3154 1.4748-0.0435 0-0.21672-0.16454-0.38503-0.36553l-0.306-0.36542 5.6e-4 -1.0804c8.1e-4 -1.5214 0.081-2.4981 0.23502-2.8647 0.15568-0.3705 0.15741-0.53861 8e-3 -0.73921-0.20941-0.28025-0.98161-0.56523-1.4385-0.57641zm-3.1648 2.3162c-0.0766 0.00432-0.12731 0.028771-0.19544 0.075764-0.238 0.16416-0.21106 0.46285 0.0761 0.84523 0.30847 0.41082 0.81523 0.88426 1.1867 1.1086 0.61366 0.37055 1.059 0.18326 1.0562-0.4442-4e-3 -0.7922-0.60374-1.3139-1.7721-1.5406-0.17206-0.033371-0.27478-0.049151-0.35143-0.044804zm1.4696 3.0477c-0.18574-6e-3 -0.36289 0.054236-0.59573 0.17875-0.51274 0.2742-1.3848 0.5657-1.9267 0.64414-0.88516 0.1281-1.0089 0.2035-0.89476 0.5451 0.0751 0.22488 0.61386 0.53079 0.93478 0.53079 0.12715 0 0.53456-0.12455 0.91378-0.27942 0.84651-0.3457 1.0647-0.39951 1.1106-0.27371 0.0186 0.050888-0.0107 0.27277-0.0649 0.49308-0.29898 1.2146-1.3943 2.6828-2.9121 3.9033-0.56477 0.45415-0.69812 0.62806-0.57849 0.75399 0.0221 0.02331 0.0927 0.04236 0.15686 0.04236 0.18017 0 1.2416-0.30914 1.4545-0.4236 0.82497-0.44367 1.829-1.3701 2.3306-2.1504 0.15728-0.24469 0.46686-0.82002 0.68793-1.2785 0.22107-0.45848 0.51043-0.96335 0.64305-1.122 0.43871-0.52467 0.27908-0.87561-0.61187-1.3448-0.26729-0.14077-0.46162-0.2131-0.64737-0.21913z"
       fill="#fff"
       id="base" />
  </g>
</svg>
