<?xml version="1.0" encoding="UTF-8" standalone="no"?>
<svg
   xmlns:dc="http://purl.org/dc/elements/1.1/"
   xmlns:cc="http://creativecommons.org/ns#"
   xmlns:rdf="http://www.w3.org/1999/02/22-rdf-syntax-ns#"
   xmlns:svg="http://www.w3.org/2000/svg"
   xmlns="http://www.w3.org/2000/svg"
   xmlns:sodipodi="http://sodipodi.sourceforge.net/DTD/sodipodi-0.dtd"
   xmlns:inkscape="http://www.inkscape.org/namespaces/inkscape"
   id="svg2"
   width="16"
   height="16"
   version="1.0"
   sodipodi:docname="mono.svg"
   inkscape:version="0.92.2 5c3e80d, 2017-08-06">
  <metadata
     id="metadata31">
    <rdf:RDF>
      <cc:Work
         rdf:about="">
        <dc:format>image/svg+xml</dc:format>
        <dc:type
           rdf:resource="http://purl.org/dc/dcmitype/StillImage" />
      </cc:Work>
    </rdf:RDF>
  </metadata>
  <sodipodi:namedview
     pagecolor="#ffffff"
     bordercolor="#666666"
     borderopacity="1"
     objecttolerance="10"
     gridtolerance="10"
     guidetolerance="10"
     inkscape:pageopacity="0"
     inkscape:pageshadow="2"
     inkscape:window-width="640"
     inkscape:window-height="480"
     id="namedview29"
     showgrid="false"
     inkscape:zoom="14.75"
     inkscape:cx="8"
     inkscape:cy="8"
     inkscape:window-x="0"
     inkscape:window-y="25"
     inkscape:window-maximized="0"
     inkscape:current-layer="svg2" />
  <defs
     id="defs4">
    <linearGradient
       id="linearGradient3204"
       x1="1"
       x2="15"
       y1="9"
       y2="9"
       gradientTransform="translate(-17,-2)"
       gradientUnits="userSpaceOnUse">
      <stop
         id="stop3189"
         stop-color="#6189bb"
         offset="0" />
      <stop
         id="stop3191"
         stop-color="#b6cce9"
         offset="1" />
    </linearGradient>
    <linearGradient
       id="linearGradient3629"
       x2="29.017"
       y1="8"
       y2="8"
       gradientTransform="matrix(0,-1,1,0,0,16)"
       gradientUnits="userSpaceOnUse">
      <stop
         id="stop3330"
         offset="0" />
      <stop
         id="stop3333"
         stop-opacity="0"
         offset="1" />
    </linearGradient>
  </defs>
  <g
     id="layer1">
    <rect
       id="rect3196"
       transform="rotate(-90)"
       x="-16"
       width="16"
       height="16"
       rx="2"
       ry="2"
       fill="url(#linearGradient3204)" />
    <path
       id="rect2835"
       d="m0 14c0 1.108 0.892 2 2 2h12c1.108 0 2-0.892 2-2v-12c0-1.108-0.892-2-2-2h-12c-1.108 0-2 0.892-2 2v12zm0.96875 0v-12c0-0.5832 0.44805-1.0312 1.0312-1.0312h12c0.5832 0 1.0312 0.44805 1.0312 1.0312v12c0 0.5832-0.44805 1.0312-1.0312 1.0312h-12c-0.5832 0-1.0312-0.44805-1.0312-1.0312z"
       fill="url(#linearGradient3629)"
       opacity=".4" />
    <path
       id="path2843"
       d="m2 0.96875c-0.5832 0-1.0312 0.44805-1.0312 1.0312v1c0-0.5832 0.44805-1.0312 1.0312-1.0312h12c0.5832 0 1.0312 0.44805 1.0312 1.0312v-1c0-0.5832-0.44805-1.0312-1.0312-1.0312h-12z"
       fill="#fff"
       opacity=".35" />
  </g>
  <defs
     id="defs21">
    <filter
       id="w">
      <feGaussianBlur
         stdDeviation="0.26998568"
         id="feGaussianBlur13" />
    </filter>
    <linearGradient
       id="a"
       gradientUnits="userSpaceOnUse"
       x1="8"
       y1="0.99992254"
       x2="8"
       y2="15.00014254">
      <stop
         stop-color="#fafafa"
         offset="0"
         id="stop16" />
      <stop
         stop-color="#ebebeb"
         offset="1"
         id="stop18" />
    </linearGradient>
  </defs>
  <g
     id="main"
     transform="translate(1,1) scale(0.85714)">
    <path
       style="opacity:0.3;fill:#000000"
       inkscape:connector-curvature="0"
       id="path23"
       d="m 2.1868,15.975 c 0,-0.08639 2.9219,-3.6026 2.9843,-3.5886 0.03441,0.0093 1.342,0.56327 2.9003,1.2334 2.6653,1.1446 2.6683,1.2129 2.7389,1.1172 0.10964,-0.14826 0.48524,-0.88883 0.68353,-1.3856 l 0.16855,-0.42201 -0.28228,-0.15526 c -0.403,-0.21889 -0.81838,-0.70919 -1.1876,-1.1312 -0.3371,-0.38524 -0.94539,-1.3133 -0.94539,-1.4435 0,-0.04319 0.19363,0.15293 0.43041,0.43544 0.66312,0.78916 2.0169,2.0295 2.1125,1.8538 0.11373,-0.20955 0.18896,-0.82535 0.1843,-1.5415 -0.0047,-0.87321 -0.11839,-1.5089 -0.41933,-2.4464 L 11.38644,8.12487 C 10.80887,7.77985 10.34964,7.59333 9.71364,7.39291 9.3538,7.27909 9.5795,7.28551 10.10323,7.404583 c 0.62871,0.14126 1.4005,0.25741 1.7948,0.30761 0.3511,0.04319 0.42575,-0.0251 0.46249,-0.41034 0.04782,-0.49498 -0.26886,-1.775 -0.59255,-2.4527 -0.12772,-0.27142 -0.18663,-0.33271 -0.44441,-0.44945 -0.85441,-0.39925 -3.6657,-0.76406 -4.803,-0.64499 -0.49224,0.0502 -0.99555,0.17102 -1.1548,0.27142 -0.04316,0.03444 0.27353,0.11149 0.81767,0.21188 0.4899,0.09106 0.84741,0.17102 0.79492,0.18445 -0.05949,0.0093 -0.82467,-0.03139 -1.7152,-0.14521 -1.5584,-0.20079 -1.7466,-0.10269 -1.8603,-0.0023 -0.22804,0.20546 -0.55114,0.44216 -0.61996,0.74277 -0.06357,0.28951 -0.05949,0.32395 0.08457,0.61814 0.24612,0.50373 0.83732,0.87088 1.8784,1.398 0.49224,0.25566 0.88416,0.46521 0.87016,0.48097 -0.01575,0.01343 -0.43741,-0.14359 -0.93431,-0.35139 l -0.90924,-0.37648 -1.3327,0.37415 c -0.73135,0.20313 -1.3554,0.37182 -1.3851,0.37182 -0.03674,0 -0.05482,-0.88489 -0.05482,-2.385 0,-2.2963 0.0047,-2.392 0.11839,-2.6266 0.06824,-0.14359 0.20296,-0.29652 0.32369,-0.36948 l 0.20938,-0.13016 6.101,-0.018095 c 3.3535,-0.00934 6.2398,0 6.402,0.018095 0.37384,0.045529 0.71094,0.31928 0.79959,0.64966 0.03849,0.14359 0.05249,2.3167 0.04316,6.4499 l -0.01575,6.2269 -0.13006,0.20721 c -0.07523,0.12316 -0.22804,0.25741 -0.36918,0.32629 -0.23912,0.11616 -0.28695,0.11849 -6.2626,0.11849 -3.3127,0 -6.0258,-0.02043 -6.0258,-0.04319" />
    <path
       d="m2.1868 14.975c0-0.08639 2.9219-3.6026 2.9843-3.5886 0.03441 0.0093 1.342 0.56327 2.9003 1.2334 2.6653 1.1446 2.6683 1.2129 2.7389 1.1172 0.10964-0.14826 0.48524-0.88883 0.68353-1.3856l0.16855-0.42201-0.28228-0.15526c-0.403-0.21889-0.81838-0.70919-1.1876-1.1312-0.3371-0.38524-0.94539-1.3133-0.94539-1.4435 0-0.04319 0.19363 0.15293 0.43041 0.43544 0.66312 0.78916 2.0169 2.0295 2.1125 1.8538 0.11373-0.20955 0.18896-0.82535 0.1843-1.5415-0.0047-0.87321-0.11839-1.5089-0.41933-2.4464l-0.16855-0.3759c-0.57757-0.34502-1.0368-0.53154-1.6728-0.73196-0.35984-0.11382-0.13414-0.1074 0.38959 0.011673 0.62871 0.14126 1.4005 0.25741 1.7948 0.30761 0.3511 0.04319 0.42575-0.0251 0.46249-0.41034 0.04782-0.49498-0.26886-1.775-0.59255-2.4527-0.12772-0.27142-0.18663-0.33271-0.44441-0.44945-0.85441-0.39925-3.6657-0.76406-4.803-0.64499-0.49224 0.0502-0.99555 0.17102-1.1548 0.27142-0.04316 0.03444 0.27353 0.11149 0.81767 0.21188 0.4899 0.09106 0.84741 0.17102 0.79492 0.18445-0.05949 0.0093-0.82467-0.03139-1.7152-0.14521-1.5584-0.20079-1.7466-0.10269-1.8603-0.0023-0.22804 0.20546-0.55114 0.44216-0.61996 0.74277-0.06357 0.28951-0.05949 0.32395 0.08457 0.61814 0.24612 0.50373 0.83732 0.87088 1.8784 1.398 0.49224 0.25566 0.88416 0.46521 0.87016 0.48097-0.01575 0.01343-0.43741-0.14359-0.93431-0.35139l-0.90924-0.37648-1.3327 0.37415c-0.73135 0.20313-1.3554 0.37182-1.3851 0.37182-0.03674 0-0.05482-0.88489-0.05482-2.385 0-2.2963 0.0047-2.392 0.11839-2.6266 0.06824-0.14359 0.20296-0.29652 0.32369-0.36948l0.20938-0.13016 6.101-0.018095c3.3535-0.00934 6.2398 0 6.402 0.018095 0.37384 0.045529 0.71094 0.31928 0.79959 0.64966 0.03849 0.14359 0.05249 2.3167 0.04316 6.4499l-0.01575 6.2269-0.13006 0.20721c-0.07523 0.12316-0.22804 0.25741-0.36918 0.32629-0.23912 0.11616-0.28695 0.11849-6.2626 0.11849-3.3127 0-6.0258-0.02043-6.0258-0.04319"
       fill="#fff"
       id="base" />
  </g>
</svg>
