<?xml version="1.0" encoding="UTF-8" standalone="no"?>
<svg
   xmlns:dc="http://purl.org/dc/elements/1.1/"
   xmlns:cc="http://creativecommons.org/ns#"
   xmlns:rdf="http://www.w3.org/1999/02/22-rdf-syntax-ns#"
   xmlns:svg="http://www.w3.org/2000/svg"
   xmlns="http://www.w3.org/2000/svg"
   xmlns:sodipodi="http://sodipodi.sourceforge.net/DTD/sodipodi-0.dtd"
   xmlns:inkscape="http://www.inkscape.org/namespaces/inkscape"
   id="svg2"
   width="16"
   height="16"
   version="1.0"
   sodipodi:docname="pragha.svg"
   inkscape:version="0.92.2 5c3e80d, 2017-08-06">
  <metadata
     id="metadata30">
    <rdf:RDF>
      <cc:Work
         rdf:about="">
        <dc:format>image/svg+xml</dc:format>
        <dc:type
           rdf:resource="http://purl.org/dc/dcmitype/StillImage" />
      </cc:Work>
    </rdf:RDF>
  </metadata>
  <sodipodi:namedview
     pagecolor="#ffffff"
     bordercolor="#666666"
     borderopacity="1"
     objecttolerance="10"
     gridtolerance="10"
     guidetolerance="10"
     inkscape:pageopacity="0"
     inkscape:pageshadow="2"
     inkscape:window-width="640"
     inkscape:window-height="480"
     id="namedview28"
     showgrid="false"
     inkscape:zoom="14.75"
     inkscape:cx="8"
     inkscape:cy="8"
     inkscape:window-x="0"
     inkscape:window-y="25"
     inkscape:window-maximized="0"
     inkscape:current-layer="svg2" />
  <defs
     id="defs4">
    <linearGradient
       id="linearGradient3204"
       x1="1"
       x2="15"
       y1="9"
       y2="9"
       gradientTransform="translate(-17,-2)"
       gradientUnits="userSpaceOnUse">
      <stop
         id="stop3189"
         stop-color="#224f7c"
         offset="0" />
      <stop
         id="stop3191"
         stop-color="#4284ad"
         offset="1" />
    </linearGradient>
    <linearGradient
       id="linearGradient3629"
       x2="29.017"
       y1="8"
       y2="8"
       gradientTransform="matrix(0,-1,1,0,0,16)"
       gradientUnits="userSpaceOnUse">
      <stop
         id="stop3330"
         offset="0" />
      <stop
         id="stop3333"
         stop-opacity="0"
         offset="1" />
    </linearGradient>
  </defs>
  <g
     id="layer1">
    <rect
       id="rect3196"
       transform="rotate(-90)"
       x="-16"
       width="16"
       height="16"
       rx="2"
       ry="2"
       fill="url(#linearGradient3204)" />
    <path
       id="rect2835"
       d="m0 14c0 1.108 0.892 2 2 2h12c1.108 0 2-0.892 2-2v-12c0-1.108-0.892-2-2-2h-12c-1.108 0-2 0.892-2 2v12zm0.96875 0v-12c0-0.5832 0.44805-1.0312 1.0312-1.0312h12c0.5832 0 1.0312 0.44805 1.0312 1.0312v12c0 0.5832-0.44805 1.0312-1.0312 1.0312h-12c-0.5832 0-1.0312-0.44805-1.0312-1.0312z"
       fill="url(#linearGradient3629)"
       opacity=".4" />
    <path
       id="path2843"
       d="m2 0.96875c-0.5832 0-1.0312 0.44805-1.0312 1.0312v1c0-0.5832 0.44805-1.0312 1.0312-1.0312h12c0.5832 0 1.0312 0.44805 1.0312 1.0312v-1c0-0.5832-0.44805-1.0312-1.0312-1.0312h-12z"
       fill="#fff"
       opacity=".35" />
  </g>
  <defs
     id="defs21">
    <filter
       id="w">
      <feGaussianBlur
         stdDeviation="0.26998568"
         id="feGaussianBlur13" />
    </filter>
    <linearGradient
       id="a"
       gradientUnits="userSpaceOnUse"
       x1="8"
       y1="1"
       x2="8"
       y2="14.999892">
      <stop
         stop-color="#fafafa"
         offset="0"
         id="stop16" />
      <stop
         stop-color="#ebebeb"
         offset="1"
         id="stop18" />
    </linearGradient>
  </defs>
  <g
     id="main">
    <path
       style="opacity:0.4;fill:#000000;stroke-width:0.088413;filter:url(#w)"
       inkscape:connector-curvature="0"
       d="m 11.355469,1 -0.488281,0.2246094 c -0.395201,0.18091 -0.708585,0.2385312 -1.6152349,0.3007812 -2.0016,0.1374 -3.2055281,0.6252719 -4.3613281,1.7636719 -1.46196,1.44 -1.8404375,3.1112312 -1.1484375,5.0820313 L 4.0214844,9.1660156 3.2734375,9.8554688 c -0.88652,0.8163002 -1.1986181,1.3616532 -1.2675781,2.2207032 -0.1086,1.3536 0.8207812,2.618946 2.1132812,2.878906 0.466,0.09373 1.18752,0.03771 1.84375,-0.142578 1.109,-0.3047 2.1996644,-1.556553 2.8339844,-3.251953 0.20505,-0.54811 0.4383825,-0.767689 1.0390625,-0.980469 C 11.009337,10.164378 11.743398,9.72266 12.460938,9 c 1.323779,-1.3333 1.797216,-2.7620469 1.410156,-4.2480469 -0.1965,-0.7545 -0.5231,-1.2988462 -1.13086,-1.8789062 C 11.207054,1.4097169 11.242661,1.45032 11.300781,1.21875 Z M 8.2832031,2.2480469 c 0.43062,0.03095 0.5561469,0.081555 0.8105469,0.328125 L 9.3945312,2.8671875 8.9941406,3.71875 C 8.2144706,5.37885 7.983495,6.1776531 7.515625,8.8144531 7.044325,11.470553 6.3211438,12.907169 5.1523438,13.505859 h -0.00195 c -0.58932,0.30189 -1.0146856,0.344108 -1.4472656,0.142579 -0.62528,-0.2913 -0.9134269,-1.028314 -0.6230469,-1.589844 C 3.2676313,11.695894 3.4256694,11.62224 4.2539094,11.5 4.8711495,11.4089 4.981547,11.360826 5.277347,11.066406 5.851907,10.494506 5.7475376,10.130225 4.6777376,8.953125 3.8195176,8.008825 3.7070344,7.7215562 3.7070344,6.4726562 c 0,-0.9914599 0.00862,-1.0338112 0.3300782,-1.7070312 0.7678,-1.60807 2.5117937,-2.6422481 4.2460937,-2.5175781 z m 2.1093749,0.7871093 c 0.139558,0.00844 0.31964,0.1262088 0.56836,0.3554688 0.84473,0.7787 1.343093,2.3964031 1.126953,3.6582031 -0.1566,0.9145 -0.693794,1.7831575 -1.408203,2.2734375 -0.540001,0.37057 -0.7617174,0.38868 -1.0917974,0.09375 L 9.3046875,9.1640625 9.3125,8.2382812 c 0.01426,-1.5891 0.3902862,-4.0320737 0.753906,-4.9023437 0.0873,-0.20893 0.186615,-0.3092238 0.326172,-0.3007813 z"
       id="path4577" />
    <path
       id="base"
       d="M 11.355469 1 L 10.867188 1.2246094 C 10.471987 1.4055194 10.158603 1.4631406 9.2519531 1.5253906 C 7.2503531 1.6627906 6.046425 2.1506625 4.890625 3.2890625 C 3.428665 4.7290625 3.0501875 6.4002937 3.7421875 8.3710938 L 4.0214844 9.1660156 L 3.2734375 9.8554688 C 2.3869175 10.671769 2.0748194 11.217122 2.0058594 12.076172 C 1.8972594 13.429772 2.8266406 14.695118 4.1191406 14.955078 C 4.5851406 15.048808 5.3066606 14.99279 5.9628906 14.8125 C 7.0718906 14.5078 8.162555 13.255947 8.796875 11.560547 C 9.001925 11.012437 9.2352575 10.792858 9.8359375 10.580078 C 11.009337 10.164378 11.743398 9.72266 12.460938 9 C 13.784717 7.6667 14.258154 6.2379531 13.871094 4.7519531 C 13.674594 3.9974531 13.347994 3.4531069 12.740234 2.8730469 C 11.207054 1.4097169 11.242661 1.45032 11.300781 1.21875 L 11.355469 1 z M 8.2832031 2.2480469 C 8.7138231 2.2789969 8.83935 2.3296019 9.09375 2.5761719 L 9.3945312 2.8671875 L 8.9941406 3.71875 C 8.2144706 5.37885 7.983495 6.1776531 7.515625 8.8144531 C 7.044325 11.470553 6.3211438 12.907169 5.1523438 13.505859 L 5.1503906 13.505859 C 4.5610706 13.807749 4.135705 13.849967 3.703125 13.648438 C 3.077845 13.357138 2.7896981 12.620124 3.0800781 12.058594 C 3.2676281 11.695894 3.4256662 11.62224 4.2539062 11.5 C 4.8711463 11.4089 4.9815438 11.360826 5.2773438 11.066406 C 5.8519038 10.494506 5.7475344 10.130225 4.6777344 8.953125 C 3.8195144 8.008825 3.7070312 7.7215562 3.7070312 6.4726562 C 3.7070312 5.4811963 3.7156494 5.438845 4.0371094 4.765625 C 4.8049094 3.157555 6.5489031 2.1233769 8.2832031 2.2480469 z M 10.392578 3.0351562 C 10.532136 3.0435988 10.712218 3.161365 10.960938 3.390625 C 11.805668 4.169325 12.304031 5.7870281 12.087891 7.0488281 C 11.931291 7.9633281 11.394097 8.8319856 10.679688 9.3222656 C 10.139687 9.6928356 9.9179706 9.7109456 9.5878906 9.4160156 L 9.3046875 9.1640625 L 9.3125 8.2382812 C 9.32676 6.6491812 9.7027862 4.2062075 10.066406 3.3359375 C 10.153706 3.1270075 10.253021 3.0267137 10.392578 3.0351562 z"
       fill="#fff"
       stroke-width=".088413" />
  </g>
</svg>
