<?xml version="1.0" encoding="UTF-8" standalone="no"?>
<svg
   xmlns:dc="http://purl.org/dc/elements/1.1/"
   xmlns:cc="http://creativecommons.org/ns#"
   xmlns:rdf="http://www.w3.org/1999/02/22-rdf-syntax-ns#"
   xmlns:svg="http://www.w3.org/2000/svg"
   xmlns="http://www.w3.org/2000/svg"
   xmlns:sodipodi="http://sodipodi.sourceforge.net/DTD/sodipodi-0.dtd"
   xmlns:inkscape="http://www.inkscape.org/namespaces/inkscape"
   id="svg2"
   width="16"
   height="16"
   version="1.0"
   sodipodi:docname="pyrenamer.svg"
   inkscape:version="0.92.2 5c3e80d, 2017-08-06">
  <metadata
     id="metadata31">
    <rdf:RDF>
      <cc:Work
         rdf:about="">
        <dc:format>image/svg+xml</dc:format>
        <dc:type
           rdf:resource="http://purl.org/dc/dcmitype/StillImage" />
      </cc:Work>
    </rdf:RDF>
  </metadata>
  <sodipodi:namedview
     pagecolor="#ffffff"
     bordercolor="#666666"
     borderopacity="1"
     objecttolerance="10"
     gridtolerance="10"
     guidetolerance="10"
     inkscape:pageopacity="0"
     inkscape:pageshadow="2"
     inkscape:window-width="640"
     inkscape:window-height="480"
     id="namedview29"
     showgrid="false"
     inkscape:zoom="14.75"
     inkscape:cx="8"
     inkscape:cy="8"
     inkscape:window-x="0"
     inkscape:window-y="25"
     inkscape:window-maximized="0"
     inkscape:current-layer="svg2" />
  <defs
     id="defs4">
    <linearGradient
       id="linearGradient3204"
       x1="1"
       x2="15"
       y1="9"
       y2="9"
       gradientTransform="translate(-17,-2)"
       gradientUnits="userSpaceOnUse">
      <stop
         id="stop3189"
         stop-color="#a2a2a2"
         offset="0" />
      <stop
         id="stop3191"
         stop-color="#bebebe"
         offset="1" />
    </linearGradient>
    <linearGradient
       id="linearGradient3629"
       x2="29.017"
       y1="8"
       y2="8"
       gradientTransform="matrix(0,-1,1,0,0,16)"
       gradientUnits="userSpaceOnUse">
      <stop
         id="stop3330"
         offset="0" />
      <stop
         id="stop3333"
         stop-opacity="0"
         offset="1" />
    </linearGradient>
  </defs>
  <g
     id="layer1">
    <rect
       id="rect3196"
       transform="rotate(-90)"
       x="-16"
       width="16"
       height="16"
       rx="2"
       ry="2"
       fill="url(#linearGradient3204)" />
    <path
       id="rect2835"
       d="m0 14c0 1.108 0.892 2 2 2h12c1.108 0 2-0.892 2-2v-12c0-1.108-0.892-2-2-2h-12c-1.108 0-2 0.892-2 2v12zm0.96875 0v-12c0-0.5832 0.44805-1.0312 1.0312-1.0312h12c0.5832 0 1.0312 0.44805 1.0312 1.0312v12c0 0.5832-0.44805 1.0312-1.0312 1.0312h-12c-0.5832 0-1.0312-0.44805-1.0312-1.0312z"
       fill="url(#linearGradient3629)"
       opacity=".4" />
    <path
       id="path2843"
       d="m2 0.96875c-0.5832 0-1.0312 0.44805-1.0312 1.0312v1c0-0.5832 0.44805-1.0312 1.0312-1.0312h12c0.5832 0 1.0312 0.44805 1.0312 1.0312v-1c0-0.5832-0.44805-1.0312-1.0312-1.0312h-12z"
       fill="#fff"
       opacity=".35" />
  </g>
  <defs
     id="defs21">
    <filter
       id="w">
      <feGaussianBlur
         stdDeviation="0.26998568"
         id="feGaussianBlur13" />
    </filter>
    <linearGradient
       id="a"
       gradientUnits="userSpaceOnUse"
       x1="8"
       y1="2"
       x2="8"
       y2="14">
      <stop
         stop-color="#ffffff"
         offset="0"
         id="stop16" />
      <stop
         stop-color="#ffffff"
         offset="1"
         id="stop18" />
    </linearGradient>
  </defs>
  <g
     id="main"
     transform="translate(1,1) scale(0.85714)">
    <path
       style="opacity:0.3;fill:#000000"
       inkscape:connector-curvature="0"
       id="path23"
       d="m 8,3 v 1 h 2 V 14 H 8 v 1 h 5 V 14 H 11 V 4 h 2 V 3 H 10 Z M 1.4375,6 C 1.19171,6.0232 0.99893,6.25312 1,6.5 v 5 c 2e-5,0.26179 0.23821,0.49997 0.5,0.5 H 9 V 11 H 2 V 7 H 9 V 6 H 1.5 C 1.4844,5.9995 1.4531,5.9995 1.4375,6 Z m 10.562,0 v 1 h 2 v 4 h -2 v 1 h 2.5 c 0.26179,-3e-5 0.49998,-0.23821 0.5,-0.5 v -5 c -2e-5,-0.26179 -0.23821,-0.49998 -0.5,-0.5 z m -9,2 v 2 h 5 V 8 Z" />
    <path
       d="m8 2v1h2v10h-2v1h5v-1h-2v-10h2v-1h-3zm-6.5625 3c-0.24579 0.0232-0.43857 0.25312-0.4375 0.5v5c2e-5 0.26179 0.23821 0.49997 0.5 0.5h7.5v-1h-7v-4h7v-1h-7.5c-0.0156-5e-4 -0.0469-5e-4 -0.0625 0zm10.562 0v1h2v4h-2v1h2.5c0.26179-3e-5 0.49998-0.23821 0.5-0.5v-5c-2e-5 -0.26179-0.23821-0.49998-0.5-0.5zm-9 2v2h5v-2z"
       fill="url(#a)"
       id="base" />
  </g>
</svg>
