<?xml version="1.0" encoding="UTF-8" standalone="no"?>
<svg
   xmlns:dc="http://purl.org/dc/elements/1.1/"
   xmlns:cc="http://creativecommons.org/ns#"
   xmlns:rdf="http://www.w3.org/1999/02/22-rdf-syntax-ns#"
   xmlns:svg="http://www.w3.org/2000/svg"
   xmlns="http://www.w3.org/2000/svg"
   xmlns:sodipodi="http://sodipodi.sourceforge.net/DTD/sodipodi-0.dtd"
   xmlns:inkscape="http://www.inkscape.org/namespaces/inkscape"
   id="svg2"
   width="16"
   height="16"
   version="1.0"
   sodipodi:docname="qcad.svg"
   inkscape:version="0.92.2 5c3e80d, 2017-08-06">
  <metadata
     id="metadata31">
    <rdf:RDF>
      <cc:Work
         rdf:about="">
        <dc:format>image/svg+xml</dc:format>
        <dc:type
           rdf:resource="http://purl.org/dc/dcmitype/StillImage" />
      </cc:Work>
    </rdf:RDF>
  </metadata>
  <sodipodi:namedview
     pagecolor="#ffffff"
     bordercolor="#666666"
     borderopacity="1"
     objecttolerance="10"
     gridtolerance="10"
     guidetolerance="10"
     inkscape:pageopacity="0"
     inkscape:pageshadow="2"
     inkscape:window-width="640"
     inkscape:window-height="480"
     id="namedview29"
     showgrid="false"
     inkscape:zoom="14.75"
     inkscape:cx="8"
     inkscape:cy="8"
     inkscape:window-x="0"
     inkscape:window-y="25"
     inkscape:window-maximized="0"
     inkscape:current-layer="svg2" />
  <defs
     id="defs4">
    <linearGradient
       id="linearGradient3204"
       x1="1"
       x2="15"
       y1="9"
       y2="9"
       gradientTransform="translate(-17,-2)"
       gradientUnits="userSpaceOnUse">
      <stop
         id="stop3189"
         stop-color="#5f709b"
         offset="0" />
      <stop
         id="stop3191"
         stop-color="#8b98ba"
         offset="1" />
    </linearGradient>
    <linearGradient
       id="linearGradient3629"
       x2="29.017"
       y1="8"
       y2="8"
       gradientTransform="matrix(0,-1,1,0,0,16)"
       gradientUnits="userSpaceOnUse">
      <stop
         id="stop3330"
         offset="0" />
      <stop
         id="stop3333"
         stop-opacity="0"
         offset="1" />
    </linearGradient>
  </defs>
  <g
     id="layer1">
    <rect
       id="rect3196"
       transform="rotate(-90)"
       x="-16"
       width="16"
       height="16"
       rx="2"
       ry="2"
       fill="url(#linearGradient3204)" />
    <path
       id="rect2835"
       d="m0 14c0 1.108 0.892 2 2 2h12c1.108 0 2-0.892 2-2v-12c0-1.108-0.892-2-2-2h-12c-1.108 0-2 0.892-2 2v12zm0.96875 0v-12c0-0.5832 0.44805-1.0312 1.0312-1.0312h12c0.5832 0 1.0312 0.44805 1.0312 1.0312v12c0 0.5832-0.44805 1.0312-1.0312 1.0312h-12c-0.5832 0-1.0312-0.44805-1.0312-1.0312z"
       fill="url(#linearGradient3629)"
       opacity=".4" />
    <path
       id="path2843"
       d="m2 0.96875c-0.5832 0-1.0312 0.44805-1.0312 1.0312v1c0-0.5832 0.44805-1.0312 1.0312-1.0312h12c0.5832 0 1.0312 0.44805 1.0312 1.0312v-1c0-0.5832-0.44805-1.0312-1.0312-1.0312h-12z"
       fill="#fff"
       opacity=".35" />
  </g>
  <defs
     id="defs21">
    <filter
       id="w">
      <feGaussianBlur
         stdDeviation="0.26998568"
         id="feGaussianBlur13" />
    </filter>
    <linearGradient
       id="a"
       gradientUnits="userSpaceOnUse"
       x1="8"
       y1="1"
       x2="8"
       y2="15.00005">
      <stop
         stop-color="#ffffff"
         offset="0"
         id="stop16" />
      <stop
         stop-color="#ffffff"
         offset="1"
         id="stop18" />
    </linearGradient>
  </defs>
  <g
     id="main"
     transform="translate(1,1) scale(0.85714)">
    <path
       style="opacity:0.3;fill:#000000"
       inkscape:connector-curvature="0"
       id="path23"
       d="M 8,2 C 7.446,2 7,2.446 7,3 V 4.2812 C 6.4031,4.62724 6,5.26035 6,6 6,6.65798 6.32209,7.2293 6.8125,7.5938 L 6,8.00005 l -1.3438,3 H 2.4374 c -0.25103,0 -0.4375,0.18647 -0.4375,0.4375 v 0.125 c 0,0.25103 0.18647,0.4375 0.4375,0.4375 h 1.9062 l -0.34375,1 1,3 1.5,-4 h 3 l 1.5,4 1,-3 -0.34375,-1 h 1.9062 c 0.25103,0 0.4375,-0.18647 0.4375,-0.4375 v -0.125 c 0,-0.25103 0,-0.4375 -0.4375,-0.4375 h -2.2188 l -1.3438,-3 L 9.1872,7.5938 C 9.67761,7.22931 9.9997,6.65803 9.9997,6 c 0,-0.7396 -0.4031,-1.3727 -1,-1.7188 V 3 c 0,-0.554 -0.446,-1 -1,-1 z M 8,5 C 8.55228,5 9,5.44772 9,6 9,6.55228 8.55228,7 8,7 7.44772,7 7,6.55228 7,6 7,5.44772 7.44772,5 8,5 Z m 0,3 1.1875,3 h -2.375 z" />
    <path
       d="m8 1c-0.554 0-1 0.446-1 1v1.2812c-0.5969 0.34604-1 0.97915-1 1.7188 0 0.65798 0.32209 1.2293 0.8125 1.5938l-0.8125 0.40625-1.3438 3h-2.2188c-0.25103 0-0.4375 0.18647-0.4375 0.4375v0.125c0 0.25103 0.18647 0.4375 0.4375 0.4375h1.9062l-0.34375 1 1 3 1.5-4h3l1.5 4 1-3-0.34375-1h1.9062c0.25103 0 0.4375-0.18647 0.4375-0.4375v-0.125c0-0.25103 0-0.4375-0.4375-0.4375h-2.2188l-1.3438-3-0.8125-0.40625c0.49041-0.36449 0.8125-0.93577 0.8125-1.5938 0-0.7396-0.4031-1.3727-1-1.7188v-1.2812c0-0.554-0.446-1-1-1zm0 3c0.55228 0 1 0.44772 1 1s-0.44772 1-1 1-1-0.44772-1-1 0.44772-1 1-1zm0 3 1.1875 3h-2.375z"
       fill="url(#a)"
       id="base" />
  </g>
</svg>
