<?xml version="1.0" encoding="UTF-8" standalone="no"?>
<svg
   xmlns:dc="http://purl.org/dc/elements/1.1/"
   xmlns:cc="http://creativecommons.org/ns#"
   xmlns:rdf="http://www.w3.org/1999/02/22-rdf-syntax-ns#"
   xmlns:svg="http://www.w3.org/2000/svg"
   xmlns="http://www.w3.org/2000/svg"
   xmlns:sodipodi="http://sodipodi.sourceforge.net/DTD/sodipodi-0.dtd"
   xmlns:inkscape="http://www.inkscape.org/namespaces/inkscape"
   id="svg2"
   width="16"
   height="16"
   version="1.0"
   sodipodi:docname="quodlibet.svg"
   inkscape:version="0.92.2 5c3e80d, 2017-08-06">
  <metadata
     id="metadata31">
    <rdf:RDF>
      <cc:Work
         rdf:about="">
        <dc:format>image/svg+xml</dc:format>
        <dc:type
           rdf:resource="http://purl.org/dc/dcmitype/StillImage" />
      </cc:Work>
    </rdf:RDF>
  </metadata>
  <sodipodi:namedview
     pagecolor="#ffffff"
     bordercolor="#666666"
     borderopacity="1"
     objecttolerance="10"
     gridtolerance="10"
     guidetolerance="10"
     inkscape:pageopacity="0"
     inkscape:pageshadow="2"
     inkscape:window-width="640"
     inkscape:window-height="480"
     id="namedview29"
     showgrid="false"
     inkscape:zoom="14.75"
     inkscape:cx="8"
     inkscape:cy="8"
     inkscape:window-x="0"
     inkscape:window-y="25"
     inkscape:window-maximized="0"
     inkscape:current-layer="svg2" />
  <defs
     id="defs4">
    <linearGradient
       id="linearGradient3204"
       x1="1"
       x2="15"
       y1="9"
       y2="9"
       gradientTransform="translate(-17,-2)"
       gradientUnits="userSpaceOnUse">
      <stop
         id="stop3189"
         stop-color="#141414"
         offset="0" />
      <stop
         id="stop3191"
         stop-color="#25556e"
         offset="1" />
    </linearGradient>
    <linearGradient
       id="linearGradient3629"
       x2="29.017"
       y1="8"
       y2="8"
       gradientTransform="matrix(0,-1,1,0,0,16)"
       gradientUnits="userSpaceOnUse">
      <stop
         id="stop3330"
         offset="0" />
      <stop
         id="stop3333"
         stop-opacity="0"
         offset="1" />
    </linearGradient>
  </defs>
  <g
     id="layer1">
    <rect
       id="rect3196"
       transform="rotate(-90)"
       x="-16"
       width="16"
       height="16"
       rx="2"
       ry="2"
       fill="url(#linearGradient3204)" />
    <path
       id="rect2835"
       d="m0 14c0 1.108 0.892 2 2 2h12c1.108 0 2-0.892 2-2v-12c0-1.108-0.892-2-2-2h-12c-1.108 0-2 0.892-2 2v12zm0.96875 0v-12c0-0.5832 0.44805-1.0312 1.0312-1.0312h12c0.5832 0 1.0312 0.44805 1.0312 1.0312v12c0 0.5832-0.44805 1.0312-1.0312 1.0312h-12c-0.5832 0-1.0312-0.44805-1.0312-1.0312z"
       fill="url(#linearGradient3629)"
       opacity=".4" />
    <path
       id="path2843"
       d="m2 0.96875c-0.5832 0-1.0312 0.44805-1.0312 1.0312v1c0-0.5832 0.44805-1.0312 1.0312-1.0312h12c0.5832 0 1.0312 0.44805 1.0312 1.0312v-1c0-0.5832-0.44805-1.0312-1.0312-1.0312h-12z"
       fill="#fff"
       opacity=".35" />
  </g>
  <defs
     id="defs21">
    <filter
       id="w">
      <feGaussianBlur
         stdDeviation="0.26998568"
         id="feGaussianBlur13" />
    </filter>
    <linearGradient
       id="a"
       gradientUnits="userSpaceOnUse"
       x1="8"
       y1="1.0001512"
       x2="8"
       y2="15.0000892">
      <stop
         stop-color="#ffffff"
         offset="0"
         id="stop16" />
      <stop
         stop-color="#ffffff"
         offset="1"
         id="stop18" />
    </linearGradient>
  </defs>
  <g
     id="main"
     transform="translate(1,1) scale(0.85714)">
    <path
       style="opacity:0.3;fill:#000000"
       inkscape:connector-curvature="0"
       id="path23"
       d="M 5.9408,2.0008 C 5.35484,2.019651 4.8683,2.36507 4.6194,2.82761 c -0.26443,0.49148 -0.25952,1.1441 0.14287,1.6407 0.37633,0.56295 0.9788,0.99436 1.6489,1.1969 0.50807,0.15356 1.0646,0.17191 1.5745,-0.013404 0.00127,3.2444 0.014093,6.8145 0.014093,10.02 a 0.31105,0.31774 0 0 0 0.23278,0.30779 c 0.23302,0.06173 0.51642,-0.0194 0.64878,-0.19758 0.13236,-0.17818 0.15147,-0.36288 0.16571,-0.53813 0.014254,-0.17525 0.010846,-0.34949 0.014093,-0.49593 0.00325,-0.14645 0.022944,-0.26879 0.029159,-0.28495 a 0.31105,0.31774 0 0 0 0.015065,-0.05213 c 0.13011,-0.64164 0.51507,-1.1411 1.0128,-1.6263 0.4977,-0.48524 1.0997,-0.93953 1.5959,-1.4953 0.86232,-0.9627 0.97728,-2.435 0.2182,-3.5053 -0.06985,-0.0985 -0.28139,-0.4531 -0.44711,-0.73522 -0.08286,-0.14107 -0.15687,-0.26702 -0.20752,-0.34998 -0.02533,-0.041485 -0.032,-0.058244 -0.06999,-0.10673 -0.0095,-0.012122 0.01223,-0.020275 -0.09234,-0.081911 -0.01307,-0.0077 -0.05336,-0.024786 -0.05346,-0.024821 -9.9e-5,-3.51e-5 -0.09906,-0.017871 -0.09914,-0.017871 -7.9e-5,-8e-7 -0.1501,0.037695 -0.15016,0.037729 -6.2e-5,3.35e-5 -0.11562,0.10964 -0.11566,0.10971 -4.2e-5,6.81e-5 -0.0408,0.09819 -0.04082,0.098293 -2.2e-5,1.029e-4 -0.0072,0.046063 -0.0077,0.062054 -0.0011,0.031981 0.0017,0.050135 0.0039,0.06404 0.01805,0.11123 0.0245,0.084014 0.03305,0.10326 a 0.31105,0.31774 0 0 0 0.0044,0.00943 c 0.41931,0.86932 0.88166,1.7549 0.6721,2.5701 -0.2709,0.98761 -1.2784,1.6611 -2.3473,1.8433 -0.00466,-0.04956 -0.00467,-0.06229 -0.014678,-0.21346 v -7.2156 A 0.31105,0.31774 0 0 0 8.976488,3.815169 c -0.45773,-1.134 -1.7103,-1.8439 -2.9173,-1.8135 -0.039906,-0.00171 -0.079516,-0.002 -0.11858,-7.447e-4 z m 0.25563,0.94645 c 0.41739,-0.019195 0.91341,0.14309 1.264,0.4165 0.34255,0.26713 0.53018,0.606 0.49522,0.99286 C 7.857919,4.66543 7.62298,4.79902 7.26556,4.83269 6.89724,4.867377 6.44596,4.745386 6.18136,4.56511 A 0.31105,0.31774 0 0 0 6.138107,4.540289 c -0.27725,-0.12958 -0.56002,-0.46615 -0.64976,-0.77493 -0.044869,-0.15438 -0.045263,-0.2932 -0.00729,-0.40459 0.03791,-0.1112 0.10907,-0.20926 0.27653,-0.29935 2.736e-4,-1.525e-4 1.866e-4,-3.177e-4 4.852e-4,-4.956e-4 0.12471,-0.066152 0.27797,-0.10392 0.43835,-0.11368 z m -0.36059,2.1466 c 0.00813,0.00554 0.019463,0.00698 0.027701,0.012411 0.00589,0.00284 0.00962,0.00914 0.015552,0.011914 z" />
    <path
       d="m5.9408 1.0008c-0.58596 0.018851-1.0725 0.36427-1.3214 0.82681-0.26443 0.49148-0.25952 1.1441 0.14287 1.6407 0.37633 0.56295 0.9788 0.99436 1.6489 1.1969 0.50807 0.15356 1.0646 0.17191 1.5745-0.013404 0.00127 3.2444 0.014093 6.8145 0.014093 10.02a0.31105 0.31774 0 0 0 0.23278 0.30779c0.23302 0.06173 0.51642-0.0194 0.64878-0.19758 0.13236-0.17818 0.15147-0.36288 0.16571-0.53813 0.014254-0.17525 0.010846-0.34949 0.014093-0.49593 0.00325-0.14645 0.022944-0.26879 0.029159-0.28495a0.31105 0.31774 0 0 0 0.015065-0.05213c0.13011-0.64164 0.51507-1.1411 1.0128-1.6263 0.4977-0.48524 1.0997-0.93953 1.5959-1.4953 0.86232-0.9627 0.97728-2.435 0.2182-3.5053-0.06985-0.0985-0.28139-0.4531-0.44711-0.73522-0.08286-0.14107-0.15687-0.26702-0.20752-0.34998-0.02533-0.041485-0.032-0.058244-0.06999-0.10673-0.0095-0.012122 0.01223-0.020275-0.09234-0.081911-0.01307-0.0077-0.05336-0.024786-0.05346-0.024821-9.9e-5 -3.51e-5 -0.09906-0.017871-0.09914-0.017871-7.9e-5 -8e-7 -0.1501 0.037695-0.15016 0.037729-6.2e-5 3.35e-5 -0.11562 0.10964-0.11566 0.10971-4.2e-5 6.81e-5 -0.0408 0.09819-0.04082 0.098293-2.2e-5 1.029e-4 -0.0072 0.046063-0.0077 0.062054-0.0011 0.031981 0.0017 0.050135 0.0039 0.06404 0.01805 0.11123 0.0245 0.084014 0.03305 0.10326a0.31105 0.31774 0 0 0 0.0044 0.00943c0.41931 0.86932 0.88166 1.7549 0.6721 2.5701-0.2709 0.98761-1.2784 1.6611-2.3473 1.8433-0.00466-0.04956-0.00467-0.06229-0.014678-0.21346v-7.2156a0.31105 0.31774 0 0 0-0.023334-0.12113c-0.45773-1.134-1.7103-1.8439-2.9173-1.8135-0.039906-0.0017071-0.079516-0.0020013-0.11858-7.447e-4zm0.25563 0.94645c0.41739-0.019195 0.91341 0.14309 1.264 0.4165 0.34255 0.26713 0.53018 0.606 0.49522 0.99286-0.097731 0.30882-0.33267 0.44241-0.69009 0.47608-0.36832 0.034687-0.8196-0.087304-1.0842-0.26758a0.31105 0.31774 0 0 0-0.043253-0.024821c-0.27725-0.12958-0.56002-0.46615-0.64976-0.77493-0.044869-0.15438-0.045263-0.2932-0.0072892-0.40459 0.03791-0.1112 0.10907-0.20926 0.27653-0.29935 2.736e-4 -1.525e-4 1.866e-4 -3.177e-4 4.852e-4 -4.956e-4 0.12471-0.066152 0.27797-0.10392 0.43835-0.11368zm-0.36059 2.1466c0.00813 0.00554 0.019463 0.00698 0.027701 0.012411 0.00589 0.00284 0.00962 0.00914 0.015552 0.011914z"
       fill="url(#a)"
       id="base" />
  </g>
</svg>
