<?xml version="1.0" encoding="UTF-8" standalone="no"?>
<svg
   xmlns:dc="http://purl.org/dc/elements/1.1/"
   xmlns:cc="http://creativecommons.org/ns#"
   xmlns:rdf="http://www.w3.org/1999/02/22-rdf-syntax-ns#"
   xmlns:svg="http://www.w3.org/2000/svg"
   xmlns="http://www.w3.org/2000/svg"
   xmlns:sodipodi="http://sodipodi.sourceforge.net/DTD/sodipodi-0.dtd"
   xmlns:inkscape="http://www.inkscape.org/namespaces/inkscape"
   id="svg2"
   width="16"
   height="16"
   version="1.0"
   sodipodi:docname="rambox.svg"
   inkscape:version="0.92.2 5c3e80d, 2017-08-06">
  <metadata
     id="metadata31">
    <rdf:RDF>
      <cc:Work
         rdf:about="">
        <dc:format>image/svg+xml</dc:format>
        <dc:type
           rdf:resource="http://purl.org/dc/dcmitype/StillImage" />
      </cc:Work>
    </rdf:RDF>
  </metadata>
  <sodipodi:namedview
     pagecolor="#ffffff"
     bordercolor="#666666"
     borderopacity="1"
     objecttolerance="10"
     gridtolerance="10"
     guidetolerance="10"
     inkscape:pageopacity="0"
     inkscape:pageshadow="2"
     inkscape:window-width="640"
     inkscape:window-height="480"
     id="namedview29"
     showgrid="false"
     inkscape:zoom="14.75"
     inkscape:cx="8"
     inkscape:cy="8"
     inkscape:window-x="0"
     inkscape:window-y="25"
     inkscape:window-maximized="0"
     inkscape:current-layer="svg2" />
  <defs
     id="defs4">
    <linearGradient
       id="linearGradient3204"
       x1="1"
       x2="15"
       y1="9"
       y2="9"
       gradientTransform="translate(-17,-2)"
       gradientUnits="userSpaceOnUse">
      <stop
         id="stop3189"
         stop-color="#271d52"
         offset="0" />
      <stop
         id="stop3191"
         stop-color="#34b1cc"
         offset="1" />
    </linearGradient>
    <linearGradient
       id="linearGradient3629"
       x2="29.017"
       y1="8"
       y2="8"
       gradientTransform="matrix(0,-1,1,0,0,16)"
       gradientUnits="userSpaceOnUse">
      <stop
         id="stop3330"
         offset="0" />
      <stop
         id="stop3333"
         stop-opacity="0"
         offset="1" />
    </linearGradient>
  </defs>
  <g
     id="layer1">
    <rect
       id="rect3196"
       transform="rotate(-90)"
       x="-16"
       width="16"
       height="16"
       rx="2"
       ry="2"
       fill="url(#linearGradient3204)" />
    <path
       id="rect2835"
       d="m0 14c0 1.108 0.892 2 2 2h12c1.108 0 2-0.892 2-2v-12c0-1.108-0.892-2-2-2h-12c-1.108 0-2 0.892-2 2v12zm0.96875 0v-12c0-0.5832 0.44805-1.0312 1.0312-1.0312h12c0.5832 0 1.0312 0.44805 1.0312 1.0312v12c0 0.5832-0.44805 1.0312-1.0312 1.0312h-12c-0.5832 0-1.0312-0.44805-1.0312-1.0312z"
       fill="url(#linearGradient3629)"
       opacity=".4" />
    <path
       id="path2843"
       d="m2 0.96875c-0.5832 0-1.0312 0.44805-1.0312 1.0312v1c0-0.5832 0.44805-1.0312 1.0312-1.0312h12c0.5832 0 1.0312 0.44805 1.0312 1.0312v-1c0-0.5832-0.44805-1.0312-1.0312-1.0312h-12z"
       fill="#fff"
       opacity=".35" />
  </g>
  <defs
     id="defs21">
    <filter
       id="w">
      <feGaussianBlur
         stdDeviation="0.26998568"
         id="feGaussianBlur13" />
    </filter>
    <linearGradient
       id="a"
       gradientUnits="userSpaceOnUse"
       x1="8"
       y1="1"
       x2="8"
       y2="14.94064">
      <stop
         stop-color="#ffffff"
         offset="0"
         id="stop16" />
      <stop
         stop-color="#ffffff"
         offset="1"
         id="stop18" />
    </linearGradient>
  </defs>
  <g
     id="main"
     transform="translate(1,1) scale(0.85714)">
    <path
       style="opacity:0.3;fill:#000000;enable-background:new"
       inkscape:connector-curvature="0"
       id="path23"
       d="m 8,2 a 7,7 0 0 0 -7,7 7,7 0 0 0 0.4015,2.3131 l 0.45321,-0.096 C 3.94951,10.77345 4.58511,10.1349 5.35051,7.7049 5.72665,6.5108 5.96406,5.915 6.31288,5.29 l 0.2587,-0.46345 0.0717,0.42425 c 0.0394,0.23337 0.11311,0.5044 0.16374,0.60231 l 0.0921,0.17806 0.0928,-0.334 C 7.11623,5.24991 7.2352,5.03588 7.542,4.70788 7.78317,4.45005 8.0206,4.29339 8.373,4.1594 8.4257,4.1394 8.459,4.1272 8.47575,4.1248 8.50365,4.1208 8.48575,4.144 8.43335,4.2033 8.20845,4.4589 7.94946,5.18554 8.01882,5.3663 8.04632,5.438 8.08892,5.4169 8.23991,5.25671 8.34281,5.1476 8.60005,4.97641 8.81157,4.87624 9.18028,4.70163 9.2238,4.6941 9.86527,4.69563 c 0.50095,10e-4 0.71809,0.0246 0.86421,0.093 l 0.19514,0.0914 -0.17538,0.005 c -0.24456,0.006 -0.89519,0.2116 -1.166,0.36785 -0.32727,0.18887 -0.67614,0.59086 -0.7496,0.86368 -0.0487,0.18102 -0.0464,0.28541 0.0105,0.46463 0.069,0.21735 0.0885,0.23327 0.32855,0.26735 0.36373,0.0516 0.67921,0.23002 0.91452,0.51718 0.12262,0.14964 0.26823,0.26281 0.36573,0.28423 0.22952,0.0504 0.4438,0.32457 0.4438,0.56781 0,0.15904 -0.0433,0.23685 -0.22302,0.40118 -0.23481,0.21463 -0.26932,0.34539 -0.15659,0.59281 0.0514,0.11268 0.0924,0.13723 0.18115,0.1083 0.4681,-0.15253 0.64451,-0.0575 0.64451,0.34703 0,0.23917 0.0229,0.27708 0.4109,0.679 0.42249,0.43768 0.51402,0.56947 0.5976,0.86091 0.0578,0.20139 0.011,0.42906 -0.088,0.42906 -0.0391,0 -0.0997,0.11422 -0.13491,0.25389 -0.12576,0.49943 -0.82455,0.97956 -1.3109,0.90063 -0.10426,-0.0169 -0.30609,0.0146 -0.48214,0.0754 -0.22436,0.0775 -0.46541,0.10504 -0.93012,0.10639 -0.35045,7e-4 -0.6272,0.0249 -0.6272,0.0539 0,0.0286 0.0417,0.2356 0.0927,0.45993 0.12738,0.56011 0.13153,1.9728 0.007,2.3454 -0.0143,0.0428 -0.0255,0.0777 -0.0345,0.10905 a 7,7 0 0 0 6.1567,-6.9406 7,7 0 0 0 -7,-7 z" />
    <path
       d="m8 1a7 7 0 0 0-7 7 7 7 0 0 0 0.4015 2.3131l0.45321-0.096c2.0948-0.44365 2.7304-1.0822 3.4958-3.5122 0.37614-1.1941 0.61355-1.7899 0.96237-2.4149l0.2587-0.46345 0.0717 0.42425c0.0394 0.23337 0.11311 0.5044 0.16374 0.60231l0.0921 0.17806 0.0928-0.334c0.12431-0.44726 0.24328-0.66129 0.55008-0.98929 0.24117-0.25783 0.4786-0.41449 0.831-0.54848 0.0527-0.02 0.086-0.0322 0.10275-0.0346 0.0279-4e-3 0.01 0.0192-0.0424 0.0785-0.2249 0.2556-0.48389 0.98224-0.41453 1.163 0.0275 0.0717 0.0701 0.0506 0.22109-0.10959 0.1029-0.10911 0.36014-0.2803 0.57166-0.38047 0.36871-0.17461 0.41223-0.18214 1.0537-0.18061 0.50095 1e-3 0.71809 0.0246 0.86421 0.093l0.19514 0.0914-0.17538 5e-3c-0.24456 6e-3 -0.89519 0.2116-1.166 0.36785-0.32727 0.18887-0.67614 0.59086-0.7496 0.86368-0.0487 0.18102-0.0464 0.28541 0.0105 0.46463 0.069 0.21735 0.0885 0.23327 0.32855 0.26735 0.36373 0.0516 0.67921 0.23002 0.91452 0.51718 0.12262 0.14964 0.26823 0.26281 0.36573 0.28423 0.22952 0.0504 0.4438 0.32457 0.4438 0.56781 0 0.15904-0.0433 0.23685-0.22302 0.40118-0.23481 0.21463-0.26932 0.34539-0.15659 0.59281 0.0514 0.11268 0.0924 0.13723 0.18115 0.1083 0.4681-0.15253 0.64451-0.0575 0.64451 0.34703 0 0.23917 0.0229 0.27708 0.4109 0.679 0.42249 0.43768 0.51402 0.56947 0.5976 0.86091 0.0578 0.20139 0.011 0.42906-0.088 0.42906-0.0391 0-0.0997 0.11422-0.13491 0.25389-0.12576 0.49943-0.82455 0.97956-1.3109 0.90063-0.10426-0.0169-0.30609 0.0146-0.48214 0.0754-0.22436 0.0775-0.46541 0.10504-0.93012 0.10639-0.35045 7e-4 -0.6272 0.0249-0.6272 0.0539 0 0.0286 0.0417 0.2356 0.0927 0.45993 0.12738 0.56011 0.13153 1.9728 7e-3 2.3454-0.0143 0.0428-0.0255 0.0777-0.0345 0.10905a7 7 0 0 0 6.1567-6.9406 7 7 0 0 0-7-7z"
       enable-background="new"
       fill="url(#a)"
       id="base" />
  </g>
</svg>
