<?xml version="1.0" encoding="UTF-8" standalone="no"?>
<!-- Created with Inkscape (http://www.inkscape.org/) -->

<svg xmlns:dc="http://purl.org/dc/elements/1.1/" xmlns:cc="http://creativecommons.org/ns#" xmlns:rdf="http://www.w3.org/1999/02/22-rdf-syntax-ns#" xmlns:svg="http://www.w3.org/2000/svg" xmlns="http://www.w3.org/2000/svg" xmlns:xlink="http://www.w3.org/1999/xlink" xmlns:sodipodi="http://sodipodi.sourceforge.net/DTD/sodipodi-0.dtd" xmlns:inkscape="http://www.inkscape.org/namespaces/inkscape" width="16" height="16" id="svg2" sodipodi:version="0.32" inkscape:version="0.92.1 r" version="1.0" sodipodi:docname="sublime-text.svg" inkscape:output_extension="org.inkscape.output.svg.inkscape" style="display:inline">
  <defs id="defs4">
    <linearGradient gradientTransform="translate(19.9782,-40.416349)" x1="48" y1="90" x2="48" gradientUnits="userSpaceOnUse" y2="5.9877" id="linearGradient928">
      <stop id="stop926" stop-color="#555555" offset="0" />
      <stop id="stop924" stop-color="#222222" offset="1" />
    </linearGradient>
    <inkscape:perspective sodipodi:type="inkscape:persp3d" inkscape:vp_x="0 : 8 : 1" inkscape:vp_y="0 : 1000 : 0" inkscape:vp_z="16 : 8 : 1" inkscape:persp3d-origin="8 : 5.3333333 : 1" id="perspective35" />
    <linearGradient inkscape:collect="always" id="linearGradient3327">
      <stop style="stop-color:#000000;stop-opacity:1" offset="0" id="stop3330" />
      <stop style="stop-color:#000000;stop-opacity:0" offset="1" id="stop3333" />
    </linearGradient>
    <linearGradient id="ButtonColor" x1="10.31979" y1="21" x2="10.31979" y2="0.99929649" gradientUnits="userSpaceOnUse">
      <stop style="stop-color:#29669f;stop-opacity:1" offset="0" id="stop3189" />
      <stop style="stop-color:#88b6e0;stop-opacity:1" offset="1" id="stop3191" />
    </linearGradient>
    <linearGradient inkscape:collect="always" xlink:href="#linearGradient928" id="linearGradient3204" x1="1" y1="9" x2="15" y2="9" gradientUnits="userSpaceOnUse" gradientTransform="translate(-1,-2)" />
    <linearGradient inkscape:collect="always" xlink:href="#linearGradient3327" id="linearGradient3629" x1="0" y1="8" x2="29.017237" y2="8" gradientUnits="userSpaceOnUse" gradientTransform="matrix(0,-1,1,0,0,16)" />
    <linearGradient inkscape:collect="always" xlink:href="#SVGID_1_-4" id="linearGradient3765" gradientUnits="userSpaceOnUse" gradientTransform="matrix(0.09341072,0,0,0.04108075,-26.756456,8.0246654)" x1="383.28857" y1="0" x2="383.28857" y2="218.48047" />
    <linearGradient id="SVGID_1_-4" gradientUnits="userSpaceOnUse" x1="383.28857" y1="0" x2="383.28857" y2="218.48047">
      <stop offset="0.005618" style="stop-color:#ED2828" id="stop3143-2" />
      <stop offset="0.5" style="stop-color:#EF3B39" id="stop3145-1" />
      <stop offset="0.994382" style="stop-color:#C02126" id="stop3147-3" />
    </linearGradient>
    <linearGradient y2="180.6748" x2="175.30762" y1="73.254395" x1="175.30762" gradientUnits="userSpaceOnUse" id="linearGradient3749-5">
      <stop id="stop3751-8" style="stop-color:#000000;stop-opacity:1" offset="0" />
      <stop id="stop3753-7" style="stop-color:#000000;stop-opacity:0.4728682" offset="0.99438202" />
    </linearGradient>
    <linearGradient inkscape:collect="always" xlink:href="#linearGradient3749-5" id="linearGradient3754" gradientUnits="userSpaceOnUse" gradientTransform="matrix(0.04164302,0,0,0.03408859,1.9444673,0.78644322)" x1="175.30762" y1="73.254395" x2="175.30762" y2="180.6748" />
    <linearGradient inkscape:collect="always" xlink:href="#linearGradient3749-5" id="linearGradient3756" gradientUnits="userSpaceOnUse" gradientTransform="matrix(0.04998763,0,0,0.03408859,2.4795353,0.78644322)" x1="175.30762" y1="73.254395" x2="175.30762" y2="180.6748" />
    <linearGradient y2="180.6748" x2="175.30762" y1="73.254395" x1="175.30762" gradientTransform="matrix(0.04859283,0,0,0.03408859,3.115962,0.78644322)" gradientUnits="userSpaceOnUse" id="linearGradient3809" xlink:href="#linearGradient3749-5" inkscape:collect="always" />
    <inkscape:perspective id="perspective3729" inkscape:persp3d-origin="0.5 : 0.33333333 : 1" inkscape:vp_z="1 : 0.5 : 1" inkscape:vp_y="0 : 1000 : 0" inkscape:vp_x="0 : 0.5 : 1" sodipodi:type="inkscape:persp3d" />
    <linearGradient inkscape:collect="always" xlink:href="#linearGradient3696" id="linearGradient4163" x1="6" y1="48" x2="90" y2="48" gradientUnits="userSpaceOnUse" gradientTransform="translate(-96,0)" />
    <linearGradient id="linearGradient3696">
      <stop id="stop3698" offset="0" style="stop-color:#2458a6;stop-opacity:1" />
      <stop id="stop3700" offset="1" style="stop-color:#598ad4;stop-opacity:1" />
    </linearGradient>
    <linearGradient y2="48" x2="90" y1="48" x1="6" gradientTransform="translate(-52.867199,-57.252856)" gradientUnits="userSpaceOnUse" id="linearGradient3738" xlink:href="#linearGradient3696" inkscape:collect="always" />
    <inkscape:perspective id="perspective3703" inkscape:persp3d-origin="0.5 : 0.33333333 : 1" inkscape:vp_z="1 : 0.5 : 1" inkscape:vp_y="0 : 1000 : 0" inkscape:vp_x="0 : 0.5 : 1" sodipodi:type="inkscape:persp3d" />
    <linearGradient gradientTransform="matrix(0.19388162,0,0,0.19388162,-1.4007219,-1.9461429)" inkscape:collect="always" xlink:href="#linearGradient4099" id="linearGradient4113" x1="22.111456" y1="62.983868" x2="40" y2="32" gradientUnits="userSpaceOnUse" />
    <linearGradient id="linearGradient4099">
      <stop style="stop-color:#9ede27;stop-opacity:1" offset="0" id="stop4101" />
      <stop style="stop-color:#c8f16b;stop-opacity:1" offset="1" id="stop4103" />
    </linearGradient>
    <linearGradient gradientTransform="matrix(0.19388162,0,0,0.19388162,-1.5256152,-1.9461429)" inkscape:collect="always" xlink:href="#linearGradient4099" id="linearGradient4105" x1="38" y1="74" x2="70" y2="49" gradientUnits="userSpaceOnUse" />
    <linearGradient id="linearGradient3712">
      <stop style="stop-color:#9ede27;stop-opacity:1" offset="0" id="stop3714" />
      <stop style="stop-color:#c8f16b;stop-opacity:1" offset="1" id="stop3716" />
    </linearGradient>
    <linearGradient inkscape:collect="always" xlink:href="#linearGradient3799-3" id="linearGradient3746" gradientUnits="userSpaceOnUse" x1="56.037025" y1="49.333305" x2="56.037025" y2="13.593002" gradientTransform="matrix(0.26518093,0,0,0.26518093,-0.34872536,-3.7081516)" />
    <linearGradient id="linearGradient3799-3">
      <stop style="stop-color:#1a1a1a;stop-opacity:1" offset="0" id="stop3801-3" />
      <stop style="stop-color:#000000;stop-opacity:1" offset="1" id="stop3803-2" />
    </linearGradient>
    <linearGradient y2="13.593002" x2="56.037025" y1="49.333305" x1="56.037025" gradientTransform="matrix(0.19388162,0,0,0.19388162,-1.3401963,-1.8843368)" gradientUnits="userSpaceOnUse" id="linearGradient3726" xlink:href="#linearGradient3799-3" inkscape:collect="always" />
    <inkscape:perspective id="perspective3736" inkscape:persp3d-origin="0.5 : 0.33333333 : 1" inkscape:vp_z="1 : 0.5 : 1" inkscape:vp_y="0 : 1000 : 0" inkscape:vp_x="0 : 0.5 : 1" sodipodi:type="inkscape:persp3d" />
    <radialGradient inkscape:collect="always" xlink:href="#linearGradient3784-2" id="radialGradient3758" gradientUnits="userSpaceOnUse" gradientTransform="matrix(1.0456205,0.08243661,-0.05194947,0.90987799,0.84943041,1.3399685)" cx="49.580967" cy="67.04126" fx="49.580967" fy="67.04126" r="10" />
    <linearGradient id="linearGradient3784-2">
      <stop id="stop3786-4" offset="0" style="stop-color:#a0a0a0;stop-opacity:1" />
      <stop id="stop3790-2" offset="1" style="stop-color:#1a1a1a;stop-opacity:1" />
    </linearGradient>
    <radialGradient r="10" fy="67.04126" fx="49.580967" cy="67.04126" cx="49.580967" gradientTransform="matrix(1.0456205,0.08243661,-0.05194947,0.90987799,0.84943041,1.3399685)" gradientUnits="userSpaceOnUse" id="radialGradient3745" xlink:href="#linearGradient3784-2" inkscape:collect="always" />
    <radialGradient inkscape:collect="always" xlink:href="#linearGradient3784-2" id="radialGradient3698" cx="10.116978" cy="6.5340972" fx="10.116978" fy="6.5340972" r="2.6487656" gradientTransform="matrix(0.60548597,-0.18291744,0.13322228,0.44098703,0.81853832,7.6996387)" gradientUnits="userSpaceOnUse" />
    <linearGradient inkscape:collect="always" xlink:href="#linearGradient6915-7" id="linearGradient3181" x1="-3.0607977" y1="27.258198" x2="-3.0607977" y2="7.2536583" gradientUnits="userSpaceOnUse" gradientTransform="translate(12.119372,-27.258198)" />
    <linearGradient id="linearGradient6915-7">
      <stop id="stop6917-0" offset="0" style="stop-color:#878787;stop-opacity:1" />
      <stop id="stop6919-1" offset="1" style="stop-color:#454545;stop-opacity:1" />
    </linearGradient>
    <linearGradient y2="7.2536583" x2="-3.0607977" y1="27.258198" x1="-3.0607977" gradientTransform="translate(12.119372,-21.258198)" gradientUnits="userSpaceOnUse" id="linearGradient3108" xlink:href="#linearGradient6915-7" inkscape:collect="always" />
    <linearGradient id="linearGradient4300-4">
      <stop style="stop-color:#fdbe61;stop-opacity:1" offset="0" id="stop4302-3" />
      <stop style="stop-color:#fee7c5;stop-opacity:1" offset="1" id="stop4304-7" />
    </linearGradient>
    <linearGradient id="linearGradient3125">
      <stop style="stop-color:#fdbe61;stop-opacity:1" offset="0" id="stop3127" />
      <stop style="stop-color:#fee7c5;stop-opacity:1" offset="1" id="stop3129" />
    </linearGradient>
    <linearGradient inkscape:collect="always" id="linearGradient4322-78">
      <stop style="stop-color:#ce5c00;stop-opacity:1" offset="0" id="stop4324-2" />
      <stop style="stop-color:#f57900;stop-opacity:1" offset="1" id="stop4326-9" />
    </linearGradient>
    <linearGradient id="linearGradient4216-82">
      <stop style="stop-color:#fee0b3;stop-opacity:1" offset="0" id="stop4218-8" />
      <stop style="stop-color:#fcaf3e;stop-opacity:0" offset="1" id="stop4220-8" />
    </linearGradient>
    <linearGradient y2="31" x2="-43" y1="69" x1="-43" gradientTransform="translate(90,1)" gradientUnits="userSpaceOnUse" id="linearGradient3212" xlink:href="#linearGradient4322-78" inkscape:collect="always" />
    <linearGradient id="buttonGradient" y2="5.9877" gradientUnits="userSpaceOnUse" x2="48" y1="90" x1="48" gradientTransform="translate(19.9782,-40.416349)">
      <stop id="stop3702" stop-color="#222222" offset="0" />
      <stop id="stop3704" stop-color="#555555" offset="1" />
    </linearGradient>
    <linearGradient id="a" gradientUnits="userSpaceOnUse" x1="8" y1="22.998451" x2="8" y2="69.000244" gradientTransform="matrix(0.20201337,0,0,0.20201337,-1.6964226,-1.3429132)">
      <stop stop-color="#ffd062" offset="0" id="stop49" />
      <stop stop-color="#f18304" offset="1" id="stop51" />
    </linearGradient>
    <clipPath clipPathUnits="userSpaceOnUse" id="clipPath891">
      <path style="opacity:0.4;fill:#000000" inkscape:connector-curvature="0" d="m 46.573,23.012 c -3.1032,0.10955 -6.2296,1.0624 -8.8438,3.1406 a 3.8854,3.8854 0 0 0 -0.0039,0 c -1.744,1.3864 -3.1587,3.2152 -3.9844,5.3945 -0.83069,2.1924 -1.0147,4.6258 -0.375,6.9883 a 3.8854,3.8854 0 0 0 0.0039,0.002 c 0.48612,1.7896 1.3875,3.3411 2.4922,4.6309 a 3.8854,3.8854 0 0 0 0.002,0.0039 c 1.0999,1.2809 2.3791,2.2823 3.6934,3.0781 2.6159,1.5876 5.2975,2.3564 7.6387,3.0391 2.3339,0.68045 4.3804,1.2975 5.9434,2.1758 1.5088,0.84779 2.6048,2.0332 2.9648,3.0703 0.2429,0.70344 0.25467,1.6114 -0.002,2.4277 -0.26113,0.83098 -0.82157,1.6835 -1.5742,2.3516 -1.5119,1.342 -4.0072,2.0562 -6.4824,1.8887 -3.5307,-0.239 -7.0767,-2.1855 -9.127,-4.9824 a 3.8855,3.8855 0 0 0 -6.2656,4.5957 c 3.4794,4.7466 8.9722,7.7396 14.867,8.1387 4.1983,0.28427 8.7076,-0.76195 12.164,-3.8301 1.7318,-1.5371 3.1026,-3.5169 3.8301,-5.832 0.73225,-2.3301 0.76934,-4.8784 -0.06445,-7.293 a 3.8854,3.8854 0 0 0 0,-0.002 c -1.1989,-3.4639 -3.8222,-5.7986 -6.5059,-7.3066 -2.6309,-1.4782 -5.2759,-2.1952 -7.5742,-2.8652 -2.291,-0.66793 -4.2874,-1.314 -5.7812,-2.2207 a 3.8854,3.8854 0 0 0 -0.0039,-0.002 c -0.741,-0.451 -1.367,-0.964 -1.824,-1.496 -0.452,-0.528 -0.754,-1.096 -0.893,-1.606 v -0.002 c -0.17547,-0.64998 -0.13519,-1.4732 0.14063,-2.2012 0.28108,-0.74186 0.83486,-1.4942 1.5547,-2.0664 1.4419,-1.1462 3.7795,-1.6786 6.0156,-1.3672 2.6327,0.3668 5.2055,1.8198 6.8457,3.8457 a 3.8854,3.8854 0 1 0 6.0371,-4.8887 c -2.9359,-3.6236 -7.1823,-6.008 -11.814,-6.6543 -1.0085,-0.1403 -2.0392,-0.195 -3.0742,-0.1582 z" id="path893" />
    </clipPath>
    <filter id="w">
      <feGaussianBlur stdDeviation="0.68880677" id="feGaussianBlur46" />
    </filter>
  </defs>
  <sodipodi:namedview id="base" pagecolor="#ffffff" bordercolor="#e7e7e7" borderopacity="1" inkscape:pageopacity="0.0" inkscape:pageshadow="2" inkscape:zoom="26.212949" inkscape:cx="4.3879926" inkscape:cy="10.569717" inkscape:document-units="px" inkscape:current-layer="layer1" showgrid="true" inkscape:showpageshadow="false" showguides="false" inkscape:guide-bbox="true" inkscape:window-width="1920" inkscape:window-height="1028" inkscape:window-x="0" inkscape:window-y="25" inkscape:window-maximized="1" inkscape:snap-global="false">
    <sodipodi:guide orientation="1,0" position="0,112" id="guide2383" inkscape:locked="false" />
    <sodipodi:guide orientation="0,1" position="26.278146,128" id="guide2385" inkscape:locked="false" />
    <sodipodi:guide orientation="1,0" position="128,54.082119" id="guide2387" inkscape:locked="false" />
    <sodipodi:guide orientation="0,1" position="78.156291,0" id="guide2389" inkscape:locked="false" />
    <sodipodi:guide orientation="0,1" position="60.863576,64.084768" id="guide2391" inkscape:locked="false" />
    <inkscape:grid type="xygrid" id="grid3672" visible="true" enabled="true" />
  </sodipodi:namedview>
  <metadata id="metadata7">
    <rdf:RDF>
      <cc:Work rdf:about="">
        <dc:format>image/svg+xml</dc:format>
        <dc:type rdf:resource="http://purl.org/dc/dcmitype/StillImage" />
        <dc:title />
      </cc:Work>
    </rdf:RDF>
  </metadata>
  <g inkscape:label="Button" inkscape:groupmode="layer" id="layer1" style="opacity:0.99">
    <rect ry="2" rx="2" y="0" x="0" height="16" width="16" id="rect3196" style="fill:url(#linearGradient3204);fill-opacity:1;fill-rule:nonzero;stroke:none" transform="matrix(0,1,1,0,0,0)" />
    <path style="opacity:0.4;fill:url(#linearGradient3629);fill-opacity:1;fill-rule:nonzero;stroke:none" d="m 0,14 c 0,1.108 0.892,2 2,2 l 12,0 c 1.108,0 2,-0.892 2,-2 L 16,2 C 16,0.892 15.108,0 14,0 L 2,0 C 0.892,0 0,0.892 0,2 l 0,12 z m 0.96875,0 0,-12 C 0.96875,1.416801 1.4168007,0.96875 2,0.96875 l 12,0 c 0.583199,0 1.03125,0.448051 1.03125,1.03125 l 0,12 c 0,0.583199 -0.448051,1.03125 -1.03125,1.03125 l -12,0 C 1.4168007,15.03125 0.96875,14.583199 0.96875,14 z" id="rect2835" />
    <path style="fill:#ffffff;fill-opacity:1;fill-rule:nonzero;stroke:none;opacity:0.15" d="M 2 0.96875 C 1.4168007 0.96875 0.96875 1.4168007 0.96875 2 L 0.96875 3 C 0.96875 2.4168007 1.4168007 1.96875 2 1.96875 L 14 1.96875 C 14.583199 1.96875 15.03125 2.4168007 15.03125 3 L 15.03125 2 C 15.03125 1.4168007 14.583199 0.96875 14 0.96875 L 2 0.96875 z " id="path2843" />
    <path id="base-3" d="M 7.7119461,3.3058185 C 7.0850582,3.327949 6.4534836,3.5204375 5.9253802,3.9402617 a 0.78490275,0.78490275 0 0 0 -7.878e-4,0 C 5.5722811,4.220333 5.2864928,4.589775 5.1196903,5.0300228 4.9518798,5.4729169 4.9147073,5.9644962 5.0439353,6.4417528 a 0.78490275,0.78490275 0 0 0 7.879e-4,4.04e-4 C 5.1429259,6.80368 5.3250167,7.1171037 5.5481809,7.3776606 a 0.78490275,0.78490275 0 0 0 4.04e-4,7.878e-4 c 0.2221945,0.2587589 0.48061,0.4610551 0.7461162,0.6218174 0.5284468,0.3207164 1.0701658,0.4760243 1.5431195,0.6139388 0.471479,0.13746 0.8848994,0.2621123 1.2006463,0.4395407 0.3047977,0.1712649 0.5262044,0.4107336 0.5989292,0.6202416 0.049069,0.1421043 0.051447,0.3255244 -4.04e-4,0.4904281 -0.052752,0.167869 -0.1659681,0.340089 -0.3180095,0.475054 -0.305424,0.271102 -0.8095079,0.41538 -1.3095314,0.381543 -0.7132486,-0.04828 -1.429588,-0.4415 -1.8437761,-1.006511 a 0.78492295,0.78492295 0 0 0 -1.2657349,0.928393 c 0.7028853,0.958876 1.8125043,1.563502 3.0033327,1.644126 0.8481128,0.05743 1.7590517,-0.153924 2.4572911,-0.773732 0.349846,-0.310514 0.626766,-0.71046 0.773731,-1.178142 0.147924,-0.470711 0.155417,-0.9855017 -0.01302,-1.4732832 a 0.78490275,0.78490275 0 0 0 0,-4.04e-4 C 10.879081,8.4617047 10.34914,7.9900641 9.8069964,7.6854279 9.2755195,7.3868118 8.7411941,7.2419682 8.2769068,7.1066192 7.8140941,6.9716884 7.4107946,6.8411737 7.1090271,6.6580081 a 0.78490275,0.78490275 0 0 0 -7.879e-4,-4.04e-4 C 6.9585473,6.5664961 6.8320869,6.4628632 6.7397668,6.3553921 6.6484568,6.248729 6.5874488,6.1339854 6.5593689,6.0309586 v -4.04e-4 C 6.5239216,5.89925 6.5320587,5.7329485 6.587778,5.5858828 6.64456,5.4360171 6.7564309,5.2840344 6.9018482,5.1684423 7.1931313,4.9368946 7.6653578,4.8293427 8.1170799,4.8922497 8.6489205,4.9663482 9.1686605,5.2598736 9.5000028,5.6691325 A 0.78490275,0.78490275 0 1 0 10.719578,4.6815497 C 10.126487,3.9495341 9.2686571,3.4678534 8.3329917,3.3372922 8.1292613,3.3089497 7.9210461,3.2978995 7.7119622,3.3053336 Z" inkscape:connector-curvature="0" style="fill:url(#a);stroke-width:0.99999994" />
    <path style="opacity:0.4;fill:#000000;stroke-width:4.95016718;filter:url(#w)" d="m 46.572266,23.009766 v 0.002 c -3.1032,0.10955 -6.22955,1.062425 -8.84375,3.140625 a 3.8854,3.8854 0 0 0 -0.0039,0 c -1.744,1.3864 -3.158675,3.215231 -3.984375,5.394531 -0.83069,2.1924 -1.0147,4.625781 -0.375,6.988281 a 3.8854,3.8854 0 0 0 0.0039,0.002 c 0.48612,1.7896 1.387487,3.34106 2.492187,4.63086 a 3.8854,3.8854 0 0 0 0.002,0.0039 c 1.0999,1.2809 2.37906,2.282325 3.69336,3.078125 2.6159,1.5876 5.297472,2.356362 7.638671,3.039062 2.3339,0.680451 4.38036,1.297482 5.94336,2.175782 1.5088,0.84779 2.604844,2.033212 2.964844,3.070312 0.2429,0.70344 0.254717,1.611435 -0.002,2.427735 -0.26113,0.83098 -0.821588,1.683462 -1.574218,2.351562 -1.5119,1.342 -4.007222,2.056172 -6.482422,1.888672 -3.5307,-0.239 -7.076653,-2.185522 -9.126953,-4.982422 a 3.8855,3.8855 0 0 0 -6.265625,4.595703 c 3.4794,4.7466 8.972387,7.739572 14.867187,8.138672 0.02197,0.0015 0.04441,5.38e-4 0.06641,0.002 -5.595454,-0.37941 -10.817893,-3.223563 -14.119141,-7.720703 0,0 0,-0.002 0,-0.002 -0.868949,-1.219663 -0.565059,-3.116174 0.642578,-4.001953 1.207696,-0.885822 3.107514,-0.6055 4.009766,0.589844 0,0 0.002,0 0.002,0 2.245513,3.055789 6.011351,5.118558 9.857422,5.378906 2.711417,0.183485 5.424188,-0.550975 7.21289,-2.138672 0.884164,-0.784861 1.540069,-1.76407 1.865235,-2.798828 0.322938,-1.027056 0.318484,-2.10973 -0.0078,-3.054688 a 1.0001,1.0001 0 0 1 0,-0.002 C 56.56005,53.798944 55.30446,52.535238 53.628906,51.59375 c -1.713613,-0.962934 -3.81329,-1.581719 -6.152344,-2.263672 -2.344515,-0.683667 -4.921209,-1.430922 -7.40039,-2.935547 -1.241099,-0.751477 -2.431786,-1.687087 -3.449219,-2.871093 -9.64e-4,-0.0011 -0.0029,-8.31e-4 -0.0039,-0.002 a 1.0001,1.0001 0 0 0 -0.002,-0.0039 c -1.021793,-1.193001 -1.844636,-2.613267 -2.28711,-4.242187 a 1.0001,1.0001 0 0 0 -0.0039,-0.01172 c -0.578622,-2.145523 -0.414298,-4.355494 0.345703,-6.361328 0.755598,-1.994277 2.052239,-3.674359 3.66211,-4.957032 a 1.0001,1.0001 0 0 0 0.01367,-0.0098 c 2.426741,-1.929175 5.333314,-2.820656 8.25586,-2.923828 a 1.0001,1.0001 0 0 0 0.01563,-0.002 c 0.971652,-0.03374 1.939658,0.01668 2.886719,0.148437 4.38114,0.611337 8.399759,2.869107 11.173828,6.292969 a 1.0001,1.0001 0 0 0 0.01758,0.01953 c 0.996374,1.168138 0.812338,3.149011 -0.38086,4.115235 -1.193196,0.966222 -3.168073,0.733105 -4.103515,-0.484376 a 1.0001,1.0001 0 0 0 -0.01563,-0.01953 c -1.81483,-2.241514 -4.582353,-3.80259 -7.484341,-4.206908 -0.326236,-0.04543 -0.653825,-0.07291 -0.980469,-0.08789 0.280737,0.01301 0.562284,0.0392 0.841797,0.07813 2.6327,0.3668 5.205503,1.819803 6.845703,3.845704 a 3.8854,3.8854 0 1 0 6.03711,-4.888672 c -2.9359,-3.6236 -7.182754,-6.007997 -11.814454,-6.654297 -1.0085,-0.1403 -2.039218,-0.195003 -3.074218,-0.158203 z m 1.164062,7.777343 c -2.161083,-0.09909 -4.286909,0.463356 -5.794922,1.66211 -0.858515,0.682432 -1.513239,1.556756 -1.86914,2.496093 -0.328292,0.866492 -0.388491,1.780897 -0.203125,2.623047 a 1.0001,1.0001 0 0 1 -0.002,-0.06641 l 0.03516,0.257813 c -0.01457,-0.05396 -0.01691,-0.111367 -0.0293,-0.166016 a 1.0001,1.0001 0 0 0 0.0293,0.171875 C 40.08844,38.448426 40.460697,39.127831 41,39.757812 a 1.0001,1.0001 0 0 1 0.002,0.002 c 0.544073,0.633362 1.24748,1.203167 2.0625,1.699218 a 1.0001,1.0001 0 0 0 0.0059,0.002 c 1.651515,1.002428 3.712046,1.653435 6.019532,2.326171 2.312178,0.674046 4.861524,1.371704 7.363281,2.777344 2.542043,1.428401 4.953925,3.592646 6.050781,6.761719 0.759952,2.200769 0.729269,4.527592 0.05664,6.667969 -0.668678,2.127911 -1.932109,3.954789 -3.541016,5.382812 -2.412894,2.14186 -5.393349,3.237358 -8.414062,3.537109 3.234939,-0.303738 6.458917,-1.464064 9.078125,-3.789062 1.7318,-1.5371 3.102578,-3.516931 3.830078,-5.832031 C 64.245922,56.962869 64.283009,54.4146 63.449219,52 a 3.8854,3.8854 0 0 0 0,-0.002 c -1.1989,-3.4639 -3.82216,-5.798641 -6.50586,-7.306641 -2.6309,-1.4782 -5.275918,-2.195234 -7.574218,-2.865234 -2.291,-0.66793 -4.28745,-1.314003 -5.78125,-2.220703 a 3.8854,3.8854 0 0 0 -0.0039,-0.002 c -0.741,-0.451 -1.367218,-0.964094 -1.824218,-1.496094 -0.452,-0.528 -0.753578,-1.095469 -0.892578,-1.605469 V 36.5 c -0.17547,-0.64998 -0.135195,-1.473172 0.140624,-2.201172 0.281081,-0.74186 0.834848,-1.494206 1.554688,-2.066406 1.261662,-1.002925 3.208671,-1.536351 5.173828,-1.445313 z" id="path4216" clip-path="url(#clipPath891)" inkscape:connector-curvature="0" transform="matrix(0.20201337,0,0,0.20201337,-1.6964226,-1.3429132)" />
    <path style="opacity:0.25;fill:#000000;stroke-width:0.99999994" d="m 7.7082468,3.0023471 a 0.10101679,0.10101679 0 0 0 -0.016965,0.00237 C 7.0582066,3.0300955 6.4186702,3.2258755 5.8798688,3.6478433 A 0.10101679,0.10101679 0 0 0 5.86172,3.6592853 C 5.4963673,3.9497242 5.1989709,4.3335738 5.0252586,4.7920595 4.8504251,5.253489 4.8112686,5.7672631 4.9463469,6.2661258 a 0.10101679,0.10101679 0 0 0 0.011048,0.025252 C 5.0182402,6.5053828 5.109203,6.700676 5.2174082,6.8804515 5.1473956,6.7429513 5.0868947,6.5978304 5.0445922,6.4420983 A 0.78490275,0.78490275 0 0 1 5.0438044,6.4416942 C 4.9145764,5.9644376 4.9517489,5.4728622 5.1195594,5.029968 5.2863619,4.5897203 5.5721451,4.220272 5.9244564,3.9402007 a 0.78490275,0.78490275 0 0 1 7.879e-4,0 C 6.4533476,3.5203765 7.0849121,3.327883 7.7118,3.3057524 v -4.04e-4 c 0.2090839,-0.00743 0.4173027,0.00362 0.6210332,0.031959 0.9356653,0.1305612 1.7935868,0.6122413 2.3866778,1.344257 A 0.78490275,0.78490275 0 0 1 10.84932,5.486856 C 10.933711,5.3627602 10.990592,5.2197333 11.004381,5.0702034 11.025998,4.835793 10.94942,4.5941038 10.796844,4.4148436 10.187446,3.663389 9.3074527,3.1690914 8.3470373,3.0350765 8.1375529,3.0059337 7.9232646,2.9946833 7.708249,3.0023283 Z M 6.7009417,5.3807388 c -0.04768,0.066393 -0.086983,0.1358762 -0.113238,0.2051698 -0.055719,0.1470658 -0.063855,0.3133616 -0.028408,0.4446662 v 4.04e-4 c 0.02808,0.1030269 0.089003,0.2176632 0.1803127,0.3243262 0.09232,0.1074711 0.2188245,0.211123 0.3685164,0.302231 a 0.78490275,0.78490275 0 0 1 7.878e-4,4.041e-4 c 0.3017676,0.1831655 0.7050772,0.3136809 1.1678898,0.4486116 0.4642874,0.135349 0.9986164,0.2801995 1.5300933,0.5788156 0.5421433,0.3046362 1.0720773,0.7762851 1.3142713,1.4760392 a 0.78490275,0.78490275 0 0 0 0,4.04e-4 c 0.168436,0.4877815 0.160944,1.0025655 0.01302,1.4732775 -0.0472,0.15021 -0.108977,0.292578 -0.181101,0.428094 0.114844,-0.185084 0.209883,-0.384955 0.277373,-0.599727 0.152291,-0.4846058 0.160624,-1.0153481 -0.0095,-1.5198347 a 0.10101679,0.10101679 0 0 0 -0.0043,-0.017361 C 10.96415,8.1967258 10.413063,7.708053 9.8566113,7.3953767 9.3120901,7.0894315 8.7680974,6.9424266 8.3052119,6.8074863 7.8440644,6.673041 7.4472274,6.5430239 7.16139,6.3695276 A 0.10101679,0.10101679 0 0 0 7.15902,6.3679476 C 7.0177514,6.2817136 6.8996548,6.184169 6.8165465,6.0874216 6.7342884,5.9912477 6.6800887,5.8883758 6.6567507,5.8029457 c 0,0 0,-4.04e-4 0,-4.04e-4 a 0.10101679,0.10101679 0 0 0 0,-4.04e-4 c -0.028841,-0.1068316 -0.022289,-0.2558051 0.025646,-0.3823263 0.00488,-0.012876 0.01266,-0.026031 0.018545,-0.039061 z M 5.4955689,9.4004893 C 5.3234943,9.4095072 5.1541011,9.4685139 5.0149981,9.5705436 4.8295276,9.7065828 4.7006693,9.9175151 4.6642366,10.144624 c -0.036433,0.22711 0.01987,0.467739 0.1534829,0.654966 a 0.10101679,0.10101679 0 0 0 7.879e-4,0.0012 c 0.00111,0.0015 0.00244,0.0028 0.00355,0.0043 a 0.78492295,0.78492295 0 0 1 1.3434679,-0.790693 c 0.414188,0.565011 1.1305179,0.958234 1.8437665,1.006516 0.5000235,0.03384 1.0041119,-0.110435 1.3095359,-0.381537 C 9.470869,10.50441 9.584089,10.332198 9.6368408,10.164329 9.6886918,9.9994251 9.6863048,9.815998 9.6372448,9.6738937 9.6152858,9.6106347 9.5760138,9.5450025 9.5287414,9.4789823 c 0.00346,0.00836 0.0106,0.017927 0.013416,0.026041 h -4.04e-4 C 9.5824,9.6227636 9.5857282,9.7883495 9.5405626,9.9319653 9.4942789,10.079251 9.390502,10.238861 9.2517465,10.362033 8.9742818,10.608318 8.4925514,10.750541 8.0163875,10.718318 7.3354622,10.672225 6.6417603,10.291083 6.2471924,9.7528362 a 0.10101679,0.10101679 0 0 0 -7.879e-4,-0.00119 C 6.1079617,9.5679608 5.8951536,9.4418518 5.667589,9.4083794 5.6106978,9.400012 5.5529201,9.3974828 5.4955618,9.4004887 Z" id="path61" inkscape:connector-curvature="0" />
    <path style="opacity:0.2;fill:#ffffff;stroke-width:0.99999994" d="M 7.7776889,4.8764944 C 7.440651,4.8910576 7.1202338,4.9948062 6.9017715,5.168467 6.7563542,5.284059 6.6444858,5.436043 6.5877037,5.5859086 6.5319846,5.7329744 6.5238485,5.8992702 6.5592958,6.0305748 v 4.04e-4 c 0.00231,0.00847 0.00632,0.017422 0.00907,0.026041 0.00619,-0.022514 0.011058,-0.045232 0.019333,-0.067075 C 6.644485,5.8400792 6.7563533,5.6880953 6.9017707,5.5725032 7.1930537,5.3409555 7.6652852,5.233406 8.1170073,5.296313 8.6488479,5.3704115 9.1685885,5.6639375 9.4999309,6.0731966 A 0.78490275,0.78490275 0 0 0 10.880092,5.3933741 0.78490275,0.78490275 0 0 1 9.4999309,5.6691699 C 9.1685885,5.2599108 8.6488479,4.9663847 8.1170073,4.8922862 8.0040768,4.8765595 7.890034,4.8716494 7.7776881,4.8765029 Z M 4.9763315,6.0649013 c -0.022369,0.2578244 -0.00279,0.5213456 0.067469,0.780829 a 0.78490275,0.78490275 0 0 0 7.878e-4,4.04e-4 c 0.098203,0.3615231 0.2802909,0.6749388 0.5034551,0.9354956 a 0.78490275,0.78490275 0 0 0 4.04e-4,7.879e-4 c 0.2221945,0.2587589 0.480602,0.4610601 0.7461081,0.6218224 0.5284468,0.3207164 1.0701602,0.4760166 1.5431137,0.6139311 0.471479,0.1374602 0.8848913,0.2621088 1.2006382,0.4395371 0.3047978,0.1712649 0.5262133,0.410736 0.5989381,0.6202436 0.00438,0.0127 0.00623,0.02733 0.00986,0.04064 C 9.6853909,9.9660165 9.6818722,9.803163 9.6372458,9.6739257 9.564521,9.4644177 9.3431055,9.2249466 9.0383077,9.0536817 8.7225608,8.8762533 8.3091485,8.7516048 7.8376695,8.6141446 7.364716,8.4762301 6.8230026,8.3209299 6.2945558,8.0002134 6.0290497,7.8394512 5.7706422,7.63715 5.5484477,7.378391 a 0.78490275,0.78490275 0 0 1 -4.04e-4,-7.878e-4 C 5.3248795,7.1170463 5.1427914,6.8036307 5.0445886,6.4421076 A 0.78490275,0.78490275 0 0 1 5.0438008,6.4417035 C 5.0099377,6.3166425 4.9879861,6.1907956 4.9763315,6.0649013 Z m 6.2608365,4.0469747 c -0.01516,0.177845 -0.04964,0.353467 -0.10298,0.523183 -0.146964,0.467681 -0.42388,0.867634 -0.773727,1.178149 -0.6982387,0.619807 -1.6091903,0.831153 -2.457303,0.773726 -1.1908284,-0.08062 -2.3004852,-0.685243 -3.0033706,-1.64412 a 0.78492295,0.78492295 0 0 1 -0.1183673,-0.254095 0.78492295,0.78492295 0 0 0 0.1183673,0.658122 c 0.7028854,0.958876 1.8125422,1.563497 3.0033706,1.64412 0.8481127,0.05743 1.7590643,-0.153919 2.457303,-0.773727 0.349847,-0.310514 0.626763,-0.710467 0.773727,-1.178148 0.09347,-0.297425 0.130602,-0.612521 0.10298,-0.92721 z" id="path69" inkscape:connector-curvature="0" />
  </g>
</svg>
