<?xml version="1.0" encoding="UTF-8" standalone="no"?>
<svg
   xmlns:dc="http://purl.org/dc/elements/1.1/"
   xmlns:cc="http://creativecommons.org/ns#"
   xmlns:rdf="http://www.w3.org/1999/02/22-rdf-syntax-ns#"
   xmlns:svg="http://www.w3.org/2000/svg"
   xmlns="http://www.w3.org/2000/svg"
   xmlns:sodipodi="http://sodipodi.sourceforge.net/DTD/sodipodi-0.dtd"
   xmlns:inkscape="http://www.inkscape.org/namespaces/inkscape"
   id="svg2"
   width="16"
   height="16"
   version="1.0"
   sodipodi:docname="tox.svg"
   inkscape:version="0.92.2 5c3e80d, 2017-08-06">
  <metadata
     id="metadata31">
    <rdf:RDF>
      <cc:Work
         rdf:about="">
        <dc:format>image/svg+xml</dc:format>
        <dc:type
           rdf:resource="http://purl.org/dc/dcmitype/StillImage" />
      </cc:Work>
    </rdf:RDF>
  </metadata>
  <sodipodi:namedview
     pagecolor="#ffffff"
     bordercolor="#666666"
     borderopacity="1"
     objecttolerance="10"
     gridtolerance="10"
     guidetolerance="10"
     inkscape:pageopacity="0"
     inkscape:pageshadow="2"
     inkscape:window-width="640"
     inkscape:window-height="480"
     id="namedview29"
     showgrid="false"
     inkscape:zoom="14.75"
     inkscape:cx="8"
     inkscape:cy="8"
     inkscape:window-x="0"
     inkscape:window-y="25"
     inkscape:window-maximized="0"
     inkscape:current-layer="svg2" />
  <defs
     id="defs4">
    <linearGradient
       id="linearGradient3204"
       x1="1"
       x2="15"
       y1="9"
       y2="9"
       gradientTransform="translate(-17,-2)"
       gradientUnits="userSpaceOnUse">
      <stop
         id="stop3189"
         stop-color="#3c3c3c"
         offset="0" />
      <stop
         id="stop3191"
         stop-color="#505050"
         offset="1" />
    </linearGradient>
    <linearGradient
       id="linearGradient3629"
       x2="29.017"
       y1="8"
       y2="8"
       gradientTransform="matrix(0,-1,1,0,0,16)"
       gradientUnits="userSpaceOnUse">
      <stop
         id="stop3330"
         offset="0" />
      <stop
         id="stop3333"
         stop-opacity="0"
         offset="1" />
    </linearGradient>
  </defs>
  <g
     id="layer1">
    <rect
       id="rect3196"
       transform="rotate(-90)"
       x="-16"
       width="16"
       height="16"
       rx="2"
       ry="2"
       fill="url(#linearGradient3204)" />
    <path
       id="rect2835"
       d="m0 14c0 1.108 0.892 2 2 2h12c1.108 0 2-0.892 2-2v-12c0-1.108-0.892-2-2-2h-12c-1.108 0-2 0.892-2 2v12zm0.96875 0v-12c0-0.5832 0.44805-1.0312 1.0312-1.0312h12c0.5832 0 1.0312 0.44805 1.0312 1.0312v12c0 0.5832-0.44805 1.0312-1.0312 1.0312h-12c-0.5832 0-1.0312-0.44805-1.0312-1.0312z"
       fill="url(#linearGradient3629)"
       opacity=".4" />
    <path
       id="path2843"
       d="m2 0.96875c-0.5832 0-1.0312 0.44805-1.0312 1.0312v1c0-0.5832 0.44805-1.0312 1.0312-1.0312h12c0.5832 0 1.0312 0.44805 1.0312 1.0312v-1c0-0.5832-0.44805-1.0312-1.0312-1.0312h-12z"
       fill="#fff"
       opacity=".35" />
  </g>
  <defs
     id="defs21">
    <filter
       id="w">
      <feGaussianBlur
         stdDeviation="0.26998568"
         id="feGaussianBlur13" />
    </filter>
    <linearGradient
       id="a"
       gradientUnits="userSpaceOnUse"
       x1="8"
       y1="1"
       x2="8"
       y2="15">
      <stop
         stop-color="#ffffff"
         offset="0"
         id="stop16" />
      <stop
         stop-color="#ffffff"
         offset="1"
         id="stop18" />
    </linearGradient>
  </defs>
  <g
     id="main"
     transform="translate(1,1) scale(0.85714)">
    <path
       style="opacity:0.3;fill:#000000"
       inkscape:connector-curvature="0"
       id="path23"
       d="M 8,2 C 5.784,2 4,3.784 4,6 V 8 H 3 C 2.446,8 2,8.446 2,9 v 6 c 0,0.554 0.446,1 1,1 h 10 c 0.554,0 1,-0.446 1,-1 V 9 C 14,8.446 13.554,8 13,8 H 12 V 6 C 12,3.784 10.216,2 8,2 Z m 0,1.5 c 1.385,0 2.5,1.115 2.5,2.5 0,0.35656 -0.0756,0.69365 -0.20898,1 C 10.07674,7.65209 9.72467,8.0876 9.30079,8.5977 8.97348,8.99127 8.58932,9.323 8.17969,9.6231 8.159936,9.637666 8.139029,9.649847 8.08594,9.683647 8.31693,9.272377 8.50023,8.878327 8.56836,8.429747 8.38537,8.472111 8.19624,8.500059 8,8.500059 c -1.385,0 -2.5,-1.115 -2.5,-2.5 0,-1.385 1.115,-2.5 2.5,-2.5 z M 8,10 c 0.72316,0 1.3086,0.56313 1.3086,1.2578 0,0.53947 -0.3543,0.99946 -0.85156,1.1777 0.35214,0.10923 0.68512,0.33437 0.94727,0.68164 0.24478,0.3242 0.3457,0.77597 0.3457,0.93945 v 0.29688 c -9.06e-4,0.009 0,0.01805 0,0.02734 1.51e-4,0.34205 -0.28443,0.61914 -0.63477,0.61914 h -2.2305 c -0.35063,0 -0.63477,-0.2768 -0.63477,-0.61914 0,-0.0091 0.00165,-0.02016 0.00195,-0.0293 -7.55e-4,0 -0.00166,-0.14696 -0.00195,-0.29492 -1.511e-4,-0.16377 0.076489,-0.62167 0.31055,-0.95312 0.24779,-0.35075 0.5826,-0.57908 0.94531,-0.68164 -0.47808,-0.18727 -0.81445,-0.63794 -0.81445,-1.1641 0,-0.69468 0.58573,-1.2578 1.3086,-1.2578 z" />
    <path
       d="m8 1c-2.216 0-4 1.784-4 4v2h-1c-0.554 0-1 0.446-1 1v6c0 0.554 0.446 1 1 1h10c0.554 0 1-0.446 1-1v-6c0-0.554-0.446-1-1-1h-1v-2c0-2.216-1.784-4-4-4zm0 1.5c1.385 0 2.5 1.115 2.5 2.5 0 0.35656-0.075602 0.69365-0.20898 1-0.21428 0.65209-0.56635 1.0876-0.99023 1.5977-0.32731 0.39357-0.71147 0.7253-1.1211 1.0254-0.019754 0.014566-0.040661 0.026747-0.09375 0.060547 0.23099-0.41127 0.41429-0.80532 0.48242-1.2539-0.18299 0.042364-0.37212 0.070312-0.56836 0.070312-1.385 0-2.5-1.115-2.5-2.5s1.115-2.5 2.5-2.5zm0 6.5c0.72316 0 1.3086 0.56313 1.3086 1.2578 0 0.53947-0.3543 0.99946-0.85156 1.1777 0.35214 0.10923 0.68512 0.33437 0.94727 0.68164 0.24478 0.3242 0.3457 0.77597 0.3457 0.93945v0.29688c-9.06e-4 9e-3 0 0.018053 0 0.027343 1.51e-4 0.34205-0.28443 0.61914-0.63477 0.61914h-2.2305c-0.35063 0-0.63477-0.2768-0.63477-0.61914 0-0.0091 0.0016531-0.020156 0.0019531-0.029297-7.55e-4 0-0.0016591-0.14696-0.0019531-0.29492-1.511e-4 -0.16377 0.076489-0.62167 0.31055-0.95312 0.24779-0.35075 0.5826-0.57908 0.94531-0.68164-0.47808-0.18727-0.81445-0.63794-0.81445-1.1641 0-0.69468 0.58573-1.2578 1.3086-1.2578z"
       fill="url(#a)"
       id="base" />
  </g>
</svg>
