<?xml version="1.0" encoding="UTF-8" standalone="no"?>
<!-- Created with Inkscape (http://www.inkscape.org/) -->

<svg
   xmlns:dc="http://purl.org/dc/elements/1.1/"
   xmlns:cc="http://creativecommons.org/ns#"
   xmlns:rdf="http://www.w3.org/1999/02/22-rdf-syntax-ns#"
   xmlns:svg="http://www.w3.org/2000/svg"
   xmlns="http://www.w3.org/2000/svg"
   xmlns:xlink="http://www.w3.org/1999/xlink"
   xmlns:sodipodi="http://sodipodi.sourceforge.net/DTD/sodipodi-0.dtd"
   xmlns:inkscape="http://www.inkscape.org/namespaces/inkscape"
   width="16"
   height="16"
   id="svg2"
   sodipodi:version="0.32"
   inkscape:version="0.91 r13725"
   version="1.0"
   sodipodi:docname="uget-icon.svg"
   inkscape:output_extension="org.inkscape.output.svg.inkscape"
   style="display:inline">
  <defs
     id="defs4">
    <inkscape:perspective
       sodipodi:type="inkscape:persp3d"
       inkscape:vp_x="0 : 8 : 1"
       inkscape:vp_y="0 : 1000 : 0"
       inkscape:vp_z="16 : 8 : 1"
       inkscape:persp3d-origin="8 : 5.3333333 : 1"
       id="perspective26" />
    <linearGradient
       inkscape:collect="always"
       id="linearGradient3327">
      <stop
         style="stop-color:#000000;stop-opacity:1;"
         offset="0"
         id="stop3330" />
      <stop
         style="stop-color:#000000;stop-opacity:0;"
         offset="1"
         id="stop3333" />
    </linearGradient>
    <linearGradient
       id="ButtonColor"
       x1="10.31979"
       y1="21"
       x2="10.31979"
       y2="0.99929649"
       gradientUnits="userSpaceOnUse">
      <stop
         style="stop-color:#29669f;stop-opacity:1;"
         offset="0"
         id="stop3189" />
      <stop
         style="stop-color:#88b6e0;stop-opacity:1;"
         offset="1"
         id="stop3191" />
    </linearGradient>
    <linearGradient
       inkscape:collect="always"
       xlink:href="#linearGradient3327"
       id="linearGradient3192"
       x1="9.0574636"
       y1="10.202822"
       x2="9.0574636"
       y2="-12.198761"
       gradientUnits="userSpaceOnUse"
       gradientTransform="translate(0,5.8006549)" />
    <linearGradient
       inkscape:collect="always"
       xlink:href="#linearGradient3700"
       id="linearGradient3204"
       x1="1"
       y1="9"
       x2="15"
       y2="9"
       gradientUnits="userSpaceOnUse"
       gradientTransform="translate(-17,-2)" />
    <linearGradient
       inkscape:collect="always"
       xlink:href="#ButtonColor"
       id="linearGradient3173"
       gradientUnits="userSpaceOnUse"
       gradientTransform="translate(-16,-1)"
       x1="1"
       y1="9"
       x2="15"
       y2="9" />
    <linearGradient
       inkscape:collect="always"
       xlink:href="#ButtonColor"
       id="linearGradient3177"
       gradientUnits="userSpaceOnUse"
       gradientTransform="translate(-16,-1)"
       x1="1"
       y1="9"
       x2="15"
       y2="9" />
    <linearGradient
       inkscape:collect="always"
       xlink:href="#ButtonColor"
       id="linearGradient3179"
       gradientUnits="userSpaceOnUse"
       gradientTransform="matrix(0,-1,1,0,-1,16)"
       x1="1"
       y1="9"
       x2="15"
       y2="9" />
    <linearGradient
       inkscape:collect="always"
       xlink:href="#linearGradient3327"
       id="linearGradient3612"
       x1="8"
       y1="15"
       x2="8"
       y2="-1"
       gradientUnits="userSpaceOnUse" />
    <linearGradient
       inkscape:collect="always"
       xlink:href="#linearGradient3327"
       id="linearGradient3629"
       x1="0"
       y1="8"
       x2="29.017237"
       y2="8"
       gradientUnits="userSpaceOnUse"
       gradientTransform="matrix(0,-1,1,0,0,16)" />
    <inkscape:perspective
       id="perspective3022"
       inkscape:persp3d-origin="0.5 : 0.33333333 : 1"
       inkscape:vp_z="1 : 0.5 : 1"
       inkscape:vp_y="0 : 1000 : 0"
       inkscape:vp_x="0 : 0.5 : 1"
       sodipodi:type="inkscape:persp3d" />
    <linearGradient
       inkscape:collect="always"
       xlink:href="#linearGradient3700"
       id="linearGradient3617"
       gradientUnits="userSpaceOnUse"
       x1="48"
       y1="90"
       x2="48"
       y2="5.9877172" />
    <linearGradient
       id="linearGradient3700">
      <stop
         style="stop-color:#236f23;stop-opacity:1"
         offset="0"
         id="stop3702" />
      <stop
         style="stop-color:#61a939;stop-opacity:1"
         offset="1"
         id="stop3704" />
    </linearGradient>
    <linearGradient
       gradientTransform="translate(-71,-32)"
       y2="5.9877172"
       x2="48"
       y1="90"
       x1="48"
       gradientUnits="userSpaceOnUse"
       id="linearGradient3031"
       xlink:href="#linearGradient3700"
       inkscape:collect="always" />
    <inkscape:perspective
       id="perspective3041"
       inkscape:persp3d-origin="0.5 : 0.33333333 : 1"
       inkscape:vp_z="1 : 0.5 : 1"
       inkscape:vp_y="0 : 1000 : 0"
       inkscape:vp_x="0 : 0.5 : 1"
       sodipodi:type="inkscape:persp3d" />
  </defs>
  <sodipodi:namedview
     id="base"
     pagecolor="#ffffff"
     bordercolor="#e7e7e7"
     borderopacity="1"
     inkscape:pageopacity="0.0"
     inkscape:pageshadow="2"
     inkscape:zoom="14.544117"
     inkscape:cx="10.816487"
     inkscape:cy="8.5304356"
     inkscape:document-units="px"
     inkscape:current-layer="layer1"
     showgrid="true"
     inkscape:showpageshadow="false"
     showguides="false"
     inkscape:guide-bbox="true"
     inkscape:window-width="1366"
     inkscape:window-height="743"
     inkscape:window-x="0"
     inkscape:window-y="25"
     inkscape:window-maximized="1">
    <sodipodi:guide
       orientation="1,0"
       position="0,112"
       id="guide2383" />
    <sodipodi:guide
       orientation="0,1"
       position="26.278146,128"
       id="guide2385" />
    <sodipodi:guide
       orientation="1,0"
       position="128,54.082119"
       id="guide2387" />
    <sodipodi:guide
       orientation="0,1"
       position="78.156291,0"
       id="guide2389" />
    <sodipodi:guide
       orientation="0,1"
       position="60.863576,64.084768"
       id="guide2391" />
    <inkscape:grid
       type="xygrid"
       id="grid3672"
       visible="true"
       enabled="true" />
  </sodipodi:namedview>
  <metadata
     id="metadata7">
    <rdf:RDF>
      <cc:Work
         rdf:about="">
        <dc:format>image/svg+xml</dc:format>
        <dc:type
           rdf:resource="http://purl.org/dc/dcmitype/StillImage" />
        <dc:title />
      </cc:Work>
    </rdf:RDF>
  </metadata>
  <g
     inkscape:label="Button"
     inkscape:groupmode="layer"
     id="layer1">
    <rect
       ry="2"
       rx="2"
       y="0"
       x="-16"
       height="16"
       width="16"
       id="rect3196"
       style="fill:url(#linearGradient3204);fill-opacity:1.0;fill-rule:nonzero;stroke:none"
       transform="matrix(0,-1,1,0,0,0)" />
    <path
       style="display:inline;fill:#1a1a1a;fill-opacity:1;stroke:none;opacity:0.65"
       d="M 5.5 2 C 4.669 2 4 2.669 4 3.5 L 4 4.5 C 4 3.669 4.669 3 5.5 3 L 13.5 3 C 14.331 3 15 3.669 15 4.5 L 15 3.5 C 15 2.669 14.331 2 13.5 2 L 5.5 2 z M 1 6 L 1 7 L 3 7 L 3 6 L 1 6 z M 11 7 L 11 8 L 12.5 8 L 15 8 L 15 7 L 11 7 z M 5.5 9 L 9 13.5 L 12.5 9 L 11.722656 9 L 9 12.5 L 6.2773438 9 L 5.5 9 z M 3 9.5 L 3 10.5 C 3 10.777 3.223 11 3.5 11 L 4 11 L 4 10 L 3.5 10 C 3.223 10 3 9.7769996 3 9.5 z "
       id="path4174" />
    <path
       style="opacity:0.4;fill:url(#linearGradient3629);fill-opacity:1;fill-rule:nonzero;stroke:none"
       d="m 0,14 c 0,1.108 0.892,2 2,2 l 12,0 c 1.108,0 2,-0.892 2,-2 L 16,2 C 16,0.892 15.108,0 14,0 L 2,0 C 0.892,0 0,0.892 0,2 l 0,12 z m 0.96875,0 0,-12 C 0.96875,1.416801 1.4168007,0.96875 2,0.96875 l 12,0 c 0.583199,0 1.03125,0.448051 1.03125,1.03125 l 0,12 c 0,0.583199 -0.448051,1.03125 -1.03125,1.03125 l -12,0 C 1.4168007,15.03125 0.96875,14.583199 0.96875,14 z"
       id="rect2835" />
    <path
       style="fill:#ffffff;fill-opacity:1;fill-rule:nonzero;stroke:none;opacity:0.3"
       d="M 2 0.96875 C 1.4168007 0.96875 0.96875 1.4168007 0.96875 2 L 0.96875 3 C 0.96875 2.4168007 1.4168007 1.96875 2 1.96875 L 14 1.96875 C 14.583199 1.96875 15.03125 2.4168007 15.03125 3 L 15.03125 2 C 15.03125 1.4168007 14.583199 0.96875 14 0.96875 L 2 0.96875 z "
       id="path2843" />
    <path
       style="display:inline;opacity:0.2;fill:#ffffff;fill-opacity:1;stroke:none"
       d="M 7 4 L 7 5 L 11 5 L 11 4 L 7 4 z M 11 6 L 11 7 L 15 7 L 15 6 L 11 6 z M 5.5 8 L 6.2773438 9 L 7 9 L 7 8 L 5.5 8 z M 11 8 L 11 9 L 11.722656 9 L 12.5 8 L 11 8 z M 1 10.5 L 1 11.5 C 1 12.331 1.669 13 2.5 13 L 4 13 L 4 13.5 C 4 14.331 4.669 15 5.5 15 L 11 15 L 13.5 15 C 14.331 15 15 14.331 15 13.5 L 15 12.5 C 15 13.331 14.331 14 13.5 14 L 11 14 L 5.5 14 C 4.669 14 4 13.331 4 12.5 L 4 12 L 2.5 12 C 1.669 12 1 11.331 1 10.5 z "
       id="path4179" />
    <path
       inkscape:connector-curvature="0"
       style="display:inline;fill:#1a1a1a;fill-opacity:1;stroke:none;opacity:0.55"
       d="m 5.5000002,2.0000002 c -0.831,0 -1.5,0.669 -1.5,1.5 l 0,6.4999996 -0.5,0 c -0.277,0 -0.5,-0.223 -0.5,-0.4999996 l 0,-3.5 -2.0000001,0 0,4.4999998 c 0,0.831 0.6690001,1.5 1.5000001,1.5 l 1.5,0 0,0.5 c 0,0.831 0.669,1.5 1.5,1.5 L 11,14 l 2.5,0 c 0.831,0 1.5,-0.669 1.5,-1.5 l 0,-5.4999998 -4,0 0,1 1.5,0 L 9.0000002,12.5 l -3.5,-4.4999998 1.5,0 0,-4 3.9999998,0 0,2 4,0 0,-2.5 c 0,-0.831 -0.669,-1.5 -1.5,-1.5 l -7.9999998,0 z"
       id="Symbol-3-1" />
  </g>
</svg>
