<?xml version="1.0" encoding="UTF-8" standalone="no"?>
<svg
   xmlns:dc="http://purl.org/dc/elements/1.1/"
   xmlns:cc="http://creativecommons.org/ns#"
   xmlns:rdf="http://www.w3.org/1999/02/22-rdf-syntax-ns#"
   xmlns:svg="http://www.w3.org/2000/svg"
   xmlns="http://www.w3.org/2000/svg"
   xmlns:sodipodi="http://sodipodi.sourceforge.net/DTD/sodipodi-0.dtd"
   xmlns:inkscape="http://www.inkscape.org/namespaces/inkscape"
   id="svg2"
   width="16"
   height="16"
   version="1.0"
   sodipodi:docname="y-ppa-manager.svg"
   inkscape:version="0.92.2 5c3e80d, 2017-08-06">
  <metadata
     id="metadata31">
    <rdf:RDF>
      <cc:Work
         rdf:about="">
        <dc:format>image/svg+xml</dc:format>
        <dc:type
           rdf:resource="http://purl.org/dc/dcmitype/StillImage" />
      </cc:Work>
    </rdf:RDF>
  </metadata>
  <sodipodi:namedview
     pagecolor="#ffffff"
     bordercolor="#666666"
     borderopacity="1"
     objecttolerance="10"
     gridtolerance="10"
     guidetolerance="10"
     inkscape:pageopacity="0"
     inkscape:pageshadow="2"
     inkscape:window-width="640"
     inkscape:window-height="480"
     id="namedview29"
     showgrid="false"
     inkscape:zoom="14.75"
     inkscape:cx="8"
     inkscape:cy="8"
     inkscape:window-x="0"
     inkscape:window-y="25"
     inkscape:window-maximized="0"
     inkscape:current-layer="svg2" />
  <defs
     id="defs4">
    <linearGradient
       id="linearGradient3204"
       x1="1"
       x2="15"
       y1="9"
       y2="9"
       gradientTransform="translate(-17,-2)"
       gradientUnits="userSpaceOnUse">
      <stop
         id="stop3189"
         stop-color="#204a87"
         offset="0" />
      <stop
         id="stop3191"
         stop-color="#729fcf"
         offset="1" />
    </linearGradient>
    <linearGradient
       id="linearGradient3629"
       x2="29.017"
       y1="8"
       y2="8"
       gradientTransform="matrix(0,-1,1,0,0,16)"
       gradientUnits="userSpaceOnUse">
      <stop
         id="stop3330"
         offset="0" />
      <stop
         id="stop3333"
         stop-opacity="0"
         offset="1" />
    </linearGradient>
  </defs>
  <g
     id="layer1">
    <rect
       id="rect3196"
       transform="rotate(-90)"
       x="-16"
       width="16"
       height="16"
       rx="2"
       ry="2"
       fill="url(#linearGradient3204)" />
    <path
       id="rect2835"
       d="m0 14c0 1.108 0.892 2 2 2h12c1.108 0 2-0.892 2-2v-12c0-1.108-0.892-2-2-2h-12c-1.108 0-2 0.892-2 2v12zm0.96875 0v-12c0-0.5832 0.44805-1.0312 1.0312-1.0312h12c0.5832 0 1.0312 0.44805 1.0312 1.0312v12c0 0.5832-0.44805 1.0312-1.0312 1.0312h-12c-0.5832 0-1.0312-0.44805-1.0312-1.0312z"
       fill="url(#linearGradient3629)"
       opacity=".4" />
    <path
       id="path2843"
       d="m2 0.96875c-0.5832 0-1.0312 0.44805-1.0312 1.0312v1c0-0.5832 0.44805-1.0312 1.0312-1.0312h12c0.5832 0 1.0312 0.44805 1.0312 1.0312v-1c0-0.5832-0.44805-1.0312-1.0312-1.0312h-12z"
       fill="#fff"
       opacity=".35" />
  </g>
  <defs
     id="defs21">
    <filter
       id="w">
      <feGaussianBlur
         stdDeviation="0.26998568"
         id="feGaussianBlur13" />
    </filter>
    <linearGradient
       id="a"
       gradientUnits="userSpaceOnUse"
       x1="8"
       y1="1"
       x2="8"
       y2="14.999984">
      <stop
         stop-color="#ffffff"
         offset="0"
         id="stop16" />
      <stop
         stop-color="#ffffff"
         offset="1"
         id="stop18" />
    </linearGradient>
  </defs>
  <g
     id="main"
     transform="translate(1,1) scale(0.85714)">
    <path
       style="opacity:0.3;fill:#000000"
       inkscape:connector-curvature="0"
       id="path23"
       d="m 3.7504,2 c -0.16457,1.75e-5 -0.35694,0.011638 -0.57634,0.025638 -0.2195,0.014 -0.45691,0.034738 -0.70767,0.064138 -0.24287,0.021 -0.49284,0.0476 -0.75145,0.077 -0.25085,0.0294 -0.48769,0.060463 -0.71495,0.089828 l 0.043797,0.58359 c 0.32912,1.75e-5 0.60548,0.016363 0.81708,0.0448 0.21156,0.0294 0.38477,0.069563 0.518,0.12833 0.14093,0.051538 0.24924,0.11247 0.33558,0.18597 0.0863,0.066238 0.16296,0.14373 0.23333,0.22446 0.27426,0.35271 0.58849,0.78752 0.94111,1.3019 0.36048,0.51436 0.73275,1.0713 1.1089,1.6738 0.37615,0.60254 0.74115,1.2206 1.1016,1.8598 0.36046,0.63191 0.68764,1.2454 0.97759,1.8406 v 4.5213 c 0,0.10291 -0.14095,0.22494 -0.42313,0.37196 -0.27431,0.13954 -0.76787,0.28367 -1.481,0.42329 v 0.58358 h 6.0553 v -0.58358 c -0.36831,-0.06597 -0.68307,-0.13814 -0.93382,-0.21164 -0.24287,-0.0735 -0.43476,-0.14443 -0.58364,-0.21793 -0.14095,-0.0735 -0.24367,-0.14 -0.30642,-0.1988 -0.06271,-0.06597 -0.09476,-0.12274 -0.09476,-0.16684 v -4.5277 l 3.8885,-6.6697 c 0.10962,-0.18364 0.30206,-0.32681 0.57634,-0.42968 0.2821,-0.1029 0.69276,-0.2058 1.2256,-0.30142 v -0.58361 h -4.7348 v 0.58361 c 0.60338,0.0735 0.99378,0.16543 1.1819,0.27578 0.19589,0.11014 0.23437,0.2643 0.11679,0.45533 l -3.0203,5.0792 c -0.27428,-0.52904 -0.56875,-1.0705 -0.89006,-1.6289 -0.31344,-0.56579 -0.64062,-1.1127 -0.97758,-1.6418 -0.32913,-0.53639 -0.65576,-1.0423 -0.9849,-1.5199 -0.32912,-0.47759 -0.63656,-0.89691 -0.92652,-1.257 -0.13326,-0.147 -0.29398,-0.25998 -0.4742,-0.33348 -0.17254,-0.080763 -0.35181,-0.12179 -0.53987,-0.12179 z" />
    <path
       d="m3.7504 1c-0.16457 1.75e-5 -0.35694 0.011638-0.57634 0.025638-0.2195 0.014-0.45691 0.034738-0.70767 0.064138-0.24287 0.021-0.49284 0.0476-0.75145 0.077-0.25085 0.0294-0.48769 0.060463-0.71495 0.089828l0.043797 0.58359c0.32912 1.75e-5 0.60548 0.016363 0.81708 0.0448 0.21156 0.0294 0.38477 0.069563 0.518 0.12833 0.14093 0.051538 0.24924 0.11247 0.33558 0.18597 0.0863 0.066238 0.16296 0.14373 0.23333 0.22446 0.27426 0.35271 0.58849 0.78752 0.94111 1.3019 0.36048 0.51436 0.73275 1.0713 1.1089 1.6738 0.37615 0.60254 0.74115 1.2206 1.1016 1.8598 0.36046 0.63191 0.68764 1.2454 0.97759 1.8406v4.5213c0 0.10291-0.14095 0.22494-0.42313 0.37196-0.27431 0.13954-0.76787 0.28367-1.481 0.42329v0.58358h6.0553v-0.58358c-0.36831-0.06597-0.68307-0.13814-0.93382-0.21164-0.24287-0.0735-0.43476-0.14443-0.58364-0.21793-0.14095-0.0735-0.24367-0.14-0.30642-0.1988-0.06271-0.06597-0.09476-0.12274-0.09476-0.16684v-4.5277l3.8885-6.6697c0.10962-0.18364 0.30206-0.32681 0.57634-0.42968 0.2821-0.1029 0.69276-0.2058 1.2256-0.30142v-0.58361h-4.7348v0.58361c0.60338 0.0735 0.99378 0.16543 1.1819 0.27578 0.19589 0.11014 0.23437 0.2643 0.11679 0.45533l-3.0203 5.0792c-0.27428-0.52904-0.56875-1.0705-0.89006-1.6289-0.31344-0.56579-0.64062-1.1127-0.97758-1.6418-0.32913-0.53639-0.65576-1.0423-0.9849-1.5199-0.32912-0.47759-0.63656-0.89691-0.92652-1.257-0.13326-0.147-0.29398-0.25998-0.4742-0.33348-0.17254-0.080763-0.35181-0.12179-0.53987-0.12179z"
       fill="url(#a)"
       id="base" />
  </g>
</svg>
