<svg width="16" height="16" version="1.1" xmlns="http://www.w3.org/2000/svg">
	<path fill="#bebebe" d="M 12.474609 4 C 12.133309 4 11.792332 4.0218531 11.451172 4.0644531 C 11.109872 4.1040531 10.770011 4.1627915 10.431641 4.2421875 L 10.431641 5.4023438 C 10.681741 5.2720437 10.952941 5.174575 11.244141 5.109375 C 11.535441 5.044175 11.851053 5.0117188 12.189453 5.0117188 C 12.607153 5.0117188 12.914528 5.0683426 13.111328 5.1816406 C 13.308328 5.2922406 13.40625 5.4680844 13.40625 5.7089844 L 13.40625 5.828125 L 12.474609 5.828125 C 11.621409 5.828125 10.995803 5.95795 10.595703 6.21875 C 10.198703 6.47945 10 6.8888656 10 7.4472656 C 10 7.9064656 10.158763 8.2812625 10.476562 8.5703125 C 10.797163 8.8566125 11.212759 9 11.724609 9 C 12.104109 9 12.426606 8.9350865 12.691406 8.8046875 C 12.956206 8.6714875 13.19425 8.460975 13.40625 8.171875 L 13.40625 8.8769531 L 15 8.8769531 L 15 6.1601562 C 15 5.3976562 14.801297 4.8470656 14.404297 4.5097656 C 14.010297 4.1695656 13.366009 4 12.474609 4 z M 8.0390625 4.0195312 C 7.7136625 4.0997313 7.4556563 4.4043187 7.5976562 4.6992188 C 7.8255562 5.1682187 8.16975 5.6180375 8.15625 6.1484375 C 8.14495 7.1976375 7.5641938 8.1982594 7.0585938 9.1308594 C 7.0150938 8.3940594 6.9071281 7.6584469 6.7363281 6.9355469 C 6.5062281 6.0879469 6.3228656 5.1825094 5.6972656 4.4746094 C 5.3185656 4.0070094 4.4720563 3.861325 3.9726562 4.265625 C 3.4418562 4.740825 4.3489437 4.9553 4.4648438 5.3125 C 5.0318437 6.2323 5.2752344 7.2679562 5.4902344 8.2851562 C 5.6222344 9.0670562 5.8212219 9.8785094 5.6074219 10.662109 C 5.3971219 11.255109 4.8418 11.879766 4.0625 11.884766 C 3.5903 11.899766 2.4238906 10.960297 1.9628906 11.154297 C 0.68009063 11.154297 0.68009063 12.3435 1.9628906 12.9375 C 2.6585506 13.1625 4.0659469 12.731745 4.6230469 12.359375 C 6.0393469 11.342375 7.1225063 10.000588 7.8789062 8.5546875 C 8.4125062 7.4599875 8.9411469 6.2854906 8.9980469 5.0878906 C 9.0136469 4.6851906 8.921 4.1224375 8.375 4.0234375 C 8.2631 3.9919375 8.1478625 3.9927312 8.0390625 4.0195312 z M 12.585938 6.734375 L 13.40625 6.734375 L 13.40625 6.9082031 C 13.40625 7.2172031 13.304563 7.4747406 13.101562 7.6816406 C 12.898162 7.8857406 12.648663 7.9882813 12.351562 7.9882812 C 12.113262 7.9882812 11.926416 7.9338719 11.791016 7.8261719 C 11.658616 7.7155719 11.59375 7.5637937 11.59375 7.3710938 C 11.59375 7.1612937 11.675144 7.0022312 11.839844 6.8945312 C 12.007544 6.7868312 12.256438 6.734375 12.585938 6.734375 z M 8.1835938 10 C 7.9627937 10.343 7.7194375 10.676 7.4609375 11 L 15 11 L 15 10 L 8.1835938 10 z "/>
</svg>
