<svg width="16" height="16" version="1.1" xmlns="http://www.w3.org/2000/svg">
	<path d="m1.5 1c-0.277 0-0.5 0.223-0.5 0.5v2c0 0.277 0.223 0.5 0.5 0.5h4c0.277 0 0.5-0.223 0.5-0.5v-2c0-0.277-0.223-0.5-0.5-0.5h-4zm6 0c-0.277 0-0.5 0.223-0.5 0.5v2 2 2 3.0859l0.70703 0.70703a1.0001 1.0001 0 0 1 0 1.4141l-0.70703 0.70703v1.0859c0 0.277 0.223 0.5 0.5 0.5h1c0.277 0 0.5-0.223 0.5-0.5v-1.0859l-0.70703-0.70703a1.0001 1.0001 0 0 1 0 -1.4141l0.70703-0.70703v-3.0859-2-2-2c0-0.277-0.223-0.5-0.5-0.5h-1zm3 0c-0.277 0-0.5 0.223-0.5 0.5v2c0 0.277 0.223 0.5 0.5 0.5h4c0.277 0 0.5-0.223 0.5-0.5v-2c0-0.277-0.223-0.5-0.5-0.5h-4zm-7 4c-0.277 0-0.5 0.223-0.5 0.5v2c0 0.277 0.223 0.5 0.5 0.5h2c0.277 0 0.5-0.223 0.5-0.5v-2c0-0.277-0.223-0.5-0.5-0.5h-2zm7 0c-0.277 0-0.5 0.223-0.5 0.5v2c0 0.277 0.223 0.5 0.5 0.5h2c0.277 0 0.5-0.223 0.5-0.5v-2c0-0.277-0.223-0.5-0.5-0.5h-2zm-6.5 4v2h-3v2h3v2l3-3-3-3zm8 0l-3 3 3 3v-2h3v-2h-3v-2z" fill="#bebebe"/>
</svg>
