<svg width="16" height="16" version="1.1" xmlns="http://www.w3.org/2000/svg">
	<path d="m3 1v9h-2l3 3 3-3h-2v-9zm9.5 0c-0.277 0-0.5 0.223-0.5 0.5v10c0 0.277 0.223 0.5 0.5 0.5h2c0.277 0 0.5-0.223 0.5-0.5v-10c0-0.277-0.223-0.5-0.5-0.5zm-4 2c-0.277 0-0.5 0.223-0.5 0.5v8c0 0.277 0.223 0.5 0.5 0.5h2c0.277 0 0.5-0.223 0.5-0.5v-8c0-0.277-0.223-0.5-0.5-0.5zm-7 10c-0.277 0-0.5 0.223-0.5 0.5v1c0 0.277 0.223 0.5 0.5 0.5h13c0.277 0 0.5-0.223 0.5-0.5v-1c0-0.277-0.223-0.5-0.5-0.5h-9.0859l-0.70703 0.70703c-0.19527 0.1952-0.45114 0.29297-0.70703 0.29297s-0.51176-0.097769-0.70703-0.29297l-0.70703-0.70703z" fill="#bebebe"/>
</svg>
