<svg width="16" height="16" version="1.1" xmlns="http://www.w3.org/2000/svg">
	<path d="m1 14.5c0 0.277 0.223 0.5 0.5 0.5h1c0.277 0 0.5-0.223 0.5-0.5v-1.0859l-0.70703-0.70703c-0.1952-0.19527-0.29297-0.45114-0.29297-0.70703s0.097772-0.51176 0.29297-0.70703l0.70703-0.70703v-9.0859c0-0.277-0.223-0.5-0.5-0.5h-1c-0.277 0-0.5 0.223-0.5 0.5zm2-2.5 3 3v-2h9v-2h-9v-2zm1-4.5c0 0.277 0.223 0.5 0.5 0.5h8c0.277 0 0.5-0.223 0.5-0.5v-2c0-0.277-0.223-0.5-0.5-0.5h-8c-0.277 0-0.5 0.223-0.5 0.5zm0-4c0 0.277 0.223 0.5 0.5 0.5h10c0.277 0 0.5-0.223 0.5-0.5v-2c0-0.277-0.223-0.5-0.5-0.5h-10c-0.277 0-0.5 0.223-0.5 0.5z" fill="#bebebe"/>
</svg>
