<svg width="16" height="16" version="1.1" xmlns="http://www.w3.org/2000/svg">
	<path d="m15 1.5c0-0.277-0.223-0.5-0.5-0.5h-2c-0.277 0-0.5 0.223-0.5 0.5v4c0 0.277 0.223 0.5 0.5 0.5h2c0.277 0 0.5-0.223 0.5-0.5zm0 6c0-0.277-0.223-0.5-0.5-0.5h-9.0859l-0.70703 0.70703a1.0001 1.0001 0 0 1 -1.4141 0l-0.70703-0.70703h-1.0859c-0.277 0-0.5 0.223-0.5 0.5v1c0 0.277 0.223 0.5 0.5 0.5h1.0859l0.70703-0.70703a1.0001 1.0001 0 0 1 1.4141 0l0.70703 0.70703h9.0859c0.277 0 0.5-0.223 0.5-0.5zm0 3c0-0.277-0.223-0.5-0.5-0.5h-2c-0.277 0-0.5 0.223-0.5 0.5v4c0 0.277 0.223 0.5 0.5 0.5h2c0.277 0 0.5-0.223 0.5-0.5zm-4-7c0-0.277-0.223-0.5-0.5-0.5h-2c-0.277 0-0.5 0.223-0.5 0.5v2c0 0.277 0.223 0.5 0.5 0.5h2c0.277 0 0.5-0.223 0.5-0.5zm0 7c0-0.277-0.223-0.5-0.5-0.5h-2c-0.277 0-0.5 0.223-0.5 0.5v2c0 0.277 0.223 0.5 0.5 0.5h2c0.277 0 0.5-0.223 0.5-0.5zm-4-6.5h-2v-3h-2v3h-2l3 3zm0 8-3-3-3 3h2v3h2v-3z" fill="#bebebe"/>
</svg>
