<svg width="16" height="16" version="1.1" xmlns="http://www.w3.org/2000/svg">
	<path fill="#bebebe" d="m3.6289 1c1.3463 1.3278 2.281 2.1866 3.125 3h6.2461v6.844c.418.559.581 1.176.795 1.59.154.298.304.501.457.619.153.117.317.199.719.199a1.0001 1.0001 0 0 1 .029 0v-11.252c0-.554-.446-1-1-1h-10.371zm-1.3867.2598c-.2260-.0041-.3283.2272-.1543.6035 1.734 2.7874 2.1858 5.1024 6.1894 9.4177.4047-.846 1.1824-1.4325 2.0897-1.4665-3.3819-4.6569-4.001-4.6844-7.617-8.2735-.193-.1914-.3718-.2788-.5078-.2812zm-1.209.5703c-.0101.0572-.0332.1097-.0332.1699v13h2 6.1465c-.5331-.479-.9044-1.191-1.002-2h-5.1445v-7.377c-.5987-1.1313-1.1108-2.186-1.7617-3.2324a1.0001 1.0001 0 0 1 -.0586 -.1074c-.0649-.1404-.1129-.2933-.1465-.4531zm6.9668.1699h1v1h-1v-1zm2 0h1v1h-1v-1zm2 0h1v1h-1v-1zm-1.199 8.701c-.8883-.021-1.578.707-1.7502 1.334-.2898 1.055.2528 1.918.9742 2.385 1.385.895 4.725.688 4.946-.168-2.333.001-2.096-2.542-3.229-3.25-.328-.205-.645-.294-.941-.301z"/>
</svg>
