<svg width="16" height="16" version="1.1" xmlns="http://www.w3.org/2000/svg">
	<path fill="#bebebe" d="m1.3926.99805a.40004 .40004 0 0 0 -.3203 .63085c.5276.7695 1.4578 1.2155 2.5039 1.5606.7677.2532 1.6026.4427 2.4258.6230v1.1875h1v2.0371c-.4094.0588-.8241.1159-1.25.1856-1.0981.1796-2.2063.4218-3.1016.9414-.8953.5195-1.5686 1.3714-1.6484 2.5959-.03290.503.1528.966.4785 1.299.3256.332.7671.556 1.2812.730.8818.299 2.0227.443 3.2403.563v.648h1v1h1v-1h1v-.361c2.17.216 4.25.528 5.369 1.291a.40061 .40061 0 0 0 .451 -.662c-1.054-.719-2.564-1.056-4.181-1.268h4.359v-1h-5.998v-1h-1v-3.3184c.3268-.0542.6632-.1041.9589-.1757.4572-.1108.8698-.2477 1.2191-.4571.349-.2094.641-.5106.767-.9082.138-.4339 0.1-.8712-.099-1.2187-.199-.3476-.522-.5977-.9007-.8008-.0830-.0445-.1804-.0803-.2696-.1211h5.3223v-1h-5.998v-1h-1v-1h-1v1h-1v.9922c-.7585-.1681-1.511-.3432-2.1758-.5625-.9767-.3222-1.7426-.7417-2.0938-1.2539a.40004 .40004 0 0 0 -.3398 -.17775zm7.6094 3.582c.2124.0779.4064.1593.5683.2461.3009.1612.4927.3334.5837.4922s.117.3118.032 0.58c-.057.1779-.179.3204-.4165.4629-.2376.1426-.5841.2669-.9980.3672-.2262.0548-.5089.0957-.7695.1406v-1.8691h1v-.4199zm4.498.4199l-1.5 2h1v2h-1l1.5 2 1.5-2h-1v-2h1l-1.5-2zm-6.498 2.8477v3.1523h-1v1.545c-1.1646-.119-2.2394-.262-2.9825-.514-.4441-.150-.7743-.336-.9668-.533-.1924-.197-.2716-.385-.2519-.686.0636-.9746.5162-1.5296 1.2519-1.9565.7357-.4270 1.7642-.6694 2.8301-.8438.3738-.0611.7468-.1112 1.1192-.1640z"/>
</svg>
