<svg width="16" height="16" version="1.1" xmlns="http://www.w3.org/2000/svg">
	<path fill="#bebebe" d="m10.475 1c-.342 0-.6826.0219-1.0238.0645-.3413.0396-.6812.0983-1.0196.1777v1.1601c.2501-.1303.5213-.2277.8125-.2929.2913-.0652.6070-.0977.9449-.0977.418 0 .726.0566.922.1699.197.1106.295.2865.295.5274v.1191h-.931c-.8536 0-1.4792.1299-1.8793.3907-.3972.2606-.5957.6701-.5957 1.2285 0 .4592.1588.8339.4766 1.123.3206.2863.7361.4297 1.248.4297.3794 0 .7024-.0649.9664-.1953.265-.1332.503-.3437.715-.6328v.7051h1.594v-2.7168c0-.7625-.199-1.3131-.596-1.6504-.394-.3402-1.038-.5098-1.929-.5098zm.111 2.7344h.820v.1738c0 .3090-.101.5665-.304.7734-.204.2041-.453.3067-.750.3067-.239 0-.4256-.0544-.5610-.1621-.1324-.1106-.1972-.2624-.1972-.4551 0-.2098.0813-.3689.2460-.4766.1682-.1077.4162-.1601.7462-.1601zm-9.586 1.2656v1h2.5195 4.0117c-.2247-.2941-.3865-.6376-.4667-1h-6.0645zm2.5195 1l-1.5 2h1v2h-1l1.5 2 1.5-2h-1v-2h1l-1.5-2zm0 6h-2.5195v1h3.6367c.0895-.111.1875-.212.2988-.289.3089-.214.6666-.256 1.0254-.285.4119-.115.7394-.065.9766.008.2661.081.4920.186.7012.285.2092.098.3980.191.5293.246.0520.022.0852.026.1113.031.2230-.033.3991-.235.4785-.410.0397-.159.0401-.357.0195-.586h-5.2578zm10.48-7v.8770a1.0001 1.0001 0 0 1 -.010 .1230h1.01v-1h-1zm-1.932 2.0176c-.314.0713-.562.3414-.425.6035.220.4169.552.8176.539 1.2891-.011.9326-.573 1.8218-1.061 2.6508-.042-.655-.146-1.309-.310-1.9516-.223-.7534-.399-1.5582-1.0024-2.1875-.3655-.4156-1.184-.5450-1.666-.1856-.5122.4224.3646.6122.4765.9297.5472.8176.7808 1.7384.9883 2.643.1274.695.3196 1.416.1133 2.113-.2030.527-.7381 1.081-1.4902 1.086-.4557.013-1.5825-.821-2.0274-.649-1.2381 0-1.2381 1.058 0 1.586.6714 0.2 2.0308-.184 2.5684-.515 1.3665-.904 2.4125-2.096 3.1425-3.381.515-.973 1.025-2.0176 1.08-3.0822.015-.3579-.074-.8573-.601-.9453-.108-.0280-.220-.0277-.325-.0039zm.420 4.9824c-.217.342-.455.676-.715 1h3.227v-1h-2.512z"/>
</svg>
