<svg width="16" height="16" version="1.1" xmlns="http://www.w3.org/2000/svg">
	<path d="m2.5 1c-0.831 0-1.5 0.669-1.5 1.5v10c0 0.831 0.669 1.5 1.5 1.5h7.4395c-0.1397-0.376-0.2021-0.731-0.2266-0.984-0.0525-0.542 0.012-0.568-0.2754-0.807-0.2875-0.239-0.3536-0.183-0.9141-0.154-0.2358 0.012-0.558 0-0.9062-0.055h-4.1172c-0.277 0-0.5-0.223-0.5-0.5v-8c0-0.277 0.223-0.5 0.5-0.5h6c0.277 0 0.5 0.223 0.5 0.5v0.3555c0.164-0.3847 0.413-0.7835 0.818-1.1211 0.341-0.2836 0.729-0.4745 1.133-0.5938-0.161-0.6551-0.745-1.1406-1.451-1.1406h-8zm10.311 2c-0.481 0.0101-0.96 0.1755-1.352 0.502-1.261 1.0499-0.281 2.141-1.381 3.0566-1.0992 0.9155-2.0732-0.1788-3.3339 0.8711-0.28 0.2332-0.4832 0.5219-0.6054 0.834-0.0008 0.002-0.0012 0.0057-0.002 0.0078-0.0246 0.0634-0.0445 0.1262-0.0625 0.1914-0.008 0.0289-0.0167 0.0587-0.0234 0.0879-0.0008 0.0032-0.0013 0.0065-0.002 0.0097-0.0137 0.0616-0.0233 0.1232-0.0312 0.1856v0.0019c-0.0004 0.0032-0.0017 0.0065-0.002 0.0098-0.0035 0.0291-0.0056 0.0587-0.0078 0.0879-0.0017 0.022-0.0049 0.0425-0.0058 0.0645-0.0005 0.0111-0.0018 0.0239-0.002 0.0351-0.0001 0.0037 0.0001 0.008 0 0.0117-0.0006 0.0293-0.0006 0.0567 0 0.086 0.0003 0.015 0.0013 0.0299 0.002 0.0449 0.001 0.022 0.0042 0.0444 0.0058 0.0664 0.0026 0.0325 0.0056 0.0652 0.0098 0.0977v0.0019c0.0079 0.0624 0.0175 0.124 0.0312 0.1856 0.0007 0.0032 0.0013 0.0065 0.002 0.0097 0.0068 0.0294 0.0153 0.0588 0.0234 0.0879 0.018 0.0652 0.0379 0.128 0.0625 0.1914 0.0008 0.0021 0.0012 0.0038 0.002 0.0059 0.1222 0.3116 0.3254 0.6006 0.6054 0.8336v0.002c1.2607 1.05 2.2347-0.044 3.3339 0.871 1.1 0.916 0.12 2.007 1.381 3.057 0.896 0.746 2.249 0.648 3.021-0.217 0.773-0.865 0.674-2.17-0.222-2.916-1.261-1.05-2.235 0.045-3.334-0.871-0.556-0.462-0.582-0.9699-0.633-1.494 0.051-0.5241 0.077-1.0316 0.633-1.4941 1.099-0.9156 2.073 0.1788 3.334-0.8711 0.896-0.7462 0.995-2.0508 0.222-2.916-0.434-0.4867-1.052-0.7317-1.669-0.7188zm-0.891 5.0957c-0.123 0.0123-0.212 0.058-0.356 0.1777-0.256 0.2135-0.215 0.3394-0.244 0.7266 0.029 0.3871-0.012 0.5131 0.244 0.7266 0.165 0.1369 0.283 0.1698 0.436 0.1738v-1.8008c-0.019 0.0005-0.063-0.0057-0.08-0.0039z" fill="#bebebe"/>
</svg>
