<svg width="16" height="16" version="1.1" xmlns="http://www.w3.org/2000/svg">
	<path d="m6.7656 1a0.75008 0.75008 0 0 0 -0.7129 0.4707l-5 12.5a0.75008 0.75008 0 0 0 0.6973 1.029h12.5a0.75008 0.75008 0 0 0 0.75 -0.75v-1.422a0.75008 0.75008 0 1 0 -1.5 0v0.672h-4.9102a0.75008 0.75008 0 0 0 0.1524 -0.604c-0.1732-1.243-0.6883-2.321-1.3399-3.1323-0.6515-0.811-1.4212-1.3928-2.3046-1.5078a0.75008 0.75008 0 0 0 -0.1387 -0.0059l2.2246-5.5645 0.8301 0.2754a0.75008 0.75008 0 1 0 0.4726 -1.4218l-1.5-0.5a0.75008 0.75008 0 0 0 -0.2207 -0.0391zm-2.3164 8.5215a0.75008 0.75008 0 0 0 0.4531 0.2226c0.269 0.0351 0.8463 0.3569 1.3301 0.9589 0.4839 0.602 0.8926 1.447 1.0254 2.401a0.75008 0.75008 0 0 0 0.1602 0.396h-4.5586l1.5898-3.9785z" fill="#bebebe"/>
</svg>
