<svg width="16" height="16" version="1.1" xmlns="http://www.w3.org/2000/svg" xmlns:osb="http://www.openswatchbook.org/uri/2009/osb">
	<path d="m1.7064 1.0014a0.74805 0.74958 0 0 0 -0.5006 1.2648l1.6868 1.8367 2.6315 9.3512a0.74863 0.75016 0 0 0 1.4414 -0.40598l-1.831-6.5035 7.5401 8.2133a0.74856 0.7501 0 0 0 1.1025 -1.015l-7.5284-8.1997 7.6726 3.3962a0.74805 0.74958 0 1 0 0.60383 -1.3702l-10.721-4.7469a0.74805 0.74958 0 0 0 -0.081809 -0.031229l-1.4141-1.54a0.74805 0.74958 0 0 0 -0.52787 -0.24983 0.74805 0.74958 0 0 0 -0.074018 0z" fill="#bebebe"/>
</svg>
