<svg width="16" height="16" version="1.1" xmlns="http://www.w3.org/2000/svg">
	<path d="m4.9765 1v0.96875h-1.4726c-0.8332-0.0001-1.5039 0.6689-1.5039 1.4999v8.0313c0 0.81043 0.63685 1.468 1.4413 1.5 0.020413 0.000812 0.042039 0 0.062663 0h0.46997 1.0026v0.5c0 0.831 0.67075 1.5 1.5039 1.5h6.0157c0.833 0 1.504-0.669 1.504-1.5v-7c0-0.65788-0.41406-1.203-1.0026-1.4062v-1.625c0-0.831-0.67075-1.5-1.5039-1.5h-1.5039v-0.96875zm1.0235 1h3v1h-3zm1.483 5h4.0104c0.27772 0 0.5013 0.223 0.5013 0.5v5c0 0.277-0.22358 0.5-0.5013 0.5h-4.01c-0.2777 0-0.5013-0.223-0.5013-0.5v-5c0-0.277 0.22358-0.5 0.50131-0.5z" fill="#bebebe"/>
</svg>
