<svg width="16" height="16" version="1.1" xmlns="http://www.w3.org/2000/svg">
	<path fill="#bebebe" d="m8.5859 3c-1.7173-0.0073-3.4406 0.6515-4.7695 1.9629l-1.6328-1.6934-1.1836 6.7305 6.5-1.2246-1.7344-1.7949c1.5859-1.5424 4.0798-1.512 5.627 0.089844 0.44873 0.4646 0.77166 1.0112 0.96484 1.5938l2.643-0.7305c-0.313-1.0625-0.87259-2.0668-1.6836-2.9062-1.301-1.3475-3.013-2.0201-4.7301-2.0274zm0.4141 4c-0.554 0-1 0.4447-1 0.998v3.004c0 0.553 0.446 0.998 1 0.998h2c0.554 0 1-0.44475 1-0.99805 0-0.5534-0.446-1-1-1h-1v-2.0039c0-0.5534-0.446-0.9981-1-0.9981z"/>
</svg>
