<svg width="16" height="16" version="1.1" xmlns="http://www.w3.org/2000/svg">
	<path fill="#bebebe" d="m9.0996 1c-0.4599-0.00362-0.9544 0.0278-1.4375 0.0859-3.8648 0.4652-6.8355 2.8201-6.6543 5.2657 0.0578 0.7791 0.4293 1.4688 1.0313 2.0351 0.1805 0.919 0.989 1.6133 1.9609 1.6133 0.3142 0 0.6085-0.078 0.873-0.207 1.01 1.083 2.1738 3.133-0.873 5.207h2.0312c2.4493-1.705 1.612-3.796 0.7911-5.0059 0.4818 0.0069 0.9776-0.013 1.4863-0.0742 3.8644-0.4651 6.8644-2.822 6.6834-5.2676-0.158-2.1398-2.673-3.6232-5.8924-3.6523zm-0.1758 1.3594c1.2942 0.0102 2.4352 0.2829 3.2832 0.7363s1.403 1.0873 1.467 1.8398c0.146 1.7203-2.258 3.3818-5.3654 3.709-0.8549 0.0901-1.6663 0.0615-2.4082-0.0507 0.059-0.1888 0.0996-0.3856 0.0996-0.5938 0-1.1046-0.8954-2-2-2-0.5763 0-1.0921 0.2467-1.457 0.6367-0.0661-0.1641-0.1119-0.334-0.127-0.5117-0.1457-1.7202 2.2562-3.3818 5.3633-3.709 0.3884-0.0408 0.7748-0.0595 1.1445-0.0566zm-4.9238 4.6406c0.5523 0 1 0.4477 1 1 0 0.1346-0.028 0.2617-0.0762 0.3789-0.7195-0.2112-1.3155-0.5213-1.75-0.9082 0.178-0.2763 0.4731-0.4707 0.8262-0.4707z"/>
</svg>
