<svg width="16" height="16" version="1.1" xmlns="http://www.w3.org/2000/svg">
	<path d="m8.4597 1.4809c-0.2166 0.179-0.4093 0.4084-0.546 0.6759l-4.678 9.1232c-0.54705 1.0695-0.10846 2.3889 0.97136 2.9607l0.94969 0.49718c1.0798 0.57178 2.3825 0.17678 2.9296-0.89274l4.6776-9.1231c0.547-1.0695 0.109-2.3889-0.971-2.9607l-0.95-0.4972c-0.81-0.42882-1.7335-0.32024-2.3833 0.2169zm-1.477 4.4653c0.3311-0.2454 0.8143-0.1824 1.0671 0.139 0.2527 0.3214 0.1879 0.7905-0.1432 1.036-0.3311 0.2453-0.8143 0.1824-1.0671-0.139-0.2527-0.3215-0.1879-0.7906 0.1432-1.036zm-0.9977 1.9793c0.3311-0.2455 0.8143-0.1825 1.0671 0.1389 0.2527 0.3215 0.1879 0.7906-0.1432 1.036s-0.8143 0.1824-1.0671-0.139c-0.2527-0.3214-0.1879-0.7905 0.1432-1.0359zm3.0364-1.0107c0.3311-0.2454 0.8143-0.1825 1.0666 0.139 0.253 0.3214 0.188 0.7905-0.1427 1.0359-0.3311 0.2454-0.8143 0.1825-1.067-0.139-0.2528-0.3214-0.188-0.7905 0.1431-1.0359zm-0.9977 1.9792c0.3311-0.2454 0.8143-0.1824 1.0671 0.139s0.188 0.7905-0.1431 1.036c-0.3312 0.245-0.8144 0.182-1.0671-0.139-0.2528-0.3215-0.188-0.7906 0.1431-1.036z" fill="#bebebe"/>
	<path opacity=".45" d="m3.5811 3.0018c-0.8365-0.035-1.6019 0.4356-1.9604 1.2811l-0.4357 0.9999c-0.47803 1.1274 0.0004 2.4702 1.0891 2.9996l0.8714 0.4062 2.4272-4.9056-1.1514-0.5624c-0.2722-0.1323-0.5613-0.2074-0.8402-0.2188zm9.2423 4.2807-2.4584 4.9056 1.2136 0.59367c1.0888 0.52938 2.3227 0.06502 2.8007-1.0624l0.435-1c0.478-1.1278 0-2.4707-1.089-3z" fill="#bebebe"/>
</svg>
