<svg width="16" height="16" version="1.1" xmlns="http://www.w3.org/2000/svg">
	<path fill="#bebebe" d="m2 1v1h1v-1h-1zm2 0v1h1v-1h-1zm6 0v1h1v-1h-1zm2 0v1h1v-1h-1zm-4.5 1a2.5 2.5 0 0 0 -2.5 2.5 2.5 2.5 0 0 0 2.5 2.5 2.5 2.5 0 0 0 2.5 -2.5 2.5 2.5 0 0 0 -2.5 -2.5zm-5.5 1v1h1v-1h-1zm10 0v1h1v-1h-1zm-10 2v1h1v-1h-1zm10 0v1h1v-1h-1zm-10 2v1h1v-1h-1zm2 0v1h1v-1h-1zm6 0v1h1v-1h-1zm2 0v1h1v-1h-1zm-1.5 2a2.5 2.5 0 0 0 -2.5 2.5 2.5 2.5 0 0 0 2.5 2.5 2.5 2.5 0 0 0 2.5 -2.5 2.5 2.5 0 0 0 -2.5 -2.5zm0 1a1.5 1.5 0 0 1 1.5 1.5 1.5 1.5 0 0 1 -1.5 1.5 1.5 1.5 0 0 1 -1.5 -1.5 1.5 1.5 0 0 1 1.5 -1.5z"/>
	<circle opacity=".45" cy="11.5" cx="4.5" r="2.5" fill="#bebebe"/>
</svg>
