<svg width="16" height="16" version="1.1" xmlns="http://www.w3.org/2000/svg" xmlns:osb="http://www.openswatchbook.org/uri/2009/osb" xmlns:xlink="http://www.w3.org/1999/xlink">
	<path d="m11 1l-4 6v0.58594l2.707 2.707c0.39037 0.39053 0.39037 1.0235 0 1.4141l-2.707 2.707v0.58594h4v-14zm-10 6v1.498 0.3125 0.3125 1.377c0 0.87675 0.669 1.5 1.5 1.5h3.5v1.25 0.75l3-3-3-3-0.017578 2h-2.4824c-0.277 0-0.5-0.223-0.5-0.5v-2.5h-2z" color="#ffffff" color-rendering="auto" fill="#bebebe" image-rendering="auto" shape-rendering="auto" solid-color="#ffffff" style="isolation:auto;mix-blend-mode:normal"/>
	<path d="m1.5 1c-0.277 0-0.5 0.223-0.5 0.5v3c0 0.277 0.223 0.5 0.5 0.5h5.6309l2.668-4h-8.2988zm10.5 0v4h2.5c0.277 0 0.5-0.223 0.5-0.5v-3c0-0.277-0.223-0.5-0.5-0.5h-2.5z" fill="#bebebe" opacity=".45"/>
</svg>
