<svg width="16" height="16" version="1.1" xmlns="http://www.w3.org/2000/svg">
	<path d="m5.5 1c-0.831 0-1.5 0.669-1.5 1.5v6c0 0.831 0.669 1.5 1.5 1.5h1.5v1h-1.5c-0.831 0-1.5 0.669-1.5 1.5v2.5h2v-1.5c0-0.277 0.223-0.5 0.5-0.5h0.5v1.5c0 0.277 0.223 0.5 0.5 0.5h1c0.277 0 0.5-0.223 0.5-0.5v-1.5h0.5c0.277 0 0.5 0.223 0.5 0.5v1.5h2v-2.5c0-0.831-0.669-1.5-1.5-1.5h-1.5v-1h1.5c0.831 0 1.5-0.669 1.5-1.5v-6c0-0.831-0.669-1.5-1.5-1.5h-1.5-2-1.5zm1 2h0.5v1.5c0 0.277 0.223 0.5 0.5 0.5h1c0.277 0 0.5-0.223 0.5-0.5v-1.5h0.5c0.277 0 0.5 0.223 0.5 0.5v4c0 0.277-0.223 0.5-0.5 0.5h-0.5v-1.5c0-0.277-0.223-0.5-0.5-0.5h-1c-0.277 0-0.5 0.223-0.5 0.5v1.5h-0.5c-0.277 0-0.5-0.223-0.5-0.5v-4c0-0.277 0.223-0.5 0.5-0.5z" stroke-dasharray="1, 1" fill="#bebebe"/>
</svg>
