<svg width="16" height="16" version="1.1" xmlns="http://www.w3.org/2000/svg">
	<path d="m2 1c-0.554 0-1 0.446-1 1v9c0 0.554 0.446 1 1 1h12c0.554 0 1-0.446 1-1v-8.9824c-0.543 0.5946-1.067 1.1567-1.506 1.5898-0.33 0.3256-0.629 0.6457-0.933 0.9238-0.97 0.9162-2.508 2.1805-4.3598 3.5782 0.065 0.4982 0.1002 1.0204-0.1739 1.4902-0.3437 0.5894-0.9819 1.0314-1.7519 1.2034-0.6808 0.151-1.46 0.228-2.1836 0.185-0.3618-0.021-0.7057-0.066-1.0606-0.199-0.3548-0.133-0.8339-0.411-0.996-1.0019a1.0001 1.0001 0 0 1 0.9648 -1.2637c0.2516 0.0001 0.3151-0.0418 0.3789-0.0879 0.0639-0.046 0.1453-0.1386 0.2461-0.3203 0.2015-0.3633 0.3282-1.1418 1.2129-1.6621a1.0001 1.0001 0 0 0 0.0019 0c0.4195-0.2466 0.867-0.3045 1.295-0.2851 1.109-1.409 2.3506-2.8889 3.6699-4.1875l0.5433-0.545c0.205-0.206 0.357-0.3232 0.488-0.4355h-8.836zm10.332 0c-0.232 0.2091-0.475 0.4166-0.697 0.627-0.189 0.1785-0.4 0.3348-0.578 0.5136l-0.543 0.5449c-1.4196 1.3963-2.8164 3.0275-3.9788 4.5391-0.3372-0.1464-0.7442-0.1719-1.1895 0.0899-0.8198 0.482-0.6573 2.2095-2.3457 2.2089 0.1599 0.5826 1.8909 0.5626 3.0586 0.3028 1.1021-0.2453 1.4343-1.0976 1.2246-1.8164-0.0297-0.1018-0.1009-0.1991-0.1699-0.3008 2.1522-1.5875 3.7157-2.9183 4.7597-3.9043 0.262-0.2381 0.568-0.5628 0.918-0.9082 0.478-0.4719 1.054-1.0821 1.674-1.7676-0.141-0.0751-0.294-0.1289-0.465-0.1289h-1.668zm-9.8965 12l-0.3203 0.561a1.147 1.0025 0 1 0 2.0664 0.871l0.8184-1.432h-2.5645zm8.5645 0l0.818 1.432a1.147 1.0025 0 1 0 2.067 -0.871l-0.321-0.561h-2.564z" fill="#bebebe"/>
</svg>
