<svg width="16" height="16" version="1.1" xmlns="http://www.w3.org/2000/svg" xmlns:osb="http://www.openswatchbook.org/uri/2009/osb" xmlns:xlink="http://www.w3.org/1999/xlink">
	<path d="m7 1v1.0859a6 6 0 0 0 -4.9102 4.9141h-1.0898v2h1.0859a6 6 0 0 0 4.9141 4.9102v1.0898h2v-1.0859a6 6 0 0 0 1.0762 -0.29297 1.0001 1.0001 0 0 1 0.92383 -0.62109v-1a1.0001 1.0001 0 0 1 -0.91211 -0.5918 4 4 0 0 1 -2.0879 0.5918 4 4 0 0 1 -4 -4 4 4 0 0 1 4 -4 4 4 0 0 1 4 4 4 4 0 0 1 -0.13281 1h2.043 0.089844 1v-2h-1.0859a6 6 0 0 0 -4.9141 -4.9102v-1.0898h-2zm1.0059 4.5a2.5 2.5 0 0 0 -2.5 2.5 2.5 2.5 0 0 0 2.5 2.5 2.5 2.5 0 0 0 2.5 -2.5 2.5 2.5 0 0 0 -2.5 -2.5zm2.9941 4.5v1h1v3h-1v1h1 2 1v-1h-1v-4h-3z" fill="#bebebe"/>
</svg>
