<svg width="16" height="16" version="1.1" xmlns="http://www.w3.org/2000/svg">
	<path d="m7.9766 2l-0.0567 0.0039 0.0469 0.9981 0.0293-0.002 0.6387 0.0312h0.0058l0.2305 0.0333 0.1387-0.9903-0.2754-0.039-0.0235-0.002-0.0234-0.002-0.6641-0.0312h-0.0234-0.0234zm-1.0977 0.0898l-0.2578 0.0372-0.0234 0.0039-0.0235 0.0039-0.623 0.1484-0.0215 0.0059-0.0235 0.0078-0.0937 0.0312 0.3203 0.9473 0.084-0.0274 0.0098-0.0039 0.5332-0.1269 0.0097-0.002 0.2481-0.0351-0.1387-0.9903zm3.1561 0.1895l-0.1502 0.6328-0.1114 0.332 0.0313 0.0098 0.5503 0.1875 0.297 0.1309 0.407-0.9121-0.327-0.1465-0.019-0.0078-0.024-0.0079-0.595-0.2011-0.024-0.0078-0.021-0.0059-0.014-0.0039zm-5.1971 0.4258l-0.1387 0.0625-0.0215 0.0097-0.0215 0.0098-0.5351 0.3008-0.0195 0.0117-0.0196 0.0137-0.1914 0.1328 0.5684 0.8223 0.1738-0.1211 0.4727-0.2657 0.0136-0.0058 0.125-0.0567-0.4062-0.914zm7.1801 0.4765l-0.569 0.8223 0.363 0.25 0.012 0.0098 0.381 0.3183 0.643-0.7656-0.393-0.3301-0.017-0.0136-0.02-0.0137-0.4-0.2774zm-8.9868 0.7403l-0.4023 0.4101-0.0176 0.0176-0.0156 0.0195-0.2676 0.3282 0.7774 0.6308 0.2519-0.3105 0.3867-0.3946-0.7129-0.7011zm10.569 0.6894l-0.778 0.6289 0.168 0.2051 0.293 0.4473 0.047 0.0898 0.887-0.4629-0.059-0.1113-0.012-0.0215-0.013-0.0215-0.326-0.4941-0.012-0.0215-0.016-0.0195-0.179-0.2188zm-5.6 0.3887a4 3.5 0 0 0 -4 3.5 4 3.5 0 0 0 4 3.5 4 3.5 0 0 0 4 -3.5 4 3.5 0 0 0 -4 -3.5zm-6.2695 0.6191l-0.1621 0.3145-0.0137 0.0234-0.0078 0.0235-0.2188 0.5507-0.0097 0.0254-0.0079 0.0254-0.0136 0.0508 0.957 0.2656 0.0039 0.002h0.002l0.0039-0.0156 0.209-0.5274 0.0039-0.0078 0.1406-0.2676-0.8867-0.4629zm12.92 0.8555l-0.929 0.3692 0.015 0.041 0.143 0.5136 0.051 0.3125 0.988-0.164-0.057-0.3379-0.004-0.0274-0.007-0.0254-0.161-0.5742-0.007-0.0254-0.01-0.0254-0.022-0.0566zm-13.586 1.1836l-0.0235 0.1465-0.0058 0.0273v0.0274l-0.0352 0.6133v0.0273 0.0273l0.0137 0.2364 0.998-0.0528-0.0097-0.2089 0.0292-0.5606 0.0196-0.1191-0.9863-0.1641zm12.936 0.8145l-0.021 0.4003 0.998 0.0528 0.023-0.3985-1-0.0546zm-11.881 1.1211l-0.9629 0.2675 0.1543 0.5567 0.0079 0.025 0.0097 0.026 0.1543 0.392 0.9297-0.369-0.1484-0.379-0.1446-0.5192zm11.719 0.1562l-0.102 0.363-0.209 0.532 0.93 0.367 0.215-0.543 0.01-0.026 0.007-0.025 0.112-0.4-0.963-0.268zm-11.006 1.533l-0.834 0.551 0.1954 0.295 0.0117 0.021 0.0156 0.02 0.375 0.461 0.0156 0.019 0.0176 0.018 0.0352 0.035 0.7129-0.701-0.0215-0.022-0.3457-0.425-0.1778-0.272zm10.246 0.137l-0.088 0.135-0.347 0.427-0.133 0.135 0.713 0.703 0.148-0.152 0.018-0.018 0.015-0.019 0.375-0.461 0.016-0.02 0.012-0.021 0.107-0.16-0.836-0.549zm-9.0057 1.23l-0.6426 0.768 0.1152 0.096 0.0176 0.013 0.0195 0.014 0.5 0.346 0.0196 0.013 0.0195 0.012 0.2109 0.117 0.4903-0.871-0.1895-0.107-0.457-0.315-0.1035-0.086zm7.7677 0.077l-0.473 0.326-0.33 0.185 0.488 0.871 0.354-0.197 0.019-0.012 0.02-0.013 0.49-0.338-0.568-0.822zm-6.2033 0.83l-0.3203 0.947 0.5898 0.199 0.0235 0.008 0.0215 0.006 0.3672 0.086 0.2304-0.973-0.3222-0.074-0.0118-0.004-0.5781-0.195zm4.5743 0.052l-0.4258 0.143-0.0118 0.004-0.4804 0.111 0.2324 0.975 0.5236-0.125 0.021-0.006 0.024-0.008 0.435-0.146-0.318-0.948zm-2.7676 0.364l-0.0469 1 0.5801 0.027h0.0234 0.0234l0.418-0.02-0.0469-1-0.3945 0.018-0.5566-0.025z" fill="#bebebe"/>
</svg>
