<svg width="16" height="16" version="1.1" xmlns="http://www.w3.org/2000/svg">
	<path fill="#bebebe" d="m2.5 1c-0.831 0-1.5 0.669-1.5 1.5v11c0 0.831 0.669 1.5 1.5 1.5h11c0.831 0 1.5-0.669 1.5-1.5v-11c0-0.831-0.669-1.5-1.5-1.5h-11zm1 2h9c0.277 0 0.5 0.223 0.5 0.5v2.541c-0.63 1.5396-1.213 2.5329-1.688 2.9883-0.373 0.3588-0.646 0.4253-0.906 0.4062-0.26-0.019-0.5631-0.1817-0.906-0.4687-0.6857-0.5739-1.4004-1.6184-2.1562-2.5-0.378-0.4408-0.7768-0.8453-1.2188-1.125s-0.992-0.4298-1.5312-0.25c-0.6881 0.2293-1.1926 0.7544-1.5938 1.3926v-2.9844c0-0.277 0.223-0.5 0.5-0.5zm1.7207 3.0117c0.1094 0.025 0.2287 0.0825 0.3731 0.1738 0.2887 0.1828 0.6182 0.5287 0.9687 0.9375 0.701 0.8177 1.4485 1.9019 2.3125 2.625 0.432 0.362 0.9054 0.646 1.469 0.688 0.563 0.041 1.141-0.193 1.656-0.688 0.339-0.3248 0.669-0.8133 1-1.3886v4.1406c0 0.277-0.223 0.5-0.5 0.5h-9c-0.277 0-0.5-0.223-0.5-0.5v-3.5332c0.1692-0.5632 0.36-1.1077 0.5938-1.5625 0.3752-0.7302 0.8272-1.2133 1.3124-1.375 0.1054-0.0351 0.2051-0.0426 0.3145-0.0176z"/>
</svg>
