<?xml version="1.0" encoding="UTF-8"?>
<svg width="16" height="16" version="1.1" xmlns="http://www.w3.org/2000/svg" xmlns:cc="http://creativecommons.org/ns#" xmlns:dc="http://purl.org/dc/elements/1.1/" xmlns:rdf="http://www.w3.org/1999/02/22-rdf-syntax-ns#">
 <metadata>
  <rdf:RDF>
   <cc:Work rdf:about="">
    <dc:format>image/svg+xml</dc:format>
    <dc:type rdf:resource="http://purl.org/dc/dcmitype/StillImage"/>
    <dc:title/>
   </cc:Work>
  </rdf:RDF>
 </metadata>
 <path d="m2.5 1c-0.277 0-0.5 0.223-0.5 0.5v13c0 0.277 0.223 0.5 0.5 0.5h7.5l3-3v-10.5c0-0.277-0.223-0.5-0.5-0.5zm0.75 1h8.5c0.1385 0 0.25 0.1115 0.25 0.25v8.75h-2.5c-0.277 0-0.5 0.223-0.5 0.5v2.5h-5.75c-0.1385 0-0.25-0.1115-0.25-0.25v-11.5c0-0.1385 0.1115-0.25 0.25-0.25zm0.75 1v2c0 0.554 0.446 1 1 1h0.26953c0.5678-0.63486 1.3787-0.99842 2.2305-1 0.8524 0.00104 1.6642 0.36465 2.2324 1h0.26758c0.554 0 1-0.446 1-1v-2zm3.5 3c-1.1046 0-2 0.8954-2 2 0 1.1046 0.8954 2 2 2 1.1046 0 2-0.8954 2-2 0-1.1046-0.8954-2-2-2z" fill="#bebebe"/>
</svg>
