<?xml version="1.0" encoding="UTF-8"?>
<svg width="16" height="16" version="1.1" xmlns="http://www.w3.org/2000/svg" xmlns:cc="http://creativecommons.org/ns#" xmlns:dc="http://purl.org/dc/elements/1.1/" xmlns:rdf="http://www.w3.org/1999/02/22-rdf-syntax-ns#">
 <metadata>
  <rdf:RDF>
   <cc:Work rdf:about="">
    <dc:format>image/svg+xml</dc:format>
    <dc:type rdf:resource="http://purl.org/dc/dcmitype/StillImage"/>
    <dc:title/>
   </cc:Work>
  </rdf:RDF>
 </metadata>
 <path d="m1.5 3c-0.277 0-0.5 0.223-0.5 0.5v10c0 0.277 0.223 0.5 0.5 0.5h13c0.277 0 0.5-0.223 0.5-0.5v-7.5l-3-3zm0.75 1h8.75v2.5c0 0.277 0.223 0.5 0.5 0.5h2.5v5.75c0 0.1385-0.1115 0.25-0.25 0.25h-11.5c-0.1385 0-0.25-0.1115-0.25-0.25v-8.5c0-0.1385 0.1115-0.25 0.25-0.25zm0.75 1 2 2 2-1 3 5 3-3h-3v-3zm1.5 4a1.5 1.5 0 0 0-1.5 1.5 1.5 1.5 0 0 0 1.5 1.5 1.5 1.5 0 0 0 1.5-1.5 1.5 1.5 0 0 0-1.5-1.5z" fill="#bebebe"/>
</svg>
