<svg width="16" height="16" version="1.1" xmlns="http://www.w3.org/2000/svg">
	<path opacity=".45" d="m8 0c-4.4183 0-8 3.5817-8 8 0 2.716 1.3569 5.111 3.4258 6.557l0.332-0.998c-1.6734-1.28-2.7578-3.29-2.7578-5.559 0-3.866 3.134-7 7-7s7 3.134 7 7c0 2.269-1.084 4.279-2.758 5.559l0.332 0.998c2.069-1.446 3.426-3.841 3.426-6.557 0-4.4183-3.582-8-8-8zm0 2c-3.3137 0-6 2.6863-6 6 0 1.8203 0.8139 3.448 2.0938 4.549l0.3457-1.045c-0.8882-0.903-1.4395-2.1378-1.4395-3.504 0-2.7614 2.2386-5 5-5 2.761 0 5 2.2386 5 5 0 1.3662-0.551 2.601-1.439 3.504l0.345 1.045c1.28-1.101 2.094-2.7287 2.094-4.549 0-3.3137-2.686-6-6-6zm0 2c-2.2091 0-4 1.7909-4 4 0 0.8998 0.3091 1.7204 0.8105 2.389l0.4161-1.2523c-0.144-0.3508-0.2266-0.734-0.2266-1.1367 0-0.7071 0.2548-1.3485 0.6641-1.8613 0.3558-0.9498 1.2701-1.6387 2.3359-1.6387s1.9801 0.6889 2.336 1.6387c0.409 0.5128 0.664 1.1542 0.664 1.8613 0 0.4027-0.083 0.7859-0.227 1.1367l0.416 1.2523c0.502-0.6686 0.811-1.4892 0.811-2.389 0-2.2091-1.791-4-4-4zm-1.6191 11l-0.2539 0.771c0.6019 0.145 1.2266 0.229 1.873 0.229s1.2711-0.084 1.873-0.229l-0.2539-0.771h-1.6191-1.6191z" fill="#bebebe"/>
	<path fill="#bebebe" d="m8 5.5c-0.8284 0-1.5 0.6716-1.5 1.5 0 0.2951 0.0716 0.5805 0.2188 0.8125l-2.7188 8.1875h1l0.6562-2h4.6878l0.656 2h1l-2.7188-8.1875c0.1472-0.232 0.2188-0.5174 0.2188-0.8125 0-0.8284-0.6716-1.5-1.5-1.5zm-1 4.5h2l0.3438 1h-2.6876l0.3438-1zm-0.6562 2h3.3124l0.3438 1h-4l0.3438-1z"/>
</svg>
