<svg width="16" height="16" version="1.1" xmlns="http://www.w3.org/2000/svg">
	<path fill="#bebebe" d="m12 15 3-3h-5.5859l-0.7071 0.707a1.0001 1.0001 0 0 1 -0.0664 0.0586 1.0001 1.0001 0 0 1 -0.0254 0.0215 1.0001 1.0001 0 0 1 -0.0488 0.0371 1.0001 1.0001 0 0 1 -0.0742 0.0449 1.0001 1.0001 0 0 1 -0.0664 0.0332 1.0001 1.0001 0 0 1 -0.0488 0.0215 1.0001 1.0001 0 0 1 -0.0059 0.0039 1.0001 1.0001 0 0 1 -0.0899 0.0313 1.0001 1.0001 0 0 1 -0.0019 0 1.0001 1.0001 0 0 1 -0.0898 0.0215 1.0001 1.0001 0 0 1 -0.0157 0.0039 1.0001 1.0001 0 0 1 -0.0859 0.0117 1.0001 1.0001 0 0 1 -0.002 0 1.0001 1.0001 0 0 1 -0.0703 0.004 1.0001 1.0001 0 0 1 -0.1015 -0.004 1.0001 1.0001 0 0 1 -0.0977 -0.014 1.0001 1.0001 0 0 1 -0.0976 -0.023 1.0001 1.0001 0 0 1 -0.1563 -0.061 1.0001 1.0001 0 0 1 -0.0273 -0.013 1.0001 1.0001 0 0 1 -0.002 0 1.0001 1.0001 0 0 1 -0.084 -0.0508 1.0001 1.0001 0 0 1 -0.0019 0 1.0001 1.0001 0 0 1 -0.0332 -0.025 1.0001 1.0001 0 0 1 -0.1211 -0.102l-0.7071-0.707h-2.5859l-3 3h11zm-4-3 3-2.9961h-2v-6.0039h-2v6.0039h-2l3 2.9961zm4-4 1-1 2-2h-5v1 2h2zm-6 0v-2-1h-2l-3 3h5zm6-4 3-3h-11l-3 3h5v-1a1.0001 1.0001 0 0 1 1 -1h2a1.0001 1.0001 0 0 1 1 1v1h2z"/>
</svg>
