<svg width="16" height="16" version="1.1" xmlns="http://www.w3.org/2000/svg">
	<path fill="#bebebe" d="m2 3c-.554 0-1 .446-1 1v4.7441c.696-.6777 1.5498-1.2621 2.5508-1.6699a1.0001 1.0001 0 0 1 .3906 -.0742 1.0001 1.0001 0 0 1 .9863 1c0 .5474.0814.9664.1914 1.3438l.0371.0312-.0214.0176c.1940.6304.4967 1.1054.8437 1.5954.2791.396.5973.801.8184 1.356.0792.199.1273.423.1582.656h7.0449c.554 0 1-.446 1-1v-8c0-.554-.446-1-1-1h-12zm0 1l6 5 6-5v1l-6 5-6-5v-1zm1.9277 4c-2.454 1-3.9277 3.344-3.9277 5 0 1.535 1.1372 2.784 2.5977 2.961-.6590-.149-1.1524-.745-1.1524-1.461 0-.828.7357-2 1.9629-2.5 0 1.75 1.3183 2.003.9824 3-.1904.565-.6557.993-1.4609.998.0048 0 .0105.002.0156.002 1.6266 0 2.5624-.863 2.9453-2 .6717-1.994-1.9629-2.5-1.9629-6zm7.5103.875l2.562 2.125v1l-3.156-2.625.594-0.5z"/>
	<path d="m3.928 8c0 3.5 2.6346 4.0059 1.9629 6-.3829 1.1368-1.3187 2-2.9453 2-.00516 0-.010825-.0019-.015624-.002.80517-.0046 1.2705-.43266 1.4609-.998.33586-.997-.98242-1.25-.98242-3-1.2272.5-1.9629 1.6716-1.9629 2.5 0 .7161.49331 1.3122 1.1523 1.4609-1.4605-.177-2.5976-1.426-2.5976-2.961 0-1.656 1.4737-4 3.9277-5z" class="warning" fill="#ff9000"/>
</svg>
