<svg width="16" height="16" version="1.1" xmlns="http://www.w3.org/2000/svg">
  <path d="m8 1c-3.8662 0-7 3.1338-7 7 0 1.1609 0.287 2.253 0.7871 3.217 0.3776-0.138 0.7843-0.217 1.2129-0.217v-5a1.0001 1.0001 0 0 1 1 -1h1a1.0001 1.0001 0 0 1 1 1v1.8262c0.0896-1.0317 0.9451-1.8438 2-1.8438 1.1145 0 2.018 0.9031 2.018 2.0176s-0.9035 2.018-2.018 2.018c-1.0549 0-1.9104-0.8125-2-1.8442v5.3262c0 0.403-0.1203 0.776-0.3105 1.102 0.7242 0.253 1.4997 0.398 2.3105 0.398 3.866 0 7-3.134 7-7 0-3.8662-3.134-7-7-7zm-4 5v6.219c-0.295-0.129-0.6342-0.219-1-0.219-1.1046 0-2 0.672-2 1.5s0.8954 1.5 2 1.5 2-0.672 2-1.5v-7.5h-1z" fill="#bebebe"/>
</svg>
