<svg width="16" height="16" version="1.1" xmlns="http://www.w3.org/2000/svg">
	<path d="m2 1c-0.554 0-1 0.446-1 1v12c0 0.554 0.446 1 1 1h12c0.554 0 1-0.446 1-1v-12c0-0.554-0.446-1-1-1h-12zm0.5 1h11c0.277 0 0.5 0.223 0.5 0.5v11c0 0.277-0.223 0.5-0.5 0.5h-11c-0.277 0-0.5-0.223-0.5-0.5v-11c0-0.277 0.223-0.5 0.5-0.5zm3.3965 1.0098c-0.58033 0.046651-1.2401 0.27582-2.0098 0.76562l-0.30078 0.19141 0.18945 0.30078c0.59522 0.93539 0.71638 1.5753 0.65039 2.0938-0.065986 0.51848-0.33832 0.95685-0.65039 1.4473-0.31207 0.49041-0.66386 1.0327-0.75391 1.7402-0.090048 0.70755 0.10087 1.5382 0.75391 2.5645l0.19141 0.30078 0.30078-0.18945c0.93535-0.59525 1.5753-0.71638 2.0938-0.65039 0.51846 0.06598 0.95688 0.33831 1.4473 0.65039 0.49039 0.31208 1.0327 0.66385 1.7402 0.75391 0.70752 0.09005 1.5382-0.10084 2.5645-0.75391l0.30078-0.19141-0.18945-0.30078c-0.59522-0.93539-0.71638-1.5753-0.65039-2.0938 0.065986-0.51848 0.33832-0.95685 0.65039-1.4473 0.31207-0.49041 0.66386-1.0327 0.75391-1.7402 0.090023-0.70755-0.10087-1.5402-0.75391-2.5664l-0.19141-0.30078-0.30078 0.19141c-0.93535 0.59525-1.5753 0.71443-2.0938 0.64844-0.51846-0.065988-0.95688-0.33636-1.4473-0.64844-0.49039-0.31208-1.0327-0.66581-1.7402-0.75586-0.17688-0.022513-0.36125-0.025316-0.55469-0.0097656z"  fill="#bebebe" fill-rule="evenodd"/>
</svg>
