<?xml version="1.0" encoding="UTF-8"?>
<svg width="16" height="16" version="1.1" xmlns="http://www.w3.org/2000/svg" xmlns:cc="http://creativecommons.org/ns#" xmlns:dc="http://purl.org/dc/elements/1.1/" xmlns:rdf="http://www.w3.org/1999/02/22-rdf-syntax-ns#">
 <metadata>
  <rdf:RDF>
   <cc:Work rdf:about="">
    <dc:format>image/svg+xml</dc:format>
    <dc:type rdf:resource="http://purl.org/dc/dcmitype/StillImage"/>
    <dc:title/>
   </cc:Work>
  </rdf:RDF>
 </metadata>
 <path d="m15 1.2773c-0.8928 0.21288-1.783 0.55525-2.6035 1.0723-0.9882 0.622-1.8489 1.5044-2.4629 2.6504h1.1914c0.4975-0.743 1.1241-1.3294 1.834-1.7754 0.6336-0.39938 1.3318-0.69138 2.041-0.88672zm-12 3.7227v2h-2v2h2v2h2v-2h2v-2h-2v-2zm5 1v4h4v-4zm1.959 5c0.606 1.2191 1.4866 2.1309 2.5117 2.7598 0.793 0.4865 1.6585 0.80628 2.5293 1.002v-1.0586c-0.6971-0.17274-1.3797-0.43909-1.998-0.81836-0.7516-0.461-1.4096-1.0712-1.9082-1.8848z" fill="#bebebe"/>
</svg>
