<svg width="16" height="16" version="1.1" xmlns="http://www.w3.org/2000/svg">
	<path fill="#bebebe" d="m6 1a5 5 0 0 0 -0.4414 0.0215 5 5 0 0 0 -0.209 0.0254 5 5 0 0 0 -0.2754 0.0429 5 5 0 0 0 -0.2363 0.0528 5 5 0 0 0 -0.2422 0.0605 5 5 0 0 0 -0.25 0.084 5 5 0 0 0 -0.2207 0.0801 5 5 0 0 0 -0.2617 0.1191 5 5 0 0 0 -0.1778 0.086 5 5 0 0 0 -0.2539 0.1445 5 5 0 0 0 -0.1875 0.1152 5 5 0 0 0 -0.2207 0.1582 5 5 0 0 0 -0.1796 0.1368 5 5 0 0 0 -0.1993 0.1738 5 5 0 0 0 -0.1777 0.166 5 5 0 0 0 -0.166 0.1777 5 5 0 0 0 -0.1738 0.1993 5 5 0 0 0 -0.1368 0.1796 5 5 0 0 0 -0.1582 0.2207 5 5 0 0 0 -0.1152 0.1875 5 5 0 0 0 -0.1445 0.2539 5 5 0 0 0 -0.086 0.1778 5 5 0 0 0 -0.1191 0.2617 5 5 0 0 0 -0.0801 0.2207 5 5 0 0 0 -0.084 0.25 5 5 0 0 0 -0.0605 0.2422 5 5 0 0 0 -0.0528 0.2363 5 5 0 0 0 -0.0429 0.2754 5 5 0 0 0 -0.0254 0.209 5 5 0 0 0 -0.0215 0.4414 5 5 0 0 0 0.0215 0.4414 5 5 0 0 0 0.0254 0.209 5 5 0 0 0 0.0429 0.2754 5 5 0 0 0 0.0469 0.2109 5 5 0 0 0 0.0762 0.2969 5 5 0 0 0 0.0488 0.1445 5 5 0 0 0 0.1172 0.3223 5 5 0 0 0 0.0801 0.1758 5 5 0 0 0 0.125 0.2597 5 5 0 0 0 0.1074 0.1875 5 5 0 0 0 0.1543 0.252 5 5 0 0 0 0.1113 0.1562 5 5 0 0 0 0.1856 0.2422 5 5 0 0 0 0.1191 0.1367 5 5 0 0 0 0.2324 0.2481 5 5 0 0 0 0.0938 0.0879 5 5 0 0 0 0.2715 0.2383 5 5 0 0 0 0.1172 0.0898 5 5 0 0 0 0.3125 0.2204 5 5 0 0 0 0.0449 0.028 5 5 0 0 0 0.3984 0.228 5 5 0 0 0 0.0156 0.008 5 5 0 0 0 0.42 0.189 5 5 0 0 0 0.0742 0.026 5 5 0 0 0 0.418 0.138 5 5 0 0 0 0.0332 0.008 5 5 0 0 0 0.3066 0.075v0.003a5 5 0 0 0 1 0.102 5 5 0 0 0 0.4414 -0.021 5 5 0 0 0 0.209 -0.026 5 5 0 0 0 0.2754 -0.043 5 5 0 0 0 0.2363 -0.053 5 5 0 0 0 0.2422 -0.06 5 5 0 0 0 0.25 -0.084 5 5 0 0 0 0.2207 -0.08 5 5 0 0 0 0.2617 -0.119 5 5 0 0 0 0.1778 -0.086 5 5 0 0 0 0.2539 -0.145 5 5 0 0 0 0.1875 -0.115 5 5 0 0 0 0.2207 -0.158 5 5 0 0 0 0.1796 -0.137 5 5 0 0 0 0.1993 -0.1738 5 5 0 0 0 0.1777 -0.166 5 5 0 0 0 0.166 -0.1777 5 5 0 0 0 0.1738 -0.1993 5 5 0 0 0 0.137 -0.1796 5 5 0 0 0 0.158 -0.2207 5 5 0 0 0 0.115 -0.1875 5 5 0 0 0 0.145 -0.2539 5 5 0 0 0 0.086 -0.1778 5 5 0 0 0 0.119 -0.2617 5 5 0 0 0 0.08 -0.2207 5 5 0 0 0 0.084 -0.25 5 5 0 0 0 0.06 -0.2422 5 5 0 0 0 0.053 -0.2363 5 5 0 0 0 0.043 -0.2754 5 5 0 0 0 0.026 -0.209 5 5 0 0 0 0.021 -0.4414 5 5 0 0 0 -0.135 -1.1289 5 5 0 0 0 -0.078 -0.3027 5 5 0 0 0 -0.057 -0.17 5 5 0 0 0 -0.107 -0.2949 5 5 0 0 0 -0.086 -0.1875 5 5 0 0 0 -0.127 -0.2617 5 5 0 0 0 -0.098 -0.1699 5 5 0 0 0 -0.162 -0.2637 5 5 0 0 0 -0.117 -0.1641 5 5 0 0 0 -0.1717 -0.2265 5 5 0 0 0 -0.1562 -0.1778 5 5 0 0 0 -0.1739 -0.1894 5 5 0 0 0 -0.1777 -0.1621 5 5 0 0 0 -0.2051 -0.1797 5 5 0 0 0 -0.166 -0.127 5 5 0 0 0 -0.2285 -0.164 5 5 0 0 0 -0.1973 -0.1211 5 5 0 0 0 -0.2363 -0.1348 5 5 0 0 0 -0.1973 -0.0937 5 5 0 0 0 -0.2617 -0.1172 5 5 0 0 0 -0.1875 -0.0684 5 5 0 0 0 -0.2773 -0.0937 5 5 0 0 0 -0.2207 -0.0547 5 5 0 0 0 -0.2696 -0.0606 5 5 0 0 0 -0.2226 -0.0332 5 5 0 0 0 -0.2559 -0.0312 5 5 0 0 0 -0.4277 -0.0215zm0 1a4 4 0 0 1 0.3379 0.0176 4 4 0 0 1 0.2109 0.0254 4 4 0 0 1 0.1856 0.0273 4 4 0 0 1 0.1972 0.0449 4 4 0 0 1 0.2012 0.0528 4 4 0 0 1 0.1504 0.0488 4 4 0 0 1 0.2344 0.0859 4 4 0 0 1 0.1289 0.0567 4 4 0 0 1 0.2402 0.1172 4 4 0 0 1 0.0957 0.0546 4 4 0 0 1 0.2539 0.1563 4 4 0 0 1 0.0723 0.0527 4 4 0 0 1 0.2461 0.1856 4 4 0 0 1 0.0664 0.0605 4 4 0 0 1 0.2305 0.2149 4 4 0 0 1 0.0644 0.0703 4 4 0 0 1 0.1856 0.209 4 4 0 0 1 0.0879 0.1152 4 4 0 0 1 0.164 0.2324 4 4 0 0 1 0.0098 0.0137 4 4 0 0 1 0.0176 0.0293 4 4 0 0 1 0.1757 0.3105 4 4 0 0 1 0.0059 0.0079 4 4 0 0 1 0.0098 0.0234 4 4 0 0 1 0.1465 0.3262 4 4 0 0 1 0.0078 0.0156 4 4 0 0 1 0.0117 0.0332 4 4 0 0 1 0.1133 0.3437 4 4 0 0 1 0 0.002 4 4 0 0 1 0.0175 0.0664 4 4 0 0 1 0.1309 1 4 4 0 0 1 -0.0176 0.3379 4 4 0 0 1 -0.0254 0.2109 4 4 0 0 1 -0.0273 0.1856 4 4 0 0 1 -0.0508 0.2226 4 4 0 0 1 -0.0391 0.1543 4 4 0 0 1 -0.0703 0.2149 4 4 0 0 1 -0.0664 0.1797 4 4 0 0 1 -0.0781 0.1738 4 4 0 0 1 -0.0898 0.1855 4 4 0 0 1 -0.0938 0.1641 4 4 0 0 1 -0.1152 0.1875 4 4 0 0 1 -0.0977 0.1348 4 4 0 0 1 -0.1406 0.1855 4 4 0 0 1 -0.1133 0.1289 4 4 0 0 1 -0.1484 0.1602 4 4 0 0 1 -0.1602 0.1484 4 4 0 0 1 -0.1289 0.1133 4 4 0 0 1 -0.1855 0.1406 4 4 0 0 1 -0.1348 0.0977 4 4 0 0 1 -0.1875 0.1152 4 4 0 0 1 -0.1641 0.0938 4 4 0 0 1 -0.1855 0.0898 4 4 0 0 1 -0.1738 0.0781 4 4 0 0 1 -0.1797 0.0664 4 4 0 0 1 -0.2149 0.0703 4 4 0 0 1 -0.1543 0.0391 4 4 0 0 1 -0.2226 0.0508 4 4 0 0 1 -0.1856 0.0273 4 4 0 0 1 -0.2109 0.0254 4 4 0 0 1 -0.3379 0.0176 4 4 0 0 1 -2.4297 -0.8281 4 4 0 0 1 -0.3047 -0.2578 4 4 0 0 1 -0.2734 -0.2832 4 4 0 0 1 -0.0059 -0.0059 4 4 0 0 1 -0.2304 -0.291 4 4 0 0 1 -0.0196 -0.0254 4 4 0 0 1 -0.2109 -0.334 4 4 0 0 1 -0.1445 -0.2851 4 4 0 0 1 -0.045 -0.0899 4 4 0 0 1 -0.1269 -0.334 4 4 0 0 1 -0.0078 -0.0215 4 4 0 0 1 -0.0957 -0.3535 4 4 0 0 1 -0.0117 -0.039 4 4 0 0 1 -0.0469 -0.2735 4 4 0 0 1 -0.0215 -0.1406 4 4 0 0 1 -0.0137 -0.2051 4 4 0 0 1 -0.0117 -0.2324 4 4 0 0 1 0.0176 -0.3379 4 4 0 0 1 0.0254 -0.2109 4 4 0 0 1 0.0273 -0.1856 4 4 0 0 1 0.0508 -0.2226 4 4 0 0 1 0.0391 -0.1543 4 4 0 0 1 0.0703 -0.2149 4 4 0 0 1 0.0664 -0.1797 4 4 0 0 1 0.0781 -0.1738 4 4 0 0 1 0.0898 -0.1855 4 4 0 0 1 0.0938 -0.1641 4 4 0 0 1 0.1152 -0.1875 4 4 0 0 1 0.0977 -0.1348 4 4 0 0 1 0.1406 -0.1855 4 4 0 0 1 0.1133 -0.1289 4 4 0 0 1 0.1484 -0.1602 4 4 0 0 1 0.1602 -0.1484 4 4 0 0 1 0.1289 -0.1133 4 4 0 0 1 0.1855 -0.1406 4 4 0 0 1 0.1348 -0.0977 4 4 0 0 1 0.1875 -0.1152 4 4 0 0 1 0.1641 -0.0938 4 4 0 0 1 0.1855 -0.0898 4 4 0 0 1 0.1738 -0.0781 4 4 0 0 1 0.1797 -0.0664 4 4 0 0 1 0.2149 -0.0703 4 4 0 0 1 0.1543 -0.0391 4 4 0 0 1 0.2226 -0.0508 4 4 0 0 1 0.1856 -0.0273 4 4 0 0 1 0.2109 -0.0254 4 4 0 0 1 0.3379 -0.0176zm-1 3v3.8242a3 3 0 0 0 1 0.1758v-3h3a3 3 0 0 0 -0.1738 -1h-3.8262zm6.91 0a6 6 0 0 1 0.09 1h2v8h-8v-2a6 6 0 0 1 -1 -0.086v3.086h10v-10h-3.09z"/>
</svg>
