<svg width="16" height="16" version="1.1" xmlns="http://www.w3.org/2000/svg">
	<path fill="#bebebe" d="m13.5 1c-.745.0014-1.377.5495-1.482 1.2871-1.745.4777-3.3936 1.2306-4.8383 2.2695-.0042-.0041-.0076-.0075-.0117-.0117l-.0723.0723c-2.3262 1.7004-4.1027 4.1487-4.8281 7.4028-.7291.114-1.2667.742-1.2676 1.48 0 .828.6716 1.5 1.5 1.5s1.5-.672 1.5-1.5c-.0007-.535-.2865-1.029-0.75-1.297.4351-1.948 1.2666-3.5702 2.377-4.8964l.6777-.7402c.2574-.2563.5251-.5004.8047-.7305l.8125-.6132c1.2822-.8838 2.7401-1.5307 4.2911-1.9571.270.4544.759.7334 1.287.7344.828 0 1.5-.6716 1.5-1.5s-.672-1.5-1.5-1.5zm-7.5 9v2.5a2.5 2.5 0 0 0 2.5 2.5 2.5 2.5 0 0 0 2 -1.004 2.5 2.5 0 0 0 2 1.004 2.5 2.5 0 0 0 2.5 -2.5v-2.5h-2.5a2.5 2.5 0 0 0 -2 1.004 2.5 2.5 0 0 0 -2 -1.004h-2.5zm2.5 1.5a1 1 0 0 1 1 1 1 1 0 0 1 -1 1 1 1 0 0 1 -1 -1 1 1 0 0 1 1 -1zm4 0a1 1 0 0 1 1 1 1 1 0 0 1 -1 1 1 1 0 0 1 -1 -1 1 1 0 0 1 1 -1z"/>
</svg>
