<svg width="16" height="16" version="1.1" xmlns="http://www.w3.org/2000/svg">
	<path d="m13.5 1a1.5 1.5 0 0 0 -1.482 1.2773c-1.237.3390-2.4319.8097-3.5356 1.4297-.2035-.7226-.0890-1.599.4004-2.6465-1.3787.8344-2.142 2.2321-1.7812 3.545-1.1351.8290-2.1378 1.8372-2.9532 3.0293-.7974-.7753-1.218-2.0117-1.2324-3.7227-1.2296 1.8484-1.2704 4.1515.1992 5.5645-.3569.7874-.6464 1.6314-.8496 2.5434a1.5 1.5 0 0 0 -1.2656 1.48 1.5 1.5 0 0 0 1.5 1.5 1.5 1.5 0 0 0 1.5 -1.5 1.5 1.5 0 0 0 -.7461 -1.295c.1871-.838.4516-1.612.7754-2.332 1.2001.3310 2.4407-.0177 3.9062-1.3339-1.2036.1579-2.199.0452-2.9785-.3360.7444-1.0997 1.6621-2.0261 2.7071-2.7871.7660.6289 1.7935.7792 3.3299.2949-.928-.2487-1.6149-.6223-2.0526-1.1191 1.0173-.5673 2.1236-.9996 3.2776-1.3164a1.5 1.5 0 0 0 1.281 .7246 1.5 1.5 0 0 0 1.5 -1.5 1.5 1.5 0 0 0 -1.5 -1.5zm-4.5 8v6l4-3-4-3zm5 0v6h1v-6h-1z" fill="#bebebe"/>
</svg>
