<svg width="16" height="16" version="1.1" xmlns="http://www.w3.org/2000/svg">
	<path fill="#bebebe" d="m8 6c-1.1046 0-2 0.8954-2 2s0.8954 2 2 2 2-0.8954 2-2-0.8954-2-2-2zm0 4s-3-0.0315-3 1c0 2.178 2 5 2 5h2s2-3.105 2-5c0-0.974-3-1-3-1z"/>
	<path opacity=".45" d="m8 0c-4.4183 0-8 3.5817-8 8 0 3.582 2.3554 6.614 5.6016 7.633-0.159-0.268-0.3144-0.514-0.4922-0.862-0.0838-0.163-0.1666-0.346-0.25-0.523-2.2866-1.152-3.8594-3.513-3.8594-6.248 0-3.866 3.134-7 7-7s7 3.134 7 7c0 2.763-1.605 5.145-3.93 6.283-0.058 0.123-0.115 0.252-0.174 0.369-0.194 0.395-0.368 0.695-0.537 0.993 3.267-1.007 5.641-4.048 5.641-7.645 0-4.4183-3.582-8-8-8zm0 2c-3.3137 0-6 2.6863-6 6 0 1.9027 0.888 3.596 2.2695 4.695-0.1561-0.545-0.2695-1.111-0.2695-1.695 0-0.009 0.0018-0.017 0.002-0.025-0.6214-0.834-1.002-1.8557-1.002-2.975 0-2.7614 2.2386-5 5-5 2.761 0 5 2.2386 5 5 0 1.1193-0.381 2.141-1.002 2.975 0 0.008 0.002 0.016 0.002 0.025 0 0.583-0.125 1.16-0.301 1.719 1.399-1.099 2.301-2.8023 2.301-4.719 0-3.3137-2.686-6-6-6zm0 2c-2.2091 0-4 1.7909-4 4 0 0.6936 0.1933 1.3356 0.5039 1.9043 0.1666-0.1644 0.3461-0.304 0.5137-0.3887 0.1162-0.0587 0.2308-0.0873 0.3457-0.1133-0.2241-0.4202-0.3633-0.8928-0.3633-1.4023 0-0.2058 0.0211-0.4074 0.0605-0.6016 0.0003-0.0012-0.0002-0.0026 0-0.0039 0.2398-1.1717 1.1623-2.0942 2.334-2.334 0.1953-0.0399 0.3984-0.0605 0.6055-0.0605 0.2056 0 0.4071 0.0203 0.6016 0.0605 0.0012 0.0003 0.0026-0.0002 0.0039 0 1.1717 0.2398 2.0945 1.1623 2.3335 2.334 0.041 0.1957 0.061 0.3986 0.061 0.6055 0 0.5182-0.144 0.9985-0.375 1.4238 0.116 0.0268 0.233 0.0554 0.35 0.1133 0.174 0.0866 0.351 0.2079 0.521 0.3672 0.311-0.5687 0.504-1.2107 0.504-1.9043 0-2.2091-1.791-4-4-4z" fill="#bebebe"/>
</svg>
