<svg width="16" height="16" version="1.1" xmlns="http://www.w3.org/2000/svg">
	<path d="m1.5176 1.0195a.50005 .50005 0 0 0 -.0918 .9922c5.324 1.0419 7.588 2.9484 8.2871 4.6563.5471 1.3361.1786 2.64-.5156 3.529l-1.1973-1.197-3 3 3 3 2.008-2.008c2.056-.458 3.304-1.474 4.013-2.533.958-1.4302.963-2.918.963-2.918a.49652 .51886 0 0 0 -.504 -.5254 .49652 .51886 0 0 0 -.490 .5254s.005 1.1388-.775 2.3028c-.466.6952-1.321 1.3312-2.623 1.7482l-.6858-.686c.9548-1.1568 1.4458-2.8749.7328-4.6169-.8839-2.1585-3.5247-4.1821-9.0218-5.2579a.50005 .50005 0 0 0 -.0996 -.0117z" fill="#bebebe"/>
</svg>
