<svg width="16" height="16" version="1.1" xmlns="http://www.w3.org/2000/svg">
	<path fill="#bebebe" d="m2 1c-0.554 0-1 0.446-1 1v13h2 12v-13c0-0.554-0.446-1-1-1h-12zm6 1h1v1h-1v-1zm2 0h1v1h-1v-1zm2 0h1v1h-1v-1zm-9 2h5.0273 4.9727v9h-4.9727-5.0273v-9zm5.0273 9c0.6294-0.205 0.815-0.771 1.0821-1.26-0.5722-0.483-0.8363-1.226-0.8594-2.0193h0.498c0.0329 1.3773 1.2487 1.9063 1.693 0.7873-0.397 0-0.7919-0.308-0.8043-0.7873h0.6933a0.34867 0.34115 0 0 0 0 -0.6836h-0.4706c0.0346-0.0587 0.0658-0.1223 0.1094-0.1836 0.7022-0.9864 1.5052-0.6171 1.5542 0.4473 1.645-1.1907-1.408-3.3414-2.4683-0.9981-0.1146 0.2535-0.1712 0.5078-0.2227 0.7344h-0.5547c0.1447-1.0485 0.6831-2.0785 1.4981-2.6484-0.3704-1.1399-1.0088-1.8264-1.7481-2.3887-0.9077 0.636-1.4614 1.4622-1.7753 2.3887 0.756 0.6153 1.3082 1.6267 1.4707 2.6484h-0.5547c-0.0514-0.2266-0.1079-0.4809-0.2227-0.7344-1.0603-2.3433-4.1134-0.1926-2.4687 0.9981 0.0497-1.0644 0.8526-1.4337 1.5546-0.4473 0.0435 0.0613 0.0748 0.1248 0.1094 0.1836h-0.4707a0.34867 0.34115 0 1 0 0 0.6836h0.6934c-0.0124 0.4793-0.4076 0.7873-0.8047 0.7873 0.4447 1.119 1.6586 0.59 1.6914-0.7873h0.5273c-0.0097 0.7803-0.2602 1.5183-0.832 2.0193 0.1958 0.606 0.5887 1.09 1.082 1.26z"/>
</svg>
