<svg width="16" height="16" version="1.1" xmlns="http://www.w3.org/2000/svg">
	<path d="m10.686 1c-0.034-5.2e-4 -0.06175 0.01785-0.09375 0.03125l-0.91016 0.375c-0.1299 0.0538-0.1797 0.2137-0.125 0.3457l0.1582 0.4375c-0.2067 0.1579-0.34775 0.3605-0.50195 0.5625l-0.50195-0.1875c-0.066-0.0274-0.09555-0.0245-0.15625 0-0.0607 0.0244-0.12925 0.0601-0.15625 0.125l-0.37695 0.9082c-0.0538 0.1297-0.0072 0.28905 0.125 0.34375l0.4707 0.15625c-0.034 0.2517-0.0344 0.55685 0 0.81445l-0.4707 0.15625c-0.1322 0.0546-0.1788 0.21395-0.125 0.34375l0.37695 0.9082c0.0539 0.1298 0.21155 0.1797 0.34375 0.125l0.4707-0.15625c0.1581 0.2064 0.3309 0.346 0.5332 0.5l-0.18945 0.5c-0.0547 0.1319-0.0048 0.26075 0.125 0.31445l0.91016 0.375c0.13 0.0538 0.28875 7e-3 0.34375-0.125l0.15625-0.4707c0.252 0.034 0.55841 0.0343 0.81641 0l0.15625 0.4707c0.055 0.132 0.21375 0.1788 0.34375 0.125l0.91016-0.375c0.13-0.0537 0.18-0.2137 0.125-0.3457l-0.1582-0.46875c0.207-0.158 0.3792-0.32925 0.5332-0.53125l0.4707 0.1875c0.132 0.0547 0.2585 0.0047 0.3125-0.125l0.37695-0.9082c0.053-0.1298 7e-3 -0.28915-0.125-0.34375l-0.4707-0.15625c0.034001-0.2517 0.034001-0.55685 0-0.81445l0.4707-0.15625c0.132-0.0547 0.178-0.21405 0.125-0.34375l-0.37695-0.9082c-0.054-0.1298-0.21175-0.1797-0.34375-0.125l-0.43945 0.15625c-0.158-0.2064-0.36245-0.37735-0.56445-0.53125l0.18945-0.46875c0.055-0.132 5e-3 -0.26065-0.125-0.31445l-0.91016-0.375c-0.13-0.0537-0.28875-0.0069-0.34375 0.125l-0.15625 0.46875c-0.252-0.034-0.55841-0.0343-0.81641 0l-0.15625-0.46875c-0.042-0.0989-0.151-0.15475-0.25-0.15625zm0.81445 2.25c0.69036 0 1.25 0.55964 1.25 1.25s-0.55964 1.25-1.25 1.25-1.25-0.55964-1.25-1.25 0.55964-1.25 1.25-1.25zm-6.5 2.75c-0.277 0-0.5 0.223-0.5 0.5v0.64844a3.5 3.5 0 0 0 -0.66211 0.27539l-0.45898-0.45898c-0.19587-0.19587-0.51116-0.19587-0.70703 0l-0.70703 0.70703c-0.19587 0.19587-0.19587 0.51116 0 0.70703l0.45703 0.45703a3.5 3.5 0 0 0 -0.27539 0.66406h-0.64648c-0.277 0-0.5 0.223-0.5 0.5v1c0 0.277 0.223 0.5 0.5 0.5h0.64844a3.5 3.5 0 0 0 0.27539 0.66211l-0.45898 0.45898c-0.19587 0.19587-0.19587 0.51116 0 0.70703l0.70703 0.70703c0.19587 0.19587 0.51116 0.19587 0.70703 0l0.45703-0.45703a3.5 3.5 0 0 0 0.66406 0.27539v0.64648c0 0.277 0.223 0.5 0.5 0.5h1c0.277 0 0.5-0.223 0.5-0.5v-0.64844a3.5 3.5 0 0 0 0.66211 -0.27539l0.45898 0.45898c0.19587 0.19587 0.51116 0.19587 0.70703 0l0.70703-0.70703c0.19587-0.19587 0.19587-0.51116 0-0.70703l-0.45703-0.45703a3.5 3.5 0 0 0 0.27539 -0.66406h0.64648c0.277 0 0.5-0.223 0.5-0.5v-1c0-0.277-0.223-0.5-0.5-0.5h-0.64844a3.5 3.5 0 0 0 -0.27539 -0.66211l0.45898-0.45898c0.19587-0.19587 0.19587-0.51116 0-0.70703l-0.70703-0.70703c-0.19587-0.19587-0.51116-0.19587-0.70703 0l-0.45703 0.45703a3.5 3.5 0 0 0 -0.66406 -0.27539v-0.64648c0-0.277-0.223-0.5-0.5-0.5h-1zm0.5 3a1.5 1.5 0 0 1 1.5 1.5 1.5 1.5 0 0 1 -1.5 1.5 1.5 1.5 0 0 1 -1.5 -1.5 1.5 1.5 0 0 1 1.5 -1.5z" fill="#bebebe"/>
</svg>
