<svg width="16" height="16" version="1.1" xmlns="http://www.w3.org/2000/svg">
	<path fill="#bebebe" d="m11 2l-1 1v1h-0.5c-0.277 0-0.5 0.223-0.5 0.5s0.223 0.5 0.5 0.5h0.5v4.5c0 0.768 0.57 1.378 1.312 1.469 0.06 0.025 0.119 0.031 0.188 0.031h0.5v-1h-0.5c-0.277 0-0.5-0.223-0.5-0.5v-0.5-4h0.5c0.277 0 0.5-0.223 0.5-0.5s-0.223-0.5-0.5-0.5h-0.5c0-0.1489-0.04-1.8644 0-2zm3 0l-1 1v4 4h1v-2-1c0-0.554 0.446-1 1-1v-1h-1v-1-1c0-0.1489-0.04-1.8644 0-2zm-13 2v1h1v-1h-1zm0.5 2c-0.277 0-0.5 0.223-0.5 0.5v4c0 0.277 0.223 0.5 0.5 0.5s0.5-0.223 0.5-0.5v-4c0-0.277-0.223-0.5-0.5-0.5zm2.5 0c-0.554 0-1 0.446-1 1v4h1v-3c0-0.554 0.446-1 1-1s1 0.446 1 1v3h1v-4c0-0.554-0.446-1-1-1h-2z"/>
</svg>
