<svg width="16" height="16" version="1.1" xmlns="http://www.w3.org/2000/svg">
	<path fill="#bebebe" d="m1 1v10.012h1v-3.0003-6.0117h12v9 3h-7.5801l-1.0039 1h9.584v-14h-14zm8.9707 2c-0.4095 0-0.819 0.0251-1.2285 0.0762-0.4095 0.0476-0.8167 0.1196-1.2227 0.2148v1.3926c0.3001-0.1564 0.6251-0.2733 0.9746-0.3516 0.3496-0.0782 0.7269-0.1172 1.1329-0.1172 0.501 0 0.869 0.0672 1.105 0.2032 0.237 0.1326 0.272 0.3436 0.272 0.6328v0.1426h-1.0333c-1.0238 0-1.7757 0.1577-2.2559 0.4707-0.4766 0.3129-0.7148 0.8042-0.7148 1.4746 0 0.551 0.191 0.9977 0.5723 1.3437 0.3848 0.344 0.8838 0.5176 1.498 0.5176 0.4555 0 0.8425-0.0784 1.1597-0.2344 0.318-0.161 0.52-0.4127 0.774-0.7597v0.9941h1.996v-3.4082c0-0.9149-0.238-1.5757-0.715-1.9805-0.473-0.4081-1.245-0.6113-2.3143-0.6113zm0.1333 3.2812h0.9v0.209c0 0.3708-0.038 0.6798-0.281 0.9278-0.244 0.245-0.544 0.3672-0.9007 0.3672-0.286 0-0.5095-0.0644-0.6719-0.1934-0.1589-0.133-0.2383-0.3139-0.2383-0.5449 0-0.2518 0.0992-0.4431 0.2969-0.5723 0.2012-0.1292 0.4991-0.1934 0.895-0.1934zm-7.104 1.7305v4.0003h-2l3 2.988 3-2.988h-2v-4.0003h-2zm-2 5.4123v1.576h1.584l-1.584-1.576z"/>
</svg>
