<svg width="16" height="16" version="1.1" xmlns="http://www.w3.org/2000/svg">
	<path d="m5.5 1c-0.831 0-1.5 0.669-1.5 1.5v8c0 0.831 0.669 1.5 1.5 1.5h0.60742c-0.068521-0.3288-0.10742-0.66388-0.10742-1 0-0.38585 0.060598-0.76758 0.15039-1.1426-0.092649-0.090656-0.15039-0.21696-0.15039-0.35742v-6c0-0.277 0.223-0.5 0.5-0.5h4c0.277 0 0.5 0.223 0.5 0.5v2.5c0.68775 0 1.3701 0.1561 2 0.43164v-3.9316c0-0.831-0.669-1.5-1.5-1.5h-6zm-3 3c-0.831 0-1.5 0.669-1.5 1.5v8c0 0.831 0.669 1.5 1.5 1.5h5.5332c-0.19759-0.14543-0.39474-0.29122-0.56836-0.46484-0.43929-0.43929-0.78431-0.96613-1.0332-1.5352h-2.9316c-0.277 0-0.5-0.223-0.5-0.5v-6-2.5h-0.5zm8.5 3a4 4 0 0 0 -4 4 4 4 0 0 0 4 4 4 4 0 0 0 4 -4 4 4 0 0 0 -4 -4zm0 1l3 3h-2v3h-2v-3h-2l3-3z" fill="#bebebe"/>
</svg>
