<svg width="16" height="16" version="1.1" xmlns="http://www.w3.org/2000/svg">
	<path fill="#bebebe" d="m6.0352.99805v.00195c-1.2841 0-2.5874.5244-3.5664 1.5059-1.9582 1.9628-1.9582 5.1231 0 7.0859 1.5502 1.5542 3.8558 1.8792 5.7246.9722.0491-.023.1077-.068.1562-.093.3034-.120 1.0677-.342 1.4707.062.2987 0.3.1987.702.6567 1.16l3.066 3.041c.003-.003.590 0.6 1.187 0 0.6-.601.009-1.18 0-1.191l-3.033-3.072c-.457-.459-.828-.361-1.127-.6605-.492-.4939-.029-1.5034 0-1.5664.904-1.8745.582-4.1863-.9684-5.7402-.9791-.9814-2.2823-1.5058-3.5664-1.5058zm0 1.2872c2.0769 0 3.7539 1.6817 3.7539 3.7636s-1.677 3.7617-3.7539 3.7617-3.754-1.6799-3.754-3.7617c.0002-2.0819 1.6771-3.7636 3.754-3.7636zm-2.0352 1.7148v4l3-2-3-2zm3 2v2h1v-4h-1v2z"/>
</svg>
