<svg width="16" height="16" version="1.1" xmlns="http://www.w3.org/2000/svg">
	<path fill="#bebebe" d="m6.0352.99805v.00195c-1.2841 0-2.5874.5244-3.5664 1.5059-1.7728 1.7769-1.9351 4.5332-.4981 6.4961a1.0001 1.0001 0 0 1 .0293 -.0020h1a1.0001 1.0001 0 0 1 1 1h1a1.0001 1.0001 0 0 1 .0586 -.3340c-1.5985-.4315-2.7774-1.8764-2.7774-3.6172.0002-2.0819 1.6771-3.7636 3.754-3.7636s3.7539 1.6817 3.7539 3.7636c0 1.2046-.5718 2.2633-1.4473 2.9512h.6582a1.0001 1.0001 0 0 1 1 1v.818c.106.253.150.549.477.875l3.066 3.041c.003-.003.590 0.6 1.187 0 0.6-.601.009-1.18 0-1.191l-3.033-3.072c-.457-.459-.828-.361-1.127-.6605-.492-.4939-.029-1.5034 0-1.5664.904-1.8745.582-4.1863-.9684-5.7402-.9791-.9814-2.2823-1.5058-3.5664-1.5058zm-4.0352 9.002c.0771 1.076-.779.967-1 1v1h1v3h1v-5h-1zm4 0v1h2v1h-1-1v1 1 1h3v-1h-2v-1h2v-1-1-1h-1-2zm-2 1v1h1v-1h-1zm0 2v1h1v-1h-1z"/>
</svg>
