<?xml version="1.0" encoding="UTF-8" standalone="no"?>
<svg
   xmlns:dc="http://purl.org/dc/elements/1.1/"
   xmlns:cc="http://creativecommons.org/ns#"
   xmlns:rdf="http://www.w3.org/1999/02/22-rdf-syntax-ns#"
   xmlns:svg="http://www.w3.org/2000/svg"
   xmlns="http://www.w3.org/2000/svg"
   xmlns:xlink="http://www.w3.org/1999/xlink"
   xmlns:sodipodi="http://sodipodi.sourceforge.net/DTD/sodipodi-0.dtd"
   xmlns:inkscape="http://www.inkscape.org/namespaces/inkscape"
   width="96"
   height="96"
   version="1.0"
   id="svg136"
   sodipodi:docname="2048.svg"
   inkscape:version="0.92.2 5c3e80d, 2017-08-06">
  <metadata
     id="metadata140">
    <rdf:RDF>
      <cc:Work
         rdf:about="">
        <dc:format>image/svg+xml</dc:format>
        <dc:type
           rdf:resource="http://purl.org/dc/dcmitype/StillImage" />
      </cc:Work>
    </rdf:RDF>
  </metadata>
  <sodipodi:namedview
     pagecolor="#ffffff"
     bordercolor="#666666"
     borderopacity="1"
     objecttolerance="10"
     gridtolerance="10"
     guidetolerance="10"
     inkscape:pageopacity="0"
     inkscape:pageshadow="2"
     inkscape:window-width="1366"
     inkscape:window-height="743"
     id="namedview138"
     showgrid="false"
     inkscape:zoom="4.9166667"
     inkscape:cx="14.573658"
     inkscape:cy="36.06007"
     inkscape:window-x="0"
     inkscape:window-y="25"
     inkscape:window-maximized="1"
     inkscape:current-layer="svg136" />
  <defs
     id="defs49">
    <linearGradient
       id="linearGradient4384">
      <stop
         stop-color="#fff"
         offset="0"
         id="stop2" />
      <stop
         stop-color="#fff"
         stop-opacity="0"
         offset="1"
         id="stop4" />
    </linearGradient>
    <linearGradient
       id="ButtonShadow"
       x1="45.448"
       x2="45.448"
       y1="92.54"
       y2="7.0165"
       gradientTransform="scale(1.0059 .99417)"
       gradientUnits="userSpaceOnUse">
      <stop
         offset="0"
         id="stop7" />
      <stop
         stop-opacity=".58824"
         offset="1"
         id="stop9" />
    </linearGradient>
    <filter
       id="filter3174">
      <feGaussianBlur
         stdDeviation="1.71"
         id="feGaussianBlur12" />
    </filter>
    <filter
       id="filter3794"
       x="-.192"
       y="-.192"
       width="1.384"
       height="1.384">
      <feGaussianBlur
         stdDeviation="5.28"
         id="feGaussianBlur15" />
    </filter>
    <linearGradient
       id="linearGradient3613"
       x1="48"
       x2="48"
       y1="20.221"
       y2="138.66"
       gradientUnits="userSpaceOnUse">
      <stop
         stop-color="#fff"
         offset="0"
         id="stop18" />
      <stop
         stop-color="#fff"
         stop-opacity="0"
         offset="1"
         id="stop20" />
    </linearGradient>
    <linearGradient
       id="linearGradient3617"
       x1="48"
       x2="48"
       y1="90"
       y2="5.9877"
       gradientUnits="userSpaceOnUse">
      <stop
         stop-color="#d2d2d2"
         offset="0"
         id="stop23" />
      <stop
         stop-color="#f5f5f5"
         offset="1"
         id="stop25" />
    </linearGradient>
    <linearGradient
       id="ButtonShadow-0"
       x1="45.448"
       x2="45.448"
       y1="92.54"
       y2="7.0165"
       gradientTransform="matrix(1.0059 0 0 .99417 100 0)"
       gradientUnits="userSpaceOnUse">
      <stop
         offset="0"
         id="stop28" />
      <stop
         stop-opacity=".58824"
         offset="1"
         id="stop30" />
    </linearGradient>
    <linearGradient
       id="linearGradient3780"
       x1="32.251"
       x2="32.251"
       y1="6.1317"
       y2="90.239"
       gradientTransform="matrix(1.0238 0 0 1.0119 -1.1429 -98.071)"
       gradientUnits="userSpaceOnUse"
       xlink:href="#ButtonShadow-0" />
    <linearGradient
       id="linearGradient3721"
       x1="32.251"
       x2="32.251"
       y1="6.1317"
       y2="90.239"
       gradientTransform="translate(0,-97)"
       gradientUnits="userSpaceOnUse"
       xlink:href="#ButtonShadow-0" />
    <clipPath
       id="clipPath4355">
      <rect
         x="6"
         y="6"
         width="84"
         height="80"
         rx="6"
         ry="6"
         fill="#fff"
         id="rect35" />
    </clipPath>
    <linearGradient
       id="linearGradient4390"
       x1="48"
       x2="48"
       y1="88"
       y2="-40"
       gradientTransform="matrix(1,0,0,-1,0,92)"
       gradientUnits="userSpaceOnUse"
       xlink:href="#linearGradient4384" />
    <linearGradient
       id="linearGradient4429"
       x1="48"
       x2="112.12"
       y1="82"
       y2="82.455"
       gradientUnits="userSpaceOnUse"
       spreadMethod="reflect"
       xlink:href="#linearGradient4384" />
    <linearGradient
       id="linearGradient3870"
       x1="8"
       x2="50"
       y1="1033.4"
       y2="1033.4"
       gradientTransform="translate(-2 -956.36)"
       gradientUnits="userSpaceOnUse"
       spreadMethod="reflect">
      <stop
         stop-color="#523823"
         offset="0"
         id="stop40" />
      <stop
         stop-color="#79563a"
         offset=".1178"
         id="stop42" />
      <stop
         stop-color="#875c38"
         offset=".2381"
         id="stop44" />
      <stop
         stop-color="#a66e40"
         offset="1"
         id="stop46" />
    </linearGradient>
  </defs>
  <g
     display="none"
     id="g53">
    <rect
       x="5"
       y="7"
       width="86"
       height="85"
       rx="6"
       ry="6"
       fill="url(#ButtonShadow)"
       filter="url(#filter3174)"
       opacity=".9"
       id="rect51" />
  </g>
  <g
     id="g67">
    <g
       fill="url(#linearGradient3780)"
       id="g63">
      <path
         transform="scale(1,-1)"
         d="m12-95.031c-5.5111 0-10.031 4.5202-10.031 10.031v71c0 5.5111 4.5202 10.031 10.031 10.031h72c5.5111 0 10.031-4.5202 10.031-10.031v-71c0-5.5111-4.5202-10.031-10.031-10.031h-72z"
         opacity=".08"
         id="path55" />
      <path
         transform="scale(1,-1)"
         d="m12-94.031c-4.9716 0-9.0312 4.0596-9.0312 9.0312v71c0 4.9716 4.0596 9.0312 9.0312 9.0312h72c4.9716 0 9.0312-4.0596 9.0312-9.0312v-71c0-4.9716-4.0596-9.0312-9.0312-9.0312h-72z"
         opacity=".1"
         id="path57" />
      <path
         transform="scale(1,-1)"
         d="m12-93c-4.4091 0-8 3.5909-8 8v71c0 4.4091 3.5909 8 8 8h72c4.4091 0 8-3.5909 8-8v-71c0-4.4091-3.5909-8-8-8h-72z"
         opacity=".2"
         id="path59" />
      <rect
         transform="scale(1,-1)"
         x="5"
         y="-92"
         width="86"
         height="85"
         rx="7"
         ry="7"
         opacity=".3"
         id="rect61" />
    </g>
    <rect
       transform="scale(1,-1)"
       x="6"
       y="-91"
       width="84"
       height="84"
       rx="6"
       ry="6"
       fill="url(#linearGradient3721)"
       opacity=".45"
       id="rect65" />
  </g>
  <g
     id="g79">
    <rect
       x="6"
       y="64"
       width="84"
       height="26"
       rx="6"
       ry="6"
       color="#000000"
       fill="url(#linearGradient3870)"
       id="rect69" />
    <g
       id="g77">
      <path
         d="m6 82v2c0 3.324 2.676 6 6 6h72c3.324 0 6-2.676 6-6v-2c0 3.324-2.676 6-6 6h-72c-3.324 0-6-2.676-6-6z"
         color="#000000"
         opacity=".1"
         id="path71" />
      <path
         d="m6 83v1c0 3.324 2.676 6 6 6h72c3.324 0 6-2.676 6-6v-1c0 3.324-2.676 6-6 6h-72c-3.324 0-6-2.676-6-6z"
         color="#000000"
         opacity=".1"
         id="path73" />
      <path
         d="m6 80v1c0 3.324 2.676 6 6 6h72c3.324 0 6-2.676 6-6v-1c0 3.324-2.676 6-6 6h-72c-3.324 0-6-2.676-6-6z"
         opacity=".2"
         id="path75" />
    </g>
  </g>
  <g
     id="g87">
    <rect
       x="6"
       y="6"
       width="84"
       height="80"
       rx="6"
       ry="6"
       fill="url(#linearGradient3617)"
       id="rect81" />
    <path
       d="m12 86c-3.324 0-6-2.676-6-6v-68c0-3.324 2.676-6 6-6h72c3.324 0 6 2.676 6 6v68c0 3.324-2.676 6-6 6zm0-0.96875h72c2.8049 0 5.0312-2.2264 5.0312-5.0312v-68c0-2.8049-2.2264-5.0312-5.0312-5.0312h-72c-2.8049 0-5.0312 2.2264-5.0312 5.0312v68c0 2.8049 2.2264 5.0312 5.0312 5.0312z"
       fill="url(#linearGradient4390)"
       opacity=".3"
       id="path83" />
    <path
       d="m6 78v2c0 3.324 2.676 6 6 6h72c3.324 0 6-2.676 6-6v-2c0 3.324-2.676 6-6 6h-72c-3.324 0-6-2.676-6-6z"
       fill="url(#linearGradient4429)"
       opacity=".1"
       id="path85" />
  </g>
  <g
     id="g91">
    <rect
       x="15"
       y="15"
       width="66"
       height="62"
       rx="12"
       ry="12"
       clip-path="url(#clipPath4355)"
       fill="url(#linearGradient3613)"
       filter="url(#filter3794)"
       opacity=".1"
       stroke="#fff"
       stroke-linecap="round"
       stroke-width=".5"
       id="rect89" />
  </g>
  <defs
     id="defs101">
    <filter
       id="w">
      <feGaussianBlur
         stdDeviation="0.68880677"
         id="feGaussianBlur93" />
    </filter>
    <linearGradient
       id="a"
       gradientUnits="userSpaceOnUse"
       x1="8"
       y1="1"
       x2="8"
       y2="14.00004"
       gradientTransform="matrix(4.9230616,0,0,4.9230616,11.077038,9.0773724)">
      <stop
         stop-color="#ff9201"
         offset="0"
         id="stop96" />
      <stop
         stop-color="#ff9201"
         offset="1"
         id="stop98" />
    </linearGradient>
  </defs>
  <path
     inkscape:connector-curvature="0"
     id="base"
     style="color:#000000;isolation:auto;mix-blend-mode:normal;solid-color:#000000;fill:url(#a);stroke-width:4.92306137;color-rendering:auto;image-rendering:auto;shape-rendering:auto"
     d="m 20.221133,14.000434 c -2.337765,0 -4.221132,1.883908 -4.221132,4.221131 v 21.096304 c 0,2.337667 1.883367,4.221132 4.221132,4.221132 h 21.096303 c 2.337765,0 4.221132,-1.883465 4.221132,-4.221132 V 18.221565 c 0,-2.337272 -1.883367,-4.221131 -4.221132,-4.221131 z m 9.884523,4.923062 c 4.844834,0 7.076901,2.519376 7.076901,5.797889 0,3.974486 -3.891877,7.574131 -7.692284,11.46138 h 8.095975 v 3.134612 H 23.749983 v -2.230738 c 1.073425,-1.015381 2.289519,-2.057889 3.798044,-3.624998 2.901111,-3.045357 6.067181,-5.956904 6.067181,-8.509512 0,-1.624462 -0.956649,-2.634626 -3.509602,-2.634626 -2.030762,0 -3.653896,0.812946 -5.336598,1.538457 l -1.048071,-3.105762 c 1.392537,-0.725118 3.657589,-1.826899 6.384719,-1.826899 z m -9.884523,29.538369 c -2.337765,0 -4.221132,1.883465 -4.221132,4.221132 V 73.7793 c 0,2.33811 1.883367,4.221132 4.221132,4.221132 h 21.096303 c 2.337765,0 4.221132,-1.883022 4.221132,-4.221132 V 52.682997 c 0,-2.337667 -1.883367,-4.221132 -4.221132,-4.221132 z m 34.461431,0 c -2.337765,0 -4.221132,1.883465 -4.221132,4.221132 V 73.7793 c 0,2.337273 1.883367,4.221132 4.221132,4.221132 h 21.096303 c 2.337765,0 4.221132,-1.883908 4.221132,-4.221132 V 52.682997 c 0,-2.337667 -1.883416,-4.221132 -4.221132,-4.221132 z m 10.27886,4.923062 c 4.960969,0 7.221147,2.030467 7.221147,5.192353 0,1.595564 -0.866607,2.78153 -2.346134,3.942289 2.407918,1.304858 3.480752,3.190735 3.480752,5.220907 0,3.133775 -2.748004,6.327119 -8.173267,6.327119 -4.786791,0 -8.336712,-2.469802 -8.336712,-6.067181 0,-2.118345 1.401743,-4.147187 3.461503,-5.394199 -1.914727,-1.305301 -2.326935,-3.071547 -2.326935,-4.086535 0,-2.81412 2.522528,-5.134753 7.019302,-5.134753 z M 30.91353,53.64454 h 4.817314 v 12.653745 h 3.509602 v 3.19231 h -3.509602 v 4.28843 h -3.567299 v -4.28843 h -9.663478 v -2.528829 l 8.413512,-13.317374 z m 34.047894,2.932667 c -1.97272,0 -3.307706,1.128661 -3.307657,2.230738 0,1.653804 2.413531,2.38286 4.096135,2.84617 1.914726,-1.072785 2.778822,-1.74434 2.778822,-2.701924 0,-1.596008 -1.68157,-2.374984 -3.5673,-2.374984 z m -32.797929,0.961523 -0.403843,0.865376 -4.990508,7.89413 h 5.394199 v -7.89413 -0.865376 z m 32.422792,5.971182 c -2.610995,0.724675 -4.115384,2.37518 -4.115384,3.942289 0,1.682703 1.77117,3.307707 4.817314,3.307707 2.756028,0 4.346128,-1.480266 4.346128,-3.19231 0,-2.320239 -2.321027,-3.36191 -5.048107,-4.057686 z" />
  <path
     d="m 20.221133,14.000434 c -2.337765,0 -4.221132,1.883908 -4.221132,4.221131 v 21.096304 c 0,2.337667 1.883367,4.221132 4.221132,4.221132 h 21.096303 c 2.337765,0 4.221132,-1.883465 4.221132,-4.221132 V 18.221565 c 0,-2.337272 -1.883367,-4.221131 -4.221132,-4.221131 z m 9.884523,4.923062 c 4.844834,0 7.076901,2.519376 7.076901,5.797889 0,3.974486 -3.891877,7.574131 -7.692284,11.46138 h 8.095975 v 3.134612 H 23.749983 v -2.230738 c 1.073425,-1.015381 2.289519,-2.057889 3.798044,-3.624998 2.901111,-3.045357 6.067181,-5.956904 6.067181,-8.509512 0,-1.624462 -0.956649,-2.634626 -3.509602,-2.634626 -2.030762,0 -3.653896,0.812946 -5.336598,1.538457 l -1.048071,-3.105762 c 1.392537,-0.725118 3.657589,-1.826899 6.384719,-1.826899 z"
     style="color:#000000;isolation:auto;mix-blend-mode:normal;solid-color:#000000;fill:#007272;stroke-width:4.92306137;color-rendering:auto;image-rendering:auto;shape-rendering:auto;fill-opacity:1"
     id="path889"
     inkscape:connector-curvature="0"
     sodipodi:nodetypes="ssssssssscsccccccsscccc" />
  <path
     d="m 20.221133,48.461865 c -2.337765,0 -4.221132,1.883465 -4.221132,4.221132 V 73.7793 c 0,2.33811 1.883367,4.221132 4.221132,4.221132 h 21.096303 c 2.337765,0 4.221132,-1.883022 4.221132,-4.221132 V 52.682997 c 0,-2.337667 -1.883367,-4.221132 -4.221132,-4.221132 z M 30.91353,53.64454 h 4.817314 v 12.653745 h 3.509602 v 3.19231 h -3.509602 v 4.28843 h -3.567299 v -4.28843 h -9.663478 v -2.528829 l 8.413512,-13.317374 z m 1.249965,3.89419 -0.403843,0.865376 -4.990508,7.89413 h 5.394199 v -7.89413 -0.865376 z"
     style="color:#000000;isolation:auto;mix-blend-mode:normal;solid-color:#000000;fill:#007700;stroke-width:4.92306137;color-rendering:auto;image-rendering:auto;shape-rendering:auto;fill-opacity:1"
     id="path885"
     inkscape:connector-curvature="0"
     sodipodi:nodetypes="ssssssssscccccccccccccccccccc" />
  <path
     inkscape:connector-curvature="0"
     id="path104"
     d="m 20.221241,14.000434 c -2.337765,0 -4.221141,1.883918 -4.221141,4.221141 v 21.096087 c 0,2.337668 1.883375,4.221142 4.221141,4.221142 h 21.096087 c 2.337765,0 4.221141,-1.883475 4.221141,-4.221142 V 18.221575 c 0,-2.337274 -1.883375,-4.221141 -4.221141,-4.221141 z m 0,2.461531 h 9.884585 11.211502 c 1.01537,0 1.75961,0.744666 1.75961,1.75961 v 21.096087 c 0,1.015561 -0.743964,1.759611 -1.75961,1.759611 h -2.009609 a 2.461777,2.461777 0 0 0 0.740382,-1.759611 V 36.183058 A 2.461777,2.461777 0 0 0 37.58657,33.721527 h -2.48076 c 0.525009,-0.588328 1.132725,-1.125364 1.605764,-1.74038 1.609438,-2.092495 2.932683,-4.468894 2.932683,-7.259592 -1e-6,-2.197874 -0.828351,-4.425008 -2.548069,-5.96152 -1.559545,-1.393405 -3.749489,-2.06395 -6.259596,-2.192301 a 2.461777,2.461777 0 0 0 -0.730766,-0.105769 c -3.390115,0 -6.062806,1.347389 -7.519209,2.105763 a 2.461777,2.461777 0 0 0 -1.201919,2.971144 l 1.048073,3.10576 a 2.461777,2.461777 0 0 0 3.307682,1.471149 c 1.768124,-0.762341 2.991534,-1.336535 4.365373,-1.336535 0.708328,0 0.961384,0.09173 1.055284,0.127404 0.0079,-0.150686 0.03429,-0.02601 0.09856,0.02644 0.01926,0.01572 -0.06628,-0.01418 -0.09856,-0.02644 -0.0014,0.02581 -0.0073,-0.0025 -0.0073,0.04567 0,0.258601 -0.376791,1.260707 -1.394226,2.519221 -1.017435,1.258516 -2.501585,2.725637 -3.990372,4.28845 -1.423167,1.477323 -2.577905,2.466125 -3.711527,3.53845 A 2.461777,2.461777 0 0 0 21.288494,37.0869 v 2.230762 a 2.461777,2.461777 0 0 0 0.740434,1.759611 h -1.807687 c -1.015646,0 -1.759611,-0.74405 -1.759611,-1.759611 V 18.221575 c 0,-1.014868 0.744276,-1.75961 1.759611,-1.75961 z m 9.884585,2.461531 c 4.844832,0 7.076901,2.519546 7.076901,5.798059 0,3.974485 -3.891879,7.574252 -7.692284,11.461503 h 8.096127 v 3.134604 H 23.750075 V 37.0869 c 1.073425,-1.015381 2.289542,-2.057879 3.798065,-3.624988 2.901112,-3.045357 6.067289,-5.956981 6.067289,-8.509588 0,-1.624464 -0.956653,-2.634609 -3.509603,-2.634609 -2.030763,0 -3.65382,0.812947 -5.336523,1.538457 L 23.72123,20.750413 c 1.392537,-0.725118 3.657466,-1.826917 6.384596,-1.826917 z m -9.884585,29.538369 c -2.337765,0 -4.221141,1.883474 -4.221141,4.221142 v 21.096086 c 0,2.338111 1.883375,4.221142 4.221141,4.221142 h 21.096087 c 2.337765,0 4.221141,-1.883031 4.221141,-4.221142 V 52.683007 c 0,-2.337667 -1.883375,-4.221142 -4.221141,-4.221142 z m 34.461431,0 c -2.337765,0 -4.221141,1.883474 -4.221141,4.221142 v 21.096086 c 0,2.337273 1.883375,4.221142 4.221141,4.221142 h 21.096087 c 2.337765,0 4.221141,-1.883917 4.221141,-4.221142 V 52.683007 c 0,-2.337667 -1.883425,-4.221142 -4.221141,-4.221142 z m -34.461431,2.461531 h 21.096087 c 1.015646,0 1.75961,0.744049 1.75961,1.759611 v 21.096086 c 0,1.016253 -0.743653,1.759611 -1.75961,1.759611 h -3.865371 a 2.461777,2.461777 0 0 0 0.740381,-1.759611 v -1.826916 h 1.048073 a 2.461777,2.461777 0 0 0 2.461531,-2.46153 V 66.298349 A 2.461777,2.461777 0 0 0 39.240411,63.836818 H 38.192338 V 53.644542 a 2.461777,2.461777 0 0 0 -2.461531,-2.461531 h -4.817292 a 2.461777,2.461777 0 0 0 -2.076916,1.144227 l -8.413436,13.317267 a 2.461777,2.461777 0 0 0 -0.384614,1.317303 v 2.528839 a 2.461777,2.461777 0 0 0 2.46153,2.46153 h 7.2019 v 1.826916 a 2.461777,2.461777 0 0 0 0.740383,1.759611 H 20.221241 c -1.015958,0 -1.759611,-0.743358 -1.759611,-1.759611 V 52.683007 c 0,-1.015562 0.743965,-1.759611 1.759611,-1.759611 z m 34.461431,0 h 10.278814 10.817273 c 1.01557,0 1.759611,0.744084 1.759611,1.759611 v 21.096086 c 0,1.014871 -0.744274,1.759611 -1.759611,1.759611 h -5.83652 c 3.590345,-1.489359 5.83652,-4.519491 5.83652,-7.798053 0,-1.980553 -1.066276,-3.782055 -2.548068,-5.346137 0.802331,-1.10694 1.413457,-2.345561 1.413457,-3.817296 0,-2.167461 -0.931263,-4.376843 -2.721146,-5.740366 -1.789882,-1.363524 -4.145205,-1.913456 -6.961516,-1.913456 -2.671825,0 -4.986329,0.690501 -6.711518,2.038455 -1.725187,1.347954 -2.769222,3.415123 -2.769222,5.557675 0,1.080499 0.555108,2.509082 1.480765,3.903834 -1.477009,1.538344 -2.615377,3.351121 -2.615377,5.576906 0,2.608376 1.387955,4.943694 3.39422,6.384595 0.716854,0.514844 1.585315,0.825347 2.432685,1.153843 h -5.490367 c -1.01537,0 -1.75961,-0.744666 -1.75961,-1.759611 V 52.683007 c 0,-1.015562 0.743964,-1.759611 1.75961,-1.759611 z m 10.278814,2.461531 c 4.960969,0 7.22113,2.030406 7.221132,5.192291 0,1.595565 -0.86662,2.781536 -2.346147,3.942296 2.407919,1.304857 3.480757,3.190965 3.480757,5.221137 0,3.133775 -2.747787,6.326904 -8.17305,6.326904 -4.786791,0 -8.336513,-2.46991 -8.336513,-6.067289 0,-2.118344 1.401768,-4.147203 3.461528,-5.394213 -1.914727,-1.305302 -2.326916,-3.071539 -2.326916,-4.086527 0,-2.81412 2.522435,-5.134599 7.019209,-5.134599 z m -34.047971,0.259615 h 4.817292 v 12.653807 h 3.509604 v 3.192298 h -3.509604 v 4.288446 H 32.16351 v -4.288446 h -9.663431 v -2.528839 z m 34.047971,2.932683 c -1.97272,0 -3.307732,1.128685 -3.307682,2.230762 0,1.653804 2.413537,2.382836 4.096141,2.846145 1.914726,-1.072785 2.778838,-1.744331 2.778838,-2.701914 0,-1.596008 -1.681568,-2.374993 -3.567297,-2.374993 z m -32.797976,0.961535 -0.403843,0.865382 -4.99037,7.894207 h 5.394213 v -7.894207 z m 32.422976,5.971135 c -2.610993,0.724674 -4.115372,2.375187 -4.115372,3.942296 0,1.682702 1.771149,3.307682 4.817294,3.307682 2.756028,0 4.34614,-1.480254 4.34614,-3.192297 0,-2.320239 -2.320981,-3.361905 -5.048062,-4.057681 z m 0.192307,2.692299 c 0.773059,0.251893 1.606777,0.511166 1.951918,0.749999 0.486315,0.336526 0.442306,0.276056 0.442306,0.615383 0,0.09396 0.01952,0.133384 -0.201923,0.307691 -0.221443,0.174306 -0.74537,0.423076 -1.682686,0.423076 -1.085363,0 -1.759739,-0.291377 -2.076917,-0.528846 -0.317178,-0.237468 -0.278846,-0.339602 -0.278846,-0.317306 0,0.0065 0.76596,-0.710144 1.846148,-1.249997 z"
     style="color:#000000;opacity:0.07999998;isolation:auto;mix-blend-mode:normal;solid-color:#000000;fill:#000000;stroke-width:4.92306137;color-rendering:auto;image-rendering:auto;shape-rendering:auto" />
  <path
     inkscape:connector-curvature="0"
     id="path109"
     d="m 20.221241,14.000434 c -2.337765,0 -4.221141,1.883918 -4.221141,4.221141 v 21.096087 c 0,2.337668 1.883375,4.221142 4.221141,4.221142 h 21.096087 c 2.337765,0 4.221141,-1.883475 4.221141,-4.221142 V 18.221575 c 0,-2.337274 -1.883375,-4.221141 -4.221141,-4.221141 z m 0,1.230765 h 21.096087 c 1.676568,0 2.990376,1.314267 2.990376,2.990376 v 21.096087 c 0,1.676614 -1.31367,2.990376 -2.990376,2.990376 H 20.221241 c -1.676706,0 -2.990376,-1.313762 -2.990376,-2.990376 V 18.221575 c 0,-1.676046 1.313825,-2.990376 2.990376,-2.990376 z m 9.884585,2.461531 c -3.058624,0 -5.527433,1.219787 -6.951903,1.961533 a 1.2308885,1.2308885 0 0 0 -0.596152,1.49038 l 1.048075,3.105759 a 1.2308885,1.2308885 0 0 0 1.653841,0.740383 c 1.725412,-0.743928 3.143837,-1.442304 4.846139,-1.442304 1.114144,1e-6 1.691187,0.23561 1.932685,0.432691 0.241499,0.19708 0.346153,0.40052 0.346153,0.971152 0,0.767452 -0.587276,1.954993 -1.673072,3.298066 -1.085796,1.343074 -2.588008,2.822626 -4.057679,4.365371 -1.463137,1.518833 -2.647854,2.534372 -3.749989,3.576912 A 1.2308885,1.2308885 0 0 0 22.51931,37.0869 v 2.230762 a 1.2308885,1.2308885 0 0 0 1.230765,1.230766 H 37.58657 a 1.2308885,1.2308885 0 0 0 1.230766,-1.230766 V 36.183058 A 1.2308885,1.2308885 0 0 0 37.58657,34.952292 h -5.288444 c 1.19914,-1.23047 2.4622,-2.446878 3.442296,-3.721142 1.52873,-1.987562 2.67307,-4.120625 2.67307,-6.509595 -10e-7,-1.918566 -0.692941,-3.759976 -2.13461,-5.048062 -1.367089,-1.221451 -3.361343,-1.8552 -5.807674,-1.923071 a 1.2308885,1.2308885 0 0 0 -0.05769,-0.0096 1.2308885,1.2308885 0 0 0 -0.307692,-0.04807 z m 0,1.230766 c 4.844832,0 7.076901,2.519546 7.076901,5.798059 0,3.974485 -3.891879,7.574252 -7.692284,11.461503 h 8.096127 v 3.134604 H 23.750075 V 37.0869 c 1.073425,-1.015381 2.289542,-2.057879 3.798065,-3.624988 2.901112,-3.045357 6.067289,-5.956981 6.067289,-8.509588 0,-1.624464 -0.956653,-2.634609 -3.509603,-2.634609 -2.030763,0 -3.65382,0.812947 -5.336523,1.538457 L 23.72123,20.750413 c 1.392537,-0.725118 3.657466,-1.826917 6.384596,-1.826917 z m -9.884585,29.538369 c -2.337765,0 -4.221141,1.883474 -4.221141,4.221142 v 21.096086 c 0,2.338111 1.883375,4.221142 4.221141,4.221142 h 21.096087 c 2.337765,0 4.221141,-1.883031 4.221141,-4.221142 V 52.683007 c 0,-2.337667 -1.883375,-4.221142 -4.221141,-4.221142 z m 34.461431,0 c -2.337765,0 -4.221141,1.883474 -4.221141,4.221142 v 21.096086 c 0,2.337273 1.883375,4.221142 4.221141,4.221142 h 21.096087 c 2.337765,0 4.221141,-1.883917 4.221141,-4.221142 V 52.683007 c 0,-2.337667 -1.883425,-4.221142 -4.221141,-4.221142 z m -34.461431,1.230766 h 21.096087 c 1.676706,0 2.990376,1.313762 2.990376,2.990376 v 21.096086 c 0,1.677185 -1.313515,2.990376 -2.990376,2.990376 H 20.221241 c -1.676861,0 -2.990376,-1.313191 -2.990376,-2.990376 V 52.683007 c 0,-1.676614 1.31367,-2.990376 2.990376,-2.990376 z m 34.461431,0 h 21.096087 c 1.676643,0 2.990376,1.313779 2.990376,2.990376 v 21.096086 c 0,1.676048 -1.313826,2.990376 -2.990376,2.990376 H 54.682672 c -1.676568,0 -2.990376,-1.314265 -2.990376,-2.990376 V 52.683007 c 0,-1.676614 1.31367,-2.990376 2.990376,-2.990376 z m 10.278814,2.46153 c -2.460103,0 -4.492946,0.629287 -5.951905,1.769226 -1.458958,1.139938 -2.29807,2.821332 -2.29807,4.596139 0,1.064563 0.629485,2.611222 1.903841,3.999988 -1.728444,1.429992 -3.038453,3.284087 -3.038453,5.480752 0,2.203533 1.138559,4.130586 2.884607,5.384599 1.746047,1.254012 4.0776,1.913456 6.682672,1.913456 5.908219,0 9.403816,-3.704394 9.403816,-7.55767 0,-2.008688 -1.174272,-3.832326 -2.990375,-5.278829 1.047204,-1.091803 1.855764,-2.329049 1.855764,-3.884604 0,-1.874203 -0.743236,-3.626412 -2.230762,-4.759601 -1.487524,-1.133186 -3.572735,-1.663456 -6.221135,-1.663456 z m -34.057587,0.259616 a 1.2308885,1.2308885 0 0 0 -1.028842,0.576921 l -8.413436,13.317265 a 1.2308885,1.2308885 0 0 0 -0.192307,0.653845 v 2.528839 a 1.2308885,1.2308885 0 0 0 1.230765,1.230765 h 8.432666 v 3.057681 a 1.2308885,1.2308885 0 0 0 1.230765,1.230766 h 3.567297 a 1.2308885,1.2308885 0 0 0 1.230766,-1.230766 v -3.057681 h 2.278838 a 1.2308885,1.2308885 0 0 0 1.230766,-1.230765 V 66.298349 A 1.2308885,1.2308885 0 0 0 39.240411,65.067583 H 36.961573 V 53.644542 a 1.2308885,1.2308885 0 0 0 -1.230766,-1.230765 h -4.817292 a 1.2308885,1.2308885 0 0 0 -0.0096,0 z m 34.057587,0.97115 c 4.960969,0 7.22113,2.030406 7.221132,5.192291 0,1.595565 -0.86662,2.781536 -2.346147,3.942296 2.407919,1.304857 3.480757,3.190965 3.480757,5.221137 0,3.133775 -2.747787,6.326904 -8.17305,6.326904 -4.786791,0 -8.336513,-2.46991 -8.336513,-6.067289 0,-2.118344 1.401768,-4.147203 3.461528,-5.394213 -1.914727,-1.305302 -2.326916,-3.071539 -2.326916,-4.086527 0,-2.81412 2.522435,-5.134599 7.019209,-5.134599 z m -34.047971,0.259615 h 4.817292 v 12.653807 h 3.509604 v 3.192298 h -3.509604 v 4.288446 H 32.16351 v -4.288446 h -9.663431 v -2.528839 z m 34.047971,2.932683 c -1.97272,0 -3.307732,1.128685 -3.307682,2.230762 0,1.653804 2.413537,2.382836 4.096141,2.846145 1.914726,-1.072785 2.778838,-1.744331 2.778838,-2.701914 0,-1.596008 -1.681568,-2.374993 -3.567297,-2.374993 z m -32.797976,0.961535 -0.403843,0.865382 -4.99037,7.894207 h 5.394213 v -7.894207 z m 32.797976,0.26923 c 0.773393,0 1.468322,0.180655 1.855763,0.413461 0.387435,0.232802 0.480768,0.365013 0.480768,0.730767 -10e-7,0.10859 0.02902,0.118744 -0.278845,0.403843 -0.23521,0.217813 -0.829816,0.573149 -1.432689,0.93269 -0.684422,-0.202116 -1.418127,-0.414979 -1.923071,-0.692305 -0.634227,-0.348331 -0.778843,-0.560275 -0.778843,-0.788459 -5e-6,-0.05405 0.06123,-0.280932 0.403845,-0.528845 0.342611,-0.247913 0.921433,-0.471152 1.673072,-0.471152 z m -34.028741,4.201909 v 3.057684 h -1.932686 z m 33.653741,1.499996 c -2.610993,0.724674 -4.115372,2.375187 -4.115372,3.942296 0,1.682702 1.771149,3.307682 4.817294,3.307682 2.756028,0 4.34614,-1.480254 4.34614,-3.192297 0,-2.320239 -2.320981,-3.361905 -5.048062,-4.057681 z m 0.04807,1.336535 c 1.119745,0.311969 2.17405,0.664338 2.798068,1.09615 0.703727,0.486975 0.971151,0.875272 0.971151,1.624996 0,0.47499 -0.191334,0.890036 -0.673075,1.269226 -0.481736,0.379188 -1.284637,0.692306 -2.4423,0.692306 -1.304217,0 -2.246927,-0.351818 -2.8173,-0.778844 -0.570371,-0.427032 -0.769228,-0.888548 -0.769228,-1.298073 0,-0.73492 0.93816,-1.939612 2.932684,-2.605761 z"
     style="color:#000000;opacity:0.1;isolation:auto;mix-blend-mode:normal;solid-color:#000000;fill:#000000;stroke-width:4.92306137;color-rendering:auto;image-rendering:auto;shape-rendering:auto" />
  <path
     inkscape:connector-curvature="0"
     id="path114"
     d="m 20.221237,14.000434 c -2.337765,0 -4.221141,1.883918 -4.221141,4.221141 v 1.230766 c 0,-2.337224 1.883376,-4.221142 4.221141,-4.221142 h 21.096087 c 2.337766,0 4.221141,1.883868 4.221141,4.221142 v -1.230766 c 0,-2.337274 -1.883375,-4.221141 -4.221141,-4.221141 z m 3.855757,7.805264 c -0.112492,0.05722 -0.25267,0.121797 -0.355768,0.17548 l 1.048073,3.105759 c 1.682703,-0.72551 3.30576,-1.538456 5.336523,-1.538456 2.201232,0 3.211759,0.75416 3.449508,2.002398 0.03615,-0.201193 0.0601,-0.401537 0.0601,-0.598555 0,-1.624464 -0.956653,-2.634609 -3.509604,-2.634609 -2.030763,0 -3.65382,0.812947 -5.336522,1.538457 z m 13.060055,3.641815 c -0.433762,3.690108 -4.07912,7.086533 -7.64661,10.735545 h 1.201919 c 3.370025,-3.42265 6.490365,-6.681969 6.490365,-10.230738 0,-0.173885 -0.03306,-0.335454 -0.04567,-0.504807 z M 23.750071,39.317662 v 1.230766 h 13.836495 v -1.230766 z m -3.528834,9.144203 c -2.337765,0 -4.221141,1.883474 -4.221141,4.221142 v 1.230765 c 0,-2.337668 1.883376,-4.221141 4.221141,-4.221141 h 21.096087 c 2.337766,0 4.221141,1.883474 4.221141,4.221141 v -1.230765 c 0,-2.337667 -1.883375,-4.221142 -4.221141,-4.221142 z m 34.461431,0 c -2.337765,0 -4.221141,1.883474 -4.221141,4.221142 v 1.230765 c 0,-2.337668 1.883376,-4.221141 4.221141,-4.221141 h 21.096087 c 2.337716,0 4.221141,1.883474 4.221141,4.221141 v -1.230765 c 0,-2.337667 -1.883425,-4.221142 -4.221141,-4.221142 z m 10.278814,8.11536 c -1.97272,0 -3.307732,1.128685 -3.307682,2.230762 0,0.231614 0.05579,0.439868 0.141826,0.637017 0.377831,-0.878787 1.551201,-1.637014 3.165856,-1.637014 1.598283,0 3.036885,0.566771 3.442297,1.709129 0.07658,-0.180749 0.125,-0.365563 0.125,-0.564901 0,-1.596008 -1.681568,-2.374993 -3.567297,-2.374993 z m -32.797976,0.961535 -0.403843,0.865382 -4.99037,7.894207 h 0.778843 l 4.211527,-6.663442 0.403843,-0.865382 v -0.365383 z m 25.846074,1.620187 c -0.02583,0.196397 -0.06731,0.389177 -0.06731,0.591345 0,0.849767 0.301529,2.224286 1.519226,3.415855 0.256556,-0.199379 0.524283,-0.388516 0.80769,-0.560094 -1.567817,-1.068807 -2.107997,-2.425691 -2.259609,-3.447106 z m 14.117745,0.0625 c -0.204269,1.280269 -1.018298,2.299683 -2.290858,3.298066 0.292445,0.158477 0.563776,0.327567 0.817305,0.502402 0.964894,-0.94248 1.528842,-1.947614 1.528842,-3.213932 0,-0.205198 -0.03614,-0.391114 -0.05529,-0.586536 z m -7.540843,4.288447 c -2.610993,0.724675 -4.115372,2.375188 -4.115372,3.942297 0,0.206256 0.02702,0.411341 0.07932,0.612978 0.33682,-1.365571 1.767379,-2.694846 4.036044,-3.324509 2.477993,0.632225 4.600384,1.560782 4.971139,3.463932 0.05004,-0.206642 0.07692,-0.420429 0.07692,-0.637017 0,-2.320239 -2.320981,-3.361904 -5.048062,-4.057681 z m 8.689877,4.867775 c -0.347633,2.914482 -3.075409,5.689886 -8.132185,5.689886 -4.477319,0 -7.870544,-2.161416 -8.290841,-5.384599 -0.02068,0.182273 -0.04567,0.363997 -0.04567,0.548075 0,3.597379 3.549722,6.067289 8.336513,6.067289 5.425263,-10e-7 8.17305,-3.193129 8.17305,-6.326904 0,-0.199649 -0.01986,-0.397305 -0.04086,-0.593747 z m -50.776284,1.11298 v 1.230765 h 9.663431 v -1.230765 z m 13.230728,0 v 1.230765 h 3.509604 v -1.230765 z m -3.567297,4.288446 v 1.230766 h 3.567297 v -1.230766 z"
     style="color:#000000;opacity:0.5;isolation:auto;mix-blend-mode:normal;solid-color:#000000;fill:#000000;stroke-width:4.92306137;color-rendering:auto;image-rendering:auto;shape-rendering:auto" />
  <path
     inkscape:connector-curvature="0"
     id="path124"
     d="m 30.105826,18.923496 c -2.72713,0 -4.992059,1.101799 -6.384596,1.826917 l 0.355768,1.055285 c 1.406986,-0.715573 3.503603,-1.651437 6.028828,-1.651437 4.587874,0 6.806003,2.269568 7.031227,5.293252 0.02832,-0.240921 0.04567,-0.482373 0.04567,-0.725958 0,-3.278513 -2.232069,-5.798059 -7.076901,-5.798059 z m 3.449508,6.627383 c -0.432153,2.405482 -3.330001,5.100728 -6.007194,7.911033 -1.508523,1.567109 -2.72464,2.609607 -3.798065,3.624988 v 1.230765 c 1.073425,-1.015381 2.289542,-2.057879 3.798065,-3.624988 2.901112,-3.045356 6.067289,-5.956981 6.067289,-8.509588 0,-0.223802 -0.0221,-0.432763 -0.0601,-0.63221 z m -2.862972,10.632179 c -0.404276,0.410587 -0.794848,0.814391 -1.201919,1.230765 H 37.58657 V 36.183058 Z M 16.0001,39.317662 v 1.230766 c 0,2.337667 1.883375,4.221141 4.221141,4.221141 h 21.096087 c 2.337765,0 4.221141,-1.883475 4.221141,-4.221141 v -1.230766 c 0,2.337667 -1.883376,4.221142 -4.221141,4.221142 H 20.221241 c -2.337766,0 -4.221141,-1.883474 -4.221141,-4.221142 z m 48.961386,14.067265 c -4.496774,0 -7.019209,2.320479 -7.019209,5.134599 0,0.183895 0.03376,0.413414 0.06731,0.639421 0.333772,-2.537389 2.778175,-4.543255 6.951899,-4.543255 4.639014,0 6.889786,1.789931 7.165843,4.605756 0.03322,-0.208222 0.05529,-0.42103 0.05529,-0.64423 10e-7,-3.161885 -2.26016,-5.192291 -7.221129,-5.192291 z m -34.047971,0.259615 -8.413436,13.317266 v 1.230765 l 8.413436,-13.317266 h 4.817292 v -1.230765 z m 30.882115,5.800462 c -0.08379,0.194879 -0.141835,0.393712 -0.141826,0.593748 0,1.653804 2.413537,2.382836 4.096141,2.846145 1.914726,-1.072784 2.778838,-1.74433 2.778838,-2.701914 0,-0.243284 -0.05209,-0.460414 -0.125,-0.665864 -0.291266,0.687533 -1.137698,1.287548 -2.653838,2.137013 -1.446957,-0.398424 -3.426002,-0.998568 -3.954315,-2.209128 z m 8.858146,3.576912 c -0.250877,0.245049 -0.512002,0.488839 -0.817305,0.728363 2.171122,1.176537 3.24735,2.826263 3.439892,4.62739 0.02533,-0.212378 0.04086,-0.42417 0.04086,-0.637018 0,-1.783605 -0.829491,-3.454023 -2.663453,-4.718735 z m -11.192273,0.144231 c -1.608048,1.249673 -2.653838,3.007242 -2.653838,4.834119 0,0.232575 0.01663,0.459904 0.04567,0.682691 0.217318,-1.915289 1.535083,-3.70749 3.415855,-4.846139 -0.311682,-0.212478 -0.570933,-0.438994 -0.807691,-0.670671 z m -31.913363,3.132202 -0.778843,1.230765 h 5.394213 v -1.230765 z m 8.182667,0 v 1.230765 h 3.509604 v -1.230765 z m 24.819635,1.76682 c -0.05082,0.206057 -0.07932,0.412323 -0.07932,0.617788 0,1.682701 1.771149,3.307682 4.817294,3.307682 2.756028,0 4.34614,-1.480254 4.34614,-3.192298 0,-0.211929 -0.03965,-0.402444 -0.07692,-0.593748 -0.345495,1.426777 -1.86185,2.55528 -4.269217,2.55528 -2.672764,0 -4.363529,-1.25133 -4.737966,-2.694704 z M 16.0001,73.779093 v 1.230766 c 0,2.338111 1.883375,4.221141 4.221141,4.221141 h 21.096087 c 2.337765,0 4.221141,-1.88303 4.221141,-4.221141 v -1.230766 c 0,2.338111 -1.883376,4.221142 -4.221141,4.221142 H 20.221241 c -2.337766,0 -4.221141,-1.883031 -4.221141,-4.221142 z m 34.461431,0 v 1.230766 c 0,2.337273 1.883375,4.221141 4.221141,4.221141 h 21.096087 c 2.337765,0 4.221141,-1.883916 4.221141,-4.221141 v -1.230766 c 0,2.337225 -1.883376,4.221142 -4.221141,4.221142 H 54.682672 c -2.337766,0 -4.221141,-1.883869 -4.221141,-4.221142 z"
     style="color:#000000;opacity:0.6;isolation:auto;mix-blend-mode:normal;solid-color:#000000;fill:#ffffff;stroke-width:4.92306137;color-rendering:auto;image-rendering:auto;shape-rendering:auto" />
  <path
     inkscape:connector-curvature="0"
     id="path129"
     d="m 30.105826,17.69273 c -2.72713,0 -4.992059,1.1018 -6.384596,1.826918 l 0.355768,1.055285 c 1.406986,-0.715573 3.503603,-1.651437 6.028828,-1.651437 4.587874,0 6.806003,2.269568 7.031227,5.293252 0.02832,-0.240921 0.04567,-0.482374 0.04567,-0.725958 0,-3.278513 -2.232069,-5.79806 -7.076901,-5.79806 z m 3.449508,6.627384 c -0.432153,2.405482 -3.330001,5.100727 -6.007194,7.911032 -1.508523,1.567109 -2.72464,2.609607 -3.798065,3.624989 V 37.0869 c 1.073425,-1.015381 2.289542,-2.057879 3.798065,-3.624988 2.901112,-3.045357 6.067289,-5.956981 6.067289,-8.509588 0,-0.223803 -0.0221,-0.432763 -0.0601,-0.63221 z m -2.862972,10.632178 c -0.404276,0.410588 -0.794848,0.814392 -1.201919,1.230766 H 37.58657 V 34.952292 Z M 16.0001,38.086897 v 1.230765 c 0,2.337668 1.883375,4.221142 4.221141,4.221142 h 21.096087 c 2.337765,0 4.221141,-1.883475 4.221141,-4.221142 v -1.230765 c 0,2.337666 -1.883376,4.221141 -4.221141,4.221141 H 20.221241 c -2.337766,0 -4.221141,-1.883473 -4.221141,-4.221141 z m 48.961386,14.067264 c -4.496774,0 -7.019209,2.320479 -7.019209,5.1346 0,0.183895 0.03376,0.413414 0.06731,0.639421 0.333772,-2.537389 2.778175,-4.543255 6.951899,-4.543255 4.639014,0 6.889786,1.78993 7.165843,4.605755 0.03322,-0.208222 0.05529,-0.42103 0.05529,-0.644229 10e-7,-3.161886 -2.26016,-5.192292 -7.221129,-5.192292 z m -34.047971,0.259616 -8.413436,13.317265 v 1.230766 l 8.413436,-13.317266 h 4.817292 v -1.230765 z m 30.882115,5.800462 c -0.08379,0.194879 -0.141835,0.393712 -0.141826,0.593748 0,1.653804 2.413537,2.382836 4.096141,2.846145 1.914726,-1.072785 2.778838,-1.744331 2.778838,-2.701914 0,-0.243284 -0.05209,-0.460415 -0.125,-0.665864 -0.291266,0.687533 -1.137698,1.287548 -2.653838,2.137012 -1.446957,-0.398423 -3.426002,-0.998568 -3.954315,-2.209127 z m 8.858146,3.576911 c -0.250877,0.24505 -0.512002,0.48884 -0.817305,0.728364 2.171122,1.176536 3.24735,2.826263 3.439892,4.62739 0.02533,-0.212379 0.04086,-0.42417 0.04086,-0.637019 0,-1.783604 -0.829491,-3.454022 -2.663453,-4.718735 z m -11.192273,0.144231 c -1.608048,1.249674 -2.653838,3.007243 -2.653838,4.83412 0,0.232575 0.01663,0.459903 0.04567,0.68269 0.217318,-1.915288 1.535083,-3.70749 3.415855,-4.846138 -0.311682,-0.212479 -0.570933,-0.438995 -0.807691,-0.670672 z m -31.913363,3.132202 -0.778843,1.230766 h 5.394213 v -1.230766 z m 8.182667,0 v 1.230766 h 3.509604 v -1.230766 z m 24.819635,1.766821 c -0.05082,0.206057 -0.07932,0.412322 -0.07932,0.617787 0,1.682702 1.771149,3.307682 4.817294,3.307682 2.756028,0 4.34614,-1.480254 4.34614,-3.192297 0,-0.21193 -0.03965,-0.402445 -0.07692,-0.593749 -0.345495,1.426777 -1.86185,2.555281 -4.269217,2.555281 -2.672764,0 -4.363529,-1.25133 -4.737966,-2.694704 z M 16.0001,72.548328 v 1.230765 c 0,2.338111 1.883375,4.221142 4.221141,4.221142 h 21.096087 c 2.337765,0 4.221141,-1.883031 4.221141,-4.221142 v -1.230765 c 0,2.338111 -1.883376,4.221141 -4.221141,4.221141 H 20.221241 c -2.337766,0 -4.221141,-1.88303 -4.221141,-4.221141 z m 34.461431,0 v 1.230765 c 0,2.337273 1.883375,4.221142 4.221141,4.221142 h 21.096087 c 2.337765,0 4.221141,-1.883917 4.221141,-4.221142 v -1.230765 c 0,2.337225 -1.883376,4.221141 -4.221141,4.221141 H 54.682672 c -2.337766,0 -4.221141,-1.883868 -4.221141,-4.221141 z"
     style="color:#000000;opacity:0.15;isolation:auto;mix-blend-mode:normal;solid-color:#000000;fill:#ffffff;stroke-width:4.92306137;color-rendering:auto;image-rendering:auto;shape-rendering:auto" />
</svg>
