<?xml version="1.0" encoding="UTF-8" standalone="no"?>
<svg
   xmlns:dc="http://purl.org/dc/elements/1.1/"
   xmlns:cc="http://creativecommons.org/ns#"
   xmlns:rdf="http://www.w3.org/1999/02/22-rdf-syntax-ns#"
   xmlns:svg="http://www.w3.org/2000/svg"
   xmlns="http://www.w3.org/2000/svg"
   xmlns:xlink="http://www.w3.org/1999/xlink"
   xmlns:sodipodi="http://sodipodi.sourceforge.net/DTD/sodipodi-0.dtd"
   xmlns:inkscape="http://www.inkscape.org/namespaces/inkscape"
   width="96"
   height="96"
   version="1.0"
   id="svg125"
   sodipodi:docname="arista.svg"
   inkscape:version="0.92.2 5c3e80d, 2017-08-06">
  <metadata
     id="metadata129">
    <rdf:RDF>
      <cc:Work
         rdf:about="">
        <dc:format>image/svg+xml</dc:format>
        <dc:type
           rdf:resource="http://purl.org/dc/dcmitype/StillImage" />
      </cc:Work>
    </rdf:RDF>
  </metadata>
  <sodipodi:namedview
     pagecolor="#ffffff"
     bordercolor="#666666"
     borderopacity="1"
     objecttolerance="10"
     gridtolerance="10"
     guidetolerance="10"
     inkscape:pageopacity="0"
     inkscape:pageshadow="2"
     inkscape:window-width="640"
     inkscape:window-height="480"
     id="namedview127"
     showgrid="false"
     inkscape:zoom="2.4583333"
     inkscape:cx="48"
     inkscape:cy="48"
     inkscape:window-x="0"
     inkscape:window-y="25"
     inkscape:window-maximized="0"
     inkscape:current-layer="svg125" />
  <defs
     id="defs49">
    <linearGradient
       id="linearGradient4384">
      <stop
         stop-color="#fff"
         offset="0"
         id="stop2" />
      <stop
         stop-color="#fff"
         stop-opacity="0"
         offset="1"
         id="stop4" />
    </linearGradient>
    <linearGradient
       id="ButtonShadow"
       x1="45.448"
       x2="45.448"
       y1="92.54"
       y2="7.0165"
       gradientTransform="scale(1.0059 .99417)"
       gradientUnits="userSpaceOnUse">
      <stop
         offset="0"
         id="stop7" />
      <stop
         stop-opacity=".58824"
         offset="1"
         id="stop9" />
    </linearGradient>
    <filter
       id="filter3174">
      <feGaussianBlur
         stdDeviation="1.71"
         id="feGaussianBlur12" />
    </filter>
    <filter
       id="filter3794"
       x="-.192"
       y="-.192"
       width="1.384"
       height="1.384">
      <feGaussianBlur
         stdDeviation="5.28"
         id="feGaussianBlur15" />
    </filter>
    <linearGradient
       id="linearGradient3613"
       x1="48"
       x2="48"
       y1="20.221"
       y2="138.66"
       gradientUnits="userSpaceOnUse">
      <stop
         stop-color="#fff"
         offset="0"
         id="stop18" />
      <stop
         stop-color="#fff"
         stop-opacity="0"
         offset="1"
         id="stop20" />
    </linearGradient>
    <linearGradient
       id="linearGradient3617"
       x1="48"
       x2="48"
       y1="90"
       y2="5.9877"
       gradientUnits="userSpaceOnUse">
      <stop
         stop-color="#589117"
         offset="0"
         id="stop23" />
      <stop
         stop-color="#83c423"
         offset="1"
         id="stop25" />
    </linearGradient>
    <linearGradient
       id="ButtonShadow-0"
       x1="45.448"
       x2="45.448"
       y1="92.54"
       y2="7.0165"
       gradientTransform="matrix(1.0059 0 0 .99417 100 0)"
       gradientUnits="userSpaceOnUse">
      <stop
         offset="0"
         id="stop28" />
      <stop
         stop-opacity=".58824"
         offset="1"
         id="stop30" />
    </linearGradient>
    <linearGradient
       id="linearGradient3780"
       x1="32.251"
       x2="32.251"
       y1="6.1317"
       y2="90.239"
       gradientTransform="matrix(1.0238 0 0 1.0119 -1.1429 -98.071)"
       gradientUnits="userSpaceOnUse"
       xlink:href="#ButtonShadow-0" />
    <linearGradient
       id="linearGradient3721"
       x1="32.251"
       x2="32.251"
       y1="6.1317"
       y2="90.239"
       gradientTransform="translate(0,-97)"
       gradientUnits="userSpaceOnUse"
       xlink:href="#ButtonShadow-0" />
    <clipPath
       id="clipPath4355">
      <rect
         x="6"
         y="6"
         width="84"
         height="80"
         rx="6"
         ry="6"
         fill="#fff"
         id="rect35" />
    </clipPath>
    <linearGradient
       id="linearGradient4390"
       x1="48"
       x2="48"
       y1="88"
       y2="-40"
       gradientTransform="matrix(1,0,0,-1,0,92)"
       gradientUnits="userSpaceOnUse"
       xlink:href="#linearGradient4384" />
    <linearGradient
       id="linearGradient4429"
       x1="48"
       x2="112.12"
       y1="82"
       y2="82.455"
       gradientUnits="userSpaceOnUse"
       spreadMethod="reflect"
       xlink:href="#linearGradient4384" />
    <linearGradient
       id="linearGradient3870"
       x1="8"
       x2="50"
       y1="1033.4"
       y2="1033.4"
       gradientTransform="translate(-2 -956.36)"
       gradientUnits="userSpaceOnUse"
       spreadMethod="reflect">
      <stop
         stop-color="#523823"
         offset="0"
         id="stop40" />
      <stop
         stop-color="#79563a"
         offset=".1178"
         id="stop42" />
      <stop
         stop-color="#875c38"
         offset=".2381"
         id="stop44" />
      <stop
         stop-color="#a66e40"
         offset="1"
         id="stop46" />
    </linearGradient>
  </defs>
  <g
     display="none"
     id="g53">
    <rect
       x="5"
       y="7"
       width="86"
       height="85"
       rx="6"
       ry="6"
       fill="url(#ButtonShadow)"
       filter="url(#filter3174)"
       opacity=".9"
       id="rect51" />
  </g>
  <g
     id="g67">
    <g
       fill="url(#linearGradient3780)"
       id="g63">
      <path
         transform="scale(1,-1)"
         d="m12-95.031c-5.5111 0-10.031 4.5202-10.031 10.031v71c0 5.5111 4.5202 10.031 10.031 10.031h72c5.5111 0 10.031-4.5202 10.031-10.031v-71c0-5.5111-4.5202-10.031-10.031-10.031h-72z"
         opacity=".08"
         id="path55" />
      <path
         transform="scale(1,-1)"
         d="m12-94.031c-4.9716 0-9.0312 4.0596-9.0312 9.0312v71c0 4.9716 4.0596 9.0312 9.0312 9.0312h72c4.9716 0 9.0312-4.0596 9.0312-9.0312v-71c0-4.9716-4.0596-9.0312-9.0312-9.0312h-72z"
         opacity=".1"
         id="path57" />
      <path
         transform="scale(1,-1)"
         d="m12-93c-4.4091 0-8 3.5909-8 8v71c0 4.4091 3.5909 8 8 8h72c4.4091 0 8-3.5909 8-8v-71c0-4.4091-3.5909-8-8-8h-72z"
         opacity=".2"
         id="path59" />
      <rect
         transform="scale(1,-1)"
         x="5"
         y="-92"
         width="86"
         height="85"
         rx="7"
         ry="7"
         opacity=".3"
         id="rect61" />
    </g>
    <rect
       transform="scale(1,-1)"
       x="6"
       y="-91"
       width="84"
       height="84"
       rx="6"
       ry="6"
       fill="url(#linearGradient3721)"
       opacity=".45"
       id="rect65" />
  </g>
  <g
     id="g79">
    <rect
       x="6"
       y="64"
       width="84"
       height="26"
       rx="6"
       ry="6"
       color="#000000"
       fill="url(#linearGradient3870)"
       id="rect69" />
    <g
       id="g77">
      <path
         d="m6 82v2c0 3.324 2.676 6 6 6h72c3.324 0 6-2.676 6-6v-2c0 3.324-2.676 6-6 6h-72c-3.324 0-6-2.676-6-6z"
         color="#000000"
         opacity=".1"
         id="path71" />
      <path
         d="m6 83v1c0 3.324 2.676 6 6 6h72c3.324 0 6-2.676 6-6v-1c0 3.324-2.676 6-6 6h-72c-3.324 0-6-2.676-6-6z"
         color="#000000"
         opacity=".1"
         id="path73" />
      <path
         d="m6 80v1c0 3.324 2.676 6 6 6h72c3.324 0 6-2.676 6-6v-1c0 3.324-2.676 6-6 6h-72c-3.324 0-6-2.676-6-6z"
         opacity=".2"
         id="path75" />
    </g>
  </g>
  <g
     id="g87">
    <rect
       x="6"
       y="6"
       width="84"
       height="80"
       rx="6"
       ry="6"
       fill="url(#linearGradient3617)"
       id="rect81" />
    <path
       d="m12 86c-3.324 0-6-2.676-6-6v-68c0-3.324 2.676-6 6-6h72c3.324 0 6 2.676 6 6v68c0 3.324-2.676 6-6 6zm0-0.96875h72c2.8049 0 5.0312-2.2264 5.0312-5.0312v-68c0-2.8049-2.2264-5.0312-5.0312-5.0312h-72c-2.8049 0-5.0312 2.2264-5.0312 5.0312v68c0 2.8049 2.2264 5.0312 5.0312 5.0312z"
       fill="url(#linearGradient4390)"
       opacity=".3"
       id="path83" />
    <path
       d="m6 78v2c0 3.324 2.676 6 6 6h72c3.324 0 6-2.676 6-6v-2c0 3.324-2.676 6-6 6h-72c-3.324 0-6-2.676-6-6z"
       fill="url(#linearGradient4429)"
       opacity=".1"
       id="path85" />
  </g>
  <g
     id="g91">
    <rect
       x="15"
       y="15"
       width="66"
       height="62"
       rx="12"
       ry="12"
       clip-path="url(#clipPath4355)"
       fill="url(#linearGradient3613)"
       filter="url(#filter3794)"
       opacity=".1"
       stroke="#fff"
       stroke-linecap="round"
       stroke-width=".5"
       id="rect89" />
  </g>
  <defs
     id="defs101">
    <filter
       id="w">
      <feGaussianBlur
         stdDeviation="0.23199685"
         id="feGaussianBlur93" />
    </filter>
    <linearGradient
       id="a"
       gradientUnits="userSpaceOnUse"
       x1="8"
       y1="0.90064133"
       x2="8"
       y2="15.09960933">
      <stop
         stop-color="#fafafa"
         offset="0"
         id="stop96" />
      <stop
         stop-color="#ebebeb"
         offset="1"
         id="stop98" />
    </linearGradient>
  </defs>
  <g
     transform="translate(0,-2)"
     id="g123">
    <path
       style="opacity:0.15;fill:#000000"
       d="M 7.7832031,0.65234375 C 7.4470865,0.67501744 7.1719479,0.85216584 6.8046875,1.1113281 6.1048522,1.6052157 5.5518104,2.5433421 5.0253906,3.96875 4.4987672,5.3947096 4.0081649,7.3250029 3.5214844,9.8417969 3.2831792,11.074139 3.067302,12.228327 2.9101562,13.097656 c -0.078494,0.434231 -0.1429898,0.798669 -0.1875,1.066406 -0.022173,0.133376 -0.040544,0.241994 -0.052734,0.326172 -0.012004,0.08289 -0.019531,0.138684 -0.019531,0.203125 0,0.251559 0.1741309,0.429854 0.3417969,0.523438 0.1640852,0.09158 0.3548616,0.132812 0.5566406,0.132812 0.1651048,0 0.3601162,-0.03715 0.5195313,-0.173828 0.1551798,-0.133047 0.2394309,-0.31777 0.3007812,-0.53125 0.1231279,-0.428447 0.1827252,-1.066651 0.2617188,-2.169922 0.027669,-0.386426 0.097556,-0.82165 0.1445312,-1.234375 -0.033923,0.448866 -0.00164,0.894081 0.1542969,1.28711 0.1807088,0.455468 0.5188233,0.845881 1.0058594,1.029297 0.6355116,0.239337 1.3304698,0.140377 1.890625,-0.160157 0.5602945,-0.300607 1.0123246,-0.820577 1.0996093,-1.472656 0.035694,-0.266683 0.018916,-0.502984 -0.076172,-0.705078 C 8.7488188,11.004534 8.5421145,10.847399 8.3027344,10.832031 7.8647739,10.803921 7.49823,11.140733 7.2128906,11.632812 7.0856539,11.85222 6.660031,12.097656 6.40625,12.097656 c -0.1457981,0 -0.2473088,-0.01171 -0.2890625,-0.02344 -0.050549,-0.0142 -0.024029,-3.88e-4 -0.033203,-0.01367 0.00297,0.0043 -0.066406,-0.234829 -0.066406,-0.681641 -10e-8,-0.555291 0.1446946,-0.96868 0.4160157,-1.287109 0.2709253,-0.3179645 0.6844521,-0.5523996 1.2753906,-0.6796876 0.3141993,-0.067683 0.4959159,-0.063562 0.7128906,0.017578 0.2142635,0.080126 0.4793395,0.2624723 0.8535156,0.6015625 0.5012832,0.454308 1.0003494,1.181434 1.3652344,1.945312 0.364885,0.763879 0.595297,1.569635 0.599609,2.148438 0.0028,0.381817 0.02264,0.695517 0.236328,0.939453 0.217377,0.248146 0.538901,0.285156 0.88086,0.285156 0.313935,0 0.592042,-0.01187 0.80664,-0.210937 0.120353,-0.111638 0.176419,-0.263221 0.185547,-0.40625 0.0086,-0.135237 -0.01829,-0.259842 -0.05469,-0.386719 -0.0281,-0.09787 -0.179448,-0.75792 -0.371094,-1.638672 C 12.732151,11.826146 12.488702,10.688023 12.242188,9.5039062 11.743919,7.1106755 11.213063,5.1998302 10.646484,3.78125 10.080234,2.3634835 9.4973596,1.4187928 8.7695312,0.99023438 8.4095576,0.77826793 8.1207123,0.62957631 7.7832031,0.65234375 Z M 7.7265625,2.3242188 C 7.8505215,2.3132136 7.959821,2.3432706 8.109375,2.4570312 8.2566726,2.5690754 8.4276273,2.770703 8.5957031,3.0683594 8.8351747,3.4923752 9.3126443,4.8801911 9.6875,6.2304688 c 0.1875644,0.6756315 0.357142,1.3523842 0.478516,1.921875 0.09574,0.449209 0.127638,0.7429084 0.15039,0.9882812 C 9.835362,8.6971107 9.1976941,8.4030994 8.5292969,8.2773438 7.8347901,8.1466757 7.1077374,8.1846626 6.5019531,8.4589844 5.5430401,8.8932293 4.9886927,9.8881479 4.8164062,10.876953 4.9755303,9.5999927 5.1836548,8.2822176 5.4550781,7.0683594 5.8413161,5.3410273 6.3253634,3.8492698 6.6640625,3.3066406 7.0895397,2.6249545 7.4883148,2.3453705 7.7265625,2.3242188 Z"
       id="path103"
       inkscape:original="M 7.8007812 0.90234375 C 7.5470027 0.91946309 7.3102109 1.0616672 6.9492188 1.3164062 C 6.3230883 1.7582788 5.778398 2.6503658 5.2597656 4.0546875 C 4.7411333 5.4590092 4.2528368 7.3792308 3.7675781 9.8886719 C 3.5294452 11.120123 3.3131443 12.27464 3.15625 13.142578 C 3.077803 13.576547 3.0128022 13.940095 2.96875 14.205078 C 2.946724 14.33757 2.9297107 14.444311 2.9179688 14.525391 C 2.9062268 14.606471 2.9003906 14.653046 2.9003906 14.693359 C 2.9003906 14.826591 2.9949796 14.932016 3.1132812 14.998047 C 3.2315834 15.064077 3.3826953 15.099609 3.5488281 15.099609 C 3.6795285 15.099609 3.8055937 15.072629 3.90625 14.986328 C 4.0069063 14.900028 4.0739937 14.76725 4.1289062 14.576172 C 4.238731 14.194015 4.3020569 13.557633 4.3808594 12.457031 C 4.5024715 10.758595 4.8220318 8.7529346 5.2109375 7.0136719 C 5.5998432 5.2744092 6.0652436 3.7921232 6.4511719 3.1738281 C 6.8957219 2.4615842 7.3293647 2.1095279 7.7050781 2.0761719 C 7.8929348 2.0594939 8.0737489 2.116316 8.2597656 2.2578125 C 8.4457824 2.399309 8.6330067 2.6274362 8.8125 2.9453125 C 9.0912921 3.4389505 9.5504448 4.8050175 9.9277344 6.1640625 C 10.116379 6.843585 10.287279 7.5230641 10.410156 8.0996094 C 10.533034 8.6761546 10.607422 9.1540438 10.607422 9.4042969 C 10.607422 9.5432124 10.604623 9.6478722 10.595703 9.7050781 C 10.595276 9.7078281 10.59425 9.7064644 10.59375 9.7089844 C 10.58465 9.7023944 10.573521 9.701084 10.519531 9.65625 C 10.445611 9.594866 10.342778 9.4955858 10.207031 9.3632812 C 9.7663652 8.9337365 9.1361483 8.6464329 8.4824219 8.5234375 C 7.8286954 8.4004421 7.1494448 8.4411673 6.6054688 8.6875 C 5.7004478 9.0973399 5.1554746 10.096529 5.0273438 11.066406 C 4.9632787 11.551345 5.0020118 12.03203 5.1621094 12.435547 C 5.3222064 12.839064 5.608545 13.166019 6.0234375 13.322266 C 6.580383 13.532015 7.2030441 13.446179 7.7070312 13.175781 C 8.2110184 12.905383 8.6033914 12.44602 8.6777344 11.890625 C 8.7092974 11.654803 8.6897299 11.465943 8.6230469 11.324219 C 8.5563639 11.182494 8.4302115 11.091218 8.2871094 11.082031 C 8.0009051 11.063661 7.6916634 11.306024 7.4296875 11.757812 C 7.2426582 12.080326 6.7794253 12.347656 6.40625 12.347656 C 6.2499957 12.347656 6.1321534 12.337853 6.0488281 12.314453 C 5.9655021 12.291043 5.9176566 12.259236 5.8789062 12.203125 C 5.8014057 12.090904 5.7675781 11.837998 5.7675781 11.378906 C 5.767578 10.778311 5.9308337 10.297392 6.2441406 9.9296875 C 6.5574475 9.5619832 7.0264163 9.3036349 7.65625 9.1679688 C 7.9958212 9.0948208 8.245301 9.0964125 8.5097656 9.1953125 C 8.7742302 9.2942115 9.0594864 9.4978252 9.4433594 9.8457031 C 10.518459 10.820055 11.48069 12.842203 11.490234 14.123047 C 11.492934 14.492972 11.521114 14.737207 11.664062 14.900391 C 11.807011 15.063574 12.034035 15.099609 12.357422 15.099609 C 12.658729 15.099609 12.862947 15.076779 12.994141 14.955078 C 13.059741 14.894228 13.093791 14.807957 13.099609 14.716797 C 13.105409 14.625637 13.087368 14.527973 13.054688 14.414062 C 13.014767 14.275021 12.87154 13.641465 12.679688 12.759766 C 12.487834 11.878066 12.244729 10.739609 11.998047 9.5546875 C 11.501609 7.1702476 10.971886 5.2697071 10.414062 3.8730469 C 9.856241 2.4763867 9.2768001 1.5785194 8.6425781 1.2050781 C 8.2906364 0.99784117 8.054388 0.88523613 7.8007812 0.90234375 z"
       transform="matrix(4,0,0,4,16,17)"
       inkscape:radius="0.25"
       sodipodi:type="inkscape:offset" />
    <g
       id="Bevel1">
      <path
         fill="#000"
         opacity=".10"
         sodipodi:type="inkscape:offset"
         inkscape:radius="0.5"
         transform="translate(16,17) scale(4)"
         inkscape:original="M 7.8007812 0.90234375 C 7.5470027 0.91946309 7.3102109 1.0616672 6.9492188 1.3164062 C 6.3230883 1.7582788 5.778398 2.6503658 5.2597656 4.0546875 C 4.7411333 5.4590092 4.2528368 7.3792308 3.7675781 9.8886719 C 3.5294452 11.120123 3.3131443 12.27464 3.15625 13.142578 C 3.077803 13.576547 3.0128022 13.940095 2.96875 14.205078 C 2.946724 14.33757 2.9297107 14.444311 2.9179688 14.525391 C 2.9062268 14.606471 2.9003906 14.653046 2.9003906 14.693359 C 2.9003906 14.826591 2.9949796 14.932016 3.1132812 14.998047 C 3.2315834 15.064077 3.3826953 15.099609 3.5488281 15.099609 C 3.6795285 15.099609 3.8055937 15.072629 3.90625 14.986328 C 4.0069063 14.900028 4.0739937 14.76725 4.1289062 14.576172 C 4.238731 14.194015 4.3020569 13.557633 4.3808594 12.457031 C 4.5024715 10.758595 4.8220318 8.7529346 5.2109375 7.0136719 C 5.5998432 5.2744092 6.0652436 3.7921232 6.4511719 3.1738281 C 6.8957219 2.4615842 7.3293647 2.1095279 7.7050781 2.0761719 C 7.8929348 2.0594939 8.0737489 2.116316 8.2597656 2.2578125 C 8.4457824 2.399309 8.6330067 2.6274362 8.8125 2.9453125 C 9.0912921 3.4389505 9.5504448 4.8050175 9.9277344 6.1640625 C 10.116379 6.843585 10.287279 7.5230641 10.410156 8.0996094 C 10.533034 8.6761546 10.607422 9.1540438 10.607422 9.4042969 C 10.607422 9.5432124 10.604623 9.6478722 10.595703 9.7050781 C 10.595276 9.7078281 10.59425 9.7064644 10.59375 9.7089844 C 10.58465 9.7023944 10.573521 9.701084 10.519531 9.65625 C 10.445611 9.594866 10.342778 9.4955858 10.207031 9.3632812 C 9.7663652 8.9337365 9.1361483 8.6464329 8.4824219 8.5234375 C 7.8286954 8.4004421 7.1494448 8.4411673 6.6054688 8.6875 C 5.7004478 9.0973399 5.1554746 10.096529 5.0273438 11.066406 C 4.9632787 11.551345 5.0020118 12.03203 5.1621094 12.435547 C 5.3222064 12.839064 5.608545 13.166019 6.0234375 13.322266 C 6.580383 13.532015 7.2030441 13.446179 7.7070312 13.175781 C 8.2110184 12.905383 8.6033914 12.44602 8.6777344 11.890625 C 8.7092974 11.654803 8.6897299 11.465943 8.6230469 11.324219 C 8.5563639 11.182494 8.4302115 11.091218 8.2871094 11.082031 C 8.0009051 11.063661 7.6916634 11.306024 7.4296875 11.757812 C 7.2426582 12.080326 6.7794253 12.347656 6.40625 12.347656 C 6.2499957 12.347656 6.1321534 12.337853 6.0488281 12.314453 C 5.9655021 12.291043 5.9176566 12.259236 5.8789062 12.203125 C 5.8014057 12.090904 5.7675781 11.837998 5.7675781 11.378906 C 5.767578 10.778311 5.9308337 10.297392 6.2441406 9.9296875 C 6.5574475 9.5619832 7.0264163 9.3036349 7.65625 9.1679688 C 7.9958212 9.0948208 8.245301 9.0964125 8.5097656 9.1953125 C 8.7742302 9.2942115 9.0594864 9.4978252 9.4433594 9.8457031 C 10.518459 10.820055 11.48069 12.842203 11.490234 14.123047 C 11.492934 14.492972 11.521114 14.737207 11.664062 14.900391 C 11.807011 15.063574 12.034035 15.099609 12.357422 15.099609 C 12.658729 15.099609 12.862947 15.076779 12.994141 14.955078 C 13.059741 14.894228 13.093791 14.807957 13.099609 14.716797 C 13.105409 14.625637 13.087368 14.527973 13.054688 14.414062 C 13.014767 14.275021 12.87154 13.641465 12.679688 12.759766 C 12.487834 11.878066 12.244729 10.739609 11.998047 9.5546875 C 11.501609 7.1702476 10.971886 5.2697071 10.414062 3.8730469 C 9.856241 2.4763867 9.2768001 1.5785194 8.6425781 1.2050781 C 8.2906364 0.99784117 8.054388 0.88523613 7.8007812 0.90234375 z"
         id="path106" />
    </g>
    <g
       id="Bevel2">
      <path
         fill="#000"
         opacity=".05"
         sodipodi:type="inkscape:offset"
         inkscape:radius="0.75"
         transform="translate(16,17) scale(4)"
         inkscape:original="M 7.8007812 0.90234375 C 7.5470027 0.91946309 7.3102109 1.0616672 6.9492188 1.3164062 C 6.3230883 1.7582788 5.778398 2.6503658 5.2597656 4.0546875 C 4.7411333 5.4590092 4.2528368 7.3792308 3.7675781 9.8886719 C 3.5294452 11.120123 3.3131443 12.27464 3.15625 13.142578 C 3.077803 13.576547 3.0128022 13.940095 2.96875 14.205078 C 2.946724 14.33757 2.9297107 14.444311 2.9179688 14.525391 C 2.9062268 14.606471 2.9003906 14.653046 2.9003906 14.693359 C 2.9003906 14.826591 2.9949796 14.932016 3.1132812 14.998047 C 3.2315834 15.064077 3.3826953 15.099609 3.5488281 15.099609 C 3.6795285 15.099609 3.8055937 15.072629 3.90625 14.986328 C 4.0069063 14.900028 4.0739937 14.76725 4.1289062 14.576172 C 4.238731 14.194015 4.3020569 13.557633 4.3808594 12.457031 C 4.5024715 10.758595 4.8220318 8.7529346 5.2109375 7.0136719 C 5.5998432 5.2744092 6.0652436 3.7921232 6.4511719 3.1738281 C 6.8957219 2.4615842 7.3293647 2.1095279 7.7050781 2.0761719 C 7.8929348 2.0594939 8.0737489 2.116316 8.2597656 2.2578125 C 8.4457824 2.399309 8.6330067 2.6274362 8.8125 2.9453125 C 9.0912921 3.4389505 9.5504448 4.8050175 9.9277344 6.1640625 C 10.116379 6.843585 10.287279 7.5230641 10.410156 8.0996094 C 10.533034 8.6761546 10.607422 9.1540438 10.607422 9.4042969 C 10.607422 9.5432124 10.604623 9.6478722 10.595703 9.7050781 C 10.595276 9.7078281 10.59425 9.7064644 10.59375 9.7089844 C 10.58465 9.7023944 10.573521 9.701084 10.519531 9.65625 C 10.445611 9.594866 10.342778 9.4955858 10.207031 9.3632812 C 9.7663652 8.9337365 9.1361483 8.6464329 8.4824219 8.5234375 C 7.8286954 8.4004421 7.1494448 8.4411673 6.6054688 8.6875 C 5.7004478 9.0973399 5.1554746 10.096529 5.0273438 11.066406 C 4.9632787 11.551345 5.0020118 12.03203 5.1621094 12.435547 C 5.3222064 12.839064 5.608545 13.166019 6.0234375 13.322266 C 6.580383 13.532015 7.2030441 13.446179 7.7070312 13.175781 C 8.2110184 12.905383 8.6033914 12.44602 8.6777344 11.890625 C 8.7092974 11.654803 8.6897299 11.465943 8.6230469 11.324219 C 8.5563639 11.182494 8.4302115 11.091218 8.2871094 11.082031 C 8.0009051 11.063661 7.6916634 11.306024 7.4296875 11.757812 C 7.2426582 12.080326 6.7794253 12.347656 6.40625 12.347656 C 6.2499957 12.347656 6.1321534 12.337853 6.0488281 12.314453 C 5.9655021 12.291043 5.9176566 12.259236 5.8789062 12.203125 C 5.8014057 12.090904 5.7675781 11.837998 5.7675781 11.378906 C 5.767578 10.778311 5.9308337 10.297392 6.2441406 9.9296875 C 6.5574475 9.5619832 7.0264163 9.3036349 7.65625 9.1679688 C 7.9958212 9.0948208 8.245301 9.0964125 8.5097656 9.1953125 C 8.7742302 9.2942115 9.0594864 9.4978252 9.4433594 9.8457031 C 10.518459 10.820055 11.48069 12.842203 11.490234 14.123047 C 11.492934 14.492972 11.521114 14.737207 11.664062 14.900391 C 11.807011 15.063574 12.034035 15.099609 12.357422 15.099609 C 12.658729 15.099609 12.862947 15.076779 12.994141 14.955078 C 13.059741 14.894228 13.093791 14.807957 13.099609 14.716797 C 13.105409 14.625637 13.087368 14.527973 13.054688 14.414062 C 13.014767 14.275021 12.87154 13.641465 12.679688 12.759766 C 12.487834 11.878066 12.244729 10.739609 11.998047 9.5546875 C 11.501609 7.1702476 10.971886 5.2697071 10.414062 3.8730469 C 9.856241 2.4763867 9.2768001 1.5785194 8.6425781 1.2050781 C 8.2906364 0.99784117 8.054388 0.88523613 7.8007812 0.90234375 z"
         id="path109" />
    </g>
    <path
       d="M 7.8007812 0.90234375 C 7.5470027 0.91946309 7.3102109 1.0616672 6.9492188 1.3164062 C 6.3230883 1.7582788 5.778398 2.6503658 5.2597656 4.0546875 C 4.7411333 5.4590092 4.2528368 7.3792308 3.7675781 9.8886719 C 3.5294452 11.120123 3.3131443 12.27464 3.15625 13.142578 C 3.077803 13.576547 3.0128022 13.940095 2.96875 14.205078 C 2.946724 14.33757 2.9297107 14.444311 2.9179688 14.525391 C 2.9062268 14.606471 2.9003906 14.653046 2.9003906 14.693359 C 2.9003906 14.826591 2.9949796 14.932016 3.1132812 14.998047 C 3.2315834 15.064077 3.3826953 15.099609 3.5488281 15.099609 C 3.6795285 15.099609 3.8055937 15.072629 3.90625 14.986328 C 4.0069063 14.900028 4.0739937 14.76725 4.1289062 14.576172 C 4.238731 14.194015 4.3020569 13.557633 4.3808594 12.457031 C 4.5024715 10.758595 4.8220318 8.7529346 5.2109375 7.0136719 C 5.5998432 5.2744092 6.0652436 3.7921232 6.4511719 3.1738281 C 6.8957219 2.4615842 7.3293647 2.1095279 7.7050781 2.0761719 C 7.8929348 2.0594939 8.0737489 2.116316 8.2597656 2.2578125 C 8.4457824 2.399309 8.6330067 2.6274362 8.8125 2.9453125 C 9.0912921 3.4389505 9.5504448 4.8050175 9.9277344 6.1640625 C 10.116379 6.843585 10.287279 7.5230641 10.410156 8.0996094 C 10.533034 8.6761546 10.607422 9.1540438 10.607422 9.4042969 C 10.607422 9.5432124 10.604623 9.6478722 10.595703 9.7050781 C 10.595276 9.7078281 10.59425 9.7064644 10.59375 9.7089844 C 10.58465 9.7023944 10.573521 9.701084 10.519531 9.65625 C 10.445611 9.594866 10.342778 9.4955858 10.207031 9.3632812 C 9.7663652 8.9337365 9.1361483 8.6464329 8.4824219 8.5234375 C 7.8286954 8.4004421 7.1494448 8.4411673 6.6054688 8.6875 C 5.7004478 9.0973399 5.1554746 10.096529 5.0273438 11.066406 C 4.9632787 11.551345 5.0020118 12.03203 5.1621094 12.435547 C 5.3222064 12.839064 5.608545 13.166019 6.0234375 13.322266 C 6.580383 13.532015 7.2030441 13.446179 7.7070312 13.175781 C 8.2110184 12.905383 8.6033914 12.44602 8.6777344 11.890625 C 8.7092974 11.654803 8.6897299 11.465943 8.6230469 11.324219 C 8.5563639 11.182494 8.4302115 11.091218 8.2871094 11.082031 C 8.0009051 11.063661 7.6916634 11.306024 7.4296875 11.757812 C 7.2426582 12.080326 6.7794253 12.347656 6.40625 12.347656 C 6.2499957 12.347656 6.1321534 12.337853 6.0488281 12.314453 C 5.9655021 12.291043 5.9176566 12.259236 5.8789062 12.203125 C 5.8014057 12.090904 5.7675781 11.837998 5.7675781 11.378906 C 5.767578 10.778311 5.9308337 10.297392 6.2441406 9.9296875 C 6.5574475 9.5619832 7.0264163 9.3036349 7.65625 9.1679688 C 7.9958212 9.0948208 8.245301 9.0964125 8.5097656 9.1953125 C 8.7742302 9.2942115 9.0594864 9.4978252 9.4433594 9.8457031 C 10.518459 10.820055 11.48069 12.842203 11.490234 14.123047 C 11.492934 14.492972 11.521114 14.737207 11.664062 14.900391 C 11.807011 15.063574 12.034035 15.099609 12.357422 15.099609 C 12.658729 15.099609 12.862947 15.076779 12.994141 14.955078 C 13.059741 14.894228 13.093791 14.807957 13.099609 14.716797 C 13.105409 14.625637 13.087368 14.527973 13.054688 14.414062 C 13.014767 14.275021 12.87154 13.641465 12.679688 12.759766 C 12.487834 11.878066 12.244729 10.739609 11.998047 9.5546875 C 11.501609 7.1702476 10.971886 5.2697071 10.414062 3.8730469 C 9.856241 2.4763867 9.2768001 1.5785194 8.6425781 1.2050781 C 8.2906364 0.99784117 8.054388 0.88523613 7.8007812 0.90234375 z"
       fill="url(#a)"
       id="base"
       transform="translate(16,16) scale(4)" />
    <path
       style="opacity:0.3;fill:#000000;stroke-width:4"
       d="M 46.820312 22.304688 C 45.31746 22.438111 43.582887 23.846338 41.804688 26.695312 C 40.260974 29.168493 38.399373 35.097637 36.84375 42.054688 C 35.288127 49.011737 34.009886 57.034381 33.523438 63.828125 C 33.208227 68.230533 32.954923 70.77606 32.515625 72.304688 C 32.295975 73.069 32.027625 73.600112 31.625 73.945312 C 31.222374 74.290517 30.718114 74.398438 30.195312 74.398438 C 29.530782 74.398438 28.926334 74.256308 28.453125 73.992188 C 28.096446 73.793104 27.795464 73.504771 27.667969 73.146484 C 27.627076 73.432437 27.601563 73.622947 27.601562 73.773438 C 27.601562 74.306365 27.979919 74.728064 28.453125 74.992188 C 28.926334 75.256308 29.530782 75.398438 30.195312 75.398438 C 30.718114 75.398438 31.222374 75.290517 31.625 74.945312 C 32.027625 74.600112 32.295975 74.069 32.515625 73.304688 C 32.954923 71.77606 33.208227 69.230533 33.523438 64.828125 C 34.009886 58.034381 35.288127 50.011738 36.84375 43.054688 C 38.399373 36.097637 40.260974 30.168493 41.804688 27.695312 C 43.582887 24.846338 45.31746 23.438111 46.820312 23.304688 C 47.571739 23.237977 48.294997 23.465264 49.039062 24.03125 C 49.78313 24.597236 50.532027 25.509745 51.25 26.78125 C 52.365168 28.755802 54.201779 34.22007 55.710938 39.65625 C 56.465516 42.37434 57.149117 45.092256 57.640625 47.398438 C 58.079101 49.455773 58.350041 51.159716 58.40625 52.222656 C 58.413615 52.019155 58.429688 51.89682 58.429688 51.617188 C 58.429687 50.616174 58.132137 48.704617 57.640625 46.398438 C 57.149117 44.092256 56.465516 41.37434 55.710938 38.65625 C 54.201779 33.22007 52.365168 27.755802 51.25 25.78125 C 50.532027 24.509745 49.78313 23.597236 49.039062 23.03125 C 48.294997 22.465264 47.571739 22.237977 46.820312 22.304688 z M 48.445312 50.46875 C 47.893815 50.454282 47.304142 50.525579 46.625 50.671875 C 44.105665 51.21454 42.229791 52.247933 40.976562 53.71875 C 39.723335 55.189568 39.070312 57.113245 39.070312 59.515625 C 39.070312 59.752486 39.079398 59.938456 39.083984 60.148438 C 39.148494 57.918845 39.788786 56.112754 40.976562 54.71875 C 42.229791 53.247933 44.105665 52.21454 46.625 51.671875 C 47.983285 51.379283 48.981204 51.38565 50.039062 51.78125 C 51.096922 52.176846 52.237945 52.991301 53.773438 54.382812 C 58.073836 58.28022 61.922762 66.368811 61.960938 71.492188 C 61.971738 72.971887 62.084458 73.948826 62.65625 74.601562 C 63.228046 75.254295 64.136139 75.398437 65.429688 75.398438 C 66.634916 75.398438 67.451786 75.307117 67.976562 74.820312 C 68.238962 74.576913 68.375166 74.231828 68.398438 73.867188 C 68.412695 73.643104 68.383212 73.401216 68.333984 73.148438 C 68.271817 73.402757 68.16825 73.642504 67.976562 73.820312 C 67.451786 74.307117 66.634916 74.398438 65.429688 74.398438 C 64.136139 74.398437 63.228046 74.254295 62.65625 73.601562 C 62.084458 72.948826 61.971738 71.971887 61.960938 70.492188 C 61.922762 65.368811 58.073836 57.28022 53.773438 53.382812 C 52.237945 51.991301 51.096922 51.176846 50.039062 50.78125 C 49.510133 50.58345 48.99681 50.483218 48.445312 50.46875 z M 36.019531 60.416016 C 35.94749 61.955665 36.135302 63.448859 36.648438 64.742188 C 37.288826 66.356256 38.43418 67.664074 40.09375 68.289062 C 42.321532 69.128058 44.812176 68.784717 46.828125 67.703125 C 48.844074 66.621533 50.413565 64.78408 50.710938 62.5625 C 50.777316 62.066557 50.782638 61.626366 50.738281 61.234375 C 50.728935 61.343934 50.726351 61.44734 50.710938 61.5625 C 50.413565 63.78408 48.844074 65.621533 46.828125 66.703125 C 44.812176 67.784717 42.321532 68.128058 40.09375 67.289062 C 38.43418 66.664074 37.288826 65.356256 36.648438 63.742188 C 36.247751 62.732282 36.058307 61.596163 36.019531 60.416016 z "
       transform="translate(0,2)"
       id="path113" />
    <path
       style="fill:#ffffff;stroke-width:4"
       d="M 47.203125 17.609375 C 46.188011 17.677855 45.240844 18.246669 43.796875 19.265625 C 41.292353 21.033115 39.113592 24.601463 37.039062 30.21875 C 34.964534 35.836037 33.011347 43.516922 31.070312 53.554688 C 30.117781 58.480491 29.252577 63.09856 28.625 66.570312 C 28.311212 68.306189 28.051209 69.76038 27.875 70.820312 C 27.7869 71.35028 27.718843 71.777242 27.671875 72.101562 C 27.624905 72.425883 27.601563 72.612186 27.601562 72.773438 C 27.601562 72.904671 27.626316 73.029433 27.667969 73.146484 C 27.670893 73.126036 27.66874 73.123207 27.671875 73.101562 C 27.718843 72.777242 27.7869 72.35028 27.875 71.820312 C 28.051209 70.76038 28.311212 69.306189 28.625 67.570312 C 29.252577 64.09856 30.117781 59.480491 31.070312 54.554688 C 33.011347 44.516922 34.964534 36.836037 37.039062 31.21875 C 39.113592 25.601463 41.292353 22.033115 43.796875 20.265625 C 45.240844 19.246669 46.188011 18.677855 47.203125 18.609375 C 48.217552 18.540945 49.162546 18.991365 50.570312 19.820312 C 53.1072 21.314078 55.424966 24.905546 57.65625 30.492188 C 59.887546 36.078828 62.006431 43.680989 63.992188 53.21875 C 64.978915 57.958436 65.951332 62.512263 66.71875 66.039062 C 67.486158 69.565859 68.05907 72.100086 68.21875 72.65625 C 68.269138 72.831885 68.303106 72.989882 68.333984 73.148438 C 68.356917 73.054621 68.392166 72.965451 68.398438 72.867188 C 68.421638 72.502548 68.34947 72.111894 68.21875 71.65625 C 68.05907 71.100086 67.486158 68.565859 66.71875 65.039062 C 65.951332 61.512263 64.978915 56.958436 63.992188 52.21875 C 62.006431 42.680989 59.887546 35.078828 57.65625 29.492188 C 55.424966 23.905546 53.1072 20.314078 50.570312 18.820312 C 49.162546 17.991365 48.217552 17.540945 47.203125 17.609375 z M 46.978516 47.826172 C 45.352872 47.840385 43.781815 48.134168 42.421875 48.75 C 38.801791 50.38936 36.621898 54.386117 36.109375 58.265625 C 36.013454 58.991695 35.996334 59.710009 36.019531 60.416016 C 36.037397 60.034189 36.058452 59.651084 36.109375 59.265625 C 36.621898 55.386117 38.801791 51.38936 42.421875 49.75 C 44.597779 48.764669 47.314782 48.601768 49.929688 49.09375 C 52.544593 49.585732 55.065462 50.734946 56.828125 52.453125 C 57.371113 52.982343 57.782641 53.379448 58.078125 53.625 C 58.294085 53.804336 58.3386 53.809578 58.375 53.835938 C 58.377 53.825897 58.381113 53.831313 58.382812 53.820312 C 58.418492 53.591489 58.429688 53.172849 58.429688 52.617188 C 58.429688 52.509175 58.413049 52.351224 58.40625 52.222656 C 58.39898 52.423536 58.400537 52.706643 58.382812 52.820312 C 58.381113 52.831313 58.377 52.825897 58.375 52.835938 C 58.3386 52.809578 58.294085 52.804336 58.078125 52.625 C 57.782641 52.379448 57.371113 51.982343 56.828125 51.453125 C 55.065462 49.734946 52.544593 48.585732 49.929688 48.09375 C 48.949098 47.909257 47.953902 47.817644 46.978516 47.826172 z M 49.148438 58.328125 C 48.003619 58.254645 46.766654 59.224098 45.71875 61.03125 C 44.970633 62.321306 43.117701 63.390625 41.625 63.390625 C 40.999983 63.390625 40.528615 63.351412 40.195312 63.257812 C 39.862006 63.164163 39.670626 63.036944 39.515625 62.8125 C 39.245608 62.421515 39.114958 61.566427 39.083984 60.148438 C 39.08043 60.271295 39.070312 60.39016 39.070312 60.515625 C 39.070312 62.351993 39.205623 63.363616 39.515625 63.8125 C 39.670626 64.036944 39.862006 64.164163 40.195312 64.257812 C 40.528615 64.351413 40.999983 64.390625 41.625 64.390625 C 43.117701 64.390625 44.970633 63.321306 45.71875 62.03125 C 46.766654 60.224098 48.003619 59.254645 49.148438 59.328125 C 49.720845 59.364873 50.225456 59.729975 50.492188 60.296875 C 50.618681 60.56572 50.698271 60.880796 50.738281 61.234375 C 50.805489 60.446522 50.726353 59.794563 50.492188 59.296875 C 50.225456 58.729975 49.720845 58.364873 49.148438 58.328125 z "
       transform="translate(0,2)"
       id="path118" />
  </g>
</svg>
