<?xml version="1.0" encoding="UTF-8" standalone="no"?>
<!-- Created with Inkscape (http://www.inkscape.org/) -->

<svg
   xmlns:dc="http://purl.org/dc/elements/1.1/"
   xmlns:cc="http://creativecommons.org/ns#"
   xmlns:rdf="http://www.w3.org/1999/02/22-rdf-syntax-ns#"
   xmlns:svg="http://www.w3.org/2000/svg"
   xmlns="http://www.w3.org/2000/svg"
   xmlns:xlink="http://www.w3.org/1999/xlink"
   xmlns:sodipodi="http://sodipodi.sourceforge.net/DTD/sodipodi-0.dtd"
   xmlns:inkscape="http://www.inkscape.org/namespaces/inkscape"
   width="96"
   height="96"
   id="svg2408"
   sodipodi:version="0.32"
   inkscape:version="0.48.2 r9819"
   version="1.0"
   sodipodi:docname="blender.svg"
   inkscape:output_extension="org.inkscape.output.svg.inkscape">
  <defs
     id="defs2410">
    <linearGradient
       id="linearGradient4100">
      <stop
         style="stop-color:#000000;stop-opacity:0.07874016;"
         offset="0"
         id="stop4102" />
      <stop
         id="stop4114"
         offset="0.04629445"
         style="stop-color:#000000;stop-opacity:0.2992126;" />
      <stop
         id="stop4110"
         offset="0.30670184"
         style="stop-color:#000000;stop-opacity:0.55905509;" />
      <stop
         id="stop4108"
         offset="0.30873707"
         style="stop-color:#000000;stop-opacity:0.11811024;" />
      <stop
         style="stop-color:#000000;stop-opacity:0.32283464;"
         offset="0.65267593"
         id="stop4112" />
      <stop
         style="stop-color:#000000;stop-opacity:0.57480317;"
         offset="1"
         id="stop4104" />
    </linearGradient>
    <linearGradient
       id="linearGradient4077">
      <stop
         style="stop-color:#000000;stop-opacity:0.11023622;"
         offset="0"
         id="stop4079" />
      <stop
         id="stop4085"
         offset="0.17512569"
         style="stop-color:#000000;stop-opacity:0.40157479;" />
      <stop
         style="stop-color:#000000;stop-opacity:0.52755904;"
         offset="1"
         id="stop4081" />
    </linearGradient>
    <linearGradient
       id="linearGradient4384">
      <stop
         style="stop-color:#ffffff;stop-opacity:1;"
         offset="0"
         id="stop4386" />
      <stop
         style="stop-color:#ffffff;stop-opacity:0;"
         offset="1"
         id="stop4388" />
    </linearGradient>
    <linearGradient
       id="linearGradient4367">
      <stop
         style="stop-color:#ffffff;stop-opacity:0.71755725;"
         offset="0"
         id="stop4369" />
      <stop
         style="stop-color:#ffffff;stop-opacity:1;"
         offset="1"
         id="stop4371" />
    </linearGradient>
    <inkscape:perspective
       sodipodi:type="inkscape:persp3d"
       inkscape:vp_x="0 : 48 : 1"
       inkscape:vp_y="0 : 1000 : 0"
       inkscape:vp_z="96 : 48 : 1"
       inkscape:persp3d-origin="48 : 32 : 1"
       id="perspective48" />
    <linearGradient
       id="ButtonShadow"
       gradientTransform="scale(1.0058652,0.994169)"
       x1="45.447727"
       y1="92.539597"
       x2="45.447727"
       y2="7.0165396"
       gradientUnits="userSpaceOnUse">
      <stop
         style="stop-color:#000000;stop-opacity:1;"
         offset="0"
         id="stop3750" />
      <stop
         style="stop-color:#000000;stop-opacity:0.58823532;"
         offset="1"
         id="stop3752" />
    </linearGradient>
    <linearGradient
       inkscape:collect="always"
       id="linearGradient3737">
      <stop
         style="stop-color:#ffffff;stop-opacity:1;"
         offset="0"
         id="stop3739" />
      <stop
         style="stop-color:#ffffff;stop-opacity:0;"
         offset="1"
         id="stop3741" />
    </linearGradient>
    <linearGradient
       id="linearGradient3700">
      <stop
         style="stop-color:#2276c5;stop-opacity:1;"
         offset="0"
         id="stop3702" />
      <stop
         style="stop-color:#68baf4;stop-opacity:1;"
         offset="1"
         id="stop3704" />
    </linearGradient>
    <filter
       inkscape:collect="always"
       id="filter3174">
      <feGaussianBlur
         inkscape:collect="always"
         stdDeviation="1.71"
         id="feGaussianBlur3176" />
    </filter>
    <linearGradient
       inkscape:collect="always"
       xlink:href="#linearGradient3737"
       id="linearGradient3188"
       gradientUnits="userSpaceOnUse"
       x1="36.357143"
       y1="6"
       x2="36.357143"
       y2="63.893143" />
    <filter
       inkscape:collect="always"
       id="filter3794"
       x="-0.192"
       width="1.384"
       y="-0.192"
       height="1.384">
      <feGaussianBlur
         inkscape:collect="always"
         stdDeviation="5.28"
         id="feGaussianBlur3796" />
    </filter>
    <linearGradient
       inkscape:collect="always"
       xlink:href="#linearGradient3737"
       id="linearGradient3613"
       x1="48"
       y1="20.220806"
       x2="48"
       y2="138.66119"
       gradientUnits="userSpaceOnUse" />
    <linearGradient
       id="ButtonShadow-0"
       gradientTransform="matrix(1.0058652,0,0,0.994169,100,0)"
       x1="45.447727"
       y1="92.539597"
       x2="45.447727"
       y2="7.0165396"
       gradientUnits="userSpaceOnUse">
      <stop
         style="stop-color:#000000;stop-opacity:1;"
         offset="0"
         id="stop3750-8" />
      <stop
         style="stop-color:#000000;stop-opacity:0.58823532;"
         offset="1"
         id="stop3752-5" />
    </linearGradient>
    <linearGradient
       inkscape:collect="always"
       xlink:href="#ButtonShadow-0"
       id="linearGradient3780"
       gradientUnits="userSpaceOnUse"
       gradientTransform="matrix(1.0238095,0,0,1.0119048,-1.1428571,-98.071429)"
       x1="32.251034"
       y1="6.1317081"
       x2="32.251034"
       y2="90.238609" />
    <linearGradient
       inkscape:collect="always"
       xlink:href="#ButtonShadow-0"
       id="linearGradient3772"
       gradientUnits="userSpaceOnUse"
       gradientTransform="matrix(1.0238095,0,0,1.0119048,-1.1428571,-98.071429)"
       x1="32.251034"
       y1="6.1317081"
       x2="32.251034"
       y2="90.238609" />
    <linearGradient
       inkscape:collect="always"
       xlink:href="#ButtonShadow-0"
       id="linearGradient3725"
       gradientUnits="userSpaceOnUse"
       gradientTransform="matrix(1.0238095,0,0,1.0119048,-1.1428571,-98.071429)"
       x1="32.251034"
       y1="6.1317081"
       x2="32.251034"
       y2="90.238609" />
    <linearGradient
       inkscape:collect="always"
       xlink:href="#ButtonShadow-0"
       id="linearGradient3721"
       gradientUnits="userSpaceOnUse"
       gradientTransform="translate(0,-97)"
       x1="32.251034"
       y1="6.1317081"
       x2="32.251034"
       y2="90.238609" />
    <linearGradient
       y2="90.238609"
       x2="32.251034"
       y1="6.1317081"
       x1="32.251034"
       gradientTransform="matrix(1.0238095,0,0,1.0119048,-1.1428571,-98.071429)"
       gradientUnits="userSpaceOnUse"
       id="linearGradient3026"
       xlink:href="#ButtonShadow-0"
       inkscape:collect="always" />
    <linearGradient
       inkscape:collect="always"
       xlink:href="#linearGradient3669"
       id="linearGradient3675"
       x1="8"
       y1="1033.3622"
       x2="64.080299"
       y2="1033.3622"
       gradientUnits="userSpaceOnUse"
       spreadMethod="reflect" />
    <linearGradient
       id="linearGradient3669">
      <stop
         style="stop-color:#c27d4f;stop-opacity:1;"
         offset="0"
         id="stop3671" />
      <stop
         id="stop3677"
         offset="0.11780351"
         style="stop-color:#a3704e;stop-opacity:1;" />
      <stop
         style="stop-color:#866148;stop-opacity:1;"
         offset="1"
         id="stop3673" />
    </linearGradient>
    <clipPath
       clipPathUnits="userSpaceOnUse"
       id="clipPath4355">
      <rect
         style="fill:#ffffff;fill-opacity:1;fill-rule:nonzero;stroke:none"
         id="rect4357"
         width="84"
         height="80"
         x="6"
         y="6"
         rx="6"
         ry="6" />
    </clipPath>
    <radialGradient
       inkscape:collect="always"
       xlink:href="#linearGradient4367"
       id="radialGradient4375"
       cx="48"
       cy="87.792389"
       fx="48"
       fy="87.792389"
       r="42"
       gradientTransform="matrix(1,-6.7114942e-8,8.4282233e-8,1.2557894,109.99999,-24.505592)"
       gradientUnits="userSpaceOnUse" />
    <linearGradient
       inkscape:collect="always"
       xlink:href="#linearGradient4384"
       id="linearGradient4390"
       x1="48"
       y1="88"
       x2="48"
       y2="-40"
       gradientUnits="userSpaceOnUse"
       gradientTransform="matrix(1,0,0,-1,0,92)" />
    <linearGradient
       inkscape:collect="always"
       xlink:href="#linearGradient4384"
       id="linearGradient4429"
       x1="48"
       y1="82"
       x2="112.12357"
       y2="82.454597"
       gradientUnits="userSpaceOnUse"
       spreadMethod="reflect" />
    <linearGradient
       gradientTransform="translate(-2,-956.3622)"
       y2="1033.3622"
       x2="50"
       y1="1033.3622"
       x1="8"
       spreadMethod="reflect"
       gradientUnits="userSpaceOnUse"
       id="linearGradient3542-9"
       xlink:href="#linearGradient4482"
       inkscape:collect="always" />
    <linearGradient
       id="linearGradient4482">
      <stop
         id="stop4484"
         offset="0"
         style="stop-color:#ffffff;stop-opacity:0.12977099;" />
      <stop
         style="stop-color:#424242;stop-opacity:0.28244275;"
         offset="0.11780351"
         id="stop4486" />
      <stop
         id="stop4488"
         offset="0.23809524"
         style="stop-color:#2f2f2f;stop-opacity:0.30534351;" />
      <stop
         id="stop4490"
         offset="1"
         style="stop-color:#000000;stop-opacity:0.35114503;" />
    </linearGradient>
    <linearGradient
       inkscape:collect="always"
       xlink:href="#linearGradient4482"
       id="linearGradient3851"
       gradientUnits="userSpaceOnUse"
       x1="90"
       y1="88"
       x2="48"
       y2="88"
       spreadMethod="reflect" />
    <linearGradient
       inkscape:collect="always"
       xlink:href="#linearGradient3892"
       id="linearGradient3890"
       gradientUnits="userSpaceOnUse"
       spreadMethod="reflect"
       x1="90"
       y1="88"
       x2="48"
       y2="88" />
    <linearGradient
       id="linearGradient3892">
      <stop
         style="stop-color:#000000;stop-opacity:0.58823532;"
         offset="0"
         id="stop3894" />
      <stop
         id="stop3896"
         offset="0.11780351"
         style="stop-color:#000000;stop-opacity:0.47058824;" />
      <stop
         style="stop-color:#000000;stop-opacity:0.39215687;"
         offset="0.23809524"
         id="stop3898" />
      <stop
         style="stop-color:#000000;stop-opacity:0.3137255;"
         offset="1"
         id="stop3900" />
    </linearGradient>
    <linearGradient
       y2="88"
       x2="48"
       y1="88"
       x1="90"
       spreadMethod="reflect"
       gradientUnits="userSpaceOnUse"
       id="linearGradient3228"
       xlink:href="#linearGradient3892"
       inkscape:collect="always" />
    <linearGradient
       inkscape:collect="always"
       xlink:href="#ButtonColor"
       id="linearGradient3617-5"
       gradientUnits="userSpaceOnUse"
       x1="48"
       y1="90"
       x2="48"
       y2="5.9877172" />
    <linearGradient
       gradientTransform="matrix(1.0172414,0,0,1.0172414,-1.1034483,-1.1034483)"
       gradientUnits="userSpaceOnUse"
       y2="5.4252338"
       x2="58.650177"
       y1="122"
       x1="58.650177"
       id="ButtonColor">
      <stop
         id="stop3189"
         offset="0"
         style="stop-color:#264b79;stop-opacity:1;" />
      <stop
         id="stop3191"
         offset="1"
         style="stop-color:#6087b8;stop-opacity:1;" />
    </linearGradient>
    <linearGradient
       id="linearGradient4941">
      <stop
         id="stop4943"
         offset="0"
         style="stop-color:#3f78c2;stop-opacity:1;" />
      <stop
         id="stop4945"
         offset="1"
         style="stop-color:#2d578e;stop-opacity:1;" />
    </linearGradient>
    <linearGradient
       id="linearGradient39155">
      <stop
         style="stop-color:white;stop-opacity:1;"
         offset="0"
         id="stop39157" />
      <stop
         style="stop-color:#dadada;stop-opacity:1;"
         offset="1"
         id="stop39159" />
    </linearGradient>
    <linearGradient
       id="linearGradient4949">
      <stop
         id="stop4951"
         offset="0"
         style="stop-color:#ed6800;stop-opacity:1;" />
      <stop
         id="stop4953"
         offset="1"
         style="stop-color:#fd9400;stop-opacity:1;" />
    </linearGradient>
    <linearGradient
       y2="5.9877172"
       x2="48"
       y1="90"
       x1="48"
       gradientUnits="userSpaceOnUse"
       id="linearGradient3124"
       xlink:href="#ButtonColor"
       inkscape:collect="always" />
    <linearGradient
       inkscape:collect="always"
       id="linearGradient39171-9">
      <stop
         style="stop-color:white;stop-opacity:1;"
         offset="0"
         id="stop39173-8" />
      <stop
         style="stop-color:white;stop-opacity:0;"
         offset="1"
         id="stop39175-1" />
    </linearGradient>
    <radialGradient
       inkscape:collect="always"
       xlink:href="#linearGradient4941-3"
       id="radialGradient3700-6"
       gradientUnits="userSpaceOnUse"
       gradientTransform="matrix(0.68045048,0,0,0.61944217,1.352129,4.368083)"
       cx="78.563553"
       cy="64.285774"
       fx="78.563553"
       fy="64.285774"
       r="11.647734" />
    <linearGradient
       id="linearGradient4941-3">
      <stop
         id="stop4943-9"
         offset="0"
         style="stop-color:#3f78c2;stop-opacity:1;" />
      <stop
         id="stop4945-3"
         offset="1"
         style="stop-color:#2d578e;stop-opacity:1;" />
    </linearGradient>
    <linearGradient
       inkscape:collect="always"
       xlink:href="#linearGradient39155-6"
       id="linearGradient6135-5"
       gradientUnits="userSpaceOnUse"
       x1="31.1875"
       y1="18.875"
       x2="29.875"
       y2="34.375" />
    <linearGradient
       id="linearGradient39155-6">
      <stop
         style="stop-color:white;stop-opacity:1;"
         offset="0"
         id="stop39157-1" />
      <stop
         style="stop-color:#dadada;stop-opacity:1;"
         offset="1"
         id="stop39159-7" />
    </linearGradient>
    <linearGradient
       inkscape:collect="always"
       xlink:href="#linearGradient4949-2"
       id="linearGradient3707-2"
       gradientUnits="userSpaceOnUse"
       x1="79.464706"
       y1="52.145687"
       x2="79.464706"
       y2="94.974709"
       gradientTransform="matrix(0.68045048,0,0,0.68045048,1.352129,0.255594)" />
    <linearGradient
       id="linearGradient4949-2">
      <stop
         id="stop4951-9"
         offset="0"
         style="stop-color:#ed6800;stop-opacity:1;" />
      <stop
         id="stop4953-2"
         offset="1"
         style="stop-color:#fd9400;stop-opacity:1;" />
    </linearGradient>
    <linearGradient
       inkscape:collect="always"
       xlink:href="#linearGradient39171-9"
       id="linearGradient4009"
       gradientUnits="userSpaceOnUse"
       gradientTransform="matrix(0.68045048,0,0,0.68045048,1.352129,0.255594)"
       x1="75.44593"
       y1="27.258341"
       x2="75.44593"
       y2="87.235779" />
    <linearGradient
       inkscape:collect="always"
       xlink:href="#linearGradient4077"
       id="linearGradient4083"
       x1="21.65625"
       y1="34.203125"
       x2="37.823311"
       y2="34.203125"
       gradientUnits="userSpaceOnUse" />
    <linearGradient
       inkscape:collect="always"
       xlink:href="#linearGradient4077"
       id="linearGradient4093"
       x1="42.137947"
       y1="22.081572"
       x2="51.192928"
       y2="29.093733"
       gradientUnits="userSpaceOnUse" />
    <linearGradient
       inkscape:collect="always"
       xlink:href="#linearGradient4100"
       id="linearGradient4106"
       x1="12.968286"
       y1="59.500016"
       x2="76.842062"
       y2="59.500016"
       gradientUnits="userSpaceOnUse" />
    <linearGradient
       inkscape:collect="always"
       xlink:href="#linearGradient39171-9"
       id="linearGradient4136"
       gradientUnits="userSpaceOnUse"
       gradientTransform="matrix(0.68045048,0,0,0.68045048,1.352129,0.255594)"
       x1="79.464706"
       y1="52.145687"
       x2="79.464706"
       y2="94.974709" />
  </defs>
  <sodipodi:namedview
     id="base"
     pagecolor="#818181"
     bordercolor="#ffb1b1"
     borderopacity="1"
     inkscape:pageopacity="1"
     inkscape:pageshadow="2"
     inkscape:zoom="4.6803524"
     inkscape:cx="8.1771394"
     inkscape:cy="32.603191"
     inkscape:document-units="px"
     inkscape:current-layer="layer6"
     showgrid="true"
     showborder="true"
     inkscape:showpageshadow="false"
     inkscape:window-width="1920"
     inkscape:window-height="1030"
     inkscape:window-x="0"
     inkscape:window-y="22"
     inkscape:window-maximized="1"
     borderlayer="true"
     inkscape:snap-global="false">
    <inkscape:grid
       type="xygrid"
       id="grid3732"
       visible="true"
       enabled="true"
       empspacing="8"
       snapvisiblegridlinesonly="true" />
  </sodipodi:namedview>
  <metadata
     id="metadata2413">
    <rdf:RDF>
      <cc:Work
         rdf:about="">
        <dc:format>image/svg+xml</dc:format>
        <dc:type
           rdf:resource="http://purl.org/dc/dcmitype/StillImage" />
        <dc:title></dc:title>
      </cc:Work>
    </rdf:RDF>
  </metadata>
  <g
     inkscape:groupmode="layer"
     id="layer2"
     inkscape:label="Blur Shadow"
     style="display:none"
     sodipodi:insensitive="true">
    <rect
       style="opacity:0.9;fill:url(#ButtonShadow);fill-opacity:1;fill-rule:nonzero;stroke:none;filter:url(#filter3174)"
       id="rect3745"
       width="86"
       height="85"
       x="5"
       y="7"
       rx="6"
       ry="6" />
  </g>
  <g
     inkscape:groupmode="layer"
     id="layer3"
     inkscape:label="Shadow"
     sodipodi:insensitive="true"
     style="display:inline">
    <path
       sodipodi:type="inkscape:offset"
       inkscape:radius="0.99097413"
       inkscape:original="M 12 -94.03125 C 7.028367 -94.03125 2.96875 -89.971633 2.96875 -85 L 2.96875 -14 C 2.96875 -9.0283671 7.0283671 -4.96875 12 -4.96875 L 84 -4.96875 C 88.971633 -4.96875 93.03125 -9.028367 93.03125 -14 L 93.03125 -85 C 93.03125 -89.971633 88.971633 -94.03125 84 -94.03125 L 12 -94.03125 z "
       style="opacity:0.07999998;fill:url(#linearGradient3026);fill-opacity:1;fill-rule:nonzero;stroke:none;display:inline"
       id="path3786"
       d="m 12,-95.03125 c -5.5110903,0 -10.03125,4.52016 -10.03125,10.03125 l 0,71 c 0,5.5110902 4.5201598,10.03125 10.03125,10.03125 l 72,0 c 5.51109,0 10.03125,-4.5201597 10.03125,-10.03125 l 0,-71 c 0,-5.51109 -4.52016,-10.03125 -10.03125,-10.03125 l -72,0 z"
       transform="scale(1,-1)" />
    <path
       sodipodi:type="inkscape:offset"
       inkscape:radius="1.0360184"
       inkscape:original="M 12 -93 C 7.5908667 -93 4 -89.409133 4 -85 L 4 -14 C 4 -9.5908667 7.5908667 -6 12 -6 L 84 -6 C 88.409133 -6 92 -9.5908667 92 -14 L 92 -85 C 92 -89.409133 88.409133 -93 84 -93 L 12 -93 z "
       style="opacity:0.1;fill:url(#linearGradient3780);fill-opacity:1;fill-rule:nonzero;stroke:none;display:inline"
       id="path3778"
       d="m 12,-94.03125 c -4.971633,0 -9.03125,4.059617 -9.03125,9.03125 l 0,71 c 0,4.9716329 4.0596171,9.03125 9.03125,9.03125 l 72,0 c 4.971633,0 9.03125,-4.059617 9.03125,-9.03125 l 0,-71 c 0,-4.971633 -4.059617,-9.03125 -9.03125,-9.03125 l -72,0 z"
       transform="scale(1,-1)" />
    <path
       sodipodi:type="inkscape:offset"
       inkscape:radius="0.98962283"
       inkscape:original="M 12 -92 C 8.122 -92 5 -88.878 5 -85 L 5 -14 C 5 -10.122 8.122 -7 12 -7 L 84 -7 C 87.878 -7 91 -10.122 91 -14 L 91 -85 C 91 -88.878 87.878 -92 84 -92 L 12 -92 z "
       style="opacity:0.2;fill:url(#linearGradient3772);fill-opacity:1;fill-rule:nonzero;stroke:none;display:inline"
       id="path3770"
       d="m 12,-93 c -4.4091333,0 -8,3.590867 -8,8 l 0,71 c 0,4.4091333 3.5908667,8 8,8 l 72,0 c 4.409133,0 8,-3.5908667 8,-8 l 0,-71 c 0,-4.409133 -3.590867,-8 -8,-8 l -72,0 z"
       transform="scale(1,-1)" />
    <rect
       style="opacity:0.3;fill:url(#linearGradient3725);fill-opacity:1;fill-rule:nonzero;stroke:none;display:inline"
       id="rect3723"
       width="86"
       height="85"
       x="5"
       y="-92"
       rx="7"
       ry="7"
       transform="scale(1,-1)" />
    <rect
       transform="scale(1,-1)"
       ry="6"
       rx="6"
       y="-91"
       x="6"
       height="84"
       width="84"
       id="rect3716"
       style="opacity:0.45;fill:url(#linearGradient3721);fill-opacity:1;fill-rule:nonzero;stroke:none;display:inline" />
  </g>
  <g
     inkscape:label="Button"
     inkscape:groupmode="layer"
     id="layer1"
     sodipodi:insensitive="true">
    <rect
       style="fill:url(#linearGradient3124);fill-opacity:1;fill-rule:nonzero;stroke:none;display:inline"
       id="rect2419-4"
       width="84"
       height="84"
       x="6"
       y="6"
       rx="6"
       ry="6" />
    <path
       style="opacity:0.2;fill:url(#radialGradient4375);fill-opacity:1;fill-rule:nonzero;stroke:none"
       d="M 120.78125,6.125 C 118.04223,6.6826484 116,9.0915 116,12 l 0,68 c 0,3.324 2.676,6 6,6 l 72,0 c 3.324,0 6,-2.676 6,-6 l 0,-68 c 0,-2.9085 -2.04223,-5.3173516 -4.78125,-5.875 2.20512,0.5362071 3.8125,2.4908437 3.8125,4.875 l 0,68 c 0,2.80489 -2.22636,5.03125 -5.03125,5.03125 l -72,0 c -2.80489,0 -5.03125,-2.22636 -5.03125,-5.03125 l 0,-68 c 0,-2.3841563 1.60738,-4.3387929 3.8125,-4.875 z"
       id="rect4359"
       inkscape:connector-curvature="0" />
    <path
       style="opacity:0.2;fill:url(#linearGradient4390);fill-opacity:1;fill-rule:nonzero;stroke:none"
       d="M 12,86 C 8.676,86 6,83.324 6,80 L 6,12 C 6,8.676 8.676,6 12,6 l 72,0 c 3.324,0 6,2.676 6,6 l 0,68 c 0,3.324 -2.676,6 -6,6 z m 0,-0.96875 72,0 c 2.80489,0 5.03125,-2.22636 5.03125,-5.03125 l 0,-68 C 89.03125,9.19511 86.80489,6.96875 84,6.96875 l -72,0 C 9.1951102,6.96875 6.96875,9.19511 6.96875,12 l 0,68 c 0,2.80489 2.2263602,5.03125 5.03125,5.03125 z"
       id="rect4377"
       inkscape:connector-curvature="0"
       sodipodi:nodetypes="ssssssssssssssssss" />
    <path
       style="opacity:0.07999998;fill:url(#linearGradient4429);fill-opacity:1;fill-rule:nonzero;stroke:none"
       d="m 6,78 0,2 c 0,3.324 2.676,6 6,6 l 72,0 c 3.324,0 6,-2.676 6,-6 l 0,-2 c 0,3.324 -2.676,6 -6,6 L 12,84 C 8.676,84 6,81.324 6,78 z"
       id="rect4414"
       inkscape:connector-curvature="0" />
    <path
       id="path4412"
       d="m 6,100 0,1 c 0,3.324 2.676,6 6,6 l 72,0 c 3.324,0 6,-2.676 6,-6 l 0,-1 c 0,3.324 -2.676,6 -6,6 l -72,0 c -3.324,0 -6,-2.676 -6,-6 z"
       style="opacity:0.15;fill:#000000;fill-opacity:1;fill-rule:nonzero;stroke:none"
       inkscape:connector-curvature="0" />
  </g>
  <g
     inkscape:groupmode="layer"
     id="layer4"
     inkscape:label="Bottom Edge"
     style="display:inline"
     sodipodi:insensitive="true">
    <path
       inkscape:connector-curvature="0"
       id="path3888"
       d="m 6,80 0,4 c 0,3.324 2.676,6 6,6 l 72,0 c 3.324,0 6,-2.676 6,-6 l 0,-4 c 0,3.324 -2.676,6 -6,6 L 12,86 C 8.676,86 6,83.324 6,80 z"
       style="fill:url(#linearGradient3228);fill-opacity:1;fill-rule:nonzero;stroke:none;display:inline" />
    <path
       style="opacity:0.1;color:#000000;fill:#000000;fill-opacity:1;fill-rule:nonzero;stroke:none;stroke-width:1.5;marker:none;visibility:visible;display:inline;overflow:visible;enable-background:accumulate"
       d="m 6,82 0,2 c 0,3.324 2.676,6 6,6 l 72,0 c 3.324,0 6,-2.676 6,-6 l 0,-2 c 0,3.324 -2.676,6 -6,6 L 12,88 C 8.676,88 6,85.324 6,82 z"
       id="rect4345"
       inkscape:connector-curvature="0" />
    <path
       style="opacity:0.15;color:#000000;fill:#000000;fill-opacity:1;fill-rule:nonzero;stroke:none;stroke-width:1.5;marker:none;visibility:visible;display:inline;overflow:visible;enable-background:accumulate"
       d="m 6,83 0,1 c 0,3.324 2.676,6 6,6 l 72,0 c 3.324,0 6,-2.676 6,-6 l 0,-1 c 0,3.324 -2.676,6 -6,6 L 12,89 C 8.676,89 6,86.324 6,83 z"
       id="rect4336"
       inkscape:connector-curvature="0" />
  </g>
  <g
     inkscape:groupmode="layer"
     id="layer5"
     inkscape:label="Highlight"
     sodipodi:insensitive="true"
     style="display:none">
    <rect
       style="opacity:0.1;fill:url(#linearGradient3613);fill-opacity:1;fill-rule:nonzero;stroke:#ffffff;stroke-width:0.5;stroke-linecap:round;stroke-linejoin:miter;stroke-miterlimit:4;stroke-opacity:1;stroke-dasharray:none;stroke-dashoffset:0;filter:url(#filter3794)"
       id="rect3171"
       width="66"
       height="62"
       x="15"
       y="15"
       rx="12"
       ry="12"
       clip-path="url(#clipPath4355)" />
  </g>
  <g
     inkscape:groupmode="layer"
     id="layer6"
     inkscape:label="Symbol">
    <path
       sodipodi:type="inkscape:offset"
       inkscape:radius="1.0670681"
       inkscape:original="M 46.59375 16.15625 C 43.250878 15.966764 40.237918 19.024264 40.78125 22.40625 C 40.77615 24.429664 42.256292 26.03411 43.78125 27.15625 C 37.657343 27.20545 31.524672 27.065694 25.40625 27.25 C 21.935177 27.462922 19.269918 30.723063 19.65625 34.15625 C 19.294562 37.173335 21.473836 40.307561 24.65625 40.40625 C 26.14766 40.702124 31.139997 39.716717 27.9375 41.5 C 23.250489 45.00162 18.472684 48.414495 13.84375 51.96875 C 10.644443 54.498184 10.198795 59.395546 12.09375 62.8125 C 14.696358 66.124039 19.74625 65.1049 22.375 62.375 L 30.875 55.40625 C 32.112729 64.570653 40.398062 71.605838 49.1875 73.375 C 60.403011 75.937581 73.435234 69.994523 77.5 58.9375 C 79.349113 53.881663 79.257114 48.183261 77.71875 43.0625 C 76.146003 37.840564 72.158145 33.900915 67.8125 30.84375 C 61.990562 26.384308 56.077505 21.849969 50.3125 17.4375 C 49.380683 16.583579 47.89189 16.155016 46.59375 16.15625 z "
       style="opacity:0.05;fill:#000000;fill-opacity:1;fill-rule:evenodd;stroke:none"
       id="path4132"
       d="m 46.59375,15.09375 c -3.946642,-0.184224 -7.410356,3.310148 -6.875,7.3125 -5.5e-5,0.02166 -2.04e-4,0.04094 0,0.0625 0.0047,0.03269 -0.0053,0.061 0,0.09375 l 0.03125,0 c 0.04034,1.412997 0.664302,2.545211 1.46875,3.53125 -5.261323,0.0054 -10.544675,-0.06587 -15.84375,0.09375 a 1.0671748,1.0671748 0 0 0 -0.03125,0 c -4.014628,0.246265 -7.017441,3.892774 -6.71875,7.84375 l -0.03125,0 c -0.0051,0.04215 0.0042,0.08283 0,0.125 0.004,0.04263 -0.0048,0.08231 0,0.125 l 0.03125,0 c -0.2784,3.459064 2.152091,6.886016 5.8125,7.125 l 0,0.03125 c 0.03193,0.002 0.06163,-0.0015 0.09375,0 0.03492,0.0017 0.05862,0.03016 0.09375,0.03125 l 0,-0.03125 c 0.495489,0.07449 1.000197,0.113446 1.53125,0.09375 -4.303936,3.194248 -8.703572,6.318799 -12.96875,9.59375 -3.6871381,2.915123 -4.1703453,8.361566 -2.03125,12.21875 a 1.0671748,1.0671748 0 0 0 0.09375,0.125 c 1.541355,1.961209 3.869646,2.645847 6.0625,2.4375 2.155091,-0.204759 4.2501,-1.200551 5.75,-2.71875 l 0.09375,-0.0625 7.0625,-5.8125 c 2.06303,8.807053 10.105586,15.349234 18.71875,17.09375 0.0096,0.0019 0.02168,-0.0019 0.03125,0 C 60.701492,77.071137 74.226773,70.936581 78.5,59.3125 80.441877,54.003029 80.347751,48.068442 78.75,42.75 77.080807,37.207837 72.902773,33.12545 68.46875,30 c -0.01157,-0.0089 -0.01968,-0.02239 -0.03125,-0.03125 -5.787277,-4.432913 -11.673929,-8.924979 -17.40625,-13.3125 -0.02292,-0.01754 -0.03958,-0.04496 -0.0625,-0.0625 l 0,0.03125 c -1.197715,-1.066933 -2.816994,-1.52125 -4.3125,-1.53125 -0.02007,-1.34e-4 -0.04248,-1.9e-5 -0.0625,0 z" />
    <path
       sodipodi:type="inkscape:offset"
       inkscape:radius="0"
       inkscape:original="M 46.59375 16.15625 C 43.250878 15.966764 40.237918 19.024264 40.78125 22.40625 C 40.77615 24.429664 42.256292 26.03411 43.78125 27.15625 C 37.657343 27.20545 31.524672 27.065694 25.40625 27.25 C 21.935177 27.462922 19.269918 30.723063 19.65625 34.15625 C 19.294562 37.173335 21.473836 40.307561 24.65625 40.40625 C 26.14766 40.702124 31.139997 39.716717 27.9375 41.5 C 23.250489 45.00162 18.472684 48.414495 13.84375 51.96875 C 10.644443 54.498184 10.198795 59.395546 12.09375 62.8125 C 14.696358 66.124039 19.74625 65.1049 22.375 62.375 L 30.875 55.40625 C 32.112729 64.570653 40.398062 71.605838 49.1875 73.375 C 60.403011 75.937581 73.435234 69.994523 77.5 58.9375 C 79.349113 53.881663 79.257114 48.183261 77.71875 43.0625 C 76.146003 37.840564 72.158145 33.900915 67.8125 30.84375 C 61.990562 26.384308 56.077505 21.849969 50.3125 17.4375 C 49.380683 16.583579 47.89189 16.155016 46.59375 16.15625 z "
       style="opacity:0.1;fill:#000000;fill-opacity:1;fill-rule:evenodd;stroke:none"
       id="path4128"
       d="m 46.59375,16.15625 c -3.342872,-0.189486 -6.355832,2.868014 -5.8125,6.25 -0.0051,2.023414 1.475042,3.62786 3,4.75 -6.123907,0.0492 -12.256578,-0.09056 -18.375,0.09375 -3.471073,0.212922 -6.136332,3.473063 -5.75,6.90625 -0.361688,3.017085 1.817586,6.151311 5,6.25 1.49141,0.295874 6.483747,-0.689533 3.28125,1.09375 -4.687011,3.50162 -9.464816,6.914495 -14.09375,10.46875 -3.199307,2.529434 -3.644955,7.426796 -1.75,10.84375 2.602608,3.311539 7.6525,2.2924 10.28125,-0.4375 l 8.5,-6.96875 C 32.112729,64.570653 40.398062,71.605838 49.1875,73.375 60.403011,75.937581 73.435234,69.994523 77.5,58.9375 79.349113,53.881663 79.257114,48.183261 77.71875,43.0625 76.146003,37.840564 72.158145,33.900915 67.8125,30.84375 61.990562,26.384308 56.077505,21.849969 50.3125,17.4375 49.380683,16.583579 47.89189,16.155016 46.59375,16.15625 z" />
    <path
       sodipodi:type="inkscape:offset"
       inkscape:radius="0.99084896"
       inkscape:original="M 46.59375 18.15625 C 45.699564 18.15745 44.781783 18.403118 44.0625 18.90625 C 42.900985 19.715565 42.74937 20.769196 42.78125 21.90625 C 42.81056 22.951558 42.841941 23.820971 43.78125 24.59375 C 45.686139 26.094373 47.593196 27.626647 49.5 29.15625 L 26.6875 29.15625 C 23.80925 29.15625 22.1066 30.504614 21.75 32.5 C 21.66191 32.992931 21.65625 33.434078 21.65625 33.96875 L 21.65625 34.71875 C 21.65625 36.507426 22.520056 38.4375 25.34375 38.4375 C 28.706902 38.4419 32.087153 38.4455 35.46875 38.4375 L 15.25 53.375 C 15.22037 53.39752 15.18588 53.41498 15.15625 53.4375 C 13.301209 54.899711 12.982426 56.587306 12.96875 58.4375 C 12.95995 59.623158 13.07221 60.785115 13.65625 61.5625 C 15.041249 63.333003 17.967332 63.35709 20.15625 61.59375 L 32.53125 51.5 C 32.531345 51.51891 32.530969 51.54411 32.53125 51.5625 C 32.53405 51.727143 32.57188 51.938782 32.59375 52.15625 C 32.59945 52.21298 32.58685 52.25293 32.59375 52.3125 C 32.55585 52.72962 32.52562 53.193978 32.53125 53.5625 C 32.54536 54.392873 32.822447 56.014813 33.21875 57.28125 C 34.057928 59.951047 35.457342 62.413954 37.4375 64.59375 C 39.468454 66.830105 41.987925 68.62972 44.875 69.90625 C 47.912952 71.247635 51.180653 71.942896 54.59375 71.9375 C 58.006847 71.9303 61.307237 71.226115 64.34375 69.875 C 67.229704 68.585862 69.720474 66.804627 71.75 64.5625 C 73.725715 62.374056 75.160896 59.889997 76 57.21875 C 76.424608 55.867603 76.671126 54.501437 76.78125 53.125 C 76.84697 52.28478 76.86258 51.436369 76.8125 50.59375 C 76.87084 49.414001 76.82451 48.242073 76.65625 47.0625 C 76.281105 44.419396 75.346352 41.91797 73.9375 39.65625 C 72.64527 37.580329 71.007328 35.779814 69.03125 34.25 L 49.0625 18.9375 C 49.04552 18.92342 49.04967 18.91891 49.03125 18.90625 C 48.375421 18.405213 47.487936 18.155024 46.59375 18.15625 z "
       style="opacity:0.15;fill:#000000;fill-opacity:1;fill-rule:evenodd;stroke:none"
       id="path4120"
       d="m 46.59375,17.15625 c -1.074759,0.0014 -2.174211,0.294291 -3.09375,0.9375 -1.45929,1.016797 -1.753577,2.601578 -1.71875,3.84375 0.01472,0.524864 0.04264,1.08016 0.21875,1.6875 0.176108,0.60734 0.549989,1.219973 1.15625,1.71875 a 0.99094804,0.99094804 0 0 0 0,0.03125 c 1.160956,0.914571 2.335919,1.849266 3.5,2.78125 l -19.96875,0 c -1.593852,0 -2.965303,0.393854 -4,1.125 -1.034697,0.731146 -1.686704,1.802759 -1.90625,3.03125 -0.104807,0.586476 -0.125,1.114585 -0.125,1.65625 l 0,0.75 c 0,1.053842 0.241354,2.214661 1,3.15625 0.758646,0.941589 2.049895,1.5625 3.6875,1.5625 2.346015,0.0031 4.704169,0.0014 7.0625,0 l -17.75,13.125 a 0.99094804,0.99094804 0 0 0 0,0.03125 c 0.06885,-0.05233 0.03436,-0.03487 -0.09375,0.0625 a 0.99094804,0.99094804 0 0 0 -0.03125,0 c -2.10279,1.657496 -2.548016,3.821705 -2.5625,5.78125 -0.0093,1.253001 0.07403,2.611026 0.90625,3.71875 a 0.99094804,0.99094804 0 0 0 0,0.03125 c 1.799601,2.300507 5.377955,2.224234 7.90625,0.1875 l 10.75,-8.78125 c 0.01748,1.028787 0.320999,2.597823 0.75,3.96875 a 0.99094804,0.99094804 0 0 0 0,0.03125 c 0.881396,2.804112 2.363797,5.373478 4.4375,7.65625 2.127281,2.342424 4.742915,4.232907 7.75,5.5625 3.162391,1.39633 6.576344,2.13061 10.125,2.125 3.548036,-0.0075 6.992927,-0.74871 10.15625,-2.15625 3.002444,-1.341173 5.625013,-3.214912 7.75,-5.5625 2.065693,-2.28811 3.554223,-4.875629 4.4375,-7.6875 0.448994,-1.428747 0.728408,-2.870839 0.84375,-4.3125 a 0.99094804,0.99094804 0 0 0 0,-0.03125 c 0.06557,-0.838361 0.07565,-1.679295 0.03125,-2.53125 -5.48e-4,-0.01052 5.67e-4,-0.02073 0,-0.03125 0.0015,-0.03113 -0.0014,-0.06262 0,-0.09375 C 77.864529,49.334882 77.79667,48.140979 77.625,46.9375 77.229897,44.153783 76.259459,41.498063 74.78125,39.125 73.426343,36.948391 71.689082,35.066694 69.625,33.46875 L 49.84375,18.3125 c 0.01656,0.02185 -0.0692,-0.037 -0.125,-0.09375 L 49.6875,18.1875 49.65625,18.15625 c -0.01341,-0.01202 -0.01861,-0.02096 -0.03125,-0.03125 -0.01138,-0.0087 -0.0198,-0.02269 -0.03125,-0.03125 -0.866211,-0.647832 -1.934178,-0.938961 -3,-0.9375 z" />
    <path
       sodipodi:nodetypes="scsccssssccccsccccsccccccccccccccccs"
       inkscape:connector-curvature="0"
       id="path4116"
       d="m 46.59375,18.15625 c -0.894186,0.0012 -1.811967,0.246868 -2.53125,0.75 -1.161515,0.809315 -1.306499,1.860278 -1.274619,2.997332 0.02931,1.045308 0.05406,1.917389 0.993369,2.690168 1.904889,1.500623 3.811946,3.032897 5.71875,4.5625 l -22.8125,0 c -2.87825,0 -4.5809,1.348364 -4.9375,3.34375 -0.08809,0.492931 -0.07915,0.941873 -0.07915,1.476545 0,0.162104 0,0.550932 0,0.742276 0,1.788676 0.849207,3.718679 3.672901,3.718679 3.363152,0.0044 6.743403,0.008 10.125,0 L 15.25,53.375 c -0.02963,0.02252 -0.06412,0.03998 -0.09375,0.0625 -1.855041,1.462211 -2.185587,3.163482 -2.199263,5.013676 -0.0088,1.185658 0.115223,2.333939 0.699263,3.111324 1.384999,1.770503 4.311082,1.79459 6.5,0.03125 L 32.53125,51.5 c 9.5e-5,0.01891 -2.81e-4,0.04411 0,0.0625 0.0028,0.164643 0.04063,0.376282 0.0625,0.59375 0.0057,0.05673 -0.0069,0.09668 0,0.15625 -0.0379,0.41712 -0.06813,0.881478 -0.0625,1.25 0.01411,0.830373 0.291197,2.452313 0.6875,3.71875 0.839178,2.669797 2.238592,5.132704 4.21875,7.3125 2.030954,2.236355 4.550425,4.03597 7.4375,5.3125 3.037952,1.341385 6.305653,2.036646 9.71875,2.03125 3.413097,-0.0072 6.713487,-0.711385 9.75,-2.0625 2.885954,-1.289138 5.376724,-3.070373 7.40625,-5.3125 1.975715,-2.188444 3.410896,-4.672503 4.25,-7.34375 0.424608,-1.351147 0.671126,-2.717313 0.78125,-4.09375 0.06572,-0.84022 0.08133,-1.688631 0.03125,-2.53125 0.05834,-1.179749 0.01201,-2.351677 -0.15625,-3.53125 C 76.281105,44.419396 75.346352,41.91797 73.9375,39.65625 72.64527,37.580329 71.007328,35.779814 69.03125,34.25 L 49.0625,18.9375 c -0.01698,-0.01408 -0.01283,-0.01859 -0.03125,-0.03125 -0.655829,-0.501037 -1.543314,-0.751226 -2.4375,-0.75 z"
       style="fill:#000000;fill-opacity:1;fill-rule:evenodd;stroke:none;opacity:0.3" />
    <path
       style="fill:#cf5d00;fill-opacity:1;fill-rule:evenodd;stroke:none"
       d="m 46.59375,17.15625 c -0.894186,0.0012 -1.811967,0.246868 -2.53125,0.75 -1.161515,0.809315 -1.306499,1.860278 -1.274619,2.997332 0.02931,1.045308 0.05406,1.917389 0.993369,2.690168 1.904889,1.500623 3.811946,3.032897 5.71875,4.5625 l -22.8125,0 c -2.87825,0 -4.5809,1.348364 -4.9375,3.34375 -0.08809,0.492931 -0.07915,0.941873 -0.07915,1.476545 0,0.162104 0,0.550932 0,0.742276 0,1.788676 0.849207,3.718679 3.672901,3.718679 3.363152,0.0044 6.743403,0.008 10.125,0 L 15.25,52.375 c -0.02963,0.02252 -0.06412,0.03998 -0.09375,0.0625 -1.855041,1.462211 -2.185587,3.163482 -2.199263,5.013676 -0.0088,1.185658 0.115223,2.333939 0.699263,3.111324 1.384999,1.770503 4.311082,1.79459 6.5,0.03125 L 32.53125,50.5 c 9.5e-5,0.01891 -2.81e-4,0.04411 0,0.0625 0.0028,0.164643 0.04063,0.376282 0.0625,0.59375 0.0057,0.05673 -0.0069,0.09668 0,0.15625 -0.0379,0.41712 -0.06813,0.881478 -0.0625,1.25 0.01411,0.830373 0.291197,2.452313 0.6875,3.71875 0.839178,2.669797 2.238592,5.132704 4.21875,7.3125 2.030954,2.236355 4.550425,4.03597 7.4375,5.3125 3.037952,1.341385 6.305653,2.036646 9.71875,2.03125 3.413097,-0.0072 6.713487,-0.711385 9.75,-2.0625 2.885954,-1.289138 5.376724,-3.070373 7.40625,-5.3125 1.975715,-2.188444 3.410896,-4.672503 4.25,-7.34375 0.424608,-1.351147 0.671126,-2.717313 0.78125,-4.09375 0.06572,-0.84022 0.08133,-1.688631 0.03125,-2.53125 0.05834,-1.179749 0.01201,-2.351677 -0.15625,-3.53125 C 76.281105,43.419396 75.346352,40.91797 73.9375,38.65625 72.64527,36.580329 71.007328,34.779814 69.03125,33.25 L 49.0625,17.9375 c -0.01698,-0.01408 -0.01283,-0.01859 -0.03125,-0.03125 -0.655829,-0.501037 -1.543314,-0.751226 -2.4375,-0.75 z"
       id="path4013"
       inkscape:connector-curvature="0"
       sodipodi:nodetypes="scsccssssccccsccccsccccccccccccccccs" />
    <path
       style="opacity:0.5;fill:url(#linearGradient4106);fill-opacity:1;fill-rule:evenodd;stroke:none"
       d="M 21.09375,48.0625 15.25,52.375 c -0.02963,0.02252 -0.06412,0.03998 -0.09375,0.0625 -1.855041,1.462211 -2.173824,3.149806 -2.1875,5 -0.0088,1.185658 0.10346,2.347615 0.6875,3.125 1.384999,1.770503 4.311082,1.79459 6.5,0.03125 L 32.53125,50.5 c 9.5e-5,0.01891 -2.81e-4,0.04411 0,0.0625 0.0028,0.164643 0.04063,0.376282 0.0625,0.59375 0.0057,0.05673 -0.0069,0.09668 0,0.15625 -0.0379,0.41712 -0.06813,0.881478 -0.0625,1.25 0.01411,0.830373 0.291197,2.452313 0.6875,3.71875 0.839178,2.669797 2.238592,5.132704 4.21875,7.3125 2.030954,2.236355 4.550425,4.03597 7.4375,5.3125 3.037952,1.341385 6.305653,2.036646 9.71875,2.03125 3.413097,-0.0072 6.713487,-0.711385 9.75,-2.0625 2.885954,-1.289138 5.376724,-3.070373 7.40625,-5.3125 1.975715,-2.188444 3.410896,-4.672503 4.25,-7.34375 0.424608,-1.351147 0.671126,-2.717313 0.78125,-4.09375 0.06572,-0.84022 0.08133,-1.688631 0.03125,-2.53125 0.02508,-0.507085 0.01497,-1.025827 0,-1.53125 l -55.71875,0 z"
       id="path4095"
       inkscape:connector-curvature="0" />
    <path
       style="opacity:0.3;fill:url(#linearGradient4093);fill-opacity:1;fill-rule:evenodd;stroke:none"
       d="M 46.59375 17.15625 C 45.699564 17.15745 44.781783 17.403118 44.0625 17.90625 C 42.900985 18.715565 42.74937 19.769196 42.78125 20.90625 C 42.81056 21.951558 42.841941 22.820971 43.78125 23.59375 C 45.686139 25.094373 47.593196 26.626647 49.5 28.15625 L 40.15625 28.15625 L 40.15625 28.78125 C 40.15625 32.10525 42.83225 34.78125 46.15625 34.78125 L 70.78125 34.78125 C 70.225388 34.244599 69.654656 33.73262 69.03125 33.25 L 49.0625 17.9375 C 49.04552 17.92342 49.04967 17.91891 49.03125 17.90625 C 48.375421 17.405213 47.487936 17.155024 46.59375 17.15625 z "
       id="path4069" />
    <path
       style="fill:url(#linearGradient4083);fill-opacity:1;fill-rule:evenodd;stroke:none;opacity:0.5"
       d="M 26.6875 28.15625 C 23.80925 28.15625 22.1066 29.504614 21.75 31.5 C 21.66191 31.992931 21.65625 32.434078 21.65625 32.96875 L 21.65625 33.71875 C 21.65625 35.507426 22.520056 37.4375 25.34375 37.4375 C 28.706902 37.4419 32.087153 37.4455 35.46875 37.4375 L 31.65625 40.25 L 39.625 40.25 C 39.584154 39.966256 39.5625 39.670403 39.5625 39.375 L 39.5625 28.15625 L 26.6875 28.15625 z "
       id="path4064" />
    <path
       inkscape:connector-curvature="0"
       sodipodi:nodetypes="csssssssssscccsscccscccssccc"
       d="m 32.525369,50.571206 c 0.01411,0.830373 0.283499,2.444833 0.679802,3.71127 0.839178,2.669797 2.260892,5.144319 4.24105,7.324115 2.030954,2.236355 4.528767,4.036405 7.415842,5.312935 3.037952,1.341385 6.327097,2.02666 9.740194,2.021264 3.413097,-0.0072 6.701988,-0.703663 9.738501,-2.054778 2.885954,-1.289138 5.383756,-3.093498 7.413282,-5.335625 1.975715,-2.188444 3.394679,-4.666925 4.233783,-7.338172 0.424608,-1.351147 0.688174,-2.720561 0.798298,-4.096998 0.105789,-1.352519 0.06063,-2.712093 -0.132505,-4.066016 -0.375145,-2.643104 -1.293318,-5.121553 -2.70217,-7.383273 -1.29223,-2.075921 -2.954911,-3.894304 -4.930989,-5.424118 0,0 0.0029,-0.0029 0.0029,-0.0029 0,0 -19.953955,-15.291479 -19.953955,-15.291479 -0.01698,-0.01408 -0.0325,-0.02815 -0.05092,-0.04081 -1.311658,-1.002074 -3.51329,-0.999264 -4.951856,0.007 -1.45836,1.01615 -1.575458,2.605181 -0.282139,3.669209 2.741305,2.15953 5.471814,4.417713 8.228307,6.576978 0,0 -25.326431,-0.01685 -25.326431,-0.01685 -2.87825,0 -4.571682,1.364916 -4.928282,3.360302 -0.314681,1.760778 1.079221,3.942669 3.578578,3.942669 4.266221,0.0056 8.574245,-0.0099 12.855666,-0.01831 0,0 -22.9456,16.939378 -22.9456,16.939378 -0.02963,0.02252 -0.05923,0.04223 -0.08886,0.06475 -2.160722,1.65358 -2.861669,4.405159 -1.500652,6.146117 1.384999,1.770503 4.325671,1.77194 6.514589,0.0086 0,0 12.521441,-10.226408 12.521441,-10.226408 0,0 -0.180529,1.382063 -0.16786,2.211033 z"
       id="path2482"
       style="fill:url(#linearGradient3707-2);fill-opacity:1;fill-rule:evenodd;stroke:none;stroke-width:2;stroke-linecap:butt;stroke-linejoin:miter;stroke-miterlimit:4;stroke-dasharray:none" />
    <path
       sodipodi:type="inkscape:offset"
       inkscape:radius="0.50850219"
       inkscape:original="M 31.1875 15.625 C 24.801708 15.625 19.625 20.158117 19.625 25.75 C 19.625 31.341883 24.801708 35.875 31.1875 35.875 C 37.573292 35.875 42.75 31.341883 42.75 25.75 C 42.75 20.158117 37.573292 15.625 31.1875 15.625 z "
       style="fill:#000000;fill-opacity:1;fill-rule:nonzero;stroke:none;stroke-width:1;marker:none;visibility:visible;display:inline;overflow:visible;enable-background:accumulate;opacity:0.05"
       id="path4043"
       d="m 31.1875,15.125 c -6.626441,0 -12.0625,4.719285 -12.0625,10.625 0,5.905715 5.436059,10.625 12.0625,10.625 6.626441,0 12.0625,-4.719285 12.0625,-10.625 0,-5.905715 -5.436059,-10.625 -12.0625,-10.625 z"
       transform="matrix(1.1855687,0,0,1.2088161,17.846394,15.709856)" />
    <path
       sodipodi:type="arc"
       style="fill:#000000;fill-opacity:1;fill-rule:nonzero;stroke:none;stroke-width:1;marker:none;visibility:visible;display:inline;overflow:visible;enable-background:accumulate;opacity:0.1"
       id="path4047"
       sodipodi:cx="31.1875"
       sodipodi:cy="25.75"
       sodipodi:rx="11.5625"
       sodipodi:ry="10.125"
       d="m 42.75,25.75 a 11.5625,10.125 0 1 1 -23.125,0 11.5625,10.125 0 1 1 23.125,0 z"
       transform="matrix(1.1855687,0,0,1.2088161,17.954506,16.250417)" />
    <path
       transform="matrix(1.1855687,0,0,1.2088161,17.846394,15.709856)"
       d="m 42.75,25.75 a 11.5625,10.125 0 1 1 -23.125,0 11.5625,10.125 0 1 1 23.125,0 z"
       sodipodi:ry="10.125"
       sodipodi:rx="11.5625"
       sodipodi:cy="25.75"
       sodipodi:cx="31.1875"
       id="path39153"
       style="fill:url(#linearGradient6135-5);fill-opacity:1;fill-rule:nonzero;stroke:none;stroke-width:1;marker:none;visibility:visible;display:inline;overflow:visible;enable-background:accumulate"
       sodipodi:type="arc" />
    <path
       style="fill:#000000;fill-opacity:1;fill-rule:evenodd;stroke:none;opacity:0.1"
       id="path4060"
       d="m 46.895241,46.184475 c 0.107451,-1.959948 1.066773,-3.690002 2.508888,-4.914816 1.41918,-1.204031 3.324896,-1.939198 5.406603,-1.939198 2.080382,0 3.9861,0.735167 5.404949,1.939198 1.443706,1.224814 2.401868,2.953571 2.510575,4.913519 0.111362,2.017106 -0.696662,3.890036 -2.112859,5.277211 -1.443707,1.413145 -3.502214,2.300267 -5.802665,2.300267 -2.301774,0 -4.360282,-0.887122 -5.803922,-2.300267 -1.417655,-1.387175 -2.222895,-3.260105 -2.111569,-5.275914 z"
       inkscape:connector-curvature="0" />
    <path
       inkscape:connector-curvature="0"
       d="m 46.895241,45.76276 c 0.107451,-1.959948 1.066773,-3.690002 2.508888,-4.914816 1.41918,-1.204031 3.324896,-1.939198 5.406603,-1.939198 2.080382,0 3.9861,0.735167 5.404949,1.939198 1.443706,1.224814 2.401868,2.953571 2.510575,4.913519 0.111362,2.017106 -0.696662,3.890036 -2.112859,5.277211 -1.443707,1.413145 -3.502214,2.300267 -5.802665,2.300267 -2.301774,0 -4.360282,-0.887122 -5.803922,-2.300267 -1.417655,-1.387175 -2.222895,-3.260105 -2.111569,-5.275914 z"
       id="path2478"
       style="fill:url(#radialGradient3700-6);fill-opacity:1;fill-rule:evenodd;stroke:none" />
    <path
       style="fill:#ffffff;fill-opacity:1;fill-rule:evenodd;stroke:none;stroke-width:2;stroke-linecap:butt;stroke-linejoin:miter;stroke-miterlimit:4;stroke-dasharray:none;opacity:0.15"
       d="M 46.59375 17.15625 C 45.699564 17.157476 44.781783 17.403118 44.0625 17.90625 C 42.60414 18.9224 42.487931 20.529722 43.78125 21.59375 C 46.522555 23.75328 49.243507 25.996985 52 28.15625 L 26.6875 28.15625 C 23.80925 28.15625 22.1066 29.504614 21.75 31.5 C 21.435319 33.260778 22.844393 35.4375 25.34375 35.4375 C 29.609971 35.4431 33.906079 35.44591 38.1875 35.4375 L 15.25 52.375 C 15.22037 52.39752 15.18588 52.41498 15.15625 52.4375 C 12.995528 54.09108 12.295233 56.821542 13.65625 58.5625 C 15.041249 60.333003 17.967332 60.35709 20.15625 58.59375 L 32.6875 48.375 C 32.6875 48.375 32.518581 49.73353 32.53125 50.5625 C 32.54536 51.392873 32.822447 53.014813 33.21875 54.28125 C 34.057928 56.951047 35.457342 59.413954 37.4375 61.59375 C 39.468454 63.830105 41.987925 65.62972 44.875 66.90625 C 47.912952 68.247635 51.180653 68.942896 54.59375 68.9375 C 58.006847 68.9303 61.307237 68.226115 64.34375 66.875 C 67.229704 65.585862 69.720474 63.804627 71.75 61.5625 C 73.725715 59.374056 75.160896 56.889997 76 54.21875 C 76.424608 52.867603 76.671126 51.501437 76.78125 50.125 C 76.887039 48.772481 76.849385 47.416423 76.65625 46.0625 C 76.281105 43.419396 75.346352 40.91797 73.9375 38.65625 C 72.64527 36.580329 71.007328 34.779814 69.03125 33.25 L 49.0625 17.9375 C 49.04552 17.92342 49.04967 17.91891 49.03125 17.90625 C 48.375421 17.405213 47.487936 17.155024 46.59375 17.15625 z M 46.59375 18.03125 C 47.326287 18.030246 48.032368 18.236491 48.5 18.59375 A 0.86250632 0.86250632 0 0 0 48.53125 18.625 L 68.5 33.9375 C 70.399481 35.408015 71.981073 37.136716 73.21875 39.125 C 74.567235 41.289809 75.454726 43.666783 75.8125 46.1875 C 75.996479 47.477237 76.007304 48.770519 75.90625 50.0625 C 75.800668 51.382167 75.590883 52.685145 75.1875 53.96875 C 74.38928 56.509845 73.013422 58.871799 71.125 60.96875 C 69.178562 63.119086 66.784563 64.849903 64 66.09375 C 61.07386 67.395754 57.889398 68.055548 54.59375 68.0625 C 51.298642 68.067709 48.148392 67.418562 45.21875 66.125 C 42.43613 64.894655 40.009613 63.144034 38.0625 61 C 36.163762 58.909832 34.833682 56.584141 34.03125 54.03125 C 33.663407 52.85576 33.417425 51.220177 33.40625 50.5625 C 33.395591 49.865041 33.53125 48.46875 33.53125 48.46875 A 0.86250632 0.86250632 0 0 0 32.15625 47.71875 L 19.625 57.9375 C 17.731471 59.462882 15.367885 59.340446 14.34375 58.03125 C 13.842183 57.389666 13.714713 56.584143 13.9375 55.6875 C 14.160287 54.790857 14.753364 53.839885 15.6875 53.125 C 15.644355 53.157792 15.690376 53.105426 15.75 53.0625 L 15.78125 53.0625 L 38.6875 36.125 A 0.86250632 0.86250632 0 0 0 38.1875 34.5625 C 33.90759 34.570907 29.60959 34.568099 25.34375 34.5625 C 23.345121 34.5625 22.379166 32.856944 22.59375 31.65625 C 22.73615 30.85944 23.12938 30.241879 23.78125 29.78125 C 24.43312 29.320621 25.383047 29.03125 26.6875 29.03125 L 52 29.03125 A 0.86250632 0.86250632 0 0 0 52.53125 27.46875 C 49.797646 25.327415 47.083494 23.09663 44.34375 20.9375 C 44.332261 20.928446 44.32399 20.915301 44.3125 20.90625 C 43.87645 20.530934 43.723475 20.134607 43.75 19.78125 C 43.777412 19.416072 43.9995 19.017285 44.5625 18.625 C 45.107472 18.243797 45.856698 18.032261 46.59375 18.03125 z "
       id="path4018" />
    <path
       style="fill:#ffffff;fill-opacity:1;fill-rule:evenodd;stroke:none;opacity:0.1"
       d="M 54.8125 38.90625 C 52.730793 38.90625 50.82543 39.639719 49.40625 40.84375 C 47.964135 42.068564 47.013701 43.790052 46.90625 45.75 C 46.895233 45.949481 46.89961 46.1474 46.90625 46.34375 C 47.013701 44.383802 47.964135 42.662314 49.40625 41.4375 C 50.82543 40.233469 52.730793 39.46875 54.8125 39.46875 C 56.892882 39.46875 58.799901 40.233469 60.21875 41.4375 C 61.662456 42.662314 62.610043 44.383802 62.71875 46.34375 C 62.725435 46.147295 62.72977 45.949609 62.71875 45.75 C 62.610043 43.790052 61.662456 42.068564 60.21875 40.84375 C 58.799901 39.639719 56.892882 38.90625 54.8125 38.90625 z "
       id="path4051" />
    <path
       style="fill:url(#linearGradient4136);fill-opacity:1;fill-rule:evenodd;stroke:none;stroke-width:2;stroke-linecap:butt;stroke-linejoin:miter;stroke-miterlimit:4;stroke-dasharray:none;opacity:0.2"
       d="M 46.59375 17.15625 C 45.699564 17.157476 44.781783 17.403118 44.0625 17.90625 C 42.60414 18.9224 42.487931 20.529722 43.78125 21.59375 C 46.522555 23.75328 49.243507 25.996985 52 28.15625 L 26.6875 28.15625 C 23.80925 28.15625 22.1066 29.504614 21.75 31.5 C 21.435319 33.260778 22.844393 35.4375 25.34375 35.4375 C 29.609971 35.4431 33.906079 35.44591 38.1875 35.4375 L 15.25 52.375 C 15.22037 52.39752 15.18588 52.41498 15.15625 52.4375 C 12.995528 54.09108 12.295233 56.821542 13.65625 58.5625 C 15.041249 60.333003 17.967332 60.35709 20.15625 58.59375 L 32.6875 48.375 C 32.6875 48.375 32.518581 49.73353 32.53125 50.5625 C 32.54536 51.392873 32.822447 53.014813 33.21875 54.28125 C 33.656257 55.673154 34.249231 57.009594 35 58.28125 C 43.432702 47.074223 56.931536 39.8125 72.125 39.8125 C 72.976322 39.8125 73.816259 39.83001 74.65625 39.875 C 74.440036 39.466203 74.184049 39.052051 73.9375 38.65625 C 72.64527 36.580329 71.007328 34.779814 69.03125 33.25 L 49.0625 17.9375 C 49.04552 17.92342 49.04967 17.91891 49.03125 17.90625 C 48.375421 17.405213 47.487936 17.155024 46.59375 17.15625 z "
       id="path4134" />
  </g>
</svg>
