<?xml version="1.0" encoding="UTF-8" standalone="no"?>
<!-- Created with Inkscape (http://www.inkscape.org/) -->

<svg
   xmlns:dc="http://purl.org/dc/elements/1.1/"
   xmlns:cc="http://creativecommons.org/ns#"
   xmlns:rdf="http://www.w3.org/1999/02/22-rdf-syntax-ns#"
   xmlns:svg="http://www.w3.org/2000/svg"
   xmlns="http://www.w3.org/2000/svg"
   xmlns:xlink="http://www.w3.org/1999/xlink"
   xmlns:sodipodi="http://sodipodi.sourceforge.net/DTD/sodipodi-0.dtd"
   xmlns:inkscape="http://www.inkscape.org/namespaces/inkscape"
   width="96"
   height="96"
   id="svg2408"
   sodipodi:version="0.32"
   inkscape:version="0.92.2 5c3e80d, 2017-08-06"
   version="1.0"
   sodipodi:docname="bluegriffon.svg"
   inkscape:output_extension="org.inkscape.output.svg.inkscape">
  <defs
     id="defs2410">
    <linearGradient
       inkscape:collect="always"
       id="linearGradient4335">
      <stop
         style="stop-color:#000000;stop-opacity:1"
         offset="0"
         id="stop4337" />
      <stop
         style="stop-color:#19007b;stop-opacity:0.84705883"
         offset="1"
         id="stop4339" />
    </linearGradient>
    <inkscape:perspective
       sodipodi:type="inkscape:persp3d"
       inkscape:vp_x="0 : 48 : 1"
       inkscape:vp_y="0 : 1000 : 0"
       inkscape:vp_z="96 : 48 : 1"
       inkscape:persp3d-origin="48 : 32 : 1"
       id="perspective48" />
    <linearGradient
       id="ButtonShadow"
       gradientTransform="scale(1.0058652,0.994169)"
       x1="45.447727"
       y1="92.539597"
       x2="45.447727"
       y2="7.0165396"
       gradientUnits="userSpaceOnUse">
      <stop
         style="stop-color:#000000;stop-opacity:1;"
         offset="0"
         id="stop3750" />
      <stop
         style="stop-color:#000000;stop-opacity:0.58823532;"
         offset="1"
         id="stop3752" />
    </linearGradient>
    <linearGradient
       inkscape:collect="always"
       id="linearGradient3737">
      <stop
         style="stop-color:#ffffff;stop-opacity:1;"
         offset="0"
         id="stop3739" />
      <stop
         style="stop-color:#ffffff;stop-opacity:0;"
         offset="1"
         id="stop3741" />
    </linearGradient>
    <linearGradient
       id="linearGradient3700">
      <stop
         style="stop-color:#dad7ed;stop-opacity:1;"
         offset="0"
         id="stop3702" />
      <stop
         style="stop-color:#9e99c2;stop-opacity:1;"
         offset="1"
         id="stop3704" />
    </linearGradient>
    <filter
       inkscape:collect="always"
       id="filter3174">
      <feGaussianBlur
         inkscape:collect="always"
         stdDeviation="1.71"
         id="feGaussianBlur3176" />
    </filter>
    <filter
       inkscape:collect="always"
       id="filter3794"
       x="-0.192"
       width="1.384"
       y="-0.192"
       height="1.384">
      <feGaussianBlur
         inkscape:collect="always"
         stdDeviation="5.28"
         id="feGaussianBlur3796" />
    </filter>
    <linearGradient
       inkscape:collect="always"
       xlink:href="#linearGradient3737"
       id="linearGradient3613"
       x1="48"
       y1="20.220806"
       x2="48"
       y2="138.66119"
       gradientUnits="userSpaceOnUse" />
    <clipPath
       clipPathUnits="userSpaceOnUse"
       id="clipPath3613">
      <rect
         ry="6"
         rx="6"
         y="6"
         x="6"
         height="84"
         width="84"
         id="rect3615"
         style="fill:#ffffff;fill-opacity:1;fill-rule:nonzero;stroke:none" />
    </clipPath>
    <linearGradient
       inkscape:collect="always"
       xlink:href="#linearGradient3700"
       id="linearGradient3617"
       gradientUnits="userSpaceOnUse"
       x1="48"
       y1="90"
       x2="48"
       y2="5.9877172"
       gradientTransform="translate(0,-96)" />
    <linearGradient
       id="ButtonShadow-0"
       gradientTransform="matrix(1.0058652,0,0,0.994169,100,0)"
       x1="45.447727"
       y1="92.539597"
       x2="45.447727"
       y2="7.0165396"
       gradientUnits="userSpaceOnUse">
      <stop
         style="stop-color:#000000;stop-opacity:1;"
         offset="0"
         id="stop3750-8" />
      <stop
         style="stop-color:#000000;stop-opacity:0.58823532;"
         offset="1"
         id="stop3752-5" />
    </linearGradient>
    <linearGradient
       inkscape:collect="always"
       xlink:href="#ButtonShadow-0"
       id="linearGradient3780"
       gradientUnits="userSpaceOnUse"
       gradientTransform="matrix(1.0238095,0,0,1.0119048,-1.1428571,-98.071429)"
       x1="32.251034"
       y1="6.1317081"
       x2="32.251034"
       y2="90.238609" />
    <linearGradient
       inkscape:collect="always"
       xlink:href="#ButtonShadow-0"
       id="linearGradient3772"
       gradientUnits="userSpaceOnUse"
       gradientTransform="matrix(1.0238095,0,0,1.0119048,-1.1428571,-98.071429)"
       x1="32.251034"
       y1="6.1317081"
       x2="32.251034"
       y2="90.238609" />
    <linearGradient
       inkscape:collect="always"
       xlink:href="#ButtonShadow-0"
       id="linearGradient3725"
       gradientUnits="userSpaceOnUse"
       gradientTransform="matrix(1.0238095,0,0,1.0119048,-1.1428571,-98.071429)"
       x1="32.251034"
       y1="6.1317081"
       x2="32.251034"
       y2="90.238609" />
    <linearGradient
       inkscape:collect="always"
       xlink:href="#ButtonShadow-0"
       id="linearGradient3721"
       gradientUnits="userSpaceOnUse"
       gradientTransform="translate(0,-97)"
       x1="32.251034"
       y1="6.1317081"
       x2="32.251034"
       y2="90.238609" />
    <linearGradient
       y2="90.238609"
       x2="32.251034"
       y1="6.1317081"
       x1="32.251034"
       gradientTransform="matrix(1.0238095,0,0,1.0119048,-1.1428571,-98.071429)"
       gradientUnits="userSpaceOnUse"
       id="linearGradient3026"
       xlink:href="#ButtonShadow-0"
       inkscape:collect="always" />
    <linearGradient
       inkscape:collect="always"
       xlink:href="#linearGradient4335"
       id="linearGradient4357"
       gradientUnits="userSpaceOnUse"
       x1="-128"
       y1="64"
       x2="-67.417709"
       y2="38.740906" />
    <linearGradient
       inkscape:collect="always"
       xlink:href="#linearGradient4335"
       id="linearGradient4438"
       gradientUnits="userSpaceOnUse"
       x1="-128"
       y1="64"
       x2="-67.417709"
       y2="38.740906" />
    <linearGradient
       inkscape:collect="always"
       xlink:href="#linearGradient4335"
       id="linearGradient4450"
       gradientUnits="userSpaceOnUse"
       x1="-128"
       y1="64"
       x2="-67.417709"
       y2="38.740906"
       gradientTransform="matrix(0.706098,0,0,0.706098,130.63254,20.2435)" />
    <linearGradient
       inkscape:collect="always"
       xlink:href="#linearGradient4335"
       id="linearGradient4455"
       gradientUnits="userSpaceOnUse"
       gradientTransform="matrix(0.706098,0,0,0.706098,130.63254,21.2435)"
       x1="-128"
       y1="64"
       x2="-67.417709"
       y2="38.740906" />
    <linearGradient
       inkscape:collect="always"
       xlink:href="#linearGradient4335"
       id="linearGradient4457"
       gradientUnits="userSpaceOnUse"
       gradientTransform="matrix(0.706098,0,0,0.706098,130.63254,20.2435)"
       x1="-128"
       y1="64"
       x2="-67.417709"
       y2="38.740906" />
    <linearGradient
       id="linearGradient4390"
       x1="48"
       x2="48"
       y1="88"
       y2="-40"
       gradientTransform="matrix(1,0,0,-1,0,92)"
       gradientUnits="userSpaceOnUse"
       xlink:href="#linearGradient3737" />
    <linearGradient
       id="linearGradient4429"
       x1="48"
       x2="112.12"
       y1="82"
       y2="82.455002"
       gradientUnits="userSpaceOnUse"
       spreadMethod="reflect"
       xlink:href="#linearGradient3737" />
    <linearGradient
       id="linearGradient3228"
       x1="90"
       x2="48"
       y1="88"
       y2="88"
       gradientUnits="userSpaceOnUse"
       spreadMethod="reflect">
      <stop
         id="stop3894"
         stop-opacity=".58824"
         offset="0" />
      <stop
         id="stop3896"
         stop-opacity=".47059"
         offset=".1178" />
      <stop
         id="stop3898"
         stop-opacity=".39216"
         offset=".2381" />
      <stop
         id="stop3900"
         stop-opacity=".31373"
         offset="1" />
    </linearGradient>
  </defs>
  <sodipodi:namedview
     id="base"
     pagecolor="#ffffff"
     bordercolor="#666666"
     borderopacity="1.0"
     inkscape:pageopacity="0.0"
     inkscape:pageshadow="2"
     inkscape:zoom="4.6525043"
     inkscape:cx="40.89551"
     inkscape:cy="41.494926"
     inkscape:document-units="px"
     inkscape:current-layer="layer4"
     showgrid="true"
     showborder="true"
     inkscape:showpageshadow="false"
     inkscape:window-width="1366"
     inkscape:window-height="743"
     inkscape:window-x="0"
     inkscape:window-y="25"
     inkscape:window-maximized="1"
     inkscape:snap-global="false">
    <inkscape:grid
       type="xygrid"
       id="grid3732"
       visible="true"
       enabled="true" />
  </sodipodi:namedview>
  <metadata
     id="metadata2413">
    <rdf:RDF>
      <cc:Work
         rdf:about="">
        <dc:format>image/svg+xml</dc:format>
        <dc:type
           rdf:resource="http://purl.org/dc/dcmitype/StillImage" />
        <dc:title />
      </cc:Work>
    </rdf:RDF>
  </metadata>
  <g
     inkscape:groupmode="layer"
     id="layer2"
     inkscape:label="Blur Shadow"
     style="display:none"
     sodipodi:insensitive="true">
    <rect
       style="opacity:0.9;fill:url(#ButtonShadow);fill-opacity:1;fill-rule:nonzero;stroke:none;filter:url(#filter3174)"
       id="rect3745"
       width="86"
       height="85"
       x="5"
       y="7"
       rx="6"
       ry="6" />
  </g>
  <g
     inkscape:groupmode="layer"
     id="layer3"
     inkscape:label="Shadow"
     sodipodi:insensitive="true">
    <path
       sodipodi:type="inkscape:offset"
       inkscape:radius="0.99097413"
       inkscape:original="M 12 -94.03125 C 7.028367 -94.03125 2.96875 -89.971633 2.96875 -85 L 2.96875 -14 C 2.96875 -9.0283671 7.0283671 -4.96875 12 -4.96875 L 84 -4.96875 C 88.971633 -4.96875 93.03125 -9.028367 93.03125 -14 L 93.03125 -85 C 93.03125 -89.971633 88.971633 -94.03125 84 -94.03125 L 12 -94.03125 z "
       style="opacity:0.07999998;fill:url(#linearGradient3026);fill-opacity:1;fill-rule:nonzero;stroke:none;display:inline"
       id="path3786"
       d="m 12,-95.03125 c -5.5110903,0 -10.03125,4.52016 -10.03125,10.03125 l 0,71 c 0,5.5110902 4.5201598,10.03125 10.03125,10.03125 l 72,0 c 5.51109,0 10.03125,-4.5201597 10.03125,-10.03125 l 0,-71 c 0,-5.51109 -4.52016,-10.03125 -10.03125,-10.03125 l -72,0 z"
       transform="scale(1,-1)" />
    <path
       sodipodi:type="inkscape:offset"
       inkscape:radius="1.0360184"
       inkscape:original="M 12 -93 C 7.5908667 -93 4 -89.409133 4 -85 L 4 -14 C 4 -9.5908667 7.5908667 -6 12 -6 L 84 -6 C 88.409133 -6 92 -9.5908667 92 -14 L 92 -85 C 92 -89.409133 88.409133 -93 84 -93 L 12 -93 z "
       style="opacity:0.1;fill:url(#linearGradient3780);fill-opacity:1;fill-rule:nonzero;stroke:none;display:inline"
       id="path3778"
       d="m 12,-94.03125 c -4.971633,0 -9.03125,4.059617 -9.03125,9.03125 l 0,71 c 0,4.9716329 4.0596171,9.03125 9.03125,9.03125 l 72,0 c 4.971633,0 9.03125,-4.059617 9.03125,-9.03125 l 0,-71 c 0,-4.971633 -4.059617,-9.03125 -9.03125,-9.03125 l -72,0 z"
       transform="scale(1,-1)" />
    <path
       sodipodi:type="inkscape:offset"
       inkscape:radius="0.98962283"
       inkscape:original="M 12 -92 C 8.122 -92 5 -88.878 5 -85 L 5 -14 C 5 -10.122 8.122 -7 12 -7 L 84 -7 C 87.878 -7 91 -10.122 91 -14 L 91 -85 C 91 -88.878 87.878 -92 84 -92 L 12 -92 z "
       style="opacity:0.2;fill:url(#linearGradient3772);fill-opacity:1;fill-rule:nonzero;stroke:none;display:inline"
       id="path3770"
       d="m 12,-93 c -4.4091333,0 -8,3.590867 -8,8 l 0,71 c 0,4.4091333 3.5908667,8 8,8 l 72,0 c 4.409133,0 8,-3.5908667 8,-8 l 0,-71 c 0,-4.409133 -3.590867,-8 -8,-8 l -72,0 z"
       transform="scale(1,-1)" />
    <rect
       style="opacity:0.3;fill:url(#linearGradient3725);fill-opacity:1;fill-rule:nonzero;stroke:none;display:inline"
       id="rect3723"
       width="86"
       height="85"
       x="5"
       y="-92"
       rx="7"
       ry="7"
       transform="scale(1,-1)" />
    <rect
       transform="scale(1,-1)"
       ry="6"
       rx="6"
       y="-91"
       x="6"
       height="84"
       width="84"
       id="rect3716"
       style="opacity:0.45;fill:url(#linearGradient3721);fill-opacity:1;fill-rule:nonzero;stroke:none;display:inline" />
  </g>
  <g
     inkscape:label="Button"
     inkscape:groupmode="layer"
     id="layer1">
    <rect
       style="fill:url(#linearGradient3617);fill-opacity:1;fill-rule:nonzero;stroke:none"
       id="rect2419"
       width="84"
       height="84"
       x="6"
       y="-90"
       rx="6"
       ry="6"
       transform="scale(1,-1)" />
    <g
       id="g907">
      <path
         id="rect4377"
         d="M 12,86 C 8.676,86 6,83.324 6,80 V 12 C 6,8.676 8.676,6 12,6 h 72 c 3.324,0 6,2.676 6,6 v 68 c 0,3.324 -2.676,6 -6,6 z m 0,-0.96875 h 72 c 2.8049,0 5.0312,-2.2264 5.0312,-5.0312 v -68 c 0,-2.8049 -2.226,-5.0312 -5.031,-5.0312 h -72 c -2.8049,0 -5.0312,2.2263 -5.0312,5.0312 v 68 c 0,2.8049 2.2264,5.0312 5.0312,5.0312 z"
         style="opacity:0.3;fill:url(#linearGradient4390)"
         inkscape:connector-curvature="0" />
      <path
         id="rect4414"
         d="m 6,78 v 2 c 0,3.324 2.676,6 6,6 h 72 c 3.324,0 6,-2.676 6,-6 v -2 c 0,3.324 -2.676,6 -6,6 H 12 C 8.676,84 6,81.324 6,78 Z"
         style="opacity:0.1;fill:url(#linearGradient4429)"
         inkscape:connector-curvature="0" />
      <g
         id="layer4-3">
        <path
           style="fill:url(#linearGradient3228)"
           inkscape:connector-curvature="0"
           d="m 6,80 v 4 c 0,3.324 2.676,6 6,6 h 72 c 3.324,0 6,-2.676 6,-6 v -4 c 0,3.324 -2.676,6 -6,6 H 12 C 8.676,86 6,83.324 6,80 Z"
           id="path3888" />
        <path
           style="color:#000000;opacity:0.1"
           inkscape:connector-curvature="0"
           d="m 6,82 v 2 c 0,3.324 2.676,6 6,6 h 72 c 3.324,0 6,-2.676 6,-6 v -2 c 0,3.324 -2.676,6 -6,6 H 12 C 8.676,88 6,85.324 6,82 Z"
           id="rect4345" />
        <path
           style="color:#000000;opacity:0.15"
           inkscape:connector-curvature="0"
           d="m 6,83 v 1 c 0,3.324 2.676,6 6,6 h 72 c 3.324,0 6,-2.676 6,-6 v -1 c 0,3.324 -2.676,6 -6,6 H 12 C 8.676,89 6,86.324 6,83 Z"
           id="rect4336" />
      </g>
    </g>
  </g>
  <g
     inkscape:groupmode="layer"
     id="layer5"
     inkscape:label="Highlight"
     sodipodi:insensitive="true"
     style="display:inline">
    <rect
       style="opacity:0.1;fill:url(#linearGradient3613);fill-opacity:1;fill-rule:nonzero;stroke:#ffffff;stroke-width:0.5;stroke-linecap:round;stroke-linejoin:miter;stroke-miterlimit:4;stroke-opacity:1;stroke-dasharray:none;stroke-dashoffset:0;filter:url(#filter3794)"
       id="rect3171"
       width="66"
       height="66"
       x="15"
       y="15"
       rx="12"
       ry="12"
       clip-path="url(#clipPath3613)" />
  </g>
  <g
     inkscape:groupmode="layer"
     id="layer4"
     inkscape:label="Symbol"
     style="display:inline">
    <g
       id="g931"
       transform="translate(0,-2.0001085)">
      <path
         d="m 64.492188,12.654297 a 1.0960827,1.0960827 0 0 0 -0.101563,0.0098 c -3.045977,0.395139 -4.976235,2.807128 -5.408203,5.271485 -0.373427,2.130379 0.153458,4.288049 1.253906,6.09375 -0.76223,0.161317 -1.760095,0.295664 -2.08789,0.375 -0.407762,0.09869 -0.508484,0.09555 -0.449219,0.105469 0.05927,0.0099 -0.0241,0.01196 -0.382813,-0.302735 l 0.02734,0.02539 C 57.096396,24.0005 56.799554,23.822005 56.478516,23.712891 a 1.0960827,1.0960827 0 0 0 -0.04492,-0.01367 c -2.119963,-0.621797 -4.277687,0.02806 -5.611328,1.460937 -0.512963,0.551131 -0.794599,1.205896 -0.996094,1.876953 -0.964593,-0.122643 -1.931076,-0.270667 -3.033203,-0.123047 -2.314053,0.309948 -4.86922,1.40936 -6.353516,3.859376 -3.27e-4,5.38e-4 3.27e-4,0.0014 0,0.002 -4.96e-4,8.19e-4 -0.0015,0.0011 -0.002,0.002 -0.12063,0.199231 -0.141022,0.436601 -0.199219,0.662109 -0.07584,0.01255 -0.196336,0.06519 -0.546875,0.09375 -0.517576,0.04217 -1.192016,0.04271 -1.873047,0.05859 -0.598784,0.01396 -1.121094,0.147238 -1.55664,0.244141 l 0.318359,-0.02344 c -0.309385,-0.02259 -0.540261,0.08598 -0.572266,0.09961 -0.032,0.01363 0.123365,-0.07289 0.378907,-0.07031 a 1.0960827,1.0960827 0 0 0 -0.298828,0.03711 c 0.106757,-0.02893 0.133148,-0.01676 -0.02344,-0.01367 -0.11298,0.0022 -0.354898,0.07339 -0.576172,0.144532 l 0.002,-0.0039 c -0.003,8.16e-4 -0.0048,0.0031 -0.0078,0.0039 -0.08338,0.02716 -0.134212,0.0106 -0.216797,0.05469 a 1.0960827,1.0960827 0 0 0 -0.330078,0.271485 c -0.536962,0.221682 -1.090436,0.419574 -1.464844,0.86914 -0.164965,0.19808 -0.173577,0.26283 -0.248047,0.400391 -2.460498,0.529383 -4.321778,2.32957 -5.097656,4.49414 -0.810894,2.262258 -0.667331,4.900594 0.669922,7.066407 -0.03558,0.02499 -0.0823,0.06134 -0.115234,0.08398 -0.75948,-0.508834 -1.603598,-0.925996 -2.59961,-1.027344 -0.08488,-0.0086 -0.0593,0.01905 -0.134766,0.01758 -0.353751,-1.05681 -0.976087,-1.979606 -1.90625,-2.505859 -0.986245,-0.557982 -1.980392,-0.630185 -2.707031,-0.642578 -0.689436,-0.01176 -1.301802,-0.0044 -1.751953,-0.01953 -0.450151,-0.01518 -0.78021,-0.138854 -0.59375,-0.03906 a 1.0960827,1.0960827 0 0 0 -0.04102,-0.01953 c -0.263917,-0.127206 -0.553706,-0.202706 -0.845703,-0.226563 -1.460734,-0.156588 -2.761334,0.372816 -3.755859,1.0625 -0.997218,0.691552 -1.815987,1.613197 -2.375,2.667969 -0.40512,0.7644 -0.580835,1.666865 -0.574219,2.603516 -0.62553,0.288564 -1.280565,0.566232 -1.7324216,0.953125 C 9.0325459,48.613268 8.4856321,49.153384 8.046875,49.568359 7.6081179,49.983335 7.1987148,50.26645 7.25,50.244141 6.8310959,50.425513 6.4665828,50.729877 6.2128906,51.109375 a 1.0960827,1.0960827 0 0 0 -0.00195,0.0059 c -0.8848135,1.341528 -0.9180515,2.882547 -0.6210937,4.136719 0.2958647,1.249556 0.932619,2.371775 1.7714843,3.253906 0.8297193,0.872514 2.0546223,1.699356 3.6093749,1.652344 0.366286,-0.01107 0.58098,-0.217155 0.882813,-0.330078 0.978918,1.624924 1.817117,3.458055 2.128906,5.236328 a 1.0960827,1.0960827 0 0 0 0.01953,0.08789 c 0.0416,0.159317 0.100418,0.313548 0.173828,0.460937 l -0.03711,-0.07813 c 0.225884,0.56124 0.312006,1.605655 0.277344,1.882813 -0.723885,0.0268 -1.438722,0.350343 -1.865235,0.9375 a 1.0960827,1.0960827 0 0 0 -0.01172,0.01758 c -1.619548,2.323258 -0.947937,5.188385 0.564454,6.962891 1.287541,1.510688 3.33972,2.462412 5.517578,2.132812 0.772949,0.228769 1.92187,0.520288 3.304687,0.335938 0.846526,-0.112855 1.863215,-0.455804 2.65625,-1.306641 0.617656,-0.662675 0.77588,-1.411553 0.882813,-2.082031 A 1.0960827,1.0960827 0 0 0 25.5,74.357422 c 0.08192,-0.154413 0.06601,-0.242479 0.08789,-0.376953 0.932158,0.666014 1.906852,1.22682 2.941406,1.537109 1.954555,0.586221 3.826273,0.734596 5.275391,0.998047 a 1.0960827,1.0960827 0 0 0 0.02734,0.0039 c 0.246087,0.03824 0.490867,-0.0239 0.736328,-0.06445 0.27259,0.633815 0.774956,1.32219 1.558594,2.06836 a 1.0960827,1.0960827 0 0 0 0.292969,0.509765 c 0.329982,0.323592 0.475553,0.367924 0.341797,0.246094 2.463383,2.243761 6.051823,3.481613 9.541015,2.517578 0.72643,0.21676 1.801848,0.607892 3.167969,0.761719 1.580604,0.177978 3.639473,-0.09773 5.175781,-1.625 0.64649,0.185926 1.688458,0.352877 2.910157,0.166015 a 1.0960827,1.0960827 0 0 0 0.380859,0.05859 c 0.612464,-0.01699 0.841532,-0.183911 0.714844,-0.166015 1.667529,-0.235547 3.180495,-0.955215 4.341797,-2.03125 0.724825,-0.671607 1.139317,-1.530931 1.523437,-2.388672 1.805434,-0.170773 3.655107,-0.604063 5.355469,-1.470704 1.842954,-0.939316 3.354011,-2.388973 4.341797,-4.189453 1.604754,-0.767472 3.218084,-1.807585 4.537109,-3.271484 1.258541,-1.396771 2.038401,-3.213052 2.263672,-5.203125 1.211537,-1.514284 4.438853,-4.289659 4.734375,-8.517578 -0.007,0.100767 0.08311,-0.197438 0.107422,-0.615234 0.428621,-1.88266 -0.303084,-3.245059 -0.990234,-4.150391 2.420271,-4.216477 3.192841,-9.580628 0.693359,-14.136719 -0.15684,-0.296629 -0.415589,-0.517722 -0.679688,-0.724609 0.03301,0.06023 0.01067,0.03136 -0.02734,-0.146485 -0.05743,-0.268682 -0.0982,-0.999907 -0.132813,-1.818359 -0.03473,-0.821132 -0.08268,-1.841495 -0.423828,-2.935547 -0.353988,-1.135233 -1.083714,-2.318916 -2.308594,-3.144531 l 0.175781,0.146484 c -0.01891,-0.01956 -0.03903,-0.03969 -0.05859,-0.05859 a 1.0960827,1.0960827 0 0 0 -0.179688,-0.138672 c -0.861282,-0.540264 -1.140055,-0.844415 -1.375,-1.263672 -0.220447,-0.393387 -0.421879,-1.065223 -0.554687,-2.244141 a 1.0960827,1.0960827 0 0 0 -0.002,-0.01172 c -0.29694,-2.410644 -1.633494,-4.724971 -3.65625,-6.216796 -1.026501,-0.757067 -2.358253,-1.354016 -3.865235,-1.273438 -0.669892,0.03582 -1.17972,0.385654 -1.728515,0.664062 -0.368822,-0.490441 -0.696402,-0.992136 -1.304688,-1.484374 -1.241199,-1.004404 -2.918509,-1.79138 -4.859375,-1.712891 -0.02952,-2.4e-5 -0.05839,-0.0011 -0.08789,0 z m -30.449219,39.875 c 0.02531,0.02836 0.0098,0.04195 0.03906,0.07031 0.716573,0.693566 1.58094,0.987598 2.300781,1.107422 0.235998,0.03928 0.341806,-0.03887 0.554688,-0.03516 -0.884781,1.715153 -1.696351,3.480345 -2.345703,5.339844 -0.118479,-0.0376 -0.207792,-0.119999 -0.332031,-0.146485 -2.082314,-0.443904 -4.209024,0.780722 -5.21875,2.898438 -0.283493,-0.240698 -0.487024,-0.406516 -0.81836,-0.675781 -0.52904,-0.429934 -1.212874,-0.815738 -1.9375,-1.158203 a 1.0960827,1.0960827 0 0 0 -0.146484,-0.146485 c 0.05203,-0.0062 0.06059,-0.02913 0.11914,-0.03125 l -0.11914,-0.002 c 0.115224,0.0084 0.232432,0.0084 0.347656,0 a 1.0960827,1.0960827 0 0 0 0.126953,-0.01758 c 2.396574,-0.462355 4.072903,-2.105546 4.861328,-3.919922 0.416002,-0.957329 0.452472,-1.874158 0.519532,-2.775391 0.441947,-0.08586 0.907052,-0.149654 1.294921,-0.28125 0.300968,-0.102111 0.509622,-0.15331 0.753907,-0.226562 z M 30.152344,62.71875 c 0.04539,0.03067 0.03818,0.0047 0.105468,0.07031 0.20015,0.195266 0.221377,0.298088 0.15625,0.191407 -0.0738,-0.12089 -0.17202,-0.180986 -0.261718,-0.261719 z m -1.585938,0.125 c -0.0017,0.0064 -0.0023,0.01311 -0.0039,0.01953 -0.0012,0.0051 -0.0047,0.0086 -0.0059,0.01367 z m 6.59375,11.113281 c -0.03028,-1.69e-4 -0.08373,0.0033 -0.15039,0.01172 0.02116,-0.0025 0.0799,-0.0087 0.105468,-0.0098 0.121225,-0.0052 0.114931,-0.0016 0.04492,-0.002 z m -0.582031,0.181641 c -0.05168,0.0456 -0.100496,0.08905 -0.1875,0.166016 0.04835,-0.0556 0.10361,-0.119214 0.103516,-0.119141 -7.4e-5,5.7e-5 0.04939,-0.02777 0.08398,-0.04687 z m -0.498047,0.863281 c -0.01129,0.264346 0.02494,0.39678 0.07031,0.458985 -0.01199,-0.02926 -0.02571,-0.06475 -0.03906,-0.111329 -0.01336,-0.04658 -0.03521,-0.1802 -0.03516,-0.179687 3.3e-5,3.02e-4 0.0022,-0.0867 0.0039,-0.167969 z"
         id="path4414"
         style="opacity:0.05;fill:#ffffff;fill-opacity:1"
         inkscape:original="M 64.53125 13.75 C 61.987026 14.080049 60.421916 16.074548 60.0625 18.125 C 59.711313 20.128503 60.205105 22.231621 61.34375 23.875 C 61.370432 23.91351 61.378857 23.962038 61.40625 24 C 61.577805 24.325252 61.625863 24.504569 61.78125 24.84375 C 60.299178 24.826004 59.14615 25.289672 58.40625 25.46875 C 57.631434 25.656279 57.418536 25.754822 56.59375 25.03125 A 1.2942275 1.2942275 0 0 0 56.125 24.75 C 54.398214 24.243524 52.666487 24.787268 51.625 25.90625 C 51.062913 26.51016 50.767171 27.313175 50.65625 28.15625 C 49.498799 27.945307 48.257487 27.823199 46.9375 28 C 44.850507 28.279535 42.645079 29.244553 41.375 31.34375 A 1.2942275 1.2942275 0 0 0 41.1875 31.96875 C 41.180409 32.312409 41.174536 32.238423 41 32.34375 C 40.825464 32.449077 40.368804 32.577128 39.78125 32.625 C 39.193696 32.672872 38.50621 32.672052 37.84375 32.6875 C 37.412419 32.697558 36.944253 32.80741 36.5 32.90625 C 36.452482 32.902781 36.421511 32.937969 36.375 32.9375 C 36.175509 32.991568 36.002855 32.912948 35.78125 33.03125 L 35.78125 33.0625 C 35.156012 33.234265 34.607646 33.551857 34.3125 33.90625 C 34.083189 34.181593 34.059077 34.320356 33.9375 34.53125 C 31.620903 34.807924 29.868691 36.481159 29.15625 38.46875 C 28.356531 40.699831 28.546276 43.349651 30.125 45.28125 A 1.2942275 1.2942275 0 0 0 30.28125 45.4375 C 29.869906 45.758407 29.435352 46.076014 29.125 46.28125 C 28.798422 46.497216 28.730996 46.498648 28.65625 46.53125 C 27.888092 45.885987 26.994988 45.416923 25.96875 45.3125 C 25.667422 45.281839 25.344725 45.432609 25.03125 45.46875 C 25.034901 45.354868 25.098124 45.272381 25.09375 45.15625 A 1.2942275 1.2942275 0 0 0 25.0625 44.90625 C 24.825329 43.918234 24.247661 43.1105 23.5 42.6875 C 22.752339 42.2645 21.981924 42.198917 21.3125 42.1875 C 19.973651 42.164667 18.878632 42.219363 18.46875 42 A 1.2942275 1.2942275 0 0 0 18 41.875 C 16.863773 41.747729 15.819909 42.159737 14.96875 42.75 C 14.117591 43.340263 13.41177 44.136374 12.9375 45.03125 C 12.505846 45.845716 12.293936 46.779556 12.46875 47.75 C 11.638017 47.989261 10.933768 48.427817 10.375 48.90625 C 9.1922134 49.918984 8.2556784 51.002837 7.6875 51.25 A 1.2942275 1.2942275 0 0 0 7.125 51.71875 C 6.4470611 52.746621 6.408759 53.954746 6.65625 55 C 6.903741 56.045254 7.4483037 57.00554 8.15625 57.75 C 8.8641963 58.49446 9.7805153 59.097484 10.9375 59.0625 C 11.45039 59.046992 11.930162 58.803626 12.375 58.5 C 13.612419 60.369026 14.669896 62.635803 15.0625 64.875 A 1.2942275 1.2942275 0 0 0 15.15625 65.125 C 15.479452 65.92804 15.637172 67.073158 15.5 67.71875 C 15.431414 68.041546 15.315828 68.228729 15.21875 68.3125 C 15.121672 68.396271 14.996711 68.486888 14.5625 68.46875 A 1.2942275 1.2942275 0 0 0 13.4375 69 C 12.145199 70.853818 12.692269 73.163956 13.9375 74.625 C 15.068311 75.951794 16.886257 76.784767 18.75 76.375 C 19.478366 76.596664 20.552231 76.882597 21.78125 76.71875 C 22.455796 76.628823 23.207484 76.365586 23.78125 75.75 C 24.231605 75.26682 24.361345 74.541278 24.46875 73.8125 L 24.53125 73.84375 C 24.608102 73.698882 24.54308 73.579061 24.59375 73.4375 C 24.597166 73.375544 24.655116 73.344057 24.65625 73.28125 L 24.625 73.28125 C 24.757608 72.837775 24.843857 72.404837 24.84375 72 C 26.046727 73.193224 27.430661 74.044929 28.84375 74.46875 C 30.657881 75.012854 32.467792 75.158943 34 75.4375 A 1.2942275 1.2942275 0 0 0 35.125 75.0625 C 35.145766 75.041771 35.136972 75.049357 35.15625 75.03125 C 35.188948 75.081101 35.119864 75.018216 35.15625 75.09375 C 35.504857 75.817431 35.909713 77.271015 37.25 78.1875 L 37.1875 78.25 C 37.277401 78.33816 37.406325 78.383427 37.5 78.46875 C 39.81369 80.576164 43.206763 81.729938 46.375 80.6875 C 47.163601 80.910769 48.285771 81.32147 49.59375 81.46875 C 51.015485 81.628839 52.763652 81.415805 54 80.09375 A 1.2942275 1.2942275 0 0 0 54.25 79.71875 C 54.346829 79.732934 54.378353 79.733295 54.65625 79.8125 C 55.391186 80.021969 56.605256 80.397369 57.90625 80 L 57.90625 80.0625 C 58.118584 80.05661 58.29418 79.935323 58.5 79.90625 C 59.951607 79.701204 61.2588 79.074673 62.25 78.15625 C 63.044961 77.419658 63.603406 76.525792 63.90625 75.5625 C 65.748127 75.448801 67.663016 74.997564 69.375 74.125 C 71.174632 73.207764 72.65244 71.817748 73.5 70.0625 C 75.087033 69.33446 76.67461 68.307848 77.9375 66.90625 C 79.139582 65.572139 79.913937 63.840789 80.03125 61.90625 C 81.349435 60.191373 84.392929 57.610979 84.65625 53.84375 C 84.671612 53.623975 84.786753 53.446625 84.78125 53.21875 C 85.307722 51.289047 84.247068 49.873016 83.625 49.21875 C 86.165442 45.193426 86.994552 39.893235 84.59375 35.53125 A 1.2942275 1.2942275 0 0 0 84.125 35.03125 C 83.953436 34.928575 83.880309 34.838459 83.78125 34.375 C 83.682191 33.911541 83.659322 33.186447 83.625 32.375 C 83.590678 31.563553 83.541389 30.653229 83.25 29.71875 C 82.958611 28.784271 82.363652 27.822639 81.375 27.15625 A 1.2942275 1.2942275 0 0 0 81.34375 27.125 C 80.400103 26.533071 79.925177 26.060179 79.59375 25.46875 C 79.262323 24.877321 79.047037 24.062248 78.90625 22.8125 C 78.648935 20.723542 77.452207 18.645259 75.6875 17.34375 C 74.805147 16.692996 73.708693 16.218292 72.53125 16.28125 C 71.787498 16.321018 71.086276 16.661439 70.40625 17.125 C 69.894843 16.463885 69.448842 15.784268 68.75 15.21875 C 67.664696 14.3405 66.244858 13.684493 64.625 13.75 A 1.2942275 1.2942275 0 0 0 64.53125 13.75 z M 34.59375 51.21875 C 34.708152 51.401489 34.692072 51.665692 34.84375 51.8125 C 35.351086 52.303547 35.989212 52.529571 36.5625 52.625 C 37.346562 52.755514 37.984517 52.575097 38.65625 52.46875 C 37.22936 54.931087 36.052006 57.625092 35.15625 60.4375 C 34.813013 60.201112 34.435014 60.023574 34.03125 59.9375 C 32.233006 59.554153 30.162781 60.801225 29.625 63.125 A 1.2942275 1.2942275 0 0 0 29.59375 63.28125 C 29.576001 63.468748 29.556859 63.479027 29.53125 63.59375 C 29.437506 63.555492 29.559064 63.583784 29.3125 63.40625 C 28.819373 63.051182 28.19776 62.479151 27.53125 61.9375 C 26.893664 61.419355 26.243021 60.950449 25.40625 60.65625 L 25.4375 60.625 C 24.823186 60.345859 24.562555 60.074259 24.46875 59.90625 C 24.374945 59.738241 24.388526 59.664358 24.4375 59.53125 C 24.535447 59.265035 25.132667 58.695666 26.21875 58.65625 A 1.2942275 1.2942275 0 0 0 26.40625 58.65625 C 28.425305 58.266727 29.806859 56.898186 30.46875 55.375 C 30.929367 54.314999 31.031719 53.209121 31.0625 52.125 C 31.74225 52.056323 32.378861 51.908284 32.9375 51.71875 C 33.597551 51.494809 34.085765 51.356067 34.59375 51.21875 z "
         inkscape:radius="1.0959731"
         sodipodi:type="inkscape:offset" />
      <path
         d="m 64.634766,13.738281 a 1.2942275,1.2942275 0 0 0 -0.113282,0.0098 c -2.544224,0.330049 -4.101521,2.312829 -4.460937,4.363281 -0.359416,2.050452 0.163022,4.238528 1.359375,5.896484 l -0.08789,-0.140624 c 0.18987,0.34964 0.253408,0.573499 0.429688,0.957031 -1.473224,-0.01347 -2.608761,0.464216 -3.345703,0.642578 -0.774817,0.187529 -0.987715,0.284119 -1.8125,-0.439453 a 1.2942275,1.2942275 0 0 0 -0.490235,-0.269532 c -1.726786,-0.506475 -3.440934,0.03141 -4.482422,1.150391 -0.562462,0.604314 -0.879586,1.394568 -0.990234,2.238281 -1.155956,-0.21006 -2.397123,-0.319075 -3.714844,-0.142578 -2.086992,0.279535 -4.294374,1.226976 -5.564453,3.326172 a 1.2942275,1.2942275 0 0 0 -0.185547,0.642578 c -0.0071,0.34366 7.09e-4,0.259908 -0.173828,0.365235 -0.174536,0.105326 -0.640962,0.233378 -1.228515,0.28125 -0.587554,0.04787 -1.275041,0.03924 -1.9375,0.05469 -0.579932,0.01352 -1.143462,0.05823 -1.785157,0.324219 -0.755058,0.112107 -1.386092,0.507984 -1.722656,0.912109 -0.221897,0.266441 -0.267712,0.393389 -0.388672,0.601563 -2.319905,0.274162 -4.054474,1.953921 -4.767578,3.943359 -0.799719,2.231081 -0.627552,4.900432 0.951172,6.832031 a 1.2942275,1.2942275 0 0 0 0.142578,0.146485 c -0.404536,0.315474 -0.836528,0.66089 -1.142578,0.863281 -0.323708,0.214068 -0.372033,0.210982 -0.449219,0.244141 -0.771008,-0.655104 -1.682259,-1.115436 -2.716797,-1.220704 -0.29403,-0.02992 -0.602407,0.122892 -0.908203,0.15625 0.0035,-0.111841 0.06094,-0.192631 0.05664,-0.30664 a 1.2942275,1.2942275 0 0 0 -0.03516,-0.253906 c -0.237171,-0.988017 -0.82851,-1.811375 -1.576171,-2.234375 -0.747662,-0.423001 -1.510264,-0.484677 -2.179688,-0.496094 -1.338849,-0.02283 -2.449493,0.04944 -2.859375,-0.169922 a 1.2942275,1.2942275 0 0 0 -0.466797,-0.144531 c -1.136227,-0.127271 -2.178137,0.280831 -3.029297,0.871094 -0.851159,0.590262 -1.547214,1.382467 -2.021484,2.277343 -0.432733,0.816503 -0.654065,1.759367 -0.476562,2.732422 -0.829728,0.239449 -1.513976,0.68018 -2.072266,1.158203 C 9.2058853,49.92289 8.2713034,51.002837 7.703125,51.25 a 1.2942275,1.2942275 0 0 0 -0.5644531,0.474609 c -0.6779389,1.027871 -0.7279598,2.239903 -0.4804688,3.285157 0.2474911,1.045253 0.7764287,1.987961 1.484375,2.732422 0.7079463,0.74446 1.6379372,1.355296 2.7949219,1.320312 0.511602,-0.01547 0.99156,-0.246589 1.435547,-0.548828 1.236416,1.86854 2.302938,4.127348 2.695312,6.365234 a 1.2942275,1.2942275 0 0 0 0.07422,0.259766 c 0.323202,0.80304 0.482875,1.948158 0.345703,2.59375 -0.06859,0.322796 -0.178312,0.490448 -0.27539,0.574219 -0.09708,0.08377 -0.223993,0.168528 -0.658203,0.15039 A 1.2942275,1.2942275 0 0 0 13.4375,69.009766 c -1.292301,1.853817 -0.747184,4.158096 0.498047,5.61914 1.13461,1.331252 2.969584,2.162152 4.839844,1.742188 0.728932,0.220918 1.786124,0.517296 3,0.355468 0.674545,-0.08993 1.434046,-0.362929 2.007812,-0.978515 0.515365,-0.552929 0.728429,-1.363369 0.794922,-2.222656 0.207662,-0.536454 0.27823,-1.048941 0.277344,-1.53125 1.201543,1.189001 2.566217,2.035986 3.976562,2.458984 1.814132,0.544104 3.622089,0.698006 5.154297,0.976563 a 1.2942275,1.2942275 0 0 0 1.146484,-0.357422 c 0.0034,-0.0034 0.0025,-6.1e-4 0.0059,-0.0039 0.01206,0.02233 -0.0083,-0.0058 0.0039,0.01953 0.378412,0.785552 0.689482,2.494827 2.347656,3.36914 L 37.1875,78.236328 c 2.311591,2.266821 5.893483,3.542833 9.191406,2.455078 0.788491,0.2229 1.913277,0.617968 3.22461,0.765625 1.421735,0.160089 3.167948,-0.03146 4.404296,-1.353515 A 1.2942275,1.2942275 0 0 0 54.25,79.726562 c 0.100637,0.01449 0.133481,0.0107 0.404297,0.08789 0.850038,0.242276 2.305029,0.941533 3.841797,0.101563 l -0.585938,0.158203 c 1.709882,-0.04743 3.219823,-0.881044 4.351563,-1.929688 0.795843,-0.73741 1.328496,-1.623251 1.630859,-2.58789 1.845544,-0.112115 3.75889,-0.551314 5.47461,-1.425782 1.813305,-0.924205 3.32175,-2.316363 4.164062,-4.091797 1.57258,-0.727346 3.156976,-1.748065 4.408203,-3.136718 1.19606,-1.327428 1.979,-3.050203 2.103516,-4.972656 1.393227,-1.814829 4.849901,-4.574239 4.75,-8.710938 l -0.136719,0.613281 c 1.083851,-2.148541 -0.316065,-3.846588 -1.019531,-4.59375 2.542617,-4.025799 3.366497,-9.341545 0.964843,-13.705078 a 1.2942275,1.2942275 0 0 0 -0.46875,-0.488281 c -0.171563,-0.102675 -0.254456,-0.214275 -0.353515,-0.677734 -0.09906,-0.46346 -0.121928,-1.180741 -0.15625,-1.992188 -0.03432,-0.811447 -0.08361,-1.725677 -0.375,-2.660156 -0.291389,-0.934479 -0.880488,-1.901971 -1.869141,-2.56836 a 1.2942275,1.2942275 0 0 0 -0.03516,-0.02344 c -0.943647,-0.591929 -1.420526,-1.07068 -1.751953,-1.662109 -0.331427,-0.59143 -0.540854,-1.386971 -0.681641,-2.636719 a 1.2942275,1.2942275 0 0 0 0,-0.01367 c -0.257315,-2.088958 -1.465762,-4.177007 -3.230468,-5.478516 -0.882354,-0.650754 -1.959276,-1.103973 -3.136719,-1.041015 -0.742559,0.0397 -1.459534,0.373761 -2.138672,0.835937 -0.510902,-0.660142 -0.962323,-1.345455 -1.660156,-1.910156 -1.085304,-0.878251 -2.489518,-1.544023 -4.109375,-1.478516 z M 22.398438,47.523438 c -0.007,0.02074 0.0025,0.03031 -0.0039,0.05078 -0.0052,0.01933 -0.02058,0.03326 -0.02539,0.05273 z m 12.1875,3.714843 c 0.111172,0.173924 0.106566,0.423735 0.251953,0.564453 0.507336,0.491047 1.135696,0.719024 1.708984,0.814454 0.784211,0.130539 1.437546,-0.03034 2.109375,-0.136719 -1.427772,2.464765 -2.601587,5.163175 -3.496094,7.978515 -0.3464,-0.240842 -0.722269,-0.436334 -1.130859,-0.523437 -1.798244,-0.383347 -3.878235,0.855913 -4.416016,3.179687 a 1.2942275,1.2942275 0 0 0 -0.02734,0.169922 c -0.01726,0.182379 -0.03561,0.185268 -0.06055,0.298828 -0.102001,-0.04053 0.02477,-0.0092 -0.201172,-0.171875 -0.493128,-0.355067 -1.128412,-0.919286 -1.794922,-1.460937 -0.66651,-0.541651 -1.334715,-1.085421 -2.228516,-1.371094 l 0.140625,0.05469 c -0.614314,-0.279141 -0.878851,-0.572226 -0.972656,-0.740235 -0.0938,-0.168008 -0.08608,-0.222361 -0.03711,-0.355469 0.09795,-0.266215 0.685401,-0.831677 1.771484,-0.871093 a 1.2942275,1.2942275 0 0 0 0.199219,-0.02148 c 2.019055,-0.389523 3.400609,-1.752204 4.0625,-3.27539 0.45918,-1.056696 0.589456,-2.16312 0.621094,-3.244141 0.674605,-0.06984 1.310252,-0.219909 1.865234,-0.408203 0.655483,-0.222392 1.129083,-0.342933 1.634766,-0.480469 z"
         id="path4410"
         style="opacity:0.07999998;fill:#ffffff;fill-opacity:1"
         inkscape:original="M 64.6875 15.03125 C 60.639162 15.55642 60.537771 20.573968 62.46875 23.25 C 63.384068 24.935537 64.837208 27.767651 61.90625 26.09375 C 59.427614 25.979991 57.942262 27.923238 55.75 26 C 53.170181 25.243325 51.092786 27.591099 52.09375 29.8125 C 49.568673 28.856626 44.503631 28.636733 42.46875 32 C 42.41027 34.834282 37.638847 33.529487 36.40625 34.1875 C 35.483535 34.12014 35.000752 35.226082 34.71875 35.6875 C 30.396622 35.50001 28.694092 41.494488 31.125 44.46875 C 32.237651 45.319557 33.951457 44.841415 34.65625 43.75 C 35.877676 42.418739 39.098916 43.652518 35.90625 43.96875 C 32.928192 43.98123 30.045144 48.071211 28.375 47.9375 C 27.370722 46.568611 24.163471 45.758934 23.625 47.9375 C 23.339896 48.781123 24.488703 50.132161 23.21875 50.03125 C 22.563497 49.398881 23.86773 46.685033 23.8125 45.21875 C 23.109774 42.291306 19.785254 44.195314 17.84375 43.15625 C 14.952407 42.832386 11.532729 48.095685 15.34375 49.0625 C 16.808093 48.726858 15.930639 51.041337 14.9375 49.25 C 11.874121 47.641747 10.353876 51.508699 8.21875 52.4375 C 6.4788335 55.07551 10.8066 60.25678 12.5625 56.375 C 14.358097 58.540925 15.818201 61.658807 16.34375 64.65625 C 17.155304 66.672668 17.238602 69.864396 14.5 69.75 C 12.66337 72.384662 15.997016 76.116807 18.875 75.0625 C 20.208419 75.473106 23.320469 76.270805 23.375 73.25 C 24.221313 71.654684 22.422656 67.288503 24.875 70.25 C 27.1896 73.533516 30.987721 73.568846 34.21875 74.15625 C 36.468567 71.910402 36.247239 76.338881 38.09375 77.3125 C 40.21311 79.390813 43.616742 80.557372 46.4375 79.375 C 48.18235 79.834677 51.31309 81.089433 53.0625 79.21875 C 53.534675 77.145512 56.178903 79.708307 57.875 78.78125 C 60.437708 78.71016 62.989001 76.0906 62.90625 74.375 C 66.663984 74.46873 71.552236 72.335731 72.6875 69.03125 C 75.757245 67.697492 78.998393 64.952013 78.875 61.3125 C 80.408368 59.221616 83.582277 56.65692 83.5 53.25 C 84.38721 51.491265 82.496576 49.892576 82.09375 49.375 C 84.82299 45.643753 85.744708 40.291408 83.46875 36.15625 C 81.279767 34.846218 83.558959 30.175285 80.65625 28.21875 C 78.549198 26.897043 77.923887 25.621935 77.625 22.96875 C 77.218564 19.669188 73.252632 15.367507 70.25 18.90625 C 68.987856 17.01847 67.181446 14.930395 64.6875 15.03125 z M 54.0625 36.34375 C 54.478505 38.155333 55.42821 39.922028 54.90625 41.8125 C 53.293513 40.563287 50.375514 40.443893 53.09375 38.59375 C 53.602054 37.933874 53.914543 37.158744 54.0625 36.34375 z M 35.25 49.71875 C 35.619634 53.924187 44.357515 48.285742 39.9375 52.8125 C 37.856298 56.367424 35.978427 60.240962 35.375 64.34375 C 36.238578 60.805247 31.705618 59.817113 30.875 63.40625 C 30.474076 67.641637 27.113504 62.517973 24.90625 61.8125 C 21.724745 60.366842 23.168283 57.483439 26.15625 57.375 C 29.398344 56.749524 30.018943 53.469865 29.8125 50.8125 C 31.624046 51.255196 33.448624 49.885077 35.25 49.71875 z "
         inkscape:radius="1.2940981"
         sodipodi:type="inkscape:offset" />
      <path
         inkscape:connector-curvature="0"
         id="path4404"
         d="m 64.6875,15.03125 c -4.048338,0.52517 -4.139721,5.551756 -2.208742,8.227788 0.915318,1.685537 2.349283,4.494532 -0.581675,2.820631 -2.478636,-0.113759 -3.955882,1.839068 -6.148144,-0.08417 -2.579819,-0.756675 -4.656153,1.595602 -3.655189,3.817003 -2.525077,-0.955874 -7.590651,-1.17583 -9.625532,2.187437 -0.05848,2.834282 -4.829371,1.52955 -6.061968,2.187563 -0.922715,-0.06736 -1.405498,1.038582 -1.6875,1.5 -4.322128,-0.18749 -6.024658,5.806988 -3.59375,8.78125 1.112651,0.850807 2.826457,0.372665 3.53125,-0.71875 1.221426,-1.331261 4.454942,-0.113105 1.262276,0.203127 -2.978058,0.01248 -5.863076,4.12443 -7.53322,3.990719 -1.004278,-1.368889 -4.221835,-2.184866 -4.760306,-0.0063 -0.285104,0.843623 0.863703,2.194661 -0.40625,2.09375 -0.655253,-0.632369 0.64898,-3.346217 0.59375,-4.8125 -0.702726,-2.927444 -4.027246,-1.023436 -5.96875,-2.0625 -2.891343,-0.323864 -6.311021,4.939435 -2.5,5.90625 1.464343,-0.335642 0.574607,1.992189 -0.418532,0.200852 -3.063379,-1.608253 -4.571342,2.245347 -6.706468,3.174148 -1.7399165,2.63801 2.58785,7.81928 4.34375,3.9375 1.795597,2.165925 3.267696,5.293181 3.793245,8.290624 0.811554,2.016418 0.882857,5.198772 -1.855745,5.084376 -1.83663,2.634662 1.497016,6.366807 4.375,5.3125 1.333419,0.410606 4.460172,1.198492 4.514703,-1.822313 C 24.236016,71.644919 22.422656,67.288503 24.875,70.25 c 2.3146,3.283516 6.11802,3.304898 9.349049,3.892302 2.249817,-2.245848 2.013399,2.187721 3.85991,3.16134 2.11936,2.078313 5.532783,3.25373 8.353541,2.071358 1.74485,0.459677 4.87559,1.714433 6.625,-0.15625 0.472175,-2.073238 3.10326,0.50415 4.799357,-0.422907 2.562708,-0.07109 5.13863,-2.707844 5.055879,-4.423444 3.757734,0.09373 8.6267,-2.045068 9.761964,-5.349549 3.069745,-1.333758 6.318693,-4.070837 6.1953,-7.71035 1.533368,-2.090884 4.701595,-4.66152 4.619318,-8.06844 0.88721,-1.758735 -0.985677,-3.364798 -1.388503,-3.882374 2.72924,-3.731247 3.638893,-9.070278 1.362935,-13.205436 -2.188983,-1.310032 0.10551,-5.967081 -2.797199,-7.923616 C 78.564499,26.910927 77.930507,25.608363 77.63162,22.955178 77.225184,19.655616 73.252632,15.367507 70.25,18.90625 c -1.262144,-1.88778 -3.068554,-3.975855 -5.5625,-3.875 z m -6.75,13.53125 c 0.066,0.244704 0.113361,0.260285 0,0 z m -3.875,7.78125 c 0.416005,1.811583 1.36571,3.578278 0.84375,5.46875 -1.612737,-1.249213 -4.517222,-1.367856 -1.798986,-3.217999 0.508304,-0.659876 0.807279,-1.435757 0.955236,-2.250751 z m -20.4375,6.5 c 0.167186,-0.0603 -0.03947,0.09757 0,0 z m 1.625,6.875 c 0.369634,4.205437 9.115765,-1.425467 4.69575,3.101291 -2.081202,3.554924 -3.967323,7.420921 -4.57075,11.523709 0.863578,-3.538503 -3.666443,-4.535321 -4.497061,-0.946184 -0.400924,4.235387 -3.757272,-0.866065 -5.964526,-1.571538 -3.181505,-1.445658 -1.743142,-4.343364 1.244825,-4.451803 3.242094,-0.625476 3.860705,-3.90436 3.654262,-6.561725 1.811546,0.442696 3.636124,-0.927423 5.4375,-1.09375 z"
         style="opacity:0.1;fill:#ffffff;fill-opacity:1" />
      <path
         d="m 64.744141,15.777344 c -0.76588,0.05558 -1.4678,0.482464 -1.970703,1.08789 -0.607341,0.731161 -0.90025,1.65566 -0.806641,2.574219 0.108769,1.067572 0.456734,2.001848 1.595703,4.265625 0.610376,1.213172 0.748946,1.559635 0.951172,2.494141 0.246468,1.138977 0.30754,2.215625 0.332031,3.474609 -0.266039,-0.874254 -0.628872,-1.635151 -1.240234,-2.15039 -0.752942,-0.63456 -1.775018,-0.832139 -2.808594,-0.675782 -0.298459,0.04515 -0.632373,0.12221 -0.933594,0.205078 -0.15061,0.04143 -0.29018,0.08258 -0.421875,0.13086 -0.06585,0.02414 -0.129025,0.04746 -0.207031,0.08594 -0.07801,0.03847 -0.16013,0.02629 -0.376953,0.296875 -4.81e-4,6e-4 -0.107807,0.159258 -0.134766,0.222656 -0.02696,0.0634 -0.04066,0.114699 -0.05078,0.158204 -0.02025,0.08701 -0.02373,0.142608 -0.02539,0.1875 -0.0033,0.08978 0.0027,0.138037 0.0078,0.179687 0.0039,0.03212 0.0091,0.05069 0.01367,0.07617 -1.136855,-1.080344 -2.410301,-1.788823 -3.785157,-1.708984 -0.328055,0.01905 -0.654994,0.07951 -0.955078,0.152343 -0.150042,0.03642 -0.290151,0.07643 -0.423828,0.123047 -0.133676,0.04662 -0.215714,0.02596 -0.49414,0.265625 -0.05699,0.04906 -0.285021,0.337973 -0.332032,0.550782 -0.04701,0.212808 -0.02486,0.32665 -0.01172,0.43164 0.02629,0.209981 0.07481,0.415438 0.173828,0.810547 0.04446,0.177412 0.249042,0.911946 0.316406,1.167969 -0.0339,0.01504 -0.07965,0.02388 -0.125,0.04297 -0.154086,0.06487 -0.35298,0.152526 -0.613281,0.273438 -0.337875,0.156946 -0.974447,0.472861 -1.539063,0.75 0.0031,-0.170494 0.03439,-0.268572 -0.05078,-0.566406 -0.04493,-0.157114 -0.17909,-0.390986 -0.335937,-0.523438 -0.156848,-0.132452 -0.268457,-0.167475 -0.316407,-0.1875 -0.387487,-0.161828 -0.432643,-0.105596 -0.626953,-0.11914 -0.19431,-0.01355 -0.417133,-0.01848 -0.654297,-0.01563 -0.483636,0.0059 -0.959087,0.04714 -1.302734,0.105468 -1.795203,0.304733 -3.304452,0.93694 -4.224609,2.048829 -0.529807,0.640209 -0.680448,1.441597 -0.642579,2.242187 -0.06977,0.008 -0.104723,0.01279 -0.18164,0.02148 -0.648168,0.07325 -1.541773,0.170775 -2.517578,0.273438 -1.60357,0.168706 -2.489586,0.280617 -2.96875,0.347656 -0.05162,0.0072 -0.136751,0.02105 -0.228516,0.03516 -0.05116,0.0079 -0.09083,0.0147 -0.123047,0.01953 -0.01451,-9.2e-5 -0.02752,1.92e-4 -0.04492,0 -0.02875,-3.18e-4 -0.05814,-0.0017 -0.08398,-0.002 -0.01292,-1.11e-4 -0.02344,-8.3e-5 -0.03906,0 -0.0078,4.1e-5 -0.01556,0.0013 -0.03516,0.002 -0.0098,3.34e-4 -0.0205,-8.82e-4 -0.05273,0.002 -0.01611,0.0014 -0.0858,0.01169 -0.08594,0.01172 -6.8e-5,1.3e-5 -0.119099,0.02928 -0.11914,0.0293 0,0 -0.08789,0.0332 -0.08789,0.0332 0,0 -0.148437,0.08203 -0.148438,0.08203 l -0.144531,0.117187 c -1.31e-4,1.31e-4 -0.193242,0.280991 -0.193359,0.28125 -1.17e-4,2.59e-4 -0.04156,0.108468 -0.05078,0.142578 -0.01845,0.06822 -0.02189,0.101588 -0.02539,0.128907 -0.007,0.05464 -0.0071,0.07751 -0.0078,0.09766 -0.0014,0.0403 -3.99e-4,0.05886 0,0.07813 5.03e-4,0.02435 0.0014,0.03344 0.002,0.04687 -0.0011,0.01549 -0.0033,0.02162 -0.002,0.06836 6.2e-4,0.02098 0.0075,0.06766 0.01172,0.103516 l -0.0039,-0.0098 c 9.04e-4,0.0074 0.0049,0.01806 0.0059,0.02539 0.0031,0.02228 0.001,0.02749 0.0078,0.05859 0.0058,0.02669 0.01974,0.06336 0.03516,0.107422 0.02436,0.135871 0.08364,0.341022 0.128906,0.498046 -0.359689,-0.113894 -0.700673,-0.385072 -1.070312,-0.402343 -0.971954,-0.0454 -1.874087,0.326776 -2.548828,0.986328 -0.01877,0.01833 -0.03131,0.03124 -0.04102,0.04102 -0.275231,0.275697 -0.548559,0.57116 -0.773437,1.033204 -0.317075,0.651469 -0.488862,1.328983 -0.53125,2.080078 -0.05376,0.952241 0.133602,1.958693 0.482421,2.769531 l 0.09375,0.216797 A 0.94440718,0.94440718 0 0 0 32.25,44.130859 h 0.375 c 0.123366,0 0.232373,0.0028 0.394531,-0.02734 0.107643,-0.02003 0.209188,-0.07708 0.3125,-0.126954 0.117895,-0.04682 0.302296,-0.132216 0.425781,-0.28125 a 0.94440718,0.94440718 0 0 0 0.002,0 c 0.03878,-0.04694 0.03903,-0.08062 0.06445,-0.121093 a 0.94440718,0.94440718 0 0 0 0.05859,-0.06445 c -0.0417,0.05011 -0.0371,0.04001 -0.05469,0.05469 0.0016,-0.0026 0.0024,-0.0053 0.0039,-0.0078 0.05986,-0.0539 0.146124,-0.132171 0.208985,-0.228516 0.216335,-0.331572 0.726985,-0.690098 1.373046,-0.849609 0.30721,-0.07584 1.371185,-0.09561 1.902344,0.0098 1.032527,0.204828 1.8834,0.674524 2.513672,1.19336 -0.246363,0.04521 -0.40214,0.05544 -0.675781,0.111328 -3.694888,0.754709 -6.70873,2.034145 -8.589844,3.83789 -0.211765,0.203056 -0.418644,0.436471 -0.591797,0.646485 -0.08658,0.105007 -0.161358,0.20083 -0.228515,0.294922 -0.03358,0.04705 -0.06433,0.09253 -0.101563,0.15625 -0.01861,0.03186 -0.0396,0.06702 -0.06641,0.128906 -0.0268,0.06189 -0.08203,0.122035 -0.08203,0.392578 0,0.0062 -0.0033,0.01812 0.002,0.08203 0.0026,0.03196 0.02726,0.159839 0.02734,0.160157 4.1e-5,1.58e-4 0.05659,0.158085 0.05664,0.158203 5.4e-5,1.18e-4 0.142509,0.222576 0.142578,0.222656 6.9e-5,8e-5 0.277258,0.218705 0.277344,0.21875 8.6e-5,4.5e-5 0.324115,0.10155 0.324219,0.101562 5.4e-5,7e-6 0.06389,-0.0015 0.126953,-0.002 -8.25e-4,-8e-6 -0.0011,0.002 -0.002,0.002 1.22e-4,3e-6 0.01588,-0.0018 0.01953,-0.002 0.0468,-3.17e-4 0.09761,7e-6 0.09766,0 3.1e-5,-4e-6 0.02198,-0.005 0.03516,-0.0078 0.0023,-2.4e-4 0.0083,2.2e-4 0.0098,0 0.02493,-0.0037 0.03815,-0.0054 0.05078,-0.0078 0.02526,-0.0049 0.04254,-0.0095 0.06055,-0.01367 0.03602,-0.0083 0.07304,-0.01763 0.119141,-0.0293 0.0922,-0.02332 0.215335,-0.0548 0.369141,-0.0957 0.307611,-0.08181 0.735934,-0.198526 1.246093,-0.33789 1.020319,-0.278729 2.368989,-0.650769 3.716797,-1.025391 0.157276,-0.04371 0.276839,-0.07746 0.433594,-0.121094 -0.0077,0.0068 -0.01777,0.01276 -0.02539,0.01953 -0.106499,0.0946 -0.202457,0.186497 -0.296875,0.292968 -0.04721,0.05324 -0.09558,0.106731 -0.152344,0.195313 -0.05677,0.08858 -0.169921,0.178271 -0.169921,0.564453 0,0.243731 0.137614,0.555389 0.304687,0.714844 0.167073,0.159455 0.31488,0.209425 0.421875,0.242187 0.213991,0.06553 0.332026,0.06085 0.474609,0.0625 0.285168,0.0033 0.63141,-0.02366 1.181641,-0.08008 0.52315,-0.05366 0.908181,-0.141776 1.255859,-0.191406 1.988658,-0.283888 3.429051,-0.693258 4.601563,-1.457031 0.915413,-0.596299 1.558992,-1.478131 1.986328,-2.451172 0.633099,0.332412 1.247208,0.52824 1.84375,0.599609 -2.333344,0.822128 -4.380871,2.26172 -6.068359,4.265625 -1.573199,1.868186 -2.888388,4.216131 -4.154297,7.382813 -0.391001,0.978102 -1.177724,3.144084 -1.398438,3.847656 -0.467387,1.489904 -0.710069,3.068726 -0.777343,4.757812 -0.145164,-0.358843 -0.200298,-0.631616 -0.40625,-1.066406 -0.592402,-1.250671 -0.672863,-1.535446 -0.759766,-2.242187 -0.04128,-0.335723 -0.05983,-0.601783 0,-1.080078 0.0085,-0.06787 0.01916,-0.107187 0.02539,-0.242188 0.0031,-0.0675 0.03079,-0.156935 -0.06055,-0.40625 -0.04567,-0.124657 -0.144332,-0.306768 -0.328125,-0.443359 -0.183794,-0.136592 -0.41838,-0.1875 -0.574219,-0.1875 -0.432303,0 -0.474182,0.117047 -0.550781,0.166015 -0.0766,0.04897 -0.122589,0.08649 -0.167969,0.125 -0.09076,0.07702 -0.168663,0.155065 -0.25,0.240235 -0.162675,0.170339 -0.325014,0.356567 -0.46875,0.568359 -0.631669,0.930733 -1.075798,2.183003 -1.335938,3.681641 -0.038,0.218865 -0.0289,0.581256 -0.04492,0.796875 -0.201779,-0.239032 -0.344463,-0.549611 -0.589844,-0.785157 -0.751836,-0.721704 -1.494426,-1.296442 -3.644531,-2.675781 -1.798788,-1.153962 -2.509681,-1.69472 -3.152344,-2.339844 -0.839558,-0.84276 -1.067114,-1.314483 -1.101563,-2.09375 -0.02968,-0.670609 0.0088,-0.760994 0.414063,-1.167968 0.435979,-0.437843 0.835047,-0.666793 2.578125,-1.273438 0.960416,-0.334252 1.648487,-0.607405 2.201172,-0.925781 0.552684,-0.318377 0.994754,-0.734421 1.242187,-1.238281 0.07778,-0.15841 0.156089,-0.388675 0.177735,-0.585938 0.02164,-0.197263 0.01176,-0.313559 0.01172,-0.486328 -4.6e-5,-0.15489 0.01076,-0.254517 0.002,-0.429688 -0.008,-0.15952 -0.07276,-0.395768 -0.15625,-0.578124 0.126608,-0.08252 0.266265,-0.107386 0.341797,-0.238282 0.149265,-0.258678 0.117212,-0.318028 0.125,-0.380859 0.0078,-0.06283 0.0089,-0.102507 0.0098,-0.140625 0.0017,-0.07624 -2.76e-4,-0.141828 -0.0039,-0.212891 -0.0073,-0.142126 -0.02113,-0.303018 -0.03906,-0.474609 -0.03586,-0.343182 -0.07773,-0.68559 -0.146484,-0.978516 a 0.94440718,0.94440718 0 0 0 0,-0.002 c -0.319251,-1.359818 -1.343285,-2.382397 -2.71875,-2.730469 -0.244511,-0.06187 -0.414193,-0.121408 -0.744141,-0.15039 a 0.94440718,0.94440718 0 0 0 -0.08203,-0.002 h -0.15625 a 0.94440718,0.94440718 0 0 0 -0.943359,0.943359 v 0.125 a 0.94440718,0.94440718 0 0 0 0.0039,0.08789 c 0.04547,0.487632 0.18015,1.103546 0.365234,1.611328 0.113216,0.310608 0.345145,0.523119 0.515625,0.789062 -0.342101,-0.04851 -0.594847,-0.158923 -0.980468,-0.18164 a 0.94440718,0.94440718 0 0 0 -0.05469,0 h -0.5 a 0.94440718,0.94440718 0 0 0 -0.662109,0.269531 l -1.310547,1.287109 c 0.121118,-0.636874 0.22398,-1.180761 0.36914,-1.935547 0.255474,-1.3284 0.497753,-2.548201 0.675782,-3.443359 0.08901,-0.447579 0.161768,-0.813728 0.21289,-1.072266 0.02556,-0.129268 0.04434,-0.232152 0.05859,-0.30664 0.0071,-0.03724 0.01279,-0.06688 0.01758,-0.09375 0.0024,-0.01344 0.0051,-0.02566 0.0078,-0.04297 0.0014,-0.0087 0.0037,-0.01811 0.0059,-0.03516 0.0021,-0.01705 0.0059,-0.12039 0.0059,-0.121094 0,-0.09654 -0.01037,-0.394711 -0.238281,-0.660156 -0.227909,-0.265446 -0.494878,-0.320922 -0.628906,-0.341797 -0.268057,-0.04175 -0.361434,-0.01704 -0.572266,-0.0039 -0.677702,0.04214 -1.397918,0.209241 -2.001953,0.496093 -0.04941,0.02347 -0.07101,0.07852 -0.119141,0.103516 -0.0029,-0.153399 -0.0331,-0.423724 -0.277343,-0.667969 -6.42e-4,-6.41e-4 -0.15706,-0.129461 -0.216797,-0.162109 -0.05974,-0.03265 -0.107092,-0.05075 -0.146484,-0.06445 -0.07879,-0.0274 -0.127925,-0.0364 -0.167969,-0.04297 -0.08009,-0.01313 -0.124413,-0.0146 -0.164063,-0.01563 -0.0793,-0.002 -0.135033,0.0018 -0.197265,0.0059 -0.124465,0.0081 -0.259259,0.02269 -0.404297,0.04102 -0.290077,0.03665 -0.589169,0.08128 -0.84961,0.146484 -1.22768,0.307421 -2.163522,1.233932 -2.576172,2.498047 -0.03251,0.09963 -0.06528,0.203935 -0.09375,0.300781 -0.01423,0.04842 -0.02624,0.09363 -0.03906,0.146485 -0.01282,0.05285 -0.03711,0.05541 -0.03711,0.283203 0,0.106401 -0.0135,0.36679 0.232421,0.662109 0.245923,0.29532 0.612302,0.360324 0.779297,0.361329 0.333991,0.002 0.415919,-0.05643 0.621094,-0.113282 0.558403,-0.154741 0.95082,-0.522775 1.402344,-0.818359 -0.177324,0.424111 -0.417715,0.791217 -0.517578,1.28125 -0.17286,0.848249 -0.201587,1.886732 -0.22461,3.582031 -0.02759,-0.04962 -0.05987,-0.115797 -0.08789,-0.166016 -0.0137,-0.02455 -0.06474,-0.128578 -0.111328,-0.226562 -0.04659,-0.09798 -0.03346,-0.11935 -0.173829,-0.332031 -0.365927,-0.554423 -0.843131,-1.04657 -1.357421,-1.390625 -0.438376,-0.293275 -0.871957,-0.533203 -1.556641,-0.533203 -1.325331,0 -2.254224,1.090174 -2.613281,2.386718 -0.04325,-0.0122 -0.08953,-0.0273 -0.128907,-0.03516 -0.128736,-0.02567 -0.259483,-0.03906 -0.414062,-0.03906 -0.03982,0 -0.06744,-0.0025 -0.134766,-0.0059 -0.067326,-0.0034 -0.194324,-0.04693 -0.490234,0.06836 a 0.94440718,0.94440718 0 0 0 0,0.002 c -0.3511902,0.136869 -0.4966882,0.397788 -0.5546875,0.513672 -0.057999,0.115883 -0.067558,0.158215 -0.068359,0.160156 -0.1385053,0.335194 -0.1420048,0.508148 -0.1835937,0.77539 -0.041589,0.267243 -0.074219,0.511981 -0.074219,0.773438 0,1.04267 0.5502402,2.011793 1.4140624,2.595703 0.140762,0.09515 0.108288,0.182885 0.580078,0.277344 0.117948,0.02361 0.305654,0.04567 0.535157,-0.03906 0.229502,-0.08474 0.435061,-0.293554 0.521484,-0.457031 0.17222,-0.325772 0.118505,-0.44002 0.117187,-0.511719 v -0.002 c -0.0018,-0.150368 -0.0092,-0.167814 -0.01953,-0.271484 -0.01036,-0.104412 -0.02414,-0.23574 -0.04102,-0.388672 -0.01013,-0.09175 -0.02529,-0.218309 -0.03711,-0.322266 0.197559,0.153749 0.29456,0.409272 0.539063,0.501953 0.318288,0.12071 0.628735,0.145073 1.095703,0.154297 a 0.94440718,0.94440718 0 0 0 0.002,0 c 0.01504,2.96e-4 0.02415,0.0017 0.03906,0.002 0.253379,0.682239 0.666031,1.538715 1.355469,2.695313 0.751301,1.26038 1.237593,2.193398 1.392578,2.619141 0.09094,0.249802 1.264141,4.727462 1.363281,5.28125 0.112117,0.626246 0.104385,1.267906 0.09766,1.300781 0.01546,-0.0756 -0.135998,0.439988 -0.257813,0.732422 -0.210615,0.505608 -0.362023,0.925958 -0.398437,1.396484 -0.02155,0.278495 0.07398,0.53486 0.132812,0.798828 -0.222157,-0.111727 -0.461139,-0.2155 -0.675781,-0.298828 -0.112909,-0.04383 -0.215031,-0.08176 -0.3125,-0.113281 -0.04873,-0.01576 -0.09683,-0.03087 -0.152344,-0.04492 -0.05552,-0.01405 -0.08159,-0.03711 -0.285156,-0.03711 -0.18422,0 -0.476847,0.08354 -0.666016,0.261718 -0.189169,0.178177 -0.25441,0.371662 -0.283203,0.494141 -0.05759,0.244958 -0.02759,0.329784 -0.01758,0.419922 0.02003,0.180276 0.05279,0.331022 0.103516,0.580078 a 0.94440718,0.94440718 0 0 0 0,0.002 c 0.188706,0.926309 0.64213,1.782659 1.457031,2.208985 0.421372,0.220442 0.827373,0.320558 1.341797,0.408203 0.0922,0.0157 0.181927,0.02934 0.251953,0.04102 0.07003,0.01168 0.04723,0.01071 0.160156,0.02539 0.312621,0.04002 0.796606,-0.200266 0.953125,-0.445313 0.109135,-0.17086 0.101399,-0.257551 0.113281,-0.357422 0.456271,0.38462 0.902511,0.782579 1.472657,1.019532 0.20124,0.08364 0.358958,0.221821 0.830078,0.162109 0.23556,-0.02986 0.521649,-0.186626 0.667969,-0.347656 0.14632,-0.16103 0.19553,-0.28908 0.234375,-0.380859 0.26256,-0.620394 0.472831,-1.512392 0.568359,-2.28125 0.148124,-1.192151 0.02222,-2.155789 -0.546875,-4.669922 -0.01433,-0.06331 -0.02115,-0.124462 -0.03516,-0.189454 1.317425,1.004584 1.50238,1.142635 3.105469,2.726563 0.631833,0.624287 1.08725,1.069191 1.507812,1.441406 0.820657,0.726312 1.458584,1.140875 2.222656,1.404297 0.365624,0.126049 0.714878,0.206477 1.087891,0.207031 a 0.94440718,0.94440718 0 0 0 0.002,0 c 0.482102,4.66e-4 0.987602,-0.133826 1.394531,-0.474609 0.343336,0.465223 0.753364,0.849782 1.279297,1.042969 0.272139,0.09993 0.434788,0.116739 0.69336,0.11914 0.700035,0.0062 1.303417,-0.379822 1.71289,-0.86914 0.308557,-0.368725 0.479329,-0.866906 0.652344,-1.363281 0.04428,0.22306 0.01539,0.481177 0.07031,0.703124 0.400611,1.618857 1.040226,2.922522 1.890625,4.011719 0.180688,0.231426 0.385186,0.466295 0.605469,0.697266 0.03453,0.05396 0.07216,0.113169 0.07227,0.113281 a 0.94440718,0.94440718 0 0 0 0.02344,0.02344 c 1.103698,1.106607 2.390647,1.792668 3.916016,2.103515 0.589775,0.120191 1.287422,0.172685 1.890625,0.179688 0.301601,0.0035 0.571232,-0.0026 0.820312,-0.0332 0.124541,-0.01531 0.236951,-0.03086 0.404297,-0.08984 0.08367,-0.02949 0.185902,-0.06303 0.332031,-0.179688 0.14613,-0.11666 0.373047,-0.403788 0.373047,-0.771484 0,-4.92e-4 -0.0074,-0.123273 -0.01172,-0.150391 -0.0043,-0.02712 -0.0069,-0.04332 -0.0098,-0.05664 -0.0058,-0.02665 -0.01019,-0.03975 -0.01367,-0.05273 -0.007,-0.02597 -0.01155,-0.0446 -0.01758,-0.06445 -8.82e-4,-0.0029 -0.003,-0.0068 -0.0039,-0.0098 0.24308,0.220325 0.476792,0.653688 0.738281,0.832031 0.682114,0.465232 1.471788,0.761172 2.201172,0.873047 0.532935,0.08172 1.165349,0.13115 1.835937,-0.0098 0.24153,-0.05071 0.472653,-0.111558 0.671875,-0.175781 0.09961,-0.03211 0.18936,-0.06404 0.285157,-0.105469 0.0958,-0.04143 0.152191,0.04006 0.451171,-0.320312 a 0.94440718,0.94440718 0 0 0 0.01172,-0.01367 c 4e-4,-5e-4 0.183412,-0.382012 0.183594,-0.382813 1.82e-4,-8e-4 0.02434,-0.170943 0.02344,-0.226562 -0.0018,-0.111238 -0.01548,-0.166611 -0.02539,-0.208985 -0.01982,-0.08475 -0.03456,-0.115292 -0.04492,-0.142578 -0.02073,-0.05457 -0.03096,-0.07644 -0.0293,-0.07227 A 0.94440718,0.94440718 0 0 0 52.4375,77.451172 c -0.01349,-0.02764 -0.02062,-0.04233 -0.04297,-0.08398 a 0.94440718,0.94440718 0 0 0 0,-0.002 c -0.0072,-0.01334 -0.04118,-0.06602 -0.04883,-0.08008 -0.04313,-0.07932 -0.210371,-0.343941 -0.273437,-0.453125 0.806447,0.408898 1.610353,0.763322 2.390625,0.982422 2.240275,0.629051 4.493886,0.347923 6.199218,-0.935547 0.275251,-0.207161 0.529741,-0.435495 0.736329,-0.644531 0.103293,-0.104518 0.1919,-0.199463 0.277343,-0.308594 0.04272,-0.05456 0.08513,-0.109575 0.138672,-0.207031 0.05355,-0.09746 0.27911,-0.196662 0.08203,-0.794922 -4.3e-5,-1.3e-4 -0.09756,-0.206881 -0.09766,-0.207031 -9.4e-5,-1.5e-4 -0.08189,-0.113111 -0.08203,-0.113281 -2.91e-4,-3.41e-4 -0.08051,-0.08464 -0.107422,-0.107422 -0.05382,-0.04557 -0.08243,-0.06337 -0.105469,-0.07813 -0.04608,-0.0295 -0.06752,-0.04015 -0.08789,-0.05078 -0.04074,-0.02125 -0.07019,-0.03355 -0.103516,-0.04883 -0.06665,-0.03056 -0.146026,-0.06474 -0.246094,-0.107421 -0.200135,-0.08537 -0.478592,-0.200778 -0.820312,-0.341797 -0.275135,-0.113542 -0.715052,-0.295561 -1.060547,-0.4375 1.380114,0.142944 2.039771,0.199818 3.158203,0.199218 1.333699,-7.16e-4 2.02425,-0.04919 3.070312,-0.269531 1.726622,-0.363714 3.494178,-1.217729 4.966797,-2.326172 0.286473,-0.215632 0.507365,-0.388171 0.681641,-0.541015 0.08714,-0.07642 0.159099,-0.139822 0.25,-0.248047 0.04545,-0.05411 0.09921,-0.112157 0.166016,-0.25586 0.0668,-0.143702 0.2041,-0.511264 -0.05078,-0.923828 -7e-5,-1.13e-4 -0.204941,-0.234263 -0.205078,-0.234375 -8.7e-5,-7.1e-5 -0.05041,-0.03337 -0.09375,-0.0625 0.576359,-0.220163 1.188019,-0.37207 1.730469,-0.642578 1.378263,-0.687313 2.353729,-1.375687 3.279297,-2.304687 1.143011,-1.147253 1.882949,-2.464195 1.990234,-3.84375 0.01311,-0.16871 0.0537,-0.225539 -0.0059,-0.539063 -0.02978,-0.156762 -0.163251,-0.487263 -0.445313,-0.666015 -0.05473,-0.03468 -0.05915,-0.0082 -0.107422,-0.0293 2.713556,-1.534772 4.478378,-3.78914 5.044922,-6.78711 0.09311,-0.492436 0.159285,-1.09451 0.19336,-1.607422 0.01704,-0.256455 0.02529,-0.48301 0.02148,-0.683593 -0.0019,-0.100292 -0.0043,-0.187896 -0.02539,-0.316407 -0.01057,-0.06426 -0.01686,-0.135425 -0.08203,-0.28125 -0.03259,-0.07291 -0.07792,-0.170758 -0.205078,-0.296875 -0.127158,-0.126116 -0.389653,-0.277343 -0.673828,-0.277343 -8.5e-5,0 -0.202986,0.02145 -0.203125,0.02148 -1.39e-4,3.1e-5 -0.08184,0.02142 -0.08203,0.02148 -3.86e-4,1.22e-4 -0.05545,0.01938 -0.07031,0.02539 -0.02972,0.01202 -0.04366,0.01825 -0.05469,0.02344 -0.02205,0.01038 -0.03242,0.01703 -0.04492,0.02344 -0.02501,0.01282 -0.04966,0.0247 -0.08008,0.04102 -0.06084,0.03263 -0.141932,0.07758 -0.246094,0.134765 -0.208323,0.114378 -0.50424,0.278868 -0.867188,0.480469 -0.117888,0.06548 -0.325698,0.180844 -0.457031,0.253906 2.293262,-2.533223 3.808047,-5.398811 4.167969,-8.503906 0.116449,-1.004964 0.09635,-2.48953 -0.06836,-3.455078 -0.08755,-0.513242 -0.228311,-1.105671 -0.367188,-1.601563 -0.06944,-0.247945 -0.138451,-0.46846 -0.207031,-0.65625 -0.03429,-0.09389 -0.06521,-0.177468 -0.115234,-0.277343 -0.02501,-0.04994 -0.05243,-0.102733 -0.111329,-0.183594 -0.0589,-0.08086 -0.10595,-0.235837 -0.488281,-0.363281 a 0.94440718,0.94440718 0 0 0 -0.002,0 c -9.9e-5,-3.3e-5 -0.521339,-0.02152 -0.521484,-0.02148 -1.46e-4,3.6e-5 -0.224418,0.08779 -0.22461,0.08789 -3.84e-4,2.07e-4 -0.130979,0.08485 -0.160156,0.109375 -0.05836,0.04905 -0.07542,0.06815 -0.0918,0.08594 -0.02981,0.03236 -0.04033,0.04885 -0.05273,0.06445 0.454023,-1.888784 0.583605,-3.697751 0.02539,-5.382813 -0.244248,-0.7373 -0.719366,-1.644271 -1.138672,-2.283203 -0.194196,-0.295916 -0.422069,-0.616739 -0.621093,-0.876953 -0.09951,-0.130107 -0.188195,-0.242829 -0.277344,-0.34375 -0.04457,-0.05046 -0.08488,-0.09626 -0.15625,-0.160157 -0.03569,-0.03195 -0.07402,-0.06751 -0.169922,-0.125 -0.04795,-0.02875 -0.110717,-0.06518 -0.226562,-0.09961 -0.05792,-0.01722 -0.131129,-0.03435 -0.226563,-0.03906 -0.04772,-0.0024 -0.157711,0.0058 -0.158203,0.0059 -4.92e-4,5.9e-5 -0.189018,0.04087 -0.189453,0.04102 -9.8e-5,3.2e-5 -0.308463,0.173718 -0.308594,0.173828 -1.31e-4,1.09e-4 -0.103352,0.101376 -0.103516,0.101562 -3.26e-4,3.73e-4 -0.06025,0.07494 -0.07422,0.0957 -0.02793,0.04152 -0.03629,0.05867 -0.04492,0.07422 -0.01727,0.0311 -0.02664,0.04714 -0.03516,0.06445 -0.01253,0.02547 -0.0241,0.05393 -0.03711,0.08203 0.0079,-0.321703 0.02808,-0.661194 -0.002,-0.949218 -0.230774,-2.214001 -0.947972,-4.82823 -1.826172,-6.472656 -0.508846,-0.952811 -1.098779,-1.735734 -1.947265,-2.152344 -0.288972,-0.141886 -0.711089,-0.220703 -1.103516,-0.220703 -0.415075,0 -0.832431,0.09512 -1.150391,0.24414 -0.495462,0.232214 -0.977099,0.663346 -1.208984,1.212891 -0.08955,0.212233 -0.0642,0.490457 -0.105469,0.71875 -0.900094,-1.630772 -2.132815,-3.210212 -3.425781,-4.054688 -0.722926,-0.472166 -1.478508,-0.736923 -2.240234,-0.68164 z m -10.144532,14.853515 0.0059,0.01172 c -10e-7,-1e-6 -0.0056,-0.0074 -0.0059,-0.0078 -0.0011,-0.0028 0.0011,-0.001 0,-0.0039 z m -0.523437,2.957032 c 0.08606,0.313762 0.07242,0.2761 0.169922,0.630859 a 0.94440718,0.94440718 0 0 0 0,0.002 l 1.609375,5.798828 -0.357422,3.509766 a 0.94440718,0.94440718 0 0 0 0,0.002 c -0.0062,0.06202 -0.01138,0.09882 -0.01758,0.160156 -0.386772,-0.560498 -0.712453,-1.180188 -1.279297,-1.546875 -0.532982,-0.344782 -1.210082,-0.634441 -2.238281,-1.027343 -0.982784,-0.375546 -1.389248,-0.590263 -1.806641,-0.857422 1.260959,-0.697405 2.312441,-1.682735 2.931641,-3.140625 0.328317,-0.773011 0.571197,-1.693421 0.958984,-3.41211 0.01091,-0.04838 0.01805,-0.06985 0.0293,-0.11914 z m -11.292969,1.417968 c 0.01397,0.04744 -0.0045,0.09756 0.01172,0.144532 1.56e-4,4.54e-4 -0.0022,0.0069 -0.0078,-0.0332 -0.0024,-0.01708 -0.0051,-0.05478 -0.0039,-0.111329 z m 9.058594,10.476563 c 0.02717,0.06341 0.04407,0.104087 0.07227,0.169922 0.13671,0.319156 0.262982,0.600833 0.371094,0.833984 -0.713345,-0.01951 -1.522721,-0.0821 -1.982422,-0.01563 -0.04021,0.0058 -0.102653,0.03039 -0.144531,0.03711 0.511821,-0.249542 1.027197,-0.481375 1.683594,-1.02539 z m -20.910156,3.771484 0.158203,0.101563 0.04492,0.08008 z m 26.779297,19.333985 c 0.03276,-4.67e-4 0.07721,-2.28e-4 0.136718,0.0078 0.0031,4.13e-4 0.0082,0.0013 0.01172,0.002 -0.123065,-0.01139 -0.229246,-0.0043 -0.232422,-0.0039 -0.0019,2.19e-4 0.01846,-0.0049 0.08398,-0.0059 z"
         id="path4398"
         style="opacity:0.15;fill:#ffffff;fill-opacity:1"
         inkscape:original="M 64.8125 16.71875 C 64.317004 16.75471 63.889159 17.000256 63.5 17.46875 C 63.060539 17.997805 62.841713 18.710463 62.90625 19.34375 C 63.00159 20.279512 63.277913 21.038604 64.40625 23.28125 C 65.026409 24.513865 65.22375 25.012241 65.4375 26 C 65.739364 27.394974 65.845868 28.630453 65.84375 30.25 C 65.84145 31.741437 65.76853 32.802257 65.53125 34.21875 C 65.322923 35.462414 64.949952 36.962482 64.875 36.9375 C 64.760612 36.89937 64.634093 35.754671 64.53125 34.0625 C 64.410161 32.070091 64.299003 31.254007 64.125 30.46875 C 63.662054 28.379492 62.644435 27.523029 60.9375 27.78125 C 60.458575 27.8537 59.665659 28.066512 59.59375 28.15625 C 59.56296 28.19464 59.742388 28.824574 60.21875 30.1875 C 60.593017 31.258337 60.906221 32.136825 60.90625 32.15625 C 60.906341 32.22366 60.620965 32.329758 60.5625 32.28125 C 60.53238 32.25626 60.264273 31.866764 59.96875 31.4375 C 59.345103 30.53164 59.052119 30.069638 58.625 29.5625 C 57.47603 28.198264 56.229363 27.549981 54.9375 27.625 C 54.466074 27.65238 53.74618 27.833191 53.625 27.9375 C 53.54095 28.00985 53.54818 28.117682 55.15625 33.96875 L 56.8125 39.9375 L 56.4375 43.625 C 56.234398 45.644984 56.050809 47.320242 56.03125 47.375 C 55.99644 47.47237 55.97694 47.5 55.3125 47.5 C 54.938868 47.5 54.201951 47.47655 53.65625 47.4375 C 52.450475 47.35112 50.949958 47.33214 50.4375 47.40625 C 49.916562 47.48163 49.144975 47.663614 48.4375 47.90625 C 46.227964 48.664042 44.30325 50.018784 42.6875 51.9375 C 41.198247 53.706 39.929449 55.955754 38.6875 59.0625 C 38.314751 59.994945 37.502455 62.238228 37.3125 62.84375 C 36.842557 64.3418 36.573545 65.902891 36.53125 67.625 C 36.49361 69.158793 36.6192 70.432522 36.9375 71.71875 C 37.310877 73.227555 37.886751 74.389421 38.65625 75.375 C 38.840464 75.610942 39.036914 75.844866 39.25 76.0625 C 39.2564 76.0696 39.27454 76.08697 39.28125 76.09375 C 39.28545 76.09795 39.27705 76.12048 39.28125 76.125 C 40.271814 77.118176 41.345121 77.688825 42.71875 77.96875 C 43.700508 78.168823 45.40625 78.188572 45.40625 78 C 45.40625 77.96851 45.114912 77.107462 44.75 76.0625 C 44.385089 75.017539 44.093878 74.120264 44.09375 74.09375 C 44.093489 74.04736 44.262146 73.9375 44.34375 73.9375 C 44.3655 73.9375 44.619922 74.268525 44.875 74.65625 C 45.901836 76.217094 46.664704 77.106429 47.5625 77.71875 C 48.095569 78.082327 48.819583 78.352309 49.375 78.4375 C 49.718029 78.4901 50.536984 78.50853 50.875 78.4375 C 51.292283 78.34989 51.698737 78.21804 51.75 78.15625 C 51.7564 78.14825 51.73379 78.1002 51.71875 78.0625 C 51.72605 78.09025 51.6591 78.10297 51.625 78.125 C 51.63689 78.1183 51.60464 77.991974 51.5625 77.90625 C 51.46881 77.715639 51.279591 77.421785 50.9375 76.875 C 51.170484 77.246817 51.501204 77.705978 51.5625 77.8125 C 51.416052 77.540135 51.154411 77.087484 50.5 76.0625 C 49.138939 73.93074 49.065365 73.809657 49.09375 73.78125 C 49.10335 73.77165 49.327615 73.949088 49.59375 74.15625 C 51.330765 75.5084 53.107618 76.453845 54.71875 76.90625 C 56.736467 77.472808 58.650775 77.211014 60.09375 76.125 C 60.55037 75.781335 61.023937 75.291414 61 75.21875 C 60.989 75.18535 59.29176 74.49991 57.25 73.65625 C 55.208247 72.812597 53.540783 72.091203 53.53125 72.0625 C 53.50385 71.9803 55.12661 72.0637 56.875 72.25 C 57.434752 72.30966 58.346491 72.408838 58.90625 72.46875 C 60.70627 72.661416 61.104844 72.688164 62.34375 72.6875 C 63.65902 72.686794 64.219466 72.64799 65.21875 72.4375 C 66.775343 72.109603 68.447549 71.308651 69.8125 70.28125 C 70.368221 69.86295 70.657621 69.615302 70.625 69.5625 C 70.60711 69.53355 68.393403 69.54118 64.15625 69.5625 C 59.794161 69.58446 57.823872 69.56165 57.75 69.53125 C 57.73778 69.52915 57.72574 69.53405 57.71875 69.53125 C 57.69065 69.48578 58.148423 68.228766 58.21875 68.15625 C 58.23887 68.13549 58.392783 68.18042 58.5625 68.28125 C 61.500744 70.02683 67.847672 69.570095 72.4375 67.28125 C 73.754542 66.624466 74.60808 66.020112 75.46875 65.15625 C 76.498262 64.122918 77.103404 62.987618 77.1875 61.90625 C 77.21228 61.587312 77.20476 61.5625 77.125 61.5625 C 77.02701 61.5625 75.420374 62.014734 74.5625 62.28125 C 74.246119 62.37954 73.431448 62.628122 72.75 62.84375 C 68.298928 64.252189 66.449318 64.642345 64.03125 64.6875 C 62.649134 64.71334 61.428997 64.61919 61.46875 64.5 C 61.51369 64.365192 63.381354 63.729014 64.65625 63.40625 C 65.744601 63.130716 66.312445 63.011165 68.84375 62.5 C 72.585674 61.744369 73.939652 61.377737 75.59375 60.71875 C 79.082283 59.328923 81.064587 57.077506 81.6875 53.78125 C 81.849641 52.923694 81.947829 51.4375 81.84375 51.4375 C 81.822 51.4375 80.025303 52.438542 77.84375 53.65625 C 75.662041 54.873959 73.870158 55.860075 73.84375 55.84375 C 73.78337 55.80647 73.532774 55.217205 73.5625 55.1875 C 73.57457 55.17543 73.83916 55.031247 74.1875 54.84375 C 75.860557 53.943206 77.119826 53.00021 78.5 51.625 C 81.079341 49.054937 82.600399 46.084059 82.96875 42.90625 C 83.06787 42.050834 83.03996 40.502582 82.90625 39.71875 C 82.747886 38.790344 82.361824 37.412275 82.25 37.375 C 82.22469 37.3666 80.669728 39.59883 78.8125 42.34375 C 74.901578 48.123967 74.718286 48.437036 74.6875 48.40625 C 74.61722 48.33599 75.527865 46.667917 77.09375 44.0625 C 77.771653 42.934572 78.51485 41.74006 78.71875 41.375 C 79.220426 40.476829 79.917707 38.98278 80.1875 38.28125 C 81.135302 35.816735 81.286572 33.715812 80.625 31.71875 C 80.432885 31.138823 79.954241 30.205561 79.59375 29.65625 C 79.23633 29.111616 78.711891 28.418951 78.65625 28.4375 C 78.63111 28.4459 77.53579 30.976688 76.25 34.0625 L 73.9375 39.65625 L 70.6875 45.1875 C 67.443524 50.733215 67.283681 51.002424 67.25 50.96875 C 67.223 50.94178 67.539534 50.127736 67.84375 49.375 C 68.60474 47.492006 69.388878 45.990791 71.53125 42.3125 C 72.899505 39.963319 73.509237 38.846069 74.0625 37.75 C 75.786036 34.335535 76.607625 31.602619 76.8125 28.59375 C 76.85395 27.982205 76.85402 27.679501 76.8125 27.28125 C 76.595964 25.203846 75.866842 22.603863 75.09375 21.15625 C 74.644587 20.315197 74.076377 19.658566 73.5625 19.40625 C 73.329947 19.292066 73.249232 19.28125 72.875 19.28125 C 72.489252 19.28125 72.420036 19.29922 72.125 19.4375 C 71.404971 19.774963 71.187055 20.294433 71.1875 21.65625 C 71.187712 22.386566 71.23821 22.96032 71.46875 24.59375 L 71.625 25.75 L 71.59375 27.03125 C 71.56903 28.322792 71.57076 28.732271 71.4375 29.9375 C 71.144385 32.588318 70.406088 35.638628 69.34375 38.875 C 68.94299 40.0959 68.378308 41.803668 68.3125 41.90625 C 68.158754 42.14585 68.513891 40.394354 69.28125 37.25 C 70.539757 32.093149 70.85414 30.257417 70.90625 27.65625 C 70.94224 25.856169 70.803136 24.614086 70.46875 23.15625 C 70.268303 22.282443 70.200594 22.065808 69.90625 21.46875 C 69.081083 19.794904 67.645632 18.018658 66.46875 17.25 C 65.862096 16.853775 65.307997 16.682789 64.8125 16.71875 z M 51.5625 77.8125 C 51.55036 77.8125 51.5362 77.8576 51.5625 77.90625 C 51.58855 77.9549 51.61286 78 51.625 78 C 51.6343 78 51.6393 77.97019 51.625 77.9375 C 51.61194 77.91088 51.58146 77.84776 51.5625 77.8125 z M 48.90625 30.78125 C 48.478954 30.78645 48.012958 30.83037 47.75 30.875 C 46.094737 31.155978 44.781341 31.762887 44.09375 32.59375 C 43.555322 33.244378 43.416577 34.057394 43.6875 34.84375 C 43.7233 34.948203 43.73619 35.045024 43.71875 35.0625 C 43.70131 35.07994 42.080587 35.263007 40.125 35.46875 C 38.528653 35.636696 37.651053 35.747645 37.1875 35.8125 C 37.1248 35.8213 36.808999 35.86978 36.78125 35.875 C 36.76282 35.8785 36.533022 35.8732 36.53125 35.875 C 36.52705 35.8792 36.53047 35.95082 36.53125 35.96875 C 36.53265 35.99452 36.52635 36.02659 36.53125 36.03125 C 36.54897 36.17706 36.634663 36.471861 36.8125 37.09375 C 37.127243 38.193865 37.2049 38.4375 37.15625 38.4375 C 37.14559 38.4375 36.95937 38.315268 36.78125 38.1875 C 36.04527 37.65955 35.372262 37.408455 34.65625 37.375 C 33.865689 37.33807 33.375225 37.543693 32.8125 38.09375 C 32.80036 38.10561 32.79346 38.1127 32.78125 38.125 C 32.498966 38.407665 32.372547 38.526045 32.1875 38.90625 C 31.917876 39.460227 31.786858 39.971894 31.75 40.625 C 31.70693 41.387889 31.883971 42.335832 32.15625 42.96875 L 32.25 43.1875 L 32.625 43.1875 C 32.834902 43.1875 32.8931 43.17522 32.96875 43.125 C 32.98506 43.11427 33.0095 43.12 33.03125 43.09375 C 33.0614 43.05725 33.07465 43 33.0625 43 L 33.15625 42.90625 C 33.18535 42.87128 33.2145 42.86691 33.25 42.8125 C 33.63762 42.218403 34.35285 41.768574 35.1875 41.5625 C 35.755485 41.422283 36.795286 41.422699 37.5 41.5625 C 40.03939 42.066251 41.939687 43.777806 41.84375 45.5 C 41.81819 45.959225 41.657171 46.278352 41.25 46.6875 C 40.910592 47.028552 40.449267 47.334257 39.6875 47.75 C 39.419797 47.896106 38.998633 48.127992 38.71875 48.28125 C 38.438874 48.434509 38.01597 48.677762 37.8125 48.8125 C 37.409361 49.079475 36.90625 49.518832 36.90625 49.625 C 36.90625 49.71647 37.176265 49.73509 38.25 49.625 C 38.710524 49.57776 39.071795 49.494164 39.46875 49.4375 C 41.394138 49.162644 42.683245 48.779171 43.6875 48.125 C 44.642025 47.503224 45.35556 46.53884 45.625 45.5 C 45.66871 45.331391 45.72366 45.1875 45.75 45.1875 C 45.77634 45.1875 45.950347 45.29756 46.125 45.40625 C 47.25852 46.111663 48.187926 46.352713 48.96875 46.1875 C 49.666615 46.039841 50.328311 45.627507 51.5625 44.5625 C 51.889776 44.280089 52.190365 44.03125 52.21875 44.03125 C 52.24714 44.03125 52.493077 44.608494 52.78125 45.28125 C 53.069423 45.954006 53.337436 46.517507 53.375 46.5625 C 53.44116 46.64168 53.513132 46.64419 54.5625 46.46875 C 55.158764 46.36906 55.663493 46.272694 55.6875 46.25 C 55.74879 46.1921 55.520834 45.399968 55.3125 44.90625 C 54.976793 44.110689 54.383367 43.387651 53.6875 42.9375 C 53.270429 42.6677 52.633385 42.385331 51.625 42 C 50.527173 41.580493 49.987993 41.316652 49.46875 40.96875 C 48.954365 40.624104 48.436804 40.152865 48.5 40.09375 C 48.52436 40.07094 48.71155 40.00506 48.90625 39.9375 C 50.457053 39.399369 51.521831 38.39088 52.21875 36.75 C 52.505518 36.074815 52.740191 35.205488 53.125 33.5 C 53.29959 32.726223 53.509046 31.856715 53.59375 31.5625 C 53.67847 31.268286 53.731672 31.002368 53.71875 30.96875 C 53.71735 30.96495 53.67058 30.99687 53.65625 31 C 53.50208 31.03355 52.631119 31.418738 50.46875 32.5 C 48.689115 33.389885 47.211013 34.132837 47.1875 34.125 C 47.16399 34.1172 47.724066 33.592909 48.4375 32.96875 C 49.150942 32.344592 49.788957 31.801623 49.84375 31.75 C 49.87899 31.7168 49.89135 31.66862 49.90625 31.625 C 49.92856 31.55957 49.9375 31.480504 49.9375 31.28125 C 49.9375 30.913447 49.9317 30.89353 49.8125 30.84375 C 49.71598 30.80344 49.333545 30.77611 48.90625 30.78125 z M 41.21875 44.40625 C 40.867628 44.43351 40.130859 44.557978 39.34375 44.71875 C 35.760296 45.450698 32.888149 46.711762 31.21875 48.3125 C 30.881419 48.635957 30.4375 49.184446 30.4375 49.25 C 30.4375 49.26483 30.43832 49.2493 30.46875 49.25 C 30.598714 49.2528 41.24118 46.294606 41.375 46.21875 C 41.36229 46.21875 38.995417 46.855091 36.09375 47.65625 C 33.192075 48.457418 30.758731 49.1384 30.6875 49.15625 L 30.75 49.09375 C 30.83448 49.07709 33.241042 48.421655 36.125 47.625 L 41.375 46.1875 C 41.374682 46.187995 41.375318 46.21875 41.375 46.21875 C 41.375508 46.218461 41.40604 46.218955 41.40625 46.21875 C 41.48906 46.1357 41.48893 44.474728 41.40625 44.40625 C 41.39015 44.3929 41.33579 44.39715 41.21875 44.40625 z M 18.5625 44.8125 C 18.52141 44.77148 17.658099 44.88222 17.3125 44.96875 C 16.330621 45.21462 15.753805 45.779046 15.40625 46.84375 C 15.3439 47.03482 15.28125 47.235686 15.28125 47.28125 C 15.28125 47.384849 15.33424 47.3878 15.71875 47.28125 C 16.519394 47.05938 17.1462 46.6854 17.65625 46.15625 C 18.073554 45.723321 18.642211 44.892211 18.5625 44.8125 z M 21.6875 45.15625 C 21.160688 45.18901 20.458319 45.359688 20.03125 45.5625 C 18.81256 46.141253 18.119259 47.185126 17.78125 48.84375 C 17.583465 49.81431 17.54283 50.357849 17.53125 52.9375 C 17.52485 54.283252 17.48626 55.38912 17.46875 55.40625 C 17.45124 55.42341 17.38594 55.36644 17.3125 55.28125 C 17.037397 54.962172 16.68424 54.393877 16.1875 53.40625 C 16.004529 53.042462 15.873519 52.808584 15.71875 52.53125 C 15.63538 52.381854 15.512281 52.097206 15.46875 52.03125 C 15.199204 51.622857 14.712148 51.131799 14.375 50.90625 C 14.086672 50.713358 13.635559 50.53125 13.34375 50.53125 C 12.500931 50.53125 11.754843 51.302767 11.53125 52.40625 C 11.316363 53.466767 11.746988 54.354681 12.625 54.6875 C 12.768733 54.74201 12.978475 54.7728 13.40625 54.78125 C 13.732192 54.78765 14.045483 54.79287 14.0625 54.8125 C 14.07952 54.83213 14.15195 55.02405 14.21875 55.21875 C 14.414099 55.788288 14.872767 56.727982 15.59375 57.9375 C 16.355559 59.215509 16.854392 60.147079 17.0625 60.71875 C 17.285627 61.331678 18.326422 65.361226 18.46875 66.15625 C 18.592606 66.84807 18.630358 67.480951 18.5625 67.8125 C 18.53263 67.958521 18.392364 68.376984 18.25 68.71875 C 17.855023 69.666941 17.82335 70.032673 18.09375 70.78125 C 18.631656 72.270418 19.574999 73.277495 20.9375 73.84375 C 21.282189 73.987003 21.354675 73.976944 21.4375 73.78125 C 21.623042 73.342841 21.855466 72.410251 21.9375 71.75 C 22.0718 70.669112 21.97148 69.903302 21.40625 67.40625 C 21.144732 66.250947 20.939415 64.84375 21.03125 64.84375 C 21.05265 64.843778 21.22385 64.944664 21.40625 65.09375 C 21.588649 65.242835 22.190121 65.729399 22.75 66.15625 C 24.21122 67.270267 24.39481 67.414742 26.0625 69.0625 C 26.692714 69.685186 27.138575 70.121216 27.53125 70.46875 C 28.312201 71.159921 28.787728 71.463484 29.4375 71.6875 C 29.787591 71.808194 29.919089 71.843305 30.21875 71.84375 C 30.950161 71.844456 31.305126 71.522672 31.34375 70.8125 C 31.37101 70.311206 31.216325 69.725648 30.8125 68.90625 C 30.417636 68.105033 30.081275 67.712975 29.46875 67.125 C 28.755937 66.440755 28.102988 65.931659 25.96875 64.5625 C 24.151713 63.396831 23.361112 62.80131 22.65625 62.09375 C 21.727272 61.161228 21.325805 60.38287 21.28125 59.375 C 21.24453 58.545299 21.432398 58.038647 21.96875 57.5 C 22.518666 56.947733 23.128338 56.618768 24.90625 56 C 26.784746 55.346231 27.500899 54.947028 27.8125 54.3125 C 27.920942 54.091647 27.90634 54.026584 27.90625 53.65625 C 27.906144 53.300376 27.93217 53.199824 27.84375 53.03125 C 27.434489 52.251005 26.187331 51.774062 24.1875 51.65625 L 23.6875 51.65625 L 21.96875 53.34375 C 21.035091 54.276245 20.264052 55.014037 20.25 55 C 20.23595 54.98595 20.644096 52.819284 21.15625 50.15625 C 21.668397 47.493215 22.125 45.263807 22.125 45.21875 C 22.125 45.14279 22.08757 45.13132 21.6875 45.15625 z M 25.28125 48.28125 L 25.28125 48.40625 C 25.309 48.703821 25.468424 49.437415 25.59375 49.78125 C 25.989355 50.866593 26.687891 51.506424 27.8125 51.875 C 28.079765 51.96259 28.189517 51.98816 28.21875 51.9375 C 28.26055 51.86506 28.14974 50.809155 28.0625 50.4375 C 27.803941 49.336192 27.162702 48.692572 26.03125 48.40625 C 25.810517 48.3504 25.53485 48.289801 25.4375 48.28125 L 25.28125 48.28125 z M 30.71875 49 L 30.59375 49.15625 L 30.65625 49.03125 C 30.66505 49.03125 30.69672 49.02235 30.71875 49 z M 9.90625 52.84375 C 9.859859 52.86183 9.842015 52.928546 9.8125 53 C 9.732711 53.193096 9.625 53.902568 9.625 54.1875 C 9.625 54.936853 9.9741396 55.560044 10.625 56 C 10.877041 56.170367 10.907662 56.170308 10.90625 56.0625 C 10.90415 55.870336 10.556176 52.946575 10.53125 52.90625 C 10.51586 52.88132 10.357662 52.84375 10.1875 52.84375 C 10.033804 52.84375 9.9526547 52.82567 9.90625 52.84375 z M 33.53125 62.59375 C 33.45504 62.59375 33.063711 63.003188 32.875 63.28125 C 32.354612 64.048016 31.930849 65.191842 31.6875 66.59375 C 31.60112 67.091253 31.59516 67.295391 31.59375 68.375 C 31.59235 69.739711 31.61689 70.068122 31.875 70.84375 C 32.159423 71.698481 32.651195 72.260275 33.21875 72.46875 C 33.30971 72.50215 33.472068 72.53012 33.59375 72.53125 C 34.306267 72.53835 34.945086 71.764505 35.25 70.5625 C 35.509223 69.5406 35.32322 68.658052 34.375 66.65625 C 33.768144 65.375064 33.626298 64.89798 33.53125 64.125 C 33.48528 63.751114 33.46156 63.369653 33.53125 62.8125 C 33.55074 62.656396 33.56373 62.59375 33.53125 62.59375 z M 15.6875 71 C 15.62812 71 15.64988 71.133408 15.75 71.625 C 15.913349 72.426838 16.179327 72.905294 16.71875 73.1875 C 17.050073 73.360833 17.284545 73.415374 17.78125 73.5 C 17.963776 73.53107 18.137256 73.56003 18.15625 73.5625 C 18.28589 73.57952 18.16185 73.062331 17.9375 72.59375 C 17.729985 72.160298 17.230184 71.668057 16.71875 71.40625 C 16.34658 71.215738 15.77567 71 15.6875 71 z "
         inkscape:radius="0.94431275"
         sodipodi:type="inkscape:offset" />
      <g
         transform="matrix(0.706098,0,0,0.706098,130.63254,20.2435)"
         id="g4345">
        <path
           style="fill:url(#linearGradient4357);fill-opacity:1"
           d="m -93.21875,-5 c -0.701739,0.05093 -1.32386,0.399002 -1.875,1.0625 -0.62238,0.749266 -0.93515,1.759368 -0.84375,2.65625 0.13502,1.325258 0.52701,2.417639 2.125,5.59375 0.87829,1.745672 1.16603,2.444852 1.46875,3.84375 0.42751,1.97561 0.59675,3.706343 0.59375,6 -0.0032,2.112224 -0.1327,3.650165 -0.46875,5.65625 -0.29504,1.76132 -0.8001,3.87913 -0.90625,3.84375 -0.162,-0.054 -0.35435,-1.69724 -0.5,-4.09375 -0.17149,-2.821717 -0.31607,-3.950392 -0.5625,-5.0625 -0.65564,-2.958878 -2.11383,-4.209451 -4.53125,-3.84375 -0.67827,0.102606 -1.77316,0.43541 -1.875,0.5625 -0.0436,0.05437 0.20036,0.913528 0.875,2.84375 0.53005,1.516555 0.96871,2.78499 0.96875,2.8125 1.3e-4,0.09547 -0.38595,0.22495 -0.46875,0.15625 -0.04265,-0.03539 -0.42522,-0.579562 -0.84375,-1.1875 -0.88323,-1.28291 -1.3326,-1.906774 -1.9375,-2.625 -1.62721,-1.932077 -3.38917,-2.856245 -5.21875,-2.75 -0.66765,0.03877 -1.67213,0.258525 -1.84375,0.40625 -0.11903,0.102464 -0.0899,0.276019 2.1875,8.5625 l 2.34375,8.46875 -0.53125,5.1875 c -0.28764,2.86077 -0.56605,5.2662 -0.59375,5.34375 -0.0493,0.1379 -0.059,0.15625 -1,0.15625 -0.52915,0 -1.60216,-0.0384 -2.375,-0.0937 -1.70766,-0.12234 -3.83674,-0.13626 -4.5625,-0.0313 -0.73777,0.10675 -1.81055,0.37512 -2.8125,0.71875 -3.12922,1.07321 -5.86797,2.97015 -8.15625,5.6875 -2.10913,2.50461 -3.89736,5.69387 -5.65625,10.09375 -0.5279,1.32056 -1.66848,4.48619 -1.9375,5.34375 -0.66555,2.12159 -1.03385,4.37359 -1.09375,6.8125 -0.0533,2.17221 0.11172,3.95965 0.5625,5.78125 0.52879,2.13682 1.31646,3.79169 2.40625,5.1875 0.26089,0.33415 0.54197,0.62928 0.84375,0.9375 0.0104,0.0107 0.0208,0.0206 0.0313,0.0313 0.009,0.01 0.0218,0.0217 0.0313,0.0313 0.006,0.006 -0.006,0.0249 0,0.0313 1.40287,1.40657 2.92962,2.22856 4.875,2.625 1.3904,0.28335 3.8125,0.32956 3.8125,0.0625 0,-0.0446 -0.4207,-1.30134 -0.9375,-2.78125 -0.5168,-1.47991 -0.93732,-2.71245 -0.9375,-2.75 -3.7e-4,-0.0657 0.25943,-0.21875 0.375,-0.21875 0.0308,0 0.3575,0.45089 0.71875,1 1.45424,2.21052 2.57226,3.47656 3.84375,4.34375 0.75495,0.51491 1.74465,0.9106 2.53125,1.03125 0.48581,0.0745 1.64629,0.0693 2.125,-0.0313 0.59097,-0.12407 1.1774,-0.31874 1.25,-0.40625 0.009,-0.0114 -0.0412,-0.0716 -0.0625,-0.125 0.0103,0.0393 -0.0454,0.0625 -0.0937,0.0937 -0.0621,0.0401 -0.14877,0.0937 -0.375,0.15625 -0.12845,0.0355 -0.23844,0.0592 -0.375,0.0937 0.0198,-0.005 0.0434,-0.0263 0.0625,-0.0313 0.33517,-0.0878 0.6359,-0.18988 0.6875,-0.21875 0.0543,-0.0304 -0.29763,-0.65861 -1,-1.78125 0.32996,0.52658 0.78819,1.19289 0.875,1.34375 -0.0172,0 -0.006,0.0561 0.0313,0.125 0.0369,0.0689 0.0765,0.125 0.0937,0.125 0.0131,0 -0.011,-0.0474 -0.0313,-0.0937 0.007,0.0136 0.12404,0.1838 0.125,0.1875 -0.10052,-0.2518 -0.53852,-0.99519 -1.71875,-2.84375 -1.92758,-3.01907 -2.00895,-3.14727 -1.96875,-3.1875 0.0136,-0.0136 0.34184,0.20661 0.71875,0.5 2.46002,1.91496 4.96826,3.26554 7.25,3.90625 2.85756,0.80238 5.55016,0.41305 7.59375,-1.125 0.64668,-0.48671 1.31515,-1.14709 1.28125,-1.25 -0.01558,-0.0473 -2.38964,-1.05518 -5.28125,-2.25 -2.8916,-1.19481 -5.26775,-2.20935 -5.28125,-2.25 -0.0388,-0.11642 2.24262,0.0174 4.71875,0.28125 0.79274,0.0845 2.08225,0.22765 2.875,0.3125 2.54925,0.27286 3.12042,0.31344 4.875,0.3125 1.86273,-0.001 2.67853,-0.0769 4.09375,-0.375 2.2045,-0.46438 4.56691,-1.57621 6.5,-3.03125 0.78703,-0.59241 1.1712,-0.95647 1.125,-1.03125 -0.02533,-0.041 -3.1242,-0.0302 -9.125,0 -6.17774,0.0311 -8.98913,0.0118 -9.09375,-0.0313 -0.0173,-0.003 -0.0526,0.004 -0.0625,0 -0.0398,-0.0644 0.61915,-1.86605 0.71875,-1.96875 0.0285,-0.0294 0.25964,0.0447 0.5,0.1875 4.16124,2.47215 13.12473,1.83529 19.625,-1.40625 1.86524,-0.93016 3.09359,-1.80782 4.3125,-3.03125 1.45803,-1.46344 2.3184,-3.06228 2.4375,-4.59375 0.0351,-0.45169 0.0192,-0.46875 -0.09375,-0.46875 -0.13878,0 -2.41005,0.62255 -3.625,1 -0.44807,0.1392 -1.59741,0.50712 -2.5625,0.8125 -6.30376,1.99468 -8.9192,2.5298 -12.34375,2.59375 -1.9574,0.0366 -3.71255,-0.0812 -3.65625,-0.25 0.06364,-0.19092 2.7257,-1.10539 4.53125,-1.5625 1.54136,-0.39022 2.35258,-0.55732 5.9375,-1.28125 5.29944,-1.07015 7.21991,-1.56672 9.5625,-2.5 4.94058,-1.96832 7.74281,-5.17548 8.625,-9.84375 0.22963,-1.2145 0.36615,-3.34375 0.21875,-3.34375 -0.03081,0 -2.56666,1.43169 -5.65625,3.15625 -3.08981,1.72456 -5.6501,3.11687 -5.6875,3.09375 -0.08551,-0.0528 -0.44835,-0.86418 -0.40625,-0.90625 0.01709,-0.0171 0.41292,-0.23446 0.90625,-0.5 2.36944,-1.27538 4.17035,-2.61488 6.125,-4.5625 3.65295,-3.63981 5.79083,-7.84323 6.3125,-12.34375 0.14038,-1.21147 0.09561,-3.42116 -0.09375,-4.53125 -0.22428,-1.31484 -0.74788,-3.25971 -0.90625,-3.3125 -0.03585,-0.0119 -2.24473,3.17505 -4.875,7.0625 -5.53878,8.18614 -5.8314,8.6061 -5.875,8.5625 -0.09954,-0.0995 1.21984,-2.43512 3.4375,-6.125 0.96007,-1.59741 1.99248,-3.32674 2.28125,-3.84375 0.71049,-1.27202 1.71166,-3.38147 2.09375,-4.375 1.34231,-3.49033 1.53069,-6.452943 0.59375,-9.28125 -0.27208,-0.821313 -0.92696,-2.159548 -1.4375,-2.9375 -0.50619,-0.77133 -1.26495,-1.74502 -1.34375,-1.71875 -0.0356,0.01187 -1.55402,3.598518 -3.375,7.96875 l -3.3125,7.9375 -4.59375,7.84375 c -4.59423,7.85403 -4.79605,8.23519 -4.84375,8.1875 -0.03824,-0.0382 0.38166,-1.2152 0.8125,-2.28125 1.07774,-2.66676 2.18465,-4.79068 5.21875,-10 1.93777,-3.32699 2.8102,-4.88521 3.59375,-6.4375 2.44093,-4.835682 3.6161,-8.738738 3.90625,-13 0.0587,-0.866091 0.0588,-1.279734 0,-1.84375 -0.30668,-2.942092 -1.34262,-6.606092 -2.4375,-8.65625 -0.63612,-1.191129 -1.45973,-2.142662 -2.1875,-2.5 -0.32935,-0.161712 -0.43875,-0.1875 -0.96875,-0.1875 -0.54631,0 -0.64466,0.02292 -1.0625,0.21875 -1.01973,0.477927 -1.31313,1.227599 -1.3125,3.15625 3e-4,1.034299 0.07975,1.842931 0.40625,4.15625 l 0.21875,1.625 -0.03125,1.84375 c -0.03501,1.829126 -0.06126,2.418113 -0.25,4.125 -0.41512,3.754179 -1.43298,8.07279 -2.9375,12.65625 -0.56757,1.72908 -1.4068,4.13597 -1.5,4.28125 -0.21774,0.33933 0.31949,-2.14061 1.40625,-6.59375 1.78234,-7.303308 2.20745,-9.909888 2.28125,-13.59375 0.05097,-2.549335 -0.12028,-4.310363 -0.59385,-6.375 -0.28388,-1.237515 -0.39564,-1.560526 -0.8125,-2.4061 -1.16863,-2.370557 -3.20826,-4.88015 -4.875,-5.96875 -0.859165,-0.561147 -1.642011,-0.800928 -2.34375,-0.75 z"
           id="path4333"
           inkscape:connector-curvature="0" />
        <path
           style="fill:#000000"
           d="m -115.75,14.9375 c -0.60515,0.0073 -1.25259,0.06179 -1.625,0.125 -2.34424,0.397931 -4.21371,1.260803 -5.1875,2.4375 -0.76254,0.921442 -0.97744,2.073836 -0.59375,3.1875 0.0507,0.14793 0.0872,0.28775 0.0625,0.3125 -0.0247,0.0247 -2.32418,0.27112 -5.09375,0.5625 -2.2608,0.23785 -3.49975,0.40815 -4.15625,0.5 -0.0888,0.0124 -0.5232,0.0551 -0.5625,0.0625 -0.0261,0.005 -0.37249,0.0287 -0.375,0.0313 -0.006,0.006 0.0302,0.0996 0.0313,0.125 0.002,0.0365 -0.007,0.0559 0,0.0625 0.0251,0.2065 0.12314,0.65051 0.375,1.53125 0.44575,1.55802 0.53765,1.875 0.46875,1.875 -0.0151,0 -0.24774,-0.1628 -0.5,-0.34375 -1.04232,-0.7477 -1.98596,-1.10887 -3,-1.15625 -1.11962,-0.0523 -1.82805,0.25224 -2.625,1.03125 -0.0172,0.0168 -0.0452,0.0139 -0.0625,0.0313 -0.39978,0.40032 -0.55043,0.58654 -0.8125,1.125 -0.38185,0.78456 -0.5728,1.4813 -0.625,2.40625 -0.061,1.08043 0.17689,2.44739 0.5625,3.34375 l 0.125,0.3125 h 0.53125 c 0.3303,0 0.44513,0.005 0.5625,-0.0937 h -0.0625 c 0.0231,-0.0152 0.0629,-0.0253 0.0937,-0.0625 0.0427,-0.0517 0.0485,-0.0937 0.0313,-0.0937 l 0.125,-0.21875 c 0.074,-0.11331 0.16894,-0.20899 0.25,-0.3125 -0.0918,0.12036 -0.16975,0.24194 -0.25,0.375 l -0.15625,0.25 c 0.075,-0.08 0.17634,-0.16631 0.3125,-0.375 0.54896,-0.84138 1.53669,-1.4894 2.71875,-1.78125 0.8044,-0.19858 2.28321,-0.19799 3.28125,0 3.59637,0.71343 6.29212,3.15472 6.15625,5.59375 -0.0362,0.65037 -0.2671,1.0768 -0.84375,1.65625 -0.48068,0.48301 -1.10866,0.91121 -2.1875,1.5 -0.37913,0.20692 -1.00987,0.5642 -1.40625,0.78125 -0.39637,0.21705 -0.96184,0.55918 -1.25,0.75 -0.57094,0.3781 -1.28125,1.00589 -1.28125,1.15625 0,0.12954 0.35434,0.12462 1.875,-0.0313 0.65221,-0.0669 1.18782,-0.16975 1.75,-0.25 2.7268,-0.38926 4.54649,-0.91729 5.96875,-1.84375 1.35183,-0.88058 2.36841,-2.27876 2.75,-3.75 0.0619,-0.23879 0.11895,-0.40625 0.15625,-0.40625 0.0373,0 0.2839,0.12732 0.53125,0.28125 1.60533,0.99903 2.92542,1.35898 4.03125,1.125 0.98834,-0.20912 1.9396,-0.8042 3.6875,-2.3125 0.4635,-0.39996 0.86605,-0.75 0.90625,-0.75 0.0402,0 0.40438,0.79722 0.8125,1.75 0.40812,0.95278 0.79055,1.78003 0.84375,1.84375 0.0937,0.11214 0.1701,0.12346 1.65625,-0.125 0.84445,-0.14118 1.55975,-0.31161 1.59375,-0.34375 0.0868,-0.082 -0.2362,-1.17578 -0.53125,-1.875 -0.47544,-1.1267 -1.29574,-2.14373 -2.28125,-2.78125 -0.59067,-0.3821 -1.47814,-0.79803 -2.90625,-1.34375 -1.55478,-0.59412 -2.35838,-0.97604 -3.09375,-1.46875 -0.72849,-0.4881 -1.43325,-1.13503 -1.34375,-1.21875 0.0345,-0.0323 0.28676,-0.12307 0.5625,-0.21875 2.1963,-0.76212 3.7005,-2.20738 4.6875,-4.53125 0.40613,-0.95622 0.73627,-2.17838 1.28125,-4.59375 0.24726,-1.095849 0.56754,-2.333324 0.6875,-2.75 0.11999,-0.416676 0.2058,-0.79614 0.1875,-0.84375 -0.002,-0.0054 -0.0734,0.02682 -0.0937,0.03125 -0.21834,0.04752 -1.46883,0.624931 -4.53125,2.15625 -2.52038,1.260286 -4.62295,2.29235 -4.65625,2.28125 -0.0333,-0.0111 0.77086,-0.741045 1.78125,-1.625 1.0104,-0.883955 1.9224,-1.67689 2,-1.75 0.0499,-0.04702 0.0414,-0.09447 0.0625,-0.15625 0.0316,-0.09267 0.0625,-0.21781 0.0625,-0.5 0,-0.520896 -0.0187,-0.5545 -0.1875,-0.625 -0.1367,-0.05709 -0.6761,-0.06978 -1.28125,-0.0625 z"
           id="path4323"
           inkscape:connector-curvature="0" />
        <path
           style="fill:#ff0000"
           d="m -126.625,34.21875 c -0.49727,0.0386 -1.54152,0.20981 -2.65625,0.4375 -5.07501,1.03661 -9.13574,2.82673 -11.5,5.09375 -0.47774,0.45809 -1.125,1.21966 -1.125,1.3125 0,0.021 0.0194,0.0303 0.0625,0.0313 0.18406,0.004 15.24798,-4.20507 15.4375,-4.3125 -0.018,0 -3.39056,0.92787 -7.5,2.0625 -4.10945,1.13464 -7.55537,2.06847 -7.65625,2.09375 -0.004,-0.004 -0.0188,0.005 -0.0313,0 -0.0339,-0.0136 -0.0676,-0.009 -0.0937,0 0.008,0.0113 0.0162,0.0331 0.0625,0.0313 l -0.125,0.0313 0.0625,-0.0625 0.0937,-0.15625 c 0.0124,0 0.0625,-0.0309 0.0937,-0.0625 l -0.1875,0.21875 0.21875,-0.0625 c 0.11964,-0.0236 3.54064,-0.9655 7.625,-2.09375 l 7.4375,-2.03125 c -4.5e-4,7e-4 4.5e-4,0.0313 0,0.0313 7.2e-4,-4.1e-4 0.0622,2.9e-4 0.0625,0 0.11728,-0.11762 0.11709,-2.46552 0,-2.5625 -0.0228,-0.0189 -0.11549,-0.0129 -0.28125,0 z"
           id="path4223"
           inkscape:connector-curvature="0" />
        <path
           style="fill:#000000;fill-opacity:0.48235294"
           d="m -158.71875,34.78125 c -0.0582,-0.0581 -1.26055,0.0962 -1.75,0.21875 -1.39057,0.34821 -2.22653,1.17963 -2.71875,2.6875 -0.0883,0.2706 -0.15625,0.52922 -0.15625,0.59375 0,0.14672 0.0492,0.1509 0.59375,0 1.1339,-0.31422 2.02765,-0.84435 2.75,-1.59375 0.591,-0.61313 1.39414,-1.79336 1.28125,-1.90625 z"
           id="path4217"
           inkscape:connector-curvature="0" />
        <path
           style="fill:#240000;fill-opacity:0.87843137"
           d="m -154.3125,35.28125 c -0.74609,0.0464 -1.70767,0.27527 -2.3125,0.5625 -1.72595,0.81965 -2.74005,2.30725 -3.21875,4.65625 -0.28011,1.37454 -0.32735,2.12786 -0.34375,5.78125 -0.009,1.9059 -0.0377,3.47574 -0.0625,3.5 -0.0248,0.0243 -0.11474,-0.0356 -0.21875,-0.15625 -0.38961,-0.45189 -0.89025,-1.25754 -1.59375,-2.65625 -0.25913,-0.51521 -0.46831,-0.85723 -0.6875,-1.25 -0.11807,-0.21158 -0.2821,-0.59409 -0.34375,-0.6875 -0.38174,-0.57838 -1.08502,-1.30557 -1.5625,-1.625 -0.40834,-0.27318 -1.02423,-0.5 -1.4375,-0.5 -1.19363,0 -2.24584,1.09346 -2.5625,2.65625 -0.30433,1.50194 0.28778,2.7474 1.53125,3.21875 0.20356,0.0772 0.51917,0.11303 1.125,0.125 0.46161,0.009 0.88215,0.0347 0.90625,0.0625 0.0241,0.0278 0.12415,0.28676 0.21875,0.5625 0.27666,0.8066 0.94767,2.13079 1.96875,3.84375 1.0789,1.80996 1.76777,3.12788 2.0625,3.9375 0.316,0.86805 1.79843,6.59281 2,7.71875 0.17541,0.97978 0.2211,1.8742 0.125,2.34375 -0.0423,0.2068 -0.23588,0.79723 -0.4375,1.28125 -0.55938,1.34286 -0.6017,1.84609 -0.21875,2.90625 0.7618,2.10901 2.10163,3.5418 4.03125,4.34375 0.48816,0.20288 0.5702,0.21465 0.6875,-0.0625 0.26277,-0.62089 0.60257,-1.97118 0.71875,-2.90625 0.1902,-1.53079 0.0505,-2.61984 -0.75,-6.15625 -0.37037,-1.63618 -0.66131,-3.625 -0.53125,-3.625 0.0303,4e-5 0.27293,0.16386 0.53125,0.375 0.25832,0.21114 1.11333,0.89548 1.90625,1.5 2.06943,1.57771 2.32566,1.79139 4.6875,4.125 0.89253,0.88187 1.53763,1.47656 2.09375,1.96875 1.10601,0.97886 1.76727,1.40149 2.6875,1.71875 0.49581,0.17093 0.70061,0.21812 1.125,0.21875 1.03585,0.001 1.5078,-0.43173 1.5625,-1.4375 0.0386,-0.70995 -0.17809,-1.52704 -0.75,-2.6875 -0.55922,-1.13471 -1.00752,-1.72979 -1.875,-2.5625 -1.00951,-0.96905 -1.94617,-1.6547 -4.96875,-3.59375 -2.57335,-1.65086 -3.7205,-2.49793 -4.71875,-3.5 -1.31565,-1.32067 -1.8744,-2.41637 -1.9375,-3.84375 -0.052,-1.17505 0.2404,-1.92465 1,-2.6875 0.77881,-0.78214 1.63831,-1.21743 4.15625,-2.09375 2.66039,-0.92589 3.65245,-1.50761 4.09375,-2.40625 0.15358,-0.31278 0.15638,-0.41302 0.15625,-0.9375 -1.5e-4,-0.504 2.2e-4,-0.63626 -0.125,-0.875 -0.57961,-1.10501 -2.32402,-1.77065 -5.15625,-1.9375 l -0.71875,-0.0313 -2.40625,2.40625 c -1.32228,1.32063 -2.4176,2.36363 -2.4375,2.34375 -0.0199,-0.0199 0.55592,-3.10352 1.28125,-6.875 0.72532,-3.77148 1.34375,-6.90494 1.34375,-6.96875 0,-0.10758 -0.0584,-0.12901 -0.625,-0.0937 z"
           id="path4209"
           inkscape:connector-curvature="0" />
        <path
           style="fill:#000000;fill-opacity:0.48235294"
           d="m -149.21875,39.6875 0.0313,0.21875 c 0.0393,0.42143 0.26001,1.4193 0.4375,1.90625 0.56027,1.5371 1.53229,2.47801 3.125,3 0.37851,0.12405 0.55235,0.13425 0.59375,0.0625 0.0592,-0.10259 -0.0952,-1.5674 -0.21875,-2.09375 -0.36618,-1.55971 -1.30385,-2.50075 -2.90625,-2.90625 -0.31261,-0.0791 -0.67463,-0.14414 -0.8125,-0.15625 l -0.25,-0.0313 z"
           id="path4147"
           inkscape:connector-curvature="0" />
        <path
           style="fill:#000000;fill-opacity:0.48235294"
           d="m -170.96875,46.1875 c -0.0657,0.0256 -0.0832,0.0863 -0.125,0.1875 -0.113,0.27347 -0.28125,1.31522 -0.28125,1.71875 0,1.06126 0.48448,1.93942 1.40625,2.5625 0.35695,0.24128 0.40825,0.24638 0.40625,0.0937 -0.003,-0.27215 -0.49595,-4.44289 -0.53125,-4.5 -0.0218,-0.0353 -0.22776,-0.0625 -0.46875,-0.0625 -0.21767,0 -0.34053,-0.0256 -0.40625,0 z"
           id="path4099"
           inkscape:connector-curvature="0" />
        <path
           style="fill:#000000;fill-opacity:0.48235294"
           d="m -137.53125,59.96875 c -0.10793,0 -0.67024,0.57495 -0.9375,0.96875 -0.73699,1.08592 -1.31161,2.70207 -1.65625,4.6875 -0.12234,0.70458 -0.123,1.03352 -0.125,2.5625 -0.002,1.93275 0.0407,2.37028 0.40625,3.46875 0.40281,1.2105 1.07121,2.01725 1.875,2.3125 0.12882,0.0473 0.35892,0.0921 0.53125,0.0937 1.00909,0.01 1.94317,-1.11018 2.375,-2.8125 0.36712,-1.44725 0.0929,-2.66498 -1.25,-5.5 -0.85945,-1.81446 -1.08414,-2.53028 -1.21875,-3.625 -0.0651,-0.52951 -0.0674,-1.05469 0.0313,-1.84375 0.0276,-0.22108 0.0147,-0.3125 -0.0313,-0.3125 z"
           id="path4027"
           inkscape:connector-curvature="0" />
        <path
           style="fill:#000000;fill-opacity:0.48235294"
           d="m -162.78125,71.875 c -0.0841,0 -0.0793,0.17879 0.0625,0.875 0.23134,1.13559 0.6423,1.81908 1.40625,2.21875 0.46923,0.24548 0.7653,0.31765 1.46875,0.4375 0.2585,0.044 0.50435,0.0902 0.53125,0.0937 0.1836,0.0241 0.0365,-0.71138 -0.28125,-1.375 -0.29389,-0.61387 -0.99444,-1.28547 -1.71875,-1.65625 -0.52708,-0.26981 -1.34388,-0.59375 -1.46875,-0.59375 z"
           id="path3937"
           inkscape:connector-curvature="0" />
        <path
           style="fill:#ff0000;fill-opacity:1;stroke:none"
           d="m -129.25284,25.510799 c 0,0 1.39127,-0.970054 2.64875,-0.918954 1.46564,0.05956 2.43253,1.351403 2.43253,1.351403 -3.24337,2.000077 -5.08128,-0.432449 -5.08128,-0.432449 z"
           id="path4343"
           inkscape:connector-curvature="0"
           sodipodi:nodetypes="cscc" />
      </g>
    </g>
  </g>
</svg>
