<?xml version="1.0" encoding="UTF-8" standalone="no"?>
<svg
   xmlns:dc="http://purl.org/dc/elements/1.1/"
   xmlns:cc="http://creativecommons.org/ns#"
   xmlns:rdf="http://www.w3.org/1999/02/22-rdf-syntax-ns#"
   xmlns:svg="http://www.w3.org/2000/svg"
   xmlns="http://www.w3.org/2000/svg"
   xmlns:xlink="http://www.w3.org/1999/xlink"
   xmlns:sodipodi="http://sodipodi.sourceforge.net/DTD/sodipodi-0.dtd"
   xmlns:inkscape="http://www.inkscape.org/namespaces/inkscape"
   width="96"
   height="96"
   version="1.1"
   id="svg77"
   sodipodi:docname="bokken.svg"
   inkscape:version="0.92.2 5c3e80d, 2017-08-06">
  <metadata
     id="metadata81">
    <rdf:RDF>
      <cc:Work
         rdf:about="">
        <dc:format>image/svg+xml</dc:format>
        <dc:type
           rdf:resource="http://purl.org/dc/dcmitype/StillImage" />
      </cc:Work>
    </rdf:RDF>
  </metadata>
  <sodipodi:namedview
     pagecolor="#ffffff"
     bordercolor="#666666"
     borderopacity="1"
     objecttolerance="10"
     gridtolerance="10"
     guidetolerance="10"
     inkscape:pageopacity="0"
     inkscape:pageshadow="2"
     inkscape:window-width="640"
     inkscape:window-height="480"
     id="namedview79"
     showgrid="false"
     inkscape:zoom="2.4583333"
     inkscape:cx="48"
     inkscape:cy="48"
     inkscape:window-x="0"
     inkscape:window-y="25"
     inkscape:window-maximized="0"
     inkscape:current-layer="svg77" />
  <defs
     id="defs2410">
    <linearGradient
       id="linearGradient4384">
      <stop
         id="stop4386"
         stop-color="#fff"
         offset="0" />
      <stop
         id="stop4388"
         stop-color="#fff"
         stop-opacity="0"
         offset="1" />
    </linearGradient>
    <filter
       id="filter3794"
       x="-.192"
       y="-.192"
       width="1.384"
       height="1.384">
      <feGaussianBlur
         id="feGaussianBlur3796"
         stdDeviation="5.28" />
    </filter>
    <linearGradient
       id="linearGradient3613"
       x1="48"
       x2="48"
       y1="20.221"
       y2="138.66"
       gradientUnits="userSpaceOnUse">
      <stop
         id="stop3739"
         stop-color="#fff"
         offset="0" />
      <stop
         id="stop3741"
         stop-color="#fff"
         stop-opacity="0"
         offset="1" />
    </linearGradient>
    <linearGradient
       id="buttonGradient"
       x1="48"
       x2="48"
       y1="90"
       y2="5.9877"
       gradientUnits="userSpaceOnUse">
      <stop
         id="stop3702"
         stop-color="#4e4e4e"
         offset="0" />
      <stop
         id="stop3704"
         stop-color="#828282"
         offset="1" />
    </linearGradient>
    <linearGradient
       id="ButtonShadow-0"
       x1="45.448"
       x2="45.448"
       y1="92.54"
       y2="7.0165"
       gradientTransform="matrix(1.0059 0 0 .99417 100 0)"
       gradientUnits="userSpaceOnUse">
      <stop
         id="stop3750-8"
         offset="0" />
      <stop
         id="stop3752-5"
         stop-opacity=".58824"
         offset="1" />
    </linearGradient>
    <linearGradient
       id="linearGradient3780"
       x1="32.251"
       x2="32.251"
       y1="6.1317"
       y2="90.239"
       gradientTransform="matrix(1.0238 0 0 1.0119 -1.1429 -98.071)"
       gradientUnits="userSpaceOnUse"
       xlink:href="#ButtonShadow-0" />
    <linearGradient
       id="linearGradient3721"
       x1="32.251"
       x2="32.251"
       y1="6.1317"
       y2="90.239"
       gradientTransform="translate(0,-97)"
       gradientUnits="userSpaceOnUse"
       xlink:href="#ButtonShadow-0" />
    <clipPath
       id="clipPath4355">
      <rect
         id="rect4357"
         x="6"
         y="6"
         width="84"
         height="80"
         rx="6"
         ry="6"
         fill="#fff" />
    </clipPath>
    <linearGradient
       id="linearGradient4390"
       x1="48"
       x2="48"
       y1="88"
       y2="-40"
       gradientTransform="matrix(1,0,0,-1,0,92)"
       gradientUnits="userSpaceOnUse"
       xlink:href="#linearGradient4384" />
    <linearGradient
       id="linearGradient4429"
       x1="48"
       x2="112.12"
       y1="82"
       y2="82.455"
       gradientUnits="userSpaceOnUse"
       spreadMethod="reflect"
       xlink:href="#linearGradient4384" />
    <linearGradient
       id="linearGradient3228"
       x1="90"
       x2="48"
       y1="88"
       y2="88"
       gradientUnits="userSpaceOnUse"
       spreadMethod="reflect">
      <stop
         id="stop3894"
         stop-opacity=".58824"
         offset="0" />
      <stop
         id="stop3896"
         stop-opacity=".47059"
         offset=".1178" />
      <stop
         id="stop3898"
         stop-opacity=".39216"
         offset=".2381" />
      <stop
         id="stop3900"
         stop-opacity=".31373"
         offset="1" />
    </linearGradient>
  </defs>
  <g
     id="layer3">
    <g
       id="g32"
       fill="url(#linearGradient3780)">
      <path
         id="path3786"
         transform="scale(1,-1)"
         d="m12-95.021c-5.5111 0-10.022 4.51-10.022 10.021v71c0 5.5111 4.5104 10.021 10.021 10.021h72c5.5111 0 10.021-4.5104 10.021-10.021v-71c0-5.5111-4.5104-10.021-10.021-10.021h-72z"
         opacity=".08" />
      <path
         id="path3778"
         transform="scale(1,-1)"
         d="m12-94.035c-4.9716 0-9.0352 4.0635-9.0352 9.0352v71c0 4.9716 4.0635 9.0352 9.0352 9.0352h72c4.9716 0 9.0352-4.0635 9.0352-9.0352v-71c0-4.9716-4.0635-9.0352-9.0352-9.0352h-72z"
         opacity=".1" />
      <path
         id="path3770"
         transform="scale(1,-1)"
         d="m12-92.99c-4.4091 0-7.9902 3.5811-7.9902 7.9902v71c0 4.4091 3.5811 7.9902 7.9902 7.9902h72c4.4091 0 7.9902-3.5811 7.9902-7.9902v-71c0-4.4091-3.5811-7.9902-7.9902-7.9902h-72z"
         opacity=".2" />
      <rect
         id="rect3723"
         transform="scale(1,-1)"
         x="5"
         y="-92"
         width="86"
         height="85"
         rx="7"
         ry="7"
         opacity=".3" />
    </g>
    <rect
       id="rect3716"
       transform="scale(1,-1)"
       x="6"
       y="-91"
       width="84"
       height="84"
       rx="6"
       ry="6"
       fill="url(#linearGradient3721)"
       opacity=".45" />
  </g>
  <g
     id="layer1">
    <rect
       id="button"
       x="6"
       y="6"
       width="84"
       height="84"
       rx="6"
       ry="6"
       fill="url(#buttonGradient)" />
    <path
       id="rect4377"
       d="m12 86c-3.324 0-6-2.676-6-6v-68c0-3.324 2.676-6 6-6h72c3.324 0 6 2.676 6 6v68c0 3.324-2.676 6-6 6zm0-0.96875h72c2.8049 0 5.0312-2.2264 5.0312-5.0312v-68c0-2.8049-2.226-5.0312-5.031-5.0312h-72c-2.8049 0-5.0312 2.2263-5.0312 5.0312v68c0 2.8049 2.2264 5.0312 5.0312 5.0312z"
       fill="url(#linearGradient4390)"
       opacity=".3" />
    <path
       id="rect4414"
       d="m6 78v2c0 3.324 2.676 6 6 6h72c3.324 0 6-2.676 6-6v-2c0 3.324-2.676 6-6 6h-72c-3.324 0-6-2.676-6-6z"
       fill="url(#linearGradient4429)"
       opacity=".1" />
  </g>
  <g
     id="layer4">
    <path
       id="path3888"
       d="m6 80v4c0 3.324 2.676 6 6 6h72c3.324 0 6-2.676 6-6v-4c0 3.324-2.676 6-6 6h-72c-3.324 0-6-2.676-6-6z"
       fill="url(#linearGradient3228)" />
    <path
       id="rect4345"
       d="m6 82v2c0 3.324 2.676 6 6 6h72c3.324 0 6-2.676 6-6v-2c0 3.324-2.676 6-6 6h-72c-3.324 0-6-2.676-6-6z"
       color="#000000"
       opacity=".1" />
    <path
       id="rect4336"
       d="m6 83v1c0 3.324 2.676 6 6 6h72c3.324 0 6-2.676 6-6v-1c0 3.324-2.676 6-6 6h-72c-3.324 0-6-2.676-6-6z"
       color="#000000"
       opacity=".15" />
  </g>
  <g
     id="layer5">
    <rect
       id="rect3171"
       x="15"
       y="15"
       width="66"
       height="62"
       rx="12"
       ry="12"
       clip-path="url(#clipPath4355)"
       fill="url(#linearGradient3613)"
       filter="url(#filter3794)"
       opacity=".1"
       stroke="#fff"
       stroke-linecap="round"
       stroke-width=".5" />
  </g>
  <defs
     id="defs53">
    <filter
       id="w">
      <feGaussianBlur
         stdDeviation="0.23199685"
         id="feGaussianBlur45" />
    </filter>
    <linearGradient
       id="a"
       gradientUnits="userSpaceOnUse"
       x1="8"
       y1="1.3320312"
       x2="8"
       y2="14.6679692">
      <stop
         stop-color="#fafafa"
         offset="0"
         id="stop48" />
      <stop
         stop-color="#ebebeb"
         offset="1"
         id="stop50" />
    </linearGradient>
  </defs>
  <g
     transform="translate(0,-2)"
     id="g75">
    <path
       style="opacity:0.15;fill:#000000"
       d="m 7.3066406,1.0820312 c -0.1038339,7.6e-6 -0.21924,0.020236 -0.3164062,0.1035157 -0.097166,0.083279 -0.1386719,0.2155726 -0.1386719,0.3222656 v 2.9179687 h -5.46875 c -0.102132,6.5e-6 -0.1975284,0.00755 -0.2988281,0.064453 -0.10129973,0.056904 -0.18751347,0.1995429 -0.18750002,0.3183594 -9.05e-6,0.115488 0.049623,0.2548095 0.15234372,0.3378906 C 1.1515489,5.2295654 1.2704198,5.2500071 1.3828125,5.25 H 6.4316406 C 6.3877046,5.7126448 5.9411059,6.6479102 4.96875,7.9628906 3.9503965,9.353285 3.0455168,10.48608 2.2578125,11.361328 l -0.765625,0.839844 c -0.026436,0.02619 -0.1245307,0.120322 -0.2949219,0.28125 a 0.250025,0.250025 0 0 0 -0.00977,0.0098 c -0.1690824,0.179003 -0.29529847,0.318397 -0.3828125,0.427734 a 0.250025,0.250025 0 0 0 0.3125,0.376953 C 3.1081628,12.236366 4.8416898,10.676238 6.3144531,8.6269531 L 6.3164062,8.625 C 6.6014503,8.2362605 6.6716523,8.1133162 6.8378906,7.8730469 l 0.013672,6.3378911 c -5.9e-6,0.179211 0.022968,0.338571 0.1132813,0.478515 0.090314,0.139945 0.2687277,0.228516 0.4316406,0.228516 0.2042735,0 0.403597,-0.06477 0.5507812,-0.197266 0.1534276,-0.138035 0.2341588,-0.334631 0.2695313,-0.556641 v -0.002 c 0.030252,-0.181656 0.051819,-0.340151 0.0625,-0.476562 0.011407,-0.145697 0.010256,-0.330761 0,-0.5625 -0.00975,-0.224753 -0.013674,-0.363769 -0.013672,-0.371094 V 7.1894531 C 8.6928807,7.8867373 9.1257389,8.6017168 9.4804688,9.0722656 10.00934,9.7707573 10.707421,10.576042 11.576172,11.494141 a 0.250025,0.250025 0 0 0 0.002,0 c 0.443155,0.463084 0.823919,0.814196 1.152344,1.05664 0.328425,0.242445 0.598146,0.392578 0.884765,0.392578 0.08167,0 0.173807,-0.01747 0.25586,-0.07226 0.06679,-0.04457 0.111728,-0.09367 0.160156,-0.154297 0.03571,-0.04462 0.06441,-0.07403 0.05469,-0.06445 -3.17e-4,3.12e-4 0.0024,-0.0024 0.002,-0.002 0.08949,-0.08064 0.252449,-0.188739 0.492187,-0.308594 a 0.250025,0.250025 0 0 0 0.0078,-0.002 c 0.260919,-0.140523 0.4426,-0.248951 0.568359,-0.34961 a 0.250025,0.250025 0 0 0 -0.07813,-0.43164 c -0.133657,-0.04454 -0.628253,-0.261463 -1.400391,-0.623047 l -0.002,-0.002 C 13.178662,10.694411 12.721538,10.421767 12.302734,10.117188 11.8855,9.8137716 11.480389,9.4483914 11.087891,9.0175781 10.689844,8.5709755 10.3605,8.1878164 10.099609,7.8691406 l -0.0059,-0.00586 C 9.8421655,7.5340636 9.5092169,7.0734648 9.0898438,6.4785156 a 0.250025,0.250025 0 0 0 -0.00195,-0.00195 C 8.8217005,6.1087259 8.6227646,5.8034395 8.4960938,5.5683594 8.4068702,5.4027753 8.3963064,5.3314409 8.375,5.2519531 h 5.210938 c 0.142443,0 0.271073,-0.01464 0.392578,-0.085937 C 14.10002,5.0947181 14.189423,4.9350042 14.189453,4.7949219 14.189387,4.6819078 14.14801,4.6318696 14.115234,4.5839844 14.082459,4.5360992 14.045541,4.4940718 14,4.4472656 13.909686,4.3544419 13.788251,4.2468002 13.628906,4.1171875 l -0.0039,-0.00195 c -0.159066,-0.1340788 -0.290796,-0.2380713 -0.400391,-0.3125 -0.110518,-0.075056 -0.165232,-0.142555 -0.345703,-0.1425782 -0.188695,2.78e-5 -0.243903,0.088268 -0.324218,0.1679688 -0.08032,0.079701 -0.163842,0.1824559 -0.261719,0.3164062 a 0.250025,0.250025 0 0 0 -0.0039,0.00586 c -0.156218,0.2256276 -0.272634,0.277346 -0.310546,0.2773438 H 8.265625 v -2.109375 c -1.7e-6,-0.018741 0.00274,-0.047889 0.085937,-0.1171875 a 0.250025,0.250025 0 0 0 0.00977,-0.00781 C 8.4983782,2.0677049 8.6190785,1.9578742 8.6191406,1.7441406 8.6191102,1.5799888 8.5067078,1.4553457 8.3984375,1.3847656 8.2901672,1.3141856 8.1642117,1.2677577 8.0078125,1.2246094 7.7258364,1.1345242 7.5014521,1.0820446 7.3066406,1.0820312 Z"
       id="path55"
       inkscape:original="M 7.3066406 1.3320312 C 7.1691106 1.3320412 7.1015625 1.3899225 7.1015625 1.5078125 L 7.1015625 4.6757812 L 1.3828125 4.6757812 C 1.2256225 4.6757912 1.1464744 4.7201937 1.1464844 4.8085938 C 1.1464744 4.9362738 1.2256025 5.00001 1.3828125 5 L 6.5703125 5 C 6.6684925 5.00001 6.7167769 5.0502375 6.7167969 5.1484375 C 6.7167969 5.7281375 6.2015219 6.7162281 5.1699219 8.1113281 C 4.1481219 9.5064281 3.2391294 10.645087 2.4433594 11.529297 L 1.6777344 12.369141 C 1.6482544 12.398611 1.5459706 12.497053 1.3691406 12.664062 C 1.2021006 12.840903 1.0786 12.977972 1 13.076172 C 2.9551 12.034772 4.6592813 10.502316 6.1132812 8.4785156 C 6.6536212 7.7416656 6.9778675 7.274615 7.0859375 7.078125 L 7.1015625 14.210938 C 7.1015525 14.515498 7.1999744 14.667969 7.3964844 14.667969 C 7.5536644 14.667969 7.6810969 14.623556 7.7792969 14.535156 C 7.8775769 14.446736 7.9412031 14.309717 7.9707031 14.123047 C 8.0002031 13.946207 8.0192969 13.793726 8.0292969 13.666016 C 8.0392969 13.538296 8.0392969 13.360726 8.0292969 13.134766 C 8.0194969 12.908806 8.015615 12.781453 8.015625 12.751953 L 8.015625 6.3417969 C 8.644425 7.4225969 9.1982775 8.283285 9.6796875 8.921875 C 10.200388 9.609575 10.893242 10.408586 11.757812 11.322266 C 12.632152 12.235926 13.251724 12.693359 13.615234 12.693359 C 13.664334 12.693359 13.702922 12.683763 13.732422 12.664062 C 13.761882 12.644403 13.796637 12.609747 13.835938 12.560547 C 13.875237 12.511447 13.900156 12.482656 13.910156 12.472656 C 14.028016 12.364576 14.21328 12.246861 14.46875 12.119141 C 14.72415 11.981591 14.9018 11.873522 15 11.794922 C 14.8231 11.735972 14.346433 11.523656 13.570312 11.160156 C 13.059463 10.914546 12.58853 10.634692 12.15625 10.320312 C 11.72398 10.005962 11.305134 9.6276569 10.902344 9.1855469 C 10.499524 8.7336369 10.165641 8.3457044 9.9003906 8.0214844 C 9.6449806 7.6874844 9.3072056 7.2223469 8.8847656 6.6230469 C 8.3444056 5.8763469 8.0742188 5.3745906 8.0742188 5.1191406 C 8.0742187 5.0405606 8.1282681 5.0019531 8.2363281 5.0019531 L 13.585938 5.0019531 C 13.821708 5.0019531 13.939423 4.9324719 13.939453 4.7949219 C 13.939413 4.7261519 13.781167 4.5640437 13.466797 4.3085938 C 13.152407 4.0433438 12.957506 3.9101663 12.878906 3.9101562 C 12.810136 3.9101663 12.680791 4.0375287 12.494141 4.2929688 C 12.317281 4.5484088 12.145516 4.6777444 11.978516 4.6777344 L 8.015625 4.6777344 L 8.015625 2.3183594 C 8.015615 2.2102994 8.0735163 2.1079656 8.1914062 2.0097656 C 8.3092662 1.9017056 8.3691206 1.8129406 8.3691406 1.7441406 C 8.3691206 1.6360806 8.2263063 1.5434438 7.9414062 1.4648438 C 7.6663063 1.3764138 7.4539906 1.3320413 7.3066406 1.3320312 z "
       transform="matrix(4,0,0,4,16,17)"
       inkscape:radius="0.25"
       sodipodi:type="inkscape:offset" />
    <g
       id="Bevel1">
      <path
         fill="#000"
         opacity=".10"
         sodipodi:type="inkscape:offset"
         inkscape:radius="0.5"
         transform="translate(16,17) scale(4)"
         inkscape:original="M 7.3066406 1.3320312 C 7.1691106 1.3320412 7.1015625 1.3899225 7.1015625 1.5078125 L 7.1015625 4.6757812 L 1.3828125 4.6757812 C 1.2256225 4.6757912 1.1464744 4.7201937 1.1464844 4.8085938 C 1.1464744 4.9362738 1.2256025 5.00001 1.3828125 5 L 6.5703125 5 C 6.6684925 5.00001 6.7167769 5.0502375 6.7167969 5.1484375 C 6.7167969 5.7281375 6.2015219 6.7162281 5.1699219 8.1113281 C 4.1481219 9.5064281 3.2391294 10.645087 2.4433594 11.529297 L 1.6777344 12.369141 C 1.6482544 12.398611 1.5459706 12.497053 1.3691406 12.664062 C 1.2021006 12.840903 1.0786 12.977972 1 13.076172 C 2.9551 12.034772 4.6592813 10.502316 6.1132812 8.4785156 C 6.6536212 7.7416656 6.9778675 7.274615 7.0859375 7.078125 L 7.1015625 14.210938 C 7.1015525 14.515498 7.1999744 14.667969 7.3964844 14.667969 C 7.5536644 14.667969 7.6810969 14.623556 7.7792969 14.535156 C 7.8775769 14.446736 7.9412031 14.309717 7.9707031 14.123047 C 8.0002031 13.946207 8.0192969 13.793726 8.0292969 13.666016 C 8.0392969 13.538296 8.0392969 13.360726 8.0292969 13.134766 C 8.0194969 12.908806 8.015615 12.781453 8.015625 12.751953 L 8.015625 6.3417969 C 8.644425 7.4225969 9.1982775 8.283285 9.6796875 8.921875 C 10.200388 9.609575 10.893242 10.408586 11.757812 11.322266 C 12.632152 12.235926 13.251724 12.693359 13.615234 12.693359 C 13.664334 12.693359 13.702922 12.683763 13.732422 12.664062 C 13.761882 12.644403 13.796637 12.609747 13.835938 12.560547 C 13.875237 12.511447 13.900156 12.482656 13.910156 12.472656 C 14.028016 12.364576 14.21328 12.246861 14.46875 12.119141 C 14.72415 11.981591 14.9018 11.873522 15 11.794922 C 14.8231 11.735972 14.346433 11.523656 13.570312 11.160156 C 13.059463 10.914546 12.58853 10.634692 12.15625 10.320312 C 11.72398 10.005962 11.305134 9.6276569 10.902344 9.1855469 C 10.499524 8.7336369 10.165641 8.3457044 9.9003906 8.0214844 C 9.6449806 7.6874844 9.3072056 7.2223469 8.8847656 6.6230469 C 8.3444056 5.8763469 8.0742188 5.3745906 8.0742188 5.1191406 C 8.0742187 5.0405606 8.1282681 5.0019531 8.2363281 5.0019531 L 13.585938 5.0019531 C 13.821708 5.0019531 13.939423 4.9324719 13.939453 4.7949219 C 13.939413 4.7261519 13.781167 4.5640437 13.466797 4.3085938 C 13.152407 4.0433438 12.957506 3.9101663 12.878906 3.9101562 C 12.810136 3.9101663 12.680791 4.0375287 12.494141 4.2929688 C 12.317281 4.5484088 12.145516 4.6777444 11.978516 4.6777344 L 8.015625 4.6777344 L 8.015625 2.3183594 C 8.015615 2.2102994 8.0735163 2.1079656 8.1914062 2.0097656 C 8.3092662 1.9017056 8.3691206 1.8129406 8.3691406 1.7441406 C 8.3691206 1.6360806 8.2263063 1.5434438 7.9414062 1.4648438 C 7.6663063 1.3764138 7.4539906 1.3320413 7.3066406 1.3320312 z "
         id="path58" />
    </g>
    <g
       id="Bevel2">
      <path
         fill="#000"
         opacity=".05"
         sodipodi:type="inkscape:offset"
         inkscape:radius="0.75"
         transform="translate(16,17) scale(4)"
         inkscape:original="M 7.3066406 1.3320312 C 7.1691106 1.3320412 7.1015625 1.3899225 7.1015625 1.5078125 L 7.1015625 4.6757812 L 1.3828125 4.6757812 C 1.2256225 4.6757912 1.1464744 4.7201937 1.1464844 4.8085938 C 1.1464744 4.9362738 1.2256025 5.00001 1.3828125 5 L 6.5703125 5 C 6.6684925 5.00001 6.7167769 5.0502375 6.7167969 5.1484375 C 6.7167969 5.7281375 6.2015219 6.7162281 5.1699219 8.1113281 C 4.1481219 9.5064281 3.2391294 10.645087 2.4433594 11.529297 L 1.6777344 12.369141 C 1.6482544 12.398611 1.5459706 12.497053 1.3691406 12.664062 C 1.2021006 12.840903 1.0786 12.977972 1 13.076172 C 2.9551 12.034772 4.6592813 10.502316 6.1132812 8.4785156 C 6.6536212 7.7416656 6.9778675 7.274615 7.0859375 7.078125 L 7.1015625 14.210938 C 7.1015525 14.515498 7.1999744 14.667969 7.3964844 14.667969 C 7.5536644 14.667969 7.6810969 14.623556 7.7792969 14.535156 C 7.8775769 14.446736 7.9412031 14.309717 7.9707031 14.123047 C 8.0002031 13.946207 8.0192969 13.793726 8.0292969 13.666016 C 8.0392969 13.538296 8.0392969 13.360726 8.0292969 13.134766 C 8.0194969 12.908806 8.015615 12.781453 8.015625 12.751953 L 8.015625 6.3417969 C 8.644425 7.4225969 9.1982775 8.283285 9.6796875 8.921875 C 10.200388 9.609575 10.893242 10.408586 11.757812 11.322266 C 12.632152 12.235926 13.251724 12.693359 13.615234 12.693359 C 13.664334 12.693359 13.702922 12.683763 13.732422 12.664062 C 13.761882 12.644403 13.796637 12.609747 13.835938 12.560547 C 13.875237 12.511447 13.900156 12.482656 13.910156 12.472656 C 14.028016 12.364576 14.21328 12.246861 14.46875 12.119141 C 14.72415 11.981591 14.9018 11.873522 15 11.794922 C 14.8231 11.735972 14.346433 11.523656 13.570312 11.160156 C 13.059463 10.914546 12.58853 10.634692 12.15625 10.320312 C 11.72398 10.005962 11.305134 9.6276569 10.902344 9.1855469 C 10.499524 8.7336369 10.165641 8.3457044 9.9003906 8.0214844 C 9.6449806 7.6874844 9.3072056 7.2223469 8.8847656 6.6230469 C 8.3444056 5.8763469 8.0742188 5.3745906 8.0742188 5.1191406 C 8.0742187 5.0405606 8.1282681 5.0019531 8.2363281 5.0019531 L 13.585938 5.0019531 C 13.821708 5.0019531 13.939423 4.9324719 13.939453 4.7949219 C 13.939413 4.7261519 13.781167 4.5640437 13.466797 4.3085938 C 13.152407 4.0433438 12.957506 3.9101663 12.878906 3.9101562 C 12.810136 3.9101663 12.680791 4.0375287 12.494141 4.2929688 C 12.317281 4.5484088 12.145516 4.6777444 11.978516 4.6777344 L 8.015625 4.6777344 L 8.015625 2.3183594 C 8.015615 2.2102994 8.0735163 2.1079656 8.1914062 2.0097656 C 8.3092662 1.9017056 8.3691206 1.8129406 8.3691406 1.7441406 C 8.3691206 1.6360806 8.2263063 1.5434438 7.9414062 1.4648438 C 7.6663063 1.3764138 7.4539906 1.3320413 7.3066406 1.3320312 z "
         id="path61" />
    </g>
    <path
       d="M 7.3066406 1.3320312 C 7.1691106 1.3320412 7.1015625 1.3899225 7.1015625 1.5078125 L 7.1015625 4.6757812 L 1.3828125 4.6757812 C 1.2256225 4.6757912 1.1464744 4.7201937 1.1464844 4.8085938 C 1.1464744 4.9362738 1.2256025 5.00001 1.3828125 5 L 6.5703125 5 C 6.6684925 5.00001 6.7167769 5.0502375 6.7167969 5.1484375 C 6.7167969 5.7281375 6.2015219 6.7162281 5.1699219 8.1113281 C 4.1481219 9.5064281 3.2391294 10.645087 2.4433594 11.529297 L 1.6777344 12.369141 C 1.6482544 12.398611 1.5459706 12.497053 1.3691406 12.664062 C 1.2021006 12.840903 1.0786 12.977972 1 13.076172 C 2.9551 12.034772 4.6592813 10.502316 6.1132812 8.4785156 C 6.6536212 7.7416656 6.9778675 7.274615 7.0859375 7.078125 L 7.1015625 14.210938 C 7.1015525 14.515498 7.1999744 14.667969 7.3964844 14.667969 C 7.5536644 14.667969 7.6810969 14.623556 7.7792969 14.535156 C 7.8775769 14.446736 7.9412031 14.309717 7.9707031 14.123047 C 8.0002031 13.946207 8.0192969 13.793726 8.0292969 13.666016 C 8.0392969 13.538296 8.0392969 13.360726 8.0292969 13.134766 C 8.0194969 12.908806 8.015615 12.781453 8.015625 12.751953 L 8.015625 6.3417969 C 8.644425 7.4225969 9.1982775 8.283285 9.6796875 8.921875 C 10.200388 9.609575 10.893242 10.408586 11.757812 11.322266 C 12.632152 12.235926 13.251724 12.693359 13.615234 12.693359 C 13.664334 12.693359 13.702922 12.683763 13.732422 12.664062 C 13.761882 12.644403 13.796637 12.609747 13.835938 12.560547 C 13.875237 12.511447 13.900156 12.482656 13.910156 12.472656 C 14.028016 12.364576 14.21328 12.246861 14.46875 12.119141 C 14.72415 11.981591 14.9018 11.873522 15 11.794922 C 14.8231 11.735972 14.346433 11.523656 13.570312 11.160156 C 13.059463 10.914546 12.58853 10.634692 12.15625 10.320312 C 11.72398 10.005962 11.305134 9.6276569 10.902344 9.1855469 C 10.499524 8.7336369 10.165641 8.3457044 9.9003906 8.0214844 C 9.6449806 7.6874844 9.3072056 7.2223469 8.8847656 6.6230469 C 8.3444056 5.8763469 8.0742188 5.3745906 8.0742188 5.1191406 C 8.0742187 5.0405606 8.1282681 5.0019531 8.2363281 5.0019531 L 13.585938 5.0019531 C 13.821708 5.0019531 13.939423 4.9324719 13.939453 4.7949219 C 13.939413 4.7261519 13.781167 4.5640437 13.466797 4.3085938 C 13.152407 4.0433438 12.957506 3.9101663 12.878906 3.9101562 C 12.810136 3.9101663 12.680791 4.0375287 12.494141 4.2929688 C 12.317281 4.5484088 12.145516 4.6777444 11.978516 4.6777344 L 8.015625 4.6777344 L 8.015625 2.3183594 C 8.015615 2.2102994 8.0735163 2.1079656 8.1914062 2.0097656 C 8.3092662 1.9017056 8.3691206 1.8129406 8.3691406 1.7441406 C 8.3691206 1.6360806 8.2263063 1.5434438 7.9414062 1.4648438 C 7.6663063 1.3764138 7.4539906 1.3320413 7.3066406 1.3320312 z "
       fill="url(#a)"
       id="base"
       transform="translate(16,16) scale(4)" />
    <path
       style="opacity:0.3;fill:#000000;stroke-width:4"
       d="M 49.224609 21.53125 C 49.108244 21.688489 48.96855 21.853011 48.765625 22.039062 C 48.294064 22.431862 48.06246 22.841197 48.0625 23.273438 L 48.0625 24.273438 C 48.06246 23.841197 48.294064 23.431862 48.765625 23.039062 C 49.237065 22.606822 49.476482 22.251762 49.476562 21.976562 C 49.476533 21.819492 49.375351 21.672294 49.224609 21.53125 z M 71.484375 33.722656 C 71.254118 33.905537 70.886285 34.007812 70.34375 34.007812 L 48.945312 34.007812 C 48.513071 34.007812 48.296874 34.162242 48.296875 34.476562 C 48.296875 34.66837 48.347664 34.906764 48.423828 35.167969 C 48.529604 35.065524 48.697626 35.007812 48.945312 35.007812 L 70.34375 35.007812 C 71.28683 35.007812 71.757692 34.729888 71.757812 34.179688 C 71.757755 34.081046 71.646795 33.917315 71.484375 33.722656 z M 20.855469 33.824219 C 20.679532 33.912558 20.585916 34.047635 20.585938 34.234375 C 20.585898 34.745095 20.90241 35.00004 21.53125 35 L 42.28125 35 C 42.546629 35.000027 42.711754 35.100546 42.796875 35.28125 C 42.830953 35.043426 42.867188 34.804572 42.867188 34.59375 C 42.867108 34.200948 42.67397 34.00004 42.28125 34 L 21.53125 34 C 21.2343 34.000019 21.012682 33.938001 20.855469 33.824219 z M 48.0625 39.367188 L 48.0625 40.367188 C 50.5777 44.690387 52.79311 48.13314 54.71875 50.6875 C 56.801552 53.4383 59.57297 56.634343 63.03125 60.289062 C 66.52861 63.943703 69.006897 65.773438 70.460938 65.773438 C 70.657337 65.773438 70.811695 65.73505 70.929688 65.65625 C 71.047528 65.57761 71.186566 65.439008 71.34375 65.242188 C 71.50095 65.045788 71.600625 64.930625 71.640625 64.890625 C 72.112065 64.458305 72.85312 63.987442 73.875 63.476562 C 74.8966 62.926362 75.6072 62.494087 76 62.179688 C 75.833017 62.124042 75.374736 61.920732 75.074219 61.796875 C 74.735838 62.000607 74.346597 62.222576 73.875 62.476562 C 72.85312 62.987442 72.112065 63.458305 71.640625 63.890625 C 71.600625 63.930625 71.50095 64.045788 71.34375 64.242188 C 71.186566 64.439008 71.047528 64.57761 70.929688 64.65625 C 70.811695 64.73505 70.657337 64.773438 70.460938 64.773438 C 69.006897 64.773438 66.52861 62.943703 63.03125 59.289062 C 59.57297 55.634343 56.801552 52.4383 54.71875 49.6875 C 52.79311 47.13314 50.5777 43.690387 48.0625 39.367188 z M 44.34375 42.3125 C 43.91147 43.09846 42.614485 44.966662 40.453125 47.914062 C 35.124866 55.330385 28.953722 61.090893 21.943359 65.208984 C 21.760664 65.383196 21.744375 65.403312 21.476562 65.65625 C 20.808402 66.363614 20.3144 66.911888 20 67.304688 C 27.8204 63.139088 34.637125 57.009265 40.453125 48.914062 C 42.614485 45.966662 43.91147 44.09846 44.34375 43.3125 L 44.40625 71.84375 C 44.40621 73.06199 44.799897 73.671875 45.585938 73.671875 C 46.214658 73.671875 46.724387 73.494237 47.117188 73.140625 C 47.510308 72.786945 47.764813 72.238867 47.882812 71.492188 C 48.000813 70.784828 48.077188 70.174903 48.117188 69.664062 C 48.14659 69.288537 48.146635 68.768368 48.132812 68.179688 C 48.127829 68.342531 48.127763 68.528989 48.117188 68.664062 C 48.077188 69.174903 48.000813 69.784828 47.882812 70.492188 C 47.764813 71.238867 47.510308 71.786945 47.117188 72.140625 C 46.724387 72.494237 46.214658 72.671875 45.585938 72.671875 C 44.799897 72.671875 44.40621 72.06199 44.40625 70.84375 L 44.34375 42.3125 z "
       transform="translate(0,2)"
       id="path65" />
    <path
       style="fill:#ffffff;stroke-width:4"
       d="M 45.226562 19.328125 C 44.676443 19.328165 44.40625 19.559689 44.40625 20.03125 L 44.40625 21.03125 C 44.40625 20.559689 44.676443 20.328165 45.226562 20.328125 C 45.815963 20.328165 46.665225 20.505663 47.765625 20.859375 C 48.491108 21.059526 48.960528 21.284158 49.224609 21.53125 C 49.378587 21.323188 49.476517 21.133306 49.476562 20.976562 C 49.476483 20.544322 48.905225 20.173775 47.765625 19.859375 C 46.665225 19.505663 45.815963 19.328165 45.226562 19.328125 z M 67.515625 29.640625 C 67.240545 29.640665 66.723163 30.150115 65.976562 31.171875 C 65.269122 32.193635 64.582063 32.710977 63.914062 32.710938 L 48.0625 32.710938 L 48.0625 33.710938 L 63.914062 33.710938 C 64.582063 33.710977 65.269122 33.193635 65.976562 32.171875 C 66.723163 31.150115 67.240545 30.640665 67.515625 30.640625 C 67.830025 30.640665 68.609628 31.173375 69.867188 32.234375 C 70.673747 32.889767 71.193856 33.374471 71.484375 33.722656 C 71.65437 33.587638 71.757762 33.413369 71.757812 33.179688 C 71.757653 32.904607 71.124668 32.256175 69.867188 31.234375 C 68.609628 30.173375 67.830025 29.640665 67.515625 29.640625 z M 21.53125 32.703125 C 20.90249 32.703165 20.585898 32.880773 20.585938 33.234375 C 20.585916 33.503924 20.679758 33.697048 20.855469 33.824219 C 21.012678 33.745283 21.234543 33.703144 21.53125 33.703125 L 44.40625 33.703125 L 44.40625 32.703125 L 21.53125 32.703125 z M 48.423828 35.167969 C 48.345012 35.244302 48.296875 35.342357 48.296875 35.476562 C 48.296875 36.498362 49.377623 38.505387 51.539062 41.492188 C 53.228822 43.889387 54.579923 45.749938 55.601562 47.085938 C 56.662563 48.382817 57.998095 49.934548 59.609375 51.742188 C 61.220535 53.510627 62.89592 55.02385 64.625 56.28125 C 66.35412 57.53877 68.237854 58.658185 70.28125 59.640625 C 72.65312 60.751502 74.10128 61.395881 75.074219 61.796875 C 75.468857 61.559271 75.788527 61.348952 76 61.179688 C 75.2924 60.943888 73.385734 60.094625 70.28125 58.640625 C 68.237854 57.658185 66.35412 56.53877 64.625 55.28125 C 62.89592 54.02385 61.220535 52.510627 59.609375 50.742188 C 57.998095 48.934548 56.662563 47.382817 55.601562 46.085938 C 54.579923 44.749938 53.228822 42.889387 51.539062 40.492188 C 49.783359 38.066057 48.753408 36.298256 48.423828 35.167969 z M 42.796875 35.28125 C 42.456134 37.659222 40.430921 41.372274 36.679688 46.445312 C 32.592487 52.025712 28.956518 56.580348 25.773438 60.117188 L 22.710938 63.476562 C 22.593017 63.594442 22.183882 63.988214 21.476562 64.65625 C 20.808402 65.363614 20.3144 65.911888 20 66.304688 C 20.655834 65.955352 21.301641 65.585948 21.943359 65.208984 C 22.243181 64.923085 22.637666 64.54981 22.710938 64.476562 L 25.773438 61.117188 C 28.956518 57.580348 32.592487 53.025712 36.679688 47.445312 C 40.806087 41.864913 42.867188 37.91255 42.867188 35.59375 C 42.867162 35.466382 42.83772 35.36796 42.796875 35.28125 z M 48.0625 65.007812 L 48.0625 66.007812 C 48.06246 66.125812 48.077987 66.635222 48.117188 67.539062 C 48.127785 67.77853 48.12783 67.967503 48.132812 68.179688 C 48.146678 67.726619 48.146612 67.203932 48.117188 66.539062 C 48.077987 65.635222 48.06246 65.125812 48.0625 65.007812 z "
       transform="translate(0,2)"
       id="path70" />
  </g>
</svg>
