<?xml version="1.0" encoding="UTF-8" standalone="no"?>
<!-- Created with Inkscape (http://www.inkscape.org/) -->

<svg
   xmlns:dc="http://purl.org/dc/elements/1.1/"
   xmlns:cc="http://creativecommons.org/ns#"
   xmlns:rdf="http://www.w3.org/1999/02/22-rdf-syntax-ns#"
   xmlns:svg="http://www.w3.org/2000/svg"
   xmlns="http://www.w3.org/2000/svg"
   xmlns:xlink="http://www.w3.org/1999/xlink"
   xmlns:sodipodi="http://sodipodi.sourceforge.net/DTD/sodipodi-0.dtd"
   xmlns:inkscape="http://www.inkscape.org/namespaces/inkscape"
   width="96"
   height="96"
   id="svg2408"
   sodipodi:version="0.32"
   inkscape:version="0.92.2 5c3e80d, 2017-08-06"
   version="1.0"
   sodipodi:docname="bug-buddy.svg"
   inkscape:output_extension="org.inkscape.output.svg.inkscape">
  <defs
     id="defs2410">
    <linearGradient
       id="ButtonShadow"
       gradientTransform="scale(1.0058652,0.994169)"
       x1="45.447727"
       y1="92.539597"
       x2="45.447727"
       y2="7.0165396"
       gradientUnits="userSpaceOnUse">
      <stop
         style="stop-color:#000000;stop-opacity:1;"
         offset="0"
         id="stop3750" />
      <stop
         style="stop-color:#000000;stop-opacity:0.58823532;"
         offset="1"
         id="stop3752" />
    </linearGradient>
    <linearGradient
       inkscape:collect="always"
       id="linearGradient3737">
      <stop
         style="stop-color:#ffffff;stop-opacity:1;"
         offset="0"
         id="stop3739" />
      <stop
         style="stop-color:#ffffff;stop-opacity:0;"
         offset="1"
         id="stop3741" />
    </linearGradient>
    <linearGradient
       id="linearGradient3700">
      <stop
         style="stop-color:#2276c5;stop-opacity:1;"
         offset="0"
         id="stop3702" />
      <stop
         style="stop-color:#68baf4;stop-opacity:1;"
         offset="1"
         id="stop3704" />
    </linearGradient>
    <inkscape:perspective
       sodipodi:type="inkscape:persp3d"
       inkscape:vp_x="0 : 526.18109 : 1"
       inkscape:vp_y="0 : 1000 : 0"
       inkscape:vp_z="744.09448 : 526.18109 : 1"
       inkscape:persp3d-origin="372.04724 : 350.78739 : 1"
       id="perspective2416" />
    <linearGradient
       inkscape:collect="always"
       xlink:href="#linearGradient3700"
       id="linearGradient3706"
       x1="48"
       y1="90"
       x2="48"
       y2="5.9877172"
       gradientUnits="userSpaceOnUse" />
    <linearGradient
       inkscape:collect="always"
       xlink:href="#linearGradient3737"
       id="linearGradient3743"
       x1="36.357143"
       y1="6"
       x2="36.357143"
       y2="63.893143"
       gradientUnits="userSpaceOnUse" />
    <filter
       inkscape:collect="always"
       id="filter3174">
      <feGaussianBlur
         inkscape:collect="always"
         stdDeviation="1.71"
         id="feGaussianBlur3176" />
    </filter>
    <linearGradient
       inkscape:collect="always"
       xlink:href="#linearGradient3737"
       id="linearGradient3613"
       x1="48"
       y1="20.220806"
       x2="48"
       y2="138.66119"
       gradientUnits="userSpaceOnUse" />
    <clipPath
       clipPathUnits="userSpaceOnUse"
       id="clipPath3613">
      <rect
         ry="6"
         rx="6"
         y="6"
         x="6"
         height="84"
         width="84"
         id="rect3615"
         style="fill:#ffffff;fill-opacity:1;fill-rule:nonzero;stroke:none" />
    </clipPath>
    <linearGradient
       inkscape:collect="always"
       xlink:href="#ButtonColor"
       id="linearGradient3617"
       gradientUnits="userSpaceOnUse"
       x1="48"
       y1="90"
       x2="48"
       y2="5.9877172"
       gradientTransform="translate(0,-96)" />
    <inkscape:perspective
       id="perspective2985"
       inkscape:persp3d-origin="0.5 : 0.33333333 : 1"
       inkscape:vp_z="1 : 0.5 : 1"
       inkscape:vp_y="0 : 1000 : 0"
       inkscape:vp_x="0 : 0.5 : 1"
       sodipodi:type="inkscape:persp3d" />
    <linearGradient
       inkscape:collect="always"
       xlink:href="#ButtonShadow-0"
       id="linearGradient3788"
       gradientUnits="userSpaceOnUse"
       gradientTransform="matrix(1.0238095,0,0,1.0119048,-1.1428571,-98.071429)"
       x1="32.251034"
       y1="6.1317081"
       x2="32.251034"
       y2="90.238609" />
    <linearGradient
       id="ButtonShadow-0"
       gradientTransform="matrix(1.0058652,0,0,0.994169,100,0)"
       x1="45.447727"
       y1="92.539597"
       x2="45.447727"
       y2="7.0165396"
       gradientUnits="userSpaceOnUse">
      <stop
         style="stop-color:#000000;stop-opacity:1;"
         offset="0"
         id="stop3750-8" />
      <stop
         style="stop-color:#000000;stop-opacity:0.58823532;"
         offset="1"
         id="stop3752-5" />
    </linearGradient>
    <linearGradient
       inkscape:collect="always"
       xlink:href="#ButtonShadow-0"
       id="linearGradient3780"
       gradientUnits="userSpaceOnUse"
       gradientTransform="matrix(1.0238095,0,0,1.0119048,-1.1428571,-98.071429)"
       x1="32.251034"
       y1="6.1317081"
       x2="32.251034"
       y2="90.238609" />
    <linearGradient
       id="linearGradient2994"
       gradientTransform="matrix(1.0058652,0,0,0.994169,100,0)"
       x1="45.447727"
       y1="92.539597"
       x2="45.447727"
       y2="7.0165396"
       gradientUnits="userSpaceOnUse">
      <stop
         style="stop-color:#000000;stop-opacity:1;"
         offset="0"
         id="stop2996" />
      <stop
         style="stop-color:#000000;stop-opacity:0.58823532;"
         offset="1"
         id="stop2998" />
    </linearGradient>
    <linearGradient
       inkscape:collect="always"
       xlink:href="#ButtonShadow-0"
       id="linearGradient3772"
       gradientUnits="userSpaceOnUse"
       gradientTransform="matrix(1.0238095,0,0,1.0119048,-1.1428571,-98.071429)"
       x1="32.251034"
       y1="6.1317081"
       x2="32.251034"
       y2="90.238609" />
    <linearGradient
       id="linearGradient3001"
       gradientTransform="matrix(1.0058652,0,0,0.994169,100,0)"
       x1="45.447727"
       y1="92.539597"
       x2="45.447727"
       y2="7.0165396"
       gradientUnits="userSpaceOnUse">
      <stop
         style="stop-color:#000000;stop-opacity:1;"
         offset="0"
         id="stop3003" />
      <stop
         style="stop-color:#000000;stop-opacity:0.58823532;"
         offset="1"
         id="stop3005" />
    </linearGradient>
    <linearGradient
       inkscape:collect="always"
       xlink:href="#ButtonShadow-0"
       id="linearGradient3725"
       gradientUnits="userSpaceOnUse"
       gradientTransform="matrix(1.0238095,0,0,1.0119048,-1.1428571,-98.071429)"
       x1="32.251034"
       y1="6.1317081"
       x2="32.251034"
       y2="90.238609" />
    <linearGradient
       id="linearGradient3008"
       gradientTransform="matrix(1.0058652,0,0,0.994169,100,0)"
       x1="45.447727"
       y1="92.539597"
       x2="45.447727"
       y2="7.0165396"
       gradientUnits="userSpaceOnUse">
      <stop
         style="stop-color:#000000;stop-opacity:1;"
         offset="0"
         id="stop3010" />
      <stop
         style="stop-color:#000000;stop-opacity:0.58823532;"
         offset="1"
         id="stop3012" />
    </linearGradient>
    <linearGradient
       inkscape:collect="always"
       xlink:href="#ButtonShadow-0"
       id="linearGradient3721"
       gradientUnits="userSpaceOnUse"
       gradientTransform="translate(0,-97)"
       x1="32.251034"
       y1="6.1317081"
       x2="32.251034"
       y2="90.238609" />
    <linearGradient
       id="linearGradient3015"
       gradientTransform="matrix(1.0058652,0,0,0.994169,100,0)"
       x1="45.447727"
       y1="92.539597"
       x2="45.447727"
       y2="7.0165396"
       gradientUnits="userSpaceOnUse">
      <stop
         style="stop-color:#000000;stop-opacity:1;"
         offset="0"
         id="stop3017" />
      <stop
         style="stop-color:#000000;stop-opacity:0.58823532;"
         offset="1"
         id="stop3019" />
    </linearGradient>
    <linearGradient
       y2="90.238609"
       x2="32.251034"
       y1="6.1317081"
       x1="32.251034"
       gradientTransform="matrix(1.0238095,0,0,1.0119048,-1.1428571,-98.071429)"
       gradientUnits="userSpaceOnUse"
       id="linearGradient3026"
       xlink:href="#ButtonShadow-0"
       inkscape:collect="always" />
    <inkscape:perspective
       id="perspective3119"
       inkscape:persp3d-origin="0.5 : 0.33333333 : 1"
       inkscape:vp_z="1 : 0.5 : 1"
       inkscape:vp_y="0 : 1000 : 0"
       inkscape:vp_x="0 : 0.5 : 1"
       sodipodi:type="inkscape:persp3d" />
    <radialGradient
       inkscape:collect="always"
       xlink:href="#linearGradient4459"
       id="radialGradient3485"
       gradientUnits="userSpaceOnUse"
       cx="46.289753"
       cy="54.148411"
       fx="46.289753"
       fy="54.148411"
       r="13.780919" />
    <linearGradient
       id="linearGradient4459">
      <stop
         style="stop-color:#ffffff;stop-opacity:1;"
         offset="0"
         id="stop4461" />
      <stop
         id="stop3483"
         offset="0.5"
         style="stop-color:#ffffff;stop-opacity:0.34146342;" />
      <stop
         style="stop-color:#ffffff;stop-opacity:0;"
         offset="1"
         id="stop4463" />
    </linearGradient>
    <filter
       color-interpolation-filters="sRGB"
       inkscape:collect="always"
       id="filter4689">
      <feGaussianBlur
         inkscape:collect="always"
         stdDeviation="0.65275495"
         id="feGaussianBlur4691" />
    </filter>
    <filter
       color-interpolation-filters="sRGB"
       inkscape:collect="always"
       id="filter3503"
       x="-0.25041613"
       width="1.5008323"
       y="-0.031692162"
       height="1.0633843">
      <feGaussianBlur
         inkscape:collect="always"
         stdDeviation="1.236517"
         id="feGaussianBlur3505" />
    </filter>
    <filter
       color-interpolation-filters="sRGB"
       inkscape:collect="always"
       id="filter3499"
       x="-0.23371603"
       width="1.4674321"
       y="-0.03558654"
       height="1.0711731">
      <feGaussianBlur
         inkscape:collect="always"
         stdDeviation="1.236517"
         id="feGaussianBlur3501" />
    </filter>
    <filter
       color-interpolation-filters="sRGB"
       inkscape:collect="always"
       id="filter3513"
       x="-0.25100267"
       width="1.5020055"
       y="-0.026537415"
       height="1.0530748">
      <feGaussianBlur
         inkscape:collect="always"
         stdDeviation="0.78924581"
         id="feGaussianBlur3515" />
    </filter>
    <filter
       color-interpolation-filters="sRGB"
       inkscape:collect="always"
       id="filter3525"
       x="-0.30874929"
       width="1.6174986"
       y="-0.027863683"
       height="1.0557274">
      <feGaussianBlur
         inkscape:collect="always"
         stdDeviation="1.0871431"
         id="feGaussianBlur3527" />
    </filter>
    <radialGradient
       inkscape:collect="always"
       xlink:href="#ButtonColor"
       id="radialGradient3470"
       gradientUnits="userSpaceOnUse"
       gradientTransform="matrix(1.3416075,0,0,1.4393117,-21.86288,-22.372297)"
       cx="64"
       cy="50.925797"
       fx="64"
       fy="50.925797"
       r="59" />
    <linearGradient
       id="ButtonColor"
       x1="58.650177"
       y1="122"
       x2="58.650177"
       y2="5.4252338"
       gradientUnits="userSpaceOnUse"
       gradientTransform="matrix(1.0172414,0,0,1.0172414,-1.1034483,-1.1034483)">
      <stop
         style="stop-color:#ff0a0a;stop-opacity:1;"
         offset="0"
         id="stop3189" />
      <stop
         id="stop4551"
         offset="0.5"
         style="stop-color:#c70404;stop-opacity:1;" />
      <stop
         style="stop-color:#7c0000;stop-opacity:1;"
         offset="1"
         id="stop3191" />
    </linearGradient>
    <radialGradient
       r="59"
       fy="50.925797"
       fx="64"
       cy="50.925797"
       cx="64"
       gradientTransform="matrix(1.3416075,0,0,1.4393117,-224.31984,-3.7009499)"
       gradientUnits="userSpaceOnUse"
       id="radialGradient3189"
       xlink:href="#ButtonColor"
       inkscape:collect="always" />
    <radialGradient
       inkscape:collect="always"
       xlink:href="#ButtonColor"
       id="radialGradient3782"
       gradientUnits="userSpaceOnUse"
       gradientTransform="matrix(1.3416075,0,0,1.4393117,-224.31984,-3.7009499)"
       cx="64"
       cy="50.925797"
       fx="64"
       fy="50.925797"
       r="59" />
    <radialGradient
       inkscape:collect="always"
       xlink:href="#linearGradient4459"
       id="radialGradient3784"
       gradientUnits="userSpaceOnUse"
       cx="46.289753"
       cy="54.148411"
       fx="46.289753"
       fy="54.148411"
       r="13.780919" />
    <radialGradient
       inkscape:collect="always"
       xlink:href="#ButtonColor"
       id="radialGradient3808"
       gradientUnits="userSpaceOnUse"
       gradientTransform="matrix(0.95504266,0,0,1.0212542,-13.122725,-13.421837)"
       cx="64"
       cy="50.925797"
       fx="64"
       fy="50.925797"
       r="59" />
    <inkscape:perspective
       id="perspective3199"
       inkscape:persp3d-origin="0.5 : 0.33333333 : 1"
       inkscape:vp_z="1 : 0.5 : 1"
       inkscape:vp_y="0 : 1000 : 0"
       inkscape:vp_x="0 : 0.5 : 1"
       sodipodi:type="inkscape:persp3d" />
    <linearGradient
       gradientTransform="matrix(0.68945914,0,0,0.68945914,5.458219,5.1965253)"
       inkscape:collect="always"
       xlink:href="#linearGradient4593"
       id="linearGradient4599"
       x1="63.189781"
       y1="74.24736"
       x2="57.662792"
       y2="74.24736"
       gradientUnits="userSpaceOnUse" />
    <linearGradient
       inkscape:collect="always"
       id="linearGradient4593">
      <stop
         style="stop-color:#000000;stop-opacity:1;"
         offset="0"
         id="stop4595" />
      <stop
         style="stop-color:#000000;stop-opacity:0;"
         offset="1"
         id="stop4597" />
    </linearGradient>
    <inkscape:perspective
       id="perspective3217"
       inkscape:persp3d-origin="0.5 : 0.33333333 : 1"
       inkscape:vp_z="1 : 0.5 : 1"
       inkscape:vp_y="0 : 1000 : 0"
       inkscape:vp_x="0 : 0.5 : 1"
       sodipodi:type="inkscape:persp3d" />
    <radialGradient
       inkscape:collect="always"
       xlink:href="#linearGradient4459-2"
       id="radialGradient3481"
       gradientUnits="userSpaceOnUse"
       cx="46.289753"
       cy="54.148411"
       fx="46.289753"
       fy="54.148411"
       r="13.780919" />
    <linearGradient
       id="linearGradient4459-2">
      <stop
         style="stop-color:#ffffff;stop-opacity:1;"
         offset="0"
         id="stop4461-7" />
      <stop
         id="stop3483-0"
         offset="0.5"
         style="stop-color:#ffffff;stop-opacity:0.34146342;" />
      <stop
         style="stop-color:#ffffff;stop-opacity:0;"
         offset="1"
         id="stop4463-3" />
    </linearGradient>
    <linearGradient
       gradientTransform="translate(3.3866167e-8,-32)"
       inkscape:collect="always"
       xlink:href="#linearGradient4459-2"
       id="linearGradient4637"
       x1="64"
       y1="25.296875"
       x2="148.75374"
       y2="25.296875"
       gradientUnits="userSpaceOnUse"
       spreadMethod="reflect" />
    <linearGradient
       id="linearGradient3227">
      <stop
         style="stop-color:#ffffff;stop-opacity:1;"
         offset="0"
         id="stop3229" />
      <stop
         id="stop3231"
         offset="0.5"
         style="stop-color:#ffffff;stop-opacity:0.34146342;" />
      <stop
         style="stop-color:#ffffff;stop-opacity:0;"
         offset="1"
         id="stop3233" />
    </linearGradient>
    <radialGradient
       inkscape:collect="always"
       xlink:href="#linearGradient4621"
       id="radialGradient4627"
       cx="-26.369297"
       cy="6.7088585"
       fx="-26.369297"
       fy="6.7088585"
       r="59"
       gradientTransform="matrix(0.8145874,0,1.164943e-7,0.4439113,69.73885,-18.477029)"
       gradientUnits="userSpaceOnUse" />
    <linearGradient
       id="linearGradient4621">
      <stop
         id="stop4629"
         offset="0"
         style="stop-color:#595959;stop-opacity:1;" />
      <stop
         style="stop-color:#000000;stop-opacity:1;"
         offset="1"
         id="stop4625" />
    </linearGradient>
    <radialGradient
       inkscape:collect="always"
       xlink:href="#linearGradient4621"
       id="radialGradient3885"
       gradientUnits="userSpaceOnUse"
       gradientTransform="matrix(0.8145874,0,1.164943e-7,0.4439113,69.73885,-18.477029)"
       cx="-26.369297"
       cy="6.7088585"
       fx="-26.369297"
       fy="6.7088585"
       r="59" />
    <linearGradient
       inkscape:collect="always"
       xlink:href="#linearGradient4459-2"
       id="linearGradient3887"
       gradientUnits="userSpaceOnUse"
       gradientTransform="translate(3.386617e-8,-32)"
       spreadMethod="reflect"
       x1="64"
       y1="25.296875"
       x2="148.75374"
       y2="25.296875" />
    <radialGradient
       inkscape:collect="always"
       xlink:href="#linearGradient4459-2"
       id="radialGradient3889"
       gradientUnits="userSpaceOnUse"
       cx="46.289753"
       cy="54.148411"
       fx="46.289753"
       fy="54.148411"
       r="13.780919" />
    <linearGradient
       inkscape:collect="always"
       xlink:href="#ButtonColor"
       id="linearGradient3897"
       gradientUnits="userSpaceOnUse"
       gradientTransform="translate(90,-96)"
       x1="48"
       y1="90"
       x2="48"
       y2="5.9877172" />
    <linearGradient
       inkscape:collect="always"
       xlink:href="#linearGradient4459-2"
       id="linearGradient3901"
       gradientUnits="userSpaceOnUse"
       gradientTransform="matrix(0.71186441,0,0,0.71186441,2.440678,2.4406779)"
       spreadMethod="reflect"
       x1="64"
       y1="25.296875"
       x2="148.75374"
       y2="25.296875" />
    <radialGradient
       inkscape:collect="always"
       xlink:href="#linearGradient4621"
       id="radialGradient3904"
       gradientUnits="userSpaceOnUse"
       gradientTransform="matrix(0.57987578,0,8.2928146e-8,0.31600466,52.085283,12.0672)"
       cx="-26.369297"
       cy="6.7088585"
       fx="-26.369297"
       fy="6.7088585"
       r="59" />
    <linearGradient
       inkscape:collect="always"
       xlink:href="#ButtonColor"
       id="linearGradient3909"
       gradientUnits="userSpaceOnUse"
       gradientTransform="matrix(1,0,0,-1,0,96)"
       x1="48"
       y1="90"
       x2="48"
       y2="5.9877172" />
    <linearGradient
       id="linearGradient4390"
       x1="48"
       x2="48"
       y1="88"
       y2="-40"
       gradientTransform="matrix(1,0,0,-1,0,92)"
       gradientUnits="userSpaceOnUse"
       xlink:href="#linearGradient3737" />
    <linearGradient
       id="linearGradient4429"
       x1="48"
       x2="112.12"
       y1="82"
       y2="82.455002"
       gradientUnits="userSpaceOnUse"
       spreadMethod="reflect"
       xlink:href="#linearGradient3737" />
    <linearGradient
       id="linearGradient3228"
       x1="90"
       x2="48"
       y1="88"
       y2="88"
       gradientUnits="userSpaceOnUse"
       spreadMethod="reflect">
      <stop
         id="stop3894"
         stop-opacity=".58824"
         offset="0" />
      <stop
         id="stop3896"
         stop-opacity=".47059"
         offset=".1178" />
      <stop
         id="stop3898"
         stop-opacity=".39216"
         offset=".2381" />
      <stop
         id="stop3900"
         stop-opacity=".31373"
         offset="1" />
    </linearGradient>
  </defs>
  <sodipodi:namedview
     id="base"
     pagecolor="#ffffff"
     bordercolor="#666666"
     borderopacity="1.0"
     inkscape:pageopacity="0.0"
     inkscape:pageshadow="2"
     inkscape:zoom="3.9716312"
     inkscape:cx="42.673741"
     inkscape:cy="52.316347"
     inkscape:document-units="px"
     inkscape:current-layer="layer5"
     showgrid="true"
     showborder="true"
     inkscape:showpageshadow="false"
     inkscape:window-width="1366"
     inkscape:window-height="743"
     inkscape:window-x="0"
     inkscape:window-y="25"
     inkscape:window-maximized="1">
    <inkscape:grid
       type="xygrid"
       id="grid3732"
       visible="true"
       enabled="true" />
  </sodipodi:namedview>
  <metadata
     id="metadata2413">
    <rdf:RDF>
      <cc:Work
         rdf:about="">
        <dc:format>image/svg+xml</dc:format>
        <dc:type
           rdf:resource="http://purl.org/dc/dcmitype/StillImage" />
      </cc:Work>
    </rdf:RDF>
  </metadata>
  <g
     inkscape:groupmode="layer"
     id="layer2"
     inkscape:label="Blur Shadow"
     style="display:none"
     sodipodi:insensitive="true">
    <rect
       style="opacity:0.9;fill:url(#ButtonShadow);fill-opacity:1;fill-rule:nonzero;stroke:none;filter:url(#filter3174)"
       id="rect3745"
       width="86"
       height="85"
       x="5"
       y="7"
       rx="6"
       ry="6" />
  </g>
  <g
     inkscape:groupmode="layer"
     id="layer3"
     inkscape:label="Shadow"
     sodipodi:insensitive="true">
    <path
       sodipodi:type="inkscape:offset"
       inkscape:radius="0.99097413"
       inkscape:original="M 12 -94.03125 C 7.028367 -94.03125 2.96875 -89.971633 2.96875 -85 L 2.96875 -14 C 2.96875 -9.0283671 7.0283671 -4.96875 12 -4.96875 L 84 -4.96875 C 88.971633 -4.96875 93.03125 -9.028367 93.03125 -14 L 93.03125 -85 C 93.03125 -89.971633 88.971633 -94.03125 84 -94.03125 L 12 -94.03125 z "
       style="opacity:0.07999998;fill:url(#linearGradient3026);fill-opacity:1;fill-rule:nonzero;stroke:none;display:inline"
       id="path3786"
       d="m 12,-95.03125 c -5.5110903,0 -10.03125,4.52016 -10.03125,10.03125 l 0,71 c 0,5.5110902 4.5201598,10.03125 10.03125,10.03125 l 72,0 c 5.51109,0 10.03125,-4.5201597 10.03125,-10.03125 l 0,-71 c 0,-5.51109 -4.52016,-10.03125 -10.03125,-10.03125 l -72,0 z"
       transform="scale(1,-1)" />
    <path
       sodipodi:type="inkscape:offset"
       inkscape:radius="1.0360184"
       inkscape:original="M 12 -93 C 7.5908667 -93 4 -89.409133 4 -85 L 4 -14 C 4 -9.5908667 7.5908667 -6 12 -6 L 84 -6 C 88.409133 -6 92 -9.5908667 92 -14 L 92 -85 C 92 -89.409133 88.409133 -93 84 -93 L 12 -93 z "
       style="opacity:0.1;fill:url(#linearGradient3780);fill-opacity:1;fill-rule:nonzero;stroke:none;display:inline"
       id="path3778"
       d="m 12,-94.03125 c -4.971633,0 -9.03125,4.059617 -9.03125,9.03125 l 0,71 c 0,4.9716329 4.0596171,9.03125 9.03125,9.03125 l 72,0 c 4.971633,0 9.03125,-4.059617 9.03125,-9.03125 l 0,-71 c 0,-4.971633 -4.059617,-9.03125 -9.03125,-9.03125 l -72,0 z"
       transform="scale(1,-1)" />
    <path
       sodipodi:type="inkscape:offset"
       inkscape:radius="0.98962283"
       inkscape:original="M 12 -92 C 8.122 -92 5 -88.878 5 -85 L 5 -14 C 5 -10.122 8.122 -7 12 -7 L 84 -7 C 87.878 -7 91 -10.122 91 -14 L 91 -85 C 91 -88.878 87.878 -92 84 -92 L 12 -92 z "
       style="opacity:0.2;fill:url(#linearGradient3772);fill-opacity:1;fill-rule:nonzero;stroke:none;display:inline"
       id="path3770"
       d="m 12,-93 c -4.4091333,0 -8,3.590867 -8,8 l 0,71 c 0,4.4091333 3.5908667,8 8,8 l 72,0 c 4.409133,0 8,-3.5908667 8,-8 l 0,-71 c 0,-4.409133 -3.590867,-8 -8,-8 l -72,0 z"
       transform="scale(1,-1)" />
    <rect
       style="opacity:0.3;fill:url(#linearGradient3725);fill-opacity:1;fill-rule:nonzero;stroke:none;display:inline"
       id="rect3723"
       width="86"
       height="85"
       x="5"
       y="-92"
       rx="7"
       ry="7"
       transform="scale(1,-1)" />
    <rect
       transform="scale(1,-1)"
       ry="6"
       rx="6"
       y="-91"
       x="6"
       height="84"
       width="84"
       id="rect3716"
       style="opacity:0.45;fill:url(#linearGradient3721);fill-opacity:1;fill-rule:nonzero;stroke:none;display:inline" />
  </g>
  <g
     inkscape:label="Button"
     inkscape:groupmode="layer"
     id="layer1"
     sodipodi:insensitive="true">
    <rect
       style="fill:url(#linearGradient3617);fill-opacity:1;fill-rule:nonzero;stroke:none"
       id="rect2419"
       width="84"
       height="84"
       x="6"
       y="-90"
       rx="6"
       ry="6"
       transform="scale(1,-1)" />
    <g
       transform="matrix(0.71186443,0,0,0.70954345,2.4406816,2.45228)"
       style="display:inline"
       id="g3529">
      <path
         style="opacity:0.3;fill:#680000;fill-opacity:0.75;fill-rule:evenodd;stroke:none;filter:url(#filter3503)"
         d="m 29.681979,23.053004 c 0,0 -10.386183,51.339896 3.533569,93.639576 -10.24735,-65.724382 4.59364,-92.226149 4.59364,-92.226149 z"
         id="path3489"
         sodipodi:nodetypes="cccc"
         inkscape:connector-curvature="0" />
      <path
         sodipodi:nodetypes="cccc"
         id="path3487"
         d="m 15.547703,19.872792 c 0,0 -10.7395394,41.445903 0.706714,83.392228 -6.3604237,-60.42403 7.420495,-81.978801 7.420495,-81.978801 z"
         style="opacity:0.3;fill:#680000;fill-opacity:0.75;fill-rule:evenodd;stroke:none;filter:url(#filter3499)"
         inkscape:connector-curvature="0" />
      <path
         style="opacity:0.3;fill:#ff5555;fill-opacity:0.75;fill-rule:evenodd;stroke:none;filter:url(#filter3513)"
         d="m 21.55477,103.61837 c 0,0 -4.240283,-38.16254 3.533569,-71.378088 -6.49746,16.730616 -11.307421,38.16254 -3.533569,71.378088 z"
         id="path3517"
         sodipodi:nodetypes="ccc"
         transform="matrix(0.9996438,-0.02985683,0.02668893,1.1182989,22.576257,6.0343587)"
         inkscape:connector-curvature="0" />
      <path
         transform="rotate(-1.5293446,233.29135,57.518588)"
         sodipodi:nodetypes="ccc"
         id="path3507"
         d="m 21.55477,103.61837 c 0,0 -4.240283,-38.16254 3.533569,-71.378088 -6.49746,16.730616 -11.307421,38.16254 -3.533569,71.378088 z"
         style="opacity:0.3;fill:#ff5555;fill-opacity:0.75;fill-rule:evenodd;stroke:none;filter:url(#filter3513)"
         inkscape:connector-curvature="0" />
      <path
         transform="matrix(1,0,0,0.6700005,0,7.6074785)"
         sodipodi:nodetypes="cccc"
         id="path3519"
         d="m 52.29682,23.053004 c 0,0 -1.905618,49.757701 3.533569,93.639576 -2.120142,-64.669585 4.59364,-92.226149 4.59364,-92.226149 z"
         style="opacity:0.3;fill:#680000;fill-opacity:0.75;fill-rule:evenodd;stroke:none;filter:url(#filter3525)"
         inkscape:connector-curvature="0" />
    </g>
    <g
       style="display:inline"
       id="g3536"
       transform="matrix(-0.71186443,0,0,0.70954345,94.556869,2.45228)">
      <path
         sodipodi:nodetypes="cccc"
         id="path3538"
         d="m 29.681979,23.053004 c 0,0 -10.386183,51.339896 3.533569,93.639576 -10.24735,-65.724382 4.59364,-92.226149 4.59364,-92.226149 z"
         style="opacity:0.3;fill:#680000;fill-opacity:0.75;fill-rule:evenodd;stroke:none;filter:url(#filter3503)"
         inkscape:connector-curvature="0" />
      <path
         style="opacity:0.3;fill:#680000;fill-opacity:0.75;fill-rule:evenodd;stroke:none;filter:url(#filter3499)"
         d="m 15.547703,19.872792 c 0,0 -10.7395394,41.445903 0.706714,83.392228 -6.3604237,-60.42403 7.420495,-81.978801 7.420495,-81.978801 z"
         id="path3540"
         sodipodi:nodetypes="cccc"
         inkscape:connector-curvature="0" />
      <path
         transform="matrix(0.9996438,-0.02985683,0.02668893,1.1182989,22.576257,6.0343587)"
         sodipodi:nodetypes="ccc"
         id="path3542"
         d="m 21.55477,103.61837 c 0,0 -4.240283,-38.16254 3.533569,-71.378088 -6.49746,16.730616 -11.307421,38.16254 -3.533569,71.378088 z"
         style="opacity:0.3;fill:#ff5555;fill-opacity:0.75;fill-rule:evenodd;stroke:none;filter:url(#filter3513)"
         inkscape:connector-curvature="0" />
      <path
         style="opacity:0.3;fill:#ff5555;fill-opacity:0.75;fill-rule:evenodd;stroke:none;filter:url(#filter3513)"
         d="m 21.55477,103.61837 c 0,0 -4.240283,-38.16254 3.533569,-71.378088 -6.49746,16.730616 -11.307421,38.16254 -3.533569,71.378088 z"
         id="path3544"
         sodipodi:nodetypes="ccc"
         transform="rotate(-1.5293446,233.29135,57.518588)"
         inkscape:connector-curvature="0" />
      <path
         style="opacity:0.3;fill:#680000;fill-opacity:0.75;fill-rule:evenodd;stroke:none;filter:url(#filter3525)"
         d="m 52.29682,23.053004 c 0,0 -1.905618,49.757701 3.533569,93.639576 -2.120142,-64.669585 4.59364,-92.226149 4.59364,-92.226149 z"
         id="path3546"
         sodipodi:nodetypes="cccc"
         transform="matrix(1,0,0,0.6700005,0,7.6074785)"
         inkscape:connector-curvature="0" />
    </g>
    <ellipse
       style="display:inline;opacity:0.8;fill:#ffd903;fill-opacity:1;fill-rule:nonzero;stroke:none;filter:url(#filter4689)"
       id="path4669"
       transform="matrix(0.66936904,0,0,1.0212275,5.1588718,-9.4603187)"
       cx="63.964428"
       cy="33.898411"
       rx="25.485828"
       ry="9.8984127" />
    <path
       style="display:inline;fill:#000000;fill-opacity:0.75;fill-rule:evenodd;stroke:none"
       d="m 39.729215,22.845399 c 2.007508,0.02339 2.666538,2.457891 1.921052,4.017989 -0.456953,2.165993 -2.535092,3.351614 -3.346354,5.306678 -1.046376,2.63406 -0.146779,5.5251 1.165927,7.886813 1.060166,2.218347 2.369555,4.854602 4.96124,5.517862 1.525312,0.484265 2.786195,-0.914146 4.28284,-0.586599 1.892142,0.32011 3.789909,1.992637 5.730544,0.929911 1.297957,-0.948997 2.068009,-2.443485 2.913625,-3.776748 1.895404,-3.282293 1.258007,-7.53453 -0.890172,-10.53732 -0.847304,-1.380563 -2.157013,-2.462245 -2.863916,-3.915893 -0.519732,-2.034131 0.668263,-4.172671 -0.188096,-6.159746 -1.208475,-1.493525 -3.385598,-0.875019 -4.980417,-0.489697 -2.267694,0.706473 -4.668514,2.018299 -7.080445,1.161666 -0.604751,-0.07335 -1.240531,0.171811 -1.625828,0.645084 z"
       id="path4655"
       inkscape:connector-curvature="0" />
    <path
       style="display:inline;fill:#000000;fill-opacity:0.70588235;fill-rule:evenodd;stroke:none"
       d="m 18.790919,41.374374 c 0,0.334296 0,0.334296 0,0 0,-4.489858 -8.480576,5.766554 -7.546261,9.025994 1.143233,3.988285 0.377501,5.014442 4.779301,5.014442 2.636354,0 4.080179,-2.163117 5.282383,-3.760832 1.760013,-2.339027 2.263878,-3.529338 2.263878,-6.017329 0,-0.792301 -1.656224,-2.892716 -2.263878,-3.449936 -0.893418,-0.819269 -0.615236,-0.433542 -2.515423,-0.812339 z"
       id="path2678"
       inkscape:connector-curvature="0" />
    <path
       style="display:inline;fill:#000000;fill-opacity:0.70588235;fill-rule:evenodd;stroke:none"
       d="m 76.642366,41.810102 c -2.281309,-1.566467 -6.596069,-2.033816 -6.258282,1.149044 0.433048,4.080413 1.78532,5.307006 3.289675,7.296685 0.537422,0.710805 3.317,3.240485 4.312835,3.642202 2.37967,0.959958 3.687102,-0.646814 4.868697,-2.1032 1.735426,-2.139009 -1.954858,-7.593262 -3.258773,-9.317836 -1.091872,-1.444125 -0.933276,-1.360487 -2.031875,-1.803659 -0.453194,-0.18282 -0.614844,0.757843 -0.922277,1.136764 z"
       id="path2684"
       inkscape:connector-curvature="0" />
    <path
       style="display:inline;fill:#000000;fill-opacity:0.70588235;fill-rule:evenodd;stroke:none"
       d="m 36.555617,57.414969 c -0.584526,-0.463047 -2.708943,-0.869748 -3.729066,-0.946637 -0.615749,-0.04641 -2.955341,2.013393 -3.603294,2.656932 -1.162624,1.154696 -2.371456,2.731365 -3.452215,4.199134 -0.728231,0.988997 -1.211316,2.240263 -1.806015,3.99043 -0.692615,2.038326 -0.330988,2.960946 -0.907363,4.657173 -0.576724,1.697271 0.300634,2.416719 1.179858,3.150558 0.461352,0.385055 2.519552,0.447601 3.33433,0.783768 0.767774,0.316776 1.773724,1.027795 2.674973,1.399646 0.787714,0.325006 1.371222,0.290097 2.756923,-0.934327 1.256612,-1.110372 1.972242,0.326645 4.247944,-1.799005 1.031556,-0.963539 2.300269,-4.120432 2.729979,-5.385051 0.779086,-2.292805 0.366155,-4.207359 0.227049,-4.641891 -0.458334,-1.431773 -0.624511,-3.556217 -1.154537,-5.211922 -0.581949,-1.817919 -1.006612,-0.811859 -2.498566,-1.918808 z"
       id="path3456"
       inkscape:connector-curvature="0" />
    <path
       style="display:inline;fill:#000000;fill-opacity:0.70588235;fill-rule:evenodd;stroke:none"
       d="m 59.184328,58.332655 c 0.536717,-1.682553 3.389784,-1.016568 5.147584,-0.230876 1.946864,0.870201 2.139423,1.246137 3.560041,3.119929 1.973196,2.602634 2.602071,2.529352 3.171442,5.233621 0.57199,2.716764 -1.056642,3.901553 -1.60818,5.630575 -0.289786,0.908464 -1.65616,2.047821 -2.172269,2.685977 -0.611249,0.755813 -1.885081,1.094762 -2.815118,1.755659 -1.393617,0.990324 -3.296195,-0.867885 -4.224011,-1.486167 -1.597986,-1.064869 -1.938385,-3.368331 -2.160131,-4.42152 -0.334356,-1.588065 -1.609198,-2.604976 -2.477851,-4.603724 -0.570139,-1.311875 -1.519724,-4.298996 -1.640449,-4.872399 -0.241222,-1.145707 1.152729,-1.808714 1.753564,-2.551644 0.428386,-0.529692 1.277491,-0.978169 2.504795,-1.371951 0.767618,-0.246286 0.34645,-0.300584 0.960583,1.11252 z"
       id="path3458"
       inkscape:connector-curvature="0" />
    <path
       style="display:inline;fill:#000000;fill-opacity:0.70588235;fill-rule:evenodd;stroke:none"
       d="m 20.30403,81.610723 c -1.095396,-0.04144 -2.412637,0.13304 -3.514831,0.13304 -1.647973,0 -5.294492,3.175129 -5.294492,4.767245 0,0.708976 0.101469,1.875103 0.222458,3.148599 0.263561,0.03207 0.528317,0.06648 0.800847,0.06648 h 13.681145 c 0.05766,-0.672654 -0.04065,-1.344954 -0.355932,-1.973418 -0.735484,-1.466172 -1.715722,-2.983694 -2.269068,-3.259465 -0.0823,-0.04101 -1.084013,-2.454183 -2.269068,-2.749481 -0.295815,-0.07371 -0.63593,-0.119217 -1.001059,-0.133039 z"
       id="path3460"
       inkscape:connector-curvature="0" />
    <path
       style="display:inline;fill:#000000;fill-opacity:0.70588235;fill-rule:evenodd;stroke:none"
       d="m 77.075215,80.457715 c -0.420356,0.005 -0.831693,0.09042 -1.179025,0.288252 -1.788187,1.018486 -5.539193,5.139252 -5.539193,6.008946 0,0.648743 0.114988,1.754616 0.311441,2.971213 h 12.813557 c 0.396815,0 0.779897,-0.04378 1.15678,-0.110866 -0.04983,-0.783889 -0.246426,-1.559009 -0.444916,-2.350362 -0.344684,-1.37423 -1.210312,-2.867429 -2.024364,-4.52334 -0.746646,-1.518806 -1.44228,-1.540121 -3.270127,-1.995591 -0.422107,-0.105183 -1.123557,-0.297008 -1.824153,-0.288252 z"
       id="path3462"
       inkscape:connector-curvature="0" />
    <circle
       style="display:inline;opacity:0.7;fill:url(#radialGradient3784);fill-opacity:1;fill-rule:nonzero;stroke:none"
       id="path4457"
       transform="matrix(1.2594524,0,0,1.2553461,-29.447136,-27.352788)"
       cx="46.289753"
       cy="54.148411"
       r="13.780919" />
  </g>
  <g
     inkscape:groupmode="layer"
     id="layer4"
     inkscape:label="Line">
    <path
       style="font-size:medium;font-style:normal;font-variant:normal;font-weight:normal;font-stretch:normal;text-indent:0;text-align:start;text-decoration:none;line-height:normal;letter-spacing:normal;word-spacing:normal;text-transform:none;direction:ltr;block-progression:tb;writing-mode:lr-tb;text-anchor:start;opacity:0.2;color:#000000;fill:#ffcc00;fill-opacity:1;stroke:none;stroke-width:0.99999994000000003px;marker:none;visibility:visible;display:inline;overflow:visible;enable-background:accumulate;font-family:Abandoned Bitplane;-inkscape-font-specification:Abandoned Bitplane"
       d="M 48.59375,14.90625 47.625,15.125 C 52.663904,40.187826 45.740493,64.628497 49.59375,90 l 1,-0.125 c -3.812053,-25.100195 3.098174,-49.611118 -2,-74.96875 z"
       id="path4553" />
    <path
       style="opacity:0.4;fill:url(#linearGradient4599);fill-opacity:1;fill-rule:nonzero;stroke:none;display:inline"
       d="m 44.21875,16.227872 0,73.772128 5.494128,0 C 46.003347,65.05873 52.588823,40.938192 47.98923,16.227872 l -3.77048,0 z"
       id="path4591" />
  </g>
  <g
     inkscape:groupmode="layer"
     id="layer6"
     inkscape:label="Head"
     sodipodi:insensitive="true">
    <path
       id="path3926"
       d="M 12,9 C 8.676,9 6,11.676 6,15 L 6,15.53125 6,19 6,20.90625 c 9.269631,4.414458 24.619551,7.3125 42,7.3125 17.38045,0 32.730373,-2.898042 42,-7.3125 L 90,19 90,15.53125 90,15 C 90,11.676 87.324,9 84,9 L 83.46875,9 12.53125,9 12,9 z"
       style="opacity:0.1;fill:#000000;fill-opacity:1;fill-rule:nonzero;stroke:none;display:inline" />
    <path
       style="opacity:0.15;fill:#000000;fill-opacity:1;fill-rule:nonzero;stroke:none;display:inline"
       d="M 12,8 C 8.676,8 6,10.676 6,14 L 6,14.53125 6,18 6,19.90625 c 9.269631,4.414458 24.619551,7.3125 42,7.3125 17.38045,0 32.730373,-2.898042 42,-7.3125 L 90,18 90,14.53125 90,14 C 90,10.676 87.324,8 84,8 L 83.46875,8 12.53125,8 12,8 z"
       id="path3924" />
    <path
       id="path3920"
       d="M 12,7 C 8.676,7 6,9.676 6,13 L 6,13.53125 6,17 6,18.90625 c 9.269631,4.414458 24.619551,7.3125 42,7.3125 17.38045,0 32.730373,-2.898042 42,-7.3125 L 90,17 90,13.53125 90,13 C 90,9.676 87.324,7 84,7 L 83.46875,7 12.53125,7 12,7 z"
       style="opacity:0.3;fill:#000000;fill-opacity:1;fill-rule:nonzero;stroke:none;display:inline" />
    <path
       style="fill:url(#radialGradient3904);fill-opacity:1;fill-rule:nonzero;stroke:none;display:inline"
       d="M 12,6 C 8.676,6 6,8.676 6,12 L 6,12.53125 6,16 6,17.90625 c 9.269631,4.414458 24.619551,7.3125 42,7.3125 17.38045,0 32.730373,-2.898042 42,-7.3125 L 90,16 90,12.53125 90,12 C 90,8.676 87.324,6 84,6 L 83.46875,6 12.53125,6 12,6 z"
       id="path4612" />
    <path
       style="opacity:0.2;fill:url(#linearGradient3901);fill-opacity:1;fill-rule:nonzero;stroke:none;display:inline"
       d="m 6.0000001,15.676907 0,2.224576 C 15.269631,22.315941 30.619551,25.220339 48,25.220339 c 17.38045,0 32.730373,-2.904398 42,-7.318856 l 0,-2.224576 c -9.269677,4.046686 -24.619818,6.695974 -42,6.695974 -17.380181,0 -32.730324,-2.649288 -41.9999999,-6.695974 z"
       id="path4617" />
    <path
       transform="matrix(0.4745763,0,0,0.4745763,14.179314,-11.021861)"
       d="m 60.070672,54.148411 a 13.780919,13.780919 0 1 1 -27.561838,0 13.780919,13.780919 0 1 1 27.561838,0 z"
       sodipodi:ry="13.780919"
       sodipodi:rx="13.780919"
       sodipodi:cy="54.148411"
       sodipodi:cx="46.289753"
       id="path3477"
       style="opacity:0.7;fill:url(#radialGradient3889);fill-opacity:1;fill-rule:nonzero;stroke:none;display:inline"
       sodipodi:type="arc" />
  </g>
  <g
     inkscape:groupmode="layer"
     id="layer5"
     inkscape:label="Highlight">
    <g
       id="g907">
      <path
         id="rect4377"
         d="M 12,86 C 8.676,86 6,83.324 6,80 V 12 C 6,8.676 8.676,6 12,6 h 72 c 3.324,0 6,2.676 6,6 v 68 c 0,3.324 -2.676,6 -6,6 z m 0,-0.96875 h 72 c 2.8049,0 5.0312,-2.2264 5.0312,-5.0312 v -68 c 0,-2.8049 -2.226,-5.0312 -5.031,-5.0312 h -72 c -2.8049,0 -5.0312,2.2263 -5.0312,5.0312 v 68 c 0,2.8049 2.2264,5.0312 5.0312,5.0312 z"
         style="opacity:0.3;fill:url(#linearGradient4390)"
         inkscape:connector-curvature="0" />
      <path
         id="rect4414"
         d="m 6,78 v 2 c 0,3.324 2.676,6 6,6 h 72 c 3.324,0 6,-2.676 6,-6 v -2 c 0,3.324 -2.676,6 -6,6 H 12 C 8.676,84 6,81.324 6,78 Z"
         style="opacity:0.1;fill:url(#linearGradient4429)"
         inkscape:connector-curvature="0" />
      <g
         id="layer4-3">
        <path
           style="fill:url(#linearGradient3228)"
           inkscape:connector-curvature="0"
           d="m 6,80 v 4 c 0,3.324 2.676,6 6,6 h 72 c 3.324,0 6,-2.676 6,-6 v -4 c 0,3.324 -2.676,6 -6,6 H 12 C 8.676,86 6,83.324 6,80 Z"
           id="path3888" />
        <path
           style="color:#000000;opacity:0.1"
           inkscape:connector-curvature="0"
           d="m 6,82 v 2 c 0,3.324 2.676,6 6,6 h 72 c 3.324,0 6,-2.676 6,-6 v -2 c 0,3.324 -2.676,6 -6,6 H 12 C 8.676,88 6,85.324 6,82 Z"
           id="rect4345" />
        <path
           style="color:#000000;opacity:0.15"
           inkscape:connector-curvature="0"
           d="m 6,83 v 1 c 0,3.324 2.676,6 6,6 h 72 c 3.324,0 6,-2.676 6,-6 v -1 c 0,3.324 -2.676,6 -6,6 H 12 C 8.676,89 6,86.324 6,83 Z"
           id="rect4336" />
      </g>
    </g>
  </g>
</svg>
