<?xml version="1.0" encoding="UTF-8" standalone="no"?>
<svg
   xmlns:dc="http://purl.org/dc/elements/1.1/"
   xmlns:cc="http://creativecommons.org/ns#"
   xmlns:rdf="http://www.w3.org/1999/02/22-rdf-syntax-ns#"
   xmlns:svg="http://www.w3.org/2000/svg"
   xmlns="http://www.w3.org/2000/svg"
   xmlns:xlink="http://www.w3.org/1999/xlink"
   xmlns:sodipodi="http://sodipodi.sourceforge.net/DTD/sodipodi-0.dtd"
   xmlns:inkscape="http://www.inkscape.org/namespaces/inkscape"
   width="96"
   height="96"
   version="1.1"
   id="svg77"
   sodipodi:docname="d-feet.svg"
   inkscape:version="0.92.2 5c3e80d, 2017-08-06">
  <metadata
     id="metadata81">
    <rdf:RDF>
      <cc:Work
         rdf:about="">
        <dc:format>image/svg+xml</dc:format>
        <dc:type
           rdf:resource="http://purl.org/dc/dcmitype/StillImage" />
      </cc:Work>
    </rdf:RDF>
  </metadata>
  <sodipodi:namedview
     pagecolor="#ffffff"
     bordercolor="#666666"
     borderopacity="1"
     objecttolerance="10"
     gridtolerance="10"
     guidetolerance="10"
     inkscape:pageopacity="0"
     inkscape:pageshadow="2"
     inkscape:window-width="640"
     inkscape:window-height="480"
     id="namedview79"
     showgrid="false"
     inkscape:zoom="2.4583333"
     inkscape:cx="48"
     inkscape:cy="48"
     inkscape:window-x="0"
     inkscape:window-y="25"
     inkscape:window-maximized="0"
     inkscape:current-layer="svg77" />
  <defs
     id="defs2410">
    <linearGradient
       id="linearGradient4384">
      <stop
         id="stop4386"
         stop-color="#fff"
         offset="0" />
      <stop
         id="stop4388"
         stop-color="#fff"
         stop-opacity="0"
         offset="1" />
    </linearGradient>
    <filter
       id="filter3794"
       x="-.192"
       y="-.192"
       width="1.384"
       height="1.384">
      <feGaussianBlur
         id="feGaussianBlur3796"
         stdDeviation="5.28" />
    </filter>
    <linearGradient
       id="linearGradient3613"
       x1="48"
       x2="48"
       y1="20.221"
       y2="138.66"
       gradientUnits="userSpaceOnUse">
      <stop
         id="stop3739"
         stop-color="#fff"
         offset="0" />
      <stop
         id="stop3741"
         stop-color="#fff"
         stop-opacity="0"
         offset="1" />
    </linearGradient>
    <linearGradient
       id="buttonGradient"
       x1="48"
       x2="48"
       y1="90"
       y2="5.9877"
       gradientUnits="userSpaceOnUse">
      <stop
         id="stop3702"
         stop-color="#222222"
         offset="0" />
      <stop
         id="stop3704"
         stop-color="#555555"
         offset="1" />
    </linearGradient>
    <linearGradient
       id="ButtonShadow-0"
       x1="45.448"
       x2="45.448"
       y1="92.54"
       y2="7.0165"
       gradientTransform="matrix(1.0059 0 0 .99417 100 0)"
       gradientUnits="userSpaceOnUse">
      <stop
         id="stop3750-8"
         offset="0" />
      <stop
         id="stop3752-5"
         stop-opacity=".58824"
         offset="1" />
    </linearGradient>
    <linearGradient
       id="linearGradient3780"
       x1="32.251"
       x2="32.251"
       y1="6.1317"
       y2="90.239"
       gradientTransform="matrix(1.0238 0 0 1.0119 -1.1429 -98.071)"
       gradientUnits="userSpaceOnUse"
       xlink:href="#ButtonShadow-0" />
    <linearGradient
       id="linearGradient3721"
       x1="32.251"
       x2="32.251"
       y1="6.1317"
       y2="90.239"
       gradientTransform="translate(0,-97)"
       gradientUnits="userSpaceOnUse"
       xlink:href="#ButtonShadow-0" />
    <clipPath
       id="clipPath4355">
      <rect
         id="rect4357"
         x="6"
         y="6"
         width="84"
         height="80"
         rx="6"
         ry="6"
         fill="#fff" />
    </clipPath>
    <linearGradient
       id="linearGradient4390"
       x1="48"
       x2="48"
       y1="88"
       y2="-40"
       gradientTransform="matrix(1,0,0,-1,0,92)"
       gradientUnits="userSpaceOnUse"
       xlink:href="#linearGradient4384" />
    <linearGradient
       id="linearGradient4429"
       x1="48"
       x2="112.12"
       y1="82"
       y2="82.455"
       gradientUnits="userSpaceOnUse"
       spreadMethod="reflect"
       xlink:href="#linearGradient4384" />
    <linearGradient
       id="linearGradient3228"
       x1="90"
       x2="48"
       y1="88"
       y2="88"
       gradientUnits="userSpaceOnUse"
       spreadMethod="reflect">
      <stop
         id="stop3894"
         stop-opacity=".58824"
         offset="0" />
      <stop
         id="stop3896"
         stop-opacity=".47059"
         offset=".1178" />
      <stop
         id="stop3898"
         stop-opacity=".39216"
         offset=".2381" />
      <stop
         id="stop3900"
         stop-opacity=".31373"
         offset="1" />
    </linearGradient>
  </defs>
  <g
     id="layer3">
    <g
       id="g32"
       fill="url(#linearGradient3780)">
      <path
         id="path3786"
         transform="scale(1,-1)"
         d="m12-95.021c-5.5111 0-10.022 4.51-10.022 10.021v71c0 5.5111 4.5104 10.021 10.021 10.021h72c5.5111 0 10.021-4.5104 10.021-10.021v-71c0-5.5111-4.5104-10.021-10.021-10.021h-72z"
         opacity=".08" />
      <path
         id="path3778"
         transform="scale(1,-1)"
         d="m12-94.035c-4.9716 0-9.0352 4.0635-9.0352 9.0352v71c0 4.9716 4.0635 9.0352 9.0352 9.0352h72c4.9716 0 9.0352-4.0635 9.0352-9.0352v-71c0-4.9716-4.0635-9.0352-9.0352-9.0352h-72z"
         opacity=".1" />
      <path
         id="path3770"
         transform="scale(1,-1)"
         d="m12-92.99c-4.4091 0-7.9902 3.5811-7.9902 7.9902v71c0 4.4091 3.5811 7.9902 7.9902 7.9902h72c4.4091 0 7.9902-3.5811 7.9902-7.9902v-71c0-4.4091-3.5811-7.9902-7.9902-7.9902h-72z"
         opacity=".2" />
      <rect
         id="rect3723"
         transform="scale(1,-1)"
         x="5"
         y="-92"
         width="86"
         height="85"
         rx="7"
         ry="7"
         opacity=".3" />
    </g>
    <rect
       id="rect3716"
       transform="scale(1,-1)"
       x="6"
       y="-91"
       width="84"
       height="84"
       rx="6"
       ry="6"
       fill="url(#linearGradient3721)"
       opacity=".45" />
  </g>
  <g
     id="layer1">
    <rect
       id="button"
       x="6"
       y="6"
       width="84"
       height="84"
       rx="6"
       ry="6"
       fill="url(#buttonGradient)" />
    <path
       id="rect4377"
       d="m12 86c-3.324 0-6-2.676-6-6v-68c0-3.324 2.676-6 6-6h72c3.324 0 6 2.676 6 6v68c0 3.324-2.676 6-6 6zm0-0.96875h72c2.8049 0 5.0312-2.2264 5.0312-5.0312v-68c0-2.8049-2.226-5.0312-5.031-5.0312h-72c-2.8049 0-5.0312 2.2263-5.0312 5.0312v68c0 2.8049 2.2264 5.0312 5.0312 5.0312z"
       fill="url(#linearGradient4390)"
       opacity=".3" />
    <path
       id="rect4414"
       d="m6 78v2c0 3.324 2.676 6 6 6h72c3.324 0 6-2.676 6-6v-2c0 3.324-2.676 6-6 6h-72c-3.324 0-6-2.676-6-6z"
       fill="url(#linearGradient4429)"
       opacity=".1" />
  </g>
  <g
     id="layer4">
    <path
       id="path3888"
       d="m6 80v4c0 3.324 2.676 6 6 6h72c3.324 0 6-2.676 6-6v-4c0 3.324-2.676 6-6 6h-72c-3.324 0-6-2.676-6-6z"
       fill="url(#linearGradient3228)" />
    <path
       id="rect4345"
       d="m6 82v2c0 3.324 2.676 6 6 6h72c3.324 0 6-2.676 6-6v-2c0 3.324-2.676 6-6 6h-72c-3.324 0-6-2.676-6-6z"
       color="#000000"
       opacity=".1" />
    <path
       id="rect4336"
       d="m6 83v1c0 3.324 2.676 6 6 6h72c3.324 0 6-2.676 6-6v-1c0 3.324-2.676 6-6 6h-72c-3.324 0-6-2.676-6-6z"
       color="#000000"
       opacity=".15" />
  </g>
  <g
     id="layer5">
    <rect
       id="rect3171"
       x="15"
       y="15"
       width="66"
       height="62"
       rx="12"
       ry="12"
       clip-path="url(#clipPath4355)"
       fill="url(#linearGradient3613)"
       filter="url(#filter3794)"
       opacity=".1"
       stroke="#fff"
       stroke-linecap="round"
       stroke-width=".5" />
  </g>
  <defs
     id="defs53">
    <filter
       id="w">
      <feGaussianBlur
         stdDeviation="0.23199685"
         id="feGaussianBlur45" />
    </filter>
    <linearGradient
       id="a"
       gradientUnits="userSpaceOnUse"
       x1="8"
       y1="1.0002254"
       x2="8"
       y2="15.0002304">
      <stop
         stop-color="#fafafa"
         offset="0"
         id="stop48" />
      <stop
         stop-color="#ebebeb"
         offset="1"
         id="stop50" />
    </linearGradient>
  </defs>
  <g
     transform="translate(0,-2)"
     id="g75">
    <path
       style="opacity:0.15;fill:#000000"
       d="M 12.285156,0.765625 C 12.004815,0.73533202 11.722601,0.74581976 11.451172,0.80273438 10.870086,0.92460646 10.363521,1.3611876 9.9492188,1.9941406 9.5349166,2.6270937 9.2058456,3.4675065 8.9902344,4.4589844 8.9441812,4.6707318 8.900541,5.0661068 8.8515625,5.578125 8.802584,6.0901432 8.7527431,6.7045603 8.7109375,7.3007812 c -0.041806,0.596221 -0.076274,1.1727855 -0.09375,1.609375 -0.00874,0.2182948 -0.0144,0.4026419 -0.013672,0.5390626 3.642e-4,0.06821 0.00179,0.1228934 0.00586,0.171875 0.00204,0.024491 0.00591,0.046259 0.011719,0.074219 0.0029,0.01398 0.00522,0.030525 0.013672,0.052734 0.00423,0.011105 0.010148,0.022769 0.019531,0.039063 0.00938,0.016293 0.046112,0.059824 0.046875,0.060547 1.703e-4,1.615e-4 0.032937,0.027167 0.033203,0.027344 2.658e-4,1.771e-4 0.01752,0.00856 0.023437,0.011719 0.011835,0.00632 0.018799,0.010988 0.025391,0.013672 0.013184,0.00537 0.021411,0.00733 0.029297,0.00977 0.015772,0.00487 0.029212,0.00787 0.044922,0.011719 0.03142,0.0077 0.070697,0.017298 0.1191406,0.027344 0.096888,0.020091 0.2292378,0.045906 0.3925781,0.076172 0.3266806,0.06053 0.7713634,0.137501 1.2539064,0.21875 0.481634,0.08109 0.930499,0.157206 1.267578,0.21289 0.168539,0.02784 0.309869,0.04994 0.412109,0.06641 0.102241,0.01647 0.142003,0.02406 0.191407,0.0293 0.184926,0.0197 0.224957,-0.05759 0.285156,-0.107422 0.0602,-0.04983 0.118833,-0.110535 0.183594,-0.183593 0.129521,-0.146116 0.281927,-0.34114 0.443359,-0.5683596 C 13.729115,9.2389201 14.088561,8.6654827 14.345703,8.1660156 15.033658,6.8297284 15.314067,5.7032157 15.238281,4.515625 15.175292,3.5284359 14.905399,2.6566789 14.445312,2.0097656 13.952273,1.3165408 13.126179,0.85650395 12.285156,0.765625 Z M 4.6054688,2.0664062 c -0.6875076,2e-7 -0.9747765,0.061949 -1.4140626,0.3066407 C 2.1578733,2.9487844 1.2509677,4.2826836 0.91015625,5.6523438 0.5956563,6.9162797 0.74862178,8.8558423 1.2597656,10.447266 l 0.1933594,0.603515 a 0.250025,0.250025 0 0 0 0.1972656,0.169922 l 1.8554688,0.310547 c 0.6734242,0.11243 1.145158,0.182497 1.4648437,0.214844 0.1598429,0.01617 0.2802165,0.02348 0.3808594,0.01953 0.050321,-0.002 0.094609,-0.0056 0.1464844,-0.01953 0.051875,-0.01397 0.1280456,-0.03549 0.1894531,-0.13086 0.039408,-0.06119 0.034527,-0.0673 0.048828,-0.103515 0.014301,-0.03622 0.030757,-0.08132 0.050781,-0.136719 0.040048,-0.110797 0.093273,-0.26164 0.1542968,-0.441406 C 6.0634545,10.574062 6.2203955,10.095656 6.3847656,9.5839844 7.0816297,7.4146194 7.3501618,6.0073455 7.2578125,4.8632812 7.1791156,3.8882447 6.9803123,3.1860492 6.5410156,2.7167969 6.1017189,2.2475445 5.4523047,2.0664062 4.6054688,2.0664062 Z M 8.859375,10.201172 c -0.094753,0.01246 -0.2011757,0.07273 -0.265625,0.146484 -0.1288987,0.1475 -0.1754768,0.310643 -0.28125,0.607422 -0.1354271,0.380006 -0.2382812,0.892386 -0.2382812,1.240234 -1e-7,0.377126 0.097829,0.714179 0.3105468,0.976563 0.212718,0.262384 0.5252281,0.439335 0.9140625,0.552734 1.0761469,0.313831 2.0103409,0.153043 2.6367189,-0.503906 0.412475,-0.432579 0.606494,-0.879492 0.71875,-1.630859 0.02016,-0.134879 0.04491,-0.256489 0.0098,-0.408203 -0.03514,-0.151715 -0.164433,-0.290006 -0.314453,-0.361329 -0.300038,-0.142644 -0.744796,-0.19927 -1.648437,-0.341796 C 9.9713417,10.363409 9.2349633,10.242199 9.0996094,10.216797 9.0276084,10.203287 8.9541275,10.188713 8.859375,10.201172 Z M 1.78125,11.484375 c -0.1480235,-0.0062 -0.2743346,0.08446 -0.34375,0.173828 -0.069415,0.08937 -0.1087116,0.187688 -0.1425781,0.296875 -0.067733,0.218374 -0.1020251,0.484543 -0.1113281,0.767578 -0.0093,0.283036 0.00833,0.579135 0.054687,0.847656 0.046357,0.268522 0.110175,0.50794 0.2578126,0.695313 0.3527271,0.447664 0.8078796,0.728679 1.4179687,0.886719 0.4988621,0.129226 0.9902499,0.129678 1.4101563,0.01172 0.4199063,-0.117959 0.7779188,-0.361258 0.9570312,-0.728515 0.1277394,-0.262037 0.2060272,-0.612657 0.2480469,-0.964844 0.04202,-0.352187 0.052265,-0.686413 -0.025391,-0.951172 -0.021999,-0.07501 -0.046267,-0.170796 -0.125,-0.265625 C 5.3001728,12.159078 5.1890758,12.100005 5.0585938,12.056641 4.7976297,11.969911 4.3934892,11.906893 3.5761719,11.769531 3.1244864,11.69362 2.7014235,11.623432 2.3808594,11.572266 2.2205773,11.546682 2.0858317,11.526585 1.9863281,11.511719 1.8868245,11.496852 1.8556532,11.487416 1.78125,11.484375 Z"
       id="path55"
       inkscape:original="M 11.501953 1.046875 C 10.521653 1.252475 9.655495 2.5752188 9.234375 4.5117188 C 9.080935 5.2172187 8.7754049 9.5734956 8.8730469 9.6660156 C 8.8948469 9.6866856 9.7012125 9.8359269 10.664062 9.9980469 C 11.626922 10.160167 12.463034 10.298488 12.521484 10.304688 C 12.697984 10.323487 13.624647 9.0188613 14.123047 8.0507812 C 14.797777 6.7401813 15.060991 5.67065 14.988281 4.53125 C 14.927601 3.58025 14.666968 2.7515669 14.242188 2.1542969 C 13.649388 1.3208069 12.470883 0.843705 11.501953 1.046875 z M 4.6054688 2.3164062 C 3.9279488 2.3164063 3.73401 2.3570069 3.3125 2.5917969 C 2.3731 3.1150969 1.4764438 4.4103906 1.1523438 5.7128906 C 0.85778375 6.8966906 1.0011069 8.8238937 1.4980469 10.371094 L 1.6914062 10.974609 L 3.546875 11.285156 C 4.889535 11.509316 5.4232565 11.563259 5.4765625 11.480469 C 5.5170725 11.417569 5.8184644 10.528913 6.1464844 9.5078125 C 6.8393444 7.3509125 7.0956605 5.9711125 7.0078125 4.8828125 C 6.8544125 2.9822225 6.2308687 2.3164062 4.6054688 2.3164062 z M 9.0527344 10.462891 C 8.7900944 10.413611 8.7588281 10.449843 8.5488281 11.039062 C 8.4254881 11.385152 8.3242188 11.905753 8.3242188 12.195312 C 8.3242187 12.867252 8.6560706 13.276415 9.3691406 13.484375 C 10.389941 13.782065 11.195976 13.633988 11.753906 13.048828 C 12.138176 12.645828 12.29746 12.280904 12.40625 11.552734 C 12.48605 11.018844 12.468809 11.009569 10.662109 10.724609 C 9.9315594 10.609389 9.2069944 10.491841 9.0527344 10.462891 z M 1.7714844 11.734375 C 1.3653284 11.717475 1.3029294 13.615818 1.6933594 14.111328 C 2.0152594 14.519868 2.4037625 14.761776 2.9765625 14.910156 C 3.8960625 15.148346 4.7764506 14.900682 5.0566406 14.326172 C 5.2650406 13.898672 5.3757419 12.971934 5.2636719 12.589844 C 5.1765719 12.292864 5.1696563 12.290325 3.5351562 12.015625 C 2.6329263 11.863995 1.8399984 11.737175 1.7714844 11.734375 z"
       transform="matrix(4,0,0,4,16,17)"
       inkscape:radius="0.25"
       sodipodi:type="inkscape:offset" />
    <g
       id="Bevel1">
      <path
         fill="#000"
         opacity=".10"
         sodipodi:type="inkscape:offset"
         inkscape:radius="0.5"
         transform="translate(16,17) scale(4)"
         inkscape:original="M 11.501953 1.046875 C 10.521653 1.252475 9.655495 2.5752188 9.234375 4.5117188 C 9.080935 5.2172187 8.7754049 9.5734956 8.8730469 9.6660156 C 8.8948469 9.6866856 9.7012125 9.8359269 10.664062 9.9980469 C 11.626922 10.160167 12.463034 10.298488 12.521484 10.304688 C 12.697984 10.323487 13.624647 9.0188613 14.123047 8.0507812 C 14.797777 6.7401813 15.060991 5.67065 14.988281 4.53125 C 14.927601 3.58025 14.666968 2.7515669 14.242188 2.1542969 C 13.649388 1.3208069 12.470883 0.843705 11.501953 1.046875 z M 4.6054688 2.3164062 C 3.9279488 2.3164063 3.73401 2.3570069 3.3125 2.5917969 C 2.3731 3.1150969 1.4764438 4.4103906 1.1523438 5.7128906 C 0.85778375 6.8966906 1.0011069 8.8238937 1.4980469 10.371094 L 1.6914062 10.974609 L 3.546875 11.285156 C 4.889535 11.509316 5.4232565 11.563259 5.4765625 11.480469 C 5.5170725 11.417569 5.8184644 10.528913 6.1464844 9.5078125 C 6.8393444 7.3509125 7.0956605 5.9711125 7.0078125 4.8828125 C 6.8544125 2.9822225 6.2308687 2.3164062 4.6054688 2.3164062 z M 9.0527344 10.462891 C 8.7900944 10.413611 8.7588281 10.449843 8.5488281 11.039062 C 8.4254881 11.385152 8.3242188 11.905753 8.3242188 12.195312 C 8.3242187 12.867252 8.6560706 13.276415 9.3691406 13.484375 C 10.389941 13.782065 11.195976 13.633988 11.753906 13.048828 C 12.138176 12.645828 12.29746 12.280904 12.40625 11.552734 C 12.48605 11.018844 12.468809 11.009569 10.662109 10.724609 C 9.9315594 10.609389 9.2069944 10.491841 9.0527344 10.462891 z M 1.7714844 11.734375 C 1.3653284 11.717475 1.3029294 13.615818 1.6933594 14.111328 C 2.0152594 14.519868 2.4037625 14.761776 2.9765625 14.910156 C 3.8960625 15.148346 4.7764506 14.900682 5.0566406 14.326172 C 5.2650406 13.898672 5.3757419 12.971934 5.2636719 12.589844 C 5.1765719 12.292864 5.1696563 12.290325 3.5351562 12.015625 C 2.6329263 11.863995 1.8399984 11.737175 1.7714844 11.734375 z"
         id="path58" />
    </g>
    <g
       id="Bevel2">
      <path
         fill="#000"
         opacity=".05"
         sodipodi:type="inkscape:offset"
         inkscape:radius="0.75"
         transform="translate(16,17) scale(4)"
         inkscape:original="M 11.501953 1.046875 C 10.521653 1.252475 9.655495 2.5752188 9.234375 4.5117188 C 9.080935 5.2172187 8.7754049 9.5734956 8.8730469 9.6660156 C 8.8948469 9.6866856 9.7012125 9.8359269 10.664062 9.9980469 C 11.626922 10.160167 12.463034 10.298488 12.521484 10.304688 C 12.697984 10.323487 13.624647 9.0188613 14.123047 8.0507812 C 14.797777 6.7401813 15.060991 5.67065 14.988281 4.53125 C 14.927601 3.58025 14.666968 2.7515669 14.242188 2.1542969 C 13.649388 1.3208069 12.470883 0.843705 11.501953 1.046875 z M 4.6054688 2.3164062 C 3.9279488 2.3164063 3.73401 2.3570069 3.3125 2.5917969 C 2.3731 3.1150969 1.4764438 4.4103906 1.1523438 5.7128906 C 0.85778375 6.8966906 1.0011069 8.8238937 1.4980469 10.371094 L 1.6914062 10.974609 L 3.546875 11.285156 C 4.889535 11.509316 5.4232565 11.563259 5.4765625 11.480469 C 5.5170725 11.417569 5.8184644 10.528913 6.1464844 9.5078125 C 6.8393444 7.3509125 7.0956605 5.9711125 7.0078125 4.8828125 C 6.8544125 2.9822225 6.2308687 2.3164062 4.6054688 2.3164062 z M 9.0527344 10.462891 C 8.7900944 10.413611 8.7588281 10.449843 8.5488281 11.039062 C 8.4254881 11.385152 8.3242188 11.905753 8.3242188 12.195312 C 8.3242187 12.867252 8.6560706 13.276415 9.3691406 13.484375 C 10.389941 13.782065 11.195976 13.633988 11.753906 13.048828 C 12.138176 12.645828 12.29746 12.280904 12.40625 11.552734 C 12.48605 11.018844 12.468809 11.009569 10.662109 10.724609 C 9.9315594 10.609389 9.2069944 10.491841 9.0527344 10.462891 z M 1.7714844 11.734375 C 1.3653284 11.717475 1.3029294 13.615818 1.6933594 14.111328 C 2.0152594 14.519868 2.4037625 14.761776 2.9765625 14.910156 C 3.8960625 15.148346 4.7764506 14.900682 5.0566406 14.326172 C 5.2650406 13.898672 5.3757419 12.971934 5.2636719 12.589844 C 5.1765719 12.292864 5.1696563 12.290325 3.5351562 12.015625 C 2.6329263 11.863995 1.8399984 11.737175 1.7714844 11.734375 z"
         id="path61" />
    </g>
    <path
       d="M 11.501953 1.046875 C 10.521653 1.252475 9.655495 2.5752188 9.234375 4.5117188 C 9.080935 5.2172187 8.7754049 9.5734956 8.8730469 9.6660156 C 8.8948469 9.6866856 9.7012125 9.8359269 10.664062 9.9980469 C 11.626922 10.160167 12.463034 10.298488 12.521484 10.304688 C 12.697984 10.323487 13.624647 9.0188613 14.123047 8.0507812 C 14.797777 6.7401813 15.060991 5.67065 14.988281 4.53125 C 14.927601 3.58025 14.666968 2.7515669 14.242188 2.1542969 C 13.649388 1.3208069 12.470883 0.843705 11.501953 1.046875 z M 4.6054688 2.3164062 C 3.9279488 2.3164063 3.73401 2.3570069 3.3125 2.5917969 C 2.3731 3.1150969 1.4764438 4.4103906 1.1523438 5.7128906 C 0.85778375 6.8966906 1.0011069 8.8238937 1.4980469 10.371094 L 1.6914062 10.974609 L 3.546875 11.285156 C 4.889535 11.509316 5.4232565 11.563259 5.4765625 11.480469 C 5.5170725 11.417569 5.8184644 10.528913 6.1464844 9.5078125 C 6.8393444 7.3509125 7.0956605 5.9711125 7.0078125 4.8828125 C 6.8544125 2.9822225 6.2308687 2.3164062 4.6054688 2.3164062 z M 9.0527344 10.462891 C 8.7900944 10.413611 8.7588281 10.449843 8.5488281 11.039062 C 8.4254881 11.385152 8.3242188 11.905753 8.3242188 12.195312 C 8.3242187 12.867252 8.6560706 13.276415 9.3691406 13.484375 C 10.389941 13.782065 11.195976 13.633988 11.753906 13.048828 C 12.138176 12.645828 12.29746 12.280904 12.40625 11.552734 C 12.48605 11.018844 12.468809 11.009569 10.662109 10.724609 C 9.9315594 10.609389 9.2069944 10.491841 9.0527344 10.462891 z M 1.7714844 11.734375 C 1.3653284 11.717475 1.3029294 13.615818 1.6933594 14.111328 C 2.0152594 14.519868 2.4037625 14.761776 2.9765625 14.910156 C 3.8960625 15.148346 4.7764506 14.900682 5.0566406 14.326172 C 5.2650406 13.898672 5.3757419 12.971934 5.2636719 12.589844 C 5.1765719 12.292864 5.1696563 12.290325 3.5351562 12.015625 C 2.6329263 11.863995 1.8399984 11.737175 1.7714844 11.734375 z"
       fill="url(#a)"
       id="base"
       transform="translate(16,16) scale(4)" />
    <path
       style="opacity:0.3;fill:#000000;stroke-width:4"
       d="M 75.980469 34.169922 C 75.877827 37.993427 74.784546 41.750433 72.492188 46.203125 C 70.498587 50.075445 66.791938 55.29395 66.085938 55.21875 C 65.852137 55.19395 62.50769 54.640667 58.65625 53.992188 C 54.804852 53.343708 51.579388 52.746743 51.492188 52.664062 C 51.459562 52.633148 51.441101 52.44579 51.429688 52.195312 C 51.418628 52.999543 51.429632 53.604788 51.492188 53.664062 C 51.579388 53.746743 54.804852 54.343708 58.65625 54.992188 C 62.50769 55.640667 65.852137 56.19395 66.085938 56.21875 C 66.791938 56.29395 70.498587 51.075445 72.492188 47.203125 C 74.983649 42.363694 76.05661 38.344313 75.980469 34.169922 z M 44.078125 35.742188 C 43.993825 39.752598 42.912176 44.789581 40.585938 52.03125 C 39.273857 56.115652 38.06829 59.670275 37.90625 59.921875 C 37.693026 60.253035 35.55814 60.037265 30.1875 59.140625 L 22.765625 57.898438 L 21.992188 55.484375 C 20.780224 51.710981 20.103438 47.377181 20.019531 43.492188 C 19.995371 47.622651 20.674032 52.380357 21.992188 56.484375 L 22.765625 58.898438 L 30.1875 60.140625 C 35.55814 61.037265 37.693026 61.253035 37.90625 60.921875 C 38.06829 60.670275 39.273857 57.115652 40.585938 53.03125 C 43.109361 45.175734 44.171032 39.909998 44.078125 35.742188 z M 65.664062 59.894531 C 65.649848 60.001153 65.642806 60.091812 65.625 60.210938 C 65.18984 63.123617 64.552705 64.583313 63.015625 66.195312 C 60.783905 68.535952 57.559764 69.12826 53.476562 67.9375 C 50.815251 67.161354 49.496751 65.672433 49.330078 63.294922 C 49.319054 63.456919 49.296875 63.64287 49.296875 63.78125 C 49.296875 66.46901 50.624282 68.10566 53.476562 68.9375 C 57.559764 70.12826 60.783905 69.535952 63.015625 67.195312 C 64.552705 65.583313 65.18984 64.123617 65.625 61.210938 C 65.709967 60.642478 65.761785 60.225992 65.664062 59.894531 z M 21.746094 65.773438 C 21.654368 67.949208 21.973636 70.430253 22.773438 71.445312 C 24.061038 73.079472 25.61505 74.047105 27.90625 74.640625 C 31.58425 75.593385 35.105802 74.602624 36.226562 72.304688 C 36.888638 70.946544 37.296456 68.344135 37.214844 66.558594 C 37.144307 68.217929 36.772133 70.185536 36.226562 71.304688 C 35.105802 73.602624 31.58425 74.593385 27.90625 73.640625 C 25.61505 73.047105 24.061038 72.079472 22.773438 70.445312 C 22.094754 69.583969 21.776432 67.664959 21.746094 65.773438 z "
       transform="translate(0,2)"
       id="path65" />
    <path
       style="fill:#ffffff;stroke-width:4"
       d="M 63.494141 18.007812 C 62.989692 18.026894 62.492278 18.085915 62.007812 18.1875 C 58.086613 19.0099 54.62198 24.300875 52.9375 32.046875 C 52.37501 34.633143 51.304463 49.447274 51.429688 52.195312 C 51.487679 47.978317 52.422044 35.416886 52.9375 33.046875 C 54.62198 25.300875 58.086613 20.0099 62.007812 19.1875 C 65.883533 18.37482 70.59755 20.283227 72.96875 23.617188 C 74.66787 26.006268 75.710405 29.321 75.953125 33.125 C 75.975481 33.47533 75.974129 33.822329 75.980469 34.169922 C 75.998673 33.491804 75.996937 32.811551 75.953125 32.125 C 75.710405 28.321 74.66787 25.006268 72.96875 22.617188 C 70.89395 19.699972 67.025282 17.874243 63.494141 18.007812 z M 34.421875 23.265625 C 31.711795 23.265625 30.93604 23.428028 29.25 24.367188 C 25.4924 26.460387 21.905775 31.641562 20.609375 36.851562 C 20.149523 38.699649 19.965821 41.005343 20.019531 43.492188 C 20.031804 41.39397 20.212469 39.44668 20.609375 37.851562 C 21.905775 32.641562 25.4924 27.460387 29.25 25.367188 C 30.93604 24.428028 31.711795 24.265625 34.421875 24.265625 C 40.923475 24.265625 43.41765 26.92889 44.03125 34.53125 C 44.062696 34.920818 44.068994 35.332552 44.078125 35.742188 C 44.094259 34.974664 44.087697 34.230545 44.03125 33.53125 C 43.41765 25.92889 40.923475 23.265625 34.421875 23.265625 z M 51.570312 55.796875 C 51.052558 55.864953 50.825312 56.388587 50.195312 58.15625 C 49.701952 59.54061 49.296875 61.623014 49.296875 62.78125 C 49.296875 62.961203 49.318118 63.124318 49.330078 63.294922 C 49.411325 62.101009 49.760897 60.375214 50.195312 59.15625 C 51.035312 56.799366 51.160378 56.654443 52.210938 56.851562 C 52.827977 56.967363 55.726239 57.437557 58.648438 57.898438 C 63.951556 58.734866 65.394667 58.980777 65.664062 59.894531 C 65.904679 58.089743 65.472118 57.974695 58.648438 56.898438 C 55.726239 56.437557 52.827977 55.967363 52.210938 55.851562 C 51.948298 55.802283 51.742897 55.774182 51.570312 55.796875 z M 23.085938 60.9375 C 22.167334 60.899277 21.70662 63.312376 21.746094 65.773438 C 21.833475 63.700724 22.29333 61.90452 23.085938 61.9375 C 23.359993 61.9487 26.531705 62.45598 30.140625 63.0625 C 36.678624 64.1613 36.706288 64.171455 37.054688 65.359375 C 37.146927 65.673856 37.1937 66.096011 37.214844 66.558594 C 37.252083 65.68256 37.20958 64.887462 37.054688 64.359375 C 36.706288 63.171455 36.678624 63.1613 30.140625 62.0625 C 26.531705 61.45598 23.359993 60.9487 23.085938 60.9375 z "
       transform="translate(0,2)"
       id="path70" />
  </g>
</svg>
