<?xml version="1.0" encoding="UTF-8" standalone="no"?>
<!-- Created with Inkscape (http://www.inkscape.org/) -->

<svg
   xmlns:dc="http://purl.org/dc/elements/1.1/"
   xmlns:cc="http://creativecommons.org/ns#"
   xmlns:rdf="http://www.w3.org/1999/02/22-rdf-syntax-ns#"
   xmlns:svg="http://www.w3.org/2000/svg"
   xmlns="http://www.w3.org/2000/svg"
   xmlns:xlink="http://www.w3.org/1999/xlink"
   xmlns:sodipodi="http://sodipodi.sourceforge.net/DTD/sodipodi-0.dtd"
   xmlns:inkscape="http://www.inkscape.org/namespaces/inkscape"
   width="96"
   height="96"
   id="svg2408"
   sodipodi:version="0.32"
   inkscape:version="0.92.2 5c3e80d, 2017-08-06"
   version="1.0"
   sodipodi:docname="defcon.svg"
   inkscape:output_extension="org.inkscape.output.svg.inkscape">
  <defs
     id="defs2410">
    <linearGradient
       inkscape:collect="always"
       id="linearGradient3860">
      <stop
         style="stop-color:#ffffff;stop-opacity:1;"
         offset="0"
         id="stop3862" />
      <stop
         style="stop-color:#ffffff;stop-opacity:0;"
         offset="1"
         id="stop3864" />
    </linearGradient>
    <linearGradient
       id="linearGradient3802">
      <stop
         style="stop-color:#ffffff;stop-opacity:1;"
         offset="0"
         id="stop3804" />
      <stop
         id="stop3810"
         offset="0.5"
         style="stop-color:#ffffff;stop-opacity:0.35658914;" />
      <stop
         style="stop-color:#ffffff;stop-opacity:0;"
         offset="1"
         id="stop3806" />
    </linearGradient>
    <linearGradient
       id="linearGradient3779">
      <stop
         style="stop-color:#000000;stop-opacity:0;"
         offset="0"
         id="stop3785" />
      <stop
         id="stop3814"
         offset="0.69999999"
         style="stop-color:#ca0000;stop-opacity:0;" />
      <stop
         id="stop3791"
         offset="0.80000001"
         style="stop-color:#6b0000;stop-opacity:0.12403101;" />
      <stop
         id="stop3787"
         offset="1"
         style="stop-color:#000000;stop-opacity:1" />
    </linearGradient>
    <linearGradient
       id="linearGradient3753">
      <stop
         style="stop-color:#fff814;stop-opacity:1"
         offset="0"
         id="stop3755" />
      <stop
         id="stop3763"
         offset="0.5"
         style="stop-color:#ffc516;stop-opacity:1" />
      <stop
         style="stop-color:#da8600;stop-opacity:0.66666669;"
         offset="1"
         id="stop3757" />
    </linearGradient>
    <linearGradient
       id="linearGradient3716">
      <stop
         style="stop-color:#ee8a0c;stop-opacity:1;"
         offset="0"
         id="stop3718" />
      <stop
         id="stop3751"
         offset="0.33020937"
         style="stop-color:#ca0005;stop-opacity:1;" />
      <stop
         id="stop3748"
         offset="0.77064335"
         style="stop-color:#530111;stop-opacity:1" />
      <stop
         style="stop-color:#000000;stop-opacity:1"
         offset="1"
         id="stop3720" />
    </linearGradient>
    <linearGradient
       id="ButtonShadow"
       gradientTransform="scale(1.0058652,0.994169)"
       x1="45.447727"
       y1="92.539597"
       x2="45.447727"
       y2="7.0165396"
       gradientUnits="userSpaceOnUse">
      <stop
         style="stop-color:#000000;stop-opacity:1;"
         offset="0"
         id="stop3750" />
      <stop
         style="stop-color:#000000;stop-opacity:0.58823532;"
         offset="1"
         id="stop3752" />
    </linearGradient>
    <linearGradient
       inkscape:collect="always"
       id="linearGradient3737">
      <stop
         style="stop-color:#ffffff;stop-opacity:1;"
         offset="0"
         id="stop3739" />
      <stop
         style="stop-color:#ffffff;stop-opacity:0;"
         offset="1"
         id="stop3741" />
    </linearGradient>
    <linearGradient
       id="linearGradient3700">
      <stop
         style="stop-color:#2d2d2d;stop-opacity:1;"
         offset="0"
         id="stop3702" />
      <stop
         style="stop-color:#6b6b6b;stop-opacity:1;"
         offset="1"
         id="stop3704" />
    </linearGradient>
    <inkscape:perspective
       sodipodi:type="inkscape:persp3d"
       inkscape:vp_x="0 : 526.18109 : 1"
       inkscape:vp_y="0 : 1000 : 0"
       inkscape:vp_z="744.09448 : 526.18109 : 1"
       inkscape:persp3d-origin="372.04724 : 350.78739 : 1"
       id="perspective2416" />
    <linearGradient
       inkscape:collect="always"
       xlink:href="#linearGradient3700"
       id="linearGradient3706"
       x1="48"
       y1="90"
       x2="48"
       y2="5.9877172"
       gradientUnits="userSpaceOnUse" />
    <linearGradient
       inkscape:collect="always"
       xlink:href="#linearGradient3737"
       id="linearGradient3743"
       x1="36.357143"
       y1="6"
       x2="36.357143"
       y2="63.893143"
       gradientUnits="userSpaceOnUse" />
    <filter
       inkscape:collect="always"
       id="filter3174">
      <feGaussianBlur
         inkscape:collect="always"
         stdDeviation="1.71"
         id="feGaussianBlur3176" />
    </filter>
    <filter
       inkscape:collect="always"
       id="filter3794"
       x="-0.192"
       width="1.384"
       y="-0.192"
       height="1.384">
      <feGaussianBlur
         inkscape:collect="always"
         stdDeviation="5.28"
         id="feGaussianBlur3796" />
    </filter>
    <clipPath
       clipPathUnits="userSpaceOnUse"
       id="clipPath3613">
      <rect
         ry="6"
         rx="6"
         y="6"
         x="6"
         height="84"
         width="84"
         id="rect3615"
         style="fill:#ffffff;fill-opacity:1;fill-rule:nonzero;stroke:none" />
    </clipPath>
    <linearGradient
       inkscape:collect="always"
       xlink:href="#linearGradient3700"
       id="linearGradient3617"
       gradientUnits="userSpaceOnUse"
       x1="48"
       y1="90"
       x2="48"
       y2="5.9877172" />
    <inkscape:perspective
       id="perspective2985"
       inkscape:persp3d-origin="0.5 : 0.33333333 : 1"
       inkscape:vp_z="1 : 0.5 : 1"
       inkscape:vp_y="0 : 1000 : 0"
       inkscape:vp_x="0 : 0.5 : 1"
       sodipodi:type="inkscape:persp3d" />
    <linearGradient
       inkscape:collect="always"
       xlink:href="#ButtonShadow-0"
       id="linearGradient3788"
       gradientUnits="userSpaceOnUse"
       gradientTransform="matrix(1.0238095,0,0,1.0119048,-1.1428571,-98.071429)"
       x1="32.251034"
       y1="6.1317081"
       x2="32.251034"
       y2="90.238609" />
    <linearGradient
       id="ButtonShadow-0"
       gradientTransform="matrix(1.0058652,0,0,0.994169,100,0)"
       x1="45.447727"
       y1="92.539597"
       x2="45.447727"
       y2="7.0165396"
       gradientUnits="userSpaceOnUse">
      <stop
         style="stop-color:#000000;stop-opacity:1;"
         offset="0"
         id="stop3750-8" />
      <stop
         style="stop-color:#000000;stop-opacity:0.58823532;"
         offset="1"
         id="stop3752-5" />
    </linearGradient>
    <linearGradient
       inkscape:collect="always"
       xlink:href="#ButtonShadow-0"
       id="linearGradient3780"
       gradientUnits="userSpaceOnUse"
       gradientTransform="matrix(1.0238095,0,0,1.0119048,-1.1428571,-98.071429)"
       x1="32.251034"
       y1="6.1317081"
       x2="32.251034"
       y2="90.238609" />
    <linearGradient
       id="linearGradient2994"
       gradientTransform="matrix(1.0058652,0,0,0.994169,100,0)"
       x1="45.447727"
       y1="92.539597"
       x2="45.447727"
       y2="7.0165396"
       gradientUnits="userSpaceOnUse">
      <stop
         style="stop-color:#000000;stop-opacity:1;"
         offset="0"
         id="stop2996" />
      <stop
         style="stop-color:#000000;stop-opacity:0.58823532;"
         offset="1"
         id="stop2998" />
    </linearGradient>
    <linearGradient
       inkscape:collect="always"
       xlink:href="#ButtonShadow-0"
       id="linearGradient3772"
       gradientUnits="userSpaceOnUse"
       gradientTransform="matrix(1.0238095,0,0,1.0119048,-1.1428571,-98.071429)"
       x1="32.251034"
       y1="6.1317081"
       x2="32.251034"
       y2="90.238609" />
    <linearGradient
       id="linearGradient3001"
       gradientTransform="matrix(1.0058652,0,0,0.994169,100,0)"
       x1="45.447727"
       y1="92.539597"
       x2="45.447727"
       y2="7.0165396"
       gradientUnits="userSpaceOnUse">
      <stop
         style="stop-color:#000000;stop-opacity:1;"
         offset="0"
         id="stop3003" />
      <stop
         style="stop-color:#000000;stop-opacity:0.58823532;"
         offset="1"
         id="stop3005" />
    </linearGradient>
    <linearGradient
       inkscape:collect="always"
       xlink:href="#ButtonShadow-0"
       id="linearGradient3725"
       gradientUnits="userSpaceOnUse"
       gradientTransform="matrix(1.0238095,0,0,1.0119048,-1.1428571,-98.071429)"
       x1="32.251034"
       y1="6.1317081"
       x2="32.251034"
       y2="90.238609" />
    <linearGradient
       id="linearGradient3008"
       gradientTransform="matrix(1.0058652,0,0,0.994169,100,0)"
       x1="45.447727"
       y1="92.539597"
       x2="45.447727"
       y2="7.0165396"
       gradientUnits="userSpaceOnUse">
      <stop
         style="stop-color:#000000;stop-opacity:1;"
         offset="0"
         id="stop3010" />
      <stop
         style="stop-color:#000000;stop-opacity:0.58823532;"
         offset="1"
         id="stop3012" />
    </linearGradient>
    <linearGradient
       inkscape:collect="always"
       xlink:href="#ButtonShadow-0"
       id="linearGradient3721"
       gradientUnits="userSpaceOnUse"
       gradientTransform="translate(0,-97)"
       x1="32.251034"
       y1="6.1317081"
       x2="32.251034"
       y2="90.238609" />
    <linearGradient
       id="linearGradient3015"
       gradientTransform="matrix(1.0058652,0,0,0.994169,100,0)"
       x1="45.447727"
       y1="92.539597"
       x2="45.447727"
       y2="7.0165396"
       gradientUnits="userSpaceOnUse">
      <stop
         style="stop-color:#000000;stop-opacity:1;"
         offset="0"
         id="stop3017" />
      <stop
         style="stop-color:#000000;stop-opacity:0.58823532;"
         offset="1"
         id="stop3019" />
    </linearGradient>
    <linearGradient
       y2="90.238609"
       x2="32.251034"
       y1="6.1317081"
       x1="32.251034"
       gradientTransform="matrix(1.0238095,0,0,1.0119048,-1.1428571,-98.071429)"
       gradientUnits="userSpaceOnUse"
       id="linearGradient3026"
       xlink:href="#ButtonShadow-0"
       inkscape:collect="always" />
    <inkscape:perspective
       id="perspective2899"
       inkscape:persp3d-origin="0.5 : 0.33333333 : 1"
       inkscape:vp_z="1 : 0.5 : 1"
       inkscape:vp_y="0 : 1000 : 0"
       inkscape:vp_x="0 : 0.5 : 1"
       sodipodi:type="inkscape:persp3d" />
    <radialGradient
       inkscape:collect="always"
       xlink:href="#linearGradient3716"
       id="radialGradient3722"
       cx="47.745693"
       cy="48.001015"
       fx="47.745693"
       fy="48.001015"
       r="16.254307"
       gradientUnits="userSpaceOnUse" />
    <radialGradient
       inkscape:collect="always"
       xlink:href="#linearGradient3753"
       id="radialGradient3759"
       cx="48"
       cy="47.876076"
       fx="48"
       fy="47.876076"
       r="26"
       gradientTransform="matrix(1,0,0,0.92307692,0,3.8066995)"
       gradientUnits="userSpaceOnUse" />
    <radialGradient
       inkscape:collect="always"
       xlink:href="#linearGradient3753"
       id="radialGradient3767"
       gradientUnits="userSpaceOnUse"
       gradientTransform="matrix(1,0,0,0.92307692,0,3.8066995)"
       cx="48"
       cy="47.876076"
       fx="48"
       fy="47.876076"
       r="26" />
    <radialGradient
       inkscape:collect="always"
       xlink:href="#linearGradient3779"
       id="radialGradient3789"
       gradientUnits="userSpaceOnUse"
       cx="47.745693"
       cy="48.001015"
       fx="47.745693"
       fy="48.001015"
       r="16.254307" />
    <radialGradient
       inkscape:collect="always"
       xlink:href="#linearGradient3802"
       id="radialGradient3808"
       cx="48"
       cy="13.639534"
       fx="48"
       fy="13.639534"
       r="27.25"
       gradientTransform="matrix(1.5168195,0,0,0.91009166,-24.807334,10.786774)"
       gradientUnits="userSpaceOnUse" />
    <inkscape:perspective
       id="perspective3824"
       inkscape:persp3d-origin="0.5 : 0.33333333 : 1"
       inkscape:vp_z="1 : 0.5 : 1"
       inkscape:vp_y="0 : 1000 : 0"
       inkscape:vp_x="0 : 0.5 : 1"
       sodipodi:type="inkscape:persp3d" />
    <radialGradient
       inkscape:collect="always"
       xlink:href="#linearGradient3779-8"
       id="radialGradient3789-7"
       gradientUnits="userSpaceOnUse"
       cx="47.745693"
       cy="48.001015"
       fx="47.745693"
       fy="48.001015"
       r="16.254307" />
    <linearGradient
       id="linearGradient3779-8">
      <stop
         style="stop-color:#000000;stop-opacity:0;"
         offset="0"
         id="stop3785-0" />
      <stop
         id="stop3814-6"
         offset="0.69999999"
         style="stop-color:#ca0000;stop-opacity:0;" />
      <stop
         id="stop3791-0"
         offset="0.80000001"
         style="stop-color:#6b0000;stop-opacity:0.12403101;" />
      <stop
         id="stop3787-3"
         offset="1"
         style="stop-color:#000000;stop-opacity:1" />
    </linearGradient>
    <linearGradient
       inkscape:collect="always"
       xlink:href="#linearGradient3860"
       id="linearGradient3866"
       x1="31.491386"
       y1="48.001015"
       x2="64"
       y2="48.001015"
       gradientUnits="userSpaceOnUse"
       gradientTransform="matrix(2.0302312,0,0,2.0302312,-142.9348,-49.453158)" />
    <linearGradient
       id="linearGradient4390"
       x1="48"
       x2="48"
       y1="88"
       y2="-40"
       gradientTransform="matrix(1,0,0,-1,0,92)"
       gradientUnits="userSpaceOnUse"
       xlink:href="#linearGradient3860" />
    <linearGradient
       id="linearGradient4429"
       x1="48"
       x2="112.12"
       y1="82"
       y2="82.455002"
       gradientUnits="userSpaceOnUse"
       spreadMethod="reflect"
       xlink:href="#linearGradient3860" />
    <linearGradient
       id="linearGradient3228"
       x1="90"
       x2="48"
       y1="88"
       y2="88"
       gradientUnits="userSpaceOnUse"
       spreadMethod="reflect">
      <stop
         id="stop3894"
         stop-opacity=".58824"
         offset="0" />
      <stop
         id="stop3896"
         stop-opacity=".47059"
         offset=".1178" />
      <stop
         id="stop3898"
         stop-opacity=".39216"
         offset=".2381" />
      <stop
         id="stop3900"
         stop-opacity=".31373"
         offset="1" />
    </linearGradient>
  </defs>
  <sodipodi:namedview
     id="base"
     pagecolor="#ffffff"
     bordercolor="#666666"
     borderopacity="1.0"
     inkscape:pageopacity="0.0"
     inkscape:pageshadow="2"
     inkscape:zoom="5.6335194"
     inkscape:cx="28.326664"
     inkscape:cy="49.834999"
     inkscape:document-units="px"
     inkscape:current-layer="layer1"
     showgrid="true"
     showborder="true"
     inkscape:showpageshadow="false"
     inkscape:window-width="1366"
     inkscape:window-height="743"
     inkscape:window-x="0"
     inkscape:window-y="25"
     inkscape:window-maximized="1">
    <inkscape:grid
       type="xygrid"
       id="grid3732"
       visible="true"
       enabled="true" />
  </sodipodi:namedview>
  <metadata
     id="metadata2413">
    <rdf:RDF>
      <cc:Work
         rdf:about="">
        <dc:format>image/svg+xml</dc:format>
        <dc:type
           rdf:resource="http://purl.org/dc/dcmitype/StillImage" />
        <dc:title />
      </cc:Work>
    </rdf:RDF>
  </metadata>
  <g
     inkscape:groupmode="layer"
     id="layer2"
     inkscape:label="Blur Shadow"
     style="display:none"
     sodipodi:insensitive="true">
    <rect
       style="opacity:0.9;fill:url(#ButtonShadow);fill-opacity:1;fill-rule:nonzero;stroke:none;filter:url(#filter3174)"
       id="rect3745"
       width="86"
       height="85"
       x="5"
       y="7"
       rx="6"
       ry="6" />
  </g>
  <g
     inkscape:groupmode="layer"
     id="layer3"
     inkscape:label="Shadow"
     sodipodi:insensitive="true">
    <path
       sodipodi:type="inkscape:offset"
       inkscape:radius="0.99097413"
       inkscape:original="M 12 -94.03125 C 7.028367 -94.03125 2.96875 -89.971633 2.96875 -85 L 2.96875 -14 C 2.96875 -9.0283671 7.0283671 -4.96875 12 -4.96875 L 84 -4.96875 C 88.971633 -4.96875 93.03125 -9.028367 93.03125 -14 L 93.03125 -85 C 93.03125 -89.971633 88.971633 -94.03125 84 -94.03125 L 12 -94.03125 z "
       style="opacity:0.07999998;fill:url(#linearGradient3026);fill-opacity:1;fill-rule:nonzero;stroke:none;display:inline"
       id="path3786"
       d="m 12,-95.03125 c -5.5110903,0 -10.03125,4.52016 -10.03125,10.03125 l 0,71 c 0,5.5110902 4.5201598,10.03125 10.03125,10.03125 l 72,0 c 5.51109,0 10.03125,-4.5201597 10.03125,-10.03125 l 0,-71 c 0,-5.51109 -4.52016,-10.03125 -10.03125,-10.03125 l -72,0 z"
       transform="scale(1,-1)" />
    <path
       sodipodi:type="inkscape:offset"
       inkscape:radius="1.0360184"
       inkscape:original="M 12 -93 C 7.5908667 -93 4 -89.409133 4 -85 L 4 -14 C 4 -9.5908667 7.5908667 -6 12 -6 L 84 -6 C 88.409133 -6 92 -9.5908667 92 -14 L 92 -85 C 92 -89.409133 88.409133 -93 84 -93 L 12 -93 z "
       style="opacity:0.1;fill:url(#linearGradient3780);fill-opacity:1;fill-rule:nonzero;stroke:none;display:inline"
       id="path3778"
       d="m 12,-94.03125 c -4.971633,0 -9.03125,4.059617 -9.03125,9.03125 l 0,71 c 0,4.9716329 4.0596171,9.03125 9.03125,9.03125 l 72,0 c 4.971633,0 9.03125,-4.059617 9.03125,-9.03125 l 0,-71 c 0,-4.971633 -4.059617,-9.03125 -9.03125,-9.03125 l -72,0 z"
       transform="scale(1,-1)" />
    <path
       sodipodi:type="inkscape:offset"
       inkscape:radius="0.98962283"
       inkscape:original="M 12 -92 C 8.122 -92 5 -88.878 5 -85 L 5 -14 C 5 -10.122 8.122 -7 12 -7 L 84 -7 C 87.878 -7 91 -10.122 91 -14 L 91 -85 C 91 -88.878 87.878 -92 84 -92 L 12 -92 z "
       style="opacity:0.2;fill:url(#linearGradient3772);fill-opacity:1;fill-rule:nonzero;stroke:none;display:inline"
       id="path3770"
       d="m 12,-93 c -4.4091333,0 -8,3.590867 -8,8 l 0,71 c 0,4.4091333 3.5908667,8 8,8 l 72,0 c 4.409133,0 8,-3.5908667 8,-8 l 0,-71 c 0,-4.409133 -3.590867,-8 -8,-8 l -72,0 z"
       transform="scale(1,-1)" />
    <rect
       style="opacity:0.3;fill:url(#linearGradient3725);fill-opacity:1;fill-rule:nonzero;stroke:none;display:inline"
       id="rect3723"
       width="86"
       height="85"
       x="5"
       y="-92"
       rx="7"
       ry="7"
       transform="scale(1,-1)" />
    <rect
       transform="scale(1,-1)"
       ry="6"
       rx="6"
       y="-91"
       x="6"
       height="84"
       width="84"
       id="rect3716"
       style="opacity:0.45;fill:url(#linearGradient3721);fill-opacity:1;fill-rule:nonzero;stroke:none;display:inline" />
  </g>
  <g
     inkscape:label="Button"
     inkscape:groupmode="layer"
     id="layer1">
    <rect
       style="fill:url(#linearGradient3617);fill-opacity:1;fill-rule:nonzero;stroke:none"
       id="rect2419"
       width="84"
       height="84"
       x="6"
       y="6"
       rx="6"
       ry="6" />
    <circle
       transform="rotate(-90)"
       id="path3777-0"
       style="color:#000000;display:inline;overflow:visible;visibility:visible;opacity:0.2;fill:url(#linearGradient3866);fill-opacity:1;fill-rule:nonzero;stroke:none;stroke-width:3.04534674;marker:none;enable-background:accumulate"
       cx="-46"
       cy="48"
       r="33" />
    <g
       id="g907">
      <path
         id="rect4377"
         d="M 12,86 C 8.676,86 6,83.324 6,80 V 12 C 6,8.676 8.676,6 12,6 h 72 c 3.324,0 6,2.676 6,6 v 68 c 0,3.324 -2.676,6 -6,6 z m 0,-0.96875 h 72 c 2.8049,0 5.0312,-2.2264 5.0312,-5.0312 v -68 c 0,-2.8049 -2.226,-5.0312 -5.031,-5.0312 h -72 c -2.8049,0 -5.0312,2.2263 -5.0312,5.0312 v 68 c 0,2.8049 2.2264,5.0312 5.0312,5.0312 z"
         style="opacity:0.3;fill:url(#linearGradient4390)"
         inkscape:connector-curvature="0" />
      <path
         id="rect4414"
         d="m 6,78 v 2 c 0,3.324 2.676,6 6,6 h 72 c 3.324,0 6,-2.676 6,-6 v -2 c 0,3.324 -2.676,6 -6,6 H 12 C 8.676,84 6,81.324 6,78 Z"
         style="opacity:0.1;fill:url(#linearGradient4429)"
         inkscape:connector-curvature="0" />
      <g
         id="layer4-3">
        <path
           style="fill:url(#linearGradient3228)"
           inkscape:connector-curvature="0"
           d="m 6,80 v 4 c 0,3.324 2.676,6 6,6 h 72 c 3.324,0 6,-2.676 6,-6 v -4 c 0,3.324 -2.676,6 -6,6 H 12 C 8.676,86 6,83.324 6,80 Z"
           id="path3888" />
        <path
           style="color:#000000;opacity:0.1"
           inkscape:connector-curvature="0"
           d="m 6,82 v 2 c 0,3.324 2.676,6 6,6 h 72 c 3.324,0 6,-2.676 6,-6 v -2 c 0,3.324 -2.676,6 -6,6 H 12 C 8.676,88 6,85.324 6,82 Z"
           id="rect4345" />
        <path
           style="color:#000000;opacity:0.15"
           inkscape:connector-curvature="0"
           d="m 6,83 v 1 c 0,3.324 2.676,6 6,6 h 72 c 3.324,0 6,-2.676 6,-6 v -1 c 0,3.324 -2.676,6 -6,6 H 12 C 8.676,89 6,86.324 6,83 Z"
           id="rect4336" />
      </g>
    </g>
  </g>
  <g
     inkscape:groupmode="layer"
     id="layer5"
     inkscape:label="Highlight"
     style="display:inline">
    <rect
       style="opacity:0.1;fill:#ff0000;fill-opacity:1;fill-rule:nonzero;stroke:#ffffff;stroke-width:0.5;stroke-linecap:round;stroke-linejoin:miter;stroke-miterlimit:4;stroke-dasharray:none;stroke-dashoffset:0;stroke-opacity:1;filter:url(#filter3794)"
       id="rect3171"
       width="66"
       height="66"
       x="15"
       y="15"
       rx="12"
       ry="12"
       clip-path="url(#clipPath3613)" />
  </g>
  <g
     inkscape:groupmode="layer"
     id="layer4"
     inkscape:label="Symbol"
     style="display:inline">
    <g
       id="g982"
       transform="translate(0,-1.999999)">
      <circle
         transform="matrix(1.9071868,0,0,1.9071868,-43.059956,-43.546902)"
         id="path3685"
         style="color:#000000;display:inline;overflow:visible;visibility:visible;fill:url(#radialGradient3722);fill-opacity:1;fill-rule:nonzero;stroke:none;stroke-width:1.5;marker:none;enable-background:accumulate"
         cx="47.745693"
         cy="48.001015"
         r="16.254307" />
      <path
         d="m 34.728516,23.478516 a 1.0936745,1.0936745 0 0 0 -0.01367,0.002 C 34.451317,23.519464 34.19651,23.613784 33.96875,23.751953 25.314959,28.75641 20,38.005695 20,48 a 1.0936745,1.0936745 0 0 0 0,0.0078 c 0.0067,1.04153 0.950658,1.985452 1.992188,1.992188 A 1.0936745,1.0936745 0 0 0 22,50 h 18 a 1.0936745,1.0936745 0 0 0 0.0078,0 c 0.483382,-0.0031 0.925678,-0.243356 1.283204,-0.566406 0.315708,1.449819 0.988257,2.73788 2.052734,3.703125 -0.417302,0.1645 -0.841886,0.362249 -1.068359,0.75 a 1.0936745,1.0936745 0 0 0 -0.0039,0.0059 L 33.28125,69.501953 c -0.538441,0.899818 -0.212992,2.207474 0.685547,2.748047 a 1.0936745,1.0936745 0 0 0 0.01758,0.0098 c 8.663159,5.001678 19.368091,5.001677 28.03125,0 a 1.0936745,1.0936745 0 0 0 0.01758,-0.0098 c 0.898539,-0.540573 1.223988,-1.848229 0.685547,-2.748047 L 53.728516,53.892578 a 1.0936745,1.0936745 0 0 0 -0.0098,-0.01953 c -0.228493,-0.379801 -0.634853,-0.590753 -1.048828,-0.744141 1.05844,-0.964054 1.724506,-2.250785 2.039062,-3.695312 0.357526,0.32305 0.799822,0.56328 1.283204,0.566406 A 1.0936745,1.0936745 0 0 0 56,50 h 18 a 1.0936745,1.0936745 0 0 0 0.0078,0 C 75.049342,49.993264 75.993264,49.049342 76,48.007812 A 1.0936745,1.0936745 0 0 0 76,48 C 76,38.008079 70.687243,28.761148 62.037109,23.755859 61.632617,23.50784 61.138397,23.407056 60.669922,23.482422 a 1.0936745,1.0936745 0 0 0 -0.02148,0.0039 c -0.567664,0.102875 -1.082085,0.464728 -1.373047,0.962891 a 1.0936745,1.0936745 0 0 0 -0.0039,0.0059 L 50.28125,40.064453 c -0.243396,0.406752 -0.258934,0.898262 -0.175781,1.363281 C 49.430067,41.209019 48.745573,41 48,41 c -0.745573,0 -1.430067,0.209019 -2.105469,0.427734 0.08315,-0.465019 0.06761,-0.956529 -0.175781,-1.363281 L 36.728516,24.455078 a 1.0936745,1.0936745 0 0 0 -0.0078,-0.01367 c -0.399505,-0.67143 -1.217952,-1.067687 -1.992187,-0.96289 z"
         id="path3775"
         style="color:#000000;display:inline;overflow:visible;visibility:visible;opacity:0.15;fill:#ffcb16;fill-opacity:1;fill-rule:nonzero;stroke:none;stroke-width:1.5;marker:none;enable-background:accumulate"
         inkscape:original="M 34.875 24.5625 A 0.91216834 0.91216834 0 0 0 34.53125 24.6875 C 26.205175 29.494561 21.09375 38.386704 21.09375 48 A 0.91216834 0.91216834 0 0 0 22 48.90625 L 40 48.90625 A 0.91216834 0.91216834 0 0 0 40.90625 48 C 40.90625 45.374969 42.351458 43.10389 44.46875 41.875 A 0.91216834 0.91216834 0 0 0 44.78125 40.625 L 35.78125 25 A 0.91216834 0.91216834 0 0 0 34.875 24.5625 z M 60.84375 24.5625 A 0.91216834 0.91216834 0 0 0 60.21875 25 L 51.21875 40.625 A 0.91216834 0.91216834 0 0 0 51.53125 41.875 C 53.648542 43.10389 55.09375 45.374969 55.09375 48 A 0.91216834 0.91216834 0 0 0 56 48.90625 L 74 48.90625 A 0.91216834 0.91216834 0 0 0 74.90625 48 C 74.90625 38.386704 69.794825 29.494561 61.46875 24.6875 A 0.91216834 0.91216834 0 0 0 60.84375 24.5625 z M 48 42.09375 C 44.745652 42.09375 42.09375 44.745652 42.09375 48 C 42.09375 51.254348 44.745652 53.90625 48 53.90625 C 51.254348 53.90625 53.90625 51.254348 53.90625 48 C 53.90625 44.745652 51.254348 42.09375 48 42.09375 z M 43.84375 54 A 0.91216834 0.91216834 0 0 0 43.21875 54.4375 L 34.21875 70.0625 A 0.91216834 0.91216834 0 0 0 34.53125 71.3125 C 42.856608 76.119149 53.143392 76.119148 61.46875 71.3125 A 0.91216834 0.91216834 0 0 0 61.78125 70.0625 L 52.78125 54.4375 A 0.91216834 0.91216834 0 0 0 51.53125 54.125 C 50.478995 54.735736 49.290906 55.09375 48 55.09375 C 46.709094 55.09375 45.521005 54.735736 44.46875 54.125 A 0.91216834 0.91216834 0 0 0 43.84375 54 z "
         inkscape:radius="1.0935651"
         sodipodi:type="inkscape:offset" />
      <path
         id="path3689"
         d="M 35,25.46875 C 26.955573,30.113202 22,38.711096 22,48 h 18 c 0,-2.956988 1.614327,-5.52159 4,-6.90625 z m 26,0 -9,15.625 C 54.385673,42.47841 56,45.043012 56,48 H 74 C 74,38.711096 69.044427,30.113202 61,25.46875 Z M 48,43 c -2.761425,0 -5,2.238575 -5,5 0,2.761425 2.238575,5 5,5 2.761425,0 5,-2.238575 5,-5 0,-2.761425 -2.238575,-5 -5,-5 z m -4,11.90625 -9,15.625 c 8.044427,4.644453 17.955573,4.644452 26,0 l -9,-15.625 C 50.821042,55.590525 49.461291,56 48,56 46.538709,56 45.178958,55.590525 44,54.90625 Z"
         style="color:#000000;display:inline;overflow:visible;visibility:visible;fill:url(#radialGradient3759);fill-opacity:1;fill-rule:nonzero;stroke:none;stroke-width:1.5;marker:none;enable-background:accumulate"
         inkscape:connector-curvature="0" />
      <circle
         style="color:#000000;display:inline;overflow:visible;visibility:visible;opacity:0.3;fill:#ff0000;fill-opacity:1;fill-rule:nonzero;stroke:none;stroke-width:1.5;marker:none;enable-background:accumulate"
         id="path3701"
         transform="matrix(1.8456648,0,0,1.8456648,-120.12254,-40.593781)"
         cx="47.745693"
         cy="48.001015"
         r="16.254307" />
      <circle
         transform="matrix(0.30761091,0,0,0.30761091,-46.687095,33.234366)"
         id="path3703"
         style="color:#000000;display:inline;overflow:visible;visibility:visible;opacity:0.3;fill:#ff0000;fill-opacity:1;fill-rule:nonzero;stroke:none;stroke-width:1.5;marker:none;enable-background:accumulate"
         cx="47.745693"
         cy="48.001015"
         r="16.254307" />
      <circle
         style="color:#000000;display:inline;overflow:visible;visibility:visible;opacity:0.3;fill:#ff0000;fill-opacity:1;fill-rule:nonzero;stroke:none;stroke-width:1.5;marker:none;enable-background:accumulate"
         id="path3705"
         transform="matrix(0.49217736,0,0,0.49217736,-55.499348,24.374989)"
         cx="47.745693"
         cy="48.001015"
         r="16.254307" />
      <path
         transform="matrix(0.7997879,-1.3852733,1.3852733,0.7997879,-136.68095,75.750207)"
         d="M 64,48.001015 A 16.254307,16.254307 0 0 1 55.872846,62.077658 L 47.745693,48.001015 Z"
         sodipodi:ry="16.254307"
         sodipodi:rx="16.254307"
         sodipodi:cy="48.001015"
         sodipodi:cx="47.745693"
         id="path3707"
         style="color:#000000;display:inline;overflow:visible;visibility:visible;opacity:0.3;fill:#00ffff;fill-opacity:1;fill-rule:nonzero;stroke:none;stroke-width:1.5;marker:none;enable-background:accumulate"
         sodipodi:type="arc"
         sodipodi:start="0"
         sodipodi:end="1.0471976"
         inkscape:transform-center-x="-13"
         inkscape:transform-center-y="-11.25833" />
      <path
         inkscape:transform-center-y="-11.258325"
         inkscape:transform-center-x="12.999997"
         sodipodi:end="1.0471976"
         sodipodi:start="0"
         sodipodi:type="arc"
         style="color:#000000;display:inline;overflow:visible;visibility:visible;opacity:0.3;fill:#00ffff;fill-opacity:1;fill-rule:nonzero;stroke:none;stroke-width:1.5;marker:none;enable-background:accumulate"
         id="path3709"
         sodipodi:cx="47.745693"
         sodipodi:cy="48.001015"
         sodipodi:rx="16.254307"
         sodipodi:ry="16.254307"
         d="M 64,48.001015 A 16.254307,16.254307 0 0 1 55.872846,62.077658 L 47.745693,48.001015 Z"
         transform="matrix(-1.5995758,1.0960591e-8,-1.0960591e-8,-1.5995758,44.37286,124.78127)" />
      <path
         transform="matrix(0.79978791,1.3852733,-1.3852733,0.79978791,-3.6919,-56.531461)"
         d="M 64,48.001015 A 16.254307,16.254307 0 0 1 55.872846,62.077658 L 47.745693,48.001015 Z"
         sodipodi:ry="16.254307"
         sodipodi:rx="16.254307"
         sodipodi:cy="48.001015"
         sodipodi:cx="47.745693"
         id="path3711"
         style="color:#000000;display:inline;overflow:visible;visibility:visible;opacity:0.3;fill:#00ffff;fill-opacity:1;fill-rule:nonzero;stroke:none;stroke-width:1.5;marker:none;enable-background:accumulate"
         sodipodi:type="arc"
         sodipodi:start="0"
         sodipodi:end="1.0471976"
         inkscape:transform-center-y="12.999997" />
      <path
         d="m 61.021484,24.556641 a 0.91216834,0.91216834 0 0 0 -0.8125,0.457031 l -9,15.625 a 0.91216834,0.91216834 0 0 0 0.333985,1.24414 C 53.660261,43.111702 55.087891,45.374969 55.087891,48 A 0.91216834,0.91216834 0 0 0 56,48.912109 H 74 A 0.91216834,0.91216834 0 0 0 74.912109,48 c 0,-9.613296 -5.130956,-18.513251 -13.457031,-23.320312 a 0.91216834,0.91216834 0 0 0 -0.433594,-0.123047 z m -26.068359,0.002 a 0.91216834,0.91216834 0 0 0 -0.408203,0.121094 C 26.218847,29.486749 21.087891,38.386704 21.087891,48 A 0.91216834,0.91216834 0 0 0 22,48.912109 H 40 A 0.91216834,0.91216834 0 0 0 40.912109,48 c 0,-2.625031 1.42763,-4.888298 3.544922,-6.117188 a 0.91216834,0.91216834 0 0 0 0.333985,-1.24414 l -9,-15.625 A 0.91216834,0.91216834 0 0 0 34.953125,24.558594 Z M 48,42.087891 c -3.254348,0 -5.912109,2.657761 -5.912109,5.912109 0,3.254348 2.657761,5.912109 5.912109,5.912109 3.254348,0 5.912109,-2.657761 5.912109,-5.912109 0,-3.254348 -2.657761,-5.912109 -5.912109,-5.912109 z m -3.976562,11.90625 a 0.91216834,0.91216834 0 0 0 -0.814454,0.457031 l -9,15.625 a 0.91216834,0.91216834 0 0 0 0.335938,1.24414 c 8.325358,4.806649 18.584798,4.806648 26.910156,0 a 0.91216834,0.91216834 0 0 0 0.335938,-1.24414 l -9,-15.625 A 0.91216834,0.91216834 0 0 0 51.542969,54.117188 C 50.490714,54.727923 49.290906,55.087891 48,55.087891 c -1.290906,0 -2.490714,-0.359968 -3.542969,-0.970703 a 0.91216834,0.91216834 0 0 0 -0.433593,-0.123047 z"
         id="path3769"
         style="color:#000000;display:inline;overflow:visible;visibility:visible;opacity:0.3;fill:#ffcb16;fill-opacity:1;fill-rule:nonzero;stroke:none;stroke-width:1.5;marker:none;enable-background:accumulate"
         inkscape:original="M 35 25.46875 C 26.955573 30.113202 22 38.711096 22 48 L 40 48 C 40 45.043012 41.614327 42.47841 44 41.09375 L 35 25.46875 z M 61 25.46875 L 52 41.09375 C 54.385673 42.47841 56 45.043012 56 48 L 74 48 C 74 38.711096 69.044427 30.113202 61 25.46875 z M 48 43 C 45.238575 43 43 45.238575 43 48 C 43 50.761425 45.238575 53 48 53 C 50.761425 53 53 50.761425 53 48 C 53 45.238575 50.761425 43 48 43 z M 44 54.90625 L 35 70.53125 C 43.044427 75.175703 52.955573 75.175702 61 70.53125 L 52 54.90625 C 50.821042 55.590525 49.461291 56 48 56 C 46.538709 56 45.178958 55.590525 44 54.90625 z "
         inkscape:radius="0.91207713"
         sodipodi:type="inkscape:offset" />
      <circle
         transform="matrix(1.9071868,0,0,1.9071868,-43.059956,-43.546902)"
         style="color:#000000;display:inline;overflow:visible;visibility:visible;fill:url(#radialGradient3789);fill-opacity:1;fill-rule:nonzero;stroke:none;stroke-width:1.5;marker:none;enable-background:accumulate"
         id="path3777"
         cx="47.745693"
         cy="48.001015"
         r="16.254307" />
      <path
         id="path3795"
         d="m 48,19.066667 c -13.669174,0 -25.131717,9.473383 -28.158331,22.216666 7.380101,-4.807928 17.281335,-7.75 28.158331,-7.75 10.876996,0 20.77823,2.942072 28.158332,7.75 C 73.131717,28.54005 61.669174,19.066667 48,19.066667 Z"
         style="color:#000000;display:inline;overflow:visible;visibility:visible;opacity:0.8;fill:url(#radialGradient3808);fill-opacity:1;fill-rule:nonzero;stroke:none;stroke-width:1.5;marker:none;enable-background:accumulate"
         inkscape:connector-curvature="0" />
    </g>
  </g>
</svg>
