<?xml version="1.0" encoding="UTF-8" standalone="no"?>
<svg
   xmlns:dc="http://purl.org/dc/elements/1.1/"
   xmlns:cc="http://creativecommons.org/ns#"
   xmlns:rdf="http://www.w3.org/1999/02/22-rdf-syntax-ns#"
   xmlns:svg="http://www.w3.org/2000/svg"
   xmlns="http://www.w3.org/2000/svg"
   xmlns:xlink="http://www.w3.org/1999/xlink"
   xmlns:sodipodi="http://sodipodi.sourceforge.net/DTD/sodipodi-0.dtd"
   xmlns:inkscape="http://www.inkscape.org/namespaces/inkscape"
   id="svg2408"
   height="96"
   width="96"
   version="1.0"
   sodipodi:docname="elegance-colors.svg"
   inkscape:version="0.92.2 5c3e80d, 2017-08-06">
  <sodipodi:namedview
     pagecolor="#ffffff"
     bordercolor="#666666"
     borderopacity="1"
     objecttolerance="10"
     gridtolerance="10"
     guidetolerance="10"
     inkscape:pageopacity="0"
     inkscape:pageshadow="2"
     inkscape:window-width="1366"
     inkscape:window-height="743"
     id="namedview190"
     showgrid="false"
     inkscape:zoom="2.4583333"
     inkscape:cx="-4.6779661"
     inkscape:cy="48"
     inkscape:window-x="0"
     inkscape:window-y="25"
     inkscape:window-maximized="1"
     inkscape:current-layer="svg2408" />
  <defs
     id="defs2410">
    <linearGradient
       id="linearGradient4643">
      <stop
         style="stop-color:#00a9ff;stop-opacity:1"
         offset="0"
         id="stop4639" />
      <stop
         style="stop-color:#00d6ff;stop-opacity:1"
         offset="1"
         id="stop4641" />
    </linearGradient>
    <linearGradient
       id="linearGradient4640">
      <stop
         id="stop4636"
         offset="0"
         style="stop-color:#ababab;stop-opacity:1" />
      <stop
         id="stop4638"
         offset="1"
         style="stop-color:#ffffff;stop-opacity:1" />
    </linearGradient>
    <linearGradient
       x1="45.447727"
       y1="92.539597"
       x2="45.447727"
       y2="7.0165396"
       id="linearGradient4750"
       gradientUnits="userSpaceOnUse"
       gradientTransform="scale(1.0058652,0.994169)">
      <stop
         id="stop4746"
         style="stop-color:#323232;stop-opacity:1"
         offset="0" />
      <stop
         id="stop4748"
         style="stop-color:#505050;stop-opacity:0.96862745"
         offset="1" />
    </linearGradient>
    <linearGradient
       id="linearGradient3805">
      <stop
         offset="0"
         style="stop-color:#d40000;stop-opacity:1"
         id="stop3807" />
      <stop
         offset="1"
         style="stop-color:#d40000;stop-opacity:0"
         id="stop3809" />
    </linearGradient>
    <linearGradient
       id="linearGradient3797">
      <stop
         offset="0"
         style="stop-color:#ff6600;stop-opacity:1"
         id="stop3799" />
      <stop
         offset="1"
         style="stop-color:#ff6600;stop-opacity:0"
         id="stop3801" />
    </linearGradient>
    <linearGradient
       id="linearGradient3789">
      <stop
         offset="0"
         style="stop-color:#ff992a;stop-opacity:1"
         id="stop3791" />
      <stop
         offset="1"
         style="stop-color:#ff992a;stop-opacity:0"
         id="stop3793" />
    </linearGradient>
    <linearGradient
       id="linearGradient3781">
      <stop
         offset="0"
         style="stop-color:#ffd42a;stop-opacity:1"
         id="stop3783" />
      <stop
         offset="1"
         style="stop-color:#ffd42a;stop-opacity:0"
         id="stop3785" />
    </linearGradient>
    <linearGradient
       id="linearGradient3773">
      <stop
         offset="0"
         style="stop-color:#aad400;stop-opacity:1"
         id="stop3775" />
      <stop
         offset="1"
         style="stop-color:#aad400;stop-opacity:0"
         id="stop3777" />
    </linearGradient>
    <linearGradient
       id="linearGradient3765">
      <stop
         offset="0"
         style="stop-color:#53df53;stop-opacity:1"
         id="stop3767" />
      <stop
         offset="1"
         style="stop-color:#53df53;stop-opacity:0"
         id="stop3769" />
    </linearGradient>
    <linearGradient
       id="linearGradient3757">
      <stop
         offset="0"
         style="stop-color:#70e4cd;stop-opacity:1"
         id="stop3759" />
      <stop
         offset="1"
         style="stop-color:#70e4cd;stop-opacity:0"
         id="stop3761" />
    </linearGradient>
    <linearGradient
       id="linearGradient3748">
      <stop
         offset="0"
         style="stop-color:#37abc8;stop-opacity:1"
         id="stop3751" />
      <stop
         offset="1"
         style="stop-color:#37abc8;stop-opacity:0"
         id="stop3753" />
    </linearGradient>
    <linearGradient
       id="linearGradient3740">
      <stop
         offset="0"
         style="stop-color:#5599ff;stop-opacity:1"
         id="stop3742" />
      <stop
         offset="1"
         style="stop-color:#5599ff;stop-opacity:0"
         id="stop3744" />
    </linearGradient>
    <linearGradient
       id="linearGradient3732">
      <stop
         offset="0"
         style="stop-color:#8d5fd3;stop-opacity:1"
         id="stop3734" />
      <stop
         offset="1"
         style="stop-color:#8d5fd3;stop-opacity:0"
         id="stop3736" />
    </linearGradient>
    <linearGradient
       id="linearGradient3724">
      <stop
         offset="0"
         style="stop-color:#d35fbc;stop-opacity:1"
         id="stop3726" />
      <stop
         offset="1"
         style="stop-color:#d35fbc;stop-opacity:0"
         id="stop3728" />
    </linearGradient>
    <linearGradient
       id="linearGradient3716">
      <stop
         offset="0"
         style="stop-color:#c83771;stop-opacity:1"
         id="stop3718" />
      <stop
         offset="1"
         style="stop-color:#c83771;stop-opacity:0"
         id="stop3720" />
    </linearGradient>
    <linearGradient
       id="linearGradient3668">
      <stop
         offset="0"
         style="stop-color:#000000;stop-opacity:1"
         id="stop3670" />
      <stop
         offset="1"
         style="stop-color:#000000;stop-opacity:0"
         id="stop3672" />
    </linearGradient>
    <linearGradient
       id="linearGradient3658">
      <stop
         offset="0"
         style="stop-color:#373795;stop-opacity:1"
         id="stop3660" />
      <stop
         offset="0.5"
         style="stop-color:#7343bc;stop-opacity:1"
         id="stop3662" />
      <stop
         offset="1"
         style="stop-color:#c83737;stop-opacity:1"
         id="stop3664" />
    </linearGradient>
    <linearGradient
       id="linearGradient3673">
      <stop
         offset="0"
         style="stop-color:#ffeeaa;stop-opacity:1"
         id="stop3675" />
      <stop
         offset="1"
         style="stop-color:#ffeeaa;stop-opacity:0"
         id="stop3677" />
    </linearGradient>
    <linearGradient
       id="linearGradient3663">
      <stop
         offset="0"
         style="stop-color:#f73c00;stop-opacity:1"
         id="stop3665" />
      <stop
         offset="0.71272212"
         style="stop-color:#b61100;stop-opacity:1"
         id="stop3669" />
      <stop
         offset="1"
         style="stop-color:#9c0000;stop-opacity:1"
         id="stop3667" />
    </linearGradient>
    <linearGradient
       id="linearGradient3630">
      <stop
         offset="0"
         style="stop-color:#dedede;stop-opacity:1"
         id="stop3632" />
      <stop
         offset="1"
         style="stop-color:#ffffff;stop-opacity:1"
         id="stop3634" />
    </linearGradient>
    <linearGradient
       id="linearGradient3655">
      <stop
         offset="0"
         style="stop-color:#f73c00;stop-opacity:1"
         id="stop3657" />
      <stop
         offset="1"
         style="stop-color:#9c0000;stop-opacity:1"
         id="stop3659" />
    </linearGradient>
    <linearGradient
       gradientTransform="scale(1.0058652,0.994169)"
       gradientUnits="userSpaceOnUse"
       id="ButtonShadow"
       y2="7.0165396"
       x2="45.447727"
       y1="92.539597"
       x1="45.447727">
      <stop
         offset="0"
         style="stop-color:#000000;stop-opacity:1"
         id="stop3750" />
      <stop
         offset="1"
         style="stop-color:#000000;stop-opacity:0.58823532"
         id="stop3752" />
    </linearGradient>
    <linearGradient
       id="linearGradient3737">
      <stop
         offset="0"
         style="stop-color:#ffffff;stop-opacity:1"
         id="stop3739" />
      <stop
         offset="1"
         style="stop-color:#ffffff;stop-opacity:0"
         id="stop3741" />
    </linearGradient>
    <linearGradient
       id="linearGradient3700">
      <stop
         offset="0"
         style="stop-color:#1f1f1f;stop-opacity:1"
         id="stop3702" />
      <stop
         offset="1"
         style="stop-color:#191919;stop-opacity:1"
         id="stop3704" />
    </linearGradient>
    <filter
       id="filter3174"
       color-interpolation-filters="sRGB">
      <feGaussianBlur
         stdDeviation="1.71"
         id="feGaussianBlur3176" />
    </filter>
    <linearGradient
       gradientUnits="userSpaceOnUse"
       xlink:href="#linearGradient3737"
       id="linearGradient3188"
       y2="63.893143"
       x2="36.357143"
       y1="6"
       x1="36.357143"
       gradientTransform="translate(-51.661017,15.050847)" />
    <filter
       id="filter3794"
       color-interpolation-filters="sRGB"
       height="1.3839999"
       width="1.3839999"
       y="-0.192"
       x="-0.192">
      <feGaussianBlur
         stdDeviation="5.28"
         id="feGaussianBlur3796" />
    </filter>
    <linearGradient
       gradientUnits="userSpaceOnUse"
       xlink:href="#linearGradient3737"
       id="linearGradient3613"
       y2="138.66119"
       x2="48"
       y1="20.220806"
       x1="48" />
    <radialGradient
       gradientTransform="matrix(1.1573129,0,0,0.99590774,-127.14424,-11.192699)"
       gradientUnits="userSpaceOnUse"
       xlink:href="#linearGradient3737"
       id="radialGradient3619"
       fy="90.171875"
       fx="48"
       r="42"
       cy="90.171875"
       cx="48" />
    <clipPath
       id="clipPath3613">
      <rect
         style="fill:#ffffff;fill-opacity:1;fill-rule:nonzero;stroke:none"
         id="rect3615"
         y="6"
         x="6"
         ry="6"
         rx="6"
         height="84"
         width="84" />
    </clipPath>
    <linearGradient
       gradientTransform="translate(0,-100)"
       gradientUnits="userSpaceOnUse"
       xlink:href="#linearGradient3658"
       id="linearGradient3617"
       y2="48.035713"
       x2="88.898651"
       y1="48.035713"
       x1="6.5714288" />
    <filter
       id="filter3680"
       color-interpolation-filters="sRGB">
      <feGaussianBlur
         stdDeviation="0.71783716"
         id="feGaussianBlur3682" />
    </filter>
    <radialGradient
       gradientTransform="matrix(1.4729191,0,0,1.2638196,-13.300848,-19.750136)"
       gradientUnits="userSpaceOnUse"
       xlink:href="#linearGradient3663"
       id="radialGradient3691"
       fy="74.094757"
       fx="28.125"
       r="12.053572"
       cy="74.094757"
       cx="28.125" />
    <linearGradient
       gradientUnits="userSpaceOnUse"
       xlink:href="#linearGradient3630"
       id="linearGradient3636"
       y2="76.053574"
       x2="55.939182"
       y1="22.032881"
       x1="55.939182" />
    <radialGradient
       gradientTransform="matrix(1.5148225,-8.9895646e-8,6.7407404e-8,1.1024691,-14.479387,-7.7949104)"
       gradientUnits="userSpaceOnUse"
       xlink:href="#linearGradient3655"
       id="radialGradient2871"
       fy="75.058144"
       fx="28.125"
       r="12.053572"
       cy="75.058144"
       cx="28.125" />
    <linearGradient
       gradientUnits="userSpaceOnUse"
       xlink:href="#linearGradient3737"
       id="linearGradient2873"
       y2="68.053574"
       x2="40.178574"
       y1="68.053574"
       x1="16.071428" />
    <linearGradient
       gradientUnits="userSpaceOnUse"
       xlink:href="#linearGradient3673"
       id="linearGradient3679"
       y2="68.053574"
       x2="40.178574"
       y1="68.053574"
       x1="16.071428" />
    <linearGradient
       gradientTransform="translate(100,0)"
       gradientUnits="userSpaceOnUse"
       xlink:href="#linearGradient3700"
       id="linearGradient2882"
       y2="5.9877172"
       x2="48"
       y1="90"
       x1="48" />
    <linearGradient
       gradientTransform="translate(4,0)"
       gradientUnits="userSpaceOnUse"
       xlink:href="#linearGradient3668"
       id="linearGradient3674"
       y2="48"
       x2="90"
       y1="48"
       x1="6" />
    <linearGradient
       gradientUnits="userSpaceOnUse"
       xlink:href="#linearGradient4750"
       id="linearGradient3680"
       y2="5.9877172"
       x2="48"
       y1="90"
       x1="48" />
    <clipPath
       id="clipPath2926">
      <rect
         style="fill:url(#linearGradient2930);fill-opacity:1;fill-rule:nonzero;stroke:none;display:inline"
         id="rect2928"
         y="6"
         x="6"
         ry="6"
         rx="6"
         height="84"
         width="84" />
    </clipPath>
    <linearGradient
       gradientUnits="userSpaceOnUse"
       xlink:href="#linearGradient3700"
       id="linearGradient2930"
       y2="5.9877172"
       x2="48"
       y1="90"
       x1="48" />
    <linearGradient
       gradientUnits="userSpaceOnUse"
       xlink:href="#linearGradient3716"
       id="linearGradient3839"
       y2="30.797007"
       x2="9.2829962"
       y1="54.56599"
       x1="9.2829962" />
    <linearGradient
       gradientUnits="userSpaceOnUse"
       xlink:href="#linearGradient3724"
       id="linearGradient3841"
       y2="40.421619"
       x2="16.535534"
       y1="62.394672"
       x1="16.535534" />
    <linearGradient
       gradientUnits="userSpaceOnUse"
       xlink:href="#linearGradient3732"
       id="linearGradient3843"
       y2="32.08049"
       x2="22.525381"
       y1="66.206116"
       x1="22.525381" />
    <linearGradient
       gradientUnits="userSpaceOnUse"
       xlink:href="#linearGradient3740"
       id="linearGradient3845"
       y2="23.20402"
       x2="29.77792"
       y1="54.060917"
       x1="29.77792" />
    <linearGradient
       gradientUnits="userSpaceOnUse"
       xlink:href="#linearGradient3748"
       id="linearGradient3847"
       y2="46.717045"
       x2="37.030457"
       y1="68.960663"
       x1="37.030457" />
    <linearGradient
       gradientUnits="userSpaceOnUse"
       xlink:href="#linearGradient3757"
       id="linearGradient3849"
       y2="37.391563"
       x2="44.282997"
       y1="64.162437"
       x1="44.282997" />
    <linearGradient
       gradientUnits="userSpaceOnUse"
       xlink:href="#linearGradient3765"
       id="linearGradient3851"
       y2="12.370317"
       x2="51.282997"
       y1="60.879444"
       x1="51.282997" />
    <linearGradient
       gradientUnits="userSpaceOnUse"
       xlink:href="#linearGradient3773"
       id="linearGradient3853"
       y2="27.464857"
       x2="57.525383"
       y1="65.677666"
       x1="57.525383" />
    <linearGradient
       gradientUnits="userSpaceOnUse"
       xlink:href="#linearGradient3781"
       id="linearGradient3855"
       y2="35.095482"
       x2="64.777916"
       y1="63.909901"
       x1="64.777916" />
    <linearGradient
       gradientUnits="userSpaceOnUse"
       xlink:href="#linearGradient3789"
       id="linearGradient3857"
       y2="18.954224"
       x2="72.788071"
       y1="60.12183"
       x1="72.788071" />
    <linearGradient
       gradientUnits="userSpaceOnUse"
       xlink:href="#linearGradient3797"
       id="linearGradient3859"
       y2="40.421116"
       x2="78.272842"
       y1="58.354065"
       x1="78.272842" />
    <linearGradient
       gradientUnits="userSpaceOnUse"
       xlink:href="#linearGradient3805"
       id="linearGradient3861"
       y2="34.361088"
       x2="85.525383"
       y1="60.879444"
       x1="85.525383" />
    <linearGradient
       gradientTransform="translate(0,36)"
       gradientUnits="userSpaceOnUse"
       xlink:href="#linearGradient3668"
       id="linearGradient3869"
       y2="39.200184"
       x2="48"
       y1="53.929901"
       x1="48" />
    <linearGradient
       gradientTransform="matrix(1.0058652,0,0,0.994169,100,0)"
       gradientUnits="userSpaceOnUse"
       id="ButtonShadow-0"
       y2="7.0165396"
       x2="45.447727"
       y1="92.539597"
       x1="45.447727">
      <stop
         offset="0"
         style="stop-color:#000000;stop-opacity:1"
         id="stop3750-8" />
      <stop
         offset="1"
         style="stop-color:#000000;stop-opacity:0.58823532"
         id="stop3752-5" />
    </linearGradient>
    <linearGradient
       gradientTransform="matrix(1.0238095,0,0,1.0119048,-1.1428571,-98.071429)"
       gradientUnits="userSpaceOnUse"
       xlink:href="#ButtonShadow-0"
       id="linearGradient3780"
       y2="90.238609"
       x2="32.251034"
       y1="6.1317081"
       x1="32.251034" />
    <linearGradient
       gradientTransform="matrix(1.0238095,0,0,1.0119048,-1.1428571,-98.071429)"
       gradientUnits="userSpaceOnUse"
       xlink:href="#ButtonShadow-0"
       id="linearGradient3772"
       y2="90.238609"
       x2="32.251034"
       y1="6.1317081"
       x1="32.251034" />
    <linearGradient
       gradientTransform="matrix(1.0238095,0,0,1.0119048,-1.1428571,-98.071429)"
       gradientUnits="userSpaceOnUse"
       xlink:href="#ButtonShadow-0"
       id="linearGradient3725"
       y2="90.238609"
       x2="32.251034"
       y1="6.1317081"
       x1="32.251034" />
    <linearGradient
       gradientTransform="translate(0,-97)"
       gradientUnits="userSpaceOnUse"
       xlink:href="#ButtonShadow-0"
       id="linearGradient3721"
       y2="90.238609"
       x2="32.251034"
       y1="6.1317081"
       x1="32.251034" />
    <linearGradient
       gradientTransform="matrix(1.0238095,0,0,1.0119048,-1.1428571,-98.071429)"
       gradientUnits="userSpaceOnUse"
       xlink:href="#ButtonShadow-0"
       id="linearGradient3020"
       y2="90.238609"
       x2="32.251034"
       y1="6.1317081"
       x1="32.251034" />
    <linearGradient
       gradientTransform="matrix(0.38119876,0,0,0.38119876,-0.20197716,38.061802)"
       gradientUnits="userSpaceOnUse"
       y2="-48.713184"
       x2="126.30591"
       y1="107.08343"
       x1="125.82489"
       id="linearGradient4642"
       xlink:href="#linearGradient4640" />
    <linearGradient
       xlink:href="#linearGradient4643"
       id="linearGradient4645"
       x1="13.307925"
       y1="59.909482"
       x2="52.55184"
       y2="59.909482"
       gradientUnits="userSpaceOnUse" />
    <linearGradient
       gradientTransform="matrix(0.76444973,0,0,0.76444973,37.538802,-18.031313)"
       xlink:href="#linearGradient4643"
       id="linearGradient4645-6"
       x1="13.307925"
       y1="59.909481"
       x2="52.551842"
       y2="59.909481"
       gradientUnits="userSpaceOnUse" />
    <linearGradient
       gradientUnits="userSpaceOnUse"
       xlink:href="#linearGradient4053-8"
       id="linearGradient4059-2"
       y2="60"
       x2="78"
       y1="48"
       x1="78" />
    <linearGradient
       id="linearGradient4053-8">
      <stop
         offset="0"
         style="stop-color:#ff0000;stop-opacity:1"
         id="stop4055-2" />
      <stop
         offset="1"
         style="stop-color:#ff006b;stop-opacity:1"
         id="stop4057-8" />
    </linearGradient>
    <linearGradient
       gradientUnits="userSpaceOnUse"
       xlink:href="#linearGradient4045-8"
       id="linearGradient4051-9"
       y2="45"
       x2="77"
       y1="34"
       x1="71" />
    <linearGradient
       id="linearGradient4045-8">
      <stop
         offset="0"
         style="stop-color:#ff8200;stop-opacity:1"
         id="stop4047-7" />
      <stop
         offset="1"
         style="stop-color:#ff4700;stop-opacity:1"
         id="stop4049-9" />
    </linearGradient>
    <linearGradient
       gradientUnits="userSpaceOnUse"
       xlink:href="#linearGradient4037-7"
       id="linearGradient4043-7"
       y2="31"
       x2="68"
       y1="25"
       x1="58" />
    <linearGradient
       id="linearGradient4037-7">
      <stop
         offset="0"
         style="stop-color:#ffd500;stop-opacity:1"
         id="stop4039-4" />
      <stop
         offset="1"
         style="stop-color:#ff9a00;stop-opacity:1"
         id="stop4041-5" />
    </linearGradient>
    <linearGradient
       gradientUnits="userSpaceOnUse"
       xlink:href="#linearGradient4029-7"
       id="linearGradient4035-4"
       y2="32"
       x2="54"
       y1="32"
       x1="42" />
    <linearGradient
       id="linearGradient4029-7">
      <stop
         offset="0"
         style="stop-color:#46cc00;stop-opacity:1"
         id="stop4031-8" />
      <stop
         offset="1"
         style="stop-color:#85cc00;stop-opacity:1"
         id="stop4033-7" />
    </linearGradient>
    <linearGradient
       gradientUnits="userSpaceOnUse"
       xlink:href="#linearGradient4021-8"
       id="linearGradient4027-3"
       y2="25.169048"
       x2="38.099506"
       y1="31"
       x1="28" />
    <linearGradient
       id="linearGradient4021-8">
      <stop
         offset="0"
         style="stop-color:#00b4b4;stop-opacity:1"
         id="stop4023-1" />
      <stop
         offset="1"
         style="stop-color:#00b464;stop-opacity:1"
         id="stop4025-7" />
    </linearGradient>
    <linearGradient
       gradientUnits="userSpaceOnUse"
       xlink:href="#linearGradient4013-8"
       id="linearGradient4019-7"
       y2="34"
       x2="25"
       y1="44"
       x1="19" />
    <linearGradient
       id="linearGradient4013-8">
      <stop
         offset="0"
         style="stop-color:#004bcc;stop-opacity:1"
         id="stop4015-9" />
      <stop
         offset="1"
         style="stop-color:#0e67ff;stop-opacity:1"
         id="stop4017-7" />
    </linearGradient>
    <linearGradient
       gradientUnits="userSpaceOnUse"
       xlink:href="#linearGradient4005-1"
       id="linearGradient4121-7"
       y2="47.958405"
       x2="18"
       y1="60"
       x1="18" />
    <linearGradient
       id="linearGradient4005-1">
      <stop
         offset="0"
         style="stop-color:#661c99;stop-opacity:1"
         id="stop4007-6" />
      <stop
         offset="1"
         style="stop-color:#5e12ac;stop-opacity:1"
         id="stop4009-0" />
    </linearGradient>
    <linearGradient
       gradientUnits="userSpaceOnUse"
       xlink:href="#linearGradient4053-8"
       id="linearGradient4059-2-3"
       y2="60"
       x2="78"
       y1="48"
       x1="78" />
    <linearGradient
       gradientUnits="userSpaceOnUse"
       xlink:href="#linearGradient4045-8"
       id="linearGradient4051-9-5"
       y2="45"
       x2="77"
       y1="34"
       x1="71" />
    <linearGradient
       gradientUnits="userSpaceOnUse"
       xlink:href="#linearGradient4037-7"
       id="linearGradient4043-7-6"
       y2="31"
       x2="68"
       y1="25"
       x1="58" />
    <linearGradient
       gradientUnits="userSpaceOnUse"
       xlink:href="#linearGradient4029-7"
       id="linearGradient4035-4-1"
       y2="32"
       x2="54"
       y1="32"
       x1="42" />
    <linearGradient
       gradientUnits="userSpaceOnUse"
       xlink:href="#linearGradient4021-8"
       id="linearGradient4027-3-0"
       y2="25.169048"
       x2="38.099506"
       y1="31"
       x1="28" />
    <linearGradient
       gradientUnits="userSpaceOnUse"
       xlink:href="#linearGradient4013-8"
       id="linearGradient4019-7-6"
       y2="34"
       x2="25"
       y1="44"
       x1="19" />
    <linearGradient
       gradientUnits="userSpaceOnUse"
       xlink:href="#linearGradient4005-1"
       id="linearGradient4121-7-2"
       y2="47.958405"
       x2="18"
       y1="60"
       x1="18" />
    <linearGradient
       gradientUnits="userSpaceOnUse"
       xlink:href="#linearGradient4053-8"
       id="linearGradient4059-2-2"
       y2="60"
       x2="78"
       y1="48"
       x1="78" />
    <linearGradient
       gradientUnits="userSpaceOnUse"
       xlink:href="#linearGradient4045-8"
       id="linearGradient4051-9-7"
       y2="45"
       x2="77"
       y1="34"
       x1="71" />
    <linearGradient
       gradientUnits="userSpaceOnUse"
       xlink:href="#linearGradient4037-7"
       id="linearGradient4043-7-1"
       y2="31"
       x2="68"
       y1="25"
       x1="58" />
    <linearGradient
       gradientUnits="userSpaceOnUse"
       xlink:href="#linearGradient4029-7"
       id="linearGradient4035-4-3"
       y2="32"
       x2="54"
       y1="32"
       x1="42" />
    <linearGradient
       gradientUnits="userSpaceOnUse"
       xlink:href="#linearGradient4021-8"
       id="linearGradient4027-3-4"
       y2="25.169048"
       x2="38.099506"
       y1="31"
       x1="28" />
    <linearGradient
       gradientUnits="userSpaceOnUse"
       xlink:href="#linearGradient4013-8"
       id="linearGradient4019-7-4"
       y2="34"
       x2="25"
       y1="44"
       x1="19" />
    <linearGradient
       gradientUnits="userSpaceOnUse"
       xlink:href="#linearGradient4005-1"
       id="linearGradient4121-7-3"
       y2="47.958405"
       x2="18"
       y1="60"
       x1="18" />
    <filter
       style="color-interpolation-filters:sRGB"
       id="filter4818"
       x="-0.14155"
       width="1.2831"
       y="-0.24265714"
       height="1.4853142">
      <feGaussianBlur
         stdDeviation="4.7838151"
         id="feGaussianBlur4820" />
    </filter>
    <linearGradient
       id="linearGradient4390"
       x1="48"
       x2="48"
       y1="88"
       y2="-40"
       gradientTransform="matrix(1,0,0,-1,0,92)"
       gradientUnits="userSpaceOnUse"
       xlink:href="#linearGradient3737" />
    <linearGradient
       id="linearGradient4429"
       x1="48"
       x2="112.12"
       y1="82"
       y2="82.455002"
       gradientUnits="userSpaceOnUse"
       spreadMethod="reflect"
       xlink:href="#linearGradient3737" />
    <linearGradient
       id="linearGradient3228"
       x1="90"
       x2="48"
       y1="88"
       y2="88"
       gradientUnits="userSpaceOnUse"
       spreadMethod="reflect">
      <stop
         id="stop3894"
         stop-opacity=".58824"
         offset="0" />
      <stop
         id="stop3896"
         stop-opacity=".47059"
         offset=".1178" />
      <stop
         id="stop3898"
         stop-opacity=".39216"
         offset=".2381" />
      <stop
         id="stop3900"
         stop-opacity=".31373"
         offset="1" />
    </linearGradient>
  </defs>
  <metadata
     id="metadata2413">
    <rdf:RDF>
      <cc:Work
         rdf:about="">
        <dc:format>image/svg+xml</dc:format>
        <dc:type
           rdf:resource="http://purl.org/dc/dcmitype/StillImage" />
        <dc:title />
      </cc:Work>
    </rdf:RDF>
  </metadata>
  <g
     style="display:none"
     id="layer2">
    <rect
       style="opacity:0.9;fill:url(#ButtonShadow);fill-opacity:1;fill-rule:nonzero;stroke:none;filter:url(#filter3174)"
       id="rect3745"
       y="7"
       x="5"
       ry="6"
       rx="6"
       height="85"
       width="86" />
  </g>
  <g
     transform="translate(0,-1)"
     style="display:inline"
     id="layer4">
    <path
       style="display:inline;opacity:0.07999998;fill:url(#linearGradient3020);fill-opacity:1;fill-rule:nonzero;stroke:none"
       id="path3786"
       transform="scale(1,-1)"
       d="m 12,-95.03125 c -5.5110903,0 -10.03125,4.52016 -10.03125,10.03125 v 71 c 0,5.5110902 4.5201598,10.03125 10.03125,10.03125 h 72 c 5.51109,0 10.03125,-4.5201597 10.03125,-10.03125 v -71 c 0,-5.51109 -4.52016,-10.03125 -10.03125,-10.03125 z" />
    <path
       style="display:inline;opacity:0.1;fill:url(#linearGradient3780);fill-opacity:1;fill-rule:nonzero;stroke:none"
       id="path3778"
       transform="scale(1,-1)"
       d="m 12,-94.03125 c -4.971633,0 -9.03125,4.059617 -9.03125,9.03125 v 71 c 0,4.9716329 4.0596171,9.03125 9.03125,9.03125 h 72 c 4.971633,0 9.03125,-4.059617 9.03125,-9.03125 v -71 c 0,-4.971633 -4.059617,-9.03125 -9.03125,-9.03125 z" />
    <path
       style="display:inline;opacity:0.2;fill:url(#linearGradient3772);fill-opacity:1;fill-rule:nonzero;stroke:none"
       id="path3770"
       transform="scale(1,-1)"
       d="m 12,-93 c -4.4091333,0 -8,3.590867 -8,8 v 71 c 0,4.4091333 3.5908667,8 8,8 h 72 c 4.409133,0 8,-3.5908667 8,-8 v -71 c 0,-4.409133 -3.590867,-8 -8,-8 z" />
    <rect
       style="display:inline;opacity:0.3;fill:url(#linearGradient3725);fill-opacity:1;fill-rule:nonzero;stroke:none"
       id="rect3723"
       transform="scale(1,-1)"
       y="-92"
       x="5"
       ry="7"
       rx="7"
       height="85"
       width="86" />
    <rect
       style="display:inline;opacity:0.45;fill:url(#linearGradient3721);fill-opacity:1;fill-rule:nonzero;stroke:none"
       id="rect3716"
       transform="scale(1,-1)"
       y="-91"
       x="6"
       ry="6"
       rx="6"
       height="84"
       width="84" />
  </g>
  <rect
     width="84"
     height="84"
     rx="6"
     ry="6"
     x="6"
     y="6"
     id="rect3677"
     style="fill:url(#linearGradient3680);fill-opacity:1;fill-rule:nonzero;stroke:none" />
  <g
     id="g1054"
     transform="translate(0,-2.0002301)">
    <path
       inkscape:connector-curvature="0"
       id="path4675"
       d="M 27.335346,68.467908 C 19.010473,66.176386 12.912576,56.379544 14.32151,47.559967 c 1.111649,-6.958644 5.643496,-13.865831 12.081609,-18.414112 3.774245,-2.666361 5.817848,-3.284806 10.854382,-3.284806 3.96097,0 4.512694,0.100414 6.982591,1.270838 3.587378,1.699971 5.425924,3.398636 6.924607,6.397761 2.780787,5.56485 0.976031,10.188435 -6.056336,15.515669 -2.380276,1.803131 -10.612467,6.3551 -10.913757,6.034735 -0.0711,-0.0756 1.064298,-1.612007 2.523096,-3.414244 5.269535,-6.51012 6.32713,-10.438213 4.135682,-15.360657 -2.615673,-5.875341 -8.51753,-7.303045 -14.150882,-3.423207 -4.250744,2.9276 -5.919705,5.913069 -5.890148,10.536413 0.03497,5.470528 2.70537,11.085971 7.636988,16.059427 4.888603,4.930075 8.663386,6.314658 13.434365,4.9277 2.581063,-0.75033 7.222622,-4.225011 9.79377,-7.331628 2.047362,-2.473741 6.59935,-5.841083 9.249752,-6.842523 5.881323,-2.222224 12.248655,0.324711 10.738938,4.295575 -0.708623,1.863819 -2.109827,2.354043 -7.701013,2.694273 -6.302313,0.383503 -8.719329,1.175474 -13.515833,4.42866 -7.375822,5.002582 -9.823515,6.220202 -14.155548,7.041755 -2.733109,0.51832 -6.614907,0.421397 -8.958427,-0.223688 z"
       style="fill:#ffffff;fill-opacity:1;stroke-width:0.40959933" />
    <path
       inkscape:connector-curvature="0"
       id="path4688"
       d="m 32.504105,75.199441 c -2.900912,-0.440234 -4.531462,-1.168879 -7.329039,-3.275105 -1.971939,-1.484634 -4.542628,-4.20755 -3.972313,-4.20755 0.09323,0 1.08916,0.618874 2.213168,1.375269 3.361262,2.261966 9.232783,3.601294 12.836401,2.928071 2.639658,-0.493143 5.070323,-1.678524 11.251607,-5.48714 7.900779,-4.868096 10.119643,-5.82351 14.698135,-6.328814 6.322622,-0.697799 9.886254,0.381562 12.048774,3.649354 1.323766,2.000348 1.37788,4.552417 0.147108,6.937915 -1.064565,2.063352 -2.708569,3.12241 -5.355083,3.449708 -2.336901,0.289013 -3.765057,-0.16543 -5.609613,-1.78497 -2.64756,-2.32459 -4.32586,-2.28506 -13.166195,0.310085 -7.605855,2.232752 -13.638429,3.0591 -17.76295,2.433177 z"
       style="fill:#0069ff;fill-opacity:1;stroke-width:0.39473224" />
    <path
       inkscape:connector-curvature="0"
       id="path4701"
       d="m 73.703309,59.166829 c -0.941359,-0.941359 -0.820154,-1.728567 0.530523,-3.445681 2.309766,-2.936384 6.817752,-3.611128 7.757883,-1.161178 0.528186,1.376438 -0.6712,3.968202 -2.147677,4.640933 -1.794832,0.817775 -5.30838,0.798279 -6.140729,-0.03407 z"
       style="fill:#008600;fill-opacity:1;stroke-width:0.54812372" />
    <path
       inkscape:connector-curvature="0"
       id="path4714"
       d="m 53.036607,44.023136 c 0.07539,-0.214228 0.824534,-1.786004 1.664754,-3.492831 2.688763,-5.461974 2.173629,-7.511438 -3.459559,-13.763895 -2.397237,-2.660769 -2.988498,-3.580646 -3.332497,-5.184656 -0.288876,-1.346984 -0.293874,-2.182281 -0.01617,-2.701189 1.192343,-2.227914 6.312129,-2.611668 8.040211,-0.602655 1.053962,1.225305 1.120821,1.964827 0.345415,3.820633 -0.544495,1.303162 -0.506593,1.464645 1.194316,5.088498 3.165433,6.744073 2.803485,9.55405 -1.854594,14.398083 -1.49543,1.555129 -2.657277,2.65223 -2.581883,2.438012 z"
       style="fill:#ff3d3a;fill-opacity:1;stroke-width:0.38950127" />
    <path
       inkscape:connector-curvature="0"
       id="path4727"
       d="m 59.719283,39.198223 c 2.507279,-5.215049 3.255902,-7.004406 3.499099,-8.363545 0.352843,-1.971829 2.1166,-6.067626 3.063402,-7.113829 0.922885,-1.01978 1.968511,-0.947695 3.337796,0.230109 1.592832,1.370103 1.163113,2.651703 -1.713018,5.108854 -2.275142,1.943719 -2.313976,2.014837 -2.070486,3.791314 0.238756,1.741947 0.178398,1.866231 -1.595607,3.285326 -2.549947,2.039793 -4.744278,3.525816 -4.521186,3.061771 z"
       style="fill:#ff5b00;fill-opacity:1;stroke-width:0.42249686" />
  </g>
  <g
     style="display:none"
     id="layer5">
    <rect
       style="opacity:0.1;fill:url(#linearGradient3613);fill-opacity:1;fill-rule:nonzero;stroke:#ffffff;stroke-width:0.5;stroke-linecap:round;stroke-linejoin:miter;stroke-miterlimit:4;stroke-opacity:1;stroke-dasharray:none;stroke-dashoffset:0;filter:url(#filter3794)"
       id="rect3171"
       clip-path="url(#clipPath3613)"
       y="15"
       x="15"
       ry="12"
       rx="12"
       height="66"
       width="66" />
  </g>
  <g
     id="g907">
    <path
       id="rect4377"
       d="M 12,86 C 8.676,86 6,83.324 6,80 V 12 C 6,8.676 8.676,6 12,6 h 72 c 3.324,0 6,2.676 6,6 v 68 c 0,3.324 -2.676,6 -6,6 z m 0,-0.96875 h 72 c 2.8049,0 5.0312,-2.2264 5.0312,-5.0312 v -68 c 0,-2.8049 -2.226,-5.0312 -5.031,-5.0312 h -72 c -2.8049,0 -5.0312,2.2263 -5.0312,5.0312 v 68 c 0,2.8049 2.2264,5.0312 5.0312,5.0312 z"
       style="opacity:0.3;fill:url(#linearGradient4390)"
       inkscape:connector-curvature="0" />
    <path
       id="rect4414"
       d="m 6,78 v 2 c 0,3.324 2.676,6 6,6 h 72 c 3.324,0 6,-2.676 6,-6 v -2 c 0,3.324 -2.676,6 -6,6 H 12 C 8.676,84 6,81.324 6,78 Z"
       style="opacity:0.1;fill:url(#linearGradient4429)"
       inkscape:connector-curvature="0" />
    <g
       id="layer4-3">
      <path
         style="fill:url(#linearGradient3228)"
         inkscape:connector-curvature="0"
         d="m 6,80 v 4 c 0,3.324 2.676,6 6,6 h 72 c 3.324,0 6,-2.676 6,-6 v -4 c 0,3.324 -2.676,6 -6,6 H 12 C 8.676,86 6,83.324 6,80 Z"
         id="path3888" />
      <path
         style="color:#000000;opacity:0.1"
         inkscape:connector-curvature="0"
         d="m 6,82 v 2 c 0,3.324 2.676,6 6,6 h 72 c 3.324,0 6,-2.676 6,-6 v -2 c 0,3.324 -2.676,6 -6,6 H 12 C 8.676,88 6,85.324 6,82 Z"
         id="rect4345" />
      <path
         style="color:#000000;opacity:0.15"
         inkscape:connector-curvature="0"
         d="m 6,83 v 1 c 0,3.324 2.676,6 6,6 h 72 c 3.324,0 6,-2.676 6,-6 v -1 c 0,3.324 -2.676,6 -6,6 H 12 C 8.676,89 6,86.324 6,83 Z"
         id="rect4336" />
    </g>
  </g>
</svg>
