<?xml version="1.0" encoding="UTF-8" standalone="no"?>
<svg
   xmlns:dc="http://purl.org/dc/elements/1.1/"
   xmlns:cc="http://creativecommons.org/ns#"
   xmlns:rdf="http://www.w3.org/1999/02/22-rdf-syntax-ns#"
   xmlns:svg="http://www.w3.org/2000/svg"
   xmlns="http://www.w3.org/2000/svg"
   xmlns:xlink="http://www.w3.org/1999/xlink"
   xmlns:sodipodi="http://sodipodi.sourceforge.net/DTD/sodipodi-0.dtd"
   xmlns:inkscape="http://www.inkscape.org/namespaces/inkscape"
   width="96"
   height="96"
   version="1.0"
   id="svg125"
   sodipodi:docname="gnupg.svg"
   inkscape:version="0.92.2 5c3e80d, 2017-08-06">
  <metadata
     id="metadata129">
    <rdf:RDF>
      <cc:Work
         rdf:about="">
        <dc:format>image/svg+xml</dc:format>
        <dc:type
           rdf:resource="http://purl.org/dc/dcmitype/StillImage" />
      </cc:Work>
    </rdf:RDF>
  </metadata>
  <sodipodi:namedview
     pagecolor="#ffffff"
     bordercolor="#666666"
     borderopacity="1"
     objecttolerance="10"
     gridtolerance="10"
     guidetolerance="10"
     inkscape:pageopacity="0"
     inkscape:pageshadow="2"
     inkscape:window-width="640"
     inkscape:window-height="480"
     id="namedview127"
     showgrid="false"
     inkscape:zoom="2.4583333"
     inkscape:cx="48"
     inkscape:cy="48"
     inkscape:window-x="0"
     inkscape:window-y="25"
     inkscape:window-maximized="0"
     inkscape:current-layer="svg125" />
  <defs
     id="defs49">
    <linearGradient
       id="linearGradient4384">
      <stop
         stop-color="#fff"
         offset="0"
         id="stop2" />
      <stop
         stop-color="#fff"
         stop-opacity="0"
         offset="1"
         id="stop4" />
    </linearGradient>
    <linearGradient
       id="ButtonShadow"
       x1="45.448"
       x2="45.448"
       y1="92.54"
       y2="7.0165"
       gradientTransform="scale(1.0059 .99417)"
       gradientUnits="userSpaceOnUse">
      <stop
         offset="0"
         id="stop7" />
      <stop
         stop-opacity=".58824"
         offset="1"
         id="stop9" />
    </linearGradient>
    <filter
       id="filter3174">
      <feGaussianBlur
         stdDeviation="1.71"
         id="feGaussianBlur12" />
    </filter>
    <filter
       id="filter3794"
       x="-.192"
       y="-.192"
       width="1.384"
       height="1.384">
      <feGaussianBlur
         stdDeviation="5.28"
         id="feGaussianBlur15" />
    </filter>
    <linearGradient
       id="linearGradient3613"
       x1="48"
       x2="48"
       y1="20.221"
       y2="138.66"
       gradientUnits="userSpaceOnUse">
      <stop
         stop-color="#fff"
         offset="0"
         id="stop18" />
      <stop
         stop-color="#fff"
         stop-opacity="0"
         offset="1"
         id="stop20" />
    </linearGradient>
    <linearGradient
       id="linearGradient3617"
       x1="48"
       x2="48"
       y1="90"
       y2="5.9877"
       gradientUnits="userSpaceOnUse">
      <stop
         stop-color="#1fa8b7"
         offset="0"
         id="stop23" />
      <stop
         stop-color="#2ad4e6"
         offset="1"
         id="stop25" />
    </linearGradient>
    <linearGradient
       id="ButtonShadow-0"
       x1="45.448"
       x2="45.448"
       y1="92.54"
       y2="7.0165"
       gradientTransform="matrix(1.0059 0 0 .99417 100 0)"
       gradientUnits="userSpaceOnUse">
      <stop
         offset="0"
         id="stop28" />
      <stop
         stop-opacity=".58824"
         offset="1"
         id="stop30" />
    </linearGradient>
    <linearGradient
       id="linearGradient3780"
       x1="32.251"
       x2="32.251"
       y1="6.1317"
       y2="90.239"
       gradientTransform="matrix(1.0238 0 0 1.0119 -1.1429 -98.071)"
       gradientUnits="userSpaceOnUse"
       xlink:href="#ButtonShadow-0" />
    <linearGradient
       id="linearGradient3721"
       x1="32.251"
       x2="32.251"
       y1="6.1317"
       y2="90.239"
       gradientTransform="translate(0,-97)"
       gradientUnits="userSpaceOnUse"
       xlink:href="#ButtonShadow-0" />
    <clipPath
       id="clipPath4355">
      <rect
         x="6"
         y="6"
         width="84"
         height="80"
         rx="6"
         ry="6"
         fill="#fff"
         id="rect35" />
    </clipPath>
    <linearGradient
       id="linearGradient4390"
       x1="48"
       x2="48"
       y1="88"
       y2="-40"
       gradientTransform="matrix(1,0,0,-1,0,92)"
       gradientUnits="userSpaceOnUse"
       xlink:href="#linearGradient4384" />
    <linearGradient
       id="linearGradient4429"
       x1="48"
       x2="112.12"
       y1="82"
       y2="82.455"
       gradientUnits="userSpaceOnUse"
       spreadMethod="reflect"
       xlink:href="#linearGradient4384" />
    <linearGradient
       id="linearGradient3870"
       x1="8"
       x2="50"
       y1="1033.4"
       y2="1033.4"
       gradientTransform="translate(-2 -956.36)"
       gradientUnits="userSpaceOnUse"
       spreadMethod="reflect">
      <stop
         stop-color="#523823"
         offset="0"
         id="stop40" />
      <stop
         stop-color="#79563a"
         offset=".1178"
         id="stop42" />
      <stop
         stop-color="#875c38"
         offset=".2381"
         id="stop44" />
      <stop
         stop-color="#a66e40"
         offset="1"
         id="stop46" />
    </linearGradient>
  </defs>
  <g
     display="none"
     id="g53">
    <rect
       x="5"
       y="7"
       width="86"
       height="85"
       rx="6"
       ry="6"
       fill="url(#ButtonShadow)"
       filter="url(#filter3174)"
       opacity=".9"
       id="rect51" />
  </g>
  <g
     id="g67">
    <g
       fill="url(#linearGradient3780)"
       id="g63">
      <path
         transform="scale(1,-1)"
         d="m12-95.031c-5.5111 0-10.031 4.5202-10.031 10.031v71c0 5.5111 4.5202 10.031 10.031 10.031h72c5.5111 0 10.031-4.5202 10.031-10.031v-71c0-5.5111-4.5202-10.031-10.031-10.031h-72z"
         opacity=".08"
         id="path55" />
      <path
         transform="scale(1,-1)"
         d="m12-94.031c-4.9716 0-9.0312 4.0596-9.0312 9.0312v71c0 4.9716 4.0596 9.0312 9.0312 9.0312h72c4.9716 0 9.0312-4.0596 9.0312-9.0312v-71c0-4.9716-4.0596-9.0312-9.0312-9.0312h-72z"
         opacity=".1"
         id="path57" />
      <path
         transform="scale(1,-1)"
         d="m12-93c-4.4091 0-8 3.5909-8 8v71c0 4.4091 3.5909 8 8 8h72c4.4091 0 8-3.5909 8-8v-71c0-4.4091-3.5909-8-8-8h-72z"
         opacity=".2"
         id="path59" />
      <rect
         transform="scale(1,-1)"
         x="5"
         y="-92"
         width="86"
         height="85"
         rx="7"
         ry="7"
         opacity=".3"
         id="rect61" />
    </g>
    <rect
       transform="scale(1,-1)"
       x="6"
       y="-91"
       width="84"
       height="84"
       rx="6"
       ry="6"
       fill="url(#linearGradient3721)"
       opacity=".45"
       id="rect65" />
  </g>
  <g
     id="g79">
    <rect
       x="6"
       y="64"
       width="84"
       height="26"
       rx="6"
       ry="6"
       color="#000000"
       fill="url(#linearGradient3870)"
       id="rect69" />
    <g
       id="g77">
      <path
         d="m6 82v2c0 3.324 2.676 6 6 6h72c3.324 0 6-2.676 6-6v-2c0 3.324-2.676 6-6 6h-72c-3.324 0-6-2.676-6-6z"
         color="#000000"
         opacity=".1"
         id="path71" />
      <path
         d="m6 83v1c0 3.324 2.676 6 6 6h72c3.324 0 6-2.676 6-6v-1c0 3.324-2.676 6-6 6h-72c-3.324 0-6-2.676-6-6z"
         color="#000000"
         opacity=".1"
         id="path73" />
      <path
         d="m6 80v1c0 3.324 2.676 6 6 6h72c3.324 0 6-2.676 6-6v-1c0 3.324-2.676 6-6 6h-72c-3.324 0-6-2.676-6-6z"
         opacity=".2"
         id="path75" />
    </g>
  </g>
  <g
     id="g87">
    <rect
       x="6"
       y="6"
       width="84"
       height="80"
       rx="6"
       ry="6"
       fill="url(#linearGradient3617)"
       id="rect81" />
    <path
       d="m12 86c-3.324 0-6-2.676-6-6v-68c0-3.324 2.676-6 6-6h72c3.324 0 6 2.676 6 6v68c0 3.324-2.676 6-6 6zm0-0.96875h72c2.8049 0 5.0312-2.2264 5.0312-5.0312v-68c0-2.8049-2.2264-5.0312-5.0312-5.0312h-72c-2.8049 0-5.0312 2.2264-5.0312 5.0312v68c0 2.8049 2.2264 5.0312 5.0312 5.0312z"
       fill="url(#linearGradient4390)"
       opacity=".3"
       id="path83" />
    <path
       d="m6 78v2c0 3.324 2.676 6 6 6h72c3.324 0 6-2.676 6-6v-2c0 3.324-2.676 6-6 6h-72c-3.324 0-6-2.676-6-6z"
       fill="url(#linearGradient4429)"
       opacity=".1"
       id="path85" />
  </g>
  <g
     id="g91">
    <rect
       x="15"
       y="15"
       width="66"
       height="62"
       rx="12"
       ry="12"
       clip-path="url(#clipPath4355)"
       fill="url(#linearGradient3613)"
       filter="url(#filter3794)"
       opacity=".1"
       stroke="#fff"
       stroke-linecap="round"
       stroke-width=".5"
       id="rect89" />
  </g>
  <defs
     id="defs101">
    <filter
       id="w">
      <feGaussianBlur
         stdDeviation="0.23199685"
         id="feGaussianBlur93" />
    </filter>
    <linearGradient
       id="a"
       gradientUnits="userSpaceOnUse"
       x1="8"
       y1="1"
       x2="8"
       y2="15.00006">
      <stop
         stop-color="#fafafa"
         offset="0"
         id="stop96" />
      <stop
         stop-color="#ebebeb"
         offset="1"
         id="stop98" />
    </linearGradient>
  </defs>
  <g
     transform="translate(0,-2)"
     id="g123">
    <path
       style="opacity:0.15;fill:#000000"
       d="M 7.90625,0.75 C 6.3369643,0.75 5.248658,1.4396008 4.5839844,2.34375 3.9193107,3.2478992 3.6582031,4.3500167 3.6582031,5.2324219 V 7.7402344 H 3 a 0.250025,0.250025 0 0 0 -0.25,0.25 v 3.1269536 a 0.250025,0.250025 0 0 0 0.4472656,0.154296 c 0,0 1.4661273,-1.8990491 4.5722656,-1.9238278 C 9.8704776,9.3286918 12.197266,8.2167969 12.197266,8.2167969 A 0.250025,0.250025 0 0 0 12.341797,7.9902344 V 4.9648438 c 0,-0.6550089 -0.246578,-1.6783979 -0.925781,-2.5742188 C 10.736813,1.4948041 9.6021007,0.75 7.90625,0.75 Z m 0.1367188,2.375 c 0.8305152,0 1.2939166,0.392429 1.5898437,0.8359375 0.1479636,0.2217543 0.2479682,0.4557229 0.3085937,0.6523437 0.060626,0.1966209 0.081844,0.3680432 0.082032,0.4003907 l 0.01172,2.7460937 H 5.9765625 V 5.0136719 c 0,-0.150437 0.1125991,-0.6742106 0.4277344,-1.0996094 C 6.7194321,3.4886637 7.2108355,3.125 8.0429688,3.125 Z m 4.9492192,5.1914062 a 0.250025,0.250025 0 0 0 -0.164063,0.066406 C 10.64694,10.427766 8.9872101,10.82072 8.2597656,10.890625 a 0.250025,0.250025 0 0 0 -0.00195,0 c -0.1440057,0.0053 -0.2865606,0.0098 -0.4355469,0.0098 a 0.250025,0.250025 0 0 0 -0.029297,0.498047 c 0,0 0.2002091,0.01022 0.46875,-0.0098 a 0.250025,0.250025 0 0 0 0.033203,0.002 c 0.00515,-2e-4 0.00853,-0.0017 0.013672,-0.002 a 0.250025,0.250025 0 0 0 0.025391,-0.0039 c 1.7811286,-0.07601 2.9243796,-0.474768 3.7070316,-0.839844 -2.0461819,2.269776 -5.6054691,2.158203 -5.6054691,2.158203 a 0.250025,0.250025 0 0 0 -0.0625,0.494141 c 1.7035025,0.366486 3.1037515,0.241467 4.0781251,0.04101 -0.5647842,0.365543 -1.0781099,0.640411 -1.4628908,0.777344 -0.6305375,0.224391 -0.9609374,0.216797 -0.9609374,0.216797 a 0.250025,0.250025 0 0 0 -0.00195,0 c -1.2236343,0 -2.5155151,-0.18939 -3.7226562,0.554687 A 0.250025,0.250025 0 0 0 4.4355469,15.25 H 13 A 0.250025,0.250025 0 0 0 13.25,15 V 8.5664062 a 0.250025,0.250025 0 0 0 -0.257812,-0.25 z"
       id="path103"
       inkscape:original="m7.9066 1c-2.9957 0-3.9975 2.568-3.9975 4.2325v2.7584h-0.90909v3.1267s1.5575-1.9951 4.7666-2.0207c2.0126-0.018167 4.3244-1.106 4.3244-1.106v-3.0257c0-1.1776-0.93561-3.9652-4.1843-3.9652zm0.076364 0.45016c0.59135-0.0038 1.1845 0.12683 1.7742 0.36326 0 0-1.8408-0.53817-3.3786 0.40414-1.1246 0.6891-1.8846 2.2023-1.8846 2.2023s0.56967-1.9318 1.7317-2.5338c0.57973-0.29546 1.1659-0.43238 1.7572-0.43591zm0.059454 1.4258c1.8261 0 2.2284 1.8086 2.2303 2.1369l0.015 2.9962h-4.5605v-2.9962c0-0.47558 0.49852-2.1369 2.3152-2.1369zm4.9576 5.6897c-2.2159 2.0775-3.9341 2.4996-4.7156 2.5747 2.9845-0.11621 4.618-1.3168 4.618-1.3168-1.9075 3.323-6.4771 3.1286-6.4771 3.1286 3.1678 0.68151 5.3353-0.36326 5.3353-0.36326-2.1877 1.9071-3.7351 1.8935-3.7351 1.8935-1.2469 0-2.4686-0.17406-3.5908 0.51766h8.5654zm-4.7156 2.5747c-0.15199 0.0057-0.30367 0.0095-0.46265 0.0095 0 0 0.16468 0.01959 0.46265-0.0095z"
       transform="matrix(4,0,0,4,16,17)"
       inkscape:radius="0.25"
       sodipodi:type="inkscape:offset" />
    <g
       id="Bevel1">
      <path
         fill="#000"
         opacity=".10"
         sodipodi:type="inkscape:offset"
         inkscape:radius="0.5"
         transform="translate(16,17) scale(4)"
         inkscape:original="m7.9066 1c-2.9957 0-3.9975 2.568-3.9975 4.2325v2.7584h-0.90909v3.1267s1.5575-1.9951 4.7666-2.0207c2.0126-0.018167 4.3244-1.106 4.3244-1.106v-3.0257c0-1.1776-0.93561-3.9652-4.1843-3.9652zm0.076364 0.45016c0.59135-0.0038 1.1845 0.12683 1.7742 0.36326 0 0-1.8408-0.53817-3.3786 0.40414-1.1246 0.6891-1.8846 2.2023-1.8846 2.2023s0.56967-1.9318 1.7317-2.5338c0.57973-0.29546 1.1659-0.43238 1.7572-0.43591zm0.059454 1.4258c1.8261 0 2.2284 1.8086 2.2303 2.1369l0.015 2.9962h-4.5605v-2.9962c0-0.47558 0.49852-2.1369 2.3152-2.1369zm4.9576 5.6897c-2.2159 2.0775-3.9341 2.4996-4.7156 2.5747 2.9845-0.11621 4.618-1.3168 4.618-1.3168-1.9075 3.323-6.4771 3.1286-6.4771 3.1286 3.1678 0.68151 5.3353-0.36326 5.3353-0.36326-2.1877 1.9071-3.7351 1.8935-3.7351 1.8935-1.2469 0-2.4686-0.17406-3.5908 0.51766h8.5654zm-4.7156 2.5747c-0.15199 0.0057-0.30367 0.0095-0.46265 0.0095 0 0 0.16468 0.01959 0.46265-0.0095z"
         id="path106" />
    </g>
    <g
       id="Bevel2">
      <path
         fill="#000"
         opacity=".05"
         sodipodi:type="inkscape:offset"
         inkscape:radius="0.75"
         transform="translate(16,17) scale(4)"
         inkscape:original="m7.9066 1c-2.9957 0-3.9975 2.568-3.9975 4.2325v2.7584h-0.90909v3.1267s1.5575-1.9951 4.7666-2.0207c2.0126-0.018167 4.3244-1.106 4.3244-1.106v-3.0257c0-1.1776-0.93561-3.9652-4.1843-3.9652zm0.076364 0.45016c0.59135-0.0038 1.1845 0.12683 1.7742 0.36326 0 0-1.8408-0.53817-3.3786 0.40414-1.1246 0.6891-1.8846 2.2023-1.8846 2.2023s0.56967-1.9318 1.7317-2.5338c0.57973-0.29546 1.1659-0.43238 1.7572-0.43591zm0.059454 1.4258c1.8261 0 2.2284 1.8086 2.2303 2.1369l0.015 2.9962h-4.5605v-2.9962c0-0.47558 0.49852-2.1369 2.3152-2.1369zm4.9576 5.6897c-2.2159 2.0775-3.9341 2.4996-4.7156 2.5747 2.9845-0.11621 4.618-1.3168 4.618-1.3168-1.9075 3.323-6.4771 3.1286-6.4771 3.1286 3.1678 0.68151 5.3353-0.36326 5.3353-0.36326-2.1877 1.9071-3.7351 1.8935-3.7351 1.8935-1.2469 0-2.4686-0.17406-3.5908 0.51766h8.5654zm-4.7156 2.5747c-0.15199 0.0057-0.30367 0.0095-0.46265 0.0095 0 0 0.16468 0.01959 0.46265-0.0095z"
         id="path109" />
    </g>
    <path
       d="m7.9066 1c-2.9957 0-3.9975 2.568-3.9975 4.2325v2.7584h-0.90909v3.1267s1.5575-1.9951 4.7666-2.0207c2.0126-0.018167 4.3244-1.106 4.3244-1.106v-3.0257c0-1.1776-0.93561-3.9652-4.1843-3.9652zm0.076364 0.45016c0.59135-0.0038 1.1845 0.12683 1.7742 0.36326 0 0-1.8408-0.53817-3.3786 0.40414-1.1246 0.6891-1.8846 2.2023-1.8846 2.2023s0.56967-1.9318 1.7317-2.5338c0.57973-0.29546 1.1659-0.43238 1.7572-0.43591zm0.059454 1.4258c1.8261 0 2.2284 1.8086 2.2303 2.1369l0.015 2.9962h-4.5605v-2.9962c0-0.47558 0.49852-2.1369 2.3152-2.1369zm4.9576 5.6897c-2.2159 2.0775-3.9341 2.4996-4.7156 2.5747 2.9845-0.11621 4.618-1.3168 4.618-1.3168-1.9075 3.323-6.4771 3.1286-6.4771 3.1286 3.1678 0.68151 5.3353-0.36326 5.3353-0.36326-2.1877 1.9071-3.7351 1.8935-3.7351 1.8935-1.2469 0-2.4686-0.17406-3.5908 0.51766h8.5654zm-4.7156 2.5747c-0.15199 0.0057-0.30367 0.0095-0.46265 0.0095 0 0 0.16468 0.01959 0.46265-0.0095z"
       fill="url(#a)"
       id="base"
       transform="translate(16,16) scale(4)" />
    <path
       style="opacity:0.3;fill:#000000;stroke-width:4"
       d="M 47.931641 19.800781 C 45.566441 19.814901 43.221264 20.363082 40.902344 21.544922 C 36.254224 23.952922 33.976562 31.679688 33.976562 31.679688 C 33.976562 31.679688 34.400992 30.838053 35.162109 29.642578 C 36.274816 27.200148 38.167016 23.961983 40.902344 22.544922 C 43.056541 21.447033 45.233278 20.902366 47.427734 20.818359 C 51.577882 20.245647 55.029297 21.253906 55.029297 21.253906 C 52.670497 20.308186 50.297041 19.785581 47.931641 19.800781 z M 48.169922 25.503906 C 40.903202 25.503906 38.908203 32.148461 38.908203 34.050781 L 38.908203 35.050781 C 38.908203 33.148461 40.903202 26.503906 48.169922 26.503906 C 55.474322 26.503906 57.084197 33.737581 57.091797 35.050781 L 57.144531 46.037109 L 57.150391 46.037109 L 57.091797 34.050781 C 57.084197 32.737581 55.474322 25.503906 48.169922 25.503906 z M 64.363281 45.962891 C 64.363281 45.962891 55.116806 50.314049 47.066406 50.386719 C 34.230006 50.489119 28 58.470703 28 58.470703 L 28 59.470703 C 28 59.470703 34.230006 51.489119 47.066406 51.386719 C 55.116806 51.314049 64.363281 46.962891 64.363281 46.962891 L 64.363281 45.962891 z M 67.609375 53.294922 C 67.609375 53.294922 63.318461 56.444743 55.341797 57.888672 C 52.641641 59.019791 50.520602 59.427559 49.136719 59.560547 C 58.284558 59.20435 64.226412 56.31805 66.519531 54.980469 C 66.899704 54.442211 67.269013 53.887856 67.609375 53.294922 z M 49.136719 59.560547 C 48.528759 59.583347 47.923029 59.599609 47.287109 59.599609 C 47.287109 59.599609 47.944839 59.676907 49.136719 59.560547 z M 63.042969 64.355469 C 63.042969 64.355469 56.492416 67.505333 46.464844 66.544922 C 43.623972 66.883425 41.701172 66.808594 41.701172 66.808594 C 50.617511 68.726825 57.473555 67.233716 60.800781 66.175781 C 61.528914 65.618067 62.27267 65.026967 63.042969 64.355469 z M 35.742188 74 C 35.066739 74.270134 34.397503 74.593658 33.738281 75 L 68 75 L 68 74 L 35.742188 74 z "
       transform="translate(0,2)"
       id="path113" />
    <path
       style="fill:#ffffff;stroke-width:4"
       d="M 47.626953 18 C 35.644153 18 31.636719 28.271688 31.636719 34.929688 L 31.636719 35.929688 C 31.636719 29.271688 35.644153 19 47.626953 19 C 60.621713 19 64.363281 30.150928 64.363281 34.861328 L 64.363281 33.861328 C 64.363281 29.150928 60.621713 18 47.626953 18 z M 47.931641 20.800781 C 47.76363 20.801784 47.595536 20.811936 47.427734 20.818359 C 45.515326 21.082268 43.454043 21.682102 41.513672 22.871094 C 38.690028 24.601285 36.445356 27.627004 35.162109 29.642578 C 34.384003 31.35055 33.976562 32.679688 33.976562 32.679688 C 33.976562 32.679688 37.015272 26.627494 41.513672 23.871094 C 47.664872 20.101854 55.029297 22.253906 55.029297 22.253906 C 52.670497 21.308186 50.297041 20.785581 47.931641 20.800781 z M 28 45.962891 L 28 46.962891 L 31.636719 46.962891 L 31.636719 45.962891 L 28 45.962891 z M 38.908203 46.037109 L 38.908203 47.037109 L 57.150391 47.037109 L 57.144531 46.037109 L 38.908203 46.037109 z M 68 48.261719 C 59.1364 56.571719 52.262719 58.260147 49.136719 58.560547 C 51.402873 58.472308 53.47283 58.226991 55.341797 57.888672 C 58.740917 56.46475 63.060325 53.892873 68 49.261719 L 68 48.261719 z M 49.136719 58.560547 C 48.528759 58.583347 47.923029 58.599609 47.287109 58.599609 C 47.287109 58.599609 47.944839 58.676907 49.136719 58.560547 z M 67.609375 54.294922 C 67.609375 54.294922 67.21895 54.572496 66.519531 54.980469 C 58.37725 66.508511 41.701172 65.808594 41.701172 65.808594 C 43.363101 66.166136 44.951109 66.399941 46.464844 66.544922 C 52.416025 65.835811 62.444766 63.292036 67.609375 54.294922 z M 63.042969 65.355469 C 63.042969 65.355469 62.201948 65.730262 60.800781 66.175781 C 53.257134 71.953845 48.101563 71.929688 48.101562 71.929688 C 43.113962 71.929688 38.227081 71.23312 33.738281 74 L 35.742188 74 C 39.666029 72.430729 43.846438 72.929688 48.101562 72.929688 C 48.101563 72.929688 54.292169 72.983869 63.042969 65.355469 z "
       transform="translate(0,2)"
       id="path118" />
  </g>
</svg>
