<?xml version="1.0" encoding="UTF-8" standalone="no"?>
<!-- Created with Inkscape (http://www.inkscape.org/) -->

<svg
   xmlns:dc="http://purl.org/dc/elements/1.1/"
   xmlns:cc="http://creativecommons.org/ns#"
   xmlns:rdf="http://www.w3.org/1999/02/22-rdf-syntax-ns#"
   xmlns:svg="http://www.w3.org/2000/svg"
   xmlns="http://www.w3.org/2000/svg"
   xmlns:xlink="http://www.w3.org/1999/xlink"
   xmlns:sodipodi="http://sodipodi.sourceforge.net/DTD/sodipodi-0.dtd"
   xmlns:inkscape="http://www.inkscape.org/namespaces/inkscape"
   width="96"
   height="96"
   id="svg2408"
   sodipodi:version="0.32"
   inkscape:version="0.48.2 r9819"
   version="1.0"
   sodipodi:docname="ibus.svg"
   inkscape:output_extension="org.inkscape.output.svg.inkscape">
  <defs
     id="defs2410">
    <linearGradient
       inkscape:collect="always"
       id="linearGradient4052">
      <stop
         style="stop-color:#d7d7f4;stop-opacity:1;"
         offset="0"
         id="stop4054" />
      <stop
         style="stop-color:#d7d7f4;stop-opacity:0;"
         offset="1"
         id="stop4056" />
    </linearGradient>
    <linearGradient
       id="linearGradient4384">
      <stop
         style="stop-color:#ffffff;stop-opacity:1;"
         offset="0"
         id="stop4386" />
      <stop
         style="stop-color:#ffffff;stop-opacity:0;"
         offset="1"
         id="stop4388" />
    </linearGradient>
    <linearGradient
       id="linearGradient4367">
      <stop
         style="stop-color:#ffffff;stop-opacity:0.71755725;"
         offset="0"
         id="stop4369" />
      <stop
         style="stop-color:#ffffff;stop-opacity:1;"
         offset="1"
         id="stop4371" />
    </linearGradient>
    <inkscape:perspective
       sodipodi:type="inkscape:persp3d"
       inkscape:vp_x="0 : 48 : 1"
       inkscape:vp_y="0 : 1000 : 0"
       inkscape:vp_z="96 : 48 : 1"
       inkscape:persp3d-origin="48 : 32 : 1"
       id="perspective48" />
    <linearGradient
       id="ButtonShadow"
       gradientTransform="scale(1.0058652,0.994169)"
       x1="45.447727"
       y1="92.539597"
       x2="45.447727"
       y2="7.0165396"
       gradientUnits="userSpaceOnUse">
      <stop
         style="stop-color:#000000;stop-opacity:1;"
         offset="0"
         id="stop3750" />
      <stop
         style="stop-color:#000000;stop-opacity:0.58823532;"
         offset="1"
         id="stop3752" />
    </linearGradient>
    <linearGradient
       inkscape:collect="always"
       id="linearGradient3737">
      <stop
         style="stop-color:#ffffff;stop-opacity:1;"
         offset="0"
         id="stop3739" />
      <stop
         style="stop-color:#ffffff;stop-opacity:0;"
         offset="1"
         id="stop3741" />
    </linearGradient>
    <linearGradient
       id="linearGradient3700">
      <stop
         style="stop-color:#2276c5;stop-opacity:1;"
         offset="0"
         id="stop3702" />
      <stop
         style="stop-color:#68baf4;stop-opacity:1;"
         offset="1"
         id="stop3704" />
    </linearGradient>
    <filter
       inkscape:collect="always"
       id="filter3174">
      <feGaussianBlur
         inkscape:collect="always"
         stdDeviation="1.71"
         id="feGaussianBlur3176" />
    </filter>
    <linearGradient
       inkscape:collect="always"
       xlink:href="#linearGradient3737"
       id="linearGradient3188"
       gradientUnits="userSpaceOnUse"
       x1="36.357143"
       y1="6"
       x2="36.357143"
       y2="63.893143" />
    <filter
       inkscape:collect="always"
       id="filter3794"
       x="-0.192"
       width="1.384"
       y="-0.192"
       height="1.384">
      <feGaussianBlur
         inkscape:collect="always"
         stdDeviation="5.28"
         id="feGaussianBlur3796" />
    </filter>
    <linearGradient
       inkscape:collect="always"
       xlink:href="#linearGradient3737"
       id="linearGradient3613"
       x1="48"
       y1="20.220806"
       x2="48"
       y2="138.66119"
       gradientUnits="userSpaceOnUse" />
    <linearGradient
       id="ButtonShadow-0"
       gradientTransform="matrix(1.0058652,0,0,0.994169,100,0)"
       x1="45.447727"
       y1="92.539597"
       x2="45.447727"
       y2="7.0165396"
       gradientUnits="userSpaceOnUse">
      <stop
         style="stop-color:#000000;stop-opacity:1;"
         offset="0"
         id="stop3750-8" />
      <stop
         style="stop-color:#000000;stop-opacity:0.58823532;"
         offset="1"
         id="stop3752-5" />
    </linearGradient>
    <linearGradient
       inkscape:collect="always"
       xlink:href="#ButtonShadow-0"
       id="linearGradient3780"
       gradientUnits="userSpaceOnUse"
       gradientTransform="matrix(1.0238095,0,0,1.0119048,-1.1428571,-98.071429)"
       x1="32.251034"
       y1="6.1317081"
       x2="32.251034"
       y2="90.238609" />
    <linearGradient
       inkscape:collect="always"
       xlink:href="#ButtonShadow-0"
       id="linearGradient3772"
       gradientUnits="userSpaceOnUse"
       gradientTransform="matrix(1.0238095,0,0,1.0119048,-1.1428571,-98.071429)"
       x1="32.251034"
       y1="6.1317081"
       x2="32.251034"
       y2="90.238609" />
    <linearGradient
       inkscape:collect="always"
       xlink:href="#ButtonShadow-0"
       id="linearGradient3725"
       gradientUnits="userSpaceOnUse"
       gradientTransform="matrix(1.0238095,0,0,1.0119048,-1.1428571,-98.071429)"
       x1="32.251034"
       y1="6.1317081"
       x2="32.251034"
       y2="90.238609" />
    <linearGradient
       inkscape:collect="always"
       xlink:href="#ButtonShadow-0"
       id="linearGradient3721"
       gradientUnits="userSpaceOnUse"
       gradientTransform="translate(0,-97)"
       x1="32.251034"
       y1="6.1317081"
       x2="32.251034"
       y2="90.238609" />
    <linearGradient
       y2="90.238609"
       x2="32.251034"
       y1="6.1317081"
       x1="32.251034"
       gradientTransform="matrix(1.0238095,0,0,1.0119048,-1.1428571,-98.071429)"
       gradientUnits="userSpaceOnUse"
       id="linearGradient3026"
       xlink:href="#ButtonShadow-0"
       inkscape:collect="always" />
    <linearGradient
       inkscape:collect="always"
       xlink:href="#linearGradient3669"
       id="linearGradient3675"
       x1="8"
       y1="1033.3622"
       x2="64.080299"
       y2="1033.3622"
       gradientUnits="userSpaceOnUse"
       spreadMethod="reflect" />
    <linearGradient
       id="linearGradient3669">
      <stop
         style="stop-color:#c27d4f;stop-opacity:1;"
         offset="0"
         id="stop3671" />
      <stop
         id="stop3677"
         offset="0.11780351"
         style="stop-color:#a3704e;stop-opacity:1;" />
      <stop
         style="stop-color:#866148;stop-opacity:1;"
         offset="1"
         id="stop3673" />
    </linearGradient>
    <clipPath
       clipPathUnits="userSpaceOnUse"
       id="clipPath4355">
      <rect
         style="fill:#ffffff;fill-opacity:1;fill-rule:nonzero;stroke:none"
         id="rect4357"
         width="84"
         height="80"
         x="6"
         y="6"
         rx="6"
         ry="6" />
    </clipPath>
    <radialGradient
       inkscape:collect="always"
       xlink:href="#linearGradient4367"
       id="radialGradient4375"
       cx="48"
       cy="87.792389"
       fx="48"
       fy="87.792389"
       r="42"
       gradientTransform="matrix(1,-6.7114942e-8,8.4282233e-8,1.2557894,109.99999,-24.505592)"
       gradientUnits="userSpaceOnUse" />
    <linearGradient
       inkscape:collect="always"
       xlink:href="#linearGradient4384"
       id="linearGradient4390"
       x1="48"
       y1="88"
       x2="48"
       y2="-40"
       gradientUnits="userSpaceOnUse"
       gradientTransform="matrix(1,0,0,-1,0,92)" />
    <linearGradient
       inkscape:collect="always"
       xlink:href="#linearGradient4384"
       id="linearGradient4429"
       x1="48"
       y1="82"
       x2="112.12357"
       y2="82.454597"
       gradientUnits="userSpaceOnUse"
       spreadMethod="reflect" />
    <linearGradient
       gradientTransform="translate(-2,-956.3622)"
       y2="1033.3622"
       x2="50"
       y1="1033.3622"
       x1="8"
       spreadMethod="reflect"
       gradientUnits="userSpaceOnUse"
       id="linearGradient3542-9"
       xlink:href="#linearGradient4482"
       inkscape:collect="always" />
    <linearGradient
       id="linearGradient4482">
      <stop
         id="stop4484"
         offset="0"
         style="stop-color:#ffffff;stop-opacity:0.12977099;" />
      <stop
         style="stop-color:#424242;stop-opacity:0.28244275;"
         offset="0.11780351"
         id="stop4486" />
      <stop
         id="stop4488"
         offset="0.23809524"
         style="stop-color:#2f2f2f;stop-opacity:0.30534351;" />
      <stop
         id="stop4490"
         offset="1"
         style="stop-color:#000000;stop-opacity:0.35114503;" />
    </linearGradient>
    <linearGradient
       inkscape:collect="always"
       xlink:href="#linearGradient4482"
       id="linearGradient3851"
       gradientUnits="userSpaceOnUse"
       x1="90"
       y1="88"
       x2="48"
       y2="88"
       spreadMethod="reflect" />
    <linearGradient
       inkscape:collect="always"
       xlink:href="#linearGradient3892"
       id="linearGradient3890"
       gradientUnits="userSpaceOnUse"
       spreadMethod="reflect"
       x1="90"
       y1="88"
       x2="48"
       y2="88" />
    <linearGradient
       id="linearGradient3892">
      <stop
         style="stop-color:#000000;stop-opacity:0.58823532;"
         offset="0"
         id="stop3894" />
      <stop
         id="stop3896"
         offset="0.11780351"
         style="stop-color:#000000;stop-opacity:0.47058824;" />
      <stop
         style="stop-color:#000000;stop-opacity:0.39215687;"
         offset="0.23809524"
         id="stop3898" />
      <stop
         style="stop-color:#000000;stop-opacity:0.3137255;"
         offset="1"
         id="stop3900" />
    </linearGradient>
    <linearGradient
       y2="88"
       x2="48"
       y1="88"
       x1="90"
       spreadMethod="reflect"
       gradientUnits="userSpaceOnUse"
       id="linearGradient3228"
       xlink:href="#linearGradient3892"
       inkscape:collect="always" />
    <linearGradient
       inkscape:collect="always"
       xlink:href="#linearGradient3643"
       id="linearGradient3617-7"
       gradientUnits="userSpaceOnUse"
       x1="48"
       y1="90"
       x2="48"
       y2="5.9877172" />
    <linearGradient
       id="linearGradient3643">
      <stop
         id="stop3645"
         offset="0"
         style="stop-color:#5262d7;stop-opacity:1" />
      <stop
         id="stop3647"
         offset="1"
         style="stop-color:#8996f6;stop-opacity:1" />
    </linearGradient>
    <linearGradient
       y2="5.9877172"
       x2="48"
       y1="90"
       x1="48"
       gradientUnits="userSpaceOnUse"
       id="linearGradient3087"
       xlink:href="#linearGradient3643"
       inkscape:collect="always" />
    <linearGradient
       inkscape:collect="always"
       xlink:href="#linearGradient4367"
       id="linearGradient3954"
       x1="46"
       y1="13"
       x2="46"
       y2="79"
       gradientUnits="userSpaceOnUse" />
    <clipPath
       clipPathUnits="userSpaceOnUse"
       id="clipPath4011">
      <path
         sodipodi:nodetypes="ssssssssssssssssss"
         id="path4013"
         d="M 12,6 C 8.676,6 6,8.676 6,12 l 0,72 c 0,3.324 2.676,6 6,6 l 72,0 c 3.324,0 6,-2.676 6,-6 L 90,12 C 90,8.676 87.324,6 84,6 z m 5,8 62,0 c 1.662,0 3,1.338 3,3 l 0,58 c 0,1.662 -1.338,3 -3,3 l -62,0 c -1.662,0 -3,-1.338 -3,-3 l 0,-58 c 0,-1.662 1.338,-3 3,-3 z"
         style="opacity:0.4;fill:#ff00ff;fill-opacity:1;fill-rule:nonzero;stroke:none"
         inkscape:connector-curvature="0" />
    </clipPath>
    <radialGradient
       inkscape:collect="always"
       xlink:href="#linearGradient4384"
       id="radialGradient4026"
       cx="14"
       cy="14"
       fx="14"
       fy="14"
       r="13"
       gradientUnits="userSpaceOnUse"
       gradientTransform="matrix(1.6923077,-1.6923077,1.0769231,1.0769231,-24.769231,122.61538)" />
    <radialGradient
       inkscape:collect="always"
       xlink:href="#linearGradient4384"
       id="radialGradient4030"
       gradientUnits="userSpaceOnUse"
       gradientTransform="matrix(-0.70710678,-0.70710678,-1.0769231,1.0769231,106.97642,8.8225719)"
       cx="14"
       cy="14"
       fx="14"
       fy="14"
       r="13" />
    <radialGradient
       inkscape:collect="always"
       xlink:href="#linearGradient4384"
       id="radialGradient4036"
       gradientUnits="userSpaceOnUse"
       gradientTransform="matrix(0.70710678,0.70710678,1.0769231,-1.0769231,-10.976418,83.177428)"
       cx="14"
       cy="14"
       fx="14"
       fy="14"
       r="13" />
    <radialGradient
       inkscape:collect="always"
       xlink:href="#linearGradient4384"
       id="radialGradient4038"
       gradientUnits="userSpaceOnUse"
       gradientTransform="matrix(-0.70710678,0.70710678,-1.0769231,-1.0769231,106.97642,83.177428)"
       cx="14"
       cy="14"
       fx="14"
       fy="14"
       r="13" />
    <radialGradient
       inkscape:collect="always"
       xlink:href="#linearGradient4384"
       id="radialGradient4042"
       gradientUnits="userSpaceOnUse"
       gradientTransform="matrix(-1.6923077,-1.6923077,-1.0769231,1.0769231,120.76923,122.61538)"
       cx="14"
       cy="14"
       fx="14"
       fy="14"
       r="13" />
    <radialGradient
       inkscape:collect="always"
       xlink:href="#linearGradient4384"
       id="radialGradient4048"
       gradientUnits="userSpaceOnUse"
       gradientTransform="matrix(1.6923077,1.6923077,1.0769231,-1.0769231,-24.769231,169.38462)"
       cx="14"
       cy="14"
       fx="14"
       fy="14"
       r="13" />
    <radialGradient
       inkscape:collect="always"
       xlink:href="#linearGradient4384"
       id="radialGradient4050"
       gradientUnits="userSpaceOnUse"
       gradientTransform="matrix(-1.6923077,1.6923077,-1.0769231,-1.0769231,120.76923,169.38462)"
       cx="14"
       cy="14"
       fx="14"
       fy="14"
       r="13" />
    <radialGradient
       inkscape:collect="always"
       xlink:href="#linearGradient4052"
       id="radialGradient4058"
       cx="48"
       cy="48"
       fx="48"
       fy="48"
       r="42"
       gradientUnits="userSpaceOnUse"
       gradientTransform="matrix(2.2857143,0,0,2.0952381,-61.714286,-52.571429)" />
  </defs>
  <sodipodi:namedview
     id="base"
     pagecolor="#818181"
     bordercolor="#ffb1b1"
     borderopacity="1"
     inkscape:pageopacity="1"
     inkscape:pageshadow="2"
     inkscape:zoom="4.6803524"
     inkscape:cx="8.2584823"
     inkscape:cy="49.670403"
     inkscape:document-units="px"
     inkscape:current-layer="layer1"
     showgrid="true"
     showborder="true"
     inkscape:showpageshadow="false"
     inkscape:window-width="1920"
     inkscape:window-height="1027"
     inkscape:window-x="-1"
     inkscape:window-y="23"
     inkscape:window-maximized="1"
     borderlayer="true">
    <inkscape:grid
       type="xygrid"
       id="grid3732"
       visible="true"
       enabled="true"
       empspacing="8"
       snapvisiblegridlinesonly="true" />
  </sodipodi:namedview>
  <metadata
     id="metadata2413">
    <rdf:RDF>
      <cc:Work
         rdf:about="">
        <dc:format>image/svg+xml</dc:format>
        <dc:type
           rdf:resource="http://purl.org/dc/dcmitype/StillImage" />
        <dc:title />
      </cc:Work>
    </rdf:RDF>
  </metadata>
  <g
     inkscape:groupmode="layer"
     id="layer2"
     inkscape:label="Blur Shadow"
     style="display:none"
     sodipodi:insensitive="true">
    <rect
       style="opacity:0.9;fill:url(#ButtonShadow);fill-opacity:1;fill-rule:nonzero;stroke:none;filter:url(#filter3174)"
       id="rect3745"
       width="86"
       height="85"
       x="5"
       y="7"
       rx="6"
       ry="6" />
  </g>
  <g
     inkscape:groupmode="layer"
     id="layer3"
     inkscape:label="Shadow"
     sodipodi:insensitive="true"
     style="display:inline">
    <path
       sodipodi:type="inkscape:offset"
       inkscape:radius="0.99097413"
       inkscape:original="M 12 -94.03125 C 7.028367 -94.03125 2.96875 -89.971633 2.96875 -85 L 2.96875 -14 C 2.96875 -9.0283671 7.0283671 -4.96875 12 -4.96875 L 84 -4.96875 C 88.971633 -4.96875 93.03125 -9.028367 93.03125 -14 L 93.03125 -85 C 93.03125 -89.971633 88.971633 -94.03125 84 -94.03125 L 12 -94.03125 z "
       style="opacity:0.07999998;fill:url(#linearGradient3026);fill-opacity:1;fill-rule:nonzero;stroke:none;display:inline"
       id="path3786"
       d="m 12,-95.03125 c -5.5110903,0 -10.03125,4.52016 -10.03125,10.03125 l 0,71 c 0,5.5110902 4.5201598,10.03125 10.03125,10.03125 l 72,0 c 5.51109,0 10.03125,-4.5201597 10.03125,-10.03125 l 0,-71 c 0,-5.51109 -4.52016,-10.03125 -10.03125,-10.03125 l -72,0 z"
       transform="scale(1,-1)" />
    <path
       sodipodi:type="inkscape:offset"
       inkscape:radius="1.0360184"
       inkscape:original="M 12 -93 C 7.5908667 -93 4 -89.409133 4 -85 L 4 -14 C 4 -9.5908667 7.5908667 -6 12 -6 L 84 -6 C 88.409133 -6 92 -9.5908667 92 -14 L 92 -85 C 92 -89.409133 88.409133 -93 84 -93 L 12 -93 z "
       style="opacity:0.1;fill:url(#linearGradient3780);fill-opacity:1;fill-rule:nonzero;stroke:none;display:inline"
       id="path3778"
       d="m 12,-94.03125 c -4.971633,0 -9.03125,4.059617 -9.03125,9.03125 l 0,71 c 0,4.9716329 4.0596171,9.03125 9.03125,9.03125 l 72,0 c 4.971633,0 9.03125,-4.059617 9.03125,-9.03125 l 0,-71 c 0,-4.971633 -4.059617,-9.03125 -9.03125,-9.03125 l -72,0 z"
       transform="scale(1,-1)" />
    <path
       sodipodi:type="inkscape:offset"
       inkscape:radius="0.98962283"
       inkscape:original="M 12 -92 C 8.122 -92 5 -88.878 5 -85 L 5 -14 C 5 -10.122 8.122 -7 12 -7 L 84 -7 C 87.878 -7 91 -10.122 91 -14 L 91 -85 C 91 -88.878 87.878 -92 84 -92 L 12 -92 z "
       style="opacity:0.2;fill:url(#linearGradient3772);fill-opacity:1;fill-rule:nonzero;stroke:none;display:inline"
       id="path3770"
       d="m 12,-93 c -4.4091333,0 -8,3.590867 -8,8 l 0,71 c 0,4.4091333 3.5908667,8 8,8 l 72,0 c 4.409133,0 8,-3.5908667 8,-8 l 0,-71 c 0,-4.409133 -3.590867,-8 -8,-8 l -72,0 z"
       transform="scale(1,-1)" />
    <rect
       style="opacity:0.3;fill:url(#linearGradient3725);fill-opacity:1;fill-rule:nonzero;stroke:none;display:inline"
       id="rect3723"
       width="86"
       height="85"
       x="5"
       y="-92"
       rx="7"
       ry="7"
       transform="scale(1,-1)" />
    <rect
       transform="scale(1,-1)"
       ry="6"
       rx="6"
       y="-91"
       x="6"
       height="84"
       width="84"
       id="rect3716"
       style="opacity:0.45;fill:url(#linearGradient3721);fill-opacity:1;fill-rule:nonzero;stroke:none;display:inline" />
  </g>
  <g
     inkscape:label="Button"
     inkscape:groupmode="layer"
     id="layer1">
    <rect
       style="fill:url(#linearGradient3087);fill-opacity:1;fill-rule:nonzero;stroke:none"
       id="rect2419"
       width="84"
       height="84"
       x="6"
       y="6"
       rx="6"
       ry="6" />
    <path
       inkscape:connector-curvature="0"
       style="opacity:0.8;fill:url(#radialGradient4058);fill-opacity:1;fill-rule:nonzero;stroke:none"
       d="M 12,6 C 8.676,6 6,8.676 6,12 l 0,72 c 0,3.324 2.676,6 6,6 l 72,0 c 3.324,0 6,-2.676 6,-6 L 90,12 C 90,8.676 87.324,6 84,6 z m 5,8 62,0 c 1.662,0 3,1.338 3,3 l 0,58 c 0,1.662 -1.338,3 -3,3 l -62,0 c -1.662,0 -3,-1.338 -3,-3 l 0,-58 c 0,-1.662 1.338,-3 3,-3 z"
       id="rect3651"
       sodipodi:nodetypes="ssssssssssssssssss" />
    <path
       style="opacity:0.2;fill:url(#radialGradient4375);fill-opacity:1;fill-rule:nonzero;stroke:none"
       d="M 120.78125,6.125 C 118.04223,6.6826484 116,9.0915 116,12 l 0,68 c 0,3.324 2.676,6 6,6 l 72,0 c 3.324,0 6,-2.676 6,-6 l 0,-68 c 0,-2.9085 -2.04223,-5.3173516 -4.78125,-5.875 2.20512,0.5362071 3.8125,2.4908437 3.8125,4.875 l 0,68 c 0,2.80489 -2.22636,5.03125 -5.03125,5.03125 l -72,0 c -2.80489,0 -5.03125,-2.22636 -5.03125,-5.03125 l 0,-68 c 0,-2.3841563 1.60738,-4.3387929 3.8125,-4.875 z"
       id="rect4359"
       inkscape:connector-curvature="0" />
    <path
       style="opacity:0.1;fill:url(#linearGradient4429);fill-opacity:1;fill-rule:nonzero;stroke:none"
       d="m 6,78 0,2 c 0,3.324 2.676,6 6,6 l 72,0 c 3.324,0 6,-2.676 6,-6 l 0,-2 c 0,3.324 -2.676,6 -6,6 L 12,84 C 8.676,84 6,81.324 6,78 z"
       id="rect4414"
       inkscape:connector-curvature="0" />
    <path
       id="path4412"
       d="m 6,100 0,1 c 0,3.324 2.676,6 6,6 l 72,0 c 3.324,0 6,-2.676 6,-6 l 0,-1 c 0,3.324 -2.676,6 -6,6 l -72,0 c -3.324,0 -6,-2.676 -6,-6 z"
       style="opacity:0.15;fill:#000000;fill-opacity:1;fill-rule:nonzero;stroke:none"
       inkscape:connector-curvature="0" />
    <path
       inkscape:connector-curvature="0"
       style="opacity:0.05;fill:#000000;fill-opacity:1;fill-rule:nonzero;stroke:none"
       d="m 17,14 c -1.662,0 -3,1.338 -3,3 l 0,58 c 0,1.662 1.338,3 3,3 l 62,0 c 1.662,0 3,-1.338 3,-3 l 0,-58 c 0,-1.662 -1.338,-3 -3,-3 z m -0.0625,2.9375 c 0.0048,-0.0048 0.01906,0 0.0625,0 l 62,0 c 0.08687,0 0.0625,-0.02437 0.0625,0.0625 l 0,58 c 0,0.08687 0.02437,0.0625 -0.0625,0.0625 l -62,0 c -0.08687,0 -0.0625,0.02437 -0.0625,-0.0625 l 0,-58 c 0,-0.04344 -0.0048,-0.05773 0,-0.0625 z"
       id="rect3712"
       sodipodi:nodetypes="ssssssssscssssssssc" />
    <path
       inkscape:connector-curvature="0"
       style="opacity:0.12000002;fill:#000000;fill-opacity:1;fill-rule:nonzero;stroke:none"
       d="m 17,14 c -1.662,0 -3,1.338 -3,3 l 0,58 c 0,1.662 1.338,3 3,3 l 62,0 c 1.662,0 3,-1.338 3,-3 l 0,-58 c 0,-1.662 -1.338,-3 -3,-3 z m 0,1.84375 62,0 c 0.670253,0 1.15625,0.485997 1.15625,1.15625 l 0,58 c 0,0.670253 -0.485997,1.15625 -1.15625,1.15625 l -62,0 c -0.670253,0 -1.15625,-0.485997 -1.15625,-1.15625 l 0,-58 c 0,-0.670253 0.485997,-1.15625 1.15625,-1.15625 z"
       id="rect3708"
       sodipodi:nodetypes="ssssssssssssssssss" />
    <path
       style="opacity:0.15;fill:#000000;fill-opacity:1;fill-rule:nonzero;stroke:none"
       d="m 17,14 c -1.662,0 -3,1.338 -3,3 l 0,58 c 0,1.662 1.338,3 3,3 l 62,0 c 1.662,0 3,-1.338 3,-3 l 0,-58 c 0,-1.662 -1.338,-3 -3,-3 z m 0,0.96875 62,0 c 1.136957,0 2.03125,0.894293 2.03125,2.03125 l 0,58 c 0,1.136957 -0.894293,2.03125 -2.03125,2.03125 l -62,0 c -1.136957,0 -2.03125,-0.894293 -2.03125,-2.03125 l 0,-58 c 0,-1.136957 0.894293,-2.03125 2.03125,-2.03125 z"
       id="rect2932"
       inkscape:connector-curvature="0"
       sodipodi:nodetypes="ssssssssssssssssss" />
    <path
       style="opacity:0.29999999999999999;color:#000000;fill:url(#linearGradient3954);fill-opacity:1;fill-rule:nonzero;stroke:none;stroke-width:2;marker:none;visibility:visible;display:inline;overflow:visible;enable-background:accumulate"
       d="M 17 13 C 14.784 13 13 14.784 13 17 L 13 75 C 13 77.216 14.784 79 17 79 L 79 79 C 81.216 79 83 77.216 83 75 L 83 17 C 83 14.784 81.216 13 79 13 L 17 13 z M 17 14 L 79 14 C 80.662 14 82 15.338 82 17 L 82 75 C 82 76.662 80.662 78 79 78 L 17 78 C 15.338 78 14 76.662 14 75 L 14 17 C 14 15.338 15.338 14 17 14 z "
       id="rect3943" />
    <g
       id="g3993"
       clip-path="url(#clipPath4011)"
       style="opacity:0.5"
       transform="translate(-120,0)">
      <g
         id="g3962">
        <path
           style="opacity:0.1;fill:#ffffff;stroke:none"
           d="m 78,13 9,-4 -4,9 z"
           id="path3960"
           inkscape:connector-curvature="0"
           sodipodi:nodetypes="cccc" />
        <path
           sodipodi:nodetypes="cccc"
           inkscape:connector-curvature="0"
           id="path3958"
           d="m 79,13 7,-3 -3,7 z"
           style="opacity:0.15;fill:#ffffff;stroke:none" />
        <path
           style="opacity:0.2;fill:#ffffff;stroke:none"
           d="m 80,13 5,-2 -2,5 z"
           id="path3956"
           inkscape:connector-curvature="0"
           sodipodi:nodetypes="cccc" />
      </g>
      <g
         transform="matrix(0,-1,1,0,0,96)"
         id="g3969">
        <path
           sodipodi:nodetypes="cccc"
           inkscape:connector-curvature="0"
           id="path3971"
           d="m 78,13 9,-4 -4,9 z"
           style="opacity:0.1;fill:#ffffff;stroke:none" />
        <path
           style="opacity:0.15;fill:#ffffff;stroke:none"
           d="m 79,13 7,-3 -3,7 z"
           id="path3973"
           inkscape:connector-curvature="0"
           sodipodi:nodetypes="cccc" />
        <path
           sodipodi:nodetypes="cccc"
           inkscape:connector-curvature="0"
           id="path3975"
           d="m 80,13 5,-2 -2,5 z"
           style="opacity:0.2;fill:#ffffff;stroke:none" />
      </g>
      <g
         transform="matrix(1,0,0,-1,0,92)"
         id="g3977">
        <path
           sodipodi:nodetypes="cccc"
           inkscape:connector-curvature="0"
           id="path3979"
           d="m 78,13 9,-4 -4,9 z"
           style="opacity:0.1;fill:#ffffff;stroke:none" />
        <path
           style="opacity:0.15;fill:#ffffff;stroke:none"
           d="m 79,13 7,-3 -3,7 z"
           id="path3981"
           inkscape:connector-curvature="0"
           sodipodi:nodetypes="cccc" />
        <path
           sodipodi:nodetypes="cccc"
           inkscape:connector-curvature="0"
           id="path3983"
           d="m 80,13 5,-2 -2,5 z"
           style="opacity:0.2;fill:#ffffff;stroke:none" />
      </g>
      <g
         id="g3985"
         transform="matrix(0,1,1,0,0,-4)">
        <path
           style="opacity:0.1;fill:#ffffff;stroke:none"
           d="m 78,13 9,-4 -4,9 z"
           id="path3987"
           inkscape:connector-curvature="0"
           sodipodi:nodetypes="cccc" />
        <path
           sodipodi:nodetypes="cccc"
           inkscape:connector-curvature="0"
           id="path3989"
           d="m 79,13 7,-3 -3,7 z"
           style="opacity:0.15;fill:#ffffff;stroke:none" />
        <path
           style="opacity:0.2;fill:#ffffff;stroke:none"
           d="m 80,13 5,-2 -2,5 z"
           id="path3991"
           inkscape:connector-curvature="0"
           sodipodi:nodetypes="cccc" />
      </g>
    </g>
    <path
       style="opacity:0.3;fill:url(#radialGradient4026);fill-opacity:1;fill-rule:nonzero;stroke:none"
       d="m 12,106 c -3.324,0 -6,2.676 -6,6 l 0,28 8,0 0,-23 c 0,-1.662 1.338,-3 3,-3 l 23,0 0,-8 z"
       id="path4015"
       inkscape:connector-curvature="0"
       sodipodi:nodetypes="ssccssccs" />
    <path
       sodipodi:nodetypes="ssccssccs"
       inkscape:connector-curvature="0"
       id="path4040"
       d="m 84,106 c 3.324,0 6,2.676 6,6 l 0,28 -8,0 0,-23 c 0,-1.662 -1.338,-3 -3,-3 l -23,0 0,-8 z"
       style="opacity:0.3;fill:url(#radialGradient4042);fill-opacity:1;fill-rule:nonzero;stroke:none" />
    <path
       sodipodi:nodetypes="ssccssccs"
       inkscape:connector-curvature="0"
       id="path4044"
       d="m 12,186 c -3.324,0 -6,-2.676 -6,-6 l 0,-28 8,0 0,23 c 0,1.662 1.338,3 3,3 l 23,0 0,8 z"
       style="opacity:0.3;fill:url(#radialGradient4048);fill-opacity:1;fill-rule:nonzero;stroke:none" />
    <path
       style="opacity:0.3;fill:url(#radialGradient4050);fill-opacity:1;fill-rule:nonzero;stroke:none"
       d="m 84,186 c 3.324,0 6,-2.676 6,-6 l 0,-28 -8,0 0,23 c 0,1.662 -1.338,3 -3,3 l -23,0 0,8 z"
       id="path4046"
       inkscape:connector-curvature="0"
       sodipodi:nodetypes="ssccssccs" />
    <path
       style="opacity:0.4;fill:url(#linearGradient4390);fill-opacity:1;fill-rule:nonzero;stroke:none"
       d="M 12,86 C 8.676,86 6,83.324 6,80 L 6,12 C 6,8.676 8.676,6 12,6 l 72,0 c 3.324,0 6,2.676 6,6 l 0,68 c 0,3.324 -2.676,6 -6,6 z m 0,-0.96875 72,0 c 2.80489,0 5.03125,-2.22636 5.03125,-5.03125 l 0,-68 C 89.03125,9.19511 86.80489,6.96875 84,6.96875 l -72,0 C 9.19511,6.96875 6.96875,9.19511 6.96875,12 l 0,68 c 0,2.80489 2.22636,5.03125 5.03125,5.03125 z"
       id="rect4377"
       inkscape:connector-curvature="0"
       sodipodi:nodetypes="ssssssssssssssssss" />
  </g>
  <g
     inkscape:groupmode="layer"
     id="layer4"
     inkscape:label="Bottom Edge"
     style="display:inline"
     sodipodi:insensitive="true">
    <path
       inkscape:connector-curvature="0"
       id="path3888"
       d="m 6,80 0,4 c 0,3.324 2.676,6 6,6 l 72,0 c 3.324,0 6,-2.676 6,-6 l 0,-4 c 0,3.324 -2.676,6 -6,6 L 12,86 C 8.676,86 6,83.324 6,80 z"
       style="fill:url(#linearGradient3228);fill-opacity:1;fill-rule:nonzero;stroke:none;display:inline" />
    <path
       style="opacity:0.1;color:#000000;fill:#000000;fill-opacity:1;fill-rule:nonzero;stroke:none;stroke-width:1.5;marker:none;visibility:visible;display:inline;overflow:visible;enable-background:accumulate"
       d="m 6,82 0,2 c 0,3.324 2.676,6 6,6 l 72,0 c 3.324,0 6,-2.676 6,-6 l 0,-2 c 0,3.324 -2.676,6 -6,6 L 12,88 C 8.676,88 6,85.324 6,82 z"
       id="rect4345"
       inkscape:connector-curvature="0" />
    <path
       style="opacity:0.15;color:#000000;fill:#000000;fill-opacity:1;fill-rule:nonzero;stroke:none;stroke-width:1.5;marker:none;visibility:visible;display:inline;overflow:visible;enable-background:accumulate"
       d="m 6,83 0,1 c 0,3.324 2.676,6 6,6 l 72,0 c 3.324,0 6,-2.676 6,-6 l 0,-1 c 0,3.324 -2.676,6 -6,6 L 12,89 C 8.676,89 6,86.324 6,83 z"
       id="rect4336"
       inkscape:connector-curvature="0" />
  </g>
  <g
     inkscape:groupmode="layer"
     id="layer5"
     inkscape:label="Highlight"
     sodipodi:insensitive="true"
     style="display:none">
    <rect
       style="opacity:0.1;fill:url(#linearGradient3613);fill-opacity:1;fill-rule:nonzero;stroke:#ffffff;stroke-width:0.5;stroke-linecap:round;stroke-linejoin:miter;stroke-miterlimit:4;stroke-opacity:1;stroke-dasharray:none;stroke-dashoffset:0;filter:url(#filter3794)"
       id="rect3171"
       width="66"
       height="62"
       x="15"
       y="15"
       rx="12"
       ry="12"
       clip-path="url(#clipPath4355)" />
  </g>
  <g
     inkscape:groupmode="layer"
     id="layer6"
     inkscape:label="Symbol">
    <path
       sodipodi:type="inkscape:offset"
       inkscape:radius="0.94701803"
       inkscape:original="M 47 24.03125 C 42.612065 24.03125 39.03125 27.612065 39.03125 32 C 39.03125 36.387935 42.612065 39.96875 47 39.96875 C 51.387935 39.96875 54.96875 36.387935 54.96875 32 C 54.96875 27.612065 51.387935 24.03125 47 24.03125 z M 35.8125 42.03125 A 0.96586927 0.96586927 0 0 0 35.03125 43 L 35.03125 49 A 0.96586927 0.96586927 0 0 0 36 49.96875 L 41.03125 49.96875 L 41.03125 66.03125 L 36 66.03125 A 0.96586927 0.96586927 0 0 0 35.03125 67 L 35.03125 73 A 0.96586927 0.96586927 0 0 0 36 73.96875 L 60 73.96875 A 0.96586927 0.96586927 0 0 0 60.96875 73 L 60.96875 67 A 0.96586927 0.96586927 0 0 0 60 66.03125 L 54.96875 66.03125 L 54.96875 43 A 0.96586927 0.96586927 0 0 0 54 42.03125 L 36 42.03125 A 0.96586927 0.96586927 0 0 0 35.90625 42.03125 A 0.96586927 0.96586927 0 0 0 35.8125 42.03125 z "
       style="opacity:0.07999998;fill:#000000;fill-opacity:1;stroke:none"
       id="path3746"
       d="m 47,23.09375 c -4.90315,0 -8.90625,4.0031 -8.90625,8.90625 0,4.90315 4.0031,8.90625 8.90625,8.90625 4.90315,0 8.90625,-4.0031 8.90625,-8.90625 0,-4.90315 -4.0031,-8.90625 -8.90625,-8.90625 z m -11.375,18 c -5.4e-4,1.05e-4 -0.155721,0.06235 -0.15625,0.0625 -5.29e-4,1.52e-4 -0.155737,0.03105 -0.15625,0.03125 -5.13e-4,1.97e-4 -0.155756,0.06226 -0.15625,0.0625 -4.94e-4,2.41e-4 -0.155779,0.09347 -0.15625,0.09375 -4.71e-4,2.84e-4 -0.124556,0.09343 -0.125,0.09375 -4.44e-4,3.24e-4 -0.124586,0.09339 -0.125,0.09375 -4.14e-4,3.61e-4 -0.124619,0.124604 -0.125,0.125 -3.81e-4,3.96e-4 -0.124655,0.124572 -0.125,0.125 -3.45e-4,4.28e-4 -0.09344,0.124543 -0.09375,0.125 -3.06e-4,4.57e-4 -0.09349,0.155768 -0.09375,0.15625 -2.65e-4,4.82e-4 -0.06228,0.155747 -0.0625,0.15625 -2.22e-4,5.03e-4 -0.06232,0.15573 -0.0625,0.15625 -1.77e-4,5.2e-4 -0.06237,0.155716 -0.0625,0.15625 -1.31e-4,5.34e-4 -0.03117,0.155707 -0.03125,0.15625 -8.4e-5,5.43e-4 3.6e-5,0.155701 0,0.15625 -3e-5,4.57e-4 8.55e-4,0.117448 0,0.15625 -1.71e-4,0.0078 -2e-6,0.03116 0,0.03125 l 0,5.96875 c -10e-7,3.1e-4 -1.4e-5,0.09344 0,0.09375 1.4e-5,3.09e-4 -3e-5,0.09344 0,0.09375 3e-5,3.08e-4 -4.5e-5,0.09344 0,0.09375 4.5e-5,3.06e-4 0.03119,0.09345 0.03125,0.09375 6e-5,3.04e-4 -7.5e-5,0.09345 0,0.09375 7.5e-5,3.01e-4 0.03116,0.09345 0.03125,0.09375 8.9e-5,2.96e-4 0.03115,0.09346 0.03125,0.09375 1.04e-4,2.92e-4 0.03113,0.06221 0.03125,0.0625 1.18e-4,2.86e-4 0.06237,0.09347 0.0625,0.09375 1.32e-4,2.8e-4 0.0311,0.09348 0.03125,0.09375 1.46e-4,2.73e-4 0.03109,0.09348 0.03125,0.09375 1.59e-4,2.66e-4 0.06233,0.06224 0.0625,0.0625 1.72e-4,2.58e-4 0.06232,0.0935 0.0625,0.09375 1.84e-4,2.49e-4 0.0623,0.06226 0.0625,0.0625 1.96e-4,2.39e-4 0.06229,0.06227 0.0625,0.0625 2.08e-4,2.29e-4 0.06228,0.06228 0.0625,0.0625 2.19e-4,2.19e-4 0.06227,0.06229 0.0625,0.0625 2.29e-4,2.08e-4 0.06226,0.0623 0.0625,0.0625 2.39e-4,1.96e-4 0.06225,0.06232 0.0625,0.0625 2.49e-4,1.84e-4 0.09349,0.06233 0.09375,0.0625 2.58e-4,1.72e-4 0.06223,0.06234 0.0625,0.0625 2.66e-4,1.59e-4 0.09348,0.0311 0.09375,0.03125 2.73e-4,1.46e-4 0.09347,0.03112 0.09375,0.03125 2.8e-4,1.32e-4 0.09346,0.06238 0.09375,0.0625 2.86e-4,1.18e-4 0.06221,0.03115 0.0625,0.03125 2.92e-4,1.04e-4 0.09345,0.03116 0.09375,0.03125 2.96e-4,8.9e-5 0.09345,0.03117 0.09375,0.03125 3.01e-4,7.5e-5 0.09345,-6e-5 0.09375,0 3.04e-4,6e-5 0.09344,0.0312 0.09375,0.03125 3.06e-4,4.5e-5 0.09344,-3e-5 0.09375,0 3.08e-4,3e-5 0.09344,-1.4e-5 0.09375,0 3.09e-4,1.4e-5 0.09344,10e-7 0.09375,0 l 4.09375,0 0,14.1875 -4.09375,0 c -3.1e-4,-10e-7 -0.09344,-1.4e-5 -0.09375,0 -3.09e-4,1.4e-5 -0.09344,-3e-5 -0.09375,0 -3.08e-4,3e-5 -0.09344,-4.5e-5 -0.09375,0 -3.06e-4,4.5e-5 -0.09345,0.03119 -0.09375,0.03125 -3.04e-4,6e-5 -0.09345,-7.5e-5 -0.09375,0 -3.01e-4,7.5e-5 -0.09345,0.03116 -0.09375,0.03125 -2.96e-4,8.9e-5 -0.09346,0.03115 -0.09375,0.03125 -2.92e-4,1.04e-4 -0.06221,0.03113 -0.0625,0.03125 -2.86e-4,1.18e-4 -0.09347,0.06237 -0.09375,0.0625 -2.8e-4,1.32e-4 -0.09348,0.0311 -0.09375,0.03125 -2.73e-4,1.46e-4 -0.09348,0.03109 -0.09375,0.03125 -2.66e-4,1.59e-4 -0.06224,0.06233 -0.0625,0.0625 -2.58e-4,1.72e-4 -0.0935,0.06232 -0.09375,0.0625 -2.49e-4,1.84e-4 -0.06226,0.0623 -0.0625,0.0625 -2.39e-4,1.96e-4 -0.06227,0.06229 -0.0625,0.0625 -2.29e-4,2.08e-4 -0.06228,0.06228 -0.0625,0.0625 -2.19e-4,2.19e-4 -0.06229,0.06227 -0.0625,0.0625 -2.08e-4,2.29e-4 -0.0623,0.06226 -0.0625,0.0625 -1.96e-4,2.39e-4 -0.06232,0.06225 -0.0625,0.0625 -1.84e-4,2.49e-4 -0.06233,0.09349 -0.0625,0.09375 -1.72e-4,2.58e-4 -0.06234,0.06223 -0.0625,0.0625 -1.59e-4,2.66e-4 -0.0311,0.09348 -0.03125,0.09375 -1.46e-4,2.73e-4 -0.03112,0.09347 -0.03125,0.09375 -1.32e-4,2.8e-4 -0.06238,0.09346 -0.0625,0.09375 -1.18e-4,2.86e-4 -0.03115,0.06221 -0.03125,0.0625 -1.04e-4,2.92e-4 -0.03116,0.09345 -0.03125,0.09375 -8.9e-5,2.96e-4 -0.03117,0.09345 -0.03125,0.09375 -7.5e-5,3.01e-4 6e-5,0.09345 0,0.09375 -6e-5,3.04e-4 -0.0312,0.09344 -0.03125,0.09375 -4.5e-5,3.06e-4 3e-5,0.09344 0,0.09375 -3e-5,3.08e-4 1.4e-5,0.09344 0,0.09375 -1.4e-5,3.09e-4 -10e-7,0.09344 0,0.09375 l 0,6 c -10e-7,3.1e-4 -1.4e-5,0.09344 0,0.09375 1.4e-5,3.09e-4 -3e-5,0.09344 0,0.09375 3e-5,3.08e-4 -4.5e-5,0.09344 0,0.09375 4.5e-5,3.06e-4 0.03119,0.09345 0.03125,0.09375 6e-5,3.04e-4 -7.5e-5,0.09345 0,0.09375 7.5e-5,3.01e-4 0.03116,0.09345 0.03125,0.09375 8.9e-5,2.96e-4 0.03115,0.09346 0.03125,0.09375 1.04e-4,2.92e-4 0.03113,0.06221 0.03125,0.0625 1.18e-4,2.86e-4 0.06237,0.09347 0.0625,0.09375 1.32e-4,2.8e-4 0.0311,0.09348 0.03125,0.09375 1.46e-4,2.73e-4 0.03109,0.09348 0.03125,0.09375 1.59e-4,2.66e-4 0.06233,0.06224 0.0625,0.0625 1.72e-4,2.58e-4 0.06232,0.0935 0.0625,0.09375 1.84e-4,2.49e-4 0.0623,0.06226 0.0625,0.0625 1.96e-4,2.39e-4 0.06229,0.06227 0.0625,0.0625 2.08e-4,2.29e-4 0.06228,0.06228 0.0625,0.0625 2.19e-4,2.19e-4 0.06227,0.06229 0.0625,0.0625 2.29e-4,2.08e-4 0.06226,0.0623 0.0625,0.0625 2.39e-4,1.96e-4 0.06225,0.06232 0.0625,0.0625 2.49e-4,1.84e-4 0.09349,0.06233 0.09375,0.0625 2.58e-4,1.72e-4 0.06223,0.06234 0.0625,0.0625 2.66e-4,1.59e-4 0.09348,0.0311 0.09375,0.03125 2.73e-4,1.46e-4 0.09347,0.03112 0.09375,0.03125 2.8e-4,1.32e-4 0.09346,0.06238 0.09375,0.0625 2.86e-4,1.18e-4 0.06221,0.03115 0.0625,0.03125 2.92e-4,1.04e-4 0.09345,0.03116 0.09375,0.03125 2.96e-4,8.9e-5 0.09345,0.03118 0.09375,0.03125 3.01e-4,7.5e-5 0.09345,-6e-5 0.09375,0 3.04e-4,6e-5 0.09344,0.0312 0.09375,0.03125 3.06e-4,4.5e-5 0.09344,-3e-5 0.09375,0 3.08e-4,3e-5 0.09344,-1.4e-5 0.09375,0 3.09e-4,1.4e-5 0.09344,10e-7 0.09375,0 l 24,0 c 3.1e-4,10e-7 0.09344,1.4e-5 0.09375,0 3.09e-4,-1.4e-5 0.09344,3e-5 0.09375,0 3.08e-4,-3e-5 0.09344,4.5e-5 0.09375,0 3.06e-4,-4.5e-5 0.09345,-0.03119 0.09375,-0.03125 3.04e-4,-6e-5 0.09345,7.5e-5 0.09375,0 3.01e-4,-7.5e-5 0.09345,-0.03116 0.09375,-0.03125 2.96e-4,-8.9e-5 0.09346,-0.03115 0.09375,-0.03125 2.92e-4,-1.04e-4 0.06221,-0.03113 0.0625,-0.03125 2.86e-4,-1.18e-4 0.09347,-0.06237 0.09375,-0.0625 2.8e-4,-1.32e-4 0.09348,-0.0311 0.09375,-0.03125 2.73e-4,-1.46e-4 0.09348,-0.03109 0.09375,-0.03125 2.66e-4,-1.59e-4 0.06224,-0.06233 0.0625,-0.0625 2.58e-4,-1.72e-4 0.0935,-0.06232 0.09375,-0.0625 2.49e-4,-1.84e-4 0.06226,-0.0623 0.0625,-0.0625 2.39e-4,-1.96e-4 0.06227,-0.06229 0.0625,-0.0625 2.29e-4,-2.08e-4 0.06228,-0.06228 0.0625,-0.0625 2.19e-4,-2.19e-4 0.06229,-0.06227 0.0625,-0.0625 2.08e-4,-2.29e-4 0.0623,-0.06226 0.0625,-0.0625 1.96e-4,-2.39e-4 0.06232,-0.06225 0.0625,-0.0625 1.84e-4,-2.49e-4 0.06233,-0.09349 0.0625,-0.09375 1.72e-4,-2.58e-4 0.06234,-0.06223 0.0625,-0.0625 1.59e-4,-2.66e-4 0.0311,-0.09348 0.03125,-0.09375 1.46e-4,-2.73e-4 0.03112,-0.09347 0.03125,-0.09375 1.32e-4,-2.8e-4 0.06238,-0.09346 0.0625,-0.09375 1.18e-4,-2.86e-4 0.03115,-0.06221 0.03125,-0.0625 1.04e-4,-2.92e-4 0.03116,-0.09345 0.03125,-0.09375 8.9e-5,-2.96e-4 0.03117,-0.09345 0.03125,-0.09375 7.5e-5,-3.01e-4 -6e-5,-0.09345 0,-0.09375 6e-5,-3.04e-4 0.0312,-0.09344 0.03125,-0.09375 4.5e-5,-3.06e-4 -3e-5,-0.09344 0,-0.09375 3e-5,-3.08e-4 -1.4e-5,-0.09344 0,-0.09375 1.4e-5,-3.09e-4 10e-7,-0.09344 0,-0.09375 l 0,-6 c 10e-7,-3.1e-4 1.4e-5,-0.09344 0,-0.09375 -1.4e-5,-3.09e-4 3e-5,-0.09344 0,-0.09375 -3e-5,-3.08e-4 4.5e-5,-0.09344 0,-0.09375 -4.5e-5,-3.06e-4 -0.03119,-0.09345 -0.03125,-0.09375 -6e-5,-3.04e-4 7.5e-5,-0.09345 0,-0.09375 -7.5e-5,-3.01e-4 -0.03116,-0.09345 -0.03125,-0.09375 -8.9e-5,-2.96e-4 -0.03115,-0.09346 -0.03125,-0.09375 -1.04e-4,-2.92e-4 -0.03113,-0.06221 -0.03125,-0.0625 -1.18e-4,-2.86e-4 -0.06237,-0.09347 -0.0625,-0.09375 -1.32e-4,-2.8e-4 -0.0311,-0.09348 -0.03125,-0.09375 -1.46e-4,-2.73e-4 -0.03109,-0.09348 -0.03125,-0.09375 -1.59e-4,-2.66e-4 -0.06233,-0.06224 -0.0625,-0.0625 -1.72e-4,-2.58e-4 -0.06232,-0.0935 -0.0625,-0.09375 -1.84e-4,-2.49e-4 -0.0623,-0.06226 -0.0625,-0.0625 -1.96e-4,-2.39e-4 -0.06229,-0.06227 -0.0625,-0.0625 -2.08e-4,-2.29e-4 -0.06228,-0.06228 -0.0625,-0.0625 -2.19e-4,-2.19e-4 -0.06227,-0.06229 -0.0625,-0.0625 -2.29e-4,-2.08e-4 -0.06226,-0.0623 -0.0625,-0.0625 -2.39e-4,-1.96e-4 -0.06225,-0.06232 -0.0625,-0.0625 -2.49e-4,-1.84e-4 -0.09349,-0.06233 -0.09375,-0.0625 -2.58e-4,-1.72e-4 -0.06223,-0.06234 -0.0625,-0.0625 -2.66e-4,-1.59e-4 -0.09348,-0.0311 -0.09375,-0.03125 -2.73e-4,-1.46e-4 -0.09347,-0.03112 -0.09375,-0.03125 -2.8e-4,-1.32e-4 -0.09346,-0.06238 -0.09375,-0.0625 -2.86e-4,-1.18e-4 -0.06221,-0.03115 -0.0625,-0.03125 -2.92e-4,-1.04e-4 -0.09345,-0.03116 -0.09375,-0.03125 -2.96e-4,-8.9e-5 -0.09345,-0.03118 -0.09375,-0.03125 -3.01e-4,-7.5e-5 -0.09345,6e-5 -0.09375,0 -3.04e-4,-6e-5 -0.09344,-0.0312 -0.09375,-0.03125 -3.06e-4,-4.5e-5 -0.09344,3e-5 -0.09375,0 -3.08e-4,-3e-5 -0.09344,1.4e-5 -0.09375,0 -3.09e-4,-1.4e-5 -0.09344,-10e-7 -0.09375,0 l -4.09375,0 0,-22.09375 c 10e-7,-3.1e-4 1.4e-5,-0.09344 0,-0.09375 -1.4e-5,-3.09e-4 3e-5,-0.09344 0,-0.09375 -3e-5,-3.08e-4 4.5e-5,-0.09344 0,-0.09375 -4.5e-5,-3.06e-4 -0.03119,-0.09345 -0.03125,-0.09375 -6e-5,-3.04e-4 7.5e-5,-0.09345 0,-0.09375 -7.5e-5,-3.01e-4 -0.03116,-0.09345 -0.03125,-0.09375 -8.9e-5,-2.96e-4 -0.03115,-0.09346 -0.03125,-0.09375 -1.04e-4,-2.92e-4 -0.03113,-0.06221 -0.03125,-0.0625 -1.18e-4,-2.86e-4 -0.06237,-0.09347 -0.0625,-0.09375 -1.32e-4,-2.8e-4 -0.0311,-0.09348 -0.03125,-0.09375 -1.46e-4,-2.73e-4 -0.03109,-0.09348 -0.03125,-0.09375 -1.59e-4,-2.66e-4 -0.06233,-0.06224 -0.0625,-0.0625 -1.72e-4,-2.58e-4 -0.06232,-0.0935 -0.0625,-0.09375 -1.84e-4,-2.49e-4 -0.0623,-0.06226 -0.0625,-0.0625 -1.96e-4,-2.39e-4 -0.06229,-0.06227 -0.0625,-0.0625 -2.08e-4,-2.29e-4 -0.06228,-0.06228 -0.0625,-0.0625 -2.19e-4,-2.19e-4 -0.06227,-0.06229 -0.0625,-0.0625 -2.29e-4,-2.08e-4 -0.06226,-0.0623 -0.0625,-0.0625 -2.39e-4,-1.96e-4 -0.06225,-0.06232 -0.0625,-0.0625 -2.49e-4,-1.84e-4 -0.09349,-0.06233 -0.09375,-0.0625 -2.58e-4,-1.72e-4 -0.06223,-0.06234 -0.0625,-0.0625 -2.66e-4,-1.59e-4 -0.09348,-0.0311 -0.09375,-0.03125 -2.73e-4,-1.46e-4 -0.09347,-0.03112 -0.09375,-0.03125 -2.8e-4,-1.32e-4 -0.09346,-0.06238 -0.09375,-0.0625 -2.86e-4,-1.18e-4 -0.06221,-0.03115 -0.0625,-0.03125 -2.92e-4,-1.04e-4 -0.09345,-0.03116 -0.09375,-0.03125 -2.96e-4,-8.9e-5 -0.09345,-0.03117 -0.09375,-0.03125 -3.01e-4,-7.5e-5 -0.09345,6e-5 -0.09375,0 -3.04e-4,-6e-5 -0.09344,-0.0312 -0.09375,-0.03125 -3.06e-4,-4.5e-5 -0.09344,3e-5 -0.09375,0 -3.08e-4,-3e-5 -0.09344,1.4e-5 -0.09375,0 -3.09e-4,-1.4e-5 -0.09344,-10e-7 -0.09375,0 l -17.96875,0 c -1.22e-4,-6e-6 -0.01936,4e-6 -0.03125,0 -0.02378,-7e-6 -0.02696,-2e-6 -0.0625,0 -2.44e-4,-1.2e-5 -0.02696,2e-6 -0.0625,0 -0.05331,-4e-6 -0.09338,-1.8e-5 -0.09375,0 a 0.94711273,0.94711273 0 0 0 -0.15625,0 z"
       transform="translate(0,-2)" />
    <path
       sodipodi:type="inkscape:offset"
       inkscape:radius="0.96577269"
       inkscape:original="M 47 25 C 43.134007 25 40 28.134007 40 32 C 40 35.865993 43.134007 39 47 39 C 50.865993 39 54 35.865993 54 32 C 54 28.134007 50.865993 25 47 25 z M 36 43 L 36 49 L 42 49 L 42 67 L 36 67 L 36 73 L 60 73 L 60 67 L 54 67 L 54 43 L 36 43 z "
       style="opacity:0.15;fill:#000000;fill-opacity:1;stroke:none"
       id="path3742"
       d="m 47,24.03125 c -4.387935,0 -7.96875,3.580815 -7.96875,7.96875 0,4.387935 3.580815,7.96875 7.96875,7.96875 4.387935,0 7.96875,-3.580815 7.96875,-7.96875 0,-4.387935 -3.580815,-7.96875 -7.96875,-7.96875 z m -11.09375,18 A 0.96586927,0.96586927 0 0 0 35.03125,43 l 0,6 A 0.96586927,0.96586927 0 0 0 36,49.96875 l 5.03125,0 0,16.0625 -5.03125,0 A 0.96586927,0.96586927 0 0 0 35.03125,67 l 0,6 A 0.96586927,0.96586927 0 0 0 36,73.96875 l 24,0 A 0.96586927,0.96586927 0 0 0 60.96875,73 l 0,-6 A 0.96586927,0.96586927 0 0 0 60,66.03125 l -5.03125,0 0,-23.03125 A 0.96586927,0.96586927 0 0 0 54,42.03125 l -18,0 a 0.96586927,0.96586927 0 0 0 -0.09375,0 z"
       transform="translate(0,-2)" />
    <path
       sodipodi:type="inkscape:offset"
       inkscape:radius="0"
       inkscape:original="M 47 25 C 43.134007 25 40 28.134007 40 32 C 40 35.865993 43.134007 39 47 39 C 50.865993 39 54 35.865993 54 32 C 54 28.134007 50.865993 25 47 25 z M 36 43 L 36 49 L 42 49 L 42 67 L 36 67 L 36 73 L 60 73 L 60 67 L 54 67 L 54 43 L 36 43 z "
       style="opacity:0.4;fill:#000000;fill-opacity:1;stroke:none"
       id="path3733"
       d="m 47,25 c -3.865993,0 -7,3.134007 -7,7 0,3.865993 3.134007,7 7,7 3.865993,0 7,-3.134007 7,-7 0,-3.865993 -3.134007,-7 -7,-7 z m -11,18 0,6 6,0 0,18 -6,0 0,6 24,0 0,-6 -6,0 0,-24 -18,0 z"
       transform="translate(0,-2)" />
    <path
       style="fill:#ffffff;fill-opacity:1;stroke:none"
       d="m 47,22 c -3.865992,0 -6.999999,3.134007 -6.999999,7 0,3.865993 3.134007,7 6.999999,7 3.865993,0 7,-3.134007 7,-7 0,-3.865993 -3.134007,-7 -7,-7 z m -10.999999,18 0,6 6,0 0,18 -6,0 0,6 L 60,70 l 0,-6 -6,0 0,-24 -17.999999,0 z"
       id="path3716"
       inkscape:connector-curvature="0" />
  </g>
</svg>
