<?xml version="1.0" encoding="UTF-8" standalone="no"?>
<svg
   xmlns:dc="http://purl.org/dc/elements/1.1/"
   xmlns:cc="http://creativecommons.org/ns#"
   xmlns:rdf="http://www.w3.org/1999/02/22-rdf-syntax-ns#"
   xmlns:svg="http://www.w3.org/2000/svg"
   xmlns="http://www.w3.org/2000/svg"
   xmlns:xlink="http://www.w3.org/1999/xlink"
   xmlns:sodipodi="http://sodipodi.sourceforge.net/DTD/sodipodi-0.dtd"
   xmlns:inkscape="http://www.inkscape.org/namespaces/inkscape"
   width="96"
   height="96"
   version="1.0"
   id="svg125"
   sodipodi:docname="icarus.svg"
   inkscape:version="0.92.2 5c3e80d, 2017-08-06">
  <metadata
     id="metadata129">
    <rdf:RDF>
      <cc:Work
         rdf:about="">
        <dc:format>image/svg+xml</dc:format>
        <dc:type
           rdf:resource="http://purl.org/dc/dcmitype/StillImage" />
      </cc:Work>
    </rdf:RDF>
  </metadata>
  <sodipodi:namedview
     pagecolor="#ffffff"
     bordercolor="#666666"
     borderopacity="1"
     objecttolerance="10"
     gridtolerance="10"
     guidetolerance="10"
     inkscape:pageopacity="0"
     inkscape:pageshadow="2"
     inkscape:window-width="640"
     inkscape:window-height="480"
     id="namedview127"
     showgrid="false"
     inkscape:zoom="2.4583333"
     inkscape:cx="48"
     inkscape:cy="48"
     inkscape:window-x="0"
     inkscape:window-y="25"
     inkscape:window-maximized="0"
     inkscape:current-layer="svg125" />
  <defs
     id="defs49">
    <linearGradient
       id="linearGradient4384">
      <stop
         stop-color="#fff"
         offset="0"
         id="stop2" />
      <stop
         stop-color="#fff"
         stop-opacity="0"
         offset="1"
         id="stop4" />
    </linearGradient>
    <linearGradient
       id="ButtonShadow"
       x1="45.448"
       x2="45.448"
       y1="92.54"
       y2="7.0165"
       gradientTransform="scale(1.0059 .99417)"
       gradientUnits="userSpaceOnUse">
      <stop
         offset="0"
         id="stop7" />
      <stop
         stop-opacity=".58824"
         offset="1"
         id="stop9" />
    </linearGradient>
    <filter
       id="filter3174">
      <feGaussianBlur
         stdDeviation="1.71"
         id="feGaussianBlur12" />
    </filter>
    <filter
       id="filter3794"
       x="-.192"
       y="-.192"
       width="1.384"
       height="1.384">
      <feGaussianBlur
         stdDeviation="5.28"
         id="feGaussianBlur15" />
    </filter>
    <linearGradient
       id="linearGradient3613"
       x1="48"
       x2="48"
       y1="20.221"
       y2="138.66"
       gradientUnits="userSpaceOnUse">
      <stop
         stop-color="#fff"
         offset="0"
         id="stop18" />
      <stop
         stop-color="#fff"
         stop-opacity="0"
         offset="1"
         id="stop20" />
    </linearGradient>
    <linearGradient
       id="linearGradient3617"
       x1="48"
       x2="48"
       y1="90"
       y2="5.9877"
       gradientUnits="userSpaceOnUse">
      <stop
         stop-color="#3643B5"
         offset="0"
         id="stop23" />
      <stop
         stop-color="#8181F6"
         offset="1"
         id="stop25" />
    </linearGradient>
    <linearGradient
       id="ButtonShadow-0"
       x1="45.448"
       x2="45.448"
       y1="92.54"
       y2="7.0165"
       gradientTransform="matrix(1.0059 0 0 .99417 100 0)"
       gradientUnits="userSpaceOnUse">
      <stop
         offset="0"
         id="stop28" />
      <stop
         stop-opacity=".58824"
         offset="1"
         id="stop30" />
    </linearGradient>
    <linearGradient
       id="linearGradient3780"
       x1="32.251"
       x2="32.251"
       y1="6.1317"
       y2="90.239"
       gradientTransform="matrix(1.0238 0 0 1.0119 -1.1429 -98.071)"
       gradientUnits="userSpaceOnUse"
       xlink:href="#ButtonShadow-0" />
    <linearGradient
       id="linearGradient3721"
       x1="32.251"
       x2="32.251"
       y1="6.1317"
       y2="90.239"
       gradientTransform="translate(0,-97)"
       gradientUnits="userSpaceOnUse"
       xlink:href="#ButtonShadow-0" />
    <clipPath
       id="clipPath4355">
      <rect
         x="6"
         y="6"
         width="84"
         height="80"
         rx="6"
         ry="6"
         fill="#fff"
         id="rect35" />
    </clipPath>
    <linearGradient
       id="linearGradient4390"
       x1="48"
       x2="48"
       y1="88"
       y2="-40"
       gradientTransform="matrix(1,0,0,-1,0,92)"
       gradientUnits="userSpaceOnUse"
       xlink:href="#linearGradient4384" />
    <linearGradient
       id="linearGradient4429"
       x1="48"
       x2="112.12"
       y1="82"
       y2="82.455"
       gradientUnits="userSpaceOnUse"
       spreadMethod="reflect"
       xlink:href="#linearGradient4384" />
    <linearGradient
       id="linearGradient3870"
       x1="8"
       x2="50"
       y1="1033.4"
       y2="1033.4"
       gradientTransform="translate(-2 -956.36)"
       gradientUnits="userSpaceOnUse"
       spreadMethod="reflect">
      <stop
         stop-color="#523823"
         offset="0"
         id="stop40" />
      <stop
         stop-color="#79563a"
         offset=".1178"
         id="stop42" />
      <stop
         stop-color="#875c38"
         offset=".2381"
         id="stop44" />
      <stop
         stop-color="#a66e40"
         offset="1"
         id="stop46" />
    </linearGradient>
  </defs>
  <g
     display="none"
     id="g53">
    <rect
       x="5"
       y="7"
       width="86"
       height="85"
       rx="6"
       ry="6"
       fill="url(#ButtonShadow)"
       filter="url(#filter3174)"
       opacity=".9"
       id="rect51" />
  </g>
  <g
     id="g67">
    <g
       fill="url(#linearGradient3780)"
       id="g63">
      <path
         transform="scale(1,-1)"
         d="m12-95.031c-5.5111 0-10.031 4.5202-10.031 10.031v71c0 5.5111 4.5202 10.031 10.031 10.031h72c5.5111 0 10.031-4.5202 10.031-10.031v-71c0-5.5111-4.5202-10.031-10.031-10.031h-72z"
         opacity=".08"
         id="path55" />
      <path
         transform="scale(1,-1)"
         d="m12-94.031c-4.9716 0-9.0312 4.0596-9.0312 9.0312v71c0 4.9716 4.0596 9.0312 9.0312 9.0312h72c4.9716 0 9.0312-4.0596 9.0312-9.0312v-71c0-4.9716-4.0596-9.0312-9.0312-9.0312h-72z"
         opacity=".1"
         id="path57" />
      <path
         transform="scale(1,-1)"
         d="m12-93c-4.4091 0-8 3.5909-8 8v71c0 4.4091 3.5909 8 8 8h72c4.4091 0 8-3.5909 8-8v-71c0-4.4091-3.5909-8-8-8h-72z"
         opacity=".2"
         id="path59" />
      <rect
         transform="scale(1,-1)"
         x="5"
         y="-92"
         width="86"
         height="85"
         rx="7"
         ry="7"
         opacity=".3"
         id="rect61" />
    </g>
    <rect
       transform="scale(1,-1)"
       x="6"
       y="-91"
       width="84"
       height="84"
       rx="6"
       ry="6"
       fill="url(#linearGradient3721)"
       opacity=".45"
       id="rect65" />
  </g>
  <g
     id="g79">
    <rect
       x="6"
       y="64"
       width="84"
       height="26"
       rx="6"
       ry="6"
       color="#000000"
       fill="url(#linearGradient3870)"
       id="rect69" />
    <g
       id="g77">
      <path
         d="m6 82v2c0 3.324 2.676 6 6 6h72c3.324 0 6-2.676 6-6v-2c0 3.324-2.676 6-6 6h-72c-3.324 0-6-2.676-6-6z"
         color="#000000"
         opacity=".1"
         id="path71" />
      <path
         d="m6 83v1c0 3.324 2.676 6 6 6h72c3.324 0 6-2.676 6-6v-1c0 3.324-2.676 6-6 6h-72c-3.324 0-6-2.676-6-6z"
         color="#000000"
         opacity=".1"
         id="path73" />
      <path
         d="m6 80v1c0 3.324 2.676 6 6 6h72c3.324 0 6-2.676 6-6v-1c0 3.324-2.676 6-6 6h-72c-3.324 0-6-2.676-6-6z"
         opacity=".2"
         id="path75" />
    </g>
  </g>
  <g
     id="g87">
    <rect
       x="6"
       y="6"
       width="84"
       height="80"
       rx="6"
       ry="6"
       fill="url(#linearGradient3617)"
       id="rect81" />
    <path
       d="m12 86c-3.324 0-6-2.676-6-6v-68c0-3.324 2.676-6 6-6h72c3.324 0 6 2.676 6 6v68c0 3.324-2.676 6-6 6zm0-0.96875h72c2.8049 0 5.0312-2.2264 5.0312-5.0312v-68c0-2.8049-2.2264-5.0312-5.0312-5.0312h-72c-2.8049 0-5.0312 2.2264-5.0312 5.0312v68c0 2.8049 2.2264 5.0312 5.0312 5.0312z"
       fill="url(#linearGradient4390)"
       opacity=".3"
       id="path83" />
    <path
       d="m6 78v2c0 3.324 2.676 6 6 6h72c3.324 0 6-2.676 6-6v-2c0 3.324-2.676 6-6 6h-72c-3.324 0-6-2.676-6-6z"
       fill="url(#linearGradient4429)"
       opacity=".1"
       id="path85" />
  </g>
  <g
     id="g91">
    <rect
       x="15"
       y="15"
       width="66"
       height="62"
       rx="12"
       ry="12"
       clip-path="url(#clipPath4355)"
       fill="url(#linearGradient3613)"
       filter="url(#filter3794)"
       opacity=".1"
       stroke="#fff"
       stroke-linecap="round"
       stroke-width=".5"
       id="rect89" />
  </g>
  <defs
     id="defs101">
    <filter
       id="w">
      <feGaussianBlur
         stdDeviation="0.23199685"
         id="feGaussianBlur93" />
    </filter>
    <linearGradient
       id="a"
       gradientUnits="userSpaceOnUse"
       x1="8"
       y1="0.99997185"
       x2="8"
       y2="14.99997585">
      <stop
         stop-color="#fafafa"
         offset="0"
         id="stop96" />
      <stop
         stop-color="#ebebeb"
         offset="1"
         id="stop98" />
    </linearGradient>
  </defs>
  <g
     transform="translate(0,-2)"
     id="g123">
    <path
       style="opacity:0.15;fill:#000000"
       d="m 6.7304688,0.75 a 0.250025,0.250025 0 0 0 -0.023438,0.003906 L 6.7558594,0.75 a 0.250025,0.250025 0 0 0 -0.025391,0 z m 0.025391,0 C 6.6281022,0.7469348 6.5080204,0.75394367 6.3847656,0.81445312 6.2001889,0.90508625 6.1022742,1.0925119 6.078125,1.2734375 6.0539758,1.4543631 6.0905062,1.6466196 6.1796875,1.828125 6.2837273,2.0399222 6.4058073,2.7256912 6.4667969,3.8945312 6.5019831,4.5688609 6.4963469,5.8222164 6.5058594,6.8535156 6.3375765,6.6813398 6.1246562,6.5226294 5.8183594,6.3613281 5.5381056,6.2137306 5.3073951,6.1231844 5.0625,6.1152344 4.8176672,6.1073255 4.5896165,6.1886966 4.3398438,6.3222656 3.8660779,6.5756233 2.9887202,6.8681455 2.4960938,6.9394531 2.0482668,7.0042625 1.7911989,7.0373946 1.5800781,7.1660156 1.4745177,7.2303261 1.3783,7.3533618 1.3574219,7.4804688 c -0.020878,0.1271069 0.00925,0.2291787 0.042969,0.3300781 0.083656,0.2505011 0.2769815,0.3683018 0.4882813,0.4882812 0.2112997,0.1199795 0.443698,0.2148438 0.6835937,0.2148438 0.1452043,0 0.2618155,-0.040629 0.4355469,-0.09375 C 3.1815439,8.3668014 3.3831743,8.2952575 3.5800781,8.2148438 3.9634201,8.0582935 4.1841086,7.9801312 4.328125,7.9394531 4.317251,8.0041755 4.3069517,8.0698627 4.2890625,8.1425781 4.0127784,9.2649765 2.9501626,10.716158 1.4628906,11.912109 1.1758493,12.142929 0.99375358,12.30028 0.875,12.455078 c -0.0593768,0.0774 -0.11074682,0.159197 -0.12304688,0.271484 -0.0122303,0.111651 0.0422643,0.235323 0.10742188,0.304688 0.0791053,0.08344 0.1264455,0.08576 0.1777344,0.09961 0.051289,0.01385 0.1033334,0.02149 0.1601562,0.02149 0.1165352,0 0.1982225,-0.02452 0.3320313,-0.05664 0.1338087,-0.03212 0.2928034,-0.0744 0.453125,-0.121094 0.1603215,-0.04669 0.3218399,-0.09779 0.4589843,-0.144531 0.1371445,-0.04674 0.2399296,-0.08344 0.328125,-0.130859 0.8783061,-0.472354 1.8888434,-1.404094 2.4238282,-2.236328 0.172976,-0.26911 0.4779343,-0.8376619 0.703125,-1.3046879 C 6.004078,8.9350632 6.128834,8.6977793 6.2421875,8.5 6.355541,8.3022207 6.4658601,8.1357408 6.5058594,8.0878906 c 0.00777,-0.00929 0.0081,-0.020011 0.015625,-0.029297 -1.105e-4,0.3877691 0.016272,0.5341485 0.013672,0.9648437 -0.010549,1.7464475 -0.01847,2.6440155 -0.060547,3.0761715 -0.021039,0.216078 -0.060501,0.30749 -0.058594,0.304688 0.00191,-0.0028 0.050957,-0.02314 -0.021484,-0.01172 0.031768,-0.005 -0.090763,0.0018 -0.2128906,-0.0078 -0.1221279,-0.0096 -0.2737125,-0.02581 -0.421875,-0.04687 -0.2264318,-0.03219 -0.3754558,-0.05079 -0.5,-0.05078 -0.1245441,4e-6 -0.2575023,0.02889 -0.3496094,0.109375 -0.081291,0.07102 -0.1518552,0.180253 -0.1640624,0.304688 -0.012207,0.124435 0.029292,0.23826 0.087891,0.333984 0.1171965,0.191448 0.3101325,0.361303 0.6015625,0.585938 0.3218147,0.248074 0.4897947,0.444521 0.7675781,0.904297 0.076729,0.126993 0.1585265,0.251055 0.2285156,0.351562 0.034995,0.05025 0.066154,0.09513 0.095703,0.132813 0.029549,0.03768 0.048182,0.06269 0.097656,0.103515 C 6.7653619,15.228555 6.8875346,15.25 7.0429688,15.25 c 0.154842,0 0.255587,-0.06719 0.3535156,-0.140625 0.097929,-0.07343 0.189668,-0.166897 0.2792968,-0.273437 0.1792578,-0.213082 0.345213,-0.47739 0.4414063,-0.748047 0.1257646,-0.353849 0.2014702,-0.67736 0.2304687,-1.144532 0.028999,-0.467171 0.015131,-1.08231 -0.023437,-2.070312 -0.051283,-1.3137716 -0.075481,-2.0009969 -0.082031,-2.419922 0.1097949,0.1347841 0.2182465,0.2681553 0.3496094,0.4394531 0.3787984,0.4939681 0.9871139,1.2512389 1.359375,1.6933599 0.6670081,0.792016 1.0325481,1.219243 1.4199221,1.472656 0.387374,0.253412 0.771271,0.284344 1.330078,0.291015 0.395495,0.0048 0.843484,-0.03166 1.240234,-0.0918 0.39675,-0.06013 0.723482,-0.127963 0.951172,-0.251953 0.110248,-0.06002 0.201384,-0.123843 0.273438,-0.222656 0.07205,-0.09881 0.105108,-0.263652 0.05469,-0.388672 C 15.119861,11.144492 14.906327,11.06621 14.621094,10.960938 12.718811,10.258862 11.462774,9.4326558 9.6035156,7.6523438 L 9.5566406,7.6074219 C 9.7784098,7.3815352 10.32641,6.907126 10.875,6.4667969 c 0.281494,-0.2259432 0.562224,-0.4419404 0.792969,-0.6132813 0.230744,-0.1713408 0.427464,-0.3028509 0.484375,-0.3320312 0.274999,-0.1410192 0.463848,-0.246864 0.583984,-0.4414063 0.06007,-0.097271 0.08682,-0.2187022 0.07813,-0.328125 -0.0087,-0.1094228 -0.04353,-0.2062748 -0.08789,-0.3046875 C 12.59353,4.1521492 12.307416,3.8831781 11.998047,3.640625 11.843362,3.5193484 11.683479,3.4119409 11.53125,3.3300781 11.379021,3.2482153 11.245762,3.1835938 11.074219,3.1835938 10.862263,3.1835937 10.673825,3.3144158 10.5625,3.484375 10.451175,3.6543342 10.388288,3.8661388 10.355469,4.1171875 10.298189,4.5555467 10.180301,4.8061647 9.7519531,5.3652344 9.5098552,5.6812121 9.2037183,6.0469351 8.9511719,6.3300781 8.8260203,6.4703921 8.712995,6.5882328 8.6308594,6.6699219 8.5744286,6.6140504 8.5089324,6.5474342 8.4414062,6.4667969 L 8.1953125,6.1699219 V 5.1796875 C 8.1957152,4.4233514 8.215379,3.8054617 8.2539062,3.3359375 8.2924335,2.8664133 8.3578539,2.5366 8.4101562,2.4121094 8.4930992,2.2147149 8.5470146,2.0538787 8.5488281,1.8847656 8.5506417,1.7156526 8.4836372,1.5552362 8.3886719,1.4277344 8.2200906,1.2021248 7.9509721,1.0714374 7.6523438,0.95507812 7.3537154,0.83871884 7.0327926,0.7567765 6.7558594,0.75 Z M 5.0625,6.1152344 a 0.250025,0.250025 0 0 0 -0.072266,0.00781 z M 3.5703125,3.0664062 C 3.4469577,3.0733631 3.3285875,3.1286464 3.2460938,3.1855469 3.0651278,3.3103678 2.9610345,3.540106 2.9804688,3.7558594 2.999903,3.9716128 3.1055295,4.1735369 3.265625,4.3867188 3.5976587,4.8289208 4.104859,5.3077569 4.5234375,5.5605469 4.8691301,5.7692885 5.2108134,5.853422 5.5078125,5.7285156 5.8048116,5.6036092 5.9586957,5.2733757 5.9570312,4.9003906 5.9547141,4.4414821 5.7660036,4.0296864 5.421875,3.7304688 5.0777464,3.4312511 4.5959062,3.2338914 3.984375,3.1152344 3.8085185,3.0811271 3.6937154,3.0594078 3.5703125,3.0664062 Z m 0,0 a 0.250025,0.250025 0 0 0 -0.064453,0.013672 z"
       id="path103"
       inkscape:original="m6.7492 1.0003c-0.10545-0.00253-0.19406 0.00947-0.25514 0.039456-0.18879 0.092702-0.22916 0.39501-0.0904 0.67742 0.29861 0.60789 0.40906 2.7252 0.38139 7.3086-0.0211 3.4932-0.0279 3.5635-0.35198 3.6146-0.0827 0.01304-0.40148-0.01198-0.7085-0.05563-0.44614-0.06343-0.57645-0.06341-0.64902 0-0.19435 0.1698-0.0519 0.40252 0.51294 0.8379 0.34158 0.26331 0.5439 0.50081 0.82954 0.97359 0.14784 0.24469 0.3122 0.48069 0.36514 0.52438 0.0529 0.0437 0.17003 0.07936 0.26023 0.07936 0.22518 0 0.67322-0.53258 0.83794-0.99605 0.24149-0.67945 0.27066-1.1488 0.19368-3.1208-0.10788-2.7637-0.11101-3.0332-0.0345-3.0332 0.037 0 0.37444 0.40042 0.74973 0.8898 0.37528 0.48938 0.98345 1.2473 1.3514 1.6843 1.3318 1.5814 1.456 1.6626 2.5616 1.6758 0.75483 0.0091 1.7556-0.14264 2.0696-0.31363 0.36785-0.20025 0.28905-0.39562-0.238-0.59014-1.9292-0.71201-3.2312-1.5699-5.1035-3.3627l-0.23237-0.22239 0.14172-0.1478c0.46937-0.48939 2.308-1.9652 2.6967-2.1645 0.52896-0.27125 0.61461-0.40994 0.46209-0.74829-0.18551-0.41153-1.0862-1.1177-1.4256-1.1177-0.23696 0-0.41107 0.2658-0.47016 0.7178-0.0622 0.47601-0.21407 0.79415-0.65267 1.3666-0.49452 0.64543-1.2343 1.4748-1.3154 1.4748-0.0435 0-0.21672-0.16454-0.38503-0.36553l-0.306-0.36542 5.6e-4 -1.0804c8.1e-4 -1.5214 0.081-2.4981 0.23502-2.8647 0.15568-0.3705 0.15741-0.53861 8e-3 -0.73921-0.20941-0.28025-0.98161-0.56523-1.4385-0.57641zm-3.1648 2.3162c-0.0766 0.00432-0.12731 0.028771-0.19544 0.075764-0.238 0.16416-0.21106 0.46285 0.0761 0.84523 0.30847 0.41082 0.81523 0.88426 1.1867 1.1086 0.61366 0.37055 1.059 0.18326 1.0562-0.4442-4e-3 -0.7922-0.60374-1.3139-1.7721-1.5406-0.17206-0.033371-0.27478-0.049151-0.35143-0.044804zm1.4696 3.0477c-0.18574-6e-3 -0.36289 0.054236-0.59573 0.17875-0.51274 0.2742-1.3848 0.5657-1.9267 0.64414-0.88516 0.1281-1.0089 0.2035-0.89476 0.5451 0.0751 0.22488 0.61386 0.53079 0.93478 0.53079 0.12715 0 0.53456-0.12455 0.91378-0.27942 0.84651-0.3457 1.0647-0.39951 1.1106-0.27371 0.0186 0.050888-0.0107 0.27277-0.0649 0.49308-0.29898 1.2146-1.3943 2.6828-2.9121 3.9033-0.56477 0.45415-0.69812 0.62806-0.57849 0.75399 0.0221 0.02331 0.0927 0.04236 0.15686 0.04236 0.18017 0 1.2416-0.30914 1.4545-0.4236 0.82497-0.44367 1.829-1.3701 2.3306-2.1504 0.15728-0.24469 0.46686-0.82002 0.68793-1.2785 0.22107-0.45848 0.51043-0.96335 0.64305-1.122 0.43871-0.52467 0.27908-0.87561-0.61187-1.3448-0.26729-0.14077-0.46162-0.2131-0.64737-0.21913z"
       transform="matrix(4,0,0,4,16,17)"
       inkscape:radius="0.25"
       sodipodi:type="inkscape:offset" />
    <g
       id="Bevel1">
      <path
         fill="#000"
         opacity=".10"
         sodipodi:type="inkscape:offset"
         inkscape:radius="0.5"
         transform="translate(16,17) scale(4)"
         inkscape:original="m6.7492 1.0003c-0.10545-0.00253-0.19406 0.00947-0.25514 0.039456-0.18879 0.092702-0.22916 0.39501-0.0904 0.67742 0.29861 0.60789 0.40906 2.7252 0.38139 7.3086-0.0211 3.4932-0.0279 3.5635-0.35198 3.6146-0.0827 0.01304-0.40148-0.01198-0.7085-0.05563-0.44614-0.06343-0.57645-0.06341-0.64902 0-0.19435 0.1698-0.0519 0.40252 0.51294 0.8379 0.34158 0.26331 0.5439 0.50081 0.82954 0.97359 0.14784 0.24469 0.3122 0.48069 0.36514 0.52438 0.0529 0.0437 0.17003 0.07936 0.26023 0.07936 0.22518 0 0.67322-0.53258 0.83794-0.99605 0.24149-0.67945 0.27066-1.1488 0.19368-3.1208-0.10788-2.7637-0.11101-3.0332-0.0345-3.0332 0.037 0 0.37444 0.40042 0.74973 0.8898 0.37528 0.48938 0.98345 1.2473 1.3514 1.6843 1.3318 1.5814 1.456 1.6626 2.5616 1.6758 0.75483 0.0091 1.7556-0.14264 2.0696-0.31363 0.36785-0.20025 0.28905-0.39562-0.238-0.59014-1.9292-0.71201-3.2312-1.5699-5.1035-3.3627l-0.23237-0.22239 0.14172-0.1478c0.46937-0.48939 2.308-1.9652 2.6967-2.1645 0.52896-0.27125 0.61461-0.40994 0.46209-0.74829-0.18551-0.41153-1.0862-1.1177-1.4256-1.1177-0.23696 0-0.41107 0.2658-0.47016 0.7178-0.0622 0.47601-0.21407 0.79415-0.65267 1.3666-0.49452 0.64543-1.2343 1.4748-1.3154 1.4748-0.0435 0-0.21672-0.16454-0.38503-0.36553l-0.306-0.36542 5.6e-4 -1.0804c8.1e-4 -1.5214 0.081-2.4981 0.23502-2.8647 0.15568-0.3705 0.15741-0.53861 8e-3 -0.73921-0.20941-0.28025-0.98161-0.56523-1.4385-0.57641zm-3.1648 2.3162c-0.0766 0.00432-0.12731 0.028771-0.19544 0.075764-0.238 0.16416-0.21106 0.46285 0.0761 0.84523 0.30847 0.41082 0.81523 0.88426 1.1867 1.1086 0.61366 0.37055 1.059 0.18326 1.0562-0.4442-4e-3 -0.7922-0.60374-1.3139-1.7721-1.5406-0.17206-0.033371-0.27478-0.049151-0.35143-0.044804zm1.4696 3.0477c-0.18574-6e-3 -0.36289 0.054236-0.59573 0.17875-0.51274 0.2742-1.3848 0.5657-1.9267 0.64414-0.88516 0.1281-1.0089 0.2035-0.89476 0.5451 0.0751 0.22488 0.61386 0.53079 0.93478 0.53079 0.12715 0 0.53456-0.12455 0.91378-0.27942 0.84651-0.3457 1.0647-0.39951 1.1106-0.27371 0.0186 0.050888-0.0107 0.27277-0.0649 0.49308-0.29898 1.2146-1.3943 2.6828-2.9121 3.9033-0.56477 0.45415-0.69812 0.62806-0.57849 0.75399 0.0221 0.02331 0.0927 0.04236 0.15686 0.04236 0.18017 0 1.2416-0.30914 1.4545-0.4236 0.82497-0.44367 1.829-1.3701 2.3306-2.1504 0.15728-0.24469 0.46686-0.82002 0.68793-1.2785 0.22107-0.45848 0.51043-0.96335 0.64305-1.122 0.43871-0.52467 0.27908-0.87561-0.61187-1.3448-0.26729-0.14077-0.46162-0.2131-0.64737-0.21913z"
         id="path106" />
    </g>
    <g
       id="Bevel2">
      <path
         fill="#000"
         opacity=".05"
         sodipodi:type="inkscape:offset"
         inkscape:radius="0.75"
         transform="translate(16,17) scale(4)"
         inkscape:original="m6.7492 1.0003c-0.10545-0.00253-0.19406 0.00947-0.25514 0.039456-0.18879 0.092702-0.22916 0.39501-0.0904 0.67742 0.29861 0.60789 0.40906 2.7252 0.38139 7.3086-0.0211 3.4932-0.0279 3.5635-0.35198 3.6146-0.0827 0.01304-0.40148-0.01198-0.7085-0.05563-0.44614-0.06343-0.57645-0.06341-0.64902 0-0.19435 0.1698-0.0519 0.40252 0.51294 0.8379 0.34158 0.26331 0.5439 0.50081 0.82954 0.97359 0.14784 0.24469 0.3122 0.48069 0.36514 0.52438 0.0529 0.0437 0.17003 0.07936 0.26023 0.07936 0.22518 0 0.67322-0.53258 0.83794-0.99605 0.24149-0.67945 0.27066-1.1488 0.19368-3.1208-0.10788-2.7637-0.11101-3.0332-0.0345-3.0332 0.037 0 0.37444 0.40042 0.74973 0.8898 0.37528 0.48938 0.98345 1.2473 1.3514 1.6843 1.3318 1.5814 1.456 1.6626 2.5616 1.6758 0.75483 0.0091 1.7556-0.14264 2.0696-0.31363 0.36785-0.20025 0.28905-0.39562-0.238-0.59014-1.9292-0.71201-3.2312-1.5699-5.1035-3.3627l-0.23237-0.22239 0.14172-0.1478c0.46937-0.48939 2.308-1.9652 2.6967-2.1645 0.52896-0.27125 0.61461-0.40994 0.46209-0.74829-0.18551-0.41153-1.0862-1.1177-1.4256-1.1177-0.23696 0-0.41107 0.2658-0.47016 0.7178-0.0622 0.47601-0.21407 0.79415-0.65267 1.3666-0.49452 0.64543-1.2343 1.4748-1.3154 1.4748-0.0435 0-0.21672-0.16454-0.38503-0.36553l-0.306-0.36542 5.6e-4 -1.0804c8.1e-4 -1.5214 0.081-2.4981 0.23502-2.8647 0.15568-0.3705 0.15741-0.53861 8e-3 -0.73921-0.20941-0.28025-0.98161-0.56523-1.4385-0.57641zm-3.1648 2.3162c-0.0766 0.00432-0.12731 0.028771-0.19544 0.075764-0.238 0.16416-0.21106 0.46285 0.0761 0.84523 0.30847 0.41082 0.81523 0.88426 1.1867 1.1086 0.61366 0.37055 1.059 0.18326 1.0562-0.4442-4e-3 -0.7922-0.60374-1.3139-1.7721-1.5406-0.17206-0.033371-0.27478-0.049151-0.35143-0.044804zm1.4696 3.0477c-0.18574-6e-3 -0.36289 0.054236-0.59573 0.17875-0.51274 0.2742-1.3848 0.5657-1.9267 0.64414-0.88516 0.1281-1.0089 0.2035-0.89476 0.5451 0.0751 0.22488 0.61386 0.53079 0.93478 0.53079 0.12715 0 0.53456-0.12455 0.91378-0.27942 0.84651-0.3457 1.0647-0.39951 1.1106-0.27371 0.0186 0.050888-0.0107 0.27277-0.0649 0.49308-0.29898 1.2146-1.3943 2.6828-2.9121 3.9033-0.56477 0.45415-0.69812 0.62806-0.57849 0.75399 0.0221 0.02331 0.0927 0.04236 0.15686 0.04236 0.18017 0 1.2416-0.30914 1.4545-0.4236 0.82497-0.44367 1.829-1.3701 2.3306-2.1504 0.15728-0.24469 0.46686-0.82002 0.68793-1.2785 0.22107-0.45848 0.51043-0.96335 0.64305-1.122 0.43871-0.52467 0.27908-0.87561-0.61187-1.3448-0.26729-0.14077-0.46162-0.2131-0.64737-0.21913z"
         id="path109" />
    </g>
    <path
       d="m6.7492 1.0003c-0.10545-0.00253-0.19406 0.00947-0.25514 0.039456-0.18879 0.092702-0.22916 0.39501-0.0904 0.67742 0.29861 0.60789 0.40906 2.7252 0.38139 7.3086-0.0211 3.4932-0.0279 3.5635-0.35198 3.6146-0.0827 0.01304-0.40148-0.01198-0.7085-0.05563-0.44614-0.06343-0.57645-0.06341-0.64902 0-0.19435 0.1698-0.0519 0.40252 0.51294 0.8379 0.34158 0.26331 0.5439 0.50081 0.82954 0.97359 0.14784 0.24469 0.3122 0.48069 0.36514 0.52438 0.0529 0.0437 0.17003 0.07936 0.26023 0.07936 0.22518 0 0.67322-0.53258 0.83794-0.99605 0.24149-0.67945 0.27066-1.1488 0.19368-3.1208-0.10788-2.7637-0.11101-3.0332-0.0345-3.0332 0.037 0 0.37444 0.40042 0.74973 0.8898 0.37528 0.48938 0.98345 1.2473 1.3514 1.6843 1.3318 1.5814 1.456 1.6626 2.5616 1.6758 0.75483 0.0091 1.7556-0.14264 2.0696-0.31363 0.36785-0.20025 0.28905-0.39562-0.238-0.59014-1.9292-0.71201-3.2312-1.5699-5.1035-3.3627l-0.23237-0.22239 0.14172-0.1478c0.46937-0.48939 2.308-1.9652 2.6967-2.1645 0.52896-0.27125 0.61461-0.40994 0.46209-0.74829-0.18551-0.41153-1.0862-1.1177-1.4256-1.1177-0.23696 0-0.41107 0.2658-0.47016 0.7178-0.0622 0.47601-0.21407 0.79415-0.65267 1.3666-0.49452 0.64543-1.2343 1.4748-1.3154 1.4748-0.0435 0-0.21672-0.16454-0.38503-0.36553l-0.306-0.36542 5.6e-4 -1.0804c8.1e-4 -1.5214 0.081-2.4981 0.23502-2.8647 0.15568-0.3705 0.15741-0.53861 8e-3 -0.73921-0.20941-0.28025-0.98161-0.56523-1.4385-0.57641zm-3.1648 2.3162c-0.0766 0.00432-0.12731 0.028771-0.19544 0.075764-0.238 0.16416-0.21106 0.46285 0.0761 0.84523 0.30847 0.41082 0.81523 0.88426 1.1867 1.1086 0.61366 0.37055 1.059 0.18326 1.0562-0.4442-4e-3 -0.7922-0.60374-1.3139-1.7721-1.5406-0.17206-0.033371-0.27478-0.049151-0.35143-0.044804zm1.4696 3.0477c-0.18574-6e-3 -0.36289 0.054236-0.59573 0.17875-0.51274 0.2742-1.3848 0.5657-1.9267 0.64414-0.88516 0.1281-1.0089 0.2035-0.89476 0.5451 0.0751 0.22488 0.61386 0.53079 0.93478 0.53079 0.12715 0 0.53456-0.12455 0.91378-0.27942 0.84651-0.3457 1.0647-0.39951 1.1106-0.27371 0.0186 0.050888-0.0107 0.27277-0.0649 0.49308-0.29898 1.2146-1.3943 2.6828-2.9121 3.9033-0.56477 0.45415-0.69812 0.62806-0.57849 0.75399 0.0221 0.02331 0.0927 0.04236 0.15686 0.04236 0.18017 0 1.2416-0.30914 1.4545-0.4236 0.82497-0.44367 1.829-1.3701 2.3306-2.1504 0.15728-0.24469 0.46686-0.82002 0.68793-1.2785 0.22107-0.45848 0.51043-0.96335 0.64305-1.122 0.43871-0.52467 0.27908-0.87561-0.61187-1.3448-0.26729-0.14077-0.46162-0.2131-0.64737-0.21913z"
       fill="url(#a)"
       id="base"
       transform="translate(16,16) scale(4)" />
    <path
       style="opacity:0.3;fill:#000000;stroke-width:4"
       d="M 41.341797 20.064453 C 41.225717 20.585311 41.304963 21.237664 41.615234 21.869141 C 42.653475 23.982721 43.121926 30.677349 43.154297 44.427734 C 43.141955 30.017933 42.677675 23.031986 41.615234 20.869141 C 41.483564 20.60116 41.394461 20.329137 41.341797 20.064453 z M 49.126953 22.044922 C 49.054484 22.388686 48.923843 22.780224 48.720703 23.263672 C 48.104623 24.730072 47.78445 28.637056 47.78125 34.722656 L 47.78125 35.722656 C 47.78445 29.637056 48.104623 25.730072 48.720703 24.263672 C 49.150344 23.241177 49.279888 22.605246 49.126953 22.044922 z M 28.994141 29.314453 C 28.777246 29.986371 29.058924 30.883344 29.859375 31.949219 C 31.093255 33.592499 33.121542 35.487406 34.607422 36.384766 C 37.062062 37.866966 38.843231 37.117262 38.832031 34.607422 C 38.830982 34.399627 38.818388 34.196509 38.796875 33.998047 C 38.618341 36.174437 36.92229 36.782566 34.607422 35.384766 C 33.121542 34.487406 31.093255 32.592499 29.859375 30.949219 C 29.407369 30.347331 29.122629 29.800271 28.994141 29.314453 z M 66.164062 33.634766 C 65.947254 34.14316 65.33524 34.587724 64.150391 35.195312 C 62.595591 35.992513 55.240761 41.895956 53.363281 43.853516 L 52.796875 44.443359 L 53.296875 44.923828 L 53.363281 44.853516 C 55.240761 42.895956 62.595591 36.992513 64.150391 36.195312 C 66.023723 35.23467 66.501321 34.686412 66.164062 33.634766 z M 42.121094 44.210938 C 41.995467 44.678685 41.70529 45.173064 41.253906 45.712891 C 40.723426 46.347491 39.565921 48.367252 38.681641 50.201172 C 37.797361 52.035092 36.558808 54.335693 35.929688 55.314453 C 33.923288 58.435653 29.907302 62.141336 26.607422 63.916016 C 25.755822 64.373856 21.509743 65.609375 20.789062 65.609375 C 20.579774 65.609375 20.378275 65.555595 20.253906 65.486328 C 19.945731 65.91359 19.93423 66.201527 20.162109 66.441406 C 20.250509 66.534646 20.532422 66.609375 20.789062 66.609375 C 21.509743 66.609375 25.755822 65.373856 26.607422 64.916016 C 29.907302 63.141336 33.923288 59.435653 35.929688 56.314453 C 36.558808 55.335693 37.797361 53.035092 38.681641 51.201172 C 39.565921 49.367252 40.723426 47.347491 41.253906 46.712891 C 42.038401 45.774683 42.34075 44.97573 42.121094 44.210938 z M 33.791016 44.599609 C 33.192899 44.661352 32.057681 45.069344 29.941406 45.933594 C 28.424526 46.553074 26.795709 47.052734 26.287109 47.052734 C 25.003429 47.052734 22.847275 45.829208 22.546875 44.929688 C 22.534946 44.893987 22.532077 44.866301 22.521484 44.832031 C 22.355826 45.104616 22.386375 45.449342 22.546875 45.929688 C 22.847275 46.829208 25.003429 48.052734 26.287109 48.052734 C 26.795709 48.052734 28.424526 47.553074 29.941406 46.933594 C 33.098046 45.644477 34.062105 45.379424 34.328125 45.755859 C 34.394278 45.318848 34.427472 44.956684 34.384766 44.839844 C 34.315916 44.651144 34.149886 44.562564 33.791016 44.599609 z M 48.162109 45.400391 C 47.999024 45.400391 47.935713 45.841929 47.96875 47.800781 C 47.978076 46.775471 48.034247 46.400391 48.162109 46.400391 C 48.310109 46.400391 49.658996 48.001464 51.160156 49.958984 C 52.661276 51.916504 55.094606 54.947313 56.566406 56.695312 C 61.893606 63.020913 62.3901 63.345638 66.8125 63.398438 C 69.83182 63.434838 73.835797 62.828491 75.091797 62.144531 C 76.01522 61.641839 76.233539 61.147551 75.748047 60.65625 C 75.596638 60.818158 75.391947 60.981136 75.091797 61.144531 C 73.835797 61.828491 69.83182 62.434838 66.8125 62.398438 C 62.3901 62.345638 61.893606 62.020913 56.566406 55.695312 C 55.094606 53.947313 52.661276 50.916504 51.160156 48.958984 C 49.658996 47.001464 48.310109 45.400391 48.162109 45.400391 z M 48.445312 64.232422 C 48.401406 66.947092 48.129116 68.317 47.525391 70.015625 C 46.866511 71.869505 45.074548 74 44.173828 74 C 43.813028 74 43.344412 73.856441 43.132812 73.681641 C 42.921053 73.506881 42.263235 72.562744 41.671875 71.583984 C 40.529315 69.692864 39.719836 68.744646 38.353516 67.691406 C 37.154107 66.7669 36.444827 66.074667 36.146484 65.523438 C 35.648948 66.187635 36.28765 67.099033 38.353516 68.691406 C 39.719836 69.744646 40.529315 70.692864 41.671875 72.583984 C 42.263235 73.562744 42.921053 74.506881 43.132812 74.681641 C 43.344412 74.856441 43.813028 75 44.173828 75 C 45.074548 75 46.866511 72.869505 47.525391 71.015625 C 48.196022 69.128754 48.451278 67.601741 48.445312 64.232422 z "
       transform="translate(0,2)"
       id="path113" />
    <path
       style="fill:#ffffff;stroke-width:4"
       d="M 42.998047 18 L 42.996094 18.001953 C 42.574294 17.991833 42.220882 18.038259 41.976562 18.158203 C 41.400547 18.441046 41.172463 19.213397 41.341797 20.064453 C 41.433371 19.653556 41.643542 19.321727 41.976562 19.158203 C 42.220882 19.038259 42.574294 18.991833 42.996094 19.001953 L 42.998047 19 C 44.825607 19.04472 47.914313 20.185641 48.751953 21.306641 C 48.937256 21.555431 49.058225 21.793115 49.126953 22.044922 C 49.276636 21.334885 49.154635 20.847287 48.751953 20.306641 C 47.914313 19.185641 44.825607 18.04472 42.998047 18 z M 30.337891 27.265625 C 30.031491 27.282905 29.829161 27.380387 29.556641 27.568359 C 28.979266 27.966602 28.796114 28.565707 28.994141 29.314453 C 29.088488 29.022175 29.26806 28.767408 29.556641 28.568359 C 29.829161 28.380387 30.031491 28.282905 30.337891 28.265625 C 30.644491 28.248237 31.055901 28.311829 31.744141 28.445312 C 36.111118 29.292649 38.490327 31.170035 38.796875 33.998047 C 38.807655 33.866636 38.832669 33.750337 38.832031 33.607422 C 38.816031 30.438622 36.417581 28.352113 31.744141 27.445312 C 31.055901 27.311829 30.644491 27.248237 30.337891 27.265625 z M 60.294922 27.730469 C 59.347082 27.730469 58.650422 28.793562 58.414062 30.601562 C 58.165262 32.505603 57.559088 33.778559 55.804688 36.068359 C 53.826608 38.650079 50.867369 41.966797 50.542969 41.966797 C 50.368969 41.966797 49.675193 41.309819 49.001953 40.505859 L 47.779297 39.042969 L 47.779297 40.042969 L 49.001953 41.505859 C 49.675193 42.309819 50.368969 42.966797 50.542969 42.966797 C 50.867369 42.966797 53.826608 39.650079 55.804688 37.068359 C 57.559088 34.778559 58.165262 33.505603 58.414062 31.601562 C 58.650422 29.793562 59.347082 28.730469 60.294922 28.730469 C 61.652522 28.730469 65.256007 31.555052 65.998047 33.201172 C 66.067971 33.356292 66.120404 33.498628 66.164062 33.634766 C 66.334419 33.235296 66.266488 32.796682 65.998047 32.201172 C 65.256007 30.555052 61.652522 27.730469 60.294922 27.730469 z M 36.216797 39.457031 C 35.473837 39.433031 34.765344 39.673819 33.833984 40.171875 C 31.783024 41.268675 28.294553 42.434287 26.126953 42.748047 C 22.678821 43.247059 22.126668 43.554671 22.521484 44.832031 C 22.827061 44.329217 23.830994 44.080317 26.126953 43.748047 C 28.294553 43.434287 31.783024 42.268675 33.833984 41.171875 C 34.765344 40.673819 35.473837 40.433031 36.216797 40.457031 C 36.959797 40.481151 37.737481 40.770904 38.806641 41.333984 C 40.777257 42.371746 41.8494 43.264963 42.121094 44.210938 C 42.483863 42.860229 41.453752 41.728 38.806641 40.333984 C 37.737481 39.770904 36.959797 39.481151 36.216797 39.457031 z M 43.154297 44.427734 C 43.15583 46.218024 43.152856 48.077449 43.140625 50.103516 C 43.056225 64.076316 43.028742 64.356147 41.732422 64.560547 C 41.401622 64.612707 40.126518 64.514444 38.898438 64.339844 C 37.113878 64.086124 36.593014 64.086204 36.302734 64.339844 C 35.938026 64.658482 35.882831 65.0363 36.146484 65.523438 C 36.193085 65.461227 36.236157 65.398011 36.302734 65.339844 C 36.593014 65.086204 37.113878 65.086124 38.898438 65.339844 C 40.126518 65.514444 41.401622 65.612707 41.732422 65.560547 C 43.028742 65.356147 43.056225 65.076316 43.140625 51.103516 C 43.155099 48.705995 43.159167 46.496426 43.154297 44.427734 z M 53.296875 44.923828 L 52.796875 45.443359 L 53.724609 46.333984 C 61.213809 53.505184 66.421872 56.937116 74.138672 59.785156 C 74.923805 60.074928 75.459946 60.364702 75.748047 60.65625 C 76.338877 60.024451 75.816821 59.404516 74.138672 58.785156 C 66.421872 55.937116 61.213809 52.505184 53.724609 45.333984 L 53.296875 44.923828 z M 34.328125 45.755859 C 34.279031 46.080183 34.217355 46.437098 34.125 46.8125 C 32.92908 51.6709 28.547763 57.543781 22.476562 62.425781 C 20.217482 64.242381 19.683589 64.937686 20.162109 65.441406 C 20.17842 65.45861 20.225768 65.470657 20.253906 65.486328 C 20.592864 65.016389 21.293293 64.377287 22.476562 63.425781 C 28.547763 58.543781 32.92908 52.6709 34.125 47.8125 C 34.3418 46.93126 34.459166 46.043396 34.384766 45.839844 C 34.372327 45.805753 34.347457 45.783216 34.328125 45.755859 z M 47.96875 47.800781 C 47.955754 49.229561 48.049549 52.09706 48.300781 58.533203 C 48.377761 60.505203 48.428043 62.100013 48.445312 63.427734 C 48.447383 61.911747 48.399089 60.051558 48.300781 57.533203 C 48.099214 52.369387 47.997709 49.517838 47.96875 47.800781 z "
       transform="translate(0,2)"
       id="path118" />
  </g>
</svg>
