<?xml version="1.0" encoding="UTF-8" standalone="no"?>
<svg
   xmlns:dc="http://purl.org/dc/elements/1.1/"
   xmlns:cc="http://creativecommons.org/ns#"
   xmlns:rdf="http://www.w3.org/1999/02/22-rdf-syntax-ns#"
   xmlns:svg="http://www.w3.org/2000/svg"
   xmlns="http://www.w3.org/2000/svg"
   xmlns:xlink="http://www.w3.org/1999/xlink"
   xmlns:sodipodi="http://sodipodi.sourceforge.net/DTD/sodipodi-0.dtd"
   xmlns:inkscape="http://www.inkscape.org/namespaces/inkscape"
   width="96"
   height="96"
   version="1.0"
   id="svg125"
   sodipodi:docname="kodi.svg"
   inkscape:version="0.92.2 5c3e80d, 2017-08-06">
  <metadata
     id="metadata129">
    <rdf:RDF>
      <cc:Work
         rdf:about="">
        <dc:format>image/svg+xml</dc:format>
        <dc:type
           rdf:resource="http://purl.org/dc/dcmitype/StillImage" />
      </cc:Work>
    </rdf:RDF>
  </metadata>
  <sodipodi:namedview
     pagecolor="#ffffff"
     bordercolor="#666666"
     borderopacity="1"
     objecttolerance="10"
     gridtolerance="10"
     guidetolerance="10"
     inkscape:pageopacity="0"
     inkscape:pageshadow="2"
     inkscape:window-width="640"
     inkscape:window-height="480"
     id="namedview127"
     showgrid="false"
     inkscape:zoom="2.4583333"
     inkscape:cx="48"
     inkscape:cy="48"
     inkscape:window-x="0"
     inkscape:window-y="25"
     inkscape:window-maximized="0"
     inkscape:current-layer="svg125" />
  <defs
     id="defs49">
    <linearGradient
       id="linearGradient4384">
      <stop
         stop-color="#fff"
         offset="0"
         id="stop2" />
      <stop
         stop-color="#fff"
         stop-opacity="0"
         offset="1"
         id="stop4" />
    </linearGradient>
    <linearGradient
       id="ButtonShadow"
       x1="45.448"
       x2="45.448"
       y1="92.54"
       y2="7.0165"
       gradientTransform="scale(1.0059 .99417)"
       gradientUnits="userSpaceOnUse">
      <stop
         offset="0"
         id="stop7" />
      <stop
         stop-opacity=".58824"
         offset="1"
         id="stop9" />
    </linearGradient>
    <filter
       id="filter3174">
      <feGaussianBlur
         stdDeviation="1.71"
         id="feGaussianBlur12" />
    </filter>
    <filter
       id="filter3794"
       x="-.192"
       y="-.192"
       width="1.384"
       height="1.384">
      <feGaussianBlur
         stdDeviation="5.28"
         id="feGaussianBlur15" />
    </filter>
    <linearGradient
       id="linearGradient3613"
       x1="48"
       x2="48"
       y1="20.221"
       y2="138.66"
       gradientUnits="userSpaceOnUse">
      <stop
         stop-color="#fff"
         offset="0"
         id="stop18" />
      <stop
         stop-color="#fff"
         stop-opacity="0"
         offset="1"
         id="stop20" />
    </linearGradient>
    <linearGradient
       id="linearGradient3617"
       x1="48"
       x2="48"
       y1="90"
       y2="5.9877"
       gradientUnits="userSpaceOnUse">
      <stop
         stop-color="#0049c0"
         offset="0"
         id="stop23" />
      <stop
         stop-color="#006ce4"
         offset="1"
         id="stop25" />
    </linearGradient>
    <linearGradient
       id="ButtonShadow-0"
       x1="45.448"
       x2="45.448"
       y1="92.54"
       y2="7.0165"
       gradientTransform="matrix(1.0059 0 0 .99417 100 0)"
       gradientUnits="userSpaceOnUse">
      <stop
         offset="0"
         id="stop28" />
      <stop
         stop-opacity=".58824"
         offset="1"
         id="stop30" />
    </linearGradient>
    <linearGradient
       id="linearGradient3780"
       x1="32.251"
       x2="32.251"
       y1="6.1317"
       y2="90.239"
       gradientTransform="matrix(1.0238 0 0 1.0119 -1.1429 -98.071)"
       gradientUnits="userSpaceOnUse"
       xlink:href="#ButtonShadow-0" />
    <linearGradient
       id="linearGradient3721"
       x1="32.251"
       x2="32.251"
       y1="6.1317"
       y2="90.239"
       gradientTransform="translate(0,-97)"
       gradientUnits="userSpaceOnUse"
       xlink:href="#ButtonShadow-0" />
    <clipPath
       id="clipPath4355">
      <rect
         x="6"
         y="6"
         width="84"
         height="80"
         rx="6"
         ry="6"
         fill="#fff"
         id="rect35" />
    </clipPath>
    <linearGradient
       id="linearGradient4390"
       x1="48"
       x2="48"
       y1="88"
       y2="-40"
       gradientTransform="matrix(1,0,0,-1,0,92)"
       gradientUnits="userSpaceOnUse"
       xlink:href="#linearGradient4384" />
    <linearGradient
       id="linearGradient4429"
       x1="48"
       x2="112.12"
       y1="82"
       y2="82.455"
       gradientUnits="userSpaceOnUse"
       spreadMethod="reflect"
       xlink:href="#linearGradient4384" />
    <linearGradient
       id="linearGradient3870"
       x1="8"
       x2="50"
       y1="1033.4"
       y2="1033.4"
       gradientTransform="translate(-2 -956.36)"
       gradientUnits="userSpaceOnUse"
       spreadMethod="reflect">
      <stop
         stop-color="#523823"
         offset="0"
         id="stop40" />
      <stop
         stop-color="#79563a"
         offset=".1178"
         id="stop42" />
      <stop
         stop-color="#875c38"
         offset=".2381"
         id="stop44" />
      <stop
         stop-color="#a66e40"
         offset="1"
         id="stop46" />
    </linearGradient>
  </defs>
  <g
     display="none"
     id="g53">
    <rect
       x="5"
       y="7"
       width="86"
       height="85"
       rx="6"
       ry="6"
       fill="url(#ButtonShadow)"
       filter="url(#filter3174)"
       opacity=".9"
       id="rect51" />
  </g>
  <g
     id="g67">
    <g
       fill="url(#linearGradient3780)"
       id="g63">
      <path
         transform="scale(1,-1)"
         d="m12-95.031c-5.5111 0-10.031 4.5202-10.031 10.031v71c0 5.5111 4.5202 10.031 10.031 10.031h72c5.5111 0 10.031-4.5202 10.031-10.031v-71c0-5.5111-4.5202-10.031-10.031-10.031h-72z"
         opacity=".08"
         id="path55" />
      <path
         transform="scale(1,-1)"
         d="m12-94.031c-4.9716 0-9.0312 4.0596-9.0312 9.0312v71c0 4.9716 4.0596 9.0312 9.0312 9.0312h72c4.9716 0 9.0312-4.0596 9.0312-9.0312v-71c0-4.9716-4.0596-9.0312-9.0312-9.0312h-72z"
         opacity=".1"
         id="path57" />
      <path
         transform="scale(1,-1)"
         d="m12-93c-4.4091 0-8 3.5909-8 8v71c0 4.4091 3.5909 8 8 8h72c4.4091 0 8-3.5909 8-8v-71c0-4.4091-3.5909-8-8-8h-72z"
         opacity=".2"
         id="path59" />
      <rect
         transform="scale(1,-1)"
         x="5"
         y="-92"
         width="86"
         height="85"
         rx="7"
         ry="7"
         opacity=".3"
         id="rect61" />
    </g>
    <rect
       transform="scale(1,-1)"
       x="6"
       y="-91"
       width="84"
       height="84"
       rx="6"
       ry="6"
       fill="url(#linearGradient3721)"
       opacity=".45"
       id="rect65" />
  </g>
  <g
     id="g79">
    <rect
       x="6"
       y="64"
       width="84"
       height="26"
       rx="6"
       ry="6"
       color="#000000"
       fill="url(#linearGradient3870)"
       id="rect69" />
    <g
       id="g77">
      <path
         d="m6 82v2c0 3.324 2.676 6 6 6h72c3.324 0 6-2.676 6-6v-2c0 3.324-2.676 6-6 6h-72c-3.324 0-6-2.676-6-6z"
         color="#000000"
         opacity=".1"
         id="path71" />
      <path
         d="m6 83v1c0 3.324 2.676 6 6 6h72c3.324 0 6-2.676 6-6v-1c0 3.324-2.676 6-6 6h-72c-3.324 0-6-2.676-6-6z"
         color="#000000"
         opacity=".1"
         id="path73" />
      <path
         d="m6 80v1c0 3.324 2.676 6 6 6h72c3.324 0 6-2.676 6-6v-1c0 3.324-2.676 6-6 6h-72c-3.324 0-6-2.676-6-6z"
         opacity=".2"
         id="path75" />
    </g>
  </g>
  <g
     id="g87">
    <rect
       x="6"
       y="6"
       width="84"
       height="80"
       rx="6"
       ry="6"
       fill="url(#linearGradient3617)"
       id="rect81" />
    <path
       d="m12 86c-3.324 0-6-2.676-6-6v-68c0-3.324 2.676-6 6-6h72c3.324 0 6 2.676 6 6v68c0 3.324-2.676 6-6 6zm0-0.96875h72c2.8049 0 5.0312-2.2264 5.0312-5.0312v-68c0-2.8049-2.2264-5.0312-5.0312-5.0312h-72c-2.8049 0-5.0312 2.2264-5.0312 5.0312v68c0 2.8049 2.2264 5.0312 5.0312 5.0312z"
       fill="url(#linearGradient4390)"
       opacity=".3"
       id="path83" />
    <path
       d="m6 78v2c0 3.324 2.676 6 6 6h72c3.324 0 6-2.676 6-6v-2c0 3.324-2.676 6-6 6h-72c-3.324 0-6-2.676-6-6z"
       fill="url(#linearGradient4429)"
       opacity=".1"
       id="path85" />
  </g>
  <g
     id="g91">
    <rect
       x="15"
       y="15"
       width="66"
       height="62"
       rx="12"
       ry="12"
       clip-path="url(#clipPath4355)"
       fill="url(#linearGradient3613)"
       filter="url(#filter3794)"
       opacity=".1"
       stroke="#fff"
       stroke-linecap="round"
       stroke-width=".5"
       id="rect89" />
  </g>
  <defs
     id="defs101">
    <filter
       id="w">
      <feGaussianBlur
         stdDeviation="0.23199685"
         id="feGaussianBlur93" />
    </filter>
    <linearGradient
       id="a"
       gradientUnits="userSpaceOnUse"
       x1="8"
       y1="1"
       x2="8"
       y2="14.998952">
      <stop
         stop-color="#fafafa"
         offset="0"
         id="stop96" />
      <stop
         stop-color="#ebebeb"
         offset="1"
         id="stop98" />
    </linearGradient>
  </defs>
  <g
     transform="translate(0,-2)"
     id="g123">
    <path
       style="opacity:0.15;fill:#000000"
       d="M 8,0.75 C 7.6797965,0.75 7.3581819,0.87424374 7.1152344,1.1171875 L 4.8222656,3.4121094 A 0.250025,0.250025 0 0 0 4.75,3.5878906 V 9.5605469 A 0.250025,0.250025 0 0 0 5.1757812,9.7382812 L 11.162109,3.7519531 a 0.250025,0.250025 0 0 0 0,-0.3535156 L 8.8828125,1.1191406 C 8.6635192,0.89984729 8.3802325,0.78952034 8.0917969,0.76757812 A 0.250025,0.250025 0 0 0 8.0019531,0.75 0.250025,0.250025 0 0 0 8,0.75 Z m 4.396484,3.9882812 a 0.250025,0.250025 0 0 0 -0.173828,0.072266 l -0.002,0.00391 a 0.250025,0.250025 0 0 0 -0.002,0.00195 L 9.2460938,7.7890625 a 0.250025,0.250025 0 0 0 0,0.3554687 L 12.255859,11.15625 a 0.250025,0.250025 0 0 0 0.355469,0 l 2.271484,-2.2734375 c 0.486589,-0.4865889 0.486568,-1.2809365 0,-1.7675781 L 12.578125,4.8105469 A 0.250025,0.250025 0 0 0 12.396484,4.7382812 Z M 2.9921875,5.3378906 A 0.250025,0.250025 0 0 0 2.8222656,5.4121094 L 1.1171875,7.1171875 c -0.48658889,0.4865889 -0.4865671,1.2809365 0,1.7675781 L 2.8222656,10.589844 A 0.250025,0.250025 0 0 0 3.25,10.412109 V 5.5878906 a 0.250025,0.250025 0 0 0 -0.2578125,-0.25 z M 7.9960938,9.1328125 A 0.250025,0.250025 0 0 0 7.8320312,9.2050781 L 4.8242188,12.210938 A 0.250025,0.250025 0 0 0 4.75,12.388672 v 0.02344 a 0.250025,0.250025 0 0 0 0.072266,0.177735 l 2.2949219,2.292968 c 0.4865889,0.486589 1.2809365,0.486568 1.7675781,0 l 2.3125004,-2.3125 a 0.250025,0.250025 0 0 0 0,-0.355468 L 8.1855469,9.2050781 A 0.250025,0.250025 0 0 0 8.09375,9.1484375 0.250025,0.250025 0 0 0 7.9960938,9.1328125 Z"
       id="path103"
       inkscape:original="m8 1c-0.25562 0-0.51116 0.099053-0.70703 0.29492l-2.293 2.293v5.9727l5.9863-5.9863-2.2793-2.2793c-0.19587-0.19587-0.45141-0.29492-0.70703-0.29492zm4.4004 3.9883-2.9785 2.9785 3.0117 3.0117 2.2715-2.2715c0.39174-0.39174 0.39174-1.0223 0-1.4141l-2.3047-2.3047zm-9.4004 0.59961-1.7051 1.7051c-0.39174 0.39174-0.39174 1.0223 0 1.4141l1.7051 1.7051v-4.8242zm5.0078 3.7949-3.0078 3.0059v0.023437l2.293 2.293c0.39174 0.39174 1.0223 0.39174 1.4141 0l2.3125-2.3125-3.0117-3.0098z"
       transform="matrix(4,0,0,4,16,17)"
       inkscape:radius="0.25"
       sodipodi:type="inkscape:offset" />
    <g
       id="Bevel1">
      <path
         fill="#000"
         opacity=".10"
         sodipodi:type="inkscape:offset"
         inkscape:radius="0.5"
         transform="translate(16,17) scale(4)"
         inkscape:original="m8 1c-0.25562 0-0.51116 0.099053-0.70703 0.29492l-2.293 2.293v5.9727l5.9863-5.9863-2.2793-2.2793c-0.19587-0.19587-0.45141-0.29492-0.70703-0.29492zm4.4004 3.9883-2.9785 2.9785 3.0117 3.0117 2.2715-2.2715c0.39174-0.39174 0.39174-1.0223 0-1.4141l-2.3047-2.3047zm-9.4004 0.59961-1.7051 1.7051c-0.39174 0.39174-0.39174 1.0223 0 1.4141l1.7051 1.7051v-4.8242zm5.0078 3.7949-3.0078 3.0059v0.023437l2.293 2.293c0.39174 0.39174 1.0223 0.39174 1.4141 0l2.3125-2.3125-3.0117-3.0098z"
         id="path106" />
    </g>
    <g
       id="Bevel2">
      <path
         fill="#000"
         opacity=".05"
         sodipodi:type="inkscape:offset"
         inkscape:radius="0.75"
         transform="translate(16,17) scale(4)"
         inkscape:original="m8 1c-0.25562 0-0.51116 0.099053-0.70703 0.29492l-2.293 2.293v5.9727l5.9863-5.9863-2.2793-2.2793c-0.19587-0.19587-0.45141-0.29492-0.70703-0.29492zm4.4004 3.9883-2.9785 2.9785 3.0117 3.0117 2.2715-2.2715c0.39174-0.39174 0.39174-1.0223 0-1.4141l-2.3047-2.3047zm-9.4004 0.59961-1.7051 1.7051c-0.39174 0.39174-0.39174 1.0223 0 1.4141l1.7051 1.7051v-4.8242zm5.0078 3.7949-3.0078 3.0059v0.023437l2.293 2.293c0.39174 0.39174 1.0223 0.39174 1.4141 0l2.3125-2.3125-3.0117-3.0098z"
         id="path109" />
    </g>
    <path
       d="m8 1c-0.25562 0-0.51116 0.099053-0.70703 0.29492l-2.293 2.293v5.9727l5.9863-5.9863-2.2793-2.2793c-0.19587-0.19587-0.45141-0.29492-0.70703-0.29492zm4.4004 3.9883-2.9785 2.9785 3.0117 3.0117 2.2715-2.2715c0.39174-0.39174 0.39174-1.0223 0-1.4141l-2.3047-2.3047zm-9.4004 0.59961-1.7051 1.7051c-0.39174 0.39174-0.39174 1.0223 0 1.4141l1.7051 1.7051v-4.8242zm5.0078 3.7949-3.0078 3.0059v0.023437l2.293 2.293c0.39174 0.39174 1.0223 0.39174 1.4141 0l2.3125-2.3125-3.0117-3.0098z"
       fill="url(#a)"
       id="base"
       transform="translate(16,16) scale(4)" />
    <path
       style="opacity:0.3;fill:#000000;stroke-width:4"
       d="M 59.445312 28.796875 L 36 52.242188 L 36 53.242188 L 59.945312 29.296875 L 59.445312 28.796875 z M 54.1875 46.367188 L 53.6875 46.867188 L 65.734375 58.914062 L 74.820312 49.828125 C 75.732041 48.916397 76.096507 47.682241 75.947266 46.5 C 75.840011 47.349625 75.475544 48.172893 74.820312 48.828125 L 65.734375 57.914062 L 54.1875 46.367188 z M 20.052734 46.5 C 19.903493 47.682218 20.267959 48.916257 21.179688 49.828125 L 28 56.648438 L 28 55.648438 L 21.179688 48.828125 C 20.524456 48.172793 20.159989 47.349642 20.052734 46.5 z M 59.578125 64.070312 L 50.828125 72.820312 C 49.260925 74.387272 46.738835 74.387272 45.171875 72.820312 L 36.453125 64.101562 L 36 64.554688 L 36 64.648438 L 45.171875 73.820312 C 46.738835 75.387272 49.260925 75.387272 50.828125 73.820312 L 60.078125 64.570312 L 59.578125 64.070312 z "
       transform="translate(0,2)"
       id="path113" />
    <path
       style="fill:#ffffff;stroke-width:4"
       d="M 48 18 C 46.97752 18 45.955355 18.39622 45.171875 19.179688 L 36 28.351562 L 36 29.351562 L 45.171875 20.179688 C 45.955355 19.39622 46.97752 19 48 19 C 49.02248 19 50.044645 19.396207 50.828125 20.179688 L 59.445312 28.796875 L 59.945312 28.296875 L 50.828125 19.179688 C 50.044645 18.396207 49.02248 18 48 18 z M 65.601562 33.953125 L 53.6875 45.867188 L 54.1875 46.367188 L 65.601562 34.953125 L 74.820312 44.171875 C 75.475544 44.827207 75.840011 45.650358 75.947266 46.5 C 76.096507 45.317782 75.732041 44.083743 74.820312 43.171875 L 65.601562 33.953125 z M 28 36.351562 L 21.179688 43.171875 C 20.267959 44.083603 19.903493 45.317759 20.052734 46.5 C 20.159989 45.650375 20.524456 44.827107 21.179688 44.171875 L 28 37.351562 L 28 36.351562 z M 48.03125 51.53125 L 36 63.554688 L 36 63.648438 L 36.453125 64.101562 L 48.03125 52.53125 L 59.578125 64.070312 L 60.078125 63.570312 L 48.03125 51.53125 z "
       transform="translate(0,2)"
       id="path118" />
  </g>
</svg>
