<?xml version="1.0" encoding="UTF-8" standalone="no"?>
<svg
   xmlns:dc="http://purl.org/dc/elements/1.1/"
   xmlns:cc="http://creativecommons.org/ns#"
   xmlns:rdf="http://www.w3.org/1999/02/22-rdf-syntax-ns#"
   xmlns:svg="http://www.w3.org/2000/svg"
   xmlns="http://www.w3.org/2000/svg"
   xmlns:xlink="http://www.w3.org/1999/xlink"
   xmlns:sodipodi="http://sodipodi.sourceforge.net/DTD/sodipodi-0.dtd"
   xmlns:inkscape="http://www.inkscape.org/namespaces/inkscape"
   width="96"
   height="96"
   version="1.0"
   id="svg125"
   sodipodi:docname="manaplus.svg"
   inkscape:version="0.92.2 5c3e80d, 2017-08-06">
  <metadata
     id="metadata129">
    <rdf:RDF>
      <cc:Work
         rdf:about="">
        <dc:format>image/svg+xml</dc:format>
        <dc:type
           rdf:resource="http://purl.org/dc/dcmitype/StillImage" />
      </cc:Work>
    </rdf:RDF>
  </metadata>
  <sodipodi:namedview
     pagecolor="#ffffff"
     bordercolor="#666666"
     borderopacity="1"
     objecttolerance="10"
     gridtolerance="10"
     guidetolerance="10"
     inkscape:pageopacity="0"
     inkscape:pageshadow="2"
     inkscape:window-width="640"
     inkscape:window-height="480"
     id="namedview127"
     showgrid="false"
     inkscape:zoom="2.4583333"
     inkscape:cx="48"
     inkscape:cy="48"
     inkscape:window-x="0"
     inkscape:window-y="25"
     inkscape:window-maximized="0"
     inkscape:current-layer="svg125" />
  <defs
     id="defs49">
    <linearGradient
       id="linearGradient4384">
      <stop
         stop-color="#fff"
         offset="0"
         id="stop2" />
      <stop
         stop-color="#fff"
         stop-opacity="0"
         offset="1"
         id="stop4" />
    </linearGradient>
    <linearGradient
       id="ButtonShadow"
       x1="45.448"
       x2="45.448"
       y1="92.54"
       y2="7.0165"
       gradientTransform="scale(1.0059 .99417)"
       gradientUnits="userSpaceOnUse">
      <stop
         offset="0"
         id="stop7" />
      <stop
         stop-opacity=".58824"
         offset="1"
         id="stop9" />
    </linearGradient>
    <filter
       id="filter3174">
      <feGaussianBlur
         stdDeviation="1.71"
         id="feGaussianBlur12" />
    </filter>
    <filter
       id="filter3794"
       x="-.192"
       y="-.192"
       width="1.384"
       height="1.384">
      <feGaussianBlur
         stdDeviation="5.28"
         id="feGaussianBlur15" />
    </filter>
    <linearGradient
       id="linearGradient3613"
       x1="48"
       x2="48"
       y1="20.221"
       y2="138.66"
       gradientUnits="userSpaceOnUse">
      <stop
         stop-color="#fff"
         offset="0"
         id="stop18" />
      <stop
         stop-color="#fff"
         stop-opacity="0"
         offset="1"
         id="stop20" />
    </linearGradient>
    <linearGradient
       id="linearGradient3617"
       x1="48"
       x2="48"
       y1="90"
       y2="5.9877"
       gradientUnits="userSpaceOnUse">
      <stop
         stop-color="#d64819"
         offset="0"
         id="stop23" />
      <stop
         stop-color="#ed6a11"
         offset="1"
         id="stop25" />
    </linearGradient>
    <linearGradient
       id="ButtonShadow-0"
       x1="45.448"
       x2="45.448"
       y1="92.54"
       y2="7.0165"
       gradientTransform="matrix(1.0059 0 0 .99417 100 0)"
       gradientUnits="userSpaceOnUse">
      <stop
         offset="0"
         id="stop28" />
      <stop
         stop-opacity=".58824"
         offset="1"
         id="stop30" />
    </linearGradient>
    <linearGradient
       id="linearGradient3780"
       x1="32.251"
       x2="32.251"
       y1="6.1317"
       y2="90.239"
       gradientTransform="matrix(1.0238 0 0 1.0119 -1.1429 -98.071)"
       gradientUnits="userSpaceOnUse"
       xlink:href="#ButtonShadow-0" />
    <linearGradient
       id="linearGradient3721"
       x1="32.251"
       x2="32.251"
       y1="6.1317"
       y2="90.239"
       gradientTransform="translate(0,-97)"
       gradientUnits="userSpaceOnUse"
       xlink:href="#ButtonShadow-0" />
    <clipPath
       id="clipPath4355">
      <rect
         x="6"
         y="6"
         width="84"
         height="80"
         rx="6"
         ry="6"
         fill="#fff"
         id="rect35" />
    </clipPath>
    <linearGradient
       id="linearGradient4390"
       x1="48"
       x2="48"
       y1="88"
       y2="-40"
       gradientTransform="matrix(1,0,0,-1,0,92)"
       gradientUnits="userSpaceOnUse"
       xlink:href="#linearGradient4384" />
    <linearGradient
       id="linearGradient4429"
       x1="48"
       x2="112.12"
       y1="82"
       y2="82.455"
       gradientUnits="userSpaceOnUse"
       spreadMethod="reflect"
       xlink:href="#linearGradient4384" />
    <linearGradient
       id="linearGradient3870"
       x1="8"
       x2="50"
       y1="1033.4"
       y2="1033.4"
       gradientTransform="translate(-2 -956.36)"
       gradientUnits="userSpaceOnUse"
       spreadMethod="reflect">
      <stop
         stop-color="#523823"
         offset="0"
         id="stop40" />
      <stop
         stop-color="#79563a"
         offset=".1178"
         id="stop42" />
      <stop
         stop-color="#875c38"
         offset=".2381"
         id="stop44" />
      <stop
         stop-color="#a66e40"
         offset="1"
         id="stop46" />
    </linearGradient>
  </defs>
  <g
     display="none"
     id="g53">
    <rect
       x="5"
       y="7"
       width="86"
       height="85"
       rx="6"
       ry="6"
       fill="url(#ButtonShadow)"
       filter="url(#filter3174)"
       opacity=".9"
       id="rect51" />
  </g>
  <g
     id="g67">
    <g
       fill="url(#linearGradient3780)"
       id="g63">
      <path
         transform="scale(1,-1)"
         d="m12-95.031c-5.5111 0-10.031 4.5202-10.031 10.031v71c0 5.5111 4.5202 10.031 10.031 10.031h72c5.5111 0 10.031-4.5202 10.031-10.031v-71c0-5.5111-4.5202-10.031-10.031-10.031h-72z"
         opacity=".08"
         id="path55" />
      <path
         transform="scale(1,-1)"
         d="m12-94.031c-4.9716 0-9.0312 4.0596-9.0312 9.0312v71c0 4.9716 4.0596 9.0312 9.0312 9.0312h72c4.9716 0 9.0312-4.0596 9.0312-9.0312v-71c0-4.9716-4.0596-9.0312-9.0312-9.0312h-72z"
         opacity=".1"
         id="path57" />
      <path
         transform="scale(1,-1)"
         d="m12-93c-4.4091 0-8 3.5909-8 8v71c0 4.4091 3.5909 8 8 8h72c4.4091 0 8-3.5909 8-8v-71c0-4.4091-3.5909-8-8-8h-72z"
         opacity=".2"
         id="path59" />
      <rect
         transform="scale(1,-1)"
         x="5"
         y="-92"
         width="86"
         height="85"
         rx="7"
         ry="7"
         opacity=".3"
         id="rect61" />
    </g>
    <rect
       transform="scale(1,-1)"
       x="6"
       y="-91"
       width="84"
       height="84"
       rx="6"
       ry="6"
       fill="url(#linearGradient3721)"
       opacity=".45"
       id="rect65" />
  </g>
  <g
     id="g79">
    <rect
       x="6"
       y="64"
       width="84"
       height="26"
       rx="6"
       ry="6"
       color="#000000"
       fill="url(#linearGradient3870)"
       id="rect69" />
    <g
       id="g77">
      <path
         d="m6 82v2c0 3.324 2.676 6 6 6h72c3.324 0 6-2.676 6-6v-2c0 3.324-2.676 6-6 6h-72c-3.324 0-6-2.676-6-6z"
         color="#000000"
         opacity=".1"
         id="path71" />
      <path
         d="m6 83v1c0 3.324 2.676 6 6 6h72c3.324 0 6-2.676 6-6v-1c0 3.324-2.676 6-6 6h-72c-3.324 0-6-2.676-6-6z"
         color="#000000"
         opacity=".1"
         id="path73" />
      <path
         d="m6 80v1c0 3.324 2.676 6 6 6h72c3.324 0 6-2.676 6-6v-1c0 3.324-2.676 6-6 6h-72c-3.324 0-6-2.676-6-6z"
         opacity=".2"
         id="path75" />
    </g>
  </g>
  <g
     id="g87">
    <rect
       x="6"
       y="6"
       width="84"
       height="80"
       rx="6"
       ry="6"
       fill="url(#linearGradient3617)"
       id="rect81" />
    <path
       d="m12 86c-3.324 0-6-2.676-6-6v-68c0-3.324 2.676-6 6-6h72c3.324 0 6 2.676 6 6v68c0 3.324-2.676 6-6 6zm0-0.96875h72c2.8049 0 5.0312-2.2264 5.0312-5.0312v-68c0-2.8049-2.2264-5.0312-5.0312-5.0312h-72c-2.8049 0-5.0312 2.2264-5.0312 5.0312v68c0 2.8049 2.2264 5.0312 5.0312 5.0312z"
       fill="url(#linearGradient4390)"
       opacity=".3"
       id="path83" />
    <path
       d="m6 78v2c0 3.324 2.676 6 6 6h72c3.324 0 6-2.676 6-6v-2c0 3.324-2.676 6-6 6h-72c-3.324 0-6-2.676-6-6z"
       fill="url(#linearGradient4429)"
       opacity=".1"
       id="path85" />
  </g>
  <g
     id="g91">
    <rect
       x="15"
       y="15"
       width="66"
       height="62"
       rx="12"
       ry="12"
       clip-path="url(#clipPath4355)"
       fill="url(#linearGradient3613)"
       filter="url(#filter3794)"
       opacity=".1"
       stroke="#fff"
       stroke-linecap="round"
       stroke-width=".5"
       id="rect89" />
  </g>
  <defs
     id="defs101">
    <filter
       id="w">
      <feGaussianBlur
         stdDeviation="0.23199685"
         id="feGaussianBlur93" />
    </filter>
    <linearGradient
       id="a"
       gradientUnits="userSpaceOnUse"
       x1="8"
       y1="1.000026"
       x2="8"
       y2="15.000065">
      <stop
         stop-color="#fafafa"
         offset="0"
         id="stop96" />
      <stop
         stop-color="#ebebeb"
         offset="1"
         id="stop98" />
    </linearGradient>
  </defs>
  <g
     transform="translate(0,-2)"
     id="g123">
    <path
       style="opacity:0.15;fill:#000000"
       d="m 8.0703125,0.75 c -0.05876,2.5027e-4 -0.1132872,0.002951 -0.1640625,0.003906 a 0.250025,0.250025 0 0 0 -0.00391,0 C 7.7887432,0.75790909 7.6727841,0.76159481 7.5527344,0.7734375 5.5647386,0.96056341 3.5042683,2.3343208 2.171875,4.2304688 0.83948166,6.1266167 0.23839591,8.5799854 1.2773438,10.896484 2.450989,13.513379 4.686688,14.885978 7.0351562,15.185547 9.3836245,15.485116 11.85287,14.731886 13.556641,13.117188 14.310057,12.403155 14.666925,11.723287 14.710938,11.132812 14.75495,10.542338 14.446815,10.04962 13.96875,9.8457031 13.493801,9.643115 12.891706,9.698009 12.289062,10.046875 L 12.591797,7.875 c 0.03613,-0.2710865 0.05273,-0.5271635 0.05273,-0.765625 0,-0.3195425 -0.03853,-0.614913 -0.121093,-0.8847656 -2.51e-4,-8.976e-4 -0.0017,-0.00106 -0.002,-0.00195 -0.0595,-0.2118595 -0.181626,-0.3817835 -0.304687,-0.5488281 0.07546,0.094463 0.154688,0.1929435 0.271484,0.2265625 0.306445,0.088208 0.666146,-0.1114934 0.753907,-0.4179687 v -0.00195 l 0.183593,-0.640625 0.638672,0.1855468 -0.01172,-0.00586 c 0.310838,0.1075385 0.692001,-0.08828 0.783204,-0.4042968 0.09105,-0.3155017 -0.125834,-0.6862608 -0.445313,-0.7617188 h -0.002 L 13.759766,3.6738281 13.943359,3.0371094 v -0.00391 C 13.997441,2.8498043 13.958505,2.6417326 13.841797,2.4902344 13.724286,2.3376938 13.532276,2.24508 13.339844,2.2519531 a 0.250025,0.250025 0 0 0 -0.002,0 c -6.21e-4,2.39e-5 -0.0013,-2.59e-5 -0.002,0 a 0.250025,0.250025 0 0 0 -0.146485,0.056641 C 13.049379,2.3550727 12.942204,2.442437 12.865234,2.5683594 11.615688,1.3865865 9.7116384,0.74303484 8.0703125,0.75 Z M 9.40625,1.8730469 c 1.147329,0.054068 2.27903,0.4433351 3.263672,1.1933593 l -0.07813,0.2714844 -0.638672,-0.1835937 0.002,0.00195 c -0.05823,-0.017658 -0.11884,-0.027697 -0.179687,-0.027344 a 0.250025,0.250025 0 0 0 -0.002,0 c -0.288782,0.00436 -0.556121,0.242944 -0.59375,0.5292969 -0.03756,0.285824 0.158507,0.5845794 0.435546,0.6640625 l 0.640625,0.1835938 -0.183593,0.6386718 c -0.03453,0.1180483 0.0043,0.2380892 0.04492,0.3535157 -9.95e-4,-0.00104 -9.56e-4,-0.00287 -0.002,-0.00391 C 11.927307,5.292313 11.681859,5.1406636 11.390625,5.0371094 11.093894,4.9316576 10.751209,4.8847656 10.359375,4.8847656 c -0.325,0 -0.6002868,0.024347 -0.8339844,0.083984 C 9.3176997,5.0175912 9.1422087,5.0743046 8.9921875,5.1484375 8.8550391,5.2107435 8.7435544,5.2734021 8.6503906,5.3378906 l 0.00977,-0.00781 c -0.040141,0.024669 -0.047856,0.023798 -0.052734,0.025391 A 0.250025,0.250025 0 0 0 8.4863281,5.3027344 C 8.2902994,5.157612 8.0794169,5.0324084 7.828125,4.9765625 7.5533337,4.9141417 7.2723194,4.8847656 6.9882812,4.8847656 h -0.00781 a 0.250025,0.250025 0 0 0 -0.072266,0.011719 0.250025,0.250025 0 0 0 -0.00195,0 c -0.3828119,0.00686 -0.7490435,0.0524 -1.0898438,0.1640625 a 0.250025,0.250025 0 0 0 -0.013672,0.00586 C 5.7747998,5.0661875 5.739553,5.0630977 5.6992188,5.0546875 l 0.021484,0.00391 C 5.6192686,5.0281634 5.5191393,5.0234375 5.3964844,5.0234375 H 4.65625 c -0.1348958,0 -0.2057371,0.052546 -0.28125,0.1054687 a 0.250025,0.250025 0 0 0 -0.011719,0.00781 c -0.060181,0.046808 -0.1206621,0.1035881 -0.1796874,0.1679687 -6.598e-4,6.598e-4 -0.0013,0.00129 -0.00195,0.00195 -0.065677,0.065996 -0.1213065,0.1384619 -0.1699218,0.2148438 -0.05223,0.082075 -0.094276,0.1643208 -0.1074219,0.2695312 l -0.6875,5.0097654 a 0.250025,0.250025 0 0 0 -0.00195,0.03516 c 0,0.04842 0.00251,0.113628 0.056641,0.189453 0.054133,0.07582 0.1666557,0.11914 0.2363281,0.11914 h 1.2460937 c 0.1259969,0 0.2071556,-0.0538 0.28125,-0.111328 h 0.00195 c 0.071784,-0.05148 0.1368091,-0.112575 0.1972656,-0.179687 0.058482,-0.06498 0.1109009,-0.128848 0.15625,-0.19336 l 0.00195,-0.0039 c 0.05931,-0.082 0.1069671,-0.166235 0.1210938,-0.279297 L 5.8535156,7.875 a 0.250025,0.250025 0 0 0 0,-0.00195 C 5.8703736,7.7381151 5.890121,7.5970281 5.9121094,7.453125 l 0.00195,-0.00781 c 1.009e-4,-6.571e-4 -1.011e-4,-0.0013 0,-0.00195 C 5.9414657,7.3014307 5.971299,7.15976 6.0039062,7.0175781 l 0.00195,-0.00391 c 2.868e-4,-0.00125 -2.872e-4,-0.00266 0,-0.00391 C 6.043322,6.87134 6.0843582,6.7403615 6.1269531,6.6171875 6.1734007,6.4984349 6.2192524,6.3975129 6.2675781,6.3085938 6.243074,6.344808 6.2552869,6.3175218 6.3125,6.2929688 a 0.250025,0.250025 0 0 0 0.013672,-0.00586 c 0.040718,-0.020359 0.093503,-0.03292 0.1660156,-0.033203 0.041833,5.2e-6 0.090318,0.010003 0.1484375,0.037109 a 0.250025,0.250025 0 0 0 0.017578,0.00781 c 0.039045,0.014642 0.088182,0.048025 0.1425781,0.1191407 a 0.250025,0.250025 0 0 0 0.00391,0.00586 c 0.044816,0.055158 0.096416,0.1547395 0.1367187,0.3007813 a 0.250025,0.250025 0 0 0 0.00195,0.00977 c 0.040096,0.124813 0.066406,0.3115848 0.066406,0.5507812 0,0.1095508 -0.00916,0.2558928 -0.025391,0.4375 a 0.250025,0.250025 0 0 0 0,0.00586 c -0.011145,0.1784065 -0.03212,0.3775976 -0.060547,0.59375 a 0.250025,0.250025 0 0 0 0,0.00586 c -0.023069,0.2125803 -0.049754,0.4339504 -0.083984,0.6679688 a 0.250025,0.250025 0 0 0 -0.00195,0.00586 C 6.8091977,9.230826 6.7768667,9.4587154 6.7421875,9.6835938 a 0.250025,0.250025 0 0 0 -0.00195,0.00586 c -0.02911,0.2205878 -0.055372,0.4264319 -0.083984,0.6210939 -0.028988,0.191473 -0.052609,0.356389 -0.070312,0.492187 a 0.250025,0.250025 0 0 0 -0.00195,0.0332 v 0.01758 c 0,0.04611 0.00475,0.115285 0.0625,0.1875 0.057746,0.07221 0.1597303,0.103515 0.2207031,0.103515 h 1.2539063 c 0.1259968,0 0.207204,-0.05379 0.28125,-0.111328 h 0.00195 c 0.071676,-0.05139 0.1385903,-0.112281 0.1992187,-0.179687 0.059487,-0.0661 0.1103264,-0.131659 0.15625,-0.197266 a 0.250025,0.250025 0 0 0 0.00781,-0.0098 c 0.05144,-0.08083 0.091675,-0.162677 0.1054688,-0.265625 L 9.2226562,7.875 a 0.250025,0.250025 0 0 0 0,-0.00195 c 0.016859,-0.1349317 0.038555,-0.2755164 0.066406,-0.4199219 0.027587,-0.1435171 0.059845,-0.2887664 0.09375,-0.4355469 v -0.00391 c 3.222e-4,-0.00139 0.00163,-0.00251 0.00195,-0.00391 0.03874,-0.143364 0.078011,-0.2783623 0.1210938,-0.4023437 0.042035,-0.1209039 0.090005,-0.2252777 0.140625,-0.3164063 a 0.250025,0.250025 0 0 0 0.00391,-0.00977 c -0.034261,0.068522 -0.033028,0.035939 0.023437,0.011719 a 0.250025,0.250025 0 0 0 0.011719,-0.00586 c 0.039159,-0.019579 0.094544,-0.033203 0.1757812,-0.033203 0.041791,0 0.090311,0.01 0.1484379,0.037109 a 0.250025,0.250025 0 0 0 0.01758,0.00781 c 0.03904,0.014642 0.08818,0.048025 0.142578,0.1191407 a 0.250025,0.250025 0 0 0 0.0039,0.00586 c 0.04482,0.055165 0.09447,0.1527967 0.134766,0.2988281 a 0.250025,0.250025 0 0 0 0.0039,0.011719 c 0.0401,0.124813 0.06445,0.3115848 0.06445,0.5507812 0,0.1095619 -0.0072,0.2539389 -0.02344,0.4355469 -0.01751,0.1857929 -0.03753,0.3886608 -0.06055,0.6074219 -0.0229,0.2107435 -0.05164,0.4334713 -0.08594,0.6679688 -0.03507,0.2339434 -0.06648,0.4653317 -0.0957,0.6933593 -0.02882,0.2191198 -0.05718,0.4248039 -0.08594,0.6210939 -0.02911,0.191629 -0.054578,0.35651 -0.072266,0.492187 a 0.250025,0.250025 0 0 0 -0.00195,0.0332 v 0.02539 c -2.21e-5,0.05116 0.01602,0.135029 0.082031,0.201172 0.06601,0.06614 0.151893,0.08203 0.203125,0.08203 h 0.939453 C 10.972578,11.421772 10.76561,11.694006 10.591797,12.0625 9.8585207,13.617114 7.9241698,14.327959 6.1152344,13.990234 4.306299,13.65251 2.6587091,12.310333 2.4804688,9.7050781 2.2509875,6.3510351 3.8241006,3.922321 5.953125,2.7148438 7.0176372,2.1111051 8.2188406,1.8170903 9.40625,1.8730469 Z m 3.955078,8.8339841 c 0.181523,-0.01166 0.27747,0.03401 0.335938,0.119141 0.06637,0.09663 0.08292,0.292109 -0.01367,0.544922 -0.09659,0.252812 -0.298899,0.541248 -0.576172,0.779297 -0.277456,0.238199 -0.57485,0.37534 -0.802734,0.412109 -0.227885,0.03677 -0.35133,-0.01041 -0.417969,-0.107422 -0.06637,-0.09663 -0.08097,-0.292109 0.01563,-0.544922 0.09659,-0.252812 0.296941,-0.541248 0.574218,-0.779297 0.312607,-0.268369 0.65096,-0.408826 0.884766,-0.423828 z"
       id="path103"
       inkscape:original="m8.0723 1.0005c-0.054 2.3e-4 -0.10747 2e-3 -0.16064 3e-3 -0.11352 4e-3 -0.22548 8e-3 -0.33496 0.0188-3.7772 0.35554-8.065 5.3244-6.0703 9.7719 2.2776 5.0784 8.5909 5.2576 11.879 2.1414 2.8963-2.7449-0.74531-4.6275-2.5669-0.76562-1.5846 3.3595-8.2173 2.9652-8.5876-2.4473-0.4708-6.8811 6.5007-10.124 10.7-6.7795-1.1672-1.2567-3.1855-1.9502-4.8586-1.9431zm5.2756 1.5022a0.35801 0.35801 0 0 0-0.33154 0.26318l-0.25294 0.88183-0.88011-0.25293a0.35801 0.35801 0 0 0-0.10597-0.0154 0.35801 0.35801 0 0 0-0.0923 0.70239l0.88011 0.25293-0.25291 0.88012a0.35834 0.35834 0 1 0 0.68871 0.19824l0.25293-0.88183 0.88011 0.25293a0.35801 0.35801 0 1 0 0.19827-0.68701l-0.88183-0.25293 0.25292-0.88012a0.35801 0.35801 0 0 0-0.35546-0.46142zm-6.3676 2.6318c-0.3888 1e-5 -0.75035 0.0538-1.0869 0.16407-0.0233 0.0116-0.0523 0.0171-0.0871 0.0171-0.0464 0-0.0992-5e-3 -0.15723-0.0171-0.058-0.0174-0.14267-0.0256-0.25293-0.0256h-0.73998c-0.0348 0-0.0805 0.0209-0.13843 0.0615-0.0522 0.0406-0.105 0.0889-0.15723 0.14697-0.0522 0.0522-0.0978 0.11049-0.13842 0.17431-0.0406 0.0638-0.0643 0.11935-0.0701 0.16577l-0.68702 5.0141c0 0.0406 0.0137 0.0598 0.0427 0.0598h1.2458c0.0348 0 0.0777-0.0192 0.12989-0.0598 0.058-0.0406 0.11354-0.0907 0.16577-0.14868 0.0522-0.058 0.0978-0.11629 0.13843-0.17432 0.0464-0.0638 0.0728-0.11935 0.0786-0.16577l0.34008-2.5054c0.0174-0.13927 0.0366-0.28491 0.0598-0.43579 0.029-0.15087 0.061-0.302 0.0957-0.45288 0.0406-0.15087 0.0852-0.29377 0.13159-0.42724 0.0522-0.13346 0.10608-0.25101 0.16406-0.35547 0.0233-0.0348 0.076-0.0711 0.15723-0.10596 0.0812-0.0406 0.1741-0.0598 0.27856-0.0598 0.0812 1e-5 0.16587 0.0192 0.25292 0.0598 0.0928 0.0348 0.17749 0.10302 0.25294 0.20166 0.0754 0.0928 0.13642 0.22308 0.18286 0.39136 0.0522 0.16249 0.0769 0.37187 0.0769 0.62719 0 0.12186-9e-3 0.27403-0.0256 0.45972-0.0116 0.18569-0.0325 0.38959-0.0615 0.6101-0.0233 0.21471-0.0506 0.44055-0.0854 0.67846-0.0291 0.23212-0.0626 0.46241-0.0975 0.68872-0.0291 0.22051-0.0564 0.42818-0.0854 0.62548-0.029 0.1915-0.0527 0.3553-0.0701 0.48877v0.0171c0 0.029 0.011 0.0427 0.0341 0.0427h1.2544c0.0348 0 0.0776-0.0192 0.12987-0.0599 0.058-0.0406 0.11354-0.0906 0.16578-0.14868 0.0522-0.058 0.0978-0.11629 0.13842-0.17432 0.0406-0.0638 0.0643-0.11934 0.0701-0.16576l0.34863-2.5054c0.0174-0.13926 0.0393-0.28491 0.0684-0.43579 0.029-0.15087 0.0626-0.302 0.0975-0.45287 0.0406-0.15087 0.0835-0.29378 0.12988-0.42725 0.0464-0.13346 0.0992-0.25101 0.15722-0.35546 0.0174-0.0348 0.0657-0.0711 0.14697-0.10596 0.0812-0.0406 0.17685-0.0598 0.28711-0.0598 0.0812 0 0.16588 0.0192 0.25293 0.0598 0.0928 0.0348 0.17749 0.10302 0.25294 0.20166 0.0754 0.0928 0.13642 0.22307 0.18285 0.39135 0.0522 0.16249 0.0769 0.37187 0.0769 0.62719 0 0.12187-9e-3 0.27403-0.0256 0.45972-0.0175 0.18569-0.0366 0.38959-0.0598 0.6101-0.0233 0.21471-0.0523 0.44055-0.0871 0.67846-0.0348 0.23212-0.0667 0.46241-0.0957 0.68872-0.029 0.22051-0.0582 0.42819-0.0871 0.62548-0.0291 0.1915-0.0527 0.3553-0.0701 0.48877v0.0256c-1e-5 0.0232 0.011 0.0342 0.0341 0.0342h1.2544c0.0348 0 0.0777-0.0192 0.12989-0.0598 0.058-0.0406 0.11354-0.0906 0.16577-0.14868 0.0522-0.058 0.0978-0.11629 0.13843-0.17432 0.0406-0.0638 0.0643-0.11934 0.0701-0.16577l0.34863-2.5054c0.0348-0.26113 0.0513-0.50513 0.0513-0.73144 0-0.30175-0.0374-0.57488-0.1128-0.8186-0.0697-0.24952-0.18615-0.45891-0.34862-0.62719-0.15669-0.16828-0.36436-0.29851-0.62549-0.39136-0.26113-0.0928-0.57711-0.13842-0.94847-0.13842-0.31337 0-0.57278 0.0247-0.77587 0.0769-0.19731 0.0464-0.3594 0.10194-0.48706 0.16577-0.12767 0.058-0.22877 0.11355-0.30421 0.16577-0.0755 0.0464-0.14193 0.0701-0.19994 0.0701-0.0464 0-0.0937-0.0209-0.14013-0.0615h-9e-3c-0.1857-0.16248-0.4088-0.27351-0.66992-0.33154-0.25533-0.058-0.51749-0.0854-0.78442-0.0854h-9e-3zm6.3642 5.3235c0.24134-0.0155 0.44304 0.0587 0.55883 0.2273 0.26467 0.38534-0.0186 1.1274-0.63232 1.6543-0.6137 0.52687-1.3247 0.64169-1.5894 0.25635-0.26466-0.38534 0.0186-1.1274 0.63233-1.6543 0.3452-0.29635 0.72019-0.46373 1.0305-0.48364z"
       transform="matrix(4,0,0,4,16,17)"
       inkscape:radius="0.25"
       sodipodi:type="inkscape:offset" />
    <g
       id="Bevel1">
      <path
         fill="#000"
         opacity=".10"
         sodipodi:type="inkscape:offset"
         inkscape:radius="0.5"
         transform="translate(16,17) scale(4)"
         inkscape:original="m8.0723 1.0005c-0.054 2.3e-4 -0.10747 2e-3 -0.16064 3e-3 -0.11352 4e-3 -0.22548 8e-3 -0.33496 0.0188-3.7772 0.35554-8.065 5.3244-6.0703 9.7719 2.2776 5.0784 8.5909 5.2576 11.879 2.1414 2.8963-2.7449-0.74531-4.6275-2.5669-0.76562-1.5846 3.3595-8.2173 2.9652-8.5876-2.4473-0.4708-6.8811 6.5007-10.124 10.7-6.7795-1.1672-1.2567-3.1855-1.9502-4.8586-1.9431zm5.2756 1.5022a0.35801 0.35801 0 0 0-0.33154 0.26318l-0.25294 0.88183-0.88011-0.25293a0.35801 0.35801 0 0 0-0.10597-0.0154 0.35801 0.35801 0 0 0-0.0923 0.70239l0.88011 0.25293-0.25291 0.88012a0.35834 0.35834 0 1 0 0.68871 0.19824l0.25293-0.88183 0.88011 0.25293a0.35801 0.35801 0 1 0 0.19827-0.68701l-0.88183-0.25293 0.25292-0.88012a0.35801 0.35801 0 0 0-0.35546-0.46142zm-6.3676 2.6318c-0.3888 1e-5 -0.75035 0.0538-1.0869 0.16407-0.0233 0.0116-0.0523 0.0171-0.0871 0.0171-0.0464 0-0.0992-5e-3 -0.15723-0.0171-0.058-0.0174-0.14267-0.0256-0.25293-0.0256h-0.73998c-0.0348 0-0.0805 0.0209-0.13843 0.0615-0.0522 0.0406-0.105 0.0889-0.15723 0.14697-0.0522 0.0522-0.0978 0.11049-0.13842 0.17431-0.0406 0.0638-0.0643 0.11935-0.0701 0.16577l-0.68702 5.0141c0 0.0406 0.0137 0.0598 0.0427 0.0598h1.2458c0.0348 0 0.0777-0.0192 0.12989-0.0598 0.058-0.0406 0.11354-0.0907 0.16577-0.14868 0.0522-0.058 0.0978-0.11629 0.13843-0.17432 0.0464-0.0638 0.0728-0.11935 0.0786-0.16577l0.34008-2.5054c0.0174-0.13927 0.0366-0.28491 0.0598-0.43579 0.029-0.15087 0.061-0.302 0.0957-0.45288 0.0406-0.15087 0.0852-0.29377 0.13159-0.42724 0.0522-0.13346 0.10608-0.25101 0.16406-0.35547 0.0233-0.0348 0.076-0.0711 0.15723-0.10596 0.0812-0.0406 0.1741-0.0598 0.27856-0.0598 0.0812 1e-5 0.16587 0.0192 0.25292 0.0598 0.0928 0.0348 0.17749 0.10302 0.25294 0.20166 0.0754 0.0928 0.13642 0.22308 0.18286 0.39136 0.0522 0.16249 0.0769 0.37187 0.0769 0.62719 0 0.12186-9e-3 0.27403-0.0256 0.45972-0.0116 0.18569-0.0325 0.38959-0.0615 0.6101-0.0233 0.21471-0.0506 0.44055-0.0854 0.67846-0.0291 0.23212-0.0626 0.46241-0.0975 0.68872-0.0291 0.22051-0.0564 0.42818-0.0854 0.62548-0.029 0.1915-0.0527 0.3553-0.0701 0.48877v0.0171c0 0.029 0.011 0.0427 0.0341 0.0427h1.2544c0.0348 0 0.0776-0.0192 0.12987-0.0599 0.058-0.0406 0.11354-0.0906 0.16578-0.14868 0.0522-0.058 0.0978-0.11629 0.13842-0.17432 0.0406-0.0638 0.0643-0.11934 0.0701-0.16576l0.34863-2.5054c0.0174-0.13926 0.0393-0.28491 0.0684-0.43579 0.029-0.15087 0.0626-0.302 0.0975-0.45287 0.0406-0.15087 0.0835-0.29378 0.12988-0.42725 0.0464-0.13346 0.0992-0.25101 0.15722-0.35546 0.0174-0.0348 0.0657-0.0711 0.14697-0.10596 0.0812-0.0406 0.17685-0.0598 0.28711-0.0598 0.0812 0 0.16588 0.0192 0.25293 0.0598 0.0928 0.0348 0.17749 0.10302 0.25294 0.20166 0.0754 0.0928 0.13642 0.22307 0.18285 0.39135 0.0522 0.16249 0.0769 0.37187 0.0769 0.62719 0 0.12187-9e-3 0.27403-0.0256 0.45972-0.0175 0.18569-0.0366 0.38959-0.0598 0.6101-0.0233 0.21471-0.0523 0.44055-0.0871 0.67846-0.0348 0.23212-0.0667 0.46241-0.0957 0.68872-0.029 0.22051-0.0582 0.42819-0.0871 0.62548-0.0291 0.1915-0.0527 0.3553-0.0701 0.48877v0.0256c-1e-5 0.0232 0.011 0.0342 0.0341 0.0342h1.2544c0.0348 0 0.0777-0.0192 0.12989-0.0598 0.058-0.0406 0.11354-0.0906 0.16577-0.14868 0.0522-0.058 0.0978-0.11629 0.13843-0.17432 0.0406-0.0638 0.0643-0.11934 0.0701-0.16577l0.34863-2.5054c0.0348-0.26113 0.0513-0.50513 0.0513-0.73144 0-0.30175-0.0374-0.57488-0.1128-0.8186-0.0697-0.24952-0.18615-0.45891-0.34862-0.62719-0.15669-0.16828-0.36436-0.29851-0.62549-0.39136-0.26113-0.0928-0.57711-0.13842-0.94847-0.13842-0.31337 0-0.57278 0.0247-0.77587 0.0769-0.19731 0.0464-0.3594 0.10194-0.48706 0.16577-0.12767 0.058-0.22877 0.11355-0.30421 0.16577-0.0755 0.0464-0.14193 0.0701-0.19994 0.0701-0.0464 0-0.0937-0.0209-0.14013-0.0615h-9e-3c-0.1857-0.16248-0.4088-0.27351-0.66992-0.33154-0.25533-0.058-0.51749-0.0854-0.78442-0.0854h-9e-3zm6.3642 5.3235c0.24134-0.0155 0.44304 0.0587 0.55883 0.2273 0.26467 0.38534-0.0186 1.1274-0.63232 1.6543-0.6137 0.52687-1.3247 0.64169-1.5894 0.25635-0.26466-0.38534 0.0186-1.1274 0.63233-1.6543 0.3452-0.29635 0.72019-0.46373 1.0305-0.48364z"
         id="path106" />
    </g>
    <g
       id="Bevel2">
      <path
         fill="#000"
         opacity=".05"
         sodipodi:type="inkscape:offset"
         inkscape:radius="0.75"
         transform="translate(16,17) scale(4)"
         inkscape:original="m8.0723 1.0005c-0.054 2.3e-4 -0.10747 2e-3 -0.16064 3e-3 -0.11352 4e-3 -0.22548 8e-3 -0.33496 0.0188-3.7772 0.35554-8.065 5.3244-6.0703 9.7719 2.2776 5.0784 8.5909 5.2576 11.879 2.1414 2.8963-2.7449-0.74531-4.6275-2.5669-0.76562-1.5846 3.3595-8.2173 2.9652-8.5876-2.4473-0.4708-6.8811 6.5007-10.124 10.7-6.7795-1.1672-1.2567-3.1855-1.9502-4.8586-1.9431zm5.2756 1.5022a0.35801 0.35801 0 0 0-0.33154 0.26318l-0.25294 0.88183-0.88011-0.25293a0.35801 0.35801 0 0 0-0.10597-0.0154 0.35801 0.35801 0 0 0-0.0923 0.70239l0.88011 0.25293-0.25291 0.88012a0.35834 0.35834 0 1 0 0.68871 0.19824l0.25293-0.88183 0.88011 0.25293a0.35801 0.35801 0 1 0 0.19827-0.68701l-0.88183-0.25293 0.25292-0.88012a0.35801 0.35801 0 0 0-0.35546-0.46142zm-6.3676 2.6318c-0.3888 1e-5 -0.75035 0.0538-1.0869 0.16407-0.0233 0.0116-0.0523 0.0171-0.0871 0.0171-0.0464 0-0.0992-5e-3 -0.15723-0.0171-0.058-0.0174-0.14267-0.0256-0.25293-0.0256h-0.73998c-0.0348 0-0.0805 0.0209-0.13843 0.0615-0.0522 0.0406-0.105 0.0889-0.15723 0.14697-0.0522 0.0522-0.0978 0.11049-0.13842 0.17431-0.0406 0.0638-0.0643 0.11935-0.0701 0.16577l-0.68702 5.0141c0 0.0406 0.0137 0.0598 0.0427 0.0598h1.2458c0.0348 0 0.0777-0.0192 0.12989-0.0598 0.058-0.0406 0.11354-0.0907 0.16577-0.14868 0.0522-0.058 0.0978-0.11629 0.13843-0.17432 0.0464-0.0638 0.0728-0.11935 0.0786-0.16577l0.34008-2.5054c0.0174-0.13927 0.0366-0.28491 0.0598-0.43579 0.029-0.15087 0.061-0.302 0.0957-0.45288 0.0406-0.15087 0.0852-0.29377 0.13159-0.42724 0.0522-0.13346 0.10608-0.25101 0.16406-0.35547 0.0233-0.0348 0.076-0.0711 0.15723-0.10596 0.0812-0.0406 0.1741-0.0598 0.27856-0.0598 0.0812 1e-5 0.16587 0.0192 0.25292 0.0598 0.0928 0.0348 0.17749 0.10302 0.25294 0.20166 0.0754 0.0928 0.13642 0.22308 0.18286 0.39136 0.0522 0.16249 0.0769 0.37187 0.0769 0.62719 0 0.12186-9e-3 0.27403-0.0256 0.45972-0.0116 0.18569-0.0325 0.38959-0.0615 0.6101-0.0233 0.21471-0.0506 0.44055-0.0854 0.67846-0.0291 0.23212-0.0626 0.46241-0.0975 0.68872-0.0291 0.22051-0.0564 0.42818-0.0854 0.62548-0.029 0.1915-0.0527 0.3553-0.0701 0.48877v0.0171c0 0.029 0.011 0.0427 0.0341 0.0427h1.2544c0.0348 0 0.0776-0.0192 0.12987-0.0599 0.058-0.0406 0.11354-0.0906 0.16578-0.14868 0.0522-0.058 0.0978-0.11629 0.13842-0.17432 0.0406-0.0638 0.0643-0.11934 0.0701-0.16576l0.34863-2.5054c0.0174-0.13926 0.0393-0.28491 0.0684-0.43579 0.029-0.15087 0.0626-0.302 0.0975-0.45287 0.0406-0.15087 0.0835-0.29378 0.12988-0.42725 0.0464-0.13346 0.0992-0.25101 0.15722-0.35546 0.0174-0.0348 0.0657-0.0711 0.14697-0.10596 0.0812-0.0406 0.17685-0.0598 0.28711-0.0598 0.0812 0 0.16588 0.0192 0.25293 0.0598 0.0928 0.0348 0.17749 0.10302 0.25294 0.20166 0.0754 0.0928 0.13642 0.22307 0.18285 0.39135 0.0522 0.16249 0.0769 0.37187 0.0769 0.62719 0 0.12187-9e-3 0.27403-0.0256 0.45972-0.0175 0.18569-0.0366 0.38959-0.0598 0.6101-0.0233 0.21471-0.0523 0.44055-0.0871 0.67846-0.0348 0.23212-0.0667 0.46241-0.0957 0.68872-0.029 0.22051-0.0582 0.42819-0.0871 0.62548-0.0291 0.1915-0.0527 0.3553-0.0701 0.48877v0.0256c-1e-5 0.0232 0.011 0.0342 0.0341 0.0342h1.2544c0.0348 0 0.0777-0.0192 0.12989-0.0598 0.058-0.0406 0.11354-0.0906 0.16577-0.14868 0.0522-0.058 0.0978-0.11629 0.13843-0.17432 0.0406-0.0638 0.0643-0.11934 0.0701-0.16577l0.34863-2.5054c0.0348-0.26113 0.0513-0.50513 0.0513-0.73144 0-0.30175-0.0374-0.57488-0.1128-0.8186-0.0697-0.24952-0.18615-0.45891-0.34862-0.62719-0.15669-0.16828-0.36436-0.29851-0.62549-0.39136-0.26113-0.0928-0.57711-0.13842-0.94847-0.13842-0.31337 0-0.57278 0.0247-0.77587 0.0769-0.19731 0.0464-0.3594 0.10194-0.48706 0.16577-0.12767 0.058-0.22877 0.11355-0.30421 0.16577-0.0755 0.0464-0.14193 0.0701-0.19994 0.0701-0.0464 0-0.0937-0.0209-0.14013-0.0615h-9e-3c-0.1857-0.16248-0.4088-0.27351-0.66992-0.33154-0.25533-0.058-0.51749-0.0854-0.78442-0.0854h-9e-3zm6.3642 5.3235c0.24134-0.0155 0.44304 0.0587 0.55883 0.2273 0.26467 0.38534-0.0186 1.1274-0.63232 1.6543-0.6137 0.52687-1.3247 0.64169-1.5894 0.25635-0.26466-0.38534 0.0186-1.1274 0.63233-1.6543 0.3452-0.29635 0.72019-0.46373 1.0305-0.48364z"
         id="path109" />
    </g>
    <path
       d="m8.0723 1.0005c-0.054 2.3e-4 -0.10747 2e-3 -0.16064 3e-3 -0.11352 4e-3 -0.22548 8e-3 -0.33496 0.0188-3.7772 0.35554-8.065 5.3244-6.0703 9.7719 2.2776 5.0784 8.5909 5.2576 11.879 2.1414 2.8963-2.7449-0.74531-4.6275-2.5669-0.76562-1.5846 3.3595-8.2173 2.9652-8.5876-2.4473-0.4708-6.8811 6.5007-10.124 10.7-6.7795-1.1672-1.2567-3.1855-1.9502-4.8586-1.9431zm5.2756 1.5022a0.35801 0.35801 0 0 0-0.33154 0.26318l-0.25294 0.88183-0.88011-0.25293a0.35801 0.35801 0 0 0-0.10597-0.0154 0.35801 0.35801 0 0 0-0.0923 0.70239l0.88011 0.25293-0.25291 0.88012a0.35834 0.35834 0 1 0 0.68871 0.19824l0.25293-0.88183 0.88011 0.25293a0.35801 0.35801 0 1 0 0.19827-0.68701l-0.88183-0.25293 0.25292-0.88012a0.35801 0.35801 0 0 0-0.35546-0.46142zm-6.3676 2.6318c-0.3888 1e-5 -0.75035 0.0538-1.0869 0.16407-0.0233 0.0116-0.0523 0.0171-0.0871 0.0171-0.0464 0-0.0992-5e-3 -0.15723-0.0171-0.058-0.0174-0.14267-0.0256-0.25293-0.0256h-0.73998c-0.0348 0-0.0805 0.0209-0.13843 0.0615-0.0522 0.0406-0.105 0.0889-0.15723 0.14697-0.0522 0.0522-0.0978 0.11049-0.13842 0.17431-0.0406 0.0638-0.0643 0.11935-0.0701 0.16577l-0.68702 5.0141c0 0.0406 0.0137 0.0598 0.0427 0.0598h1.2458c0.0348 0 0.0777-0.0192 0.12989-0.0598 0.058-0.0406 0.11354-0.0907 0.16577-0.14868 0.0522-0.058 0.0978-0.11629 0.13843-0.17432 0.0464-0.0638 0.0728-0.11935 0.0786-0.16577l0.34008-2.5054c0.0174-0.13927 0.0366-0.28491 0.0598-0.43579 0.029-0.15087 0.061-0.302 0.0957-0.45288 0.0406-0.15087 0.0852-0.29377 0.13159-0.42724 0.0522-0.13346 0.10608-0.25101 0.16406-0.35547 0.0233-0.0348 0.076-0.0711 0.15723-0.10596 0.0812-0.0406 0.1741-0.0598 0.27856-0.0598 0.0812 1e-5 0.16587 0.0192 0.25292 0.0598 0.0928 0.0348 0.17749 0.10302 0.25294 0.20166 0.0754 0.0928 0.13642 0.22308 0.18286 0.39136 0.0522 0.16249 0.0769 0.37187 0.0769 0.62719 0 0.12186-9e-3 0.27403-0.0256 0.45972-0.0116 0.18569-0.0325 0.38959-0.0615 0.6101-0.0233 0.21471-0.0506 0.44055-0.0854 0.67846-0.0291 0.23212-0.0626 0.46241-0.0975 0.68872-0.0291 0.22051-0.0564 0.42818-0.0854 0.62548-0.029 0.1915-0.0527 0.3553-0.0701 0.48877v0.0171c0 0.029 0.011 0.0427 0.0341 0.0427h1.2544c0.0348 0 0.0776-0.0192 0.12987-0.0599 0.058-0.0406 0.11354-0.0906 0.16578-0.14868 0.0522-0.058 0.0978-0.11629 0.13842-0.17432 0.0406-0.0638 0.0643-0.11934 0.0701-0.16576l0.34863-2.5054c0.0174-0.13926 0.0393-0.28491 0.0684-0.43579 0.029-0.15087 0.0626-0.302 0.0975-0.45287 0.0406-0.15087 0.0835-0.29378 0.12988-0.42725 0.0464-0.13346 0.0992-0.25101 0.15722-0.35546 0.0174-0.0348 0.0657-0.0711 0.14697-0.10596 0.0812-0.0406 0.17685-0.0598 0.28711-0.0598 0.0812 0 0.16588 0.0192 0.25293 0.0598 0.0928 0.0348 0.17749 0.10302 0.25294 0.20166 0.0754 0.0928 0.13642 0.22307 0.18285 0.39135 0.0522 0.16249 0.0769 0.37187 0.0769 0.62719 0 0.12187-9e-3 0.27403-0.0256 0.45972-0.0175 0.18569-0.0366 0.38959-0.0598 0.6101-0.0233 0.21471-0.0523 0.44055-0.0871 0.67846-0.0348 0.23212-0.0667 0.46241-0.0957 0.68872-0.029 0.22051-0.0582 0.42819-0.0871 0.62548-0.0291 0.1915-0.0527 0.3553-0.0701 0.48877v0.0256c-1e-5 0.0232 0.011 0.0342 0.0341 0.0342h1.2544c0.0348 0 0.0777-0.0192 0.12989-0.0598 0.058-0.0406 0.11354-0.0906 0.16577-0.14868 0.0522-0.058 0.0978-0.11629 0.13843-0.17432 0.0406-0.0638 0.0643-0.11934 0.0701-0.16577l0.34863-2.5054c0.0348-0.26113 0.0513-0.50513 0.0513-0.73144 0-0.30175-0.0374-0.57488-0.1128-0.8186-0.0697-0.24952-0.18615-0.45891-0.34862-0.62719-0.15669-0.16828-0.36436-0.29851-0.62549-0.39136-0.26113-0.0928-0.57711-0.13842-0.94847-0.13842-0.31337 0-0.57278 0.0247-0.77587 0.0769-0.19731 0.0464-0.3594 0.10194-0.48706 0.16577-0.12767 0.058-0.22877 0.11355-0.30421 0.16577-0.0755 0.0464-0.14193 0.0701-0.19994 0.0701-0.0464 0-0.0937-0.0209-0.14013-0.0615h-9e-3c-0.1857-0.16248-0.4088-0.27351-0.66992-0.33154-0.25533-0.058-0.51749-0.0854-0.78442-0.0854h-9e-3zm6.3642 5.3235c0.24134-0.0155 0.44304 0.0587 0.55883 0.2273 0.26467 0.38534-0.0186 1.1274-0.63232 1.6543-0.6137 0.52687-1.3247 0.64169-1.5894 0.25635-0.26466-0.38534 0.0186-1.1274 0.63233-1.6543 0.3452-0.29635 0.72019-0.46373 1.0305-0.48364z"
       fill="url(#a)"
       id="base"
       transform="translate(16,16) scale(4)" />
    <path
       style="opacity:0.3;fill:#000000;stroke-width:4"
       d="M 51.828125 20.474609 C 38.099906 20.828516 24.578207 32.258902 24.849609 50.820312 C 25.159495 25.487307 51.433061 13.965857 67.601562 26.683594 L 67.607422 26.658203 C 65.857674 24.808702 63.649569 23.268123 61.21875 22.066406 C 58.189863 20.914092 55.004987 20.392711 51.828125 20.474609 z M 70.785156 25.949219 L 69.800781 29.376953 L 70.066406 29.453125 L 70.8125 26.855469 A 1.43204 1.43204 0 0 0 70.785156 25.949219 z M 61.789062 29.449219 A 1.43204 1.43204 0 0 0 62.740234 31.326172 L 65.994141 32.261719 L 66.259766 31.337891 L 62.740234 30.326172 A 1.43204 1.43204 0 0 1 61.789062 29.449219 z M 69.015625 32.125 L 68.003906 35.652344 A 1.43336 1.43336 0 0 1 65.279297 35.751953 L 65.248047 35.859375 A 1.43336 1.43336 0 1 0 68.003906 36.652344 L 69.015625 33.125 L 72.535156 34.136719 A 1.43204 1.43204 0 0 0 74.34375 32.283203 A 1.43204 1.43204 0 0 1 72.535156 33.136719 L 69.015625 32.125 z M 41.972656 38.017578 C 41.554816 38.017578 41.184175 38.093459 40.859375 38.255859 C 40.534455 38.395299 40.323669 38.540487 40.230469 38.679688 C 39.998549 39.097527 39.783019 39.567723 39.574219 40.101562 C 39.388659 40.635443 39.209275 41.207067 39.046875 41.810547 C 38.908075 42.414067 38.780062 43.019567 38.664062 43.623047 C 38.571263 44.226567 38.495381 44.808154 38.425781 45.365234 L 37.064453 55.386719 C 37.041253 55.572399 36.9356 55.795581 36.75 56.050781 C 36.58748 56.282901 36.406066 56.516047 36.197266 56.748047 C 35.988346 56.979967 35.765203 57.179397 35.533203 57.341797 C 35.324443 57.504197 35.152872 57.582031 35.013672 57.582031 L 30.03125 57.582031 C 30.00225 57.582031 29.988247 57.562472 29.966797 57.552734 L 29.859375 58.341797 C 29.859375 58.504197 29.91525 58.582031 30.03125 58.582031 L 35.013672 58.582031 C 35.152872 58.582031 35.324443 58.504197 35.533203 58.341797 C 35.765203 58.179397 35.988346 57.979967 36.197266 57.748047 C 36.406066 57.516047 36.58748 57.282901 36.75 57.050781 C 36.9356 56.795581 37.041253 56.572399 37.064453 56.386719 L 38.425781 46.365234 C 38.495381 45.808154 38.571263 45.226567 38.664062 44.623047 C 38.780062 44.019567 38.908075 43.414067 39.046875 42.810547 C 39.209275 42.207067 39.388659 41.635443 39.574219 41.101562 C 39.783019 40.567723 39.998549 40.097527 40.230469 39.679688 C 40.323669 39.540487 40.534455 39.395299 40.859375 39.255859 C 41.184175 39.093459 41.554816 39.017578 41.972656 39.017578 C 42.297456 39.017618 42.636175 39.093459 42.984375 39.255859 C 43.355575 39.395059 43.694294 39.66794 43.996094 40.0625 C 44.297694 40.4337 44.542756 40.955786 44.728516 41.628906 C 44.899685 42.161729 44.97832 42.851942 45.007812 43.634766 C 45.012977 43.484795 45.035156 43.268667 45.035156 43.136719 C 45.035156 42.115439 44.937316 41.278866 44.728516 40.628906 C 44.542756 39.955786 44.297694 39.4337 43.996094 39.0625 C 43.694294 38.66794 43.355575 38.395059 42.984375 38.255859 C 42.636175 38.093459 42.297456 38.017618 41.972656 38.017578 z M 55.447266 38.017578 C 55.006226 38.017578 54.623628 38.093459 54.298828 38.255859 C 53.973748 38.395299 53.780538 38.540487 53.710938 38.679688 C 53.478858 39.097487 53.267631 39.567723 53.082031 40.101562 C 52.896511 40.635442 52.7249 41.207067 52.5625 41.810547 C 52.4229 42.414027 52.287875 43.019567 52.171875 43.623047 C 52.055475 44.226567 51.968038 44.808194 51.898438 45.365234 L 50.503906 55.386719 C 50.480706 55.572399 50.385056 55.795581 50.222656 56.050781 C 50.060176 56.282901 49.878722 56.516047 49.669922 56.748047 C 49.460962 56.980367 49.237859 57.179397 49.005859 57.341797 C 48.796779 57.504597 48.625528 57.582031 48.486328 57.582031 L 43.46875 57.582031 C 43.457359 57.582031 43.453287 57.573943 43.443359 57.572266 C 43.408404 57.819325 43.361377 58.13168 43.333984 58.341797 L 43.333984 58.410156 C 43.333984 58.526156 43.37635 58.582031 43.46875 58.582031 L 48.486328 58.582031 C 48.625528 58.582031 48.796779 58.504597 49.005859 58.341797 C 49.237859 58.179397 49.460962 57.980367 49.669922 57.748047 C 49.878722 57.516047 50.060176 57.282901 50.222656 57.050781 C 50.385056 56.795581 50.480706 56.572399 50.503906 56.386719 L 51.898438 46.365234 C 51.968038 45.808194 52.055475 45.226567 52.171875 44.623047 C 52.287875 44.019567 52.4229 43.414027 52.5625 42.810547 C 52.7249 42.207067 52.896511 41.635443 53.082031 41.101562 C 53.267631 40.567723 53.478858 40.097487 53.710938 39.679688 C 53.780538 39.540487 53.973748 39.395299 54.298828 39.255859 C 54.623628 39.093459 55.006226 39.017578 55.447266 39.017578 C 55.772066 39.017578 56.110784 39.093459 56.458984 39.255859 C 56.830184 39.395059 57.168903 39.66794 57.470703 40.0625 C 57.772303 40.4337 58.015452 40.955786 58.201172 41.628906 C 58.371957 42.160531 58.452692 42.848399 58.482422 43.628906 C 58.487467 43.480914 58.509766 43.267122 58.509766 43.136719 C 58.509766 42.115439 58.409972 41.278866 58.201172 40.628906 C 58.015452 39.955786 57.772303 39.4337 57.470703 39.0625 C 57.168903 38.66794 56.830184 38.395059 56.458984 38.255859 C 56.110784 38.093459 55.772066 38.017578 55.447266 38.017578 z M 65.560547 42.900391 C 65.542337 43.676972 65.489495 44.491438 65.373047 45.365234 L 63.978516 55.386719 C 63.955316 55.572439 63.859666 55.793628 63.697266 56.048828 C 63.534746 56.280948 63.353331 56.514094 63.144531 56.746094 C 62.935611 56.978414 62.712469 57.179397 62.480469 57.341797 C 62.271709 57.504197 62.100138 57.580078 61.960938 57.580078 L 56.943359 57.580078 C 56.931875 57.580078 56.927967 57.573634 56.917969 57.572266 C 56.883055 57.819386 56.834039 58.131634 56.806641 58.341797 L 56.806641 58.443359 C 56.806601 58.536159 56.850959 58.580078 56.943359 58.580078 L 61.763672 58.580078 C 62.490072 57.646123 63.24082 56.857173 64.001953 56.220703 L 65.373047 46.365234 C 65.512247 45.320714 65.578125 44.344693 65.578125 43.439453 C 65.578125 43.255596 65.567498 43.078924 65.560547 42.900391 z M 20.015625 47.984375 C 19.908462 51.363915 20.514188 54.808268 22.025391 58.177734 C 31.135791 78.491334 56.388616 79.206987 69.541016 66.742188 C 72.881025 63.576772 74.03819 60.702211 73.832031 58.578125 C 73.643164 60.567699 72.381775 63.049925 69.541016 65.742188 C 56.388616 78.206987 31.135791 77.491334 22.025391 57.177734 C 20.662887 54.139817 20.047814 51.041643 20.015625 47.984375 z M 69.376953 55.832031 C 68.135713 55.911671 66.636659 56.580225 65.255859 57.765625 C 63.210039 59.522005 62.087242 61.874078 62.380859 63.501953 C 62.564935 61.99806 63.5978 60.189104 65.255859 58.765625 C 66.636659 57.580225 68.135713 56.911671 69.376953 56.832031 L 69.378906 56.832031 C 70.344266 56.770031 71.150121 57.065834 71.613281 57.740234 C 71.789705 57.997094 71.900267 58.297523 71.958984 58.623047 C 72.047449 57.900278 71.956926 57.240556 71.613281 56.740234 C 71.150121 56.065834 70.344266 55.770031 69.378906 55.832031 L 69.376953 55.832031 z "
       transform="translate(0,2)"
       id="path113" />
    <path
       style="fill:#ffffff;stroke-width:4"
       d="M 48.289062 18 L 48.289062 18.001953 C 48.073062 18.002873 47.859164 18.009672 47.646484 18.013672 C 47.192404 18.029672 46.744561 18.046644 46.306641 18.089844 C 33.777902 19.269148 19.859317 33.138327 20.015625 47.984375 C 20.474259 33.520731 34.059482 20.242643 46.306641 19.089844 C 46.744561 19.046644 47.192404 19.029672 47.646484 19.013672 C 47.859164 19.009672 48.073062 19.002873 48.289062 19.001953 L 48.289062 19 C 52.448954 18.982347 57.14108 20.05054 61.21875 22.066406 C 63.499956 22.934272 65.693144 24.157048 67.722656 25.773438 C 63.053856 20.746638 54.981462 17.9716 48.289062 18 z M 69.390625 24.009766 L 69.390625 24.011719 A 1.43204 1.43204 0 0 0 68.066406 25.064453 L 67.607422 26.658203 C 67.644589 26.697489 67.685909 26.733872 67.722656 26.773438 C 67.682906 26.741779 67.641436 26.714957 67.601562 26.683594 L 67.052734 28.591797 L 63.533203 27.580078 A 1.43204 1.43204 0 0 0 63.109375 27.517578 A 1.43204 1.43204 0 0 0 61.789062 29.449219 A 1.43204 1.43204 0 0 1 63.109375 28.517578 A 1.43204 1.43204 0 0 1 63.533203 28.580078 L 67.052734 29.591797 L 68.066406 26.064453 A 1.43204 1.43204 0 0 1 69.390625 25.011719 L 69.390625 25.009766 A 1.43204 1.43204 0 0 1 70.785156 25.949219 L 70.8125 25.855469 A 1.43204 1.43204 0 0 0 69.390625 24.009766 z M 70.066406 29.453125 L 69.800781 30.376953 L 73.328125 31.388672 A 1.43204 1.43204 0 0 1 74.34375 32.283203 A 1.43204 1.43204 0 0 0 73.328125 30.388672 L 70.066406 29.453125 z M 65.994141 32.261719 L 65.248047 34.859375 A 1.43336 1.43336 0 0 0 65.279297 35.751953 L 66.259766 32.337891 L 65.994141 32.261719 z M 43.917969 34.537109 C 42.364277 34.537515 40.919274 34.752655 39.574219 35.193359 C 39.481019 35.239759 39.363809 35.261719 39.224609 35.261719 C 39.039009 35.261719 38.827823 35.241759 38.595703 35.193359 C 38.363703 35.123759 38.025024 35.091797 37.583984 35.091797 L 34.625 35.091797 C 34.4858 35.091797 34.302032 35.175491 34.070312 35.337891 C 33.861513 35.500291 33.650326 35.693501 33.441406 35.925781 C 33.232606 36.134581 33.051152 36.367767 32.888672 36.623047 C 32.726272 36.878247 32.630622 37.099476 32.607422 37.285156 L 29.859375 57.341797 C 29.859375 57.463597 29.902447 57.523522 29.966797 57.552734 L 32.607422 38.285156 C 32.630622 38.099476 32.726272 37.878247 32.888672 37.623047 C 33.051152 37.367767 33.232606 37.134581 33.441406 36.925781 C 33.650326 36.693501 33.861513 36.500291 34.070312 36.337891 C 34.302032 36.175491 34.4858 36.091797 34.625 36.091797 L 37.583984 36.091797 C 38.025024 36.091797 38.363703 36.123759 38.595703 36.193359 C 38.827823 36.241759 39.039009 36.261719 39.224609 36.261719 C 39.363809 36.261719 39.481019 36.239759 39.574219 36.193359 C 40.919274 35.752655 42.364277 35.537515 43.917969 35.537109 L 43.921875 35.537109 L 43.955078 35.537109 C 45.022798 35.537109 46.070477 35.646906 47.091797 35.878906 C 48.136277 36.111026 49.028684 36.555158 49.771484 37.205078 L 49.808594 37.205078 C 49.994314 37.367478 50.183541 37.451172 50.369141 37.451172 C 50.601181 37.451172 50.865969 37.355522 51.167969 37.169922 C 51.469729 36.961042 51.874086 36.739812 52.384766 36.507812 C 52.895406 36.252492 53.544744 36.02935 54.333984 35.84375 C 55.146344 35.63495 56.182067 35.537109 57.435547 35.537109 C 58.920987 35.537109 60.185949 35.718644 61.230469 36.089844 C 62.274989 36.461244 63.105662 36.98313 63.732422 37.65625 C 64.382302 38.32937 64.848153 39.165982 65.126953 40.164062 C 65.382612 40.990443 65.521866 41.906874 65.560547 42.900391 C 65.564105 42.748661 65.578125 42.587412 65.578125 42.439453 C 65.578125 41.232453 65.428553 40.138942 65.126953 39.164062 C 64.848153 38.165982 64.382302 37.32937 63.732422 36.65625 C 63.105662 35.98313 62.274989 35.461244 61.230469 35.089844 C 60.185949 34.718644 58.920987 34.537109 57.435547 34.537109 C 56.182067 34.537109 55.146344 34.63495 54.333984 34.84375 C 53.544744 35.02935 52.895406 35.252492 52.384766 35.507812 C 51.874086 35.739812 51.469729 35.961042 51.167969 36.169922 C 50.865969 36.355522 50.601181 36.451172 50.369141 36.451172 C 50.183541 36.451172 49.994314 36.367478 49.808594 36.205078 L 49.771484 36.205078 C 49.028684 35.555158 48.136277 35.111026 47.091797 34.878906 C 46.070477 34.646906 45.022798 34.537109 43.955078 34.537109 L 43.921875 34.537109 L 43.917969 34.537109 z M 58.482422 43.628906 C 58.468607 44.034144 58.454888 44.432495 58.40625 44.976562 C 58.33625 45.719322 58.260769 46.533976 58.167969 47.416016 C 58.074769 48.274856 57.957559 49.177266 57.818359 50.128906 C 57.679159 51.057386 57.551547 51.979526 57.435547 52.884766 C 57.319547 53.766806 57.203491 54.597559 57.087891 55.386719 C 56.971491 56.152719 56.876241 56.807917 56.806641 57.341797 L 56.806641 57.443359 C 56.806606 57.524625 56.847522 57.562623 56.917969 57.572266 C 56.971747 57.191621 57.017312 56.851182 57.087891 56.386719 C 57.203491 55.597559 57.319547 54.766806 57.435547 53.884766 C 57.551547 52.979526 57.679159 52.057386 57.818359 51.128906 C 57.957559 50.177266 58.074769 49.274856 58.167969 48.416016 C 58.260769 47.533976 58.33625 46.719322 58.40625 45.976562 C 58.47265 45.233802 58.509766 44.624199 58.509766 44.136719 C 58.509766 43.950779 58.489039 43.80264 58.482422 43.628906 z M 45.007812 43.634766 C 44.993898 44.038814 44.98202 44.434865 44.933594 44.976562 C 44.887194 45.719322 44.8035 46.533976 44.6875 47.416016 C 44.5943 48.274856 44.484903 49.179219 44.345703 50.130859 C 44.229303 51.059339 44.094678 51.979526 43.955078 52.884766 C 43.838678 53.766806 43.729281 54.597519 43.613281 55.386719 C 43.497281 56.152719 43.403584 56.807917 43.333984 57.341797 L 43.333984 57.410156 C 43.333984 57.511856 43.372753 57.560335 43.443359 57.572266 C 43.49722 57.19158 43.542935 56.851247 43.613281 56.386719 C 43.729281 55.597519 43.838678 54.766806 43.955078 53.884766 C 44.094678 52.979526 44.229303 52.059339 44.345703 51.130859 C 44.484903 50.179219 44.5943 49.274856 44.6875 48.416016 C 44.8035 47.533976 44.887194 46.719322 44.933594 45.976562 C 44.999994 45.233802 45.035156 44.624159 45.035156 44.136719 C 45.035156 43.952661 45.014296 43.806864 45.007812 43.634766 z M 24.849609 50.820312 C 24.837322 51.824762 24.852177 52.843392 24.923828 53.890625 C 26.405028 75.540625 52.935037 77.117688 59.273438 63.679688 C 64.459142 52.685682 73.323106 53.33458 73.832031 58.578125 C 74.2666 54.000276 68.993421 52.046773 64.001953 56.220703 L 63.978516 56.386719 C 63.955316 56.572439 63.859666 56.793628 63.697266 57.048828 C 63.534746 57.280948 63.353331 57.514094 63.144531 57.746094 C 62.935611 57.978414 62.712469 58.179397 62.480469 58.341797 C 62.271709 58.504197 62.100138 58.580078 61.960938 58.580078 L 61.763672 58.580078 C 60.880824 59.715183 60.035315 61.064462 59.273438 62.679688 C 52.935037 76.117688 26.405028 74.540625 24.923828 52.890625 C 24.875805 52.188731 24.859593 51.503083 24.849609 50.820312 z M 71.958984 58.623047 C 71.774912 60.12694 70.742017 61.935896 69.083984 63.359375 C 66.629184 65.466855 63.785362 65.926126 62.726562 64.384766 C 62.550146 64.127906 62.439573 63.827477 62.380859 63.501953 C 62.292393 64.224722 62.382931 64.884444 62.726562 65.384766 C 63.785362 66.926126 66.629184 66.466855 69.083984 64.359375 C 71.129772 62.602995 72.252616 60.250922 71.958984 58.623047 z "
       transform="translate(0,2)"
       id="path118" />
  </g>
</svg>
