<?xml version="1.0" encoding="UTF-8" standalone="no"?>
<svg
   xmlns:dc="http://purl.org/dc/elements/1.1/"
   xmlns:cc="http://creativecommons.org/ns#"
   xmlns:rdf="http://www.w3.org/1999/02/22-rdf-syntax-ns#"
   xmlns:svg="http://www.w3.org/2000/svg"
   xmlns="http://www.w3.org/2000/svg"
   xmlns:xlink="http://www.w3.org/1999/xlink"
   xmlns:sodipodi="http://sodipodi.sourceforge.net/DTD/sodipodi-0.dtd"
   xmlns:inkscape="http://www.inkscape.org/namespaces/inkscape"
   version="1.0"
   width="96"
   height="96"
   id="svg2408"
   sodipodi:docname="mc.svg"
   inkscape:version="0.92.2 5c3e80d, 2017-08-06">
  <sodipodi:namedview
     pagecolor="#ffffff"
     bordercolor="#666666"
     borderopacity="1"
     objecttolerance="10"
     gridtolerance="10"
     guidetolerance="10"
     inkscape:pageopacity="0"
     inkscape:pageshadow="2"
     inkscape:window-width="1366"
     inkscape:window-height="743"
     id="namedview102"
     showgrid="false"
     inkscape:zoom="4.9166667"
     inkscape:cx="50.798031"
     inkscape:cy="37.060802"
     inkscape:window-x="0"
     inkscape:window-y="25"
     inkscape:window-maximized="1"
     inkscape:current-layer="svg2408" />
  <defs
     id="defs2410">
    <linearGradient
       id="linearGradient4565">
      <stop
         id="stop4561"
         offset="0"
         style="stop-color:#6ce200;stop-opacity:1" />
      <stop
         id="stop4563"
         offset="1"
         style="stop-color:#4b9d29;stop-opacity:1" />
    </linearGradient>
    <linearGradient
       id="linearGradient4564">
      <stop
         style="stop-color:#ffcfac;stop-opacity:1;"
         offset="0"
         id="stop4560" />
      <stop
         style="stop-color:#ffcfac;stop-opacity:0;"
         offset="1"
         id="stop4562" />
    </linearGradient>
    <linearGradient
       x1="45.447727"
       y1="92.539597"
       x2="45.447727"
       y2="7.0165396"
       id="ButtonShadow"
       gradientUnits="userSpaceOnUse"
       gradientTransform="scale(1.0058652,0.994169)">
      <stop
         id="stop3750"
         style="stop-color:#000000;stop-opacity:1"
         offset="0" />
      <stop
         id="stop3752"
         style="stop-color:#000000;stop-opacity:0.58823532"
         offset="1" />
    </linearGradient>
    <linearGradient
       id="linearGradient3737">
      <stop
         id="stop3739"
         style="stop-color:#fffac8;stop-opacity:1"
         offset="0" />
      <stop
         id="stop3741"
         style="stop-color:#feff67;stop-opacity:0"
         offset="1" />
    </linearGradient>
    <linearGradient
       id="linearGradient3700">
      <stop
         id="stop3702"
         style="stop-color:#003baa;stop-opacity:1"
         offset="0" />
      <stop
         id="stop3704"
         style="stop-color:#0077e7;stop-opacity:1"
         offset="1" />
    </linearGradient>
    <filter
       color-interpolation-filters="sRGB"
       id="filter3174">
      <feGaussianBlur
         id="feGaussianBlur3176"
         stdDeviation="1.71" />
    </filter>
    <linearGradient
       x1="36.357143"
       y1="6"
       x2="36.357143"
       y2="63.893143"
       id="linearGradient3188"
       xlink:href="#linearGradient3737"
       gradientUnits="userSpaceOnUse"
       gradientTransform="translate(1.84375,5.375)" />
    <filter
       x="-0.192"
       y="-0.192"
       width="1.3839999"
       height="1.3839999"
       color-interpolation-filters="sRGB"
       id="filter3794">
      <feGaussianBlur
         id="feGaussianBlur3796"
         stdDeviation="5.28" />
    </filter>
    <linearGradient
       x1="48"
       y1="20.220806"
       x2="48"
       y2="138.66119"
       id="linearGradient3613"
       xlink:href="#linearGradient3737"
       gradientUnits="userSpaceOnUse" />
    <radialGradient
       cx="48"
       cy="90.171875"
       r="42"
       fx="48"
       fy="90.171875"
       id="radialGradient3619"
       xlink:href="#linearGradient3737"
       gradientUnits="userSpaceOnUse"
       gradientTransform="matrix(1.1573129,0,0,0.99590774,-26.873055,-1.2265969)" />
    <clipPath
       id="clipPath3613">
      <rect
         width="84"
         height="84"
         rx="6"
         ry="6"
         x="6"
         y="6"
         id="rect3615"
         style="fill:#ffffff;fill-opacity:1;fill-rule:nonzero;stroke:none" />
    </clipPath>
    <linearGradient
       x1="48"
       y1="90"
       x2="48"
       y2="5.9877172"
       id="linearGradient3617"
       xlink:href="#linearGradient3700"
       gradientUnits="userSpaceOnUse" />
    <linearGradient
       x1="45.447727"
       y1="92.539597"
       x2="45.447727"
       y2="7.0165396"
       id="ButtonShadow-0"
       gradientUnits="userSpaceOnUse"
       gradientTransform="matrix(1.0058652,0,0,0.994169,100,0)">
      <stop
         id="stop3750-8"
         style="stop-color:#000000;stop-opacity:1"
         offset="0" />
      <stop
         id="stop3752-5"
         style="stop-color:#000000;stop-opacity:0.58823532"
         offset="1" />
    </linearGradient>
    <linearGradient
       x1="32.251034"
       y1="6.1317081"
       x2="32.251034"
       y2="90.238609"
       id="linearGradient3780"
       xlink:href="#ButtonShadow-0"
       gradientUnits="userSpaceOnUse"
       gradientTransform="matrix(1.0238095,0,0,1.0119048,-1.1428571,-98.071429)" />
    <linearGradient
       x1="32.251034"
       y1="6.1317081"
       x2="32.251034"
       y2="90.238609"
       id="linearGradient3772"
       xlink:href="#ButtonShadow-0"
       gradientUnits="userSpaceOnUse"
       gradientTransform="matrix(1.0238095,0,0,1.0119048,-1.1428571,-98.071429)" />
    <linearGradient
       x1="32.251034"
       y1="6.1317081"
       x2="32.251034"
       y2="90.238609"
       id="linearGradient3725"
       xlink:href="#ButtonShadow-0"
       gradientUnits="userSpaceOnUse"
       gradientTransform="matrix(1.0238095,0,0,1.0119048,-1.1428571,-98.071429)" />
    <linearGradient
       x1="32.251034"
       y1="6.1317081"
       x2="32.251034"
       y2="90.238609"
       id="linearGradient3721"
       xlink:href="#ButtonShadow-0"
       gradientUnits="userSpaceOnUse"
       gradientTransform="translate(0,-97)" />
    <linearGradient
       x1="32.251034"
       y1="6.1317081"
       x2="32.251034"
       y2="90.238609"
       id="linearGradient3026"
       xlink:href="#ButtonShadow-0"
       gradientUnits="userSpaceOnUse"
       gradientTransform="matrix(1.0238095,0,0,1.0119048,-1.1428571,-98.071429)" />
    <linearGradient
       xlink:href="#linearGradient4564"
       id="linearGradient4566"
       x1="38.525424"
       y1="58.576271"
       x2="53.52504"
       y2="58.576271"
       gradientUnits="userSpaceOnUse"
       gradientTransform="rotate(-180,45.864403,53.779661)" />
    <linearGradient
       gradientTransform="matrix(0.65949659,0,0,0.65949659,12.343454,20.44281)"
       x1="44"
       y1="6"
       x2="44"
       y2="64.215118"
       id="linearGradient3967"
       xlink:href="#linearGradient3781"
       gradientUnits="userSpaceOnUse" />
    <linearGradient
       id="linearGradient3781">
      <stop
         offset="0"
         style="stop-color:#ffffff;stop-opacity:1"
         id="stop3783" />
      <stop
         offset="1"
         style="stop-color:#ffffff;stop-opacity:0"
         id="stop3785" />
    </linearGradient>
    <linearGradient
       gradientTransform="matrix(0.65949659,0,0,0.65949659,12.343454,20.44281)"
       x1="48"
       y1="90"
       x2="48"
       y2="5.9877172"
       id="linearGradient3948"
       xlink:href="#ButtonColor"
       gradientUnits="userSpaceOnUse" />
    <linearGradient
       x1="10.31979"
       y1="21"
       x2="10.31979"
       y2="0.99929649"
       id="ButtonColor"
       gradientUnits="userSpaceOnUse">
      <stop
         id="stop3189"
         style="stop-color:#95c2e6;stop-opacity:1"
         offset="0" />
      <stop
         id="stop3191"
         style="stop-color:#d9ecfd;stop-opacity:1"
         offset="1" />
    </linearGradient>
    <linearGradient
       xlink:href="#ButtonShadow"
       id="linearGradient4626"
       gradientUnits="userSpaceOnUse"
       gradientTransform="translate(-1,1)"
       x1="48"
       y1="90.868095"
       x2="48"
       y2="5.9877172" />
    <linearGradient
       x1="48"
       y1="90"
       x2="48"
       y2="5.9877172"
       id="linearGradient3989"
       xlink:href="#ButtonShadow"
       gradientUnits="userSpaceOnUse"
       gradientTransform="translate(0,1)" />
    <linearGradient
       gradientTransform="matrix(0.43833762,0,0,0.43833762,39.453852,-30.567321)"
       gradientUnits="userSpaceOnUse"
       y2="246.91525"
       x2="16.677965"
       y1="112.67797"
       x1="16.271189"
       id="linearGradient4567"
       xlink:href="#linearGradient4565" />
    <linearGradient
       gradientTransform="matrix(0.43833762,0,0,0.43833762,43.060563,-31.016765)"
       gradientUnits="userSpaceOnUse"
       y2="246.91525"
       x2="16.677965"
       y1="112.67797"
       x1="16.271189"
       id="linearGradient4567-3"
       xlink:href="#linearGradient4565" />
    <linearGradient
       gradientTransform="matrix(0.43833762,0,0,0.43833762,43.060563,-31.016765)"
       gradientUnits="userSpaceOnUse"
       y2="246.91525"
       x2="16.677965"
       y1="112.67797"
       x1="16.271189"
       id="linearGradient4567-35"
       xlink:href="#ButtonShadow-0" />
    <linearGradient
       gradientTransform="rotate(-90,47.921875,48.078123)"
       x1="65"
       y1="6"
       x2="65"
       y2="86"
       id="linearGradient3930"
       xlink:href="#linearGradient3781"
       gradientUnits="userSpaceOnUse" />
    <radialGradient
       cx="32"
       cy="14.5"
       r="26"
       fx="32"
       fy="14.5"
       id="radialGradient3907"
       xlink:href="#linearGradient3781"
       gradientUnits="userSpaceOnUse"
       gradientTransform="matrix(1.576923,0,0,0.05769231,-3.2750951,19.527869)" />
    <radialGradient
       cx="32"
       cy="14.5"
       r="26"
       fx="32"
       fy="14.5"
       id="radialGradient3911"
       xlink:href="#linearGradient3781"
       gradientUnits="userSpaceOnUse"
       gradientTransform="matrix(1.576923,0,0,0.05769231,-3.2750951,14.527869)" />
    <radialGradient
       cx="32"
       cy="14.5"
       r="26"
       fx="32"
       fy="14.5"
       id="radialGradient3915"
       xlink:href="#linearGradient3781"
       gradientUnits="userSpaceOnUse"
       gradientTransform="matrix(1.576923,0,0,0.05769231,-3.2750951,19.527869)" />
    <radialGradient
       cx="32"
       cy="14.5"
       r="26"
       fx="32"
       fy="14.5"
       id="radialGradient3919"
       xlink:href="#linearGradient3781"
       gradientUnits="userSpaceOnUse"
       gradientTransform="matrix(1.576923,0,0,0.05769231,-3.2750951,24.527869)" />
    <radialGradient
       cx="32"
       cy="14.5"
       r="26"
       fx="32"
       fy="14.5"
       id="radialGradient3923"
       xlink:href="#linearGradient3781"
       gradientUnits="userSpaceOnUse"
       gradientTransform="matrix(1.576923,0,0,0.05769231,-3.2750951,29.527869)" />
    <radialGradient
       cx="32"
       cy="14.5"
       r="26"
       fx="32"
       fy="14.5"
       id="radialGradient3927"
       xlink:href="#linearGradient3781"
       gradientUnits="userSpaceOnUse"
       gradientTransform="matrix(1.576923,0,0,0.05769231,-3.2750951,34.527869)" />
    <radialGradient
       cx="32"
       cy="14.5"
       r="26"
       fx="32"
       fy="14.5"
       id="radialGradient3931"
       xlink:href="#linearGradient3781"
       gradientUnits="userSpaceOnUse"
       gradientTransform="matrix(1.576923,0,0,0.05769231,-3.2750951,39.527869)" />
    <radialGradient
       cx="32"
       cy="14.5"
       r="26"
       fx="32"
       fy="14.5"
       id="radialGradient3935"
       xlink:href="#linearGradient3781"
       gradientUnits="userSpaceOnUse"
       gradientTransform="matrix(1.576923,0,0,0.05769231,-3.2750951,44.527869)" />
    <radialGradient
       cx="32"
       cy="14.5"
       r="26"
       fx="32"
       fy="14.5"
       id="radialGradient3939"
       xlink:href="#linearGradient3781"
       gradientUnits="userSpaceOnUse"
       gradientTransform="matrix(1.576923,0,0,0.05769231,-3.2750951,49.527869)" />
    <radialGradient
       cx="32"
       cy="14.5"
       r="26"
       fx="32"
       fy="14.5"
       id="radialGradient3943"
       xlink:href="#linearGradient3781"
       gradientUnits="userSpaceOnUse"
       gradientTransform="matrix(1.576923,0,0,0.05769231,-3.2750951,54.527869)" />
    <radialGradient
       cx="32"
       cy="14.5"
       r="26"
       fx="32"
       fy="14.5"
       id="radialGradient3947"
       xlink:href="#linearGradient3781"
       gradientUnits="userSpaceOnUse"
       gradientTransform="matrix(1.576923,0,0,0.05769231,-3.2750951,59.527869)" />
    <radialGradient
       cx="32"
       cy="14.5"
       r="26"
       fx="32"
       fy="14.5"
       id="radialGradient3951"
       xlink:href="#linearGradient3781"
       gradientUnits="userSpaceOnUse"
       gradientTransform="matrix(1.576923,0,0,0.05769231,-3.2750951,64.527869)" />
    <radialGradient
       cx="32"
       cy="14.5"
       r="26"
       fx="32"
       fy="14.5"
       id="radialGradient3955"
       xlink:href="#linearGradient3781"
       gradientUnits="userSpaceOnUse"
       gradientTransform="matrix(1.576923,0,0,0.05769231,-3.2750951,69.527869)" />
    <radialGradient
       cx="32"
       cy="14.5"
       r="26"
       fx="32"
       fy="14.5"
       id="radialGradient3959"
       xlink:href="#linearGradient3781"
       gradientUnits="userSpaceOnUse"
       gradientTransform="matrix(1.576923,0,0,0.05769231,-3.2750951,74.527869)" />
    <radialGradient
       cx="32"
       cy="14.5"
       r="26"
       fx="32"
       fy="14.5"
       id="radialGradient3963"
       xlink:href="#linearGradient3781"
       gradientUnits="userSpaceOnUse"
       gradientTransform="matrix(1.576923,0,0,0.05769231,-3.2750951,79.527869)" />
    <radialGradient
       cx="32"
       cy="14.5"
       r="26"
       fx="32"
       fy="14.5"
       id="radialGradient3967"
       xlink:href="#linearGradient3781"
       gradientUnits="userSpaceOnUse"
       gradientTransform="matrix(1.576923,0,0,0.05769231,-3.2750951,84.527869)" />
    <linearGradient
       id="linearGradient4390"
       x1="48"
       x2="48"
       y1="88"
       y2="-40"
       gradientTransform="matrix(1,0,0,-1,0,92)"
       gradientUnits="userSpaceOnUse"
       xlink:href="#linearGradient3781" />
    <linearGradient
       id="linearGradient4429"
       x1="48"
       x2="112.12"
       y1="82"
       y2="82.455002"
       gradientUnits="userSpaceOnUse"
       spreadMethod="reflect"
       xlink:href="#linearGradient3781" />
    <linearGradient
       id="linearGradient3228"
       x1="90"
       x2="48"
       y1="88"
       y2="88"
       gradientUnits="userSpaceOnUse"
       spreadMethod="reflect">
      <stop
         id="stop3894"
         stop-opacity=".58824"
         offset="0" />
      <stop
         id="stop3896"
         stop-opacity=".47059"
         offset=".1178" />
      <stop
         id="stop3898"
         stop-opacity=".39216"
         offset=".2381" />
      <stop
         id="stop3900"
         stop-opacity=".31373"
         offset="1" />
    </linearGradient>
  </defs>
  <metadata
     id="metadata2413">
    <rdf:RDF>
      <cc:Work
         rdf:about="">
        <dc:format>image/svg+xml</dc:format>
        <dc:type
           rdf:resource="http://purl.org/dc/dcmitype/StillImage" />
        <dc:title />
      </cc:Work>
    </rdf:RDF>
  </metadata>
  <g
     id="layer2"
     style="display:none">
    <rect
       width="86"
       height="85"
       rx="6"
       ry="6"
       x="5"
       y="7"
       id="rect3745"
       style="opacity:0.9;fill:url(#ButtonShadow);fill-opacity:1;fill-rule:nonzero;stroke:none;filter:url(#filter3174)" />
  </g>
  <g
     id="layer3">
    <path
       d="m 12,-95.03125 c -5.5110903,0 -10.03125,4.52016 -10.03125,10.03125 l 0,71 c 0,5.5110902 4.5201598,10.03125 10.03125,10.03125 l 72,0 c 5.51109,0 10.03125,-4.5201597 10.03125,-10.03125 l 0,-71 c 0,-5.51109 -4.52016,-10.03125 -10.03125,-10.03125 l -72,0 z"
       transform="scale(1,-1)"
       id="path3786"
       style="opacity:0.07999998;fill:url(#linearGradient3026);fill-opacity:1;fill-rule:nonzero;stroke:none;display:inline" />
    <path
       d="m 12,-94.03125 c -4.971633,0 -9.03125,4.059617 -9.03125,9.03125 l 0,71 c 0,4.9716329 4.0596171,9.03125 9.03125,9.03125 l 72,0 c 4.971633,0 9.03125,-4.059617 9.03125,-9.03125 l 0,-71 c 0,-4.971633 -4.059617,-9.03125 -9.03125,-9.03125 l -72,0 z"
       transform="scale(1,-1)"
       id="path3778"
       style="opacity:0.1;fill:url(#linearGradient3780);fill-opacity:1;fill-rule:nonzero;stroke:none;display:inline" />
    <path
       d="m 12,-93 c -4.4091333,0 -8,3.590867 -8,8 l 0,71 c 0,4.4091333 3.5908667,8 8,8 l 72,0 c 4.409133,0 8,-3.5908667 8,-8 l 0,-71 c 0,-4.409133 -3.590867,-8 -8,-8 l -72,0 z"
       transform="scale(1,-1)"
       id="path3770"
       style="opacity:0.2;fill:url(#linearGradient3772);fill-opacity:1;fill-rule:nonzero;stroke:none;display:inline" />
    <rect
       width="86"
       height="85"
       rx="7"
       ry="7"
       x="5"
       y="-92"
       transform="scale(1,-1)"
       id="rect3723"
       style="opacity:0.3;fill:url(#linearGradient3725);fill-opacity:1;fill-rule:nonzero;stroke:none;display:inline" />
    <rect
       width="84"
       height="84"
       rx="6"
       ry="6"
       x="6"
       y="-91"
       transform="scale(1,-1)"
       id="rect3716"
       style="opacity:0.45;fill:url(#linearGradient3721);fill-opacity:1;fill-rule:nonzero;stroke:none;display:inline" />
  </g>
  <rect
     style="fill:url(#linearGradient3617);fill-opacity:1;fill-rule:nonzero;stroke:none"
     id="rect2419"
     y="6"
     x="6"
     ry="6"
     rx="6"
     height="84"
     width="84" />
  <path
     d="m 88.186439,15.364407 a 40.999998,1.5 0 1 1 -81.9999961,0 40.999998,1.5 0 1 1 81.9999961,0 z"
     id="path3909"
     style="color:#000000;display:inline;overflow:visible;visibility:visible;opacity:0.03231997;fill:url(#radialGradient3911);fill-opacity:1;fill-rule:nonzero;stroke:none;stroke-width:2.5115118;marker:none;enable-background:accumulate"
     inkscape:connector-curvature="0" />
  <path
     d="m 88.186439,20.364407 a 40.999998,1.5 0 1 1 -81.9999961,0 40.999998,1.5 0 1 1 81.9999961,0 z"
     id="path3913"
     style="color:#000000;display:inline;overflow:visible;visibility:visible;opacity:0.04847999;fill:url(#radialGradient3915);fill-opacity:1;fill-rule:nonzero;stroke:none;stroke-width:2.5115118;marker:none;enable-background:accumulate"
     inkscape:connector-curvature="0" />
  <path
     d="m 88.186439,25.364407 a 40.999998,1.5 0 1 1 -81.9999961,0 40.999998,1.5 0 1 1 81.9999961,0 z"
     id="path3917"
     style="color:#000000;display:inline;overflow:visible;visibility:visible;opacity:0.06464;fill:url(#radialGradient3919);fill-opacity:1;fill-rule:nonzero;stroke:none;stroke-width:2.5115118;marker:none;enable-background:accumulate"
     inkscape:connector-curvature="0" />
  <path
     d="m 88.186439,30.364407 a 40.999998,1.5 0 1 1 -81.9999961,0 40.999998,1.5 0 1 1 81.9999961,0 z"
     id="path3921"
     style="color:#000000;display:inline;overflow:visible;visibility:visible;opacity:0.08080002;fill:url(#radialGradient3923);fill-opacity:1;fill-rule:nonzero;stroke:none;stroke-width:2.5115118;marker:none;enable-background:accumulate"
     inkscape:connector-curvature="0" />
  <path
     d="m 88.186439,35.364407 a 40.999998,1.5 0 1 1 -81.9999961,0 40.999998,1.5 0 1 1 81.9999961,0 z"
     id="path3925"
     style="color:#000000;display:inline;overflow:visible;visibility:visible;opacity:0.08080002;fill:url(#radialGradient3927);fill-opacity:1;fill-rule:nonzero;stroke:none;stroke-width:2.5115118;marker:none;enable-background:accumulate"
     inkscape:connector-curvature="0" />
  <path
     d="m 88.186439,40.364407 a 40.999998,1.5 0 1 1 -81.9999961,0 40.999998,1.5 0 1 1 81.9999961,0 z"
     id="path3929"
     style="color:#000000;display:inline;overflow:visible;visibility:visible;opacity:0.08080002;fill:url(#radialGradient3931);fill-opacity:1;fill-rule:nonzero;stroke:none;stroke-width:2.5115118;marker:none;enable-background:accumulate"
     inkscape:connector-curvature="0" />
  <path
     d="m 88.186439,45.364407 a 40.999998,1.5 0 1 1 -81.9999961,0 40.999998,1.5 0 1 1 81.9999961,0 z"
     id="path3933"
     style="color:#000000;display:inline;overflow:visible;visibility:visible;opacity:0.08080002;fill:url(#radialGradient3935);fill-opacity:1;fill-rule:nonzero;stroke:none;stroke-width:2.5115118;marker:none;enable-background:accumulate"
     inkscape:connector-curvature="0" />
  <path
     d="m 88.186439,50.364407 a 40.999998,1.5 0 1 1 -81.9999961,0 40.999998,1.5 0 1 1 81.9999961,0 z"
     id="path3937"
     style="color:#000000;display:inline;overflow:visible;visibility:visible;opacity:0.08080002;fill:url(#radialGradient3939);fill-opacity:1;fill-rule:nonzero;stroke:none;stroke-width:2.5115118;marker:none;enable-background:accumulate"
     inkscape:connector-curvature="0" />
  <path
     d="m 88.186439,55.364407 a 40.999998,1.5 0 1 1 -81.9999961,0 40.999998,1.5 0 1 1 81.9999961,0 z"
     id="path3941"
     style="color:#000000;display:inline;overflow:visible;visibility:visible;opacity:0.08080002;fill:url(#radialGradient3943);fill-opacity:1;fill-rule:nonzero;stroke:none;stroke-width:2.5115118;marker:none;enable-background:accumulate"
     inkscape:connector-curvature="0" />
  <path
     d="m 88.186439,60.364407 a 40.999998,1.5 0 1 1 -81.9999961,0 40.999998,1.5 0 1 1 81.9999961,0 z"
     id="path3945"
     style="color:#000000;display:inline;overflow:visible;visibility:visible;opacity:0.08080002;fill:url(#radialGradient3947);fill-opacity:1;fill-rule:nonzero;stroke:none;stroke-width:2.5115118;marker:none;enable-background:accumulate"
     inkscape:connector-curvature="0" />
  <path
     d="m 88.186439,65.364407 a 40.999998,1.5 0 1 1 -81.9999961,0 40.999998,1.5 0 1 1 81.9999961,0 z"
     id="path3949"
     style="color:#000000;display:inline;overflow:visible;visibility:visible;opacity:0.08080002;fill:url(#radialGradient3951);fill-opacity:1;fill-rule:nonzero;stroke:none;stroke-width:2.5115118;marker:none;enable-background:accumulate"
     inkscape:connector-curvature="0" />
  <path
     d="m 88.186439,70.364407 a 40.999998,1.5 0 1 1 -81.9999961,0 40.999998,1.5 0 1 1 81.9999961,0 z"
     id="path3953"
     style="color:#000000;display:inline;overflow:visible;visibility:visible;opacity:0.06464;fill:url(#radialGradient3955);fill-opacity:1;fill-rule:nonzero;stroke:none;stroke-width:2.5115118;marker:none;enable-background:accumulate"
     inkscape:connector-curvature="0" />
  <path
     d="m 88.186439,75.364407 a 40.999998,1.5 0 1 1 -81.9999961,0 40.999998,1.5 0 1 1 81.9999961,0 z"
     id="path3957"
     style="color:#000000;display:inline;overflow:visible;visibility:visible;opacity:0.04847999;fill:url(#radialGradient3959);fill-opacity:1;fill-rule:nonzero;stroke:none;stroke-width:2.5115118;marker:none;enable-background:accumulate"
     inkscape:connector-curvature="0" />
  <path
     d="m 88.186439,80.364407 a 40.999998,1.5 0 1 1 -81.9999961,0 40.999998,1.5 0 1 1 81.9999961,0 z"
     id="path3961"
     style="color:#000000;display:inline;overflow:visible;visibility:visible;opacity:0.03231997;fill:url(#radialGradient3963);fill-opacity:1;fill-rule:nonzero;stroke:none;stroke-width:2.5115118;marker:none;enable-background:accumulate"
     inkscape:connector-curvature="0" />
  <path
     d="m 88.186439,85.364407 a 40.999998,1.5 0 1 1 -81.9999961,0 40.999998,1.5 0 1 1 81.9999961,0 z"
     id="path3965"
     style="color:#000000;display:inline;overflow:visible;visibility:visible;opacity:0.01616002;fill:url(#radialGradient3967);fill-opacity:1;fill-rule:nonzero;stroke:none;stroke-width:2.5115118;marker:none;enable-background:accumulate"
     inkscape:connector-curvature="0" />
  <g
     transform="translate(118)"
     id="layer5"
     style="display:inline">
    <rect
       transform="translate(-120)"
       width="66"
       height="66"
       rx="12"
       ry="12"
       x="15"
       y="15"
       clip-path="url(#clipPath3613)"
       id="rect3171"
       style="opacity:0.1;fill:url(#linearGradient3613);fill-opacity:1;fill-rule:nonzero;stroke:#ffffff;stroke-width:0.5;stroke-linecap:round;stroke-linejoin:miter;stroke-miterlimit:4;stroke-dasharray:none;stroke-dashoffset:0;stroke-opacity:1;filter:url(#filter3794)" />
  </g>
  <path
     d="m 5.843751,47.999997 79.999999,-24 V 6.34375 C 85.21799,6.12361 84.54664,6 83.84375,6 H 11.843752 c -3.324,0 -6.000001,2.676 -6.000001,6 z"
     id="rect3155"
     style="display:inline;opacity:0.15;fill:url(#linearGradient3930);fill-opacity:1;fill-rule:nonzero;stroke:none;enable-background:new" />
  <path
     style="fill:#ffffff;fill-opacity:1;stroke-width:0.36780667"
     d="m 27.744442,71.045065 c -2.24037,-0.6167 -3.78557,-1.77152 -4.62167,-3.45404 -0.64691,-1.3018 -0.69561,-2.75393 -0.79703,-23.76577 l -0.10801,-22.379262 10.0388,0.129354 c 10.01399,0.129035 10.04405,0.13181 12.16516,1.123332 1.16951,0.546687 3.07291,1.883283 4.22978,2.970213 3.65313,3.432267 2.66851,3.203239 13.77115,3.203239 h 9.84894 l -0.009,17.562764 c -0.005,10.63373 -0.15768,18.21577 -0.38587,19.2179 -0.51965,2.28216 -1.84902,4.16708 -3.52623,4.99986 -1.32674,0.65876 -2.54599,0.70577 -20.17024,0.77768 -14.11689,0.0576 -19.17323,-0.0377 -20.43578,-0.38527 z m 38.5543,-20.9321 0.096,-15.35593 -6.90041,0.002 c -7.75795,0.003 -7.38033,-0.10669 -10.60457,3.0725 -0.99712,0.98318 -2.88878,2.30728 -4.20369,2.94245 -2.38738,1.15324 -2.40067,1.15503 -9.47102,1.28066 l -7.08028,0.12579 v 11.49076 c 0,6.31992 0.11184,11.60259 0.24852,11.73927 0.13667,0.13668 8.70197,0.20565 19.03399,0.15326 l 18.78548,-0.0953 z m -23.5254,-14.40691 c 0.54627,-0.28722 1.72843,-1.27758 2.62704,-2.2008 l 1.63382,-1.678586 -1.44992,-1.485584 c -2.85315,-2.923319 -2.91392,-2.940181 -10.59655,-2.940181 h -6.85297 v 4.41368 4.413681 h 6.82269 c 5.18176,0 7.06157,-0.1256 7.81589,-0.52221 z"
     id="path4677"
     inkscape:connector-curvature="0" />
  <g
     id="g873">
    <path
       id="rect4377"
       d="M 12,86 C 8.676,86 6,83.324 6,80 V 12 C 6,8.676 8.676,6 12,6 h 72 c 3.324,0 6,2.676 6,6 v 68 c 0,3.324 -2.676,6 -6,6 z m 0,-0.96875 h 72 c 2.8049,0 5.0312,-2.2264 5.0312,-5.0312 v -68 c 0,-2.8049 -2.226,-5.0312 -5.031,-5.0312 h -72 c -2.8049,0 -5.0312,2.2263 -5.0312,5.0312 v 68 c 0,2.8049 2.2264,5.0312 5.0312,5.0312 z"
       style="opacity:0.3;fill:url(#linearGradient4390)"
       inkscape:connector-curvature="0" />
    <path
       id="rect4414"
       d="m 6,78 v 2 c 0,3.324 2.676,6 6,6 h 72 c 3.324,0 6,-2.676 6,-6 v -2 c 0,3.324 -2.676,6 -6,6 H 12 C 8.676,84 6,81.324 6,78 Z"
       style="opacity:0.1;fill:url(#linearGradient4429)"
       inkscape:connector-curvature="0" />
    <g
       id="layer4">
      <path
         style="fill:url(#linearGradient3228)"
         inkscape:connector-curvature="0"
         d="m 6,80 v 4 c 0,3.324 2.676,6 6,6 h 72 c 3.324,0 6,-2.676 6,-6 v -4 c 0,3.324 -2.676,6 -6,6 H 12 C 8.676,86 6,83.324 6,80 Z"
         id="path3888" />
      <path
         style="color:#000000;opacity:0.1"
         inkscape:connector-curvature="0"
         d="m 6,82 v 2 c 0,3.324 2.676,6 6,6 h 72 c 3.324,0 6,-2.676 6,-6 v -2 c 0,3.324 -2.676,6 -6,6 H 12 C 8.676,88 6,85.324 6,82 Z"
         id="rect4345" />
      <path
         style="color:#000000;opacity:0.15"
         inkscape:connector-curvature="0"
         d="m 6,83 v 1 c 0,3.324 2.676,6 6,6 h 72 c 3.324,0 6,-2.676 6,-6 v -1 c 0,3.324 -2.676,6 -6,6 H 12 C 8.676,89 6,86.324 6,83 Z"
         id="rect4336" />
    </g>
  </g>
</svg>
