<?xml version="1.0" encoding="UTF-8" standalone="no"?>
<!-- Created with Inkscape (http://www.inkscape.org/) -->

<svg
   xmlns:dc="http://purl.org/dc/elements/1.1/"
   xmlns:cc="http://creativecommons.org/ns#"
   xmlns:rdf="http://www.w3.org/1999/02/22-rdf-syntax-ns#"
   xmlns:svg="http://www.w3.org/2000/svg"
   xmlns="http://www.w3.org/2000/svg"
   xmlns:xlink="http://www.w3.org/1999/xlink"
   xmlns:sodipodi="http://sodipodi.sourceforge.net/DTD/sodipodi-0.dtd"
   xmlns:inkscape="http://www.inkscape.org/namespaces/inkscape"
   width="96"
   height="96"
   id="svg2408"
   sodipodi:version="0.32"
   inkscape:version="0.48.2 r9819"
   version="1.0"
   sodipodi:docname="mendeley.svg"
   inkscape:output_extension="org.inkscape.output.svg.inkscape">
  <defs
     id="defs2410">
    <linearGradient
       id="linearGradient4384">
      <stop
         style="stop-color:#ffffff;stop-opacity:1;"
         offset="0"
         id="stop4386" />
      <stop
         style="stop-color:#ffffff;stop-opacity:0;"
         offset="1"
         id="stop4388" />
    </linearGradient>
    <linearGradient
       id="linearGradient4367">
      <stop
         style="stop-color:#ffffff;stop-opacity:0.71755725;"
         offset="0"
         id="stop4369" />
      <stop
         style="stop-color:#ffffff;stop-opacity:1;"
         offset="1"
         id="stop4371" />
    </linearGradient>
    <linearGradient
       id="ButtonShadow"
       gradientTransform="scale(1.0058652,0.994169)"
       x1="45.447727"
       y1="92.539597"
       x2="45.447727"
       y2="7.0165396"
       gradientUnits="userSpaceOnUse">
      <stop
         style="stop-color:#000000;stop-opacity:1;"
         offset="0"
         id="stop3750" />
      <stop
         style="stop-color:#000000;stop-opacity:0.58823532;"
         offset="1"
         id="stop3752" />
    </linearGradient>
    <linearGradient
       inkscape:collect="always"
       id="linearGradient3737">
      <stop
         style="stop-color:#ffffff;stop-opacity:1;"
         offset="0"
         id="stop3739" />
      <stop
         style="stop-color:#ffffff;stop-opacity:0;"
         offset="1"
         id="stop3741" />
    </linearGradient>
    <linearGradient
       id="linearGradient3700">
      <stop
         style="stop-color:#2276c5;stop-opacity:1;"
         offset="0"
         id="stop3702" />
      <stop
         style="stop-color:#68baf4;stop-opacity:1;"
         offset="1"
         id="stop3704" />
    </linearGradient>
    <filter
       inkscape:collect="always"
       id="filter3174">
      <feGaussianBlur
         inkscape:collect="always"
         stdDeviation="1.71"
         id="feGaussianBlur3176" />
    </filter>
    <filter
       inkscape:collect="always"
       id="filter3794"
       x="-0.192"
       width="1.384"
       y="-0.192"
       height="1.384">
      <feGaussianBlur
         inkscape:collect="always"
         stdDeviation="5.28"
         id="feGaussianBlur3796" />
    </filter>
    <linearGradient
       inkscape:collect="always"
       xlink:href="#linearGradient3737"
       id="linearGradient3613"
       x1="48"
       y1="20.220806"
       x2="48"
       y2="138.66119"
       gradientUnits="userSpaceOnUse" />
    <linearGradient
       id="ButtonShadow-0"
       gradientTransform="matrix(1.0058652,0,0,0.994169,100,0)"
       x1="45.447727"
       y1="92.539597"
       x2="45.447727"
       y2="7.0165396"
       gradientUnits="userSpaceOnUse">
      <stop
         style="stop-color:#000000;stop-opacity:1;"
         offset="0"
         id="stop3750-8" />
      <stop
         style="stop-color:#000000;stop-opacity:0.58823532;"
         offset="1"
         id="stop3752-5" />
    </linearGradient>
    <linearGradient
       inkscape:collect="always"
       xlink:href="#ButtonShadow-0"
       id="linearGradient3780"
       gradientUnits="userSpaceOnUse"
       gradientTransform="matrix(1.0238095,0,0,1.0119048,-1.1428571,-98.071429)"
       x1="32.251034"
       y1="6.1317081"
       x2="32.251034"
       y2="90.238609" />
    <linearGradient
       inkscape:collect="always"
       xlink:href="#ButtonShadow-0"
       id="linearGradient3772"
       gradientUnits="userSpaceOnUse"
       gradientTransform="matrix(1.0238095,0,0,1.0119048,-1.1428571,-98.071429)"
       x1="32.251034"
       y1="6.1317081"
       x2="32.251034"
       y2="90.238609" />
    <linearGradient
       inkscape:collect="always"
       xlink:href="#ButtonShadow-0"
       id="linearGradient3725"
       gradientUnits="userSpaceOnUse"
       gradientTransform="matrix(1.0238095,0,0,1.0119048,-1.1428571,-98.071429)"
       x1="32.251034"
       y1="6.1317081"
       x2="32.251034"
       y2="90.238609" />
    <linearGradient
       inkscape:collect="always"
       xlink:href="#ButtonShadow-0"
       id="linearGradient3721"
       gradientUnits="userSpaceOnUse"
       gradientTransform="translate(0,-97)"
       x1="32.251034"
       y1="6.1317081"
       x2="32.251034"
       y2="90.238609" />
    <linearGradient
       y2="90.238609"
       x2="32.251034"
       y1="6.1317081"
       x1="32.251034"
       gradientTransform="matrix(1.0238095,0,0,1.0119048,-1.1428571,-98.071429)"
       gradientUnits="userSpaceOnUse"
       id="linearGradient3026"
       xlink:href="#ButtonShadow-0"
       inkscape:collect="always" />
    <linearGradient
       gradientTransform="translate(-2,-956.3622)"
       y2="1033.3622"
       x2="50"
       y1="1033.3622"
       x1="8"
       spreadMethod="reflect"
       gradientUnits="userSpaceOnUse"
       id="linearGradient3542"
       xlink:href="#linearGradient4482"
       inkscape:collect="always" />
    <clipPath
       clipPathUnits="userSpaceOnUse"
       id="clipPath4355">
      <rect
         style="fill:#ffffff;fill-opacity:1;fill-rule:nonzero;stroke:none"
         id="rect4357"
         width="84"
         height="80"
         x="6"
         y="6"
         rx="6"
         ry="6" />
    </clipPath>
    <radialGradient
       inkscape:collect="always"
       xlink:href="#linearGradient4367"
       id="radialGradient4375"
       cx="48"
       cy="87.792389"
       fx="48"
       fy="87.792389"
       r="42"
       gradientTransform="matrix(1,-6.7114942e-8,8.4282233e-8,1.2557894,109.99999,-24.505592)"
       gradientUnits="userSpaceOnUse" />
    <linearGradient
       inkscape:collect="always"
       xlink:href="#linearGradient4384"
       id="linearGradient4390"
       x1="48"
       y1="88"
       x2="48"
       y2="-40"
       gradientUnits="userSpaceOnUse"
       gradientTransform="matrix(1,0,0,-1,0,92)" />
    <linearGradient
       inkscape:collect="always"
       xlink:href="#linearGradient4384"
       id="linearGradient4429"
       x1="48"
       y1="82"
       x2="112.12357"
       y2="82.454597"
       gradientUnits="userSpaceOnUse"
       spreadMethod="reflect" />
    <linearGradient
       id="linearGradient4482">
      <stop
         id="stop4484"
         offset="0"
         style="stop-color:#c78c5d;stop-opacity:1;" />
      <stop
         style="stop-color:#a3744e;stop-opacity:1;"
         offset="0.11780351"
         id="stop4486" />
      <stop
         id="stop4488"
         offset="0.23809524"
         style="stop-color:#946c4b;stop-opacity:1;" />
      <stop
         id="stop4490"
         offset="1"
         style="stop-color:#866448;stop-opacity:1;" />
    </linearGradient>
    <linearGradient
       id="linearGradient3843">
      <stop
         style="stop-color:#523823;stop-opacity:1;"
         offset="0"
         id="stop3845" />
      <stop
         id="stop3847"
         offset="0.11780351"
         style="stop-color:#79563a;stop-opacity:1;" />
      <stop
         style="stop-color:#875c38;stop-opacity:1;"
         offset="0.23809524"
         id="stop3849" />
      <stop
         style="stop-color:#a66e40;stop-opacity:1;"
         offset="1"
         id="stop3851" />
    </linearGradient>
    <linearGradient
       y2="1033.3622"
       x2="50"
       y1="1033.3622"
       x1="8"
       spreadMethod="reflect"
       gradientTransform="translate(-2,-956.3622)"
       gradientUnits="userSpaceOnUse"
       id="linearGradient3870"
       xlink:href="#linearGradient3843"
       inkscape:collect="always" />
    <linearGradient
       inkscape:collect="always"
       xlink:href="#linearGradient3866"
       id="linearGradient3872"
       x1="72"
       y1="8"
       x2="48"
       y2="64"
       gradientUnits="userSpaceOnUse" />
    <linearGradient
       inkscape:collect="always"
       id="linearGradient3866">
      <stop
         style="stop-color:#ffffff;stop-opacity:1;"
         offset="0"
         id="stop3868" />
      <stop
         style="stop-color:#ffffff;stop-opacity:0;"
         offset="1"
         id="stop3870" />
    </linearGradient>
    <radialGradient
       inkscape:collect="always"
       xlink:href="#linearGradient3700-3"
       id="radialGradient3833"
       cx="88"
       cy="88"
       fx="88"
       fy="88"
       r="42"
       gradientUnits="userSpaceOnUse"
       gradientTransform="matrix(2.2695651,-0.00686696,0.00580377,1.9181687,-112.23246,-80.194551)" />
    <linearGradient
       id="linearGradient3700-3">
      <stop
         style="stop-color:#730a13;stop-opacity:1"
         offset="0"
         id="stop3702-7" />
      <stop
         style="stop-color:#be212e;stop-opacity:1"
         offset="1"
         id="stop3704-4" />
    </linearGradient>
    <radialGradient
       r="42"
       fy="88"
       fx="88"
       cy="88"
       cx="88"
       gradientTransform="matrix(2.2695651,-0.00686696,0.00580377,1.9181687,-112.23246,-80.194551)"
       gradientUnits="userSpaceOnUse"
       id="radialGradient3059"
       xlink:href="#linearGradient3700-3"
       inkscape:collect="always" />
    <radialGradient
       inkscape:collect="always"
       xlink:href="#linearGradient3700-3"
       id="radialGradient3844"
       cx="88"
       cy="81.699997"
       fx="88"
       fy="81.699997"
       r="42"
       gradientTransform="matrix(2.4761905,-1.4525717e-7,1.1208422e-7,1.7358053,-129.90477,-61.815274)"
       gradientUnits="userSpaceOnUse" />
    <clipPath
       clipPathUnits="userSpaceOnUse"
       id="clipPath3888">
      <path
         style="color:#000000;fill:#ff00ff;fill-opacity:1;fill-rule:nonzero;stroke:none;stroke-width:1;marker:none;visibility:visible;display:inline;overflow:visible;enable-background:accumulate"
         d="m 34.405054,29.694011 c -1.445208,0.02254 -2.919206,0.387911 -4.351152,1.095614 -4.269072,2.10989 -6.01981,6.646131 -4.695487,12.051752 0.633127,2.584343 0.852059,6.07656 0.469548,7.481477 -0.542122,1.991087 -2.205522,3.033727 -4.883307,3.036415 -2.64526,0.0027 -5.246275,2.034052 -5.759799,4.507669 -0.525313,2.530457 0.07523,4.823108 1.721679,6.479773 1.935984,1.947973 4.622113,2.497148 6.949322,1.408646 3.369412,-1.575968 4.47335,-4.868513 3.036416,-8.984033 -0.692688,-1.983911 -0.724332,-2.250242 -0.375639,-3.505964 1.476071,-5.315659 13.601639,-5.704733 15.58902,-0.500852 0.469799,1.23015 0.392247,2.071774 -0.469549,4.225939 -0.527538,1.318622 -0.591657,1.777958 -0.500852,3.192931 0.165882,2.584715 1.40482,4.395911 3.8503,5.509373 1.488081,0.677544 4.581704,0.674543 6.041528,0 3.587923,-1.657947 4.934784,-5.252995 3.349448,-8.890124 -1.361707,-3.124041 -0.673576,-5.199696 2.191227,-6.636289 3.603721,-1.807133 8.809857,-1.394756 11.425687,0.907794 1.871634,1.64748 2.1514,3.073633 1.158221,5.916315 -1.318183,3.772926 -0.261956,7.036495 2.785989,8.671001 1.315819,0.70563 4.226039,0.70597 5.540676,0 1.190565,-0.639324 2.534692,-2.044816 2.973809,-3.099022 1.280899,-3.075078 0.233517,-6.944545 -2.285138,-8.420575 -0.87,-0.509852 -1.526557,-0.665364 -3.286841,-0.813885 -1.431395,-0.120772 -2.433179,-0.346881 -2.911203,-0.626065 -0.955475,-0.558027 -1.717812,-1.940421 -1.909498,-3.474661 -0.174487,-1.396503 0.214725,-4.87797 0.751278,-6.730199 0.554674,-1.914755 0.333157,-5.505878 -0.438245,-7.199747 -2.363621,-5.190107 -9.04051,-7.222371 -13.773432,-4.163333 -0.742332,0.479792 -1.694552,1.331941 -2.128621,1.878195 -1.521738,1.915054 -3.972708,4.36896 -4.726791,4.726791 -1.897458,0.900406 -3.845211,0.162547 -5.978921,-2.253834 -3.225307,-3.652591 -3.69738,-4.113581 -5.133733,-4.820702 -1.349446,-0.664331 -2.780731,-0.992937 -4.22594,-0.9704 z m 13.648219,10.643105 c 4.368792,-0.0072 7.338474,3.986758 6.104134,8.232756 -0.538316,1.851711 -2.30439,3.645287 -4.069423,4.163332 -1.510099,0.443218 -2.756009,0.465145 -4.163333,0.0313 -2.446752,-0.75425 -4.274141,-3.361467 -4.257242,-6.104135 0.01132,-1.835692 0.421587,-2.880766 1.690376,-4.257242 1.325034,-1.437485 2.759254,-2.062831 4.695488,-2.066015 z"
         id="path3890"
         inkscape:connector-curvature="0" />
    </clipPath>
    <filter
       color-interpolation-filters="sRGB"
       inkscape:collect="always"
       id="filter3892">
      <feGaussianBlur
         inkscape:collect="always"
         stdDeviation="0.76960612"
         id="feGaussianBlur3894" />
    </filter>
  </defs>
  <sodipodi:namedview
     id="base"
     pagecolor="#818181"
     bordercolor="#ffb1b1"
     borderopacity="1"
     inkscape:pageopacity="1"
     inkscape:pageshadow="2"
     inkscape:zoom="4.6803524"
     inkscape:cx="33.614903"
     inkscape:cy="44.423996"
     inkscape:document-units="px"
     inkscape:current-layer="layer6"
     showgrid="true"
     showborder="true"
     inkscape:showpageshadow="false"
     inkscape:window-width="1920"
     inkscape:window-height="1030"
     inkscape:window-x="0"
     inkscape:window-y="22"
     inkscape:window-maximized="1"
     borderlayer="true">
    <inkscape:grid
       type="xygrid"
       id="grid3732"
       visible="true"
       enabled="true"
       empspacing="8"
       snapvisiblegridlinesonly="true" />
  </sodipodi:namedview>
  <metadata
     id="metadata2413">
    <rdf:RDF>
      <cc:Work
         rdf:about="">
        <dc:format>image/svg+xml</dc:format>
        <dc:type
           rdf:resource="http://purl.org/dc/dcmitype/StillImage" />
        <dc:title />
      </cc:Work>
    </rdf:RDF>
  </metadata>
  <g
     inkscape:groupmode="layer"
     id="layer2"
     inkscape:label="Blur Shadow"
     style="display:none"
     sodipodi:insensitive="true">
    <rect
       style="opacity:0.9;fill:url(#ButtonShadow);fill-opacity:1;fill-rule:nonzero;stroke:none;filter:url(#filter3174)"
       id="rect3745"
       width="86"
       height="85"
       x="5"
       y="7"
       rx="6"
       ry="6" />
  </g>
  <g
     inkscape:groupmode="layer"
     id="layer3"
     inkscape:label="Shadow"
     sodipodi:insensitive="true"
     style="display:inline">
    <path
       sodipodi:type="inkscape:offset"
       inkscape:radius="0.99097413"
       inkscape:original="M 12 -94.03125 C 7.028367 -94.03125 2.96875 -89.971633 2.96875 -85 L 2.96875 -14 C 2.96875 -9.0283671 7.0283671 -4.96875 12 -4.96875 L 84 -4.96875 C 88.971633 -4.96875 93.03125 -9.028367 93.03125 -14 L 93.03125 -85 C 93.03125 -89.971633 88.971633 -94.03125 84 -94.03125 L 12 -94.03125 z "
       style="opacity:0.07999998;fill:url(#linearGradient3026);fill-opacity:1;fill-rule:nonzero;stroke:none;display:inline"
       id="path3786"
       d="m 12,-95.03125 c -5.5110903,0 -10.03125,4.52016 -10.03125,10.03125 l 0,71 c 0,5.5110902 4.5201598,10.03125 10.03125,10.03125 l 72,0 c 5.51109,0 10.03125,-4.5201597 10.03125,-10.03125 l 0,-71 c 0,-5.51109 -4.52016,-10.03125 -10.03125,-10.03125 l -72,0 z"
       transform="scale(1,-1)" />
    <path
       sodipodi:type="inkscape:offset"
       inkscape:radius="1.0360184"
       inkscape:original="M 12 -93 C 7.5908667 -93 4 -89.409133 4 -85 L 4 -14 C 4 -9.5908667 7.5908667 -6 12 -6 L 84 -6 C 88.409133 -6 92 -9.5908667 92 -14 L 92 -85 C 92 -89.409133 88.409133 -93 84 -93 L 12 -93 z "
       style="opacity:0.1;fill:url(#linearGradient3780);fill-opacity:1;fill-rule:nonzero;stroke:none;display:inline"
       id="path3778"
       d="m 12,-94.03125 c -4.971633,0 -9.03125,4.059617 -9.03125,9.03125 l 0,71 c 0,4.9716329 4.0596171,9.03125 9.03125,9.03125 l 72,0 c 4.971633,0 9.03125,-4.059617 9.03125,-9.03125 l 0,-71 c 0,-4.971633 -4.059617,-9.03125 -9.03125,-9.03125 l -72,0 z"
       transform="scale(1,-1)" />
    <path
       sodipodi:type="inkscape:offset"
       inkscape:radius="0.98962283"
       inkscape:original="M 12 -92 C 8.122 -92 5 -88.878 5 -85 L 5 -14 C 5 -10.122 8.122 -7 12 -7 L 84 -7 C 87.878 -7 91 -10.122 91 -14 L 91 -85 C 91 -88.878 87.878 -92 84 -92 L 12 -92 z "
       style="opacity:0.2;fill:url(#linearGradient3772);fill-opacity:1;fill-rule:nonzero;stroke:none;display:inline"
       id="path3770"
       d="m 12,-93 c -4.4091333,0 -8,3.590867 -8,8 l 0,71 c 0,4.4091333 3.5908667,8 8,8 l 72,0 c 4.409133,0 8,-3.5908667 8,-8 l 0,-71 c 0,-4.409133 -3.590867,-8 -8,-8 l -72,0 z"
       transform="scale(1,-1)" />
    <rect
       style="opacity:0.3;fill:url(#linearGradient3725);fill-opacity:1;fill-rule:nonzero;stroke:none;display:inline"
       id="rect3723"
       width="86"
       height="85"
       x="5"
       y="-92"
       rx="7"
       ry="7"
       transform="scale(1,-1)" />
    <rect
       transform="scale(1,-1)"
       ry="6"
       rx="6"
       y="-91"
       x="6"
       height="84"
       width="84"
       id="rect3716"
       style="opacity:0.45;fill:url(#linearGradient3721);fill-opacity:1;fill-rule:nonzero;stroke:none;display:inline" />
  </g>
  <g
     inkscape:groupmode="layer"
     id="layer4"
     inkscape:label="Bottom Edge"
     sodipodi:insensitive="true">
    <rect
       ry="6"
       rx="6"
       y="64"
       x="6"
       height="26.000017"
       width="84"
       id="rect2841"
       style="color:#000000;fill:url(#linearGradient3870);fill-opacity:1;fill-rule:nonzero;stroke:none;stroke-width:1.5;marker:none;visibility:visible;display:inline;overflow:visible;enable-background:accumulate" />
    <path
       style="opacity:0.1;color:#000000;fill:#000000;fill-opacity:1;fill-rule:nonzero;stroke:none;stroke-width:1.5;marker:none;visibility:visible;display:inline;overflow:visible;enable-background:accumulate"
       d="m 6,82 0,2 c 0,3.324 2.676,6 6,6 l 72,0 c 3.324,0 6,-2.676 6,-6 l 0,-2 c 0,3.324 -2.676,6 -6,6 L 12,88 C 8.676,88 6,85.324 6,82 z"
       id="rect4345"
       inkscape:connector-curvature="0" />
    <path
       style="opacity:0.1;color:#000000;fill:#000000;fill-opacity:1;fill-rule:nonzero;stroke:none;stroke-width:1.5;marker:none;visibility:visible;display:inline;overflow:visible;enable-background:accumulate"
       d="m 6,83 0,1 c 0,3.324 2.676,6 6,6 l 72,0 c 3.324,0 6,-2.676 6,-6 l 0,-1 c 0,3.324 -2.676,6 -6,6 L 12,89 C 8.676,89 6,86.324 6,83 z"
       id="rect4336"
       inkscape:connector-curvature="0" />
    <path
       id="path4412"
       d="m 6,80 0,1 c 0,3.324 2.676,6 6,6 l 72,0 c 3.324,0 6,-2.676 6,-6 l 0,-1 c 0,3.324 -2.676,6 -6,6 L 12,86 C 8.676,86 6,83.324 6,80 z"
       style="opacity:0.2;fill:#000000;fill-opacity:1;fill-rule:nonzero;stroke:none"
       inkscape:connector-curvature="0" />
  </g>
  <g
     inkscape:label="Button"
     inkscape:groupmode="layer"
     id="layer1">
    <rect
       style="fill:url(#radialGradient3844);fill-opacity:1;fill-rule:nonzero;stroke:none"
       id="rect2419"
       width="84"
       height="80"
       x="6"
       y="6"
       rx="6"
       ry="6" />
    <path
       style="opacity:0.2;fill:url(#radialGradient4375);fill-opacity:1;fill-rule:nonzero;stroke:none"
       d="M 120.78125,6.125 C 118.04223,6.6826484 116,9.0915 116,12 l 0,68 c 0,3.324 2.676,6 6,6 l 72,0 c 3.324,0 6,-2.676 6,-6 l 0,-68 c 0,-2.9085 -2.04223,-5.3173516 -4.78125,-5.875 2.20512,0.5362071 3.8125,2.4908437 3.8125,4.875 l 0,68 c 0,2.80489 -2.22636,5.03125 -5.03125,5.03125 l -72,0 c -2.80489,0 -5.03125,-2.22636 -5.03125,-5.03125 l 0,-68 c 0,-2.3841563 1.60738,-4.3387929 3.8125,-4.875 z"
       id="rect4359"
       inkscape:connector-curvature="0" />
    <path
       style="opacity:0.25;fill:url(#linearGradient4390);fill-opacity:1;fill-rule:nonzero;stroke:none"
       d="M 12,86 C 8.676,86 6,83.324 6,80 L 6,12 C 6,8.676 8.676,6 12,6 l 72,0 c 3.324,0 6,2.676 6,6 l 0,68 c 0,3.324 -2.676,6 -6,6 z m 0,-0.96875 72,0 c 2.80489,0 5.03125,-2.22636 5.03125,-5.03125 l 0,-68 C 89.03125,9.19511 86.80489,6.96875 84,6.96875 l -72,0 C 9.1951102,6.96875 6.96875,9.19511 6.96875,12 l 0,68 c 0,2.80489 2.2263602,5.03125 5.03125,5.03125 z"
       id="rect4377"
       inkscape:connector-curvature="0"
       sodipodi:nodetypes="ssssssssssssssssss" />
    <path
       style="opacity:0.1;fill:url(#linearGradient4429);fill-opacity:1;fill-rule:nonzero;stroke:none"
       d="m 6,78 0,2 c 0,3.324 2.676,6 6,6 l 72,0 c 3.324,0 6,-2.676 6,-6 l 0,-2 c 0,3.324 -2.676,6 -6,6 L 12,84 C 8.676,84 6,81.324 6,78 z"
       id="rect4414"
       inkscape:connector-curvature="0" />
    <path
       inkscape:connector-curvature="0"
       style="opacity:0.2;fill:url(#linearGradient3872);fill-opacity:1;fill-rule:nonzero;stroke:none"
       d="M 12,6 C 8.676,6 6,8.676 6,12 L 6,42.25 C 18.597178,45.912601 32.858827,48 48,48 63.141173,48 77.402822,45.912601 90,42.25 L 90,12 C 90,8.676 87.324,6 84,6 L 12,6 z"
       id="rect3859" />
  </g>
  <g
     inkscape:groupmode="layer"
     id="layer5"
     inkscape:label="Highlight"
     sodipodi:insensitive="true"
     style="display:none">
    <rect
       style="opacity:0.1;fill:url(#linearGradient3613);fill-opacity:1;fill-rule:nonzero;stroke:#ffffff;stroke-width:0.5;stroke-linecap:round;stroke-linejoin:miter;stroke-miterlimit:4;stroke-opacity:1;stroke-dasharray:none;stroke-dashoffset:0;filter:url(#filter3794)"
       id="rect3171"
       width="66"
       height="62"
       x="15"
       y="15"
       rx="12"
       ry="12"
       clip-path="url(#clipPath4355)" />
  </g>
  <g
     inkscape:groupmode="layer"
     id="layer6"
     inkscape:label="Symbol">
    <path
       style="color:#000000;fill:#ffffff;fill-opacity:1;fill-rule:nonzero;stroke:none;stroke-width:12;marker:none;visibility:visible;display:inline;overflow:visible;enable-background:accumulate"
       d="m 34.405054,27.694011 c -1.445208,0.02254 -2.919206,0.387911 -4.351152,1.095614 -4.269072,2.10989 -6.019809,6.646131 -4.695487,12.051752 0.633127,2.584343 0.852059,6.07656 0.469548,7.481477 -0.542122,1.991087 -2.205521,3.033727 -4.883306,3.036415 -2.64526,0.0027 -5.246275,2.034052 -5.759799,4.507669 -0.525313,2.530457 0.07523,4.823108 1.721679,6.479773 1.935984,1.947973 4.622113,2.497148 6.949322,1.408646 3.369411,-1.575968 4.473349,-4.868513 3.036415,-8.984033 -0.692688,-1.983911 -0.724332,-2.250242 -0.375639,-3.505964 1.476071,-5.315659 13.601639,-5.704733 15.58902,-0.500852 0.469799,1.23015 0.392247,2.071774 -0.469549,4.225939 -0.527538,1.318622 -0.591657,1.777958 -0.500852,3.192931 0.165882,2.584715 1.40482,4.395911 3.8503,5.509373 1.488081,0.677544 4.581704,0.674543 6.041528,0 3.587923,-1.657947 4.934784,-5.252995 3.349448,-8.890124 -1.361707,-3.124041 -0.673576,-5.199696 2.191227,-6.636289 3.603721,-1.807133 8.809857,-1.394756 11.425687,0.907794 1.871634,1.64748 2.1514,3.073633 1.158221,5.916315 -1.318183,3.772926 -0.261956,7.036495 2.785989,8.671001 1.315819,0.70563 4.226039,0.70597 5.540676,0 1.190565,-0.639324 2.534692,-2.044816 2.973809,-3.099022 1.280899,-3.075078 0.233517,-6.944545 -2.285138,-8.420575 -0.87,-0.509852 -1.526557,-0.665364 -3.286841,-0.813885 -1.431395,-0.120772 -2.433179,-0.346881 -2.911203,-0.626065 -0.955475,-0.558027 -1.717812,-1.940421 -1.909498,-3.474661 -0.174487,-1.396503 0.214725,-4.87797 0.751278,-6.730199 0.554674,-1.914755 0.333157,-5.505878 -0.438245,-7.199747 -2.363621,-5.190107 -9.04051,-7.222371 -13.773432,-4.163333 -0.742332,0.479792 -1.694552,1.331941 -2.128621,1.878195 -1.521738,1.915054 -3.972708,4.36896 -4.726791,4.726791 -1.897458,0.900406 -3.845211,0.162547 -5.978921,-2.253834 -3.225307,-3.652591 -3.69738,-4.113581 -5.133733,-4.820702 -1.349446,-0.664331 -2.780731,-0.992937 -4.22594,-0.9704 z m 13.648219,10.643105 c 4.368792,-0.0072 7.338474,3.986758 6.104134,8.232756 -0.538316,1.851711 -2.30439,3.645287 -4.069423,4.163332 -1.510099,0.443218 -2.756009,0.465145 -4.163333,0.0313 -2.446752,-0.75425 -4.274141,-3.361467 -4.257242,-6.104135 0.01132,-1.835692 0.421587,-2.880766 1.690376,-4.257242 1.325034,-1.437485 2.759254,-2.062831 4.695488,-2.066015 z"
       id="rect3837"
       inkscape:connector-curvature="0" />
    <path
       inkscape:connector-curvature="0"
       style="color:#000000;fill:#a31924;fill-opacity:1;fill-rule:nonzero;stroke:none;stroke-width:12;marker:none;visibility:visible;display:inline;overflow:visible;enable-background:accumulate"
       d="m 34.40625,26.6875 c -1.445208,0.02254 -2.911804,0.386047 -4.34375,1.09375 -3.468621,1.714286 -5.279981,5.042296 -5.124999,9.125 0.151819,-3.626234 1.941509,-6.551634 5.124999,-8.125 1.431946,-0.707703 2.898542,-1.07121 4.34375,-1.09375 1.445209,-0.02254 2.869304,0.304419 4.21875,0.96875 1.436353,0.707121 1.899693,1.191159 5.125,4.84375 2.13371,2.416381 4.102542,3.150406 6,2.25 0.754083,-0.357831 3.197012,-2.834946 4.71875,-4.75 0.434069,-0.546254 1.382668,-1.395208 2.125,-1.875 4.732922,-3.059038 11.417629,-1.002607 13.78125,4.1875 0.433961,0.952905 0.70438,2.482464 0.75,4 0.06295,-1.796668 -0.219708,-3.835568 -0.75,-5 -2.363621,-5.190107 -9.048328,-7.246538 -13.78125,-4.1875 -0.742332,0.479792 -1.690931,1.328746 -2.125,1.875 -1.521738,1.915054 -3.964667,4.392169 -4.71875,4.75 -1.897458,0.900406 -3.86629,0.166381 -6,-2.25 -3.225307,-3.652591 -3.688647,-4.136629 -5.125,-4.84375 -1.349446,-0.664331 -2.773541,-0.991287 -4.21875,-0.96875 z m 7.28125,17.40625 c -0.01199,0.187852 -0.02998,0.356284 -0.03125,0.5625 -0.0169,2.742668 1.834498,5.3395 4.28125,6.09375 1.407324,0.433845 2.646151,0.411968 4.15625,-0.03125 1.765033,-0.518045 3.524184,-2.304539 4.0625,-4.15625 0.241333,-0.83016 0.340363,-1.65463 0.28125,-2.4375 -0.03493,0.476487 -0.139126,0.948607 -0.28125,1.4375 -0.538316,1.851711 -2.297467,3.638205 -4.0625,4.15625 -1.510099,0.443218 -2.748926,0.465095 -4.15625,0.03125 -2.317228,-0.714322 -4.084329,-3.076911 -4.25,-5.65625 z m 28.34375,1.75 c -0.02034,0.551712 -0.01237,1.025874 0.03125,1.375 0.191686,1.53424 0.950775,2.910723 1.90625,3.46875 0.478024,0.279184 1.474855,0.504228 2.90625,0.625 1.760284,0.148521 2.41125,0.333898 3.28125,0.84375 1.687102,0.988707 2.70326,3.04033 2.8125,5.21875 0.203503,-2.525576 -0.868179,-5.079302 -2.8125,-6.21875 -0.87,-0.509852 -1.520966,-0.695229 -3.28125,-0.84375 -1.431395,-0.120772 -2.428226,-0.345816 -2.90625,-0.625 -0.955475,-0.558027 -1.714564,-1.93451 -1.90625,-3.46875 -0.0138,-0.110428 -0.0243,-0.240335 -0.03125,-0.375 z M 26,46.09375 c -0.02728,0.493778 -0.101374,0.90242 -0.1875,1.21875 -0.542122,1.991087 -2.197214,3.028562 -4.874999,3.03125 -2.64526,0.0027 -5.236476,2.057633 -5.75,4.53125 -0.154827,0.74581 -0.194977,1.461949 -0.15625,2.15625 0.0276,-0.379633 0.07475,-0.763684 0.15625,-1.15625 0.513524,-2.473617 3.10474,-4.52855 5.75,-4.53125 2.677785,-0.0027 4.332877,-1.040163 4.874999,-3.03125 0.137943,-0.50665 0.197211,-1.309662 0.1875,-2.21875 z m 27.75,5.4375 c -0.123108,0.943405 0.07776,2.025776 0.625,3.28125 0.367834,0.843896 0.56424,1.684305 0.625,2.5 0.08711,-1.117884 -0.104566,-2.306004 -0.625,-3.5 -0.363097,-0.83302 -0.5558,-1.589553 -0.625,-2.28125 z M 42.34375,51.6875 C 42.25652,52.289219 42.022158,53.007255 41.625,54 c -0.500284,1.250498 -0.570152,1.747175 -0.5,3 0.03547,-0.632166 0.156061,-1.140298 0.5,-2 0.638252,-1.59539 0.84458,-2.465954 0.71875,-3.3125 z M 69.6875,51.84375 C 69.62145,52.470044 69.444414,53.175215 69.15625,54 68.719439,55.250249 68.554275,56.433608 68.625,57.53125 68.67998,56.724674 68.850402,55.875404 69.15625,55 c 0.453266,-1.29734 0.638562,-2.293297 0.53125,-3.15625 z m -43.3125,0.125 c -0.130418,0.741307 -0.0087,1.266053 0.53125,2.8125 0.33899,0.9709 0.533966,1.882437 0.59375,2.75 0.06563,-1.141198 -0.122478,-2.400232 -0.59375,-3.75 -0.299159,-0.856815 -0.456077,-1.378356 -0.53125,-1.8125 z"
       id="path3874" />
    <path
       inkscape:connector-curvature="0"
       style="opacity:0.15;color:#000000;fill:#ffffff;fill-opacity:1;fill-rule:nonzero;stroke:none;stroke-width:12;marker:none;visibility:visible;display:inline;overflow:visible;enable-background:accumulate"
       d="m 24.937501,37.96875 c -0.0446,1.218405 0.07517,2.523595 0.406249,3.875 0.404805,1.652362 0.639032,3.638227 0.65625,5.25 0.09388,-1.699242 -0.165677,-4.247545 -0.65625,-6.25 -0.242817,-0.99113 -0.366754,-1.95192 -0.406249,-2.875 z M 71.125,38.3125 c -0.02862,0.816899 -0.139131,1.589022 -0.3125,2.1875 -0.469484,1.6207 -0.816309,4.497754 -0.78125,6.125 0.07817,-1.636458 0.394948,-3.79145 0.78125,-5.125 0.242636,-0.837589 0.347974,-2.007487 0.3125,-3.1875 z m -23.0625,0.03125 c -1.936234,0.0032 -3.393716,0.625015 -4.71875,2.0625 -1.268789,1.376476 -1.67618,2.414308 -1.6875,4.25 -8.95e-4,0.145189 0.02199,0.293325 0.03125,0.4375 0.09476,-1.484368 0.529993,-2.465653 1.65625,-3.6875 1.325034,-1.437485 2.782516,-2.059316 4.71875,-2.0625 3.514624,-0.0058 6.131769,2.559993 6.375,5.78125 0.268473,-3.661766 -2.509239,-6.787621 -6.375,-6.78125 z M 34.125,47.0625 c -3.464323,0.111241 -6.855714,1.52967 -7.59375,4.1875 -0.198099,0.713398 -0.255137,1.147657 -0.15625,1.71875 0.03689,-0.209703 0.07936,-0.441856 0.15625,-0.71875 1.476071,-5.315659 13.575119,-5.703881 15.5625,-0.5 0.11745,0.307538 0.204671,0.620699 0.25,0.90625 0.09521,-0.689911 -2.53e-4,-1.252298 -0.25,-1.90625 -0.99369,-2.60194 -4.504427,-3.798741 -7.96875,-3.6875 z m 26.9375,0 c -1.580974,0.07081 -3.148605,0.416075 -4.5,1.09375 -2.100909,1.053528 -3.002818,2.472653 -2.8125,4.375 0.183226,-1.404103 1.09899,-2.515738 2.8125,-3.375 3.603721,-1.807133 8.82167,-1.3963 11.4375,0.90625 1.01746,0.895605 1.559674,1.753334 1.6875,2.78125 C 69.849105,51.311475 69.328592,50.231975 68,49.0625 c -1.634894,-1.439094 -4.302543,-2.118008 -6.9375,-2 z M 41.125,58 c -0.01893,0.337458 -0.0316,0.695047 0,1.1875 0.165882,2.584715 1.42952,4.386538 3.875,5.5 1.488081,0.677544 4.571426,0.674543 6.03125,0 2.755444,-1.273266 4.169862,-3.67511 3.96875,-6.375 -0.178237,2.287395 -1.558669,4.261323 -3.96875,5.375 -1.459824,0.674543 -4.543169,0.677544 -6.03125,0 -2.44548,-1.113462 -3.709118,-2.915285 -3.875,-5.5 -0.0047,-0.0731 0.0038,-0.11925 0,-0.1875 z m -26.093749,0.03125 c -0.150313,2.067456 0.483975,3.912844 1.875,5.3125 1.935984,1.947973 4.610291,2.494752 6.9375,1.40625 2.574527,-1.204178 3.849882,-3.408825 3.656249,-6.21875 -0.134476,2.338379 -1.391905,4.159653 -3.656249,5.21875 -2.327209,1.088502 -5.001516,0.541723 -6.9375,-1.40625 -1.161185,-1.16839 -1.78233,-2.651111 -1.875,-4.3125 z M 80.96875,58.375 c -0.06011,0.746032 -0.239164,1.486283 -0.53125,2.1875 -0.439117,1.054206 -1.778185,2.454426 -2.96875,3.09375 -1.314637,0.70597 -4.215431,0.70563 -5.53125,0 -2.037936,-1.092874 -3.169796,-2.910244 -3.3125,-5.125 -0.181974,2.669707 0.971747,4.869736 3.3125,6.125 1.315819,0.70563 4.216613,0.70597 5.53125,0 1.190565,-0.639324 2.529633,-2.039544 2.96875,-3.09375 0.422899,-1.015261 0.585093,-2.113781 0.53125,-3.1875 z"
       id="path3879" />
    <path
       inkscape:connector-curvature="0"
       id="path3884"
       d="m 34.405054,29.694011 c -1.445208,0.02254 -2.919206,0.387911 -4.351152,1.095614 -4.269072,2.10989 -6.01981,6.646131 -4.695487,12.051752 0.633127,2.584343 0.852059,6.07656 0.469548,7.481477 -0.542122,1.991087 -2.205522,3.033727 -4.883307,3.036415 -2.64526,0.0027 -5.246275,2.034052 -5.759799,4.507669 -0.525313,2.530457 0.07523,4.823108 1.721679,6.479773 1.935984,1.947973 4.622113,2.497148 6.949322,1.408646 3.369412,-1.575968 4.47335,-4.868513 3.036416,-8.984033 -0.692688,-1.983911 -0.724332,-2.250242 -0.375639,-3.505964 1.476071,-5.315659 13.601639,-5.704733 15.58902,-0.500852 0.469799,1.23015 0.392247,2.071774 -0.469549,4.225939 -0.527538,1.318622 -0.591657,1.777958 -0.500852,3.192931 0.165882,2.584715 1.40482,4.395911 3.8503,5.509373 1.488081,0.677544 4.581704,0.674543 6.041528,0 3.587923,-1.657947 4.934784,-5.252995 3.349448,-8.890124 -1.361707,-3.124041 -0.673576,-5.199696 2.191227,-6.636289 3.603721,-1.807133 8.809857,-1.394756 11.425687,0.907794 1.871634,1.64748 2.1514,3.073633 1.158221,5.916315 -1.318183,3.772926 -0.261956,7.036495 2.785989,8.671001 1.315819,0.70563 4.226039,0.70597 5.540676,0 1.190565,-0.639324 2.534692,-2.044816 2.973809,-3.099022 1.280899,-3.075078 0.233517,-6.944545 -2.285138,-8.420575 -0.87,-0.509852 -1.526557,-0.665364 -3.286841,-0.813885 -1.431395,-0.120772 -2.433179,-0.346881 -2.911203,-0.626065 -0.955475,-0.558027 -1.717812,-1.940421 -1.909498,-3.474661 -0.174487,-1.396503 0.214725,-4.87797 0.751278,-6.730199 0.554674,-1.914755 0.333157,-5.505878 -0.438245,-7.199747 -2.363621,-5.190107 -9.04051,-7.222371 -13.773432,-4.163333 -0.742332,0.479792 -1.694552,1.331941 -2.128621,1.878195 -1.521738,1.915054 -3.972708,4.36896 -4.726791,4.726791 -1.897458,0.900406 -3.845211,0.162547 -5.978921,-2.253834 -3.225307,-3.652591 -3.69738,-4.113581 -5.133733,-4.820702 -1.349446,-0.664331 -2.780731,-0.992937 -4.22594,-0.9704 z m 13.648219,10.643105 c 4.368792,-0.0072 7.338474,3.986758 6.104134,8.232756 -0.538316,1.851711 -2.30439,3.645287 -4.069423,4.163332 -1.510099,0.443218 -2.756009,0.465145 -4.163333,0.0313 -2.446752,-0.75425 -4.274141,-3.361467 -4.257242,-6.104135 0.01132,-1.835692 0.421587,-2.880766 1.690376,-4.257242 1.325034,-1.437485 2.759254,-2.062831 4.695488,-2.066015 z"
       style="opacity:0.15;color:#000000;fill:none;stroke:#000000;stroke-width:1;stroke-miterlimit:4;stroke-dasharray:none;marker:none;visibility:visible;display:inline;overflow:visible;filter:url(#filter3892);enable-background:accumulate"
       clip-path="url(#clipPath3888)"
       transform="translate(0,-2)" />
  </g>
</svg>
