<?xml version="1.0" encoding="UTF-8" standalone="no"?>
<svg
   xmlns:dc="http://purl.org/dc/elements/1.1/"
   xmlns:cc="http://creativecommons.org/ns#"
   xmlns:rdf="http://www.w3.org/1999/02/22-rdf-syntax-ns#"
   xmlns:svg="http://www.w3.org/2000/svg"
   xmlns="http://www.w3.org/2000/svg"
   xmlns:xlink="http://www.w3.org/1999/xlink"
   xmlns:sodipodi="http://sodipodi.sourceforge.net/DTD/sodipodi-0.dtd"
   xmlns:inkscape="http://www.inkscape.org/namespaces/inkscape"
   width="96"
   height="96"
   version="1.0"
   id="svg125"
   sodipodi:docname="mono.svg"
   inkscape:version="0.92.2 5c3e80d, 2017-08-06">
  <metadata
     id="metadata129">
    <rdf:RDF>
      <cc:Work
         rdf:about="">
        <dc:format>image/svg+xml</dc:format>
        <dc:type
           rdf:resource="http://purl.org/dc/dcmitype/StillImage" />
      </cc:Work>
    </rdf:RDF>
  </metadata>
  <sodipodi:namedview
     pagecolor="#ffffff"
     bordercolor="#666666"
     borderopacity="1"
     objecttolerance="10"
     gridtolerance="10"
     guidetolerance="10"
     inkscape:pageopacity="0"
     inkscape:pageshadow="2"
     inkscape:window-width="640"
     inkscape:window-height="480"
     id="namedview127"
     showgrid="false"
     inkscape:zoom="2.4583333"
     inkscape:cx="48"
     inkscape:cy="48"
     inkscape:window-x="0"
     inkscape:window-y="25"
     inkscape:window-maximized="0"
     inkscape:current-layer="svg125" />
  <defs
     id="defs49">
    <linearGradient
       id="linearGradient4384">
      <stop
         stop-color="#fff"
         offset="0"
         id="stop2" />
      <stop
         stop-color="#fff"
         stop-opacity="0"
         offset="1"
         id="stop4" />
    </linearGradient>
    <linearGradient
       id="ButtonShadow"
       x1="45.448"
       x2="45.448"
       y1="92.54"
       y2="7.0165"
       gradientTransform="scale(1.0059 .99417)"
       gradientUnits="userSpaceOnUse">
      <stop
         offset="0"
         id="stop7" />
      <stop
         stop-opacity=".58824"
         offset="1"
         id="stop9" />
    </linearGradient>
    <filter
       id="filter3174">
      <feGaussianBlur
         stdDeviation="1.71"
         id="feGaussianBlur12" />
    </filter>
    <filter
       id="filter3794"
       x="-.192"
       y="-.192"
       width="1.384"
       height="1.384">
      <feGaussianBlur
         stdDeviation="5.28"
         id="feGaussianBlur15" />
    </filter>
    <linearGradient
       id="linearGradient3613"
       x1="48"
       x2="48"
       y1="20.221"
       y2="138.66"
       gradientUnits="userSpaceOnUse">
      <stop
         stop-color="#fff"
         offset="0"
         id="stop18" />
      <stop
         stop-color="#fff"
         stop-opacity="0"
         offset="1"
         id="stop20" />
    </linearGradient>
    <linearGradient
       id="linearGradient3617"
       x1="48"
       x2="48"
       y1="90"
       y2="5.9877"
       gradientUnits="userSpaceOnUse">
      <stop
         stop-color="#6189bb"
         offset="0"
         id="stop23" />
      <stop
         stop-color="#b6cce9"
         offset="1"
         id="stop25" />
    </linearGradient>
    <linearGradient
       id="ButtonShadow-0"
       x1="45.448"
       x2="45.448"
       y1="92.54"
       y2="7.0165"
       gradientTransform="matrix(1.0059 0 0 .99417 100 0)"
       gradientUnits="userSpaceOnUse">
      <stop
         offset="0"
         id="stop28" />
      <stop
         stop-opacity=".58824"
         offset="1"
         id="stop30" />
    </linearGradient>
    <linearGradient
       id="linearGradient3780"
       x1="32.251"
       x2="32.251"
       y1="6.1317"
       y2="90.239"
       gradientTransform="matrix(1.0238 0 0 1.0119 -1.1429 -98.071)"
       gradientUnits="userSpaceOnUse"
       xlink:href="#ButtonShadow-0" />
    <linearGradient
       id="linearGradient3721"
       x1="32.251"
       x2="32.251"
       y1="6.1317"
       y2="90.239"
       gradientTransform="translate(0,-97)"
       gradientUnits="userSpaceOnUse"
       xlink:href="#ButtonShadow-0" />
    <clipPath
       id="clipPath4355">
      <rect
         x="6"
         y="6"
         width="84"
         height="80"
         rx="6"
         ry="6"
         fill="#fff"
         id="rect35" />
    </clipPath>
    <linearGradient
       id="linearGradient4390"
       x1="48"
       x2="48"
       y1="88"
       y2="-40"
       gradientTransform="matrix(1,0,0,-1,0,92)"
       gradientUnits="userSpaceOnUse"
       xlink:href="#linearGradient4384" />
    <linearGradient
       id="linearGradient4429"
       x1="48"
       x2="112.12"
       y1="82"
       y2="82.455"
       gradientUnits="userSpaceOnUse"
       spreadMethod="reflect"
       xlink:href="#linearGradient4384" />
    <linearGradient
       id="linearGradient3870"
       x1="8"
       x2="50"
       y1="1033.4"
       y2="1033.4"
       gradientTransform="translate(-2 -956.36)"
       gradientUnits="userSpaceOnUse"
       spreadMethod="reflect">
      <stop
         stop-color="#523823"
         offset="0"
         id="stop40" />
      <stop
         stop-color="#79563a"
         offset=".1178"
         id="stop42" />
      <stop
         stop-color="#875c38"
         offset=".2381"
         id="stop44" />
      <stop
         stop-color="#a66e40"
         offset="1"
         id="stop46" />
    </linearGradient>
  </defs>
  <g
     display="none"
     id="g53">
    <rect
       x="5"
       y="7"
       width="86"
       height="85"
       rx="6"
       ry="6"
       fill="url(#ButtonShadow)"
       filter="url(#filter3174)"
       opacity=".9"
       id="rect51" />
  </g>
  <g
     id="g67">
    <g
       fill="url(#linearGradient3780)"
       id="g63">
      <path
         transform="scale(1,-1)"
         d="m12-95.031c-5.5111 0-10.031 4.5202-10.031 10.031v71c0 5.5111 4.5202 10.031 10.031 10.031h72c5.5111 0 10.031-4.5202 10.031-10.031v-71c0-5.5111-4.5202-10.031-10.031-10.031h-72z"
         opacity=".08"
         id="path55" />
      <path
         transform="scale(1,-1)"
         d="m12-94.031c-4.9716 0-9.0312 4.0596-9.0312 9.0312v71c0 4.9716 4.0596 9.0312 9.0312 9.0312h72c4.9716 0 9.0312-4.0596 9.0312-9.0312v-71c0-4.9716-4.0596-9.0312-9.0312-9.0312h-72z"
         opacity=".1"
         id="path57" />
      <path
         transform="scale(1,-1)"
         d="m12-93c-4.4091 0-8 3.5909-8 8v71c0 4.4091 3.5909 8 8 8h72c4.4091 0 8-3.5909 8-8v-71c0-4.4091-3.5909-8-8-8h-72z"
         opacity=".2"
         id="path59" />
      <rect
         transform="scale(1,-1)"
         x="5"
         y="-92"
         width="86"
         height="85"
         rx="7"
         ry="7"
         opacity=".3"
         id="rect61" />
    </g>
    <rect
       transform="scale(1,-1)"
       x="6"
       y="-91"
       width="84"
       height="84"
       rx="6"
       ry="6"
       fill="url(#linearGradient3721)"
       opacity=".45"
       id="rect65" />
  </g>
  <g
     id="g79">
    <rect
       x="6"
       y="64"
       width="84"
       height="26"
       rx="6"
       ry="6"
       color="#000000"
       fill="url(#linearGradient3870)"
       id="rect69" />
    <g
       id="g77">
      <path
         d="m6 82v2c0 3.324 2.676 6 6 6h72c3.324 0 6-2.676 6-6v-2c0 3.324-2.676 6-6 6h-72c-3.324 0-6-2.676-6-6z"
         color="#000000"
         opacity=".1"
         id="path71" />
      <path
         d="m6 83v1c0 3.324 2.676 6 6 6h72c3.324 0 6-2.676 6-6v-1c0 3.324-2.676 6-6 6h-72c-3.324 0-6-2.676-6-6z"
         color="#000000"
         opacity=".1"
         id="path73" />
      <path
         d="m6 80v1c0 3.324 2.676 6 6 6h72c3.324 0 6-2.676 6-6v-1c0 3.324-2.676 6-6 6h-72c-3.324 0-6-2.676-6-6z"
         opacity=".2"
         id="path75" />
    </g>
  </g>
  <g
     id="g87">
    <rect
       x="6"
       y="6"
       width="84"
       height="80"
       rx="6"
       ry="6"
       fill="url(#linearGradient3617)"
       id="rect81" />
    <path
       d="m12 86c-3.324 0-6-2.676-6-6v-68c0-3.324 2.676-6 6-6h72c3.324 0 6 2.676 6 6v68c0 3.324-2.676 6-6 6zm0-0.96875h72c2.8049 0 5.0312-2.2264 5.0312-5.0312v-68c0-2.8049-2.2264-5.0312-5.0312-5.0312h-72c-2.8049 0-5.0312 2.2264-5.0312 5.0312v68c0 2.8049 2.2264 5.0312 5.0312 5.0312z"
       fill="url(#linearGradient4390)"
       opacity=".3"
       id="path83" />
    <path
       d="m6 78v2c0 3.324 2.676 6 6 6h72c3.324 0 6-2.676 6-6v-2c0 3.324-2.676 6-6 6h-72c-3.324 0-6-2.676-6-6z"
       fill="url(#linearGradient4429)"
       opacity=".1"
       id="path85" />
  </g>
  <g
     id="g91">
    <rect
       x="15"
       y="15"
       width="66"
       height="62"
       rx="12"
       ry="12"
       clip-path="url(#clipPath4355)"
       fill="url(#linearGradient3613)"
       filter="url(#filter3794)"
       opacity=".1"
       stroke="#fff"
       stroke-linecap="round"
       stroke-width=".5"
       id="rect89" />
  </g>
  <defs
     id="defs101">
    <filter
       id="w">
      <feGaussianBlur
         stdDeviation="0.23199685"
         id="feGaussianBlur93" />
    </filter>
    <linearGradient
       id="a"
       gradientUnits="userSpaceOnUse"
       x1="8"
       y1="1.0001366"
       x2="8"
       y2="14.9999996">
      <stop
         stop-color="#fafafa"
         offset="0"
         id="stop96" />
      <stop
         stop-color="#ebebeb"
         offset="1"
         id="stop98" />
    </linearGradient>
  </defs>
  <g
     transform="translate(0,-2)"
     id="g123">
    <path
       style="opacity:0.15;fill:#000000"
       d="m 12.150391,0.75195312 c -1.161779,-0.003302 -2.7212689,-0.002718 -4.3984379,0.001953 L 1.6503906,0.77148438 A 0.250025,0.250025 0 0 0 1.5175781,0.81054688 L 1.3125,0.9375 C 1.1302213,1.0476554 0.98749993,1.2176159 0.89453125,1.4121094 0.83253059,1.5400481 0.78373277,1.6977129 0.76757812,2.0507812 0.75142348,2.4038496 0.75,3.0000897 0.75,4.1484375 c 0,0.751052 0.004513,1.3475188 0.0136719,1.7597656 0.004579,0.2061234 0.0102828,0.3652102 0.0175781,0.4785157 0.003648,0.056653 0.007681,0.1020323 0.0136719,0.1425781 0.002995,0.020273 0.003969,0.037459 0.0136719,0.068359 0.004852,0.01545 0.0108881,0.033834 0.0332031,0.068359 0.005579,0.00863 0.0212042,0.028974 0.0214844,0.029297 2.8015e-4,3.228e-4 0.0368269,0.034941 0.0371094,0.035156 2.8245e-4,2.154e-4 0.0641684,0.037002 0.0644531,0.037109 2.8474e-4,1.079e-4 0.0895568,0.015625 0.0898438,0.015625 9.281e-4,0 0.035285,-0.00269 0.042969,-0.00391 0.00768,-0.00121 0.014083,-0.0028 0.019531,-0.00391 0.010896,-0.00221 0.021036,-0.00298 0.033203,-0.00586 0.024335,-0.00575 0.055824,-0.013657 0.09375,-0.023437 0.075853,-0.019562 0.1786555,-0.04796 0.3046875,-0.082031 0.2520642,-0.068142 0.5910181,-0.1620129 0.9570313,-0.2636719 l 1.2519531,-0.3496094 0.828125,0.34375 c 0.2509315,0.1049378 0.48089,0.1965884 0.6542969,0.2617188 0.086703,0.032565 0.1589691,0.057983 0.2148437,0.076172 0.027937,0.00909 0.05081,0.017239 0.076172,0.023437 0.012681,0.0031 0.026049,0.00521 0.048828,0.00781 0.011389,0.0013 0.024796,0.00379 0.050781,0.00195 0.012992,-9.192e-4 0.052292,-0.00964 0.052734,-0.00977 4.426e-4,-1.27e-4 0.093504,-0.050571 0.09375,-0.050781 a 0.250025,0.250025 0 0 0 0.025391,-0.023437 c 1.093e-4,-1.231e-4 0.044862,-0.072119 0.044922,-0.072266 6.01e-5,-1.469e-4 0.017567,-0.077954 0.017578,-0.078125 2.22e-5,-3.41e-4 -0.017406,-0.1089404 -0.017578,-0.109375 -1.72e-4,-4.346e-4 -0.019235,-0.040991 -0.027344,-0.052734 C 5.8122041,6.3573977 5.8047316,6.3503451 5.7988281,6.34375 5.7752142,6.3173697 5.7635587,6.3095356 5.7519531,6.3007812 5.7287419,6.2832726 5.7100997,6.2709218 5.6855469,6.2558594 5.6364412,6.2257345 5.5707077,6.1888172 5.4902344,6.1445312 5.3292877,6.0559593 5.1083917,5.938867 4.8613281,5.8105469 a 0.250025,0.250025 0 0 0 -0.00195,0 C 3.8258027,5.2872282 3.2894829,4.9319447 3.0917969,4.5273438 3.0211596,4.3830928 3.0001694,4.3234659 2.9960938,4.2929688 c -0.00401,-0.029972 0.00154,-0.082577 0.03125,-0.21875 0.037286,-0.1628679 0.2986696,-0.3931722 0.5429687,-0.6132813 0.013863,-0.012547 0.00929,-0.01121 0.033203,-0.019531 0.025581,-0.0089 0.086012,-0.022016 0.1992188,-0.027344 0.2264137,-0.010654 0.6568953,0.011759 1.4296875,0.1113281 0.4505386,0.057584 0.8675979,0.095769 1.1816406,0.1191406 0.1570214,0.011686 0.2874392,0.021019 0.3847656,0.025391 0.048663,0.00219 0.088812,0.00342 0.1210938,0.00391 0.032282,4.855e-4 0.036325,0.00373 0.097656,-0.00586 a 0.250025,0.250025 0 0 0 0.023437,-0.00391 c 0.00852,-0.00218 0.018819,-0.00493 0.03125,-0.00977 0.012431,-0.00484 0.044498,-0.023164 0.044922,-0.023437 4.24e-4,-2.732e-4 0.066177,-0.060243 0.066406,-0.060547 2.29e-4,-3.042e-4 0.048792,-0.1246652 0.048828,-0.125 3.63e-5,-3.348e-4 -0.019377,-0.1246349 -0.019531,-0.125 C 7.2127363,3.3199474 7.1722179,3.252348 7.171875,3.2519531 7.1715321,3.2515583 7.14813,3.2282842 7.1386719,3.2207031 7.1292137,3.2131221 7.1201479,3.2074863 7.1132812,3.203125 7.0583483,3.1682343 7.045838,3.169841 7.0214844,3.1621094 6.9727771,3.1466462 6.9149543,3.1323558 6.8398438,3.1152344 6.7314228,3.0905198 6.5615913,3.0589248 6.3984375,3.0273438 6.4503445,3.020485 6.4950109,3.0072424 6.546875,3.0019531 7.0679056,2.9474037 8.0562277,3.0058376 8.9960938,3.1308594 9.9359598,3.2558812 10.860244,3.45943 11.21875,3.6269531 a 0.250025,0.250025 0 0 0 0.002,0.00195 c 0.240745,0.1090253 0.198827,0.068002 0.320313,0.3261719 a 0.250025,0.250025 0 0 0 0,0.00195 c 0.149171,0.3123152 0.309234,0.7927761 0.419922,1.2460938 0.110687,0.4533177 0.16917,0.9019968 0.152343,1.0761719 -0.01615,0.169374 -0.04686,0.2075288 -0.0293,0.1933593 -0.02393,0.00249 -0.07648,0.00176 -0.154296,-0.00781 C 11.543168,6.4156344 10.773051,6.2983017 10.158203,6.1601562 9.8896868,6.0991076 9.716929,6.0644628 9.5839844,6.0605469 9.5673663,6.0600574 9.5506362,6.0601134 9.5273438,6.0625 c -0.011646,0.00119 -0.024615,0.00319 -0.042969,0.00781 -0.00918,0.00231 -0.020648,0.0049 -0.033203,0.00977 -0.012555,0.00487 -0.042354,0.023052 -0.042969,0.023437 -6.151e-4,3.857e-4 -0.058213,0.048385 -0.058594,0.048828 -3.807e-4,4.43e-4 -0.052591,0.095203 -0.052734,0.095703 -1.439e-4,5.005e-4 -0.00595,0.1127233 -0.00586,0.1132812 9.5e-5,5.58e-4 0.027008,0.079463 0.027344,0.080078 3.361e-4,6.155e-4 0.021631,0.033749 0.03125,0.044922 0.00962,0.011173 0.019706,0.018625 0.027344,0.025391 0.015276,0.013531 0.02672,0.02265 0.037109,0.029297 0.083119,0.053177 0.1261475,0.059317 0.2226563,0.089844 a 0.250025,0.250025 0 0 0 0.00195,0 C 10.241592,6.8208548 10.665732,7.0009837 11.197266,7.3125 l 0.121093,0.2714844 c 0.294338,0.918622 0.401679,1.5159199 0.40625,2.3652344 0.0023,0.3487112 -0.01577,0.6717992 -0.04687,0.9277342 -0.01714,0.141099 -0.03598,0.182553 -0.05859,0.271485 -0.132901,-0.09466 -0.307825,-0.235249 -0.50586,-0.41211 C 10.689433,10.357798 10.188333,9.8544709 9.8691406,9.4746094 9.7475849,9.3295773 9.6384674,9.2061375 9.5527344,9.1191406 9.5098679,9.0756422 9.4748233,9.0433947 9.4335938,9.0117188 9.412979,8.9958808 9.4014561,8.9772722 9.3300781,8.9550781 c -0.00892,-0.00277 -0.018925,-0.00557 -0.03125,-0.00781 -0.012324,-0.00224 -0.042424,-0.0039 -0.042969,-0.00391 -5.447e-4,-5.6e-6 -0.06009,0.00575 -0.060547,0.00586 -4.568e-4,1.049e-4 -0.071898,0.02908 -0.072266,0.029297 -3.677e-4,2.166e-4 -0.064176,0.054358 -0.064453,0.054687 -2.775e-4,3.294e-4 -0.04083,0.065963 -0.041016,0.066406 -1.861e-4,4.433e-4 -0.015531,0.056082 -0.015625,0.056641 -9.36e-5,5.585e-4 -0.00391,0.030662 -0.00391,0.042969 0,0.1135952 0.026576,0.1358852 0.048828,0.1855468 0.022252,0.049662 0.050587,0.102421 0.083984,0.1621094 0.066794,0.1193768 0.15452,0.2643139 0.2539062,0.4160156 0.1987724,0.3034034 0.4361062,0.6323444 0.6210934,0.8437504 0.36692,0.41938 0.777253,0.926144 1.253907,1.185547 l 0.08789,0.04883 -0.08594,0.21875 c -0.09483,0.237581 -0.237167,0.541957 -0.367188,0.802734 -0.102084,0.204745 -0.174724,0.327499 -0.224609,0.412109 -0.0442,-0.01639 -0.0572,-0.0177 -0.15625,-0.06055 C 10.176635,13.268277 9.5061567,12.961673 8.171875,12.388672 7.3923369,12.05344 6.6748873,11.748754 6.1484375,11.525391 5.8852126,11.413709 5.6699263,11.321671 5.5175781,11.257812 c -0.076174,-0.03193 -0.1366607,-0.05651 -0.1796875,-0.07422 -0.021513,-0.0089 -0.039354,-0.01615 -0.052734,-0.02149 -0.01338,-0.0053 -0.046677,-0.017 -0.048828,-0.01758 a 0.250025,0.250025 0 0 0 -0.00977,-0.002 c -2.426e-4,-5.4e-5 -0.093422,-0.002 -0.09375,-0.002 -3.283e-4,5.1e-5 -0.050368,0.01156 -0.050781,0.01172 -8.265e-4,3.12e-4 -0.036844,0.01716 -0.046875,0.02344 -0.020062,0.01256 -0.030288,0.02187 -0.039062,0.0293 -0.017548,0.01484 -0.029981,0.026 -0.044922,0.04102 -0.029882,0.03004 -0.065618,0.06884 -0.109375,0.117187 -0.087515,0.09669 -0.2053321,0.233214 -0.3457031,0.396485 -0.2807422,0.326542 -0.6492469,0.762585 -1.015625,1.203125 -0.3663782,0.440539 -0.7315452,0.88552 -1.0078126,1.228515 -0.1381336,0.171498 -0.2522612,0.316931 -0.3359374,0.425782 -0.041838,0.05443 -0.075585,0.09817 -0.1015626,0.134765 -0.00722,0.01017 -0.013266,0.01998 -0.019531,0.0293 a 0.250025,0.250025 0 0 0 -0.00391,0.0039 0.250025,0.250025 0 0 0 -0.054688,0.09375 l -0.00586,0.01758 0.00781,0.002 c -4.933e-4,0.002 -0.00145,-2.11e-4 -0.00195,0.002 a 0.250025,0.250025 0 0 0 0.00586,0.130859 c 2.75e-5,8.9e-5 0.081922,0.121005 0.082031,0.121094 1.095e-4,8.8e-5 0.052543,0.03116 0.052734,0.03125 3.829e-4,1.77e-4 0.035468,0.01522 0.044922,0.01758 0.018907,0.0047 0.027394,0.0049 0.035156,0.0059 0.015524,0.002 0.025885,0.003 0.039063,0.0039 0.026356,0.0018 0.059662,0.0025 0.1015625,0.0039 0.083802,0.0028 0.2036848,0.0053 0.3574218,0.0078 0.3074742,0.0051 0.749493,0.0097 1.2949219,0.01367 1.0908579,0.0079 2.5933345,0.01367 4.2480469,0.01367 2.987867,0 4.492044,-2.44e-4 5.287109,-0.01563 0.397533,-0.0077 0.61826,-0.01801 0.769532,-0.03711 0.151271,-0.0191 0.253991,-0.06148 0.316406,-0.0918 0.192201,-0.0938 0.361034,-0.237181 0.472656,-0.419922 l 0.128906,-0.205078 a 0.250025,0.250025 0 0 0 0.03711,-0.132813 l 0.01563,-6.2265622 c 0.0047,-2.0669773 0.0032,-3.6435181 -0.0039,-4.7226563 -0.0036,-0.5395691 -0.009,-0.9551267 -0.01563,-1.2460937 -0.0033,-0.1454836 -0.0055,-0.2585379 -0.0098,-0.34375 -0.0042,-0.085212 0.0033,-0.1088908 -0.02149,-0.2011719 C 15.074626,1.1576481 14.659268,0.83136867 14.183594,0.7734375 a 0.250025,0.250025 0 0 0 -0.002,0 c -0.05977,-0.006667 -0.104542,-0.005829 -0.207032,-0.007813 -0.10249,-0.001984 -0.242623,-0.004242 -0.416015,-0.005859 -0.346784,-0.003235 -0.827314,-0.006161 -1.408203,-0.007813 z M 2.2109375,14.9375 2.4375,14.974609 c 0,0 -0.011422,0.0412 -0.021484,0.07813 -0.004,0.01468 -0.00578,0.02377 -0.00781,0.03125 -0.011333,-0.007 -0.2070312,-0.126953 -0.2070312,-0.126953 a 0.250025,0.250025 0 0 0 0.00977,-0.01953 z"
       id="path103"
       inkscape:original="M 7.7519531 1.0039062 L 1.6503906 1.0214844 L 1.4414062 1.1523438 C 1.3206763 1.2253038 1.1873806 1.3778944 1.1191406 1.5214844 C 1.0054506 1.7560844 1 1.8521375 1 4.1484375 C 1 5.6485475 1.0179475 6.5332031 1.0546875 6.5332031 C 1.0843875 6.5332031 1.7081031 6.3632862 2.4394531 6.1601562 L 3.7734375 5.7871094 L 4.6816406 6.1640625 C 5.1785406 6.3718625 5.5994844 6.529055 5.6152344 6.515625 C 5.6292344 6.499865 5.2383337 6.2888631 4.7460938 6.0332031 C 3.7050138 5.5060831 3.1133075 5.1404488 2.8671875 4.6367188 C 2.7231275 4.3425287 2.7196331 4.3070881 2.7832031 4.0175781 C 2.8520231 3.7169681 3.1743037 3.4808506 3.4023438 3.2753906 C 3.5160437 3.1750006 3.7052719 3.0765537 5.2636719 3.2773438 C 6.1542019 3.3911638 6.9190256 3.431175 6.9785156 3.421875 C 7.0310056 3.408445 6.6734937 3.3293413 6.1835938 3.2382812 C 5.6394538 3.1378913 5.3220744 3.0598306 5.3652344 3.0253906 C 5.5244844 2.9249906 6.0292444 2.8041062 6.5214844 2.7539062 C 7.6587844 2.6348362 10.469809 3.0011406 11.324219 3.4003906 C 11.581999 3.5171306 11.639858 3.5781894 11.767578 3.8496094 C 12.091268 4.5273094 12.409148 5.8077544 12.361328 6.3027344 C 12.324588 6.6879744 12.249538 6.7560806 11.898438 6.7128906 C 11.504137 6.6626906 10.732226 6.5455569 10.103516 6.4042969 C 9.5797856 6.2852239 9.3530506 6.2787581 9.7128906 6.3925781 C 10.348891 6.5929981 10.809149 6.77998 11.386719 7.125 L 11.554688 7.5 C 11.855628 8.4375 11.969909 9.0740556 11.974609 9.9472656 C 11.979269 10.663416 11.902793 11.278731 11.789062 11.488281 C 11.693462 11.663981 10.340854 10.423926 9.6777344 9.6347656 C 9.4409544 9.3522556 9.2480469 9.1560288 9.2480469 9.1992188 C 9.2480469 9.3294188 9.8562594 10.257338 10.193359 10.642578 C 10.562579 11.064588 10.977859 11.554547 11.380859 11.773438 L 11.662109 11.929688 L 11.494141 12.351562 C 11.295851 12.848332 10.920187 13.588068 10.810547 13.736328 C 10.739947 13.832028 10.737566 13.763741 8.0722656 12.619141 C 6.5139656 11.949011 5.206285 11.396019 5.171875 11.386719 C 5.1097726 11.372786 2.2287783 14.838652 2.2011719 14.957031 C 2.2081944 14.979756 4.910345 15 8.21875 15 C 14.1944 15 14.243302 14.997019 14.482422 14.880859 C 14.623562 14.811979 14.776333 14.677848 14.851562 14.554688 L 14.980469 14.347656 L 14.996094 8.1210938 C 15.005424 3.9878938 14.991615 1.815465 14.953125 1.671875 C 14.864475 1.341495 14.528137 1.0670134 14.154297 1.0214844 C 13.992097 1.0033894 11.105453 0.99456625 7.7519531 1.0039062 z M 2.2011719 14.957031 C 2.2011628 14.957002 2.1933594 14.957061 2.1933594 14.957031 L 2.1875 14.974609 C 2.1875 14.974197 2.2010396 14.957599 2.2011719 14.957031 z"
       transform="matrix(4,0,0,4,16,17)"
       inkscape:radius="0.25"
       sodipodi:type="inkscape:offset" />
    <g
       id="Bevel1">
      <path
         fill="#000"
         opacity=".10"
         sodipodi:type="inkscape:offset"
         inkscape:radius="0.5"
         transform="translate(16,17) scale(4)"
         inkscape:original="M 7.7519531 1.0039062 L 1.6503906 1.0214844 L 1.4414062 1.1523438 C 1.3206763 1.2253038 1.1873806 1.3778944 1.1191406 1.5214844 C 1.0054506 1.7560844 1 1.8521375 1 4.1484375 C 1 5.6485475 1.0179475 6.5332031 1.0546875 6.5332031 C 1.0843875 6.5332031 1.7081031 6.3632862 2.4394531 6.1601562 L 3.7734375 5.7871094 L 4.6816406 6.1640625 C 5.1785406 6.3718625 5.5994844 6.529055 5.6152344 6.515625 C 5.6292344 6.499865 5.2383337 6.2888631 4.7460938 6.0332031 C 3.7050138 5.5060831 3.1133075 5.1404488 2.8671875 4.6367188 C 2.7231275 4.3425287 2.7196331 4.3070881 2.7832031 4.0175781 C 2.8520231 3.7169681 3.1743037 3.4808506 3.4023438 3.2753906 C 3.5160437 3.1750006 3.7052719 3.0765537 5.2636719 3.2773438 C 6.1542019 3.3911638 6.9190256 3.431175 6.9785156 3.421875 C 7.0310056 3.408445 6.6734937 3.3293413 6.1835938 3.2382812 C 5.6394538 3.1378913 5.3220744 3.0598306 5.3652344 3.0253906 C 5.5244844 2.9249906 6.0292444 2.8041062 6.5214844 2.7539062 C 7.6587844 2.6348362 10.469809 3.0011406 11.324219 3.4003906 C 11.581999 3.5171306 11.639858 3.5781894 11.767578 3.8496094 C 12.091268 4.5273094 12.409148 5.8077544 12.361328 6.3027344 C 12.324588 6.6879744 12.249538 6.7560806 11.898438 6.7128906 C 11.504137 6.6626906 10.732226 6.5455569 10.103516 6.4042969 C 9.5797856 6.2852239 9.3530506 6.2787581 9.7128906 6.3925781 C 10.348891 6.5929981 10.809149 6.77998 11.386719 7.125 L 11.554688 7.5 C 11.855628 8.4375 11.969909 9.0740556 11.974609 9.9472656 C 11.979269 10.663416 11.902793 11.278731 11.789062 11.488281 C 11.693462 11.663981 10.340854 10.423926 9.6777344 9.6347656 C 9.4409544 9.3522556 9.2480469 9.1560288 9.2480469 9.1992188 C 9.2480469 9.3294188 9.8562594 10.257338 10.193359 10.642578 C 10.562579 11.064588 10.977859 11.554547 11.380859 11.773438 L 11.662109 11.929688 L 11.494141 12.351562 C 11.295851 12.848332 10.920187 13.588068 10.810547 13.736328 C 10.739947 13.832028 10.737566 13.763741 8.0722656 12.619141 C 6.5139656 11.949011 5.206285 11.396019 5.171875 11.386719 C 5.1097726 11.372786 2.2287783 14.838652 2.2011719 14.957031 C 2.2081944 14.979756 4.910345 15 8.21875 15 C 14.1944 15 14.243302 14.997019 14.482422 14.880859 C 14.623562 14.811979 14.776333 14.677848 14.851562 14.554688 L 14.980469 14.347656 L 14.996094 8.1210938 C 15.005424 3.9878938 14.991615 1.815465 14.953125 1.671875 C 14.864475 1.341495 14.528137 1.0670134 14.154297 1.0214844 C 13.992097 1.0033894 11.105453 0.99456625 7.7519531 1.0039062 z M 2.2011719 14.957031 C 2.2011628 14.957002 2.1933594 14.957061 2.1933594 14.957031 L 2.1875 14.974609 C 2.1875 14.974197 2.2010396 14.957599 2.2011719 14.957031 z"
         id="path106" />
    </g>
    <g
       id="Bevel2">
      <path
         fill="#000"
         opacity=".05"
         sodipodi:type="inkscape:offset"
         inkscape:radius="0.75"
         transform="translate(16,17) scale(4)"
         inkscape:original="M 7.7519531 1.0039062 L 1.6503906 1.0214844 L 1.4414062 1.1523438 C 1.3206763 1.2253038 1.1873806 1.3778944 1.1191406 1.5214844 C 1.0054506 1.7560844 1 1.8521375 1 4.1484375 C 1 5.6485475 1.0179475 6.5332031 1.0546875 6.5332031 C 1.0843875 6.5332031 1.7081031 6.3632862 2.4394531 6.1601562 L 3.7734375 5.7871094 L 4.6816406 6.1640625 C 5.1785406 6.3718625 5.5994844 6.529055 5.6152344 6.515625 C 5.6292344 6.499865 5.2383337 6.2888631 4.7460938 6.0332031 C 3.7050138 5.5060831 3.1133075 5.1404488 2.8671875 4.6367188 C 2.7231275 4.3425287 2.7196331 4.3070881 2.7832031 4.0175781 C 2.8520231 3.7169681 3.1743037 3.4808506 3.4023438 3.2753906 C 3.5160437 3.1750006 3.7052719 3.0765537 5.2636719 3.2773438 C 6.1542019 3.3911638 6.9190256 3.431175 6.9785156 3.421875 C 7.0310056 3.408445 6.6734937 3.3293413 6.1835938 3.2382812 C 5.6394538 3.1378913 5.3220744 3.0598306 5.3652344 3.0253906 C 5.5244844 2.9249906 6.0292444 2.8041062 6.5214844 2.7539062 C 7.6587844 2.6348362 10.469809 3.0011406 11.324219 3.4003906 C 11.581999 3.5171306 11.639858 3.5781894 11.767578 3.8496094 C 12.091268 4.5273094 12.409148 5.8077544 12.361328 6.3027344 C 12.324588 6.6879744 12.249538 6.7560806 11.898438 6.7128906 C 11.504137 6.6626906 10.732226 6.5455569 10.103516 6.4042969 C 9.5797856 6.2852239 9.3530506 6.2787581 9.7128906 6.3925781 C 10.348891 6.5929981 10.809149 6.77998 11.386719 7.125 L 11.554688 7.5 C 11.855628 8.4375 11.969909 9.0740556 11.974609 9.9472656 C 11.979269 10.663416 11.902793 11.278731 11.789062 11.488281 C 11.693462 11.663981 10.340854 10.423926 9.6777344 9.6347656 C 9.4409544 9.3522556 9.2480469 9.1560288 9.2480469 9.1992188 C 9.2480469 9.3294188 9.8562594 10.257338 10.193359 10.642578 C 10.562579 11.064588 10.977859 11.554547 11.380859 11.773438 L 11.662109 11.929688 L 11.494141 12.351562 C 11.295851 12.848332 10.920187 13.588068 10.810547 13.736328 C 10.739947 13.832028 10.737566 13.763741 8.0722656 12.619141 C 6.5139656 11.949011 5.206285 11.396019 5.171875 11.386719 C 5.1097726 11.372786 2.2287783 14.838652 2.2011719 14.957031 C 2.2081944 14.979756 4.910345 15 8.21875 15 C 14.1944 15 14.243302 14.997019 14.482422 14.880859 C 14.623562 14.811979 14.776333 14.677848 14.851562 14.554688 L 14.980469 14.347656 L 14.996094 8.1210938 C 15.005424 3.9878938 14.991615 1.815465 14.953125 1.671875 C 14.864475 1.341495 14.528137 1.0670134 14.154297 1.0214844 C 13.992097 1.0033894 11.105453 0.99456625 7.7519531 1.0039062 z M 2.2011719 14.957031 C 2.2011628 14.957002 2.1933594 14.957061 2.1933594 14.957031 L 2.1875 14.974609 C 2.1875 14.974197 2.2010396 14.957599 2.2011719 14.957031 z"
         id="path109" />
    </g>
    <path
       d="M 7.7519531 1.0039062 L 1.6503906 1.0214844 L 1.4414062 1.1523438 C 1.3206763 1.2253038 1.1873806 1.3778944 1.1191406 1.5214844 C 1.0054506 1.7560844 1 1.8521375 1 4.1484375 C 1 5.6485475 1.0179475 6.5332031 1.0546875 6.5332031 C 1.0843875 6.5332031 1.7081031 6.3632862 2.4394531 6.1601562 L 3.7734375 5.7871094 L 4.6816406 6.1640625 C 5.1785406 6.3718625 5.5994844 6.529055 5.6152344 6.515625 C 5.6292344 6.499865 5.2383337 6.2888631 4.7460938 6.0332031 C 3.7050138 5.5060831 3.1133075 5.1404488 2.8671875 4.6367188 C 2.7231275 4.3425287 2.7196331 4.3070881 2.7832031 4.0175781 C 2.8520231 3.7169681 3.1743037 3.4808506 3.4023438 3.2753906 C 3.5160437 3.1750006 3.7052719 3.0765537 5.2636719 3.2773438 C 6.1542019 3.3911638 6.9190256 3.431175 6.9785156 3.421875 C 7.0310056 3.408445 6.6734937 3.3293413 6.1835938 3.2382812 C 5.6394538 3.1378913 5.3220744 3.0598306 5.3652344 3.0253906 C 5.5244844 2.9249906 6.0292444 2.8041062 6.5214844 2.7539062 C 7.6587844 2.6348362 10.469809 3.0011406 11.324219 3.4003906 C 11.581999 3.5171306 11.639858 3.5781894 11.767578 3.8496094 C 12.091268 4.5273094 12.409148 5.8077544 12.361328 6.3027344 C 12.324588 6.6879744 12.249538 6.7560806 11.898438 6.7128906 C 11.504137 6.6626906 10.732226 6.5455569 10.103516 6.4042969 C 9.5797856 6.2852239 9.3530506 6.2787581 9.7128906 6.3925781 C 10.348891 6.5929981 10.809149 6.77998 11.386719 7.125 L 11.554688 7.5 C 11.855628 8.4375 11.969909 9.0740556 11.974609 9.9472656 C 11.979269 10.663416 11.902793 11.278731 11.789062 11.488281 C 11.693462 11.663981 10.340854 10.423926 9.6777344 9.6347656 C 9.4409544 9.3522556 9.2480469 9.1560288 9.2480469 9.1992188 C 9.2480469 9.3294188 9.8562594 10.257338 10.193359 10.642578 C 10.562579 11.064588 10.977859 11.554547 11.380859 11.773438 L 11.662109 11.929688 L 11.494141 12.351562 C 11.295851 12.848332 10.920187 13.588068 10.810547 13.736328 C 10.739947 13.832028 10.737566 13.763741 8.0722656 12.619141 C 6.5139656 11.949011 5.206285 11.396019 5.171875 11.386719 C 5.1097726 11.372786 2.2287783 14.838652 2.2011719 14.957031 C 2.2081944 14.979756 4.910345 15 8.21875 15 C 14.1944 15 14.243302 14.997019 14.482422 14.880859 C 14.623562 14.811979 14.776333 14.677848 14.851562 14.554688 L 14.980469 14.347656 L 14.996094 8.1210938 C 15.005424 3.9878938 14.991615 1.815465 14.953125 1.671875 C 14.864475 1.341495 14.528137 1.0670134 14.154297 1.0214844 C 13.992097 1.0033894 11.105453 0.99456625 7.7519531 1.0039062 z M 2.2011719 14.957031 C 2.2011628 14.957002 2.1933594 14.957061 2.1933594 14.957031 L 2.1875 14.974609 C 2.1875 14.974197 2.2010396 14.957599 2.2011719 14.957031 z"
       fill="url(#a)"
       id="base"
       transform="translate(16,16) scale(4)" />
    <path
       style="opacity:0.3;fill:#000000;stroke-width:4"
       d="M 44.078125 24.923828 C 43.328621 24.926226 42.654587 24.95609 42.085938 25.015625 C 40.116977 25.216425 38.097938 25.699963 37.460938 26.101562 C 37.349971 26.190109 37.99698 26.368021 38.935547 26.578125 C 39.829872 26.344055 40.949849 26.131486 42.085938 26.015625 C 46.635137 25.539345 57.879235 27.004562 61.296875 28.601562 C 62.327995 29.068523 62.559433 29.312758 63.070312 30.398438 C 64.188959 32.740513 65.285866 36.874071 65.441406 39.234375 C 65.442343 39.224782 65.444388 39.220631 65.445312 39.210938 C 65.636592 37.231018 64.365072 32.109238 63.070312 29.398438 C 62.559433 28.312758 62.327995 28.068523 61.296875 27.601562 C 58.30644 26.204187 49.32465 24.907043 44.078125 24.923828 z M 32.080078 26.648438 C 30.296479 26.603017 29.893625 26.850587 29.609375 27.101562 C 28.697215 27.923403 27.408092 28.867873 27.132812 30.070312 C 26.980376 30.764537 26.945111 31.104069 27.048828 31.509766 C 27.074223 31.371802 27.093527 31.249228 27.132812 31.070312 C 27.408092 29.867873 28.697215 28.923403 29.609375 28.101562 C 30.064175 27.700003 30.821088 27.306228 37.054688 28.109375 C 40.616808 28.564655 43.676103 28.7247 43.914062 28.6875 C 44.124023 28.63379 42.693975 28.317365 40.734375 27.953125 C 38.803583 27.596907 37.592602 27.312446 37.462891 27.15625 C 37.321574 27.138908 37.197777 27.127663 37.054688 27.109375 C 34.717087 26.808195 33.150238 26.67569 32.080078 26.648438 z M 20.001953 30.783203 C 20.001869 31.104428 20 31.248097 20 31.59375 C 20 37.59419 20.071792 41.132812 20.21875 41.132812 C 20.33755 41.132812 22.832413 40.453145 25.757812 39.640625 L 31.09375 38.148438 L 34.726562 39.65625 C 36.714163 40.48745 38.397938 41.11622 38.460938 41.0625 C 38.516937 40.99946 36.953335 40.155452 34.984375 39.132812 C 33.815041 38.540755 32.801319 38.003055 31.90625 37.486328 L 31.09375 37.148438 L 25.757812 38.640625 C 22.832413 39.453145 20.33755 40.132812 20.21875 40.132812 C 20.073775 40.132812 20.003865 36.636926 20.001953 30.783203 z M 54.306641 40.244141 C 53.99796 40.235048 54.131883 40.342675 54.851562 40.570312 C 57.395564 41.371992 59.236595 42.11992 61.546875 43.5 L 62.21875 45 C 63.380267 48.618404 63.836575 51.132689 63.884766 54.441406 C 63.887279 54.219732 63.89993 54.016429 63.898438 53.789062 C 63.879638 50.296222 63.42251 47.75 62.21875 44 L 61.546875 42.5 C 60.619684 41.946128 59.769773 41.509805 58.917969 41.115234 C 58.068021 40.960371 57.215103 40.797167 56.414062 40.617188 C 55.366602 40.379041 54.615321 40.253234 54.306641 40.244141 z M 75.984375 46.708984 L 75.921875 71.390625 L 75.40625 72.21875 C 75.105334 72.71139 74.494248 73.247917 73.929688 73.523438 C 72.973208 73.988001 72.7776 74 48.875 74 C 36.868065 74 27.287352 73.931813 25.513672 73.851562 C 25.104625 74.378192 24.820326 74.761063 24.804688 74.828125 C 24.832778 74.919025 35.64138 75 48.875 75 C 72.7776 75 72.973208 74.988001 73.929688 74.523438 C 74.494248 74.247917 75.105334 73.71139 75.40625 73.21875 L 75.921875 72.390625 L 75.984375 47.484375 C 75.985139 47.14493 75.983689 47.041815 75.984375 46.708984 z M 24.804688 74.828125 C 24.804651 74.828009 24.773438 74.828245 24.773438 74.828125 L 24.75 74.898438 C 24.75 74.896838 24.804158 74.830405 24.804688 74.828125 z M 53.027344 51.775391 C 53.004395 51.768255 52.992188 51.77528 52.992188 51.796875 C 52.992188 52.317675 55.425039 56.029353 56.773438 57.570312 C 58.250318 59.258353 59.911437 61.218186 61.523438 62.09375 L 62.322266 62.537109 L 62.648438 61.71875 L 61.523438 61.09375 C 59.911437 60.218186 58.250318 58.258353 56.773438 56.570312 C 56.007494 55.694987 54.930474 54.158687 54.109375 52.865234 C 53.592765 52.287239 53.142506 51.811199 53.027344 51.775391 z "
       transform="translate(0,2)"
       id="path113" />
    <path
       style="fill:#ffffff;stroke-width:4"
       d="M 64.599609 18.009766 C 59.955115 17.996565 53.714813 17.996944 47.007812 18.015625 L 22.601562 18.085938 L 21.765625 18.609375 C 21.282705 18.901215 20.749522 19.511578 20.476562 20.085938 C 20.021802 21.024341 20 21.40855 20 30.59375 C 20 30.674726 20.001927 30.703127 20.001953 30.783203 C 20.004093 22.568369 20.038916 21.989027 20.476562 21.085938 C 20.749522 20.511578 21.282705 19.901215 21.765625 19.609375 L 22.601562 19.085938 L 47.007812 19.015625 C 60.421813 18.978262 71.968388 19.013558 72.617188 19.085938 C 74.112548 19.268053 75.4579 20.36598 75.8125 21.6875 C 75.88944 21.97468 75.942318 24.290739 75.970703 28.601562 C 75.943476 23.840074 75.893515 20.989889 75.8125 20.6875 C 75.4579 19.36598 74.112548 18.268054 72.617188 18.085938 C 72.292788 18.049748 69.244103 18.022966 64.599609 18.009766 z M 38.935547 26.578125 C 38.279913 26.749723 37.730389 26.931685 37.460938 27.101562 C 37.441444 27.117118 37.44638 27.136368 37.462891 27.15625 C 40.839557 27.570627 43.685661 27.723206 43.914062 27.6875 C 44.124023 27.63379 42.693975 27.317365 40.734375 26.953125 C 39.956825 26.809673 39.457189 26.694898 38.935547 26.578125 z M 27.048828 31.509766 C 26.909852 32.264779 26.981538 32.551923 27.46875 33.546875 C 28.17679 34.996009 29.613732 36.162849 31.90625 37.486328 L 34.726562 38.65625 C 36.714163 39.48745 38.397938 40.11622 38.460938 40.0625 C 38.516937 39.99946 36.953335 39.155452 34.984375 38.132812 C 30.820055 36.024332 28.45323 34.561795 27.46875 32.546875 C 27.237956 32.075562 27.118122 31.780814 27.048828 31.509766 z M 65.441406 39.234375 C 65.293418 40.749815 64.989316 41.023236 63.59375 40.851562 C 62.016546 40.650762 58.928902 40.182228 56.414062 39.617188 C 54.319141 39.140895 53.412202 39.115037 54.851562 39.570312 C 56.374573 40.050252 57.647335 40.526655 58.917969 41.115234 C 60.736403 41.446559 62.518926 41.714722 63.59375 41.851562 C 64.99815 42.024322 65.298352 41.751897 65.445312 40.210938 C 65.47133 39.941628 65.465894 39.605969 65.441406 39.234375 z M 53.027344 50.775391 C 53.004395 50.768255 52.992188 50.77528 52.992188 50.796875 C 52.992188 51.02184 53.484977 51.88164 54.109375 52.865234 C 54.313403 53.093506 54.476307 53.259117 54.710938 53.539062 C 57.363416 56.695704 62.77385 61.655925 63.15625 60.953125 C 63.611158 60.114925 63.917237 57.653664 63.898438 54.789062 C 63.897778 54.666491 63.886518 54.561739 63.884766 54.441406 C 63.855616 57.012622 63.575051 59.181454 63.15625 59.953125 C 62.77385 60.655925 57.363416 55.695704 54.710938 52.539062 C 53.882207 51.550277 53.187987 50.825341 53.027344 50.775391 z M 36.6875 59.546875 C 36.43909 59.491143 24.915113 73.354609 24.804688 73.828125 C 24.807291 73.836551 25.332464 73.843364 25.513672 73.851562 C 27.992855 70.659723 36.474271 60.499036 36.6875 60.546875 C 36.82514 60.584075 42.055862 62.796047 48.289062 65.476562 C 58.950269 70.05495 58.959787 70.328113 59.242188 69.945312 C 59.680747 69.352272 61.183402 66.39333 61.976562 64.40625 L 62.648438 62.71875 L 62.322266 62.537109 L 61.976562 63.40625 C 61.183402 65.39333 59.680747 68.352272 59.242188 68.945312 C 58.959787 69.328113 58.950269 69.054951 48.289062 64.476562 C 42.055862 61.796047 36.82514 59.584075 36.6875 59.546875 z M 24.804688 73.828125 C 24.804651 73.828009 24.773438 73.828245 24.773438 73.828125 L 24.75 73.898438 C 24.75 73.896838 24.804158 73.830405 24.804688 73.828125 z "
       transform="translate(0,2)"
       id="path118" />
  </g>
</svg>
