<?xml version="1.0" encoding="UTF-8" standalone="no"?>
<svg
   xmlns:dc="http://purl.org/dc/elements/1.1/"
   xmlns:cc="http://creativecommons.org/ns#"
   xmlns:rdf="http://www.w3.org/1999/02/22-rdf-syntax-ns#"
   xmlns:svg="http://www.w3.org/2000/svg"
   xmlns="http://www.w3.org/2000/svg"
   xmlns:xlink="http://www.w3.org/1999/xlink"
   xmlns:sodipodi="http://sodipodi.sourceforge.net/DTD/sodipodi-0.dtd"
   xmlns:inkscape="http://www.inkscape.org/namespaces/inkscape"
   width="96"
   height="96"
   version="1.0"
   id="svg124"
   sodipodi:docname="ms-excel.svg"
   inkscape:version="0.92.2 5c3e80d, 2017-08-06">
  <metadata
     id="metadata128">
    <rdf:RDF>
      <cc:Work
         rdf:about="">
        <dc:format>image/svg+xml</dc:format>
        <dc:type
           rdf:resource="http://purl.org/dc/dcmitype/StillImage" />
      </cc:Work>
    </rdf:RDF>
  </metadata>
  <sodipodi:namedview
     pagecolor="#ffffff"
     bordercolor="#666666"
     borderopacity="1"
     objecttolerance="10"
     gridtolerance="10"
     guidetolerance="10"
     inkscape:pageopacity="0"
     inkscape:pageshadow="2"
     inkscape:window-width="640"
     inkscape:window-height="480"
     id="namedview126"
     showgrid="false"
     inkscape:zoom="2.4583333"
     inkscape:cx="48"
     inkscape:cy="48"
     inkscape:window-x="0"
     inkscape:window-y="25"
     inkscape:window-maximized="0"
     inkscape:current-layer="svg124" />
  <defs
     id="defs49">
    <linearGradient
       id="linearGradient4384">
      <stop
         stop-color="#fff"
         offset="0"
         id="stop2" />
      <stop
         stop-color="#fff"
         stop-opacity="0"
         offset="1"
         id="stop4" />
    </linearGradient>
    <linearGradient
       id="ButtonShadow"
       x1="45.448"
       x2="45.448"
       y1="92.54"
       y2="7.0165"
       gradientTransform="scale(1.0059 .99417)"
       gradientUnits="userSpaceOnUse">
      <stop
         offset="0"
         id="stop7" />
      <stop
         stop-opacity=".58824"
         offset="1"
         id="stop9" />
    </linearGradient>
    <filter
       id="filter3174">
      <feGaussianBlur
         stdDeviation="1.71"
         id="feGaussianBlur12" />
    </filter>
    <filter
       id="filter3794"
       x="-.192"
       y="-.192"
       width="1.384"
       height="1.384">
      <feGaussianBlur
         stdDeviation="5.28"
         id="feGaussianBlur15" />
    </filter>
    <linearGradient
       id="linearGradient3613"
       x1="48"
       x2="48"
       y1="20.221"
       y2="138.66"
       gradientUnits="userSpaceOnUse">
      <stop
         stop-color="#fff"
         offset="0"
         id="stop18" />
      <stop
         stop-color="#fff"
         stop-opacity="0"
         offset="1"
         id="stop20" />
    </linearGradient>
    <linearGradient
       id="linearGradient3617"
       x1="48"
       x2="48"
       y1="90"
       y2="5.9877"
       gradientUnits="userSpaceOnUse">
      <stop
         stop-color="#006e33"
         offset="0"
         id="stop23" />
      <stop
         stop-color="#11aa4d"
         offset="1"
         id="stop25" />
    </linearGradient>
    <linearGradient
       id="ButtonShadow-0"
       x1="45.448"
       x2="45.448"
       y1="92.54"
       y2="7.0165"
       gradientTransform="matrix(1.0059 0 0 .99417 100 0)"
       gradientUnits="userSpaceOnUse">
      <stop
         offset="0"
         id="stop28" />
      <stop
         stop-opacity=".58824"
         offset="1"
         id="stop30" />
    </linearGradient>
    <linearGradient
       id="linearGradient3780"
       x1="32.251"
       x2="32.251"
       y1="6.1317"
       y2="90.239"
       gradientTransform="matrix(1.0238 0 0 1.0119 -1.1429 -98.071)"
       gradientUnits="userSpaceOnUse"
       xlink:href="#ButtonShadow-0" />
    <linearGradient
       id="linearGradient3721"
       x1="32.251"
       x2="32.251"
       y1="6.1317"
       y2="90.239"
       gradientTransform="translate(0,-97)"
       gradientUnits="userSpaceOnUse"
       xlink:href="#ButtonShadow-0" />
    <clipPath
       id="clipPath4355">
      <rect
         x="6"
         y="6"
         width="84"
         height="80"
         rx="6"
         ry="6"
         fill="#fff"
         id="rect35" />
    </clipPath>
    <linearGradient
       id="linearGradient4390"
       x1="48"
       x2="48"
       y1="88"
       y2="-40"
       gradientTransform="matrix(1,0,0,-1,0,92)"
       gradientUnits="userSpaceOnUse"
       xlink:href="#linearGradient4384" />
    <linearGradient
       id="linearGradient4429"
       x1="48"
       x2="112.12"
       y1="82"
       y2="82.455"
       gradientUnits="userSpaceOnUse"
       spreadMethod="reflect"
       xlink:href="#linearGradient4384" />
    <linearGradient
       id="linearGradient3870"
       x1="8"
       x2="50"
       y1="1033.4"
       y2="1033.4"
       gradientTransform="translate(-2 -956.36)"
       gradientUnits="userSpaceOnUse"
       spreadMethod="reflect">
      <stop
         stop-color="#523823"
         offset="0"
         id="stop40" />
      <stop
         stop-color="#79563a"
         offset=".1178"
         id="stop42" />
      <stop
         stop-color="#875c38"
         offset=".2381"
         id="stop44" />
      <stop
         stop-color="#a66e40"
         offset="1"
         id="stop46" />
    </linearGradient>
  </defs>
  <g
     display="none"
     id="g53">
    <rect
       x="5"
       y="7"
       width="86"
       height="85"
       rx="6"
       ry="6"
       fill="url(#ButtonShadow)"
       filter="url(#filter3174)"
       opacity=".9"
       id="rect51" />
  </g>
  <g
     id="g67">
    <g
       fill="url(#linearGradient3780)"
       id="g63">
      <path
         transform="scale(1,-1)"
         d="m12-95.031c-5.5111 0-10.031 4.5202-10.031 10.031v71c0 5.5111 4.5202 10.031 10.031 10.031h72c5.5111 0 10.031-4.5202 10.031-10.031v-71c0-5.5111-4.5202-10.031-10.031-10.031h-72z"
         opacity=".08"
         id="path55" />
      <path
         transform="scale(1,-1)"
         d="m12-94.031c-4.9716 0-9.0312 4.0596-9.0312 9.0312v71c0 4.9716 4.0596 9.0312 9.0312 9.0312h72c4.9716 0 9.0312-4.0596 9.0312-9.0312v-71c0-4.9716-4.0596-9.0312-9.0312-9.0312h-72z"
         opacity=".1"
         id="path57" />
      <path
         transform="scale(1,-1)"
         d="m12-93c-4.4091 0-8 3.5909-8 8v71c0 4.4091 3.5909 8 8 8h72c4.4091 0 8-3.5909 8-8v-71c0-4.4091-3.5909-8-8-8h-72z"
         opacity=".2"
         id="path59" />
      <rect
         transform="scale(1,-1)"
         x="5"
         y="-92"
         width="86"
         height="85"
         rx="7"
         ry="7"
         opacity=".3"
         id="rect61" />
    </g>
    <rect
       transform="scale(1,-1)"
       x="6"
       y="-91"
       width="84"
       height="84"
       rx="6"
       ry="6"
       fill="url(#linearGradient3721)"
       opacity=".45"
       id="rect65" />
  </g>
  <g
     id="g79">
    <rect
       x="6"
       y="64"
       width="84"
       height="26"
       rx="6"
       ry="6"
       color="#000000"
       fill="url(#linearGradient3870)"
       id="rect69" />
    <g
       id="g77">
      <path
         d="m6 82v2c0 3.324 2.676 6 6 6h72c3.324 0 6-2.676 6-6v-2c0 3.324-2.676 6-6 6h-72c-3.324 0-6-2.676-6-6z"
         color="#000000"
         opacity=".1"
         id="path71" />
      <path
         d="m6 83v1c0 3.324 2.676 6 6 6h72c3.324 0 6-2.676 6-6v-1c0 3.324-2.676 6-6 6h-72c-3.324 0-6-2.676-6-6z"
         color="#000000"
         opacity=".1"
         id="path73" />
      <path
         d="m6 80v1c0 3.324 2.676 6 6 6h72c3.324 0 6-2.676 6-6v-1c0 3.324-2.676 6-6 6h-72c-3.324 0-6-2.676-6-6z"
         opacity=".2"
         id="path75" />
    </g>
  </g>
  <g
     id="g87">
    <rect
       x="6"
       y="6"
       width="84"
       height="80"
       rx="6"
       ry="6"
       fill="url(#linearGradient3617)"
       id="rect81" />
    <path
       d="m12 86c-3.324 0-6-2.676-6-6v-68c0-3.324 2.676-6 6-6h72c3.324 0 6 2.676 6 6v68c0 3.324-2.676 6-6 6zm0-0.96875h72c2.8049 0 5.0312-2.2264 5.0312-5.0312v-68c0-2.8049-2.2264-5.0312-5.0312-5.0312h-72c-2.8049 0-5.0312 2.2264-5.0312 5.0312v68c0 2.8049 2.2264 5.0312 5.0312 5.0312z"
       fill="url(#linearGradient4390)"
       opacity=".3"
       id="path83" />
    <path
       d="m6 78v2c0 3.324 2.676 6 6 6h72c3.324 0 6-2.676 6-6v-2c0 3.324-2.676 6-6 6h-72c-3.324 0-6-2.676-6-6z"
       fill="url(#linearGradient4429)"
       opacity=".1"
       id="path85" />
  </g>
  <g
     id="g91">
    <rect
       x="15"
       y="15"
       width="66"
       height="62"
       rx="12"
       ry="12"
       clip-path="url(#clipPath4355)"
       fill="url(#linearGradient3613)"
       filter="url(#filter3794)"
       opacity=".1"
       stroke="#fff"
       stroke-linecap="round"
       stroke-width=".5"
       id="rect89" />
  </g>
  <defs
     id="defs101">
    <filter
       id="w">
      <feGaussianBlur
         stdDeviation="0.23199685"
         id="feGaussianBlur93" />
    </filter>
    <linearGradient
       id="a"
       gradientUnits="userSpaceOnUse"
       x1="8"
       y1="1"
       x2="8"
       y2="15">
      <stop
         stop-color="#fafafa"
         offset="0"
         id="stop96" />
      <stop
         stop-color="#ebebeb"
         offset="1"
         id="stop98" />
    </linearGradient>
  </defs>
  <g
     transform="translate(0,-2)"
     id="g122">
    <path
       style="opacity:0.15;fill:#000000"
       d="m 8.9921875,0.75 a 0.250025,0.250025 0 0 0 -0.052734,0.007813 l -7.99999998,2 A 0.250025,0.250025 0 0 0 0.75,3 v 10 a 0.250025,0.250025 0 0 0 0.18945312,0.242188 l 7.99999998,2 A 0.250025,0.250025 0 0 0 9.25,15 V 1 A 0.250025,0.250025 0 0 0 8.9921875,0.75 Z M 10,2.75 A 0.250025,0.250025 0 0 0 9.75,3 V 3.5 4 A 0.250025,0.250025 0 0 0 10,4.25 h 0.75 v 0.5 H 10 A 0.250025,0.250025 0 0 0 9.75,5 V 6 A 0.250025,0.250025 0 0 0 10,6.25 h 0.75 v 0.5 H 10 A 0.250025,0.250025 0 0 0 9.75,7 V 8 A 0.250025,0.250025 0 0 0 10,8.25 h 0.75 v 0.5 H 10 A 0.250025,0.250025 0 0 0 9.75,9 v 1 A 0.250025,0.250025 0 0 0 10,10.25 h 0.75 v 0.5 H 10 A 0.250025,0.250025 0 0 0 9.75,11 V 12.5 13 A 0.250025,0.250025 0 0 0 10,13.25 h 0.5 4 c 0.411176,0 0.75,-0.338824 0.75,-0.75 v -9 c 0,-0.4111757 -0.338824,-0.75 -0.75,-0.75 h -4 z m 2.25,1.5 h 1.5 v 0.5 h -1.5 z M 6.5957031,5.2597656 5.3632812,7.8671875 a 0.250025,0.250025 0 0 0 0.00195,0.2148437 l 0.7207031,1.5039063 c 0.1971963,0.4123879 0.3721936,0.7893755 0.4960937,1.0625005 0.016908,0.03727 0.024172,0.05465 0.039063,0.08789 -0.088423,-0.0047 -0.1676558,-0.0088 -0.2714844,-0.01563 h -0.00195 L 5.8691406,10.689453 5.5546875,9.90625 C 5.450735,9.6489564 5.3484001,9.40934 5.2675781,9.2265625 5.2271672,9.1351737 5.1927934,9.0572297 5.1640625,8.9980469 5.149697,8.9684554 5.1374348,8.9445298 5.125,8.921875 c -0.012435,-0.022655 -0.00647,-0.030334 -0.060547,-0.085937 -0.00107,-0.0011 -0.1314195,-0.07198 -0.1328125,-0.072266 -6.964e-4,-1.429e-4 -0.071491,-0.00592 -0.072266,-0.00586 -7.745e-4,5.82e-5 -0.038838,0.00693 -0.054687,0.011719 -0.0634,0.019143 -0.087939,0.043057 -0.1074219,0.060547 -0.038966,0.034979 -0.055149,0.059921 -0.074219,0.087891 -0.038139,0.055939 -0.074401,0.1218781 -0.1171875,0.2050781 -0.085573,0.1663999 -0.1883709,0.3957409 -0.2949219,0.65625 L 3.8945312,10.550781 3.59375,10.548828 a 0.250025,0.250025 0 0 0 -0.00195,0 c -0.1602333,-2.3e-4 -0.251008,-0.0068 -0.3164063,-0.01367 0.00955,-0.04195 0.016256,-0.09309 0.078125,-0.238281 C 3.4351946,10.105199 3.5641178,9.8375685 3.7382812,9.4765625 3.9099741,9.1206663 4.0661741,8.7865131 4.1796875,8.5332031 4.2364442,8.4065481 4.2832612,8.2997358 4.3164062,8.21875 c 0.016573,-0.040493 0.028461,-0.07346 0.039063,-0.1035156 0.0053,-0.015028 0.011061,-0.030381 0.015625,-0.046875 0.00456,-0.016494 0.012368,-0.023183 0.011719,-0.083984 C 4.3822847,7.9299806 4.3752074,7.921802 4.3710938,7.90625 4.3669801,7.890698 4.3623059,7.8780081 4.3574219,7.8632812 4.3476538,7.8338276 4.335733,7.800189 4.3203125,7.7597656 4.2894716,7.6789188 4.2461348,7.5723327 4.1933594,7.4453125 4.0878085,7.191272 3.9441411,6.8553923 3.7851562,6.4980469 3.6276422,6.1439861 3.4884833,5.818141 3.390625,5.5820312 3.3727362,5.5388696 3.3645187,5.5172852 3.3496094,5.4804688 3.437192,5.4695433 3.5226833,5.4583678 3.6308594,5.4472656 L 4.0078125,5.4082031 4.1230469,5.71875 c 0.1005559,0.2691232 0.2466041,0.6618192 0.3222656,0.8691406 0.039746,0.1089416 0.081543,0.2144876 0.1191406,0.3007813 0.018799,0.043147 0.035792,0.081729 0.052734,0.1152343 0.016942,0.033505 0.021457,0.053311 0.066406,0.1054688 4.795e-4,5.564e-4 0.058034,0.050435 0.058594,0.050781 5.6e-4,3.464e-4 0.081392,0.031111 0.082031,0.03125 6.393e-4,1.387e-4 0.077408,0.00593 0.078125,0.00586 7.174e-4,-6.66e-5 0.042135,-0.00809 0.058594,-0.013672 0.065835,-0.022343 0.087226,-0.046759 0.1054687,-0.064453 0.036486,-0.035389 0.05032,-0.059937 0.068359,-0.087891 C 5.1708439,6.9753431 5.2061635,6.9087314 5.2480469,6.8242188 5.3318136,6.6551934 5.4360325,6.4216895 5.5429688,6.15625 L 5.8730469,5.3359375 6.1171875,5.2929688 C 6.2697409,5.2663382 6.4654924,5.2599007 6.5957031,5.2597656 Z M 12.25,6.25 h 1.5 v 0.5 h -1.5 z m 0,2 h 1.5 v 0.5 h -1.5 z m 0,2 h 1.5 v 0.5 h -1.5 z"
       inkscape:original="m9 1-8 2v10l8 2v-14zm1 2v.5.5h1v1h-1v1h1v1h-1v1h1v1h-1v1h1v1h-1v1.5.5h.5 4c.277 0 .5-.223.5-.5v-9c0-.277-.223-.5-.5-.5h-4-.5zm2 1h2v1h-2v-1zm-5.2793 1.0039.26367.021484-1.3945 2.9492.7207 1.5039c.39559.82728.7057 1.5112.68945 1.5195-.01624.00829-.31766-.004164-.66797-.027344l-.63672-.042969-.37305-.92773c-.20608-.51007-.40315-.95491-.4375-.99023-.034357-.035328-.23465.353-.44336.86328l-.37891.92773-.4707-.001953c-.77657-.001113-.77444.011722-.078125-1.4316.34159-.70807.61969-1.3294.61914-1.3809-.0004998-.051513-.25966-.67529-.57617-1.3867-.3165-.71143-.56214-1.3052-.54688-1.3184.015255-.013186.28287-.049925.5957-.082031l.56836-.058594.18359.49023c.10082.26983.24612.66243.32227.87109.076131.20867.16268.40776.19336.44336.030689.035608.22741-.36132.4375-.88281l.38281-.94727.38086-.068359c.20995-.03665.50146-.05541.64648-.042969zm5.2793.99609h2v1h-2v-1zm0 2h2v1h-2v-1zm0 2h2v1h-2v-1z"
       transform="matrix(4,0,0,4,16,17)"
       inkscape:radius="0.25"
       sodipodi:type="inkscape:offset"
       id="rect825" />
    <g
       id="Bevel1">
      <path
         id="path105"
         fill="#000"
         opacity=".10"
         sodipodi:type="inkscape:offset"
         inkscape:radius="0.5"
         transform="translate(16,17) scale(4)"
         inkscape:original="m9 1-8 2v10l8 2v-14zm1 2v.5.5h1v1h-1v1h1v1h-1v1h1v1h-1v1h1v1h-1v1.5.5h.5 4c.277 0 .5-.223.5-.5v-9c0-.277-.223-.5-.5-.5h-4-.5zm2 1h2v1h-2v-1zm-5.2793 1.0039.26367.021484-1.3945 2.9492.7207 1.5039c.39559.82728.7057 1.5112.68945 1.5195-.01624.00829-.31766-.004164-.66797-.027344l-.63672-.042969-.37305-.92773c-.20608-.51007-.40315-.95491-.4375-.99023-.034357-.035328-.23465.353-.44336.86328l-.37891.92773-.4707-.001953c-.77657-.001113-.77444.011722-.078125-1.4316.34159-.70807.61969-1.3294.61914-1.3809-.0004998-.051513-.25966-.67529-.57617-1.3867-.3165-.71143-.56214-1.3052-.54688-1.3184.015255-.013186.28287-.049925.5957-.082031l.56836-.058594.18359.49023c.10082.26983.24612.66243.32227.87109.076131.20867.16268.40776.19336.44336.030689.035608.22741-.36132.4375-.88281l.38281-.94727.38086-.068359c.20995-.03665.50146-.05541.64648-.042969zm5.2793.99609h2v1h-2v-1zm0 2h2v1h-2v-1zm0 2h2v1h-2v-1z" />
    </g>
    <g
       id="Bevel2">
      <path
         id="path108"
         fill="#000"
         opacity=".05"
         sodipodi:type="inkscape:offset"
         inkscape:radius="0.75"
         transform="translate(16,17) scale(4)"
         inkscape:original="m9 1-8 2v10l8 2v-14zm1 2v.5.5h1v1h-1v1h1v1h-1v1h1v1h-1v1h1v1h-1v1.5.5h.5 4c.277 0 .5-.223.5-.5v-9c0-.277-.223-.5-.5-.5h-4-.5zm2 1h2v1h-2v-1zm-5.2793 1.0039.26367.021484-1.3945 2.9492.7207 1.5039c.39559.82728.7057 1.5112.68945 1.5195-.01624.00829-.31766-.004164-.66797-.027344l-.63672-.042969-.37305-.92773c-.20608-.51007-.40315-.95491-.4375-.99023-.034357-.035328-.23465.353-.44336.86328l-.37891.92773-.4707-.001953c-.77657-.001113-.77444.011722-.078125-1.4316.34159-.70807.61969-1.3294.61914-1.3809-.0004998-.051513-.25966-.67529-.57617-1.3867-.3165-.71143-.56214-1.3052-.54688-1.3184.015255-.013186.28287-.049925.5957-.082031l.56836-.058594.18359.49023c.10082.26983.24612.66243.32227.87109.076131.20867.16268.40776.19336.44336.030689.035608.22741-.36132.4375-.88281l.38281-.94727.38086-.068359c.20995-.03665.50146-.05541.64648-.042969zm5.2793.99609h2v1h-2v-1zm0 2h2v1h-2v-1zm0 2h2v1h-2v-1z" />
    </g>
    <path
       id="base"
       d="m9 1-8 2v10l8 2v-14zm1 2v.5.5h1v1h-1v1h1v1h-1v1h1v1h-1v1h1v1h-1v1.5.5h.5 4c.277 0 .5-.223.5-.5v-9c0-.277-.223-.5-.5-.5h-4-.5zm2 1h2v1h-2v-1zm-5.2793 1.0039.26367.021484-1.3945 2.9492.7207 1.5039c.39559.82728.7057 1.5112.68945 1.5195-.01624.00829-.31766-.004164-.66797-.027344l-.63672-.042969-.37305-.92773c-.20608-.51007-.40315-.95491-.4375-.99023-.034357-.035328-.23465.353-.44336.86328l-.37891.92773-.4707-.001953c-.77657-.001113-.77444.011722-.078125-1.4316.34159-.70807.61969-1.3294.61914-1.3809-.0004998-.051513-.25966-.67529-.57617-1.3867-.3165-.71143-.56214-1.3052-.54688-1.3184.015255-.013186.28287-.049925.5957-.082031l.56836-.058594.18359.49023c.10082.26983.24612.66243.32227.87109.076131.20867.16268.40776.19336.44336.030689.035608.22741-.36132.4375-.88281l.38281-.94727.38086-.068359c.20995-.03665.50146-.05541.64648-.042969zm5.2793.99609h2v1h-2v-1zm0 2h2v1h-2v-1zm0 2h2v1h-2v-1z"
       fill="url(#a)"
       transform="translate(16,16) scale(4)" />
    <path
       style="opacity:0.3;fill:#000000;stroke-width:4"
       d="M 56 30 L 56 31 L 60 31 L 60 30 L 56 30 z M 64 30 L 64 31 L 72 31 L 72 30 L 64 30 z M 42.882812 34.015625 C 42.302732 33.965861 41.136675 34.0409 40.296875 34.1875 L 38.773438 34.460938 L 37.242188 38.25 C 36.401827 40.33596 35.614944 41.923682 35.492188 41.78125 C 35.369467 41.63885 35.023274 40.842492 34.71875 40.007812 C 34.41415 39.173173 33.832968 37.602758 33.429688 36.523438 L 32.695312 34.5625 L 30.421875 34.796875 C 29.170555 34.925299 28.100082 35.07226 28.039062 35.125 C 28.017237 35.143879 28.164725 35.534455 28.375 36.0625 C 28.742476 35.993177 29.453122 35.896299 30.421875 35.796875 L 32.695312 35.5625 L 33.429688 37.523438 C 33.832968 38.602758 34.41415 40.173173 34.71875 41.007812 C 35.023274 41.842492 35.369467 42.63885 35.492188 42.78125 C 35.614944 42.923682 36.401827 41.33596 37.242188 39.25 L 38.773438 35.460938 L 40.296875 35.1875 C 41.136675 35.0409 42.302732 34.965861 42.882812 35.015625 L 43.482422 35.064453 L 43.9375 34.101562 L 42.882812 34.015625 z M 56 38 L 56 39 L 60 39 L 60 38 L 56 38 z M 64 38 L 64 39 L 72 39 L 72 38 L 64 38 z M 56 46 L 56 47 L 60 47 L 60 46 L 56 46 z M 64 46 L 64 47 L 72 47 L 72 46 L 64 46 z M 38.597656 46.394531 L 38.359375 46.898438 L 41.242188 52.914062 C 42.276593 55.077268 43.122692 56.909937 43.595703 57.988281 C 43.732029 57.989432 43.984254 58.000235 44 57.992188 C 44.065 57.958987 42.824548 55.223183 41.242188 51.914062 L 38.597656 46.394531 z M 32.361328 46.429688 C 32.013163 47.299396 31.120666 49.25912 30.054688 51.46875 C 28.398708 54.901261 27.733152 56.267868 28.111328 56.818359 C 28.356548 55.981595 29.009362 54.635499 30.054688 52.46875 C 31.421048 49.63647 32.53345 47.151313 32.53125 46.945312 C 32.530785 46.897448 32.463359 46.700292 32.361328 46.429688 z M 56 54 L 56 55 L 60 55 L 60 54 L 56 54 z M 64 54 L 64 55 L 72 55 L 72 54 L 64 54 z M 76 64 C 76 65.108 75.108 66 74 66 L 58 66 L 56 66 L 56 67 L 58 67 L 74 67 C 75.108 67 76 66.108 76 65 L 76 64 z M 20 66 L 20 67 L 52 75 L 52 74 L 20 66 z "
       transform="translate(0,2)"
       id="path112" />
    <path
       style="fill:#ffffff;stroke-width:4"
       d="M 52 18 L 20 26 L 20 27 L 52 19 L 52 18 z M 56 26 L 56 27 L 58 27 L 74 27 C 75.108 27 76 27.892 76 29 L 76 28 C 76 26.892 75.108 26 74 26 L 58 26 L 56 26 z M 56 34 L 56 35 L 60 35 L 60 34 L 56 34 z M 64 34 L 64 35 L 72 35 L 72 34 L 64 34 z M 43.482422 35.064453 L 38.359375 45.898438 L 38.597656 46.394531 L 43.9375 35.101562 L 43.482422 35.064453 z M 28.375 36.0625 C 28.267814 36.08272 28.052842 36.113091 28.039062 36.125 C 27.978022 36.1778 28.960562 38.552717 30.226562 41.398438 C 31.198508 43.583051 32.024128 45.535373 32.361328 46.429688 C 32.459437 46.184613 32.531734 45.9906 32.53125 45.945312 C 32.52925 45.739261 31.492603 43.244078 30.226562 40.398438 C 29.413238 38.570242 28.752803 37.011244 28.375 36.0625 z M 56 42 L 56 43 L 60 43 L 60 42 L 56 42 z M 64 42 L 64 43 L 72 43 L 72 42 L 64 42 z M 56 50 L 56 51 L 60 51 L 60 50 L 56 50 z M 64 50 L 64 51 L 72 51 L 72 50 L 64 50 z M 35.539062 50.039062 C 35.401635 49.897751 34.600465 51.451067 33.765625 53.492188 L 32.25 57.203125 L 30.367188 57.195312 C 29.10775 57.193529 28.369222 57.193762 28.111328 56.818359 C 27.703162 58.211146 28.426714 58.192564 30.367188 58.195312 L 32.25 58.203125 L 33.765625 54.492188 C 34.600465 52.451067 35.401635 50.897751 35.539062 51.039062 C 35.676462 51.180343 36.464742 52.95972 37.289062 55 L 38.78125 58.710938 L 41.328125 58.882812 C 42.729365 58.975372 43.93504 59.025388 44 58.992188 C 44.022509 58.980691 43.846271 58.559512 43.595703 57.988281 C 43.169603 57.984686 42.389719 57.952937 41.328125 57.882812 L 38.78125 57.710938 L 37.289062 54 C 36.464742 51.95972 35.676462 50.180343 35.539062 50.039062 z M 56 58 L 56 59 L 60 59 L 60 58 L 56 58 z M 64 58 L 64 59 L 72 59 L 72 58 L 64 58 z "
       transform="translate(0,2)"
       id="path117" />
  </g>
</svg>
