<?xml version="1.0" encoding="UTF-8" standalone="no"?>
<svg xmlns:dc="http://purl.org/dc/elements/1.1/" xmlns:cc="http://creativecommons.org/ns#" xmlns:rdf="http://www.w3.org/1999/02/22-rdf-syntax-ns#" xmlns:svg="http://www.w3.org/2000/svg" xmlns="http://www.w3.org/2000/svg" xmlns:xlink="http://www.w3.org/1999/xlink" xmlns:sodipodi="http://sodipodi.sourceforge.net/DTD/sodipodi-0.dtd" xmlns:inkscape="http://www.inkscape.org/namespaces/inkscape" width="96" height="96" version="1.1" id="svg76" sodipodi:docname="ms-word.svg" inkscape:version="0.92.2 5c3e80d, 2017-08-06">
  <metadata id="metadata80">
    <rdf:RDF>
      <cc:Work rdf:about="">
        <dc:format>image/svg+xml</dc:format>
        <dc:type rdf:resource="http://purl.org/dc/dcmitype/StillImage" />
      </cc:Work>
    </rdf:RDF>
  </metadata>
  <sodipodi:namedview pagecolor="#ffffff" bordercolor="#666666" borderopacity="1" objecttolerance="10" gridtolerance="10" guidetolerance="10" inkscape:pageopacity="0" inkscape:pageshadow="2" inkscape:window-width="640" inkscape:window-height="480" id="namedview78" showgrid="false" inkscape:zoom="2.4583333" inkscape:cx="48" inkscape:cy="48" inkscape:current-layer="svg76" />
  <defs id="defs2410">
    <linearGradient id="linearGradient4384">
      <stop id="stop4386" stop-color="#fff" offset="0" />
      <stop id="stop4388" stop-color="#fff" stop-opacity="0" offset="1" />
    </linearGradient>
    <filter id="filter3794" x="-.192" y="-.192" width="1.384" height="1.384">
      <feGaussianBlur id="feGaussianBlur3796" stdDeviation="5.28" />
    </filter>
    <linearGradient id="linearGradient3613" x1="48" x2="48" y1="20.221" y2="138.66" gradientUnits="userSpaceOnUse">
      <stop id="stop3739" stop-color="#fff" offset="0" />
      <stop id="stop3741" stop-color="#fff" stop-opacity="0" offset="1" />
    </linearGradient>
    <linearGradient id="buttonGradient" x1="48" x2="48" y1="90" y2="5.9877" gradientUnits="userSpaceOnUse">
      <stop id="stop3702" stop-color="#27429c" offset="0" />
      <stop id="stop3704" stop-color="#5072e1" offset="1" />
    </linearGradient>
    <linearGradient id="ButtonShadow-0" x1="45.448" x2="45.448" y1="92.54" y2="7.0165" gradientTransform="matrix(1.0059 0 0 .99417 100 0)" gradientUnits="userSpaceOnUse">
      <stop id="stop3750-8" offset="0" />
      <stop id="stop3752-5" stop-opacity=".58824" offset="1" />
    </linearGradient>
    <linearGradient id="linearGradient3780" x1="32.251" x2="32.251" y1="6.1317" y2="90.239" gradientTransform="matrix(1.0238 0 0 1.0119 -1.1429 -98.071)" gradientUnits="userSpaceOnUse" xlink:href="#ButtonShadow-0" />
    <linearGradient id="linearGradient3721" x1="32.251" x2="32.251" y1="6.1317" y2="90.239" gradientTransform="translate(0,-97)" gradientUnits="userSpaceOnUse" xlink:href="#ButtonShadow-0" />
    <clipPath id="clipPath4355">
      <rect id="rect4357" x="6" y="6" width="84" height="80" rx="6" ry="6" fill="#fff" />
    </clipPath>
    <linearGradient id="linearGradient4390" x1="48" x2="48" y1="88" y2="-40" gradientTransform="matrix(1,0,0,-1,0,92)" gradientUnits="userSpaceOnUse" xlink:href="#linearGradient4384" />
    <linearGradient id="linearGradient4429" x1="48" x2="112.12" y1="82" y2="82.455" gradientUnits="userSpaceOnUse" spreadMethod="reflect" xlink:href="#linearGradient4384" />
    <linearGradient id="linearGradient3228" x1="90" x2="48" y1="88" y2="88" gradientUnits="userSpaceOnUse" spreadMethod="reflect">
      <stop id="stop3894" stop-opacity=".58824" offset="0" />
      <stop id="stop3896" stop-opacity=".47059" offset=".1178" />
      <stop id="stop3898" stop-opacity=".39216" offset=".2381" />
      <stop id="stop3900" stop-opacity=".31373" offset="1" />
    </linearGradient>
  </defs>
  <g id="layer3">
    <g id="g32" fill="url(#linearGradient3780)">
      <path id="path3786" transform="scale(1,-1)" d="m12-95.021c-5.5111 0-10.022 4.51-10.022 10.021v71c0 5.5111 4.5104 10.021 10.021 10.021h72c5.5111 0 10.021-4.5104 10.021-10.021v-71c0-5.5111-4.5104-10.021-10.021-10.021h-72z" opacity=".08" />
      <path id="path3778" transform="scale(1,-1)" d="m12-94.035c-4.9716 0-9.0352 4.0635-9.0352 9.0352v71c0 4.9716 4.0635 9.0352 9.0352 9.0352h72c4.9716 0 9.0352-4.0635 9.0352-9.0352v-71c0-4.9716-4.0635-9.0352-9.0352-9.0352h-72z" opacity=".1" />
      <path id="path3770" transform="scale(1,-1)" d="m12-92.99c-4.4091 0-7.9902 3.5811-7.9902 7.9902v71c0 4.4091 3.5811 7.9902 7.9902 7.9902h72c4.4091 0 7.9902-3.5811 7.9902-7.9902v-71c0-4.4091-3.5811-7.9902-7.9902-7.9902h-72z" opacity=".2" />
      <rect id="rect3723" transform="scale(1,-1)" x="5" y="-92" width="86" height="85" rx="7" ry="7" opacity=".3" />
    </g>
    <rect id="rect3716" transform="scale(1,-1)" x="6" y="-91" width="84" height="84" rx="6" ry="6" fill="url(#linearGradient3721)" opacity=".45" />
  </g>
  <g id="layer1">
    <rect id="button" x="6" y="6" width="84" height="84" rx="6" ry="6" fill="url(#buttonGradient)" />
    <path id="rect4377" d="m12 86c-3.324 0-6-2.676-6-6v-68c0-3.324 2.676-6 6-6h72c3.324 0 6 2.676 6 6v68c0 3.324-2.676 6-6 6zm0-0.96875h72c2.8049 0 5.0312-2.2264 5.0312-5.0312v-68c0-2.8049-2.226-5.0312-5.031-5.0312h-72c-2.8049 0-5.0312 2.2263-5.0312 5.0312v68c0 2.8049 2.2264 5.0312 5.0312 5.0312z" fill="url(#linearGradient4390)" opacity=".3" />
    <path id="rect4414" d="m6 78v2c0 3.324 2.676 6 6 6h72c3.324 0 6-2.676 6-6v-2c0 3.324-2.676 6-6 6h-72c-3.324 0-6-2.676-6-6z" fill="url(#linearGradient4429)" opacity=".1" />
  </g>
  <g id="layer4">
    <path id="path3888" d="m6 80v4c0 3.324 2.676 6 6 6h72c3.324 0 6-2.676 6-6v-4c0 3.324-2.676 6-6 6h-72c-3.324 0-6-2.676-6-6z" fill="url(#linearGradient3228)" />
    <path id="rect4345" d="m6 82v2c0 3.324 2.676 6 6 6h72c3.324 0 6-2.676 6-6v-2c0 3.324-2.676 6-6 6h-72c-3.324 0-6-2.676-6-6z" color="#000000" opacity=".1" />
    <path id="rect4336" d="m6 83v1c0 3.324 2.676 6 6 6h72c3.324 0 6-2.676 6-6v-1c0 3.324-2.676 6-6 6h-72c-3.324 0-6-2.676-6-6z" color="#000000" opacity=".15" />
  </g>
  <g id="layer5">
    <rect id="rect3171" x="15" y="15" width="66" height="62" rx="12" ry="12" clip-path="url(#clipPath4355)" fill="url(#linearGradient3613)" filter="url(#filter3794)" opacity=".1" stroke="#fff" stroke-linecap="round" stroke-width=".5" />
  </g>
  <defs id="defs53">
    <filter id="w">
      <feGaussianBlur stdDeviation="0.23199685" id="feGaussianBlur45" />
    </filter>
    <linearGradient id="a" gradientUnits="userSpaceOnUse" x1="8" y1="1" x2="8" y2="15">
      <stop stop-color="#fafafa" offset="0" id="stop48" />
      <stop stop-color="#ebebeb" offset="1" id="stop50" />
    </linearGradient>
  </defs>
  <g transform="translate(0,-2)" id="g74">
    <path style="opacity:0.15;fill:#000000" d="m 8.9921875,0.75 a 0.250025,0.250025 0 0 0 -0.052734,0.007813 l -7.99999998,2 A 0.250025,0.250025 0 0 0 0.75,3 v 10 a 0.250025,0.250025 0 0 0 0.18945312,0.242188 l 7.99999998,2 A 0.250025,0.250025 0 0 0 9.25,15 V 1 A 0.250025,0.250025 0 0 0 8.9921875,0.75 Z M 10,2.75 A 0.250025,0.250025 0 0 0 9.75,3 V 3.5 4 A 0.250025,0.250025 0 0 0 10,4.25 h 3.75 v 0.5 H 10 A 0.250025,0.250025 0 0 0 9.75,5 V 6 A 0.250025,0.250025 0 0 0 10,6.25 h 3.75 v 0.5 H 10 A 0.250025,0.250025 0 0 0 9.75,7 V 8 A 0.250025,0.250025 0 0 0 10,8.25 h 3.75 v 0.5 H 10 A 0.250025,0.250025 0 0 0 9.75,9 v 1 A 0.250025,0.250025 0 0 0 10,10.25 h 3.75 v 0.5 H 10 A 0.250025,0.250025 0 0 0 9.75,11 V 12.5 13 A 0.250025,0.250025 0 0 0 10,13.25 h 0.5 4 c 0.411176,0 0.75,-0.338824 0.75,-0.75 v -9 c 0,-0.4111757 -0.338824,-0.75 -0.75,-0.75 h -4 z m -2.5019531,2.5 c 0.1541125,0 0.1617559,0.00194 0.21875,0.00586 -0.08011,0.3614791 -0.3474393,1.6397289 -0.6191407,2.9511718 -0.1413386,0.6822111 -0.278667,1.3499145 -0.3808593,1.8496098 -0.051096,0.249847 -0.093432,0.457691 -0.1230469,0.605468 -0.00697,0.03479 -0.0101,0.05413 -0.015625,0.08203 -0.042999,0.0028 -0.080017,0.0056 -0.1386719,0.0059 -0.1843164,7.14e-4 -0.4209631,-0.01371 -0.5957031,-0.04102 0.00282,0.0011 -0.011801,-0.01238 -0.039063,-0.103515 C 5.741039,10.392701 5.6491795,9.9217256 5.4746094,9.0117188 5.3759132,8.4972385 5.2792691,8.0370154 5.203125,7.7070312 5.1650529,7.5420392 5.1328308,7.4113949 5.1054688,7.3164062 5.0917877,7.2689119 5.0802399,7.2317361 5.0644531,7.1933594 5.0565597,7.174171 5.052204,7.1580334 5.0214844,7.1171875 5.0138045,7.106976 5.0048139,7.0931283 4.9882812,7.078125 c -0.00827,-0.0075 -0.030913,-0.023215 -0.03125,-0.023437 -3.367e-4,-2.224e-4 -0.04851,-0.025269 -0.048828,-0.025391 -3.184e-4,-1.221e-4 -0.073919,-0.015604 -0.074219,-0.015625 -3e-4,-2.12e-5 -0.085656,0.00773 -0.085937,0.00781 -2.814e-4,8.03e-5 -0.075909,0.036927 -0.076172,0.037109 -2.626e-4,1.824e-4 -0.046631,0.042683 -0.046875,0.042969 -0.04019,0.046979 -0.039993,0.061858 -0.046875,0.078125 -0.00688,0.016267 -0.01291,0.028809 -0.017578,0.042969 -0.00934,0.02832 -0.017582,0.058835 -0.027344,0.095703 C 4.5136787,7.3920953 4.4905516,7.488123 4.4648438,7.6035156 4.4134281,7.8343008 4.3509849,8.1403268 4.2890625,8.46875 4.16646,9.1190111 4.0089634,9.9151287 3.9414062,10.226562 l -0.078125,0.357422 -0.28125,-0.0332 c -0.1285067,-0.0152 -0.2515703,-0.03788 -0.3378906,-0.06055 -0.022527,-0.0059 -0.032615,-0.01035 -0.048828,-0.01563 -0.00789,-0.02101 -0.00338,-0.01065 -0.011719,-0.04492 -0.017014,-0.06993 -0.03355,-0.159821 -0.046875,-0.248047 C 3.1038556,9.9640262 2.9189121,8.9493217 2.71875,7.8769531 2.5188192,6.8057702 2.3284732,5.7772501 2.3007812,5.6152344 a 0.250025,0.250025 0 0 0 0,-0.00195 l -0.00391,-0.025391 h 0.1972656 c 0.2149301,0 0.282738,0.014642 0.28125,0.00586 0.00415,0.019787 0.00562,0.023959 0.011719,0.060547 0.022878,0.1371626 0.1467964,0.9688286 0.2714844,1.8183593 0.06279,0.4278221 0.127315,0.8078021 0.1796874,1.0820313 0.026186,0.1371146 0.049448,0.2470823 0.070313,0.328125 0.010432,0.040521 0.017697,0.07104 0.033203,0.109375 0.00775,0.019168 0.00972,0.03937 0.048828,0.085937 0.00978,0.011642 0.044298,0.040549 0.044922,0.041016 6.238e-4,4.667e-4 0.093171,0.042835 0.09375,0.042969 5.787e-4,1.338e-4 0.1479046,-0.00956 0.1484375,-0.00977 5.328e-4,-2.03e-4 0.09717,-0.067816 0.097656,-0.068359 4.863e-4,-5.438e-4 0.023377,-0.029235 0.029297,-0.039063 0.00592,-0.00983 0.010557,-0.016982 0.013672,-0.023437 0.00623,-0.012911 0.010402,-0.022556 0.013672,-0.03125 0.00654,-0.017388 0.010478,-0.031603 0.015625,-0.048828 0.010294,-0.034451 0.020461,-0.07595 0.033203,-0.1269531 C 3.9063434,8.7124469 3.9395962,8.5725833 3.9765625,8.4042969 4.0504951,8.0677241 4.1444752,7.6158216 4.2402344,7.125 4.3355153,6.6366092 4.4251551,6.1843797 4.4941406,5.8515625 4.5286334,5.6851539 4.5586632,5.5488638 4.5800781,5.453125 c 0.00151,-0.00675 0.00247,-0.00928 0.00391,-0.015625 0.08699,-0.00969 0.2128399,-0.017578 0.3457031,-0.017578 H 5.2363281 L 5.5527344,7.140625 c 0.0971,0.5306376 0.188536,1.0165698 0.2578125,1.3730469 0.034638,0.1782385 0.064189,0.3238798 0.085937,0.4277343 0.010874,0.051927 0.019873,0.093312 0.027344,0.125 0.00374,0.015844 0.00579,0.028891 0.00977,0.042969 0.00199,0.00704 0.0037,0.013913 0.00781,0.025391 0.00205,0.00574 0.00444,0.011999 0.00977,0.023437 0.00266,0.00572 0.01353,0.023198 0.013672,0.023437 1.414e-4,2.396e-4 0.029174,0.040881 0.029297,0.041016 0.015099,0.016519 0.037175,0.036616 0.070312,0.054688 0.016569,0.00904 0.057839,0.023239 0.058594,0.023437 7.548e-4,1.983e-4 0.069545,0.00783 0.070312,0.00781 7.678e-4,-1.77e-5 0.071483,-0.00952 0.072266,-0.00977 7.825e-4,-2.422e-4 0.03884,-0.01596 0.054687,-0.025391 0.031695,-0.01886 0.051853,-0.039804 0.066406,-0.056641 0.058213,-0.067348 0.059891,-0.098131 0.072266,-0.1367188 C 6.4837345,9.0029022 6.5036763,8.9068305 6.5332031,8.75 6.5922569,8.4363389 6.6797793,7.8934025 6.8261719,6.9707031 6.9024032,6.4902078 6.9793162,6.044204 7.0390625,5.7128906 7.0689357,5.5472339 7.0934603,5.41051 7.1132812,5.3144531 c 0.00329,-0.015949 0.00488,-0.023514 0.00781,-0.037109 0.00972,-0.00181 0.012371,-0.00221 0.023437,-0.00391 C 7.2338029,5.2597359 7.3634121,5.25 7.4980469,5.25 Z" inkscape:original="m9 1-8 2v10l8 2v-14zm1 2v0.5 0.5h4v1h-4v1h4v1h-4v1h4v1h-4v1h4v1h-4v1.5 0.5h0.5 4c0.277 0 0.5-0.223 0.5-0.5v-9c0-0.277-0.223-0.5-0.5-0.5h-4-0.5zm-2.502 2c0.50927 0 0.52968 0.0088456 0.48828 0.19141-0.12529 0.55258-1.1928 5.7057-1.1934 5.7598-5.344e-4 0.06408-0.60491 0.066376-0.99609 0.003906-0.20731-0.033112-0.21916-0.076175-0.56836-1.8965-0.19646-1.0241-0.38286-1.8314-0.41406-1.7949-0.031205 0.036477-0.15632 0.59974-0.2793 1.252-0.12297 0.65221-0.28052 1.4452-0.34961 1.7637l-0.12695 0.58008-0.50586-0.060547c-0.27838-0.032933-0.52944-0.099074-0.55859-0.14648-0.029168-0.047407-0.076536-0.24202-0.10547-0.43359-0.02893-0.19157-0.21602-1.2254-0.41602-2.2969-0.19999-1.0715-0.38811-2.0909-0.41797-2.2656l-0.054688-0.31836h0.49414c0.49281 0 0.49324 6.539e-4 0.53906 0.27539 0.025254 0.15141 0.14867 0.97221 0.27344 1.8223 0.12476 0.85006 0.25208 1.5172 0.2832 1.4824 0.031124-0.0348 0.21343-0.86348 0.4043-1.8418 0.19086-0.97831 0.36237-1.8088 0.38281-1.8438 0.020446-0.03494 0.2693-0.0625 0.55273-0.0625h0.51562l0.35352 1.9258c0.19393 1.0598 0.36518 1.9418 0.38086 1.959 0.046439 0.050806 0.10773-0.27839 0.40039-2.123 0.15294-0.964 0.30245-1.7925 0.33203-1.8418 0.029577-0.049245 0.29353-0.089844 0.58594-0.089844z" transform="matrix(4,0,0,4,16,17)" inkscape:radius="0.25" sodipodi:type="inkscape:offset" id="rect825" />
    <g id="Bevel1">
      <path id="path57" fill="#000" opacity=".10" sodipodi:type="inkscape:offset" inkscape:radius="0.5" transform="translate(16,17) scale(4)" inkscape:original="m9 1-8 2v10l8 2v-14zm1 2v0.5 0.5h4v1h-4v1h4v1h-4v1h4v1h-4v1h4v1h-4v1.5 0.5h0.5 4c0.277 0 0.5-0.223 0.5-0.5v-9c0-0.277-0.223-0.5-0.5-0.5h-4-0.5zm-2.502 2c0.50927 0 0.52968 0.0088456 0.48828 0.19141-0.12529 0.55258-1.1928 5.7057-1.1934 5.7598-5.344e-4 0.06408-0.60491 0.066376-0.99609 0.003906-0.20731-0.033112-0.21916-0.076175-0.56836-1.8965-0.19646-1.0241-0.38286-1.8314-0.41406-1.7949-0.031205 0.036477-0.15632 0.59974-0.2793 1.252-0.12297 0.65221-0.28052 1.4452-0.34961 1.7637l-0.12695 0.58008-0.50586-0.060547c-0.27838-0.032933-0.52944-0.099074-0.55859-0.14648-0.029168-0.047407-0.076536-0.24202-0.10547-0.43359-0.02893-0.19157-0.21602-1.2254-0.41602-2.2969-0.19999-1.0715-0.38811-2.0909-0.41797-2.2656l-0.054688-0.31836h0.49414c0.49281 0 0.49324 6.539e-4 0.53906 0.27539 0.025254 0.15141 0.14867 0.97221 0.27344 1.8223 0.12476 0.85006 0.25208 1.5172 0.2832 1.4824 0.031124-0.0348 0.21343-0.86348 0.4043-1.8418 0.19086-0.97831 0.36237-1.8088 0.38281-1.8438 0.020446-0.03494 0.2693-0.0625 0.55273-0.0625h0.51562l0.35352 1.9258c0.19393 1.0598 0.36518 1.9418 0.38086 1.959 0.046439 0.050806 0.10773-0.27839 0.40039-2.123 0.15294-0.964 0.30245-1.7925 0.33203-1.8418 0.029577-0.049245 0.29353-0.089844 0.58594-0.089844z" />
    </g>
    <g id="Bevel2">
      <path id="path60" fill="#000" opacity=".05" sodipodi:type="inkscape:offset" inkscape:radius="0.75" transform="translate(16,17) scale(4)" inkscape:original="m9 1-8 2v10l8 2v-14zm1 2v0.5 0.5h4v1h-4v1h4v1h-4v1h4v1h-4v1h4v1h-4v1.5 0.5h0.5 4c0.277 0 0.5-0.223 0.5-0.5v-9c0-0.277-0.223-0.5-0.5-0.5h-4-0.5zm-2.502 2c0.50927 0 0.52968 0.0088456 0.48828 0.19141-0.12529 0.55258-1.1928 5.7057-1.1934 5.7598-5.344e-4 0.06408-0.60491 0.066376-0.99609 0.003906-0.20731-0.033112-0.21916-0.076175-0.56836-1.8965-0.19646-1.0241-0.38286-1.8314-0.41406-1.7949-0.031205 0.036477-0.15632 0.59974-0.2793 1.252-0.12297 0.65221-0.28052 1.4452-0.34961 1.7637l-0.12695 0.58008-0.50586-0.060547c-0.27838-0.032933-0.52944-0.099074-0.55859-0.14648-0.029168-0.047407-0.076536-0.24202-0.10547-0.43359-0.02893-0.19157-0.21602-1.2254-0.41602-2.2969-0.19999-1.0715-0.38811-2.0909-0.41797-2.2656l-0.054688-0.31836h0.49414c0.49281 0 0.49324 6.539e-4 0.53906 0.27539 0.025254 0.15141 0.14867 0.97221 0.27344 1.8223 0.12476 0.85006 0.25208 1.5172 0.2832 1.4824 0.031124-0.0348 0.21343-0.86348 0.4043-1.8418 0.19086-0.97831 0.36237-1.8088 0.38281-1.8438 0.020446-0.03494 0.2693-0.0625 0.55273-0.0625h0.51562l0.35352 1.9258c0.19393 1.0598 0.36518 1.9418 0.38086 1.959 0.046439 0.050806 0.10773-0.27839 0.40039-2.123 0.15294-0.964 0.30245-1.7925 0.33203-1.8418 0.029577-0.049245 0.29353-0.089844 0.58594-0.089844z" />
    </g>
    <path id="base" d="m9 1-8 2v10l8 2v-14zm1 2v0.5 0.5h4v1h-4v1h4v1h-4v1h4v1h-4v1h4v1h-4v1.5 0.5h0.5 4c0.277 0 0.5-0.223 0.5-0.5v-9c0-0.277-0.223-0.5-0.5-0.5h-4-0.5zm-2.502 2c0.50927 0 0.52968 0.0088456 0.48828 0.19141-0.12529 0.55258-1.1928 5.7057-1.1934 5.7598-5.344e-4 0.06408-0.60491 0.066376-0.99609 0.003906-0.20731-0.033112-0.21916-0.076175-0.56836-1.8965-0.19646-1.0241-0.38286-1.8314-0.41406-1.7949-0.031205 0.036477-0.15632 0.59974-0.2793 1.252-0.12297 0.65221-0.28052 1.4452-0.34961 1.7637l-0.12695 0.58008-0.50586-0.060547c-0.27838-0.032933-0.52944-0.099074-0.55859-0.14648-0.029168-0.047407-0.076536-0.24202-0.10547-0.43359-0.02893-0.19157-0.21602-1.2254-0.41602-2.2969-0.19999-1.0715-0.38811-2.0909-0.41797-2.2656l-0.054688-0.31836h0.49414c0.49281 0 0.49324 6.539e-4 0.53906 0.27539 0.025254 0.15141 0.14867 0.97221 0.27344 1.8223 0.12476 0.85006 0.25208 1.5172 0.2832 1.4824 0.031124-0.0348 0.21343-0.86348 0.4043-1.8418 0.19086-0.97831 0.36237-1.8088 0.38281-1.8438 0.020446-0.03494 0.2693-0.0625 0.55273-0.0625h0.51562l0.35352 1.9258c0.19393 1.0598 0.36518 1.9418 0.38086 1.959 0.046439 0.050806 0.10773-0.27839 0.40039-2.123 0.15294-0.964 0.30245-1.7925 0.33203-1.8418 0.029577-0.049245 0.29353-0.089844 0.58594-0.089844z" fill="url(#a)" transform="translate(16,16) scale(4)" />
    <path style="opacity:0.3;fill:#000000;stroke-width:4" d="M 56 30 L 56 31 L 72 31 L 72 30 L 56 30 z M 45.992188 34 C 44.822548 34 43.766745 34.162395 43.648438 34.359375 C 43.530118 34.556575 42.932072 37.870562 42.320312 41.726562 C 41.149673 49.105003 40.904506 50.421974 40.71875 50.21875 C 40.65603 50.14995 39.971032 46.622012 39.195312 42.382812 L 37.78125 34.679688 L 35.71875 34.679688 C 34.58503 34.679688 33.589593 34.789927 33.507812 34.929688 C 33.426053 35.069687 32.740003 38.391447 31.976562 42.304688 C 31.213082 46.217968 30.483871 49.532675 30.359375 49.671875 C 30.234895 49.811075 29.725603 47.142428 29.226562 43.742188 C 28.727482 40.341827 28.233829 37.058765 28.132812 36.453125 C 27.949533 35.354165 27.947803 35.351562 25.976562 35.351562 L 24 35.351562 L 24.171875 36.351562 L 25.976562 36.351562 C 27.947803 36.351562 27.949533 36.354165 28.132812 37.453125 C 28.233829 38.058765 28.727482 41.341827 29.226562 44.742188 C 29.725603 48.142428 30.234895 50.811075 30.359375 50.671875 C 30.483871 50.532675 31.213082 47.217968 31.976562 43.304688 C 32.740003 39.391447 33.426053 36.069687 33.507812 35.929688 C 33.589593 35.789927 34.58503 35.679688 35.71875 35.679688 L 37.78125 35.679688 L 39.195312 43.382812 C 39.971032 47.622012 40.65603 51.14995 40.71875 51.21875 C 40.904506 51.421974 41.149673 50.105003 42.320312 42.726562 C 42.932072 38.870562 43.530118 35.556575 43.648438 35.359375 C 43.766745 35.162395 44.822548 35 45.992188 35 C 47.132791 35 47.648923 35.016341 47.863281 35.154297 C 47.873083 35.110187 47.937371 34.800648 47.945312 34.765625 C 48.110912 34.035385 48.029268 34 45.992188 34 z M 56 38 L 56 39 L 72 39 L 72 38 L 56 38 z M 56 46 L 56 47 L 72 47 L 72 46 L 56 46 z M 56 54 L 56 55 L 72 55 L 72 54 L 56 54 z M 76 64 C 76 65.108 75.108 66 74 66 L 58 66 L 56 66 L 56 67 L 58 67 L 74 67 C 75.108 67 76 66.108 76 65 L 76 64 z M 20 66 L 20 67 L 52 75 L 52 74 L 20 66 z " transform="translate(0,2)" id="path64" />
    <path style="fill:#ffffff;stroke-width:4" d="M 52 18 L 20 26 L 20 27 L 52 19 L 52 18 z M 56 26 L 56 27 L 58 27 L 74 27 C 75.108 27 76 27.892 76 29 L 76 28 C 76 26.892 75.108 26 74 26 L 58 26 L 56 26 z M 56 34 L 56 35 L 72 35 L 72 34 L 56 34 z M 47.863281 35.154297 C 47.254503 37.893942 43.174237 57.591716 43.171875 57.804688 C 43.169775 58.061008 40.75222 58.070232 39.1875 57.820312 C 38.35826 57.687872 38.310862 57.515655 36.914062 50.234375 C 36.128222 46.137975 35.382612 42.908687 35.257812 43.054688 C 35.132993 43.200595 34.632545 45.45346 34.140625 48.0625 C 33.648745 50.67134 33.018548 53.843187 32.742188 55.117188 L 32.234375 57.4375 L 30.210938 57.195312 C 29.097417 57.063617 28.093163 56.798999 27.976562 56.609375 C 27.85989 56.419747 27.670423 55.64128 27.554688 54.875 C 27.438968 54.10872 26.690625 49.9735 25.890625 45.6875 C 25.090665 41.4015 24.33819 37.3238 24.21875 36.625 L 24.171875 36.351562 L 24 36.351562 L 24.21875 37.625 C 24.33819 38.3238 25.090665 42.4015 25.890625 46.6875 C 26.690625 50.9735 27.438968 55.10872 27.554688 55.875 C 27.670423 56.64128 27.85989 57.419747 27.976562 57.609375 C 28.093163 57.798999 29.097417 58.063617 30.210938 58.195312 L 32.234375 58.4375 L 32.742188 56.117188 C 33.018548 54.843187 33.648745 51.67134 34.140625 49.0625 C 34.632545 46.45346 35.132993 44.200595 35.257812 44.054688 C 35.382612 43.908687 36.128222 47.137975 36.914062 51.234375 C 38.310862 58.515655 38.35826 58.687872 39.1875 58.820312 C 40.75222 59.070232 43.169775 59.061008 43.171875 58.804688 C 43.174275 58.588288 47.444153 37.975945 47.945312 35.765625 C 48.01819 35.444262 48.03176 35.262725 47.863281 35.154297 z M 56 42 L 56 43 L 72 43 L 72 42 L 56 42 z M 56 50 L 56 51 L 72 51 L 72 50 L 56 50 z M 56 58 L 56 59 L 72 59 L 72 58 L 56 58 z " transform="translate(0,2)" id="path69" />
  </g>
</svg>
