<?xml version="1.0" encoding="UTF-8" standalone="no"?>
<svg
   xmlns:dc="http://purl.org/dc/elements/1.1/"
   xmlns:cc="http://creativecommons.org/ns#"
   xmlns:rdf="http://www.w3.org/1999/02/22-rdf-syntax-ns#"
   xmlns:svg="http://www.w3.org/2000/svg"
   xmlns="http://www.w3.org/2000/svg"
   xmlns:xlink="http://www.w3.org/1999/xlink"
   xmlns:sodipodi="http://sodipodi.sourceforge.net/DTD/sodipodi-0.dtd"
   xmlns:inkscape="http://www.inkscape.org/namespaces/inkscape"
   width="96"
   height="96"
   version="1.1"
   id="svg88"
   sodipodi:docname="nexuiz.svg"
   inkscape:version="0.92.2 5c3e80d, 2017-08-06">
  <metadata
     id="metadata92">
    <rdf:RDF>
      <cc:Work
         rdf:about="">
        <dc:format>image/svg+xml</dc:format>
        <dc:type
           rdf:resource="http://purl.org/dc/dcmitype/StillImage" />
      </cc:Work>
    </rdf:RDF>
  </metadata>
  <sodipodi:namedview
     pagecolor="#ffffff"
     bordercolor="#666666"
     borderopacity="1"
     objecttolerance="10"
     gridtolerance="10"
     guidetolerance="10"
     inkscape:pageopacity="0"
     inkscape:pageshadow="2"
     inkscape:window-width="640"
     inkscape:window-height="480"
     id="namedview90"
     showgrid="false"
     inkscape:zoom="2.4583333"
     inkscape:cx="48"
     inkscape:cy="48"
     inkscape:window-x="0"
     inkscape:window-y="25"
     inkscape:window-maximized="0"
     inkscape:current-layer="svg88" />
  <defs
     id="defs2410">
    <linearGradient
       id="linearGradient4384">
      <stop
         id="stop4386"
         stop-color="#fff"
         offset="0" />
      <stop
         id="stop4388"
         stop-color="#fff"
         stop-opacity="0"
         offset="1" />
    </linearGradient>
    <filter
       id="filter3794"
       x="-.192"
       y="-.192"
       width="1.384"
       height="1.384">
      <feGaussianBlur
         id="feGaussianBlur3796"
         stdDeviation="5.28" />
    </filter>
    <linearGradient
       id="linearGradient3613"
       x1="48"
       x2="48"
       y1="20.221"
       y2="138.66"
       gradientUnits="userSpaceOnUse">
      <stop
         id="stop3739"
         stop-color="#fff"
         offset="0" />
      <stop
         id="stop3741"
         stop-color="#fff"
         stop-opacity="0"
         offset="1" />
    </linearGradient>
    <linearGradient
       id="buttonGradient"
       x1="48"
       x2="48"
       y1="90"
       y2="5.9877"
       gradientUnits="userSpaceOnUse">
      <stop
         id="stop3702"
         stop-color="#252534"
         offset="0" />
      <stop
         id="stop3704"
         stop-color="#3e3f4d"
         offset="1" />
    </linearGradient>
    <linearGradient
       id="ButtonShadow-0"
       x1="45.448"
       x2="45.448"
       y1="92.54"
       y2="7.0165"
       gradientTransform="matrix(1.0059 0 0 .99417 100 0)"
       gradientUnits="userSpaceOnUse">
      <stop
         id="stop3750-8"
         offset="0" />
      <stop
         id="stop3752-5"
         stop-opacity=".58824"
         offset="1" />
    </linearGradient>
    <linearGradient
       id="linearGradient3780"
       x1="32.251"
       x2="32.251"
       y1="6.1317"
       y2="90.239"
       gradientTransform="matrix(1.0238 0 0 1.0119 -1.1429 -98.071)"
       gradientUnits="userSpaceOnUse"
       xlink:href="#ButtonShadow-0" />
    <linearGradient
       id="linearGradient3721"
       x1="32.251"
       x2="32.251"
       y1="6.1317"
       y2="90.239"
       gradientTransform="translate(0,-97)"
       gradientUnits="userSpaceOnUse"
       xlink:href="#ButtonShadow-0" />
    <clipPath
       id="clipPath4355">
      <rect
         id="rect4357"
         x="6"
         y="6"
         width="84"
         height="80"
         rx="6"
         ry="6"
         fill="#fff" />
    </clipPath>
    <linearGradient
       id="linearGradient4390"
       x1="48"
       x2="48"
       y1="88"
       y2="-40"
       gradientTransform="matrix(1,0,0,-1,0,92)"
       gradientUnits="userSpaceOnUse"
       xlink:href="#linearGradient4384" />
    <linearGradient
       id="linearGradient4429"
       x1="48"
       x2="112.12"
       y1="82"
       y2="82.455"
       gradientUnits="userSpaceOnUse"
       spreadMethod="reflect"
       xlink:href="#linearGradient4384" />
    <linearGradient
       id="linearGradient3228"
       x1="90"
       x2="48"
       y1="88"
       y2="88"
       gradientUnits="userSpaceOnUse"
       spreadMethod="reflect">
      <stop
         id="stop3894"
         stop-opacity=".58824"
         offset="0" />
      <stop
         id="stop3896"
         stop-opacity=".47059"
         offset=".1178" />
      <stop
         id="stop3898"
         stop-opacity=".39216"
         offset=".2381" />
      <stop
         id="stop3900"
         stop-opacity=".31373"
         offset="1" />
    </linearGradient>
  </defs>
  <g
     id="layer3">
    <g
       id="g32"
       fill="url(#linearGradient3780)">
      <path
         id="path3786"
         transform="scale(1,-1)"
         d="m12-95.021c-5.5111 0-10.022 4.51-10.022 10.021v71c0 5.5111 4.5104 10.021 10.021 10.021h72c5.5111 0 10.021-4.5104 10.021-10.021v-71c0-5.5111-4.5104-10.021-10.021-10.021h-72z"
         opacity=".08" />
      <path
         id="path3778"
         transform="scale(1,-1)"
         d="m12-94.035c-4.9716 0-9.0352 4.0635-9.0352 9.0352v71c0 4.9716 4.0635 9.0352 9.0352 9.0352h72c4.9716 0 9.0352-4.0635 9.0352-9.0352v-71c0-4.9716-4.0635-9.0352-9.0352-9.0352h-72z"
         opacity=".1" />
      <path
         id="path3770"
         transform="scale(1,-1)"
         d="m12-92.99c-4.4091 0-7.9902 3.5811-7.9902 7.9902v71c0 4.4091 3.5811 7.9902 7.9902 7.9902h72c4.4091 0 7.9902-3.5811 7.9902-7.9902v-71c0-4.4091-3.5811-7.9902-7.9902-7.9902h-72z"
         opacity=".2" />
      <rect
         id="rect3723"
         transform="scale(1,-1)"
         x="5"
         y="-92"
         width="86"
         height="85"
         rx="7"
         ry="7"
         opacity=".3" />
    </g>
    <rect
       id="rect3716"
       transform="scale(1,-1)"
       x="6"
       y="-91"
       width="84"
       height="84"
       rx="6"
       ry="6"
       fill="url(#linearGradient3721)"
       opacity=".45" />
  </g>
  <g
     id="layer1">
    <rect
       id="button"
       x="6"
       y="6"
       width="84"
       height="84"
       rx="6"
       ry="6"
       fill="url(#buttonGradient)" />
    <path
       id="rect4377"
       d="m12 86c-3.324 0-6-2.676-6-6v-68c0-3.324 2.676-6 6-6h72c3.324 0 6 2.676 6 6v68c0 3.324-2.676 6-6 6zm0-0.96875h72c2.8049 0 5.0312-2.2264 5.0312-5.0312v-68c0-2.8049-2.226-5.0312-5.031-5.0312h-72c-2.8049 0-5.0312 2.2263-5.0312 5.0312v68c0 2.8049 2.2264 5.0312 5.0312 5.0312z"
       fill="url(#linearGradient4390)"
       opacity=".3" />
    <path
       id="rect4414"
       d="m6 78v2c0 3.324 2.676 6 6 6h72c3.324 0 6-2.676 6-6v-2c0 3.324-2.676 6-6 6h-72c-3.324 0-6-2.676-6-6z"
       fill="url(#linearGradient4429)"
       opacity=".1" />
  </g>
  <g
     id="layer4">
    <path
       id="path3888"
       d="m6 80v4c0 3.324 2.676 6 6 6h72c3.324 0 6-2.676 6-6v-4c0 3.324-2.676 6-6 6h-72c-3.324 0-6-2.676-6-6z"
       fill="url(#linearGradient3228)" />
    <path
       id="rect4345"
       d="m6 82v2c0 3.324 2.676 6 6 6h72c3.324 0 6-2.676 6-6v-2c0 3.324-2.676 6-6 6h-72c-3.324 0-6-2.676-6-6z"
       color="#000000"
       opacity=".1" />
    <path
       id="rect4336"
       d="m6 83v1c0 3.324 2.676 6 6 6h72c3.324 0 6-2.676 6-6v-1c0 3.324-2.676 6-6 6h-72c-3.324 0-6-2.676-6-6z"
       color="#000000"
       opacity=".15" />
  </g>
  <g
     id="layer5">
    <rect
       id="rect3171"
       x="15"
       y="15"
       width="66"
       height="62"
       rx="12"
       ry="12"
       clip-path="url(#clipPath4355)"
       fill="url(#linearGradient3613)"
       filter="url(#filter3794)"
       opacity=".1"
       stroke="#fff"
       stroke-linecap="round"
       stroke-width=".5" />
  </g>
  <defs
     id="defs53">
    <filter
       id="w">
      <feGaussianBlur
         stdDeviation="0.68880677"
         id="feGaussianBlur45" />
    </filter>
    <linearGradient
       id="a"
       gradientUnits="userSpaceOnUse"
       x1="8"
       y1="1"
       x2="8"
       y2="14.99828">
      <stop
         stop-color="#00f4ff"
         offset="0"
         id="stop48" />
      <stop
         stop-color="#1fa9d5"
         offset="1"
         id="stop50" />
    </linearGradient>
  </defs>
  <g
     transform="translate(0,-2)"
     id="g86">
    <path
       d="m6.0182 1c-0.56659 0.38393 0.4814 1.0393 0.34146 1.6105-0.032668 0.41864-0.1489 0.82655-0.22016 1.2402-1.187 0.29598-2.3952 0.58471-3.5177 1.0637-0.35681 0.63528 0.82341 0.7621 1.2425 0.97312 0.58362 0.18149 1.1825 0.31806 1.79 0.38842-0.32027 1.5688-0.65997 3.1746-1.5439 4.5397-0.41557 0.65026-0.7892 1.3504-1.3273 1.9071-0.59835 0.44598 0.12647 0.6347 0.48812 0.26234 1.187-0.64779 2.0897-1.7117 2.8622-2.8011 0.54328-0.8452 0.72289-1.8568 1.0495-2.7997 0.13741-0.44035 0.27481-0.8807 0.41222-1.3211 1.0378-0.25529 2.0756-0.51058 3.1133-0.76586-0.23092 1.7068-0.32351 3.4351-0.72743 5.1137-0.22239 0.89304-0.44843 1.851-1.0921 2.545-0.30261-0.24025-0.99579-0.27165-0.64907 0.30036 0.24259 0.60287 0.53171 1.2046 0.89167 1.7419 0.55107-0.34391 0.90375-1.0375 1.2939-1.5743 0.9115-1.412 1.5254-2.9975 1.8757-4.6376 0.38987-1.6116 0.81731-3.2149 1.1809-4.8323-0.036936-0.64288-1.0294-0.63015-1.5013-0.8648-0.66516-0.20896-1.3564-0.43299-2.029-0.11569-0.51601 0.12217-1.032 0.24435-1.548 0.36652 0.28419-0.63791 0.072501-1.4789-0.59158-1.7781-0.58154-0.22191-1.1761-0.46852-1.794-0.562z"
       fill="url(#a)"
       id="base"
       transform="translate(16,16) scale(4)" />
    <path
       style="opacity:0.07999998;fill:#000000;stroke-width:4"
       d="M 40.072266 18 C 37.805906 19.53572 41.999213 22.156606 41.439453 24.441406 C 41.308781 26.115966 40.843634 27.747744 40.558594 29.402344 C 35.810594 30.586264 30.976328 31.742243 26.486328 33.658203 C 25.059088 36.199323 29.780671 36.706701 31.457031 37.550781 C 33.791511 38.276741 36.187188 38.822076 38.617188 39.103516 C 37.336107 45.378716 35.977126 51.801319 32.441406 57.261719 C 30.779126 59.862759 29.285213 62.663825 27.132812 64.890625 C 24.739413 66.674545 27.637384 67.428893 29.083984 65.939453 C 33.831984 63.348293 37.443203 59.093928 40.533203 54.736328 C 42.706323 51.355528 43.425982 47.308709 44.732422 43.537109 C 45.282062 41.775709 45.831219 40.013553 46.380859 38.251953 C 50.532059 37.230793 54.683184 36.210573 58.833984 35.189453 C 57.910304 42.016653 57.539508 48.930131 55.923828 55.644531 C 55.034268 59.216691 54.129367 63.048219 51.554688 65.824219 C 50.344248 64.863219 47.572104 64.737351 48.958984 67.025391 C 49.929344 69.436871 51.085551 71.842987 52.525391 73.992188 C 54.729671 72.616547 56.140572 69.842512 57.701172 67.695312 C 61.347172 62.047313 63.803878 55.706884 65.205078 49.146484 C 66.764558 42.700084 68.473374 36.286006 69.927734 29.816406 C 69.77999 27.244886 65.809475 27.296022 63.921875 26.357422 C 61.261235 25.521582 58.497041 24.625331 55.806641 25.894531 C 53.742601 26.383211 51.679234 26.872648 49.615234 27.361328 C 50.751994 24.809688 49.904371 21.444847 47.248047 20.248047 C 44.921887 19.360407 42.543866 18.37392 40.072266 18 z M 42.34375 20.789062 C 43.694286 21.204309 45.014666 21.539198 46.445312 22.085938 C 47.951469 22.781815 48.506411 24.936671 47.789062 26.546875 A 2.0002 2.0002 0 0 0 50.078125 29.304688 C 52.142155 28.816 54.201621 28.332422 56.265625 27.84375 A 2.0002 2.0002 0 0 0 56.65625 27.703125 C 58.534617 26.817003 60.63686 27.423802 63.298828 28.259766 C 63.209033 28.219194 63.12123 28.19318 63.03125 28.148438 L 63.320312 28.265625 C 63.312825 28.263273 63.306306 28.262114 63.298828 28.259766 C 64.663264 28.876245 65.996502 29.048337 66.929688 29.367188 C 67.422047 29.535417 67.757232 29.725628 67.867188 29.820312 C 66.445979 36.0898 64.7884 42.344902 63.257812 48.671875 A 2.0002 2.0002 0 0 0 63.25 48.726562 C 61.895216 55.069644 59.521922 61.172405 56.03125 66.585938 C 56.026834 66.592789 56.027858 66.602527 56.023438 66.609375 C 54.893174 68.174807 53.932859 69.282353 52.945312 70.453125 C 52.477892 69.587145 52.007587 68.735105 51.601562 67.820312 A 2.0002 2.0002 0 0 0 53.023438 67.1875 C 56.063372 63.909868 56.981879 59.680084 57.867188 56.125 A 2.0002 2.0002 0 0 0 57.867188 56.109375 C 59.539656 49.158973 59.903348 42.180765 60.8125 35.460938 A 2.0002 2.0002 0 0 0 58.359375 33.25 C 54.208591 34.271116 50.05745 35.29134 45.90625 36.3125 A 2.0002 2.0002 0 0 0 44.46875 37.65625 C 43.919115 39.417835 43.369945 41.176126 42.820312 42.9375 L 42.84375 42.882812 C 41.472935 46.840258 40.737302 50.675535 38.867188 53.609375 C 36.935981 56.329684 34.729822 58.756794 32.335938 60.898438 C 32.86805 60.03471 33.602902 59.156886 34.117188 58.351562 C 37.914772 52.486749 39.295107 45.784694 40.578125 39.5 A 2.0002 2.0002 0 0 0 38.84375 37.117188 C 36.582945 36.855343 34.339255 36.346049 32.126953 35.662109 C 32.205014 35.698582 32.279878 35.725597 32.359375 35.765625 L 32.054688 35.640625 C 32.078758 35.64811 32.102875 35.654666 32.126953 35.662109 C 31.225444 35.240899 30.413323 35.033827 29.640625 34.789062 C 33.302651 33.453974 37.096532 32.326825 41.039062 31.34375 A 2.0002 2.0002 0 0 0 42.53125 29.742188 C 42.777195 28.314525 43.197646 26.688164 43.375 24.882812 C 43.656972 23.680933 43.324481 22.623023 42.953125 21.835938 C 42.750613 21.406713 42.55458 21.130288 42.34375 20.789062 z "
       transform="translate(0,2)"
       id="path56" />
    <path
       style="opacity:0.1;fill:#000000;stroke-width:4"
       d="M 40.072266 18 C 37.805906 19.53572 41.999213 22.156606 41.439453 24.441406 C 41.308781 26.115966 40.843634 27.747744 40.558594 29.402344 C 35.810594 30.586264 30.976328 31.742243 26.486328 33.658203 C 25.059088 36.199323 29.780671 36.706701 31.457031 37.550781 C 33.791511 38.276741 36.187188 38.822076 38.617188 39.103516 C 37.336107 45.378716 35.977126 51.801319 32.441406 57.261719 C 30.779126 59.862759 29.285213 62.663825 27.132812 64.890625 C 24.739413 66.674545 27.637384 67.428893 29.083984 65.939453 C 33.831984 63.348293 37.443203 59.093928 40.533203 54.736328 C 42.706323 51.355528 43.425982 47.308709 44.732422 43.537109 C 45.282062 41.775709 45.831219 40.013553 46.380859 38.251953 C 50.532059 37.230793 54.683184 36.210573 58.833984 35.189453 C 57.910304 42.016653 57.539508 48.930131 55.923828 55.644531 C 55.034268 59.216691 54.129367 63.048219 51.554688 65.824219 C 50.344248 64.863219 47.572104 64.737351 48.958984 67.025391 C 49.929344 69.436871 51.085551 71.842987 52.525391 73.992188 C 54.729671 72.616547 56.140572 69.842512 57.701172 67.695312 C 61.347172 62.047313 63.803878 55.706884 65.205078 49.146484 C 66.764558 42.700084 68.473374 36.286006 69.927734 29.816406 C 69.77999 27.244886 65.809475 27.296022 63.921875 26.357422 C 61.261235 25.521582 58.497041 24.625331 55.806641 25.894531 C 53.742601 26.383211 51.679234 26.872648 49.615234 27.361328 C 50.751994 24.809688 49.904371 21.444847 47.248047 20.248047 C 44.921887 19.360407 42.543866 18.37392 40.072266 18 z M 40.445312 19.125 C 42.565448 19.525262 44.691769 20.342115 46.84375 21.164062 C 48.924731 22.10975 49.630273 24.871993 48.703125 26.953125 A 1.0001 1.0001 0 0 0 49.84375 28.335938 C 51.907765 27.847254 53.975038 27.355863 56.039062 26.867188 A 1.0001 1.0001 0 0 0 56.234375 26.796875 C 58.521395 25.717969 60.958376 26.47478 63.625 27.3125 L 63.476562 27.25 C 64.677071 27.846948 66.137073 28.03894 67.257812 28.421875 C 67.818185 28.613342 68.266786 28.837733 68.53125 29.070312 C 68.775138 29.284793 68.864905 29.484066 68.898438 29.8125 C 67.460501 36.182594 65.779771 42.525884 64.234375 48.914062 A 1.0001 1.0001 0 0 0 64.226562 48.9375 C 62.848198 55.39098 60.429267 61.616585 56.859375 67.148438 L 56.859375 67.15625 C 55.495247 69.040898 54.238207 71.011573 52.789062 72.328125 C 51.69827 70.527977 50.688257 68.630665 49.890625 66.648438 A 1.0001 1.0001 0 0 0 49.8125 66.507812 C 49.67209 66.276168 49.708748 66.330988 49.6875 66.25 C 50.026386 66.26904 50.654711 66.384859 50.9375 66.609375 A 1.0001 1.0001 0 0 0 52.289062 66.507812 C 55.096369 63.480997 56.003193 59.446436 56.890625 55.882812 A 1.0001 1.0001 0 0 0 56.898438 55.875 C 58.542514 49.042599 58.911709 42.093826 59.828125 35.320312 A 1.0001 1.0001 0 0 0 58.59375 34.21875 C 54.442956 35.239868 50.291825 36.26009 46.140625 37.28125 A 1.0001 1.0001 0 0 0 45.429688 37.953125 C 44.88005 39.714718 44.323073 41.480801 43.773438 43.242188 L 43.789062 43.210938 C 42.45022 47.076081 41.724217 51.015449 39.703125 54.171875 C 36.650984 58.473727 33.134078 62.5932 28.609375 65.0625 A 1.0001 1.0001 0 0 0 28.367188 65.242188 C 28.259594 65.352968 28.171732 65.293119 28.03125 65.359375 C 30.202093 63.039651 31.696762 60.284004 33.28125 57.804688 C 36.947902 52.142081 38.311701 45.584635 39.59375 39.304688 A 1.0001 1.0001 0 0 0 38.734375 38.109375 C 36.376669 37.836308 34.042896 37.304349 31.757812 36.59375 C 30.667707 36.0813 29.225206 35.785067 28.21875 35.328125 C 27.693727 35.089759 27.351709 34.813947 27.265625 34.679688 C 27.225039 34.616388 27.312678 34.486479 27.3125 34.429688 C 31.583286 32.660813 36.192188 31.523185 40.796875 30.375 A 1.0001 1.0001 0 0 0 41.546875 29.570312 C 41.811221 28.035836 42.249768 26.422486 42.40625 24.679688 C 42.62535 23.785375 42.37392 22.950983 42.046875 22.257812 C 41.71983 21.564642 41.298686 20.952112 40.96875 20.414062 C 40.638814 19.876014 40.425694 19.40998 40.398438 19.203125 C 40.392823 19.160515 40.451143 19.149712 40.445312 19.125 z "
       transform="translate(0,2)"
       id="path61" />
    <path
       style="opacity:0.3;fill:#000000;stroke-width:4"
       d="M 40.072266 18 C 39.378602 18.470037 39.293349 19.043104 39.488281 19.675781 C 39.586684 19.433293 39.767316 19.206638 40.072266 19 C 42.543866 19.37392 44.921887 20.360407 47.248047 21.248047 C 48.975154 22.02619 49.922934 23.722171 50.072266 25.513672 C 50.254948 23.380279 49.295762 21.17064 47.248047 20.248047 C 44.921887 19.360407 42.543866 18.37392 40.072266 18 z M 41.431641 24.511719 C 41.293648 26.16159 40.839631 27.770977 40.558594 29.402344 C 35.810594 30.586264 30.976328 31.742243 26.486328 33.658203 C 26.18449 34.195609 26.168912 34.637725 26.330078 35.015625 C 26.371666 34.899881 26.415919 34.783562 26.486328 34.658203 C 30.976328 32.742243 35.810594 31.586264 40.558594 30.402344 C 40.843634 28.747744 41.308781 27.115966 41.439453 25.441406 C 41.514202 25.1363 41.499665 24.825445 41.431641 24.511719 z M 58.855469 25.261719 C 57.835032 25.246038 56.815541 25.418581 55.806641 25.894531 C 53.858475 26.355777 51.911015 26.818047 49.962891 27.279297 C 49.881218 27.649314 49.77001 28.013908 49.615234 28.361328 C 51.679234 27.872648 53.742601 27.383211 55.806641 26.894531 C 58.497041 25.625331 61.261235 26.521582 63.921875 27.357422 C 65.663571 28.223472 69.173296 28.250938 69.822266 30.269531 C 69.856545 30.118324 69.89373 29.967674 69.927734 29.816406 C 69.77999 27.244886 65.809475 27.296022 63.921875 26.357422 C 62.258975 25.835022 60.556197 25.287853 58.855469 25.261719 z M 58.833984 36.189453 C 58.792895 36.199561 58.752027 36.210595 58.710938 36.220703 C 57.882126 42.712544 57.458364 49.267347 55.923828 55.644531 C 55.034268 59.216691 54.129367 63.048219 51.554688 65.824219 C 50.44068 64.939779 48.013043 64.768258 48.712891 66.529297 C 49.173014 65.901842 50.727422 66.167431 51.554688 66.824219 C 54.129367 64.048219 55.034268 60.216691 55.923828 56.644531 C 57.539508 49.930131 57.910304 43.016653 58.833984 36.189453 z M 38.410156 40.074219 C 37.182126 46.038245 35.79523 52.08223 32.441406 57.261719 C 30.779126 59.862759 29.285213 62.663825 27.132812 64.890625 C 26.093831 65.665029 26.053054 66.244096 26.457031 66.53125 C 26.6041 66.336767 26.82162 66.122573 27.132812 65.890625 C 29.285213 63.663825 30.779126 60.862759 32.441406 58.261719 C 35.977126 52.801319 37.336107 46.378716 38.617188 40.103516 C 38.54796 40.095498 38.479327 40.082665 38.410156 40.074219 z "
       transform="translate(0,2)"
       id="path66" />
    <path
       style="opacity:0.4;fill:#000000;stroke-width:4"
       d="M 40.072266 17 C 39.378602 17.470037 39.293349 18.043104 39.488281 18.675781 C 39.586684 18.433293 39.767316 18.206638 40.072266 18 C 42.543866 18.37392 44.921887 19.360407 47.248047 20.248047 C 48.975154 21.02619 49.922934 22.722171 50.072266 24.513672 C 50.254948 22.380279 49.295762 20.17064 47.248047 19.248047 C 44.921887 18.360407 42.543866 17.37392 40.072266 17 z M 41.431641 23.511719 C 41.293648 25.16159 40.839631 26.770977 40.558594 28.402344 C 35.810594 29.586264 30.976328 30.742243 26.486328 32.658203 C 26.18449 33.195609 26.168912 33.637725 26.330078 34.015625 C 26.371666 33.899881 26.415919 33.783562 26.486328 33.658203 C 30.976328 31.742243 35.810594 30.586264 40.558594 29.402344 C 40.843634 27.747744 41.308781 26.115966 41.439453 24.441406 C 41.514202 24.1363 41.499665 23.825445 41.431641 23.511719 z M 58.855469 24.261719 C 57.835032 24.246038 56.815541 24.418581 55.806641 24.894531 C 53.858475 25.355777 51.911015 25.818047 49.962891 26.279297 C 49.881218 26.649314 49.77001 27.013908 49.615234 27.361328 C 51.679234 26.872648 53.742601 26.383211 55.806641 25.894531 C 58.497041 24.625331 61.261235 25.521582 63.921875 26.357422 C 65.663571 27.223472 69.173296 27.250938 69.822266 29.269531 C 69.856545 29.118324 69.89373 28.967674 69.927734 28.816406 C 69.77999 26.244886 65.809475 26.296022 63.921875 25.357422 C 62.258975 24.835022 60.556197 24.287853 58.855469 24.261719 z M 58.833984 35.189453 C 58.792895 35.199561 58.752027 35.210595 58.710938 35.220703 C 57.882126 41.712544 57.458364 48.267347 55.923828 54.644531 C 55.034268 58.216691 54.129367 62.048219 51.554688 64.824219 C 50.44068 63.939779 48.013043 63.768258 48.712891 65.529297 C 49.173014 64.901842 50.727422 65.167431 51.554688 65.824219 C 54.129367 63.048219 55.034268 59.216691 55.923828 55.644531 C 57.539508 48.930131 57.910304 42.016653 58.833984 35.189453 z M 38.410156 39.074219 C 37.182126 45.038245 35.79523 51.08223 32.441406 56.261719 C 30.779126 58.862759 29.285213 61.663825 27.132812 63.890625 C 26.093831 64.665029 26.053054 65.244096 26.457031 65.53125 C 26.6041 65.336767 26.82162 65.122573 27.132812 64.890625 C 29.285213 62.663825 30.779126 59.862759 32.441406 57.261719 C 35.977126 51.801319 37.336107 45.378716 38.617188 39.103516 C 38.54796 39.095498 38.479327 39.082665 38.410156 39.074219 z "
       transform="translate(0,2)"
       id="path71" />
    <path
       style="opacity:0.1;fill:#ffffff;stroke-width:4"
       d="M 39.488281 19.675781 C 38.95302 20.994793 41.058803 22.792208 41.431641 24.511719 C 41.433606 24.488222 41.437618 24.464919 41.439453 24.441406 C 41.827888 22.855914 39.930238 21.110208 39.488281 19.675781 z M 50.072266 25.513672 C 50.01797 26.147745 49.875685 26.776705 49.615234 27.361328 C 49.731106 27.333894 49.847019 27.306731 49.962891 27.279297 C 50.091054 26.698658 50.121337 26.102377 50.072266 25.513672 z M 69.822266 30.269531 C 68.390463 36.585335 66.728095 42.85081 65.205078 49.146484 C 63.803878 55.706884 61.347172 62.047313 57.701172 67.695312 C 56.140572 69.842512 54.729671 72.616547 52.525391 73.992188 C 51.085551 71.842987 49.929344 69.436871 48.958984 67.025391 C 48.848496 66.843109 48.773472 66.681739 48.712891 66.529297 C 48.49977 66.819922 48.519957 67.301094 48.958984 68.025391 C 49.929344 70.436871 51.085551 72.842987 52.525391 74.992188 C 54.729671 73.616547 56.140572 70.842512 57.701172 68.695312 C 61.347172 63.047313 63.803878 56.706884 65.205078 50.146484 C 66.764558 43.700084 68.473374 37.286006 69.927734 30.816406 C 69.916314 30.617638 69.876631 30.438631 69.822266 30.269531 z M 26.330078 35.015625 C 25.528656 37.246102 29.86337 37.748342 31.457031 38.550781 C 33.725005 39.25606 36.051313 39.786204 38.410156 40.074219 C 38.476759 39.750757 38.551282 39.426345 38.617188 39.103516 C 36.187188 38.822076 33.791511 38.276741 31.457031 37.550781 C 30.135194 36.885211 26.930984 36.424624 26.330078 35.015625 z M 58.833984 35.189453 C 54.683184 36.210573 50.532059 37.230793 46.380859 38.251953 C 45.831219 40.013553 45.282062 41.775709 44.732422 43.537109 C 43.425982 47.308709 42.706323 51.355528 40.533203 54.736328 C 37.443203 59.093928 33.831984 63.348293 29.083984 65.939453 C 28.265357 66.782323 26.983657 66.905585 26.457031 66.53125 C 25.472988 67.832548 27.825473 68.235234 29.083984 66.939453 C 33.831984 64.348293 37.443203 60.093928 40.533203 55.736328 C 42.706323 52.355528 43.425982 48.308709 44.732422 44.537109 C 45.282062 42.775709 45.831219 41.013553 46.380859 39.251953 C 50.490966 38.240902 54.601219 37.231716 58.710938 36.220703 C 58.754764 35.877424 58.787595 35.532334 58.833984 35.189453 z "
       transform="translate(0,2)"
       id="path76" />
    <path
       style="opacity:0.15;fill:#ffffff;stroke-width:4"
       d="M 39.488281 18.675781 C 38.95302 19.994793 41.058803 21.792208 41.431641 23.511719 C 41.433606 23.488222 41.437618 23.464919 41.439453 23.441406 C 41.827888 21.855914 39.930238 20.110208 39.488281 18.675781 z M 50.072266 24.513672 C 50.01797 25.147745 49.875685 25.776705 49.615234 26.361328 C 49.731106 26.333894 49.847019 26.306731 49.962891 26.279297 C 50.091054 25.698658 50.121337 25.102377 50.072266 24.513672 z M 69.822266 29.269531 C 68.390463 35.585335 66.728095 41.85081 65.205078 48.146484 C 63.803878 54.706884 61.347172 61.047313 57.701172 66.695312 C 56.140572 68.842512 54.729671 71.616547 52.525391 72.992188 C 51.085551 70.842987 49.929344 68.436871 48.958984 66.025391 C 48.848496 65.843109 48.773472 65.681739 48.712891 65.529297 C 48.49977 65.819922 48.519957 66.301094 48.958984 67.025391 C 49.929344 69.436871 51.085551 71.842987 52.525391 73.992188 C 54.729671 72.616547 56.140572 69.842512 57.701172 67.695312 C 61.347172 62.047313 63.803878 55.706884 65.205078 49.146484 C 66.764558 42.700084 68.473374 36.286006 69.927734 29.816406 C 69.916314 29.617638 69.876631 29.438631 69.822266 29.269531 z M 26.330078 34.015625 C 25.528656 36.246102 29.86337 36.748342 31.457031 37.550781 C 33.725005 38.25606 36.051313 38.786204 38.410156 39.074219 C 38.476759 38.750757 38.551282 38.426345 38.617188 38.103516 C 36.187188 37.822076 33.791511 37.276741 31.457031 36.550781 C 30.135194 35.885211 26.930984 35.424624 26.330078 34.015625 z M 58.833984 34.189453 C 54.683184 35.210573 50.532059 36.230793 46.380859 37.251953 C 45.831219 39.013553 45.282062 40.775709 44.732422 42.537109 C 43.425982 46.308709 42.706323 50.355528 40.533203 53.736328 C 37.443203 58.093928 33.831984 62.348293 29.083984 64.939453 C 28.265357 65.782323 26.983657 65.905585 26.457031 65.53125 C 25.472988 66.832548 27.825473 67.235234 29.083984 65.939453 C 33.831984 63.348293 37.443203 59.093928 40.533203 54.736328 C 42.706323 51.355528 43.425982 47.308709 44.732422 43.537109 C 45.282062 41.775709 45.831219 40.013553 46.380859 38.251953 C 50.490966 37.240902 54.601219 36.231716 58.710938 35.220703 C 58.754764 34.877424 58.787595 34.532334 58.833984 34.189453 z "
       transform="translate(0,2)"
       id="path81" />
  </g>
</svg>
