<?xml version="1.0" encoding="UTF-8" standalone="no"?>
<svg
   xmlns:dc="http://purl.org/dc/elements/1.1/"
   xmlns:cc="http://creativecommons.org/ns#"
   xmlns:rdf="http://www.w3.org/1999/02/22-rdf-syntax-ns#"
   xmlns:svg="http://www.w3.org/2000/svg"
   xmlns="http://www.w3.org/2000/svg"
   xmlns:xlink="http://www.w3.org/1999/xlink"
   xmlns:sodipodi="http://sodipodi.sourceforge.net/DTD/sodipodi-0.dtd"
   xmlns:inkscape="http://www.inkscape.org/namespaces/inkscape"
   width="96"
   height="96"
   version="1.0"
   id="svg125"
   sodipodi:docname="pyrenamer.svg"
   inkscape:version="0.92.2 5c3e80d, 2017-08-06">
  <metadata
     id="metadata129">
    <rdf:RDF>
      <cc:Work
         rdf:about="">
        <dc:format>image/svg+xml</dc:format>
        <dc:type
           rdf:resource="http://purl.org/dc/dcmitype/StillImage" />
      </cc:Work>
    </rdf:RDF>
  </metadata>
  <sodipodi:namedview
     pagecolor="#ffffff"
     bordercolor="#666666"
     borderopacity="1"
     objecttolerance="10"
     gridtolerance="10"
     guidetolerance="10"
     inkscape:pageopacity="0"
     inkscape:pageshadow="2"
     inkscape:window-width="640"
     inkscape:window-height="480"
     id="namedview127"
     showgrid="false"
     inkscape:zoom="2.4583333"
     inkscape:cx="48"
     inkscape:cy="48"
     inkscape:window-x="0"
     inkscape:window-y="25"
     inkscape:window-maximized="0"
     inkscape:current-layer="svg125" />
  <defs
     id="defs49">
    <linearGradient
       id="linearGradient4384">
      <stop
         stop-color="#fff"
         offset="0"
         id="stop2" />
      <stop
         stop-color="#fff"
         stop-opacity="0"
         offset="1"
         id="stop4" />
    </linearGradient>
    <linearGradient
       id="ButtonShadow"
       x1="45.448"
       x2="45.448"
       y1="92.54"
       y2="7.0165"
       gradientTransform="scale(1.0059 .99417)"
       gradientUnits="userSpaceOnUse">
      <stop
         offset="0"
         id="stop7" />
      <stop
         stop-opacity=".58824"
         offset="1"
         id="stop9" />
    </linearGradient>
    <filter
       id="filter3174">
      <feGaussianBlur
         stdDeviation="1.71"
         id="feGaussianBlur12" />
    </filter>
    <filter
       id="filter3794"
       x="-.192"
       y="-.192"
       width="1.384"
       height="1.384">
      <feGaussianBlur
         stdDeviation="5.28"
         id="feGaussianBlur15" />
    </filter>
    <linearGradient
       id="linearGradient3613"
       x1="48"
       x2="48"
       y1="20.221"
       y2="138.66"
       gradientUnits="userSpaceOnUse">
      <stop
         stop-color="#fff"
         offset="0"
         id="stop18" />
      <stop
         stop-color="#fff"
         stop-opacity="0"
         offset="1"
         id="stop20" />
    </linearGradient>
    <linearGradient
       id="linearGradient3617"
       x1="48"
       x2="48"
       y1="90"
       y2="5.9877"
       gradientUnits="userSpaceOnUse">
      <stop
         stop-color="#a2a2a2"
         offset="0"
         id="stop23" />
      <stop
         stop-color="#bebebe"
         offset="1"
         id="stop25" />
    </linearGradient>
    <linearGradient
       id="ButtonShadow-0"
       x1="45.448"
       x2="45.448"
       y1="92.54"
       y2="7.0165"
       gradientTransform="matrix(1.0059 0 0 .99417 100 0)"
       gradientUnits="userSpaceOnUse">
      <stop
         offset="0"
         id="stop28" />
      <stop
         stop-opacity=".58824"
         offset="1"
         id="stop30" />
    </linearGradient>
    <linearGradient
       id="linearGradient3780"
       x1="32.251"
       x2="32.251"
       y1="6.1317"
       y2="90.239"
       gradientTransform="matrix(1.0238 0 0 1.0119 -1.1429 -98.071)"
       gradientUnits="userSpaceOnUse"
       xlink:href="#ButtonShadow-0" />
    <linearGradient
       id="linearGradient3721"
       x1="32.251"
       x2="32.251"
       y1="6.1317"
       y2="90.239"
       gradientTransform="translate(0,-97)"
       gradientUnits="userSpaceOnUse"
       xlink:href="#ButtonShadow-0" />
    <clipPath
       id="clipPath4355">
      <rect
         x="6"
         y="6"
         width="84"
         height="80"
         rx="6"
         ry="6"
         fill="#fff"
         id="rect35" />
    </clipPath>
    <linearGradient
       id="linearGradient4390"
       x1="48"
       x2="48"
       y1="88"
       y2="-40"
       gradientTransform="matrix(1,0,0,-1,0,92)"
       gradientUnits="userSpaceOnUse"
       xlink:href="#linearGradient4384" />
    <linearGradient
       id="linearGradient4429"
       x1="48"
       x2="112.12"
       y1="82"
       y2="82.455"
       gradientUnits="userSpaceOnUse"
       spreadMethod="reflect"
       xlink:href="#linearGradient4384" />
    <linearGradient
       id="linearGradient3870"
       x1="8"
       x2="50"
       y1="1033.4"
       y2="1033.4"
       gradientTransform="translate(-2 -956.36)"
       gradientUnits="userSpaceOnUse"
       spreadMethod="reflect">
      <stop
         stop-color="#523823"
         offset="0"
         id="stop40" />
      <stop
         stop-color="#79563a"
         offset=".1178"
         id="stop42" />
      <stop
         stop-color="#875c38"
         offset=".2381"
         id="stop44" />
      <stop
         stop-color="#a66e40"
         offset="1"
         id="stop46" />
    </linearGradient>
  </defs>
  <g
     display="none"
     id="g53">
    <rect
       x="5"
       y="7"
       width="86"
       height="85"
       rx="6"
       ry="6"
       fill="url(#ButtonShadow)"
       filter="url(#filter3174)"
       opacity=".9"
       id="rect51" />
  </g>
  <g
     id="g67">
    <g
       fill="url(#linearGradient3780)"
       id="g63">
      <path
         transform="scale(1,-1)"
         d="m12-95.031c-5.5111 0-10.031 4.5202-10.031 10.031v71c0 5.5111 4.5202 10.031 10.031 10.031h72c5.5111 0 10.031-4.5202 10.031-10.031v-71c0-5.5111-4.5202-10.031-10.031-10.031h-72z"
         opacity=".08"
         id="path55" />
      <path
         transform="scale(1,-1)"
         d="m12-94.031c-4.9716 0-9.0312 4.0596-9.0312 9.0312v71c0 4.9716 4.0596 9.0312 9.0312 9.0312h72c4.9716 0 9.0312-4.0596 9.0312-9.0312v-71c0-4.9716-4.0596-9.0312-9.0312-9.0312h-72z"
         opacity=".1"
         id="path57" />
      <path
         transform="scale(1,-1)"
         d="m12-93c-4.4091 0-8 3.5909-8 8v71c0 4.4091 3.5909 8 8 8h72c4.4091 0 8-3.5909 8-8v-71c0-4.4091-3.5909-8-8-8h-72z"
         opacity=".2"
         id="path59" />
      <rect
         transform="scale(1,-1)"
         x="5"
         y="-92"
         width="86"
         height="85"
         rx="7"
         ry="7"
         opacity=".3"
         id="rect61" />
    </g>
    <rect
       transform="scale(1,-1)"
       x="6"
       y="-91"
       width="84"
       height="84"
       rx="6"
       ry="6"
       fill="url(#linearGradient3721)"
       opacity=".45"
       id="rect65" />
  </g>
  <g
     id="g79">
    <rect
       x="6"
       y="64"
       width="84"
       height="26"
       rx="6"
       ry="6"
       color="#000000"
       fill="url(#linearGradient3870)"
       id="rect69" />
    <g
       id="g77">
      <path
         d="m6 82v2c0 3.324 2.676 6 6 6h72c3.324 0 6-2.676 6-6v-2c0 3.324-2.676 6-6 6h-72c-3.324 0-6-2.676-6-6z"
         color="#000000"
         opacity=".1"
         id="path71" />
      <path
         d="m6 83v1c0 3.324 2.676 6 6 6h72c3.324 0 6-2.676 6-6v-1c0 3.324-2.676 6-6 6h-72c-3.324 0-6-2.676-6-6z"
         color="#000000"
         opacity=".1"
         id="path73" />
      <path
         d="m6 80v1c0 3.324 2.676 6 6 6h72c3.324 0 6-2.676 6-6v-1c0 3.324-2.676 6-6 6h-72c-3.324 0-6-2.676-6-6z"
         opacity=".2"
         id="path75" />
    </g>
  </g>
  <g
     id="g87">
    <rect
       x="6"
       y="6"
       width="84"
       height="80"
       rx="6"
       ry="6"
       fill="url(#linearGradient3617)"
       id="rect81" />
    <path
       d="m12 86c-3.324 0-6-2.676-6-6v-68c0-3.324 2.676-6 6-6h72c3.324 0 6 2.676 6 6v68c0 3.324-2.676 6-6 6zm0-0.96875h72c2.8049 0 5.0312-2.2264 5.0312-5.0312v-68c0-2.8049-2.2264-5.0312-5.0312-5.0312h-72c-2.8049 0-5.0312 2.2264-5.0312 5.0312v68c0 2.8049 2.2264 5.0312 5.0312 5.0312z"
       fill="url(#linearGradient4390)"
       opacity=".3"
       id="path83" />
    <path
       d="m6 78v2c0 3.324 2.676 6 6 6h72c3.324 0 6-2.676 6-6v-2c0 3.324-2.676 6-6 6h-72c-3.324 0-6-2.676-6-6z"
       fill="url(#linearGradient4429)"
       opacity=".1"
       id="path85" />
  </g>
  <g
     id="g91">
    <rect
       x="15"
       y="15"
       width="66"
       height="62"
       rx="12"
       ry="12"
       clip-path="url(#clipPath4355)"
       fill="url(#linearGradient3613)"
       filter="url(#filter3794)"
       opacity=".1"
       stroke="#fff"
       stroke-linecap="round"
       stroke-width=".5"
       id="rect89" />
  </g>
  <defs
     id="defs101">
    <filter
       id="w">
      <feGaussianBlur
         stdDeviation="0.23199685"
         id="feGaussianBlur93" />
    </filter>
    <linearGradient
       id="a"
       gradientUnits="userSpaceOnUse"
       x1="8"
       y1="2"
       x2="8"
       y2="14">
      <stop
         stop-color="#fafafa"
         offset="0"
         id="stop96" />
      <stop
         stop-color="#ebebeb"
         offset="1"
         id="stop98" />
    </linearGradient>
  </defs>
  <g
     transform="translate(0,-2)"
     id="g123">
    <path
       style="opacity:0.15;fill:#000000"
       d="M 8,1.75 A 0.250025,0.250025 0 0 0 7.75,2 V 3 A 0.250025,0.250025 0 0 0 8,3.25 h 1.75 v 9.5 H 8 A 0.250025,0.250025 0 0 0 7.75,13 v 1 A 0.250025,0.250025 0 0 0 8,14.25 h 5 A 0.250025,0.250025 0 0 0 13.25,14 V 13 A 0.250025,0.250025 0 0 0 13,12.75 H 11.25 V 3.25 H 13 A 0.250025,0.250025 0 0 0 13.25,3 V 2 A 0.250025,0.250025 0 0 0 13,1.75 h -3 z m -6.5703125,3 a 0.250025,0.250025 0 0 0 -0.015625,0.00195 C 1.0266033,4.7885252 0.74836304,5.1242599 0.75,5.5019531 V 10.5 c 3.158e-5,0.41342 0.3365918,0.749953 0.75,0.75 H 9 A 0.250025,0.250025 0 0 0 9.25,11 V 10 A 0.250025,0.250025 0 0 0 9,9.75 H 2.25 V 6.25 H 9 A 0.250025,0.250025 0 0 0 9.25,6 V 5 A 0.250025,0.250025 0 0 0 9,4.75 H 1.5078125 c -0.026301,-8.43e-4 -0.051824,-8.43e-4 -0.078125,0 z M 12,4.75 A 0.250025,0.250025 0 0 0 11.75,5 V 6 A 0.250025,0.250025 0 0 0 12,6.25 h 1.75 v 3.5 H 12 A 0.250025,0.250025 0 0 0 11.75,10 v 1 A 0.250025,0.250025 0 0 0 12,11.25 h 2.5 c 0.413408,-4.7e-5 0.749968,-0.33658 0.75,-0.75 v -5 C 15.249968,5.0865797 14.91342,4.7500316 14.5,4.75 Z m -9,2 A 0.250025,0.250025 0 0 0 2.75,7 V 9 A 0.250025,0.250025 0 0 0 3,9.25 H 8 A 0.250025,0.250025 0 0 0 8.25,9 V 7 A 0.250025,0.250025 0 0 0 8,6.75 Z"
       id="path103"
       inkscape:original="m8 2v1h2v10h-2v1h5v-1h-2v-10h2v-1h-3zm-6.5625 3c-0.24579 0.0232-0.43857 0.25312-0.4375 0.5v5c2e-5 0.26179 0.23821 0.49997 0.5 0.5h7.5v-1h-7v-4h7v-1h-7.5c-0.0156-5e-4 -0.0469-5e-4 -0.0625 0zm10.562 0v1h2v4h-2v1h2.5c0.26179-3e-5 0.49998-0.23821 0.5-0.5v-5c-2e-5 -0.26179-0.23821-0.49998-0.5-0.5zm-9 2v2h5v-2z"
       transform="matrix(4,0,0,4,16,17)"
       inkscape:radius="0.25"
       sodipodi:type="inkscape:offset" />
    <g
       id="Bevel1">
      <path
         fill="#000"
         opacity=".10"
         sodipodi:type="inkscape:offset"
         inkscape:radius="0.5"
         transform="translate(16,17) scale(4)"
         inkscape:original="m8 2v1h2v10h-2v1h5v-1h-2v-10h2v-1h-3zm-6.5625 3c-0.24579 0.0232-0.43857 0.25312-0.4375 0.5v5c2e-5 0.26179 0.23821 0.49997 0.5 0.5h7.5v-1h-7v-4h7v-1h-7.5c-0.0156-5e-4 -0.0469-5e-4 -0.0625 0zm10.562 0v1h2v4h-2v1h2.5c0.26179-3e-5 0.49998-0.23821 0.5-0.5v-5c-2e-5 -0.26179-0.23821-0.49998-0.5-0.5zm-9 2v2h5v-2z"
         id="path106" />
    </g>
    <g
       id="Bevel2">
      <path
         fill="#000"
         opacity=".05"
         sodipodi:type="inkscape:offset"
         inkscape:radius="0.75"
         transform="translate(16,17) scale(4)"
         inkscape:original="m8 2v1h2v10h-2v1h5v-1h-2v-10h2v-1h-3zm-6.5625 3c-0.24579 0.0232-0.43857 0.25312-0.4375 0.5v5c2e-5 0.26179 0.23821 0.49997 0.5 0.5h7.5v-1h-7v-4h7v-1h-7.5c-0.0156-5e-4 -0.0469-5e-4 -0.0625 0zm10.562 0v1h2v4h-2v1h2.5c0.26179-3e-5 0.49998-0.23821 0.5-0.5v-5c-2e-5 -0.26179-0.23821-0.49998-0.5-0.5zm-9 2v2h5v-2z"
         id="path109" />
    </g>
    <path
       d="m8 2v1h2v10h-2v1h5v-1h-2v-10h2v-1h-3zm-6.5625 3c-0.24579 0.0232-0.43857 0.25312-0.4375 0.5v5c2e-5 0.26179 0.23821 0.49997 0.5 0.5h7.5v-1h-7v-4h7v-1h-7.5c-0.0156-5e-4 -0.0469-5e-4 -0.0625 0zm10.562 0v1h2v4h-2v1h2.5c0.26179-3e-5 0.49998-0.23821 0.5-0.5v-5c-2e-5 -0.26179-0.23821-0.49998-0.5-0.5zm-9 2v2h5v-2z"
       fill="url(#a)"
       id="base"
       transform="translate(16,16) scale(4)" />
    <path
       style="opacity:0.3;fill:#000000;stroke-width:4"
       d="M 48 26 L 48 27 L 56 27 L 56 26 L 48 26 z M 60 26 L 60 27 L 68 27 L 68 26 L 60 26 z M 24 38 L 24 39 L 52 39 L 52 38 L 24 38 z M 63.998047 38 L 63.998047 39 L 71.998047 39 L 71.998047 38 L 63.998047 38 z M 27.998047 50 L 27.998047 51 L 47.998047 51 L 47.998047 50 L 27.998047 50 z M 20 56 L 20 57 C 20.00008 58.04716 20.95284 58.99988 22 59 L 52 59 L 52 58 L 22 58 C 20.95284 57.99988 20.00008 57.04716 20 56 z M 75.998047 56 C 75.997967 57.04716 75.045207 57.99988 73.998047 58 L 63.998047 58 L 63.998047 59 L 73.998047 59 C 75.045207 58.99988 75.997967 58.04716 75.998047 57 L 75.998047 56 z M 48 70 L 48 71 L 68 71 L 68 70 L 48 70 z "
       transform="translate(0,2)"
       id="path113" />
    <path
       style="fill:#ffffff;stroke-width:4"
       d="M 48 22 L 48 23 L 56 23 L 68 23 L 68 22 L 56 22 L 48 22 z M 21.75 34 C 20.76684 34.0928 19.99572 35.01248 20 36 L 20 37 C 19.99572 36.01248 20.76684 35.0928 21.75 35 C 21.8124 34.998 21.9376 34.998 22 35 L 52 35 L 52 34 L 22 34 C 21.9376 33.998 21.8124 33.998 21.75 34 z M 63.998047 34 L 63.998047 35 L 73.998047 35 C 75.045207 35.00008 75.997967 35.95284 75.998047 37 L 75.998047 36 C 75.997967 34.95284 75.045207 34.00008 73.998047 34 L 63.998047 34 z M 27.998047 42 L 27.998047 43 L 47.998047 43 L 47.998047 42 L 27.998047 42 z M 24 54 L 24 55 L 52 55 L 52 54 L 24 54 z M 63.998047 54 L 63.998047 55 L 71.998047 55 L 71.998047 54 L 63.998047 54 z M 48 66 L 48 67 L 56 67 L 56 66 L 48 66 z M 60 66 L 60 67 L 68 67 L 68 66 L 60 66 z "
       transform="translate(0,2)"
       id="path118" />
  </g>
</svg>
