<?xml version="1.0" encoding="UTF-8" standalone="no"?>
<svg
   xmlns:dc="http://purl.org/dc/elements/1.1/"
   xmlns:cc="http://creativecommons.org/ns#"
   xmlns:rdf="http://www.w3.org/1999/02/22-rdf-syntax-ns#"
   xmlns:svg="http://www.w3.org/2000/svg"
   xmlns="http://www.w3.org/2000/svg"
   xmlns:xlink="http://www.w3.org/1999/xlink"
   xmlns:sodipodi="http://sodipodi.sourceforge.net/DTD/sodipodi-0.dtd"
   xmlns:inkscape="http://www.inkscape.org/namespaces/inkscape"
   width="96"
   height="96"
   version="1.1"
   id="svg77"
   sodipodi:docname="sparkleshare.svg"
   inkscape:version="0.92.2 5c3e80d, 2017-08-06">
  <metadata
     id="metadata81">
    <rdf:RDF>
      <cc:Work
         rdf:about="">
        <dc:format>image/svg+xml</dc:format>
        <dc:type
           rdf:resource="http://purl.org/dc/dcmitype/StillImage" />
      </cc:Work>
    </rdf:RDF>
  </metadata>
  <sodipodi:namedview
     pagecolor="#ffffff"
     bordercolor="#666666"
     borderopacity="1"
     objecttolerance="10"
     gridtolerance="10"
     guidetolerance="10"
     inkscape:pageopacity="0"
     inkscape:pageshadow="2"
     inkscape:window-width="640"
     inkscape:window-height="480"
     id="namedview79"
     showgrid="false"
     inkscape:zoom="2.4583333"
     inkscape:cx="48"
     inkscape:cy="48"
     inkscape:window-x="0"
     inkscape:window-y="25"
     inkscape:window-maximized="0"
     inkscape:current-layer="svg77" />
  <defs
     id="defs2410">
    <linearGradient
       id="linearGradient4384">
      <stop
         id="stop4386"
         stop-color="#fff"
         offset="0" />
      <stop
         id="stop4388"
         stop-color="#fff"
         stop-opacity="0"
         offset="1" />
    </linearGradient>
    <filter
       id="filter3794"
       x="-.192"
       y="-.192"
       width="1.384"
       height="1.384">
      <feGaussianBlur
         id="feGaussianBlur3796"
         stdDeviation="5.28" />
    </filter>
    <linearGradient
       id="linearGradient3613"
       x1="48"
       x2="48"
       y1="20.221"
       y2="138.66"
       gradientUnits="userSpaceOnUse">
      <stop
         id="stop3739"
         stop-color="#fff"
         offset="0" />
      <stop
         id="stop3741"
         stop-color="#fff"
         stop-opacity="0"
         offset="1" />
    </linearGradient>
    <linearGradient
       id="buttonGradient"
       x1="48"
       x2="48"
       y1="90"
       y2="5.9877"
       gradientUnits="userSpaceOnUse">
      <stop
         id="stop3702"
         stop-color="#fe5f00"
         offset="0" />
      <stop
         id="stop3704"
         stop-color="#ffa100"
         offset="1" />
    </linearGradient>
    <linearGradient
       id="ButtonShadow-0"
       x1="45.448"
       x2="45.448"
       y1="92.54"
       y2="7.0165"
       gradientTransform="matrix(1.0059 0 0 .99417 100 0)"
       gradientUnits="userSpaceOnUse">
      <stop
         id="stop3750-8"
         offset="0" />
      <stop
         id="stop3752-5"
         stop-opacity=".58824"
         offset="1" />
    </linearGradient>
    <linearGradient
       id="linearGradient3780"
       x1="32.251"
       x2="32.251"
       y1="6.1317"
       y2="90.239"
       gradientTransform="matrix(1.0238 0 0 1.0119 -1.1429 -98.071)"
       gradientUnits="userSpaceOnUse"
       xlink:href="#ButtonShadow-0" />
    <linearGradient
       id="linearGradient3721"
       x1="32.251"
       x2="32.251"
       y1="6.1317"
       y2="90.239"
       gradientTransform="translate(0,-97)"
       gradientUnits="userSpaceOnUse"
       xlink:href="#ButtonShadow-0" />
    <clipPath
       id="clipPath4355">
      <rect
         id="rect4357"
         x="6"
         y="6"
         width="84"
         height="80"
         rx="6"
         ry="6"
         fill="#fff" />
    </clipPath>
    <linearGradient
       id="linearGradient4390"
       x1="48"
       x2="48"
       y1="88"
       y2="-40"
       gradientTransform="matrix(1,0,0,-1,0,92)"
       gradientUnits="userSpaceOnUse"
       xlink:href="#linearGradient4384" />
    <linearGradient
       id="linearGradient4429"
       x1="48"
       x2="112.12"
       y1="82"
       y2="82.455"
       gradientUnits="userSpaceOnUse"
       spreadMethod="reflect"
       xlink:href="#linearGradient4384" />
    <linearGradient
       id="linearGradient3228"
       x1="90"
       x2="48"
       y1="88"
       y2="88"
       gradientUnits="userSpaceOnUse"
       spreadMethod="reflect">
      <stop
         id="stop3894"
         stop-opacity=".58824"
         offset="0" />
      <stop
         id="stop3896"
         stop-opacity=".47059"
         offset=".1178" />
      <stop
         id="stop3898"
         stop-opacity=".39216"
         offset=".2381" />
      <stop
         id="stop3900"
         stop-opacity=".31373"
         offset="1" />
    </linearGradient>
  </defs>
  <g
     id="layer3">
    <g
       id="g32"
       fill="url(#linearGradient3780)">
      <path
         id="path3786"
         transform="scale(1,-1)"
         d="m12-95.021c-5.5111 0-10.022 4.51-10.022 10.021v71c0 5.5111 4.5104 10.021 10.021 10.021h72c5.5111 0 10.021-4.5104 10.021-10.021v-71c0-5.5111-4.5104-10.021-10.021-10.021h-72z"
         opacity=".08" />
      <path
         id="path3778"
         transform="scale(1,-1)"
         d="m12-94.035c-4.9716 0-9.0352 4.0635-9.0352 9.0352v71c0 4.9716 4.0635 9.0352 9.0352 9.0352h72c4.9716 0 9.0352-4.0635 9.0352-9.0352v-71c0-4.9716-4.0635-9.0352-9.0352-9.0352h-72z"
         opacity=".1" />
      <path
         id="path3770"
         transform="scale(1,-1)"
         d="m12-92.99c-4.4091 0-7.9902 3.5811-7.9902 7.9902v71c0 4.4091 3.5811 7.9902 7.9902 7.9902h72c4.4091 0 7.9902-3.5811 7.9902-7.9902v-71c0-4.4091-3.5811-7.9902-7.9902-7.9902h-72z"
         opacity=".2" />
      <rect
         id="rect3723"
         transform="scale(1,-1)"
         x="5"
         y="-92"
         width="86"
         height="85"
         rx="7"
         ry="7"
         opacity=".3" />
    </g>
    <rect
       id="rect3716"
       transform="scale(1,-1)"
       x="6"
       y="-91"
       width="84"
       height="84"
       rx="6"
       ry="6"
       fill="url(#linearGradient3721)"
       opacity=".45" />
  </g>
  <g
     id="layer1">
    <rect
       id="button"
       x="6"
       y="6"
       width="84"
       height="84"
       rx="6"
       ry="6"
       fill="url(#buttonGradient)" />
    <path
       id="rect4377"
       d="m12 86c-3.324 0-6-2.676-6-6v-68c0-3.324 2.676-6 6-6h72c3.324 0 6 2.676 6 6v68c0 3.324-2.676 6-6 6zm0-0.96875h72c2.8049 0 5.0312-2.2264 5.0312-5.0312v-68c0-2.8049-2.226-5.0312-5.031-5.0312h-72c-2.8049 0-5.0312 2.2263-5.0312 5.0312v68c0 2.8049 2.2264 5.0312 5.0312 5.0312z"
       fill="url(#linearGradient4390)"
       opacity=".3" />
    <path
       id="rect4414"
       d="m6 78v2c0 3.324 2.676 6 6 6h72c3.324 0 6-2.676 6-6v-2c0 3.324-2.676 6-6 6h-72c-3.324 0-6-2.676-6-6z"
       fill="url(#linearGradient4429)"
       opacity=".1" />
  </g>
  <g
     id="layer4">
    <path
       id="path3888"
       d="m6 80v4c0 3.324 2.676 6 6 6h72c3.324 0 6-2.676 6-6v-4c0 3.324-2.676 6-6 6h-72c-3.324 0-6-2.676-6-6z"
       fill="url(#linearGradient3228)" />
    <path
       id="rect4345"
       d="m6 82v2c0 3.324 2.676 6 6 6h72c3.324 0 6-2.676 6-6v-2c0 3.324-2.676 6-6 6h-72c-3.324 0-6-2.676-6-6z"
       color="#000000"
       opacity=".1" />
    <path
       id="rect4336"
       d="m6 83v1c0 3.324 2.676 6 6 6h72c3.324 0 6-2.676 6-6v-1c0 3.324-2.676 6-6 6h-72c-3.324 0-6-2.676-6-6z"
       color="#000000"
       opacity=".15" />
  </g>
  <g
     id="layer5">
    <rect
       id="rect3171"
       x="15"
       y="15"
       width="66"
       height="62"
       rx="12"
       ry="12"
       clip-path="url(#clipPath4355)"
       fill="url(#linearGradient3613)"
       filter="url(#filter3794)"
       opacity=".1"
       stroke="#fff"
       stroke-linecap="round"
       stroke-width=".5" />
  </g>
  <defs
     id="defs53">
    <filter
       id="w">
      <feGaussianBlur
         stdDeviation="0.23199685"
         id="feGaussianBlur45" />
    </filter>
    <linearGradient
       id="a"
       gradientUnits="userSpaceOnUse"
       x1="8"
       y1="0.9993503"
       x2="8"
       y2="15.0000073">
      <stop
         stop-color="#fafafa"
         offset="0"
         id="stop48" />
      <stop
         stop-color="#ebebeb"
         offset="1"
         id="stop50" />
    </linearGradient>
  </defs>
  <g
     transform="translate(0,-2)"
     id="g75">
    <path
       d="m 8.0019531,0.75 a 0.250025,0.250025 0 0 0 -0.1152343,0.0410156 0.250025,0.250025 0 0 0 -0.00195,0.001953 C 7.4999566,0.85139715 7.2320053,1.0797106 7.1035156,1.2382812 6.9479681,1.4302444 6.8394244,1.6311062 6.7363281,1.8417969 6.5278716,2.2678264 6.3422865,2.7693031 6.1621094,3.2714844 5.9818766,3.7738308 5.8083819,4.2759156 5.6601562,4.6503906 c -0.06439,0.16264 -0.1209105,0.2869612 -0.1660156,0.3789063 -0.097976,0.015648 -0.2237749,0.03116 -0.3886718,0.042969 -0.3857542,0.027624 -0.8980331,0.03983 -1.4121094,0.058594 -0.5135115,0.018743 -1.0290845,0.042026 -1.484375,0.1132812 -0.224405,0.035122 -0.4441293,0.078091 -0.6699219,0.171875 -0.2113537,0.087781 -0.58311293,0.2839038 -0.73046875,0.75 -0.1475264,0.4665969 0.0387947,0.8456298 0.15820313,1.046875 0.12641642,0.2130486 0.27504452,0.3848683 0.43554692,0.5527344 0.3240724,0.3389516 0.7247988,0.6774599 1.1269531,1.0117188 0.4026586,0.3347115 0.8092729,0.6619619 1.1035156,0.9238281 0.1293824,0.1151532 0.225407,0.209793 0.2949219,0.2832031 -0.015784,0.101761 -0.043874,0.23894 -0.085937,0.414063 -0.094363,0.392858 -0.2411555,0.906061 -0.3828125,1.421874 -0.1415224,0.515293 -0.2800684,1.032238 -0.3554688,1.503907 -0.037408,0.234021 -0.062277,0.466025 -0.046875,0.714843 0.014596,0.235823 0.072984,0.655107 0.4570313,0.949219 0.3844402,0.294403 0.8028473,0.226373 1.0234375,0.169922 0.2357216,-0.06032 0.4381499,-0.156246 0.640625,-0.263672 0.4094701,-0.217264 0.8425165,-0.510596 1.2714844,-0.80664 0.4293441,-0.296287 0.8542095,-0.597486 1.1835937,-0.808594 0.140058,-0.08976 0.2493227,-0.150653 0.3378906,-0.197266 0.08824,0.04752 0.1988832,0.110231 0.3378907,0.201172 0.3275731,0.214292 0.7490942,0.519931 1.1757812,0.820313 0.4258991,0.299841 0.855618,0.5969 1.263672,0.818359 0.201921,0.109595 0.40553,0.206967 0.640625,0.269531 0.221456,0.05893 0.638555,0.130385 1.02539,-0.160156 0.386752,-0.290478 0.446253,-0.710284 0.462891,-0.945312 0.01771,-0.250097 -0.0079,-0.479986 -0.04297,-0.712891 -0.07118,-0.472102 -0.204774,-0.992878 -0.341796,-1.509766 -0.137155,-0.517365 -0.280285,-1.032287 -0.371094,-1.425781 -0.03988,-0.172762 -0.06318,-0.308607 -0.07813,-0.412109 0.07011,-0.072825 0.166197,-0.1670908 0.296875,-0.2812504 C 12.636534,9.4849631 13.04571,9.1607597 13.451172,8.8300781 13.856156,8.4997603 14.258778,8.1640695 14.585938,7.828125 14.748074,7.6616507 14.899191,7.4908856 15.027344,7.2792969 15.14828,7.0796244 15.338689,6.7023638 15.195312,6.234375 15.05195,5.7664721 14.681181,5.5682975 14.470703,5.4785156 14.246071,5.3827006 14.027045,5.3361442 13.802734,5.2988281 13.348245,5.2232118 12.833724,5.1955621 12.320312,5.171875 11.805952,5.1481441 11.293019,5.1328525 10.908203,5.1015625 10.742247,5.0880708 10.614892,5.0692492 10.517578,5.0527344 10.473222,4.9602504 10.418363,4.8369399 10.355469,4.6738281 10.210817,4.2986667 10.043144,3.7936639 9.8671875,3.2890625 9.6913472,2.7848238 9.5091661,2.2811253 9.3046875,1.8535156 9.2038423,1.6426241 9.0977719,1.4402619 8.9433594,1.2460938 8.7988124,1.0643312 8.5069981,0.75232904 8.0253906,0.75 a 0.250025,0.250025 0 0 0 -0.023437,0 z m 0.011719,2.640625 c 0.06712,0.1738397 0.1299915,0.315175 0.1992187,0.5136719 0.17022,0.4881144 0.3399596,0.9989849 0.5097656,1.4394531 0.084566,0.2193174 0.1690064,0.4225899 0.265625,0.6113281 0.08494,0.1659095 0.1875671,0.3888914 0.4550782,0.59375 0.267616,0.2049391 0.5093872,0.2427653 0.6855466,0.2773438 0.202185,0.039685 0.413754,0.063587 0.640625,0.082031 0.455094,0.036999 0.974488,0.051315 1.470703,0.074219 0.211666,0.00977 0.36671,0.031517 0.552735,0.046875 -0.144591,0.1267759 -0.261835,0.2384536 -0.431641,0.3769531 -0.391956,0.3196922 -0.808967,0.6500186 -1.158203,0.9550781 -0.173959,0.1519626 -0.332241,0.2985793 -0.474609,0.453125 -0.124922,0.1355982 -0.295713,0.3059765 -0.398438,0.6308594 -0.102739,0.324964 -0.06424,0.5679595 -0.04102,0.7558595 0.02614,0.211469 0.06993,0.426101 0.123047,0.65625 0.106608,0.461859 0.254091,0.984061 0.386719,1.484375 0.05584,0.210644 0.08413,0.369239 0.126953,0.556641 -0.152217,-0.0995 -0.282698,-0.174356 -0.451172,-0.292969 C 10.062097,12.315054 9.6357714,12.004351 9.25,11.751953 9.0579421,11.626309 8.8751089,11.511991 8.6894531,11.417969 8.5276403,11.336026 8.3120706,11.218402 7.9785156,11.216797 c -0.3345831,-0.0017 -0.5494641,0.117399 -0.7109375,0.197265 -0.1847364,0.09136 -0.3680705,0.199625 -0.5625,0.324219 -0.3887278,0.249112 -0.8179555,0.557743 -1.2324219,0.84375 C 5.3029549,12.69914 5.171153,12.772785 5.0175781,12.871094 5.062394,12.683508 5.0925215,12.525167 5.1503906,12.314453 5.2874893,11.815284 5.4381983,11.296606 5.5488281,10.835938 5.6039842,10.606311 5.6516689,10.389051 5.6796875,10.177734 5.7045499,9.9902069 5.7443924,9.7497676 5.6445312,9.4238281 5.5445997,9.0976705 5.3756059,8.9238388 5.2519531,8.7871094 5.1108772,8.6311143 4.9517923,8.4836095 4.7792969,8.3300781 4.4328696,8.0217357 4.0219646,7.68873 3.6328125,7.3652344 3.4641009,7.2249924 3.3486217,7.1108224 3.2050781,6.9824219 3.3900626,6.968703 3.5435031,6.9490854 3.7539062,6.9414062 4.2509206,6.9232657 4.7717838,6.9114703 5.2265625,6.8789062 5.4533688,6.8626647 5.6662323,6.8424926 5.8691406,6.8046875 6.045491,6.7718288 6.287548,6.7372572 6.5566406,6.5351562 6.8260376,6.3328209 6.9293676,6.1101099 7.015625,5.9453125 7.1137757,5.7577926 7.2004849,5.5547611 7.2871094,5.3359375 7.4606278,4.8976555 7.6358739,4.3891648 7.8105469,3.9023438 7.8815466,3.7044529 7.9450971,3.5637043 8.0136719,3.390625 Z"
       id="path55"
       inkscape:original="m8.0249 0.99942c-0.38255-0.0018436-0.58872 0.22541-0.72656 0.39552-0.13784 0.17011-0.23796 0.35236-0.33789 0.55658-0.19985 0.40844-0.38283 0.90396-0.56249 1.4047-0.17966 0.50075-0.35425 1.0034-0.50585 1.3864-0.075804 0.19147-0.14685 0.35494-0.20117 0.45872-0.054316 0.10378-0.12287 0.1449-0.019531 0.067279s0.043168-0.022819-0.068359-0.0020387c-0.11153 0.02078-0.28245 0.040867-0.48046 0.055047-0.39602 0.028359-0.90797 0.040439-1.4199 0.059124-0.51194 0.018686-1.0206 0.042089-1.4551 0.11009-0.21725 0.034002-0.41496 0.074617-0.61328 0.15699-0.19832 0.082368-0.46799 0.21406-0.58788 0.59328-0.1199 0.37922 0.022374 0.65464 0.13476 0.84405 0.11239 0.18941 0.24715 0.34534 0.40234 0.50765 0.31037 0.32462 0.70474 0.65978 1.1055 0.99288 0.40072 0.3331 0.80731 0.66083 1.1094 0.92968 0.15103 0.13442 0.27574 0.25448 0.35351 0.34047 0.077769 0.085994 0.095422 0.16735 0.05664 0.040775-0.038782-0.12658-0.00791-0.047824-0.023437 0.069318-0.015531 0.11714-0.051339 0.29038-0.099608 0.49134-0.09654 0.40192-0.24359 0.91516-0.38476 1.4292-0.14117 0.51401-0.27729 1.0257-0.34961 1.4781-0.036156 0.22619-0.058684 0.43618-0.044921 0.65852 0.013762 0.22234 0.050917 0.53036 0.35937 0.76658 0.30845 0.23621 0.60129 0.17945 0.80859 0.1264 0.2073-0.05305 0.3901-0.13871 0.58593-0.24261 0.39167-0.20782 0.82072-0.49616 1.248-0.79104 0.42732-0.29489 0.85115-0.59668 1.1894-0.81347 0.16914-0.1084 0.31754-0.19402 0.41992-0.24465 0.10238-0.05063 0.182-0.04424 0.054687-0.04485-0.12731-6.14e-4 -0.047241-0.0068 0.054687 0.04485 0.10193 0.05162 0.24979 0.13871 0.41796 0.24873 0.33636 0.22004 0.75889 0.52671 1.1836 0.8257 0.42469 0.29899 0.84845 0.59169 1.2383 0.80327 0.19491 0.10579 0.37911 0.19369 0.58593 0.24873 0.20682 0.05504 0.50001 0.11294 0.81054-0.12029s0.3495-0.5403 0.36523-0.7625c0.01573-0.22219-0.0069-0.43199-0.04101-0.65852-0.06831-0.45306-0.19931-0.96683-0.33593-1.4822-0.13662-0.51535-0.28006-1.0304-0.37304-1.4333-0.04649-0.20142-0.07926-0.3761-0.09375-0.49338-0.01449-0.11729 0.01646-0.19348-0.02344-0.067279s-0.01993 0.044465 0.05859-0.040775c0.07853-0.08524 0.20326-0.20343 0.35547-0.3364 0.30442-0.26593 0.71353-0.59026 1.1172-0.91948 0.40365-0.32923 0.80199-0.66107 1.1152-0.98269 0.15662-0.16081 0.29218-0.31526 0.40624-0.50358 0.11406-0.18832 0.25911-0.46165 0.14258-0.84201-0.11654-0.38036-0.3864-0.51512-0.58398-0.5994-0.19758-0.084276-0.39438-0.12701-0.61132-0.1631-0.43389-0.072189-0.94136-0.10075-1.4531-0.12436s-1.0242-0.039182-1.4199-0.071357c-0.19788-0.016087-0.36717-0.03727-0.47851-0.059124-0.11134-0.021854-0.17296-0.078609-0.07031 0 0.10265 0.078609 0.03387 0.03702-0.01953-0.067279-0.0534-0.1043-0.12316-0.26856-0.19727-0.46076-0.14821-0.38439-0.31696-0.89001-0.49218-1.3925-0.17522-0.50246-0.35455-0.99844-0.55078-1.4088-0.098114-0.20518-0.1957-0.38923-0.33203-0.56066-0.13633-0.17143-0.3401-0.39979-0.72265-0.40164zm-0.00781 1.7105c0.135 0.30496 0.28248 0.68341 0.43164 1.1111 0.17101 0.49038 0.34123 1.0012 0.50781 1.4333 0.083287 0.216 0.16392 0.41139 0.2539 0.58716 0.089988 0.17577 0.15684 0.33515 0.38476 0.50969s0.39439 0.19355 0.58202 0.23038c0.18764 0.03683 0.39089 0.059393 0.61328 0.077473 0.44477 0.03616 0.96147 0.050344 1.4609 0.073396 0.437 0.020169 0.82888 0.05272 1.1484 0.095822-0.23631 0.22875-0.53594 0.49137-0.88085 0.77269-0.39394 0.32131-0.80825 0.64916-1.1504 0.94803-0.17106 0.14943-0.32469 0.2906-0.45703 0.43426-0.13234 0.14365-0.25515 0.25802-0.34375 0.53823-0.08859 0.28021-0.05568 0.45067-0.03125 0.64833 0.02443 0.19766 0.06689 0.40565 0.11914 0.63202 0.1045 0.45273 0.25142 0.9731 0.38476 1.4761 0.11643 0.43919 0.20608 0.83588 0.26562 1.1662-0.28118-0.1639-0.61242-0.37907-0.9746-0.63406-0.41448-0.2918-0.84072-0.60083-1.2187-0.84813-0.18901-0.12365-0.36533-0.2331-0.5371-0.32009-0.17178-0.08699-0.31497-0.17397-0.59765-0.17533-0.28268-0.0014-0.42706 0.08592-0.5996 0.17126-0.17254 0.08533-0.34896 0.19011-0.53906 0.31193-0.38019 0.24364-0.80755 0.55014-1.2246 0.83793-0.36481 0.25175-0.69965 0.46471-0.98241 0.6259 0.062407-0.32993 0.15682-0.72736 0.27734-1.1662 0.13778-0.50165 0.28798-1.0182 0.39648-1.47 0.054249-0.22585 0.098824-0.4346 0.125-0.63202 0.026174-0.19742 0.060721-0.36727-0.02539-0.64833-0.086111-0.28105-0.20878-0.39739-0.33984-0.54231-0.13106-0.14492-0.28339-0.28726-0.45312-0.43833-0.33947-0.30215-0.74953-0.63313-1.1406-0.95822-0.34205-0.28433-0.63881-0.54996-0.87304-0.78085 0.31973-0.039897 0.71003-0.069698 1.1465-0.085628 0.49963-0.018236 1.0178-0.029292 1.4629-0.061163 0.22254-0.015936 0.42727-0.036337 0.61523-0.071357 0.18795-0.03502 0.35257-0.051925 0.58203-0.22426 0.22946-0.17234 0.29713-0.33072 0.38867-0.50561s0.17457-0.36993 0.25976-0.58513c0.17039-0.43038 0.34614-0.93842 0.52148-1.4271 0.15306-0.42661 0.30362-0.80333 0.4414-1.1071z"
       transform="matrix(4,0,0,4,16,17)"
       inkscape:radius="0.25"
       sodipodi:type="inkscape:offset"
       style="color:#000000;font-variant-ligatures:normal;font-variant-position:normal;font-variant-caps:normal;font-variant-numeric:normal;font-variant-alternates:normal;font-feature-settings:normal;text-indent:0;text-decoration:none;text-decoration-line:none;text-decoration-style:solid;text-decoration-color:#000000;text-transform:none;text-orientation:mixed;dominant-baseline:auto;white-space:normal;shape-padding:0;opacity:0.15;isolation:auto;mix-blend-mode:normal;solid-color:#000000;fill:#000000;color-rendering:auto;image-rendering:auto;shape-rendering:auto"
       dominant-baseline="auto" />
    <g
       id="Bevel1">
      <path
         color="#000000"
         color-rendering="auto"
         dominant-baseline="auto"
         fill="#000"
         image-rendering="auto"
         shape-rendering="auto"
         solid-color="#000000"
         style="font-feature-settings:normal;font-variant-alternates:normal;font-variant-caps:normal;font-variant-ligatures:normal;font-variant-numeric:normal;font-variant-position:normal;isolation:auto;mix-blend-mode:normal;shape-padding:0;text-decoration-color:#000000;text-decoration-line:none;text-decoration-style:solid;text-indent:0;text-orientation:mixed;text-transform:none;white-space:normal"
         opacity=".10"
         sodipodi:type="inkscape:offset"
         inkscape:radius="0.5"
         transform="translate(16,17) scale(4)"
         inkscape:original="m8.0249 0.99942c-0.38255-0.0018436-0.58872 0.22541-0.72656 0.39552-0.13784 0.17011-0.23796 0.35236-0.33789 0.55658-0.19985 0.40844-0.38283 0.90396-0.56249 1.4047-0.17966 0.50075-0.35425 1.0034-0.50585 1.3864-0.075804 0.19147-0.14685 0.35494-0.20117 0.45872-0.054316 0.10378-0.12287 0.1449-0.019531 0.067279s0.043168-0.022819-0.068359-0.0020387c-0.11153 0.02078-0.28245 0.040867-0.48046 0.055047-0.39602 0.028359-0.90797 0.040439-1.4199 0.059124-0.51194 0.018686-1.0206 0.042089-1.4551 0.11009-0.21725 0.034002-0.41496 0.074617-0.61328 0.15699-0.19832 0.082368-0.46799 0.21406-0.58788 0.59328-0.1199 0.37922 0.022374 0.65464 0.13476 0.84405 0.11239 0.18941 0.24715 0.34534 0.40234 0.50765 0.31037 0.32462 0.70474 0.65978 1.1055 0.99288 0.40072 0.3331 0.80731 0.66083 1.1094 0.92968 0.15103 0.13442 0.27574 0.25448 0.35351 0.34047 0.077769 0.085994 0.095422 0.16735 0.05664 0.040775-0.038782-0.12658-0.00791-0.047824-0.023437 0.069318-0.015531 0.11714-0.051339 0.29038-0.099608 0.49134-0.09654 0.40192-0.24359 0.91516-0.38476 1.4292-0.14117 0.51401-0.27729 1.0257-0.34961 1.4781-0.036156 0.22619-0.058684 0.43618-0.044921 0.65852 0.013762 0.22234 0.050917 0.53036 0.35937 0.76658 0.30845 0.23621 0.60129 0.17945 0.80859 0.1264 0.2073-0.05305 0.3901-0.13871 0.58593-0.24261 0.39167-0.20782 0.82072-0.49616 1.248-0.79104 0.42732-0.29489 0.85115-0.59668 1.1894-0.81347 0.16914-0.1084 0.31754-0.19402 0.41992-0.24465 0.10238-0.05063 0.182-0.04424 0.054687-0.04485-0.12731-6.14e-4 -0.047241-0.0068 0.054687 0.04485 0.10193 0.05162 0.24979 0.13871 0.41796 0.24873 0.33636 0.22004 0.75889 0.52671 1.1836 0.8257 0.42469 0.29899 0.84845 0.59169 1.2383 0.80327 0.19491 0.10579 0.37911 0.19369 0.58593 0.24873 0.20682 0.05504 0.50001 0.11294 0.81054-0.12029s0.3495-0.5403 0.36523-0.7625c0.01573-0.22219-0.0069-0.43199-0.04101-0.65852-0.06831-0.45306-0.19931-0.96683-0.33593-1.4822-0.13662-0.51535-0.28006-1.0304-0.37304-1.4333-0.04649-0.20142-0.07926-0.3761-0.09375-0.49338-0.01449-0.11729 0.01646-0.19348-0.02344-0.067279s-0.01993 0.044465 0.05859-0.040775c0.07853-0.08524 0.20326-0.20343 0.35547-0.3364 0.30442-0.26593 0.71353-0.59026 1.1172-0.91948 0.40365-0.32923 0.80199-0.66107 1.1152-0.98269 0.15662-0.16081 0.29218-0.31526 0.40624-0.50358 0.11406-0.18832 0.25911-0.46165 0.14258-0.84201-0.11654-0.38036-0.3864-0.51512-0.58398-0.5994-0.19758-0.084276-0.39438-0.12701-0.61132-0.1631-0.43389-0.072189-0.94136-0.10075-1.4531-0.12436s-1.0242-0.039182-1.4199-0.071357c-0.19788-0.016087-0.36717-0.03727-0.47851-0.059124-0.11134-0.021854-0.17296-0.078609-0.07031 0 0.10265 0.078609 0.03387 0.03702-0.01953-0.067279-0.0534-0.1043-0.12316-0.26856-0.19727-0.46076-0.14821-0.38439-0.31696-0.89001-0.49218-1.3925-0.17522-0.50246-0.35455-0.99844-0.55078-1.4088-0.098114-0.20518-0.1957-0.38923-0.33203-0.56066-0.13633-0.17143-0.3401-0.39979-0.72265-0.40164zm-0.00781 1.7105c0.135 0.30496 0.28248 0.68341 0.43164 1.1111 0.17101 0.49038 0.34123 1.0012 0.50781 1.4333 0.083287 0.216 0.16392 0.41139 0.2539 0.58716 0.089988 0.17577 0.15684 0.33515 0.38476 0.50969s0.39439 0.19355 0.58202 0.23038c0.18764 0.03683 0.39089 0.059393 0.61328 0.077473 0.44477 0.03616 0.96147 0.050344 1.4609 0.073396 0.437 0.020169 0.82888 0.05272 1.1484 0.095822-0.23631 0.22875-0.53594 0.49137-0.88085 0.77269-0.39394 0.32131-0.80825 0.64916-1.1504 0.94803-0.17106 0.14943-0.32469 0.2906-0.45703 0.43426-0.13234 0.14365-0.25515 0.25802-0.34375 0.53823-0.08859 0.28021-0.05568 0.45067-0.03125 0.64833 0.02443 0.19766 0.06689 0.40565 0.11914 0.63202 0.1045 0.45273 0.25142 0.9731 0.38476 1.4761 0.11643 0.43919 0.20608 0.83588 0.26562 1.1662-0.28118-0.1639-0.61242-0.37907-0.9746-0.63406-0.41448-0.2918-0.84072-0.60083-1.2187-0.84813-0.18901-0.12365-0.36533-0.2331-0.5371-0.32009-0.17178-0.08699-0.31497-0.17397-0.59765-0.17533-0.28268-0.0014-0.42706 0.08592-0.5996 0.17126-0.17254 0.08533-0.34896 0.19011-0.53906 0.31193-0.38019 0.24364-0.80755 0.55014-1.2246 0.83793-0.36481 0.25175-0.69965 0.46471-0.98241 0.6259 0.062407-0.32993 0.15682-0.72736 0.27734-1.1662 0.13778-0.50165 0.28798-1.0182 0.39648-1.47 0.054249-0.22585 0.098824-0.4346 0.125-0.63202 0.026174-0.19742 0.060721-0.36727-0.02539-0.64833-0.086111-0.28105-0.20878-0.39739-0.33984-0.54231-0.13106-0.14492-0.28339-0.28726-0.45312-0.43833-0.33947-0.30215-0.74953-0.63313-1.1406-0.95822-0.34205-0.28433-0.63881-0.54996-0.87304-0.78085 0.31973-0.039897 0.71003-0.069698 1.1465-0.085628 0.49963-0.018236 1.0178-0.029292 1.4629-0.061163 0.22254-0.015936 0.42727-0.036337 0.61523-0.071357 0.18795-0.03502 0.35257-0.051925 0.58203-0.22426 0.22946-0.17234 0.29713-0.33072 0.38867-0.50561s0.17457-0.36993 0.25976-0.58513c0.17039-0.43038 0.34614-0.93842 0.52148-1.4271 0.15306-0.42661 0.30362-0.80333 0.4414-1.1071z"
         id="path58" />
    </g>
    <g
       id="Bevel2">
      <path
         color="#000000"
         color-rendering="auto"
         dominant-baseline="auto"
         fill="#000"
         image-rendering="auto"
         shape-rendering="auto"
         solid-color="#000000"
         style="font-feature-settings:normal;font-variant-alternates:normal;font-variant-caps:normal;font-variant-ligatures:normal;font-variant-numeric:normal;font-variant-position:normal;isolation:auto;mix-blend-mode:normal;shape-padding:0;text-decoration-color:#000000;text-decoration-line:none;text-decoration-style:solid;text-indent:0;text-orientation:mixed;text-transform:none;white-space:normal"
         opacity=".05"
         sodipodi:type="inkscape:offset"
         inkscape:radius="0.75"
         transform="translate(16,17) scale(4)"
         inkscape:original="m8.0249 0.99942c-0.38255-0.0018436-0.58872 0.22541-0.72656 0.39552-0.13784 0.17011-0.23796 0.35236-0.33789 0.55658-0.19985 0.40844-0.38283 0.90396-0.56249 1.4047-0.17966 0.50075-0.35425 1.0034-0.50585 1.3864-0.075804 0.19147-0.14685 0.35494-0.20117 0.45872-0.054316 0.10378-0.12287 0.1449-0.019531 0.067279s0.043168-0.022819-0.068359-0.0020387c-0.11153 0.02078-0.28245 0.040867-0.48046 0.055047-0.39602 0.028359-0.90797 0.040439-1.4199 0.059124-0.51194 0.018686-1.0206 0.042089-1.4551 0.11009-0.21725 0.034002-0.41496 0.074617-0.61328 0.15699-0.19832 0.082368-0.46799 0.21406-0.58788 0.59328-0.1199 0.37922 0.022374 0.65464 0.13476 0.84405 0.11239 0.18941 0.24715 0.34534 0.40234 0.50765 0.31037 0.32462 0.70474 0.65978 1.1055 0.99288 0.40072 0.3331 0.80731 0.66083 1.1094 0.92968 0.15103 0.13442 0.27574 0.25448 0.35351 0.34047 0.077769 0.085994 0.095422 0.16735 0.05664 0.040775-0.038782-0.12658-0.00791-0.047824-0.023437 0.069318-0.015531 0.11714-0.051339 0.29038-0.099608 0.49134-0.09654 0.40192-0.24359 0.91516-0.38476 1.4292-0.14117 0.51401-0.27729 1.0257-0.34961 1.4781-0.036156 0.22619-0.058684 0.43618-0.044921 0.65852 0.013762 0.22234 0.050917 0.53036 0.35937 0.76658 0.30845 0.23621 0.60129 0.17945 0.80859 0.1264 0.2073-0.05305 0.3901-0.13871 0.58593-0.24261 0.39167-0.20782 0.82072-0.49616 1.248-0.79104 0.42732-0.29489 0.85115-0.59668 1.1894-0.81347 0.16914-0.1084 0.31754-0.19402 0.41992-0.24465 0.10238-0.05063 0.182-0.04424 0.054687-0.04485-0.12731-6.14e-4 -0.047241-0.0068 0.054687 0.04485 0.10193 0.05162 0.24979 0.13871 0.41796 0.24873 0.33636 0.22004 0.75889 0.52671 1.1836 0.8257 0.42469 0.29899 0.84845 0.59169 1.2383 0.80327 0.19491 0.10579 0.37911 0.19369 0.58593 0.24873 0.20682 0.05504 0.50001 0.11294 0.81054-0.12029s0.3495-0.5403 0.36523-0.7625c0.01573-0.22219-0.0069-0.43199-0.04101-0.65852-0.06831-0.45306-0.19931-0.96683-0.33593-1.4822-0.13662-0.51535-0.28006-1.0304-0.37304-1.4333-0.04649-0.20142-0.07926-0.3761-0.09375-0.49338-0.01449-0.11729 0.01646-0.19348-0.02344-0.067279s-0.01993 0.044465 0.05859-0.040775c0.07853-0.08524 0.20326-0.20343 0.35547-0.3364 0.30442-0.26593 0.71353-0.59026 1.1172-0.91948 0.40365-0.32923 0.80199-0.66107 1.1152-0.98269 0.15662-0.16081 0.29218-0.31526 0.40624-0.50358 0.11406-0.18832 0.25911-0.46165 0.14258-0.84201-0.11654-0.38036-0.3864-0.51512-0.58398-0.5994-0.19758-0.084276-0.39438-0.12701-0.61132-0.1631-0.43389-0.072189-0.94136-0.10075-1.4531-0.12436s-1.0242-0.039182-1.4199-0.071357c-0.19788-0.016087-0.36717-0.03727-0.47851-0.059124-0.11134-0.021854-0.17296-0.078609-0.07031 0 0.10265 0.078609 0.03387 0.03702-0.01953-0.067279-0.0534-0.1043-0.12316-0.26856-0.19727-0.46076-0.14821-0.38439-0.31696-0.89001-0.49218-1.3925-0.17522-0.50246-0.35455-0.99844-0.55078-1.4088-0.098114-0.20518-0.1957-0.38923-0.33203-0.56066-0.13633-0.17143-0.3401-0.39979-0.72265-0.40164zm-0.00781 1.7105c0.135 0.30496 0.28248 0.68341 0.43164 1.1111 0.17101 0.49038 0.34123 1.0012 0.50781 1.4333 0.083287 0.216 0.16392 0.41139 0.2539 0.58716 0.089988 0.17577 0.15684 0.33515 0.38476 0.50969s0.39439 0.19355 0.58202 0.23038c0.18764 0.03683 0.39089 0.059393 0.61328 0.077473 0.44477 0.03616 0.96147 0.050344 1.4609 0.073396 0.437 0.020169 0.82888 0.05272 1.1484 0.095822-0.23631 0.22875-0.53594 0.49137-0.88085 0.77269-0.39394 0.32131-0.80825 0.64916-1.1504 0.94803-0.17106 0.14943-0.32469 0.2906-0.45703 0.43426-0.13234 0.14365-0.25515 0.25802-0.34375 0.53823-0.08859 0.28021-0.05568 0.45067-0.03125 0.64833 0.02443 0.19766 0.06689 0.40565 0.11914 0.63202 0.1045 0.45273 0.25142 0.9731 0.38476 1.4761 0.11643 0.43919 0.20608 0.83588 0.26562 1.1662-0.28118-0.1639-0.61242-0.37907-0.9746-0.63406-0.41448-0.2918-0.84072-0.60083-1.2187-0.84813-0.18901-0.12365-0.36533-0.2331-0.5371-0.32009-0.17178-0.08699-0.31497-0.17397-0.59765-0.17533-0.28268-0.0014-0.42706 0.08592-0.5996 0.17126-0.17254 0.08533-0.34896 0.19011-0.53906 0.31193-0.38019 0.24364-0.80755 0.55014-1.2246 0.83793-0.36481 0.25175-0.69965 0.46471-0.98241 0.6259 0.062407-0.32993 0.15682-0.72736 0.27734-1.1662 0.13778-0.50165 0.28798-1.0182 0.39648-1.47 0.054249-0.22585 0.098824-0.4346 0.125-0.63202 0.026174-0.19742 0.060721-0.36727-0.02539-0.64833-0.086111-0.28105-0.20878-0.39739-0.33984-0.54231-0.13106-0.14492-0.28339-0.28726-0.45312-0.43833-0.33947-0.30215-0.74953-0.63313-1.1406-0.95822-0.34205-0.28433-0.63881-0.54996-0.87304-0.78085 0.31973-0.039897 0.71003-0.069698 1.1465-0.085628 0.49963-0.018236 1.0178-0.029292 1.4629-0.061163 0.22254-0.015936 0.42727-0.036337 0.61523-0.071357 0.18795-0.03502 0.35257-0.051925 0.58203-0.22426 0.22946-0.17234 0.29713-0.33072 0.38867-0.50561s0.17457-0.36993 0.25976-0.58513c0.17039-0.43038 0.34614-0.93842 0.52148-1.4271 0.15306-0.42661 0.30362-0.80333 0.4414-1.1071z"
         id="path61" />
    </g>
    <path
       d="m8.0249 0.99942c-0.38255-0.0018436-0.58872 0.22541-0.72656 0.39552-0.13784 0.17011-0.23796 0.35236-0.33789 0.55658-0.19985 0.40844-0.38283 0.90396-0.56249 1.4047-0.17966 0.50075-0.35425 1.0034-0.50585 1.3864-0.075804 0.19147-0.14685 0.35494-0.20117 0.45872-0.054316 0.10378-0.12287 0.1449-0.019531 0.067279s0.043168-0.022819-0.068359-0.0020387c-0.11153 0.02078-0.28245 0.040867-0.48046 0.055047-0.39602 0.028359-0.90797 0.040439-1.4199 0.059124-0.51194 0.018686-1.0206 0.042089-1.4551 0.11009-0.21725 0.034002-0.41496 0.074617-0.61328 0.15699-0.19832 0.082368-0.46799 0.21406-0.58788 0.59328-0.1199 0.37922 0.022374 0.65464 0.13476 0.84405 0.11239 0.18941 0.24715 0.34534 0.40234 0.50765 0.31037 0.32462 0.70474 0.65978 1.1055 0.99288 0.40072 0.3331 0.80731 0.66083 1.1094 0.92968 0.15103 0.13442 0.27574 0.25448 0.35351 0.34047 0.077769 0.085994 0.095422 0.16735 0.05664 0.040775-0.038782-0.12658-0.00791-0.047824-0.023437 0.069318-0.015531 0.11714-0.051339 0.29038-0.099608 0.49134-0.09654 0.40192-0.24359 0.91516-0.38476 1.4292-0.14117 0.51401-0.27729 1.0257-0.34961 1.4781-0.036156 0.22619-0.058684 0.43618-0.044921 0.65852 0.013762 0.22234 0.050917 0.53036 0.35937 0.76658 0.30845 0.23621 0.60129 0.17945 0.80859 0.1264 0.2073-0.05305 0.3901-0.13871 0.58593-0.24261 0.39167-0.20782 0.82072-0.49616 1.248-0.79104 0.42732-0.29489 0.85115-0.59668 1.1894-0.81347 0.16914-0.1084 0.31754-0.19402 0.41992-0.24465 0.10238-0.05063 0.182-0.04424 0.054687-0.04485-0.12731-6.14e-4 -0.047241-0.0068 0.054687 0.04485 0.10193 0.05162 0.24979 0.13871 0.41796 0.24873 0.33636 0.22004 0.75889 0.52671 1.1836 0.8257 0.42469 0.29899 0.84845 0.59169 1.2383 0.80327 0.19491 0.10579 0.37911 0.19369 0.58593 0.24873 0.20682 0.05504 0.50001 0.11294 0.81054-0.12029s0.3495-0.5403 0.36523-0.7625c0.01573-0.22219-0.0069-0.43199-0.04101-0.65852-0.06831-0.45306-0.19931-0.96683-0.33593-1.4822-0.13662-0.51535-0.28006-1.0304-0.37304-1.4333-0.04649-0.20142-0.07926-0.3761-0.09375-0.49338-0.01449-0.11729 0.01646-0.19348-0.02344-0.067279s-0.01993 0.044465 0.05859-0.040775c0.07853-0.08524 0.20326-0.20343 0.35547-0.3364 0.30442-0.26593 0.71353-0.59026 1.1172-0.91948 0.40365-0.32923 0.80199-0.66107 1.1152-0.98269 0.15662-0.16081 0.29218-0.31526 0.40624-0.50358 0.11406-0.18832 0.25911-0.46165 0.14258-0.84201-0.11654-0.38036-0.3864-0.51512-0.58398-0.5994-0.19758-0.084276-0.39438-0.12701-0.61132-0.1631-0.43389-0.072189-0.94136-0.10075-1.4531-0.12436s-1.0242-0.039182-1.4199-0.071357c-0.19788-0.016087-0.36717-0.03727-0.47851-0.059124-0.11134-0.021854-0.17296-0.078609-0.07031 0 0.10265 0.078609 0.03387 0.03702-0.01953-0.067279-0.0534-0.1043-0.12316-0.26856-0.19727-0.46076-0.14821-0.38439-0.31696-0.89001-0.49218-1.3925-0.17522-0.50246-0.35455-0.99844-0.55078-1.4088-0.098114-0.20518-0.1957-0.38923-0.33203-0.56066-0.13633-0.17143-0.3401-0.39979-0.72265-0.40164zm-0.00781 1.7105c0.135 0.30496 0.28248 0.68341 0.43164 1.1111 0.17101 0.49038 0.34123 1.0012 0.50781 1.4333 0.083287 0.216 0.16392 0.41139 0.2539 0.58716 0.089988 0.17577 0.15684 0.33515 0.38476 0.50969s0.39439 0.19355 0.58202 0.23038c0.18764 0.03683 0.39089 0.059393 0.61328 0.077473 0.44477 0.03616 0.96147 0.050344 1.4609 0.073396 0.437 0.020169 0.82888 0.05272 1.1484 0.095822-0.23631 0.22875-0.53594 0.49137-0.88085 0.77269-0.39394 0.32131-0.80825 0.64916-1.1504 0.94803-0.17106 0.14943-0.32469 0.2906-0.45703 0.43426-0.13234 0.14365-0.25515 0.25802-0.34375 0.53823-0.08859 0.28021-0.05568 0.45067-0.03125 0.64833 0.02443 0.19766 0.06689 0.40565 0.11914 0.63202 0.1045 0.45273 0.25142 0.9731 0.38476 1.4761 0.11643 0.43919 0.20608 0.83588 0.26562 1.1662-0.28118-0.1639-0.61242-0.37907-0.9746-0.63406-0.41448-0.2918-0.84072-0.60083-1.2187-0.84813-0.18901-0.12365-0.36533-0.2331-0.5371-0.32009-0.17178-0.08699-0.31497-0.17397-0.59765-0.17533-0.28268-0.0014-0.42706 0.08592-0.5996 0.17126-0.17254 0.08533-0.34896 0.19011-0.53906 0.31193-0.38019 0.24364-0.80755 0.55014-1.2246 0.83793-0.36481 0.25175-0.69965 0.46471-0.98241 0.6259 0.062407-0.32993 0.15682-0.72736 0.27734-1.1662 0.13778-0.50165 0.28798-1.0182 0.39648-1.47 0.054249-0.22585 0.098824-0.4346 0.125-0.63202 0.026174-0.19742 0.060721-0.36727-0.02539-0.64833-0.086111-0.28105-0.20878-0.39739-0.33984-0.54231-0.13106-0.14492-0.28339-0.28726-0.45312-0.43833-0.33947-0.30215-0.74953-0.63313-1.1406-0.95822-0.34205-0.28433-0.63881-0.54996-0.87304-0.78085 0.31973-0.039897 0.71003-0.069698 1.1465-0.085628 0.49963-0.018236 1.0178-0.029292 1.4629-0.061163 0.22254-0.015936 0.42727-0.036337 0.61523-0.071357 0.18795-0.03502 0.35257-0.051925 0.58203-0.22426 0.22946-0.17234 0.29713-0.33072 0.38867-0.50561s0.17457-0.36993 0.25976-0.58513c0.17039-0.43038 0.34614-0.93842 0.52148-1.4271 0.15306-0.42661 0.30362-0.80333 0.4414-1.1071z"
       color="#000000"
       color-rendering="auto"
       dominant-baseline="auto"
       fill="url(#a)"
       image-rendering="auto"
       shape-rendering="auto"
       solid-color="#000000"
       style="font-feature-settings:normal;font-variant-alternates:normal;font-variant-caps:normal;font-variant-ligatures:normal;font-variant-numeric:normal;font-variant-position:normal;isolation:auto;mix-blend-mode:normal;shape-padding:0;text-decoration-color:#000000;text-decoration-line:none;text-decoration-style:solid;text-indent:0;text-orientation:mixed;text-transform:none;white-space:normal"
       id="base"
       transform="translate(16,16) scale(4)" />
    <path
       style="color:#000000;font-variant-ligatures:normal;font-variant-position:normal;font-variant-caps:normal;font-variant-numeric:normal;font-variant-alternates:normal;font-feature-settings:normal;text-indent:0;text-decoration:none;text-decoration-line:none;text-decoration-style:solid;text-decoration-color:#000000;text-transform:none;text-orientation:mixed;dominant-baseline:auto;white-space:normal;shape-padding:0;opacity:0.3;isolation:auto;mix-blend-mode:normal;solid-color:#000000;fill:#000000;stroke-width:4;color-rendering:auto;image-rendering:auto;shape-rendering:auto"
       d="M 48.068359 24.839844 C 47.517239 26.054924 46.914974 27.561138 46.302734 29.267578 C 45.601374 31.222298 44.898357 33.255043 44.216797 34.976562 C 43.876037 35.837362 43.543894 36.616846 43.177734 37.316406 C 42.811574 38.015966 42.540887 38.650484 41.623047 39.339844 C 40.705207 40.029184 40.046722 40.096248 39.294922 40.236328 C 38.543082 40.376408 37.724144 40.457744 36.833984 40.521484 C 35.053584 40.648968 32.980942 40.692685 30.982422 40.765625 C 29.236542 40.829345 27.675404 40.949787 26.396484 41.109375 C 26.68311 41.391913 27.033767 41.708914 27.365234 42.015625 C 28.447254 41.907404 29.635929 41.814768 30.982422 41.765625 C 32.980942 41.692685 35.053584 41.648968 36.833984 41.521484 C 37.724144 41.457744 38.543082 41.376408 39.294922 41.236328 C 40.046722 41.096248 40.705207 41.029184 41.623047 40.339844 C 42.540887 39.650484 42.811574 39.015966 43.177734 38.316406 C 43.543894 37.616846 43.876037 36.837362 44.216797 35.976562 C 44.898357 34.255043 45.601374 32.222298 46.302734 30.267578 C 46.914974 28.561138 47.517239 27.054924 48.068359 25.839844 C 48.608359 27.059684 49.198282 28.572443 49.794922 30.283203 C 50.478962 32.244723 51.159852 34.289178 51.826172 36.017578 C 52.15932 36.881578 52.481877 37.662154 52.841797 38.365234 C 53.201749 39.068314 53.469179 39.706137 54.380859 40.404297 C 55.292539 41.102457 55.958464 41.178852 56.708984 41.326172 C 57.459544 41.473492 58.272549 41.564399 59.162109 41.636719 C 60.941189 41.781359 63.008139 41.83748 65.005859 41.929688 C 66.350665 41.991758 67.53955 42.091624 68.621094 42.208984 C 68.955379 41.90564 69.310613 41.592251 69.599609 41.3125 C 68.321529 41.140092 66.753859 41.010368 65.005859 40.929688 C 63.008139 40.83748 60.941189 40.781359 59.162109 40.636719 C 58.272549 40.564399 57.459544 40.473492 56.708984 40.326172 C 55.958464 40.178852 55.292539 40.102457 54.380859 39.404297 C 53.469179 38.706137 53.201749 38.068314 52.841797 37.365234 C 52.481877 36.662154 52.15932 35.881578 51.826172 35.017578 C 51.159852 33.289178 50.478962 31.244723 49.794922 29.283203 C 49.198282 27.572443 48.608359 26.059684 48.068359 24.839844 z M 20.044922 40.595703 C 19.873952 41.790887 20.34027 42.69209 20.724609 43.339844 C 21.174169 44.097484 21.713224 44.721854 22.333984 45.371094 C 23.575464 46.669574 25.152819 48.009397 26.755859 49.341797 C 28.358739 50.674197 29.984999 51.985147 31.193359 53.060547 C 31.797479 53.598227 32.296342 54.079868 32.607422 54.423828 C 32.615789 54.43308 32.615027 54.436103 32.623047 54.445312 C 32.654858 54.270143 32.721838 54.00204 32.740234 53.863281 C 32.755521 53.747954 32.746372 53.702002 32.746094 53.615234 C 32.698991 53.546187 32.681866 53.506146 32.607422 53.423828 C 32.296342 53.079868 31.797479 52.598227 31.193359 52.060547 C 29.984999 50.985147 28.358739 49.674197 26.755859 48.341797 C 25.152819 47.009397 23.575464 45.669574 22.333984 44.371094 C 21.713224 43.721854 21.174169 43.097484 20.724609 42.339844 C 20.45594 41.887038 20.149607 41.309475 20.044922 40.595703 z M 75.957031 40.835938 C 75.849889 41.561602 75.532293 42.145154 75.255859 42.601562 C 74.799619 43.354842 74.257339 43.971994 73.630859 44.615234 C 72.378019 45.901714 70.784522 47.229955 69.169922 48.546875 C 67.555242 49.863755 65.918852 51.160889 64.701172 52.224609 C 64.092332 52.756489 63.593417 53.229352 63.279297 53.570312 C 63.202324 53.653873 63.183528 53.695785 63.134766 53.765625 C 63.1343 53.849618 63.124975 53.891084 63.138672 54.001953 C 63.15639 54.145361 63.223043 54.422652 63.253906 54.605469 C 63.266747 54.590678 63.265559 54.585226 63.279297 54.570312 C 63.593417 54.229352 64.092332 53.756489 64.701172 53.224609 C 65.918852 52.160889 67.555242 50.863755 69.169922 49.546875 C 70.784522 48.229955 72.378019 46.901714 73.630859 45.615234 C 74.257339 44.971994 74.799619 44.354842 75.255859 43.601562 C 75.649199 42.952134 76.129337 42.047294 75.957031 40.835938 z M 37.808594 53.896484 C 37.78514 54.123606 37.755379 54.34995 37.724609 54.582031 C 37.619905 55.371711 37.441605 56.205975 37.224609 57.109375 C 36.790609 58.916575 36.189792 60.981681 35.638672 62.988281 C 35.156592 64.743641 34.778925 66.334577 34.529297 67.654297 C 34.60545 67.610885 34.699329 67.54918 34.777344 67.503906 C 35.00946 66.434234 35.284393 65.278289 35.638672 63.988281 C 36.189792 61.981681 36.790609 59.916575 37.224609 58.109375 C 37.441605 57.205975 37.619905 56.371711 37.724609 55.582031 C 37.797505 55.032212 37.877431 54.526749 37.808594 53.896484 z M 58.072266 54.0625 C 58.011864 54.659196 58.081021 55.150029 58.146484 55.679688 C 58.244204 56.470328 58.414047 57.301551 58.623047 58.207031 C 59.041047 60.017951 59.628749 62.099328 60.162109 64.111328 C 60.504797 65.403992 60.766898 66.560322 60.988281 67.630859 C 61.062638 67.67494 61.151905 67.734965 61.224609 67.777344 C 60.986449 66.456064 60.627829 64.868088 60.162109 63.111328 C 59.628749 61.099328 59.041047 59.017951 58.623047 57.207031 C 58.414047 56.301551 58.244204 55.470328 58.146484 54.679688 C 58.120603 54.470288 58.093246 54.266813 58.072266 54.0625 z M 47.890625 65.216797 C 47.812321 65.242763 47.769678 65.247542 47.669922 65.296875 C 47.260402 65.499395 46.666794 65.841791 45.990234 66.275391 C 44.637234 67.142551 42.941702 68.349737 41.232422 69.529297 C 39.523302 70.708817 37.806914 71.862079 36.240234 72.693359 C 35.456914 73.108959 34.725684 73.451863 33.896484 73.664062 C 33.067284 73.876262 31.895909 74.103043 30.662109 73.158203 C 29.472444 72.247131 29.295136 71.075721 29.234375 70.195312 C 29.222869 70.492505 29.20578 70.787616 29.224609 71.091797 C 29.279659 71.981157 29.428297 73.213323 30.662109 74.158203 C 31.895909 75.103043 33.067284 74.876262 33.896484 74.664062 C 34.725684 74.451863 35.456914 74.108959 36.240234 73.693359 C 37.806914 72.862079 39.523302 71.708817 41.232422 70.529297 C 42.941702 69.349737 44.637234 68.142551 45.990234 67.275391 C 46.666794 66.841791 47.260402 66.499395 47.669922 66.296875 C 47.769678 66.247542 47.812321 66.242763 47.890625 66.216797 C 47.967972 66.243214 48.009929 66.247473 48.107422 66.296875 C 48.515142 66.503355 49.106617 66.852889 49.779297 67.292969 C 51.124737 68.173129 52.814832 69.399743 54.513672 70.595703 C 56.212432 71.791663 57.907397 72.962274 59.466797 73.808594 C 60.246437 74.231754 60.983267 74.582574 61.810547 74.802734 C 62.637827 75.022894 63.810614 75.255186 65.052734 74.322266 C 66.294854 73.389346 66.450752 72.160284 66.513672 71.271484 C 66.539386 70.90826 66.533828 70.553838 66.515625 70.199219 C 66.514127 70.223539 66.515399 70.247092 66.513672 70.271484 C 66.450752 71.160284 66.294854 72.389346 65.052734 73.322266 C 63.810614 74.255186 62.637827 74.022894 61.810547 73.802734 C 60.983267 73.582574 60.246437 73.231754 59.466797 72.808594 C 57.907397 71.962274 56.212432 70.791663 54.513672 69.595703 C 52.814832 68.399743 51.124737 67.173129 49.779297 66.292969 C 49.106617 65.852889 48.515142 65.503355 48.107422 65.296875 C 48.009929 65.247473 47.967972 65.243214 47.890625 65.216797 z "
       transform="translate(0,2)"
       id="path65" />
    <path
       style="color:#000000;font-variant-ligatures:normal;font-variant-position:normal;font-variant-caps:normal;font-variant-numeric:normal;font-variant-alternates:normal;font-feature-settings:normal;text-indent:0;text-decoration:none;text-decoration-line:none;text-decoration-style:solid;text-decoration-color:#000000;text-transform:none;text-orientation:mixed;dominant-baseline:auto;white-space:normal;shape-padding:0;isolation:auto;mix-blend-mode:normal;solid-color:#000000;fill:#ffffff;stroke-width:4;color-rendering:auto;image-rendering:auto;shape-rendering:auto"
       d="M 48.099609 17.998047 C 46.569409 17.990647 45.744719 18.899638 45.193359 19.580078 C 44.641999 20.260518 44.241517 20.989761 43.841797 21.806641 C 43.042397 23.440401 42.310437 25.422821 41.591797 27.425781 C 40.873157 29.428781 40.174759 31.438703 39.568359 32.970703 C 39.265143 33.736583 38.980952 34.389567 38.763672 34.804688 C 38.712762 34.901959 38.682351 34.929232 38.634766 34.996094 C 38.557123 35.022767 38.520342 35.04625 38.412109 35.066406 C 37.965989 35.149526 37.282274 35.230389 36.490234 35.287109 C 34.906154 35.400545 32.858267 35.448697 30.810547 35.523438 C 28.762787 35.598177 26.728234 35.690887 24.990234 35.962891 C 24.121234 36.098899 23.330389 36.262305 22.537109 36.591797 C 21.743829 36.921269 20.665107 37.447964 20.185547 38.964844 C 19.992581 39.575156 19.974446 40.115184 20.044922 40.595703 C 20.073926 40.392949 20.115987 40.184849 20.185547 39.964844 C 20.665107 38.447964 21.743829 37.921269 22.537109 37.591797 C 23.330389 37.262305 24.121234 37.098899 24.990234 36.962891 C 26.728234 36.690887 28.762787 36.598177 30.810547 36.523438 C 32.858267 36.448697 34.906154 36.400545 36.490234 36.287109 C 37.282274 36.230389 37.965989 36.149526 38.412109 36.066406 C 38.520342 36.04625 38.557123 36.022767 38.634766 35.996094 C 38.682351 35.929232 38.712762 35.901959 38.763672 35.804688 C 38.980952 35.389567 39.265143 34.736583 39.568359 33.970703 C 40.174759 32.438703 40.873157 30.428781 41.591797 28.425781 C 42.310437 26.422821 43.042397 24.440401 43.841797 22.806641 C 44.241517 21.989761 44.641999 21.260518 45.193359 20.580078 C 45.744719 19.899638 46.569409 18.990647 48.099609 18.998047 C 49.629809 19.005447 50.444914 19.917796 50.990234 20.603516 C 51.535554 21.289236 51.925903 22.024983 52.318359 22.845703 C 53.103279 24.487143 53.820604 26.472582 54.521484 28.482422 C 55.222364 30.492382 55.897394 32.513221 56.490234 34.050781 C 56.786674 34.819581 57.065697 35.477331 57.279297 35.894531 C 57.329998 35.993558 57.360563 36.022157 57.408203 36.089844 C 57.487474 36.118476 57.527471 36.142235 57.638672 36.164062 C 58.084032 36.251479 58.761214 36.336041 59.552734 36.400391 C 61.135534 36.529091 63.185462 36.591107 65.232422 36.685547 C 67.279382 36.779987 69.309362 36.894838 71.044922 37.183594 C 71.912682 37.327954 72.699914 37.498834 73.490234 37.835938 C 74.280554 38.173057 75.360012 38.710982 75.826172 40.232422 C 75.890434 40.442177 75.929477 40.642226 75.957031 40.835938 C 76.026722 40.363929 76.009872 39.832028 75.826172 39.232422 C 75.360012 37.710982 74.280554 37.173057 73.490234 36.835938 C 72.699914 36.498834 71.912682 36.327954 71.044922 36.183594 C 69.309362 35.894838 67.279382 35.779987 65.232422 35.685547 C 63.185462 35.591107 61.135534 35.529091 59.552734 35.400391 C 58.761214 35.336041 58.084032 35.251479 57.638672 35.164062 C 57.527471 35.142235 57.487474 35.118476 57.408203 35.089844 C 57.360563 35.022157 57.329998 34.993558 57.279297 34.894531 C 57.065697 34.477331 56.786674 33.819581 56.490234 33.050781 C 55.897394 31.513221 55.222364 29.492382 54.521484 27.482422 C 53.820604 25.472582 53.103279 23.487143 52.318359 21.845703 C 51.925903 21.024983 51.535554 20.289236 50.990234 19.603516 C 50.444914 18.917796 49.629809 18.005447 48.099609 17.998047 z M 27.365234 42.015625 C 27.044293 42.047725 26.68905 42.072868 26.396484 42.109375 C 27.333404 43.032935 28.520472 44.095102 29.888672 45.232422 C 31.452952 46.532782 33.093292 47.855853 34.451172 49.064453 C 35.130092 49.668733 35.739432 50.238679 36.263672 50.818359 C 36.787912 51.398039 37.278603 51.864081 37.623047 52.988281 C 37.72767 53.329763 37.778563 53.621529 37.808594 53.896484 C 37.864943 53.3508 37.866261 52.782116 37.623047 51.988281 C 37.278603 50.864081 36.787912 50.398039 36.263672 49.818359 C 35.739432 49.238679 35.130092 48.668733 34.451172 48.064453 C 33.093292 46.855853 31.452952 45.532782 29.888672 44.232422 C 28.939035 43.443034 28.117268 42.711491 27.365234 42.015625 z M 68.621094 42.208984 C 67.862009 42.897811 67.034003 43.623058 66.076172 44.404297 C 64.500412 45.689537 62.843209 46.999832 61.474609 48.195312 C 60.790369 48.793033 60.175844 49.358954 59.646484 49.933594 C 59.117124 50.508194 58.625884 50.965097 58.271484 52.085938 C 58.010976 52.909925 58.014029 53.495379 58.072266 54.0625 C 58.102028 53.768486 58.154514 53.455915 58.271484 53.085938 C 58.625884 51.965097 59.117124 51.508194 59.646484 50.933594 C 60.175844 50.358954 60.790369 49.793033 61.474609 49.195312 C 62.843209 47.999832 64.500412 46.689537 66.076172 45.404297 C 67.455812 44.279017 68.654369 43.2275 69.599609 42.3125 C 69.304807 42.272732 68.945358 42.244171 68.621094 42.208984 z M 32.623047 54.445312 C 32.547438 54.861654 32.477695 55.262334 32.341797 55.828125 C 31.955637 57.435805 31.367414 59.488762 30.802734 61.544922 C 30.238054 63.600962 29.693577 65.649384 29.404297 67.458984 C 29.259673 68.363744 29.169557 69.202437 29.224609 70.091797 C 29.226579 70.123619 29.23212 70.162642 29.234375 70.195312 C 29.256511 69.623578 29.309138 69.054296 29.404297 68.458984 C 29.693577 66.649384 30.238054 64.600962 30.802734 62.544922 C 31.367414 60.488762 31.955637 58.435805 32.341797 56.828125 C 32.534873 56.024285 32.678114 55.33184 32.740234 54.863281 C 32.755521 54.747954 32.746372 54.702002 32.746094 54.615234 C 32.704285 54.553947 32.686379 54.518041 32.623047 54.445312 z M 63.253906 54.605469 C 63.194797 54.673555 63.174825 54.708249 63.134766 54.765625 C 63.1343 54.849618 63.124975 54.891084 63.138672 55.001953 C 63.196632 55.471073 63.327712 56.170882 63.513672 56.976562 C 63.885592 58.588162 64.459379 60.647584 65.005859 62.708984 C 65.552339 64.770464 66.076369 66.824479 66.349609 68.636719 C 66.430288 69.17252 66.489288 69.686132 66.515625 70.199219 C 66.568705 69.337412 66.482305 68.517969 66.349609 67.636719 C 66.076369 65.824479 65.552339 63.770464 65.005859 61.708984 C 64.459379 59.647584 63.885592 57.588162 63.513672 55.976562 C 63.384559 55.417175 63.324004 55.020687 63.253906 54.605469 z M 47.912109 59.865234 C 46.781389 59.859634 46.203832 60.209421 45.513672 60.550781 C 44.823512 60.892101 44.117822 61.311548 43.357422 61.798828 C 41.836662 62.773388 40.127184 63.999231 38.458984 65.150391 C 37.097995 66.089589 35.85802 66.87677 34.777344 67.503906 C 34.693611 67.889776 34.595474 68.304434 34.529297 68.654297 C 35.660337 68.009537 36.999744 67.157391 38.458984 66.150391 C 40.127184 64.999231 41.836662 63.773388 43.357422 62.798828 C 44.117822 62.311548 44.823512 61.892101 45.513672 61.550781 C 46.203832 61.209421 46.781389 60.859634 47.912109 60.865234 C 49.042829 60.870674 49.615614 61.218446 50.302734 61.566406 C 50.989814 61.914366 51.695132 62.353056 52.451172 62.847656 C 53.963092 63.836856 55.668252 65.073034 57.326172 66.240234 C 58.774892 67.260194 60.099889 68.121744 61.224609 68.777344 C 61.161693 68.428292 61.067763 68.015206 60.988281 67.630859 C 59.91235 66.993018 58.681244 66.194262 57.326172 65.240234 C 55.668252 64.073034 53.963092 62.836856 52.451172 61.847656 C 51.695132 61.353056 50.989814 60.914366 50.302734 60.566406 C 49.615614 60.218446 49.042829 59.870674 47.912109 59.865234 z "
       transform="translate(0,2)"
       id="path70" />
  </g>
</svg>
