<?xml version="1.0" encoding="UTF-8" standalone="no"?>
<svg
   xmlns:dc="http://purl.org/dc/elements/1.1/"
   xmlns:cc="http://creativecommons.org/ns#"
   xmlns:rdf="http://www.w3.org/1999/02/22-rdf-syntax-ns#"
   xmlns:svg="http://www.w3.org/2000/svg"
   xmlns="http://www.w3.org/2000/svg"
   xmlns:xlink="http://www.w3.org/1999/xlink"
   xmlns:sodipodi="http://sodipodi.sourceforge.net/DTD/sodipodi-0.dtd"
   xmlns:inkscape="http://www.inkscape.org/namespaces/inkscape"
   width="96"
   height="96"
   version="1.0"
   id="svg125"
   sodipodi:docname="syncthing.svg"
   inkscape:version="0.92.2 5c3e80d, 2017-08-06">
  <metadata
     id="metadata129">
    <rdf:RDF>
      <cc:Work
         rdf:about="">
        <dc:format>image/svg+xml</dc:format>
        <dc:type
           rdf:resource="http://purl.org/dc/dcmitype/StillImage" />
      </cc:Work>
    </rdf:RDF>
  </metadata>
  <sodipodi:namedview
     pagecolor="#ffffff"
     bordercolor="#666666"
     borderopacity="1"
     objecttolerance="10"
     gridtolerance="10"
     guidetolerance="10"
     inkscape:pageopacity="0"
     inkscape:pageshadow="2"
     inkscape:window-width="640"
     inkscape:window-height="480"
     id="namedview127"
     showgrid="false"
     inkscape:zoom="2.4583333"
     inkscape:cx="48"
     inkscape:cy="48"
     inkscape:window-x="0"
     inkscape:window-y="25"
     inkscape:window-maximized="0"
     inkscape:current-layer="svg125" />
  <defs
     id="defs49">
    <linearGradient
       id="linearGradient4384">
      <stop
         stop-color="#fff"
         offset="0"
         id="stop2" />
      <stop
         stop-color="#fff"
         stop-opacity="0"
         offset="1"
         id="stop4" />
    </linearGradient>
    <linearGradient
       id="ButtonShadow"
       x1="45.448"
       x2="45.448"
       y1="92.54"
       y2="7.0165"
       gradientTransform="scale(1.0059 .99417)"
       gradientUnits="userSpaceOnUse">
      <stop
         offset="0"
         id="stop7" />
      <stop
         stop-opacity=".58824"
         offset="1"
         id="stop9" />
    </linearGradient>
    <filter
       id="filter3174">
      <feGaussianBlur
         stdDeviation="1.71"
         id="feGaussianBlur12" />
    </filter>
    <filter
       id="filter3794"
       x="-.192"
       y="-.192"
       width="1.384"
       height="1.384">
      <feGaussianBlur
         stdDeviation="5.28"
         id="feGaussianBlur15" />
    </filter>
    <linearGradient
       id="linearGradient3613"
       x1="48"
       x2="48"
       y1="20.221"
       y2="138.66"
       gradientUnits="userSpaceOnUse">
      <stop
         stop-color="#fff"
         offset="0"
         id="stop18" />
      <stop
         stop-color="#fff"
         stop-opacity="0"
         offset="1"
         id="stop20" />
    </linearGradient>
    <linearGradient
       id="linearGradient3617"
       x1="48"
       x2="48"
       y1="90"
       y2="5.9877"
       gradientUnits="userSpaceOnUse">
      <stop
         stop-color="#0882c8"
         offset="0"
         id="stop23" />
      <stop
         stop-color="#26b6db"
         offset="1"
         id="stop25" />
    </linearGradient>
    <linearGradient
       id="ButtonShadow-0"
       x1="45.448"
       x2="45.448"
       y1="92.54"
       y2="7.0165"
       gradientTransform="matrix(1.0059 0 0 .99417 100 0)"
       gradientUnits="userSpaceOnUse">
      <stop
         offset="0"
         id="stop28" />
      <stop
         stop-opacity=".58824"
         offset="1"
         id="stop30" />
    </linearGradient>
    <linearGradient
       id="linearGradient3780"
       x1="32.251"
       x2="32.251"
       y1="6.1317"
       y2="90.239"
       gradientTransform="matrix(1.0238 0 0 1.0119 -1.1429 -98.071)"
       gradientUnits="userSpaceOnUse"
       xlink:href="#ButtonShadow-0" />
    <linearGradient
       id="linearGradient3721"
       x1="32.251"
       x2="32.251"
       y1="6.1317"
       y2="90.239"
       gradientTransform="translate(0,-97)"
       gradientUnits="userSpaceOnUse"
       xlink:href="#ButtonShadow-0" />
    <clipPath
       id="clipPath4355">
      <rect
         x="6"
         y="6"
         width="84"
         height="80"
         rx="6"
         ry="6"
         fill="#fff"
         id="rect35" />
    </clipPath>
    <linearGradient
       id="linearGradient4390"
       x1="48"
       x2="48"
       y1="88"
       y2="-40"
       gradientTransform="matrix(1,0,0,-1,0,92)"
       gradientUnits="userSpaceOnUse"
       xlink:href="#linearGradient4384" />
    <linearGradient
       id="linearGradient4429"
       x1="48"
       x2="112.12"
       y1="82"
       y2="82.455"
       gradientUnits="userSpaceOnUse"
       spreadMethod="reflect"
       xlink:href="#linearGradient4384" />
    <linearGradient
       id="linearGradient3870"
       x1="8"
       x2="50"
       y1="1033.4"
       y2="1033.4"
       gradientTransform="translate(-2 -956.36)"
       gradientUnits="userSpaceOnUse"
       spreadMethod="reflect">
      <stop
         stop-color="#523823"
         offset="0"
         id="stop40" />
      <stop
         stop-color="#79563a"
         offset=".1178"
         id="stop42" />
      <stop
         stop-color="#875c38"
         offset=".2381"
         id="stop44" />
      <stop
         stop-color="#a66e40"
         offset="1"
         id="stop46" />
    </linearGradient>
  </defs>
  <g
     display="none"
     id="g53">
    <rect
       x="5"
       y="7"
       width="86"
       height="85"
       rx="6"
       ry="6"
       fill="url(#ButtonShadow)"
       filter="url(#filter3174)"
       opacity=".9"
       id="rect51" />
  </g>
  <g
     id="g67">
    <g
       fill="url(#linearGradient3780)"
       id="g63">
      <path
         transform="scale(1,-1)"
         d="m12-95.031c-5.5111 0-10.031 4.5202-10.031 10.031v71c0 5.5111 4.5202 10.031 10.031 10.031h72c5.5111 0 10.031-4.5202 10.031-10.031v-71c0-5.5111-4.5202-10.031-10.031-10.031h-72z"
         opacity=".08"
         id="path55" />
      <path
         transform="scale(1,-1)"
         d="m12-94.031c-4.9716 0-9.0312 4.0596-9.0312 9.0312v71c0 4.9716 4.0596 9.0312 9.0312 9.0312h72c4.9716 0 9.0312-4.0596 9.0312-9.0312v-71c0-4.9716-4.0596-9.0312-9.0312-9.0312h-72z"
         opacity=".1"
         id="path57" />
      <path
         transform="scale(1,-1)"
         d="m12-93c-4.4091 0-8 3.5909-8 8v71c0 4.4091 3.5909 8 8 8h72c4.4091 0 8-3.5909 8-8v-71c0-4.4091-3.5909-8-8-8h-72z"
         opacity=".2"
         id="path59" />
      <rect
         transform="scale(1,-1)"
         x="5"
         y="-92"
         width="86"
         height="85"
         rx="7"
         ry="7"
         opacity=".3"
         id="rect61" />
    </g>
    <rect
       transform="scale(1,-1)"
       x="6"
       y="-91"
       width="84"
       height="84"
       rx="6"
       ry="6"
       fill="url(#linearGradient3721)"
       opacity=".45"
       id="rect65" />
  </g>
  <g
     id="g79">
    <rect
       x="6"
       y="64"
       width="84"
       height="26"
       rx="6"
       ry="6"
       color="#000000"
       fill="url(#linearGradient3870)"
       id="rect69" />
    <g
       id="g77">
      <path
         d="m6 82v2c0 3.324 2.676 6 6 6h72c3.324 0 6-2.676 6-6v-2c0 3.324-2.676 6-6 6h-72c-3.324 0-6-2.676-6-6z"
         color="#000000"
         opacity=".1"
         id="path71" />
      <path
         d="m6 83v1c0 3.324 2.676 6 6 6h72c3.324 0 6-2.676 6-6v-1c0 3.324-2.676 6-6 6h-72c-3.324 0-6-2.676-6-6z"
         color="#000000"
         opacity=".1"
         id="path73" />
      <path
         d="m6 80v1c0 3.324 2.676 6 6 6h72c3.324 0 6-2.676 6-6v-1c0 3.324-2.676 6-6 6h-72c-3.324 0-6-2.676-6-6z"
         opacity=".2"
         id="path75" />
    </g>
  </g>
  <g
     id="g87">
    <rect
       x="6"
       y="6"
       width="84"
       height="80"
       rx="6"
       ry="6"
       fill="url(#linearGradient3617)"
       id="rect81" />
    <path
       d="m12 86c-3.324 0-6-2.676-6-6v-68c0-3.324 2.676-6 6-6h72c3.324 0 6 2.676 6 6v68c0 3.324-2.676 6-6 6zm0-0.96875h72c2.8049 0 5.0312-2.2264 5.0312-5.0312v-68c0-2.8049-2.2264-5.0312-5.0312-5.0312h-72c-2.8049 0-5.0312 2.2264-5.0312 5.0312v68c0 2.8049 2.2264 5.0312 5.0312 5.0312z"
       fill="url(#linearGradient4390)"
       opacity=".3"
       id="path83" />
    <path
       d="m6 78v2c0 3.324 2.676 6 6 6h72c3.324 0 6-2.676 6-6v-2c0 3.324-2.676 6-6 6h-72c-3.324 0-6-2.676-6-6z"
       fill="url(#linearGradient4429)"
       opacity=".1"
       id="path85" />
  </g>
  <g
     id="g91">
    <rect
       x="15"
       y="15"
       width="66"
       height="62"
       rx="12"
       ry="12"
       clip-path="url(#clipPath4355)"
       fill="url(#linearGradient3613)"
       filter="url(#filter3794)"
       opacity=".1"
       stroke="#fff"
       stroke-linecap="round"
       stroke-width=".5"
       id="rect89" />
  </g>
  <defs
     id="defs101">
    <filter
       id="w">
      <feGaussianBlur
         stdDeviation="0.23199685"
         id="feGaussianBlur93" />
    </filter>
    <linearGradient
       id="a"
       gradientUnits="userSpaceOnUse"
       x1="8"
       y1="0.99993"
       x2="8"
       y2="13.99995">
      <stop
         stop-color="#fafafa"
         offset="0"
         id="stop96" />
      <stop
         stop-color="#ebebeb"
         offset="1"
         id="stop98" />
    </linearGradient>
  </defs>
  <g
     transform="translate(0,-2)"
     id="g123">
    <path
       style="opacity:0.15;fill:#000000"
       d="m 8.2246094,0.75 a 0.250025,0.250025 0 0 0 -0.048828,0.005859 C 4.4279666,0.78258839 1.3808594,3.7940445 1.3808594,7.5 c 0,0.1135126 0.00824,0.2117216 0.015625,0.3105469 C 1.2372625,7.922804 1.0743747,8.035979 0.96484375,8.2167969 0.5353799,8.9277821 0.7745609,9.8589637 1.4941406,10.28125 1.6806165,10.391023 1.8818873,10.418031 2.0800781,10.441406 3.1918607,12.691551 5.5232936,14.25 8.2246094,14.25 c 1.1714009,0 2.2677466,-0.306687 3.2324216,-0.820312 0.174786,0.09575 0.354913,0.189844 0.570313,0.208984 0.832506,0.07348 1.579494,-0.536972 1.654297,-1.363281 0.0191,-0.210341 -0.0431,-0.397871 -0.105469,-0.582032 0.930499,-1.152703 1.492187,-2.6088344 1.492187,-4.193359 0,-0.5862005 -0.0877,-1.149428 -0.230468,-1.6894531 C 14.967178,5.6693161 15.097639,5.5246533 15.166016,5.3300781 15.44098,4.5472141 15.014702,3.6852666 14.224609,3.4160156 14.019694,3.3460273 13.815527,3.3583758 13.615234,3.375 12.362238,1.7859983 10.418264,0.75 8.2246094,0.75 Z m 0,1.3359375 c 1.7122332,0 3.2216656,0.778085 4.2285156,1.9804687 -0.05817,0.09053 -0.126151,0.1712625 -0.164063,0.2792969 -0.09724,0.2773707 -0.08429,0.5569658 -0.02148,0.8203125 L 10.052734,6.9863281 C 9.6058002,6.7994613 9.089009,6.7846196 8.6503906,7.0644531 8.373236,7.24139 8.1954274,7.5033469 8.0839844,7.7851562 L 3.5507812,8.2011719 C 3.425769,8.002836 3.2665543,7.8219412 3.0507812,7.6953125 2.9481759,7.6350825 2.8394101,7.6145643 2.7324219,7.5820312 2.7310154,7.5562111 2.7285156,7.5231253 2.7285156,7.5 c 0,-2.9968391 2.4497613,-5.4140625 5.4960938,-5.4140625 z m 4.8906246,4.1191406 c 0.03923,0.016747 0.07705,0.039059 0.117188,0.052734 0.109564,0.037388 0.219614,0.03509 0.330078,0.046875 0.0902,0.3878794 0.158203,0.7829454 0.158203,1.1953125 0,1.2182147 -0.415016,2.3308018 -1.101562,3.234375 -0.104573,-0.03435 -0.202153,-0.07954 -0.31836,-0.08984 -0.123222,-0.01086 -0.235125,0.01529 -0.349609,0.0332 L 10.785156,9.0175781 c 0.16699,-0.3125946 0.215061,-0.6624862 0.136719,-1.0117187 z M 8.1816406,9.1171875 c 0.00655,0.011017 0.00813,0.017875 0.015625,0.029297 0.3324276,0.5066215 0.9211091,0.726504 1.4882813,0.6464844 l 1.1738281,1.6660152 c -0.09345,0.169843 -0.192125,0.340601 -0.210937,0.548828 -0.01018,0.111584 0.01872,0.212866 0.0332,0.31836 -0.7409527,0.366216 -1.5687561,0.58789 -2.4570316,0.58789 -2.1258142,0 -3.9383159,-1.194025 -4.8535156,-2.9238276 C 3.442683,9.9159554 3.523366,9.8536509 3.5800781,9.7597656 3.626428,9.6831388 3.6438475,9.6078076 3.671875,9.53125 Z"
       id="path103"
       inkscape:original="m8.2247 1c-3.6372 0-6.5946 2.915-6.5946 6.5 0 0.13592 0.013755 0.26876 0.022045 0.40262-0.18748 0.10368-0.35474 0.24931-0.47288 0.44434-0.35909 0.59448-0.16195 1.3651 0.44161 1.7193 0.19804 0.11658 0.41594 0.16722 0.63113 0.17049 1.0505 2.2187 3.3285 3.7632 5.9727 3.7632 1.169 0 2.2652-0.3047 3.2182-0.83245 0.17524 0.12006 0.37965 0.20285 0.60721 0.22307 0.69965 0.06175 1.3194-0.4478 1.3818-1.1371 0.02026-0.22307-0.02647-0.43524-0.11408-0.6257 0.9385-1.1231 1.5015-2.5622 1.5015-4.1278 0-0.60098-0.08922-1.1811-0.24472-1.7338 0.15532-0.13734 0.28198-0.31056 0.35512-0.51869 0.22964-0.65382-0.12222-1.3681-0.78569-1.5942-0.21614-0.073822-0.43784-0.082272-0.64769-0.04355-1.2039-1.5812-3.1155-2.6098-5.2716-2.6098zm0 0.83608c1.8485 0 3.487 0.85841 4.5375 2.1909-0.10012 0.11569-0.18389 0.24841-0.23737 0.40081-0.09966 0.28427-0.083 0.57782 0.0147 0.8397l-2.4196 1.9859c-0.40192-0.2338-0.91751-0.2452-1.3359 0.021728-0.28012 0.17883-0.46117 0.44974-0.53728 0.7454l-4.819 0.44252c-0.10377-0.22218-0.27477-0.41672-0.50416-0.55134-0.13699-0.080414-0.28409-0.12862-0.43241-0.15416-0.00377-0.085893-0.012907-0.17063-0.012907-0.25753 0-3.1334 2.5674-5.6639 5.7464-5.6639zm4.8503 4.0788c0.07367 0.043365 0.15305 0.078278 0.23736 0.107 0.15674 0.053486 0.31669 0.0741 0.47288 0.067136 0.11731 0.45171 0.18585 0.92271 0.18585 1.411 0 1.3325-0.46733 2.554-1.2457 3.5202-0.13675-0.06658-0.28613-0.11269-0.44712-0.12696-0.1559-0.01374-0.30643 0.0046-0.44897 0.04355l-1.323-1.8789c0.24344-0.33463 0.30647-0.77134 0.15823-1.1643zm-4.7491 2.9381c0.024871 0.052836 0.047952 0.10569 0.080926 0.15597 0.30805 0.46947 0.88025 0.66194 1.4003 0.52232l1.3285 1.8843c-0.12827 0.17603-0.21644 0.38327-0.23736 0.61482-0.0146 0.16004 0.0047 0.31513 0.04786 0.46066-0.80968 0.42899-1.736 0.67285-2.7214 0.67285-2.2786 0-4.2368-1.3035-5.1668-3.1938 0.11857-0.0923 0.2254-0.2036 0.30728-0.33915 0.064722-0.107 0.1048-0.22065 0.13432-0.33552z"
       transform="matrix(4,0,0,4,16,17)"
       inkscape:radius="0.25"
       sodipodi:type="inkscape:offset" />
    <g
       id="Bevel1">
      <path
         fill="#000"
         opacity=".10"
         sodipodi:type="inkscape:offset"
         inkscape:radius="0.5"
         transform="translate(16,17) scale(4)"
         inkscape:original="m8.2247 1c-3.6372 0-6.5946 2.915-6.5946 6.5 0 0.13592 0.013755 0.26876 0.022045 0.40262-0.18748 0.10368-0.35474 0.24931-0.47288 0.44434-0.35909 0.59448-0.16195 1.3651 0.44161 1.7193 0.19804 0.11658 0.41594 0.16722 0.63113 0.17049 1.0505 2.2187 3.3285 3.7632 5.9727 3.7632 1.169 0 2.2652-0.3047 3.2182-0.83245 0.17524 0.12006 0.37965 0.20285 0.60721 0.22307 0.69965 0.06175 1.3194-0.4478 1.3818-1.1371 0.02026-0.22307-0.02647-0.43524-0.11408-0.6257 0.9385-1.1231 1.5015-2.5622 1.5015-4.1278 0-0.60098-0.08922-1.1811-0.24472-1.7338 0.15532-0.13734 0.28198-0.31056 0.35512-0.51869 0.22964-0.65382-0.12222-1.3681-0.78569-1.5942-0.21614-0.073822-0.43784-0.082272-0.64769-0.04355-1.2039-1.5812-3.1155-2.6098-5.2716-2.6098zm0 0.83608c1.8485 0 3.487 0.85841 4.5375 2.1909-0.10012 0.11569-0.18389 0.24841-0.23737 0.40081-0.09966 0.28427-0.083 0.57782 0.0147 0.8397l-2.4196 1.9859c-0.40192-0.2338-0.91751-0.2452-1.3359 0.021728-0.28012 0.17883-0.46117 0.44974-0.53728 0.7454l-4.819 0.44252c-0.10377-0.22218-0.27477-0.41672-0.50416-0.55134-0.13699-0.080414-0.28409-0.12862-0.43241-0.15416-0.00377-0.085893-0.012907-0.17063-0.012907-0.25753 0-3.1334 2.5674-5.6639 5.7464-5.6639zm4.8503 4.0788c0.07367 0.043365 0.15305 0.078278 0.23736 0.107 0.15674 0.053486 0.31669 0.0741 0.47288 0.067136 0.11731 0.45171 0.18585 0.92271 0.18585 1.411 0 1.3325-0.46733 2.554-1.2457 3.5202-0.13675-0.06658-0.28613-0.11269-0.44712-0.12696-0.1559-0.01374-0.30643 0.0046-0.44897 0.04355l-1.323-1.8789c0.24344-0.33463 0.30647-0.77134 0.15823-1.1643zm-4.7491 2.9381c0.024871 0.052836 0.047952 0.10569 0.080926 0.15597 0.30805 0.46947 0.88025 0.66194 1.4003 0.52232l1.3285 1.8843c-0.12827 0.17603-0.21644 0.38327-0.23736 0.61482-0.0146 0.16004 0.0047 0.31513 0.04786 0.46066-0.80968 0.42899-1.736 0.67285-2.7214 0.67285-2.2786 0-4.2368-1.3035-5.1668-3.1938 0.11857-0.0923 0.2254-0.2036 0.30728-0.33915 0.064722-0.107 0.1048-0.22065 0.13432-0.33552z"
         id="path106" />
    </g>
    <g
       id="Bevel2">
      <path
         fill="#000"
         opacity=".05"
         sodipodi:type="inkscape:offset"
         inkscape:radius="0.75"
         transform="translate(16,17) scale(4)"
         inkscape:original="m8.2247 1c-3.6372 0-6.5946 2.915-6.5946 6.5 0 0.13592 0.013755 0.26876 0.022045 0.40262-0.18748 0.10368-0.35474 0.24931-0.47288 0.44434-0.35909 0.59448-0.16195 1.3651 0.44161 1.7193 0.19804 0.11658 0.41594 0.16722 0.63113 0.17049 1.0505 2.2187 3.3285 3.7632 5.9727 3.7632 1.169 0 2.2652-0.3047 3.2182-0.83245 0.17524 0.12006 0.37965 0.20285 0.60721 0.22307 0.69965 0.06175 1.3194-0.4478 1.3818-1.1371 0.02026-0.22307-0.02647-0.43524-0.11408-0.6257 0.9385-1.1231 1.5015-2.5622 1.5015-4.1278 0-0.60098-0.08922-1.1811-0.24472-1.7338 0.15532-0.13734 0.28198-0.31056 0.35512-0.51869 0.22964-0.65382-0.12222-1.3681-0.78569-1.5942-0.21614-0.073822-0.43784-0.082272-0.64769-0.04355-1.2039-1.5812-3.1155-2.6098-5.2716-2.6098zm0 0.83608c1.8485 0 3.487 0.85841 4.5375 2.1909-0.10012 0.11569-0.18389 0.24841-0.23737 0.40081-0.09966 0.28427-0.083 0.57782 0.0147 0.8397l-2.4196 1.9859c-0.40192-0.2338-0.91751-0.2452-1.3359 0.021728-0.28012 0.17883-0.46117 0.44974-0.53728 0.7454l-4.819 0.44252c-0.10377-0.22218-0.27477-0.41672-0.50416-0.55134-0.13699-0.080414-0.28409-0.12862-0.43241-0.15416-0.00377-0.085893-0.012907-0.17063-0.012907-0.25753 0-3.1334 2.5674-5.6639 5.7464-5.6639zm4.8503 4.0788c0.07367 0.043365 0.15305 0.078278 0.23736 0.107 0.15674 0.053486 0.31669 0.0741 0.47288 0.067136 0.11731 0.45171 0.18585 0.92271 0.18585 1.411 0 1.3325-0.46733 2.554-1.2457 3.5202-0.13675-0.06658-0.28613-0.11269-0.44712-0.12696-0.1559-0.01374-0.30643 0.0046-0.44897 0.04355l-1.323-1.8789c0.24344-0.33463 0.30647-0.77134 0.15823-1.1643zm-4.7491 2.9381c0.024871 0.052836 0.047952 0.10569 0.080926 0.15597 0.30805 0.46947 0.88025 0.66194 1.4003 0.52232l1.3285 1.8843c-0.12827 0.17603-0.21644 0.38327-0.23736 0.61482-0.0146 0.16004 0.0047 0.31513 0.04786 0.46066-0.80968 0.42899-1.736 0.67285-2.7214 0.67285-2.2786 0-4.2368-1.3035-5.1668-3.1938 0.11857-0.0923 0.2254-0.2036 0.30728-0.33915 0.064722-0.107 0.1048-0.22065 0.13432-0.33552z"
         id="path109" />
    </g>
    <path
       d="m8.2247 1c-3.6372 0-6.5946 2.915-6.5946 6.5 0 0.13592 0.013755 0.26876 0.022045 0.40262-0.18748 0.10368-0.35474 0.24931-0.47288 0.44434-0.35909 0.59448-0.16195 1.3651 0.44161 1.7193 0.19804 0.11658 0.41594 0.16722 0.63113 0.17049 1.0505 2.2187 3.3285 3.7632 5.9727 3.7632 1.169 0 2.2652-0.3047 3.2182-0.83245 0.17524 0.12006 0.37965 0.20285 0.60721 0.22307 0.69965 0.06175 1.3194-0.4478 1.3818-1.1371 0.02026-0.22307-0.02647-0.43524-0.11408-0.6257 0.9385-1.1231 1.5015-2.5622 1.5015-4.1278 0-0.60098-0.08922-1.1811-0.24472-1.7338 0.15532-0.13734 0.28198-0.31056 0.35512-0.51869 0.22964-0.65382-0.12222-1.3681-0.78569-1.5942-0.21614-0.073822-0.43784-0.082272-0.64769-0.04355-1.2039-1.5812-3.1155-2.6098-5.2716-2.6098zm0 0.83608c1.8485 0 3.487 0.85841 4.5375 2.1909-0.10012 0.11569-0.18389 0.24841-0.23737 0.40081-0.09966 0.28427-0.083 0.57782 0.0147 0.8397l-2.4196 1.9859c-0.40192-0.2338-0.91751-0.2452-1.3359 0.021728-0.28012 0.17883-0.46117 0.44974-0.53728 0.7454l-4.819 0.44252c-0.10377-0.22218-0.27477-0.41672-0.50416-0.55134-0.13699-0.080414-0.28409-0.12862-0.43241-0.15416-0.00377-0.085893-0.012907-0.17063-0.012907-0.25753 0-3.1334 2.5674-5.6639 5.7464-5.6639zm4.8503 4.0788c0.07367 0.043365 0.15305 0.078278 0.23736 0.107 0.15674 0.053486 0.31669 0.0741 0.47288 0.067136 0.11731 0.45171 0.18585 0.92271 0.18585 1.411 0 1.3325-0.46733 2.554-1.2457 3.5202-0.13675-0.06658-0.28613-0.11269-0.44712-0.12696-0.1559-0.01374-0.30643 0.0046-0.44897 0.04355l-1.323-1.8789c0.24344-0.33463 0.30647-0.77134 0.15823-1.1643zm-4.7491 2.9381c0.024871 0.052836 0.047952 0.10569 0.080926 0.15597 0.30805 0.46947 0.88025 0.66194 1.4003 0.52232l1.3285 1.8843c-0.12827 0.17603-0.21644 0.38327-0.23736 0.61482-0.0146 0.16004 0.0047 0.31513 0.04786 0.46066-0.80968 0.42899-1.736 0.67285-2.7214 0.67285-2.2786 0-4.2368-1.3035-5.1668-3.1938 0.11857-0.0923 0.2254-0.2036 0.30728-0.33915 0.064722-0.107 0.1048-0.22065 0.13432-0.33552z"
       fill="url(#a)"
       id="base"
       transform="translate(16,16) scale(4)" />
    <path
       style="opacity:0.3;fill:#000000;stroke-width:4"
       d="M 48.898438 21.34375 C 36.182437 21.34375 25.914062 31.4664 25.914062 44 C 25.914062 44.114123 25.925814 44.225163 25.931641 44.337891 C 26.286654 32.112646 36.407714 22.34375 48.898438 22.34375 C 56.07169 22.34375 62.448669 25.580969 66.660156 30.640625 C 66.783945 30.457525 66.905822 30.272667 67.048828 30.107422 C 62.846828 24.777462 56.292437 21.34375 48.898438 21.34375 z M 65.871094 33.775391 C 65.817051 34.276993 65.831707 34.77724 65.927734 35.259766 L 66.158203 35.070312 C 66.003688 34.656142 65.915537 34.219044 65.871094 33.775391 z M 75.966797 33.886719 C 75.926281 34.255208 75.84696 34.625201 75.71875 34.990234 C 75.42619 35.822754 74.920108 36.515093 74.298828 37.064453 C 74.373253 37.328984 74.431371 37.59956 74.498047 37.867188 C 75.025604 37.350943 75.459038 36.72928 75.71875 35.990234 C 75.964082 35.291737 76.03274 34.577908 75.966797 33.886719 z M 68.300781 37.660156 L 58.658203 45.574219 C 58.759354 45.842353 58.828279 46.117155 58.880859 46.392578 L 68.300781 38.660156 C 68.595461 38.833616 68.91276 38.973003 69.25 39.087891 C 69.87696 39.301835 70.515865 39.383325 71.140625 39.355469 C 71.565025 40.989648 71.818497 42.690816 71.865234 44.445312 C 71.868186 44.295923 71.884766 44.150106 71.884766 44 C 71.884766 42.04684 71.609865 40.162309 71.140625 38.355469 C 70.515865 38.383325 69.87696 38.301835 69.25 38.087891 C 68.91276 37.973003 68.595461 37.833616 68.300781 37.660156 z M 22.537109 44.320312 C 22.531166 44.546912 22.519531 44.772009 22.519531 45 C 22.519531 45.217457 22.542003 45.429966 22.554688 45.644531 C 22.573184 45.63404 22.590777 45.621613 22.609375 45.611328 C 22.582806 45.182322 22.552201 44.752516 22.537109 44.320312 z M 75.263672 44.630859 C 75.117583 50.648007 72.898756 56.170975 69.271484 60.511719 C 69.371041 60.72815 69.45267 60.952184 69.523438 61.181641 C 73.11893 56.737511 75.277344 51.11434 75.277344 45 C 75.277344 44.875864 75.265563 44.754547 75.263672 44.630859 z M 58.945312 47.769531 C 58.863783 48.648356 58.556771 49.501992 58.025391 50.232422 L 58.357422 50.705078 C 58.851204 49.809331 59.058378 48.784387 58.945312 47.769531 z M 49.302734 49.412109 L 29.998047 51.181641 C 29.879967 51.641121 29.719825 52.095438 29.460938 52.523438 C 29.133418 53.065638 28.706702 53.511659 28.232422 53.880859 C 28.344611 54.108893 28.472204 54.327096 28.591797 54.550781 C 28.917204 54.249912 29.221538 53.919757 29.460938 53.523438 C 29.719825 53.095438 29.879967 52.641121 29.998047 52.181641 L 49.302734 50.412109 C 49.402214 50.623453 49.495057 50.834036 49.626953 51.035156 C 50.859153 52.913036 53.148316 53.68348 55.228516 53.125 L 60.207031 60.185547 C 60.309366 60.004537 60.42107 59.829396 60.542969 59.662109 L 55.228516 52.125 C 53.148316 52.68348 50.859153 51.913036 49.626953 50.035156 C 49.495057 49.834036 49.402214 49.623453 49.302734 49.412109 z M 20.039062 50.439453 C 19.843675 52.320861 20.727855 54.234809 22.484375 55.265625 C 23.276535 55.731945 24.147053 55.934186 25.007812 55.947266 C 29.209813 64.822066 38.321637 71 48.898438 71 C 53.574438 71 57.959484 69.780922 61.771484 67.669922 C 62.472444 68.150162 63.290932 68.48162 64.201172 68.5625 C 66.999772 68.8095 69.478916 66.770872 69.728516 64.013672 C 69.756001 63.711053 69.742975 63.415902 69.712891 63.125 C 69.406853 65.824745 66.961458 67.806118 64.201172 67.5625 C 63.290932 67.48162 62.472444 67.150162 61.771484 66.669922 C 57.959484 68.780922 53.574438 70 48.898438 70 C 38.321637 70 29.209813 63.822066 25.007812 54.947266 C 24.147053 54.934186 23.276535 54.731945 22.484375 54.265625 C 21.040374 53.418211 20.191682 51.971476 20.039062 50.439453 z M 59.601562 63.068359 C 59.599731 63.086306 59.595378 63.103073 59.59375 63.121094 C 59.564852 63.437861 59.568922 63.749851 59.601562 64.054688 C 59.661954 64.023371 59.725084 63.996672 59.785156 63.964844 C 59.699196 63.674996 59.635242 63.374892 59.601562 63.068359 z "
       transform="translate(0,2)"
       id="path113" />
    <path
       style="fill:#ffffff;stroke-width:4"
       d="M 48.898438 18 C 34.349638 18 22.519531 29.66 22.519531 44 C 22.519531 44.108072 22.533365 44.213086 22.537109 44.320312 C 22.905019 30.2944 34.580948 19 48.898438 19 C 57.522838 19 65.170728 23.114653 69.986328 29.439453 C 70.825728 29.284565 71.711612 29.317993 72.576172 29.613281 C 74.521246 30.276131 75.785839 31.98999 75.966797 33.886719 C 76.216559 31.615171 74.859631 29.391448 72.576172 28.613281 C 71.711612 28.317993 70.825728 28.284565 69.986328 28.439453 C 65.170728 22.114653 57.522838 18 48.898438 18 z M 66.660156 30.640625 C 66.437282 30.970286 66.237141 31.319018 66.099609 31.710938 C 65.858585 32.398436 65.803132 33.096957 65.871094 33.775391 C 65.909378 33.420052 65.975824 33.064022 66.099609 32.710938 C 66.313529 32.101337 66.648348 31.570182 67.048828 31.107422 C 66.923378 30.948296 66.789759 30.796329 66.660156 30.640625 z M 65.927734 35.259766 L 56.480469 43.013672 C 54.872789 42.078472 52.810279 42.031899 51.136719 43.099609 C 50.016239 43.814929 49.290768 44.899391 48.986328 46.082031 L 29.710938 47.851562 C 29.295858 46.962843 28.612873 46.184964 27.695312 45.646484 C 27.147353 45.324828 26.558124 45.131457 25.964844 45.029297 C 25.954715 44.798525 25.94356 44.568513 25.931641 44.337891 C 25.925238 44.558379 25.914062 44.777955 25.914062 45 C 25.914062 45.3476 25.949764 45.685725 25.964844 46.029297 C 26.558124 46.131457 27.147353 46.324828 27.695312 46.646484 C 28.612873 47.184964 29.295858 47.962843 29.710938 48.851562 L 48.986328 47.082031 C 49.290768 45.899391 50.016239 44.814929 51.136719 44.099609 C 52.810279 43.031899 54.872789 43.078472 56.480469 44.013672 L 66.158203 36.070312 C 66.060055 35.80723 65.982755 35.536234 65.927734 35.259766 z M 74.498047 37.867188 C 74.431321 37.932482 74.368585 38.002772 74.298828 38.064453 C 74.888709 40.161089 75.228949 42.359315 75.263672 44.630859 C 75.268776 44.420634 75.277344 44.211408 75.277344 44 C 75.277344 41.883719 74.988612 39.836232 74.498047 37.867188 z M 71.865234 44.445312 C 71.763392 49.600457 69.92814 54.324121 66.902344 58.080078 C 66.355344 57.813758 65.757241 57.629346 65.113281 57.572266 C 64.489681 57.517306 63.886566 57.592247 63.316406 57.748047 L 58.357422 50.705078 C 58.257735 50.885916 58.148332 51.063428 58.025391 51.232422 L 63.316406 58.748047 C 63.886566 58.592247 64.489681 58.517306 65.113281 58.572266 C 65.757241 58.629346 66.355344 58.813758 66.902344 59.080078 C 70.015824 55.215278 71.884766 50.33 71.884766 45 C 71.884766 44.813357 71.870172 44.630685 71.865234 44.445312 z M 22.554688 45.644531 C 21.827346 46.057101 21.177638 46.627898 20.716797 47.388672 C 20.13955 48.344315 19.936516 49.410071 20.039062 50.439453 C 20.112224 49.734969 20.325484 49.036497 20.716797 48.388672 C 21.189357 47.608552 21.859455 47.026048 22.609375 46.611328 C 22.589478 46.29005 22.573717 45.966415 22.554688 45.644531 z M 58.880859 46.392578 L 58.658203 46.574219 C 58.805474 46.964611 58.900409 47.366486 58.945312 47.769531 C 58.9877 47.312622 58.96831 46.850655 58.880859 46.392578 z M 28.591797 54.550781 C 28.472019 54.661528 28.360028 54.781525 28.232422 54.880859 C 31.952422 62.442059 39.784037 67.65625 48.898438 67.65625 C 52.840038 67.65625 56.546436 66.680804 59.785156 64.964844 C 59.697943 64.670771 59.634885 64.365901 59.601562 64.054688 C 56.406006 65.711779 52.766928 66.65625 48.898438 66.65625 C 40.058914 66.65625 32.4377 61.744112 28.591797 54.550781 z M 60.207031 60.185547 C 59.878633 60.766419 59.657549 61.414943 59.59375 62.121094 C 59.564428 62.442507 59.567601 62.759263 59.601562 63.068359 C 59.693838 62.163901 60.039872 61.352529 60.542969 60.662109 L 60.207031 60.185547 z M 69.523438 61.181641 C 69.436372 61.289256 69.360239 61.405506 69.271484 61.511719 C 69.503072 62.015179 69.65427 62.55817 69.712891 63.125 C 69.717139 63.087526 69.725098 63.051419 69.728516 63.013672 C 69.786533 62.374879 69.701772 61.759875 69.523438 61.181641 z "
       transform="translate(0,2)"
       id="path118" />
  </g>
</svg>
