<?xml version="1.0" encoding="UTF-8" standalone="no"?>
<svg
   xmlns:dc="http://purl.org/dc/elements/1.1/"
   xmlns:cc="http://creativecommons.org/ns#"
   xmlns:rdf="http://www.w3.org/1999/02/22-rdf-syntax-ns#"
   xmlns:svg="http://www.w3.org/2000/svg"
   xmlns="http://www.w3.org/2000/svg"
   xmlns:xlink="http://www.w3.org/1999/xlink"
   xmlns:sodipodi="http://sodipodi.sourceforge.net/DTD/sodipodi-0.dtd"
   xmlns:inkscape="http://www.inkscape.org/namespaces/inkscape"
   width="96"
   height="96"
   version="1.0"
   id="svg136"
   sodipodi:docname="texmaker.svg"
   inkscape:version="0.92.2 5c3e80d, 2017-08-06">
  <metadata
     id="metadata140">
    <rdf:RDF>
      <cc:Work
         rdf:about="">
        <dc:format>image/svg+xml</dc:format>
        <dc:type
           rdf:resource="http://purl.org/dc/dcmitype/StillImage" />
      </cc:Work>
    </rdf:RDF>
  </metadata>
  <sodipodi:namedview
     pagecolor="#ffffff"
     bordercolor="#666666"
     borderopacity="1"
     objecttolerance="10"
     gridtolerance="10"
     guidetolerance="10"
     inkscape:pageopacity="0"
     inkscape:pageshadow="2"
     inkscape:window-width="1366"
     inkscape:window-height="743"
     id="namedview138"
     showgrid="false"
     inkscape:zoom="4.9166667"
     inkscape:cx="29.795428"
     inkscape:cy="55.103536"
     inkscape:window-x="0"
     inkscape:window-y="25"
     inkscape:window-maximized="1"
     inkscape:current-layer="svg136" />
  <defs
     id="defs49">
    <linearGradient
       id="linearGradient4384">
      <stop
         stop-color="#fff"
         offset="0"
         id="stop2" />
      <stop
         stop-color="#fff"
         stop-opacity="0"
         offset="1"
         id="stop4" />
    </linearGradient>
    <linearGradient
       id="ButtonShadow"
       x1="45.448"
       x2="45.448"
       y1="92.54"
       y2="7.0165"
       gradientTransform="scale(1.0059 .99417)"
       gradientUnits="userSpaceOnUse">
      <stop
         offset="0"
         id="stop7" />
      <stop
         stop-opacity=".58824"
         offset="1"
         id="stop9" />
    </linearGradient>
    <filter
       id="filter3174">
      <feGaussianBlur
         stdDeviation="1.71"
         id="feGaussianBlur12" />
    </filter>
    <filter
       id="filter3794"
       x="-.192"
       y="-.192"
       width="1.384"
       height="1.384">
      <feGaussianBlur
         stdDeviation="5.28"
         id="feGaussianBlur15" />
    </filter>
    <linearGradient
       id="linearGradient3613"
       x1="48"
       x2="48"
       y1="20.221"
       y2="138.66"
       gradientUnits="userSpaceOnUse">
      <stop
         stop-color="#fff"
         offset="0"
         id="stop18" />
      <stop
         stop-color="#fff"
         stop-opacity="0"
         offset="1"
         id="stop20" />
    </linearGradient>
    <linearGradient
       id="linearGradient3617"
       x1="48"
       x2="48"
       y1="90"
       y2="5.9877"
       gradientUnits="userSpaceOnUse">
      <stop
         stop-color="#80b60c"
         offset="0"
         id="stop23" />
      <stop
         stop-color="#a8de33"
         offset="1"
         id="stop25" />
    </linearGradient>
    <linearGradient
       id="ButtonShadow-0"
       x1="45.448"
       x2="45.448"
       y1="92.54"
       y2="7.0165"
       gradientTransform="matrix(1.0059 0 0 .99417 100 0)"
       gradientUnits="userSpaceOnUse">
      <stop
         offset="0"
         id="stop28" />
      <stop
         stop-opacity=".58824"
         offset="1"
         id="stop30" />
    </linearGradient>
    <linearGradient
       id="linearGradient3780"
       x1="32.251"
       x2="32.251"
       y1="6.1317"
       y2="90.239"
       gradientTransform="matrix(1.0238 0 0 1.0119 -1.1429 -98.071)"
       gradientUnits="userSpaceOnUse"
       xlink:href="#ButtonShadow-0" />
    <linearGradient
       id="linearGradient3721"
       x1="32.251"
       x2="32.251"
       y1="6.1317"
       y2="90.239"
       gradientTransform="translate(0,-97)"
       gradientUnits="userSpaceOnUse"
       xlink:href="#ButtonShadow-0" />
    <clipPath
       id="clipPath4355">
      <rect
         x="6"
         y="6"
         width="84"
         height="80"
         rx="6"
         ry="6"
         fill="#fff"
         id="rect35" />
    </clipPath>
    <linearGradient
       id="linearGradient4390"
       x1="48"
       x2="48"
       y1="88"
       y2="-40"
       gradientTransform="matrix(1,0,0,-1,0,92)"
       gradientUnits="userSpaceOnUse"
       xlink:href="#linearGradient4384" />
    <linearGradient
       id="linearGradient4429"
       x1="48"
       x2="112.12"
       y1="82"
       y2="82.455"
       gradientUnits="userSpaceOnUse"
       spreadMethod="reflect"
       xlink:href="#linearGradient4384" />
    <linearGradient
       id="linearGradient3870"
       x1="8"
       x2="50"
       y1="1033.4"
       y2="1033.4"
       gradientTransform="translate(-2 -956.36)"
       gradientUnits="userSpaceOnUse"
       spreadMethod="reflect">
      <stop
         stop-color="#523823"
         offset="0"
         id="stop40" />
      <stop
         stop-color="#79563a"
         offset=".1178"
         id="stop42" />
      <stop
         stop-color="#875c38"
         offset=".2381"
         id="stop44" />
      <stop
         stop-color="#a66e40"
         offset="1"
         id="stop46" />
    </linearGradient>
  </defs>
  <g
     display="none"
     id="g53">
    <rect
       x="5"
       y="7"
       width="86"
       height="85"
       rx="6"
       ry="6"
       fill="url(#ButtonShadow)"
       filter="url(#filter3174)"
       opacity=".9"
       id="rect51" />
  </g>
  <g
     id="g67">
    <g
       fill="url(#linearGradient3780)"
       id="g63">
      <path
         transform="scale(1,-1)"
         d="m12-95.031c-5.5111 0-10.031 4.5202-10.031 10.031v71c0 5.5111 4.5202 10.031 10.031 10.031h72c5.5111 0 10.031-4.5202 10.031-10.031v-71c0-5.5111-4.5202-10.031-10.031-10.031h-72z"
         opacity=".08"
         id="path55" />
      <path
         transform="scale(1,-1)"
         d="m12-94.031c-4.9716 0-9.0312 4.0596-9.0312 9.0312v71c0 4.9716 4.0596 9.0312 9.0312 9.0312h72c4.9716 0 9.0312-4.0596 9.0312-9.0312v-71c0-4.9716-4.0596-9.0312-9.0312-9.0312h-72z"
         opacity=".1"
         id="path57" />
      <path
         transform="scale(1,-1)"
         d="m12-93c-4.4091 0-8 3.5909-8 8v71c0 4.4091 3.5909 8 8 8h72c4.4091 0 8-3.5909 8-8v-71c0-4.4091-3.5909-8-8-8h-72z"
         opacity=".2"
         id="path59" />
      <rect
         transform="scale(1,-1)"
         x="5"
         y="-92"
         width="86"
         height="85"
         rx="7"
         ry="7"
         opacity=".3"
         id="rect61" />
    </g>
    <rect
       transform="scale(1,-1)"
       x="6"
       y="-91"
       width="84"
       height="84"
       rx="6"
       ry="6"
       fill="url(#linearGradient3721)"
       opacity=".45"
       id="rect65" />
  </g>
  <g
     id="g79">
    <rect
       x="6"
       y="64"
       width="84"
       height="26"
       rx="6"
       ry="6"
       color="#000000"
       fill="url(#linearGradient3870)"
       id="rect69" />
    <g
       id="g77">
      <path
         d="m6 82v2c0 3.324 2.676 6 6 6h72c3.324 0 6-2.676 6-6v-2c0 3.324-2.676 6-6 6h-72c-3.324 0-6-2.676-6-6z"
         color="#000000"
         opacity=".1"
         id="path71" />
      <path
         d="m6 83v1c0 3.324 2.676 6 6 6h72c3.324 0 6-2.676 6-6v-1c0 3.324-2.676 6-6 6h-72c-3.324 0-6-2.676-6-6z"
         color="#000000"
         opacity=".1"
         id="path73" />
      <path
         d="m6 80v1c0 3.324 2.676 6 6 6h72c3.324 0 6-2.676 6-6v-1c0 3.324-2.676 6-6 6h-72c-3.324 0-6-2.676-6-6z"
         opacity=".2"
         id="path75" />
    </g>
  </g>
  <g
     id="g87">
    <rect
       x="6"
       y="6"
       width="84"
       height="80"
       rx="6"
       ry="6"
       fill="url(#linearGradient3617)"
       id="rect81" />
    <path
       d="m12 86c-3.324 0-6-2.676-6-6v-68c0-3.324 2.676-6 6-6h72c3.324 0 6 2.676 6 6v68c0 3.324-2.676 6-6 6zm0-0.96875h72c2.8049 0 5.0312-2.2264 5.0312-5.0312v-68c0-2.8049-2.2264-5.0312-5.0312-5.0312h-72c-2.8049 0-5.0312 2.2264-5.0312 5.0312v68c0 2.8049 2.2264 5.0312 5.0312 5.0312z"
       fill="url(#linearGradient4390)"
       opacity=".3"
       id="path83" />
    <path
       d="m6 78v2c0 3.324 2.676 6 6 6h72c3.324 0 6-2.676 6-6v-2c0 3.324-2.676 6-6 6h-72c-3.324 0-6-2.676-6-6z"
       fill="url(#linearGradient4429)"
       opacity=".1"
       id="path85" />
  </g>
  <g
     id="g91">
    <rect
       x="15"
       y="15"
       width="66"
       height="62"
       rx="12"
       ry="12"
       clip-path="url(#clipPath4355)"
       fill="url(#linearGradient3613)"
       filter="url(#filter3794)"
       opacity=".1"
       stroke="#fff"
       stroke-linecap="round"
       stroke-width=".5"
       id="rect89" />
  </g>
  <g
     id="g890">
    <path
       d="m 54.242,30 v 0.85936 c 1.83108,0 2.4276,0.07512 3.16408,1.17968 l 6.4376,10.078 -5.8048,9.0392 c -1.4312,2.2106 -3.59752,2.25 -4.2344,2.25 v 0.85936 c 0.52208,-0.04624 1.25368,-0.04228 1.93752,-0.04688 -0.6596,4.4344 -1.46296,6.9376 -6.8204,6.9376 h -4.6328 c -1.33156,0 -1.39064,-0.18244 -1.39064,-1.40624 v -9.9452 h 3.14844 c 3.14516,0 3.44532,1.23232 3.44532,4.2344 h 0.53124 v -9.258 h -0.53124 c 0,2.9518 -0.300168,4.164 -3.44532,4.164 h -3.14844 v -8.8204 c 0,-1.20084 0.05906,-1.375 1.39064,-1.375 h 4.5624 c 5.1592,0 5.7592,2.18792 6.2264,6.8908 h 0.60156 l -0.79688,-7.8672 h -14.5236 l -0.54688,-7.7264 h -19.25 l -0.56248,7.8672 h 0.60156 c 0.43084,-5.892 0.9002,-6.922 6.0704,-6.922 h 1.84376 c 0.63684,0.10634 0.6328,0.54064 0.6328,1.35936 v 19.3592 c 0,1.28556 -0.0977,1.67968 -2.90624,1.67968 h -0.94532 v 0.85936 c 1.59952,-0.0332 3.2626,-0.07032 4.8984,-0.07032 1.63048,0 3.30808,0.0372 4.9064,0.07032 v -0.859352 h -0.93752 c -2.76684,0 -2.85936,-0.394112 -2.85936,-1.67968 v -19.3592 c 0,-0.78568 -0.0067,-1.21428 0.59376,-1.35936 h 1.83592 c 5.0512,0 5.5872,1.03608 6.0156,6.7812 h -1.75 v 0.97656 c 2.36156,0 2.73436,-0.0049 2.73436,1.59376 v 19.1952 c 0,1.59884 -0.367436,1.60156 -2.73436,1.60156 v 0.85936 h 17.3516 l 1.03908,-7.7968 c 0.07476,-4e-5 0.17368,-0.008 0.2422,-0.008 0.8994,0 2.47396,0.0028 3.30468,0.07032 v -0.85936 c -1.03132,-0.106152 -1.33592,-0.82532 -1.33592,-1.39844 0,-0.45964 0.16764,-0.70812 0.33592,-0.96092 l 5.328,-8.3048 5.8048,9.0936 c 0.26256,0.393716 0.2578,0.50308 0.2578,0.60936 0,0.2801 -0.29364,0.88768 -1.46092,0.96092 v 0.85936 c 1.06768,-0.06752 2.69824,-0.06252 3.79688,-0.06252 0.86304,0 2.52676,-0.0052 3.33592,0.06252 v -0.85936 c -2.13536,0 -2.4704,-0.167984 -3.1328,-1.17188 l -7.336,-11.4452 4.9376,-7.6092 c 0.49412,-0.74696 1.49852,-2.28156 4.2344,-2.32032 v -0.85936 c -0.7634,0.0675 -2.02836,0.07031 -2.82812,0.07031 -1.09864,0 -2.46616,-0.0028 -3.29688,-0.07031 v 0.85936 c 1.06768,0.106256 1.32812,0.81752 1.32812,1.39064 0,0.4252 -0.16148,0.717 -0.39844,1.07032 l -4.4064,6.8048 -4.9296,-7.7032 c -0.23156,-0.387856 -0.26564,-0.49528 -0.26564,-0.60156 0,-0.320344 0.36472,-0.92788 1.46876,-0.96092 v -0.85936 c -1.06768,0.0675 -2.69824,0.07031 -3.79688,0.07031 -0.86304,0 -2.5308,-0.0028 -3.33592,-0.07031 z"
       id="base"
       style="fill:url(#a);stroke-width:4"
       inkscape:connector-curvature="0" />
    <path
       style="opacity:0.07999998;fill:#000000;stroke-width:4"
       d="m 73.335938,52.839844 c 0.157925,0.156921 0.328181,0.27368 0.544921,0.357422 -0.21674,-0.08374 -0.386996,-0.200501 -0.544921,-0.357422 z m 0.544921,0.357422 c 0.21674,0.08374 0.480221,0.134581 0.822266,0.166015 -0.342045,-0.03143 -0.605526,-0.08227 -0.822266,-0.166015 z m -3.845703,-0.195313 c -0.10966,0.09803 -0.255588,0.190082 -0.447265,0.261719 0.192466,-0.07193 0.337455,-0.163231 0.447265,-0.261719 z"
       id="path104"
       inkscape:connector-curvature="0" />
    <path
       style="opacity:0.1;fill:#000000;stroke-width:4"
       d="m 54.242188,30 v 0.859375 c 1.83108,0 2.427582,0.07513 3.164062,1.179687 l 6.4375,10.078126 -5.804688,9.039062 c -1.431199,2.2106 -3.597495,2.25 -4.234374,2.25 v 0.859375 c 0.52208,-0.04624 1.25366,-0.04227 1.9375,-0.04687 -0.6596,4.4344 -1.462873,6.9375 -6.820313,6.9375 h -4.632813 c -1.33156,0 -1.390625,-0.18245 -1.390624,-1.40625 v -9.945312 h 3.148437 c 3.14516,0 3.445312,1.232294 3.445313,4.234374 h 0.53125 V 44.78125 h -0.53125 c 0,2.9518 -0.300161,4.164063 -3.445313,4.164062 H 42.898438 V 40.125 c 0,-1.20084 0.05905,-1.375 1.390624,-1.375 h 4.5625 c 5.1592,0 5.759363,2.187745 6.226563,6.890625 h 0.601563 L 54.882812,37.773438 H 40.359375 L 39.8125,30.046875 h -19.25 L 20,37.914062 h 0.601562 c 0.43084,-5.892 0.900113,-6.921874 6.070313,-6.921874 h 1.84375 c 0.63684,0.10634 0.632812,0.540654 0.632813,1.359374 v 19.359376 c 0,1.285559 -0.09771,1.679687 -2.90625,1.679687 H 25.296875 V 54.25 c 1.59952,-0.0332 3.262637,-0.07031 4.898437,-0.07031 1.63048,0 3.30793,0.03719 4.90625,0.07031 v -0.859375 h -0.9375 c -2.76684,0 -2.859375,-0.39412 -2.859374,-1.679687 V 32.351562 c 0,-0.785679 -0.0067,-1.214294 0.59375,-1.359374 h 1.835937 c 5.0512,0 5.587225,1.03613 6.015625,6.78125 H 38 V 38.75 c 2.36156,0 2.734375,-0.0049 2.734375,1.59375 v 19.195312 c 0,1.598841 -0.367451,1.601563 -2.734375,1.601563 V 62 h 17.351562 l 1.039063,-7.796875 c 0.07476,-4e-5 0.173668,-0.0078 0.242187,-0.0078 0.8994,0 2.473968,0.0028 3.304688,0.07031 V 53.40625 c -1.03132,-0.106152 -1.335937,-0.825317 -1.335938,-1.398438 0,-0.45964 0.167658,-0.708137 0.335938,-0.960937 l 5.328125,-8.304687 5.804687,9.09375 c 0.26256,0.393715 0.257813,0.503095 0.257813,0.609374 0,0.2801 -0.293657,0.887698 -1.460937,0.960938 v 0.859375 c 1.067679,-0.06752 2.698234,-0.0625 3.796874,-0.0625 0.86304,0 2.526778,-0.0052 3.335938,0.0625 V 53.40625 c -2.13536,0 -2.470412,-0.167979 -3.132812,-1.171875 l -7.335938,-11.445313 4.9375,-7.609374 c 0.49412,-0.746961 1.498495,-2.281553 4.234375,-2.320313 V 30 c -0.7634,0.0675 -2.028365,0.07031 -2.828125,0.07031 -1.09864,0 -2.466155,-0.0028 -3.296875,-0.07031 v 0.859375 c 1.06768,0.106256 1.328125,0.817505 1.328125,1.390625 0,0.4252 -0.161477,0.716993 -0.398438,1.070312 L 65.101562,40.125 60.171875,32.421875 c -0.23156,-0.387856 -0.265625,-0.495283 -0.265625,-0.601563 0,-0.320343 0.36471,-0.927897 1.46875,-0.960937 V 30 c -1.06768,0.0675 -2.698235,0.07031 -3.796875,0.07031 -0.86304,0 -2.530817,-0.0028 -3.335937,-0.07031 z m 5.046874,1.039062 c -0.147688,0.255901 -0.382812,0.473039 -0.382812,0.78125 0,0.15999 0.05258,0.414624 0.125,0.585938 0.07242,0.171314 0.155706,0.320965 0.28125,0.53125 a 1.0001,1.0001 0 0 0 0.01563,0.02344 l 4.929687,7.703124 a 1.0001,1.0001 0 0 0 0.289063,0.289063 1.0001,1.0001 0 0 0 0,0.0078 1.0001,1.0001 0 0 0 0.140625,0.367187 l 7.335938,11.445313 a 1.0001,1.0001 0 0 0 0.0078,0.0078 c 0.112692,0.170788 0.334138,0.260905 0.46875,0.421875 -0.456604,-1.85e-4 -0.998983,0.02703 -1.546875,0.03125 0.153296,-0.257913 0.375,-0.495573 0.375,-0.789063 0,-0.03825 -0.01008,-0.315809 -0.08594,-0.53125 -0.07586,-0.21544 -0.18721,-0.398081 -0.34375,-0.632812 L 65.109375,42.203125 A 1.0001,1.0001 0 0 0 64.820312,41.90625 1.0001,1.0001 0 0 0 64.6875,41.578125 L 58.25,31.5 a 1.0001,1.0001 0 0 0 -0.01563,-0.01563 c -0.128188,-0.192251 -0.348672,-0.248556 -0.5,-0.414063 0.459852,-7.4e-5 1.003815,-0.02542 1.554687,-0.03125 z m 11.234376,0 c 0.210423,0.002 0.385822,0.01502 0.59375,0.01563 -0.22562,0.172191 -0.270869,0.294323 -0.445313,0.46875 -0.04494,-0.164773 -0.05768,-0.319168 -0.148437,-0.484376 z m -49.03125,0.0078 h 0.554687 c -0.187535,0.12087 -0.416668,0.18452 -0.578125,0.335937 z m 8.492187,0 h 0.523437 c -0.01324,0.03074 -0.06802,0.03955 -0.07812,0.07031 -0.158509,0.482784 -0.125,0.844392 -0.125,1.234374 v 19.359376 c -1e-6,0.333386 -0.0046,0.659132 0.08594,1.039062 0.03587,0.15048 0.203318,0.279895 0.289063,0.4375 -0.162325,-6.81e-4 -0.322676,-0.0078 -0.484376,-0.0078 -0.144136,-1e-6 -0.285323,0.0073 -0.429687,0.0078 0.0871,-0.157351 0.260099,-0.286542 0.296875,-0.4375 0.09314,-0.382339 0.08594,-0.705006 0.08594,-1.039062 v -19.35936 c -1e-6,-0.407715 0.04286,-0.780108 -0.132813,-1.28125 -0.004,-0.01146 -0.02677,-0.012 -0.03125,-0.02344 z m 8.328125,0 h 0.570312 l 0.02344,0.34375 c -0.16489,-0.156938 -0.401464,-0.219133 -0.59375,-0.34375 z m 2.992188,7.726563 h 0.851562 c -0.06892,0.169634 -0.197673,0.344011 -0.21875,0.492187 -0.04119,0.289588 -0.03906,0.550969 -0.03906,0.859375 v 8.820312 A 1.0001,1.0001 0 0 0 42,49.375 1.0001,1.0001 0 0 0 41.898438,49.804688 V 59.75 c -10e-7,0.313996 -0.0015,0.58362 0.03906,0.875 0.01582,0.113644 0.123477,0.246904 0.164062,0.375 h -0.703124 c 0.04785,-0.09078 0.166554,-0.143751 0.195312,-0.234375 0.130211,-0.41032 0.140625,-0.788551 0.140625,-1.226563 V 40.34375 c 0,-0.438534 -0.0091,-0.815874 -0.140625,-1.226562 -0.04276,-0.133525 -0.206341,-0.213064 -0.289062,-0.34375 z m 11.734374,0 h 0.9375 l 0.07031,0.71875 c -0.284133,-0.288722 -0.641704,-0.509108 -1.007813,-0.71875 z m -4.015624,10.304687 v 0.601563 c -0.138097,-0.102711 -0.25848,-0.216554 -0.414063,-0.296876 0.158069,-0.08019 0.273837,-0.201526 0.414063,-0.304687 z m 8.84375,3.71875 c 0.04751,0.146728 0.05788,0.285573 0.140624,0.429687 -0.18898,-0.0018 -0.345597,-0.015 -0.523437,-0.01562 0.137048,-0.10296 0.249301,-0.292678 0.382813,-0.414063 z M 54.585938,60.179688 54.476562,61 H 53.40625 c 0.416076,-0.249936 0.862237,-0.478984 1.179688,-0.820312 z"
       id="path109"
       inkscape:connector-curvature="0" />
    <path
       style="opacity:0.3;fill:#000000;stroke-width:4"
       d="m 54.242188,30 v 0.859375 c 0.958873,0 1.575525,0.02488 2.054687,0.203125 0.467764,0.0042 0.953993,0.0078 1.28125,0.0078 0.865495,0 2.005627,-0.01118 2.996094,-0.04492 0.208695,-0.09075 0.46801,-0.156057 0.800781,-0.166016 V 30 c -1.06768,0.0675 -2.698235,0.07031 -3.796875,0.07031 -0.86304,0 -2.530817,-0.0028 -3.335937,-0.07031 z m 14.335937,0 v 0.859375 c 0.247354,0.02462 0.447735,0.08374 0.615234,0.164063 0.81104,0.03543 1.801472,0.04687 2.681641,0.04687 0.386205,0 0.884604,-0.0015 1.378906,-0.0098 0.42368,-0.112566 0.892383,-0.193283 1.449219,-0.201172 V 30 c -0.7634,0.0675 -2.028365,0.07031 -2.828125,0.07031 -1.09864,0 -2.466155,-0.0028 -3.296875,-0.07031 z M 20.5625,30.046875 20,37.914062 h 0.07227 l 0.49023,-6.867187 h 4.441406 c 0.49503,-0.0367 1.044332,-0.05469 1.667969,-0.05469 h 1.84375 c 0.06099,0.01018 0.09083,0.03844 0.140625,0.05469 h 3.126953 c 0.04196,-0.01607 0.0652,-0.0426 0.115235,-0.05469 h 1.835937 c 0.609527,0 1.147034,0.01806 1.632813,0.05469 H 39.8125 l 0.546875,7.726563 h 3.523437 c 0.132999,-0.0078 0.232711,-0.02344 0.40625,-0.02344 h 4.5625 c 0.297647,0 0.575604,0.0088 0.84375,0.02344 h 5.1875 l 0.695313,6.867187 h 0.101563 L 54.882812,37.773438 H 40.359375 L 39.8125,30.046875 Z m 39.570312,2.302734 c -0.144203,0.166558 -0.226562,0.3411 -0.226562,0.470703 0,0.10628 0.03406,0.213707 0.265625,0.601563 l 4.929687,7.703125 4.40625,-6.804688 C 69.744773,33.966992 69.90625,33.6752 69.90625,33.25 c 0,-0.164916 -0.03369,-0.337726 -0.08984,-0.507812 -0.07016,0.195952 -0.174447,0.378105 -0.308594,0.578124 L 65.101562,40.125 60.171875,32.421875 c -0.02057,-0.03446 -0.02149,-0.04204 -0.03906,-0.07227 z M 38,37.773438 V 38.75 c 0.59039,0 1.056784,-0.0011 1.423828,0.02344 H 39.75 c -0.02758,-0.369884 -0.06019,-0.668175 -0.08984,-1 z m 27.853516,3.519531 -0.322266,0.496093 7.335938,11.445313 c 0.339622,0.514712 0.596499,0.807403 1.050781,0.972656 0.772714,0.0043 1.573496,0.01603 2.082031,0.05859 V 53.40625 c -2.13536,0 -2.470412,-0.167979 -3.132812,-1.171875 z m -2.330078,1.322265 -5.484376,8.541016 c -1.431199,2.2106 -3.597495,2.25 -4.234374,2.25 v 0.859375 c 0.393293,-0.03483 0.90858,-0.03999 1.429687,-0.04297 0.886474,-0.234375 1.968408,-0.774707 2.804687,-2.066406 l 5.804688,-9.039062 z m -14.03125,2.166016 c 0,2.9518 -0.300161,4.164063 -3.445313,4.164062 h -3.148437 v 0.859376 h 3.148437 c 0.418596,0 0.77971,0.02539 1.103516,0.07031 2.109079,-0.287838 2.341797,-1.534835 2.341797,-4.09375 h 0.53125 v -1 z m -20.34375,6.929688 c 0,1.285559 -0.09771,1.679687 -2.90625,1.679687 H 25.296875 V 54.25 c 0.998101,-0.02072 2.031113,-0.02917 3.056641,-0.04297 0.747964,-0.224757 0.794922,-0.679731 0.794922,-1.496093 z m 2.15625,0 v 1 c -10e-7,0.81715 0.04344,1.271568 0.78125,1.496093 1.012957,0.01385 2.033219,0.02261 3.015624,0.04297 v -0.859375 h -0.9375 c -2.76684,0 -2.859375,-0.39412 -2.859374,-1.679688 z m 27.384765,0.791015 c -0.05213,0.140379 -0.08789,0.300275 -0.08789,0.505859 1e-6,0.442843 0.185683,0.96927 0.744141,1.236329 0.19175,0.0084 0.440717,0.0092 0.591797,0.02148 V 53.40625 c -0.744062,-0.07659 -1.101999,-0.4746 -1.248048,-0.904297 z m 11.419922,0.404297 c -0.20227,0.234046 -0.564602,0.457485 -1.242187,0.5 v 0.859375 c 0.216634,-0.0137 0.511788,-0.01506 0.765624,-0.02344 0.534804,-0.218534 0.695313,-0.592998 0.695313,-0.796876 0,-0.09719 -0.01863,-0.221609 -0.21875,-0.539062 z m -14.367187,2.3125 c -0.0558,3.75e-4 -0.111674,0.0017 -0.167969,0.002 -0.653912,3.793917 -1.722181,5.935547 -6.652344,5.935547 h -4.632813 c -1.33156,0 -1.390625,-0.18245 -1.390624,-1.40625 v 1 c 0,0.722761 0.02719,1.076747 0.318359,1.25 h 7.724609 c 3.55545,-0.602549 4.235319,-2.979726 4.800782,-6.78125 z m -15.007813,4.320312 c 0,1.598841 -0.367451,1.601563 -2.734375,1.601563 V 62 h 2.070312 c 0.530498,-0.171379 0.664063,-0.55656 0.664063,-1.460938 z"
       id="path114"
       inkscape:connector-curvature="0" />
    <path
       style="opacity:0.4;fill:#000000;stroke-width:4"
       d="m 54.242188,30 v 0.859375 c 0.958873,0 1.575525,0.02488 2.054687,0.203125 0.467764,0.0042 0.953993,0.0078 1.28125,0.0078 0.865495,1e-6 2.005627,-0.01118 2.996094,-0.04492 0.208695,-0.09075 0.46801,-0.156057 0.800781,-0.166016 V 30 c -1.06768,0.0675 -2.698235,0.07031 -3.796875,0.07031 -0.86304,0 -2.530817,-0.0028 -3.335937,-0.07031 z m 14.335937,0 v 0.859375 c 0.247354,0.02462 0.447735,0.08374 0.615234,0.164063 0.81104,0.03543 1.801472,0.04687 2.681641,0.04687 0.386205,1e-6 0.884604,-0.0015 1.378906,-0.0098 0.42368,-0.112566 0.892383,-0.193283 1.449219,-0.201172 V 30 c -0.7634,0.0675 -2.028365,0.07031 -2.828125,0.07031 -1.09864,0 -2.466155,-0.0028 -3.296875,-0.07031 z M 20.5625,30.046875 20,37.914062 h 0.07227 l 0.49023,-6.867187 h 4.441406 c 0.49503,-0.0367 1.044332,-0.05469 1.667969,-0.05469 h 1.84375 c 0.06099,0.01018 0.09083,0.03844 0.140625,0.05469 h 3.126953 c 0.04196,-0.01607 0.0652,-0.0426 0.115235,-0.05469 h 1.835937 c 0.609527,0 1.147034,0.01806 1.632813,0.05469 H 39.8125 l 0.546875,7.726563 h 3.523437 c 0.132999,-0.0078 0.232711,-0.02344 0.40625,-0.02344 h 4.5625 c 0.297647,0 0.575604,0.0088 0.84375,0.02344 h 5.1875 l 0.695313,6.867187 h 0.101563 L 54.882812,37.773438 H 40.359375 L 39.8125,30.046875 Z m 39.570312,2.302734 c -0.144203,0.166558 -0.226562,0.3411 -0.226562,0.470703 0,0.10628 0.03406,0.213707 0.265625,0.601563 l 4.929687,7.703125 4.40625,-6.804688 C 69.744773,33.966993 69.90625,33.6752 69.90625,33.25 c 0,-0.164916 -0.03369,-0.337726 -0.08984,-0.507812 -0.07016,0.195952 -0.174447,0.378105 -0.308594,0.578124 L 65.101562,40.125 60.171875,32.421875 c -0.02057,-0.03446 -0.02149,-0.04204 -0.03906,-0.07227 z M 38,37.773438 V 38.75 c 0.59039,0 1.056784,-0.0011 1.423828,0.02344 H 39.75 c -0.02758,-0.369884 -0.06019,-0.668175 -0.08984,-1 z m 27.853516,3.519531 -0.322266,0.496093 7.335938,11.445313 c 0.339622,0.514712 0.596499,0.807403 1.050781,0.972656 0.772714,0.0043 1.573496,0.01603 2.082031,0.05859 V 53.40625 c -2.13536,0 -2.470412,-0.167979 -3.132812,-1.171875 z m -2.330078,1.322265 -5.484376,8.541016 c -1.431199,2.2106 -3.597495,2.25 -4.234374,2.25 v 0.859375 c 0.393293,-0.03483 0.90858,-0.03999 1.429687,-0.04297 0.886474,-0.234375 1.968408,-0.774707 2.804687,-2.066406 l 5.804688,-9.039062 z m -14.03125,2.166016 c 0,2.9518 -0.300161,4.164063 -3.445313,4.164062 h -3.148437 v 0.859376 h 3.148437 c 0.418596,0 0.77971,0.02539 1.103516,0.07031 2.109079,-0.287838 2.341797,-1.534835 2.341797,-4.09375 h 0.53125 v -1 z m -20.34375,6.929688 c 0,1.285559 -0.09771,1.679687 -2.90625,1.679687 H 25.296875 V 54.25 c 0.998101,-0.02072 2.031113,-0.02917 3.056641,-0.04297 0.747964,-0.224757 0.794922,-0.679731 0.794922,-1.496093 z m 2.15625,0 v 1 c -10e-7,0.81715 0.04344,1.271568 0.78125,1.496093 1.012957,0.01385 2.033219,0.02261 3.015624,0.04297 v -0.859375 h -0.9375 c -2.76684,0 -2.859375,-0.39412 -2.859374,-1.679688 z m 27.384765,0.791015 c -0.05213,0.140379 -0.08789,0.300275 -0.08789,0.505859 1e-6,0.442843 0.185683,0.96927 0.744141,1.236329 0.19175,0.0084 0.440717,0.0092 0.591797,0.02148 V 53.40625 c -0.744062,-0.07659 -1.101999,-0.4746 -1.248048,-0.904297 z m 11.419922,0.404297 c -0.20227,0.234046 -0.564602,0.457485 -1.242187,0.5 v 0.859375 c 0.216634,-0.0137 0.511788,-0.01506 0.765624,-0.02344 0.534804,-0.218534 0.695313,-0.592998 0.695313,-0.796876 0,-0.09719 -0.01863,-0.221609 -0.21875,-0.539062 z m -14.367187,2.3125 c -0.0558,3.75e-4 -0.111674,0.0017 -0.167969,0.002 -0.653912,3.793917 -1.722181,5.935547 -6.652344,5.935547 h -4.632813 c -1.33156,0 -1.390625,-0.18245 -1.390624,-1.40625 v 1 c 0,0.722761 0.02719,1.076747 0.318359,1.25 h 7.724609 c 3.55545,-0.602549 4.235319,-2.979726 4.800782,-6.78125 z m -15.007813,4.320312 c 0,1.598841 -0.367451,1.601563 -2.734375,1.601563 V 62 h 2.070312 c 0.530498,-0.171379 0.664063,-0.55656 0.664063,-1.460938 z"
       id="path119"
       inkscape:connector-curvature="0" />
    <path
       style="opacity:0.3;fill:#ffffff;stroke-width:4"
       d="m 54.242188,31 v 0.859375 c 1.83108,0 2.427582,0.07513 3.164062,1.179687 l 6.117188,9.576172 0.320312,-0.498046 -6.4375,-10.078126 C 57.055439,31.512922 56.732729,31.224632 56.296875,31.0625 55.531056,31.055655 54.742013,31.041911 54.242188,31 Z M 61.375,31 c -0.226575,0.01432 -0.533971,0.0163 -0.800781,0.02539 -0.483697,0.210328 -0.667969,0.571133 -0.667969,0.794921 0,0.09684 0.04637,0.219291 0.226562,0.529297 0.212227,-0.245125 0.584818,-0.470561 1.242188,-0.490234 z m 7.203125,0 v 0.859375 c 0.760455,0.07568 1.09928,0.46181 1.238281,0.882813 0.05378,-0.150183 0.08984,-0.3077 0.08984,-0.492188 0,-0.440343 -0.157396,-0.960185 -0.712891,-1.226562 -0.201307,-0.0088 -0.450037,-0.01001 -0.61523,-0.02344 z m 6.125,0 c -0.394753,0.0349 -0.919911,0.05168 -1.449219,0.06055 -1.657969,0.4405 -2.391605,1.52421 -2.785156,2.119141 l -4.9375,7.609374 0.322266,0.503907 4.615234,-7.113281 c 0.49412,-0.746961 1.498495,-2.281553 4.234375,-2.320313 z m -49.699219,0.04687 c -3.60896,0.267537 -4.023472,1.68589 -4.402344,6.867187 h -0.529296 l -0.07227,1 h 0.601562 c 0.43084,-5.892 0.900113,-6.921874 6.070313,-6.921874 h 1.84375 c 0.63684,0.10634 0.632812,0.540654 0.632813,1.359374 v -1 c -1e-6,-0.740316 -0.02198,-1.151264 -0.492188,-1.304687 z m 6.779297,0 c -0.461569,0.176774 -0.478515,0.584481 -0.478515,1.304687 v 1 c 0,-0.785679 -0.0067,-1.214294 0.59375,-1.359374 h 1.835937 c 4.725992,0 5.494906,0.959088 5.925781,5.78125 H 39.75 C 39.373295,32.72158 38.907093,31.313778 35.367188,31.046875 Z M 38,38.773438 V 39.75 c 2.36156,0 2.734375,-0.0049 2.734375,1.59375 v -1 c 0,-1.198995 -0.209414,-1.496753 -1.310547,-1.570312 z m 5.882812,0 c -0.887506,0.05207 -0.984374,0.307223 -0.984374,1.351562 v 1 c 0,-1.20084 0.05905,-1.375 1.390624,-1.375 h 4.5625 c 5.1592,0 5.759363,2.187745 6.226563,6.890625 h 0.601563 l -0.101563,-1 h -0.5 c -0.440246,-4.43156 -1.003088,-6.628274 -5.382813,-6.867187 z m 20.382813,3.96875 -5.328125,8.304687 c -0.16828,0.2528 -0.335938,0.501297 -0.335938,0.960937 10e-7,0.159634 0.03151,0.328249 0.08789,0.494141 0.06442,-0.173476 0.155034,-0.315349 0.248047,-0.455078 l 5.328125,-8.304687 5.804687,9.09375 c 0.02245,0.03367 0.02035,0.04063 0.03906,0.07031 0.146181,-0.169146 0.21875,-0.343431 0.21875,-0.460938 0,-0.106279 0.0047,-0.215659 -0.257813,-0.609374 z M 47.150391,49.875 c -0.32382,0.04419 -0.684895,0.07031 -1.103516,0.07031 h -3.148437 v 0.859376 h 3.148437 c 3.14516,0 3.445312,1.232294 3.445313,4.234374 h 0.53125 v -1 h -0.53125 c -10e-7,-2.602524 -0.232659,-3.87144 -2.341797,-4.16406 z m -16.955079,4.304688 c -0.615059,0 -1.223852,0.01903 -1.841796,0.02734 -0.429886,0.129177 -1.086282,0.183594 -2.111328,0.183594 H 25.296875 V 55.25 c 1.59952,-0.0332 3.262637,-0.07031 4.898437,-0.07031 1.63048,0 3.30793,0.03719 4.90625,0.07031 v -0.859375 h -0.9375 c -1.008142,0 -1.655189,-0.05489 -2.078124,-0.183594 -0.635069,-0.0087 -1.262318,-0.02734 -1.890626,-0.02734 z m 26.4375,0.01562 c -0.06852,0 -0.167427,0.0078 -0.242187,0.0078 L 55.351562,62 h -4.410156 c -0.59191,0.100312 -1.254919,0.15625 -2.019531,0.15625 H 44.289062 C 43.743905,62.15625 43.418641,62.1201 43.216797,62 H 40.070312 C 39.662949,62.1316 39.028083,62.140625 38,62.140625 V 63 h 17.351562 l 1.039063,-7.796875 c 0.07476,-4e-5 0.173668,-0.0078 0.242187,-0.0078 0.8994,0 2.473968,0.0028 3.304688,0.07031 V 54.40625 c -0.234431,-0.02413 -0.427508,-0.08355 -0.591797,-0.162109 -0.862595,-0.03766 -1.977061,-0.04883 -2.712891,-0.04883 z m 16.03125,0.0078 c -0.875723,0 -2.034059,0.0062 -3.03125,0.03906 -0.199944,0.0817 -0.447976,0.144131 -0.765624,0.164062 v 0.859375 c 1.067679,-0.06752 2.698234,-0.0625 3.796874,-0.0625 0.86304,0 2.526778,-0.0052 3.335938,0.0625 V 54.40625 c -1.04053,0 -1.650281,-0.04216 -2.082031,-0.199219 -0.456798,-0.0026 -0.933264,-0.0039 -1.253907,-0.0039 z m -16.921874,0.01563 c -0.16869,0.0011 -0.337173,0.0029 -0.507813,0.0039 -0.630628,0.166733 -1.16495,0.183594 -1.429687,0.183594 v 0.859375 c 0.47948,-0.04247 1.135905,-0.04162 1.769531,-0.04492 0.05667,-0.328803 0.115363,-0.648292 0.167969,-1.001953 z"
       id="path124"
       inkscape:connector-curvature="0" />
    <path
       style="opacity:0.15;fill:#ffffff;stroke-width:4"
       d="m 54.242188,30 v 0.859375 c 1.83108,0 2.427582,0.07513 3.164062,1.179687 l 6.117188,9.576172 0.320312,-0.498046 -6.4375,-10.078126 C 57.055439,30.512922 56.732729,30.224632 56.296875,30.0625 55.531056,30.055655 54.742013,30.041911 54.242188,30 Z M 61.375,30 c -0.226575,0.01432 -0.533971,0.0163 -0.800781,0.02539 -0.483697,0.210328 -0.667969,0.571133 -0.667969,0.794921 0,0.09684 0.04637,0.219291 0.226562,0.529297 0.212227,-0.245125 0.584818,-0.470561 1.242188,-0.490234 z m 7.203125,0 v 0.859375 c 0.760455,0.07568 1.09928,0.46181 1.238281,0.882813 0.05378,-0.150183 0.08984,-0.3077 0.08984,-0.492188 0,-0.440343 -0.157396,-0.960185 -0.712891,-1.226562 -0.201307,-0.0088 -0.450037,-0.01001 -0.61523,-0.02344 z m 6.125,0 c -0.394753,0.0349 -0.919911,0.05168 -1.449219,0.06055 -1.657969,0.4405 -2.391605,1.52421 -2.785156,2.119141 l -4.9375,7.609374 0.322266,0.503907 4.615234,-7.113281 c 0.49412,-0.746961 1.498495,-2.281553 4.234375,-2.320313 z m -49.699219,0.04687 c -3.60896,0.267537 -4.023472,1.68589 -4.402344,6.867187 h -0.529296 l -0.07227,1 h 0.601562 c 0.43084,-5.892 0.900113,-6.921874 6.070313,-6.921874 h 1.84375 c 0.63684,0.10634 0.632812,0.540654 0.632813,1.359374 v -1 c -1e-6,-0.740316 -0.02198,-1.151264 -0.492188,-1.304687 z m 6.779297,0 c -0.461569,0.176774 -0.478515,0.584481 -0.478515,1.304687 v 1 c 0,-0.785679 -0.0067,-1.214294 0.59375,-1.359374 h 1.835937 c 4.725992,0 5.494906,0.959088 5.925781,5.78125 H 39.75 C 39.373295,31.72158 38.907093,30.313778 35.367188,30.046875 Z M 38,37.773438 V 38.75 c 2.36156,0 2.734375,-0.0049 2.734375,1.59375 v -1 c 0,-1.198995 -0.209414,-1.496753 -1.310547,-1.570312 z m 5.882812,0 c -0.887506,0.05207 -0.984374,0.307223 -0.984374,1.351562 v 1 c 0,-1.20084 0.05905,-1.375 1.390624,-1.375 h 4.5625 c 5.1592,0 5.759363,2.187745 6.226563,6.890625 h 0.601563 l -0.101563,-1 h -0.5 c -0.440246,-4.43156 -1.003088,-6.628274 -5.382813,-6.867187 z m 20.382813,3.96875 -5.328125,8.304687 c -0.16828,0.2528 -0.335938,0.501297 -0.335938,0.960937 10e-7,0.159634 0.03151,0.328249 0.08789,0.494141 0.06442,-0.173476 0.155034,-0.315349 0.248047,-0.455078 l 5.328125,-8.304687 5.804687,9.09375 c 0.02245,0.03367 0.02035,0.04063 0.03906,0.07031 0.146181,-0.169146 0.21875,-0.343431 0.21875,-0.460938 0,-0.106279 0.0047,-0.215659 -0.257813,-0.609374 z M 47.150391,48.875 c -0.32382,0.04419 -0.684895,0.07031 -1.103516,0.07031 h -3.148437 v 0.859376 h 3.148437 c 3.14516,0 3.445312,1.232294 3.445313,4.234374 h 0.53125 v -1 h -0.53125 c -10e-7,-2.602524 -0.232659,-3.87144 -2.341797,-4.16406 z m -16.955079,4.304688 c -0.615059,-10e-7 -1.223852,0.01903 -1.841796,0.02734 -0.429886,0.129177 -1.086282,0.183594 -2.111328,0.183594 H 25.296875 V 54.25 c 1.59952,-0.0332 3.262637,-0.07031 4.898437,-0.07031 1.63048,0 3.30793,0.03719 4.90625,0.07031 v -0.859375 h -0.9375 c -1.008142,0 -1.655189,-0.05489 -2.078124,-0.183594 -0.635069,-0.0087 -1.262318,-0.02734 -1.890626,-0.02734 z m 26.4375,0.01562 c -0.06852,0 -0.167427,0.0078 -0.242187,0.0078 L 55.351562,61 h -4.410156 c -0.59191,0.100312 -1.254919,0.15625 -2.019531,0.15625 H 44.289062 C 43.743905,61.15625 43.418641,61.1201 43.216797,61 H 40.070312 C 39.662949,61.1316 39.028083,61.140625 38,61.140625 V 62 h 17.351562 l 1.039063,-7.796875 c 0.07476,-4e-5 0.173668,-0.0078 0.242187,-0.0078 0.8994,0 2.473968,0.0028 3.304688,0.07031 V 53.40625 c -0.234431,-0.02413 -0.427508,-0.08355 -0.591797,-0.162109 -0.862595,-0.03766 -1.977061,-0.04883 -2.712891,-0.04883 z m 16.03125,0.0078 c -0.875723,0 -2.034059,0.0062 -3.03125,0.03906 -0.199944,0.0817 -0.447976,0.144131 -0.765624,0.164062 v 0.859375 c 1.067679,-0.06752 2.698234,-0.0625 3.796874,-0.0625 0.86304,0 2.526778,-0.0052 3.335938,0.0625 V 53.40625 c -1.04053,0 -1.650281,-0.04216 -2.082031,-0.199219 -0.456798,-0.0026 -0.933264,-0.0039 -1.253907,-0.0039 z m -16.921874,0.01563 c -0.16869,0.0011 -0.337173,0.0029 -0.507813,0.0039 -0.630628,0.166733 -1.16495,0.183594 -1.429687,0.183594 v 0.859375 c 0.47948,-0.04247 1.135905,-0.04162 1.769531,-0.04492 0.05667,-0.328803 0.115363,-0.648292 0.167969,-1.001953 z"
       id="path129"
       inkscape:connector-curvature="0" />
  </g>
  <defs
     id="defs101">
    <filter
       id="w">
      <feGaussianBlur
         stdDeviation="0.68880677"
         id="feGaussianBlur93" />
    </filter>
    <linearGradient
       id="a"
       gradientUnits="userSpaceOnUse"
       x1="8"
       y1="4"
       x2="8"
       y2="11.999982"
       gradientTransform="matrix(4,0,0,4,16,14)">
      <stop
         stop-color="#004500"
         offset="0"
         id="stop96" />
      <stop
         stop-color="#002400"
         offset="1"
         id="stop98" />
    </linearGradient>
  </defs>
</svg>
