<?xml version="1.0" encoding="UTF-8" standalone="no"?>
<svg
   xmlns:dc="http://purl.org/dc/elements/1.1/"
   xmlns:cc="http://creativecommons.org/ns#"
   xmlns:rdf="http://www.w3.org/1999/02/22-rdf-syntax-ns#"
   xmlns:svg="http://www.w3.org/2000/svg"
   xmlns="http://www.w3.org/2000/svg"
   xmlns:xlink="http://www.w3.org/1999/xlink"
   xmlns:sodipodi="http://sodipodi.sourceforge.net/DTD/sodipodi-0.dtd"
   xmlns:inkscape="http://www.inkscape.org/namespaces/inkscape"
   width="96"
   height="96"
   version="1.1"
   id="svg77"
   sodipodi:docname="tor-browser.svg"
   inkscape:version="0.92.2 5c3e80d, 2017-08-06">
  <metadata
     id="metadata81">
    <rdf:RDF>
      <cc:Work
         rdf:about="">
        <dc:format>image/svg+xml</dc:format>
        <dc:type
           rdf:resource="http://purl.org/dc/dcmitype/StillImage" />
      </cc:Work>
    </rdf:RDF>
  </metadata>
  <sodipodi:namedview
     pagecolor="#ffffff"
     bordercolor="#666666"
     borderopacity="1"
     objecttolerance="10"
     gridtolerance="10"
     guidetolerance="10"
     inkscape:pageopacity="0"
     inkscape:pageshadow="2"
     inkscape:window-width="640"
     inkscape:window-height="480"
     id="namedview79"
     showgrid="false"
     inkscape:zoom="2.4583333"
     inkscape:cx="48"
     inkscape:cy="48"
     inkscape:window-x="0"
     inkscape:window-y="25"
     inkscape:window-maximized="0"
     inkscape:current-layer="svg77" />
  <defs
     id="defs2410">
    <linearGradient
       id="linearGradient4384">
      <stop
         id="stop4386"
         stop-color="#fff"
         offset="0" />
      <stop
         id="stop4388"
         stop-color="#fff"
         stop-opacity="0"
         offset="1" />
    </linearGradient>
    <filter
       id="filter3794"
       x="-.192"
       y="-.192"
       width="1.384"
       height="1.384">
      <feGaussianBlur
         id="feGaussianBlur3796"
         stdDeviation="5.28" />
    </filter>
    <linearGradient
       id="linearGradient3613"
       x1="48"
       x2="48"
       y1="20.221"
       y2="138.66"
       gradientUnits="userSpaceOnUse">
      <stop
         id="stop3739"
         stop-color="#fff"
         offset="0" />
      <stop
         id="stop3741"
         stop-color="#fff"
         stop-opacity="0"
         offset="1" />
    </linearGradient>
    <linearGradient
       id="buttonGradient"
       x1="48"
       x2="48"
       y1="90"
       y2="5.9877"
       gradientUnits="userSpaceOnUse">
      <stop
         id="stop3702"
         stop-color="#572584"
         offset="0" />
      <stop
         id="stop3704"
         stop-color="#c171e8"
         offset="1" />
    </linearGradient>
    <linearGradient
       id="ButtonShadow-0"
       x1="45.448"
       x2="45.448"
       y1="92.54"
       y2="7.0165"
       gradientTransform="matrix(1.0059 0 0 .99417 100 0)"
       gradientUnits="userSpaceOnUse">
      <stop
         id="stop3750-8"
         offset="0" />
      <stop
         id="stop3752-5"
         stop-opacity=".58824"
         offset="1" />
    </linearGradient>
    <linearGradient
       id="linearGradient3780"
       x1="32.251"
       x2="32.251"
       y1="6.1317"
       y2="90.239"
       gradientTransform="matrix(1.0238 0 0 1.0119 -1.1429 -98.071)"
       gradientUnits="userSpaceOnUse"
       xlink:href="#ButtonShadow-0" />
    <linearGradient
       id="linearGradient3721"
       x1="32.251"
       x2="32.251"
       y1="6.1317"
       y2="90.239"
       gradientTransform="translate(0,-97)"
       gradientUnits="userSpaceOnUse"
       xlink:href="#ButtonShadow-0" />
    <clipPath
       id="clipPath4355">
      <rect
         id="rect4357"
         x="6"
         y="6"
         width="84"
         height="80"
         rx="6"
         ry="6"
         fill="#fff" />
    </clipPath>
    <linearGradient
       id="linearGradient4390"
       x1="48"
       x2="48"
       y1="88"
       y2="-40"
       gradientTransform="matrix(1,0,0,-1,0,92)"
       gradientUnits="userSpaceOnUse"
       xlink:href="#linearGradient4384" />
    <linearGradient
       id="linearGradient4429"
       x1="48"
       x2="112.12"
       y1="82"
       y2="82.455"
       gradientUnits="userSpaceOnUse"
       spreadMethod="reflect"
       xlink:href="#linearGradient4384" />
    <linearGradient
       id="linearGradient3228"
       x1="90"
       x2="48"
       y1="88"
       y2="88"
       gradientUnits="userSpaceOnUse"
       spreadMethod="reflect">
      <stop
         id="stop3894"
         stop-opacity=".58824"
         offset="0" />
      <stop
         id="stop3896"
         stop-opacity=".47059"
         offset=".1178" />
      <stop
         id="stop3898"
         stop-opacity=".39216"
         offset=".2381" />
      <stop
         id="stop3900"
         stop-opacity=".31373"
         offset="1" />
    </linearGradient>
  </defs>
  <g
     id="layer3">
    <g
       id="g32"
       fill="url(#linearGradient3780)">
      <path
         id="path3786"
         transform="scale(1,-1)"
         d="m12-95.021c-5.5111 0-10.022 4.51-10.022 10.021v71c0 5.5111 4.5104 10.021 10.021 10.021h72c5.5111 0 10.021-4.5104 10.021-10.021v-71c0-5.5111-4.5104-10.021-10.021-10.021h-72z"
         opacity=".08" />
      <path
         id="path3778"
         transform="scale(1,-1)"
         d="m12-94.035c-4.9716 0-9.0352 4.0635-9.0352 9.0352v71c0 4.9716 4.0635 9.0352 9.0352 9.0352h72c4.9716 0 9.0352-4.0635 9.0352-9.0352v-71c0-4.9716-4.0635-9.0352-9.0352-9.0352h-72z"
         opacity=".1" />
      <path
         id="path3770"
         transform="scale(1,-1)"
         d="m12-92.99c-4.4091 0-7.9902 3.5811-7.9902 7.9902v71c0 4.4091 3.5811 7.9902 7.9902 7.9902h72c4.4091 0 7.9902-3.5811 7.9902-7.9902v-71c0-4.4091-3.5811-7.9902-7.9902-7.9902h-72z"
         opacity=".2" />
      <rect
         id="rect3723"
         transform="scale(1,-1)"
         x="5"
         y="-92"
         width="86"
         height="85"
         rx="7"
         ry="7"
         opacity=".3" />
    </g>
    <rect
       id="rect3716"
       transform="scale(1,-1)"
       x="6"
       y="-91"
       width="84"
       height="84"
       rx="6"
       ry="6"
       fill="url(#linearGradient3721)"
       opacity=".45" />
  </g>
  <g
     id="layer1">
    <rect
       id="button"
       x="6"
       y="6"
       width="84"
       height="84"
       rx="6"
       ry="6"
       fill="url(#buttonGradient)" />
    <path
       id="rect4377"
       d="m12 86c-3.324 0-6-2.676-6-6v-68c0-3.324 2.676-6 6-6h72c3.324 0 6 2.676 6 6v68c0 3.324-2.676 6-6 6zm0-0.96875h72c2.8049 0 5.0312-2.2264 5.0312-5.0312v-68c0-2.8049-2.226-5.0312-5.031-5.0312h-72c-2.8049 0-5.0312 2.2263-5.0312 5.0312v68c0 2.8049 2.2264 5.0312 5.0312 5.0312z"
       fill="url(#linearGradient4390)"
       opacity=".3" />
    <path
       id="rect4414"
       d="m6 78v2c0 3.324 2.676 6 6 6h72c3.324 0 6-2.676 6-6v-2c0 3.324-2.676 6-6 6h-72c-3.324 0-6-2.676-6-6z"
       fill="url(#linearGradient4429)"
       opacity=".1" />
  </g>
  <g
     id="layer4">
    <path
       id="path3888"
       d="m6 80v4c0 3.324 2.676 6 6 6h72c3.324 0 6-2.676 6-6v-4c0 3.324-2.676 6-6 6h-72c-3.324 0-6-2.676-6-6z"
       fill="url(#linearGradient3228)" />
    <path
       id="rect4345"
       d="m6 82v2c0 3.324 2.676 6 6 6h72c3.324 0 6-2.676 6-6v-2c0 3.324-2.676 6-6 6h-72c-3.324 0-6-2.676-6-6z"
       color="#000000"
       opacity=".1" />
    <path
       id="rect4336"
       d="m6 83v1c0 3.324 2.676 6 6 6h72c3.324 0 6-2.676 6-6v-1c0 3.324-2.676 6-6 6h-72c-3.324 0-6-2.676-6-6z"
       color="#000000"
       opacity=".15" />
  </g>
  <g
     id="layer5">
    <rect
       id="rect3171"
       x="15"
       y="15"
       width="66"
       height="62"
       rx="12"
       ry="12"
       clip-path="url(#clipPath4355)"
       fill="url(#linearGradient3613)"
       filter="url(#filter3794)"
       opacity=".1"
       stroke="#fff"
       stroke-linecap="round"
       stroke-width=".5" />
  </g>
  <defs
     id="defs53">
    <filter
       id="w">
      <feGaussianBlur
         stdDeviation="0.23199685"
         id="feGaussianBlur45" />
    </filter>
    <linearGradient
       id="a"
       gradientUnits="userSpaceOnUse"
       x1="8"
       y1="1"
       x2="8"
       y2="15.0001">
      <stop
         stop-color="#fafafa"
         offset="0"
         id="stop48" />
      <stop
         stop-color="#ebebeb"
         offset="1"
         id="stop50" />
    </linearGradient>
  </defs>
  <g
     transform="translate(0,-2)"
     id="g75">
    <path
       style="opacity:0.15;fill:#000000"
       d="M 6.3144531,0.75 A 0.250025,0.250025 0 0 0 6.0898438,1.0957031 C 6.3161577,1.6415214 6.2584777,1.9045833 6.1191406,2.1230469 5.9798035,2.3415104 5.702597,2.5209097 5.4296875,2.7441406 4.4331968,3.5129205 3.2754921,4.3833678 2.3574219,5.40625 1.4374573,6.4312428 0.75,7.6239559 0.75,9.0117188 0.75,10.461607 1.1399165,11.991061 2.1542969,13.179688 3.1686772,14.368314 4.8041697,15.19282 7.2050781,15.25 a 0.250025,0.250025 0 0 0 0.1308594,-0.466797 c -0.034408,-0.01999 -0.063466,-0.04429 -0.097656,-0.06445 a 0.250025,0.250025 0 0 0 0.2890626,-0.375 c -0.029634,-0.04423 -0.043815,-0.08678 -0.072266,-0.130859 0.112542,0.17808 0.2223533,0.355935 0.3613281,0.541015 a 0.250025,0.250025 0 0 0 0.375,0.02734 c -0.010552,0.01179 -0.018651,0.02336 -0.029297,0.03516 a 0.250025,0.250025 0 0 0 0.1914062,0.417969 c 2.0625124,-0.04648 4.2323824,-1.11173 5.5839844,-2.742187 1.351602,-1.630458 1.858482,-3.8729252 0.521484,-6.1289068 h 0.002 C 13.675303,5.0222767 11.981364,4.0922236 10.015625,2.9511719 a 0.250025,0.250025 0 0 0 -0.0078,-0.00391 C 9.8805057,2.8792746 9.6188602,2.5831336 9.4414062,2.265625 9.2639523,1.9481164 9.1736246,1.5770004 9.1835938,1.5117188 A 0.250025,0.250025 0 0 0 8.9804688,1.2265625 L 8.3242188,1.1074219 A 0.250025,0.250025 0 0 0 8.03125,1.375 C 8.0910494,2.0685439 8.3207824,2.7667526 8.59375,3.4726562 8.5076873,3.2505049 8.392368,3.0211161 8.3222656,2.8007812 L 8.2265625,3.0820312 7.8378906,2.8339844 C 7.7473397,3.3704226 7.5903782,3.8838133 7.453125,4.4042969 7.6330713,3.7102634 7.8164383,3.0170826 7.9082031,2.2929688 L 7.6152344,2.5058594 7.4667969,2.1191406 C 7.6284426,1.9106685 7.7528737,1.7237032 7.9277344,1.5078125 A 0.250025,0.250025 0 0 0 7.9824219,1.359375 c 0.00129,-0.03391 0.00234,-0.063794 0.00391,-0.087891 A 0.250025,0.250025 0 0 0 7.78125,1.0097656 L 6.3652344,0.75390625 A 0.250025,0.250025 0 0 0 6.3144531,0.75 Z M 7.2910156,2.3535156 C 6.7071137,3.1178293 6.2133956,3.8315661 5.7890625,4.5058594 6.2092702,3.8330246 6.7097998,3.1163745 7.2910156,2.3535156 Z M 9.125,4.7792969 c 0.3524639,0.799206 0.7174766,1.6142129 0.986328,2.4746093 0.145636,0.4661154 0.238472,0.9503019 0.300781,1.4414063 C 10.347016,8.2045363 10.255055,7.7201434 10.109375,7.2539062 9.8411028,6.3952929 9.4803668,5.577717 9.125,4.7792969 Z M 5.4804688,4.9960938 C 4.5609139,6.5458859 4.0490237,7.8637543 3.875,8.9863281 c 0.00759,-0.049847 0.00488,-0.09397 0.013672,-0.1445312 a 0.250025,0.250025 0 0 0 0.00195,-0.011719 C 4.0116694,7.8707988 4.4063333,6.8469475 4.9921875,5.8164062 a 0.250025,0.250025 0 0 0 0.00391,-0.00781 c 0.041247,-0.078369 0.096232,-0.1691234 0.1484374,-0.2636719 l 0.00391,-0.00781 C 5.1888524,5.4689202 5.2209919,5.4094629 5.2519531,5.359375 a 0.250025,0.250025 0 0 0 0.00586,-0.00977 C 5.3208638,5.2379436 5.4132264,5.1100889 5.4804688,4.9960938 Z m 1.6289062,0.78125 C 6.890216,6.5243636 6.6640692,7.265539 6.5,8.0039062 6.518867,7.9189477 6.5469925,7.8238654 6.5722656,7.71875 l 0.00195,-0.00391 c 0.011172,-0.043304 0.020926,-0.084436 0.03125,-0.1230469 a 0.250025,0.250025 0 0 0 0,-0.00391 C 6.7525799,6.9889619 6.9350568,6.3825811 7.109375,5.7773438 Z M 6.5,8.0058594 C 6.3681166,8.5997517 6.2904647,9.1929278 6.2578125,9.7910156 c 0.00413,-0.079229 -0.00428,-0.1591803 0.00195,-0.2382812 a 0.250025,0.250025 0 0 0 0,-0.00391 c 0.00186,-0.03172 0.00158,-0.034323 0,-0.00781 0.00262,-0.043708 0.00122,-0.057363 0,-0.039063 C 6.2731603,9.300282 6.3094542,9.084669 6.34375,8.859375 c 0.00732,-0.048668 0.00741,-0.080917 0.00977,-0.095703 0.027436,-0.1680274 0.060724,-0.3382509 0.097656,-0.5097657 a 0.250025,0.250025 0 0 0 0.00195,-0.00195 C 6.4715674,8.1612412 6.4838833,8.0788002 6.5,8.0058594 Z m 3.980469,1.4726562 c 3.46e-4,0.035351 0.0022,0.069975 0.002,0.1054688 3.2e-5,-0.035393 -0.0014,-0.070216 -0.002,-0.1054688 z M 3.8125,9.6210938 c -0.00365,0.076392 -0.017152,0.157913 -0.017578,0.2324218 C 3.7956515,9.7789439 3.808624,9.6975729 3.8125,9.6210938 Z M 6.25,10.533203 c 0.00322,0.08197 0.00179,0.163861 0.00781,0.246094 -0.00609,-0.08233 -0.0045,-0.163998 -0.00781,-0.246094 z m -2.4042969,0.02344 c 0.00622,0.04419 0.00428,0.09325 0.011719,0.136718 0.00139,0.0081 0.00439,0.01347 0.00586,0.02149 -0.00139,-0.0079 -0.00646,-0.0136 -0.00781,-0.02149 -0.00737,-0.04308 -0.00366,-0.09286 -0.00977,-0.136718 z m 0.2636719,0.884765 c 0.3964215,0.878162 1.0885327,1.721222 2.2128906,2.673828 a 0.250025,0.250025 0 0 0 0.017578,0.01367 C 6.486468,14.232026 6.6489023,14.334223 6.8027344,14.4375 5.5771858,13.657184 4.5795676,12.713131 4.109375,11.441406 Z m 5.8828125,0.560547 c -0.00836,0.02075 -0.010935,0.03975 -0.019531,0.06055 a 0.250025,0.250025 0 0 0 -0.00391,0.0078 C 9.9218725,12.195016 9.8536549,12.313061 9.7988281,12.435547 9.8696019,12.28937 9.933577,12.145758 9.9921875,12.001953 Z M 9.6679688,12.71875 C 9.475353,13.099045 9.2576551,13.472091 8.9824219,13.822266 a 0.250025,0.250025 0 0 0 -0.00586,0.0059 c -0.034283,0.04723 -0.065889,0.0924 -0.097656,0.134766 -0.03665,0.0441 -0.074635,0.08672 -0.1132812,0.130859 a 0.250025,0.250025 0 0 0 -0.00977,0.01172 c -0.1698619,0.219093 -0.3557528,0.441128 -0.5546875,0.664062 0.6365835,-0.71028 1.1146675,-1.39224 1.4667969,-2.050781 z m -2.8613282,0.291016 c 0.00831,0.01898 0.014937,0.03982 0.023437,0.05859 0.050573,0.1117 0.1094179,0.208266 0.1640625,0.314453 -0.061365,-0.124246 -0.134739,-0.249816 -0.1875,-0.373046 z"
       id="path55"
       inkscape:original="m6.3205 1c0.49192 1.1864-0.22485 1.5217-0.73245 1.9369-1.9989 1.5423-4.5881 3.4644-4.5881 6.0746 0 2.8098 1.5169 5.8768 6.2112 5.9886-1.7324-1.0065-3.2602-2.2686-3.6017-4.2647-0.10019-0.58568-0.08944-1.2318 0.033204-1.9369 0.1267-1.0041 0.53587-2.0555 1.1329-3.1057 0.047268-0.089809 0.10406-0.18415 0.1543-0.27558 0.037685-0.062989 0.070493-0.12668 0.10938-0.18959 0.65476-1.1596 1.5262-2.4365 2.6935-3.8777 0.00119-0.031296 0.00189-0.062644 0.00391-0.093815zm1.9591 0.35376c0.15352 1.7805 1.3958 3.6674 2.0704 5.8263 0.47023 1.505 0.60439 3.1612-0.14649 4.9781-0.23985 0.63805-0.57943 1.2503-1.0254 1.8177-0.03316 0.04568-0.065215 0.09094-0.099613 0.13681-0.040961 0.04951-0.082346 0.09787-0.125 0.14659-0.18514 0.2388-0.38537 0.48113-0.60549 0.72512 3.9584-0.089212 8.4705-4.1513 5.8967-8.4942-0.7298-1.2457-2.3865-2.1807-4.3537-3.3226-0.44406-0.23716-1.0185-1.2794-0.95511-1.6945zm-0.61916 0.90688c-3.0203 3.8819-3.875 6.5305-3.5568 8.3906 0.025121 0.14684 0.068168 0.28358 0.10743 0.42217 0.34573 0.92748 1.0467 1.8122 2.2735 2.8516 0.27067 0.19036 0.5411 0.38176 0.83597 0.55703-1.1534-1.7215-1.4357-3.3603-1.3106-4.9488 1.542e-4 -0.00263-1.577e-4 -0.00518 0-0.00782 7.886e-4 -0.013174-8.765e-4 -0.025894 0-0.039089 0.014535-0.21884 0.052037-0.44181 0.085941-0.66453 0.00488-0.032441 0.00656-0.065323 0.011719-0.097724 0.028238-0.17294 0.06196-0.34699 0.099613-0.52185 0.017064-0.083932 0.030243-0.16843 0.04883-0.25213 0.021764-0.098004 0.050848-0.19535 0.074221-0.29317 0.011131-0.043022 0.021677-0.085892 0.033204-0.129 0.42741-1.7401 1.0676-3.4579 1.2969-5.2673zm0.42384 0.61566c-0.30828 1.8263-0.97075 3.5211-1.3399 5.1833-0.28631 1.2893-0.39454 2.5512-0.058596 3.8621 0.025492 0.08807 0.046296 0.1802 0.074221 0.26581 0.014447 0.04778 0.03508 0.0967 0.050783 0.14463 0.076301 0.21933 0.15654 0.43542 0.2461 0.63325 0.14429 0.31869 0.31561 0.61774 0.48049 0.92056 0.14543 0.23667 0.29668 0.47512 0.47853 0.7173 2.5456-2.8403 2.5246-5.1332 1.8555-7.2746-0.48242-1.544-1.323-2.9933-1.7872-4.4523z"
       transform="matrix(4,0,0,4,16,17)"
       inkscape:radius="0.25"
       sodipodi:type="inkscape:offset" />
    <g
       id="Bevel1">
      <path
         fill="#000"
         opacity=".10"
         sodipodi:type="inkscape:offset"
         inkscape:radius="0.5"
         transform="translate(16,17) scale(4)"
         inkscape:original="m6.3205 1c0.49192 1.1864-0.22485 1.5217-0.73245 1.9369-1.9989 1.5423-4.5881 3.4644-4.5881 6.0746 0 2.8098 1.5169 5.8768 6.2112 5.9886-1.7324-1.0065-3.2602-2.2686-3.6017-4.2647-0.10019-0.58568-0.08944-1.2318 0.033204-1.9369 0.1267-1.0041 0.53587-2.0555 1.1329-3.1057 0.047268-0.089809 0.10406-0.18415 0.1543-0.27558 0.037685-0.062989 0.070493-0.12668 0.10938-0.18959 0.65476-1.1596 1.5262-2.4365 2.6935-3.8777 0.00119-0.031296 0.00189-0.062644 0.00391-0.093815zm1.9591 0.35376c0.15352 1.7805 1.3958 3.6674 2.0704 5.8263 0.47023 1.505 0.60439 3.1612-0.14649 4.9781-0.23985 0.63805-0.57943 1.2503-1.0254 1.8177-0.03316 0.04568-0.065215 0.09094-0.099613 0.13681-0.040961 0.04951-0.082346 0.09787-0.125 0.14659-0.18514 0.2388-0.38537 0.48113-0.60549 0.72512 3.9584-0.089212 8.4705-4.1513 5.8967-8.4942-0.7298-1.2457-2.3865-2.1807-4.3537-3.3226-0.44406-0.23716-1.0185-1.2794-0.95511-1.6945zm-0.61916 0.90688c-3.0203 3.8819-3.875 6.5305-3.5568 8.3906 0.025121 0.14684 0.068168 0.28358 0.10743 0.42217 0.34573 0.92748 1.0467 1.8122 2.2735 2.8516 0.27067 0.19036 0.5411 0.38176 0.83597 0.55703-1.1534-1.7215-1.4357-3.3603-1.3106-4.9488 1.542e-4 -0.00263-1.577e-4 -0.00518 0-0.00782 7.886e-4 -0.013174-8.765e-4 -0.025894 0-0.039089 0.014535-0.21884 0.052037-0.44181 0.085941-0.66453 0.00488-0.032441 0.00656-0.065323 0.011719-0.097724 0.028238-0.17294 0.06196-0.34699 0.099613-0.52185 0.017064-0.083932 0.030243-0.16843 0.04883-0.25213 0.021764-0.098004 0.050848-0.19535 0.074221-0.29317 0.011131-0.043022 0.021677-0.085892 0.033204-0.129 0.42741-1.7401 1.0676-3.4579 1.2969-5.2673zm0.42384 0.61566c-0.30828 1.8263-0.97075 3.5211-1.3399 5.1833-0.28631 1.2893-0.39454 2.5512-0.058596 3.8621 0.025492 0.08807 0.046296 0.1802 0.074221 0.26581 0.014447 0.04778 0.03508 0.0967 0.050783 0.14463 0.076301 0.21933 0.15654 0.43542 0.2461 0.63325 0.14429 0.31869 0.31561 0.61774 0.48049 0.92056 0.14543 0.23667 0.29668 0.47512 0.47853 0.7173 2.5456-2.8403 2.5246-5.1332 1.8555-7.2746-0.48242-1.544-1.323-2.9933-1.7872-4.4523z"
         id="path58" />
    </g>
    <g
       id="Bevel2">
      <path
         fill="#000"
         opacity=".05"
         sodipodi:type="inkscape:offset"
         inkscape:radius="0.75"
         transform="translate(16,17) scale(4)"
         inkscape:original="m6.3205 1c0.49192 1.1864-0.22485 1.5217-0.73245 1.9369-1.9989 1.5423-4.5881 3.4644-4.5881 6.0746 0 2.8098 1.5169 5.8768 6.2112 5.9886-1.7324-1.0065-3.2602-2.2686-3.6017-4.2647-0.10019-0.58568-0.08944-1.2318 0.033204-1.9369 0.1267-1.0041 0.53587-2.0555 1.1329-3.1057 0.047268-0.089809 0.10406-0.18415 0.1543-0.27558 0.037685-0.062989 0.070493-0.12668 0.10938-0.18959 0.65476-1.1596 1.5262-2.4365 2.6935-3.8777 0.00119-0.031296 0.00189-0.062644 0.00391-0.093815zm1.9591 0.35376c0.15352 1.7805 1.3958 3.6674 2.0704 5.8263 0.47023 1.505 0.60439 3.1612-0.14649 4.9781-0.23985 0.63805-0.57943 1.2503-1.0254 1.8177-0.03316 0.04568-0.065215 0.09094-0.099613 0.13681-0.040961 0.04951-0.082346 0.09787-0.125 0.14659-0.18514 0.2388-0.38537 0.48113-0.60549 0.72512 3.9584-0.089212 8.4705-4.1513 5.8967-8.4942-0.7298-1.2457-2.3865-2.1807-4.3537-3.3226-0.44406-0.23716-1.0185-1.2794-0.95511-1.6945zm-0.61916 0.90688c-3.0203 3.8819-3.875 6.5305-3.5568 8.3906 0.025121 0.14684 0.068168 0.28358 0.10743 0.42217 0.34573 0.92748 1.0467 1.8122 2.2735 2.8516 0.27067 0.19036 0.5411 0.38176 0.83597 0.55703-1.1534-1.7215-1.4357-3.3603-1.3106-4.9488 1.542e-4 -0.00263-1.577e-4 -0.00518 0-0.00782 7.886e-4 -0.013174-8.765e-4 -0.025894 0-0.039089 0.014535-0.21884 0.052037-0.44181 0.085941-0.66453 0.00488-0.032441 0.00656-0.065323 0.011719-0.097724 0.028238-0.17294 0.06196-0.34699 0.099613-0.52185 0.017064-0.083932 0.030243-0.16843 0.04883-0.25213 0.021764-0.098004 0.050848-0.19535 0.074221-0.29317 0.011131-0.043022 0.021677-0.085892 0.033204-0.129 0.42741-1.7401 1.0676-3.4579 1.2969-5.2673zm0.42384 0.61566c-0.30828 1.8263-0.97075 3.5211-1.3399 5.1833-0.28631 1.2893-0.39454 2.5512-0.058596 3.8621 0.025492 0.08807 0.046296 0.1802 0.074221 0.26581 0.014447 0.04778 0.03508 0.0967 0.050783 0.14463 0.076301 0.21933 0.15654 0.43542 0.2461 0.63325 0.14429 0.31869 0.31561 0.61774 0.48049 0.92056 0.14543 0.23667 0.29668 0.47512 0.47853 0.7173 2.5456-2.8403 2.5246-5.1332 1.8555-7.2746-0.48242-1.544-1.323-2.9933-1.7872-4.4523z"
         id="path61" />
    </g>
    <path
       d="m6.3205 1c0.49192 1.1864-0.22485 1.5217-0.73245 1.9369-1.9989 1.5423-4.5881 3.4644-4.5881 6.0746 0 2.8098 1.5169 5.8768 6.2112 5.9886-1.7324-1.0065-3.2602-2.2686-3.6017-4.2647-0.10019-0.58568-0.08944-1.2318 0.033204-1.9369 0.1267-1.0041 0.53587-2.0555 1.1329-3.1057 0.047268-0.089809 0.10406-0.18415 0.1543-0.27558 0.037685-0.062989 0.070493-0.12668 0.10938-0.18959 0.65476-1.1596 1.5262-2.4365 2.6935-3.8777 0.00119-0.031296 0.00189-0.062644 0.00391-0.093815zm1.9591 0.35376c0.15352 1.7805 1.3958 3.6674 2.0704 5.8263 0.47023 1.505 0.60439 3.1612-0.14649 4.9781-0.23985 0.63805-0.57943 1.2503-1.0254 1.8177-0.03316 0.04568-0.065215 0.09094-0.099613 0.13681-0.040961 0.04951-0.082346 0.09787-0.125 0.14659-0.18514 0.2388-0.38537 0.48113-0.60549 0.72512 3.9584-0.089212 8.4705-4.1513 5.8967-8.4942-0.7298-1.2457-2.3865-2.1807-4.3537-3.3226-0.44406-0.23716-1.0185-1.2794-0.95511-1.6945zm-0.61916 0.90688c-3.0203 3.8819-3.875 6.5305-3.5568 8.3906 0.025121 0.14684 0.068168 0.28358 0.10743 0.42217 0.34573 0.92748 1.0467 1.8122 2.2735 2.8516 0.27067 0.19036 0.5411 0.38176 0.83597 0.55703-1.1534-1.7215-1.4357-3.3603-1.3106-4.9488 1.542e-4 -0.00263-1.577e-4 -0.00518 0-0.00782 7.886e-4 -0.013174-8.765e-4 -0.025894 0-0.039089 0.014535-0.21884 0.052037-0.44181 0.085941-0.66453 0.00488-0.032441 0.00656-0.065323 0.011719-0.097724 0.028238-0.17294 0.06196-0.34699 0.099613-0.52185 0.017064-0.083932 0.030243-0.16843 0.04883-0.25213 0.021764-0.098004 0.050848-0.19535 0.074221-0.29317 0.011131-0.043022 0.021677-0.085892 0.033204-0.129 0.42741-1.7401 1.0676-3.4579 1.2969-5.2673zm0.42384 0.61566c-0.30828 1.8263-0.97075 3.5211-1.3399 5.1833-0.28631 1.2893-0.39454 2.5512-0.058596 3.8621 0.025492 0.08807 0.046296 0.1802 0.074221 0.26581 0.014447 0.04778 0.03508 0.0967 0.050783 0.14463 0.076301 0.21933 0.15654 0.43542 0.2461 0.63325 0.14429 0.31869 0.31561 0.61774 0.48049 0.92056 0.14543 0.23667 0.29668 0.47512 0.47853 0.7173 2.5456-2.8403 2.5246-5.1332 1.8555-7.2746-0.48242-1.544-1.323-2.9933-1.7872-4.4523z"
       fill="url(#a)"
       id="base"
       transform="translate(16,16) scale(4)" />
    <path
       style="opacity:0.3;fill:#000000;stroke-width:4"
       d="M 41.28125 19 C 41.64274 19.871833 41.839854 20.625895 41.910156 21.291016 C 41.974549 20.657504 41.904536 19.927469 41.654297 19.068359 L 41.28125 19 z M 46.505859 19.945312 C 42.061877 25.482261 38.690412 30.422077 36.15625 34.910156 C 36.000702 35.161796 35.86949 35.416013 35.71875 35.667969 C 35.51779 36.033689 35.290635 36.412248 35.101562 36.771484 C 32.713442 40.972284 31.077112 45.176959 30.570312 49.193359 C 30.280474 50.859686 30.165664 52.433171 30.1875 53.933594 C 30.223937 52.735288 30.344373 51.49232 30.570312 50.193359 C 31.077112 46.176959 32.713442 41.972284 35.101562 37.771484 C 35.290635 37.412248 35.51779 37.033689 35.71875 36.667969 C 35.86949 36.416013 36.000702 36.161796 36.15625 35.910156 C 38.77529 31.271756 42.262441 26.165191 46.931641 20.400391 C 46.936441 20.275207 46.939226 20.150075 46.947266 20.025391 L 46.505859 19.945312 z M 49.119141 20.416016 C 49.733221 27.538016 54.701991 35.085103 57.400391 43.720703 C 58.289037 46.56487 58.870778 49.545891 58.927734 52.664062 C 58.992872 49.18111 58.383648 45.867679 57.400391 42.720703 C 54.830809 34.497356 50.210484 27.261591 49.244141 20.439453 L 49.119141 20.416016 z M 46.640625 24.042969 C 46.640463 24.044249 46.640787 24.045595 46.640625 24.046875 C 46.64153 24.045712 46.641673 24.044132 46.642578 24.042969 L 46.640625 24.042969 z M 46.640625 24.046875 C 46.573038 24.133748 46.514311 24.21617 46.447266 24.302734 C 45.410928 31.079021 43.062965 37.557242 41.453125 44.111328 C 41.407019 44.28376 41.364832 44.454865 41.320312 44.626953 C 41.22682 45.018233 41.110498 45.408765 41.023438 45.800781 C 40.94909 46.135581 40.896385 46.472866 40.828125 46.808594 C 40.677513 47.508034 40.542639 48.204724 40.429688 48.896484 C 40.409048 49.026088 40.402332 49.157345 40.382812 49.287109 C 40.247196 50.177989 40.097203 51.069952 40.039062 51.945312 C 40.035562 51.998093 40.042262 52.048862 40.039062 52.101562 C 40.038432 52.112123 40.039679 52.122293 40.039062 52.132812 C 39.960457 53.130936 39.940211 54.135976 39.949219 55.144531 C 39.963656 54.472125 39.98647 53.800624 40.039062 53.132812 C 40.039679 53.122293 40.038432 53.112123 40.039062 53.101562 C 40.042262 53.048862 40.035562 52.998093 40.039062 52.945312 C 40.097203 52.069952 40.247196 51.177989 40.382812 50.287109 C 40.402332 50.157345 40.409048 50.026088 40.429688 49.896484 C 40.542639 49.204724 40.677513 48.508034 40.828125 47.808594 C 40.896385 47.472866 40.94909 47.135581 41.023438 46.800781 C 41.110498 46.408765 41.22682 46.018233 41.320312 45.626953 C 41.364832 45.454865 41.407019 45.28376 41.453125 45.111328 C 43.162463 38.152159 45.723006 31.283066 46.640625 24.046875 z M 20.015625 50.515625 C 20.00963 50.692582 20 50.868314 20 51.046875 C 20 62.286075 26.06655 74.5528 44.84375 75 C 44.244193 74.651666 43.662886 74.284803 43.078125 73.919922 C 25.934163 72.782621 20.177197 61.263627 20.015625 50.515625 z M 75.984375 51.076172 C 75.473452 63.388244 62.416176 73.159091 50.302734 73.888672 C 50.005482 74.237954 49.709557 74.586147 49.392578 74.9375 C 62.076014 74.651655 76.16591 64.165324 75.984375 51.076172 z M 57 52.537109 C 56.965277 58.524862 54.707285 65.000248 48.064453 72.412109 C 47.337053 71.443389 46.732111 70.489649 46.150391 69.542969 C 45.490871 68.331689 44.805676 67.136088 44.228516 65.861328 C 43.870276 65.070008 43.547392 64.205445 43.242188 63.328125 C 43.179375 63.136405 43.096852 62.94112 43.039062 62.75 C 42.927363 62.40756 42.844155 62.03978 42.742188 61.6875 C 42.240819 59.731091 41.987776 57.800525 41.925781 55.882812 C 41.922013 58.130346 42.153518 60.390431 42.742188 62.6875 C 42.844155 63.03978 42.927363 63.40756 43.039062 63.75 C 43.096852 63.94112 43.179375 64.136405 43.242188 64.328125 C 43.547392 65.205445 43.870276 66.070008 44.228516 66.861328 C 44.805676 68.136088 45.490871 69.331689 46.150391 70.542969 C 46.732111 71.489649 47.337053 72.443389 48.064453 73.412109 C 55.077324 65.58737 57.219668 58.801959 57 52.537109 z M 32.183594 54.095703 C 32.154673 55.334893 32.226489 56.508971 32.414062 57.605469 C 32.514547 58.192829 32.686702 58.738609 32.84375 59.292969 C 34.22667 63.002889 37.0303 66.541619 41.9375 70.699219 C 43.02018 71.460659 44.10177 72.226654 45.28125 72.927734 C 44.906674 72.368664 44.564007 71.812592 44.234375 71.257812 C 43.451757 70.748783 42.68814 70.227138 41.9375 69.699219 C 37.0303 65.541619 34.22667 62.002889 32.84375 58.292969 C 32.686702 57.738609 32.514547 57.192829 32.414062 56.605469 C 32.277735 55.808541 32.207396 54.967184 32.183594 54.095703 z "
       transform="translate(0,2)"
       id="path65" />
    <path
       style="fill:#ffffff;stroke-width:4"
       d="M 41.28125 18 C 41.438621 18.379544 41.555875 18.730463 41.654297 19.068359 L 46.505859 19.945312 C 46.654704 19.759861 46.780321 19.587216 46.931641 19.400391 C 46.936441 19.275207 46.939226 19.150075 46.947266 19.025391 L 41.28125 18 z M 49.119141 19.416016 C 49.148456 19.756011 49.195696 20.097446 49.244141 20.439453 L 51.744141 20.892578 C 51.490581 22.552978 53.788213 26.721282 55.564453 27.669922 C 63.433253 32.237522 70.059316 35.978138 72.978516 40.960938 C 75.026791 44.417093 75.939288 47.825241 75.984375 51.076172 C 76.131576 47.528974 75.237265 43.772238 72.978516 39.960938 C 70.059316 34.978138 63.433253 31.237522 55.564453 26.669922 C 53.788213 25.721282 51.490581 21.552978 51.744141 19.892578 L 49.119141 19.416016 z M 41.910156 21.291016 C 41.683209 23.523775 39.806701 24.557791 38.351562 25.748047 C 30.355963 31.917247 20 39.606075 20 50.046875 C 20 50.202538 20.01328 50.359601 20.015625 50.515625 C 20.360159 40.345566 30.492705 32.81174 38.351562 26.748047 C 40.00895 25.392359 42.222524 24.246311 41.910156 21.291016 z M 46.640625 23.042969 C 46.640463 23.044249 46.640787 23.045595 46.640625 23.046875 C 46.64153 23.045712 46.641673 23.044132 46.642578 23.042969 L 46.640625 23.042969 z M 46.640625 23.046875 C 35.855484 36.909519 31.985185 46.831343 32.183594 54.095703 C 32.349808 46.973914 36.298069 37.406648 46.447266 24.302734 C 46.511318 23.883918 46.587212 23.468083 46.640625 23.046875 z M 48.335938 25.505859 C 48.336372 25.507223 48.337456 25.508402 48.337891 25.509766 C 48.338104 25.508499 48.337677 25.507126 48.337891 25.505859 L 48.335938 25.505859 z M 48.337891 25.509766 C 47.104493 32.813517 44.452907 39.590634 42.976562 46.238281 C 42.258616 49.471309 41.821617 52.66064 41.925781 55.882812 C 41.930615 52.999823 42.333019 50.136261 42.976562 47.238281 C 44.452907 40.590634 47.104493 33.813517 48.337891 26.509766 C 48.337456 26.508402 48.336372 26.507223 48.335938 26.505859 L 48.337891 26.505859 C 48.337677 26.507126 48.338104 26.508499 48.337891 26.509766 C 50.19496 32.344383 53.557099 38.139897 55.486328 44.314453 C 56.319425 46.980713 56.900719 49.705655 57 52.537109 C 57.018502 49.346593 56.416688 46.291996 55.486328 43.314453 C 53.557099 37.139897 50.19496 31.344383 48.337891 25.509766 z M 58.927734 52.664062 C 58.868267 55.843817 58.247873 59.164375 56.814453 62.632812 C 55.855053 65.185012 54.496771 67.634697 52.712891 69.904297 C 52.580251 70.087017 52.452045 70.267692 52.314453 70.451172 C 52.150609 70.649212 51.985069 70.842229 51.814453 71.037109 C 51.073893 71.992309 50.273058 72.96154 49.392578 73.9375 C 49.694774 73.930689 49.999137 73.906957 50.302734 73.888672 C 50.831166 73.267745 51.3405 72.648431 51.814453 72.037109 C 51.985069 71.842229 52.150609 71.649212 52.314453 71.451172 C 52.452045 71.267692 52.580251 71.087017 52.712891 70.904297 C 54.496771 68.634697 55.855053 66.185012 56.814453 63.632812 C 58.398951 59.798812 58.991333 56.145852 58.927734 52.664062 z M 30.1875 53.933594 C 30.144822 55.337139 30.221314 56.677647 30.4375 57.941406 C 31.685312 65.234986 36.9043 70.067559 43.078125 73.919922 C 43.654281 73.958143 44.241679 73.985661 44.84375 74 C 37.91415 69.974 31.8035 64.925806 30.4375 56.941406 C 30.273514 55.982794 30.202623 54.972764 30.1875 53.933594 z M 39.949219 55.144531 C 39.837442 60.350421 40.930687 65.697621 44.234375 71.257812 C 44.58056 71.482978 44.919523 71.712725 45.28125 71.927734 C 41.392381 66.123427 39.997554 60.556386 39.949219 55.144531 z "
       transform="translate(0,2)"
       id="path70" />
  </g>
</svg>
