<?xml version="1.0" encoding="UTF-8" standalone="no"?>
<!-- Created with Inkscape (http://www.inkscape.org/) -->

<svg
   xmlns:dc="http://purl.org/dc/elements/1.1/"
   xmlns:cc="http://creativecommons.org/ns#"
   xmlns:rdf="http://www.w3.org/1999/02/22-rdf-syntax-ns#"
   xmlns:svg="http://www.w3.org/2000/svg"
   xmlns="http://www.w3.org/2000/svg"
   xmlns:xlink="http://www.w3.org/1999/xlink"
   xmlns:sodipodi="http://sodipodi.sourceforge.net/DTD/sodipodi-0.dtd"
   xmlns:inkscape="http://www.inkscape.org/namespaces/inkscape"
   width="96"
   height="96"
   id="svg2408"
   sodipodi:version="0.32"
   inkscape:version="0.48.3.1 r9886"
   version="1.0"
   sodipodi:docname="ubuntuone-music.svg"
   inkscape:output_extension="org.inkscape.output.svg.inkscape">
  <defs
     id="defs2410">
    <linearGradient
       id="linearGradient4384">
      <stop
         style="stop-color:#ffffff;stop-opacity:1;"
         offset="0"
         id="stop4386" />
      <stop
         style="stop-color:#ffffff;stop-opacity:0;"
         offset="1"
         id="stop4388" />
    </linearGradient>
    <linearGradient
       id="linearGradient4367">
      <stop
         style="stop-color:#ffffff;stop-opacity:0.71755725;"
         offset="0"
         id="stop4369" />
      <stop
         style="stop-color:#ffffff;stop-opacity:1;"
         offset="1"
         id="stop4371" />
    </linearGradient>
    <inkscape:perspective
       sodipodi:type="inkscape:persp3d"
       inkscape:vp_x="0 : 48 : 1"
       inkscape:vp_y="0 : 1000 : 0"
       inkscape:vp_z="96 : 48 : 1"
       inkscape:persp3d-origin="48 : 32 : 1"
       id="perspective48" />
    <linearGradient
       id="ButtonShadow"
       gradientTransform="scale(1.0058652,0.994169)"
       x1="45.447727"
       y1="92.539597"
       x2="45.447727"
       y2="7.0165396"
       gradientUnits="userSpaceOnUse">
      <stop
         style="stop-color:#000000;stop-opacity:1;"
         offset="0"
         id="stop3750" />
      <stop
         style="stop-color:#000000;stop-opacity:0.58823532;"
         offset="1"
         id="stop3752" />
    </linearGradient>
    <linearGradient
       inkscape:collect="always"
       id="linearGradient3737">
      <stop
         style="stop-color:#ffffff;stop-opacity:1;"
         offset="0"
         id="stop3739" />
      <stop
         style="stop-color:#ffffff;stop-opacity:0;"
         offset="1"
         id="stop3741" />
    </linearGradient>
    <linearGradient
       id="linearGradient3700">
      <stop
         style="stop-color:#2276c5;stop-opacity:1;"
         offset="0"
         id="stop3702" />
      <stop
         style="stop-color:#68baf4;stop-opacity:1;"
         offset="1"
         id="stop3704" />
    </linearGradient>
    <filter
       inkscape:collect="always"
       id="filter3174">
      <feGaussianBlur
         inkscape:collect="always"
         stdDeviation="1.71"
         id="feGaussianBlur3176" />
    </filter>
    <linearGradient
       inkscape:collect="always"
       xlink:href="#linearGradient3737"
       id="linearGradient3188"
       gradientUnits="userSpaceOnUse"
       x1="36.357143"
       y1="6"
       x2="36.357143"
       y2="63.893143" />
    <filter
       inkscape:collect="always"
       id="filter3794"
       x="-0.192"
       width="1.384"
       y="-0.192"
       height="1.384">
      <feGaussianBlur
         inkscape:collect="always"
         stdDeviation="5.28"
         id="feGaussianBlur3796" />
    </filter>
    <linearGradient
       inkscape:collect="always"
       xlink:href="#linearGradient3737"
       id="linearGradient3613"
       x1="48"
       y1="20.220806"
       x2="48"
       y2="138.66119"
       gradientUnits="userSpaceOnUse" />
    <linearGradient
       inkscape:collect="always"
       xlink:href="#linearGradient3700"
       id="linearGradient3617"
       gradientUnits="userSpaceOnUse"
       x1="48"
       y1="90"
       x2="48"
       y2="5.9877172" />
    <linearGradient
       id="ButtonShadow-0"
       gradientTransform="matrix(1.0058652,0,0,0.994169,100,0)"
       x1="45.447727"
       y1="92.539597"
       x2="45.447727"
       y2="7.0165396"
       gradientUnits="userSpaceOnUse">
      <stop
         style="stop-color:#000000;stop-opacity:1;"
         offset="0"
         id="stop3750-8" />
      <stop
         style="stop-color:#000000;stop-opacity:0.58823532;"
         offset="1"
         id="stop3752-5" />
    </linearGradient>
    <linearGradient
       inkscape:collect="always"
       xlink:href="#ButtonShadow-0"
       id="linearGradient3780"
       gradientUnits="userSpaceOnUse"
       gradientTransform="matrix(1.0238095,0,0,1.0119048,-1.1428571,-98.071429)"
       x1="32.251034"
       y1="6.1317081"
       x2="32.251034"
       y2="90.238609" />
    <linearGradient
       inkscape:collect="always"
       xlink:href="#ButtonShadow-0"
       id="linearGradient3772"
       gradientUnits="userSpaceOnUse"
       gradientTransform="matrix(1.0238095,0,0,1.0119048,-1.1428571,-98.071429)"
       x1="32.251034"
       y1="6.1317081"
       x2="32.251034"
       y2="90.238609" />
    <linearGradient
       inkscape:collect="always"
       xlink:href="#ButtonShadow-0"
       id="linearGradient3725"
       gradientUnits="userSpaceOnUse"
       gradientTransform="matrix(1.0238095,0,0,1.0119048,-1.1428571,-98.071429)"
       x1="32.251034"
       y1="6.1317081"
       x2="32.251034"
       y2="90.238609" />
    <linearGradient
       inkscape:collect="always"
       xlink:href="#ButtonShadow-0"
       id="linearGradient3721"
       gradientUnits="userSpaceOnUse"
       gradientTransform="translate(0,-97)"
       x1="32.251034"
       y1="6.1317081"
       x2="32.251034"
       y2="90.238609" />
    <linearGradient
       y2="90.238609"
       x2="32.251034"
       y1="6.1317081"
       x1="32.251034"
       gradientTransform="matrix(1.0238095,0,0,1.0119048,-1.1428571,-98.071429)"
       gradientUnits="userSpaceOnUse"
       id="linearGradient3026"
       xlink:href="#ButtonShadow-0"
       inkscape:collect="always" />
    <linearGradient
       inkscape:collect="always"
       xlink:href="#linearGradient3669"
       id="linearGradient3675"
       x1="8"
       y1="1033.3622"
       x2="64.080299"
       y2="1033.3622"
       gradientUnits="userSpaceOnUse"
       spreadMethod="reflect" />
    <linearGradient
       id="linearGradient3669">
      <stop
         style="stop-color:#c27d4f;stop-opacity:1;"
         offset="0"
         id="stop3671" />
      <stop
         id="stop3677"
         offset="0.11780351"
         style="stop-color:#a3704e;stop-opacity:1;" />
      <stop
         style="stop-color:#866148;stop-opacity:1;"
         offset="1"
         id="stop3673" />
    </linearGradient>
    <clipPath
       clipPathUnits="userSpaceOnUse"
       id="clipPath4355">
      <rect
         style="fill:#ffffff;fill-opacity:1;fill-rule:nonzero;stroke:none"
         id="rect4357"
         width="84"
         height="80"
         x="6"
         y="6"
         rx="6"
         ry="6" />
    </clipPath>
    <radialGradient
       inkscape:collect="always"
       xlink:href="#linearGradient4367"
       id="radialGradient4375"
       cx="48"
       cy="87.792389"
       fx="48"
       fy="87.792389"
       r="42"
       gradientTransform="matrix(1,-6.7114942e-8,8.4282233e-8,1.2557894,109.99999,-24.505592)"
       gradientUnits="userSpaceOnUse" />
    <linearGradient
       inkscape:collect="always"
       xlink:href="#linearGradient4384"
       id="linearGradient4390"
       x1="48"
       y1="88"
       x2="48"
       y2="-40"
       gradientUnits="userSpaceOnUse"
       gradientTransform="matrix(1,0,0,-1,0,92)" />
    <linearGradient
       inkscape:collect="always"
       xlink:href="#linearGradient4384"
       id="linearGradient4429"
       x1="48"
       y1="82"
       x2="112.12357"
       y2="82.454597"
       gradientUnits="userSpaceOnUse"
       spreadMethod="reflect" />
    <linearGradient
       gradientTransform="translate(-2,-956.3622)"
       y2="1033.3622"
       x2="50"
       y1="1033.3622"
       x1="8"
       spreadMethod="reflect"
       gradientUnits="userSpaceOnUse"
       id="linearGradient3542-9"
       xlink:href="#linearGradient4482"
       inkscape:collect="always" />
    <linearGradient
       id="linearGradient4482">
      <stop
         id="stop4484"
         offset="0"
         style="stop-color:#ffffff;stop-opacity:0.12977099;" />
      <stop
         style="stop-color:#424242;stop-opacity:0.28244275;"
         offset="0.11780351"
         id="stop4486" />
      <stop
         id="stop4488"
         offset="0.23809524"
         style="stop-color:#2f2f2f;stop-opacity:0.30534351;" />
      <stop
         id="stop4490"
         offset="1"
         style="stop-color:#000000;stop-opacity:0.35114503;" />
    </linearGradient>
    <linearGradient
       inkscape:collect="always"
       xlink:href="#linearGradient4482"
       id="linearGradient3851"
       gradientUnits="userSpaceOnUse"
       x1="90"
       y1="88"
       x2="48"
       y2="88"
       spreadMethod="reflect" />
    <linearGradient
       inkscape:collect="always"
       xlink:href="#linearGradient3892"
       id="linearGradient3890"
       gradientUnits="userSpaceOnUse"
       spreadMethod="reflect"
       x1="90"
       y1="88"
       x2="48"
       y2="88" />
    <linearGradient
       id="linearGradient3892">
      <stop
         style="stop-color:#000000;stop-opacity:0.58823532;"
         offset="0"
         id="stop3894" />
      <stop
         id="stop3896"
         offset="0.11780351"
         style="stop-color:#000000;stop-opacity:0.47058824;" />
      <stop
         style="stop-color:#000000;stop-opacity:0.39215687;"
         offset="0.23809524"
         id="stop3898" />
      <stop
         style="stop-color:#000000;stop-opacity:0.3137255;"
         offset="1"
         id="stop3900" />
    </linearGradient>
    <linearGradient
       y2="88"
       x2="48"
       y1="88"
       x1="90"
       spreadMethod="reflect"
       gradientUnits="userSpaceOnUse"
       id="linearGradient3228"
       xlink:href="#linearGradient3892"
       inkscape:collect="always" />
    <linearGradient
       inkscape:collect="always"
       xlink:href="#linearGradient4644-104-3-3-6-1-6"
       id="linearGradient3617-5"
       gradientUnits="userSpaceOnUse"
       x1="48"
       y1="90"
       x2="48"
       y2="5.9877172"
       gradientTransform="translate(0,-96)" />
    <linearGradient
       id="linearGradient4644-104-3-3-6-1-6">
      <stop
         offset="0"
         style="stop-color:#ff7a35;stop-opacity:1;"
         id="stop5237-6-5-1-7-7" />
      <stop
         offset="1"
         style="stop-color:#f0431a;stop-opacity:1;"
         id="stop5239-4-6-4-7-9" />
    </linearGradient>
    <linearGradient
       y2="24.627615"
       x2="20.054544"
       y1="15.298182"
       x1="16.626165"
       gradientTransform="matrix(1.8236425,0,0,2.8764142,-1.8526747,-16.570708)"
       gradientUnits="userSpaceOnUse"
       id="linearGradient4218"
       xlink:href="#linearGradient8265-821-176-38-919-66-249-7-7-6-5-0"
       inkscape:collect="always" />
    <linearGradient
       id="linearGradient8265-821-176-38-919-66-249-7-7-6-5-0">
      <stop
         offset="0"
         style="stop-color:#ffffff;stop-opacity:1"
         id="stop2687-1-9-3-0-3" />
      <stop
         offset="1"
         style="stop-color:#ffffff;stop-opacity:0"
         id="stop2689-5-4-9-8-5" />
    </linearGradient>
    <linearGradient
       y2="5.9877172"
       x2="48"
       y1="90"
       x1="48"
       gradientTransform="translate(-5.9999769,-90)"
       gradientUnits="userSpaceOnUse"
       id="linearGradient3191"
       xlink:href="#linearGradient4644-104-3-3-6-1-6"
       inkscape:collect="always" />
    <linearGradient
       inkscape:collect="always"
       xlink:href="#linearGradient3700-9"
       id="linearGradient3112"
       gradientUnits="userSpaceOnUse"
       x1="48"
       y1="90"
       x2="48"
       y2="5.9877172" />
    <linearGradient
       inkscape:collect="always"
       xlink:href="#linearGradient8265-821-176-38-919-66-249-7-7-6-5-0"
       id="linearGradient3114"
       gradientUnits="userSpaceOnUse"
       gradientTransform="matrix(1.8236425,0,0,2.8764142,4.1473022,-10.570708)"
       x1="16.626165"
       y1="15.298182"
       x2="20.054544"
       y2="24.627615" />
    <linearGradient
       gradientTransform="matrix(0.76488407,0,0,0.76488407,-68.262372,-701.39152)"
       inkscape:collect="always"
       xlink:href="#linearGradient4267-8"
       id="linearGradient5365-4"
       gradientUnits="userSpaceOnUse"
       spreadMethod="reflect"
       x1="145.68845"
       y1="938.89923"
       x2="180.72107"
       y2="938.89923" />
    <linearGradient
       id="linearGradient4267-8">
      <stop
         style="stop-color:#6e6e6e;stop-opacity:1;"
         offset="0"
         id="stop4269-4" />
      <stop
         style="stop-color:#333333;stop-opacity:1;"
         offset="1"
         id="stop4271-7" />
    </linearGradient>
    <linearGradient
       inkscape:collect="always"
       xlink:href="#linearGradient5105-8"
       id="linearGradient5404-9"
       x1="152"
       y1="953.36218"
       x2="152"
       y2="1010.3622"
       gradientUnits="userSpaceOnUse"
       gradientTransform="matrix(0.78216898,0,0,0.78216898,-70.899797,-715.64407)" />
    <linearGradient
       id="linearGradient5105-8">
      <stop
         style="stop-color:#f5f5f5;stop-opacity:1;"
         offset="0"
         id="stop5107-4" />
      <stop
         style="stop-color:#ebebeb;stop-opacity:1;"
         offset="1"
         id="stop5109-4" />
    </linearGradient>
    <radialGradient
       inkscape:collect="always"
       xlink:href="#linearGradient4589-1"
       id="radialGradient5342-3"
       cx="120.46313"
       cy="973.68842"
       fx="120.46313"
       fy="973.68842"
       r="5"
       gradientTransform="matrix(0.76488407,0,0,2.6006058,-68.262372,-2491.8851)"
       gradientUnits="userSpaceOnUse" />
    <linearGradient
       id="linearGradient4589-1">
      <stop
         style="stop-color:#6e6e6e;stop-opacity:1;"
         offset="0"
         id="stop4591-7" />
      <stop
         style="stop-color:#333333;stop-opacity:1;"
         offset="1"
         id="stop4593-8" />
    </linearGradient>
    <radialGradient
       r="5"
       fy="973.21472"
       fx="123.25485"
       cy="973.21472"
       cx="123.25485"
       gradientTransform="matrix(-0.76488407,0,0,2.6006058,164.26238,-2491.8851)"
       gradientUnits="userSpaceOnUse"
       id="radialGradient4935-9"
       xlink:href="#linearGradient4589-1"
       inkscape:collect="always" />
    <linearGradient
       id="linearGradient3216">
      <stop
         style="stop-color:#6e6e6e;stop-opacity:1;"
         offset="0"
         id="stop3218" />
      <stop
         style="stop-color:#333333;stop-opacity:1;"
         offset="1"
         id="stop3220" />
    </linearGradient>
    <linearGradient
       y2="5.9877172"
       x2="48"
       y1="90"
       x1="48"
       gradientUnits="userSpaceOnUse"
       id="linearGradient3196"
       xlink:href="#linearGradient3700-9"
       inkscape:collect="always" />
    <linearGradient
       id="linearGradient3700-9">
      <stop
         style="stop-color:#da4714;stop-opacity:1;"
         offset="0"
         id="stop3702-9" />
      <stop
         style="stop-color:#ee743e;stop-opacity:1;"
         offset="1"
         id="stop3704-9" />
    </linearGradient>
  </defs>
  <sodipodi:namedview
     id="base"
     pagecolor="#818181"
     bordercolor="#ffb1b1"
     borderopacity="1"
     inkscape:pageopacity="1"
     inkscape:pageshadow="2"
     inkscape:zoom="4.6803524"
     inkscape:cx="-84.330349"
     inkscape:cy="33.677851"
     inkscape:document-units="px"
     inkscape:current-layer="layer1"
     showgrid="true"
     showborder="true"
     inkscape:showpageshadow="false"
     inkscape:window-width="1920"
     inkscape:window-height="1029"
     inkscape:window-x="0"
     inkscape:window-y="24"
     inkscape:window-maximized="1"
     borderlayer="true">
    <inkscape:grid
       type="xygrid"
       id="grid3732"
       visible="true"
       enabled="true"
       empspacing="8"
       snapvisiblegridlinesonly="true" />
  </sodipodi:namedview>
  <metadata
     id="metadata2413">
    <rdf:RDF>
      <cc:Work
         rdf:about="">
        <dc:format>image/svg+xml</dc:format>
        <dc:type
           rdf:resource="http://purl.org/dc/dcmitype/StillImage" />
        <dc:title />
      </cc:Work>
    </rdf:RDF>
  </metadata>
  <g
     inkscape:groupmode="layer"
     id="layer2"
     inkscape:label="Blur Shadow"
     style="display:none"
     sodipodi:insensitive="true">
    <rect
       style="opacity:0.9;fill:url(#ButtonShadow);fill-opacity:1;fill-rule:nonzero;stroke:none;filter:url(#filter3174)"
       id="rect3745"
       width="86"
       height="85"
       x="5"
       y="7"
       rx="6"
       ry="6" />
  </g>
  <g
     inkscape:groupmode="layer"
     id="layer3"
     inkscape:label="Shadow"
     sodipodi:insensitive="true"
     style="display:inline">
    <path
       sodipodi:type="inkscape:offset"
       inkscape:radius="0.99097413"
       inkscape:original="M 12 -94.03125 C 7.028367 -94.03125 2.96875 -89.971633 2.96875 -85 L 2.96875 -14 C 2.96875 -9.0283671 7.0283671 -4.96875 12 -4.96875 L 84 -4.96875 C 88.971633 -4.96875 93.03125 -9.028367 93.03125 -14 L 93.03125 -85 C 93.03125 -89.971633 88.971633 -94.03125 84 -94.03125 L 12 -94.03125 z "
       style="opacity:0.07999998;fill:url(#linearGradient3026);fill-opacity:1;fill-rule:nonzero;stroke:none;display:inline"
       id="path3786"
       d="m 12,-95.03125 c -5.5110903,0 -10.03125,4.52016 -10.03125,10.03125 l 0,71 c 0,5.5110902 4.5201598,10.03125 10.03125,10.03125 l 72,0 c 5.51109,0 10.03125,-4.5201597 10.03125,-10.03125 l 0,-71 c 0,-5.51109 -4.52016,-10.03125 -10.03125,-10.03125 l -72,0 z"
       transform="scale(1,-1)" />
    <path
       sodipodi:type="inkscape:offset"
       inkscape:radius="1.0360184"
       inkscape:original="M 12 -93 C 7.5908667 -93 4 -89.409133 4 -85 L 4 -14 C 4 -9.5908667 7.5908667 -6 12 -6 L 84 -6 C 88.409133 -6 92 -9.5908667 92 -14 L 92 -85 C 92 -89.409133 88.409133 -93 84 -93 L 12 -93 z "
       style="opacity:0.1;fill:url(#linearGradient3780);fill-opacity:1;fill-rule:nonzero;stroke:none;display:inline"
       id="path3778"
       d="m 12,-94.03125 c -4.971633,0 -9.03125,4.059617 -9.03125,9.03125 l 0,71 c 0,4.9716329 4.0596171,9.03125 9.03125,9.03125 l 72,0 c 4.971633,0 9.03125,-4.059617 9.03125,-9.03125 l 0,-71 c 0,-4.971633 -4.059617,-9.03125 -9.03125,-9.03125 l -72,0 z"
       transform="scale(1,-1)" />
    <path
       sodipodi:type="inkscape:offset"
       inkscape:radius="0.98962283"
       inkscape:original="M 12 -92 C 8.122 -92 5 -88.878 5 -85 L 5 -14 C 5 -10.122 8.122 -7 12 -7 L 84 -7 C 87.878 -7 91 -10.122 91 -14 L 91 -85 C 91 -88.878 87.878 -92 84 -92 L 12 -92 z "
       style="opacity:0.2;fill:url(#linearGradient3772);fill-opacity:1;fill-rule:nonzero;stroke:none;display:inline"
       id="path3770"
       d="m 12,-93 c -4.4091333,0 -8,3.590867 -8,8 l 0,71 c 0,4.4091333 3.5908667,8 8,8 l 72,0 c 4.409133,0 8,-3.5908667 8,-8 l 0,-71 c 0,-4.409133 -3.590867,-8 -8,-8 l -72,0 z"
       transform="scale(1,-1)" />
    <rect
       style="opacity:0.3;fill:url(#linearGradient3725);fill-opacity:1;fill-rule:nonzero;stroke:none;display:inline"
       id="rect3723"
       width="86"
       height="85"
       x="5"
       y="-92"
       rx="7"
       ry="7"
       transform="scale(1,-1)" />
    <rect
       transform="scale(1,-1)"
       ry="6"
       rx="6"
       y="-91"
       x="6"
       height="84"
       width="84"
       id="rect3716"
       style="opacity:0.45;fill:url(#linearGradient3721);fill-opacity:1;fill-rule:nonzero;stroke:none;display:inline" />
  </g>
  <g
     inkscape:label="Button"
     inkscape:groupmode="layer"
     id="layer1">
    <rect
       style="fill:url(#linearGradient3112);fill-opacity:1;fill-rule:nonzero;stroke:none"
       id="rect2419-6"
       width="84"
       height="84"
       x="6"
       y="6"
       rx="6"
       ry="6" />
    <path
       style="opacity:0.2;fill:url(#linearGradient3114);fill-opacity:1;fill-rule:evenodd;stroke:none;display:inline;enable-background:new"
       d="M 12,6 C 8.6863616,6 6.0166116,8.6591585 6,11.96875 5.9999481,11.979099 6,11.989638 6,12 L 6.03125,58.90625 C 8.4477741,58.853361 88.165837,39.375647 90,38.4375 L 90,12 C 90,8.676 87.324,6 84,6 L 12,6 z"
       id="path5237-7"
       inkscape:connector-curvature="0" />
    <path
       style="opacity:0.2;fill:url(#radialGradient4375);fill-opacity:1;fill-rule:nonzero;stroke:none"
       d="M 120.78125,6.125 C 118.04223,6.6826484 116,9.0915 116,12 l 0,68 c 0,3.324 2.676,6 6,6 l 72,0 c 3.324,0 6,-2.676 6,-6 l 0,-68 c 0,-2.9085 -2.04223,-5.3173516 -4.78125,-5.875 2.20512,0.5362071 3.8125,2.4908437 3.8125,4.875 l 0,68 c 0,2.80489 -2.22636,5.03125 -5.03125,5.03125 l -72,0 c -2.80489,0 -5.03125,-2.22636 -5.03125,-5.03125 l 0,-68 c 0,-2.3841563 1.60738,-4.3387929 3.8125,-4.875 z"
       id="rect4359"
       inkscape:connector-curvature="0" />
    <path
       style="opacity:0.3;fill:url(#linearGradient4390);fill-opacity:1;fill-rule:nonzero;stroke:none"
       d="M 12,86 C 8.676,86 6,83.324 6,80 L 6,12 C 6,8.676 8.676,6 12,6 l 72,0 c 3.324,0 6,2.676 6,6 l 0,68 c 0,3.324 -2.676,6 -6,6 z m 0,-0.96875 72,0 c 2.80489,0 5.03125,-2.22636 5.03125,-5.03125 l 0,-68 C 89.03125,9.19511 86.80489,6.96875 84,6.96875 l -72,0 C 9.1951102,6.96875 6.96875,9.19511 6.96875,12 l 0,68 c 0,2.80489 2.2263602,5.03125 5.03125,5.03125 z"
       id="rect4377"
       inkscape:connector-curvature="0"
       sodipodi:nodetypes="ssssssssssssssssss" />
    <path
       style="opacity:0.1;fill:url(#linearGradient4429);fill-opacity:1;fill-rule:nonzero;stroke:none"
       d="m 6,78 0,2 c 0,3.324 2.676,6 6,6 l 72,0 c 3.324,0 6,-2.676 6,-6 l 0,-2 c 0,3.324 -2.676,6 -6,6 L 12,84 C 8.676,84 6,81.324 6,78 z"
       id="rect4414"
       inkscape:connector-curvature="0" />
    <path
       id="path4412"
       d="m 6,100 0,1 c 0,3.324 2.676,6 6,6 l 72,0 c 3.324,0 6,-2.676 6,-6 l 0,-1 c 0,3.324 -2.676,6 -6,6 l -72,0 c -3.324,0 -6,-2.676 -6,-6 z"
       style="opacity:0.15;fill:#000000;fill-opacity:1;fill-rule:nonzero;stroke:none"
       inkscape:connector-curvature="0" />
  </g>
  <g
     inkscape:groupmode="layer"
     id="layer4"
     inkscape:label="Bottom Edge"
     style="display:inline"
     sodipodi:insensitive="true">
    <path
       inkscape:connector-curvature="0"
       id="path3888"
       d="m 6,80 0,4 c 0,3.324 2.676,6 6,6 l 72,0 c 3.324,0 6,-2.676 6,-6 l 0,-4 c 0,3.324 -2.676,6 -6,6 L 12,86 C 8.676,86 6,83.324 6,80 z"
       style="fill:url(#linearGradient3228);fill-opacity:1;fill-rule:nonzero;stroke:none;display:inline" />
    <path
       style="opacity:0.1;color:#000000;fill:#000000;fill-opacity:1;fill-rule:nonzero;stroke:none;stroke-width:1.5;marker:none;visibility:visible;display:inline;overflow:visible;enable-background:accumulate"
       d="m 6,82 0,2 c 0,3.324 2.676,6 6,6 l 72,0 c 3.324,0 6,-2.676 6,-6 l 0,-2 c 0,3.324 -2.676,6 -6,6 L 12,88 C 8.676,88 6,85.324 6,82 z"
       id="rect4345"
       inkscape:connector-curvature="0" />
    <path
       style="opacity:0.15;color:#000000;fill:#000000;fill-opacity:1;fill-rule:nonzero;stroke:none;stroke-width:1.5;marker:none;visibility:visible;display:inline;overflow:visible;enable-background:accumulate"
       d="m 6,83 0,1 c 0,3.324 2.676,6 6,6 l 72,0 c 3.324,0 6,-2.676 6,-6 l 0,-1 c 0,3.324 -2.676,6 -6,6 L 12,89 C 8.676,89 6,86.324 6,83 z"
       id="rect4336"
       inkscape:connector-curvature="0" />
  </g>
  <g
     inkscape:groupmode="layer"
     id="layer5"
     inkscape:label="Highlight"
     sodipodi:insensitive="true"
     style="display:inline">
    <rect
       style="opacity:0.1;fill:url(#linearGradient3613);fill-opacity:1;fill-rule:nonzero;stroke:#ffffff;stroke-width:0.5;stroke-linecap:round;stroke-linejoin:miter;stroke-miterlimit:4;stroke-opacity:1;stroke-dasharray:none;stroke-dashoffset:0;filter:url(#filter3794)"
       id="rect3171"
       width="66"
       height="62"
       x="15"
       y="15"
       rx="12"
       ry="12"
       clip-path="url(#clipPath4355)" />
  </g>
  <g
     inkscape:groupmode="layer"
     id="layer6"
     inkscape:label="Symbol"
     sodipodi:insensitive="true">
    <path
       transform="translate(3.6865535e-6,-2)"
       sodipodi:type="inkscape:offset"
       inkscape:radius="0.93807912"
       inkscape:original="M 53.90625 31.96875 A 1.0164519 1.0164519 0 0 0 52.96875 33 L 52.96875 63.96875 L 43.03125 63.96875 L 43.03125 45 A 1.0164519 1.0164519 0 0 0 42 43.96875 L 39.59375 43.96875 L 44.59375 33.46875 A 1.0164519 1.0164519 0 0 0 43.6875 32 L 30 32 A 1.0164519 1.0164519 0 0 0 28.96875 33.03125 L 29.09375 62.28125 C 29.09375 62.28125 29.061786 65.580449 30.8125 69.21875 C 32.563214 72.857051 36.21875 76.890898 43.25 78.25 C 47.386293 79.049518 53.063105 78.529864 57.78125 77.84375 C 62.499395 77.157636 66.21875 76.28125 66.21875 76.28125 A 1.0164519 1.0164519 0 0 0 67.03125 75.28125 L 67 33.03125 A 1.0164519 1.0164519 0 0 0 65.96875 32 L 54 31.96875 A 1.0164519 1.0164519 0 0 0 53.90625 31.96875 z "
       style="opacity:0.05;fill:#000000;fill-opacity:1;stroke:none"
       id="path4542"
       d="m 53.84375,31.03125 c -0.0025,1.91e-4 -0.18507,0.03083 -0.1875,0.03125 -0.0024,4.22e-4 -0.18512,0.0306 -0.1875,0.03125 -0.0024,6.49e-4 -0.185192,0.06163 -0.1875,0.0625 -0.0023,8.71e-4 -0.154035,0.06142 -0.15625,0.0625 -0.0022,0.0011 -0.154147,0.09246 -0.15625,0.09375 -0.0021,0.0013 -0.154278,0.09227 -0.15625,0.09375 -0.002,0.0015 -0.154426,0.123339 -0.15625,0.125 -0.0018,0.0017 -0.123341,0.123175 -0.125,0.125 -0.0017,0.0018 -0.12352,0.154276 -0.125,0.15625 -0.0015,0.002 -0.09246,0.154146 -0.09375,0.15625 -0.0013,0.0021 -0.09267,0.154034 -0.09375,0.15625 -0.0011,0.0022 -0.06163,0.153942 -0.0625,0.15625 -8.69e-4,0.0023 -0.06185,0.18512 -0.0625,0.1875 -6.48e-4,0.0024 -0.03083,0.185069 -0.03125,0.1875 -4.2e-4,0.0024 -0.03106,0.185041 -0.03125,0.1875 -1.58e-4,0.002 0.0012,0.11322 0,0.15625 -2.42e-4,0.0086 -7e-6,0.03084 0,0.03125 l 0,30 -8.0625,0 0,-18.03125 c 1.9e-5,-0.0013 4.6e-5,-0.09244 0,-0.09375 -4.6e-5,-0.0013 1.11e-4,-0.09245 0,-0.09375 -1.11e-4,-0.0013 -0.03107,-0.09246 -0.03125,-0.09375 -1.76e-4,-0.0013 2.41e-4,-0.09247 0,-0.09375 -2.41e-4,-0.0013 -0.03095,-0.09248 -0.03125,-0.09375 -3.05e-4,-0.0013 -0.03088,-0.0925 -0.03125,-0.09375 -3.68e-4,-0.0013 4.3e-4,-0.09252 0,-0.09375 -4.3e-4,-0.0012 -0.06201,-0.09254 -0.0625,-0.09375 -4.91e-4,-0.0012 -0.0307,-0.09257 -0.03125,-0.09375 -5.51e-4,-0.0012 -0.03064,-0.0926 -0.03125,-0.09375 -6.09e-4,-0.0012 -0.06183,-0.06138 -0.0625,-0.0625 -6.66e-4,-0.0011 -0.03053,-0.09266 -0.03125,-0.09375 -7.22e-4,-0.0011 -0.06173,-0.0927 -0.0625,-0.09375 -7.75e-4,-0.0011 -0.06167,-0.06149 -0.0625,-0.0625 -8.27e-4,-0.001 -0.06162,-0.06153 -0.0625,-0.0625 -8.76e-4,-9.69e-4 -0.06158,-0.09283 -0.0625,-0.09375 -9.24e-4,-9.24e-4 -0.09278,-0.06162 -0.09375,-0.0625 -9.69e-4,-8.76e-4 -0.06149,-0.06167 -0.0625,-0.0625 -0.001,-8.27e-4 -0.06145,-0.06173 -0.0625,-0.0625 -0.0011,-7.75e-4 -0.09266,-0.06178 -0.09375,-0.0625 -0.0011,-7.22e-4 -0.09263,-0.03058 -0.09375,-0.03125 -0.0011,-6.66e-4 -0.06135,-0.06189 -0.0625,-0.0625 -0.0012,-6.09e-4 -0.09257,-0.0307 -0.09375,-0.03125 -0.0012,-5.51e-4 -0.09254,-0.03076 -0.09375,-0.03125 -0.0012,-4.91e-4 -0.09252,-0.06207 -0.09375,-0.0625 -0.0012,-4.3e-4 -0.0925,3.68e-4 -0.09375,0 -0.0013,-3.68e-4 -0.09248,-0.03095 -0.09375,-0.03125 -0.0013,-3.05e-4 -0.09247,-0.03101 -0.09375,-0.03125 -0.0013,-2.41e-4 -0.09246,1.76e-4 -0.09375,0 -0.0013,-1.76e-4 -0.09245,-0.03114 -0.09375,-0.03125 -0.0013,-1.11e-4 -0.09244,4.6e-5 -0.09375,0 -0.0013,-4.6e-5 -0.09244,-1.9e-5 -0.09375,0 l -0.9375,0 4.375,-9.15625 c 7.37e-4,-0.0015 0.06186,-0.09222 0.0625,-0.09375 6.41e-4,-0.0015 0.03071,-0.123436 0.03125,-0.125 5.43e-4,-0.0016 0.03081,-0.123405 0.03125,-0.125 4.43e-4,-0.0016 0.03091,-0.12338 0.03125,-0.125 3.41e-4,-0.0016 0.03101,-0.09211 0.03125,-0.09375 2.38e-4,-0.0016 -1.34e-4,-0.12335 0,-0.125 1.34e-4,-0.0016 -2.9e-5,-0.123345 0,-0.125 2.9e-5,-0.0017 7.6e-5,-0.123346 0,-0.125 -7.6e-5,-0.0017 1.8e-4,-0.123354 0,-0.125 -1.8e-4,-0.0016 -0.03097,-0.123369 -0.03125,-0.125 -2.84e-4,-0.0016 3.87e-4,-0.12339 0,-0.125 -3.87e-4,-0.0016 -0.03076,-0.123418 -0.03125,-0.125 -4.88e-4,-0.0016 -0.06191,-0.123452 -0.0625,-0.125 -5.87e-4,-0.0015 -0.03057,-0.09224 -0.03125,-0.09375 -6.84e-4,-0.0015 -0.06172,-0.123539 -0.0625,-0.125 -7.78e-4,-0.0015 -0.06163,-0.09234 -0.0625,-0.09375 -8.69e-4,-0.0014 -0.06154,-0.123649 -0.0625,-0.125 -9.57e-4,-0.0014 -0.06146,-0.09246 -0.0625,-0.09375 -0.001,-0.0013 -0.09263,-0.09253 -0.09375,-0.09375 -0.0011,-0.0012 -0.09255,-0.0926 -0.09375,-0.09375 -0.0012,-0.0011 -0.09249,-0.06143 -0.09375,-0.0625 -0.0013,-0.0011 -0.09242,-0.09276 -0.09375,-0.09375 -0.0013,-9.86e-4 -0.09236,-0.0616 -0.09375,-0.0625 -0.0014,-8.99e-4 -0.123556,-0.06169 -0.125,-0.0625 -0.0014,-8.1e-4 -0.09226,-0.06178 -0.09375,-0.0625 -0.0015,-7.17e-4 -0.123465,-0.03063 -0.125,-0.03125 -0.0015,-6.21e-4 -0.09218,-0.06198 -0.09375,-0.0625 -0.0016,-5.22e-4 -0.123399,-0.03083 -0.125,-0.03125 -0.0016,-4.22e-4 -0.123375,-0.03093 -0.125,-0.03125 -0.0016,-3.19e-4 -0.123358,2.16e-4 -0.125,0 -0.0016,-2.16e-4 -0.123348,-0.03114 -0.125,-0.03125 -0.0017,-1.11e-4 -0.123344,7e-6 -0.125,0 l -13.6875,0 c -0.0013,-1.9e-5 -0.09244,-4.6e-5 -0.09375,0 -0.0013,4.6e-5 -0.09245,-1.11e-4 -0.09375,0 -0.0013,1.11e-4 -0.09246,0.03107 -0.09375,0.03125 -0.0013,1.76e-4 -0.09247,-2.41e-4 -0.09375,0 -0.0013,2.41e-4 -0.09248,0.03094 -0.09375,0.03125 -0.0013,3.05e-4 -0.0925,0.03088 -0.09375,0.03125 -0.0013,3.68e-4 -0.09252,-4.3e-4 -0.09375,0 -0.0012,4.3e-4 -0.09254,0.06201 -0.09375,0.0625 -0.0012,4.91e-4 -0.09257,0.0307 -0.09375,0.03125 -0.0012,5.51e-4 -0.09259,0.03064 -0.09375,0.03125 -0.0012,6.09e-4 -0.06138,0.06183 -0.0625,0.0625 -0.0011,6.66e-4 -0.09266,0.03053 -0.09375,0.03125 -0.0011,7.22e-4 -0.0927,0.06172 -0.09375,0.0625 -0.0011,7.75e-4 -0.06149,0.06167 -0.0625,0.0625 -0.001,8.27e-4 -0.06153,0.06162 -0.0625,0.0625 -9.69e-4,8.76e-4 -0.09283,0.06158 -0.09375,0.0625 -9.24e-4,9.24e-4 -0.06162,0.09278 -0.0625,0.09375 -8.76e-4,9.69e-4 -0.06167,0.06149 -0.0625,0.0625 -8.27e-4,0.001 -0.06172,0.06145 -0.0625,0.0625 -7.75e-4,0.0011 -0.06178,0.09266 -0.0625,0.09375 -7.22e-4,0.0011 -0.03058,0.09263 -0.03125,0.09375 -6.66e-4,0.0011 -0.06189,0.06135 -0.0625,0.0625 -6.09e-4,0.0012 -0.0307,0.09257 -0.03125,0.09375 -5.51e-4,0.0012 -0.03076,0.09254 -0.03125,0.09375 -4.91e-4,0.0012 -0.06207,0.09252 -0.0625,0.09375 -4.3e-4,0.0012 3.68e-4,0.0925 0,0.09375 -3.68e-4,0.0013 -0.03094,0.09248 -0.03125,0.09375 -3.05e-4,0.0013 -0.03101,0.09247 -0.03125,0.09375 -2.41e-4,0.0013 1.76e-4,0.09246 0,0.09375 -1.76e-4,0.0013 -0.03114,0.09245 -0.03125,0.09375 -1.11e-4,0.0013 4.6e-5,0.09244 0,0.09375 -4.6e-5,0.0013 -1.9e-5,0.09244 0,0.09375 l 0.125,29.25 c 0,0 -0.03623,3.501765 1.8125,7.34375 1.854473,3.853931 5.782405,8.118007 13.09375,9.53125 4.367679,0.844243 10.086315,0.316828 14.84375,-0.375 4.744391,-0.689931 8.473537,-1.587518 8.5,-1.59375 4.22e-4,-8.6e-5 0.0215,0.0024 0.03125,0 0.04094,-0.01018 0.123264,-0.03074 0.125,-0.03125 0.0021,-6.36e-4 0.154163,-0.06168 0.15625,-0.0625 0.0021,-8.18e-4 0.154241,-0.06151 0.15625,-0.0625 0.002,-9.94e-4 0.154333,-0.06134 0.15625,-0.0625 0.0019,-0.0012 0.12319,-0.09243 0.125,-0.09375 0.0018,-0.0013 0.15456,-0.123527 0.15625,-0.125 0.0017,-0.0015 0.09219,-0.09214 0.09375,-0.09375 0.0016,-0.0016 0.123586,-0.12326 0.125,-0.125 0.0014,-0.0017 0.09249,-0.154395 0.09375,-0.15625 0.0013,-0.0019 0.09265,-0.123044 0.09375,-0.125 0.0011,-0.002 0.06158,-0.154208 0.0625,-0.15625 9.24e-4,-0.002 0.06175,-0.154136 0.0625,-0.15625 7.46e-4,-0.0021 0.06194,-0.15408 0.0625,-0.15625 5.62e-4,-0.0022 0.03088,-0.15404 0.03125,-0.15625 3.74e-4,-0.0022 0.03107,-0.185266 0.03125,-0.1875 1.83e-4,-0.0022 9e-6,-0.154008 0,-0.15625 l -0.03125,-42.25 c 1.9e-5,-0.0013 4.6e-5,-0.09244 0,-0.09375 -4.6e-5,-0.0013 1.11e-4,-0.09245 0,-0.09375 -1.11e-4,-0.0013 -0.03107,-0.09246 -0.03125,-0.09375 -1.76e-4,-0.0013 2.41e-4,-0.09247 0,-0.09375 -2.41e-4,-0.0013 -0.03095,-0.09248 -0.03125,-0.09375 -3.05e-4,-0.0013 -0.03088,-0.0925 -0.03125,-0.09375 -3.68e-4,-0.0013 4.3e-4,-0.09252 0,-0.09375 -4.3e-4,-0.0012 -0.06201,-0.09254 -0.0625,-0.09375 -4.91e-4,-0.0012 -0.0307,-0.09257 -0.03125,-0.09375 -5.51e-4,-0.0012 -0.03064,-0.0926 -0.03125,-0.09375 -6.09e-4,-0.0012 -0.06183,-0.06138 -0.0625,-0.0625 -6.66e-4,-0.0011 -0.03053,-0.09266 -0.03125,-0.09375 -7.22e-4,-0.0011 -0.06172,-0.0927 -0.0625,-0.09375 -7.75e-4,-0.0011 -0.06167,-0.06149 -0.0625,-0.0625 -8.27e-4,-0.001 -0.06162,-0.06153 -0.0625,-0.0625 -8.76e-4,-9.69e-4 -0.06158,-0.09283 -0.0625,-0.09375 -9.24e-4,-9.24e-4 -0.09278,-0.06162 -0.09375,-0.0625 -9.69e-4,-8.76e-4 -0.06149,-0.06167 -0.0625,-0.0625 -0.001,-8.27e-4 -0.06145,-0.06172 -0.0625,-0.0625 -0.0011,-7.75e-4 -0.09266,-0.06178 -0.09375,-0.0625 -0.0011,-7.22e-4 -0.09263,-0.03058 -0.09375,-0.03125 -0.0011,-6.66e-4 -0.06135,-0.06189 -0.0625,-0.0625 -0.0012,-6.09e-4 -0.09257,-0.0307 -0.09375,-0.03125 -0.0012,-5.51e-4 -0.09254,-0.03076 -0.09375,-0.03125 -0.0012,-4.91e-4 -0.09252,-0.06207 -0.09375,-0.0625 -0.0012,-4.3e-4 -0.0925,3.68e-4 -0.09375,0 -0.0013,-3.68e-4 -0.09248,-0.03094 -0.09375,-0.03125 -0.0013,-3.05e-4 -0.09247,-0.03101 -0.09375,-0.03125 -0.0013,-2.41e-4 -0.09246,1.76e-4 -0.09375,0 -0.0013,-1.76e-4 -0.09245,-0.03114 -0.09375,-0.03125 -0.0013,-1.11e-4 -0.09244,4.6e-5 -0.09375,0 -0.0013,-4.6e-5 -0.09244,-1.9e-5 -0.09375,0 l -11.9375,-0.03125 c -4.82e-4,-2.2e-5 -0.01969,1.3e-5 -0.03125,0 -0.04623,-5.3e-5 -0.123074,-8.9e-5 -0.125,0 a 0.93817293,0.93817293 0 0 0 -0.03125,0 z" />
    <path
       transform="translate(3.6865535e-6,-2)"
       sodipodi:type="inkscape:offset"
       inkscape:radius="1.0163503"
       inkscape:original="M 54 33 L 54 65 L 42 65 L 42 45 L 38 45 L 43.6875 33.03125 L 30 33.03125 L 30.125 62.28125 C 30.125 62.28125 29.96503 74.645845 43.4375 77.25 C 51.186213 78.747774 66 75.28125 66 75.28125 L 65.96875 33.03125 L 54 33 z "
       style="opacity:0.1;fill:#000000;fill-opacity:1;stroke:none"
       id="path4538"
       d="M 54,31.96875 A 1.0164519,1.0164519 0 0 0 52.96875,33 l 0,30.96875 -9.9375,0 0,-18.96875 A 1.0164519,1.0164519 0 0 0 42,43.96875 l -2.40625,0 5,-10.5 A 1.0164519,1.0164519 0 0 0 43.6875,32 L 30,32 a 1.0164519,1.0164519 0 0 0 -1.03125,1.03125 l 0.125,29.25 c 0,0 -0.03196,3.299199 1.71875,6.9375 1.750714,3.638301 5.40625,7.672148 12.4375,9.03125 4.136293,0.799518 9.813105,0.279864 14.53125,-0.40625 4.718145,-0.686114 8.4375,-1.5625 8.4375,-1.5625 a 1.0164519,1.0164519 0 0 0 0.8125,-1 L 67,33.03125 A 1.0164519,1.0164519 0 0 0 65.96875,32 L 54,31.96875 z" />
    <path
       inkscape:transform-center-y="22.264213"
       inkscape:transform-center-x="17.989886"
       sodipodi:nodetypes="ccsccccccccc"
       inkscape:connector-curvature="0"
       id="path4532"
       d="m 30.000004,31.046265 0.12905,29.248121 c 0,0 -0.155528,12.356399 13.316942,14.960554 7.748713,1.497774 22.554008,-1.975368 22.554008,-1.975368 l -0.02023,-42.233307 -11.97977,-0.04626 0,32 -12,0 0,-20 -4,0 5.679381,-11.953735 z"
       style="opacity:0.3;fill:#000000;fill-opacity:1;stroke:none" />
    <path
       transform="matrix(0.76488407,0,0,0.76488407,-68.262372,-701.39152)"
       sodipodi:type="inkscape:offset"
       inkscape:radius="0.89908218"
       inkscape:original="M 151.90625 933.28125 C 136.74165 933.28125 129.07071 940.92163 125.625 948.4375 C 123.53506 952.99613 122.88202 957.5207 122.6875 960.375 C 118.79286 962.71785 116 968.98513 116 976.375 C 116 985.73461 120.47034 993.32776 126 993.375 L 126 959.71875 C 126.23931 957.13434 126.87922 953.45287 128.5625 949.78125 C 131.62301 943.10558 137.79288 936.53125 151.90625 936.53125 C 166.01761 936.53125 172.19527 943.13834 175.28125 949.84375 C 177.40286 954.45372 177.89206 959.05185 178 961.5 L 178 993.375 C 183.52966 993.3278 188 985.73461 188 976.375 C 188 968.90302 185.1501 962.56112 181.1875 960.28125 C 180.96552 957.39723 180.28292 952.9539 178.21875 948.46875 C 174.74835 940.92804 167.07287 933.28125 151.90625 933.28125 z "
       style="font-size:medium;font-style:normal;font-variant:normal;font-weight:normal;font-stretch:normal;text-indent:0;text-align:start;text-decoration:none;line-height:normal;letter-spacing:normal;word-spacing:normal;text-transform:none;direction:ltr;block-progression:tb;writing-mode:lr-tb;text-anchor:start;baseline-shift:baseline;opacity:0.05;color:#000000;fill:#000000;fill-opacity:1;stroke:none;stroke-width:3.25310898;marker:none;visibility:visible;display:inline;overflow:visible;enable-background:accumulate;font-family:Sans;-inkscape-font-specification:Sans"
       id="path5380"
       d="m 151.90625,932.375 c -15.46659,0 -23.53357,7.92194 -27.09375,15.6875 -2.08019,4.53736 -2.74419,8.93842 -2.96875,11.875 -4.10166,2.76793 -6.75,9.06568 -6.75,16.4375 0,4.82294 1.15263,9.19158 3.0625,12.4375 1.90987,3.24592 4.6695,5.44163 7.84375,5.46875 a 0.89917209,0.89917209 0 0 0 0.90625,-0.90625 l 0,-33.5625 0,-0.0937 c 0.23867,-2.51174 0.8611,-6.05585 2.46875,-9.5625 2.96293,-6.46283 8.69709,-12.71875 22.53125,-12.71875 13.83072,0 19.57326,6.28604 22.5625,12.78125 2.04216,4.43733 2.51808,8.89727 2.625,11.28125 3.4e-4,0.008 -3.3e-4,0.0237 0,0.0312 l 0,31.84375 A 0.89917209,0.89917209 0 0 0 178,994.28125 c 3.17425,-0.0271 5.93388,-2.22282 7.84375,-5.46875 1.90987,-3.24593 3.0625,-7.61456 3.0625,-12.4375 0,-7.43369 -2.71036,-13.77237 -6.875,-16.5 -0.2498,-2.95663 -0.94057,-7.3064 -3,-11.78125 -3.58438,-7.78837 -11.65618,-15.71875 -27.125,-15.71875 z" />
    <path
       style="font-size:medium;font-style:normal;font-variant:normal;font-weight:normal;font-stretch:normal;text-indent:0;text-align:start;text-decoration:none;line-height:normal;letter-spacing:normal;word-spacing:normal;text-transform:none;direction:ltr;block-progression:tb;writing-mode:lr-tb;text-anchor:start;baseline-shift:baseline;opacity:0.15;color:#000000;fill:#000000;fill-opacity:1;stroke:none;stroke-width:3.25310898;marker:none;visibility:visible;display:inline;overflow:visible;enable-background:accumulate;font-family:Sans;-inkscape-font-specification:Sans"
       d="m 47.9283,12.450636 c -11.599161,0 -17.466541,5.844005 -20.10211,11.592774 -1.598562,3.486824 -2.098061,6.947595 -2.246847,9.130804 -2.978948,1.792008 -5.115162,6.585752 -5.115162,12.238146 0,7.159015 3.419292,12.966896 7.648841,13.003029 l 0,-25.74313 c 0.183044,-1.976775 0.672501,-4.792672 1.960015,-7.601036 2.340936,-5.106114 7.060171,-10.134713 17.855263,-10.134713 10.793554,0 15.518748,5.053658 17.879165,10.182518 1.622786,3.526094 1.996967,7.043129 2.079529,8.91568 l 0,24.380681 c 4.229548,-0.0361 7.64884,-5.844014 7.64884,-13.003029 0,-5.715199 -2.179843,-10.566018 -5.210773,-12.309854 -0.169788,-2.20594 -0.691898,-5.604573 -2.27075,-9.035193 C 65.399858,18.299544 59.529006,12.450636 47.9283,12.450636 z"
       id="path5367"
       inkscape:connector-curvature="0" />
    <path
       style="font-size:medium;font-style:normal;font-variant:normal;font-weight:normal;font-stretch:normal;text-indent:0;text-align:start;text-decoration:none;line-height:normal;letter-spacing:normal;word-spacing:normal;text-transform:none;direction:ltr;block-progression:tb;writing-mode:lr-tb;text-anchor:start;baseline-shift:baseline;color:#000000;fill:url(#linearGradient5365-4);fill-opacity:1;stroke:none;stroke-width:3.25310898;marker:none;visibility:visible;display:inline;overflow:visible;enable-background:accumulate;font-family:Sans;-inkscape-font-specification:Sans"
       d="m 47.9283,11.695558 c -11.599161,0 -17.466541,5.844005 -20.10211,11.592775 -2.635569,5.748769 -2.294653,11.425455 -2.294653,11.425455 l 2.485874,-0.119513 c 0,0 -0.285309,-5.172016 2.055626,-10.27813 2.340936,-5.106113 7.060171,-10.134714 17.855263,-10.134714 10.793554,0 15.518748,5.053658 17.879165,10.18252 2.360417,5.128861 2.103431,10.302032 2.103431,10.302032 l 2.485873,0.143416 c 0,0 0.311996,-5.729395 -2.342458,-11.497164 C 65.399858,17.544466 59.529006,11.695558 47.9283,11.695558 z"
       id="path4798-5"
       inkscape:connector-curvature="0" />
    <path
       style="fill:url(#linearGradient5404-9);fill-opacity:1;stroke:none"
       d="m 30.000004,30.046265 0.12905,29.248121 c 0,0 -0.155528,12.356399 13.316942,14.960554 7.748713,1.497774 22.554008,-1.975368 22.554008,-1.975368 l -0.02023,-42.233307 -11.97977,-0.04626 0,32 -12,0 0,-20 -4,0 5.679381,-11.953735 z"
       id="path4784-1"
       inkscape:connector-curvature="0"
       sodipodi:nodetypes="ccsccccccccc"
       inkscape:transform-center-x="17.989886"
       inkscape:transform-center-y="22.264213" />
    <path
       inkscape:connector-curvature="0"
       id="path4786-4"
       d="m 28.113022,31.644446 c -4.229549,0.0361 -7.648841,5.844035 -7.648841,13.003022 0,7.159016 3.419292,12.966903 7.648841,13.003036 l 0,-26.006058 z"
       style="fill:url(#radialGradient5342-3);fill-opacity:1;stroke:none" />
    <path
       transform="matrix(0.61593422,0,0,0.6159341,-500.33473,-12.062208)"
       sodipodi:open="true"
       sodipodi:end="3.9269908"
       sodipodi:start="2.3561945"
       d="m 843.72833,110.46805 a 17.354755,26.117762 0 0 1 0,-36.936096"
       sodipodi:ry="26.117762"
       sodipodi:rx="17.354755"
       sodipodi:cy="92"
       sodipodi:cx="856"
       id="path4790-9"
       style="opacity:0.6;fill:none;stroke:#333333;stroke-width:4;stroke-linecap:round;stroke-linejoin:round;stroke-miterlimit:4;stroke-opacity:1;stroke-dasharray:none;stroke-dashoffset:0"
       sodipodi:type="arc" />
    <path
       sodipodi:open="true"
       sodipodi:end="3.403392"
       sodipodi:start="2.8797933"
       transform="matrix(0.90437476,0,0,0.80979852,-747.44969,-29.897744)"
       sodipodi:type="arc"
       style="opacity:0.4;fill:none;stroke:#333333;stroke-width:2.90757871;stroke-linecap:round;stroke-linejoin:round;stroke-miterlimit:4;stroke-opacity:1;stroke-dasharray:none;stroke-dashoffset:0"
       id="path4792-0"
       sodipodi:cx="856"
       sodipodi:cy="92"
       sodipodi:rx="17.354755"
       sodipodi:ry="26.117762"
       d="m 839.23659,98.759773 a 17.354755,26.117762 0 0 1 0,-13.519546" />
    <path
       transform="matrix(-0.61593422,0,0,0.6159341,596.33461,-12.062208)"
       sodipodi:type="arc"
       style="opacity:0.6;fill:none;stroke:#333333;stroke-width:4;stroke-linecap:round;stroke-linejoin:round;stroke-miterlimit:4;stroke-opacity:1;stroke-dasharray:none;stroke-dashoffset:0"
       id="path4794-1"
       sodipodi:cx="856"
       sodipodi:cy="92"
       sodipodi:rx="17.354755"
       sodipodi:ry="26.117762"
       d="m 843.72833,110.46805 a 17.354755,26.117762 0 0 1 0,-36.936096"
       sodipodi:start="2.3561945"
       sodipodi:end="3.9269908"
       sodipodi:open="true" />
    <path
       d="m 839.23659,98.759773 a 17.354755,26.117762 0 0 1 0,-13.519546"
       sodipodi:ry="26.117762"
       sodipodi:rx="17.354755"
       sodipodi:cy="92"
       sodipodi:cx="856"
       id="path4796-4"
       style="opacity:0.4;fill:none;stroke:#333333;stroke-width:2.90757871;stroke-linecap:round;stroke-linejoin:round;stroke-miterlimit:4;stroke-opacity:1;stroke-dasharray:none;stroke-dashoffset:0"
       sodipodi:type="arc"
       transform="matrix(-0.90437476,0,0,0.80979852,843.44959,-29.897744)"
       sodipodi:start="2.8797933"
       sodipodi:end="3.403392"
       sodipodi:open="true" />
    <path
       style="fill:url(#radialGradient4935-9);fill-opacity:1;stroke:none"
       d="m 67.886994,31.644446 c 4.229548,0.0361 7.64884,5.844035 7.64884,13.003022 0,7.159016 -3.419292,12.966903 -7.64884,13.003036 l 0,-26.006058 z"
       id="path5344"
       inkscape:connector-curvature="0" />
    <path
       style="fill:#ffffff;fill-opacity:1;stroke:none"
       d="m 54.000004,30 0,1 11.96875,0.03125 0,-1 L 54.000004,30 z m -24,0.03125 0,1 13.21875,0 0.46875,-1 -13.6875,0 z M 38.468754,42 l -0.46875,1 4,0 0,-1 -3.53125,0 z m 3.53125,20 0,1 12,0 0,-1 -12,0 z"
       id="path4523"
       inkscape:connector-curvature="0" />
  </g>
</svg>
