<?xml version="1.0" encoding="UTF-8" standalone="no"?>
<svg
   xmlns:dc="http://purl.org/dc/elements/1.1/"
   xmlns:cc="http://creativecommons.org/ns#"
   xmlns:rdf="http://www.w3.org/1999/02/22-rdf-syntax-ns#"
   xmlns:svg="http://www.w3.org/2000/svg"
   xmlns="http://www.w3.org/2000/svg"
   xmlns:xlink="http://www.w3.org/1999/xlink"
   xmlns:sodipodi="http://sodipodi.sourceforge.net/DTD/sodipodi-0.dtd"
   xmlns:inkscape="http://www.inkscape.org/namespaces/inkscape"
   width="96"
   height="96"
   version="1.0"
   id="svg125"
   sodipodi:docname="venom.svg"
   inkscape:version="0.92.2 5c3e80d, 2017-08-06">
  <metadata
     id="metadata129">
    <rdf:RDF>
      <cc:Work
         rdf:about="">
        <dc:format>image/svg+xml</dc:format>
        <dc:type
           rdf:resource="http://purl.org/dc/dcmitype/StillImage" />
      </cc:Work>
    </rdf:RDF>
  </metadata>
  <sodipodi:namedview
     pagecolor="#ffffff"
     bordercolor="#666666"
     borderopacity="1"
     objecttolerance="10"
     gridtolerance="10"
     guidetolerance="10"
     inkscape:pageopacity="0"
     inkscape:pageshadow="2"
     inkscape:window-width="640"
     inkscape:window-height="480"
     id="namedview127"
     showgrid="false"
     inkscape:zoom="2.4583333"
     inkscape:cx="48"
     inkscape:cy="48"
     inkscape:window-x="0"
     inkscape:window-y="25"
     inkscape:window-maximized="0"
     inkscape:current-layer="svg125" />
  <defs
     id="defs49">
    <linearGradient
       id="linearGradient4384">
      <stop
         stop-color="#fff"
         offset="0"
         id="stop2" />
      <stop
         stop-color="#fff"
         stop-opacity="0"
         offset="1"
         id="stop4" />
    </linearGradient>
    <linearGradient
       id="ButtonShadow"
       x1="45.448"
       x2="45.448"
       y1="92.54"
       y2="7.0165"
       gradientTransform="scale(1.0059 .99417)"
       gradientUnits="userSpaceOnUse">
      <stop
         offset="0"
         id="stop7" />
      <stop
         stop-opacity=".58824"
         offset="1"
         id="stop9" />
    </linearGradient>
    <filter
       id="filter3174">
      <feGaussianBlur
         stdDeviation="1.71"
         id="feGaussianBlur12" />
    </filter>
    <filter
       id="filter3794"
       x="-.192"
       y="-.192"
       width="1.384"
       height="1.384">
      <feGaussianBlur
         stdDeviation="5.28"
         id="feGaussianBlur15" />
    </filter>
    <linearGradient
       id="linearGradient3613"
       x1="48"
       x2="48"
       y1="20.221"
       y2="138.66"
       gradientUnits="userSpaceOnUse">
      <stop
         stop-color="#fff"
         offset="0"
         id="stop18" />
      <stop
         stop-color="#fff"
         stop-opacity="0"
         offset="1"
         id="stop20" />
    </linearGradient>
    <linearGradient
       id="linearGradient3617"
       x1="48"
       x2="48"
       y1="90"
       y2="5.9877"
       gradientUnits="userSpaceOnUse">
      <stop
         stop-color="#65a31b"
         offset="0"
         id="stop23" />
      <stop
         stop-color="#a0de42"
         offset="1"
         id="stop25" />
    </linearGradient>
    <linearGradient
       id="ButtonShadow-0"
       x1="45.448"
       x2="45.448"
       y1="92.54"
       y2="7.0165"
       gradientTransform="matrix(1.0059 0 0 .99417 100 0)"
       gradientUnits="userSpaceOnUse">
      <stop
         offset="0"
         id="stop28" />
      <stop
         stop-opacity=".58824"
         offset="1"
         id="stop30" />
    </linearGradient>
    <linearGradient
       id="linearGradient3780"
       x1="32.251"
       x2="32.251"
       y1="6.1317"
       y2="90.239"
       gradientTransform="matrix(1.0238 0 0 1.0119 -1.1429 -98.071)"
       gradientUnits="userSpaceOnUse"
       xlink:href="#ButtonShadow-0" />
    <linearGradient
       id="linearGradient3721"
       x1="32.251"
       x2="32.251"
       y1="6.1317"
       y2="90.239"
       gradientTransform="translate(0,-97)"
       gradientUnits="userSpaceOnUse"
       xlink:href="#ButtonShadow-0" />
    <clipPath
       id="clipPath4355">
      <rect
         x="6"
         y="6"
         width="84"
         height="80"
         rx="6"
         ry="6"
         fill="#fff"
         id="rect35" />
    </clipPath>
    <linearGradient
       id="linearGradient4390"
       x1="48"
       x2="48"
       y1="88"
       y2="-40"
       gradientTransform="matrix(1,0,0,-1,0,92)"
       gradientUnits="userSpaceOnUse"
       xlink:href="#linearGradient4384" />
    <linearGradient
       id="linearGradient4429"
       x1="48"
       x2="112.12"
       y1="82"
       y2="82.455"
       gradientUnits="userSpaceOnUse"
       spreadMethod="reflect"
       xlink:href="#linearGradient4384" />
    <linearGradient
       id="linearGradient3870"
       x1="8"
       x2="50"
       y1="1033.4"
       y2="1033.4"
       gradientTransform="translate(-2 -956.36)"
       gradientUnits="userSpaceOnUse"
       spreadMethod="reflect">
      <stop
         stop-color="#523823"
         offset="0"
         id="stop40" />
      <stop
         stop-color="#79563a"
         offset=".1178"
         id="stop42" />
      <stop
         stop-color="#875c38"
         offset=".2381"
         id="stop44" />
      <stop
         stop-color="#a66e40"
         offset="1"
         id="stop46" />
    </linearGradient>
  </defs>
  <g
     display="none"
     id="g53">
    <rect
       x="5"
       y="7"
       width="86"
       height="85"
       rx="6"
       ry="6"
       fill="url(#ButtonShadow)"
       filter="url(#filter3174)"
       opacity=".9"
       id="rect51" />
  </g>
  <g
     id="g67">
    <g
       fill="url(#linearGradient3780)"
       id="g63">
      <path
         transform="scale(1,-1)"
         d="m12-95.031c-5.5111 0-10.031 4.5202-10.031 10.031v71c0 5.5111 4.5202 10.031 10.031 10.031h72c5.5111 0 10.031-4.5202 10.031-10.031v-71c0-5.5111-4.5202-10.031-10.031-10.031h-72z"
         opacity=".08"
         id="path55" />
      <path
         transform="scale(1,-1)"
         d="m12-94.031c-4.9716 0-9.0312 4.0596-9.0312 9.0312v71c0 4.9716 4.0596 9.0312 9.0312 9.0312h72c4.9716 0 9.0312-4.0596 9.0312-9.0312v-71c0-4.9716-4.0596-9.0312-9.0312-9.0312h-72z"
         opacity=".1"
         id="path57" />
      <path
         transform="scale(1,-1)"
         d="m12-93c-4.4091 0-8 3.5909-8 8v71c0 4.4091 3.5909 8 8 8h72c4.4091 0 8-3.5909 8-8v-71c0-4.4091-3.5909-8-8-8h-72z"
         opacity=".2"
         id="path59" />
      <rect
         transform="scale(1,-1)"
         x="5"
         y="-92"
         width="86"
         height="85"
         rx="7"
         ry="7"
         opacity=".3"
         id="rect61" />
    </g>
    <rect
       transform="scale(1,-1)"
       x="6"
       y="-91"
       width="84"
       height="84"
       rx="6"
       ry="6"
       fill="url(#linearGradient3721)"
       opacity=".45"
       id="rect65" />
  </g>
  <g
     id="g79">
    <rect
       x="6"
       y="64"
       width="84"
       height="26"
       rx="6"
       ry="6"
       color="#000000"
       fill="url(#linearGradient3870)"
       id="rect69" />
    <g
       id="g77">
      <path
         d="m6 82v2c0 3.324 2.676 6 6 6h72c3.324 0 6-2.676 6-6v-2c0 3.324-2.676 6-6 6h-72c-3.324 0-6-2.676-6-6z"
         color="#000000"
         opacity=".1"
         id="path71" />
      <path
         d="m6 83v1c0 3.324 2.676 6 6 6h72c3.324 0 6-2.676 6-6v-1c0 3.324-2.676 6-6 6h-72c-3.324 0-6-2.676-6-6z"
         color="#000000"
         opacity=".1"
         id="path73" />
      <path
         d="m6 80v1c0 3.324 2.676 6 6 6h72c3.324 0 6-2.676 6-6v-1c0 3.324-2.676 6-6 6h-72c-3.324 0-6-2.676-6-6z"
         opacity=".2"
         id="path75" />
    </g>
  </g>
  <g
     id="g87">
    <rect
       x="6"
       y="6"
       width="84"
       height="80"
       rx="6"
       ry="6"
       fill="url(#linearGradient3617)"
       id="rect81" />
    <path
       d="m12 86c-3.324 0-6-2.676-6-6v-68c0-3.324 2.676-6 6-6h72c3.324 0 6 2.676 6 6v68c0 3.324-2.676 6-6 6zm0-0.96875h72c2.8049 0 5.0312-2.2264 5.0312-5.0312v-68c0-2.8049-2.2264-5.0312-5.0312-5.0312h-72c-2.8049 0-5.0312 2.2264-5.0312 5.0312v68c0 2.8049 2.2264 5.0312 5.0312 5.0312z"
       fill="url(#linearGradient4390)"
       opacity=".3"
       id="path83" />
    <path
       d="m6 78v2c0 3.324 2.676 6 6 6h72c3.324 0 6-2.676 6-6v-2c0 3.324-2.676 6-6 6h-72c-3.324 0-6-2.676-6-6z"
       fill="url(#linearGradient4429)"
       opacity=".1"
       id="path85" />
  </g>
  <g
     id="g91">
    <rect
       x="15"
       y="15"
       width="66"
       height="62"
       rx="12"
       ry="12"
       clip-path="url(#clipPath4355)"
       fill="url(#linearGradient3613)"
       filter="url(#filter3794)"
       opacity=".1"
       stroke="#fff"
       stroke-linecap="round"
       stroke-width=".5"
       id="rect89" />
  </g>
  <defs
     id="defs101">
    <filter
       id="w">
      <feGaussianBlur
         stdDeviation="0.23199685"
         id="feGaussianBlur93" />
    </filter>
    <linearGradient
       id="a"
       gradientUnits="userSpaceOnUse"
       x1="8"
       y1="1"
       x2="8"
       y2="15">
      <stop
         stop-color="#fafafa"
         offset="0"
         id="stop96" />
      <stop
         stop-color="#ebebeb"
         offset="1"
         id="stop98" />
    </linearGradient>
  </defs>
  <g
     transform="translate(0,-2)"
     id="g123">
    <path
       style="opacity:0.15;fill:#000000"
       d="M 8,0.75 C 5.6498243,0.75 3.75,2.6498243 3.75,5 V 6.75 H 3 C 2.3118243,6.75 1.75,7.3118243 1.75,8 v 6 c 0,0.688176 0.5618243,1.25 1.25,1.25 h 10 c 0.688176,0 1.25,-0.561824 1.25,-1.25 V 8 C 14.25,7.3118243 13.688176,6.75 13,6.75 H 12.25 V 5 C 12.25,2.6498243 10.350176,0.75 8,0.75 Z m 0,2 c 1.2508243,0 2.25,0.9991757 2.25,2.25 0,0.3212214 -0.06711,0.6238799 -0.1875,0.9003906 a 0.250025,0.250025 0 0 0 -0.0098,0.021484 C 9.8535024,6.5281715 9.5320411,6.9288609 9.109375,7.4375 8.9992982,7.5698605 8.8500196,7.6671538 8.7265625,7.7871094 8.7558964,7.680317 8.7992094,7.5800242 8.8164062,7.4667969 A 0.250025,0.250025 0 0 0 8.5117188,7.1855469 C 8.3420669,7.224823 8.1725038,7.25 8,7.25 6.7491757,7.25 5.75,6.2508243 5.75,5 5.75,3.7491757 6.7491757,2.75 8,2.75 Z m 0,6.5 c 0.5933754,0 1.0585938,0.4536025 1.0585938,1.007812 0,0.430011 -0.2813888,0.796539 -0.6855469,0.941407 a 0.250025,0.250025 0 0 0 0.00977,0.474609 c 0.3018912,0.09364 0.5901437,0.286258 0.8222656,0.59375 0.098697,0.130719 0.1771481,0.301153 0.2265625,0.455078 C 9.481055,12.876582 9.5,13.026344 9.5,13.056641 v 0.296875 c 1.83e-4,0.0095 0,0.03095 0,0.02734 C 9.5000898,13.584185 9.3337548,13.75 9.1152344,13.75 H 6.8847656 C 6.6657083,13.75 6.5,13.584867 6.5,13.380859 c 0,0.02118 8.823e-4,0.01114 0.00195,-0.02148 a 0.250025,0.250025 0 0 0 0,-0.01953 c -2.88e-5,-6.67e-4 1.055e-4,-0.0041 0,-0.0059 -5.3e-5,-0.0031 6.16e-5,-0.0067 0,-0.01172 -1.846e-4,-0.01519 -0.00178,-0.0371 -0.00195,-0.06445 -3.537e-4,-0.0547 1.463e-4,-0.127536 0,-0.201171 -7.87e-5,-0.08535 0.079314,-0.544763 0.265625,-0.808594 0.2160571,-0.305832 0.500608,-0.498851 0.8085938,-0.585938 a 0.250025,0.250025 0 0 0 0.023437,-0.472656 C 7.2093241,11.037338 6.9414063,10.677424 6.9414062,10.257812 6.9414062,9.70366 7.4069643,9.25 8,9.25 Z"
       id="path103"
       inkscape:original="m8 1c-2.216 0-4 1.784-4 4v2h-1c-0.554 0-1 0.446-1 1v6c0 0.554 0.446 1 1 1h10c0.554 0 1-0.446 1-1v-6c0-0.554-0.446-1-1-1h-1v-2c0-2.216-1.784-4-4-4zm0 1.5c1.385 0 2.5 1.115 2.5 2.5 0 0.35656-0.075602 0.69365-0.20898 1-0.21428 0.65209-0.56635 1.0876-0.99023 1.5977-0.32731 0.39357-0.71147 0.7253-1.1211 1.0254-0.019754 0.014566-0.040661 0.026747-0.09375 0.060547 0.23099-0.41127 0.41429-0.80532 0.48242-1.2539-0.18299 0.042364-0.37212 0.070312-0.56836 0.070312-1.385 0-2.5-1.115-2.5-2.5s1.115-2.5 2.5-2.5zm0 6.5c0.72316 0 1.3086 0.56313 1.3086 1.2578 0 0.53947-0.3543 0.99946-0.85156 1.1777 0.35214 0.10923 0.68512 0.33437 0.94727 0.68164 0.24478 0.3242 0.3457 0.77597 0.3457 0.93945v0.29688c-9.06e-4 9e-3 0 0.018053 0 0.027343 1.51e-4 0.34205-0.28443 0.61914-0.63477 0.61914h-2.2305c-0.35063 0-0.63477-0.2768-0.63477-0.61914 0-0.0091 0.0016531-0.020156 0.0019531-0.029297-7.55e-4 0-0.0016591-0.14696-0.0019531-0.29492-1.511e-4 -0.16377 0.076489-0.62167 0.31055-0.95312 0.24779-0.35075 0.5826-0.57908 0.94531-0.68164-0.47808-0.18727-0.81445-0.63794-0.81445-1.1641 0-0.69468 0.58573-1.2578 1.3086-1.2578z"
       transform="matrix(4,0,0,4,16,17)"
       inkscape:radius="0.25"
       sodipodi:type="inkscape:offset" />
    <g
       id="Bevel1">
      <path
         fill="#000"
         opacity=".10"
         sodipodi:type="inkscape:offset"
         inkscape:radius="0.5"
         transform="translate(16,17) scale(4)"
         inkscape:original="m8 1c-2.216 0-4 1.784-4 4v2h-1c-0.554 0-1 0.446-1 1v6c0 0.554 0.446 1 1 1h10c0.554 0 1-0.446 1-1v-6c0-0.554-0.446-1-1-1h-1v-2c0-2.216-1.784-4-4-4zm0 1.5c1.385 0 2.5 1.115 2.5 2.5 0 0.35656-0.075602 0.69365-0.20898 1-0.21428 0.65209-0.56635 1.0876-0.99023 1.5977-0.32731 0.39357-0.71147 0.7253-1.1211 1.0254-0.019754 0.014566-0.040661 0.026747-0.09375 0.060547 0.23099-0.41127 0.41429-0.80532 0.48242-1.2539-0.18299 0.042364-0.37212 0.070312-0.56836 0.070312-1.385 0-2.5-1.115-2.5-2.5s1.115-2.5 2.5-2.5zm0 6.5c0.72316 0 1.3086 0.56313 1.3086 1.2578 0 0.53947-0.3543 0.99946-0.85156 1.1777 0.35214 0.10923 0.68512 0.33437 0.94727 0.68164 0.24478 0.3242 0.3457 0.77597 0.3457 0.93945v0.29688c-9.06e-4 9e-3 0 0.018053 0 0.027343 1.51e-4 0.34205-0.28443 0.61914-0.63477 0.61914h-2.2305c-0.35063 0-0.63477-0.2768-0.63477-0.61914 0-0.0091 0.0016531-0.020156 0.0019531-0.029297-7.55e-4 0-0.0016591-0.14696-0.0019531-0.29492-1.511e-4 -0.16377 0.076489-0.62167 0.31055-0.95312 0.24779-0.35075 0.5826-0.57908 0.94531-0.68164-0.47808-0.18727-0.81445-0.63794-0.81445-1.1641 0-0.69468 0.58573-1.2578 1.3086-1.2578z"
         id="path106" />
    </g>
    <g
       id="Bevel2">
      <path
         fill="#000"
         opacity=".05"
         sodipodi:type="inkscape:offset"
         inkscape:radius="0.75"
         transform="translate(16,17) scale(4)"
         inkscape:original="m8 1c-2.216 0-4 1.784-4 4v2h-1c-0.554 0-1 0.446-1 1v6c0 0.554 0.446 1 1 1h10c0.554 0 1-0.446 1-1v-6c0-0.554-0.446-1-1-1h-1v-2c0-2.216-1.784-4-4-4zm0 1.5c1.385 0 2.5 1.115 2.5 2.5 0 0.35656-0.075602 0.69365-0.20898 1-0.21428 0.65209-0.56635 1.0876-0.99023 1.5977-0.32731 0.39357-0.71147 0.7253-1.1211 1.0254-0.019754 0.014566-0.040661 0.026747-0.09375 0.060547 0.23099-0.41127 0.41429-0.80532 0.48242-1.2539-0.18299 0.042364-0.37212 0.070312-0.56836 0.070312-1.385 0-2.5-1.115-2.5-2.5s1.115-2.5 2.5-2.5zm0 6.5c0.72316 0 1.3086 0.56313 1.3086 1.2578 0 0.53947-0.3543 0.99946-0.85156 1.1777 0.35214 0.10923 0.68512 0.33437 0.94727 0.68164 0.24478 0.3242 0.3457 0.77597 0.3457 0.93945v0.29688c-9.06e-4 9e-3 0 0.018053 0 0.027343 1.51e-4 0.34205-0.28443 0.61914-0.63477 0.61914h-2.2305c-0.35063 0-0.63477-0.2768-0.63477-0.61914 0-0.0091 0.0016531-0.020156 0.0019531-0.029297-7.55e-4 0-0.0016591-0.14696-0.0019531-0.29492-1.511e-4 -0.16377 0.076489-0.62167 0.31055-0.95312 0.24779-0.35075 0.5826-0.57908 0.94531-0.68164-0.47808-0.18727-0.81445-0.63794-0.81445-1.1641 0-0.69468 0.58573-1.2578 1.3086-1.2578z"
         id="path109" />
    </g>
    <path
       d="m8 1c-2.216 0-4 1.784-4 4v2h-1c-0.554 0-1 0.446-1 1v6c0 0.554 0.446 1 1 1h10c0.554 0 1-0.446 1-1v-6c0-0.554-0.446-1-1-1h-1v-2c0-2.216-1.784-4-4-4zm0 1.5c1.385 0 2.5 1.115 2.5 2.5 0 0.35656-0.075602 0.69365-0.20898 1-0.21428 0.65209-0.56635 1.0876-0.99023 1.5977-0.32731 0.39357-0.71147 0.7253-1.1211 1.0254-0.019754 0.014566-0.040661 0.026747-0.09375 0.060547 0.23099-0.41127 0.41429-0.80532 0.48242-1.2539-0.18299 0.042364-0.37212 0.070312-0.56836 0.070312-1.385 0-2.5-1.115-2.5-2.5s1.115-2.5 2.5-2.5zm0 6.5c0.72316 0 1.3086 0.56313 1.3086 1.2578 0 0.53947-0.3543 0.99946-0.85156 1.1777 0.35214 0.10923 0.68512 0.33437 0.94727 0.68164 0.24478 0.3242 0.3457 0.77597 0.3457 0.93945v0.29688c-9.06e-4 9e-3 0 0.018053 0 0.027343 1.51e-4 0.34205-0.28443 0.61914-0.63477 0.61914h-2.2305c-0.35063 0-0.63477-0.2768-0.63477-0.61914 0-0.0091 0.0016531-0.020156 0.0019531-0.029297-7.55e-4 0-0.0016591-0.14696-0.0019531-0.29492-1.511e-4 -0.16377 0.076489-0.62167 0.31055-0.95312 0.24779-0.35075 0.5826-0.57908 0.94531-0.68164-0.47808-0.18727-0.81445-0.63794-0.81445-1.1641 0-0.69468 0.58573-1.2578 1.3086-1.2578z"
       fill="url(#a)"
       id="base"
       transform="translate(16,16) scale(4)" />
    <path
       style="opacity:0.3;fill:#000000;stroke-width:4"
       d="M 48 24 C 42.46 24 38 28.46 38 34 C 38 34.168849 38.0172 34.333254 38.025391 34.5 C 38.285925 29.195719 42.628849 25 48 25 C 53.367204 25 57.708253 29.189533 57.974609 34.488281 C 57.982601 34.325362 58 34.165075 58 34 C 58 28.46 53.54 24 48 24 z M 50.273438 44.71875 C 50.198632 44.736068 50.120244 44.74371 50.044922 44.759766 C 49.688355 46.136811 49.083948 47.416477 48.34375 48.734375 C 48.556106 48.599175 48.63973 48.550447 48.71875 48.492188 C 48.867286 48.383368 49.009482 48.267239 49.15625 48.15625 C 49.68039 47.050838 50.088678 45.93524 50.273438 44.71875 z M 48 50 C 45.10852 50 42.765625 52.25253 42.765625 55.03125 C 42.765625 55.180747 42.787483 55.324522 42.800781 55.470703 C 43.0906 52.95567 45.30558 51 48 51 C 50.693495 51 52.906882 52.954495 53.199219 55.466797 C 53.212305 55.321907 53.234375 55.179398 53.234375 55.03125 C 53.234375 52.25257 50.89264 50 48 50 z M 44.943359 60.097656 C 43.914365 60.593685 42.9818 61.367131 42.242188 62.414062 C 41.305943 63.739862 40.999396 65.571483 41 66.226562 C 41.000948 66.693958 41.003396 66.983361 41.005859 67.158203 C 41.020391 66.463295 41.329271 64.706828 42.242188 63.414062 C 43.233348 62.011062 44.572598 61.09774 46.023438 60.6875 C 45.635448 60.53552 45.278179 60.3301 44.943359 60.097656 z M 50.917969 60.1875 C 50.578138 60.40803 50.218363 60.602309 49.828125 60.742188 C 51.236685 61.179108 52.568588 62.07967 53.617188 63.46875 C 54.596308 64.76555 55 66.572643 55 67.226562 L 55 66.226562 C 55 65.572643 54.596308 63.76555 53.617188 62.46875 C 52.844286 61.444888 51.915954 60.690513 50.917969 60.1875 z M 41.001953 67.496094 C 41.001387 67.505247 41 67.514941 41 67.523438 C 41 67.530785 41.001888 67.53759 41.001953 67.544922 C 41.001859 67.522275 41.002042 67.519252 41.001953 67.496094 z M 24 70 L 24 71 C 24 73.216 25.784 75 28 75 L 68 75 C 70.216 75 72 73.216 72 71 L 72 70 C 72 72.216 70.216 74 68 74 L 28 74 C 25.784 74 24 72.216 24 70 z "
       transform="translate(0,2)"
       id="path113" />
    <path
       style="fill:#ffffff;stroke-width:4"
       d="M 48 18 C 39.136 18 32 25.136 32 34 L 32 35 C 32 26.136 39.136 19 48 19 C 56.864 19 64 26.136 64 35 L 64 34 C 64 25.136 56.864 18 48 18 z M 57.974609 34.488281 C 57.913555 35.732971 57.635832 36.91643 57.164062 38 C 56.306942 40.60836 54.898645 42.350225 53.203125 44.390625 C 52.012571 45.822192 50.628499 47.042907 49.15625 48.15625 C 48.907284 48.681318 48.641296 49.204605 48.34375 49.734375 C 48.556106 49.599175 48.63973 49.550447 48.71875 49.492188 C 50.35727 48.291787 51.893885 46.964905 53.203125 45.390625 C 54.898645 43.350225 56.306942 41.60836 57.164062 39 C 57.697583 37.7746 58 36.42624 58 35 C 58 34.827204 57.983185 34.658873 57.974609 34.488281 z M 38.025391 34.5 C 38.0172 34.666746 38 34.831151 38 35 C 38 40.54 42.46 45 48 45 C 48.704738 45 49.383224 44.900814 50.044922 44.759766 C 50.133443 44.4179 50.219237 44.075614 50.273438 43.71875 C 49.541477 43.888206 48.78496 44 48 44 C 42.628849 44 38.285925 39.804281 38.025391 34.5 z M 28 42 C 25.784 42 24 43.784 24 46 L 24 47 C 24 44.784 25.784 43 28 43 L 32 43 L 32 42 L 28 42 z M 64 42 L 64 43 L 68 43 C 70.216 43 72 44.784 72 47 L 72 46 C 72 43.784 70.216 42 68 42 L 64 42 z M 53.199219 55.466797 C 53.021695 57.432321 51.680608 59.078175 49.828125 59.742188 C 50.198465 59.857063 50.561981 60.008072 50.917969 60.1875 C 52.310255 59.283991 53.234375 57.765767 53.234375 56.03125 C 53.234375 55.839951 53.220833 55.652545 53.199219 55.466797 z M 42.800781 55.470703 C 42.779585 55.654643 42.765625 55.841875 42.765625 56.03125 C 42.765625 57.708881 43.627923 59.184432 44.943359 60.097656 C 45.293327 59.928954 45.655228 59.791615 46.023438 59.6875 C 44.246954 58.991629 42.974699 57.382472 42.800781 55.470703 z M 41.005859 67.158203 C 41.005488 67.17596 40.999985 67.21024 41 67.226562 C 41.000274 67.361785 41.001464 67.368253 41.001953 67.496094 C 41.003814 67.466032 41.006893 67.434277 41.007812 67.40625 C 41.007182 67.40625 41.006515 67.204755 41.005859 67.158203 z M 55 67.523438 C 55.000604 68.891638 53.862297 70 52.460938 70 L 43.539062 70 C 42.144067 70 41.014059 68.904113 41.001953 67.544922 C 41.003616 67.944422 41.005622 68.40625 41.007812 68.40625 C 41.006613 68.44281 41 68.487037 41 68.523438 C 41 69.892798 42.136542 71 43.539062 71 L 52.460938 71 C 53.862297 71 55.000604 69.891638 55 68.523438 C 55 68.486277 54.9964 68.450063 55 68.414062 L 55 67.523438 z "
       transform="translate(0,2)"
       id="path118" />
  </g>
</svg>
