<?xml version="1.0" encoding="UTF-8" standalone="no"?>
<svg xmlns:dc="http://purl.org/dc/elements/1.1/" xmlns:cc="http://creativecommons.org/ns#" xmlns:rdf="http://www.w3.org/1999/02/22-rdf-syntax-ns#" xmlns:svg="http://www.w3.org/2000/svg" xmlns="http://www.w3.org/2000/svg" xmlns:xlink="http://www.w3.org/1999/xlink" xmlns:sodipodi="http://sodipodi.sourceforge.net/DTD/sodipodi-0.dtd" xmlns:inkscape="http://www.inkscape.org/namespaces/inkscape" width="96" height="96" version="1.1" id="svg77" sodipodi:docname="viewnior.svg" inkscape:version="0.92.2 5c3e80d, 2017-08-06">
  <metadata id="metadata81">
    <rdf:RDF>
      <cc:Work rdf:about="">
        <dc:format>image/svg+xml</dc:format>
        <dc:type rdf:resource="http://purl.org/dc/dcmitype/StillImage" />
      </cc:Work>
    </rdf:RDF>
  </metadata>
  <sodipodi:namedview pagecolor="#ffffff" bordercolor="#666666" borderopacity="1" objecttolerance="10" gridtolerance="10" guidetolerance="10" inkscape:pageopacity="0" inkscape:pageshadow="2" inkscape:window-width="640" inkscape:window-height="480" id="namedview79" showgrid="false" inkscape:zoom="2.4583333" inkscape:cx="48" inkscape:cy="48" inkscape:current-layer="svg77" />
  <defs id="defs2410">
    <linearGradient id="linearGradient4384">
      <stop id="stop4386" stop-color="#fff" offset="0" />
      <stop id="stop4388" stop-color="#fff" stop-opacity="0" offset="1" />
    </linearGradient>
    <filter id="filter3794" x="-.192" y="-.192" width="1.384" height="1.384">
      <feGaussianBlur id="feGaussianBlur3796" stdDeviation="5.28" />
    </filter>
    <linearGradient id="linearGradient3613" x1="48" x2="48" y1="20.221" y2="138.66" gradientUnits="userSpaceOnUse">
      <stop id="stop3739" stop-color="#fff" offset="0" />
      <stop id="stop3741" stop-color="#fff" stop-opacity="0" offset="1" />
    </linearGradient>
    <linearGradient id="buttonGradient" x1="48" x2="48" y1="90" y2="5.9877" gradientUnits="userSpaceOnUse">
      <stop id="stop3702" stop-color="#bc211a" offset="0" />
      <stop id="stop3704" stop-color="#ff4746" offset="1" />
    </linearGradient>
    <linearGradient id="ButtonShadow-0" x1="45.448" x2="45.448" y1="92.54" y2="7.0165" gradientTransform="matrix(1.0059 0 0 .99417 100 0)" gradientUnits="userSpaceOnUse">
      <stop id="stop3750-8" offset="0" />
      <stop id="stop3752-5" stop-opacity=".58824" offset="1" />
    </linearGradient>
    <linearGradient id="linearGradient3780" x1="32.251" x2="32.251" y1="6.1317" y2="90.239" gradientTransform="matrix(1.0238 0 0 1.0119 -1.1429 -98.071)" gradientUnits="userSpaceOnUse" xlink:href="#ButtonShadow-0" />
    <linearGradient id="linearGradient3721" x1="32.251" x2="32.251" y1="6.1317" y2="90.239" gradientTransform="translate(0,-97)" gradientUnits="userSpaceOnUse" xlink:href="#ButtonShadow-0" />
    <clipPath id="clipPath4355">
      <rect id="rect4357" x="6" y="6" width="84" height="80" rx="6" ry="6" fill="#fff" />
    </clipPath>
    <linearGradient id="linearGradient4390" x1="48" x2="48" y1="88" y2="-40" gradientTransform="matrix(1,0,0,-1,0,92)" gradientUnits="userSpaceOnUse" xlink:href="#linearGradient4384" />
    <linearGradient id="linearGradient4429" x1="48" x2="112.12" y1="82" y2="82.455" gradientUnits="userSpaceOnUse" spreadMethod="reflect" xlink:href="#linearGradient4384" />
    <linearGradient id="linearGradient3228" x1="90" x2="48" y1="88" y2="88" gradientUnits="userSpaceOnUse" spreadMethod="reflect">
      <stop id="stop3894" stop-opacity=".58824" offset="0" />
      <stop id="stop3896" stop-opacity=".47059" offset=".1178" />
      <stop id="stop3898" stop-opacity=".39216" offset=".2381" />
      <stop id="stop3900" stop-opacity=".31373" offset="1" />
    </linearGradient>
  </defs>
  <g id="layer3">
    <g id="g32" fill="url(#linearGradient3780)">
      <path id="path3786" transform="scale(1,-1)" d="m12-95.021c-5.5111 0-10.022 4.51-10.022 10.021v71c0 5.5111 4.5104 10.021 10.021 10.021h72c5.5111 0 10.021-4.5104 10.021-10.021v-71c0-5.5111-4.5104-10.021-10.021-10.021h-72z" opacity=".08" />
      <path id="path3778" transform="scale(1,-1)" d="m12-94.035c-4.9716 0-9.0352 4.0635-9.0352 9.0352v71c0 4.9716 4.0635 9.0352 9.0352 9.0352h72c4.9716 0 9.0352-4.0635 9.0352-9.0352v-71c0-4.9716-4.0635-9.0352-9.0352-9.0352h-72z" opacity=".1" />
      <path id="path3770" transform="scale(1,-1)" d="m12-92.99c-4.4091 0-7.9902 3.5811-7.9902 7.9902v71c0 4.4091 3.5811 7.9902 7.9902 7.9902h72c4.4091 0 7.9902-3.5811 7.9902-7.9902v-71c0-4.4091-3.5811-7.9902-7.9902-7.9902h-72z" opacity=".2" />
      <rect id="rect3723" transform="scale(1,-1)" x="5" y="-92" width="86" height="85" rx="7" ry="7" opacity=".3" />
    </g>
    <rect id="rect3716" transform="scale(1,-1)" x="6" y="-91" width="84" height="84" rx="6" ry="6" fill="url(#linearGradient3721)" opacity=".45" />
  </g>
  <g id="layer1">
    <rect id="button" x="6" y="6" width="84" height="84" rx="6" ry="6" fill="url(#buttonGradient)" />
    <path id="rect4377" d="m12 86c-3.324 0-6-2.676-6-6v-68c0-3.324 2.676-6 6-6h72c3.324 0 6 2.676 6 6v68c0 3.324-2.676 6-6 6zm0-0.96875h72c2.8049 0 5.0312-2.2264 5.0312-5.0312v-68c0-2.8049-2.226-5.0312-5.031-5.0312h-72c-2.8049 0-5.0312 2.2263-5.0312 5.0312v68c0 2.8049 2.2264 5.0312 5.0312 5.0312z" fill="url(#linearGradient4390)" opacity=".3" />
    <path id="rect4414" d="m6 78v2c0 3.324 2.676 6 6 6h72c3.324 0 6-2.676 6-6v-2c0 3.324-2.676 6-6 6h-72c-3.324 0-6-2.676-6-6z" fill="url(#linearGradient4429)" opacity=".1" />
  </g>
  <g id="layer4">
    <path id="path3888" d="m6 80v4c0 3.324 2.676 6 6 6h72c3.324 0 6-2.676 6-6v-4c0 3.324-2.676 6-6 6h-72c-3.324 0-6-2.676-6-6z" fill="url(#linearGradient3228)" />
    <path id="rect4345" d="m6 82v2c0 3.324 2.676 6 6 6h72c3.324 0 6-2.676 6-6v-2c0 3.324-2.676 6-6 6h-72c-3.324 0-6-2.676-6-6z" color="#000000" opacity=".1" />
    <path id="rect4336" d="m6 83v1c0 3.324 2.676 6 6 6h72c3.324 0 6-2.676 6-6v-1c0 3.324-2.676 6-6 6h-72c-3.324 0-6-2.676-6-6z" color="#000000" opacity=".15" />
  </g>
  <g id="layer5">
    <rect id="rect3171" x="15" y="15" width="66" height="62" rx="12" ry="12" clip-path="url(#clipPath4355)" fill="url(#linearGradient3613)" filter="url(#filter3794)" opacity=".1" stroke="#fff" stroke-linecap="round" stroke-width=".5" />
  </g>
  <defs id="defs53">
    <filter id="w">
      <feGaussianBlur stdDeviation="0.23199685" id="feGaussianBlur45" />
    </filter>
    <linearGradient id="a" gradientUnits="userSpaceOnUse" x1="8" y1="1" x2="8" y2="15.00034">
      <stop stop-color="#fafafa" offset="0" id="stop48" />
      <stop stop-color="#ebebeb" offset="1" id="stop50" />
    </linearGradient>
  </defs>
  <g transform="translate(0,-2)" id="g75">
    <path style="opacity:0.15;fill:#000000" d="M 1.3828125,0.75 C 1.1838492,0.75 0.99457346,0.8261838 0.875,0.97460938 0.75542654,1.123035 0.72165615,1.3332353 0.77929688,1.5234375 L 4.75,14.621094 C 4.8652719,15.001507 5.2270794,15.25 5.625,15.25 h 3.75 c 0.3979266,0 0.761674,-0.24851 0.876953,-0.628906 L 10.515625,13.75 a 0.250025,0.250025 0 0 0 -0.05859,-0.244141 C 10.3251,13.367137 10.250792,13.183563 10.25,12.992188 v -0.002 c 9.95e-4,-0.134076 0.03841,-0.265886 0.107422,-0.380859 a 0.250025,0.250025 0 0 0 -0.25,-0.376953 c -0.03504,0.005 -0.07125,0.0079 -0.107422,0.0078 -0.4171674,0 -0.75,-0.332832 -0.75,-0.75 0,-0.416511 0.3318005,-0.748956 0.7480469,-0.75 0.03586,3.74e-4 0.070162,0.0043 0.1054691,0.0098 a 0.250025,0.250025 0 0 0 0.253906,-0.376953 C 10.2878,10.257019 10.25039,10.125462 10.25,9.9902344 c 0,-0.4165117 0.3318,-0.748956 0.748047,-0.75 0.134742,6.559e-4 0.267282,0.038077 0.382812,0.1074218 a 0.250025,0.250025 0 0 0 0.376953,-0.25 c -0.005,-0.035043 -0.0079,-0.071252 -0.0078,-0.1074218 1.67e-4,-0.2521296 0.127449,-0.4861321 0.337891,-0.625 A 0.250025,0.250025 0 0 0 12.189453,8.2285156 L 14.21875,1.5234375 C 14.276412,1.3332362 14.244571,1.1230423 14.125,0.97460938 14.005429,0.82617642 13.816152,0.75 13.617188,0.75 H 10.625 c -0.397927,0 -0.7632929,0.24735637 -0.8789062,0.6289062 L 7.5,8.796875 5.25,1.3789062 C 5.1347264,0.99850246 4.7729266,0.75 4.375,0.75 Z" id="path55" inkscape:original="m1.3828 1c-0.277 0-0.4391 0.20098-0.36328 0.45117l3.9688 13.098c0.075815 0.2502 0.35972 0.45117 0.63672 0.45117h3.75c0.277 0 0.5609-0.20098 0.63672-0.45117l0.26367-0.87109c-0.1764-0.18548-0.27497-0.43153-0.27539-0.6875 8.75e-4 -0.17964 0.05013-0.35574 0.14258-0.50976-0.04723 0.0067-0.09488 0.0099-0.14258 0.0098-0.55228 0-1-0.44772-1-1s0.44772-1 1-1c0.04775 4.97e-4 0.09539 0.0044 0.14258 0.01172-0.09279-0.15464-0.14206-0.33145-0.14258-0.51175 0-0.55228 0.44772-1 1-1 0.17964 8.745e-4 0.35574 0.050126 0.50977 0.14258-0.0067-0.047232-0.0099-0.09488-0.0098-0.14258 2.23e-4 -0.33578 0.16896-0.64904 0.44922-0.83398l2.0312-6.7051c0.075848-0.25019-0.086247-0.45117-0.36325-0.45117h-2.9922c-0.277 0-0.56286 0.20098-0.63867 0.45117l-2.4863 8.2109-2.4883-8.2109c-0.075815-0.25019-0.35972-0.45117-0.63672-0.45117z" transform="matrix(4,0,0,4,16,17)" inkscape:radius="0.25" sodipodi:type="inkscape:offset" />
    <g id="Bevel1">
      <path fill="#000" opacity=".10" sodipodi:type="inkscape:offset" inkscape:radius="0.5" transform="translate(16,17) scale(4)" inkscape:original="m1.3828 1c-0.277 0-0.4391 0.20098-0.36328 0.45117l3.9688 13.098c0.075815 0.2502 0.35972 0.45117 0.63672 0.45117h3.75c0.277 0 0.5609-0.20098 0.63672-0.45117l0.26367-0.87109c-0.1764-0.18548-0.27497-0.43153-0.27539-0.6875 8.75e-4 -0.17964 0.05013-0.35574 0.14258-0.50976-0.04723 0.0067-0.09488 0.0099-0.14258 0.0098-0.55228 0-1-0.44772-1-1s0.44772-1 1-1c0.04775 4.97e-4 0.09539 0.0044 0.14258 0.01172-0.09279-0.15464-0.14206-0.33145-0.14258-0.51175 0-0.55228 0.44772-1 1-1 0.17964 8.745e-4 0.35574 0.050126 0.50977 0.14258-0.0067-0.047232-0.0099-0.09488-0.0098-0.14258 2.23e-4 -0.33578 0.16896-0.64904 0.44922-0.83398l2.0312-6.7051c0.075848-0.25019-0.086247-0.45117-0.36325-0.45117h-2.9922c-0.277 0-0.56286 0.20098-0.63867 0.45117l-2.4863 8.2109-2.4883-8.2109c-0.075815-0.25019-0.35972-0.45117-0.63672-0.45117z" id="path58" />
    </g>
    <g id="Bevel2">
      <path fill="#000" opacity=".05" sodipodi:type="inkscape:offset" inkscape:radius="0.75" transform="translate(16,17) scale(4)" inkscape:original="m1.3828 1c-0.277 0-0.4391 0.20098-0.36328 0.45117l3.9688 13.098c0.075815 0.2502 0.35972 0.45117 0.63672 0.45117h3.75c0.277 0 0.5609-0.20098 0.63672-0.45117l0.26367-0.87109c-0.1764-0.18548-0.27497-0.43153-0.27539-0.6875 8.75e-4 -0.17964 0.05013-0.35574 0.14258-0.50976-0.04723 0.0067-0.09488 0.0099-0.14258 0.0098-0.55228 0-1-0.44772-1-1s0.44772-1 1-1c0.04775 4.97e-4 0.09539 0.0044 0.14258 0.01172-0.09279-0.15464-0.14206-0.33145-0.14258-0.51175 0-0.55228 0.44772-1 1-1 0.17964 8.745e-4 0.35574 0.050126 0.50977 0.14258-0.0067-0.047232-0.0099-0.09488-0.0098-0.14258 2.23e-4 -0.33578 0.16896-0.64904 0.44922-0.83398l2.0312-6.7051c0.075848-0.25019-0.086247-0.45117-0.36325-0.45117h-2.9922c-0.277 0-0.56286 0.20098-0.63867 0.45117l-2.4863 8.2109-2.4883-8.2109c-0.075815-0.25019-0.35972-0.45117-0.63672-0.45117z" id="path61" />
    </g>
    <path d="m1.3828 1c-0.277 0-0.4391 0.20098-0.36328 0.45117l3.9688 13.098c0.075815 0.2502 0.35972 0.45117 0.63672 0.45117h3.75c0.277 0 0.5609-0.20098 0.63672-0.45117l0.26367-0.87109c-0.1764-0.18548-0.27497-0.43153-0.27539-0.6875 8.75e-4 -0.17964 0.05013-0.35574 0.14258-0.50976-0.04723 0.0067-0.09488 0.0099-0.14258 0.0098-0.55228 0-1-0.44772-1-1s0.44772-1 1-1c0.04775 4.97e-4 0.09539 0.0044 0.14258 0.01172-0.09279-0.15464-0.14206-0.33145-0.14258-0.51175 0-0.55228 0.44772-1 1-1 0.17964 8.745e-4 0.35574 0.050126 0.50977 0.14258-0.0067-0.047232-0.0099-0.09488-0.0098-0.14258 2.23e-4 -0.33578 0.16896-0.64904 0.44922-0.83398l2.0312-6.7051c0.075848-0.25019-0.086247-0.45117-0.36325-0.45117h-2.9922c-0.277 0-0.56286 0.20098-0.63867 0.45117l-2.4863 8.2109-2.4883-8.2109c-0.075815-0.25019-0.35972-0.45117-0.63672-0.45117z" fill="url(#a)" id="base" transform="translate(16,16) scale(4)" />
    <path style="opacity:0.3;fill:#000000;stroke-width:4" d="M 20.09375 19.857422 C 19.988935 20.132779 19.972371 20.455723 20.078125 20.804688 L 35.953125 73.197266 C 36.256385 74.198066 37.392 75.001953 38.5 75.001953 L 53.5 75.001953 C 54.608 75.001953 55.743595 74.198026 56.046875 73.197266 L 57.101562 69.712891 C 57.019338 69.626433 56.956454 69.526311 56.882812 69.433594 L 56.046875 72.197266 C 55.743595 73.198026 54.608 74.001953 53.5 74.001953 L 38.5 74.001953 C 37.392 74.001953 36.256385 73.198066 35.953125 72.197266 L 20.09375 19.857422 z M 71.90625 19.859375 L 63.796875 46.626953 C 62.675835 47.366713 62.000892 48.619771 62 49.962891 C 61.999658 50.126241 62.013693 50.28904 62.033203 50.451172 C 62.181206 49.306144 62.819341 48.272015 63.796875 47.626953 L 71.921875 20.806641 C 72.02767 20.457676 72.011047 20.134732 71.90625 19.859375 z M 60 49.962891 C 57.79088 49.962891 56 51.753771 56 53.962891 C 56.000551 54.153909 56.015447 54.343579 56.042969 54.53125 C 56.26075 52.527789 57.938613 50.962891 60 50.962891 C 60.71856 50.966391 61.422943 51.163387 62.039062 51.533203 C 62.012262 51.344275 61.9996 51.153691 62 50.962891 C 62.000097 50.81664 62.011557 50.670912 62.027344 50.527344 C 61.413917 50.161884 60.714172 49.966369 60 49.962891 z M 56 55.962891 C 53.79088 55.962891 52 57.753771 52 59.962891 C 52 60.134055 52.029917 60.297386 52.050781 60.462891 C 52.299195 58.492326 53.962044 56.962891 56 56.962891 C 56.191 56.964891 56.381553 56.980486 56.570312 57.009766 C 56.376092 56.686086 56.232608 56.336148 56.136719 55.974609 C 56.090987 55.972565 56.045801 55.96337 56 55.962891 z M 56.570312 64.923828 C 56.427335 64.944111 56.282933 64.948533 56.138672 64.953125 C 56.051291 65.281207 56.001669 65.620338 56 65.962891 C 56.000246 66.113015 56.026098 66.258471 56.042969 66.40625 C 56.119024 65.883829 56.296736 65.379601 56.570312 64.923828 z " transform="translate(0,2)" id="path65" />
    <path style="fill:#ffffff;stroke-width:4" d="M 21.53125 18 C 20.42325 18 19.774845 18.803928 20.078125 19.804688 L 20.09375 19.857422 C 20.289523 19.343111 20.809609 19 21.53125 19 L 33.5 19.001953 C 34.608 19.001953 35.743615 19.805881 36.046875 20.806641 L 46 53.650391 L 55.945312 20.806641 C 56.248552 19.805881 57.392 19.001953 58.5 19.001953 L 70.46875 19.001953 C 71.190391 19.001953 71.71051 19.345064 71.90625 19.859375 L 71.921875 19.806641 C 72.225275 18.805881 71.57675 18.001953 70.46875 18.001953 L 58.5 18.001953 C 57.392 18.001953 56.248552 18.805881 55.945312 19.806641 L 46 52.650391 L 36.046875 19.806641 C 35.743615 18.805881 34.608 18.001953 33.5 18.001953 L 21.53125 18 z M 62.033203 50.451172 C 62.029957 50.476283 62.030116 50.50213 62.027344 50.527344 C 62.031113 50.529589 62.0353 50.530945 62.039062 50.533203 C 62.035207 50.506023 62.036482 50.478416 62.033203 50.451172 z M 56.042969 54.53125 C 56.027361 54.674832 56 54.815158 56 54.962891 C 56.000992 55.306702 56.049361 55.645239 56.136719 55.974609 C 56.281698 55.981092 56.426816 55.987507 56.570312 56.009766 C 56.297458 55.555038 56.119356 55.052142 56.042969 54.53125 z M 52.050781 60.462891 C 52.029917 60.628395 52 60.791726 52 60.962891 C 52 63.172011 53.79088 64.962891 56 64.962891 C 56.046399 64.962988 56.092318 64.9546 56.138672 64.953125 C 56.234587 64.593001 56.376804 64.24621 56.570312 63.923828 C 56.381392 63.950628 56.1908 63.963291 56 63.962891 C 53.962044 63.962891 52.299195 62.433455 52.050781 60.462891 z M 56.042969 66.40625 C 56.016218 66.589999 56.000911 66.775917 56 66.962891 C 56.001484 67.867456 56.324515 68.730675 56.882812 69.433594 L 57.101562 68.712891 C 56.499419 68.079753 56.141159 67.266359 56.042969 66.40625 z " transform="translate(0,2)" id="path70" />
  </g>
</svg>
