<?xml version="1.0" encoding="UTF-8" standalone="no"?>
<svg
   xmlns:dc="http://purl.org/dc/elements/1.1/"
   xmlns:cc="http://creativecommons.org/ns#"
   xmlns:rdf="http://www.w3.org/1999/02/22-rdf-syntax-ns#"
   xmlns:svg="http://www.w3.org/2000/svg"
   xmlns="http://www.w3.org/2000/svg"
   xmlns:xlink="http://www.w3.org/1999/xlink"
   xmlns:sodipodi="http://sodipodi.sourceforge.net/DTD/sodipodi-0.dtd"
   xmlns:inkscape="http://www.inkscape.org/namespaces/inkscape"
   width="96"
   height="96"
   version="1.1"
   id="svg76"
   sodipodi:docname="whatsup.svg"
   inkscape:version="0.92.2 5c3e80d, 2017-08-06">
  <metadata
     id="metadata80">
    <rdf:RDF>
      <cc:Work
         rdf:about="">
        <dc:format>image/svg+xml</dc:format>
        <dc:type
           rdf:resource="http://purl.org/dc/dcmitype/StillImage" />
      </cc:Work>
    </rdf:RDF>
  </metadata>
  <sodipodi:namedview
     pagecolor="#ffffff"
     bordercolor="#666666"
     borderopacity="1"
     objecttolerance="10"
     gridtolerance="10"
     guidetolerance="10"
     inkscape:pageopacity="0"
     inkscape:pageshadow="2"
     inkscape:window-width="640"
     inkscape:window-height="480"
     id="namedview78"
     showgrid="false"
     inkscape:zoom="2.4583333"
     inkscape:cx="48"
     inkscape:cy="48"
     inkscape:window-x="0"
     inkscape:window-y="25"
     inkscape:window-maximized="0"
     inkscape:current-layer="svg76" />
  <defs
     id="defs2410">
    <linearGradient
       id="linearGradient4384">
      <stop
         id="stop4386"
         stop-color="#fff"
         offset="0" />
      <stop
         id="stop4388"
         stop-color="#fff"
         stop-opacity="0"
         offset="1" />
    </linearGradient>
    <filter
       id="filter3794"
       x="-.192"
       y="-.192"
       width="1.384"
       height="1.384">
      <feGaussianBlur
         id="feGaussianBlur3796"
         stdDeviation="5.28" />
    </filter>
    <linearGradient
       id="linearGradient3613"
       x1="48"
       x2="48"
       y1="20.221"
       y2="138.66"
       gradientUnits="userSpaceOnUse">
      <stop
         id="stop3739"
         stop-color="#fff"
         offset="0" />
      <stop
         id="stop3741"
         stop-color="#fff"
         stop-opacity="0"
         offset="1" />
    </linearGradient>
    <linearGradient
       id="buttonGradient"
       x1="48"
       x2="48"
       y1="90"
       y2="5.9877"
       gradientUnits="userSpaceOnUse">
      <stop
         id="stop3702"
         stop-color="#007240"
         offset="0" />
      <stop
         id="stop3704"
         stop-color="#00bc7c"
         offset="1" />
    </linearGradient>
    <linearGradient
       id="ButtonShadow-0"
       x1="45.448"
       x2="45.448"
       y1="92.54"
       y2="7.0165"
       gradientTransform="matrix(1.0059 0 0 .99417 100 0)"
       gradientUnits="userSpaceOnUse">
      <stop
         id="stop3750-8"
         offset="0" />
      <stop
         id="stop3752-5"
         stop-opacity=".58824"
         offset="1" />
    </linearGradient>
    <linearGradient
       id="linearGradient3780"
       x1="32.251"
       x2="32.251"
       y1="6.1317"
       y2="90.239"
       gradientTransform="matrix(1.0238 0 0 1.0119 -1.1429 -98.071)"
       gradientUnits="userSpaceOnUse"
       xlink:href="#ButtonShadow-0" />
    <linearGradient
       id="linearGradient3721"
       x1="32.251"
       x2="32.251"
       y1="6.1317"
       y2="90.239"
       gradientTransform="translate(0,-97)"
       gradientUnits="userSpaceOnUse"
       xlink:href="#ButtonShadow-0" />
    <clipPath
       id="clipPath4355">
      <rect
         id="rect4357"
         x="6"
         y="6"
         width="84"
         height="80"
         rx="6"
         ry="6"
         fill="#fff" />
    </clipPath>
    <linearGradient
       id="linearGradient4390"
       x1="48"
       x2="48"
       y1="88"
       y2="-40"
       gradientTransform="matrix(1,0,0,-1,0,92)"
       gradientUnits="userSpaceOnUse"
       xlink:href="#linearGradient4384" />
    <linearGradient
       id="linearGradient4429"
       x1="48"
       x2="112.12"
       y1="82"
       y2="82.455"
       gradientUnits="userSpaceOnUse"
       spreadMethod="reflect"
       xlink:href="#linearGradient4384" />
    <linearGradient
       id="linearGradient3228"
       x1="90"
       x2="48"
       y1="88"
       y2="88"
       gradientUnits="userSpaceOnUse"
       spreadMethod="reflect">
      <stop
         id="stop3894"
         stop-opacity=".58824"
         offset="0" />
      <stop
         id="stop3896"
         stop-opacity=".47059"
         offset=".1178" />
      <stop
         id="stop3898"
         stop-opacity=".39216"
         offset=".2381" />
      <stop
         id="stop3900"
         stop-opacity=".31373"
         offset="1" />
    </linearGradient>
  </defs>
  <g
     id="layer3">
    <g
       id="g32"
       fill="url(#linearGradient3780)">
      <path
         id="path3786"
         transform="scale(1,-1)"
         d="m12-95.021c-5.5111 0-10.022 4.51-10.022 10.021v71c0 5.5111 4.5104 10.021 10.021 10.021h72c5.5111 0 10.021-4.5104 10.021-10.021v-71c0-5.5111-4.5104-10.021-10.021-10.021h-72z"
         opacity=".08" />
      <path
         id="path3778"
         transform="scale(1,-1)"
         d="m12-94.035c-4.9716 0-9.0352 4.0635-9.0352 9.0352v71c0 4.9716 4.0635 9.0352 9.0352 9.0352h72c4.9716 0 9.0352-4.0635 9.0352-9.0352v-71c0-4.9716-4.0635-9.0352-9.0352-9.0352h-72z"
         opacity=".1" />
      <path
         id="path3770"
         transform="scale(1,-1)"
         d="m12-92.99c-4.4091 0-7.9902 3.5811-7.9902 7.9902v71c0 4.4091 3.5811 7.9902 7.9902 7.9902h72c4.4091 0 7.9902-3.5811 7.9902-7.9902v-71c0-4.4091-3.5811-7.9902-7.9902-7.9902h-72z"
         opacity=".2" />
      <rect
         id="rect3723"
         transform="scale(1,-1)"
         x="5"
         y="-92"
         width="86"
         height="85"
         rx="7"
         ry="7"
         opacity=".3" />
    </g>
    <rect
       id="rect3716"
       transform="scale(1,-1)"
       x="6"
       y="-91"
       width="84"
       height="84"
       rx="6"
       ry="6"
       fill="url(#linearGradient3721)"
       opacity=".45" />
  </g>
  <g
     id="layer1">
    <rect
       id="button"
       x="6"
       y="6"
       width="84"
       height="84"
       rx="6"
       ry="6"
       fill="url(#buttonGradient)" />
    <path
       id="rect4377"
       d="m12 86c-3.324 0-6-2.676-6-6v-68c0-3.324 2.676-6 6-6h72c3.324 0 6 2.676 6 6v68c0 3.324-2.676 6-6 6zm0-0.96875h72c2.8049 0 5.0312-2.2264 5.0312-5.0312v-68c0-2.8049-2.226-5.0312-5.031-5.0312h-72c-2.8049 0-5.0312 2.2263-5.0312 5.0312v68c0 2.8049 2.2264 5.0312 5.0312 5.0312z"
       fill="url(#linearGradient4390)"
       opacity=".3" />
    <path
       id="rect4414"
       d="m6 78v2c0 3.324 2.676 6 6 6h72c3.324 0 6-2.676 6-6v-2c0 3.324-2.676 6-6 6h-72c-3.324 0-6-2.676-6-6z"
       fill="url(#linearGradient4429)"
       opacity=".1" />
  </g>
  <g
     id="layer4">
    <path
       id="path3888"
       d="m6 80v4c0 3.324 2.676 6 6 6h72c3.324 0 6-2.676 6-6v-4c0 3.324-2.676 6-6 6h-72c-3.324 0-6-2.676-6-6z"
       fill="url(#linearGradient3228)" />
    <path
       id="rect4345"
       d="m6 82v2c0 3.324 2.676 6 6 6h72c3.324 0 6-2.676 6-6v-2c0 3.324-2.676 6-6 6h-72c-3.324 0-6-2.676-6-6z"
       color="#000000"
       opacity=".1" />
    <path
       id="rect4336"
       d="m6 83v1c0 3.324 2.676 6 6 6h72c3.324 0 6-2.676 6-6v-1c0 3.324-2.676 6-6 6h-72c-3.324 0-6-2.676-6-6z"
       color="#000000"
       opacity=".15" />
  </g>
  <g
     id="layer5">
    <rect
       id="rect3171"
       x="15"
       y="15"
       width="66"
       height="62"
       rx="12"
       ry="12"
       clip-path="url(#clipPath4355)"
       fill="url(#linearGradient3613)"
       filter="url(#filter3794)"
       opacity=".1"
       stroke="#fff"
       stroke-linecap="round"
       stroke-width=".5" />
  </g>
  <defs
     id="defs53">
    <filter
       id="w">
      <feGaussianBlur
         stdDeviation="0.23199685"
         id="feGaussianBlur45" />
    </filter>
    <linearGradient
       id="a"
       gradientUnits="userSpaceOnUse"
       x1="8"
       y1="1"
       x2="8"
       y2="15">
      <stop
         stop-color="#fafafa"
         offset="0"
         id="stop48" />
      <stop
         stop-color="#ebebeb"
         offset="1"
         id="stop50" />
    </linearGradient>
  </defs>
  <g
     transform="translate(0,-2)"
     id="g74">
    <path
       style="opacity:0.15;fill:#000000"
       d="M 8,0.75 C 3.9988905,0.75 0.75,3.9988905 0.75,8 c 0.003563,1.1991972 0.3161449,2.374298 0.8867188,3.427734 l -0.8789063,3.511719 a 0.250025,0.250025 0 0 0 0.2910156,0.306641 L 4.8261719,14.492188 C 5.8141416,14.979472 6.8955085,15.245443 7.9980469,15.25 A 0.250025,0.250025 0 0 0 8,15.25 c 4.00111,0 7.25,-3.24889 7.25,-7.25 C 15.25,3.9988905 12.00111,0.75 8,0.75 Z m -2.0859375,4 0.074219,0.011719 A 0.250025,0.250025 0 0 0 5.9140625,4.75 Z M 8.703125,9.2910156 c -0.00183,0.00227 -0.0081,0.00967 -0.00977,0.011719 -0.020846,0.025736 -0.00247,0.00355 0.025391,0 0.013931,-0.00178 -0.010576,-0.010068 -0.015625,-0.011719 z M 5.1875,12.474609 a 0.250025,0.250025 0 0 0 -0.050781,0.0059 0.250025,0.250025 0 0 0 -0.00781,0.002 0.250025,0.250025 0 0 0 -0.021484,0.0059 0.250025,0.250025 0 0 0 -0.1621094,0.234375 v 0.0078 l 0.4570313,-0.138672 -0.00391,-0.0059 A 0.250025,0.250025 0 0 0 5.1875,12.474609 Z m -2.1464844,0.546875 -0.4296875,0.111328 0.3007813,0.314454 z"
       inkscape:original="m8 1c-3.866 0-7 3.134-7 7 .00355 1.1948.31284 2.3687.89844 3.4102l-.89844 3.5898 3.8418-.76758c.97793.5001 2.0598.76304 3.1582.76758 3.866 0 7-3.134 7-7 0-3.866-3.134-7-7-7zm0 1.5c3.0376 0 5.5 2.4624 5.5 5.5 0 3.0376-2.4624 5.5-5.5 5.5-.98774-.0026-1.9566-.27108-2.8047-.77734v.007813l-.0039063-.00586-2.5176.65039.71875-2.375c-.58179-.89245-.89188-1.9347-.89258-3 0-3.0376 2.4624-5.5 5.5-5.5zm-2.0898 2.5c-.098429 0-.25736.039874-.39258.19922-.13536.15927-.51758.54501-.51758 1.3281 0 .78318.52973 1.5383.60352 1.6445.073856.10613 1.021 1.7662 2.5215 2.4043 1.247.53015 1.5008.42493 1.7715.39844.27065-.02657.87302-.38613.99609-.75781.123-.37161.1228-.68933.085938-.75586-.036925-.066387-.13556-.10591-.2832-.18555-.14771-.079563-.87245-.46654-1.0078-.51953-.13536-.05314-.23353-.079267-.33203.080078-.09843.1592-.38261.51887-.46875.625-.086143.10635-.17072.11863-.31836.039062-.14771-.079856-.62353-.24684-1.1875-.78906-.43886-.42189-.73612-.94417-.82227-1.1035-.086143-.1592-.0096066-.24488.064453-.32422.066321-.071365.14887-.18634.22266-.2793.073652-.092957.09727-.15949.14648-.26562.049215-.10628.025142-.19778-.011719-.27734-.036996-.079636-.32386-.8669-.45508-1.1816-.11058-.26511-.22681-.27078-.33203-.27539-.086075-.00396-.18491-.0039062-.2832-.0039062z"
       transform="matrix(4,0,0,4,16,17)"
       inkscape:radius="0.25"
       sodipodi:type="inkscape:offset"
       id="path1258" />
    <g
       id="Bevel1">
      <path
         id="path57"
         fill="#000"
         opacity=".10"
         sodipodi:type="inkscape:offset"
         inkscape:radius="0.5"
         transform="translate(16,17) scale(4)"
         inkscape:original="m8 1c-3.866 0-7 3.134-7 7 .00355 1.1948.31284 2.3687.89844 3.4102l-.89844 3.5898 3.8418-.76758c.97793.5001 2.0598.76304 3.1582.76758 3.866 0 7-3.134 7-7 0-3.866-3.134-7-7-7zm0 1.5c3.0376 0 5.5 2.4624 5.5 5.5 0 3.0376-2.4624 5.5-5.5 5.5-.98774-.0026-1.9566-.27108-2.8047-.77734v.007813l-.0039063-.00586-2.5176.65039.71875-2.375c-.58179-.89245-.89188-1.9347-.89258-3 0-3.0376 2.4624-5.5 5.5-5.5zm-2.0898 2.5c-.098429 0-.25736.039874-.39258.19922-.13536.15927-.51758.54501-.51758 1.3281 0 .78318.52973 1.5383.60352 1.6445.073856.10613 1.021 1.7662 2.5215 2.4043 1.247.53015 1.5008.42493 1.7715.39844.27065-.02657.87302-.38613.99609-.75781.123-.37161.1228-.68933.085938-.75586-.036925-.066387-.13556-.10591-.2832-.18555-.14771-.079563-.87245-.46654-1.0078-.51953-.13536-.05314-.23353-.079267-.33203.080078-.09843.1592-.38261.51887-.46875.625-.086143.10635-.17072.11863-.31836.039062-.14771-.079856-.62353-.24684-1.1875-.78906-.43886-.42189-.73612-.94417-.82227-1.1035-.086143-.1592-.0096066-.24488.064453-.32422.066321-.071365.14887-.18634.22266-.2793.073652-.092957.09727-.15949.14648-.26562.049215-.10628.025142-.19778-.011719-.27734-.036996-.079636-.32386-.8669-.45508-1.1816-.11058-.26511-.22681-.27078-.33203-.27539-.086075-.00396-.18491-.0039062-.2832-.0039062z" />
    </g>
    <g
       id="Bevel2">
      <path
         id="path60"
         fill="#000"
         opacity=".05"
         sodipodi:type="inkscape:offset"
         inkscape:radius="0.75"
         transform="translate(16,17) scale(4)"
         inkscape:original="m8 1c-3.866 0-7 3.134-7 7 .00355 1.1948.31284 2.3687.89844 3.4102l-.89844 3.5898 3.8418-.76758c.97793.5001 2.0598.76304 3.1582.76758 3.866 0 7-3.134 7-7 0-3.866-3.134-7-7-7zm0 1.5c3.0376 0 5.5 2.4624 5.5 5.5 0 3.0376-2.4624 5.5-5.5 5.5-.98774-.0026-1.9566-.27108-2.8047-.77734v.007813l-.0039063-.00586-2.5176.65039.71875-2.375c-.58179-.89245-.89188-1.9347-.89258-3 0-3.0376 2.4624-5.5 5.5-5.5zm-2.0898 2.5c-.098429 0-.25736.039874-.39258.19922-.13536.15927-.51758.54501-.51758 1.3281 0 .78318.52973 1.5383.60352 1.6445.073856.10613 1.021 1.7662 2.5215 2.4043 1.247.53015 1.5008.42493 1.7715.39844.27065-.02657.87302-.38613.99609-.75781.123-.37161.1228-.68933.085938-.75586-.036925-.066387-.13556-.10591-.2832-.18555-.14771-.079563-.87245-.46654-1.0078-.51953-.13536-.05314-.23353-.079267-.33203.080078-.09843.1592-.38261.51887-.46875.625-.086143.10635-.17072.11863-.31836.039062-.14771-.079856-.62353-.24684-1.1875-.78906-.43886-.42189-.73612-.94417-.82227-1.1035-.086143-.1592-.0096066-.24488.064453-.32422.066321-.071365.14887-.18634.22266-.2793.073652-.092957.09727-.15949.14648-.26562.049215-.10628.025142-.19778-.011719-.27734-.036996-.079636-.32386-.8669-.45508-1.1816-.11058-.26511-.22681-.27078-.33203-.27539-.086075-.00396-.18491-.0039062-.2832-.0039062z" />
    </g>
    <path
       id="base"
       d="m8 1c-3.866 0-7 3.134-7 7 .00355 1.1948.31284 2.3687.89844 3.4102l-.89844 3.5898 3.8418-.76758c.97793.5001 2.0598.76304 3.1582.76758 3.866 0 7-3.134 7-7 0-3.866-3.134-7-7-7zm0 1.5c3.0376 0 5.5 2.4624 5.5 5.5 0 3.0376-2.4624 5.5-5.5 5.5-.98774-.0026-1.9566-.27108-2.8047-.77734v.007813l-.0039063-.00586-2.5176.65039.71875-2.375c-.58179-.89245-.89188-1.9347-.89258-3 0-3.0376 2.4624-5.5 5.5-5.5zm-2.0898 2.5c-.098429 0-.25736.039874-.39258.19922-.13536.15927-.51758.54501-.51758 1.3281 0 .78318.52973 1.5383.60352 1.6445.073856.10613 1.021 1.7662 2.5215 2.4043 1.247.53015 1.5008.42493 1.7715.39844.27065-.02657.87302-.38613.99609-.75781.123-.37161.1228-.68933.085938-.75586-.036925-.066387-.13556-.10591-.2832-.18555-.14771-.079563-.87245-.46654-1.0078-.51953-.13536-.05314-.23353-.079267-.33203.080078-.09843.1592-.38261.51887-.46875.625-.086143.10635-.17072.11863-.31836.039062-.14771-.079856-.62353-.24684-1.1875-.78906-.43886-.42189-.73612-.94417-.82227-1.1035-.086143-.1592-.0096066-.24488.064453-.32422.066321-.071365.14887-.18634.22266-.2793.073652-.092957.09727-.15949.14648-.26562.049215-.10628.025142-.19778-.011719-.27734-.036996-.079636-.32386-.8669-.45508-1.1816-.11058-.26511-.22681-.27078-.33203-.27539-.086075-.00396-.18491-.0039062-.2832-.0039062z"
       fill="url(#a)"
       transform="translate(16,16) scale(4)" />
    <path
       style="opacity:0.3;fill:#000000;stroke-width:4"
       d="M 48 24 C 35.8496 24 26 33.8496 26 46 C 26.000091 46.137906 26.012947 46.274413 26.015625 46.412109 C 26.327971 34.534136 36.046655 25 48 25 C 59.982802 25 69.719769 34.581212 69.986328 46.5 C 69.990056 46.333297 70 46.167598 70 46 C 70 33.8496 60.1504 24 48 24 z M 36.033203 40.542969 C 36.021242 40.731327 36 40.908069 36 41.109375 C 36 44.242095 38.118903 47.2627 38.414062 47.6875 C 38.709486 48.11202 42.498 54.752288 48.5 57.304688 C 53.488 59.425288 54.503137 59.004397 55.585938 58.898438 C 56.668537 58.792158 59.078033 57.353908 59.570312 55.867188 C 59.991219 54.595536 60.042681 53.52253 59.958984 53.060547 C 59.906612 53.573445 59.794303 54.190462 59.570312 54.867188 C 59.078033 56.353908 56.668537 57.792158 55.585938 57.898438 C 54.503137 58.004397 53.488 58.425288 48.5 56.304688 C 42.498 53.752288 38.709486 47.11202 38.414062 46.6875 C 38.132643 46.282475 36.213153 43.514759 36.033203 40.542969 z M 43.966797 40.957031 C 43.771394 41.378894 43.676362 41.645133 43.382812 42.015625 C 43.087653 42.387465 42.757472 42.847352 42.492188 43.132812 C 42.195945 43.450173 41.889803 43.792887 42.234375 44.429688 C 42.236185 44.433035 42.240331 44.441885 42.242188 44.445312 C 42.316102 44.334564 42.400709 44.230812 42.492188 44.132812 C 42.757472 43.847352 43.087653 43.387465 43.382812 43.015625 C 43.67742 42.643797 43.77191 42.377645 43.96875 41.953125 C 44.143112 41.576589 44.084238 41.248702 43.966797 40.957031 z M 20.015625 46.423828 C 20.011731 46.616071 20 46.806824 20 47 C 20.013837 51.656913 21.196552 56.230879 23.423828 60.316406 L 23.59375 59.640625 C 21.320795 55.598133 20.099667 51.05615 20.015625 46.423828 z M 75.986328 46.5 C 75.718597 61.732451 63.296362 74 48 74 C 43.6064 73.98184 39.278908 72.930087 35.367188 70.929688 L 20.263672 73.947266 L 20 75 L 35.367188 71.929688 C 39.278908 73.930087 43.6064 74.98184 48 75 C 63.464 75 76 62.464 76 47 C 76 46.832362 75.989262 46.666938 75.986328 46.5 z M 29.369141 58.666016 L 26.695312 67.5 L 27.023438 67.416016 L 29.570312 59 C 29.499148 58.890835 29.438268 58.776287 29.369141 58.666016 z "
       transform="translate(0,2)"
       id="path64" />
    <path
       style="fill:#ffffff;stroke-width:4"
       d="M 48 18 C 32.536 18 20 30.536 20 46 C 20.000421 46.141688 20.013057 46.282299 20.015625 46.423828 C 20.323431 31.226724 32.729176 19 48 19 C 63.296362 19 75.718597 31.267549 75.986328 46.5 C 75.989262 46.333062 76 46.167638 76 46 C 76 30.536 63.464 18 48 18 z M 39.640625 34 C 39.246909 34 38.611193 34.159491 38.070312 34.796875 C 37.528872 35.433955 36 36.977015 36 40.109375 C 36 40.25521 36.024417 40.397871 36.033203 40.542969 C 36.207361 37.800435 37.563669 36.393012 38.070312 35.796875 C 38.611193 35.159491 39.246909 35 39.640625 35 C 40.033785 35 40.429138 34.999785 40.773438 35.015625 C 41.194318 35.034065 41.659242 35.056748 42.101562 36.117188 C 42.626442 37.375988 43.773891 40.525206 43.921875 40.84375 C 43.938726 40.88012 43.951643 40.919397 43.966797 40.957031 C 43.967502 40.95551 43.968043 40.954651 43.96875 40.953125 C 44.16561 40.528005 44.069323 40.16199 43.921875 39.84375 C 43.773891 39.525206 42.626442 36.375988 42.101562 35.117188 C 41.659242 34.056748 41.194318 34.034065 40.773438 34.015625 C 40.429138 33.999785 40.033785 34 39.640625 34 z M 42.242188 44.445312 C 42.076739 44.69321 41.996206 44.989529 42.234375 45.429688 C 42.578975 46.067007 43.767997 48.15619 45.523438 49.84375 C 47.779317 52.01263 49.682597 52.680576 50.273438 53 C 50.863998 53.318272 51.202295 53.26915 51.546875 52.84375 C 51.891435 52.41923 53.028155 50.98055 53.421875 50.34375 C 53.815875 49.70637 54.20856 49.810877 54.75 50.023438 C 55.2914 50.235398 58.19041 51.78331 58.78125 52.101562 C 59.37181 52.420122 59.766343 52.578202 59.914062 52.84375 C 59.935367 52.882204 59.944848 52.982515 59.958984 53.060547 C 60.021649 52.446854 59.994378 51.988715 59.914062 51.84375 C 59.766343 51.578202 59.37181 51.420122 58.78125 51.101562 C 58.19041 50.78331 55.2914 49.235398 54.75 49.023438 C 54.20856 48.810877 53.815875 48.70637 53.421875 49.34375 C 53.028155 49.98055 51.891435 51.41923 51.546875 51.84375 C 51.202295 52.26915 50.863998 52.318272 50.273438 52 C 49.682597 51.680576 47.779317 51.01263 45.523438 48.84375 C 43.777218 47.165054 42.593794 45.094405 42.242188 44.445312 z M 26.015625 46.412109 C 26.010476 46.607922 26 46.802945 26 47 C 26.002714 51.130892 27.177718 55.170314 29.369141 58.666016 L 29.570312 58 C 27.318467 54.54573 26.095692 50.529114 26.015625 46.412109 z M 69.986328 46.5 C 69.719769 58.418788 59.982802 68 48 68 C 44.04904 67.9896 40.17365 66.915665 36.78125 64.890625 L 36.78125 64.921875 L 36.765625 64.898438 L 27.023438 67.416016 L 26.695312 68.5 L 36.765625 65.898438 L 36.78125 65.921875 L 36.78125 65.890625 C 40.17365 67.915665 44.04904 68.9896 48 69 C 60.1504 69 70 59.1504 70 47 C 70 46.832402 69.990056 46.666703 69.986328 46.5 z M 23.423828 60.316406 L 20 74 L 20.263672 73.947266 L 23.59375 60.640625 C 23.533814 60.534028 23.482315 60.423689 23.423828 60.316406 z "
       transform="translate(0,2)"
       id="path69" />
  </g>
</svg>
