
<svg width="96" height="96" version="1.1" xmlns="http://www.w3.org/2000/svg">
	<path d="M 69.78125 20.84375 L 64.78125 24.28125 C 70.368141 29.818387 73.78125 37.608863 73.78125 46.09375 C 73.78125 54.528228 70.40402 62.189731 64.875 67.71875 L 69.875 71.15625 C 76.078226 64.5762 80 55.843726 80 46.09375 C 80.000002 36.297194 76.037045 27.433333 69.78125 20.84375 z M 40 24.0625 L 28.90625 36.21875 L 21.5 36.21875 C 20.676719 36.21875 20 36.895467 20 37.71875 L 20 38.71875 L 20 53.5625 L 20 54.5625 C 20 55.385781 20.684121 56.172661 21.5 56.0625 L 28.90625 56.0625 L 40 68 L 40 66 L 40 26.0625 L 40 24.0625 z M 60.59375 27.34375 L 55.59375 30.78125 L 55.5 30.875 C 59.43815 34.765071 61.90625 40.12518 61.90625 46.09375 C 61.90625 52.014619 59.47664 57.242108 55.59375 61.125 L 55.6875 61.21875 L 60.78125 64.65625 C 65.256678 59.747883 68.03125 53.254245 68.03125 46.09375 C 68.03125 38.863054 65.15221 32.26268 60.59375 27.34375 z M 51.34375 33.84375 L 46.125 37.46875 C 48.347384 39.686552 49.84375 42.708346 49.84375 46.09375 C 49.84375 49.430259 48.384903 52.321462 46.21875 54.53125 L 51.4375 58.15625 C 54.259912 54.919303 55.96875 50.72211 55.96875 46.09375 C 55.96875 41.421149 54.214595 37.092399 51.34375 33.84375 z " fill="#bebebe"/>

</svg>
