
<svg width="96" height="96" version="1.1" xmlns="http://www.w3.org/2000/svg">
	<path opacity=".45" d="m69.781 20.844-5 3.4375c5.5869 5.5371 9 13.328 9 21.812 0 8.4345-3.3772 16.096-8.9062 21.625l5 3.4375c6.203-6.58 10.125-15.312 10.125-25.062 0.000002-9.7966-3.963-18.66-10.219-25.25zm-29.781 3.218-11.094 12.157h-7.4062c-0.82328 0-1.5 0.67672-1.5 1.5v1 14.844 1c0 0.82328 0.68412 1.6102 1.5 1.5h7.4062l11.094 11.937v-2-39.938-2zm20.594 3.2812-5 3.4375l-0.094 0.095c3.9382 3.8901 6.4062 9.2502 6.4062 15.219 0 5.9209-2.4296 11.148-6.3125 15.031l0.09375 0.09375 5.0938 3.4375c4.4754-4.9084 7.25-11.402 7.25-18.562 0-7.2307-2.879-13.831-7.4375-18.75zm-9.25 6.5-5.2188 3.625c2.2224 2.2178 3.7188 5.2396 3.7188 8.625 0 3.3365-1.4588 6.2277-3.625 8.4375l5.2188 3.625c2.8224-3.2369 4.5312-7.4341 4.5312-12.062 0-4.6726-1.7542-9.0014-4.625-12.25z" fill="#bebebe"/>
</svg>
