
<svg width="96" height="96" version="1.1" xmlns="http://www.w3.org/2000/svg">
	<path d="m40 24.062-11.094 12.156h-7.4062c-0.82328 0-1.5 0.67672-1.5 1.5v1 14.844 1c0 0.82328 0.68412 1.6102 1.5 1.5h7.4062l11.094 11.938v-2-39.938-2zm11.344 9.7812-5.2188 3.625c2.2224 2.2178 3.7188 5.2396 3.7188 8.625 0 3.3365-1.4588 6.2277-3.625 8.4375l5.2188 3.625c2.8224-3.2369 4.5312-7.4341 4.5312-12.062 0-4.6726-1.7542-9.0014-4.625-12.25z" fill="#bebebe"/>
	<path opacity=".45" d="m69.781 20.844l-5 3.437c5.587 5.537 9 13.328 9 21.813 0 8.434-3.377 16.096-8.906 21.625l5 3.437c6.203-6.58 10.125-15.312 10.125-25.062 0-9.797-3.963-18.661-10.219-25.25zm-9.187 6.5l-5 3.437-0.094 0.094c3.938 3.89 6.406 9.25 6.406 15.219 0 5.921-2.429 11.148-6.312 15.031l0.094 0.094 5.093 3.437c4.476-4.908 7.25-11.402 7.25-18.562 0-7.231-2.879-13.831-7.437-18.75z" fill="#bebebe"/>
</svg>
