
<svg width="96" height="96" version="1.1" xmlns="http://www.w3.org/2000/svg">
	<path opacity=".45" fill="#bebebe" d="m72.75 15.906c-0.458 0-0.897 0.172-1.219 0.5l-12.219 12.219h-5.562c-0.458-0.004-0.926 0.176-1.25 0.5l-8.094 8.094c-0.657 0.643-0.657 1.856 0 2.5l9.906 9.906c0.331 0.33 0.783 0.511 1.25 0.5 0.449-0.004 0.902-0.183 1.219-0.5l8.125-8.125c0.324-0.324 0.504-0.761 0.5-1.219v-5.593l12.188-12.188c0.657-0.644 0.657-1.856 0-2.5l-3.594-3.594c-0.322-0.328-0.792-0.5-1.25-0.5zm-32.312 25.969c-0.449 0.004-0.902 0.214-1.219 0.531l-8.125 8.094c-0.324 0.324-0.504 0.792-0.5 1.25v5.562l-12.188 12.219c-0.657 0.644-0.657 1.825 0 2.469l3.594 3.594c0.644 0.657 1.825 0.657 2.469 0l12.219-12.188h5.562c0.458 0.004 0.926-0.176 1.25-0.5l8.094-8.125c0.657-0.643 0.657-1.825 0-2.469l-9.906-9.906c-0.331-0.33-0.783-0.542-1.25-0.531z"/>
</svg>
