<svg width="96" height="96" version="1.1" xmlns="http://www.w3.org/2000/svg">
<path d="M 48,17 C 48,17 40,27.5 24,27.5 24,66 48,73 48,73 48,73 72,66 72,27.5 56,27.5 48,17 48,17 Z m 0,10.5 c 3.6008,2.5908 8.328,4.64 14.752,6.1248 C 61.632,47.356 57.216,55.4 53.1248,59.876 50.9856,62.216 49.3656,63.508 48,64.36 46.6344,63.508 45.0144,62.216 42.8752,59.876 38.7824,55.4 34.3688,47.356 33.25,33.6248 39.6716,32.14 44.3992,30.0908 48,27.5 Z m 0,4.6092 c -2.6548,1.6264 -5.8368,2.9808 -9.6016,4.0548 1.23,10.2276 4.4412,16.5716 7.3908,19.796 0.9788,1.068 1.5244,1.36 2.2108,1.932 z" id="path2" fill="#bebebe" stroke-width="4"/>
</svg>