<svg width="16" height="16" version="1.1" xmlns="http://www.w3.org/2000/svg">
	<path d="m7.9987 1c-.6233 1.5277-.9992 2.5271-1.6931 4.009.4255.451.9477.976 1.7958 1.569-.9118-.375-1.5959-.658-2.0606-1.049-.8881 1.853-2.2173 4.399-5.0408 9.471 2.2192-1.281 3.9394-2.071 5.5426-2.372-.0688-.296-.1080-.616-.1053-.950l.00263-.07108c.03521-1.4215.77481-2.5146 1.6509-2.4404.87612.07422 1.5571 1.2874 1.5219 2.7089-.00665.26748-.036803.52479-.089523.76344 1.5858.31015 3.2876 1.0978 5.4768 2.3614-.43166-.79456-.81694-1.5108-1.1849-2.1929-.57956-.44911-1.1841-1.0336-2.4172-1.6664.84755.22019 1.3923.39658 1.8653.68054-3.7407-6.964-3.9815-7.812-5.2643-10.822z" fill="#bebebe"/>
</svg>
