<svg width="16" height="16" version="1.1" xmlns="http://www.w3.org/2000/svg">
	<path d="m8 1c-3.8642 0-6.9973 3.136-7 7v4.4297.98438.19141c0 .775.6189 1.394 1.3945 1.394h.1914 5.4141c3.8646-.0016 7-3.1349 7-7 0-3.8662-3.134-7-7-7zm2.0234 1.75c1.7807 0 3.2266 1.4457 3.2266 3.2266 0 1.7808-1.4459 3.1993-3.2266 3.1992h-1.6953v1.7227c0 1.781-1.4459 3.2266-3.2266 3.2266-1.7804-.0010-3.2261-1.447-3.2261-3.228 0-1.7808 1.4457-3.2265 3.2266-3.2266h1.6953v-1.6953c0-1.78 1.4456-3.226 3.2261-3.226zm0 1.5312c-.93893 0-1.6937.75641-1.6953 1.6953v1.4766c0 .13288.11333.21875.24609.21875h1.4492c.93985 0 1.7227-.75538 1.7227-1.6953 0-.94004-.7828-1.6953-1.7227-1.6953zm-4.9215 4.8945c-.93985 0-1.7227.78245-1.7227 1.7227 0 .93988.7828 1.6953 1.7227 1.6953.93887 0 1.694-.75696 1.6953-1.6953v-1.4766c0-.13255-.11333-.24609-.24609-.24609h-1.4492z" fill="#bebebe"/>
	<path opacity=".45" d="m10.406 2.7773c.10426.015746.21249.024418.32812.054687-.107-.0240-.217-.0416-.328-.0547zm.32812.054687c.36469.095622.65609.41786.65625.76562.000165.42041-.28222.71094-.73828.71094-.09429 0-.20049.0089-.27344 0 .77685.15871 1.3672.84543 1.3672 1.668 0 .93993-.7828 1.6953-1.7227 1.6953h-.32813c.41648 0 .73795.34805.73828.76562 0 .41774-.32197.73828-.73828.73828h.32813c1.781 0 3.227-1.419 3.227-3.199 0-1.537-1.076-2.8216-2.516-3.145zm-5.6324 4.84c-1.7809 0-3.2266 1.446-3.2266 3.226 0 1.6513 1.2436 3.0097 2.8438 3.1992-.10451-.01576-.21223-.05167-.32812-.08203-.36471-.09557-.65609-.39063-.65625-.73828 0-.4203.282-.71094.73828-.71094.094196 0 .20048-.0089.27344 0-.77681-.1587-1.3672-.84557-1.3672-1.668 0-.9402.7828-1.7227 1.7227-1.7227h.32812c-.41659 0-.73828-.32043-.73828-.73828-.0001084-.42019.34463-.76562.76562-.76562h-.35547zm1.5586 3.8828c-.0863.203-.2015.393-.3555.547.154-.154.2692-.344.3555-.547z" fill="#bebebe"/>
</svg>
