<svg width="16" height="16" version="1.1" xmlns="http://www.w3.org/2000/svg">
	<path d="m10.407 2.0021c-.064-.0145-.162.0462-.237.1722l-1.7644 2.9847c-0.15.2508-.4909.4208-.7638.3730l-3.266-.5739c-.2736-.0481-.3592.1123-.1843.3443l2.0807 2.7547c.1743.2327.2316.6511.1053.9183l-1.5013 3.1852c-.12586.26724-.020127.39499.23704.28695l3.0553-1.291c.2454-.103.5888-.047.7901.143-1.7191 1.256-4.3594 2.731-6.0314 1.005-.9738-1.006-1.1266-2.887-1.0799-4.247.0529-1.54.6432-2.96 1.5803-4.1036-.2538.3096-.5618.5496-.8165.8606-.9127 1.114-1.4564 2.448-1.5803 3.931-.12104 1.4503.089533 3.3183 1.0535 4.419 1.7749 2.0269 5.0814-.20975 6.6372-1.4348.11573-.09109.21709-.22866.31606-.34434l2.2914 2.4965c.19505.21318.33148.12722.31606-.17217l-.18437-3.5582c-.015-.2990.174-.6686.421-.8039l2.9499-1.6069c.247-.1359.215-.2958-.053-.3731l-3.186-.919c-.267-.0766-.510-.3929-.553-.6887l-0.5-3.5294c-.021-.1480-.068-.2151-.132-.2296z" fill="#bebebe"/>
</svg>
