<svg width="16" height="16" version="1.1" xmlns="http://www.w3.org/2000/svg">
	<path fill="#bebebe" d="m9.0977 1l-2.3282.2227v9.5883l2.3028-.348v-4.088l3.0977 4.533 2.428-.767-3.172-4.3598 3.195-4.1132-2.476-.5684-3.0727 4.1113.0254-4.2109zm-5.2774 2.3359c-.0263.0028-.0525.0153-.0723.0352l-.9140.9121c-.0384.0385-.0459.0998-.0176.1465l1.0703 1.7617c-.1897.3190-.3405.6626-.4492 1.0254l-1.9648.4082c-.0547.0113-.0938.0611-.0938.1172v1.291c0 .0546.0372.1025.0899.1152l1.9062.4649c.1017.4207.2586.8197.4668 1.1857l-1.1035 1.683c-.0308.047-.0242.109.0156.149l.9141.912c.0384.038.0976.046.1445.018l1.7305-1.049c.3396.196.7046.350 1.0918.455l.4043 1.939c.0113.055.0595.094.1152.094h1.293c.0543 0 .1003-.037.1132-.090l.4766-1.945c.3991-.108.7751-.268 1.1229-.473l1.705 1.117c.047.031.109.026.149-.013l.914-.914c.038-.039.046-.098.017-.145l-.623-1.025-.201.062c-.029.009-.061-.002-.078-.027 0 0-.398-.580-.910-1.33-.613 1.199-1.8578 2.019-3.2971 2.019-2.0447 0-3.7031-1.656-3.7031-3.7008 0-1.5043.8975-2.7994 2.1856-3.379v-.9550c-.2345.0820-.4606.1815-.6758.2988l-.0020-.0020-1.7441-1.1425c-.0235-.0154-.0499-.0223-.0762-.0196z"/>
</svg>
