<?xml version="1.0" encoding="UTF-8" standalone="no"?>
<!-- Created with Inkscape (http://www.inkscape.org/) -->

<svg
   xmlns:dc="http://purl.org/dc/elements/1.1/"
   xmlns:cc="http://creativecommons.org/ns#"
   xmlns:rdf="http://www.w3.org/1999/02/22-rdf-syntax-ns#"
   xmlns:svg="http://www.w3.org/2000/svg"
   xmlns="http://www.w3.org/2000/svg"
   xmlns:xlink="http://www.w3.org/1999/xlink"
   xmlns:sodipodi="http://sodipodi.sourceforge.net/DTD/sodipodi-0.dtd"
   xmlns:inkscape="http://www.inkscape.org/namespaces/inkscape"
   width="16"
   height="16"
   id="svg2"
   sodipodi:version="0.32"
   inkscape:version="0.48.3.1 r9886"
   version="1.0"
   sodipodi:docname="baobab.svg"
   inkscape:output_extension="org.inkscape.output.svg.inkscape"
   style="display:inline">
  <defs
     id="defs4">
    <linearGradient
       inkscape:collect="always"
       xlink:href="#linearGradient4008"
       id="linearGradient3197"
       x1="8"
       y1="2.5"
       x2="8"
       y2="17.5"
       gradientUnits="userSpaceOnUse"
       gradientTransform="translate(0,-1.5)" />
    <linearGradient
       id="linearGradient4008">
      <stop
         id="stop4010"
         offset="0"
         style="stop-color:#75a1c3;stop-opacity:1;" />
      <stop
         id="stop4014"
         offset="1"
         style="stop-color:#396383;stop-opacity:1;" />
    </linearGradient>
    <linearGradient
       inkscape:collect="always"
       xlink:href="#linearGradient4075"
       id="linearGradient3668-3"
       x1="10.871767"
       y1="24.123091"
       x2="10.871767"
       y2="6.1230297"
       gradientUnits="userSpaceOnUse"
       gradientTransform="translate(-0.740039,-10.12303)" />
    <linearGradient
       id="linearGradient4075">
      <stop
         id="stop4077"
         offset="0"
         style="stop-color:#72a0c2;stop-opacity:1;" />
      <stop
         id="stop4079"
         offset="1"
         style="stop-color:#afcbde;stop-opacity:1;" />
    </linearGradient>
    <linearGradient
       inkscape:collect="always"
       xlink:href="#linearGradient4075"
       id="linearGradient3827"
       x1="6"
       y1="15"
       x2="6"
       y2="2"
       gradientUnits="userSpaceOnUse" />
    <linearGradient
       inkscape:collect="always"
       xlink:href="#linearGradient6719-4-5"
       id="linearGradient3971-4"
       gradientUnits="userSpaceOnUse"
       gradientTransform="matrix(0.54166785,0,0,0.54166785,19.580569,-2.6980256)"
       x1="-17.863041"
       y1="30.827509"
       x2="-20.821646"
       y2="25.015009" />
    <linearGradient
       id="linearGradient6719-4-5">
      <stop
         id="stop6721-4-9"
         style="stop-color:#8cab2a;stop-opacity:1"
         offset="0" />
      <stop
         id="stop6723-4-1"
         style="stop-color:#d7e866;stop-opacity:1"
         offset="1" />
    </linearGradient>
    <linearGradient
       inkscape:collect="always"
       xlink:href="#linearGradient6711-7"
       id="linearGradient3973-2"
       gradientUnits="userSpaceOnUse"
       gradientTransform="matrix(0.54166785,0,0,0.54166785,19.580569,-2.6980256)"
       x1="-16.387411"
       y1="24.453547"
       x2="-9.7352734"
       y2="28.195539" />
    <linearGradient
       id="linearGradient6711-7">
      <stop
         id="stop6713-2"
         offset="0.0000000"
         style="stop-color:#5b8ccb;stop-opacity:1.0000000;" />
      <stop
         id="stop6715-7"
         offset="1.0000000"
         style="stop-color:#3465a4;stop-opacity:1.0000000;" />
    </linearGradient>
    <linearGradient
       inkscape:collect="always"
       xlink:href="#linearGradient3865"
       id="linearGradient3975-0"
       gradientUnits="userSpaceOnUse"
       gradientTransform="matrix(0.54166785,0,0,0.54166785,19.580569,-2.6980256)"
       x1="-15.200852"
       y1="29.361736"
       x2="-28.945789"
       y2="15.616799" />
    <linearGradient
       id="linearGradient3865">
      <stop
         style="stop-color:#ec9013;stop-opacity:1;"
         offset="0"
         id="stop3867" />
      <stop
         style="stop-color:#ebc514;stop-opacity:1;"
         offset="1"
         id="stop3869" />
    </linearGradient>
    <linearGradient
       y2="-19.30397"
       x2="9.0574636"
       y1="10.202822"
       x1="9.0574636"
       gradientTransform="translate(-0.499722,5.300655)"
       gradientUnits="userSpaceOnUse"
       id="linearGradient3104"
       xlink:href="#linearGradient3327-7"
       inkscape:collect="always" />
    <linearGradient
       inkscape:collect="always"
       id="linearGradient3327-7">
      <stop
         style="stop-color:#000000;stop-opacity:1;"
         offset="0"
         id="stop3330-6" />
      <stop
         style="stop-color:#000000;stop-opacity:0;"
         offset="1"
         id="stop3333-8" />
    </linearGradient>
    <linearGradient
       y2="-19.30397"
       x2="9.0574636"
       y1="10.202822"
       x1="9.0574636"
       gradientTransform="translate(-0.499722,5.300655)"
       gradientUnits="userSpaceOnUse"
       id="linearGradient3118"
       xlink:href="#linearGradient3327-7"
       inkscape:collect="always" />
    <linearGradient
       inkscape:collect="always"
       xlink:href="#linearGradient4075-4"
       id="linearGradient3827-3"
       x1="6"
       y1="15"
       x2="6"
       y2="2"
       gradientUnits="userSpaceOnUse" />
    <linearGradient
       id="linearGradient4075-4">
      <stop
         id="stop4077-9"
         offset="0"
         style="stop-color:#6e92c6;stop-opacity:1;" />
      <stop
         id="stop4079-7"
         offset="1"
         style="stop-color:#afc2df;stop-opacity:1;" />
    </linearGradient>
    <linearGradient
       inkscape:collect="always"
       xlink:href="#linearGradient4075-4-8"
       id="linearGradient3827-1"
       x1="6"
       y1="15"
       x2="6"
       y2="2"
       gradientUnits="userSpaceOnUse" />
    <linearGradient
       id="linearGradient4075-4-8">
      <stop
         id="stop4077-9-5"
         offset="0"
         style="stop-color:#6e92c6;stop-opacity:1;" />
      <stop
         id="stop4079-7-1"
         offset="1"
         style="stop-color:#afc2df;stop-opacity:1;" />
    </linearGradient>
    <linearGradient
       inkscape:collect="always"
       xlink:href="#linearGradient4008-7"
       id="linearGradient3872"
       x1="3"
       y1="2"
       x2="3"
       y2="16"
       gradientUnits="userSpaceOnUse" />
    <linearGradient
       id="linearGradient4008-7">
      <stop
         id="stop4010-1"
         offset="0"
         style="stop-color:#7594c3;stop-opacity:1;" />
      <stop
         id="stop4014-7"
         offset="1"
         style="stop-color:#395783;stop-opacity:1;" />
    </linearGradient>
    <linearGradient
       y2="16"
       x2="3"
       y1="2"
       x1="3"
       gradientUnits="userSpaceOnUse"
       id="linearGradient3898"
       xlink:href="#linearGradient4008-7"
       inkscape:collect="always" />
  </defs>
  <sodipodi:namedview
     id="base"
     pagecolor="#ffffff"
     bordercolor="#dc0000"
     borderopacity="1"
     inkscape:pageopacity="0"
     inkscape:pageshadow="2"
     inkscape:zoom="22.695034"
     inkscape:cx="11.796287"
     inkscape:cy="9.2703975"
     inkscape:document-units="px"
     inkscape:current-layer="layer1"
     showgrid="true"
     inkscape:showpageshadow="false"
     showguides="true"
     inkscape:guide-bbox="true"
     inkscape:window-width="1920"
     inkscape:window-height="1029"
     inkscape:window-x="0"
     inkscape:window-y="24"
     inkscape:window-maximized="1"
     borderlayer="true">
    <sodipodi:guide
       orientation="0,1"
       position="26.278146,128"
       id="guide2385" />
    <sodipodi:guide
       orientation="1,0"
       position="128,54.082119"
       id="guide2387" />
    <sodipodi:guide
       orientation="0,1"
       position="78.156291,0"
       id="guide2389" />
    <inkscape:grid
       type="xygrid"
       id="grid3672"
       visible="true"
       enabled="true"
       empspacing="8"
       snapvisiblegridlinesonly="true" />
  </sodipodi:namedview>
  <metadata
     id="metadata7">
    <rdf:RDF>
      <cc:Work
         rdf:about="">
        <dc:format>image/svg+xml</dc:format>
        <dc:type
           rdf:resource="http://purl.org/dc/dcmitype/StillImage" />
        <dc:title />
      </cc:Work>
    </rdf:RDF>
  </metadata>
  <g
     inkscape:label="Folder"
     inkscape:groupmode="layer"
     id="layer1"
     style="display:inline">
    <rect
       style="fill:url(#linearGradient3898);fill-opacity:1;fill-rule:nonzero;stroke:none;display:inline"
       id="rect2419"
       width="16"
       height="14.5"
       x="0"
       y="1.5"
       rx="2"
       ry="2" />
    <rect
       style="opacity:0;fill:#000000;fill-opacity:1;stroke:none;display:inline"
       id="rect3214"
       width="15"
       height="12.000001"
       x="0.5"
       y="4"
       rx="1.6666666"
       ry="1.627907" />
    <path
       style="fill:#4c73ae;fill-opacity:1;fill-rule:nonzero;stroke:none;display:inline"
       d="M 2.049999,0 C 1.4683,0 1,0.4683 1,1.05 L 1,2.1185435 1,3.577728 c 0,0.5816999 0.4683,1.0499999 1.049999,1.0499999 l 4.1756515,0 7.7000025,0 c 0.581699,0 1.049999,-0.4683 1.049999,-1.0499999 l 0,-1.4591845 c 0,-0.5816999 -0.4683,-1.0499999 -1.049999,-1.0499999 l -6.4643875,0 L 7.2756495,1.05 C 6.6968312,0.9921743 6.8073495,0 6.2256505,0 L 2.049999,0 z"
       id="rect2859"
       sodipodi:nodetypes="cccccccccccscc"
       inkscape:connector-curvature="0" />
    <path
       style="fill:#7c9ccb;fill-opacity:1;fill-rule:nonzero;stroke:none;display:inline"
       d="m 2.038152,1.027728 c -0.01345,0 0,-0.01913 0,0.03125 l 0,1.0625 0,3.46875 4.1875,0 7.6875,0 c 0.05038,0 0.03125,0.01345 0.03125,0 l 0,-3.46875 c 0,-0.01345 -0.0178,-0.03125 -0.03125,-0.03125 l -6.4375,0 -0.1875,0 c -0.03123,0.0014 -0.06252,0.0014 -0.09375,0 C 6.752915,2.046118 6.356927,1.740365 6.163152,1.496478 6.002471,1.294244 5.937954,1.151834 5.881902,1.027728 l -3.84375,0 z"
       id="path3218"
       sodipodi:nodetypes="cccccccccccsscc"
       inkscape:connector-curvature="0" />
    <rect
       style="fill:url(#linearGradient3827-1);fill-opacity:1;fill-rule:nonzero;stroke:none;display:inline"
       id="rect3660"
       width="14"
       height="13.000002"
       x="1"
       y="2"
       rx="1"
       ry="1" />
    <path
       style="opacity:0.2;fill:#ffffff;fill-opacity:1;fill-rule:nonzero;stroke:none;display:inline"
       d="M 2,2 C 1.446,2 1,2.446 1,3 L 1,4 C 1,3.446 1.446,3 2,3 l 12,0 c 0.554,0 1,0.446 1,1 L 15,3 C 15,2.446 14.554,2 14,2 L 2,2 z"
       id="rect3880"
       inkscape:connector-curvature="0" />
  </g>
  <g
     inkscape:groupmode="layer"
     id="layer2"
     inkscape:label="Symbol"
     sodipodi:insensitive="true">
    <path
       id="path3933"
       d="M 15.775664,10.547675 C 15.028928,8.7132928 12.496916,7.3626232 9.4856309,7.3626232 c -3.0112863,0 -5.5432977,1.3506696 -6.2900325,3.1850518 l -0.2246812,0 0,1.121235 c 0,2.378011 2.9170311,4.305554 6.5147137,4.305554 3.5980301,0 6.5143651,-1.927543 6.5143651,-4.305554 l 0,-1.121235 -0.224332,0 0,0 z"
       style="display:inline;fill:#c66110;fill-opacity:1;fill-rule:nonzero;stroke:none"
       inkscape:r_cx="true"
       inkscape:r_cy="true"
       inkscape:connector-curvature="0" />
    <path
       id="path3935"
       d="m 15.999996,10.547675 c 0,2.378376 -2.916335,4.305919 -6.5143651,4.305919 -3.5980306,0 -6.5147137,-1.927543 -6.5147137,-4.305919 0,-2.3783764 2.9170311,-4.3059201 6.5147137,-4.3059201 3.5980301,0 6.5143651,1.9275437 6.5143651,4.3059201 l 0,0 z"
       style="display:inline;fill:url(#linearGradient3975-0);fill-opacity:1;fill-rule:nonzero;stroke:none"
       inkscape:r_cx="true"
       inkscape:r_cy="true"
       inkscape:connector-curvature="0" />
    <path
       id="path3937"
       d="m 15.999996,11.836601 -0.0084,-1.173478 c -0.706391,2.437927 -2.294811,3.470749 -4.2919,3.976382 l 0,1.080315 c 2.161601,-0.543627 4.096086,-1.781407 4.300247,-3.883219 l 0,0 z"
       style="display:inline;fill:#204a87;fill-opacity:1;fill-rule:nonzero;stroke:none"
       inkscape:r_cx="true"
       inkscape:r_cy="true"
       inkscape:connector-curvature="0" />
    <path
       id="path3939"
       d="m 15.999996,10.547675 c -0.149207,2.751391 -3.55212,4.005975 -4.312419,4.053834 l -2.2022942,-4.053834 6.5143662,0 3.53e-4,0 z"
       style="display:inline;fill:url(#linearGradient3973-2);fill-opacity:1;fill-rule:nonzero;stroke:none"
       inkscape:r_cx="true"
       inkscape:r_cy="true"
       inkscape:connector-curvature="0" />
    <path
       id="path3941"
       d="m 8.1218916,15.880206 0,-1.12087 c 1.2260088,0.159655 2.3508064,0.187787 3.5656854,-0.115812 l 0.01217,1.076663 c -1.01802,0.333922 -2.6106145,0.349631 -3.5778583,0.160385 l 0,-3.53e-4 z"
       style="display:inline;fill:#70851f;fill-opacity:1;fill-rule:nonzero;stroke:none"
       inkscape:r_cx="true"
       inkscape:r_cy="true"
       inkscape:connector-curvature="0" />
    <path
       id="path3943"
       d="m 9.4852828,10.54804 2.2022942,4.053469 c -1.348435,0.514037 -3.5656854,0.157827 -3.5656854,0.157827 L 9.4852828,10.54804 z"
       style="display:inline;fill:url(#linearGradient3971-4);fill-opacity:1;fill-rule:nonzero;stroke:none"
       inkscape:r_cx="true"
       inkscape:r_cy="true"
       inkscape:connector-curvature="0" />
    <path
       style="display:inline;opacity:0.29999999999999999;fill:#ffffff;fill-opacity:1;fill-rule:nonzero;stroke:none"
       d="m 15.970917,10.123509 c -0.08314,0.767318 -0.457239,1.459407 -1.076062,2.064877 -0.03414,0.0343 -0.08133,0.05404 -0.116331,0.08725 -0.208986,0.19303 -0.444706,0.38516 -0.697987,0.552573 -0.964416,0.663552 -2.004638,0.99397 -2.384787,1.017897 -0.632105,0.240963 -1.45608,0.276905 -2.1521258,0.261745 -0.01986,1.17e-4 -0.038268,0 -0.058165,0 -0.027547,-7.41e-4 -0.060157,9.29e-4 -0.087248,0 -0.3385552,-0.003 -0.6646117,-0.02226 -0.9888144,-0.05817 -0.098259,-0.01088 -0.1941128,-0.04441 -0.2908277,-0.05817 C 5.365413,13.600019 3.253657,12.101926 3,10.210757 c -0.014336,0.116598 -0.029083,0.229943 -0.029083,0.348993 0,2.066094 2.2109521,3.770321 5.1476511,4.18792 0.096715,0.01375 0.1925689,0.04729 0.2908277,0.05817 0.3242027,0.0359 0.6502592,0.05516 0.9888144,0.05817 0.027091,9.3e-4 0.059701,-7.41e-4 0.087248,0 0.019897,0 0.038305,1.17e-4 0.058165,0 0.6960458,0.01516 1.5200208,-0.02078 2.1521258,-0.261745 0.380149,-0.02393 1.420371,-0.354345 2.384787,-1.017897 0.253281,-0.167413 0.489001,-0.359543 0.697987,-0.552573 0.035,-0.03321 0.08219,-0.05295 0.116331,-0.08725 C 15.597231,12.257317 16,11.451641 16,10.55975 c 0,-0.148649 -0.0069,-0.291487 -0.02908,-0.436241 z"
       id="path3940"
       inkscape:connector-curvature="0" />
    <path
       inkscape:connector-curvature="0"
       style="display:inline;opacity:0.40000000000000002;fill:url(#linearGradient3118);fill-opacity:1;fill-rule:nonzero;stroke:none"
       d="m 15,8.25 0,5.25 c 0,0.197363 -0.05632,0.390205 -0.125,0.5625 0.07982,-0.07809 0.177906,-0.137129 0.25,-0.21875 0.035,-0.04008 0.06049,-0.08374 0.09375,-0.125 0.284816,-0.346545 0.492466,-0.729238 0.625,-1.125 0.0068,-0.02082 0.02487,-0.04148 0.03125,-0.0625 0.06827,-0.220532 0.109869,-0.456087 0.125,-0.6875 l 0,-0.1875 0,-1 0,-0.09375 C 16,10.423718 15.98817,10.260419 15.96875,10.125 15.870348,9.4386784 15.525713,8.8015611 15,8.25 z M 5.40625,15 c 0.7958647,0.423146 1.7453508,0.734907 2.78125,0.875 0.4858745,0.08899 1.1213061,0.145362 1.75,0.125 0.628694,-0.02036 1.25065,-0.117458 1.75,-0.28125 0.113192,-0.02847 0.232019,-0.06145 0.34375,-0.09375 0.166522,-0.04655 0.309647,-0.101034 0.46875,-0.15625 0.215024,-0.07437 0.420493,-0.128927 0.625,-0.21875 0.04381,-0.01956 0.08196,-0.04226 0.125,-0.0625 0.121399,-0.05599 0.228328,-0.124046 0.34375,-0.1875 -0.03038,0.0018 -0.0629,0 -0.09375,0 l -8.09375,0 z"
       id="rect2410" />
  </g>
</svg>
