<?xml version="1.0" encoding="UTF-8" standalone="no"?>
<!-- Created with Inkscape (http://www.inkscape.org/) -->

<svg
   xmlns:dc="http://purl.org/dc/elements/1.1/"
   xmlns:cc="http://creativecommons.org/ns#"
   xmlns:rdf="http://www.w3.org/1999/02/22-rdf-syntax-ns#"
   xmlns:svg="http://www.w3.org/2000/svg"
   xmlns="http://www.w3.org/2000/svg"
   xmlns:xlink="http://www.w3.org/1999/xlink"
   xmlns:sodipodi="http://sodipodi.sourceforge.net/DTD/sodipodi-0.dtd"
   xmlns:inkscape="http://www.inkscape.org/namespaces/inkscape"
   width="16"
   height="16"
   id="svg2"
   sodipodi:version="0.32"
   inkscape:version="0.48.3.1 r9886"
   version="1.0"
   sodipodi:docname="folder-ubuntu.svg"
   inkscape:output_extension="org.inkscape.output.svg.inkscape"
   style="display:inline">
  <defs
     id="defs4">
    <linearGradient
       inkscape:collect="always"
       xlink:href="#linearGradient4075"
       id="linearGradient3827"
       x1="6"
       y1="15"
       x2="6"
       y2="2"
       gradientUnits="userSpaceOnUse" />
    <linearGradient
       id="linearGradient4075">
      <stop
         id="stop4077"
         offset="0"
         style="stop-color:#72a0c2;stop-opacity:1;" />
      <stop
         id="stop4079"
         offset="1"
         style="stop-color:#afcbde;stop-opacity:1;" />
    </linearGradient>
    <linearGradient
       inkscape:collect="always"
       xlink:href="#linearGradient4008"
       id="linearGradient3197"
       x1="8"
       y1="2.5"
       x2="8"
       y2="17.5"
       gradientUnits="userSpaceOnUse"
       gradientTransform="translate(0,-1.5)" />
    <linearGradient
       id="linearGradient4008">
      <stop
         id="stop4010"
         offset="0"
         style="stop-color:#75a1c3;stop-opacity:1;" />
      <stop
         id="stop4014"
         offset="1"
         style="stop-color:#396383;stop-opacity:1;" />
    </linearGradient>
    <linearGradient
       y2="17.5"
       x2="8"
       y1="2.5"
       x1="8"
       gradientTransform="translate(0,-1.5)"
       gradientUnits="userSpaceOnUse"
       id="linearGradient3855"
       xlink:href="#linearGradient4008"
       inkscape:collect="always" />
    <linearGradient
       inkscape:collect="always"
       xlink:href="#linearGradient4075-4"
       id="linearGradient3827-1"
       x1="6"
       y1="15"
       x2="6"
       y2="2"
       gradientUnits="userSpaceOnUse" />
    <linearGradient
       id="linearGradient4075-4">
      <stop
         id="stop4077-9"
         offset="0"
         style="stop-color:#6e92c6;stop-opacity:1;" />
      <stop
         id="stop4079-7"
         offset="1"
         style="stop-color:#afc2df;stop-opacity:1;" />
    </linearGradient>
    <linearGradient
       inkscape:collect="always"
       xlink:href="#linearGradient4075-4-5"
       id="linearGradient3827-19"
       x1="6"
       y1="15"
       x2="6"
       y2="2"
       gradientUnits="userSpaceOnUse" />
    <linearGradient
       id="linearGradient4075-4-5">
      <stop
         id="stop4077-9-3"
         offset="0"
         style="stop-color:#6e92c6;stop-opacity:1;" />
      <stop
         id="stop4079-7-5"
         offset="1"
         style="stop-color:#afc2df;stop-opacity:1;" />
    </linearGradient>
    <linearGradient
       inkscape:collect="always"
       xlink:href="#linearGradient4008-7"
       id="linearGradient3872"
       x1="3"
       y1="2"
       x2="3"
       y2="16"
       gradientUnits="userSpaceOnUse" />
    <linearGradient
       id="linearGradient4008-7">
      <stop
         id="stop4010-1"
         offset="0"
         style="stop-color:#7594c3;stop-opacity:1;" />
      <stop
         id="stop4014-7"
         offset="1"
         style="stop-color:#395783;stop-opacity:1;" />
    </linearGradient>
    <linearGradient
       y2="16"
       x2="3"
       y1="2"
       x1="3"
       gradientUnits="userSpaceOnUse"
       id="linearGradient3898"
       xlink:href="#linearGradient4008-7"
       inkscape:collect="always" />
  </defs>
  <sodipodi:namedview
     id="base"
     pagecolor="#ffffff"
     bordercolor="#dc0000"
     borderopacity="1"
     inkscape:pageopacity="0"
     inkscape:pageshadow="2"
     inkscape:zoom="22.695034"
     inkscape:cx="-20.676722"
     inkscape:cy="9.2933257"
     inkscape:document-units="px"
     inkscape:current-layer="layer1"
     showgrid="true"
     inkscape:showpageshadow="false"
     showguides="true"
     inkscape:guide-bbox="true"
     inkscape:window-width="1920"
     inkscape:window-height="1029"
     inkscape:window-x="0"
     inkscape:window-y="24"
     inkscape:window-maximized="1"
     borderlayer="true">
    <sodipodi:guide
       orientation="0,1"
       position="26.278146,128"
       id="guide2385" />
    <sodipodi:guide
       orientation="1,0"
       position="128,54.082119"
       id="guide2387" />
    <sodipodi:guide
       orientation="0,1"
       position="78.156291,0"
       id="guide2389" />
    <inkscape:grid
       type="xygrid"
       id="grid3672"
       visible="true"
       enabled="true"
       empspacing="8"
       snapvisiblegridlinesonly="true" />
  </sodipodi:namedview>
  <metadata
     id="metadata7">
    <rdf:RDF>
      <cc:Work
         rdf:about="">
        <dc:format>image/svg+xml</dc:format>
        <dc:type
           rdf:resource="http://purl.org/dc/dcmitype/StillImage" />
        <dc:title />
      </cc:Work>
    </rdf:RDF>
  </metadata>
  <g
     inkscape:groupmode="layer"
     id="layer1"
     inkscape:label="Folder">
    <rect
       style="fill:url(#linearGradient3898);fill-opacity:1;fill-rule:nonzero;stroke:none;display:inline"
       id="rect2419"
       width="16"
       height="14.5"
       x="0"
       y="1.5"
       rx="2"
       ry="2" />
    <rect
       style="opacity:0;fill:#000000;fill-opacity:1;stroke:none;display:inline"
       id="rect3214"
       width="15"
       height="12.000001"
       x="0.5"
       y="4"
       rx="1.6666666"
       ry="1.627907" />
    <path
       style="fill:#4c73ae;fill-opacity:1;fill-rule:nonzero;stroke:none;display:inline"
       d="M 2.049999,0 C 1.4683,0 1,0.4683 1,1.05 L 1,2.1185435 1,3.577728 c 0,0.5816999 0.4683,1.0499999 1.049999,1.0499999 l 4.1756515,0 7.7000025,0 c 0.581699,0 1.049999,-0.4683 1.049999,-1.0499999 l 0,-1.4591845 c 0,-0.5816999 -0.4683,-1.0499999 -1.049999,-1.0499999 l -6.4643875,0 L 7.2756495,1.05 C 6.6968312,0.9921743 6.8073495,0 6.2256505,0 L 2.049999,0 z"
       id="rect2859"
       sodipodi:nodetypes="cccccccccccscc"
       inkscape:connector-curvature="0" />
    <path
       style="fill:#7c9ccb;fill-opacity:1;fill-rule:nonzero;stroke:none;display:inline"
       d="m 2.038152,1.027728 c -0.01345,0 0,-0.01913 0,0.03125 l 0,1.0625 0,3.46875 4.1875,0 7.6875,0 c 0.05038,0 0.03125,0.01345 0.03125,0 l 0,-3.46875 c 0,-0.01345 -0.0178,-0.03125 -0.03125,-0.03125 l -6.4375,0 -0.1875,0 c -0.03123,0.0014 -0.06252,0.0014 -0.09375,0 C 6.752915,2.046118 6.356927,1.740365 6.163152,1.496478 6.002471,1.294244 5.937954,1.151834 5.881902,1.027728 l -3.84375,0 z"
       id="path3218"
       sodipodi:nodetypes="cccccccccccsscc"
       inkscape:connector-curvature="0" />
    <rect
       style="fill:url(#linearGradient3827-19);fill-opacity:1;fill-rule:nonzero;stroke:none;display:inline"
       id="rect3660"
       width="14"
       height="13.000002"
       x="1"
       y="2"
       rx="1"
       ry="1" />
    <path
       style="opacity:0.2;fill:#ffffff;fill-opacity:1;fill-rule:nonzero;stroke:none;display:inline"
       d="M 2,2 C 1.446,2 1,2.446 1,3 L 1,4 C 1,3.446 1.446,3 2,3 l 12,0 c 0.554,0 1,0.446 1,1 L 15,3 C 15,2.446 14.554,2 14,2 L 2,2 z"
       id="rect3880"
       inkscape:connector-curvature="0" />
  </g>
  <g
     inkscape:groupmode="layer"
     id="layer2"
     inkscape:label="Symbol"
     sodipodi:insensitive="true">
    <path
       inkscape:connector-curvature="0"
       style="opacity:0.15;fill:#ffffff;fill-opacity:1;display:inline;overflow:visible"
       d="m 10.4375,3.3125 c -0.5708941,0 -1.0281696,0.3046078 -1.375,0.71875 C 8.9082479,4.0106232 8.7714472,4 8.59375,4 7.8906669,4.0000905 7.1977127,4.1548553 6.5625,4.46875 6.3479635,4.5751882 6.3794449,4.6524691 6.3125,4.75 6.273503,4.75354 6.235538,4.77031 6.1875,4.78125 6.164209,4.78655 6.150246,4.77352 6.125,4.78125 6.0224372,4.8126356 5.7822039,4.9680069 5.78125,4.96875 5.1892768,5.4246788 4.8633887,6.0885191 4.5625,6.75 4.5146364,6.746215 4.4859277,6.6875 4.4375,6.6875 c -1.0052283,0 -1.875,0.8702477 -1.875,1.875 0,1.0047523 0.8277907,1.90625 1.875,1.90625 0.060481,0 0.097142,-0.05688 0.15625,-0.0625 0.2938555,0.612133 0.5985605,1.230526 1.125,1.65625 0.023098,0.02604 0.03128,0.0347 0.0625,0.0625 0.03122,0.0278 0.021817,0.03417 0.0625,0.0625 0.108536,0.07559 0.2423312,0.06693 0.375,0.09375 0.07013,0.0777 0.1325665,0.21369 0.1875,0.25 0.090592,0.05988 0.1103377,0.07696 0.15625,0.09375 0.017583,0.0064 0.049767,0.0269 0.0625,0.03125 0.6232234,0.300036 1.2901787,0.4375 1.96875,0.4375 0.1310232,0 0.2514322,-0.0192 0.375,-0.03125 0.3401926,0.52767 0.8281731,0.9375 1.5,0.9375 1.050651,0 1.90625,-0.859196 1.90625,-1.90625 0,-0.28164 -0.197717,-0.480458 -0.3125,-0.71875 C 12.625379,10.687257 13.035638,9.8909943 13.125,9 13.13244,8.940266 13.030204,8.7178028 13,8.5625 13.029923,8.4074489 13.132356,8.1841603 13.125,8.125 13.039689,7.2485482 12.665338,6.4230037 12.09375,5.71875 12.157367,5.5323596 12.3125,5.392861 12.3125,5.1875 c 0,-1.0209376 -0.853555,-1.875 -1.875,-1.875 z m 0,1 c 0.485832,0 0.875,0.389567 0.875,0.875 0,0.4854336 -0.389168,0.875 -0.875,0.875 -0.4858317,0 -0.875,-0.3895664 -0.875,-0.875 0,-0.485433 0.3891683,-0.875 0.875,-0.875 z M 8.59375,5 C 8.7912023,5 8.975707,5.025793 9.1875,5.0625 9.220758,5.06827 9.25,5.091457 9.25,5.125 c 0,0.00113 7.07e-5,0.030901 0,0.03125 7.07e-5,0.6732092 0.5726281,1.21875 1.25,1.21875 0.232189,0 0.453944,-0.056852 0.65625,-0.1875 0.02861,-0.018494 0.07111,-0.025312 0.09375,0 0.501717,0.5579609 0.80271,1.2885675 0.875,2.03125 0.0018,0.019549 0.01315,0.048013 0,0.0625 -0.01316,0.014513 -0.04296,0 -0.0625,0 l -1.34375,0 c -0.03397,0 -0.0572,-0.028886 -0.0625,-0.0625 -0.159621,-1.0009544 -1.0444388,-1.75 -2.0625,-1.75 -0.2767714,0 -0.5485295,0.044658 -0.8125,0.15625 -0.031292,0.013154 -0.075674,0.028689 -0.09375,0 L 6.96875,5.46875 C 6.95838,5.452152 6.96339,5.456346 6.96875,5.4375 6.974028,5.418653 6.982424,5.38372 7,5.375 7.4943349,5.130721 8.0515291,5.0000698 8.59375,5 z M 6.40625,5.75 C 6.41388,5.74406 6.42822,5.75226 6.4375,5.75 6.44678,5.74774 6.45915,5.74828 6.46875,5.75 6.487945,5.75338 6.489593,5.764793 6.5,5.78125 l 0.71875,1.125 C 7.236962,6.935153 7.244419,6.977568 7.21875,7 6.7633726,7.3966552 6.5,7.9645292 6.5,8.5625 c 0,0.5935413 0.2368332,1.1659812 0.6875,1.5625 0.025655,0.02257 0.049598,0.03374 0.03125,0.0625 L 6.5,11.3125 C 6.48952,11.32888 6.456696,11.3717 6.4375,11.375 6.418231,11.37838 6.421652,11.35578 6.40625,11.34375 5.8320346,10.89696 5.3981021,10.284188 5.1875,9.59375 5.179201,9.566477 5.165209,9.517659 5.1875,9.5 5.4797406,9.2685885 5.65625,8.9278645 5.65625,8.5625 5.65625,8.1971357 5.4796702,7.8251609 5.1875,7.59375 5.1650643,7.576031 5.1792,7.558463 5.1875,7.53125 5.39979,6.8349769 5.824863,6.1977755 6.40625,5.75 z m 2.1875,1.71875 c 0.5265994,0 0.9813173,0.3971679 1.0625,0.90625 C 9.666533,8.440218 9.727579,8.4978008 9.75,8.5625 9.727552,8.626575 9.666827,8.6849392 9.65625,8.75 9.575234,9.2474579 9.1318325,9.625 8.59375,9.625 8.4137659,9.625 8.257572,9.605895 8.15625,9.5625 a 1.0020515,1.0020515 0 0 0 0,-0.03125 C 8.124923,9.517914 8.0442139,9.54069 8,9.53125 7.8902536,9.4001472 7.8090117,9.344439 7.84375,9.375 7.6214305,9.1793924 7.5,8.8895107 7.5,8.5625 7.5,8.2587314 7.6324856,7.9612415 7.875,7.75 7.9268432,7.7046945 7.8982574,7.6458092 7.9375,7.59375 8.0324002,7.5710421 8.1273481,7.5746493 8.15625,7.5625 8.281357,7.5096117 8.4247572,7.46875 8.59375,7.46875 z M 4.4375,7.6875 c 0.4972101,0 0.90625,0.3781498 0.90625,0.875 0,0.4968511 -0.4090399,0.90625 -0.90625,0.90625 -0.4972103,0 -0.875,-0.4093989 -0.875,-0.90625 0,-0.4968502 0.3777897,-0.875 0.875,-0.875 z m 6.28125,1.15625 1.34375,0 c 0.01955,-7.9e-5 0.04929,-0.014555 0.0625,0 0.01323,0.014555 0.0019,0.043021 0,0.0625 -0.0796,0.7936598 -0.438512,1.552414 -1,2.125 -0.02145,0.02189 -0.03543,0.01414 -0.0625,0 -0.178046,-0.09281 -0.36997,-0.125 -0.5625,-0.125 -0.6210474,0 -1.147311,0.445473 -1.21875,1.0625 -0.00358,0.03031 -0.032404,0.0572 -0.0625,0.0625 -0.2143994,0.03804 -0.4215707,0.0625 -0.625,0.0625 C 8.0452712,12.09375 7.4982017,11.968162 7,11.71875 6.982496,11.71002 6.94272,11.70634 6.9375,11.6875 6.932295,11.66857 6.958268,11.64153 6.96875,11.625 L 7.6875,10.5 C 7.705857,10.47161 7.718782,10.45546 7.75,10.46875 8.0169261,10.583072 8.3137445,10.625 8.59375,10.625 c 1.0152495,0 1.900698,-0.7252501 2.0625,-1.71875 0.0054,-0.03334 0.02868,-0.062429 0.0625,-0.0625 z m -0.25,2.375 c 0.49721,0 0.90625,0.380713 0.90625,0.875 C 11.375,12.588039 10.96596,13 10.46875,13 9.9715385,13 9.5625,12.588039 9.5625,12.09375 c 0,-0.494287 0.4090385,-0.875 0.90625,-0.875 z"
       id="path4425" />
    <path
       style="fill:#4c73ae;fill-opacity:1;display:inline;overflow:visible"
       d="m 10.444378,4.3155315 c -0.4858317,0 -0.8792242,0.393773 -0.8792242,0.879206 0,0.4854336 0.3933925,0.8792065 0.8792242,0.8792065 0.485832,0 0.879224,-0.3937729 0.879224,-0.8792065 0,-0.485433 -0.393392,-0.879206 -0.879224,-0.879206 z M 8.5875552,5.0041408 c -0.5422209,6.98e-5 -1.0919574,0.136915 -1.5862923,0.381194 -0.017576,0.00872 -0.028544,0.024191 -0.033822,0.043038 -0.00536,0.018846 -0.00422,0.03874 0.00615,0.055338 l 0.713218,1.1282122 c 0.018076,0.028689 0.054786,0.040819 0.086078,0.027665 C 8.0368574,6.5279959 8.3107786,6.4735835 8.58755,6.4735835 c 1.0180612,0 1.906248,0.754385 2.065869,1.7553394 0.0053,0.033614 0.03367,0.058412 0.06764,0.058412 l 1.340356,0 c 0.01954,0 0.03911,-0.00701 0.05227,-0.021523 0.01315,-0.014487 0.02028,-0.032713 0.01844,-0.052262 -0.07229,-0.7426825 -0.389803,-1.4617554 -0.89152,-2.0197163 -0.02264,-0.025312 -0.06054,-0.027714 -0.08915,-0.00922 -0.202306,0.1306477 -0.431841,0.1998195 -0.66403,0.1998195 -0.6773719,0 -1.2265391,-0.5503017 -1.2266098,-1.2235109 7.07e-5,-3.494e-4 0,-0.023467 0,-0.024595 0,-0.033543 -0.025154,-0.064939 -0.058412,-0.070705 -0.211793,-0.036707 -0.417386,-0.061483 -0.6148383,-0.061483 z M 6.4356083,5.7419362 c -0.00928,0.00226 -0.020035,0.00635 -0.027666,0.012295 -0.581387,0.4477755 -1.0173936,1.0775107 -1.2296836,1.7737838 -0.0083,0.027213 -9.177e-4,0.05606 0.021518,0.073779 0.2921702,0.2314109 0.4672798,0.5876214 0.4672798,0.9529857 0,0.3653645 -0.1750392,0.7215745 -0.4672798,0.952986 -0.022291,0.017659 -0.029817,0.046501 -0.021518,0.073774 0.2106021,0.6904383 0.6431722,1.3177713 1.2173876,1.7645613 0.015402,0.01203 0.032992,0.01875 0.052261,0.01537 0.019196,-0.0033 0.035633,-0.01743 0.046113,-0.03381 l 0.7193649,-1.125139 c 0.018348,-0.02876 0.013364,-0.06658 -0.012291,-0.08915 -0.4506668,-0.3965188 -0.710142,-0.9650559 -0.710142,-1.5585972 0,-0.5979708 0.2609132,-1.1680867 0.7162906,-1.5647419 0.025669,-0.022432 0.033585,-0.060247 0.015373,-0.08915 L 6.5093927,5.772675 C 6.4989857,5.756218 6.4824737,5.74531 6.4632787,5.741933 c -0.0096,-0.00172 -0.018387,-0.00226 -0.027666,0 z M 4.4527436,7.6725013 c -0.4972103,0 -0.9007436,0.4038748 -0.9007436,0.900725 0,0.4968511 0.4035333,0.8976516 0.9007436,0.8976516 0.4972101,0 0.9007434,-0.4008005 0.9007434,-0.8976516 0,-0.4968502 -0.4035333,-0.900725 -0.9007434,-0.900725 z m 7.6086684,1.1620281 -1.340354,0.00304 c -0.03382,7.13e-5 -0.06529,0.025072 -0.07071,0.058412 -0.161802,0.9934999 -1.0475453,1.7430416 -2.0627948,1.7430416 -0.2800055,0 -0.556962,-0.05783 -0.8238881,-0.172152 -0.031218,-0.01329 -0.067722,-0.0038 -0.086079,0.02459 l -0.7193639,1.128212 c -0.010482,0.01653 -0.011355,0.03641 -0.00615,0.05534 0.00522,0.01884 0.01631,0.03431 0.033814,0.04304 0.4982017,0.249412 1.0531846,0.381194 1.6016634,0.381194 0.2034293,0 0.4158138,-0.02037 0.6302132,-0.05841 0.030096,-0.0053 0.051754,-0.0281 0.055337,-0.05841 0.071439,-0.617027 0.5932658,-1.0821 1.2143132,-1.0821 0.19253,0 0.390683,0.0486 0.568729,0.14141 0.02707,0.01414 0.05848,0.0096 0.07993,-0.01229 0.561488,-0.572586 0.916444,-1.3275016 0.996044,-2.1211614 0.0019,-0.019479 -0.0052,-0.037708 -0.01843,-0.052263 -0.01321,-0.014555 -0.03272,-0.021599 -0.05227,-0.02152 z m -1.583217,2.3763166 c -0.4972115,0 -0.900744,0.400289 -0.900744,0.894576 0,0.494289 0.4035325,0.894578 0.900744,0.894578 0.49721,0 0.900742,-0.400289 0.900742,-0.894578 0,-0.494287 -0.403532,-0.894576 -0.900742,-0.894576 z"
       id="path3324"
       inkscape:connector-curvature="0" />
    <path
       inkscape:connector-curvature="0"
       style="opacity:0.2;fill:#000000;fill-opacity:1;display:inline;overflow:visible"
       d="m 10.4375,4.3125 c -0.485832,0 -0.875,0.389567 -0.875,0.875 0,0.1867052 0.057754,0.3583681 0.15625,0.5 0.157594,-0.2266111 0.419776,-0.375 0.71875,-0.375 0.298974,0 0.561156,0.1483889 0.71875,0.375 0.0985,-0.1416319 0.15625,-0.3132948 0.15625,-0.5 0,-0.485433 -0.389168,-0.875 -0.875,-0.875 z M 8.59375,5 C 8.051529,5.0000698 7.494335,5.130721 7,5.375 6.98242,5.38372 6.97403,5.418653 6.96875,5.4375 c -0.0054,0.018846 -0.0103,0.014652 0,0.03125 l 0.46875,0.75 C 7.814491,6.0895517 8.203213,6.0000503 8.59375,6 8.791202,6 8.975707,6.025793 9.1875,6.0625 9.22076,6.06827 9.25,6.091457 9.25,6.125 c 0,0.00113 7.1e-5,0.030901 0,0.03125 1.7e-5,0.157188 0.037265,0.2995517 0.09375,0.4375 0.00399,0.00975 -0.00424,0.021621 0,0.03125 0.361031,0.1435463 0.674363,0.3793636 0.90625,0.6875 0.08624,0.018752 0.158815,0.0625 0.25,0.0625 0.232189,0 0.453944,-0.056852 0.65625,-0.1875 0.02861,-0.018494 0.07111,-0.025312 0.09375,0 0.288294,0.3206129 0.505815,0.6895924 0.65625,1.09375 l 0.15625,0 c 0.01954,0 0.04934,0.014513 0.0625,0 0.01315,-0.014487 0.0018,-0.042951 0,-0.0625 C 12.05271,7.4760675 11.751717,6.7454609 11.25,6.1875 11.22736,6.162188 11.18486,6.169006 11.15625,6.1875 10.953944,6.3181477 10.732189,6.375 10.5,6.375 9.822628,6.375 9.250071,5.8294592 9.25,5.15625 9.250071,5.1559006 9.25,5.126128 9.25,5.125 9.25,5.091457 9.22076,5.068266 9.1875,5.0625 8.975707,5.025793 8.791202,5 8.59375,5 z M 6.40625,5.75 C 5.824863,6.1977755 5.39979,6.8349769 5.1875,7.53125 c -0.0083,0.027213 -0.022438,0.044781 0,0.0625 0.107512,0.085154 0.17683,0.1966124 0.25,0.3125 C 5.671,7.4626569 6.007259,7.0572969 6.40625,6.75 6.41388,6.74406 6.4282,6.75226 6.4375,6.75 6.44678,6.74774 6.45915,6.74828 6.46875,6.75 6.48794,6.75338 6.48959,6.764793 6.5,6.78125 L 6.875,7.375 C 6.972559,7.2358184 7.087672,7.1141748 7.21875,7 c 0.02567,-0.022432 0.01822,-0.064847 0,-0.09375 L 6.5,5.78125 C 6.48959,5.764793 6.48794,5.753377 6.46875,5.75 6.45915,5.74828 6.44678,5.74774 6.4375,5.75 6.4282,5.75226 6.41388,5.74406 6.40625,5.75 z M 4.4375,7.6875 c -0.497211,0 -0.875,0.3781498 -0.875,0.875 0,0.1910966 0.059178,0.3530943 0.15625,0.5 0.155315,-0.2259459 0.412774,-0.375 0.71875,-0.375 0.303107,0 0.55387,0.1527144 0.71875,0.375 0.105585,-0.1481535 0.1875,-0.306037 0.1875,-0.5 0,-0.4968502 -0.40904,-0.875 -0.90625,-0.875 z m 7.625,1.15625 c 0.01231,0.061183 0.02207,0.1258704 0.03125,0.1875 0.0058,-0.041885 0.02703,-0.082896 0.03125,-0.125 0.0019,-0.019479 0.01323,-0.047945 0,-0.0625 -0.01321,-0.014555 -0.04295,-7.9e-5 -0.0625,0 z M 5.53125,9.0625 C 5.45042,9.232935 5.341627,9.3779542 5.1875,9.5 c -0.02229,0.017659 -0.0083,0.066477 0,0.09375 0.066071,0.216608 0.142531,0.426407 0.25,0.625 0.130658,-0.19249 0.21875,-0.4204912 0.21875,-0.65625 0,-0.1726722 -0.052558,-0.3399102 -0.125,-0.5 z m 5.09375,0 C 10.397753,9.9709995 9.55238,10.625 8.59375,10.625 8.313745,10.625 8.016926,10.58307 7.75,10.46875 7.71878,10.45546 7.70586,10.47165 7.6875,10.5 L 6.96875,11.625 C 6.95827,11.64153 6.93225,11.66857 6.9375,11.6875 6.9427,11.70634 6.9825,11.71002 7,11.71875 7.13937,11.78852 7.291521,11.824647 7.4375,11.875 L 7.6875,11.5 C 7.70586,11.47165 7.71878,11.45546 7.75,11.46875 8.016926,11.58307 8.313745,11.625 8.59375,11.625 c 0.333781,0 0.652882,-0.07821 0.9375,-0.21875 C 9.669104,11.224254 9.84478,11.081224 10.0625,11 c 0.29808,-0.293698 0.522962,-0.659094 0.59375,-1.09375 0.0054,-0.03334 0.02868,-0.062429 0.0625,-0.0625 l 1.15625,0 c 0.07175,-0.1814917 0.11544,-0.3717021 0.15625,-0.5625 l -1.3125,0 c -0.03397,0 -0.0572,-0.028886 -0.0625,-0.0625 C 10.64805,9.16723 10.63698,9.1126172 10.625,9.0625 z M 6.5625,9.125 C 6.530694,9.2685256 6.5,9.4130073 6.5,9.5625 c 0,0.4219932 0.112584,0.84248 0.34375,1.1875 l 0.375,-0.5625 C 7.2371,10.15874 7.21315,10.14757 7.1875,10.125 6.882603,9.8567366 6.664525,9.5063645 6.5625,9.125 z m 3.90625,2.09375 c -0.497212,0 -0.90625,0.380713 -0.90625,0.875 0,0.192963 0.081915,0.351742 0.1875,0.5 0.164879,-0.222449 0.415642,-0.375 0.71875,-0.375 0.303107,0 0.55387,0.152551 0.71875,0.375 0.105585,-0.148258 0.1875,-0.307037 0.1875,-0.5 0,-0.494287 -0.40904,-0.875 -0.90625,-0.875 z"
       id="path4405" />
    <path
       inkscape:connector-curvature="0"
       style="opacity:0.15;fill:#ffffff;fill-opacity:1;display:inline;overflow:visible"
       d="M 9.71875,5.6875 C 9.654585,5.779546 9.618969,5.8869015 9.59375,6 9.8176044,6.2391057 10.146412,6.375 10.5,6.375 c 0.232189,0 0.453944,-0.056852 0.65625,-0.1875 0.02861,-0.018494 0.07111,-0.025312 0.09375,0 0.01978,0.022002 0.04329,0.040006 0.0625,0.0625 0.0015,-0.020978 0,-0.041141 0,-0.0625 0,-0.186705 -0.05698,-0.3576023 -0.15625,-0.5 -0.158824,0.2278364 -0.419776,0.375 -0.71875,0.375 -0.298973,0 -0.5599254,-0.1471636 -0.71875,-0.375 z M 7.4375,6.21875 C 7.2919185,6.2696285 7.1382877,6.3066642 7,6.375 6.982424,6.38372 6.974028,6.418653 6.96875,6.4375 c -0.00536,0.018846 -0.01037,0.014652 0,0.03125 l 0.25,0.4375 L 7.6875,7.625 c 0.018076,0.028689 0.062458,0.013154 0.09375,0 0.2639705,-0.1115921 0.5357286,-0.15625 0.8125,-0.15625 0.9612847,0 1.805558,0.6760776 2.03125,1.59375 0.01342,-0.053802 0.02223,-0.1008433 0.03125,-0.15625 0.0054,-0.03334 0.02868,-0.062429 0.0625,-0.0625 l 1.34375,0 C 12.02309,8.654629 11.97607,8.4617614 11.90625,8.28125 l -1.1875,0 c -0.03397,0 -0.0572,-0.028886 -0.0625,-0.0625 C 10.606837,7.9088908 10.483789,7.6225373 10.3125,7.375 9.8861775,7.3097522 9.5067055,7.0089347 9.34375,6.625 c -0.0041,-0.00966 0.00386,-0.021468 0,-0.03125 -0.2361707,-0.092671 -0.4858968,-0.125 -0.75,-0.125 -0.2767714,0 -0.5485295,0.044658 -0.8125,0.15625 -0.031292,0.013154 -0.075674,0.028689 -0.09375,0 L 7.4375,6.21875 z M 6.875,7.375 C 6.6358297,7.7193156 6.5,8.1380337 6.5,8.5625 c 0,0.1720964 0.020536,0.3356915 0.0625,0.5 C 6.6654456,8.6563191 6.8942163,8.2826841 7.21875,8 c 0.025669,-0.022432 0.018212,-0.064847 0,-0.09375 L 6.875,7.375 z M 5.46875,7.90625 C 5.4053046,8.0232733 5.3310108,8.1267851 5.28125,8.25 c 0.038282,0.09993 0.0625,0.1992182 0.0625,0.3125 0,0.052035 -0.022754,0.106672 -0.03125,0.15625 0.091978,0.094539 0.1613938,0.1956075 0.21875,0.3125 0.06562,-0.1501684 0.125,-0.304336 0.125,-0.46875 0,-0.2332711 -0.059847,-0.4605395 -0.1875,-0.65625 z m -1.75,1.15625 c -0.101759,0.1458999 -0.15625,0.3089038 -0.15625,0.5 0,0.496851 0.3777897,0.90625 0.875,0.90625 0.3930647,0 0.7208579,-0.243348 0.84375,-0.59375 C 5.243714,9.7819785 5.2167102,9.6895128 5.1875,9.59375 5.179201,9.56648 5.165209,9.51766 5.1875,9.5 5.2270384,9.4686913 5.2773954,9.441841 5.3125,9.40625 5.2886916,9.2786247 5.2590977,9.1651551 5.1875,9.0625 5.026611,9.3074453 4.7530372,9.46875 4.4375,9.46875 4.1219627,9.46875 3.879639,9.3074453 3.71875,9.0625 z m 8.375,0 c -0.01064,0.072401 -0.01609,0.1472748 -0.03125,0.21875 0.01954,0 0.04934,0.014513 0.0625,0 0.01315,-0.014487 0.0018,-0.042951 0,-0.0625 C 12.12,9.166896 12.10117,9.114077 12.09375,9.0625 z m -0.1875,0.78125 c -0.173335,0.442554 -0.445185,0.844793 -0.78125,1.1875 -0.02145,0.02189 -0.03543,0.01414 -0.0625,0 -0.178046,-0.09281 -0.36997,-0.125 -0.5625,-0.125 -0.134922,0 -0.284295,0.02181 -0.40625,0.0625 -0.1662795,0.173971 -0.3465951,0.328231 -0.5625,0.4375 -0.127609,0.168855 -0.2240945,0.338751 -0.25,0.5625 -0.00358,0.03031 -0.032404,0.0572 -0.0625,0.0625 -0.2143994,0.03804 -0.4215707,0.0625 -0.625,0.0625 -0.3950446,0 -0.7781034,-0.08731 -1.15625,-0.21875 l -0.46875,0.75 C 6.958268,12.64153 6.932295,12.66857 6.9375,12.6875 6.94272,12.70634 6.982496,12.71002 7,12.71875 c 0.4982017,0.249412 1.0452712,0.375 1.59375,0.375 0.2034293,0 0.4106006,-0.02446 0.625,-0.0625 0.030096,-0.0053 0.058917,-0.03219 0.0625,-0.0625 C 9.31246,12.699183 9.4511452,12.497952 9.625,12.3125 9.608532,12.24485 9.5625,12.16644 9.5625,12.09375 c 0,-0.494287 0.4090385,-0.875 0.90625,-0.875 0.394785,0 0.722184,0.242356 0.84375,0.59375 0.453075,-0.541814 0.742143,-1.204748 0.8125,-1.90625 0.0019,-0.019479 0.01323,-0.047945 0,-0.0625 -0.01321,-0.014555 -0.04295,-7.9e-5 -0.0625,0 l -0.15625,0 z m -6.4375,0.375 C 5.3964658,10.329574 5.2931562,10.416336 5.1875,10.5 c -0.022291,0.01766 -0.0083,0.06648 0,0.09375 0.2106021,0.690438 0.6445346,1.30321 1.21875,1.75 C 6.421652,12.35578 6.418231,12.37838 6.4375,12.375 6.456696,12.3717 6.48952,12.32888 6.5,12.3125 l 0.71875,-1.125 C 7.237098,11.15874 7.213155,11.14757 7.1875,11.125 7.0567366,11.009948 6.9719025,10.859175 6.875,10.71875 L 6.5,11.3125 C 6.48952,11.32888 6.456696,11.3717 6.4375,11.375 6.418231,11.37838 6.421652,11.35578 6.40625,11.34375 6.0164028,11.040415 5.7028828,10.651772 5.46875,10.21875 z M 9.75,12.625 C 9.657367,12.765565 9.5625,12.913145 9.5625,13.09375 9.5625,13.588039 9.9715385,14 10.46875,14 10.96596,14 11.375,13.588039 11.375,13.09375 11.375,12.913145 11.311383,12.765565 11.21875,12.625 11.055936,12.856798 10.774725,13 10.46875,13 10.162774,13 9.9128143,12.856798 9.75,12.625 z"
       id="path4416" />
  </g>
</svg>
